<?xml version='1.0' encoding='ascii'?>
<svg xmlns="http://www.w3.org/2000/svg" height="1080" version="1.1" width="1080">
    <g id="View Layer_LineSet" inkscape:groupmode="lineset" inkscape:label="View Layer_LineSet" xmlns:inkscape="http://www.inkscape.org/namespaces/inkscape">
        <g id="strokes" inkscape:groupmode="layer" inkscape:label="strokes" xmlns:inkscape="http://www.inkscape.org/namespaces/inkscape">
            <path d=" M 565.014, 499.716 564.972, 500.867 564.911, 501.998 564.831, 503.098 564.733, 504.156 564.712, 504.336 564.617, 505.162 564.485, 506.104 564.338, 506.975 564.178, 507.764 564.004, 508.464 563.955, 508.631 " fill="none" stroke="rgb(0, 0, 0)" stroke-linecap="butt" stroke-linejoin="round" stroke-opacity="1.0" stroke-width="3.0" />
            <path d=" M 353.185, 589.043 359.540, 590.547 " fill="none" stroke="rgb(0, 0, 0)" stroke-linecap="butt" stroke-linejoin="round" stroke-opacity="1.0" stroke-width="3.0" />
            <path d=" M 377.443, 591.036 387.408, 590.200 389.451, 590.028 " fill="none" stroke="rgb(0, 0, 0)" stroke-linecap="butt" stroke-linejoin="round" stroke-opacity="1.0" stroke-width="3.0" />
            <path d=" M 389.451, 590.028 385.316, 580.923 381.182, 571.818 380.100, 569.435 " fill="none" stroke="rgb(0, 0, 0)" stroke-linecap="butt" stroke-linejoin="round" stroke-opacity="1.0" stroke-width="3.0" />
            <path d=" M 467.143, 196.704 462.644, 197.533 458.086, 199.447 453.484, 202.478 448.853, 206.653 444.209, 212.001 441.818, 215.374 439.945, 218.016 439.571, 218.544 434.956, 226.295 430.384, 235.262 426.339, 244.408 425.877, 245.452 422.264, 254.776 421.456, 256.859 418.220, 266.321 417.144, 269.469 414.242, 279.039 412.962, 283.261 410.359, 292.916 408.934, 298.206 406.603, 307.930 405.084, 314.263 402.999, 324.043 401.434, 331.383 399.577, 341.208 398.008, 349.506 396.361, 359.369 394.826, 368.566 393.378, 378.460 391.911, 388.483 390.649, 398.403 389.388, 408.323 389.280, 409.170 388.197, 419.111 387.114, 429.052 386.952, 430.534 386.041, 440.492 385.129, 450.450 384.944, 452.471 384.198, 462.443 383.452, 472.416 383.269, 474.874 382.684, 484.857 382.100, 494.839 381.937, 497.627 381.511, 507.618 381.086, 517.609 380.958, 520.615 380.690, 530.611 380.422, 540.608 380.338, 543.717 380.227, 553.716 380.115, 563.715 380.081, 566.811 380.100, 569.435 378.879, 579.360 377.658, 589.285 377.443, 591.036 " fill="none" stroke="rgb(0, 0, 0)" stroke-linecap="butt" stroke-linejoin="round" stroke-opacity="1.0" stroke-width="3.0" />
            <path d=" M 566.931, 520.893 567.162, 520.897 567.995, 520.911 574.851, 517.312 577.944, 516.097 577.935, 506.097 577.930, 501.324 577.802, 491.325 577.741, 486.604 577.492, 476.607 577.377, 471.956 577.005, 461.963 576.836, 457.402 576.340, 447.414 576.119, 442.962 575.494, 432.982 575.224, 428.658 574.467, 418.687 574.151, 414.511 573.258, 404.551 572.899, 400.545 571.864, 390.599 571.467, 386.784 570.285, 376.854 569.855, 373.251 568.661, 364.397 " fill="none" stroke="rgb(0, 0, 0)" stroke-linecap="butt" stroke-linejoin="round" stroke-opacity="1.0" stroke-width="3.0" />
            <path d=" M 565.561, 369.955 566.914, 379.863 567.018, 380.625 568.215, 390.554 568.575, 393.544 569.621, 403.489 569.958, 406.690 570.861, 416.649 571.169, 420.040 571.934, 430.011 572.207, 433.571 572.839, 443.551 573.073, 447.259 573.576, 457.246 573.769, 461.082 574.145, 471.075 574.294, 475.020 574.547, 485.017 574.649, 489.051 574.780, 499.050 574.834, 503.155 574.836, 504.249 574.760, 504.986 574.676, 505.692 574.583, 506.363 574.483, 506.995 574.375, 507.586 574.261, 508.131 574.141, 508.628 574.016, 509.074 573.886, 509.467 573.752, 509.804 573.615, 510.085 573.476, 510.307 573.335, 510.469 573.193, 510.570 569.143, 512.577 568.959, 511.481 568.750, 510.546 568.519, 509.789 568.270, 509.221 568.006, 508.853 567.733, 508.693 567.262, 508.685 565.058, 508.649 564.688, 508.643 563.955, 508.631 563.746, 508.628 562.900, 508.614 559.327, 508.557 557.542, 508.528 557.420, 508.526 557.349, 508.525 557.060, 508.574 556.771, 508.833 556.486, 509.298 556.210, 509.962 555.948, 510.814 555.706, 511.840 555.551, 512.670 555.485, 513.023 555.292, 514.342 555.180, 515.326 555.128, 515.776 555.055, 516.629 554.998, 517.301 554.902, 518.888 554.844, 520.513 554.823, 522.146 555.501, 522.158 557.347, 522.191 557.441, 522.193 559.225, 522.225 562.795, 522.289 563.628, 522.304 564.582, 522.321 565.289, 522.333 566.919, 521.477 566.928, 520.959 566.931, 520.893 566.950, 520.448 566.987, 519.958 567.037, 519.501 567.098, 519.091 567.169, 518.738 567.192, 518.654 567.247, 518.453 567.332, 518.242 567.420, 518.113 567.509, 518.067 " fill="none" stroke="rgb(0, 0, 0)" stroke-linecap="butt" stroke-linejoin="round" stroke-opacity="1.0" stroke-width="3.0" />
            <path d=" M 466.895, 872.566 462.833, 872.530 459.275, 871.635 458.751, 871.503 454.662, 869.452 450.579, 866.351 450.513, 866.284 446.518, 862.176 442.494, 856.903 438.524, 850.516 434.626, 843.004 430.816, 834.363 427.275, 825.011 427.115, 824.589 423.998, 815.087 423.540, 813.691 420.794, 804.076 420.111, 801.685 417.692, 791.982 416.846, 788.591 414.720, 778.820 413.766, 774.437 411.902, 764.612 410.888, 759.264 409.264, 749.397 408.231, 743.119 406.827, 733.218 405.811, 726.055 404.612, 716.127 403.647, 708.135 402.639, 698.186 401.752, 689.432 400.924, 679.467 400.140, 670.026 399.484, 660.047 398.824, 650.000 398.333, 640.012 397.842, 630.024 397.813, 629.449 397.481, 619.455 397.149, 609.460 397.117, 608.472 396.940, 598.473 396.763, 588.475 396.739, 587.169 396.724, 583.653 " fill="none" stroke="rgb(0, 0, 0)" stroke-linecap="butt" stroke-linejoin="round" stroke-opacity="1.0" stroke-width="3.0" />
            <path d=" M 384.354, 274.252 382.064, 282.816 379.753, 292.545 378.546, 297.626 376.479, 307.410 375.181, 313.553 373.335, 323.381 371.989, 330.548 370.345, 340.412 368.989, 348.557 367.534, 358.450 366.200, 367.515 364.921, 377.433 363.641, 387.347 362.527, 397.284 361.412, 407.222 361.328, 407.967 360.370, 417.922 359.413, 427.876 359.277, 429.287 358.470, 439.254 357.663, 449.222 357.502, 451.206 356.840, 461.184 356.178, 471.162 356.015, 473.618 355.494, 483.605 354.973, 493.591 354.826, 496.411 354.444, 506.404 354.062, 516.397 353.944, 519.470 353.699, 529.467 353.454, 539.464 353.375, 542.676 353.266, 552.675 353.157, 562.674 353.121, 565.907 353.149, 575.907 353.176, 585.907 353.185, 589.043 353.397, 599.041 353.609, 609.038 353.669, 611.837 354.045, 621.830 354.422, 631.822 354.514, 634.273 355.060, 644.258 355.605, 654.243 355.714, 656.238 356.434, 666.212 357.155, 676.186 357.258, 677.624 358.162, 687.583 359.065, 697.542 359.137, 698.328 360.233, 708.268 361.335, 718.259 362.636, 728.174 363.838, 737.329 365.359, 747.213 366.629, 755.461 368.389, 765.305 369.691, 772.587 371.710, 782.381 373.002, 788.650 375.308, 798.381 375.549, 799.401 " fill="none" stroke="rgb(0, 0, 0)" stroke-linecap="butt" stroke-linejoin="round" stroke-opacity="1.0" stroke-width="3.0" />
            <path d=" M 523.202, 536.802 523.096, 543.827 522.840, 553.824 522.733, 557.982 522.369, 567.975 522.218, 572.116 521.745, 582.105 521.551, 586.211 520.970, 596.194 520.734, 600.248 520.043, 610.224 519.767, 614.205 518.964, 624.173 518.650, 628.064 518.303, 631.830 " fill="none" stroke="rgb(0, 0, 0)" stroke-linecap="butt" stroke-linejoin="round" stroke-opacity="1.0" stroke-width="3.0" />
            <path d=" M 501.293, 747.633 499.334, 756.459 496.984, 766.179 496.604, 767.750 494.059, 777.420 493.736, 778.650 490.978, 788.262 490.729, 789.132 487.740, 798.674 487.587, 799.163 484.312, 808.709 480.909, 817.738 477.380, 826.217 473.729, 834.109 469.962, 841.377 466.085, 847.984 462.102, 853.895 458.022, 859.069 453.852, 863.467 450.513, 866.284 " fill="none" stroke="rgb(0, 0, 0)" stroke-linecap="butt" stroke-linejoin="round" stroke-opacity="1.0" stroke-width="3.0" />
            <path d=" M 389.426, 584.807 389.451, 590.028 389.639, 600.026 389.826, 610.024 389.877, 612.764 390.231, 622.758 390.584, 632.752 390.669, 635.145 391.192, 645.131 391.715, 655.118 391.817, 657.058 392.516, 667.034 393.215, 677.009 393.312, 678.396 394.195, 688.357 395.077, 698.317 395.143, 699.056 396.217, 708.998 397.292, 718.947 398.569, 728.865 399.742, 737.983 401.236, 747.871 402.476, 756.087 404.202, 765.937 405.472, 773.190 407.449, 782.992 408.708, 789.235 410.961, 798.978 412.163, 804.174 414.721, 813.841 415.813, 817.965 418.713, 827.535 419.635, 830.579 422.921, 840.024 423.607, 841.996 427.334, 851.276 427.706, 852.202 431.910, 861.190 436.197, 868.965 438.318, 872.169 438.574, 872.555 440.548, 875.537 444.942, 880.918 449.361, 885.130 453.788, 888.199 458.206, 890.153 462.601, 891.025 466.958, 890.850 471.265, 889.668 475.511, 887.516 479.683, 884.434 481.862, 882.320 483.773, 880.466 487.773, 875.653 491.676, 870.037 495.474, 863.657 499.161, 856.558 502.734, 848.781 506.186, 840.361 507.212, 837.580 509.514, 831.341 512.684, 821.856 512.717, 821.758 515.624, 812.190 515.789, 811.647 518.462, 802.011 518.730, 801.044 519.552, 797.806 " fill="none" stroke="rgb(0, 0, 0)" stroke-linecap="butt" stroke-linejoin="round" stroke-opacity="1.0" stroke-width="3.0" />
            <path d=" M 516.126, 789.997 513.451, 799.324 510.461, 808.850 507.355, 817.859 504.136, 826.320 500.807, 834.195 497.374, 841.447 493.842, 848.040 490.215, 853.939 486.501, 859.102 482.707, 863.491 478.840, 867.071 474.909, 869.802 470.924, 871.646 466.895, 872.566 " fill="none" stroke="rgb(0, 0, 0)" stroke-linecap="butt" stroke-linejoin="round" stroke-opacity="1.0" stroke-width="3.0" />
            <path d=" M 555.055, 516.629 548.972, 516.418 548.151, 516.390 546.398, 516.329 546.344, 526.329 546.322, 530.433 546.170, 540.431 546.108, 544.554 545.859, 554.551 545.756, 558.676 545.409, 568.670 545.266, 572.778 544.821, 582.768 544.640, 586.840 544.095, 596.825 543.876, 600.844 543.231, 610.824 542.976, 614.771 542.228, 624.743 541.939, 628.599 541.087, 638.562 540.767, 642.308 539.808, 652.262 539.459, 655.879 538.390, 665.821 538.017, 669.288 536.833, 679.218 536.440, 682.515 535.137, 692.430 534.729, 695.536 533.302, 705.434 533.054, 707.151 " fill="none" stroke="rgb(0, 0, 0)" stroke-linecap="butt" stroke-linejoin="round" stroke-opacity="1.0" stroke-width="3.0" />
            <path d=" M 535.604, 715.208 536.970, 705.301 537.378, 702.348 538.623, 692.426 539.091, 688.705 540.221, 678.769 540.666, 674.857 541.685, 664.909 542.103, 660.826 543.016, 650.868 543.404, 646.636 544.214, 636.669 544.568, 632.308 545.277, 622.333 545.595, 617.862 546.206, 607.881 546.485, 603.319 547.001, 593.332 547.240, 588.699 547.661, 578.708 547.859, 574.021 548.187, 564.026 548.342, 559.305 548.578, 549.307 548.689, 544.569 548.833, 534.570 548.902, 529.833 548.954, 519.833 548.972, 516.418 " fill="none" stroke="rgb(0, 0, 0)" stroke-linecap="butt" stroke-linejoin="round" stroke-opacity="1.0" stroke-width="3.0" />
            <path d=" M 377.443, 591.036 377.637, 601.035 377.831, 611.033 377.903, 614.702 378.260, 624.695 378.617, 634.689 378.736, 637.990 379.260, 647.976 379.785, 657.962 379.933, 660.782 380.631, 670.757 381.328, 680.733 381.485, 682.963 382.364, 692.924 383.243, 702.886 383.379, 704.427 384.448, 714.370 385.517, 724.313 385.599, 725.076 386.870, 734.995 388.129, 744.821 389.616, 754.710 390.950, 763.580 392.671, 773.431 394.042, 781.282 396.017, 791.085 397.384, 797.869 399.638, 807.611 400.952, 813.290 403.519, 822.956 404.726, 827.504 407.642, 837.070 408.682, 840.483 411.993, 849.918 412.796, 852.206 416.562, 861.470 417.046, 862.661 421.339, 871.693 421.410, 871.843 425.866, 879.760 430.394, 886.424 434.972, 891.850 439.583, 896.061 444.207, 899.089 448.829, 900.965 453.432, 901.722 458.003, 901.400 462.526, 900.042 466.991, 897.688 471.386, 894.381 475.700, 890.166 " fill="none" stroke="rgb(0, 0, 0)" stroke-linecap="butt" stroke-linejoin="round" stroke-opacity="1.0" stroke-width="3.0" />
            <path d=" M 475.700, 890.166 482.097, 882.480 483.773, 880.466 " fill="none" stroke="rgb(0, 0, 0)" stroke-linecap="butt" stroke-linejoin="round" stroke-opacity="1.0" stroke-width="3.0" />
            <path d=" M 540.299, 541.413 530.300, 541.506 528.918, 541.519 525.900, 539.028 523.202, 536.802 519.232, 533.526 518.949, 533.293 518.666, 533.059 518.382, 532.825 518.100, 532.591 517.940, 532.399 " fill="none" stroke="rgb(0, 0, 0)" stroke-linecap="butt" stroke-linejoin="round" stroke-opacity="1.0" stroke-width="3.0" />
            <path d=" M 521.885, 502.077 526.925, 493.440 528.873, 490.100 538.845, 490.854 540.311, 490.965 540.467, 500.964 540.622, 510.963 540.703, 516.133 540.607, 526.132 540.568, 530.242 540.327, 540.239 540.299, 541.413 532.714, 534.896 531.394, 533.763 531.122, 533.529 530.850, 533.295 530.577, 533.061 530.306, 532.826 529.988, 532.431 529.686, 531.808 529.406, 530.969 529.191, 530.081 529.155, 529.930 528.938, 528.711 528.759, 527.334 528.622, 525.825 528.528, 524.215 528.511, 523.615 528.480, 522.532 528.479, 520.812 528.525, 519.086 528.616, 517.393 528.616, 517.388 528.752, 515.752 528.929, 514.208 529.144, 512.787 529.261, 512.193 529.393, 511.516 529.671, 510.419 529.972, 509.517 530.289, 508.826 530.561, 508.339 530.834, 507.852 531.106, 507.367 531.378, 506.882 531.516, 506.639 536.409, 497.918 540.311, 490.965 " fill="none" stroke="rgb(0, 0, 0)" stroke-linecap="butt" stroke-linejoin="round" stroke-opacity="1.0" stroke-width="3.0" />
            <path d=" M 530.868, 523.657 530.743, 523.582 530.627, 523.373 530.523, 523.039 530.437, 522.597 530.373, 522.064 530.333, 521.465 530.319, 520.826 530.332, 520.174 530.371, 519.538 530.435, 518.947 530.520, 518.426 530.623, 517.998 530.740, 517.682 530.864, 517.491 530.991, 517.435 " fill="none" stroke="rgb(0, 0, 0)" stroke-linecap="butt" stroke-linejoin="round" stroke-opacity="1.0" stroke-width="3.0" />
            <path d=" M 530.991, 517.435 531.115, 517.513 531.232, 517.724 531.335, 518.059 531.420, 518.501 531.484, 519.031 531.524, 519.629 531.537, 520.266 531.524, 520.915 531.485, 521.548 531.422, 522.138 531.337, 522.658 531.235, 523.086 531.119, 523.404 530.995, 523.597 530.868, 523.657 " fill="none" stroke="rgb(0, 0, 0)" stroke-linecap="butt" stroke-linejoin="round" stroke-opacity="1.0" stroke-width="3.0" />
            <path d=" M 360.220, 519.339 360.091, 522.928 359.872, 532.925 359.653, 542.923 359.596, 545.526 359.514, 555.526 359.433, 565.525 359.412, 568.096 359.453, 575.227 359.510, 585.227 359.540, 590.547 359.737, 600.545 359.934, 610.543 359.979, 612.791 360.318, 622.785 360.657, 632.780 360.724, 634.741 360.847, 637.275 " fill="none" stroke="rgb(0, 0, 0)" stroke-linecap="butt" stroke-linejoin="round" stroke-opacity="1.0" stroke-width="3.0" />
            <path d=" M 541.732, 732.095 543.169, 722.199 543.265, 721.536 544.599, 711.625 544.962, 708.932 546.197, 699.009 546.550, 696.172 547.690, 686.237 548.030, 683.269 549.077, 673.324 549.402, 670.238 550.359, 660.284 550.666, 657.091 551.535, 647.129 551.821, 643.842 552.604, 633.873 552.868, 630.504 553.567, 620.528 553.808, 617.088 554.423, 607.107 554.639, 603.606 555.172, 593.620 555.362, 590.070 555.814, 580.081 555.976, 576.492 556.348, 566.499 556.482, 562.883 556.774, 552.887 556.880, 549.253 557.092, 539.256 557.170, 535.615 557.302, 525.616 557.347, 522.191 " fill="none" stroke="rgb(0, 0, 0)" stroke-linecap="butt" stroke-linejoin="round" stroke-opacity="1.0" stroke-width="3.0" />
            <path d=" M 456.909, 930.578 459.335, 930.751 463.475, 930.437 467.576, 929.310 471.630, 927.400 475.629, 924.738 479.567, 921.354 483.438, 917.279 487.237, 912.544 490.958, 907.180 494.596, 901.216 498.149, 894.684 501.613, 887.610 504.984, 880.025 508.259, 871.956 511.437, 863.428 514.516, 854.469 517.493, 845.103 520.321, 835.512 520.367, 835.355 523.010, 825.711 523.137, 825.248 525.609, 815.558 525.802, 814.803 526.408, 812.253 " fill="none" stroke="rgb(0, 0, 0)" stroke-linecap="butt" stroke-linejoin="round" stroke-opacity="1.0" stroke-width="3.0" />
            <path d=" M 522.622, 210.761 522.397, 210.057 519.478, 201.756 516.445, 193.929 513.298, 186.603 510.039, 179.807 506.671, 173.569 503.196, 167.919 499.617, 162.888 495.937, 158.506 492.162, 154.803 488.295, 151.812 484.342, 149.563 480.309, 148.088 476.202, 147.416 473.878, 147.506 472.028, 147.577 467.796, 148.601 463.515, 150.515 459.193, 153.344 454.841, 157.114 450.471, 161.846 446.093, 167.558 441.721, 174.268 437.368, 181.988 433.048, 190.726 430.102, 197.456 428.775, 200.487 425.139, 209.803 424.566, 211.271 421.263, 220.710 420.435, 223.073 419.140, 227.184 416.400, 235.881 413.664, 245.500 412.475, 249.680 409.986, 259.365 408.679, 264.448 406.415, 274.188 405.028, 280.155 402.972, 289.941 401.538, 296.767 399.676, 306.592 398.227, 314.244 396.546, 324.102 395.109, 332.537 393.600, 342.422 392.201, 351.593 390.855, 361.502 389.517, 371.352 388.326, 381.281 387.136, 391.210 387.071, 391.750 386.030, 401.695 384.989, 411.641 384.876, 412.714 383.980, 422.674 383.083, 432.634 382.944, 434.170 382.188, 444.142 381.431, 454.113 381.285, 456.038 380.666, 466.018 380.047, 475.999 379.908, 478.233 379.424, 488.221 378.939, 498.210 378.820, 500.670 378.469, 510.664 378.118, 520.657 378.026, 523.259 377.808, 533.256 377.589, 543.254 377.531, 545.910 377.445, 555.910 377.359, 565.909 377.336, 568.533 377.384, 578.533 377.431, 588.533 377.443, 591.036 377.624, 601.035 377.806, 611.033 377.848, 613.332 378.167, 623.327 378.485, 633.322 378.549, 635.331 379.008, 645.321 379.466, 655.310 379.541, 656.950 380.144, 666.932 380.746, 676.914 380.818, 678.107 381.569, 688.079 382.319, 698.051 382.370, 698.726 383.276, 708.685 384.189, 718.733 385.256, 728.675 386.263, 738.061 387.501, 747.984 388.581, 756.649 389.999, 766.548 391.129, 774.441 392.739, 784.311 393.893, 791.388 395.709, 801.221 396.859, 807.446 398.899, 817.235 400.012, 822.578 402.294, 832.314 403.335, 836.754 405.884, 846.424 406.814, 849.950 409.658, 859.537 410.432, 862.147 413.605, 871.630 414.174, 873.332 417.716, 882.684 418.025, 883.498 421.968, 892.644 425.988, 900.772 430.072, 907.889 434.205, 914.006 438.375, 919.139 442.567, 923.305 446.770, 926.525 450.973, 928.823 455.165, 930.222 457.580, 930.528 459.335, 930.751 " fill="none" stroke="rgb(0, 0, 0)" stroke-linecap="butt" stroke-linejoin="round" stroke-opacity="1.0" stroke-width="3.0" />
            <path d=" M 473.778, 147.489 469.577, 147.651 465.319, 148.676 461.010, 150.590 456.661, 153.419 452.282, 157.189 447.884, 161.920 443.479, 167.631 439.080, 174.340 434.701, 182.057 430.354, 190.793 427.225, 197.897 426.056, 200.552 422.400, 209.859 421.822, 211.332 418.500, 220.765 417.666, 223.130 414.644, 232.663 413.607, 235.935 412.061, 241.337 409.660, 249.729 407.156, 259.411 405.842, 264.491 403.564, 274.229 402.170, 280.193 400.102, 289.977 398.660, 296.799 396.788, 306.623 395.330, 314.269 393.640, 324.126 392.195, 332.556 390.678, 342.440 389.271, 351.605 387.918, 361.513 386.573, 371.357 385.376, 381.285 384.179, 391.213 384.115, 391.746 383.068, 401.691 382.022, 411.636 381.909, 412.702 381.008, 422.662 380.107, 432.621 379.968, 434.150 379.208, 444.121 378.448, 454.092 378.302, 456.009 377.680, 465.990 377.057, 475.970 376.919, 478.196 376.432, 488.184 375.946, 498.172 375.827, 500.623 375.475, 510.617 375.123, 520.611 375.031, 523.204 374.813, 533.201 374.594, 543.199 374.536, 545.846 374.451, 555.846 374.366, 565.845 374.343, 568.460 374.392, 578.460 374.441, 588.460 374.453, 590.955 374.637, 600.953 374.822, 610.951 374.864, 613.241 375.186, 623.236 375.508, 633.231 375.573, 635.233 376.035, 645.222 376.498, 655.211 376.574, 656.843 377.181, 666.825 377.789, 676.807 377.861, 677.993 378.618, 687.964 379.375, 697.935 379.426, 698.604 380.339, 708.562 381.259, 718.604 382.334, 728.546 383.349, 737.925 384.595, 747.847 385.683, 756.507 387.111, 766.405 388.250, 774.293 389.871, 784.161 391.033, 791.235 392.863, 801.066 394.020, 807.288 396.074, 817.075 397.195, 822.416 399.493, 832.148 400.541, 836.589 403.107, 846.254 404.044, 849.781 406.906, 859.362 407.686, 861.975 410.879, 871.452 411.454, 873.158 415.017, 882.501 415.330, 883.322 419.299, 892.467 423.346, 900.593 427.457, 907.710 431.617, 913.828 435.813, 918.961 440.033, 923.127 444.263, 926.348 448.493, 928.647 452.712, 930.048 456.909, 930.578 " fill="none" stroke="rgb(0, 0, 0)" stroke-linecap="butt" stroke-linejoin="round" stroke-opacity="1.0" stroke-width="3.0" />
            <path d=" M 476.202, 147.416 473.778, 147.489 " fill="none" stroke="rgb(0, 0, 0)" stroke-linecap="butt" stroke-linejoin="round" stroke-opacity="1.0" stroke-width="3.0" />
            <path d=" M 547.729, 745.898 548.091, 743.524 549.493, 733.623 549.968, 730.273 551.271, 720.358 551.732, 716.851 552.939, 706.924 553.383, 703.275 554.497, 693.338 554.921, 689.559 555.945, 679.611 556.346, 675.716 557.282, 665.760 557.659, 661.759 558.510, 651.795 558.859, 647.702 559.627, 637.731 559.948, 633.556 560.633, 623.579 560.925, 619.334 561.529, 609.352 561.790, 605.047 562.314, 595.061 562.543, 590.707 562.988, 580.717 563.184, 576.324 563.552, 566.331 563.714, 561.910 564.003, 551.914 564.132, 547.476 564.344, 537.478 564.438, 533.031 564.572, 523.032 564.582, 522.321 " fill="none" stroke="rgb(0, 0, 0)" stroke-linecap="butt" stroke-linejoin="round" stroke-opacity="1.0" stroke-width="3.0" />
            <path d=" M 454.449, 958.543 456.870, 958.724 461.354, 958.943 465.797, 958.256 470.190, 956.699 474.525, 954.306 478.794, 951.112 482.991, 947.155 487.110, 942.468 491.145, 937.088 495.092, 931.048 498.945, 924.383 502.702, 917.126 506.359, 909.308 509.914, 900.961 513.363, 892.116 516.706, 882.800 519.852, 873.308 519.939, 873.044 522.875, 863.484 523.063, 862.872 525.806, 853.256 526.075, 852.312 528.641, 842.646 528.914, 841.618 528.976, 841.387 531.378, 831.680 531.763, 830.123 533.037, 824.603 " fill="none" stroke="rgb(0, 0, 0)" stroke-linecap="butt" stroke-linejoin="round" stroke-opacity="1.0" stroke-width="3.0" />
            <path d=" M 539.845, 227.496 539.423, 225.550 537.126, 215.818 536.872, 214.743 534.386, 205.057 534.194, 204.312 531.502, 194.682 531.390, 194.283 528.459, 184.681 525.402, 175.536 522.220, 166.876 518.913, 158.731 515.484, 151.132 511.934, 144.112 508.265, 137.702 504.480, 131.938 500.583, 126.854 496.576, 122.484 492.466, 118.865 488.256, 116.033 483.953, 114.023 479.563, 112.872 475.094, 112.614 474.007, 112.775 470.553, 113.285 465.950, 114.917 461.295, 117.543 456.599, 121.193 451.874, 125.895 447.131, 131.674 442.386, 138.551 437.653, 146.545 433.068, 155.433 432.946, 155.670 428.810, 164.774 428.283, 165.934 424.541, 175.208 423.680, 177.342 422.598, 180.342 419.207, 189.750 419.156, 189.891 416.696, 197.491 414.728, 203.573 413.803, 206.745 411.006, 216.346 410.415, 218.375 407.873, 228.046 406.236, 234.273 403.928, 244.003 402.211, 251.239 400.118, 261.017 398.358, 269.236 396.465, 279.055 394.698, 288.221 393.625, 294.413 391.919, 304.266 391.247, 308.142 389.716, 318.024 388.185, 327.906 388.025, 328.939 386.661, 338.845 385.296, 348.752 385.049, 350.546 383.843, 360.473 382.637, 370.400 382.335, 372.889 381.281, 382.833 380.227, 392.777 379.898, 395.888 378.991, 405.847 378.084, 415.805 377.751, 419.456 376.987, 429.427 376.223, 439.398 375.908, 443.503 375.283, 453.483 374.658, 463.464 374.378, 467.931 373.890, 477.919 373.402, 487.907 373.171, 492.642 372.817, 502.635 372.464, 512.629 372.291, 517.531 372.072, 527.529 371.854, 537.526 371.745, 542.496 371.660, 552.495 371.576, 562.495 371.534, 567.430 371.585, 577.430 371.635, 587.430 371.659, 592.229 371.846, 602.228 372.033, 612.226 372.118, 616.790 372.443, 626.785 372.769, 636.780 372.906, 641.012 373.374, 651.001 373.841, 660.990 374.019, 664.796 374.632, 674.777 375.245, 684.758 375.447, 688.050 376.211, 698.021 376.974, 707.992 377.181, 710.685 378.102, 720.643 379.023, 730.600 379.209, 732.619 380.295, 742.560 381.380, 752.501 381.520, 753.776 382.779, 763.696 384.038, 773.617 384.097, 774.086 385.540, 783.981 386.927, 793.487 388.567, 803.351 389.992, 811.925 391.843, 821.752 393.275, 829.352 395.356, 839.133 396.760, 845.730 399.091, 855.455 400.427, 861.027 400.574, 861.571 403.025, 870.646 404.259, 875.218 407.172, 884.784 408.238, 888.285 411.065, 896.498 412.345, 900.218 415.575, 908.483 416.564, 911.012 420.641, 920.143 420.876, 920.669 425.264, 929.196 429.714, 936.605 434.208, 942.911 438.733, 948.135 443.274, 952.301 447.819, 955.435 452.354, 957.565 456.570, 958.647 456.870, 958.724 " fill="none" stroke="rgb(0, 0, 0)" stroke-linecap="butt" stroke-linejoin="round" stroke-opacity="1.0" stroke-width="3.0" />
            <path d=" M 361.343, 488.623 361.152, 492.468 360.795, 502.461 360.438, 512.455 360.264, 517.318 360.220, 519.339 360.000, 529.337 359.781, 539.334 359.717, 542.243 359.636, 552.243 359.555, 562.243 359.515, 567.139 359.559, 574.992 359.616, 584.992 359.644, 589.735 359.656, 591.899 359.853, 601.897 360.050, 611.895 360.139, 616.422 360.289, 620.830 360.628, 630.824 360.847, 637.275 360.960, 640.607 361.130, 644.115 " fill="none" stroke="rgb(0, 0, 0)" stroke-linecap="butt" stroke-linejoin="round" stroke-opacity="1.0" stroke-width="3.0" />
            <path d=" M 472.675, 112.698 468.105, 113.370 463.473, 115.003 458.789, 117.629 454.064, 121.279 449.309, 125.980 444.538, 131.758 439.763, 138.634 435.001, 146.626 430.394, 155.502 430.266, 155.749 426.108, 164.844 425.575, 166.010 421.813, 175.276 420.945, 177.415 417.535, 186.815 416.394, 189.960 413.731, 198.138 411.940, 203.638 409.383, 212.359 407.602, 218.435 405.045, 228.103 404.937, 228.510 403.399, 234.328 401.077, 244.054 399.351, 251.288 397.246, 261.064 395.477, 269.279 393.573, 279.096 391.796, 288.257 390.079, 298.109 388.363, 307.960 388.327, 308.170 386.787, 318.051 385.247, 327.932 385.087, 328.959 384.686, 331.857 383.314, 341.762 382.096, 350.558 380.883, 360.484 379.671, 370.410 379.367, 372.893 378.308, 382.836 377.249, 392.780 376.918, 395.882 376.007, 405.841 375.095, 415.799 374.762, 419.442 373.994, 429.412 373.226, 439.383 372.910, 443.479 372.283, 453.459 371.655, 463.439 371.374, 467.898 370.884, 477.886 370.394, 487.874 370.162, 492.598 369.808, 502.592 369.454, 512.586 369.281, 517.478 369.062, 527.476 368.843, 537.473 368.734, 542.433 368.651, 552.432 368.567, 562.432 368.526, 567.357 368.578, 577.357 368.630, 587.357 368.655, 592.147 368.844, 602.145 369.033, 612.143 369.120, 616.698 369.448, 626.693 369.777, 636.687 369.916, 640.910 370.388, 650.899 370.859, 660.888 371.039, 664.686 371.657, 674.667 372.275, 684.647 372.479, 687.931 373.249, 697.901 374.019, 707.872 374.226, 710.558 375.155, 720.515 376.083, 730.472 376.271, 732.484 377.365, 742.424 378.458, 752.364 378.598, 753.634 379.867, 763.553 381.135, 773.472 381.194, 773.937 382.648, 783.831 384.044, 793.332 385.696, 803.194 387.131, 811.764 388.995, 821.589 390.437, 829.186 392.532, 838.965 393.625, 844.064 393.945, 845.560 396.292, 855.281 397.638, 860.853 398.110, 862.589 400.734, 872.239 401.260, 874.172 401.496, 875.040 404.427, 884.601 405.501, 888.104 408.200, 895.891 409.636, 900.035 413.297, 909.340 413.882, 910.827 417.982, 919.948 418.222, 920.483 422.640, 929.010 427.118, 936.418 431.642, 942.724 436.196, 947.949 440.766, 952.116 445.340, 955.250 449.905, 957.383 454.449, 958.543 " fill="none" stroke="rgb(0, 0, 0)" stroke-linecap="butt" stroke-linejoin="round" stroke-opacity="1.0" stroke-width="3.0" />
            <path d=" M 475.094, 112.614 472.675, 112.698 " fill="none" stroke="rgb(0, 0, 0)" stroke-linecap="butt" stroke-linejoin="round" stroke-opacity="1.0" stroke-width="3.0" />
            <path d=" M 545.241, 231.990 543.943, 225.389 541.854, 215.610 541.455, 213.742 539.196, 204.001 538.836, 202.447 536.392, 192.750 536.084, 191.527 533.439, 181.884 533.200, 181.011 530.335, 171.431 530.184, 170.926 527.075, 161.421 527.035, 161.300 523.755, 152.164 520.344, 143.550 516.803, 135.489 513.135, 128.016 509.340, 121.166 505.422, 114.975 501.383, 109.479 497.228, 104.716 492.960, 100.724 488.586, 97.543 484.109, 95.210 479.538, 93.766 474.879, 93.248 470.068, 93.428 465.270, 93.877 460.401, 95.326 455.473, 97.813 450.496, 101.370 445.482, 106.029 440.446, 111.818 435.402, 118.764 430.366, 126.887 425.628, 135.693 425.353, 136.204 421.082, 145.246 420.382, 146.728 416.521, 155.953 415.470, 158.464 411.974, 167.833 410.638, 171.414 407.467, 180.898 405.905, 185.571 403.027, 195.148 401.291, 200.921 398.678, 210.574 396.818, 217.444 394.447, 227.159 392.506, 235.109 390.357, 244.876 388.376, 253.881 386.434, 263.690 384.492, 273.500 384.450, 273.713 384.354, 274.252 382.604, 284.098 380.855, 293.943 380.747, 294.551 379.179, 304.427 377.611, 314.304 377.288, 316.333 375.892, 326.235 374.495, 336.137 374.093, 338.989 372.860, 348.912 371.626, 358.836 371.178, 362.439 370.102, 372.381 369.025, 382.323 368.562, 386.598 367.636, 396.555 366.710, 406.513 366.258, 411.374 365.479, 421.344 364.700, 431.313 364.281, 436.668 364.086, 439.729 363.450, 449.709 362.813, 459.689 362.642, 462.376 362.146, 472.364 361.651, 482.351 361.351, 488.390 361.343, 488.623 360.988, 498.551 360.631, 508.544 360.414, 514.600 360.195, 524.598 359.976, 534.595 359.838, 540.892 359.757, 550.892 359.675, 560.892 359.624, 567.153 359.667, 574.755 359.724, 584.754 359.748, 588.913 359.773, 593.269 359.970, 603.267 360.167, 613.265 360.282, 619.128 360.621, 629.122 360.770, 633.503 361.017, 640.786 361.130, 644.115 361.147, 644.622 361.632, 654.610 361.906, 660.252 362.362, 669.644 362.996, 679.624 363.631, 689.604 363.916, 694.094 364.706, 704.063 365.495, 714.032 365.800, 717.878 366.751, 727.833 367.701, 737.787 367.999, 740.907 369.120, 750.844 370.240, 760.781 370.501, 763.098 371.800, 773.014 373.098, 782.929 373.288, 784.380 374.777, 794.269 375.549, 799.401 376.345, 804.686 378.036, 814.542 379.651, 823.958 381.561, 833.774 383.190, 842.149 385.336, 851.916 386.940, 859.216 389.345, 868.923 390.883, 875.129 393.573, 884.760 394.999, 889.862 398.005, 899.399 399.266, 903.399 402.628, 912.817 403.667, 915.730 407.428, 924.996 408.182, 926.854 412.395, 935.923 412.791, 936.773 417.476, 945.498 422.221, 953.043 427.009, 959.427 431.823, 964.675 436.649, 968.813 441.474, 971.870 446.283, 973.881 451.065, 974.878 455.879, 975.248 460.564, 975.263 465.201, 974.338 469.782, 972.511 474.297, 969.820 478.739, 966.303 483.102, 961.999 487.380, 956.947 491.566, 951.183 495.657, 944.744 499.649, 937.667 503.536, 929.986 507.318, 921.736 510.991, 912.948 514.552, 903.656 517.881, 894.226 518.000, 893.888 521.103, 884.382 521.334, 883.675 524.231, 874.104 524.552, 873.044 527.261, 863.418 527.654, 862.022 530.189, 852.349 530.638, 850.635 533.012, 840.921 533.504, 838.907 535.700, 829.281 " fill="none" stroke="rgb(0, 0, 0)" stroke-linecap="butt" stroke-linejoin="round" stroke-opacity="1.0" stroke-width="3.0" />
            <path d=" M 550.022, 750.686 550.264, 749.082 551.654, 739.179 552.188, 735.376 553.480, 725.460 553.995, 721.501 555.192, 711.573 555.686, 707.474 556.792, 697.535 557.262, 693.308 558.278, 683.360 558.721, 679.017 559.650, 669.060 560.065, 664.614 560.910, 654.649 561.295, 650.111 562.056, 640.140 562.409, 635.522 563.090, 625.545 563.410, 620.857 564.010, 610.875 564.295, 606.128 564.817, 596.141 565.067, 591.346 565.510, 581.356 565.725, 576.522 566.091, 566.529 566.269, 561.667 566.557, 551.672 566.698, 546.792 566.910, 536.794 567.013, 531.906 567.148, 521.907 567.162, 520.897 " fill="none" stroke="rgb(0, 0, 0)" stroke-linecap="butt" stroke-linejoin="round" stroke-opacity="1.0" stroke-width="3.0" />
            <path d=" M 474.879, 93.248 470.140, 93.695 465.332, 95.143 460.464, 97.629 455.548, 101.186 450.596, 105.846 445.621, 111.637 440.637, 118.585 435.660, 126.711 430.968, 135.542 430.707, 136.033 426.479, 145.095 425.794, 146.562 421.974, 155.803 420.940, 158.305 420.118, 160.535 416.660, 169.918 416.164, 171.262 413.028, 180.758 411.486, 185.428 408.639, 195.014 406.924, 200.788 404.340, 210.448 403.906, 212.070 402.501, 217.321 400.156, 227.042 399.168, 231.138 398.237, 234.999 396.113, 244.771 394.153, 253.784 392.926, 260.054 391.006, 269.868 390.269, 273.630 388.539, 283.479 386.809, 293.329 386.606, 294.484 385.056, 304.363 383.505, 314.242 383.184, 316.282 382.228, 323.135 380.847, 333.039 380.022, 338.955 378.801, 348.880 377.581, 358.806 377.137, 362.424 376.071, 372.367 375.005, 382.310 374.545, 386.602 373.629, 396.560 373.267, 400.485 372.351, 410.443 372.263, 411.397 371.491, 421.367 370.719, 431.337 370.303, 436.711 369.673, 446.691 369.042, 456.671 368.678, 462.439 368.186, 472.427 367.694, 482.415 367.395, 488.474 367.040, 498.468 366.685, 508.462 366.463, 514.705 366.245, 524.703 366.026, 534.700 365.887, 541.018 365.804, 551.018 365.721, 561.017 365.669, 567.300 365.723, 577.299 365.776, 587.299 365.809, 593.436 366.001, 603.434 366.193, 613.432 366.305, 619.315 366.638, 629.310 366.970, 639.304 367.154, 644.828 367.629, 654.817 368.105, 664.806 368.346, 669.870 368.970, 679.850 369.594, 689.831 369.876, 694.338 370.652, 704.308 371.429, 714.278 371.730, 718.139 372.666, 728.095 373.603, 738.051 373.897, 741.184 375.001, 751.123 376.104, 761.062 376.363, 763.391 377.642, 773.309 378.922, 783.227 379.110, 784.687 380.578, 794.579 381.279, 799.308 381.941, 803.772 382.124, 805.006 383.792, 814.866 385.385, 824.290 387.269, 834.111 388.876, 842.491 388.975, 842.949 390.392, 849.489 392.510, 859.262 392.576, 859.568 394.950, 869.282 396.467, 875.489 398.360, 882.360 400.528, 890.228 403.498, 899.777 404.740, 903.771 408.061, 913.204 409.083, 916.107 411.675, 922.580 413.539, 927.234 417.707, 936.324 418.089, 937.156 422.715, 945.882 427.399, 953.428 432.126, 959.812 436.879, 965.058 441.645, 969.193 446.408, 972.248 451.157, 974.255 455.879, 975.248 " fill="none" stroke="rgb(0, 0, 0)" stroke-linecap="butt" stroke-linejoin="round" stroke-opacity="1.0" stroke-width="3.0" />
            <path d=" M 565.289, 522.333 565.308, 520.864 565.310, 520.698 565.368, 519.071 565.429, 518.031 565.461, 517.481 565.588, 515.955 565.747, 514.519 565.934, 513.197 566.055, 512.525 566.147, 512.013 566.382, 510.985 566.634, 510.132 566.900, 509.467 567.175, 509.001 567.261, 508.922 567.454, 508.742 567.733, 508.693 " fill="none" stroke="rgb(0, 0, 0)" stroke-linecap="butt" stroke-linejoin="round" stroke-opacity="1.0" stroke-width="3.0" />
            <path d=" M 567.995, 520.911 567.989, 520.404 567.968, 519.918 567.933, 519.466 567.886, 519.061 567.827, 518.714 567.757, 518.435 567.680, 518.230 567.596, 518.107 567.509, 518.067 " fill="none" stroke="rgb(0, 0, 0)" stroke-linecap="butt" stroke-linejoin="round" stroke-opacity="1.0" stroke-width="3.0" />
            <path d=" M 531.302, 476.549 531.306, 482.209 531.495, 482.211 536.867, 482.280 537.074, 482.210 536.927, 476.596 531.555, 476.469 531.339, 476.537 531.302, 476.549 " fill="none" stroke="rgb(0, 0, 0)" stroke-linecap="butt" stroke-linejoin="round" stroke-opacity="1.0" stroke-width="3.0" />
            <path d=" M 536.866, 476.616 531.302, 476.549 " fill="none" stroke="rgb(0, 0, 0)" stroke-linecap="butt" stroke-linejoin="round" stroke-opacity="1.0" stroke-width="3.0" />
            <path d=" M 536.867, 482.280 536.866, 476.616 536.927, 476.596 " fill="none" stroke="rgb(0, 0, 0)" stroke-linecap="butt" stroke-linejoin="round" stroke-opacity="1.0" stroke-width="3.0" />
            <path d=" M 533.274, 478.621 533.136, 478.792 533.034, 478.986 532.971, 479.196 532.950, 479.414 532.974, 479.646 533.042, 479.861 533.149, 480.055 533.291, 480.223 533.462, 480.360 533.473, 480.368 533.664, 480.468 533.870, 480.528 533.882, 480.530 533.902, 480.533 533.928, 480.535 534.085, 480.546 534.237, 480.535 534.258, 480.534 534.265, 480.533 534.286, 480.531 " fill="none" stroke="rgb(0, 0, 0)" stroke-linecap="butt" stroke-linejoin="round" stroke-opacity="1.0" stroke-width="3.0" />
            <path d=" M 533.482, 478.454 533.442, 478.480 533.401, 478.515 533.331, 478.573 533.274, 478.621 533.355, 478.549 " fill="none" stroke="rgb(0, 0, 0)" stroke-linecap="butt" stroke-linejoin="round" stroke-opacity="1.0" stroke-width="3.0" />
            <path d=" M 534.398, 480.504 534.547, 480.450 534.686, 480.374 534.813, 480.279 534.925, 480.166 535.020, 480.038 535.096, 479.897 535.152, 479.746 535.185, 479.589 535.197, 479.428 535.185, 479.266 535.152, 479.108 535.096, 478.956 535.020, 478.813 534.925, 478.683 534.812, 478.567 534.685, 478.469 534.546, 478.389 534.397, 478.331 534.242, 478.295 534.084, 478.281 533.925, 478.291 " fill="none" stroke="rgb(0, 0, 0)" stroke-linecap="butt" stroke-linejoin="round" stroke-opacity="1.0" stroke-width="3.0" />
            <path d=" M 534.085, 480.546 534.243, 480.537 " fill="none" stroke="rgb(0, 0, 0)" stroke-linecap="butt" stroke-linejoin="round" stroke-opacity="1.0" stroke-width="3.0" />
            <path d=" M 534.243, 480.537 534.286, 480.531 534.398, 480.504 " fill="none" stroke="rgb(0, 0, 0)" stroke-linecap="butt" stroke-linejoin="round" stroke-opacity="1.0" stroke-width="3.0" />
            <path d=" M 533.925, 478.291 533.852, 478.305 533.770, 478.323 " fill="none" stroke="rgb(0, 0, 0)" stroke-linecap="butt" stroke-linejoin="round" stroke-opacity="1.0" stroke-width="3.0" />
            <path d=" M 533.770, 478.323 533.622, 478.378 533.482, 478.454 " fill="none" stroke="rgb(0, 0, 0)" stroke-linecap="butt" stroke-linejoin="round" stroke-opacity="1.0" stroke-width="3.0" />
            <path d=" M 622.223, 888.032 624.401, 888.529 632.311, 890.251 640.224, 891.223 648.122, 891.464 655.989, 890.990 663.809, 889.822 671.566, 887.979 679.246, 885.482 686.837, 882.352 694.326, 878.610 701.701, 874.278 708.951, 869.378 716.068, 863.933 723.040, 857.965 729.860, 851.495 736.520, 844.545 743.013, 837.137 749.332, 829.292 755.297, 821.266 755.471, 821.032 761.138, 812.793 761.424, 812.376 766.803, 803.946 767.187, 803.346 772.288, 794.745 772.754, 793.960 777.587, 785.206 778.121, 784.239 782.696, 775.347 783.285, 774.201 787.610, 765.185 788.242, 763.865 792.325, 754.736 792.989, 753.250 796.837, 744.019 797.523, 742.372 801.142, 733.049 801.841, 731.249 805.239, 721.843 805.941, 719.898 809.122, 710.417 809.821, 708.335 812.791, 698.787 813.478, 696.578 816.242, 686.967 816.911, 684.640 819.473, 674.974 820.118, 672.539 822.481, 662.822 823.098, 660.289 825.266, 650.527 825.848, 647.904 827.824, 638.102 828.368, 635.401 830.153, 625.561 830.656, 622.792 832.253, 612.921 832.711, 610.093 834.122, 600.193 834.532, 597.317 835.758, 587.392 836.118, 584.478 837.159, 574.533 837.467, 571.591 838.324, 561.627 838.578, 558.668 839.252, 548.690 839.452, 545.724 839.940, 535.736 840.085, 532.772 840.389, 522.777 840.478, 519.826 840.596, 509.827 840.630, 506.901 840.560, 496.901 840.539, 494.009 840.279, 484.013 840.205, 481.165 839.753, 471.176 839.627, 468.384 838.980, 458.405 838.804, 455.679 837.959, 445.714 837.734, 443.065 836.688, 433.120 836.419, 430.557 835.167, 420.635 834.856, 418.170 833.393, 408.277 833.045, 405.920 831.367, 396.062 830.986, 393.822 829.086, 384.004 828.678, 381.893 826.550, 372.122 826.121, 370.149 823.758, 360.433 823.315, 358.608 820.709, 348.953 820.259, 347.286 817.403, 337.702 816.955, 336.201 813.838, 326.699 813.402, 325.372 810.014, 315.963 809.602, 314.817 805.932, 305.515 805.554, 304.556 801.592, 295.375 801.261, 294.609 796.993, 285.566 796.724, 284.995 792.137, 276.109 791.944, 275.736 787.025, 267.030 786.924, 266.852 781.668, 258.365 776.177, 250.298 770.457, 242.672 764.511, 235.510 758.345, 228.835 751.964, 222.672 745.374, 217.042 738.582, 211.969 731.598, 207.478 724.429, 203.591 717.084, 200.331 709.576, 197.721 701.915, 195.784 694.114, 194.542 686.186, 194.014 678.147, 194.220 675.922, 194.405 " fill="none" stroke="rgb(0, 0, 0)" stroke-linecap="butt" stroke-linejoin="round" stroke-opacity="1.0" stroke-width="3.0" />
            <path d=" M 624.401, 888.529 624.158, 888.453 616.513, 886.044 608.665, 882.781 600.880, 878.729 593.176, 873.876 585.577, 868.217 578.105, 861.744 571.017, 854.690 570.782, 854.457 564.166, 846.959 563.633, 846.355 557.483, 838.470 556.681, 837.442 550.987, 829.221 549.950, 827.724 544.699, 819.213 543.464, 817.211 539.706, 810.384 537.248, 805.918 537.177, 805.772 535.798, 802.965 533.816, 798.931 531.326, 793.862 530.855, 792.786 529.497, 789.684 525.722, 781.064 524.393, 777.651 524.235, 777.245 521.716, 770.778 520.458, 767.548 517.196, 758.095 515.557, 753.346 512.649, 743.778 511.041, 738.488 508.473, 728.823 506.930, 723.013 506.529, 721.267 504.290, 711.521 503.243, 706.960 501.323, 697.146 499.998, 690.375 498.387, 680.506 497.212, 673.304 495.902, 663.391 494.898, 655.800 493.881, 645.851 493.070, 637.914 492.339, 627.941 491.736, 619.706 491.287, 609.716 490.906, 601.232 490.735, 591.234 490.586, 582.555 490.688, 572.556 490.778, 563.737 491.151, 553.744 491.484, 544.840 492.127, 534.861 492.703, 525.930 493.293, 519.486 494.040, 511.327 494.161, 510.004 494.430, 507.071 495.610, 497.141 496.659, 488.326 498.109, 478.432 499.381, 469.760 501.104, 459.910 502.586, 451.434 504.583, 441.636 504.946, 439.853 506.260, 433.409 508.535, 423.672 510.388, 415.744 512.946, 406.077 514.952, 398.495 517.799, 388.908 519.934, 381.714 523.075, 372.220 525.313, 365.454 528.755, 356.065 531.067, 349.760 532.359, 346.568 532.510, 346.195 536.262, 336.925 537.172, 334.676 537.969, 332.888 541.572, 324.804 543.605, 320.242 543.944, 319.549 545.472, 316.429 549.871, 307.449 550.339, 306.494 551.218, 304.860 551.415, 304.495 552.742, 302.029 555.550, 296.808 555.845, 296.260 556.473, 295.094 557.349, 293.464 562.437, 284.856 564.609, 281.180 570.059, 272.795 572.093, 269.666 577.915, 261.535 579.773, 258.941 583.757, 253.908 587.624, 249.022 594.223, 241.509 595.618, 239.921 602.619, 232.781 603.731, 231.647 611.138, 224.929 611.936, 224.204 619.750, 217.963 620.210, 217.596 628.424, 211.892 628.528, 211.819 636.868, 206.871 645.206, 202.743 653.523, 199.427 661.798, 196.911 670.012, 195.180 676.771, 194.383 678.147, 194.220 " fill="none" stroke="rgb(0, 0, 0)" stroke-linecap="butt" stroke-linejoin="round" stroke-opacity="1.0" stroke-width="3.0" />
            <path d=" M 675.922, 194.405 667.776, 195.365 659.552, 197.095 651.266, 199.611 642.939, 202.925 634.590, 207.050 626.240, 211.995 618.021, 217.691 617.913, 217.767 610.093, 224.000 609.630, 224.370 602.216, 231.081 601.415, 231.806 594.407, 238.939 593.294, 240.072 586.687, 247.579 585.292, 249.164 582.035, 253.271 577.434, 259.074 571.604, 267.199 569.746, 269.788 564.289, 278.168 562.256, 281.290 557.161, 289.895 555.763, 292.256 555.107, 293.364 555.101, 293.374 554.990, 293.562 552.290, 298.571 550.763, 301.403 547.973, 306.578 544.957, 312.724 543.435, 315.826 541.234, 320.311 537.157, 329.442 535.210, 333.804 534.797, 334.729 531.723, 342.311 530.549, 345.205 528.688, 349.796 525.240, 359.183 522.930, 365.473 521.018, 371.242 517.873, 380.734 517.548, 381.715 517.531, 381.772 514.681, 391.357 512.563, 398.476 510.002, 408.142 507.997, 415.706 505.718, 425.443 503.868, 433.351 501.868, 443.149 500.193, 451.355 498.468, 461.205 496.987, 469.660 495.535, 479.554 494.476, 486.767 494.265, 488.205 493.083, 498.135 492.399, 503.889 492.037, 506.928 491.987, 507.469 491.918, 508.222 491.638, 511.287 491.138, 516.742 490.881, 519.546 490.793, 520.502 490.311, 525.766 489.668, 535.745 489.095, 544.654 488.722, 554.647 488.391, 563.529 488.290, 573.528 488.201, 582.326 488.375, 592.324 488.525, 600.982 488.977, 610.972 489.359, 619.435 490.092, 629.408 490.697, 637.623 491.717, 647.571 492.530, 655.489 493.845, 665.402 494.849, 672.975 496.465, 682.844 497.641, 690.028 499.566, 699.841 500.892, 706.596 503.136, 716.341 504.585, 722.632 505.576, 726.355 508.150, 736.018 508.484, 737.272 508.703, 738.092 511.618, 747.658 513.226, 752.935 516.495, 762.386 518.135, 767.125 520.947, 774.328 521.821, 776.565 523.407, 780.627 523.609, 781.088 527.628, 790.245 528.816, 792.950 529.020, 793.415 530.191, 795.794 534.608, 804.766 534.950, 805.461 535.201, 805.915 536.609, 808.467 539.165, 813.102 541.175, 816.745 546.434, 825.250 547.669, 827.249 553.371, 835.464 554.410, 836.960 560.568, 844.839 561.372, 845.868 567.996, 853.360 568.531, 853.965 575.626, 861.013 575.864, 861.249 583.347, 867.719 590.956, 873.377 598.670, 878.228 606.466, 882.281 614.324, 885.545 622.223, 888.032 " fill="none" stroke="rgb(0, 0, 0)" stroke-linecap="butt" stroke-linejoin="round" stroke-opacity="1.0" stroke-width="3.0" />
            <path d=" M 788.936, 557.550 778.953, 556.970 778.206, 556.926 773.696, 555.183 764.369, 551.578 755.041, 547.973 754.374, 547.715 753.681, 547.447 752.986, 547.178 752.290, 546.909 751.595, 546.640 750.785, 546.193 750.022, 545.499 749.321, 544.570 748.698, 543.425 748.164, 542.085 747.730, 540.575 747.404, 538.924 747.192, 537.164 747.099, 535.328 747.126, 533.452 747.273, 531.572 747.538, 529.725 747.815, 528.416 747.915, 527.947 748.397, 526.271 748.624, 525.663 748.973, 524.731 749.634, 523.355 750.366, 522.170 750.837, 521.589 750.904, 521.507 750.951, 521.448 751.154, 521.198 751.983, 520.458 752.692, 519.938 753.401, 519.418 754.108, 518.899 754.815, 518.381 755.170, 518.122 756.376, 517.239 764.447, 511.335 772.518, 505.430 779.159, 500.572 " fill="none" stroke="rgb(0, 0, 0)" stroke-linecap="butt" stroke-linejoin="round" stroke-opacity="1.0" stroke-width="3.0" />
            <path d=" M 690.452, 277.094 682.132, 277.076 679.725, 277.302 675.213, 277.726 673.712, 277.868 665.219, 279.498 658.267, 281.522 656.679, 281.985 648.119, 285.336 639.569, 289.552 631.053, 294.619 622.857, 300.349 622.598, 300.529 614.825, 306.820 614.240, 307.293 606.906, 314.091 606.014, 314.918 599.126, 322.167 597.957, 323.399 591.512, 331.045 590.101, 332.720 584.091, 340.712 582.480, 342.853 576.887, 351.143 575.120, 353.763 569.929, 362.310 569.059, 363.741 568.661, 364.397 568.047, 365.407 565.561, 369.955 563.094, 374.467 561.296, 377.758 560.500, 379.381 559.910, 380.582 558.894, 382.654 555.697, 389.175 554.905, 390.789 554.099, 392.629 553.501, 393.994 551.879, 397.694 548.912, 404.463 545.401, 413.469 543.770, 417.651 543.349, 418.732 540.429, 427.194 538.240, 433.541 535.338, 443.110 533.605, 448.825 531.048, 458.493 530.753, 459.608 529.455, 464.520 527.237, 474.271 525.807, 480.561 523.931, 490.383 522.688, 496.891 521.885, 502.077 520.354, 511.959 520.123, 513.446 520.041, 514.137 519.888, 515.414 519.671, 517.238 519.364, 519.810 518.972, 523.091 518.930, 523.441 518.129, 530.156 517.940, 532.399 517.099, 542.364 516.713, 546.949 516.215, 556.936 515.876, 563.753 515.716, 573.751 515.609, 580.498 515.785, 590.496 515.903, 597.190 516.402, 607.178 516.727, 613.676 517.556, 623.642 518.075, 629.887 518.303, 631.830 519.468, 641.762 519.788, 644.494 519.936, 645.756 521.448, 655.641 522.300, 661.218 524.168, 671.042 525.151, 676.215 525.234, 676.577 527.470, 686.324 528.471, 690.688 531.090, 700.339 532.242, 704.585 532.848, 706.499 533.054, 707.151 533.534, 708.667 534.862, 712.862 535.604, 715.208 536.443, 717.858 539.874, 727.251 540.326, 728.488 541.048, 730.463 541.732, 732.095 542.115, 733.009 543.503, 736.320 546.034, 742.360 546.301, 742.917 547.183, 744.758 547.729, 745.898 550.022, 750.686 551.377, 753.514 556.170, 762.291 557.047, 763.896 562.333, 772.385 563.017, 773.483 568.817, 781.629 569.260, 782.251 575.589, 789.993 575.747, 790.186 582.449, 797.277 589.338, 803.518 596.386, 808.904 603.566, 813.435 610.850, 817.119 612.766, 817.858 618.212, 819.961 625.627, 821.971 633.070, 823.163 640.518, 823.553 647.949, 823.159 655.341, 821.998 662.674, 820.095 669.930, 817.470 677.089, 814.147 684.136, 810.151 691.054, 805.508 697.830, 800.244 704.449, 794.383 710.898, 787.954 717.167, 780.984 723.244, 773.499 729.119, 765.525 734.694, 757.223 734.784, 757.089 740.016, 748.567 740.229, 748.219 745.131, 739.503 745.447, 738.940 750.031, 730.053 750.431, 729.278 754.710, 720.239 755.175, 719.258 759.160, 710.086 759.673, 708.906 763.374, 699.615 763.919, 698.245 767.344, 688.850 767.909, 687.302 771.067, 677.814 771.638, 676.100 774.537, 666.529 775.102, 664.662 777.747, 655.018 778.297, 653.012 780.695, 643.304 781.221, 641.173 783.376, 631.408 783.870, 629.169 785.786, 619.354 786.241, 617.020 787.921, 607.162 788.332, 604.750 789.779, 594.855 790.141, 592.380 791.357, 582.454 791.665, 579.934 792.651, 569.982 792.903, 567.431 793.659, 557.460 793.853, 554.895 794.379, 544.909 794.514, 542.346 794.658, 537.484 " fill="none" stroke="rgb(0, 0, 0)" stroke-linecap="butt" stroke-linejoin="round" stroke-opacity="1.0" stroke-width="3.0" />
            <path d=" M 779.159, 500.572 789.119, 501.468 789.920, 501.540 " fill="none" stroke="rgb(0, 0, 0)" stroke-linecap="butt" stroke-linejoin="round" stroke-opacity="1.0" stroke-width="3.0" />
            <path d=" M 824.631, 516.985 824.439, 506.987 824.435, 506.801 823.975, 496.811 823.859, 494.297 823.125, 484.324 822.947, 481.893 821.975, 472.357 821.695, 469.615 820.398, 459.699 820.108, 457.484 818.525, 447.610 818.190, 445.522 816.319, 435.698 815.948, 433.746 813.780, 423.984 813.380, 422.182 810.899, 412.495 810.481, 410.862 807.672, 401.264 807.248, 399.816 804.098, 390.325 803.683, 389.072 800.181, 379.705 799.789, 378.657 795.926, 369.433 795.574, 368.591 791.344, 359.530 791.047, 358.892 786.440, 350.016 786.215, 349.581 781.210, 340.924 781.078, 340.695 775.638, 332.272 769.900, 324.344 763.873, 316.940 757.568, 310.083 750.998, 303.791 744.178, 298.076 737.116, 292.975 729.822, 288.529 722.312, 284.773 719.242, 283.563 714.601, 281.735 706.707, 279.435 698.651, 277.887 690.452, 277.094 " fill="none" stroke="rgb(0, 0, 0)" stroke-linecap="butt" stroke-linejoin="round" stroke-opacity="1.0" stroke-width="3.0" />
            <path d=" M 658.267, 281.522 663.059, 283.866 669.175, 287.640 675.108, 292.086 680.848, 297.167 686.386, 302.842 691.716, 309.076 696.828, 315.854 701.710, 323.159 706.356, 330.969 710.758, 339.254 714.912, 347.983 718.819, 357.119 722.411, 366.451 722.478, 366.626 725.744, 376.077 725.884, 376.483 728.834, 386.038 729.030, 386.674 731.676, 396.318 731.912, 397.179 734.265, 406.898 734.526, 407.974 736.601, 417.756 736.871, 419.030 738.682, 428.865 738.950, 430.319 740.513, 440.197 740.768, 441.812 742.092, 451.724 742.326, 453.483 743.413, 463.424 743.620, 465.317 744.472, 475.280 744.644, 477.293 745.266, 487.274 745.398, 489.392 745.794, 499.384 745.882, 501.589 745.991, 507.783 745.862, 509.011 745.675, 510.218 745.433, 511.391 745.139, 512.519 744.795, 513.589 744.404, 514.591 743.972, 515.513 743.501, 516.346 742.998, 517.082 742.467, 517.712 741.914, 518.230 741.344, 518.631 740.764, 518.910 740.180, 519.065 732.854, 520.254 " fill="none" stroke="rgb(0, 0, 0)" stroke-linecap="butt" stroke-linejoin="round" stroke-opacity="1.0" stroke-width="3.0" />
            <path d=" M 800.273, 535.903 801.106, 535.957 803.242, 536.094 812.990, 534.230 814.940, 533.857 822.750, 532.364 824.594, 532.011 824.709, 531.993 830.731, 531.048 830.805, 521.048 830.828, 517.831 830.641, 507.833 830.581, 504.667 830.129, 494.677 829.989, 491.578 829.267, 481.604 829.049, 478.590 828.054, 468.640 827.762, 465.726 826.487, 455.807 826.128, 453.010 824.568, 443.132 824.146, 440.466 822.293, 430.639 821.817, 428.120 819.662, 418.355 819.141, 415.997 816.676, 406.306 816.120, 404.123 814.409, 398.223 812.755, 392.523 809.637, 383.022 809.048, 381.226 807.909, 378.142 805.000, 370.258 801.183, 361.016 800.617, 359.647 796.429, 350.566 795.901, 349.420 791.328, 340.526 790.855, 339.607 785.884, 330.930 785.487, 330.236 783.173, 326.614 779.801, 321.336 777.468, 318.068 773.805, 312.938 767.505, 305.071 760.912, 297.764 754.035, 291.048 746.884, 284.953 739.473, 279.509 731.814, 274.743 723.923, 270.686 715.817, 267.366 707.512, 264.809 699.029, 263.040 690.388, 262.085 680.970, 261.956 " fill="none" stroke="rgb(0, 0, 0)" stroke-linecap="butt" stroke-linejoin="round" stroke-opacity="1.0" stroke-width="3.0" />
            <path d=" M 690.388, 262.085 681.612, 261.966 675.226, 262.496 672.725, 262.703 663.752, 264.314 662.047, 264.787 654.721, 266.817 645.660, 270.223 636.600, 274.540 627.949, 279.557 627.571, 279.776 619.329, 285.438 618.607, 285.934 610.791, 292.172 609.741, 293.010 602.362, 299.759 601.007, 300.998 594.069, 308.200 592.442, 309.889 585.942, 317.488 584.080, 319.665 578.013, 327.615 575.958, 330.306 570.315, 338.562 568.112, 341.786 566.301, 344.740 565.839, 345.494 561.416, 352.707 560.578, 354.074 558.751, 357.394 557.160, 360.286 553.392, 367.134 551.620, 370.723 550.014, 373.977 546.586, 380.923 542.546, 390.071 540.195, 395.396 538.391, 399.978 534.730, 409.284 534.250, 410.502 530.958, 419.944 528.782, 426.183 525.852, 435.744 523.818, 442.380 521.244, 452.043 519.383, 459.029 517.161, 468.779 515.501, 476.061 513.626, 485.884 512.191, 493.406 510.661, 503.288 509.469, 510.991 508.985, 515.038 507.800, 524.968 507.350, 528.740 506.508, 538.705 505.843, 546.578 505.346, 556.566 504.954, 564.427 504.804, 574.426 504.687, 582.211 " fill="none" stroke="rgb(0, 0, 0)" stroke-linecap="butt" stroke-linejoin="round" stroke-opacity="1.0" stroke-width="3.0" />
            <path d=" M 756.376, 517.239 756.366, 514.582 756.423, 511.774 756.378, 511.996 756.085, 513.129 755.743, 514.204 755.354, 515.211 754.924, 516.138 754.457, 516.975 753.957, 517.714 753.429, 518.348 752.880, 518.869 752.315, 519.272 751.740, 519.553 751.160, 519.709 750.959, 519.742 742.967, 521.063 734.081, 522.531 733.540, 521.342 732.965, 520.409 732.913, 520.324 732.854, 520.254 732.209, 519.495 731.441, 518.869 730.622, 518.457 729.764, 518.267 719.781, 517.682 718.606, 517.613 717.718, 517.648 716.823, 517.906 715.933, 518.384 715.099, 519.078 714.929, 519.278 714.337, 519.976 713.627, 521.061 712.982, 522.315 712.412, 523.717 711.927, 525.243 711.536, 526.867 711.245, 528.562 711.061, 530.297 710.985, 532.044 720.964, 532.692 722.186, 532.772 727.028, 531.949 727.057, 531.393 727.082, 531.204 727.129, 530.846 727.242, 530.321 727.393, 529.833 727.578, 529.396 727.656, 529.259 727.792, 529.021 728.028, 528.719 728.280, 528.497 728.542, 528.363 728.806, 528.319 " fill="none" stroke="rgb(0, 0, 0)" stroke-linecap="butt" stroke-linejoin="round" stroke-opacity="1.0" stroke-width="3.0" />
            <path d=" M 805.605, 524.287 807.943, 523.856 808.458, 523.709 808.971, 523.454 809.476, 523.093 809.970, 522.631 810.448, 522.073 810.907, 521.424 811.344, 520.690 811.755, 519.877 812.137, 518.991 812.487, 518.040 812.803, 517.031 813.081, 515.971 813.320, 514.869 813.417, 514.312 813.518, 513.732 823.092, 516.535 824.631, 516.985 824.458, 517.684 824.145, 518.699 823.797, 519.655 823.418, 520.545 823.044, 521.295 823.010, 521.362 822.577, 522.101 822.122, 522.753 821.648, 523.314 821.158, 523.779 820.658, 524.141 820.150, 524.398 819.640, 524.546 813.539, 525.693 806.984, 526.926 806.480, 525.703 805.893, 524.657 805.605, 524.287 805.231, 523.805 804.506, 523.164 803.730, 522.743 802.915, 522.551 800.285, 522.397 799.267, 522.337 791.044, 521.856 790.241, 521.893 790.198, 521.895 789.341, 522.165 789.136, 522.285 788.489, 522.662 787.691, 523.382 786.964, 524.311 786.286, 525.434 785.667, 526.730 785.118, 528.179 784.650, 529.755 784.269, 531.432 783.984, 533.181 783.798, 534.971 783.715, 536.773 789.774, 537.167 789.973, 537.180 794.658, 537.484 795.637, 537.548 800.084, 536.698 800.217, 536.672 800.248, 536.099 800.273, 535.903 800.320, 535.534 800.430, 534.992 800.576, 534.488 800.753, 534.036 800.957, 533.648 801.048, 533.523 801.182, 533.336 801.185, 533.333 801.422, 533.106 801.671, 532.966 801.920, 532.919 " fill="none" stroke="rgb(0, 0, 0)" stroke-linecap="butt" stroke-linejoin="round" stroke-opacity="1.0" stroke-width="3.0" />
            <path d=" M 773.696, 555.183 772.932, 565.154 772.900, 565.564 771.897, 575.514 771.653, 577.938 770.411, 587.860 770.112, 590.255 768.631, 600.144 768.279, 602.493 766.557, 612.344 766.158, 614.631 764.193, 624.436 763.749, 626.647 761.538, 636.399 761.057, 638.518 758.596, 648.210 758.085, 650.222 755.370, 659.847 754.836, 661.737 751.860, 671.284 751.313, 673.040 748.072, 682.500 747.521, 684.107 744.007, 693.469 743.465, 694.915 739.670, 704.167 739.148, 705.440 735.064, 714.568 734.576, 715.658 730.194, 724.647 729.756, 725.545 725.065, 734.377 724.693, 735.077 719.681, 743.730 719.393, 744.227 714.049, 752.679 713.865, 752.969 708.177, 761.194 708.117, 761.280 702.157, 769.133 695.995, 776.501 689.641, 783.358 683.106, 789.678 676.402, 795.436 669.542, 800.603 662.540, 805.155 655.411, 809.068 648.170, 812.314 640.836, 814.870 633.426, 816.714 625.959, 817.824 618.456, 818.177 612.766, 817.858 " fill="none" stroke="rgb(0, 0, 0)" stroke-linecap="butt" stroke-linejoin="round" stroke-opacity="1.0" stroke-width="3.0" />
            <path d=" M 789.973, 537.180 789.832, 541.969 789.258, 551.953 788.936, 557.550 779.623, 553.908 778.408, 553.432 773.929, 551.681 765.858, 548.523 765.171, 548.255 764.483, 547.985 763.794, 547.715 763.104, 547.446 762.302, 546.997 761.547, 546.301 760.853, 545.368 760.236, 544.218 759.709, 542.872 759.280, 541.355 758.958, 539.696 758.750, 537.928 758.706, 537.027 758.659, 536.083 758.688, 534.197 758.836, 532.308 759.101, 530.452 759.148, 530.228 759.476, 528.665 759.889, 527.212 759.955, 526.981 760.528, 525.432 761.185, 524.049 761.911, 522.858 762.694, 521.881 763.516, 521.137 764.219, 520.613 764.922, 520.091 765.624, 519.569 766.325, 519.048 766.677, 518.786 774.708, 512.828 779.384, 509.358 787.415, 503.399 789.920, 501.540 790.162, 511.537 790.196, 512.932 790.265, 517.532 790.241, 521.893 " fill="none" stroke="rgb(0, 0, 0)" stroke-linecap="butt" stroke-linejoin="round" stroke-opacity="1.0" stroke-width="3.0" />
            <path d=" M 764.707, 537.421 764.391, 537.333 764.098, 537.098 763.841, 536.728 763.631, 536.239 763.478, 535.653 763.388, 534.994 763.365, 534.293 763.410, 533.579 763.522, 532.884 763.695, 532.238 763.921, 531.671 764.191, 531.206 764.493, 530.864 764.813, 530.660 765.138, 530.604 " fill="none" stroke="rgb(0, 0, 0)" stroke-linecap="butt" stroke-linejoin="round" stroke-opacity="1.0" stroke-width="3.0" />
            <path d=" M 765.138, 530.604 765.453, 530.695 765.745, 530.932 766.001, 531.303 766.209, 531.791 766.362, 532.376 766.451, 533.032 766.474, 533.732 766.429, 534.443 766.318, 535.135 766.146, 535.779 765.921, 536.346 765.652, 536.811 765.351, 537.154 765.031, 537.360 764.707, 537.421 " fill="none" stroke="rgb(0, 0, 0)" stroke-linecap="butt" stroke-linejoin="round" stroke-opacity="1.0" stroke-width="3.0" />
            <path d=" M 800.084, 536.698 799.927, 541.945 799.400, 551.931 799.234, 555.080 798.478, 565.051 798.239, 568.201 797.254, 578.153 796.944, 581.289 795.730, 591.215 795.350, 594.320 793.906, 604.215 793.460, 607.272 791.784, 617.131 791.275, 620.125 789.364, 629.940 788.797, 632.854 786.648, 642.620 786.028, 645.437 783.638, 655.147 782.972, 657.852 780.336, 667.498 779.631, 670.074 776.742, 679.648 776.008, 682.081 772.861, 691.573 772.107, 693.848 768.694, 703.248 767.931, 705.351 764.245, 714.647 763.485, 716.564 759.516, 725.743 758.773, 727.462 754.512, 736.509 753.801, 738.019 749.237, 746.917 748.575, 748.210 743.696, 756.939 743.100, 758.005 737.893, 766.543 737.383, 767.379 731.837, 775.700 731.434, 776.305 725.533, 784.379 725.259, 784.754 718.990, 792.544 718.869, 792.695 712.273, 800.103 705.482, 806.949 698.509, 813.203 691.365, 818.835 684.067, 823.819 676.628, 828.127 669.065, 831.728 661.396, 834.597 653.639, 836.710 645.815, 838.040 637.944, 838.562 630.049, 838.256 622.155, 837.104 614.285, 835.085 606.466, 832.185 598.724, 828.392 591.088, 823.699 583.586, 818.096 576.249, 811.582 569.314, 804.378 569.106, 804.162 562.713, 796.473 562.188, 795.841 556.328, 787.738 555.525, 786.629 550.182, 778.176 549.149, 776.542 546.686, 772.095 544.275, 767.743 543.089, 765.601 542.819, 765.045 538.451, 756.049 538.038, 755.199 537.375, 753.833 536.615, 752.043 532.706, 742.838 532.039, 741.267 531.667, 740.264 528.864, 732.692 527.105, 727.940 524.052, 718.418 522.602, 713.896 519.952, 704.253 518.556, 699.178 516.292, 689.437 514.991, 683.838 513.478, 675.991 511.926, 667.935 510.392, 658.053 509.380, 651.528 508.197, 641.598 507.372, 634.682 506.528, 624.717 505.914, 617.465 505.402, 607.478 505.017, 599.950 504.831, 589.952 504.687, 582.211 502.657, 572.420 500.784, 563.392 " fill="none" stroke="rgb(0, 0, 0)" stroke-linecap="butt" stroke-linejoin="round" stroke-opacity="1.0" stroke-width="3.0" />
            <path d=" M 661.806, 261.646 656.423, 262.112 653.760, 262.342 645.629, 263.909 637.440, 266.366 629.218, 269.727 620.989, 273.999 612.783, 279.192 604.784, 285.194 604.630, 285.310 597.094, 291.884 596.559, 292.350 589.488, 299.422 588.603, 300.307 581.993, 307.811 580.795, 309.171 574.636, 317.049 573.167, 318.927 567.446, 327.129 565.753, 329.554 564.179, 332.075 563.671, 332.887 560.149, 338.525 558.586, 341.026 557.431, 343.088 555.851, 345.907 551.701, 353.314 550.232, 356.232 548.640, 359.398 545.128, 366.379 541.015, 375.494 538.901, 380.179 536.976, 384.947 533.231, 394.219 533.050, 394.668 529.664, 404.078 527.606, 409.795 524.567, 419.322 522.597, 425.501 519.896, 435.129 518.047, 441.724 515.679, 451.439 513.982, 458.400 511.940, 468.189 510.424, 475.460 508.703, 485.311 507.390, 492.832 505.988, 502.733 504.896, 510.441 504.411, 514.880 503.326, 524.821 502.956, 528.213 502.187, 538.183 501.578, 546.069 501.120, 556.058 500.784, 563.392 498.972, 573.226 497.298, 582.307 " fill="none" stroke="rgb(0, 0, 0)" stroke-linecap="butt" stroke-linejoin="round" stroke-opacity="1.0" stroke-width="3.0" />
            <path d=" M 681.612, 261.966 680.970, 261.956 670.972, 261.794 661.806, 261.646 " fill="none" stroke="rgb(0, 0, 0)" stroke-linecap="butt" stroke-linejoin="round" stroke-opacity="1.0" stroke-width="3.0" />
            <path d=" M 497.649, 600.618 498.168, 610.605 498.589, 618.695 499.442, 628.658 500.109, 636.459 501.304, 646.387 502.200, 653.835 503.746, 663.715 504.847, 670.752 506.754, 680.568 508.031, 687.141 510.313, 696.877 510.459, 697.502 511.734, 702.940 514.404, 712.576 515.932, 718.089 519.008, 727.604 520.602, 732.534 524.099, 741.902 525.715, 746.229 526.281, 747.552 529.166, 754.285 531.243, 759.131 534.282, 765.332 535.721, 768.269 537.158, 771.201 540.674, 777.486 542.130, 780.088 543.428, 782.409 544.616, 784.269 550.021, 792.730 555.925, 800.801 556.906, 802.142 563.347, 809.792 564.052, 810.629 571.037, 817.786 571.425, 818.184 578.993, 824.800 586.727, 830.475 594.595, 835.214 602.567, 839.024 610.614, 841.916 618.709, 843.902 626.825, 845.001 634.937, 845.231 643.021, 844.615 651.053, 843.174 659.013, 840.935 666.879, 837.924 674.634, 834.168 682.259, 829.693 689.739, 824.532 697.057, 818.712 704.199, 812.261 711.153, 805.210 717.786, 797.726 717.907, 797.589 724.162, 789.787 724.450, 789.428 730.339, 781.346 730.771, 780.753 736.309, 772.427 736.862, 771.596 742.062, 763.054 742.713, 761.984 747.588, 753.253 748.318, 751.946 752.880, 743.047 753.669, 741.508 757.930, 732.461 758.760, 730.698 762.730, 721.520 763.585, 719.544 767.274, 710.249 768.139, 708.069 771.555, 698.671 772.417, 696.301 775.569, 686.811 776.414, 684.265 779.309, 674.693 780.128, 671.985 782.771, 662.341 783.553, 659.485 785.950, 649.777 786.687, 646.790 788.842, 637.025 789.527, 633.923 791.444, 624.109 792.069, 620.907 793.752, 611.050 794.312, 607.766 795.762, 597.871 796.253, 594.520 797.472, 584.595 797.890, 581.195 798.879, 571.244 799.221, 567.811 799.980, 557.840 800.243, 554.391 800.773, 544.405 800.956, 540.958 801.106, 535.957 " fill="none" stroke="rgb(0, 0, 0)" stroke-linecap="butt" stroke-linejoin="round" stroke-opacity="1.0" stroke-width="3.0" />
            <path d=" M 497.298, 582.307 497.490, 592.305 497.649, 600.618 " fill="none" stroke="rgb(0, 0, 0)" stroke-linecap="butt" stroke-linejoin="round" stroke-opacity="1.0" stroke-width="3.0" />
            <path d=" M 814.409, 398.223 813.407, 393.218 811.212, 383.462 810.934, 382.228 808.499, 372.529 808.225, 371.436 805.542, 361.803 805.280, 360.859 802.341, 351.301 802.099, 350.515 798.894, 341.042 798.684, 340.420 795.202, 331.046 795.034, 330.595 791.262, 321.334 791.150, 321.059 787.075, 311.927 787.033, 311.833 782.686, 302.933 778.113, 294.377 773.317, 286.182 768.300, 278.367 763.067, 270.955 757.622, 263.967 751.967, 257.427 746.108, 251.358 740.052, 245.782 733.805, 240.715 727.375, 236.176 720.772, 232.185 714.002, 228.762 707.076, 225.928 700.003, 223.707 692.797, 222.120 685.467, 221.189 678.029, 220.930 670.496, 221.355 670.135, 221.409 662.883, 222.478 655.206, 224.310 647.481, 226.866 639.727, 230.157 631.963, 234.195 624.208, 238.992 616.485, 244.552 608.813, 250.876 601.497, 257.693 601.213, 257.958 600.843, 258.344 593.926, 265.565 593.708, 265.793 589.709, 270.438 586.320, 274.374 580.181, 282.267 580.086, 282.388 579.072, 283.692 573.309, 291.865 571.988, 293.738 566.593, 302.157 565.094, 304.496 560.407, 312.535 559.833, 313.518 558.414, 315.952 557.937, 316.851 555.210, 321.986 553.661, 324.902 551.973, 328.081 548.617, 335.018 548.032, 336.227 546.479, 339.436 545.793, 340.855 541.760, 350.005 539.894, 354.240 536.174, 363.522 534.945, 366.588 534.298, 368.203 530.883, 377.602 529.027, 382.709 525.909, 392.210 524.101, 397.717 521.274, 407.310 519.542, 413.188 517.002, 422.861 515.369, 429.078 513.112, 438.820 511.601, 445.339 509.619, 455.140 508.248, 461.916 506.537, 471.769 505.323, 478.759 503.881, 488.655 502.838, 495.814 501.664, 505.745 500.804, 513.025 500.490, 516.472 499.585, 526.431 499.229, 530.337 498.590, 540.317 498.118, 547.693 497.747, 557.686 497.474, 565.035 497.372, 575.034 497.298, 582.307 497.469, 592.305 497.591, 599.452 497.649, 600.618 498.092, 610.608 498.349, 616.414 499.075, 626.388 499.566, 633.141 500.577, 643.090 501.236, 649.578 502.539, 659.493 503.351, 665.676 504.952, 675.547 505.899, 681.386 507.806, 691.202 508.867, 696.663 509.889, 701.145 512.110, 710.896 512.240, 711.465 514.787, 721.135 516.003, 725.751 518.890, 735.325 520.143, 739.480 523.383, 748.941 524.642, 752.619 525.102, 753.808 527.861, 760.951 529.478, 765.139 532.864, 772.943 534.233, 776.099 534.630, 777.016 539.000, 786.010 539.086, 786.186 540.077, 788.227 540.484, 788.975 542.954, 793.520 545.798, 798.751 550.996, 807.294 551.773, 808.571 557.409, 816.831 557.981, 817.670 564.071, 825.602 564.403, 826.034 571.016, 833.654 577.797, 840.530 584.723, 846.663 591.774, 852.055 598.928, 856.711 606.166, 860.634 613.470, 863.830 620.821, 866.305 626.473, 867.653 628.202, 868.066 635.595, 869.127 642.982, 869.508 650.348, 869.225 657.677, 868.297 664.955, 866.740 672.169, 864.571 679.306, 861.807 686.354, 858.462 693.303, 854.554 700.140, 850.105 706.857, 845.139 713.444, 839.677 719.893, 833.740 726.197, 827.348 732.347, 820.519 738.338, 813.271 744.161, 805.619 749.811, 797.583 755.283, 789.184 760.460, 780.629 760.573, 780.443 765.479, 771.729 765.676, 771.379 770.321, 762.523 770.589, 762.011 774.981, 753.027 775.309, 752.356 779.454, 743.255 779.830, 742.429 783.736, 733.223 784.150, 732.247 787.821, 722.945 788.264, 721.823 791.707, 712.434 792.169, 711.175 795.393, 701.708 795.865, 700.320 798.874, 690.783 799.350, 689.276 802.150, 679.676 802.622, 678.057 805.217, 668.400 805.679, 666.680 808.072, 656.970 808.519, 655.157 810.713, 645.401 811.140, 643.504 813.136, 633.705 813.538, 631.733 815.340, 621.896 815.713, 619.858 817.324, 609.989 817.665, 607.896 819.086, 597.998 819.393, 595.860 820.625, 585.936 820.895, 583.764 821.939, 573.818 822.170, 571.620 823.026, 561.657 823.216, 559.443 823.885, 549.466 824.033, 547.247 824.514, 537.258 824.620, 535.044 824.709, 531.993 " fill="none" stroke="rgb(0, 0, 0)" stroke-linecap="butt" stroke-linejoin="round" stroke-opacity="1.0" stroke-width="3.0" />
            <path d=" M 668.258, 221.515 660.635, 222.637 652.948, 224.469 645.213, 227.023 637.449, 230.312 629.675, 234.347 621.912, 239.140 614.180, 244.696 606.499, 251.014 599.177, 257.824 599.016, 257.974 598.892, 258.089 591.967, 265.304 591.379, 265.917 584.847, 273.489 583.983, 274.490 583.796, 274.730 577.649, 282.618 576.728, 283.799 573.576, 288.260 569.638, 293.834 564.235, 302.248 562.737, 304.581 559.806, 309.597 559.220, 310.600 557.558, 313.446 556.052, 316.025 554.784, 318.408 553.250, 321.290 549.605, 328.141 547.555, 332.371 546.013, 335.551 543.420, 340.901 539.381, 350.049 537.517, 354.271 537.516, 354.273 534.401, 362.033 531.917, 368.219 528.497, 377.616 526.643, 382.708 523.520, 392.208 521.714, 397.700 518.883, 407.291 517.152, 413.153 514.609, 422.825 512.978, 429.025 510.717, 438.766 509.208, 445.267 507.223, 455.068 505.855, 461.825 504.141, 471.678 502.929, 478.649 501.486, 488.544 500.444, 495.684 499.270, 505.615 498.411, 512.875 497.988, 517.520 497.082, 527.479 496.837, 530.168 496.199, 540.147 495.728, 547.504 495.357, 557.497 495.086, 564.826 494.985, 574.826 494.913, 582.078 495.085, 592.077 495.209, 599.204 495.658, 609.194 495.970, 616.148 496.699, 626.121 497.191, 632.856 498.206, 642.804 498.866, 649.276 500.173, 659.190 500.985, 665.356 502.591, 675.226 503.539, 681.049 505.451, 690.865 506.512, 696.310 508.740, 706.059 508.965, 707.044 509.891, 711.097 512.445, 720.765 513.660, 725.369 516.555, 734.941 517.808, 739.085 521.054, 748.543 522.313, 752.211 524.391, 757.577 527.133, 764.659 527.157, 764.720 531.144, 773.891 532.205, 776.330 532.317, 776.586 533.621, 779.265 537.772, 787.788 538.522, 789.166 539.954, 791.794 542.430, 796.338 543.501, 798.303 548.707, 806.841 549.484, 808.116 555.129, 816.370 555.701, 817.208 561.799, 825.134 562.132, 825.566 568.754, 833.182 575.544, 840.054 582.480, 846.184 589.541, 851.575 596.705, 856.229 603.953, 860.152 611.266, 863.348 618.627, 865.825 626.018, 867.588 " fill="none" stroke="rgb(0, 0, 0)" stroke-linecap="butt" stroke-linejoin="round" stroke-opacity="1.0" stroke-width="3.0" />
            <path d=" M 670.496, 221.355 668.258, 221.515 " fill="none" stroke="rgb(0, 0, 0)" stroke-linecap="butt" stroke-linejoin="round" stroke-opacity="1.0" stroke-width="3.0" />
            <path d=" M 626.018, 867.588 628.202, 868.066 " fill="none" stroke="rgb(0, 0, 0)" stroke-linecap="butt" stroke-linejoin="round" stroke-opacity="1.0" stroke-width="3.0" />
            <path d=" M 479.077, 582.645 479.258, 592.644 479.432, 602.285 479.894, 612.274 480.329, 621.706 481.075, 631.678 481.760, 640.843 482.796, 650.789 483.717, 659.634 485.048, 669.544 486.187, 678.017 487.823, 687.882 489.158, 695.935 491.106, 705.744 492.613, 713.335 494.883, 723.074 496.536, 730.165 499.139, 739.820 500.906, 746.377 501.293, 747.633 503.139, 753.618 505.703, 761.931 509.007, 771.369 509.413, 772.527 510.904, 776.786 514.580, 786.086 516.126, 789.997 516.486, 790.908 516.900, 791.838 518.317, 795.027 519.552, 797.806 519.641, 798.006 522.425, 804.267 525.033, 809.496 526.408, 812.253 527.489, 814.419 528.695, 816.837 528.854, 817.121 531.641, 822.106 532.911, 824.376 533.037, 824.603 535.271, 828.596 535.700, 829.281 541.014, 837.753 542.127, 839.527 547.887, 847.701 549.236, 849.616 555.456, 857.446 556.574, 858.854 563.263, 866.287 564.114, 867.234 571.276, 874.213 571.831, 874.753 579.463, 881.215 579.699, 881.414 587.694, 887.219 595.792, 892.176 603.971, 896.292 612.207, 899.581 620.480, 902.056 624.811, 903.074 633.078, 904.744 641.342, 905.632 649.584, 905.755 657.787, 905.134 665.934, 903.789 674.011, 901.743 682.003, 899.018 689.895, 895.637 697.676, 891.623 705.333, 886.999 712.857, 881.790 720.236, 876.019 727.462, 869.709 734.526, 862.883 741.421, 855.566 747.953, 847.994 748.138, 847.779 754.355, 839.945 754.673, 839.545 760.583, 831.478 761.018, 830.885 766.633, 822.611 767.168, 821.823 772.498, 813.362 773.118, 812.378 778.174, 803.750 778.865, 802.571 783.655, 793.793 784.403, 792.423 788.937, 783.510 789.729, 781.952 794.015, 772.918 794.840, 771.179 798.887, 762.035 799.733, 760.122 803.547, 750.878 804.405, 748.799 807.994, 739.465 808.854, 737.228 812.223, 727.812 813.077, 725.426 816.232, 715.937 817.073, 713.409 820.019, 703.853 820.839, 701.196 823.581, 691.579 824.374, 688.800 826.916, 679.129 827.676, 676.239 830.022, 666.518 830.744, 663.527 832.897, 653.762 833.576, 650.680 835.539, 640.874 836.172, 637.712 837.946, 627.871 838.529, 624.638 840.118, 614.764 840.647, 611.471 842.051, 601.570 842.525, 598.228 843.746, 588.302 844.162, 584.920 845.200, 574.974 845.556, 571.562 846.411, 561.599 846.706, 558.169 847.380, 548.192 847.612, 544.753 848.103, 534.765 848.272, 531.329 848.581, 521.334 848.686, 517.910 848.810, 507.911 848.852, 504.510 848.791, 494.510 848.770, 491.144 848.521, 481.147 848.438, 477.824 847.999, 467.834 847.856, 464.566 847.224, 454.586 847.022, 451.384 846.195, 441.419 845.936, 438.293 844.910, 428.346 844.596, 425.308 843.367, 415.384 843.003, 412.444 841.565, 402.547 841.154, 399.716 839.504, 389.853 839.050, 387.141 837.181, 377.317 836.690, 374.735 834.596, 364.957 834.073, 362.515 831.747, 352.789 831.199, 350.499 828.633, 340.833 828.068, 338.703 825.254, 329.107 824.679, 327.147 821.608, 317.630 821.033, 315.849 817.695, 306.422 817.131, 304.828 813.515, 295.504 812.972, 294.104 809.067, 284.898 808.558, 283.698 804.352, 274.626 803.891, 273.631 799.369, 264.712 798.970, 263.924 794.121, 255.179 793.800, 254.599 788.608, 246.052 788.382, 245.679 782.834, 237.359 782.719, 237.187 776.815, 229.146 770.674, 221.580 764.300, 214.514 757.700, 207.973 750.879, 201.980 743.845, 196.562 736.604, 191.744 729.167, 187.550 721.542, 184.005 713.741, 181.135 705.775, 178.964 697.657, 177.514 689.401, 176.809 681.022, 176.870 676.593, 177.271 668.084, 178.122 659.487, 179.778 650.819, 182.256 642.101, 185.573 633.353, 189.742 624.598, 194.774 616.312, 200.372 615.860, 200.678 607.974, 206.826 607.162, 207.459 599.683, 214.097 598.530, 215.120 591.460, 222.192 589.991, 223.661 583.324, 231.115 581.570, 233.077 575.301, 240.868 573.295, 243.361 569.939, 247.976 569.866, 248.077 569.845, 248.106 565.196, 254.500 559.692, 262.849 557.299, 266.478 552.505, 274.483 551.475, 276.201 550.725, 277.455 549.634, 279.276 549.519, 279.486 549.463, 279.589 548.027, 282.225 546.910, 284.275 545.027, 287.731 543.524, 290.490 542.229, 292.868 541.973, 293.385 540.481, 296.394 536.040, 305.354 535.113, 307.225 534.525, 308.529 533.068, 311.763 528.959, 320.880 528.477, 321.951 528.312, 322.315 524.526, 331.571 521.856, 338.100 520.003, 343.104 516.530, 352.482 515.769, 354.537 512.602, 364.022 510.078, 371.581 507.208, 381.161 504.806, 389.182 502.228, 398.844 499.975, 407.286 497.683, 417.020 495.607, 425.836 494.585, 430.816 492.660, 440.191 491.720, 444.772 489.987, 454.620 488.330, 464.031 486.872, 473.924 485.453, 483.549 484.268, 493.479 483.100, 503.259 482.727, 507.320 482.718, 507.427 481.824, 517.165 481.568, 519.959 481.487, 520.834 481.280, 523.092 480.638, 533.072 480.001, 542.981 479.631, 552.974 479.266, 562.855 479.170, 572.854 479.150, 575.022 479.077, 582.645 " fill="none" stroke="rgb(0, 0, 0)" stroke-linecap="butt" stroke-linejoin="round" stroke-opacity="1.0" stroke-width="3.0" />
            <path d=" M 681.022, 176.870 672.536, 177.720 663.961, 179.375 655.315, 181.855 646.619, 185.175 637.892, 189.349 629.158, 194.388 620.882, 200.001 620.440, 200.301 612.565, 206.464 611.761, 207.093 604.295, 213.746 603.148, 214.768 596.091, 221.853 594.626, 223.324 587.974, 230.791 586.222, 232.758 579.968, 240.561 577.963, 243.061 573.215, 249.616 573.161, 249.691 573.152, 249.704 569.879, 254.222 564.389, 262.581 561.996, 266.225 556.872, 274.812 554.344, 279.049 553.399, 280.789 552.965, 281.590 552.271, 282.868 550.525, 286.085 549.013, 288.872 546.951, 292.670 543.114, 300.440 541.615, 303.474 539.845, 307.058 535.749, 316.181 533.055, 322.181 529.829, 330.096 529.590, 330.684 526.607, 338.001 523.145, 347.382 520.528, 354.475 517.371, 363.963 514.843, 371.557 511.982, 381.139 509.576, 389.198 507.006, 398.862 504.750, 407.343 502.464, 417.078 500.385, 425.936 498.379, 435.732 496.499, 444.915 495.057, 453.131 493.659, 461.093 493.111, 464.219 492.975, 465.140 491.520, 475.034 491.044, 478.270 490.233, 483.783 489.049, 493.712 488.650, 497.062 487.878, 503.538 487.524, 507.397 487.283, 510.023 487.174, 511.213 486.675, 516.665 486.418, 519.467 486.285, 520.919 486.056, 523.417 485.413, 533.396 484.772, 543.351 484.401, 553.344 484.033, 563.270 483.934, 573.270 483.891, 577.684 483.838, 583.106 484.015, 593.105 484.186, 602.790 484.643, 612.779 485.075, 622.254 485.815, 632.227 486.497, 641.434 487.459, 650.735 488.148, 657.408 488.444, 660.265 489.767, 670.177 490.903, 678.688 492.529, 688.555 493.862, 696.645 495.800, 706.455 497.305, 714.080 499.564, 723.822 501.214, 730.944 503.222, 738.431 505.570, 747.189 508.504, 756.749 510.352, 762.772 513.223, 771.013 515.537, 777.655 518.507, 785.204 521.087, 791.763 521.102, 791.803 525.149, 800.948 526.399, 803.774 527.024, 805.185 527.744, 806.636 532.192, 815.593 532.831, 816.881 533.276, 817.776 534.221, 819.474 536.829, 824.158 539.833, 829.554 545.130, 838.036 546.670, 840.501 552.415, 848.686 553.760, 850.604 559.965, 858.446 561.078, 859.853 567.753, 867.300 568.597, 868.242 575.746, 875.235 576.293, 875.769 583.914, 882.244 584.140, 882.435 592.113, 888.243 600.189, 893.201 608.346, 897.317 616.560, 900.603 624.811, 903.074 " fill="none" stroke="rgb(0, 0, 0)" stroke-linecap="butt" stroke-linejoin="round" stroke-opacity="1.0" stroke-width="3.0" />
            <path d=" M 729.764, 518.267 728.883, 518.302 727.993, 518.562 727.109, 519.043 726.280, 519.741 726.089, 519.969 725.524, 520.643 724.945, 521.538 724.818, 521.734 724.701, 521.966 724.177, 522.995 723.610, 524.404 723.127, 525.938 722.738, 527.570 722.676, 527.933 722.448, 529.273 722.276, 530.895 722.263, 531.017 722.186, 532.772 " fill="none" stroke="rgb(0, 0, 0)" stroke-linecap="butt" stroke-linejoin="round" stroke-opacity="1.0" stroke-width="3.0" />
            <path d=" M 728.806, 528.319 729.066, 528.367 729.313, 528.505 729.541, 528.729 729.745, 529.033 729.918, 529.410 730.056, 529.848 730.155, 530.335 730.212, 530.859 730.227, 531.405 " fill="none" stroke="rgb(0, 0, 0)" stroke-linecap="butt" stroke-linejoin="round" stroke-opacity="1.0" stroke-width="3.0" />
            <path d=" M 727.082, 531.204 730.227, 531.405 740.085, 529.730 747.815, 528.416 " fill="none" stroke="rgb(0, 0, 0)" stroke-linecap="butt" stroke-linejoin="round" stroke-opacity="1.0" stroke-width="3.0" />
            <path d=" M 802.915, 522.551 802.076, 522.591 801.227, 522.863 800.381, 523.364 799.589, 524.087 799.557, 524.128 798.869, 525.022 798.529, 525.591 798.195, 526.150 798.082, 526.390 797.581, 527.454 797.036, 528.910 796.879, 529.445 796.732, 529.944 796.570, 530.495 796.192, 532.180 796.131, 532.555 795.907, 533.938 795.734, 535.612 795.721, 535.737 795.637, 537.548 " fill="none" stroke="rgb(0, 0, 0)" stroke-linecap="butt" stroke-linejoin="round" stroke-opacity="1.0" stroke-width="3.0" />
            <path d=" M 801.920, 532.919 802.165, 532.967 802.398, 533.108 802.612, 533.338 802.802, 533.651 802.963, 534.038 803.091, 534.489 803.181, 534.991 803.232, 535.531 803.242, 536.094 " fill="none" stroke="rgb(0, 0, 0)" stroke-linecap="butt" stroke-linejoin="round" stroke-opacity="1.0" stroke-width="3.0" />
            <path d=" M 783.243, 487.752 783.404, 487.746 783.622, 487.779 783.831, 487.858 784.023, 487.978 784.191, 488.137 784.329, 488.328 784.433, 488.546 784.497, 488.785 784.516, 489.041 784.491, 489.279 784.424, 489.507 784.318, 489.715 784.177, 489.897 784.007, 490.044 783.810, 490.152 783.594, 490.217 " fill="none" stroke="rgb(0, 0, 0)" stroke-linecap="butt" stroke-linejoin="round" stroke-opacity="1.0" stroke-width="3.0" />
            <path d=" M 783.243, 487.752 783.168, 487.763 783.084, 487.782 782.940, 487.825 782.926, 487.832 782.708, 487.941 782.516, 488.089 782.356, 488.271 782.233, 488.483 782.154, 488.717 782.123, 488.971 782.142, 489.211 782.208, 489.443 782.318, 489.657 782.328, 489.672 782.477, 489.859 782.659, 490.014 782.871, 490.132 783.107, 490.206 783.119, 490.210 783.140, 490.213 783.169, 490.216 783.362, 490.233 783.534, 490.222 783.568, 490.220 783.594, 490.217 " fill="none" stroke="rgb(0, 0, 0)" stroke-linecap="butt" stroke-linejoin="round" stroke-opacity="1.0" stroke-width="3.0" />
            <path d=" M 780.606, 485.757 780.502, 491.967 784.057, 492.131 786.165, 492.228 786.823, 491.981 786.418, 485.986 783.712, 485.844 781.036, 485.703 780.606, 485.757 " fill="none" stroke="rgb(0, 0, 0)" stroke-linecap="butt" stroke-linejoin="round" stroke-opacity="1.0" stroke-width="3.0" />
            <path d=" M 786.165, 492.228 786.272, 486.004 " fill="none" stroke="rgb(0, 0, 0)" stroke-linecap="butt" stroke-linejoin="round" stroke-opacity="1.0" stroke-width="3.0" />
            <path d=" M 786.418, 485.986 786.272, 486.004 780.606, 485.757 " fill="none" stroke="rgb(0, 0, 0)" stroke-linecap="butt" stroke-linejoin="round" stroke-opacity="1.0" stroke-width="3.0" />
            <path d=" M 714.929, 519.278 704.928, 518.679 694.944, 518.103 693.451, 518.017 683.466, 517.464 681.974, 517.381 671.988, 516.850 670.494, 516.770 660.507, 516.261 659.006, 516.184 649.018, 515.696 647.504, 515.622 637.515, 515.154 635.984, 515.083 625.994, 514.636 624.441, 514.566 614.450, 514.140 612.871, 514.072 602.880, 513.666 601.270, 513.600 591.277, 513.214 589.632, 513.150 579.638, 512.783 577.953, 512.721 577.945, 502.721 577.941, 498.186 577.815, 488.187 577.759, 483.701 577.516, 473.704 577.408, 469.283 577.044, 459.290 576.886, 454.953 576.400, 444.965 576.194, 440.731 575.582, 430.750 575.330, 426.636 574.589, 416.664 574.293, 412.690 573.419, 402.728 573.084, 398.914 572.071, 388.965 571.701, 385.331 570.544, 375.398 570.144, 371.963 569.059, 363.741 " fill="none" stroke="rgb(0, 0, 0)" stroke-linecap="butt" stroke-linejoin="round" stroke-opacity="1.0" stroke-width="3.0" />
            <path d=" M 547.812, 234.020 545.241, 231.990 542.200, 229.589 540.584, 228.153 539.845, 227.496 537.360, 225.287 533.657, 221.997 532.225, 220.577 529.583, 217.956 525.348, 213.757 522.622, 210.761 519.167, 206.964 517.266, 204.874 " fill="none" stroke="rgb(0, 0, 0)" stroke-linecap="butt" stroke-linejoin="round" stroke-opacity="1.0" stroke-width="3.0" />
            <path d=" M 569.939, 247.976 564.176, 244.910 555.691, 239.617 555.041, 239.211 547.812, 234.020 546.131, 232.812 " fill="none" stroke="rgb(0, 0, 0)" stroke-linecap="butt" stroke-linejoin="round" stroke-opacity="1.0" stroke-width="3.0" />
            <path d=" M 517.266, 204.874 512.713, 200.489 508.030, 196.949 506.413, 196.055 503.621, 194.511 503.226, 194.293 498.311, 192.564 493.296, 191.797 488.194, 192.030 483.017, 193.298 477.782, 195.635 476.428, 196.516 474.523, 197.755 472.503, 199.070 468.685, 202.351 467.200, 203.627 461.889, 209.332 457.425, 215.123 456.593, 216.202 454.808, 218.930 451.331, 224.247 449.534, 227.431 446.126, 233.472 441.710, 242.444 441.002, 243.881 437.026, 253.057 435.983, 255.465 432.399, 264.801 431.092, 268.206 427.862, 277.670 426.356, 282.083 423.447, 291.650 421.801, 297.064 419.184, 306.716 417.451, 313.108 415.104, 322.828 413.332, 330.164 411.234, 339.941 409.468, 348.175 407.604, 357.999 405.883, 367.073 404.240, 376.938 402.600, 386.784 401.166, 396.680 399.733, 406.577 399.639, 407.221 398.406, 417.145 397.173, 427.068 397.021, 428.296 395.981, 438.242 394.941, 448.188 394.762, 449.909 393.909, 459.873 393.057, 469.837 392.876, 471.957 392.207, 481.934 391.539, 491.912 391.377, 494.329 390.889, 504.317 390.401, 514.305 390.274, 516.916 389.966, 526.911 389.657, 536.906 389.574, 539.602 389.445, 549.601 389.315, 559.601 389.281, 562.273 389.331, 572.273 389.382, 582.273 389.395, 584.812 389.426, 584.807 394.923, 583.926 396.724, 583.653 400.550, 583.074 406.279, 582.254 412.109, 581.467 418.041, 580.711 424.078, 579.985 430.219, 579.289 436.466, 578.623 442.820, 577.986 449.284, 577.377 455.857, 576.797 462.541, 576.243 469.339, 575.717 476.251, 575.217 479.150, 575.022 " fill="none" stroke="rgb(0, 0, 0)" stroke-linecap="butt" stroke-linejoin="round" stroke-opacity="1.0" stroke-width="3.0" />
            <path d=" M 359.453, 575.227 355.321, 584.334 353.185, 589.043 " fill="none" stroke="rgb(0, 0, 0)" stroke-linecap="butt" stroke-linejoin="round" stroke-opacity="1.0" stroke-width="3.0" />
            <path d=" M 476.428, 196.516 467.143, 196.704 " fill="none" stroke="rgb(0, 0, 0)" stroke-linecap="butt" stroke-linejoin="round" stroke-opacity="1.0" stroke-width="3.0" />
            <path d=" M 533.401, 478.515 533.355, 478.549 " fill="none" stroke="rgb(0, 0, 0)" stroke-linecap="butt" stroke-linejoin="round" stroke-opacity="1.0" stroke-width="3.0" />
            <path d=" M 569.866, 248.077 568.197, 247.310 " fill="none" stroke="rgb(0, 0, 0)" stroke-linecap="butt" stroke-linejoin="round" stroke-opacity="1.0" stroke-width="3.0" />
        </g>
    </g>
</svg>
