<?xml version='1.0' encoding='ascii'?>
<svg xmlns="http://www.w3.org/2000/svg" height="1080" version="1.1" width="1080">
    <g id="View Layer_LineSet" inkscape:groupmode="lineset" inkscape:label="View Layer_LineSet" xmlns:inkscape="http://www.inkscape.org/namespaces/inkscape">
        <g id="strokes" inkscape:groupmode="layer" inkscape:label="strokes" xmlns:inkscape="http://www.inkscape.org/namespaces/inkscape">
            <path d=" M 565.007, 499.617 564.966, 500.768 564.905, 501.899 564.825, 503.000 564.727, 504.059 564.711, 504.202 564.612, 505.066 564.481, 506.010 564.334, 506.883 564.174, 507.674 564.000, 508.376 563.926, 508.630 " fill="none" stroke="rgb(0, 0, 0)" stroke-linecap="butt" stroke-linejoin="round" stroke-opacity="1.0" stroke-width="3.0" />
            <path d=" M 353.209, 590.812 359.564, 592.350 " fill="none" stroke="rgb(0, 0, 0)" stroke-linecap="butt" stroke-linejoin="round" stroke-opacity="1.0" stroke-width="3.0" />
            <path d=" M 377.464, 592.844 387.427, 591.982 389.471, 591.805 " fill="none" stroke="rgb(0, 0, 0)" stroke-linecap="butt" stroke-linejoin="round" stroke-opacity="1.0" stroke-width="3.0" />
            <path d=" M 389.471, 591.805 385.330, 582.702 381.189, 573.600 380.106, 571.219 " fill="none" stroke="rgb(0, 0, 0)" stroke-linecap="butt" stroke-linejoin="round" stroke-opacity="1.0" stroke-width="3.0" />
            <path d=" M 466.952, 197.375 462.449, 198.258 457.890, 200.228 453.286, 203.316 448.655, 207.551 444.011, 212.958 441.851, 216.034 440.001, 218.668 439.373, 219.561 434.760, 227.372 430.245, 236.295 430.191, 236.401 426.169, 245.556 425.688, 246.651 422.094, 255.983 421.272, 258.118 418.052, 267.586 416.964, 270.786 414.077, 280.361 412.789, 284.635 410.200, 294.294 408.769, 299.635 406.449, 309.363 404.927, 315.746 402.853, 325.528 401.287, 332.915 399.439, 342.743 397.871, 351.085 396.234, 360.951 394.701, 370.188 393.261, 380.084 391.797, 390.144 390.544, 400.066 389.291, 409.987 389.180, 410.866 388.104, 420.808 387.029, 430.750 386.866, 432.259 385.962, 442.218 385.057, 452.177 384.872, 454.221 384.133, 464.194 383.394, 474.166 383.211, 476.642 382.634, 486.625 382.056, 496.609 381.894, 499.409 381.476, 509.400 381.057, 519.391 380.931, 522.404 380.670, 532.400 380.409, 542.397 380.327, 545.507 380.223, 555.506 380.118, 565.505 380.086, 568.596 380.106, 571.219 378.893, 581.145 377.680, 591.071 377.464, 592.844 " fill="none" stroke="rgb(0, 0, 0)" stroke-linecap="butt" stroke-linejoin="round" stroke-opacity="1.0" stroke-width="3.0" />
            <path d=" M 566.931, 520.885 567.164, 520.890 567.995, 520.904 574.851, 517.212 577.944, 515.966 577.931, 505.966 577.924, 501.196 577.792, 491.197 577.730, 486.480 577.477, 476.483 577.360, 471.838 576.984, 461.845 576.813, 457.290 576.313, 447.302 576.090, 442.857 575.461, 432.877 575.189, 428.562 574.428, 418.591 574.111, 414.425 573.213, 404.466 572.853, 400.471 571.813, 390.525 571.415, 386.722 570.227, 376.793 569.797, 373.202 568.544, 363.961 " fill="none" stroke="rgb(0, 0, 0)" stroke-linecap="butt" stroke-linejoin="round" stroke-opacity="1.0" stroke-width="3.0" />
            <path d=" M 565.447, 369.561 566.806, 379.468 566.962, 380.608 568.164, 390.535 568.524, 393.513 569.576, 403.457 569.914, 406.647 570.822, 416.605 571.130, 419.985 571.900, 429.956 572.174, 433.506 572.810, 443.486 573.046, 447.185 573.553, 457.172 573.747, 461.001 574.127, 470.994 574.277, 474.933 574.534, 484.929 574.638, 488.959 574.773, 498.958 574.829, 503.059 574.831, 504.152 574.755, 504.890 574.671, 505.597 574.579, 506.269 574.479, 506.903 574.371, 507.494 574.257, 508.041 574.138, 508.539 574.012, 508.987 573.883, 509.382 573.749, 509.721 573.612, 510.004 573.473, 510.227 573.332, 510.391 573.190, 510.494 569.140, 512.556 568.956, 511.463 568.746, 510.531 568.515, 509.777 568.265, 509.213 568.001, 508.849 567.728, 508.692 567.263, 508.684 565.055, 508.648 564.688, 508.642 563.926, 508.630 563.747, 508.627 562.900, 508.614 559.328, 508.556 557.542, 508.527 557.419, 508.525 557.344, 508.524 557.055, 508.577 556.766, 508.840 556.481, 509.308 556.205, 509.976 555.944, 510.831 555.701, 511.860 555.552, 512.668 555.482, 513.045 555.289, 514.367 555.196, 515.187 555.126, 515.803 555.065, 516.521 554.996, 517.328 554.901, 518.917 554.843, 520.542 554.823, 522.175 555.502, 522.187 557.349, 522.220 557.443, 522.222 559.227, 522.254 562.797, 522.318 563.630, 522.333 564.584, 522.350 565.289, 522.363 566.919, 521.484 566.927, 520.967 566.931, 520.885 566.950, 520.455 566.987, 519.964 567.036, 519.507 567.097, 519.096 567.168, 518.743 567.193, 518.650 567.246, 518.456 567.331, 518.245 567.419, 518.114 567.507, 518.067 " fill="none" stroke="rgb(0, 0, 0)" stroke-linecap="butt" stroke-linejoin="round" stroke-opacity="1.0" stroke-width="3.0" />
            <path d=" M 463.016, 873.178 459.226, 872.272 458.935, 872.202 454.846, 870.204 450.762, 867.156 450.503, 866.894 446.700, 863.036 442.675, 857.819 438.702, 851.488 434.801, 844.034 430.987, 835.449 427.424, 826.106 427.281, 825.732 424.145, 816.237 423.701, 814.890 420.938, 805.280 420.265, 802.939 417.831, 793.240 416.993, 789.899 414.853, 780.131 413.904, 775.798 412.029, 765.975 411.017, 760.675 409.382, 750.809 408.349, 744.577 406.936, 734.677 405.920, 727.558 404.712, 717.631 403.744, 709.679 402.727, 699.731 401.837, 691.014 401.001, 681.049 400.212, 671.641 399.549, 661.663 398.883, 651.645 398.385, 641.657 397.887, 631.670 397.859, 631.119 397.520, 621.124 397.181, 611.130 397.148, 610.160 396.965, 600.162 396.781, 590.164 396.757, 588.873 396.738, 585.104 " fill="none" stroke="rgb(0, 0, 0)" stroke-linecap="butt" stroke-linejoin="round" stroke-opacity="1.0" stroke-width="3.0" />
            <path d=" M 384.300, 275.064 381.881, 284.170 379.583, 293.902 378.371, 299.035 376.316, 308.822 375.015, 315.015 373.180, 324.845 371.833, 332.061 370.200, 341.927 368.845, 350.117 367.399, 360.012 366.069, 369.119 364.798, 379.038 363.523, 388.991 362.416, 398.929 361.310, 408.868 361.223, 409.647 360.274, 419.602 359.324, 429.557 359.187, 430.997 358.387, 440.965 357.588, 450.933 357.427, 452.942 356.773, 462.920 356.118, 472.899 355.956, 475.374 355.442, 485.360 354.929, 495.347 354.783, 498.181 354.408, 508.174 354.033, 518.167 353.918, 521.249 353.680, 531.246 353.442, 541.243 353.365, 544.457 353.263, 554.456 353.161, 564.456 353.128, 567.685 353.163, 577.685 353.198, 587.685 353.209, 590.812 353.429, 600.809 353.648, 610.807 353.709, 613.589 354.093, 623.582 354.478, 633.575 354.571, 636.004 355.124, 645.988 355.677, 655.973 355.786, 657.942 356.515, 667.915 357.244, 677.889 357.346, 679.296 358.258, 689.254 359.171, 699.212 359.239, 699.964 360.345, 709.902 361.452, 719.853 362.763, 729.766 363.968, 738.878 365.500, 748.760 366.771, 756.961 368.543, 766.803 369.844, 774.035 371.876, 783.827 373.166, 790.044 375.486, 799.771 375.638, 800.411 " fill="none" stroke="rgb(0, 0, 0)" stroke-linecap="butt" stroke-linejoin="round" stroke-opacity="1.0" stroke-width="3.0" />
            <path d=" M 523.211, 536.747 523.110, 543.703 522.857, 553.700 522.752, 557.858 522.393, 567.851 522.244, 571.993 521.776, 581.983 521.584, 586.091 521.008, 596.074 520.774, 600.130 520.087, 610.107 519.813, 614.092 519.015, 624.060 518.702, 627.957 518.360, 631.694 " fill="none" stroke="rgb(0, 0, 0)" stroke-linecap="butt" stroke-linejoin="round" stroke-opacity="1.0" stroke-width="3.0" />
            <path d=" M 501.410, 747.617 499.451, 756.475 497.110, 766.197 496.728, 767.785 494.192, 777.459 493.865, 778.707 491.118, 788.323 490.864, 789.212 487.887, 798.758 487.728, 799.267 484.497, 808.731 484.460, 808.840 481.062, 817.897 477.538, 826.406 473.893, 834.330 470.131, 841.631 466.259, 848.273 462.281, 854.221 458.205, 859.434 454.039, 863.873 450.503, 866.894 " fill="none" stroke="rgb(0, 0, 0)" stroke-linecap="butt" stroke-linejoin="round" stroke-opacity="1.0" stroke-width="3.0" />
            <path d=" M 389.441, 586.585 389.471, 591.805 389.665, 601.803 389.859, 611.801 389.912, 614.525 390.272, 624.519 390.633, 634.512 390.718, 636.884 391.249, 646.870 391.779, 656.856 391.881, 658.770 392.588, 668.745 393.295, 678.720 393.391, 680.076 394.281, 690.036 395.172, 699.996 395.235, 700.700 396.318, 710.641 397.397, 720.549 398.683, 730.466 399.860, 739.541 401.363, 749.427 402.605, 757.595 404.341, 767.443 405.611, 774.646 407.600, 784.447 408.857, 790.638 411.123, 800.377 412.320, 805.520 414.894, 815.183 415.978, 819.253 418.895, 828.817 419.807, 831.807 423.113, 841.245 423.785, 843.164 427.535, 852.434 427.889, 853.309 432.097, 862.236 436.387, 869.950 438.284, 872.787 438.532, 873.158 440.740, 876.462 445.136, 881.783 449.556, 885.936 453.983, 888.948 458.401, 890.847 462.794, 891.665 467.150, 891.437 471.454, 890.205 475.697, 888.004 479.866, 884.876 481.812, 882.966 483.953, 880.863 487.949, 876.008 491.847, 870.351 495.641, 863.933 499.323, 856.797 502.891, 848.985 506.338, 840.533 506.946, 838.877 509.661, 831.482 512.817, 821.993 512.857, 821.870 515.753, 812.299 515.924, 811.733 518.587, 802.094 518.860, 801.105 519.698, 797.790 " fill="none" stroke="rgb(0, 0, 0)" stroke-linecap="butt" stroke-linejoin="round" stroke-opacity="1.0" stroke-width="3.0" />
            <path d=" M 516.268, 790.027 513.581, 799.438 510.597, 808.990 507.496, 818.028 504.282, 826.519 500.958, 834.425 497.529, 841.710 494.001, 848.339 490.379, 854.275 486.669, 859.477 482.878, 863.907 479.014, 867.529 475.086, 870.305 471.104, 872.195 467.076, 873.164 463.016, 873.178 " fill="none" stroke="rgb(0, 0, 0)" stroke-linecap="butt" stroke-linejoin="round" stroke-opacity="1.0" stroke-width="3.0" />
            <path d=" M 555.065, 516.521 548.972, 516.308 548.154, 516.279 546.398, 516.218 546.348, 526.218 546.328, 530.319 546.181, 540.318 546.120, 544.440 545.875, 554.437 545.774, 558.561 545.432, 568.555 545.291, 572.664 544.850, 582.654 544.670, 586.729 544.130, 596.714 543.912, 600.736 543.272, 610.716 543.018, 614.667 542.275, 624.639 541.988, 628.501 541.141, 638.465 540.822, 642.217 539.867, 652.171 539.520, 655.795 538.456, 665.738 538.083, 669.214 536.905, 679.144 536.512, 682.451 535.215, 692.367 534.807, 695.484 533.386, 705.382 533.164, 706.930 " fill="none" stroke="rgb(0, 0, 0)" stroke-linecap="butt" stroke-linejoin="round" stroke-opacity="1.0" stroke-width="3.0" />
            <path d=" M 535.707, 715.020 537.068, 705.113 537.459, 702.264 538.699, 692.341 539.166, 688.609 540.291, 678.673 540.735, 674.751 541.749, 664.803 542.166, 660.712 543.074, 650.753 543.460, 646.514 544.265, 636.546 544.618, 632.179 545.323, 622.203 545.639, 617.727 546.246, 607.746 546.523, 603.180 547.034, 593.193 547.271, 588.556 547.688, 578.565 547.884, 573.876 548.208, 563.881 548.361, 559.159 548.592, 549.161 548.702, 544.423 548.842, 534.424 548.908, 529.688 548.956, 519.689 548.972, 516.308 " fill="none" stroke="rgb(0, 0, 0)" stroke-linecap="butt" stroke-linejoin="round" stroke-opacity="1.0" stroke-width="3.0" />
            <path d=" M 377.464, 592.844 377.665, 602.841 377.867, 612.839 377.940, 616.492 378.305, 626.485 378.670, 636.479 378.789, 639.757 379.321, 649.743 379.853, 659.729 380.002, 662.521 380.708, 672.496 381.414, 682.471 381.569, 684.668 382.456, 694.629 383.344, 704.589 383.478, 706.094 384.556, 716.035 385.633, 725.977 385.712, 726.700 386.992, 736.617 388.255, 746.397 389.752, 756.284 391.088, 765.104 392.820, 774.953 394.191, 782.752 396.178, 792.553 397.543, 799.282 399.811, 809.021 401.121, 814.644 403.702, 824.305 404.903, 828.797 407.836, 838.357 408.865, 841.713 412.197, 851.142 412.985, 853.373 416.775, 862.627 417.241, 863.765 421.561, 872.783 421.609, 872.884 426.069, 880.738 430.598, 887.339 435.178, 892.703 439.790, 896.854 444.414, 899.822 449.035, 901.641 453.637, 902.342 458.205, 901.967 462.726, 900.557 467.188, 898.153 471.579, 894.798 475.890, 890.538 " fill="none" stroke="rgb(0, 0, 0)" stroke-linecap="butt" stroke-linejoin="round" stroke-opacity="1.0" stroke-width="3.0" />
            <path d=" M 475.890, 890.538 482.292, 882.856 483.953, 880.863 " fill="none" stroke="rgb(0, 0, 0)" stroke-linecap="butt" stroke-linejoin="round" stroke-opacity="1.0" stroke-width="3.0" />
            <path d=" M 540.310, 541.296 530.311, 541.385 528.930, 541.397 525.910, 538.942 523.211, 536.747 519.238, 533.518 518.956, 533.288 518.672, 533.057 518.388, 532.826 518.105, 532.595 517.897, 532.349 " fill="none" stroke="rgb(0, 0, 0)" stroke-linecap="butt" stroke-linejoin="round" stroke-opacity="1.0" stroke-width="3.0" />
            <path d=" M 521.763, 502.239 526.777, 493.587 528.861, 489.988 538.833, 490.747 540.300, 490.858 540.460, 500.857 540.620, 510.856 540.703, 516.019 540.612, 526.019 540.574, 530.126 540.338, 540.124 540.310, 541.296 532.678, 534.835 531.400, 533.754 531.128, 533.524 530.856, 533.293 530.583, 533.062 530.311, 532.831 529.994, 532.439 529.691, 531.820 529.411, 530.985 529.195, 530.096 529.159, 529.949 528.942, 528.733 528.762, 527.358 528.624, 525.852 528.529, 524.242 528.511, 523.615 528.480, 522.561 528.478, 520.841 528.523, 519.115 528.614, 517.417 528.616, 517.393 528.749, 515.779 528.926, 514.233 529.140, 512.810 529.261, 512.191 529.389, 511.536 529.666, 510.436 529.967, 509.530 530.284, 508.836 530.555, 508.346 530.828, 507.856 531.100, 507.367 531.372, 506.879 531.510, 506.634 536.377, 497.899 540.300, 490.858 " fill="none" stroke="rgb(0, 0, 0)" stroke-linecap="butt" stroke-linejoin="round" stroke-opacity="1.0" stroke-width="3.0" />
            <path d=" M 530.869, 523.658 530.745, 523.583 530.628, 523.376 530.524, 523.044 530.438, 522.602 530.373, 522.071 530.333, 521.472 530.319, 520.833 530.332, 520.181 530.371, 519.545 530.434, 518.953 530.519, 518.431 530.622, 518.002 530.738, 517.684 530.863, 517.492 530.989, 517.435 " fill="none" stroke="rgb(0, 0, 0)" stroke-linecap="butt" stroke-linejoin="round" stroke-opacity="1.0" stroke-width="3.0" />
            <path d=" M 530.989, 517.435 531.114, 517.512 531.230, 517.721 531.334, 518.054 531.419, 518.495 531.484, 519.025 531.523, 519.622 531.537, 520.259 531.525, 520.908 531.486, 521.541 531.423, 522.131 531.338, 522.653 531.236, 523.082 531.120, 523.401 530.996, 523.596 530.869, 523.658 " fill="none" stroke="rgb(0, 0, 0)" stroke-linecap="butt" stroke-linejoin="round" stroke-opacity="1.0" stroke-width="3.0" />
            <path d=" M 360.193, 521.143 360.066, 524.747 359.854, 534.744 359.642, 544.742 359.587, 547.344 359.513, 557.344 359.439, 567.344 359.420, 569.909 359.465, 577.006 359.530, 587.005 359.564, 592.350 359.768, 602.348 359.973, 612.346 360.018, 614.579 360.365, 624.573 360.712, 634.566 360.779, 636.508 360.898, 638.917 " fill="none" stroke="rgb(0, 0, 0)" stroke-linecap="butt" stroke-linejoin="round" stroke-opacity="1.0" stroke-width="3.0" />
            <path d=" M 541.838, 731.785 543.269, 721.888 543.356, 721.286 544.685, 711.374 545.047, 708.672 546.277, 698.748 546.630, 695.902 547.764, 685.967 548.104, 682.991 549.146, 673.046 549.470, 669.952 550.422, 659.998 550.728, 656.799 551.592, 646.837 551.878, 643.545 552.656, 633.575 552.920, 630.201 553.613, 620.225 553.853, 616.781 554.464, 606.799 554.678, 603.296 555.207, 593.310 555.396, 589.757 555.844, 579.767 556.005, 576.177 556.372, 566.184 556.505, 562.566 556.793, 552.570 556.898, 548.936 557.105, 538.938 557.181, 535.298 557.309, 525.299 557.349, 522.220 " fill="none" stroke="rgb(0, 0, 0)" stroke-linecap="butt" stroke-linejoin="round" stroke-opacity="1.0" stroke-width="3.0" />
            <path d=" M 457.129, 931.087 459.554, 931.260 463.692, 930.898 467.790, 929.724 471.841, 927.768 475.837, 925.062 479.772, 921.636 483.639, 917.521 487.434, 912.748 491.150, 907.347 494.784, 901.349 498.333, 894.783 501.791, 887.678 505.157, 880.063 508.428, 871.964 511.600, 863.410 514.674, 854.425 517.645, 845.036 520.462, 835.441 520.514, 835.265 523.147, 825.618 523.278, 825.136 525.741, 815.444 525.938, 814.672 526.531, 812.168 " fill="none" stroke="rgb(0, 0, 0)" stroke-linecap="butt" stroke-linejoin="round" stroke-opacity="1.0" stroke-width="3.0" />
            <path d=" M 522.647, 211.312 522.249, 210.076 519.325, 201.804 516.285, 194.007 513.133, 186.713 509.868, 179.950 506.494, 173.747 503.014, 168.134 499.430, 163.142 495.745, 158.800 491.965, 155.139 488.094, 152.192 484.137, 149.988 480.100, 148.560 475.989, 147.936 473.809, 148.047 471.813, 148.148 467.578, 149.223 463.295, 151.190 458.971, 154.074 454.618, 157.899 450.247, 162.688 445.870, 168.458 441.499, 175.226 437.147, 183.004 432.829, 191.801 430.089, 198.104 428.560, 201.621 424.944, 210.944 424.355, 212.463 421.069, 221.908 420.229, 224.322 419.081, 227.987 416.199, 237.188 413.478, 246.810 412.281, 251.042 409.804, 260.731 408.492, 265.863 406.240, 275.607 404.849, 281.623 402.804, 291.411 401.368, 298.285 399.517, 308.112 398.066, 315.808 396.396, 325.668 394.959, 334.146 393.460, 344.033 392.063, 353.243 390.725, 363.153 389.391, 373.039 388.208, 382.969 387.026, 392.899 386.958, 393.470 385.925, 403.416 384.891, 413.363 384.777, 414.463 383.887, 424.424 382.998, 434.384 382.859, 435.944 382.110, 445.916 381.360, 455.888 381.214, 457.831 380.602, 467.812 379.990, 477.794 379.852, 480.041 379.374, 490.030 378.897, 500.019 378.779, 502.488 378.435, 512.482 378.091, 522.476 378.001, 525.082 377.789, 535.080 377.577, 545.077 377.521, 547.733 377.442, 557.733 377.363, 567.732 377.342, 570.350 377.396, 580.350 377.450, 590.350 377.464, 592.844 377.653, 602.842 377.842, 612.840 377.885, 615.123 378.210, 625.118 378.536, 635.113 378.601, 637.102 379.067, 647.092 379.533, 657.081 379.608, 658.696 380.218, 668.678 380.828, 678.659 380.899, 679.824 381.658, 689.795 382.417, 699.766 382.465, 700.409 383.379, 710.367 384.298, 720.378 385.373, 730.320 386.385, 739.665 387.631, 749.587 388.714, 758.208 390.142, 768.106 391.274, 775.953 392.894, 785.820 394.049, 792.849 395.877, 802.681 397.024, 808.855 399.077, 818.642 400.186, 823.932 402.483, 833.665 403.518, 838.053 406.083, 847.718 407.004, 851.191 409.866, 860.773 410.629, 863.330 413.821, 872.807 414.377, 874.456 417.941, 883.799 418.232, 884.563 422.179, 893.650 426.203, 901.719 430.290, 908.778 434.425, 914.838 438.596, 919.914 442.789, 924.024 446.992, 927.190 451.194, 929.434 455.385, 930.781 457.655, 931.042 459.554, 931.260 " fill="none" stroke="rgb(0, 0, 0)" stroke-linecap="butt" stroke-linejoin="round" stroke-opacity="1.0" stroke-width="3.0" />
            <path d=" M 473.564, 148.010 469.361, 148.222 465.099, 149.298 460.788, 151.265 456.437, 154.149 452.057, 157.974 447.659, 162.761 443.255, 168.530 438.857, 175.297 434.479, 183.073 430.135, 191.867 427.217, 198.535 425.840, 201.685 422.204, 211.000 421.609, 212.524 418.305, 221.962 417.459, 224.379 414.453, 233.917 413.405, 237.240 411.980, 242.248 409.464, 251.090 406.973, 260.775 405.654, 265.907 403.388, 275.647 401.990, 281.660 399.933, 291.447 398.489, 298.316 396.627, 308.141 395.169, 315.834 393.489, 325.691 392.045, 334.164 390.537, 344.050 389.133, 353.254 387.788, 363.163 386.447, 373.043 385.258, 382.972 384.069, 392.901 384.001, 393.465 382.963, 403.411 381.924, 413.357 381.809, 414.451 380.916, 424.411 380.022, 434.371 379.882, 435.923 379.129, 445.895 378.377, 455.866 378.230, 457.802 377.616, 467.783 377.001, 477.764 376.863, 480.003 376.383, 489.992 375.904, 499.980 375.786, 502.441 375.441, 512.435 375.096, 522.429 375.006, 525.026 374.794, 535.024 374.582, 545.021 374.526, 547.668 374.448, 557.668 374.370, 567.667 374.349, 570.277 374.405, 580.276 374.461, 590.276 374.475, 592.761 374.666, 602.759 374.858, 612.757 374.901, 615.032 375.230, 625.027 375.560, 635.021 375.625, 637.003 376.095, 646.992 376.566, 656.981 376.641, 658.589 377.256, 668.570 377.872, 678.551 377.943, 679.709 378.708, 689.680 379.473, 699.650 379.522, 700.286 380.443, 710.243 381.368, 720.248 382.453, 730.189 383.471, 739.529 384.727, 749.449 385.818, 758.066 387.256, 767.962 388.396, 775.805 390.028, 785.670 391.190, 792.696 393.031, 802.525 394.187, 808.696 396.253, 818.481 397.370, 823.770 399.682, 833.499 400.725, 837.887 403.307, 847.548 404.235, 851.022 407.115, 860.598 407.885, 863.158 411.097, 872.628 411.658, 874.282 415.243, 883.617 415.539, 884.387 419.512, 893.473 423.563, 901.541 427.676, 908.599 431.838, 914.659 436.036, 919.735 440.256, 923.846 444.487, 927.012 448.716, 929.258 452.934, 930.607 457.129, 931.087 " fill="none" stroke="rgb(0, 0, 0)" stroke-linecap="butt" stroke-linejoin="round" stroke-opacity="1.0" stroke-width="3.0" />
            <path d=" M 475.989, 147.936 473.564, 148.010 " fill="none" stroke="rgb(0, 0, 0)" stroke-linecap="butt" stroke-linejoin="round" stroke-opacity="1.0" stroke-width="3.0" />
            <path d=" M 547.828, 745.561 548.191, 743.176 549.588, 733.274 550.062, 729.914 551.360, 719.998 551.820, 716.482 553.022, 706.555 553.465, 702.897 554.574, 692.959 554.997, 689.173 556.016, 679.225 556.416, 675.322 557.348, 665.366 557.723, 661.359 558.570, 651.395 558.918, 647.296 559.681, 637.325 560.001, 633.146 560.682, 623.169 560.972, 618.919 561.572, 608.938 561.831, 604.629 562.351, 594.643 562.578, 590.286 563.020, 580.296 563.214, 575.902 563.577, 565.908 563.738, 561.486 564.023, 551.490 564.150, 547.051 564.358, 537.053 564.450, 532.607 564.580, 522.608 564.584, 522.350 " fill="none" stroke="rgb(0, 0, 0)" stroke-linecap="butt" stroke-linejoin="round" stroke-opacity="1.0" stroke-width="3.0" />
            <path d=" M 454.686, 959.010 457.106, 959.191 461.588, 959.357 466.028, 958.619 470.418, 957.012 474.750, 954.571 479.016, 951.333 483.209, 947.332 487.323, 942.604 491.354, 937.184 495.295, 931.106 499.144, 924.406 502.895, 917.114 506.547, 909.264 510.096, 900.887 513.540, 892.013 516.877, 882.670 520.010, 873.174 520.105, 872.888 523.029, 863.325 523.223, 862.692 525.955, 853.073 526.229, 852.110 528.786, 842.442 528.830, 842.272 529.123, 841.164 531.517, 831.455 531.905, 829.880 533.148, 824.473 " fill="none" stroke="rgb(0, 0, 0)" stroke-linecap="butt" stroke-linejoin="round" stroke-opacity="1.0" stroke-width="3.0" />
            <path d=" M 539.829, 227.804 539.294, 225.353 536.986, 215.622 536.736, 214.568 534.239, 204.885 534.052, 204.161 531.347, 194.534 531.241, 194.157 528.304, 184.583 525.240, 175.467 522.052, 166.837 518.739, 158.724 515.303, 151.159 511.747, 144.174 508.072, 137.803 504.282, 132.078 500.379, 127.035 496.367, 122.709 492.251, 119.135 488.037, 116.350 483.729, 114.390 479.335, 113.289 474.862, 113.085 473.916, 113.236 470.318, 113.810 465.713, 115.499 461.055, 118.183 456.358, 121.893 451.631, 126.656 446.889, 132.497 442.144, 139.437 437.411, 147.495 432.854, 156.396 432.707, 156.684 428.594, 165.799 428.047, 167.013 424.326, 176.294 423.448, 178.485 422.513, 181.095 419.139, 190.509 418.928, 191.098 416.615, 198.288 414.506, 204.844 413.750, 207.451 410.967, 217.057 410.199, 219.707 407.671, 229.382 406.028, 235.665 403.732, 245.398 402.012, 252.690 399.930, 262.470 398.169, 270.743 396.286, 280.564 394.519, 289.781 393.522, 295.570 391.825, 305.425 391.080, 309.752 389.558, 319.636 388.036, 329.519 387.871, 330.595 386.515, 340.503 385.159, 350.411 384.908, 352.245 383.710, 362.173 382.512, 372.101 382.208, 374.626 381.162, 384.571 380.116, 394.516 379.786, 397.658 378.886, 407.617 377.987, 417.577 377.655, 421.255 376.898, 431.226 376.141, 441.197 375.828, 445.324 375.210, 455.305 374.592, 465.286 374.314, 469.770 373.833, 479.758 373.352, 489.747 373.124, 494.492 372.777, 504.486 372.431, 514.480 372.262, 519.387 372.050, 529.385 371.838, 539.383 371.733, 544.352 371.655, 554.352 371.578, 564.351 371.539, 569.281 371.597, 579.280 371.654, 589.280 371.681, 594.068 371.875, 604.066 372.069, 614.064 372.158, 618.612 372.490, 628.606 372.823, 638.601 372.963, 642.810 373.438, 652.799 373.912, 662.788 374.092, 666.566 374.712, 676.547 375.333, 686.528 375.536, 689.787 376.308, 699.757 377.080, 709.728 377.285, 712.385 378.215, 722.341 379.144, 732.298 379.329, 734.276 380.423, 744.216 381.518, 754.156 381.653, 755.386 382.922, 765.305 384.190, 775.225 384.244, 775.646 385.697, 785.540 387.086, 794.994 388.737, 804.857 390.163, 813.376 392.026, 823.201 393.457, 830.745 395.551, 840.523 396.951, 847.062 399.297, 856.783 400.627, 862.297 400.648, 862.375 403.107, 871.419 404.467, 876.424 407.398, 885.985 408.453, 889.427 411.146, 897.196 412.566, 901.295 415.659, 909.153 416.790, 912.025 420.893, 921.144 421.106, 921.617 425.498, 930.080 429.950, 937.425 434.446, 943.669 438.972, 948.832 443.513, 952.938 448.057, 956.014 452.592, 958.088 456.668, 959.084 457.106, 959.191 " fill="none" stroke="rgb(0, 0, 0)" stroke-linecap="butt" stroke-linejoin="round" stroke-opacity="1.0" stroke-width="3.0" />
            <path d=" M 361.295, 490.421 361.105, 494.315 360.755, 504.309 360.405, 514.303 360.234, 519.171 360.193, 521.143 359.981, 531.141 359.768, 541.139 359.706, 544.097 359.631, 554.096 359.557, 564.096 359.521, 568.986 359.571, 576.772 359.635, 586.772 359.666, 591.543 359.680, 593.735 359.884, 603.733 360.088, 613.731 360.181, 618.241 360.317, 622.172 360.664, 632.166 360.898, 638.917 361.019, 642.403 361.186, 645.785 " fill="none" stroke="rgb(0, 0, 0)" stroke-linecap="butt" stroke-linejoin="round" stroke-opacity="1.0" stroke-width="3.0" />
            <path d=" M 472.441, 113.169 467.869, 113.895 463.234, 115.585 458.548, 118.269 453.821, 121.979 449.065, 126.741 444.293, 132.581 439.520, 139.520 434.758, 147.576 430.179, 156.465 430.026, 156.762 425.891, 165.868 425.337, 167.088 421.596, 176.362 420.711, 178.557 417.319, 187.964 416.165, 191.167 413.648, 198.940 411.716, 204.908 409.335, 213.078 407.385, 219.766 404.860, 229.370 403.190, 235.719 400.881, 245.449 399.151, 252.738 397.057, 262.516 395.287, 270.785 393.393, 280.604 391.616, 289.816 389.910, 299.670 388.203, 309.523 388.159, 309.780 386.628, 319.662 385.098, 329.544 384.932, 330.615 384.591, 333.096 383.227, 343.002 381.954, 352.256 380.750, 362.183 379.545, 372.111 379.240, 374.629 378.189, 384.573 377.137, 394.518 376.806, 397.652 375.902, 407.611 374.998, 417.570 374.665, 421.239 373.904, 431.210 373.144, 441.181 372.830, 445.299 372.209, 455.280 371.588, 465.261 371.310, 469.735 370.827, 479.724 370.344, 489.712 370.115, 494.448 369.768, 504.442 369.421, 514.436 369.251, 519.333 369.039, 529.331 368.827, 539.329 368.722, 544.288 368.646, 554.288 368.569, 564.288 368.531, 569.207 368.590, 579.207 368.649, 589.206 368.678, 593.985 368.874, 603.983 369.071, 613.981 369.160, 618.519 369.496, 628.513 369.832, 638.508 369.973, 642.708 370.452, 652.697 370.932, 662.685 371.112, 666.456 371.738, 676.436 372.365, 686.416 372.569, 689.668 373.347, 699.637 374.125, 709.607 374.332, 712.257 375.269, 722.213 376.206, 732.169 376.391, 734.141 377.494, 744.080 378.597, 754.019 378.733, 755.244 380.011, 765.162 381.289, 775.080 381.342, 775.497 382.806, 785.389 384.204, 794.838 385.867, 804.699 387.303, 813.214 389.179, 823.037 390.620, 830.578 392.728, 840.354 393.745, 845.071 394.138, 846.891 396.499, 856.609 397.839, 862.122 398.185, 863.384 400.825, 873.029 401.379, 875.053 401.705, 876.246 404.654, 885.801 405.717, 889.246 408.282, 896.594 409.858, 901.112 413.542, 910.409 414.109, 911.840 418.235, 920.949 418.454, 921.431 422.875, 929.893 427.356, 937.238 431.881, 943.482 436.436, 948.646 441.007, 952.753 445.580, 955.829 450.144, 957.905 454.686, 959.010 " fill="none" stroke="rgb(0, 0, 0)" stroke-linecap="butt" stroke-linejoin="round" stroke-opacity="1.0" stroke-width="3.0" />
            <path d=" M 474.862, 113.085 472.441, 113.169 " fill="none" stroke="rgb(0, 0, 0)" stroke-linecap="butt" stroke-linejoin="round" stroke-opacity="1.0" stroke-width="3.0" />
            <path d=" M 545.227, 232.248 543.817, 225.115 541.719, 215.337 541.322, 213.489 539.054, 203.749 538.696, 202.215 536.242, 192.521 535.938, 191.320 533.281, 181.679 533.047, 180.829 530.169, 171.253 530.024, 170.771 526.901, 161.271 526.869, 161.174 523.582, 152.069 520.164, 143.487 516.617, 135.460 512.942, 128.024 509.141, 121.211 505.216, 115.060 501.172, 109.606 497.011, 104.887 492.738, 100.942 488.357, 97.809 483.876, 95.527 479.300, 94.135 474.637, 93.672 469.823, 93.851 465.021, 94.357 460.150, 95.865 455.218, 98.412 450.239, 102.031 445.225, 106.753 440.188, 112.608 435.144, 119.619 430.108, 127.809 425.399, 136.630 425.098, 137.194 420.851, 146.247 420.129, 147.785 416.291, 157.019 415.222, 159.590 411.745, 168.966 410.395, 172.607 407.241, 182.097 405.667, 186.831 402.804, 196.413 401.061, 202.247 398.461, 211.903 396.595, 218.834 394.236, 228.552 392.292, 236.562 390.155, 246.331 388.173, 255.393 386.241, 265.205 384.300, 275.064 384.258, 275.282 382.518, 285.129 380.779, 294.977 380.567, 296.174 379.009, 306.051 377.450, 315.929 377.122, 318.006 375.734, 327.909 374.347, 337.812 373.941, 340.707 372.716, 350.631 371.491, 360.556 371.042, 364.198 369.973, 374.140 368.904, 384.083 368.441, 388.393 367.523, 398.351 366.605, 408.308 366.154, 413.199 365.382, 423.169 364.611, 433.139 364.194, 438.518 364.052, 440.777 363.423, 450.757 362.794, 460.738 362.573, 464.244 362.085, 474.232 361.596, 484.221 361.300, 490.272 361.295, 490.421 360.950, 500.268 360.600, 510.262 360.383, 516.488 360.171, 526.485 359.958, 536.483 359.825, 542.780 359.751, 552.780 359.676, 562.780 359.630, 569.035 359.678, 576.536 359.742, 586.536 359.769, 590.726 359.797, 595.138 360.002, 605.136 360.206, 615.134 360.325, 620.979 360.672, 630.973 360.790, 634.394 361.065, 642.302 361.186, 645.785 361.209, 646.448 361.701, 656.436 361.945, 661.389 362.441, 671.441 363.083, 681.420 363.725, 691.399 364.012, 695.856 364.810, 705.824 365.608, 715.792 365.913, 719.599 366.872, 729.553 367.832, 739.506 368.128, 742.582 369.258, 752.518 370.387, 762.454 370.645, 764.724 371.953, 774.638 373.262, 784.552 373.447, 785.953 374.945, 795.840 375.638, 800.411 376.516, 806.202 378.218, 816.056 379.835, 825.414 381.757, 835.228 383.385, 843.542 385.544, 853.306 387.146, 860.546 389.565, 870.249 391.098, 876.392 393.804, 886.019 395.221, 891.058 398.247, 900.590 399.496, 904.527 402.878, 913.938 403.903, 916.791 407.687, 926.047 408.423, 927.846 412.664, 936.902 413.036, 937.698 417.725, 946.355 422.473, 953.834 427.262, 960.154 432.077, 965.337 436.903, 969.413 441.727, 972.410 446.534, 974.361 451.315, 975.302 456.126, 975.672 460.808, 975.632 465.443, 974.655 470.020, 972.777 474.531, 970.037 478.970, 966.474 483.328, 962.126 487.601, 957.031 491.782, 951.227 495.868, 944.750 499.854, 937.637 503.736, 929.922 507.512, 921.639 511.179, 912.820 514.734, 903.499 518.050, 894.065 518.177, 893.704 521.267, 884.194 521.504, 883.465 524.391, 873.891 524.716, 872.810 527.415, 863.181 527.812, 861.766 530.337, 852.090 530.790, 850.358 533.155, 840.642 533.650, 838.610 535.813, 829.094 " fill="none" stroke="rgb(0, 0, 0)" stroke-linecap="butt" stroke-linejoin="round" stroke-opacity="1.0" stroke-width="3.0" />
            <path d=" M 550.114, 750.362 550.367, 748.682 551.751, 738.778 552.285, 734.965 553.571, 725.048 554.086, 721.081 555.278, 711.152 555.771, 707.044 556.871, 697.105 557.340, 692.870 558.351, 682.922 558.793, 678.572 559.718, 668.615 560.132, 664.163 560.972, 654.198 561.355, 649.655 562.112, 639.683 562.464, 635.060 563.140, 625.083 563.458, 620.391 564.054, 610.409 564.338, 605.659 564.855, 595.672 565.104, 590.875 565.543, 580.884 565.755, 576.049 566.117, 566.055 566.293, 561.193 566.578, 551.197 566.717, 546.316 566.924, 536.319 567.026, 531.431 567.157, 521.432 567.164, 520.890 " fill="none" stroke="rgb(0, 0, 0)" stroke-linecap="butt" stroke-linejoin="round" stroke-opacity="1.0" stroke-width="3.0" />
            <path d=" M 474.637, 93.672 469.895, 94.175 465.083, 95.682 460.213, 98.228 455.295, 101.847 450.341, 106.570 445.365, 112.426 440.382, 119.440 435.406, 127.633 430.742, 136.479 430.455, 137.023 426.251, 146.096 425.545, 147.620 421.746, 156.870 420.695, 159.431 420.038, 161.225 416.598, 170.615 415.923, 172.456 412.804, 181.957 411.250, 186.689 408.419, 196.280 406.696, 202.115 404.125, 211.779 403.855, 212.797 402.281, 218.712 399.949, 228.436 399.130, 231.848 398.026, 236.452 395.913, 246.227 393.952, 255.297 392.821, 261.107 390.911, 270.922 390.079, 275.200 388.359, 285.051 386.639, 294.902 386.429, 296.107 384.887, 305.988 383.345, 315.868 383.020, 317.956 382.132, 324.361 380.759, 334.266 379.871, 340.674 378.659, 350.600 377.447, 360.527 377.001, 364.183 375.943, 374.127 374.886, 384.071 374.425, 388.398 373.517, 398.356 373.193, 401.902 372.284, 411.860 372.160, 413.223 371.395, 423.194 370.631, 433.165 370.217, 438.562 369.594, 448.543 368.971, 458.523 368.609, 464.309 368.124, 474.298 367.640, 484.286 367.345, 490.357 366.997, 500.351 366.649, 510.345 366.431, 516.594 366.220, 526.592 366.008, 536.590 365.874, 542.908 365.798, 552.907 365.722, 562.907 365.674, 569.183 365.735, 579.183 365.796, 589.183 365.833, 595.307 366.032, 605.305 366.231, 615.303 366.347, 621.168 366.687, 631.162 367.027, 641.156 367.214, 646.656 367.697, 656.645 368.180, 666.633 368.424, 671.668 369.056, 681.648 369.687, 691.628 369.970, 696.101 370.755, 706.070 371.540, 716.039 371.841, 719.861 372.786, 729.816 373.731, 739.771 374.024, 742.860 375.136, 752.798 376.249, 762.736 376.504, 765.018 377.794, 774.934 379.083, 784.851 379.266, 786.260 380.744, 796.151 381.371, 800.350 382.054, 804.919 382.293, 806.522 383.972, 816.380 385.567, 825.747 387.462, 835.566 389.056, 843.823 389.068, 843.885 390.488, 850.393 392.618, 860.164 392.779, 860.898 395.167, 870.609 396.678, 876.753 398.407, 882.988 400.748, 891.426 403.736, 900.969 404.967, 904.900 408.308, 914.326 409.316, 917.168 411.750, 923.201 413.777, 928.227 417.972, 937.305 418.331, 938.081 422.960, 946.740 427.647, 954.219 432.375, 960.538 437.130, 965.720 441.895, 969.794 446.658, 972.788 451.405, 974.736 456.126, 975.672 " fill="none" stroke="rgb(0, 0, 0)" stroke-linecap="butt" stroke-linejoin="round" stroke-opacity="1.0" stroke-width="3.0" />
            <path d=" M 565.289, 522.363 565.308, 520.857 565.309, 520.727 565.367, 519.100 565.429, 518.031 565.459, 517.509 565.586, 515.982 565.744, 514.544 565.930, 513.220 566.058, 512.504 566.143, 512.033 566.377, 511.002 566.630, 510.146 566.895, 509.478 567.170, 509.008 567.262, 508.922 567.449, 508.745 567.728, 508.692 " fill="none" stroke="rgb(0, 0, 0)" stroke-linecap="butt" stroke-linejoin="round" stroke-opacity="1.0" stroke-width="3.0" />
            <path d=" M 567.995, 520.904 567.989, 520.397 567.968, 519.911 567.933, 519.460 567.885, 519.056 567.826, 518.710 567.756, 518.431 567.679, 518.228 567.595, 518.105 567.507, 518.067 " fill="none" stroke="rgb(0, 0, 0)" stroke-linecap="butt" stroke-linejoin="round" stroke-opacity="1.0" stroke-width="3.0" />
            <path d=" M 531.284, 476.446 531.290, 482.106 531.481, 482.109 536.851, 482.177 537.059, 482.105 536.909, 476.493 531.537, 476.364 531.323, 476.434 531.284, 476.446 " fill="none" stroke="rgb(0, 0, 0)" stroke-linecap="butt" stroke-linejoin="round" stroke-opacity="1.0" stroke-width="3.0" />
            <path d=" M 536.848, 476.513 531.284, 476.446 " fill="none" stroke="rgb(0, 0, 0)" stroke-linecap="butt" stroke-linejoin="round" stroke-opacity="1.0" stroke-width="3.0" />
            <path d=" M 536.851, 482.177 536.848, 476.513 536.909, 476.493 " fill="none" stroke="rgb(0, 0, 0)" stroke-linecap="butt" stroke-linejoin="round" stroke-opacity="1.0" stroke-width="3.0" />
            <path d=" M 533.257, 478.519 533.119, 478.690 533.017, 478.884 532.954, 479.094 532.933, 479.312 532.958, 479.544 533.026, 479.758 533.133, 479.953 533.274, 480.120 533.445, 480.258 533.457, 480.266 533.648, 480.365 533.854, 480.425 533.866, 480.428 533.886, 480.431 533.912, 480.433 534.068, 480.444 534.221, 480.433 534.240, 480.431 534.249, 480.431 534.270, 480.428 " fill="none" stroke="rgb(0, 0, 0)" stroke-linecap="butt" stroke-linejoin="round" stroke-opacity="1.0" stroke-width="3.0" />
            <path d=" M 533.465, 478.351 533.425, 478.378 533.387, 478.410 533.312, 478.473 533.257, 478.519 533.338, 478.447 " fill="none" stroke="rgb(0, 0, 0)" stroke-linecap="butt" stroke-linejoin="round" stroke-opacity="1.0" stroke-width="3.0" />
            <path d=" M 534.382, 480.402 534.530, 480.347 534.670, 480.271 534.797, 480.176 534.909, 480.063 535.004, 479.935 535.080, 479.794 535.135, 479.644 535.169, 479.486 535.180, 479.325 535.169, 479.164 535.135, 479.006 535.079, 478.853 535.003, 478.711 534.908, 478.580 534.795, 478.464 534.668, 478.366 534.529, 478.287 534.380, 478.229 534.225, 478.192 534.066, 478.179 533.908, 478.188 " fill="none" stroke="rgb(0, 0, 0)" stroke-linecap="butt" stroke-linejoin="round" stroke-opacity="1.0" stroke-width="3.0" />
            <path d=" M 534.068, 480.444 534.227, 480.434 " fill="none" stroke="rgb(0, 0, 0)" stroke-linecap="butt" stroke-linejoin="round" stroke-opacity="1.0" stroke-width="3.0" />
            <path d=" M 534.227, 480.434 534.270, 480.428 534.382, 480.402 " fill="none" stroke="rgb(0, 0, 0)" stroke-linecap="butt" stroke-linejoin="round" stroke-opacity="1.0" stroke-width="3.0" />
            <path d=" M 533.908, 478.188 533.835, 478.203 533.753, 478.221 " fill="none" stroke="rgb(0, 0, 0)" stroke-linecap="butt" stroke-linejoin="round" stroke-opacity="1.0" stroke-width="3.0" />
            <path d=" M 533.753, 478.221 533.604, 478.276 533.465, 478.351 " fill="none" stroke="rgb(0, 0, 0)" stroke-linecap="butt" stroke-linejoin="round" stroke-opacity="1.0" stroke-width="3.0" />
            <path d=" M 621.815, 887.582 623.994, 888.079 631.903, 889.843 639.817, 890.857 647.716, 891.137 655.585, 890.704 663.408, 889.574 671.169, 887.768 678.854, 885.307 686.450, 882.211 693.944, 878.503 701.325, 874.204 708.583, 869.335 715.706, 863.920 722.686, 857.981 729.515, 851.538 736.184, 844.615 742.685, 837.232 749.014, 829.412 754.995, 821.398 755.162, 821.174 760.845, 812.946 761.125, 812.540 766.520, 804.120 766.898, 803.530 772.014, 794.938 772.475, 794.164 777.323, 785.418 777.853, 784.462 782.442, 775.576 783.028, 774.441 787.366, 765.431 787.996, 764.122 792.091, 754.998 792.754, 753.521 796.613, 744.296 797.299, 742.657 800.930, 733.340 801.628, 731.548 805.037, 722.147 805.740, 720.209 808.932, 710.733 809.631, 708.658 812.612, 699.113 813.300, 696.911 816.074, 687.304 816.745, 684.984 819.317, 675.320 819.963, 672.891 822.337, 663.177 822.955, 660.649 825.133, 650.889 825.717, 648.271 827.702, 638.470 828.249, 635.774 830.044, 625.936 830.549, 623.171 832.156, 613.301 832.616, 610.476 834.037, 600.577 834.450, 597.703 835.685, 587.780 836.047, 584.868 837.098, 574.923 837.409, 571.982 838.275, 562.020 838.533, 559.061 839.215, 549.084 839.418, 546.117 839.917, 536.130 840.065, 533.165 840.378, 523.170 840.470, 520.219 840.597, 510.219 840.634, 507.291 840.574, 497.291 840.556, 494.397 840.306, 484.400 840.235, 481.549 839.793, 471.559 839.669, 468.763 839.033, 458.783 838.859, 456.053 838.024, 446.088 837.802, 443.433 836.767, 433.487 836.499, 430.918 835.258, 420.995 834.949, 418.523 833.498, 408.629 833.151, 406.265 831.485, 396.404 831.105, 394.157 829.217, 384.337 828.810, 382.218 826.695, 372.444 826.266, 370.462 823.916, 360.742 823.473, 358.908 820.880, 349.250 820.430, 347.573 817.587, 337.985 817.139, 336.473 814.036, 326.967 813.599, 325.629 810.226, 316.215 809.811, 315.058 806.157, 305.749 805.776, 304.779 801.830, 295.591 801.495, 294.813 797.244, 285.761 796.971, 285.179 792.401, 276.284 792.203, 275.899 787.303, 267.182 787.196, 266.992 781.952, 258.482 776.474, 250.390 770.765, 242.738 764.831, 235.549 758.675, 228.846 752.305, 222.652 745.726, 216.991 738.944, 211.886 731.970, 207.361 724.810, 203.439 717.474, 200.144 709.974, 197.497 702.320, 195.522 694.526, 194.239 686.604, 193.671 678.571, 193.836 676.346, 194.021 " fill="none" stroke="rgb(0, 0, 0)" stroke-linecap="butt" stroke-linejoin="round" stroke-opacity="1.0" stroke-width="3.0" />
            <path d=" M 623.994, 888.079 623.874, 888.041 616.107, 885.551 608.262, 882.245 600.480, 878.148 592.781, 873.251 585.188, 867.546 577.723, 861.028 570.660, 853.948 570.408, 853.696 563.817, 846.175 563.268, 845.548 557.143, 837.644 556.327, 836.590 550.657, 828.353 549.608, 826.828 544.381, 818.303 543.135, 816.272 539.809, 810.191 537.288, 805.582 536.934, 804.936 535.900, 802.816 533.670, 798.249 531.028, 792.838 530.965, 792.692 529.608, 789.574 525.617, 780.405 525.440, 779.999 524.520, 777.619 524.061, 776.435 521.841, 770.697 520.195, 766.445 516.952, 756.985 515.313, 752.204 512.423, 742.631 510.817, 737.312 508.267, 727.642 506.728, 721.803 506.614, 721.304 504.393, 711.553 503.063, 705.719 501.160, 695.902 499.842, 689.106 498.247, 679.234 497.080, 672.009 495.785, 662.093 494.791, 654.482 493.789, 644.532 492.987, 636.577 492.272, 626.602 491.680, 618.351 491.246, 608.361 490.876, 599.865 490.719, 589.866 490.582, 581.177 490.699, 571.178 490.801, 562.352 491.189, 552.360 491.534, 543.453 492.191, 533.474 492.779, 524.543 493.248, 519.495 494.010, 511.306 494.138, 509.925 494.532, 505.688 495.727, 495.760 496.787, 486.951 498.252, 477.059 499.535, 468.395 501.272, 458.547 502.765, 450.084 504.776, 440.288 505.101, 438.705 506.463, 432.077 508.753, 422.342 510.614, 414.432 513.187, 404.769 515.201, 397.206 518.062, 387.625 520.204, 380.453 523.360, 370.964 525.603, 364.222 529.061, 354.839 531.376, 348.560 532.258, 346.392 532.620, 345.501 536.389, 336.238 537.499, 333.510 538.019, 332.349 541.732, 324.058 543.855, 319.319 543.947, 319.113 545.382, 316.199 549.799, 307.228 550.697, 305.403 551.137, 304.589 551.570, 303.787 552.661, 301.771 555.478, 296.561 555.702, 296.147 556.332, 294.981 557.721, 292.413 562.828, 283.815 564.994, 280.170 570.463, 271.798 572.488, 268.698 578.331, 260.583 580.178, 258.017 583.379, 253.996 583.380, 253.995 583.569, 253.756 588.037, 248.143 594.658, 240.649 596.038, 239.087 603.061, 231.969 604.156, 230.859 611.586, 224.165 612.366, 223.462 620.202, 217.249 620.643, 216.899 628.879, 211.227 628.963, 211.169 637.303, 206.266 645.642, 202.184 653.957, 198.912 662.230, 196.440 670.440, 194.753 677.066, 194.006 678.571, 193.836 " fill="none" stroke="rgb(0, 0, 0)" stroke-linecap="butt" stroke-linejoin="round" stroke-opacity="1.0" stroke-width="3.0" />
            <path d=" M 676.346, 194.021 668.205, 194.939 659.983, 196.625 651.700, 199.097 643.374, 202.366 635.026, 206.446 626.676, 211.345 618.435, 217.010 618.346, 217.071 610.505, 223.277 610.060, 223.628 602.624, 230.315 601.841, 231.018 594.811, 238.130 593.715, 239.239 587.086, 246.727 585.705, 248.286 581.842, 253.131 577.839, 258.151 571.988, 266.261 570.142, 268.822 564.665, 277.188 562.640, 280.282 557.526, 288.875 555.608, 292.097 555.362, 292.512 555.033, 293.119 554.954, 293.263 552.209, 298.331 550.682, 301.150 548.332, 305.488 544.866, 312.513 543.344, 315.600 541.577, 319.183 537.483, 328.306 535.259, 333.263 535.123, 333.564 531.621, 342.157 530.666, 344.501 528.996, 348.597 525.533, 357.978 523.220, 364.242 521.157, 370.434 517.996, 379.921 517.818, 380.455 517.744, 380.703 514.878, 390.283 512.812, 397.190 510.235, 406.852 508.223, 414.395 505.930, 424.129 504.070, 432.020 502.056, 441.815 500.371, 450.006 498.632, 459.854 497.141, 468.297 495.675, 478.189 494.457, 486.407 494.394, 486.831 493.198, 496.759 492.482, 502.700 492.139, 505.546 491.961, 507.468 491.899, 508.127 491.607, 511.266 491.098, 516.742 490.838, 519.538 490.745, 520.539 490.388, 524.380 489.731, 534.358 489.144, 543.268 488.758, 553.260 488.414, 562.146 488.299, 572.145 488.198, 580.950 488.357, 590.948 488.495, 599.616 488.932, 609.606 489.302, 618.082 490.021, 628.056 490.614, 636.287 491.620, 646.236 492.422, 654.172 493.721, 664.088 494.716, 671.681 496.316, 681.553 497.484, 688.760 499.393, 698.576 500.712, 705.356 502.939, 715.105 504.382, 721.423 505.678, 726.324 508.234, 735.991 508.348, 736.422 508.479, 736.917 511.376, 746.488 512.982, 751.795 516.232, 761.252 517.871, 766.022 521.071, 774.270 521.647, 775.754 523.125, 779.564 523.752, 781.002 527.751, 790.168 528.721, 792.391 528.932, 792.823 530.314, 795.646 534.636, 804.479 535.314, 805.717 536.720, 808.281 539.267, 812.926 540.846, 815.806 546.081, 824.326 547.327, 826.354 553.005, 834.586 554.056, 836.110 560.189, 844.008 561.007, 845.062 567.605, 852.576 568.157, 853.205 575.226, 860.278 575.481, 860.534 582.957, 867.048 590.560, 872.751 598.270, 877.648 606.062, 881.745 613.918, 885.052 621.815, 887.582 " fill="none" stroke="rgb(0, 0, 0)" stroke-linecap="butt" stroke-linejoin="round" stroke-opacity="1.0" stroke-width="3.0" />
            <path d=" M 788.905, 557.681 778.922, 557.102 778.174, 557.059 773.668, 555.292 764.357, 551.643 755.047, 547.994 754.358, 547.724 753.665, 547.452 752.971, 547.180 752.276, 546.907 751.581, 546.634 750.772, 546.183 750.010, 545.485 749.310, 544.553 748.688, 543.404 748.156, 542.061 747.723, 540.548 747.399, 538.895 747.189, 537.133 747.098, 535.296 747.127, 533.420 747.277, 531.540 747.544, 529.694 747.795, 528.513 747.922, 527.917 748.406, 526.244 748.562, 525.827 748.984, 524.706 749.646, 523.333 750.379, 522.152 750.711, 521.745 750.906, 521.505 750.954, 521.447 751.168, 521.184 751.997, 520.448 752.706, 519.931 753.416, 519.415 754.124, 518.899 754.831, 518.385 755.186, 518.127 756.384, 517.257 764.475, 511.380 772.566, 505.503 779.186, 500.695 " fill="none" stroke="rgb(0, 0, 0)" stroke-linecap="butt" stroke-linejoin="round" stroke-opacity="1.0" stroke-width="3.0" />
            <path d=" M 690.779, 276.604 682.463, 276.547 679.732, 276.791 675.162, 277.199 674.048, 277.299 665.557, 278.889 658.210, 280.994 657.018, 281.335 648.459, 284.646 639.908, 288.820 631.390, 293.846 623.174, 299.547 622.933, 299.714 615.139, 305.980 614.570, 306.437 607.216, 313.213 606.339, 314.022 599.431, 321.252 598.274, 322.463 591.810, 330.093 590.410, 331.745 584.380, 339.722 582.779, 341.841 577.168, 350.118 575.408, 352.714 570.199, 361.250 568.945, 363.305 568.544, 363.961 568.323, 364.324 565.447, 369.561 563.036, 373.950 561.558, 376.642 560.441, 378.908 559.856, 380.095 558.836, 382.166 555.639, 388.656 555.153, 389.642 554.046, 392.155 553.438, 393.535 551.816, 397.218 549.143, 403.288 545.495, 412.598 545.346, 412.980 543.717, 417.136 543.562, 417.531 540.366, 426.747 538.435, 432.316 535.518, 441.881 533.781, 447.580 531.210, 457.244 530.714, 459.110 529.610, 463.256 527.379, 473.004 525.941, 479.283 524.052, 489.103 522.801, 495.602 521.763, 502.239 520.214, 512.148 519.993, 513.981 519.835, 515.290 519.600, 517.237 519.348, 519.319 518.869, 523.285 518.851, 523.440 518.197, 528.854 517.897, 532.349 517.043, 542.312 516.758, 545.645 516.247, 555.632 515.897, 562.451 515.724, 572.450 515.607, 579.202 515.770, 589.200 515.878, 595.903 516.364, 605.892 516.680, 612.402 517.494, 622.368 518.005, 628.628 518.360, 631.694 519.510, 641.628 519.839, 644.467 519.844, 644.515 521.340, 654.402 522.187, 659.999 524.038, 669.826 525.017, 675.019 525.318, 676.345 527.538, 686.095 528.317, 689.520 530.918, 699.176 532.069, 703.446 532.952, 706.254 533.164, 706.930 533.624, 708.394 534.950, 712.612 535.707, 715.020 536.251, 716.750 539.664, 726.150 540.422, 728.238 540.840, 729.389 541.838, 731.785 542.210, 732.677 543.596, 736.006 545.810, 741.321 546.402, 742.565 547.278, 744.404 547.828, 745.561 550.114, 750.362 551.137, 752.512 555.908, 761.301 556.794, 762.932 562.057, 771.435 562.752, 772.557 568.527, 780.721 568.984, 781.366 575.288, 789.129 575.461, 789.341 582.155, 796.474 589.036, 802.756 596.078, 808.183 603.253, 812.756 610.533, 816.480 612.838, 817.383 617.892, 819.363 625.305, 821.413 632.748, 822.644 640.197, 823.073 647.629, 822.716 655.023, 821.592 662.360, 819.724 669.619, 817.134 676.783, 813.845 683.835, 809.881 690.760, 805.269 697.542, 800.034 704.168, 794.202 710.625, 787.800 716.902, 780.856 722.988, 773.395 728.872, 765.445 734.464, 757.154 734.546, 757.031 739.794, 748.519 740.001, 748.182 744.918, 739.474 745.230, 738.922 749.828, 730.042 750.224, 729.278 754.517, 720.246 754.979, 719.275 758.977, 710.109 759.488, 708.938 763.201, 699.653 763.745, 698.292 767.183, 688.902 767.746, 687.362 770.917, 677.878 771.487, 676.172 774.397, 666.605 774.963, 664.745 777.619, 655.105 778.170, 653.105 780.578, 643.399 781.106, 641.275 783.271, 631.512 783.767, 629.277 785.693, 619.465 786.151, 617.135 787.841, 607.279 788.254, 604.870 789.711, 594.977 790.075, 592.504 791.301, 582.580 791.612, 580.060 792.607, 570.110 792.863, 567.560 793.628, 557.589 793.825, 555.024 794.361, 545.039 794.499, 542.476 794.653, 537.452 " fill="none" stroke="rgb(0, 0, 0)" stroke-linecap="butt" stroke-linejoin="round" stroke-opacity="1.0" stroke-width="3.0" />
            <path d=" M 779.186, 500.695 789.146, 501.589 789.947, 501.660 " fill="none" stroke="rgb(0, 0, 0)" stroke-linecap="butt" stroke-linejoin="round" stroke-opacity="1.0" stroke-width="3.0" />
            <path d=" M 824.644, 517.103 824.461, 507.105 824.458, 506.916 824.008, 496.926 823.895, 494.407 823.171, 484.433 822.995, 481.997 821.991, 472.047 821.955, 471.685 821.756, 469.711 820.470, 459.794 820.181, 457.572 818.609, 447.696 818.276, 445.600 816.417, 435.774 816.046, 433.813 813.891, 424.048 813.491, 422.238 811.023, 412.547 810.605, 410.904 807.809, 401.303 807.385, 399.844 804.249, 390.348 803.832, 389.084 800.345, 379.712 799.950, 378.652 796.103, 369.422 795.747, 368.568 791.534, 359.499 791.233, 358.850 786.643, 349.965 786.413, 349.518 781.425, 340.850 781.287, 340.610 775.859, 332.163 770.132, 324.210 764.116, 316.780 757.822, 309.896 751.263, 303.574 744.452, 297.830 737.399, 292.697 730.115, 288.219 722.613, 284.429 719.216, 283.074 714.909, 281.356 707.022, 279.020 698.972, 277.435 690.779, 276.604 " fill="none" stroke="rgb(0, 0, 0)" stroke-linecap="butt" stroke-linejoin="round" stroke-opacity="1.0" stroke-width="3.0" />
            <path d=" M 658.210, 280.994 663.372, 283.549 669.480, 287.357 675.405, 291.835 681.135, 296.947 686.664, 302.651 691.984, 308.914 697.084, 315.719 701.956, 323.049 706.589, 330.883 710.979, 339.191 715.122, 347.942 719.016, 357.098 722.591, 366.437 722.662, 366.624 725.912, 376.081 726.056, 376.498 728.990, 386.058 729.189, 386.707 731.820, 396.354 732.058, 397.227 734.397, 406.949 734.658, 408.035 736.720, 417.820 736.990, 419.104 738.789, 428.941 739.056, 430.405 740.606, 440.284 740.861, 441.908 742.172, 451.822 742.406, 453.589 743.480, 463.531 743.685, 465.430 744.526, 475.395 744.696, 477.414 745.306, 487.395 745.436, 489.518 745.821, 499.511 745.906, 501.720 746.009, 507.916 745.878, 509.144 745.691, 510.350 745.448, 511.522 745.152, 512.649 744.807, 513.718 744.415, 514.718 743.982, 515.638 743.510, 516.469 743.006, 517.203 742.475, 517.830 741.921, 518.346 741.352, 518.744 740.772, 519.020 740.188, 519.172 732.906, 520.319 " fill="none" stroke="rgb(0, 0, 0)" stroke-linecap="butt" stroke-linejoin="round" stroke-opacity="1.0" stroke-width="3.0" />
            <path d=" M 800.272, 535.911 801.100, 535.964 803.242, 536.102 812.983, 534.291 814.934, 533.928 822.741, 532.477 824.591, 532.133 824.700, 532.116 830.728, 531.198 830.811, 521.198 830.838, 517.978 830.661, 507.979 830.604, 504.810 830.162, 494.820 830.025, 491.716 829.314, 481.742 829.099, 478.722 828.114, 468.771 827.825, 465.850 826.561, 455.930 826.204, 453.125 824.655, 443.246 824.235, 440.572 822.393, 430.743 821.919, 428.215 819.776, 418.447 819.257, 416.079 816.804, 406.385 816.249, 404.192 814.392, 397.758 812.897, 392.577 809.792, 383.072 809.202, 381.265 807.883, 377.672 805.168, 370.279 801.365, 361.030 800.797, 359.649 796.626, 350.560 796.094, 349.402 791.538, 340.500 791.061, 339.567 786.108, 330.880 785.705, 330.173 783.093, 326.065 780.032, 321.249 777.374, 317.508 774.047, 312.825 767.760, 304.931 761.178, 297.596 754.311, 290.850 747.171, 284.724 739.770, 279.247 732.121, 274.447 724.239, 270.355 716.141, 266.999 707.844, 264.404 699.367, 262.595 690.733, 261.600 681.962, 261.441 671.963, 261.285 662.160, 261.132 " fill="none" stroke="rgb(0, 0, 0)" stroke-linecap="butt" stroke-linejoin="round" stroke-opacity="1.0" stroke-width="3.0" />
            <path d=" M 681.962, 261.441 675.048, 261.982 673.079, 262.136 664.109, 263.704 662.033, 264.270 655.080, 266.164 646.020, 269.526 636.959, 273.799 634.155, 275.411 634.149, 275.415 627.929, 278.991 619.667, 284.625 618.962, 285.105 611.126, 291.318 610.091, 292.138 602.692, 298.865 601.352, 300.083 594.393, 307.264 592.779, 308.930 586.260, 316.513 584.409, 318.666 578.322, 326.600 576.277, 329.266 570.615, 337.509 568.419, 340.706 566.170, 344.358 565.705, 345.112 561.345, 352.190 560.872, 352.958 558.680, 356.923 557.089, 359.801 553.671, 365.982 551.542, 370.275 549.936, 373.514 546.849, 379.738 542.793, 388.879 540.441, 394.180 538.309, 399.571 534.632, 408.870 534.478, 409.258 531.171, 418.695 528.991, 424.914 526.045, 434.471 524.006, 441.089 521.417, 450.748 519.549, 457.718 517.313, 467.465 515.645, 474.735 513.756, 484.555 512.311, 492.067 510.767, 501.948 509.565, 509.643 508.929, 514.909 507.730, 524.837 507.422, 527.388 506.566, 537.351 505.890, 545.224 505.379, 555.211 504.977, 563.076 504.813, 573.074 504.685, 580.866 " fill="none" stroke="rgb(0, 0, 0)" stroke-linecap="butt" stroke-linejoin="round" stroke-opacity="1.0" stroke-width="3.0" />
            <path d=" M 756.384, 517.257 756.377, 514.715 756.438, 511.906 756.392, 512.127 756.098, 513.259 755.754, 514.333 755.365, 515.338 754.934, 516.263 754.466, 517.099 753.965, 517.836 753.437, 518.467 752.888, 518.985 752.323, 519.385 751.747, 519.664 751.167, 519.817 750.962, 519.850 742.578, 521.194 734.090, 522.554 733.550, 521.362 733.060, 520.562 732.924, 520.341 732.906, 520.319 732.222, 519.508 731.455, 518.878 730.636, 518.463 729.779, 518.268 719.796, 517.684 718.620, 517.615 717.733, 517.645 716.837, 517.899 715.948, 518.374 715.113, 519.063 714.828, 519.398 714.350, 519.958 713.640, 521.040 712.993, 522.291 712.421, 523.691 711.935, 525.215 711.542, 526.837 711.250, 528.531 711.063, 530.266 710.985, 532.012 720.964, 532.661 722.187, 532.740 727.028, 531.941 727.058, 531.386 727.081, 531.211 727.131, 530.838 727.244, 530.314 727.396, 529.826 727.581, 529.390 727.625, 529.313 727.795, 529.016 728.031, 528.715 728.284, 528.495 728.546, 528.362 728.810, 528.319 " fill="none" stroke="rgb(0, 0, 0)" stroke-linecap="butt" stroke-linejoin="round" stroke-opacity="1.0" stroke-width="3.0" />
            <path d=" M 805.659, 524.358 807.949, 523.948 808.465, 523.804 808.977, 523.552 809.483, 523.193 809.977, 522.734 810.456, 522.179 810.915, 521.532 811.353, 520.800 811.764, 519.989 812.147, 519.105 812.498, 518.155 812.815, 517.147 813.094, 516.089 813.334, 514.987 813.420, 514.496 813.533, 513.852 823.094, 516.650 824.644, 517.103 824.470, 517.801 824.156, 518.814 823.807, 519.769 823.427, 520.657 823.042, 521.427 823.019, 521.473 822.585, 522.209 822.129, 522.859 821.655, 523.417 821.165, 523.879 820.664, 524.240 820.157, 524.494 819.646, 524.639 813.543, 525.754 806.992, 526.950 806.490, 525.723 805.904, 524.674 805.659, 524.358 805.243, 523.819 804.519, 523.173 803.743, 522.749 802.929, 522.552 800.250, 522.395 799.245, 522.336 791.058, 521.857 790.248, 521.891 790.212, 521.892 789.356, 522.158 789.103, 522.304 788.503, 522.651 787.705, 523.367 786.977, 524.293 786.297, 525.412 785.677, 526.706 785.127, 528.152 784.657, 529.726 784.275, 531.401 783.988, 533.149 783.800, 534.939 783.715, 536.740 789.766, 537.134 789.968, 537.147 794.653, 537.452 795.638, 537.516 800.078, 536.690 800.217, 536.664 800.249, 536.091 800.272, 535.911 800.321, 535.526 800.432, 534.984 800.578, 534.481 800.756, 534.030 800.960, 533.643 800.999, 533.590 801.181, 533.338 801.186, 533.332 801.426, 533.103 801.674, 532.965 801.924, 532.919 " fill="none" stroke="rgb(0, 0, 0)" stroke-linecap="butt" stroke-linejoin="round" stroke-opacity="1.0" stroke-width="3.0" />
            <path d=" M 773.668, 555.292 772.893, 565.262 772.859, 565.697 771.846, 575.646 771.599, 578.069 770.347, 587.990 770.045, 590.382 768.553, 600.271 768.200, 602.617 766.467, 612.466 766.066, 614.750 764.090, 624.553 763.645, 626.759 761.422, 636.509 760.940, 638.623 758.468, 648.313 757.956, 650.319 755.229, 659.940 754.695, 661.824 751.707, 671.368 751.160, 673.116 747.906, 682.572 747.356, 684.171 743.830, 693.528 743.288, 694.966 739.481, 704.213 738.960, 705.477 734.863, 714.599 734.377, 715.680 729.981, 724.661 729.546, 725.550 724.840, 734.373 724.472, 735.063 719.445, 743.708 719.163, 744.194 713.802, 752.636 713.625, 752.916 707.867, 761.205 701.898, 769.035 695.727, 776.378 689.364, 783.209 682.821, 789.503 676.110, 795.232 669.243, 800.370 662.235, 804.892 655.100, 808.772 647.855, 811.986 640.517, 814.507 633.104, 816.316 625.635, 817.390 618.130, 817.706 612.838, 817.383 " fill="none" stroke="rgb(0, 0, 0)" stroke-linecap="butt" stroke-linejoin="round" stroke-opacity="1.0" stroke-width="3.0" />
            <path d=" M 789.968, 537.147 789.817, 542.099 789.233, 552.082 788.905, 557.681 779.609, 553.993 778.383, 553.507 773.907, 551.732 765.842, 548.532 765.156, 548.260 764.468, 547.987 763.779, 547.714 763.090, 547.440 762.289, 546.988 761.535, 546.287 760.842, 545.351 760.227, 544.197 759.701, 542.848 759.273, 541.328 758.954, 539.667 758.747, 537.897 758.706, 537.027 758.659, 536.051 758.690, 534.165 758.840, 532.277 759.106, 530.421 759.147, 530.228 759.484, 528.635 759.852, 527.344 759.964, 526.953 760.539, 525.408 761.196, 524.028 761.924, 522.840 762.708, 521.867 763.530, 521.126 764.233, 520.606 764.937, 520.087 765.639, 519.569 766.341, 519.051 766.693, 518.792 774.744, 512.861 779.401, 509.430 787.452, 503.499 789.947, 501.660 790.179, 511.658 790.211, 513.057 790.275, 517.658 790.248, 521.891 " fill="none" stroke="rgb(0, 0, 0)" stroke-linecap="butt" stroke-linejoin="round" stroke-opacity="1.0" stroke-width="3.0" />
            <path d=" M 764.703, 537.421 764.388, 537.331 764.095, 537.095 763.839, 536.723 763.629, 536.233 763.477, 535.646 763.387, 534.987 763.365, 534.285 763.411, 533.571 763.523, 532.876 763.697, 532.232 763.924, 531.665 764.194, 531.201 764.496, 530.861 764.817, 530.659 765.141, 530.604 " fill="none" stroke="rgb(0, 0, 0)" stroke-linecap="butt" stroke-linejoin="round" stroke-opacity="1.0" stroke-width="3.0" />
            <path d=" M 765.141, 530.604 765.456, 530.697 765.748, 530.935 766.003, 531.307 766.211, 531.797 766.363, 532.383 766.452, 533.040 766.474, 533.740 766.428, 534.451 766.316, 535.143 766.144, 535.786 765.918, 536.352 765.649, 536.816 765.347, 537.157 765.027, 537.362 764.703, 537.421 " fill="none" stroke="rgb(0, 0, 0)" stroke-linecap="butt" stroke-linejoin="round" stroke-opacity="1.0" stroke-width="3.0" />
            <path d=" M 800.078, 536.690 799.911, 542.102 799.374, 552.088 799.204, 555.237 798.438, 565.208 798.196, 568.358 797.201, 578.308 796.888, 581.444 795.664, 591.368 795.281, 594.472 793.827, 604.365 793.377, 607.420 791.691, 617.277 791.180, 620.267 789.258, 630.081 788.689, 632.990 786.530, 642.754 785.908, 645.566 783.507, 655.273 782.839, 657.972 780.191, 667.615 779.486, 670.185 776.585, 679.755 775.850, 682.180 772.691, 691.668 771.937, 693.935 768.512, 703.330 767.749, 705.424 764.050, 714.715 763.291, 716.623 759.309, 725.796 758.568, 727.504 754.293, 736.545 753.584, 738.044 749.006, 746.935 748.347, 748.216 743.453, 756.937 742.861, 757.992 737.639, 766.520 737.135, 767.345 731.572, 775.655 731.175, 776.248 725.257, 784.309 724.991, 784.673 718.704, 792.449 718.591, 792.589 711.986, 799.970 705.187, 806.788 698.206, 813.012 691.055, 818.614 683.750, 823.565 676.305, 827.839 668.737, 831.406 661.064, 834.239 653.303, 836.314 645.476, 837.605 637.604, 838.088 629.708, 837.741 621.814, 836.548 613.945, 834.487 606.129, 831.543 598.391, 827.708 590.759, 822.970 583.265, 817.323 575.935, 810.766 569.025, 803.537 568.801, 803.302 562.433, 795.592 561.893, 794.938 556.057, 786.817 555.242, 785.682 549.922, 777.214 548.878, 775.553 546.791, 771.762 544.389, 767.399 542.925, 764.741 542.833, 764.572 538.487, 755.566 538.160, 754.890 537.135, 752.765 536.725, 751.794 532.836, 742.581 531.815, 740.161 531.788, 740.088 528.984, 732.464 526.900, 726.798 523.865, 717.270 522.416, 712.719 519.783, 703.072 518.390, 697.970 516.143, 688.226 514.846, 682.601 513.560, 675.869 511.803, 666.672 510.285, 656.788 509.280, 650.242 508.112, 640.310 507.296, 633.376 506.467, 623.410 505.862, 616.142 505.365, 606.155 504.989, 598.614 504.818, 588.616 504.685, 580.866 502.667, 571.071 500.807, 562.045 " fill="none" stroke="rgb(0, 0, 0)" stroke-linecap="butt" stroke-linejoin="round" stroke-opacity="1.0" stroke-width="3.0" />
            <path d=" M 662.160, 261.132 656.401, 261.600 654.118, 261.786 645.991, 263.310 637.803, 265.724 629.581, 269.041 621.352, 273.270 613.144, 278.418 605.124, 284.391 604.987, 284.492 597.430, 291.040 596.912, 291.488 589.820, 298.538 588.951, 299.401 582.319, 306.886 581.135, 308.222 574.955, 316.084 573.498, 317.937 567.756, 326.124 566.074, 328.523 564.043, 331.757 563.533, 332.570 560.076, 338.075 558.895, 339.956 557.358, 342.685 555.777, 345.492 551.996, 352.205 550.151, 355.854 548.559, 359.005 545.409, 365.235 541.279, 374.342 539.165, 379.002 536.888, 384.612 533.297, 393.460 529.895, 402.863 527.835, 408.558 524.781, 418.080 522.806, 424.238 520.090, 433.862 518.235, 440.438 515.852, 450.150 514.149, 457.095 512.093, 466.881 510.568, 474.139 508.833, 483.988 507.510, 491.499 506.094, 501.398 504.992, 509.099 504.367, 514.750 503.268, 524.689 503.028, 526.865 502.245, 536.834 501.626, 544.719 501.154, 554.708 500.807, 562.045 498.980, 571.877 497.295, 580.949 " fill="none" stroke="rgb(0, 0, 0)" stroke-linecap="butt" stroke-linejoin="round" stroke-opacity="1.0" stroke-width="3.0" />
            <path d=" M 497.620, 599.271 498.125, 609.258 498.534, 617.361 499.372, 627.326 500.030, 635.142 501.209, 645.073 502.096, 652.540 503.626, 662.422 504.719, 669.480 506.610, 679.300 507.880, 685.897 510.145, 695.637 510.553, 697.393 511.561, 701.726 514.214, 711.367 515.738, 716.907 518.795, 726.428 520.388, 731.388 523.866, 740.763 525.482, 745.120 526.417, 747.316 529.302, 754.091 530.993, 758.061 534.405, 765.066 535.843, 768.018 536.892, 770.172 540.789, 777.181 542.243, 779.796 543.147, 781.422 544.732, 783.918 549.727, 791.786 555.607, 799.875 556.601, 801.243 563.016, 808.914 563.736, 809.775 570.695, 816.956 571.100, 817.375 578.661, 824.036 586.388, 829.757 594.251, 834.540 602.219, 838.395 610.263, 841.331 618.357, 843.361 626.474, 844.502 634.586, 844.774 642.672, 844.199 650.707, 842.797 658.671, 840.596 666.542, 837.622 674.302, 833.901 681.934, 829.461 689.420, 824.332 696.745, 818.544 703.896, 812.123 710.859, 805.100 717.510, 797.633 717.622, 797.507 723.894, 789.719 724.174, 789.371 730.080, 781.302 730.505, 780.721 736.060, 772.405 736.606, 771.587 741.822, 763.054 742.469, 761.997 747.359, 753.274 748.085, 751.978 752.661, 743.087 753.447, 741.559 757.721, 732.519 758.550, 730.767 762.533, 721.595 763.387, 719.629 767.088, 710.339 767.953, 708.169 771.381, 698.775 772.242, 696.415 775.406, 686.928 776.253, 684.391 779.159, 674.823 779.979, 672.123 782.632, 662.481 783.416, 659.633 785.824, 649.927 786.563, 646.946 788.729, 637.184 789.416, 634.087 791.344, 624.275 791.972, 621.078 793.664, 611.222 794.228, 607.941 795.688, 598.048 796.182, 594.700 797.411, 584.776 797.832, 581.378 798.832, 571.428 799.176, 567.996 799.946, 558.025 800.212, 554.577 800.753, 544.591 800.939, 541.143 801.100, 535.964 " fill="none" stroke="rgb(0, 0, 0)" stroke-linecap="butt" stroke-linejoin="round" stroke-opacity="1.0" stroke-width="3.0" />
            <path d=" M 497.295, 580.949 497.472, 590.948 497.620, 599.271 " fill="none" stroke="rgb(0, 0, 0)" stroke-linecap="butt" stroke-linejoin="round" stroke-opacity="1.0" stroke-width="3.0" />
            <path d=" M 814.392, 397.758 813.536, 393.453 811.353, 383.694 811.075, 382.451 808.653, 372.749 808.378, 371.647 805.709, 362.010 805.445, 361.057 802.520, 351.494 802.277, 350.698 799.087, 341.220 798.874, 340.587 795.407, 331.207 795.236, 330.745 791.479, 321.478 791.364, 321.193 787.305, 312.053 787.258, 311.948 782.924, 303.028 778.362, 294.451 773.577, 286.234 768.572, 278.397 763.350, 270.960 757.915, 263.947 752.271, 257.380 746.423, 251.284 740.376, 245.679 734.139, 240.582 727.719, 236.012 721.124, 231.989 714.362, 228.532 707.444, 225.664 700.379, 223.407 693.178, 221.784 685.855, 220.816 678.422, 220.518 670.893, 220.904 670.401, 220.975 663.284, 221.987 655.609, 223.779 647.887, 226.293 640.133, 229.543 632.369, 233.539 624.613, 238.293 616.887, 243.812 609.212, 250.093 601.874, 256.886 601.608, 257.132 600.717, 258.057 600.692, 258.083 600.666, 258.110 594.097, 264.925 589.736, 269.962 586.702, 273.465 580.542, 281.342 580.143, 281.851 579.446, 282.743 573.662, 290.901 572.353, 292.748 566.938, 301.155 565.448, 303.468 560.392, 312.096 560.267, 312.309 559.691, 313.292 558.756, 314.886 557.868, 316.551 555.135, 321.673 553.585, 324.576 552.302, 326.980 548.790, 334.201 547.947, 335.936 546.394, 339.129 546.108, 339.718 542.058, 348.862 540.193, 353.071 536.457, 362.347 534.852, 366.331 534.581, 367.003 531.150, 376.396 529.292, 381.480 526.159, 390.976 524.348, 396.463 521.506, 406.050 519.769, 411.910 517.214, 421.578 515.576, 427.778 513.304, 437.517 511.787, 444.020 509.790, 453.819 508.411, 460.582 506.686, 470.432 505.464, 477.412 504.008, 487.306 502.955, 494.457 501.768, 504.387 500.898, 511.662 500.460, 516.398 499.541, 526.355 499.299, 528.971 498.646, 538.950 498.164, 546.326 497.778, 556.319 497.495, 563.671 497.379, 573.671 497.295, 580.949 497.452, 590.948 497.564, 598.103 497.620, 599.271 498.048, 609.261 498.298, 615.078 499.009, 625.053 499.491, 631.820 500.487, 641.770 501.138, 648.275 502.425, 658.192 503.230, 664.394 504.816, 674.267 505.756, 680.127 507.647, 689.946 508.703, 695.430 509.979, 701.075 512.055, 710.259 514.585, 719.934 515.798, 724.576 518.667, 734.155 519.920, 738.337 523.140, 747.804 524.401, 751.510 525.226, 753.659 527.986, 760.852 529.220, 764.066 532.974, 772.774 534.341, 775.946 534.356, 775.980 538.705, 784.985 539.187, 785.984 539.788, 787.229 540.596, 788.724 543.056, 793.277 545.496, 797.792 550.670, 806.349 551.458, 807.652 557.070, 815.929 557.655, 816.792 563.720, 824.743 564.066, 825.197 570.595, 832.771 570.670, 832.859 577.443, 839.777 584.363, 845.951 591.407, 851.386 598.557, 856.083 605.791, 860.047 613.092, 863.284 620.442, 865.799 626.219, 867.208 627.822, 867.599 635.215, 868.700 642.603, 869.118 649.971, 868.873 657.302, 867.981 664.583, 866.459 671.801, 864.325 678.942, 861.594 685.995, 858.281 692.949, 854.404 699.793, 849.985 706.516, 845.048 713.111, 839.614 719.567, 833.704 725.879, 827.337 732.038, 820.533 738.036, 813.308 743.868, 805.678 749.528, 797.663 755.009, 789.284 760.202, 780.738 760.309, 780.562 765.230, 771.857 765.422, 771.517 770.081, 762.668 770.345, 762.166 774.750, 753.188 775.075, 752.526 779.233, 743.432 779.607, 742.615 783.525, 733.414 783.937, 732.446 787.621, 723.149 788.062, 722.036 791.517, 712.652 791.978, 711.400 795.213, 701.937 795.685, 700.556 798.705, 691.023 799.181, 689.522 801.992, 679.925 802.464, 678.313 805.069, 668.659 805.532, 666.944 807.936, 657.238 808.384, 655.430 810.588, 645.676 811.016, 643.783 813.023, 633.987 813.426, 632.018 815.238, 622.184 815.613, 620.149 817.233, 610.282 817.576, 608.192 819.007, 598.294 819.316, 596.159 820.558, 586.237 820.830, 584.065 821.884, 574.121 822.117, 571.924 822.982, 561.961 823.175, 559.748 823.853, 549.771 824.003, 547.552 824.494, 537.564 824.602, 535.349 824.700, 532.116 " fill="none" stroke="rgb(0, 0, 0)" stroke-linecap="butt" stroke-linejoin="round" stroke-opacity="1.0" stroke-width="3.0" />
            <path d=" M 668.655, 221.064 661.036, 222.147 653.351, 223.938 645.619, 226.451 637.856, 229.699 630.082, 233.692 622.317, 238.442 614.582, 243.956 606.899, 250.232 599.554, 257.018 599.287, 257.265 598.844, 257.723 598.734, 257.837 598.700, 257.872 591.768, 265.050 585.214, 272.604 584.365, 273.582 583.925, 274.144 577.757, 282.015 577.102, 282.850 573.661, 287.695 570.002, 292.845 564.580, 301.248 563.091, 303.554 559.667, 309.385 559.079, 310.388 557.483, 313.105 556.394, 314.960 554.708, 318.114 553.174, 320.983 549.935, 327.041 547.470, 332.100 545.928, 335.265 543.735, 339.766 539.679, 348.906 537.816, 353.103 537.704, 353.383 534.307, 361.799 532.200, 367.020 528.764, 376.411 526.908, 381.481 523.769, 390.976 521.961, 396.447 519.115, 406.033 517.380, 411.876 514.821, 421.543 513.185, 427.727 510.909, 437.464 509.394, 443.950 507.394, 453.748 506.018, 460.493 504.290, 470.343 503.070, 477.304 501.612, 487.197 500.561, 494.329 499.373, 504.258 498.504, 511.514 497.954, 517.474 497.034, 527.432 496.907, 528.803 496.254, 538.782 495.773, 546.139 495.389, 556.131 495.107, 563.464 494.992, 573.463 494.909, 580.722 495.068, 590.721 495.181, 597.857 495.615, 607.848 495.918, 614.813 496.633, 624.788 497.116, 631.536 498.116, 641.486 498.767, 647.974 500.059, 657.890 500.864, 664.075 502.454, 673.948 503.395, 679.791 505.292, 689.610 506.348, 695.078 508.558, 704.831 509.053, 707.013 509.706, 709.893 512.242, 719.566 513.455, 724.195 516.331, 733.772 517.584, 737.943 520.811, 747.408 522.072, 751.103 524.514, 757.450 526.898, 763.648 527.271, 764.512 531.238, 773.691 532.042, 775.551 532.324, 776.133 533.742, 779.062 537.482, 786.790 538.634, 788.918 540.065, 791.560 542.531, 796.113 543.198, 797.345 548.381, 805.897 549.169, 807.198 554.789, 815.469 555.374, 816.331 561.447, 824.275 561.795, 824.730 568.331, 832.298 568.408, 832.387 575.190, 839.301 582.119, 845.473 589.174, 850.905 596.333, 855.601 603.577, 859.565 610.888, 862.803 618.247, 865.319 625.638, 867.122 " fill="none" stroke="rgb(0, 0, 0)" stroke-linecap="butt" stroke-linejoin="round" stroke-opacity="1.0" stroke-width="3.0" />
            <path d=" M 670.893, 220.904 668.655, 221.064 " fill="none" stroke="rgb(0, 0, 0)" stroke-linecap="butt" stroke-linejoin="round" stroke-opacity="1.0" stroke-width="3.0" />
            <path d=" M 625.638, 867.122 627.822, 867.599 " fill="none" stroke="rgb(0, 0, 0)" stroke-linecap="butt" stroke-linejoin="round" stroke-opacity="1.0" stroke-width="3.0" />
            <path d=" M 479.072, 581.250 479.239, 591.249 479.400, 600.900 479.846, 610.890 480.268, 620.335 480.999, 630.309 481.672, 639.490 482.692, 649.438 483.602, 658.302 484.918, 668.215 486.046, 676.710 487.665, 686.578 488.991, 694.656 490.922, 704.467 492.422, 712.085 494.675, 721.828 496.321, 728.948 498.906, 738.608 500.668, 745.196 501.410, 747.617 503.248, 753.617 505.444, 760.787 508.729, 770.232 509.526, 772.524 510.624, 775.681 514.280, 784.989 516.188, 789.845 516.268, 790.027 517.041, 791.777 518.433, 794.928 519.698, 797.790 519.756, 797.922 522.108, 803.247 525.157, 809.396 526.531, 812.168 527.592, 814.308 528.362, 815.861 528.970, 816.955 531.754, 821.964 533.014, 824.231 533.148, 824.473 534.923, 827.665 535.813, 829.094 541.103, 837.580 541.765, 838.642 547.501, 846.834 548.863, 848.778 555.057, 856.628 556.189, 858.063 562.852, 865.520 563.720, 866.490 570.856, 873.496 571.428, 874.058 579.035, 880.549 579.289, 880.766 587.278, 886.618 595.372, 891.621 603.547, 895.784 611.781, 899.118 620.053, 901.638 624.385, 902.655 632.651, 904.369 640.916, 905.300 649.160, 905.465 657.366, 904.884 665.517, 903.580 673.598, 901.572 681.594, 898.884 689.492, 895.539 697.279, 891.559 704.943, 886.969 712.474, 881.792 719.861, 876.051 727.096, 869.771 734.168, 862.974 741.072, 855.683 747.622, 848.126 747.799, 847.922 754.032, 840.102 754.343, 839.712 760.270, 831.658 760.698, 831.076 766.329, 822.812 766.858, 822.035 772.204, 813.584 772.819, 812.611 777.890, 803.992 778.576, 802.824 783.381, 794.054 784.126, 792.694 788.673, 783.788 789.463, 782.242 793.763, 773.213 794.586, 771.485 798.645, 762.346 799.490, 760.443 803.316, 751.204 804.174, 749.135 807.774, 739.805 808.634, 737.577 812.015, 728.166 812.869, 725.787 816.036, 716.302 816.876, 713.783 819.834, 704.230 820.655, 701.579 823.408, 691.966 824.202, 689.194 826.754, 679.525 827.516, 676.641 829.872, 666.923 830.596, 663.937 832.759, 654.174 833.441, 651.097 835.413, 641.294 836.049, 638.135 837.833, 628.296 838.418, 625.066 840.016, 615.195 840.549, 611.905 841.963, 602.005 842.439, 598.665 843.669, 588.741 844.089, 585.360 845.136, 575.415 845.495, 572.005 846.360, 562.042 846.658, 558.613 847.341, 548.636 847.577, 545.197 848.078, 535.210 848.250, 531.773 848.568, 521.778 848.677, 518.353 848.810, 508.354 848.856, 504.951 848.804, 494.952 848.786, 491.582 848.547, 481.585 848.467, 478.259 848.038, 468.268 847.898, 464.997 847.277, 455.016 847.077, 451.810 846.261, 441.843 846.004, 438.713 844.989, 428.765 844.678, 425.721 843.459, 415.795 843.097, 412.849 841.671, 402.951 841.262, 400.112 839.623, 390.247 839.171, 387.528 837.314, 377.702 836.824, 375.111 834.742, 365.330 834.221, 362.880 831.907, 353.151 831.360, 350.851 828.807, 341.182 828.242, 339.042 825.442, 329.442 824.867, 327.471 821.810, 317.950 821.234, 316.157 817.911, 306.726 817.345, 305.120 813.745, 295.790 813.200, 294.378 809.311, 285.166 808.799, 283.954 804.609, 274.874 804.144, 273.866 799.641, 264.938 799.237, 264.138 794.406, 255.382 794.080, 254.791 788.907, 246.232 788.674, 245.847 783.146, 237.514 783.024, 237.329 777.132, 229.262 771.003, 221.669 764.641, 214.574 758.053, 208.002 751.243, 201.978 744.219, 196.526 736.989, 191.674 729.562, 187.444 721.947, 183.862 714.154, 180.954 706.196, 178.742 698.086, 177.251 689.836, 176.504 681.463, 176.523 677.035, 176.924 668.531, 177.731 659.938, 179.342 651.273, 181.774 642.557, 185.045 633.810, 189.166 625.055, 194.150 616.747, 199.716 616.315, 200.006 608.406, 206.126 607.614, 206.739 600.113, 213.351 598.978, 214.352 591.885, 221.401 590.433, 222.844 583.745, 230.279 582.005, 232.213 575.715, 239.987 573.722, 242.450 569.730, 247.910 569.665, 247.999 569.642, 248.030 565.612, 253.542 560.088, 261.878 557.704, 265.475 552.547, 274.043 552.423, 274.249 551.310, 276.097 550.555, 277.350 550.026, 278.229 549.436, 279.307 549.388, 279.395 547.944, 282.033 546.740, 284.231 544.942, 287.515 543.438, 290.261 542.607, 291.779 541.878, 293.242 540.386, 296.237 535.927, 305.188 535.475, 306.096 534.438, 308.384 532.980, 311.603 528.854, 320.712 528.657, 321.147 528.366, 321.854 524.564, 331.103 522.182, 336.895 519.908, 343.005 516.419, 352.377 516.076, 353.299 512.892, 362.778 510.363, 370.311 507.478, 379.886 505.068, 387.883 502.475, 397.541 500.214, 405.962 497.907, 415.692 495.822, 424.490 494.541, 430.680 492.615, 439.991 491.909, 443.407 490.161, 453.253 488.493, 462.651 487.020, 472.542 485.589, 482.157 484.389, 492.085 483.208, 501.859 482.699, 507.318 482.690, 507.415 481.763, 517.366 481.521, 519.965 481.437, 520.862 481.360, 521.688 480.704, 531.666 480.053, 541.575 479.669, 551.568 479.289, 561.453 479.180, 571.452 479.154, 573.797 479.072, 581.250 " fill="none" stroke="rgb(0, 0, 0)" stroke-linecap="butt" stroke-linejoin="round" stroke-opacity="1.0" stroke-width="3.0" />
            <path d=" M 681.463, 176.523 672.982, 177.328 664.411, 178.938 655.768, 181.372 647.074, 184.646 638.348, 188.772 629.614, 193.763 621.316, 199.344 620.894, 199.628 612.997, 205.762 612.212, 206.372 604.724, 212.999 603.595, 213.998 596.516, 221.061 595.067, 222.506 588.393, 229.953 586.656, 231.892 580.380, 239.678 578.389, 242.148 573.024, 249.515 572.960, 249.603 572.944, 249.624 570.295, 253.263 564.785, 261.608 562.401, 265.220 557.257, 273.796 554.736, 278.000 553.325, 280.587 552.816, 281.520 552.119, 282.798 550.441, 285.873 548.928, 288.647 547.328, 291.579 543.019, 300.261 541.520, 303.281 540.207, 305.926 536.094, 315.041 533.400, 321.010 529.771, 329.868 529.723, 329.983 526.933, 336.793 523.455, 346.169 520.834, 353.233 517.661, 362.716 515.128, 370.284 512.252, 379.862 509.839, 387.896 507.253, 397.556 504.989, 406.016 502.688, 415.748 500.599, 424.586 498.579, 434.380 496.688, 443.547 495.116, 452.429 493.626, 460.844 493.273, 462.836 493.121, 463.864 491.651, 473.755 491.150, 477.129 490.369, 482.387 489.171, 492.315 488.695, 496.258 487.986, 502.134 487.497, 507.396 487.256, 509.980 487.143, 511.191 486.634, 516.664 486.374, 519.459 486.235, 520.947 486.136, 522.009 485.480, 531.987 484.825, 541.942 484.440, 551.935 484.057, 561.865 483.944, 571.864 483.894, 576.326 483.834, 581.708 483.996, 591.706 484.154, 601.402 484.596, 611.392 485.015, 620.881 485.740, 630.854 486.410, 640.078 487.389, 649.697 488.056, 656.248 488.329, 658.931 489.637, 668.845 490.763, 677.378 492.373, 687.248 493.696, 695.362 495.617, 705.176 497.115, 712.828 499.356, 722.574 501.000, 729.725 503.323, 738.451 505.333, 746.005 508.248, 755.571 510.094, 761.626 513.093, 770.292 515.259, 776.549 518.633, 785.180 520.805, 790.738 521.234, 791.713 525.259, 800.867 526.511, 803.713 526.709, 804.163 527.870, 806.516 532.295, 815.483 532.933, 816.775 532.944, 816.798 534.335, 819.312 536.932, 824.004 539.487, 828.621 544.760, 837.118 546.310, 839.615 552.030, 847.817 553.388, 849.765 559.567, 857.627 560.694, 859.061 567.343, 866.531 568.204, 867.498 575.327, 874.517 575.891, 875.072 583.487, 881.577 583.731, 881.786 591.698, 887.641 599.770, 892.645 607.923, 896.808 616.135, 900.140 624.385, 902.655 " fill="none" stroke="rgb(0, 0, 0)" stroke-linecap="butt" stroke-linejoin="round" stroke-opacity="1.0" stroke-width="3.0" />
            <path d=" M 729.779, 518.268 728.898, 518.299 728.008, 518.555 727.124, 519.033 726.294, 519.726 725.978, 520.102 725.537, 520.626 724.920, 521.576 724.831, 521.713 724.690, 521.987 724.188, 522.971 723.619, 524.378 723.135, 525.909 722.744, 527.540 722.677, 527.933 722.452, 529.242 722.274, 530.903 722.266, 530.985 722.187, 532.740 " fill="none" stroke="rgb(0, 0, 0)" stroke-linecap="butt" stroke-linejoin="round" stroke-opacity="1.0" stroke-width="3.0" />
            <path d=" M 728.810, 528.319 729.069, 528.368 729.316, 528.507 729.544, 528.733 729.747, 529.038 729.920, 529.416 730.057, 529.854 730.156, 530.342 730.213, 530.867 730.226, 531.413 " fill="none" stroke="rgb(0, 0, 0)" stroke-linecap="butt" stroke-linejoin="round" stroke-opacity="1.0" stroke-width="3.0" />
            <path d=" M 727.081, 531.211 730.226, 531.413 740.093, 529.784 747.795, 528.513 " fill="none" stroke="rgb(0, 0, 0)" stroke-linecap="butt" stroke-linejoin="round" stroke-opacity="1.0" stroke-width="3.0" />
            <path d=" M 802.929, 522.552 802.090, 522.588 801.241, 522.856 800.395, 523.353 799.603, 524.072 799.539, 524.155 798.881, 525.003 798.500, 525.639 798.207, 526.129 798.073, 526.412 797.591, 527.429 797.045, 528.883 796.836, 529.590 796.695, 530.069 796.578, 530.465 796.198, 532.149 796.132, 532.555 795.911, 533.906 795.732, 535.620 795.723, 535.705 795.638, 537.516 " fill="none" stroke="rgb(0, 0, 0)" stroke-linecap="butt" stroke-linejoin="round" stroke-opacity="1.0" stroke-width="3.0" />
            <path d=" M 801.924, 532.919 802.168, 532.968 802.401, 533.111 802.615, 533.342 802.805, 533.656 802.965, 534.044 803.092, 534.495 803.182, 534.998 803.232, 535.539 803.242, 536.102 " fill="none" stroke="rgb(0, 0, 0)" stroke-linecap="butt" stroke-linejoin="round" stroke-opacity="1.0" stroke-width="3.0" />
            <path d=" M 783.284, 487.866 783.445, 487.860 783.663, 487.893 783.872, 487.972 784.064, 488.092 784.232, 488.251 784.370, 488.442 784.473, 488.660 784.537, 488.899 784.556, 489.155 784.531, 489.393 784.464, 489.621 784.358, 489.830 784.216, 490.011 784.046, 490.158 783.849, 490.267 783.633, 490.331 " fill="none" stroke="rgb(0, 0, 0)" stroke-linecap="butt" stroke-linejoin="round" stroke-opacity="1.0" stroke-width="3.0" />
            <path d=" M 783.284, 487.866 783.209, 487.877 783.125, 487.896 782.982, 487.939 782.967, 487.945 782.749, 488.054 782.557, 488.202 782.397, 488.384 782.274, 488.596 782.194, 488.830 782.163, 489.084 782.182, 489.324 782.248, 489.556 782.358, 489.770 782.368, 489.784 782.516, 489.972 782.698, 490.127 782.910, 490.245 783.146, 490.320 783.158, 490.324 783.179, 490.327 783.208, 490.330 783.401, 490.347 783.606, 490.334 783.633, 490.331 " fill="none" stroke="rgb(0, 0, 0)" stroke-linecap="butt" stroke-linejoin="round" stroke-opacity="1.0" stroke-width="3.0" />
            <path d=" M 780.649, 485.871 780.539, 492.081 784.090, 492.245 786.202, 492.343 786.859, 492.099 786.462, 486.101 783.751, 485.959 781.080, 485.819 780.649, 485.871 " fill="none" stroke="rgb(0, 0, 0)" stroke-linecap="butt" stroke-linejoin="round" stroke-opacity="1.0" stroke-width="3.0" />
            <path d=" M 786.202, 492.343 786.315, 486.118 " fill="none" stroke="rgb(0, 0, 0)" stroke-linecap="butt" stroke-linejoin="round" stroke-opacity="1.0" stroke-width="3.0" />
            <path d=" M 786.462, 486.101 786.315, 486.118 780.649, 485.871 " fill="none" stroke="rgb(0, 0, 0)" stroke-linecap="butt" stroke-linejoin="round" stroke-opacity="1.0" stroke-width="3.0" />
            <path d=" M 714.828, 519.398 704.929, 518.791 694.947, 518.199 693.452, 518.111 683.468, 517.541 681.976, 517.455 671.991, 516.906 670.496, 516.824 660.510, 516.295 659.007, 516.216 649.020, 515.708 647.505, 515.630 637.517, 515.143 635.985, 515.068 625.996, 514.601 624.442, 514.529 614.452, 514.082 612.872, 514.011 602.881, 513.585 601.270, 513.516 591.278, 513.109 589.631, 513.042 579.639, 512.656 577.952, 512.590 577.940, 502.590 577.934, 498.058 577.805, 488.059 577.747, 483.577 577.499, 473.580 577.390, 469.164 577.022, 459.171 576.863, 454.840 576.372, 444.852 576.165, 440.625 575.548, 430.644 575.295, 426.539 574.549, 416.567 574.253, 412.602 573.373, 402.641 573.037, 398.837 572.019, 388.889 571.648, 385.266 570.486, 375.334 570.085, 371.911 568.945, 363.305 " fill="none" stroke="rgb(0, 0, 0)" stroke-linecap="butt" stroke-linejoin="round" stroke-opacity="1.0" stroke-width="3.0" />
            <path d=" M 542.133, 229.829 540.576, 228.461 539.829, 227.804 537.354, 225.629 533.590, 222.321 532.237, 220.994 529.600, 218.407 525.236, 214.127 522.647, 211.312 519.231, 207.598 517.106, 205.288 " fill="none" stroke="rgb(0, 0, 0)" stroke-linecap="butt" stroke-linejoin="round" stroke-opacity="1.0" stroke-width="3.0" />
            <path d=" M 569.730, 247.910 564.261, 245.044 555.743, 239.804 555.091, 239.402 547.481, 234.007 546.143, 233.059 545.244, 232.335 542.296, 229.960 542.133, 229.829 540.603, 228.597 539.873, 228.008 537.448, 226.055 537.418, 226.031 " fill="none" stroke="rgb(0, 0, 0)" stroke-linecap="butt" stroke-linejoin="round" stroke-opacity="1.0" stroke-width="3.0" />
            <path d=" M 517.106, 205.288 512.549, 200.947 507.861, 197.452 506.484, 196.705 503.703, 195.196 503.053, 194.843 498.133, 193.164 493.115, 192.448 488.009, 192.733 482.829, 194.056 477.592, 196.449 476.476, 197.187 474.619, 198.415 472.312, 199.940 468.766, 203.026 467.007, 204.556 461.697, 210.319 457.516, 215.790 456.401, 217.249 454.837, 219.659 451.140, 225.353 449.583, 228.132 445.938, 234.638 441.544, 243.621 440.817, 245.106 436.861, 254.290 435.802, 256.748 432.236, 266.091 430.917, 269.547 427.702, 279.016 426.187, 283.479 423.291, 293.050 421.639, 298.514 419.034, 308.169 417.297, 314.609 414.960, 324.332 413.186, 331.713 411.099, 341.493 409.332, 349.769 407.478, 359.596 405.759, 368.710 404.124, 378.575 402.487, 388.457 401.062, 398.355 399.636, 408.253 399.539, 408.928 398.313, 418.852 397.088, 428.777 396.933, 430.031 395.901, 439.977 394.869, 449.924 394.688, 451.667 393.843, 461.631 392.998, 471.596 392.817, 473.732 392.155, 483.711 391.493, 493.689 391.332, 496.117 390.851, 506.106 390.370, 516.094 390.244, 518.710 389.943, 528.706 389.641, 538.701 389.560, 541.398 389.437, 551.397 389.314, 561.396 389.281, 564.063 389.339, 574.063 389.396, 584.063 389.410, 586.592 389.441, 586.585 394.936, 585.455 396.738, 585.104 400.562, 584.359 406.288, 583.304 412.117, 582.286 418.048, 581.307 424.083, 580.365 430.223, 579.459 436.469, 578.588 442.823, 577.752 449.285, 576.949 455.858, 576.180 462.543, 575.443 469.341, 574.737 476.253, 574.063 479.154, 573.797 " fill="none" stroke="rgb(0, 0, 0)" stroke-linecap="butt" stroke-linejoin="round" stroke-opacity="1.0" stroke-width="3.0" />
            <path d=" M 359.465, 577.006 355.338, 586.114 353.209, 590.812 " fill="none" stroke="rgb(0, 0, 0)" stroke-linecap="butt" stroke-linejoin="round" stroke-opacity="1.0" stroke-width="3.0" />
            <path d=" M 476.476, 197.187 466.952, 197.375 " fill="none" stroke="rgb(0, 0, 0)" stroke-linecap="butt" stroke-linejoin="round" stroke-opacity="1.0" stroke-width="3.0" />
            <path d=" M 533.387, 478.410 533.338, 478.447 " fill="none" stroke="rgb(0, 0, 0)" stroke-linecap="butt" stroke-linejoin="round" stroke-opacity="1.0" stroke-width="3.0" />
            <path d=" M 547.481, 234.007 545.227, 232.248 542.296, 229.960 " fill="none" stroke="rgb(0, 0, 0)" stroke-linecap="butt" stroke-linejoin="round" stroke-opacity="1.0" stroke-width="3.0" />
            <path d=" M 569.665, 247.999 568.316, 247.390 " fill="none" stroke="rgb(0, 0, 0)" stroke-linecap="butt" stroke-linejoin="round" stroke-opacity="1.0" stroke-width="3.0" />
        </g>
    </g>
</svg>
