<?xml version='1.0' encoding='ascii'?>
<svg xmlns="http://www.w3.org/2000/svg" height="1080" version="1.1" width="1080">
    <g id="View Layer_LineSet" inkscape:groupmode="lineset" inkscape:label="View Layer_LineSet" xmlns:inkscape="http://www.inkscape.org/namespaces/inkscape">
        <g id="strokes" inkscape:groupmode="layer" inkscape:label="strokes" xmlns:inkscape="http://www.inkscape.org/namespaces/inkscape">
            <path d=" M 564.913, 498.314 564.877, 499.470 564.823, 500.609 564.749, 501.720 564.707, 502.209 564.656, 502.793 564.546, 503.817 564.419, 504.782 564.277, 505.677 564.121, 506.493 563.950, 507.223 563.822, 507.691 563.776, 507.835 563.689, 508.107 563.552, 508.469 563.484, 508.618 " fill="none" stroke="rgb(0, 0, 0)" stroke-linecap="butt" stroke-linejoin="round" stroke-opacity="1.0" stroke-width="3.0" />
            <path d=" M 353.643, 613.995 359.994, 615.980 " fill="none" stroke="rgb(0, 0, 0)" stroke-linecap="butt" stroke-linejoin="round" stroke-opacity="1.0" stroke-width="3.0" />
            <path d=" M 377.860, 616.528 387.790, 615.341 389.837, 615.097 " fill="none" stroke="rgb(0, 0, 0)" stroke-linecap="butt" stroke-linejoin="round" stroke-opacity="1.0" stroke-width="3.0" />
            <path d=" M 389.837, 615.097 385.616, 606.032 381.394, 596.966 380.307, 594.631 " fill="none" stroke="rgb(0, 0, 0)" stroke-linecap="butt" stroke-linejoin="round" stroke-opacity="1.0" stroke-width="3.0" />
            <path d=" M 468.918, 205.929 464.449, 206.467 459.916, 208.075 455.334, 210.789 450.716, 214.638 446.080, 219.647 442.576, 224.326 441.442, 225.840 440.485, 227.372 436.821, 233.236 432.235, 241.845 428.049, 250.926 427.706, 251.670 423.966, 260.944 423.254, 262.711 419.906, 272.133 418.902, 274.958 415.898, 284.496 414.672, 288.391 411.976, 298.021 410.587, 302.983 408.169, 312.686 406.670, 318.699 404.505, 328.462 402.945, 335.491 401.011, 345.303 399.434, 353.304 397.715, 363.155 396.159, 372.072 394.642, 381.956 393.143, 391.721 391.815, 401.633 390.487, 411.544 390.404, 412.167 389.256, 422.101 388.108, 432.035 387.960, 433.317 386.985, 443.270 386.011, 453.222 385.829, 455.073 385.022, 465.040 384.215, 475.008 384.027, 477.327 383.382, 487.306 382.737, 497.286 382.563, 499.967 382.078, 509.956 381.592, 519.944 381.449, 522.877 381.121, 532.872 380.793, 542.867 380.692, 545.938 380.521, 555.937 380.349, 565.935 380.296, 569.029 380.282, 579.029 380.267, 589.029 380.263, 592.028 380.307, 594.631 379.197, 604.569 378.086, 614.508 377.860, 616.528 " fill="none" stroke="rgb(0, 0, 0)" stroke-linecap="butt" stroke-linejoin="round" stroke-opacity="1.0" stroke-width="3.0" />
            <path d=" M 566.935, 520.790 567.210, 520.795 567.995, 520.809 574.851, 515.902 577.944, 514.242 577.879, 504.242 577.849, 499.518 577.664, 489.520 577.579, 484.863 577.273, 474.868 577.133, 470.296 576.703, 460.306 576.510, 455.840 575.953, 445.855 575.710, 441.514 575.022, 431.538 574.733, 427.341 573.909, 417.375 573.576, 413.343 572.613, 403.390 572.240, 399.545 571.130, 389.606 570.724, 385.968 569.461, 376.048 569.027, 372.639 567.604, 362.741 567.150, 359.583 567.030, 358.845 " fill="none" stroke="rgb(0, 0, 0)" stroke-linecap="butt" stroke-linejoin="round" stroke-opacity="1.0" stroke-width="3.0" />
            <path d=" M 563.842, 364.555 564.406, 368.002 565.847, 377.897 566.218, 380.447 567.495, 390.365 567.856, 393.164 568.979, 403.101 569.321, 406.127 570.296, 416.079 570.612, 419.312 571.445, 429.277 571.731, 432.695 572.427, 442.671 572.678, 446.253 573.242, 456.237 573.453, 459.963 573.889, 469.953 574.057, 473.804 574.368, 483.799 574.491, 487.755 574.679, 497.753 574.755, 501.794 574.763, 502.885 574.691, 503.634 574.610, 504.355 574.521, 505.042 574.424, 505.692 574.319, 506.301 574.208, 506.866 574.090, 507.385 573.967, 507.854 573.839, 508.271 573.706, 508.633 573.571, 508.939 573.432, 509.187 573.292, 509.375 573.150, 509.503 569.099, 512.284 568.909, 511.228 568.693, 510.337 568.457, 509.626 568.204, 509.108 567.937, 508.793 567.662, 508.685 567.292, 508.679 565.019, 508.642 564.707, 508.637 563.776, 508.622 563.484, 508.618 562.920, 508.609 559.347, 508.551 557.562, 508.522 557.417, 508.520 557.276, 508.517 556.987, 508.620 556.698, 508.932 556.415, 509.448 556.142, 510.161 555.885, 511.059 555.647, 512.126 555.572, 512.557 555.434, 513.346 555.433, 513.353 555.247, 514.697 555.204, 515.109 555.092, 516.156 554.970, 517.699 554.884, 519.299 554.835, 520.928 554.824, 522.559 555.539, 522.572 557.385, 522.605 557.490, 522.607 559.274, 522.639 562.844, 522.703 563.681, 522.718 564.630, 522.735 565.289, 522.747 566.919, 521.579 566.925, 521.062 566.935, 520.790 566.945, 520.549 566.979, 520.053 567.026, 519.589 567.085, 519.168 567.154, 518.803 567.228, 518.517 567.231, 518.504 567.315, 518.278 567.402, 518.132 567.491, 518.069 " fill="none" stroke="rgb(0, 0, 0)" stroke-linecap="butt" stroke-linejoin="round" stroke-opacity="1.0" stroke-width="3.0" />
            <path d=" M 465.449, 881.417 461.382, 881.109 458.916, 880.316 457.300, 879.797 453.215, 877.453 450.131, 874.878 449.142, 874.052 445.097, 869.566 441.096, 863.976 437.155, 857.269 433.292, 849.434 429.526, 840.466 426.125, 831.062 425.874, 830.366 422.882, 820.825 422.356, 819.147 419.721, 809.501 418.990, 806.824 416.673, 797.096 415.797, 793.419 413.762, 783.628 412.794, 778.967 411.016, 769.126 410.000, 763.509 408.456, 753.629 407.434, 747.093 406.105, 737.181 405.112, 729.776 403.983, 719.840 403.050, 711.626 402.109, 701.670 401.263, 692.717 400.499, 682.746 399.763, 673.128 399.170, 663.146 398.576, 653.163 398.563, 652.949 398.132, 642.959 397.701, 632.968 397.671, 632.275 397.398, 622.279 397.125, 612.283 397.096, 611.205 396.997, 604.151 " fill="none" stroke="rgb(0, 0, 0)" stroke-linecap="butt" stroke-linejoin="round" stroke-opacity="1.0" stroke-width="3.0" />
            <path d=" M 383.880, 284.928 383.092, 287.782 380.711, 297.494 379.548, 302.240 377.419, 312.011 376.152, 317.826 374.251, 327.643 372.924, 334.493 371.230, 344.349 369.882, 352.189 368.380, 362.075 367.046, 370.851 365.723, 380.763 364.435, 390.410 363.279, 400.343 362.123, 410.276 362.064, 410.783 361.068, 420.733 360.071, 430.683 359.951, 431.881 359.107, 441.845 358.262, 451.809 358.110, 453.608 357.412, 463.583 356.714, 473.559 356.553, 475.860 355.998, 485.845 355.442, 495.829 355.292, 498.528 354.875, 508.519 354.459, 518.510 354.334, 521.496 354.055, 531.492 353.776, 541.488 353.688, 544.647 353.545, 554.646 353.402, 564.645 353.357, 567.862 353.350, 577.862 353.344, 587.862 353.342, 591.018 353.473, 601.017 353.604, 611.016 353.643, 613.995 353.961, 623.990 354.279, 633.985 354.361, 636.535 354.846, 646.523 355.331, 656.511 355.435, 658.638 356.093, 668.616 356.751, 678.594 356.856, 680.195 357.695, 690.160 358.533, 700.125 358.615, 701.103 359.643, 711.050 360.671, 720.997 360.699, 721.264 361.927, 731.188 363.091, 740.590 364.535, 750.485 365.777, 759.002 367.452, 768.860 368.738, 776.427 370.666, 786.239 371.956, 792.805 374.162, 802.559 375.411, 808.085 376.819, 813.509 " fill="none" stroke="rgb(0, 0, 0)" stroke-linecap="butt" stroke-linejoin="round" stroke-opacity="1.0" stroke-width="3.0" />
            <path d=" M 523.327, 536.021 523.276, 542.058 523.085, 552.056 523.006, 556.207 522.708, 566.202 522.584, 570.351 522.179, 580.343 522.011, 584.471 521.497, 594.458 521.287, 598.548 520.665, 608.528 520.413, 612.562 519.680, 622.535 519.389, 626.493 519.072, 630.217 " fill="none" stroke="rgb(0, 0, 0)" stroke-linecap="butt" stroke-linejoin="round" stroke-opacity="1.0" stroke-width="3.0" />
            <path d=" M 502.860, 747.646 500.989, 756.561 498.763, 766.310 498.349, 768.125 495.938, 777.830 495.568, 779.320 492.958, 788.974 492.648, 790.119 489.821, 799.711 489.592, 800.490 486.527, 810.009 486.401, 810.400 483.079, 819.818 479.630, 828.709 476.057, 837.039 472.364, 844.771 468.557, 851.868 464.642, 858.296 460.625, 864.012 456.513, 868.980 452.315, 873.163 450.131, 874.878 " fill="none" stroke="rgb(0, 0, 0)" stroke-linecap="butt" stroke-linejoin="round" stroke-opacity="1.0" stroke-width="3.0" />
            <path d=" M 389.762, 609.904 389.837, 615.097 390.123, 625.093 390.408, 635.089 390.479, 637.579 390.933, 647.568 391.387, 657.558 391.481, 659.627 392.109, 669.607 392.737, 679.587 392.835, 681.132 393.644, 691.100 394.453, 701.067 394.528, 701.992 395.527, 711.942 396.526, 721.892 396.548, 722.110 397.746, 732.038 398.876, 741.398 400.287, 751.298 401.495, 759.777 403.134, 769.642 404.385, 777.175 406.271, 786.996 407.525, 793.531 409.680, 803.296 410.893, 808.795 413.345, 818.489 414.466, 822.923 417.249, 832.528 418.221, 835.881 421.378, 845.369 422.135, 847.645 425.717, 856.982 426.186, 858.203 430.258, 867.336 430.350, 867.544 434.607, 875.667 437.835, 880.824 438.122, 881.282 438.936, 882.582 443.315, 888.303 447.728, 892.846 452.155, 896.235 456.579, 898.501 460.986, 899.674 465.361, 899.788 469.690, 898.880 473.962, 896.991 478.166, 894.161 481.050, 891.552 482.291, 890.429 486.329, 885.839 490.271, 880.434 494.111, 874.253 497.843, 867.339 501.461, 859.734 504.415, 852.767 504.961, 851.478 508.339, 842.608 511.590, 833.163 514.576, 823.619 514.713, 823.182 516.992, 815.199 517.705, 812.700 520.231, 803.025 520.564, 801.750 521.621, 797.333 " fill="none" stroke="rgb(0, 0, 0)" stroke-linecap="butt" stroke-linejoin="round" stroke-opacity="1.0" stroke-width="3.0" />
            <path d=" M 518.221, 789.897 518.088, 790.437 515.483, 800.092 515.296, 800.787 512.470, 810.379 512.382, 810.677 509.350, 820.075 506.203, 828.948 502.945, 837.261 499.579, 844.977 496.111, 852.061 492.545, 858.476 488.887, 864.182 485.145, 869.142 481.326, 873.318 477.437, 876.672 473.488, 879.163 469.489, 880.756 465.449, 881.417 " fill="none" stroke="rgb(0, 0, 0)" stroke-linecap="butt" stroke-linejoin="round" stroke-opacity="1.0" stroke-width="3.0" />
            <path d=" M 555.204, 515.109 548.975, 514.857 548.194, 514.825 546.393, 514.752 546.401, 524.752 546.404, 528.819 546.314, 538.818 546.277, 542.919 546.089, 552.918 546.011, 557.035 545.725, 567.031 545.608, 571.146 545.224, 581.139 545.067, 585.233 544.584, 595.222 544.389, 599.278 543.807, 609.261 543.574, 613.261 542.892, 623.237 542.623, 627.161 541.838, 637.130 541.536, 640.958 540.646, 650.919 540.314, 654.634 539.316, 664.584 538.957, 668.165 537.847, 678.103 537.464, 681.530 536.239, 691.455 535.838, 694.708 534.565, 704.081 " fill="none" stroke="rgb(0, 0, 0)" stroke-linecap="butt" stroke-linejoin="round" stroke-opacity="1.0" stroke-width="3.0" />
            <path d=" M 537.136, 711.786 538.422, 701.869 538.525, 701.077 539.694, 691.146 540.150, 687.277 541.207, 677.333 541.637, 673.289 542.586, 663.335 542.987, 659.137 543.832, 649.173 544.199, 644.842 544.943, 634.870 545.274, 630.426 545.920, 620.447 546.213, 615.908 546.762, 605.923 547.015, 601.309 547.469, 591.319 547.681, 586.648 548.041, 576.655 548.211, 571.946 548.478, 561.950 548.605, 557.221 548.780, 547.222 548.863, 542.492 548.947, 532.492 548.986, 527.777 548.978, 517.777 548.975, 514.857 " fill="none" stroke="rgb(0, 0, 0)" stroke-linecap="butt" stroke-linejoin="round" stroke-opacity="1.0" stroke-width="3.0" />
            <path d=" M 377.860, 616.528 378.155, 626.523 378.450, 636.519 378.551, 639.925 379.012, 649.915 379.473, 659.904 379.609, 662.863 380.241, 672.843 380.873, 682.823 381.025, 685.225 381.836, 695.193 382.646, 705.160 382.788, 706.904 383.786, 716.854 384.784, 726.804 384.884, 727.796 386.080, 737.724 387.295, 747.810 388.702, 757.711 390.004, 766.864 391.640, 776.729 392.991, 784.881 394.875, 794.702 396.237, 801.799 398.392, 811.564 399.717, 817.566 402.174, 827.260 403.411, 832.138 406.206, 841.740 407.296, 845.481 410.473, 854.963 411.347, 857.572 414.961, 866.896 415.544, 868.398 419.662, 877.510 419.862, 877.952 424.281, 886.234 428.779, 893.258 433.335, 899.039 437.931, 903.597 442.548, 906.958 447.168, 909.156 451.775, 910.227 456.355, 910.203 460.894, 909.129 465.378, 907.047 469.797, 903.998 474.139, 900.025 478.396, 895.175 " fill="none" stroke="rgb(0, 0, 0)" stroke-linecap="butt" stroke-linejoin="round" stroke-opacity="1.0" stroke-width="3.0" />
            <path d=" M 478.396, 895.175 484.871, 887.555 486.329, 885.839 " fill="none" stroke="rgb(0, 0, 0)" stroke-linecap="butt" stroke-linejoin="round" stroke-opacity="1.0" stroke-width="3.0" />
            <path d=" M 540.452, 539.749 530.452, 539.783 529.079, 539.787 526.044, 537.800 523.327, 536.021 519.322, 533.399 519.037, 533.212 518.752, 533.025 518.466, 532.838 518.181, 532.651 517.848, 532.311 517.529, 531.742 517.328, 531.212 " fill="none" stroke="rgb(0, 0, 0)" stroke-linecap="butt" stroke-linejoin="round" stroke-opacity="1.0" stroke-width="3.0" />
            <path d=" M 520.269, 504.452 524.949, 495.615 528.699, 488.532 538.666, 489.340 540.147, 489.460 540.367, 499.458 540.587, 509.455 540.698, 514.522 540.665, 524.522 540.651, 528.595 540.473, 538.593 540.452, 539.749 532.189, 534.117 531.481, 533.635 531.207, 533.448 530.933, 533.261 530.658, 533.074 530.384, 532.887 530.063, 532.547 529.757, 531.977 529.471, 531.189 529.244, 530.319 529.212, 530.196 528.987, 529.018 528.799, 527.676 528.651, 526.197 528.546, 524.608 528.511, 523.614 528.487, 522.940 528.475, 521.225 528.509, 519.498 528.590, 517.790 528.620, 517.394 528.716, 516.136 528.883, 514.568 529.090, 513.115 529.270, 512.137 529.331, 511.805 529.602, 510.665 529.898, 509.714 530.212, 508.971 530.481, 508.440 530.751, 507.908 531.021, 507.378 531.291, 506.848 531.427, 506.583 535.965, 497.672 540.147, 489.460 " fill="none" stroke="rgb(0, 0, 0)" stroke-linecap="butt" stroke-linejoin="round" stroke-opacity="1.0" stroke-width="3.0" />
            <path d=" M 530.888, 523.657 530.763, 523.603 530.644, 523.414 530.538, 523.099 530.449, 522.673 530.381, 522.153 530.337, 521.563 530.320, 520.928 530.328, 520.276 530.364, 519.636 530.424, 519.036 530.505, 518.502 530.606, 518.058 530.721, 517.723 530.844, 517.512 530.971, 517.435 " fill="none" stroke="rgb(0, 0, 0)" stroke-linecap="butt" stroke-linejoin="round" stroke-opacity="1.0" stroke-width="3.0" />
            <path d=" M 530.971, 517.435 531.096, 517.492 531.214, 517.683 531.320, 517.998 531.408, 518.424 531.476, 518.943 531.519, 519.531 531.537, 520.164 531.528, 520.813 531.493, 521.451 531.434, 522.049 531.352, 522.582 531.252, 523.026 531.138, 523.362 531.015, 523.575 530.888, 523.657 " fill="none" stroke="rgb(0, 0, 0)" stroke-linecap="butt" stroke-linejoin="round" stroke-opacity="1.0" stroke-width="3.0" />
            <path d=" M 359.952, 545.056 359.859, 548.673 359.741, 558.673 359.623, 568.672 359.593, 571.239 359.613, 581.239 359.633, 591.239 359.638, 593.704 359.744, 600.338 359.904, 610.336 359.994, 615.980 360.296, 625.975 360.597, 635.971 360.658, 637.978 361.104, 647.968 361.550, 657.958 361.624, 659.614 361.662, 660.263 " fill="none" stroke="rgb(0, 0, 0)" stroke-linecap="butt" stroke-linejoin="round" stroke-opacity="1.0" stroke-width="3.0" />
            <path d=" M 543.173, 727.881 544.539, 717.913 545.797, 707.993 546.155, 705.172 547.317, 695.239 547.663, 692.286 548.732, 682.343 549.063, 679.271 550.041, 669.319 550.354, 666.139 551.245, 656.178 551.538, 652.903 552.342, 642.936 552.613, 639.577 553.333, 629.603 553.581, 626.173 554.217, 616.193 554.417, 613.055 554.440, 612.701 554.994, 602.717 555.191, 599.175 555.664, 589.186 555.834, 585.606 555.837, 585.521 556.230, 575.528 556.369, 572.004 556.682, 562.009 556.795, 558.382 557.028, 548.385 557.113, 544.750 557.267, 534.751 557.322, 531.120 557.385, 522.605 " fill="none" stroke="rgb(0, 0, 0)" stroke-linecap="butt" stroke-linejoin="round" stroke-opacity="1.0" stroke-width="3.0" />
            <path d=" M 455.872, 937.651 458.304, 937.826 462.449, 937.652 466.558, 936.658 470.622, 934.874 474.633, 932.331 478.586, 929.061 482.472, 925.093 486.288, 920.459 490.027, 915.190 493.686, 909.316 497.259, 902.867 500.744, 895.872 504.138, 888.360 507.437, 880.358 510.639, 871.894 513.742, 862.994 516.745, 853.682 519.609, 844.101 519.644, 843.984 522.322, 834.350 522.440, 833.923 524.945, 824.242 525.132, 823.522 527.477, 813.801 527.717, 812.802 528.185, 810.723 " fill="none" stroke="rgb(0, 0, 0)" stroke-linecap="butt" stroke-linejoin="round" stroke-opacity="1.0" stroke-width="3.0" />
            <path d=" M 523.077, 218.547 520.294, 210.491 517.293, 202.606 514.178, 195.216 510.950, 188.351 507.613, 182.038 504.168, 176.307 500.619, 171.188 496.968, 166.712 493.221, 162.908 489.380, 159.809 485.453, 157.445 481.443, 155.847 477.358, 155.046 473.205, 155.070 472.924, 155.129 468.991, 155.950 464.725, 157.713 460.416, 160.385 456.075, 163.991 451.711, 168.552 447.338, 174.089 442.967, 180.617 438.612, 188.151 434.285, 196.700 430.200, 205.828 430.003, 206.269 429.904, 206.516 426.199, 215.804 425.779, 216.859 422.412, 226.275 421.630, 228.465 418.566, 237.984 418.149, 239.282 417.571, 241.079 414.782, 250.682 413.619, 254.684 411.079, 264.356 409.791, 269.261 407.479, 278.990 406.103, 284.781 404.002, 294.558 402.572, 301.212 400.667, 311.029 399.215, 318.514 397.494, 328.364 396.047, 336.640 394.499, 346.520 393.085, 355.539 391.701, 365.443 390.343, 375.153 389.115, 385.077 387.887, 395.001 387.836, 395.416 386.757, 405.358 385.679, 415.299 385.575, 416.260 384.642, 426.216 383.709, 436.172 383.574, 437.609 382.782, 447.578 381.990, 457.547 381.844, 459.386 381.189, 469.365 380.534, 479.343 380.392, 481.507 379.873, 491.494 379.353, 501.480 379.228, 503.886 378.842, 513.879 378.456, 523.872 378.357, 526.436 378.103, 536.432 377.849, 546.429 377.783, 549.065 377.661, 559.064 377.540, 569.063 377.508, 571.683 377.520, 581.683 377.532, 591.683 377.535, 594.201 377.680, 604.200 377.826, 614.199 377.860, 616.528 378.143, 626.524 378.425, 636.520 378.483, 638.576 378.904, 648.567 379.325, 658.558 379.397, 660.261 379.962, 670.245 380.526, 680.229 380.598, 681.500 381.309, 691.474 382.021, 701.449 382.076, 702.215 382.941, 712.177 383.823, 722.333 384.849, 732.280 385.829, 741.785 387.023, 751.713 388.080, 760.509 389.453, 770.414 390.566, 778.447 392.128, 788.325 393.271, 795.550 395.038, 805.392 396.182, 811.771 398.169, 821.572 399.284, 827.074 401.509, 836.823 402.560, 841.425 405.048, 851.111 405.996, 854.800 408.774, 864.407 409.575, 867.179 412.675, 876.686 413.282, 878.548 416.744, 887.929 417.102, 888.898 420.972, 898.118 421.018, 898.227 425.016, 906.536 429.081, 913.833 433.198, 920.126 437.356, 925.431 441.539, 929.764 445.737, 933.147 449.938, 935.601 454.130, 937.152 456.945, 937.607 458.304, 937.826 " fill="none" stroke="rgb(0, 0, 0)" stroke-linecap="butt" stroke-linejoin="round" stroke-opacity="1.0" stroke-width="3.0" />
            <path d=" M 470.762, 155.142 466.521, 156.023 462.228, 157.786 457.892, 160.458 453.524, 164.063 449.134, 168.623 444.733, 174.159 440.335, 180.686 435.953, 188.218 431.600, 196.765 427.494, 205.883 427.292, 206.331 427.073, 206.877 423.348, 216.158 423.043, 216.918 419.658, 226.327 418.869, 228.521 415.788, 238.034 414.786, 241.130 411.981, 250.728 410.960, 254.222 410.811, 254.731 408.257, 264.399 406.961, 269.302 404.636, 279.028 403.252, 284.817 401.139, 294.592 399.701, 301.242 397.785, 311.057 396.325, 318.538 394.594, 328.387 393.140, 336.657 391.583, 346.535 390.162, 355.549 388.770, 365.452 387.405, 375.155 386.170, 385.079 384.935, 395.002 384.885, 395.411 383.801, 405.352 382.717, 415.293 382.613, 416.247 381.675, 426.202 380.737, 436.158 380.603, 437.588 379.807, 447.556 379.010, 457.525 378.864, 459.356 378.206, 469.335 377.549, 479.313 377.407, 481.468 376.885, 491.455 376.363, 501.441 376.238, 503.839 375.851, 513.831 375.463, 523.824 375.364, 526.379 375.110, 536.376 374.856, 546.373 374.789, 548.999 374.669, 558.999 374.548, 568.998 374.517, 571.609 374.530, 581.609 374.543, 591.609 374.546, 594.118 374.694, 604.117 374.842, 614.116 374.877, 616.436 375.162, 626.432 375.448, 636.428 375.506, 638.476 375.932, 648.467 376.357, 658.458 376.429, 660.153 376.999, 670.137 377.568, 680.120 377.640, 681.384 378.358, 691.358 379.076, 701.332 379.130, 702.091 380.003, 712.053 380.891, 722.202 381.925, 732.149 382.912, 741.648 384.115, 751.575 385.180, 760.365 386.563, 770.269 387.684, 778.298 389.258, 788.174 390.408, 795.395 392.187, 805.236 393.340, 811.612 395.340, 821.410 396.463, 826.910 398.704, 836.656 399.762, 841.258 402.266, 850.939 403.221, 854.629 406.017, 864.230 406.825, 867.005 409.944, 876.506 410.557, 878.371 414.040, 887.745 414.402, 888.720 418.295, 897.931 418.344, 898.047 422.368, 906.356 426.460, 913.651 430.604, 919.945 434.789, 925.250 439.000, 929.584 443.225, 932.967 447.453, 935.423 451.672, 936.975 455.872, 937.651 " fill="none" stroke="rgb(0, 0, 0)" stroke-linecap="butt" stroke-linejoin="round" stroke-opacity="1.0" stroke-width="3.0" />
            <path d=" M 473.205, 155.070 470.762, 155.142 " fill="none" stroke="rgb(0, 0, 0)" stroke-linecap="butt" stroke-linejoin="round" stroke-opacity="1.0" stroke-width="3.0" />
            <path d=" M 549.116, 741.122 549.492, 738.510 550.819, 728.599 551.286, 725.112 552.516, 715.188 552.966, 711.556 554.102, 701.621 554.533, 697.859 555.579, 687.914 555.988, 684.033 556.946, 674.079 557.330, 670.092 558.202, 660.131 558.560, 656.050 559.348, 646.081 559.677, 641.917 560.384, 631.942 560.683, 627.707 561.309, 617.727 561.578, 613.431 562.123, 603.446 562.360, 599.101 562.826, 589.112 563.031, 584.727 563.419, 574.735 563.590, 570.321 563.900, 560.326 564.038, 555.894 564.270, 545.896 564.373, 541.455 564.528, 531.457 564.597, 527.017 564.630, 522.735 " fill="none" stroke="rgb(0, 0, 0)" stroke-linecap="butt" stroke-linejoin="round" stroke-opacity="1.0" stroke-width="3.0" />
            <path d=" M 457.829, 964.835 460.228, 965.016 464.680, 964.492 469.084, 963.089 473.433, 960.843 477.718, 957.789 481.932, 953.963 486.070, 949.400 490.125, 944.136 494.093, 938.206 497.969, 931.644 501.750, 924.482 505.432, 916.754 509.012, 908.490 512.488, 899.722 515.857, 890.479 519.047, 881.001 519.118, 880.789 522.094, 871.242 522.269, 870.679 525.050, 861.074 525.310, 860.176 527.084, 853.590 528.238, 849.305 530.674, 839.606 531.055, 838.089 533.336, 828.352 533.757, 826.552 534.653, 822.456 " fill="none" stroke="rgb(0, 0, 0)" stroke-linecap="butt" stroke-linejoin="round" stroke-opacity="1.0" stroke-width="3.0" />
            <path d=" M 539.684, 231.960 537.578, 222.879 535.133, 213.182 534.935, 212.401 532.286, 202.758 532.166, 202.320 529.270, 192.661 526.248, 183.454 523.100, 174.726 519.828, 166.506 516.433, 158.827 512.917, 151.719 509.281, 145.214 505.529, 139.348 501.663, 134.154 497.688, 129.666 493.607, 125.921 489.426, 122.955 485.149, 120.802 480.785, 119.499 476.338, 119.081 474.837, 119.248 471.819, 119.583 467.235, 121.039 462.596, 123.480 457.913, 126.936 453.197, 131.438 448.461, 137.008 443.719, 143.672 438.984, 151.446 434.273, 160.346 430.052, 169.411 429.600, 170.382 425.782, 179.624 424.983, 181.558 421.732, 190.373 420.440, 193.875 417.297, 203.368 415.988, 207.325 415.532, 208.853 413.305, 216.327 411.646, 221.895 409.050, 231.552 407.433, 237.565 405.074, 247.283 403.369, 254.307 401.228, 264.075 399.472, 272.087 397.533, 281.897 395.762, 290.863 394.012, 300.708 392.257, 310.583 392.190, 311.001 390.618, 320.877 389.045, 330.753 388.975, 331.192 387.571, 341.093 386.166, 350.994 385.935, 352.624 384.690, 362.546 383.445, 372.468 383.152, 374.806 382.060, 384.747 380.969, 394.687 380.642, 397.661 379.698, 407.617 378.754, 417.572 378.420, 421.103 377.619, 431.071 376.818, 441.039 376.496, 445.042 375.835, 455.020 375.174, 464.998 374.884, 469.383 374.360, 479.369 373.836, 489.356 373.591, 494.027 373.202, 504.019 372.814, 514.011 372.625, 518.871 372.370, 528.868 372.116, 538.864 371.990, 543.812 371.870, 553.811 371.750, 563.811 371.691, 568.745 371.705, 578.745 371.719, 588.745 371.726, 593.565 371.877, 603.564 372.027, 613.563 372.096, 618.168 372.385, 628.164 372.673, 638.160 372.797, 642.453 373.227, 652.444 373.656, 662.435 373.823, 666.322 374.398, 676.305 374.972, 686.289 375.167, 689.679 375.891, 699.653 376.615, 709.626 376.819, 712.436 377.699, 722.397 378.579, 732.358 378.769, 734.508 379.812, 744.454 380.855, 754.399 381.004, 755.819 382.219, 765.745 383.433, 775.671 383.510, 776.297 384.906, 786.199 386.271, 795.879 387.862, 805.752 389.273, 814.508 391.072, 824.345 392.497, 832.137 394.522, 841.929 395.927, 848.722 398.198, 858.461 399.544, 864.233 402.060, 873.802 403.331, 878.641 404.144, 881.383 406.986, 890.971 407.270, 891.928 410.446, 901.410 411.341, 904.083 412.195, 906.328 415.528, 915.098 416.494, 917.323 419.814, 924.975 424.180, 933.720 428.612, 941.342 433.092, 947.858 437.607, 953.286 442.142, 957.650 446.684, 960.975 451.219, 963.291 455.738, 964.627 457.961, 964.819 460.228, 965.016 " fill="none" stroke="rgb(0, 0, 0)" stroke-linecap="butt" stroke-linejoin="round" stroke-opacity="1.0" stroke-width="3.0" />
            <path d=" M 361.625, 493.062 361.583, 493.851 361.190, 503.843 360.796, 513.835 360.606, 518.656 360.351, 528.653 360.095, 538.649 359.970, 543.558 359.952, 545.056 359.834, 555.056 359.716, 565.055 359.676, 568.452 359.696, 578.452 359.716, 588.452 359.726, 593.233 359.836, 600.133 359.995, 610.132 360.077, 615.259 360.118, 617.798 360.419, 627.794 360.721, 637.789 360.830, 641.419 360.849, 642.046 361.295, 652.036 361.662, 660.263 361.913, 665.878 362.007, 667.463 " fill="none" stroke="rgb(0, 0, 0)" stroke-linecap="butt" stroke-linejoin="round" stroke-opacity="1.0" stroke-width="3.0" />
            <path d=" M 473.928, 119.164 469.380, 119.666 464.767, 121.122 460.099, 123.563 455.386, 127.020 450.642, 131.521 445.877, 137.091 441.105, 143.753 436.342, 151.525 431.602, 160.423 427.359, 169.478 426.901, 170.456 423.063, 179.690 422.257, 181.630 418.777, 191.005 417.686, 193.943 414.526, 203.430 413.208, 207.388 412.553, 209.573 409.681, 219.152 408.841, 221.954 408.720, 222.401 406.109, 232.055 404.604, 237.618 403.777, 241.005 401.404, 250.720 400.517, 254.355 398.364, 264.120 396.598, 272.129 394.648, 281.937 392.867, 290.897 391.107, 300.741 389.343, 310.611 387.761, 320.485 386.180, 330.359 386.044, 331.212 384.631, 341.112 383.365, 349.985 382.987, 352.635 381.736, 362.557 380.484, 372.478 380.190, 374.809 379.093, 384.749 377.995, 394.689 377.668, 397.655 376.719, 407.610 375.770, 417.565 375.434, 421.088 374.630, 431.056 373.825, 441.023 373.503, 445.018 372.838, 454.996 372.174, 464.973 371.883, 469.349 371.357, 479.335 370.831, 489.321 370.585, 493.983 370.196, 503.975 369.806, 513.967 369.617, 518.817 369.362, 528.814 369.107, 538.811 368.982, 543.748 368.862, 553.748 368.742, 563.747 368.683, 568.672 368.699, 578.672 368.715, 588.672 368.723, 593.482 368.875, 603.481 369.028, 613.480 369.098, 618.076 369.390, 628.071 369.682, 638.067 369.807, 642.351 370.240, 652.342 370.674, 662.332 370.842, 666.211 371.422, 676.194 372.001, 686.177 372.197, 689.559 372.928, 699.533 373.658, 709.506 373.863, 712.308 374.750, 722.269 375.637, 732.229 375.828, 734.373 376.879, 744.317 377.930, 754.262 378.079, 755.676 379.303, 765.601 380.527, 775.526 380.603, 776.147 382.010, 786.048 383.385, 795.723 384.987, 805.594 386.408, 814.347 388.219, 824.181 389.654, 831.969 391.693, 841.759 393.108, 848.551 395.357, 858.126 396.750, 864.057 399.309, 873.724 399.352, 873.889 400.562, 878.462 402.664, 885.504 404.527, 891.746 407.723, 901.222 408.626, 903.898 409.347, 905.782 412.841, 914.912 416.843, 924.076 417.154, 924.787 421.549, 933.531 426.010, 941.153 430.519, 947.669 435.063, 953.097 439.628, 957.462 444.198, 960.789 448.763, 963.106 453.311, 964.444 457.829, 964.835 " fill="none" stroke="rgb(0, 0, 0)" stroke-linecap="butt" stroke-linejoin="round" stroke-opacity="1.0" stroke-width="3.0" />
            <path d=" M 476.338, 119.081 473.928, 119.164 " fill="none" stroke="rgb(0, 0, 0)" stroke-linecap="butt" stroke-linejoin="round" stroke-opacity="1.0" stroke-width="3.0" />
            <path d=" M 545.037, 235.601 544.593, 233.304 542.540, 223.517 542.141, 221.617 539.920, 211.867 539.558, 210.276 537.155, 200.569 536.843, 199.308 534.242, 189.652 533.995, 188.736 531.177, 179.142 531.015, 178.591 527.958, 169.069 527.903, 168.899 524.660, 159.690 521.285, 150.997 517.780, 142.850 514.147, 135.284 510.387, 128.333 506.504, 122.032 502.499, 116.419 498.377, 111.530 494.141, 107.404 489.796, 104.078 485.349, 101.593 480.804, 99.986 476.171, 99.296 471.378, 99.472 466.603, 99.739 461.755, 100.999 456.845, 103.285 451.883, 106.634 446.881, 111.076 441.853, 116.641 436.813, 123.354 431.776, 131.239 426.937, 139.990 426.759, 140.312 422.397, 149.311 421.779, 150.588 417.837, 159.778 416.853, 162.073 413.284, 171.414 412.002, 174.769 408.764, 184.231 407.244, 188.672 404.304, 198.231 402.600, 203.770 399.930, 213.407 398.091, 220.043 395.666, 229.745 393.737, 237.464 391.539, 247.219 389.560, 255.997 387.571, 265.798 385.581, 275.600 383.880, 284.928 382.085, 294.766 381.820, 296.219 380.209, 306.088 378.598, 315.958 378.298, 317.795 376.860, 327.691 375.422, 337.587 375.033, 340.258 373.760, 350.177 372.486, 360.095 372.045, 363.533 370.929, 373.470 369.813, 383.408 369.350, 387.534 368.386, 397.487 367.422, 407.441 366.964, 412.171 366.147, 422.138 365.330, 432.104 364.901, 437.347 364.227, 447.325 363.868, 452.646 363.195, 462.624 363.172, 462.960 362.640, 472.946 362.108, 482.931 361.789, 488.902 361.625, 493.062 361.232, 503.055 360.838, 513.047 360.759, 515.063 360.551, 523.203 360.295, 533.199 360.087, 541.331 359.969, 551.330 359.851, 561.329 359.777, 567.592 359.797, 577.592 359.817, 587.592 359.830, 593.732 359.928, 599.926 360.088, 609.924 360.161, 614.530 360.243, 619.640 360.544, 629.635 360.846, 639.631 361.012, 645.151 361.014, 645.205 361.460, 655.195 361.757, 661.849 362.007, 667.463 362.135, 670.322 362.463, 675.832 363.058, 685.815 363.599, 694.888 364.347, 704.860 365.096, 714.832 365.395, 718.808 366.303, 728.767 367.212, 738.725 367.510, 741.991 368.586, 751.933 369.662, 761.875 369.931, 764.355 371.183, 774.276 372.436, 784.197 372.642, 785.823 374.082, 795.719 375.522, 805.615 375.626, 806.329 376.819, 813.509 378.459, 823.373 378.865, 825.814 380.720, 835.640 382.341, 844.225 384.429, 854.005 386.034, 861.522 388.376, 871.244 389.924, 877.669 392.547, 887.319 393.993, 892.642 396.925, 902.202 398.219, 906.420 401.498, 915.867 402.583, 918.994 406.252, 928.297 407.065, 930.360 411.177, 939.475 411.648, 940.519 416.264, 949.390 416.311, 949.480 421.039, 957.258 425.813, 963.869 430.619, 969.338 435.440, 973.690 440.263, 976.955 445.074, 979.165 449.861, 980.353 454.689, 980.728 459.382, 980.926 464.030, 980.175 468.623, 978.514 473.154, 975.980 477.614, 972.612 481.996, 968.448 486.294, 963.527 490.503, 957.888 494.618, 951.565 498.634, 944.597 502.547, 937.017 506.355, 928.861 510.055, 920.162 513.644, 910.951 517.021, 901.538 517.121, 901.259 520.268, 891.767 520.484, 891.116 523.422, 881.557 523.731, 880.550 526.478, 870.935 526.862, 869.588 529.433, 859.924 529.876, 858.256 532.284, 848.550 532.773, 846.579 535.029, 836.837 535.551, 834.580 537.214, 826.893 " fill="none" stroke="rgb(0, 0, 0)" stroke-linecap="butt" stroke-linejoin="round" stroke-opacity="1.0" stroke-width="3.0" />
            <path d=" M 551.372, 745.622 551.699, 743.331 553.014, 733.418 553.536, 729.480 554.756, 719.555 555.258, 715.474 556.385, 705.538 556.863, 701.327 557.901, 691.381 558.352, 687.054 559.303, 677.099 559.727, 672.667 560.593, 662.705 560.986, 658.179 561.769, 648.210 562.131, 643.603 562.832, 633.628 563.161, 628.951 563.782, 618.970 564.077, 614.233 564.619, 604.247 564.879, 599.461 565.342, 589.472 565.566, 584.646 565.952, 574.654 566.140, 569.799 566.449, 559.804 566.599, 554.930 566.832, 544.933 566.945, 540.051 567.100, 530.052 567.176, 525.170 567.210, 520.795 " fill="none" stroke="rgb(0, 0, 0)" stroke-linecap="butt" stroke-linejoin="round" stroke-opacity="1.0" stroke-width="3.0" />
            <path d=" M 476.171, 99.296 471.455, 99.562 466.668, 100.820 461.818, 103.106 456.916, 106.454 451.976, 110.897 447.008, 116.463 442.029, 123.179 437.052, 131.067 432.259, 139.843 432.095, 140.144 427.777, 149.164 427.173, 150.425 423.273, 159.633 422.305, 161.916 419.690, 168.846 417.510, 174.620 414.308, 184.094 412.807, 188.532 409.900, 198.100 408.216, 203.639 405.575, 213.284 403.758, 219.923 403.134, 222.449 400.737, 232.157 399.453, 237.356 398.589, 241.235 396.415, 250.996 395.322, 255.902 393.355, 265.707 391.488, 275.011 391.386, 275.519 389.612, 285.360 387.838, 295.201 387.666, 296.153 386.073, 306.026 384.479, 315.898 384.181, 317.745 382.759, 327.643 381.336, 337.542 380.950, 340.226 380.881, 340.773 379.621, 350.693 378.361, 360.613 377.992, 363.518 376.888, 373.457 375.784, 383.396 375.324, 387.538 374.370, 397.492 373.415, 407.447 372.960, 412.195 372.259, 420.837 371.450, 430.805 370.915, 437.391 370.248, 447.368 369.581, 457.346 369.201, 463.024 368.673, 473.010 368.145, 482.996 367.828, 488.986 367.437, 498.979 367.046, 508.971 366.804, 515.168 366.549, 525.165 366.294, 535.162 366.133, 541.457 366.014, 551.456 365.895, 561.455 365.820, 567.739 365.837, 577.739 365.854, 587.738 365.865, 593.900 366.020, 603.898 366.175, 613.897 366.267, 619.828 366.561, 629.823 366.856, 639.819 367.021, 645.413 367.459, 655.403 367.897, 665.393 368.122, 670.548 368.707, 680.531 369.292, 690.514 369.562, 695.133 370.298, 705.106 371.035, 715.079 371.330, 719.070 372.224, 729.030 373.119, 738.990 373.413, 742.270 374.473, 752.213 375.533, 762.157 375.799, 764.649 377.033, 774.572 378.268, 784.496 378.471, 786.131 379.891, 796.030 381.310, 805.929 381.413, 806.651 382.587, 813.811 383.563, 819.770 384.608, 826.147 386.438, 835.978 388.037, 844.570 390.097, 854.355 390.288, 855.262 391.363, 860.367 391.680, 861.876 393.992, 871.605 395.519, 878.032 398.108, 887.691 399.274, 892.044 399.534, 893.011 402.430, 902.583 403.704, 906.796 406.944, 916.256 408.011, 919.374 411.638, 928.694 412.143, 929.990 412.436, 930.744 416.503, 939.879 416.959, 940.905 421.563, 949.868 426.230, 957.646 430.944, 964.258 435.688, 969.725 440.449, 974.075 445.211, 977.337 449.962, 979.543 454.689, 980.728 " fill="none" stroke="rgb(0, 0, 0)" stroke-linecap="butt" stroke-linejoin="round" stroke-opacity="1.0" stroke-width="3.0" />
            <path d=" M 565.289, 522.747 565.301, 521.114 565.312, 520.762 565.350, 519.482 565.426, 518.033 565.434, 517.880 565.553, 516.335 565.703, 514.874 565.884, 513.521 566.091, 512.300 566.105, 512.234 566.320, 511.231 566.569, 510.332 566.832, 509.618 567.105, 509.101 567.292, 508.890 567.383, 508.788 567.662, 508.685 " fill="none" stroke="rgb(0, 0, 0)" stroke-linecap="butt" stroke-linejoin="round" stroke-opacity="1.0" stroke-width="3.0" />
            <path d=" M 567.995, 520.809 567.986, 520.305 567.962, 519.824 567.925, 519.381 567.875, 518.987 567.813, 518.653 567.742, 518.388 567.663, 518.199 567.579, 518.092 567.491, 518.069 " fill="none" stroke="rgb(0, 0, 0)" stroke-linecap="butt" stroke-linejoin="round" stroke-opacity="1.0" stroke-width="3.0" />
            <path d=" M 531.040, 475.119 531.080, 480.771 531.295, 480.773 536.645, 480.841 536.853, 480.736 536.669, 475.156 531.293, 474.999 531.101, 475.090 531.040, 475.119 " fill="none" stroke="rgb(0, 0, 0)" stroke-linecap="butt" stroke-linejoin="round" stroke-opacity="1.0" stroke-width="3.0" />
            <path d=" M 536.608, 475.186 531.040, 475.119 " fill="none" stroke="rgb(0, 0, 0)" stroke-linecap="butt" stroke-linejoin="round" stroke-opacity="1.0" stroke-width="3.0" />
            <path d=" M 536.645, 480.841 536.608, 475.186 536.669, 475.156 " fill="none" stroke="rgb(0, 0, 0)" stroke-linecap="butt" stroke-linejoin="round" stroke-opacity="1.0" stroke-width="3.0" />
            <path d=" M 533.026, 477.194 532.996, 477.229 532.890, 477.365 532.789, 477.559 532.727, 477.769 532.707, 477.987 532.733, 478.218 532.802, 478.433 532.911, 478.626 533.053, 478.792 533.068, 478.807 533.237, 478.940 533.428, 479.037 533.452, 479.045 533.647, 479.099 533.667, 479.102 533.693, 479.105 533.726, 479.108 533.764, 479.109 533.807, 479.110 533.850, 479.111 533.892, 479.110 533.932, 479.108 533.970, 479.106 534.003, 479.103 534.030, 479.100 534.051, 479.096 534.163, 479.069 534.244, 479.040 534.312, 479.014 " fill="none" stroke="rgb(0, 0, 0)" stroke-linecap="butt" stroke-linejoin="round" stroke-opacity="1.0" stroke-width="3.0" />
            <path d=" M 533.234, 477.021 533.194, 477.052 533.055, 477.169 533.026, 477.194 533.107, 477.117 " fill="none" stroke="rgb(0, 0, 0)" stroke-linecap="butt" stroke-linejoin="round" stroke-opacity="1.0" stroke-width="3.0" />
            <path d=" M 534.312, 479.014 534.451, 478.939 534.577, 478.843 534.689, 478.731 534.783, 478.603 534.858, 478.462 534.913, 478.312 534.945, 478.154 534.956, 477.994 534.943, 477.833 534.908, 477.674 534.852, 477.523 534.775, 477.380 534.679, 477.250 534.565, 477.134 534.438, 477.036 534.298, 476.957 534.148, 476.899 533.993, 476.863 533.834, 476.849 533.676, 476.859 533.521, 476.891 533.373, 476.946 533.234, 477.021 533.107, 477.117 " fill="none" stroke="rgb(0, 0, 0)" stroke-linecap="butt" stroke-linejoin="round" stroke-opacity="1.0" stroke-width="3.0" />
            <path d=" M 624.399, 883.741 626.575, 884.234 634.489, 885.796 642.401, 886.614 650.295, 886.704 658.152, 886.084 665.958, 884.774 673.698, 882.794 681.357, 880.164 688.923, 876.906 696.384, 873.041 703.729, 868.591 710.946, 863.578 718.026, 858.025 724.960, 851.953 731.739, 845.384 738.357, 838.340 744.805, 830.843 751.009, 823.000 751.078, 822.913 756.975, 814.837 757.169, 814.572 762.770, 806.287 763.073, 805.839 768.388, 797.369 768.785, 796.736 773.824, 788.099 774.300, 787.282 779.073, 778.495 779.615, 777.496 784.130, 768.574 784.725, 767.398 788.991, 758.353 789.628, 757.005 793.653, 747.850 794.319, 746.335 798.110, 737.082 798.796, 735.407 802.361, 726.063 803.057, 724.237 806.401, 714.812 807.100, 712.842 810.228, 703.344 810.921, 701.239 813.839, 691.674 814.520, 689.443 817.232, 679.818 817.893, 677.471 820.404, 667.791 821.040, 665.337 823.353, 655.608 823.960, 653.057 826.078, 643.284 826.649, 640.646 828.576, 630.833 829.108, 628.118 830.845, 618.270 831.335, 615.488 832.884, 605.608 833.329, 602.769 834.691, 592.862 835.088, 589.976 836.265, 580.046 836.611, 577.123 837.603, 567.173 837.897, 564.224 838.706, 554.256 838.946, 551.291 839.570, 541.311 839.756, 538.340 840.196, 528.350 840.326, 525.384 840.581, 515.387 840.656, 512.436 840.723, 502.436 840.743, 499.510 840.623, 489.511 840.588, 486.621 840.278, 476.626 840.189, 473.782 839.687, 463.795 839.546, 461.008 838.848, 451.032 838.658, 448.313 837.761, 438.353 837.524, 435.712 836.425, 425.772 836.142, 423.219 834.837, 413.305 834.514, 410.851 832.997, 400.967 832.637, 398.622 830.904, 388.773 830.512, 386.549 828.556, 376.742 828.138, 374.647 825.953, 364.889 825.515, 362.934 823.093, 353.232 822.642, 351.426 819.976, 341.788 819.521, 340.142 816.602, 330.577 816.150, 329.098 812.969, 319.618 812.531, 318.314 809.078, 308.929 808.665, 307.808 804.927, 298.533 804.552, 297.600 800.519, 288.449 800.193, 287.710 795.852, 278.701 795.591, 278.157 790.929, 269.310 790.747, 268.964 785.750, 260.301 785.663, 260.150 780.344, 251.739 774.792, 243.751 769.010, 236.211 763.005, 229.139 756.780, 222.560 750.341, 216.497 743.696, 210.974 736.852, 206.014 729.816, 201.640 722.599, 197.876 715.209, 194.745 707.657, 192.270 699.956, 190.473 692.119, 189.375 684.159, 188.997 676.091, 189.359 673.862, 189.549 " fill="none" stroke="rgb(0, 0, 0)" stroke-linecap="butt" stroke-linejoin="round" stroke-opacity="1.0" stroke-width="3.0" />
            <path d=" M 626.575, 884.234 625.926, 884.043 618.677, 881.911 610.815, 878.813 603.009, 874.928 595.280, 870.246 587.650, 864.758 580.140, 858.459 572.946, 851.512 572.773, 851.345 566.051, 843.942 565.574, 843.417 559.318, 835.615 558.565, 834.676 552.767, 826.528 551.771, 825.129 546.419, 816.682 545.217, 814.785 541.153, 807.597 538.925, 803.657 538.698, 803.207 537.301, 800.440 532.922, 791.762 532.499, 790.823 531.754, 789.169 531.117, 787.753 527.229, 779.120 526.258, 776.697 523.443, 769.677 521.871, 765.756 521.820, 765.613 518.469, 756.191 516.871, 751.696 513.875, 742.155 512.249, 736.975 509.597, 727.333 508.027, 721.627 507.869, 720.964 505.548, 711.237 504.225, 705.692 502.225, 695.894 500.861, 689.214 499.171, 679.358 497.951, 672.240 496.563, 662.337 495.510, 654.820 494.416, 644.880 493.551, 637.007 492.745, 627.039 492.085, 618.858 491.562, 608.871 491.120, 600.430 490.876, 590.433 490.664, 581.785 490.694, 571.785 490.720, 562.984 491.022, 552.989 491.290, 544.092 491.862, 534.108 492.374, 525.171 492.854, 519.480 493.567, 511.030 493.754, 508.806 493.967, 506.286 495.076, 496.348 496.064, 487.502 497.444, 477.598 498.658, 468.882 500.309, 459.020 501.737, 450.489 503.662, 440.676 505.289, 432.384 506.935, 425.097 509.137, 415.343 509.299, 414.626 511.784, 404.940 513.751, 397.272 516.523, 387.664 518.626, 380.375 521.691, 370.857 523.903, 363.988 527.269, 354.571 529.562, 348.158 530.969, 344.595 534.555, 335.518 535.578, 332.929 539.569, 323.760 540.498, 321.625 541.928, 318.342 542.713, 316.702 543.159, 315.771 544.216, 313.561 548.535, 304.542 548.586, 304.434 550.115, 301.529 551.616, 298.674 553.733, 294.650 554.012, 294.119 554.387, 293.406 554.496, 293.200 555.528, 291.238 560.532, 282.580 562.726, 278.783 568.090, 270.343 570.155, 267.093 575.890, 258.901 577.788, 256.189 580.933, 252.122 585.598, 246.090 592.108, 238.499 593.559, 236.807 600.469, 229.579 601.645, 228.349 608.962, 221.533 609.830, 220.724 617.555, 214.374 618.090, 213.933 626.218, 208.108 626.401, 207.977 634.739, 202.850 643.082, 198.547 651.408, 195.058 659.698, 192.374 667.932, 190.479 675.123, 189.492 676.091, 189.359 " fill="none" stroke="rgb(0, 0, 0)" stroke-linecap="butt" stroke-linejoin="round" stroke-opacity="1.0" stroke-width="3.0" />
            <path d=" M 673.862, 189.549 665.692, 190.669 657.448, 192.563 649.147, 195.247 640.811, 198.734 632.458, 203.034 624.110, 208.157 615.977, 213.975 615.790, 214.109 608.059, 220.452 607.520, 220.894 600.197, 227.703 599.326, 228.512 592.409, 235.733 591.232, 236.961 584.715, 244.546 583.263, 246.236 579.089, 251.624 578.980, 251.764 578.961, 251.788 575.446, 256.326 569.703, 264.513 567.806, 267.218 562.435, 275.653 560.370, 278.896 555.359, 287.550 554.032, 289.841 553.626, 290.544 553.166, 291.338 552.941, 291.764 551.130, 295.201 549.625, 298.057 546.219, 304.520 543.661, 309.852 542.166, 312.969 539.555, 318.413 537.961, 322.069 533.963, 331.235 533.200, 332.984 532.442, 334.899 530.288, 340.344 527.180, 348.196 523.809, 357.611 522.990, 359.899 521.518, 364.009 520.621, 366.792 517.551, 376.309 516.238, 380.377 513.462, 389.984 511.361, 397.255 508.872, 406.940 506.907, 414.589 504.701, 424.343 502.895, 432.327 500.968, 442.139 499.342, 450.411 497.689, 460.274 496.263, 468.783 494.882, 478.687 494.210, 483.512 493.672, 487.368 493.670, 487.381 492.560, 497.320 491.574, 506.144 491.503, 506.978 491.463, 507.455 491.165, 510.990 490.680, 516.737 490.452, 519.437 490.320, 521.000 489.982, 525.007 489.411, 534.990 488.901, 543.906 488.600, 553.901 488.333, 562.777 488.305, 572.777 488.280, 581.557 488.526, 591.553 488.739, 600.181 489.265, 610.167 489.708, 618.588 490.516, 628.555 491.178, 636.717 492.275, 646.657 493.142, 654.510 494.534, 664.413 495.588, 671.912 497.283, 681.767 498.504, 688.868 500.510, 698.665 501.875, 705.329 504.202, 715.055 505.683, 721.248 506.985, 725.967 507.194, 726.723 509.852, 736.363 509.912, 736.581 512.914, 746.119 514.541, 751.288 517.900, 760.707 519.403, 764.922 519.549, 765.334 522.724, 773.233 524.915, 778.687 525.547, 780.086 529.661, 789.201 530.469, 790.992 530.616, 791.318 531.873, 793.802 536.387, 802.726 536.629, 803.203 536.726, 803.374 538.150, 805.888 540.638, 810.279 542.929, 814.322 548.290, 822.764 549.493, 824.658 555.299, 832.800 556.296, 834.198 562.560, 841.994 563.315, 842.934 570.044, 850.330 570.524, 850.858 577.724, 857.798 577.901, 857.968 585.421, 864.265 593.062, 869.751 600.802, 874.432 608.618, 878.318 616.491, 881.416 624.399, 883.741 " fill="none" stroke="rgb(0, 0, 0)" stroke-linecap="butt" stroke-linejoin="round" stroke-opacity="1.0" stroke-width="3.0" />
            <path d=" M 788.482, 559.384 778.498, 558.831 777.745, 558.789 773.285, 556.719 764.215, 552.508 755.144, 548.297 754.148, 547.835 753.462, 547.515 752.774, 547.196 752.085, 546.876 751.397, 546.556 750.597, 546.049 749.848, 545.297 749.165, 544.315 748.561, 543.121 748.050, 541.738 747.641, 540.192 747.342, 538.511 747.158, 536.730 747.094, 534.881 747.150, 533.000 747.326, 531.125 747.543, 529.766 747.618, 529.292 747.938, 527.896 748.021, 527.535 748.526, 525.889 749.124, 524.385 749.421, 523.802 749.803, 523.053 750.550, 521.917 750.955, 521.453 751.003, 521.397 751.128, 521.254 751.350, 520.999 752.187, 520.317 752.900, 519.846 753.614, 519.376 754.326, 518.906 754.558, 518.753 755.037, 518.438 755.395, 518.203 756.500, 517.476 764.855, 511.982 773.211, 506.488 779.534, 502.330 " fill="none" stroke="rgb(0, 0, 0)" stroke-linecap="butt" stroke-linejoin="round" stroke-opacity="1.0" stroke-width="3.0" />
            <path d=" M 686.868, 269.764 679.443, 269.972 678.505, 269.998 675.005, 270.438 670.054, 271.060 661.542, 272.971 657.531, 274.271 652.995, 275.741 644.440, 279.371 635.904, 283.851 627.412, 289.174 619.353, 295.094 618.999, 295.355 611.376, 301.828 610.699, 302.403 603.524, 309.369 602.548, 310.317 595.822, 317.717 594.581, 319.083 588.295, 326.861 586.828, 328.678 580.969, 336.782 579.317, 339.067 573.868, 347.452 572.075, 350.211 567.452, 358.124 567.030, 358.845 565.136, 362.087 563.842, 364.555 562.270, 367.556 559.635, 372.583 559.109, 373.586 558.540, 374.671 558.037, 375.744 554.888, 382.461 553.314, 385.818 552.571, 387.401 552.324, 387.929 550.974, 391.160 547.118, 400.387 546.520, 401.817 544.611, 406.964 543.033, 411.218 541.155, 416.281 539.525, 421.258 536.413, 430.761 536.250, 431.261 533.488, 440.872 531.817, 446.690 530.170, 453.297 527.874, 462.509 525.801, 472.292 524.451, 478.662 522.725, 488.512 521.573, 495.086 520.269, 504.452 519.259, 511.712 519.237, 511.923 519.057, 513.648 518.680, 517.281 518.185, 522.048 517.518, 528.471 517.328, 531.212 516.637, 541.188 516.353, 545.289 515.999, 555.282 515.758, 562.095 515.737, 572.095 515.723, 578.897 516.022, 588.893 516.221, 595.540 516.844, 605.521 517.246, 611.954 518.201, 621.909 518.792, 628.071 519.072, 630.217 520.367, 640.133 520.656, 642.348 520.849, 643.824 522.492, 653.688 523.402, 659.150 525.404, 668.948 526.366, 673.651 526.435, 673.992 528.810, 683.706 529.932, 688.293 532.694, 697.904 533.871, 702.000 534.257, 703.155 534.565, 704.081 534.792, 704.761 536.158, 708.856 537.136, 711.786 538.231, 715.069 541.751, 724.240 542.986, 727.457 543.173, 727.881 543.411, 728.424 544.829, 731.649 547.677, 738.130 548.114, 739.124 548.487, 739.868 549.116, 741.122 551.372, 745.622 553.587, 750.039 558.547, 758.722 559.376, 760.174 564.835, 768.552 565.456, 769.505 571.433, 777.522 571.798, 778.012 578.305, 785.604 578.372, 785.682 585.151, 792.507 592.106, 798.478 599.209, 803.594 606.433, 807.860 613.751, 811.278 613.818, 811.302 621.138, 813.858 628.568, 815.610 636.018, 816.550 643.463, 816.693 650.883, 816.057 658.256, 814.664 665.563, 812.534 672.785, 809.690 679.904, 806.156 686.905, 801.957 693.772, 797.120 700.490, 791.669 707.047, 785.631 713.430, 779.033 719.627, 771.903 725.629, 764.264 731.426, 756.147 736.884, 747.767 737.009, 747.576 742.127, 738.985 742.369, 738.578 747.160, 729.801 747.500, 729.179 751.977, 720.237 752.394, 719.404 756.569, 710.318 757.046, 709.280 760.929, 700.065 761.450, 698.831 765.051, 689.501 765.599, 688.080 768.928, 678.651 769.492, 677.055 772.555, 667.536 773.121, 665.777 775.927, 656.179 776.485, 654.270 779.038, 644.602 779.578, 642.558 781.886, 632.828 782.399, 630.664 784.465, 620.879 784.944, 618.610 786.771, 608.778 787.210, 606.418 788.803, 596.545 789.195, 594.111 790.555, 584.204 790.898, 581.711 792.027, 571.775 792.315, 569.240 793.214, 559.280 793.445, 556.719 794.114, 546.742 794.287, 544.171 794.602, 537.021 " fill="none" stroke="rgb(0, 0, 0)" stroke-linecap="butt" stroke-linejoin="round" stroke-opacity="1.0" stroke-width="3.0" />
            <path d=" M 779.534, 502.330 789.497, 503.198 790.287, 503.267 " fill="none" stroke="rgb(0, 0, 0)" stroke-linecap="butt" stroke-linejoin="round" stroke-opacity="1.0" stroke-width="3.0" />
            <path d=" M 824.797, 518.665 824.746, 508.665 824.745, 508.442 824.429, 498.447 824.348, 495.874 823.761, 485.891 823.614, 483.389 822.752, 473.427 822.543, 471.013 822.068, 466.879 821.135, 458.768 819.713, 448.870 819.397, 446.676 817.693, 436.822 817.335, 434.753 815.339, 424.954 814.947, 423.026 812.645, 413.295 812.227, 411.526 809.606, 401.875 809.173, 400.281 806.219, 390.727 805.785, 389.321 802.489, 379.880 802.067, 378.671 798.421, 369.359 798.027, 368.353 794.025, 359.188 793.673, 358.383 789.305, 349.387 789.012, 348.783 784.257, 339.986 784.044, 339.590 778.881, 331.026 778.769, 330.841 773.193, 322.567 767.323, 314.799 761.172, 307.559 754.750, 300.865 748.072, 294.730 741.146, 289.191 733.982, 284.290 726.592, 280.060 719.044, 276.556 718.992, 276.532 711.201, 273.727 703.237, 271.657 695.119, 270.330 686.868, 269.764 " fill="none" stroke="rgb(0, 0, 0)" stroke-linecap="butt" stroke-linejoin="round" stroke-opacity="1.0" stroke-width="3.0" />
            <path d=" M 657.531, 274.271 661.345, 275.986 667.522, 279.542 673.519, 283.783 679.324, 288.676 684.928, 294.187 690.324, 300.274 695.505, 306.902 700.461, 314.055 705.183, 321.716 709.663, 329.863 713.895, 338.467 717.877, 347.495 721.559, 356.792 721.606, 356.912 724.961, 366.332 725.085, 366.682 728.126, 376.209 728.310, 376.785 731.044, 386.404 731.272, 387.204 733.711, 396.902 733.967, 397.919 736.123, 407.684 736.393, 408.906 738.278, 418.727 738.549, 420.137 740.177, 430.004 740.438, 431.584 741.823, 441.488 742.065, 443.218 743.216, 453.152 743.432, 455.015 744.351, 464.973 744.534, 466.959 745.222, 476.935 745.366, 479.029 745.827, 489.018 745.928, 491.204 746.167, 501.201 746.220, 503.463 746.234, 509.679 746.085, 510.901 745.881, 512.098 745.622, 513.258 745.312, 514.369 744.952, 515.418 744.548, 516.395 744.103, 517.291 743.621, 518.094 743.109, 518.797 742.570, 519.392 742.012, 519.874 741.439, 520.237 740.857, 520.477 740.273, 520.592 733.453, 521.224 " fill="none" stroke="rgb(0, 0, 0)" stroke-linecap="butt" stroke-linejoin="round" stroke-opacity="1.0" stroke-width="3.0" />
            <path d=" M 800.257, 536.016 801.029, 536.065 803.239, 536.207 812.885, 535.087 814.827, 534.862 822.623, 533.957 824.547, 533.733 824.583, 533.730 830.673, 533.171 830.886, 523.173 830.955, 519.921 830.908, 509.921 830.893, 506.707 830.584, 496.712 830.486, 493.553 829.911, 483.570 829.733, 480.483 828.887, 470.519 828.633, 467.520 827.512, 457.583 827.186, 454.688 825.784, 444.786 825.391, 442.011 823.702, 432.155 823.250, 429.515 821.265, 419.714 820.761, 417.225 818.473, 407.490 817.927, 405.165 815.327, 395.509 814.748, 393.362 814.087, 391.199 811.227, 381.844 807.969, 372.389 807.392, 370.716 807.364, 370.636 803.761, 361.308 803.164, 359.765 799.202, 350.583 798.630, 349.259 794.294, 340.248 793.765, 339.149 789.042, 330.334 788.574, 329.460 783.450, 320.873 783.063, 320.223 782.112, 318.794 777.238, 311.468 776.273, 310.171 771.106, 303.224 764.676, 295.520 757.956, 288.387 750.958, 281.855 743.692, 275.955 736.172, 270.714 728.412, 266.162 720.427, 262.329 712.234, 259.242 703.852, 256.926 695.301, 255.409 686.602, 254.714 676.602, 254.633 666.863, 254.554 " fill="none" stroke="rgb(0, 0, 0)" stroke-linecap="butt" stroke-linejoin="round" stroke-opacity="1.0" stroke-width="3.0" />
            <path d=" M 686.602, 254.714 677.778, 254.861 674.344, 255.250 668.855, 255.872 661.403, 257.440 659.858, 257.765 650.815, 260.554 641.755, 264.249 632.846, 268.790 632.709, 268.860 624.190, 274.098 623.709, 274.394 615.607, 280.256 614.788, 280.849 607.119, 287.267 605.979, 288.221 598.752, 295.133 597.318, 296.504 590.535, 303.852 588.841, 305.687 582.496, 313.416 580.582, 315.749 574.670, 323.814 572.578, 326.669 567.092, 335.029 564.866, 338.420 564.361, 339.279 563.877, 340.102 560.434, 345.953 557.697, 350.603 557.481, 350.969 556.124, 353.542 551.456, 362.385 550.469, 364.256 550.457, 364.278 548.889, 367.597 544.616, 376.638 543.829, 378.302 539.942, 387.516 537.629, 392.996 537.179, 394.198 533.668, 403.561 531.889, 408.305 528.746, 417.798 526.636, 424.171 523.855, 433.776 521.898, 440.533 519.473, 450.234 517.701, 457.325 515.627, 467.108 514.064, 474.479 512.337, 484.329 511.006, 491.923 509.625, 501.828 508.544, 509.583 508.166, 513.209 507.129, 523.155 506.689, 527.384 505.996, 537.360 505.449, 545.248 505.102, 555.242 504.829, 563.098 " fill="none" stroke="rgb(0, 0, 0)" stroke-linecap="butt" stroke-linejoin="round" stroke-opacity="1.0" stroke-width="3.0" />
            <path d=" M 756.500, 517.476 756.511, 516.472 756.612, 513.652 756.564, 513.871 756.255, 514.987 755.897, 516.041 755.495, 517.024 755.053, 517.923 754.575, 518.731 754.558, 518.753 " fill="none" stroke="rgb(0, 0, 0)" stroke-linecap="butt" stroke-linejoin="round" stroke-opacity="1.0" stroke-width="3.0" />
            <path d=" M 806.282, 525.359 808.028, 525.170 808.544, 525.062 809.057, 524.844 809.565, 524.520 810.063, 524.094 810.547, 523.570 811.014, 522.954 811.459, 522.250 811.879, 521.465 812.272, 520.605 812.634, 519.678 812.963, 518.689 813.255, 517.647 813.459, 516.771 813.509, 516.560 813.721, 515.435 823.133, 518.180 824.797, 518.665 824.615, 519.350 824.289, 520.344 823.929, 521.277 823.539, 522.141 823.122, 522.930 823.015, 523.102 822.681, 523.637 822.218, 524.257 821.739, 524.784 821.245, 525.212 820.742, 525.538 820.233, 525.758 819.723, 525.867 813.591, 526.545 807.098, 527.263 806.614, 525.997 806.282, 525.359 806.045, 524.904 805.398, 524.002 804.686, 523.306 803.920, 522.828 803.112, 522.577 799.819, 522.384 798.982, 522.335 791.242, 521.882 790.399, 521.862 790.344, 521.876 789.543, 522.074 788.688, 522.513 788.687, 522.514 787.882, 523.178 787.145, 524.056 786.453, 525.131 785.818, 526.385 785.250, 527.798 784.760, 529.344 784.357, 530.998 784.047, 532.731 783.835, 534.514 783.726, 536.316 789.693, 536.703 789.916, 536.717 794.602, 537.021 795.649, 537.089 800.017, 536.581 800.220, 536.558 800.257, 536.016 800.259, 535.985 800.339, 535.423 800.456, 534.888 800.607, 534.400 800.609, 534.393 800.792, 533.953 801.001, 533.580 801.148, 533.388 801.229, 533.283 801.471, 533.071 801.721, 532.949 801.970, 532.921 " fill="none" stroke="rgb(0, 0, 0)" stroke-linecap="butt" stroke-linejoin="round" stroke-opacity="1.0" stroke-width="3.0" />
            <path d=" M 773.285, 556.719 772.373, 566.677 772.305, 567.430 771.154, 577.363 770.876, 579.771 769.486, 589.674 769.154, 592.041 767.523, 601.907 767.142, 604.216 765.269, 614.039 764.843, 616.276 762.724, 626.049 762.258, 628.197 759.890, 637.913 759.392, 639.958 756.771, 649.608 756.247, 651.536 753.368, 661.112 752.828, 662.908 749.683, 672.401 749.137, 674.051 745.722, 683.450 745.179, 684.942 741.486, 694.235 740.960, 695.558 736.980, 704.732 736.484, 705.874 732.206, 714.913 731.756, 715.866 727.172, 724.753 726.783, 725.509 721.882, 734.226 721.571, 734.779 716.341, 743.302 716.128, 743.649 710.555, 751.953 710.460, 752.095 704.578, 760.091 698.489, 767.611 692.204, 774.628 685.734, 781.115 679.091, 787.049 672.286, 792.402 665.334, 797.146 658.249, 801.259 651.046, 804.715 643.743, 807.488 636.357, 809.555 628.906, 810.896 621.411, 811.488 613.893, 811.311 613.818, 811.302 " fill="none" stroke="rgb(0, 0, 0)" stroke-linecap="butt" stroke-linejoin="round" stroke-opacity="1.0" stroke-width="3.0" />
            <path d=" M 789.916, 536.717 789.605, 543.807 788.886, 553.781 788.482, 559.384 779.432, 555.130 778.057, 554.483 773.617, 552.396 765.634, 548.644 764.954, 548.324 764.273, 548.003 763.590, 547.682 762.908, 547.361 762.116, 546.853 761.375, 546.099 760.698, 545.112 760.101, 543.913 759.596, 542.524 759.193, 540.970 758.897, 539.282 758.717, 537.492 758.702, 537.026 758.655, 535.634 758.713, 533.744 758.889, 531.860 759.147, 530.229 759.181, 530.017 759.391, 529.090 759.582, 528.251 760.084, 526.597 760.679, 525.086 761.353, 523.746 762.094, 522.604 762.888, 521.681 763.718, 520.995 764.425, 520.521 765.133, 520.048 765.840, 519.576 766.545, 519.104 766.900, 518.868 775.219, 513.319 779.619, 510.383 787.938, 504.834 790.287, 503.267 790.381, 513.266 790.394, 514.707 790.395, 519.323 790.344, 521.876 " fill="none" stroke="rgb(0, 0, 0)" stroke-linecap="butt" stroke-linejoin="round" stroke-opacity="1.0" stroke-width="3.0" />
            <path d=" M 764.656, 537.417 764.343, 537.305 764.055, 537.049 763.805, 536.659 763.603, 536.153 763.460, 535.553 763.380, 534.886 763.368, 534.180 763.423, 533.467 763.545, 532.778 763.727, 532.143 763.961, 531.590 764.237, 531.144 764.543, 530.823 764.865, 530.641 765.188, 530.609 " fill="none" stroke="rgb(0, 0, 0)" stroke-linecap="butt" stroke-linejoin="round" stroke-opacity="1.0" stroke-width="3.0" />
            <path d=" M 765.188, 530.609 765.501, 530.723 765.788, 530.982 766.037, 531.372 766.237, 531.877 766.380, 532.475 766.459, 533.141 766.471, 533.844 766.415, 534.554 766.294, 535.241 766.114, 535.874 765.881, 536.427 765.606, 536.874 765.301, 537.196 764.980, 537.380 764.656, 537.417 " fill="none" stroke="rgb(0, 0, 0)" stroke-linecap="butt" stroke-linejoin="round" stroke-opacity="1.0" stroke-width="3.0" />
            <path d=" M 800.017, 536.581 799.682, 544.164 799.012, 554.141 798.800, 557.298 797.902, 567.258 797.618, 570.404 796.491, 580.341 796.137, 583.460 794.779, 593.368 794.358, 596.444 792.769, 606.317 792.284, 609.333 790.461, 619.165 789.916, 622.105 787.857, 631.891 787.257, 634.739 784.957, 644.470 784.309, 647.210 781.764, 656.880 781.076, 659.495 778.280, 669.097 777.559, 671.573 774.507, 681.095 773.763, 683.417 770.447, 692.851 769.690, 695.003 766.103, 704.338 765.346, 706.309 761.479, 715.531 760.735, 717.307 756.578, 726.402 755.860, 727.971 751.404, 736.923 750.730, 738.277 745.961, 747.067 745.348, 748.197 740.256, 756.803 739.723, 757.704 734.293, 766.101 733.860, 766.770 728.080, 774.930 727.770, 775.368 721.625, 783.258 721.460, 783.470 714.940, 791.046 708.221, 798.068 701.315, 804.508 694.234, 810.337 686.992, 815.525 679.603, 820.045 672.084, 823.870 664.451, 826.971 656.724, 829.322 648.920, 830.899 641.063, 831.678 633.172, 831.635 625.272, 830.749 617.387, 829.006 609.543, 826.385 601.766, 822.874 594.083, 818.464 586.524, 813.149 579.118, 806.923 572.004, 799.896 571.895, 799.788 565.322, 792.252 564.884, 791.750 558.846, 783.779 558.118, 782.817 552.601, 774.477 551.626, 773.003 548.198, 767.089 545.838, 763.017 545.439, 762.328 544.380, 760.245 539.849, 751.330 539.692, 751.022 539.588, 750.817 538.257, 747.829 534.188, 738.694 534.101, 738.498 533.479, 736.898 530.539, 729.339 529.009, 725.404 525.808, 715.931 524.337, 711.578 521.542, 701.977 520.112, 697.064 517.707, 687.358 516.358, 681.911 514.671, 673.766 513.099, 666.174 511.433, 656.314 510.352, 649.914 509.038, 640.000 508.135, 633.193 507.164, 623.240 506.465, 616.079 505.828, 606.099 505.353, 598.642 505.043, 588.647 504.805, 580.957 504.819, 570.957 504.829, 563.098 502.979, 553.271 501.285, 544.276 " fill="none" stroke="rgb(0, 0, 0)" stroke-linecap="butt" stroke-linejoin="round" stroke-opacity="1.0" stroke-width="3.0" />
            <path d=" M 666.863, 254.554 658.877, 254.660 656.135, 254.988 650.793, 255.627 642.634, 257.474 634.426, 260.215 626.195, 263.864 617.968, 268.430 609.775, 273.921 601.925, 280.116 601.646, 280.336 594.262, 287.079 593.612, 287.673 586.694, 294.894 585.705, 295.926 579.247, 303.560 577.958, 305.083 571.948, 313.075 570.405, 315.127 564.828, 323.427 563.077, 326.034 562.177, 327.529 561.646, 328.412 559.135, 332.585 556.346, 337.220 556.010, 337.779 554.782, 340.055 550.032, 348.855 549.237, 350.328 549.039, 350.736 547.471, 353.972 543.112, 362.972 542.789, 363.641 538.808, 372.815 536.698, 377.676 535.699, 380.253 532.085, 389.577 530.996, 392.385 527.737, 401.839 525.712, 407.713 522.798, 417.279 520.872, 423.600 518.296, 433.263 516.503, 439.985 514.257, 449.730 512.627, 456.802 510.706, 466.616 509.265, 473.979 507.665, 483.850 506.433, 491.444 505.152, 501.362 504.149, 509.124 503.737, 513.369 502.772, 523.322 502.422, 526.940 501.768, 536.919 501.285, 544.276 499.273, 554.071 497.433, 563.026 " fill="none" stroke="rgb(0, 0, 0)" stroke-linecap="butt" stroke-linejoin="round" stroke-opacity="1.0" stroke-width="3.0" />
            <path d=" M 497.416, 581.461 497.732, 591.456 497.992, 599.714 498.637, 609.694 499.154, 617.708 500.135, 627.660 500.894, 635.363 502.219, 645.275 503.200, 652.606 504.879, 662.464 506.054, 669.367 508.098, 679.156 509.440, 685.579 511.866, 695.294 513.335, 701.180 516.152, 710.775 517.718, 716.113 520.943, 725.578 522.561, 730.327 526.214, 739.636 527.838, 743.776 528.111, 744.384 531.126, 751.092 533.519, 756.417 536.030, 761.307 537.498, 764.169 539.576, 768.216 542.315, 772.896 543.795, 775.424 545.974, 779.146 546.196, 779.478 551.756, 787.790 552.685, 789.180 558.769, 797.116 559.676, 798.299 566.297, 805.793 566.914, 806.492 574.079, 813.468 574.368, 813.750 582.006, 820.067 589.797, 825.445 597.710, 829.889 605.716, 833.409 613.788, 836.013 621.897, 837.717 630.017, 838.542 638.123, 838.505 646.192, 837.627 654.202, 835.934 662.130, 833.452 669.959, 830.206 677.668, 826.223 685.242, 821.533 692.664, 816.165 699.918, 810.147 706.992, 803.508 713.873, 796.279 720.381, 788.687 720.550, 788.490 726.682, 780.590 727.011, 780.167 732.782, 772.000 733.247, 771.341 738.670, 762.940 739.249, 762.043 744.337, 753.434 745.009, 752.297 749.774, 743.506 750.519, 742.133 754.975, 733.181 755.773, 731.578 759.931, 722.484 760.764, 720.660 764.634, 711.439 765.488, 709.404 769.078, 700.071 769.938, 697.836 773.259, 688.404 774.111, 685.983 777.169, 676.462 778.002, 673.868 780.803, 664.268 781.606, 661.516 784.158, 651.847 784.922, 648.952 787.228, 639.222 787.945, 636.199 790.011, 626.415 790.673, 623.281 792.501, 613.449 793.102, 610.220 794.696, 600.348 795.231, 597.040 796.593, 587.133 797.057, 583.763 798.188, 573.827 798.578, 570.412 799.479, 560.452 799.791, 557.008 800.464, 547.031 800.697, 543.575 801.029, 536.065 " fill="none" stroke="rgb(0, 0, 0)" stroke-linecap="butt" stroke-linejoin="round" stroke-opacity="1.0" stroke-width="3.0" />
            <path d=" M 497.433, 563.026 497.424, 573.026 497.416, 581.461 " fill="none" stroke="rgb(0, 0, 0)" stroke-linecap="butt" stroke-linejoin="round" stroke-opacity="1.0" stroke-width="3.0" />
            <path d=" M 814.087, 391.199 812.903, 385.454 810.649, 375.712 810.367, 374.491 807.873, 364.807 807.596, 363.729 804.853, 354.112 804.588, 353.185 801.588, 343.646 801.346, 342.877 798.076, 333.426 797.868, 332.823 794.317, 323.475 794.154, 323.045 790.311, 313.813 790.206, 313.561 786.027, 304.388 781.620, 295.543 776.987, 287.043 772.132, 278.910 767.058, 271.161 761.768, 263.821 756.265, 256.912 750.554, 250.459 744.640, 244.480 738.532, 238.995 732.235, 234.023 725.757, 229.581 719.107, 225.692 712.294, 222.377 705.327, 219.659 698.216, 217.561 690.974, 216.105 683.613, 215.308 676.146, 215.182 673.927, 215.347 668.589, 215.743 660.955, 217.003 653.261, 218.978 645.525, 221.681 637.764, 225.124 629.999, 229.322 622.249, 234.282 614.536, 240.004 606.879, 246.487 599.647, 253.394 599.299, 253.726 598.288, 254.806 598.185, 254.916 598.184, 254.917 591.820, 261.717 590.504, 263.281 584.463, 270.455 581.272, 274.649 577.254, 279.930 571.576, 288.162 570.216, 290.133 564.906, 298.606 563.376, 301.049 558.438, 309.709 557.843, 310.753 556.916, 312.379 556.757, 312.658 554.132, 317.711 552.600, 320.661 551.096, 323.557 550.381, 324.933 546.838, 332.419 545.315, 335.636 544.270, 337.844 540.313, 347.028 538.446, 351.360 534.801, 360.672 533.665, 363.572 532.931, 365.447 529.590, 374.872 527.747, 380.070 524.703, 389.595 522.915, 395.189 520.163, 404.803 518.457, 410.763 515.991, 420.454 514.391, 426.746 512.204, 436.504 510.729, 443.087 508.817, 452.902 507.486, 459.734 505.845, 469.598 504.674, 476.635 503.304, 486.541 502.308, 493.737 501.205, 503.676 500.395, 510.984 500.016, 515.499 499.181, 525.464 498.941, 528.319 498.373, 538.303 497.953, 545.685 497.653, 555.681 497.433, 563.026 497.403, 573.026 497.382, 580.283 497.416, 581.461 497.656, 591.458 497.799, 597.402 498.318, 607.389 498.679, 614.327 499.479, 624.295 500.017, 631.004 501.104, 640.945 501.807, 647.380 503.187, 657.285 504.039, 663.406 505.718, 673.265 506.700, 679.035 508.685, 688.836 509.777, 694.222 511.161, 700.074 513.255, 708.925 515.888, 718.572 517.123, 723.099 520.098, 732.646 521.363, 736.709 524.690, 746.140 525.955, 749.725 526.796, 751.842 529.684, 759.113 530.878, 762.118 534.469, 770.178 535.863, 773.309 536.110, 773.863 540.588, 782.842 541.632, 784.937 542.007, 785.609 544.407, 789.911 547.424, 795.320 552.721, 803.802 553.465, 804.993 559.205, 813.182 559.735, 813.939 565.930, 821.789 566.213, 822.147 572.875, 829.615 579.698, 836.341 586.661, 842.326 593.742, 847.572 600.921, 852.080 608.180, 855.856 615.501, 858.904 622.864, 861.229 628.127, 862.380 630.253, 862.845 637.648, 863.769 645.033, 864.018 652.391, 863.608 659.710, 862.557 666.973, 860.879 674.169, 858.592 681.286, 855.709 688.310, 852.248 695.232, 848.230 702.039, 843.679 708.724, 838.617 715.277, 833.064 721.690, 827.040 727.955, 820.564 734.064, 813.653 740.012, 806.323 745.790, 798.593 751.394, 790.485 756.819, 782.020 761.936, 773.428 762.061, 773.217 766.909, 764.471 767.116, 764.096 771.703, 755.210 771.980, 754.674 776.314, 745.662 776.648, 744.966 780.736, 735.840 781.117, 734.989 784.964, 725.759 785.382, 724.757 788.996, 715.433 789.441, 714.287 792.830, 704.879 793.291, 703.597 796.462, 694.113 796.933, 692.705 799.890, 683.152 800.362, 681.626 803.111, 672.011 803.578, 670.376 806.122, 660.705 806.579, 658.969 808.921, 649.247 809.362, 647.419 811.504, 637.651 811.923, 635.739 813.868, 625.930 814.262, 623.944 816.014, 614.098 816.379, 612.049 817.940, 602.172 818.272, 600.069 819.644, 590.163 819.941, 588.017 821.124, 578.087 821.383, 575.906 822.377, 565.956 822.598, 563.751 823.404, 553.784 823.584, 551.565 824.202, 541.584 824.340, 539.361 824.583, 533.730 " fill="none" stroke="rgb(0, 0, 0)" stroke-linecap="butt" stroke-linejoin="round" stroke-opacity="1.0" stroke-width="3.0" />
            <path d=" M 673.915, 215.347 666.347, 215.908 658.703, 217.169 650.999, 219.143 643.253, 221.844 635.483, 225.285 627.708, 229.480 619.950, 234.436 612.227, 240.153 604.562, 246.630 597.323, 253.529 596.974, 253.862 596.178, 254.711 596.114, 254.780 596.045, 254.853 589.487, 261.846 584.982, 267.187 582.123, 270.575 576.061, 278.528 574.907, 280.041 574.558, 280.546 568.872, 288.773 567.863, 290.233 562.546, 298.702 561.016, 301.138 557.752, 306.853 557.144, 307.917 556.523, 309.004 554.392, 312.735 553.672, 314.117 552.159, 317.025 548.011, 324.996 546.324, 328.553 544.806, 331.755 541.895, 337.893 540.211, 341.796 536.247, 350.977 536.067, 351.394 533.077, 359.019 530.549, 365.466 527.202, 374.889 525.361, 380.072 522.312, 389.596 520.526, 395.174 517.770, 404.787 516.066, 410.731 513.597, 420.421 511.998, 426.696 509.808, 436.453 508.335, 443.018 506.420, 452.833 505.091, 459.646 503.448, 469.510 502.280, 476.527 500.907, 486.433 499.913, 493.609 498.810, 503.548 498.001, 510.836 497.488, 516.946 496.653, 526.911 496.549, 528.152 495.981, 538.135 495.562, 545.498 495.263, 555.494 495.044, 562.819 495.016, 572.819 494.996, 580.057 495.242, 590.054 495.416, 597.157 495.938, 607.143 496.300, 614.063 497.103, 624.031 497.642, 630.722 498.733, 640.662 499.437, 647.080 500.821, 656.984 501.674, 663.089 503.357, 672.946 504.340, 678.701 506.331, 688.501 507.422, 693.873 509.730, 703.603 510.292, 705.968 510.907, 708.560 513.546, 718.205 514.781, 722.720 517.763, 732.266 519.029, 736.317 522.363, 745.745 523.627, 749.321 526.126, 755.597 528.557, 761.702 529.015, 762.727 533.092, 771.858 533.798, 773.437 533.850, 773.541 535.293, 776.428 539.328, 784.502 540.056, 785.805 541.509, 788.403 543.914, 792.705 545.128, 794.877 550.433, 803.353 551.177, 804.542 556.925, 812.725 557.457, 813.482 563.660, 821.325 563.944, 821.685 570.615, 829.148 577.447, 835.871 584.419, 841.853 591.510, 847.096 598.700, 851.604 605.969, 855.380 613.299, 858.429 620.673, 860.755 628.071, 862.373 " fill="none" stroke="rgb(0, 0, 0)" stroke-linecap="butt" stroke-linejoin="round" stroke-opacity="1.0" stroke-width="3.0" />
            <path d=" M 676.146, 215.182 673.915, 215.347 " fill="none" stroke="rgb(0, 0, 0)" stroke-linecap="butt" stroke-linejoin="round" stroke-opacity="1.0" stroke-width="3.0" />
            <path d=" M 628.071, 862.373 630.253, 862.845 " fill="none" stroke="rgb(0, 0, 0)" stroke-linecap="butt" stroke-linejoin="round" stroke-opacity="1.0" stroke-width="3.0" />
            <path d=" M 479.199, 562.830 479.177, 572.830 479.155, 582.600 479.409, 592.597 479.654, 602.203 480.190, 612.189 480.694, 621.573 481.515, 631.539 482.265, 640.645 483.378, 650.582 484.360, 659.355 485.770, 669.255 486.965, 677.645 488.681, 687.497 490.067, 695.458 492.097, 705.249 493.649, 712.739 496.003, 722.458 497.693, 729.439 500.382, 739.071 502.180, 745.513 502.860, 747.646 504.692, 753.397 507.087, 760.918 510.483, 770.323 511.096, 772.023 512.393, 775.616 516.163, 784.878 518.074, 789.574 518.221, 789.897 518.810, 791.185 519.932, 793.639 521.285, 796.598 521.621, 797.333 524.104, 802.763 526.782, 807.986 528.185, 810.723 529.032, 812.373 530.410, 815.061 530.459, 815.157 533.233, 819.984 534.412, 822.035 534.653, 822.456 537.114, 826.737 537.214, 826.893 542.632, 835.298 544.041, 837.485 549.908, 845.583 551.216, 847.389 557.543, 855.132 558.611, 856.439 565.408, 863.775 566.202, 864.632 573.471, 871.499 573.963, 871.964 581.700, 878.300 581.869, 878.438 589.896, 884.058 598.019, 888.832 606.217, 892.769 614.467, 895.880 622.748, 898.182 627.074, 899.190 635.343, 900.690 643.604, 901.412 651.839, 901.374 660.031, 900.597 668.163, 899.102 676.219, 896.910 684.187, 894.044 692.052, 890.527 699.803, 886.383 707.427, 881.635 714.915, 876.306 722.255, 870.420 729.440, 864.001 736.461, 857.072 743.310, 849.655 749.771, 842.022 749.981, 841.774 756.127, 833.886 756.466, 833.451 762.309, 825.335 762.761, 824.707 768.310, 816.388 768.859, 815.564 774.125, 807.063 774.757, 806.044 779.750, 797.379 780.449, 796.165 785.178, 787.354 785.932, 785.950 790.407, 777.007 791.202, 775.416 795.431, 766.354 796.257, 764.583 800.246, 755.414 801.092, 753.470 804.850, 744.204 805.706, 742.095 809.239, 732.740 810.095, 730.475 813.411, 721.041 814.259, 718.628 817.361, 709.121 818.194, 706.569 821.089, 696.997 821.899, 694.316 824.591, 684.685 825.373, 681.885 827.865, 672.200 828.614, 669.290 830.910, 659.557 831.620, 656.548 833.723, 646.772 834.390, 643.673 836.303, 633.858 836.923, 630.680 838.648, 620.830 839.217, 617.583 840.757, 607.703 841.272, 604.398 842.628, 594.490 843.086, 591.137 844.259, 581.206 844.659, 577.814 845.649, 567.863 845.989, 564.445 846.796, 554.477 847.075, 551.042 847.700, 541.061 847.916, 537.619 848.358, 527.628 848.511, 524.190 848.770, 514.193 848.859, 510.768 848.934, 500.769 848.960, 497.369 848.849, 487.370 848.812, 484.005 848.513, 474.010 848.413, 470.691 847.924, 460.703 847.764, 457.441 847.082, 447.465 846.864, 444.270 845.985, 434.309 845.711, 431.193 844.632, 421.251 844.304, 418.224 843.021, 408.306 842.643, 405.379 841.151, 395.490 840.727, 392.673 839.021, 382.820 838.555, 380.124 836.629, 370.311 836.126, 367.747 833.975, 357.981 833.441, 355.559 831.056, 345.848 830.499, 343.578 827.873, 333.929 827.299, 331.822 824.423, 322.244 823.842, 320.309 820.707, 310.813 820.128, 309.058 816.724, 299.655 816.157, 298.088 812.473, 288.791 811.930, 287.420 807.955, 278.244 807.448, 277.074 803.170, 268.036 802.713, 267.071 798.117, 258.190 797.726, 257.434 792.799, 248.731 792.489, 248.183 787.218, 239.685 787.005, 239.342 781.375, 231.078 781.277, 230.934 775.309, 222.983 769.105, 215.513 762.670, 208.548 756.010, 202.113 749.131, 196.234 742.040, 190.935 734.746, 186.241 727.257, 182.177 719.583, 178.770 711.736, 176.043 703.727, 174.020 695.569, 172.725 687.278, 172.180 678.867, 172.408 674.431, 172.818 665.895, 173.840 657.275, 175.672 648.590, 178.331 639.860, 181.832 631.107, 186.189 622.519, 191.313 622.352, 191.413 614.154, 197.138 613.620, 197.510 605.825, 203.773 604.936, 204.487 597.549, 211.227 596.324, 212.345 589.345, 219.508 587.811, 221.083 581.237, 228.619 579.424, 230.696 573.246, 238.560 571.191, 241.175 566.854, 247.280 563.141, 252.507 557.724, 260.913 555.301, 264.675 551.348, 271.427 549.120, 275.232 548.345, 276.555 548.338, 276.568 548.281, 276.665 547.700, 277.658 546.800, 279.348 544.432, 283.794 543.834, 284.918 542.353, 287.698 540.559, 291.069 540.367, 291.429 539.089, 294.068 534.730, 303.068 533.329, 305.961 533.226, 306.195 531.797, 309.442 527.770, 318.595 526.866, 320.649 526.616, 321.216 522.909, 330.504 520.253, 337.158 518.621, 341.680 515.227, 351.086 514.267, 353.744 511.176, 363.254 508.683, 370.925 505.889, 380.527 503.525, 388.652 501.021, 398.333 498.814, 406.869 496.595, 416.620 494.570, 425.520 493.941, 428.704 492.061, 438.221 490.812, 444.542 489.151, 454.404 487.556, 463.874 486.170, 473.778 484.816, 483.450 483.702, 493.388 482.603, 503.202 482.253, 507.342 481.411, 517.306 481.164, 520.231 481.079, 521.235 480.925, 523.062 480.355, 533.045 479.789, 542.961 479.492, 552.956 479.353, 557.635 479.199, 562.830 " fill="none" stroke="rgb(0, 0, 0)" stroke-linecap="butt" stroke-linejoin="round" stroke-opacity="1.0" stroke-width="3.0" />
            <path d=" M 678.867, 172.408 670.354, 173.428 661.757, 175.260 653.094, 177.921 644.385, 181.426 635.653, 185.788 627.074, 190.926 626.919, 191.019 618.730, 196.759 618.207, 197.126 610.423, 203.403 609.541, 204.114 602.167, 210.869 600.947, 211.986 593.983, 219.162 592.452, 220.740 585.892, 228.288 584.082, 230.371 577.919, 238.246 575.865, 240.870 570.297, 248.737 567.829, 252.225 562.427, 260.640 560.003, 264.417 554.964, 273.055 552.415, 277.427 552.286, 277.669 550.759, 280.548 550.035, 281.912 549.334, 283.234 547.844, 286.042 545.093, 291.228 541.775, 298.104 540.302, 301.158 538.067, 305.790 534.051, 314.949 531.363, 321.080 531.079, 321.793 528.328, 328.711 525.008, 337.057 521.624, 346.467 519.030, 353.679 515.948, 363.192 513.452, 370.899 510.666, 380.503 508.298, 388.666 505.802, 398.350 503.591, 406.925 501.378, 416.678 499.350, 425.619 497.417, 435.430 495.594, 444.685 495.433, 445.643 495.163, 447.250 493.506, 457.112 493.222, 458.800 492.338, 464.062 492.200, 465.051 490.816, 474.955 489.597, 483.683 489.510, 484.462 488.398, 494.400 487.382, 503.480 487.052, 507.383 486.876, 509.476 486.754, 510.917 486.269, 516.660 486.041, 519.359 485.876, 521.321 485.701, 523.386 485.131, 533.370 484.561, 543.331 484.263, 553.326 484.110, 558.432 483.966, 563.245 483.940, 573.245 483.915, 583.061 484.166, 593.057 484.408, 602.708 484.938, 612.694 485.439, 622.121 486.254, 632.088 486.555, 635.774 486.964, 640.770 487.002, 641.235 488.106, 651.173 489.086, 659.986 490.487, 669.887 491.680, 678.315 493.386, 688.169 494.770, 696.165 496.789, 705.959 498.339, 713.482 500.681, 723.204 502.370, 730.216 504.672, 738.507 506.842, 746.322 509.863, 755.854 511.378, 760.634 511.734, 761.756 515.115, 771.167 517.023, 776.482 520.315, 784.609 522.687, 790.465 523.066, 791.297 527.208, 800.399 528.071, 802.295 528.700, 803.676 529.443, 805.133 533.990, 814.039 534.375, 814.795 535.037, 816.091 535.767, 817.366 538.308, 821.808 541.673, 827.689 547.074, 836.105 548.581, 838.453 554.432, 846.563 555.736, 848.370 562.048, 856.126 563.111, 857.432 569.894, 864.780 570.681, 865.633 577.938, 872.514 578.421, 872.973 586.147, 879.321 586.306, 879.451 594.310, 885.074 602.412, 889.848 610.587, 893.784 618.815, 896.893 627.074, 899.190 " fill="none" stroke="rgb(0, 0, 0)" stroke-linecap="butt" stroke-linejoin="round" stroke-opacity="1.0" stroke-width="3.0" />
            <path d=" M 734.204, 522.858 734.091, 522.591 733.684, 521.628 733.453, 521.224 733.075, 520.565 732.388, 519.686 731.633, 519.008 730.823, 518.540 729.972, 518.293 719.989, 517.708 718.815, 517.640 717.931, 517.617 717.035, 517.818 716.141, 518.241 715.299, 518.881 714.526, 519.729 713.802, 520.768 713.695, 520.964 713.139, 521.981 712.549, 523.348 712.041, 524.845 711.626, 526.447 711.309, 528.126 711.097, 529.854 710.994, 531.600 720.973, 532.247 722.195, 532.327 727.030, 531.838 727.066, 531.313 727.068, 531.283 727.149, 530.739 727.270, 530.220 727.348, 529.982 727.428, 529.741 727.619, 529.315 727.837, 528.954 728.077, 528.668 728.332, 528.463 728.595, 528.347 728.859, 528.321 " fill="none" stroke="rgb(0, 0, 0)" stroke-linecap="butt" stroke-linejoin="round" stroke-opacity="1.0" stroke-width="3.0" />
            <path d=" M 729.972, 518.293 729.094, 518.271 728.203, 518.473 727.315, 518.899 726.479, 519.543 725.711, 520.396 724.992, 521.440 724.771, 521.849 724.668, 522.039 724.541, 522.274 724.333, 522.660 723.746, 524.033 723.241, 525.538 722.828, 527.148 722.681, 527.932 722.512, 528.835 722.300, 530.571 722.274, 531.005 722.195, 532.327 " fill="none" stroke="rgb(0, 0, 0)" stroke-linecap="butt" stroke-linejoin="round" stroke-opacity="1.0" stroke-width="3.0" />
            <path d=" M 728.859, 528.321 729.116, 528.387 729.360, 528.542 729.584, 528.783 729.782, 529.103 729.948, 529.492 730.079, 529.941 730.169, 530.437 730.218, 530.967 730.224, 531.516 " fill="none" stroke="rgb(0, 0, 0)" stroke-linecap="butt" stroke-linejoin="round" stroke-opacity="1.0" stroke-width="3.0" />
            <path d=" M 734.204, 522.858 735.684, 522.718 745.639, 521.774 751.006, 521.266 751.128, 521.254 " fill="none" stroke="rgb(0, 0, 0)" stroke-linecap="butt" stroke-linejoin="round" stroke-opacity="1.0" stroke-width="3.0" />
            <path d=" M 727.066, 531.313 730.224, 531.516 740.174, 530.511 747.543, 529.766 " fill="none" stroke="rgb(0, 0, 0)" stroke-linecap="butt" stroke-linejoin="round" stroke-opacity="1.0" stroke-width="3.0" />
            <path d=" M 803.112, 522.577 802.276, 522.558 801.426, 522.771 800.577, 523.214 799.778, 523.882 799.296, 524.465 799.048, 524.765 798.361, 525.846 798.167, 526.235 797.930, 526.709 797.731, 527.107 797.167, 528.527 796.681, 530.081 796.350, 531.451 796.285, 531.719 796.279, 531.744 796.135, 532.554 795.970, 533.486 795.759, 535.278 795.731, 535.725 795.649, 537.089 " fill="none" stroke="rgb(0, 0, 0)" stroke-linecap="butt" stroke-linejoin="round" stroke-opacity="1.0" stroke-width="3.0" />
            <path d=" M 801.970, 532.921 802.212, 532.988 802.442, 533.147 802.652, 533.394 802.837, 533.722 802.991, 534.123 803.112, 534.585 803.194, 535.096 803.237, 535.642 803.239, 536.207 " fill="none" stroke="rgb(0, 0, 0)" stroke-linecap="butt" stroke-linejoin="round" stroke-opacity="1.0" stroke-width="3.0" />
            <path d=" M 783.816, 489.389 783.978, 489.383 784.195, 489.416 784.403, 489.495 784.594, 489.616 784.760, 489.775 784.895, 489.966 784.995, 490.184 785.055, 490.423 785.071, 490.679 785.042, 490.918 784.972, 491.146 784.863, 491.354 784.720, 491.535 784.547, 491.682 784.349, 491.791 784.131, 491.855 783.899, 491.871 " fill="none" stroke="rgb(0, 0, 0)" stroke-linecap="butt" stroke-linejoin="round" stroke-opacity="1.0" stroke-width="3.0" />
            <path d=" M 783.816, 489.389 783.742, 489.398 783.734, 489.400 783.730, 489.401 783.673, 489.416 783.645, 489.424 783.547, 489.450 783.499, 489.462 783.280, 489.569 783.085, 489.715 782.923, 489.895 782.797, 490.105 782.714, 490.339 782.680, 490.592 782.696, 490.833 782.758, 491.065 782.865, 491.281 783.012, 491.473 783.020, 491.481 783.200, 491.639 783.411, 491.761 783.645, 491.840 783.657, 491.842 783.899, 491.871 " fill="none" stroke="rgb(0, 0, 0)" stroke-linecap="butt" stroke-linejoin="round" stroke-opacity="1.0" stroke-width="3.0" />
            <path d=" M 783.730, 489.401 783.657, 489.419 783.547, 489.450 " fill="none" stroke="rgb(0, 0, 0)" stroke-linecap="butt" stroke-linejoin="round" stroke-opacity="1.0" stroke-width="3.0" />
            <path d=" M 781.209, 487.392 781.013, 493.604 784.517, 493.768 786.673, 493.869 787.331, 493.669 787.017, 487.635 784.258, 487.498 781.638, 487.369 781.209, 487.392 " fill="none" stroke="rgb(0, 0, 0)" stroke-linecap="butt" stroke-linejoin="round" stroke-opacity="1.0" stroke-width="3.0" />
            <path d=" M 786.673, 493.869 786.872, 487.642 " fill="none" stroke="rgb(0, 0, 0)" stroke-linecap="butt" stroke-linejoin="round" stroke-opacity="1.0" stroke-width="3.0" />
            <path d=" M 787.017, 487.635 786.872, 487.642 781.209, 487.392 " fill="none" stroke="rgb(0, 0, 0)" stroke-linecap="butt" stroke-linejoin="round" stroke-opacity="1.0" stroke-width="3.0" />
            <path d=" M 713.695, 520.964 704.935, 520.262 694.967, 519.466 693.458, 519.345 683.490, 518.552 681.982, 518.433 672.013, 517.647 670.502, 517.528 660.532, 516.751 659.013, 516.633 649.042, 515.869 647.510, 515.751 637.538, 515.002 635.987, 514.885 626.014, 514.152 624.442, 514.037 614.468, 513.324 612.869, 513.209 602.892, 512.518 601.262, 512.405 591.285, 511.738 589.619, 511.626 579.640, 510.986 577.935, 510.876 577.871, 500.876 577.842, 496.388 577.661, 486.389 577.581, 481.963 577.280, 471.968 577.150, 467.623 576.727, 457.632 576.547, 453.386 576.000, 443.401 575.774, 439.273 575.098, 429.296 574.828, 425.304 574.020, 415.336 573.709, 411.500 572.765, 401.544 572.417, 397.883 571.330, 387.943 570.951, 384.478 569.715, 374.555 569.310, 371.306 567.917, 361.404 567.494, 358.393 567.452, 358.124 " fill="none" stroke="rgb(0, 0, 0)" stroke-linecap="butt" stroke-linejoin="round" stroke-opacity="1.0" stroke-width="3.0" />
            <path d=" M 538.539, 231.181 537.284, 230.232 532.726, 226.788 532.406, 226.516 529.894, 224.389 523.780, 219.209 523.077, 218.547 519.913, 215.569 515.014, 210.956 " fill="none" stroke="rgb(0, 0, 0)" stroke-linecap="butt" stroke-linejoin="round" stroke-opacity="1.0" stroke-width="3.0" />
            <path d=" M 561.226, 244.848 555.779, 242.083 547.177, 236.984 546.337, 236.486 545.037, 235.601 540.530, 232.535 539.684, 231.960 538.539, 231.181 537.310, 230.345 537.085, 230.192 " fill="none" stroke="rgb(0, 0, 0)" stroke-linecap="butt" stroke-linejoin="round" stroke-opacity="1.0" stroke-width="3.0" />
            <path d=" M 515.014, 210.956 510.391, 207.200 507.588, 205.496 505.643, 204.314 504.830, 203.984 500.778, 202.340 495.807, 201.318 490.742, 201.283 485.597, 202.270 480.385, 204.313 477.876, 205.806 475.542, 207.195 475.122, 207.445 469.825, 211.690 469.675, 211.842 464.513, 217.072 459.204, 223.611 458.821, 224.170 455.395, 229.170 453.921, 231.322 450.274, 237.510 448.684, 240.209 444.117, 249.105 443.516, 250.275 439.403, 259.390 438.443, 261.517 434.732, 270.803 433.486, 273.921 430.138, 283.343 428.673, 287.464 425.651, 296.997 424.028, 302.118 421.305, 311.740 419.577, 317.847 417.129, 327.543 415.346, 334.602 413.151, 344.359 411.359, 352.328 409.401, 362.134 407.640, 370.959 405.906, 380.807 404.213, 390.425 402.690, 400.308 401.168, 410.192 401.098, 410.642 399.778, 420.554 398.458, 430.467 398.317, 431.522 397.192, 441.459 396.066, 451.395 395.888, 452.970 394.951, 462.926 394.014, 472.882 393.826, 474.884 393.073, 484.855 392.320, 494.827 392.145, 497.155 391.573, 507.139 391.001, 517.122 390.855, 519.673 390.463, 529.665 390.070, 539.657 389.965, 542.324 389.752, 552.322 389.538, 562.319 389.481, 564.994 389.446, 574.994 389.412, 584.994 389.403, 587.568 389.550, 597.567 389.697, 607.565 389.731, 609.929 389.762, 609.904 395.231, 605.503 396.997, 604.151 400.833, 601.214 406.540, 597.055 412.351, 593.024 418.267, 589.116 424.291, 585.326 430.421, 581.651 436.661, 578.087 443.011, 574.630 449.472, 571.275 456.045, 568.021 462.733, 564.863 469.536, 561.799 476.456, 558.824 479.353, 557.635 " fill="none" stroke="rgb(0, 0, 0)" stroke-linecap="butt" stroke-linejoin="round" stroke-opacity="1.0" stroke-width="3.0" />
            <path d=" M 359.744, 600.338 355.666, 609.468 353.643, 613.995 " fill="none" stroke="rgb(0, 0, 0)" stroke-linecap="butt" stroke-linejoin="round" stroke-opacity="1.0" stroke-width="3.0" />
            <path d=" M 477.876, 205.806 468.918, 205.929 " fill="none" stroke="rgb(0, 0, 0)" stroke-linecap="butt" stroke-linejoin="round" stroke-opacity="1.0" stroke-width="3.0" />
            <path d=" M 566.854, 247.280 561.226, 244.848 560.222, 244.414 " fill="none" stroke="rgb(0, 0, 0)" stroke-linecap="butt" stroke-linejoin="round" stroke-opacity="1.0" stroke-width="3.0" />
        </g>
    </g>
</svg>
