<?xml version='1.0' encoding='ascii'?>
<svg xmlns="http://www.w3.org/2000/svg" height="1080" version="1.1" width="1080">
    <g id="View Layer_LineSet" inkscape:groupmode="lineset" inkscape:label="View Layer_LineSet" xmlns:inkscape="http://www.inkscape.org/namespaces/inkscape">
        <g id="strokes" inkscape:groupmode="layer" inkscape:label="strokes" xmlns:inkscape="http://www.inkscape.org/namespaces/inkscape">
            <path d=" M 564.888, 497.983 564.854, 499.140 564.801, 500.280 564.728, 501.394 564.707, 501.646 564.637, 502.471 564.528, 503.499 564.402, 504.469 564.261, 505.369 564.106, 506.192 563.936, 506.929 563.809, 507.403 563.788, 507.470 563.677, 507.825 563.540, 508.192 563.399, 508.504 563.336, 508.616 " fill="none" stroke="rgb(0, 0, 0)" stroke-linecap="butt" stroke-linejoin="round" stroke-opacity="1.0" stroke-width="3.0" />
            <path d=" M 353.790, 619.906 360.140, 622.004 " fill="none" stroke="rgb(0, 0, 0)" stroke-linecap="butt" stroke-linejoin="round" stroke-opacity="1.0" stroke-width="3.0" />
            <path d=" M 377.997, 622.566 387.916, 621.297 389.965, 621.035 " fill="none" stroke="rgb(0, 0, 0)" stroke-linecap="butt" stroke-linejoin="round" stroke-opacity="1.0" stroke-width="3.0" />
            <path d=" M 389.965, 621.035 385.722, 611.980 381.478, 602.925 380.393, 600.608 " fill="none" stroke="rgb(0, 0, 0)" stroke-linecap="butt" stroke-linejoin="round" stroke-opacity="1.0" stroke-width="3.0" />
            <path d=" M 468.293, 208.156 463.814, 208.877 459.274, 210.673 454.687, 213.579 450.068, 217.624 445.432, 222.832 442.758, 226.522 440.796, 229.228 440.608, 229.537 436.181, 236.828 431.603, 245.640 427.496, 254.757 427.085, 255.668 423.414, 264.970 422.648, 266.911 419.360, 276.354 418.314, 279.356 415.363, 288.911 414.105, 292.983 411.456, 302.625 410.045, 307.762 407.669, 317.475 406.156, 323.657 404.029, 333.428 402.463, 340.620 400.563, 350.438 398.986, 358.592 397.299, 368.449 395.749, 377.507 394.261, 387.396 392.773, 397.291 391.473, 407.206 390.173, 417.121 390.077, 417.856 388.955, 427.793 387.834, 437.729 387.679, 439.108 386.729, 449.063 385.780, 459.018 385.596, 460.949 384.813, 470.918 384.030, 480.887 383.843, 483.270 383.222, 493.250 382.601, 503.231 382.431, 505.958 381.968, 515.947 381.506, 525.936 381.369, 528.896 381.064, 538.891 380.759, 548.887 380.665, 551.965 380.517, 561.964 380.368, 571.963 380.323, 575.043 380.331, 585.043 380.340, 595.043 380.342, 598.010 380.393, 600.608 379.308, 610.549 378.223, 620.490 377.997, 622.566 " fill="none" stroke="rgb(0, 0, 0)" stroke-linecap="butt" stroke-linejoin="round" stroke-opacity="1.0" stroke-width="3.0" />
            <path d=" M 566.936, 520.766 567.227, 520.771 567.995, 520.785 574.850, 515.567 577.942, 513.801 577.865, 503.801 577.828, 499.091 577.630, 489.093 577.538, 484.453 577.219, 474.458 577.073, 469.908 576.629, 459.918 576.431, 455.477 575.859, 445.493 575.612, 441.181 574.908, 431.205 574.614, 427.041 573.775, 417.077 573.438, 413.081 572.457, 403.129 572.082, 399.324 570.954, 389.388 570.546, 385.795 569.263, 375.877 568.829, 372.517 567.384, 362.622 566.931, 359.517 566.605, 357.532 " fill="none" stroke="rgb(0, 0, 0)" stroke-linecap="butt" stroke-linejoin="round" stroke-opacity="1.0" stroke-width="3.0" />
            <path d=" M 563.426, 363.403 564.195, 368.037 565.657, 377.929 566.026, 380.427 567.324, 390.343 567.684, 393.094 568.825, 403.028 569.168, 406.011 570.160, 415.961 570.479, 419.154 571.328, 429.118 571.616, 432.500 572.329, 442.474 572.582, 446.024 573.162, 456.007 573.376, 459.705 573.827, 469.695 573.999, 473.521 574.324, 483.516 574.452, 487.451 574.654, 497.449 574.735, 501.473 574.744, 502.562 574.673, 503.315 574.594, 504.038 574.505, 504.729 574.409, 505.383 574.305, 505.997 574.194, 506.567 574.077, 507.091 573.954, 507.565 573.826, 507.987 573.695, 508.356 573.559, 508.668 573.421, 508.922 573.281, 509.117 573.139, 509.251 569.088, 512.216 568.896, 511.169 568.680, 510.288 568.442, 509.589 568.188, 509.083 567.921, 508.780 567.645, 508.685 567.305, 508.680 565.011, 508.643 564.717, 508.638 563.789, 508.623 563.336, 508.616 562.930, 508.609 559.357, 508.552 557.572, 508.523 557.420, 508.520 557.259, 508.518 556.969, 508.633 556.680, 508.957 556.398, 509.486 556.126, 510.210 555.870, 511.119 555.634, 512.196 555.581, 512.503 555.515, 512.885 555.422, 513.424 555.242, 514.748 555.237, 514.782 555.084, 516.247 554.964, 517.794 554.880, 519.397 554.833, 521.027 554.824, 522.657 555.553, 522.670 557.399, 522.703 557.508, 522.705 559.291, 522.737 562.861, 522.801 563.700, 522.816 564.647, 522.833 565.290, 522.845 566.919, 521.604 566.924, 521.087 566.936, 520.766 566.944, 520.573 566.977, 520.076 567.023, 519.610 567.082, 519.187 567.150, 518.819 567.227, 518.517 567.242, 518.477 567.311, 518.287 567.398, 518.137 567.487, 518.070 " fill="none" stroke="rgb(0, 0, 0)" stroke-linecap="butt" stroke-linejoin="round" stroke-opacity="1.0" stroke-width="3.0" />
            <path d=" M 466.081, 883.444 462.019, 883.305 458.772, 882.400 457.939, 882.167 453.855, 880.003 450.013, 876.968 449.780, 876.784 445.732, 872.485 441.724, 867.084 437.774, 860.568 433.900, 852.925 430.119, 844.149 426.647, 834.771 426.450, 834.241 423.396, 824.719 422.912, 823.211 420.223, 813.579 419.524, 811.074 417.158, 801.358 416.305, 797.850 414.228, 788.068 413.274, 783.573 411.457, 773.739 410.449, 768.283 408.869, 758.408 407.848, 752.026 406.488, 742.119 405.490, 734.858 404.332, 724.925 403.389, 716.845 402.421, 706.893 401.561, 698.061 400.772, 688.092 400.019, 678.583 399.400, 668.603 398.774, 658.501 398.319, 648.511 397.864, 638.521 397.836, 637.907 397.540, 627.911 397.244, 617.915 397.214, 616.900 397.086, 609.026 " fill="none" stroke="rgb(0, 0, 0)" stroke-linecap="butt" stroke-linejoin="round" stroke-opacity="1.0" stroke-width="3.0" />
            <path d=" M 383.696, 287.842 382.491, 292.301 380.156, 302.024 378.974, 306.947 376.887, 316.727 375.609, 322.714 373.745, 332.538 372.415, 339.553 370.755, 349.414 369.410, 357.410 367.940, 367.302 366.615, 376.222 365.322, 386.138 364.047, 395.917 362.920, 405.854 361.793, 415.790 361.723, 416.412 360.753, 426.365 359.784, 436.318 359.658, 437.616 358.840, 447.583 358.022, 457.549 357.867, 459.432 357.195, 469.409 356.523, 479.387 356.364, 481.755 355.833, 491.741 355.303, 501.727 355.157, 504.475 354.765, 514.467 354.373, 524.459 354.255, 527.476 354.000, 537.472 353.746, 547.469 353.665, 550.640 353.547, 560.639 353.428, 570.638 353.391, 573.847 353.409, 583.847 353.427, 593.847 353.432, 596.975 353.588, 606.974 353.745, 616.973 353.790, 619.906 354.134, 629.900 354.477, 639.894 354.563, 642.376 355.074, 652.363 355.586, 662.350 355.691, 664.392 356.376, 674.368 357.062, 684.345 357.165, 685.844 358.032, 695.806 358.899, 705.769 358.974, 706.630 360.032, 716.574 361.105, 726.654 362.366, 736.575 363.542, 745.830 365.021, 755.720 366.270, 764.080 367.984, 773.932 369.271, 781.332 371.240, 791.136 372.525, 797.527 374.776, 807.271 376.012, 812.617 377.124, 816.808 " fill="none" stroke="rgb(0, 0, 0)" stroke-linecap="butt" stroke-linejoin="round" stroke-opacity="1.0" stroke-width="3.0" />
            <path d=" M 523.357, 535.833 523.317, 541.633 523.142, 551.631 523.069, 555.778 522.787, 565.774 522.670, 569.923 522.280, 579.915 522.119, 584.047 521.621, 594.034 521.417, 598.131 520.811, 608.113 520.565, 612.157 519.849, 622.131 519.563, 626.103 519.281, 629.490 " fill="none" stroke="rgb(0, 0, 0)" stroke-linecap="butt" stroke-linejoin="round" stroke-opacity="1.0" stroke-width="3.0" />
            <path d=" M 503.252, 747.520 501.383, 756.547 499.186, 766.302 498.764, 768.173 496.385, 777.886 496.005, 779.436 493.428, 789.098 493.106, 790.308 490.316, 799.911 490.070, 800.757 487.046, 810.289 486.900, 810.751 483.598, 820.258 480.167, 829.245 476.613, 837.676 472.939, 845.515 469.149, 852.727 465.251, 859.274 461.249, 865.117 457.152, 870.218 452.967, 874.540 450.013, 876.968 " fill="none" stroke="rgb(0, 0, 0)" stroke-linecap="butt" stroke-linejoin="round" stroke-opacity="1.0" stroke-width="3.0" />
            <path d=" M 389.877, 615.851 389.965, 621.035 390.274, 631.030 390.583, 641.026 390.657, 643.448 391.136, 653.436 391.614, 663.425 391.709, 665.408 392.363, 675.387 393.016, 685.365 393.111, 686.809 393.947, 696.774 394.783, 706.739 394.850, 707.547 395.878, 717.495 396.914, 727.528 398.143, 737.453 399.284, 746.666 400.727, 756.562 401.941, 764.883 403.616, 774.742 404.868, 782.109 406.793, 791.921 408.041, 798.282 410.240, 808.038 411.439, 813.356 413.940, 823.038 415.038, 827.289 417.878, 836.877 418.817, 840.046 422.039, 849.512 422.752, 851.606 426.409, 860.914 426.819, 861.958 430.998, 871.092 435.266, 879.010 437.749, 882.852 438.023, 883.276 439.603, 885.721 443.988, 891.240 448.404, 895.585 452.831, 898.780 457.254, 900.856 461.658, 901.846 466.027, 901.781 470.348, 900.701 474.611, 898.648 478.804, 895.659 480.898, 893.681 482.917, 891.775 486.941, 887.040 490.869, 881.496 494.694, 875.185 498.410, 868.147 502.011, 860.424 503.703, 856.359 505.494, 852.057 508.853, 843.083 512.086, 833.540 515.030, 823.984 515.189, 823.468 516.157, 820.028 518.162, 812.900 520.654, 803.216 521.001, 801.870 522.100, 797.212 " fill="none" stroke="rgb(0, 0, 0)" stroke-linecap="butt" stroke-linejoin="round" stroke-opacity="1.0" stroke-width="3.0" />
            <path d=" M 518.741, 789.709 518.509, 790.658 515.939, 800.322 515.736, 801.086 512.948, 810.689 512.841, 811.059 509.827, 820.547 506.698, 829.516 503.456, 837.931 500.107, 845.754 496.654, 852.952 493.103, 859.487 489.460, 865.320 485.731, 870.412 481.923, 874.727 478.045, 878.226 474.106, 880.869 470.114, 882.620 466.081, 883.444 " fill="none" stroke="rgb(0, 0, 0)" stroke-linecap="butt" stroke-linejoin="round" stroke-opacity="1.0" stroke-width="3.0" />
            <path d=" M 555.242, 514.748 548.975, 514.485 548.206, 514.453 546.391, 514.377 546.414, 524.377 546.423, 528.433 546.347, 538.433 546.315, 542.526 546.142, 552.525 546.070, 556.638 545.799, 566.635 545.687, 570.750 545.318, 580.743 545.167, 584.841 544.700, 594.830 544.510, 598.893 543.943, 608.877 543.716, 612.887 543.048, 622.865 542.785, 626.802 542.015, 636.773 541.719, 640.619 540.844, 650.581 540.517, 654.317 539.535, 664.268 539.179, 667.875 538.087, 677.815 537.707, 681.271 536.500, 691.198 536.101, 694.484 534.938, 703.177 " fill="none" stroke="rgb(0, 0, 0)" stroke-linecap="butt" stroke-linejoin="round" stroke-opacity="1.0" stroke-width="3.0" />
            <path d=" M 537.487, 710.991 538.755, 701.072 538.797, 700.747 539.948, 690.814 540.401, 686.912 541.441, 676.966 541.867, 672.893 542.800, 662.937 543.196, 658.714 544.025, 648.749 544.387, 644.397 545.115, 634.423 545.441, 629.961 546.071, 619.981 546.359, 615.428 546.892, 605.443 547.139, 600.818 547.579, 590.828 547.784, 586.150 548.130, 576.156 548.293, 571.444 548.546, 561.447 548.666, 556.719 548.827, 546.720 548.903, 541.993 548.972, 531.993 549.005, 527.286 548.981, 517.286 548.975, 514.485 " fill="none" stroke="rgb(0, 0, 0)" stroke-linecap="butt" stroke-linejoin="round" stroke-opacity="1.0" stroke-width="3.0" />
            <path d=" M 377.997, 622.566 378.316, 632.561 378.635, 642.556 378.742, 645.890 379.228, 655.879 379.713, 665.867 379.853, 668.736 380.511, 678.714 381.169, 688.692 381.320, 690.988 382.158, 700.953 382.996, 710.917 383.133, 712.538 384.160, 722.485 385.187, 732.433 385.275, 733.287 386.502, 743.211 387.730, 753.143 389.172, 763.039 390.481, 772.026 392.153, 781.886 393.507, 789.862 395.431, 799.675 396.787, 806.589 398.988, 816.344 400.299, 822.157 402.807, 831.837 404.021, 836.524 406.874, 846.108 407.930, 849.657 411.174, 859.116 412.004, 861.534 415.695, 870.828 416.218, 872.146 420.427, 881.217 420.551, 881.485 424.981, 889.554 429.488, 896.365 434.050, 901.937 438.648, 906.289 443.265, 909.450 447.883, 911.454 452.486, 912.334 457.059, 912.128 461.590, 910.877 466.064, 908.625 470.470, 905.414 474.800, 901.286 " fill="none" stroke="rgb(0, 0, 0)" stroke-linecap="butt" stroke-linejoin="round" stroke-opacity="1.0" stroke-width="3.0" />
            <path d=" M 474.800, 901.286 481.291, 893.680 482.917, 891.775 " fill="none" stroke="rgb(0, 0, 0)" stroke-linecap="butt" stroke-linejoin="round" stroke-opacity="1.0" stroke-width="3.0" />
            <path d=" M 540.487, 539.349 530.487, 539.369 529.116, 539.372 526.078, 537.505 523.357, 535.833 519.343, 533.366 519.058, 533.191 518.772, 533.015 518.486, 532.839 518.201, 532.663 517.866, 532.337 517.546, 531.781 517.249, 531.012 " fill="none" stroke="rgb(0, 0, 0)" stroke-linecap="butt" stroke-linejoin="round" stroke-opacity="1.0" stroke-width="3.0" />
            <path d=" M 519.906, 505.056 524.505, 496.176 528.655, 488.163 538.622, 488.984 540.107, 489.106 540.342, 499.103 540.577, 509.100 540.695, 514.139 540.677, 524.139 540.670, 528.201 540.506, 538.200 540.487, 539.349 532.063, 533.961 531.501, 533.602 531.227, 533.427 530.952, 533.251 530.677, 533.075 530.403, 532.899 530.081, 532.572 529.774, 532.016 529.486, 531.239 529.258, 530.381 529.226, 530.258 528.999, 529.090 528.808, 527.757 528.658, 526.284 528.551, 524.701 528.511, 523.613 528.490, 523.036 528.474, 521.324 528.506, 519.596 528.584, 517.886 528.621, 517.394 528.707, 516.229 528.873, 514.654 529.077, 513.194 529.273, 512.113 529.316, 511.876 529.586, 510.725 529.881, 509.763 530.194, 509.008 530.462, 508.465 530.732, 507.923 531.001, 507.382 531.270, 506.842 531.406, 506.572 535.865, 497.621 540.107, 489.106 " fill="none" stroke="rgb(0, 0, 0)" stroke-linecap="butt" stroke-linejoin="round" stroke-opacity="1.0" stroke-width="3.0" />
            <path d=" M 530.893, 523.656 530.767, 523.607 530.649, 523.424 530.542, 523.113 530.452, 522.691 530.383, 522.174 530.339, 521.586 530.320, 520.952 530.328, 520.301 530.362, 519.660 530.421, 519.058 530.502, 518.521 530.602, 518.073 530.716, 517.734 530.840, 517.518 530.966, 517.435 " fill="none" stroke="rgb(0, 0, 0)" stroke-linecap="butt" stroke-linejoin="round" stroke-opacity="1.0" stroke-width="3.0" />
            <path d=" M 530.966, 517.435 531.091, 517.487 531.210, 517.673 531.316, 517.984 531.405, 518.407 531.474, 518.922 531.518, 519.508 531.537, 520.140 531.529, 520.789 531.495, 521.427 531.436, 522.027 531.355, 522.563 531.256, 523.011 531.142, 523.351 531.019, 523.570 530.893, 523.656 " fill="none" stroke="rgb(0, 0, 0)" stroke-linecap="butt" stroke-linejoin="round" stroke-opacity="1.0" stroke-width="3.0" />
            <path d=" M 359.925, 551.231 359.843, 554.799 359.749, 564.799 359.655, 574.798 359.631, 577.348 359.675, 587.348 359.720, 597.348 359.731, 599.779 359.851, 606.293 360.035, 616.292 360.140, 622.004 360.467, 631.999 360.794, 641.993 360.857, 643.935 361.329, 653.924 361.801, 663.913 361.875, 665.488 361.885, 665.648 " fill="none" stroke="rgb(0, 0, 0)" stroke-linecap="butt" stroke-linejoin="round" stroke-opacity="1.0" stroke-width="3.0" />
            <path d=" M 543.531, 726.701 544.838, 717.024 546.079, 707.102 546.435, 704.252 547.581, 694.317 547.924, 691.338 548.977, 681.394 549.305, 678.298 550.268, 668.344 550.577, 665.144 551.453, 655.182 551.742, 651.889 552.531, 641.920 552.733, 639.368 552.798, 638.546 553.503, 628.571 553.746, 625.127 554.368, 615.147 554.587, 611.645 555.127, 601.659 555.319, 598.109 555.778, 588.120 555.943, 584.534 555.995, 583.169 556.373, 573.176 556.459, 570.928 556.758, 560.933 556.866, 557.305 557.085, 547.307 557.165, 543.674 557.304, 533.675 557.355, 530.047 557.399, 522.703 " fill="none" stroke="rgb(0, 0, 0)" stroke-linecap="butt" stroke-linejoin="round" stroke-opacity="1.0" stroke-width="3.0" />
            <path d=" M 456.631, 939.363 459.058, 939.538 463.197, 939.198 467.297, 938.045 471.352, 936.108 475.352, 933.417 479.292, 930.005 483.166, 925.902 486.968, 921.138 490.693, 915.745 494.336, 909.752 497.894, 903.190 501.362, 896.088 504.739, 888.474 508.020, 880.376 511.205, 871.821 514.290, 862.834 517.273, 853.442 520.101, 843.850 520.155, 843.667 522.798, 834.023 522.932, 833.534 525.406, 823.845 525.604, 823.066 527.920, 813.337 528.171, 812.283 528.595, 810.373 " fill="none" stroke="rgb(0, 0, 0)" stroke-linecap="butt" stroke-linejoin="round" stroke-opacity="1.0" stroke-width="3.0" />
            <path d=" M 523.157, 220.343 522.696, 218.905 519.790, 210.648 516.770, 202.864 513.635, 195.582 510.389, 188.829 507.034, 182.634 503.571, 177.027 500.004, 172.038 496.337, 167.697 492.574, 164.034 488.719, 161.082 484.777, 158.870 480.755, 157.430 476.658, 156.792 474.446, 156.894 472.494, 156.985 468.272, 158.038 463.998, 159.979 459.684, 162.834 455.339, 166.626 450.975, 171.377 446.602, 177.107 442.234, 183.831 437.883, 191.562 433.565, 200.308 429.930, 208.618 429.293, 210.074 425.656, 219.390 425.082, 220.860 421.776, 230.298 420.948, 232.661 417.969, 242.105 416.908, 245.466 414.168, 255.083 412.978, 259.259 410.482, 268.943 409.174, 274.018 406.903, 283.756 405.514, 289.713 403.450, 299.498 402.013, 306.312 400.143, 316.136 398.689, 323.773 397.000, 333.629 395.557, 342.049 394.039, 351.933 392.633, 361.086 391.277, 370.994 389.932, 380.825 388.731, 390.753 387.531, 400.681 387.468, 401.201 386.416, 411.146 385.364, 421.091 385.253, 422.144 384.345, 432.103 383.437, 442.061 383.299, 443.577 382.531, 453.548 381.764, 463.518 381.617, 465.422 380.986, 475.402 380.356, 485.382 380.216, 487.595 379.720, 497.582 379.224, 507.570 379.103, 510.009 378.740, 520.002 378.377, 529.996 378.283, 532.575 378.053, 542.573 377.822, 552.570 377.762, 555.205 377.664, 565.205 377.566, 575.204 377.540, 577.807 377.575, 587.807 377.610, 597.807 377.619, 600.290 377.788, 610.289 377.958, 620.287 377.997, 622.566 378.303, 632.561 378.609, 642.557 378.670, 644.547 379.117, 654.537 379.563, 664.527 379.635, 666.148 380.225, 676.131 380.815, 686.113 380.884, 687.288 381.623, 697.261 382.361, 707.234 382.410, 707.891 383.303, 717.851 384.203, 727.882 385.258, 737.826 386.251, 747.196 387.477, 757.121 388.544, 765.770 389.950, 775.670 391.069, 783.548 392.667, 793.420 393.810, 800.481 395.615, 810.317 396.755, 816.526 398.783, 826.318 399.887, 831.645 402.159, 841.383 403.191, 845.807 405.731, 855.480 406.652, 858.989 409.488, 868.579 410.254, 871.171 413.419, 880.657 413.981, 882.341 417.517, 891.696 417.818, 892.492 421.748, 901.621 425.757, 909.732 429.831, 916.831 433.956, 922.929 438.118, 928.042 442.304, 932.186 446.502, 935.384 450.701, 937.658 454.889, 939.034 457.216, 939.315 459.058, 939.538 " fill="none" stroke="rgb(0, 0, 0)" stroke-linecap="butt" stroke-linejoin="round" stroke-opacity="1.0" stroke-width="3.0" />
            <path d=" M 474.238, 156.862 470.048, 157.056 465.798, 158.110 461.498, 160.051 457.156, 162.906 452.784, 166.698 448.392, 171.448 443.993, 177.177 439.598, 183.899 435.221, 191.628 430.876, 200.372 427.044, 209.076 426.578, 210.135 422.921, 219.443 422.342, 220.918 419.018, 230.349 418.184, 232.715 415.158, 242.246 414.120, 245.516 411.364, 255.129 410.822, 257.020 410.167, 259.304 407.657, 268.984 406.341, 274.057 404.057, 283.793 402.660, 289.748 400.584, 299.530 399.139, 306.341 397.259, 316.162 395.797, 323.795 394.098, 333.650 392.648, 342.064 391.121, 351.947 389.708, 361.094 388.345, 371.001 386.992, 380.826 385.785, 390.753 384.578, 400.680 384.515, 401.194 383.458, 411.138 382.401, 421.082 382.289, 422.129 381.377, 432.087 380.464, 442.045 380.326, 443.554 379.555, 453.524 378.783, 463.494 378.637, 465.390 378.003, 475.370 377.370, 485.350 377.230, 487.554 376.732, 497.541 376.234, 507.529 376.113, 509.959 375.749, 519.952 375.385, 529.945 375.291, 532.517 375.061, 542.514 374.830, 552.511 374.769, 555.137 374.672, 565.137 374.575, 575.136 374.549, 577.730 374.586, 587.730 374.623, 597.730 374.632, 600.205 374.804, 610.203 374.976, 620.202 375.015, 622.472 375.325, 632.467 375.634, 642.462 375.696, 644.445 376.146, 654.434 376.597, 664.424 376.669, 666.038 377.264, 676.020 377.860, 686.002 377.929, 687.170 378.674, 697.143 379.419, 707.115 379.467, 707.765 380.367, 717.725 381.274, 727.750 382.337, 737.693 383.338, 747.057 384.573, 756.980 385.648, 765.624 387.064, 775.524 388.190, 783.397 389.800, 793.267 390.951, 800.325 392.769, 810.158 393.916, 816.365 395.959, 826.154 397.070, 831.480 399.358, 841.214 400.398, 845.638 402.954, 855.306 403.882, 858.817 406.736, 868.401 407.508, 870.996 410.693, 880.476 411.260, 882.164 414.817, 891.510 415.122, 892.313 419.079, 901.441 423.115, 909.550 427.216, 916.649 431.367, 922.747 435.556, 927.860 439.769, 932.006 443.995, 935.204 448.221, 937.480 452.436, 938.857 456.631, 939.363 " fill="none" stroke="rgb(0, 0, 0)" stroke-linecap="butt" stroke-linejoin="round" stroke-opacity="1.0" stroke-width="3.0" />
            <path d=" M 476.658, 156.792 474.238, 156.862 " fill="none" stroke="rgb(0, 0, 0)" stroke-linecap="butt" stroke-linejoin="round" stroke-opacity="1.0" stroke-width="3.0" />
            <path d=" M 549.455, 739.865 549.822, 737.290 551.130, 727.376 551.595, 723.858 552.808, 713.932 553.255, 710.273 554.375, 700.336 554.802, 696.548 555.833, 686.601 556.237, 682.698 557.180, 672.743 557.559, 668.736 558.417, 658.773 558.769, 654.674 559.543, 644.704 559.867, 640.525 560.559, 630.549 560.854, 626.301 561.465, 616.320 561.728, 612.014 562.260, 602.028 562.491, 597.675 562.944, 587.685 563.142, 583.295 563.517, 573.302 563.682, 568.885 563.978, 558.889 564.110, 554.455 564.328, 544.458 564.426, 540.018 564.567, 530.019 564.629, 525.583 564.647, 522.833 " fill="none" stroke="rgb(0, 0, 0)" stroke-linecap="butt" stroke-linejoin="round" stroke-opacity="1.0" stroke-width="3.0" />
            <path d=" M 454.127, 966.021 456.549, 966.204 461.033, 966.413 465.476, 965.715 469.870, 964.144 474.207, 961.738 478.479, 958.529 482.680, 954.556 486.803, 949.853 490.842, 944.455 494.794, 938.397 498.653, 931.713 502.416, 924.437 506.080, 916.599 509.641, 908.233 513.098, 899.367 516.448, 890.032 519.595, 880.541 519.689, 880.256 522.627, 870.697 522.821, 870.065 525.566, 860.449 525.841, 859.485 526.806, 855.857 528.750, 848.542 531.155, 838.836 531.546, 837.260 533.799, 827.517 534.228, 825.660 535.027, 821.961 " fill="none" stroke="rgb(0, 0, 0)" stroke-linecap="butt" stroke-linejoin="round" stroke-opacity="1.0" stroke-width="3.0" />
            <path d=" M 539.668, 233.045 537.376, 223.312 537.133, 222.284 534.651, 212.597 534.469, 211.887 531.779, 202.256 531.678, 201.892 528.760, 192.325 525.716, 183.215 522.548, 174.589 519.255, 166.477 515.839, 158.912 512.302, 151.924 508.646, 145.546 504.874, 139.812 500.990, 134.757 496.996, 130.415 492.898, 126.822 488.701, 124.014 484.409, 122.027 480.030, 120.895 475.571, 120.655 474.544, 120.811 471.041, 121.341 466.447, 122.986 461.801, 125.622 457.112, 129.279 452.393, 133.985 447.656, 139.765 442.915, 146.640 438.185, 154.629 433.598, 163.515 433.480, 163.745 429.340, 172.848 428.816, 173.998 425.070, 183.270 424.212, 185.392 421.615, 192.581 419.685, 197.924 416.598, 207.435 415.252, 211.586 415.252, 211.586 413.229, 218.508 410.932, 226.365 408.382, 236.035 406.745, 242.239 404.428, 251.967 402.710, 259.179 400.607, 268.955 398.845, 277.148 396.942, 286.965 395.170, 296.104 393.453, 305.955 391.913, 314.795 391.704, 315.994 390.162, 325.875 388.621, 335.755 388.464, 336.760 387.089, 346.665 385.714, 356.570 385.469, 358.336 384.252, 368.261 383.035, 378.187 382.733, 380.648 381.668, 390.591 380.603, 400.534 380.273, 403.616 379.355, 413.574 378.437, 423.531 378.103, 427.154 377.327, 437.124 376.551, 447.094 376.234, 451.172 375.597, 461.152 374.960, 471.132 374.677, 475.574 374.177, 485.561 373.677, 495.549 373.441, 500.258 373.076, 510.252 372.711, 520.245 372.533, 525.124 372.302, 535.122 372.071, 545.119 371.957, 550.068 371.860, 560.067 371.764, 570.067 371.716, 574.983 371.754, 584.983 371.792, 594.983 371.810, 599.765 371.985, 609.764 372.159, 619.762 372.239, 624.312 372.551, 634.307 372.864, 644.302 372.997, 648.522 373.451, 658.511 373.906, 668.501 374.078, 672.296 374.679, 682.278 375.279, 692.260 375.477, 695.543 376.228, 705.515 376.979, 715.487 377.181, 718.173 378.090, 728.132 378.998, 738.091 379.182, 740.104 380.254, 750.047 381.327, 759.989 381.464, 761.259 382.710, 771.181 383.957, 781.103 384.015, 781.569 385.445, 791.467 386.819, 800.972 388.446, 810.839 389.860, 819.412 391.699, 829.242 393.121, 836.843 395.189, 846.627 396.584, 853.225 398.903, 862.952 400.231, 868.525 402.425, 876.690 404.045, 882.720 404.351, 883.727 407.251, 893.297 408.007, 895.791 411.250, 905.250 412.099, 907.726 412.415, 908.536 416.043, 917.854 416.304, 918.523 416.623, 919.241 420.604, 928.182 424.982, 936.709 429.422, 944.117 433.908, 950.421 438.427, 955.642 442.963, 959.803 447.503, 962.931 452.036, 965.054 456.213, 966.118 456.549, 966.204 " fill="none" stroke="rgb(0, 0, 0)" stroke-linecap="butt" stroke-linejoin="round" stroke-opacity="1.0" stroke-width="3.0" />
            <path d=" M 361.483, 499.094 361.433, 500.073 361.064, 510.066 360.694, 520.059 360.516, 524.899 360.284, 534.897 360.052, 544.894 359.939, 549.803 359.925, 551.231 359.831, 561.230 359.737, 571.230 359.705, 574.680 359.749, 584.679 359.794, 594.679 359.815, 599.424 359.938, 606.097 360.122, 616.096 360.218, 621.312 360.267, 623.932 360.593, 633.927 360.920, 643.922 361.022, 647.065 361.056, 648.105 361.528, 658.094 361.885, 665.648 362.178, 671.844 362.245, 672.930 " fill="none" stroke="rgb(0, 0, 0)" stroke-linecap="butt" stroke-linejoin="round" stroke-opacity="1.0" stroke-width="3.0" />
            <path d=" M 473.157, 120.737 468.597, 121.424 463.975, 123.069 459.299, 125.706 454.581, 129.362 449.833, 134.068 445.067, 139.846 440.297, 146.720 435.537, 154.707 430.928, 163.582 430.804, 163.821 426.642, 172.914 426.113, 174.071 422.346, 183.335 421.481, 185.462 418.065, 194.860 416.927, 197.990 413.823, 207.496 412.468, 211.648 412.269, 212.323 409.448, 221.917 408.656, 224.612 408.123, 226.423 405.558, 236.088 403.912, 242.291 403.384, 244.496 401.053, 254.221 399.854, 259.225 397.739, 268.999 395.967, 277.188 394.053, 287.003 392.272, 296.136 390.546, 305.986 388.787, 316.019 387.237, 325.898 385.687, 335.778 385.530, 336.778 384.147, 346.682 383.087, 354.277 382.519, 358.345 381.295, 368.270 380.072, 378.195 379.769, 380.648 378.699, 390.591 377.628, 400.533 377.297, 403.607 376.374, 413.565 375.451, 423.522 375.116, 427.137 374.337, 437.107 373.557, 447.076 373.239, 451.145 372.599, 461.125 371.960, 471.104 371.676, 475.537 371.174, 485.524 370.672, 495.512 370.435, 500.212 370.069, 510.205 369.703, 520.198 369.525, 525.068 369.294, 535.065 369.063, 545.063 368.949, 550.001 368.853, 560.001 368.757, 570.001 368.710, 574.907 368.749, 584.907 368.789, 594.907 368.808, 599.680 368.985, 609.678 369.162, 619.677 369.242, 624.217 369.558, 634.212 369.875, 644.207 370.008, 648.417 370.467, 658.407 370.926, 668.396 371.100, 672.183 371.705, 682.165 372.311, 692.147 372.510, 695.421 373.267, 705.393 374.025, 715.364 374.228, 718.043 375.144, 728.001 376.059, 737.959 376.243, 739.967 377.325, 749.908 378.406, 759.849 378.543, 761.115 379.799, 771.035 381.054, 780.956 381.113, 781.418 382.553, 791.313 383.937, 800.814 385.576, 810.679 386.999, 819.249 388.851, 829.076 390.283, 836.675 392.365, 846.455 393.769, 853.052 395.777, 861.413 397.442, 868.348 399.631, 876.438 401.281, 882.539 402.925, 887.924 405.270, 895.607 408.533, 905.060 409.389, 907.541 409.479, 907.769 413.129, 917.079 413.622, 918.336 417.711, 927.461 417.950, 927.993 422.356, 936.520 426.825, 943.927 431.341, 950.232 435.888, 955.453 440.454, 959.615 445.024, 962.744 449.585, 964.869 454.127, 966.021 " fill="none" stroke="rgb(0, 0, 0)" stroke-linecap="butt" stroke-linejoin="round" stroke-opacity="1.0" stroke-width="3.0" />
            <path d=" M 475.571, 120.655 473.157, 120.737 " fill="none" stroke="rgb(0, 0, 0)" stroke-linecap="butt" stroke-linejoin="round" stroke-opacity="1.0" stroke-width="3.0" />
            <path d=" M 544.991, 236.505 544.181, 232.374 542.097, 222.593 541.706, 220.757 539.452, 211.014 539.100, 209.492 536.661, 199.794 536.362, 198.604 533.722, 188.959 533.492, 188.118 530.630, 178.537 530.489, 178.064 527.354, 168.468 524.088, 159.363 520.691, 150.777 517.164, 142.746 513.509, 135.301 509.729, 128.477 505.824, 122.311 501.799, 116.839 497.657, 112.098 493.403, 108.127 489.040, 104.964 484.576, 102.648 480.016, 101.217 475.369, 100.711 470.566, 100.885 465.778, 101.343 460.920, 102.798 456.001, 105.288 451.031, 108.844 446.025, 113.499 440.995, 119.282 435.956, 126.217 430.922, 134.327 426.179, 143.130 425.911, 143.627 421.633, 152.666 420.940, 154.131 417.072, 163.353 416.027, 165.845 412.523, 175.211 411.192, 178.769 408.012, 188.250 406.454, 192.898 403.566, 202.472 401.833, 208.218 399.210, 217.867 397.350, 224.707 394.969, 234.419 393.027, 242.338 390.868, 252.103 388.884, 261.074 386.931, 270.881 384.943, 280.869 383.696, 287.842 381.935, 297.686 381.223, 301.670 379.644, 311.544 378.064, 321.419 377.745, 323.414 376.337, 333.315 374.929, 343.215 374.529, 346.032 373.284, 355.955 372.039, 365.877 371.591, 369.446 370.503, 379.387 369.414, 389.327 368.950, 393.570 368.012, 403.526 367.075, 413.482 366.620, 418.311 365.829, 428.280 365.038, 438.249 364.615, 443.573 363.967, 453.552 363.806, 456.030 363.158, 466.009 362.947, 469.251 362.439, 479.238 361.931, 489.225 361.625, 495.238 361.483, 499.094 361.113, 509.087 360.744, 519.081 360.658, 521.424 360.478, 529.185 360.246, 539.182 360.049, 547.694 359.955, 557.694 359.861, 567.693 359.803, 573.937 359.847, 583.937 359.891, 593.937 359.918, 600.038 360.026, 605.899 360.211, 615.897 360.297, 620.611 360.395, 625.886 360.721, 635.880 361.047, 645.875 361.198, 650.477 361.227, 651.371 361.699, 661.360 361.953, 666.734 362.245, 672.930 362.409, 676.388 362.595, 679.378 363.216, 689.358 363.838, 699.339 363.931, 700.836 364.707, 710.806 365.484, 720.776 365.783, 724.621 366.721, 734.577 367.658, 744.532 367.952, 747.652 369.059, 757.591 370.166, 767.530 370.424, 769.850 371.710, 779.767 372.995, 789.684 373.184, 791.139 374.659, 801.030 376.133, 810.921 376.213, 811.455 377.124, 816.808 378.801, 826.666 379.494, 830.738 381.390, 840.557 383.009, 848.940 385.141, 858.710 386.737, 866.020 389.128, 875.730 390.659, 881.946 393.336, 891.581 394.756, 896.692 397.749, 906.233 399.006, 910.241 402.354, 919.665 403.391, 922.585 407.139, 931.857 407.892, 933.720 412.093, 942.795 412.489, 943.650 417.164, 952.384 421.900, 959.937 426.680, 966.329 431.488, 971.581 436.309, 975.722 441.130, 978.782 445.937, 980.792 450.718, 981.788 455.535, 982.163 460.220, 982.175 464.858, 981.245 469.440, 979.412 473.958, 976.713 478.404, 973.187 482.771, 968.873 487.053, 963.809 491.245, 958.033 495.342, 951.581 499.340, 944.490 503.235, 936.794 507.023, 928.528 510.704, 919.725 514.273, 910.416 517.604, 900.987 517.729, 900.632 520.835, 891.127 521.071, 890.403 523.971, 880.832 524.298, 879.755 527.010, 870.130 527.408, 868.717 529.947, 859.045 530.401, 857.314 532.779, 847.601 533.277, 845.571 535.505, 835.822 536.034, 833.510 537.594, 826.207 " fill="none" stroke="rgb(0, 0, 0)" stroke-linecap="butt" stroke-linejoin="round" stroke-opacity="1.0" stroke-width="3.0" />
            <path d=" M 551.687, 744.408 552.035, 741.936 553.333, 732.020 553.852, 728.052 555.055, 718.125 555.553, 714.016 556.664, 704.078 557.138, 699.843 558.160, 689.896 558.607, 685.546 559.542, 675.590 559.961, 671.138 560.812, 661.174 561.200, 656.632 561.968, 646.661 562.324, 642.040 563.011, 632.063 563.334, 627.373 563.942, 617.392 564.230, 612.644 564.758, 602.658 565.012, 597.864 565.462, 587.874 565.680, 583.043 566.052, 573.049 566.233, 568.191 566.529, 558.196 566.673, 553.321 566.891, 543.323 566.998, 538.442 567.140, 528.443 567.209, 523.564 567.227, 520.771 " fill="none" stroke="rgb(0, 0, 0)" stroke-linecap="butt" stroke-linejoin="round" stroke-opacity="1.0" stroke-width="3.0" />
            <path d=" M 475.369, 100.711 470.641, 101.166 465.842, 102.620 460.984, 105.109 456.075, 108.665 451.130, 113.321 446.161, 119.105 441.181, 126.043 436.208, 134.156 431.510, 142.984 431.256, 143.461 427.022, 152.520 426.344, 153.971 422.517, 163.209 421.488, 165.691 419.445, 171.221 416.709, 178.623 413.564, 188.116 412.025, 192.760 409.169, 202.344 407.457, 208.090 404.863, 217.747 403.025, 224.590 402.735, 225.786 400.381, 235.505 398.750, 242.234 398.383, 243.916 396.248, 253.686 394.653, 260.983 392.722, 270.794 391.311, 277.962 390.754, 280.792 389.014, 290.639 387.273, 300.487 387.075, 301.608 385.513, 311.485 383.951, 321.363 383.634, 323.369 382.241, 333.271 380.848, 343.174 380.708, 344.173 380.450, 346.004 379.219, 355.928 377.987, 365.852 377.542, 369.436 376.465, 379.378 375.388, 389.319 374.927, 393.579 373.999, 403.535 373.071, 413.492 372.619, 418.340 372.034, 425.780 371.250, 435.749 370.632, 443.621 369.989, 453.601 369.347, 463.580 368.977, 469.320 368.473, 479.307 367.969, 489.295 367.665, 495.328 367.297, 505.321 366.930, 515.314 366.702, 521.534 366.471, 531.531 366.239, 541.529 366.094, 547.826 365.999, 557.825 365.903, 567.825 365.844, 574.089 365.885, 584.089 365.926, 594.089 365.951, 600.210 366.130, 610.209 366.310, 620.207 366.415, 626.078 366.734, 636.073 367.054, 646.068 367.230, 651.583 367.693, 661.572 368.157, 671.561 368.391, 676.619 369.002, 686.600 369.613, 696.581 369.889, 701.085 370.652, 711.056 371.416, 721.027 371.712, 724.887 372.635, 734.844 373.558, 744.801 373.849, 747.935 374.939, 757.875 376.029, 767.816 376.285, 770.148 377.552, 780.067 378.818, 789.987 379.005, 791.451 380.459, 801.345 381.913, 811.239 381.992, 811.780 382.900, 817.190 383.959, 823.504 385.229, 831.075 387.098, 840.898 388.695, 849.288 390.581, 858.050 391.721, 863.344 392.374, 866.377 394.734, 876.095 396.244, 882.311 398.886, 891.955 399.676, 894.837 400.286, 897.064 403.242, 906.617 404.481, 910.619 407.789, 920.056 408.809, 922.967 412.422, 932.027 413.251, 934.106 417.407, 943.201 417.789, 944.038 422.404, 952.774 427.080, 960.327 431.799, 966.718 436.546, 971.969 441.307, 976.108 446.067, 979.164 450.814, 981.171 455.535, 982.163 " fill="none" stroke="rgb(0, 0, 0)" stroke-linecap="butt" stroke-linejoin="round" stroke-opacity="1.0" stroke-width="3.0" />
            <path d=" M 565.290, 522.845 565.300, 521.213 565.313, 520.737 565.346, 519.581 565.425, 518.034 565.428, 517.976 565.545, 516.427 565.694, 514.959 565.872, 513.599 566.077, 512.369 566.120, 512.167 566.306, 511.291 566.553, 510.381 566.815, 509.656 567.088, 509.126 567.304, 508.874 567.366, 508.801 567.645, 508.685 " fill="none" stroke="rgb(0, 0, 0)" stroke-linecap="butt" stroke-linejoin="round" stroke-opacity="1.0" stroke-width="3.0" />
            <path d=" M 567.995, 520.785 567.985, 520.281 567.961, 519.802 567.923, 519.361 567.872, 518.970 567.810, 518.639 567.739, 518.377 567.660, 518.192 567.575, 518.089 567.487, 518.070 " fill="none" stroke="rgb(0, 0, 0)" stroke-linecap="butt" stroke-linejoin="round" stroke-opacity="1.0" stroke-width="3.0" />
            <path d=" M 530.975, 474.785 531.024, 480.434 531.247, 480.437 536.591, 480.504 536.798, 480.391 536.606, 474.819 531.229, 474.655 531.043, 474.751 530.975, 474.785 " fill="none" stroke="rgb(0, 0, 0)" stroke-linecap="butt" stroke-linejoin="round" stroke-opacity="1.0" stroke-width="3.0" />
            <path d=" M 536.545, 474.852 530.975, 474.785 " fill="none" stroke="rgb(0, 0, 0)" stroke-linecap="butt" stroke-linejoin="round" stroke-opacity="1.0" stroke-width="3.0" />
            <path d=" M 536.591, 480.504 536.545, 474.852 536.606, 474.819 " fill="none" stroke="rgb(0, 0, 0)" stroke-linecap="butt" stroke-linejoin="round" stroke-opacity="1.0" stroke-width="3.0" />
            <path d=" M 532.966, 476.860 532.935, 476.894 532.829, 477.031 532.728, 477.225 532.667, 477.436 532.648, 477.654 532.674, 477.884 532.744, 478.098 532.852, 478.291 532.995, 478.458 533.010, 478.473 533.179, 478.606 533.370, 478.702 533.394, 478.710 533.590, 478.763 533.609, 478.767 533.636, 478.770 533.669, 478.773 533.707, 478.775 533.750, 478.776 533.792, 478.776 533.834, 478.775 533.875, 478.773 533.912, 478.771 533.945, 478.768 533.973, 478.765 533.994, 478.760 534.106, 478.732 534.187, 478.705 534.254, 478.678 " fill="none" stroke="rgb(0, 0, 0)" stroke-linecap="butt" stroke-linejoin="round" stroke-opacity="1.0" stroke-width="3.0" />
            <path d=" M 533.173, 476.686 533.133, 476.718 532.987, 476.841 532.966, 476.860 533.047, 476.781 " fill="none" stroke="rgb(0, 0, 0)" stroke-linecap="butt" stroke-linejoin="round" stroke-opacity="1.0" stroke-width="3.0" />
            <path d=" M 534.254, 478.678 534.393, 478.602 534.519, 478.507 534.631, 478.395 534.725, 478.267 534.800, 478.126 534.854, 477.976 534.887, 477.819 534.897, 477.658 534.884, 477.497 534.849, 477.339 534.792, 477.187 534.715, 477.045 534.618, 476.914 534.505, 476.799 534.377, 476.701 534.237, 476.622 534.088, 476.564 533.932, 476.528 533.773, 476.514 533.615, 476.524 533.460, 476.556 533.312, 476.611 533.173, 476.686 533.047, 476.781 " fill="none" stroke="rgb(0, 0, 0)" stroke-linecap="butt" stroke-linejoin="round" stroke-opacity="1.0" stroke-width="3.0" />
            <path d=" M 623.043, 882.232 625.221, 882.724 633.134, 884.428 641.048, 885.385 648.946, 885.611 656.811, 885.124 664.627, 883.943 672.380, 882.088 680.054, 879.579 687.638, 876.438 695.118, 872.686 702.484, 868.346 709.724, 863.438 716.829, 857.986 723.789, 852.011 730.597, 845.535 737.243, 838.580 743.722, 831.167 750.026, 823.318 755.979, 815.283 756.149, 815.054 761.804, 806.806 762.086, 806.395 767.453, 797.957 767.832, 797.361 772.921, 788.753 773.383, 787.973 778.203, 779.211 778.733, 778.249 783.294, 769.350 783.879, 768.208 788.190, 759.185 788.818, 757.870 792.886, 748.735 793.547, 747.252 797.380, 738.016 798.062, 736.372 801.667, 727.044 802.361, 725.247 805.744, 715.836 806.442, 713.894 809.608, 704.408 810.302, 702.329 813.257, 692.775 813.940, 690.569 816.688, 680.954 817.353, 678.629 819.899, 668.958 820.540, 666.525 822.888, 656.804 823.499, 654.271 825.652, 644.506 826.230, 641.884 828.189, 632.078 828.729, 629.377 830.499, 619.534 830.997, 616.764 832.578, 606.890 833.031, 604.061 834.426, 594.159 834.831, 591.280 836.041, 581.354 836.396, 578.437 837.421, 568.490 837.724, 565.545 838.565, 555.580 838.815, 552.617 839.471, 542.638 839.667, 539.667 840.139, 529.678 840.279, 526.709 840.566, 516.713 840.650, 513.757 840.751, 503.758 840.781, 500.825 840.693, 490.826 840.668, 487.927 840.391, 477.931 840.312, 475.076 839.843, 465.087 839.712, 462.287 839.048, 452.309 838.867, 449.574 838.005, 439.611 837.775, 436.952 836.713, 427.009 836.438, 424.436 835.169, 414.517 834.852, 412.041 833.373, 402.151 833.019, 399.783 831.325, 389.927 830.938, 387.677 829.022, 377.862 828.607, 375.739 826.463, 365.972 826.028, 363.987 823.649, 354.274 823.199, 352.437 820.578, 342.787 820.121, 341.107 817.248, 331.528 816.794, 330.014 813.661, 320.517 813.219, 319.177 809.815, 309.774 809.396, 308.614 805.711, 299.318 805.326, 298.346 801.348, 289.171 801.010, 288.392 796.727, 279.355 796.450, 278.772 791.849, 269.893 791.648, 269.506 786.715, 260.808 786.607, 260.617 781.328, 252.126 775.816, 244.054 770.075, 236.425 764.108, 229.261 757.921, 222.586 751.520, 216.422 744.910, 210.793 738.100, 205.723 731.097, 201.235 723.911, 197.353 716.550, 194.100 709.026, 191.498 701.350, 189.570 693.536, 188.339 685.596, 187.823 677.546, 188.044 675.319, 188.235 " fill="none" stroke="rgb(0, 0, 0)" stroke-linecap="butt" stroke-linejoin="round" stroke-opacity="1.0" stroke-width="3.0" />
            <path d=" M 625.221, 882.724 624.989, 882.651 617.328, 880.256 609.474, 877.011 601.680, 872.977 593.967, 868.144 586.355, 862.504 578.868, 856.053 571.762, 849.017 571.529, 848.786 564.894, 841.305 564.361, 840.705 558.191, 832.836 557.388, 831.812 551.673, 823.607 550.635, 822.115 545.362, 813.618 544.124, 811.624 541.500, 806.886 539.070, 802.498 537.881, 800.351 537.646, 799.875 533.214, 790.911 532.898, 790.272 531.930, 788.314 531.490, 787.315 531.266, 786.807 527.230, 777.658 526.695, 776.443 526.294, 775.535 523.860, 769.333 521.522, 763.374 520.997, 762.037 517.711, 752.593 516.061, 747.851 513.128, 738.291 511.508, 733.009 508.916, 723.351 508.212, 720.727 507.358, 717.548 505.095, 707.807 503.632, 701.508 501.687, 691.699 500.345, 684.933 498.710, 675.067 497.516, 667.871 496.181, 657.960 495.159, 650.372 494.117, 640.427 493.285, 632.491 492.530, 622.520 491.907, 614.284 491.433, 604.295 491.031, 595.810 490.835, 585.812 490.664, 577.130 490.742, 567.130 490.810, 558.306 491.159, 548.312 491.471, 539.401 492.089, 529.420 492.644, 520.480 492.735, 519.453 493.492, 510.961 493.696, 508.673 494.326, 501.608 495.482, 491.675 496.511, 482.848 497.938, 472.950 499.190, 464.264 500.889, 454.409 502.353, 445.918 504.327, 436.114 505.987, 427.871 507.404, 421.740 509.657, 411.997 510.076, 410.182 512.611, 400.508 514.604, 392.906 517.427, 383.313 519.551, 376.099 522.669, 366.598 524.897, 359.810 528.317, 350.413 530.620, 344.087 530.620, 344.086 534.350, 334.808 535.126, 332.877 536.696, 328.973 540.746, 319.829 541.219, 318.762 542.416, 316.058 543.102, 314.508 543.464, 313.766 543.906, 312.859 548.284, 303.868 549.813, 300.729 549.838, 300.682 551.341, 297.872 553.227, 294.348 553.892, 293.104 554.252, 292.433 554.601, 291.780 556.802, 287.667 561.870, 279.047 564.043, 275.352 569.473, 266.955 571.509, 263.806 577.313, 255.662 579.175, 253.050 579.930, 252.092 579.934, 252.087 579.943, 252.076 579.945, 252.073 580.178, 251.777 586.367, 243.922 587.014, 243.101 593.597, 235.573 594.999, 233.971 601.984, 226.815 603.104, 225.668 610.497, 218.934 611.305, 218.198 619.105, 211.940 619.576, 211.563 627.777, 205.842 627.893, 205.761 636.234, 200.789 644.575, 196.639 652.897, 193.303 661.179, 190.767 669.401, 189.020 676.144, 188.212 677.546, 188.044 " fill="none" stroke="rgb(0, 0, 0)" stroke-linecap="butt" stroke-linejoin="round" stroke-opacity="1.0" stroke-width="3.0" />
            <path d=" M 675.319, 188.235 667.163, 189.211 658.930, 190.958 650.638, 193.493 642.306, 196.828 633.954, 200.975 625.603, 205.943 617.396, 211.657 617.276, 211.740 609.470, 217.990 608.996, 218.370 601.597, 225.097 600.787, 225.833 593.795, 232.982 592.673, 234.128 586.083, 241.649 584.680, 243.250 578.484, 251.099 578.310, 251.320 578.169, 251.499 578.155, 251.516 576.834, 253.189 571.023, 261.327 569.161, 263.934 563.723, 272.327 561.688, 275.468 556.612, 284.085 554.440, 287.771 553.773, 289.016 553.118, 290.237 552.436, 291.510 550.856, 294.458 549.349, 297.269 547.446, 300.819 543.350, 309.214 541.854, 312.281 540.730, 314.583 538.681, 319.202 534.626, 328.342 534.319, 329.032 532.887, 332.590 529.939, 339.908 528.239, 344.130 524.813, 353.525 523.464, 357.226 522.512, 359.836 521.382, 363.275 518.258, 372.775 517.163, 376.106 514.335, 385.698 512.214, 392.894 509.675, 402.567 507.684, 410.150 505.429, 419.892 503.594, 427.819 501.617, 437.621 499.959, 445.845 498.258, 455.699 496.796, 464.170 495.367, 474.067 494.135, 482.603 494.116, 482.732 494.074, 483.094 492.916, 493.027 491.932, 501.471 491.469, 506.660 491.399, 507.454 491.089, 510.921 490.571, 516.736 490.333, 519.411 490.251, 520.322 490.200, 521.144 489.582, 531.124 489.080, 539.221 488.732, 549.215 488.422, 558.104 488.346, 568.103 488.279, 576.907 488.477, 586.905 488.649, 595.566 489.125, 605.555 489.529, 614.019 490.287, 623.991 490.912, 632.206 491.957, 642.151 492.790, 650.068 494.129, 659.978 495.153, 667.547 496.793, 677.412 497.987, 684.592 499.938, 694.400 501.280, 701.149 503.549, 710.888 505.013, 717.173 506.801, 723.816 507.330, 725.784 509.170, 732.619 512.109, 742.177 513.730, 747.447 517.024, 756.889 518.674, 761.620 519.008, 762.468 522.669, 771.774 523.137, 772.965 523.979, 775.105 526.021, 779.725 529.623, 787.873 530.879, 790.407 532.283, 793.240 535.583, 799.899 537.106, 802.643 538.525, 805.201 540.977, 809.617 541.835, 811.163 547.116, 819.655 548.354, 821.647 554.078, 829.847 555.118, 831.337 561.296, 839.200 562.100, 840.224 568.743, 847.699 569.278, 848.300 576.391, 855.330 576.627, 855.563 584.124, 862.012 591.746, 867.651 599.470, 872.483 607.275, 876.517 615.140, 879.762 623.043, 882.232 " fill="none" stroke="rgb(0, 0, 0)" stroke-linecap="butt" stroke-linejoin="round" stroke-opacity="1.0" stroke-width="3.0" />
            <path d=" M 788.370, 559.817 778.385, 559.271 777.631, 559.230 773.184, 557.082 764.180, 552.732 755.175, 548.383 754.094, 547.861 753.409, 547.530 752.724, 547.198 752.036, 546.866 751.350, 546.533 750.553, 546.012 749.807, 545.247 749.128, 544.253 748.529, 543.047 748.024, 541.654 747.621, 540.099 747.328, 538.412 747.151, 536.626 747.094, 534.774 747.157, 532.893 747.340, 531.019 747.493, 530.082 747.638, 529.189 747.821, 528.408 748.047, 527.438 748.558, 525.799 749.150, 524.332 749.161, 524.304 749.844, 522.983 750.595, 521.859 750.781, 521.648 750.973, 521.432 751.021, 521.377 751.397, 520.954 752.235, 520.285 752.950, 519.826 753.664, 519.368 754.378, 518.910 754.972, 518.529 755.090, 518.453 755.448, 518.224 756.532, 517.530 764.955, 512.140 773.377, 506.749 779.620, 502.754 " fill="none" stroke="rgb(0, 0, 0)" stroke-linecap="butt" stroke-linejoin="round" stroke-opacity="1.0" stroke-width="3.0" />
            <path d=" M 688.009, 268.080 679.661, 268.181 679.440, 268.206 674.884, 268.706 671.222, 269.109 662.718, 270.883 657.399, 272.522 654.175, 273.515 645.622, 277.005 637.082, 281.345 628.583, 286.528 620.457, 292.355 620.159, 292.569 612.468, 298.960 611.843, 299.479 604.600, 306.373 603.672, 307.256 596.879, 314.594 595.680, 315.889 589.329, 323.613 587.898, 325.353 581.975, 333.410 580.354, 335.616 574.842, 343.960 573.073, 346.638 567.968, 355.237 567.034, 356.811 566.605, 357.532 566.091, 358.398 563.426, 363.403 562.068, 365.953 559.448, 370.872 559.417, 370.938 558.914, 371.992 557.836, 374.257 554.686, 380.867 553.180, 384.028 553.116, 384.179 552.351, 385.981 550.757, 389.732 547.321, 397.821 544.419, 405.512 542.847, 409.680 541.897, 412.199 539.307, 419.967 536.928, 427.101 534.118, 436.698 532.429, 442.463 530.018, 451.934 528.417, 458.224 526.297, 467.997 524.922, 474.330 523.150, 484.171 521.971, 490.717 520.546, 500.615 519.906, 505.056 519.581, 507.319 519.138, 511.399 518.939, 513.230 518.455, 517.691 518.109, 520.875 517.763, 524.064 517.249, 531.012 516.520, 540.880 516.120, 550.872 515.847, 557.695 515.779, 567.695 515.733, 574.519 515.985, 584.516 516.153, 591.195 516.728, 601.178 517.101, 607.652 518.006, 617.611 518.571, 623.823 519.281, 629.490 520.525, 639.413 520.554, 639.641 520.876, 641.643 522.466, 651.516 523.034, 655.042 524.982, 664.851 525.998, 669.968 526.653, 672.717 528.971, 682.444 529.428, 684.361 532.131, 693.989 533.304, 698.169 534.606, 702.160 534.938, 703.177 535.103, 703.683 536.465, 707.858 537.487, 710.991 537.603, 711.346 541.121, 720.706 542.079, 723.254 542.302, 723.848 543.531, 726.701 543.734, 727.174 545.148, 730.458 547.377, 735.635 548.007, 736.917 548.811, 738.553 549.455, 739.865 551.687, 744.408 552.800, 746.674 557.685, 755.400 558.545, 756.938 563.925, 765.368 564.584, 766.402 570.478, 774.480 570.889, 775.044 577.312, 782.709 577.431, 782.852 584.182, 789.815 591.113, 795.926 598.196, 801.182 605.404, 805.586 612.710, 809.143 614.132, 809.666 620.089, 811.858 627.514, 813.745 634.962, 814.818 642.409, 815.091 649.834, 814.581 657.216, 813.310 664.534, 811.300 671.769, 808.572 678.905, 805.150 685.924, 801.059 692.811, 796.326 699.552, 790.974 706.134, 785.031 712.543, 778.525 718.769, 771.480 724.800, 763.924 730.628, 755.884 736.141, 747.541 736.243, 747.387 741.413, 738.827 741.636, 738.458 746.478, 729.708 746.801, 729.123 751.327, 720.206 751.731, 719.409 755.953, 710.344 756.419, 709.342 760.347, 700.145 760.860, 698.944 764.504, 689.632 765.048, 688.242 768.418, 678.827 768.978, 677.261 772.082, 667.754 772.647, 666.023 775.491, 656.436 776.050, 654.552 778.642, 644.893 779.184, 642.872 781.529, 633.151 782.046, 631.006 784.147, 621.229 784.632, 618.976 786.495, 609.151 786.939, 606.805 788.567, 596.938 788.967, 594.515 790.361, 584.613 790.711, 582.128 791.875, 572.196 792.171, 569.666 793.104, 559.710 793.344, 557.151 794.047, 547.175 794.229, 544.604 794.594, 536.910 " fill="none" stroke="rgb(0, 0, 0)" stroke-linecap="butt" stroke-linejoin="round" stroke-opacity="1.0" stroke-width="3.0" />
            <path d=" M 779.620, 502.754 789.582, 503.615 790.371, 503.683 " fill="none" stroke="rgb(0, 0, 0)" stroke-linecap="butt" stroke-linejoin="round" stroke-opacity="1.0" stroke-width="3.0" />
            <path d=" M 824.832, 519.068 824.815, 509.068 824.815, 508.837 824.534, 498.841 824.461, 496.256 823.909, 486.271 823.770, 483.754 822.943, 473.788 822.741, 471.356 822.061, 465.238 821.377, 459.086 819.992, 449.183 819.681, 446.964 818.016, 437.104 817.662, 435.009 815.707, 425.202 815.317, 423.245 813.057, 413.504 812.640, 411.703 810.063, 402.041 809.629, 400.413 806.721, 390.845 806.283, 389.404 803.036, 379.946 802.608, 378.700 799.012, 369.369 798.610, 368.323 794.661, 359.136 794.297, 358.291 789.985, 349.269 789.677, 348.625 784.981, 339.796 784.749, 339.361 779.648, 330.760 779.515, 330.535 773.978, 322.181 768.147, 314.328 762.032, 306.999 755.646, 300.211 749.003, 293.978 742.110, 288.337 734.977, 283.328 727.618, 278.988 720.046, 275.345 719.201, 275.026 712.280, 272.420 704.339, 270.228 696.242, 268.774 688.009, 268.080 " fill="none" stroke="rgb(0, 0, 0)" stroke-linecap="butt" stroke-linejoin="round" stroke-opacity="1.0" stroke-width="3.0" />
            <path d=" M 657.399, 272.522 662.442, 274.891 668.591, 278.561 674.559, 282.911 680.333, 287.909 685.903, 293.521 691.264, 299.704 696.409, 306.424 701.328, 313.664 706.011, 321.409 710.451, 329.634 714.642, 338.311 718.581, 347.409 722.205, 356.729 722.268, 356.891 725.568, 366.331 725.704, 366.722 728.692, 376.265 728.885, 376.881 731.569, 386.514 731.803, 387.353 734.194, 397.063 734.453, 398.116 736.563, 407.891 736.834, 409.147 738.675, 418.976 738.945, 420.418 740.530, 430.291 740.789, 431.901 742.132, 441.810 742.370, 443.567 743.481, 453.505 743.691, 455.392 744.570, 465.353 744.747, 467.359 745.397, 477.338 745.534, 479.450 745.957, 489.441 746.050, 491.642 746.251, 501.640 746.297, 503.913 746.287, 510.134 746.134, 511.355 745.926, 512.549 745.663, 513.706 745.348, 514.812 744.986, 515.856 744.578, 516.828 744.130, 517.716 743.646, 518.512 743.131, 519.207 742.591, 519.794 742.031, 520.267 741.457, 520.621 740.875, 520.852 740.291, 520.957 733.588, 521.468 " fill="none" stroke="rgb(0, 0, 0)" stroke-linecap="butt" stroke-linejoin="round" stroke-opacity="1.0" stroke-width="3.0" />
            <path d=" M 800.256, 536.043 801.016, 536.092 803.238, 536.234 812.857, 535.290 814.799, 535.100 822.595, 534.335 824.533, 534.144 824.554, 534.143 830.655, 533.677 830.901, 523.680 830.981, 520.421 830.967, 510.421 830.963, 507.198 830.688, 497.202 830.600, 494.030 830.060, 484.045 829.892, 480.942 829.081, 470.975 828.836, 467.958 827.751, 458.016 827.433, 455.100 826.069, 445.193 825.684, 442.394 824.033, 432.531 823.587, 429.864 821.642, 420.055 821.143, 417.536 818.897, 407.791 818.354, 405.434 815.797, 395.766 815.220, 393.585 814.077, 389.783 811.742, 382.015 808.532, 372.545 807.924, 370.752 807.348, 369.237 803.769, 359.821 799.858, 350.617 799.278, 349.252 794.997, 340.214 794.456, 339.072 789.791, 330.227 789.308, 329.310 784.245, 320.687 783.839, 319.995 781.911, 317.049 778.055, 311.157 776.027, 308.383 771.964, 302.825 765.573, 295.029 758.892, 287.798 751.931, 281.165 744.701, 275.157 737.215, 269.805 729.487, 265.137 721.532, 261.184 713.367, 257.972 705.010, 255.527 696.482, 253.877 687.803, 253.046 677.803, 252.984 668.079, 252.924 " fill="none" stroke="rgb(0, 0, 0)" stroke-linecap="butt" stroke-linejoin="round" stroke-opacity="1.0" stroke-width="3.0" />
            <path d=" M 687.803, 253.046 678.996, 253.055 673.819, 253.559 670.086, 253.923 661.256, 255.641 661.098, 255.671 652.061, 258.314 643.004, 261.861 633.956, 266.323 625.372, 271.455 624.949, 271.708 616.780, 277.475 616.017, 278.014 608.279, 284.348 607.192, 285.238 599.896, 292.077 598.511, 293.376 591.659, 300.659 590.008, 302.415 583.597, 310.089 581.719, 312.337 575.742, 320.355 573.680, 323.121 568.130, 331.440 565.928, 334.742 563.903, 338.128 563.410, 338.952 560.189, 344.338 558.497, 347.167 557.448, 349.123 555.878, 352.052 551.423, 360.357 550.201, 362.902 548.620, 366.194 544.740, 374.271 540.798, 383.461 538.482, 388.862 536.896, 393.020 533.332, 402.364 532.678, 404.077 529.484, 413.554 527.358, 419.860 524.527, 429.451 522.549, 436.149 520.076, 445.838 518.278, 452.879 516.156, 462.651 514.564, 469.982 512.790, 479.824 511.427, 487.387 510.000, 497.285 508.884, 505.020 508.039, 512.775 506.946, 522.806 506.207, 532.779 505.622, 540.668 505.229, 550.660 504.919, 558.529 " fill="none" stroke="rgb(0, 0, 0)" stroke-linecap="butt" stroke-linejoin="round" stroke-opacity="1.0" stroke-width="3.0" />
            <path d=" M 756.532, 517.530 756.541, 516.924 756.653, 514.102 756.604, 514.321 756.291, 515.432 755.930, 516.482 755.525, 517.458 755.079, 518.351 754.972, 518.529 " fill="none" stroke="rgb(0, 0, 0)" stroke-linecap="butt" stroke-linejoin="round" stroke-opacity="1.0" stroke-width="3.0" />
            <path d=" M 806.421, 525.631 808.046, 525.485 808.561, 525.386 809.075, 525.177 809.583, 524.862 810.082, 524.444 810.568, 523.929 811.036, 523.320 811.483, 522.624 811.906, 521.846 812.301, 520.992 812.666, 520.070 812.997, 519.087 813.293, 518.049 813.469, 517.305 813.550, 516.966 813.766, 515.844 823.145, 518.577 824.832, 519.068 824.649, 519.750 824.319, 520.739 823.957, 521.665 823.565, 522.523 823.146, 523.305 823.010, 523.520 822.702, 524.005 822.238, 524.617 821.757, 525.136 821.263, 525.556 820.759, 525.873 820.250, 526.083 819.740, 526.184 813.603, 526.748 807.124, 527.344 806.646, 526.069 806.421, 525.631 806.080, 524.965 805.438, 524.051 804.729, 523.341 803.965, 522.850 803.158, 522.585 799.716, 522.384 798.919, 522.337 791.290, 521.890 790.447, 521.856 790.372, 521.874 789.591, 522.054 788.734, 522.480 788.594, 522.594 787.928, 523.131 787.188, 523.997 786.493, 525.061 785.854, 526.305 785.282, 527.708 784.788, 529.247 784.379, 530.895 784.063, 532.625 783.845, 534.405 783.730, 536.207 789.681, 536.592 789.908, 536.607 794.594, 536.910 795.652, 536.979 800.006, 536.552 800.221, 536.531 800.256, 536.043 800.262, 535.958 800.344, 535.397 800.463, 534.863 800.547, 534.596 800.617, 534.371 800.801, 533.934 801.011, 533.564 801.145, 533.393 801.240, 533.271 801.483, 533.063 801.732, 532.945 801.982, 532.922 " fill="none" stroke="rgb(0, 0, 0)" stroke-linecap="butt" stroke-linejoin="round" stroke-opacity="1.0" stroke-width="3.0" />
            <path d=" M 773.184, 557.082 772.238, 567.037 772.159, 567.869 770.974, 577.799 770.687, 580.202 769.261, 590.099 768.922, 592.458 767.256, 602.318 766.867, 604.617 764.958, 614.433 764.526, 616.656 762.371, 626.421 761.900, 628.553 759.494, 638.259 758.992, 640.285 756.332, 649.925 755.807, 651.831 752.888, 661.395 752.347, 663.168 749.162, 672.647 748.616, 674.271 745.159, 683.654 744.620, 685.118 740.883, 694.394 740.362, 695.686 736.336, 704.840 735.848, 705.950 731.524, 714.967 731.083, 715.886 726.451, 724.748 726.074, 725.469 721.123, 734.157 720.828, 734.675 715.544, 743.165 715.350, 743.477 709.723, 751.743 709.650, 751.849 703.737, 759.768 697.618, 767.207 691.305, 774.138 684.808, 780.536 678.140, 786.375 671.312, 791.630 664.339, 796.272 657.235, 800.277 650.016, 803.623 642.699, 806.282 635.302, 808.231 627.843, 809.450 620.343, 809.918 614.132, 809.666 " fill="none" stroke="rgb(0, 0, 0)" stroke-linecap="butt" stroke-linejoin="round" stroke-opacity="1.0" stroke-width="3.0" />
            <path d=" M 789.908, 536.607 789.547, 544.244 788.793, 554.215 788.370, 559.817 779.387, 555.423 777.973, 554.732 773.544, 552.565 765.581, 548.670 764.902, 548.338 764.223, 548.006 763.542, 547.672 762.862, 547.339 762.072, 546.816 761.334, 546.048 760.662, 545.050 760.070, 543.839 759.571, 542.439 759.173, 540.877 758.884, 539.182 758.710, 537.387 758.700, 537.025 758.655, 535.527 758.720, 533.637 758.903, 531.753 759.150, 530.230 759.201, 529.914 759.287, 529.539 759.608, 528.154 760.116, 526.507 760.715, 525.004 761.394, 523.676 762.138, 522.546 762.935, 521.636 763.766, 520.963 764.475, 520.501 765.183, 520.040 765.891, 519.580 766.598, 519.120 766.952, 518.890 775.339, 513.444 779.675, 510.629 788.062, 505.183 790.371, 503.683 790.429, 513.683 790.437, 515.133 790.422, 519.752 790.372, 521.874 " fill="none" stroke="rgb(0, 0, 0)" stroke-linecap="butt" stroke-linejoin="round" stroke-opacity="1.0" stroke-width="3.0" />
            <path d=" M 764.644, 537.416 764.332, 537.298 764.045, 537.037 763.796, 536.642 763.597, 536.132 763.455, 535.529 763.378, 534.860 763.368, 534.154 763.427, 533.441 763.551, 532.753 763.735, 532.121 763.971, 531.572 764.248, 531.129 764.554, 530.813 764.877, 530.637 765.200, 530.610 " fill="none" stroke="rgb(0, 0, 0)" stroke-linecap="butt" stroke-linejoin="round" stroke-opacity="1.0" stroke-width="3.0" />
            <path d=" M 765.200, 530.610 765.512, 530.731 765.798, 530.994 766.045, 531.390 766.244, 531.898 766.384, 532.499 766.461, 533.167 766.470, 533.871 766.412, 534.581 766.289, 535.266 766.106, 535.897 765.871, 536.446 765.595, 536.888 765.289, 537.206 764.967, 537.384 764.644, 537.416 " fill="none" stroke="rgb(0, 0, 0)" stroke-linecap="butt" stroke-linejoin="round" stroke-opacity="1.0" stroke-width="3.0" />
            <path d=" M 800.006, 536.552 799.619, 544.691 798.915, 554.666 798.692, 557.824 797.760, 567.780 797.466, 570.924 796.304, 580.857 795.940, 583.971 794.548, 593.873 794.117, 596.941 792.494, 606.808 791.999, 609.813 790.142, 619.639 789.589, 622.565 787.493, 632.343 786.887, 635.173 784.550, 644.896 783.896, 647.616 781.314, 657.276 780.621, 659.869 777.787, 669.459 777.063, 671.909 773.971, 681.419 773.225, 683.712 769.868, 693.132 769.112, 695.254 765.483, 704.573 764.728, 706.511 760.818, 715.714 760.078, 717.455 755.875, 726.529 755.165, 728.062 750.661, 736.990 749.997, 738.306 745.179, 747.069 744.579, 748.160 739.435, 756.735 738.919, 757.595 733.434, 765.957 733.022, 766.585 727.185, 774.705 726.899, 775.104 720.695, 782.947 720.557, 783.121 714.007, 790.607 707.260, 797.535 700.327, 803.877 693.221, 809.602 685.956, 814.682 678.547, 819.090 671.010, 822.798 663.362, 825.778 655.622, 828.003 647.809, 829.451 639.945, 830.097 632.052, 829.917 624.152, 828.893 616.271, 827.007 608.435, 824.242 600.670, 820.584 593.003, 816.027 585.464, 810.564 578.083, 804.189 571.055, 797.075 570.889, 796.906 564.402, 789.296 563.912, 788.721 557.957, 780.688 557.183, 779.644 551.747, 771.251 550.734, 769.688 548.557, 765.852 546.224, 761.744 544.739, 759.128 544.595, 758.874 540.102, 749.854 538.795, 747.229 538.633, 746.857 534.634, 737.691 533.908, 736.027 533.364, 734.781 530.943, 728.424 528.332, 721.565 525.194, 712.070 523.724, 707.623 520.989, 698.004 519.567, 693.000 517.220, 683.280 515.884, 677.748 514.959, 673.149 512.986, 663.346 512.699, 661.920 511.087, 652.051 510.029, 645.579 508.767, 635.659 507.893, 628.788 506.971, 618.831 506.304, 611.615 505.716, 601.632 505.274, 594.131 505.013, 584.134 504.811, 576.410 504.871, 566.410 504.919, 558.529 503.112, 548.694 501.461, 539.712 " fill="none" stroke="rgb(0, 0, 0)" stroke-linecap="butt" stroke-linejoin="round" stroke-opacity="1.0" stroke-width="3.0" />
            <path d=" M 668.079, 252.924 660.109, 252.891 656.116, 253.299 652.038, 253.716 643.889, 255.418 635.686, 258.013 627.456, 261.513 619.226, 265.930 611.026, 271.270 603.101, 277.370 602.885, 277.536 595.426, 284.196 594.834, 284.724 587.842, 291.873 586.906, 292.830 580.375, 300.403 579.133, 301.843 573.052, 309.782 571.548, 311.746 565.904, 320.001 564.184, 322.516 561.702, 326.572 561.161, 327.455 558.885, 331.174 557.076, 334.129 556.089, 335.928 554.529, 338.770 550.257, 346.552 548.761, 349.589 547.192, 352.774 543.758, 359.746 539.720, 368.894 537.613, 373.669 535.398, 379.283 531.851, 388.274 528.539, 397.710 526.503, 403.507 523.538, 413.057 521.596, 419.310 518.969, 428.959 517.155, 435.621 514.860, 445.354 513.205, 452.374 511.236, 462.178 509.766, 469.500 508.118, 479.363 506.855, 486.925 505.526, 496.837 504.488, 504.577 503.630, 513.018 502.679, 522.379 501.978, 532.354 501.461, 539.712 499.400, 549.497 497.521, 558.416 " fill="none" stroke="rgb(0, 0, 0)" stroke-linecap="butt" stroke-linejoin="round" stroke-opacity="1.0" stroke-width="3.0" />
            <path d=" M 497.417, 576.875 497.685, 586.871 497.906, 595.165 498.502, 605.148 498.982, 613.208 499.912, 623.165 500.637, 630.925 501.911, 640.843 502.861, 648.241 504.486, 658.108 505.635, 665.085 507.624, 674.885 508.944, 681.392 511.308, 691.108 512.195, 694.751 512.766, 697.096 515.521, 706.709 517.078, 712.142 520.240, 721.629 521.855, 726.476 525.441, 735.811 527.070, 740.052 528.561, 743.440 531.583, 750.304 532.694, 752.827 536.445, 760.287 537.909, 763.198 538.697, 764.766 542.704, 771.753 544.180, 774.326 545.047, 775.839 546.588, 778.191 551.715, 786.020 557.715, 794.020 558.667, 795.289 565.202, 802.858 565.871, 803.633 572.948, 810.697 573.295, 811.043 580.908, 817.514 588.678, 823.044 596.576, 827.640 604.570, 831.310 612.634, 834.062 620.740, 835.913 628.860, 836.880 636.970, 836.982 645.047, 836.240 653.066, 834.680 661.009, 832.326 668.853, 829.203 676.582, 825.339 684.177, 820.764 691.622, 815.506 698.902, 809.593 706.004, 803.054 712.915, 795.921 719.484, 788.382 719.622, 788.222 725.813, 780.369 726.116, 779.986 731.943, 771.859 732.386, 771.242 737.863, 762.875 738.423, 762.019 743.563, 753.441 744.219, 752.346 749.034, 743.582 749.767, 742.249 754.270, 733.321 755.059, 731.758 759.263, 722.684 760.090, 720.898 764.003, 711.695 764.853, 709.696 768.486, 700.379 769.344, 698.178 772.706, 688.760 773.558, 686.370 776.656, 676.862 777.491, 674.296 780.331, 664.708 781.138, 661.982 783.727, 652.323 784.497, 649.451 786.840, 639.729 787.564, 636.727 789.665, 626.950 790.335, 623.834 792.199, 614.009 792.808, 610.794 794.438, 600.928 794.982, 597.632 796.379, 587.730 796.853, 584.368 798.019, 574.436 798.419, 571.026 799.355, 561.070 799.678, 557.629 800.385, 547.654 800.630, 544.198 801.016, 536.092 " fill="none" stroke="rgb(0, 0, 0)" stroke-linecap="butt" stroke-linejoin="round" stroke-opacity="1.0" stroke-width="3.0" />
            <path d=" M 497.521, 558.416 497.465, 568.416 497.417, 576.875 " fill="none" stroke="rgb(0, 0, 0)" stroke-linecap="butt" stroke-linejoin="round" stroke-opacity="1.0" stroke-width="3.0" />
            <path d=" M 814.077, 389.783 813.363, 386.244 811.152, 376.491 810.869, 375.241 808.419, 365.546 808.139, 364.437 805.442, 354.807 805.173, 353.847 802.220, 344.293 801.972, 343.490 798.752, 334.022 798.535, 333.384 795.036, 324.016 794.862, 323.550 791.073, 314.295 790.955, 314.006 786.866, 304.880 786.816, 304.770 782.449, 295.858 777.856, 287.288 773.040, 279.079 768.004, 271.253 762.751, 263.831 757.285, 256.836 751.609, 250.293 745.731, 244.221 739.656, 238.638 733.391, 233.564 726.945, 229.017 720.325, 225.019 713.539, 221.591 706.598, 218.756 699.511, 216.537 692.291, 214.958 684.950, 214.034 677.500, 213.779 669.957, 214.206 669.525, 214.270 662.336, 215.332 654.651, 217.169 646.921, 219.732 639.163, 223.034 631.397, 227.090 623.643, 231.907 615.921, 237.485 608.252, 243.824 600.945, 250.651 600.657, 250.920 597.703, 254.013 597.517, 254.208 597.464, 254.263 597.402, 254.328 597.364, 254.367 593.158, 258.770 590.886, 261.417 585.778, 267.368 581.489, 272.902 578.540, 276.706 572.794, 284.890 571.471, 286.774 566.095, 295.206 564.594, 297.559 559.577, 306.210 557.935, 309.042 557.931, 309.049 557.344, 310.160 556.679, 311.419 553.873, 316.731 552.338, 319.636 551.693, 320.857 551.514, 321.195 547.177, 330.205 546.544, 331.519 545.355, 333.990 545.029, 334.734 541.014, 343.893 539.479, 347.396 535.778, 356.685 533.908, 361.380 533.356, 362.907 529.961, 372.313 528.664, 375.906 525.567, 385.414 523.768, 390.937 520.965, 400.536 519.243, 406.431 516.728, 416.110 515.108, 422.344 512.872, 432.091 511.374, 438.623 509.413, 448.429 508.056, 455.218 506.367, 465.074 505.167, 472.077 503.749, 481.976 502.722, 489.148 501.572, 499.081 500.729, 506.373 499.941, 515.265 499.194, 523.698 498.579, 533.679 498.124, 541.065 497.777, 551.059 497.521, 558.416 497.445, 568.416 497.389, 575.696 497.417, 576.875 497.609, 586.873 497.724, 592.846 498.194, 602.835 498.523, 609.813 499.273, 619.785 499.782, 626.542 500.817, 636.489 501.493, 642.981 502.821, 652.892 503.649, 659.077 505.273, 668.945 506.235, 674.786 508.165, 684.598 509.240, 690.061 511.470, 699.740 512.649, 704.858 515.222, 714.522 516.451, 719.135 519.363, 728.702 520.628, 732.855 523.890, 742.308 525.159, 745.986 527.209, 751.258 530.025, 758.499 530.105, 758.681 534.104, 767.847 534.839, 769.532 535.205, 770.370 536.262, 772.534 540.678, 781.573 540.937, 782.049 542.382, 784.692 544.750, 789.026 546.424, 792.089 551.641, 800.620 552.423, 801.897 558.080, 810.143 558.655, 810.981 564.766, 818.897 565.099, 819.329 571.731, 826.937 578.527, 833.805 585.467, 839.931 592.528, 845.317 599.692, 849.966 606.939, 853.881 614.250, 857.066 621.608, 859.527 627.300, 860.875 628.994, 861.276 636.389, 862.331 643.777, 862.708 651.142, 862.423 658.468, 861.494 665.743, 859.935 672.952, 857.763 680.083, 854.992 687.125, 851.639 694.065, 847.726 700.893, 843.276 707.600, 838.311 714.177, 832.852 720.615, 826.918 726.907, 820.528 733.044, 813.699 739.021, 806.448 744.829, 798.793 750.464, 790.756 755.921, 782.358 761.089, 773.797 761.196, 773.620 766.092, 764.901 766.284, 764.560 770.918, 755.699 771.181, 755.195 775.561, 746.205 775.884, 745.541 780.016, 736.435 780.388, 735.615 784.278, 726.402 784.689, 725.430 788.345, 716.122 788.784, 715.004 792.213, 705.610 792.671, 704.355 795.881, 694.884 796.349, 693.501 799.345, 683.960 799.816, 682.458 802.602, 672.853 803.070, 671.239 805.651, 661.578 806.109, 659.861 808.487, 650.148 808.930, 648.337 811.107, 638.577 811.530, 636.681 813.510, 626.878 813.908, 624.906 815.694, 615.067 816.064, 613.029 817.659, 603.157 817.997, 601.064 819.402, 591.163 819.705, 589.024 820.921, 579.098 821.187, 576.923 822.214, 566.976 822.442, 564.774 823.281, 554.809 823.468, 552.592 824.119, 542.613 824.264, 540.389 824.554, 534.143 " fill="none" stroke="rgb(0, 0, 0)" stroke-linecap="butt" stroke-linejoin="round" stroke-opacity="1.0" stroke-width="3.0" />
            <path d=" M 667.717, 214.373 660.085, 215.498 652.391, 217.335 644.651, 219.896 636.883, 223.197 629.107, 227.250 621.345, 232.063 613.614, 237.636 605.937, 243.970 598.623, 250.790 598.333, 251.060 595.479, 254.042 595.472, 254.049 595.348, 254.178 590.827, 258.902 585.198, 265.446 583.439, 267.492 577.305, 275.390 576.195, 276.820 574.875, 278.696 569.118, 286.878 563.735, 295.305 562.236, 297.652 557.246, 306.239 556.627, 307.304 556.267, 307.923 555.570, 309.122 553.413, 313.198 551.898, 316.060 549.145, 321.262 546.031, 327.719 544.511, 330.870 542.981, 334.043 540.864, 338.863 537.100, 347.434 533.393, 356.722 532.747, 358.342 531.525, 361.403 528.124, 370.807 526.278, 375.913 523.176, 385.420 521.379, 390.927 518.572, 400.525 516.852, 406.404 514.333, 416.081 512.715, 422.298 510.476, 432.044 508.980, 438.559 507.016, 448.364 505.661, 455.135 503.970, 464.991 502.772, 471.975 501.352, 481.873 500.327, 489.025 499.177, 498.959 498.334, 506.231 497.452, 516.192 497.397, 516.815 496.801, 523.536 496.187, 533.517 495.733, 540.883 495.387, 550.877 495.132, 558.215 495.057, 568.214 495.002, 575.474 495.199, 585.473 495.340, 592.606 495.813, 602.595 496.143, 609.554 496.897, 619.526 497.406, 626.265 498.445, 636.211 499.122, 642.685 500.454, 652.596 501.282, 658.765 502.912, 668.631 503.874, 674.457 505.809, 684.267 506.884, 689.715 509.135, 699.459 510.299, 704.498 510.609, 705.660 513.189, 715.322 514.108, 718.761 517.027, 728.325 518.291, 732.467 521.561, 741.918 522.830, 745.586 526.462, 754.903 526.535, 755.090 527.704, 758.087 529.474, 762.135 532.891, 769.947 534.257, 772.738 535.695, 775.675 538.372, 781.141 540.432, 784.903 541.880, 787.547 544.126, 791.648 544.256, 791.861 549.483, 800.387 550.134, 801.449 555.799, 809.689 556.375, 810.526 562.493, 818.436 562.828, 818.868 569.469, 826.472 576.274, 833.336 583.224, 839.459 590.295, 844.844 597.469, 849.491 604.725, 853.406 612.047, 856.592 619.415, 859.054 626.810, 860.805 " fill="none" stroke="rgb(0, 0, 0)" stroke-linecap="butt" stroke-linejoin="round" stroke-opacity="1.0" stroke-width="3.0" />
            <path d=" M 669.957, 214.206 667.717, 214.373 " fill="none" stroke="rgb(0, 0, 0)" stroke-linecap="butt" stroke-linejoin="round" stroke-opacity="1.0" stroke-width="3.0" />
            <path d=" M 626.810, 860.805 628.994, 861.276 " fill="none" stroke="rgb(0, 0, 0)" stroke-linecap="butt" stroke-linejoin="round" stroke-opacity="1.0" stroke-width="3.0" />
            <path d=" M 479.288, 558.092 479.217, 568.092 479.147, 577.887 479.353, 587.885 479.552, 597.528 480.038, 607.516 480.497, 616.948 481.268, 626.918 481.977, 636.080 483.037, 646.024 483.980, 654.864 485.337, 664.771 486.497, 673.237 488.158, 683.098 489.513, 691.143 491.487, 700.946 493.013, 708.527 495.308, 718.260 496.977, 725.340 499.605, 734.988 501.388, 741.534 503.252, 747.520 505.058, 753.322 506.224, 757.066 509.553, 766.495 511.462, 771.898 511.479, 771.943 515.180, 781.233 517.078, 785.997 518.741, 789.709 519.279, 790.912 520.323, 793.243 521.671, 796.253 522.100, 797.212 523.049, 799.331 527.198, 807.590 528.595, 810.373 529.350, 811.875 529.383, 811.934 530.797, 814.447 533.612, 819.447 534.756, 821.479 535.027, 821.961 535.954, 823.608 537.594, 826.207 542.836, 834.512 548.619, 842.669 549.969, 844.573 556.211, 852.386 557.328, 853.783 564.038, 861.198 564.887, 862.136 572.069, 869.095 572.620, 869.629 580.271, 876.068 580.502, 876.262 588.510, 882.041 596.618, 886.972 604.804, 891.064 613.047, 894.329 621.324, 896.781 625.654, 897.788 633.924, 899.436 642.188, 900.302 650.429, 900.406 658.629, 899.765 666.773, 898.403 674.844, 896.340 682.828, 893.600 690.713, 890.204 698.484, 886.176 706.132, 881.540 713.644, 876.319 721.011, 870.536 728.224, 864.216 735.274, 857.382 742.154, 850.056 748.674, 842.473 748.856, 842.261 755.060, 834.418 755.375, 834.019 761.272, 825.944 761.703, 825.354 767.305, 817.070 767.837, 816.285 773.154, 807.816 773.770, 806.835 778.812, 798.199 779.498, 797.023 784.275, 788.237 785.018, 786.870 789.538, 777.949 790.326, 776.395 794.598, 767.353 795.418, 765.618 799.451, 756.467 800.292, 754.557 804.092, 745.307 804.945, 743.230 808.519, 733.890 809.374, 731.655 812.728, 722.234 813.577, 719.849 816.718, 710.355 817.553, 707.829 820.484, 698.269 821.299, 695.612 824.026, 685.991 824.813, 683.213 827.340, 673.538 828.095, 670.648 830.425, 660.923 831.142, 657.933 833.279, 648.164 833.953, 645.081 835.900, 635.273 836.528, 632.109 838.287, 622.265 838.864, 619.031 840.437, 609.155 840.961, 605.860 842.349, 595.957 842.818, 592.612 844.022, 582.685 844.433, 579.300 845.455, 569.352 845.805, 565.937 846.645, 555.973 846.934, 552.539 847.591, 542.560 847.818, 539.117 848.293, 529.129 848.456, 525.688 848.748, 515.692 848.848, 512.263 848.956, 502.263 848.992, 498.857 848.914, 488.857 848.888, 485.484 848.622, 475.487 848.533, 472.158 848.078, 462.168 847.929, 458.894 847.281, 448.915 847.072, 445.705 846.229, 435.741 845.963, 432.607 844.920, 422.661 844.601, 419.615 843.355, 409.693 842.985, 406.743 841.531, 396.850 841.113, 394.009 839.446, 384.148 838.986, 381.427 837.100, 371.606 836.603, 369.014 834.492, 359.239 833.963, 356.787 831.620, 347.065 831.065, 344.764 828.483, 335.103 827.911, 332.962 825.081, 323.371 824.499, 321.399 821.412, 311.888 820.830, 310.095 817.475, 300.675 816.904, 299.069 813.272, 289.752 812.722, 288.340 808.801, 279.141 808.285, 277.930 804.062, 268.865 803.594, 267.859 799.057, 258.947 798.650, 258.149 793.786, 249.412 793.457, 248.821 788.250, 240.284 788.016, 239.900 782.453, 231.590 782.331, 231.406 776.404, 223.366 770.241, 215.801 763.846, 208.738 757.225, 202.200 750.384, 196.213 743.329, 190.801 736.070, 185.990 728.614, 181.805 720.972, 178.272 713.154, 175.414 705.173, 173.257 697.040, 171.823 688.771, 171.135 680.380, 171.217 675.947, 171.628 667.428, 172.501 658.821, 174.180 650.146, 176.683 641.422, 180.026 632.671, 184.223 624.013, 189.228 623.915, 189.285 615.643, 194.903 615.177, 195.219 607.306, 201.387 606.482, 202.033 599.019, 208.690 597.855, 209.728 590.802, 216.817 589.322, 218.304 582.675, 225.774 580.911, 227.756 574.662, 235.562 572.649, 238.075 566.788, 246.178 566.034, 247.219 564.565, 249.251 559.081, 257.614 556.685, 261.267 551.568, 269.858 551.065, 270.702 549.040, 274.102 548.535, 275.034 548.071, 275.891 547.988, 276.045 547.772, 276.443 546.517, 278.760 543.824, 283.731 543.543, 284.250 542.061, 286.987 541.658, 287.731 540.231, 290.627 538.764, 293.605 534.566, 302.125 532.932, 305.777 531.501, 308.973 527.794, 317.251 526.491, 320.458 522.728, 329.723 521.368, 333.071 518.297, 341.427 515.314, 349.542 512.169, 359.035 509.657, 366.619 506.811, 376.205 504.422, 384.251 501.868, 393.919 499.631, 402.383 497.363, 412.123 495.304, 420.960 493.796, 428.396 491.910, 437.698 491.460, 439.921 489.750, 449.773 488.115, 459.202 486.680, 469.099 485.283, 478.739 484.122, 488.672 482.977, 498.465 482.182, 507.361 481.293, 517.321 481.205, 518.312 481.081, 520.315 481.018, 521.331 480.400, 531.312 479.974, 538.211 479.629, 548.205 479.446, 553.486 479.288, 558.092 " fill="none" stroke="rgb(0, 0, 0)" stroke-linecap="butt" stroke-linejoin="round" stroke-opacity="1.0" stroke-width="3.0" />
            <path d=" M 680.380, 171.217 671.883, 172.087 663.299, 173.766 654.646, 176.270 645.944, 179.617 637.214, 183.819 628.478, 188.887 620.216, 194.520 619.760, 194.831 611.901, 201.014 611.084, 201.656 603.635, 208.326 602.476, 209.364 595.436, 216.466 593.961, 217.955 587.328, 225.438 585.567, 227.424 579.332, 235.243 577.321, 237.764 571.474, 245.877 569.495, 248.623 569.251, 248.962 563.782, 257.334 561.385, 261.002 556.282, 269.602 553.753, 273.864 552.035, 277.048 550.232, 280.388 549.495, 281.753 549.048, 282.582 547.556, 285.347 546.383, 287.522 541.977, 296.499 541.451, 297.569 539.976, 300.575 539.302, 301.947 535.228, 311.079 532.540, 317.106 531.749, 319.060 527.963, 328.411 526.122, 332.961 522.682, 342.350 520.075, 349.469 516.940, 358.964 514.425, 366.583 511.587, 376.172 509.195, 384.255 506.648, 393.925 504.408, 402.429 502.146, 412.170 500.084, 421.049 498.102, 430.850 496.241, 440.053 495.894, 442.061 495.724, 443.044 494.019, 452.897 493.109, 458.153 492.897, 459.379 492.637, 461.175 491.206, 471.072 490.065, 478.961 489.897, 480.399 488.737, 490.331 487.757, 498.733 486.985, 507.383 486.810, 509.344 486.676, 510.848 486.157, 516.659 485.982, 518.626 485.938, 519.333 485.809, 521.417 485.191, 531.398 484.747, 538.570 484.400, 548.564 484.217, 553.841 484.056, 558.497 483.982, 568.497 483.910, 578.337 484.112, 588.335 484.307, 598.023 484.788, 608.011 485.245, 617.485 486.009, 627.456 486.367, 632.123 486.715, 636.660 487.768, 646.605 488.078, 649.536 488.709, 655.485 490.057, 665.393 491.214, 673.898 492.866, 683.760 494.219, 691.841 496.181, 701.647 497.705, 709.262 499.989, 718.998 501.656, 726.109 504.272, 735.761 505.015, 738.505 506.053, 742.334 509.012, 751.887 510.873, 757.897 511.812, 760.567 515.127, 770.002 516.095, 772.757 519.781, 782.053 520.736, 784.462 521.695, 786.881 523.554, 791.052 527.649, 800.238 528.473, 801.886 529.863, 804.666 533.931, 812.803 534.741, 814.249 536.150, 816.762 538.656, 821.235 540.517, 824.554 545.837, 833.021 547.379, 835.474 553.147, 843.644 554.493, 845.550 560.720, 853.375 561.832, 854.772 568.527, 862.199 569.370, 863.134 576.539, 870.105 577.082, 870.634 584.722, 877.086 584.943, 877.273 592.928, 883.055 601.015, 887.987 609.179, 892.078 617.399, 895.340 625.654, 897.788 " fill="none" stroke="rgb(0, 0, 0)" stroke-linecap="butt" stroke-linejoin="round" stroke-opacity="1.0" stroke-width="3.0" />
            <path d=" M 734.233, 522.937 733.718, 521.698 733.588, 521.468 733.113, 520.624 732.430, 519.734 731.678, 519.043 730.871, 518.562 730.022, 518.301 720.039, 517.717 718.865, 517.648 717.982, 517.611 717.085, 517.799 716.191, 518.209 715.347, 518.836 714.572, 519.672 713.844, 520.700 713.475, 521.366 713.177, 521.903 712.582, 523.261 712.070, 524.751 711.648, 526.347 711.326, 528.023 711.107, 529.748 710.997, 531.495 720.976, 532.141 722.199, 532.220 727.031, 531.812 727.065, 531.339 727.071, 531.257 727.153, 530.713 727.276, 530.196 727.292, 530.147 727.436, 529.719 727.628, 529.297 727.848, 528.939 728.089, 528.656 728.344, 528.456 728.607, 528.343 728.871, 528.322 " fill="none" stroke="rgb(0, 0, 0)" stroke-linecap="butt" stroke-linejoin="round" stroke-opacity="1.0" stroke-width="3.0" />
            <path d=" M 730.022, 518.301 729.144, 518.265 728.254, 518.455 727.365, 518.867 726.527, 519.498 725.757, 520.338 725.034, 521.372 724.607, 522.151 724.526, 522.298 724.498, 522.349 724.371, 522.581 723.779, 523.946 723.269, 525.443 722.850, 527.048 722.681, 527.933 722.528, 528.731 722.310, 530.465 722.274, 531.031 722.199, 532.220 " fill="none" stroke="rgb(0, 0, 0)" stroke-linecap="butt" stroke-linejoin="round" stroke-opacity="1.0" stroke-width="3.0" />
            <path d=" M 728.871, 528.322 729.128, 528.392 729.371, 528.552 729.594, 528.797 729.790, 529.120 729.955, 529.512 730.084, 529.964 730.173, 530.462 730.220, 530.992 730.223, 531.542 " fill="none" stroke="rgb(0, 0, 0)" stroke-linecap="butt" stroke-linejoin="round" stroke-opacity="1.0" stroke-width="3.0" />
            <path d=" M 734.233, 522.937 744.202, 522.161 750.781, 521.648 " fill="none" stroke="rgb(0, 0, 0)" stroke-linecap="butt" stroke-linejoin="round" stroke-opacity="1.0" stroke-width="3.0" />
            <path d=" M 727.065, 531.339 730.223, 531.542 740.188, 530.699 747.493, 530.082 " fill="none" stroke="rgb(0, 0, 0)" stroke-linecap="butt" stroke-linejoin="round" stroke-opacity="1.0" stroke-width="3.0" />
            <path d=" M 803.158, 522.585 802.323, 522.552 801.474, 522.751 800.624, 523.180 799.824, 523.835 799.235, 524.534 799.091, 524.706 798.401, 525.775 798.096, 526.378 797.889, 526.786 797.767, 527.026 797.199, 528.437 796.708, 529.984 796.301, 531.641 796.251, 531.916 796.210, 532.145 796.135, 532.554 795.986, 533.379 795.769, 535.169 795.731, 535.752 795.652, 536.979 " fill="none" stroke="rgb(0, 0, 0)" stroke-linecap="butt" stroke-linejoin="round" stroke-opacity="1.0" stroke-width="3.0" />
            <path d=" M 801.982, 532.922 802.224, 532.993 802.452, 533.156 802.661, 533.408 802.845, 533.740 802.998, 534.144 803.116, 534.608 803.197, 535.121 803.238, 535.668 803.238, 536.234 " fill="none" stroke="rgb(0, 0, 0)" stroke-linecap="butt" stroke-linejoin="round" stroke-opacity="1.0" stroke-width="3.0" />
            <path d=" M 783.949, 489.785 784.111, 489.780 784.328, 489.813 784.536, 489.892 784.726, 490.013 784.891, 490.172 785.026, 490.363 785.125, 490.581 785.185, 490.820 785.200, 491.076 785.170, 491.315 785.099, 491.542 784.989, 491.751 784.845, 491.932 784.671, 492.079 784.473, 492.188 784.255, 492.252 784.023, 492.268 783.862, 492.248 " fill="none" stroke="rgb(0, 0, 0)" stroke-linecap="butt" stroke-linejoin="round" stroke-opacity="1.0" stroke-width="3.0" />
            <path d=" M 783.949, 489.785 783.874, 489.795 783.867, 489.796 783.817, 489.809 783.793, 489.815 783.787, 489.817 783.762, 489.824 783.631, 489.858 783.412, 489.963 783.217, 490.109 783.054, 490.288 782.928, 490.498 782.844, 490.732 782.808, 490.985 782.824, 491.226 782.885, 491.458 782.991, 491.675 783.138, 491.867 783.319, 492.027 783.326, 492.032 783.535, 492.155 783.769, 492.235 783.781, 492.237 783.861, 492.247 783.862, 492.247 784.023, 492.268 " fill="none" stroke="rgb(0, 0, 0)" stroke-linecap="butt" stroke-linejoin="round" stroke-opacity="1.0" stroke-width="3.0" />
            <path d=" M 783.817, 489.809 783.790, 489.816 783.762, 489.824 " fill="none" stroke="rgb(0, 0, 0)" stroke-linecap="butt" stroke-linejoin="round" stroke-opacity="1.0" stroke-width="3.0" />
            <path d=" M 781.349, 487.788 781.131, 494.000 784.624, 494.164 786.791, 494.266 787.448, 494.078 787.156, 488.034 784.386, 487.900 781.777, 487.773 781.349, 487.788 " fill="none" stroke="rgb(0, 0, 0)" stroke-linecap="butt" stroke-linejoin="round" stroke-opacity="1.0" stroke-width="3.0" />
            <path d=" M 786.791, 494.266 787.011, 488.040 " fill="none" stroke="rgb(0, 0, 0)" stroke-linecap="butt" stroke-linejoin="round" stroke-opacity="1.0" stroke-width="3.0" />
            <path d=" M 787.156, 488.034 787.011, 488.040 781.349, 487.788 " fill="none" stroke="rgb(0, 0, 0)" stroke-linecap="butt" stroke-linejoin="round" stroke-opacity="1.0" stroke-width="3.0" />
            <path d=" M 713.475, 521.366 704.932, 520.641 694.968, 519.792 693.456, 519.663 683.492, 518.813 681.981, 518.684 672.016, 517.838 670.501, 517.709 660.536, 516.870 659.012, 516.741 649.046, 515.912 647.508, 515.784 637.542, 514.967 635.986, 514.839 626.018, 514.039 624.440, 513.912 614.471, 513.131 612.866, 513.005 602.895, 512.246 601.259, 512.121 591.286, 511.388 589.615, 511.265 579.640, 510.559 577.929, 510.438 577.852, 500.438 577.818, 495.962 577.623, 485.964 577.537, 481.555 577.222, 471.560 577.086, 467.235 576.650, 457.244 576.465, 453.022 575.903, 443.038 575.672, 438.937 574.981, 428.961 574.707, 425.000 573.883, 415.034 573.569, 411.232 572.607, 401.279 572.257, 397.656 571.152, 387.718 570.771, 384.296 569.515, 374.375 569.110, 371.173 567.697, 361.273 567.274, 358.313 567.034, 356.811 " fill="none" stroke="rgb(0, 0, 0)" stroke-linecap="butt" stroke-linejoin="round" stroke-opacity="1.0" stroke-width="3.0" />
            <path d=" M 537.780, 231.818 537.297, 231.467 532.512, 227.992 532.452, 227.943 529.955, 225.908 523.412, 220.575 523.157, 220.343 520.090, 217.563 514.480, 212.477 " fill="none" stroke="rgb(0, 0, 0)" stroke-linecap="butt" stroke-linejoin="round" stroke-opacity="1.0" stroke-width="3.0" />
            <path d=" M 555.124, 242.347 546.397, 237.419 544.991, 236.505 540.520, 233.599 539.668, 233.045 537.780, 231.818 537.307, 231.511 537.008, 231.316 " fill="none" stroke="rgb(0, 0, 0)" stroke-linecap="butt" stroke-linejoin="round" stroke-opacity="1.0" stroke-width="3.0" />
            <path d=" M 566.034, 247.219 560.532, 244.989 555.124, 242.347 550.885, 240.277 " fill="none" stroke="rgb(0, 0, 0)" stroke-linecap="butt" stroke-linejoin="round" stroke-opacity="1.0" stroke-width="3.0" />
            <path d=" M 514.480, 212.477 509.841, 208.873 507.868, 207.743 505.078, 206.146 505.063, 206.141 500.199, 204.337 495.216, 203.486 490.140, 203.628 484.985, 204.796 479.766, 207.026 478.161, 208.038 475.912, 209.457 474.498, 210.349 469.965, 214.146 469.198, 214.788 463.885, 220.367 459.140, 226.393 458.578, 227.106 455.540, 231.659 453.299, 235.016 450.483, 239.910 448.069, 244.104 443.580, 253.040 442.912, 254.370 438.866, 263.515 437.852, 265.808 434.201, 275.118 432.912, 278.405 429.616, 287.846 428.119, 292.137 425.144, 301.684 423.497, 306.973 420.816, 316.607 419.073, 322.875 416.663, 332.581 414.871, 339.795 412.711, 349.559 410.916, 357.674 408.991, 367.487 407.233, 376.448 405.529, 386.302 403.845, 396.042 402.350, 405.929 400.856, 415.817 400.772, 416.373 399.478, 426.289 398.184, 436.205 398.035, 437.350 396.934, 447.290 395.834, 457.229 395.651, 458.879 394.739, 468.837 393.826, 478.796 393.637, 480.856 392.908, 490.829 392.178, 500.802 392.005, 503.172 391.456, 513.157 390.907, 523.141 390.766, 525.715 390.396, 535.708 390.026, 545.701 389.927, 548.372 389.736, 558.371 389.545, 568.369 389.494, 571.030 389.483, 581.030 389.471, 591.030 389.468, 593.571 389.638, 603.569 389.808, 613.568 389.847, 615.881 389.877, 615.851 395.342, 610.616 397.086, 609.026 400.940, 605.511 406.643, 600.561 412.451, 595.760 418.365, 591.103 424.386, 586.585 430.516, 582.202 436.755, 577.948 443.105, 573.819 449.567, 569.811 456.142, 565.920 462.831, 562.141 469.637, 558.471 476.560, 554.906 479.446, 553.486 " fill="none" stroke="rgb(0, 0, 0)" stroke-linecap="butt" stroke-linejoin="round" stroke-opacity="1.0" stroke-width="3.0" />
            <path d=" M 359.851, 606.293 355.784, 615.429 353.790, 619.906 " fill="none" stroke="rgb(0, 0, 0)" stroke-linecap="butt" stroke-linejoin="round" stroke-opacity="1.0" stroke-width="3.0" />
            <path d=" M 478.161, 208.038 468.293, 208.156 " fill="none" stroke="rgb(0, 0, 0)" stroke-linecap="butt" stroke-linejoin="round" stroke-opacity="1.0" stroke-width="3.0" />
            <path d=" M 783.861, 492.247 783.862, 492.248 " fill="none" stroke="rgb(0, 0, 0)" stroke-linecap="butt" stroke-linejoin="round" stroke-opacity="1.0" stroke-width="3.0" />
        </g>
    </g>
</svg>
