<?xml version='1.0' encoding='ascii'?>
<svg xmlns="http://www.w3.org/2000/svg" height="1080" version="1.1" width="1080">
    <g id="View Layer_LineSet" inkscape:groupmode="lineset" inkscape:label="View Layer_LineSet" xmlns:inkscape="http://www.inkscape.org/namespaces/inkscape">
        <g id="strokes" inkscape:groupmode="layer" inkscape:label="strokes" xmlns:inkscape="http://www.inkscape.org/namespaces/inkscape">
            <path d=" M 564.860, 497.628 564.827, 498.785 564.776, 499.928 564.707, 501.011 564.705, 501.045 564.615, 502.125 564.508, 503.158 564.384, 504.133 564.244, 505.039 564.090, 505.869 563.920, 506.614 563.800, 507.070 563.794, 507.093 563.662, 507.521 563.526, 507.895 563.386, 508.213 563.243, 508.473 563.141, 508.614 " fill="none" stroke="rgb(0, 0, 0)" stroke-linecap="butt" stroke-linejoin="round" stroke-opacity="1.0" stroke-width="3.0" />
            <path d=" M 353.965, 626.257 360.314, 628.476 " fill="none" stroke="rgb(0, 0, 0)" stroke-linecap="butt" stroke-linejoin="round" stroke-opacity="1.0" stroke-width="3.0" />
            <path d=" M 378.159, 629.053 388.067, 627.696 390.117, 627.415 " fill="none" stroke="rgb(0, 0, 0)" stroke-linecap="butt" stroke-linejoin="round" stroke-opacity="1.0" stroke-width="3.0" />
            <path d=" M 390.117, 627.415 385.850, 618.371 381.583, 609.327 380.500, 607.033 " fill="none" stroke="rgb(0, 0, 0)" stroke-linecap="butt" stroke-linejoin="round" stroke-opacity="1.0" stroke-width="3.0" />
            <path d=" M 467.621, 210.591 463.134, 211.509 458.587, 213.508 453.996, 216.621 449.374, 220.878 444.738, 226.302 442.933, 228.880 440.783, 231.949 440.107, 232.916 435.497, 240.734 430.984, 249.658 430.930, 249.766 426.905, 258.921 426.425, 260.013 422.825, 269.343 422.004, 271.472 418.778, 280.937 417.690, 284.130 414.794, 293.701 413.505, 297.963 410.905, 307.619 409.471, 312.942 407.139, 322.667 405.614, 329.029 403.526, 338.809 401.954, 346.174 400.092, 355.999 398.515, 364.315 396.863, 374.178 395.319, 383.387 393.863, 393.280 392.387, 403.311 391.117, 413.230 389.847, 423.149 389.738, 424.001 388.646, 433.941 387.553, 443.881 387.390, 445.360 386.468, 455.318 385.546, 465.275 385.359, 467.289 384.603, 477.260 383.846, 487.232 383.660, 489.678 383.064, 499.660 382.469, 509.643 382.303, 512.413 381.866, 522.404 381.429, 532.394 381.298, 535.378 381.018, 545.374 380.738, 555.370 380.651, 558.452 380.528, 568.451 380.404, 578.450 380.366, 581.513 380.400, 591.513 380.434, 601.513 380.443, 604.442 380.500, 607.033 379.443, 616.977 378.386, 626.921 378.159, 629.053 " fill="none" stroke="rgb(0, 0, 0)" stroke-linecap="butt" stroke-linejoin="round" stroke-opacity="1.0" stroke-width="3.0" />
            <path d=" M 566.937, 520.740 567.248, 520.745 567.995, 520.759 574.848, 515.206 577.940, 513.326 577.848, 503.326 577.805, 498.632 577.593, 488.634 577.494, 484.014 577.160, 474.020 577.008, 469.493 576.548, 459.503 576.345, 455.090 575.757, 445.107 575.504, 440.826 574.784, 430.852 574.486, 426.724 573.628, 416.761 573.288, 412.806 572.289, 402.856 571.911, 399.095 570.763, 389.161 570.353, 385.617 569.049, 375.702 568.614, 372.395 567.146, 362.503 566.694, 359.456 566.160, 356.248 " fill="none" stroke="rgb(0, 0, 0)" stroke-linecap="butt" stroke-linejoin="round" stroke-opacity="1.0" stroke-width="3.0" />
            <path d=" M 562.965, 362.145 563.967, 368.085 565.452, 377.974 565.819, 380.415 567.138, 390.328 567.498, 393.027 568.659, 402.959 569.003, 405.893 570.014, 415.842 570.334, 418.991 571.201, 428.953 571.492, 432.295 572.222, 442.268 572.479, 445.783 573.075, 455.765 573.293, 459.432 573.760, 469.421 573.937, 473.219 574.277, 483.214 574.410, 487.125 574.627, 497.123 574.713, 501.128 574.724, 502.216 574.654, 502.971 574.575, 503.699 574.488, 504.393 574.392, 505.052 574.289, 505.670 574.179, 506.246 574.062, 506.775 573.940, 507.255 573.813, 507.683 573.681, 508.058 573.546, 508.376 573.408, 508.637 573.268, 508.838 573.127, 508.980 569.076, 512.143 568.883, 511.106 568.665, 510.237 568.426, 509.550 568.171, 509.057 567.903, 508.768 567.627, 508.686 567.308, 508.681 565.003, 508.644 564.730, 508.640 563.793, 508.625 563.141, 508.614 562.942, 508.611 559.370, 508.553 557.585, 508.524 557.424, 508.522 557.240, 508.519 556.950, 508.648 556.662, 508.986 556.380, 509.527 556.109, 510.264 555.854, 511.184 555.619, 512.272 555.600, 512.381 555.591, 512.434 555.409, 513.509 555.295, 514.360 555.226, 514.875 555.075, 516.346 554.957, 517.898 554.876, 519.503 554.831, 521.134 554.825, 522.763 555.569, 522.776 557.415, 522.809 557.530, 522.811 559.313, 522.843 562.882, 522.907 563.715, 522.922 564.668, 522.940 565.290, 522.951 566.920, 521.630 566.924, 521.114 566.937, 520.740 566.942, 520.599 566.975, 520.101 567.021, 519.633 567.078, 519.208 567.147, 518.837 567.223, 518.530 567.259, 518.429 567.306, 518.297 567.393, 518.143 567.482, 518.072 " fill="none" stroke="rgb(0, 0, 0)" stroke-linecap="butt" stroke-linejoin="round" stroke-opacity="1.0" stroke-width="3.0" />
            <path d=" M 462.708, 885.631 458.631, 884.680 458.621, 884.675 454.548, 882.707 450.473, 879.685 449.970, 879.176 446.420, 875.586 442.407, 870.388 438.448, 864.078 434.562, 856.643 430.766, 848.073 427.214, 838.726 427.079, 838.372 423.956, 828.872 423.520, 827.547 420.772, 817.932 420.108, 815.610 417.690, 805.907 416.862, 802.582 414.738, 792.811 413.801, 788.496 411.942, 778.670 410.943, 773.388 409.325, 763.519 408.307, 757.304 406.911, 747.402 405.910, 740.299 404.719, 730.370 403.768, 722.437 402.769, 712.487 401.895, 703.790 401.078, 693.823 400.307, 684.434 399.662, 674.455 399.015, 664.458 398.534, 654.470 398.054, 644.481 398.028, 643.954 397.707, 633.959 397.385, 623.964 397.355, 623.019 397.192, 614.277 " fill="none" stroke="rgb(0, 0, 0)" stroke-linecap="butt" stroke-linejoin="round" stroke-opacity="1.0" stroke-width="3.0" />
            <path d=" M 383.498, 290.980 381.853, 297.203 379.567, 306.938 378.367, 312.051 376.323, 321.840 375.035, 328.010 373.212, 337.842 371.878, 345.032 370.256, 354.900 368.915, 363.061 367.479, 372.958 366.163, 382.032 364.903, 391.952 363.643, 401.871 362.547, 411.811 361.451, 421.751 361.369, 422.494 360.429, 432.450 359.490, 442.405 359.357, 443.808 358.568, 453.777 357.778, 463.746 357.622, 465.716 356.978, 475.696 356.333, 485.675 356.176, 488.112 355.672, 498.099 355.169, 508.087 355.028, 510.884 354.662, 520.877 354.297, 530.870 354.186, 533.916 353.958, 543.913 353.729, 553.911 353.657, 557.090 353.565, 567.089 353.473, 577.089 353.443, 580.285 353.488, 590.285 353.533, 600.285 353.546, 603.380 353.729, 613.379 353.912, 623.377 353.965, 626.257 354.336, 636.250 354.707, 646.243 354.797, 648.649 355.337, 658.634 355.877, 668.619 355.982, 670.566 356.697, 680.540 357.413, 690.515 357.512, 691.902 358.410, 701.861 359.308, 711.821 359.374, 712.554 360.466, 722.494 361.556, 732.428 362.853, 742.344 364.042, 751.440 365.558, 761.324 366.815, 769.512 368.570, 779.357 369.857, 786.575 371.872, 796.370 373.149, 802.573 375.451, 812.304 376.670, 817.456 377.453, 820.336 " fill="none" stroke="rgb(0, 0, 0)" stroke-linecap="butt" stroke-linejoin="round" stroke-opacity="1.0" stroke-width="3.0" />
            <path d=" M 523.389, 535.629 523.361, 541.173 523.203, 551.172 523.137, 555.315 522.872, 565.311 522.761, 569.458 522.389, 579.452 522.234, 583.586 521.754, 593.574 521.557, 597.678 520.968, 607.660 520.729, 611.714 520.030, 621.690 519.750, 625.676 519.498, 628.779 " fill="none" stroke="rgb(0, 0, 0)" stroke-linecap="butt" stroke-linejoin="round" stroke-opacity="1.0" stroke-width="3.0" />
            <path d=" M 503.659, 747.439 501.807, 756.515 499.640, 766.277 499.212, 768.207 496.865, 777.928 496.475, 779.542 493.934, 789.214 493.599, 790.491 490.848, 800.105 490.585, 801.023 487.605, 810.569 487.437, 811.106 484.204, 820.569 484.156, 820.708 480.747, 829.797 477.213, 838.336 473.559, 846.290 469.788, 853.623 465.908, 860.298 461.923, 866.276 457.842, 871.519 453.672, 875.989 449.970, 879.176 " fill="none" stroke="rgb(0, 0, 0)" stroke-linecap="butt" stroke-linejoin="round" stroke-opacity="1.0" stroke-width="3.0" />
            <path d=" M 390.017, 622.242 390.117, 627.415 390.451, 637.410 390.786, 647.404 390.864, 649.749 391.369, 659.737 391.874, 669.724 391.969, 671.612 392.650, 681.589 393.331, 691.565 393.422, 692.896 394.287, 702.859 395.152, 712.821 395.211, 713.501 396.269, 723.445 397.322, 733.332 398.584, 743.252 399.736, 752.306 401.215, 762.196 402.435, 770.346 404.149, 780.198 405.399, 787.383 407.368, 797.187 408.608, 803.359 410.855, 813.103 412.037, 818.227 414.593, 827.894 415.664, 831.947 418.567, 841.516 419.468, 844.487 422.762, 853.929 423.424, 855.827 427.165, 865.101 427.510, 865.957 431.703, 874.869 435.983, 882.565 437.656, 885.064 437.916, 885.452 440.328, 889.056 444.719, 894.358 449.137, 898.490 453.565, 901.477 457.986, 903.350 462.385, 904.143 466.747, 903.888 471.060, 902.624 475.313, 900.394 479.494, 897.235 480.739, 896.006 483.594, 893.189 487.603, 888.299 491.515, 882.609 495.324, 876.157 499.022, 868.987 502.604, 861.139 502.923, 860.359 506.068, 852.654 509.407, 843.569 512.567, 834.081 512.619, 833.922 515.107, 825.716 515.702, 823.752 518.371, 814.115 518.654, 813.093 521.111, 803.400 521.471, 801.979 522.625, 797.015 " fill="none" stroke="rgb(0, 0, 0)" stroke-linecap="butt" stroke-linejoin="round" stroke-opacity="1.0" stroke-width="3.0" />
            <path d=" M 519.282, 789.551 518.963, 790.875 516.429, 800.549 516.210, 801.386 513.463, 811.002 513.335, 811.449 510.341, 821.032 507.231, 830.103 504.008, 838.625 500.676, 846.563 497.241, 853.882 493.706, 860.545 490.078, 866.513 486.364, 871.747 482.569, 876.211 478.703, 879.866 474.774, 882.671 470.791, 884.591 466.765, 885.590 462.708, 885.631 " fill="none" stroke="rgb(0, 0, 0)" stroke-linecap="butt" stroke-linejoin="round" stroke-opacity="1.0" stroke-width="3.0" />
            <path d=" M 555.295, 514.360 548.974, 514.086 548.219, 514.053 546.388, 513.974 546.426, 523.973 546.442, 528.017 546.381, 538.016 546.357, 542.102 546.199, 552.100 546.134, 556.209 545.878, 566.206 545.773, 570.320 545.419, 580.313 545.274, 584.414 544.823, 594.404 544.639, 598.474 544.089, 608.459 543.867, 612.479 543.216, 622.458 542.959, 626.409 542.206, 636.381 541.914, 640.245 541.057, 650.209 540.734, 653.967 539.771, 663.920 539.419, 667.553 538.345, 677.495 537.969, 680.981 536.781, 690.911 536.384, 694.231 535.330, 702.237 " fill="none" stroke="rgb(0, 0, 0)" stroke-linecap="butt" stroke-linejoin="round" stroke-opacity="1.0" stroke-width="3.0" />
            <path d=" M 537.893, 709.889 539.089, 700.380 540.222, 690.444 540.671, 686.508 541.693, 676.560 542.114, 672.457 543.029, 662.499 543.420, 658.250 544.232, 648.283 544.589, 643.909 545.300, 633.934 545.620, 629.454 546.234, 619.473 546.515, 614.906 547.032, 604.920 547.273, 600.285 547.696, 590.294 547.895, 585.610 548.225, 575.615 548.381, 570.900 548.618, 560.903 548.731, 556.176 548.876, 546.177 548.945, 541.455 548.998, 531.455 549.023, 526.757 548.985, 516.757 548.974, 514.086 " fill="none" stroke="rgb(0, 0, 0)" stroke-linecap="butt" stroke-linejoin="round" stroke-opacity="1.0" stroke-width="3.0" />
            <path d=" M 378.159, 629.053 378.505, 639.047 378.850, 649.041 378.962, 652.295 379.475, 662.282 379.989, 672.268 380.131, 675.037 380.817, 685.013 381.503, 694.990 381.653, 697.166 382.521, 707.129 383.389, 717.091 383.518, 718.576 384.577, 728.520 385.635, 738.464 385.710, 739.167 386.972, 749.087 388.213, 758.851 389.691, 768.741 391.007, 777.548 392.720, 787.400 394.074, 795.186 396.042, 804.990 397.391, 811.705 399.641, 821.449 400.937, 827.057 403.500, 836.723 404.688, 841.202 407.605, 850.767 408.624, 854.108 411.941, 863.542 412.719, 865.756 416.495, 875.015 416.952, 876.136 421.300, 885.243 425.743, 893.082 430.258, 899.665 434.825, 905.012 439.426, 909.144 444.042, 912.090 448.657, 913.884 453.255, 914.562 457.821, 914.160 462.342, 912.721 466.804, 910.287 471.198, 906.902 475.513, 902.609 " fill="none" stroke="rgb(0, 0, 0)" stroke-linecap="butt" stroke-linejoin="round" stroke-opacity="1.0" stroke-width="3.0" />
            <path d=" M 475.513, 902.609 482.024, 895.019 483.594, 893.189 " fill="none" stroke="rgb(0, 0, 0)" stroke-linecap="butt" stroke-linejoin="round" stroke-opacity="1.0" stroke-width="3.0" />
            <path d=" M 540.524, 538.918 530.524, 538.922 529.155, 538.923 526.114, 537.186 523.389, 535.629 519.366, 533.330 519.080, 533.167 518.794, 533.003 518.507, 532.839 518.222, 532.676 517.887, 532.363 517.565, 531.821 517.264, 531.059 517.154, 530.669 " fill="none" stroke="rgb(0, 0, 0)" stroke-linecap="butt" stroke-linejoin="round" stroke-opacity="1.0" stroke-width="3.0" />
            <path d=" M 519.615, 505.543 524.129, 496.620 528.608, 487.767 538.573, 488.602 540.062, 488.726 540.314, 498.723 540.566, 508.720 540.692, 513.727 540.690, 523.727 540.689, 527.776 540.541, 537.775 540.524, 538.918 531.929, 533.807 531.524, 533.566 531.249, 533.403 530.974, 533.239 530.698, 533.075 530.423, 532.911 530.101, 532.599 529.792, 532.056 529.503, 531.293 529.275, 530.450 529.241, 530.324 529.012, 529.167 528.819, 527.843 528.666, 526.378 528.556, 524.801 528.510, 523.612 528.492, 523.141 528.474, 521.430 528.503, 519.702 528.578, 517.990 528.621, 517.395 528.698, 516.328 528.861, 514.748 529.063, 513.280 529.277, 512.083 529.301, 511.952 529.569, 510.790 529.862, 509.816 530.174, 509.048 530.442, 508.494 530.711, 507.941 530.979, 507.388 531.247, 506.837 531.383, 506.561 535.759, 497.569 540.062, 488.726 " fill="none" stroke="rgb(0, 0, 0)" stroke-linecap="butt" stroke-linejoin="round" stroke-opacity="1.0" stroke-width="3.0" />
            <path d=" M 530.898, 523.656 530.772, 523.612 530.653, 523.434 530.546, 523.128 530.455, 522.710 530.386, 522.197 530.340, 521.611 530.320, 520.979 530.327, 520.327 530.360, 519.685 530.418, 519.081 530.498, 518.541 530.598, 518.089 530.711, 517.745 530.834, 517.524 530.961, 517.436 " fill="none" stroke="rgb(0, 0, 0)" stroke-linecap="butt" stroke-linejoin="round" stroke-opacity="1.0" stroke-width="3.0" />
            <path d=" M 530.961, 517.436 531.086, 517.483 531.205, 517.663 531.312, 517.970 531.402, 518.388 531.471, 518.899 531.517, 519.483 531.536, 520.114 531.530, 520.763 531.497, 521.402 531.439, 522.004 531.359, 522.543 531.260, 522.995 531.147, 523.340 531.024, 523.563 530.898, 523.656 " fill="none" stroke="rgb(0, 0, 0)" stroke-linecap="butt" stroke-linejoin="round" stroke-opacity="1.0" stroke-width="3.0" />
            <path d=" M 359.913, 557.901 359.841, 561.393 359.773, 571.392 359.705, 581.392 359.688, 583.919 359.759, 593.919 359.830, 603.919 359.846, 606.310 359.981, 612.695 360.192, 622.693 360.314, 628.476 360.668, 638.470 361.022, 648.464 361.088, 650.331 361.282, 654.209 " fill="none" stroke="rgb(0, 0, 0)" stroke-linecap="butt" stroke-linejoin="round" stroke-opacity="1.0" stroke-width="3.0" />
            <path d=" M 543.908, 725.457 545.160, 716.056 546.382, 706.131 546.736, 703.251 547.863, 693.314 548.204, 690.308 549.240, 680.362 549.564, 677.241 550.510, 667.286 550.816, 664.064 551.675, 654.101 551.803, 652.608 551.960, 650.789 552.733, 640.819 552.996, 637.429 553.685, 627.453 553.924, 623.996 554.530, 614.014 554.743, 610.501 555.268, 600.515 555.455, 596.957 555.899, 586.967 556.058, 583.375 556.422, 573.382 556.554, 569.766 556.578, 568.896 556.862, 558.900 556.940, 556.142 557.145, 546.144 557.219, 542.513 557.343, 532.513 557.388, 528.890 557.415, 522.809 " fill="none" stroke="rgb(0, 0, 0)" stroke-linecap="butt" stroke-linejoin="round" stroke-opacity="1.0" stroke-width="3.0" />
            <path d=" M 457.452, 941.163 459.873, 941.338 464.004, 940.822 468.095, 939.499 472.139, 937.398 476.128, 934.549 480.055, 930.986 483.914, 926.737 487.701, 921.835 491.410, 916.309 495.036, 910.190 498.576, 903.508 502.027, 896.292 505.385, 888.570 508.648, 880.369 511.813, 871.717 514.878, 862.639 517.842, 853.160 520.630, 843.556 520.703, 843.304 523.311, 833.650 523.460, 833.095 525.900, 823.397 526.112, 822.554 528.397, 812.819 528.659, 811.704 529.052, 809.906 " fill="none" stroke="rgb(0, 0, 0)" stroke-linecap="butt" stroke-linejoin="round" stroke-opacity="1.0" stroke-width="3.0" />
            <path d=" M 523.236, 222.245 522.173, 218.992 519.247, 210.840 516.205, 203.168 513.050, 196.002 509.784, 189.372 506.409, 183.305 502.927, 177.833 499.342, 172.984 495.657, 168.790 491.877, 165.280 488.006, 162.487 484.050, 160.440 480.014, 159.172 475.905, 158.710 474.217, 158.862 471.731, 159.086 467.499, 160.328 463.219, 162.462 458.899, 165.514 454.551, 169.508 450.185, 174.464 445.814, 180.402 441.449, 187.336 437.105, 195.279 432.795, 204.238 429.919, 210.974 428.535, 214.217 424.970, 223.560 424.338, 225.214 421.096, 234.674 420.223, 237.223 417.774, 245.150 416.203, 250.233 413.515, 259.865 412.297, 264.227 409.848, 273.922 408.520, 279.180 406.292, 288.928 404.890, 295.063 402.866, 304.856 401.423, 311.841 399.589, 321.671 398.134, 329.471 396.480, 339.333 395.042, 347.905 393.556, 357.794 392.160, 367.088 390.835, 377.000 389.503, 386.960 388.331, 396.891 387.160, 406.822 387.085, 407.454 386.062, 417.402 385.038, 427.349 384.920, 428.500 384.039, 438.461 383.158, 448.422 383.017, 450.020 382.276, 459.992 381.534, 469.965 381.388, 471.934 380.783, 481.916 380.178, 491.897 380.041, 494.158 379.570, 504.147 379.100, 514.136 378.983, 516.606 378.646, 526.600 378.308, 536.595 378.220, 539.188 378.015, 549.186 377.809, 559.184 377.755, 561.814 377.682, 571.813 377.609, 581.813 377.590, 584.393 377.651, 594.393 377.711, 604.393 377.725, 606.836 377.921, 616.834 378.116, 626.832 378.159, 629.053 378.492, 639.047 378.824, 649.042 378.888, 650.957 379.361, 660.946 379.834, 670.935 379.906, 672.465 380.524, 682.446 381.142, 692.427 381.208, 693.496 381.975, 703.467 382.743, 713.437 382.784, 713.974 383.708, 723.931 384.625, 733.826 385.712, 743.767 386.720, 752.988 387.980, 762.908 389.057, 771.398 390.499, 781.293 391.623, 789.001 393.260, 798.866 394.403, 805.750 396.250, 815.578 397.383, 821.603 399.458, 831.385 400.547, 836.522 402.871, 846.249 403.881, 850.480 406.478, 860.137 407.369, 863.453 410.268, 873.024 410.995, 875.423 414.231, 884.885 414.742, 886.379 418.359, 895.702 418.596, 896.314 422.541, 905.228 426.563, 913.125 430.646, 920.011 434.777, 925.900 438.943, 930.806 443.131, 934.748 447.329, 937.748 451.526, 939.829 455.710, 941.017 457.510, 941.156 459.873, 941.338 " fill="none" stroke="rgb(0, 0, 0)" stroke-linecap="butt" stroke-linejoin="round" stroke-opacity="1.0" stroke-width="3.0" />
            <path d=" M 473.481, 158.780 469.280, 159.157 465.021, 160.399 460.713, 162.533 456.367, 165.585 451.991, 169.578 447.598, 174.534 443.200, 180.471 438.808, 187.403 434.438, 195.344 430.102, 204.300 427.049, 211.404 425.816, 214.276 422.231, 223.612 421.594, 225.270 418.334, 234.724 417.454, 237.276 414.486, 246.825 413.411, 250.281 410.707, 259.909 410.670, 260.040 409.482, 264.270 407.019, 273.962 405.684, 279.218 403.443, 288.964 402.033, 295.096 399.997, 304.886 398.546, 311.867 396.702, 321.696 395.239, 329.491 393.575, 339.351 392.130, 347.918 390.636, 357.806 389.232, 367.094 387.900, 377.005 386.561, 386.958 385.384, 396.889 384.206, 406.819 384.131, 407.445 383.102, 417.392 382.073, 427.339 381.955, 428.482 381.070, 438.443 380.185, 448.403 380.043, 449.994 379.299, 459.966 378.554, 469.938 378.407, 471.899 377.800, 481.881 377.192, 491.862 377.055, 494.115 376.582, 504.103 376.110, 514.092 375.993, 516.553 375.655, 526.548 375.316, 536.542 375.228, 539.126 375.023, 549.124 374.817, 559.122 374.764, 561.743 374.691, 571.743 374.619, 581.743 374.601, 584.314 374.663, 594.314 374.725, 604.314 374.740, 606.748 374.938, 616.746 375.135, 626.744 375.179, 628.957 375.515, 638.951 375.851, 648.945 375.916, 650.853 376.393, 660.841 376.870, 670.830 376.943, 672.353 377.566, 682.333 378.189, 692.314 378.256, 693.376 379.030, 703.346 379.803, 713.316 379.845, 713.846 380.775, 723.803 381.700, 733.692 382.795, 743.632 383.811, 752.847 385.079, 762.766 386.165, 771.250 387.617, 781.144 388.748, 788.849 390.398, 798.712 391.548, 805.592 393.409, 815.418 394.549, 821.440 396.638, 831.219 397.736, 836.356 400.075, 846.078 401.093, 850.310 403.706, 859.962 404.604, 863.279 407.521, 872.844 408.254, 875.247 411.510, 884.702 412.027, 886.200 415.665, 895.515 415.906, 896.134 419.878, 905.047 423.926, 912.942 428.036, 919.829 432.194, 925.717 436.388, 930.624 440.603, 934.567 444.828, 937.568 449.051, 939.650 453.263, 940.839 457.452, 941.163 " fill="none" stroke="rgb(0, 0, 0)" stroke-linecap="butt" stroke-linejoin="round" stroke-opacity="1.0" stroke-width="3.0" />
            <path d=" M 475.905, 158.710 473.481, 158.780 " fill="none" stroke="rgb(0, 0, 0)" stroke-linecap="butt" stroke-linejoin="round" stroke-opacity="1.0" stroke-width="3.0" />
            <path d=" M 549.814, 738.536 550.174, 735.964 551.464, 726.048 551.926, 722.498 553.121, 712.569 553.564, 708.881 554.667, 698.942 555.090, 695.127 556.103, 685.179 556.503, 681.252 557.430, 671.295 557.804, 667.267 558.646, 657.302 558.993, 653.186 559.751, 643.214 560.070, 639.020 560.746, 629.043 561.035, 624.782 561.631, 614.800 561.888, 610.483 562.405, 600.497 562.630, 596.135 563.068, 586.145 563.260, 581.749 563.620, 571.755 563.779, 567.335 564.060, 557.339 564.185, 552.904 564.389, 542.907 564.480, 538.468 564.606, 528.469 564.662, 524.037 564.668, 522.940 " fill="none" stroke="rgb(0, 0, 0)" stroke-linecap="butt" stroke-linejoin="round" stroke-opacity="1.0" stroke-width="3.0" />
            <path d=" M 455.009, 967.675 457.425, 967.858 461.901, 967.874 466.334, 966.990 470.717, 965.241 475.042, 962.662 479.300, 959.289 483.485, 955.159 487.592, 950.305 491.615, 944.764 495.548, 938.570 499.389, 931.757 503.133, 924.358 506.776, 916.405 510.318, 907.929 513.754, 898.960 517.083, 889.527 520.185, 880.021 520.303, 879.659 523.199, 870.087 523.413, 869.381 525.829, 860.794 526.412, 858.721 528.946, 849.047 529.299, 847.702 531.672, 837.988 532.073, 836.348 534.296, 826.598 534.734, 824.682 535.439, 821.368 " fill="none" stroke="rgb(0, 0, 0)" stroke-linecap="butt" stroke-linejoin="round" stroke-opacity="1.0" stroke-width="3.0" />
            <path d=" M 539.625, 234.219 539.213, 232.352 536.883, 222.627 536.652, 221.662 534.129, 211.985 533.964, 211.354 531.230, 201.735 531.150, 201.453 528.209, 191.985 525.142, 182.980 521.950, 174.465 518.634, 166.472 515.196, 159.030 511.637, 152.173 507.960, 145.933 504.168, 140.343 500.263, 135.439 496.251, 131.256 492.134, 127.828 487.919, 125.192 483.612, 123.384 479.218, 122.439 474.746, 122.392 474.229, 122.493 470.204, 123.277 465.601, 125.127 460.947, 127.975 456.252, 131.848 451.530, 136.776 446.793, 142.781 442.054, 149.885 437.328, 158.105 432.838, 167.041 432.631, 167.455 428.576, 176.596 427.979, 177.941 424.307, 187.243 423.389, 189.568 421.404, 195.183 418.879, 202.331 415.852, 211.862 415.140, 214.102 414.467, 216.222 413.130, 220.893 410.378, 230.507 410.172, 231.225 407.670, 240.907 406.013, 247.317 403.740, 257.055 402.010, 264.468 399.948, 274.253 398.181, 282.639 396.315, 292.464 394.545, 301.786 392.863, 311.644 391.642, 318.804 391.121, 321.856 389.612, 331.742 388.104, 341.628 387.927, 342.789 386.583, 352.698 385.239, 362.607 384.980, 364.516 383.793, 374.446 382.606, 384.375 382.296, 386.964 381.260, 396.910 380.223, 406.856 379.891, 410.051 379.000, 420.011 378.109, 429.971 377.777, 433.690 377.027, 443.661 376.278, 453.633 375.966, 457.788 375.356, 467.770 374.745, 477.751 374.470, 482.250 373.996, 492.239 373.521, 502.228 373.296, 506.975 372.956, 516.969 372.616, 526.964 372.450, 531.860 372.245, 541.858 372.039, 551.856 371.937, 556.801 371.866, 566.801 371.795, 576.801 371.760, 581.693 371.823, 591.693 371.887, 601.692 371.917, 606.431 372.118, 616.429 372.318, 626.427 372.408, 630.912 372.747, 640.906 373.087, 650.901 373.227, 655.036 373.709, 665.025 374.191, 675.013 374.369, 678.707 374.998, 688.687 375.626, 698.667 375.825, 701.831 376.606, 711.800 377.386, 721.770 377.586, 724.321 378.525, 734.277 379.464, 744.233 379.640, 746.096 380.745, 756.035 381.850, 765.973 381.973, 767.081 383.254, 776.998 384.535, 786.916 384.573, 787.207 386.040, 797.099 387.422, 806.414 389.089, 816.274 390.504, 824.649 392.387, 834.470 393.804, 841.865 395.919, 851.639 397.302, 858.026 399.673, 867.741 400.981, 873.099 402.820, 879.781 404.619, 886.319 404.823, 887.062 407.789, 896.612 408.810, 899.899 412.127, 909.333 412.625, 910.751 412.923, 911.599 416.636, 920.885 416.867, 921.463 417.146, 922.160 421.309, 931.252 421.461, 931.584 425.850, 939.878 430.299, 947.055 434.792, 953.133 439.313, 958.131 443.850, 962.075 448.389, 964.990 452.918, 966.908 456.586, 967.681 457.425, 967.858 " fill="none" stroke="rgb(0, 0, 0)" stroke-linecap="butt" stroke-linejoin="round" stroke-opacity="1.0" stroke-width="3.0" />
            <path d=" M 361.344, 505.617 361.288, 506.779 360.944, 516.773 360.601, 526.767 360.434, 531.625 360.229, 541.623 360.023, 551.621 359.922, 556.527 359.913, 557.901 359.845, 567.900 359.777, 577.900 359.754, 581.379 359.824, 591.379 359.895, 601.379 359.928, 606.079 360.064, 612.509 360.275, 622.507 360.387, 627.817 360.444, 630.522 360.797, 640.516 361.151, 650.510 361.243, 653.107 361.282, 654.209 361.296, 654.610 361.796, 664.598 362.296, 674.585 362.479, 678.245 362.513, 678.775 " fill="none" stroke="rgb(0, 0, 0)" stroke-linecap="butt" stroke-linejoin="round" stroke-opacity="1.0" stroke-width="3.0" />
            <path d=" M 472.326, 122.473 467.755, 123.359 463.123, 125.210 458.440, 128.057 453.716, 131.931 448.965, 136.857 444.198, 142.861 439.430, 149.964 434.676, 158.183 430.164, 167.107 429.950, 167.530 425.874, 176.661 425.270, 178.013 421.578, 187.307 420.653, 189.636 417.303, 199.059 416.116, 202.396 413.073, 211.922 412.123, 214.892 411.679, 216.283 408.911, 225.892 408.614, 226.922 407.359, 231.281 404.843, 240.959 403.177, 247.367 402.962, 248.280 400.676, 258.015 399.150, 264.512 397.077, 274.294 395.300, 282.677 393.424, 292.499 391.644, 301.817 389.953, 311.673 388.261, 321.529 388.201, 321.879 386.684, 331.764 385.168, 341.648 384.990, 342.804 383.639, 352.712 382.791, 358.930 382.028, 364.523 380.834, 374.452 379.641, 384.380 379.330, 386.962 378.289, 396.908 377.247, 406.853 376.913, 410.040 376.018, 420.000 375.122, 429.960 374.789, 433.669 374.036, 443.641 373.284, 453.613 372.971, 457.759 372.357, 467.740 371.744, 477.721 371.468, 482.211 370.992, 492.200 370.516, 502.188 370.290, 506.926 369.950, 516.920 369.609, 526.914 369.443, 531.801 369.237, 541.799 369.031, 551.797 368.930, 556.732 368.860, 566.732 368.789, 576.732 368.755, 581.614 368.820, 591.614 368.885, 601.614 368.916, 606.343 369.119, 616.341 369.322, 626.339 369.413, 630.815 369.756, 640.809 370.099, 650.803 370.241, 654.930 370.727, 664.918 371.214, 674.906 371.393, 678.591 372.027, 688.571 372.661, 698.551 372.861, 701.707 373.648, 711.676 374.435, 721.645 374.636, 724.189 375.583, 734.144 376.529, 744.099 376.706, 745.956 377.819, 755.894 378.933, 765.832 379.056, 766.934 380.347, 776.850 381.637, 786.766 381.674, 787.053 383.152, 796.943 384.544, 806.254 386.223, 816.113 387.648, 824.484 389.543, 834.302 390.970, 841.695 393.100, 851.466 394.493, 857.851 396.161, 864.640 398.197, 872.921 399.930, 879.175 402.065, 886.881 403.203, 890.521 406.078, 899.714 409.415, 909.141 409.776, 910.161 410.219, 911.413 413.953, 920.689 414.470, 921.972 418.655, 931.054 418.812, 931.394 423.231, 939.688 427.709, 946.865 432.230, 952.943 436.781, 957.942 441.347, 961.886 445.915, 964.803 450.473, 966.722 455.009, 967.675 " fill="none" stroke="rgb(0, 0, 0)" stroke-linecap="butt" stroke-linejoin="round" stroke-opacity="1.0" stroke-width="3.0" />
            <path d=" M 474.746, 122.392 472.326, 122.473 " fill="none" stroke="rgb(0, 0, 0)" stroke-linecap="butt" stroke-linejoin="round" stroke-opacity="1.0" stroke-width="3.0" />
            <path d=" M 544.956, 237.515 543.734, 231.387 541.617, 221.613 541.235, 219.848 538.945, 210.113 538.604, 208.665 536.126, 198.977 535.842, 197.865 533.158, 188.232 532.947, 187.473 530.038, 177.906 529.920, 177.518 526.761, 168.028 523.470, 159.034 520.049, 150.567 516.499, 142.660 512.821, 135.347 509.017, 128.663 505.090, 122.643 501.043, 117.325 496.881, 112.745 492.606, 108.943 488.225, 105.956 483.743, 103.823 479.167, 102.584 474.505, 102.276 469.691, 102.451 464.891, 103.113 460.021, 104.782 455.093, 107.490 450.117, 111.272 445.106, 116.157 440.074, 122.175 435.036, 129.350 430.006, 137.702 425.364, 146.559 425.003, 147.248 420.813, 156.328 420.043, 157.998 416.252, 167.252 415.144, 169.958 411.709, 179.350 410.327, 183.127 407.208, 192.629 405.610, 197.498 402.778, 207.088 401.015, 213.055 398.442, 222.719 396.562, 229.777 394.226, 239.500 392.273, 247.633 390.155, 257.406 388.167, 266.584 386.253, 276.399 384.339, 286.215 384.267, 286.584 383.498, 290.980 381.774, 300.831 380.593, 307.578 379.047, 317.458 377.502, 327.338 377.164, 329.501 375.788, 339.406 374.412, 349.311 373.999, 352.283 372.785, 362.208 371.571, 372.135 371.117, 375.842 370.058, 385.786 368.999, 395.730 368.534, 400.094 367.625, 410.053 366.716, 420.011 366.265, 424.944 365.501, 434.915 364.738, 444.886 364.323, 450.294 363.733, 459.774 363.112, 469.755 362.720, 476.038 362.239, 486.026 361.757, 496.015 361.465, 502.069 361.344, 505.617 361.000, 515.611 360.657, 525.605 360.565, 528.276 360.413, 535.675 360.208, 545.673 360.025, 554.545 359.957, 564.544 359.889, 574.544 359.847, 580.763 359.918, 590.763 359.988, 600.762 360.031, 606.817 360.147, 612.321 360.358, 622.319 360.460, 627.150 360.575, 632.595 360.928, 642.589 361.282, 652.583 361.409, 656.164 361.473, 657.989 361.973, 667.977 362.171, 671.936 362.513, 678.775 362.709, 682.691 362.719, 682.895 363.370, 692.874 364.020, 702.853 364.304, 707.212 365.111, 717.180 365.917, 727.147 366.217, 730.848 367.186, 740.800 368.155, 750.753 368.444, 753.713 369.584, 763.648 370.724, 773.583 370.970, 775.729 372.291, 785.641 373.612, 795.554 373.781, 796.823 375.294, 806.708 376.807, 816.592 376.858, 816.930 377.453, 820.336 379.171, 830.188 380.184, 835.995 382.125, 845.805 383.740, 853.969 385.921, 863.729 387.505, 870.815 389.950, 880.511 391.460, 886.500 394.197, 896.118 395.586, 901.001 398.647, 910.522 399.863, 914.304 403.286, 923.700 404.270, 926.400 408.103, 935.636 408.789, 937.286 413.089, 946.315 413.401, 946.970 418.087, 955.459 422.831, 962.771 427.617, 968.926 432.427, 973.947 437.249, 977.862 442.067, 980.701 446.868, 982.499 451.642, 983.288 456.447, 983.663 461.123, 983.476 465.751, 982.355 470.320, 980.338 474.824, 977.463 479.255, 973.769 483.606, 969.294 487.871, 964.077 492.044, 958.156 496.122, 951.566 500.100, 944.344 503.974, 936.524 507.742, 928.141 511.400, 919.228 514.948, 909.815 518.230, 900.369 518.382, 899.933 521.444, 890.413 521.702, 889.612 524.562, 880.029 524.906, 878.878 527.582, 869.243 527.994, 867.759 530.499, 858.078 530.964, 856.281 533.311, 846.560 533.817, 844.466 536.017, 834.711 536.552, 832.339 537.992, 825.505 " fill="none" stroke="rgb(0, 0, 0)" stroke-linecap="butt" stroke-linejoin="round" stroke-opacity="1.0" stroke-width="3.0" />
            <path d=" M 552.021, 743.116 552.395, 740.422 553.674, 730.504 554.190, 726.504 555.375, 716.575 555.869, 712.437 556.962, 702.497 557.431, 698.236 558.437, 688.287 558.879, 683.914 559.798, 673.956 560.211, 669.484 561.046, 659.519 561.428, 654.958 562.181, 644.987 562.531, 640.349 563.202, 630.372 563.519, 625.669 564.111, 615.687 564.393, 610.929 564.906, 600.942 565.153, 596.140 565.589, 586.149 565.799, 581.312 566.157, 571.319 566.331, 566.457 566.612, 556.461 566.749, 551.585 566.953, 541.588 567.053, 536.707 567.180, 526.708 567.242, 521.833 567.248, 520.745 " fill="none" stroke="rgb(0, 0, 0)" stroke-linecap="butt" stroke-linejoin="round" stroke-opacity="1.0" stroke-width="3.0" />
            <path d=" M 474.505, 102.276 469.764, 102.937 464.954, 104.604 460.086, 107.312 455.171, 111.094 450.221, 115.981 445.250, 122.001 440.272, 129.178 435.303, 137.534 430.705, 146.414 430.358, 147.084 426.211, 156.184 425.457, 157.840 421.706, 167.110 420.615, 169.807 419.178, 173.784 415.854, 182.984 412.769, 192.496 411.191, 197.363 408.390, 206.963 406.648, 212.931 404.104, 222.602 402.265, 229.589 402.246, 229.664 399.936, 239.393 398.198, 246.714 398.004, 247.532 395.910, 257.310 393.944, 266.497 392.051, 276.316 391.116, 281.166 390.086, 286.512 388.381, 296.365 386.676, 306.219 386.451, 307.521 384.922, 317.403 383.394, 327.286 383.058, 329.460 381.697, 339.367 380.558, 347.655 379.926, 352.259 378.724, 362.187 377.523, 372.114 377.072, 375.837 376.024, 385.782 374.976, 395.727 374.514, 400.108 373.614, 410.067 372.714, 420.027 372.267, 424.978 371.799, 431.144 371.042, 441.116 370.342, 450.347 369.726, 460.328 369.110, 470.309 368.752, 476.112 368.274, 486.101 367.796, 496.089 367.505, 502.164 367.164, 512.158 366.822, 522.152 366.609, 528.391 366.404, 538.389 366.198, 548.387 366.069, 554.681 365.999, 564.681 365.929, 574.681 365.886, 580.920 365.953, 590.920 366.020, 600.920 366.061, 606.994 366.266, 616.992 366.472, 626.990 366.591, 632.793 366.937, 642.787 367.284, 652.781 367.472, 658.206 367.963, 668.194 368.453, 678.182 368.697, 683.131 369.336, 693.110 369.975, 703.090 370.256, 707.466 371.049, 717.435 371.843, 727.403 372.139, 731.118 373.093, 741.073 374.048, 751.027 374.333, 754.000 375.456, 763.937 376.579, 773.873 376.823, 776.031 378.125, 785.946 379.426, 795.860 379.594, 797.138 381.085, 807.026 382.577, 816.915 382.629, 817.258 383.237, 820.798 384.388, 827.493 385.909, 836.335 387.823, 846.150 389.416, 854.320 390.896, 861.037 392.106, 866.526 393.131, 871.174 395.544, 880.879 397.034, 886.867 399.736, 896.495 399.884, 897.024 401.105, 901.375 404.128, 910.908 405.326, 914.684 408.709, 924.094 409.676, 926.783 412.720, 934.215 414.136, 937.674 418.390, 946.724 418.689, 947.359 423.315, 955.850 427.999, 963.162 432.724, 969.316 437.474, 974.335 442.234, 978.248 446.992, 981.084 451.733, 982.878 456.447, 983.663 " fill="none" stroke="rgb(0, 0, 0)" stroke-linecap="butt" stroke-linejoin="round" stroke-opacity="1.0" stroke-width="3.0" />
            <path d=" M 565.290, 522.951 565.298, 521.320 565.314, 520.711 565.342, 519.687 565.422, 518.079 565.425, 518.036 565.536, 516.526 565.683, 515.052 565.860, 513.684 566.063, 512.445 566.136, 512.094 566.290, 511.356 566.536, 510.435 566.798, 509.697 567.070, 509.154 567.307, 508.865 567.348, 508.816 567.627, 508.686 " fill="none" stroke="rgb(0, 0, 0)" stroke-linecap="butt" stroke-linejoin="round" stroke-opacity="1.0" stroke-width="3.0" />
            <path d=" M 567.995, 520.759 567.984, 520.256 567.959, 519.779 567.920, 519.340 567.869, 518.951 567.807, 518.624 567.735, 518.366 567.655, 518.185 567.570, 518.086 567.482, 518.072 " fill="none" stroke="rgb(0, 0, 0)" stroke-linecap="butt" stroke-linejoin="round" stroke-opacity="1.0" stroke-width="3.0" />
            <path d=" M 530.906, 474.428 530.964, 480.073 531.194, 480.076 536.532, 480.143 536.739, 480.021 536.538, 474.459 531.159, 474.287 530.980, 474.387 530.906, 474.428 " fill="none" stroke="rgb(0, 0, 0)" stroke-linecap="butt" stroke-linejoin="round" stroke-opacity="1.0" stroke-width="3.0" />
            <path d=" M 536.477, 474.494 530.906, 474.428 " fill="none" stroke="rgb(0, 0, 0)" stroke-linecap="butt" stroke-linejoin="round" stroke-opacity="1.0" stroke-width="3.0" />
            <path d=" M 536.532, 480.143 536.477, 474.494 536.538, 474.459 " fill="none" stroke="rgb(0, 0, 0)" stroke-linecap="butt" stroke-linejoin="round" stroke-opacity="1.0" stroke-width="3.0" />
            <path d=" M 532.900, 476.503 532.869, 476.536 532.763, 476.674 532.663, 476.869 532.602, 477.079 532.583, 477.296 532.609, 477.527 532.680, 477.741 532.789, 477.933 532.932, 478.100 532.946, 478.117 533.116, 478.248 533.308, 478.344 533.331, 478.353 533.527, 478.405 533.547, 478.409 533.573, 478.412 533.606, 478.415 533.644, 478.417 533.687, 478.418 533.729, 478.418 533.772, 478.417 533.812, 478.415 533.850, 478.413 533.883, 478.410 533.910, 478.406 533.931, 478.401 534.043, 478.373 534.124, 478.346 534.192, 478.318 " fill="none" stroke="rgb(0, 0, 0)" stroke-linecap="butt" stroke-linejoin="round" stroke-opacity="1.0" stroke-width="3.0" />
            <path d=" M 533.107, 476.328 533.067, 476.360 532.914, 476.491 532.900, 476.503 532.980, 476.423 " fill="none" stroke="rgb(0, 0, 0)" stroke-linecap="butt" stroke-linejoin="round" stroke-opacity="1.0" stroke-width="3.0" />
            <path d=" M 534.192, 478.318 534.330, 478.243 534.457, 478.148 534.568, 478.035 534.662, 477.908 534.737, 477.767 534.791, 477.617 534.823, 477.460 534.833, 477.299 534.820, 477.138 534.784, 476.980 534.727, 476.829 534.650, 476.686 534.553, 476.556 534.440, 476.441 534.311, 476.343 534.171, 476.264 534.021, 476.206 533.866, 476.169 533.707, 476.156 533.549, 476.166 533.394, 476.198 533.245, 476.253 533.107, 476.328 532.980, 476.423 " fill="none" stroke="rgb(0, 0, 0)" stroke-linecap="butt" stroke-linejoin="round" stroke-opacity="1.0" stroke-width="3.0" />
            <path d=" M 629.510, 882.434 631.679, 882.922 639.595, 884.030 647.497, 884.403 655.370, 884.059 663.196, 883.017 670.962, 881.298 678.652, 878.921 686.254, 875.907 693.755, 872.279 701.143, 868.057 708.408, 863.264 715.539, 857.921 722.527, 852.051 729.364, 845.676 736.042, 838.818 742.553, 831.497 748.890, 823.736 754.904, 815.747 755.048, 815.556 760.761, 807.349 761.021, 806.976 766.444, 798.574 766.803, 798.018 771.946, 789.442 772.391, 788.701 777.264, 779.969 777.779, 779.045 782.391, 770.172 782.964, 769.068 787.323, 760.068 787.943, 758.790 792.057, 749.676 792.711, 748.228 796.589, 739.011 797.267, 737.400 800.915, 728.090 801.607, 726.324 805.032, 716.929 805.729, 715.017 808.937, 705.545 809.631, 703.494 812.627, 693.953 813.311, 691.773 816.099, 682.169 816.767, 679.869 819.352, 670.208 819.997, 667.797 822.382, 658.086 822.999, 655.573 825.189, 645.815 825.773, 643.211 827.769, 633.413 828.316, 630.727 830.121, 620.892 830.628, 618.135 832.244, 608.267 832.706, 605.449 834.136, 595.552 834.551, 592.682 835.795, 582.760 836.160, 579.850 837.219, 569.907 837.533, 566.966 838.408, 557.004 838.668, 554.043 839.359, 544.067 839.565, 541.096 840.072, 531.109 840.223, 528.138 840.545, 518.143 840.640, 515.182 840.776, 505.183 840.816, 502.244 840.764, 492.244 840.749, 489.336 840.508, 479.339 840.439, 476.473 840.007, 466.482 839.885, 463.668 839.259, 453.688 839.086, 450.937 838.263, 440.971 838.042, 438.294 837.018, 428.346 836.751, 425.753 835.522, 415.829 835.212, 413.330 833.774, 403.434 833.426, 401.041 831.773, 391.178 831.391, 388.900 829.518, 379.077 829.108, 376.925 827.009, 367.148 826.576, 365.131 824.243, 355.407 823.794, 353.536 821.220, 343.873 820.763, 342.157 817.940, 332.564 817.483, 331.012 814.402, 321.498 813.955, 320.119 810.605, 310.696 810.178, 309.496 806.550, 300.178 806.155, 299.164 802.236, 289.964 801.885, 289.142 797.664, 280.077 797.372, 279.449 792.834, 270.538 792.615, 270.107 787.749, 261.371 787.619, 261.138 782.385, 252.561 776.917, 244.400 771.218, 236.677 765.294, 229.414 759.148, 222.635 752.787, 216.363 746.216, 210.622 739.443, 205.434 732.476, 200.825 725.323, 196.816 717.995, 193.432 710.500, 190.695 702.852, 188.628 695.063, 187.252 687.145, 186.589 679.115, 186.659 676.890, 186.850 " fill="none" stroke="rgb(0, 0, 0)" stroke-linecap="butt" stroke-linejoin="round" stroke-opacity="1.0" stroke-width="3.0" />
            <path d=" M 631.679, 882.922 629.732, 882.465 623.768, 881.064 615.881, 878.440 608.037, 875.036 600.257, 870.841 592.560, 865.845 584.971, 860.042 577.510, 853.425 570.498, 846.296 570.201, 845.994 563.659, 838.431 563.068, 837.749 556.989, 829.809 556.134, 828.693 550.508, 820.426 549.424, 818.835 544.237, 810.285 542.962, 808.184 541.865, 806.159 539.468, 801.733 538.045, 799.105 536.773, 796.756 533.332, 789.639 531.914, 786.708 530.879, 784.567 530.741, 784.247 527.191, 776.015 525.305, 771.641 524.296, 769.010 521.250, 761.066 520.075, 758.002 516.858, 748.534 515.209, 743.681 512.343, 734.101 510.731, 728.711 508.578, 720.472 506.659, 713.129 504.458, 703.374 503.014, 696.977 501.129, 687.156 499.813, 680.299 498.235, 670.425 497.072, 663.144 495.793, 653.226 494.805, 645.564 493.817, 635.612 493.024, 627.611 492.322, 617.636 491.739, 609.345 491.319, 599.354 490.959, 590.823 490.815, 580.824 490.689, 572.107 490.818, 562.108 490.933, 553.260 491.333, 543.268 491.690, 534.346 492.359, 524.368 492.691, 519.427 492.959, 515.427 493.387, 510.887 493.613, 508.491 494.552, 498.535 494.737, 496.571 495.945, 486.644 497.016, 477.839 498.494, 467.949 499.788, 459.296 501.539, 449.450 503.041, 441.003 505.067, 431.210 506.762, 423.021 507.915, 418.156 510.221, 408.425 510.936, 405.409 513.525, 395.750 515.544, 388.221 518.423, 378.645 520.568, 371.512 523.744, 362.030 525.987, 355.331 529.466, 345.956 530.277, 343.771 531.779, 339.724 535.578, 330.451 537.920, 324.736 541.998, 315.696 542.107, 315.455 543.580, 312.189 543.984, 311.293 544.385, 310.404 548.829, 301.446 549.564, 299.963 551.039, 296.989 551.150, 296.765 552.662, 293.992 553.340, 292.747 553.982, 291.570 555.233, 289.273 558.189, 283.850 563.328, 275.271 565.475, 271.685 570.978, 263.336 572.982, 260.296 578.861, 252.206 579.371, 251.504 580.682, 249.700 586.948, 241.906 588.551, 239.913 595.213, 232.456 596.561, 230.948 603.627, 223.872 604.686, 222.812 612.160, 216.169 612.902, 215.510 620.783, 209.355 621.184, 209.042 629.507, 203.408 637.850, 198.602 646.190, 194.618 654.506, 191.444 662.778, 189.069 670.987, 187.479 677.248, 186.847 679.115, 186.659 " fill="none" stroke="rgb(0, 0, 0)" stroke-linecap="butt" stroke-linejoin="round" stroke-opacity="1.0" stroke-width="3.0" />
            <path d=" M 676.890, 186.850 668.751, 187.672 660.531, 189.262 652.248, 191.636 643.922, 194.808 635.572, 198.790 627.219, 203.592 618.886, 209.222 610.999, 215.369 610.595, 215.684 603.114, 222.320 602.370, 222.980 595.297, 230.049 594.237, 231.109 587.567, 238.560 586.219, 240.066 579.945, 247.853 578.343, 249.843 577.439, 251.084 571.552, 259.168 570.635, 260.428 565.124, 268.773 563.121, 271.806 557.975, 280.381 555.829, 283.958 553.504, 288.216 552.567, 289.931 551.872, 291.204 550.552, 293.622 549.043, 296.386 548.784, 296.859 544.334, 305.815 543.005, 308.489 542.014, 310.484 541.519, 311.579 539.461, 316.133 535.544, 324.800 533.365, 330.107 529.552, 339.399 529.398, 339.772 525.914, 349.145 523.822, 354.771 523.603, 355.361 522.201, 359.541 519.020, 369.022 518.181, 371.524 515.297, 381.099 513.154, 388.214 510.561, 397.872 508.544, 405.382 506.235, 415.112 504.369, 422.975 502.340, 432.766 500.647, 440.936 498.894, 450.781 497.393, 459.207 495.913, 469.097 494.621, 477.729 494.527, 478.506 494.075, 482.217 492.866, 492.144 492.343, 496.439 491.410, 506.334 491.304, 507.454 490.984, 510.847 490.567, 515.275 490.469, 516.736 490.291, 519.384 490.166, 521.249 489.496, 531.226 489.299, 534.171 488.900, 544.163 488.544, 553.064 488.416, 563.063 488.303, 571.890 488.450, 581.889 488.577, 590.584 489.000, 600.575 489.361, 609.085 490.065, 619.060 490.649, 627.332 491.640, 637.283 492.435, 645.264 493.718, 655.182 494.707, 662.826 496.290, 672.700 497.454, 679.963 499.344, 689.783 500.661, 696.623 502.868, 706.377 504.312, 712.759 506.382, 720.659 507.689, 725.647 508.391, 728.325 511.264, 737.904 512.876, 743.281 516.101, 752.747 517.750, 757.588 518.736, 760.154 522.324, 769.488 522.988, 771.215 523.591, 772.610 526.517, 779.378 528.570, 784.130 531.313, 789.788 532.711, 792.674 534.472, 796.308 537.504, 801.892 538.918, 804.497 540.671, 807.727 541.350, 808.844 546.546, 817.388 547.142, 818.369 552.777, 826.631 553.862, 828.221 559.949, 836.155 560.805, 837.270 567.355, 844.827 567.948, 845.511 574.967, 852.634 575.267, 852.938 582.738, 859.552 590.338, 865.353 598.045, 870.348 605.836, 874.543 613.691, 877.947 621.589, 880.573 629.510, 882.434 " fill="none" stroke="rgb(0, 0, 0)" stroke-linecap="butt" stroke-linejoin="round" stroke-opacity="1.0" stroke-width="3.0" />
            <path d=" M 788.248, 560.282 778.263, 559.743 777.507, 559.703 773.075, 557.472 764.143, 552.975 755.211, 548.479 754.036, 547.888 753.353, 547.544 752.669, 547.199 751.984, 546.854 751.299, 546.508 750.505, 545.972 749.763, 545.193 749.089, 544.184 748.496, 542.967 747.996, 541.563 747.600, 539.999 747.314, 538.305 747.144, 536.513 747.094, 534.659 747.165, 532.777 747.355, 530.905 747.436, 530.421 747.661, 529.079 747.690, 528.956 748.076, 527.333 748.593, 525.702 748.919, 524.906 749.201, 524.218 749.889, 522.907 750.467, 522.055 750.643, 521.796 750.994, 521.408 751.043, 521.353 751.448, 520.906 752.288, 520.252 753.003, 519.806 753.719, 519.360 754.434, 518.915 755.147, 518.471 755.339, 518.352 755.505, 518.249 756.569, 517.588 765.063, 512.311 773.557, 507.034 779.710, 503.212 " fill="none" stroke="rgb(0, 0, 0)" stroke-linecap="butt" stroke-linejoin="round" stroke-opacity="1.0" stroke-width="3.0" />
            <path d=" M 689.243, 266.290 680.912, 266.250 679.451, 266.385 674.777, 266.820 672.486, 267.032 663.992, 268.660 657.268, 270.615 655.455, 271.142 646.903, 274.483 638.361, 278.672 629.855, 283.704 621.656, 289.429 621.419, 289.594 613.654, 295.895 613.088, 296.354 605.770, 303.170 604.896, 303.984 598.029, 311.253 596.878, 312.472 590.455, 320.136 589.065, 321.795 583.072, 329.800 581.485, 331.920 575.906, 340.220 574.164, 342.811 568.994, 351.371 567.137, 354.444 566.585, 355.463 566.160, 356.248 562.965, 362.145 561.845, 364.212 560.444, 366.799 559.195, 369.376 558.710, 370.377 557.613, 372.639 554.464, 379.137 554.122, 379.842 552.915, 382.633 552.112, 384.492 550.518, 388.177 548.203, 393.532 544.617, 402.867 544.207, 403.932 542.715, 407.815 542.639, 408.039 539.422, 417.507 539.065, 418.557 537.680, 422.632 534.816, 432.214 533.110, 437.920 530.591, 447.597 529.849, 450.448 529.024, 453.617 526.852, 463.378 525.452, 469.669 523.629, 479.502 522.421, 486.015 520.947, 495.906 519.950, 502.588 519.615, 505.543 519.013, 510.834 518.792, 512.779 518.050, 519.317 517.263, 529.286 517.154, 530.669 516.723, 536.128 516.273, 546.118 515.965, 552.951 515.848, 562.951 515.767, 569.796 515.968, 579.793 516.102, 586.504 516.626, 596.490 516.967, 603.007 517.819, 612.970 518.355, 619.234 519.498, 628.779 520.257, 635.119 521.125, 640.710 522.660, 650.599 524.549, 660.419 525.548, 665.614 526.960, 671.707 528.906, 680.105 531.544, 689.750 532.712, 694.020 534.974, 701.121 535.330, 702.237 535.430, 702.551 536.789, 706.817 536.946, 707.311 537.893, 709.889 541.341, 719.276 541.583, 719.935 542.453, 722.001 543.908, 725.457 544.075, 725.853 545.485, 729.201 546.600, 731.850 548.369, 735.530 549.153, 737.161 549.814, 738.536 551.971, 743.023 552.021, 743.116 556.824, 751.887 557.666, 753.426 562.960, 761.909 563.660, 763.031 569.466, 771.174 569.925, 771.819 576.256, 779.560 576.432, 779.774 583.151, 786.887 590.055, 793.148 597.116, 798.554 604.306, 803.108 611.599, 806.814 614.444, 807.920 618.967, 809.677 626.387, 811.709 633.833, 812.924 641.281, 813.337 648.711, 812.964 656.101, 811.827 663.430, 809.947 670.680, 807.344 677.832, 804.043 684.871, 800.070 691.780, 795.449 698.545, 790.205 705.153, 784.365 711.590, 777.957 717.846, 771.007 723.908, 763.540 729.769, 755.585 735.342, 747.282 735.418, 747.168 740.646, 738.643 740.848, 738.314 745.744, 729.595 746.049, 729.050 750.627, 720.159 751.017, 719.402 755.289, 710.360 755.744, 709.396 759.720, 700.220 760.224, 699.056 763.915, 689.761 764.453, 688.406 767.867, 679.007 768.425, 677.473 771.572, 667.981 772.136, 666.279 775.022, 656.704 775.581, 654.848 778.214, 645.200 778.759, 643.203 781.143, 633.491 781.664, 631.368 783.805, 621.600 784.294, 619.365 786.195, 609.548 786.646, 607.217 788.312, 597.357 788.719, 594.946 790.151, 585.049 790.509, 582.574 791.709, 572.646 792.014, 570.123 792.984, 560.170 793.233, 557.614 793.974, 547.642 794.165, 545.070 794.589, 536.792 " fill="none" stroke="rgb(0, 0, 0)" stroke-linecap="butt" stroke-linejoin="round" stroke-opacity="1.0" stroke-width="3.0" />
            <path d=" M 779.710, 503.212 789.673, 504.066 790.459, 504.134 " fill="none" stroke="rgb(0, 0, 0)" stroke-linecap="butt" stroke-linejoin="round" stroke-opacity="1.0" stroke-width="3.0" />
            <path d=" M 824.869, 519.504 824.889, 509.504 824.889, 509.265 824.644, 499.268 824.581, 496.670 824.066, 486.683 823.936, 484.150 823.147, 474.181 822.953, 471.730 822.051, 463.311 821.635, 459.434 820.291, 449.525 819.986, 447.281 818.362, 437.414 818.013, 435.291 816.101, 425.476 815.714, 423.488 813.500, 413.737 813.083, 411.903 810.553, 402.228 810.118, 400.565 807.260, 390.982 806.819, 389.503 803.623, 380.028 803.190, 378.742 799.648, 369.390 799.236, 368.304 795.344, 359.092 794.969, 358.205 790.716, 349.154 790.394, 348.468 785.760, 339.606 785.510, 339.127 780.474, 330.488 780.318, 330.221 774.823, 321.782 769.034, 313.838 762.959, 306.414 756.613, 299.525 750.007, 293.188 743.150, 287.437 736.052, 282.314 728.725, 277.854 721.184, 274.088 719.175, 273.296 713.446, 271.036 705.530, 268.712 697.456, 267.123 689.243, 266.290 " fill="none" stroke="rgb(0, 0, 0)" stroke-linecap="butt" stroke-linejoin="round" stroke-opacity="1.0" stroke-width="3.0" />
            <path d=" M 657.268, 270.615 657.335, 270.640 663.626, 273.734 669.745, 277.526 675.681, 281.992 681.420, 287.103 686.955, 292.822 692.278, 299.109 697.383, 305.926 702.261, 313.260 706.902, 321.093 711.299, 329.402 715.445, 338.158 719.339, 347.330 722.902, 356.674 722.980, 356.881 726.221, 366.341 726.370, 366.777 729.301, 376.337 729.503, 376.996 732.133, 386.644 732.373, 387.524 734.713, 397.246 734.976, 398.338 737.036, 408.123 737.308, 409.415 739.101, 419.253 739.370, 420.728 740.909, 430.609 741.164, 432.248 742.463, 442.164 742.697, 443.948 743.764, 453.891 743.969, 455.803 744.805, 465.768 744.975, 467.795 745.583, 477.777 745.713, 479.907 746.095, 489.900 746.180, 492.116 746.340, 502.115 746.377, 504.401 746.342, 510.626 746.185, 511.845 745.972, 513.036 745.705, 514.189 745.386, 515.291 745.020, 516.329 744.609, 517.295 744.158, 518.176 743.671, 518.964 743.154, 519.651 742.612, 520.229 742.051, 520.692 741.476, 521.036 740.894, 521.256 740.310, 521.352 733.732, 521.735 " fill="none" stroke="rgb(0, 0, 0)" stroke-linecap="butt" stroke-linejoin="round" stroke-opacity="1.0" stroke-width="3.0" />
            <path d=" M 800.255, 536.072 801.004, 536.120 803.237, 536.264 812.829, 535.508 814.770, 535.355 822.566, 534.741 824.515, 534.587 824.524, 534.587 830.633, 534.223 830.915, 524.227 831.007, 520.962 831.029, 510.962 831.036, 507.728 830.797, 497.731 830.721, 494.547 830.218, 484.560 830.060, 481.441 829.288, 471.471 829.053, 468.433 828.007, 458.488 827.698, 455.549 826.374, 445.637 825.997, 442.812 824.388, 432.942 823.948, 430.247 822.047, 420.429 821.553, 417.878 819.351, 408.124 818.812, 405.732 816.301, 396.052 815.726, 393.834 814.086, 388.277 812.297, 382.210 809.137, 372.723 808.526, 370.888 807.330, 367.686 804.418, 359.894 800.564, 350.667 799.975, 349.257 795.753, 340.192 795.199, 339.004 790.596, 330.126 790.098, 329.164 785.100, 320.502 784.674, 319.765 781.721, 315.171 778.935, 310.838 775.789, 306.455 772.888, 302.413 766.622, 294.620 766.540, 294.518 759.901, 287.184 752.980, 280.441 745.788, 274.319 738.339, 268.848 730.646, 264.056 722.724, 259.974 714.590, 256.628 706.261, 254.046 697.758, 252.254 689.101, 251.277 680.313, 251.135 670.313, 251.070 661.442, 251.012 " fill="none" stroke="rgb(0, 0, 0)" stroke-linecap="butt" stroke-linejoin="round" stroke-opacity="1.0" stroke-width="3.0" />
            <path d=" M 680.313, 251.135 673.294, 251.700 671.418, 251.851 662.442, 253.444 661.227, 253.778 653.412, 255.929 644.357, 259.316 635.308, 263.618 631.971, 265.553 631.956, 265.561 626.295, 268.842 618.053, 274.505 617.352, 274.987 609.540, 281.230 608.511, 282.052 601.141, 288.811 599.808, 290.032 592.883, 297.246 591.279, 298.916 584.796, 306.530 582.958, 308.687 576.911, 316.652 574.882, 319.324 569.264, 327.597 567.087, 330.803 563.396, 336.870 562.894, 337.694 559.920, 342.581 559.609, 343.092 557.177, 347.549 555.606, 350.429 552.482, 356.153 549.905, 361.427 548.323, 364.664 545.741, 369.946 541.740, 379.111 539.420, 384.426 536.582, 391.730 533.549, 399.539 530.299, 408.996 528.157, 415.229 525.272, 424.804 523.273, 431.437 520.747, 441.113 518.922, 448.099 516.749, 457.859 515.126, 465.145 513.302, 474.977 511.904, 482.505 510.426, 492.395 509.274, 500.107 508.141, 510.043 507.882, 512.307 507.247, 517.875 506.458, 527.844 505.834, 535.732 505.390, 545.722 505.040, 553.602 " fill="none" stroke="rgb(0, 0, 0)" stroke-linecap="butt" stroke-linejoin="round" stroke-opacity="1.0" stroke-width="3.0" />
            <path d=" M 756.569, 517.588 756.572, 517.413 756.695, 514.589 756.645, 514.806 756.328, 515.913 755.963, 516.957 755.554, 517.927 755.339, 518.352 " fill="none" stroke="rgb(0, 0, 0)" stroke-linecap="butt" stroke-linejoin="round" stroke-opacity="1.0" stroke-width="3.0" />
            <path d=" M 806.570, 525.930 808.064, 525.825 808.579, 525.736 809.093, 525.537 809.602, 525.231 810.102, 524.823 810.588, 524.316 811.058, 523.716 811.507, 523.027 811.932, 522.257 812.330, 521.410 812.698, 520.495 813.033, 519.517 813.332, 518.484 813.480, 517.871 813.593, 517.404 813.813, 516.286 823.158, 519.006 824.869, 519.504 824.684, 520.182 824.351, 521.165 823.986, 522.085 823.591, 522.936 823.169, 523.711 823.005, 523.966 822.724, 524.403 822.258, 525.006 821.776, 525.516 821.281, 525.927 820.776, 526.234 820.267, 526.435 819.757, 526.525 813.617, 526.967 807.153, 527.433 806.679, 526.147 806.570, 525.930 806.118, 525.031 805.480, 524.104 804.774, 523.381 804.013, 522.875 803.208, 522.595 799.609, 522.384 798.854, 522.340 791.340, 521.900 790.499, 521.851 790.404, 521.871 789.643, 522.034 788.785, 522.445 788.493, 522.675 787.977, 523.082 787.236, 523.934 786.537, 524.986 785.894, 526.218 785.318, 527.612 784.818, 529.143 784.403, 530.785 784.080, 532.510 783.856, 534.288 783.734, 536.089 789.672, 536.473 789.902, 536.488 794.589, 536.792 795.657, 536.861 799.997, 536.519 800.222, 536.501 800.255, 536.072 800.265, 535.929 800.349, 535.369 800.470, 534.837 800.480, 534.805 800.626, 534.347 800.812, 533.913 801.022, 533.547 801.144, 533.394 801.253, 533.258 801.496, 533.054 801.640, 532.989 801.745, 532.942 801.994, 532.923 " fill="none" stroke="rgb(0, 0, 0)" stroke-linecap="butt" stroke-linejoin="round" stroke-opacity="1.0" stroke-width="3.0" />
            <path d=" M 773.075, 557.472 772.091, 567.423 772.000, 568.340 770.777, 578.265 770.482, 580.662 769.018, 590.554 768.671, 592.904 766.966, 602.757 766.570, 605.043 764.622, 614.852 764.184, 617.060 761.988, 626.816 761.513, 628.929 759.066, 638.626 758.560, 640.631 755.859, 650.259 755.331, 652.141 752.369, 661.693 751.828, 663.438 748.599, 672.903 748.055, 674.498 744.552, 683.864 744.016, 685.297 740.232, 694.554 739.717, 695.813 735.643, 704.945 735.163, 706.021 730.788, 715.013 730.359, 715.895 725.673, 724.729 725.311, 725.412 720.305, 734.069 720.027, 734.548 714.686, 743.002 714.514, 743.275 708.779, 751.569 702.832, 759.404 696.682, 766.754 690.338, 773.592 683.813, 779.892 677.118, 785.629 670.266, 790.777 663.271, 795.307 656.147, 799.197 648.911, 802.423 641.580, 804.958 634.171, 806.779 626.704, 807.866 619.199, 808.199 614.444, 807.920 " fill="none" stroke="rgb(0, 0, 0)" stroke-linecap="butt" stroke-linejoin="round" stroke-opacity="1.0" stroke-width="3.0" />
            <path d=" M 789.902, 536.488 789.482, 544.713 788.692, 554.682 788.248, 560.282 779.339, 555.741 777.882, 554.998 773.465, 552.746 765.523, 548.698 764.846, 548.353 764.169, 548.007 763.490, 547.661 762.812, 547.314 762.025, 546.776 761.291, 545.994 760.623, 544.981 760.036, 543.758 759.543, 542.348 759.152, 540.777 758.870, 539.075 758.704, 537.275 758.697, 537.023 758.656, 535.411 758.728, 533.520 758.918, 531.639 759.152, 530.231 759.186, 530.025 759.223, 529.803 759.636, 528.049 760.150, 526.410 760.755, 524.917 761.438, 523.600 762.186, 522.483 762.985, 521.587 763.818, 520.930 764.528, 520.481 765.238, 520.033 765.946, 519.585 766.654, 519.138 767.009, 518.914 775.469, 513.582 779.734, 510.894 788.194, 505.561 790.459, 504.134 790.479, 514.134 790.482, 515.593 790.450, 520.216 790.404, 521.871 " fill="none" stroke="rgb(0, 0, 0)" stroke-linecap="butt" stroke-linejoin="round" stroke-opacity="1.0" stroke-width="3.0" />
            <path d=" M 764.631, 537.414 764.320, 537.291 764.034, 537.023 763.787, 536.623 763.590, 536.109 763.451, 535.503 763.376, 534.832 763.370, 534.125 763.431, 533.413 763.557, 532.727 763.743, 532.097 763.981, 531.551 764.260, 531.114 764.567, 530.803 764.890, 530.633 765.213, 530.612 " fill="none" stroke="rgb(0, 0, 0)" stroke-linecap="butt" stroke-linejoin="round" stroke-opacity="1.0" stroke-width="3.0" />
            <path d=" M 765.213, 530.612 765.524, 530.739 765.809, 531.008 766.054, 531.408 766.251, 531.921 766.389, 532.525 766.463, 533.195 766.469, 533.899 766.408, 534.609 766.282, 535.293 766.097, 535.921 765.861, 536.466 765.583, 536.904 765.277, 537.216 764.954, 537.388 764.631, 537.414 " fill="none" stroke="rgb(0, 0, 0)" stroke-linecap="butt" stroke-linejoin="round" stroke-opacity="1.0" stroke-width="3.0" />
            <path d=" M 799.997, 536.519 799.549, 545.259 798.809, 555.231 798.574, 558.389 797.605, 568.342 797.299, 571.482 796.101, 581.410 795.726, 584.518 794.297, 594.415 793.856, 597.473 792.195, 607.334 791.691, 610.326 789.796, 620.145 789.234, 623.055 787.100, 632.824 786.486, 635.635 784.110, 645.349 783.450, 648.046 780.827, 657.696 780.129, 660.263 777.254, 669.841 776.526, 672.263 773.392, 681.759 772.645, 684.022 769.244, 693.425 768.489, 695.514 764.814, 704.815 764.062, 706.717 760.104, 715.900 759.370, 717.603 755.117, 726.654 754.416, 728.147 749.860, 737.048 749.208, 738.323 744.336, 747.056 743.751, 748.104 738.550, 756.645 738.053, 757.462 732.509, 765.785 732.120, 766.370 726.221, 774.445 725.961, 774.801 719.693, 782.593 719.586, 782.726 713.004, 790.115 706.226, 796.940 699.265, 803.175 692.133, 808.788 684.844, 813.750 677.414, 818.036 669.858, 821.618 662.194, 824.466 654.441, 826.556 646.619, 827.864 638.748, 828.366 630.852, 828.038 622.954, 826.863 615.078, 824.823 607.250, 821.903 599.499, 818.087 591.851, 813.371 584.334, 807.748 576.981, 801.214 570.047, 794.008 569.819, 793.771 563.424, 786.083 562.879, 785.428 557.013, 777.329 556.192, 776.196 550.842, 767.748 549.790, 766.087 548.935, 764.547 546.631, 760.399 545.151, 757.733 543.703, 755.126 540.535, 748.624 539.064, 745.605 537.959, 743.337 534.384, 734.957 532.589, 730.751 531.369, 727.472 527.882, 718.100 527.623, 717.404 524.552, 707.887 523.085, 703.338 520.414, 693.701 519.001, 688.601 516.716, 678.865 515.396, 673.242 515.259, 672.542 513.346, 662.727 512.291, 657.319 510.736, 647.441 509.705, 640.893 508.498, 630.966 507.654, 624.029 506.787, 614.066 506.154, 606.794 505.618, 596.808 505.213, 589.261 505.003, 579.263 504.841, 571.505 504.952, 561.506 505.040, 553.602 503.279, 543.758 501.674, 534.792 " fill="none" stroke="rgb(0, 0, 0)" stroke-linecap="butt" stroke-linejoin="round" stroke-opacity="1.0" stroke-width="3.0" />
            <path d=" M 661.442, 251.012 656.116, 251.456 653.385, 251.684 645.247, 253.230 637.050, 255.667 628.822, 259.008 620.590, 263.264 612.383, 268.443 604.378, 274.436 604.230, 274.547 596.690, 281.116 596.163, 281.575 589.090, 288.645 588.212, 289.522 581.603, 297.027 580.412, 298.379 574.255, 306.259 572.794, 308.129 567.077, 316.333 565.393, 318.750 561.175, 325.516 560.624, 326.399 558.610, 329.630 558.242, 330.220 555.812, 334.567 554.250, 337.361 551.374, 342.506 548.454, 348.328 546.884, 351.458 544.821, 355.570 540.721, 364.691 538.617, 369.371 535.065, 378.209 532.793, 383.863 529.422, 393.278 527.377, 398.992 524.355, 408.525 522.397, 414.702 519.716, 424.335 517.880, 430.930 515.532, 440.651 513.851, 447.613 511.829, 457.407 510.328, 464.681 508.629, 474.536 507.332, 482.061 505.953, 491.966 504.878, 499.681 503.816, 509.625 503.492, 512.662 502.979, 517.464 502.228, 527.436 501.674, 534.792 499.561, 544.566 497.642, 553.445 " fill="none" stroke="rgb(0, 0, 0)" stroke-linecap="butt" stroke-linejoin="round" stroke-opacity="1.0" stroke-width="3.0" />
            <path d=" M 497.443, 571.927 497.658, 581.925 497.838, 590.255 498.380, 600.240 498.821, 608.348 499.697, 618.309 500.385, 626.128 501.602, 636.054 502.519, 643.521 504.086, 653.397 505.207, 660.454 507.135, 670.266 508.431, 676.860 510.734, 686.591 512.174, 692.675 512.561, 694.061 515.251, 703.692 516.410, 707.840 519.504, 717.349 521.115, 722.303 524.629, 731.665 526.262, 736.015 529.034, 742.455 531.823, 748.933 532.072, 749.438 536.485, 758.411 536.882, 759.218 537.768, 761.020 538.359, 762.073 543.114, 770.551 544.066, 772.247 544.600, 773.081 547.000, 776.831 550.685, 782.585 556.595, 790.652 557.594, 792.015 564.036, 799.663 564.760, 800.522 571.744, 807.679 572.151, 808.096 579.737, 814.732 587.485, 820.427 595.364, 825.187 603.345, 829.018 611.400, 831.931 619.501, 833.939 627.621, 835.061 635.734, 835.314 643.818, 834.719 651.849, 833.302 659.805, 831.086 667.666, 828.098 675.415, 824.363 683.032, 819.912 690.502, 814.774 697.810, 808.974 704.941, 802.545 711.883, 795.516 718.518, 788.035 718.624, 787.916 724.879, 780.114 725.152, 779.773 731.041, 771.690 731.458, 771.117 736.994, 762.789 737.533, 761.979 742.729, 753.434 743.368, 752.384 748.237, 743.649 748.956, 742.360 753.511, 733.458 754.289, 731.937 758.542, 722.887 759.362, 721.142 763.323, 711.960 764.169, 709.999 767.847, 700.700 768.703, 698.535 772.109, 689.133 772.962, 686.777 776.102, 677.283 776.940, 674.749 779.821, 665.173 780.633, 662.475 783.262, 652.827 784.037, 649.981 786.420, 640.269 787.151, 637.289 789.291, 627.521 789.969, 624.424 791.871, 614.607 792.490, 611.408 794.157, 601.548 794.712, 598.265 796.146, 588.369 796.631, 585.017 797.834, 575.090 798.246, 571.687 799.218, 561.734 799.554, 558.296 800.297, 548.324 800.555, 544.868 801.004, 536.120 " fill="none" stroke="rgb(0, 0, 0)" stroke-linecap="butt" stroke-linejoin="round" stroke-opacity="1.0" stroke-width="3.0" />
            <path d=" M 497.642, 553.445 497.534, 563.445 497.443, 571.927 " fill="none" stroke="rgb(0, 0, 0)" stroke-linecap="butt" stroke-linejoin="round" stroke-opacity="1.0" stroke-width="3.0" />
            <path d=" M 814.086, 388.277 813.855, 387.103 811.690, 377.340 811.406, 376.059 809.004, 366.352 808.721, 365.209 806.073, 355.566 805.800, 354.571 802.898, 345.001 802.643, 344.162 799.476, 334.676 799.251, 334.000 795.807, 324.612 795.622, 324.106 791.891, 314.828 791.759, 314.500 787.730, 305.347 787.664, 305.196 783.339, 296.213 778.789, 287.568 774.015, 279.280 769.020, 271.371 763.808, 263.861 758.381, 256.774 752.745, 250.135 746.904, 243.963 740.866, 238.276 734.636, 233.093 728.224, 228.433 721.636, 224.318 714.881, 220.769 707.968, 217.809 700.908, 215.462 693.712, 213.750 686.392, 212.690 678.962, 212.295 671.436, 212.581 670.524, 212.698 663.828, 213.561 656.153, 215.250 648.430, 217.663 640.676, 220.814 632.910, 224.716 625.152, 229.378 617.422, 234.802 609.742, 240.987 602.354, 247.726 602.131, 247.929 596.911, 253.271 596.647, 253.542 596.646, 253.543 594.611, 255.626 591.305, 259.398 587.206, 264.072 581.728, 271.000 579.940, 273.261 574.119, 281.393 572.837, 283.184 567.389, 291.570 565.922, 293.827 560.836, 302.437 559.220, 305.172 557.419, 308.521 556.821, 309.632 556.420, 310.377 553.586, 315.644 552.753, 317.193 552.460, 317.790 552.061, 318.604 547.659, 327.583 546.542, 329.861 546.227, 330.567 544.735, 333.907 540.658, 343.039 540.610, 343.147 536.849, 352.413 534.979, 357.018 533.033, 362.305 529.671, 371.439 526.517, 380.929 524.708, 386.373 521.849, 395.956 520.112, 401.780 517.543, 411.444 515.902, 417.614 513.613, 427.349 512.091, 433.825 510.078, 443.620 508.693, 450.362 506.953, 460.209 505.722, 467.174 504.253, 477.065 503.192, 484.208 501.992, 494.136 501.113, 501.409 500.180, 511.365 499.837, 515.034 499.491, 518.720 498.826, 528.698 498.333, 536.084 497.935, 546.076 497.642, 553.445 497.514, 563.445 497.420, 570.746 497.443, 571.927 497.583, 581.926 497.667, 587.929 498.085, 597.920 498.379, 604.939 499.076, 614.914 499.552, 621.722 500.533, 631.674 501.179, 638.224 502.450, 648.143 503.251, 654.396 504.818, 664.272 505.757, 670.188 507.628, 680.011 508.684, 685.555 510.867, 695.314 511.791, 699.443 512.017, 700.455 514.527, 710.135 515.747, 714.841 518.593, 724.427 519.855, 728.677 523.049, 738.153 524.322, 741.930 527.643, 750.670 529.126, 754.572 530.591, 758.007 534.247, 766.577 535.260, 768.697 536.690, 771.688 539.666, 777.919 541.337, 781.045 542.777, 783.738 545.112, 788.108 545.362, 788.576 550.495, 797.158 551.316, 798.530 556.885, 806.836 557.506, 807.762 563.526, 815.747 563.912, 816.260 570.390, 823.878 570.510, 824.020 577.277, 831.039 584.192, 837.317 591.232, 842.856 598.378, 847.656 605.610, 851.721 612.911, 855.054 620.262, 857.661 626.415, 859.239 627.644, 859.555 635.039, 860.751 642.430, 861.266 649.800, 861.118 657.135, 860.320 664.420, 858.891 671.643, 856.844 678.790, 854.194 685.849, 850.959 692.809, 847.159 699.660, 842.819 706.391, 837.959 712.993, 832.602 719.458, 826.765 725.778, 820.469 731.945, 813.729 737.952, 806.564 743.792, 798.990 749.460, 791.031 754.951, 782.707 760.175, 774.180 760.261, 774.039 765.211, 765.350 765.385, 765.045 770.071, 756.211 770.319, 755.742 774.748, 746.777 775.059, 746.148 779.239, 737.063 779.601, 736.276 783.537, 727.084 783.940, 726.143 787.640, 716.853 788.074, 715.766 791.546, 706.388 792.000, 705.162 795.252, 695.706 795.718, 694.350 798.755, 684.822 799.225, 683.345 802.051, 673.752 802.520, 672.162 805.139, 662.511 805.600, 660.816 808.016, 651.112 808.462, 649.320 810.677, 639.569 811.104, 637.690 813.120, 627.895 813.523, 625.938 815.346, 616.105 815.721, 614.080 817.352, 604.214 817.696, 602.132 819.137, 592.236 819.447, 590.106 820.699, 580.184 820.972, 578.015 822.035, 568.072 822.270, 565.875 823.144, 555.913 823.339, 553.697 824.026, 543.721 824.179, 541.497 824.524, 534.587 " fill="none" stroke="rgb(0, 0, 0)" stroke-linecap="butt" stroke-linejoin="round" stroke-opacity="1.0" stroke-width="3.0" />
            <path d=" M 669.197, 212.749 661.579, 213.729 653.895, 215.418 646.162, 217.830 638.397, 220.978 630.622, 224.878 622.855, 229.537 615.117, 234.956 607.428, 241.135 600.033, 247.867 599.808, 248.071 594.630, 253.362 594.559, 253.434 594.556, 253.437 592.281, 255.761 585.682, 263.274 585.439, 263.550 584.869, 264.199 578.659, 272.037 577.595, 273.379 575.222, 276.688 570.485, 283.291 565.030, 291.672 563.564, 293.924 558.471, 302.530 556.857, 305.257 556.688, 305.570 556.075, 306.708 556.000, 306.847 553.127, 312.176 551.610, 314.990 550.384, 317.265 545.975, 326.241 545.707, 326.787 544.185, 329.885 544.168, 329.920 541.572, 335.723 538.232, 343.191 534.465, 352.454 532.597, 357.046 532.387, 357.617 528.927, 366.999 527.286, 371.451 524.127, 380.940 522.320, 386.369 519.457, 395.950 517.721, 401.758 515.148, 411.421 513.509, 417.574 511.217, 427.308 509.697, 433.766 507.681, 443.561 506.298, 450.284 504.555, 460.131 503.327, 467.077 501.856, 476.968 500.797, 484.091 499.596, 494.019 498.718, 501.272 497.785, 511.229 497.273, 516.697 497.098, 518.564 496.432, 528.542 495.941, 535.908 495.544, 545.900 495.252, 553.250 495.125, 563.249 495.033, 570.530 495.179, 580.529 495.283, 587.694 495.704, 597.685 495.998, 604.685 496.698, 614.661 497.175, 621.450 498.160, 631.401 498.806, 637.934 500.082, 647.852 500.884, 654.088 502.456, 663.964 503.395, 669.864 505.271, 679.686 506.327, 685.215 508.516, 694.972 509.666, 700.099 510.976, 705.138 513.402, 714.471 516.256, 724.055 517.517, 728.293 520.718, 737.767 521.991, 741.534 525.551, 750.879 526.802, 754.164 526.969, 754.555 529.955, 761.537 531.932, 766.158 534.685, 771.908 536.118, 774.899 537.358, 777.490 540.827, 783.966 542.270, 786.659 543.063, 788.139 544.651, 790.789 549.025, 798.085 554.602, 806.385 555.224, 807.310 561.252, 815.289 561.639, 815.802 568.125, 823.414 568.247, 823.557 575.023, 830.572 581.946, 836.848 588.996, 842.384 596.152, 847.183 603.395, 851.247 610.706, 854.581 618.067, 857.189 625.459, 859.085 " fill="none" stroke="rgb(0, 0, 0)" stroke-linecap="butt" stroke-linejoin="round" stroke-opacity="1.0" stroke-width="3.0" />
            <path d=" M 671.436, 212.581 669.197, 212.749 " fill="none" stroke="rgb(0, 0, 0)" stroke-linecap="butt" stroke-linejoin="round" stroke-opacity="1.0" stroke-width="3.0" />
            <path d=" M 625.459, 859.085 627.644, 859.555 " fill="none" stroke="rgb(0, 0, 0)" stroke-linecap="butt" stroke-linejoin="round" stroke-opacity="1.0" stroke-width="3.0" />
            <path d=" M 479.409, 552.984 479.286, 562.983 479.165, 572.803 479.319, 582.802 479.468, 592.481 479.900, 602.472 480.311, 611.951 481.028, 621.926 481.690, 631.148 482.696, 641.097 483.596, 650.007 484.896, 659.922 486.017, 668.468 487.619, 678.339 488.940, 686.472 490.853, 696.288 492.349, 703.966 494.582, 713.714 496.228, 720.897 498.791, 730.563 500.556, 737.219 503.461, 746.788 503.659, 747.439 505.313, 752.887 505.444, 753.267 508.704, 762.721 510.477, 767.863 511.939, 771.619 515.567, 780.937 516.024, 782.111 519.282, 789.551 519.769, 790.663 520.731, 792.861 521.930, 795.601 522.079, 795.902 522.625, 797.015 527.034, 805.991 527.631, 807.206 528.171, 808.305 529.052, 809.906 529.800, 811.264 531.204, 813.816 534.008, 818.909 534.720, 820.202 535.127, 820.863 535.439, 821.368 537.992, 825.505 541.551, 831.273 547.246, 839.493 548.639, 841.505 554.790, 849.389 555.958, 850.886 562.575, 858.384 563.481, 859.411 570.569, 866.465 571.183, 867.077 578.741, 873.624 579.039, 873.883 587.025, 879.833 595.116, 884.934 603.290, 889.194 611.524, 892.624 619.796, 895.238 624.131, 896.244 632.399, 898.052 640.666, 899.075 648.912, 899.330 657.122, 898.839 665.277, 897.621 673.363, 895.698 681.365, 893.093 689.270, 889.828 697.063, 885.926 704.735, 881.412 712.274, 876.308 719.669, 870.638 726.912, 864.425 733.993, 857.694 740.906, 850.466 747.490, 842.939 747.642, 842.765 753.908, 834.971 754.196, 834.613 760.154, 826.582 760.561, 826.033 766.221, 817.788 766.731, 817.045 772.104, 808.610 772.703, 807.671 777.798, 799.066 778.470, 797.931 783.298, 789.174 784.030, 787.846 788.599, 778.951 789.378, 777.436 793.698, 768.417 794.511, 766.719 798.589, 757.589 799.426, 755.715 803.271, 746.483 804.121, 744.441 807.738, 735.118 808.593, 732.915 811.989, 723.510 812.839, 721.156 816.020, 711.675 816.857, 709.178 819.828, 699.630 820.647, 697.000 823.413, 687.390 824.205, 684.637 826.770, 674.971 827.531, 672.104 829.898, 662.389 830.622, 659.418 832.796, 649.657 833.478, 646.593 835.461, 636.792 836.098, 633.644 837.892, 623.807 838.479, 620.586 840.087, 610.716 840.621, 607.433 842.044, 597.535 842.523, 594.199 843.762, 584.276 844.184, 580.898 845.240, 570.954 845.602, 567.544 846.476, 557.582 846.777, 554.150 847.469, 544.174 847.708, 540.732 848.217, 530.745 848.393, 527.302 848.719, 517.307 848.831, 513.874 848.973, 503.875 849.022, 500.461 848.979, 490.462 848.964, 487.079 848.734, 477.082 848.657, 473.741 848.238, 463.750 848.100, 460.462 847.489, 450.481 847.291, 447.255 846.485, 437.288 846.230, 434.136 845.225, 424.186 844.916, 421.119 843.709, 411.192 843.347, 408.220 841.933, 398.320 841.524, 395.454 839.898, 385.587 839.445, 382.838 837.602, 373.009 837.110, 370.387 835.044, 360.603 834.519, 358.119 832.222, 348.387 831.670, 346.051 829.135, 336.378 828.564, 334.201 825.783, 324.595 825.201, 322.586 822.165, 313.058 821.581, 311.225 818.279, 301.786 817.703, 300.139 814.126, 290.800 813.569, 289.346 809.706, 280.122 809.180, 278.867 805.018, 269.774 804.537, 268.723 800.064, 259.780 799.641, 258.936 794.843, 250.162 794.495, 249.527 789.357, 240.947 789.101, 240.519 783.610, 232.161 783.461, 231.935 777.580, 223.798 771.462, 216.134 765.110, 208.965 758.531, 202.317 751.731, 196.214 744.716, 190.682 737.494, 185.746 730.075, 181.432 722.467, 177.763 714.682, 174.766 706.730, 172.464 698.625, 170.882 690.380, 170.041 682.010, 169.966 673.533, 170.675 669.081, 171.091 660.489, 172.606 651.826, 174.942 643.109, 178.115 634.361, 182.140 625.604, 187.027 617.253, 192.528 616.861, 192.787 608.909, 198.850 608.156, 199.424 600.612, 205.988 599.514, 206.943 592.380, 213.951 590.961, 215.344 584.234, 222.742 582.525, 224.622 576.197, 232.365 574.232, 234.770 568.296, 242.817 566.112, 245.777 565.135, 247.239 559.578, 255.553 558.191, 257.627 553.003, 266.176 550.753, 269.885 550.500, 270.302 547.934, 274.951 547.790, 275.213 547.676, 275.419 547.154, 276.365 546.203, 278.089 543.221, 283.493 543.143, 283.635 543.065, 283.776 541.767, 286.364 539.872, 290.139 538.403, 293.068 535.917, 298.022 532.604, 305.284 531.171, 308.426 529.082, 313.006 526.082, 320.251 522.588, 328.692 519.079, 338.056 517.935, 341.108 516.462, 345.039 513.259, 354.513 510.728, 362.001 507.825, 371.570 505.412, 379.528 502.802, 389.181 500.535, 397.567 498.212, 407.293 496.118, 416.062 494.078, 425.851 493.634, 427.983 492.181, 434.952 491.759, 437.316 489.997, 447.159 488.741, 454.177 487.255, 464.066 485.811, 473.670 484.599, 483.596 483.405, 493.366 482.464, 503.322 482.079, 507.396 481.531, 513.196 481.050, 520.375 480.979, 521.435 480.310, 531.413 480.198, 533.092 479.801, 543.084 479.566, 549.016 479.409, 552.984 " fill="none" stroke="rgb(0, 0, 0)" stroke-linecap="butt" stroke-linejoin="round" stroke-opacity="1.0" stroke-width="3.0" />
            <path d=" M 673.533, 170.675 664.964, 172.189 656.322, 174.526 647.627, 177.703 638.901, 181.732 630.164, 186.626 621.823, 192.141 621.441, 192.394 613.500, 198.472 612.755, 199.042 605.223, 205.620 604.132, 206.574 597.011, 213.595 595.597, 214.989 588.884, 222.401 587.178, 224.284 580.865, 232.040 578.901, 234.452 572.979, 242.510 570.796, 245.481 568.724, 248.592 568.690, 248.643 568.655, 248.695 563.113, 257.019 562.889, 257.355 557.715, 265.913 555.211, 270.055 551.756, 276.341 549.643, 280.184 548.891, 281.552 548.732, 281.842 547.788, 283.558 547.249, 284.636 542.778, 293.581 541.091, 296.955 540.651, 297.834 539.639, 300.061 535.501, 309.165 533.826, 312.851 532.469, 316.140 528.656, 325.384 527.558, 328.047 527.341, 328.572 523.842, 337.940 521.222, 344.955 518.029, 354.432 515.495, 361.955 512.601, 371.527 510.184, 379.521 507.582, 389.177 505.311, 397.602 502.995, 407.330 500.898, 416.139 498.863, 425.930 496.963, 435.073 496.398, 438.241 496.345, 438.538 494.587, 448.382 493.523, 454.342 493.118, 457.046 493.003, 457.815 491.520, 467.704 490.593, 473.881 490.327, 476.065 489.116, 485.991 488.186, 493.622 487.246, 503.578 486.887, 507.383 486.713, 509.223 486.567, 510.774 486.309, 513.498 486.097, 516.660 485.920, 519.307 485.771, 521.521 485.102, 531.499 484.972, 533.439 484.574, 543.431 484.355, 548.941 484.178, 553.377 484.053, 563.376 483.929, 573.241 484.079, 583.240 484.225, 592.964 484.652, 602.955 485.060, 612.478 485.771, 622.453 486.177, 628.153 486.430, 631.717 487.429, 641.667 487.793, 645.297 488.326, 650.617 489.618, 660.534 490.737, 669.118 492.330, 678.990 493.648, 687.161 495.550, 696.978 497.045, 704.691 499.266, 714.441 500.910, 721.657 503.461, 731.326 505.224, 738.011 505.378, 738.522 508.270, 748.095 509.966, 753.710 511.400, 757.888 514.645, 767.347 515.114, 768.714 518.727, 778.038 520.645, 782.988 521.195, 784.252 524.063, 790.832 526.534, 796.501 528.916, 801.374 530.301, 804.205 532.756, 809.227 535.148, 813.591 536.551, 816.151 539.016, 820.648 539.286, 821.143 544.521, 829.663 546.099, 832.231 551.777, 840.462 553.167, 842.476 559.303, 850.373 560.466, 851.870 567.068, 859.381 567.968, 860.405 575.043, 867.472 575.649, 868.078 583.196, 874.639 583.484, 874.890 591.448, 880.843 599.518, 885.946 607.669, 890.205 615.881, 893.634 624.131, 896.244 " fill="none" stroke="rgb(0, 0, 0)" stroke-linecap="butt" stroke-linejoin="round" stroke-opacity="1.0" stroke-width="3.0" />
            <path d=" M 734.263, 523.023 733.754, 521.774 733.732, 521.735 733.154, 520.689 732.475, 519.786 731.727, 519.081 730.922, 518.587 730.075, 518.311 720.092, 517.727 718.919, 517.658 718.036, 517.607 717.140, 517.780 716.245, 518.175 715.399, 518.789 714.621, 519.611 713.890, 520.627 713.232, 521.796 713.219, 521.820 712.619, 523.168 712.100, 524.650 711.673, 526.240 711.344, 527.911 711.118, 529.635 711.001, 531.380 720.980, 532.026 722.203, 532.106 727.032, 531.783 727.064, 531.367 727.074, 531.228 727.159, 530.686 727.247, 530.323 727.284, 530.170 727.445, 529.696 727.639, 529.276 727.860, 528.922 728.102, 528.643 728.358, 528.448 728.621, 528.340 728.885, 528.323 " fill="none" stroke="rgb(0, 0, 0)" stroke-linecap="butt" stroke-linejoin="round" stroke-opacity="1.0" stroke-width="3.0" />
            <path d=" M 730.075, 518.311 729.199, 518.260 728.308, 518.435 727.418, 518.833 726.579, 519.450 725.806, 520.277 725.079, 521.299 724.539, 522.269 724.450, 522.430 724.412, 522.497 724.287, 522.781 723.816, 523.853 723.300, 525.342 722.874, 526.940 722.680, 527.933 722.546, 528.620 722.321, 530.351 722.273, 531.059 722.203, 532.106 " fill="none" stroke="rgb(0, 0, 0)" stroke-linecap="butt" stroke-linejoin="round" stroke-opacity="1.0" stroke-width="3.0" />
            <path d=" M 728.885, 528.323 729.141, 528.398 729.383, 528.562 729.605, 528.811 729.800, 529.138 729.963, 529.534 730.089, 529.988 730.176, 530.488 730.221, 531.020 730.222, 531.570 " fill="none" stroke="rgb(0, 0, 0)" stroke-linecap="butt" stroke-linejoin="round" stroke-opacity="1.0" stroke-width="3.0" />
            <path d=" M 734.263, 523.023 744.245, 522.427 750.467, 522.055 " fill="none" stroke="rgb(0, 0, 0)" stroke-linecap="butt" stroke-linejoin="round" stroke-opacity="1.0" stroke-width="3.0" />
            <path d=" M 727.064, 531.367 730.222, 531.570 740.200, 530.904 747.436, 530.421 " fill="none" stroke="rgb(0, 0, 0)" stroke-linecap="butt" stroke-linejoin="round" stroke-opacity="1.0" stroke-width="3.0" />
            <path d=" M 803.208, 522.595 802.375, 522.547 801.525, 522.731 800.674, 523.145 799.873, 523.786 799.171, 524.604 799.137, 524.643 798.445, 525.700 798.018, 526.529 797.842, 526.870 797.806, 526.939 797.234, 528.341 796.737, 529.879 796.325, 531.530 796.161, 532.413 796.135, 532.555 796.126, 532.604 796.004, 533.264 795.780, 535.051 795.730, 535.781 795.657, 536.861 " fill="none" stroke="rgb(0, 0, 0)" stroke-linecap="butt" stroke-linejoin="round" stroke-opacity="1.0" stroke-width="3.0" />
            <path d=" M 801.994, 532.923 802.236, 532.999 802.284, 533.034 802.464, 533.167 802.671, 533.423 802.853, 533.759 803.005, 534.166 803.122, 534.633 803.200, 535.148 803.239, 535.697 803.237, 536.264 " fill="none" stroke="rgb(0, 0, 0)" stroke-linecap="butt" stroke-linejoin="round" stroke-opacity="1.0" stroke-width="3.0" />
            <path d=" M 784.090, 490.216 784.252, 490.210 784.469, 490.244 784.677, 490.322 784.866, 490.443 785.031, 490.602 785.165, 490.793 785.263, 491.011 785.322, 491.251 785.336, 491.506 785.305, 491.745 785.234, 491.973 785.123, 492.181 784.978, 492.362 784.804, 492.509 784.605, 492.618 784.388, 492.682 784.155, 492.698 783.994, 492.678 " fill="none" stroke="rgb(0, 0, 0)" stroke-linecap="butt" stroke-linejoin="round" stroke-opacity="1.0" stroke-width="3.0" />
            <path d=" M 784.090, 490.216 784.016, 490.224 784.009, 490.225 783.773, 490.286 783.553, 490.391 783.357, 490.536 783.194, 490.715 783.067, 490.924 782.982, 491.158 782.946, 491.411 782.960, 491.651 783.021, 491.884 783.126, 492.101 783.271, 492.294 783.452, 492.455 783.459, 492.459 783.668, 492.583 783.901, 492.664 783.913, 492.666 783.974, 492.674 783.988, 492.676 784.155, 492.698 " fill="none" stroke="rgb(0, 0, 0)" stroke-linecap="butt" stroke-linejoin="round" stroke-opacity="1.0" stroke-width="3.0" />
            <path d=" M 781.498, 488.218 781.256, 494.429 784.738, 494.594 786.915, 494.697 787.573, 494.520 787.304, 488.468 784.521, 488.335 781.925, 488.211 781.498, 488.218 " fill="none" stroke="rgb(0, 0, 0)" stroke-linecap="butt" stroke-linejoin="round" stroke-opacity="1.0" stroke-width="3.0" />
            <path d=" M 786.915, 494.697 787.159, 488.471 " fill="none" stroke="rgb(0, 0, 0)" stroke-linecap="butt" stroke-linejoin="round" stroke-opacity="1.0" stroke-width="3.0" />
            <path d=" M 787.304, 488.468 787.159, 488.471 781.498, 488.218 " fill="none" stroke="rgb(0, 0, 0)" stroke-linecap="butt" stroke-linejoin="round" stroke-opacity="1.0" stroke-width="3.0" />
            <path d=" M 713.232, 521.796 704.928, 521.049 694.969, 520.143 693.452, 520.005 683.494, 519.095 681.977, 518.956 672.019, 518.045 670.498, 517.906 660.539, 516.998 659.009, 516.858 649.049, 515.958 647.506, 515.819 637.545, 514.930 635.983, 514.790 626.021, 513.917 624.437, 513.778 614.474, 512.924 612.862, 512.785 602.897, 511.954 601.255, 511.816 591.287, 511.011 589.609, 510.875 579.639, 510.100 577.922, 509.966 577.831, 499.967 577.790, 495.506 577.581, 485.508 577.489, 481.117 577.159, 471.122 577.018, 466.820 576.565, 456.830 576.376, 452.634 575.797, 442.651 575.562, 438.581 574.854, 428.606 574.576, 424.679 573.734, 414.715 573.417, 410.952 572.436, 401.000 572.084, 397.420 570.958, 387.484 570.576, 384.108 569.299, 374.190 568.894, 371.040 567.458, 361.143 567.036, 358.238 566.585, 355.463 " fill="none" stroke="rgb(0, 0, 0)" stroke-linecap="butt" stroke-linejoin="round" stroke-opacity="1.0" stroke-width="3.0" />
            <path d=" M 531.909, 229.024 530.036, 227.560 523.236, 222.245 523.017, 222.074 520.268, 219.682 513.906, 214.145 " fill="none" stroke="rgb(0, 0, 0)" stroke-linecap="butt" stroke-linejoin="round" stroke-opacity="1.0" stroke-width="3.0" />
            <path d=" M 554.032, 242.497 546.466, 238.448 544.956, 237.515 540.506, 234.764 539.625, 234.219 537.311, 232.789 537.028, 232.614 536.930, 232.553 535.984, 231.888 532.503, 229.441 531.909, 229.024 530.080, 227.738 527.556, 225.964 " fill="none" stroke="rgb(0, 0, 0)" stroke-linecap="butt" stroke-linejoin="round" stroke-opacity="1.0" stroke-width="3.0" />
            <path d=" M 565.135, 247.239 560.872, 245.631 554.032, 242.497 551.093, 241.151 " fill="none" stroke="rgb(0, 0, 0)" stroke-linecap="butt" stroke-linejoin="round" stroke-opacity="1.0" stroke-width="3.0" />
            <path d=" M 513.906, 214.145 509.251, 210.707 508.183, 210.136 505.418, 208.659 504.471, 208.152 499.578, 206.522 494.582, 205.857 489.494, 206.189 484.330, 207.555 479.103, 209.986 478.363, 210.482 476.330, 211.842 473.830, 213.515 470.311, 216.600 468.527, 218.165 463.213, 223.956 459.542, 228.769 457.909, 230.909 455.697, 234.318 452.635, 239.036 450.701, 242.483 447.414, 248.339 443.007, 257.315 442.268, 258.819 438.294, 267.995 437.223, 270.468 433.636, 279.803 432.302, 283.272 429.062, 292.733 427.531, 297.205 424.607, 306.768 422.935, 312.235 420.299, 321.882 418.540, 328.323 416.170, 338.039 414.371, 345.419 412.248, 355.191 410.452, 363.461 408.561, 373.281 406.808, 382.384 405.136, 392.244 403.462, 402.114 401.997, 412.006 400.533, 421.898 400.434, 422.564 399.169, 432.483 397.903, 442.403 397.745, 443.643 396.671, 453.585 395.598, 463.528 395.411, 465.255 394.524, 475.216 393.638, 485.177 393.449, 487.296 392.745, 497.271 392.040, 507.247 391.870, 509.656 391.346, 519.642 390.822, 529.629 390.685, 532.223 390.340, 542.217 389.994, 552.211 389.902, 554.883 389.735, 564.882 389.568, 574.881 389.524, 577.523 389.537, 587.523 389.550, 597.523 389.553, 600.025 389.748, 610.023 389.943, 620.021 389.987, 622.276 390.017, 622.242 395.477, 616.110 397.192, 614.277 401.071, 610.129 406.771, 604.328 412.576, 598.699 418.489, 593.236 424.509, 587.935 430.638, 582.789 436.878, 577.793 443.228, 572.941 449.691, 568.229 456.268, 563.652 462.960, 559.204 469.769, 554.882 476.696, 550.681 479.566, 549.016 " fill="none" stroke="rgb(0, 0, 0)" stroke-linecap="butt" stroke-linejoin="round" stroke-opacity="1.0" stroke-width="3.0" />
            <path d=" M 359.981, 612.695 355.926, 621.836 353.965, 626.257 " fill="none" stroke="rgb(0, 0, 0)" stroke-linecap="butt" stroke-linejoin="round" stroke-opacity="1.0" stroke-width="3.0" />
            <path d=" M 478.363, 210.482 468.363, 210.583 467.621, 210.591 " fill="none" stroke="rgb(0, 0, 0)" stroke-linecap="butt" stroke-linejoin="round" stroke-opacity="1.0" stroke-width="3.0" />
            <path d=" M 537.028, 232.614 535.984, 231.888 " fill="none" stroke="rgb(0, 0, 0)" stroke-linecap="butt" stroke-linejoin="round" stroke-opacity="1.0" stroke-width="3.0" />
            <path d=" M 783.974, 492.674 783.994, 492.678 " fill="none" stroke="rgb(0, 0, 0)" stroke-linecap="butt" stroke-linejoin="round" stroke-opacity="1.0" stroke-width="3.0" />
        </g>
    </g>
</svg>
