<?xml version='1.0' encoding='ascii'?>
<svg xmlns="http://www.w3.org/2000/svg" height="1080" version="1.1" width="1080">
    <g id="View Layer_LineSet" inkscape:groupmode="lineset" inkscape:label="View Layer_LineSet" xmlns:inkscape="http://www.inkscape.org/namespaces/inkscape">
        <g id="strokes" inkscape:groupmode="layer" inkscape:label="strokes" xmlns:inkscape="http://www.inkscape.org/namespaces/inkscape">
            <path d=" M 564.726, 496.029 564.704, 497.061 564.701, 497.189 564.657, 498.339 564.594, 499.468 564.511, 500.564 564.410, 501.616 564.292, 502.614 564.158, 503.548 564.009, 504.408 563.844, 505.186 563.832, 505.235 563.720, 505.692 563.591, 506.146 563.457, 506.549 563.318, 506.896 563.176, 507.186 563.032, 507.418 562.980, 507.480 562.886, 507.591 561.831, 508.611 " fill="none" stroke="rgb(0, 0, 0)" stroke-linecap="butt" stroke-linejoin="round" stroke-opacity="1.0" stroke-width="3.0" />
            <path d=" M 354.973, 654.950 361.320, 657.716 " fill="none" stroke="rgb(0, 0, 0)" stroke-linecap="butt" stroke-linejoin="round" stroke-opacity="1.0" stroke-width="3.0" />
            <path d=" M 379.106, 658.359 388.951, 656.607 391.007, 656.241 " fill="none" stroke="rgb(0, 0, 0)" stroke-linecap="butt" stroke-linejoin="round" stroke-opacity="1.0" stroke-width="3.0" />
            <path d=" M 391.007, 656.241 386.626, 647.252 382.244, 638.263 381.194, 636.108 " fill="none" stroke="rgb(0, 0, 0)" stroke-linecap="butt" stroke-linejoin="round" stroke-opacity="1.0" stroke-width="3.0" />
            <path d=" M 469.066, 221.384 464.605, 222.143 460.082, 223.972 455.510, 226.905 450.904, 230.974 446.279, 236.203 443.958, 239.419 441.654, 242.612 441.493, 242.877 437.045, 250.219 432.474, 259.035 428.368, 268.154 427.959, 269.063 424.285, 278.364 423.521, 280.297 420.228, 289.739 419.184, 292.730 416.227, 302.282 414.970, 306.341 412.312, 315.981 410.901, 321.099 408.514, 330.810 407.000, 336.968 404.860, 346.736 403.291, 353.902 401.379, 363.717 399.796, 371.843 398.095, 381.697 396.537, 390.724 395.034, 400.610 393.535, 410.469 392.220, 420.382 390.905, 430.295 390.812, 430.996 389.674, 440.931 388.537, 450.867 388.383, 452.211 387.417, 462.164 386.450, 472.117 386.266, 474.011 385.466, 483.979 384.665, 493.947 384.477, 496.293 383.838, 506.272 383.199, 516.252 383.027, 518.942 382.546, 528.931 382.066, 538.919 381.925, 541.842 381.602, 551.837 381.278, 561.832 381.179, 564.875 381.012, 574.873 380.845, 584.872 380.794, 587.917 380.784, 597.917 380.774, 607.917 380.771, 610.850 380.919, 620.849 381.068, 630.848 381.108, 633.554 381.194, 636.108 380.260, 646.064 379.325, 656.021 379.106, 658.359 " fill="none" stroke="rgb(0, 0, 0)" stroke-linecap="butt" stroke-linejoin="round" stroke-opacity="1.0" stroke-width="3.0" />
            <path d=" M 566.942, 520.621 567.322, 520.628 567.994, 520.640 574.833, 513.566 577.921, 511.167 577.764, 501.168 577.691, 496.557 577.412, 486.560 577.286, 482.042 576.882, 472.050 576.704, 467.643 576.173, 457.657 575.945, 453.381 575.282, 443.403 575.008, 439.279 574.209, 429.311 573.893, 425.359 572.953, 415.403 572.598, 411.643 571.511, 401.703 571.123, 398.157 569.881, 388.235 569.467, 384.925 568.062, 375.025 567.629, 371.973 566.053, 362.098 565.610, 359.327 564.064, 350.683 " fill="none" stroke="rgb(0, 0, 0)" stroke-linecap="butt" stroke-linejoin="round" stroke-opacity="1.0" stroke-width="3.0" />
            <path d=" M 560.824, 356.863 560.837, 356.938 562.621, 366.778 562.924, 368.450 564.520, 378.322 564.871, 380.492 566.293, 390.390 566.645, 392.837 567.902, 402.758 568.244, 405.460 569.345, 415.400 569.670, 418.336 570.621, 428.291 570.922, 431.440 571.731, 441.407 572.002, 444.748 572.673, 454.726 572.909, 458.237 573.448, 468.222 573.645, 471.885 574.055, 481.876 574.211, 485.670 574.495, 495.666 574.606, 499.570 574.624, 500.652 574.559, 501.422 574.484, 502.164 574.401, 502.876 574.309, 503.554 574.210, 504.194 574.103, 504.792 573.990, 505.346 573.870, 505.852 573.745, 506.307 573.616, 506.710 573.482, 507.058 573.345, 507.349 573.206, 507.581 573.065, 507.754 569.022, 511.818 568.820, 510.829 568.790, 510.721 568.596, 510.013 568.352, 509.383 568.092, 508.950 567.822, 508.721 567.544, 508.703 567.354, 508.700 564.972, 508.661 564.769, 508.658 563.839, 508.643 562.982, 508.629 561.831, 508.611 559.411, 508.572 557.626, 508.543 557.469, 508.540 557.154, 508.535 556.864, 508.727 556.577, 509.126 556.298, 509.727 556.171, 510.104 556.031, 510.519 555.782, 511.491 555.644, 512.178 555.559, 512.600 555.554, 512.625 555.351, 513.903 555.178, 515.303 555.036, 516.801 554.929, 518.371 554.859, 519.987 554.826, 521.620 554.831, 523.243 555.673, 523.258 557.518, 523.291 557.611, 523.293 559.393, 523.325 562.961, 523.389 563.793, 523.404 564.747, 523.422 565.295, 523.431 566.921, 521.750 566.921, 521.235 566.937, 520.718 566.942, 520.621 566.966, 520.215 567.009, 519.739 567.064, 519.303 567.130, 518.918 567.205, 518.596 567.286, 518.344 567.336, 518.245 567.373, 518.171 567.461, 518.081 567.550, 518.075 " fill="none" stroke="rgb(0, 0, 0)" stroke-linecap="butt" stroke-linejoin="round" stroke-opacity="1.0" stroke-width="3.0" />
            <path d=" M 465.898, 895.710 461.842, 895.596 458.301, 894.630 457.769, 894.485 453.694, 892.347 449.632, 889.152 449.585, 889.103 445.596, 884.875 441.603, 879.497 437.670, 873.004 433.814, 865.380 430.054, 856.623 426.594, 847.241 426.408, 846.736 423.367, 837.209 422.894, 835.725 420.221, 826.089 419.532, 823.605 417.183, 813.885 416.341, 810.400 414.281, 800.615 413.340, 796.144 411.541, 786.307 410.547, 780.873 408.985, 770.996 407.980, 764.636 406.636, 754.726 405.656, 747.490 404.515, 737.556 403.590, 729.502 402.639, 719.547 401.798, 710.741 401.027, 700.770 400.293, 691.289 399.692, 681.307 399.086, 671.234 398.648, 661.244 398.211, 651.253 398.185, 650.670 397.886, 640.674 397.813, 638.250 " fill="none" stroke="rgb(0, 0, 0)" stroke-linecap="butt" stroke-linejoin="round" stroke-opacity="1.0" stroke-width="3.0" />
            <path d=" M 383.018, 303.725 382.582, 305.350 380.260, 315.077 379.090, 319.980 377.014, 329.762 375.749, 335.722 373.897, 345.549 372.580, 352.534 370.933, 362.397 369.602, 370.362 368.143, 380.255 366.833, 389.140 365.550, 399.057 364.290, 408.797 363.174, 418.734 362.058, 428.672 361.992, 429.252 361.034, 439.206 360.075, 449.160 359.954, 450.416 359.146, 460.383 358.338, 470.350 358.189, 472.189 357.527, 482.167 356.865, 492.145 356.711, 494.468 356.191, 504.455 355.670, 514.441 355.529, 517.145 355.148, 527.138 354.766, 537.130 354.652, 540.103 354.408, 550.100 354.163, 560.097 354.086, 563.225 353.978, 573.224 353.869, 583.223 353.835, 586.390 353.863, 596.390 353.892, 606.390 353.901, 609.479 354.067, 619.478 354.233, 629.477 354.281, 632.372 354.587, 642.367 354.893, 652.363 354.973, 654.950 355.471, 664.938 355.970, 674.926 356.071, 676.937 356.743, 686.914 357.416, 696.892 357.515, 698.362 358.368, 708.326 359.222, 718.289 359.293, 719.124 360.337, 729.070 361.393, 739.127 362.640, 749.049 363.800, 758.282 365.264, 768.174 366.497, 776.512 368.195, 786.366 369.466, 793.747 371.420, 803.554 372.689, 809.926 374.924, 819.673 376.145, 824.999 378.693, 834.669 379.094, 836.191 " fill="none" stroke="rgb(0, 0, 0)" stroke-linecap="butt" stroke-linejoin="round" stroke-opacity="1.0" stroke-width="3.0" />
            <path d=" M 523.538, 534.685 523.550, 539.062 523.469, 549.062 523.436, 553.172 523.247, 563.170 523.169, 567.301 522.874, 577.297 522.752, 581.433 522.349, 591.425 522.183, 595.546 521.673, 605.533 521.465, 609.623 520.846, 619.604 520.596, 623.643 520.525, 624.614 " fill="none" stroke="rgb(0, 0, 0)" stroke-linecap="butt" stroke-linejoin="round" stroke-opacity="1.0" stroke-width="3.0" />
            <path d=" M 505.531, 746.754 503.737, 756.151 501.703, 765.942 501.248, 768.131 499.044, 777.885 498.617, 779.778 496.232, 789.489 495.845, 791.064 493.264, 800.725 492.935, 801.960 490.141, 811.562 489.888, 812.433 486.862, 821.965 486.707, 822.454 483.396, 831.989 479.957, 841.004 476.395, 849.462 472.713, 857.331 468.918, 864.573 465.015, 871.149 461.010, 877.021 456.910, 882.152 452.724, 886.503 449.585, 889.103 " fill="none" stroke="rgb(0, 0, 0)" stroke-linecap="butt" stroke-linejoin="round" stroke-opacity="1.0" stroke-width="3.0" />
            <path d=" M 390.850, 651.128 391.007, 656.241 391.460, 666.231 391.912, 676.220 392.001, 678.170 392.628, 688.150 393.256, 698.130 393.344, 699.540 394.154, 709.507 394.964, 719.474 395.027, 720.251 396.028, 730.201 397.035, 740.207 398.239, 750.134 399.353, 759.320 400.773, 769.218 401.962, 777.513 403.613, 787.376 404.842, 794.717 406.745, 804.535 407.973, 810.871 410.151, 820.631 411.333, 825.924 413.815, 835.611 414.898, 839.837 417.720, 849.430 418.645, 852.577 421.853, 862.048 422.553, 864.118 426.199, 873.430 426.598, 874.449 430.758, 883.564 435.010, 891.463 437.270, 894.958 437.530, 895.361 439.335, 898.152 443.711, 903.648 448.120, 907.970 452.544, 911.142 456.967, 913.192 461.371, 914.154 465.744, 914.064 470.071, 912.956 474.340, 910.871 478.542, 907.852 479.963, 906.503 482.665, 903.939 486.700, 899.171 490.639, 893.595 494.476, 887.252 498.205, 880.182 499.767, 876.832 501.820, 872.426 505.316, 864.027 508.689, 855.022 510.942, 848.380 511.937, 845.449 514.885, 835.894 515.055, 835.345 517.768, 825.720 518.042, 824.748 520.541, 815.065 520.895, 813.691 523.199, 803.960 523.614, 802.206 525.038, 795.656 " fill="none" stroke="rgb(0, 0, 0)" stroke-linecap="butt" stroke-linejoin="round" stroke-opacity="1.0" stroke-width="3.0" />
            <path d=" M 521.702, 788.629 521.033, 791.603 518.658, 801.317 518.374, 802.478 515.802, 812.141 515.592, 812.931 512.804, 822.534 512.689, 822.932 509.667, 832.449 506.531, 841.448 503.283, 849.891 499.928, 857.746 496.471, 864.976 492.916, 871.541 489.270, 877.404 485.539, 882.529 481.731, 886.875 477.853, 890.403 473.915, 893.076 469.927, 894.858 465.898, 895.710 " fill="none" stroke="rgb(0, 0, 0)" stroke-linecap="butt" stroke-linejoin="round" stroke-opacity="1.0" stroke-width="3.0" />
            <path d=" M 555.559, 512.600 548.966, 512.269 548.265, 512.234 546.422, 512.141 546.365, 512.138 546.476, 522.138 546.520, 526.113 546.532, 536.113 546.536, 540.147 546.450, 550.147 546.414, 554.222 546.230, 564.220 546.154, 568.318 545.873, 578.314 545.757, 582.416 545.377, 592.409 545.222, 596.497 544.745, 606.486 544.551, 610.542 543.974, 620.525 543.743, 624.530 543.066, 634.507 542.799, 638.443 542.020, 648.412 541.719, 652.260 540.836, 662.221 540.505, 665.961 539.514, 675.911 539.155, 679.523 538.054, 689.463 537.670, 692.927 537.117, 697.446 " fill="none" stroke="rgb(0, 0, 0)" stroke-linecap="butt" stroke-linejoin="round" stroke-opacity="1.0" stroke-width="3.0" />
            <path d=" M 539.688, 704.779 540.414, 698.556 541.462, 688.611 541.892, 684.529 542.832, 674.573 543.232, 670.344 544.068, 660.379 544.434, 656.022 545.169, 646.049 545.498, 641.586 546.135, 631.606 546.426, 627.055 546.967, 617.069 547.217, 612.449 547.662, 602.459 547.871, 597.789 548.223, 587.795 548.388, 583.093 548.648, 573.096 548.770, 568.381 548.937, 558.382 549.016, 553.672 549.091, 543.672 549.126, 538.984 549.108, 528.984 549.100, 524.337 548.989, 514.338 548.966, 512.269 " fill="none" stroke="rgb(0, 0, 0)" stroke-linecap="butt" stroke-linejoin="round" stroke-opacity="1.0" stroke-width="3.0" />
            <path d=" M 379.106, 658.359 379.572, 668.348 380.039, 678.337 380.172, 681.174 380.811, 691.154 381.450, 701.133 381.595, 703.398 382.413, 713.365 383.231, 723.331 383.362, 724.924 384.369, 734.874 385.377, 744.823 385.461, 745.651 386.668, 755.578 387.874, 765.487 389.296, 775.385 390.584, 784.350 392.237, 794.212 393.570, 802.169 395.475, 811.986 396.813, 818.881 398.995, 828.640 400.291, 834.432 402.780, 844.117 403.980, 848.784 406.814, 858.374 407.858, 861.903 411.085, 871.368 411.903, 873.766 415.580, 883.066 416.092, 884.361 420.288, 893.438 420.401, 893.684 424.811, 901.737 429.298, 908.530 433.844, 914.081 438.429, 918.414 443.034, 921.553 447.642, 923.532 452.237, 924.387 456.805, 924.156 461.331, 922.878 465.803, 920.596 470.209, 917.355 474.539, 913.198 " fill="none" stroke="rgb(0, 0, 0)" stroke-linecap="butt" stroke-linejoin="round" stroke-opacity="1.0" stroke-width="3.0" />
            <path d=" M 474.539, 913.198 481.135, 905.682 482.665, 903.939 " fill="none" stroke="rgb(0, 0, 0)" stroke-linecap="butt" stroke-linejoin="round" stroke-opacity="1.0" stroke-width="3.0" />
            <path d=" M 540.685, 536.935 530.685, 536.870 529.323, 536.861 526.280, 535.716 523.538, 534.685 519.470, 533.155 519.182, 533.047 518.894, 532.938 518.606, 532.830 518.318, 532.721 517.980, 532.475 517.653, 531.996 517.346, 531.294 517.064, 530.382 516.915, 529.719 " fill="none" stroke="rgb(0, 0, 0)" stroke-linecap="butt" stroke-linejoin="round" stroke-opacity="1.0" stroke-width="3.0" />
            <path d=" M 518.688, 507.203 518.950, 506.630 519.089, 506.329 523.245, 497.234 527.402, 488.139 528.384, 485.990 538.343, 486.886 539.852, 487.021 540.180, 497.016 540.508, 507.010 540.667, 511.853 540.739, 521.852 540.768, 525.833 540.693, 535.833 540.685, 536.935 531.624, 533.390 531.347, 533.282 531.070, 533.174 530.792, 533.065 530.516, 532.957 530.190, 532.710 529.877, 532.231 529.581, 531.528 529.363, 530.790 529.311, 530.615 529.073, 529.509 528.869, 528.229 528.705, 526.802 528.583, 525.253 528.505, 523.612 528.505, 523.605 528.474, 521.913 528.490, 520.186 528.553, 518.467 528.621, 517.402 528.660, 516.787 528.812, 515.181 529.003, 513.678 529.231, 512.309 529.287, 512.045 529.491, 511.098 529.778, 510.069 530.084, 509.242 530.349, 508.636 530.614, 508.032 530.880, 507.428 531.144, 506.825 531.278, 506.523 535.303, 497.369 539.328, 488.215 539.852, 487.021 " fill="none" stroke="rgb(0, 0, 0)" stroke-linecap="butt" stroke-linejoin="round" stroke-opacity="1.0" stroke-width="3.0" />
            <path d=" M 530.921, 523.649 530.795, 523.630 530.674, 523.476 530.564, 523.193 530.471, 522.794 530.397, 522.297 530.347, 521.723 530.322, 521.097 530.323, 520.447 530.352, 519.801 530.406, 519.188 530.482, 518.635 530.578, 518.165 530.690, 517.800 530.811, 517.555 530.937, 517.442 " fill="none" stroke="rgb(0, 0, 0)" stroke-linecap="butt" stroke-linejoin="round" stroke-opacity="1.0" stroke-width="3.0" />
            <path d=" M 530.937, 517.442 531.064, 517.464 531.184, 517.620 531.293, 517.904 531.387, 518.303 531.460, 518.799 531.510, 519.372 531.535, 519.995 531.533, 520.643 531.505, 521.286 531.451, 521.897 531.375, 522.449 531.280, 522.919 531.169, 523.285 531.048, 523.532 530.921, 523.649 " fill="none" stroke="rgb(0, 0, 0)" stroke-linecap="butt" stroke-linejoin="round" stroke-opacity="1.0" stroke-width="3.0" />
            <path d=" M 360.077, 588.501 360.052, 591.335 360.104, 601.335 360.155, 611.335 360.167, 613.710 360.358, 623.708 360.549, 633.706 360.590, 635.865 360.784, 641.659 361.117, 651.653 361.320, 657.716 361.799, 667.704 362.279, 677.693 362.350, 679.177 362.449, 680.751 " fill="none" stroke="rgb(0, 0, 0)" stroke-linecap="butt" stroke-linejoin="round" stroke-opacity="1.0" stroke-width="3.0" />
            <path d=" M 545.602, 719.579 546.269, 714.204 546.605, 711.500 547.742, 701.565 548.087, 698.557 549.132, 688.612 549.460, 685.491 550.417, 675.537 550.726, 672.315 551.595, 662.353 551.884, 659.043 552.667, 649.073 552.934, 645.685 553.633, 635.710 553.876, 632.256 554.493, 622.275 554.710, 618.766 555.245, 608.781 555.436, 605.228 555.890, 595.238 556.054, 591.653 556.428, 581.660 556.564, 578.051 556.858, 568.056 556.965, 564.436 557.055, 560.254 557.258, 550.816 557.394, 540.817 557.443, 537.204 557.499, 527.204 557.519, 523.611 557.518, 523.291 " fill="none" stroke="rgb(0, 0, 0)" stroke-linecap="butt" stroke-linejoin="round" stroke-opacity="1.0" stroke-width="3.0" />
            <path d=" M 457.064, 949.297 459.486, 949.475 463.616, 948.981 467.708, 947.678 471.752, 945.595 475.743, 942.763 479.674, 939.214 483.538, 934.977 487.330, 930.085 491.045, 924.568 494.678, 918.456 498.226, 911.780 501.685, 904.568 505.052, 896.848 508.324, 888.649 511.499, 879.997 514.574, 870.919 517.549, 861.439 520.346, 851.838 520.421, 851.582 523.038, 841.930 523.190, 841.370 525.639, 831.675 525.853, 830.827 528.147, 821.094 528.411, 819.974 530.560, 810.208 530.863, 808.832 531.133, 807.516 " fill="none" stroke="rgb(0, 0, 0)" stroke-linecap="butt" stroke-linejoin="round" stroke-opacity="1.0" stroke-width="3.0" />
            <path d=" M 523.664, 230.829 522.685, 227.817 519.778, 219.682 516.756, 212.026 513.621, 204.875 510.374, 198.257 507.018, 192.202 503.556, 186.738 499.990, 181.895 496.324, 177.704 492.562, 174.195 488.709, 171.399 484.770, 169.347 480.750, 168.069 476.657, 167.595 474.944, 167.743 472.498, 167.955 468.280, 169.176 464.012, 171.286 459.704, 174.311 455.366, 178.273 451.009, 183.194 446.644, 189.092 442.285, 195.984 437.944, 203.880 433.636, 212.788 429.904, 221.481 429.375, 222.714 425.792, 232.050 425.176, 233.654 421.916, 243.108 421.055, 245.605 418.086, 255.154 417.029, 258.554 416.880, 259.081 414.174, 268.708 413.112, 272.484 410.646, 282.175 409.323, 287.373 407.078, 297.117 405.678, 303.191 403.637, 312.980 402.193, 319.903 400.342, 329.730 398.885, 337.468 397.213, 347.327 395.770, 355.838 394.267, 365.724 392.863, 374.958 391.520, 384.867 390.179, 394.769 388.990, 404.698 387.801, 414.627 387.731, 415.205 386.690, 425.150 385.649, 435.096 385.534, 436.195 384.635, 446.154 383.737, 456.114 383.597, 457.663 382.838, 467.634 382.079, 477.605 381.933, 479.530 381.310, 489.510 380.687, 499.491 380.548, 501.711 380.060, 511.699 379.571, 521.687 379.452, 524.120 379.096, 534.114 378.740, 544.108 378.648, 546.669 378.424, 556.667 378.201, 566.664 378.142, 569.268 378.051, 579.267 377.959, 589.267 377.936, 591.825 377.977, 601.825 378.018, 611.825 378.029, 614.252 378.205, 624.251 378.381, 634.249 378.420, 636.459 378.733, 646.454 379.046, 656.449 379.106, 658.359 379.559, 668.348 380.013, 678.338 380.082, 679.867 380.680, 689.850 381.278, 699.832 381.342, 700.905 382.089, 710.877 382.836, 720.849 382.877, 721.394 383.780, 731.353 384.678, 741.262 385.744, 751.205 386.734, 760.445 387.972, 770.368 389.033, 778.879 390.453, 788.778 391.562, 796.511 393.177, 806.380 394.308, 813.291 396.132, 823.123 397.255, 829.177 399.306, 838.965 400.389, 844.133 402.687, 853.865 403.694, 858.128 406.265, 867.792 407.155, 871.140 410.027, 880.718 410.755, 883.149 413.964, 892.621 414.480, 894.145 418.067, 903.480 418.313, 904.120 422.240, 913.074 426.244, 921.009 430.313, 927.932 434.432, 933.857 438.587, 938.798 442.765, 942.773 446.956, 945.804 451.147, 947.914 455.327, 949.128 457.182, 949.283 459.486, 949.475 " fill="none" stroke="rgb(0, 0, 0)" stroke-linecap="butt" stroke-linejoin="round" stroke-opacity="1.0" stroke-width="3.0" />
            <path d=" M 474.238, 167.662 470.052, 168.022 465.808, 169.244 461.513, 171.355 457.178, 174.379 452.812, 178.340 448.428, 183.261 444.037, 189.158 439.651, 196.047 435.284, 203.941 430.949, 212.848 427.017, 221.950 426.662, 222.770 423.060, 232.098 422.439, 233.707 419.160, 243.155 418.293, 245.654 415.307, 255.198 414.243, 258.599 411.521, 268.221 410.304, 272.524 409.475, 275.762 406.994, 285.450 406.493, 287.408 404.234, 297.149 402.827, 303.220 400.774, 313.007 399.322, 319.926 397.461, 329.752 395.996, 337.485 394.314, 347.342 392.863, 355.848 391.352, 365.733 389.941, 374.961 388.591, 384.869 387.242, 394.764 386.047, 404.692 384.851, 414.621 384.783, 415.192 383.736, 425.137 382.689, 435.082 382.574, 436.174 381.671, 446.133 380.768, 456.092 380.628, 457.634 379.866, 467.605 379.103, 477.575 378.956, 479.492 378.331, 489.472 377.705, 499.453 377.566, 501.664 377.076, 511.652 376.585, 521.640 376.466, 524.065 376.109, 534.058 375.752, 544.052 375.660, 546.605 375.436, 556.602 375.212, 566.600 375.154, 569.195 375.063, 579.194 374.972, 589.194 374.949, 591.743 374.992, 601.743 375.035, 611.743 375.046, 614.161 375.224, 624.160 375.403, 634.158 375.442, 636.360 375.759, 646.355 376.076, 656.350 376.136, 658.251 376.594, 668.241 377.051, 678.230 377.121, 679.752 377.724, 689.734 378.327, 699.716 378.391, 700.782 379.145, 710.753 379.898, 720.725 379.939, 721.263 380.849, 731.222 381.754, 741.125 382.828, 751.067 383.825, 760.301 385.072, 770.223 386.141, 778.729 387.572, 788.626 388.689, 796.355 390.315, 806.222 391.454, 813.130 393.291, 822.960 394.422, 829.012 396.487, 838.796 397.577, 843.963 399.891, 853.692 400.905, 857.955 403.493, 867.615 404.390, 870.963 407.280, 880.537 408.014, 882.970 411.243, 892.435 411.764, 893.964 415.372, 903.290 415.623, 903.937 419.575, 912.890 423.607, 920.824 427.702, 927.747 431.847, 933.672 436.029, 938.613 440.235, 942.589 444.453, 945.621 448.671, 947.732 452.878, 948.948 457.064, 949.297 " fill="none" stroke="rgb(0, 0, 0)" stroke-linecap="butt" stroke-linejoin="round" stroke-opacity="1.0" stroke-width="3.0" />
            <path d=" M 476.657, 167.595 474.238, 167.662 " fill="none" stroke="rgb(0, 0, 0)" stroke-linecap="butt" stroke-linejoin="round" stroke-opacity="1.0" stroke-width="3.0" />
            <path d=" M 551.442, 732.159 551.754, 729.782 552.959, 719.855 553.407, 716.166 554.520, 706.228 554.947, 702.415 555.971, 692.468 556.375, 688.542 557.311, 678.586 557.690, 674.559 558.542, 664.596 558.894, 660.481 559.662, 650.511 559.985, 646.320 560.672, 636.343 560.965, 632.086 561.571, 622.104 561.833, 617.792 562.360, 607.806 562.590, 603.450 563.038, 593.460 563.235, 589.070 563.605, 579.077 563.769, 574.663 564.061, 564.668 564.191, 560.241 564.406, 550.243 564.501, 545.813 564.638, 535.814 564.699, 531.392 564.747, 523.422 " fill="none" stroke="rgb(0, 0, 0)" stroke-linecap="butt" stroke-linejoin="round" stroke-opacity="1.0" stroke-width="3.0" />
            <path d=" M 454.548, 974.563 456.966, 974.749 461.441, 974.807 465.875, 973.962 470.260, 972.250 474.588, 969.704 478.850, 966.362 483.041, 962.259 487.155, 957.431 491.185, 951.913 495.126, 945.739 498.976, 938.944 502.729, 931.560 506.383, 923.621 509.935, 915.156 513.382, 906.198 516.723, 896.774 519.838, 887.271 519.955, 886.912 522.864, 877.345 523.060, 876.700 523.078, 876.641 525.797, 867.018 526.089, 865.985 528.635, 856.315 528.989, 854.970 531.373, 845.259 531.776, 843.620 534.011, 833.873 534.450, 831.956 536.544, 822.178 537.011, 820.001 537.337, 818.371 " fill="none" stroke="rgb(0, 0, 0)" stroke-linecap="butt" stroke-linejoin="round" stroke-opacity="1.0" stroke-width="3.0" />
            <path d=" M 539.625, 239.982 537.310, 230.253 537.099, 229.366 534.590, 219.686 534.431, 219.071 531.712, 209.448 531.637, 209.181 528.716, 199.724 525.670, 190.727 522.499, 182.219 519.204, 174.230 515.787, 166.790 512.248, 159.932 508.592, 153.689 504.819, 148.093 500.935, 143.179 496.941, 138.983 492.844, 135.539 488.647, 132.883 484.358, 131.050 479.981, 130.076 475.525, 129.997 474.934, 130.108 470.998, 130.845 466.409, 132.654 461.767, 135.455 457.084, 139.278 452.371, 144.150 447.642, 150.096 442.909, 157.136 438.187, 165.289 433.671, 174.211 433.491, 174.567 429.411, 183.697 428.839, 184.978 425.143, 194.270 424.246, 196.527 420.892, 205.947 420.248, 207.754 419.730, 209.209 416.682, 218.733 415.310, 223.017 413.930, 227.798 412.680, 232.131 411.004, 237.936 408.482, 247.612 406.832, 253.942 404.539, 263.676 402.812, 271.007 400.730, 280.788 398.963, 289.092 397.078, 298.913 395.305, 308.155 393.604, 318.010 391.904, 327.864 391.856, 328.143 390.424, 337.409 388.897, 347.292 388.634, 348.995 387.271, 358.902 385.909, 368.809 385.656, 370.646 384.451, 380.573 383.245, 390.500 382.939, 393.021 381.884, 402.966 380.830, 412.910 380.498, 416.040 379.589, 425.999 378.680, 435.958 378.346, 439.617 377.578, 449.588 376.811, 459.558 376.495, 463.660 375.866, 473.640 375.237, 483.620 374.957, 488.072 374.464, 498.060 373.971, 508.048 373.739, 512.755 373.381, 522.749 373.023, 532.742 372.848, 537.606 372.624, 547.603 372.400, 557.601 372.290, 562.519 372.200, 572.519 372.109, 582.519 372.066, 587.392 372.110, 597.392 372.155, 607.392 372.176, 612.119 372.357, 622.117 372.538, 632.116 372.619, 636.597 372.939, 646.592 373.259, 656.587 373.391, 660.727 373.853, 670.716 374.315, 680.705 374.486, 684.409 375.095, 694.391 375.703, 704.372 375.897, 707.553 376.656, 717.524 377.416, 727.495 377.612, 730.070 378.530, 740.028 379.448, 749.986 379.622, 751.878 380.706, 761.819 381.789, 771.760 381.914, 772.902 383.172, 782.822 384.430, 792.743 384.472, 793.072 385.916, 802.967 387.282, 812.329 388.925, 822.193 390.328, 830.616 392.186, 840.442 393.593, 847.889 395.683, 857.669 397.059, 864.109 399.403, 873.830 400.708, 879.243 403.332, 888.893 404.522, 893.269 404.631, 893.623 406.135, 898.520 408.484, 906.169 411.768, 915.614 412.574, 917.933 414.084, 921.752 416.776, 928.557 418.206, 931.714 421.072, 938.043 425.446, 946.399 429.881, 953.636 434.362, 959.771 438.874, 964.825 443.403, 968.822 447.936, 971.789 452.461, 973.754 456.227, 974.586 456.966, 974.749 " fill="none" stroke="rgb(0, 0, 0)" stroke-linecap="butt" stroke-linejoin="round" stroke-opacity="1.0" stroke-width="3.0" />
            <path d=" M 360.907, 535.671 360.846, 537.361 360.621, 547.359 360.396, 557.356 360.286, 562.236 360.199, 572.236 360.112, 582.235 360.070, 587.070 360.077, 588.501 360.128, 598.501 360.179, 608.501 360.196, 611.758 360.387, 621.757 360.578, 631.755 360.663, 636.199 360.841, 641.528 361.175, 651.522 361.365, 657.244 361.467, 660.292 361.947, 670.280 362.169, 674.913 362.449, 680.751 362.602, 683.939 362.702, 685.528 " fill="none" stroke="rgb(0, 0, 0)" stroke-linecap="butt" stroke-linejoin="round" stroke-opacity="1.0" stroke-width="3.0" />
            <path d=" M 473.111, 130.076 468.555, 130.924 463.937, 132.734 459.266, 135.535 454.554, 139.358 449.812, 144.229 445.053, 150.174 440.291, 157.213 435.541, 165.363 431.003, 174.274 430.817, 174.639 426.716, 183.759 426.137, 185.048 422.421, 194.332 421.516, 196.593 418.144, 206.007 416.974, 209.271 413.909, 218.790 412.528, 223.075 410.938, 228.552 408.198, 237.989 408.064, 238.499 405.527, 248.172 404.001, 253.989 401.726, 263.589 399.958, 271.048 397.865, 280.827 396.088, 289.127 394.193, 298.946 392.410, 308.183 390.699, 318.036 388.989, 327.889 388.942, 328.163 387.406, 338.045 385.870, 347.926 385.702, 349.008 384.332, 358.914 382.962, 368.820 382.709, 370.651 381.503, 380.530 380.291, 390.456 379.978, 393.017 378.918, 402.961 377.858, 412.904 377.525, 416.027 376.611, 425.985 375.697, 435.944 375.362, 439.595 374.591, 449.565 373.820, 459.535 373.504, 463.628 372.872, 473.608 372.240, 483.588 371.959, 488.031 371.464, 498.019 370.970, 508.006 370.737, 512.704 370.378, 522.697 370.019, 532.691 369.844, 537.544 369.620, 547.542 369.396, 557.539 369.285, 562.448 369.196, 572.448 369.107, 582.448 369.063, 587.311 369.109, 597.311 369.155, 607.311 369.177, 612.029 369.361, 622.027 369.544, 632.025 369.626, 636.498 369.950, 646.492 370.273, 656.487 370.407, 660.618 370.873, 670.607 371.339, 680.596 371.512, 684.292 372.125, 694.273 372.739, 704.254 372.934, 707.427 373.700, 717.397 374.466, 727.368 374.663, 729.936 375.588, 739.893 376.513, 749.850 376.689, 751.736 377.780, 761.676 378.872, 771.616 378.997, 772.753 380.265, 782.672 381.533, 792.591 381.574, 792.917 383.029, 802.810 384.405, 812.167 386.059, 822.029 387.472, 830.449 389.342, 840.272 390.759, 847.717 392.863, 857.493 394.249, 863.932 396.608, 873.649 397.882, 878.896 397.923, 879.062 400.564, 888.707 401.377, 891.675 401.763, 893.085 404.717, 902.639 404.919, 903.294 405.750, 905.982 409.055, 915.420 409.868, 917.744 411.257, 921.232 414.098, 928.366 418.246, 937.465 418.422, 937.851 422.825, 946.206 427.289, 953.443 431.799, 959.579 436.340, 964.633 440.898, 968.631 445.460, 971.599 450.014, 973.566 454.548, 974.563 " fill="none" stroke="rgb(0, 0, 0)" stroke-linecap="butt" stroke-linejoin="round" stroke-opacity="1.0" stroke-width="3.0" />
            <path d=" M 475.525, 129.997 473.111, 130.076 " fill="none" stroke="rgb(0, 0, 0)" stroke-linecap="butt" stroke-linejoin="round" stroke-opacity="1.0" stroke-width="3.0" />
            <path d=" M 544.914, 242.535 544.141, 238.630 542.039, 228.853 541.662, 227.102 539.388, 217.365 539.053, 215.931 536.590, 206.239 536.311, 205.140 533.644, 195.502 533.437, 194.756 530.545, 185.183 530.431, 184.807 527.294, 175.322 524.025, 166.330 520.625, 157.863 517.096, 149.953 513.439, 142.635 509.657, 135.942 505.751, 129.910 501.725, 124.576 497.583, 119.978 493.328, 116.152 488.967, 113.138 484.503, 110.974 479.945, 109.699 475.300, 109.350 470.498, 109.520 465.714, 110.137 460.859, 111.755 455.944, 114.408 450.980, 118.129 445.980, 122.950 440.956, 128.898 435.924, 135.999 430.900, 144.272 426.227, 153.113 425.898, 153.735 421.680, 162.802 420.937, 164.399 417.121, 173.642 416.036, 176.269 412.575, 185.651 411.213, 189.345 408.070, 198.839 406.487, 203.621 403.632, 213.205 401.881, 219.082 399.285, 228.739 397.413, 235.706 395.056, 245.425 393.106, 253.465 390.968, 263.234 388.979, 272.320 387.045, 282.131 385.111, 291.942 385.055, 292.224 383.311, 302.071 383.018, 303.725 381.353, 313.125 379.789, 323.002 378.224, 332.879 377.894, 334.959 376.499, 344.861 375.104, 354.763 374.696, 357.655 373.463, 367.578 372.230, 377.502 371.778, 381.134 370.700, 391.076 369.622, 401.017 369.157, 405.311 368.228, 415.268 367.300, 425.224 366.846, 430.093 366.064, 440.062 365.281, 450.031 364.861, 455.381 364.221, 465.360 363.570, 475.507 363.213, 481.072 362.712, 491.059 362.212, 501.047 361.910, 507.058 361.548, 517.052 361.186, 527.045 360.962, 533.229 360.907, 535.671 360.682, 545.669 360.457, 555.666 360.372, 559.471 360.316, 565.817 360.229, 575.816 360.143, 585.671 360.194, 595.671 360.245, 605.671 360.276, 611.717 360.467, 621.715 360.658, 631.713 360.769, 637.496 360.899, 641.395 361.232, 651.390 361.412, 656.766 361.616, 662.900 362.096, 672.889 362.504, 681.398 362.549, 682.342 362.702, 685.528 362.812, 687.825 363.442, 697.805 363.527, 699.159 364.157, 709.140 364.348, 712.169 365.133, 722.138 365.918, 732.108 366.212, 735.839 367.160, 745.794 368.107, 755.749 368.392, 758.747 369.510, 768.685 370.628, 778.622 370.874, 780.812 372.172, 790.728 373.469, 800.643 373.642, 801.961 375.130, 811.850 376.619, 821.738 376.678, 822.129 378.371, 831.985 379.094, 836.191 379.965, 841.259 381.879, 851.074 383.484, 859.302 385.638, 869.067 387.215, 876.219 389.632, 885.923 391.139, 891.978 393.845, 901.605 395.237, 906.555 398.264, 916.085 399.487, 919.933 402.875, 929.342 403.871, 932.105 407.666, 941.357 408.368, 943.068 412.628, 952.115 412.962, 952.826 417.633, 961.389 422.364, 968.772 427.138, 974.996 431.939, 980.083 436.754, 984.062 441.567, 986.962 446.366, 988.817 451.138, 989.660 455.948, 990.039 460.624, 989.903 465.253, 988.829 469.826, 986.856 474.335, 984.022 478.771, 980.365 483.128, 975.925 487.401, 970.739 491.583, 964.845 495.670, 958.281 499.658, 951.082 503.543, 943.283 507.322, 934.918 510.993, 926.020 514.552, 916.621 517.849, 907.180 517.999, 906.751 521.075, 897.236 521.332, 896.440 524.206, 886.862 524.549, 885.716 527.238, 876.084 527.651, 874.605 530.168, 864.927 530.635, 863.132 532.994, 853.415 533.502, 851.324 535.713, 841.571 536.250, 839.202 538.324, 829.419 538.881, 826.788 539.776, 822.276 " fill="none" stroke="rgb(0, 0, 0)" stroke-linecap="butt" stroke-linejoin="round" stroke-opacity="1.0" stroke-width="3.0" />
            <path d=" M 553.599, 736.512 554.005, 733.388 555.201, 723.460 555.699, 719.324 556.803, 709.385 557.276, 705.125 558.292, 695.177 558.739, 690.805 559.668, 680.849 560.086, 676.378 560.931, 666.414 561.318, 661.857 562.081, 651.886 562.436, 647.252 563.118, 637.275 563.440, 632.576 564.042, 622.595 564.329, 617.841 564.853, 607.855 565.105, 603.058 565.550, 593.068 565.766, 588.237 566.135, 578.243 566.314, 573.389 566.605, 563.393 566.747, 558.525 566.962, 548.527 567.067, 543.655 567.205, 533.656 567.272, 528.789 567.322, 520.628 " fill="none" stroke="rgb(0, 0, 0)" stroke-linecap="butt" stroke-linejoin="round" stroke-opacity="1.0" stroke-width="3.0" />
            <path d=" M 475.300, 109.350 470.575, 109.966 465.780, 111.582 460.925, 114.235 456.022, 117.957 451.083, 122.779 446.120, 128.729 441.148, 135.832 436.183, 144.109 431.556, 152.973 431.241, 153.576 427.066, 162.663 426.339, 164.245 422.562, 173.505 421.494, 176.122 418.650, 183.927 416.727, 189.207 413.619, 198.711 412.056, 203.491 409.232, 213.084 407.502, 218.962 404.935, 228.627 403.084, 235.598 401.515, 242.146 399.184, 251.871 398.825, 253.369 397.737, 258.399 395.623, 268.173 394.744, 272.237 392.832, 282.052 390.919, 291.867 390.863, 292.156 389.716, 298.703 387.992, 308.554 387.201, 313.072 385.653, 322.952 384.105, 332.831 383.778, 334.922 382.398, 344.827 381.018, 354.731 380.613, 357.635 379.393, 367.561 379.241, 368.792 378.021, 378.717 377.724, 381.133 376.657, 391.076 375.590, 401.019 375.128, 405.329 374.209, 415.286 373.290, 425.244 372.839, 430.130 372.064, 440.100 371.289, 450.070 370.872, 455.438 370.828, 456.117 370.194, 466.097 369.559, 476.077 369.236, 481.150 368.740, 491.138 368.243, 501.125 367.943, 507.157 367.583, 517.150 367.223, 527.144 366.999, 533.348 366.775, 543.346 366.550, 553.343 366.410, 559.611 366.321, 569.611 366.232, 579.610 366.177, 585.832 366.225, 595.832 366.273, 605.832 366.302, 611.898 366.488, 621.896 366.673, 631.895 366.781, 637.697 367.108, 647.692 367.435, 657.687 367.612, 663.121 368.083, 673.110 368.553, 683.099 368.787, 688.064 369.406, 698.045 370.025, 708.026 370.298, 712.427 371.070, 722.397 371.843, 732.367 372.133, 736.114 373.066, 746.070 373.999, 756.027 374.281, 759.038 375.382, 768.977 376.483, 778.916 376.727, 781.118 378.005, 791.036 379.284, 800.954 379.455, 802.281 380.922, 812.173 382.390, 822.064 382.449, 822.461 384.119, 832.321 384.643, 835.414 385.691, 841.603 386.070, 843.573 387.958, 853.393 389.162, 859.657 391.287, 869.428 392.433, 874.696 392.843, 876.583 393.655, 879.890 396.040, 889.602 396.715, 892.349 399.387, 901.986 400.753, 906.912 400.758, 906.933 403.749, 916.475 404.953, 920.317 408.301, 929.740 409.280, 932.493 413.033, 941.762 413.455, 942.806 413.720, 943.459 417.933, 952.528 418.254, 953.219 422.865, 961.783 427.535, 969.167 432.249, 975.390 436.990, 980.476 441.744, 984.452 446.496, 987.349 451.235, 989.200 455.948, 990.039 " fill="none" stroke="rgb(0, 0, 0)" stroke-linecap="butt" stroke-linejoin="round" stroke-opacity="1.0" stroke-width="3.0" />
            <path d=" M 565.295, 523.431 565.292, 521.807 565.316, 520.592 565.325, 520.171 565.394, 518.553 565.428, 518.038 565.498, 516.981 565.636, 515.481 565.804, 514.079 566.000, 512.799 566.200, 511.771 566.220, 511.663 566.461, 510.690 566.719, 509.897 566.988, 509.295 567.265, 508.895 567.354, 508.834 567.544, 508.703 " fill="none" stroke="rgb(0, 0, 0)" stroke-linecap="butt" stroke-linejoin="round" stroke-opacity="1.0" stroke-width="3.0" />
            <path d=" M 567.994, 520.640 567.979, 520.142 567.951, 519.672 567.910, 519.244 567.856, 518.869 567.791, 518.557 567.717, 518.316 567.636, 518.154 567.550, 518.075 " fill="none" stroke="rgb(0, 0, 0)" stroke-linecap="butt" stroke-linejoin="round" stroke-opacity="1.0" stroke-width="3.0" />
            <path d=" M 530.579, 472.839 530.681, 478.463 530.949, 478.466 536.254, 478.532 536.461, 478.369 536.218, 472.857 530.832, 472.649 530.688, 472.758 530.579, 472.839 " fill="none" stroke="rgb(0, 0, 0)" stroke-linecap="butt" stroke-linejoin="round" stroke-opacity="1.0" stroke-width="3.0" />
            <path d=" M 536.157, 472.904 530.579, 472.839 " fill="none" stroke="rgb(0, 0, 0)" stroke-linecap="butt" stroke-linejoin="round" stroke-opacity="1.0" stroke-width="3.0" />
            <path d=" M 536.254, 478.532 536.157, 472.904 536.218, 472.857 " fill="none" stroke="rgb(0, 0, 0)" stroke-linecap="butt" stroke-linejoin="round" stroke-opacity="1.0" stroke-width="3.0" />
            <path d=" M 532.468, 475.066 532.456, 475.083 532.357, 475.278 532.297, 475.487 532.280, 475.705 532.308, 475.934 532.380, 476.147 532.491, 476.338 532.508, 476.364 532.650, 476.525 532.820, 476.654 532.855, 476.670 533.037, 476.758 533.076, 476.768 533.253, 476.810 533.280, 476.815 533.313, 476.818 533.351, 476.821 533.394, 476.822 533.436, 476.822 533.478, 476.820 533.519, 476.818 533.556, 476.814 533.589, 476.810 533.617, 476.804 533.664, 476.791 533.738, 476.771 533.759, 476.765 533.790, 476.757 533.831, 476.745 " fill="none" stroke="rgb(0, 0, 0)" stroke-linecap="butt" stroke-linejoin="round" stroke-opacity="1.0" stroke-width="3.0" />
            <path d=" M 533.898, 476.714 534.036, 476.639 534.162, 476.544 534.272, 476.432 534.366, 476.305 534.439, 476.165 534.492, 476.015 534.523, 475.859 534.532, 475.699 534.518, 475.538 534.481, 475.381 534.423, 475.230 534.344, 475.088 534.247, 474.958 534.132, 474.844 534.003, 474.746 533.862, 474.667 533.712, 474.609 533.556, 474.573 533.397, 474.560 533.238, 474.570 533.083, 474.602 532.935, 474.656 532.797, 474.732 532.671, 474.826 532.561, 474.938 532.468, 475.066 " fill="none" stroke="rgb(0, 0, 0)" stroke-linecap="butt" stroke-linejoin="round" stroke-opacity="1.0" stroke-width="3.0" />
            <path d=" M 533.664, 476.791 533.750, 476.769 533.831, 476.745 533.898, 476.714 " fill="none" stroke="rgb(0, 0, 0)" stroke-linecap="butt" stroke-linejoin="round" stroke-opacity="1.0" stroke-width="3.0" />
            <path d=" M 630.865, 876.952 633.033, 877.435 640.947, 878.487 648.846, 878.807 656.712, 878.413 664.531, 877.322 672.286, 875.556 679.964, 873.134 687.552, 870.077 695.037, 866.408 702.408, 862.147 709.654, 857.317 716.765, 851.939 723.732, 846.036 730.546, 839.630 737.200, 832.742 743.687, 825.394 749.999, 817.606 755.985, 809.596 756.131, 809.401 761.817, 801.175 762.077, 800.799 767.472, 792.379 767.832, 791.819 772.948, 783.227 773.391, 782.482 778.237, 773.734 778.751, 772.806 783.335, 763.919 783.907, 762.812 788.239, 753.799 788.856, 752.517 792.944, 743.391 793.594, 741.939 797.446, 732.711 798.120, 731.097 801.742, 721.776 802.429, 720.007 805.828, 710.603 806.521, 708.687 809.702, 699.207 810.392, 697.152 813.361, 687.603 814.040, 685.420 816.802, 675.809 817.464, 673.505 820.023, 663.838 820.662, 661.423 823.022, 651.706 823.633, 649.190 825.796, 639.427 826.374, 636.820 828.344, 627.016 828.885, 624.328 830.665, 614.488 831.164, 611.728 832.755, 601.855 833.210, 599.035 834.614, 589.134 835.022, 586.262 836.240, 576.336 836.598, 573.423 837.632, 563.477 837.938, 560.533 838.788, 550.569 839.040, 547.605 839.706, 537.628 839.904, 534.653 840.385, 524.665 840.529, 521.691 840.825, 511.695 840.912, 508.731 841.022, 498.732 841.055, 495.789 840.977, 485.790 840.955, 482.879 840.688, 472.882 840.611, 470.013 840.153, 460.023 840.023, 457.206 839.371, 447.228 839.191, 444.474 838.341, 434.510 838.112, 431.829 837.061, 421.885 836.787, 419.289 835.531, 409.368 835.215, 406.866 833.749, 396.974 833.394, 394.578 831.714, 384.720 831.326, 382.439 829.425, 372.621 829.008, 370.467 826.881, 360.695 826.442, 358.677 824.081, 348.959 823.626, 347.086 821.024, 337.431 820.561, 335.713 817.710, 326.128 817.247, 324.575 814.137, 315.071 813.685, 313.689 810.306, 304.278 809.875, 303.076 806.217, 293.770 805.818, 292.755 801.869, 283.568 801.515, 282.745 797.263, 273.693 796.968, 273.066 792.400, 264.170 792.179, 263.739 787.282, 255.020 787.150, 254.786 781.884, 246.228 776.385, 238.088 770.656, 230.387 764.701, 223.149 758.525, 216.397 752.135, 210.154 745.537, 204.444 738.737, 199.291 731.745, 194.717 724.568, 190.747 717.216, 187.404 709.701, 184.711 702.033, 182.690 694.225, 181.363 686.292, 180.752 678.248, 180.875 676.021, 181.073 " fill="none" stroke="rgb(0, 0, 0)" stroke-linecap="butt" stroke-linejoin="round" stroke-opacity="1.0" stroke-width="3.0" />
            <path d=" M 633.033, 877.435 630.982, 876.968 625.122, 875.633 617.231, 873.067 609.380, 869.723 601.590, 865.589 593.881, 860.655 586.276, 854.915 578.796, 848.362 571.743, 841.274 571.466, 840.996 564.880, 833.470 564.307, 832.815 558.185, 824.908 557.345, 823.824 551.675, 815.587 550.603, 814.030 545.372, 805.507 544.105, 803.442 543.555, 802.438 541.245, 798.222 539.815, 795.614 537.877, 792.076 535.259, 786.728 533.826, 783.800 531.941, 779.948 529.377, 774.078 529.335, 773.981 526.322, 767.081 526.314, 767.061 522.691, 757.741 521.042, 753.499 519.717, 749.655 516.459, 740.201 516.125, 739.231 513.218, 729.663 511.592, 724.312 510.228, 719.181 507.659, 709.517 507.463, 708.778 505.221, 699.032 503.757, 692.669 501.833, 682.856 500.494, 676.031 498.876, 666.163 497.688, 658.911 496.370, 648.999 495.354, 641.361 494.328, 631.414 493.505, 623.434 492.766, 613.461 492.152, 605.187 491.693, 595.198 491.301, 586.680 491.119, 576.682 490.960, 567.973 491.052, 557.973 491.132, 549.129 491.495, 539.135 491.818, 530.211 492.450, 520.231 492.509, 519.306 493.017, 511.285 493.082, 510.561 493.314, 507.996 494.215, 498.037 494.724, 492.413 495.894, 482.482 496.934, 473.661 498.375, 463.766 499.638, 455.092 501.352, 445.240 502.825, 436.768 504.814, 426.968 506.482, 418.750 508.750, 409.011 510.436, 401.775 510.594, 401.096 513.146, 391.427 515.143, 383.863 517.985, 374.275 520.110, 367.103 523.248, 357.608 525.476, 350.868 528.638, 342.239 531.217, 335.204 534.970, 325.935 537.311, 320.154 537.624, 319.452 540.647, 312.674 542.094, 309.431 543.732, 305.759 545.398, 302.365 546.780, 299.548 548.264, 296.524 549.715, 293.566 550.068, 292.847 550.457, 292.054 550.772, 291.471 552.748, 287.807 557.459, 279.070 558.085, 278.015 563.185, 269.413 564.712, 266.836 570.177, 258.461 572.190, 255.376 575.182, 251.218 575.182, 251.217 575.334, 251.006 579.865, 244.709 586.092, 236.885 587.711, 234.851 594.336, 227.360 595.702, 225.814 602.732, 218.701 603.813, 217.607 611.251, 210.923 612.017, 210.234 619.864, 204.035 620.291, 203.697 628.610, 197.995 636.950, 193.123 645.291, 189.073 653.611, 185.836 661.890, 183.401 670.108, 181.752 676.480, 181.066 678.248, 180.875 " fill="none" stroke="rgb(0, 0, 0)" stroke-linecap="butt" stroke-linejoin="round" stroke-opacity="1.0" stroke-width="3.0" />
            <path d=" M 676.021, 181.073 667.870, 181.951 659.641, 183.599 651.352, 186.034 643.021, 189.269 634.670, 193.316 626.320, 198.185 617.991, 203.883 610.139, 210.075 609.709, 210.414 602.264, 217.091 601.495, 217.781 594.459, 224.887 593.376, 225.980 586.745, 233.465 585.377, 235.009 579.142, 242.827 577.523, 244.857 573.227, 250.817 573.189, 250.870 573.188, 250.871 569.841, 255.514 564.369, 263.884 562.357, 266.963 557.250, 275.560 555.097, 279.184 552.235, 284.480 549.914, 288.776 549.186, 290.124 549.179, 290.137 548.090, 292.153 547.700, 292.946 543.288, 301.921 542.646, 303.227 541.457, 305.647 541.360, 305.844 540.019, 308.844 535.939, 317.973 535.547, 318.850 534.933, 320.224 531.174, 329.490 528.835, 335.257 527.860, 337.912 526.285, 342.201 524.817, 346.199 523.090, 350.903 519.948, 360.397 517.722, 367.120 514.876, 376.707 512.752, 383.861 510.196, 393.529 508.201, 401.075 505.929, 410.813 504.088, 418.708 502.096, 428.508 500.430, 436.706 498.714, 446.558 497.242, 455.009 496.820, 457.908 495.377, 467.803 494.539, 473.557 493.772, 480.057 492.601, 489.988 492.329, 492.287 491.428, 502.246 491.192, 504.849 490.956, 507.466 490.679, 510.522 490.623, 511.137 490.269, 516.734 490.109, 519.263 489.948, 521.812 489.427, 530.042 489.065, 540.035 488.743, 548.938 488.653, 558.937 488.574, 567.760 488.758, 577.758 488.918, 586.446 489.380, 596.435 489.773, 604.933 490.516, 614.905 491.131, 623.159 492.160, 633.106 492.984, 641.067 494.307, 650.979 495.323, 658.598 496.945, 668.466 498.135, 675.700 500.065, 685.512 501.404, 692.321 503.652, 702.065 504.546, 705.939 505.116, 708.413 507.691, 718.076 509.252, 723.932 509.392, 724.392 512.306, 733.958 513.793, 738.836 517.058, 748.288 517.294, 748.971 518.717, 753.090 522.348, 762.408 524.005, 766.660 525.693, 770.516 528.749, 777.499 529.633, 779.516 533.253, 786.895 534.672, 789.789 535.577, 791.633 539.292, 798.397 540.724, 801.005 541.815, 802.990 543.074, 805.037 548.321, 813.570 554.000, 821.801 555.073, 823.357 561.203, 831.257 562.045, 832.342 568.637, 839.861 569.213, 840.518 576.274, 847.600 576.554, 847.881 584.044, 854.430 591.660, 860.169 599.379, 865.101 607.180, 869.235 615.041, 872.580 622.943, 875.148 630.865, 876.952 " fill="none" stroke="rgb(0, 0, 0)" stroke-linecap="butt" stroke-linejoin="round" stroke-opacity="1.0" stroke-width="3.0" />
            <path d=" M 787.671, 562.382 777.683, 561.875 776.919, 561.837 772.563, 559.232 763.979, 554.102 755.396, 548.971 753.770, 547.998 753.096, 547.595 752.422, 547.192 751.747, 546.787 751.071, 546.383 750.291, 545.777 749.567, 544.932 748.914, 543.863 748.346, 542.591 747.874, 541.139 747.508, 539.535 747.254, 537.811 747.118, 535.998 747.102, 534.132 747.206, 532.250 747.242, 531.947 747.308, 531.400 747.429, 530.387 747.766, 528.579 748.038, 527.533 748.211, 526.863 748.755, 525.270 749.387, 523.831 749.418, 523.776 750.094, 522.575 750.864, 521.524 751.127, 521.258 751.177, 521.208 751.681, 520.698 752.528, 520.112 753.248, 519.725 753.968, 519.339 754.686, 518.953 755.404, 518.567 755.764, 518.374 756.518, 517.969 756.800, 517.818 765.613, 513.093 774.426, 508.367 780.097, 505.326 " fill="none" stroke="rgb(0, 0, 0)" stroke-linecap="butt" stroke-linejoin="round" stroke-opacity="1.0" stroke-width="3.0" />
            <path d=" M 686.683, 257.782 679.495, 257.892 678.326, 257.910 674.667, 258.327 669.885, 258.872 661.384, 260.679 656.636, 262.158 652.849, 263.337 644.306, 266.838 635.781, 271.180 627.304, 276.381 619.203, 282.244 618.911, 282.456 611.254, 288.888 610.635, 289.407 603.431, 296.342 602.511, 297.227 595.756, 304.600 594.569, 305.896 588.253, 313.649 586.838, 315.385 580.946, 323.465 579.344, 325.661 573.870, 334.029 572.122, 336.702 567.066, 345.330 565.212, 348.495 564.511, 349.831 564.064, 350.683 560.830, 356.852 560.824, 356.863 558.650, 361.008 558.116, 362.149 557.728, 362.979 556.566, 365.460 553.468, 372.078 552.472, 374.205 551.936, 375.489 550.966, 377.817 549.409, 381.549 546.705, 388.034 543.239, 397.396 541.704, 401.543 541.371, 402.441 538.260, 411.945 537.956, 412.876 536.487, 417.362 533.727, 426.974 532.071, 432.740 529.663, 442.446 529.087, 444.770 528.156, 448.524 526.101, 458.310 524.769, 464.654 523.065, 474.508 521.931, 481.066 520.576, 490.973 519.657, 497.689 518.688, 507.203 518.580, 508.268 518.329, 510.733 517.950, 514.451 517.274, 524.428 516.915, 529.719 516.809, 531.281 516.463, 541.276 516.224, 548.190 516.194, 558.190 516.173, 565.019 516.462, 575.015 516.655, 581.699 517.267, 591.680 517.665, 598.157 518.608, 608.112 519.196, 614.325 520.477, 624.243 520.525, 624.614 521.238, 630.139 522.240, 636.222 523.776, 645.534 525.760, 655.335 526.796, 660.450 528.340, 666.826 530.279, 674.831 533.016, 684.449 534.205, 688.627 536.640, 696.001 536.934, 696.890 537.117, 697.446 538.333, 701.128 538.552, 701.790 539.688, 704.779 543.240, 714.127 543.296, 714.275 544.121, 716.172 545.602, 719.579 545.614, 719.608 547.049, 722.909 548.413, 726.045 549.974, 729.195 550.692, 730.646 551.442, 732.159 553.599, 736.512 553.874, 737.067 558.788, 745.777 559.654, 747.312 565.062, 755.724 565.725, 756.755 571.644, 764.815 572.058, 765.379 578.503, 773.025 578.624, 773.168 585.396, 780.111 592.345, 786.202 599.443, 791.441 606.662, 795.827 613.976, 799.366 615.978, 800.098 621.360, 802.065 628.787, 803.937 636.234, 804.995 643.678, 805.254 651.097, 804.732 658.470, 803.451 665.777, 801.431 672.999, 798.693 680.120, 795.263 687.123, 791.166 693.992, 786.426 700.713, 781.068 707.273, 775.122 713.660, 768.612 719.862, 761.563 725.869, 754.005 731.671, 745.964 737.165, 737.608 737.259, 737.465 742.410, 728.893 742.626, 728.534 747.447, 719.773 747.763, 719.199 752.268, 710.271 752.665, 709.484 756.864, 700.409 757.324, 699.415 761.229, 690.209 761.735, 689.017 765.357, 679.696 765.893, 678.314 769.240, 668.891 769.794, 667.332 772.874, 657.818 773.432, 656.092 776.253, 646.498 776.805, 644.620 779.372, 634.955 779.908, 632.938 782.228, 623.211 782.739, 621.069 784.816, 611.287 785.294, 609.036 787.132, 599.206 787.571, 596.861 789.174, 586.991 789.567, 584.568 790.937, 574.662 791.280, 572.176 792.419, 562.241 792.709, 559.708 793.617, 549.750 793.851, 547.187 794.531, 537.211 794.596, 536.252 " fill="none" stroke="rgb(0, 0, 0)" stroke-linecap="butt" stroke-linejoin="round" stroke-opacity="1.0" stroke-width="3.0" />
            <path d=" M 780.097, 505.326 790.063, 506.148 790.838, 506.212 " fill="none" stroke="rgb(0, 0, 0)" stroke-linecap="butt" stroke-linejoin="round" stroke-opacity="1.0" stroke-width="3.0" />
            <path d=" M 825.017, 521.503 825.201, 511.504 825.206, 511.238 825.127, 501.238 825.107, 498.590 824.762, 488.596 824.672, 486.000 824.056, 476.019 823.900, 473.490 823.011, 463.529 822.793, 461.084 822.212, 456.124 821.355, 448.802 819.919, 438.906 819.594, 436.665 817.876, 426.813 817.507, 424.695 815.494, 414.900 815.088, 412.923 812.767, 403.196 812.334, 401.378 809.695, 391.732 809.245, 390.088 806.279, 380.538 805.825, 379.077 802.524, 369.637 802.080, 368.368 798.440, 359.054 798.019, 357.978 794.031, 348.807 793.649, 347.928 789.292, 338.926 788.967, 338.254 784.222, 329.451 783.975, 328.991 778.824, 320.419 778.676, 320.173 773.078, 311.828 767.191, 303.980 761.026, 296.646 754.597, 289.841 747.910, 283.601 740.974, 277.968 733.801, 272.977 726.404, 268.658 719.357, 265.300 718.800, 265.034 711.007, 262.119 703.044, 259.921 694.929, 258.462 686.683, 257.782 " fill="none" stroke="rgb(0, 0, 0)" stroke-linecap="butt" stroke-linejoin="round" stroke-opacity="1.0" stroke-width="3.0" />
            <path d=" M 656.636, 262.158 662.896, 265.092 669.056, 268.751 675.034, 273.086 680.817, 278.076 686.395, 283.688 691.759, 289.887 696.905, 296.631 701.826, 303.886 706.514, 311.634 710.960, 319.859 715.156, 328.538 719.098, 337.642 722.715, 346.965 722.783, 347.140 726.069, 356.584 726.212, 356.995 729.189, 366.542 729.387, 367.175 732.067, 376.809 732.303, 377.657 734.693, 387.368 734.954, 388.427 737.063, 398.202 737.335, 399.463 739.174, 409.292 739.445, 410.741 741.024, 420.616 741.283, 422.235 742.616, 432.146 742.854, 433.917 743.951, 443.856 744.161, 445.759 745.032, 455.721 745.208, 457.737 745.853, 467.717 745.990, 469.836 746.409, 479.827 746.502, 482.034 746.699, 492.032 746.744, 494.311 746.722, 504.311 746.717, 506.644 746.570, 512.884 746.391, 514.094 746.158, 515.272 745.871, 516.407 745.534, 517.486 745.151, 518.498 744.724, 519.434 744.259, 520.281 743.761, 521.033 743.234, 521.680 742.684, 522.217 742.117, 522.636 741.539, 522.935 740.956, 523.109 740.373, 523.158 734.242, 523.011 " fill="none" stroke="rgb(0, 0, 0)" stroke-linecap="butt" stroke-linejoin="round" stroke-opacity="1.0" stroke-width="3.0" />
            <path d=" M 800.244, 536.205 800.977, 536.252 803.231, 536.397 812.732, 536.492 814.667, 536.511 822.448, 536.589 824.399, 536.608 824.417, 536.608 830.511, 536.714 830.954, 526.723 831.099, 523.437 831.285, 513.439 831.345, 510.170 831.271, 500.171 831.247, 496.936 830.912, 486.942 830.805, 483.758 830.203, 473.776 830.016, 470.659 829.146, 460.697 828.881, 457.664 827.737, 447.730 827.399, 444.796 825.976, 434.898 825.571, 432.080 823.862, 422.228 823.396, 419.541 821.394, 409.744 820.876, 407.203 818.573, 397.472 818.010, 395.093 815.398, 385.440 814.801, 383.236 813.848, 380.129 811.250, 371.659 807.988, 362.206 807.360, 360.387 806.886, 359.160 803.281, 349.833 803.134, 349.450 799.174, 340.268 798.574, 338.876 794.246, 329.861 793.685, 328.691 788.976, 319.869 788.472, 318.925 783.367, 310.326 782.940, 309.607 780.652, 306.146 777.096, 300.767 774.562, 297.333 770.947, 292.434 764.575, 284.727 764.501, 284.638 757.768, 277.410 750.758, 270.780 743.482, 264.776 735.955, 259.430 728.189, 254.771 720.200, 250.826 712.006, 247.625 703.624, 245.193 695.076, 243.559 686.381, 242.743 677.564, 242.769 667.564, 242.776 659.603, 242.782 " fill="none" stroke="rgb(0, 0, 0)" stroke-linecap="butt" stroke-linejoin="round" stroke-opacity="1.0" stroke-width="3.0" />
            <path d=" M 677.564, 242.769 672.202, 243.304 668.650, 243.658 660.725, 245.219 659.663, 245.428 650.633, 248.092 641.587, 251.664 632.558, 256.154 623.992, 261.314 623.576, 261.565 615.428, 267.362 614.674, 267.899 606.963, 274.266 605.887, 275.154 598.622, 282.025 597.249, 283.323 590.431, 290.639 588.796, 292.393 582.422, 300.099 580.562, 302.347 574.628, 310.396 572.586, 313.166 567.081, 321.514 564.902, 324.820 560.965, 331.487 560.430, 332.393 558.711, 335.303 557.545, 337.277 555.890, 340.406 554.342, 343.334 550.551, 350.499 548.503, 354.831 546.948, 358.118 543.954, 364.447 540.068, 373.661 537.786, 379.070 535.114, 386.206 532.077, 394.315 528.942, 403.811 526.857, 410.127 524.087, 419.736 522.154, 426.445 519.742, 436.149 517.989, 443.201 515.930, 452.987 514.386, 460.329 512.677, 470.182 511.363, 477.757 510.000, 487.664 508.935, 495.411 507.917, 505.359 507.423, 510.187 507.114, 513.215 506.441, 523.192 505.908, 531.093 " fill="none" stroke="rgb(0, 0, 0)" stroke-linecap="butt" stroke-linejoin="round" stroke-opacity="1.0" stroke-width="3.0" />
            <path d=" M 756.800, 517.818 756.861, 516.820 756.807, 517.034 756.518, 517.969 " fill="none" stroke="rgb(0, 0, 0)" stroke-linecap="butt" stroke-linejoin="round" stroke-opacity="1.0" stroke-width="3.0" />
            <path d=" M 807.114, 527.363 808.129, 527.384 808.642, 527.339 809.156, 527.184 809.668, 526.922 810.172, 526.556 810.664, 526.090 811.141, 525.529 811.599, 524.878 812.035, 524.142 812.445, 523.327 812.826, 522.441 813.175, 521.489 813.489, 520.479 813.533, 520.310 813.767, 519.418 814.004, 518.316 823.210, 520.980 825.017, 521.503 824.822, 522.163 824.475, 523.120 824.097, 524.011 823.690, 524.830 823.258, 525.570 822.995, 525.949 822.804, 526.225 822.331, 526.789 821.843, 527.258 821.344, 527.626 820.838, 527.890 820.328, 528.046 819.820, 528.091 813.678, 527.970 807.276, 527.845 807.114, 527.363 806.827, 526.513 806.288, 525.344 805.669, 524.359 804.980, 523.573 804.231, 523.001 803.436, 522.653 802.607, 522.536 799.156, 522.333 798.573, 522.299 790.734, 521.840 790.563, 521.863 789.879, 521.954 789.019, 522.298 788.205, 522.869 788.066, 523.015 787.452, 523.659 786.740, 524.653 786.079, 525.834 785.481, 527.182 784.958, 528.674 784.517, 530.286 784.166, 531.990 783.912, 533.755 783.760, 535.553 789.673, 535.934 789.909, 535.949 794.596, 536.252 795.683, 536.322 799.985, 536.365 800.229, 536.367 800.244, 536.205 800.281, 535.796 800.292, 535.730 800.374, 535.241 800.430, 535.014 800.502, 534.725 800.503, 534.718 800.667, 534.240 800.859, 533.821 800.966, 533.648 801.075, 533.472 801.309, 533.202 801.554, 533.020 801.804, 532.929 802.052, 532.933 " fill="none" stroke="rgb(0, 0, 0)" stroke-linecap="butt" stroke-linejoin="round" stroke-opacity="1.0" stroke-width="3.0" />
            <path d=" M 772.563, 559.232 771.406, 569.165 771.255, 570.460 769.858, 580.362 769.525, 582.722 767.887, 592.587 767.505, 594.886 765.623, 604.707 765.197, 606.929 763.069, 616.700 762.605, 618.830 760.226, 628.543 759.731, 630.566 757.096, 640.213 756.577, 642.115 753.684, 651.687 753.149, 653.454 749.990, 662.942 749.451, 664.561 746.018, 673.953 745.485, 675.410 741.771, 684.695 741.257, 685.980 737.254, 695.144 736.773, 696.246 732.471, 705.273 732.037, 706.184 727.426, 715.057 727.056, 715.768 722.124, 724.468 721.836, 724.975 716.573, 733.478 716.386, 733.780 710.777, 742.059 710.711, 742.156 704.821, 750.077 698.726, 757.518 692.435, 764.454 685.958, 770.856 679.308, 776.699 672.498, 781.959 665.541, 786.609 658.451, 790.622 651.244, 793.975 643.937, 796.644 636.547, 798.605 629.094, 799.834 621.597, 800.314 615.978, 800.098 " fill="none" stroke="rgb(0, 0, 0)" stroke-linecap="butt" stroke-linejoin="round" stroke-opacity="1.0" stroke-width="3.0" />
            <path d=" M 789.909, 535.949 789.230, 545.926 789.167, 546.846 788.208, 556.800 787.671, 562.382 779.117, 557.202 777.466, 556.202 773.112, 553.565 765.259, 548.810 764.592, 548.405 763.924, 548.000 763.255, 547.595 762.586, 547.189 761.813, 546.581 761.096, 545.732 760.450, 544.659 759.888, 543.381 759.422, 541.923 759.061, 540.312 758.811, 538.579 758.697, 537.016 758.678, 536.757 758.664, 534.882 758.769, 532.991 758.857, 532.252 758.992, 531.118 759.155, 530.240 759.328, 529.302 759.771, 527.577 760.311, 525.976 760.939, 524.530 761.642, 523.266 762.406, 522.209 763.217, 521.379 764.057, 520.790 764.770, 520.400 765.484, 520.011 766.197, 519.623 766.908, 519.235 767.266, 519.040 776.049, 514.260 780.001, 512.110 788.784, 507.330 790.838, 506.212 790.686, 516.211 790.664, 517.705 790.563, 521.863 " fill="none" stroke="rgb(0, 0, 0)" stroke-linecap="butt" stroke-linejoin="round" stroke-opacity="1.0" stroke-width="3.0" />
            <path d=" M 764.572, 537.402 764.265, 537.252 763.985, 536.959 763.747, 536.537 763.560, 536.004 763.432, 535.384 763.370, 534.704 763.376, 533.993 763.449, 533.283 763.587, 532.606 763.599, 532.567 763.689, 532.287 763.784, 531.990 764.030, 531.462 764.315, 531.047 764.626, 530.761 764.950, 530.618 765.272, 530.625 " fill="none" stroke="rgb(0, 0, 0)" stroke-linecap="butt" stroke-linejoin="round" stroke-opacity="1.0" stroke-width="3.0" />
            <path d=" M 765.272, 530.625 765.579, 530.778 765.857, 531.073 766.095, 531.495 766.281, 532.027 766.407, 532.645 766.417, 532.755 766.469, 533.323 766.463, 534.031 766.390, 534.738 766.253, 535.414 766.057, 536.029 765.812, 536.555 765.528, 536.971 765.218, 537.259 764.894, 537.404 764.572, 537.402 " fill="none" stroke="rgb(0, 0, 0)" stroke-linecap="butt" stroke-linejoin="round" stroke-opacity="1.0" stroke-width="3.0" />
            <path d=" M 799.985, 536.365 799.307, 546.341 799.205, 547.838 798.297, 557.797 798.010, 560.944 796.874, 570.880 796.518, 573.996 795.151, 583.902 794.728, 586.971 793.130, 596.842 792.643, 599.847 790.811, 609.678 790.265, 612.602 788.195, 622.385 787.597, 625.213 785.285, 634.942 784.640, 637.658 782.082, 647.325 781.397, 649.912 778.587, 659.510 777.872, 661.954 774.804, 671.472 774.067, 673.759 770.734, 683.187 769.987, 685.302 766.381, 694.629 765.635, 696.559 761.747, 705.772 761.016, 707.504 756.836, 716.589 756.135, 718.113 751.652, 727.052 750.998, 728.357 746.201, 737.132 745.610, 738.212 740.486, 746.800 739.979, 747.651 734.514, 756.026 734.111, 756.644 728.292, 764.777 728.015, 765.165 721.829, 773.022 721.700, 773.186 715.176, 780.678 708.453, 787.611 701.543, 793.958 694.458, 799.691 687.213, 804.781 679.821, 809.197 672.299, 812.915 664.665, 815.908 656.936, 818.147 649.132, 819.608 641.274, 820.269 633.383, 820.106 625.484, 819.099 617.600, 817.230 609.758, 814.484 601.983, 810.848 594.305, 806.310 586.750, 800.867 579.348, 794.515 572.299, 787.422 572.131, 787.254 565.620, 779.663 565.128, 779.089 559.147, 771.075 558.369, 770.033 552.903, 761.658 551.885, 760.098 550.695, 758.019 548.454, 754.103 546.954, 751.482 545.708, 749.305 542.466, 742.849 540.972, 739.875 539.868, 737.678 536.486, 730.000 534.393, 725.248 533.333, 722.496 529.741, 713.163 529.312, 712.050 526.140, 702.566 524.654, 698.122 521.885, 688.513 520.443, 683.513 518.061, 673.801 516.740, 668.418 516.704, 668.272 514.695, 658.476 513.460, 652.455 511.811, 642.591 510.730, 636.120 509.431, 626.205 508.531, 619.333 507.572, 609.380 506.877, 602.163 506.251, 592.182 505.781, 584.678 505.483, 574.682 505.252, 566.954 505.275, 556.954 505.293, 549.066 505.635, 539.072 505.908, 531.093 504.355, 521.214 502.962, 512.352 " fill="none" stroke="rgb(0, 0, 0)" stroke-linecap="butt" stroke-linejoin="round" stroke-opacity="1.0" stroke-width="3.0" />
            <path d=" M 659.603, 242.782 655.974, 243.160 651.522, 243.624 643.365, 245.345 635.157, 247.960 626.926, 251.483 618.698, 255.926 610.502, 261.293 602.593, 267.412 602.369, 267.586 594.929, 274.267 594.331, 274.804 587.359, 281.973 586.418, 282.941 579.909, 290.532 578.664, 291.984 572.607, 299.941 571.102, 301.917 565.484, 310.190 563.766, 312.720 558.681, 321.088 558.096, 322.050 557.375, 323.236 556.689, 324.365 554.498, 328.387 552.958, 331.213 549.904, 336.818 547.011, 342.739 545.467, 345.901 543.444, 350.042 539.436, 359.204 537.341, 363.996 533.703, 373.311 533.527, 373.761 531.625, 378.629 528.344, 388.076 526.326, 393.888 523.393, 403.448 521.471, 409.716 518.878, 419.374 517.086, 426.050 514.826, 435.791 513.194, 442.824 511.260, 452.635 509.814, 459.968 508.203, 469.838 506.966, 477.411 505.674, 487.327 504.664, 495.078 503.683, 505.030 503.097, 510.979 502.962, 512.352 500.610, 522.072 498.512, 530.738 " fill="none" stroke="rgb(0, 0, 0)" stroke-linecap="butt" stroke-linejoin="round" stroke-opacity="1.0" stroke-width="3.0" />
            <path d=" M 497.882, 549.292 497.862, 559.292 497.846, 567.757 498.150, 577.752 498.402, 586.049 499.034, 596.029 499.545, 604.091 500.513, 614.044 501.267, 621.802 502.577, 631.716 503.554, 639.111 505.215, 648.972 506.390, 655.945 508.415, 665.738 509.759, 672.238 512.160, 681.945 513.639, 687.926 514.264, 690.077 517.055, 699.680 518.006, 702.954 521.202, 712.430 522.834, 717.269 526.455, 726.591 528.098, 730.823 531.157, 737.705 533.767, 743.575 534.341, 744.707 538.865, 753.626 538.910, 753.716 539.811, 755.491 540.410, 756.528 545.019, 764.498 546.199, 766.539 546.518, 767.023 548.842, 770.544 552.901, 776.694 558.928, 784.674 559.883, 785.939 566.443, 793.487 567.114, 794.259 574.214, 801.301 574.561, 801.644 582.193, 808.090 589.979, 813.599 597.889, 818.173 605.893, 821.820 613.963, 824.553 622.070, 826.386 630.190, 827.335 638.297, 827.420 646.367, 826.664 654.378, 825.091 662.310, 822.724 670.141, 819.590 677.854, 815.718 685.432, 811.135 692.858, 805.869 700.118, 799.949 707.198, 793.406 714.085, 786.269 720.637, 778.715 720.767, 778.565 726.942, 770.699 727.235, 770.326 733.045, 762.186 733.478, 761.580 738.936, 753.201 739.487, 752.355 744.607, 743.765 745.254, 742.679 750.049, 733.904 750.772, 732.582 755.255, 723.643 756.034, 722.089 760.216, 713.005 761.034, 711.228 764.925, 702.016 765.766, 700.024 769.376, 690.698 770.225, 688.505 773.562, 679.079 774.406, 676.696 777.479, 667.179 778.306, 664.620 781.121, 655.024 781.919, 652.303 784.484, 642.637 785.245, 639.770 787.562, 630.042 788.277, 627.043 790.353, 617.261 791.014, 614.146 792.852, 604.316 793.453, 601.103 795.056, 591.232 795.592, 587.935 796.962, 578.030 797.428, 574.667 798.567, 564.732 798.958, 561.319 799.868, 551.361 800.183, 547.915 800.862, 537.938 800.977, 536.252 " fill="none" stroke="rgb(0, 0, 0)" stroke-linecap="butt" stroke-linejoin="round" stroke-opacity="1.0" stroke-width="3.0" />
            <path d=" M 498.512, 530.738 498.173, 540.732 497.882, 549.292 " fill="none" stroke="rgb(0, 0, 0)" stroke-linecap="butt" stroke-linejoin="round" stroke-opacity="1.0" stroke-width="3.0" />
            <path d=" M 813.848, 380.129 813.804, 379.909 811.613, 370.152 811.324, 368.864 808.895, 359.163 808.607, 358.015 805.933, 348.379 805.655, 347.378 802.724, 337.817 802.466, 336.972 799.269, 327.497 799.040, 326.818 795.566, 317.441 795.378, 316.933 791.618, 307.666 791.482, 307.333 787.426, 298.193 787.356, 298.036 783.002, 289.059 778.422, 280.422 773.619, 272.144 768.595, 264.246 763.353, 256.753 757.897, 249.688 752.232, 243.070 746.364, 236.919 740.300, 231.252 734.046, 226.089 727.610, 221.452 720.999, 217.362 714.222, 213.842 707.289, 210.918 700.210, 208.611 692.997, 206.939 685.662, 205.917 678.218, 205.561 670.680, 205.885 669.820, 206.000 663.062, 206.906 655.380, 208.639 647.652, 211.102 639.896, 214.308 632.132, 218.268 624.378, 222.987 616.654, 228.465 608.981, 234.702 601.624, 241.474 601.381, 241.697 594.425, 248.882 593.876, 249.449 593.137, 250.299 593.103, 250.338 592.925, 250.544 592.898, 250.574 592.840, 250.641 592.797, 250.691 592.541, 250.985 592.434, 251.108 586.489, 257.952 583.370, 261.933 579.244, 267.200 573.462, 275.359 572.168, 277.186 566.759, 285.597 565.284, 287.891 560.234, 296.523 558.613, 299.294 555.588, 304.971 555.213, 305.676 554.957, 306.156 554.324, 307.344 552.295, 311.152 552.180, 311.368 550.801, 314.208 546.434, 323.204 546.005, 324.088 544.807, 326.798 543.346, 330.105 540.112, 337.424 536.386, 346.704 534.524, 351.343 531.511, 359.628 529.263, 365.812 526.148, 375.315 524.352, 380.793 521.532, 390.387 519.811, 396.244 517.278, 405.918 515.654, 412.115 513.401, 421.858 511.898, 428.360 509.922, 438.162 508.558, 444.927 506.855, 454.781 505.648, 461.766 504.216, 471.662 503.181, 478.822 502.017, 488.754 501.164, 496.041 500.268, 506.000 499.606, 513.365 499.572, 513.905 498.944, 523.885 498.512, 530.738 498.152, 540.731 497.887, 548.103 497.882, 549.292 497.788, 559.292 497.731, 565.402 497.912, 575.400 498.042, 582.580 498.498, 592.569 498.818, 599.580 499.553, 609.553 500.054, 616.348 501.074, 626.296 501.744, 632.832 503.053, 642.746 503.876, 648.982 505.481, 658.852 506.440, 664.748 508.349, 674.564 509.422, 680.086 511.648, 689.836 512.815, 694.949 513.366, 697.037 515.917, 706.706 516.600, 709.296 519.486, 718.871 520.759, 723.092 523.991, 732.556 525.272, 736.306 528.862, 745.639 529.621, 747.612 530.119, 748.906 532.728, 754.950 535.281, 760.867 537.151, 764.736 538.599, 767.733 540.739, 772.163 543.103, 776.536 544.558, 779.230 546.472, 782.771 546.820, 783.345 551.996, 791.901 552.461, 792.670 558.075, 800.946 558.685, 801.847 564.745, 809.801 565.119, 810.292 571.634, 817.879 571.741, 818.003 578.528, 824.975 585.459, 831.206 592.513, 836.698 599.672, 841.449 606.915, 845.464 614.225, 848.743 621.581, 851.300 627.669, 852.824 628.966, 853.148 636.360, 854.303 643.747, 854.781 651.112, 854.595 658.440, 853.762 665.716, 852.295 672.928, 850.209 680.063, 847.519 687.109, 844.248 694.054, 840.419 700.888, 836.052 707.601, 831.168 714.184, 825.788 720.628, 819.929 726.927, 813.609 733.071, 806.844 739.053, 799.653 744.869, 792.058 750.512, 784.082 755.978, 775.743 761.178, 767.201 761.262, 767.062 766.188, 758.359 766.360, 758.055 771.021, 749.207 771.267, 748.740 775.670, 739.761 775.979, 739.131 780.131, 730.034 780.491, 729.244 784.400, 720.040 784.800, 719.097 788.475, 709.797 788.905, 708.709 792.352, 699.322 792.802, 698.096 796.029, 688.631 796.492, 687.275 799.503, 677.739 799.970, 676.262 802.771, 666.662 803.235, 665.071 805.828, 655.414 806.284, 653.717 808.673, 644.007 809.114, 642.213 811.302, 632.455 811.724, 630.574 813.715, 620.774 814.113, 618.815 815.910, 608.978 816.280, 606.952 817.886, 597.081 818.225, 594.997 819.640, 585.098 819.944, 582.965 821.169, 573.040 821.437, 570.869 822.474, 560.923 822.703, 558.723 823.552, 548.759 823.741, 546.540 824.399, 536.608 " fill="none" stroke="rgb(0, 0, 0)" stroke-linecap="butt" stroke-linejoin="round" stroke-opacity="1.0" stroke-width="3.0" />
            <path d=" M 668.439, 206.059 660.811, 207.081 653.120, 208.814 645.382, 211.275 637.616, 214.479 629.842, 218.437 622.079, 223.152 614.347, 228.626 606.665, 234.857 599.301, 241.622 599.057, 241.846 592.094, 249.024 591.544, 249.590 590.448, 250.850 590.382, 250.925 590.282, 251.039 590.143, 251.200 590.087, 251.263 588.260, 253.362 588.232, 253.394 587.088, 254.709 584.149, 258.085 577.975, 265.952 576.898, 267.325 576.731, 267.559 570.942, 275.713 569.815, 277.300 564.398, 285.706 562.924, 287.994 557.868, 296.622 556.248, 299.385 554.760, 302.172 554.183, 303.252 553.534, 304.468 551.805, 307.707 550.309, 310.511 549.809, 311.447 545.435, 320.440 544.858, 321.628 544.229, 322.920 543.630, 324.153 542.751, 326.138 538.703, 335.283 537.732, 337.474 534.001, 346.751 532.140, 351.378 530.792, 355.079 527.370, 364.475 526.876, 365.831 523.756, 375.331 521.962, 380.795 519.138, 390.388 517.419, 396.228 514.882, 405.901 513.260, 412.082 511.004, 421.824 509.503, 428.307 507.524, 438.109 506.162, 444.855 504.457, 454.709 503.251, 461.675 501.818, 471.571 500.784, 478.712 499.620, 488.644 498.769, 495.910 497.873, 505.870 497.212, 513.215 497.036, 516.010 496.408, 525.990 496.120, 530.568 495.761, 540.561 495.496, 547.913 495.408, 557.912 495.343, 565.193 495.526, 575.191 495.657, 582.351 496.115, 592.341 496.436, 599.333 497.175, 609.305 497.677, 616.082 498.701, 626.030 499.371, 632.548 500.684, 642.462 501.508, 648.680 503.118, 658.550 504.077, 664.430 505.991, 674.245 507.065, 679.752 509.297, 689.500 510.464, 694.600 512.611, 702.715 514.255, 708.932 517.149, 718.505 518.421, 722.715 521.661, 732.176 522.941, 735.916 526.539, 745.246 527.796, 748.505 529.018, 751.329 532.127, 758.516 532.966, 760.455 536.607, 767.973 538.058, 770.970 538.432, 771.741 542.621, 779.474 544.080, 782.168 544.173, 782.340 546.391, 785.998 550.171, 792.232 555.792, 800.502 556.403, 801.401 562.471, 809.350 562.846, 809.841 569.369, 817.421 569.477, 817.547 576.274, 824.515 583.214, 830.743 590.279, 836.232 597.447, 840.983 604.700, 844.997 612.020, 848.277 619.386, 850.835 626.781, 852.685 " fill="none" stroke="rgb(0, 0, 0)" stroke-linecap="butt" stroke-linejoin="round" stroke-opacity="1.0" stroke-width="3.0" />
            <path d=" M 670.680, 205.885 668.439, 206.059 " fill="none" stroke="rgb(0, 0, 0)" stroke-linecap="butt" stroke-linejoin="round" stroke-opacity="1.0" stroke-width="3.0" />
            <path d=" M 626.781, 852.685 628.966, 853.148 " fill="none" stroke="rgb(0, 0, 0)" stroke-linecap="butt" stroke-linejoin="round" stroke-opacity="1.0" stroke-width="3.0" />
            <path d=" M 480.296, 529.646 479.938, 539.640 479.583, 549.540 479.499, 559.540 479.416, 569.355 479.608, 579.353 479.793, 589.022 480.265, 599.011 480.712, 608.475 481.467, 618.447 482.164, 627.648 483.209, 637.593 484.142, 646.477 485.482, 656.387 486.634, 664.903 488.276, 674.767 489.625, 682.867 491.579, 692.674 493.101, 700.315 495.375, 710.053 497.043, 717.196 499.648, 726.851 501.432, 733.463 504.379, 743.019 505.531, 746.754 506.246, 749.073 507.332, 752.174 510.634, 761.613 511.465, 763.987 513.948, 770.280 517.063, 778.171 521.118, 787.312 521.702, 788.629 521.985, 789.268 522.630, 790.721 523.017, 791.593 524.030, 793.630 525.038, 795.656 529.301, 804.228 529.674, 804.897 531.133, 807.516 531.611, 808.374 533.025, 810.911 535.867, 816.012 535.891, 816.055 536.877, 817.634 537.337, 818.371 539.776, 822.276 542.759, 827.054 548.499, 835.242 549.880, 837.213 556.076, 845.062 557.228, 846.521 563.890, 853.979 564.778, 854.973 571.909, 861.983 572.502, 862.565 580.103, 869.064 580.377, 869.299 588.379, 875.178 596.482, 880.209 604.665, 884.400 612.904, 887.763 621.180, 890.312 625.513, 891.307 633.781, 893.051 642.046, 894.012 650.288, 894.208 658.490, 893.659 666.636, 892.386 674.710, 890.410 682.699, 887.755 690.588, 884.441 698.364, 880.494 706.017, 875.936 713.536, 870.790 720.910, 865.081 728.130, 858.831 735.188, 852.064 742.076, 844.804 748.630, 837.251 748.786, 837.071 755.023, 829.254 755.313, 828.890 761.242, 820.837 761.651, 820.282 767.282, 812.018 767.793, 811.268 773.138, 802.816 773.736, 801.870 778.803, 793.249 779.474, 792.107 784.274, 783.335 785.004, 782.001 789.546, 773.092 790.322, 771.571 794.615, 762.539 795.424, 760.835 799.476, 751.693 800.309, 749.813 804.126, 740.571 804.972, 738.523 808.562, 729.190 809.412, 726.982 812.782, 717.567 813.626, 715.208 816.781, 705.719 817.612, 703.218 820.558, 693.661 821.369, 691.027 824.109, 681.410 824.895, 678.652 827.434, 668.980 828.188, 666.109 830.530, 656.387 831.247, 653.413 833.395, 643.646 834.070, 640.578 836.027, 630.772 836.656, 627.621 838.425, 617.778 839.004, 614.554 840.586, 604.680 841.113, 601.393 842.510, 591.492 842.981, 588.152 844.195, 578.226 844.608, 574.845 845.639, 564.898 845.993, 561.485 846.841, 551.521 847.134, 548.086 847.800, 538.109 848.030, 534.663 848.514, 524.675 848.681, 521.229 848.982, 511.233 849.085, 507.797 849.202, 497.798 849.242, 494.382 849.173, 484.382 849.150, 480.997 848.894, 471.000 848.808, 467.657 848.363, 457.667 848.216, 454.376 847.579, 444.397 847.373, 441.169 846.540, 431.203 846.277, 428.049 845.246, 418.103 844.927, 415.033 843.694, 405.110 843.324, 402.136 841.883, 392.240 841.466, 389.373 839.813, 379.510 839.352, 376.759 837.481, 366.936 836.982, 364.313 834.887, 354.535 834.355, 352.050 832.030, 342.324 831.471, 339.988 828.908, 330.323 828.330, 328.145 825.520, 318.548 824.932, 316.539 821.866, 307.021 821.276, 305.189 817.945, 295.760 817.364, 294.114 813.757, 284.787 813.195, 283.334 809.301, 274.123 808.771, 272.870 804.578, 263.791 804.094, 262.742 799.589, 253.814 799.164, 252.972 794.333, 244.217 793.984, 243.583 788.813, 235.024 788.556, 234.597 783.032, 226.261 782.883, 226.037 776.970, 217.927 770.819, 210.291 764.436, 203.153 757.827, 196.538 750.997, 190.471 743.954, 184.978 736.705, 180.083 729.260, 175.813 721.627, 172.191 713.819, 169.243 705.846, 166.994 697.721, 165.466 689.458, 164.684 681.074, 164.669 672.583, 165.441 668.127, 165.868 659.525, 167.449 650.853, 169.854 642.131, 173.098 633.381, 177.195 624.625, 182.157 616.309, 187.711 615.886, 187.993 607.971, 194.104 607.189, 194.708 599.683, 201.316 598.558, 202.306 591.463, 209.353 590.020, 210.786 583.333, 218.221 581.603, 220.144 575.315, 227.920 573.333, 230.373 567.436, 238.449 565.238, 241.459 560.775, 248.207 560.726, 248.282 560.689, 248.338 557.348, 253.389 552.200, 261.962 549.691, 266.141 549.383, 266.704 546.469, 272.043 546.210, 272.517 545.037, 274.666 544.749, 275.195 544.206, 276.190 542.295, 279.691 541.819, 280.649 540.392, 283.524 540.065, 284.183 538.192, 287.958 536.749, 290.866 535.188, 294.011 531.082, 303.118 529.677, 306.233 528.399, 309.066 524.613, 318.322 524.164, 319.421 521.955, 324.821 518.484, 334.199 516.305, 340.088 515.882, 341.232 512.718, 350.718 510.205, 358.254 507.340, 367.835 504.948, 375.837 502.376, 385.500 500.134, 393.927 497.849, 403.662 495.783, 412.468 493.781, 422.265 492.910, 426.526 491.914, 431.399 491.091, 436.106 489.367, 445.956 488.544, 450.657 487.096, 460.552 485.686, 470.179 484.511, 480.110 483.353, 489.896 482.451, 499.856 481.746, 507.633 481.555, 509.742 480.924, 519.722 480.861, 520.717 480.786, 521.907 480.355, 528.715 480.296, 529.646 " fill="none" stroke="rgb(0, 0, 0)" stroke-linecap="butt" stroke-linejoin="round" stroke-opacity="1.0" stroke-width="3.0" />
            <path d=" M 672.583, 165.441 664.003, 167.022 655.353, 169.427 646.654, 172.674 637.925, 176.776 629.189, 181.745 620.883, 187.313 620.470, 187.589 612.566, 193.716 611.792, 194.316 604.299, 200.938 603.180, 201.927 596.098, 208.987 594.660, 210.422 587.986, 217.869 586.259, 219.797 579.986, 227.585 578.005, 230.045 572.123, 238.132 569.925, 241.153 564.647, 249.165 562.049, 253.107 556.916, 261.689 554.405, 265.885 550.462, 273.137 547.323, 278.909 547.021, 279.464 546.892, 279.724 546.136, 281.253 545.878, 281.775 541.446, 290.739 539.925, 293.814 539.504, 294.752 538.089, 297.902 535.741, 303.126 533.146, 308.903 529.371, 318.163 526.710, 324.692 525.789, 327.189 522.329, 336.571 520.645, 341.139 517.490, 350.629 514.974, 358.199 512.118, 367.783 509.723, 375.822 507.159, 385.488 504.913, 393.954 502.635, 403.691 500.565, 412.537 499.383, 418.337 498.737, 421.506 496.740, 431.305 496.698, 431.512 495.417, 438.849 493.697, 448.700 493.328, 450.815 492.514, 456.390 492.442, 456.879 490.997, 466.774 490.470, 470.381 489.297, 480.312 488.135, 490.145 487.233, 500.104 486.573, 507.395 486.464, 508.601 486.334, 510.036 486.308, 510.449 485.915, 516.659 485.755, 519.186 485.577, 521.994 485.277, 526.744 485.072, 529.986 484.712, 539.979 484.353, 549.926 484.266, 559.925 484.180, 569.786 484.368, 579.784 484.551, 589.497 485.017, 599.487 485.461, 608.994 485.739, 612.691 486.488, 622.663 486.709, 625.603 486.905, 628.209 487.942, 638.155 488.873, 647.080 490.204, 656.991 491.353, 665.545 492.986, 675.411 494.333, 683.547 496.276, 693.357 497.796, 701.032 500.058, 710.772 501.724, 717.947 504.316, 727.605 506.099, 734.246 507.161, 737.709 509.520, 745.395 510.898, 749.887 514.186, 759.331 516.101, 764.829 519.757, 774.137 521.682, 779.038 523.337, 782.785 526.343, 789.594 527.619, 792.484 530.879, 799.068 532.285, 801.909 533.885, 805.141 536.945, 810.657 538.368, 813.221 540.456, 816.986 540.735, 817.434 546.015, 825.926 547.305, 828.002 553.029, 836.201 554.407, 838.175 560.588, 846.036 561.735, 847.495 568.382, 854.966 569.263, 855.956 576.382, 862.979 576.967, 863.556 584.556, 870.069 584.821, 870.296 592.800, 876.178 600.882, 881.210 609.042, 885.401 617.260, 888.762 625.513, 891.307 " fill="none" stroke="rgb(0, 0, 0)" stroke-linecap="butt" stroke-linejoin="round" stroke-opacity="1.0" stroke-width="3.0" />
            <path d=" M 734.397, 523.424 734.242, 523.011 733.913, 522.129 733.336, 520.993 732.677, 520.034 731.946, 519.268 731.154, 518.710 730.316, 518.369 729.445, 518.251 719.462, 517.666 718.285, 517.597 717.389, 517.703 716.491, 518.033 715.638, 518.583 714.848, 519.346 714.102, 520.306 713.411, 521.447 712.789, 522.752 712.406, 523.769 712.245, 524.197 711.790, 525.757 711.431, 527.407 711.174, 529.118 711.024, 530.860 721.003, 531.504 722.227, 531.583 727.038, 531.653 727.053, 531.496 727.090, 531.104 727.090, 531.100 727.185, 530.562 727.318, 530.055 727.488, 529.593 727.688, 529.187 727.915, 528.850 728.160, 528.590 728.419, 528.414 728.683, 528.328 728.945, 528.332 " fill="none" stroke="rgb(0, 0, 0)" stroke-linecap="butt" stroke-linejoin="round" stroke-opacity="1.0" stroke-width="3.0" />
            <path d=" M 729.445, 518.251 728.555, 518.358 727.663, 518.690 726.816, 519.243 726.031, 520.010 725.290, 520.975 724.604, 522.123 724.297, 522.773 724.280, 522.810 723.985, 523.434 723.444, 524.886 723.414, 524.990 722.991, 526.455 722.671, 527.938 722.633, 528.113 722.377, 529.832 722.260, 531.187 722.227, 531.583 " fill="none" stroke="rgb(0, 0, 0)" stroke-linecap="butt" stroke-linejoin="round" stroke-opacity="1.0" stroke-width="3.0" />
            <path d=" M 728.945, 528.332 729.199, 528.428 729.437, 528.613 729.653, 528.881 729.841, 529.225 729.996, 529.635 730.113, 530.101 730.191, 530.610 730.225, 531.147 730.217, 531.699 " fill="none" stroke="rgb(0, 0, 0)" stroke-linecap="butt" stroke-linejoin="round" stroke-opacity="1.0" stroke-width="3.0" />
            <path d=" M 734.397, 523.424 744.394, 523.658 749.418, 523.776 " fill="none" stroke="rgb(0, 0, 0)" stroke-linecap="butt" stroke-linejoin="round" stroke-opacity="1.0" stroke-width="3.0" />
            <path d=" M 727.053, 531.496 730.217, 531.699 740.216, 531.845 747.242, 531.947 " fill="none" stroke="rgb(0, 0, 0)" stroke-linecap="butt" stroke-linejoin="round" stroke-opacity="1.0" stroke-width="3.0" />
            <path d=" M 802.607, 522.536 801.759, 522.650 800.906, 522.997 800.098, 523.571 799.352, 524.366 798.905, 524.999 798.646, 525.365 797.990, 526.553 797.718, 527.173 797.679, 527.263 797.397, 527.908 796.877, 529.409 796.438, 531.029 796.126, 532.560 796.089, 532.741 795.836, 534.515 795.825, 534.647 795.820, 534.708 795.717, 535.914 795.683, 536.322 " fill="none" stroke="rgb(0, 0, 0)" stroke-linecap="butt" stroke-linejoin="round" stroke-opacity="1.0" stroke-width="3.0" />
            <path d=" M 802.052, 532.933 802.291, 533.030 802.514, 533.219 802.716, 533.494 802.892, 533.848 803.035, 534.270 803.143, 534.750 803.203, 535.198 803.213, 535.274 803.242, 535.828 803.231, 536.397 " fill="none" stroke="rgb(0, 0, 0)" stroke-linecap="butt" stroke-linejoin="round" stroke-opacity="1.0" stroke-width="3.0" />
            <path d=" M 784.712, 492.213 784.873, 492.208 785.090, 492.242 785.296, 492.320 785.484, 492.441 785.646, 492.600 785.776, 492.791 785.871, 493.009 785.926, 493.248 785.935, 493.503 785.901, 493.742 785.825, 493.969 785.711, 494.177 785.563, 494.358 785.386, 494.505 785.186, 494.613 784.967, 494.677 784.734, 494.692 784.574, 494.672 " fill="none" stroke="rgb(0, 0, 0)" stroke-linecap="butt" stroke-linejoin="round" stroke-opacity="1.0" stroke-width="3.0" />
            <path d=" M 784.873, 492.208 784.696, 492.216 784.662, 492.218 784.632, 492.219 784.630, 492.220 784.393, 492.277 784.172, 492.378 783.974, 492.520 783.807, 492.696 783.677, 492.904 783.588, 493.135 783.548, 493.388 783.558, 493.629 783.615, 493.862 783.716, 494.081 783.858, 494.275 784.036, 494.439 784.244, 494.567 784.479, 494.653 784.495, 494.656 784.543, 494.663 784.734, 494.692 " fill="none" stroke="rgb(0, 0, 0)" stroke-linecap="butt" stroke-linejoin="round" stroke-opacity="1.0" stroke-width="3.0" />
            <path d=" M 784.712, 492.213 784.662, 492.218 " fill="none" stroke="rgb(0, 0, 0)" stroke-linecap="butt" stroke-linejoin="round" stroke-opacity="1.0" stroke-width="3.0" />
            <path d=" M 782.153, 490.217 781.805, 496.419 785.241, 496.585 787.460, 496.691 788.117, 496.570 787.954, 490.483 787.810, 490.474 785.123, 490.352 782.153, 490.217 " fill="none" stroke="rgb(0, 0, 0)" stroke-linecap="butt" stroke-linejoin="round" stroke-opacity="1.0" stroke-width="3.0" />
            <path d=" M 787.460, 496.691 787.810, 490.474 " fill="none" stroke="rgb(0, 0, 0)" stroke-linecap="butt" stroke-linejoin="round" stroke-opacity="1.0" stroke-width="3.0" />
            <path d=" M 712.406, 523.769 704.884, 522.914 694.952, 521.752 693.413, 521.572 683.484, 520.384 681.942, 520.199 672.015, 518.993 670.466, 518.805 660.540, 517.589 658.980, 517.398 649.055, 516.179 647.479, 515.985 637.553, 514.770 635.957, 514.575 626.030, 513.371 624.411, 513.174 614.482, 511.988 612.835, 511.792 602.902, 510.631 601.224, 510.434 591.288, 509.305 589.574, 509.110 579.634, 508.018 577.881, 507.825 577.725, 497.826 577.656, 493.444 577.380, 483.448 577.261, 479.154 576.863, 469.162 576.696, 464.974 576.173, 454.988 575.960, 450.924 575.307, 440.945 575.051, 437.025 574.266, 427.056 573.970, 423.299 573.046, 413.341 572.715, 409.766 571.648, 399.823 571.286, 396.450 570.068, 386.525 569.681, 383.376 568.305, 373.471 567.902, 370.566 566.358, 360.686 565.946, 358.047 564.511, 349.831 " fill="none" stroke="rgb(0, 0, 0)" stroke-linecap="butt" stroke-linejoin="round" stroke-opacity="1.0" stroke-width="3.0" />
            <path d=" M 529.432, 234.519 523.664, 230.829 521.251, 229.286 520.973, 229.086 512.849, 223.256 511.311, 222.152 " fill="none" stroke="rgb(0, 0, 0)" stroke-linecap="butt" stroke-linejoin="round" stroke-opacity="1.0" stroke-width="3.0" />
            <path d=" M 545.153, 242.651 544.914, 242.535 540.604, 240.454 539.625, 239.982 537.368, 238.892 536.627, 238.534 532.763, 236.378 530.447, 235.085 529.432, 234.519 526.525, 232.896 " fill="none" stroke="rgb(0, 0, 0)" stroke-linecap="butt" stroke-linejoin="round" stroke-opacity="1.0" stroke-width="3.0" />
            <path d=" M 559.657, 247.931 552.111, 245.450 545.153, 242.651 544.918, 242.556 541.851, 241.322 " fill="none" stroke="rgb(0, 0, 0)" stroke-linecap="butt" stroke-linejoin="round" stroke-opacity="1.0" stroke-width="3.0" />
            <path d=" M 511.311, 222.152 509.597, 221.185 506.872, 219.648 506.581, 219.484 501.734, 217.730 496.778, 216.929 491.727, 217.121 486.593, 218.337 481.391, 220.610 480.223, 221.356 477.750, 222.937 476.135, 223.970 471.636, 227.775 470.844, 228.446 465.535, 234.057 461.305, 239.447 460.227, 240.821 456.533, 246.364 454.941, 248.753 451.695, 254.393 449.700, 257.860 445.203, 266.792 444.525, 268.139 440.466, 277.278 439.441, 279.585 435.773, 288.888 434.473, 292.185 431.157, 301.619 429.646, 305.916 426.647, 315.456 424.983, 320.748 422.275, 330.374 420.512, 336.640 418.072, 346.338 416.258, 353.547 414.066, 363.303 412.246, 371.410 410.286, 381.216 408.498, 390.163 406.759, 400.010 405.041, 409.732 403.509, 419.614 401.978, 429.496 401.894, 430.037 400.562, 439.948 399.230, 449.859 399.078, 450.987 397.938, 460.922 396.798, 470.857 396.611, 472.485 395.657, 482.439 394.704, 492.393 394.509, 494.429 393.738, 504.399 392.968, 514.369 392.787, 516.712 392.195, 526.695 391.604, 536.677 391.454, 539.222 391.040, 549.214 390.627, 559.205 390.518, 561.846 390.283, 571.843 390.049, 581.840 389.987, 584.467 389.931, 594.467 389.875, 604.467 389.861, 606.973 389.986, 616.972 390.112, 626.972 390.140, 629.249 390.450, 639.245 390.760, 649.240 390.820, 651.183 390.850, 651.128 395.568, 642.311 396.300, 640.943 397.813, 638.250 401.886, 631.000 406.966, 622.387 407.581, 621.344 412.842, 612.840 413.384, 611.964 418.828, 603.575 419.297, 602.851 424.922, 594.583 425.321, 593.996 431.126, 585.853 431.456, 585.389 437.439, 577.377 437.704, 577.022 443.864, 569.144 444.066, 568.886 450.399, 561.147 450.542, 560.972 457.047, 553.377 457.135, 553.273 463.846, 545.781 470.675, 538.487 477.625, 531.385 480.355, 528.715 " fill="none" stroke="rgb(0, 0, 0)" stroke-linecap="butt" stroke-linejoin="round" stroke-opacity="1.0" stroke-width="3.0" />
            <path d=" M 360.784, 641.659 356.778, 650.821 354.973, 654.950 " fill="none" stroke="rgb(0, 0, 0)" stroke-linecap="butt" stroke-linejoin="round" stroke-opacity="1.0" stroke-width="3.0" />
            <path d=" M 480.223, 221.356 470.223, 221.381 469.066, 221.384 " fill="none" stroke="rgb(0, 0, 0)" stroke-linecap="butt" stroke-linejoin="round" stroke-opacity="1.0" stroke-width="3.0" />
            <path d=" M 560.775, 248.207 559.657, 247.931 557.212, 247.326 " fill="none" stroke="rgb(0, 0, 0)" stroke-linecap="butt" stroke-linejoin="round" stroke-opacity="1.0" stroke-width="3.0" />
            <path d=" M 784.495, 494.656 784.574, 494.672 " fill="none" stroke="rgb(0, 0, 0)" stroke-linecap="butt" stroke-linejoin="round" stroke-opacity="1.0" stroke-width="3.0" />
        </g>
    </g>
</svg>
