<?xml version='1.0' encoding='ascii'?>
<svg xmlns="http://www.w3.org/2000/svg" height="1080" version="1.1" width="1080">
    <g id="View Layer_LineSet" inkscape:groupmode="lineset" inkscape:label="View Layer_LineSet" xmlns:inkscape="http://www.inkscape.org/namespaces/inkscape">
        <g id="strokes" inkscape:groupmode="layer" inkscape:label="strokes" xmlns:inkscape="http://www.inkscape.org/namespaces/inkscape">
            <path d=" M 564.648, 495.164 564.627, 496.326 564.587, 497.479 564.528, 498.614 564.449, 499.718 564.352, 500.780 564.237, 501.791 564.106, 502.739 563.960, 503.616 563.861, 504.101 563.798, 504.412 563.676, 504.931 563.548, 505.400 563.415, 505.818 563.277, 506.181 563.136, 506.488 563.009, 506.707 562.992, 506.736 562.846, 506.926 561.305, 508.600 " fill="none" stroke="rgb(0, 0, 0)" stroke-linecap="butt" stroke-linejoin="round" stroke-opacity="1.0" stroke-width="3.0" />
            <path d=" M 355.672, 670.499 362.018, 673.558 " fill="none" stroke="rgb(0, 0, 0)" stroke-linecap="butt" stroke-linejoin="round" stroke-opacity="1.0" stroke-width="3.0" />
            <path d=" M 379.767, 674.236 389.572, 672.272 391.632, 671.860 " fill="none" stroke="rgb(0, 0, 0)" stroke-linecap="butt" stroke-linejoin="round" stroke-opacity="1.0" stroke-width="3.0" />
            <path d=" M 391.632, 671.860 387.184, 662.904 382.735, 653.948 381.715, 651.895 " fill="none" stroke="rgb(0, 0, 0)" stroke-linecap="butt" stroke-linejoin="round" stroke-opacity="1.0" stroke-width="3.0" />
            <path d=" M 471.875, 227.344 467.463, 227.546 462.981, 228.799 458.443, 231.136 453.861, 234.587 449.252, 239.185 444.631, 244.950 444.522, 245.114 441.988, 248.931 440.016, 251.901 435.426, 260.053 431.058, 269.049 430.880, 269.414 426.978, 278.621 426.400, 279.984 422.902, 289.352 422.006, 291.754 418.866, 301.248 417.721, 304.711 414.899, 314.305 413.567, 318.833 411.030, 328.506 409.568, 334.085 407.290, 343.822 405.745, 350.425 403.705, 360.215 402.124, 367.804 400.303, 377.637 398.725, 386.160 397.108, 396.029 395.570, 405.422 394.146, 415.320 392.722, 425.218 392.680, 425.510 391.439, 435.433 390.197, 445.356 390.074, 446.339 389.008, 456.281 387.941, 466.224 387.771, 467.809 386.872, 477.769 385.974, 487.728 385.785, 489.819 385.050, 499.792 384.314, 509.765 384.131, 512.260 383.555, 522.243 382.980, 532.227 382.819, 535.017 382.401, 545.008 381.984, 554.999 381.859, 557.971 381.598, 567.968 381.336, 577.964 381.257, 581.004 381.151, 591.003 381.046, 601.003 381.015, 603.993 381.067, 613.993 381.120, 623.993 381.135, 626.820 381.347, 636.817 381.559, 646.815 381.613, 649.364 381.715, 651.895 380.846, 661.857 379.978, 671.819 379.767, 674.236 " fill="none" stroke="rgb(0, 0, 0)" stroke-linecap="butt" stroke-linejoin="round" stroke-opacity="1.0" stroke-width="3.0" />
            <path d=" M 566.946, 520.556 567.379, 520.564 567.993, 520.575 574.529, 513.006 574.820, 512.669 577.905, 509.986 577.711, 499.988 577.623, 495.431 577.306, 485.436 577.165, 480.980 576.723, 470.990 576.531, 466.657 575.960, 456.673 575.720, 452.482 575.015, 442.507 574.730, 438.477 573.887, 428.513 573.562, 424.666 572.575, 414.715 572.214, 411.071 571.077, 401.135 570.685, 397.717 569.390, 387.801 568.975, 384.630 567.513, 374.738 567.084, 371.835 565.445, 361.971 565.011, 359.360 563.182, 349.529 562.888, 347.950 " fill="none" stroke="rgb(0, 0, 0)" stroke-linecap="butt" stroke-linejoin="round" stroke-opacity="1.0" stroke-width="3.0" />
            <path d=" M 559.576, 354.376 560.175, 357.223 561.082, 362.033 562.349, 368.751 564.009, 378.612 564.348, 380.624 565.829, 390.514 566.173, 392.815 567.485, 402.728 567.824, 405.295 568.975, 415.229 569.301, 418.040 570.300, 427.990 570.605, 431.025 571.458, 440.989 571.735, 444.226 572.449, 454.200 572.694, 457.618 573.273, 467.602 573.481, 471.181 573.930, 481.171 574.097, 484.891 574.419, 494.886 574.543, 498.727 574.565, 499.805 574.502, 500.582 574.430, 501.332 574.349, 502.054 574.260, 502.742 574.162, 503.393 574.057, 504.003 573.946, 504.570 573.828, 505.090 573.704, 505.560 573.576, 505.978 573.443, 506.342 573.307, 506.649 573.169, 506.898 573.028, 507.088 568.990, 511.645 568.785, 510.684 568.557, 509.897 568.388, 509.487 568.310, 509.298 568.049, 508.898 567.777, 508.704 567.401, 508.698 564.961, 508.659 564.807, 508.656 563.887, 508.641 563.020, 508.627 561.305, 508.600 559.449, 508.570 557.665, 508.541 557.498, 508.538 557.395, 508.536 557.107, 508.552 556.817, 508.778 556.751, 508.877 556.531, 509.211 556.253, 509.843 555.989, 510.666 555.749, 511.642 555.743, 511.665 555.674, 512.023 555.519, 512.824 555.321, 514.124 555.152, 515.541 555.016, 517.053 554.915, 518.633 554.851, 520.253 554.824, 521.887 554.835, 523.505 555.725, 523.521 557.570, 523.554 557.674, 523.556 559.456, 523.588 563.023, 523.653 563.861, 523.668 564.808, 523.685 565.299, 523.694 566.922, 521.815 566.920, 521.301 566.934, 520.784 566.946, 520.556 566.961, 520.279 567.003, 519.798 567.056, 519.356 567.121, 518.964 567.195, 518.633 567.276, 518.372 567.362, 518.189 567.385, 518.162 567.450, 518.087 567.539, 518.071 " fill="none" stroke="rgb(0, 0, 0)" stroke-linecap="butt" stroke-linejoin="round" stroke-opacity="1.0" stroke-width="3.0" />
            <path d=" M 463.639, 901.212 459.576, 900.565 458.208, 900.007 455.505, 898.905 451.441, 896.199 449.540, 894.424 447.398, 892.422 443.391, 887.552 439.437, 881.573 435.554, 874.467 431.758, 866.230 428.069, 856.861 424.854, 847.392 424.505, 846.364 421.680, 836.771 421.085, 834.749 418.603, 825.062 417.828, 822.039 415.650, 812.279 414.753, 808.262 412.848, 798.445 411.879, 793.452 410.221, 783.591 409.223, 777.654 407.792, 767.757 406.804, 760.922 405.582, 750.997 404.636, 743.316 403.610, 733.369 402.736, 724.906 401.893, 714.942 401.118, 705.769 400.449, 695.791 399.792, 685.989 399.290, 676.002 398.787, 666.014 398.769, 665.658 398.407, 655.664 398.254, 651.466 " fill="none" stroke="rgb(0, 0, 0)" stroke-linecap="butt" stroke-linejoin="round" stroke-opacity="1.0" stroke-width="3.0" />
            <path d=" M 382.633, 311.565 381.089, 317.642 378.887, 327.397 377.675, 332.767 375.707, 342.571 374.421, 348.983 372.668, 358.829 371.347, 366.245 369.791, 376.123 368.472, 384.492 367.099, 394.397 365.815, 403.657 364.613, 413.585 363.392, 423.664 362.353, 433.610 361.313, 443.556 361.222, 444.429 360.336, 454.390 359.451, 464.350 359.317, 465.858 358.579, 475.831 357.842, 485.803 357.691, 487.850 357.097, 497.832 356.504, 507.815 356.356, 510.299 355.903, 520.289 355.450, 530.279 355.322, 533.094 355.007, 543.089 354.691, 553.084 354.596, 556.119 354.417, 566.117 354.238, 576.115 354.181, 579.253 354.139, 589.253 354.096, 599.253 354.083, 602.378 354.178, 612.377 354.272, 622.377 354.301, 625.372 354.534, 635.370 354.767, 645.367 354.832, 648.118 355.207, 658.111 355.582, 668.104 355.672, 670.499 356.242, 680.483 356.812, 690.466 356.913, 692.231 357.660, 702.203 358.407, 712.175 358.495, 713.355 359.427, 723.312 360.359, 733.268 360.407, 733.774 361.534, 743.710 362.633, 753.394 363.968, 763.304 365.158, 772.130 366.718, 782.008 367.965, 789.910 369.768, 799.746 371.036, 806.667 373.106, 816.451 374.352, 822.345 376.716, 832.062 377.893, 836.898 380.007, 844.458 " fill="none" stroke="rgb(0, 0, 0)" stroke-linecap="butt" stroke-linejoin="round" stroke-opacity="1.0" stroke-width="3.0" />
            <path d=" M 523.621, 534.156 523.647, 537.892 523.609, 547.892 523.593, 551.976 523.447, 561.975 523.387, 566.090 523.134, 576.087 523.029, 580.215 522.669, 590.209 522.521, 594.333 522.054, 604.322 521.862, 608.423 521.287, 618.407 521.097, 621.701 " fill="none" stroke="rgb(0, 0, 0)" stroke-linecap="butt" stroke-linejoin="round" stroke-opacity="1.0" stroke-width="3.0" />
            <path d=" M 506.592, 746.032 504.793, 755.802 502.828, 765.607 502.363, 767.930 500.234, 777.701 499.790, 779.738 497.486, 789.469 497.077, 791.198 494.584, 800.883 494.224, 802.283 491.527, 811.913 491.234, 812.960 488.315, 822.524 488.109, 823.198 484.947, 832.685 484.853, 832.967 481.468, 842.231 477.957, 850.956 474.327, 859.106 470.580, 866.647 466.723, 873.539 462.762, 879.744 458.704, 885.226 454.556, 889.945 450.327, 893.861 449.540, 894.424 " fill="none" stroke="rgb(0, 0, 0)" stroke-linecap="butt" stroke-linejoin="round" stroke-opacity="1.0" stroke-width="3.0" />
            <path d=" M 391.443, 666.790 391.632, 671.860 392.151, 681.847 392.669, 691.833 392.758, 693.534 393.454, 703.509 394.151, 713.485 394.229, 714.603 395.112, 724.564 395.995, 734.525 396.034, 734.971 397.113, 744.913 398.158, 754.544 399.446, 764.461 400.586, 773.239 402.096, 783.125 403.297, 790.983 405.047, 800.829 406.271, 807.711 408.283, 817.506 409.487, 823.364 411.789, 833.096 412.924, 837.898 415.545, 847.548 416.558, 851.276 419.539, 860.821 420.366, 863.470 423.756, 872.878 424.325, 874.458 428.184, 883.684 428.413, 884.233 432.608, 892.790 436.887, 900.134 437.095, 900.428 437.368, 900.814 441.231, 906.274 445.619, 911.229 450.034, 915.020 454.456, 917.673 458.871, 919.218 463.262, 919.690 467.617, 919.126 471.921, 917.561 476.163, 915.038 479.531, 912.260 480.333, 911.598 484.421, 907.283 488.419, 902.134 492.317, 896.193 496.111, 889.505 498.046, 885.620 499.794, 882.109 503.362, 874.045 506.808, 865.355 508.826, 859.723 510.131, 856.078 513.223, 846.568 513.327, 846.249 516.168, 836.661 516.392, 835.907 519.008, 826.255 519.325, 825.087 521.737, 815.382 522.124, 813.823 524.348, 804.073 524.787, 802.146 526.322, 794.824 " fill="none" stroke="rgb(0, 0, 0)" stroke-linecap="butt" stroke-linejoin="round" stroke-opacity="1.0" stroke-width="3.0" />
            <path d=" M 523.034, 787.833 522.169, 791.820 519.876, 801.554 519.563, 802.884 517.081, 812.571 516.832, 813.541 514.144, 823.173 513.980, 823.760 511.065, 833.326 511.009, 833.511 507.921, 842.759 504.721, 851.468 501.412, 859.605 497.998, 867.134 494.485, 874.015 490.879, 880.211 487.185, 885.686 483.411, 890.401 479.565, 894.314 475.654, 897.389 471.689, 899.589 467.680, 900.876 463.639, 901.212 " fill="none" stroke="rgb(0, 0, 0)" stroke-linecap="butt" stroke-linejoin="round" stroke-opacity="1.0" stroke-width="3.0" />
            <path d=" M 555.749, 511.642 555.671, 511.638 548.958, 511.276 548.290, 511.240 546.447, 511.140 546.347, 511.135 546.498, 521.134 546.557, 525.064 546.609, 535.064 546.629, 539.062 546.582, 549.062 546.563, 553.111 546.417, 563.110 546.358, 567.191 546.115, 577.188 546.016, 581.283 545.676, 591.277 545.537, 595.368 545.099, 605.358 544.921, 609.426 544.384, 619.412 544.168, 623.438 543.532, 633.418 543.279, 637.385 542.542, 647.357 542.255, 651.246 541.415, 661.210 541.096, 665.001 540.150, 674.956 539.801, 678.629 538.746, 688.573 538.371, 692.109 538.091, 694.493 " fill="none" stroke="rgb(0, 0, 0)" stroke-linecap="butt" stroke-linejoin="round" stroke-opacity="1.0" stroke-width="3.0" />
            <path d=" M 540.664, 701.662 541.135, 697.450 542.137, 687.500 542.556, 683.347 543.452, 673.387 543.839, 669.097 544.632, 659.129 544.983, 654.722 545.677, 644.746 545.991, 640.241 546.587, 630.259 546.861, 625.677 547.362, 615.690 547.595, 611.049 548.001, 601.057 548.192, 596.375 548.505, 586.380 548.652, 581.676 548.873, 571.678 548.977, 566.971 549.105, 556.971 549.165, 552.278 549.201, 542.278 549.218, 537.617 549.161, 527.617 549.134, 523.006 548.984, 513.007 548.958, 511.276 " fill="none" stroke="rgb(0, 0, 0)" stroke-linecap="butt" stroke-linejoin="round" stroke-opacity="1.0" stroke-width="3.0" />
            <path d=" M 379.767, 674.236 380.302, 684.222 380.836, 694.207 380.974, 696.783 381.684, 706.758 382.394, 716.733 382.533, 718.691 383.427, 728.651 384.320, 738.611 384.431, 739.856 385.518, 749.797 386.605, 759.738 386.653, 760.181 387.947, 770.097 389.183, 779.577 390.698, 789.461 392.001, 797.968 393.756, 807.813 395.087, 815.287 397.105, 825.081 398.421, 831.473 400.729, 841.203 401.981, 846.481 404.612, 856.128 405.742, 860.273 408.739, 869.813 409.684, 872.822 413.098, 882.221 413.783, 884.108 417.677, 893.318 418.016, 894.122 422.362, 902.865 426.799, 910.342 431.306, 916.564 435.863, 921.555 440.452, 925.338 445.055, 927.942 449.654, 929.399 454.234, 929.750 458.781, 929.032 463.282, 927.285 467.723, 924.553 472.095, 920.882 476.387, 916.315 " fill="none" stroke="rgb(0, 0, 0)" stroke-linecap="butt" stroke-linejoin="round" stroke-opacity="1.0" stroke-width="3.0" />
            <path d=" M 476.387, 916.315 483.033, 908.844 484.421, 907.283 " fill="none" stroke="rgb(0, 0, 0)" stroke-linecap="butt" stroke-linejoin="round" stroke-opacity="1.0" stroke-width="3.0" />
            <path d=" M 540.767, 535.836 530.768, 535.733 529.408, 535.718 526.370, 534.898 523.621, 534.156 519.527, 533.051 519.238, 532.973 518.949, 532.894 518.660, 532.816 518.371, 532.738 518.031, 532.528 517.703, 532.084 517.391, 531.416 517.106, 530.536 516.981, 530.009 " fill="none" stroke="rgb(0, 0, 0)" stroke-linecap="butt" stroke-linejoin="round" stroke-opacity="1.0" stroke-width="3.0" />
            <path d=" M 518.418, 507.724 518.618, 507.262 518.781, 506.886 518.891, 506.633 519.029, 506.318 523.006, 497.142 526.983, 487.967 528.254, 485.034 538.211, 485.962 539.731, 486.104 540.102, 496.097 540.472, 506.090 540.648, 510.828 540.761, 520.827 540.805, 524.762 540.771, 534.762 540.767, 535.836 531.678, 533.286 531.401, 533.208 531.123, 533.130 530.844, 533.052 530.567, 532.974 530.240, 532.763 529.924, 532.320 529.625, 531.651 529.420, 530.991 529.351, 530.769 529.107, 529.691 528.898, 528.437 528.728, 527.030 528.599, 525.498 528.514, 523.870 528.508, 523.599 528.476, 522.177 528.485, 520.452 528.540, 518.729 528.619, 517.407 528.641, 517.042 528.786, 515.422 528.971, 513.902 529.193, 512.510 529.283, 512.078 529.449, 511.273 529.732, 510.215 530.036, 509.355 530.298, 508.722 530.562, 508.089 530.825, 507.458 531.087, 506.827 531.221, 506.512 535.070, 497.282 538.919, 488.053 539.731, 486.104 " fill="none" stroke="rgb(0, 0, 0)" stroke-linecap="butt" stroke-linejoin="round" stroke-opacity="1.0" stroke-width="3.0" />
            <path d=" M 530.934, 523.643 530.808, 523.638 530.686, 523.498 530.575, 523.227 530.479, 522.840 530.403, 522.351 530.351, 521.784 530.323, 521.162 530.322, 520.513 530.348, 519.866 530.399, 519.248 530.473, 518.687 530.568, 518.208 530.678, 517.831 530.799, 517.574 530.924, 517.447 " fill="none" stroke="rgb(0, 0, 0)" stroke-linecap="butt" stroke-linejoin="round" stroke-opacity="1.0" stroke-width="3.0" />
            <path d=" M 530.924, 517.447 531.051, 517.455 531.172, 517.598 531.283, 517.870 531.378, 518.257 531.454, 518.745 531.506, 519.311 531.533, 519.930 531.534, 520.577 531.509, 521.222 531.458, 521.837 531.384, 522.397 531.290, 522.876 531.181, 523.253 531.060, 523.513 530.934, 523.643 " fill="none" stroke="rgb(0, 0, 0)" stroke-linecap="butt" stroke-linejoin="round" stroke-opacity="1.0" stroke-width="3.0" />
            <path d=" M 360.325, 605.407 360.320, 607.665 360.437, 617.665 360.554, 627.664 360.580, 629.921 360.838, 639.918 361.096, 649.915 361.148, 651.914 361.368, 657.381 361.770, 667.373 362.018, 673.558 362.568, 683.542 363.118, 693.527 363.186, 694.770 363.197, 694.926 " fill="none" stroke="rgb(0, 0, 0)" stroke-linecap="butt" stroke-linejoin="round" stroke-opacity="1.0" stroke-width="3.0" />
            <path d=" M 546.509, 716.228 547.384, 708.904 548.476, 698.963 548.813, 695.892 549.815, 685.943 550.135, 682.766 551.049, 672.808 551.349, 669.537 552.177, 659.571 552.455, 656.218 553.198, 646.246 553.453, 642.823 554.113, 632.844 554.343, 629.362 554.922, 619.379 555.126, 615.848 555.623, 605.860 555.801, 602.292 556.217, 592.301 556.367, 588.706 556.704, 578.711 556.826, 575.100 557.083, 565.103 557.176, 561.487 557.354, 551.488 557.418, 547.876 557.418, 547.840 557.516, 537.841 557.551, 534.280 557.569, 524.280 557.570, 523.554 " fill="none" stroke="rgb(0, 0, 0)" stroke-linecap="butt" stroke-linejoin="round" stroke-opacity="1.0" stroke-width="3.0" />
            <path d=" M 455.003, 953.639 457.438, 953.820 461.580, 953.715 465.689, 952.786 469.755, 951.062 473.772, 948.575 477.731, 945.354 481.627, 941.432 485.454, 936.839 489.207, 931.606 492.880, 925.764 496.471, 919.343 499.974, 912.372 503.387, 904.881 506.706, 896.897 509.930, 888.448 513.056, 879.560 516.081, 870.258 518.970, 860.685 519.005, 860.569 521.707, 850.940 521.826, 850.514 524.355, 840.839 524.543, 840.118 526.911, 830.402 527.155, 829.401 529.373, 819.651 529.661, 818.387 531.739, 808.605 532.060, 807.093 532.254, 806.116 " fill="none" stroke="rgb(0, 0, 0)" stroke-linecap="butt" stroke-linejoin="round" stroke-opacity="1.0" stroke-width="3.0" />
            <path d=" M 523.954, 235.580 521.413, 228.134 518.454, 220.269 515.381, 212.896 512.195, 206.042 508.900, 199.736 505.496, 194.007 501.988, 188.885 498.377, 184.399 494.669, 180.580 490.867, 177.459 486.976, 175.066 483.002, 173.431 478.951, 172.585 474.829, 172.558 474.426, 172.637 470.645, 173.377 466.407, 175.071 462.123, 177.666 457.804, 181.186 453.460, 185.654 449.103, 191.089 444.744, 197.508 440.397, 204.924 436.074, 213.348 431.942, 222.454 431.791, 222.786 429.939, 227.364 427.562, 233.238 424.152, 242.638 423.403, 244.702 420.297, 254.207 419.330, 257.168 416.498, 266.759 416.434, 266.975 415.358, 270.623 412.776, 280.284 411.504, 285.047 409.152, 294.766 407.785, 300.413 405.644, 310.181 404.218, 316.689 402.273, 326.498 400.819, 333.838 399.058, 343.681 397.604, 351.813 396.016, 361.687 394.588, 370.565 393.165, 380.464 391.788, 390.037 390.522, 399.956 389.255, 409.876 389.218, 410.165 388.101, 420.102 386.984, 430.039 386.890, 430.880 385.918, 440.833 384.946, 450.786 384.817, 452.111 383.986, 462.077 383.154, 472.042 383.010, 473.779 382.316, 483.755 381.622, 493.731 381.478, 495.802 380.919, 505.786 380.360, 515.770 380.230, 518.094 379.805, 528.085 379.379, 538.076 379.273, 540.570 378.979, 550.565 378.686, 560.561 378.610, 563.138 378.449, 573.137 378.287, 583.135 378.246, 585.710 378.217, 595.709 378.188, 605.709 378.181, 608.194 378.285, 618.193 378.390, 628.193 378.414, 630.501 378.655, 640.498 378.895, 650.495 378.944, 652.544 379.323, 662.536 379.702, 672.529 379.767, 674.236 380.288, 684.222 380.809, 694.209 380.877, 695.495 381.544, 705.473 382.212, 715.451 382.266, 716.244 383.086, 726.210 383.906, 736.176 383.925, 736.406 384.905, 746.358 385.846, 755.914 386.993, 765.848 388.015, 774.704 389.339, 784.616 390.421, 792.717 391.934, 802.602 393.051, 809.902 394.766, 819.754 395.890, 826.213 397.823, 836.024 398.923, 841.610 401.094, 851.372 402.136, 856.061 404.566, 865.762 405.513, 869.539 408.229, 879.163 409.037, 882.023 412.073, 891.551 412.694, 893.499 416.088, 902.905 416.467, 903.956 420.265, 913.207 420.341, 913.392 424.302, 921.806 428.334, 929.206 432.423, 935.600 436.556, 941.002 440.719, 945.429 444.901, 948.901 449.088, 951.440 453.271, 953.071 456.263, 953.608 457.438, 953.820 " fill="none" stroke="rgb(0, 0, 0)" stroke-linecap="butt" stroke-linejoin="round" stroke-opacity="1.0" stroke-width="3.0" />
            <path d=" M 472.400, 172.623 468.189, 173.443 463.924, 175.138 459.613, 177.733 455.267, 181.252 450.896, 185.719 446.511, 191.153 442.126, 197.570 437.752, 204.985 433.403, 213.407 429.249, 222.503 429.094, 222.842 427.130, 227.665 424.840, 233.291 421.410, 242.684 420.656, 244.751 417.532, 254.251 416.558, 257.213 413.711, 266.799 412.563, 270.664 409.967, 280.321 408.865, 284.421 408.687, 285.082 406.321, 294.798 404.947, 300.443 402.794, 310.208 401.359, 316.714 399.404, 326.521 397.941, 333.856 396.170, 343.698 394.708, 351.825 393.112, 361.697 391.677, 370.570 390.245, 380.467 388.862, 390.034 387.588, 399.952 386.314, 409.871 386.278, 410.154 385.155, 420.091 384.032, 430.027 383.938, 430.862 382.961, 440.814 381.984, 450.766 381.855, 452.084 381.019, 462.049 380.184, 472.014 380.039, 473.743 379.342, 483.719 378.645, 493.695 378.501, 495.757 377.940, 505.742 377.379, 515.726 377.249, 518.041 376.821, 528.032 376.394, 538.023 376.288, 540.508 375.994, 550.503 375.700, 560.499 375.624, 563.067 375.463, 573.066 375.302, 583.065 375.260, 585.630 375.233, 595.630 375.205, 605.630 375.198, 608.105 375.305, 618.105 375.411, 628.104 375.436, 630.404 375.679, 640.401 375.923, 650.398 375.973, 652.438 376.355, 662.431 376.738, 672.424 376.803, 674.123 377.329, 684.109 377.855, 694.095 377.923, 695.374 378.596, 705.352 379.270, 715.329 379.323, 716.115 380.150, 726.081 380.977, 736.047 380.996, 736.271 381.983, 746.222 382.931, 755.772 384.087, 765.705 385.116, 774.555 386.450, 784.466 387.540, 792.563 389.064, 802.446 390.189, 809.742 391.916, 819.592 393.048, 826.048 394.994, 835.857 396.102, 841.441 398.287, 851.199 399.337, 855.888 401.783, 865.585 402.737, 869.363 405.471, 878.982 406.285, 881.844 409.340, 891.366 409.966, 893.317 413.381, 902.716 413.765, 903.772 417.585, 913.014 417.665, 913.207 421.652, 921.620 425.711, 929.019 429.827, 935.413 433.986, 940.815 438.177, 945.243 442.385, 948.716 446.600, 951.256 450.809, 952.888 455.003, 953.639 " fill="none" stroke="rgb(0, 0, 0)" stroke-linecap="butt" stroke-linejoin="round" stroke-opacity="1.0" stroke-width="3.0" />
            <path d=" M 474.829, 172.558 472.400, 172.623 " fill="none" stroke="rgb(0, 0, 0)" stroke-linecap="butt" stroke-linejoin="round" stroke-opacity="1.0" stroke-width="3.0" />
            <path d=" M 552.317, 728.547 552.601, 726.293 553.761, 716.360 554.200, 712.603 555.269, 702.660 555.686, 698.785 556.668, 688.833 557.060, 684.852 557.956, 674.892 558.322, 670.818 559.133, 660.851 559.472, 656.695 560.201, 646.722 560.510, 642.495 561.158, 632.516 561.437, 628.231 562.005, 618.247 562.252, 613.913 562.741, 603.925 562.955, 599.552 563.367, 589.561 563.548, 585.161 563.881, 575.166 564.028, 570.749 564.284, 560.752 564.397, 556.328 564.575, 546.329 564.654, 541.908 564.755, 531.908 564.799, 527.499 564.808, 523.685 " fill="none" stroke="rgb(0, 0, 0)" stroke-linecap="butt" stroke-linejoin="round" stroke-opacity="1.0" stroke-width="3.0" />
            <path d=" M 456.802, 978.448 459.205, 978.633 463.658, 978.215 468.066, 976.910 472.422, 974.756 476.716, 971.787 480.942, 968.040 485.094, 963.549 489.165, 958.352 493.151, 952.482 497.047, 945.974 500.848, 938.862 504.552, 931.179 508.156, 922.955 511.656, 914.223 515.051, 905.011 518.272, 895.544 518.338, 895.349 521.344, 885.811 521.516, 885.264 522.206, 882.907 524.584, 874.782 527.213, 865.134 527.541, 863.930 530.003, 854.238 530.386, 852.731 532.693, 843.000 533.118, 841.208 535.280, 831.444 535.737, 829.384 537.764, 819.591 538.242, 817.280 538.371, 816.614 " fill="none" stroke="rgb(0, 0, 0)" stroke-linecap="butt" stroke-linejoin="round" stroke-opacity="1.0" stroke-width="3.0" />
            <path d=" M 539.661, 243.365 538.517, 238.354 536.106, 228.649 535.918, 227.892 533.305, 218.239 533.193, 217.823 530.341, 208.174 527.363, 198.972 524.260, 190.244 521.032, 182.021 517.682, 174.332 514.209, 167.208 510.618, 160.683 506.909, 154.789 503.086, 149.559 499.152, 145.030 495.112, 141.234 490.971, 138.209 486.733, 135.988 482.405, 134.609 477.993, 134.105 476.284, 134.260 473.507, 134.512 468.953, 135.862 464.341, 138.188 459.683, 141.520 454.989, 145.887 450.271, 151.314 445.542, 157.825 440.817, 165.438 436.110, 174.168 431.827, 183.204 431.437, 184.027 427.561, 193.245 426.815, 195.020 423.299, 204.382 422.261, 207.147 419.997, 213.865 417.793, 220.404 414.887, 229.972 413.429, 234.777 413.255, 235.411 412.493, 238.189 409.850, 247.833 409.188, 250.248 406.783, 259.954 405.089, 266.791 402.904, 276.549 401.152, 284.373 399.170, 294.175 397.394, 302.953 395.602, 312.791 393.836, 322.483 392.222, 332.352 390.608, 342.221 390.496, 342.907 389.700, 348.354 388.254, 358.249 387.391, 364.162 386.105, 374.079 384.820, 383.996 384.537, 386.177 383.405, 396.113 382.273, 406.049 381.951, 408.876 380.967, 418.827 379.983, 428.779 379.647, 432.174 378.807, 442.139 377.966, 452.104 377.639, 455.984 376.938, 465.959 376.237, 475.935 375.936, 480.211 375.372, 490.195 374.808, 500.179 374.550, 504.757 374.121, 514.748 373.692, 524.738 373.487, 529.521 373.192, 539.517 372.897, 549.512 372.753, 554.400 372.592, 564.399 372.431, 574.397 372.353, 579.289 372.326, 589.289 372.299, 599.289 372.287, 604.084 372.395, 614.084 372.504, 624.083 372.554, 628.681 372.800, 638.678 373.046, 648.675 373.152, 652.978 373.539, 662.971 373.925, 672.963 374.077, 676.877 374.607, 686.863 375.138, 696.849 375.320, 700.282 376.000, 710.259 376.679, 720.235 376.874, 723.103 377.708, 733.068 378.543, 743.033 378.728, 745.255 379.724, 755.205 380.720, 765.155 380.870, 766.659 382.036, 776.591 383.202, 786.523 383.287, 787.244 384.633, 797.153 385.963, 806.943 387.502, 816.824 388.884, 825.701 390.629, 835.547 392.032, 843.465 394.000, 853.270 395.390, 860.195 397.601, 869.947 398.941, 875.854 401.419, 885.542 402.666, 890.416 405.440, 900.023 405.685, 900.872 406.548, 903.859 406.856, 904.804 409.961, 914.310 410.568, 916.170 414.044, 925.547 414.708, 927.339 414.709, 927.343 418.605, 936.553 418.707, 936.794 418.954, 937.376 423.284, 946.274 427.684, 954.047 432.139, 960.709 436.632, 966.280 441.149, 970.781 445.678, 974.237 450.204, 976.678 454.717, 978.132 457.205, 978.410 459.205, 978.633 " fill="none" stroke="rgb(0, 0, 0)" stroke-linecap="butt" stroke-linejoin="round" stroke-opacity="1.0" stroke-width="3.0" />
            <path d=" M 360.809, 552.368 360.757, 554.129 360.597, 564.128 360.437, 574.127 360.360, 578.980 360.338, 588.980 360.316, 598.980 360.305, 603.736 360.325, 605.407 360.442, 615.406 360.559, 625.406 360.592, 628.295 360.850, 638.292 361.108, 648.288 361.218, 652.555 361.409, 657.287 361.811, 667.279 362.049, 673.213 362.174, 676.318 362.178, 676.418 362.728, 686.403 363.197, 694.926 363.465, 699.788 363.476, 699.941 " fill="none" stroke="rgb(0, 0, 0)" stroke-linecap="butt" stroke-linejoin="round" stroke-opacity="1.0" stroke-width="3.0" />
            <path d=" M 475.596, 134.182 471.080, 134.590 466.498, 135.940 461.858, 138.267 457.170, 141.599 452.446, 145.965 447.699, 151.392 442.941, 157.901 438.187, 165.512 433.452, 174.240 429.147, 183.266 428.751, 184.096 424.855, 193.306 424.102, 195.086 420.567, 204.440 419.520, 207.210 416.309, 216.680 415.026, 220.462 412.104, 230.026 410.637, 234.831 410.255, 236.213 408.009, 244.357 406.371, 250.296 403.953, 260.000 402.249, 266.834 401.101, 271.929 398.903, 281.684 398.289, 284.410 396.296, 294.209 394.511, 302.983 392.709, 312.819 390.934, 322.506 389.311, 332.373 387.687, 342.241 387.575, 342.922 386.122, 352.816 384.668, 362.710 384.453, 364.169 383.161, 374.085 381.869, 384.001 381.585, 386.176 380.842, 392.662 379.704, 402.597 378.986, 408.865 377.997, 418.816 377.008, 428.767 376.671, 432.155 375.826, 442.119 374.981, 452.083 374.653, 455.955 373.949, 465.930 373.245, 475.906 372.943, 480.172 372.377, 490.156 371.811, 500.140 371.552, 504.709 371.121, 514.699 370.691, 524.690 370.485, 529.463 370.190, 539.459 369.895, 549.454 369.751, 554.332 369.590, 564.331 369.429, 574.330 369.351, 579.212 369.325, 589.212 369.300, 599.212 369.288, 603.997 369.398, 613.996 369.509, 623.996 369.560, 628.584 369.809, 638.581 370.058, 648.578 370.165, 652.872 370.556, 662.865 370.946, 672.857 371.099, 676.762 371.634, 686.748 372.169, 696.733 372.353, 700.158 373.038, 710.135 373.723, 720.111 373.920, 722.971 374.761, 732.935 375.601, 742.900 375.788, 745.115 376.792, 755.064 377.795, 765.014 377.947, 766.512 379.121, 776.443 380.296, 786.373 380.381, 787.090 381.737, 796.997 383.076, 806.783 384.626, 816.662 386.018, 825.535 387.775, 835.379 389.187, 843.294 391.169, 853.096 392.569, 860.019 394.795, 869.768 396.144, 875.674 398.639, 885.358 399.104, 887.164 399.894, 890.232 402.309, 898.538 403.802, 903.672 405.719, 909.503 407.850, 915.981 411.346, 925.350 411.881, 926.785 412.018, 927.152 415.936, 936.352 416.290, 937.183 420.649, 946.081 425.078, 953.853 429.562, 960.516 434.084, 966.086 438.630, 970.588 443.188, 974.046 447.743, 976.488 452.285, 977.945 456.802, 978.448 " fill="none" stroke="rgb(0, 0, 0)" stroke-linecap="butt" stroke-linejoin="round" stroke-opacity="1.0" stroke-width="3.0" />
            <path d=" M 477.993, 134.105 475.596, 134.182 " fill="none" stroke="rgb(0, 0, 0)" stroke-linecap="butt" stroke-linejoin="round" stroke-opacity="1.0" stroke-width="3.0" />
            <path d=" M 544.941, 245.443 543.041, 236.232 540.854, 226.474 540.502, 224.903 538.135, 215.188 537.832, 213.944 535.268, 204.278 535.030, 203.378 532.251, 193.772 532.095, 193.234 529.080, 183.700 529.029, 183.539 525.831, 174.324 522.502, 165.617 519.044, 157.452 515.457, 149.861 511.743, 142.878 507.904, 136.539 503.944, 130.879 499.866, 125.935 495.673, 121.745 491.370, 118.347 486.963, 115.779 482.458, 114.080 477.861, 113.288 473.180, 113.441 468.353, 113.609 463.538, 114.745 458.657, 116.898 453.722, 120.103 448.743, 124.390 443.735, 129.789 438.710, 136.328 433.683, 144.027 428.768, 152.736 428.672, 152.908 424.240, 161.872 423.692, 162.982 419.686, 172.144 418.761, 174.258 415.131, 183.576 413.899, 186.741 410.604, 196.182 409.124, 200.425 406.130, 209.966 404.456, 215.300 401.735, 224.922 399.917, 231.349 397.443, 241.038 395.527, 248.545 393.281, 258.290 391.306, 266.856 389.271, 276.647 387.277, 286.240 385.438, 296.069 383.599, 305.899 383.459, 306.645 382.633, 311.565 380.978, 321.427 379.873, 328.015 378.392, 337.904 376.911, 347.794 376.538, 350.281 375.222, 360.194 373.907, 370.107 373.473, 373.370 372.316, 383.303 371.158, 393.235 370.696, 397.198 369.691, 407.148 368.685, 417.097 368.222, 421.678 367.364, 431.641 366.506, 441.604 366.066, 446.713 365.352, 456.687 364.637, 466.662 364.241, 472.202 363.667, 482.185 363.506, 484.985 362.932, 494.969 362.756, 498.039 362.321, 508.030 361.886, 518.020 361.621, 524.116 361.324, 534.112 361.027, 544.107 360.842, 550.320 360.809, 552.368 360.650, 562.367 360.490, 572.366 360.423, 576.539 360.409, 582.726 360.387, 592.726 360.365, 602.659 360.482, 612.658 360.599, 622.657 360.668, 628.567 360.926, 638.564 361.184, 648.561 361.328, 654.155 361.450, 657.191 361.852, 667.183 362.081, 672.864 362.332, 679.111 362.340, 679.314 362.890, 689.299 363.208, 695.080 363.476, 699.941 363.696, 703.943 363.945, 707.475 364.648, 717.450 365.350, 727.425 365.387, 727.944 366.248, 737.906 367.109, 747.869 367.400, 751.225 368.427, 761.172 369.455, 771.119 369.722, 773.703 370.924, 783.631 372.126, 793.558 372.338, 795.301 373.725, 805.204 375.113, 815.107 375.231, 815.949 376.817, 825.822 378.385, 835.586 380.007, 844.458 381.780, 854.160 383.808, 863.952 385.398, 871.627 387.677, 881.364 389.219, 887.951 391.774, 897.619 393.224, 903.103 396.084, 912.685 397.391, 917.065 400.593, 926.538 401.703, 929.823 405.288, 939.158 406.139, 941.372 410.159, 950.528 410.680, 951.713 415.197, 960.635 415.308, 960.854 420.005, 968.807 424.754, 975.589 429.538, 981.223 434.344, 985.735 439.155, 989.152 443.959, 991.507 448.743, 992.833 453.581, 993.216 458.274, 993.545 462.926, 992.917 467.526, 991.370 472.066, 988.943 476.538, 985.675 480.934, 981.604 485.249, 976.768 489.477, 971.206 493.611, 964.955 497.649, 958.052 501.586, 950.532 505.419, 942.429 509.144, 933.778 512.760, 924.611 516.173, 915.211 516.265, 914.958 519.445, 905.477 519.656, 904.849 522.625, 895.300 522.932, 894.314 525.709, 884.707 526.093, 883.379 528.692, 873.723 529.137, 872.072 531.573, 862.373 532.064, 860.416 534.347, 850.680 534.873, 848.436 537.014, 838.668 537.565, 836.154 539.572, 826.358 540.139, 823.593 540.744, 820.436 " fill="none" stroke="rgb(0, 0, 0)" stroke-linecap="butt" stroke-linejoin="round" stroke-opacity="1.0" stroke-width="3.0" />
            <path d=" M 554.473, 732.584 554.867, 729.435 556.018, 719.502 556.505, 715.297 557.566, 705.354 558.027, 701.033 559.001, 691.080 559.434, 686.655 560.323, 676.695 560.726, 672.177 561.532, 662.210 561.904, 657.611 562.628, 647.638 562.967, 642.969 563.611, 632.990 563.917, 628.263 564.482, 618.279 564.752, 613.503 565.238, 603.515 565.473, 598.702 565.882, 588.710 566.080, 583.869 566.412, 573.875 566.574, 569.016 566.829, 559.019 566.953, 554.152 567.132, 544.154 567.219, 539.289 567.320, 529.289 567.370, 524.437 567.379, 520.564 " fill="none" stroke="rgb(0, 0, 0)" stroke-linecap="butt" stroke-linejoin="round" stroke-opacity="1.0" stroke-width="3.0" />
            <path d=" M 473.180, 113.441 468.425, 114.576 463.604, 116.728 458.729, 119.932 453.811, 124.220 448.863, 129.621 443.899, 136.162 438.933, 143.865 434.064, 152.600 433.981, 152.749 429.593, 161.735 429.059, 162.828 425.095, 172.009 424.187, 174.111 420.595, 183.444 419.381, 186.601 418.044, 190.478 414.785, 199.932 414.661, 200.293 411.700, 209.845 410.047, 215.178 407.355, 224.809 405.559, 231.237 403.113, 240.934 401.218, 248.446 400.906, 249.816 398.685, 259.566 397.338, 265.478 397.044, 266.770 395.032, 276.565 393.059, 286.167 391.240, 296.000 389.422, 305.833 389.282, 306.588 388.893, 308.932 387.257, 318.797 385.734, 327.973 384.269, 337.865 382.804, 347.757 382.434, 350.256 381.133, 360.171 379.831, 370.086 379.401, 373.363 378.551, 380.731 377.406, 390.665 376.651, 397.210 375.656, 407.160 374.661, 417.111 374.201, 421.709 373.351, 431.673 372.501, 441.636 372.064, 446.763 371.356, 456.738 370.649, 466.713 370.489, 468.960 370.254, 472.273 369.685, 482.256 369.117, 492.240 368.781, 498.131 368.349, 508.121 367.917, 518.112 367.653, 524.228 367.357, 534.224 367.061, 544.220 366.877, 550.453 366.716, 560.452 366.556, 570.451 366.456, 576.693 366.431, 586.693 366.407, 596.693 366.392, 602.833 366.505, 612.832 366.617, 622.832 366.684, 628.762 366.936, 638.759 367.188, 648.756 367.330, 654.369 367.724, 664.361 368.118, 674.353 368.323, 679.547 368.863, 689.533 369.403, 699.518 369.656, 704.194 370.347, 714.170 371.038, 724.147 371.320, 728.212 372.167, 738.177 373.015, 748.141 373.302, 751.511 374.314, 761.459 375.326, 771.408 375.590, 774.004 376.774, 783.934 377.959, 793.863 378.168, 795.616 379.536, 805.522 380.904, 815.428 381.021, 816.278 382.585, 826.155 384.131, 835.927 385.596, 844.058 387.123, 852.532 387.480, 854.512 389.481, 864.310 391.050, 871.989 393.299, 881.733 393.386, 882.110 394.405, 886.526 394.820, 888.321 397.342, 897.998 398.771, 903.481 401.596, 913.073 401.753, 913.608 402.884, 917.448 406.047, 926.935 407.139, 930.211 410.683, 939.562 411.518, 941.764 414.255, 948.082 416.000, 952.108 420.470, 961.053 420.569, 961.251 425.206, 969.204 429.894, 975.986 434.618, 981.619 439.363, 986.128 444.114, 989.543 448.857, 991.894 453.581, 993.216 " fill="none" stroke="rgb(0, 0, 0)" stroke-linecap="butt" stroke-linejoin="round" stroke-opacity="1.0" stroke-width="3.0" />
            <path d=" M 479.366, 519.572 479.351, 520.538 479.374, 522.141 480.757, 522.166 " fill="none" stroke="rgb(0, 0, 0)" stroke-linecap="butt" stroke-linejoin="round" stroke-opacity="1.0" stroke-width="3.0" />
            <path d=" M 565.299, 523.694 565.290, 522.073 565.315, 520.527 565.317, 520.438 565.380, 518.815 565.429, 518.034 565.479, 517.233 565.611, 515.720 565.775, 514.300 565.966, 512.999 566.183, 511.838 566.240, 511.600 566.421, 510.837 566.676, 510.013 566.944, 509.380 567.219, 508.946 567.402, 508.799 567.499, 508.720 567.777, 508.704 " fill="none" stroke="rgb(0, 0, 0)" stroke-linecap="butt" stroke-linejoin="round" stroke-opacity="1.0" stroke-width="3.0" />
            <path d=" M 567.993, 520.575 567.977, 520.080 567.947, 519.615 567.903, 519.193 567.848, 518.825 567.782, 518.522 567.707, 518.291 567.625, 518.139 567.539, 518.071 " fill="none" stroke="rgb(0, 0, 0)" stroke-linecap="butt" stroke-linejoin="round" stroke-opacity="1.0" stroke-width="3.0" />
            <path d=" M 530.394, 471.994 530.519, 477.603 530.811, 477.606 536.096, 477.671 536.303, 477.486 536.037, 472.005 530.647, 471.777 530.523, 471.883 530.394, 471.994 " fill="none" stroke="rgb(0, 0, 0)" stroke-linecap="butt" stroke-linejoin="round" stroke-opacity="1.0" stroke-width="3.0" />
            <path d=" M 535.975, 472.058 530.394, 471.994 " fill="none" stroke="rgb(0, 0, 0)" stroke-linecap="butt" stroke-linejoin="round" stroke-opacity="1.0" stroke-width="3.0" />
            <path d=" M 536.096, 477.671 535.975, 472.058 536.037, 472.005 " fill="none" stroke="rgb(0, 0, 0)" stroke-linecap="butt" stroke-linejoin="round" stroke-opacity="1.0" stroke-width="3.0" />
            <path d=" M 532.183, 474.430 532.125, 474.640 532.108, 474.856 532.137, 475.085 532.210, 475.297 532.229, 475.330 532.339, 475.517 532.482, 475.676 532.653, 475.803 532.687, 475.822 532.870, 475.907 532.909, 475.918 533.086, 475.957 533.113, 475.962 533.146, 475.966 533.184, 475.969 533.227, 475.970 533.269, 475.970 533.311, 475.969 533.352, 475.966 533.390, 475.962 533.423, 475.956 533.450, 475.950 533.623, 475.904 533.664, 475.891 533.731, 475.859 533.841, 475.799 533.869, 475.784 " fill="none" stroke="rgb(0, 0, 0)" stroke-linecap="butt" stroke-linejoin="round" stroke-opacity="1.0" stroke-width="3.0" />
            <path d=" M 532.293, 474.215 532.281, 474.236 532.261, 474.276 532.217, 474.362 532.217, 474.363 532.183, 474.430 532.220, 474.354 " fill="none" stroke="rgb(0, 0, 0)" stroke-linecap="butt" stroke-linejoin="round" stroke-opacity="1.0" stroke-width="3.0" />
            <path d=" M 533.869, 475.784 533.994, 475.689 534.105, 475.577 534.197, 475.450 534.270, 475.311 534.323, 475.161 534.353, 475.005 534.361, 474.846 534.346, 474.686 534.309, 474.529 534.250, 474.378 534.171, 474.237 534.073, 474.107 533.957, 473.993 533.828, 473.895 533.686, 473.817 533.536, 473.759 533.380, 473.723 533.221, 473.710 533.062, 473.720 532.907, 473.752 532.759, 473.806 532.621, 473.881 532.496, 473.976 532.386, 474.087 532.293, 474.215 " fill="none" stroke="rgb(0, 0, 0)" stroke-linecap="butt" stroke-linejoin="round" stroke-opacity="1.0" stroke-width="3.0" />
            <path d=" M 627.307, 873.042 629.480, 873.523 637.394, 874.954 645.301, 875.645 653.183, 875.613 661.025, 874.875 668.811, 873.451 676.526, 871.361 684.157, 868.627 691.691, 865.269 699.116, 861.308 706.421, 856.768 713.596, 851.668 720.632, 846.033 727.518, 839.883 734.248, 833.241 740.813, 826.127 747.208, 818.564 753.348, 810.671 753.425, 810.573 759.259, 802.451 759.458, 802.173 764.997, 793.847 765.303, 793.386 770.557, 784.877 770.955, 784.232 775.933, 775.559 776.409, 774.729 781.121, 765.909 781.661, 764.898 786.116, 755.946 786.707, 754.757 790.914, 745.685 791.545, 744.324 795.511, 735.144 796.171, 733.617 799.904, 724.340 800.582, 722.654 804.089, 713.289 804.777, 711.451 808.062, 702.007 808.752, 700.026 811.822, 690.509 812.505, 688.395 815.366, 678.812 816.035, 676.572 818.691, 666.931 819.340, 664.575 821.794, 654.881 822.417, 652.419 824.674, 642.677 825.267, 640.117 827.329, 630.332 827.887, 627.686 829.757, 617.863 830.275, 615.140 831.956, 605.282 832.431, 602.493 833.924, 592.605 834.354, 589.758 835.660, 579.844 836.042, 576.951 837.163, 567.014 837.493, 564.085 838.430, 554.129 838.708, 551.174 839.461, 541.202 839.685, 538.231 840.253, 528.247 840.423, 525.270 840.806, 515.278 840.921, 512.306 841.119, 502.308 841.177, 499.351 841.189, 489.351 841.192, 486.420 841.015, 476.422 840.964, 473.527 840.597, 463.533 840.492, 460.685 839.932, 450.701 839.776, 447.910 839.020, 437.938 838.814, 435.215 837.859, 425.261 837.606, 422.616 836.448, 412.683 836.151, 410.127 834.786, 400.220 834.448, 397.764 832.872, 387.889 832.497, 385.542 830.704, 375.704 830.298, 373.478 828.281, 363.684 827.850, 361.588 825.603, 351.844 825.153, 349.889 822.669, 340.202 822.206, 338.397 819.478, 328.777 819.011, 327.132 816.028, 317.587 815.567, 316.110 812.321, 306.651 811.874, 305.350 808.355, 295.990 807.935, 294.872 804.131, 285.624 803.749, 284.695 799.648, 275.574 799.318, 274.839 794.909, 265.863 794.644, 265.325 789.912, 256.515 789.729, 256.173 784.662, 247.552 784.576, 247.406 779.187, 239.044 773.567, 231.112 767.719, 223.630 761.648, 216.623 755.360, 210.113 748.861, 204.125 742.156, 198.681 735.255, 193.806 728.165, 189.522 720.896, 185.854 713.458, 182.825 705.862, 180.457 698.120, 178.773 690.246, 177.794 682.253, 177.540 674.158, 178.032 671.924, 178.233 " fill="none" stroke="rgb(0, 0, 0)" stroke-linecap="butt" stroke-linejoin="round" stroke-opacity="1.0" stroke-width="3.0" />
            <path d=" M 629.480, 873.523 628.569, 873.271 621.577, 871.335 613.704, 868.375 605.881, 864.632 598.128, 860.094 590.466, 854.752 582.919, 848.601 575.631, 841.753 575.508, 841.637 568.689, 834.322 568.257, 833.859 561.903, 826.136 561.189, 825.268 555.293, 817.191 554.329, 815.870 548.878, 807.486 547.701, 805.675 544.496, 800.152 542.208, 796.208 541.328, 794.693 540.767, 793.610 536.305, 785.003 535.236, 782.940 534.857, 782.121 530.656, 773.046 530.561, 772.841 529.448, 770.436 528.182, 767.368 527.451, 765.597 523.987, 757.205 520.544, 747.817 518.877, 743.274 518.395, 741.788 515.308, 732.276 514.140, 728.674 511.398, 719.057 511.151, 718.194 509.796, 713.440 507.386, 703.735 505.866, 697.611 503.777, 687.832 502.368, 681.230 500.591, 671.389 499.319, 664.342 497.846, 654.452 496.735, 646.999 495.557, 637.068 494.630, 629.251 493.741, 619.290 493.014, 611.154 492.408, 601.173 491.898, 592.768 491.571, 582.773 491.288, 574.151 491.236, 564.151 491.190, 555.365 491.409, 545.367 491.605, 536.474 492.095, 526.486 492.450, 519.240 492.533, 517.541 493.078, 510.391 493.265, 507.932 493.973, 498.632 495.002, 488.685 495.919, 479.810 497.217, 469.894 498.364, 461.139 499.934, 451.263 501.297, 442.682 503.141, 432.854 504.708, 424.501 506.829, 414.729 508.582, 406.656 510.985, 396.949 512.231, 391.912 512.902, 389.203 515.592, 379.571 517.651, 372.198 520.634, 362.653 522.809, 355.692 526.091, 346.246 527.722, 341.553 528.354, 339.735 531.945, 330.402 534.264, 324.372 538.171, 315.166 539.322, 312.456 539.831, 311.255 540.516, 309.643 541.265, 308.039 545.498, 298.979 546.561, 296.705 547.083, 295.588 547.537, 294.705 547.707, 294.374 548.629, 292.578 548.994, 291.869 549.349, 291.177 552.060, 285.900 553.941, 282.239 558.859, 273.532 560.001, 271.509 561.065, 269.627 566.342, 261.133 568.426, 257.777 572.719, 251.505 572.776, 251.421 572.788, 251.404 575.999, 246.712 582.029, 238.735 583.758, 236.448 590.181, 228.784 591.675, 227.001 598.500, 219.692 599.725, 218.380 606.957, 211.475 607.882, 210.592 615.524, 204.144 616.120, 203.641 624.170, 197.707 624.417, 197.525 632.748, 192.242 641.091, 187.786 649.423, 184.150 657.724, 181.321 665.976, 179.286 673.449, 178.140 674.158, 178.032 " fill="none" stroke="rgb(0, 0, 0)" stroke-linecap="butt" stroke-linejoin="round" stroke-opacity="1.0" stroke-width="3.0" />
            <path d=" M 671.924, 178.233 663.731, 179.488 655.470, 181.522 647.157, 184.350 638.815, 187.985 630.462, 192.437 622.122, 197.716 614.067, 203.642 613.816, 203.827 606.167, 210.268 605.568, 210.773 598.328, 217.672 597.402, 218.554 590.570, 225.856 589.344, 227.167 582.914, 234.825 581.419, 236.605 575.381, 244.577 573.653, 246.859 570.663, 251.220 570.547, 251.388 570.513, 251.438 566.073, 257.913 560.789, 266.403 558.705, 269.750 553.780, 278.454 551.576, 282.349 551.522, 282.455 548.436, 288.450 548.422, 288.478 547.681, 289.917 546.975, 291.288 544.712, 295.684 544.028, 297.147 540.628, 304.409 539.186, 307.488 538.140, 309.724 537.100, 312.168 533.187, 321.371 531.884, 324.436 528.288, 333.767 527.707, 335.276 526.924, 337.307 526.226, 339.118 525.970, 339.783 522.682, 349.227 520.421, 355.722 517.434, 365.266 515.261, 372.209 512.567, 381.839 510.510, 389.195 508.103, 398.901 506.188, 406.628 504.063, 416.400 502.313, 424.453 500.467, 434.281 498.902, 442.613 498.230, 446.832 496.659, 456.708 495.968, 461.048 494.668, 470.964 493.606, 479.070 493.524, 479.698 492.495, 489.645 491.579, 498.498 491.162, 503.976 490.896, 507.463 490.676, 510.351 490.191, 516.729 490.141, 517.386 490.052, 519.198 489.911, 522.081 489.421, 532.069 489.214, 536.297 488.996, 546.294 488.802, 555.166 488.856, 565.166 488.903, 573.931 489.233, 583.925 489.517, 592.527 490.126, 602.508 490.637, 610.893 491.530, 620.853 492.257, 628.970 493.439, 638.900 494.368, 646.698 495.846, 656.589 496.957, 664.024 498.738, 673.864 500.011, 680.893 502.105, 690.672 503.516, 697.258 503.975, 699.103 506.391, 708.807 507.452, 713.071 510.201, 722.685 510.368, 723.268 511.803, 728.290 514.897, 737.799 515.970, 741.098 516.548, 742.876 520.000, 752.261 521.666, 756.794 525.489, 766.035 526.823, 769.257 527.135, 770.013 529.977, 776.138 532.932, 782.506 534.310, 785.158 535.760, 787.949 539.033, 794.249 540.266, 796.368 541.725, 798.878 544.018, 802.821 545.414, 805.222 550.873, 813.601 552.052, 815.410 557.956, 823.481 558.922, 824.801 565.283, 832.517 565.999, 833.387 572.825, 840.695 573.260, 841.161 580.554, 848.002 580.681, 848.121 588.239, 854.270 595.911, 859.610 603.675, 864.147 611.509, 867.891 619.393, 870.852 627.307, 873.042 " fill="none" stroke="rgb(0, 0, 0)" stroke-linecap="butt" stroke-linejoin="round" stroke-opacity="1.0" stroke-width="3.0" />
            <path d=" M 787.339, 563.518 777.351, 563.030 776.581, 562.992 772.272, 560.187 763.891, 554.732 755.509, 549.277 753.623, 548.050 752.956, 547.615 752.287, 547.179 751.617, 546.742 750.948, 546.305 750.175, 545.662 749.461, 544.781 748.820, 543.680 748.266, 542.378 747.811, 540.901 747.462, 539.277 747.226, 537.536 747.108, 535.713 747.110, 533.842 747.179, 532.780 747.183, 532.727 747.233, 531.960 747.474, 530.104 747.695, 528.984 747.828, 528.308 748.289, 526.609 748.847, 525.038 749.010, 524.679 749.019, 524.659 749.491, 523.625 750.209, 522.399 750.988, 521.381 751.223, 521.155 751.274, 521.106 751.811, 520.591 752.661, 520.044 753.382, 519.690 754.104, 519.336 754.824, 518.982 755.544, 518.629 755.905, 518.452 764.885, 514.052 773.865, 509.653 780.293, 506.504 " fill="none" stroke="rgb(0, 0, 0)" stroke-linecap="butt" stroke-linejoin="round" stroke-opacity="1.0" stroke-width="3.0" />
            <path d=" M 681.583, 253.145 679.519, 253.292 674.666, 253.638 673.177, 253.744 664.702, 255.183 656.184, 257.468 656.076, 257.508 647.647, 260.593 639.118, 264.556 630.627, 269.377 622.344, 274.980 622.208, 275.073 614.364, 281.276 613.894, 281.648 606.502, 288.383 605.719, 289.096 598.779, 296.296 597.715, 297.400 591.217, 305.002 589.909, 306.533 583.840, 314.481 582.328, 316.462 576.683, 324.716 575.006, 327.169 569.785, 335.698 567.984, 338.641 563.354, 347.099 562.888, 347.950 561.299, 350.852 560.255, 352.986 559.576, 354.376 557.524, 358.572 557.188, 359.260 555.976, 361.738 554.985, 363.764 552.916, 368.511 551.403, 371.981 550.318, 374.471 549.071, 377.329 548.777, 378.089 545.163, 387.413 543.581, 391.495 542.694, 394.076 541.195, 398.439 538.529, 406.198 537.337, 410.141 534.442, 419.713 533.937, 421.383 531.398, 431.055 529.838, 437.000 528.671, 442.214 526.488, 451.972 526.259, 452.992 524.429, 462.823 523.224, 469.296 521.743, 479.185 520.747, 485.841 519.610, 495.776 518.834, 502.556 518.487, 506.870 518.418, 507.724 518.266, 509.623 517.483, 519.369 517.012, 529.358 516.981, 530.009 516.685, 536.292 516.529, 546.291 516.422, 553.168 516.583, 563.167 516.692, 569.924 517.175, 579.913 517.493, 586.490 518.303, 596.457 518.818, 602.796 519.962, 612.730 520.657, 618.774 521.097, 621.701 522.583, 631.590 522.853, 633.388 522.999, 634.361 524.837, 644.191 525.829, 649.495 528.031, 659.250 529.086, 663.924 529.129, 664.118 531.708, 673.780 532.881, 678.178 535.850, 687.727 537.062, 691.624 537.540, 692.958 537.752, 693.547 538.091, 694.493 539.197, 697.573 540.664, 701.662 541.650, 704.411 545.038, 712.650 546.442, 716.065 546.509, 716.228 546.621, 716.499 547.903, 719.233 550.847, 725.510 551.522, 726.950 551.946, 727.853 552.317, 728.547 554.473, 732.584 557.602, 738.443 562.797, 746.987 563.559, 748.240 569.257, 756.458 569.789, 757.226 576.006, 765.059 576.264, 765.384 582.956, 772.699 589.836, 779.165 596.876, 784.780 604.048, 789.541 611.325, 793.452 616.876, 795.768 618.682, 796.521 626.092, 798.758 633.532, 800.174 640.978, 800.784 648.407, 800.606 655.799, 799.660 663.132, 797.965 670.388, 795.543 677.550, 792.419 684.599, 788.617 691.521, 784.160 698.301, 779.076 704.925, 773.390 711.381, 767.129 717.656, 760.319 723.740, 752.987 729.623, 745.159 735.296, 736.863 740.591, 728.380 740.751, 728.123 745.710, 719.440 745.979, 718.968 750.616, 710.107 750.974, 709.421 755.300, 700.405 755.730, 699.509 759.756, 690.355 760.240, 689.256 763.978, 679.981 764.499, 678.688 767.958, 669.305 768.502, 667.829 771.690, 658.351 772.245, 656.702 775.170, 647.140 775.724, 645.332 778.394, 635.695 778.935, 633.741 781.354, 624.039 781.874, 621.954 784.049, 612.193 784.539, 609.991 786.474, 600.180 786.928, 597.877 788.625, 588.022 789.037, 585.633 790.500, 575.741 790.864, 573.282 792.095, 563.358 792.407, 560.844 793.407, 550.894 793.664, 548.343 794.436, 538.373 794.623, 535.956 " fill="none" stroke="rgb(0, 0, 0)" stroke-linecap="butt" stroke-linejoin="round" stroke-opacity="1.0" stroke-width="3.0" />
            <path d=" M 780.293, 506.504 790.261, 507.308 791.030, 507.370 " fill="none" stroke="rgb(0, 0, 0)" stroke-linecap="butt" stroke-linejoin="round" stroke-opacity="1.0" stroke-width="3.0" />
            <path d=" M 825.084, 522.609 825.357, 512.613 825.365, 512.336 825.377, 502.336 825.381, 499.667 825.127, 489.671 825.061, 487.045 824.539, 477.059 824.405, 474.493 823.611, 464.525 823.413, 462.034 822.373, 452.317 822.092, 449.690 820.757, 439.780 820.447, 437.479 818.834, 427.610 818.477, 425.425 816.572, 415.609 816.174, 413.559 813.966, 403.806 813.537, 401.908 811.015, 392.231 810.564, 390.500 807.721, 380.912 807.260, 379.360 804.087, 369.876 803.630, 368.510 800.125, 359.145 799.684, 357.968 795.837, 348.738 795.427, 347.755 791.219, 338.683 790.858, 337.905 786.269, 329.020 785.977, 328.455 780.990, 319.788 780.788, 319.437 775.388, 311.021 775.297, 310.880 769.515, 302.808 763.453, 295.236 757.123, 288.183 750.533, 281.683 743.689, 275.777 736.604, 270.501 729.290, 265.886 721.763, 261.954 719.486, 261.000 714.043, 258.721 706.146, 256.195 698.090, 254.398 689.896, 253.371 681.583, 253.145 " fill="none" stroke="rgb(0, 0, 0)" stroke-linecap="butt" stroke-linejoin="round" stroke-opacity="1.0" stroke-width="3.0" />
            <path d=" M 656.076, 257.508 659.716, 258.976 665.973, 262.256 672.057, 266.218 677.952, 270.845 683.648, 276.115 689.134, 281.995 694.402, 288.450 699.448, 295.438 704.266, 302.924 708.847, 310.892 713.183, 319.325 717.267, 328.199 721.095, 337.486 724.558, 346.867 724.664, 347.154 727.803, 356.649 727.975, 357.169 730.812, 366.758 731.030, 367.497 733.576, 377.167 733.826, 378.116 736.087, 387.857 736.355, 389.011 738.341, 398.812 738.615, 400.161 740.335, 410.012 740.602, 411.542 742.066, 421.434 742.317, 423.128 743.538, 433.053 743.764, 434.891 744.752, 444.842 744.947, 446.803 745.712, 456.774 745.870, 458.843 746.411, 468.828 746.528, 470.992 746.846, 480.987 746.917, 483.230 747.013, 493.230 747.036, 495.537 746.914, 505.536 746.886, 507.890 746.677, 514.135 746.487, 515.339 746.242, 516.509 745.945, 517.633 745.598, 518.699 745.205, 519.697 744.771, 520.615 744.299, 521.444 743.794, 522.175 743.262, 522.800 742.709, 523.314 742.139, 523.709 741.559, 523.983 741.072, 524.107 " fill="none" stroke="rgb(0, 0, 0)" stroke-linecap="butt" stroke-linejoin="round" stroke-opacity="1.0" stroke-width="3.0" />
            <path d=" M 800.235, 536.278 800.982, 536.326 803.226, 536.470 812.700, 537.030 814.630, 537.144 822.392, 537.602 824.337, 537.717 824.348, 537.718 830.427, 538.081 830.958, 528.096 831.133, 524.804 831.407, 514.808 831.497, 511.527 831.513, 501.527 831.518, 498.271 831.274, 488.274 831.195, 485.061 830.687, 475.074 830.526, 471.920 829.751, 461.950 829.512, 458.872 828.466, 448.927 828.151, 445.940 826.828, 436.028 826.444, 433.149 824.839, 423.279 824.391, 420.524 822.496, 410.705 821.992, 408.089 819.801, 398.332 819.248, 395.870 816.752, 386.186 816.160, 383.893 813.630, 375.254 812.730, 372.184 809.595, 362.688 808.961, 360.769 806.674, 354.590 804.855, 349.676 801.035, 340.434 800.414, 338.933 796.233, 329.849 795.643, 328.567 791.089, 319.665 790.548, 318.608 785.604, 309.915 785.131, 309.084 779.799, 300.655 779.401, 300.025 773.610, 291.810 773.363, 291.460 767.174, 283.606 767.026, 283.419 760.399, 275.933 753.491, 269.032 746.315, 262.744 738.882, 257.101 731.205, 252.133 723.301, 247.867 715.185, 244.332 706.876, 241.557 698.392, 239.567 689.755, 238.386 680.987, 238.038 670.987, 238.099 663.065, 238.148 " fill="none" stroke="rgb(0, 0, 0)" stroke-linecap="butt" stroke-linejoin="round" stroke-opacity="1.0" stroke-width="3.0" />
            <path d=" M 680.987, 238.038 672.112, 238.545 671.566, 238.629 663.157, 239.926 660.460, 240.605 654.147, 242.195 645.111, 245.367 636.080, 249.454 627.343, 254.318 627.085, 254.462 618.755, 259.995 618.158, 260.392 610.260, 266.526 609.333, 267.246 601.880, 273.913 600.644, 275.019 593.640, 282.156 592.126, 283.698 585.570, 291.249 583.815, 293.269 577.703, 301.184 575.748, 303.716 570.072, 311.948 567.960, 315.011 562.708, 323.521 560.485, 327.124 559.549, 328.818 559.004, 329.806 558.037, 331.555 555.171, 336.743 553.619, 339.552 553.360, 340.021 548.930, 348.986 547.707, 351.461 546.620, 353.661 546.165, 354.693 542.129, 363.843 540.296, 367.999 536.645, 377.309 534.419, 382.983 534.276, 383.397 531.002, 392.846 529.021, 398.560 526.116, 408.128 524.130, 414.669 521.585, 424.340 519.768, 431.247 517.579, 441.004 515.959, 448.226 514.122, 458.056 512.724, 465.537 511.236, 475.425 510.079, 483.106 508.936, 493.040 508.036, 500.859 507.381, 509.037 506.606, 518.719 " fill="none" stroke="rgb(0, 0, 0)" stroke-linecap="butt" stroke-linejoin="round" stroke-opacity="1.0" stroke-width="3.0" />
            <path d=" M 808.835, 528.181 809.179, 528.094 809.692, 527.856 810.197, 527.514 810.693, 527.071 811.173, 526.531 811.636, 525.901 812.077, 525.184 812.493, 524.388 812.881, 523.517 813.238, 522.580 813.554, 521.604 813.561, 521.583 813.847, 520.534 814.094, 519.441 823.225, 522.073 825.084, 522.609 824.884, 523.260 824.529, 524.202 824.144, 525.077 823.731, 525.877 823.294, 526.597 822.999, 527.005 822.835, 527.232 822.358, 527.774 821.868, 528.220 821.367, 528.564 820.859, 528.804 820.350, 528.935 819.843, 528.956 815.131, 528.624 813.711, 528.525 813.202, 528.489 808.835, 528.181 807.341, 528.076 806.905, 526.719 806.379, 525.523 805.771, 524.506 805.091, 523.687 804.349, 523.079 803.560, 522.694 802.735, 522.538 798.939, 522.316 798.437, 522.286 790.863, 521.843 790.648, 521.862 790.009, 521.919 789.148, 522.225 788.330, 522.760 787.859, 523.230 787.573, 523.516 786.853, 524.477 786.183, 525.629 785.574, 526.951 785.038, 528.422 784.583, 530.016 784.217, 531.706 783.947, 533.463 783.778, 535.258 789.703, 535.639 789.936, 535.654 794.623, 535.956 795.701, 536.026 800.000, 536.279 800.233, 536.293 800.235, 536.278 800.239, 536.231 800.247, 536.161 800.250, 536.132 800.291, 535.724 800.389, 535.172 800.523, 534.654 800.690, 534.183 800.700, 534.162 800.885, 533.772 801.104, 533.432 801.340, 533.174 801.586, 533.003 801.836, 532.924 " fill="none" stroke="rgb(0, 0, 0)" stroke-linecap="butt" stroke-linejoin="round" stroke-opacity="1.0" stroke-width="3.0" />
            <path d=" M 772.272, 560.187 771.020, 570.109 770.831, 571.603 769.339, 581.491 768.986, 583.825 767.251, 593.673 766.852, 595.938 764.872, 605.740 764.431, 607.921 762.203, 617.670 761.727, 619.752 759.246, 629.439 758.742, 631.407 756.003, 641.025 755.479, 642.865 752.478, 652.404 751.943, 654.103 748.673, 663.553 748.139, 665.097 744.591, 674.447 744.069, 675.824 740.236, 685.060 739.739, 686.259 735.613, 695.369 735.154, 696.381 730.725, 705.346 730.321, 706.163 725.576, 714.966 725.245, 715.581 720.174, 724.200 719.933, 724.610 714.524, 733.021 714.393, 733.225 708.632, 741.400 702.660, 749.109 696.486, 756.326 690.120, 763.026 683.574, 769.182 676.860, 774.767 669.990, 779.757 662.979, 784.126 655.842, 787.848 648.594, 790.899 641.253, 793.256 633.837, 794.895 626.365, 795.794 618.857, 795.935 616.876, 795.768 " fill="none" stroke="rgb(0, 0, 0)" stroke-linecap="butt" stroke-linejoin="round" stroke-opacity="1.0" stroke-width="3.0" />
            <path d=" M 789.936, 535.654 789.164, 545.625 788.979, 548.010 787.927, 557.955 787.339, 563.518 778.991, 558.013 777.236, 556.856 772.922, 554.011 765.114, 548.862 764.452, 548.425 763.790, 547.988 763.126, 547.550 762.463, 547.111 761.698, 546.466 760.992, 545.582 760.357, 544.475 759.810, 543.168 759.360, 541.684 759.015, 540.052 758.783, 538.303 758.702, 537.009 758.668, 536.471 758.672, 534.591 758.745, 533.482 758.796, 532.700 759.037, 530.834 759.152, 530.245 759.390, 529.030 759.848, 527.321 760.403, 525.742 761.043, 524.323 761.756, 523.090 762.528, 522.066 763.345, 521.272 764.188, 520.721 764.904, 520.365 765.619, 520.008 766.334, 519.652 767.047, 519.297 767.405, 519.119 776.359, 514.666 780.144, 512.783 789.098, 508.330 791.030, 507.370 790.785, 517.367 790.748, 518.874 790.648, 521.862 " fill="none" stroke="rgb(0, 0, 0)" stroke-linecap="butt" stroke-linejoin="round" stroke-opacity="1.0" stroke-width="3.0" />
            <path d=" M 764.540, 537.394 764.235, 537.229 763.959, 536.922 763.725, 536.488 763.544, 535.945 763.423, 535.317 763.367, 534.633 763.380, 533.921 763.396, 533.782 763.399, 533.754 763.460, 533.213 763.605, 532.540 763.807, 531.932 764.057, 531.415 764.345, 531.012 764.659, 530.740 764.983, 530.612 " fill="none" stroke="rgb(0, 0, 0)" stroke-linecap="butt" stroke-linejoin="round" stroke-opacity="1.0" stroke-width="3.0" />
            <path d=" M 764.983, 530.612 765.304, 530.634 765.609, 530.802 765.884, 531.110 766.116, 531.545 766.296, 532.086 766.417, 532.711 766.471, 533.394 766.461, 533.980 766.459, 534.103 766.379, 534.809 766.235, 535.479 766.035, 536.086 765.785, 536.603 765.498, 537.007 765.185, 537.280 764.861, 537.411 764.540, 537.394 " fill="none" stroke="rgb(0, 0, 0)" stroke-linecap="butt" stroke-linejoin="round" stroke-opacity="1.0" stroke-width="3.0" />
            <path d=" M 800.000, 536.279 799.229, 546.250 798.997, 549.247 797.998, 559.197 797.683, 562.333 796.455, 572.257 796.072, 575.354 794.612, 585.247 794.164, 588.289 792.471, 598.144 791.962, 601.113 790.034, 610.926 789.468, 613.807 787.301, 623.569 786.684, 626.346 784.273, 636.051 783.613, 638.708 780.953, 648.348 780.258, 650.870 777.344, 660.436 776.621, 662.808 773.446, 672.290 772.707, 674.497 769.263, 683.886 768.519, 685.914 764.798, 695.196 764.061, 697.033 760.054, 706.195 759.339, 707.830 755.034, 716.856 754.356, 718.278 749.743, 727.150 749.120, 728.350 744.187, 737.048 743.636, 738.020 738.370, 746.522 737.911, 747.262 732.298, 755.538 731.953, 756.047 725.979, 764.066 725.771, 764.346 719.373, 772.133 712.770, 779.379 705.973, 786.054 698.993, 792.130 691.845, 797.580 684.541, 802.374 677.098, 806.483 669.531, 809.882 661.859, 812.544 654.099, 814.441 646.273, 815.550 638.401, 815.850 630.506, 815.317 622.612, 813.931 614.743, 811.677 606.926, 808.541 599.188, 804.509 591.556, 799.573 584.061, 793.730 576.730, 786.979 569.914, 779.662 569.596, 779.320 563.315, 771.539 562.688, 770.762 556.929, 762.586 556.036, 761.318 551.656, 754.220 549.672, 751.005 549.430, 750.558 547.941, 747.808 543.626, 739.842 543.497, 739.570 542.015, 736.451 537.929, 727.858 537.612, 727.096 534.410, 719.411 532.609, 715.086 529.193, 705.688 527.694, 701.563 524.690, 692.025 523.212, 687.330 520.603, 677.676 519.188, 672.436 517.591, 665.454 515.643, 656.935 513.782, 647.110 512.602, 640.882 511.096, 630.996 510.082, 624.340 508.921, 614.408 508.099, 607.375 507.275, 597.409 506.667, 590.055 506.172, 580.068 505.796, 572.454 505.626, 562.456 505.494, 554.646 505.644, 544.647 505.763, 536.708 506.231, 526.719 506.606, 518.719 505.180, 508.918 503.889, 500.039 " fill="none" stroke="rgb(0, 0, 0)" stroke-linecap="butt" stroke-linejoin="round" stroke-opacity="1.0" stroke-width="3.0" />
            <path d=" M 663.065, 238.148 655.808, 238.563 655.022, 238.608 646.893, 239.939 638.704, 242.158 630.480, 245.281 622.249, 249.320 614.038, 254.281 605.878, 260.168 598.234, 266.615 597.799, 266.982 590.626, 273.950 589.833, 274.720 583.127, 282.137 582.013, 283.369 575.764, 291.177 574.371, 292.917 568.569, 301.061 566.942, 303.345 561.572, 311.780 559.759, 314.628 557.247, 319.033 556.698, 319.996 556.650, 320.079 553.758, 325.149 552.854, 326.734 552.227, 327.961 547.675, 336.865 546.262, 339.628 546.186, 339.793 544.676, 343.091 540.512, 352.183 540.014, 353.272 536.225, 362.526 534.141, 367.617 532.673, 371.643 529.247, 381.038 528.673, 382.611 525.600, 392.127 523.639, 398.201 520.910, 407.821 519.065, 414.324 516.671, 424.033 514.974, 430.917 512.909, 440.701 511.388, 447.910 509.648, 457.758 508.327, 465.235 506.908, 475.134 505.807, 482.816 504.700, 492.755 503.889, 500.039 501.403, 509.726 500.811, 512.034 499.214, 518.255 " fill="none" stroke="rgb(0, 0, 0)" stroke-linecap="butt" stroke-linejoin="round" stroke-opacity="1.0" stroke-width="3.0" />
            <path d=" M 498.347, 536.826 498.200, 546.825 498.074, 555.343 498.249, 565.341 498.395, 573.723 498.895, 583.711 499.304, 591.886 500.137, 601.851 500.796, 609.752 501.967, 619.683 502.859, 627.247 504.377, 637.131 505.478, 644.298 507.354, 654.120 508.636, 660.836 510.882, 670.580 512.314, 676.796 514.943, 686.444 515.212, 687.431 516.489, 692.119 519.515, 701.650 521.135, 706.752 524.577, 716.141 526.228, 720.643 530.103, 729.862 531.738, 733.750 532.297, 734.916 535.581, 741.758 537.634, 746.036 540.023, 750.401 541.537, 753.169 543.888, 757.467 546.059, 760.947 547.578, 763.382 549.831, 766.994 550.468, 768.014 556.271, 776.159 557.340, 777.660 563.669, 785.402 564.474, 786.386 571.341, 793.656 571.837, 794.182 579.244, 800.900 579.398, 801.039 587.125, 806.959 594.987, 811.944 602.956, 815.997 611.001, 819.131 619.095, 821.359 627.211, 822.696 635.324, 823.160 643.410, 822.773 651.446, 821.560 659.410, 819.542 667.282, 816.745 675.043, 813.198 682.675, 808.928 690.162, 803.963 697.489, 798.331 704.640, 792.064 711.604, 785.189 718.368, 777.735 724.704, 769.999 724.922, 769.733 730.886, 761.707 731.254, 761.212 736.860, 752.931 737.356, 752.199 742.618, 743.695 743.220, 742.722 748.150, 734.022 748.837, 732.811 753.449, 723.939 754.201, 722.494 758.506, 713.468 759.305, 711.795 763.315, 702.634 764.143, 700.742 767.868, 691.462 768.710, 689.363 772.159, 679.976 773.002, 677.681 776.183, 668.200 777.014, 665.722 779.933, 656.158 780.741, 653.511 783.407, 643.873 784.182, 641.072 786.598, 631.368 787.330, 628.429 789.503, 618.668 790.185, 615.605 792.118, 605.793 792.743, 602.624 794.440, 592.769 795.001, 589.508 796.465, 579.616 796.958, 576.281 798.189, 566.357 798.610, 562.964 799.612, 553.015 799.957, 549.581 800.728, 539.611 800.982, 536.326 " fill="none" stroke="rgb(0, 0, 0)" stroke-linecap="butt" stroke-linejoin="round" stroke-opacity="1.0" stroke-width="3.0" />
            <path d=" M 499.214, 518.255 498.748, 528.244 498.347, 536.826 " fill="none" stroke="rgb(0, 0, 0)" stroke-linecap="butt" stroke-linejoin="round" stroke-opacity="1.0" stroke-width="3.0" />
            <path d=" M 813.630, 375.254 812.718, 370.961 810.406, 361.232 810.114, 360.003 807.561, 350.334 807.274, 349.248 804.470, 339.649 804.197, 338.716 801.132, 329.197 800.883, 328.425 797.546, 318.998 797.333, 318.395 793.716, 309.072 793.548, 308.640 789.641, 299.435 789.532, 299.179 785.287, 290.027 780.815, 281.205 776.118, 272.732 771.199, 264.630 766.060, 256.922 760.706, 249.631 755.139, 242.776 749.368, 236.378 743.397, 230.452 737.234, 225.021 730.884, 220.105 724.356, 215.725 717.658, 211.906 710.799, 208.671 703.789, 206.045 696.638, 204.044 689.361, 202.683 681.968, 201.979 674.474, 201.948 672.417, 202.127 666.893, 202.607 659.241, 203.971 651.534, 206.059 643.790, 208.885 636.029, 212.462 628.269, 216.794 620.529, 221.883 612.831, 227.732 605.194, 234.340 598.035, 241.322 597.642, 241.706 593.712, 245.993 591.137, 248.801 590.992, 248.959 590.790, 249.180 590.702, 249.276 590.197, 249.827 584.067, 257.264 582.883, 258.700 576.913, 266.723 575.727, 268.317 570.136, 276.608 568.750, 278.663 563.525, 287.189 561.977, 289.716 557.294, 298.111 555.429, 301.454 554.541, 303.202 553.571, 305.110 552.927, 306.377 551.598, 308.993 550.102, 311.937 549.129, 313.851 544.929, 322.926 544.017, 324.897 543.100, 326.879 542.565, 328.151 538.687, 337.369 537.365, 340.509 533.800, 349.852 531.948, 354.707 530.670, 358.414 527.411, 367.869 526.870, 369.437 523.911, 378.990 522.154, 384.660 519.484, 394.297 517.814, 400.327 515.427, 410.038 513.866, 416.391 511.758, 426.166 510.327, 432.803 508.495, 442.634 507.212, 449.514 505.653, 459.392 504.535, 466.470 503.245, 476.387 502.304, 483.616 501.282, 493.564 500.528, 500.897 499.774, 510.868 499.600, 513.160 499.214, 518.255 498.728, 528.243 498.368, 535.634 498.347, 536.826 498.126, 546.824 497.990, 552.976 498.042, 562.976 498.079, 570.224 498.404, 580.219 498.636, 587.324 499.238, 597.305 499.655, 604.218 500.539, 614.179 501.131, 620.854 502.301, 630.786 503.055, 637.181 504.516, 647.074 505.414, 653.150 507.176, 662.994 508.199, 668.713 510.272, 678.496 511.401, 683.822 513.794, 693.531 514.247, 695.369 515.003, 698.436 517.725, 708.058 518.987, 712.517 522.048, 722.037 523.333, 726.032 526.745, 735.432 528.023, 738.950 530.723, 745.569 533.037, 751.241 533.881, 753.089 538.038, 762.184 538.167, 762.467 538.356, 762.879 539.638, 765.387 543.961, 773.839 544.052, 773.999 545.533, 776.587 547.768, 780.493 549.832, 784.100 555.227, 792.520 555.947, 793.645 561.782, 801.766 562.284, 802.464 568.568, 810.242 568.818, 810.551 575.527, 817.903 582.391, 824.515 589.388, 830.387 596.498, 835.517 603.703, 839.908 610.983, 843.560 618.319, 846.484 625.556, 848.655 625.691, 848.695 633.081, 850.206 640.472, 851.033 647.848, 851.189 655.194, 850.690 662.495, 849.548 669.738, 847.778 676.910, 845.396 683.998, 842.422 690.991, 838.880 697.877, 834.791 704.647, 830.176 711.292, 825.053 717.802, 819.442 724.169, 813.360 730.386, 806.823 736.444, 799.850 742.339, 792.463 748.063, 784.684 753.613, 776.535 758.983, 768.032 764.044, 759.408 764.169, 759.195 768.960, 750.418 769.166, 750.040 773.694, 741.124 773.969, 740.583 778.243, 731.542 778.575, 730.839 782.601, 721.685 782.979, 720.825 786.767, 711.570 787.180, 710.561 790.738, 701.216 791.176, 700.065 794.509, 690.637 794.964, 689.352 798.079, 679.850 798.542, 678.439 801.444, 668.869 801.908, 667.340 804.600, 657.710 805.059, 656.070 807.544, 646.384 807.991, 644.642 810.274, 634.906 810.704, 633.070 812.789, 623.290 813.198, 621.372 815.087, 611.552 815.470, 609.562 817.167, 599.707 817.521, 597.653 819.026, 587.767 819.347, 585.659 820.661, 575.745 820.946, 573.593 822.072, 563.657 822.320, 561.470 823.258, 551.514 823.466, 549.304 824.215, 539.332 824.337, 537.717 " fill="none" stroke="rgb(0, 0, 0)" stroke-linecap="butt" stroke-linejoin="round" stroke-opacity="1.0" stroke-width="3.0" />
            <path d=" M 672.238, 202.126 664.646, 202.785 656.984, 204.150 649.267, 206.237 641.514, 209.061 633.743, 212.636 625.974, 216.965 618.226, 222.050 610.518, 227.894 602.950, 234.430 602.873, 234.496 595.708, 241.471 595.313, 241.855 588.548, 249.220 587.860, 249.969 587.814, 250.025 587.802, 250.039 587.681, 250.187 587.667, 250.203 587.640, 250.236 587.525, 250.375 587.400, 250.527 587.265, 250.690 587.031, 250.973 580.663, 258.683 580.540, 258.833 577.709, 262.629 573.376, 268.441 567.778, 276.727 566.393, 278.776 561.161, 287.298 559.614, 289.818 554.735, 298.547 554.072, 299.733 553.060, 301.543 552.750, 302.153 552.089, 303.451 551.077, 305.439 549.604, 308.333 546.756, 313.927 546.716, 314.012 543.427, 321.107 541.957, 324.278 540.722, 326.941 536.838, 336.156 534.983, 340.555 531.412, 349.896 529.898, 353.859 529.562, 354.738 526.298, 364.190 524.481, 369.452 521.518, 379.003 519.763, 384.657 517.089, 394.293 515.420, 400.306 513.030, 410.016 511.471, 416.352 509.360, 426.126 507.931, 432.745 506.096, 442.576 504.816, 449.437 503.254, 459.314 502.138, 466.374 500.847, 476.290 499.908, 483.500 498.885, 493.448 498.133, 500.761 497.378, 510.732 497.012, 515.567 496.821, 518.099 496.335, 528.087 495.976, 535.458 495.759, 545.456 495.600, 552.780 495.654, 562.780 495.693, 570.010 496.020, 580.004 496.252, 587.090 496.858, 597.071 497.276, 603.965 498.163, 613.926 498.756, 620.583 499.930, 630.514 500.684, 636.893 502.150, 646.785 503.049, 652.844 504.815, 662.687 505.839, 668.391 507.918, 678.172 509.047, 683.484 511.446, 693.192 512.655, 698.083 513.514, 701.113 516.243, 710.733 516.645, 712.151 519.714, 721.668 520.998, 725.653 524.419, 735.050 525.695, 738.558 529.481, 747.814 530.125, 749.391 530.717, 750.838 533.324, 756.527 536.044, 762.466 537.657, 765.613 539.137, 768.500 541.657, 773.417 543.606, 776.815 545.090, 779.403 547.329, 783.307 547.536, 783.669 552.940, 792.084 553.661, 793.207 559.504, 801.322 560.006, 802.020 566.299, 809.792 566.549, 810.102 573.268, 817.449 580.141, 824.057 587.148, 829.926 594.268, 835.055 601.483, 839.445 608.773, 843.097 616.119, 846.022 623.501, 848.234 " fill="none" stroke="rgb(0, 0, 0)" stroke-linecap="butt" stroke-linejoin="round" stroke-opacity="1.0" stroke-width="3.0" />
            <path d=" M 674.474, 201.948 672.238, 202.126 " fill="none" stroke="rgb(0, 0, 0)" stroke-linecap="butt" stroke-linejoin="round" stroke-opacity="1.0" stroke-width="3.0" />
            <path d=" M 623.501, 848.234 625.691, 848.695 " fill="none" stroke="rgb(0, 0, 0)" stroke-linecap="butt" stroke-linejoin="round" stroke-opacity="1.0" stroke-width="3.0" />
            <path d=" M 481.018, 516.817 480.978, 517.646 480.820, 520.877 480.757, 522.166 480.270, 532.154 480.047, 536.727 479.833, 546.725 479.621, 556.592 479.682, 566.592 479.741, 576.344 480.080, 586.338 480.404, 595.914 481.025, 605.894 481.605, 615.236 482.512, 625.194 483.336, 634.246 484.534, 644.174 485.585, 652.882 487.083, 662.769 488.342, 671.084 490.146, 680.920 491.590, 688.798 493.709, 698.570 495.313, 705.969 497.758, 715.665 499.493, 722.549 502.273, 732.155 504.108, 738.493 506.592, 746.032 508.365, 751.415 509.138, 753.760 512.628, 763.131 514.559, 768.314 515.034, 769.447 518.900, 778.669 520.347, 782.121 523.034, 787.833 523.213, 788.215 523.699, 789.249 525.099, 792.224 526.322, 794.824 526.477, 795.153 530.809, 803.373 532.254, 806.116 532.582, 806.737 532.924, 807.387 534.014, 809.233 536.914, 814.146 537.842, 815.719 538.371, 816.614 539.663, 818.803 540.744, 820.436 546.263, 828.775 546.667, 829.385 552.636, 837.408 553.910, 839.121 560.340, 846.780 561.366, 848.003 568.264, 855.244 569.010, 856.028 576.377, 862.790 576.816, 863.193 584.647, 869.412 584.760, 869.501 592.816, 874.958 600.963, 879.570 609.178, 883.349 617.438, 886.307 625.723, 888.458 630.044, 889.445 638.312, 890.800 646.565, 891.380 654.787, 891.206 662.961, 890.297 671.070, 888.676 679.099, 886.362 687.036, 883.380 694.866, 879.753 702.578, 875.503 710.160, 870.654 717.603, 865.230 724.896, 859.253 732.030, 852.748 738.999, 845.738 745.716, 838.329 745.793, 838.244 752.187, 830.555 752.407, 830.291 758.487, 822.352 758.834, 821.899 764.611, 813.737 765.068, 813.091 770.553, 804.729 771.105, 803.888 776.307, 795.348 776.939, 794.310 781.870, 785.610 782.568, 784.379 787.235, 775.535 787.985, 774.113 792.399, 765.140 793.190, 763.533 797.358, 754.443 798.177, 752.656 802.107, 743.461 802.944, 741.503 806.644, 732.212 807.489, 730.089 810.965, 720.712 811.810, 718.433 815.068, 708.979 815.904, 706.552 818.949, 697.027 819.769, 694.463 822.607, 684.874 823.404, 682.181 826.039, 672.534 826.807, 669.723 829.243, 660.024 829.976, 657.103 832.216, 647.357 832.910, 644.338 834.958, 634.550 835.608, 631.442 837.466, 621.616 838.069, 618.429 839.739, 608.570 840.291, 605.315 841.776, 595.425 842.273, 592.112 843.573, 582.197 844.014, 578.836 845.131, 568.899 845.513, 565.501 846.448, 555.544 846.769, 552.119 847.522, 542.147 847.782, 538.705 848.352, 528.721 848.549, 525.273 848.936, 515.281 849.070, 511.836 849.274, 501.839 849.344, 498.409 849.363, 488.409 849.369, 485.005 849.203, 475.006 849.146, 471.638 848.791, 461.644 848.673, 458.322 848.127, 448.337 847.949, 445.072 847.209, 435.100 846.973, 431.903 846.037, 421.947 845.744, 418.829 844.607, 408.894 844.261, 405.866 842.920, 395.956 842.524, 393.028 840.973, 383.149 840.531, 380.332 838.766, 370.489 838.283, 367.795 836.297, 357.994 835.778, 355.432 833.565, 345.680 833.016, 343.261 830.569, 333.565 829.997, 331.300 827.308, 321.669 826.721, 319.566 823.781, 310.008 823.188, 308.079 819.988, 298.605 819.397, 296.857 815.927, 287.478 815.351, 285.919 811.599, 276.649 811.048, 275.287 807.004, 266.141 806.491, 264.981 802.142, 255.976 801.681, 255.022 797.013, 246.178 796.620, 245.432 791.620, 236.771 791.310, 236.233 785.964, 227.782 785.753, 227.450 780.047, 219.237 779.954, 219.104 773.916, 211.220 767.643, 203.822 761.142, 196.934 754.416, 190.583 747.474, 184.792 740.322, 179.588 732.970, 174.995 725.426, 171.039 717.700, 167.745 709.804, 165.138 701.751, 163.240 693.553, 162.077 685.225, 161.671 676.784, 162.043 672.338, 162.474 663.776, 163.646 655.136, 165.633 646.437, 168.452 637.699, 172.119 628.944, 176.645 620.433, 181.895 620.195, 182.042 612.078, 187.883 611.476, 188.316 603.765, 194.684 602.811, 195.472 595.512, 202.307 594.227, 203.511 587.339, 210.760 585.750, 212.431 579.266, 220.044 577.408, 222.226 571.320, 230.160 569.228, 232.887 563.527, 241.102 561.239, 244.399 558.100, 249.385 553.469, 256.744 548.648, 265.176 545.946, 269.901 545.727, 270.322 545.387, 270.977 543.946, 273.749 543.405, 274.790 542.558, 276.419 541.063, 279.296 539.631, 282.052 538.700, 283.843 538.283, 284.725 537.256, 286.899 535.847, 289.883 531.758, 298.538 530.241, 302.075 528.871, 305.269 525.148, 313.951 523.107, 319.206 519.486, 328.527 518.897, 330.042 515.587, 339.478 515.441, 339.896 513.030, 346.768 510.024, 356.305 507.573, 364.080 504.862, 373.706 502.547, 381.927 500.126, 391.630 497.975, 400.253 495.839, 410.022 493.876, 419.000 492.535, 426.105 490.733, 435.650 490.269, 438.106 488.690, 447.981 487.167, 457.508 485.863, 467.422 484.585, 477.138 483.554, 487.085 482.533, 496.931 481.773, 506.902 481.716, 507.659 481.018, 516.817 " fill="none" stroke="rgb(0, 0, 0)" stroke-linecap="butt" stroke-linejoin="round" stroke-opacity="1.0" stroke-width="3.0" />
            <path d=" M 676.784, 162.043 668.245, 163.213 659.627, 165.200 650.949, 168.021 642.233, 171.692 633.499, 176.224 624.996, 181.488 624.770, 181.628 616.664, 187.483 616.070, 187.911 608.372, 194.294 607.425, 195.079 600.139, 201.929 598.859, 203.132 591.984, 210.394 590.399, 212.068 583.930, 219.694 582.073, 221.882 576.001, 229.827 573.909, 232.563 568.222, 240.789 565.934, 244.098 562.157, 250.122 558.177, 256.469 553.228, 265.158 550.667, 269.653 549.742, 271.440 546.571, 277.564 545.366, 279.891 545.128, 280.350 544.566, 281.436 543.433, 283.624 539.174, 292.672 538.646, 293.794 537.222, 296.818 536.501, 298.351 536.404, 298.577 532.475, 307.773 529.900, 313.797 526.290, 323.123 524.814, 326.935 523.657, 329.924 520.357, 339.364 517.797, 346.688 514.800, 356.228 512.345, 364.039 509.643, 373.667 507.325, 381.926 504.911, 391.631 502.756, 400.294 500.626, 410.065 498.660, 419.084 498.547, 419.682 498.481, 420.034 496.738, 429.290 495.053, 438.234 493.663, 446.949 492.251, 455.807 491.952, 457.681 490.650, 467.596 489.369, 477.357 488.338, 487.304 487.314, 497.195 486.555, 507.167 486.538, 507.392 486.480, 508.153 486.318, 510.279 485.989, 514.599 485.832, 516.653 485.796, 517.127 485.699, 519.121 485.546, 522.253 485.057, 532.241 484.820, 537.083 484.604, 547.081 484.389, 556.994 484.447, 566.993 484.503, 576.790 484.837, 586.784 485.158, 596.404 485.773, 606.385 485.789, 606.642 486.275, 614.537 486.351, 615.769 487.250, 625.729 488.072, 634.821 489.262, 644.750 490.311, 653.497 491.799, 663.386 493.056, 671.739 494.849, 681.577 496.292, 689.490 498.400, 699.265 500.002, 706.696 502.434, 716.396 504.167, 723.310 506.935, 732.919 508.139, 737.103 508.492, 738.328 508.768, 739.285 511.883, 748.788 513.782, 754.582 517.258, 763.958 519.186, 769.162 523.037, 778.391 524.487, 781.867 524.957, 782.994 527.596, 788.628 531.070, 796.049 531.940, 797.707 533.379, 800.449 537.499, 808.303 537.914, 809.008 539.365, 811.477 541.699, 815.449 544.219, 819.737 549.722, 828.086 551.203, 830.334 557.157, 838.369 558.427, 840.083 564.841, 847.755 565.862, 848.976 572.746, 856.230 573.485, 857.009 580.840, 863.785 581.270, 864.181 589.091, 870.413 589.192, 870.494 597.227, 875.953 605.352, 880.566 613.544, 884.344 621.782, 887.298 630.044, 889.445 " fill="none" stroke="rgb(0, 0, 0)" stroke-linecap="butt" stroke-linejoin="round" stroke-opacity="1.0" stroke-width="3.0" />
            <path d=" M 749.019, 524.659 741.072, 524.107 734.466, 523.648 733.997, 522.330 733.433, 521.166 732.786, 520.177 732.064, 519.379 731.280, 518.786 730.447, 518.409 729.580, 518.254 719.597, 517.669 718.421, 517.600 717.526, 517.670 716.626, 517.963 715.770, 518.478 714.975, 519.207 714.220, 520.136 713.520, 521.249 712.886, 522.528 712.328, 523.952 712.054, 524.854 711.858, 525.495 711.483, 527.133 711.209, 528.835 711.041, 530.575 721.021, 531.217 722.244, 531.296 727.042, 531.581 727.044, 531.566 727.048, 531.528 727.100, 531.029 727.200, 530.495 727.338, 529.993 727.512, 529.537 727.716, 529.140 727.945, 528.812 728.193, 528.562 728.453, 528.398 728.717, 528.323 " fill="none" stroke="rgb(0, 0, 0)" stroke-linecap="butt" stroke-linejoin="round" stroke-opacity="1.0" stroke-width="3.0" />
            <path d=" M 729.580, 518.254 728.691, 518.324 727.797, 518.620 726.947, 519.138 726.157, 519.871 725.408, 520.804 724.712, 521.924 724.081, 523.209 723.527, 524.640 723.059, 526.192 723.055, 526.208 722.685, 527.837 722.668, 527.942 722.412, 529.548 722.247, 531.258 722.244, 531.296 " fill="none" stroke="rgb(0, 0, 0)" stroke-linecap="butt" stroke-linejoin="round" stroke-opacity="1.0" stroke-width="3.0" />
            <path d=" M 728.717, 528.323 728.979, 528.340 729.231, 528.447 729.466, 528.643 729.679, 528.921 729.863, 529.274 730.013, 529.692 730.126, 530.164 730.197, 530.677 730.227, 531.218 730.212, 531.770 " fill="none" stroke="rgb(0, 0, 0)" stroke-linecap="butt" stroke-linejoin="round" stroke-opacity="1.0" stroke-width="3.0" />
            <path d=" M 727.044, 531.566 730.212, 531.770 740.195, 532.364 747.179, 532.780 " fill="none" stroke="rgb(0, 0, 0)" stroke-linecap="butt" stroke-linejoin="round" stroke-opacity="1.0" stroke-width="3.0" />
            <path d=" M 802.735, 522.538 801.888, 522.615 801.034, 522.924 800.223, 523.462 799.472, 524.222 798.766, 525.177 798.758, 525.189 798.093, 526.346 797.489, 527.676 796.956, 529.154 796.504, 530.757 796.140, 532.456 796.123, 532.565 795.871, 534.222 795.716, 535.863 795.716, 535.869 795.705, 535.986 795.701, 536.026 " fill="none" stroke="rgb(0, 0, 0)" stroke-linecap="butt" stroke-linejoin="round" stroke-opacity="1.0" stroke-width="3.0" />
            <path d=" M 801.836, 532.924 802.083, 532.940 802.320, 533.049 802.542, 533.250 802.741, 533.535 802.912, 533.898 803.051, 534.328 803.155, 534.815 803.219, 535.343 803.243, 535.900 803.230, 536.354 803.226, 536.470 " fill="none" stroke="rgb(0, 0, 0)" stroke-linecap="butt" stroke-linejoin="round" stroke-opacity="1.0" stroke-width="3.0" />
            <path d=" M 785.037, 493.335 785.198, 493.330 785.415, 493.363 785.620, 493.442 785.806, 493.563 785.967, 493.721 786.096, 493.912 786.189, 494.130 786.241, 494.369 786.248, 494.624 786.211, 494.862 786.134, 495.089 786.018, 495.297 785.868, 495.477 785.690, 495.623 785.488, 495.731 785.269, 495.795 785.036, 495.810 784.876, 495.790 " fill="none" stroke="rgb(0, 0, 0)" stroke-linecap="butt" stroke-linejoin="round" stroke-opacity="1.0" stroke-width="3.0" />
            <path d=" M 785.198, 493.330 785.034, 493.335 785.029, 493.335 784.969, 493.337 784.958, 493.338 784.723, 493.392 784.718, 493.394 784.496, 493.494 784.297, 493.634 784.128, 493.808 783.996, 494.014 783.905, 494.245 783.862, 494.497 783.870, 494.738 783.925, 494.972 784.024, 495.191 784.164, 495.386 784.340, 495.552 784.547, 495.681 784.781, 495.769 784.788, 495.771 784.876, 495.790 " fill="none" stroke="rgb(0, 0, 0)" stroke-linecap="butt" stroke-linejoin="round" stroke-opacity="1.0" stroke-width="3.0" />
            <path d=" M 785.037, 493.335 785.029, 493.335 " fill="none" stroke="rgb(0, 0, 0)" stroke-linecap="butt" stroke-linejoin="round" stroke-opacity="1.0" stroke-width="3.0" />
            <path d=" M 782.496, 491.339 782.090, 497.534 785.505, 497.700 787.744, 497.808 788.399, 497.718 788.295, 491.615 788.151, 491.599 785.440, 491.474 782.496, 491.339 " fill="none" stroke="rgb(0, 0, 0)" stroke-linecap="butt" stroke-linejoin="round" stroke-opacity="1.0" stroke-width="3.0" />
            <path d=" M 787.744, 497.808 788.151, 491.599 " fill="none" stroke="rgb(0, 0, 0)" stroke-linecap="butt" stroke-linejoin="round" stroke-opacity="1.0" stroke-width="3.0" />
            <path d=" M 712.054, 524.854 704.843, 523.941 694.928, 522.639 693.376, 522.435 683.466, 521.096 681.909, 520.885 672.003, 519.519 670.436, 519.303 660.532, 517.919 658.953, 517.698 649.050, 516.306 647.454, 516.081 637.551, 514.689 635.934, 514.461 626.030, 513.078 624.388, 512.848 614.482, 511.482 612.812, 511.252 602.902, 509.912 601.201, 509.682 591.286, 508.376 589.549, 508.147 579.629, 506.883 577.853, 506.656 577.660, 496.658 577.577, 492.328 577.263, 482.333 577.130, 478.100 576.694, 468.110 576.514, 463.992 575.950, 454.008 575.726, 450.025 575.032, 440.049 574.765, 436.221 573.936, 426.255 573.632, 422.599 572.662, 412.646 572.324, 409.182 571.208, 399.244 570.842, 395.994 569.572, 386.075 569.185, 383.059 567.752, 373.162 567.352, 370.401 565.747, 360.530 565.343, 358.046 563.555, 348.207 563.354, 347.099 " fill="none" stroke="rgb(0, 0, 0)" stroke-linecap="butt" stroke-linejoin="round" stroke-opacity="1.0" stroke-width="3.0" />
            <path d=" M 528.565, 238.202 523.954, 235.580 521.322, 234.083 520.306, 233.505 511.890, 228.104 510.334, 227.104 509.901, 226.827 " fill="none" stroke="rgb(0, 0, 0)" stroke-linecap="butt" stroke-linejoin="round" stroke-opacity="1.0" stroke-width="3.0" />
            <path d=" M 543.589, 244.993 540.706, 243.798 539.661, 243.365 537.456, 242.450 536.499, 242.054 532.975, 240.343 530.720, 239.248 528.565, 238.202 525.992, 236.953 " fill="none" stroke="rgb(0, 0, 0)" stroke-linecap="butt" stroke-linejoin="round" stroke-opacity="1.0" stroke-width="3.0" />
            <path d=" M 558.100, 249.385 552.718, 248.028 544.941, 245.443 543.589, 244.993 542.102, 244.499 " fill="none" stroke="rgb(0, 0, 0)" stroke-linecap="butt" stroke-linejoin="round" stroke-opacity="1.0" stroke-width="3.0" />
            <path d=" M 509.901, 226.827 507.681, 225.786 505.134, 224.592 500.252, 223.287 495.266, 222.951 490.188, 223.622 485.033, 225.331 481.224, 227.357 479.813, 228.108 478.458, 229.105 474.547, 231.983 472.437, 233.974 469.250, 236.983 463.942, 243.124 462.425, 245.213 458.642, 250.423 457.056, 252.971 453.372, 258.891 452.286, 260.898 448.154, 268.533 443.857, 277.563 443.010, 279.343 439.127, 288.558 437.966, 291.311 434.453, 300.674 433.046, 304.423 429.867, 313.904 428.276, 318.651 425.400, 328.229 423.679, 333.961 421.082, 343.617 419.282, 350.308 416.943, 360.031 415.111, 367.644 413.012, 377.421 411.190, 385.906 409.316, 395.729 407.543, 405.024 405.882, 414.885 404.192, 424.921 402.735, 434.815 401.278, 444.708 401.159, 445.513 399.897, 455.433 398.635, 465.353 398.463, 466.706 397.390, 476.648 396.316, 486.590 396.121, 488.400 395.232, 498.360 394.343, 508.321 394.150, 510.493 393.441, 520.467 392.733, 530.442 392.561, 532.874 392.031, 542.860 391.501, 552.846 391.364, 555.431 391.012, 565.425 390.659, 575.418 390.567, 578.049 390.392, 588.047 390.218, 598.046 390.174, 600.613 390.179, 610.613 390.184, 620.613 390.186, 623.011 390.373, 633.009 390.561, 643.007 390.601, 645.129 390.975, 655.122 391.349, 665.115 391.414, 666.855 391.443, 666.790 395.473, 657.638 396.895, 654.407 398.254, 651.466 402.484, 642.314 406.848, 633.316 408.183, 630.564 412.717, 621.651 413.992, 619.145 418.698, 610.322 419.911, 608.046 424.790, 599.317 425.943, 597.255 430.996, 588.626 432.087, 586.762 437.314, 578.237 438.345, 576.555 443.746, 568.139 444.718, 566.625 450.293, 558.324 451.208, 556.962 456.955, 548.779 457.814, 547.555 463.733, 539.495 464.540, 538.396 470.627, 530.462 471.385, 529.474 477.640, 521.672 478.353, 520.782 479.366, 519.572 480.978, 517.646 " fill="none" stroke="rgb(0, 0, 0)" stroke-linecap="butt" stroke-linejoin="round" stroke-opacity="1.0" stroke-width="3.0" />
            <path d=" M 361.368, 657.381 357.385, 666.554 355.672, 670.499 " fill="none" stroke="rgb(0, 0, 0)" stroke-linecap="butt" stroke-linejoin="round" stroke-opacity="1.0" stroke-width="3.0" />
            <path d=" M 481.224, 227.357 471.875, 227.344 " fill="none" stroke="rgb(0, 0, 0)" stroke-linecap="butt" stroke-linejoin="round" stroke-opacity="1.0" stroke-width="3.0" />
            <path d=" M 532.261, 474.276 532.220, 474.354 " fill="none" stroke="rgb(0, 0, 0)" stroke-linecap="butt" stroke-linejoin="round" stroke-opacity="1.0" stroke-width="3.0" />
        </g>
    </g>
</svg>
