<?xml version='1.0' encoding='ascii'?>
<svg xmlns="http://www.w3.org/2000/svg" height="1080" version="1.1" width="1080">
    <g id="View Layer_LineSet" inkscape:groupmode="lineset" inkscape:label="View Layer_LineSet" xmlns:inkscape="http://www.inkscape.org/namespaces/inkscape">
        <g id="strokes" inkscape:groupmode="layer" inkscape:label="strokes" xmlns:inkscape="http://www.inkscape.org/namespaces/inkscape">
            <path d=" M 564.301, 491.819 564.297, 492.980 564.274, 494.142 564.231, 495.294 564.168, 496.426 564.086, 497.525 563.986, 498.581 563.985, 498.592 563.868, 499.583 563.734, 500.520 563.583, 501.385 563.468, 501.958 563.346, 502.484 563.219, 502.961 563.161, 503.146 563.086, 503.386 562.949, 503.757 562.808, 504.072 562.677, 504.306 562.664, 504.329 560.243, 508.127 559.962, 508.567 " fill="none" stroke="rgb(0, 0, 0)" stroke-linecap="butt" stroke-linejoin="round" stroke-opacity="1.0" stroke-width="3.0" />
            <path d=" M 359.467, 730.836 365.724, 734.949 " fill="none" stroke="rgb(0, 0, 0)" stroke-linecap="butt" stroke-linejoin="round" stroke-opacity="1.0" stroke-width="3.0" />
            <path d=" M 383.381, 735.823 392.991, 733.059 395.059, 732.464 " fill="none" stroke="rgb(0, 0, 0)" stroke-linecap="butt" stroke-linejoin="round" stroke-opacity="1.0" stroke-width="3.0" />
            <path d=" M 395.059, 732.464 390.313, 723.663 385.567, 714.861 384.764, 713.372 " fill="none" stroke="rgb(0, 0, 0)" stroke-linecap="butt" stroke-linejoin="round" stroke-opacity="1.0" stroke-width="3.0" />
            <path d=" M 474.556, 250.952 470.204, 251.020 465.778, 252.122 461.291, 254.294 456.755, 257.567 452.186, 261.969 447.600, 267.522 447.237, 268.055 444.051, 272.727 443.012, 274.250 438.442, 282.166 433.986, 291.119 433.907, 291.276 429.923, 300.448 429.430, 301.585 425.857, 310.925 425.030, 313.088 421.818, 322.558 420.728, 325.770 417.837, 335.343 416.548, 339.610 413.945, 349.265 412.512, 354.578 410.170, 364.300 408.643, 370.637 406.539, 380.414 404.963, 387.736 403.080, 397.557 401.495, 405.817 399.817, 415.675 398.261, 424.815 396.776, 434.704 395.281, 444.651 393.978, 454.566 392.676, 464.480 392.576, 465.240 391.447, 475.176 390.319, 485.112 390.162, 486.490 389.202, 496.443 388.242, 506.397 388.058, 508.299 387.261, 518.267 386.464, 528.236 386.278, 530.561 385.639, 540.541 385.001, 550.520 384.832, 553.163 384.351, 563.151 383.870, 573.140 383.733, 575.989 383.407, 585.983 383.082, 595.978 382.986, 598.919 382.816, 608.918 382.646, 618.916 382.596, 621.834 382.582, 631.834 382.569, 641.834 382.565, 644.613 382.710, 654.612 382.855, 664.611 382.892, 667.137 383.199, 677.132 383.506, 687.127 383.573, 689.290 384.046, 699.279 384.520, 709.268 384.600, 710.963 384.764, 713.372 384.149, 723.353 383.534, 733.334 383.381, 735.823 " fill="none" stroke="rgb(0, 0, 0)" stroke-linecap="butt" stroke-linejoin="round" stroke-opacity="1.0" stroke-width="3.0" />
            <path d=" M 566.962, 520.300 567.663, 520.312 567.986, 520.318 573.149, 511.754 574.737, 509.121 577.798, 505.314 577.455, 495.320 577.308, 491.035 576.838, 481.046 576.643, 476.904 576.041, 466.922 575.801, 462.942 575.062, 452.970 574.781, 449.174 573.900, 439.212 573.582, 435.621 572.552, 425.674 572.203, 422.307 571.017, 412.378 570.645, 409.258 569.293, 399.350 568.905, 396.499 567.378, 386.617 566.983, 384.058 565.269, 374.206 564.879, 371.962 562.965, 362.146 562.593, 360.238 560.461, 350.468 560.123, 348.920 558.038, 340.359 557.894, 339.769 " fill="none" stroke="rgb(0, 0, 0)" stroke-linecap="butt" stroke-linejoin="round" stroke-opacity="1.0" stroke-width="3.0" />
            <path d=" M 554.444, 347.211 555.112, 349.627 555.911, 352.858 557.663, 359.934 559.824, 369.698 560.040, 370.671 561.994, 380.548 562.243, 381.806 563.979, 391.654 564.271, 393.311 565.818, 403.190 566.126, 405.156 567.494, 415.062 567.806, 417.315 569.007, 427.242 569.312, 429.762 570.355, 439.708 570.645, 442.471 571.538, 452.431 571.806, 455.418 572.555, 465.390 572.795, 468.579 573.406, 478.561 573.612, 481.932 574.090, 491.920 574.259, 495.453 574.296, 496.510 574.244, 497.311 574.182, 498.091 574.111, 498.847 574.031, 499.573 573.942, 500.266 573.846, 500.923 573.741, 501.540 573.630, 502.113 573.513, 502.640 573.389, 503.118 573.261, 503.544 573.129, 503.915 572.993, 504.231 572.854, 504.488 568.859, 510.998 568.638, 510.149 568.398, 509.484 568.141, 509.014 567.872, 508.748 567.611, 508.694 567.595, 508.691 565.017, 508.649 564.817, 508.646 564.099, 508.634 563.231, 508.620 559.962, 508.567 559.663, 508.563 557.880, 508.534 557.678, 508.531 557.207, 508.523 556.917, 508.676 556.629, 509.038 556.348, 509.602 556.079, 510.361 555.872, 511.127 555.826, 511.300 555.594, 512.406 555.386, 513.659 555.207, 515.039 555.060, 516.520 554.946, 518.079 554.869, 519.689 554.829, 521.321 554.827, 522.948 554.863, 524.541 556.040, 524.563 557.883, 524.596 557.993, 524.598 559.773, 524.631 563.336, 524.695 564.152, 524.710 565.118, 524.728 565.326, 524.732 566.928, 522.073 566.919, 521.566 566.925, 521.049 566.945, 520.536 566.962, 520.300 566.980, 520.041 567.027, 519.577 567.086, 519.158 567.156, 518.795 567.233, 518.497 567.317, 518.273 567.404, 518.129 567.493, 518.069 " fill="none" stroke="rgb(0, 0, 0)" stroke-linecap="butt" stroke-linejoin="round" stroke-opacity="1.0" stroke-width="3.0" />
            <path d=" M 463.001, 922.311 458.960, 921.502 457.925, 921.034 454.917, 919.671 450.886, 916.789 449.385, 915.306 446.883, 912.833 442.923, 907.778 439.022, 901.609 435.199, 894.315 431.471, 885.889 427.934, 876.535 427.856, 876.330 424.757, 866.822 424.374, 865.646 421.655, 856.023 421.042, 853.853 418.658, 844.141 417.879, 840.970 415.794, 831.190 414.906, 827.027 413.087, 817.194 412.139, 812.064 410.563, 802.189 409.595, 796.128 408.242, 786.220 407.293, 779.271 406.146, 769.337 405.248, 761.558 404.293, 751.604 403.474, 743.061 402.700, 733.091 401.984, 723.857 401.359, 713.877 400.790, 704.789 " fill="none" stroke="rgb(0, 0, 0)" stroke-linecap="butt" stroke-linejoin="round" stroke-opacity="1.0" stroke-width="3.0" />
            <path d=" M 381.938, 340.267 379.707, 350.015 379.093, 352.698 377.101, 362.497 375.853, 368.637 374.078, 378.478 372.789, 385.620 371.213, 395.495 369.921, 403.593 368.530, 413.496 367.267, 422.492 366.049, 432.418 364.844, 442.243 363.790, 452.187 362.736, 462.131 362.669, 462.762 361.771, 472.722 360.872, 482.681 360.757, 483.961 360.008, 493.933 359.259, 503.905 359.121, 505.742 358.516, 515.724 357.912, 525.706 357.773, 528.000 357.309, 537.989 356.845, 547.979 356.722, 550.625 356.396, 560.620 356.071, 570.615 355.977, 573.504 355.788, 583.502 355.600, 593.500 355.543, 596.518 355.490, 606.518 355.438, 616.518 355.422, 619.550 355.506, 629.549 355.590, 639.549 355.615, 642.478 355.838, 652.476 356.061, 662.473 356.122, 665.185 356.486, 675.179 356.850, 685.172 356.937, 687.555 357.446, 697.542 357.956, 707.529 358.055, 709.474 358.714, 719.453 359.374, 729.431 359.467, 730.836 360.336, 740.798 361.205, 750.760 361.255, 751.336 362.316, 761.279 363.361, 771.060 364.627, 780.980 365.768, 789.924 367.254, 799.813 368.461, 807.850 370.184, 817.700 371.421, 824.768 373.404, 834.570 374.629, 840.623 376.898, 850.362 378.065, 855.366 380.655, 865.025 381.709, 868.955 383.923, 876.123 " fill="none" stroke="rgb(0, 0, 0)" stroke-linecap="butt" stroke-linejoin="round" stroke-opacity="1.0" stroke-width="3.0" />
            <path d=" M 523.979, 532.856 523.986, 533.145 524.119, 543.144 524.172, 547.070 524.195, 557.070 524.205, 561.066 524.121, 571.065 524.087, 575.112 523.896, 585.110 523.818, 589.189 523.521, 599.184 523.400, 603.278 523.344, 604.645 " fill="none" stroke="rgb(0, 0, 0)" stroke-linecap="butt" stroke-linejoin="round" stroke-opacity="1.0" stroke-width="3.0" />
            <path d=" M 510.783, 742.005 509.215, 751.881 508.978, 753.376 507.271, 763.230 506.787, 766.024 504.934, 775.851 504.452, 778.403 502.444, 788.200 501.975, 790.488 499.803, 800.250 499.358, 802.252 497.009, 811.972 496.601, 813.664 494.062, 823.336 493.706, 824.695 490.963, 834.312 490.676, 835.317 487.709, 844.867 487.514, 845.496 484.301, 854.966 484.222, 855.198 480.804, 864.391 477.263, 873.040 473.605, 881.109 469.835, 888.558 465.957, 895.354 461.979, 901.457 457.908, 906.827 453.751, 911.425 449.518, 915.215 449.385, 915.306 " fill="none" stroke="rgb(0, 0, 0)" stroke-linecap="butt" stroke-linejoin="round" stroke-opacity="1.0" stroke-width="3.0" />
            <path d=" M 394.749, 727.623 395.059, 732.464 395.855, 742.433 396.650, 752.401 396.690, 752.906 397.679, 762.857 398.646, 772.575 399.840, 782.504 400.909, 791.389 402.324, 801.289 403.464, 809.270 405.117, 819.133 406.292, 826.150 408.203, 835.965 409.372, 841.971 411.567, 851.727 412.682, 856.686 415.193, 866.366 416.201, 870.253 419.066, 879.834 419.906, 882.643 423.171, 892.094 423.772, 893.835 427.498, 903.115 427.779, 903.816 431.904, 912.579 436.124, 920.128 436.872, 921.233 437.148, 921.641 440.419, 926.474 444.769, 931.629 449.154, 935.614 453.556, 938.456 457.958, 940.185 462.344, 940.831 466.701, 940.432 471.013, 939.026 475.270, 936.653 478.396, 934.190 479.459, 933.352 483.571, 929.166 487.596, 924.140 491.398, 918.507 491.528, 918.314 495.357, 911.729 499.078, 904.429 500.331, 901.660 502.685, 896.456 506.174, 887.848 509.541, 878.645 512.693, 869.154 512.782, 868.886 515.680, 859.315 515.894, 858.608 518.562, 848.970 518.874, 847.845 521.335, 838.152 521.721, 836.633 523.993, 826.895 524.433, 825.006 526.530, 815.229 527.009, 812.996 528.944, 803.185 529.447, 800.632 531.231, 790.792 531.446, 789.608 " fill="none" stroke="rgb(0, 0, 0)" stroke-linecap="butt" stroke-linejoin="round" stroke-opacity="1.0" stroke-width="3.0" />
            <path d=" M 528.193, 783.433 526.692, 791.433 524.696, 801.232 524.300, 803.175 524.242, 803.440 522.084, 813.204 521.783, 814.567 519.450, 824.291 519.140, 825.580 516.618, 835.256 516.376, 836.184 513.645, 845.804 513.491, 846.346 510.531, 855.898 510.489, 856.033 507.373, 865.212 504.147, 873.849 500.814, 881.907 497.380, 889.347 493.849, 896.136 490.228, 902.233 486.524, 907.599 482.742, 912.196 478.893, 915.987 474.983, 918.932 471.024, 920.990 467.026, 922.128 463.001, 922.311 " fill="none" stroke="rgb(0, 0, 0)" stroke-linecap="butt" stroke-linejoin="round" stroke-opacity="1.0" stroke-width="3.0" />
            <path d=" M 560.243, 508.127 559.656, 508.086 557.872, 507.964 557.665, 507.950 555.816, 507.823 548.897, 507.347 548.430, 507.315 546.586, 507.189 546.234, 507.164 546.549, 517.160 546.666, 520.854 546.878, 530.851 546.959, 534.653 547.070, 544.652 547.113, 548.542 547.125, 558.542 547.130, 562.502 547.043, 572.501 547.009, 576.513 546.825, 586.511 546.751, 590.555 546.470, 600.552 546.356, 604.611 545.978, 614.604 545.825, 618.660 545.349, 628.649 545.157, 632.683 544.584, 642.667 544.355, 646.661 543.682, 656.639 543.417, 660.574 542.643, 670.544 542.343, 674.402 541.844, 680.075 " fill="none" stroke="rgb(0, 0, 0)" stroke-linecap="butt" stroke-linejoin="round" stroke-opacity="1.0" stroke-width="3.0" />
            <path d=" M 544.415, 686.923 545.158, 677.974 545.886, 668.001 546.212, 663.527 546.841, 653.546 547.128, 648.995 547.661, 639.009 547.906, 634.400 548.344, 624.410 548.548, 619.761 548.892, 609.767 549.053, 605.098 549.304, 595.101 549.421, 590.430 549.580, 580.431 549.653, 575.775 549.719, 565.775 549.749, 561.153 549.722, 551.153 549.709, 546.584 549.588, 536.584 549.533, 532.085 549.317, 522.087 549.221, 517.677 548.908, 507.682 548.897, 507.347 " fill="none" stroke="rgb(0, 0, 0)" stroke-linecap="butt" stroke-linejoin="round" stroke-opacity="1.0" stroke-width="3.0" />
            <path d=" M 383.381, 735.823 384.200, 745.789 385.018, 755.755 385.127, 757.075 386.137, 767.024 387.147, 776.972 387.201, 777.511 388.414, 787.437 389.588, 797.043 391.018, 806.940 392.268, 815.589 393.934, 825.450 395.224, 833.079 397.147, 842.892 398.433, 849.453 400.641, 859.207 401.876, 864.662 404.400, 874.338 405.529, 878.664 408.411, 888.240 409.371, 891.428 412.659, 900.872 413.378, 902.937 417.133, 912.205 417.527, 913.177 421.799, 922.143 426.169, 929.842 430.618, 936.286 435.125, 941.492 439.672, 945.482 444.240, 948.287 448.811, 949.940 453.371, 950.474 457.904, 949.930 462.396, 948.349 466.835, 945.775 471.209, 942.248 475.508, 937.816 " fill="none" stroke="rgb(0, 0, 0)" stroke-linecap="butt" stroke-linejoin="round" stroke-opacity="1.0" stroke-width="3.0" />
            <path d=" M 475.508, 937.816 482.327, 930.501 483.571, 929.166 " fill="none" stroke="rgb(0, 0, 0)" stroke-linecap="butt" stroke-linejoin="round" stroke-opacity="1.0" stroke-width="3.0" />
            <path d=" M 539.208, 482.581 539.753, 492.566 540.298, 502.552 540.529, 506.773 540.808, 516.769 540.912, 520.467 541.040, 530.466 541.052, 531.384 535.036, 532.321 531.893, 532.811 531.613, 532.855 531.333, 532.898 531.052, 532.942 530.773, 532.987 526.729, 532.909 523.979, 532.856 518.585, 532.751 518.301, 532.697 " fill="none" stroke="rgb(0, 0, 0)" stroke-linecap="butt" stroke-linejoin="round" stroke-opacity="1.0" stroke-width="3.0" />
            <path d=" M 518.894, 506.033 519.153, 505.306 520.512, 501.496 523.871, 492.077 527.230, 482.658 527.694, 481.357 537.638, 482.414 539.208, 482.581 535.961, 492.040 532.715, 501.498 530.988, 506.528 530.859, 506.898 530.606, 507.637 530.352, 508.377 530.098, 509.118 529.845, 509.860 529.555, 510.844 529.305, 511.938 529.288, 512.015 529.052, 513.350 528.852, 514.825 528.692, 516.410 528.622, 517.394 528.574, 518.075 528.500, 519.788 528.474, 521.516 528.494, 523.225 528.510, 523.614 528.561, 524.882 528.673, 526.455 528.828, 527.913 529.023, 529.229 529.254, 530.377 529.516, 531.336 529.806, 532.088 530.117, 532.620 530.441, 532.921 530.773, 532.987 " fill="none" stroke="rgb(0, 0, 0)" stroke-linecap="butt" stroke-linejoin="round" stroke-opacity="1.0" stroke-width="3.0" />
            <path d=" M 530.859, 523.657 530.735, 523.571 530.618, 523.352 530.516, 523.010 530.432, 522.560 530.369, 522.022 530.331, 521.419 530.319, 520.778 530.334, 520.126 530.375, 519.493 530.441, 518.906 530.527, 518.391 530.631, 517.971 530.749, 517.663 530.873, 517.483 531.000, 517.436 " fill="none" stroke="rgb(0, 0, 0)" stroke-linecap="butt" stroke-linejoin="round" stroke-opacity="1.0" stroke-width="3.0" />
            <path d=" M 531.000, 517.436 531.124, 517.524 531.240, 517.745 531.342, 518.087 531.426, 518.536 531.488, 519.073 531.525, 519.675 531.537, 520.313 531.522, 520.962 531.481, 521.593 531.417, 522.179 531.330, 522.693 531.227, 523.114 531.110, 523.423 530.986, 523.607 530.859, 523.657 " fill="none" stroke="rgb(0, 0, 0)" stroke-linecap="butt" stroke-linejoin="round" stroke-opacity="1.0" stroke-width="3.0" />
            <path d=" M 550.117, 700.541 550.387, 697.877 551.306, 687.920 551.608, 684.643 552.442, 674.678 552.722, 671.324 553.472, 661.352 553.729, 657.932 554.396, 647.954 554.628, 644.478 555.213, 634.495 555.419, 630.976 555.924, 620.988 556.104, 617.435 556.528, 607.444 556.680, 603.869 557.025, 593.875 557.149, 590.288 557.415, 580.291 557.510, 576.703 557.697, 566.704 557.763, 563.125 557.870, 553.125 557.908, 549.566 557.923, 544.099 557.945, 536.036 557.891, 526.036 557.883, 524.596 " fill="none" stroke="rgb(0, 0, 0)" stroke-linecap="butt" stroke-linejoin="round" stroke-opacity="1.0" stroke-width="3.0" />
            <path d=" M 455.365, 970.735 457.795, 970.920 461.918, 970.713 466.009, 969.682 470.059, 967.859 474.061, 965.274 478.007, 961.957 481.891, 957.941 485.706, 953.257 489.449, 947.935 493.114, 942.006 496.697, 935.501 500.193, 928.449 503.601, 920.878 506.916, 912.818 510.135, 904.296 513.258, 895.338 516.282, 885.969 519.152, 876.390 519.204, 876.216 521.890, 866.583 522.025, 866.100 524.540, 856.422 524.742, 855.646 527.099, 845.928 527.354, 844.876 529.564, 835.123 529.862, 833.811 530.920, 828.814 532.263, 822.470 534.205, 812.661 534.558, 810.875 536.377, 801.041 536.720, 799.186 " fill="none" stroke="rgb(0, 0, 0)" stroke-linecap="butt" stroke-linejoin="round" stroke-opacity="1.0" stroke-width="3.0" />
            <path d=" M 525.384, 255.001 525.069, 253.996 522.251, 245.799 519.318, 238.070 516.272, 230.834 513.113, 224.119 509.845, 217.953 506.469, 212.365 502.988, 207.384 499.406, 203.039 495.726, 199.360 491.953, 196.378 488.091, 194.123 484.146, 192.625 480.124, 191.913 477.740, 191.974 476.031, 192.017 471.876, 192.964 467.665, 194.783 463.409, 197.498 459.117, 201.133 454.800, 205.710 450.467, 211.248 446.133, 217.764 441.808, 225.271 437.507, 233.779 433.418, 242.904 433.244, 243.292 430.470, 250.224 429.034, 253.811 425.650, 263.221 424.891, 265.334 421.806, 274.846 420.832, 277.850 418.016, 287.445 416.872, 291.346 414.952, 298.565 413.028, 305.801 410.683, 315.523 409.317, 321.190 407.180, 330.959 405.754, 337.479 403.811, 347.289 402.357, 354.632 400.595, 364.475 399.141, 372.602 397.550, 382.474 396.122, 391.339 394.694, 401.236 393.316, 410.786 392.042, 420.705 390.768, 430.624 390.735, 430.882 389.610, 440.818 388.486, 450.755 388.395, 451.557 387.414, 461.508 386.432, 471.460 386.306, 472.738 385.465, 482.703 384.623, 492.667 384.481, 494.349 383.776, 504.324 383.070, 514.299 382.928, 516.308 382.357, 526.292 381.786, 536.275 381.656, 538.530 381.218, 548.520 380.779, 558.511 380.672, 560.928 380.365, 570.924 380.058, 580.919 379.981, 583.414 379.805, 593.413 379.629, 603.411 379.585, 605.898 379.541, 615.898 379.497, 625.897 379.486, 628.289 379.576, 638.289 379.665, 648.288 379.685, 650.500 379.910, 660.497 380.134, 670.495 380.178, 672.442 380.541, 682.435 380.904, 692.429 380.962, 694.030 381.467, 704.017 381.973, 714.005 382.032, 715.183 382.684, 725.162 383.336, 735.141 383.381, 735.823 384.185, 745.790 384.999, 755.874 385.963, 765.828 386.877, 775.270 388.009, 785.206 389.005, 793.946 390.314, 803.860 391.369, 811.844 392.868, 821.731 393.957, 828.914 395.659, 838.768 396.754, 845.109 398.676, 854.922 399.747, 860.390 401.908, 870.154 402.919, 874.725 405.342, 884.427 406.257, 888.087 408.969, 897.712 409.743, 900.455 412.779, 909.983 413.362, 911.815 416.761, 921.219 417.100, 922.157 420.940, 931.478 424.868, 939.779 428.868, 947.066 432.927, 953.348 437.032, 958.639 441.168, 962.956 445.324, 966.319 449.488, 968.751 453.648, 970.276 456.303, 970.689 457.795, 970.920 " fill="none" stroke="rgb(0, 0, 0)" stroke-linecap="butt" stroke-linejoin="round" stroke-opacity="1.0" stroke-width="3.0" />
            <path d=" M 477.731, 191.972 473.612, 192.076 469.430, 193.024 465.193, 194.843 460.910, 197.557 456.591, 201.192 452.246, 205.768 447.887, 211.305 443.526, 217.820 439.175, 225.325 434.848, 233.830 430.737, 242.946 430.559, 243.340 427.642, 250.583 426.323, 253.856 422.921, 263.260 422.156, 265.375 419.053, 274.882 418.073, 277.888 415.241, 287.478 414.090, 291.379 411.505, 301.039 410.224, 305.829 407.865, 315.547 407.094, 318.725 406.491, 321.212 404.342, 330.979 402.908, 337.496 400.954, 347.303 399.492, 354.642 397.720, 364.484 396.258, 372.605 394.658, 382.477 393.223, 391.336 391.786, 401.232 390.401, 410.776 389.121, 420.693 387.840, 430.611 387.807, 430.863 386.677, 440.799 385.546, 450.735 385.455, 451.530 384.469, 461.481 383.482, 471.432 383.356, 472.703 382.510, 482.668 381.664, 492.632 381.522, 494.306 380.814, 504.281 380.105, 514.256 379.963, 516.256 379.389, 526.240 378.815, 536.223 378.686, 538.469 378.246, 548.460 377.805, 558.450 377.699, 560.859 377.391, 570.854 377.083, 580.849 377.006, 583.336 376.830, 593.334 376.654, 603.333 376.611, 605.811 376.568, 615.811 376.525, 625.810 376.515, 628.194 376.606, 638.193 376.697, 648.193 376.717, 650.396 376.945, 660.393 377.172, 670.390 377.216, 672.329 377.583, 682.323 377.950, 692.316 378.009, 693.910 378.518, 703.897 379.028, 713.884 379.088, 715.055 379.746, 725.033 380.403, 735.012 380.448, 735.687 381.259, 745.654 382.079, 755.732 383.050, 765.684 383.972, 775.121 385.112, 785.055 386.115, 793.790 387.434, 803.703 388.496, 811.683 390.006, 821.568 391.103, 828.747 392.817, 838.599 393.920, 844.937 395.855, 854.748 396.933, 860.214 399.109, 869.975 400.128, 874.546 402.567, 884.243 403.488, 887.904 406.218, 897.524 406.998, 900.269 410.053, 909.791 410.642, 911.627 414.061, 921.024 414.404, 921.968 418.270, 931.287 422.223, 939.588 426.250, 946.874 430.336, 953.156 434.467, 958.447 438.631, 962.765 442.814, 966.129 447.004, 968.562 451.191, 970.088 455.365, 970.735 " fill="none" stroke="rgb(0, 0, 0)" stroke-linecap="butt" stroke-linejoin="round" stroke-opacity="1.0" stroke-width="3.0" />
            <path d=" M 480.124, 191.913 477.731, 191.972 " fill="none" stroke="rgb(0, 0, 0)" stroke-linecap="butt" stroke-linejoin="round" stroke-opacity="1.0" stroke-width="3.0" />
            <path d=" M 555.787, 712.256 555.845, 711.712 556.832, 701.761 557.227, 697.773 558.129, 687.813 558.498, 683.736 559.316, 673.769 559.657, 669.613 560.392, 659.640 560.704, 655.417 561.359, 645.438 561.640, 641.160 562.216, 631.176 562.465, 626.852 562.962, 616.865 563.179, 612.506 563.598, 602.515 563.782, 598.133 564.124, 588.139 564.274, 583.742 564.538, 573.746 564.654, 569.346 564.841, 559.348 564.923, 554.955 565.032, 544.956 565.080, 540.580 565.111, 530.580 565.125, 526.230 565.118, 524.728 " fill="none" stroke="rgb(0, 0, 0)" stroke-linecap="butt" stroke-linejoin="round" stroke-opacity="1.0" stroke-width="3.0" />
            <path d=" M 457.001, 992.937 459.401, 993.127 463.838, 992.629 468.232, 991.247 472.574, 989.016 476.857, 985.972 481.072, 982.151 485.215, 977.587 489.278, 972.319 493.257, 966.379 497.148, 959.803 500.945, 952.624 504.645, 944.876 508.246, 936.589 511.744, 927.796 515.138, 918.526 516.124, 915.611 518.425, 908.807 521.416, 899.265 521.604, 898.668 524.401, 889.068 524.673, 888.135 527.292, 878.484 527.631, 877.234 530.086, 867.539 530.479, 865.988 532.780, 856.256 533.214, 854.421 535.372, 844.657 535.836, 842.556 537.860, 832.763 538.345, 830.413 540.243, 820.595 540.742, 818.014 542.430, 808.668 " fill="none" stroke="rgb(0, 0, 0)" stroke-linecap="butt" stroke-linejoin="round" stroke-opacity="1.0" stroke-width="3.0" />
            <path d=" M 540.385, 258.341 539.178, 253.055 536.763, 243.351 536.602, 242.703 533.983, 233.052 533.900, 232.746 531.073, 223.211 528.120, 214.125 525.042, 205.514 521.840, 197.409 518.516, 189.840 515.070, 182.837 511.506, 176.432 507.825, 170.658 504.029, 165.549 500.124, 161.138 496.112, 157.461 491.999, 154.552 487.790, 152.446 483.490, 151.179 479.107, 150.784 477.712, 150.944 474.648, 151.296 470.121, 152.748 465.537, 155.171 460.905, 158.596 456.236, 163.049 451.542, 168.557 446.837, 175.142 442.133, 182.823 437.447, 191.614 433.197, 200.666 432.793, 201.526 428.943, 210.755 428.188, 212.564 424.692, 221.933 423.649, 224.729 420.470, 234.210 419.194, 238.014 418.157, 241.441 415.262, 251.013 414.840, 252.408 412.203, 262.054 412.130, 262.320 411.291, 265.391 410.607, 267.891 408.206, 277.598 406.514, 284.438 404.329, 294.196 402.579, 302.015 400.595, 311.816 398.822, 320.581 397.026, 330.419 395.260, 340.090 393.641, 349.958 392.021, 359.826 391.913, 360.484 390.461, 370.378 389.008, 380.272 388.798, 381.702 387.505, 391.618 387.327, 392.981 386.033, 402.897 385.932, 403.673 384.791, 413.608 383.649, 423.542 383.330, 426.321 382.336, 436.271 381.341, 446.221 381.007, 449.562 380.155, 459.526 379.303, 469.489 378.976, 473.308 378.263, 483.283 377.550, 493.257 377.249, 497.467 376.672, 507.450 376.095, 517.433 375.835, 521.940 375.392, 531.930 374.950, 541.920 374.742, 546.626 374.433, 556.622 374.124, 566.617 373.975, 571.424 373.799, 581.423 373.624, 591.421 373.539, 596.230 373.497, 606.230 373.456, 616.230 373.436, 620.938 373.529, 630.938 373.622, 640.937 373.664, 645.447 373.895, 655.444 374.125, 665.441 374.222, 669.654 374.593, 679.647 374.963, 689.640 375.105, 693.461 375.619, 703.448 376.133, 713.434 376.305, 716.774 376.969, 726.752 377.632, 736.730 377.816, 739.502 378.634, 749.469 379.451, 759.435 379.626, 761.562 380.606, 771.514 381.585, 781.465 381.724, 782.873 382.874, 792.807 384.024, 802.741 384.096, 803.366 385.427, 813.277 386.729, 822.974 388.252, 832.857 389.606, 841.640 391.336, 851.489 392.711, 859.314 394.666, 869.121 396.028, 875.954 398.227, 885.709 399.538, 891.524 402.006, 901.215 403.224, 905.997 405.990, 915.607 407.068, 919.352 410.091, 928.629 410.515, 929.930 411.052, 931.577 414.525, 940.954 415.158, 942.663 418.036, 949.461 419.369, 952.610 421.824, 957.643 423.669, 961.424 428.039, 969.112 432.466, 975.691 436.932, 981.178 441.426, 985.596 445.931, 988.971 450.437, 991.331 454.931, 992.705 457.179, 992.917 459.401, 993.127 " fill="none" stroke="rgb(0, 0, 0)" stroke-linecap="butt" stroke-linejoin="round" stroke-opacity="1.0" stroke-width="3.0" />
            <path d=" M 361.494, 620.052 361.492, 620.565 361.593, 630.564 361.694, 640.564 361.739, 645.035 361.981, 655.032 362.223, 665.030 362.324, 669.206 362.709, 679.198 363.094, 689.191 363.241, 692.977 363.313, 694.327 " fill="none" stroke="rgb(0, 0, 0)" stroke-linecap="butt" stroke-linejoin="round" stroke-opacity="1.0" stroke-width="3.0" />
            <path d=" M 476.718, 150.856 472.231, 151.368 467.676, 152.820 463.063, 155.244 458.402, 158.668 453.704, 163.121 448.981, 168.628 444.247, 175.212 439.515, 182.890 434.800, 191.679 430.528, 200.721 430.118, 201.589 426.248, 210.809 425.486, 212.624 421.971, 221.986 420.920, 224.785 417.723, 234.260 416.438, 238.066 413.527, 247.633 412.059, 252.455 409.407, 262.097 408.174, 266.580 407.802, 267.933 407.494, 269.171 405.079, 278.875 403.685, 284.474 401.488, 294.229 399.728, 302.044 398.524, 307.960 396.529, 317.759 395.950, 320.605 394.144, 330.440 392.369, 340.106 390.740, 349.972 389.112, 359.839 389.004, 360.493 387.543, 370.385 386.082, 380.278 385.872, 381.702 384.571, 391.617 383.271, 401.532 382.991, 403.665 381.844, 413.599 380.696, 423.533 380.376, 426.304 379.376, 436.254 378.849, 441.506 378.042, 449.536 377.186, 459.499 376.329, 469.462 376.002, 473.273 375.285, 483.247 374.568, 493.221 374.267, 497.422 373.687, 507.405 373.108, 517.388 372.847, 521.885 372.403, 531.875 371.959, 541.865 371.750, 546.562 371.441, 556.557 371.131, 566.552 370.982, 571.350 370.807, 581.349 370.631, 591.347 370.547, 596.146 370.506, 606.146 370.466, 616.146 370.446, 620.845 370.542, 630.844 370.637, 640.844 370.680, 645.344 370.913, 655.341 371.146, 665.338 371.244, 669.542 371.618, 679.535 371.992, 689.528 372.135, 693.340 372.654, 703.326 373.173, 713.313 373.346, 716.644 374.015, 726.622 374.684, 736.599 374.869, 739.364 375.694, 749.330 376.518, 759.296 376.694, 761.416 377.681, 771.367 378.668, 781.318 378.807, 782.721 379.966, 792.653 381.125, 802.586 381.197, 803.206 382.538, 813.116 383.849, 822.808 385.383, 832.690 386.746, 841.468 388.489, 851.315 389.873, 859.137 391.841, 868.942 393.213, 875.772 395.427, 885.524 396.747, 891.338 399.231, 901.025 400.458, 905.808 403.242, 915.413 403.756, 917.187 404.328, 919.160 405.895, 923.935 408.338, 931.382 409.338, 934.063 412.472, 942.467 415.249, 948.983 416.711, 952.413 421.038, 961.225 425.437, 968.913 429.893, 975.492 434.388, 980.980 438.911, 985.399 443.445, 988.775 447.980, 991.137 452.502, 992.513 457.001, 992.937 " fill="none" stroke="rgb(0, 0, 0)" stroke-linecap="butt" stroke-linejoin="round" stroke-opacity="1.0" stroke-width="3.0" />
            <path d=" M 479.107, 150.784 476.718, 150.856 " fill="none" stroke="rgb(0, 0, 0)" stroke-linecap="butt" stroke-linejoin="round" stroke-opacity="1.0" stroke-width="3.0" />
            <path d=" M 545.528, 258.903 543.650, 249.794 541.464, 240.036 541.134, 238.567 538.766, 228.851 538.487, 227.709 535.920, 218.045 535.709, 217.249 532.924, 207.644 532.799, 207.211 529.757, 197.624 526.585, 188.518 523.282, 179.922 519.850, 171.868 516.290, 164.388 512.603, 157.518 508.792, 151.290 504.860, 145.741 500.810, 140.907 496.645, 136.826 492.371, 133.535 487.993, 131.072 483.516, 129.475 478.947, 128.782 474.197, 128.938 469.486, 129.188 464.699, 130.416 459.846, 132.655 454.937, 135.941 449.984, 140.304 445.000, 145.773 439.999, 152.375 434.995, 160.132 430.116, 168.861 430.004, 169.062 425.601, 178.040 425.043, 179.178 421.058, 188.350 420.129, 190.490 416.516, 199.814 415.281, 202.998 411.999, 212.444 410.519, 216.701 407.533, 226.244 405.862, 231.586 403.144, 241.210 401.330, 247.637 398.858, 257.326 396.944, 264.827 394.697, 274.571 392.725, 283.123 390.687, 292.913 388.694, 302.484 386.850, 312.313 385.006, 322.141 384.871, 322.860 383.210, 332.721 381.938, 340.267 381.277, 344.192 379.788, 354.080 378.299, 363.969 377.931, 366.413 376.606, 376.325 375.281, 386.237 374.852, 389.451 373.684, 399.383 372.516, 409.314 372.056, 413.223 371.040, 423.171 370.023, 433.119 369.561, 437.640 368.691, 447.602 367.821, 457.564 367.380, 462.608 366.653, 472.581 365.926, 482.555 365.527, 488.025 364.940, 498.008 364.353, 507.991 364.012, 513.787 363.598, 523.013 363.149, 533.003 362.844, 539.786 362.532, 549.781 362.221, 559.776 362.029, 565.910 361.854, 575.908 361.679, 585.906 361.572, 592.046 361.534, 602.046 361.497, 612.046 361.474, 618.082 361.494, 620.052 361.595, 630.052 361.696, 640.051 361.735, 643.905 361.976, 653.902 362.218, 663.900 362.351, 669.408 362.737, 679.400 363.122, 689.393 363.313, 694.327 363.319, 694.482 363.852, 704.467 364.385, 714.453 364.615, 718.756 364.629, 719.025 365.315, 729.002 365.724, 734.949 365.779, 735.762 366.273, 742.942 367.118, 752.906 367.962, 762.870 368.239, 766.140 369.250, 776.088 370.261, 786.037 370.515, 788.535 371.701, 798.465 372.886, 808.394 373.084, 810.051 374.456, 819.957 375.827, 829.862 375.932, 830.619 377.502, 840.495 379.040, 850.177 380.823, 860.017 382.392, 868.673 383.923, 876.123 385.937, 885.919 385.967, 886.063 388.232, 895.803 389.746, 902.311 392.289, 911.982 393.710, 917.389 396.560, 926.974 397.840, 931.276 401.033, 940.753 402.114, 943.961 405.694, 953.298 406.515, 955.438 410.534, 964.595 411.023, 965.708 415.543, 974.628 415.619, 974.778 420.287, 982.660 425.009, 989.373 429.768, 994.937 434.550, 999.379 439.339, 1002.727 444.123, 1005.013 448.889, 1006.272 453.722, 1006.663 458.399, 1006.924 463.036, 1006.229 467.623, 1004.615 472.151, 1002.122 476.613, 998.789 481.000, 994.653 485.308, 989.754 489.529, 984.129 493.658, 977.817 497.692, 970.854 501.626, 963.275 505.456, 955.115 509.181, 946.408 512.796, 937.186 516.192, 927.781 516.301, 927.481 519.468, 917.996 519.693, 917.322 522.651, 907.770 522.971, 906.739 525.739, 897.129 526.134, 895.758 528.726, 886.100 529.181, 884.406 531.611, 874.706 532.111, 872.708 534.391, 862.972 534.925, 860.689 537.063, 850.920 537.621, 848.371 539.627, 838.574 540.200, 835.775 542.081, 825.953 542.661, 822.922 544.424, 813.079 544.622, 811.971 " fill="none" stroke="rgb(0, 0, 0)" stroke-linecap="butt" stroke-linejoin="round" stroke-opacity="1.0" stroke-width="3.0" />
            <path d=" M 557.834, 715.984 558.151, 713.029 559.131, 703.077 559.567, 698.646 560.462, 688.686 560.868, 684.165 561.681, 674.198 562.055, 669.600 562.786, 659.626 563.128, 654.962 563.779, 644.983 564.087, 640.262 564.660, 630.279 564.933, 625.513 565.427, 615.526 565.665, 610.726 566.082, 600.734 566.283, 595.910 566.624, 585.916 566.788, 581.077 567.052, 571.080 567.179, 566.237 567.366, 556.239 567.457, 551.401 567.567, 541.402 567.620, 536.580 567.653, 526.580 567.669, 521.783 567.663, 520.312 " fill="none" stroke="rgb(0, 0, 0)" stroke-linecap="butt" stroke-linejoin="round" stroke-opacity="1.0" stroke-width="3.0" />
            <path d=" M 478.947, 128.782 474.295, 129.031 469.567, 130.257 464.774, 132.496 459.925, 135.781 455.033, 140.145 450.109, 145.617 445.168, 152.221 440.224, 159.981 435.391, 168.736 435.292, 168.915 430.933, 177.915 430.389, 179.037 426.446, 188.227 425.533, 190.355 421.958, 199.694 420.742, 202.871 417.495, 212.329 416.822, 214.288 416.035, 216.581 413.082, 226.135 411.431, 231.477 408.743, 241.109 406.950, 247.538 404.505, 257.234 402.613, 264.740 400.392, 274.490 398.724, 281.809 398.441, 283.049 396.702, 291.502 394.686, 301.296 394.454, 302.424 392.631, 312.256 390.808, 322.089 390.673, 322.814 389.030, 332.678 387.387, 342.543 387.117, 344.162 386.479, 348.451 385.006, 358.342 383.806, 366.401 382.495, 376.315 381.185, 386.229 380.758, 389.457 379.603, 399.390 378.447, 409.323 377.990, 413.247 376.984, 423.196 376.538, 427.613 375.531, 437.563 375.519, 437.683 374.658, 447.646 373.796, 457.609 373.359, 462.671 372.638, 472.645 371.918, 482.619 371.521, 488.108 370.939, 498.091 370.357, 508.074 370.018, 513.891 369.572, 523.881 369.520, 525.049 369.074, 535.039 368.857, 539.910 368.547, 549.905 368.236, 559.901 368.045, 566.055 367.870, 576.053 367.695, 586.051 367.587, 592.211 367.547, 602.211 367.507, 612.211 367.483, 618.267 367.580, 628.267 367.677, 638.266 367.734, 644.111 367.970, 654.109 368.206, 664.106 368.336, 669.633 368.714, 679.626 369.092, 689.619 369.285, 694.726 369.809, 704.712 370.333, 714.699 370.573, 719.288 371.248, 729.265 371.922, 739.242 372.191, 743.222 373.022, 753.187 373.854, 763.152 374.128, 766.436 375.123, 776.386 376.118, 786.337 376.369, 788.847 377.538, 798.778 378.706, 808.710 378.902, 810.377 380.254, 820.285 381.605, 830.194 381.710, 830.958 383.257, 840.838 384.775, 850.528 386.533, 860.372 388.081, 869.035 389.308, 875.090 391.294, 884.891 391.602, 886.406 391.607, 886.435 393.843, 896.182 395.336, 902.691 397.140, 909.647 398.173, 913.629 399.248, 917.776 402.062, 927.372 403.323, 931.670 404.424, 934.982 407.542, 944.359 411.081, 953.712 411.886, 955.840 415.860, 965.016 416.277, 965.977 416.335, 966.112 420.809, 975.056 420.873, 975.183 425.481, 983.066 430.142, 989.778 434.841, 995.341 439.563, 999.781 444.292, 1003.126 449.016, 1005.409 453.722, 1006.663 " fill="none" stroke="rgb(0, 0, 0)" stroke-linecap="butt" stroke-linejoin="round" stroke-opacity="1.0" stroke-width="3.0" />
            <path d=" M 482.010, 507.428 481.922, 507.464 481.560, 507.820 481.208, 508.378 480.872, 509.128 480.558, 510.058 480.271, 511.152 480.016, 512.392 479.797, 513.758 479.619, 515.225 479.485, 516.768 479.396, 518.362 479.354, 519.978 479.361, 521.590 479.415, 523.168 481.287, 523.202 " fill="none" stroke="rgb(0, 0, 0)" stroke-linecap="butt" stroke-linejoin="round" stroke-opacity="1.0" stroke-width="3.0" />
            <path d=" M 565.326, 524.732 565.292, 523.136 565.295, 521.507 565.325, 520.271 565.335, 519.873 565.411, 518.261 565.427, 518.033 565.521, 516.700 565.664, 515.216 565.838, 513.835 566.039, 512.580 566.263, 511.473 566.397, 510.957 566.507, 510.531 566.767, 509.772 567.038, 509.206 567.316, 508.844 567.595, 508.691 " fill="none" stroke="rgb(0, 0, 0)" stroke-linecap="butt" stroke-linejoin="round" stroke-opacity="1.0" stroke-width="3.0" />
            <path d=" M 567.986, 520.318 567.963, 519.837 567.926, 519.392 567.876, 518.997 567.815, 518.661 567.744, 518.394 567.666, 518.203 567.653, 518.187 567.581, 518.094 567.493, 518.069 " fill="none" stroke="rgb(0, 0, 0)" stroke-linecap="butt" stroke-linejoin="round" stroke-opacity="1.0" stroke-width="3.0" />
            <path d=" M 529.615, 468.818 529.835, 474.343 530.239, 474.348 535.425, 474.409 535.631, 474.136 535.272, 468.800 529.866, 468.495 529.837, 468.532 529.615, 468.818 " fill="none" stroke="rgb(0, 0, 0)" stroke-linecap="butt" stroke-linejoin="round" stroke-opacity="1.0" stroke-width="3.0" />
            <path d=" M 535.211, 468.880 529.615, 468.818 " fill="none" stroke="rgb(0, 0, 0)" stroke-linecap="butt" stroke-linejoin="round" stroke-opacity="1.0" stroke-width="3.0" />
            <path d=" M 535.425, 474.409 535.211, 468.880 535.272, 468.800 " fill="none" stroke="rgb(0, 0, 0)" stroke-linecap="butt" stroke-linejoin="round" stroke-opacity="1.0" stroke-width="3.0" />
            <path d=" M 531.485, 471.143 531.449, 471.235 531.394, 471.442 531.381, 471.656 531.414, 471.881 531.491, 472.089 531.511, 472.138 531.624, 472.318 531.769, 472.470 531.814, 472.505 531.978, 472.618 532.034, 472.642 532.201, 472.709 532.254, 472.723 532.319, 472.734 532.440, 472.748 532.478, 472.752 532.522, 472.753 532.564, 472.753 532.606, 472.750 532.647, 472.746 532.684, 472.740 532.798, 472.718 532.863, 472.702 532.917, 472.684 532.958, 472.664 533.134, 472.577 533.218, 472.509 533.287, 472.453 " fill="none" stroke="rgb(0, 0, 0)" stroke-linecap="butt" stroke-linejoin="round" stroke-opacity="1.0" stroke-width="3.0" />
            <path d=" M 533.218, 472.509 533.286, 472.458 533.395, 472.348 533.485, 472.222 533.557, 472.085 533.607, 471.938 533.634, 471.784 533.640, 471.627 533.622, 471.469 533.582, 471.315 533.521, 471.166 533.439, 471.027 533.338, 470.899 533.221, 470.787 533.089, 470.691 532.946, 470.613 532.794, 470.557 532.637, 470.521 532.477, 470.508 532.319, 470.518 532.164, 470.549 532.017, 470.603 531.880, 470.677 531.755, 470.770 531.647, 470.880 531.556, 471.005 531.485, 471.143 " fill="none" stroke="rgb(0, 0, 0)" stroke-linecap="butt" stroke-linejoin="round" stroke-opacity="1.0" stroke-width="3.0" />
            <path d=" M 629.275, 860.552 631.448, 861.020 639.352, 862.478 647.246, 863.196 655.114, 863.191 662.940, 862.483 670.709, 861.089 678.405, 859.030 686.016, 856.327 693.529, 853.000 700.932, 849.072 708.215, 844.564 715.366, 839.497 722.377, 833.894 729.238, 827.777 735.942, 821.167 742.481, 814.086 748.849, 806.554 755.039, 798.594 760.869, 790.470 761.045, 790.225 766.578, 781.895 766.862, 781.468 772.109, 772.955 772.486, 772.343 777.456, 763.665 777.912, 762.868 782.614, 754.043 783.135, 753.065 787.580, 744.107 788.154, 742.950 792.349, 733.872 792.963, 732.542 796.916, 723.356 797.561, 721.859 801.280, 712.576 801.944, 710.919 805.435, 701.548 806.110, 699.737 809.380, 690.287 810.056, 688.332 813.111, 678.810 813.782, 676.719 816.626, 667.132 817.284, 664.914 819.922, 655.268 820.561, 652.933 822.997, 643.234 823.611, 640.790 825.849, 631.044 826.433, 628.502 828.476, 618.713 829.025, 616.082 830.876, 606.254 831.386, 603.545 833.047, 593.683 833.515, 590.905 834.988, 581.014 835.411, 578.177 836.697, 568.260 837.072, 565.374 838.173, 555.434 838.497, 552.510 839.414, 542.552 839.685, 539.600 840.418, 529.626 840.636, 526.656 841.184, 516.671 841.348, 513.693 841.711, 503.699 841.820, 500.724 841.998, 490.725 842.051, 487.763 842.043, 477.763 842.040, 474.824 841.844, 464.826 841.787, 461.921 841.401, 451.929 841.290, 449.069 840.711, 439.085 840.549, 436.281 839.775, 426.310 839.562, 423.571 838.590, 413.619 838.330, 410.956 837.155, 401.025 836.851, 398.450 835.470, 388.546 835.124, 386.068 833.532, 376.195 833.150, 373.826 831.341, 363.991 830.927, 361.740 828.896, 351.948 828.456, 349.827 826.196, 340.086 825.736, 338.103 823.240, 328.419 822.767, 326.586 820.027, 316.969 819.550, 315.293 816.557, 305.751 816.084, 304.243 812.829, 294.788 812.370, 293.454 808.843, 284.097 808.409, 282.946 804.599, 273.701 804.203, 272.738 800.098, 263.620 799.752, 262.851 795.340, 253.877 795.058, 253.304 790.326, 244.495 790.124, 244.120 785.058, 235.499 784.953, 235.320 779.546, 226.925 773.909, 218.958 768.045, 211.443 761.959, 204.401 755.656, 197.858 749.142, 191.836 742.425, 186.358 735.513, 181.450 728.412, 177.134 721.134, 173.435 713.688, 170.375 706.086, 167.977 698.339, 166.264 690.462, 165.257 682.468, 164.977 674.373, 165.443 672.138, 165.657 " fill="none" stroke="rgb(0, 0, 0)" stroke-linecap="butt" stroke-linejoin="round" stroke-opacity="1.0" stroke-width="3.0" />
            <path d=" M 631.448, 861.020 630.748, 860.824 623.554, 858.807 615.687, 855.824 607.868, 852.058 600.117, 847.499 592.456, 842.138 584.906, 835.969 577.624, 829.115 577.489, 828.988 570.674, 821.670 570.230, 821.194 563.877, 813.471 563.152, 812.590 557.253, 804.515 556.278, 803.180 550.822, 794.799 549.633, 792.973 548.178, 790.470 546.085, 786.870 544.603, 784.321 543.242, 781.981 540.488, 776.684 539.004, 773.830 537.127, 770.219 535.251, 766.181 531.847, 758.857 531.314, 757.709 527.483, 748.471 525.825, 744.471 524.806, 741.709 521.345, 732.327 520.684, 730.535 517.578, 721.029 515.912, 715.930 515.215, 713.505 514.885, 712.357 512.122, 702.746 511.532, 700.692 509.100, 690.993 507.562, 684.860 505.451, 675.086 504.023, 668.477 502.222, 658.640 500.930, 651.587 499.431, 641.700 498.300, 634.242 497.095, 624.314 496.146, 616.492 495.230, 606.534 494.481, 598.394 493.847, 588.415 493.313, 580.006 492.957, 570.013 492.650, 561.388 492.568, 551.388 492.497, 542.601 492.688, 532.602 492.857, 523.708 493.076, 518.951 493.500, 509.759 493.563, 508.390 493.730, 504.773 494.460, 494.800 495.114, 485.862 496.113, 475.912 497.004, 467.038 498.273, 457.119 499.393, 448.365 500.933, 438.484 502.271, 429.906 504.086, 420.072 505.627, 411.722 507.720, 401.944 509.447, 393.874 511.822, 384.161 513.715, 376.419 516.378, 366.780 518.413, 359.412 519.612, 355.539 522.568, 345.986 523.522, 342.905 524.182, 340.989 527.439, 331.534 529.019, 326.947 532.586, 317.604 534.884, 311.583 536.666, 307.355 538.020, 304.142 541.092, 296.855 542.546, 293.723 543.342, 292.010 544.712, 289.060 545.549, 287.257 546.112, 286.043 547.618, 282.800 549.359, 279.393 551.749, 274.717 553.606, 271.081 554.074, 270.166 554.438, 269.453 559.337, 260.736 560.511, 258.647 560.566, 258.550 560.621, 258.452 561.525, 256.844 566.786, 248.340 567.163, 247.729 568.852, 244.999 574.486, 236.737 576.394, 233.939 582.413, 225.953 584.124, 223.682 590.538, 216.010 592.015, 214.243 598.833, 206.928 600.042, 205.632 607.271, 198.722 608.178, 197.855 615.819, 191.405 616.398, 190.917 624.449, 184.985 624.679, 184.815 632.997, 179.549 641.328, 175.111 649.652, 171.493 657.947, 168.685 666.193, 166.673 673.457, 165.581 674.373, 165.443 " fill="none" stroke="rgb(0, 0, 0)" stroke-linecap="butt" stroke-linejoin="round" stroke-opacity="1.0" stroke-width="3.0" />
            <path d=" M 672.138, 165.657 663.947, 166.888 655.690, 168.899 647.384, 171.707 639.050, 175.322 630.709, 179.757 622.382, 185.020 614.326, 190.944 614.092, 191.116 606.444, 197.559 605.862, 198.050 598.626, 204.952 597.717, 205.819 590.892, 213.128 589.683, 214.423 583.261, 222.089 581.784, 223.853 575.758, 231.833 574.047, 234.099 568.405, 242.356 566.498, 245.148 561.230, 253.648 559.164, 256.982 558.161, 258.763 557.957, 259.124 557.956, 259.127 553.049, 267.840 552.071, 269.578 551.547, 270.600 548.772, 276.023 545.436, 282.539 545.246, 282.910 544.057, 285.466 543.297, 287.099 543.143, 287.431 542.883, 287.990 542.229, 289.396 541.417, 291.140 538.715, 296.950 537.254, 300.408 535.904, 303.605 534.169, 307.715 533.702, 308.822 532.502, 311.662 528.931, 321.002 526.634, 327.009 523.372, 336.462 523.246, 336.826 521.133, 342.950 518.172, 352.501 516.022, 359.438 513.355, 369.076 511.322, 376.426 508.943, 386.139 507.052, 393.861 504.956, 403.639 503.231, 411.689 503.166, 412.039 501.349, 421.872 499.874, 429.851 498.332, 439.731 496.996, 448.289 495.726, 458.208 494.607, 466.940 493.608, 476.890 493.246, 480.489 492.719, 485.743 491.989, 495.716 491.706, 499.584 491.336, 504.633 491.206, 507.457 491.102, 509.720 490.779, 516.738 490.677, 518.955 490.525, 522.256 490.466, 523.545 490.276, 533.544 490.108, 542.417 490.191, 552.416 490.264, 561.183 490.622, 571.176 490.931, 579.780 491.568, 589.760 492.103, 598.148 493.023, 608.106 493.773, 616.226 494.982, 626.152 495.932, 633.956 497.436, 643.842 498.567, 651.283 500.374, 661.119 501.085, 664.989 501.666, 668.155 503.783, 677.928 505.212, 684.522 507.650, 694.220 509.188, 700.338 511.958, 709.946 512.784, 712.814 513.576, 715.560 514.223, 717.537 517.336, 727.040 518.355, 730.151 521.823, 739.530 523.504, 744.074 527.342, 753.308 529.001, 757.300 531.338, 762.317 534.729, 769.598 534.823, 769.799 538.517, 776.889 539.997, 779.730 540.946, 781.551 544.166, 787.076 545.651, 789.624 547.347, 792.534 547.757, 793.163 553.221, 801.538 554.001, 802.733 559.908, 810.803 560.885, 812.137 567.245, 819.853 567.973, 820.736 574.796, 828.047 575.242, 828.525 582.530, 835.372 582.669, 835.503 590.229, 841.669 597.901, 847.028 605.663, 851.587 613.493, 855.353 621.370, 858.337 629.275, 860.552 " fill="none" stroke="rgb(0, 0, 0)" stroke-linecap="butt" stroke-linejoin="round" stroke-opacity="1.0" stroke-width="3.0" />
            <path d=" M 785.913, 567.938 775.922, 567.521 775.128, 567.488 771.041, 563.917 763.510, 557.339 755.979, 550.760 753.036, 548.189 752.394, 547.627 751.751, 547.065 751.107, 546.501 750.464, 545.937 749.727, 545.146 749.057, 544.128 748.468, 542.900 747.973, 541.487 747.582, 539.916 747.302, 538.216 747.298, 538.175 747.138, 536.421 747.132, 536.162 747.102, 534.872 747.094, 534.564 747.171, 532.682 747.368, 530.811 747.679, 528.988 747.756, 528.671 747.924, 527.973 748.100, 527.248 748.622, 525.624 749.235, 524.147 749.926, 522.846 750.683, 521.746 751.491, 520.866 751.668, 520.732 751.797, 520.633 752.334, 520.224 753.194, 519.832 753.919, 519.609 754.645, 519.386 755.369, 519.163 756.092, 518.941 756.455, 518.830 766.016, 515.899 775.577, 512.968 780.959, 511.318 " fill="none" stroke="rgb(0, 0, 0)" stroke-linecap="butt" stroke-linejoin="round" stroke-opacity="1.0" stroke-width="3.0" />
            <path d=" M 678.355, 235.022 675.240, 235.324 669.949, 235.836 661.486, 237.469 655.489, 239.202 652.992, 239.924 644.494, 243.228 636.023, 247.403 627.612, 252.460 619.473, 258.270 619.292, 258.400 611.601, 264.791 611.094, 265.213 603.852, 272.110 603.045, 272.879 596.247, 280.212 595.173, 281.371 588.818, 289.093 587.510, 290.682 581.603, 298.751 580.098, 300.806 574.634, 309.181 572.974, 311.726 567.943, 320.368 566.171, 323.413 561.561, 332.287 559.722, 335.828 558.404, 338.669 557.957, 339.634 557.894, 339.769 555.096, 345.804 554.995, 346.022 554.444, 347.211 553.650, 348.922 553.608, 349.026 550.687, 356.087 549.235, 359.597 547.976, 362.642 547.715, 363.353 546.289, 367.232 542.839, 376.619 542.723, 376.935 540.562, 383.611 539.143, 387.997 537.925, 391.762 535.215, 401.388 534.868, 402.619 533.615, 407.071 531.269, 416.792 529.818, 422.804 527.830, 432.605 527.146, 435.973 526.553, 438.897 524.914, 448.762 523.832, 455.280 522.532, 465.195 521.656, 471.881 520.688, 481.834 520.018, 488.717 519.363, 498.696 519.185, 501.408 518.930, 505.291 518.908, 505.632 518.894, 506.033 518.552, 516.027 518.499, 517.573 518.329, 522.553 518.328, 522.848 518.301, 532.697 518.283, 539.408 518.574, 549.404 518.770, 556.124 519.383, 566.105 519.783, 572.631 520.723, 582.587 521.315, 588.860 522.590, 598.778 523.344, 604.645 523.357, 604.745 524.975, 614.613 525.355, 616.927 525.895, 620.221 527.866, 630.025 528.912, 635.229 531.247, 644.953 532.107, 648.534 532.391, 649.714 535.104, 659.338 536.312, 663.620 539.418, 673.125 540.653, 676.902 541.001, 677.829 541.103, 678.101 541.844, 680.075 542.515, 681.863 544.415, 686.923 545.388, 689.515 548.594, 696.989 549.764, 699.717 550.117, 700.541 550.495, 701.421 551.253, 702.972 554.275, 709.160 554.829, 710.295 555.787, 712.256 555.947, 712.584 557.834, 715.984 561.716, 722.977 567.053, 731.433 567.773, 732.574 573.614, 740.691 574.092, 741.356 580.453, 749.072 580.645, 749.305 587.401, 756.414 594.333, 762.674 601.414, 768.082 608.616, 772.639 615.912, 776.351 621.108, 778.377 623.277, 779.224 630.686, 781.267 638.114, 782.496 645.539, 782.927 652.939, 782.575 660.293, 781.459 667.581, 779.603 674.785, 777.028 681.888, 773.756 688.873, 769.812 695.724, 765.223 702.428, 760.013 708.972, 754.208 715.343, 747.835 721.530, 740.920 727.522, 733.489 733.310, 725.569 738.885, 717.186 744.075, 708.638 744.239, 708.367 749.094, 699.625 749.365, 699.137 753.898, 690.223 754.255, 689.521 758.479, 680.457 758.904, 679.545 762.831, 670.348 763.307, 669.234 766.946, 659.919 767.457, 658.611 770.818, 649.193 771.350, 647.702 774.442, 638.192 774.982, 636.531 777.813, 626.940 778.350, 625.120 780.924, 615.457 781.448, 613.492 783.774, 603.766 784.275, 601.671 786.357, 591.890 786.828, 589.680 788.670, 579.851 789.103, 577.539 790.709, 567.669 791.098, 565.273 792.471, 555.367 792.812, 552.902 793.954, 542.967 794.243, 540.448 " fill="none" stroke="rgb(0, 0, 0)" stroke-linecap="butt" stroke-linejoin="round" stroke-opacity="1.0" stroke-width="3.0" />
            <path d=" M 780.959, 511.318 790.932, 512.049 791.682, 512.104 " fill="none" stroke="rgb(0, 0, 0)" stroke-linecap="butt" stroke-linejoin="round" stroke-opacity="1.0" stroke-width="3.0" />
            <path d=" M 825.249, 527.087 825.300, 526.289 825.633, 521.012 825.897, 516.823 825.978, 514.644 826.349, 504.651 826.368, 504.122 826.478, 494.123 826.507, 491.426 826.353, 481.427 826.312, 478.759 825.893, 468.768 825.784, 466.143 825.102, 456.166 824.927, 453.600 823.985, 443.644 823.748, 441.149 822.967, 434.739 822.246, 428.815 820.758, 418.926 820.411, 416.624 818.636, 406.783 818.242, 404.604 816.170, 394.821 815.738, 392.782 813.363, 383.068 812.901, 381.182 810.218, 371.549 809.738, 369.827 806.743, 360.286 806.256, 358.734 802.944, 349.299 802.461, 347.925 798.814, 338.614 798.351, 337.433 794.351, 328.268 793.924, 327.291 789.555, 318.297 789.184, 317.533 784.431, 308.734 784.135, 308.186 778.990, 299.611 778.787, 299.274 773.242, 290.952 773.150, 290.814 767.236, 282.824 761.049, 275.339 754.596, 268.399 747.886, 262.040 740.930, 256.293 733.742, 251.183 726.339, 246.727 720.933, 244.029 718.738, 242.934 710.954, 239.830 703.004, 237.456 694.906, 235.846 686.682, 235.029 680.385, 235.024 678.355, 235.022 " fill="none" stroke="rgb(0, 0, 0)" stroke-linecap="butt" stroke-linejoin="round" stroke-opacity="1.0" stroke-width="3.0" />
            <path d=" M 655.489, 239.202 660.022, 240.921 666.324, 244.087 672.454, 247.926 678.401, 252.413 684.151, 257.537 689.693, 263.278 695.015, 269.613 700.111, 276.509 704.973, 283.930 709.599, 291.837 713.986, 300.193 718.126, 308.983 722.010, 318.189 725.543, 327.544 725.634, 327.786 728.830, 337.262 728.994, 337.748 731.873, 347.325 732.089, 348.044 734.670, 357.705 734.920, 358.640 737.224, 368.371 737.492, 369.504 739.526, 379.294 739.800, 380.615 741.570, 390.457 741.840, 391.957 743.352, 401.842 743.607, 403.509 744.868, 413.429 745.099, 415.248 746.119, 425.196 746.319, 427.147 747.107, 437.116 747.270, 439.182 747.835, 449.166 747.958, 451.326 748.307, 461.320 748.385, 463.557 748.518, 473.556 748.548, 475.857 748.464, 485.856 748.444, 488.205 748.143, 498.201 748.071, 500.581 747.555, 510.568 747.432, 512.963 746.977, 519.200 746.741, 520.376 746.453, 521.509 746.115, 522.587 745.731, 523.598 745.303, 524.532 744.838, 525.378 744.339, 526.129 743.812, 526.775 743.696, 526.887 " fill="none" stroke="rgb(0, 0, 0)" stroke-linecap="butt" stroke-linejoin="round" stroke-opacity="1.0" stroke-width="3.0" />
            <path d=" M 719.086, 530.784 719.086, 530.784 719.050, 531.335 728.773, 533.670 738.497, 536.006 745.372, 537.657 747.298, 538.175 " fill="none" stroke="rgb(0, 0, 0)" stroke-linecap="butt" stroke-linejoin="round" stroke-opacity="1.0" stroke-width="3.0" />
            <path d=" M 803.202, 536.762 812.882, 539.271 813.070, 539.320 822.113, 541.664 823.977, 542.147 824.023, 542.158 829.969, 543.540 " fill="none" stroke="rgb(0, 0, 0)" stroke-linecap="butt" stroke-linejoin="round" stroke-opacity="1.0" stroke-width="3.0" />
            <path d=" M 799.535, 541.779 800.325, 541.825 810.308, 542.402 812.310, 542.518 814.239, 542.630 821.983, 543.078 823.928, 543.190 829.969, 543.540 830.853, 533.579 831.143, 530.314 831.770, 520.334 831.977, 517.046 832.349, 507.053 832.472, 503.758 832.587, 493.759 832.625, 490.475 832.481, 480.476 832.434, 477.218 832.031, 467.226 831.901, 464.012 831.234, 454.034 831.023, 450.879 830.090, 440.923 829.801, 437.845 828.596, 427.918 828.234, 424.932 826.753, 415.042 826.322, 412.165 824.560, 402.322 824.067, 399.569 822.015, 389.782 821.468, 387.169 819.120, 377.449 818.526, 374.991 815.875, 365.349 815.245, 363.060 813.481, 357.379 811.625, 351.404 808.335, 341.961 807.668, 340.049 806.040, 335.863 803.379, 329.021 799.407, 319.844 798.761, 318.350 794.429, 309.337 793.817, 308.063 789.112, 299.239 788.553, 298.191 783.462, 289.584 782.975, 288.760 777.485, 280.402 777.194, 279.959 777.090, 279.801 771.185, 271.730 770.903, 271.345 770.660, 271.047 764.425, 263.421 757.665, 256.058 750.633, 249.288 743.341, 243.142 735.802, 237.648 728.031, 232.834 720.042, 228.733 711.854, 225.372 703.484, 222.776 694.953, 220.973 686.282, 219.987 677.495, 219.842 667.497, 220.078 661.371, 220.223 " fill="none" stroke="rgb(0, 0, 0)" stroke-linecap="butt" stroke-linejoin="round" stroke-opacity="1.0" stroke-width="3.0" />
            <path d=" M 677.495, 219.842 669.710, 220.468 668.615, 220.556 659.955, 222.098 659.670, 222.149 650.686, 224.638 641.694, 228.034 632.722, 232.346 624.099, 237.409 623.804, 237.582 615.603, 243.305 614.971, 243.745 607.213, 250.054 606.258, 250.830 598.953, 257.659 597.699, 258.832 590.852, 266.120 589.330, 267.740 582.937, 275.430 581.185, 277.539 575.241, 285.580 573.301, 288.205 567.796, 296.554 565.712, 299.714 560.637, 308.331 558.455, 312.036 555.279, 318.072 553.662, 321.145 553.033, 322.340 552.234, 323.858 551.564, 325.131 550.752, 326.862 546.502, 335.914 545.072, 338.959 544.478, 340.381 543.055, 343.790 539.201, 353.018 539.011, 353.473 535.545, 362.853 533.413, 368.622 530.984, 376.100 528.304, 384.349 525.584, 393.971 523.712, 400.591 521.354, 410.309 519.661, 417.287 517.660, 427.085 516.172, 434.367 514.522, 444.230 513.263, 451.760 511.961, 461.675 510.948, 469.393 " fill="none" stroke="rgb(0, 0, 0)" stroke-linecap="butt" stroke-linejoin="round" stroke-opacity="1.0" stroke-width="3.0" />
            <path d=" M 811.581, 530.149 811.689, 530.027 812.150, 529.391 812.589, 528.670 813.004, 527.869 813.390, 526.995 813.615, 526.399 813.745, 526.055 814.065, 525.055 814.348, 524.003 823.328, 526.544 825.242, 527.085 825.249, 527.087 825.239, 527.115 825.029, 527.696 824.645, 528.574 824.234, 529.379 823.798, 530.104 823.341, 530.744 822.992, 531.147 822.866, 531.292 822.377, 531.745 821.877, 532.098 821.371, 532.347 820.862, 532.489 820.356, 532.522 819.855, 532.443 815.219, 531.158 813.845, 530.777 813.319, 530.631 811.581, 530.149 807.575, 529.038 807.196, 527.589 806.722, 526.285 806.160, 525.148 805.520, 524.197 804.811, 523.450 804.047, 522.918 803.239, 522.611 802.401, 522.536 798.261, 522.293 798.021, 522.279 791.077, 521.872 790.527, 521.840 789.666, 521.996 788.840, 522.383 788.064, 522.997 787.318, 523.826 787.172, 524.039 786.614, 524.855 785.964, 526.068 785.380, 527.445 784.870, 528.961 784.446, 530.592 784.112, 532.308 783.877, 534.082 788.380, 535.236 788.392, 535.237 789.995, 535.340 791.391, 535.430 799.081, 535.924 799.706, 535.964 800.258, 535.999 800.336, 535.437 800.453, 534.901 800.605, 534.405 800.787, 533.963 800.995, 533.588 801.223, 533.289 801.465, 533.074 801.714, 532.950 801.963, 532.920 " fill="none" stroke="rgb(0, 0, 0)" stroke-linecap="butt" stroke-linejoin="round" stroke-opacity="1.0" stroke-width="3.0" />
            <path d=" M 771.041, 563.917 769.406, 573.783 769.036, 576.010 767.156, 585.832 766.737, 588.021 764.607, 597.792 764.151, 599.883 761.770, 609.596 761.285, 611.574 758.647, 621.220 758.141, 623.072 755.240, 632.642 754.721, 634.353 751.551, 643.837 751.031, 645.394 747.585, 654.781 747.075, 656.173 743.345, 665.451 742.857, 666.666 738.833, 675.821 738.382, 676.848 734.055, 685.863 733.656, 686.696 729.016, 695.554 728.685, 696.185 723.719, 704.865 723.476, 705.291 718.172, 713.768 718.035, 713.987 712.371, 722.249 706.493, 730.053 700.408, 737.370 694.128, 744.175 687.664, 750.443 681.026, 756.149 674.228, 761.265 667.283, 765.766 660.205, 769.628 653.011, 772.827 645.717, 775.336 638.340, 777.136 630.900, 778.204 623.416, 778.518 621.108, 778.377 " fill="none" stroke="rgb(0, 0, 0)" stroke-linecap="butt" stroke-linejoin="round" stroke-opacity="1.0" stroke-width="3.0" />
            <path d=" M 789.995, 535.340 789.553, 540.180 788.409, 550.115 788.123, 552.604 786.697, 562.502 785.913, 567.938 778.427, 561.309 776.301, 559.426 772.187, 555.783 764.701, 549.153 764.531, 549.003 763.896, 548.439 763.259, 547.875 762.621, 547.309 761.984, 546.743 761.254, 545.949 760.591, 544.926 760.009, 543.693 759.520, 542.274 759.134, 540.695 758.930, 539.432 758.858, 538.987 758.698, 537.183 758.694, 537.024 758.656, 535.318 758.734, 533.426 758.930, 531.546 759.154, 530.227 759.241, 529.714 759.660, 527.965 760.179, 526.332 760.788, 524.848 761.475, 523.540 762.226, 522.434 763.028, 521.550 763.864, 520.904 764.716, 520.508 765.435, 520.284 766.155, 520.060 766.873, 519.835 767.590, 519.612 767.950, 519.499 777.497, 516.524 780.699, 515.526 790.247, 512.552 791.682, 512.104 791.077, 521.872 " fill="none" stroke="rgb(0, 0, 0)" stroke-linecap="butt" stroke-linejoin="round" stroke-opacity="1.0" stroke-width="3.0" />
            <path d=" M 509.134, 451.118 510.122, 461.069 510.948, 469.393 509.977, 479.345 509.203, 487.289 508.548, 497.267 508.071, 504.546 508.024, 505.270 507.685, 515.264 507.414, 523.257 507.393, 533.257 507.377, 541.172 507.677, 551.167 507.910, 558.936 508.534, 568.917 509.007, 576.474 509.962, 586.428 510.660, 593.711 511.952, 603.627 512.858, 610.575 514.497, 620.440 515.587, 626.998 517.582, 636.797 518.827, 642.917 520.827, 651.141 522.561, 658.269 525.306, 667.885 526.766, 672.999 529.908, 682.492 531.418, 687.055 534.972, 696.402 536.490, 700.392 538.567, 705.172 541.956, 712.968 541.965, 712.986 546.042, 721.222 547.586, 724.339 547.787, 724.746 551.775, 731.828 553.297, 734.532 553.954, 735.697 555.384, 737.929 560.426, 745.796 566.329, 753.867 567.172, 755.020 573.599, 762.682 574.163, 763.355 581.121, 770.537 581.367, 770.790 588.754, 777.320 596.293, 782.941 603.957, 787.656 611.716, 791.472 619.542, 794.398 627.409, 796.444 635.291, 797.627 643.164, 797.966 651.004, 797.479 658.791, 796.187 666.502, 794.115 674.118, 791.288 681.621, 787.731 688.995, 783.470 696.222, 778.534 703.289, 772.951 710.182, 766.747 716.888, 759.952 723.396, 752.595 729.694, 744.704 735.558, 736.604 735.774, 736.307 741.279, 727.959 741.626, 727.432 746.786, 718.866 747.243, 718.108 752.071, 709.350 752.617, 708.360 757.126, 699.434 757.741, 698.216 761.944, 689.142 762.610, 687.703 766.517, 678.498 767.218, 676.847 770.839, 667.526 771.559, 665.673 774.904, 656.249 775.630, 654.207 778.708, 644.692 779.426, 642.472 782.244, 632.878 782.944, 630.494 785.508, 620.829 786.180, 618.296 788.497, 608.568 789.132, 605.902 791.206, 596.119 791.796, 593.334 793.632, 583.504 794.171, 580.616 795.771, 570.744 796.253, 567.769 797.621, 557.863 798.042, 554.816 799.180, 544.881 799.535, 541.779 794.243, 540.448 799.455, 540.746 809.439, 541.316 812.872, 541.512 812.410, 541.394 802.723, 538.911 799.942, 538.199 799.243, 538.020 791.353, 535.998 791.391, 535.430 791.391, 535.430 " fill="none" stroke="rgb(0, 0, 0)" stroke-linecap="butt" stroke-linejoin="round" stroke-opacity="1.0" stroke-width="3.0" />
            <path d=" M 764.729, 537.422 764.413, 537.345 764.118, 537.121 763.858, 536.762 763.645, 536.280 763.487, 535.700 763.392, 535.046 763.364, 534.346 763.405, 533.632 763.511, 532.935 763.680, 532.285 763.903, 531.711 764.170, 531.237 764.470, 530.886 764.790, 530.671 765.115, 530.603 " fill="none" stroke="rgb(0, 0, 0)" stroke-linecap="butt" stroke-linejoin="round" stroke-opacity="1.0" stroke-width="3.0" />
            <path d=" M 765.115, 530.603 765.431, 530.685 765.725, 530.911 765.983, 531.272 766.196, 531.753 766.353, 532.332 766.447, 532.983 766.474, 533.680 766.434, 534.392 766.328, 535.087 766.160, 535.735 765.938, 536.308 765.672, 536.782 765.373, 537.135 765.054, 537.351 764.729, 537.422 " fill="none" stroke="rgb(0, 0, 0)" stroke-linecap="butt" stroke-linejoin="round" stroke-opacity="1.0" stroke-width="3.0" />
            <path d=" M 501.794, 486.969 501.140, 496.948 500.576, 505.532 500.456, 509.080 500.119, 519.075 499.949, 524.100 499.930, 534.100 499.915, 542.591 500.219, 552.586 500.473, 560.923 501.103, 570.903 501.616, 579.016 502.579, 588.969 503.335, 596.792 504.638, 606.707 505.620, 614.176 507.271, 624.039 508.453, 631.097 510.463, 640.893 511.817, 647.489 514.198, 657.201 515.690, 663.287 518.456, 672.896 518.935, 674.560 520.050, 678.433 523.216, 687.918 524.871, 692.875 528.453, 702.211 530.124, 706.566 534.142, 715.723 535.783, 719.463 536.788, 721.473 540.266, 728.428 541.816, 731.529 544.302, 735.897 545.859, 738.632 548.193, 742.734 550.084, 745.652 551.631, 748.039 553.738, 751.290 554.881, 753.054 560.831, 761.091 561.850, 762.467 568.326, 770.087 569.067, 770.959 576.077, 778.090 576.499, 778.520 584.116, 785.147 591.887, 790.835 599.781, 795.591 607.769, 799.423 615.822, 802.340 623.914, 804.355 632.017, 805.486 640.107, 805.754 648.161, 805.177 656.156, 803.778 664.071, 801.585 671.886, 798.623 679.583, 794.917 687.146, 790.495 694.556, 785.387 701.801, 779.622 708.866, 773.227 715.739, 766.232 722.408, 758.668 728.636, 750.844 728.862, 750.561 734.719, 742.456 735.091, 741.941 740.592, 733.590 741.088, 732.837 746.246, 724.269 746.843, 723.277 751.671, 714.519 752.350, 713.287 756.860, 704.362 757.601, 702.896 761.806, 693.823 762.590, 692.130 766.500, 682.927 767.312, 681.016 770.938, 671.697 771.761, 669.579 775.112, 660.157 775.934, 657.845 779.017, 648.332 779.825, 645.839 782.648, 636.246 783.432, 633.585 786.001, 623.920 786.749, 621.106 789.070, 611.379 789.775, 608.428 791.853, 598.646 792.506, 595.573 794.345, 585.743 794.940, 582.564 796.543, 572.693 797.073, 569.424 798.443, 559.518 798.905, 556.176 800.043, 546.241 800.432, 542.842 800.325, 541.825 " fill="none" stroke="rgb(0, 0, 0)" stroke-linecap="butt" stroke-linejoin="round" stroke-opacity="1.0" stroke-width="3.0" />
            <path d=" M 661.371, 220.223 656.286, 220.640 653.304, 220.884 645.162, 222.423 636.970, 224.859 628.753, 228.202 620.540, 232.464 612.359, 237.652 604.374, 243.671 604.242, 243.771 596.728, 250.369 596.218, 250.816 589.178, 257.917 588.320, 258.782 581.750, 266.320 580.582, 267.660 574.470, 275.575 573.035, 277.434 567.369, 285.674 565.714, 288.081 560.479, 296.601 558.651, 299.576 553.919, 308.181 551.881, 311.888 551.218, 313.234 550.798, 314.087 550.558, 314.575 549.337, 317.055 545.435, 324.978 542.928, 330.671 541.505, 333.902 539.346, 338.805 535.690, 348.113 533.644, 353.321 530.351, 362.763 529.238, 365.955 528.359, 368.475 525.418, 378.032 523.517, 384.207 520.918, 393.863 519.144, 400.457 516.881, 410.198 515.263, 417.161 513.330, 426.972 511.896, 434.248 510.280, 444.117 509.134, 451.118 506.099, 460.646 503.599, 468.494 " fill="none" stroke="rgb(0, 0, 0)" stroke-linecap="butt" stroke-linejoin="round" stroke-opacity="1.0" stroke-width="3.0" />
            <path d=" M 503.599, 468.494 502.627, 478.447 501.794, 486.969 " fill="none" stroke="rgb(0, 0, 0)" stroke-linecap="butt" stroke-linejoin="round" stroke-opacity="1.0" stroke-width="3.0" />
            <path d=" M 813.481, 357.379 811.158, 347.653 810.870, 346.449 808.304, 336.784 808.008, 335.666 805.191, 326.071 804.907, 325.106 801.832, 315.591 801.571, 314.785 798.229, 305.360 798.002, 304.718 794.383, 295.396 794.200, 294.923 790.294, 285.718 790.167, 285.419 785.963, 276.345 785.906, 276.223 781.418, 267.358 776.704, 258.845 771.767, 250.706 766.611, 242.963 761.241, 235.632 755.662, 228.732 749.878, 222.284 743.897, 216.307 737.723, 210.825 731.365, 205.861 724.828, 201.439 718.121, 197.584 711.255, 194.315 704.240, 191.648 697.086, 189.600 689.807, 188.190 682.413, 187.437 674.920, 187.359 667.342, 187.976 667.231, 187.995 659.695, 189.307 651.996, 191.368 644.263, 194.167 636.513, 197.711 628.765, 202.006 621.039, 207.057 613.355, 212.868 605.737, 219.442 598.576, 226.422 598.206, 226.782 597.391, 227.672 590.788, 234.886 588.534, 237.627 583.504, 243.745 577.544, 251.775 576.378, 253.346 570.797, 261.643 569.433, 263.671 564.956, 270.995 562.690, 274.702 557.830, 283.442 556.175, 286.419 551.917, 294.829 549.909, 298.796 548.768, 301.275 547.814, 303.348 547.351, 304.354 547.109, 304.880 543.919, 311.810 540.901, 319.033 539.528, 322.318 538.227, 325.431 534.689, 334.784 532.858, 339.624 529.625, 349.087 527.827, 354.348 527.348, 355.910 524.412, 365.469 523.155, 369.561 520.509, 379.205 518.859, 385.219 516.499, 394.937 514.959, 401.277 512.880, 411.059 511.471, 417.687 509.667, 427.523 508.407, 434.395 506.876, 444.277 505.780, 451.349 504.518, 461.269 503.599, 468.494 502.607, 478.445 501.876, 485.775 501.794, 486.969 501.066, 496.943 500.614, 503.135 500.334, 509.244 499.876, 519.234 499.817, 520.516 499.627, 530.514 499.488, 537.861 499.569, 547.861 499.628, 555.114 499.982, 565.108 500.233, 572.218 500.862, 582.198 501.299, 589.119 502.207, 599.078 502.818, 605.764 504.011, 615.693 504.782, 622.102 506.270, 631.990 507.186, 638.079 508.975, 647.917 510.017, 653.648 512.113, 663.426 513.258, 668.767 515.670, 678.472 516.894, 683.396 517.790, 686.545 520.528, 696.163 520.907, 697.496 523.981, 707.012 525.280, 711.032 528.703, 720.428 529.994, 723.971 533.782, 733.226 534.995, 736.187 535.033, 736.282 538.402, 743.627 540.378, 747.936 542.249, 751.584 543.754, 754.517 546.008, 758.911 547.884, 762.184 549.388, 764.808 551.458, 768.420 551.900, 769.190 557.293, 777.611 558.029, 778.760 563.856, 786.887 564.375, 787.612 570.647, 795.401 570.916, 795.735 577.629, 803.124 584.495, 809.772 591.495, 815.675 598.607, 820.832 605.812, 825.248 613.089, 828.933 620.418, 831.898 627.780, 834.154 633.160, 835.292 635.158, 835.714 642.535, 836.589 649.897, 836.790 657.227, 836.330 664.513, 835.222 671.738, 833.486 678.891, 831.145 685.959, 828.219 692.930, 824.727 699.795, 820.689 706.542, 816.123 713.162, 811.046 719.648, 805.473 725.989, 799.425 732.179, 792.923 738.211, 785.990 744.080, 778.647 749.779, 770.914 755.303, 762.807 760.647, 754.345 765.704, 745.718 765.806, 745.544 770.587, 736.762 770.774, 736.420 775.290, 727.498 775.547, 726.989 779.809, 717.943 780.124, 717.274 784.139, 708.115 784.501, 707.291 788.278, 698.032 788.676, 697.058 792.222, 687.708 792.645, 686.591 795.966, 677.159 796.407, 675.906 799.508, 666.399 799.959, 665.017 802.843, 655.442 803.296, 653.938 805.969, 644.302 806.417, 642.684 808.884, 632.994 809.322, 631.273 811.588, 621.533 812.010, 619.718 814.076, 609.934 814.478, 608.035 816.348, 598.212 816.724, 596.237 818.401, 586.378 818.748, 584.337 820.232, 574.448 820.547, 572.351 821.842, 562.435 822.122, 560.291 823.227, 550.352 823.470, 548.172 823.928, 543.190 " fill="none" stroke="rgb(0, 0, 0)" stroke-linecap="butt" stroke-linejoin="round" stroke-opacity="1.0" stroke-width="3.0" />
            <path d=" M 665.094, 188.169 657.437, 189.501 649.728, 191.561 641.985, 194.359 634.225, 197.901 626.468, 202.192 618.733, 207.239 611.041, 213.045 603.414, 219.614 596.246, 226.587 595.876, 226.947 592.216, 230.937 588.449, 235.044 582.092, 242.762 581.987, 242.890 581.159, 243.895 575.191, 251.919 574.026, 253.486 573.551, 254.192 573.517, 254.242 567.928, 262.534 567.074, 263.801 561.852, 272.329 560.326, 274.820 555.458, 283.556 554.438, 285.388 553.805, 286.524 551.359, 291.346 548.171, 297.633 547.534, 298.889 546.775, 300.535 546.738, 300.616 546.048, 302.111 541.860, 311.192 541.539, 311.888 540.180, 315.136 538.802, 318.426 535.844, 325.494 532.300, 334.845 530.471, 339.672 527.233, 349.133 526.444, 351.439 525.437, 354.380 522.496, 363.938 520.762, 369.575 518.112, 379.218 516.464, 385.216 514.101, 394.932 512.563, 401.256 510.481, 411.036 509.074, 417.646 507.268, 427.482 506.009, 434.335 504.476, 444.217 503.382, 451.270 502.119, 461.190 501.202, 468.396 500.209, 478.346 499.479, 485.657 498.754, 495.630 498.219, 502.996 497.776, 512.665 497.424, 520.357 497.236, 530.356 497.098, 537.683 497.180, 547.683 497.240, 554.917 497.596, 564.910 497.849, 572.002 498.481, 581.982 498.919, 588.884 499.831, 598.842 500.442, 605.511 501.639, 615.439 502.410, 621.830 503.903, 631.718 504.820, 637.790 506.614, 647.628 507.656, 653.343 509.758, 663.120 510.903, 668.447 513.322, 678.150 514.546, 683.060 517.179, 692.289 518.565, 697.146 521.646, 706.660 522.945, 710.669 526.376, 720.062 527.667, 723.596 531.463, 732.847 532.714, 735.896 534.513, 739.809 537.939, 747.263 538.066, 747.540 541.798, 754.797 543.306, 757.729 543.705, 758.505 547.485, 765.086 548.980, 767.689 549.604, 768.776 551.081, 771.075 555.743, 778.339 561.578, 786.460 562.098, 787.184 568.377, 794.966 568.647, 795.301 575.370, 802.685 582.246, 809.330 589.255, 815.231 596.378, 820.386 603.593, 824.800 610.879, 828.485 618.218, 831.451 625.590, 833.708 632.978, 835.270 " fill="none" stroke="rgb(0, 0, 0)" stroke-linecap="butt" stroke-linejoin="round" stroke-opacity="1.0" stroke-width="3.0" />
            <path d=" M 667.342, 187.976 665.094, 188.169 " fill="none" stroke="rgb(0, 0, 0)" stroke-linecap="butt" stroke-linejoin="round" stroke-opacity="1.0" stroke-width="3.0" />
            <path d=" M 632.978, 835.270 635.158, 835.714 " fill="none" stroke="rgb(0, 0, 0)" stroke-linecap="butt" stroke-linejoin="round" stroke-opacity="1.0" stroke-width="3.0" />
            <path d=" M 485.552, 465.682 484.638, 474.762 483.636, 484.711 483.559, 485.478 482.829, 495.451 482.104, 505.366 482.010, 507.428 481.552, 517.417 481.403, 520.669 481.287, 523.202 481.192, 525.278 481.007, 535.276 480.825, 545.143 480.915, 555.143 481.003, 564.895 481.370, 574.888 481.722, 584.463 482.371, 594.442 482.978, 603.784 483.913, 613.740 484.762, 622.791 485.988, 632.716 487.063, 641.424 488.587, 651.307 489.869, 659.623 491.699, 669.455 493.165, 677.333 495.309, 687.100 496.933, 694.500 499.401, 704.191 501.154, 711.077 503.957, 720.676 505.809, 727.017 508.959, 736.508 510.783, 742.005 510.875, 742.281 512.548, 746.746 516.058, 756.109 516.329, 756.832 519.453, 764.245 522.147, 770.637 526.419, 779.678 527.863, 782.735 527.985, 782.993 528.193, 783.433 528.304, 783.668 529.327, 785.602 531.446, 789.608 534.776, 795.902 535.205, 796.626 536.532, 798.868 536.720, 799.186 538.002, 801.351 540.946, 806.323 541.535, 807.319 541.646, 807.485 542.430, 808.668 544.622, 811.971 548.557, 817.902 554.532, 825.921 555.815, 827.642 562.248, 835.297 563.283, 836.528 570.182, 843.768 570.935, 844.558 578.301, 851.322 578.747, 851.731 586.575, 857.954 586.694, 858.048 594.751, 863.515 602.896, 868.139 611.106, 871.931 619.360, 874.904 627.636, 877.071 631.956, 878.034 640.213, 879.406 648.454, 880.006 656.661, 879.852 664.818, 878.964 672.910, 877.364 680.920, 875.074 688.836, 872.116 696.645, 868.513 704.334, 864.288 711.893, 859.465 719.311, 854.066 726.579, 848.116 733.688, 841.638 740.630, 834.654 747.397, 827.187 753.788, 819.495 753.984, 819.259 760.059, 811.317 760.383, 810.894 766.154, 802.727 766.589, 802.111 772.067, 793.745 772.598, 792.933 777.792, 784.388 778.404, 783.380 783.324, 774.674 784.003, 773.472 788.660, 764.623 789.393, 763.230 793.794, 754.251 794.568, 752.672 798.723, 743.576 799.526, 741.817 803.442, 732.616 804.265, 730.684 807.950, 721.387 808.781, 719.290 812.241, 709.907 813.073, 707.652 816.315, 698.192 817.138, 695.788 820.167, 686.258 820.975, 683.715 823.795, 674.121 824.581, 671.448 827.198, 661.797 827.955, 659.003 830.373, 649.300 831.096, 646.396 833.318, 636.646 834.002, 633.641 836.031, 623.849 836.672, 620.754 838.511, 610.925 839.105, 607.750 840.756, 597.887 841.299, 594.642 842.764, 584.750 843.254, 581.444 844.535, 571.527 844.968, 568.172 846.065, 558.232 846.440, 554.838 847.354, 544.880 847.669, 541.457 848.401, 531.484 848.654, 528.042 849.205, 518.057 849.395, 514.607 849.762, 504.614 849.889, 501.167 850.073, 491.168 850.137, 487.734 850.137, 477.734 850.136, 474.322 849.950, 464.324 849.887, 460.947 849.513, 450.954 849.388, 447.621 848.824, 437.637 848.638, 434.360 847.881, 424.389 847.637, 421.178 846.683, 411.223 846.382, 408.089 845.229, 398.156 844.875, 395.110 843.517, 385.203 843.113, 382.256 841.546, 372.379 841.096, 369.542 839.315, 359.702 838.823, 356.985 836.822, 347.188 836.294, 344.602 834.067, 334.853 833.508, 332.410 831.048, 322.717 830.466, 320.426 827.764, 310.798 827.166, 308.669 824.215, 299.114 823.610, 297.157 820.399, 287.686 819.797, 285.909 816.317, 276.534 815.727, 274.946 811.968, 265.679 811.403, 264.287 807.352, 255.144 806.824, 253.954 802.470, 244.952 801.993, 243.967 797.321, 235.125 796.911, 234.349 791.909, 225.690 791.581, 225.123 786.234, 216.672 786.005, 216.311 780.300, 208.098 780.188, 207.936 774.131, 200.024 767.841, 192.598 761.323, 185.683 754.582, 179.305 747.626, 173.488 740.461, 168.257 733.096, 163.639 725.541, 159.659 717.806, 156.342 709.902, 153.712 701.842, 151.794 693.639, 150.611 685.308, 150.187 676.865, 150.542 672.416, 150.996 663.855, 152.153 655.218, 154.127 646.524, 156.934 637.793, 160.591 629.048, 165.109 620.537, 170.360 620.312, 170.499 612.197, 176.343 611.607, 176.768 603.902, 183.142 602.961, 183.921 595.669, 190.764 594.397, 191.958 587.518, 199.216 585.943, 200.878 579.472, 208.501 577.627, 210.674 571.554, 218.619 569.476, 221.337 563.791, 229.564 561.518, 232.853 556.210, 241.328 553.782, 245.203 548.839, 253.896 546.297, 258.366 546.005, 258.931 545.668, 259.583 542.866, 265.006 542.169, 266.356 540.769, 269.066 539.091, 272.313 538.020, 274.595 536.649, 277.517 536.496, 277.843 535.557, 279.844 533.544, 284.134 532.196, 287.006 532.191, 287.015 530.953, 289.924 527.036, 299.125 526.951, 299.323 525.631, 302.425 525.626, 302.436 522.031, 311.767 519.423, 318.534 518.890, 320.065 515.607, 329.511 513.605, 335.268 511.999, 340.416 509.019, 349.961 508.199, 352.588 505.517, 362.221 503.227, 370.442 500.835, 380.152 498.710, 388.775 496.603, 398.551 494.668, 407.528 492.842, 417.360 491.196, 426.221 491.118, 426.640 489.555, 436.610 488.075, 446.047 486.801, 455.965 485.552, 465.682 " fill="none" stroke="rgb(0, 0, 0)" stroke-linecap="butt" stroke-linejoin="round" stroke-opacity="1.0" stroke-width="3.0" />
            <path d=" M 676.865, 150.542 668.327, 151.697 659.712, 153.670 651.040, 156.480 642.331, 160.140 633.607, 164.663 625.105, 169.928 624.890, 170.061 616.786, 175.920 616.206, 176.339 608.512, 182.728 607.578, 183.504 600.299, 190.361 599.032, 191.555 592.167, 198.826 590.596, 200.490 584.138, 208.126 582.296, 210.305 576.237, 218.261 574.160, 220.989 568.489, 229.225 566.217, 232.527 560.923, 241.011 558.494, 244.902 553.565, 253.603 551.021, 258.092 550.461, 259.181 546.924, 266.052 543.826, 272.069 543.510, 272.745 542.992, 273.853 542.149, 275.656 538.965, 282.465 538.077, 284.365 536.937, 286.802 535.177, 290.952 533.844, 294.095 530.381, 302.256 526.796, 311.592 524.185, 318.391 520.968, 327.679 518.375, 335.162 515.404, 344.710 512.975, 352.520 510.300, 362.156 508.007, 370.415 505.622, 380.126 503.494, 388.790 503.331, 389.546 502.759, 392.208 502.053, 395.494 499.951, 405.271 499.454, 407.586 497.912, 415.906 496.091, 425.739 495.905, 426.742 494.359, 436.622 492.862, 446.194 491.589, 456.112 491.468, 457.056 490.337, 465.874 490.273, 466.516 489.272, 476.465 488.342, 485.716 487.612, 495.689 486.883, 505.650 486.875, 505.832 486.804, 507.386 486.700, 509.647 486.378, 516.662 486.276, 518.877 486.073, 523.289 485.967, 525.607 485.780, 535.606 485.594, 545.518 485.681, 555.518 485.753, 563.949 485.765, 565.314 486.128, 575.308 486.392, 582.572 486.477, 584.927 487.120, 594.907 487.725, 604.291 488.652, 614.248 489.499, 623.340 490.716, 633.266 491.790, 642.014 493.304, 651.898 494.584, 660.252 496.403, 670.085 497.867, 677.999 499.999, 687.769 501.622, 695.202 504.077, 704.895 505.824, 711.791 505.829, 711.812 508.618, 721.415 510.469, 727.784 512.134, 732.828 515.270, 742.324 515.519, 743.077 519.014, 752.446 520.956, 757.655 524.825, 766.876 526.758, 771.484 529.099, 776.463 532.467, 783.624 532.897, 784.538 536.211, 790.832 537.682, 793.624 539.350, 796.792 541.855, 801.042 543.333, 803.549 545.455, 807.147 546.091, 808.227 551.603, 816.570 553.093, 818.826 559.052, 826.856 560.331, 828.578 566.749, 836.247 567.778, 837.476 574.663, 844.729 575.410, 845.515 582.763, 852.292 583.200, 852.694 591.018, 858.930 591.125, 859.016 599.161, 864.486 607.284, 869.111 615.471, 872.902 623.702, 875.871 631.956, 878.034 " fill="none" stroke="rgb(0, 0, 0)" stroke-linecap="butt" stroke-linejoin="round" stroke-opacity="1.0" stroke-width="3.0" />
            <path d=" M 747.924, 527.973 743.696, 526.887 734.721, 524.583 734.311, 523.175 733.802, 521.907 733.202, 520.802 732.522, 519.877 731.772, 519.148 730.965, 518.629 730.114, 518.327 729.234, 518.250 719.251, 517.665 718.073, 517.596 717.172, 517.743 716.306, 518.115 715.491, 518.707 714.708, 519.506 713.971, 520.501 713.292, 521.674 712.683, 523.006 712.155, 524.474 711.717, 526.053 711.376, 527.716 711.166, 529.233 711.139, 529.435 715.903, 530.579 719.086, 530.784 720.794, 530.893 727.067, 531.296 727.146, 530.751 727.266, 530.232 727.423, 529.752 727.613, 529.325 727.831, 528.962 728.070, 528.673 728.325, 528.466 728.588, 528.348 728.852, 528.320 " fill="none" stroke="rgb(0, 0, 0)" stroke-linecap="butt" stroke-linejoin="round" stroke-opacity="1.0" stroke-width="3.0" />
            <path d=" M 729.234, 518.250 728.339, 518.398 727.478, 518.773 726.669, 519.368 725.892, 520.172 725.160, 521.172 724.485, 522.351 723.880, 523.690 723.355, 525.165 722.918, 526.752 722.679, 527.931 722.578, 528.423 722.341, 530.151 " fill="none" stroke="rgb(0, 0, 0)" stroke-linecap="butt" stroke-linejoin="round" stroke-opacity="1.0" stroke-width="3.0" />
            <path d=" M 711.139, 529.435 712.943, 529.550 719.050, 529.940 722.341, 530.151 727.067, 531.296 " fill="none" stroke="rgb(0, 0, 0)" stroke-linecap="butt" stroke-linejoin="round" stroke-opacity="1.0" stroke-width="3.0" />
            <path d=" M 728.852, 528.320 729.109, 528.383 729.354, 528.536 729.578, 528.775 729.777, 529.093 729.944, 529.480 730.076, 529.928 730.168, 530.423 730.218, 530.952 730.225, 531.500 730.188, 532.053 " fill="none" stroke="rgb(0, 0, 0)" stroke-linecap="butt" stroke-linejoin="round" stroke-opacity="1.0" stroke-width="3.0" />
            <path d=" M 719.050, 531.335 726.231, 531.798 730.188, 532.053 734.258, 533.040 743.977, 535.397 747.132, 536.162 " fill="none" stroke="rgb(0, 0, 0)" stroke-linecap="butt" stroke-linejoin="round" stroke-opacity="1.0" stroke-width="3.0" />
            <path d=" M 802.401, 522.536 801.547, 522.693 800.727, 523.083 799.959, 523.700 799.220, 524.534 798.521, 525.569 798.308, 525.972 797.876, 526.788 797.296, 528.172 796.790, 529.697 796.367, 531.336 796.133, 532.553 796.036, 533.061 795.800, 534.844 " fill="none" stroke="rgb(0, 0, 0)" stroke-linecap="butt" stroke-linejoin="round" stroke-opacity="1.0" stroke-width="3.0" />
            <path d=" M 783.877, 534.082 791.362, 534.560 795.800, 534.844 799.062, 535.689 800.258, 535.999 " fill="none" stroke="rgb(0, 0, 0)" stroke-linecap="butt" stroke-linejoin="round" stroke-opacity="1.0" stroke-width="3.0" />
            <path d=" M 801.963, 532.920 802.206, 532.984 802.436, 533.141 802.647, 533.385 802.832, 533.712 802.988, 534.111 803.109, 534.571 803.193, 535.081 803.237, 535.626 803.240, 536.192 803.202, 536.762 799.125, 536.499 791.353, 535.998 " fill="none" stroke="rgb(0, 0, 0)" stroke-linecap="butt" stroke-linejoin="round" stroke-opacity="1.0" stroke-width="3.0" />
            <path d=" M 786.595, 498.010 786.798, 498.088 786.980, 498.208 787.134, 498.366 787.256, 498.555 787.341, 498.771 787.385, 499.008 787.383, 499.260 787.337, 499.496 787.251, 499.721 787.127, 499.927 786.970, 500.105 786.787, 500.250 786.581, 500.356 786.359, 500.419 786.126, 500.434 785.966, 500.413 " fill="none" stroke="rgb(0, 0, 0)" stroke-linecap="butt" stroke-linejoin="round" stroke-opacity="1.0" stroke-width="3.0" />
            <path d=" M 786.595, 498.010 786.580, 498.006 786.571, 498.003 786.540, 497.997 786.503, 497.991 786.461, 497.985 786.415, 497.979 786.368, 497.974 786.321, 497.971 786.274, 497.968 786.234, 497.966 786.200, 497.966 786.172, 497.967 786.151, 497.969 785.927, 498.009 785.904, 498.015 785.681, 498.103 785.479, 498.231 785.307, 498.396 785.168, 498.594 785.155, 498.615 785.056, 498.841 785.004, 499.090 785.003, 499.329 785.048, 499.563 785.139, 499.784 785.272, 499.983 785.441, 500.153 785.461, 500.169 785.657, 500.300 785.813, 500.368 785.880, 500.390 785.966, 500.413 " fill="none" stroke="rgb(0, 0, 0)" stroke-linecap="butt" stroke-linejoin="round" stroke-opacity="1.0" stroke-width="3.0" />
            <path d=" M 786.475, 502.318 789.411, 502.451 789.538, 496.311 789.397, 496.268 786.619, 496.135 783.751, 495.998 783.115, 502.135 784.041, 502.208 " fill="none" stroke="rgb(0, 0, 0)" stroke-linecap="butt" stroke-linejoin="round" stroke-opacity="1.0" stroke-width="3.0" />
            <path d=" M 783.115, 502.135 788.762, 502.420 " fill="none" stroke="rgb(0, 0, 0)" stroke-linecap="butt" stroke-linejoin="round" stroke-opacity="1.0" stroke-width="3.0" />
            <path d=" M 789.411, 502.451 788.762, 502.420 789.397, 496.268 " fill="none" stroke="rgb(0, 0, 0)" stroke-linecap="butt" stroke-linejoin="round" stroke-opacity="1.0" stroke-width="3.0" />
            <path d=" M 711.166, 529.233 704.565, 528.056 694.738, 526.203 693.122, 525.898 683.310, 523.966 681.677, 523.645 671.878, 521.651 670.226, 521.314 660.436, 519.274 658.762, 518.925 648.978, 516.855 647.279, 516.495 637.499, 514.411 635.773, 514.043 625.992, 511.959 624.237, 511.585 614.453, 509.517 612.667, 509.140 602.877, 507.102 601.057, 506.723 591.258, 504.730 589.403, 504.353 579.592, 502.418 577.698, 502.045 577.357, 492.051 577.218, 487.983 576.751, 477.994 576.567, 474.063 575.971, 464.081 575.745, 460.305 575.015, 450.332 574.752, 446.730 573.882, 436.768 573.584, 433.361 572.570, 423.413 572.244, 420.221 571.076, 410.289 570.729, 407.330 569.400, 397.419 569.038, 394.717 567.539, 384.830 567.172, 382.406 565.491, 372.548 565.129, 370.422 563.254, 360.599 562.910, 358.793 560.826, 349.012 560.514, 347.549 558.404, 338.669 " fill="none" stroke="rgb(0, 0, 0)" stroke-linecap="butt" stroke-linejoin="round" stroke-opacity="1.0" stroke-width="3.0" />
            <path d=" M 546.005, 258.931 545.528, 258.903 543.429, 258.782 541.568, 258.512 540.385, 258.341 538.330, 258.043 536.033, 257.711 534.218, 257.448 532.162, 257.150 531.345, 257.032 " fill="none" stroke="rgb(0, 0, 0)" stroke-linecap="butt" stroke-linejoin="round" stroke-opacity="1.0" stroke-width="3.0" />
            <path d=" M 509.189, 248.862 504.403, 247.469 499.506, 247.032 494.509, 247.585 489.426, 249.163 485.535, 251.151 484.269, 251.798 482.081, 253.359 479.054, 255.518 475.844, 258.466 473.798, 260.346 468.518, 266.303 466.891, 268.491 463.235, 273.409 459.379, 279.456 457.967, 281.671 454.964, 287.081 452.737, 291.094 448.349, 300.080 447.568, 301.679 443.592, 310.855 442.482, 313.417 438.876, 322.744 437.505, 326.290 434.231, 335.739 432.660, 340.273 429.690, 349.822 427.975, 355.338 425.282, 364.969 423.472, 371.442 421.036, 381.141 419.179, 388.535 416.981, 398.291 415.119, 406.559 413.146, 416.362 411.318, 425.447 409.557, 435.291 407.798, 445.125 406.238, 455.002 404.679, 464.880 404.580, 465.507 403.215, 475.413 401.850, 485.319 401.686, 486.504 400.509, 496.434 399.331, 506.365 399.135, 508.020 398.140, 517.970 397.145, 527.920 396.942, 529.951 396.126, 539.917 395.309, 549.884 395.120, 552.190 394.481, 562.169 393.842, 572.149 393.683, 574.627 393.219, 584.616 392.756, 594.606 392.638, 597.148 392.350, 607.144 392.063, 617.140 391.991, 619.639 391.881, 629.638 391.770, 639.638 391.744, 641.985 391.814, 651.984 391.885, 661.984 391.899, 664.073 392.154, 674.069 392.408, 684.066 392.452, 685.795 392.896, 695.785 393.340, 705.775 393.396, 707.044 394.037, 717.024 394.678, 727.003 394.724, 727.719 394.749, 727.623 397.297, 717.953 399.845, 708.283 400.261, 706.703 400.790, 704.789 403.453, 695.150 405.911, 686.252 408.692, 676.646 411.473, 667.041 411.674, 666.346 414.576, 656.777 417.479, 647.207 417.551, 646.969 420.577, 637.438 423.542, 628.101 426.696, 618.611 429.649, 609.727 432.933, 600.281 435.871, 591.829 439.288, 582.430 442.211, 574.390 445.764, 565.043 448.670, 557.396 452.360, 548.102 455.248, 540.830 459.078, 531.593 461.947, 524.676 465.919, 515.499 468.767, 508.920 472.884, 499.807 475.712, 493.547 479.974, 484.501 482.781, 478.542 484.638, 474.762 " fill="none" stroke="rgb(0, 0, 0)" stroke-linecap="butt" stroke-linejoin="round" stroke-opacity="1.0" stroke-width="3.0" />
            <path d=" M 364.615, 718.756 360.694, 727.956 359.467, 730.836 " fill="none" stroke="rgb(0, 0, 0)" stroke-linecap="butt" stroke-linejoin="round" stroke-opacity="1.0" stroke-width="3.0" />
            <path d=" M 485.535, 251.151 475.537, 250.970 474.556, 250.952 " fill="none" stroke="rgb(0, 0, 0)" stroke-linecap="butt" stroke-linejoin="round" stroke-opacity="1.0" stroke-width="3.0" />
            <path d=" M 518.970, 252.922 513.332, 250.582 510.853, 249.553 509.189, 248.862 " fill="none" stroke="rgb(0, 0, 0)" stroke-linecap="butt" stroke-linejoin="round" stroke-opacity="1.0" stroke-width="3.0" />
            <path d=" M 518.930, 505.291 519.153, 505.306 " fill="none" stroke="rgb(0, 0, 0)" stroke-linecap="butt" stroke-linejoin="round" stroke-opacity="1.0" stroke-width="3.0" />
            <path d=" M 527.770, 255.775 525.384, 255.001 523.042, 254.242 518.970, 252.922 516.715, 252.191 " fill="none" stroke="rgb(0, 0, 0)" stroke-linecap="butt" stroke-linejoin="round" stroke-opacity="1.0" stroke-width="3.0" />
            <path d=" M 536.033, 257.711 534.178, 257.276 532.076, 256.784 527.770, 255.775 525.456, 255.233 524.114, 254.918 " fill="none" stroke="rgb(0, 0, 0)" stroke-linecap="butt" stroke-linejoin="round" stroke-opacity="1.0" stroke-width="3.0" />
            <path d=" M 557.678, 508.531 557.665, 507.950 " fill="none" stroke="rgb(0, 0, 0)" stroke-linecap="butt" stroke-linejoin="round" stroke-opacity="1.0" stroke-width="3.0" />
            <path d=" M 558.038, 340.359 557.957, 339.634 " fill="none" stroke="rgb(0, 0, 0)" stroke-linecap="butt" stroke-linejoin="round" stroke-opacity="1.0" stroke-width="3.0" />
        </g>
    </g>
</svg>
