<?xml version='1.0' encoding='ascii'?>
<svg xmlns="http://www.w3.org/2000/svg" height="1080" version="1.1" width="1080">
    <g id="View Layer_LineSet" inkscape:groupmode="lineset" inkscape:label="View Layer_LineSet" xmlns:inkscape="http://www.inkscape.org/namespaces/inkscape">
        <g id="strokes" inkscape:groupmode="layer" inkscape:label="strokes" xmlns:inkscape="http://www.inkscape.org/namespaces/inkscape">
            <path d=" M 564.259, 491.456 564.257, 492.617 564.236, 493.779 564.195, 494.934 564.134, 496.068 564.054, 497.171 563.997, 497.780 563.955, 498.231 563.839, 499.238 563.706, 500.183 563.556, 501.055 563.442, 501.633 563.321, 502.165 563.194, 502.649 563.180, 502.696 563.062, 503.081 562.925, 503.459 562.787, 503.775 562.785, 503.781 562.641, 504.046 560.377, 507.721 559.854, 508.570 " fill="none" stroke="rgb(0, 0, 0)" stroke-linecap="butt" stroke-linejoin="round" stroke-opacity="1.0" stroke-width="3.0" />
            <path d=" M 359.987, 737.369 366.218, 741.581 " fill="none" stroke="rgb(0, 0, 0)" stroke-linecap="butt" stroke-linejoin="round" stroke-opacity="1.0" stroke-width="3.0" />
            <path d=" M 383.878, 742.488 393.464, 739.640 395.532, 739.026 " fill="none" stroke="rgb(0, 0, 0)" stroke-linecap="butt" stroke-linejoin="round" stroke-opacity="1.0" stroke-width="3.0" />
            <path d=" M 395.532, 739.026 390.749, 730.244 385.966, 721.462 385.198, 720.050 " fill="none" stroke="rgb(0, 0, 0)" stroke-linecap="butt" stroke-linejoin="round" stroke-opacity="1.0" stroke-width="3.0" />
            <path d=" M 473.916, 253.489 469.554, 253.771 465.120, 255.091 460.627, 257.488 456.089, 260.991 451.520, 265.625 447.592, 270.587 446.936, 271.415 444.296, 275.429 442.354, 278.382 437.793, 286.537 433.440, 295.540 433.272, 295.887 429.376, 305.096 428.811, 306.432 425.314, 315.801 424.431, 318.169 421.286, 327.662 420.154, 331.081 417.322, 340.671 416.002, 345.143 413.452, 354.812 411.998, 360.326 409.703, 370.059 408.164, 376.589 406.104, 386.375 404.524, 393.881 402.681, 403.709 401.099, 412.140 399.458, 422.005 397.912, 431.301 396.462, 441.195 394.983, 451.284 393.713, 461.203 392.443, 471.122 392.330, 472.001 391.233, 481.940 390.136, 491.880 389.973, 493.358 389.042, 503.314 388.112, 513.271 387.927, 515.254 387.159, 525.224 386.390, 535.195 386.207, 537.580 385.597, 547.562 384.987, 557.543 384.823, 560.224 384.370, 570.213 383.916, 580.203 383.786, 583.067 383.488, 593.063 383.191, 603.058 383.103, 605.992 382.961, 615.991 382.818, 625.990 382.777, 628.876 382.791, 638.876 382.805, 648.876 382.809, 651.602 382.983, 661.600 383.156, 671.599 383.198, 674.049 383.535, 684.044 383.871, 694.038 383.941, 696.104 384.444, 706.092 384.948, 716.079 385.028, 717.657 385.198, 720.050 384.610, 730.032 384.023, 740.015 383.878, 742.488 " fill="none" stroke="rgb(0, 0, 0)" stroke-linecap="butt" stroke-linejoin="round" stroke-opacity="1.0" stroke-width="3.0" />
            <path d=" M 566.964, 520.271 567.703, 520.284 567.985, 520.289 573.021, 511.650 574.724, 508.729 577.781, 504.798 577.422, 494.804 577.269, 490.555 576.781, 480.567 576.581, 476.466 575.960, 466.485 575.715, 462.551 574.957, 452.579 574.672, 448.833 573.770, 438.874 573.450, 435.337 572.398, 425.393 572.048, 422.086 570.839, 412.159 570.466, 409.104 569.089, 399.199 568.703, 396.418 567.148, 386.540 566.758, 384.056 565.014, 374.209 564.630, 372.044 562.683, 362.235 562.321, 360.412 560.152, 350.650 559.828, 349.191 558.183, 342.561 557.334, 339.139 " fill="none" stroke="rgb(0, 0, 0)" stroke-linecap="butt" stroke-linejoin="round" stroke-opacity="1.0" stroke-width="3.0" />
            <path d=" M 553.861, 346.747 554.809, 350.110 556.053, 355.047 557.382, 360.316 559.582, 370.071 559.781, 370.957 561.756, 380.760 562.006, 382.003 562.084, 382.436 563.852, 392.279 564.057, 393.425 565.632, 403.300 565.934, 405.192 567.329, 415.095 567.637, 417.280 568.862, 427.205 569.165, 429.661 570.231, 439.604 570.521, 442.309 571.435, 452.267 571.704, 455.200 572.473, 465.170 572.715, 468.310 573.345, 478.290 573.555, 481.617 574.051, 491.605 574.224, 495.097 574.263, 496.152 574.212, 496.955 574.152, 497.738 574.082, 498.497 574.003, 499.227 573.915, 499.925 573.819, 500.587 573.716, 501.209 573.605, 501.788 573.488, 502.321 573.366, 502.805 573.238, 503.238 573.106, 503.616 572.971, 503.939 572.832, 504.204 568.844, 510.930 568.622, 510.094 568.380, 509.443 568.122, 508.987 567.852, 508.736 567.636, 508.704 567.575, 508.695 565.051, 508.654 564.560, 508.646 564.125, 508.639 563.266, 508.625 559.854, 508.570 559.698, 508.568 557.915, 508.539 557.703, 508.535 557.186, 508.527 556.896, 508.696 556.608, 509.072 556.328, 509.651 556.060, 510.423 555.897, 511.041 555.808, 511.376 555.578, 512.493 555.372, 513.756 555.195, 515.144 555.050, 516.632 554.939, 518.196 554.865, 519.808 554.827, 521.441 554.828, 523.066 554.867, 524.656 556.079, 524.678 557.922, 524.711 558.039, 524.713 559.819, 524.746 563.381, 524.811 564.189, 524.825 565.163, 524.843 565.330, 524.846 566.929, 522.101 566.919, 521.596 566.924, 521.079 566.944, 520.565 566.964, 520.271 566.978, 520.068 567.024, 519.603 567.083, 519.181 567.152, 518.814 567.229, 518.512 567.312, 518.284 567.399, 518.135 567.488, 518.070 " fill="none" stroke="rgb(0, 0, 0)" stroke-linecap="butt" stroke-linejoin="round" stroke-opacity="1.0" stroke-width="3.0" />
            <path d=" M 463.860, 924.647 459.824, 924.043 457.979, 923.303 455.785, 922.423 451.754, 919.759 449.361, 917.527 447.749, 916.024 443.783, 911.195 439.875, 905.254 436.040, 898.191 432.297, 889.998 428.665, 880.670 425.486, 871.188 425.160, 870.216 422.373, 860.612 421.803, 858.649 419.360, 848.952 418.613, 845.988 416.474, 836.220 415.607, 832.261 413.741, 822.437 412.805, 817.506 411.186, 807.638 410.223, 801.768 408.831, 791.866 407.879, 785.099 406.696, 775.169 405.789, 767.560 404.801, 757.609 403.968, 749.223 403.162, 739.255 402.428, 730.163 401.773, 720.185 401.155, 710.777 " fill="none" stroke="rgb(0, 0, 0)" stroke-linecap="butt" stroke-linejoin="round" stroke-opacity="1.0" stroke-width="3.0" />
            <path d=" M 381.995, 342.944 381.908, 343.291 379.729, 353.051 378.545, 358.354 376.600, 368.163 375.344, 374.498 373.612, 384.347 372.323, 391.676 370.787, 401.557 369.502, 409.829 368.149, 419.737 366.898, 428.894 365.716, 438.824 364.530, 448.794 363.509, 458.742 362.489, 468.690 362.412, 469.445 361.545, 479.407 360.679, 489.369 360.559, 490.755 359.841, 500.729 359.124, 510.703 358.985, 512.627 358.411, 522.610 357.837, 532.594 357.701, 534.953 357.267, 544.944 356.833, 554.935 356.716, 557.625 356.420, 567.620 356.124, 577.616 356.038, 580.526 355.878, 590.525 355.719, 600.523 355.671, 603.539 355.648, 613.539 355.625, 623.539 355.618, 626.546 355.732, 636.546 355.846, 646.545 355.879, 649.427 356.132, 659.423 356.385, 669.420 356.452, 672.063 356.847, 682.055 357.242, 692.047 357.332, 694.338 357.873, 704.324 358.414, 714.309 358.514, 716.143 359.206, 726.119 359.898, 736.095 359.987, 737.369 360.891, 747.328 361.795, 757.287 361.833, 757.712 362.932, 767.651 363.994, 777.262 365.300, 787.176 366.454, 795.935 367.982, 805.818 369.195, 813.657 370.965, 823.499 372.199, 830.360 374.234, 840.151 375.447, 845.990 377.775, 855.715 378.920, 860.498 381.575, 870.139 382.596, 873.847 384.358, 879.397 " fill="none" stroke="rgb(0, 0, 0)" stroke-linecap="butt" stroke-linejoin="round" stroke-opacity="1.0" stroke-width="3.0" />
            <path d=" M 524.023, 532.852 524.175, 542.851 524.231, 546.510 524.274, 556.510 524.291, 560.487 524.226, 570.487 524.200, 574.519 524.028, 584.517 523.958, 588.586 523.680, 598.582 523.585, 601.976 " fill="none" stroke="rgb(0, 0, 0)" stroke-linecap="butt" stroke-linejoin="round" stroke-opacity="1.0" stroke-width="3.0" />
            <path d=" M 511.270, 741.284 509.728, 751.164 509.441, 753.005 507.761, 762.863 507.277, 765.704 505.452, 775.536 504.969, 778.140 502.992, 787.943 502.519, 790.288 500.380, 800.056 499.928, 802.120 497.615, 811.848 497.198, 813.606 494.698, 823.289 494.329, 824.718 491.629, 834.347 491.326, 835.427 488.405, 844.991 488.189, 845.700 485.027, 855.187 484.922, 855.503 481.528, 864.805 478.012, 873.569 474.378, 881.760 470.629, 889.340 466.773, 896.274 462.816, 902.522 458.764, 908.046 454.626, 912.806 450.409, 916.764 449.361, 917.527 " fill="none" stroke="rgb(0, 0, 0)" stroke-linecap="butt" stroke-linejoin="round" stroke-opacity="1.0" stroke-width="3.0" />
            <path d=" M 395.209, 734.215 395.532, 739.026 396.360, 748.992 397.187, 758.957 397.217, 759.310 398.240, 769.257 399.223, 778.805 400.454, 788.729 401.534, 797.429 402.989, 807.323 404.134, 815.106 405.831, 824.961 407.003, 831.770 408.963, 841.576 410.120, 847.366 412.370, 857.110 413.464, 861.848 416.037, 871.511 417.012, 875.175 419.948, 884.734 420.743, 887.320 424.091, 896.743 424.631, 898.264 428.453, 907.505 428.656, 907.997 432.796, 916.511 436.838, 923.487 437.027, 923.813 437.104, 923.923 441.329, 929.915 445.683, 934.830 450.069, 938.579 454.469, 941.191 458.867, 942.696 463.247, 943.126 467.594, 942.517 471.895, 940.910 476.138, 938.344 478.332, 936.512 480.313, 934.858 484.408, 930.497 488.416, 925.303 490.847, 921.583 492.328, 919.317 496.137, 912.582 499.340, 906.137 499.836, 905.139 503.422, 897.032 506.888, 888.298 510.232, 878.976 513.330, 869.469 513.448, 869.107 516.299, 859.522 516.536, 858.726 519.162, 849.077 519.492, 847.867 521.915, 838.165 522.314, 836.567 524.550, 826.820 525.001, 824.858 527.065, 815.073 527.551, 812.772 529.456, 802.955 529.964, 800.339 531.720, 790.494 531.997, 788.944 " fill="none" stroke="rgb(0, 0, 0)" stroke-linecap="butt" stroke-linejoin="round" stroke-opacity="1.0" stroke-width="3.0" />
            <path d=" M 528.776, 782.703 527.195, 791.267 525.230, 801.072 524.828, 803.078 524.187, 806.025 522.334, 814.544 520.037, 824.277 519.716, 825.638 517.232, 835.325 516.975, 836.329 514.288, 845.961 514.114, 846.585 511.202, 856.152 511.135, 856.373 508.041, 865.660 504.837, 874.413 501.525, 882.593 498.111, 890.164 494.600, 897.090 490.998, 903.333 487.310, 908.853 483.545, 913.611 479.710, 917.571 475.814, 920.692 471.867, 922.935 467.878, 924.265 463.860, 924.647 " fill="none" stroke="rgb(0, 0, 0)" stroke-linecap="butt" stroke-linejoin="round" stroke-opacity="1.0" stroke-width="3.0" />
            <path d=" M 560.377, 507.721 559.684, 507.672 557.900, 507.547 557.686, 507.532 555.837, 507.402 548.888, 506.913 548.450, 506.883 546.605, 506.753 546.218, 506.726 546.552, 516.720 546.674, 520.382 546.904, 530.380 546.991, 534.154 547.120, 544.153 547.170, 548.019 547.200, 558.019 547.212, 561.960 547.143, 571.960 547.115, 575.956 546.949, 585.955 546.882, 589.989 546.619, 599.986 546.512, 604.039 546.152, 614.032 546.005, 618.086 545.548, 628.076 545.363, 632.112 544.807, 642.097 544.585, 646.098 543.930, 656.076 543.671, 660.022 542.916, 669.994 542.623, 673.866 542.250, 678.199 " fill="none" stroke="rgb(0, 0, 0)" stroke-linecap="butt" stroke-linejoin="round" stroke-opacity="1.0" stroke-width="3.0" />
            <path d=" M 544.806, 685.170 545.444, 677.311 546.153, 667.336 546.472, 662.847 547.083, 652.866 547.362, 648.304 547.877, 638.317 548.115, 633.702 548.535, 623.711 548.731, 619.061 549.058, 609.066 549.211, 604.400 549.444, 594.402 549.553, 589.737 549.694, 579.738 549.760, 575.093 549.808, 565.094 549.830, 560.487 549.785, 550.487 549.765, 545.936 549.625, 535.937 549.563, 531.462 549.328, 521.464 549.226, 517.082 548.894, 507.087 548.888, 506.913 " fill="none" stroke="rgb(0, 0, 0)" stroke-linecap="butt" stroke-linejoin="round" stroke-opacity="1.0" stroke-width="3.0" />
            <path d=" M 383.878, 742.488 384.730, 752.452 385.582, 762.415 385.681, 763.575 386.727, 773.520 387.772, 783.465 387.810, 783.828 389.061, 793.749 390.247, 803.160 391.719, 813.052 392.975, 821.493 394.687, 831.346 395.974, 838.757 397.948, 848.560 399.224, 854.895 401.487, 864.635 402.701, 869.859 405.289, 879.519 406.386, 883.610 409.340, 893.164 410.255, 896.119 413.627, 905.533 414.284, 907.369 418.139, 916.597 418.453, 917.350 422.740, 926.058 427.121, 933.500 431.578, 939.690 436.089, 944.647 440.637, 948.393 445.202, 950.961 449.768, 952.383 454.320, 952.695 458.843, 951.935 463.322, 950.148 467.747, 947.375 472.105, 943.659 " fill="none" stroke="rgb(0, 0, 0)" stroke-linecap="butt" stroke-linejoin="round" stroke-opacity="1.0" stroke-width="3.0" />
            <path d=" M 472.105, 943.659 478.925, 936.346 479.833, 935.373 480.313, 934.858 " fill="none" stroke="rgb(0, 0, 0)" stroke-linecap="butt" stroke-linejoin="round" stroke-opacity="1.0" stroke-width="3.0" />
            <path d=" M 539.145, 482.203 539.711, 492.187 540.276, 502.171 540.512, 506.325 540.810, 516.320 540.919, 519.987 541.066, 529.986 541.080, 530.882 535.078, 532.107 531.916, 532.753 531.636, 532.810 531.356, 532.867 531.075, 532.924 530.796, 532.983 526.772, 532.905 524.023, 532.852 518.609, 532.747 518.531, 532.736 " fill="none" stroke="rgb(0, 0, 0)" stroke-linecap="butt" stroke-linejoin="round" stroke-opacity="1.0" stroke-width="3.0" />
            <path d=" M 519.137, 505.263 519.287, 504.834 520.661, 500.901 523.959, 491.461 527.257, 482.020 527.627, 480.961 537.570, 482.033 539.145, 482.203 535.958, 491.681 532.770, 501.159 530.962, 506.536 530.834, 506.912 530.582, 507.663 530.329, 508.415 530.076, 509.168 529.824, 509.922 529.535, 510.919 529.312, 511.917 529.271, 512.102 529.037, 513.448 528.840, 514.930 528.682, 516.522 528.622, 517.394 528.567, 518.192 528.497, 519.907 528.474, 521.635 528.497, 523.341 528.509, 523.615 528.568, 524.993 528.682, 526.559 528.840, 528.008 529.038, 529.313 529.271, 530.449 529.535, 531.395 529.827, 532.132 530.139, 532.648 530.464, 532.933 530.796, 532.983 " fill="none" stroke="rgb(0, 0, 0)" stroke-linecap="butt" stroke-linejoin="round" stroke-opacity="1.0" stroke-width="3.0" />
            <path d=" M 530.865, 523.658 530.740, 523.578 530.623, 523.364 530.520, 523.028 530.435, 522.582 530.371, 522.048 530.332, 521.447 530.319, 520.807 530.333, 520.155 530.373, 519.521 530.437, 518.931 530.523, 518.412 530.626, 517.987 530.743, 517.674 530.867, 517.488 530.994, 517.435 " fill="none" stroke="rgb(0, 0, 0)" stroke-linecap="butt" stroke-linejoin="round" stroke-opacity="1.0" stroke-width="3.0" />
            <path d=" M 530.994, 517.435 531.119, 517.517 531.235, 517.732 531.338, 518.069 531.422, 518.514 531.486, 519.048 531.524, 519.646 531.537, 520.284 531.523, 520.933 531.484, 521.566 531.420, 522.153 531.335, 522.671 531.232, 523.097 531.116, 523.411 530.992, 523.601 530.865, 523.658 " fill="none" stroke="rgb(0, 0, 0)" stroke-linecap="butt" stroke-linejoin="round" stroke-opacity="1.0" stroke-width="3.0" />
            <path d=" M 557.703, 508.535 557.692, 507.816 557.686, 507.532 " fill="none" stroke="rgb(0, 0, 0)" stroke-linecap="butt" stroke-linejoin="round" stroke-opacity="1.0" stroke-width="3.0" />
            <path d=" M 550.511, 698.602 550.711, 696.584 551.612, 686.624 551.909, 683.330 552.725, 673.363 553.000, 669.994 553.732, 660.021 553.984, 656.588 554.633, 646.609 554.859, 643.124 555.427, 633.140 555.628, 629.614 556.116, 619.626 556.289, 616.069 556.697, 606.078 556.843, 602.502 557.171, 592.507 557.289, 588.922 557.538, 578.925 557.627, 575.341 557.797, 565.343 557.857, 561.771 557.947, 551.771 557.979, 548.222 557.984, 543.195 557.993, 534.706 557.922, 524.711 " fill="none" stroke="rgb(0, 0, 0)" stroke-linecap="butt" stroke-linejoin="round" stroke-opacity="1.0" stroke-width="3.0" />
            <path d=" M 456.359, 972.611 458.783, 972.797 462.897, 972.392 466.977, 971.171 471.014, 969.165 475.002, 966.403 478.932, 962.918 482.800, 958.740 486.598, 953.901 490.322, 948.432 493.968, 942.363 497.530, 935.724 501.006, 928.546 504.392, 920.856 507.685, 912.683 510.883, 904.053 513.983, 894.994 516.983, 885.531 519.809, 875.939 519.883, 875.688 522.528, 866.044 522.680, 865.489 525.158, 855.801 525.373, 854.957 527.696, 845.231 527.962, 844.114 529.325, 838.007 530.446, 832.981 532.487, 823.191 532.824, 821.577 534.737, 811.762 535.095, 809.923 536.886, 800.085 537.212, 798.295 " fill="none" stroke="rgb(0, 0, 0)" stroke-linecap="butt" stroke-linejoin="round" stroke-opacity="1.0" stroke-width="3.0" />
            <path d=" M 525.566, 257.227 524.557, 254.072 521.716, 245.993 518.761, 238.387 515.693, 231.280 512.513, 224.702 509.224, 218.678 505.828, 213.239 502.328, 208.413 498.727, 204.230 495.030, 200.721 491.240, 197.914 487.362, 195.841 483.403, 194.531 479.368, 194.014 477.564, 194.147 475.265, 194.318 471.100, 195.472 466.882, 197.502 462.621, 200.433 458.326, 204.290 454.007, 209.092 449.677, 214.858 445.346, 221.605 441.029, 229.344 436.738, 238.084 432.741, 247.250 432.489, 247.830 430.570, 252.747 428.294, 258.580 424.984, 268.016 424.171, 270.331 421.151, 279.865 420.135, 283.073 417.378, 292.685 416.201, 296.788 414.786, 302.230 412.387, 311.457 410.092, 321.190 408.709, 327.051 406.618, 336.830 405.183, 343.537 403.282, 353.354 401.826, 360.875 400.103, 370.725 398.653, 379.019 397.099, 388.897 395.680, 397.917 394.287, 407.819 392.923, 417.510 391.682, 427.433 390.441, 437.355 390.394, 437.736 389.301, 447.676 388.208, 457.616 388.108, 458.524 387.157, 468.479 386.206, 478.433 386.076, 479.801 385.263, 489.768 384.451, 499.735 384.308, 501.489 383.632, 511.466 382.956, 521.443 382.816, 523.505 382.273, 533.490 381.730, 543.475 381.605, 545.764 381.194, 555.756 380.783, 565.747 380.683, 568.180 380.404, 578.176 380.124, 588.172 380.054, 590.662 379.906, 600.661 379.758, 610.659 379.721, 613.121 379.705, 623.121 379.689, 633.121 379.686, 635.468 379.803, 645.467 379.921, 655.466 379.946, 657.613 380.200, 667.610 380.453, 677.607 380.501, 679.471 380.893, 689.463 381.286, 699.455 381.345, 700.956 381.880, 710.941 382.416, 720.927 382.473, 721.987 383.156, 731.964 383.840, 741.941 383.878, 742.488 384.715, 752.453 385.550, 762.385 386.549, 772.335 387.480, 781.612 388.649, 791.543 389.657, 800.105 391.006, 810.014 392.067, 817.809 393.608, 827.689 394.698, 834.673 396.446, 844.519 397.535, 850.653 399.507, 860.457 400.564, 865.712 402.780, 875.463 403.770, 879.818 406.254, 889.505 407.137, 892.946 409.918, 902.552 410.649, 905.077 413.762, 914.580 414.292, 916.197 417.778, 925.569 418.049, 926.298 421.906, 935.378 425.847, 943.440 429.858, 950.488 433.924, 956.535 438.033, 961.595 442.172, 965.685 446.327, 968.827 450.488, 971.042 454.643, 972.356 456.715, 972.577 458.783, 972.797 " fill="none" stroke="rgb(0, 0, 0)" stroke-linecap="butt" stroke-linejoin="round" stroke-opacity="1.0" stroke-width="3.0" />
            <path d=" M 476.971, 194.072 472.841, 194.377 468.649, 195.531 464.405, 197.561 460.117, 200.492 455.795, 204.348 451.449, 209.149 447.092, 214.914 442.735, 221.659 438.391, 229.396 434.075, 238.134 430.056, 247.291 429.799, 247.877 427.773, 253.037 425.580, 258.624 422.251, 268.054 421.432, 270.371 418.395, 279.899 417.372, 283.108 414.600, 292.716 413.416, 296.819 410.885, 306.494 409.580, 311.483 407.271, 321.213 406.969, 322.485 405.880, 327.071 403.777, 336.848 402.334, 343.551 400.422, 353.367 398.958, 360.883 397.226, 370.732 395.768, 379.020 394.205, 388.897 392.779, 397.911 391.377, 407.812 390.007, 417.497 388.759, 427.418 387.512, 437.340 387.465, 437.714 386.366, 447.654 385.267, 457.593 385.167, 458.495 384.211, 468.449 383.256, 478.403 383.125, 479.763 382.309, 489.730 381.493, 499.697 381.350, 501.443 380.670, 511.420 379.991, 521.396 379.851, 523.450 379.305, 533.435 378.760, 543.420 378.636, 545.701 378.223, 555.692 377.811, 565.684 377.711, 568.107 377.431, 578.103 377.151, 588.099 377.081, 590.581 376.933, 600.579 376.785, 610.578 376.749, 613.031 376.734, 623.031 376.720, 633.031 376.716, 635.369 376.836, 645.368 376.956, 655.368 376.981, 657.506 377.238, 667.503 377.494, 677.500 377.542, 679.356 377.939, 689.348 378.335, 699.340 378.394, 700.833 378.935, 710.818 379.475, 720.804 379.532, 721.857 380.222, 731.833 380.911, 741.809 380.949, 742.350 381.793, 752.314 382.634, 762.241 383.641, 772.190 384.579, 781.460 385.757, 791.391 386.772, 799.947 388.131, 809.855 389.200, 817.646 390.752, 827.524 391.849, 834.505 393.610, 844.348 394.707, 850.480 396.692, 860.281 397.757, 865.535 399.988, 875.283 400.984, 879.637 403.485, 889.320 404.374, 892.762 407.174, 902.362 407.911, 904.890 411.043, 914.387 411.578, 916.008 415.085, 925.373 415.360, 926.108 419.243, 935.187 423.210, 943.247 427.247, 950.295 431.340, 956.342 435.476, 961.403 439.641, 965.493 443.823, 968.636 448.011, 970.853 452.193, 972.169 456.359, 972.611 " fill="none" stroke="rgb(0, 0, 0)" stroke-linecap="butt" stroke-linejoin="round" stroke-opacity="1.0" stroke-width="3.0" />
            <path d=" M 479.368, 194.014 476.971, 194.072 " fill="none" stroke="rgb(0, 0, 0)" stroke-linecap="butt" stroke-linejoin="round" stroke-opacity="1.0" stroke-width="3.0" />
            <path d=" M 556.171, 710.233 556.193, 710.023 557.161, 700.070 557.551, 696.061 558.434, 686.100 558.797, 682.004 559.597, 672.036 559.932, 667.864 560.651, 657.890 560.956, 653.655 561.594, 643.675 561.868, 639.386 562.427, 629.402 562.669, 625.071 563.150, 615.083 563.360, 610.721 563.762, 600.729 563.939, 596.345 564.264, 586.350 564.407, 581.956 564.655, 571.959 564.763, 567.563 564.934, 557.564 565.009, 553.178 565.102, 543.179 565.142, 538.812 565.157, 528.812 565.163, 524.843 " fill="none" stroke="rgb(0, 0, 0)" stroke-linecap="butt" stroke-linejoin="round" stroke-opacity="1.0" stroke-width="3.0" />
            <path d=" M 453.555, 994.265 455.977, 994.457 460.438, 994.662 464.864, 993.956 469.245, 992.373 473.573, 989.949 477.839, 986.720 482.038, 982.722 486.161, 977.991 490.205, 972.562 494.164, 966.470 498.032, 959.750 501.807, 952.434 505.485, 944.556 509.062, 936.148 512.537, 927.240 515.149, 919.968 515.906, 917.861 519.059, 908.371 519.169, 908.041 522.114, 898.484 522.323, 897.806 525.078, 888.193 525.368, 887.184 527.948, 877.522 528.301, 876.198 530.720, 866.495 531.123, 864.874 533.391, 855.135 533.833, 853.235 535.960, 843.464 536.431, 841.302 538.425, 831.503 538.915, 829.097 540.785, 819.274 541.287, 816.640 542.889, 807.635 " fill="none" stroke="rgb(0, 0, 0)" stroke-linecap="butt" stroke-linejoin="round" stroke-opacity="1.0" stroke-width="3.0" />
            <path d=" M 540.521, 260.164 538.700, 252.342 536.241, 242.649 536.099, 242.089 533.431, 232.451 533.372, 232.237 530.519, 222.813 527.542, 213.844 524.439, 205.357 521.213, 197.383 517.865, 189.950 514.396, 183.092 510.808, 176.839 507.105, 171.224 503.288, 166.282 499.362, 162.045 495.331, 158.550 491.199, 155.831 486.972, 153.922 482.657, 152.859 478.260, 152.676 477.432, 152.812 473.789, 153.407 469.252, 155.084 464.659, 157.739 460.021, 161.401 455.349, 166.098 450.655, 171.853 445.952, 178.689 441.254, 186.624 436.661, 195.507 436.577, 195.671 432.424, 204.768 431.935, 205.839 428.170, 215.103 427.345, 217.134 423.925, 226.531 422.826, 229.553 419.714, 239.056 418.393, 243.089 417.904, 244.746 415.070, 254.336 414.067, 257.729 412.162, 264.856 411.069, 268.947 409.865, 273.453 407.514, 283.173 405.806, 290.232 403.668, 300.001 401.910, 308.032 399.969, 317.842 398.195, 326.811 396.439, 336.656 394.680, 346.519 393.098, 356.393 391.516, 366.267 391.383, 367.098 389.966, 376.997 388.549, 386.896 388.322, 388.485 387.114, 397.991 385.854, 407.911 385.512, 410.608 384.403, 420.546 383.294, 430.484 382.970, 433.388 382.006, 443.341 381.043, 453.295 380.709, 456.742 379.887, 466.708 379.065, 476.674 378.743, 480.580 378.059, 490.556 377.375, 500.533 377.082, 504.808 376.534, 514.793 375.986, 524.778 375.736, 529.327 375.322, 539.319 374.908, 549.310 374.712, 554.038 374.432, 564.034 374.151, 574.030 374.016, 578.836 373.868, 588.835 373.721, 598.833 373.650, 603.617 373.637, 613.617 373.623, 623.617 373.617, 628.279 373.739, 638.278 373.861, 648.277 373.915, 652.717 374.175, 662.714 374.434, 672.710 374.541, 676.832 374.942, 686.824 375.342, 696.816 375.491, 700.525 376.036, 710.510 376.581, 720.495 376.756, 723.703 377.452, 733.679 378.147, 743.655 378.330, 746.278 379.181, 756.242 380.033, 766.205 380.200, 768.165 381.215, 778.114 382.230, 788.062 382.355, 789.289 383.543, 799.218 384.730, 809.147 384.782, 809.578 386.152, 819.483 387.465, 828.969 389.031, 838.845 390.389, 847.406 392.167, 857.247 393.538, 864.842 395.544, 874.639 396.895, 881.235 399.150, 890.977 400.441, 896.551 402.971, 906.226 404.159, 910.766 406.995, 920.355 408.031, 923.859 410.587, 931.487 410.979, 932.656 412.039, 935.820 415.602, 945.163 416.166, 946.642 418.449, 951.869 420.394, 956.326 422.109, 959.725 424.707, 964.877 429.087, 972.307 433.521, 978.631 437.991, 983.868 442.485, 988.042 446.989, 991.179 451.490, 993.307 455.595, 994.359 455.977, 994.457 " fill="none" stroke="rgb(0, 0, 0)" stroke-linecap="butt" stroke-linejoin="round" stroke-opacity="1.0" stroke-width="3.0" />
            <path d=" M 361.682, 627.671 361.681, 627.894 361.812, 637.893 361.942, 647.892 362.000, 652.295 362.271, 662.291 362.543, 672.288 362.654, 676.373 363.070, 686.365 363.487, 696.356 363.640, 700.031 363.685, 700.833 " fill="none" stroke="rgb(0, 0, 0)" stroke-linecap="butt" stroke-linejoin="round" stroke-opacity="1.0" stroke-width="3.0" />
            <path d=" M 475.866, 152.747 471.367, 153.479 466.802, 155.156 462.180, 157.811 457.513, 161.473 452.812, 166.169 448.089, 171.923 443.357, 178.758 438.631, 186.690 434.015, 195.561 433.925, 195.735 429.750, 204.822 429.255, 205.901 425.470, 215.157 424.638, 217.192 421.200, 226.582 420.092, 229.607 416.963, 239.105 415.634, 243.139 412.784, 252.725 411.282, 257.775 408.685, 267.432 408.053, 269.785 407.514, 271.787 407.056, 273.493 404.691, 283.209 402.974, 290.266 400.824, 300.032 399.056, 308.060 398.288, 311.917 396.337, 321.725 395.320, 326.832 393.555, 336.675 391.786, 346.532 390.195, 356.405 388.604, 366.278 388.471, 367.104 387.046, 377.002 385.621, 386.900 385.393, 388.483 384.127, 398.402 382.860, 408.321 382.569, 410.597 381.454, 420.534 380.339, 430.472 380.014, 433.368 379.046, 443.321 378.665, 447.239 377.743, 456.713 376.917, 466.679 376.091, 476.644 375.768, 480.541 375.081, 490.518 374.394, 500.494 374.100, 504.760 373.549, 514.745 372.999, 524.729 372.749, 529.270 372.333, 539.261 371.918, 549.253 371.722, 553.970 371.441, 563.966 371.159, 573.962 371.024, 578.759 370.877, 588.757 370.730, 598.756 370.660, 603.531 370.648, 613.531 370.635, 623.531 370.630, 628.183 370.754, 638.182 370.878, 648.181 370.933, 652.612 371.195, 662.608 371.458, 672.605 371.566, 676.717 371.970, 686.709 372.375, 696.701 372.524, 700.401 373.075, 710.386 373.625, 720.371 373.801, 723.571 374.502, 733.547 375.203, 743.522 375.387, 746.138 376.246, 756.101 377.104, 766.064 377.272, 768.017 378.295, 777.965 379.318, 787.913 379.443, 789.134 380.640, 799.062 381.836, 808.990 381.888, 809.416 383.269, 819.320 384.590, 828.801 386.168, 838.676 387.535, 847.233 389.325, 857.071 390.706, 864.663 392.726, 874.457 394.086, 881.051 396.356, 890.790 397.656, 896.364 400.203, 906.034 401.399, 910.575 404.253, 920.159 404.343, 920.461 405.297, 923.666 406.271, 926.552 409.332, 935.624 409.704, 936.591 413.288, 945.927 413.487, 946.445 415.668, 951.407 417.743, 956.127 422.083, 964.678 426.493, 972.107 430.955, 978.432 435.454, 983.670 439.977, 987.845 444.510, 990.983 449.040, 993.112 453.555, 994.265 " fill="none" stroke="rgb(0, 0, 0)" stroke-linecap="butt" stroke-linejoin="round" stroke-opacity="1.0" stroke-width="3.0" />
            <path d=" M 478.260, 152.676 475.866, 152.747 " fill="none" stroke="rgb(0, 0, 0)" stroke-linecap="butt" stroke-linejoin="round" stroke-opacity="1.0" stroke-width="3.0" />
            <path d=" M 545.358, 259.137 543.303, 249.350 543.179, 248.762 540.953, 239.013 540.637, 237.626 538.225, 227.921 537.963, 226.867 535.349, 217.215 535.158, 216.511 532.322, 206.921 532.222, 206.584 529.154, 197.114 525.956, 188.131 522.627, 179.666 519.169, 171.751 515.584, 164.417 511.873, 157.700 508.038, 151.633 504.083, 146.253 500.010, 141.597 495.824, 137.701 491.530, 134.604 487.132, 132.343 482.638, 130.957 478.053, 130.482 473.293, 130.637 468.567, 131.113 463.768, 132.573 458.905, 135.053 453.989, 138.586 449.031, 143.202 444.045, 148.930 439.045, 155.795 434.046, 163.818 429.283, 172.611 429.063, 173.017 424.761, 182.044 424.113, 183.404 420.218, 192.614 419.215, 194.985 415.681, 204.340 414.387, 207.764 411.175, 217.234 409.648, 221.733 406.726, 231.296 405.019, 236.880 402.359, 246.520 400.519, 253.187 398.099, 262.890 396.170, 270.626 393.971, 280.381 391.992, 289.161 389.998, 298.960 388.006, 308.750 386.203, 318.586 384.400, 328.422 384.232, 329.339 382.609, 339.207 381.995, 342.944 380.691, 350.871 379.239, 360.765 377.786, 370.659 377.402, 373.275 376.112, 383.192 374.822, 393.108 374.384, 396.477 373.249, 406.413 372.114, 416.348 371.652, 420.393 370.667, 430.345 369.683, 440.296 369.224, 444.933 368.385, 454.898 367.546, 464.863 367.113, 470.001 366.416, 479.977 365.719, 489.953 365.332, 495.495 364.774, 505.480 364.216, 515.464 363.890, 521.310 363.609, 528.005 363.189, 537.996 362.797, 547.336 362.514, 557.332 362.231, 567.328 362.058, 573.461 361.912, 583.460 361.766, 593.459 361.676, 599.574 361.668, 609.574 361.659, 619.574 361.654, 625.561 361.682, 627.671 361.812, 637.670 361.942, 647.670 361.990, 651.312 362.262, 661.308 362.533, 671.304 362.681, 676.716 363.097, 686.708 363.513, 696.699 363.685, 700.833 363.720, 701.670 364.285, 711.654 364.850, 721.638 365.065, 725.440 365.101, 726.071 365.819, 736.045 365.977, 738.235 366.218, 741.581 366.812, 749.823 367.691, 759.785 368.571, 769.746 368.844, 772.839 369.891, 782.784 370.938, 792.729 371.180, 795.034 372.405, 804.958 373.629, 814.883 373.808, 816.333 375.221, 826.233 376.633, 836.133 376.710, 836.671 378.324, 846.540 379.869, 855.986 381.700, 865.817 383.267, 874.229 384.358, 879.397 386.424, 889.181 386.884, 891.358 389.207, 901.084 390.701, 907.337 393.308, 916.992 394.699, 922.142 397.621, 931.705 398.858, 935.753 402.132, 945.202 403.158, 948.160 406.830, 957.461 407.580, 959.359 411.705, 968.468 412.105, 969.351 416.715, 978.147 421.392, 985.758 426.120, 992.204 430.882, 997.508 435.664, 1001.695 440.450, 1004.796 445.228, 1006.843 449.986, 1007.869 454.805, 1008.260 459.472, 1008.297 464.096, 1007.386 468.669, 1005.566 473.181, 1002.875 477.626, 999.352 481.994, 995.036 486.282, 989.965 490.482, 984.178 494.589, 977.711 498.600, 970.601 502.510, 962.883 506.317, 954.593 510.017, 945.763 513.607, 936.425 516.948, 927.000 517.086, 926.611 520.204, 917.109 520.453, 916.350 523.366, 906.783 523.705, 905.670 526.432, 896.049 526.842, 894.600 529.397, 884.932 529.864, 883.165 532.258, 873.456 532.768, 871.389 535.014, 861.645 535.556, 859.297 537.663, 849.522 538.226, 846.912 540.203, 837.109 540.779, 834.254 542.633, 824.427 543.214, 821.344 544.951, 811.496 545.045, 810.968 " fill="none" stroke="rgb(0, 0, 0)" stroke-linecap="butt" stroke-linejoin="round" stroke-opacity="1.0" stroke-width="3.0" />
            <path d=" M 558.202, 713.983 558.502, 711.139 559.463, 701.185 559.893, 696.733 560.770, 686.771 561.170, 682.232 561.964, 672.264 562.332, 667.651 563.046, 657.676 563.381, 652.999 564.015, 643.019 564.316, 638.289 564.871, 628.304 565.137, 623.532 565.615, 613.544 565.845, 608.739 566.245, 598.747 566.439, 593.921 566.763, 583.927 566.919, 579.089 567.167, 569.092 567.286, 564.252 567.457, 554.254 567.540, 549.422 567.634, 539.423 567.679, 534.609 567.696, 524.609 567.703, 520.284 " fill="none" stroke="rgb(0, 0, 0)" stroke-linecap="butt" stroke-linejoin="round" stroke-opacity="1.0" stroke-width="3.0" />
            <path d=" M 478.053, 130.482 473.387, 130.956 468.647, 132.415 463.844, 134.895 458.988, 138.428 454.091, 143.045 449.165, 148.775 444.225, 155.642 439.285, 163.669 434.568, 172.486 434.362, 172.872 430.103, 181.920 429.471, 183.265 425.616, 192.492 424.630, 194.853 421.133, 204.222 419.858, 207.639 416.883, 216.515 415.173, 221.617 412.283, 231.190 410.597, 236.774 407.966, 246.422 406.148, 253.092 403.755, 262.802 401.847, 270.543 399.673, 280.304 398.600, 285.119 397.715, 289.091 396.664, 294.318 394.692, 304.121 393.773, 308.694 391.990, 318.534 390.208, 328.374 390.040, 329.299 388.435, 339.169 386.830, 349.040 386.537, 350.847 386.180, 353.302 384.744, 363.199 383.282, 373.268 382.006, 383.186 380.729, 393.105 380.294, 396.488 379.171, 406.425 378.048, 416.362 377.589, 420.423 376.615, 430.375 376.331, 433.270 375.357, 443.222 375.184, 444.982 374.353, 454.948 373.522, 464.913 373.092, 470.070 372.402, 480.046 371.711, 490.022 371.326, 495.584 370.773, 505.569 370.220, 515.554 369.895, 521.419 369.478, 531.411 369.469, 531.624 369.052, 541.615 368.808, 547.466 368.527, 557.462 368.245, 567.458 368.071, 573.612 367.925, 583.611 367.778, 593.610 367.688, 599.745 367.677, 609.745 367.666, 619.745 367.659, 625.753 367.785, 635.752 367.911, 645.751 367.984, 651.523 368.250, 661.520 368.515, 671.516 368.660, 676.947 369.068, 686.939 369.476, 696.931 369.680, 701.919 370.235, 711.904 370.790, 721.889 371.038, 726.338 371.745, 736.313 372.452, 746.288 372.722, 750.108 373.588, 760.071 374.453, 770.033 374.723, 773.140 375.754, 783.086 376.785, 793.033 377.025, 795.350 378.232, 805.277 379.438, 815.204 379.615, 816.664 381.008, 826.566 382.400, 836.469 382.477, 837.014 384.068, 846.886 385.592, 856.341 387.398, 866.177 388.944, 874.595 389.694, 878.198 391.732, 887.988 392.178, 890.128 392.512, 891.733 394.805, 901.466 396.278, 907.720 397.542, 912.463 398.674, 916.716 400.223, 922.532 403.109, 932.106 404.328, 936.148 404.670, 937.149 407.905, 946.611 408.571, 948.560 412.202, 957.878 412.936, 959.762 416.683, 968.145 417.403, 969.757 421.954, 978.553 426.572, 986.165 431.239, 992.611 435.941, 997.913 440.662, 1002.098 445.389, 1005.196 450.107, 1007.238 454.805, 1008.260 " fill="none" stroke="rgb(0, 0, 0)" stroke-linecap="butt" stroke-linejoin="round" stroke-opacity="1.0" stroke-width="3.0" />
            <path d=" M 482.148, 507.368 481.895, 507.483 481.534, 507.855 481.183, 508.427 480.849, 509.190 480.536, 510.133 480.251, 511.238 479.999, 512.488 479.783, 513.862 479.608, 515.335 479.477, 516.883 479.391, 518.480 479.353, 520.097 479.363, 521.706 479.421, 523.281 481.427, 523.318 " fill="none" stroke="rgb(0, 0, 0)" stroke-linecap="butt" stroke-linejoin="round" stroke-opacity="1.0" stroke-width="3.0" />
            <path d=" M 565.330, 524.846 565.293, 523.254 565.294, 521.627 565.325, 520.242 565.331, 519.992 565.404, 518.378 565.428, 518.034 565.512, 516.812 565.653, 515.321 565.824, 513.932 566.023, 512.667 566.246, 511.548 566.414, 510.890 566.489, 510.594 566.748, 509.821 567.018, 509.241 567.296, 508.864 567.575, 508.695 " fill="none" stroke="rgb(0, 0, 0)" stroke-linecap="butt" stroke-linejoin="round" stroke-opacity="1.0" stroke-width="3.0" />
            <path d=" M 567.985, 520.289 567.961, 519.810 567.924, 519.368 567.873, 518.976 567.811, 518.644 567.740, 518.381 567.694, 518.273 567.661, 518.195 567.576, 518.090 567.488, 518.070 " fill="none" stroke="rgb(0, 0, 0)" stroke-linecap="butt" stroke-linejoin="round" stroke-opacity="1.0" stroke-width="3.0" />
            <path d=" M 529.524, 468.484 529.755, 473.998 530.172, 474.002 535.347, 474.063 535.552, 473.781 535.183, 468.463 529.775, 468.149 529.758, 468.172 529.524, 468.484 " fill="none" stroke="rgb(0, 0, 0)" stroke-linecap="butt" stroke-linejoin="round" stroke-opacity="1.0" stroke-width="3.0" />
            <path d=" M 535.122, 468.546 529.524, 468.484 " fill="none" stroke="rgb(0, 0, 0)" stroke-linecap="butt" stroke-linejoin="round" stroke-opacity="1.0" stroke-width="3.0" />
            <path d=" M 535.347, 474.063 535.122, 468.546 535.183, 468.463 " fill="none" stroke="rgb(0, 0, 0)" stroke-linecap="butt" stroke-linejoin="round" stroke-opacity="1.0" stroke-width="3.0" />
            <path d=" M 531.400, 470.804 531.364, 470.898 531.309, 471.105 531.296, 471.318 531.330, 471.543 531.407, 471.750 531.427, 471.801 531.540, 471.980 531.686, 472.132 531.731, 472.168 531.895, 472.279 531.952, 472.304 532.119, 472.370 532.171, 472.385 532.236, 472.396 532.311, 472.404 532.396, 472.412 532.439, 472.413 532.481, 472.413 532.524, 472.410 532.564, 472.405 532.602, 472.399 532.716, 472.378 532.781, 472.362 532.835, 472.344 532.992, 472.266 533.052, 472.236 533.161, 472.148 533.204, 472.113 " fill="none" stroke="rgb(0, 0, 0)" stroke-linecap="butt" stroke-linejoin="round" stroke-opacity="1.0" stroke-width="3.0" />
            <path d=" M 533.161, 472.148 533.203, 472.116 533.312, 472.006 533.402, 471.881 533.473, 471.744 533.523, 471.597 533.550, 471.444 533.555, 471.287 533.538, 471.130 533.497, 470.975 533.435, 470.827 533.353, 470.688 533.252, 470.561 533.135, 470.448 533.003, 470.353 532.860, 470.276 532.708, 470.219 532.550, 470.184 532.391, 470.171 532.232, 470.180 532.077, 470.212 531.930, 470.265 531.793, 470.339 531.669, 470.432 531.561, 470.542 531.470, 470.667 531.400, 470.804 " fill="none" stroke="rgb(0, 0, 0)" stroke-linecap="butt" stroke-linejoin="round" stroke-opacity="1.0" stroke-width="3.0" />
            <path d=" M 627.761, 858.721 629.937, 859.188 637.838, 860.817 645.734, 861.702 653.607, 861.860 661.442, 861.310 669.222, 860.071 676.933, 858.163 684.562, 855.606 692.095, 852.420 699.521, 848.629 706.828, 844.252 714.006, 839.312 721.046, 833.831 727.938, 827.831 734.675, 821.333 741.248, 814.359 747.651, 806.930 753.878, 799.068 759.776, 790.992 759.922, 790.792 765.520, 782.506 765.779, 782.124 771.088, 773.649 771.443, 773.082 776.472, 764.439 776.910, 763.688 781.670, 754.894 782.175, 753.960 786.675, 745.029 787.237, 743.916 791.485, 734.863 792.089, 733.575 796.094, 724.412 796.731, 722.955 800.500, 713.693 801.159, 712.074 804.699, 702.721 805.370, 700.948 808.688, 691.514 809.363, 689.594 812.463, 680.086 813.135, 678.028 816.023, 668.454 816.683, 666.267 819.365, 656.633 820.007, 654.326 822.486, 644.638 823.105, 642.220 825.385, 632.483 825.975, 629.965 828.059, 620.184 828.615, 617.574 830.507, 607.755 831.025, 605.064 832.726, 595.209 833.203, 592.447 834.716, 582.562 835.148, 579.738 836.474, 569.826 836.858, 566.952 837.999, 557.017 838.333, 554.101 839.289, 544.147 839.572, 541.200 840.343, 531.230 840.573, 528.263 841.160, 518.280 841.335, 515.303 841.738, 505.311 841.858, 502.334 842.075, 492.337 842.140, 489.370 842.171, 479.370 842.181, 476.425 842.024, 466.426 841.979, 463.512 841.633, 453.518 841.534, 450.646 840.996, 440.660 840.845, 437.841 840.113, 427.868 839.910, 425.112 838.981, 415.155 838.730, 412.473 837.600, 402.537 837.304, 399.940 835.968, 390.029 835.630, 387.527 834.084, 377.647 833.709, 375.250 831.948, 365.406 831.539, 363.126 829.557, 353.324 829.121, 351.170 826.912, 341.418 826.455, 339.400 824.011, 329.704 823.539, 327.833 820.853, 318.201 820.375, 316.486 817.438, 306.927 816.962, 305.377 813.766, 295.902 813.302, 294.526 809.836, 285.146 809.394, 283.950 805.648, 274.679 805.240, 273.671 801.202, 264.522 800.842, 263.707 796.499, 254.699 796.200, 254.079 791.541, 245.231 791.318, 244.808 786.328, 236.143 786.198, 235.917 780.842, 227.426 775.254, 219.358 769.439, 211.736 763.401, 204.584 757.145, 197.923 750.677, 191.779 744.004, 186.174 737.133, 181.133 730.073, 176.680 722.833, 172.837 715.424, 169.629 707.855, 167.078 700.140, 165.207 692.290, 164.037 684.322, 163.590 676.248, 163.885 674.015, 164.100 " fill="none" stroke="rgb(0, 0, 0)" stroke-linecap="butt" stroke-linejoin="round" stroke-opacity="1.0" stroke-width="3.0" />
            <path d=" M 629.937, 859.188 629.742, 859.130 622.049, 856.801 614.192, 853.642 606.388, 849.697 598.656, 844.957 591.018, 839.414 583.496, 833.062 576.319, 826.098 576.112, 825.897 569.401, 818.484 568.891, 817.921 562.641, 810.115 561.856, 809.134 556.057, 800.987 555.030, 799.544 549.671, 791.101 548.575, 789.375 548.438, 789.160 546.510, 785.759 545.032, 783.155 542.105, 777.994 540.940, 775.698 539.462, 772.783 536.054, 766.062 535.750, 765.393 532.344, 757.878 530.308, 753.387 526.560, 744.116 524.893, 739.990 524.382, 738.568 520.999, 729.158 519.829, 725.902 516.799, 716.372 515.291, 711.627 515.140, 711.152 514.755, 709.776 512.065, 700.144 510.846, 695.779 508.484, 686.061 506.967, 679.820 504.923, 670.031 503.522, 663.319 501.786, 653.471 500.526, 646.324 499.091, 636.427 497.997, 628.884 496.854, 618.949 495.946, 611.052 495.090, 601.089 494.385, 592.885 493.811, 582.901 493.324, 574.440 493.027, 564.445 492.769, 555.779 492.746, 545.779 492.725, 536.964 492.973, 526.967 493.176, 518.782 493.194, 518.057 493.627, 509.694 493.682, 508.640 494.175, 499.122 494.961, 489.153 495.666, 480.225 496.722, 470.281 497.662, 461.430 498.988, 451.518 500.155, 442.800 501.753, 432.928 503.135, 424.398 505.008, 414.575 506.589, 406.285 508.742, 396.519 510.505, 388.520 512.941, 378.821 514.864, 371.161 517.589, 361.539 519.650, 354.262 520.257, 352.345 523.277, 342.812 523.805, 341.146 524.841, 337.874 528.164, 328.442 530.417, 322.045 534.051, 312.728 536.299, 306.963 536.355, 306.820 537.654, 303.802 541.608, 294.617 541.847, 294.062 542.626, 292.252 542.631, 292.240 544.396, 288.518 545.801, 285.553 546.281, 284.541 549.051, 278.698 549.221, 278.341 550.969, 274.989 552.083, 272.854 552.084, 272.851 554.458, 268.300 555.102, 267.065 556.097, 265.157 559.024, 260.058 559.040, 260.029 559.146, 259.844 563.236, 252.718 567.980, 245.208 570.609, 241.047 576.327, 232.842 578.192, 230.166 584.296, 222.246 585.956, 220.092 592.458, 212.495 593.876, 210.839 600.785, 203.609 601.926, 202.415 609.247, 195.603 610.080, 194.827 617.814, 188.487 618.314, 188.077 626.455, 182.270 626.602, 182.164 634.923, 177.086 643.253, 172.834 651.570, 169.401 659.855, 166.774 668.087, 164.941 674.812, 164.071 676.248, 163.885 " fill="none" stroke="rgb(0, 0, 0)" stroke-linecap="butt" stroke-linejoin="round" stroke-opacity="1.0" stroke-width="3.0" />
            <path d=" M 674.015, 164.100 665.843, 165.156 657.600, 166.990 649.305, 169.616 640.977, 173.047 632.637, 177.296 624.307, 182.372 616.161, 188.171 616.009, 188.279 608.270, 194.612 607.766, 195.024 600.439, 201.829 599.604, 202.605 592.688, 209.828 591.545, 211.022 585.036, 218.613 583.617, 220.266 577.505, 228.181 575.845, 230.330 570.121, 238.530 568.256, 241.200 562.908, 249.650 560.876, 252.859 556.639, 260.230 556.598, 260.301 556.559, 260.368 553.732, 265.286 552.577, 267.496 548.461, 275.373 546.849, 278.456 545.124, 282.088 543.748, 284.986 543.527, 285.451 543.521, 285.463 542.617, 287.368 541.492, 289.734 540.657, 291.494 540.255, 292.340 536.891, 300.140 535.537, 303.281 534.864, 304.842 534.395, 305.929 533.975, 306.904 530.336, 316.218 528.033, 322.112 524.705, 331.542 522.821, 336.883 522.453, 337.924 519.429, 347.455 517.259, 354.293 514.530, 363.914 512.471, 371.173 510.032, 380.871 508.110, 388.513 505.954, 398.278 504.193, 406.257 503.977, 407.391 502.100, 417.214 500.738, 424.349 499.137, 434.220 497.758, 442.730 496.430, 452.642 495.265, 461.339 494.209, 471.283 493.270, 480.113 493.220, 480.755 492.433, 490.724 491.781, 498.988 491.779, 499.017 491.342, 507.464 491.228, 509.655 490.862, 516.741 490.802, 517.901 490.776, 518.928 490.698, 522.108 490.451, 532.105 490.335, 536.786 490.361, 546.786 490.383, 555.581 490.682, 565.576 490.941, 574.221 491.519, 584.204 492.007, 592.645 492.866, 602.608 493.572, 610.792 494.718, 620.726 495.627, 628.604 497.067, 638.500 498.162, 646.025 499.903, 655.873 500.812, 661.013 501.163, 663.003 503.213, 672.790 504.615, 679.486 506.983, 689.202 508.501, 695.429 511.198, 705.058 512.325, 709.082 512.802, 710.787 514.666, 716.636 517.499, 725.522 520.888, 734.930 522.570, 739.598 526.326, 748.866 527.994, 752.982 531.831, 761.427 533.748, 765.646 535.264, 768.630 538.970, 775.920 539.808, 777.567 540.461, 778.718 544.591, 785.982 546.071, 788.585 546.150, 788.725 548.184, 791.921 552.751, 799.101 558.558, 807.242 559.587, 808.684 565.845, 816.484 566.632, 817.465 573.350, 824.872 573.863, 825.437 581.046, 832.394 581.256, 832.598 588.789, 838.947 596.437, 844.489 604.180, 849.228 611.995, 853.172 619.862, 856.333 627.761, 858.721 " fill="none" stroke="rgb(0, 0, 0)" stroke-linecap="butt" stroke-linejoin="round" stroke-opacity="1.0" stroke-width="3.0" />
            <path d=" M 770.896, 564.324 770.889, 564.372 769.210, 574.230 768.826, 576.486 766.902, 586.299 766.476, 588.468 764.302, 598.229 763.841, 600.297 761.414, 609.998 760.926, 611.950 758.241, 621.583 757.733, 623.406 754.784, 632.961 754.266, 634.639 751.047, 644.107 750.529, 645.629 747.032, 654.997 746.527, 656.351 742.744, 665.608 742.264, 666.783 738.185, 675.913 737.745, 676.899 733.361, 685.887 732.976, 686.676 728.276, 695.502 727.964, 696.089 722.935, 704.733 722.714, 705.114 717.345, 713.550 717.234, 713.724 711.533, 721.896 705.619, 729.603 699.500, 736.819 693.188, 743.517 686.693, 749.675 680.028, 755.264 673.204, 760.258 666.236, 764.633 659.139, 768.365 651.927, 771.428 644.619, 773.798 637.232, 775.453 629.784, 776.374 622.297, 776.536 621.611, 776.480 " fill="none" stroke="rgb(0, 0, 0)" stroke-linecap="butt" stroke-linejoin="round" stroke-opacity="1.0" stroke-width="3.0" />
            <path d=" M 785.744, 568.419 775.753, 568.010 774.956, 567.977 770.896, 564.324 763.462, 557.636 756.028, 550.948 752.971, 548.198 752.332, 547.622 751.692, 547.046 751.051, 546.468 750.411, 545.890 749.678, 545.083 749.014, 544.049 748.431, 542.808 747.942, 541.384 747.559, 539.803 747.404, 538.827 747.287, 538.095 747.154, 536.553 747.131, 536.294 747.117, 535.542 747.096, 534.435 747.181, 532.552 747.385, 530.684 747.659, 529.128 747.705, 528.865 747.837, 528.331 748.133, 527.132 748.661, 525.517 749.280, 524.051 749.977, 522.764 750.737, 521.678 751.548, 520.814 751.732, 520.678 751.862, 520.582 752.393, 520.189 753.253, 519.814 753.979, 519.606 754.705, 519.398 755.429, 519.190 756.152, 518.983 756.515, 518.878 766.129, 516.127 775.743, 513.376 781.021, 511.866 " fill="none" stroke="rgb(0, 0, 0)" stroke-linecap="butt" stroke-linejoin="round" stroke-opacity="1.0" stroke-width="3.0" />
            <path d=" M 679.914, 232.953 675.426, 233.301 671.525, 233.604 663.075, 235.073 655.471, 237.124 654.589, 237.361 646.096, 240.496 637.625, 244.501 629.208, 249.387 620.987, 255.081 620.877, 255.157 613.102, 261.446 612.663, 261.801 605.337, 268.608 604.593, 269.300 597.711, 276.555 596.693, 277.628 590.257, 285.282 588.999, 286.778 583.012, 294.788 581.549, 296.745 576.008, 305.070 574.381, 307.514 569.276, 316.113 567.529, 319.056 562.848, 327.892 561.025, 331.333 557.855, 338.038 557.705, 338.355 557.334, 339.139 554.894, 344.299 554.815, 344.484 554.744, 344.654 553.861, 346.747 553.360, 347.934 550.437, 354.860 549.155, 357.898 548.989, 358.341 547.443, 362.458 546.016, 366.261 543.832, 372.081 540.691, 381.575 540.329, 382.668 538.960, 386.807 538.911, 386.978 536.140, 396.587 534.590, 401.964 534.572, 402.027 532.167, 411.734 530.693, 417.684 528.648, 427.472 527.343, 433.712 527.002, 435.697 525.307, 445.552 524.534, 450.044 523.179, 459.951 522.268, 466.607 521.244, 476.555 520.538, 483.419 519.827, 493.394 519.333, 500.324 519.314, 500.809 519.154, 504.825 519.137, 505.263 518.739, 515.255 518.660, 517.249 518.659, 517.293 518.608, 523.397 518.531, 532.736 518.519, 534.122 518.753, 544.119 518.911, 550.869 519.466, 560.854 519.831, 567.422 520.711, 577.383 521.271, 583.710 522.484, 593.636 523.222, 599.665 523.585, 601.976 525.141, 611.854 525.605, 614.806 525.671, 615.225 527.577, 625.042 528.603, 630.329 530.870, 640.068 532.000, 644.919 532.428, 646.483 535.071, 656.128 535.842, 658.941 538.875, 668.470 540.108, 672.347 541.363, 675.775 541.487, 676.113 542.250, 678.199 542.875, 679.906 544.774, 685.094 544.806, 685.170 548.666, 694.395 548.971, 695.124 549.814, 697.140 550.122, 697.785 550.511, 698.602 551.625, 700.937 554.640, 707.264 555.180, 708.397 555.205, 708.450 556.171, 710.233 558.202, 713.983 560.917, 718.994 566.160, 727.510 566.923, 728.749 572.666, 736.936 573.195, 737.691 579.454, 745.490 579.706, 745.804 586.425, 753.078 593.326, 759.505 600.380, 765.080 607.559, 769.804 614.838, 773.682 621.611, 776.480 622.190, 776.719 629.590, 778.926 637.014, 780.315 644.438, 780.902 651.841, 780.704 659.203, 779.738 666.501, 778.028 673.719, 775.594 680.839, 772.460 687.843, 768.648 694.717, 764.187 701.447, 759.100 708.018, 753.412 714.418, 747.151 720.636, 740.344 726.662, 733.015 732.485, 725.192 738.097, 716.901 743.352, 708.393 743.490, 708.169 748.407, 699.461 748.656, 699.020 753.248, 690.137 753.587, 689.480 757.868, 680.443 758.279, 679.576 762.260, 670.403 762.724, 669.332 766.415, 660.038 766.919, 658.771 770.330, 649.371 770.857, 647.919 773.998, 638.425 774.536, 636.799 777.413, 627.222 777.950, 625.436 780.570, 615.785 781.096, 613.851 783.466, 604.136 783.971, 602.068 786.097, 592.296 786.573, 590.109 788.458, 580.289 788.897, 577.998 790.545, 568.135 790.943, 565.756 792.357, 555.856 792.707, 553.404 793.890, 543.475 794.189, 540.966 " fill="none" stroke="rgb(0, 0, 0)" stroke-linecap="butt" stroke-linejoin="round" stroke-opacity="1.0" stroke-width="3.0" />
            <path d=" M 781.021, 511.866 790.995, 512.589 791.744, 512.643 " fill="none" stroke="rgb(0, 0, 0)" stroke-linecap="butt" stroke-linejoin="round" stroke-opacity="1.0" stroke-width="3.0" />
            <path d=" M 825.258, 527.592 825.271, 527.399 825.605, 522.417 825.946, 517.333 826.055, 514.687 826.468, 504.634 826.618, 494.635 826.658, 491.935 826.544, 481.936 826.514, 479.260 826.137, 469.267 826.037, 466.631 825.398, 456.652 825.232, 454.071 824.333, 444.112 824.106, 441.600 823.030, 432.429 822.655, 429.239 821.213, 419.344 820.873, 417.017 819.144, 407.168 818.757, 404.962 816.733, 395.169 816.305, 393.099 813.980, 383.373 813.521, 381.454 810.890, 371.806 810.410, 370.048 807.470, 360.490 806.981, 358.899 803.726, 349.444 803.238, 348.029 799.651, 338.695 799.180, 337.470 795.242, 328.278 794.805, 327.258 790.501, 318.231 790.115, 317.422 785.432, 308.587 785.117, 307.993 780.044, 299.375 779.819, 298.993 774.349, 290.621 774.231, 290.440 768.365, 282.351 762.225, 274.762 755.818, 267.712 749.151, 261.237 742.238, 255.370 735.091, 250.133 727.726, 245.545 720.899, 241.999 720.161, 241.616 712.410, 238.370 704.490, 235.850 696.420, 234.090 688.221, 233.118 680.510, 232.964 679.914, 232.953 " fill="none" stroke="rgb(0, 0, 0)" stroke-linecap="butt" stroke-linejoin="round" stroke-opacity="1.0" stroke-width="3.0" />
            <path d=" M 655.471, 237.124 661.525, 239.566 667.794, 242.871 673.889, 246.846 679.798, 251.463 685.509, 256.710 691.009, 262.571 696.287, 269.019 701.337, 276.023 706.152, 283.547 710.730, 291.550 715.067, 299.998 719.156, 308.874 722.989, 318.160 726.453, 327.541 726.560, 327.833 729.691, 337.330 729.867, 337.865 732.683, 347.460 732.908, 348.225 735.430, 357.901 735.685, 358.880 737.931, 368.625 738.202, 369.798 740.181, 379.601 740.456, 380.959 742.172, 390.811 742.440, 392.346 743.901, 402.239 744.151, 403.938 745.363, 413.864 745.589, 415.711 746.560, 425.664 746.753, 427.640 747.493, 437.613 747.648, 439.700 748.167, 449.687 748.280, 451.865 748.584, 461.860 748.653, 464.112 748.740, 474.112 748.761, 476.424 748.632, 486.423 748.601, 488.779 748.256, 498.773 748.174, 501.158 747.614, 511.142 747.480, 513.538 746.998, 519.771 746.757, 520.944 746.464, 522.073 746.122, 523.145 745.733, 524.149 745.302, 525.075 744.834, 525.914 744.332, 526.655 743.858, 527.224 " fill="none" stroke="rgb(0, 0, 0)" stroke-linecap="butt" stroke-linejoin="round" stroke-opacity="1.0" stroke-width="3.0" />
            <path d=" M 719.085, 530.752 719.085, 530.816 719.061, 531.154 719.046, 531.366 728.723, 533.889 738.399, 536.412 745.313, 538.215 747.404, 538.827 " fill="none" stroke="rgb(0, 0, 0)" stroke-linecap="butt" stroke-linejoin="round" stroke-opacity="1.0" stroke-width="3.0" />
            <path d=" M 803.198, 536.795 812.823, 539.509 813.051, 539.573 822.087, 542.122 823.925, 542.640 823.992, 542.657 829.906, 544.147 " fill="none" stroke="rgb(0, 0, 0)" stroke-linecap="butt" stroke-linejoin="round" stroke-opacity="1.0" stroke-width="3.0" />
            <path d=" M 799.469, 542.410 800.240, 542.454 810.224, 543.024 812.260, 543.140 814.190, 543.250 821.936, 543.692 823.881, 543.803 829.906, 544.147 830.829, 534.190 831.131, 530.933 831.799, 520.955 832.018, 517.671 832.430, 507.679 832.565, 504.385 832.720, 494.387 832.771, 491.099 832.668, 481.099 832.634, 477.835 832.271, 467.841 832.154, 464.616 831.529, 454.636 831.330, 451.467 830.439, 441.506 830.162, 438.410 829.001, 428.478 828.649, 425.471 827.213, 415.575 826.792, 412.673 825.076, 402.821 824.592, 400.040 822.588, 390.243 822.047, 387.599 819.749, 377.867 819.161, 375.374 816.561, 365.718 815.934, 363.392 813.318, 354.794 812.369, 351.678 809.135, 342.215 808.467, 340.260 805.855, 333.415 804.233, 329.165 800.323, 319.961 799.669, 318.420 795.402, 309.376 794.779, 308.055 790.142, 299.194 789.568, 298.097 784.549, 289.448 784.042, 288.576 778.627, 280.169 778.209, 279.521 777.048, 277.902 772.073, 270.962 770.486, 268.979 765.645, 262.930 758.933, 255.453 751.948, 248.563 744.702, 242.291 737.206, 236.666 729.476, 231.715 721.526, 227.471 713.374, 223.962 705.038, 221.213 696.537, 219.251 687.893, 218.103 679.129, 217.790 669.132, 218.051 663.021, 218.211 " fill="none" stroke="rgb(0, 0, 0)" stroke-linecap="butt" stroke-linejoin="round" stroke-opacity="1.0" stroke-width="3.0" />
            <path d=" M 679.129, 217.790 670.268, 218.334 669.250, 218.495 661.338, 219.752 660.109, 220.069 652.365, 222.065 643.378, 225.282 634.407, 229.414 625.706, 234.343 625.484, 234.469 617.201, 240.072 616.642, 240.450 608.799, 246.654 607.913, 247.355 600.523, 254.092 599.332, 255.178 592.400, 262.386 590.935, 263.910 584.460, 271.531 582.756, 273.536 576.732, 281.518 574.832, 284.035 569.250, 292.332 567.198, 295.381 562.048, 303.953 559.890, 307.547 555.161, 316.358 554.968, 316.719 552.950, 320.478 552.941, 320.495 552.332, 321.767 551.911, 322.646 550.442, 325.712 546.385, 334.183 544.135, 339.465 542.709, 342.810 540.256, 348.568 536.725, 357.923 534.583, 363.597 531.431, 373.087 530.620, 375.528 529.396, 379.215 526.614, 388.821 524.720, 395.362 522.303, 405.066 520.582, 411.975 518.522, 421.760 517.002, 428.985 515.294, 438.839 513.998, 446.323 512.639, 456.230 511.586, 463.915 " fill="none" stroke="rgb(0, 0, 0)" stroke-linecap="butt" stroke-linejoin="round" stroke-opacity="1.0" stroke-width="3.0" />
            <path d=" M 811.753, 530.399 812.148, 529.864 812.590, 529.152 813.007, 528.359 813.396, 527.493 813.628, 526.889 813.755, 526.559 814.079, 525.565 814.366, 524.518 823.344, 527.052 825.256, 527.592 825.258, 527.592 825.255, 527.599 825.035, 528.196 824.648, 529.067 824.235, 529.864 823.796, 530.580 823.337, 531.210 822.993, 531.598 822.861, 531.749 822.370, 532.191 821.870, 532.533 821.363, 532.772 820.854, 532.903 820.348, 532.924 819.849, 532.835 815.229, 531.445 813.860, 531.033 813.333, 530.875 811.753, 530.399 807.599, 529.149 807.226, 527.690 806.758, 526.374 806.202, 525.224 805.566, 524.260 804.862, 523.497 804.101, 522.949 803.295, 522.626 802.458, 522.533 798.202, 522.284 797.986, 522.271 791.134, 521.870 790.585, 521.837 789.724, 521.976 788.897, 522.347 788.120, 522.945 787.372, 523.758 787.110, 524.133 786.664, 524.773 786.010, 525.974 785.420, 527.339 784.905, 528.846 784.474, 530.469 784.134, 532.181 783.891, 533.951 788.260, 535.169 788.383, 535.203 790.013, 535.308 791.390, 535.397 798.989, 535.885 799.580, 535.923 800.261, 535.967 800.342, 535.405 800.461, 534.871 800.614, 534.378 800.798, 533.940 801.008, 533.568 801.237, 533.274 801.479, 533.065 801.728, 532.946 801.978, 532.921 " fill="none" stroke="rgb(0, 0, 0)" stroke-linecap="butt" stroke-linejoin="round" stroke-opacity="1.0" stroke-width="3.0" />
            <path d=" M 790.013, 535.308 789.498, 540.702 788.313, 550.631 788.017, 553.111 786.549, 563.002 785.744, 568.419 778.356, 561.680 776.195, 559.710 772.107, 555.981 764.719, 549.242 764.466, 549.012 763.834, 548.434 763.200, 547.856 762.566, 547.276 761.932, 546.696 761.206, 545.886 760.549, 544.848 759.972, 543.601 759.490, 542.170 759.111, 540.581 759.036, 540.103 758.843, 538.866 758.691, 537.056 758.690, 537.025 758.658, 535.188 758.744, 533.296 758.948, 531.418 759.156, 530.227 759.267, 529.591 759.693, 527.848 760.218, 526.225 760.833, 524.752 761.525, 523.458 762.280, 522.366 763.084, 521.497 763.922, 520.868 764.776, 520.491 765.495, 520.281 766.214, 520.071 766.932, 519.862 767.649, 519.653 768.010, 519.548 777.611, 516.754 780.760, 515.839 790.362, 513.045 791.744, 512.643 791.134, 521.870 " fill="none" stroke="rgb(0, 0, 0)" stroke-linecap="butt" stroke-linejoin="round" stroke-opacity="1.0" stroke-width="3.0" />
            <path d=" M 509.871, 445.701 510.808, 455.657 511.586, 463.915 510.559, 473.862 509.741, 481.785 509.031, 491.760 508.461, 499.755 508.291, 504.062 507.896, 514.054 507.750, 517.747 507.672, 527.746 507.611, 535.681 507.853, 545.678 508.042, 553.480 508.608, 563.464 509.039, 571.067 509.934, 581.027 510.593, 588.368 511.824, 598.292 512.694, 605.309 514.269, 615.184 515.328, 621.823 517.257, 631.635 518.478, 637.843 520.772, 647.577 521.175, 649.285 522.124, 653.310 524.797, 662.946 526.245, 668.164 529.312, 677.682 530.818, 682.355 534.294, 691.731 535.815, 695.835 539.012, 703.375 541.211, 708.562 542.443, 711.113 546.468, 719.445 546.977, 720.498 548.033, 722.420 552.185, 729.975 553.084, 731.612 553.716, 732.623 555.795, 735.948 559.502, 741.879 565.306, 750.022 566.199, 751.275 572.524, 759.021 573.147, 759.784 580.001, 767.065 580.313, 767.396 587.666, 774.104 595.179, 779.903 602.820, 784.795 610.561, 788.787 618.375, 791.887 626.234, 794.105 634.112, 795.457 641.986, 795.961 649.831, 795.636 657.626, 794.501 665.350, 792.583 672.982, 789.904 680.504, 786.490 687.900, 782.367 695.152, 777.564 702.246, 772.109 709.169, 766.027 715.906, 759.348 722.448, 752.103 728.783, 744.318 734.717, 736.269 734.900, 736.020 740.472, 727.717 740.792, 727.240 746.016, 718.713 746.450, 718.005 751.339, 709.282 751.866, 708.341 756.433, 699.445 757.034, 698.276 761.292, 689.228 761.947, 687.837 765.908, 678.654 766.600, 677.049 770.273, 667.748 770.988, 665.938 774.383, 656.532 775.106, 654.529 778.233, 645.031 778.951, 642.848 781.815, 633.268 782.518, 630.919 785.127, 621.265 785.804, 618.764 788.165, 609.047 788.806, 606.408 790.923, 596.635 791.521, 593.875 793.399, 584.053 793.947, 581.186 795.589, 571.321 796.082, 568.363 797.491, 558.463 797.923, 555.431 799.102, 545.501 799.469, 542.410 794.189, 540.966 799.384, 541.258 809.368, 541.820 812.819, 542.014 812.376, 541.891 802.743, 539.206 799.830, 538.394 799.160, 538.207 791.350, 536.030 791.390, 535.463 791.390, 535.397 " fill="none" stroke="rgb(0, 0, 0)" stroke-linecap="butt" stroke-linejoin="round" stroke-opacity="1.0" stroke-width="3.0" />
            <path d=" M 764.715, 537.422 764.399, 537.338 764.106, 537.108 763.848, 536.742 763.636, 536.256 763.481, 535.672 763.389, 535.015 763.365, 534.314 763.408, 533.600 763.518, 532.904 763.689, 532.257 763.914, 531.687 764.183, 531.219 764.484, 530.873 764.805, 530.665 765.130, 530.603 " fill="none" stroke="rgb(0, 0, 0)" stroke-linecap="butt" stroke-linejoin="round" stroke-opacity="1.0" stroke-width="3.0" />
            <path d=" M 765.130, 530.603 765.445, 530.692 765.737, 530.924 765.994, 531.292 766.204, 531.777 766.358, 532.360 766.450, 533.014 766.474, 533.713 766.431, 534.424 766.322, 535.118 766.151, 535.763 765.927, 536.332 765.659, 536.801 765.359, 537.148 765.040, 537.358 764.715, 537.422 " fill="none" stroke="rgb(0, 0, 0)" stroke-linecap="butt" stroke-linejoin="round" stroke-opacity="1.0" stroke-width="3.0" />
            <path d=" M 502.336, 481.416 501.625, 491.391 501.013, 499.968 500.680, 508.396 500.286, 518.388 500.280, 518.541 500.204, 528.541 500.140, 537.053 500.386, 547.050 500.593, 555.421 501.164, 565.404 501.631, 573.565 502.534, 583.524 503.248, 591.408 504.489, 601.331 505.432, 608.873 507.019, 618.746 508.168, 625.888 510.111, 635.698 511.437, 642.387 513.749, 652.116 515.219, 658.304 517.913, 667.934 519.331, 673.001 519.493, 673.580 522.583, 683.090 524.232, 688.162 527.735, 697.528 529.408, 702.001 533.342, 711.195 534.994, 715.055 537.273, 719.724 540.756, 726.863 540.961, 727.285 544.762, 734.130 546.319, 736.933 547.277, 738.659 550.525, 743.798 552.067, 746.238 553.910, 749.154 554.154, 749.493 560.005, 757.603 560.829, 758.744 567.202, 766.450 568.001, 767.416 574.907, 774.649 575.395, 775.160 582.836, 781.841 582.979, 781.969 590.722, 787.841 598.594, 792.780 606.565, 796.792 614.606, 799.888 622.690, 802.079 630.790, 803.384 638.882, 803.821 646.942, 803.409 654.946, 802.172 662.875, 800.135 670.707, 797.324 678.424, 793.763 686.009, 789.482 693.446, 784.510 700.720, 778.875 707.816, 772.604 714.721, 765.727 721.426, 758.276 727.727, 750.511 727.917, 750.276 733.844, 742.222 734.186, 741.758 739.753, 733.451 740.223, 732.749 745.444, 724.221 746.020, 723.280 750.909, 714.556 751.570, 713.375 756.138, 704.480 756.866, 703.064 761.126, 694.017 761.901, 692.372 765.865, 683.192 766.670, 681.328 770.347, 672.028 771.167, 669.954 774.567, 660.550 775.388, 658.279 778.519, 648.782 779.329, 646.327 782.199, 636.747 782.985, 634.121 785.600, 624.469 786.354, 621.687 788.719, 611.970 789.431, 609.047 791.553, 599.275 792.215, 596.227 794.096, 586.405 794.701, 583.248 796.345, 573.384 796.888, 570.133 798.299, 560.233 798.773, 556.905 799.952, 546.975 800.354, 543.587 800.240, 542.454 " fill="none" stroke="rgb(0, 0, 0)" stroke-linecap="butt" stroke-linejoin="round" stroke-opacity="1.0" stroke-width="3.0" />
            <path d=" M 663.021, 218.211 656.242, 218.624 654.973, 218.701 646.844, 220.066 638.661, 222.324 630.449, 225.488 622.236, 229.568 614.050, 234.575 605.921, 240.511 598.315, 247.003 597.881, 247.375 590.750, 254.385 589.960, 255.161 583.301, 262.621 582.193, 263.862 575.996, 271.710 574.612, 273.462 568.863, 281.644 567.250, 283.939 561.936, 292.410 560.141, 295.271 555.247, 303.991 553.597, 306.930 553.319, 307.426 550.542, 312.950 550.477, 313.080 549.865, 314.298 549.014, 315.992 546.815, 320.367 542.714, 329.487 542.563, 329.825 541.140, 332.989 540.662, 334.053 536.938, 343.334 534.890, 348.438 531.532, 357.857 529.531, 363.471 528.865, 365.584 525.861, 375.122 524.609, 379.094 521.950, 388.734 520.152, 395.248 517.830, 404.974 516.184, 411.868 514.192, 421.667 512.724, 428.886 511.051, 438.745 509.871, 445.701 506.773, 455.209 504.245, 462.968 " fill="none" stroke="rgb(0, 0, 0)" stroke-linecap="butt" stroke-linejoin="round" stroke-opacity="1.0" stroke-width="3.0" />
            <path d=" M 504.245, 462.968 503.216, 472.915 502.336, 481.416 " fill="none" stroke="rgb(0, 0, 0)" stroke-linecap="butt" stroke-linejoin="round" stroke-opacity="1.0" stroke-width="3.0" />
            <path d=" M 813.318, 354.794 811.590, 347.386 809.078, 337.707 808.778, 336.553 806.017, 326.942 805.729, 325.939 802.711, 316.406 802.443, 315.560 799.161, 306.114 798.924, 305.431 795.368, 296.085 795.172, 295.570 791.332, 286.337 791.190, 285.994 787.054, 276.890 786.978, 276.724 782.539, 267.779 777.874, 259.181 772.985, 250.954 767.876, 243.117 762.552, 235.687 757.018, 228.684 751.279, 222.128 745.340, 216.038 739.208, 210.439 732.890, 205.352 726.391, 200.803 719.722, 196.817 712.890, 193.411 705.907, 190.602 698.784, 188.409 691.532, 186.850 684.163, 185.943 676.692, 185.707 669.133, 186.163 668.493, 186.261 661.501, 187.330 653.814, 189.225 646.088, 191.854 638.341, 195.227 630.593, 199.348 622.863, 204.225 615.170, 209.862 607.538, 216.262 600.286, 223.147 599.989, 223.428 598.020, 225.527 592.547, 231.360 589.003, 235.572 585.235, 240.050 579.190, 248.016 578.076, 249.483 572.412, 257.725 571.092, 259.645 565.745, 268.211 564.306, 270.517 559.369, 279.213 557.742, 282.079 553.151, 290.963 551.616, 293.934 551.423, 294.309 548.466, 300.601 547.152, 303.396 547.046, 303.623 546.429, 304.935 545.374, 307.181 541.449, 316.379 540.549, 318.489 539.619, 320.668 539.188, 321.784 535.583, 331.111 534.182, 334.735 530.884, 344.176 529.079, 349.342 527.008, 355.930 524.330, 364.447 521.622, 374.074 519.954, 380.008 517.533, 389.711 515.970, 395.980 513.831, 405.749 512.394, 412.314 510.532, 422.139 509.240, 428.959 507.651, 438.832 506.520, 445.862 505.201, 455.775 504.245, 462.968 503.195, 472.913 502.424, 480.223 502.336, 481.416 501.551, 491.386 501.064, 497.569 500.550, 507.556 500.493, 508.655 500.169, 514.950 499.922, 524.947 499.741, 532.308 499.764, 542.308 499.781, 549.586 500.077, 559.582 500.289, 566.728 500.859, 576.712 501.257, 583.679 502.105, 593.643 502.679, 600.386 503.811, 610.322 504.549, 616.797 505.974, 626.695 506.861, 632.859 508.585, 642.709 509.602, 648.523 511.631, 658.315 512.757, 663.748 515.100, 673.469 516.309, 678.490 518.185, 685.272 520.242, 692.713 523.241, 702.253 524.539, 706.380 527.884, 715.803 529.181, 719.457 532.888, 728.744 534.152, 731.912 535.472, 734.863 538.884, 742.490 539.433, 743.716 542.697, 750.239 544.197, 753.235 545.003, 754.845 548.306, 760.752 549.806, 763.434 550.839, 765.283 551.870, 766.934 556.919, 775.016 562.646, 783.213 563.219, 784.033 569.388, 791.903 569.717, 792.323 576.394, 799.880 583.228, 806.697 590.199, 812.770 597.288, 818.096 604.473, 822.680 611.735, 826.532 619.052, 829.662 626.406, 832.081 632.307, 833.457 633.780, 833.800 641.157, 834.832 648.521, 835.187 655.858, 834.878 663.152, 833.917 670.390, 832.324 677.557, 830.122 684.642, 827.331 691.633, 823.970 698.519, 820.058 705.290, 815.614 711.937, 810.654 718.450, 805.195 724.820, 799.255 731.042, 792.857 737.107, 786.024 743.009, 778.777 748.743, 771.134 754.304, 763.115 759.685, 754.735 764.803, 746.144 764.882, 746.013 769.723, 737.263 769.889, 736.962 774.463, 728.069 774.703, 727.602 779.019, 718.582 779.321, 717.953 783.389, 708.818 783.739, 708.032 787.568, 698.794 787.956, 697.857 791.552, 688.526 791.969, 687.445 795.338, 678.030 795.774, 676.811 798.922, 667.320 799.370, 665.970 802.300, 656.408 802.751, 654.934 805.469, 645.310 805.918, 643.720 808.428, 634.040 808.868, 632.345 811.176, 622.615 811.601, 620.824 813.710, 611.049 814.115, 609.170 816.027, 599.355 816.409, 597.398 818.126, 587.547 818.479, 585.521 820.004, 575.638 820.325, 573.554 821.660, 563.644 821.947, 561.511 823.093, 551.577 823.343, 549.404 823.881, 543.803 " fill="none" stroke="rgb(0, 0, 0)" stroke-linecap="butt" stroke-linejoin="round" stroke-opacity="1.0" stroke-width="3.0" />
            <path d=" M 666.886, 186.358 659.245, 187.526 651.547, 189.419 643.812, 192.048 636.056, 195.418 628.298, 199.537 620.559, 204.410 612.858, 210.043 605.217, 216.437 597.958, 223.315 597.660, 223.597 592.623, 228.955 590.210, 231.521 583.765, 239.167 582.891, 240.203 582.599, 240.587 576.547, 248.547 575.725, 249.627 572.439, 254.399 572.425, 254.419 568.734, 259.779 563.432, 268.257 561.943, 270.640 556.998, 279.332 555.373, 282.190 555.332, 282.267 551.059, 290.522 549.049, 294.406 547.857, 296.936 546.433, 299.961 546.113, 300.641 545.368, 302.224 542.995, 307.264 539.829, 314.672 538.449, 317.899 537.236, 320.736 533.625, 330.062 531.795, 334.789 528.492, 344.227 526.689, 349.379 526.065, 351.360 523.061, 360.899 521.937, 364.468 519.226, 374.093 517.559, 380.011 515.135, 389.713 513.574, 395.965 511.432, 405.733 509.997, 412.280 508.133, 422.105 506.842, 428.906 505.251, 438.779 504.122, 445.789 502.802, 455.702 501.847, 462.876 500.797, 472.821 500.027, 480.111 499.246, 490.080 498.669, 497.437 498.155, 507.424 497.907, 512.234 497.775, 514.798 497.530, 524.795 497.350, 532.136 497.375, 542.136 497.393, 549.395 497.691, 559.391 497.904, 566.518 498.477, 576.501 498.875, 583.450 499.727, 593.414 500.302, 600.139 501.438, 610.074 502.177, 616.531 503.606, 626.429 504.493, 632.576 506.222, 642.425 507.240, 648.224 509.275, 658.015 510.401, 663.432 512.750, 673.153 513.960, 678.160 516.631, 687.796 517.575, 691.201 517.899, 692.368 520.905, 701.906 522.202, 706.022 525.555, 715.443 526.852, 719.086 530.566, 728.371 531.830, 731.530 534.993, 738.583 537.119, 743.324 538.448, 745.973 542.242, 753.536 542.698, 754.443 543.769, 756.355 547.903, 763.732 548.542, 764.873 549.410, 766.258 551.496, 769.590 554.630, 774.598 560.366, 782.789 560.939, 783.608 567.117, 791.471 567.447, 791.892 574.133, 799.444 580.976, 806.258 587.957, 812.328 595.056, 817.652 602.251, 822.234 609.522, 826.086 616.849, 829.216 624.214, 831.636 631.598, 833.358 " fill="none" stroke="rgb(0, 0, 0)" stroke-linecap="butt" stroke-linejoin="round" stroke-opacity="1.0" stroke-width="3.0" />
            <path d=" M 669.133, 186.163 666.886, 186.358 " fill="none" stroke="rgb(0, 0, 0)" stroke-linecap="butt" stroke-linejoin="round" stroke-opacity="1.0" stroke-width="3.0" />
            <path d=" M 631.598, 833.358 633.780, 833.800 " fill="none" stroke="rgb(0, 0, 0)" stroke-linecap="butt" stroke-linejoin="round" stroke-opacity="1.0" stroke-width="3.0" />
            <path d=" M 486.221, 460.004 485.162, 469.948 485.132, 470.224 484.115, 479.770 483.328, 489.739 482.546, 499.643 482.148, 507.368 481.632, 517.355 481.583, 518.317 481.519, 519.555 481.497, 520.448 481.494, 520.585 481.427, 523.318 481.185, 533.315 481.036, 539.436 481.068, 549.436 481.099, 559.218 481.407, 569.213 481.704, 578.833 482.293, 588.815 482.847, 598.213 483.720, 608.175 484.519, 617.295 485.682, 627.227 486.712, 636.016 488.171, 645.909 489.411, 654.316 491.174, 664.159 492.604, 672.139 494.679, 681.921 496.272, 689.431 498.669, 699.139 500.398, 706.142 503.128, 715.763 504.962, 722.228 508.035, 731.744 509.942, 737.645 511.270, 741.284 513.016, 746.065 515.314, 752.358 519.115, 761.607 519.932, 763.596 521.056, 766.331 525.242, 775.413 527.143, 779.537 528.334, 781.846 528.522, 782.211 528.776, 782.703 529.805, 784.697 531.997, 788.944 533.548, 791.951 535.704, 795.684 536.973, 797.882 537.212, 798.295 538.438, 800.418 540.247, 803.551 541.395, 805.325 542.084, 806.391 542.889, 807.635 545.045, 810.968 547.214, 814.322 553.089, 822.414 554.423, 824.251 560.753, 831.992 561.847, 833.329 568.641, 840.666 569.461, 841.551 576.722, 848.426 577.239, 848.916 584.965, 855.266 585.158, 855.424 593.192, 861.082 601.319, 865.895 609.515, 869.873 617.759, 873.029 626.030, 875.377 630.356, 876.339 638.612, 877.888 646.856, 878.661 655.070, 878.676 663.237, 877.953 671.342, 876.513 679.370, 874.378 687.305, 871.570 695.136, 868.112 702.850, 864.027 710.436, 859.338 717.883, 854.070 725.182, 848.244 732.324, 841.885 739.301, 835.015 746.104, 827.657 752.566, 820.025 752.728, 819.834 758.873, 811.944 759.166, 811.567 765.004, 803.448 765.413, 802.879 770.954, 794.555 771.463, 793.791 776.718, 785.283 777.311, 784.323 782.290, 775.651 782.953, 774.496 787.667, 765.676 788.386, 764.330 792.842, 755.377 793.606, 753.843 797.814, 744.772 798.610, 743.056 802.577, 733.876 803.394, 731.986 807.129, 722.709 807.957, 720.651 811.465, 711.286 812.296, 709.069 815.584, 699.625 816.408, 697.256 819.482, 687.741 820.293, 685.231 823.157, 675.650 823.947, 673.008 826.608, 663.368 827.370, 660.603 829.830, 650.910 830.560, 648.032 832.823, 638.292 833.516, 635.311 835.585, 625.527 836.236, 622.454 838.114, 612.632 838.718, 609.475 840.409, 599.619 840.963, 596.390 842.467, 586.504 842.968, 583.213 844.287, 573.300 844.732, 569.956 845.868, 560.021 846.255, 556.636 847.209, 546.681 847.536, 543.264 848.307, 533.294 848.573, 529.856 849.162, 519.874 849.365, 516.425 849.771, 506.433 849.912, 502.984 850.135, 492.987 850.212, 489.548 850.251, 479.548 850.264, 476.130 850.117, 466.131 850.068, 462.745 849.733, 452.750 849.622, 449.406 849.098, 439.420 848.925, 436.128 848.209, 426.154 847.977, 422.926 847.065, 412.967 846.777, 409.814 845.666, 399.876 845.323, 396.808 844.009, 386.895 843.615, 383.923 842.094, 374.039 841.653, 371.174 839.918, 361.326 839.434, 358.579 837.482, 348.772 836.960, 346.154 834.783, 336.394 834.230, 333.915 831.820, 324.210 831.242, 321.881 828.593, 312.238 827.998, 310.069 825.101, 300.498 824.496, 298.498 821.343, 289.009 820.738, 287.188 817.318, 277.791 816.724, 276.157 813.027, 266.865 812.454, 265.425 808.469, 256.254 807.930, 255.015 803.644, 245.980 803.153, 244.946 798.553, 236.067 798.125, 235.241 793.198, 226.539 792.848, 225.922 787.580, 217.423 787.325, 217.013 781.701, 208.744 781.559, 208.536 775.555, 200.515 769.315, 192.976 762.846, 185.942 756.153, 179.438 749.242, 173.491 742.122, 168.124 734.801, 163.365 727.286, 159.237 719.590, 155.767 711.722, 152.979 703.696, 150.898 695.524, 149.547 687.220, 148.949 678.801, 149.126 674.357, 149.582 665.816, 150.557 657.195, 152.346 648.513, 154.964 639.790, 158.429 631.048, 162.753 622.452, 167.862 622.310, 167.946 614.106, 173.664 613.598, 174.017 605.801, 180.279 604.939, 180.972 597.556, 187.716 596.357, 188.811 589.388, 195.982 587.880, 197.534 581.319, 205.081 579.534, 207.135 573.374, 215.012 571.347, 217.605 565.578, 225.773 563.348, 228.932 557.958, 237.355 555.564, 241.097 550.543, 249.745 548.025, 254.080 545.358, 259.137 544.616, 260.544 542.543, 264.472 541.799, 265.885 540.759, 267.855 540.406, 268.592 537.698, 274.244 536.320, 277.119 535.693, 278.428 534.725, 280.449 533.794, 282.392 533.125, 283.931 531.819, 286.933 530.122, 290.836 527.157, 297.655 526.584, 299.111 525.303, 302.365 521.639, 311.669 520.876, 313.606 518.450, 320.429 515.101, 329.852 514.976, 330.202 511.932, 339.728 511.633, 340.665 509.482, 347.396 506.737, 357.011 504.417, 365.135 501.964, 374.830 499.803, 383.367 497.636, 393.129 495.660, 402.031 493.775, 411.852 492.005, 421.068 491.095, 426.658 489.487, 436.528 489.439, 436.827 488.854, 440.414 487.522, 450.325 486.221, 460.004 " fill="none" stroke="rgb(0, 0, 0)" stroke-linecap="butt" stroke-linejoin="round" stroke-opacity="1.0" stroke-width="3.0" />
            <path d=" M 678.801, 149.126 670.284, 150.099 661.685, 151.887 653.025, 154.507 644.324, 157.974 635.603, 162.303 627.015, 167.426 626.884, 167.503 618.690, 173.235 618.193, 173.583 610.408, 179.860 609.552, 180.549 602.182, 187.307 600.989, 188.401 594.033, 195.586 592.529, 197.140 585.983, 204.699 584.199, 206.758 578.054, 214.647 576.028, 217.249 570.274, 225.427 568.043, 228.597 562.668, 237.030 560.273, 240.787 555.266, 249.443 552.747, 253.797 549.132, 260.676 549.086, 260.764 549.064, 260.806 546.603, 265.488 545.492, 267.601 543.911, 270.913 543.195, 272.413 541.825, 275.282 538.538, 282.169 538.197, 282.956 537.340, 284.934 534.798, 290.799 533.463, 293.882 531.910, 297.465 528.257, 306.774 525.637, 313.452 522.298, 322.878 520.529, 327.869 519.744, 330.085 516.710, 339.613 514.256, 347.317 511.519, 356.935 509.196, 365.096 506.750, 374.792 504.586, 383.369 504.271, 384.790 503.470, 388.411 502.758, 391.626 500.597, 401.390 500.445, 402.077 498.565, 411.898 498.203, 413.786 496.792, 421.158 495.188, 431.028 493.641, 440.548 492.311, 450.460 491.395, 457.286 491.006, 460.183 490.900, 461.183 489.842, 471.127 488.899, 479.994 488.112, 489.963 487.326, 499.914 487.044, 505.378 486.940, 507.393 486.827, 509.582 486.461, 516.664 486.348, 518.850 486.295, 519.871 486.208, 523.405 485.964, 533.402 485.807, 539.798 485.835, 549.798 485.861, 558.955 485.863, 559.625 486.167, 569.620 486.404, 577.424 486.461, 579.284 487.044, 589.267 487.595, 598.708 488.462, 608.670 489.258, 617.832 490.413, 627.765 491.440, 636.593 492.891, 646.488 494.129, 654.933 495.882, 664.778 497.309, 672.793 499.373, 682.578 500.964, 690.121 503.349, 699.833 505.076, 706.867 506.282, 711.137 508.998, 720.761 509.625, 722.984 512.583, 732.188 514.589, 738.431 518.005, 747.830 519.946, 753.171 523.731, 762.427 525.670, 767.170 529.605, 775.747 531.739, 780.399 533.011, 782.875 536.675, 790.007 538.127, 792.833 538.140, 792.857 542.291, 800.075 543.763, 802.636 544.807, 804.452 545.877, 806.113 551.291, 814.520 551.754, 815.239 557.613, 823.343 558.943, 825.182 565.258, 832.935 566.346, 834.271 573.127, 841.622 573.940, 842.503 581.188, 849.392 581.697, 849.875 589.411, 856.238 589.594, 856.389 597.606, 862.049 605.711, 866.864 613.885, 870.841 622.107, 873.995 630.356, 876.339 " fill="none" stroke="rgb(0, 0, 0)" stroke-linecap="butt" stroke-linejoin="round" stroke-opacity="1.0" stroke-width="3.0" />
            <path d=" M 747.837, 528.331 743.858, 527.224 734.747, 524.690 734.344, 523.273 733.841, 521.994 733.247, 520.876 732.571, 519.937 731.826, 519.194 731.022, 518.659 730.174, 518.341 729.295, 518.248 719.312, 517.663 718.134, 517.594 717.234, 517.725 716.366, 518.080 715.549, 518.656 714.764, 519.441 714.023, 520.422 713.339, 521.583 712.725, 522.904 712.191, 524.362 711.746, 525.934 711.398, 527.592 711.152, 529.308 715.906, 530.547 719.085, 530.752 727.070, 531.265 727.152, 530.721 727.274, 530.203 727.433, 529.726 727.625, 529.302 727.844, 528.943 728.085, 528.659 728.340, 528.457 728.603, 528.343 728.867, 528.321 " fill="none" stroke="rgb(0, 0, 0)" stroke-linecap="butt" stroke-linejoin="round" stroke-opacity="1.0" stroke-width="3.0" />
            <path d=" M 729.295, 518.248 728.400, 518.379 727.539, 518.737 726.728, 519.317 725.947, 520.106 725.211, 521.092 724.532, 522.259 723.922, 523.587 723.390, 525.053 722.947, 526.633 722.677, 527.931 722.600, 528.299 722.355, 530.023 " fill="none" stroke="rgb(0, 0, 0)" stroke-linecap="butt" stroke-linejoin="round" stroke-opacity="1.0" stroke-width="3.0" />
            <path d=" M 711.152, 529.308 719.038, 529.811 722.355, 530.023 727.070, 531.265 " fill="none" stroke="rgb(0, 0, 0)" stroke-linecap="butt" stroke-linejoin="round" stroke-opacity="1.0" stroke-width="3.0" />
            <path d=" M 728.867, 528.321 729.124, 528.389 729.367, 528.548 729.591, 528.791 729.788, 529.113 729.953, 529.504 730.082, 529.955 730.172, 530.452 730.219, 530.983 730.224, 531.532 730.185, 532.085 " fill="none" stroke="rgb(0, 0, 0)" stroke-linecap="butt" stroke-linejoin="round" stroke-opacity="1.0" stroke-width="3.0" />
            <path d=" M 719.046, 531.366 721.055, 531.496 730.185, 532.085 738.974, 534.399 747.154, 536.553 " fill="none" stroke="rgb(0, 0, 0)" stroke-linecap="butt" stroke-linejoin="round" stroke-opacity="1.0" stroke-width="3.0" />
            <path d=" M 802.458, 522.533 801.604, 522.673 800.784, 523.046 800.015, 523.648 799.272, 524.466 798.571, 525.487 798.265, 526.056 797.921, 526.693 797.336, 528.066 796.824, 529.581 796.395, 531.213 796.131, 532.553 796.057, 532.933 795.814, 534.712 " fill="none" stroke="rgb(0, 0, 0)" stroke-linecap="butt" stroke-linejoin="round" stroke-opacity="1.0" stroke-width="3.0" />
            <path d=" M 783.891, 533.951 791.352, 534.428 795.814, 534.712 798.968, 535.602 800.261, 535.967 " fill="none" stroke="rgb(0, 0, 0)" stroke-linecap="butt" stroke-linejoin="round" stroke-opacity="1.0" stroke-width="3.0" />
            <path d=" M 801.978, 532.921 802.220, 532.990 802.449, 533.152 802.658, 533.402 802.842, 533.733 802.996, 534.136 803.115, 534.599 803.196, 535.112 803.238, 535.658 803.239, 536.224 803.198, 536.795 799.036, 536.526 791.350, 536.030 " fill="none" stroke="rgb(0, 0, 0)" stroke-linecap="butt" stroke-linejoin="round" stroke-opacity="1.0" stroke-width="3.0" />
            <path d=" M 786.715, 498.544 786.917, 498.622 787.099, 498.743 787.253, 498.900 787.374, 499.089 787.458, 499.305 787.501, 499.541 787.498, 499.793 787.451, 500.029 787.364, 500.253 787.239, 500.458 787.082, 500.637 786.898, 500.781 786.692, 500.887 786.470, 500.950 786.236, 500.965 786.076, 500.944 " fill="none" stroke="rgb(0, 0, 0)" stroke-linecap="butt" stroke-linejoin="round" stroke-opacity="1.0" stroke-width="3.0" />
            <path d=" M 786.715, 498.544 786.695, 498.538 786.691, 498.537 786.660, 498.531 786.623, 498.524 786.581, 498.518 786.536, 498.512 786.489, 498.507 786.441, 498.503 786.395, 498.500 786.355, 498.499 786.320, 498.499 786.292, 498.500 786.272, 498.502 786.047, 498.540 786.024, 498.547 785.801, 498.633 785.599, 498.761 785.425, 498.925 785.286, 499.122 785.273, 499.144 785.173, 499.370 785.120, 499.618 785.117, 499.857 785.162, 500.091 785.252, 500.312 785.384, 500.511 785.553, 500.682 785.572, 500.698 785.768, 500.830 785.923, 500.899 785.990, 500.920 786.076, 500.944 " fill="none" stroke="rgb(0, 0, 0)" stroke-linecap="butt" stroke-linejoin="round" stroke-opacity="1.0" stroke-width="3.0" />
            <path d=" M 786.574, 502.863 789.512, 502.993 789.665, 496.852 789.525, 496.806 786.741, 496.672 783.879, 496.535 783.218, 502.663 784.142, 502.755 " fill="none" stroke="rgb(0, 0, 0)" stroke-linecap="butt" stroke-linejoin="round" stroke-opacity="1.0" stroke-width="3.0" />
            <path d=" M 783.218, 502.663 788.864, 502.949 " fill="none" stroke="rgb(0, 0, 0)" stroke-linecap="butt" stroke-linejoin="round" stroke-opacity="1.0" stroke-width="3.0" />
            <path d=" M 789.512, 502.993 788.864, 502.949 789.525, 496.806 " fill="none" stroke="rgb(0, 0, 0)" stroke-linecap="butt" stroke-linejoin="round" stroke-opacity="1.0" stroke-width="3.0" />
            <path d=" M 719.061, 531.154 715.968, 530.623 706.133, 528.812 704.522, 528.516 694.707, 526.603 693.083, 526.286 683.284, 524.289 681.641, 523.954 671.856, 521.892 670.193, 521.541 660.419, 519.429 658.732, 519.065 648.965, 516.921 647.252, 516.545 637.488, 514.385 635.748, 514.000 625.984, 511.840 624.214, 511.448 614.447, 509.304 612.646, 508.909 602.871, 506.795 601.036, 506.398 591.253, 504.330 589.382, 503.935 579.585, 501.927 577.677, 501.536 577.318, 491.543 577.174, 487.510 576.689, 477.522 576.500, 473.630 575.886, 463.649 575.656, 459.917 574.906, 449.945 574.639, 446.392 573.749, 436.432 573.449, 433.078 572.412, 423.132 572.085, 419.997 570.895, 410.069 570.547, 407.173 569.194, 397.265 568.834, 394.630 567.307, 384.747 566.944, 382.395 565.234, 372.542 564.878, 370.493 562.971, 360.676 562.636, 358.952 560.516, 349.179 560.217, 347.802 557.855, 338.038 " fill="none" stroke="rgb(0, 0, 0)" stroke-linecap="butt" stroke-linejoin="round" stroke-opacity="1.0" stroke-width="3.0" />
            <path d=" M 508.604, 251.161 503.805, 249.967 498.895, 249.737 493.888, 250.503 488.796, 252.299 486.202, 253.736 483.633, 255.158 482.525, 255.997 478.414, 259.106 476.278, 261.162 473.157, 264.165 467.880, 270.357 467.371, 271.064 462.601, 277.698 459.696, 282.391 457.342, 286.195 455.296, 289.983 452.124, 295.853 447.822, 304.881 446.969, 306.670 443.070, 315.879 441.903, 318.637 438.364, 327.990 436.948, 331.733 433.734, 341.202 432.129, 345.932 429.213, 355.498 427.474, 361.205 424.830, 370.849 423.006, 377.506 420.614, 387.216 418.750, 394.784 416.593, 404.549 414.731, 412.979 412.796, 422.790 410.975, 432.023 409.249, 441.873 407.503, 451.839 405.977, 461.722 404.450, 471.605 404.337, 472.342 403.003, 482.253 401.668, 492.163 401.497, 493.440 400.349, 503.374 399.201, 513.308 399.001, 515.036 398.035, 524.989 397.068, 534.942 396.866, 537.026 396.078, 546.995 395.289, 556.964 395.104, 559.302 394.492, 569.283 393.880, 579.264 393.727, 581.752 393.291, 591.743 392.854, 601.733 392.744, 604.264 392.483, 614.261 392.222, 624.257 392.158, 626.722 392.075, 636.722 391.991, 646.722 391.972, 649.013 392.070, 659.012 392.168, 669.012 392.188, 671.024 392.470, 681.020 392.753, 691.016 392.799, 692.647 393.273, 702.636 393.746, 712.625 393.801, 713.778 394.473, 723.755 395.144, 733.732 395.184, 734.314 395.209, 734.215 397.660, 724.521 400.112, 714.826 400.733, 712.371 401.155, 710.777 403.718, 701.111 406.280, 691.445 406.394, 691.013 409.071, 681.378 411.747, 671.743 412.169, 670.221 414.963, 660.619 417.756, 651.018 418.058, 649.977 420.972, 640.411 423.885, 630.845 424.062, 630.262 427.098, 620.734 430.181, 611.059 433.344, 601.573 436.417, 592.351 439.708, 582.908 442.771, 574.120 446.193, 564.724 449.243, 556.350 452.799, 547.004 455.834, 539.024 459.526, 529.731 462.547, 522.128 466.377, 512.890 469.382, 505.644 473.353, 496.466 476.341, 489.558 480.453, 480.442 483.425, 473.854 485.132, 470.224 " fill="none" stroke="rgb(0, 0, 0)" stroke-linecap="butt" stroke-linejoin="round" stroke-opacity="1.0" stroke-width="3.0" />
            <path d=" M 365.065, 725.440 361.148, 734.641 359.987, 737.369 " fill="none" stroke="rgb(0, 0, 0)" stroke-linecap="butt" stroke-linejoin="round" stroke-opacity="1.0" stroke-width="3.0" />
            <path d=" M 479.833, 935.373 484.408, 930.497 " fill="none" stroke="rgb(0, 0, 0)" stroke-linecap="butt" stroke-linejoin="round" stroke-opacity="1.0" stroke-width="3.0" />
            <path d=" M 486.202, 253.736 476.204, 253.535 473.916, 253.489 " fill="none" stroke="rgb(0, 0, 0)" stroke-linecap="butt" stroke-linejoin="round" stroke-opacity="1.0" stroke-width="3.0" />
            <path d=" M 519.260, 255.335 513.682, 253.150 511.221, 252.186 508.604, 251.161 " fill="none" stroke="rgb(0, 0, 0)" stroke-linecap="butt" stroke-linejoin="round" stroke-opacity="1.0" stroke-width="3.0" />
            <path d=" M 519.154, 504.825 519.287, 504.834 " fill="none" stroke="rgb(0, 0, 0)" stroke-linecap="butt" stroke-linejoin="round" stroke-opacity="1.0" stroke-width="3.0" />
            <path d=" M 527.897, 257.927 525.566, 257.227 523.240, 256.529 519.260, 255.335 516.334, 254.457 " fill="none" stroke="rgb(0, 0, 0)" stroke-linecap="butt" stroke-linejoin="round" stroke-opacity="1.0" stroke-width="3.0" />
            <path d=" M 535.987, 259.622 534.356, 259.280 532.266, 258.843 527.897, 257.927 525.638, 257.454 523.930, 257.096 " fill="none" stroke="rgb(0, 0, 0)" stroke-linecap="butt" stroke-linejoin="round" stroke-opacity="1.0" stroke-width="3.0" />
            <path d=" M 543.410, 260.509 541.727, 260.308 540.521, 260.164 538.478, 259.920 535.987, 259.622 534.392, 259.432 532.349, 259.188 531.351, 259.069 " fill="none" stroke="rgb(0, 0, 0)" stroke-linecap="butt" stroke-linejoin="round" stroke-opacity="1.0" stroke-width="3.0" />
            <path d=" M 544.616, 260.544 543.410, 260.509 541.757, 260.460 540.582, 260.426 538.583, 260.367 538.559, 260.367 " fill="none" stroke="rgb(0, 0, 0)" stroke-linecap="butt" stroke-linejoin="round" stroke-opacity="1.0" stroke-width="3.0" />
            <path d=" M 558.183, 342.561 557.705, 338.355 " fill="none" stroke="rgb(0, 0, 0)" stroke-linecap="butt" stroke-linejoin="round" stroke-opacity="1.0" stroke-width="3.0" />
        </g>
    </g>
</svg>
