<?xml version='1.0' encoding='ascii'?>
<svg xmlns="http://www.w3.org/2000/svg" height="1080" version="1.1" width="1080">
    <g id="View Layer_LineSet" inkscape:groupmode="lineset" inkscape:label="View Layer_LineSet" xmlns:inkscape="http://www.inkscape.org/namespaces/inkscape">
        <g id="strokes" inkscape:groupmode="layer" inkscape:label="strokes" xmlns:inkscape="http://www.inkscape.org/namespaces/inkscape">
            <path d=" M 564.180, 490.795 564.182, 491.954 564.164, 493.118 564.126, 494.274 564.068, 495.413 564.018, 496.138 563.991, 496.522 563.896, 497.591 563.782, 498.609 563.653, 499.564 563.505, 500.450 563.392, 501.039 563.273, 501.582 563.216, 501.805 563.147, 502.078 563.016, 502.522 562.921, 502.795 562.880, 502.913 562.740, 503.248 562.597, 503.527 560.598, 506.976 559.755, 508.430 559.669, 508.578 " fill="none" stroke="rgb(0, 0, 0)" stroke-linecap="butt" stroke-linejoin="round" stroke-opacity="1.0" stroke-width="3.0" />
            <path d=" M 360.994, 749.285 367.176, 753.670 " fill="none" stroke="rgb(0, 0, 0)" stroke-linecap="butt" stroke-linejoin="round" stroke-opacity="1.0" stroke-width="3.0" />
            <path d=" M 384.841, 754.643 394.380, 751.643 396.448, 750.992 " fill="none" stroke="rgb(0, 0, 0)" stroke-linecap="butt" stroke-linejoin="round" stroke-opacity="1.0" stroke-width="3.0" />
            <path d=" M 396.448, 750.992 391.597, 742.248 386.745, 733.503 386.045, 732.240 " fill="none" stroke="rgb(0, 0, 0)" stroke-linecap="butt" stroke-linejoin="round" stroke-opacity="1.0" stroke-width="3.0" />
            <path d=" M 472.748, 258.264 468.368, 258.940 463.922, 260.666 459.420, 263.478 454.878, 267.405 450.310, 272.470 448.192, 275.352 448.177, 275.372 448.177, 275.372 445.733, 278.696 444.775, 280.249 441.165, 286.102 436.623, 294.698 432.449, 303.785 432.127, 304.486 428.387, 313.760 427.698, 315.466 424.338, 324.885 423.358, 327.631 420.333, 337.162 419.128, 340.960 416.402, 350.581 415.029, 355.427 412.575, 365.121 411.086, 370.999 408.878, 380.752 407.321, 387.631 405.340, 397.433 403.756, 405.269 401.985, 415.111 400.413, 423.849 398.839, 433.724 397.313, 443.301 395.926, 453.204 394.539, 463.107 394.478, 463.542 393.268, 473.469 392.058, 483.395 391.925, 484.483 390.885, 494.429 389.845, 504.375 389.672, 506.027 388.796, 515.988 387.921, 525.950 387.735, 528.070 387.020, 538.044 386.304, 548.019 386.126, 550.502 385.568, 560.486 385.010, 570.471 384.857, 573.208 384.455, 583.200 384.053, 593.192 383.937, 596.071 383.690, 606.068 383.443, 616.065 383.371, 618.971 383.279, 628.971 383.187, 638.970 383.162, 641.788 383.227, 651.788 383.293, 661.787 383.310, 664.402 383.536, 674.400 383.762, 684.397 383.814, 686.696 384.204, 696.689 384.594, 706.681 384.667, 708.558 385.227, 718.542 385.787, 728.526 385.863, 729.879 386.045, 732.240 385.508, 742.226 384.972, 752.212 384.841, 754.643 " fill="none" stroke="rgb(0, 0, 0)" stroke-linecap="butt" stroke-linejoin="round" stroke-opacity="1.0" stroke-width="3.0" />
            <path d=" M 566.967, 520.219 567.764, 520.233 567.983, 520.237 572.797, 511.472 574.699, 508.009 577.749, 503.849 577.358, 493.857 577.195, 489.678 576.674, 479.691 576.464, 475.668 575.809, 465.689 575.556, 461.841 574.761, 451.873 574.470, 448.222 573.530, 438.266 573.205, 434.834 572.112, 424.893 571.761, 421.699 570.507, 411.778 570.136, 408.845 568.711, 398.947 568.330, 396.297 566.723, 386.427 566.342, 384.084 564.541, 374.247 564.172, 372.232 562.161, 362.436 561.819, 360.771 559.580, 351.024 559.284, 349.733 558.472, 346.571 556.566, 339.149 556.264, 338.096 " fill="none" stroke="rgb(0, 0, 0)" stroke-linecap="butt" stroke-linejoin="round" stroke-opacity="1.0" stroke-width="3.0" />
            <path d=" M 552.788, 346.034 552.994, 346.739 554.251, 351.045 556.300, 358.896 556.865, 361.061 559.136, 370.799 559.305, 371.523 561.344, 381.312 561.571, 382.401 562.329, 386.481 563.663, 393.666 565.291, 403.533 565.581, 405.288 567.024, 415.183 567.324, 417.240 568.595, 427.159 568.894, 429.495 570.002, 439.434 570.291, 442.028 571.244, 451.982 571.515, 454.813 572.321, 464.780 572.567, 467.826 573.232, 477.804 573.448, 481.046 573.977, 491.031 574.158, 494.447 574.200, 495.497 574.152, 496.304 574.094, 497.093 574.026, 497.858 573.949, 498.595 573.863, 499.301 573.769, 499.972 573.667, 500.604 573.558, 501.193 573.443, 501.737 573.321, 502.233 573.195, 502.678 573.063, 503.070 572.929, 503.406 572.791, 503.685 568.815, 510.807 568.590, 509.995 568.346, 509.370 568.086, 508.941 567.815, 508.719 567.691, 508.713 567.537, 508.705 565.108, 508.666 564.180, 508.651 564.124, 508.650 563.323, 508.637 559.756, 508.580 559.669, 508.578 557.974, 508.551 557.748, 508.547 557.147, 508.537 556.857, 508.734 556.570, 509.138 556.291, 509.744 556.025, 510.541 555.946, 510.851 555.776, 511.517 555.548, 512.655 555.347, 513.936 555.174, 515.339 555.033, 516.839 554.927, 518.411 554.857, 520.027 554.825, 521.660 554.831, 523.283 554.875, 524.865 556.158, 524.889 558.000, 524.922 558.110, 524.924 559.890, 524.957 563.451, 525.022 564.266, 525.037 565.233, 525.054 565.337, 525.056 566.931, 522.154 566.920, 521.650 566.923, 521.133 566.941, 520.619 566.967, 520.219 566.973, 520.120 567.019, 519.650 567.076, 519.223 567.144, 518.850 567.220, 518.541 567.303, 518.304 567.390, 518.147 567.479, 518.073 " fill="none" stroke="rgb(0, 0, 0)" stroke-linecap="butt" stroke-linejoin="round" stroke-opacity="1.0" stroke-width="3.0" />
            <path d=" M 465.454, 928.804 461.429, 928.575 457.936, 927.506 457.396, 927.340 453.368, 925.073 449.360, 921.744 449.321, 921.701 445.387, 917.329 441.465, 911.808 437.611, 905.170 433.843, 897.403 430.179, 888.501 426.849, 879.072 426.637, 878.472 423.719, 868.907 423.236, 867.325 420.678, 857.657 419.995, 855.076 417.756, 845.330 416.933, 841.750 414.977, 831.943 414.067, 827.382 412.367, 817.528 411.416, 812.015 409.950, 802.123 408.997, 795.697 407.746, 785.775 406.827, 778.487 405.775, 768.542 404.919, 760.452 404.055, 750.490 403.289, 741.667 402.577, 731.692 401.910, 722.338 401.881, 721.777 " fill="none" stroke="rgb(0, 0, 0)" stroke-linecap="butt" stroke-linejoin="round" stroke-opacity="1.0" stroke-width="3.0" />
            <path d=" M 381.854, 349.300 380.869, 353.405 378.783, 363.185 377.573, 368.858 375.713, 378.683 374.447, 385.374 372.793, 395.236 371.508, 402.901 370.045, 412.793 368.775, 421.379 367.490, 431.296 366.267, 440.739 365.149, 450.676 364.032, 460.614 363.999, 460.903 363.040, 470.857 362.081, 480.811 361.987, 481.784 361.180, 491.751 360.373, 501.719 360.246, 503.288 359.585, 513.266 358.925, 523.244 358.788, 525.314 358.269, 535.301 357.751, 545.287 357.623, 547.755 357.243, 557.748 356.864, 567.740 356.759, 570.498 356.517, 580.495 356.275, 590.492 356.204, 593.428 356.099, 603.427 355.994, 613.427 355.962, 616.426 355.993, 626.426 356.024, 636.426 356.033, 639.375 356.202, 649.373 356.370, 659.372 356.417, 662.154 356.726, 672.149 357.035, 682.144 357.112, 684.646 357.565, 694.635 358.017, 704.625 358.112, 706.737 358.712, 716.719 359.312, 726.701 359.409, 728.318 360.163, 738.290 360.917, 748.261 360.994, 749.285 361.964, 759.238 362.946, 769.328 364.115, 779.259 365.207, 788.547 366.587, 798.451 367.760, 806.863 369.369, 816.733 370.588, 824.203 372.447, 834.028 373.672, 840.503 375.805, 850.273 376.992, 855.711 379.430, 865.410 380.529, 869.786 383.309, 879.392 384.263, 882.689 385.154, 885.356 " fill="none" stroke="rgb(0, 0, 0)" stroke-linecap="butt" stroke-linejoin="round" stroke-opacity="1.0" stroke-width="3.0" />
            <path d=" M 524.101, 532.842 524.289, 542.840 524.338, 545.474 524.417, 555.473 524.448, 559.413 524.417, 569.413 524.405, 573.415 524.268, 583.414 524.213, 587.461 523.987, 596.733 " fill="none" stroke="rgb(0, 0, 0)" stroke-linecap="butt" stroke-linejoin="round" stroke-opacity="1.0" stroke-width="3.0" />
            <path d=" M 512.137, 740.069 510.641, 749.957 510.291, 752.269 508.661, 762.135 508.177, 765.059 506.405, 774.901 505.919, 777.596 503.998, 787.410 503.519, 789.855 501.439, 799.636 500.977, 801.809 498.729, 811.553 498.296, 813.429 495.866, 823.129 495.476, 824.687 492.851, 834.336 492.520, 835.552 489.684, 845.142 489.431, 845.994 486.362, 855.512 486.211, 855.979 482.864, 865.475 479.392, 874.447 475.801, 882.860 472.095, 890.675 468.280, 897.859 464.361, 904.371 460.345, 910.173 456.241, 915.225 452.056, 919.491 449.321, 921.701 " fill="none" stroke="rgb(0, 0, 0)" stroke-linecap="butt" stroke-linejoin="round" stroke-opacity="1.0" stroke-width="3.0" />
            <path d=" M 396.101, 746.243 396.448, 750.992 397.336, 760.953 398.230, 770.977 399.319, 780.917 400.329, 790.141 401.630, 800.056 402.727, 808.408 404.258, 818.290 405.406, 825.703 407.187, 835.543 408.349, 841.965 410.402, 851.751 411.533, 857.141 413.887, 866.860 414.936, 871.188 417.628, 880.819 418.537, 884.071 421.610, 893.587 422.313, 895.763 425.819, 905.128 426.240, 906.251 430.247, 915.413 430.296, 915.525 434.460, 923.583 436.915, 927.540 437.188, 927.979 438.709, 930.431 443.023, 936.084 447.383, 940.559 451.769, 943.877 456.165, 946.069 460.553, 947.166 464.919, 947.202 469.247, 946.212 473.527, 944.238 477.744, 941.321 478.231, 940.873 481.890, 937.500 485.954, 932.819 489.599, 927.776 489.928, 927.321 493.804, 921.047 497.575, 914.039 497.742, 913.688 501.235, 906.339 504.779, 897.989 508.203, 889.028 511.503, 879.493 514.508, 869.955 514.676, 869.425 517.443, 859.815 517.718, 858.858 520.269, 849.189 520.628, 847.828 522.982, 838.109 523.404, 836.368 525.578, 826.607 526.044, 824.512 528.051, 814.716 528.547, 812.292 530.399, 802.464 530.913, 799.735 532.619, 789.881 533.015, 787.596 " fill="none" stroke="rgb(0, 0, 0)" stroke-linecap="butt" stroke-linejoin="round" stroke-opacity="1.0" stroke-width="3.0" />
            <path d=" M 529.811, 781.458 528.119, 790.899 526.209, 800.714 525.797, 802.831 523.732, 812.616 523.635, 813.073 523.348, 814.431 521.116, 824.179 520.774, 825.670 518.362, 835.374 518.078, 836.518 515.468, 846.171 515.260, 846.943 512.434, 856.535 512.323, 856.912 509.271, 866.394 506.108, 875.354 502.836, 883.756 499.460, 891.562 495.986, 898.738 492.418, 905.245 488.764, 911.042 485.029, 916.093 481.222, 920.360 477.352, 923.803 473.427, 926.381 469.457, 928.060 465.454, 928.804 " fill="none" stroke="rgb(0, 0, 0)" stroke-linecap="butt" stroke-linejoin="round" stroke-opacity="1.0" stroke-width="3.0" />
            <path d=" M 560.598, 506.976 559.739, 506.913 557.955, 506.783 557.715, 506.765 555.867, 506.629 548.870, 506.117 548.482, 506.088 546.638, 505.953 546.185, 505.920 546.554, 515.913 546.686, 519.514 546.951, 529.510 547.049, 533.231 547.212, 543.230 547.274, 547.051 547.336, 557.050 547.360, 560.954 547.324, 570.953 547.309, 574.920 547.175, 584.919 547.121, 588.931 546.890, 598.928 546.797, 602.967 546.468, 612.961 546.336, 617.009 545.910, 627.000 545.739, 631.037 545.216, 641.023 545.006, 645.033 544.385, 655.014 544.138, 658.976 543.417, 668.950 543.136, 672.847 542.975, 674.790 " fill="none" stroke="rgb(0, 0, 0)" stroke-linecap="butt" stroke-linejoin="round" stroke-opacity="1.0" stroke-width="3.0" />
            <path d=" M 545.545, 681.483 545.966, 676.057 546.641, 666.079 546.947, 661.566 547.525, 651.583 547.790, 647.005 548.272, 637.017 548.496, 632.393 548.884, 622.401 549.065, 617.750 549.360, 607.755 549.497, 603.095 549.699, 593.097 549.793, 588.448 549.902, 578.448 549.953, 573.826 549.969, 563.826 549.977, 559.250 549.899, 549.250 549.864, 544.738 549.692, 534.740 549.616, 530.310 549.347, 520.314 549.231, 515.986 548.870, 506.117 " fill="none" stroke="rgb(0, 0, 0)" stroke-linecap="butt" stroke-linejoin="round" stroke-opacity="1.0" stroke-width="3.0" />
            <path d=" M 384.841, 754.643 385.755, 764.601 386.670, 774.560 386.749, 775.415 387.860, 785.353 388.976, 795.321 390.298, 805.234 391.505, 814.278 393.054, 824.158 394.318, 832.211 396.115, 842.048 397.395, 849.052 399.464, 858.836 400.714, 864.750 403.085, 874.465 404.255, 879.260 406.965, 888.886 407.995, 892.546 411.089, 902.055 411.911, 904.582 415.445, 913.937 415.981, 915.356 420.025, 924.502 420.183, 924.860 424.495, 933.092 428.895, 940.062 433.363, 945.788 437.880, 950.289 442.427, 953.590 446.986, 955.723 451.542, 956.725 456.078, 956.630 460.580, 955.479 465.035, 953.316 469.432, 950.183 473.759, 946.125 " fill="none" stroke="rgb(0, 0, 0)" stroke-linecap="butt" stroke-linejoin="round" stroke-opacity="1.0" stroke-width="3.0" />
            <path d=" M 473.759, 946.125 480.619, 938.848 481.890, 937.500 " fill="none" stroke="rgb(0, 0, 0)" stroke-linecap="butt" stroke-linejoin="round" stroke-opacity="1.0" stroke-width="3.0" />
            <path d=" M 539.029, 481.513 539.631, 491.495 540.234, 501.477 540.477, 505.502 540.811, 515.496 540.931, 519.101 541.112, 529.099 541.128, 529.953 535.157, 531.704 531.959, 532.642 531.679, 532.724 531.399, 532.806 531.118, 532.889 530.838, 532.972 526.856, 532.895 524.101, 532.842 519.139, 532.746 " fill="none" stroke="rgb(0, 0, 0)" stroke-linecap="butt" stroke-linejoin="round" stroke-opacity="1.0" stroke-width="3.0" />
            <path d=" M 519.523, 503.944 520.915, 499.809 524.106, 490.331 527.296, 480.854 527.502, 480.241 537.442, 481.338 539.029, 481.513 535.946, 491.026 532.863, 500.539 530.914, 506.555 530.787, 506.941 530.537, 507.713 530.286, 508.487 530.036, 509.262 529.786, 510.037 529.500, 511.059 529.326, 511.862 529.239, 512.264 529.010, 513.629 528.818, 515.127 528.665, 516.730 528.622, 517.393 528.556, 518.408 528.492, 520.126 528.474, 521.853 528.504, 523.554 528.507, 523.615 528.580, 525.197 528.700, 526.750 528.863, 528.182 529.065, 529.467 529.303, 530.580 529.571, 531.500 529.865, 532.210 530.179, 532.697 530.506, 532.953 530.838, 532.972 " fill="none" stroke="rgb(0, 0, 0)" stroke-linecap="butt" stroke-linejoin="round" stroke-opacity="1.0" stroke-width="3.0" />
            <path d=" M 530.875, 523.658 530.750, 523.589 530.633, 523.387 530.528, 523.060 530.441, 522.623 530.376, 522.096 530.335, 521.499 530.319, 520.861 530.331, 520.209 530.369, 519.572 530.431, 518.978 530.515, 518.452 530.617, 518.019 530.733, 517.696 530.856, 517.499 530.984, 517.434 " fill="none" stroke="rgb(0, 0, 0)" stroke-linecap="butt" stroke-linejoin="round" stroke-opacity="1.0" stroke-width="3.0" />
            <path d=" M 530.984, 517.434 531.109, 517.505 531.226, 517.709 531.330, 518.037 531.416, 518.473 531.481, 519.000 531.522, 519.594 531.537, 520.230 531.526, 520.879 531.488, 521.514 531.426, 522.107 531.343, 522.631 531.241, 523.065 531.126, 523.390 531.002, 523.590 530.875, 523.658 " fill="none" stroke="rgb(0, 0, 0)" stroke-linecap="butt" stroke-linejoin="round" stroke-opacity="1.0" stroke-width="3.0" />
            <path d=" M 551.232, 694.910 551.303, 694.169 552.169, 684.207 552.458, 680.881 553.240, 670.911 553.506, 667.516 554.205, 657.541 554.447, 654.088 555.064, 644.107 555.280, 640.607 555.816, 630.622 556.006, 627.086 556.463, 617.096 556.625, 613.536 557.002, 603.543 557.136, 599.968 557.434, 589.972 557.540, 586.393 557.758, 576.396 557.836, 572.823 557.975, 562.824 558.024, 559.269 558.083, 549.269 558.104, 545.742 558.095, 541.758 558.075, 532.252 558.000, 524.922 " fill="none" stroke="rgb(0, 0, 0)" stroke-linecap="butt" stroke-linejoin="round" stroke-opacity="1.0" stroke-width="3.0" />
            <path d=" M 454.045, 975.842 456.483, 976.030 460.608, 976.099 464.704, 975.335 468.763, 973.768 472.777, 971.428 476.737, 968.347 480.639, 964.555 484.475, 960.084 488.240, 954.965 491.930, 949.230 495.539, 942.907 499.064, 936.028 502.501, 928.621 505.847, 920.715 509.099, 912.337 512.255, 903.515 515.313, 894.275 518.271, 884.641 521.017, 875.025 521.128, 874.638 523.699, 864.974 523.882, 864.289 526.292, 854.584 526.336, 854.403 526.532, 853.617 528.791, 843.876 529.077, 842.643 531.195, 832.870 531.517, 831.388 533.503, 821.587 533.850, 819.872 535.712, 810.047 536.078, 808.114 537.821, 798.267 538.087, 796.759 " fill="none" stroke="rgb(0, 0, 0)" stroke-linecap="butt" stroke-linejoin="round" stroke-opacity="1.0" stroke-width="3.0" />
            <path d=" M 525.974, 261.381 523.611, 254.278 520.729, 246.419 517.733, 239.044 514.625, 232.181 511.406, 225.856 508.079, 220.099 504.646, 214.938 501.111, 210.403 497.477, 206.523 493.748, 203.328 489.928, 200.848 486.023, 199.114 482.039, 198.154 477.982, 197.999 477.248, 198.119 473.860, 198.676 469.679, 200.213 465.449, 202.635 461.180, 205.968 456.880, 210.233 452.562, 215.451 448.236, 221.639 443.916, 228.811 439.614, 236.978 435.392, 246.043 435.344, 246.146 431.510, 255.381 431.121, 256.318 430.766, 257.271 427.276, 266.642 426.959, 267.493 423.776, 276.973 422.874, 279.662 419.969, 289.231 418.882, 292.813 416.230, 302.455 414.999, 306.929 414.482, 309.001 412.061, 318.703 411.242, 321.985 409.034, 331.738 407.627, 337.951 405.616, 347.747 404.170, 354.791 402.344, 364.623 400.888, 372.464 399.236, 382.326 397.797, 390.919 396.309, 400.808 394.911, 410.103 393.580, 420.014 392.245, 429.955 391.064, 439.885 389.884, 449.815 389.813, 450.410 388.777, 460.356 387.742, 470.302 387.628, 471.395 386.733, 481.355 385.838, 491.315 385.701, 492.836 384.943, 502.808 384.185, 512.779 384.042, 514.653 383.419, 524.634 382.795, 534.614 382.661, 536.762 382.170, 546.750 381.679, 556.738 381.564, 559.077 381.204, 569.071 380.844, 579.064 380.756, 581.510 380.528, 591.508 380.299, 601.505 380.243, 603.972 380.146, 613.972 380.049, 623.971 380.026, 626.374 380.061, 636.374 380.097, 646.373 380.105, 648.625 380.275, 658.624 380.445, 668.622 380.479, 670.638 380.786, 680.634 381.094, 690.629 381.146, 692.328 381.593, 702.318 382.041, 712.308 382.099, 713.611 382.692, 723.594 383.284, 733.576 383.334, 734.408 384.076, 744.380 384.819, 754.353 384.841, 754.643 385.740, 764.603 386.612, 774.246 387.676, 784.190 388.635, 793.152 389.874, 803.075 390.900, 811.301 392.324, 821.199 393.393, 828.639 395.015, 838.507 396.101, 845.119 397.937, 854.949 399.010, 860.699 401.077, 870.483 402.104, 875.343 404.425, 885.070 405.369, 889.024 407.970, 898.680 408.789, 901.719 411.701, 911.286 412.348, 913.411 415.609, 922.864 416.031, 924.088 419.685, 933.396 419.822, 933.745 423.707, 942.382 427.671, 950.002 431.699, 956.614 435.777, 962.230 439.893, 966.867 444.033, 970.542 448.185, 973.278 452.339, 975.099 455.781, 975.872 456.483, 976.030 " fill="none" stroke="rgb(0, 0, 0)" stroke-linecap="butt" stroke-linejoin="round" stroke-opacity="1.0" stroke-width="3.0" />
            <path d=" M 475.576, 198.056 471.427, 198.734 467.220, 200.271 462.964, 202.693 458.667, 206.025 454.341, 210.290 449.996, 215.507 445.644, 221.693 441.297, 228.863 436.968, 237.028 432.724, 246.082 432.673, 246.193 428.817, 255.420 428.424, 256.362 427.905, 257.746 424.396, 267.110 424.237, 267.533 421.037, 277.007 420.128, 279.698 417.207, 289.262 416.113, 292.845 413.445, 302.483 412.207, 306.956 409.772, 316.655 408.428, 322.007 406.736, 329.435 404.793, 337.967 402.770, 347.761 401.316, 354.802 399.480, 364.632 398.016, 372.467 396.355, 382.328 394.908, 390.916 393.412, 400.803 392.006, 410.092 390.668, 420.003 389.326, 429.937 388.139, 439.866 386.952, 449.796 386.882, 450.384 385.841, 460.329 384.800, 470.275 384.686, 471.361 383.786, 481.321 382.887, 491.280 382.750, 492.794 381.988, 502.765 381.226, 512.736 381.084, 514.602 380.457, 524.582 379.831, 534.563 379.696, 536.702 379.203, 546.690 378.710, 556.678 378.595, 559.008 378.235, 569.002 377.874, 578.995 377.786, 581.433 377.558, 591.430 377.329, 601.428 377.273, 603.886 377.177, 613.886 377.080, 623.885 377.057, 626.279 377.094, 636.279 377.132, 646.279 377.140, 648.522 377.312, 658.520 377.485, 668.519 377.520, 670.527 377.830, 680.522 378.140, 690.517 378.193, 692.208 378.645, 702.198 379.097, 712.188 379.155, 713.484 379.753, 723.466 380.351, 733.448 380.400, 734.273 381.149, 744.245 381.898, 754.217 381.920, 754.501 382.826, 764.460 383.704, 774.097 384.777, 784.040 385.743, 792.997 386.991, 802.919 388.024, 811.140 389.458, 821.037 390.536, 828.473 392.169, 838.338 393.263, 844.947 395.111, 854.775 396.192, 860.522 398.273, 870.303 399.308, 875.163 401.644, 884.886 402.595, 888.841 405.213, 898.492 406.038, 901.533 408.968, 911.094 409.621, 913.222 412.902, 922.668 413.328, 923.897 417.005, 933.197 417.145, 933.553 421.056, 942.188 425.046, 949.808 429.100, 956.420 433.205, 962.036 437.347, 966.673 441.514, 970.350 445.694, 973.087 449.875, 974.909 454.045, 975.842 " fill="none" stroke="rgb(0, 0, 0)" stroke-linecap="butt" stroke-linejoin="round" stroke-opacity="1.0" stroke-width="3.0" />
            <path d=" M 477.982, 197.999 475.576, 198.056 " fill="none" stroke="rgb(0, 0, 0)" stroke-linecap="butt" stroke-linejoin="round" stroke-opacity="1.0" stroke-width="3.0" />
            <path d=" M 556.864, 706.486 557.797, 696.530 558.140, 692.878 558.990, 682.914 559.342, 678.787 560.109, 668.816 560.432, 664.619 561.119, 654.643 561.412, 650.386 562.019, 640.405 562.280, 636.101 562.808, 626.115 563.038, 621.774 563.488, 611.784 563.684, 607.416 564.057, 597.423 564.220, 593.039 564.515, 583.043 564.644, 578.653 564.862, 568.655 564.957, 564.269 565.098, 554.270 565.159, 549.898 565.222, 539.899 565.249, 535.551 565.234, 525.551 565.233, 525.054 " fill="none" stroke="rgb(0, 0, 0)" stroke-linecap="butt" stroke-linejoin="round" stroke-opacity="1.0" stroke-width="3.0" />
            <path d=" M 455.500, 997.331 457.909, 997.523 462.352, 997.334 466.756, 996.248 471.112, 994.300 475.412, 991.527 479.648, 987.963 483.814, 983.646 487.903, 978.610 491.909, 972.891 495.829, 966.524 499.658, 959.542 503.391, 951.980 507.026, 943.868 510.561, 935.240 513.837, 926.532 513.991, 926.124 517.272, 916.677 517.316, 916.550 520.378, 907.030 520.533, 906.546 523.396, 896.965 523.642, 896.140 526.321, 886.505 526.641, 885.356 529.151, 875.677 529.528, 874.221 531.882, 864.502 532.304, 862.757 534.512, 853.004 534.968, 850.987 537.039, 841.204 537.519, 838.934 539.461, 829.124 539.957, 826.617 541.778, 816.784 542.283, 814.056 543.702, 805.852 " fill="none" stroke="rgb(0, 0, 0)" stroke-linecap="butt" stroke-linejoin="round" stroke-opacity="1.0" stroke-width="3.0" />
            <path d=" M 540.792, 263.603 540.335, 261.539 537.990, 251.818 537.813, 251.084 535.270, 241.413 535.166, 241.017 532.393, 231.362 529.494, 222.146 526.471, 213.397 523.323, 205.142 520.053, 197.413 516.661, 190.238 513.149, 183.650 509.520, 177.681 505.776, 172.365 501.920, 167.734 497.957, 163.823 493.890, 160.667 489.726, 158.301 485.469, 156.760 481.125, 156.078 478.966, 156.181 476.704, 156.289 472.211, 157.427 467.657, 159.523 463.051, 162.608 458.404, 166.710 453.728, 171.856 449.034, 178.069 444.338, 185.369 439.652, 193.772 435.255, 202.754 434.992, 203.290 431.012, 212.464 430.375, 213.931 426.762, 223.255 425.817, 225.695 422.532, 235.140 421.335, 238.581 418.344, 248.123 417.624, 250.417 416.948, 252.577 414.222, 262.198 412.673, 267.667 412.092, 269.932 410.658, 275.530 408.530, 283.828 406.270, 293.569 404.538, 301.029 402.483, 310.816 400.716, 319.233 398.853, 329.058 397.082, 338.394 395.398, 348.251 393.714, 358.109 393.654, 358.460 392.140, 368.344 390.626, 378.229 390.452, 379.369 389.099, 389.278 387.746, 399.186 387.490, 401.056 386.736, 407.308 385.537, 417.236 384.787, 423.446 383.737, 433.391 382.686, 443.335 382.356, 446.458 381.449, 456.417 380.543, 466.376 380.212, 470.007 379.445, 479.977 378.678, 489.948 378.366, 493.999 377.736, 503.980 377.105, 513.960 376.829, 518.341 376.333, 528.329 375.838, 538.317 375.609, 542.932 375.247, 552.926 374.885, 562.919 374.713, 567.671 374.484, 577.669 374.255, 587.666 374.146, 592.454 374.050, 602.454 373.955, 612.454 373.910, 617.178 373.949, 627.178 373.987, 637.178 374.005, 641.738 374.180, 651.737 374.355, 661.735 374.430, 666.034 374.744, 676.029 375.058, 686.024 375.182, 689.964 375.638, 699.954 376.094, 709.944 376.253, 713.435 376.856, 723.417 377.459, 733.398 377.638, 736.353 378.393, 746.324 379.148, 756.296 379.325, 758.632 380.239, 768.590 381.154, 778.549 381.305, 780.192 382.386, 790.134 383.467, 800.075 383.563, 800.959 384.821, 810.879 386.088, 820.864 387.534, 830.759 388.862, 839.848 390.510, 849.712 391.871, 857.858 393.737, 867.683 395.098, 874.849 397.201, 884.625 398.525, 890.782 400.888, 900.499 402.135, 905.628 404.785, 915.271 405.910, 919.364 408.880, 928.913 409.832, 931.974 411.499, 936.697 411.797, 937.541 413.882, 943.448 417.618, 952.724 418.045, 953.783 419.202, 956.283 422.302, 962.982 422.536, 963.418 426.637, 971.053 431.034, 978.008 435.477, 983.865 439.953, 988.646 444.446, 992.373 448.945, 995.075 453.436, 996.781 456.499, 997.290 457.909, 997.523 " fill="none" stroke="rgb(0, 0, 0)" stroke-linecap="butt" stroke-linejoin="round" stroke-opacity="1.0" stroke-width="3.0" />
            <path d=" M 362.529, 665.254 362.535, 665.591 362.862, 675.586 363.190, 685.581 363.318, 689.486 363.333, 689.809 " fill="none" stroke="rgb(0, 0, 0)" stroke-linecap="butt" stroke-linejoin="round" stroke-opacity="1.0" stroke-width="3.0" />
            <path d=" M 478.751, 156.147 474.301, 156.359 469.780, 157.497 465.197, 159.594 460.562, 162.679 455.886, 166.781 451.181, 171.926 446.459, 178.138 441.733, 185.436 437.019, 193.837 432.600, 202.807 432.332, 203.352 428.330, 212.517 427.687, 213.990 424.054, 223.307 423.101, 225.751 419.798, 235.189 418.593, 238.632 415.585, 248.169 414.180, 252.623 411.439, 262.240 409.881, 267.708 407.637, 276.409 407.587, 276.604 405.714, 283.864 403.441, 293.602 401.700, 301.059 399.633, 310.843 397.856, 319.256 397.658, 320.292 395.784, 330.115 394.202, 338.411 392.508, 348.266 390.815, 358.122 390.755, 358.469 389.233, 368.352 387.710, 378.235 387.536, 379.371 386.175, 389.278 384.815, 399.185 384.559, 401.049 383.354, 410.976 382.148, 420.903 381.842, 423.430 380.786, 433.374 379.730, 443.318 379.399, 446.433 378.487, 456.392 378.350, 457.889 377.439, 467.847 377.244, 469.972 376.474, 479.943 375.703, 489.913 375.390, 493.956 374.757, 503.936 374.124, 513.916 373.847, 518.288 373.349, 528.276 372.852, 538.263 372.622, 542.870 372.260, 552.863 371.897, 562.856 371.724, 567.599 371.495, 577.596 371.266, 587.594 371.157, 592.372 371.062, 602.372 370.967, 612.371 370.923, 617.086 370.963, 627.086 371.004, 637.086 371.022, 641.637 371.199, 651.635 371.377, 661.634 371.453, 665.923 371.770, 675.918 372.087, 685.913 372.212, 689.845 372.673, 699.834 373.133, 709.824 373.294, 713.306 373.902, 723.288 374.510, 733.269 374.690, 736.216 375.451, 746.187 376.213, 756.158 376.390, 758.488 377.312, 768.445 378.233, 778.403 378.385, 780.040 379.475, 789.981 380.564, 799.921 380.661, 800.800 381.928, 810.719 383.203, 820.699 384.660, 830.592 385.998, 839.677 387.658, 849.538 389.028, 857.681 390.907, 867.503 392.277, 874.667 394.395, 884.441 395.728, 890.597 398.106, 900.310 399.362, 905.439 402.029, 915.077 403.163, 919.172 405.428, 926.406 407.003, 931.435 407.110, 931.779 410.460, 941.201 410.666, 941.782 411.188, 943.251 414.946, 952.518 415.378, 953.584 416.432, 955.848 419.663, 962.782 424.027, 970.853 428.452, 977.808 432.925, 983.666 437.429, 988.447 441.951, 992.176 446.479, 994.879 450.999, 996.587 455.500, 997.331 " fill="none" stroke="rgb(0, 0, 0)" stroke-linecap="butt" stroke-linejoin="round" stroke-opacity="1.0" stroke-width="3.0" />
            <path d=" M 481.125, 156.078 478.751, 156.147 " fill="none" stroke="rgb(0, 0, 0)" stroke-linecap="butt" stroke-linejoin="round" stroke-opacity="1.0" stroke-width="3.0" />
            <path d=" M 544.751, 258.174 542.627, 248.402 542.303, 246.911 540.003, 237.180 539.712, 235.950 537.219, 226.265 536.990, 225.375 534.286, 215.748 534.136, 215.215 531.201, 205.655 531.152, 205.495 528.036, 196.246 524.790, 187.496 521.414, 179.277 517.909, 171.620 514.278, 164.559 510.522, 158.129 506.644, 152.364 502.647, 147.301 498.533, 142.977 494.309, 139.428 489.978, 136.692 485.547, 134.808 481.021, 133.813 476.409, 133.744 471.628, 133.898 466.878, 134.794 462.058, 136.688 457.178, 139.615 452.250, 143.605 447.286, 148.690 442.299, 154.896 437.303, 162.247 432.314, 170.762 427.755, 179.663 427.348, 180.457 423.225, 189.568 422.422, 191.342 418.685, 200.618 417.555, 203.421 414.161, 212.828 412.766, 216.694 409.678, 226.205 408.073, 231.151 405.263, 240.748 403.497, 246.777 400.940, 256.445 399.059, 263.551 396.733, 273.277 394.780, 281.442 392.667, 291.216 390.679, 300.410 388.765, 310.225 386.851, 320.040 386.779, 320.409 385.051, 330.258 383.322, 340.108 383.099, 341.384 381.854, 349.300 380.301, 359.179 379.658, 363.272 378.272, 373.175 376.886, 383.079 376.476, 386.001 375.249, 395.926 374.022, 405.850 373.571, 409.493 372.497, 419.435 371.423, 429.377 370.960, 433.661 370.033, 443.618 369.107, 453.575 368.656, 458.414 367.874, 468.383 367.091, 478.353 366.675, 483.652 366.033, 493.631 365.391, 503.611 365.027, 509.272 364.524, 519.260 364.020, 529.247 363.722, 535.168 363.632, 537.622 363.266, 547.615 362.900, 557.608 362.767, 561.228 362.537, 571.226 362.308, 581.223 362.167, 587.342 362.075, 597.341 361.982, 607.341 361.926, 613.396 361.971, 623.395 362.016, 633.395 362.043, 639.278 362.228, 649.276 362.413, 659.274 362.516, 664.878 362.529, 665.254 362.856, 675.248 363.183, 685.243 363.333, 689.809 363.342, 690.088 363.816, 700.077 364.289, 710.066 364.514, 714.806 365.138, 724.786 365.762, 734.767 365.941, 737.643 366.022, 738.931 366.299, 742.473 367.080, 752.443 367.176, 753.670 367.857, 762.370 368.800, 772.325 369.744, 782.281 370.005, 785.037 371.121, 794.975 372.236, 804.913 372.454, 806.853 373.750, 816.769 375.047, 826.684 375.186, 827.745 376.676, 837.634 378.186, 847.650 379.884, 857.505 381.435, 866.512 383.357, 876.326 384.916, 884.283 385.154, 885.356 387.319, 895.118 388.608, 900.925 391.042, 910.625 392.492, 916.407 395.222, 926.028 396.550, 930.706 399.609, 940.227 400.760, 943.807 404.191, 953.200 405.104, 955.701 408.954, 964.930 409.562, 966.387 413.891, 975.402 414.117, 975.871 418.749, 984.163 423.442, 991.278 428.180, 997.237 432.945, 1002.064 437.725, 1005.787 442.504, 1008.436 447.270, 1010.046 452.011, 1010.649 456.804, 1011.040 461.450, 1010.670 466.051, 1009.367 470.596, 1007.172 475.078, 1004.122 479.489, 1000.256 483.823, 995.613 488.072, 990.231 492.232, 984.148 496.299, 977.401 500.267, 970.027 504.134, 962.059 507.895, 953.532 511.549, 944.480 515.030, 935.105 515.094, 934.933 518.337, 925.474 518.526, 924.923 521.555, 915.392 521.845, 914.478 524.678, 904.887 525.050, 903.626 527.702, 893.984 528.140, 892.395 530.625, 882.709 531.113, 880.809 533.444, 871.085 533.969, 868.894 536.157, 859.136 536.709, 856.673 538.761, 846.886 539.331, 844.167 541.257, 834.354 541.837, 831.397 543.642, 821.562 544.225, 818.385 545.818, 809.099 " fill="none" stroke="rgb(0, 0, 0)" stroke-linecap="butt" stroke-linejoin="round" stroke-opacity="1.0" stroke-width="3.0" />
            <path d=" M 558.863, 710.346 559.140, 707.628 560.067, 697.671 560.485, 693.182 561.329, 683.218 561.716, 678.648 562.479, 668.677 562.834, 664.038 563.516, 654.061 563.837, 649.363 564.440, 639.381 564.727, 634.636 565.252, 624.649 565.504, 619.866 565.951, 609.876 566.167, 605.066 566.538, 595.073 566.717, 590.246 567.011, 580.251 567.153, 575.417 567.370, 565.419 567.475, 560.588 567.616, 550.589 567.684, 545.771 567.748, 535.771 567.779, 530.976 567.765, 520.976 567.764, 520.233 " fill="none" stroke="rgb(0, 0, 0)" stroke-linecap="butt" stroke-linejoin="round" stroke-opacity="1.0" stroke-width="3.0" />
            <path d=" M 476.409, 133.744 471.718, 134.639 466.957, 136.532 462.138, 139.458 457.270, 143.450 452.366, 148.536 447.439, 154.744 442.503, 162.098 437.573, 170.618 433.059, 179.541 432.666, 180.318 428.586, 189.447 427.798, 191.208 424.100, 200.500 422.988, 203.295 419.630, 212.714 418.254, 216.575 416.483, 222.098 413.615, 231.041 410.836, 240.648 409.091, 246.679 406.562, 256.353 404.703, 263.464 402.403, 273.195 400.471, 281.367 398.382, 291.146 398.354, 291.276 396.459, 300.145 396.416, 300.348 394.523, 310.167 392.630, 319.987 392.558, 320.362 390.849, 330.215 389.140, 340.068 388.917, 341.353 387.381, 351.234 385.846, 361.115 385.721, 361.916 385.513, 363.257 384.142, 373.163 382.770, 383.068 382.364, 386.004 381.150, 395.930 379.936, 405.856 379.488, 409.514 378.425, 419.458 377.362, 429.401 376.902, 433.702 375.985, 443.659 375.971, 443.810 375.053, 453.768 374.620, 458.473 373.845, 468.443 373.070, 478.413 372.656, 483.731 372.020, 493.711 371.384, 503.691 371.021, 509.372 370.522, 519.360 370.022, 529.347 369.725, 535.288 369.414, 543.834 369.050, 553.827 368.775, 561.369 368.546, 571.367 368.317, 581.364 368.176, 587.503 368.082, 597.503 367.988, 607.502 367.931, 613.578 367.973, 623.578 368.015, 633.577 368.040, 639.480 368.219, 649.478 368.399, 659.477 368.501, 665.100 368.821, 675.095 369.142, 685.090 369.310, 690.329 369.775, 700.319 370.239, 710.308 370.461, 715.065 371.074, 725.046 371.687, 735.027 371.944, 739.208 372.712, 749.178 373.480, 759.149 373.751, 762.664 374.680, 772.621 375.609, 782.577 375.867, 785.347 376.966, 795.286 378.064, 805.226 378.280, 807.177 379.558, 817.095 380.836, 827.013 380.974, 828.083 382.443, 837.975 383.932, 848.000 385.606, 857.859 387.136, 866.873 389.032, 876.692 390.231, 882.900 390.570, 884.655 392.707, 894.424 393.243, 896.875 394.212, 901.306 396.615, 911.013 398.045, 916.795 398.274, 917.612 399.487, 921.945 402.049, 931.100 405.071, 940.633 405.566, 942.193 406.204, 944.206 409.594, 953.614 410.492, 956.104 414.299, 965.351 414.893, 966.793 417.419, 972.123 419.389, 976.279 423.962, 984.571 428.595, 991.686 433.272, 997.644 437.978, 1002.469 442.697, 1006.190 447.416, 1008.836 452.123, 1010.441 456.804, 1011.040 " fill="none" stroke="rgb(0, 0, 0)" stroke-linecap="butt" stroke-linejoin="round" stroke-opacity="1.0" stroke-width="3.0" />
            <path d=" M 558.472, 346.571 558.387, 345.777 557.807, 340.870 " fill="none" stroke="rgb(0, 0, 0)" stroke-linecap="butt" stroke-linejoin="round" stroke-opacity="1.0" stroke-width="3.0" />
            <path d=" M 482.312, 507.329 482.212, 507.327 481.846, 507.521 481.486, 507.920 481.137, 508.519 480.805, 509.307 480.496, 510.272 480.215, 511.398 479.967, 512.666 479.757, 514.055 479.588, 515.540 479.462, 517.096 479.383, 518.697 479.352, 520.314 479.368, 521.921 479.432, 523.489 481.701, 523.530 " fill="none" stroke="rgb(0, 0, 0)" stroke-linecap="butt" stroke-linejoin="round" stroke-opacity="1.0" stroke-width="3.0" />
            <path d=" M 565.337, 525.056 565.296, 523.471 565.291, 521.847 565.324, 520.212 565.324, 520.190 565.392, 518.593 565.429, 518.037 565.495, 517.019 565.632, 515.517 565.800, 514.112 565.995, 512.829 566.215, 511.690 566.441, 510.768 566.455, 510.712 566.712, 509.914 566.981, 509.307 567.258, 508.902 567.537, 508.705 " fill="none" stroke="rgb(0, 0, 0)" stroke-linecap="butt" stroke-linejoin="round" stroke-opacity="1.0" stroke-width="3.0" />
            <path d=" M 567.983, 520.237 567.958, 519.761 567.919, 519.324 567.867, 518.938 567.804, 518.612 567.762, 518.464 567.732, 518.357 567.652, 518.180 567.567, 518.084 567.479, 518.073 " fill="none" stroke="rgb(0, 0, 0)" stroke-linecap="butt" stroke-linejoin="round" stroke-opacity="1.0" stroke-width="3.0" />
            <path d=" M 529.355, 467.880 529.605, 473.371 530.049, 473.376 535.200, 473.436 535.404, 473.135 535.017, 467.853 529.611, 467.524 529.605, 467.523 529.355, 467.880 " fill="none" stroke="rgb(0, 0, 0)" stroke-linecap="butt" stroke-linejoin="round" stroke-opacity="1.0" stroke-width="3.0" />
            <path d=" M 534.956, 467.941 529.355, 467.880 " fill="none" stroke="rgb(0, 0, 0)" stroke-linecap="butt" stroke-linejoin="round" stroke-opacity="1.0" stroke-width="3.0" />
            <path d=" M 535.200, 473.436 534.956, 467.941 535.017, 467.853 " fill="none" stroke="rgb(0, 0, 0)" stroke-linecap="butt" stroke-linejoin="round" stroke-opacity="1.0" stroke-width="3.0" />
            <path d=" M 531.150, 470.494 531.138, 470.707 531.172, 470.930 531.193, 470.988 531.270, 471.190 531.384, 471.368 531.531, 471.518 531.575, 471.556 531.740, 471.665 531.797, 471.692 531.964, 471.755 532.017, 471.771 532.082, 471.783 532.157, 471.791 532.242, 471.795 532.285, 471.797 532.327, 471.796 532.370, 471.793 532.410, 471.788 532.488, 471.777 532.562, 471.764 532.627, 471.747 532.681, 471.727 532.838, 471.651 532.897, 471.619 533.050, 471.497 533.157, 471.388 " fill="none" stroke="rgb(0, 0, 0)" stroke-linecap="butt" stroke-linejoin="round" stroke-opacity="1.0" stroke-width="3.0" />
            <path d=" M 531.239, 470.191 531.204, 470.287 531.193, 470.328 531.189, 470.344 531.150, 470.494 531.190, 470.337 " fill="none" stroke="rgb(0, 0, 0)" stroke-linecap="butt" stroke-linejoin="round" stroke-opacity="1.0" stroke-width="3.0" />
            <path d=" M 533.157, 471.388 533.247, 471.263 533.317, 471.126 533.367, 470.980 533.394, 470.827 533.398, 470.671 533.380, 470.515 533.339, 470.361 533.276, 470.214 533.194, 470.075 533.092, 469.948 532.974, 469.836 532.842, 469.741 532.699, 469.664 532.546, 469.608 532.389, 469.573 532.229, 469.560 532.070, 469.569 531.915, 469.601 531.768, 469.654 531.631, 469.727 531.508, 469.820 531.400, 469.929 531.310, 470.054 531.239, 470.191 " fill="none" stroke="rgb(0, 0, 0)" stroke-linecap="butt" stroke-linejoin="round" stroke-opacity="1.0" stroke-width="3.0" />
            <path d=" M 632.899, 857.190 635.068, 857.653 642.964, 858.848 650.845, 859.309 658.693, 859.055 666.493, 858.104 674.229, 856.475 681.888, 854.190 689.457, 851.267 696.923, 847.730 704.274, 843.598 711.501, 838.895 718.593, 833.642 725.541, 827.860 732.336, 821.572 738.971, 814.798 745.439, 807.561 751.732, 799.882 757.756, 791.900 757.846, 791.781 763.565, 783.578 763.774, 783.279 769.199, 774.879 769.511, 774.396 774.653, 765.819 775.053, 765.151 779.922, 756.416 780.396, 755.564 785.000, 746.687 785.536, 745.655 789.884, 736.650 790.468, 735.440 794.570, 726.320 795.191, 724.939 799.053, 715.715 799.701, 714.169 803.331, 704.851 803.995, 703.147 807.400, 693.744 808.072, 691.890 811.257, 682.411 811.928, 680.414 814.900, 670.866 815.563, 668.736 818.326, 659.125 818.974, 656.871 821.532, 647.204 822.159, 644.835 824.516, 635.117 825.116, 632.643 827.277, 622.880 827.846, 620.310 829.812, 610.505 830.345, 607.850 832.120, 598.009 832.613, 595.278 834.199, 585.404 834.648, 582.608 836.046, 572.706 836.449, 569.853 837.662, 559.927 838.016, 557.029 839.043, 547.082 839.346, 544.149 840.189, 534.184 840.440, 531.226 841.099, 521.247 841.295, 518.274 841.770, 508.285 841.911, 505.307 842.201, 495.311 842.287, 492.339 842.392, 482.340 842.422, 479.384 842.340, 469.384 842.316, 466.455 842.044, 456.459 841.966, 453.567 841.504, 443.578 841.372, 440.734 840.717, 430.755 840.534, 427.970 839.683, 418.006 839.451, 415.289 838.400, 405.345 838.121, 402.708 836.867, 392.787 836.545, 390.241 835.082, 380.348 834.721, 377.903 833.046, 368.044 832.649, 365.711 830.756, 355.892 830.329, 353.680 828.211, 343.907 827.761, 341.828 825.412, 332.107 824.944, 330.170 822.356, 320.511 821.878, 318.726 819.043, 309.136 818.563, 307.512 815.473, 298.001 815.001, 296.547 811.646, 287.127 811.191, 285.851 807.560, 276.533 807.135, 275.441 803.217, 266.241 802.834, 265.339 798.617, 256.271 798.289, 255.565 793.761, 246.648 793.502, 246.139 788.650, 237.395 788.477, 237.082 783.286, 228.535 783.214, 228.418 777.719, 220.167 771.995, 212.352 766.045, 204.998 759.876, 198.125 753.493, 191.759 746.902, 185.923 740.110, 180.641 733.126, 175.937 725.958, 171.833 718.617, 168.355 711.112, 165.525 703.456, 163.366 695.660, 161.899 687.740, 161.146 679.709, 161.128 671.584, 161.864 669.344, 162.082 " fill="none" stroke="rgb(0, 0, 0)" stroke-linecap="butt" stroke-linejoin="round" stroke-opacity="1.0" stroke-width="3.0" />
            <path d=" M 635.068, 857.653 633.648, 857.303 627.173, 855.709 619.299, 853.000 611.464, 849.514 603.689, 845.239 595.994, 840.165 588.402, 834.285 580.935, 827.596 573.952, 820.438 573.616, 820.094 567.096, 812.511 566.468, 811.781 560.405, 803.828 559.515, 802.660 553.899, 794.386 552.781, 792.740 549.343, 787.067 547.288, 783.676 546.290, 782.030 545.797, 781.120 541.786, 773.719 540.282, 770.943 540.067, 770.546 536.704, 763.606 534.135, 758.305 533.227, 756.205 529.254, 747.028 528.519, 745.329 524.920, 735.999 523.981, 733.565 523.240, 731.644 520.002, 722.183 518.323, 717.279 516.077, 709.846 514.093, 703.278 513.788, 702.268 511.230, 692.601 509.655, 686.649 507.421, 676.902 505.945, 670.463 504.025, 660.649 502.675, 653.753 501.059, 643.885 499.862, 636.570 498.543, 626.657 497.519, 618.963 496.490, 609.016 495.659, 600.988 494.914, 591.016 494.293, 582.701 493.828, 572.712 493.429, 564.161 493.239, 554.163 493.073, 545.430 493.156, 535.431 493.229, 526.571 493.525, 518.202 493.830, 509.576 493.849, 509.038 493.898, 507.646 494.520, 497.666 495.078, 488.721 495.970, 478.761 496.766, 469.859 497.927, 459.927 498.956, 451.126 500.388, 441.229 501.639, 432.583 503.345, 422.730 504.805, 414.294 506.786, 404.492 508.439, 396.319 510.702, 386.578 512.528, 378.716 515.076, 369.046 517.054, 361.541 519.894, 351.952 521.716, 345.800 521.998, 344.847 523.108, 341.488 526.247, 331.993 527.340, 328.685 530.784, 319.297 533.057, 313.101 535.690, 306.611 537.007, 303.364 539.128, 298.138 540.584, 294.882 541.401, 293.055 543.827, 287.632 545.199, 284.565 545.526, 283.835 547.368, 280.095 548.533, 277.729 549.109, 276.560 549.227, 276.320 549.363, 276.044 552.227, 270.229 556.035, 263.201 556.134, 263.020 556.178, 262.939 556.248, 262.808 557.000, 261.420 559.206, 257.350 564.328, 248.761 566.436, 245.226 569.473, 240.603 573.891, 233.880 579.763, 225.786 581.544, 223.332 587.809, 215.538 589.368, 213.597 596.035, 206.144 597.339, 204.687 604.415, 197.621 605.429, 196.609 612.919, 189.983 613.613, 189.369 621.515, 183.241 621.867, 182.967 630.167, 177.402 638.491, 172.669 646.814, 168.759 655.118, 165.664 663.380, 163.370 671.418, 161.894 671.584, 161.864 " fill="none" stroke="rgb(0, 0, 0)" stroke-linecap="butt" stroke-linejoin="round" stroke-opacity="1.0" stroke-width="3.0" />
            <path d=" M 669.344, 162.082 661.130, 163.589 652.857, 165.882 644.543, 168.976 636.209, 172.883 627.876, 177.614 619.566, 183.175 611.659, 189.296 611.303, 189.571 603.807, 196.190 603.110, 196.805 596.026, 203.864 595.011, 204.875 588.337, 212.322 587.033, 213.778 580.761, 221.566 579.200, 223.503 573.320, 231.592 571.540, 234.041 566.042, 242.394 564.079, 245.376 558.950, 253.960 556.842, 257.487 554.478, 261.843 553.739, 263.204 553.667, 263.336 553.650, 263.368 549.858, 270.353 547.905, 274.310 544.695, 280.817 544.524, 281.163 543.151, 283.945 543.138, 283.974 541.685, 287.216 541.629, 287.341 541.457, 287.726 540.176, 290.583 539.339, 292.452 536.748, 298.232 536.484, 298.881 536.196, 299.590 535.835, 300.479 534.879, 302.831 531.114, 312.096 530.674, 313.178 527.225, 322.564 524.953, 328.745 522.109, 337.336 519.608, 344.889 516.764, 354.476 514.662, 361.564 512.110, 371.233 510.134, 378.720 507.868, 388.459 506.043, 396.303 505.510, 398.934 503.526, 408.735 502.408, 414.257 500.700, 424.110 499.242, 432.526 497.808, 442.422 496.559, 451.047 495.397, 460.979 494.370, 469.759 493.478, 479.719 493.249, 482.277 492.683, 488.599 492.134, 497.418 491.506, 507.477 491.505, 507.502 491.433, 509.537 491.179, 516.749 491.104, 518.883 491.000, 521.817 490.839, 526.405 490.757, 536.405 490.686, 545.243 490.878, 555.242 491.045, 563.953 491.513, 573.942 491.913, 582.472 492.661, 592.444 493.283, 600.739 494.316, 610.685 495.147, 618.695 496.471, 628.607 497.496, 636.282 499.116, 646.150 500.315, 653.447 500.507, 654.424 502.433, 664.237 503.591, 670.139 505.831, 679.885 507.308, 686.309 509.872, 695.975 511.447, 701.913 511.568, 702.311 514.467, 711.882 515.450, 715.128 515.989, 716.908 519.235, 726.367 520.914, 731.259 524.521, 740.587 526.201, 744.932 530.181, 754.106 531.826, 757.896 532.729, 759.755 536.218, 766.940 537.766, 770.127 539.826, 773.920 541.329, 776.687 543.998, 781.602 545.379, 783.875 546.884, 786.353 548.943, 789.742 550.498, 792.303 556.123, 800.571 557.242, 802.216 563.313, 810.162 564.205, 811.330 570.732, 818.906 571.363, 819.638 578.353, 826.789 578.692, 827.136 586.170, 833.822 593.772, 839.700 601.477, 844.772 609.263, 849.047 617.108, 852.534 624.994, 855.244 632.899, 857.190 " fill="none" stroke="rgb(0, 0, 0)" stroke-linecap="butt" stroke-linejoin="round" stroke-opacity="1.0" stroke-width="3.0" />
            <path d=" M 770.623, 565.067 770.590, 565.285 768.831, 575.130 768.434, 577.352 766.428, 587.149 765.992, 589.280 763.735, 599.022 763.266, 601.045 760.754, 610.724 760.261, 612.626 757.489, 622.234 756.979, 624.000 753.941, 633.527 753.425, 635.145 750.114, 644.580 749.603, 646.036 746.010, 655.369 745.516, 656.652 741.634, 665.868 741.171, 666.968 736.989, 676.052 736.572, 676.959 732.080, 685.894 731.724, 686.602 726.913, 695.369 726.636, 695.873 721.491, 704.448 721.313, 704.746 715.822, 713.104 715.762, 713.195 709.993, 721.196 704.013, 728.723 697.833, 735.750 691.463, 742.250 684.915, 748.200 678.199, 753.572 671.330, 758.340 664.322, 762.480 657.189, 765.969 649.948, 768.780 642.616, 770.890 635.210, 772.278 627.752, 772.923 622.639, 772.843 " fill="none" stroke="rgb(0, 0, 0)" stroke-linecap="butt" stroke-linejoin="round" stroke-opacity="1.0" stroke-width="3.0" />
            <path d=" M 785.428, 569.298 775.436, 568.902 774.633, 568.871 770.623, 565.067 763.368, 558.186 756.112, 551.305 752.850, 548.211 752.217, 547.609 751.583, 547.007 750.949, 546.404 750.314, 545.801 749.589, 544.964 748.935, 543.903 748.363, 542.637 747.888, 541.191 747.626, 540.062 747.518, 539.592 747.260, 537.871 747.215, 537.287 747.176, 536.782 747.120, 536.061 747.100, 534.196 747.201, 532.314 747.420, 530.449 747.507, 529.974 747.689, 528.988 747.753, 528.640 748.195, 526.919 748.735, 525.322 749.364, 523.878 750.070, 522.614 750.838, 521.555 751.654, 520.721 751.860, 520.577 751.991, 520.485 752.502, 520.127 753.363, 519.784 754.089, 519.604 754.815, 519.423 755.539, 519.242 756.262, 519.062 756.625, 518.971 766.330, 516.559 776.034, 514.146 781.130, 512.879 " fill="none" stroke="rgb(0, 0, 0)" stroke-linecap="butt" stroke-linejoin="round" stroke-opacity="1.0" stroke-width="3.0" />
            <path d=" M 682.803, 229.237 680.888, 229.318 675.476, 229.548 674.447, 229.592 666.023, 230.758 657.556, 232.740 655.372, 233.467 649.073, 235.565 640.603, 239.257 632.179, 243.829 623.831, 249.285 615.902, 255.378 615.590, 255.617 608.109, 262.252 607.484, 262.806 600.447, 269.912 599.538, 270.829 592.950, 278.352 591.787, 279.680 585.652, 287.577 584.270, 289.356 578.586, 297.583 577.024, 299.843 571.782, 308.358 570.085, 311.114 565.271, 319.879 563.483, 323.134 559.081, 332.113 557.245, 335.857 557.221, 335.911 556.788, 336.900 556.264, 338.096 554.344, 342.482 554.320, 342.535 552.882, 345.819 552.788, 346.034 551.389, 349.229 549.993, 352.810 548.576, 356.443 546.918, 360.696 545.941, 363.202 545.502, 364.475 542.246, 373.930 540.935, 377.737 539.915, 381.128 538.543, 385.686 536.405, 392.787 534.159, 401.435 532.378, 408.296 530.225, 418.061 528.872, 424.199 527.072, 434.035 526.779, 435.640 525.902, 440.429 524.443, 450.322 523.471, 456.915 522.345, 466.852 521.571, 473.675 520.758, 483.642 520.194, 490.553 519.735, 499.725 519.523, 503.944 519.522, 503.967 519.346, 507.478 519.164, 517.229 519.153, 517.831 519.059, 522.858 519.048, 523.444 519.031, 524.376 519.137, 532.599 519.139, 532.746 519.248, 541.176 519.697, 551.165 519.995, 557.804 520.766, 567.775 521.263, 574.193 522.366, 584.132 523.047, 590.274 523.987, 596.733 525.333, 605.981 526.080, 610.094 527.866, 619.934 528.106, 621.253 530.249, 631.021 531.349, 636.032 533.013, 642.436 535.045, 650.262 537.943, 659.833 539.172, 663.893 542.011, 672.028 542.173, 672.491 542.975, 674.790 543.519, 676.347 543.705, 676.880 545.545, 681.483 548.622, 689.181 549.669, 691.479 550.794, 693.949 551.232, 694.910 552.291, 697.235 553.897, 700.758 555.325, 703.516 555.850, 704.529 556.864, 706.486 558.863, 710.346 559.502, 711.580 564.573, 720.199 565.410, 721.621 570.973, 729.931 571.593, 730.857 577.666, 738.802 578.024, 739.270 584.673, 746.847 591.512, 753.581 598.513, 759.463 605.650, 764.495 612.893, 768.679 620.219, 772.021 622.639, 772.843 627.600, 774.528 635.014, 776.213 642.435, 777.092 649.842, 777.178 657.214, 776.491 664.531, 775.051 671.772, 772.881 678.921, 770.001 685.961, 766.437 692.874, 762.213 699.648, 757.354 706.268, 751.886 712.722, 745.835 718.998, 739.228 725.084, 732.091 730.971, 724.449 736.650, 716.330 742.026, 707.898 742.113, 707.761 747.145, 699.119 747.351, 698.765 752.053, 689.940 752.357, 689.370 756.744, 680.383 757.126, 679.600 761.208, 670.471 761.651, 669.481 765.439, 660.227 765.926, 659.037 769.431, 649.671 769.947, 648.292 773.178, 638.829 773.710, 637.272 776.675, 627.721 777.210, 625.998 779.916, 616.371 780.443, 614.494 782.897, 604.799 783.407, 602.784 785.614, 593.030 786.098, 590.890 788.063, 581.084 788.513, 578.834 790.240, 568.984 790.651, 566.639 792.142, 556.750 792.507, 554.326 793.767, 544.406 794.083, 541.918 " fill="none" stroke="rgb(0, 0, 0)" stroke-linecap="butt" stroke-linejoin="round" stroke-opacity="1.0" stroke-width="3.0" />
            <path d=" M 781.130, 512.879 791.105, 513.587 791.850, 513.640 " fill="none" stroke="rgb(0, 0, 0)" stroke-linecap="butt" stroke-linejoin="round" stroke-opacity="1.0" stroke-width="3.0" />
            <path d=" M 825.267, 528.524 825.594, 524.139 826.030, 518.277 826.178, 515.226 826.214, 514.491 826.646, 505.583 826.660, 504.924 826.884, 494.927 826.929, 492.882 826.890, 482.882 826.880, 480.195 826.578, 470.200 826.498, 467.547 825.935, 457.563 825.789, 454.959 824.967, 444.992 824.758, 442.450 823.673, 432.509 823.404, 430.045 823.212, 428.651 821.852, 418.744 821.718, 417.769 820.075, 407.905 819.699, 405.651 817.763, 395.840 817.344, 393.716 815.111, 383.968 814.657, 381.989 812.121, 372.316 811.643, 370.492 808.802, 360.904 808.311, 359.244 805.159, 349.753 804.664, 348.264 801.185, 338.889 800.702, 337.587 796.878, 328.347 796.423, 327.246 792.238, 318.163 791.828, 317.272 787.270, 308.371 786.923, 307.694 781.982, 299.000 781.717, 298.534 776.385, 290.075 776.220, 289.813 770.443, 281.545 764.390, 273.766 758.068, 266.517 751.484, 259.833 744.649, 253.746 737.578, 248.279 730.285, 243.451 722.788, 239.273 721.235, 238.565 715.101, 235.769 707.239, 232.982 699.222, 230.947 691.069, 229.692 682.803, 229.237 " fill="none" stroke="rgb(0, 0, 0)" stroke-linecap="butt" stroke-linejoin="round" stroke-opacity="1.0" stroke-width="3.0" />
            <path d=" M 655.372, 233.467 657.927, 234.296 664.302, 237.155 670.509, 240.715 676.538, 244.935 682.377, 249.789 688.012, 255.263 693.434, 261.340 698.630, 267.994 703.595, 275.194 708.322, 282.903 712.810, 291.082 717.055, 299.696 721.050, 308.728 724.734, 318.024 724.787, 318.159 728.126, 327.585 728.261, 327.967 731.273, 337.503 731.469, 338.125 734.172, 347.752 734.411, 348.601 736.824, 358.305 737.087, 359.362 739.230, 369.130 739.504, 370.378 741.383, 380.200 741.656, 381.627 743.276, 391.495 743.538, 393.093 744.905, 402.999 745.148, 404.755 746.268, 414.692 746.482, 416.589 747.365, 426.550 747.544, 428.571 748.198, 438.550 748.337, 440.675 748.771, 450.665 748.867, 452.874 749.088, 462.872 749.138, 465.149 749.143, 475.149 749.144, 477.479 748.934, 487.477 748.884, 489.846 748.457, 499.837 748.355, 502.227 747.715, 512.207 747.562, 514.601 747.029, 520.827 746.780, 521.993 746.478, 523.113 746.128, 524.174 745.732, 525.166 745.294, 526.078 744.819, 526.901 744.312, 527.625 744.116, 527.853 " fill="none" stroke="rgb(0, 0, 0)" stroke-linecap="butt" stroke-linejoin="round" stroke-opacity="1.0" stroke-width="3.0" />
            <path d=" M 719.083, 530.693 719.083, 530.874 719.040, 531.424 725.304, 533.296 734.885, 536.160 744.466, 539.023 745.196, 539.242 747.626, 540.062 " fill="none" stroke="rgb(0, 0, 0)" stroke-linecap="butt" stroke-linejoin="round" stroke-opacity="1.0" stroke-width="3.0" />
            <path d=" M 803.192, 536.855 812.704, 539.940 813.014, 540.041 822.042, 542.969 823.826, 543.547 823.936, 543.579 829.784, 545.266 " fill="none" stroke="rgb(0, 0, 0)" stroke-linecap="butt" stroke-linejoin="round" stroke-opacity="1.0" stroke-width="3.0" />
            <path d=" M 799.340, 543.570 800.078, 543.611 810.062, 544.167 812.167, 544.284 814.098, 544.392 821.849, 544.824 823.795, 544.932 829.784, 545.266 830.780, 535.316 831.104, 532.074 831.844, 522.102 832.087, 518.827 832.571, 508.839 832.731, 505.548 832.959, 495.550 833.034, 492.259 833.004, 482.259 832.995, 478.983 832.707, 468.987 832.613, 465.745 832.064, 455.760 831.889, 452.567 831.075, 442.600 830.820, 439.474 829.739, 429.532 829.407, 426.488 828.053, 416.580 827.651, 413.635 826.019, 403.769 825.551, 400.938 823.635, 391.123 823.108, 388.423 820.901, 378.670 820.323, 376.116 817.817, 366.435 817.197, 364.041 814.384, 354.445 813.733, 352.225 813.283, 350.859 810.152, 341.362 809.933, 340.695 806.474, 331.312 805.798, 329.478 805.637, 329.085 801.840, 319.834 801.334, 318.601 797.186, 309.502 796.544, 308.093 792.032, 299.169 791.432, 297.983 786.543, 289.259 786.004, 288.298 780.724, 279.805 780.266, 279.068 776.557, 273.700 774.225, 270.325 769.861, 264.657 767.890, 262.097 761.361, 254.522 761.268, 254.414 754.371, 247.306 747.209, 240.805 739.795, 234.940 732.142, 229.740 724.266, 225.236 716.182, 221.457 707.909, 218.428 699.466, 216.177 690.873, 214.731 682.154, 214.113 673.331, 214.344 663.336, 214.631 658.063, 214.782 " fill="none" stroke="rgb(0, 0, 0)" stroke-linecap="butt" stroke-linejoin="round" stroke-opacity="1.0" stroke-width="3.0" />
            <path d=" M 673.331, 214.344 669.126, 214.863 664.431, 215.443 660.082, 216.409 655.480, 217.431 646.506, 220.319 637.539, 224.119 628.610, 228.840 620.178, 234.216 619.752, 234.488 611.754, 240.491 610.997, 241.059 603.450, 247.620 602.379, 248.551 595.292, 255.606 593.935, 256.957 587.307, 264.445 585.698, 266.263 579.524, 274.130 577.704, 276.450 571.977, 284.647 569.988, 287.494 564.699, 295.981 562.588, 299.369 557.725, 308.107 555.536, 312.039 554.397, 314.333 551.728, 319.706 551.318, 320.531 551.081, 321.008 549.846, 323.494 548.867, 325.466 544.822, 334.611 543.470, 337.669 542.613, 339.605 542.059, 341.017 538.408, 350.327 536.807, 354.409 533.539, 363.859 531.477, 369.821 529.983, 374.762 527.088, 384.334 526.650, 385.785 524.122, 395.460 522.352, 402.238 520.185, 412.000 518.606, 419.113 516.792, 428.947 515.429, 436.341 513.967, 446.233 512.840, 453.849 " fill="none" stroke="rgb(0, 0, 0)" stroke-linecap="butt" stroke-linejoin="round" stroke-opacity="1.0" stroke-width="3.0" />
            <path d=" M 812.038, 530.871 812.140, 530.738 812.586, 530.041 813.009, 529.264 813.404, 528.411 813.658, 527.768 813.768, 527.490 814.099, 526.507 814.393, 525.469 823.375, 527.993 825.267, 528.524 825.041, 529.119 824.649, 529.976 824.230, 530.757 823.787, 531.457 823.325, 532.070 823.001, 532.422 822.845, 532.591 822.352, 533.015 821.851, 533.337 821.343, 533.556 820.835, 533.666 820.330, 533.668 819.832, 533.558 815.253, 531.979 813.887, 531.508 813.368, 531.329 812.038, 530.871 807.641, 529.355 807.281, 527.878 806.824, 526.542 806.278, 525.369 805.651, 524.378 804.954, 523.587 804.199, 523.009 803.397, 522.655 802.563, 522.531 798.103, 522.270 797.927, 522.260 791.243, 521.868 790.691, 521.836 789.831, 521.943 789.003, 522.283 788.223, 522.852 787.470, 523.636 787.000, 524.288 786.756, 524.625 786.094, 525.802 785.495, 527.146 784.970, 528.636 784.526, 530.245 784.174, 531.946 783.917, 533.711 788.026, 535.027 788.390, 535.144 790.053, 535.250 791.389, 535.336 798.826, 535.814 799.359, 535.848 800.268, 535.906 800.353, 535.347 800.475, 534.816 800.632, 534.328 800.819, 533.897 801.031, 533.533 801.262, 533.248 801.505, 533.048 801.755, 532.939 802.004, 532.924 " fill="none" stroke="rgb(0, 0, 0)" stroke-linecap="butt" stroke-linejoin="round" stroke-opacity="1.0" stroke-width="3.0" />
            <path d=" M 790.053, 535.250 789.391, 541.662 788.129, 551.582 787.816, 554.040 786.270, 563.919 785.428, 569.298 778.220, 562.366 775.999, 560.231 771.960, 556.347 764.752, 549.416 764.347, 549.025 763.720, 548.422 763.093, 547.818 762.464, 547.212 761.836, 546.606 761.118, 545.766 760.471, 544.701 759.905, 543.429 759.435, 541.976 759.291, 541.340 759.071, 540.370 758.817, 538.641 758.695, 537.025 758.680, 536.822 758.662, 534.948 758.763, 533.057 758.982, 531.183 759.157, 530.227 759.315, 529.364 759.754, 527.635 760.292, 526.029 760.917, 524.578 761.617, 523.307 762.380, 522.243 763.189, 521.404 764.030, 520.807 764.885, 520.461 765.604, 520.279 766.323, 520.097 767.042, 519.915 767.758, 519.733 768.119, 519.642 777.813, 517.190 780.869, 516.417 790.564, 513.965 791.850, 513.640 791.243, 521.868 " fill="none" stroke="rgb(0, 0, 0)" stroke-linecap="butt" stroke-linejoin="round" stroke-opacity="1.0" stroke-width="3.0" />
            <path d=" M 511.306, 435.756 512.151, 445.720 512.840, 453.849 511.710, 463.785 510.814, 471.663 510.000, 481.630 509.348, 489.605 508.850, 499.592 508.671, 503.173 508.450, 507.596 508.268, 517.594 508.123, 525.558 508.260, 535.557 508.367, 543.413 508.826, 553.402 509.178, 561.083 509.963, 571.052 510.549, 578.493 511.667, 588.430 512.470, 595.570 513.929, 605.463 514.929, 612.242 516.738, 622.078 517.909, 628.446 520.078, 638.208 521.391, 644.116 521.808, 645.702 524.352, 655.373 525.356, 659.195 528.287, 668.756 529.780, 673.628 533.113, 683.056 534.637, 687.367 538.391, 696.636 539.806, 700.131 539.902, 700.368 543.298, 707.722 545.546, 712.590 547.269, 715.871 548.839, 718.859 551.540, 724.002 552.948, 726.360 554.491, 728.944 556.530, 732.358 557.855, 734.576 563.479, 742.845 564.459, 744.287 570.597, 752.182 571.324, 753.116 577.987, 760.572 578.416, 761.052 585.613, 767.996 585.707, 768.086 593.165, 774.213 600.763, 779.432 608.469, 783.749 616.256, 787.171 624.098, 789.707 631.968, 791.372 639.841, 792.183 647.693, 792.157 655.502, 791.315 663.246, 789.681 670.905, 787.278 678.461, 784.130 685.895, 780.265 693.191, 775.710 700.334, 770.492 707.310, 764.638 714.105, 758.177 720.709, 751.140 727.108, 743.552 733.173, 735.601 733.294, 735.442 738.991, 727.224 739.257, 726.839 744.601, 718.387 744.989, 717.772 749.992, 709.113 750.482, 708.265 755.159, 699.426 755.729, 698.348 760.092, 689.350 760.724, 688.047 764.785, 678.909 765.460, 677.388 769.230, 668.126 769.933, 666.396 773.421, 657.024 774.138, 655.098 777.354, 645.629 778.071, 643.518 781.023, 633.963 781.728, 631.680 784.422, 622.050 785.105, 619.608 787.548, 609.911 788.200, 607.327 790.398, 597.571 791.009, 594.858 792.966, 585.052 793.529, 582.226 795.249, 572.375 795.759, 569.452 797.246, 559.563 797.697, 556.560 798.952, 546.639 799.340, 543.570 794.083, 541.918 799.250, 542.201 809.235, 542.748 812.717, 542.939 812.316, 542.810 802.793, 539.759 799.628, 538.744 799.007, 538.546 791.343, 536.090 791.388, 535.523 791.389, 535.336 " fill="none" stroke="rgb(0, 0, 0)" stroke-linecap="butt" stroke-linejoin="round" stroke-opacity="1.0" stroke-width="3.0" />
            <path d=" M 764.688, 537.421 764.373, 537.324 764.083, 537.083 763.828, 536.706 763.621, 536.211 763.471, 535.619 763.385, 534.958 763.365, 534.255 763.415, 533.541 763.530, 532.848 763.706, 532.206 763.935, 531.644 764.207, 531.185 764.511, 530.850 764.832, 530.654 765.157, 530.605 " fill="none" stroke="rgb(0, 0, 0)" stroke-linecap="butt" stroke-linejoin="round" stroke-opacity="1.0" stroke-width="3.0" />
            <path d=" M 765.157, 530.605 765.470, 530.706 765.760, 530.950 766.014, 531.328 766.219, 531.823 766.368, 532.412 766.454, 533.071 766.473, 533.772 766.424, 534.483 766.310, 535.174 766.135, 535.814 765.906, 536.376 765.635, 536.835 765.333, 537.171 765.012, 537.369 764.688, 537.421 " fill="none" stroke="rgb(0, 0, 0)" stroke-linecap="butt" stroke-linejoin="round" stroke-opacity="1.0" stroke-width="3.0" />
            <path d=" M 503.416, 471.204 502.600, 481.171 501.900, 489.727 501.401, 499.714 501.029, 507.171 500.973, 508.300 500.792, 518.298 500.638, 526.841 500.778, 536.840 500.896, 545.268 501.359, 555.257 501.741, 563.499 502.533, 573.468 503.167, 581.457 504.295, 591.393 505.165, 599.063 506.635, 608.954 507.719, 616.245 509.542, 626.077 510.812, 632.934 512.998, 642.692 514.426, 649.064 516.988, 658.730 518.538, 664.573 520.074, 669.542 523.027, 679.096 523.123, 679.407 526.482, 688.826 528.155, 693.516 531.938, 702.773 533.606, 706.855 537.832, 715.918 538.139, 716.575 539.448, 719.382 541.682, 723.593 545.586, 730.949 545.648, 731.065 547.175, 733.596 551.313, 740.450 552.175, 741.878 552.862, 742.875 554.943, 745.899 558.999, 751.794 565.185, 759.651 566.087, 760.796 572.802, 768.207 573.407, 768.875 580.656, 775.764 580.927, 776.021 588.616, 782.231 596.444, 787.505 604.380, 791.852 612.396, 795.279 620.464, 797.796 628.557, 799.421 636.649, 800.172 644.717, 800.067 652.737, 799.129 660.688, 797.382 668.549, 794.852 676.302, 791.564 683.928, 787.545 691.411, 782.825 698.735, 777.431 705.887, 771.392 712.853, 764.737 719.620, 757.496 726.057, 749.843 726.179, 749.697 732.236, 741.740 732.519, 741.369 738.210, 733.147 738.630, 732.541 743.970, 724.086 744.504, 723.241 749.505, 714.582 750.132, 713.496 754.809, 704.657 755.509, 703.334 759.874, 694.337 760.628, 692.783 764.692, 683.646 765.483, 681.868 769.256, 672.607 770.067, 670.616 773.560, 661.245 774.377, 659.052 777.598, 649.584 778.409, 647.201 781.365, 637.648 782.157, 635.089 784.856, 625.460 785.619, 622.738 788.067, 613.042 788.791, 610.174 790.993, 600.419 791.670, 597.419 793.630, 587.613 794.253, 584.498 795.975, 574.647 796.538, 571.431 798.025, 561.543 798.522, 558.244 799.777, 548.323 800.202, 544.958 800.078, 543.611 " fill="none" stroke="rgb(0, 0, 0)" stroke-linecap="butt" stroke-linejoin="round" stroke-opacity="1.0" stroke-width="3.0" />
            <path d=" M 658.063, 214.782 656.599, 214.971 649.963, 215.827 641.800, 217.760 633.599, 220.594 625.388, 224.341 617.194, 229.012 609.048, 234.612 601.275, 240.902 600.980, 241.141 593.682, 247.976 593.022, 248.594 586.198, 255.904 585.206, 256.967 578.848, 264.686 577.564, 266.244 571.661, 274.316 570.131, 276.408 564.668, 284.784 562.940, 287.434 557.903, 296.073 556.024, 299.296 553.049, 304.996 549.857, 311.112 549.416, 311.957 549.224, 312.367 548.545, 313.821 548.417, 314.097 544.185, 323.157 543.148, 325.379 541.895, 328.383 540.515, 331.692 537.251, 339.517 533.772, 348.893 531.757, 354.322 528.636, 363.823 528.206, 365.131 526.692, 369.739 523.919, 379.346 522.082, 385.707 519.649, 395.407 517.954, 402.166 515.854, 411.943 514.327, 419.048 512.548, 428.888 511.306, 435.756 508.091, 445.225 505.514, 452.815 " fill="none" stroke="rgb(0, 0, 0)" stroke-linecap="butt" stroke-linejoin="round" stroke-opacity="1.0" stroke-width="3.0" />
            <path d=" M 505.514, 452.815 504.380, 462.750 503.416, 471.204 " fill="none" stroke="rgb(0, 0, 0)" stroke-linecap="butt" stroke-linejoin="round" stroke-opacity="1.0" stroke-width="3.0" />
            <path d=" M 813.283, 350.859 812.902, 349.151 810.487, 339.447 810.184, 338.229 807.524, 328.589 807.228, 327.518 804.315, 317.952 804.036, 317.034 800.863, 307.551 800.610, 306.794 797.168, 297.405 796.951, 296.813 793.230, 287.531 793.061, 287.109 789.049, 277.950 788.941, 277.703 784.592, 268.614 780.017, 259.864 775.217, 251.476 770.195, 243.469 764.957, 235.861 759.507, 228.671 753.851, 221.918 747.993, 215.624 741.939, 209.811 735.695, 204.502 729.269, 199.721 722.668, 195.495 715.902, 191.840 708.980, 188.774 701.914, 186.316 694.714, 184.483 687.393, 183.295 679.964, 182.772 672.441, 182.933 670.829, 183.117 664.840, 183.800 657.176, 185.388 649.467, 187.707 641.731, 190.765 633.985, 194.568 626.248, 199.125 618.542, 204.440 610.888, 210.519 603.466, 217.221 603.308, 217.364 599.200, 221.545 595.826, 224.978 589.739, 231.904 588.465, 233.353 582.260, 241.196 581.247, 242.477 575.429, 250.610 574.195, 252.335 568.751, 260.723 567.332, 262.910 567.239, 263.069 562.158, 271.682 560.681, 274.185 555.953, 282.996 554.267, 286.138 551.108, 292.609 548.113, 298.745 547.883, 299.263 546.496, 302.392 545.942, 303.641 545.217, 305.275 542.245, 311.979 539.935, 317.726 538.595, 321.059 536.685, 325.810 533.266, 335.208 531.451, 340.196 528.335, 349.698 526.564, 355.097 526.343, 355.847 523.522, 365.441 522.042, 370.472 519.510, 380.146 517.905, 386.278 515.658, 396.022 514.171, 402.466 512.201, 412.270 510.852, 418.987 509.157, 428.842 507.963, 435.787 506.539, 445.686 505.514, 452.815 504.360, 462.748 503.516, 470.013 503.416, 471.204 502.527, 481.165 501.977, 487.327 501.358, 497.308 500.900, 504.699 500.801, 507.506 500.450, 517.500 500.289, 522.071 500.207, 532.071 500.147, 539.388 500.336, 549.386 500.473, 556.592 500.934, 566.581 501.260, 573.628 501.998, 583.601 502.505, 590.442 503.524, 600.390 504.200, 606.981 505.509, 616.895 506.340, 623.191 507.945, 633.062 508.915, 639.025 510.821, 648.842 511.908, 654.437 514.124, 664.188 515.305, 669.384 517.839, 679.058 518.886, 683.056 519.088, 683.828 521.951, 693.410 523.242, 697.731 526.445, 707.204 527.748, 711.057 531.307, 720.402 532.590, 723.774 536.325, 732.514 537.751, 735.850 539.790, 740.114 543.209, 747.262 543.503, 747.812 545.028, 750.667 548.941, 757.990 549.062, 758.192 550.584, 760.744 552.623, 764.162 554.924, 768.020 560.471, 776.341 561.137, 777.339 567.120, 785.351 567.556, 785.936 573.987, 793.594 574.162, 793.802 580.933, 800.931 587.849, 807.316 594.892, 812.953 602.039, 817.847 609.269, 822.007 616.562, 825.441 623.900, 828.161 630.752, 830.038 631.264, 830.178 638.638, 831.501 646.005, 832.142 653.350, 832.111 660.660, 831.423 667.917, 830.097 675.110, 828.153 682.225, 825.612 689.251, 822.495 696.175, 818.818 702.989, 814.602 709.682, 809.861 716.245, 804.613 722.669, 798.876 728.946, 792.673 735.070, 786.027 741.034, 778.958 746.832, 771.486 752.458, 763.629 757.908, 755.405 763.174, 746.829 768.126, 738.141 768.253, 737.918 772.933, 729.081 773.140, 728.690 777.560, 719.719 777.833, 719.165 782.001, 710.075 782.328, 709.361 786.252, 700.164 786.622, 699.297 790.311, 690.002 790.713, 688.988 794.172, 679.606 794.598, 678.450 797.833, 668.988 798.274, 667.698 801.289, 658.163 801.738, 656.745 804.538, 647.145 804.986, 645.608 807.578, 635.949 808.020, 634.302 810.408, 624.591 810.837, 622.844 813.024, 613.086 813.436, 611.247 815.425, 601.447 815.815, 599.526 817.608, 589.688 817.971, 587.693 819.571, 577.822 819.905, 575.765 821.313, 565.864 821.614, 563.753 822.833, 553.828 823.097, 551.673 823.795, 544.932 " fill="none" stroke="rgb(0, 0, 0)" stroke-linecap="butt" stroke-linejoin="round" stroke-opacity="1.0" stroke-width="3.0" />
            <path d=" M 670.199, 183.131 662.587, 183.998 654.914, 185.586 647.195, 187.904 639.449, 190.960 631.693, 194.761 623.948, 199.315 616.233, 204.626 608.570, 210.700 601.142, 217.395 600.982, 217.539 593.966, 224.665 593.492, 225.146 593.422, 225.225 586.813, 232.730 586.123, 233.513 583.598, 236.699 578.899, 242.628 573.073, 250.756 571.840, 252.476 568.048, 258.309 568.022, 258.348 564.971, 263.041 559.883, 271.650 558.314, 274.304 557.390, 276.023 552.654, 284.831 551.895, 286.244 550.511, 289.073 547.271, 295.699 545.843, 298.619 545.736, 298.837 544.844, 300.845 544.097, 302.527 540.037, 311.666 539.863, 312.058 539.165, 313.791 537.824, 317.122 534.300, 325.873 530.876, 335.269 529.063, 340.243 525.941, 349.743 525.394, 351.410 524.172, 355.128 521.347, 364.720 519.648, 370.485 517.113, 380.159 515.510, 386.273 513.259, 396.016 511.774, 402.443 509.802, 412.247 508.454, 418.945 506.757, 428.800 505.564, 435.726 504.139, 445.624 503.116, 452.734 501.961, 462.667 501.119, 469.913 500.233, 479.873 499.581, 487.207 498.962, 497.188 498.505, 504.559 498.272, 511.224 497.921, 521.218 497.897, 521.912 497.817, 531.911 497.758, 539.209 497.949, 549.207 498.086, 556.393 498.551, 566.382 498.877, 573.410 499.619, 583.383 500.126, 590.205 501.149, 600.153 501.825, 606.726 503.139, 616.639 503.971, 622.919 505.581, 632.789 506.551, 638.736 508.463, 648.551 509.550, 654.131 511.772, 663.882 512.952, 669.064 515.493, 678.736 516.742, 683.493 518.332, 688.801 520.902, 697.382 524.113, 706.852 525.416, 710.695 528.982, 720.037 530.266, 723.400 534.203, 732.592 535.434, 735.466 535.859, 736.352 539.361, 743.657 540.900, 746.867 543.083, 750.944 544.612, 753.798 546.641, 757.586 548.691, 761.017 550.201, 763.542 552.236, 766.945 552.633, 767.608 558.188, 775.923 558.854, 776.920 564.845, 784.926 565.282, 785.511 571.721, 793.162 571.897, 793.372 578.678, 800.496 585.604, 806.878 592.656, 812.512 599.813, 817.405 607.053, 821.564 614.356, 824.999 621.704, 827.719 629.078, 829.737 " fill="none" stroke="rgb(0, 0, 0)" stroke-linecap="butt" stroke-linejoin="round" stroke-opacity="1.0" stroke-width="3.0" />
            <path d=" M 672.441, 182.933 670.199, 183.131 " fill="none" stroke="rgb(0, 0, 0)" stroke-linecap="butt" stroke-linejoin="round" stroke-opacity="1.0" stroke-width="3.0" />
            <path d=" M 629.078, 829.737 631.264, 830.178 " fill="none" stroke="rgb(0, 0, 0)" stroke-linecap="butt" stroke-linejoin="round" stroke-opacity="1.0" stroke-width="3.0" />
            <path d=" M 487.537, 449.572 486.371, 459.503 486.069, 462.080 485.225, 469.272 484.332, 479.232 483.447, 489.108 482.825, 499.089 482.312, 507.329 482.312, 507.331 482.208, 509.011 481.932, 516.896 481.802, 520.633 481.701, 523.530 481.513, 528.912 481.437, 538.912 481.363, 548.741 481.563, 558.739 481.756, 568.431 482.235, 578.420 482.690, 587.914 483.451, 597.885 484.156, 607.124 485.204, 617.069 486.146, 625.999 487.488, 635.909 488.648, 644.478 490.290, 654.342 491.648, 662.501 493.599, 672.309 495.132, 680.016 497.400, 689.755 499.080, 696.970 501.675, 706.627 503.473, 713.317 506.407, 722.876 508.291, 729.012 511.576, 738.457 512.137, 740.069 513.510, 744.017 513.855, 744.895 517.504, 754.205 519.109, 758.297 520.831, 762.212 524.860, 771.364 525.061, 771.821 529.191, 780.200 529.489, 780.804 529.811, 781.458 530.652, 783.164 531.342, 784.563 533.015, 787.596 536.589, 794.074 537.757, 796.191 537.927, 796.500 538.087, 796.759 539.244, 798.632 542.219, 803.450 542.864, 804.495 543.702, 805.852 544.790, 807.613 545.818, 809.099 551.510, 817.321 551.904, 817.890 558.046, 825.781 559.243, 827.320 565.846, 834.830 566.783, 835.895 573.852, 842.969 574.497, 843.614 582.031, 850.189 582.360, 850.476 590.349, 856.485 598.439, 861.647 606.607, 865.970 614.832, 869.466 623.091, 872.148 631.366, 874.031 635.677, 874.985 643.925, 876.079 652.149, 876.408 660.334, 875.991 668.462, 874.848 676.518, 873.002 684.487, 870.474 692.358, 867.286 700.116, 863.462 707.750, 859.025 715.249, 853.998 722.604, 848.405 729.806, 842.269 736.845, 835.612 743.714, 828.459 750.309, 820.942 750.407, 820.831 756.680, 813.043 756.916, 812.750 762.877, 804.721 763.235, 804.239 768.896, 795.995 769.360, 795.319 774.730, 786.883 775.285, 786.011 780.375, 777.403 781.006, 776.335 785.826, 767.573 786.519, 766.311 791.078, 757.411 791.821, 755.960 796.127, 746.935 796.907, 745.299 800.970, 736.162 801.776, 734.349 805.602, 725.110 806.424, 723.125 810.021, 713.795 810.849, 711.648 814.223, 702.234 815.049, 699.933 818.206, 690.444 819.021, 687.997 821.967, 678.441 822.764, 675.857 825.504, 666.240 826.276, 663.529 828.814, 653.856 829.556, 651.028 831.896, 641.306 832.602, 638.370 834.747, 628.603 835.413, 625.570 837.366, 615.763 837.988, 612.643 839.752, 602.799 840.325, 599.602 841.901, 589.727 842.423, 586.463 843.814, 576.560 844.280, 573.239 845.488, 563.312 845.897, 559.944 846.922, 549.997 847.272, 546.593 848.114, 536.629 848.404, 533.199 849.064, 523.221 849.292, 519.776 849.769, 509.788 849.934, 506.338 850.229, 496.342 850.330, 492.898 850.441, 482.899 850.480, 479.470 850.406, 469.471 850.380, 466.069 850.120, 456.073 850.032, 452.708 849.583, 442.718 849.434, 439.402 848.794, 429.423 848.585, 426.165 847.750, 416.200 847.483, 413.013 846.451, 403.066 846.129, 399.959 844.896, 390.035 844.521, 387.019 843.082, 377.124 842.659, 374.210 841.010, 364.347 840.541, 361.547 838.676, 351.722 838.168, 349.046 836.081, 339.267 835.539, 336.725 833.223, 326.997 832.653, 324.601 830.101, 314.932 829.510, 312.692 826.714, 303.090 826.110, 301.015 823.061, 291.491 822.453, 289.591 819.143, 280.154 818.540, 278.437 814.957, 269.101 814.372, 267.576 810.505, 258.353 809.948, 257.026 805.786, 247.933 805.272, 246.809 800.802, 237.863 800.343, 236.946 795.552, 228.169 795.165, 227.461 790.039, 218.875 789.740, 218.375 784.264, 210.007 784.071, 209.712 778.232, 201.594 778.161, 201.495 772.015, 193.750 765.637, 186.499 759.033, 179.769 752.209, 173.585 745.173, 167.971 737.932, 162.954 730.494, 158.558 722.871, 154.810 715.071, 151.734 707.109, 149.355 698.995, 147.696 690.744, 146.782 682.372, 146.634 673.894, 147.274 669.435, 147.736 660.847, 149.185 652.190, 151.457 643.484, 154.569 634.750, 158.535 626.011, 163.368 617.643, 168.844 617.289, 169.075 609.325, 175.122 608.610, 175.664 601.058, 182.219 599.999, 183.138 592.861, 190.142 591.481, 191.497 584.755, 198.897 583.084, 200.736 576.763, 208.485 574.835, 210.850 568.910, 218.905 566.762, 221.825 561.222, 230.150 558.895, 233.648 553.727, 242.209 551.260, 246.297 546.454, 255.066 544.751, 258.174 543.887, 259.750 541.966, 263.608 541.927, 263.687 541.871, 263.798 541.850, 263.842 541.155, 265.238 539.787, 267.985 537.059, 273.464 536.804, 273.977 535.710, 276.397 534.226, 279.680 533.255, 281.829 532.386, 283.752 531.076, 286.650 530.039, 288.945 528.539, 292.606 525.946, 298.936 524.654, 302.090 523.618, 304.619 520.146, 313.996 517.573, 320.944 517.569, 320.955 514.406, 330.441 511.916, 337.908 510.950, 341.143 508.089, 350.725 506.684, 355.429 504.117, 365.094 501.894, 373.465 499.615, 383.202 497.566, 391.958 495.571, 401.757 493.720, 410.849 492.005, 420.701 490.880, 427.160 490.373, 430.075 489.270, 437.652 487.831, 447.548 487.537, 449.572 " fill="none" stroke="rgb(0, 0, 0)" stroke-linecap="butt" stroke-linejoin="round" stroke-opacity="1.0" stroke-width="3.0" />
            <path d=" M 673.894, 147.274 665.328, 148.721 656.693, 150.993 648.009, 154.108 639.296, 158.078 630.578, 162.917 622.220, 168.407 621.876, 168.632 613.923, 174.694 613.216, 175.232 605.676, 181.800 604.623, 182.718 597.499, 189.736 596.123, 191.091 589.412, 198.504 587.743, 200.347 581.437, 208.108 579.510, 210.480 573.600, 218.546 571.453, 221.477 565.927, 229.811 563.599, 233.322 558.446, 241.892 555.977, 245.998 551.185, 254.775 548.616, 259.478 546.513, 263.718 546.370, 264.007 546.367, 264.013 546.047, 264.657 545.594, 265.570 542.576, 271.655 541.544, 273.735 541.202, 274.495 537.096, 283.614 536.843, 284.175 535.937, 286.187 534.789, 288.736 534.080, 290.473 532.785, 293.644 529.006, 302.903 528.377, 304.444 524.915, 313.826 522.335, 320.816 519.778, 328.510 516.689, 337.807 513.836, 347.392 511.461, 355.368 508.902, 365.035 506.675, 373.445 506.048, 376.130 504.783, 381.552 504.060, 384.653 502.351, 391.980 500.361, 401.780 498.507, 410.914 498.288, 412.171 496.577, 422.023 495.159, 430.185 493.723, 440.081 492.323, 449.727 492.127, 451.402 491.319, 458.299 490.155, 468.231 490.010, 469.472 489.117, 479.433 488.228, 489.354 487.607, 499.335 487.279, 504.604 487.104, 507.406 486.986, 509.303 486.980, 509.464 486.727, 516.672 486.652, 518.804 486.484, 523.618 486.286, 529.250 486.207, 539.249 486.130, 549.124 486.195, 552.450 486.391, 562.448 486.497, 567.856 486.516, 568.859 486.990, 578.847 487.442, 588.385 488.196, 598.357 488.899, 607.638 489.940, 617.584 490.879, 626.555 492.212, 636.465 493.370, 645.073 495.002, 654.939 496.358, 663.135 498.298, 672.945 499.829, 680.686 502.085, 690.428 503.763, 697.675 505.717, 704.983 508.142, 714.055 511.063, 723.619 512.945, 729.781 513.390, 731.067 516.661, 740.517 518.148, 744.815 521.783, 754.131 523.730, 759.121 527.742, 768.281 529.665, 772.669 530.523, 774.418 533.996, 781.494 535.928, 785.432 537.538, 788.364 539.032, 791.084 542.494, 797.388 543.076, 798.335 544.575, 800.773 546.655, 804.155 549.337, 808.519 555.013, 816.752 556.432, 818.811 562.558, 826.714 563.751, 828.253 570.339, 835.776 571.270, 836.839 578.326, 843.925 578.963, 844.566 586.486, 851.154 586.805, 851.434 594.772, 857.447 602.840, 862.611 610.986, 866.934 619.188, 870.428 627.425, 873.107 635.677, 874.985 " fill="none" stroke="rgb(0, 0, 0)" stroke-linecap="butt" stroke-linejoin="round" stroke-opacity="1.0" stroke-width="3.0" />
            <path d=" M 747.689, 528.988 744.116, 527.853 734.793, 524.891 734.403, 523.456 733.911, 522.157 733.328, 521.016 732.662, 520.052 731.924, 519.282 731.126, 518.718 730.282, 518.371 729.406, 518.247 719.423, 517.662 718.246, 517.593 717.346, 517.693 716.478, 518.019 715.658, 518.566 714.867, 519.324 714.120, 520.279 713.428, 521.417 712.803, 522.717 712.258, 524.159 711.800, 525.717 711.439, 527.365 711.179, 529.075 715.913, 530.489 719.083, 530.693 727.077, 531.206 727.163, 530.664 727.289, 530.150 727.452, 529.678 727.647, 529.261 727.869, 528.909 728.111, 528.633 728.368, 528.441 728.631, 528.337 728.895, 528.323 " fill="none" stroke="rgb(0, 0, 0)" stroke-linecap="butt" stroke-linejoin="round" stroke-opacity="1.0" stroke-width="3.0" />
            <path d=" M 729.406, 518.247 728.512, 518.348 727.649, 518.676 726.835, 519.226 726.050, 519.988 725.307, 520.948 724.620, 522.092 723.999, 523.399 723.457, 524.848 723.001, 526.414 722.671, 527.932 722.641, 528.070 722.382, 529.789 " fill="none" stroke="rgb(0, 0, 0)" stroke-linecap="butt" stroke-linejoin="round" stroke-opacity="1.0" stroke-width="3.0" />
            <path d=" M 711.179, 529.075 719.000, 529.573 722.382, 529.789 727.077, 531.206 " fill="none" stroke="rgb(0, 0, 0)" stroke-linecap="butt" stroke-linejoin="round" stroke-opacity="1.0" stroke-width="3.0" />
            <path d=" M 728.895, 528.323 729.151, 528.402 729.392, 528.569 729.613, 528.821 729.807, 529.151 729.968, 529.549 730.094, 530.005 730.179, 530.507 730.222, 531.040 730.222, 531.590 730.178, 532.143 " fill="none" stroke="rgb(0, 0, 0)" stroke-linecap="butt" stroke-linejoin="round" stroke-opacity="1.0" stroke-width="3.0" />
            <path d=" M 719.040, 531.424 729.019, 532.068 730.178, 532.143 739.751, 535.033 743.999, 536.316 747.215, 537.287 " fill="none" stroke="rgb(0, 0, 0)" stroke-linecap="butt" stroke-linejoin="round" stroke-opacity="1.0" stroke-width="3.0" />
            <path d=" M 802.563, 522.531 801.710, 522.640 800.889, 522.982 800.117, 523.554 799.370, 524.343 798.662, 525.338 798.188, 526.191 798.005, 526.521 797.411, 527.872 796.888, 529.369 796.448, 530.987 796.126, 532.554 796.097, 532.697 795.841, 534.470 " fill="none" stroke="rgb(0, 0, 0)" stroke-linecap="butt" stroke-linejoin="round" stroke-opacity="1.0" stroke-width="3.0" />
            <path d=" M 783.917, 533.711 791.318, 534.182 795.841, 534.470 798.801, 535.430 800.268, 535.906 " fill="none" stroke="rgb(0, 0, 0)" stroke-linecap="butt" stroke-linejoin="round" stroke-opacity="1.0" stroke-width="3.0" />
            <path d=" M 802.004, 532.924 802.245, 533.003 802.472, 533.175 802.679, 533.433 802.860, 533.772 803.010, 534.182 803.125, 534.651 803.203, 535.168 803.240, 535.717 803.236, 536.285 803.192, 536.855 798.877, 536.576 791.343, 536.090 " fill="none" stroke="rgb(0, 0, 0)" stroke-linecap="butt" stroke-linejoin="round" stroke-opacity="1.0" stroke-width="3.0" />
            <path d=" M 786.930, 499.536 787.132, 499.615 787.312, 499.735 787.465, 499.892 787.585, 500.080 787.667, 500.295 787.708, 500.531 787.703, 500.783 787.655, 501.017 787.566, 501.241 787.440, 501.446 787.281, 501.623 787.096, 501.767 786.889, 501.873 786.666, 501.936 786.432, 501.950 786.273, 501.929 " fill="none" stroke="rgb(0, 0, 0)" stroke-linecap="butt" stroke-linejoin="round" stroke-opacity="1.0" stroke-width="3.0" />
            <path d=" M 786.930, 499.536 786.906, 499.529 786.901, 499.528 786.875, 499.522 786.838, 499.514 786.796, 499.507 786.751, 499.501 786.704, 499.496 786.657, 499.491 786.610, 499.488 786.570, 499.487 786.535, 499.487 786.507, 499.489 786.487, 499.492 786.262, 499.526 786.239, 499.535 786.015, 499.618 785.812, 499.744 785.638, 499.906 785.497, 500.101 785.483, 500.126 785.382, 500.351 785.327, 500.598 785.323, 500.836 785.366, 501.070 785.454, 501.292 785.584, 501.491 785.751, 501.663 785.770, 501.681 785.965, 501.813 786.120, 501.884 786.187, 501.905 786.273, 501.929 " fill="none" stroke="rgb(0, 0, 0)" stroke-linecap="butt" stroke-linejoin="round" stroke-opacity="1.0" stroke-width="3.0" />
            <path d=" M 784.109, 497.531 783.401, 503.641 784.323, 503.769 786.751, 503.873 789.692, 503.999 789.893, 497.857 789.753, 497.805 786.962, 497.670 784.109, 497.531 " fill="none" stroke="rgb(0, 0, 0)" stroke-linecap="butt" stroke-linejoin="round" stroke-opacity="1.0" stroke-width="3.0" />
            <path d=" M 783.401, 503.641 789.046, 503.930 " fill="none" stroke="rgb(0, 0, 0)" stroke-linecap="butt" stroke-linejoin="round" stroke-opacity="1.0" stroke-width="3.0" />
            <path d=" M 789.692, 503.999 789.046, 503.930 789.753, 497.805 " fill="none" stroke="rgb(0, 0, 0)" stroke-linecap="butt" stroke-linejoin="round" stroke-opacity="1.0" stroke-width="3.0" />
            <path d=" M 725.304, 533.296 715.876, 531.591 706.061, 529.679 704.438, 529.363 694.645, 527.339 693.005, 527.000 683.231, 524.885 681.571, 524.525 671.813, 522.337 670.129, 521.959 660.383, 519.716 658.674, 519.323 648.937, 517.044 647.199, 516.637 637.467, 514.340 635.699, 513.922 625.967, 511.624 624.169, 511.199 614.434, 508.915 612.603, 508.486 602.860, 506.234 600.996, 505.803 591.242, 503.598 589.341, 503.169 579.573, 501.028 577.635, 500.604 577.245, 490.611 577.090, 486.646 576.573, 476.660 576.375, 472.844 575.726, 462.865 575.489, 459.216 574.703, 449.247 574.430, 445.786 573.501, 435.830 573.198, 432.577 572.120, 422.635 571.792, 419.609 570.557, 409.686 570.212, 406.908 568.810, 397.007 568.456, 394.499 566.878, 384.624 566.524, 382.407 564.757, 372.565 564.415, 370.660 562.446, 360.856 562.131, 359.285 559.942, 349.527 559.669, 348.312 557.807, 340.870 557.031, 337.770 556.788, 336.900 " fill="none" stroke="rgb(0, 0, 0)" stroke-linecap="butt" stroke-linejoin="round" stroke-opacity="1.0" stroke-width="3.0" />
            <path d=" M 507.535, 255.491 502.711, 254.670 497.781, 254.824 492.756, 255.985 487.650, 258.186 486.994, 258.600 483.206, 260.997 482.477, 261.458 477.253, 265.827 476.969, 266.123 471.996, 271.313 468.336, 275.910 468.327, 275.922 468.326, 275.923 466.724, 277.936 461.456, 285.710 460.219, 287.817 456.214, 294.640 455.886, 295.277 451.308, 304.168 451.019, 304.728 446.871, 313.828 445.895, 315.970 442.131, 325.235 440.865, 328.354 437.446, 337.752 435.953, 341.857 432.848, 351.362 431.186, 356.449 428.367, 366.044 426.588, 372.097 424.032, 381.765 422.184, 388.754 419.873, 398.483 418.000, 406.365 415.917, 416.145 414.059, 424.866 412.192, 434.690 410.387, 444.187 408.725, 454.048 407.063, 463.909 407.005, 464.249 405.539, 474.141 404.072, 484.032 403.935, 484.962 402.657, 494.880 401.380, 504.798 401.195, 506.234 400.101, 516.174 399.008, 526.115 398.804, 527.966 397.890, 537.924 396.975, 547.882 396.776, 550.051 396.039, 560.024 395.301, 569.997 395.125, 572.381 394.562, 582.365 394.000, 592.349 393.860, 594.844 393.473, 604.836 393.086, 614.829 392.989, 617.325 392.778, 627.323 392.567, 637.320 392.516, 639.711 392.483, 649.711 392.450, 659.710 392.443, 661.887 392.592, 671.886 392.741, 681.885 392.769, 683.743 393.104, 693.738 393.440, 703.732 393.488, 705.173 394.016, 715.159 394.545, 725.145 394.594, 726.074 395.324, 736.047 396.053, 746.020 396.077, 746.345 396.101, 746.243 398.396, 736.510 400.691, 726.777 401.650, 722.711 401.881, 721.777 404.280, 712.069 406.678, 702.361 407.336, 699.699 409.842, 690.018 412.347, 680.337 413.136, 677.289 415.751, 667.637 418.366, 657.985 419.050, 655.462 421.778, 645.841 424.506, 636.221 425.079, 634.199 427.923, 624.612 430.767, 615.025 431.224, 613.481 434.187, 603.930 437.149, 594.378 437.486, 593.290 440.570, 583.777 443.654, 574.264 443.866, 573.607 447.074, 564.136 450.282, 554.664 450.365, 554.416 453.700, 544.989 456.985, 535.700 460.448, 526.319 463.725, 517.440 467.320, 508.109 470.589, 499.622 474.316, 490.342 477.576, 482.227 481.439, 473.004 484.690, 465.241 486.069, 462.080 " fill="none" stroke="rgb(0, 0, 0)" stroke-linecap="butt" stroke-linejoin="round" stroke-opacity="1.0" stroke-width="3.0" />
            <path d=" M 365.941, 737.643 362.030, 746.847 360.994, 749.285 " fill="none" stroke="rgb(0, 0, 0)" stroke-linecap="butt" stroke-linejoin="round" stroke-opacity="1.0" stroke-width="3.0" />
            <path d=" M 486.994, 258.600 476.997, 258.364 472.748, 258.264 " fill="none" stroke="rgb(0, 0, 0)" stroke-linecap="butt" stroke-linejoin="round" stroke-opacity="1.0" stroke-width="3.0" />
            <path d=" M 519.866, 259.810 514.276, 257.852 511.884, 257.014 507.535, 255.491 " fill="none" stroke="rgb(0, 0, 0)" stroke-linecap="butt" stroke-linejoin="round" stroke-opacity="1.0" stroke-width="3.0" />
            <path d=" M 528.224, 261.960 525.974, 261.381 523.678, 260.791 519.866, 259.810 515.644, 258.724 " fill="none" stroke="rgb(0, 0, 0)" stroke-linecap="butt" stroke-linejoin="round" stroke-opacity="1.0" stroke-width="3.0" />
            <path d=" M 531.193, 470.328 531.190, 470.337 " fill="none" stroke="rgb(0, 0, 0)" stroke-linecap="butt" stroke-linejoin="round" stroke-opacity="1.0" stroke-width="3.0" />
            <path d=" M 536.019, 263.249 534.716, 263.034 532.657, 262.693 528.224, 261.960 526.047, 261.600 523.826, 261.233 523.606, 261.197 " fill="none" stroke="rgb(0, 0, 0)" stroke-linecap="butt" stroke-linejoin="round" stroke-opacity="1.0" stroke-width="3.0" />
            <path d=" M 541.927, 263.687 540.792, 263.603 538.776, 263.453 536.019, 263.249 534.744, 263.155 532.729, 263.005 531.379, 262.906 " fill="none" stroke="rgb(0, 0, 0)" stroke-linecap="butt" stroke-linejoin="round" stroke-opacity="1.0" stroke-width="3.0" />
            <path d=" M 541.871, 263.798 540.839, 263.816 538.924, 263.849 " fill="none" stroke="rgb(0, 0, 0)" stroke-linecap="butt" stroke-linejoin="round" stroke-opacity="1.0" stroke-width="3.0" />
            <path d=" M 557.748, 508.547 557.715, 506.765 " fill="none" stroke="rgb(0, 0, 0)" stroke-linecap="butt" stroke-linejoin="round" stroke-opacity="1.0" stroke-width="3.0" />
        </g>
    </g>
</svg>
