<?xml version='1.0' encoding='ascii'?>
<svg xmlns="http://www.w3.org/2000/svg" height="1080" version="1.1" width="1080">
    <g id="View Layer_LineSet" inkscape:groupmode="lineset" inkscape:label="View Layer_LineSet" xmlns:inkscape="http://www.inkscape.org/namespaces/inkscape">
        <g id="strokes" inkscape:groupmode="layer" inkscape:label="strokes" xmlns:inkscape="http://www.inkscape.org/namespaces/inkscape">
            <path d=" M 564.143, 490.500 564.147, 491.659 564.131, 492.823 564.095, 493.980 564.038, 495.121 564.026, 495.300 563.963, 496.233 563.868, 497.306 563.756, 498.328 563.628, 499.289 563.481, 500.180 563.369, 500.774 563.251, 501.322 563.234, 501.388 563.125, 501.822 562.995, 502.272 562.967, 502.355 562.859, 502.669 562.720, 503.011 562.577, 503.295 560.687, 506.642 559.776, 508.255 559.593, 508.579 " fill="none" stroke="rgb(0, 0, 0)" stroke-linecap="butt" stroke-linejoin="round" stroke-opacity="1.0" stroke-width="3.0" />
            <path d=" M 361.467, 754.589 367.625, 759.048 " fill="none" stroke="rgb(0, 0, 0)" stroke-linecap="butt" stroke-linejoin="round" stroke-opacity="1.0" stroke-width="3.0" />
            <path d=" M 385.294, 760.053 394.811, 756.985 396.879, 756.319 " fill="none" stroke="rgb(0, 0, 0)" stroke-linecap="butt" stroke-linejoin="round" stroke-opacity="1.0" stroke-width="3.0" />
            <path d=" M 396.879, 756.319 391.996, 747.592 387.113, 738.865 386.446, 737.671 " fill="none" stroke="rgb(0, 0, 0)" stroke-linecap="butt" stroke-linejoin="round" stroke-opacity="1.0" stroke-width="3.0" />
            <path d=" M 472.227, 260.451 467.841, 261.306 463.389, 263.216 458.884, 266.215 454.341, 270.333 449.774, 275.593 448.497, 277.387 445.201, 282.015 444.995, 282.359 440.639, 289.618 436.107, 298.411 432.011, 307.533 431.624, 308.395 427.951, 317.696 427.211, 319.570 423.909, 329.009 422.889, 331.925 419.916, 341.473 418.680, 345.440 416.001, 355.075 414.607, 360.087 412.194, 369.792 410.692, 375.831 408.522, 385.593 406.959, 392.626 405.012, 402.435 403.428, 410.416 401.689, 420.264 400.122, 429.136 398.579, 439.016 397.063, 448.714 395.704, 458.622 394.345, 468.529 394.271, 469.068 393.087, 478.997 391.903, 488.927 391.763, 490.104 390.748, 500.053 389.733, 510.001 389.557, 511.727 388.706, 521.690 387.855, 531.654 387.669, 533.831 386.978, 543.807 386.286, 553.783 386.112, 556.305 385.577, 566.290 385.042, 576.276 384.894, 579.034 384.515, 589.026 384.135, 599.019 384.026, 601.900 383.802, 611.897 383.577, 621.895 383.513, 624.783 383.444, 634.783 383.375, 644.783 383.356, 647.564 383.445, 657.563 383.534, 667.563 383.556, 670.123 383.806, 680.119 384.056, 690.116 384.111, 692.343 384.526, 702.334 384.941, 712.326 385.015, 714.112 385.600, 724.095 386.186, 734.078 386.259, 735.324 386.446, 737.671 385.932, 747.658 385.418, 757.645 385.294, 760.053 " fill="none" stroke="rgb(0, 0, 0)" stroke-linecap="butt" stroke-linejoin="round" stroke-opacity="1.0" stroke-width="3.0" />
            <path d=" M 566.968, 520.196 567.796, 520.211 567.982, 520.214 572.701, 511.397 574.687, 507.686 577.734, 503.424 577.329, 493.432 577.160, 489.286 576.624, 479.300 576.410, 475.313 575.740, 465.336 575.484, 461.528 574.672, 451.561 574.379, 447.954 573.421, 438.000 573.095, 434.615 571.983, 424.677 571.631, 421.535 570.357, 411.617 569.987, 408.740 568.540, 398.845 568.162, 396.255 566.531, 386.389 566.154, 384.110 564.327, 374.279 563.965, 372.331 561.925, 362.542 561.593, 360.949 559.322, 351.210 559.039, 349.995 558.565, 348.179 556.302, 339.500 555.799, 337.773 " fill="none" stroke="rgb(0, 0, 0)" stroke-linecap="butt" stroke-linejoin="round" stroke-opacity="1.0" stroke-width="3.0" />
            <path d=" M 552.285, 345.703 553.108, 348.476 554.001, 351.485 556.392, 360.505 556.632, 361.413 558.937, 371.144 559.091, 371.793 561.160, 381.577 561.375, 382.595 562.403, 388.046 563.485, 393.788 565.138, 403.650 565.421, 405.343 566.888, 415.234 567.184, 417.232 568.475, 427.148 568.772, 429.430 569.899, 439.366 570.187, 441.909 571.158, 451.862 571.430, 454.645 572.252, 464.611 572.500, 467.614 573.181, 477.591 573.399, 480.792 573.944, 490.777 574.128, 494.157 574.171, 495.204 574.124, 496.014 574.067, 496.805 574.000, 497.572 573.924, 498.313 573.839, 499.023 573.745, 499.697 573.644, 500.333 573.536, 500.928 573.421, 501.477 573.300, 501.978 573.174, 502.428 573.044, 502.826 572.909, 503.168 572.771, 503.453 568.802, 510.753 568.576, 509.952 568.330, 509.338 568.070, 508.922 567.798, 508.712 567.719, 508.711 565.132, 508.669 564.208, 508.654 563.945, 508.650 563.347, 508.640 559.780, 508.582 559.593, 508.579 557.998, 508.554 557.770, 508.550 557.417, 508.544 557.129, 508.543 556.839, 508.753 556.553, 509.170 556.274, 509.787 556.009, 510.595 555.970, 510.752 555.761, 511.582 555.535, 512.729 555.335, 514.018 555.164, 515.427 555.026, 516.932 554.922, 518.507 554.854, 520.126 554.824, 521.759 554.833, 523.380 554.879, 524.959 556.196, 524.984 558.038, 525.017 558.146, 525.019 559.925, 525.052 563.486, 525.117 564.304, 525.132 565.268, 525.149 565.341, 525.150 566.932, 522.177 566.920, 521.674 566.923, 521.158 566.940, 520.643 566.968, 520.196 566.971, 520.143 567.016, 519.672 567.073, 519.242 567.140, 518.866 567.216, 518.554 567.299, 518.314 567.386, 518.153 567.474, 518.074 " fill="none" stroke="rgb(0, 0, 0)" stroke-linecap="butt" stroke-linejoin="round" stroke-opacity="1.0" stroke-width="3.0" />
            <path d=" M 462.156, 930.549 458.126, 929.486 457.926, 929.382 454.100, 927.396 450.091, 924.249 449.410, 923.524 446.115, 920.018 442.188, 914.686 438.326, 908.237 434.548, 900.662 430.870, 891.952 427.470, 882.548 427.312, 882.114 424.333, 872.568 423.892, 871.156 421.281, 861.503 420.630, 859.093 418.343, 849.358 417.543, 845.949 415.545, 836.151 414.649, 831.758 412.912, 821.910 411.968, 816.559 410.468, 806.672 409.516, 800.401 408.234, 790.484 407.310, 783.342 406.229, 773.400 405.365, 765.447 404.473, 755.487 403.694, 746.789 402.956, 736.816 402.273, 727.576 402.227, 726.714 " fill="none" stroke="rgb(0, 0, 0)" stroke-linecap="butt" stroke-linejoin="round" stroke-opacity="1.0" stroke-width="3.0" />
            <path d=" M 381.790, 352.153 380.417, 357.989 378.372, 367.777 377.153, 373.614 375.330, 383.446 374.061, 390.294 372.442, 400.162 371.160, 407.975 369.729, 417.872 368.467, 426.594 367.213, 436.515 366.003, 446.083 364.914, 456.024 363.825, 465.964 363.781, 466.362 362.849, 476.318 361.918, 486.275 361.818, 487.341 361.037, 497.311 360.256, 507.280 360.127, 508.927 359.492, 518.907 358.857, 528.887 358.721, 531.018 358.228, 541.005 357.734, 550.993 357.610, 553.504 357.255, 563.498 356.900, 573.491 356.801, 576.274 356.584, 586.271 356.366, 596.269 356.302, 599.211 356.221, 609.211 356.140, 619.210 356.116, 622.197 356.171, 632.197 356.226, 642.197 356.243, 645.114 356.436, 655.112 356.629, 665.110 356.682, 667.842 357.016, 677.836 357.350, 687.830 357.431, 690.264 357.909, 700.252 358.388, 710.241 358.484, 712.267 359.111, 722.248 359.738, 732.228 359.833, 733.743 360.615, 743.713 361.396, 753.682 361.467, 754.589 362.467, 764.538 363.466, 774.493 364.666, 784.421 365.771, 793.560 367.186, 803.460 368.365, 811.712 370.012, 821.576 371.231, 828.877 373.131, 838.695 374.350, 844.994 376.528, 854.754 377.702, 860.012 380.190, 869.697 381.267, 873.889 384.105, 883.478 385.026, 886.591 385.555, 888.141 " fill="none" stroke="rgb(0, 0, 0)" stroke-linecap="butt" stroke-linejoin="round" stroke-opacity="1.0" stroke-width="3.0" />
            <path d=" M 524.137, 532.837 524.341, 542.835 524.385, 545.005 524.480, 555.005 524.517, 558.926 524.502, 568.926 524.497, 572.914 524.375, 582.913 524.326, 586.949 524.158, 594.297 " fill="none" stroke="rgb(0, 0, 0)" stroke-linecap="butt" stroke-linejoin="round" stroke-opacity="1.0" stroke-width="3.0" />
            <path d=" M 512.511, 739.591 511.036, 749.482 510.673, 751.916 509.063, 761.786 508.581, 764.746 506.831, 774.591 506.345, 777.327 504.448, 787.145 503.967, 789.634 501.914, 799.421 501.448, 801.642 499.228, 811.392 498.789, 813.320 496.389, 823.028 495.991, 824.641 493.399, 834.299 493.057, 835.576 490.257, 845.175 489.989, 846.092 486.960, 855.622 486.790, 856.156 483.510, 865.603 483.464, 865.738 480.013, 874.802 476.441, 883.312 472.754, 891.231 468.957, 898.525 465.056, 905.154 461.058, 911.079 456.969, 916.261 452.798, 920.664 449.410, 923.524 " fill="none" stroke="rgb(0, 0, 0)" stroke-linecap="butt" stroke-linejoin="round" stroke-opacity="1.0" stroke-width="3.0" />
            <path d=" M 396.522, 751.597 396.879, 756.319 397.795, 766.277 398.704, 776.164 399.822, 786.101 400.844, 795.177 402.177, 805.088 403.279, 813.280 404.846, 823.156 405.995, 830.401 407.814, 840.234 408.969, 846.479 411.066, 856.256 412.182, 861.464 414.585, 871.171 415.611, 875.315 418.359, 884.930 419.235, 887.996 422.371, 897.492 423.030, 899.485 426.611, 908.822 426.973, 909.768 431.043, 918.836 435.216, 926.688 436.948, 929.392 437.208, 929.796 439.473, 933.333 443.792, 938.786 448.154, 943.064 452.540, 946.190 456.932, 948.194 461.315, 949.110 465.674, 948.969 469.994, 947.810 474.263, 945.674 478.068, 942.894 478.469, 942.602 482.601, 938.632 486.651, 933.809 489.056, 930.385 490.609, 928.176 494.468, 921.775 497.159, 916.665 498.222, 914.646 501.864, 906.833 505.389, 898.376 508.794, 889.315 512.019, 879.849 512.074, 879.686 515.039, 870.136 515.227, 869.530 517.957, 859.910 518.249, 858.882 520.766, 849.205 521.138, 847.776 523.462, 838.050 523.893, 836.247 526.039, 826.480 526.512, 824.327 528.493, 814.525 528.994, 812.047 530.822, 802.216 531.339, 799.437 533.023, 789.579 533.475, 786.934 " fill="none" stroke="rgb(0, 0, 0)" stroke-linecap="butt" stroke-linejoin="round" stroke-opacity="1.0" stroke-width="3.0" />
            <path d=" M 530.258, 780.956 528.534, 790.706 526.648, 800.527 526.232, 802.692 524.193, 812.482 523.804, 814.350 523.609, 815.214 521.405, 824.968 521.250, 825.652 518.868, 835.365 518.573, 836.569 515.998, 846.232 515.775, 847.069 512.987, 856.672 512.857, 857.118 509.825, 866.685 506.679, 875.737 503.426, 884.236 500.067, 892.146 496.610, 899.432 493.058, 906.056 489.419, 911.976 485.698, 917.157 481.904, 921.560 478.046, 925.145 474.131, 927.872 470.170, 929.706 466.174, 930.611 462.156, 930.549 " fill="none" stroke="rgb(0, 0, 0)" stroke-linecap="butt" stroke-linejoin="round" stroke-opacity="1.0" stroke-width="3.0" />
            <path d=" M 560.687, 506.642 559.757, 506.573 557.973, 506.440 557.728, 506.422 555.879, 506.284 548.861, 505.760 548.494, 505.732 546.650, 505.595 546.169, 505.559 546.554, 515.551 546.691, 519.124 546.971, 529.120 547.074, 532.815 547.252, 542.813 547.319, 546.613 547.396, 556.612 547.426, 560.497 547.404, 570.497 547.395, 574.449 547.275, 584.449 547.228, 588.449 547.011, 598.447 546.923, 602.478 546.610, 612.473 546.483, 616.516 546.072, 626.507 545.906, 630.544 545.398, 640.531 545.194, 644.543 544.588, 654.525 544.347, 658.494 543.642, 668.469 543.365, 672.376 543.293, 673.265 " fill="none" stroke="rgb(0, 0, 0)" stroke-linecap="butt" stroke-linejoin="round" stroke-opacity="1.0" stroke-width="3.0" />
            <path d=" M 545.868, 679.841 546.200, 675.479 546.860, 665.501 547.159, 660.978 547.722, 650.994 547.981, 646.410 548.449, 636.421 548.666, 631.795 549.040, 621.802 549.214, 617.153 549.494, 607.157 549.625, 602.502 549.813, 592.504 549.900, 587.862 549.995, 577.862 550.038, 573.252 550.040, 563.252 550.041, 558.690 549.949, 548.691 549.907, 544.197 549.720, 534.199 549.638, 529.792 549.355, 519.796 549.233, 515.493 548.861, 505.760 " fill="none" stroke="rgb(0, 0, 0)" stroke-linecap="butt" stroke-linejoin="round" stroke-opacity="1.0" stroke-width="3.0" />
            <path d=" M 385.294, 760.053 386.237, 770.009 387.180, 779.964 387.247, 780.679 388.390, 790.614 389.518, 800.426 390.873, 810.334 392.087, 819.211 393.673, 829.084 394.938, 836.960 396.774, 846.790 398.049, 853.609 400.162, 863.384 401.399, 869.108 403.819, 878.810 404.967, 883.412 407.733, 893.022 408.731, 896.488 411.890, 905.976 412.668, 908.311 416.277, 917.637 416.755, 918.871 420.887, 927.977 420.970, 928.160 425.292, 936.179 429.700, 942.938 434.173, 948.456 438.691, 952.753 443.238, 955.855 447.794, 957.795 452.343, 958.609 456.871, 958.334 461.364, 957.008 465.808, 954.679 470.192, 951.387 474.504, 947.176 " fill="none" stroke="rgb(0, 0, 0)" stroke-linecap="butt" stroke-linejoin="round" stroke-opacity="1.0" stroke-width="3.0" />
            <path d=" M 474.504, 947.176 481.383, 939.918 482.601, 938.632 " fill="none" stroke="rgb(0, 0, 0)" stroke-linecap="butt" stroke-linejoin="round" stroke-opacity="1.0" stroke-width="3.0" />
            <path d=" M 538.975, 481.207 539.595, 491.188 540.215, 501.169 540.461, 505.133 540.810, 515.127 540.935, 518.703 541.132, 528.701 541.149, 529.535 535.194, 531.519 531.979, 532.591 531.699, 532.684 531.418, 532.778 531.137, 532.872 530.857, 532.966 530.525, 532.960 526.894, 532.890 524.137, 532.837 519.399, 532.745 " fill="none" stroke="rgb(0, 0, 0)" stroke-linecap="butt" stroke-linejoin="round" stroke-opacity="1.0" stroke-width="3.0" />
            <path d=" M 519.681, 503.368 521.022, 499.319 524.165, 489.826 527.308, 480.333 527.445, 479.921 537.383, 481.029 538.975, 481.207 535.938, 490.735 532.901, 500.262 530.892, 506.564 530.766, 506.956 530.517, 507.737 530.267, 508.521 530.018, 509.305 529.769, 510.090 529.484, 511.123 529.333, 511.831 529.225, 512.338 528.998, 513.711 528.808, 515.216 528.658, 516.824 528.621, 517.393 528.551, 518.505 528.489, 520.225 528.475, 521.951 528.506, 523.615 528.507, 523.650 528.585, 525.289 528.708, 526.835 528.874, 528.260 529.078, 529.535 529.317, 530.638 529.587, 531.546 529.882, 532.244 530.198, 532.718 530.525, 532.960 " fill="none" stroke="rgb(0, 0, 0)" stroke-linecap="butt" stroke-linejoin="round" stroke-opacity="1.0" stroke-width="3.0" />
            <path d=" M 530.880, 523.658 530.755, 523.594 530.637, 523.397 530.532, 523.074 530.444, 522.641 530.378, 522.117 530.336, 521.523 530.319, 520.886 530.330, 520.234 530.367, 519.596 530.428, 518.999 530.511, 518.471 530.613, 518.033 530.728, 517.706 530.852, 517.504 530.979, 517.434 " fill="none" stroke="rgb(0, 0, 0)" stroke-linecap="butt" stroke-linejoin="round" stroke-opacity="1.0" stroke-width="3.0" />
            <path d=" M 530.979, 517.434 531.104, 517.500 531.221, 517.700 531.326, 518.022 531.413, 518.455 531.479, 518.979 531.521, 519.571 531.537, 520.206 531.526, 520.855 531.490, 521.491 531.429, 522.086 531.346, 522.613 531.245, 523.051 531.130, 523.380 531.007, 523.585 530.880, 523.658 " fill="none" stroke="rgb(0, 0, 0)" stroke-linecap="butt" stroke-linejoin="round" stroke-opacity="1.0" stroke-width="3.0" />
            <path d=" M 551.548, 693.269 551.566, 693.070 552.417, 683.107 552.702, 679.768 553.469, 669.797 553.731, 666.392 554.415, 656.415 554.653, 652.954 555.255, 642.972 555.467, 639.467 555.989, 629.480 556.174, 625.941 556.616, 615.951 556.774, 612.390 557.136, 602.396 557.266, 598.823 557.549, 588.827 557.651, 585.251 557.855, 575.253 557.928, 571.687 558.052, 561.688 558.097, 558.141 558.142, 548.141 558.157, 544.625 558.145, 541.210 558.110, 531.148 558.038, 525.017 " fill="none" stroke="rgb(0, 0, 0)" stroke-linecap="butt" stroke-linejoin="round" stroke-opacity="1.0" stroke-width="3.0" />
            <path d=" M 454.881, 977.426 457.314, 977.614 461.431, 977.518 465.519, 976.595 469.568, 974.874 473.570, 972.386 477.518, 969.163 481.406, 965.236 485.228, 960.635 488.978, 955.393 492.652, 949.539 496.244, 943.104 499.752, 936.119 503.171, 928.611 506.499, 920.610 509.733, 912.142 512.870, 903.235 515.909, 893.915 518.807, 884.344 518.848, 884.206 521.559, 874.581 521.685, 874.133 524.225, 864.461 524.420, 863.718 525.598, 858.910 527.050, 852.985 529.282, 843.237 529.576, 841.954 531.668, 832.175 531.996, 830.646 533.958, 820.840 534.310, 819.080 536.148, 809.251 536.517, 807.276 538.238, 797.425 538.501, 795.920 " fill="none" stroke="rgb(0, 0, 0)" stroke-linecap="butt" stroke-linejoin="round" stroke-opacity="1.0" stroke-width="3.0" />
            <path d=" M 526.168, 263.263 525.970, 262.621 523.184, 254.399 520.284, 246.640 517.270, 239.371 514.144, 232.618 510.908, 226.410 507.564, 220.774 504.115, 215.740 500.565, 211.337 496.916, 207.594 493.173, 204.542 489.340, 202.211 485.423, 200.631 481.429, 199.830 477.362, 199.839 477.108, 199.891 473.231, 200.685 469.044, 202.395 464.810, 204.995 460.537, 208.509 456.236, 212.959 451.919, 218.365 447.596, 224.742 443.281, 232.105 438.987, 240.464 434.845, 249.566 434.727, 249.824 430.963, 259.089 430.834, 259.406 430.516, 260.188 427.088, 269.582 426.370, 271.551 423.243, 281.050 422.303, 283.907 419.449, 293.491 418.332, 297.241 415.725, 306.895 414.473, 311.534 414.346, 312.053 411.966, 321.766 410.742, 326.762 408.572, 336.524 407.156, 342.893 405.181, 352.696 403.732, 359.890 401.939, 369.728 400.484, 377.709 398.863, 387.576 397.430, 396.300 395.972, 406.193 394.584, 415.609 393.281, 425.523 391.960, 435.573 390.806, 445.506 389.652, 455.439 389.572, 456.125 388.562, 466.074 387.552, 476.023 387.433, 477.195 386.563, 487.157 385.692, 497.119 385.554, 498.704 384.820, 508.677 384.086, 518.651 383.944, 520.574 383.344, 530.556 382.744, 540.538 382.613, 542.719 382.145, 552.708 381.677, 562.697 381.567, 565.053 381.230, 575.048 380.894, 585.042 380.812, 587.489 380.606, 597.487 380.401, 607.485 380.350, 609.937 380.276, 619.936 380.202, 629.936 380.185, 632.306 380.244, 642.306 380.303, 652.306 380.316, 654.509 380.509, 664.507 380.703, 674.506 380.741, 676.458 381.072, 686.453 381.404, 696.447 381.457, 698.067 381.930, 708.056 382.402, 718.045 382.460, 719.255 383.078, 729.236 383.696, 739.216 383.741, 739.941 384.511, 749.912 385.294, 760.053 386.222, 770.010 387.108, 779.520 388.202, 789.460 389.173, 798.278 390.443, 808.197 391.477, 816.269 392.934, 826.163 394.006, 833.440 395.665, 843.302 396.748, 849.744 398.624, 859.567 399.688, 865.142 401.799, 874.916 402.811, 879.599 405.180, 889.314 406.101, 893.088 408.756, 902.729 409.543, 905.586 412.517, 915.134 413.122, 917.080 416.452, 926.509 416.823, 927.558 420.556, 936.835 420.629, 937.015 424.525, 945.453 428.498, 952.876 432.533, 959.292 436.616, 964.716 440.734, 969.163 444.874, 972.653 449.025, 975.209 453.175, 976.853 456.138, 977.398 457.314, 977.614 " fill="none" stroke="rgb(0, 0, 0)" stroke-linecap="butt" stroke-linejoin="round" stroke-opacity="1.0" stroke-width="3.0" />
            <path d=" M 474.953, 199.896 470.795, 200.742 466.582, 202.452 462.320, 205.052 458.021, 208.566 453.693, 213.015 449.349, 218.419 445.000, 224.795 440.658, 232.156 436.338, 240.513 432.174, 249.604 432.052, 249.870 428.268, 259.126 427.970, 259.855 427.816, 260.230 424.369, 269.618 423.645, 271.590 420.501, 281.083 419.554, 283.942 416.684, 293.521 415.560, 297.272 412.938, 306.922 411.678, 311.560 409.285, 321.270 407.926, 326.783 406.631, 332.571 404.449, 342.330 404.320, 342.908 402.333, 352.708 400.876, 359.898 399.073, 369.734 397.610, 377.710 395.980, 387.577 394.539, 396.295 393.073, 406.187 391.678, 415.596 390.368, 425.510 389.040, 435.552 387.880, 445.485 386.720, 455.417 386.641, 456.097 385.625, 466.045 384.610, 475.994 384.491, 477.158 383.616, 487.120 382.741, 497.082 382.603, 498.660 381.865, 508.632 381.128, 518.605 380.986, 520.520 380.383, 530.502 379.780, 540.484 379.649, 542.657 379.180, 552.646 378.710, 562.634 378.600, 564.982 378.262, 574.977 377.925, 584.971 377.843, 587.409 377.637, 597.407 377.432, 607.405 377.381, 609.848 377.308, 619.848 377.235, 629.848 377.218, 632.209 377.279, 642.209 377.339, 652.209 377.353, 654.404 377.549, 664.402 377.745, 674.400 377.784, 676.344 378.118, 686.339 378.453, 696.333 378.507, 697.945 378.984, 707.934 379.461, 717.923 379.518, 719.125 380.142, 729.106 380.766, 739.086 380.811, 739.804 381.587, 749.774 382.376, 759.909 383.311, 769.865 384.204, 779.369 385.307, 789.308 386.285, 798.121 387.564, 808.039 388.605, 816.106 390.073, 825.998 391.153, 833.272 392.823, 843.131 393.914, 849.571 395.803, 859.391 396.875, 864.964 399.001, 874.736 400.019, 879.418 402.405, 889.129 403.332, 892.903 406.004, 902.539 406.798, 905.399 409.790, 914.941 410.401, 916.890 413.751, 926.312 414.126, 927.366 417.881, 936.634 417.957, 936.822 421.880, 945.259 425.879, 952.681 429.940, 959.098 434.050, 964.522 438.194, 968.970 442.361, 972.461 446.539, 975.017 450.716, 976.664 454.881, 977.426 " fill="none" stroke="rgb(0, 0, 0)" stroke-linecap="butt" stroke-linejoin="round" stroke-opacity="1.0" stroke-width="3.0" />
            <path d=" M 477.362, 199.839 474.953, 199.896 " fill="none" stroke="rgb(0, 0, 0)" stroke-linecap="butt" stroke-linejoin="round" stroke-opacity="1.0" stroke-width="3.0" />
            <path d=" M 557.167, 704.820 558.085, 694.862 558.401, 691.436 559.236, 681.471 559.583, 677.330 560.336, 667.359 560.654, 663.150 561.326, 653.173 561.614, 648.909 562.207, 638.926 562.463, 634.616 562.977, 624.629 563.200, 620.284 563.636, 610.294 563.827, 605.925 564.186, 595.931 564.343, 591.548 564.624, 581.552 564.748, 577.164 564.952, 567.166 565.041, 562.785 565.168, 552.786 565.223, 548.422 565.273, 538.422 565.294, 534.084 565.268, 525.149 " fill="none" stroke="rgb(0, 0, 0)" stroke-linecap="butt" stroke-linejoin="round" stroke-opacity="1.0" stroke-width="3.0" />
            <path d=" M 456.376, 998.642 458.779, 998.834 463.214, 998.470 467.608, 997.215 471.952, 995.106 476.239, 992.177 480.461, 988.465 484.611, 984.006 488.684, 978.836 492.674, 972.988 496.576, 966.500 500.386, 959.403 504.101, 951.731 507.717, 943.517 511.232, 934.791 513.458, 928.780 514.642, 925.584 517.879, 916.122 517.947, 915.924 520.969, 906.392 521.144, 905.840 523.970, 896.248 524.232, 895.358 526.878, 885.715 527.210, 884.504 529.689, 874.816 530.077, 873.303 532.402, 863.577 532.832, 861.777 535.013, 852.018 535.475, 849.951 537.521, 840.162 538.005, 837.844 539.924, 828.030 540.423, 825.478 542.221, 815.641 542.727, 812.872 544.063, 805.055 " fill="none" stroke="rgb(0, 0, 0)" stroke-linecap="butt" stroke-linejoin="round" stroke-opacity="1.0" stroke-width="3.0" />
            <path d=" M 540.861, 264.947 539.955, 260.917 537.574, 251.205 537.412, 250.543 534.829, 240.882 534.743, 240.560 531.950, 230.996 529.030, 221.875 525.987, 213.226 522.819, 205.078 519.529, 197.460 516.117, 190.403 512.586, 183.939 508.939, 178.100 505.177, 172.919 501.304, 168.430 497.325, 164.667 493.243, 161.666 489.064, 159.461 484.793, 158.086 480.438, 157.577 478.747, 157.726 476.006, 157.967 471.504, 159.289 466.943, 161.575 462.332, 164.854 457.681, 169.156 453.004, 174.505 448.312, 180.924 443.619, 188.433 438.939, 197.047 434.627, 206.069 434.289, 206.777 430.382, 215.982 429.683, 217.629 426.136, 226.979 425.140, 229.604 421.913, 239.069 420.676, 242.698 417.737, 252.256 417.579, 252.771 416.310, 256.899 413.632, 266.534 412.060, 272.189 412.054, 272.215 410.471, 278.504 408.031, 288.202 407.945, 288.544 405.724, 298.294 403.984, 305.933 401.965, 315.727 400.196, 324.315 398.366, 334.146 396.599, 343.644 394.947, 353.507 393.295, 363.369 393.212, 363.867 391.728, 373.756 390.243, 383.645 390.052, 384.921 388.728, 394.833 387.403, 404.744 387.137, 406.738 386.571, 411.534 385.399, 421.465 384.482, 429.242 383.457, 439.190 382.433, 449.137 382.102, 452.353 381.220, 462.314 380.339, 472.276 380.010, 475.983 379.268, 485.956 378.525, 495.928 378.219, 500.040 377.613, 510.022 377.006, 520.003 376.738, 524.427 376.266, 534.416 375.794, 544.404 375.575, 549.044 375.236, 559.038 374.898, 569.033 374.737, 573.790 374.531, 583.787 374.326, 593.785 374.227, 598.560 374.155, 608.560 374.083, 618.559 374.049, 623.251 374.112, 633.251 374.174, 643.251 374.203, 647.760 374.402, 657.758 374.601, 667.756 374.685, 671.985 375.023, 681.979 375.361, 691.973 375.492, 695.827 375.973, 705.816 376.455, 715.804 376.618, 719.192 377.247, 729.172 377.876, 739.152 378.055, 741.988 378.837, 751.957 379.620, 761.927 379.793, 764.130 380.736, 774.086 381.679, 784.041 381.821, 785.539 382.932, 795.477 384.044, 805.415 384.125, 806.141 385.416, 816.057 386.693, 825.870 388.173, 835.760 389.507, 844.668 391.193, 854.525 392.554, 862.483 394.460, 872.300 395.814, 879.272 397.962, 889.038 399.272, 894.997 401.685, 904.702 402.910, 909.631 405.615, 919.258 406.709, 923.150 409.741, 932.680 410.652, 935.542 411.908, 939.017 412.220, 939.879 414.721, 946.797 418.538, 956.040 418.898, 956.913 419.516, 958.212 422.846, 965.219 423.167, 965.895 427.512, 973.750 431.915, 980.493 436.362, 986.142 440.839, 990.719 445.332, 994.247 449.827, 996.756 454.314, 998.274 456.906, 998.599 458.779, 998.834 " fill="none" stroke="rgb(0, 0, 0)" stroke-linecap="butt" stroke-linejoin="round" stroke-opacity="1.0" stroke-width="3.0" />
            <path d=" M 478.059, 157.646 473.599, 158.037 469.069, 159.359 464.479, 161.645 459.839, 164.925 455.159, 169.226 450.453, 174.574 445.732, 180.992 441.010, 188.499 436.302, 197.110 431.968, 206.122 431.624, 206.838 427.697, 216.034 426.991, 217.687 423.424, 227.029 422.421, 229.658 419.176, 239.117 417.931, 242.748 414.975, 252.301 413.539, 256.944 410.846, 266.575 409.265, 272.229 407.571, 278.919 407.449, 279.402 405.126, 288.579 402.892, 298.326 401.142, 305.961 399.112, 315.753 397.391, 324.057 397.333, 324.336 395.493, 334.166 393.716, 343.659 392.055, 353.520 390.394, 363.381 390.311, 363.874 388.818, 373.762 387.326, 383.650 387.134, 384.920 385.802, 394.831 384.471, 404.741 384.204, 406.728 383.026, 416.659 381.848, 426.589 381.535, 429.224 380.506, 439.171 379.476, 449.118 379.144, 452.326 378.258, 462.287 378.220, 462.712 377.333, 472.673 377.042, 475.947 376.296, 485.919 375.550, 495.891 375.243, 499.994 374.634, 509.976 374.025, 519.957 373.756, 524.371 373.282, 534.360 372.808, 544.349 372.589, 548.979 372.250, 558.973 371.910, 568.967 371.749, 573.715 371.543, 583.713 371.338, 593.710 371.240, 598.475 371.169, 608.475 371.097, 618.475 371.064, 623.157 371.128, 633.157 371.192, 643.156 371.221, 647.656 371.423, 657.654 371.625, 667.652 371.710, 671.872 372.052, 681.866 372.394, 691.860 372.525, 695.706 373.011, 705.694 373.497, 715.682 373.661, 719.062 374.296, 729.041 374.930, 739.021 375.110, 741.849 375.899, 751.818 376.688, 761.787 376.862, 763.984 377.812, 773.938 378.763, 783.893 378.905, 785.385 380.025, 795.322 381.145, 805.259 381.227, 805.980 382.527, 815.895 383.813, 825.703 385.304, 835.591 386.648, 844.495 388.345, 854.350 389.715, 862.305 391.635, 872.119 392.999, 879.089 395.161, 888.852 396.480, 894.810 398.909, 904.511 400.142, 909.440 402.865, 919.062 403.967, 922.957 405.917, 929.044 407.443, 933.806 407.936, 935.346 411.091, 944.014 412.032, 946.599 415.871, 955.833 416.237, 956.714 416.671, 957.620 420.535, 965.695 424.907, 973.550 429.339, 980.293 433.815, 985.942 438.321, 990.520 442.843, 994.049 447.367, 996.559 451.882, 998.080 456.376, 998.642 " fill="none" stroke="rgb(0, 0, 0)" stroke-linecap="butt" stroke-linejoin="round" stroke-opacity="1.0" stroke-width="3.0" />
            <path d=" M 480.438, 157.577 478.059, 157.646 " fill="none" stroke="rgb(0, 0, 0)" stroke-linecap="butt" stroke-linejoin="round" stroke-opacity="1.0" stroke-width="3.0" />
            <path d=" M 544.480, 257.802 544.389, 257.351 542.234, 247.586 541.906, 246.102 539.571, 236.378 539.293, 235.220 536.762, 225.545 536.549, 224.730 533.804, 215.114 533.674, 214.659 530.667, 205.035 527.530, 195.886 524.262, 187.243 520.865, 179.136 517.340, 171.598 513.689, 164.662 509.913, 158.363 506.015, 152.735 501.999, 147.817 497.868, 143.643 493.627, 140.252 489.280, 137.681 484.834, 135.968 480.295, 135.151 475.671, 135.267 470.881, 135.420 466.120, 136.506 461.292, 138.597 456.405, 141.726 451.473, 145.924 446.506, 151.220 441.519, 157.642 436.526, 165.212 431.542, 173.949 427.072, 182.894 426.585, 183.867 422.540, 193.012 421.671, 194.976 418.002, 204.278 416.819, 207.278 413.486, 216.706 412.048, 220.771 409.015, 230.300 407.377, 235.446 404.616, 245.057 402.827, 251.286 400.314, 260.965 398.418, 268.268 396.132, 278.003 394.171, 286.358 392.095, 296.140 390.106, 305.518 388.227, 315.339 386.348, 325.161 386.245, 325.698 384.550, 335.553 382.854, 345.408 382.608, 346.842 381.790, 352.153 380.268, 362.037 379.213, 368.886 377.856, 378.793 376.499, 388.701 376.081, 391.756 374.882, 401.684 373.682, 411.612 373.228, 415.373 372.180, 425.318 371.133, 435.263 370.671, 439.649 369.770, 449.608 368.869, 459.568 368.424, 464.491 367.667, 474.462 366.909, 484.433 366.501, 489.799 365.884, 499.780 365.267, 509.761 364.914, 515.470 364.435, 525.458 363.955, 535.447 363.670, 541.395 363.645, 542.122 363.303, 552.117 362.961, 562.111 362.778, 567.464 362.572, 577.462 362.366, 587.460 362.241, 593.566 362.172, 603.565 362.104, 613.565 362.062, 619.586 362.132, 629.586 362.201, 639.586 362.242, 645.415 362.451, 655.413 362.661, 665.411 362.777, 670.941 363.129, 680.935 363.482, 690.929 363.663, 696.059 364.162, 706.046 364.661, 716.034 364.893, 720.664 365.544, 730.643 366.195, 740.621 366.355, 743.082 366.374, 743.369 366.458, 744.659 367.266, 754.627 367.625, 759.048 368.347, 767.953 369.320, 777.905 370.293, 787.858 370.548, 790.459 371.694, 800.393 372.841, 810.327 373.045, 812.100 374.375, 822.012 375.705, 831.923 375.824, 832.806 377.350, 842.689 378.867, 852.513 380.603, 862.361 382.156, 871.168 384.119, 880.973 385.555, 888.141 385.672, 888.725 387.884, 898.478 389.397, 905.147 391.882, 914.833 393.311, 920.404 396.097, 930.008 397.394, 934.475 400.517, 943.974 401.626, 947.345 405.129, 956.711 405.989, 959.009 409.922, 968.203 410.462, 969.465 414.887, 978.433 415.029, 978.721 419.671, 986.787 424.370, 993.680 429.111, 999.421 433.877, 1004.036 438.655, 1007.552 443.430, 1010.000 448.190, 1011.415 452.923, 1011.831 457.704, 1012.221 462.341, 1011.670 466.930, 1010.194 471.462, 1007.832 475.930, 1004.623 480.326, 1000.605 484.643, 995.818 488.875, 990.298 493.017, 984.085 497.065, 977.215 501.014, 969.723 504.861, 961.645 508.602, 953.014 512.235, 943.864 515.669, 934.472 515.759, 934.225 518.960, 924.751 519.170, 924.128 522.160, 914.586 522.468, 913.602 525.265, 904.002 525.651, 902.675 528.271, 893.024 528.719, 891.373 531.175, 881.680 531.671, 879.722 533.974, 869.991 534.506, 867.746 536.667, 857.982 537.224, 855.467 539.252, 845.675 539.825, 842.909 541.727, 833.091 542.308, 830.091 544.092, 820.251 544.675, 817.033 546.176, 808.174 " fill="none" stroke="rgb(0, 0, 0)" stroke-linecap="butt" stroke-linejoin="round" stroke-opacity="1.0" stroke-width="3.0" />
            <path d=" M 559.158, 708.680 559.423, 706.037 560.335, 696.079 560.748, 691.574 561.577, 681.609 561.958, 677.026 562.707, 667.054 563.056, 662.404 563.724, 652.426 564.039, 647.720 564.628, 637.738 564.909, 632.986 565.420, 622.999 565.665, 618.212 566.099, 608.221 566.308, 603.410 566.665, 593.416 566.838, 588.589 567.119, 578.593 567.254, 573.762 567.458, 563.764 567.557, 558.938 567.684, 548.939 567.746, 544.127 567.796, 534.128 567.820, 529.341 567.796, 520.211 " fill="none" stroke="rgb(0, 0, 0)" stroke-linecap="butt" stroke-linejoin="round" stroke-opacity="1.0" stroke-width="3.0" />
            <path d=" M 475.671, 135.267 470.969, 136.352 466.200, 138.442 461.374, 141.571 456.501, 145.769 451.595, 151.068 446.668, 157.492 441.734, 165.065 436.810, 173.806 432.384, 182.773 431.912, 183.730 427.908, 192.893 427.056, 194.844 423.425, 204.162 422.260, 207.154 418.962, 216.594 417.544, 220.655 416.299, 224.614 413.299, 234.154 412.926, 235.340 410.196, 244.960 408.428, 251.190 405.943, 260.877 404.068, 268.183 401.808, 277.925 399.868, 286.287 398.236, 294.071 396.475, 302.472 395.849, 305.460 393.990, 315.286 392.132, 325.112 392.029, 325.655 390.353, 335.513 388.676, 345.372 388.431, 346.815 386.926, 356.701 385.613, 365.323 385.072, 368.875 383.730, 378.785 382.387, 388.694 381.972, 391.763 380.785, 401.693 379.598, 411.622 379.147, 415.398 378.110, 425.345 377.074, 435.291 376.615, 439.694 375.817, 448.599 374.926, 458.559 374.389, 464.555 373.639, 474.527 372.888, 484.499 372.483, 489.883 371.871, 499.865 371.259, 509.846 370.908, 515.574 370.432, 525.563 369.957, 535.552 369.673, 541.520 369.406, 549.363 369.065, 559.357 368.784, 567.610 368.579, 577.608 368.373, 587.606 368.247, 593.732 368.177, 603.732 368.106, 613.732 368.064, 619.773 368.130, 629.773 368.196, 639.773 368.234, 645.622 368.439, 655.620 368.643, 665.618 368.756, 671.168 369.102, 681.162 369.447, 691.156 369.625, 696.304 370.115, 706.292 370.606, 716.280 370.834, 720.928 371.474, 730.907 372.114, 740.887 372.374, 744.940 373.169, 754.909 373.965, 764.877 374.234, 768.251 375.192, 778.205 376.150, 788.159 376.402, 790.773 377.531, 800.709 378.660, 810.645 378.863, 812.428 380.174, 822.342 381.484, 832.256 381.602, 833.147 383.107, 843.033 384.603, 852.866 386.315, 862.719 387.847, 871.532 389.784, 881.343 390.652, 885.738 391.316, 889.099 393.499, 898.858 393.724, 899.864 394.991, 905.529 397.443, 915.224 398.655, 920.011 398.853, 920.794 399.720, 923.826 402.472, 933.440 402.882, 934.870 405.812, 943.902 407.059, 947.746 410.521, 957.127 411.365, 959.413 415.255, 968.626 415.781, 969.872 417.745, 973.905 420.289, 979.130 424.871, 987.196 429.510, 994.089 434.191, 999.829 438.897, 1004.442 443.615, 1007.955 448.330, 1010.400 453.030, 1011.810 457.704, 1012.221 " fill="none" stroke="rgb(0, 0, 0)" stroke-linecap="butt" stroke-linejoin="round" stroke-opacity="1.0" stroke-width="3.0" />
            <path d=" M 558.565, 348.179 558.162, 344.485 557.960, 342.803 " fill="none" stroke="rgb(0, 0, 0)" stroke-linecap="butt" stroke-linejoin="round" stroke-opacity="1.0" stroke-width="3.0" />
            <path d=" M 482.433, 507.334 482.189, 507.333 481.824, 507.539 481.465, 507.951 481.116, 508.561 480.786, 509.361 480.478, 510.336 480.199, 511.471 479.954, 512.747 479.746, 514.142 479.579, 515.632 479.456, 517.192 479.380, 518.795 479.351, 520.412 479.371, 522.017 479.438, 523.582 481.786, 523.625 " fill="none" stroke="rgb(0, 0, 0)" stroke-linecap="butt" stroke-linejoin="round" stroke-opacity="1.0" stroke-width="3.0" />
            <path d=" M 565.341, 525.150 565.297, 523.569 565.291, 521.946 565.321, 520.310 565.326, 520.167 565.387, 518.690 565.429, 518.039 565.488, 517.112 565.623, 515.605 565.789, 514.194 565.982, 512.903 566.201, 511.754 566.440, 510.767 566.457, 510.714 566.696, 509.957 566.965, 509.339 567.241, 508.921 567.520, 508.711 567.719, 508.712 567.798, 508.712 " fill="none" stroke="rgb(0, 0, 0)" stroke-linecap="butt" stroke-linejoin="round" stroke-opacity="1.0" stroke-width="3.0" />
            <path d=" M 567.982, 520.214 567.956, 519.739 567.917, 519.304 567.864, 518.921 567.801, 518.599 567.791, 518.565 567.728, 518.347 567.648, 518.173 567.563, 518.081 567.474, 518.074 " fill="none" stroke="rgb(0, 0, 0)" stroke-linecap="butt" stroke-linejoin="round" stroke-opacity="1.0" stroke-width="3.0" />
            <path d=" M 529.278, 467.613 529.537, 473.093 529.993, 473.099 535.133, 473.158 535.337, 472.850 534.942, 467.584 529.545, 467.248 529.528, 467.247 529.278, 467.613 " fill="none" stroke="rgb(0, 0, 0)" stroke-linecap="butt" stroke-linejoin="round" stroke-opacity="1.0" stroke-width="3.0" />
            <path d=" M 534.881, 467.674 529.278, 467.613 " fill="none" stroke="rgb(0, 0, 0)" stroke-linecap="butt" stroke-linejoin="round" stroke-opacity="1.0" stroke-width="3.0" />
            <path d=" M 535.133, 473.158 534.881, 467.674 534.942, 467.584 " fill="none" stroke="rgb(0, 0, 0)" stroke-linecap="butt" stroke-linejoin="round" stroke-opacity="1.0" stroke-width="3.0" />
            <path d=" M 531.077, 470.224 531.066, 470.436 531.100, 470.659 531.122, 470.718 531.199, 470.920 531.313, 471.098 531.460, 471.246 531.505, 471.286 531.670, 471.394 531.727, 471.422 531.894, 471.483 531.947, 471.499 532.012, 471.512 532.087, 471.520 532.172, 471.523 532.215, 471.524 532.257, 471.523 532.300, 471.521 532.338, 471.516 532.418, 471.506 532.492, 471.492 532.557, 471.474 532.611, 471.454 532.768, 471.379 532.827, 471.345 532.979, 471.224 533.086, 471.114 " fill="none" stroke="rgb(0, 0, 0)" stroke-linecap="butt" stroke-linejoin="round" stroke-opacity="1.0" stroke-width="3.0" />
            <path d=" M 531.167, 469.919 531.131, 470.018 531.122, 470.051 531.115, 470.078 531.077, 470.224 531.118, 470.065 " fill="none" stroke="rgb(0, 0, 0)" stroke-linecap="butt" stroke-linejoin="round" stroke-opacity="1.0" stroke-width="3.0" />
            <path d=" M 533.086, 471.114 533.176, 470.990 533.246, 470.853 533.295, 470.707 533.322, 470.555 533.327, 470.399 533.308, 470.243 533.267, 470.089 533.204, 469.942 533.121, 469.804 533.020, 469.678 532.901, 469.566 532.769, 469.470 532.625, 469.394 532.473, 469.337 532.315, 469.302 532.155, 469.289 531.996, 469.299 531.842, 469.330 531.695, 469.383 531.558, 469.457 531.434, 469.549 531.327, 469.659 531.237, 469.783 531.167, 469.919 " fill="none" stroke="rgb(0, 0, 0)" stroke-linecap="butt" stroke-linejoin="round" stroke-opacity="1.0" stroke-width="3.0" />
            <path d=" M 631.660, 855.725 633.831, 856.188 641.727, 857.522 649.610, 858.121 657.463, 858.001 665.271, 857.180 673.017, 855.678 680.689, 853.516 688.273, 850.713 695.756, 847.291 703.127, 843.271 710.375, 838.675 717.490, 833.525 724.462, 827.843 731.283, 821.650 737.946, 814.969 744.442, 807.819 750.765, 800.223 756.846, 792.285 756.910, 792.202 762.684, 784.038 762.870, 783.776 768.348, 775.410 768.640, 774.965 773.832, 766.419 774.215, 765.789 779.132, 757.081 779.592, 756.267 784.243, 747.415 784.766, 746.419 789.160, 737.436 789.735, 736.262 793.880, 727.162 794.493, 725.815 798.398, 716.609 799.040, 715.096 802.711, 705.794 803.372, 704.122 806.816, 694.734 807.486, 692.910 810.710, 683.444 811.380, 681.475 814.390, 671.939 815.053, 669.836 817.853, 660.236 818.503, 658.007 821.097, 648.349 821.727, 646.003 824.120, 636.294 824.724, 633.841 826.919, 624.084 827.493, 621.534 829.494, 611.736 830.032, 609.098 831.841, 599.263 832.341, 596.546 833.960, 586.678 834.416, 583.894 835.848, 573.997 836.259, 571.156 837.504, 561.233 837.866, 558.344 838.926, 548.400 839.238, 545.474 840.113, 535.512 840.373, 532.558 841.064, 522.582 841.270, 519.611 841.777, 509.624 841.928, 506.646 842.250, 496.651 842.346, 493.677 842.483, 483.678 842.524, 480.718 842.474, 470.718 842.460, 467.783 842.222, 457.786 842.153, 454.886 841.724, 444.895 841.602, 442.041 840.981, 432.060 840.807, 429.262 839.991, 419.296 839.767, 416.565 838.752, 406.616 838.481, 403.963 837.263, 394.037 836.948, 391.472 835.524, 381.574 835.169, 379.108 833.532, 369.243 833.141, 366.886 831.287, 357.059 830.865, 354.823 828.788, 345.041 828.341, 342.934 826.034, 333.204 825.568, 331.237 823.024, 321.566 822.546, 319.750 819.757, 310.147 819.276, 308.490 816.233, 298.965 815.758, 297.476 812.452, 288.038 811.992, 286.726 808.412, 277.389 807.980, 276.260 804.116, 267.036 803.722, 266.097 799.562, 257.003 799.221, 256.258 794.752, 247.312 794.478, 246.763 789.687, 237.985 789.495, 237.634 784.368, 229.048 784.275, 228.892 778.821, 220.561 773.138, 212.661 767.229, 205.216 761.099, 198.250 754.754, 191.786 748.200, 185.847 741.445, 180.458 734.496, 175.642 727.361, 171.423 720.051, 167.825 712.575, 164.870 704.946, 162.582 697.176, 160.983 689.278, 160.095 681.267, 159.937 673.159, 160.529 670.921, 160.748 " fill="none" stroke="rgb(0, 0, 0)" stroke-linecap="butt" stroke-linejoin="round" stroke-opacity="1.0" stroke-width="3.0" />
            <path d=" M 633.831, 856.188 632.833, 855.924 625.940, 854.101 618.073, 851.247 610.249, 847.613 602.488, 843.189 594.812, 837.964 587.242, 831.934 579.880, 825.165 579.801, 825.092 572.904, 817.851 572.512, 817.439 566.078, 809.783 565.398, 808.975 559.419, 800.959 558.483, 799.705 552.948, 791.376 551.791, 789.636 549.677, 786.075 547.646, 782.654 546.148, 780.130 545.347, 778.782 542.167, 772.792 540.667, 769.966 539.175, 767.155 537.122, 762.830 533.618, 755.449 533.298, 754.776 529.395, 745.569 527.741, 741.667 524.209, 732.311 524.015, 731.798 522.526, 727.854 519.350, 718.371 517.675, 713.367 516.418, 709.110 513.971, 700.819 513.210, 698.241 510.711, 688.558 509.151, 682.514 506.974, 672.754 505.518, 666.228 503.653, 656.403 502.328, 649.428 500.766, 639.550 499.597, 632.162 498.330, 622.243 497.338, 614.484 496.360, 604.532 495.565, 596.447 494.870, 586.472 494.287, 578.110 493.870, 568.118 493.512, 559.531 493.370, 549.532 493.246, 540.772 493.376, 530.773 493.492, 521.897 493.649, 517.970 493.988, 509.525 493.992, 509.428 494.250, 502.968 494.920, 492.990 495.520, 484.050 496.458, 474.095 497.296, 465.208 498.504, 455.282 499.573, 446.506 501.052, 436.616 502.341, 428.007 504.094, 418.162 505.589, 409.772 507.620, 399.980 509.303, 391.862 511.616, 382.133 513.469, 374.335 516.069, 364.678 518.069, 357.245 520.961, 347.673 522.520, 342.513 522.787, 341.630 523.083, 340.647 526.275, 331.170 528.492, 324.589 531.991, 315.222 534.271, 309.118 535.398, 306.388 536.718, 303.193 539.994, 295.258 540.399, 294.275 540.805, 293.384 543.580, 287.288 544.953, 284.270 546.851, 280.100 547.855, 278.097 547.909, 277.989 548.043, 277.721 548.094, 277.619 548.288, 277.233 552.767, 268.292 553.602, 266.627 554.815, 264.426 554.860, 264.344 554.883, 264.302 556.611, 261.168 557.856, 258.910 560.625, 253.886 565.812, 245.337 567.895, 241.906 570.140, 238.549 575.385, 230.707 581.327, 222.665 583.068, 220.309 589.405, 212.574 590.918, 210.727 597.660, 203.341 598.910, 201.972 606.062, 194.983 607.016, 194.051 614.582, 187.512 615.213, 186.967 623.190, 180.937 623.475, 180.722 631.779, 175.313 640.102, 170.735 648.422, 166.979 656.718, 164.034 664.970, 161.889 672.562, 160.628 673.159, 160.529 " fill="none" stroke="rgb(0, 0, 0)" stroke-linecap="butt" stroke-linejoin="round" stroke-opacity="1.0" stroke-width="3.0" />
            <path d=" M 670.921, 160.748 662.721, 162.109 654.459, 164.254 646.152, 167.197 637.822, 170.951 629.489, 175.526 621.176, 180.931 613.193, 186.954 612.904, 187.172 605.332, 193.703 604.699, 194.249 597.540, 201.231 596.583, 202.164 589.835, 209.543 588.584, 210.911 582.239, 218.640 580.726, 220.484 574.775, 228.521 573.035, 230.871 567.469, 239.179 565.539, 242.059 560.344, 250.604 558.262, 254.027 555.334, 259.329 552.387, 264.665 551.233, 266.754 547.661, 273.872 545.223, 278.729 544.478, 280.213 544.245, 280.722 542.891, 283.692 540.523, 288.885 539.565, 290.986 538.707, 292.868 538.021, 294.373 537.455, 295.742 536.451, 298.170 535.910, 299.477 534.588, 302.673 531.889, 309.200 528.384, 318.565 526.105, 324.654 522.909, 334.130 521.771, 337.501 520.694, 340.694 517.798, 350.266 515.677, 357.274 513.074, 366.929 511.075, 374.344 508.759, 384.072 506.908, 391.851 506.217, 395.176 504.183, 404.967 503.192, 409.740 501.436, 419.585 499.944, 427.954 498.462, 437.844 497.176, 446.432 495.966, 456.359 494.900, 465.113 493.961, 475.069 493.245, 482.653 493.125, 483.934 492.455, 493.911 492.275, 496.592 491.857, 502.829 491.671, 507.482 491.591, 509.486 491.300, 516.753 491.216, 518.861 491.101, 521.721 491.101, 521.737 490.972, 531.736 490.858, 540.591 491.001, 550.590 491.127, 559.328 491.546, 569.319 491.906, 577.886 492.604, 587.862 493.188, 596.203 494.170, 606.155 494.966, 614.220 496.237, 624.139 497.230, 631.879 498.797, 641.756 499.967, 649.126 500.508, 651.968 502.379, 661.791 503.163, 665.909 505.346, 675.668 506.803, 682.178 509.308, 691.859 510.868, 697.889 511.447, 699.846 514.285, 709.434 515.340, 713.000 515.805, 714.387 518.988, 723.867 520.198, 727.473 523.738, 736.826 525.422, 741.273 529.333, 750.477 530.987, 754.371 533.141, 758.897 536.633, 766.235 536.873, 766.740 540.208, 773.008 541.706, 775.824 543.054, 778.356 545.738, 782.868 547.239, 785.390 549.274, 788.810 549.507, 789.202 555.051, 797.525 556.208, 799.263 562.195, 807.272 563.133, 808.526 569.574, 816.175 570.257, 816.985 577.160, 824.220 577.556, 824.634 584.924, 831.396 585.007, 831.472 592.588, 837.501 600.274, 842.723 608.046, 847.147 615.881, 850.781 623.759, 853.636 631.660, 855.725 " fill="none" stroke="rgb(0, 0, 0)" stroke-linecap="butt" stroke-linejoin="round" stroke-opacity="1.0" stroke-width="3.0" />
            <path d=" M 770.500, 565.399 770.453, 565.693 768.658, 575.531 768.255, 577.738 766.213, 587.527 765.772, 589.639 763.477, 599.373 763.006, 601.375 760.455, 611.044 759.960, 612.922 757.149, 622.519 756.639, 624.259 753.560, 633.773 753.046, 635.362 749.693, 644.783 749.185, 646.208 745.549, 655.524 745.061, 656.775 741.135, 665.972 740.679, 667.038 736.451, 676.100 736.044, 676.972 731.504, 685.882 731.162, 686.554 726.300, 695.292 726.040, 695.759 720.842, 704.303 720.684, 704.563 715.102, 712.938 709.302, 720.861 703.294, 728.306 697.087, 735.247 690.692, 741.657 684.119, 747.511 677.382, 752.785 670.493, 757.451 663.467, 761.484 656.319, 764.862 649.065, 767.559 641.723, 769.551 634.311, 770.818 626.848, 771.340 623.096, 771.217 " fill="none" stroke="rgb(0, 0, 0)" stroke-linecap="butt" stroke-linejoin="round" stroke-opacity="1.0" stroke-width="3.0" />
            <path d=" M 785.284, 569.689 775.292, 569.301 774.486, 569.269 770.500, 565.399 763.324, 558.434 756.148, 551.469 752.796, 548.215 752.166, 547.602 751.535, 546.989 750.903, 546.374 750.271, 545.759 749.550, 544.909 748.900, 543.836 748.334, 542.559 747.864, 541.104 747.758, 540.638 747.500, 539.497 747.249, 537.770 747.238, 537.620 747.218, 537.343 747.116, 535.956 747.103, 534.089 747.210, 532.207 747.435, 530.354 747.436, 530.344 747.635, 529.285 747.776, 528.539 748.223, 526.825 748.769, 525.235 749.403, 523.800 750.112, 522.548 750.883, 521.502 751.702, 520.681 751.921, 520.531 752.053, 520.441 752.551, 520.101 753.413, 519.772 754.138, 519.604 754.864, 519.436 755.588, 519.267 756.311, 519.099 756.675, 519.015 766.416, 516.757 776.158, 514.500 781.176, 513.337 " fill="none" stroke="rgb(0, 0, 0)" stroke-linecap="butt" stroke-linejoin="round" stroke-opacity="1.0" stroke-width="3.0" />
            <path d=" M 684.108, 227.607 681.017, 227.690 675.768, 227.830 675.561, 227.855 667.357, 228.861 658.899, 230.706 655.390, 231.817 650.421, 233.391 641.954, 236.943 633.528, 241.374 625.173, 246.689 617.174, 252.690 616.922, 252.880 609.370, 259.435 608.800, 259.930 601.693, 266.965 600.834, 267.815 594.177, 275.277 593.059, 276.530 586.857, 284.374 585.514, 286.074 579.764, 294.256 578.234, 296.432 572.929, 304.909 571.257, 307.581 566.383, 316.313 564.613, 319.484 560.152, 328.434 558.327, 332.095 557.024, 335.021 556.332, 336.575 555.799, 337.773 554.122, 341.539 554.122, 341.540 552.659, 344.826 552.420, 345.363 552.285, 345.703 549.800, 351.969 548.380, 355.548 546.916, 359.239 546.678, 359.917 545.294, 363.866 541.986, 373.303 541.851, 373.686 539.741, 380.566 538.367, 385.043 537.258, 388.657 534.696, 398.323 533.952, 401.126 533.165, 404.096 530.964, 413.851 529.591, 419.940 527.743, 429.768 526.666, 435.497 526.549, 436.121 525.043, 446.008 524.044, 452.570 522.871, 462.501 522.068, 469.303 521.209, 479.266 520.614, 486.166 520.067, 496.151 519.898, 499.238 519.688, 503.088 519.681, 503.368 519.676, 503.583 519.443, 513.580 519.358, 517.233 519.319, 518.915 519.294, 519.994 519.306, 521.420 519.322, 523.449 519.397, 532.498 519.399, 532.745 519.433, 536.813 519.833, 546.805 520.101, 553.473 520.824, 563.447 521.293, 569.905 522.345, 579.849 523.000, 586.038 524.158, 594.297 525.212, 601.809 526.286, 607.911 527.913, 617.155 530.002, 626.934 531.087, 632.016 533.267, 640.619 534.716, 646.337 537.554, 655.926 538.779, 660.067 542.012, 669.530 542.295, 670.359 542.473, 670.880 543.252, 673.160 543.293, 673.265 543.814, 674.596 545.868, 679.841 548.112, 685.574 549.983, 689.764 551.089, 692.241 551.548, 693.269 552.583, 695.589 553.334, 697.269 555.630, 701.794 556.144, 702.805 557.167, 704.820 558.890, 708.215 559.158, 708.680 564.153, 717.343 564.753, 718.384 570.236, 726.746 570.895, 727.751 576.885, 735.758 577.289, 736.297 583.799, 743.888 583.905, 744.011 590.715, 750.882 597.692, 756.903 604.807, 762.073 612.034, 766.395 619.346, 769.873 623.096, 771.217 626.719, 772.516 634.127, 774.335 641.546, 775.344 648.954, 775.560 656.330, 774.998 663.653, 773.681 670.905, 771.631 678.066, 768.866 685.120, 765.414 692.051, 761.298 698.845, 756.543 705.486, 751.175 711.963, 745.219 718.264, 738.704 724.377, 731.654 730.293, 724.095 736.001, 716.055 741.432, 707.657 741.495, 707.559 746.579, 698.948 746.765, 698.634 751.518, 689.835 751.805, 689.304 756.239, 680.341 756.608, 679.596 760.736, 670.488 761.168, 669.535 765.000, 660.299 765.479, 659.144 769.027, 649.795 769.537, 648.449 772.809, 639.000 773.338, 637.474 776.342, 627.936 776.876, 626.242 779.620, 616.626 780.148, 614.776 782.639, 605.091 783.152, 603.099 785.395, 593.354 785.883, 591.235 787.883, 581.437 788.339, 579.205 790.100, 569.362 790.517, 567.033 792.043, 557.150 792.416, 554.739 793.710, 544.823 794.033, 542.346 " fill="none" stroke="rgb(0, 0, 0)" stroke-linecap="butt" stroke-linejoin="round" stroke-opacity="1.0" stroke-width="3.0" />
            <path d=" M 781.176, 513.337 791.152, 514.038 791.896, 514.090 " fill="none" stroke="rgb(0, 0, 0)" stroke-linecap="butt" stroke-linejoin="round" stroke-opacity="1.0" stroke-width="3.0" />
            <path d=" M 825.270, 528.944 825.612, 524.545 826.066, 518.703 826.583, 508.716 826.723, 506.013 826.752, 504.885 827.008, 494.888 827.049, 493.312 827.043, 483.312 827.042, 480.621 826.774, 470.625 826.702, 467.965 826.174, 457.979 826.036, 455.365 825.250, 445.396 825.049, 442.841 823.999, 432.897 823.737, 430.417 823.281, 426.995 822.096, 418.118 820.490, 408.248 820.120, 405.973 818.223, 396.154 817.808, 394.007 815.616, 384.250 815.165, 382.244 812.672, 372.560 812.195, 370.708 809.398, 361.107 808.906, 359.416 805.800, 349.910 805.303, 348.389 801.873, 338.996 801.385, 337.659 797.611, 328.399 797.148, 327.262 793.017, 318.155 792.596, 317.227 788.094, 308.298 787.733, 307.583 782.850, 298.856 782.569, 298.354 777.298, 289.856 777.113, 289.557 771.449, 281.316 771.376, 281.210 765.364, 273.348 759.080, 266.010 752.533, 259.234 745.734, 253.049 738.697, 247.480 731.438, 242.545 723.971, 238.256 721.495, 237.086 716.313, 234.638 708.479, 231.732 700.486, 229.574 692.355, 228.193 684.108, 227.607 " fill="none" stroke="rgb(0, 0, 0)" stroke-linecap="butt" stroke-linejoin="round" stroke-opacity="1.0" stroke-width="3.0" />
            <path d=" M 655.390, 231.817 659.204, 233.131 665.554, 236.107 671.733, 239.781 677.731, 244.111 683.537, 249.069 689.139, 254.644 694.524, 260.817 699.684, 267.563 704.610, 274.849 709.297, 282.641 713.744, 290.897 717.947, 299.584 721.899, 308.685 725.525, 318.004 725.593, 318.180 728.877, 327.626 729.024, 328.048 731.983, 337.600 732.187, 338.261 734.840, 347.902 735.084, 348.788 737.449, 358.504 737.715, 359.596 739.811, 369.374 740.086, 370.654 741.920, 380.484 742.192, 381.942 743.769, 391.817 744.029, 393.442 745.354, 403.354 745.592, 405.134 746.672, 415.076 746.881, 416.995 747.724, 426.959 747.897, 428.999 748.512, 438.980 748.644, 441.121 749.040, 451.113 749.128, 453.336 749.311, 463.334 749.353, 465.621 749.321, 475.621 749.314, 477.959 749.066, 487.956 749.008, 490.330 748.545, 500.319 748.434, 502.711 747.758, 512.688 747.596, 515.080 747.041, 521.303 746.787, 522.466 746.482, 523.581 746.128, 524.638 745.728, 525.624 745.288, 526.530 744.810, 527.345 744.301, 528.062 744.231, 528.142 " fill="none" stroke="rgb(0, 0, 0)" stroke-linecap="butt" stroke-linejoin="round" stroke-opacity="1.0" stroke-width="3.0" />
            <path d=" M 719.083, 530.667 719.082, 530.900 719.037, 531.450 727.880, 534.246 737.415, 537.260 745.141, 539.703 747.758, 540.638 " fill="none" stroke="rgb(0, 0, 0)" stroke-linecap="butt" stroke-linejoin="round" stroke-opacity="1.0" stroke-width="3.0" />
            <path d=" M 803.188, 536.882 812.646, 540.130 812.997, 540.251 822.023, 543.352 823.779, 543.955 823.911, 543.995 829.726, 545.768 " fill="none" stroke="rgb(0, 0, 0)" stroke-linecap="butt" stroke-linejoin="round" stroke-opacity="1.0" stroke-width="3.0" />
            <path d=" M 799.280, 544.091 800.003, 544.131 809.988, 544.681 812.126, 544.799 814.057, 544.905 821.811, 545.332 823.757, 545.439 829.726, 545.768 830.755, 535.821 831.089, 532.588 831.862, 522.618 832.115, 519.349 832.632, 509.362 832.802, 506.073 833.063, 496.076 833.149, 492.784 833.153, 482.784 833.154, 479.505 832.899, 469.508 832.817, 466.259 832.302, 456.272 832.137, 453.070 831.358, 443.100 831.113, 439.961 830.067, 430.015 829.745, 426.956 828.428, 417.043 828.034, 414.079 826.440, 404.206 825.979, 401.354 824.102, 391.532 823.581, 388.808 821.415, 379.046 820.842, 376.465 818.378, 366.773 817.762, 364.349 814.993, 354.740 814.344, 352.489 813.372, 349.492 810.588, 340.910 807.178, 331.509 806.500, 329.639 805.685, 327.624 802.081, 318.704 797.985, 309.581 797.335, 308.134 792.878, 299.182 792.268, 297.956 787.437, 289.200 786.884, 288.199 781.665, 279.669 781.190, 278.892 776.239, 271.609 775.192, 270.067 769.488, 262.533 768.898, 261.753 762.437, 254.119 762.317, 253.977 755.460, 246.773 748.336, 240.171 740.959, 234.200 733.342, 228.889 725.499, 224.269 717.447, 220.370 709.203, 217.216 700.787, 214.836 692.218, 213.258 683.520, 212.503 674.715, 212.594 664.720, 212.902 659.459, 213.064 " fill="none" stroke="rgb(0, 0, 0)" stroke-linecap="butt" stroke-linejoin="round" stroke-opacity="1.0" stroke-width="3.0" />
            <path d=" M 674.715, 212.594 669.118, 213.197 665.830, 213.551 660.093, 214.733 656.889, 215.393 647.922, 218.134 638.958, 221.785 630.028, 226.356 621.530, 231.626 621.164, 231.853 613.097, 237.763 612.399, 238.274 604.782, 244.753 603.766, 245.617 596.609, 252.601 595.301, 253.876 588.604, 261.302 587.039, 263.037 580.798, 270.850 579.015, 273.082 573.223, 281.234 571.265, 283.989 565.913, 292.436 563.824, 295.732 558.900, 304.435 556.728, 308.276 554.152, 313.376 551.147, 319.327 551.041, 319.538 550.487, 320.635 550.008, 321.582 549.579, 322.537 545.478, 331.657 543.700, 335.609 543.175, 336.927 541.791, 340.394 538.085, 349.682 537.835, 350.309 534.514, 359.741 532.442, 365.626 529.705, 374.505 527.548, 381.505 524.970, 391.167 523.179, 397.882 520.963, 407.634 519.359, 414.693 517.498, 424.519 516.106, 431.869 514.596, 441.754 513.438, 449.336 " fill="none" stroke="rgb(0, 0, 0)" stroke-linecap="butt" stroke-linejoin="round" stroke-opacity="1.0" stroke-width="3.0" />
            <path d=" M 812.161, 531.090 812.583, 530.442 813.007, 529.672 813.404, 528.825 813.673, 528.154 813.772, 527.909 814.105, 526.931 814.403, 525.898 823.390, 528.418 825.270, 528.944 825.041, 529.535 824.647, 530.385 824.226, 531.160 823.781, 531.853 823.317, 532.458 823.006, 532.789 822.836, 532.970 822.343, 533.385 821.840, 533.699 821.333, 533.908 820.825, 534.010 820.320, 534.002 819.823, 533.883 815.267, 532.222 813.898, 531.723 813.386, 531.536 812.161, 531.090 807.660, 529.449 807.305, 527.964 806.853, 526.618 806.311, 525.435 805.689, 524.432 804.995, 523.629 804.243, 523.038 803.443, 522.670 802.611, 522.532 798.062, 522.266 797.904, 522.256 791.295, 521.869 790.739, 521.837 789.879, 521.930 789.051, 522.256 788.270, 522.811 787.515, 523.583 786.953, 524.350 786.798, 524.560 786.133, 525.726 785.530, 527.060 784.999, 528.542 784.551, 530.144 784.193, 531.841 783.930, 533.602 787.926, 534.958 788.393, 535.117 790.074, 535.225 791.389, 535.309 798.756, 535.782 799.265, 535.815 800.271, 535.879 800.358, 535.321 800.482, 534.792 800.641, 534.307 800.829, 533.878 801.042, 533.518 801.273, 533.236 801.517, 533.040 801.767, 532.936 802.015, 532.925 " fill="none" stroke="rgb(0, 0, 0)" stroke-linecap="butt" stroke-linejoin="round" stroke-opacity="1.0" stroke-width="3.0" />
            <path d=" M 790.074, 535.225 789.341, 542.092 788.044, 552.008 787.724, 554.456 786.142, 564.330 785.284, 569.689 778.157, 562.675 775.911, 560.464 771.895, 556.512 764.768, 549.497 764.293, 549.030 763.669, 548.415 763.044, 547.799 762.419, 547.182 761.793, 546.565 761.079, 545.711 760.436, 544.633 759.876, 543.351 759.414, 541.896 759.412, 541.889 759.053, 540.275 758.806, 538.539 758.698, 537.026 758.676, 536.716 758.664, 534.841 758.773, 532.949 758.998, 531.078 759.157, 530.227 759.337, 529.263 759.782, 527.540 760.325, 525.942 760.955, 524.500 761.660, 523.241 762.425, 522.189 763.237, 521.364 764.079, 520.780 764.934, 520.449 765.653, 520.279 766.372, 520.110 767.090, 519.940 767.807, 519.771 768.167, 519.685 777.900, 517.390 780.918, 516.679 790.651, 514.384 791.896, 514.090 791.295, 521.869 " fill="none" stroke="rgb(0, 0, 0)" stroke-linecap="butt" stroke-linejoin="round" stroke-opacity="1.0" stroke-width="3.0" />
            <path d=" M 511.985, 431.300 512.788, 441.268 513.438, 449.336 512.261, 459.267 511.330, 467.121 510.469, 477.084 509.782, 485.047 509.236, 495.032 508.814, 502.773 508.800, 503.035 508.571, 513.032 508.388, 521.006 508.477, 531.006 508.548, 538.882 508.958, 548.874 509.275, 556.586 510.011, 566.559 510.563, 574.042 511.630, 583.985 512.403, 591.176 513.810, 601.077 514.783, 607.918 516.538, 617.763 517.685, 624.200 519.799, 633.974 521.093, 639.960 522.099, 643.880 524.584, 653.566 524.987, 655.137 527.857, 664.716 529.343, 669.676 532.613, 679.127 534.136, 683.530 537.823, 692.826 539.341, 696.652 540.172, 698.490 543.671, 706.223 544.929, 709.002 547.625, 714.240 549.191, 717.283 550.871, 720.547 553.291, 724.682 554.831, 727.314 556.853, 730.769 557.138, 731.257 562.682, 739.580 563.699, 741.108 569.754, 749.067 570.525, 750.081 577.104, 757.612 577.584, 758.162 584.694, 765.194 584.844, 765.343 592.278, 771.616 599.854, 776.982 607.544, 781.446 615.318, 785.013 623.151, 787.692 631.016, 789.498 638.888, 790.448 646.742, 790.558 654.556, 789.848 662.308, 788.343 669.979, 786.065 677.548, 783.038 684.999, 779.289 692.314, 774.847 699.479, 769.737 706.478, 763.987 713.299, 757.626 719.929, 750.683 726.357, 743.185 732.482, 735.280 732.574, 735.161 738.327, 726.982 738.569, 726.639 743.966, 718.221 744.334, 717.648 749.388, 709.020 749.861, 708.214 754.586, 699.401 755.143, 698.364 759.553, 689.389 760.173, 688.126 764.280, 679.008 764.947, 677.527 768.760, 668.282 769.458, 666.590 772.988, 657.234 773.702, 655.342 776.959, 645.887 777.675, 643.808 780.665, 634.266 781.372, 632.013 784.104, 622.394 784.789, 619.980 787.270, 610.292 787.925, 607.733 790.159, 597.986 790.776, 595.295 792.769, 585.496 793.339, 582.690 795.094, 572.845 795.612, 569.939 797.133, 560.055 797.593, 557.065 798.882, 547.149 799.280, 544.091 794.033, 542.346 799.187, 542.625 809.173, 543.165 812.669, 543.354 812.290, 543.225 802.820, 540.012 799.539, 538.898 798.940, 538.695 791.340, 536.117 791.387, 535.550 791.389, 535.309 " fill="none" stroke="rgb(0, 0, 0)" stroke-linecap="butt" stroke-linejoin="round" stroke-opacity="1.0" stroke-width="3.0" />
            <path d=" M 764.676, 537.420 764.362, 537.318 764.072, 537.071 763.819, 536.690 763.614, 536.190 763.467, 535.596 763.383, 534.932 763.366, 534.228 763.418, 533.515 763.535, 532.823 763.714, 532.184 763.945, 531.624 764.218, 531.170 764.523, 530.841 764.844, 530.650 765.169, 530.606 " fill="none" stroke="rgb(0, 0, 0)" stroke-linecap="butt" stroke-linejoin="round" stroke-opacity="1.0" stroke-width="3.0" />
            <path d=" M 765.169, 530.606 765.482, 530.713 765.771, 530.962 766.022, 531.345 766.226, 531.843 766.373, 532.436 766.456, 533.097 766.472, 533.799 766.421, 534.510 766.304, 535.199 766.127, 535.837 765.897, 536.395 765.625, 536.850 765.321, 537.181 765.000, 537.374 764.676, 537.420 " fill="none" stroke="rgb(0, 0, 0)" stroke-linecap="butt" stroke-linejoin="round" stroke-opacity="1.0" stroke-width="3.0" />
            <path d=" M 503.936, 466.622 503.073, 476.585 502.334, 485.128 501.788, 495.113 501.319, 503.698 501.255, 506.493 501.028, 516.490 500.896, 522.249 500.989, 532.248 501.067, 540.698 501.482, 550.690 501.825, 558.965 502.568, 568.938 503.166, 576.971 504.242, 586.913 505.079, 594.637 506.497, 604.536 507.551, 611.891 509.319, 621.733 510.564, 628.662 512.694, 638.433 514.101, 644.885 516.605, 654.567 518.139, 660.497 520.398, 667.975 522.655, 675.443 525.950, 684.884 527.620, 689.671 531.336, 698.955 533.010, 703.135 537.165, 712.231 538.517, 715.190 538.793, 715.794 542.089, 722.132 544.940, 727.616 545.968, 729.353 547.557, 732.040 551.419, 738.570 551.663, 738.932 553.226, 741.251 555.288, 744.311 558.199, 748.631 564.301, 756.553 565.248, 757.782 571.877, 765.269 572.533, 766.010 579.695, 772.989 580.023, 773.308 587.687, 779.669 595.494, 785.095 603.413, 789.592 611.416, 793.168 619.476, 795.832 627.564, 797.602 635.656, 798.495 643.726, 798.529 651.753, 797.726 659.713, 796.111 667.586, 793.708 675.354, 790.543 682.997, 786.643 690.500, 782.038 697.847, 776.755 705.023, 770.820 712.015, 764.266 718.811, 757.122 725.309, 749.521 725.400, 749.414 731.515, 741.502 731.770, 741.173 737.518, 732.990 737.914, 732.427 743.308, 724.006 743.822, 723.204 748.875, 714.575 749.486, 713.532 754.212, 704.720 754.899, 703.439 759.311, 694.465 760.055, 692.952 764.164, 683.835 764.948, 682.097 768.764, 672.854 769.571, 670.900 773.106, 661.546 773.921, 659.387 777.183, 649.934 777.993, 647.584 780.989, 638.043 781.783, 635.515 784.520, 625.896 785.286, 623.203 787.771, 613.516 788.501, 610.673 790.739, 600.927 791.423, 597.950 793.418, 588.151 794.049, 585.055 795.806, 575.211 796.377, 572.012 797.900, 562.129 798.405, 558.844 799.695, 548.928 800.131, 545.573 800.003, 544.131 " fill="none" stroke="rgb(0, 0, 0)" stroke-linecap="butt" stroke-linejoin="round" stroke-opacity="1.0" stroke-width="3.0" />
            <path d=" M 659.459, 213.064 656.701, 213.372 651.373, 213.966 643.220, 215.753 635.025, 218.439 626.816, 222.037 618.621, 226.557 610.468, 232.006 602.619, 238.202 602.389, 238.384 595.015, 245.138 594.415, 245.687 587.516, 252.927 586.578, 253.911 580.148, 261.570 578.911, 263.043 572.937, 271.063 571.447, 273.064 565.917, 281.395 564.220, 283.952 559.118, 292.552 557.263, 295.680 552.794, 304.099 550.610, 308.214 549.593, 310.354 548.674, 312.290 548.163, 313.365 547.980, 313.750 544.291, 321.515 541.607, 327.840 540.226, 331.095 538.340, 335.540 534.806, 344.895 532.786, 350.240 529.612, 359.723 527.891, 364.865 527.658, 365.561 524.833, 375.153 522.981, 381.443 520.498, 391.130 518.781, 397.827 516.632, 407.593 515.080, 414.644 513.253, 424.476 511.985, 431.300 508.716, 440.751 506.118, 448.262 " fill="none" stroke="rgb(0, 0, 0)" stroke-linecap="butt" stroke-linejoin="round" stroke-opacity="1.0" stroke-width="3.0" />
            <path d=" M 506.118, 448.262 504.938, 458.192 503.936, 466.622 " fill="none" stroke="rgb(0, 0, 0)" stroke-linecap="butt" stroke-linejoin="round" stroke-opacity="1.0" stroke-width="3.0" />
            <path d=" M 813.372, 349.492 811.000, 339.777 810.810, 338.999 808.195, 329.347 807.896, 328.246 805.030, 318.666 804.747, 317.717 801.622, 308.217 801.362, 307.427 797.971, 298.019 797.745, 297.393 794.076, 288.090 793.896, 287.633 789.939, 278.450 789.818, 278.167 785.560, 269.119 785.510, 269.015 780.976, 260.197 776.216, 251.738 771.234, 243.656 766.035, 235.970 760.623, 228.697 755.004, 221.857 749.182, 215.472 743.164, 209.564 736.954, 204.156 730.561, 199.273 723.992, 194.939 717.255, 191.174 710.362, 187.994 703.322, 185.417 696.146, 183.462 688.848, 182.149 681.438, 181.498 673.933, 181.528 671.884, 181.725 666.346, 182.260 658.694, 183.711 650.994, 185.891 643.262, 188.807 635.518, 192.468 627.781, 196.881 620.070, 202.052 612.407, 207.986 604.909, 214.603 604.814, 214.687 599.549, 219.932 597.315, 222.157 590.639, 229.603 590.078, 230.229 589.933, 230.390 583.657, 238.175 582.691, 239.374 576.803, 247.456 575.610, 249.094 570.098, 257.438 568.713, 259.535 568.118, 260.526 562.972, 269.101 562.025, 270.679 557.233, 279.457 555.569, 282.506 551.122, 291.463 550.870, 291.970 549.369, 294.992 547.644, 298.815 546.255, 301.896 545.395, 303.801 544.655, 305.442 543.451, 308.112 539.655, 317.390 538.313, 320.672 537.837, 321.833 534.364, 331.211 532.546, 336.117 529.376, 345.601 527.598, 350.924 526.078, 355.991 523.204, 365.569 523.011, 366.213 520.429, 375.874 518.807, 381.941 516.510, 391.674 515.002, 398.061 512.984, 407.855 511.610, 414.523 509.867, 424.370 508.645, 431.274 507.174, 441.165 506.118, 448.262 504.918, 458.190 504.042, 465.432 503.936, 466.622 503.000, 476.578 502.421, 482.728 501.756, 492.706 501.263, 500.093 500.992, 506.890 500.594, 516.882 500.571, 517.469 500.442, 527.468 500.347, 534.799 500.488, 544.798 500.590, 552.028 501.004, 562.019 501.297, 569.098 501.985, 579.075 502.461, 585.957 503.430, 595.910 504.076, 602.551 505.334, 612.471 506.139, 618.825 507.691, 628.704 508.639, 634.732 510.491, 644.559 511.559, 650.226 513.718, 659.990 514.884, 665.263 517.360, 674.952 518.599, 679.804 519.210, 681.896 522.012, 691.496 522.688, 693.810 525.828, 703.304 527.132, 707.246 530.625, 716.617 531.916, 720.079 535.776, 729.304 536.697, 731.503 537.021, 732.277 540.190, 739.041 542.427, 743.814 543.877, 746.584 545.399, 749.491 548.111, 754.672 549.415, 756.902 550.933, 759.501 552.950, 762.952 554.050, 764.834 559.517, 773.208 560.222, 774.288 566.122, 782.362 566.605, 783.022 572.950, 790.751 573.177, 791.027 579.919, 798.295 586.810, 804.820 593.830, 810.598 600.958, 815.632 608.174, 819.930 615.455, 823.502 622.784, 826.358 630.061, 828.484 630.143, 828.508 637.514, 829.963 644.882, 830.733 652.231, 830.829 659.546, 830.264 666.812, 829.058 674.015, 827.232 681.143, 824.805 688.183, 821.798 695.124, 818.229 701.957, 814.115 708.670, 809.475 715.255, 804.323 721.702, 798.678 728.004, 792.564 734.154, 786.003 740.145, 779.015 745.971, 771.621 751.627, 763.838 757.107, 755.685 762.404, 747.177 767.407, 738.518 767.515, 738.329 772.244, 729.518 772.435, 729.162 776.901, 720.214 777.161, 719.694 781.374, 710.624 781.690, 709.944 785.658, 700.765 786.019, 699.930 789.750, 690.652 790.145, 689.669 793.645, 680.301 794.066, 679.175 797.340, 669.727 797.778, 668.464 800.831, 658.942 801.278, 657.550 804.115, 647.961 804.563, 646.447 807.192, 636.799 807.634, 635.174 810.058, 625.472 810.489, 623.745 812.711, 613.995 813.126, 612.175 815.150, 602.382 815.543, 600.477 817.370, 590.645 817.738, 588.666 819.372, 578.800 819.710, 576.755 821.153, 566.860 821.459, 564.759 822.711, 554.838 822.982, 552.692 823.757, 545.439 " fill="none" stroke="rgb(0, 0, 0)" stroke-linecap="butt" stroke-linejoin="round" stroke-opacity="1.0" stroke-width="3.0" />
            <path d=" M 671.692, 181.726 664.095, 182.459 656.433, 183.910 648.723, 186.090 640.982, 189.005 633.229, 192.664 625.482, 197.073 617.762, 202.240 610.090, 208.169 602.586, 214.779 602.489, 214.865 595.398, 221.915 594.983, 222.328 594.058, 223.357 587.593, 230.553 584.044, 234.947 580.343, 239.528 574.448, 247.605 573.256, 249.239 567.737, 257.578 566.353, 259.669 565.912, 260.403 565.846, 260.513 565.536, 261.028 565.506, 261.079 560.353, 269.648 559.659, 270.802 558.245, 273.388 553.446, 282.161 553.197, 282.616 550.273, 288.494 546.994, 295.087 546.993, 295.089 545.600, 298.170 544.291, 301.068 543.532, 302.746 541.070, 308.194 538.887, 313.521 537.544, 316.800 535.453, 321.901 531.974, 331.276 530.158, 336.169 526.983, 345.652 525.206, 350.959 525.077, 351.391 522.199, 360.968 520.618, 366.231 518.031, 375.891 516.411, 381.941 514.111, 391.673 512.605, 398.043 510.584, 407.837 509.212, 414.486 507.467, 424.332 506.247, 431.218 504.774, 441.109 503.720, 448.187 502.519, 458.114 501.644, 465.337 500.711, 475.294 500.025, 482.613 499.360, 492.591 498.869, 499.958 498.471, 509.950 498.440, 510.742 498.178, 517.314 498.050, 527.313 497.957, 534.625 498.100, 544.624 498.203, 551.834 498.619, 561.825 498.913, 568.886 499.605, 578.862 500.081, 585.726 501.054, 595.678 501.701, 602.301 502.963, 612.221 503.769, 618.558 505.326, 628.436 506.273, 634.448 508.131, 644.274 509.199, 649.925 511.364, 659.688 512.531, 664.947 515.013, 674.634 516.252, 679.473 518.666, 687.721 520.347, 693.465 523.495, 702.957 524.799, 706.888 528.299, 716.256 529.590, 719.709 533.459, 728.930 534.703, 731.896 536.259, 735.210 539.759, 742.661 540.117, 743.423 543.455, 749.784 544.979, 752.689 545.809, 754.271 549.042, 759.789 550.547, 762.359 551.757, 764.425 552.576, 765.677 557.938, 773.872 563.846, 781.940 564.329, 782.600 570.683, 790.322 570.911, 790.599 577.662, 797.863 584.562, 804.384 591.593, 810.159 598.731, 815.191 605.956, 819.489 613.247, 823.061 620.586, 825.917 627.955, 828.069 " fill="none" stroke="rgb(0, 0, 0)" stroke-linecap="butt" stroke-linejoin="round" stroke-opacity="1.0" stroke-width="3.0" />
            <path d=" M 673.933, 181.528 671.692, 181.726 " fill="none" stroke="rgb(0, 0, 0)" stroke-linecap="butt" stroke-linejoin="round" stroke-opacity="1.0" stroke-width="3.0" />
            <path d=" M 627.955, 828.069 630.143, 828.508 " fill="none" stroke="rgb(0, 0, 0)" stroke-linecap="butt" stroke-linejoin="round" stroke-opacity="1.0" stroke-width="3.0" />
            <path d=" M 488.164, 444.895 486.951, 454.821 486.498, 458.525 485.760, 464.562 484.819, 474.518 483.888, 484.377 483.219, 494.355 482.554, 504.273 482.433, 507.334 482.061, 516.690 481.904, 520.657 481.786, 523.625 481.764, 524.178 481.640, 534.177 481.518, 544.025 481.669, 554.024 481.816, 563.745 482.246, 573.736 482.655, 583.270 483.366, 593.245 484.028, 602.535 485.025, 612.485 485.926, 621.475 487.216, 631.392 488.339, 640.030 489.927, 649.903 491.252, 658.141 493.147, 667.960 494.651, 675.753 496.862, 685.505 498.518, 692.813 501.054, 702.486 502.834, 709.275 505.707, 718.853 507.578, 725.093 510.799, 734.560 512.511, 739.591 512.728, 740.228 514.251, 744.197 517.834, 753.533 518.260, 754.644 521.236, 761.547 524.151, 768.309 528.499, 777.314 529.563, 779.517 529.908, 780.230 530.258, 780.956 530.375, 781.197 531.037, 782.422 533.475, 786.934 536.907, 793.284 536.974, 793.395 538.127, 795.301 538.501, 795.920 539.614, 797.759 542.576, 802.657 543.202, 803.693 543.721, 804.551 544.063, 805.055 546.176, 808.174 550.791, 814.983 556.850, 822.939 558.092, 824.570 564.609, 832.155 565.596, 833.304 572.579, 840.463 573.280, 841.182 580.728, 847.855 581.117, 848.204 589.084, 854.371 597.156, 859.690 605.311, 864.169 613.525, 867.818 621.779, 870.651 630.050, 872.682 634.366, 873.635 642.614, 874.875 650.842, 875.346 659.033, 875.067 667.170, 874.060 675.238, 872.344 683.223, 869.943 691.110, 866.878 698.887, 863.172 706.542, 858.850 714.064, 853.933 721.444, 848.446 728.672, 842.411 735.739, 835.852 742.637, 828.792 749.292, 821.328 749.360, 821.252 755.691, 813.512 755.900, 813.257 761.918, 805.270 762.252, 804.827 767.967, 796.620 768.410, 795.983 773.832, 787.581 774.370, 786.748 779.510, 778.170 780.126, 777.141 784.994, 768.406 785.675, 767.183 790.280, 758.307 791.013, 756.894 795.364, 747.890 796.136, 746.291 800.242, 737.173 801.043, 735.395 804.911, 726.174 805.729, 724.224 809.366, 714.909 810.192, 712.794 813.606, 703.395 814.431, 701.124 817.627, 691.648 818.443, 689.229 821.426, 679.685 822.225, 677.128 825.002, 667.521 825.778, 664.835 828.351, 655.172 829.098, 652.367 831.472, 642.653 832.185, 639.739 834.364, 629.979 835.037, 626.965 837.023, 617.164 837.652, 614.061 839.449, 604.224 840.030, 601.042 841.640, 591.172 842.170, 587.920 843.594, 578.022 844.070, 574.712 845.309, 564.789 845.729, 561.430 846.785, 551.486 847.146, 548.089 848.020, 538.128 848.321, 534.703 849.012, 524.727 849.251, 521.284 849.760, 511.297 849.936, 507.848 850.263, 497.853 850.376, 494.407 850.519, 484.408 850.569, 480.976 850.527, 470.976 850.513, 467.569 850.286, 457.571 850.209, 454.199 849.793, 444.208 849.655, 440.881 849.048, 430.900 848.850, 427.630 848.050, 417.662 847.793, 414.459 846.796, 404.509 846.483, 401.385 845.286, 391.457 844.920, 388.423 843.518, 378.521 843.103, 375.587 841.492, 365.717 841.031, 362.894 839.205, 353.062 838.703, 350.361 836.656, 340.572 836.119, 338.004 833.845, 328.266 833.278, 325.840 830.770, 316.160 830.181, 313.888 827.430, 304.273 826.827, 302.165 823.825, 292.626 823.216, 290.690 819.954, 281.237 819.349, 279.484 815.816, 270.128 815.226, 268.564 811.412, 259.320 810.848, 257.953 806.741, 248.835 806.217, 247.671 801.804, 238.697 801.333, 237.739 796.602, 228.929 796.200, 228.180 791.136, 219.556 790.819, 219.016 785.409, 210.606 785.193, 210.270 779.422, 202.103 779.326, 201.967 773.222, 194.130 766.886, 186.784 760.322, 179.954 753.538, 173.664 746.540, 167.941 739.335, 162.809 731.933, 158.295 724.343, 154.423 716.575, 151.218 708.641, 148.706 700.555, 146.911 692.328, 145.856 683.978, 145.563 675.519, 146.054 671.064, 146.518 662.491, 147.814 653.847, 149.931 645.149, 152.886 636.421, 156.692 627.683, 161.363 619.243, 166.726 618.958, 166.907 610.918, 172.853 610.272, 173.332 602.643, 179.798 601.648, 180.641 594.435, 187.567 593.113, 188.836 586.313, 196.168 584.695, 197.912 578.301, 205.601 576.420, 207.864 570.424, 215.867 568.316, 218.681 562.707, 226.960 560.412, 230.348 555.178, 238.869 552.735, 242.846 547.865, 251.580 545.316, 256.152 544.480, 257.802 541.714, 263.264 540.861, 264.947 540.747, 265.173 540.637, 265.390 540.622, 265.420 539.492, 267.651 538.182, 270.238 536.797, 273.248 535.454, 276.170 533.558, 280.293 532.561, 282.461 532.032, 283.610 531.360, 285.072 530.743, 286.551 527.847, 293.497 525.640, 298.792 524.879, 300.618 524.363, 301.985 520.835, 311.342 518.764, 316.834 517.225, 321.362 514.008, 330.831 513.041, 333.677 510.667, 341.470 507.734, 351.097 505.115, 360.748 502.865, 369.041 500.537, 378.766 498.456, 387.454 496.412, 397.242 494.526, 406.275 492.761, 416.118 491.090, 425.444 490.791, 427.432 489.303, 437.320 489.195, 438.041 488.164, 444.895 " fill="none" stroke="rgb(0, 0, 0)" stroke-linecap="butt" stroke-linejoin="round" stroke-opacity="1.0" stroke-width="3.0" />
            <path d=" M 675.519, 146.054 666.969, 147.348 658.346, 149.466 649.671, 152.422 640.963, 156.232 632.246, 160.908 623.815, 166.286 623.542, 166.460 615.513, 172.421 614.874, 172.895 607.258, 179.375 606.269, 180.216 599.069, 187.156 597.753, 188.425 590.967, 195.770 589.351, 197.518 582.972, 205.219 581.092, 207.489 575.111, 215.503 573.003, 218.326 567.409, 226.615 565.113, 230.016 559.894, 238.546 557.451, 242.539 552.594, 251.281 550.043, 255.873 546.347, 263.198 545.796, 264.288 545.329, 265.215 542.920, 269.989 542.300, 271.341 540.949, 274.290 536.783, 283.381 536.182, 284.694 536.108, 284.854 535.299, 286.801 533.781, 290.456 532.485, 293.576 529.636, 300.434 526.118, 309.795 523.528, 316.687 520.321, 326.158 519.431, 328.787 517.812, 333.567 514.907, 343.135 512.511, 351.026 509.900, 360.679 507.646, 369.011 506.866, 372.280 504.645, 381.584 503.991, 384.323 503.240, 387.466 501.202, 397.255 499.312, 406.330 498.883, 408.729 497.123, 418.573 495.877, 425.543 494.393, 435.432 492.951, 445.039 492.708, 447.026 491.497, 456.952 491.283, 458.702 490.545, 464.752 489.605, 474.707 488.670, 484.613 488.001, 494.590 487.351, 504.290 487.333, 504.554 487.219, 507.410 487.139, 509.413 486.850, 516.676 486.766, 518.783 486.569, 523.712 486.538, 524.505 486.411, 534.504 486.286, 544.397 486.382, 550.893 486.530, 560.892 486.568, 563.522 486.578, 564.162 487.002, 574.153 487.409, 583.731 488.113, 593.706 488.773, 603.038 489.763, 612.989 490.661, 622.021 491.942, 631.938 493.063, 640.616 494.642, 650.490 495.965, 658.765 497.849, 668.586 499.351, 676.414 501.550, 686.169 503.205, 693.510 505.467, 702.184 507.506, 710.004 510.365, 719.587 512.235, 725.854 513.771, 730.392 516.978, 739.864 517.369, 741.017 520.936, 750.359 522.884, 755.460 526.827, 764.650 528.758, 769.150 530.948, 773.706 534.422, 780.933 534.964, 782.060 537.929, 787.572 539.419, 790.341 541.477, 794.166 543.445, 797.434 544.939, 799.916 546.993, 803.326 548.272, 805.451 553.866, 813.740 555.323, 815.899 561.365, 823.867 562.603, 825.499 569.105, 833.096 570.087, 834.244 577.056, 841.416 577.750, 842.130 585.186, 848.816 585.566, 849.158 593.511, 855.329 601.561, 860.651 609.693, 865.130 617.886, 868.778 626.116, 871.608 634.366, 873.635 " fill="none" stroke="rgb(0, 0, 0)" stroke-linecap="butt" stroke-linejoin="round" stroke-opacity="1.0" stroke-width="3.0" />
            <path d=" M 747.635, 529.285 744.231, 528.142 734.814, 524.981 734.429, 523.539 733.943, 522.232 733.364, 521.081 732.702, 520.105 731.968, 519.323 731.173, 518.746 730.331, 518.385 729.456, 518.247 719.473, 517.663 718.297, 517.594 717.397, 517.681 716.528, 517.993 715.707, 518.527 714.914, 519.272 714.163, 520.216 713.468, 521.343 712.839, 522.634 712.289, 524.068 711.825, 525.620 711.458, 527.263 711.192, 528.970 715.916, 530.463 719.083, 530.667 727.080, 531.180 727.168, 530.639 727.296, 530.127 727.461, 529.657 727.657, 529.242 727.880, 528.894 728.123, 528.622 728.380, 528.434 728.644, 528.334 728.907, 528.325 " fill="none" stroke="rgb(0, 0, 0)" stroke-linecap="butt" stroke-linejoin="round" stroke-opacity="1.0" stroke-width="3.0" />
            <path d=" M 729.456, 518.247 728.562, 518.335 727.699, 518.650 726.884, 519.187 726.097, 519.936 725.351, 520.885 724.660, 522.018 724.035, 523.316 723.487, 524.757 723.026, 526.317 722.668, 527.933 722.660, 527.968 722.395, 529.683 " fill="none" stroke="rgb(0, 0, 0)" stroke-linecap="butt" stroke-linejoin="round" stroke-opacity="1.0" stroke-width="3.0" />
            <path d=" M 711.192, 528.970 718.982, 529.466 722.395, 529.683 727.080, 531.180 " fill="none" stroke="rgb(0, 0, 0)" stroke-linecap="butt" stroke-linejoin="round" stroke-opacity="1.0" stroke-width="3.0" />
            <path d=" M 728.907, 528.325 729.162, 528.408 729.403, 528.579 729.623, 528.835 729.815, 529.169 729.975, 529.570 730.099, 530.028 730.182, 530.531 730.223, 531.066 730.221, 531.617 730.175, 532.169 " fill="none" stroke="rgb(0, 0, 0)" stroke-linecap="butt" stroke-linejoin="round" stroke-opacity="1.0" stroke-width="3.0" />
            <path d=" M 719.037, 531.450 729.016, 532.094 730.175, 532.169 739.701, 535.212 745.626, 537.104 747.238, 537.620 " fill="none" stroke="rgb(0, 0, 0)" stroke-linecap="butt" stroke-linejoin="round" stroke-opacity="1.0" stroke-width="3.0" />
            <path d=" M 802.611, 522.532 801.758, 522.626 800.937, 522.955 800.163, 523.513 799.414, 524.290 798.704, 525.272 798.155, 526.245 798.044, 526.444 797.445, 527.786 796.918, 529.275 796.472, 530.886 796.123, 532.555 796.115, 532.591 795.854, 534.362 " fill="none" stroke="rgb(0, 0, 0)" stroke-linecap="butt" stroke-linejoin="round" stroke-opacity="1.0" stroke-width="3.0" />
            <path d=" M 783.930, 533.602 791.301, 534.072 795.854, 534.362 798.729, 535.350 800.271, 535.879 " fill="none" stroke="rgb(0, 0, 0)" stroke-linecap="butt" stroke-linejoin="round" stroke-opacity="1.0" stroke-width="3.0" />
            <path d=" M 802.015, 532.925 802.256, 533.009 802.482, 533.185 802.688, 533.448 802.868, 533.790 803.016, 534.203 803.130, 534.675 803.205, 535.193 803.241, 535.744 803.235, 536.312 803.188, 536.882 798.808, 536.599 791.340, 536.117 " fill="none" stroke="rgb(0, 0, 0)" stroke-linecap="butt" stroke-linejoin="round" stroke-opacity="1.0" stroke-width="3.0" />
            <path d=" M 787.024, 499.986 787.225, 500.064 787.406, 500.184 787.558, 500.341 787.677, 500.529 787.759, 500.744 787.799, 500.979 787.793, 501.230 787.744, 501.465 787.654, 501.688 787.527, 501.893 787.368, 502.070 787.182, 502.214 786.975, 502.319 786.752, 502.382 786.518, 502.396 786.359, 502.375 " fill="none" stroke="rgb(0, 0, 0)" stroke-linecap="butt" stroke-linejoin="round" stroke-opacity="1.0" stroke-width="3.0" />
            <path d=" M 787.024, 499.986 787.000, 499.978 786.991, 499.976 786.969, 499.970 786.932, 499.963 786.890, 499.955 786.845, 499.949 786.798, 499.943 786.751, 499.939 786.704, 499.936 786.664, 499.935 786.630, 499.935 786.602, 499.936 786.396, 499.967 786.356, 499.973 786.143, 500.052 786.109, 500.065 785.906, 500.189 785.731, 500.350 785.590, 500.544 785.576, 500.571 785.473, 500.795 785.417, 501.042 785.412, 501.280 785.455, 501.514 785.542, 501.735 785.672, 501.935 785.695, 501.960 785.857, 502.127 786.051, 502.259 786.206, 502.330 786.273, 502.350 786.359, 502.375 " fill="none" stroke="rgb(0, 0, 0)" stroke-linecap="butt" stroke-linejoin="round" stroke-opacity="1.0" stroke-width="3.0" />
            <path d=" M 784.209, 497.983 783.481, 504.084 784.401, 504.228 786.828, 504.330 789.770, 504.454 789.992, 498.312 789.853, 498.258 787.059, 498.122 784.209, 497.983 " fill="none" stroke="rgb(0, 0, 0)" stroke-linecap="butt" stroke-linejoin="round" stroke-opacity="1.0" stroke-width="3.0" />
            <path d=" M 783.481, 504.084 789.125, 504.374 " fill="none" stroke="rgb(0, 0, 0)" stroke-linecap="butt" stroke-linejoin="round" stroke-opacity="1.0" stroke-width="3.0" />
            <path d=" M 789.770, 504.454 789.125, 504.374 789.853, 498.258 " fill="none" stroke="rgb(0, 0, 0)" stroke-linecap="butt" stroke-linejoin="round" stroke-opacity="1.0" stroke-width="3.0" />
            <path d=" M 727.880, 534.246 727.279, 534.144 717.446, 532.325 715.832, 532.026 706.026, 530.069 704.397, 529.744 694.615, 527.671 692.968, 527.322 683.206, 525.153 681.536, 524.782 671.792, 522.537 670.098, 522.147 660.366, 519.846 658.645, 519.439 648.923, 517.100 647.173, 516.679 637.456, 514.320 635.676, 513.889 625.959, 511.528 624.148, 511.088 614.427, 508.742 612.583, 508.297 602.854, 505.983 600.976, 505.536 591.236, 503.271 589.322, 502.826 579.567, 500.626 577.616, 500.186 577.211, 490.194 577.052, 486.261 576.519, 476.275 576.318, 472.494 575.653, 462.516 575.413, 458.907 574.610, 448.939 574.335, 445.521 573.389, 435.566 573.084, 432.359 571.988, 422.420 571.659, 419.444 570.404, 409.523 570.060, 406.800 568.637, 396.902 568.285, 394.452 566.684, 384.581 566.334, 382.427 564.542, 372.589 564.207, 370.751 562.209, 360.952 561.903, 359.451 559.683, 349.701 559.423, 348.560 557.960, 342.803 556.766, 338.104 556.332, 336.575 " fill="none" stroke="rgb(0, 0, 0)" stroke-linecap="butt" stroke-linejoin="round" stroke-opacity="1.0" stroke-width="3.0" />
            <path d=" M 536.083, 264.920 534.869, 264.741 532.818, 264.438 528.278, 263.768 526.168, 263.263 523.904, 262.720 520.087, 261.807 514.559, 259.970 512.180, 259.180 507.058, 257.479 " fill="none" stroke="rgb(0, 0, 0)" stroke-linecap="butt" stroke-linejoin="round" stroke-opacity="1.0" stroke-width="3.0" />
            <path d=" M 507.058, 257.479 502.223, 256.826 497.284, 257.154 492.252, 258.493 487.239, 260.831 487.140, 260.877 483.620, 263.229 481.963, 264.336 477.316, 268.391 476.738, 268.895 471.482, 274.573 468.852, 277.975 466.213, 281.389 460.951, 289.358 460.460, 290.214 456.164, 297.702 455.717, 298.482 451.215, 307.411 450.534, 308.763 446.453, 317.892 445.423, 320.195 441.719, 329.483 440.411, 332.764 437.045, 342.181 435.520, 346.447 432.461, 355.968 430.776, 361.214 427.999, 370.821 426.205, 377.028 423.688, 386.706 421.831, 393.842 419.555, 403.579 417.680, 411.598 415.629, 421.386 413.775, 430.233 411.938, 440.063 410.142, 449.675 408.507, 459.540 406.873, 469.406 406.801, 469.842 405.361, 479.738 403.921, 489.634 403.773, 490.645 402.521, 500.567 401.269, 510.488 401.079, 511.991 400.010, 521.933 398.940, 531.876 398.736, 533.778 397.845, 543.738 396.954, 553.698 396.757, 555.901 396.042, 565.875 395.327, 575.849 395.155, 578.249 394.615, 588.235 394.075, 598.220 393.941, 600.712 393.576, 610.705 393.211, 620.698 393.121, 623.174 392.932, 633.172 392.743, 643.170 392.699, 645.521 392.688, 655.521 392.678, 665.521 392.676, 667.641 392.848, 677.640 393.020, 687.638 393.050, 689.423 393.410, 699.417 393.769, 709.410 393.818, 710.761 394.371, 720.746 394.925, 730.731 394.970, 731.553 395.726, 741.525 396.482, 751.496 396.498, 751.701 396.522, 751.597 398.754, 741.850 400.986, 732.102 402.083, 727.315 402.227, 726.714 404.560, 716.990 406.893, 707.266 407.781, 703.566 410.217, 693.868 412.654, 684.169 413.593, 680.435 416.136, 670.764 418.680, 661.093 419.519, 657.903 422.173, 648.261 424.826, 638.620 425.561, 635.949 428.327, 626.339 431.093, 616.729 431.719, 614.555 434.600, 604.979 437.482, 595.403 437.994, 593.701 440.993, 584.162 443.993, 574.622 444.387, 573.371 447.507, 563.870 450.628, 554.370 450.899, 553.545 454.143, 544.086 457.387, 534.627 457.531, 534.206 460.901, 524.791 464.285, 515.337 467.783, 505.969 471.162, 496.921 474.791, 487.603 478.164, 478.941 481.924, 469.675 485.291, 461.380 486.498, 458.525 " fill="none" stroke="rgb(0, 0, 0)" stroke-linecap="butt" stroke-linejoin="round" stroke-opacity="1.0" stroke-width="3.0" />
            <path d=" M 366.355, 743.082 362.446, 752.286 361.467, 754.589 " fill="none" stroke="rgb(0, 0, 0)" stroke-linecap="butt" stroke-linejoin="round" stroke-opacity="1.0" stroke-width="3.0" />
            <path d=" M 487.239, 260.831 477.242, 260.578 472.227, 260.451 " fill="none" stroke="rgb(0, 0, 0)" stroke-linecap="butt" stroke-linejoin="round" stroke-opacity="1.0" stroke-width="3.0" />
            <path d=" M 531.122, 470.051 531.118, 470.065 " fill="none" stroke="rgb(0, 0, 0)" stroke-linecap="butt" stroke-linejoin="round" stroke-opacity="1.0" stroke-width="3.0" />
            <path d=" M 540.747, 265.173 538.907, 265.073 536.083, 264.920 534.895, 264.855 532.890, 264.747 531.398, 264.666 " fill="none" stroke="rgb(0, 0, 0)" stroke-linecap="butt" stroke-linejoin="round" stroke-opacity="1.0" stroke-width="3.0" />
            <path d=" M 540.637, 265.390 539.096, 265.448 " fill="none" stroke="rgb(0, 0, 0)" stroke-linecap="butt" stroke-linejoin="round" stroke-opacity="1.0" stroke-width="3.0" />
            <path d=" M 557.770, 508.550 557.728, 506.422 " fill="none" stroke="rgb(0, 0, 0)" stroke-linecap="butt" stroke-linejoin="round" stroke-opacity="1.0" stroke-width="3.0" />
        </g>
    </g>
</svg>
