<?xml version='1.0' encoding='ascii'?>
<svg xmlns="http://www.w3.org/2000/svg" height="1080" version="1.1" width="1080">
    <g id="View Layer_LineSet" inkscape:groupmode="lineset" inkscape:label="View Layer_LineSet" xmlns:inkscape="http://www.inkscape.org/namespaces/inkscape">
        <g id="strokes" inkscape:groupmode="layer" inkscape:label="strokes" xmlns:inkscape="http://www.inkscape.org/namespaces/inkscape">
            <path d=" M 564.052, 489.786 564.060, 490.943 564.048, 492.106 564.032, 492.656 564.015, 493.266 563.963, 494.412 563.891, 495.530 563.800, 496.612 563.691, 497.644 563.566, 498.618 563.422, 499.524 563.312, 500.128 563.279, 500.282 563.195, 500.689 563.071, 501.202 563.049, 501.281 562.942, 501.665 562.807, 502.076 562.669, 502.432 562.527, 502.732 560.883, 505.827 559.836, 507.800 559.431, 508.564 " fill="none" stroke="rgb(0, 0, 0)" stroke-linecap="butt" stroke-linejoin="round" stroke-opacity="1.0" stroke-width="3.0" />
            <path d=" M 362.680, 767.438 368.775, 772.069 " fill="none" stroke="rgb(0, 0, 0)" stroke-linecap="butt" stroke-linejoin="round" stroke-opacity="1.0" stroke-width="3.0" />
            <path d=" M 386.454, 773.158 395.918, 769.927 397.983, 769.223 " fill="none" stroke="rgb(0, 0, 0)" stroke-linecap="butt" stroke-linejoin="round" stroke-opacity="1.0" stroke-width="3.0" />
            <path d=" M 397.983, 769.223 393.022, 760.540 388.060, 751.858 387.479, 750.842 " fill="none" stroke="rgb(0, 0, 0)" stroke-linecap="butt" stroke-linejoin="round" stroke-opacity="1.0" stroke-width="3.0" />
            <path d=" M 475.295, 265.658 470.965, 265.920 466.562, 267.214 462.099, 269.576 457.588, 273.036 453.044, 277.624 449.221, 282.432 448.483, 283.359 445.563, 287.778 443.922, 290.261 439.379, 298.347 435.008, 307.341 434.872, 307.621 430.958, 316.823 430.421, 318.084 426.906, 327.446 426.048, 329.731 422.886, 339.218 421.775, 342.549 418.924, 352.135 417.622, 356.514 415.053, 366.179 413.612, 371.595 411.298, 381.323 409.769, 387.752 407.689, 397.534 406.115, 404.938 404.251, 414.763 402.671, 423.091 401.009, 432.952 399.459, 442.144 397.987, 452.035 396.501, 462.021 395.209, 471.937 393.917, 481.853 393.815, 482.636 392.696, 492.573 391.576, 502.510 391.420, 503.894 390.466, 513.848 389.513, 523.803 389.331, 525.696 388.539, 535.664 387.748, 545.633 387.565, 547.934 386.931, 557.914 386.297, 567.894 386.132, 570.497 385.653, 580.485 385.175, 590.474 385.041, 593.267 384.718, 603.261 384.394, 613.256 384.301, 616.126 384.133, 626.124 383.965, 636.123 383.917, 638.954 383.904, 648.954 383.892, 658.954 383.889, 661.632 384.034, 671.631 384.180, 681.630 384.216, 684.041 384.524, 694.036 384.832, 704.032 384.895, 706.067 385.370, 716.055 385.845, 726.044 385.919, 727.598 386.568, 737.577 387.216, 747.556 387.279, 748.531 387.479, 750.842 387.020, 760.832 386.562, 770.821 386.454, 773.158 " fill="none" stroke="rgb(0, 0, 0)" stroke-linecap="butt" stroke-linejoin="round" stroke-opacity="1.0" stroke-width="3.0" />
            <path d=" M 566.973, 520.139 567.881, 520.155 567.980, 520.157 572.478, 511.226 574.657, 506.899 577.694, 502.387 577.253, 492.397 577.074, 488.333 576.501, 478.349 576.278, 474.455 575.568, 464.480 575.304, 460.774 574.452, 450.811 574.153, 447.315 573.151, 437.365 572.822, 434.102 571.663, 424.169 571.311, 421.158 569.986, 411.246 569.621, 408.510 568.119, 398.624 567.748, 396.185 566.057, 386.329 565.694, 384.211 563.800, 374.392 563.458, 372.616 561.345, 362.842 561.039, 361.430 558.867, 352.458 558.438, 350.685 555.824, 341.033 555.656, 340.414 554.607, 336.956 " fill="none" stroke="rgb(0, 0, 0)" stroke-linecap="butt" stroke-linejoin="round" stroke-opacity="1.0" stroke-width="3.0" />
            <path d=" M 551.141, 345.338 553.388, 352.612 553.427, 352.752 556.064, 362.323 556.708, 364.944 558.566, 372.498 560.710, 382.265 560.895, 383.108 562.612, 391.881 563.050, 394.121 564.764, 403.973 565.031, 405.508 566.553, 415.391 566.838, 417.241 568.181, 427.150 568.471, 429.293 569.646, 439.224 569.931, 441.638 570.947, 451.587 571.219, 454.251 572.083, 464.213 572.334, 467.106 573.055, 477.080 573.279, 480.182 573.861, 490.165 574.052, 493.453 574.099, 494.494 574.054, 495.308 573.999, 496.104 573.935, 496.879 573.861, 497.627 573.778, 498.345 573.687, 499.029 573.588, 499.676 573.481, 500.281 573.368, 500.843 573.248, 501.357 573.123, 501.821 572.994, 502.232 572.860, 502.589 572.723, 502.889 568.770, 510.623 568.540, 509.849 568.292, 509.264 568.030, 508.878 567.797, 508.725 567.757, 508.698 565.198, 508.657 564.288, 508.642 563.548, 508.630 563.414, 508.628 559.848, 508.571 559.431, 508.564 558.066, 508.542 557.832, 508.538 557.375, 508.531 557.086, 508.561 556.796, 508.802 556.511, 509.249 556.234, 509.895 556.035, 510.529 555.971, 510.731 555.726, 511.742 555.504, 512.912 555.308, 514.220 555.142, 515.645 555.008, 517.162 554.909, 518.746 554.847, 520.368 554.823, 522.001 554.837, 523.617 554.889, 525.189 556.299, 525.214 558.140, 525.248 558.245, 525.250 560.023, 525.283 563.582, 525.348 564.409, 525.363 565.350, 525.380 565.363, 525.355 566.934, 522.234 566.921, 521.734 566.922, 521.218 566.937, 520.702 566.967, 520.200 566.973, 520.139 567.010, 519.725 567.066, 519.290 567.132, 518.907 567.207, 518.587 567.289, 518.338 567.376, 518.167 567.464, 518.079 567.553, 518.076 " fill="none" stroke="rgb(0, 0, 0)" stroke-linecap="butt" stroke-linejoin="round" stroke-opacity="1.0" stroke-width="3.0" />
            <path d=" M 463.946, 935.219 459.928, 934.574 458.091, 933.815 455.907, 932.913 451.898, 930.207 449.529, 927.957 447.917, 926.427 443.979, 921.552 440.100, 915.568 436.298, 908.461 432.590, 900.222 428.995, 890.853 425.860, 881.357 425.531, 880.360 422.785, 870.744 422.217, 868.755 419.812, 859.049 419.071, 856.060 416.968, 846.283 416.113, 842.304 414.281, 832.473 413.359, 827.525 411.773, 817.651 410.828, 811.766 409.468, 801.859 408.537, 795.083 407.384, 785.150 406.500, 777.538 405.541, 767.584 404.733, 759.201 403.931, 749.233 403.211, 740.281 403.123, 738.806 " fill="none" stroke="rgb(0, 0, 0)" stroke-linecap="butt" stroke-linejoin="round" stroke-opacity="1.0" stroke-width="3.0" />
            <path d=" M 381.706, 358.794 379.523, 368.553 379.354, 369.309 377.406, 379.117 376.169, 385.350 374.435, 395.198 373.163, 402.423 371.627, 412.304 370.356, 420.471 369.002, 430.379 367.766, 439.428 366.583, 449.358 365.409, 459.221 364.389, 469.169 363.369, 479.117 363.302, 479.768 362.436, 489.730 361.571, 499.693 361.459, 500.976 360.742, 510.950 360.024, 520.924 359.893, 522.749 359.320, 532.733 358.747, 542.716 358.617, 544.983 358.184, 554.973 357.751, 564.964 357.638, 567.567 357.343, 577.562 357.048, 587.558 356.964, 590.387 356.806, 600.386 356.648, 610.385 356.601, 613.328 356.580, 623.328 356.558, 633.328 356.551, 636.269 356.667, 646.269 356.782, 656.268 356.815, 659.093 357.069, 669.090 357.323, 679.087 357.389, 681.682 357.785, 691.674 358.181, 701.666 358.270, 703.920 358.812, 713.905 359.354, 723.890 359.452, 725.695 360.145, 735.671 360.838, 745.647 360.926, 746.902 361.777, 756.865 362.628, 766.829 362.680, 767.438 363.753, 777.381 364.791, 786.993 366.070, 796.911 367.202, 805.679 368.702, 815.566 369.894, 823.421 371.635, 833.269 372.851, 840.152 374.854, 849.949 376.053, 855.813 378.346, 865.547 379.480, 870.359 382.097, 880.011 383.111, 883.751 386.095, 893.296 386.645, 895.055 " fill="none" stroke="rgb(0, 0, 0)" stroke-linecap="butt" stroke-linejoin="round" stroke-opacity="1.0" stroke-width="3.0" />
            <path d=" M 524.229, 532.853 524.473, 542.850 524.498, 543.851 524.631, 553.851 524.683, 557.725 524.707, 567.725 524.717, 571.674 524.634, 581.674 524.600, 585.680 524.555, 588.076 " fill="none" stroke="rgb(0, 0, 0)" stroke-linecap="butt" stroke-linejoin="round" stroke-opacity="1.0" stroke-width="3.0" />
            <path d=" M 513.479, 737.971 512.054, 747.869 511.603, 750.996 510.047, 760.874 509.567, 763.918 507.873, 773.773 507.387, 776.603 505.548, 786.432 505.063, 789.025 503.073, 798.825 502.599, 801.159 500.446, 810.925 499.994, 812.976 497.668, 822.702 497.250, 824.448 494.738, 834.128 494.370, 835.547 491.656, 845.172 491.355, 846.240 488.422, 855.800 488.209, 856.496 485.035, 865.979 484.933, 866.282 481.532, 875.566 478.010, 884.310 474.371, 892.479 470.620, 900.038 466.763, 906.947 462.806, 913.169 458.757, 918.663 454.623, 923.394 450.413, 927.321 449.529, 927.957 " fill="none" stroke="rgb(0, 0, 0)" stroke-linecap="butt" stroke-linejoin="round" stroke-opacity="1.0" stroke-width="3.0" />
            <path d=" M 397.601, 764.574 397.983, 769.223 398.968, 779.174 399.913, 788.718 401.105, 798.647 402.150, 807.350 403.564, 817.249 404.677, 825.043 406.331, 834.905 407.476, 841.730 409.393, 851.545 410.527, 857.353 412.733, 867.107 413.809, 871.867 416.335, 881.543 417.299, 885.233 420.187, 894.807 420.976, 897.420 424.275, 906.860 424.816, 908.408 428.587, 917.670 428.797, 918.186 432.896, 926.751 436.990, 933.921 437.093, 934.102 437.269, 934.354 441.366, 940.251 445.693, 945.215 450.058, 949.014 454.441, 951.673 458.825, 953.223 463.194, 953.698 467.534, 953.132 471.831, 951.563 476.073, 949.035 478.004, 947.439 480.249, 945.586 484.347, 941.257 487.730, 936.904 488.360, 936.093 492.280, 930.136 495.473, 924.527 496.098, 923.428 499.808, 916.010 503.405, 907.924 506.884, 899.211 510.241, 889.909 513.358, 880.407 513.473, 880.056 516.340, 870.476 516.575, 869.691 519.219, 860.047 519.547, 858.849 521.986, 849.151 522.385, 847.563 524.638, 837.820 525.089, 835.867 527.169, 826.086 527.656, 823.794 529.577, 813.980 530.086, 811.375 531.857, 801.533 532.379, 798.637 534.010, 788.770 534.532, 785.609 534.558, 785.443 " fill="none" stroke="rgb(0, 0, 0)" stroke-linecap="butt" stroke-linejoin="round" stroke-opacity="1.0" stroke-width="3.0" />
            <path d=" M 531.404, 779.325 529.716, 789.182 529.548, 790.166 527.720, 799.998 527.296, 802.279 525.320, 812.082 524.917, 814.075 523.127, 822.264 522.413, 825.528 520.105, 835.258 519.785, 836.609 517.291, 846.293 517.035, 847.285 514.337, 856.915 514.166, 857.526 511.243, 867.089 511.180, 867.298 508.080, 876.569 504.871, 885.302 501.556, 893.461 498.140, 901.012 494.628, 907.916 491.027, 914.133 487.342, 919.626 483.581, 924.357 479.752, 928.286 475.864, 931.373 471.926, 933.582 467.950, 934.877 463.946, 935.219 " fill="none" stroke="rgb(0, 0, 0)" stroke-linecap="butt" stroke-linejoin="round" stroke-opacity="1.0" stroke-width="3.0" />
            <path d=" M 546.635, 675.865 546.768, 674.029 547.392, 664.049 547.676, 659.506 548.203, 649.520 548.446, 644.924 548.878, 634.934 549.079, 630.305 549.418, 620.310 549.575, 615.667 549.821, 605.670 549.935, 601.029 550.087, 591.030 550.158, 586.411 550.217, 576.412 550.245, 571.832 550.211, 561.832 550.196, 557.311 550.068, 547.312 550.011, 542.867 549.787, 532.869 549.690, 528.519 549.369, 518.524 549.233, 514.287 548.838, 504.889 " fill="none" stroke="rgb(0, 0, 0)" stroke-linecap="butt" stroke-linejoin="round" stroke-opacity="1.0" stroke-width="3.0" />
            <path d=" M 560.883, 505.827 559.806, 505.743 558.021, 505.604 557.763, 505.584 555.914, 505.440 548.838, 504.889 548.526, 504.865 546.682, 504.721 546.129, 504.678 546.552, 514.669 546.701, 518.167 547.018, 528.162 547.133, 531.793 547.347, 541.790 547.428, 545.534 547.541, 555.533 547.584, 559.370 547.598, 569.370 547.604, 573.283 547.519, 583.283 547.486, 587.253 547.304, 597.251 547.232, 601.260 546.953, 611.256 546.841, 615.285 546.466, 625.278 546.315, 629.310 545.843, 639.299 545.653, 643.314 545.083, 653.298 544.856, 657.279 544.188, 667.257 544.072, 668.975 " fill="none" stroke="rgb(0, 0, 0)" stroke-linecap="butt" stroke-linejoin="round" stroke-opacity="1.0" stroke-width="3.0" />
            <path d=" M 386.454, 773.158 387.468, 783.106 388.482, 793.055 388.519, 793.417 389.737, 803.342 390.893, 812.763 392.331, 822.659 393.559, 831.118 395.235, 840.977 396.499, 848.412 398.435, 858.223 399.691, 864.585 401.915, 874.335 403.114, 879.589 405.660, 889.260 406.747, 893.387 409.656, 902.954 410.566, 905.945 413.891, 915.376 414.551, 917.246 418.354, 926.495 418.677, 927.281 422.923, 936.045 427.269, 943.542 431.693, 949.787 436.174, 954.799 440.695, 958.601 445.237, 961.219 449.783, 962.690 454.317, 963.051 458.825, 962.337 463.292, 960.592 467.707, 957.859 472.058, 954.182 " fill="none" stroke="rgb(0, 0, 0)" stroke-linecap="butt" stroke-linejoin="round" stroke-opacity="1.0" stroke-width="3.0" />
            <path d=" M 472.058, 954.182 478.956, 946.943 480.249, 945.586 " fill="none" stroke="rgb(0, 0, 0)" stroke-linecap="butt" stroke-linejoin="round" stroke-opacity="1.0" stroke-width="3.0" />
            <path d=" M 538.842, 480.466 539.504, 490.444 540.166, 500.422 540.419, 504.233 540.807, 514.226 540.944, 517.728 541.179, 527.725 541.197, 528.508 535.285, 531.057 532.026, 532.463 531.746, 532.584 531.465, 532.705 531.184, 532.826 530.904, 532.948 530.571, 532.975 526.995, 532.906 524.229, 532.853 520.159, 532.774 " fill="none" stroke="rgb(0, 0, 0)" stroke-linecap="butt" stroke-linejoin="round" stroke-opacity="1.0" stroke-width="3.0" />
            <path d=" M 520.305, 501.142 521.264, 498.125 524.296, 488.595 527.303, 479.146 537.238, 480.282 538.842, 480.466 535.913, 490.027 532.984, 499.589 530.839, 506.592 530.714, 506.995 530.468, 507.800 530.221, 508.606 529.974, 509.414 529.728, 510.223 529.447, 511.283 529.353, 511.737 529.191, 512.521 528.969, 513.914 528.784, 515.435 528.640, 517.056 528.620, 517.394 528.540, 518.744 528.485, 520.467 528.476, 522.191 528.509, 523.614 528.515, 523.883 528.600, 525.511 528.729, 527.042 528.900, 528.448 529.110, 529.701 529.353, 530.777 529.627, 531.657 529.925, 532.324 530.243, 532.766 530.571, 532.975 " fill="none" stroke="rgb(0, 0, 0)" stroke-linecap="butt" stroke-linejoin="round" stroke-opacity="1.0" stroke-width="3.0" />
            <path d=" M 530.892, 523.657 530.766, 523.606 530.647, 523.420 530.541, 523.109 530.451, 522.685 530.383, 522.168 530.338, 521.580 530.320, 520.945 530.328, 520.294 530.362, 519.653 530.422, 519.052 530.503, 518.516 530.603, 518.069 530.717, 517.731 530.840, 517.517 530.967, 517.435 " fill="none" stroke="rgb(0, 0, 0)" stroke-linecap="butt" stroke-linejoin="round" stroke-opacity="1.0" stroke-width="3.0" />
            <path d=" M 530.967, 517.435 531.093, 517.489 531.211, 517.676 531.317, 517.988 531.406, 518.411 531.474, 518.928 531.518, 519.515 531.537, 520.146 531.529, 520.795 531.494, 521.434 531.435, 522.033 531.355, 522.568 531.255, 523.015 531.141, 523.354 531.018, 523.572 530.892, 523.657 " fill="none" stroke="rgb(0, 0, 0)" stroke-linecap="butt" stroke-linejoin="round" stroke-opacity="1.0" stroke-width="3.0" />
            <path d=" M 552.297, 689.215 553.111, 679.249 553.294, 677.010 554.024, 667.037 554.275, 663.608 554.924, 653.629 555.150, 650.151 555.718, 640.167 555.917, 636.650 556.405, 626.662 556.578, 623.117 556.986, 613.125 557.131, 609.564 557.459, 599.569 557.577, 596.002 557.826, 586.005 557.915, 582.441 558.085, 572.443 558.145, 568.894 558.236, 558.894 558.268, 555.370 558.279, 545.370 558.282, 541.882 558.270, 540.115 558.200, 530.115 558.188, 528.440 558.140, 525.248 " fill="none" stroke="rgb(0, 0, 0)" stroke-linecap="butt" stroke-linejoin="round" stroke-opacity="1.0" stroke-width="3.0" />
            <path d=" M 456.936, 981.132 459.355, 981.320 463.454, 980.824 467.519, 979.515 471.542, 977.423 475.516, 974.579 479.433, 971.014 483.287, 966.759 487.073, 961.846 490.785, 956.306 494.418, 950.169 497.970, 943.465 501.435, 936.224 504.810, 928.474 508.093, 920.244 511.282, 911.561 514.373, 902.451 517.365, 892.940 520.172, 883.342 520.256, 883.052 522.499, 874.819 523.046, 872.811 525.508, 863.119 525.732, 862.239 528.041, 852.509 528.314, 851.359 530.479, 841.596 530.791, 840.192 532.822, 830.400 533.163, 828.757 535.067, 818.940 535.428, 817.074 537.212, 807.235 537.587, 805.162 539.257, 795.303 539.477, 794.000 " fill="none" stroke="rgb(0, 0, 0)" stroke-linecap="butt" stroke-linejoin="round" stroke-opacity="1.0" stroke-width="3.0" />
            <path d=" M 526.620, 267.887 524.967, 262.753 522.136, 254.769 519.191, 247.261 516.133, 240.254 512.964, 233.777 509.686, 227.857 506.302, 222.523 502.815, 217.804 499.227, 213.729 495.543, 210.328 491.767, 207.631 487.904, 205.667 483.959, 204.468 479.939, 204.060 478.474, 204.209 475.851, 204.474 471.702, 205.737 467.500, 207.875 463.255, 210.912 458.977, 214.873 454.675, 219.777 450.362, 225.642 446.048, 232.485 441.748, 240.316 437.475, 249.145 433.519, 258.329 433.242, 258.974 431.098, 264.533 429.065, 269.803 425.784, 279.250 424.958, 281.628 421.964, 291.169 420.938, 294.436 418.203, 304.055 417.020, 308.213 414.522, 317.896 414.252, 318.944 413.222, 322.936 410.941, 332.673 409.558, 338.578 407.480, 348.360 406.046, 355.105 404.156, 364.924 402.702, 372.475 400.989, 382.327 399.542, 390.644 397.995, 400.524 396.581, 409.559 395.193, 419.462 393.834, 429.161 392.598, 439.085 391.362, 449.008 391.315, 449.388 390.225, 459.328 389.135, 469.268 389.037, 470.168 388.088, 480.123 387.140, 490.078 387.012, 491.430 386.201, 501.397 385.391, 511.364 385.250, 513.093 384.575, 523.070 383.899, 533.048 383.762, 535.077 383.219, 545.063 382.677, 555.048 382.555, 557.297 382.143, 567.288 381.732, 577.280 381.634, 579.664 381.354, 589.660 381.074, 599.656 381.006, 602.091 380.856, 612.090 380.707, 622.089 380.671, 624.489 380.654, 634.489 380.637, 644.489 380.633, 646.767 380.749, 656.766 380.865, 666.765 380.889, 668.838 381.142, 678.834 381.394, 688.831 381.439, 690.614 381.830, 700.607 382.221, 710.599 382.276, 712.013 382.810, 721.999 383.344, 731.985 383.396, 732.954 384.079, 742.931 384.761, 752.907 384.792, 753.360 385.629, 763.324 386.454, 773.158 387.453, 783.108 388.373, 792.281 389.542, 802.213 390.537, 810.669 391.887, 820.578 392.934, 828.265 394.477, 838.145 395.551, 845.019 397.302, 854.864 398.374, 860.888 400.350, 870.690 401.387, 875.834 403.610, 885.584 404.577, 889.827 407.070, 899.511 407.928, 902.841 410.721, 912.443 411.424, 914.858 414.552, 924.356 415.049, 925.865 418.556, 935.230 418.789, 935.854 422.629, 944.823 426.552, 952.774 430.546, 959.714 434.595, 965.655 438.687, 970.609 442.809, 974.597 446.947, 977.637 451.092, 979.754 455.231, 980.972 457.014, 981.123 459.355, 981.320 " fill="none" stroke="rgb(0, 0, 0)" stroke-linecap="butt" stroke-linejoin="round" stroke-opacity="1.0" stroke-width="3.0" />
            <path d=" M 477.547, 204.115 473.432, 204.530 469.257, 205.793 465.029, 207.930 460.757, 210.968 456.452, 214.927 452.123, 219.830 447.783, 225.695 443.443, 232.536 439.117, 240.365 434.817, 249.191 430.841, 258.366 430.559, 259.017 428.303, 264.830 426.357, 269.843 423.057, 279.283 422.226, 281.664 419.214, 291.199 418.182, 294.468 415.431, 304.082 414.241, 308.240 411.729, 317.919 410.421, 322.958 408.127, 332.692 406.736, 338.594 406.292, 340.670 404.202, 350.449 403.204, 355.115 401.303, 364.932 399.842, 372.479 398.118, 382.329 396.664, 390.641 395.109, 400.519 393.687, 409.549 392.291, 419.451 390.925, 429.144 389.682, 439.066 388.440, 448.989 388.393, 449.362 387.297, 459.302 386.202, 469.242 386.103, 470.135 385.150, 480.089 384.197, 490.044 384.069, 491.388 383.254, 501.354 382.440, 511.321 382.299, 513.043 381.620, 523.020 380.942, 532.997 380.804, 535.018 380.259, 545.003 379.715, 554.988 379.592, 557.229 379.180, 567.220 378.767, 577.212 378.669, 579.588 378.389, 589.584 378.108, 599.580 378.040, 602.006 377.891, 612.005 377.742, 622.004 377.707, 624.395 377.691, 634.395 377.675, 644.395 377.671, 646.664 377.789, 656.664 377.908, 666.663 377.932, 668.727 378.187, 678.723 378.442, 688.720 378.487, 690.495 378.882, 700.488 379.277, 710.480 379.333, 711.886 379.872, 721.872 380.411, 731.857 380.463, 732.820 381.151, 742.796 381.839, 752.772 381.870, 753.218 382.714, 763.182 383.546, 773.009 384.552, 782.958 385.479, 792.126 386.657, 802.057 387.659, 810.508 389.019, 820.415 390.074, 828.098 391.628, 837.977 392.709, 844.847 394.473, 854.690 395.552, 860.711 397.542, 870.511 398.586, 875.654 400.824, 885.400 401.798, 889.643 404.308, 899.323 405.171, 902.654 407.983, 912.251 408.691, 914.669 411.839, 924.160 412.341, 925.674 415.869, 935.031 416.106, 935.661 419.971, 944.629 423.921, 952.579 427.940, 959.519 432.016, 965.459 436.135, 970.414 440.283, 974.402 444.449, 977.444 448.620, 979.562 452.786, 980.783 456.936, 981.132 " fill="none" stroke="rgb(0, 0, 0)" stroke-linecap="butt" stroke-linejoin="round" stroke-opacity="1.0" stroke-width="3.0" />
            <path d=" M 479.939, 204.060 477.547, 204.115 " fill="none" stroke="rgb(0, 0, 0)" stroke-linecap="butt" stroke-linejoin="round" stroke-opacity="1.0" stroke-width="3.0" />
            <path d=" M 557.898, 700.698 558.780, 690.737 559.033, 687.872 559.832, 677.904 560.166, 673.734 560.884, 663.760 561.189, 659.528 561.826, 649.548 562.100, 645.265 562.658, 635.281 562.900, 630.959 563.381, 620.970 563.590, 616.618 563.992, 606.626 564.169, 602.256 564.494, 592.261 564.636, 587.881 564.885, 577.884 564.993, 573.507 565.164, 563.508 565.239, 559.142 565.332, 549.142 565.373, 544.798 565.389, 534.798 565.395, 530.486 565.363, 525.355 " fill="none" stroke="rgb(0, 0, 0)" stroke-linecap="butt" stroke-linejoin="round" stroke-opacity="1.0" stroke-width="3.0" />
            <path d=" M 454.051, 1001.555 456.469, 1001.749 460.916, 1001.870 465.328, 1001.082 469.695, 999.420 474.010, 996.920 478.264, 993.617 482.450, 989.548 486.563, 984.748 490.595, 979.253 494.543, 973.098 498.401, 966.316 502.166, 958.943 505.834, 951.010 509.403, 942.549 512.073, 935.645 512.869, 933.590 516.230, 924.164 519.363, 914.667 519.485, 914.298 522.413, 904.737 522.632, 904.021 525.371, 894.404 525.669, 893.359 528.236, 883.694 528.596, 882.336 531.002, 872.630 531.412, 870.977 533.669, 861.235 534.116, 859.306 536.234, 849.532 536.708, 847.343 538.694, 837.542 539.187, 835.110 541.050, 825.285 541.554, 822.628 543.299, 812.781 543.807, 809.915 544.977, 802.857 " fill="none" stroke="rgb(0, 0, 0)" stroke-linecap="butt" stroke-linejoin="round" stroke-opacity="1.0" stroke-width="3.0" />
            <path d=" M 540.142, 264.273 539.015, 259.453 536.544, 249.763 536.421, 249.279 533.740, 239.645 533.702, 239.510 530.858, 230.170 527.889, 221.287 524.795, 212.889 521.579, 205.006 518.241, 197.667 514.782, 190.902 511.205, 184.745 507.513, 179.228 503.708, 174.385 499.794, 170.248 495.775, 166.854 491.657, 164.236 487.443, 162.429 483.142, 161.468 478.759, 161.387 478.213, 161.489 474.302, 162.219 469.780, 163.997 465.203, 166.750 460.580, 170.510 455.923, 175.302 451.245, 181.151 446.558, 188.077 441.876, 196.098 437.329, 205.005 437.214, 205.229 433.100, 214.343 432.588, 215.476 428.856, 224.754 428.015, 226.845 424.622, 236.252 423.511, 239.334 420.422, 248.845 419.094, 252.935 417.390, 258.742 414.782, 267.633 412.193, 277.389 410.595, 283.409 410.012, 285.833 407.675, 295.556 406.550, 300.233 404.423, 310.004 402.667, 318.072 400.736, 327.884 398.965, 336.882 397.217, 346.728 395.462, 356.614 393.886, 366.489 392.311, 376.364 392.176, 377.209 390.764, 387.109 389.352, 397.009 389.124, 398.604 387.868, 408.525 386.613, 418.446 386.324, 420.727 386.184, 421.986 385.078, 431.924 383.972, 441.863 383.789, 443.500 382.828, 453.454 381.867, 463.408 381.535, 466.839 380.715, 476.805 379.894, 486.771 379.575, 490.654 378.891, 500.630 378.208, 510.607 377.918, 514.851 377.370, 524.836 376.822, 534.821 376.574, 539.332 376.160, 549.323 375.746, 559.315 375.552, 563.997 375.270, 573.993 374.989, 583.989 374.855, 588.742 374.707, 598.741 374.558, 608.740 374.488, 613.464 374.474, 623.464 374.459, 633.464 374.452, 638.060 374.573, 648.060 374.693, 658.059 374.746, 662.427 375.004, 672.424 375.262, 682.421 375.367, 686.465 375.766, 696.457 376.165, 706.449 376.309, 710.077 376.853, 720.062 377.397, 730.047 377.567, 733.169 378.261, 743.145 378.955, 753.120 379.131, 755.653 379.982, 765.617 380.832, 775.581 380.992, 777.447 382.006, 787.395 383.020, 797.343 383.136, 798.473 384.323, 808.402 385.510, 818.332 385.550, 818.663 386.921, 828.568 388.220, 837.952 389.788, 847.829 391.131, 856.287 392.911, 866.127 394.266, 873.619 396.275, 883.415 397.607, 889.906 399.868, 899.647 401.138, 905.118 403.676, 914.790 404.840, 919.227 407.687, 928.813 408.697, 932.215 411.888, 941.693 412.689, 944.072 412.908, 944.643 413.140, 945.248 416.721, 954.585 416.800, 954.790 420.195, 962.514 421.011, 964.371 423.759, 969.776 425.308, 972.822 429.672, 980.153 434.089, 986.379 438.544, 991.521 443.022, 995.601 447.511, 998.647 451.997, 1000.686 455.862, 1001.605 456.469, 1001.749 " fill="none" stroke="rgb(0, 0, 0)" stroke-linecap="butt" stroke-linejoin="round" stroke-opacity="1.0" stroke-width="3.0" />
            <path d=" M 476.369, 161.455 471.884, 162.288 467.334, 164.066 462.728, 166.820 458.076, 170.579 453.391, 175.370 448.684, 181.217 443.968, 188.142 439.258, 196.162 434.688, 205.056 434.568, 205.289 430.432, 214.394 429.914, 215.534 426.162, 224.804 425.313, 226.900 421.902, 236.300 420.783, 239.385 417.677, 248.890 416.340, 252.981 413.509, 262.572 412.003, 267.675 409.423, 277.336 407.792, 283.445 407.538, 284.493 406.986, 286.777 404.635, 296.497 403.724, 300.263 401.585, 310.032 399.819, 318.096 397.877, 327.905 397.024, 332.216 396.097, 336.899 394.339, 346.743 392.574, 356.623 390.990, 366.497 389.405, 376.371 389.270, 377.211 387.851, 387.110 386.431, 397.009 386.203, 398.598 384.940, 408.518 383.677, 418.438 383.387, 420.713 382.276, 430.651 381.164, 440.589 380.840, 443.477 379.874, 453.430 378.908, 463.383 378.576, 466.806 377.929, 474.625 377.104, 484.591 376.606, 490.612 375.919, 500.588 375.233, 510.565 374.942, 514.799 374.392, 524.784 373.841, 534.769 373.593, 539.271 373.178, 549.262 372.762, 559.253 372.568, 563.926 372.286, 573.922 372.004, 583.918 371.870, 588.661 371.722, 598.660 371.574, 608.659 371.504, 613.374 371.491, 623.374 371.477, 633.374 371.471, 637.961 371.594, 647.960 371.717, 657.959 371.770, 662.318 372.031, 672.315 372.292, 682.311 372.398, 686.347 372.801, 696.339 373.204, 706.331 373.350, 709.950 373.898, 719.935 374.447, 729.919 374.618, 733.033 375.318, 743.009 376.018, 752.984 376.195, 755.509 377.052, 765.473 377.910, 775.436 378.070, 777.296 379.092, 787.243 380.114, 797.191 380.230, 798.315 381.426, 808.243 382.623, 818.171 382.662, 818.498 384.043, 828.402 385.352, 837.782 386.931, 847.656 388.283, 856.111 390.075, 865.949 391.439, 873.437 393.463, 883.230 394.804, 889.720 397.080, 899.458 398.359, 904.928 400.914, 914.596 402.086, 919.034 404.951, 928.615 405.969, 932.020 407.114, 935.399 408.435, 939.294 409.987, 943.874 411.911, 948.855 414.125, 954.591 417.429, 962.057 418.365, 964.171 422.689, 972.621 427.082, 979.951 431.528, 986.178 436.011, 991.320 440.519, 995.402 445.036, 998.449 449.551, 1000.489 454.051, 1001.555 " fill="none" stroke="rgb(0, 0, 0)" stroke-linecap="butt" stroke-linejoin="round" stroke-opacity="1.0" stroke-width="3.0" />
            <path d=" M 478.759, 161.387 476.369, 161.455 " fill="none" stroke="rgb(0, 0, 0)" stroke-linecap="butt" stroke-linejoin="round" stroke-opacity="1.0" stroke-width="3.0" />
            <path d=" M 543.832, 257.006 543.460, 255.240 541.226, 245.493 540.925, 244.178 538.503, 234.476 538.258, 233.496 535.632, 223.847 535.461, 223.217 532.610, 213.632 532.532, 213.371 529.473, 203.984 526.283, 195.087 522.964, 186.709 519.516, 178.882 515.940, 171.639 512.239, 165.013 508.415, 159.041 504.471, 153.756 500.410, 149.196 496.236, 145.398 491.955, 142.398 487.570, 140.236 483.089, 138.948 478.518, 138.572 473.765, 138.721 469.054, 139.295 464.269, 140.853 459.421, 143.429 454.520, 147.057 449.578, 151.766 444.608, 157.584 439.623, 164.537 434.640, 172.645 429.921, 181.461 429.673, 181.925 425.408, 190.970 424.739, 192.389 420.875, 201.613 419.857, 204.044 416.349, 213.409 415.044, 216.890 411.854, 226.368 410.321, 230.922 407.417, 240.491 405.706, 246.127 403.062, 255.771 401.221, 262.485 398.814, 272.191 396.885, 279.968 394.697, 289.726 392.721, 298.541 390.736, 308.342 388.747, 318.160 386.952, 327.998 385.157, 337.835 384.986, 338.773 383.369, 348.642 381.752, 358.510 381.706, 358.794 381.456, 360.321 380.008, 370.215 378.561, 380.110 378.177, 382.733 376.890, 392.650 375.604, 402.567 375.167, 405.936 374.035, 415.871 372.903, 425.807 372.443, 429.844 371.460, 439.796 370.478, 449.747 370.021, 454.369 369.184, 464.334 368.346, 474.299 367.916, 479.414 367.219, 489.390 366.523, 499.365 366.138, 504.878 365.581, 514.862 365.023, 524.847 364.699, 530.654 364.279, 540.646 364.047, 546.161 363.627, 556.152 363.607, 556.635 363.324, 566.631 363.040, 576.627 362.868, 582.709 362.721, 592.708 362.574, 602.707 362.485, 608.763 362.475, 618.763 362.465, 628.763 362.460, 634.686 362.589, 644.685 362.718, 654.684 362.791, 660.366 363.061, 670.363 363.332, 680.359 363.476, 685.696 363.891, 695.687 364.305, 705.678 364.508, 710.569 365.072, 720.553 365.635, 730.537 365.881, 734.885 366.598, 744.859 366.611, 745.034 367.328, 755.008 367.419, 756.272 367.583, 758.550 368.461, 768.511 368.775, 772.069 369.604, 781.473 370.650, 791.418 371.697, 801.364 371.929, 803.574 373.154, 813.499 374.378, 823.424 374.545, 824.777 375.958, 834.677 377.371, 844.576 377.434, 845.015 379.049, 854.884 380.579, 864.231 382.412, 874.062 383.962, 882.373 386.032, 892.157 386.645, 895.055 387.564, 899.400 389.893, 909.125 391.366, 915.277 393.980, 924.930 395.348, 929.980 398.280, 939.541 399.491, 943.490 402.778, 952.934 403.775, 955.796 407.464, 965.091 408.180, 966.895 412.327, 975.995 412.689, 976.790 417.283, 985.488 421.944, 993.005 426.656, 999.358 431.403, 1004.570 436.169, 1008.668 440.941, 1011.682 445.704, 1013.643 450.447, 1014.587 455.259, 1014.982 459.912, 1014.938 464.523, 1013.950 469.083, 1012.055 473.583, 1009.291 478.015, 1005.698 482.372, 1001.314 486.648, 996.179 490.837, 990.329 494.935, 983.802 498.936, 976.634 502.837, 968.862 506.634, 960.519 510.325, 951.639 513.908, 942.254 517.229, 932.821 517.380, 932.395 520.479, 922.887 520.739, 922.091 523.637, 912.520 523.984, 911.372 526.697, 901.747 527.115, 900.264 529.657, 890.592 530.130, 888.793 532.514, 879.082 533.029, 876.985 535.265, 867.238 535.811, 864.863 537.910, 855.085 538.476, 852.449 540.445, 842.645 541.024, 839.765 542.871, 829.937 543.455, 826.831 545.186, 816.982 545.769, 813.668 547.023, 806.036 " fill="none" stroke="rgb(0, 0, 0)" stroke-linecap="butt" stroke-linejoin="round" stroke-opacity="1.0" stroke-width="3.0" />
            <path d=" M 559.892, 704.332 560.106, 702.110 560.982, 692.148 561.381, 687.608 562.175, 677.640 562.542, 673.028 563.256, 663.053 563.590, 658.379 564.224, 648.399 564.524, 643.675 565.079, 633.690 565.344, 628.926 565.822, 618.937 566.052, 614.143 566.452, 604.151 566.645, 599.337 566.970, 589.342 567.126, 584.519 567.374, 574.522 567.493, 569.699 567.665, 559.700 567.747, 554.888 567.842, 544.888 567.887, 540.096 567.904, 530.096 567.913, 525.334 567.881, 520.155 " fill="none" stroke="rgb(0, 0, 0)" stroke-linecap="butt" stroke-linejoin="round" stroke-opacity="1.0" stroke-width="3.0" />
            <path d=" M 478.518, 138.572 473.865, 139.144 469.140, 140.701 464.352, 143.277 459.510, 146.904 454.629, 151.614 449.718, 157.435 444.794, 164.390 439.870, 172.502 435.196, 181.343 434.962, 181.787 430.740, 190.852 430.086, 192.257 426.263, 201.497 425.261, 203.919 421.790, 213.297 420.504, 216.772 417.349, 226.262 415.842, 230.792 415.835, 230.813 412.963, 240.392 411.273, 246.028 408.658, 255.680 406.839, 262.397 404.459, 272.109 402.552, 279.892 400.388, 289.655 398.433, 298.478 397.930, 300.992 396.510, 308.083 394.548, 317.889 394.503, 318.112 392.728, 327.953 390.953, 337.794 390.782, 338.740 389.183, 348.612 387.584, 358.483 387.289, 360.304 385.858, 370.201 385.339, 373.782 384.044, 382.733 382.772, 392.652 381.499, 402.571 381.065, 405.954 379.945, 415.891 378.825, 425.828 378.368, 429.881 377.396, 439.834 376.423, 449.786 375.970, 454.425 375.467, 460.462 374.637, 470.428 373.883, 479.490 373.193, 489.466 372.503, 499.442 372.120, 504.974 371.567, 514.959 371.015, 524.943 370.692, 530.771 370.275, 540.762 369.858, 550.754 369.606, 556.773 369.430, 563.008 369.148, 573.004 368.869, 582.867 368.721, 592.866 368.574, 602.865 368.484, 608.942 368.472, 618.942 368.460, 628.942 368.452, 634.885 368.577, 644.884 368.702, 654.883 368.773, 660.585 369.037, 670.581 369.301, 680.578 369.443, 685.933 369.850, 695.925 370.257, 705.917 370.457, 710.825 371.010, 720.810 371.564, 730.794 371.806, 735.159 372.512, 745.134 373.217, 755.109 373.481, 758.841 374.346, 768.803 375.210, 778.766 375.472, 781.780 376.502, 791.727 377.533, 801.674 377.763, 803.896 378.969, 813.823 380.175, 823.750 380.341, 825.113 381.734, 835.015 383.127, 844.918 383.189, 845.364 384.782, 855.237 386.291, 864.591 388.099, 874.427 389.628, 882.744 391.678, 892.572 393.182, 899.780 394.904, 907.072 396.933, 915.665 399.514, 925.327 399.706, 926.045 400.489, 928.975 400.863, 930.375 403.758, 939.946 404.951, 943.890 406.387, 948.071 409.179, 956.201 412.826, 965.512 413.528, 967.303 417.629, 976.423 417.889, 977.002 417.978, 977.200 422.513, 985.899 427.115, 993.416 431.767, 999.768 436.454, 1004.978 441.160, 1009.074 445.871, 1012.085 450.575, 1014.042 455.259, 1014.982 " fill="none" stroke="rgb(0, 0, 0)" stroke-linecap="butt" stroke-linejoin="round" stroke-opacity="1.0" stroke-width="3.0" />
            <path d=" M 482.744, 507.326 482.500, 507.322 482.135, 507.351 481.770, 507.587 481.412, 508.029 481.066, 508.668 480.739, 509.495 480.435, 510.495 480.161, 511.652 479.920, 512.947 479.718, 514.358 479.558, 515.860 479.442, 517.428 479.373, 519.034 479.351, 520.652 479.378, 522.253 479.452, 523.809 482.202, 523.860 " fill="none" stroke="rgb(0, 0, 0)" stroke-linecap="butt" stroke-linejoin="round" stroke-opacity="1.0" stroke-width="3.0" />
            <path d=" M 565.350, 525.380 565.302, 523.807 565.289, 522.188 565.314, 520.553 565.330, 520.117 565.331, 520.110 565.375, 518.928 565.429, 518.039 565.471, 517.343 565.601, 515.823 565.762, 514.396 565.952, 513.086 566.167, 511.915 566.403, 510.902 566.500, 510.585 566.657, 510.065 566.924, 509.418 567.200, 508.970 567.479, 508.729 567.757, 508.698 " fill="none" stroke="rgb(0, 0, 0)" stroke-linecap="butt" stroke-linejoin="round" stroke-opacity="1.0" stroke-width="3.0" />
            <path d=" M 567.980, 520.157 567.952, 519.687 567.911, 519.257 567.874, 518.998 567.857, 518.880 567.793, 518.566 567.719, 518.323 567.638, 518.158 567.553, 518.076 " fill="none" stroke="rgb(0, 0, 0)" stroke-linecap="butt" stroke-linejoin="round" stroke-opacity="1.0" stroke-width="3.0" />
            <path d=" M 529.088, 466.972 529.368, 472.425 529.856, 472.430 534.968, 472.489 535.171, 472.161 534.755, 466.937 529.383, 466.585 529.337, 466.582 529.088, 466.972 " fill="none" stroke="rgb(0, 0, 0)" stroke-linecap="butt" stroke-linejoin="round" stroke-opacity="1.0" stroke-width="3.0" />
            <path d=" M 534.694, 467.033 529.088, 466.972 " fill="none" stroke="rgb(0, 0, 0)" stroke-linecap="butt" stroke-linejoin="round" stroke-opacity="1.0" stroke-width="3.0" />
            <path d=" M 534.968, 472.489 534.694, 467.033 534.755, 466.937 " fill="none" stroke="rgb(0, 0, 0)" stroke-linecap="butt" stroke-linejoin="round" stroke-opacity="1.0" stroke-width="3.0" />
            <path d=" M 530.898, 469.574 530.887, 469.785 530.923, 470.007 530.944, 470.070 531.022, 470.270 531.137, 470.446 531.285, 470.593 531.330, 470.635 531.495, 470.741 531.552, 470.770 531.720, 470.829 531.773, 470.846 531.838, 470.859 531.913, 470.867 531.998, 470.871 532.081, 470.870 532.164, 470.863 532.244, 470.852 532.318, 470.837 532.383, 470.819 532.437, 470.797 532.594, 470.724 532.653, 470.688 532.805, 470.568 532.912, 470.455 " fill="none" stroke="rgb(0, 0, 0)" stroke-linecap="butt" stroke-linejoin="round" stroke-opacity="1.0" stroke-width="3.0" />
            <path d=" M 530.986, 469.267 530.951, 469.369 530.947, 469.385 530.934, 469.436 530.898, 469.574 530.938, 469.412 " fill="none" stroke="rgb(0, 0, 0)" stroke-linecap="butt" stroke-linejoin="round" stroke-opacity="1.0" stroke-width="3.0" />
            <path d=" M 532.912, 470.455 533.001, 470.332 533.071, 470.196 533.119, 470.051 533.146, 469.899 533.149, 469.744 533.130, 469.589 533.088, 469.436 533.025, 469.290 532.942, 469.152 532.839, 469.026 532.721, 468.915 532.588, 468.820 532.444, 468.744 532.291, 468.688 532.133, 468.653 531.973, 468.640 531.814, 468.650 531.660, 468.681 531.513, 468.734 531.376, 468.807 531.253, 468.899 531.145, 469.007 531.056, 469.131 530.986, 469.267 " fill="none" stroke="rgb(0, 0, 0)" stroke-linecap="butt" stroke-linejoin="round" stroke-opacity="1.0" stroke-width="3.0" />
            <path d=" M 636.549, 853.705 638.714, 854.164 646.600, 855.100 654.464, 855.311 662.288, 854.813 670.059, 853.625 677.760, 851.767 685.379, 849.259 692.903, 846.123 700.319, 842.380 707.617, 838.051 714.786, 833.158 721.817, 827.723 728.701, 821.767 735.429, 815.313 741.994, 808.382 748.389, 800.994 754.608, 793.172 760.519, 785.106 760.645, 784.935 766.255, 776.656 766.494, 776.304 771.813, 767.836 772.151, 767.298 777.190, 758.661 777.611, 757.939 782.379, 749.149 782.870, 748.244 787.377, 739.317 787.925, 738.232 792.179, 729.182 792.772, 727.921 796.782, 718.760 797.408, 717.330 801.181, 708.069 801.830, 706.476 805.373, 697.125 806.036, 695.376 809.356, 685.943 810.023, 684.046 813.125, 674.539 813.790, 672.503 816.680, 662.930 817.334, 660.763 820.017, 651.130 820.654, 648.842 823.133, 639.154 823.747, 636.754 826.027, 627.018 826.613, 624.515 828.697, 614.735 829.250, 612.140 831.141, 602.320 831.657, 599.643 833.357, 589.788 833.832, 587.038 835.343, 577.152 835.774, 574.339 837.099, 564.427 837.482, 561.561 838.621, 551.626 838.954, 548.718 839.909, 538.763 840.191, 535.822 840.961, 525.852 841.190, 522.889 841.776, 512.906 841.951, 509.931 842.353, 499.940 842.472, 496.963 842.689, 486.966 842.753, 483.998 842.784, 473.998 842.793, 471.050 842.637, 461.052 842.591, 458.133 842.245, 448.139 842.146, 445.262 841.609, 435.276 841.457, 432.450 840.725, 422.477 840.523, 419.712 839.594, 409.755 839.343, 407.062 838.214, 397.126 837.918, 394.517 836.584, 384.606 836.245, 382.090 834.702, 372.210 834.325, 369.799 832.567, 359.954 832.157, 357.658 830.179, 347.855 829.741, 345.684 827.537, 335.930 827.076, 333.894 824.638, 324.196 824.163, 322.305 821.484, 312.671 821.002, 310.936 818.073, 301.374 817.592, 299.803 814.405, 290.324 813.935, 288.925 810.479, 279.541 810.030, 278.322 806.296, 269.046 805.881, 268.014 801.856, 258.859 801.486, 258.019 797.159, 249.004 796.849, 248.360 792.206, 239.503 791.972, 239.056 787.000, 230.380 786.856, 230.130 781.506, 221.603 775.924, 213.498 770.114, 205.838 764.082, 198.645 757.832, 191.943 751.371, 185.757 744.705, 180.109 737.841, 175.023 730.789, 170.524 723.557, 166.635 716.156, 163.379 708.595, 160.780 700.888, 158.860 693.048, 157.641 685.088, 157.143 677.024, 157.387 674.791, 157.609 " fill="none" stroke="rgb(0, 0, 0)" stroke-linecap="butt" stroke-linejoin="round" stroke-opacity="1.0" stroke-width="3.0" />
            <path d=" M 638.714, 854.164 636.580, 853.709 630.823, 852.483 622.944, 850.044 615.098, 846.833 607.303, 842.837 599.581, 838.046 591.952, 832.453 584.440, 826.051 577.291, 819.059 577.065, 818.838 570.381, 811.401 569.853, 810.814 563.627, 802.988 562.826, 801.981 557.050, 793.818 556.009, 792.346 550.670, 783.890 550.493, 783.609 549.425, 781.918 548.495, 780.271 547.007, 777.635 543.099, 770.710 543.067, 770.648 541.579, 767.701 538.135, 760.879 537.054, 758.740 534.601, 753.304 531.316, 746.026 527.580, 736.750 525.906, 732.594 523.326, 725.391 520.848, 718.472 517.827, 708.939 517.259, 707.146 516.164, 703.692 513.666, 694.723 511.874, 688.289 509.518, 678.571 507.999, 672.305 505.959, 662.515 504.557, 655.781 502.824, 645.933 501.564, 638.766 500.131, 628.869 499.036, 621.309 497.895, 611.374 496.986, 603.463 496.131, 593.500 495.426, 585.285 494.852, 575.302 494.364, 566.833 494.067, 556.837 493.808, 548.167 493.784, 538.167 493.762, 529.350 494.009, 519.353 494.062, 517.187 494.229, 510.445 494.745, 500.458 495.207, 491.516 495.992, 481.547 496.694, 472.627 497.748, 462.683 498.685, 453.843 500.010, 443.931 501.173, 435.227 502.770, 425.356 504.147, 416.843 506.020, 407.019 507.596, 398.750 509.747, 388.984 511.504, 381.009 513.940, 371.310 515.857, 363.676 518.581, 354.054 520.634, 346.805 522.061, 342.301 524.513, 334.564 525.817, 330.448 529.142, 321.017 531.385, 314.653 534.727, 306.090 536.005, 302.816 537.314, 299.463 538.579, 296.526 539.412, 294.594 542.953, 286.377 543.580, 284.921 544.313, 283.379 544.730, 282.499 544.844, 282.260 544.856, 282.234 547.717, 276.209 549.420, 272.622 550.160, 271.062 551.522, 268.456 551.537, 268.427 551.699, 268.117 556.330, 259.254 557.027, 257.920 557.611, 256.904 559.954, 252.831 564.155, 245.524 569.506, 237.076 571.518, 233.898 571.759, 233.553 577.488, 225.357 579.090, 223.063 585.208, 215.153 586.844, 213.037 593.361, 205.452 594.754, 203.832 601.679, 196.618 602.793, 195.457 610.132, 188.664 610.937, 187.919 618.690, 181.603 619.160, 181.220 627.321, 175.441 627.438, 175.358 635.748, 170.331 644.068, 166.131 652.375, 162.749 660.650, 160.174 668.872, 158.392 675.371, 157.591 677.024, 157.387 " fill="none" stroke="rgb(0, 0, 0)" stroke-linecap="butt" stroke-linejoin="round" stroke-opacity="1.0" stroke-width="3.0" />
            <path d=" M 674.791, 157.609 666.629, 158.614 658.395, 160.396 650.110, 162.971 641.792, 166.351 633.463, 170.548 625.143, 175.572 616.976, 181.344 616.855, 181.429 609.096, 187.738 608.623, 188.123 601.278, 194.909 600.471, 195.655 593.538, 202.862 592.423, 204.022 585.898, 211.600 584.505, 213.218 578.381, 221.123 576.744, 223.235 571.008, 231.427 569.165, 234.059 563.807, 242.503 561.795, 245.673 557.435, 253.241 554.661, 258.057 550.023, 266.917 549.143, 268.597 549.125, 268.633 549.070, 268.738 547.789, 271.185 547.046, 272.747 546.973, 272.900 543.619, 279.951 542.248, 282.834 541.204, 285.029 539.857, 288.150 538.108, 292.202 538.048, 292.340 537.972, 292.517 537.967, 292.528 537.956, 292.553 537.245, 294.201 535.155, 299.041 534.933, 299.556 533.865, 302.288 530.223, 311.601 529.000, 314.728 525.671, 324.158 523.429, 330.506 520.998, 338.167 518.243, 346.845 515.514, 356.465 513.463, 363.697 511.024, 373.395 509.109, 381.010 507.989, 386.088 505.834, 395.853 505.199, 398.731 503.325, 408.554 501.750, 416.803 500.151, 426.674 498.776, 435.167 497.450, 445.078 496.289, 453.761 495.234, 463.705 494.298, 472.523 493.513, 482.492 493.336, 484.737 492.812, 491.390 492.695, 493.673 492.179, 503.659 491.982, 507.475 491.885, 509.362 491.836, 510.298 491.678, 516.760 491.627, 518.812 491.571, 521.110 491.373, 529.182 491.399, 539.182 491.422, 547.977 491.722, 557.973 491.981, 566.622 492.559, 576.605 493.047, 585.054 493.906, 595.017 494.612, 603.212 495.757, 613.146 496.667, 621.038 498.104, 630.934 499.200, 638.476 500.144, 643.826 501.881, 653.674 502.198, 655.474 504.244, 665.262 505.647, 671.980 508.009, 681.697 509.529, 687.948 511.145, 693.734 513.826, 703.335 516.689, 712.345 518.517, 718.101 521.897, 727.513 523.583, 732.210 527.327, 741.482 529.001, 745.629 533.123, 754.740 534.116, 756.934 534.748, 758.332 537.684, 764.132 540.801, 770.292 541.117, 770.851 542.641, 773.545 546.589, 780.522 547.137, 781.491 548.100, 783.013 550.121, 786.208 553.730, 791.911 559.514, 800.068 560.557, 801.539 566.790, 809.358 567.594, 810.366 574.286, 817.796 574.816, 818.385 581.971, 825.371 582.200, 825.594 589.723, 831.993 597.362, 837.585 605.096, 842.375 612.901, 846.370 620.758, 849.583 628.647, 852.023 636.549, 853.705 " fill="none" stroke="rgb(0, 0, 0)" stroke-linecap="butt" stroke-linejoin="round" stroke-opacity="1.0" stroke-width="3.0" />
            <path d=" M 770.192, 566.207 770.113, 566.685 768.228, 576.506 767.813, 578.673 765.679, 588.442 765.229, 590.507 762.842, 600.218 762.363, 602.166 759.718, 611.810 759.219, 613.628 756.311, 623.196 755.802, 624.871 752.623, 634.352 752.114, 635.870 748.657, 645.253 748.160, 646.602 744.417, 655.875 743.945, 657.045 739.907, 666.194 739.474, 667.175 735.130, 676.182 734.752, 676.966 730.091, 685.813 729.785, 686.394 724.797, 695.061 724.581, 695.437 719.252, 703.898 719.146, 704.067 713.488, 712.258 707.616, 719.988 701.539, 727.229 695.267, 733.955 688.810, 740.140 682.181, 745.761 675.392, 750.790 668.457, 755.201 661.390, 758.970 654.207, 762.075 646.924, 764.490 639.559, 766.191 632.132, 767.159 624.661, 767.375 624.217, 767.342 " fill="none" stroke="rgb(0, 0, 0)" stroke-linecap="butt" stroke-linejoin="round" stroke-opacity="1.0" stroke-width="3.0" />
            <path d=" M 784.925, 570.641 774.932, 570.268 774.120, 570.237 770.192, 566.207 763.212, 559.046 756.233, 551.884 752.663, 548.222 752.040, 547.581 751.416, 546.940 750.791, 546.297 750.166, 545.654 749.454, 544.772 748.815, 543.669 748.262, 542.366 748.189, 542.130 747.806, 540.887 747.458, 539.262 747.386, 538.728 747.350, 538.464 747.223, 537.521 747.107, 535.697 747.110, 533.826 747.234, 531.944 747.320, 531.290 747.476, 530.088 747.493, 530.004 747.832, 528.293 748.294, 526.594 748.853, 525.024 749.498, 523.614 750.217, 522.389 750.996, 521.373 751.819, 520.585 752.083, 520.416 752.215, 520.331 752.671, 520.039 753.534, 519.747 754.259, 519.609 754.985, 519.470 755.709, 519.332 756.431, 519.194 756.794, 519.125 766.618, 517.255 776.441, 515.385 781.282, 514.463 " fill="none" stroke="rgb(0, 0, 0)" stroke-linecap="butt" stroke-linejoin="round" stroke-opacity="1.0" stroke-width="3.0" />
            <path d=" M 679.022, 223.624 676.074, 223.871 670.645, 224.325 662.212, 225.834 655.434, 227.714 653.751, 228.180 645.291, 231.388 636.863, 235.474 628.496, 240.443 620.328, 246.212 620.221, 246.288 612.497, 252.640 612.065, 252.995 604.786, 259.852 604.055, 260.541 597.228, 267.848 596.224, 268.922 589.856, 276.632 588.611, 278.140 582.701, 286.206 581.253, 288.181 575.793, 296.559 574.186, 299.024 569.162, 307.671 567.440, 310.635 562.835, 319.511 561.041, 322.969 556.835, 332.042 556.521, 332.720 555.146, 335.686 555.011, 335.976 554.607, 336.956 553.649, 339.273 553.594, 339.405 552.161, 342.870 551.141, 345.338 549.375, 349.610 549.305, 349.801 547.919, 353.587 546.142, 358.443 544.754, 362.234 544.168, 363.834 541.110, 373.355 539.424, 378.604 539.293, 379.072 537.974, 383.808 535.289, 393.441 535.171, 393.865 533.506, 400.847 531.429, 409.557 529.465, 419.362 528.214, 425.611 526.594, 435.479 526.492, 436.099 525.530, 441.959 524.243, 451.876 523.369, 458.618 522.397, 468.571 521.726, 475.436 521.067, 485.415 520.609, 492.341 520.411, 498.060 520.305, 501.142 520.252, 502.663 520.023, 509.259 519.998, 517.245 519.978, 523.459 519.970, 526.119 520.141, 532.124 520.159, 532.774 520.446, 542.847 521.051, 552.829 521.448, 559.374 522.379, 569.331 522.969, 575.631 524.233, 585.550 524.555, 588.076 524.998, 591.549 526.602, 601.420 526.770, 602.451 527.521, 607.067 529.476, 616.874 530.523, 622.124 532.840, 631.852 533.871, 636.177 533.986, 636.662 536.679, 646.293 537.891, 650.629 540.972, 660.143 542.214, 663.978 542.990, 666.064 543.209, 666.653 544.072, 668.975 544.528, 670.200 546.635, 675.865 546.932, 676.663 550.731, 685.606 551.792, 688.104 552.021, 688.644 552.297, 689.215 553.308, 691.307 556.359, 697.623 556.846, 698.630 557.454, 699.889 557.898, 700.698 559.892, 704.332 563.203, 710.367 568.494, 718.853 569.242, 720.053 575.032, 728.206 575.542, 728.925 581.846, 736.689 582.075, 736.971 588.812, 744.177 595.725, 750.536 602.787, 756.044 609.970, 760.705 617.247, 764.519 624.217, 767.342 624.594, 767.494 631.985, 769.642 639.396, 770.975 646.804, 771.508 654.188, 771.257 661.526, 770.243 668.799, 768.487 675.989, 766.009 683.078, 762.833 690.049, 758.984 696.888, 754.487 703.581, 749.366 710.114, 743.647 716.474, 737.359 722.652, 730.525 728.635, 723.172 734.416, 715.328 739.984, 707.018 745.199, 698.485 745.332, 698.267 750.209, 689.537 750.452, 689.102 755.006, 680.199 755.338, 679.549 759.581, 670.493 759.984, 669.632 763.926, 660.442 764.383, 659.376 768.036, 650.067 768.531, 648.805 771.905, 639.391 772.423, 637.944 775.526, 628.438 776.055, 626.817 778.895, 617.229 779.422, 615.446 782.006, 605.786 782.522, 603.856 784.856, 594.132 785.351, 592.068 787.440, 582.289 787.906, 580.106 789.755, 570.278 790.185, 567.991 791.797, 558.121 792.185, 555.746 793.563, 545.841 793.904, 543.392 " fill="none" stroke="rgb(0, 0, 0)" stroke-linecap="butt" stroke-linejoin="round" stroke-opacity="1.0" stroke-width="3.0" />
            <path d=" M 781.282, 514.463 791.259, 515.148 792.000, 515.198 " fill="none" stroke="rgb(0, 0, 0)" stroke-linecap="butt" stroke-linejoin="round" stroke-opacity="1.0" stroke-width="3.0" />
            <path d=" M 825.269, 529.975 825.733, 524.574 826.147, 519.751 826.745, 509.769 826.906, 507.074 827.135, 500.310 827.335, 494.375 827.411, 484.375 827.431, 481.678 827.246, 471.679 827.196, 469.006 826.752, 459.015 826.635, 456.380 825.934, 446.405 825.753, 443.822 824.791, 433.869 824.548, 431.354 823.526, 423.135 823.012, 419.002 821.499, 409.117 821.143, 406.793 819.342, 396.957 818.939, 394.754 816.845, 384.976 816.403, 382.909 814.012, 373.199 813.539, 371.279 810.850, 361.647 810.358, 359.883 807.364, 350.341 806.862, 348.742 803.548, 339.307 803.050, 337.888 799.399, 328.579 798.919, 327.356 794.916, 318.192 794.472, 317.175 790.105, 308.179 789.714, 307.374 784.972, 298.569 784.652, 297.976 779.529, 289.388 779.298, 289.000 773.787, 280.655 773.661, 280.463 767.746, 272.399 761.557, 264.848 755.103, 257.847 748.394, 251.426 741.443, 245.610 734.265, 240.418 726.877, 235.861 722.206, 233.461 719.292, 231.964 711.525, 228.769 703.595, 226.313 695.519, 224.625 687.321, 223.724 681.418, 223.653 679.022, 223.624 " fill="none" stroke="rgb(0, 0, 0)" stroke-linecap="butt" stroke-linejoin="round" stroke-opacity="1.0" stroke-width="3.0" />
            <path d=" M 655.434, 227.714 655.896, 227.838 662.343, 230.375 668.627, 233.636 674.735, 237.586 680.657, 242.180 686.383, 247.393 691.899, 253.211 697.196, 259.616 702.263, 266.582 707.093, 274.078 711.682, 282.068 716.027, 290.511 720.128, 299.374 723.975, 308.639 727.460, 318.012 727.562, 318.288 730.712, 327.779 730.885, 328.299 733.716, 337.890 733.939, 338.644 736.470, 348.318 736.725, 349.292 738.974, 359.035 739.245, 360.211 741.229, 370.012 741.504, 371.370 743.231, 381.220 743.499, 382.749 744.971, 392.640 745.223, 394.331 746.447, 404.255 746.673, 406.094 747.655, 416.046 747.849, 418.016 748.596, 427.988 748.752, 430.072 749.273, 440.058 749.387, 442.236 749.690, 452.231 749.759, 454.484 749.850, 464.483 749.871, 466.794 749.749, 476.793 749.720, 479.147 749.384, 489.141 749.303, 491.523 748.752, 501.508 748.619, 503.901 747.854, 513.872 747.671, 516.259 747.061, 522.470 746.798, 523.625 746.483, 524.730 746.120, 525.775 745.713, 526.747 745.265, 527.637 744.781, 528.435 744.471, 528.856 " fill="none" stroke="rgb(0, 0, 0)" stroke-linecap="butt" stroke-linejoin="round" stroke-opacity="1.0" stroke-width="3.0" />
            <path d=" M 719.084, 530.602 719.079, 530.964 719.029, 531.513 728.441, 534.890 732.092, 536.200 741.505, 539.576 745.000, 540.830 748.189, 542.130 " fill="none" stroke="rgb(0, 0, 0)" stroke-linecap="butt" stroke-linejoin="round" stroke-opacity="1.0" stroke-width="3.0" />
            <path d=" M 803.180, 536.947 812.494, 540.588 812.957, 540.768 821.979, 544.295 823.658, 544.951 823.854, 545.019 829.578, 546.997 " fill="none" stroke="rgb(0, 0, 0)" stroke-linecap="butt" stroke-linejoin="round" stroke-opacity="1.0" stroke-width="3.0" />
            <path d=" M 799.124, 545.365 799.813, 545.402 809.799, 545.937 812.025, 546.056 813.956, 546.159 821.716, 546.575 823.663, 546.680 829.578, 546.997 830.687, 537.058 831.045, 533.848 831.898, 523.884 832.176, 520.630 832.773, 510.648 832.969, 507.367 833.310, 497.373 833.423, 494.082 833.508, 484.082 833.535, 480.796 833.363, 470.798 833.306, 467.535 832.875, 457.544 832.735, 454.320 832.042, 444.344 831.821, 441.176 830.862, 431.222 830.563, 428.127 829.335, 418.202 828.963, 415.195 827.461, 405.309 827.019, 402.407 825.237, 392.567 824.733, 389.786 822.664, 380.002 822.105, 377.357 819.743, 367.640 819.137, 365.147 816.474, 355.508 815.831, 353.181 813.258, 344.922 812.187, 341.485 808.893, 332.044 808.210, 330.087 805.499, 323.119 803.902, 319.013 799.934, 309.834 799.267, 308.293 794.943, 299.276 794.309, 297.953 789.618, 289.122 789.034, 288.023 783.961, 279.406 783.447, 278.532 777.978, 270.160 777.554, 269.510 775.741, 267.013 771.364, 260.987 768.942, 257.998 764.885, 252.991 758.126, 245.554 751.098, 238.707 743.813, 232.479 736.284, 226.900 728.525, 222.000 720.552, 217.809 712.381, 214.353 704.033, 211.661 695.525, 209.760 686.881, 208.673 678.123, 208.423 668.129, 208.782 662.896, 208.969 " fill="none" stroke="rgb(0, 0, 0)" stroke-linecap="butt" stroke-linejoin="round" stroke-opacity="1.0" stroke-width="3.0" />
            <path d=" M 678.123, 208.423 669.275, 209.032 668.394, 209.179 660.364, 210.520 660.099, 210.591 651.417, 212.901 642.464, 216.188 633.534, 220.392 624.875, 225.395 624.659, 225.520 616.423, 231.193 615.871, 231.573 608.082, 237.844 607.205, 238.550 599.874, 245.351 598.694, 246.446 591.826, 253.714 590.375, 255.250 583.966, 262.927 582.281, 264.945 576.326, 272.979 574.448, 275.512 568.939, 283.858 566.913, 286.927 561.838, 295.543 559.710, 299.156 555.057, 308.008 553.525, 310.921 552.872, 312.164 550.398, 317.446 549.756, 318.815 549.092, 320.234 548.960, 320.515 546.433, 325.910 542.592, 335.143 542.486, 335.399 541.098, 338.735 540.427, 340.348 536.975, 349.734 534.882, 355.426 531.810, 364.943 529.826, 371.088 529.023, 373.950 526.323, 383.579 525.287, 387.274 522.951, 396.998 521.288, 403.921 519.309, 413.723 517.849, 420.958 516.223, 430.825 514.988, 438.317 " fill="none" stroke="rgb(0, 0, 0)" stroke-linecap="butt" stroke-linejoin="round" stroke-opacity="1.0" stroke-width="3.0" />
            <path d=" M 812.427, 531.633 812.568, 531.425 812.997, 530.671 813.401, 529.841 813.717, 529.077 813.774, 528.939 814.115, 527.974 814.421, 526.952 823.404, 529.455 825.269, 529.975 825.036, 530.555 824.636, 531.390 824.210, 532.147 823.761, 532.822 823.293, 533.407 823.024, 533.681 822.809, 533.899 822.313, 534.294 821.809, 534.586 821.302, 534.773 820.794, 534.853 820.291, 534.822 819.797, 534.681 815.308, 532.824 813.918, 532.249 813.440, 532.052 812.427, 531.633 807.704, 529.679 807.363, 528.176 806.923, 526.808 806.393, 525.599 805.780, 524.568 805.096, 523.734 804.350, 523.111 803.556, 522.710 802.726, 522.537 797.972, 522.259 797.854, 522.252 791.427, 521.875 790.855, 521.842 789.997, 521.901 789.168, 522.193 788.385, 522.714 787.625, 523.455 786.902, 524.403 786.844, 524.500 786.228, 525.541 785.615, 526.852 785.073, 528.314 784.612, 529.900 784.240, 531.584 783.963, 533.338 787.691, 534.777 788.401, 535.051 790.132, 535.162 791.390, 535.243 798.593, 535.705 799.044, 535.734 800.279, 535.813 800.370, 535.258 800.499, 534.733 800.661, 534.253 800.852, 533.832 801.068, 533.481 801.301, 533.209 801.546, 533.023 801.796, 532.930 802.044, 532.930 " fill="none" stroke="rgb(0, 0, 0)" stroke-linecap="butt" stroke-linejoin="round" stroke-opacity="1.0" stroke-width="3.0" />
            <path d=" M 790.132, 535.162 789.211, 543.146 787.829, 553.050 787.491, 555.470 785.823, 565.330 784.925, 570.641 777.996, 563.431 775.693, 561.035 771.735, 556.917 764.806, 549.708 764.161, 549.037 763.544, 548.394 762.926, 547.750 762.307, 547.105 761.689, 546.460 760.985, 545.574 760.352, 544.466 759.849, 543.263 759.805, 543.157 759.355, 541.672 759.012, 540.039 758.781, 538.289 758.702, 537.024 758.667, 536.457 758.672, 534.576 758.797, 532.685 759.039, 530.820 759.155, 530.229 759.393, 529.016 759.852, 527.309 760.408, 525.731 761.049, 524.312 761.763, 523.081 762.536, 522.060 763.353, 521.267 764.198, 520.718 765.054, 520.423 765.773, 520.284 766.492, 520.145 767.209, 520.005 767.926, 519.866 768.286, 519.796 778.103, 517.893 781.037, 517.324 790.854, 515.421 792.000, 515.198 791.427, 521.875 " fill="none" stroke="rgb(0, 0, 0)" stroke-linecap="butt" stroke-linejoin="round" stroke-opacity="1.0" stroke-width="3.0" />
            <path d=" M 513.731, 420.431 514.432, 430.407 514.988, 438.317 513.697, 448.234 512.682, 456.023 511.707, 465.975 510.931, 473.900 510.272, 483.878 509.744, 491.870 509.402, 501.819 509.126, 509.854 509.100, 519.854 509.080, 527.774 509.373, 537.770 509.601, 545.552 510.217, 555.533 510.685, 563.112 511.631, 573.067 512.325, 580.379 513.606, 590.296 514.509, 597.281 516.134, 607.148 517.221, 613.749 519.200, 623.552 520.445, 629.720 522.766, 639.341 524.163, 645.131 526.886, 654.753 528.350, 659.926 531.466, 669.428 532.984, 674.055 536.509, 683.413 538.037, 687.469 541.049, 694.467 543.485, 700.127 544.578, 702.359 548.471, 710.305 549.298, 711.992 550.046, 713.336 554.108, 720.632 555.445, 723.035 555.644, 723.349 557.664, 726.540 561.897, 733.227 567.750, 741.336 568.625, 742.548 574.996, 750.257 575.597, 750.984 582.496, 758.223 582.782, 758.523 590.150, 765.156 597.672, 770.882 605.317, 775.705 613.057, 779.628 620.866, 782.660 628.716, 784.813 636.581, 786.104 644.437, 786.549 652.262, 786.165 660.032, 784.977 667.728, 783.009 675.330, 780.281 682.820, 776.821 690.180, 772.658 697.395, 767.816 704.449, 762.323 711.331, 756.208 718.026, 749.500 724.523, 742.227 730.812, 734.415 736.707, 726.337 736.884, 726.096 742.416, 717.765 742.728, 717.295 747.912, 708.744 748.338, 708.041 753.187, 699.296 753.706, 698.361 758.234, 689.445 758.824, 688.282 763.044, 679.215 763.688, 677.830 767.610, 668.631 768.292, 667.031 771.926, 657.714 772.630, 655.910 775.987, 646.490 776.699, 644.494 779.787, 634.983 780.493, 632.806 783.320, 623.214 784.010, 620.870 786.583, 611.206 787.247, 608.711 789.571, 598.984 790.200, 596.351 792.280, 586.570 792.866, 583.814 794.708, 573.985 795.244, 571.123 796.850, 561.252 797.330, 558.299 798.704, 548.394 799.124, 545.365 793.904, 543.392 799.030, 543.661 809.016, 544.184 812.546, 544.369 812.228, 544.246 802.899, 540.646 799.325, 539.267 798.777, 539.055 791.332, 536.182 791.383, 535.616 791.390, 535.243 " fill="none" stroke="rgb(0, 0, 0)" stroke-linecap="butt" stroke-linejoin="round" stroke-opacity="1.0" stroke-width="3.0" />
            <path d=" M 764.646, 537.417 764.334, 537.301 764.047, 537.041 763.798, 536.649 763.598, 536.140 763.456, 535.537 763.378, 534.869 763.368, 534.162 763.426, 533.450 763.549, 532.761 763.733, 532.128 763.968, 531.578 764.245, 531.134 764.552, 530.817 764.874, 530.640 765.198, 530.610 " fill="none" stroke="rgb(0, 0, 0)" stroke-linecap="butt" stroke-linejoin="round" stroke-opacity="1.0" stroke-width="3.0" />
            <path d=" M 765.198, 530.610 765.509, 530.730 765.795, 530.992 766.043, 531.386 766.242, 531.894 766.383, 532.495 766.461, 533.161 766.471, 533.864 766.413, 534.575 766.290, 535.260 766.108, 535.892 765.874, 536.442 765.598, 536.885 765.292, 537.204 764.970, 537.384 764.646, 537.417 " fill="none" stroke="rgb(0, 0, 0)" stroke-linecap="butt" stroke-linejoin="round" stroke-opacity="1.0" stroke-width="3.0" />
            <path d=" M 505.299, 455.425 504.321, 465.377 503.486, 473.880 502.826, 483.859 502.259, 492.432 501.916, 502.426 501.837, 504.708 501.621, 510.997 501.597, 520.997 501.577, 529.493 501.874, 539.489 502.122, 547.838 502.744, 557.819 503.251, 565.953 504.204, 575.907 504.956, 583.758 506.247, 593.674 507.225, 601.180 508.862, 611.045 510.041, 618.146 512.035, 627.945 513.387, 634.589 515.750, 644.306 517.243, 650.445 519.987, 660.061 521.169, 664.202 521.584, 665.657 524.725, 675.151 526.385, 680.171 529.939, 689.518 531.620, 693.939 535.605, 703.111 537.259, 706.918 539.466, 711.378 543.055, 718.632 543.273, 719.072 546.881, 725.485 548.461, 728.295 549.629, 730.370 552.539, 734.916 554.094, 737.343 556.111, 740.493 556.298, 740.785 562.197, 748.860 563.247, 750.297 569.667, 757.964 570.444, 758.891 577.395, 766.080 577.857, 766.558 585.342, 773.190 585.455, 773.290 593.207, 779.087 601.083, 783.954 609.052, 787.895 617.088, 790.922 625.163, 793.048 633.249, 794.290 641.324, 794.666 649.363, 794.197 657.343, 792.907 665.244, 790.820 673.046, 787.960 680.731, 784.354 688.281, 780.033 695.680, 775.022 702.914, 769.350 709.970, 763.046 716.833, 756.140 723.493, 748.660 729.755, 740.863 729.939, 740.634 735.828, 732.552 736.162, 732.093 741.690, 723.760 742.152, 723.064 747.334, 714.512 747.901, 713.575 752.750, 704.829 753.403, 703.653 757.932, 694.737 758.649, 693.326 762.871, 684.261 763.634, 682.622 767.559, 673.424 768.353, 671.564 771.991, 662.249 772.799, 660.180 776.161, 650.762 776.970, 648.495 780.063, 638.985 780.860, 636.534 783.691, 626.943 784.465, 624.321 787.042, 614.658 787.783, 611.880 790.110, 602.155 790.809, 599.235 792.892, 589.455 793.541, 586.410 795.384, 576.581 795.976, 573.427 797.583, 563.557 798.112, 560.309 799.486, 550.403 799.947, 547.078 799.813, 545.402 " fill="none" stroke="rgb(0, 0, 0)" stroke-linecap="butt" stroke-linejoin="round" stroke-opacity="1.0" stroke-width="3.0" />
            <path d=" M 662.896, 208.969 656.781, 209.390 654.847, 209.523 646.721, 210.955 638.545, 213.280 630.344, 216.512 622.147, 220.663 613.982, 225.742 605.879, 231.749 598.318, 238.295 597.869, 238.684 590.786, 245.744 589.984, 246.544 583.375, 254.048 582.258, 255.316 576.111, 263.204 574.723, 264.985 569.025, 273.203 567.412, 275.530 562.150, 284.034 560.359, 286.928 555.517, 295.677 553.598, 299.145 552.178, 302.012 548.943, 308.544 547.508, 311.441 547.230, 312.003 547.160, 312.145 546.530, 313.566 542.483, 322.711 541.077, 325.886 540.870, 326.411 539.533, 329.800 535.862, 339.103 535.381, 340.323 532.075, 349.761 530.099, 355.402 527.210, 364.755 525.260, 371.067 522.653, 380.721 520.889, 387.258 518.619, 396.997 517.008, 403.909 515.063, 413.718 513.731, 420.431 510.331, 429.835 507.687, 437.147 " fill="none" stroke="rgb(0, 0, 0)" stroke-linecap="butt" stroke-linejoin="round" stroke-opacity="1.0" stroke-width="3.0" />
            <path d=" M 507.687, 437.147 506.391, 447.063 505.299, 455.425 " fill="none" stroke="rgb(0, 0, 0)" stroke-linecap="butt" stroke-linejoin="round" stroke-opacity="1.0" stroke-width="3.0" />
            <path d=" M 813.258, 344.922 812.329, 340.930 809.822, 331.249 809.518, 330.076 806.765, 320.462 806.472, 319.437 803.465, 309.900 803.190, 309.030 799.921, 299.579 799.676, 298.870 796.135, 289.518 795.929, 288.976 792.105, 279.736 791.952, 279.366 787.833, 270.254 787.746, 270.061 783.311, 261.083 778.650, 252.452 773.766, 244.190 768.663, 236.313 763.345, 228.841 757.819, 221.792 752.087, 215.188 746.157, 209.051 740.033, 203.404 733.721, 198.272 727.230, 193.680 720.569, 189.647 713.746, 186.189 706.772, 183.326 699.658, 181.076 692.416, 179.459 685.057, 178.495 677.596, 178.205 670.047, 178.610 669.169, 178.739 662.426, 179.728 654.750, 181.568 647.035, 184.140 639.299, 187.453 631.561, 191.514 623.841, 196.332 616.159, 201.911 608.539, 208.258 601.268, 215.124 601.002, 215.375 600.366, 216.051 593.573, 223.258 591.556, 225.644 586.273, 231.897 580.211, 239.850 579.124, 241.278 573.445, 249.509 572.149, 251.386 570.286, 254.361 565.372, 262.207 560.425, 270.897 558.818, 273.721 554.220, 282.601 552.509, 285.905 550.309, 290.582 547.025, 297.563 546.472, 298.738 545.654, 300.654 544.068, 304.369 543.324, 306.110 540.730, 312.188 538.985, 316.695 537.677, 320.076 535.301, 326.216 531.999, 335.655 530.205, 340.785 527.204, 350.324 525.463, 355.856 525.376, 356.167 522.668, 365.794 521.096, 371.386 518.676, 381.089 517.120, 387.331 514.982, 397.100 513.550, 403.640 511.689, 413.465 510.402, 420.263 508.815, 430.136 507.687, 437.147 506.371, 447.060 505.418, 454.239 505.299, 455.425 504.248, 465.369 503.602, 471.481 502.821, 481.451 502.245, 488.819 501.732, 498.806 501.392, 505.423 501.352, 506.194 501.107, 516.191 500.927, 523.550 500.952, 533.550 500.969, 540.830 501.265, 550.826 501.476, 557.977 502.045, 567.961 502.442, 574.938 503.289, 584.902 503.863, 591.657 504.995, 601.593 505.735, 608.081 507.158, 617.979 508.047, 624.159 509.767, 634.010 510.786, 639.846 512.808, 649.639 513.936, 655.096 516.270, 664.820 517.481, 669.868 519.994, 678.991 521.407, 684.124 524.395, 693.667 525.697, 697.825 529.031, 707.253 530.334, 710.937 534.029, 720.229 535.301, 723.427 537.633, 728.661 540.578, 735.268 541.152, 736.422 544.766, 743.678 546.141, 746.439 546.281, 746.691 550.255, 753.840 551.764, 756.556 551.968, 756.923 553.762, 759.815 558.038, 766.706 563.736, 774.924 564.327, 775.775 570.466, 783.669 570.815, 784.118 577.405, 791.640 577.482, 791.728 584.307, 798.595 591.270, 804.716 598.350, 810.092 605.525, 814.731 612.775, 818.641 620.081, 821.831 627.424, 824.310 633.588, 825.800 634.786, 826.089 642.153, 827.178 649.507, 827.586 656.833, 827.327 664.118, 826.418 671.345, 824.881 678.502, 822.737 685.577, 820.003 692.557, 816.699 699.433, 812.842 706.195, 808.448 712.832, 803.535 719.335, 798.120 725.696, 792.226 731.909, 785.876 737.965, 779.091 743.860, 771.891 749.587, 764.293 755.139, 756.316 760.513, 747.976 765.640, 739.390 765.701, 739.288 770.550, 730.542 770.700, 730.271 775.282, 721.382 775.507, 720.946 779.831, 711.929 780.118, 711.331 784.194, 702.199 784.531, 701.444 788.366, 692.208 788.743, 691.301 792.344, 681.972 792.751, 680.919 796.123, 671.505 796.551, 670.312 799.699, 660.820 800.140, 659.494 803.070, 649.933 803.515, 648.480 806.234, 638.857 806.677, 637.288 809.189, 627.609 809.624, 625.934 811.933, 616.204 812.354, 614.432 814.462, 604.656 814.864, 602.795 816.775, 592.979 817.153, 591.037 818.870, 581.185 819.220, 579.173 820.745, 569.290 821.064, 567.218 822.398, 557.307 822.684, 555.184 823.663, 546.680 " fill="none" stroke="rgb(0, 0, 0)" stroke-linecap="butt" stroke-linejoin="round" stroke-opacity="1.0" stroke-width="3.0" />
            <path d=" M 667.801, 178.812 660.170, 179.930 652.483, 181.771 644.759, 184.342 637.013, 187.653 629.266, 191.711 621.537, 196.525 613.846, 202.100 606.217, 208.441 598.940, 215.300 598.673, 215.552 595.327, 219.096 591.236, 223.428 585.157, 230.608 583.928, 232.059 577.860, 240.007 576.773, 241.430 571.086, 249.656 569.792, 251.529 564.477, 260.000 563.009, 262.339 561.883, 264.313 561.859, 264.354 561.624, 264.766 561.513, 264.962 561.489, 265.003 561.407, 265.147 561.224, 265.469 561.204, 265.503 560.062, 267.505 556.448, 273.840 551.844, 282.717 550.135, 286.012 549.672, 286.995 546.376, 293.986 544.978, 296.953 544.093, 298.831 542.867, 301.698 542.103, 303.484 538.347, 312.266 538.167, 312.730 536.862, 316.095 533.247, 325.419 532.914, 326.279 529.607, 335.716 527.815, 340.832 524.809, 350.369 524.375, 351.749 523.071, 355.886 520.359, 365.511 518.701, 371.399 516.278, 381.101 514.723, 387.325 512.582, 397.093 511.153, 403.616 509.290, 413.441 508.004, 420.220 506.415, 430.092 505.289, 437.084 503.972, 446.997 503.020, 454.156 501.972, 464.101 501.205, 471.379 500.424, 481.349 499.849, 488.697 499.337, 498.684 498.958, 506.052 498.875, 509.462 498.632, 519.459 498.536, 523.389 498.562, 533.389 498.581, 540.649 498.879, 550.645 499.091, 557.777 499.663, 567.761 500.061, 574.718 500.911, 584.682 501.486, 591.419 502.622, 601.355 503.362, 607.825 504.790, 617.723 505.680, 623.887 507.404, 633.737 508.424, 639.556 510.452, 649.348 511.579, 654.791 513.919, 664.513 515.131, 669.548 517.793, 679.187 519.064, 683.789 519.468, 685.077 522.463, 694.618 523.361, 697.477 526.702, 706.902 528.005, 710.576 531.708, 719.865 532.979, 723.055 537.058, 732.185 537.207, 732.519 538.264, 734.885 540.756, 739.877 543.835, 746.046 544.347, 746.964 545.894, 749.741 549.671, 756.522 549.878, 756.854 551.401, 759.304 553.402, 762.522 555.749, 766.297 561.456, 774.508 562.047, 775.359 568.194, 783.246 568.545, 783.696 575.142, 791.211 575.221, 791.301 582.055, 798.165 589.028, 804.282 596.118, 809.656 603.303, 814.293 610.563, 818.203 617.879, 821.393 625.232, 823.874 632.604, 825.654 " fill="none" stroke="rgb(0, 0, 0)" stroke-linecap="butt" stroke-linejoin="round" stroke-opacity="1.0" stroke-width="3.0" />
            <path d=" M 670.047, 178.610 667.801, 178.812 " fill="none" stroke="rgb(0, 0, 0)" stroke-linecap="butt" stroke-linejoin="round" stroke-opacity="1.0" stroke-width="3.0" />
            <path d=" M 632.604, 825.654 634.786, 826.089 " fill="none" stroke="rgb(0, 0, 0)" stroke-linecap="butt" stroke-linejoin="round" stroke-opacity="1.0" stroke-width="3.0" />
            <path d=" M 489.792, 433.476 489.033, 439.129 487.703, 449.040 487.551, 450.167 487.164, 453.052 486.107, 462.996 485.063, 472.806 484.278, 482.775 483.498, 492.672 482.984, 502.659 482.744, 507.326 482.738, 507.440 482.474, 512.579 482.377, 516.599 482.376, 516.657 482.278, 520.721 482.202, 523.860 481.994, 532.458 482.027, 542.458 482.059, 552.241 482.368, 562.237 482.665, 571.860 483.254, 581.843 483.809, 591.248 484.681, 601.210 485.481, 610.340 486.643, 620.273 487.673, 629.074 489.130, 638.968 490.371, 647.391 492.131, 657.235 493.561, 665.232 495.632, 675.016 497.227, 682.546 499.619, 692.256 501.349, 699.282 504.072, 708.904 505.909, 715.394 508.975, 724.913 510.884, 730.841 513.479, 737.971 515.185, 742.655 516.252, 745.585 520.041, 754.840 521.988, 759.593 522.194, 760.043 526.367, 769.131 528.068, 772.835 530.504, 777.574 530.971, 778.484 531.404, 779.325 531.986, 780.459 534.467, 785.286 534.558, 785.443 537.964, 791.368 539.011, 793.189 539.477, 794.000 540.487, 795.757 541.159, 796.926 543.473, 800.521 544.058, 801.429 544.977, 802.857 547.023, 806.036 548.119, 807.738 553.973, 815.845 555.319, 817.709 561.627, 825.469 562.735, 826.832 569.505, 834.191 570.341, 835.099 577.577, 842.001 578.111, 842.510 585.810, 848.891 586.020, 849.065 594.045, 854.770 602.163, 859.631 610.350, 863.658 618.585, 866.863 626.846, 869.260 631.172, 870.210 639.418, 871.808 647.652, 872.630 655.857, 872.694 664.015, 872.020 672.111, 870.628 680.129, 868.541 688.055, 865.781 695.877, 862.369 703.582, 858.330 711.159, 853.687 718.598, 848.462 725.888, 842.679 733.022, 836.362 739.990, 829.534 746.786, 822.216 753.262, 814.596 753.402, 814.431 759.560, 806.552 759.833, 806.203 765.682, 798.092 766.072, 797.551 771.624, 789.234 772.115, 788.498 777.379, 779.996 777.956, 779.064 782.944, 770.396 783.592, 769.269 788.313, 760.453 789.019, 759.134 793.481, 750.185 794.233, 748.677 798.445, 739.608 799.230, 737.918 803.202, 728.741 804.009, 726.875 807.747, 717.600 808.567, 715.566 812.078, 706.203 812.900, 704.008 816.191, 694.565 817.008, 692.219 820.083, 682.703 820.888, 680.214 823.754, 670.634 824.538, 668.011 827.199, 658.372 827.957, 655.625 830.417, 645.932 831.143, 643.071 833.406, 633.331 834.095, 630.365 836.164, 620.582 836.811, 617.522 838.689, 607.700 839.290, 604.556 840.980, 594.700 841.532, 591.482 843.035, 581.596 843.534, 578.314 844.852, 568.401 845.296, 565.066 846.431, 555.131 846.817, 551.752 847.769, 541.797 848.095, 538.386 848.865, 528.415 849.130, 524.981 849.718, 514.998 849.921, 511.552 850.326, 501.560 850.466, 498.112 850.689, 488.114 850.765, 484.675 850.804, 474.675 850.817, 471.255 850.670, 461.256 850.620, 457.865 850.286, 447.871 850.174, 444.521 849.650, 434.535 849.477, 431.237 848.761, 421.262 848.529, 418.026 847.618, 408.068 847.329, 404.905 846.220, 394.966 845.876, 391.887 844.564, 381.974 844.169, 378.989 842.650, 369.106 842.207, 366.227 840.476, 356.378 839.991, 353.616 838.042, 343.808 837.518, 341.174 835.345, 331.413 834.789, 328.917 832.385, 319.210 831.804, 316.863 829.162, 307.218 828.562, 305.029 825.673, 295.456 825.063, 293.436 821.918, 283.943 821.308, 282.101 817.898, 272.700 817.297, 271.044 813.610, 261.748 813.030, 260.285 809.057, 251.109 808.510, 249.846 804.237, 240.805 803.737, 239.748 799.152, 230.861 798.713, 230.012 793.802, 221.301 793.441, 220.661 788.190, 212.150 787.923, 211.717 782.318, 203.436 782.162, 203.205 776.162, 195.148 769.928, 187.571 763.465, 180.499 756.778, 173.955 749.875, 167.967 742.761, 162.559 735.446, 157.756 727.940, 153.585 720.251, 150.070 712.391, 147.237 704.372, 145.109 696.208, 143.711 687.914, 143.066 679.504, 143.195 675.059, 143.663 666.527, 144.590 657.916, 146.329 649.243, 148.899 640.530, 152.315 631.797, 156.590 623.182, 161.668 623.069, 161.735 614.846, 167.427 614.367, 167.758 606.553, 173.998 605.718, 174.665 598.318, 181.391 597.146, 182.457 590.162, 189.613 588.679, 191.133 582.105, 198.668 580.343, 200.688 574.172, 208.556 572.167, 211.113 566.388, 219.274 564.177, 222.396 558.780, 230.814 556.404, 234.519 551.375, 243.163 548.875, 247.461 544.203, 256.303 543.832, 257.006 541.618, 261.197 541.072, 262.336 540.142, 264.273 538.809, 267.052 537.819, 269.116 536.131, 272.634 534.782, 275.445 534.662, 275.695 531.899, 282.045 531.231, 283.580 530.906, 284.328 529.962, 286.496 528.035, 290.923 526.111, 295.806 524.953, 298.744 523.690, 301.948 521.763, 306.840 518.412, 316.262 516.296, 322.211 515.872, 323.404 512.827, 332.929 510.386, 340.568 509.931, 342.160 507.186, 351.776 505.329, 358.280 502.876, 367.975 500.722, 376.486 498.556, 386.249 496.586, 395.129 494.702, 404.950 492.937, 414.146 491.332, 424.017 490.617, 428.408 489.792, 433.476 " fill="none" stroke="rgb(0, 0, 0)" stroke-linecap="butt" stroke-linejoin="round" stroke-opacity="1.0" stroke-width="3.0" />
            <path d=" M 679.504, 143.195 670.995, 144.120 662.406, 145.859 653.755, 148.430 645.063, 151.848 636.352, 156.128 627.745, 161.219 627.644, 161.279 619.431, 166.985 618.962, 167.311 611.159, 173.566 610.332, 174.229 602.945, 180.969 601.778, 182.034 594.807, 189.204 593.328, 190.725 586.769, 198.273 585.009, 200.298 578.852, 208.178 576.848, 210.743 571.084, 218.914 568.873, 222.048 563.490, 230.475 561.113, 234.195 556.099, 242.847 553.597, 247.164 548.939, 256.013 548.177, 257.461 546.352, 260.928 545.177, 263.386 542.422, 269.149 542.393, 269.209 542.354, 269.291 541.647, 270.770 540.287, 273.616 539.407, 275.458 535.428, 284.632 534.689, 286.336 533.754, 288.492 532.996, 290.239 532.788, 290.718 531.735, 293.401 528.080, 302.710 526.524, 306.670 523.184, 316.095 520.640, 323.271 518.610, 329.645 515.574, 339.173 515.160, 340.473 512.423, 350.091 510.108, 358.225 508.914, 362.961 506.468, 372.657 505.505, 376.473 505.340, 377.221 504.881, 379.296 502.721, 389.060 501.371, 395.158 500.354, 400.475 498.475, 410.297 497.724, 414.220 496.122, 424.091 494.579, 433.594 494.209, 436.360 492.881, 446.271 491.950, 453.215 491.233, 459.965 490.177, 469.909 489.847, 473.015 489.062, 482.984 488.279, 492.926 487.764, 502.913 487.752, 503.140 487.533, 507.403 487.435, 509.289 487.250, 512.879 487.158, 516.682 487.108, 518.733 486.981, 523.947 486.765, 532.804 486.795, 542.804 486.796, 543.147 486.823, 552.632 487.128, 562.627 487.242, 566.388 487.422, 572.295 488.005, 582.278 488.557, 591.726 489.423, 601.689 490.220, 610.861 491.374, 620.794 492.401, 629.636 493.850, 639.530 495.088, 647.992 496.838, 657.837 498.266, 665.871 500.326, 675.657 501.919, 683.221 504.299, 692.934 504.862, 695.235 506.028, 699.991 508.737, 709.617 510.573, 716.135 513.624, 725.658 514.668, 728.916 515.532, 731.612 518.938, 741.014 520.883, 746.384 524.657, 755.644 526.602, 760.417 530.759, 769.512 531.949, 772.115 532.665, 773.682 535.501, 779.225 538.852, 785.776 539.046, 786.154 540.364, 788.457 544.316, 795.361 545.719, 797.813 545.793, 797.928 547.832, 801.110 552.659, 808.641 558.497, 816.760 559.839, 818.626 566.132, 826.398 567.235, 827.760 573.991, 835.133 574.820, 836.037 582.043, 842.952 582.568, 843.455 590.256, 849.850 590.456, 850.016 598.460, 855.725 606.555, 860.587 614.720, 864.614 622.932, 867.817 631.172, 870.210 " fill="none" stroke="rgb(0, 0, 0)" stroke-linecap="butt" stroke-linejoin="round" stroke-opacity="1.0" stroke-width="3.0" />
            <path d=" M 747.493, 530.004 744.471, 528.856 735.123, 525.304 734.862, 525.205 734.491, 523.745 734.018, 522.416 733.452, 521.240 732.800, 520.238 732.075, 519.425 731.287, 518.817 730.450, 518.424 729.578, 518.253 719.595, 517.668 718.420, 517.599 717.522, 517.653 716.652, 517.932 715.827, 518.434 715.029, 519.148 714.272, 520.064 713.567, 521.165 712.928, 522.433 712.365, 523.847 711.888, 525.383 711.506, 527.014 711.225, 528.714 715.924, 530.399 719.084, 530.602 727.088, 531.116 727.181, 530.578 727.314, 530.070 727.482, 529.605 727.682, 529.198 727.907, 528.858 728.153, 528.596 728.411, 528.417 728.675, 528.328 728.937, 528.330 " fill="none" stroke="rgb(0, 0, 0)" stroke-linecap="butt" stroke-linejoin="round" stroke-opacity="1.0" stroke-width="3.0" />
            <path d=" M 729.578, 518.253 728.686, 518.307 727.822, 518.588 727.003, 519.093 726.211, 519.812 725.458, 520.732 724.758, 521.839 724.123, 523.114 723.563, 524.535 723.089, 526.079 722.708, 527.718 722.672, 527.936 722.427, 529.426 " fill="none" stroke="rgb(0, 0, 0)" stroke-linecap="butt" stroke-linejoin="round" stroke-opacity="1.0" stroke-width="3.0" />
            <path d=" M 711.225, 528.714 718.925, 529.203 722.427, 529.426 727.088, 531.116 " fill="none" stroke="rgb(0, 0, 0)" stroke-linecap="butt" stroke-linejoin="round" stroke-opacity="1.0" stroke-width="3.0" />
            <path d=" M 728.937, 528.330 729.191, 528.423 729.430, 528.605 729.647, 528.870 729.836, 529.212 729.992, 529.620 730.110, 530.085 730.189, 530.592 730.225, 531.129 730.218, 531.681 730.167, 532.232 " fill="none" stroke="rgb(0, 0, 0)" stroke-linecap="butt" stroke-linejoin="round" stroke-opacity="1.0" stroke-width="3.0" />
            <path d=" M 719.029, 531.513 729.008, 532.158 730.167, 532.232 739.568, 535.641 747.350, 538.464 " fill="none" stroke="rgb(0, 0, 0)" stroke-linecap="butt" stroke-linejoin="round" stroke-opacity="1.0" stroke-width="3.0" />
            <path d=" M 802.726, 522.537 801.875, 522.597 801.053, 522.891 800.277, 523.416 799.523, 524.161 798.806, 525.114 798.138, 526.259 798.081, 526.382 797.529, 527.577 796.991, 529.046 796.533, 530.640 796.162, 532.333 796.127, 532.558 795.886, 534.096 " fill="none" stroke="rgb(0, 0, 0)" stroke-linecap="butt" stroke-linejoin="round" stroke-opacity="1.0" stroke-width="3.0" />
            <path d=" M 783.963, 533.338 791.248, 533.801 795.886, 534.096 798.562, 535.142 800.279, 535.813 " fill="none" stroke="rgb(0, 0, 0)" stroke-linecap="butt" stroke-linejoin="round" stroke-opacity="1.0" stroke-width="3.0" />
            <path d=" M 802.044, 532.930 802.283, 533.025 802.508, 533.211 802.711, 533.483 802.887, 533.835 803.031, 534.255 803.141, 534.733 803.212, 535.256 803.242, 535.809 803.232, 536.378 803.180, 536.947 798.645, 536.654 791.332, 536.182 " fill="none" stroke="rgb(0, 0, 0)" stroke-linecap="butt" stroke-linejoin="round" stroke-opacity="1.0" stroke-width="3.0" />
            <path d=" M 787.247, 501.095 787.448, 501.173 787.627, 501.292 787.778, 501.449 787.896, 501.636 787.976, 501.851 788.014, 502.085 788.006, 502.335 787.954, 502.569 787.863, 502.792 787.734, 502.995 787.574, 503.172 787.387, 503.315 787.179, 503.420 786.955, 503.482 786.721, 503.496 786.562, 503.475 786.409, 503.430 " fill="none" stroke="rgb(0, 0, 0)" stroke-linecap="butt" stroke-linejoin="round" stroke-opacity="1.0" stroke-width="3.0" />
            <path d=" M 787.247, 501.095 787.223, 501.086 787.208, 501.082 787.192, 501.078 787.155, 501.069 787.114, 501.061 787.069, 501.054 787.022, 501.048 786.974, 501.044 786.928, 501.040 786.888, 501.039 786.853, 501.040 786.825, 501.042 786.620, 501.068 786.580, 501.076 786.366, 501.151 786.332, 501.166 786.127, 501.287 785.951, 501.446 785.808, 501.638 785.794, 501.669 785.690, 501.891 785.632, 502.137 785.625, 502.374 785.665, 502.608 785.751, 502.829 785.879, 503.030 785.902, 503.058 786.062, 503.224 786.255, 503.357 786.409, 503.430 " fill="none" stroke="rgb(0, 0, 0)" stroke-linecap="butt" stroke-linejoin="round" stroke-opacity="1.0" stroke-width="3.0" />
            <path d=" M 784.448, 499.097 783.669, 505.176 784.586, 505.359 787.011, 505.457 789.954, 505.576 790.229, 499.435 790.090, 499.375 787.291, 499.237 784.448, 499.097 " fill="none" stroke="rgb(0, 0, 0)" stroke-linecap="butt" stroke-linejoin="round" stroke-opacity="1.0" stroke-width="3.0" />
            <path d=" M 783.669, 505.176 789.312, 505.468 " fill="none" stroke="rgb(0, 0, 0)" stroke-linecap="butt" stroke-linejoin="round" stroke-opacity="1.0" stroke-width="3.0" />
            <path d=" M 789.954, 505.576 789.312, 505.468 790.090, 499.375 " fill="none" stroke="rgb(0, 0, 0)" stroke-linecap="butt" stroke-linejoin="round" stroke-opacity="1.0" stroke-width="3.0" />
            <path d=" M 732.092, 536.200 727.156, 535.325 717.342, 533.408 715.718, 533.090 705.934, 531.023 704.291, 530.676 694.535, 528.483 692.870, 528.108 683.138, 525.810 681.447, 525.411 671.735, 523.030 670.017, 522.609 660.320, 520.166 658.572, 519.726 648.885, 517.241 647.106, 516.784 637.426, 514.277 635.615, 513.808 625.935, 511.296 624.091, 510.818 614.408, 508.321 612.530, 507.837 602.838, 505.374 600.925, 504.888 591.221, 502.475 589.272, 501.991 579.551, 499.646 577.565, 499.167 577.125, 489.177 576.956, 485.324 576.386, 475.341 576.176, 471.649 575.472, 461.674 575.224, 458.163 574.381, 448.199 574.101, 444.889 573.111, 434.938 572.804, 431.849 571.661, 421.914 571.333, 419.066 570.028, 409.152 569.687, 406.565 568.210, 396.675 567.866, 394.371 566.205, 384.510 565.869, 382.512 564.011, 372.686 563.695, 371.014 561.626, 361.230 561.345, 359.904 559.045, 350.173 558.819, 349.215 558.255, 347.079 556.116, 338.975 555.146, 335.686 " fill="none" stroke="rgb(0, 0, 0)" stroke-linecap="butt" stroke-linejoin="round" stroke-opacity="1.0" stroke-width="3.0" />
            <path d=" M 536.346, 269.105 535.309, 268.990 533.278, 268.763 527.949, 268.169 526.620, 267.887 524.374, 267.411 519.364, 266.349 515.229, 265.069 512.892, 264.345 510.645, 263.649 " fill="none" stroke="rgb(0, 0, 0)" stroke-linecap="butt" stroke-linejoin="round" stroke-opacity="1.0" stroke-width="3.0" />
            <path d=" M 510.645, 263.649 505.899, 262.454 501.040, 262.218 496.080, 262.974 491.031, 264.753 488.700, 266.042 485.907, 267.587 484.521, 268.634 480.723, 271.505 478.283, 273.851 475.496, 276.529 470.243, 282.678 469.932, 283.109 464.984, 289.969 461.125, 296.180 459.738, 298.412 456.925, 303.593 454.528, 308.009 450.205, 317.027 449.374, 318.759 445.451, 327.957 444.301, 330.652 440.736, 339.995 439.333, 343.672 436.092, 353.132 434.495, 357.792 431.548, 367.348 429.811, 372.979 427.135, 382.614 425.308, 389.192 422.882, 398.893 421.010, 406.381 418.817, 416.137 416.941, 424.485 414.968, 434.288 413.126, 443.437 411.361, 453.280 409.589, 463.162 408.022, 473.039 406.456, 482.915 406.351, 483.576 404.975, 493.481 403.599, 503.385 403.432, 504.587 402.240, 514.515 401.049, 524.444 400.850, 526.098 399.839, 536.047 398.828, 545.995 398.624, 548.007 397.789, 557.972 396.955, 567.938 396.765, 570.207 396.105, 580.186 395.445, 590.164 395.285, 592.587 394.800, 602.576 394.315, 612.564 394.195, 615.035 393.884, 625.030 393.574, 635.025 393.499, 637.436 393.365, 647.435 393.231, 657.434 393.201, 659.676 393.246, 669.676 393.291, 679.676 393.300, 681.644 393.529, 691.641 393.758, 701.638 393.794, 703.230 394.213, 713.221 394.631, 723.212 394.678, 724.331 395.294, 734.312 395.909, 744.293 395.943, 744.846 396.764, 754.812 397.578, 764.681 397.601, 764.574 399.697, 754.796 401.792, 745.018 403.123, 738.806 403.195, 738.471 405.385, 728.714 407.575, 718.957 408.926, 712.938 411.213, 703.203 413.500, 693.468 414.770, 688.058 417.157, 678.348 419.544, 668.637 420.730, 663.814 423.220, 654.128 425.710, 644.443 426.805, 640.183 429.400, 630.525 431.996, 620.868 432.996, 617.146 435.700, 607.518 438.404, 597.891 439.305, 594.683 442.120, 585.088 444.935, 575.492 445.732, 572.776 448.661, 563.214 451.590, 553.653 452.279, 551.405 455.324, 541.880 458.369, 532.355 458.946, 530.552 462.110, 521.065 465.274, 511.579 465.735, 510.198 469.020, 500.753 472.306, 491.308 472.647, 490.326 476.056, 480.925 479.465, 471.524 479.684, 470.917 483.218, 461.563 486.752, 452.208 486.848, 451.956 487.551, 450.167 " fill="none" stroke="rgb(0, 0, 0)" stroke-linecap="butt" stroke-linejoin="round" stroke-opacity="1.0" stroke-width="3.0" />
            <path d=" M 367.419, 756.272 363.512, 765.478 362.680, 767.438 " fill="none" stroke="rgb(0, 0, 0)" stroke-linecap="butt" stroke-linejoin="round" stroke-opacity="1.0" stroke-width="3.0" />
            <path d=" M 488.700, 266.042 478.704, 265.756 475.295, 265.658 " fill="none" stroke="rgb(0, 0, 0)" stroke-linecap="butt" stroke-linejoin="round" stroke-opacity="1.0" stroke-width="3.0" />
            <path d=" M 530.947, 469.385 530.938, 469.412 " fill="none" stroke="rgb(0, 0, 0)" stroke-linecap="butt" stroke-linejoin="round" stroke-opacity="1.0" stroke-width="3.0" />
            <path d=" M 537.819, 269.116 536.346, 269.105 535.335, 269.098 533.355, 269.084 531.464, 269.070 " fill="none" stroke="rgb(0, 0, 0)" stroke-linecap="butt" stroke-linejoin="round" stroke-opacity="1.0" stroke-width="3.0" />
            <path d=" M 557.832, 508.538 557.763, 505.584 " fill="none" stroke="rgb(0, 0, 0)" stroke-linecap="butt" stroke-linejoin="round" stroke-opacity="1.0" stroke-width="3.0" />
            <path d=" M 558.867, 352.458 558.255, 347.079 " fill="none" stroke="rgb(0, 0, 0)" stroke-linecap="butt" stroke-linejoin="round" stroke-opacity="1.0" stroke-width="3.0" />
        </g>
    </g>
</svg>
