<?xml version='1.0' encoding='ascii'?>
<svg xmlns="http://www.w3.org/2000/svg" height="1080" version="1.1" width="1080">
    <g id="View Layer_LineSet" inkscape:groupmode="lineset" inkscape:label="View Layer_LineSet" xmlns:inkscape="http://www.inkscape.org/namespaces/inkscape">
        <g id="strokes" inkscape:groupmode="layer" inkscape:label="strokes" xmlns:inkscape="http://www.inkscape.org/namespaces/inkscape">
            <path d=" M 564.029, 489.611 564.038, 490.767 564.028, 491.787 564.027, 491.931 563.995, 493.091 563.944, 494.238 563.873, 495.358 563.783, 496.441 563.675, 497.476 563.550, 498.453 563.407, 499.362 563.297, 499.970 563.291, 499.998 563.180, 500.533 563.065, 501.016 563.057, 501.050 562.928, 501.516 562.794, 501.931 562.656, 502.290 562.514, 502.593 560.927, 505.626 559.852, 507.682 559.393, 508.561 " fill="none" stroke="rgb(0, 0, 0)" stroke-linecap="butt" stroke-linejoin="round" stroke-opacity="1.0" stroke-width="3.0" />
            <path d=" M 362.990, 770.580 369.069, 775.251 " fill="none" stroke="rgb(0, 0, 0)" stroke-linecap="butt" stroke-linejoin="round" stroke-opacity="1.0" stroke-width="3.0" />
            <path d=" M 386.752, 776.361 396.202, 773.092 398.267, 772.377 " fill="none" stroke="rgb(0, 0, 0)" stroke-linecap="butt" stroke-linejoin="round" stroke-opacity="1.0" stroke-width="3.0" />
            <path d=" M 398.267, 772.377 393.285, 763.707 388.303, 755.036 387.745, 754.065 " fill="none" stroke="rgb(0, 0, 0)" stroke-linecap="butt" stroke-linejoin="round" stroke-opacity="1.0" stroke-width="3.0" />
            <path d=" M 474.990, 266.926 470.656, 267.294 466.250, 268.698 461.784, 271.171 457.272, 274.746 452.728, 279.450 449.416, 283.702 448.169, 285.302 445.715, 289.083 443.611, 292.323 439.073, 300.528 434.752, 309.546 434.573, 309.921 430.702, 319.141 430.131, 320.501 426.654, 329.877 425.769, 332.264 422.639, 341.762 421.507, 345.196 418.686, 354.789 417.369, 359.271 414.826, 368.942 413.375, 374.457 411.085, 384.191 409.550, 390.715 407.492, 400.501 405.916, 407.995 404.072, 417.823 402.494, 426.235 400.850, 436.099 399.306, 445.368 397.851, 455.261 396.373, 465.316 395.097, 475.234 393.822, 485.153 393.714, 485.993 392.610, 495.932 391.506, 505.871 391.347, 507.303 390.408, 517.259 389.469, 527.215 389.287, 529.146 388.510, 539.116 387.733, 549.086 387.551, 551.415 386.931, 561.396 386.311, 571.376 386.149, 573.996 385.684, 583.985 385.220, 593.974 385.090, 596.773 384.780, 606.768 384.470, 616.763 384.382, 619.627 384.227, 629.626 384.072, 639.625 384.029, 642.439 384.030, 652.439 384.032, 662.439 384.032, 665.088 384.192, 675.087 384.352, 685.085 384.390, 687.457 384.713, 697.452 385.036, 707.447 385.100, 709.432 385.590, 719.420 386.080, 729.408 386.154, 730.902 386.818, 740.879 387.482, 750.857 387.543, 751.763 387.745, 754.065 387.300, 764.055 386.855, 774.045 386.752, 776.361 " fill="none" stroke="rgb(0, 0, 0)" stroke-linecap="butt" stroke-linejoin="round" stroke-opacity="1.0" stroke-width="3.0" />
            <path d=" M 566.974, 520.125 567.904, 520.142 567.979, 520.143 572.425, 511.186 574.649, 506.706 577.684, 502.132 577.234, 492.142 577.052, 488.099 576.470, 478.116 576.244, 474.245 575.525, 464.271 575.259, 460.591 574.397, 450.628 574.096, 447.161 573.083, 437.213 572.754, 433.980 571.583, 424.049 571.232, 421.071 569.894, 411.161 569.530, 408.460 568.014, 398.575 567.646, 396.175 565.940, 386.322 565.580, 384.244 563.670, 374.429 563.332, 372.695 561.201, 362.925 560.902, 361.558 558.962, 353.618 558.290, 350.867 555.652, 341.221 555.496, 340.651 554.335, 336.863 " fill="none" stroke="rgb(0, 0, 0)" stroke-linecap="butt" stroke-linejoin="round" stroke-opacity="1.0" stroke-width="3.0" />
            <path d=" M 550.842, 345.226 553.237, 352.901 553.498, 353.839 555.923, 362.557 556.775, 365.988 558.437, 372.681 560.599, 382.445 560.776, 383.243 562.671, 392.837 562.942, 394.211 564.672, 404.060 564.934, 405.555 566.470, 415.436 566.752, 417.249 568.108, 427.156 568.396, 429.265 569.583, 439.194 569.868, 441.576 570.894, 451.523 571.166, 454.157 572.041, 464.119 572.293, 466.984 573.023, 476.957 573.248, 480.033 573.840, 490.016 574.033, 493.281 574.081, 494.320 574.037, 495.135 573.982, 495.933 573.918, 496.709 573.845, 497.459 573.763, 498.179 573.672, 498.865 573.573, 499.515 573.467, 500.123 573.354, 500.687 573.235, 501.204 573.111, 501.672 572.981, 502.086 572.848, 502.447 572.711, 502.750 568.762, 510.591 568.532, 509.824 568.283, 509.246 568.020, 508.868 567.819, 508.741 567.747, 508.696 565.216, 508.655 564.310, 508.640 563.456, 508.627 563.432, 508.626 559.866, 508.569 559.393, 508.561 558.085, 508.540 557.849, 508.536 557.365, 508.528 557.075, 508.566 556.786, 508.815 556.500, 509.269 556.224, 509.923 556.052, 510.475 555.962, 510.765 555.718, 511.782 555.496, 512.957 555.301, 514.270 555.136, 515.699 555.004, 517.219 554.906, 518.805 554.846, 520.428 554.823, 522.061 554.839, 523.676 554.892, 525.245 556.326, 525.271 558.166, 525.305 558.271, 525.307 560.049, 525.339 563.608, 525.405 564.429, 525.420 565.353, 525.437 565.388, 525.365 566.935, 522.248 566.921, 521.748 566.921, 521.233 566.937, 520.717 566.966, 520.214 566.974, 520.125 567.009, 519.738 567.064, 519.302 567.130, 518.917 567.205, 518.595 567.287, 518.344 567.373, 518.171 567.462, 518.081 567.550, 518.075 " fill="none" stroke="rgb(0, 0, 0)" stroke-linecap="butt" stroke-linejoin="round" stroke-opacity="1.0" stroke-width="3.0" />
            <path d=" M 464.391, 936.336 460.375, 935.793 458.134, 934.926 456.356, 934.238 452.348, 931.639 449.532, 929.044 448.366, 927.970 444.426, 923.209 440.543, 917.339 436.735, 910.347 433.020, 902.224 429.417, 892.971 426.242, 883.488 425.942, 882.593 423.161, 872.987 422.615, 871.102 420.181, 861.403 419.456, 858.518 417.327, 848.747 416.482, 844.870 414.626, 835.044 413.711, 830.196 412.104, 820.326 411.161, 814.537 409.781, 804.633 408.849, 797.949 407.678, 788.018 406.790, 780.492 405.814, 770.540 405.000, 762.236 404.182, 752.270 403.453, 743.391 403.356, 741.794 " fill="none" stroke="rgb(0, 0, 0)" stroke-linecap="butt" stroke-linejoin="round" stroke-opacity="1.0" stroke-width="3.0" />
            <path d=" M 381.770, 360.041 379.613, 369.805 379.101, 372.124 377.177, 381.937 375.935, 388.266 374.223, 398.119 372.952, 405.435 371.435, 415.319 370.169, 423.571 368.833, 433.482 367.604, 442.609 366.439, 452.541 365.274, 462.475 364.271, 472.425 363.267, 482.374 363.196, 483.085 362.346, 493.049 361.496, 503.013 361.383, 504.347 360.681, 514.323 359.979, 524.298 359.848, 526.163 359.290, 536.148 358.732, 546.132 358.604, 548.429 358.186, 558.421 357.768, 568.412 357.658, 571.035 357.378, 581.031 357.097, 591.027 357.018, 593.865 356.874, 603.863 356.730, 613.862 356.688, 616.803 356.681, 626.803 356.674, 636.803 356.672, 639.730 356.802, 649.729 356.932, 659.728 356.969, 662.528 357.238, 672.524 357.507, 682.521 357.576, 685.079 357.988, 695.071 358.399, 705.062 358.490, 707.268 359.048, 717.253 359.606, 727.237 359.704, 728.984 360.413, 738.959 361.123, 748.934 361.207, 750.122 362.076, 760.084 362.944, 770.046 362.990, 770.580 364.082, 780.520 365.129, 790.046 366.428, 799.962 367.565, 808.636 369.087, 818.520 370.282, 826.275 372.046, 836.119 373.260, 842.898 375.289, 852.690 376.482, 858.445 378.804, 868.172 379.927, 872.874 382.577, 882.516 383.574, 886.145 386.595, 895.678 386.876, 896.562 " fill="none" stroke="rgb(0, 0, 0)" stroke-linecap="butt" stroke-linejoin="round" stroke-opacity="1.0" stroke-width="3.0" />
            <path d=" M 524.253, 532.856 524.507, 542.853 524.525, 543.565 524.668, 553.564 524.723, 557.426 524.757, 567.426 524.771, 571.366 524.697, 581.365 524.667, 585.363 524.647, 586.472 " fill="none" stroke="rgb(0, 0, 0)" stroke-linecap="butt" stroke-linejoin="round" stroke-opacity="1.0" stroke-width="3.0" />
            <path d=" M 513.712, 737.593 513.711, 737.602 512.297, 747.502 511.833, 750.757 510.289, 760.637 509.810, 763.700 508.129, 773.558 507.643, 776.410 505.819, 786.242 505.333, 788.860 503.358, 798.663 502.882, 801.024 500.746, 810.793 500.291, 812.874 497.982, 822.604 497.560, 824.383 495.068, 834.067 494.694, 835.521 492.001, 845.152 491.692, 846.257 488.782, 855.824 488.558, 856.559 485.410, 866.050 485.296, 866.395 481.908, 875.732 478.398, 884.533 474.770, 892.762 471.031, 900.385 467.185, 907.363 463.238, 913.656 459.199, 919.227 455.074, 924.038 450.873, 928.048 449.532, 929.044 " fill="none" stroke="rgb(0, 0, 0)" stroke-linecap="butt" stroke-linejoin="round" stroke-opacity="1.0" stroke-width="3.0" />
            <path d=" M 397.878, 767.747 398.267, 772.377 399.269, 782.327 400.222, 791.785 401.432, 801.711 402.483, 810.320 403.917, 820.217 405.032, 827.910 406.708, 837.769 407.851, 844.489 409.792, 854.299 410.920, 859.999 413.154, 869.746 414.219, 874.395 416.776, 884.063 417.723, 887.641 420.647, 897.204 421.412, 899.705 424.753, 909.130 425.263, 910.569 429.083, 919.811 429.253, 920.223 433.359, 928.663 437.030, 934.976 437.301, 935.443 437.561, 935.890 441.837, 941.917 446.167, 946.762 450.531, 950.443 454.913, 952.987 459.295, 954.426 463.660, 954.793 467.995, 954.123 472.287, 952.455 476.522, 949.830 477.993, 948.581 480.689, 946.290 484.780, 941.874 487.444, 938.382 488.783, 936.626 492.693, 930.591 495.203, 926.119 496.501, 923.809 500.200, 916.320 503.786, 908.168 507.253, 899.393 510.598, 890.033 513.689, 880.522 513.818, 880.126 516.662, 870.539 516.908, 869.710 519.531, 860.060 519.867, 858.821 522.287, 849.118 522.693, 847.491 524.928, 837.744 525.384, 835.755 527.448, 825.971 527.938, 823.646 529.844, 813.829 530.356, 811.192 532.113, 801.348 532.635, 798.424 534.253, 788.556 534.776, 785.369 534.835, 784.971 " fill="none" stroke="rgb(0, 0, 0)" stroke-linecap="butt" stroke-linejoin="round" stroke-opacity="1.0" stroke-width="3.0" />
            <path d=" M 531.677, 778.949 530.003, 788.808 529.797, 790.018 527.984, 799.852 527.558, 802.161 525.597, 811.966 525.192, 813.991 523.072, 823.763 522.975, 824.210 522.700, 825.480 520.410, 835.214 520.084, 836.600 517.609, 846.289 517.346, 847.319 514.669, 856.954 514.488, 857.605 511.590, 867.176 511.514, 867.427 508.426, 876.751 505.228, 885.541 501.924, 893.761 498.518, 901.376 495.016, 908.348 491.424, 914.637 487.748, 920.206 483.996, 925.017 480.174, 929.030 476.293, 932.205 472.362, 934.505 468.391, 935.895 464.391, 936.336 " fill="none" stroke="rgb(0, 0, 0)" stroke-linecap="butt" stroke-linejoin="round" stroke-opacity="1.0" stroke-width="3.0" />
            <path d=" M 546.823, 674.846 546.908, 673.663 547.523, 663.682 547.803, 659.135 548.321, 649.148 548.560, 644.551 548.984, 634.560 549.180, 629.931 549.510, 619.937 549.663, 615.295 549.900, 605.298 550.010, 600.662 550.154, 590.663 550.221, 586.050 550.272, 576.050 550.295, 571.479 550.252, 561.479 550.233, 556.968 550.096, 546.969 550.036, 542.537 549.803, 532.540 549.702, 528.204 549.372, 518.210 549.232, 513.990 548.832, 504.674 " fill="none" stroke="rgb(0, 0, 0)" stroke-linecap="butt" stroke-linejoin="round" stroke-opacity="1.0" stroke-width="3.0" />
            <path d=" M 560.927, 505.626 559.819, 505.539 558.034, 505.399 557.772, 505.378 555.923, 505.232 548.832, 504.674 548.535, 504.651 546.690, 504.506 546.119, 504.461 546.552, 514.452 546.702, 517.931 547.029, 527.926 547.147, 531.539 547.371, 541.537 547.454, 545.266 547.576, 555.265 547.623, 559.090 547.646, 569.090 547.654, 572.992 547.579, 582.992 547.549, 586.954 547.376, 596.952 547.307, 600.955 547.038, 610.951 546.929, 614.977 546.563, 624.970 546.415, 629.000 545.952, 638.989 545.766, 643.005 545.205, 652.989 544.981, 656.972 544.322, 666.950 544.258, 667.916 " fill="none" stroke="rgb(0, 0, 0)" stroke-linecap="butt" stroke-linejoin="round" stroke-opacity="1.0" stroke-width="3.0" />
            <path d=" M 386.752, 776.361 387.783, 786.308 388.815, 796.255 388.843, 796.528 390.081, 806.451 391.243, 815.773 392.701, 825.666 393.933, 834.020 395.631, 843.875 396.893, 851.200 398.855, 861.006 400.105, 867.254 402.358, 876.997 403.546, 882.136 406.124, 891.798 407.193, 895.807 410.140, 905.363 411.026, 908.238 414.394, 917.654 415.022, 919.409 418.875, 928.637 419.157, 929.314 423.411, 937.949 427.762, 945.318 432.189, 951.436 436.672, 956.324 441.193, 960.004 445.734, 962.504 450.277, 963.860 454.807, 964.109 459.309, 963.289 463.770, 961.441 468.177, 958.610 472.519, 954.839 " fill="none" stroke="rgb(0, 0, 0)" stroke-linecap="butt" stroke-linejoin="round" stroke-opacity="1.0" stroke-width="3.0" />
            <path d=" M 472.519, 954.839 479.428, 947.610 480.689, 946.290 " fill="none" stroke="rgb(0, 0, 0)" stroke-linecap="butt" stroke-linejoin="round" stroke-opacity="1.0" stroke-width="3.0" />
            <path d=" M 538.809, 480.285 539.481, 490.262 540.153, 500.239 540.408, 504.012 540.806, 514.004 540.945, 517.487 541.190, 527.484 541.208, 528.253 535.307, 530.941 532.037, 532.430 531.757, 532.558 531.477, 532.686 531.196, 532.814 530.916, 532.943 530.583, 532.978 527.020, 532.910 524.253, 532.856 520.359, 532.781 " fill="none" stroke="rgb(0, 0, 0)" stroke-linecap="butt" stroke-linejoin="round" stroke-opacity="1.0" stroke-width="3.0" />
            <path d=" M 520.447, 500.602 521.320, 497.831 524.325, 488.293 527.267, 478.956 537.201, 480.100 538.809, 480.285 535.906, 489.854 533.003, 499.423 530.826, 506.599 530.701, 507.005 530.456, 507.816 530.209, 508.628 529.963, 509.442 529.717, 510.256 529.437, 511.322 529.358, 511.711 529.183, 512.566 528.962, 513.964 528.779, 515.490 528.636, 517.113 528.619, 517.395 528.537, 518.803 528.483, 520.526 528.477, 522.250 528.509, 523.613 528.517, 523.941 528.604, 525.566 528.734, 527.093 528.907, 528.494 529.117, 529.741 529.362, 530.811 529.636, 531.683 529.936, 532.343 530.254, 532.777 530.583, 532.978 " fill="none" stroke="rgb(0, 0, 0)" stroke-linecap="butt" stroke-linejoin="round" stroke-opacity="1.0" stroke-width="3.0" />
            <path d=" M 530.895, 523.657 530.769, 523.609 530.650, 523.426 530.543, 523.117 530.453, 522.696 530.384, 522.181 530.339, 521.594 530.320, 520.960 530.327, 520.308 530.361, 519.667 530.420, 519.065 530.501, 518.527 530.601, 518.078 530.715, 517.737 530.837, 517.520 530.964, 517.435 " fill="none" stroke="rgb(0, 0, 0)" stroke-linecap="butt" stroke-linejoin="round" stroke-opacity="1.0" stroke-width="3.0" />
            <path d=" M 530.964, 517.435 531.090, 517.486 531.208, 517.670 531.315, 517.979 531.404, 518.400 531.473, 518.915 531.517, 519.501 531.536, 520.132 531.529, 520.781 531.495, 521.419 531.437, 522.020 531.357, 522.557 531.257, 523.006 531.144, 523.348 531.021, 523.568 530.895, 523.657 " fill="none" stroke="rgb(0, 0, 0)" stroke-linecap="butt" stroke-linejoin="round" stroke-opacity="1.0" stroke-width="3.0" />
            <path d=" M 552.486, 688.119 553.291, 678.152 553.438, 676.322 554.160, 666.348 554.408, 662.914 555.048, 652.935 555.271, 649.453 555.830, 639.468 556.027, 635.949 556.506, 625.961 556.676, 622.415 557.075, 612.423 557.218, 608.862 557.538, 598.867 557.652, 595.301 557.893, 585.304 557.979, 581.744 558.140, 571.745 558.198, 568.201 558.280, 558.202 558.309, 554.684 558.311, 544.684 558.312, 541.203 558.301, 539.900 558.223, 529.900 558.206, 527.771 558.166, 525.305 " fill="none" stroke="rgb(0, 0, 0)" stroke-linecap="butt" stroke-linejoin="round" stroke-opacity="1.0" stroke-width="3.0" />
            <path d=" M 453.299, 981.761 455.741, 981.951 459.860, 982.197 463.954, 981.604 468.014, 980.200 472.030, 978.018 475.996, 975.087 479.905, 971.438 483.751, 967.104 487.528, 962.115 491.230, 956.502 494.854, 950.296 498.395, 943.527 501.850, 936.224 505.214, 928.416 508.486, 920.131 511.663, 911.395 514.743, 902.236 517.723, 892.679 520.508, 883.074 520.603, 882.747 521.997, 877.587 523.380, 872.465 525.825, 862.769 526.055, 861.856 528.347, 852.122 528.625, 850.941 530.774, 841.174 531.090, 839.740 533.106, 829.946 533.450, 828.275 535.339, 818.456 535.703, 816.565 537.473, 806.723 537.850, 804.627 539.507, 794.765 539.710, 793.556 " fill="none" stroke="rgb(0, 0, 0)" stroke-linecap="butt" stroke-linejoin="round" stroke-opacity="1.0" stroke-width="3.0" />
            <path d=" M 526.752, 269.046 524.718, 262.801 521.876, 254.877 518.920, 247.431 515.852, 240.491 512.672, 234.083 509.385, 228.235 505.991, 222.976 502.494, 218.336 498.897, 214.342 495.204, 211.027 491.420, 208.418 487.550, 206.547 483.599, 205.442 479.573, 205.132 478.398, 205.280 475.480, 205.647 471.326, 207.013 467.122, 209.257 462.874, 212.403 458.595, 216.474 454.293, 221.491 449.981, 227.471 445.670, 234.428 441.374, 242.375 437.106, 251.319 433.196, 260.523 432.881, 261.264 431.168, 265.762 428.712, 272.208 425.467, 281.667 424.616, 284.145 421.653, 293.696 420.608, 297.065 417.902, 306.692 416.704, 310.950 414.236, 320.623 412.921, 325.778 410.664, 335.520 409.275, 341.521 407.218, 351.307 405.782, 358.143 403.912, 367.967 402.458, 375.604 400.763, 385.460 399.320, 393.858 397.791, 403.740 396.382, 412.850 395.011, 422.755 393.660, 432.522 392.440, 442.448 391.221, 452.373 391.167, 452.811 390.093, 462.753 389.019, 472.695 388.916, 473.645 387.983, 483.601 387.050, 493.558 386.919, 494.951 386.124, 504.919 385.328, 514.887 385.188, 516.649 384.526, 526.627 383.865, 536.606 383.729, 538.659 383.201, 548.645 382.672, 558.631 382.553, 560.893 382.156, 570.885 381.758, 580.877 381.663, 583.266 381.397, 593.262 381.131, 603.259 381.066, 605.688 380.931, 615.687 380.796, 625.686 380.763, 628.069 380.760, 638.069 380.757, 648.069 380.756, 650.322 380.887, 660.321 381.017, 670.320 381.044, 672.357 381.310, 682.353 381.577, 692.349 381.623, 694.088 382.029, 704.080 382.435, 714.072 382.490, 715.432 383.040, 725.417 383.589, 735.402 383.639, 736.309 384.338, 746.285 385.036, 756.261 385.063, 756.643 385.916, 766.606 386.752, 776.361 387.768, 786.310 388.696, 795.398 389.884, 805.327 390.884, 813.692 392.254, 823.598 393.304, 831.189 394.869, 841.066 395.942, 847.838 397.716, 857.680 398.784, 863.598 400.786, 873.396 401.815, 878.432 404.066, 888.176 405.021, 892.310 407.546, 901.986 408.386, 905.206 411.214, 914.798 411.894, 917.104 415.063, 926.589 415.531, 927.991 419.083, 937.339 419.281, 937.859 423.128, 946.707 427.057, 954.538 431.056, 961.360 435.108, 967.183 439.202, 972.022 443.324, 975.897 447.462, 978.827 451.604, 980.836 455.533, 981.895 455.741, 981.951 " fill="none" stroke="rgb(0, 0, 0)" stroke-linecap="butt" stroke-linejoin="round" stroke-opacity="1.0" stroke-width="3.0" />
            <path d=" M 477.178, 205.187 473.059, 205.702 468.879, 207.069 464.648, 209.313 460.374, 212.458 456.067, 216.529 451.739, 221.544 447.400, 227.522 443.063, 234.478 438.741, 242.423 434.447, 251.365 430.515, 260.559 430.196, 261.306 428.388, 266.022 426.002, 272.247 422.739, 281.699 421.882, 284.180 418.902, 293.726 417.850, 297.096 415.128, 306.718 413.924, 310.976 411.437, 320.662 410.118, 325.799 407.849, 335.538 406.451, 341.536 406.187, 342.784 404.119, 352.568 402.938, 358.152 401.058, 367.974 399.596, 375.607 397.892, 385.460 396.441, 393.853 394.903, 403.734 393.487, 412.838 392.109, 422.743 390.750, 432.503 389.524, 442.428 388.298, 452.352 388.245, 452.784 387.165, 462.725 386.085, 472.667 385.983, 473.610 385.045, 483.566 384.107, 493.522 383.976, 494.907 383.177, 504.875 382.377, 514.843 382.236, 516.597 381.572, 526.575 380.908, 536.553 380.772, 538.598 380.241, 548.584 379.711, 558.570 379.591, 560.824 379.193, 570.816 378.794, 580.808 378.699, 583.188 378.433, 593.184 378.166, 603.181 378.101, 605.601 377.966, 615.600 377.832, 625.599 377.800, 627.974 377.798, 637.974 377.796, 647.974 377.795, 650.218 377.928, 660.217 378.061, 670.216 378.087, 672.244 378.357, 682.241 378.627, 692.237 378.673, 693.968 379.083, 703.959 379.493, 713.951 379.549, 715.304 380.104, 725.289 380.658, 735.273 380.708, 736.174 381.412, 746.149 382.117, 756.124 382.143, 756.500 383.004, 766.463 383.845, 776.212 384.869, 786.159 385.804, 795.242 387.001, 805.170 388.009, 813.530 389.389, 823.434 390.446, 831.021 392.022, 840.896 393.103, 847.666 394.890, 857.505 395.965, 863.421 397.981, 873.216 399.017, 878.251 401.283, 887.991 402.245, 892.125 404.786, 901.797 405.633, 905.019 408.480, 914.605 409.165, 916.914 412.353, 926.392 412.826, 927.798 416.399, 937.138 416.601, 937.665 420.473, 946.512 424.429, 954.343 428.454, 961.164 432.533, 966.987 436.653, 971.827 440.802, 975.702 444.967, 978.634 449.136, 980.645 453.299, 981.761 " fill="none" stroke="rgb(0, 0, 0)" stroke-linecap="butt" stroke-linejoin="round" stroke-opacity="1.0" stroke-width="3.0" />
            <path d=" M 479.573, 205.132 477.178, 205.187 " fill="none" stroke="rgb(0, 0, 0)" stroke-linecap="butt" stroke-linejoin="round" stroke-opacity="1.0" stroke-width="3.0" />
            <path d=" M 558.082, 699.602 558.955, 689.640 559.187, 686.986 559.977, 677.017 560.309, 672.840 561.018, 662.865 561.319, 658.628 561.948, 648.647 562.218, 644.361 562.768, 634.376 563.006, 630.051 563.479, 620.062 563.684, 615.709 564.079, 605.717 564.251, 601.346 564.568, 591.351 564.707, 586.973 564.947, 576.976 565.052, 572.601 565.215, 562.602 565.286, 558.240 565.371, 548.241 565.408, 543.902 565.415, 533.902 565.419, 529.596 565.388, 525.365 " fill="none" stroke="rgb(0, 0, 0)" stroke-linecap="butt" stroke-linejoin="round" stroke-opacity="1.0" stroke-width="3.0" />
            <path d=" M 454.588, 1002.374 457.002, 1002.568 461.444, 1002.582 465.850, 1001.690 470.211, 999.929 474.518, 997.333 478.764, 993.940 482.941, 989.783 487.044, 984.901 491.066, 979.327 495.003, 973.096 498.850, 966.244 502.604, 958.804 506.261, 950.807 509.817, 942.286 511.841, 937.003 513.271, 933.271 516.620, 923.792 519.729, 914.287 519.863, 913.877 522.768, 904.308 522.997, 903.553 525.716, 893.930 526.022, 892.847 528.570, 883.177 528.937, 881.783 531.325, 872.073 531.740, 870.387 533.981, 860.641 534.431, 858.680 536.534, 848.903 537.011, 846.684 538.983, 836.880 539.477, 834.421 541.326, 824.594 541.831, 821.911 543.564, 812.062 544.072, 809.172 545.195, 802.342 " fill="none" stroke="rgb(0, 0, 0)" stroke-linecap="butt" stroke-linejoin="round" stroke-opacity="1.0" stroke-width="3.0" />
            <path d=" M 539.975, 264.158 538.781, 259.104 536.288, 249.420 536.175, 248.981 533.443, 239.265 530.587, 229.982 527.605, 221.159 524.500, 212.824 521.271, 205.007 517.921, 197.737 514.451, 191.047 510.863, 184.967 507.160, 179.530 503.345, 174.771 499.421, 170.723 495.393, 167.420 491.265, 164.898 487.043, 163.191 482.734, 162.333 478.345, 162.358 478.082, 162.414 473.882, 163.300 469.356, 165.191 464.775, 168.062 460.150, 171.940 455.492, 176.854 450.814, 182.826 446.128, 189.878 441.450, 198.026 436.956, 206.960 436.793, 207.284 432.726, 216.420 432.174, 217.659 428.483, 226.953 427.608, 229.156 424.253, 238.576 423.115, 241.771 420.059, 251.292 418.710, 255.496 417.281, 260.423 414.496, 270.028 414.412, 270.316 412.228, 278.639 410.241, 286.210 409.898, 287.654 407.585, 297.382 406.214, 303.149 404.110, 312.925 402.351, 321.097 400.441, 330.913 398.671, 340.011 396.943, 349.861 395.192, 359.840 393.634, 369.718 392.077, 379.596 391.931, 380.525 390.536, 390.428 389.142, 400.330 388.906, 402.002 387.667, 411.925 386.428, 421.848 386.135, 424.198 386.083, 424.663 384.993, 434.603 383.903, 444.544 383.630, 447.034 382.684, 456.989 381.739, 466.944 381.408, 470.425 380.602, 480.393 379.796, 490.360 379.479, 494.282 378.811, 504.260 378.142, 514.238 377.856, 518.511 377.323, 528.496 376.789, 538.482 376.547, 543.012 376.147, 553.004 375.747, 562.996 375.559, 567.685 375.292, 577.681 375.025, 587.677 374.898, 592.426 374.763, 602.425 374.629, 612.425 374.566, 617.133 374.565, 627.133 374.565, 637.133 374.565, 641.702 374.700, 651.701 374.835, 661.701 374.893, 666.031 375.166, 676.027 375.439, 686.023 375.548, 690.019 375.962, 700.010 376.376, 710.002 376.524, 713.570 377.083, 723.555 377.643, 733.539 377.814, 736.592 378.524, 746.567 379.234, 756.542 379.409, 758.997 380.276, 768.959 381.144, 778.921 381.299, 780.702 382.331, 790.648 383.363, 800.595 383.471, 801.631 384.678, 811.558 385.884, 821.485 385.912, 821.717 387.304, 831.620 388.608, 840.896 390.197, 850.769 391.541, 859.115 393.345, 868.951 394.697, 876.326 396.733, 886.116 398.058, 892.489 400.348, 902.223 401.606, 907.572 404.177, 917.236 405.324, 921.551 408.206, 931.127 409.194, 934.408 412.426, 943.872 413.164, 946.034 413.198, 946.132 413.337, 946.490 416.964, 955.809 417.318, 956.718 420.416, 963.655 421.538, 966.168 423.983, 970.897 425.840, 974.487 430.209, 981.689 434.629, 987.788 439.085, 992.806 443.563, 996.764 448.051, 999.691 452.534, 1001.616 456.117, 1002.379 457.002, 1002.568 " fill="none" stroke="rgb(0, 0, 0)" stroke-linecap="butt" stroke-linejoin="round" stroke-opacity="1.0" stroke-width="3.0" />
            <path d=" M 475.953, 162.426 471.462, 163.369 466.907, 165.260 462.297, 168.130 457.644, 172.009 452.957, 176.921 448.250, 182.893 443.536, 189.943 438.829, 198.089 434.313, 207.011 434.144, 207.344 430.056, 216.470 429.497, 217.717 425.787, 227.003 424.905, 229.210 421.530, 238.623 420.384, 241.821 417.311, 251.337 415.954, 255.541 413.153, 265.141 411.631, 270.357 409.078, 280.025 407.549, 285.816 407.436, 286.245 406.871, 288.609 404.545, 298.335 403.386, 303.178 401.270, 312.952 399.502, 321.120 397.581, 330.934 396.932, 334.246 395.801, 340.027 394.063, 349.875 392.302, 359.848 390.737, 369.725 389.171, 379.602 389.024, 380.526 387.622, 390.427 386.220, 400.328 385.984, 401.994 384.738, 411.917 383.492, 421.839 383.198, 424.182 382.102, 434.121 381.006, 444.061 380.681, 447.009 379.730, 456.963 378.779, 466.918 378.448, 470.391 377.863, 477.587 377.053, 487.555 376.511, 494.239 375.839, 504.216 375.167, 514.194 374.880, 518.458 374.345, 528.443 373.809, 538.429 373.566, 542.949 373.165, 552.941 372.764, 562.933 372.576, 567.612 372.308, 577.609 372.040, 587.605 371.913, 592.344 371.780, 602.343 371.646, 612.342 371.583, 617.042 371.584, 627.042 371.585, 637.042 371.585, 641.601 371.722, 651.600 371.859, 661.599 371.919, 665.920 372.194, 675.916 372.470, 685.913 372.581, 689.899 372.999, 699.891 373.417, 709.882 373.566, 713.442 374.130, 723.426 374.695, 733.410 374.867, 736.455 375.583, 746.430 376.299, 756.404 376.475, 758.852 377.349, 768.814 378.224, 778.775 378.379, 780.549 379.420, 790.495 380.460, 800.441 380.568, 801.472 381.783, 811.398 382.999, 821.324 383.027, 821.551 384.429, 831.452 385.742, 840.725 387.343, 850.596 388.696, 858.938 390.512, 868.771 391.874, 876.143 393.924, 885.931 395.258, 892.302 397.563, 902.033 398.830, 907.382 401.417, 917.041 402.573, 921.358 405.474, 930.928 406.469, 934.212 407.341, 936.747 408.658, 940.577 410.500, 945.934 412.110, 950.044 414.647, 956.518 417.653, 963.205 418.895, 965.967 423.225, 974.286 427.623, 981.487 432.071, 987.587 436.556, 992.605 441.063, 996.565 445.579, 999.493 450.092, 1001.419 454.588, 1002.374 " fill="none" stroke="rgb(0, 0, 0)" stroke-linecap="butt" stroke-linejoin="round" stroke-opacity="1.0" stroke-width="3.0" />
            <path d=" M 478.345, 162.358 475.953, 162.426 " fill="none" stroke="rgb(0, 0, 0)" stroke-linecap="butt" stroke-linejoin="round" stroke-opacity="1.0" stroke-width="3.0" />
            <path d=" M 543.664, 256.773 543.229, 254.731 540.974, 244.988 540.680, 243.716 538.236, 234.019 538.001, 233.084 535.350, 223.441 535.190, 222.859 532.313, 213.282 532.249, 213.069 529.176, 203.742 525.974, 194.907 522.641, 186.596 519.181, 178.839 515.593, 171.670 511.880, 165.123 508.044, 159.232 504.089, 154.033 500.017, 149.563 495.833, 145.858 491.541, 142.957 487.147, 140.896 482.658, 139.714 478.079, 139.448 473.321, 139.597 468.604, 140.285 463.813, 141.960 458.961, 144.657 454.056, 148.408 449.112, 153.244 444.142, 159.192 439.159, 166.276 434.178, 174.517 429.515, 183.364 429.215, 183.932 425.000, 193.000 424.288, 194.531 420.468, 203.772 419.414, 206.320 415.944, 215.699 414.612, 219.300 411.456, 228.789 409.901, 233.464 407.028, 243.043 405.301, 248.799 402.684, 258.451 400.832, 265.283 398.451, 274.996 396.516, 282.889 394.351, 292.652 392.372, 301.580 390.409, 311.385 388.422, 321.310 386.647, 331.152 384.872, 340.993 384.685, 342.028 383.087, 351.900 381.770, 360.041 381.182, 363.672 379.753, 373.570 378.323, 383.467 377.932, 386.174 376.663, 396.093 375.394, 406.012 374.953, 409.455 373.838, 419.392 372.722, 429.330 372.262, 433.432 371.295, 443.385 370.328, 453.339 369.874, 458.015 369.051, 467.981 368.229, 477.947 367.803, 483.107 367.122, 493.084 366.440, 503.060 366.062, 508.605 365.519, 518.591 364.977, 528.576 364.660, 534.404 364.254, 544.396 364.081, 548.676 363.675, 558.668 363.605, 560.395 363.336, 570.392 363.067, 580.388 362.904, 586.466 362.771, 596.465 362.639, 606.464 362.559, 612.505 362.564, 622.505 362.568, 632.505 362.571, 638.400 362.715, 648.399 362.859, 658.398 362.940, 664.040 363.226, 674.036 363.511, 684.032 363.662, 689.317 364.092, 699.308 364.522, 709.299 364.730, 714.127 365.310, 724.110 365.889, 734.093 366.137, 738.369 366.650, 745.332 367.384, 755.305 367.693, 759.501 367.873, 761.948 368.769, 771.908 369.069, 775.251 369.926, 784.778 370.991, 794.721 372.056, 804.664 372.282, 806.776 373.526, 816.698 374.769, 826.620 374.926, 827.868 376.360, 837.765 377.794, 847.662 377.841, 847.990 379.479, 857.855 381.011, 867.082 382.869, 876.908 384.417, 885.096 386.514, 894.874 386.876, 896.562 388.040, 901.991 390.398, 911.709 391.860, 917.733 394.507, 927.376 395.858, 932.298 398.827, 941.848 400.015, 945.669 403.345, 955.099 404.311, 957.836 408.048, 967.112 408.727, 968.796 412.928, 977.871 413.244, 978.552 417.844, 987.113 422.510, 994.494 427.224, 1000.715 431.972, 1005.797 436.737, 1009.769 441.507, 1012.659 446.267, 1014.502 451.006, 1015.331 455.810, 1015.725 460.457, 1015.571 465.062, 1014.476 469.614, 1012.478 474.106, 1009.617 478.529, 1005.930 482.877, 1001.458 487.142, 996.237 491.321, 990.307 495.407, 983.704 499.396, 976.464 503.285, 968.624 507.071, 960.217 510.749, 951.276 514.319, 941.834 517.614, 932.392 517.778, 931.922 520.853, 922.406 521.124, 921.568 524.000, 911.991 524.357, 910.802 527.049, 901.171 527.474, 899.650 529.998, 889.974 530.476, 888.139 532.843, 878.423 533.362, 876.293 535.582, 866.543 536.131, 864.136 538.215, 854.355 538.783, 851.689 540.738, 841.882 541.318, 838.975 543.152, 829.145 543.736, 826.014 545.455, 816.163 546.037, 812.824 547.225, 805.536 " fill="none" stroke="rgb(0, 0, 0)" stroke-linecap="butt" stroke-linejoin="round" stroke-opacity="1.0" stroke-width="3.0" />
            <path d=" M 560.069, 703.268 560.273, 701.133 561.140, 691.171 561.536, 686.623 562.321, 676.653 562.685, 672.034 563.389, 662.059 563.720, 657.380 564.345, 647.399 564.641, 642.671 565.189, 632.686 565.450, 627.919 565.919, 617.930 566.145, 613.134 566.537, 603.142 566.727, 598.328 567.043, 588.333 567.195, 583.511 567.435, 573.514 567.550, 568.693 567.714, 558.695 567.792, 553.886 567.878, 543.886 567.920, 539.099 567.929, 529.099 567.933, 524.344 567.904, 520.142 " fill="none" stroke="rgb(0, 0, 0)" stroke-linecap="butt" stroke-linejoin="round" stroke-opacity="1.0" stroke-width="3.0" />
            <path d=" M 478.079, 139.448 473.420, 140.134 468.689, 141.808 463.896, 144.505 459.052, 148.256 454.168, 153.094 449.258, 159.043 444.334, 166.131 439.413, 174.376 434.795, 183.246 434.509, 183.795 430.337, 192.883 429.640, 194.400 425.860, 203.658 424.823, 206.196 421.391, 215.589 420.077, 219.184 416.955, 228.685 416.051, 231.436 415.420, 233.357 412.578, 242.945 410.872, 248.702 408.285, 258.361 406.454, 265.198 404.099, 274.916 402.186, 282.815 400.045, 292.584 398.088, 301.519 397.797, 302.988 396.518, 309.451 394.577, 319.261 394.180, 321.264 392.425, 331.109 390.670, 340.954 390.484, 341.998 388.904, 351.872 387.324, 361.747 387.018, 363.658 385.604, 373.558 385.270, 375.897 383.856, 385.797 383.802, 386.176 382.546, 396.097 381.291, 406.018 380.853, 409.476 379.749, 419.415 378.645, 429.354 378.188, 433.472 377.231, 443.426 376.274, 453.380 375.823, 458.074 375.386, 463.421 374.571, 473.388 373.771, 483.186 373.096, 493.163 372.420, 503.140 372.044, 508.704 371.506, 518.690 370.967, 528.675 370.652, 534.524 370.249, 544.516 369.847, 554.508 369.604, 560.535 369.446, 566.400 369.178, 576.396 368.910, 586.393 368.904, 586.627 368.770, 596.626 368.637, 606.625 368.556, 612.686 368.558, 622.686 368.560, 632.686 368.562, 638.601 368.701, 648.600 368.841, 658.599 368.919, 664.261 369.199, 674.257 369.478, 684.253 369.626, 689.557 370.048, 699.548 370.470, 709.539 370.675, 714.385 371.244, 724.369 371.814, 734.353 372.059, 738.645 372.781, 748.619 373.503, 758.593 373.767, 762.242 374.649, 772.203 375.530, 782.164 375.789, 785.087 376.838, 795.032 377.886, 804.977 378.110, 807.100 379.336, 817.025 380.561, 826.949 380.717, 828.206 382.130, 838.106 383.544, 848.006 383.591, 848.340 385.206, 858.209 386.718, 867.444 388.550, 877.275 390.077, 885.468 391.931, 894.235 393.651, 902.372 395.196, 908.828 397.420, 918.122 399.965, 927.521 400.757, 930.444 401.366, 932.694 404.298, 942.255 405.468, 946.071 406.523, 949.098 409.708, 958.242 413.403, 967.534 414.067, 969.205 418.104, 978.039 418.526, 978.963 423.067, 987.525 427.673, 994.906 432.328, 1001.125 437.015, 1006.206 441.721, 1010.175 446.430, 1013.063 451.131, 1014.901 455.810, 1015.725 " fill="none" stroke="rgb(0, 0, 0)" stroke-linecap="butt" stroke-linejoin="round" stroke-opacity="1.0" stroke-width="3.0" />
            <path d=" M 482.800, 507.324 482.487, 507.319 482.122, 507.356 481.757, 507.600 481.399, 508.049 481.054, 508.695 480.727, 509.528 480.424, 510.535 480.151, 511.698 479.912, 512.997 479.711, 514.412 479.553, 515.917 479.438, 517.486 479.371, 519.094 479.351, 520.711 479.379, 522.311 479.456, 523.865 482.286, 523.917 " fill="none" stroke="rgb(0, 0, 0)" stroke-linecap="butt" stroke-linejoin="round" stroke-opacity="1.0" stroke-width="3.0" />
            <path d=" M 565.353, 525.437 565.303, 523.865 565.289, 522.248 565.312, 520.613 565.331, 520.096 565.348, 519.645 565.372, 518.987 565.429, 518.038 565.467, 517.400 565.596, 515.878 565.756, 514.447 565.944, 513.132 566.159, 511.955 566.394, 510.937 566.509, 510.554 566.648, 510.093 566.914, 509.438 567.190, 508.983 567.469, 508.734 567.747, 508.696 " fill="none" stroke="rgb(0, 0, 0)" stroke-linecap="butt" stroke-linejoin="round" stroke-opacity="1.0" stroke-width="3.0" />
            <path d=" M 567.979, 520.143 567.951, 519.674 567.910, 519.245 567.898, 519.162 567.856, 518.870 567.791, 518.558 567.717, 518.317 567.636, 518.155 567.550, 518.075 " fill="none" stroke="rgb(0, 0, 0)" stroke-linecap="butt" stroke-linejoin="round" stroke-opacity="1.0" stroke-width="3.0" />
            <path d=" M 529.040, 466.816 529.326, 472.262 529.822, 472.268 534.926, 472.327 535.129, 471.993 534.708, 466.780 529.343, 466.425 529.289, 466.421 529.040, 466.816 " fill="none" stroke="rgb(0, 0, 0)" stroke-linecap="butt" stroke-linejoin="round" stroke-opacity="1.0" stroke-width="3.0" />
            <path d=" M 534.648, 466.877 529.040, 466.816 " fill="none" stroke="rgb(0, 0, 0)" stroke-linecap="butt" stroke-linejoin="round" stroke-opacity="1.0" stroke-width="3.0" />
            <path d=" M 534.926, 472.327 534.648, 466.877 534.708, 466.780 " fill="none" stroke="rgb(0, 0, 0)" stroke-linecap="butt" stroke-linejoin="round" stroke-opacity="1.0" stroke-width="3.0" />
            <path d=" M 530.853, 469.416 530.843, 469.627 530.879, 469.849 530.900, 469.913 530.978, 470.112 531.093, 470.288 531.241, 470.434 531.286, 470.477 531.452, 470.582 531.509, 470.612 531.677, 470.670 531.729, 470.687 531.794, 470.700 531.870, 470.709 531.955, 470.713 532.038, 470.711 532.121, 470.705 532.201, 470.694 532.275, 470.678 532.340, 470.659 532.394, 470.637 532.550, 470.565 532.610, 470.529 532.762, 470.409 532.868, 470.295 " fill="none" stroke="rgb(0, 0, 0)" stroke-linecap="butt" stroke-linejoin="round" stroke-opacity="1.0" stroke-width="3.0" />
            <path d=" M 530.941, 469.108 530.906, 469.211 530.903, 469.223 530.888, 469.280 530.853, 469.416 530.893, 469.253 " fill="none" stroke="rgb(0, 0, 0)" stroke-linecap="butt" stroke-linejoin="round" stroke-opacity="1.0" stroke-width="3.0" />
            <path d=" M 532.868, 470.295 532.957, 470.172 533.027, 470.036 533.075, 469.891 533.102, 469.740 533.105, 469.585 533.086, 469.430 533.044, 469.277 532.980, 469.131 532.897, 468.994 532.794, 468.868 532.676, 468.757 532.543, 468.662 532.398, 468.586 532.246, 468.530 532.088, 468.495 531.928, 468.483 531.769, 468.492 531.614, 468.523 531.467, 468.576 531.331, 468.649 531.207, 468.741 531.100, 468.849 531.011, 468.973 530.941, 469.108 " fill="none" stroke="rgb(0, 0, 0)" stroke-linecap="butt" stroke-linejoin="round" stroke-opacity="1.0" stroke-width="3.0" />
            <path d=" M 635.809, 852.852 637.974, 853.309 645.861, 854.330 653.726, 854.623 661.554, 854.205 669.330, 853.095 677.038, 851.313 684.666, 848.880 692.199, 845.815 699.626, 842.141 706.936, 837.878 714.119, 833.049 721.164, 827.676 728.062, 821.780 734.806, 815.383 741.388, 808.505 747.801, 801.170 754.038, 793.397 759.983, 785.357 760.093, 785.208 765.736, 776.952 765.962, 776.622 771.313, 768.174 771.639, 767.660 776.708, 759.040 777.119, 758.341 781.917, 749.567 782.399, 748.684 786.934, 739.771 787.475, 738.708 791.757, 729.671 792.344, 728.432 796.380, 719.283 797.001, 717.873 800.800, 708.623 801.446, 707.050 805.014, 697.708 805.674, 695.978 809.018, 686.553 809.685, 684.674 812.810, 675.175 813.474, 673.156 816.387, 663.590 817.042, 661.439 819.746, 651.812 820.385, 649.538 822.886, 639.856 823.502, 637.470 825.804, 627.738 826.392, 625.248 828.497, 615.472 829.053, 612.888 830.965, 603.073 831.484, 600.405 833.205, 590.554 833.684, 587.812 835.215, 577.930 835.650, 575.124 836.995, 565.215 837.383, 562.355 838.542, 552.422 838.880, 549.519 839.854, 539.566 840.142, 536.629 840.932, 526.660 841.166, 523.699 841.772, 513.718 841.952, 510.744 842.374, 500.753 842.499, 497.776 842.736, 487.779 842.806, 484.811 842.857, 474.811 842.872, 471.860 842.735, 461.861 842.695, 458.939 842.370, 448.944 842.276, 446.061 841.759, 436.075 841.613, 433.242 840.902, 423.267 840.705, 420.494 839.798, 410.535 839.552, 407.833 838.444, 397.895 838.153, 395.275 836.841, 385.361 836.506, 382.834 834.986, 372.950 834.613, 370.526 832.879, 360.677 832.472, 358.366 830.518, 348.559 830.083, 346.372 827.903, 336.612 827.445, 334.560 825.033, 324.855 824.558, 322.946 821.906, 313.305 821.424, 311.550 818.523, 301.980 818.041, 300.388 814.883, 290.900 814.410, 289.480 810.985, 280.085 810.533, 278.844 806.830, 269.555 806.410, 268.500 802.418, 259.332 802.042, 258.468 797.749, 249.437 797.431, 248.769 792.824, 239.893 792.580, 239.423 787.645, 230.725 787.490, 230.452 782.165, 221.877 776.608, 213.722 770.823, 206.010 764.815, 198.762 758.589, 192.002 752.151, 185.755 745.508, 180.044 738.666, 174.893 731.634, 170.325 724.422, 166.365 717.039, 163.036 709.496, 160.360 701.805, 158.362 693.979, 157.061 686.033, 156.481 677.980, 156.639 675.749, 156.861 " fill="none" stroke="rgb(0, 0, 0)" stroke-linecap="butt" stroke-linejoin="round" stroke-opacity="1.0" stroke-width="3.0" />
            <path d=" M 637.974, 853.309 636.097, 852.889 630.085, 851.544 622.210, 849.017 614.369, 845.717 606.582, 841.631 598.870, 836.750 591.254, 831.065 583.756, 824.572 576.660, 817.526 576.399, 817.267 569.767, 809.783 569.207, 809.151 563.032, 801.285 562.202, 800.228 556.476, 792.030 555.409, 790.503 550.699, 782.948 548.853, 779.987 548.698, 779.709 547.213, 777.045 543.300, 770.026 542.557, 768.692 541.797, 767.170 538.390, 760.336 536.545, 756.637 534.836, 752.804 530.841, 743.842 527.146, 734.550 525.468, 730.331 523.153, 723.780 520.450, 716.134 517.470, 706.599 515.808, 701.282 513.589, 693.201 511.562, 685.813 509.241, 676.086 507.732, 669.767 505.727, 659.970 504.338, 653.186 502.638, 643.332 501.394, 636.119 499.993, 626.218 498.917, 618.616 497.807, 608.678 496.919, 600.731 496.094, 590.765 495.412, 582.520 494.867, 572.535 494.404, 564.042 494.135, 554.046 493.902, 545.357 493.906, 535.357 493.910, 526.527 494.173, 516.966 494.431, 507.617 494.975, 497.632 495.463, 488.690 496.277, 478.723 497.004, 469.810 498.087, 459.869 499.048, 451.043 500.402, 441.135 501.588, 432.450 503.214, 422.583 504.613, 414.096 506.514, 404.279 508.110, 396.040 510.292, 386.281 512.066, 378.343 514.532, 368.652 516.464, 361.059 519.220, 351.447 521.285, 344.244 521.868, 342.424 524.921, 332.902 525.010, 332.624 526.509, 327.949 529.866, 318.529 532.115, 312.220 534.560, 306.023 535.840, 302.780 538.080, 297.102 538.200, 296.826 539.046, 294.884 542.813, 286.234 543.757, 284.065 543.834, 283.889 543.965, 283.587 544.152, 283.158 544.380, 282.635 547.577, 275.970 549.893, 271.144 550.555, 269.763 550.559, 269.756 550.712, 269.436 550.736, 269.385 550.852, 269.144 550.991, 268.855 555.659, 260.012 557.867, 255.831 557.885, 255.796 560.472, 251.345 565.039, 243.485 570.430, 235.063 572.258, 232.208 572.424, 231.948 578.195, 223.781 580.016, 221.204 586.177, 213.327 587.786, 211.269 594.348, 203.723 595.710, 202.158 602.680, 194.988 603.760, 193.878 611.145, 187.135 611.912, 186.434 619.711, 180.175 620.141, 179.830 628.422, 174.063 636.733, 169.130 645.051, 165.023 653.355, 161.734 661.624, 159.249 669.838, 157.556 676.067, 156.855 677.980, 156.639 " fill="none" stroke="rgb(0, 0, 0)" stroke-linecap="butt" stroke-linejoin="round" stroke-opacity="1.0" stroke-width="3.0" />
            <path d=" M 675.749, 156.861 667.596, 157.779 659.370, 159.472 651.091, 161.956 642.777, 165.244 634.449, 169.348 626.128, 174.278 617.837, 180.041 610.032, 186.293 609.599, 186.640 602.208, 193.376 601.438, 194.077 594.461, 201.240 593.380, 202.350 586.810, 209.889 585.448, 211.453 579.280, 219.324 577.670, 221.378 571.892, 229.540 570.072, 232.111 564.673, 240.529 562.680, 243.637 557.955, 251.753 555.520, 255.935 550.844, 264.775 548.620, 268.981 548.312, 269.621 548.289, 269.670 548.256, 269.737 547.333, 271.658 546.907, 272.544 543.456, 279.726 542.081, 282.586 542.004, 282.745 540.448, 286.312 538.327, 291.175 537.739, 292.521 536.905, 294.433 536.863, 294.530 535.700, 297.197 534.983, 299.011 533.698, 302.260 530.023, 311.560 529.731, 312.298 526.368, 321.716 524.121, 328.010 521.064, 337.531 520.805, 338.338 518.894, 344.287 516.134, 353.899 514.070, 361.083 511.601, 370.774 509.671, 378.347 508.435, 383.869 506.251, 393.627 505.714, 396.025 503.810, 405.842 502.216, 414.060 500.588, 423.926 499.191, 432.393 497.836, 442.301 496.651, 450.964 495.568, 460.905 494.608, 469.710 493.795, 479.677 493.322, 485.468 493.069, 488.568 492.864, 492.324 492.320, 502.309 492.038, 507.473 492.038, 507.473 491.987, 509.333 491.784, 516.761 491.728, 518.800 491.715, 519.276 491.692, 520.120 491.668, 520.975 491.520, 526.362 491.517, 536.362 491.515, 545.170 491.786, 555.167 492.020, 563.834 492.568, 573.819 493.032, 582.292 493.861, 592.258 494.544, 600.483 495.658, 610.421 496.547, 618.348 497.953, 628.249 499.029, 635.832 500.061, 641.795 501.765, 651.648 501.979, 652.881 503.990, 662.677 505.380, 669.444 507.707, 679.170 509.216, 685.475 511.069, 692.208 513.469, 700.928 516.459, 710.471 516.899, 711.875 518.119, 715.765 521.459, 725.191 523.145, 729.949 526.848, 739.238 528.525, 743.447 532.605, 752.577 534.238, 756.231 534.352, 756.460 537.936, 763.631 540.258, 768.276 541.352, 770.233 542.873, 772.955 546.564, 779.561 546.797, 779.935 548.318, 782.369 550.326, 785.582 553.130, 790.070 558.864, 798.262 559.932, 799.787 566.114, 807.647 566.946, 808.705 573.586, 816.182 574.149, 816.815 581.252, 823.854 581.516, 824.116 589.024, 830.607 596.651, 836.289 604.374, 841.170 612.171, 845.255 620.023, 848.556 627.908, 851.084 635.809, 852.852 " fill="none" stroke="rgb(0, 0, 0)" stroke-linecap="butt" stroke-linejoin="round" stroke-opacity="1.0" stroke-width="3.0" />
            <path d=" M 770.115, 566.405 770.027, 566.929 768.121, 576.745 767.702, 578.901 765.546, 588.666 765.093, 590.718 762.683, 600.424 762.203, 602.358 759.535, 611.996 759.036, 613.799 756.103, 623.359 755.595, 625.017 752.391, 634.490 751.883, 635.990 748.401, 645.363 747.906, 646.693 744.137, 655.955 743.669, 657.105 739.603, 666.241 739.176, 667.201 734.803, 676.194 734.433, 676.956 729.742, 685.788 729.445, 686.346 724.426, 694.995 724.221, 695.347 718.859, 703.788 718.767, 703.934 713.091, 712.080 707.201, 719.760 701.107, 726.950 694.819, 733.623 688.347, 739.752 681.705, 745.314 674.903, 750.282 667.957, 754.630 660.880, 758.333 653.689, 761.370 646.399, 763.714 639.030, 765.343 631.599, 766.237 624.524, 766.369 " fill="none" stroke="rgb(0, 0, 0)" stroke-linecap="butt" stroke-linejoin="round" stroke-opacity="1.0" stroke-width="3.0" />
            <path d=" M 784.835, 570.874 774.842, 570.505 774.028, 570.475 770.115, 566.405 763.184, 559.197 756.252, 551.989 752.630, 548.222 752.009, 547.575 751.386, 546.927 750.763, 546.278 750.140, 545.628 749.431, 544.738 748.795, 543.627 748.330, 542.522 748.244, 542.317 747.792, 540.833 747.448, 539.203 747.430, 539.072 747.378, 538.675 747.217, 537.459 747.105, 535.633 747.112, 533.761 747.241, 531.879 747.288, 531.521 747.466, 530.184 747.487, 530.024 747.846, 528.232 748.311, 526.538 748.873, 524.973 749.522, 523.568 750.243, 522.350 751.023, 521.342 751.848, 520.562 752.125, 520.388 752.257, 520.304 752.701, 520.025 753.564, 519.741 754.289, 519.610 755.014, 519.480 755.738, 519.349 756.461, 519.218 756.824, 519.152 766.665, 517.380 776.507, 515.607 781.307, 514.742 " fill="none" stroke="rgb(0, 0, 0)" stroke-linecap="butt" stroke-linejoin="round" stroke-opacity="1.0" stroke-width="3.0" />
            <path d=" M 679.829, 222.609 676.120, 222.884 671.461, 223.229 663.035, 224.656 655.318, 226.720 654.579, 226.918 646.122, 230.042 637.693, 234.042 629.324, 238.925 621.044, 244.685 613.277, 250.985 612.880, 251.307 605.559, 258.118 604.860, 258.768 597.991, 266.036 597.016, 267.067 590.607, 274.743 589.387, 276.203 583.437, 284.240 582.011, 286.166 576.512, 294.518 574.922, 296.933 569.860, 305.557 568.151, 308.470 563.510, 317.328 561.726, 320.735 557.485, 329.792 556.392, 332.127 555.666, 333.677 554.874, 335.572 554.335, 336.863 553.538, 338.772 553.469, 338.937 552.035, 342.372 550.842, 345.226 549.998, 347.249 549.199, 349.407 547.811, 353.160 546.003, 358.048 544.756, 361.417 544.619, 361.839 541.530, 371.350 539.975, 376.136 539.203, 378.874 537.882, 383.556 535.683, 391.352 533.398, 400.806 531.901, 407.004 529.908, 416.803 528.643, 423.025 526.994, 432.888 526.443, 436.186 525.915, 439.346 524.600, 449.260 523.708, 455.986 522.709, 465.935 522.020, 472.791 521.333, 482.767 520.856, 489.689 520.553, 497.772 520.447, 500.602 520.378, 502.437 520.222, 506.609 520.162, 516.609 520.158, 517.248 520.121, 523.461 520.121, 523.476 520.339, 532.004 520.359, 532.781 520.550, 540.220 521.126, 550.203 521.505, 556.769 522.406, 566.728 522.979, 573.054 524.213, 582.977 524.647, 586.472 524.963, 589.007 526.536, 598.883 526.885, 601.074 527.441, 604.566 529.364, 614.380 530.400, 619.670 532.684, 629.406 533.823, 634.260 534.020, 634.977 536.677, 644.617 537.688, 648.285 540.732, 657.810 541.973, 661.695 543.162, 664.934 543.390, 665.552 544.258, 667.916 544.700, 669.120 546.656, 674.446 546.823, 674.846 550.692, 684.067 550.911, 684.588 551.712, 686.497 551.967, 687.031 552.486, 688.119 553.486, 690.215 556.535, 696.603 557.016, 697.610 557.113, 697.814 558.082, 699.602 560.069, 703.268 562.834, 708.369 568.078, 716.884 568.847, 718.133 574.587, 726.321 575.123, 727.085 581.376, 734.890 581.634, 735.212 588.352, 742.501 595.249, 748.943 602.297, 754.535 609.469, 759.279 616.737, 763.177 624.077, 766.234 624.524, 766.369 631.463, 768.463 638.872, 769.877 646.279, 770.488 653.664, 770.314 661.005, 769.376 668.284, 767.693 675.480, 765.286 682.577, 762.179 689.558, 758.397 696.408, 753.964 703.113, 748.904 709.659, 743.245 716.034, 737.014 722.227, 730.234 728.227, 722.933 734.025, 715.137 739.612, 706.874 744.859, 698.361 744.979, 698.167 749.887, 689.455 750.119, 689.043 754.702, 680.156 755.025, 679.529 759.296, 670.487 759.692, 669.648 763.661, 660.470 764.112, 659.426 767.791, 650.127 768.282, 648.887 771.681, 639.482 772.197, 638.055 775.324, 628.557 775.852, 626.954 778.715, 617.373 779.242, 615.608 781.849, 605.953 782.366, 604.039 784.722, 594.320 785.219, 592.271 787.330, 582.496 787.799, 580.326 789.668, 570.502 790.102, 568.226 791.735, 558.360 792.126, 555.993 793.526, 546.092 793.871, 543.650 " fill="none" stroke="rgb(0, 0, 0)" stroke-linecap="butt" stroke-linejoin="round" stroke-opacity="1.0" stroke-width="3.0" />
            <path d=" M 781.307, 514.742 791.284, 515.423 792.024, 515.473 " fill="none" stroke="rgb(0, 0, 0)" stroke-linecap="butt" stroke-linejoin="round" stroke-opacity="1.0" stroke-width="3.0" />
            <path d=" M 825.267, 530.230 825.782, 524.371 826.166, 520.011 826.784, 510.030 826.950, 507.337 827.257, 498.753 827.404, 494.640 827.500, 484.640 827.526, 481.942 827.361, 471.943 827.317, 469.266 826.893, 459.275 826.781, 456.635 826.102, 446.659 825.925, 444.070 824.985, 434.114 824.746, 431.591 823.603, 422.226 823.237, 419.227 821.746, 409.339 821.394, 407.003 819.617, 397.162 819.217, 394.947 817.147, 385.163 816.707, 383.081 814.341, 373.365 813.870, 371.429 811.207, 361.790 810.715, 360.008 807.748, 350.458 807.245, 348.840 803.960, 339.395 803.459, 337.956 799.838, 328.635 799.355, 327.391 795.384, 318.213 794.934, 317.175 790.600, 308.163 790.202, 307.335 785.494, 298.513 785.166, 297.897 780.079, 289.287 779.836, 288.877 774.364, 280.508 774.224, 280.294 768.334, 272.181 762.169, 264.578 755.738, 257.522 749.051, 251.044 742.122, 245.168 734.964, 239.913 727.595, 235.290 722.241, 232.484 720.029, 231.325 712.280, 228.060 704.365, 225.530 696.303, 223.767 688.118, 222.789 681.536, 222.646 679.829, 222.609 " fill="none" stroke="rgb(0, 0, 0)" stroke-linecap="butt" stroke-linejoin="round" stroke-opacity="1.0" stroke-width="3.0" />
            <path d=" M 655.318, 226.720 656.689, 227.107 663.120, 229.716 669.388, 233.047 675.478, 237.064 681.381, 241.723 687.086, 246.998 692.581, 252.875 697.855, 259.337 702.899, 266.357 707.706, 273.904 712.270, 281.941 716.591, 290.430 720.665, 299.335 724.487, 308.641 727.937, 318.027 728.047, 318.327 731.164, 327.829 731.343, 328.373 734.143, 337.972 734.370, 338.749 736.871, 348.431 737.129, 349.426 739.349, 359.177 739.622, 360.372 741.578, 370.179 741.853, 371.556 743.553, 381.410 743.819, 382.957 745.266, 392.851 745.516, 394.558 746.715, 404.485 746.938, 406.338 747.896, 416.292 748.087, 418.274 748.810, 428.248 748.962, 430.342 749.459, 440.330 749.568, 442.516 749.849, 452.512 749.912, 454.771 749.981, 464.771 749.997, 467.087 749.853, 477.086 749.819, 479.443 749.460, 489.437 749.375, 491.820 748.801, 501.804 748.663, 504.197 747.876, 514.166 747.688, 516.551 747.065, 522.759 746.799, 523.912 746.482, 525.015 746.117, 526.056 745.707, 527.025 745.258, 527.911 744.772, 528.704 744.527, 529.035 " fill="none" stroke="rgb(0, 0, 0)" stroke-linecap="butt" stroke-linejoin="round" stroke-opacity="1.0" stroke-width="3.0" />
            <path d=" M 719.084, 530.586 719.078, 530.980 719.026, 531.529 728.407, 534.993 732.898, 536.652 742.279, 540.117 744.963, 541.108 748.330, 542.522 " fill="none" stroke="rgb(0, 0, 0)" stroke-linecap="butt" stroke-linejoin="round" stroke-opacity="1.0" stroke-width="3.0" />
            <path d=" M 803.178, 536.963 812.455, 540.699 812.946, 540.897 821.969, 544.529 823.627, 545.197 823.841, 545.273 829.540, 547.299 " fill="none" stroke="rgb(0, 0, 0)" stroke-linecap="butt" stroke-linejoin="round" stroke-opacity="1.0" stroke-width="3.0" />
            <path d=" M 799.084, 545.679 799.765, 545.715 809.751, 546.247 811.999, 546.366 813.931, 546.469 821.693, 546.882 823.640, 546.986 829.540, 547.299 830.669, 537.363 831.033, 534.159 831.905, 524.197 832.190, 520.948 832.806, 510.967 833.009, 507.689 833.370, 497.695 833.489, 494.404 833.593, 484.405 833.628, 481.118 833.475, 471.119 833.426, 467.854 833.014, 457.862 832.881, 454.633 832.208, 444.656 831.994, 441.482 831.056, 431.526 830.764, 428.422 829.557, 418.495 829.190, 415.477 827.711, 405.588 827.274, 402.674 825.515, 392.830 825.016, 390.035 822.971, 380.246 822.415, 377.587 820.078, 367.864 819.475, 365.353 816.838, 355.707 816.196, 353.362 813.253, 343.818 812.580, 341.638 809.314, 332.187 808.631, 330.209 805.477, 322.025 804.350, 319.102 800.413, 309.910 799.743, 308.345 795.451, 299.313 794.812, 297.967 790.154, 289.117 789.563, 287.995 784.526, 279.356 784.003, 278.458 778.572, 270.062 778.137, 269.389 775.583, 265.837 771.972, 260.814 768.753, 256.799 765.518, 252.765 758.784, 245.271 751.780, 238.365 744.518, 232.074 737.011, 226.429 729.273, 221.461 721.320, 217.199 713.168, 213.669 704.836, 210.900 696.345, 208.920 687.714, 207.752 678.968, 207.419 668.975, 207.789 663.749, 207.983 " fill="none" stroke="rgb(0, 0, 0)" stroke-linecap="butt" stroke-linejoin="round" stroke-opacity="1.0" stroke-width="3.0" />
            <path d=" M 678.968, 207.419 670.130, 207.942 668.420, 208.211 661.227, 209.343 660.129, 209.624 652.286, 211.635 643.336, 214.832 634.406, 218.945 625.709, 223.881 625.529, 223.983 617.253, 229.595 616.737, 229.945 608.905, 236.162 608.063, 236.831 600.690, 243.586 599.542, 244.637 592.632, 251.865 591.209, 253.352 584.759, 260.994 583.099, 262.961 577.103, 270.964 575.246, 273.443 569.698, 281.763 567.689, 284.776 562.576, 293.370 560.460, 296.926 555.770, 305.759 553.593, 309.859 553.370, 310.331 550.239, 316.948 549.403, 318.717 548.801, 319.989 548.729, 320.141 547.123, 323.535 543.249, 332.753 542.307, 334.994 541.083, 337.907 540.924, 338.333 537.440, 347.706 535.501, 352.924 532.397, 362.430 530.405, 368.531 528.873, 373.930 526.142, 383.550 525.825, 384.668 523.459, 394.384 521.782, 401.272 519.774, 411.068 518.297, 418.274 516.643, 428.136 515.390, 435.604 " fill="none" stroke="rgb(0, 0, 0)" stroke-linecap="butt" stroke-linejoin="round" stroke-opacity="1.0" stroke-width="3.0" />
            <path d=" M 812.492, 531.771 812.562, 531.668 812.993, 530.919 813.398, 530.092 813.729, 529.299 813.774, 529.194 814.117, 528.232 814.424, 527.212 823.407, 529.712 825.267, 530.230 825.033, 530.807 824.632, 531.638 824.204, 532.392 823.754, 533.061 823.285, 533.642 823.029, 533.900 822.801, 534.129 822.305, 534.518 821.801, 534.805 821.293, 534.987 820.785, 535.061 820.283, 535.025 819.789, 534.878 815.319, 532.975 813.922, 532.380 813.455, 532.181 812.492, 531.771 807.715, 529.736 807.377, 528.229 806.940, 526.856 806.413, 525.640 805.803, 524.603 805.120, 523.761 804.376, 523.130 803.583, 522.720 802.755, 522.539 797.952, 522.258 797.843, 522.251 791.462, 521.878 790.884, 521.844 790.026, 521.894 789.197, 522.178 788.413, 522.691 787.652, 523.424 786.927, 524.364 786.820, 524.545 786.252, 525.496 785.636, 526.802 785.091, 528.258 784.627, 529.840 784.252, 531.521 783.971, 533.273 787.636, 534.730 788.403, 535.035 790.148, 535.147 791.390, 535.226 798.554, 535.686 798.992, 535.714 800.281, 535.797 800.374, 535.242 800.503, 534.718 800.666, 534.240 800.858, 533.821 801.074, 533.472 801.308, 533.202 801.553, 533.019 801.803, 532.928 802.051, 532.932 " fill="none" stroke="rgb(0, 0, 0)" stroke-linecap="butt" stroke-linejoin="round" stroke-opacity="1.0" stroke-width="3.0" />
            <path d=" M 790.148, 535.147 789.178, 543.406 787.774, 553.307 787.432, 555.720 785.743, 565.576 784.835, 570.874 777.954, 563.618 775.639, 561.176 771.696, 557.018 764.815, 549.762 764.129, 549.038 763.514, 548.388 762.897, 547.737 762.280, 547.085 761.663, 546.433 760.961, 545.539 760.332, 544.424 759.992, 543.601 759.788, 543.108 759.341, 541.618 759.002, 539.980 758.775, 538.227 758.703, 537.024 758.665, 536.392 758.674, 534.511 758.804, 532.620 759.049, 530.756 759.154, 530.229 759.407, 528.955 759.870, 527.252 760.429, 525.679 761.073, 524.267 761.789, 523.042 762.564, 522.028 763.382, 521.244 764.228, 520.704 765.084, 520.418 765.802, 520.286 766.521, 520.154 767.239, 520.022 767.955, 519.890 768.315, 519.824 778.151, 518.019 781.066, 517.484 790.902, 515.679 792.024, 515.473 791.462, 521.878 " fill="none" stroke="rgb(0, 0, 0)" stroke-linecap="butt" stroke-linejoin="round" stroke-opacity="1.0" stroke-width="3.0" />
            <path d=" M 514.181, 417.757 514.857, 427.734 515.390, 435.604 514.070, 445.517 513.035, 453.288 512.032, 463.238 511.235, 471.151 510.547, 481.127 509.997, 489.114 509.625, 499.107 509.533, 501.584 509.328, 507.100 509.274, 517.100 509.230, 525.029 509.495, 535.026 509.701, 542.824 510.288, 552.806 510.735, 560.407 511.650, 570.365 512.325, 577.705 513.575, 587.626 514.460, 594.644 516.053, 604.517 517.125, 611.158 519.071, 620.966 520.303, 627.179 522.614, 636.908 522.924, 638.215 523.977, 642.646 526.664, 652.278 528.122, 657.503 531.201, 667.018 532.715, 671.698 536.201, 681.071 537.731, 685.184 541.260, 693.485 543.144, 697.916 544.798, 701.335 548.675, 709.347 548.923, 709.860 550.260, 712.290 554.304, 719.645 555.040, 720.984 555.851, 722.280 557.861, 725.495 561.465, 731.260 567.269, 739.404 568.169, 740.667 574.488, 748.417 575.118, 749.190 581.965, 756.478 582.283, 756.817 589.635, 763.539 597.142, 769.354 604.776, 774.265 612.507, 778.277 620.309, 781.395 628.154, 783.635 636.017, 785.011 643.874, 785.538 651.701, 785.236 659.475, 784.127 667.177, 782.235 674.786, 779.582 682.285, 776.195 689.656, 772.100 696.882, 767.326 703.951, 761.897 710.846, 755.843 717.557, 749.194 724.072, 741.977 730.378, 734.219 736.308, 726.167 736.468, 725.950 742.035, 717.642 742.332, 717.197 747.548, 708.666 747.962, 707.988 752.842, 699.260 753.351, 698.350 757.908, 689.449 758.491, 688.311 762.738, 679.258 763.377, 677.897 767.325, 668.709 768.003, 667.132 771.663, 657.826 772.364, 656.044 775.747, 646.633 776.457, 644.657 779.569, 635.154 780.275, 632.997 783.125, 623.411 783.817, 621.085 786.412, 611.428 787.078, 608.948 789.424, 599.228 790.057, 596.609 792.159, 586.832 792.748, 584.090 794.611, 574.265 795.151, 571.413 796.778, 561.546 797.264, 558.602 798.658, 548.700 799.084, 545.679 793.871, 543.650 798.990, 543.916 808.977, 544.435 812.514, 544.619 812.213, 544.500 802.921, 540.806 799.273, 539.356 798.737, 539.143 791.330, 536.198 791.382, 535.632 791.390, 535.226 " fill="none" stroke="rgb(0, 0, 0)" stroke-linecap="butt" stroke-linejoin="round" stroke-opacity="1.0" stroke-width="3.0" />
            <path d=" M 764.639, 537.416 764.327, 537.297 764.041, 537.034 763.793, 536.638 763.594, 536.127 763.453, 535.523 763.377, 534.853 763.368, 534.146 763.428, 533.434 763.553, 532.746 763.737, 532.115 763.974, 531.567 764.252, 531.126 764.559, 530.812 764.881, 530.637 765.206, 530.611 " fill="none" stroke="rgb(0, 0, 0)" stroke-linecap="butt" stroke-linejoin="round" stroke-opacity="1.0" stroke-width="3.0" />
            <path d=" M 765.206, 530.611 765.516, 530.734 765.801, 531.000 766.048, 531.396 766.246, 531.907 766.386, 532.509 766.461, 533.176 766.470, 533.881 766.411, 534.591 766.287, 535.275 766.103, 535.905 765.868, 536.453 765.591, 536.894 765.285, 537.210 764.963, 537.386 764.639, 537.416 " fill="none" stroke="rgb(0, 0, 0)" stroke-linecap="butt" stroke-linejoin="round" stroke-opacity="1.0" stroke-width="3.0" />
            <path d=" M 505.655, 452.666 504.649, 462.615 503.791, 471.107 503.102, 481.083 502.510, 489.652 502.139, 499.645 501.967, 504.271 501.820, 508.218 501.768, 518.218 501.723, 526.724 501.990, 536.720 502.215, 545.086 502.807, 555.069 503.291, 563.226 504.214, 573.183 504.945, 581.064 506.205, 590.984 507.163, 598.525 508.769, 608.395 509.930, 615.537 511.891, 625.343 513.229, 632.033 515.557, 641.758 517.039, 647.948 519.748, 657.575 521.337, 663.224 521.354, 663.277 524.457, 672.784 526.097, 677.808 529.611, 687.170 531.292, 691.650 535.236, 700.839 536.896, 704.707 539.696, 710.436 542.875, 716.942 543.296, 717.699 547.101, 724.545 548.679, 727.386 549.201, 728.324 552.750, 733.938 554.303, 736.394 555.841, 738.826 556.318, 739.487 562.168, 747.598 562.765, 748.426 569.134, 756.136 569.940, 757.111 576.839, 764.350 577.333, 764.869 584.766, 771.559 584.914, 771.692 592.652, 777.581 600.516, 782.539 608.477, 786.571 616.506, 789.687 624.576, 791.901 632.661, 793.231 640.736, 793.692 648.777, 793.305 656.762, 792.096 664.670, 790.087 672.480, 787.303 680.174, 783.771 687.735, 779.521 695.148, 774.578 702.396, 768.971 709.466, 762.730 716.346, 755.884 723.023, 748.460 729.322, 740.693 729.488, 740.489 735.411, 732.432 735.730, 731.999 741.292, 723.688 741.740, 723.019 746.954, 714.486 747.510, 713.575 752.390, 704.846 753.033, 703.696 757.591, 694.796 758.301, 693.410 762.551, 684.358 763.309, 682.743 767.261, 673.557 768.051, 671.720 771.715, 662.416 772.521, 660.369 775.908, 650.960 776.716, 648.714 779.833, 639.212 780.631, 636.780 783.485, 627.196 784.261, 624.592 786.860, 614.936 787.604, 612.174 789.954, 602.454 790.656, 599.550 792.761, 589.774 793.414, 586.742 795.279, 576.917 795.875, 573.774 797.503, 563.907 798.038, 560.669 799.432, 550.767 799.899, 547.450 799.765, 545.715 " fill="none" stroke="rgb(0, 0, 0)" stroke-linecap="butt" stroke-linejoin="round" stroke-opacity="1.0" stroke-width="3.0" />
            <path d=" M 663.749, 207.983 656.819, 208.386 655.709, 208.451 647.591, 209.795 639.420, 212.031 631.222, 215.173 623.024, 219.234 614.857, 224.221 606.749, 230.137 599.143, 236.630 598.731, 236.981 591.603, 243.995 590.836, 244.750 584.181, 252.215 583.095, 253.433 576.905, 261.286 575.543, 263.014 569.804, 271.203 568.212, 273.474 562.910, 281.953 561.137, 284.789 556.256, 293.517 554.350, 296.927 552.033, 301.556 548.775, 308.067 547.882, 309.852 547.355, 311.031 546.901, 312.046 546.196, 313.621 542.114, 322.750 541.768, 323.522 540.708, 326.182 539.369, 329.538 536.037, 337.892 532.699, 347.319 530.719, 352.910 527.736, 362.455 527.033, 364.702 525.840, 368.520 523.203, 378.166 521.427, 384.661 519.127, 394.393 517.503, 401.270 515.528, 411.073 514.181, 417.757 510.748, 427.149 508.094, 434.410 " fill="none" stroke="rgb(0, 0, 0)" stroke-linecap="butt" stroke-linejoin="round" stroke-opacity="1.0" stroke-width="3.0" />
            <path d=" M 508.094, 434.410 506.769, 444.322 505.655, 452.666 " fill="none" stroke="rgb(0, 0, 0)" stroke-linecap="butt" stroke-linejoin="round" stroke-opacity="1.0" stroke-width="3.0" />
            <path d=" M 813.253, 343.818 812.700, 341.417 810.220, 331.729 809.916, 330.538 807.190, 320.917 806.894, 319.873 803.916, 310.327 803.638, 309.437 800.399, 299.976 800.149, 299.247 796.639, 289.883 796.428, 289.320 792.637, 280.067 792.477, 279.676 788.391, 270.549 788.295, 270.334 783.885, 261.316 779.248, 252.644 774.388, 244.338 769.309, 236.415 764.016, 228.894 758.512, 221.794 752.803, 215.137 746.894, 208.944 740.791, 203.239 734.501, 198.047 728.030, 193.392 721.387, 189.293 714.582, 185.767 707.625, 182.834 700.526, 180.511 693.298, 178.820 685.952, 177.779 678.503, 177.411 670.964, 177.735 669.823, 177.891 663.351, 178.771 655.681, 180.528 647.971, 183.016 640.237, 186.243 632.500, 190.217 624.778, 194.947 617.093, 200.439 609.466, 206.698 602.150, 213.515 601.921, 213.728 600.706, 215.002 594.481, 221.525 591.935, 224.502 587.167, 230.077 581.063, 237.998 580.002, 239.374 574.281, 247.576 573.009, 249.400 570.824, 252.852 566.211, 260.140 561.225, 268.808 559.633, 271.575 554.997, 280.436 553.298, 283.685 550.170, 290.266 547.232, 296.445 546.874, 297.276 545.517, 300.421 543.740, 304.540 542.987, 306.286 541.459, 309.827 538.825, 316.560 537.514, 319.911 535.997, 323.790 532.662, 333.218 530.865, 338.300 527.832, 347.828 526.086, 353.315 525.227, 356.332 522.488, 365.950 521.678, 368.795 519.228, 378.491 517.661, 384.695 515.493, 394.457 514.048, 400.965 512.158, 410.784 510.855, 417.554 509.238, 427.422 508.094, 434.410 506.749, 444.320 505.777, 451.481 505.655, 452.666 504.575, 462.607 503.913, 468.708 503.104, 478.676 502.507, 486.037 501.965, 496.023 501.565, 503.410 501.521, 504.997 501.248, 514.993 501.090, 520.771 501.086, 530.771 501.083, 538.061 501.349, 548.058 501.540, 555.226 502.079, 565.211 502.457, 572.209 503.274, 582.176 503.830, 588.958 504.931, 598.897 505.654, 605.417 507.046, 615.320 507.920, 621.536 509.607, 631.393 510.613, 637.269 512.602, 647.069 513.719, 652.570 516.019, 662.302 517.223, 667.398 519.842, 677.049 520.181, 678.300 521.108, 681.714 524.059, 691.269 525.359, 695.479 528.654, 704.921 529.959, 708.659 533.614, 717.967 534.891, 721.220 537.860, 727.965 540.135, 733.135 541.395, 735.697 544.979, 742.982 545.668, 744.383 546.507, 745.911 550.456, 753.105 551.467, 754.947 551.974, 755.773 553.963, 759.020 557.510, 764.810 563.160, 773.062 563.776, 773.961 569.864, 781.894 570.243, 782.388 576.781, 789.955 576.890, 790.081 583.698, 797.034 590.647, 803.239 597.714, 808.700 604.879, 813.423 612.121, 817.416 619.420, 820.689 626.758, 823.250 633.181, 824.873 634.118, 825.110 641.483, 826.277 648.838, 826.763 656.168, 826.579 663.456, 825.745 670.688, 824.280 677.852, 822.206 684.935, 819.540 691.925, 816.302 698.812, 812.509 705.584, 808.177 712.234, 803.323 718.750, 797.965 725.126, 792.127 731.354, 785.830 737.427, 779.096 743.338, 771.944 749.082, 764.393 754.652, 756.460 760.044, 748.162 765.251, 739.514 770.130, 730.785 770.270, 730.535 774.880, 721.661 775.097, 721.245 779.449, 712.242 779.728, 711.664 783.831, 702.545 784.162, 701.809 788.023, 692.585 788.395, 691.697 792.021, 682.377 792.423, 681.343 795.820, 671.937 796.245, 670.762 799.418, 661.278 799.856, 659.968 802.809, 650.414 803.254, 648.977 805.995, 639.360 806.438, 637.806 808.972, 628.132 809.407, 626.471 811.738, 616.746 812.160, 614.986 814.290, 605.215 814.693, 603.364 816.625, 593.552 817.006, 591.620 818.743, 581.772 819.096, 579.769 820.641, 569.889 820.964, 567.824 822.318, 557.916 822.607, 555.799 823.640, 546.986 " fill="none" stroke="rgb(0, 0, 0)" stroke-linecap="butt" stroke-linejoin="round" stroke-opacity="1.0" stroke-width="3.0" />
            <path d=" M 668.719, 177.938 661.096, 178.975 653.416, 180.732 645.695, 183.218 637.953, 186.443 630.206, 190.415 622.475, 195.142 614.781, 200.629 607.146, 206.883 599.823, 213.693 599.593, 213.907 595.552, 218.133 592.145, 221.697 585.638, 229.290 585.437, 229.526 584.824, 230.241 578.712, 238.156 577.652, 239.529 571.924, 247.725 570.652, 249.545 565.297, 257.990 563.848, 260.274 560.759, 265.633 560.689, 265.756 560.569, 265.963 560.510, 266.065 560.506, 266.072 560.362, 266.322 560.343, 266.356 560.256, 266.506 560.215, 266.577 557.264, 271.697 552.622, 280.554 550.924, 283.794 549.536, 286.708 546.216, 293.681 544.854, 296.541 544.818, 296.625 542.529, 301.919 541.755, 303.710 539.076, 309.907 538.007, 312.637 536.701, 315.968 533.610, 323.856 530.271, 333.282 528.476, 338.349 525.438, 347.876 524.188, 351.795 523.693, 353.348 520.951, 362.964 519.284, 368.811 516.830, 378.505 515.264, 384.692 513.094, 394.454 511.651, 400.943 509.758, 410.763 508.457, 417.513 506.839, 427.382 505.696, 434.351 504.350, 444.260 503.379, 451.401 502.303, 461.343 501.516, 468.609 500.707, 478.577 500.111, 485.918 499.570, 495.904 499.171, 503.272 499.013, 509.083 498.740, 519.079 498.699, 520.612 498.696, 530.612 498.694, 537.883 498.963, 547.880 499.155, 555.029 499.697, 565.014 500.076, 571.993 500.896, 581.960 501.452, 588.723 502.558, 598.662 503.281, 605.165 504.677, 615.067 505.552, 621.266 507.244, 631.122 508.250, 636.982 510.245, 646.781 511.362, 652.267 513.668, 661.998 514.872, 667.080 517.498, 676.729 518.764, 681.381 519.673, 684.317 522.631, 693.870 523.022, 695.133 526.325, 704.572 527.629, 708.301 531.292, 717.606 532.569, 720.850 536.605, 729.999 537.432, 731.874 537.821, 732.754 540.997, 739.197 543.362, 743.993 544.573, 746.194 546.118, 749.002 549.169, 754.547 550.092, 756.049 551.613, 758.526 553.601, 761.764 555.221, 764.403 560.879, 772.648 561.496, 773.547 567.592, 781.474 567.972, 781.967 574.517, 789.527 574.628, 789.656 581.446, 796.604 588.404, 802.806 595.481, 808.264 602.656, 812.986 609.907, 816.979 617.216, 820.252 624.565, 822.814 631.935, 824.675 " fill="none" stroke="rgb(0, 0, 0)" stroke-linecap="butt" stroke-linejoin="round" stroke-opacity="1.0" stroke-width="3.0" />
            <path d=" M 670.964, 177.735 668.719, 177.938 " fill="none" stroke="rgb(0, 0, 0)" stroke-linecap="butt" stroke-linejoin="round" stroke-opacity="1.0" stroke-width="3.0" />
            <path d=" M 631.935, 824.675 634.118, 825.110 " fill="none" stroke="rgb(0, 0, 0)" stroke-linecap="butt" stroke-linejoin="round" stroke-opacity="1.0" stroke-width="3.0" />
            <path d=" M 490.215, 430.665 489.005, 439.480 487.809, 448.192 487.531, 450.216 486.445, 460.156 485.374, 469.953 484.560, 479.920 483.752, 489.809 483.209, 499.794 482.800, 507.324 482.793, 507.465 482.670, 509.714 482.484, 516.599 482.479, 516.790 482.372, 520.736 482.286, 523.917 482.133, 529.599 482.136, 539.599 482.139, 549.396 482.419, 559.392 482.688, 569.035 483.247, 579.020 483.775, 588.452 484.617, 598.416 485.391, 607.579 486.522, 617.515 487.528, 626.356 488.953, 636.254 490.172, 644.721 491.900, 654.571 493.311, 662.618 495.348, 672.408 496.926, 679.992 499.283, 689.711 501.000, 696.795 503.687, 706.427 505.514, 712.978 508.542, 722.509 510.445, 728.501 513.712, 737.593 515.407, 742.312 515.771, 743.325 519.520, 752.596 521.468, 757.416 522.443, 759.565 526.573, 768.672 527.512, 770.744 530.734, 777.091 531.228, 778.065 531.677, 778.949 532.213, 780.004 533.878, 783.285 534.835, 784.971 538.200, 790.897 539.222, 792.697 539.710, 793.556 540.539, 795.016 540.700, 795.269 543.694, 799.981 544.266, 800.880 545.195, 802.342 547.225, 805.536 547.470, 805.922 553.275, 814.065 554.646, 815.988 560.902, 823.789 562.039, 825.205 568.757, 832.612 569.624, 833.569 576.808, 840.525 577.377, 841.076 585.024, 847.519 585.271, 847.727 593.284, 853.528 601.392, 858.484 609.571, 862.604 617.801, 865.902 626.060, 868.389 630.387, 869.338 638.632, 871.026 646.868, 871.935 655.076, 872.084 663.238, 871.493 671.340, 870.182 679.366, 868.173 687.302, 865.488 695.134, 862.150 702.851, 858.182 710.441, 853.607 717.894, 848.448 725.200, 842.728 732.350, 836.472 739.335, 829.701 746.148, 822.438 752.661, 814.850 752.783, 814.707 758.976, 806.855 759.233, 806.529 765.116, 798.442 765.492, 797.925 771.076, 789.629 771.555, 788.918 776.851, 780.435 777.418, 779.527 782.435, 770.877 783.075, 769.773 787.824, 760.973 788.523, 759.677 793.013, 750.742 793.759, 749.257 797.999, 740.200 798.779, 738.533 802.777, 729.366 803.581, 727.522 807.344, 718.257 808.162, 716.243 811.697, 706.889 812.519, 704.714 815.832, 695.279 816.650, 692.951 819.748, 683.443 820.554, 680.971 823.442, 671.397 824.228, 668.790 826.910, 659.157 827.671, 656.425 830.152, 646.737 830.881, 643.890 833.165, 634.154 833.858, 631.202 835.947, 621.422 836.599, 618.374 838.497, 608.556 839.103, 605.422 840.813, 595.569 841.370, 592.360 842.893, 582.477 843.397, 579.202 844.735, 569.292 845.185, 565.963 846.339, 556.030 846.731, 552.656 847.703, 542.703 848.035, 539.296 848.824, 529.327 849.096, 525.895 849.703, 515.913 849.913, 512.468 850.337, 502.477 850.484, 499.029 850.726, 489.031 850.809, 485.590 850.867, 475.591 850.887, 472.168 850.760, 462.168 850.717, 458.774 850.402, 448.779 850.297, 445.424 849.794, 435.437 849.627, 432.132 848.932, 422.156 848.706, 418.912 847.816, 408.952 847.533, 405.779 846.445, 395.839 846.107, 392.749 844.817, 382.833 844.427, 379.837 842.931, 369.949 842.493, 367.057 840.785, 357.204 840.304, 354.428 838.379, 344.615 837.859, 341.965 835.710, 332.199 835.158, 329.686 832.779, 319.973 832.200, 317.607 829.584, 307.955 828.986, 305.747 826.124, 296.165 825.514, 294.125 822.398, 284.623 821.787, 282.759 818.407, 273.347 817.804, 271.669 814.148, 262.361 813.565, 260.875 809.624, 251.684 809.072, 250.398 804.833, 241.341 804.326, 240.259 799.776, 231.354 799.330, 230.480 794.456, 221.748 794.084, 221.083 788.872, 212.549 788.593, 212.091 783.029, 203.783 782.859, 203.529 776.885, 195.418 770.676, 187.785 764.238, 180.653 757.576, 174.048 750.695, 167.995 743.605, 162.520 736.312, 157.647 728.826, 153.402 721.157, 149.811 713.316, 146.899 705.315, 144.690 697.167, 143.208 688.886, 142.477 680.489, 142.517 671.991, 143.351 667.525, 143.822 658.923, 145.469 650.257, 147.945 641.548, 151.265 632.818, 155.442 624.089, 160.488 615.822, 166.115 615.384, 166.412 607.524, 172.594 606.730, 173.219 599.284, 179.895 598.150, 180.912 591.120, 188.023 589.671, 189.489 583.053, 196.985 581.321, 198.945 575.106, 206.779 573.128, 209.274 567.306, 217.405 565.118, 220.461 559.679, 228.853 557.321, 232.491 552.253, 241.111 549.766, 245.342 545.057, 254.164 543.664, 256.773 542.480, 258.990 540.929, 262.189 539.975, 264.158 538.640, 266.911 537.070, 270.150 535.957, 272.446 535.492, 273.404 534.634, 275.355 531.483, 282.521 531.026, 283.559 530.471, 284.820 529.756, 286.447 528.830, 288.552 525.687, 296.441 524.779, 298.721 523.513, 301.899 522.519, 304.394 519.135, 313.804 516.587, 320.887 516.076, 322.469 512.999, 331.984 511.058, 337.986 509.773, 342.431 506.996, 352.038 505.955, 355.639 503.472, 365.326 501.301, 373.793 499.104, 383.549 497.114, 392.389 495.200, 402.204 493.413, 411.367 491.778, 421.233 490.564, 428.556 490.215, 430.665 " fill="none" stroke="rgb(0, 0, 0)" stroke-linecap="butt" stroke-linejoin="round" stroke-opacity="1.0" stroke-width="3.0" />
            <path d=" M 671.991, 143.351 663.410, 144.997 654.766, 147.473 646.079, 150.796 637.370, 154.978 628.661, 160.031 620.404, 165.671 619.977, 165.963 612.128, 172.160 611.341, 172.781 603.908, 179.470 602.780, 180.486 595.763, 187.611 594.319, 189.078 587.714, 196.587 585.985, 198.552 579.785, 206.398 577.807, 208.900 572.001, 217.041 569.813, 220.109 564.388, 228.510 562.030, 232.163 556.976, 240.791 554.487, 245.040 549.791, 253.869 548.625, 256.061 547.213, 258.717 545.036, 263.224 541.698, 270.134 541.632, 270.270 541.603, 270.330 541.475, 270.594 540.235, 273.162 540.118, 273.430 536.103, 282.589 534.290, 286.727 533.582, 288.342 533.354, 288.918 532.819, 290.266 531.564, 293.427 527.874, 302.721 527.280, 304.218 523.906, 313.632 521.355, 320.749 518.411, 329.885 515.832, 337.886 513.063, 347.495 510.734, 355.579 509.429, 360.683 506.953, 370.372 506.083, 373.774 505.734, 375.330 505.257, 377.453 503.067, 387.211 501.899, 392.412 500.720, 398.476 498.811, 408.292 498.200, 411.434 496.569, 421.300 495.002, 430.776 494.596, 433.738 493.239, 443.646 492.317, 450.372 491.229, 460.339 490.158, 470.155 489.344, 480.122 488.533, 490.057 487.990, 500.042 487.836, 502.868 487.589, 507.401 487.488, 509.259 487.447, 510.008 487.265, 516.682 487.210, 518.721 487.066, 524.004 486.904, 529.938 486.905, 539.938 486.905, 540.625 486.905, 549.780 487.180, 559.776 487.290, 563.792 487.446, 569.464 488.000, 579.449 488.524, 588.924 489.360, 598.889 490.131, 608.094 491.254, 618.031 492.258, 626.911 493.674, 636.810 494.891, 645.316 496.608, 655.168 498.017, 663.251 500.043, 673.043 501.620, 680.662 503.964, 690.383 504.716, 693.499 505.680, 697.498 508.354, 707.134 510.179, 713.714 513.193, 723.249 514.881, 728.592 515.095, 729.267 518.461, 738.683 520.405, 744.119 524.138, 753.396 526.085, 758.236 530.199, 767.350 532.111, 771.588 532.190, 771.743 535.762, 778.812 538.458, 784.149 539.088, 785.264 540.602, 787.941 544.524, 794.879 545.101, 795.900 546.016, 797.346 548.040, 800.543 552.013, 806.821 557.801, 814.976 559.168, 816.902 565.409, 824.715 566.541, 826.131 573.244, 833.552 574.105, 834.505 581.276, 841.474 581.836, 842.019 589.473, 848.476 589.710, 848.677 597.701, 854.481 605.786, 859.438 613.944, 863.559 622.151, 866.854 630.387, 869.338 " fill="none" stroke="rgb(0, 0, 0)" stroke-linecap="butt" stroke-linejoin="round" stroke-opacity="1.0" stroke-width="3.0" />
            <path d=" M 747.466, 530.184 744.527, 529.035 735.213, 525.393 734.874, 525.261 734.506, 523.796 734.037, 522.462 733.473, 521.280 732.824, 520.271 732.101, 519.452 731.315, 518.836 730.479, 518.435 729.608, 518.255 719.625, 517.670 718.450, 517.602 717.552, 517.647 716.682, 517.918 715.857, 518.412 715.058, 519.119 714.299, 520.027 713.592, 521.121 712.950, 522.384 712.384, 523.793 711.904, 525.325 711.518, 526.953 711.233, 528.650 715.926, 530.384 719.084, 530.586 727.090, 531.100 727.184, 530.563 727.318, 530.055 727.487, 529.593 727.688, 529.187 727.914, 528.850 728.160, 528.589 728.418, 528.414 728.682, 528.327 728.945, 528.331 " fill="none" stroke="rgb(0, 0, 0)" stroke-linecap="butt" stroke-linejoin="round" stroke-opacity="1.0" stroke-width="3.0" />
            <path d=" M 729.608, 518.255 728.716, 518.301 727.852, 518.574 727.033, 519.071 726.240, 519.782 725.485, 520.695 724.783, 521.795 724.145, 523.064 723.582, 524.480 723.104, 526.020 722.720, 527.657 722.673, 527.937 722.436, 529.362 " fill="none" stroke="rgb(0, 0, 0)" stroke-linecap="butt" stroke-linejoin="round" stroke-opacity="1.0" stroke-width="3.0" />
            <path d=" M 711.233, 528.650 718.908, 529.138 722.436, 529.362 727.090, 531.100 " fill="none" stroke="rgb(0, 0, 0)" stroke-linecap="butt" stroke-linejoin="round" stroke-opacity="1.0" stroke-width="3.0" />
            <path d=" M 728.945, 528.331 729.198, 528.427 729.436, 528.611 729.652, 528.879 729.841, 529.223 729.995, 529.633 730.113, 530.099 730.190, 530.607 730.225, 531.145 730.217, 531.697 730.165, 532.248 " fill="none" stroke="rgb(0, 0, 0)" stroke-linecap="butt" stroke-linejoin="round" stroke-opacity="1.0" stroke-width="3.0" />
            <path d=" M 719.026, 531.529 729.006, 532.173 730.165, 532.248 739.533, 535.746 747.378, 538.675 " fill="none" stroke="rgb(0, 0, 0)" stroke-linecap="butt" stroke-linejoin="round" stroke-opacity="1.0" stroke-width="3.0" />
            <path d=" M 802.755, 522.539 801.904, 522.590 801.082, 522.876 800.305, 523.393 799.550, 524.130 798.832, 525.075 798.161, 526.214 798.064, 526.423 797.550, 527.526 797.009, 528.990 796.548, 530.580 796.174, 532.270 796.128, 532.559 795.895, 534.031 " fill="none" stroke="rgb(0, 0, 0)" stroke-linecap="butt" stroke-linejoin="round" stroke-opacity="1.0" stroke-width="3.0" />
            <path d=" M 783.971, 533.273 791.233, 533.734 795.895, 534.031 798.523, 535.089 800.281, 535.797 " fill="none" stroke="rgb(0, 0, 0)" stroke-linecap="butt" stroke-linejoin="round" stroke-opacity="1.0" stroke-width="3.0" />
            <path d=" M 802.051, 532.932 802.290, 533.029 802.514, 533.218 802.716, 533.492 802.891, 533.846 803.035, 534.268 803.143, 534.748 803.213, 535.271 803.242, 535.826 803.231, 536.395 803.178, 536.963 798.606, 536.668 791.330, 536.198 " fill="none" stroke="rgb(0, 0, 0)" stroke-linecap="butt" stroke-linejoin="round" stroke-opacity="1.0" stroke-width="3.0" />
            <path d=" M 787.300, 501.371 787.501, 501.449 787.680, 501.568 787.831, 501.724 787.948, 501.912 788.027, 502.126 788.065, 502.360 788.057, 502.610 788.005, 502.843 787.913, 503.066 787.784, 503.269 787.623, 503.445 787.436, 503.588 787.227, 503.693 787.004, 503.755 786.769, 503.769 786.610, 503.749 786.458, 503.704 786.315, 503.635 " fill="none" stroke="rgb(0, 0, 0)" stroke-linecap="butt" stroke-linejoin="round" stroke-opacity="1.0" stroke-width="3.0" />
            <path d=" M 787.300, 501.371 787.277, 501.362 787.260, 501.357 787.246, 501.353 787.209, 501.344 787.167, 501.336 787.122, 501.329 787.075, 501.323 787.028, 501.318 786.981, 501.315 786.941, 501.314 786.907, 501.314 786.879, 501.316 786.673, 501.342 786.633, 501.350 786.419, 501.424 786.385, 501.439 786.181, 501.560 786.004, 501.718 785.861, 501.910 785.757, 502.130 785.742, 502.164 785.683, 502.409 785.676, 502.646 785.716, 502.880 785.801, 503.101 785.928, 503.302 785.951, 503.331 786.111, 503.497 786.304, 503.630 786.315, 503.635 " fill="none" stroke="rgb(0, 0, 0)" stroke-linecap="butt" stroke-linejoin="round" stroke-opacity="1.0" stroke-width="3.0" />
            <path d=" M 789.998, 505.855 790.286, 499.714 790.147, 499.652 787.347, 499.514 784.506, 499.374 783.714, 505.448 784.630, 505.640 " fill="none" stroke="rgb(0, 0, 0)" stroke-linecap="butt" stroke-linejoin="round" stroke-opacity="1.0" stroke-width="3.0" />
            <path d=" M 783.714, 505.448 789.356, 505.740 " fill="none" stroke="rgb(0, 0, 0)" stroke-linecap="butt" stroke-linejoin="round" stroke-opacity="1.0" stroke-width="3.0" />
            <path d=" M 789.998, 505.855 789.356, 505.740 790.147, 499.652 " fill="none" stroke="rgb(0, 0, 0)" stroke-linecap="butt" stroke-linejoin="round" stroke-opacity="1.0" stroke-width="3.0" />
            <path d=" M 732.898, 536.652 727.124, 535.617 717.315, 533.675 715.688, 533.353 705.910, 531.259 704.264, 530.906 694.514, 528.683 692.845, 528.303 683.120, 525.973 681.424, 525.567 671.720, 523.152 669.995, 522.723 660.307, 520.246 658.552, 519.797 648.875, 517.276 647.089, 516.811 637.418, 514.267 635.599, 513.788 625.929, 511.240 624.077, 510.752 614.403, 508.218 612.516, 507.724 602.834, 505.224 600.912, 504.728 591.217, 502.279 589.259, 501.785 579.547, 499.406 577.552, 498.917 577.104, 488.927 576.931, 485.095 576.353, 475.112 576.140, 471.443 575.427, 461.469 575.177, 457.983 574.324, 448.019 574.042, 444.737 573.042, 434.787 572.734, 431.728 571.579, 421.795 571.252, 418.978 569.934, 409.066 569.595, 406.513 568.104, 396.625 567.762, 394.359 566.086, 384.500 565.753, 382.541 563.880, 372.718 563.569, 371.088 561.481, 361.308 561.207, 360.026 558.887, 350.299 558.670, 349.388 558.328, 348.105 555.955, 339.202 554.874, 335.572 " fill="none" stroke="rgb(0, 0, 0)" stroke-linecap="butt" stroke-linejoin="round" stroke-opacity="1.0" stroke-width="3.0" />
            <path d=" M 537.070, 270.150 536.372, 270.152 535.427, 270.055 533.405, 269.846 527.871, 269.276 526.752, 269.046 524.509, 268.586 519.188, 267.493 515.391, 266.334 513.056, 265.621 510.367, 264.801 " fill="none" stroke="rgb(0, 0, 0)" stroke-linecap="butt" stroke-linejoin="round" stroke-opacity="1.0" stroke-width="3.0" />
            <path d=" M 510.367, 264.801 505.615, 263.706 500.750, 263.573 495.785, 264.436 490.732, 266.324 488.965, 267.339 485.606, 269.270 484.702, 269.972 480.421, 273.301 478.468, 275.221 475.194, 278.440 470.197, 284.401 469.942, 284.706 464.686, 292.113 461.284, 297.670 459.444, 300.674 457.092, 305.065 454.240, 310.388 449.960, 319.425 449.094, 321.252 445.209, 330.466 444.031, 333.258 440.500, 342.614 439.075, 346.389 435.863, 355.859 434.250, 360.615 431.330, 370.180 429.582, 375.904 426.930, 385.546 425.096, 392.214 422.692, 401.921 420.817, 409.494 418.644, 419.255 416.769, 427.681 414.814, 437.489 412.977, 446.709 411.229, 456.556 409.464, 466.502 407.913, 476.381 406.363, 486.260 406.251, 486.974 404.890, 496.881 403.530, 506.788 403.358, 508.033 402.182, 517.964 401.005, 527.894 400.805, 529.582 399.809, 539.533 398.812, 549.483 398.608, 551.519 397.787, 561.485 396.967, 571.452 396.779, 573.735 396.133, 583.714 395.487, 593.693 395.330, 596.120 394.858, 606.108 394.386, 616.097 394.270, 618.560 393.973, 628.556 393.676, 638.551 393.605, 640.943 393.484, 650.942 393.363, 660.941 393.337, 663.154 393.396, 673.153 393.454, 683.153 393.466, 685.081 393.709, 695.078 393.952, 705.075 393.990, 706.615 394.423, 716.606 394.856, 726.597 394.902, 727.655 395.533, 737.635 396.164, 747.615 396.194, 748.100 397.032, 758.065 397.855, 767.855 397.878, 767.747 399.943, 757.963 402.008, 748.178 403.356, 741.794 403.481, 741.200 405.639, 731.435 407.797, 721.671 409.220, 715.229 411.474, 705.486 413.727, 695.744 415.074, 689.922 417.426, 680.203 419.778, 670.483 421.042, 665.258 423.495, 655.564 425.948, 645.869 427.126, 641.216 429.683, 631.549 432.240, 621.881 433.326, 617.777 435.990, 608.138 438.654, 598.500 439.644, 594.920 442.418, 585.312 445.191, 575.704 446.080, 572.626 448.966, 563.051 451.852, 553.476 452.635, 550.875 455.636, 541.336 458.637, 531.797 459.312, 529.650 462.430, 520.149 465.547, 510.647 466.110, 508.932 469.347, 499.470 472.584, 490.009 473.032, 488.702 476.390, 479.283 479.749, 469.864 480.078, 468.942 483.560, 459.568 487.043, 450.194 487.251, 449.635 487.809, 448.192 " fill="none" stroke="rgb(0, 0, 0)" stroke-linecap="butt" stroke-linejoin="round" stroke-opacity="1.0" stroke-width="3.0" />
            <path d=" M 367.693, 759.501 363.786, 768.706 362.990, 770.580 " fill="none" stroke="rgb(0, 0, 0)" stroke-linecap="butt" stroke-linejoin="round" stroke-opacity="1.0" stroke-width="3.0" />
            <path d=" M 488.965, 267.339 478.970, 267.044 474.990, 266.926 " fill="none" stroke="rgb(0, 0, 0)" stroke-linecap="butt" stroke-linejoin="round" stroke-opacity="1.0" stroke-width="3.0" />
            <path d=" M 530.903, 469.223 530.893, 469.253 " fill="none" stroke="rgb(0, 0, 0)" stroke-linecap="butt" stroke-linejoin="round" stroke-opacity="1.0" stroke-width="3.0" />
            <path d=" M 557.849, 508.536 557.772, 505.378 " fill="none" stroke="rgb(0, 0, 0)" stroke-linecap="butt" stroke-linejoin="round" stroke-opacity="1.0" stroke-width="3.0" />
            <path d=" M 558.962, 353.618 558.328, 348.105 " fill="none" stroke="rgb(0, 0, 0)" stroke-linecap="butt" stroke-linejoin="round" stroke-opacity="1.0" stroke-width="3.0" />
        </g>
    </g>
</svg>
