<?xml version='1.0' encoding='ascii'?>
<svg xmlns="http://www.w3.org/2000/svg" height="1080" version="1.1" width="1080">
    <g id="View Layer_LineSet" inkscape:groupmode="lineset" inkscape:label="View Layer_LineSet" xmlns:inkscape="http://www.inkscape.org/namespaces/inkscape">
        <g id="strokes" inkscape:groupmode="layer" inkscape:label="strokes" xmlns:inkscape="http://www.inkscape.org/namespaces/inkscape">
            <path d=" M 563.989, 489.305 563.999, 490.461 563.990, 491.624 563.960, 492.786 563.910, 493.934 563.841, 495.057 563.752, 496.143 563.645, 497.183 563.522, 498.165 563.380, 499.081 563.312, 499.465 563.271, 499.693 563.155, 500.261 563.087, 500.552 563.032, 500.783 562.904, 501.256 562.770, 501.676 562.632, 502.042 562.491, 502.352 561.001, 505.274 559.882, 507.469 559.328, 508.556 " fill="none" stroke="rgb(0, 0, 0)" stroke-linecap="butt" stroke-linejoin="round" stroke-opacity="1.0" stroke-width="3.0" />
            <path d=" M 363.547, 776.068 369.597, 780.807 " fill="none" stroke="rgb(0, 0, 0)" stroke-linecap="butt" stroke-linejoin="round" stroke-opacity="1.0" stroke-width="3.0" />
            <path d=" M 387.285, 781.956 396.712, 778.618 398.775, 777.887 " fill="none" stroke="rgb(0, 0, 0)" stroke-linecap="butt" stroke-linejoin="round" stroke-opacity="1.0" stroke-width="3.0" />
            <path d=" M 398.775, 777.887 393.758, 769.237 388.740, 760.587 388.224, 759.696 " fill="none" stroke="rgb(0, 0, 0)" stroke-linecap="butt" stroke-linejoin="round" stroke-opacity="1.0" stroke-width="3.0" />
            <path d=" M 474.458, 269.175 470.116, 269.730 465.704, 271.327 461.234, 273.997 456.720, 277.773 452.178, 282.681 449.717, 285.953 447.622, 288.740 445.988, 291.335 443.071, 295.969 438.541, 304.382 434.307, 313.441 434.054, 313.983 430.258, 323.234 429.628, 324.770 426.215, 334.169 425.284, 336.735 422.212, 346.251 421.045, 349.865 418.275, 359.473 416.932, 364.131 414.435, 373.814 412.968, 379.501 410.719, 389.245 409.175, 395.934 407.155, 405.728 405.576, 413.378 403.767, 423.213 402.193, 431.771 400.582, 441.640 399.047, 451.041 397.623, 460.939 396.198, 470.837 396.159, 471.112 394.912, 481.034 393.665, 490.956 393.547, 491.895 392.470, 501.837 391.394, 511.779 391.229, 513.294 390.317, 523.252 389.405, 533.210 389.222, 535.206 388.470, 545.178 387.718, 555.150 387.539, 557.525 386.944, 567.507 386.349, 577.490 386.191, 580.136 385.751, 590.126 385.311, 600.116 385.187, 602.922 384.902, 612.918 384.616, 622.914 384.535, 625.764 384.404, 635.764 384.274, 645.763 384.238, 648.543 384.264, 658.543 384.290, 668.543 384.296, 671.140 384.481, 681.138 384.666, 691.136 384.709, 693.436 385.057, 703.430 385.406, 713.424 385.472, 715.318 385.989, 725.305 386.506, 735.291 386.577, 736.677 387.269, 746.653 387.962, 756.629 388.016, 757.411 388.224, 759.696 387.803, 769.688 387.381, 779.679 387.285, 781.956 " fill="none" stroke="rgb(0, 0, 0)" stroke-linecap="butt" stroke-linejoin="round" stroke-opacity="1.0" stroke-width="3.0" />
            <path d=" M 566.976, 520.101 567.947, 520.118 567.978, 520.119 572.335, 511.117 574.634, 506.366 577.665, 501.684 577.200, 491.695 577.013, 487.690 576.415, 477.708 576.185, 473.879 575.449, 463.906 575.180, 460.273 574.299, 450.312 573.997, 446.895 572.964, 436.948 572.634, 433.770 571.443, 423.841 571.092, 420.922 569.732, 411.015 569.370, 408.378 567.829, 398.497 567.466, 396.164 565.733, 386.316 565.380, 384.310 563.440, 374.500 563.112, 372.843 560.947, 363.080 560.662, 361.794 559.077, 355.411 558.030, 351.195 555.350, 341.561 555.216, 341.078 553.844, 336.680 " fill="none" stroke="rgb(0, 0, 0)" stroke-linecap="butt" stroke-linejoin="round" stroke-opacity="1.0" stroke-width="3.0" />
            <path d=" M 550.343, 345.143 552.972, 353.420 553.632, 355.751 555.677, 362.979 556.883, 367.760 558.209, 373.012 560.406, 382.768 560.568, 383.488 562.536, 393.293 562.753, 394.376 562.764, 394.438 564.521, 404.282 564.764, 405.645 566.326, 415.522 566.602, 417.269 567.980, 427.173 568.265, 429.220 569.473, 439.146 569.756, 441.470 570.802, 451.415 571.074, 453.996 571.967, 463.956 572.220, 466.772 572.968, 476.744 573.195, 479.774 573.803, 489.756 573.999, 492.979 574.048, 494.016 574.005, 494.833 573.952, 495.632 573.889, 496.411 573.817, 497.164 573.735, 497.888 573.646, 498.579 573.548, 499.232 573.442, 499.845 573.330, 500.415 573.212, 500.937 573.088, 501.411 572.959, 501.831 572.826, 502.198 572.689, 502.508 568.748, 510.536 568.516, 509.781 568.266, 509.215 568.003, 508.850 567.853, 508.763 567.729, 508.692 565.250, 508.652 564.344, 508.637 563.466, 508.623 563.300, 508.620 559.901, 508.566 559.328, 508.556 558.119, 508.537 557.879, 508.533 557.346, 508.524 557.057, 508.576 556.767, 508.838 556.482, 509.305 556.207, 509.971 556.083, 510.374 555.945, 510.825 555.703, 511.853 555.483, 513.038 555.290, 514.359 555.127, 515.795 554.996, 517.320 554.901, 518.908 554.843, 520.533 554.823, 522.166 554.841, 523.779 554.897, 525.344 556.375, 525.371 558.215, 525.405 558.320, 525.407 560.097, 525.439 563.656, 525.504 564.467, 525.519 565.357, 525.535 565.435, 525.375 566.936, 522.273 566.921, 521.774 566.921, 521.260 566.935, 520.743 566.964, 520.239 566.976, 520.101 567.006, 519.761 567.061, 519.322 567.126, 518.935 567.201, 518.610 567.282, 518.355 567.369, 518.178 567.457, 518.083 567.546, 518.073 " fill="none" stroke="rgb(0, 0, 0)" stroke-linecap="butt" stroke-linejoin="round" stroke-opacity="1.0" stroke-width="3.0" />
            <path d=" M 465.174, 938.264 461.164, 937.900 458.128, 936.863 457.148, 936.528 453.142, 934.119 449.536, 930.973 449.158, 930.644 445.214, 926.080 441.325, 920.411 437.508, 913.621 433.782, 905.702 430.163, 896.652 426.916, 887.194 426.670, 886.477 423.828, 876.889 423.323, 875.186 420.834, 865.501 420.140, 862.798 417.963, 853.038 417.138, 849.342 415.240, 839.524 414.337, 834.853 412.692, 824.989 411.755, 819.371 410.339, 809.472 409.407, 802.950 408.203, 793.022 407.310, 785.650 406.303, 775.701 405.478, 767.538 404.632, 757.574 403.889, 748.826 403.774, 747.036 " fill="none" stroke="rgb(0, 0, 0)" stroke-linecap="butt" stroke-linejoin="round" stroke-opacity="1.0" stroke-width="3.0" />
            <path d=" M 381.880, 362.212 379.768, 371.986 378.665, 377.088 376.782, 386.909 375.535, 393.406 373.861, 403.265 372.591, 410.740 371.109, 420.630 369.850, 429.030 368.547, 438.944 367.330, 448.208 366.196, 458.143 365.048, 468.199 364.074, 478.151 363.100, 488.104 363.021, 488.918 362.199, 498.884 361.378, 508.850 361.260, 510.271 360.586, 520.249 359.912, 530.226 359.781, 532.161 359.249, 542.147 358.718, 552.133 358.593, 554.481 358.201, 564.473 357.809, 574.465 357.705, 577.120 357.451, 587.116 357.196, 597.113 357.124, 599.963 357.006, 609.962 356.888, 619.961 356.853, 622.894 356.872, 632.894 356.891, 642.893 356.896, 645.793 357.053, 655.792 357.209, 665.790 357.252, 668.542 357.548, 678.538 357.843, 688.534 357.917, 691.025 358.356, 701.015 358.795, 711.006 358.888, 713.126 359.474, 723.109 360.060, 733.092 360.156, 734.736 360.895, 744.709 361.634, 754.681 361.713, 755.749 362.612, 765.709 363.511, 775.668 363.547, 776.068 364.672, 786.004 365.733, 795.376 367.068, 805.287 368.214, 813.795 369.775, 823.673 370.972, 831.252 372.778, 841.088 373.989, 847.682 376.064, 857.465 377.245, 863.030 379.619, 872.744 380.721, 877.251 383.429, 886.877 384.395, 890.309 387.279, 899.191 " fill="none" stroke="rgb(0, 0, 0)" stroke-linecap="butt" stroke-linejoin="round" stroke-opacity="1.0" stroke-width="3.0" />
            <path d=" M 524.295, 532.861 524.566, 542.857 524.572, 543.061 524.732, 553.060 524.794, 556.900 524.844, 566.900 524.864, 570.820 524.807, 580.820 524.792, 583.470 " fill="none" stroke="rgb(0, 0, 0)" stroke-linecap="butt" stroke-linejoin="round" stroke-opacity="1.0" stroke-width="3.0" />
            <path d=" M 514.111, 736.962 514.089, 737.136 512.696, 747.039 512.235, 750.324 510.713, 760.207 510.236, 763.306 508.578, 773.168 508.093, 776.058 506.294, 785.895 505.807, 788.555 503.858, 798.364 503.380, 800.772 501.272, 810.547 500.812, 812.680 498.534, 822.417 498.105, 824.251 495.646, 833.944 495.262, 835.458 492.606, 845.099 492.284, 846.268 489.413, 855.848 489.173, 856.650 486.069, 866.156 485.933, 866.572 482.567, 876.001 479.079, 884.901 475.472, 893.236 471.753, 900.970 467.926, 908.067 463.999, 914.486 459.977, 920.189 455.868, 925.139 451.682, 929.296 449.536, 930.973 " fill="none" stroke="rgb(0, 0, 0)" stroke-linecap="butt" stroke-linejoin="round" stroke-opacity="1.0" stroke-width="3.0" />
            <path d=" M 398.376, 773.290 398.775, 777.887 399.808, 787.834 400.774, 797.137 402.018, 807.060 403.076, 815.502 404.546, 825.394 405.663, 832.910 407.379, 842.762 408.517, 849.297 410.503, 859.098 411.619, 864.606 413.901, 874.342 414.945, 878.796 417.559, 888.448 418.475, 891.829 421.464, 901.372 422.186, 903.678 425.602, 913.076 426.055, 914.323 429.962, 923.529 430.060, 923.759 434.178, 931.980 437.099, 936.845 437.385, 937.321 438.388, 938.991 442.669, 944.805 447.002, 949.439 451.367, 952.915 455.746, 955.258 460.123, 956.502 464.481, 956.681 468.807, 955.830 473.088, 953.987 477.311, 951.195 477.976, 950.602 481.465, 947.495 485.540, 942.927 486.945, 941.026 489.527, 937.534 493.419, 931.362 494.484, 929.419 497.208, 924.450 500.889, 916.838 504.454, 908.571 507.901, 899.688 511.226, 890.227 514.271, 880.702 514.424, 880.226 517.228, 870.627 517.492, 869.722 520.078, 860.062 520.429, 858.752 522.816, 849.041 523.233, 847.347 525.437, 837.593 525.901, 835.542 527.937, 825.751 528.433, 823.369 530.313, 813.547 530.828, 810.857 532.561, 801.009 533.084, 798.036 534.680, 788.164 535.202, 784.933 535.315, 784.171 " fill="none" stroke="rgb(0, 0, 0)" stroke-linecap="butt" stroke-linejoin="round" stroke-opacity="1.0" stroke-width="3.0" />
            <path d=" M 532.148, 778.320 530.497, 788.183 530.236, 789.743 528.447, 799.581 528.019, 801.938 526.084, 811.749 525.674, 813.826 523.583, 823.604 523.203, 825.378 522.967, 826.399 520.708, 836.140 520.609, 836.566 518.168, 846.264 517.892, 847.360 515.253, 857.005 515.055, 857.726 512.198, 867.309 512.102, 867.634 509.034, 877.050 505.855, 885.939 502.570, 894.264 499.183, 901.990 495.699, 909.081 492.124, 915.496 488.464, 921.197 484.726, 926.147 480.918, 930.306 477.049, 933.634 473.129, 936.094 469.167, 937.650 465.174, 938.264 " fill="none" stroke="rgb(0, 0, 0)" stroke-linecap="butt" stroke-linejoin="round" stroke-opacity="1.0" stroke-width="3.0" />
            <path d=" M 561.001, 505.274 559.842, 505.182 558.058, 505.039 557.788, 505.017 555.939, 504.869 548.821, 504.299 548.550, 504.277 546.705, 504.129 546.100, 504.081 546.550, 514.071 546.705, 517.516 547.048, 527.510 547.171, 531.094 547.411, 541.091 547.500, 544.794 547.638, 554.793 547.690, 558.595 547.728, 568.595 547.743, 572.479 547.683, 582.479 547.659, 586.425 547.502, 596.424 547.439, 600.415 547.185, 610.412 547.083, 614.430 546.732, 624.424 546.590, 628.449 546.143, 638.439 545.963, 642.454 545.418, 652.440 545.200, 656.426 544.579, 666.062 " fill="none" stroke="rgb(0, 0, 0)" stroke-linecap="butt" stroke-linejoin="round" stroke-opacity="1.0" stroke-width="3.0" />
            <path d=" M 547.159, 672.908 547.758, 662.926 548.025, 658.477 548.528, 648.490 548.759, 643.889 549.168, 633.898 549.357, 629.270 549.672, 619.275 549.818, 614.637 550.040, 604.640 550.142, 600.012 550.271, 590.012 550.331, 585.412 550.366, 575.412 550.382, 570.856 550.325, 560.856 550.299, 556.365 550.146, 546.366 550.078, 541.956 549.830, 531.959 549.723, 527.651 549.376, 517.656 549.231, 513.467 548.821, 504.299 " fill="none" stroke="rgb(0, 0, 0)" stroke-linecap="butt" stroke-linejoin="round" stroke-opacity="1.0" stroke-width="3.0" />
            <path d=" M 387.285, 781.956 388.348, 791.899 389.423, 801.957 390.695, 811.876 391.867, 821.023 393.362, 830.911 394.597, 839.080 396.336, 848.927 397.595, 856.058 399.602, 865.855 400.841, 871.902 403.144, 881.634 404.311, 886.567 406.947, 896.214 407.985, 900.017 410.998, 909.552 411.841, 912.222 415.285, 921.610 415.856, 923.166 419.798, 932.356 420.007, 932.843 424.272, 941.251 428.632, 948.395 433.065, 954.291 437.551, 958.961 442.071, 962.428 446.609, 964.721 451.146, 965.877 455.669, 965.932 460.161, 964.925 464.610, 962.898 469.004, 959.896 473.331, 955.961 " fill="none" stroke="rgb(0, 0, 0)" stroke-linecap="butt" stroke-linejoin="round" stroke-opacity="1.0" stroke-width="3.0" />
            <path d=" M 473.331, 955.961 480.259, 948.750 481.465, 947.495 " fill="none" stroke="rgb(0, 0, 0)" stroke-linecap="butt" stroke-linejoin="round" stroke-opacity="1.0" stroke-width="3.0" />
            <path d=" M 538.750, 479.969 539.441, 489.945 540.131, 499.921 540.388, 503.623 540.804, 513.615 540.947, 517.064 541.208, 527.060 541.228, 527.806 535.348, 530.734 532.057, 532.373 531.778, 532.513 531.497, 532.652 531.216, 532.792 530.936, 532.933 530.603, 532.983 527.066, 532.915 524.295, 532.861 520.692, 532.792 " fill="none" stroke="rgb(0, 0, 0)" stroke-linecap="butt" stroke-linejoin="round" stroke-opacity="1.0" stroke-width="3.0" />
            <path d=" M 520.686, 499.667 521.415, 497.315 524.373, 487.763 527.204, 478.626 537.137, 479.781 538.750, 479.969 535.892, 489.551 533.034, 499.134 530.803, 506.613 530.679, 507.024 530.434, 507.845 530.189, 508.667 529.944, 509.491 529.700, 510.316 529.421, 511.393 529.367, 511.660 529.169, 512.647 528.950, 514.054 528.769, 515.586 528.629, 517.214 528.618, 517.395 528.532, 518.907 528.482, 520.631 528.478, 522.354 528.510, 523.612 528.521, 524.042 528.610, 525.661 528.744, 527.182 528.918, 528.574 529.131, 529.811 529.378, 530.869 529.654, 531.730 529.955, 532.376 530.274, 532.796 530.603, 532.983 " fill="none" stroke="rgb(0, 0, 0)" stroke-linecap="butt" stroke-linejoin="round" stroke-opacity="1.0" stroke-width="3.0" />
            <path d=" M 530.900, 523.656 530.774, 523.613 530.654, 523.436 530.547, 523.132 530.456, 522.715 530.386, 522.203 530.340, 521.618 530.320, 520.986 530.327, 520.334 530.359, 519.692 530.417, 519.088 530.497, 518.547 530.596, 518.094 530.710, 517.748 530.832, 517.527 530.959, 517.436 " fill="none" stroke="rgb(0, 0, 0)" stroke-linecap="butt" stroke-linejoin="round" stroke-opacity="1.0" stroke-width="3.0" />
            <path d=" M 530.959, 517.436 531.085, 517.481 531.204, 517.660 531.311, 517.965 531.401, 518.381 531.471, 518.893 531.516, 519.476 531.536, 520.106 531.530, 520.755 531.497, 521.395 531.440, 521.997 531.360, 522.537 531.262, 522.990 531.149, 523.336 531.026, 523.562 530.900, 523.656 " fill="none" stroke="rgb(0, 0, 0)" stroke-linecap="butt" stroke-linejoin="round" stroke-opacity="1.0" stroke-width="3.0" />
            <path d=" M 552.813, 686.201 553.602, 676.232 553.691, 675.107 554.397, 665.132 554.641, 661.690 555.265, 651.709 555.483, 648.221 556.027, 638.236 556.219, 634.713 556.683, 624.724 556.847, 621.178 557.232, 611.185 557.369, 607.626 557.674, 597.630 557.783, 594.069 558.009, 584.071 558.089, 580.517 558.236, 570.518 558.288, 566.983 558.356, 556.983 558.379, 553.477 558.366, 543.477 558.362, 540.010 558.358, 539.572 558.264, 529.572 558.236, 526.594 558.215, 525.405 " fill="none" stroke="rgb(0, 0, 0)" stroke-linecap="butt" stroke-linejoin="round" stroke-opacity="1.0" stroke-width="3.0" />
            <path d=" M 454.202, 983.442 456.637, 983.632 460.750, 983.701 464.835, 982.938 468.884, 981.370 472.888, 979.030 476.841, 975.947 480.736, 972.153 484.567, 967.680 488.327, 962.559 492.013, 956.820 495.619, 950.494 499.142, 943.611 502.577, 936.200 505.923, 928.290 509.175, 919.909 512.332, 911.083 515.391, 901.838 518.351, 892.200 520.635, 884.209 521.210, 882.194 523.784, 872.531 523.967, 871.842 526.379, 862.137 526.620, 861.167 528.882, 851.426 529.169, 850.190 531.291, 840.418 531.613, 838.933 533.603, 829.133 533.952, 827.415 535.817, 817.591 536.184, 815.656 537.931, 805.810 538.311, 803.674 539.945, 793.808 540.128, 792.707 " fill="none" stroke="rgb(0, 0, 0)" stroke-linecap="butt" stroke-linejoin="round" stroke-opacity="1.0" stroke-width="3.0" />
            <path d=" M 527.002, 271.098 524.281, 262.900 521.419, 255.082 518.444, 247.747 515.357, 240.924 512.160, 234.638 508.854, 228.917 505.443, 223.792 501.930, 219.291 498.318, 215.443 494.610, 212.277 490.812, 209.825 486.929, 208.116 482.967, 207.178 478.931, 207.041 478.265, 207.154 474.829, 207.734 470.669, 209.283 466.458, 211.714 462.208, 215.051 457.927, 219.317 453.626, 224.531 449.316, 230.711 445.011, 237.871 440.723, 246.021 436.465, 255.168 432.631, 264.404 432.253, 265.315 431.294, 267.889 428.100, 276.460 424.915, 285.939 424.023, 288.595 421.114, 298.163 420.036, 301.709 417.379, 311.349 416.157, 315.783 414.182, 323.677 412.401, 330.794 410.186, 340.545 408.785, 346.712 406.767, 356.506 405.326, 363.501 403.491, 373.331 402.038, 381.119 400.377, 390.980 398.939, 399.518 397.442, 409.406 396.043, 418.645 394.702, 428.554 393.365, 438.438 392.174, 448.367 390.983, 458.295 390.918, 458.833 389.872, 468.778 388.825, 478.723 388.716, 479.758 387.809, 489.717 386.903, 499.676 386.770, 501.139 386.000, 511.109 385.230, 521.080 385.089, 522.896 384.454, 532.876 383.818, 542.856 383.684, 544.947 383.181, 554.934 382.677, 564.922 382.562, 567.205 382.189, 577.198 381.816, 587.191 381.727, 589.584 381.485, 599.581 381.243, 609.578 381.185, 611.993 381.074, 621.992 380.963, 631.992 380.937, 634.344 380.959, 644.344 380.980, 654.344 380.985, 656.548 381.140, 666.547 381.296, 676.546 381.326, 678.518 381.618, 688.514 381.911, 698.509 381.959, 700.167 382.391, 710.157 382.824, 720.148 382.878, 721.412 383.455, 731.396 384.032, 741.379 384.078, 742.175 384.804, 752.149 385.531, 762.122 385.550, 762.380 386.433, 772.341 387.285, 781.956 388.333, 791.901 389.274, 800.838 390.495, 810.763 391.504, 818.967 392.909, 828.867 393.963, 836.287 395.566, 846.158 396.637, 852.752 398.453, 862.586 399.512, 868.320 401.560, 878.108 402.575, 882.955 404.876, 892.687 405.808, 896.629 408.389, 906.290 409.198, 909.318 412.089, 918.891 412.728, 921.006 415.968, 930.466 416.384, 931.681 420.017, 940.997 420.149, 941.337 424.009, 949.973 427.949, 957.594 431.955, 964.207 436.013, 969.825 440.109, 974.463 444.232, 978.140 448.368, 980.878 452.507, 982.699 455.929, 983.472 456.637, 983.632 " fill="none" stroke="rgb(0, 0, 0)" stroke-linecap="butt" stroke-linejoin="round" stroke-opacity="1.0" stroke-width="3.0" />
            <path d=" M 476.532, 207.096 472.404, 207.789 468.217, 209.338 463.981, 211.769 459.703, 215.106 455.395, 219.371 451.067, 224.584 446.732, 230.762 442.400, 237.920 438.085, 246.068 433.802, 255.212 429.947, 264.439 429.564, 265.356 428.465, 268.287 425.387, 276.497 422.184, 285.970 421.285, 288.629 418.360, 298.191 417.275, 301.738 414.603, 311.374 413.373, 315.807 410.932, 325.505 409.596, 330.813 407.368, 340.561 406.019, 346.463 405.960, 346.725 403.930, 356.517 402.480, 363.508 400.636, 373.336 399.175, 381.119 397.504, 390.979 396.058, 399.512 394.553, 409.398 393.147, 418.631 391.798, 428.540 390.454, 438.417 389.257, 448.345 388.059, 458.273 387.995, 458.803 386.943, 468.748 385.891, 478.692 385.782, 479.721 384.871, 489.679 383.960, 499.637 383.826, 501.093 383.053, 511.063 382.279, 521.033 382.139, 522.842 381.500, 532.822 380.861, 542.801 380.728, 544.884 380.222, 554.871 379.716, 564.859 379.601, 567.134 379.227, 577.127 378.853, 587.120 378.764, 589.503 378.522, 599.500 378.280, 609.497 378.222, 611.904 378.111, 621.903 378.001, 631.903 377.975, 634.247 377.998, 644.247 378.021, 654.247 378.026, 656.442 378.184, 666.441 378.342, 676.440 378.373, 678.403 378.668, 688.399 378.964, 698.395 379.012, 700.044 379.449, 710.035 379.885, 720.025 379.940, 721.282 380.522, 731.265 381.104, 741.248 381.150, 742.037 381.883, 752.010 382.615, 761.984 382.634, 762.235 383.524, 772.195 384.383, 781.804 385.438, 791.749 386.386, 800.680 387.617, 810.604 388.633, 818.803 390.049, 828.702 391.109, 836.118 392.724, 845.987 393.803, 852.578 395.632, 862.409 396.698, 868.141 398.761, 877.926 399.782, 882.773 402.099, 892.500 403.038, 896.443 405.635, 906.100 406.450, 909.129 409.360, 918.697 410.005, 920.815 413.264, 930.268 413.685, 931.488 417.339, 940.796 417.475, 941.142 421.361, 949.778 425.327, 957.398 429.359, 964.011 433.444, 969.629 437.567, 974.268 441.716, 977.946 445.879, 980.684 450.044, 982.508 454.202, 983.442 " fill="none" stroke="rgb(0, 0, 0)" stroke-linecap="butt" stroke-linejoin="round" stroke-opacity="1.0" stroke-width="3.0" />
            <path d=" M 478.931, 207.041 476.532, 207.096 " fill="none" stroke="rgb(0, 0, 0)" stroke-linecap="butt" stroke-linejoin="round" stroke-opacity="1.0" stroke-width="3.0" />
            <path d=" M 558.402, 697.685 559.259, 687.721 559.456, 685.422 560.231, 675.452 560.556, 671.263 561.250, 661.287 561.545, 657.041 562.160, 647.060 562.424, 642.767 562.959, 632.781 563.191, 628.452 563.649, 618.463 563.848, 614.108 564.228, 604.115 564.394, 599.745 564.697, 589.750 564.829, 585.375 565.055, 575.377 565.154, 571.008 565.302, 561.009 565.367, 556.655 565.437, 546.655 565.468, 542.326 565.461, 532.326 565.458, 528.033 565.435, 525.375 " fill="none" stroke="rgb(0, 0, 0)" stroke-linecap="butt" stroke-linejoin="round" stroke-opacity="1.0" stroke-width="3.0" />
            <path d=" M 455.532, 1003.775 457.940, 1003.969 462.373, 1003.795 466.769, 1002.723 471.117, 1000.789 475.411, 998.027 479.642, 994.474 483.803, 990.166 487.888, 985.139 491.893, 979.428 495.811, 973.067 499.639, 966.092 503.373, 958.534 507.009, 950.427 510.545, 941.802 511.439, 939.429 513.977, 932.689 517.261, 923.244 517.305, 923.118 520.370, 913.599 520.526, 913.116 523.392, 903.536 523.638, 902.712 526.321, 893.078 526.641, 891.930 529.155, 882.251 529.533, 880.796 531.891, 871.078 532.314, 869.333 534.526, 859.581 534.984, 857.565 537.059, 847.783 537.541, 845.513 539.487, 835.704 539.985, 833.198 541.811, 823.366 542.317, 820.639 544.027, 810.786 544.536, 807.855 545.572, 801.465 " fill="none" stroke="rgb(0, 0, 0)" stroke-linecap="butt" stroke-linejoin="round" stroke-opacity="1.0" stroke-width="3.0" />
            <path d=" M 539.670, 263.923 538.369, 258.504 535.835, 248.831 535.741, 248.471 532.987, 238.849 530.109, 229.667 527.106, 220.949 523.980, 212.726 520.730, 205.027 517.359, 197.881 513.869, 191.320 510.262, 185.376 506.540, 180.083 502.706, 175.473 498.765, 171.580 494.720, 168.440 490.577, 166.087 486.341, 164.555 482.019, 163.879 479.888, 163.983 477.618, 164.093 473.146, 165.229 468.612, 167.320 464.025, 170.396 459.396, 174.484 454.737, 179.612 450.059, 185.802 445.377, 193.075 440.705, 201.446 436.304, 210.425 436.057, 210.927 432.071, 220.099 431.450, 221.527 427.831, 230.849 426.900, 233.246 423.608, 242.689 422.425, 246.082 419.426, 255.622 418.042, 260.025 417.088, 263.383 414.354, 273.002 413.770, 275.059 412.265, 280.907 409.773, 290.592 409.737, 290.732 409.627, 291.159 407.357, 300.898 405.633, 308.298 403.568, 318.083 401.805, 326.437 399.932, 336.260 398.164, 345.531 396.470, 355.386 394.776, 365.242 394.726, 365.528 393.202, 375.411 391.677, 385.294 391.511, 386.369 390.147, 396.275 388.783, 406.182 388.535, 407.986 387.325, 417.912 386.114, 427.839 385.935, 429.308 385.814, 430.307 384.752, 440.250 383.689, 450.193 383.363, 453.251 382.444, 463.208 381.525, 473.166 381.196, 476.732 380.416, 486.702 379.637, 496.671 379.325, 500.661 378.682, 510.640 378.039, 520.619 377.761, 524.940 377.252, 534.927 376.744, 544.914 376.512, 549.473 376.137, 559.466 375.761, 569.459 375.585, 574.157 375.342, 584.154 375.100, 594.151 374.985, 598.888 374.876, 608.888 374.766, 618.887 374.715, 623.565 374.739, 633.565 374.764, 643.565 374.775, 648.083 374.935, 658.082 375.096, 668.081 375.164, 672.341 375.463, 682.336 375.761, 692.332 375.878, 696.239 376.319, 706.229 376.760, 716.220 376.912, 719.682 377.499, 729.664 378.086, 739.647 378.259, 742.577 378.997, 752.550 379.736, 762.522 379.908, 764.839 380.805, 774.798 381.703, 784.758 381.850, 786.386 382.914, 796.329 383.978, 806.272 384.071, 807.144 385.311, 817.066 386.558, 827.045 387.986, 836.942 389.297, 846.028 390.926, 855.895 392.271, 864.042 394.117, 873.870 395.464, 881.039 397.546, 890.820 398.858, 896.982 401.199, 906.704 402.436, 911.840 405.064, 921.489 406.181, 925.590 409.127, 935.146 410.073, 938.216 413.378, 947.654 413.701, 948.576 413.748, 948.711 414.097, 949.707 417.808, 958.993 418.234, 960.061 420.802, 965.652 422.467, 969.279 424.229, 972.583 426.780, 977.369 431.156, 984.344 435.581, 990.221 440.039, 995.021 444.517, 998.767 449.001, 1001.487 453.479, 1003.211 456.565, 1003.735 457.940, 1003.969 " fill="none" stroke="rgb(0, 0, 0)" stroke-linecap="butt" stroke-linejoin="round" stroke-opacity="1.0" stroke-width="3.0" />
            <path d=" M 479.651, 163.946 475.222, 164.161 470.722, 165.297 466.159, 167.388 461.543, 170.464 456.886, 174.552 452.197, 179.679 447.491, 185.868 442.781, 193.138 438.080, 201.508 433.656, 210.476 433.404, 210.987 429.397, 220.148 428.770, 221.583 425.131, 230.898 424.193, 233.299 420.882, 242.735 419.691, 246.131 416.675, 255.665 415.283, 260.069 412.533, 269.684 410.986, 275.097 408.480, 284.778 407.655, 287.962 406.819, 291.193 406.668, 291.836 404.385, 301.572 402.802, 308.325 400.725, 318.107 398.953, 326.458 397.069, 336.278 396.772, 337.827 395.291, 345.544 393.588, 355.398 391.884, 365.252 391.835, 365.534 390.302, 375.416 388.768, 385.298 388.603, 386.367 387.231, 396.273 385.860, 406.178 385.611, 407.976 384.394, 417.902 383.177, 427.828 382.876, 430.288 381.808, 440.231 380.740, 450.174 380.413, 453.223 379.489, 463.180 378.565, 473.138 378.235, 476.696 377.755, 482.811 376.971, 492.780 376.356, 500.615 375.710, 510.594 375.064, 520.573 374.785, 524.885 374.275, 534.872 373.764, 544.859 373.532, 549.408 373.155, 559.400 372.779, 569.393 372.603, 574.082 372.360, 584.079 372.117, 594.076 372.002, 598.804 371.893, 608.803 371.785, 618.803 371.734, 623.471 371.760, 633.471 371.786, 643.471 371.797, 647.980 371.960, 657.978 372.123, 667.977 372.192, 672.228 372.494, 682.223 372.796, 692.219 372.914, 696.117 373.359, 706.107 373.804, 716.097 373.957, 719.551 374.550, 729.534 375.142, 739.516 375.315, 742.438 376.060, 752.410 376.805, 762.383 376.978, 764.692 377.882, 774.651 378.787, 784.610 378.934, 786.232 380.007, 796.174 381.079, 806.116 381.172, 806.983 382.422, 816.904 383.678, 826.877 385.116, 836.773 386.436, 845.855 388.077, 855.719 389.431, 863.863 391.290, 873.689 392.646, 880.855 394.742, 890.633 396.063, 896.794 398.420, 906.512 399.666, 911.649 402.311, 921.293 403.436, 925.396 406.401, 934.946 407.355, 938.019 407.738, 939.105 409.010, 942.715 411.405, 949.508 412.458, 952.126 415.569, 959.860 418.045, 965.215 419.830, 969.077 424.171, 977.167 428.576, 984.142 433.030, 990.020 437.516, 994.820 442.023, 998.568 446.536, 1001.289 451.043, 1003.015 455.532, 1003.775 " fill="none" stroke="rgb(0, 0, 0)" stroke-linecap="butt" stroke-linejoin="round" stroke-opacity="1.0" stroke-width="3.0" />
            <path d=" M 482.019, 163.879 479.651, 163.946 " fill="none" stroke="rgb(0, 0, 0)" stroke-linecap="butt" stroke-linejoin="round" stroke-opacity="1.0" stroke-width="3.0" />
            <path d=" M 543.376, 256.417 542.821, 253.848 540.530, 244.114 540.249, 242.917 537.766, 233.231 537.546, 232.374 534.853, 222.743 534.713, 222.243 531.787, 212.681 531.748, 212.553 528.653, 203.332 525.428, 194.609 522.074, 186.416 518.591, 178.784 514.982, 171.746 511.248, 165.336 507.392, 159.590 503.416, 154.543 499.326, 150.231 495.123, 146.693 490.815, 143.964 486.405, 142.084 481.901, 141.089 477.310, 141.017 472.542, 141.166 467.813, 142.054 463.014, 143.936 458.153, 146.846 453.244, 150.816 448.297, 155.875 443.326, 162.050 438.346, 169.366 433.370, 177.842 428.803, 186.738 428.416, 187.492 424.285, 196.599 423.501, 198.328 419.755, 207.599 418.642, 210.353 415.239, 219.756 413.859, 223.568 410.762, 233.076 409.170, 237.964 406.350, 247.558 404.596, 253.525 402.028, 263.190 400.158, 270.231 397.821, 279.954 395.875, 288.050 393.751, 297.822 391.768, 306.945 389.843, 316.758 387.918, 326.571 387.859, 326.870 386.120, 336.717 384.380, 346.565 384.167, 347.769 382.603, 357.646 381.880, 362.212 380.713, 369.581 379.315, 379.483 377.917, 389.385 377.514, 392.235 376.275, 402.158 375.036, 412.081 374.590, 415.652 373.503, 425.593 372.416, 435.534 371.956, 439.747 371.016, 449.703 370.077, 459.659 369.627, 464.429 368.832, 474.397 368.036, 484.365 367.619, 489.599 366.963, 499.578 366.308, 509.556 365.941, 515.155 365.424, 525.142 364.907, 535.128 364.604, 540.990 364.224, 550.983 364.140, 553.191 363.760, 563.184 363.615, 566.995 363.372, 576.992 363.128, 586.989 362.980, 593.057 362.873, 603.057 362.766, 613.056 362.702, 619.065 362.733, 629.065 362.763, 639.065 362.781, 644.908 362.951, 654.906 363.121, 664.905 363.215, 670.473 363.527, 680.469 363.839, 690.464 364.001, 695.656 364.459, 705.645 364.916, 715.635 365.132, 720.350 365.740, 730.332 366.348, 740.313 366.511, 742.991 366.600, 744.458 367.364, 754.429 368.128, 764.400 368.185, 765.143 368.395, 767.887 369.321, 777.844 369.597, 780.807 370.503, 790.548 371.601, 800.488 372.698, 810.427 372.912, 812.363 374.190, 822.281 375.469, 832.199 375.605, 833.260 377.077, 843.151 378.567, 853.174 380.245, 863.032 381.780, 872.048 383.681, 881.866 385.225, 889.836 387.279, 899.191 388.883, 906.498 391.294, 916.203 392.735, 922.002 395.441, 931.629 396.761, 936.325 399.796, 945.854 400.942, 949.452 404.347, 958.855 405.259, 961.374 409.082, 970.614 409.692, 972.089 413.992, 981.118 414.222, 981.602 418.833, 989.923 423.505, 997.067 428.224, 1003.055 432.973, 1007.911 437.737, 1011.661 442.503, 1014.337 447.257, 1015.971 451.987, 1016.599 456.779, 1016.993 461.416, 1016.645 466.009, 1015.364 470.548, 1013.188 475.025, 1010.156 479.432, 1006.307 483.762, 1001.679 488.010, 996.311 492.169, 990.241 496.235, 983.505 500.204, 976.140 504.072, 968.181 507.835, 959.662 511.492, 950.617 514.977, 941.244 515.040, 941.076 518.288, 931.618 518.476, 931.071 521.509, 921.542 521.799, 920.631 524.637, 911.042 525.009, 909.783 527.666, 900.143 528.104, 898.556 530.595, 888.871 531.083, 886.974 533.419, 877.251 533.945, 875.062 536.138, 865.306 536.691, 862.844 538.749, 853.058 539.320, 850.341 541.251, 840.529 541.832, 837.575 543.643, 827.740 544.228, 824.566 545.924, 814.711 546.506, 811.332 547.603, 804.514 " fill="none" stroke="rgb(0, 0, 0)" stroke-linecap="butt" stroke-linejoin="round" stroke-opacity="1.0" stroke-width="3.0" />
            <path d=" M 560.377, 701.408 560.564, 699.411 561.416, 689.447 561.805, 684.885 562.575, 674.915 562.932, 670.284 563.622, 660.308 563.946, 655.620 564.557, 645.638 564.846, 640.903 565.379, 630.918 565.633, 626.146 566.088, 616.156 566.307, 611.359 566.685, 601.366 566.867, 596.552 567.169, 586.557 567.315, 581.738 567.540, 571.740 567.649, 566.925 567.797, 556.926 567.869, 552.124 567.941, 542.125 567.975, 537.347 567.970, 527.347 567.968, 522.603 567.947, 520.118 " fill="none" stroke="rgb(0, 0, 0)" stroke-linecap="butt" stroke-linejoin="round" stroke-opacity="1.0" stroke-width="3.0" />
            <path d=" M 477.310, 141.017 472.639, 141.904 467.899, 143.785 463.099, 146.695 458.249, 150.665 453.362, 155.726 448.452, 161.904 443.531, 169.223 438.615, 177.702 434.093, 186.621 433.719, 187.358 429.631, 196.483 428.862, 198.199 425.155, 207.487 424.060, 210.232 420.693, 219.648 419.332, 223.455 416.250, 233.032 414.697, 237.859 411.908, 247.463 410.175, 253.431 407.636, 263.104 405.786, 270.148 403.475, 279.878 401.551, 287.980 399.451, 297.757 397.490, 306.889 397.444, 307.125 396.516, 311.909 394.613, 321.726 393.623, 326.828 391.903, 336.679 390.183, 346.530 389.971, 347.743 388.424, 357.623 386.877, 367.502 386.553, 369.571 385.170, 379.475 385.074, 380.161 383.691, 390.065 383.387, 392.242 382.161, 402.167 380.935, 412.092 380.492, 415.678 379.417, 425.620 378.341, 435.562 377.884, 439.792 376.954, 449.749 376.025, 459.705 375.578, 464.493 375.249, 468.646 374.461, 478.615 373.673, 488.584 373.587, 489.683 372.937, 499.662 372.288, 509.641 371.923, 515.259 371.410, 525.246 370.897, 535.233 370.595, 541.115 370.218, 551.108 369.840, 561.100 369.612, 567.140 369.484, 572.377 369.241, 582.374 368.998, 592.371 368.978, 593.223 368.870, 603.222 368.761, 613.222 368.696, 619.252 368.724, 629.252 368.751, 639.251 368.767, 645.114 368.932, 655.112 369.097, 665.111 369.190, 670.699 369.495, 680.695 369.800, 690.690 369.959, 695.900 370.409, 705.890 370.858, 715.880 371.070, 720.613 371.668, 730.596 372.265, 740.578 372.514, 744.739 373.265, 754.711 374.017, 764.683 374.281, 768.184 375.193, 778.142 376.105, 788.101 376.357, 790.862 377.438, 800.803 378.519, 810.744 378.731, 812.691 379.991, 822.612 381.251, 832.532 381.386, 833.602 382.837, 843.496 384.307, 853.528 385.962, 863.390 387.476, 872.413 389.351, 882.236 390.874, 890.211 392.372, 897.134 394.483, 906.882 395.710, 911.890 398.090, 921.602 398.284, 922.393 400.371, 929.923 401.227, 933.008 402.257, 936.723 405.255, 946.263 406.383, 949.855 406.757, 950.900 410.121, 960.317 410.643, 961.781 414.423, 971.039 415.019, 972.499 418.477, 979.857 419.491, 982.014 424.043, 990.335 428.656, 997.480 433.314, 1003.466 438.003, 1008.320 442.708, 1012.067 447.413, 1014.740 452.108, 1016.370 456.779, 1016.993 " fill="none" stroke="rgb(0, 0, 0)" stroke-linecap="butt" stroke-linejoin="round" stroke-opacity="1.0" stroke-width="3.0" />
            <path d=" M 559.077, 355.411 558.764, 352.466 558.470, 349.960 " fill="none" stroke="rgb(0, 0, 0)" stroke-linecap="butt" stroke-linejoin="round" stroke-opacity="1.0" stroke-width="3.0" />
            <path d=" M 482.951, 507.323 482.463, 507.315 482.098, 507.365 481.734, 507.623 481.376, 508.085 481.032, 508.743 480.707, 509.588 480.406, 510.605 480.135, 511.777 479.898, 513.085 479.700, 514.506 479.544, 516.016 479.433, 517.589 479.368, 519.198 479.352, 520.815 479.383, 522.413 479.462, 523.963 482.414, 524.017 " fill="none" stroke="rgb(0, 0, 0)" stroke-linecap="butt" stroke-linejoin="round" stroke-opacity="1.0" stroke-width="3.0" />
            <path d=" M 565.357, 525.535 565.305, 523.968 565.289, 522.353 565.310, 520.718 565.332, 520.072 565.367, 519.091 565.379, 518.883 565.428, 518.037 565.460, 517.500 565.586, 515.973 565.745, 514.536 565.932, 513.213 566.144, 512.026 566.379, 510.997 566.525, 510.500 566.631, 510.142 566.897, 509.474 567.172, 509.006 567.451, 508.744 567.729, 508.692 " fill="none" stroke="rgb(0, 0, 0)" stroke-linecap="butt" stroke-linejoin="round" stroke-opacity="1.0" stroke-width="3.0" />
            <path d=" M 567.978, 520.119 567.950, 519.651 567.943, 519.582 567.907, 519.225 567.853, 518.852 567.787, 518.544 567.713, 518.307 567.632, 518.149 567.546, 518.073 " fill="none" stroke="rgb(0, 0, 0)" stroke-linecap="butt" stroke-linejoin="round" stroke-opacity="1.0" stroke-width="3.0" />
            <path d=" M 528.957, 466.546 529.251, 471.979 529.762, 471.985 534.853, 472.043 535.056, 471.701 534.626, 466.507 529.272, 466.145 529.205, 466.140 528.957, 466.546 " fill="none" stroke="rgb(0, 0, 0)" stroke-linecap="butt" stroke-linejoin="round" stroke-opacity="1.0" stroke-width="3.0" />
            <path d=" M 534.565, 466.607 528.957, 466.546 " fill="none" stroke="rgb(0, 0, 0)" stroke-linecap="butt" stroke-linejoin="round" stroke-opacity="1.0" stroke-width="3.0" />
            <path d=" M 534.853, 472.043 534.565, 466.607 534.626, 466.507 " fill="none" stroke="rgb(0, 0, 0)" stroke-linecap="butt" stroke-linejoin="round" stroke-opacity="1.0" stroke-width="3.0" />
            <path d=" M 530.774, 469.142 530.764, 469.352 530.800, 469.573 530.822, 469.639 530.900, 469.838 531.016, 470.012 531.164, 470.158 531.209, 470.202 531.375, 470.306 531.432, 470.336 531.600, 470.393 531.653, 470.410 531.718, 470.424 531.793, 470.433 531.878, 470.437 531.961, 470.435 532.044, 470.429 532.124, 470.417 532.198, 470.402 532.263, 470.382 532.317, 470.359 532.474, 470.287 532.533, 470.250 532.685, 470.131 532.791, 470.017 " fill="none" stroke="rgb(0, 0, 0)" stroke-linecap="butt" stroke-linejoin="round" stroke-opacity="1.0" stroke-width="3.0" />
            <path d=" M 530.862, 468.833 530.827, 468.937 530.826, 468.942 530.808, 469.009 530.774, 469.142 530.814, 468.977 " fill="none" stroke="rgb(0, 0, 0)" stroke-linecap="butt" stroke-linejoin="round" stroke-opacity="1.0" stroke-width="3.0" />
            <path d=" M 532.791, 470.017 532.880, 469.894 532.950, 469.758 532.998, 469.614 533.024, 469.463 533.027, 469.308 533.007, 469.153 532.965, 469.001 532.901, 468.855 532.818, 468.718 532.715, 468.593 532.596, 468.482 532.463, 468.388 532.318, 468.312 532.166, 468.256 532.008, 468.221 531.847, 468.208 531.688, 468.218 531.534, 468.249 531.387, 468.301 531.250, 468.374 531.127, 468.466 531.020, 468.574 530.931, 468.697 530.862, 468.833 " fill="none" stroke="rgb(0, 0, 0)" stroke-linecap="butt" stroke-linejoin="round" stroke-opacity="1.0" stroke-width="3.0" />
            <path d=" M 634.512, 851.329 636.679, 851.786 644.565, 852.955 652.434, 853.392 660.268, 853.116 668.053, 852.144 675.773, 850.496 683.414, 848.192 690.964, 845.254 698.410, 841.701 705.741, 837.556 712.946, 832.841 720.015, 827.577 726.940, 821.786 733.712, 815.489 740.323, 808.708 746.766, 801.465 753.035, 793.780 759.041, 785.785 759.123, 785.675 764.824, 777.459 765.025, 777.169 770.432, 768.757 770.737, 768.283 775.860, 759.695 776.253, 759.036 781.102, 750.290 781.570, 749.448 786.154, 740.561 786.683, 739.537 791.012, 730.522 791.589, 729.321 795.671, 720.193 796.285, 718.820 800.128, 709.588 800.769, 708.050 804.380, 698.725 805.037, 697.028 808.422, 687.619 809.087, 685.772 812.253, 676.286 812.917, 674.297 815.870, 664.743 816.526, 662.620 819.269, 653.004 819.910, 650.757 822.449, 641.084 823.069, 638.722 825.407, 628.999 826.001, 626.531 828.142, 616.763 828.704, 614.200 830.651, 604.391 831.177, 601.741 832.933, 591.896 833.420, 589.170 834.986, 579.294 835.429, 576.501 836.809, 566.597 837.205, 563.748 838.399, 553.820 838.747, 550.925 839.755, 540.976 840.052, 538.046 840.876, 528.080 841.120, 525.124 841.760, 515.144 841.951, 512.173 842.407, 502.183 842.543, 499.207 842.814, 489.211 842.894, 486.240 842.980, 476.240 843.005, 473.285 842.904, 463.286 842.874, 460.357 842.584, 450.361 842.500, 447.469 842.020, 437.481 841.883, 434.636 841.209, 424.659 841.021, 421.873 840.151, 411.911 839.914, 409.193 838.845, 399.251 838.561, 396.613 837.289, 386.694 836.962, 384.146 835.481, 374.256 835.115, 371.809 833.422, 361.954 833.021, 359.618 831.109, 349.802 830.678, 347.588 828.543, 337.819 828.088, 335.737 825.721, 326.021 825.249, 324.082 822.643, 314.427 822.161, 312.639 819.309, 303.055 818.825, 301.428 815.718, 291.923 815.242, 290.466 811.870, 281.052 811.411, 279.773 807.764, 270.462 807.335, 269.368 803.401, 260.174 803.014, 259.271 798.781, 250.211 798.450, 249.501 793.905, 240.594 793.644, 240.082 788.775, 231.347 788.600, 231.032 783.393, 222.495 783.320, 222.376 777.808, 214.134 772.067, 206.329 766.101, 198.985 759.917, 192.125 753.520, 185.773 746.916, 179.951 740.112, 174.685 733.117, 169.998 725.940, 165.914 718.590, 162.456 711.078, 159.647 703.416, 157.511 695.616, 156.069 687.693, 155.343 679.661, 155.352 671.537, 156.116 669.296, 156.340 " fill="none" stroke="rgb(0, 0, 0)" stroke-linecap="butt" stroke-linejoin="round" stroke-opacity="1.0" stroke-width="3.0" />
            <path d=" M 636.679, 851.786 635.252, 851.439 628.793, 849.869 620.926, 847.189 613.096, 843.733 605.324, 839.489 597.630, 834.448 590.036, 828.603 582.565, 821.948 575.561, 814.811 575.239, 814.482 568.698, 806.919 568.082, 806.206 561.997, 798.271 561.117, 797.124 555.478, 788.865 554.369, 787.241 551.057, 781.811 549.076, 778.563 547.861, 776.570 547.569, 776.035 543.704, 768.949 542.188, 766.169 541.618, 765.125 538.830, 759.410 535.664, 752.922 535.242, 751.956 531.245, 742.790 530.022, 739.984 526.398, 730.663 524.715, 726.336 522.851, 720.937 519.767, 712.008 517.834, 705.672 515.198, 697.032 513.454, 690.509 511.030, 681.447 508.770, 671.706 507.282, 665.292 505.335, 655.484 503.971, 648.613 502.329, 638.749 501.114, 631.457 499.769, 621.548 498.727, 613.876 497.671, 603.932 496.820, 595.924 496.048, 585.954 495.406, 577.657 494.914, 567.669 494.493, 559.134 494.275, 549.136 494.086, 540.417 494.141, 530.417 494.190, 521.568 494.352, 516.593 494.677, 506.598 494.806, 502.650 495.401, 492.668 495.933, 483.729 496.797, 473.766 497.568, 464.868 498.701, 454.932 499.705, 446.131 501.109, 436.230 502.335, 427.582 504.013, 417.723 505.449, 409.283 507.402, 399.475 509.032, 391.294 511.266, 381.547 513.070, 373.675 515.590, 363.997 517.547, 356.481 520.358, 346.884 521.561, 342.778 522.444, 339.765 525.553, 330.261 525.888, 329.238 527.740, 323.578 531.155, 314.180 533.413, 307.967 534.257, 305.868 535.538, 302.680 537.614, 297.518 538.433, 295.480 539.441, 292.975 542.319, 286.487 542.559, 285.946 543.900, 282.922 545.799, 278.642 547.325, 275.518 549.439, 271.191 549.471, 271.125 549.523, 271.018 550.726, 268.557 552.462, 265.003 557.198, 256.196 558.667, 253.464 559.405, 252.091 561.075, 249.269 566.169, 240.664 566.602, 239.931 572.065, 231.556 573.162, 229.874 574.026, 228.550 579.871, 220.436 581.651, 217.965 587.888, 210.149 589.449, 208.193 596.090, 200.717 597.396, 199.246 604.448, 192.155 605.465, 191.132 612.931, 184.479 613.631, 183.855 621.511, 177.698 621.869, 177.418 630.156, 171.817 638.468, 167.049 646.782, 163.106 655.079, 159.978 663.337, 157.653 671.396, 156.142 671.537, 156.116 " fill="none" stroke="rgb(0, 0, 0)" stroke-linecap="butt" stroke-linejoin="round" stroke-opacity="1.0" stroke-width="3.0" />
            <path d=" M 669.296, 156.340 661.085, 157.877 652.817, 160.202 644.510, 163.328 636.185, 167.269 627.863, 172.034 619.568, 177.631 611.682, 183.781 611.320, 184.063 603.848, 190.709 603.145, 191.334 596.087, 198.418 595.068, 199.441 588.420, 206.911 587.113, 208.380 580.868, 216.190 579.306, 218.142 573.454, 226.251 571.675, 228.717 566.204, 237.088 564.244, 240.087 559.143, 248.688 558.350, 250.026 557.041, 252.234 552.298, 261.037 550.092, 265.133 547.931, 269.549 547.019, 271.412 546.656, 272.153 543.424, 278.757 543.167, 279.335 541.825, 282.354 541.131, 283.917 538.978, 288.760 537.065, 293.066 537.061, 293.075 536.215, 295.176 535.464, 297.040 534.683, 298.980 533.396, 302.174 531.029, 308.051 527.608, 317.447 525.352, 323.644 522.238, 333.147 520.451, 338.601 520.053, 339.813 517.238, 349.409 515.154, 356.510 512.631, 366.186 510.676, 373.684 509.227, 379.995 506.990, 389.742 506.636, 391.284 504.680, 401.091 503.052, 409.252 501.372, 419.110 499.938, 427.530 498.533, 437.430 497.308, 446.057 496.174, 455.993 495.172, 464.773 494.308, 474.735 493.539, 483.612 492.944, 493.595 492.413, 502.512 492.252, 507.473 492.193, 509.282 491.950, 516.762 491.919, 517.714 491.885, 518.779 491.799, 521.408 491.746, 531.408 491.698, 540.236 491.918, 550.233 492.108, 558.932 492.604, 568.920 493.026, 577.434 493.801, 587.404 494.444, 595.681 495.504, 605.624 496.356, 613.614 497.706, 623.522 498.749, 631.176 499.923, 638.207 501.571, 648.071 501.611, 648.313 503.564, 658.121 504.928, 664.975 507.194, 674.715 508.683, 681.113 510.935, 689.510 512.858, 696.682 515.783, 706.245 517.263, 711.084 517.434, 711.643 520.706, 721.093 522.390, 725.958 526.022, 735.275 527.705, 739.593 531.710, 748.756 533.355, 752.520 534.787, 755.447 538.373, 762.780 539.318, 764.712 541.756, 769.172 543.273, 771.946 545.570, 776.148 547.180, 778.781 548.696, 781.262 550.678, 784.505 552.087, 786.811 557.735, 795.063 558.845, 796.686 564.938, 804.615 565.820, 805.762 572.369, 813.319 572.987, 814.033 579.998, 821.164 580.323, 821.495 587.805, 828.146 595.409, 833.989 603.113, 839.029 610.896, 843.272 618.737, 846.729 626.615, 849.410 634.512, 851.329 " fill="none" stroke="rgb(0, 0, 0)" stroke-linecap="butt" stroke-linejoin="round" stroke-opacity="1.0" stroke-width="3.0" />
            <path d=" M 769.980, 566.753 769.876, 567.354 767.931, 577.163 767.507, 579.300 765.312, 589.056 764.855, 591.087 762.404, 600.782 761.922, 602.692 759.212, 612.318 758.712, 614.094 755.737, 623.641 755.229, 625.269 751.981, 634.727 751.477, 636.195 747.949, 645.551 747.461, 646.847 743.644, 656.090 743.184, 657.203 739.069, 666.318 738.653, 667.240 734.229, 676.208 733.872, 676.931 729.128, 685.734 728.849, 686.253 723.774, 694.869 723.590, 695.181 718.170, 703.585 718.102, 703.691 712.393, 711.755 706.472, 719.350 700.349, 726.449 694.034, 733.027 687.537, 739.057 680.870, 744.515 674.048, 749.376 667.082, 753.611 659.989, 757.199 652.783, 760.115 645.482, 762.336 638.105, 763.837 630.669, 764.600 625.050, 764.605 " fill="none" stroke="rgb(0, 0, 0)" stroke-linecap="butt" stroke-linejoin="round" stroke-opacity="1.0" stroke-width="3.0" />
            <path d=" M 784.676, 571.282 774.683, 570.919 773.866, 570.890 769.980, 566.753 763.133, 559.464 756.286, 552.176 752.572, 548.223 751.954, 547.564 751.335, 546.904 750.715, 546.242 750.095, 545.580 749.390, 544.676 748.759, 543.553 748.632, 543.246 748.214, 542.232 747.768, 540.738 747.550, 539.682 747.431, 539.100 747.424, 539.048 747.207, 537.350 747.102, 535.520 747.117, 533.646 747.241, 531.928 747.252, 531.765 747.425, 530.502 747.505, 529.913 747.871, 528.126 748.343, 526.439 748.910, 524.883 749.563, 523.489 750.289, 522.283 751.072, 521.288 751.899, 520.522 752.201, 520.338 752.334, 520.257 752.753, 520.001 753.617, 519.732 754.341, 519.615 755.066, 519.497 755.790, 519.379 756.512, 519.262 756.875, 519.202 766.746, 517.602 776.617, 516.001 781.349, 515.234 " fill="none" stroke="rgb(0, 0, 0)" stroke-linecap="butt" stroke-linejoin="round" stroke-opacity="1.0" stroke-width="3.0" />
            <path d=" M 681.251, 220.850 676.222, 221.138 672.899, 221.328 664.486, 222.610 656.039, 224.725 655.278, 224.993 647.587, 227.700 639.159, 231.551 630.786, 236.284 622.497, 241.894 614.656, 248.101 614.321, 248.366 606.925, 255.096 606.283, 255.679 599.339, 262.876 598.417, 263.832 591.935, 271.446 590.761, 272.825 584.740, 280.809 583.352, 282.648 577.785, 290.955 576.226, 293.281 571.099, 301.866 569.413, 304.689 564.709, 313.513 562.941, 316.830 558.640, 325.858 556.830, 329.656 556.177, 331.193 554.393, 335.387 553.844, 336.680 553.339, 337.868 553.245, 338.087 551.807, 341.470 551.106, 343.119 550.343, 345.143 549.009, 348.683 547.615, 352.381 545.804, 357.187 545.754, 357.340 544.416, 361.379 541.271, 370.872 540.959, 371.815 539.038, 378.483 537.715, 383.075 536.599, 386.950 534.198, 396.657 533.201, 400.687 532.745, 402.531 530.702, 412.320 529.413, 418.493 527.714, 428.347 526.608, 434.765 526.373, 436.474 525.009, 446.381 524.323, 451.368 523.274, 461.312 522.553, 468.148 521.817, 478.121 521.306, 485.034 520.883, 495.025 520.788, 497.267 520.686, 499.667 520.589, 501.954 520.588, 502.038 520.479, 512.038 520.422, 517.253 520.405, 518.834 520.500, 523.467 520.672, 531.780 520.692, 532.792 520.750, 535.602 521.275, 545.589 521.622, 552.188 522.472, 562.152 523.015, 568.521 524.195, 578.451 524.792, 583.470 524.919, 584.535 526.437, 594.419 527.082, 598.622 527.319, 600.164 529.185, 609.989 530.203, 615.349 532.427, 625.098 533.552, 630.030 534.284, 632.753 536.879, 642.411 537.347, 644.153 540.326, 653.699 541.566, 657.671 543.462, 662.952 543.703, 663.624 544.579, 666.062 544.998, 667.230 546.185, 670.537 547.159, 672.908 550.956, 682.159 551.182, 682.709 551.224, 682.799 552.278, 685.055 552.813, 686.201 553.796, 688.304 556.529, 694.154 556.846, 694.752 557.325, 695.655 558.402, 697.685 560.377, 701.408 562.199, 704.841 567.360, 713.406 568.164, 714.742 573.819, 722.989 574.399, 723.835 580.562, 731.709 580.872, 732.105 587.556, 739.538 594.424, 746.126 601.447, 751.865 608.597, 756.756 615.849, 760.799 623.176, 764.002 625.050, 764.605 630.554, 766.374 637.957, 767.929 645.363, 768.679 652.750, 768.641 660.096, 767.835 667.382, 766.281 674.590, 764.000 681.701, 761.014 688.698, 757.350 695.567, 753.030 702.293, 748.080 708.862, 742.526 715.263, 736.394 721.483, 729.711 727.512, 722.501 733.340, 714.792 738.958, 706.611 744.263, 698.134 744.358, 697.982 749.322, 689.300 749.533, 688.931 754.169, 680.071 754.475, 679.486 758.796, 670.467 759.178, 669.670 763.195, 660.512 763.636, 659.507 767.362, 650.227 767.845, 649.024 771.288, 639.635 771.799, 638.244 774.969, 628.759 775.494, 627.190 778.399, 617.621 778.925, 615.887 781.572, 606.243 782.090, 604.357 784.486, 594.648 784.986, 592.624 787.135, 582.858 787.608, 580.710 789.516, 570.893 789.954, 568.637 791.625, 558.777 792.023, 556.427 793.459, 546.531 793.812, 544.103 " fill="none" stroke="rgb(0, 0, 0)" stroke-linecap="butt" stroke-linejoin="round" stroke-opacity="1.0" stroke-width="3.0" />
            <path d=" M 781.349, 515.234 791.326, 515.907 792.065, 515.957 " fill="none" stroke="rgb(0, 0, 0)" stroke-linecap="butt" stroke-linejoin="round" stroke-opacity="1.0" stroke-width="3.0" />
            <path d=" M 825.263, 530.679 825.891, 523.815 826.197, 520.468 826.850, 510.490 827.026, 507.802 827.418, 497.809 827.476, 496.347 827.491, 495.957 827.524, 495.107 827.536, 494.207 827.667, 484.208 827.691, 482.408 827.562, 472.409 827.527, 469.727 827.140, 459.735 827.037, 457.088 826.394, 447.108 826.227, 444.509 825.324, 434.549 825.094, 432.013 823.921, 422.082 823.631, 419.628 823.569, 419.208 822.118, 409.314 821.834, 407.378 820.098, 397.530 819.703, 395.292 817.676, 385.499 817.239, 383.392 814.918, 373.665 814.449, 371.701 811.832, 362.050 811.341, 360.237 808.422, 350.673 807.918, 349.022 804.682, 339.560 804.178, 338.086 800.609, 328.745 800.120, 327.464 796.203, 318.263 795.745, 317.187 791.468, 308.148 791.058, 307.281 786.411, 298.427 786.067, 297.772 781.043, 289.125 780.782, 288.676 775.375, 280.264 775.214, 280.012 769.366, 271.814 763.243, 264.121 756.853, 256.970 750.206, 250.391 743.314, 244.410 736.193, 239.045 728.859, 234.307 722.232, 230.715 721.325, 230.223 713.607, 226.834 705.720, 224.177 697.684, 222.282 689.520, 221.168 681.674, 220.866 681.251, 220.850 " fill="none" stroke="rgb(0, 0, 0)" stroke-linecap="butt" stroke-linejoin="round" stroke-opacity="1.0" stroke-width="3.0" />
            <path d=" M 655.278, 224.993 658.083, 225.843 664.487, 228.578 670.725, 232.032 676.783, 236.166 682.652, 240.938 688.322, 246.322 693.779, 252.303 699.014, 258.863 704.017, 265.977 708.782, 273.612 713.302, 281.734 717.579, 290.301 721.608, 299.281 725.344, 308.557 725.384, 308.656 728.774, 318.064 728.898, 318.408 731.958, 327.928 732.146, 328.513 734.892, 338.128 735.126, 338.945 737.575, 348.640 737.836, 349.673 740.007, 359.434 740.281, 360.665 742.190, 370.481 742.464, 371.890 744.117, 381.753 744.381, 383.329 745.783, 393.230 746.029, 394.963 747.184, 404.896 747.403, 406.772 748.318, 416.730 748.502, 418.734 749.184, 428.710 749.328, 430.822 749.785, 440.812 749.885, 443.013 750.126, 453.010 750.181, 455.281 750.211, 465.281 750.217, 467.605 750.034, 477.603 749.991, 479.966 749.593, 489.958 749.498, 492.344 748.886, 502.326 748.739, 504.718 747.913, 514.684 747.716, 517.065 747.069, 523.267 746.799, 524.416 746.478, 525.515 746.109, 526.550 745.696, 527.513 745.244, 528.392 744.756, 529.178 744.624, 529.352 " fill="none" stroke="rgb(0, 0, 0)" stroke-linecap="butt" stroke-linejoin="round" stroke-opacity="1.0" stroke-width="3.0" />
            <path d=" M 719.085, 530.559 719.077, 531.008 719.023, 531.556 728.345, 535.174 734.147, 537.425 743.470, 541.042 744.897, 541.596 748.632, 543.246 " fill="none" stroke="rgb(0, 0, 0)" stroke-linecap="butt" stroke-linejoin="round" stroke-opacity="1.0" stroke-width="3.0" />
            <path d=" M 803.175, 536.992 812.383, 540.891 812.929, 541.122 821.952, 544.943 823.572, 545.629 823.817, 545.720 829.471, 547.831 " fill="none" stroke="rgb(0, 0, 0)" stroke-linecap="butt" stroke-linejoin="round" stroke-opacity="1.0" stroke-width="3.0" />
            <path d=" M 799.011, 546.231 799.679, 546.266 809.666, 546.790 811.956, 546.911 813.887, 547.012 821.652, 547.420 823.599, 547.523 829.471, 547.831 830.635, 537.899 831.010, 534.706 831.917, 524.748 832.212, 521.506 832.863, 511.528 833.077, 508.254 833.473, 498.262 833.603, 494.974 833.742, 484.974 833.788, 481.687 833.671, 471.687 833.633, 468.417 833.258, 458.424 833.136, 455.188 832.500, 445.208 832.297, 442.022 831.396, 432.063 831.114, 428.945 829.945, 419.014 829.588, 415.979 828.148, 406.084 827.721, 403.149 826.002, 393.298 825.510, 390.481 823.507, 380.683 822.958, 377.997 820.665, 368.264 820.067, 365.725 817.474, 356.066 816.836, 353.689 813.936, 344.119 813.269, 341.917 813.230, 341.801 810.013, 332.333 809.368, 330.435 805.824, 321.084 805.374, 319.897 805.136, 319.269 801.253, 310.054 800.577, 308.450 796.342, 299.390 795.694, 298.003 791.096, 289.123 790.493, 287.958 785.518, 279.284 784.979, 278.344 779.613, 269.906 779.159, 269.191 775.332, 263.774 773.040, 260.528 768.448, 254.694 766.630, 252.385 760.019, 244.883 759.940, 244.793 752.978, 237.782 745.757, 231.382 738.289, 225.623 730.588, 220.535 722.670, 216.148 714.551, 212.490 706.250, 209.587 697.786, 207.468 689.181, 206.158 680.456, 205.678 670.464, 206.071 665.250, 206.275 " fill="none" stroke="rgb(0, 0, 0)" stroke-linecap="butt" stroke-linejoin="round" stroke-opacity="1.0" stroke-width="3.0" />
            <path d=" M 680.456, 205.678 671.636, 206.052 668.489, 206.494 662.748, 207.300 660.201, 207.909 653.817, 209.437 644.873, 212.476 635.945, 216.430 627.180, 221.245 627.066, 221.308 618.717, 226.812 618.266, 227.110 610.359, 233.232 609.579, 233.836 602.131, 240.508 601.041, 241.484 594.055, 248.640 592.685, 250.044 586.161, 257.623 584.546, 259.499 578.479, 267.448 576.660, 269.832 571.043, 278.105 569.064, 281.020 563.884, 289.574 561.790, 293.031 557.037, 301.829 554.875, 305.832 553.122, 309.471 549.954, 316.050 548.761, 318.528 548.514, 319.041 548.350, 319.382 548.086, 320.000 544.152, 329.193 542.250, 333.637 541.995, 334.310 540.656, 337.846 537.114, 347.198 536.604, 348.546 533.445, 358.034 531.440, 364.055 528.656, 373.659 528.599, 373.854 526.787, 380.105 524.369, 389.808 522.668, 396.632 520.609, 406.418 519.104, 413.569 517.399, 423.423 516.114, 430.847 " fill="none" stroke="rgb(0, 0, 0)" stroke-linecap="butt" stroke-linejoin="round" stroke-opacity="1.0" stroke-width="3.0" />
            <path d=" M 812.599, 532.015 812.986, 531.353 813.393, 530.533 813.746, 529.701 813.771, 529.642 814.117, 528.685 814.428, 527.671 823.413, 530.165 825.263, 530.679 825.028, 531.251 824.624, 532.075 824.194, 532.821 823.742, 533.483 823.272, 534.055 823.040, 534.283 822.786, 534.533 822.289, 534.913 821.784, 535.190 821.276, 535.363 820.769, 535.427 820.267, 535.381 819.774, 535.225 815.341, 533.242 813.931, 532.611 813.483, 532.410 812.599, 532.015 807.733, 529.837 807.401, 528.322 806.970, 526.939 806.447, 525.713 805.842, 524.664 805.163, 523.809 804.422, 523.164 803.632, 522.739 802.804, 522.543 797.918, 522.257 797.825, 522.252 791.523, 521.883 790.934, 521.848 790.077, 521.884 789.248, 522.153 788.463, 522.652 787.700, 523.370 786.973, 524.298 786.778, 524.619 786.293, 525.418 785.674, 526.713 785.124, 528.160 784.655, 529.735 784.273, 531.410 783.986, 533.158 787.541, 534.644 788.407, 535.006 790.177, 535.120 791.392, 535.198 798.488, 535.653 798.903, 535.680 800.285, 535.768 800.379, 535.215 800.511, 534.693 800.675, 534.218 800.869, 533.802 801.086, 533.456 801.320, 533.191 801.566, 533.012 801.816, 532.926 802.063, 532.934 " fill="none" stroke="rgb(0, 0, 0)" stroke-linecap="butt" stroke-linejoin="round" stroke-opacity="1.0" stroke-width="3.0" />
            <path d=" M 790.177, 535.120 789.118, 543.862 787.677, 553.758 787.328, 556.157 785.601, 566.007 784.676, 571.282 777.881, 563.946 775.543, 561.422 771.627, 557.195 764.831, 549.859 764.072, 549.039 763.460, 548.377 762.846, 547.714 762.232, 547.050 761.619, 546.385 760.921, 545.478 760.296, 544.350 760.233, 544.195 759.758, 543.023 759.317, 541.522 758.984, 539.877 758.764, 538.118 758.703, 537.023 758.662, 536.279 758.679, 534.396 758.815, 532.506 759.068, 530.645 759.152, 530.230 759.432, 528.849 759.901, 527.152 760.466, 525.588 761.114, 524.187 761.835, 522.975 762.612, 521.974 763.433, 521.204 764.280, 520.679 765.136, 520.409 765.854, 520.290 766.573, 520.171 767.290, 520.052 768.006, 519.934 768.366, 519.874 778.232, 518.243 781.117, 517.766 790.983, 516.136 792.065, 515.957 791.523, 521.883 " fill="none" stroke="rgb(0, 0, 0)" stroke-linecap="butt" stroke-linejoin="round" stroke-opacity="1.0" stroke-width="3.0" />
            <path d=" M 514.989, 413.070 515.621, 423.050 516.114, 430.847 514.744, 440.753 513.674, 448.492 512.621, 458.436 511.786, 466.328 511.049, 476.300 510.460, 484.278 510.039, 494.269 509.748, 501.171 509.702, 502.264 509.597, 512.263 509.514, 520.206 509.728, 530.204 509.895, 538.028 510.431, 548.013 510.840, 555.651 511.703, 565.614 512.343, 573.001 513.540, 582.930 514.393, 590.006 515.930, 599.887 516.974, 606.595 518.862, 616.415 520.071, 622.704 522.322, 632.448 523.197, 636.237 523.667, 638.269 526.292, 647.918 527.737, 653.233 530.751, 662.768 532.260, 667.544 535.678, 676.942 537.209, 681.153 541.049, 690.386 541.625, 691.771 542.559, 694.016 545.179, 699.549 548.280, 706.097 549.044, 707.516 550.631, 710.464 554.344, 717.363 554.652, 717.866 556.210, 720.413 558.203, 723.672 560.720, 727.786 566.436, 735.991 567.378, 737.343 573.609, 745.165 574.288, 746.018 581.044, 753.391 581.419, 753.799 588.740, 760.677 596.222, 766.648 603.834, 771.716 611.549, 775.882 619.338, 779.154 627.175, 781.545 635.034, 783.070 642.890, 783.744 650.720, 783.585 658.501, 782.615 666.212, 780.859 673.835, 778.338 681.349, 775.077 688.738, 771.105 695.985, 766.449 703.077, 761.133 709.998, 755.189 716.736, 748.644 723.279, 741.526 729.617, 733.862 735.609, 725.856 735.739, 725.682 741.365, 717.415 741.637, 717.015 746.910, 708.518 747.302, 707.886 752.237, 699.188 752.727, 698.323 757.337, 689.449 757.905, 688.355 762.202, 679.325 762.830, 678.007 766.826, 668.840 767.496, 667.304 771.202, 658.016 771.897, 656.272 775.324, 646.878 776.031, 644.939 779.186, 635.449 779.892, 633.326 782.783, 623.753 783.476, 621.459 786.112, 611.813 786.781, 609.362 789.166, 599.651 789.803, 597.059 791.944, 587.290 792.539, 584.571 794.440, 574.753 794.988, 571.922 796.652, 562.061 797.146, 559.134 798.577, 549.237 799.011, 546.231 793.812, 544.103 798.919, 544.365 808.906, 544.877 812.457, 545.058 812.188, 544.946 802.961, 541.090 799.184, 539.511 798.668, 539.295 791.326, 536.227 791.381, 535.661 791.392, 535.198 " fill="none" stroke="rgb(0, 0, 0)" stroke-linecap="butt" stroke-linejoin="round" stroke-opacity="1.0" stroke-width="3.0" />
            <path d=" M 764.626, 537.414 764.315, 537.289 764.030, 537.021 763.784, 536.620 763.587, 536.104 763.449, 535.497 763.376, 534.825 763.370, 534.118 763.432, 533.406 763.559, 532.720 763.746, 532.091 763.984, 531.547 764.264, 531.111 764.571, 530.802 764.894, 530.634 765.218, 530.613 " fill="none" stroke="rgb(0, 0, 0)" stroke-linecap="butt" stroke-linejoin="round" stroke-opacity="1.0" stroke-width="3.0" />
            <path d=" M 765.218, 530.613 765.528, 530.742 765.812, 531.013 766.057, 531.415 766.252, 531.930 766.390, 532.535 766.463, 533.204 766.469, 533.909 766.407, 534.619 766.280, 535.302 766.094, 535.929 765.857, 536.473 765.579, 536.909 765.272, 537.220 764.950, 537.391 764.626, 537.414 " fill="none" stroke="rgb(0, 0, 0)" stroke-linecap="butt" stroke-linejoin="round" stroke-opacity="1.0" stroke-width="3.0" />
            <path d=" M 506.299, 447.826 505.243, 457.770 504.344, 466.240 503.606, 476.213 502.972, 484.771 502.551, 494.763 502.189, 503.339 502.187, 503.499 502.084, 513.499 501.998, 521.858 502.215, 531.856 502.397, 540.249 502.938, 550.235 503.382, 558.431 504.252, 568.393 504.944, 576.324 506.150, 586.251 507.074, 593.852 508.623, 603.732 509.754, 610.945 511.657, 620.762 512.969, 627.532 515.237, 637.272 516.699, 643.549 519.344, 653.193 520.920, 658.937 521.696, 661.371 524.733, 670.899 525.606, 673.641 529.051, 683.029 530.733, 687.612 534.604, 696.832 536.272, 700.804 540.094, 708.796 542.192, 713.182 543.721, 715.993 547.481, 722.908 548.462, 724.712 549.068, 725.692 553.116, 732.236 554.665, 734.740 555.052, 735.365 556.683, 737.678 561.931, 745.121 568.210, 752.903 569.065, 753.963 575.873, 761.288 576.423, 761.880 583.764, 768.671 583.974, 768.864 591.686, 774.914 599.529, 780.032 607.473, 784.224 615.491, 787.497 623.553, 789.867 631.634, 791.349 639.709, 791.960 647.754, 791.720 655.747, 790.653 663.664, 788.783 671.488, 786.133 679.199, 782.730 686.780, 778.605 694.214, 773.782 701.486, 768.291 708.583, 762.160 715.491, 755.420 722.199, 748.097 728.562, 740.383 728.695, 740.221 734.681, 732.210 734.971, 731.822 740.592, 723.552 741.016, 722.928 746.286, 714.430 746.822, 713.566 751.756, 704.867 752.382, 703.763 756.993, 694.889 757.690, 693.548 761.989, 684.520 762.738, 682.948 766.737, 673.783 767.520, 671.988 771.230, 662.702 772.032, 660.694 775.463, 651.301 776.269, 649.093 779.429, 639.605 780.227, 637.208 783.123, 627.637 783.901, 625.065 786.540, 615.419 787.288, 612.687 789.677, 602.976 790.385, 600.099 792.529, 590.331 793.189, 587.323 795.091, 577.505 795.696, 574.383 797.362, 564.522 797.906, 561.301 799.336, 551.404 799.814, 548.101 799.679, 546.266 " fill="none" stroke="rgb(0, 0, 0)" stroke-linecap="butt" stroke-linejoin="round" stroke-opacity="1.0" stroke-width="3.0" />
            <path d=" M 665.250, 206.275 657.227, 206.593 656.968, 206.631 649.123, 207.784 640.961, 209.864 632.769, 212.848 624.572, 216.749 616.401, 221.576 608.285, 227.331 600.598, 233.728 600.253, 234.015 593.045, 240.946 592.340, 241.624 585.607, 249.018 584.576, 250.150 578.309, 257.943 576.995, 259.577 571.182, 267.714 569.630, 269.887 564.257, 278.321 562.515, 281.056 557.567, 289.746 555.683, 293.054 551.773, 300.728 549.166, 305.844 548.493, 307.322 547.097, 310.387 546.302, 312.131 545.582, 313.713 542.997, 319.389 540.414, 325.746 539.073, 329.045 537.206, 333.641 533.810, 343.047 531.823, 348.550 528.784, 358.077 526.875, 364.061 526.720, 364.614 524.029, 374.245 522.389, 380.114 520.037, 389.834 518.388, 396.646 516.362, 406.439 514.989, 413.070 511.498, 422.441 508.827, 429.612 " fill="none" stroke="rgb(0, 0, 0)" stroke-linecap="butt" stroke-linejoin="round" stroke-opacity="1.0" stroke-width="3.0" />
            <path d=" M 508.827, 429.612 507.452, 439.517 506.299, 447.826 " fill="none" stroke="rgb(0, 0, 0)" stroke-linecap="butt" stroke-linejoin="round" stroke-opacity="1.0" stroke-width="3.0" />
            <path d=" M 813.230, 341.801 810.796, 332.102 810.610, 331.360 807.933, 321.725 807.634, 320.649 804.705, 311.087 804.423, 310.164 801.235, 300.685 800.978, 299.921 797.522, 290.537 797.302, 289.938 793.567, 280.661 793.394, 280.233 789.368, 271.080 789.257, 270.827 784.891, 261.741 780.297, 252.997 775.480, 244.614 770.443, 236.611 765.190, 229.005 759.727, 221.816 754.058, 215.066 748.188, 208.776 742.123, 202.969 735.869, 197.671 729.432, 192.906 722.823, 188.692 716.049, 185.048 709.122, 181.992 702.051, 179.543 694.849, 177.721 687.526, 176.547 680.097, 176.041 672.576, 176.225 670.972, 176.414 664.979, 177.117 657.320, 178.728 649.618, 181.067 641.890, 184.144 634.154, 187.966 626.430, 192.543 618.739, 197.881 611.102, 203.986 603.705, 210.715 603.543, 210.863 601.309, 213.153 596.084, 218.507 592.431, 222.690 588.748, 226.908 582.567, 234.770 581.555, 236.056 575.761, 244.206 574.530, 245.937 571.772, 250.214 567.696, 256.534 562.641, 265.162 562.163, 265.978 562.123, 266.045 561.758, 266.669 561.702, 266.765 561.302, 267.447 561.291, 267.466 561.077, 267.831 556.375, 276.657 554.697, 279.808 550.340, 288.809 549.918, 289.679 548.582, 292.440 546.628, 296.885 545.270, 299.977 543.141, 304.821 542.755, 305.701 542.389, 306.617 538.686, 315.907 538.534, 316.289 537.234, 319.550 537.220, 319.589 533.828, 328.996 532.041, 333.952 528.951, 343.463 527.195, 348.869 524.953, 356.577 522.719, 364.259 520.215, 373.941 518.628, 380.078 516.408, 389.829 514.940, 396.277 512.998, 406.087 511.668, 412.806 510.001, 422.666 508.827, 429.612 507.432, 439.514 506.427, 446.643 506.299, 447.826 505.169, 457.762 504.478, 463.843 503.620, 473.806 502.987, 481.154 502.395, 491.137 501.958, 498.522 501.775, 504.189 501.451, 514.184 501.396, 515.888 501.342, 525.888 501.302, 533.196 501.517, 543.193 501.672, 550.388 502.160, 560.377 502.503, 567.411 503.267, 577.382 503.790, 584.209 504.838, 594.154 505.531, 600.729 506.868, 610.639 507.715, 616.918 509.345, 626.784 510.328, 632.730 512.259, 642.541 513.357, 648.119 515.596, 657.865 516.785, 663.044 519.342, 672.712 520.506, 677.112 520.599, 677.464 523.485, 687.039 524.781, 691.341 528.009, 700.806 529.316, 704.640 532.900, 713.975 534.187, 717.325 538.141, 726.510 538.252, 726.767 539.373, 729.370 541.815, 734.444 544.851, 740.752 545.359, 741.697 546.898, 744.561 550.600, 751.453 550.810, 751.803 552.343, 754.361 554.310, 757.643 556.597, 761.458 562.161, 769.767 562.820, 770.752 568.819, 778.753 569.249, 779.325 575.696, 786.969 575.861, 787.166 582.639, 794.267 589.561, 800.621 596.606, 806.230 603.752, 811.101 610.978, 815.242 618.265, 818.660 625.595, 821.365 632.469, 823.236 632.949, 823.367 640.313, 824.674 647.669, 825.296 655.002, 825.246 662.296, 824.542 669.538, 823.205 676.714, 821.254 683.810, 818.709 690.816, 815.587 697.721, 811.907 704.514, 807.684 711.185, 802.936 717.725, 797.679 724.126, 791.938 730.380, 785.735 736.480, 779.090 742.420, 772.024 748.194, 764.555 753.796, 756.701 759.220, 748.477 764.460, 739.900 769.392, 731.201 769.513, 730.988 774.175, 722.142 774.374, 721.763 778.776, 712.783 779.042, 712.242 783.192, 703.144 783.511, 702.443 787.418, 693.238 787.781, 692.384 791.451, 683.082 791.847, 682.080 795.287, 672.690 795.706, 671.546 798.921, 662.076 799.355, 660.795 802.349, 651.254 802.792, 649.844 805.573, 640.239 806.016, 638.711 808.589, 629.047 809.025, 627.409 811.393, 617.694 811.817, 615.955 813.984, 606.193 814.391, 604.361 816.360, 594.557 816.744, 592.642 818.517, 582.801 818.876, 580.813 820.456, 570.939 820.785, 568.887 822.174, 558.984 822.469, 556.878 823.599, 547.523 " fill="none" stroke="rgb(0, 0, 0)" stroke-linecap="butt" stroke-linejoin="round" stroke-opacity="1.0" stroke-width="3.0" />
            <path d=" M 670.333, 176.429 662.725, 177.322 655.057, 178.933 647.345, 181.271 639.607, 184.346 631.862, 188.166 624.129, 192.740 616.429, 198.074 608.784, 204.174 601.380, 210.896 601.216, 211.044 595.955, 216.426 593.750, 218.681 587.165, 226.207 586.406, 227.075 586.051, 227.526 579.862, 235.381 579.206, 236.214 573.404, 244.359 572.175, 246.085 566.748, 254.484 565.334, 256.672 561.299, 263.547 558.709, 267.957 558.516, 268.319 558.435, 268.471 558.412, 268.514 558.408, 268.523 558.400, 268.537 558.321, 268.685 553.612, 277.508 552.324, 279.921 549.292, 286.173 546.204, 292.540 545.934, 293.154 544.571, 296.250 541.913, 302.287 541.119, 304.091 540.373, 305.786 537.717, 312.437 536.409, 315.712 534.848, 319.620 531.451, 329.025 529.652, 334.007 526.557, 343.516 524.804, 348.907 523.894, 352.029 521.096, 361.630 520.324, 364.280 517.817, 373.960 516.232, 380.081 514.009, 389.831 512.543, 396.261 510.599, 406.070 509.270, 412.771 507.601, 422.630 506.429, 429.558 505.032, 439.460 504.029, 446.569 502.903, 456.506 502.081, 463.749 501.223, 473.712 500.591, 481.041 500.000, 491.024 499.564, 498.389 499.240, 508.424 499.004, 515.735 498.951, 525.735 498.913, 533.023 499.130, 543.021 499.286, 550.197 499.776, 560.185 500.121, 567.200 500.888, 577.171 501.412, 583.980 502.463, 593.925 503.157, 600.481 504.498, 610.391 505.346, 616.653 506.981, 626.518 507.964, 632.448 509.901, 642.259 510.999, 647.821 513.244, 657.566 514.434, 662.731 516.997, 672.397 518.254, 677.136 520.027, 683.005 522.443, 691.000 525.678, 700.462 526.985, 704.285 530.577, 713.618 531.863, 716.959 535.826, 726.140 537.057, 728.992 537.839, 730.613 541.414, 738.024 542.543, 740.364 544.965, 744.861 546.506, 747.723 548.301, 751.057 550.462, 754.654 551.979, 757.179 553.945, 760.452 554.306, 761.053 559.878, 769.357 560.538, 770.341 566.546, 778.335 566.976, 778.907 573.430, 786.545 573.598, 786.743 580.385, 793.839 587.316, 800.190 594.371, 805.797 601.527, 810.667 608.763, 814.806 616.060, 818.225 623.400, 820.931 630.765, 822.933 " fill="none" stroke="rgb(0, 0, 0)" stroke-linecap="butt" stroke-linejoin="round" stroke-opacity="1.0" stroke-width="3.0" />
            <path d=" M 672.576, 176.225 670.333, 176.429 " fill="none" stroke="rgb(0, 0, 0)" stroke-linecap="butt" stroke-linejoin="round" stroke-opacity="1.0" stroke-width="3.0" />
            <path d=" M 630.765, 822.933 632.949, 823.367 " fill="none" stroke="rgb(0, 0, 0)" stroke-linecap="butt" stroke-linejoin="round" stroke-opacity="1.0" stroke-width="3.0" />
            <path d=" M 490.975, 425.736 490.499, 429.078 489.088, 438.978 488.944, 439.990 488.255, 444.827 488.196, 445.241 487.058, 455.176 485.940, 464.946 485.075, 474.909 484.218, 484.783 483.625, 494.765 483.035, 504.682 482.951, 507.323 482.942, 507.597 482.652, 516.601 482.634, 517.167 482.519, 520.763 482.414, 524.017 482.396, 524.576 482.348, 534.576 482.301, 544.394 482.529, 554.391 482.749, 564.068 483.255, 574.055 483.735, 583.532 484.524, 593.501 485.253, 602.720 486.329, 612.662 487.293, 621.569 488.662, 631.475 489.843, 640.018 491.512, 649.878 492.889, 658.010 494.867, 667.812 496.416, 675.490 498.711, 685.223 500.405, 692.407 503.027, 702.057 504.837, 708.714 507.798, 718.266 509.690, 724.369 513.002, 733.805 514.111, 736.962 514.943, 739.332 515.818, 741.546 519.494, 750.845 520.571, 753.569 522.872, 758.757 526.550, 767.048 530.998, 776.005 531.131, 776.271 531.672, 777.360 532.148, 778.320 532.603, 779.236 532.856, 779.745 535.315, 784.171 538.609, 790.100 539.462, 791.637 539.590, 791.843 540.128, 792.707 541.094, 794.262 544.076, 799.059 544.624, 799.941 545.572, 801.465 546.343, 802.706 547.603, 804.514 553.320, 812.718 553.473, 812.938 559.640, 820.810 560.825, 822.323 567.452, 829.812 568.375, 830.855 575.466, 837.905 576.096, 838.531 583.652, 845.081 583.964, 845.351 591.954, 851.319 600.044, 856.442 608.209, 860.727 616.429, 864.187 624.682, 866.834 632.947, 868.684 637.257, 869.626 645.493, 870.689 653.705, 870.989 661.876, 870.544 669.988, 869.375 678.027, 867.505 685.979, 864.954 693.829, 861.745 701.567, 857.902 709.180, 853.447 716.657, 848.405 723.990, 842.797 731.167, 836.647 738.182, 829.979 745.027, 822.814 751.603, 815.281 751.694, 815.177 757.948, 807.374 758.177, 807.088 764.120, 799.045 764.471, 798.569 770.112, 790.312 770.570, 789.643 775.920, 781.195 776.469, 780.329 781.539, 771.710 782.163, 770.648 786.963, 761.875 787.650, 760.621 792.189, 751.710 792.924, 750.266 797.211, 741.231 797.984, 739.603 802.027, 730.456 802.826, 728.650 806.633, 719.402 807.447, 717.425 811.024, 708.087 811.845, 705.946 815.200, 696.525 816.017, 694.230 819.156, 684.735 819.963, 682.293 822.890, 672.731 823.679, 670.153 826.400, 660.530 827.165, 657.825 829.684, 648.147 830.418, 645.324 832.739, 635.597 833.438, 632.667 835.564, 622.895 836.222, 619.867 838.156, 610.056 838.770, 606.940 840.515, 597.093 841.081, 593.900 842.639, 584.022 843.153, 580.761 844.525, 570.855 844.985, 567.538 846.173, 557.609 846.576, 554.244 847.582, 544.295 847.925, 540.893 848.748, 530.927 849.031, 527.500 849.673, 517.521 849.894, 514.078 850.352, 504.088 850.511, 500.640 850.787, 490.644 850.882, 487.201 850.974, 477.201 851.006, 473.774 850.914, 463.774 850.882, 460.374 850.603, 450.378 850.509, 447.014 850.042, 437.025 849.886, 433.708 849.228, 423.730 849.013, 420.473 848.160, 410.509 847.887, 407.321 846.837, 397.376 846.509, 394.269 845.257, 384.347 844.877, 381.331 843.420, 371.437 842.991, 368.523 841.323, 358.663 840.850, 355.862 838.966, 346.041 838.453, 343.364 836.348, 333.588 835.800, 331.045 833.466, 321.321 832.891, 318.924 830.321, 309.260 829.725, 307.018 826.912, 297.422 826.303, 295.346 823.237, 285.827 822.624, 283.926 819.296, 274.496 818.689, 272.778 815.089, 263.449 814.499, 261.922 810.615, 252.708 810.055, 251.379 805.875, 242.295 805.357, 241.170 800.869, 232.234 800.409, 231.316 795.599, 222.549 795.211, 221.840 790.066, 213.265 789.766, 212.765 784.272, 204.409 784.078, 204.114 778.221, 196.009 778.150, 195.911 771.987, 188.179 765.592, 180.945 758.973, 174.232 752.134, 168.066 745.084, 162.472 737.830, 157.477 730.381, 153.104 722.747, 149.381 714.939, 146.332 706.969, 143.980 698.849, 142.352 690.594, 141.469 682.219, 141.355 673.741, 142.029 669.280, 142.502 660.693, 143.987 652.040, 146.297 643.339, 149.448 634.614, 153.455 625.885, 158.328 617.540, 163.838 617.176, 164.078 609.236, 170.157 608.513, 170.710 600.986, 177.294 599.919, 178.228 592.808, 185.259 591.422, 186.630 584.724, 194.056 583.048, 195.914 576.756, 203.686 574.825, 206.071 568.929, 214.148 566.781, 217.090 561.270, 225.434 558.944, 228.955 553.806, 237.534 551.344, 241.646 546.567, 250.432 544.007, 255.139 543.376, 256.417 540.671, 261.896 539.670, 263.923 538.334, 266.629 536.963, 269.405 535.820, 271.956 535.682, 272.265 534.372, 275.188 530.716, 283.348 530.653, 283.488 530.240, 284.411 529.708, 285.721 529.414, 286.445 525.653, 295.711 524.889, 297.591 524.460, 298.648 523.863, 300.119 523.216, 301.884 519.773, 311.273 517.860, 316.487 515.710, 323.002 512.576, 332.498 512.255, 333.470 509.482, 342.862 507.073, 351.018 504.535, 360.690 502.334, 369.077 500.084, 378.820 498.060, 387.590 496.094, 397.395 494.268, 406.497 492.581, 416.354 490.975, 425.736 " fill="none" stroke="rgb(0, 0, 0)" stroke-linecap="butt" stroke-linejoin="round" stroke-opacity="1.0" stroke-width="3.0" />
            <path d=" M 673.741, 142.029 665.177, 143.512 656.545, 145.823 647.867, 148.976 639.162, 152.987 630.454, 157.867 622.118, 163.391 621.765, 163.625 613.836, 169.718 613.121, 170.267 605.606, 176.865 604.545, 177.797 597.448, 184.842 596.066, 186.214 589.382, 193.652 587.709, 195.514 581.431, 203.298 579.502, 205.691 573.620, 213.778 571.473, 216.731 565.976, 225.085 563.650, 228.620 558.526, 237.207 556.062, 241.337 551.299, 250.129 548.738, 254.858 548.223, 255.904 544.779, 262.904 541.705, 269.154 541.181, 270.327 540.469, 271.921 540.347, 272.194 540.340, 272.211 539.859, 273.287 535.782, 282.419 534.991, 284.192 533.641, 287.529 532.721, 289.801 532.509, 290.327 531.252, 293.434 528.623, 299.934 525.190, 309.326 522.627, 316.339 519.503, 325.838 518.046, 330.267 517.029, 333.359 514.204, 342.952 511.851, 350.947 509.320, 360.621 507.116, 369.047 507.083, 369.191 506.427, 372.042 505.919, 374.249 503.675, 383.994 502.845, 387.602 501.365, 395.000 499.404, 404.806 499.055, 406.553 497.372, 416.410 495.762, 425.836 495.292, 429.146 493.884, 439.046 492.982, 445.386 491.846, 455.321 491.213, 460.868 490.725, 465.136 489.860, 475.099 489.000, 485.019 488.406, 495.001 487.965, 502.406 487.813, 504.964 487.734, 507.400 487.676, 509.208 487.435, 516.684 487.369, 518.699 487.195, 524.105 487.169, 524.903 487.118, 534.903 487.112, 536.169 487.068, 544.766 487.291, 554.764 487.391, 559.218 487.509, 564.485 488.009, 574.473 488.487, 583.993 489.269, 593.962 489.995, 603.223 491.063, 613.166 492.025, 622.114 493.385, 632.021 494.564, 640.603 496.223, 650.464 497.598, 658.633 499.565, 668.437 501.112, 676.149 503.395, 685.885 504.460, 690.428 505.087, 693.101 507.697, 702.755 509.505, 709.441 512.452, 718.997 514.343, 725.127 515.281, 727.812 518.578, 737.253 519.579, 740.118 523.240, 749.424 525.191, 754.381 529.230, 763.529 531.153, 767.885 532.638, 770.890 536.212, 778.119 537.440, 780.603 539.505, 784.336 541.013, 787.064 544.027, 792.514 544.904, 793.930 546.402, 796.350 548.398, 799.574 550.889, 803.600 556.590, 811.816 557.999, 813.846 564.150, 821.731 565.331, 823.244 571.943, 830.746 572.860, 831.786 579.938, 838.850 580.560, 839.470 588.104, 846.034 588.406, 846.297 596.375, 852.269 604.442, 857.394 612.586, 861.679 620.783, 865.137 629.013, 867.781 637.257, 869.626 " fill="none" stroke="rgb(0, 0, 0)" stroke-linecap="butt" stroke-linejoin="round" stroke-opacity="1.0" stroke-width="3.0" />
            <path d=" M 747.425, 530.502 744.624, 529.352 735.373, 525.555 734.894, 525.359 734.532, 523.887 734.069, 522.543 733.510, 521.351 732.866, 520.330 732.146, 519.498 731.364, 518.869 730.531, 518.454 729.661, 518.260 719.678, 517.675 718.504, 517.606 717.606, 517.637 716.736, 517.893 715.910, 518.373 715.108, 519.067 714.346, 519.962 713.635, 521.045 712.989, 522.298 712.418, 523.698 711.932, 525.223 711.540, 526.846 711.248, 528.540 715.930, 530.356 719.085, 530.559 727.094, 531.072 727.190, 530.536 727.326, 530.031 727.497, 529.571 727.699, 529.168 727.926, 528.834 728.173, 528.578 728.432, 528.407 728.696, 528.325 728.958, 528.334 " fill="none" stroke="rgb(0, 0, 0)" stroke-linecap="butt" stroke-linejoin="round" stroke-opacity="1.0" stroke-width="3.0" />
            <path d=" M 729.661, 518.260 728.770, 518.291 727.905, 518.550 727.085, 519.032 726.290, 519.730 725.532, 520.630 724.826, 521.719 724.184, 522.978 723.616, 524.385 723.133, 525.918 722.742, 527.549 722.675, 527.939 722.451, 529.251 " fill="none" stroke="rgb(0, 0, 0)" stroke-linecap="butt" stroke-linejoin="round" stroke-opacity="1.0" stroke-width="3.0" />
            <path d=" M 711.248, 528.540 718.879, 529.024 722.451, 529.251 727.094, 531.072 " fill="none" stroke="rgb(0, 0, 0)" stroke-linecap="butt" stroke-linejoin="round" stroke-opacity="1.0" stroke-width="3.0" />
            <path d=" M 728.958, 528.334 729.211, 528.434 729.448, 528.623 729.663, 528.895 729.849, 529.242 730.002, 529.655 730.118, 530.124 730.193, 530.634 730.226, 531.173 730.215, 531.725 730.161, 532.276 " fill="none" stroke="rgb(0, 0, 0)" stroke-linecap="butt" stroke-linejoin="round" stroke-opacity="1.0" stroke-width="3.0" />
            <path d=" M 719.023, 531.556 729.002, 532.201 730.161, 532.276 739.470, 535.928 747.424, 539.048 " fill="none" stroke="rgb(0, 0, 0)" stroke-linecap="butt" stroke-linejoin="round" stroke-opacity="1.0" stroke-width="3.0" />
            <path d=" M 802.804, 522.543 801.954, 522.580 801.132, 522.851 800.354, 523.353 799.598, 524.076 798.877, 525.008 798.203, 526.135 798.035, 526.490 797.588, 527.436 797.042, 528.891 796.575, 530.474 796.196, 532.159 796.130, 532.561 795.910, 533.916 " fill="none" stroke="rgb(0, 0, 0)" stroke-linecap="butt" stroke-linejoin="round" stroke-opacity="1.0" stroke-width="3.0" />
            <path d=" M 783.986, 533.158 791.206, 533.617 795.910, 533.916 798.456, 534.994 800.285, 535.768 " fill="none" stroke="rgb(0, 0, 0)" stroke-linecap="butt" stroke-linejoin="round" stroke-opacity="1.0" stroke-width="3.0" />
            <path d=" M 802.063, 532.934 802.302, 533.036 802.525, 533.229 802.726, 533.508 802.899, 533.866 803.042, 534.291 803.148, 534.773 803.216, 535.299 803.243, 535.854 803.229, 536.424 803.175, 536.992 798.540, 536.692 791.326, 536.227 " fill="none" stroke="rgb(0, 0, 0)" stroke-linecap="butt" stroke-linejoin="round" stroke-opacity="1.0" stroke-width="3.0" />
            <path d=" M 787.393, 501.857 787.593, 501.934 787.772, 502.054 787.922, 502.210 788.039, 502.397 788.117, 502.611 788.154, 502.844 788.145, 503.094 788.092, 503.327 787.999, 503.549 787.870, 503.752 787.708, 503.928 787.520, 504.071 787.311, 504.175 787.088, 504.237 786.853, 504.251 786.694, 504.230 786.542, 504.185 786.399, 504.117 " fill="none" stroke="rgb(0, 0, 0)" stroke-linecap="butt" stroke-linejoin="round" stroke-opacity="1.0" stroke-width="3.0" />
            <path d=" M 787.393, 501.857 787.369, 501.847 787.351, 501.842 787.339, 501.838 787.302, 501.829 787.260, 501.821 787.215, 501.813 787.168, 501.807 787.121, 501.802 787.074, 501.799 787.034, 501.798 787.000, 501.798 786.971, 501.801 786.766, 501.825 786.726, 501.833 786.512, 501.906 786.477, 501.922 786.273, 502.042 786.096, 502.199 785.952, 502.390 785.847, 502.609 785.832, 502.644 785.772, 502.889 785.764, 503.126 785.803, 503.359 785.887, 503.580 786.014, 503.781 786.037, 503.811 786.196, 503.978 786.389, 504.111 786.399, 504.117 " fill="none" stroke="rgb(0, 0, 0)" stroke-linecap="butt" stroke-linejoin="round" stroke-opacity="1.0" stroke-width="3.0" />
            <path d=" M 790.074, 506.346 790.384, 500.206 790.246, 500.142 787.444, 500.003 784.605, 499.863 783.792, 505.926 784.705, 506.135 " fill="none" stroke="rgb(0, 0, 0)" stroke-linecap="butt" stroke-linejoin="round" stroke-opacity="1.0" stroke-width="3.0" />
            <path d=" M 783.792, 505.926 789.433, 506.219 " fill="none" stroke="rgb(0, 0, 0)" stroke-linecap="butt" stroke-linejoin="round" stroke-opacity="1.0" stroke-width="3.0" />
            <path d=" M 790.074, 506.346 789.433, 506.219 790.246, 500.142 " fill="none" stroke="rgb(0, 0, 0)" stroke-linecap="butt" stroke-linejoin="round" stroke-opacity="1.0" stroke-width="3.0" />
            <path d=" M 734.147, 537.425 727.066, 536.128 717.265, 534.144 715.634, 533.814 705.866, 531.673 704.214, 531.311 694.476, 529.036 692.799, 528.644 683.087, 526.259 681.382, 525.840 671.693, 523.367 669.957, 522.924 660.285, 520.386 658.518, 519.922 648.857, 517.339 647.057, 516.857 637.403, 514.249 635.570, 513.754 625.917, 511.142 624.050, 510.636 614.393, 508.039 612.491, 507.527 602.826, 504.963 600.889, 504.449 591.209, 501.937 589.236, 501.425 579.539, 498.984 577.529, 498.478 577.065, 488.489 576.888, 484.693 576.293, 474.711 576.077, 471.083 575.346, 461.110 575.094, 457.669 574.223, 447.707 573.940, 444.474 572.920, 434.526 572.611, 431.519 571.436, 421.589 571.109, 418.830 569.769, 408.920 569.432, 406.429 567.917, 396.544 567.580, 394.343 565.877, 384.489 565.551, 382.600 563.648, 372.783 563.346, 371.226 561.226, 361.453 560.965, 360.249 558.608, 350.531 558.470, 349.960 558.407, 349.701 555.792, 340.049 555.674, 339.612 554.393, 335.387 " fill="none" stroke="rgb(0, 0, 0)" stroke-linecap="butt" stroke-linejoin="round" stroke-opacity="1.0" stroke-width="3.0" />
            <path d=" M 535.820, 271.956 535.608, 271.937 533.594, 271.759 527.738, 271.241 527.002, 271.098 524.768, 270.665 518.881, 269.522 515.698, 268.575 513.368, 267.882 509.882, 266.845 " fill="none" stroke="rgb(0, 0, 0)" stroke-linecap="butt" stroke-linejoin="round" stroke-opacity="1.0" stroke-width="3.0" />
            <path d=" M 509.882, 266.845 505.118, 265.928 500.243, 265.977 495.270, 267.027 490.211, 269.108 489.342, 269.640 485.080, 272.250 485.029, 272.291 479.893, 276.481 478.803, 277.596 474.666, 281.823 470.713, 286.696 469.418, 288.293 464.167, 295.905 461.572, 300.253 458.934, 304.671 457.393, 307.614 453.741, 314.589 449.534, 323.661 448.609, 325.655 444.789, 334.896 443.564, 337.859 440.090, 347.236 438.628, 351.182 435.468, 360.669 433.828, 365.594 430.954, 375.172 429.187, 381.061 426.577, 390.714 424.732, 397.539 422.366, 407.255 420.487, 414.976 418.349, 424.745 416.476, 433.309 414.554, 443.122 412.723, 452.468 411.006, 462.319 409.289, 472.171 409.253, 472.376 407.732, 482.260 406.210, 492.143 406.086, 492.948 404.753, 502.859 403.419, 512.769 403.241, 514.089 402.091, 524.023 400.940, 533.957 400.738, 535.702 399.766, 545.655 398.794, 555.608 398.591, 557.684 397.795, 567.652 396.999, 577.620 396.815, 579.925 396.193, 589.905 395.570, 599.886 395.419, 602.315 394.971, 612.305 394.523, 622.294 394.413, 624.740 394.140, 634.736 393.866, 644.733 393.802, 647.088 393.705, 657.087 393.608, 667.087 393.587, 669.243 393.670, 679.243 393.753, 689.243 393.769, 691.097 394.037, 701.093 394.305, 711.089 394.344, 712.539 394.803, 722.528 395.263, 732.518 395.307, 733.468 395.965, 743.446 396.622, 753.425 396.646, 753.786 397.513, 763.748 398.353, 773.399 398.376, 773.290 400.390, 763.495 402.404, 753.700 403.774, 747.036 403.995, 745.966 406.099, 736.190 408.204, 726.414 409.750, 719.233 411.947, 709.477 414.145, 699.721 415.619, 693.178 417.912, 683.444 420.206, 673.711 421.603, 667.781 423.995, 658.071 426.387, 648.362 427.703, 643.021 430.197, 633.337 432.690, 623.652 433.919, 618.877 436.517, 609.220 439.115, 599.563 440.253, 595.329 442.958, 585.702 445.662, 576.074 446.706, 572.358 449.519, 562.762 452.333, 553.166 453.278, 549.944 456.203, 540.382 459.129, 530.819 459.970, 528.068 463.010, 518.541 466.050, 509.014 466.785, 506.711 469.942, 497.222 473.098, 487.733 473.723, 485.854 476.999, 476.405 480.274, 466.957 480.787, 465.479 484.183, 456.073 487.579, 446.667 487.976, 445.568 488.255, 444.827 " fill="none" stroke="rgb(0, 0, 0)" stroke-linecap="butt" stroke-linejoin="round" stroke-opacity="1.0" stroke-width="3.0" />
            <path d=" M 368.185, 765.143 364.277, 774.348 363.547, 776.068 " fill="none" stroke="rgb(0, 0, 0)" stroke-linecap="butt" stroke-linejoin="round" stroke-opacity="1.0" stroke-width="3.0" />
            <path d=" M 489.342, 269.640 479.347, 269.328 474.458, 269.175 " fill="none" stroke="rgb(0, 0, 0)" stroke-linecap="butt" stroke-linejoin="round" stroke-opacity="1.0" stroke-width="3.0" />
            <path d=" M 530.826, 468.942 530.814, 468.977 " fill="none" stroke="rgb(0, 0, 0)" stroke-linecap="butt" stroke-linejoin="round" stroke-opacity="1.0" stroke-width="3.0" />
            <path d=" M 557.879, 508.533 557.788, 505.017 " fill="none" stroke="rgb(0, 0, 0)" stroke-linecap="butt" stroke-linejoin="round" stroke-opacity="1.0" stroke-width="3.0" />
        </g>
    </g>
</svg>
