<?xml version='1.0' encoding='ascii'?>
<svg xmlns="http://www.w3.org/2000/svg" height="1080" version="1.1" width="1080">
    <g id="View Layer_LineSet" inkscape:groupmode="lineset" inkscape:label="View Layer_LineSet" xmlns:inkscape="http://www.inkscape.org/namespaces/inkscape">
        <g id="strokes" inkscape:groupmode="layer" inkscape:label="strokes" xmlns:inkscape="http://www.inkscape.org/namespaces/inkscape">
            <path d=" M 563.986, 489.284 563.996, 490.439 563.987, 491.602 563.957, 492.764 563.908, 493.912 563.838, 495.035 563.750, 496.122 563.643, 497.162 563.520, 498.145 563.378, 499.061 563.313, 499.427 563.269, 499.673 563.153, 500.242 563.088, 500.519 563.031, 500.764 562.902, 501.237 562.769, 501.658 562.631, 502.024 562.489, 502.334 561.006, 505.250 559.884, 507.454 559.323, 508.556 " fill="none" stroke="rgb(0, 0, 0)" stroke-linecap="butt" stroke-linejoin="round" stroke-opacity="1.0" stroke-width="3.0" />
            <path d=" M 363.587, 776.455 369.635, 781.199 " fill="none" stroke="rgb(0, 0, 0)" stroke-linecap="butt" stroke-linejoin="round" stroke-opacity="1.0" stroke-width="3.0" />
            <path d=" M 387.324, 782.351 396.748, 779.008 398.811, 778.277 " fill="none" stroke="rgb(0, 0, 0)" stroke-linecap="butt" stroke-linejoin="round" stroke-opacity="1.0" stroke-width="3.0" />
            <path d=" M 398.811, 778.277 393.792, 769.628 388.772, 760.979 388.259, 760.094 " fill="none" stroke="rgb(0, 0, 0)" stroke-linecap="butt" stroke-linejoin="round" stroke-opacity="1.0" stroke-width="3.0" />
            <path d=" M 474.421, 269.336 470.078, 269.904 465.665, 271.514 461.195, 274.199 456.681, 277.989 452.139, 282.911 449.737, 286.114 447.584, 288.985 446.008, 291.493 443.033, 296.229 438.504, 304.657 434.276, 313.719 434.017, 314.272 430.226, 323.526 429.592, 325.073 426.185, 334.475 425.250, 337.053 422.182, 346.571 421.013, 350.197 418.246, 359.806 416.902, 364.477 414.407, 374.161 412.939, 379.860 410.693, 389.605 409.149, 396.305 407.131, 406.100 405.553, 413.761 403.746, 423.596 402.173, 432.164 400.563, 442.034 399.029, 451.444 397.607, 461.342 396.185, 471.241 396.144, 471.524 394.899, 481.446 393.655, 491.368 393.536, 492.314 392.461, 502.256 391.386, 512.198 391.222, 513.719 390.311, 523.677 389.401, 533.636 389.218, 535.636 388.467, 545.608 387.717, 555.580 387.538, 557.958 386.945, 567.941 386.352, 577.923 386.194, 580.571 385.756, 590.561 385.318, 600.552 385.195, 603.358 384.911, 613.354 384.627, 623.350 384.546, 626.199 384.418, 636.198 384.289, 646.197 384.253, 648.976 384.281, 658.976 384.309, 668.976 384.316, 671.568 384.502, 681.566 384.689, 691.564 384.732, 693.859 385.082, 703.853 385.432, 713.847 385.499, 715.734 386.017, 725.721 386.536, 735.707 386.608, 737.086 387.302, 747.062 387.996, 757.038 388.050, 757.810 388.259, 760.094 387.839, 770.086 387.419, 780.077 387.324, 782.351 " fill="none" stroke="rgb(0, 0, 0)" stroke-linecap="butt" stroke-linejoin="round" stroke-opacity="1.0" stroke-width="3.0" />
            <path d=" M 566.977, 520.099 567.950, 520.116 567.978, 520.117 572.328, 511.113 574.633, 506.342 577.664, 501.652 577.197, 491.663 577.011, 487.661 576.411, 477.679 576.181, 473.853 575.443, 463.881 575.175, 460.250 574.292, 450.289 573.990, 446.876 572.956, 436.930 572.626, 433.755 571.433, 423.827 571.082, 420.912 569.720, 411.005 569.358, 408.372 567.816, 398.492 567.453, 396.164 565.718, 386.315 565.366, 384.315 563.423, 374.506 563.096, 372.854 560.929, 363.091 560.645, 361.811 559.085, 355.537 558.011, 351.219 555.328, 341.585 555.196, 341.109 553.808, 336.666 " fill="none" stroke="rgb(0, 0, 0)" stroke-linecap="butt" stroke-linejoin="round" stroke-opacity="1.0" stroke-width="3.0" />
            <path d=" M 550.310, 345.146 552.953, 353.457 553.642, 355.887 555.659, 363.010 556.892, 367.886 558.193, 373.036 560.392, 382.792 560.553, 383.506 562.523, 393.310 562.740, 394.388 562.770, 394.560 564.529, 404.404 564.752, 405.652 566.315, 415.529 566.591, 417.270 567.971, 427.175 568.256, 429.217 569.465, 439.143 569.748, 441.463 570.796, 451.408 571.068, 453.984 571.962, 463.944 572.215, 466.757 572.964, 476.729 573.191, 479.756 573.800, 489.737 573.997, 492.958 574.046, 493.994 574.003, 494.811 573.950, 495.611 573.887, 496.390 573.815, 497.144 573.734, 497.868 573.644, 498.558 573.546, 499.212 573.441, 499.826 573.328, 500.396 573.210, 500.919 573.086, 501.392 572.957, 501.813 572.824, 502.180 572.687, 502.491 568.747, 510.532 568.515, 509.778 568.265, 509.213 568.002, 508.849 567.855, 508.765 567.728, 508.692 565.253, 508.652 564.346, 508.637 563.469, 508.623 563.290, 508.620 559.904, 508.565 559.323, 508.556 558.122, 508.537 557.882, 508.533 557.345, 508.524 557.055, 508.577 556.766, 508.839 556.481, 509.308 556.206, 509.975 556.086, 510.367 555.944, 510.830 555.702, 511.858 555.482, 513.044 555.289, 514.365 555.126, 515.801 554.996, 517.327 554.901, 518.916 554.843, 520.540 554.823, 522.173 554.841, 523.786 554.897, 525.351 556.378, 525.378 558.219, 525.412 558.323, 525.414 560.101, 525.446 563.659, 525.511 564.470, 525.526 565.358, 525.542 565.438, 525.375 566.936, 522.275 566.921, 521.776 566.921, 521.261 566.935, 520.745 566.964, 520.241 566.977, 520.099 567.006, 519.763 567.061, 519.324 567.126, 518.936 567.201, 518.611 567.282, 518.356 567.368, 518.178 567.457, 518.083 567.545, 518.073 " fill="none" stroke="rgb(0, 0, 0)" stroke-linecap="butt" stroke-linejoin="round" stroke-opacity="1.0" stroke-width="3.0" />
            <path d=" M 465.230, 938.399 461.220, 938.048 458.127, 937.001 457.205, 936.689 453.198, 934.294 449.536, 931.111 449.215, 930.832 445.270, 926.281 441.381, 920.627 437.563, 913.852 433.836, 905.947 430.216, 896.911 426.964, 887.455 426.722, 886.751 423.875, 877.164 423.374, 875.474 420.881, 865.790 420.188, 863.100 418.008, 853.341 417.185, 849.658 415.284, 839.840 414.382, 835.181 412.734, 825.318 411.797, 819.712 410.379, 809.813 409.447, 803.303 408.241, 793.376 407.347, 786.014 406.338, 776.065 405.512, 767.913 404.664, 757.949 403.920, 749.210 403.805, 747.408 " fill="none" stroke="rgb(0, 0, 0)" stroke-linecap="butt" stroke-linejoin="round" stroke-opacity="1.0" stroke-width="3.0" />
            <path d=" M 381.888, 362.365 379.778, 372.140 378.635, 377.440 376.754, 387.262 375.507, 393.771 373.835, 403.630 372.566, 411.117 371.086, 421.007 369.828, 429.417 368.527, 439.332 367.311, 448.605 366.179, 458.541 365.033, 468.605 364.061, 478.558 363.089, 488.510 363.009, 489.332 362.189, 499.298 361.370, 509.264 361.252, 510.692 360.580, 520.669 359.907, 530.646 359.777, 532.586 359.247, 542.572 358.718, 552.558 358.593, 554.910 358.203, 564.902 357.813, 574.894 357.709, 577.551 357.456, 587.548 357.204, 597.544 357.132, 600.395 357.016, 610.394 356.899, 620.394 356.865, 623.325 356.886, 633.325 356.907, 643.325 356.913, 646.222 357.071, 656.221 357.229, 666.220 357.272, 668.968 357.570, 678.964 357.868, 688.959 357.942, 691.446 358.383, 701.436 358.823, 711.426 358.917, 713.541 359.505, 723.523 360.093, 733.506 360.189, 735.142 360.930, 745.115 361.671, 755.088 361.750, 756.147 362.651, 766.106 363.552, 776.066 363.587, 776.455 364.715, 786.391 365.777, 795.753 367.114, 805.663 368.261, 814.160 369.824, 824.037 371.022, 831.604 372.830, 841.439 374.041, 848.020 376.120, 857.802 377.299, 863.353 379.677, 873.066 380.777, 877.559 383.490, 887.184 384.454, 890.603 387.307, 899.377 " fill="none" stroke="rgb(0, 0, 0)" stroke-linecap="butt" stroke-linejoin="round" stroke-opacity="1.0" stroke-width="3.0" />
            <path d=" M 524.298, 532.861 524.571, 542.858 524.575, 543.025 524.737, 553.024 524.799, 556.862 524.850, 566.862 524.871, 570.782 524.815, 580.781 524.801, 583.245 " fill="none" stroke="rgb(0, 0, 0)" stroke-linecap="butt" stroke-linejoin="round" stroke-opacity="1.0" stroke-width="3.0" />
            <path d=" M 514.139, 736.920 514.115, 737.103 512.725, 747.006 512.263, 750.293 510.743, 760.176 510.266, 763.277 508.610, 773.139 508.125, 776.032 506.327, 785.869 505.841, 788.533 503.894, 798.342 503.415, 800.754 501.309, 810.529 500.849, 812.665 498.574, 822.403 498.144, 824.241 495.687, 833.935 495.302, 835.453 492.649, 845.094 492.326, 846.268 489.458, 855.848 489.216, 856.656 486.115, 866.163 485.978, 866.584 482.614, 876.020 479.127, 884.926 475.522, 893.268 471.804, 901.011 467.979, 908.116 464.053, 914.544 460.032, 920.256 455.925, 925.216 451.740, 929.383 449.536, 931.111 " fill="none" stroke="rgb(0, 0, 0)" stroke-linecap="butt" stroke-linejoin="round" stroke-opacity="1.0" stroke-width="3.0" />
            <path d=" M 398.411, 773.681 398.811, 778.277 399.846, 788.223 400.813, 797.515 402.060, 807.437 403.118, 815.868 404.591, 825.759 405.708, 833.263 407.427, 843.114 408.565, 849.636 410.554, 859.436 411.669, 864.931 413.955, 874.666 414.997, 879.106 417.615, 888.757 418.529, 892.124 421.522, 901.666 422.241, 903.957 425.662, 913.354 426.111, 914.588 430.025, 923.790 430.117, 924.007 434.236, 932.214 437.104, 936.978 437.389, 937.453 438.447, 939.209 442.729, 945.007 447.061, 949.627 451.426, 953.088 455.805, 955.418 460.181, 956.648 464.540, 956.814 468.865, 955.949 473.145, 954.094 477.367, 951.290 477.975, 950.747 481.520, 947.579 485.594, 943.000 486.910, 941.216 489.580, 937.597 493.470, 931.415 494.413, 929.693 497.259, 924.494 500.938, 916.874 504.502, 908.599 507.947, 899.708 511.270, 890.240 514.313, 880.714 514.467, 880.232 517.268, 870.632 517.534, 869.722 520.117, 860.062 520.469, 858.746 522.854, 849.034 523.271, 847.336 525.473, 837.581 525.938, 835.526 527.972, 825.735 528.468, 823.348 530.346, 813.526 530.861, 810.833 532.593, 800.984 533.116, 798.008 534.710, 788.135 535.232, 784.902 535.349, 784.116 " fill="none" stroke="rgb(0, 0, 0)" stroke-linecap="butt" stroke-linejoin="round" stroke-opacity="1.0" stroke-width="3.0" />
            <path d=" M 532.181, 778.277 530.532, 788.140 530.267, 789.723 528.480, 799.562 528.051, 801.922 526.118, 811.733 525.708, 813.813 523.619, 823.592 523.239, 825.370 522.976, 826.504 520.719, 836.246 520.646, 836.563 518.208, 846.261 517.931, 847.362 515.294, 857.008 515.096, 857.734 512.242, 867.318 512.143, 867.647 509.077, 877.070 505.900, 885.966 502.616, 894.298 499.230, 902.033 495.747, 909.132 492.173, 915.555 488.514, 921.266 484.778, 926.226 480.971, 930.395 477.103, 933.734 473.183, 936.206 469.222, 937.773 465.230, 938.399 " fill="none" stroke="rgb(0, 0, 0)" stroke-linecap="butt" stroke-linejoin="round" stroke-opacity="1.0" stroke-width="3.0" />
            <path d=" M 561.006, 505.250 559.844, 505.156 558.060, 505.013 557.789, 504.992 555.940, 504.843 548.820, 504.272 548.552, 504.250 546.706, 504.102 546.098, 504.054 546.550, 514.044 546.705, 517.487 547.049, 527.481 547.173, 531.062 547.414, 541.060 547.503, 544.760 547.642, 554.759 547.695, 558.560 547.734, 568.560 547.749, 572.442 547.690, 582.442 547.667, 586.388 547.511, 596.387 547.448, 600.377 547.195, 610.374 547.094, 614.391 546.744, 624.385 546.603, 628.410 546.156, 638.400 545.977, 642.415 545.433, 652.400 545.216, 656.387 544.601, 665.931 " fill="none" stroke="rgb(0, 0, 0)" stroke-linecap="butt" stroke-linejoin="round" stroke-opacity="1.0" stroke-width="3.0" />
            <path d=" M 547.182, 672.769 547.779, 662.787 548.040, 658.430 548.542, 648.443 548.773, 643.842 549.181, 633.851 549.369, 629.222 549.683, 619.227 549.829, 614.591 550.050, 604.593 550.152, 599.965 550.280, 589.966 550.338, 585.366 550.373, 575.366 550.389, 570.812 550.330, 560.812 550.303, 556.322 550.149, 546.323 550.081, 541.915 549.832, 531.918 549.724, 527.611 549.376, 517.617 549.231, 513.430 548.820, 504.272 " fill="none" stroke="rgb(0, 0, 0)" stroke-linecap="butt" stroke-linejoin="round" stroke-opacity="1.0" stroke-width="3.0" />
            <path d=" M 387.324, 782.351 388.389, 792.294 389.465, 802.340 390.739, 812.259 391.912, 821.394 393.409, 831.281 394.645, 839.437 396.387, 849.284 397.645, 856.401 399.655, 866.197 400.893, 872.230 403.200, 881.960 404.366, 886.880 407.005, 896.525 408.042, 900.313 411.059, 909.847 411.899, 912.502 415.348, 921.889 415.915, 923.430 419.864, 932.618 420.067, 933.091 424.334, 941.483 428.694, 948.611 433.127, 954.492 437.613, 959.146 442.134, 962.598 446.671, 964.877 451.208, 966.018 455.730, 966.060 460.222, 965.040 464.670, 963.000 469.063, 959.985 473.389, 956.040 " fill="none" stroke="rgb(0, 0, 0)" stroke-linecap="butt" stroke-linejoin="round" stroke-opacity="1.0" stroke-width="3.0" />
            <path d=" M 473.389, 956.040 480.318, 948.829 481.520, 947.579 " fill="none" stroke="rgb(0, 0, 0)" stroke-linecap="butt" stroke-linejoin="round" stroke-opacity="1.0" stroke-width="3.0" />
            <path d=" M 538.746, 479.946 539.438, 489.922 540.130, 499.898 540.386, 503.596 540.803, 513.587 540.947, 517.034 541.210, 527.030 541.229, 527.774 535.351, 530.720 532.059, 532.369 531.779, 532.509 531.499, 532.650 531.218, 532.791 530.938, 532.933 530.605, 532.983 527.069, 532.915 524.298, 532.861 520.715, 532.792 " fill="none" stroke="rgb(0, 0, 0)" stroke-linecap="butt" stroke-linejoin="round" stroke-opacity="1.0" stroke-width="3.0" />
            <path d=" M 520.703, 499.601 521.421, 497.279 524.377, 487.726 527.199, 478.602 537.132, 479.758 538.746, 479.946 535.891, 489.530 533.036, 499.114 530.801, 506.614 530.677, 507.025 530.433, 507.847 530.188, 508.670 529.942, 509.495 529.698, 510.320 529.420, 511.398 529.368, 511.656 529.168, 512.653 528.949, 514.060 528.768, 515.593 528.628, 517.221 528.618, 517.396 528.532, 518.914 528.482, 520.639 528.478, 522.362 528.510, 523.612 528.521, 524.049 528.611, 525.668 528.744, 527.188 528.919, 528.580 529.132, 529.816 529.379, 530.874 529.655, 531.733 529.956, 532.378 530.275, 532.797 530.605, 532.983 " fill="none" stroke="rgb(0, 0, 0)" stroke-linecap="butt" stroke-linejoin="round" stroke-opacity="1.0" stroke-width="3.0" />
            <path d=" M 530.900, 523.656 530.774, 523.613 530.655, 523.436 530.547, 523.133 530.457, 522.716 530.387, 522.205 530.341, 521.620 530.320, 520.988 530.327, 520.336 530.359, 519.694 530.417, 519.089 530.497, 518.548 530.596, 518.095 530.709, 517.749 530.832, 517.527 530.959, 517.436 " fill="none" stroke="rgb(0, 0, 0)" stroke-linecap="butt" stroke-linejoin="round" stroke-opacity="1.0" stroke-width="3.0" />
            <path d=" M 530.959, 517.436 531.085, 517.481 531.204, 517.660 531.311, 517.964 531.401, 518.380 531.470, 518.891 531.516, 519.474 531.536, 520.104 531.530, 520.753 531.497, 521.393 531.440, 521.996 531.360, 522.536 531.262, 522.989 531.149, 523.336 531.027, 523.561 530.900, 523.656 " fill="none" stroke="rgb(0, 0, 0)" stroke-linecap="butt" stroke-linejoin="round" stroke-opacity="1.0" stroke-width="3.0" />
            <path d=" M 552.836, 686.065 553.624, 676.096 553.709, 675.021 554.414, 665.046 554.657, 661.603 555.280, 651.622 555.498, 648.133 556.041, 638.148 556.232, 634.625 556.695, 624.636 556.859, 621.090 557.243, 611.097 557.379, 607.538 557.684, 597.542 557.792, 593.981 558.017, 583.983 558.097, 580.430 558.243, 570.431 558.295, 566.897 558.361, 556.897 558.384, 553.391 558.370, 543.391 558.366, 539.926 558.362, 539.551 558.267, 529.552 558.238, 526.511 558.219, 525.412 " fill="none" stroke="rgb(0, 0, 0)" stroke-linecap="butt" stroke-linejoin="round" stroke-opacity="1.0" stroke-width="3.0" />
            <path d=" M 454.266, 983.559 456.701, 983.749 460.813, 983.806 464.897, 983.031 468.946, 981.452 472.949, 979.100 476.901, 976.006 480.795, 972.203 484.625, 967.720 488.384, 962.589 492.069, 956.841 495.673, 950.507 499.195, 943.616 502.629, 936.198 505.973, 928.280 509.224, 919.892 512.380, 911.059 515.437, 901.809 518.396, 892.166 520.568, 884.554 521.253, 882.154 523.824, 872.490 524.008, 871.797 526.418, 862.091 526.660, 861.117 528.920, 851.376 529.208, 850.136 531.328, 840.363 531.651, 838.875 533.638, 829.075 533.988, 827.354 535.851, 817.529 536.219, 815.591 537.964, 805.744 538.343, 803.605 539.976, 793.740 540.158, 792.639 " fill="none" stroke="rgb(0, 0, 0)" stroke-linecap="butt" stroke-linejoin="round" stroke-opacity="1.0" stroke-width="3.0" />
            <path d=" M 527.019, 271.244 526.998, 271.176 524.250, 262.908 521.387, 255.097 518.411, 247.771 515.322, 240.955 512.123, 234.678 508.817, 228.967 505.405, 223.851 501.890, 219.359 498.277, 215.522 494.568, 212.367 490.769, 209.926 486.885, 208.228 482.922, 207.302 478.885, 207.178 478.256, 207.286 474.783, 207.883 470.622, 209.445 466.412, 211.890 462.161, 215.240 457.879, 219.520 453.578, 224.748 449.269, 230.943 444.965, 238.116 440.677, 246.281 436.463, 255.350 436.420, 255.443 432.591, 264.680 432.208, 265.604 431.303, 268.038 428.057, 276.763 424.876, 286.243 423.981, 288.912 421.076, 298.481 419.996, 302.039 417.342, 311.681 416.118, 316.127 414.173, 323.912 412.365, 331.151 410.152, 340.903 408.751, 347.081 406.735, 356.876 405.294, 363.882 403.462, 373.712 402.009, 381.511 400.350, 391.372 398.912, 399.921 397.418, 409.808 396.019, 419.056 394.681, 428.966 393.344, 438.858 392.155, 448.787 390.966, 458.716 390.901, 459.260 389.856, 469.205 388.812, 479.151 388.702, 480.192 387.798, 490.151 386.893, 500.110 386.760, 501.578 385.991, 511.549 385.223, 521.519 385.083, 523.340 384.449, 533.319 383.815, 543.299 383.682, 545.393 383.180, 555.380 382.678, 565.368 382.563, 567.653 382.192, 577.646 381.821, 587.639 381.732, 590.031 381.492, 600.028 381.252, 610.025 381.194, 612.440 381.085, 622.439 380.976, 632.439 380.950, 634.789 380.973, 644.789 380.997, 654.789 381.002, 656.989 381.159, 666.988 381.316, 676.987 381.347, 678.954 381.641, 688.950 381.935, 698.945 381.983, 700.597 382.418, 710.587 382.852, 720.578 382.906, 721.835 383.485, 731.819 384.064, 741.802 384.109, 742.590 384.838, 752.563 385.567, 762.537 385.585, 762.785 386.470, 772.746 387.324, 782.351 388.373, 792.296 389.315, 801.222 390.538, 811.147 391.548, 819.339 392.956, 829.239 394.010, 836.647 395.616, 846.517 396.687, 853.099 398.506, 862.932 399.564, 868.653 401.616, 878.440 402.629, 883.274 404.934, 893.005 405.864, 896.933 408.449, 906.593 409.256, 909.608 412.152, 919.179 412.788, 921.281 416.032, 930.739 416.444, 931.940 420.083, 941.255 420.211, 941.582 424.072, 950.203 428.013, 957.809 432.019, 964.408 436.077, 970.011 440.174, 974.634 444.296, 978.297 448.432, 981.021 452.571, 982.830 455.957, 983.583 456.701, 983.749 " fill="none" stroke="rgb(0, 0, 0)" stroke-linecap="butt" stroke-linejoin="round" stroke-opacity="1.0" stroke-width="3.0" />
            <path d=" M 476.486, 207.232 472.358, 207.938 468.170, 209.500 463.933, 211.944 459.656, 215.295 455.348, 219.573 451.020, 224.801 446.684, 230.993 442.353, 238.165 438.039, 246.328 433.803, 255.386 433.757, 255.486 429.907, 264.716 429.520, 265.645 428.471, 268.446 425.343, 276.800 422.145, 286.275 421.243, 288.945 418.322, 298.509 417.235, 302.068 414.566, 311.706 413.335, 316.151 410.897, 325.849 409.559, 331.169 407.334, 340.919 406.013, 346.707 405.925, 347.094 403.898, 356.886 402.448, 363.889 400.606, 373.717 399.145, 381.511 397.477, 391.371 396.032, 399.914 394.528, 409.800 393.123, 419.042 391.777, 428.951 390.434, 438.836 389.238, 448.765 388.043, 458.693 387.978, 459.231 386.928, 469.175 385.878, 479.120 385.768, 480.154 384.859, 490.113 383.950, 500.071 383.816, 501.532 383.044, 511.502 382.273, 521.473 382.132, 523.285 381.495, 533.265 380.858, 543.244 380.725, 545.330 380.221, 555.317 379.717, 565.304 379.602, 567.581 379.230, 577.574 378.858, 587.567 378.769, 589.951 378.529, 599.948 378.289, 609.945 378.231, 612.350 378.122, 622.350 378.014, 632.349 377.989, 634.691 378.013, 644.691 378.038, 654.691 378.043, 656.883 378.203, 666.882 378.362, 676.880 378.394, 678.839 378.691, 688.835 378.988, 698.830 379.037, 700.474 379.475, 710.465 379.914, 720.455 379.968, 721.705 380.552, 731.688 381.136, 741.671 381.182, 742.452 381.917, 752.425 382.651, 762.398 382.669, 762.640 383.562, 772.600 384.422, 782.200 385.479, 792.143 386.428, 801.064 387.661, 810.988 388.678, 819.175 390.096, 829.074 391.157, 836.477 392.775, 846.346 393.853, 852.924 395.685, 862.755 396.751, 868.474 398.816, 878.258 399.837, 883.091 402.157, 892.818 403.094, 896.747 405.696, 906.403 406.509, 909.419 409.423, 918.985 410.064, 921.089 413.329, 930.541 413.746, 931.747 417.406, 941.053 417.537, 941.387 421.424, 950.007 425.391, 957.613 429.424, 964.211 433.508, 969.815 437.632, 974.439 441.781, 978.103 445.944, 980.828 450.109, 982.638 454.266, 983.559 " fill="none" stroke="rgb(0, 0, 0)" stroke-linecap="butt" stroke-linejoin="round" stroke-opacity="1.0" stroke-width="3.0" />
            <path d=" M 478.885, 207.178 476.486, 207.232 " fill="none" stroke="rgb(0, 0, 0)" stroke-linecap="butt" stroke-linejoin="round" stroke-opacity="1.0" stroke-width="3.0" />
            <path d=" M 558.424, 697.549 559.280, 687.586 559.475, 685.311 560.249, 675.340 560.574, 671.151 561.267, 661.175 561.562, 656.928 562.175, 646.947 562.438, 642.654 562.973, 632.668 563.204, 628.339 563.661, 618.349 563.860, 613.994 564.239, 604.001 564.404, 599.632 564.706, 589.636 564.838, 585.261 565.063, 575.264 565.161, 570.895 565.308, 560.896 565.372, 556.542 565.442, 546.542 565.472, 542.214 565.464, 532.214 565.461, 527.922 565.438, 525.375 " fill="none" stroke="rgb(0, 0, 0)" stroke-linecap="butt" stroke-linejoin="round" stroke-opacity="1.0" stroke-width="3.0" />
            <path d=" M 455.599, 1003.873 458.007, 1004.066 462.439, 1003.879 466.834, 1002.795 471.182, 1000.848 475.474, 998.075 479.704, 994.511 483.864, 990.192 487.948, 985.155 491.951, 979.434 495.868, 973.064 499.695, 966.080 503.427, 958.514 507.062, 950.399 510.596, 941.767 511.410, 939.603 514.027, 932.647 517.308, 923.200 517.353, 923.069 520.416, 913.549 520.573, 913.061 523.436, 903.480 523.683, 902.651 526.364, 893.017 526.685, 891.864 529.197, 882.185 529.576, 880.725 531.931, 871.006 532.355, 869.258 534.565, 859.505 535.023, 857.485 537.096, 847.703 537.578, 845.429 539.523, 835.620 540.021, 833.110 541.845, 823.278 542.351, 820.548 544.060, 810.695 544.569, 807.762 545.599, 801.404 " fill="none" stroke="rgb(0, 0, 0)" stroke-linecap="butt" stroke-linejoin="round" stroke-opacity="1.0" stroke-width="3.0" />
            <path d=" M 539.648, 263.904 538.340, 258.462 535.803, 248.789 535.710, 248.435 532.955, 238.821 530.075, 229.645 527.071, 220.935 523.943, 212.720 520.692, 205.029 517.320, 197.892 513.828, 191.340 510.219, 185.406 506.496, 180.123 502.661, 175.523 498.718, 171.642 494.672, 168.514 490.528, 166.173 486.292, 164.653 481.969, 163.990 479.872, 164.099 477.567, 164.217 473.094, 165.367 468.559, 167.473 463.972, 170.563 459.343, 174.666 454.683, 179.809 450.006, 186.015 445.324, 193.303 440.653, 201.690 436.258, 210.672 436.006, 211.187 432.025, 220.361 431.399, 221.803 427.785, 231.127 426.851, 233.538 423.563, 242.982 422.377, 246.390 419.382, 255.931 417.995, 260.348 417.074, 263.593 414.344, 273.213 413.725, 275.396 412.265, 281.080 409.776, 290.765 409.740, 290.906 409.584, 291.512 407.317, 301.252 405.592, 308.664 403.530, 318.450 401.767, 326.817 399.896, 336.640 398.128, 345.923 396.437, 355.779 394.745, 365.635 394.694, 365.932 393.171, 375.816 391.649, 385.699 391.482, 386.784 390.120, 396.691 388.758, 406.598 388.509, 408.411 387.301, 418.338 386.093, 428.265 385.927, 429.630 385.791, 430.740 384.731, 440.684 383.671, 450.628 383.344, 453.692 382.427, 463.650 381.510, 473.608 381.181, 477.180 380.404, 487.150 379.626, 497.119 379.315, 501.113 378.673, 511.092 378.032, 521.072 377.754, 525.396 377.248, 535.383 376.741, 545.371 376.510, 549.931 376.136, 559.924 375.763, 569.917 375.587, 574.615 375.347, 584.612 375.106, 594.609 374.992, 599.346 374.884, 609.346 374.776, 619.345 374.726, 624.021 374.752, 634.021 374.779, 644.021 374.791, 648.535 374.953, 658.534 375.115, 668.532 375.184, 672.788 375.484, 682.783 375.785, 692.779 375.902, 696.679 376.345, 706.669 376.787, 716.660 376.940, 720.114 377.529, 730.097 378.118, 740.079 378.291, 743.000 379.032, 752.973 379.773, 762.945 379.944, 765.252 380.844, 775.211 381.743, 785.171 381.889, 786.787 382.955, 796.730 384.022, 806.673 384.114, 807.533 385.357, 817.455 386.605, 827.421 388.035, 837.318 389.346, 846.390 390.978, 856.256 392.323, 864.389 394.172, 874.217 395.518, 881.371 397.604, 891.151 398.915, 897.298 401.260, 907.020 402.495, 912.141 405.127, 921.788 406.242, 925.875 409.193, 935.429 410.136, 938.484 413.446, 947.920 413.739, 948.756 413.779, 948.868 414.161, 949.958 417.878, 959.242 418.299, 960.295 420.829, 965.793 422.533, 969.497 424.245, 972.701 426.847, 977.571 431.224, 984.530 435.649, 990.392 440.107, 995.176 444.584, 998.907 449.068, 1001.613 453.546, 1003.322 456.597, 1003.831 458.007, 1004.066 " fill="none" stroke="rgb(0, 0, 0)" stroke-linecap="butt" stroke-linejoin="round" stroke-opacity="1.0" stroke-width="3.0" />
            <path d=" M 479.601, 164.057 475.171, 164.285 470.669, 165.436 466.106, 167.541 461.490, 170.631 456.832, 174.734 452.144, 179.876 447.438, 186.080 442.727, 193.367 438.027, 201.751 433.610, 210.723 433.352, 211.246 429.351, 220.411 428.718, 221.859 425.085, 231.175 424.143, 233.591 420.837, 243.028 419.642, 246.438 416.631, 255.974 415.235, 260.392 412.490, 270.008 410.940, 275.435 408.437, 285.117 407.663, 288.112 406.776, 291.545 406.654, 292.065 404.374, 301.802 402.761, 308.692 400.687, 318.474 398.915, 326.837 397.033, 336.659 396.760, 338.082 395.256, 345.937 393.554, 355.791 391.853, 365.645 391.803, 365.939 390.271, 375.821 388.740, 385.703 388.573, 386.782 387.204, 396.688 385.835, 406.594 385.585, 408.401 384.370, 418.327 383.155, 428.253 382.853, 430.722 381.787, 440.665 380.722, 450.608 380.394, 453.664 379.472, 463.622 378.551, 473.579 378.221, 477.143 377.747, 483.182 376.966, 493.152 376.346, 501.067 375.702, 511.046 375.058, 521.025 374.779, 525.341 374.270, 535.328 373.762, 545.315 373.530, 549.865 373.155, 559.858 372.781, 569.851 372.605, 574.540 372.364, 584.537 372.123, 594.534 372.009, 599.262 371.902, 609.261 371.795, 619.260 371.745, 623.926 371.773, 633.926 371.801, 643.926 371.813, 648.431 371.978, 658.430 372.142, 668.428 372.212, 672.674 372.516, 682.670 372.820, 692.665 372.938, 696.557 373.385, 706.547 373.832, 716.537 373.986, 719.983 374.580, 729.966 375.174, 739.948 375.348, 742.861 376.095, 752.833 376.842, 762.805 377.014, 765.105 377.921, 775.064 378.828, 785.022 378.974, 786.633 380.049, 796.575 381.123, 806.517 381.216, 807.372 382.468, 817.293 383.724, 827.253 385.165, 837.149 386.486, 846.217 388.129, 856.081 389.483, 864.210 391.345, 874.035 392.701, 881.187 394.801, 890.964 396.121, 897.111 398.481, 906.828 399.726, 911.949 402.374, 921.592 403.497, 925.680 406.467, 935.229 407.418, 938.287 407.766, 939.272 409.035, 942.866 411.470, 949.759 412.483, 952.274 415.635, 960.095 418.073, 965.358 419.897, 969.296 424.239, 977.369 428.644, 984.328 433.098, 990.190 437.585, 994.975 442.091, 998.708 446.604, 1001.415 451.110, 1003.126 455.599, 1003.873 " fill="none" stroke="rgb(0, 0, 0)" stroke-linecap="butt" stroke-linejoin="round" stroke-opacity="1.0" stroke-width="3.0" />
            <path d=" M 481.969, 163.990 479.601, 164.057 " fill="none" stroke="rgb(0, 0, 0)" stroke-linecap="butt" stroke-linejoin="round" stroke-opacity="1.0" stroke-width="3.0" />
            <path d=" M 543.358, 256.401 542.792, 253.786 540.499, 244.052 540.218, 242.861 537.732, 233.175 537.514, 232.324 534.817, 222.695 534.679, 222.200 531.750, 212.639 531.713, 212.517 528.616, 203.304 525.389, 194.589 522.033, 186.404 518.549, 178.781 514.938, 171.752 511.203, 165.352 507.345, 159.616 503.369, 154.580 499.277, 150.280 495.073, 146.753 490.763, 144.037 486.352, 142.170 481.847, 141.188 477.255, 141.130 472.487, 141.278 467.757, 142.181 462.957, 144.078 458.096, 147.003 453.186, 150.988 448.239, 156.063 443.269, 162.255 438.288, 169.587 433.313, 178.079 428.753, 186.979 428.360, 187.746 424.235, 196.856 423.446, 198.599 419.705, 207.872 418.588, 210.641 415.189, 220.046 413.806, 223.872 410.713, 233.382 409.119, 238.284 406.303, 247.879 404.547, 253.862 401.982, 263.527 400.110, 270.583 397.776, 280.307 395.830, 288.417 393.709, 298.190 391.726, 307.327 389.803, 317.140 387.881, 326.954 387.820, 327.265 386.083, 337.113 384.346, 346.961 384.131, 348.178 382.569, 358.055 381.888, 362.365 380.680, 370.001 379.284, 379.903 377.888, 389.805 377.485, 392.666 376.248, 402.589 375.011, 412.512 374.564, 416.092 373.480, 426.033 372.395, 435.974 371.934, 440.196 370.997, 450.152 370.060, 460.108 369.610, 464.884 368.817, 474.853 368.023, 484.821 367.606, 490.060 366.953, 500.038 366.300, 510.017 365.933, 515.620 365.418, 525.606 364.903, 535.593 364.601, 541.457 364.223, 551.450 364.144, 553.518 363.766, 563.510 363.617, 567.462 363.375, 577.460 363.133, 587.457 362.987, 593.524 362.881, 603.524 362.776, 613.523 362.713, 619.530 362.745, 629.530 362.778, 639.530 362.796, 645.368 362.968, 655.367 363.140, 665.365 363.236, 670.929 363.549, 680.924 363.863, 690.919 364.026, 696.104 364.486, 706.093 364.945, 716.083 365.162, 720.790 365.771, 730.772 366.381, 740.753 366.523, 743.072 366.634, 744.889 367.400, 754.859 368.165, 764.830 368.220, 765.542 368.432, 768.306 369.361, 778.263 369.635, 781.199 370.545, 790.956 371.644, 800.895 372.744, 810.835 372.957, 812.758 374.238, 822.676 375.519, 832.593 375.654, 833.641 377.128, 843.531 378.619, 853.539 380.300, 863.397 381.835, 872.398 383.739, 882.215 385.283, 890.170 387.307, 899.377 388.943, 906.815 391.358, 916.519 392.797, 922.302 395.508, 931.928 396.826, 936.609 399.865, 946.136 401.009, 949.718 404.418, 959.119 405.326, 961.623 409.155, 970.861 409.760, 972.320 414.067, 981.346 414.292, 981.816 418.903, 990.120 423.576, 997.248 428.295, 1003.219 433.044, 1008.059 437.808, 1011.793 442.573, 1014.454 447.327, 1016.074 452.057, 1016.687 456.848, 1017.081 461.484, 1016.720 466.076, 1015.425 470.614, 1013.237 475.090, 1010.193 479.496, 1006.332 483.825, 1001.693 488.071, 996.315 492.229, 990.235 496.294, 983.490 500.261, 976.116 504.128, 968.149 507.890, 959.622 511.545, 950.569 515.026, 941.195 515.091, 941.021 518.336, 931.563 518.525, 931.010 521.556, 921.480 521.847, 920.563 524.682, 910.974 525.055, 909.710 527.710, 900.069 528.148, 898.478 530.637, 888.792 531.125, 886.891 533.460, 877.167 533.986, 874.974 536.177, 865.217 536.731, 862.752 538.787, 852.965 539.358, 850.245 541.287, 840.433 541.869, 837.475 543.678, 827.640 544.262, 824.462 545.958, 814.607 546.539, 811.226 547.630, 804.440 " fill="none" stroke="rgb(0, 0, 0)" stroke-linecap="butt" stroke-linejoin="round" stroke-opacity="1.0" stroke-width="3.0" />
            <path d=" M 560.399, 701.276 560.585, 699.288 561.435, 689.325 561.824, 684.762 562.593, 674.791 562.950, 670.160 563.638, 660.184 563.962, 655.495 564.571, 645.513 564.861, 640.778 565.392, 630.792 565.646, 626.020 566.100, 616.030 566.318, 611.233 566.696, 601.240 566.877, 596.426 567.178, 586.431 567.323, 581.612 567.547, 571.614 567.656, 566.799 567.803, 556.800 567.874, 552.000 567.945, 542.000 567.979, 537.223 567.973, 527.223 567.970, 522.480 567.950, 520.116 " fill="none" stroke="rgb(0, 0, 0)" stroke-linecap="butt" stroke-linejoin="round" stroke-opacity="1.0" stroke-width="3.0" />
            <path d=" M 477.255, 141.130 472.584, 142.031 467.843, 143.927 463.042, 146.852 458.192, 150.838 453.305, 155.914 448.395, 162.108 443.474, 169.444 438.558, 177.940 434.043, 186.862 433.664, 187.612 429.581, 196.740 428.807, 198.470 425.105, 207.760 424.006, 210.520 420.644, 219.938 419.279, 223.759 416.238, 233.224 414.646, 238.180 411.861, 247.785 410.126, 253.768 407.590, 263.441 405.739, 270.501 403.432, 280.231 401.507, 288.348 399.410, 298.125 397.448, 307.271 397.419, 307.419 396.512, 312.106 394.611, 321.923 393.584, 327.224 391.867, 337.075 390.149, 346.926 389.935, 348.152 388.391, 358.032 386.846, 367.912 386.520, 369.992 385.140, 379.896 385.060, 380.471 383.679, 390.375 383.359, 392.674 382.135, 402.598 380.911, 412.523 380.467, 416.118 379.394, 426.061 378.320, 436.003 377.863, 440.241 376.935, 450.198 376.008, 460.155 375.561, 464.949 375.240, 469.019 374.454, 478.988 373.668, 488.957 373.574, 490.144 372.927, 500.123 372.279, 510.102 371.915, 515.724 371.404, 525.711 370.893, 535.698 370.592, 541.582 370.216, 551.575 369.840, 561.568 369.613, 567.608 369.488, 572.802 369.246, 582.799 369.005, 592.796 368.984, 593.690 368.877, 603.690 368.771, 613.689 368.707, 619.717 368.736, 629.717 368.765, 639.717 368.782, 645.575 368.949, 655.574 369.116, 665.572 369.209, 671.155 369.517, 681.150 369.824, 691.146 369.984, 696.349 370.435, 706.339 370.886, 716.329 371.099, 721.054 371.698, 731.036 372.298, 741.018 372.547, 745.170 373.300, 755.142 374.054, 765.113 374.318, 768.604 375.232, 778.562 376.146, 788.520 376.398, 791.270 377.482, 801.211 378.565, 811.152 378.776, 813.086 380.038, 823.006 381.300, 832.926 381.434, 833.982 382.887, 843.876 384.358, 853.894 386.016, 863.755 387.530, 872.764 389.408, 882.586 390.931, 890.545 392.404, 897.339 394.542, 907.199 395.746, 912.106 398.130, 921.818 398.345, 922.694 400.398, 930.084 401.260, 933.189 402.320, 937.007 405.323, 946.545 406.448, 950.121 406.773, 951.028 410.142, 960.444 410.710, 962.030 414.496, 971.285 415.087, 972.730 418.504, 979.986 419.560, 982.228 424.112, 990.532 428.726, 997.660 433.385, 1003.630 438.074, 1008.468 442.778, 1012.200 447.483, 1014.857 452.177, 1016.473 456.848, 1017.081 " fill="none" stroke="rgb(0, 0, 0)" stroke-linecap="butt" stroke-linejoin="round" stroke-opacity="1.0" stroke-width="3.0" />
            <path d=" M 559.085, 355.537 558.748, 352.367 558.483, 350.112 " fill="none" stroke="rgb(0, 0, 0)" stroke-linecap="butt" stroke-linejoin="round" stroke-opacity="1.0" stroke-width="3.0" />
            <path d=" M 482.965, 507.323 482.462, 507.315 482.097, 507.366 481.732, 507.625 481.375, 508.087 481.031, 508.747 480.705, 509.592 480.405, 510.610 480.134, 511.783 479.897, 513.091 479.699, 514.513 479.543, 516.023 479.432, 517.596 479.368, 519.205 479.352, 520.822 479.383, 522.420 479.463, 523.970 482.422, 524.024 " fill="none" stroke="rgb(0, 0, 0)" stroke-linecap="butt" stroke-linejoin="round" stroke-opacity="1.0" stroke-width="3.0" />
            <path d=" M 565.358, 525.542 565.305, 523.976 565.289, 522.361 565.310, 520.726 565.333, 520.070 565.367, 519.099 565.382, 518.844 565.429, 518.036 565.459, 517.508 565.586, 515.980 565.744, 514.542 565.931, 513.218 566.143, 512.031 566.378, 511.001 566.526, 510.496 566.630, 510.145 566.896, 509.477 567.170, 509.008 567.449, 508.745 567.728, 508.692 " fill="none" stroke="rgb(0, 0, 0)" stroke-linecap="butt" stroke-linejoin="round" stroke-opacity="1.0" stroke-width="3.0" />
            <path d=" M 567.978, 520.117 567.949, 519.649 567.946, 519.615 567.907, 519.223 567.853, 518.851 567.787, 518.543 567.713, 518.306 567.632, 518.148 567.545, 518.073 " fill="none" stroke="rgb(0, 0, 0)" stroke-linecap="butt" stroke-linejoin="round" stroke-opacity="1.0" stroke-width="3.0" />
            <path d=" M 528.951, 466.527 529.246, 471.959 529.758, 471.965 534.848, 472.023 535.051, 471.681 534.620, 466.487 529.267, 466.125 529.199, 466.121 528.951, 466.527 " fill="none" stroke="rgb(0, 0, 0)" stroke-linecap="butt" stroke-linejoin="round" stroke-opacity="1.0" stroke-width="3.0" />
            <path d=" M 534.560, 466.588 528.951, 466.527 " fill="none" stroke="rgb(0, 0, 0)" stroke-linecap="butt" stroke-linejoin="round" stroke-opacity="1.0" stroke-width="3.0" />
            <path d=" M 534.848, 472.023 534.560, 466.588 534.620, 466.487 " fill="none" stroke="rgb(0, 0, 0)" stroke-linecap="butt" stroke-linejoin="round" stroke-opacity="1.0" stroke-width="3.0" />
            <path d=" M 530.769, 469.122 530.759, 469.333 530.795, 469.554 530.816, 469.619 530.894, 469.818 531.010, 469.993 531.158, 470.139 531.203, 470.182 531.369, 470.286 531.426, 470.317 531.594, 470.373 531.647, 470.391 531.712, 470.405 531.788, 470.414 531.873, 470.417 531.956, 470.416 532.039, 470.409 532.119, 470.398 532.193, 470.382 532.258, 470.362 532.312, 470.340 532.468, 470.268 532.528, 470.231 532.679, 470.112 532.786, 469.997 " fill="none" stroke="rgb(0, 0, 0)" stroke-linecap="butt" stroke-linejoin="round" stroke-opacity="1.0" stroke-width="3.0" />
            <path d=" M 530.856, 468.813 530.821, 468.918 530.820, 468.922 530.803, 468.990 530.769, 469.122 530.808, 468.958 " fill="none" stroke="rgb(0, 0, 0)" stroke-linecap="butt" stroke-linejoin="round" stroke-opacity="1.0" stroke-width="3.0" />
            <path d=" M 532.786, 469.997 532.875, 469.874 532.944, 469.739 532.992, 469.594 533.018, 469.443 533.021, 469.289 533.002, 469.134 532.960, 468.982 532.896, 468.836 532.812, 468.699 532.709, 468.574 532.590, 468.463 532.457, 468.368 532.313, 468.292 532.160, 468.236 532.002, 468.202 531.842, 468.189 531.683, 468.198 531.528, 468.229 531.381, 468.282 531.245, 468.355 531.122, 468.446 531.015, 468.555 530.925, 468.678 530.856, 468.813 " fill="none" stroke="rgb(0, 0, 0)" stroke-linecap="butt" stroke-linejoin="round" stroke-opacity="1.0" stroke-width="3.0" />
            <path d=" M 634.420, 851.220 636.588, 851.676 644.474, 852.856 652.342, 853.304 660.177, 853.037 667.962, 852.075 675.683, 850.437 683.325, 848.142 690.876, 845.213 698.324, 841.669 705.656, 837.533 712.863, 832.825 719.934, 827.569 726.860, 821.785 733.634, 815.496 740.247, 808.722 746.693, 801.485 752.964, 793.807 758.974, 785.814 759.054, 785.707 764.759, 777.494 764.959, 777.207 770.370, 768.798 770.673, 768.326 775.800, 759.741 776.192, 759.085 781.044, 750.341 781.511, 749.501 786.099, 740.616 786.626, 739.595 790.959, 730.582 791.535, 729.384 795.621, 720.257 796.234, 718.887 800.081, 709.656 800.721, 708.120 804.335, 698.796 804.991, 697.102 808.380, 687.694 809.044, 685.849 812.214, 676.365 812.878, 674.378 815.833, 664.824 816.489, 662.704 819.235, 653.088 819.876, 650.843 822.418, 641.171 823.038, 638.811 825.379, 629.089 825.973, 626.622 828.117, 616.855 828.679, 614.292 830.629, 604.484 831.155, 601.836 832.914, 591.991 833.401, 589.266 834.970, 579.390 835.413, 576.599 836.795, 566.695 837.193, 563.847 838.388, 553.919 838.737, 551.025 839.748, 541.076 840.045, 538.146 840.872, 528.180 841.117, 525.225 841.759, 515.245 841.951, 512.274 842.409, 502.285 842.545, 499.308 842.819, 489.312 842.900, 486.341 842.988, 476.341 843.014, 473.386 842.915, 463.387 842.886, 460.458 842.599, 450.462 842.516, 447.569 842.038, 437.581 841.902, 434.736 841.231, 424.758 841.043, 421.971 840.176, 412.009 839.940, 409.290 838.873, 399.347 838.590, 396.708 837.320, 386.789 836.994, 384.240 835.516, 374.349 835.151, 371.901 833.460, 362.044 833.060, 359.707 831.151, 349.891 830.721, 347.675 828.588, 337.905 828.133, 335.821 825.770, 326.105 825.297, 324.163 822.695, 314.507 822.213, 312.717 819.365, 303.131 818.881, 301.502 815.777, 291.996 815.301, 290.537 811.932, 281.121 811.474, 279.840 807.830, 270.527 807.400, 269.430 803.470, 260.235 803.083, 259.328 798.854, 250.266 798.522, 249.554 793.982, 240.644 793.719, 240.129 788.855, 231.392 788.679, 231.074 783.476, 222.534 783.402, 222.412 777.893, 214.164 772.155, 206.353 766.193, 199.002 760.011, 192.135 753.617, 185.775 747.016, 179.946 740.215, 174.672 733.222, 169.976 726.047, 165.883 718.700, 162.416 711.190, 159.598 703.530, 157.452 695.732, 156.000 687.811, 155.263 679.781, 155.262 671.657, 156.015 669.417, 156.239 " fill="none" stroke="rgb(0, 0, 0)" stroke-linecap="butt" stroke-linejoin="round" stroke-opacity="1.0" stroke-width="3.0" />
            <path d=" M 636.588, 851.676 635.192, 851.335 628.702, 849.749 620.835, 847.058 613.006, 843.591 605.235, 839.336 597.542, 834.283 589.950, 828.427 582.481, 821.761 575.484, 814.617 575.158, 814.284 568.623, 806.714 568.003, 805.996 561.924, 798.056 561.041, 796.902 555.408, 788.640 554.296, 787.009 551.082, 781.731 549.103, 778.481 547.791, 776.327 547.594, 775.964 543.732, 768.874 542.216, 766.090 541.552, 764.870 538.861, 759.346 535.602, 752.657 535.271, 751.897 531.279, 742.729 529.964, 739.709 526.345, 730.387 524.663, 726.051 522.830, 720.735 519.719, 711.714 517.860, 705.608 515.156, 696.730 513.445, 690.319 510.993, 681.136 508.737, 671.394 507.251, 664.974 505.308, 655.165 503.946, 648.288 502.308, 638.423 501.096, 631.126 499.754, 621.217 498.714, 613.540 497.662, 603.595 496.814, 595.582 496.046, 585.612 495.407, 577.311 494.918, 567.323 494.500, 558.786 494.286, 548.788 494.100, 540.066 494.159, 530.067 494.211, 521.216 494.364, 516.567 494.693, 506.573 494.834, 502.298 495.432, 492.316 495.968, 483.377 496.835, 473.415 497.609, 464.517 498.746, 454.582 499.753, 445.783 501.160, 435.882 502.389, 427.237 504.070, 417.379 505.509, 408.942 507.466, 399.135 509.098, 390.958 511.336, 381.212 513.143, 373.344 515.666, 363.668 517.625, 356.157 520.440, 346.561 521.541, 342.809 522.527, 339.448 525.640, 329.945 525.950, 328.999 527.828, 323.269 531.247, 313.872 533.506, 307.667 534.235, 305.855 535.517, 302.672 537.572, 297.567 538.393, 295.528 539.538, 292.684 542.178, 286.739 542.540, 285.924 543.882, 282.903 545.900, 278.360 547.307, 275.484 549.345, 271.319 549.377, 271.252 549.424, 271.157 550.785, 268.374 552.567, 264.731 557.308, 255.926 558.724, 253.296 559.514, 251.829 561.090, 249.169 566.188, 240.567 566.713, 239.681 572.182, 231.308 573.216, 229.725 574.140, 228.310 579.990, 220.200 581.767, 217.737 588.010, 209.925 589.568, 207.977 596.214, 200.505 597.516, 199.041 604.573, 191.956 605.587, 190.939 613.058, 184.292 613.754, 183.674 621.639, 177.524 621.992, 177.248 630.279, 171.659 638.591, 166.903 646.905, 162.971 655.201, 159.855 663.458, 157.541 671.484, 156.047 671.657, 156.015 " fill="none" stroke="rgb(0, 0, 0)" stroke-linecap="butt" stroke-linejoin="round" stroke-opacity="1.0" stroke-width="3.0" />
            <path d=" M 669.417, 156.239 661.207, 157.765 652.939, 160.079 644.633, 163.194 636.308, 167.123 627.987, 171.877 619.690, 177.461 611.800, 183.604 611.442, 183.882 603.964, 190.521 603.267, 191.141 596.203, 198.219 595.188, 199.236 588.534, 206.701 587.231, 208.163 580.981, 215.969 579.423, 217.914 573.565, 226.019 571.789, 228.477 566.313, 236.845 564.356, 239.836 559.250, 248.435 558.365, 249.925 557.150, 251.972 552.402, 260.774 550.197, 264.861 547.973, 269.399 546.923, 271.543 546.638, 272.123 543.525, 278.476 543.149, 279.320 541.807, 282.336 541.179, 283.747 539.025, 288.589 537.158, 292.784 537.024, 293.118 536.172, 295.229 535.380, 297.194 534.661, 298.976 533.374, 302.166 531.122, 307.750 527.697, 317.146 525.440, 323.336 522.322, 332.837 520.425, 338.618 520.136, 339.497 517.317, 349.091 515.232, 356.186 512.705, 365.862 510.748, 373.354 509.284, 379.721 507.043, 389.467 506.702, 390.948 504.742, 400.754 503.112, 408.911 501.429, 418.769 499.992, 427.185 498.583, 437.085 497.356, 445.710 496.218, 455.645 495.213, 464.423 494.346, 474.385 493.573, 483.261 492.975, 493.243 492.441, 502.160 492.266, 507.473 492.207, 509.279 491.961, 516.762 491.932, 517.655 491.895, 518.777 491.820, 521.057 491.763, 531.057 491.712, 539.886 491.928, 549.883 492.116, 558.584 492.607, 568.572 493.026, 577.089 493.798, 587.059 494.438, 595.340 495.494, 605.284 496.343, 613.277 497.689, 623.186 498.730, 630.845 499.914, 637.951 501.557, 647.815 501.586, 647.988 503.534, 657.797 504.897, 664.657 507.159, 674.398 508.646, 680.802 510.925, 689.318 512.816, 696.380 515.736, 705.944 517.289, 711.030 517.386, 711.350 520.653, 720.801 522.337, 725.674 525.964, 734.993 527.647, 739.319 531.647, 748.484 533.293, 752.255 534.817, 755.377 538.404, 762.721 539.252, 764.458 541.785, 769.098 543.301, 771.876 545.500, 775.905 547.206, 778.700 548.723, 781.185 550.702, 784.429 552.014, 786.578 557.656, 794.835 558.769, 796.464 564.856, 804.399 565.741, 805.552 572.283, 813.115 572.905, 813.834 579.909, 820.972 580.239, 821.307 587.718, 827.970 595.321, 833.825 603.024, 838.875 610.806, 843.130 618.646, 846.598 626.524, 849.290 634.420, 851.220 " fill="none" stroke="rgb(0, 0, 0)" stroke-linecap="butt" stroke-linejoin="round" stroke-opacity="1.0" stroke-width="3.0" />
            <path d=" M 769.970, 566.777 769.865, 567.385 767.917, 577.193 767.493, 579.328 765.295, 589.084 764.838, 591.113 762.385, 600.807 761.902, 602.715 759.189, 612.340 758.689, 614.114 755.711, 623.660 755.203, 625.287 751.952, 634.743 751.449, 636.209 747.917, 645.564 747.429, 646.858 743.609, 656.099 743.150, 657.210 739.031, 666.323 738.616, 667.242 734.188, 676.208 733.833, 676.928 729.085, 685.730 728.807, 686.245 723.727, 694.860 723.545, 695.169 718.121, 703.570 718.055, 703.673 712.344, 711.731 706.421, 719.320 700.296, 726.413 693.978, 732.984 687.479, 739.007 680.811, 744.458 673.987, 749.311 667.020, 753.538 659.926, 757.117 652.719, 760.025 645.418, 762.237 638.039, 763.730 630.603, 764.483 625.088, 764.480 " fill="none" stroke="rgb(0, 0, 0)" stroke-linecap="butt" stroke-linejoin="round" stroke-opacity="1.0" stroke-width="3.0" />
            <path d=" M 784.665, 571.311 774.672, 570.949 773.854, 570.919 769.970, 566.777 763.129, 559.483 756.288, 552.189 752.568, 548.223 751.950, 547.563 751.331, 546.902 750.711, 546.240 750.092, 545.577 749.387, 544.672 748.756, 543.548 748.653, 543.298 748.212, 542.226 747.766, 540.731 747.559, 539.726 747.429, 539.093 747.427, 539.074 747.206, 537.342 747.101, 535.512 747.117, 533.638 747.239, 531.957 747.253, 531.757 747.422, 530.524 747.507, 529.906 747.873, 528.119 748.345, 526.432 748.913, 524.876 749.566, 523.483 750.292, 522.278 751.076, 521.284 751.903, 520.520 752.206, 520.335 752.340, 520.253 752.757, 519.999 753.620, 519.731 754.345, 519.615 755.070, 519.498 755.794, 519.381 756.516, 519.265 756.879, 519.206 766.752, 517.617 776.625, 516.029 781.352, 515.269 " fill="none" stroke="rgb(0, 0, 0)" stroke-linecap="butt" stroke-linejoin="round" stroke-opacity="1.0" stroke-width="3.0" />
            <path d=" M 681.352, 220.726 676.230, 221.013 673.001, 221.194 664.589, 222.466 656.143, 224.571 655.284, 224.872 647.691, 227.535 639.263, 231.376 630.890, 236.098 622.601, 241.697 614.755, 247.897 614.424, 248.159 607.022, 254.883 606.385, 255.462 599.436, 262.653 598.517, 263.603 592.029, 271.214 590.859, 272.587 584.833, 280.567 583.448, 282.400 577.876, 290.703 576.319, 293.023 571.187, 301.605 569.504, 304.421 564.795, 313.244 563.028, 316.555 558.722, 325.580 556.913, 329.371 556.163, 331.135 554.359, 335.373 553.808, 336.666 553.324, 337.802 553.229, 338.026 551.791, 341.405 551.185, 342.827 550.310, 345.146 548.995, 348.631 547.601, 352.324 545.879, 356.888 545.739, 357.311 544.401, 361.345 541.253, 370.836 541.030, 371.509 539.026, 378.454 537.703, 383.039 536.665, 386.638 534.260, 396.345 533.187, 400.677 532.806, 402.214 530.759, 412.002 529.469, 418.172 527.766, 428.026 526.658, 434.441 526.371, 436.522 525.004, 446.428 524.367, 451.040 523.315, 460.985 522.591, 467.819 521.852, 477.792 521.339, 484.704 520.912, 494.695 520.804, 497.231 520.703, 499.601 520.616, 501.624 520.612, 502.011 520.499, 512.010 520.440, 517.254 520.426, 518.505 520.526, 523.468 520.694, 531.764 520.715, 532.792 520.765, 535.275 521.287, 545.261 521.632, 551.863 522.478, 561.827 523.019, 568.200 524.195, 578.130 524.801, 583.245 524.916, 584.217 526.431, 594.102 527.096, 598.446 527.312, 599.852 529.173, 609.677 530.189, 615.042 532.410, 624.792 533.534, 629.729 534.302, 632.595 536.893, 642.254 537.324, 643.859 540.298, 653.407 541.538, 657.385 543.483, 662.811 543.725, 663.487 544.601, 665.931 545.019, 667.096 546.153, 670.259 547.182, 672.769 550.974, 682.022 551.145, 682.440 551.247, 682.658 552.300, 684.914 552.836, 686.065 553.818, 688.169 556.488, 693.894 556.869, 694.613 557.347, 695.515 558.424, 697.549 560.399, 701.276 562.154, 704.590 567.310, 713.159 568.117, 714.500 573.765, 722.752 574.348, 723.603 580.505, 731.483 580.818, 731.883 587.500, 739.327 594.366, 745.926 601.387, 751.675 608.536, 756.576 615.786, 760.630 623.113, 763.843 625.088, 764.480 630.490, 766.225 637.892, 767.790 645.298, 768.550 652.685, 768.521 660.032, 767.725 667.319, 766.180 674.527, 763.908 681.639, 760.931 688.637, 757.275 695.508, 752.964 702.235, 748.021 708.806, 742.474 715.208, 736.350 721.430, 729.673 727.461, 722.469 733.291, 714.767 738.912, 706.592 744.221, 698.117 744.314, 697.968 749.282, 689.289 749.491, 688.923 754.131, 680.064 754.436, 679.482 758.760, 670.466 759.142, 669.671 763.162, 660.515 763.603, 659.513 767.331, 650.234 767.814, 649.033 771.260, 639.646 771.771, 638.257 774.944, 628.774 775.468, 627.207 778.376, 617.639 778.903, 615.906 781.553, 606.264 782.071, 604.379 784.469, 594.671 784.969, 592.649 787.121, 582.883 787.594, 580.737 789.505, 570.921 789.944, 568.666 791.617, 558.807 792.015, 556.458 793.455, 546.562 793.808, 544.135 " fill="none" stroke="rgb(0, 0, 0)" stroke-linecap="butt" stroke-linejoin="round" stroke-opacity="1.0" stroke-width="3.0" />
            <path d=" M 781.352, 515.269 791.329, 515.941 792.068, 515.991 " fill="none" stroke="rgb(0, 0, 0)" stroke-linecap="butt" stroke-linejoin="round" stroke-opacity="1.0" stroke-width="3.0" />
            <path d=" M 825.263, 530.710 825.900, 523.768 826.199, 520.501 826.855, 510.522 827.031, 507.835 827.426, 497.843 827.491, 496.198 827.494, 496.128 827.533, 495.140 827.547, 494.094 827.681, 484.095 827.703, 482.441 827.576, 472.442 827.542, 469.760 827.157, 459.768 827.055, 457.120 826.415, 447.140 826.248, 444.540 825.348, 434.581 825.118, 432.043 823.948, 422.112 823.659, 419.656 823.578, 419.103 822.129, 409.209 821.865, 407.405 820.132, 397.557 819.737, 395.317 817.713, 385.524 817.277, 383.414 814.959, 373.687 814.490, 371.721 811.876, 362.069 811.385, 360.254 808.469, 350.688 807.966, 349.035 804.733, 339.572 804.229, 338.096 800.664, 328.753 800.174, 327.470 796.261, 318.267 795.802, 317.188 791.529, 308.147 791.119, 307.278 786.476, 298.421 786.131, 297.763 781.111, 289.115 780.849, 288.663 775.447, 280.247 775.284, 279.993 769.439, 271.789 763.320, 264.089 756.932, 256.931 750.288, 250.346 743.399, 244.357 736.281, 238.984 728.949, 234.238 722.233, 230.589 721.417, 230.146 713.701, 226.748 705.816, 224.082 697.782, 222.178 689.620, 221.055 681.676, 220.739 681.352, 220.726 " fill="none" stroke="rgb(0, 0, 0)" stroke-linecap="butt" stroke-linejoin="round" stroke-opacity="1.0" stroke-width="3.0" />
            <path d=" M 655.284, 224.872 658.182, 225.754 664.584, 228.498 670.820, 231.961 676.876, 236.103 682.742, 240.884 688.409, 246.274 693.864, 252.263 699.096, 258.830 704.097, 265.951 708.858, 273.592 713.376, 281.720 717.649, 290.293 721.675, 299.278 725.406, 308.556 725.447, 308.658 728.833, 318.067 728.958, 318.414 732.014, 327.936 732.203, 328.523 734.946, 338.140 735.179, 338.959 737.625, 348.655 737.886, 349.691 740.054, 359.453 740.328, 360.686 742.233, 370.503 742.507, 371.914 744.157, 381.777 744.421, 383.355 745.820, 393.257 746.065, 394.992 747.218, 404.926 747.435, 406.803 748.347, 416.762 748.531, 418.766 749.210, 428.743 749.354, 430.856 749.808, 440.846 749.908, 443.048 750.146, 453.045 750.200, 455.317 750.227, 465.317 750.233, 467.642 750.047, 477.640 750.003, 480.003 749.602, 489.995 749.507, 492.381 748.892, 502.363 748.744, 504.755 747.916, 514.720 747.718, 517.101 747.069, 523.303 746.799, 524.452 746.477, 525.550 746.108, 526.586 745.695, 527.548 745.242, 528.426 744.755, 529.211 744.631, 529.375 " fill="none" stroke="rgb(0, 0, 0)" stroke-linecap="butt" stroke-linejoin="round" stroke-opacity="1.0" stroke-width="3.0" />
            <path d=" M 719.085, 530.557 719.076, 531.010 719.022, 531.558 728.341, 535.186 734.229, 537.479 743.547, 541.107 744.892, 541.631 748.653, 543.298 " fill="none" stroke="rgb(0, 0, 0)" stroke-linecap="butt" stroke-linejoin="round" stroke-opacity="1.0" stroke-width="3.0" />
            <path d=" M 803.174, 536.994 812.378, 540.905 812.927, 541.138 821.950, 544.972 823.568, 545.659 823.815, 545.752 829.467, 547.869 " fill="none" stroke="rgb(0, 0, 0)" stroke-linecap="butt" stroke-linejoin="round" stroke-opacity="1.0" stroke-width="3.0" />
            <path d=" M 799.006, 546.270 799.673, 546.305 809.659, 546.829 811.953, 546.949 813.884, 547.051 821.649, 547.458 823.596, 547.561 829.467, 547.869 830.633, 537.937 831.008, 534.745 831.917, 524.787 832.213, 521.546 832.867, 511.568 833.082, 508.295 833.480, 498.303 833.611, 495.014 833.753, 485.015 833.800, 481.727 833.685, 471.728 833.648, 468.457 833.275, 458.464 833.154, 455.227 832.520, 445.247 832.318, 442.061 831.420, 432.102 831.138, 428.983 829.973, 419.051 829.617, 416.015 828.179, 406.119 827.752, 403.184 826.036, 393.332 825.545, 390.513 823.545, 380.715 822.997, 378.027 820.706, 368.293 820.109, 365.751 817.520, 356.092 816.882, 353.713 813.985, 344.141 813.318, 341.937 813.229, 341.674 810.015, 332.204 809.420, 330.451 805.880, 321.099 805.346, 319.688 805.192, 319.282 801.312, 310.065 800.636, 308.458 796.405, 299.397 795.756, 298.006 791.162, 289.124 790.559, 287.956 785.588, 279.279 785.048, 278.337 779.687, 269.895 779.231, 269.178 775.316, 263.628 773.116, 260.509 768.427, 254.545 766.709, 252.359 760.103, 244.852 760.022, 244.760 753.063, 237.742 745.844, 231.334 738.379, 225.567 730.681, 220.470 722.766, 216.075 714.649, 212.407 706.351, 209.495 697.889, 207.366 689.285, 206.046 680.562, 205.556 670.569, 205.950 665.357, 206.155 " fill="none" stroke="rgb(0, 0, 0)" stroke-linecap="butt" stroke-linejoin="round" stroke-opacity="1.0" stroke-width="3.0" />
            <path d=" M 680.562, 205.556 671.743, 205.919 668.495, 206.371 662.856, 207.156 660.208, 207.786 653.926, 209.282 644.982, 212.310 636.055, 216.253 627.285, 221.059 627.175, 221.119 618.821, 226.616 618.375, 226.910 610.463, 233.026 609.687, 233.625 602.233, 240.291 601.148, 241.262 594.157, 248.412 592.790, 249.810 586.261, 257.385 584.649, 259.255 578.577, 267.200 576.761, 269.577 571.139, 277.847 569.162, 280.754 563.977, 289.306 561.885, 292.756 557.127, 301.552 554.966, 305.547 553.104, 309.408 549.934, 315.985 548.715, 318.514 548.493, 318.973 548.438, 319.088 548.045, 320.005 544.107, 329.196 542.334, 333.335 541.976, 334.278 540.637, 337.810 537.091, 347.161 536.683, 348.237 533.520, 357.723 531.514, 363.738 528.726, 373.342 528.579, 373.847 526.856, 379.782 524.434, 389.484 522.732, 396.303 520.669, 406.088 519.162, 413.236 517.453, 423.089 516.166, 430.510 " fill="none" stroke="rgb(0, 0, 0)" stroke-linecap="butt" stroke-linejoin="round" stroke-opacity="1.0" stroke-width="3.0" />
            <path d=" M 812.606, 532.032 812.985, 531.384 813.393, 530.565 813.746, 529.732 813.771, 529.674 814.117, 528.717 814.429, 527.703 823.414, 530.197 825.263, 530.710 825.027, 531.282 824.623, 532.106 824.193, 532.851 823.741, 533.512 823.270, 534.084 823.041, 534.310 822.785, 534.562 822.288, 534.941 821.783, 535.218 821.275, 535.389 820.768, 535.453 820.266, 535.407 819.773, 535.250 815.343, 533.261 813.931, 532.627 813.485, 532.427 812.606, 532.032 807.734, 529.845 807.402, 528.328 806.972, 526.945 806.450, 525.718 805.845, 524.668 805.166, 523.812 804.425, 523.166 803.635, 522.741 802.808, 522.544 797.916, 522.257 797.824, 522.252 791.527, 521.883 790.938, 521.849 790.081, 521.883 789.252, 522.151 788.466, 522.649 787.704, 523.367 786.976, 524.293 786.775, 524.624 786.296, 525.413 785.676, 526.706 785.126, 528.153 784.656, 529.727 784.275, 531.403 783.987, 533.150 787.535, 534.638 788.407, 535.004 790.179, 535.118 791.392, 535.196 798.484, 535.651 798.896, 535.677 800.285, 535.766 800.380, 535.213 800.511, 534.691 800.676, 534.216 800.869, 533.800 801.086, 533.455 801.321, 533.190 801.567, 533.012 801.817, 532.926 802.064, 532.934 " fill="none" stroke="rgb(0, 0, 0)" stroke-linecap="butt" stroke-linejoin="round" stroke-opacity="1.0" stroke-width="3.0" />
            <path d=" M 790.179, 535.118 789.114, 543.895 787.670, 553.790 787.320, 556.188 785.591, 566.037 784.665, 571.311 777.875, 563.969 775.537, 561.440 771.622, 557.208 764.833, 549.866 764.068, 549.039 763.456, 548.376 762.843, 547.712 762.229, 547.047 761.616, 546.382 760.918, 545.473 760.294, 544.344 760.250, 544.237 759.756, 543.017 759.316, 541.515 758.983, 539.869 758.764, 538.110 758.703, 537.023 758.662, 536.271 758.679, 534.388 758.816, 532.498 759.069, 530.637 759.152, 530.230 759.434, 528.841 759.904, 527.145 760.469, 525.582 761.117, 524.181 761.838, 522.970 762.616, 521.970 763.436, 521.202 764.283, 520.678 765.139, 520.408 765.858, 520.291 766.576, 520.173 767.294, 520.055 768.010, 519.937 768.369, 519.878 778.238, 518.259 781.120, 517.787 790.988, 516.168 792.068, 515.991 791.527, 521.883 " fill="none" stroke="rgb(0, 0, 0)" stroke-linecap="butt" stroke-linejoin="round" stroke-opacity="1.0" stroke-width="3.0" />
            <path d=" M 515.048, 412.738 515.676, 422.719 516.166, 430.510 514.793, 440.416 513.720, 448.152 512.664, 458.096 511.826, 465.986 511.086, 475.958 510.494, 483.935 510.069, 493.926 509.763, 501.141 509.729, 501.921 509.621, 511.920 509.535, 519.864 509.746, 529.862 509.910, 537.688 510.442, 547.673 510.849, 555.314 511.708, 565.277 512.345, 572.668 513.538, 582.596 514.389, 589.676 515.922, 599.558 516.964, 606.271 518.848, 616.092 520.056, 622.386 522.302, 632.131 523.216, 636.097 523.645, 637.958 526.266, 647.608 527.711, 652.929 530.720, 662.466 532.228, 667.248 535.641, 676.648 537.173, 680.866 541.008, 690.102 541.651, 691.650 542.518, 693.739 545.206, 699.423 548.235, 705.829 549.070, 707.383 550.657, 710.335 554.295, 717.105 554.677, 717.731 556.235, 720.281 558.227, 723.543 560.667, 727.538 566.378, 735.747 567.323, 737.106 573.547, 744.933 574.230, 745.792 580.979, 753.171 581.358, 753.584 588.677, 760.473 596.157, 766.455 603.768, 771.534 611.481, 775.711 619.270, 778.994 627.106, 781.396 634.965, 782.932 642.821, 783.616 650.651, 783.466 658.432, 782.507 666.144, 780.760 673.767, 778.248 681.283, 774.997 688.673, 771.034 695.922, 766.386 703.015, 761.079 709.938, 755.142 716.678, 748.604 723.223, 741.493 729.563, 733.836 735.560, 725.833 735.688, 725.663 741.318, 717.398 741.588, 717.001 746.865, 708.507 747.256, 707.878 752.194, 699.182 752.683, 698.321 757.296, 689.449 757.864, 688.357 762.164, 679.330 762.791, 678.014 766.791, 668.849 767.460, 667.315 771.169, 658.029 771.864, 656.288 775.294, 646.895 776.001, 644.958 779.159, 635.470 779.865, 633.349 782.759, 623.777 783.452, 621.486 786.090, 611.840 786.760, 609.391 789.148, 599.681 789.785, 597.090 791.928, 587.323 792.525, 584.605 794.428, 574.788 794.976, 571.958 796.643, 562.098 797.137, 559.172 798.571, 549.275 799.006, 546.270 793.808, 544.135 798.914, 544.396 808.901, 544.908 812.453, 545.090 812.186, 544.978 802.965, 541.110 799.177, 539.522 798.664, 539.306 791.326, 536.228 791.381, 535.663 791.392, 535.196 " fill="none" stroke="rgb(0, 0, 0)" stroke-linecap="butt" stroke-linejoin="round" stroke-opacity="1.0" stroke-width="3.0" />
            <path d=" M 764.625, 537.414 764.314, 537.288 764.030, 537.020 763.783, 536.619 763.587, 536.103 763.449, 535.495 763.375, 534.823 763.370, 534.116 763.432, 533.404 763.559, 532.718 763.747, 532.090 763.985, 531.546 764.265, 531.110 764.572, 530.801 764.895, 530.633 765.219, 530.613 " fill="none" stroke="rgb(0, 0, 0)" stroke-linecap="butt" stroke-linejoin="round" stroke-opacity="1.0" stroke-width="3.0" />
            <path d=" M 765.219, 530.613 765.529, 530.743 765.813, 531.014 766.058, 531.416 766.253, 531.931 766.390, 532.536 766.463, 533.206 766.469, 533.911 766.407, 534.621 766.280, 535.304 766.094, 535.931 765.857, 536.474 765.578, 536.910 765.271, 537.221 764.949, 537.391 764.625, 537.414 " fill="none" stroke="rgb(0, 0, 0)" stroke-linecap="butt" stroke-linejoin="round" stroke-opacity="1.0" stroke-width="3.0" />
            <path d=" M 506.346, 447.483 505.286, 457.427 504.385, 465.895 503.643, 475.867 503.006, 484.425 502.581, 494.416 502.216, 502.992 502.211, 503.430 502.105, 513.429 502.019, 521.513 502.232, 531.511 502.411, 539.906 502.948, 549.892 503.389, 558.090 504.255, 568.053 504.945, 575.987 506.147, 585.915 507.068, 593.521 508.614, 603.400 509.743, 610.619 511.641, 620.437 512.952, 627.212 515.215, 636.953 516.676, 643.236 519.316, 652.881 520.891, 658.632 521.720, 661.237 524.752, 670.766 525.572, 673.345 529.013, 682.734 530.694, 687.324 534.560, 696.547 536.228, 700.526 540.122, 708.680 542.144, 712.914 543.750, 715.872 547.508, 722.793 548.410, 724.454 549.096, 725.565 553.142, 732.115 554.691, 734.623 554.997, 735.119 556.709, 737.550 561.873, 744.885 568.145, 752.673 569.004, 753.739 575.805, 761.070 576.359, 761.667 583.694, 768.464 583.908, 768.663 591.618, 774.724 599.459, 779.853 607.402, 784.056 615.419, 787.341 623.481, 789.722 631.562, 791.215 639.637, 791.836 647.682, 791.606 655.675, 790.549 663.593, 788.689 671.418, 786.049 679.130, 782.656 686.712, 778.539 694.148, 773.725 701.422, 768.242 708.520, 762.119 715.430, 755.386 722.140, 748.071 728.508, 740.360 728.639, 740.202 734.629, 732.194 734.917, 731.809 740.542, 723.542 740.965, 722.921 746.239, 714.425 746.774, 713.564 751.711, 704.868 752.336, 703.767 756.951, 694.895 757.646, 693.558 761.949, 684.531 762.697, 682.963 766.700, 673.798 767.482, 672.007 771.195, 662.722 771.997, 660.717 775.431, 651.325 776.237, 649.120 779.400, 639.633 780.198, 637.238 783.097, 627.668 783.875, 625.098 786.518, 615.453 787.266, 612.723 789.658, 603.013 790.366, 600.137 792.512, 590.370 793.173, 587.364 795.078, 577.547 795.684, 574.426 797.352, 564.566 797.896, 561.346 799.330, 551.449 799.808, 548.148 799.673, 546.305 " fill="none" stroke="rgb(0, 0, 0)" stroke-linecap="butt" stroke-linejoin="round" stroke-opacity="1.0" stroke-width="3.0" />
            <path d=" M 665.357, 206.155 657.335, 206.462 656.996, 206.512 649.231, 207.643 641.071, 209.712 632.879, 212.685 624.682, 216.574 616.511, 221.390 608.394, 227.133 600.702, 233.523 600.362, 233.805 593.148, 240.731 592.447, 241.404 585.709, 248.792 584.682, 249.919 578.409, 257.707 577.099, 259.334 571.280, 267.468 569.731, 269.633 564.354, 278.064 562.614, 280.792 557.660, 289.479 555.778, 292.780 551.754, 300.668 549.258, 305.561 548.474, 307.278 547.078, 310.340 546.258, 312.138 545.536, 313.720 543.084, 319.096 540.392, 325.713 539.052, 329.009 537.290, 333.341 533.890, 342.745 531.902, 348.242 528.859, 357.768 526.949, 363.745 526.702, 364.628 524.007, 374.258 522.458, 379.792 520.102, 389.511 518.452, 396.319 516.422, 406.110 515.048, 412.738 511.552, 422.108 508.880, 429.272 " fill="none" stroke="rgb(0, 0, 0)" stroke-linecap="butt" stroke-linejoin="round" stroke-opacity="1.0" stroke-width="3.0" />
            <path d=" M 508.880, 429.272 507.501, 439.177 506.346, 447.483 " fill="none" stroke="rgb(0, 0, 0)" stroke-linecap="butt" stroke-linejoin="round" stroke-opacity="1.0" stroke-width="3.0" />
            <path d=" M 813.229, 341.674 810.798, 331.974 810.659, 331.418 807.985, 321.783 807.686, 320.704 804.761, 311.142 804.478, 310.216 801.294, 300.736 801.037, 299.969 797.585, 290.584 797.364, 289.982 793.633, 280.704 793.459, 280.273 789.437, 271.118 789.325, 270.863 784.962, 261.772 780.371, 253.023 775.557, 244.635 770.523, 236.626 765.274, 229.014 759.813, 221.819 754.147, 215.062 748.280, 208.765 742.217, 202.951 735.966, 197.645 729.532, 192.872 722.925, 188.651 716.154, 184.998 709.228, 181.934 702.160, 179.476 694.959, 177.645 687.638, 176.461 680.210, 175.945 672.691, 176.119 671.053, 176.310 665.094, 177.001 657.437, 178.602 649.735, 180.930 642.008, 183.996 634.272, 187.808 626.548, 192.374 618.856, 197.701 611.219, 203.795 603.816, 210.518 603.659, 210.661 601.352, 213.021 596.199, 218.294 592.458, 222.571 588.860, 226.685 582.674, 234.542 581.666, 235.822 575.866, 243.968 574.639, 245.692 571.839, 250.028 567.802, 256.280 562.742, 264.905 562.004, 266.162 561.971, 266.220 561.612, 266.831 561.557, 266.925 561.180, 267.567 561.169, 267.588 561.159, 267.606 556.453, 276.429 554.797, 279.534 550.435, 288.533 549.900, 289.636 548.678, 292.158 546.611, 296.856 545.252, 299.944 543.098, 304.839 542.847, 305.409 542.351, 306.652 538.644, 315.939 538.513, 316.268 537.322, 319.250 537.202, 319.583 533.806, 328.989 532.125, 333.645 529.031, 343.154 527.275, 348.555 524.933, 356.592 522.793, 363.938 520.286, 373.619 518.698, 379.752 516.474, 389.501 515.004, 395.945 513.059, 405.754 511.727, 412.469 510.056, 422.329 508.880, 429.272 507.481, 439.174 506.474, 446.300 506.346, 447.483 505.213, 457.419 504.519, 463.498 503.658, 473.460 503.022, 480.808 502.427, 490.791 501.987, 498.175 501.792, 504.132 501.465, 514.126 501.419, 515.542 501.361, 525.542 501.318, 532.851 501.530, 542.848 501.682, 550.045 502.166, 560.033 502.507, 567.070 503.268, 577.041 503.788, 583.872 504.832, 593.817 505.523, 600.395 506.856, 610.306 507.701, 616.590 509.328, 626.456 510.309, 632.407 512.235, 642.220 513.332, 647.803 515.566, 657.550 516.755, 662.735 519.308, 672.403 520.529, 677.029 520.564, 677.162 523.445, 686.738 524.741, 691.047 527.964, 700.513 529.271, 704.354 532.851, 713.691 534.137, 717.048 538.087, 726.235 538.279, 726.683 539.319, 729.101 541.844, 734.356 544.794, 740.493 545.387, 741.598 546.925, 744.466 550.539, 751.204 550.836, 751.700 552.369, 754.262 554.335, 757.546 556.533, 761.219 562.090, 769.532 562.753, 770.524 568.746, 778.529 569.179, 779.107 575.619, 786.756 575.789, 786.958 582.564, 794.069 589.484, 800.434 596.527, 806.054 603.672, 810.935 610.897, 815.086 618.183, 818.515 625.512, 821.230 632.419, 823.119 632.867, 823.242 640.230, 824.559 647.586, 825.191 654.919, 825.150 662.214, 824.456 669.457, 823.127 676.633, 821.186 683.730, 818.649 690.738, 815.536 697.643, 811.863 704.438, 807.649 711.110, 802.907 717.652, 797.658 724.055, 791.924 730.311, 785.727 736.413, 779.089 742.355, 772.029 748.131, 764.566 753.735, 756.717 759.161, 748.499 764.404, 739.927 769.340, 731.230 769.459, 731.020 774.125, 722.175 774.323, 721.799 778.728, 712.821 778.993, 712.282 783.146, 703.186 783.465, 702.488 787.375, 693.284 787.737, 692.433 791.411, 683.132 791.806, 682.132 795.249, 672.743 795.668, 671.601 798.885, 662.133 799.320, 660.854 802.317, 651.313 802.759, 649.905 805.543, 640.301 805.985, 638.774 808.561, 629.112 808.997, 627.476 811.369, 617.761 811.793, 616.024 813.963, 606.262 814.369, 604.432 816.341, 594.628 816.725, 592.715 818.501, 582.874 818.860, 580.887 820.443, 571.013 820.772, 568.962 822.164, 559.060 822.459, 556.954 823.596, 547.561 " fill="none" stroke="rgb(0, 0, 0)" stroke-linecap="butt" stroke-linejoin="round" stroke-opacity="1.0" stroke-width="3.0" />
            <path d=" M 670.448, 176.324 662.841, 177.206 655.174, 178.807 647.462, 181.134 639.725, 184.199 631.980, 188.008 624.247, 192.571 616.546, 197.894 608.900, 203.983 601.491, 210.699 601.332, 210.843 595.983, 216.305 593.864, 218.469 587.274, 225.990 586.518, 226.852 586.105, 227.376 579.911, 235.227 579.317, 235.980 573.510, 244.121 572.283, 245.841 566.851, 254.237 565.440, 256.418 561.354, 263.369 558.812, 267.693 558.393, 268.479 558.323, 268.609 558.298, 268.655 558.177, 268.882 553.464, 277.702 552.424, 279.647 549.275, 286.133 546.301, 292.258 545.917, 293.129 544.553, 296.221 541.868, 302.312 541.073, 304.117 540.465, 305.495 537.696, 312.421 536.388, 315.692 534.937, 319.321 531.535, 328.724 529.736, 333.699 526.638, 343.208 524.883, 348.593 523.874, 352.051 521.073, 361.651 520.399, 363.959 517.888, 373.639 516.302, 379.754 514.075, 389.503 512.607, 395.930 510.659, 405.738 509.329, 412.435 507.656, 422.294 506.482, 429.218 505.081, 439.120 504.076, 446.227 502.946, 456.163 502.122, 463.405 501.260, 473.367 500.626, 480.696 500.031, 490.678 499.593, 498.043 499.267, 508.038 499.256, 508.378 499.027, 515.390 498.970, 525.389 498.929, 532.679 499.143, 542.676 499.296, 549.854 499.783, 559.842 500.125, 566.860 500.888, 576.831 501.410, 583.643 502.458, 593.588 503.149, 600.148 504.486, 610.059 505.332, 616.325 506.963, 626.191 507.945, 632.126 509.877, 641.937 510.974, 647.505 513.214, 657.251 514.403, 662.422 516.962, 672.089 518.218, 676.835 520.052, 682.913 522.403, 690.706 525.633, 700.170 526.940, 703.999 530.527, 713.334 531.813, 716.682 535.771, 725.865 537.003, 728.724 537.868, 730.519 541.444, 737.942 542.486, 740.106 544.992, 744.767 546.533, 747.633 548.240, 750.808 550.488, 754.556 552.004, 757.084 553.969, 760.360 554.242, 760.815 559.808, 769.123 560.471, 770.112 566.472, 778.111 566.906, 778.689 573.354, 786.332 573.525, 786.535 580.310, 793.642 587.240, 800.003 594.293, 805.621 601.447, 810.501 608.682, 814.651 615.978, 818.080 623.317, 820.796 630.682, 822.809 " fill="none" stroke="rgb(0, 0, 0)" stroke-linecap="butt" stroke-linejoin="round" stroke-opacity="1.0" stroke-width="3.0" />
            <path d=" M 672.691, 176.119 670.448, 176.324 " fill="none" stroke="rgb(0, 0, 0)" stroke-linecap="butt" stroke-linejoin="round" stroke-opacity="1.0" stroke-width="3.0" />
            <path d=" M 630.682, 822.809 632.867, 823.242 " fill="none" stroke="rgb(0, 0, 0)" stroke-linecap="butt" stroke-linejoin="round" stroke-opacity="1.0" stroke-width="3.0" />
            <path d=" M 491.030, 425.387 490.496, 429.127 489.081, 439.027 488.939, 440.021 488.286, 444.594 488.244, 444.888 487.103, 454.823 485.981, 464.591 485.113, 474.553 484.252, 484.426 483.655, 494.409 483.062, 504.325 482.965, 507.323 482.956, 507.611 482.663, 516.601 482.644, 517.201 482.528, 520.765 482.422, 524.024 482.416, 524.219 482.364, 534.219 482.314, 544.039 482.538, 554.036 482.755, 563.715 483.257, 573.703 483.734, 583.183 484.518, 593.152 485.244, 602.375 486.316, 612.317 487.277, 621.229 488.642, 631.135 489.820, 639.684 491.486, 649.544 492.860, 657.682 494.834, 667.485 496.381, 675.169 498.671, 684.903 500.363, 692.095 502.982, 701.746 504.790, 708.411 507.746, 717.964 509.637, 724.075 512.945, 733.512 514.139, 736.920 514.885, 739.048 515.847, 741.487 519.519, 750.788 520.508, 753.295 522.902, 758.701 526.483, 766.785 530.925, 775.744 531.159, 776.215 531.703, 777.311 532.181, 778.277 532.631, 779.183 532.784, 779.493 535.349, 784.116 538.637, 790.045 539.387, 791.396 539.618, 791.769 540.158, 792.639 541.122, 794.192 544.103, 798.995 544.650, 799.875 545.599, 801.404 546.264, 802.476 547.630, 804.440 553.390, 812.720 559.551, 820.597 560.740, 822.117 567.360, 829.612 568.286, 830.661 575.372, 837.718 576.005, 838.349 583.555, 844.906 583.871, 845.181 591.860, 851.161 599.949, 856.296 608.113, 860.593 616.332, 864.064 624.584, 866.723 632.850, 868.584 637.159, 869.526 645.396, 870.600 653.608, 870.910 661.779, 870.475 669.892, 869.317 677.932, 867.456 685.885, 864.915 693.737, 861.716 701.476, 857.881 709.091, 853.435 716.570, 848.401 723.904, 842.801 731.083, 836.659 738.101, 829.998 744.947, 822.840 751.528, 815.311 751.617, 815.209 757.875, 807.410 758.103, 807.127 764.049, 799.087 764.399, 798.614 770.044, 790.360 770.500, 789.694 775.854, 781.248 776.401, 780.385 781.475, 771.768 782.099, 770.710 786.902, 761.939 787.588, 760.687 792.130, 751.778 792.865, 750.337 797.155, 741.304 797.927, 739.678 801.974, 730.533 802.772, 728.729 806.582, 719.483 807.396, 717.508 810.977, 708.171 811.797, 706.033 815.155, 696.613 815.972, 694.320 819.114, 684.826 819.921, 682.387 822.851, 672.826 823.640, 670.250 826.364, 660.628 827.129, 657.924 829.650, 648.247 830.385, 645.426 832.708, 635.699 833.408, 632.770 835.536, 622.999 836.195, 619.973 838.132, 610.162 838.747, 607.047 840.494, 597.201 841.060, 594.009 842.620, 584.131 843.135, 580.871 844.510, 570.966 844.971, 567.649 846.161, 557.720 846.565, 554.357 847.573, 544.407 847.917, 541.007 848.743, 531.041 849.027, 527.614 849.670, 517.635 849.892, 514.192 850.353, 504.203 850.513, 500.755 850.791, 490.758 850.887, 487.315 850.982, 477.316 851.014, 473.888 850.924, 463.888 850.894, 460.487 850.617, 450.491 850.524, 447.127 850.059, 437.137 849.905, 433.820 849.248, 423.842 849.034, 420.584 848.184, 410.620 847.912, 407.431 846.864, 397.486 846.537, 394.377 845.288, 384.455 844.909, 381.437 843.454, 371.543 843.026, 368.627 841.361, 358.767 840.888, 355.964 839.008, 346.142 838.495, 343.463 836.393, 333.687 835.846, 331.142 833.515, 321.417 832.940, 319.018 830.373, 309.353 829.778, 307.109 826.967, 297.512 826.359, 295.433 823.296, 285.913 822.683, 284.009 819.359, 274.578 818.752, 272.857 815.155, 263.527 814.565, 261.997 810.685, 252.781 810.124, 251.449 805.949, 242.363 805.430, 241.235 800.947, 232.297 800.485, 231.376 795.680, 222.606 795.290, 221.895 790.151, 213.317 789.849, 212.814 784.360, 204.455 784.164, 204.156 778.313, 196.047 778.240, 195.946 772.079, 188.208 765.688, 180.966 759.072, 174.246 752.236, 168.072 745.189, 162.470 737.938, 157.466 730.491, 153.085 722.860, 149.352 715.054, 146.293 707.086, 143.931 698.968, 142.292 690.715, 141.399 682.342, 141.273 673.865, 141.937 669.405, 142.410 660.819, 143.883 652.166, 146.181 643.467, 149.320 634.741, 153.315 626.012, 158.177 617.662, 163.678 617.304, 163.914 609.358, 169.985 608.639, 170.534 601.107, 177.111 600.045, 178.039 592.928, 185.064 591.546, 186.429 584.843, 193.849 583.171, 195.700 576.873, 203.468 574.946, 205.845 569.044, 213.918 566.899, 216.852 561.383, 225.193 559.060, 228.706 553.917, 237.282 551.456, 241.385 546.675, 250.168 544.116, 254.867 543.358, 256.401 540.653, 261.873 539.648, 263.904 538.312, 266.608 537.068, 269.122 535.741, 272.082 535.663, 272.255 534.353, 275.174 530.660, 283.407 530.626, 283.482 530.341, 284.118 529.659, 285.794 529.392, 286.453 525.626, 295.717 524.831, 297.673 524.437, 298.641 523.959, 299.817 523.197, 301.892 519.750, 311.279 517.951, 316.176 515.684, 323.038 512.546, 332.532 512.341, 333.151 509.505, 342.740 509.460, 342.891 507.153, 350.691 504.611, 360.362 502.408, 368.743 500.155, 378.486 498.128, 387.250 496.158, 397.054 494.330, 406.152 492.639, 416.008 491.030, 425.387 " fill="none" stroke="rgb(0, 0, 0)" stroke-linecap="butt" stroke-linejoin="round" stroke-opacity="1.0" stroke-width="3.0" />
            <path d=" M 673.865, 141.937 665.302, 143.408 656.672, 145.707 647.994, 148.849 639.289, 152.847 630.581, 157.715 622.240, 163.231 621.892, 163.461 613.957, 169.546 613.247, 170.090 605.727, 176.682 604.671, 177.608 597.568, 184.647 596.190, 186.012 589.501, 193.445 587.831, 195.300 581.548, 203.080 579.622, 205.464 573.735, 213.548 571.591, 216.493 566.089, 224.843 563.766, 228.370 558.637, 236.954 556.175, 241.075 551.407, 249.865 548.847, 254.585 548.283, 255.729 544.760, 262.880 541.810, 268.871 541.162, 270.319 540.388, 272.051 540.262, 272.333 540.256, 272.346 539.840, 273.276 535.759, 282.405 535.091, 283.898 533.596, 287.590 532.675, 289.863 532.486, 290.330 531.229, 293.433 528.719, 299.631 525.282, 309.022 522.718, 316.027 519.590, 325.525 518.019, 330.292 517.114, 333.039 514.286, 342.631 511.931, 350.619 509.396, 360.293 507.190, 368.712 507.147, 368.901 506.476, 371.811 505.966, 374.022 503.719, 383.767 502.913, 387.262 501.411, 394.756 499.446, 404.561 499.116, 406.207 497.430, 416.064 495.817, 425.486 495.342, 428.821 493.930, 438.721 493.030, 445.033 491.891, 454.968 491.211, 460.900 490.766, 464.781 489.898, 474.743 489.034, 484.662 488.436, 494.644 487.974, 502.374 487.840, 504.607 487.749, 507.400 487.690, 509.205 487.446, 516.684 487.380, 518.698 487.203, 524.112 487.189, 524.546 487.134, 534.546 487.127, 535.852 487.081, 544.411 487.300, 554.408 487.399, 558.894 487.514, 564.132 488.011, 574.120 488.485, 583.643 489.263, 593.612 489.986, 602.877 491.051, 612.821 492.009, 621.773 493.366, 631.680 494.541, 640.268 496.197, 650.130 497.569, 658.304 499.532, 668.110 501.077, 675.828 503.356, 685.565 504.443, 690.210 505.046, 692.788 507.651, 702.443 509.458, 709.137 512.400, 718.694 514.290, 724.832 515.309, 727.754 518.602, 737.196 519.521, 739.833 523.177, 749.141 525.128, 754.106 529.162, 763.257 531.085, 767.621 532.670, 770.831 536.244, 778.071 537.369, 780.350 539.534, 784.271 541.042, 787.003 543.952, 792.273 544.931, 793.857 546.429, 796.280 548.423, 799.507 550.810, 803.370 556.505, 811.590 557.916, 813.628 564.061, 821.518 565.246, 823.038 571.851, 830.546 572.772, 831.592 579.844, 838.662 580.469, 839.288 588.007, 845.859 588.314, 846.127 596.281, 852.111 604.347, 857.247 612.490, 861.545 620.686, 865.014 628.916, 867.670 637.159, 869.526 " fill="none" stroke="rgb(0, 0, 0)" stroke-linecap="butt" stroke-linejoin="round" stroke-opacity="1.0" stroke-width="3.0" />
            <path d=" M 747.422, 530.524 744.631, 529.375 735.384, 525.567 734.895, 525.366 734.534, 523.893 734.071, 522.549 733.513, 521.356 732.869, 520.335 732.150, 519.502 731.367, 518.871 730.534, 518.455 729.665, 518.260 719.682, 517.675 718.508, 517.607 717.610, 517.636 716.740, 517.892 715.913, 518.371 715.112, 519.063 714.349, 519.958 713.639, 521.040 712.992, 522.291 712.420, 523.691 711.934, 525.216 711.542, 526.838 711.249, 528.532 715.930, 530.354 719.085, 530.557 727.094, 531.070 727.191, 530.534 727.326, 530.029 727.497, 529.569 727.700, 529.167 727.927, 528.833 728.174, 528.578 728.432, 528.406 728.697, 528.325 728.959, 528.334 " fill="none" stroke="rgb(0, 0, 0)" stroke-linecap="butt" stroke-linejoin="round" stroke-opacity="1.0" stroke-width="3.0" />
            <path d=" M 729.665, 518.260 728.773, 518.290 727.909, 518.548 727.089, 519.030 726.293, 519.726 725.536, 520.625 724.829, 521.713 724.187, 522.971 723.618, 524.378 723.135, 525.910 722.743, 527.541 722.675, 527.939 722.452, 529.243 " fill="none" stroke="rgb(0, 0, 0)" stroke-linecap="butt" stroke-linejoin="round" stroke-opacity="1.0" stroke-width="3.0" />
            <path d=" M 711.249, 528.532 718.877, 529.016 722.452, 529.243 727.094, 531.070 " fill="none" stroke="rgb(0, 0, 0)" stroke-linecap="butt" stroke-linejoin="round" stroke-opacity="1.0" stroke-width="3.0" />
            <path d=" M 728.959, 528.334 729.212, 528.435 729.449, 528.624 729.663, 528.896 729.850, 529.243 730.003, 529.657 730.118, 530.125 730.193, 530.636 730.226, 531.174 730.215, 531.727 730.161, 532.278 " fill="none" stroke="rgb(0, 0, 0)" stroke-linecap="butt" stroke-linejoin="round" stroke-opacity="1.0" stroke-width="3.0" />
            <path d=" M 719.022, 531.558 729.002, 532.203 730.161, 532.278 739.466, 535.941 747.427, 539.074 " fill="none" stroke="rgb(0, 0, 0)" stroke-linecap="butt" stroke-linejoin="round" stroke-opacity="1.0" stroke-width="3.0" />
            <path d=" M 802.808, 522.544 801.958, 522.579 801.136, 522.849 800.358, 523.350 799.602, 524.072 798.880, 525.004 798.206, 526.129 798.033, 526.494 797.590, 527.430 797.044, 528.884 796.577, 530.467 796.197, 532.151 796.130, 532.561 795.911, 533.907 " fill="none" stroke="rgb(0, 0, 0)" stroke-linecap="butt" stroke-linejoin="round" stroke-opacity="1.0" stroke-width="3.0" />
            <path d=" M 783.987, 533.150 791.205, 533.609 795.911, 533.907 798.451, 534.987 800.285, 535.766 " fill="none" stroke="rgb(0, 0, 0)" stroke-linecap="butt" stroke-linejoin="round" stroke-opacity="1.0" stroke-width="3.0" />
            <path d=" M 802.064, 532.934 802.303, 533.037 802.525, 533.230 802.726, 533.510 802.900, 533.867 803.042, 534.293 803.148, 534.775 803.216, 535.301 803.243, 535.856 803.229, 536.426 803.174, 536.994 798.535, 536.694 791.326, 536.228 " fill="none" stroke="rgb(0, 0, 0)" stroke-linecap="butt" stroke-linejoin="round" stroke-opacity="1.0" stroke-width="3.0" />
            <path d=" M 787.600, 501.969 787.778, 502.088 787.929, 502.244 788.045, 502.431 788.124, 502.645 788.160, 502.879 788.151, 503.128 788.098, 503.361 788.005, 503.583 787.876, 503.786 787.714, 503.962 787.526, 504.105 787.317, 504.210 787.093, 504.271 786.859, 504.285 786.700, 504.265 786.548, 504.220 786.405, 504.151 " fill="none" stroke="rgb(0, 0, 0)" stroke-linecap="butt" stroke-linejoin="round" stroke-opacity="1.0" stroke-width="3.0" />
            <path d=" M 787.600, 501.969 787.553, 501.951 787.376, 501.882 787.357, 501.876 787.345, 501.873 787.308, 501.864 787.266, 501.855 787.221, 501.848 787.175, 501.842 787.127, 501.837 787.081, 501.833 787.041, 501.832 787.006, 501.833 786.978, 501.835 786.773, 501.859 786.732, 501.867 786.518, 501.940 786.484, 501.956 786.279, 502.076 786.102, 502.233 785.958, 502.424 785.854, 502.643 785.838, 502.678 785.778, 502.923 785.770, 503.160 785.809, 503.393 785.893, 503.614 786.020, 503.815 786.043, 503.846 786.202, 504.012 786.395, 504.145 786.405, 504.151 " fill="none" stroke="rgb(0, 0, 0)" stroke-linecap="butt" stroke-linejoin="round" stroke-opacity="1.0" stroke-width="3.0" />
            <path d=" M 790.080, 506.381 790.391, 500.241 790.253, 500.177 787.451, 500.038 784.612, 499.898 783.797, 505.960 784.711, 506.170 " fill="none" stroke="rgb(0, 0, 0)" stroke-linecap="butt" stroke-linejoin="round" stroke-opacity="1.0" stroke-width="3.0" />
            <path d=" M 783.797, 505.960 789.439, 506.253 " fill="none" stroke="rgb(0, 0, 0)" stroke-linecap="butt" stroke-linejoin="round" stroke-opacity="1.0" stroke-width="3.0" />
            <path d=" M 790.080, 506.381 789.439, 506.253 790.253, 500.177 " fill="none" stroke="rgb(0, 0, 0)" stroke-linecap="butt" stroke-linejoin="round" stroke-opacity="1.0" stroke-width="3.0" />
            <path d=" M 734.229, 537.479 727.062, 536.165 717.262, 534.178 715.630, 533.847 705.863, 531.702 704.210, 531.339 694.473, 529.061 692.796, 528.668 683.085, 526.279 681.379, 525.859 671.691, 523.382 669.954, 522.939 660.283, 520.396 658.515, 519.931 648.856, 517.343 647.055, 516.861 637.402, 514.248 635.568, 513.752 625.917, 511.135 624.048, 510.628 614.393, 508.026 612.490, 507.513 602.825, 504.944 600.887, 504.429 591.209, 501.913 589.235, 501.400 579.538, 498.954 577.527, 498.447 577.062, 488.458 576.885, 484.665 576.289, 474.683 576.072, 471.058 575.341, 461.085 575.089, 457.647 574.215, 447.685 573.932, 444.455 572.911, 434.507 572.603, 431.505 571.425, 421.574 571.099, 418.819 569.757, 408.910 569.420, 406.423 567.904, 396.539 567.566, 394.343 565.862, 384.489 565.536, 382.605 563.631, 372.788 563.330, 371.236 561.208, 361.464 560.948, 360.266 558.589, 350.548 558.483, 350.112 558.389, 349.724 555.771, 340.073 555.654, 339.642 554.359, 335.373 " fill="none" stroke="rgb(0, 0, 0)" stroke-linecap="butt" stroke-linejoin="round" stroke-opacity="1.0" stroke-width="3.0" />
            <path d=" M 535.741, 272.082 535.622, 272.072 533.608, 271.896 527.728, 271.382 527.019, 271.244 524.787, 270.813 518.859, 269.667 515.721, 268.735 513.391, 268.043 509.847, 266.991 " fill="none" stroke="rgb(0, 0, 0)" stroke-linecap="butt" stroke-linejoin="round" stroke-opacity="1.0" stroke-width="3.0" />
            <path d=" M 509.847, 266.991 505.082, 266.086 500.208, 266.149 495.234, 267.212 490.174, 269.306 489.365, 269.804 485.054, 272.455 485.043, 272.462 479.856, 276.708 478.827, 277.762 474.629, 282.064 470.747, 286.859 469.381, 288.548 464.130, 296.176 461.592, 300.434 458.898, 304.956 457.415, 307.793 453.705, 314.888 449.504, 323.962 448.575, 325.968 444.759, 335.211 443.531, 338.186 440.061, 347.565 438.597, 351.523 435.441, 361.011 433.798, 365.948 430.927, 375.527 429.159, 381.427 426.552, 391.082 424.706, 397.917 422.343, 407.634 420.463, 415.366 418.329, 425.135 416.455, 433.709 414.536, 443.523 412.706, 452.877 410.991, 462.729 409.276, 472.581 409.239, 472.793 407.719, 482.677 406.200, 492.561 406.075, 493.372 404.743, 503.283 403.412, 513.194 403.234, 514.519 402.085, 524.453 400.936, 534.386 400.733, 536.136 399.763, 546.089 398.793, 556.042 398.591, 558.121 397.796, 568.089 397.002, 578.058 396.818, 580.364 396.197, 590.344 395.577, 600.325 395.426, 602.754 394.979, 612.744 394.533, 622.734 394.424, 625.178 394.152, 635.174 393.880, 645.171 393.816, 647.523 393.721, 657.522 393.626, 667.522 393.606, 669.674 393.690, 679.674 393.775, 689.674 393.791, 691.522 394.061, 701.518 394.331, 711.515 394.370, 712.958 394.831, 722.947 395.292, 732.936 395.336, 733.879 395.995, 743.857 396.655, 753.836 396.679, 754.188 397.548, 764.150 398.389, 773.791 398.411, 773.681 400.422, 763.886 402.433, 754.090 403.805, 747.408 404.031, 746.303 406.132, 736.526 408.233, 726.749 409.788, 719.515 411.981, 709.759 414.175, 700.003 415.658, 693.408 417.948, 683.674 420.237, 673.939 421.644, 667.959 424.031, 658.248 426.419, 648.538 427.745, 643.148 430.234, 633.463 432.723, 623.778 433.962, 618.955 436.555, 609.297 439.148, 599.639 440.297, 595.358 442.997, 585.729 445.696, 576.101 446.751, 572.339 449.560, 562.742 452.368, 553.144 453.324, 549.878 456.244, 540.314 459.165, 530.750 460.018, 527.956 463.053, 518.427 466.087, 508.899 466.834, 506.553 469.985, 497.063 473.136, 487.572 473.773, 485.652 477.043, 476.201 480.313, 466.751 480.838, 465.233 484.228, 455.826 487.618, 446.418 488.029, 445.279 488.286, 444.594 " fill="none" stroke="rgb(0, 0, 0)" stroke-linecap="butt" stroke-linejoin="round" stroke-opacity="1.0" stroke-width="3.0" />
            <path d=" M 368.220, 765.542 364.312, 774.747 363.587, 776.455 " fill="none" stroke="rgb(0, 0, 0)" stroke-linecap="butt" stroke-linejoin="round" stroke-opacity="1.0" stroke-width="3.0" />
            <path d=" M 489.365, 269.804 479.370, 269.491 474.421, 269.336 " fill="none" stroke="rgb(0, 0, 0)" stroke-linecap="butt" stroke-linejoin="round" stroke-opacity="1.0" stroke-width="3.0" />
            <path d=" M 530.820, 468.922 530.808, 468.958 " fill="none" stroke="rgb(0, 0, 0)" stroke-linecap="butt" stroke-linejoin="round" stroke-opacity="1.0" stroke-width="3.0" />
            <path d=" M 557.882, 508.533 557.789, 504.992 " fill="none" stroke="rgb(0, 0, 0)" stroke-linecap="butt" stroke-linejoin="round" stroke-opacity="1.0" stroke-width="3.0" />
        </g>
    </g>
</svg>
