<?xml version='1.0' encoding='ascii'?>
<svg xmlns="http://www.w3.org/2000/svg" height="1080" version="1.1" width="1080">
    <g id="View Layer_LineSet" inkscape:groupmode="lineset" inkscape:label="View Layer_LineSet" xmlns:inkscape="http://www.inkscape.org/namespaces/inkscape">
        <g id="strokes" inkscape:groupmode="layer" inkscape:label="strokes" xmlns:inkscape="http://www.inkscape.org/namespaces/inkscape">
            <path d=" M 563.987, 489.293 563.998, 490.448 563.988, 491.612 563.959, 492.774 563.909, 493.922 563.839, 495.045 563.751, 496.132 563.644, 497.172 563.521, 498.154 563.379, 499.070 563.312, 499.444 563.270, 499.682 563.154, 500.251 563.088, 500.533 563.031, 500.773 562.903, 501.245 562.769, 501.666 562.632, 502.032 562.490, 502.342 561.004, 505.261 559.883, 507.461 559.325, 508.556 " fill="none" stroke="rgb(0, 0, 0)" stroke-linecap="butt" stroke-linejoin="round" stroke-opacity="1.0" stroke-width="3.0" />
            <path d=" M 363.569, 776.281 369.618, 781.023 " fill="none" stroke="rgb(0, 0, 0)" stroke-linecap="butt" stroke-linejoin="round" stroke-opacity="1.0" stroke-width="3.0" />
            <path d=" M 387.306, 782.174 396.732, 778.833 398.795, 778.102 " fill="none" stroke="rgb(0, 0, 0)" stroke-linecap="butt" stroke-linejoin="round" stroke-opacity="1.0" stroke-width="3.0" />
            <path d=" M 398.795, 778.102 393.776, 769.452 388.758, 760.803 388.243, 759.916 " fill="none" stroke="rgb(0, 0, 0)" stroke-linecap="butt" stroke-linejoin="round" stroke-opacity="1.0" stroke-width="3.0" />
            <path d=" M 474.438, 269.263 470.095, 269.826 465.682, 271.430 461.212, 274.108 456.699, 277.892 452.156, 282.807 449.728, 286.042 447.601, 288.875 445.999, 291.422 443.050, 296.112 438.521, 304.533 434.290, 313.594 434.034, 314.142 430.240, 323.395 429.608, 324.937 426.198, 334.338 425.265, 336.910 422.195, 346.427 421.027, 350.047 418.259, 359.657 416.915, 364.321 414.420, 374.005 412.952, 379.699 410.705, 389.443 409.161, 396.139 407.142, 405.933 405.563, 413.589 403.756, 423.424 402.182, 431.987 400.572, 441.857 399.037, 451.263 397.614, 461.161 396.191, 471.059 396.151, 471.339 394.905, 481.261 393.659, 491.183 393.541, 492.126 392.465, 502.068 391.389, 512.010 391.225, 513.528 390.314, 523.486 389.402, 533.444 389.219, 535.443 388.468, 545.415 387.717, 555.386 387.538, 557.763 386.944, 567.746 386.350, 577.728 386.193, 580.375 385.754, 590.366 385.314, 600.356 385.191, 603.162 384.907, 613.158 384.622, 623.154 384.541, 626.004 384.412, 636.003 384.282, 646.002 384.246, 648.781 384.273, 658.781 384.300, 668.781 384.307, 671.375 384.493, 681.374 384.679, 691.372 384.722, 693.669 385.071, 703.663 385.420, 713.657 385.486, 715.547 386.004, 725.534 386.522, 735.521 386.594, 736.902 387.287, 746.878 387.980, 756.854 388.034, 757.631 388.243, 759.916 387.823, 769.907 387.402, 779.898 387.306, 782.174 " fill="none" stroke="rgb(0, 0, 0)" stroke-linecap="butt" stroke-linejoin="round" stroke-opacity="1.0" stroke-width="3.0" />
            <path d=" M 566.977, 520.100 567.949, 520.117 567.978, 520.118 572.331, 511.115 574.634, 506.353 577.665, 501.667 577.199, 491.677 577.012, 487.674 576.413, 477.692 576.183, 473.865 575.446, 463.892 575.177, 460.260 574.295, 450.299 573.993, 446.884 572.960, 436.938 572.630, 433.762 571.437, 423.833 571.087, 420.916 569.726, 411.009 569.364, 408.374 567.822, 398.494 567.459, 396.164 565.725, 386.315 565.372, 384.313 563.431, 374.503 563.103, 372.849 560.937, 363.086 560.652, 361.803 559.081, 355.481 558.019, 351.208 555.338, 341.574 555.205, 341.095 553.824, 336.672 " fill="none" stroke="rgb(0, 0, 0)" stroke-linecap="butt" stroke-linejoin="round" stroke-opacity="1.0" stroke-width="3.0" />
            <path d=" M 550.325, 345.145 552.962, 353.440 553.637, 355.826 555.667, 362.996 556.888, 367.829 558.200, 373.026 560.398, 382.781 560.560, 383.498 562.529, 393.302 562.745, 394.382 562.767, 394.505 564.525, 404.349 564.758, 405.649 566.320, 415.526 566.596, 417.270 567.975, 427.174 568.260, 429.218 569.469, 439.145 569.752, 441.466 570.799, 451.411 571.070, 453.989 571.965, 463.949 572.217, 466.763 572.965, 476.735 573.193, 479.764 573.801, 489.745 573.998, 492.968 574.047, 494.004 574.004, 494.821 573.951, 495.621 573.888, 496.399 573.816, 497.153 573.734, 497.877 573.644, 498.568 573.547, 499.221 573.441, 499.835 573.329, 500.404 573.211, 500.927 573.087, 501.400 572.958, 501.821 572.825, 502.188 572.688, 502.499 568.747, 510.534 568.516, 509.779 568.266, 509.214 568.002, 508.849 567.854, 508.764 567.729, 508.692 565.252, 508.652 564.345, 508.637 563.468, 508.623 563.294, 508.620 559.902, 508.565 559.325, 508.556 558.121, 508.537 557.881, 508.533 557.345, 508.524 557.056, 508.576 556.766, 508.839 556.482, 509.307 556.206, 509.973 556.085, 510.370 555.945, 510.828 555.702, 511.856 555.482, 513.041 555.289, 514.363 555.126, 515.798 554.996, 517.324 554.901, 518.912 554.843, 520.537 554.823, 522.170 554.841, 523.783 554.897, 525.348 556.377, 525.375 558.217, 525.409 558.321, 525.411 560.099, 525.443 563.658, 525.508 564.468, 525.523 565.357, 525.539 565.437, 525.375 566.936, 522.274 566.921, 521.775 566.921, 521.261 566.935, 520.744 566.964, 520.240 566.977, 520.100 567.006, 519.762 567.061, 519.323 567.126, 518.936 567.201, 518.610 567.282, 518.355 567.368, 518.178 567.457, 518.083 567.546, 518.073 " fill="none" stroke="rgb(0, 0, 0)" stroke-linecap="butt" stroke-linejoin="round" stroke-opacity="1.0" stroke-width="3.0" />
            <path d=" M 465.205, 938.338 461.195, 937.981 458.127, 936.939 457.180, 936.617 453.173, 934.215 449.536, 931.049 449.189, 930.747 445.245, 926.191 441.356, 920.529 437.539, 913.748 433.812, 905.837 430.192, 896.795 426.943, 887.337 426.699, 886.628 423.854, 877.041 423.351, 875.345 420.860, 865.660 420.167, 862.965 417.988, 853.205 417.164, 849.516 415.264, 839.698 414.362, 835.034 412.715, 825.170 411.778, 819.559 410.361, 809.660 409.429, 803.144 408.224, 793.217 407.330, 785.850 406.323, 775.901 405.497, 767.745 404.649, 757.780 403.906, 749.037 403.791, 747.241 " fill="none" stroke="rgb(0, 0, 0)" stroke-linecap="butt" stroke-linejoin="round" stroke-opacity="1.0" stroke-width="3.0" />
            <path d=" M 381.884, 362.296 379.774, 372.071 378.648, 377.282 376.766, 387.103 375.520, 393.607 373.847, 403.466 372.577, 410.948 371.096, 420.837 369.837, 429.243 368.536, 439.158 367.319, 448.426 366.187, 458.362 365.040, 468.422 364.067, 478.375 363.094, 488.328 363.014, 489.146 362.194, 499.112 361.373, 509.078 361.256, 510.503 360.583, 520.480 359.909, 530.457 359.778, 532.395 359.248, 542.381 358.718, 552.367 358.593, 554.717 358.202, 564.709 357.811, 574.701 357.707, 577.357 357.454, 587.354 357.200, 597.350 357.128, 600.201 357.011, 610.200 356.894, 620.199 356.860, 623.131 356.880, 633.131 356.900, 643.131 356.905, 646.029 357.063, 656.028 357.220, 666.027 357.263, 668.777 357.560, 678.772 357.857, 688.768 357.931, 691.257 358.370, 701.247 358.810, 711.237 358.904, 713.354 359.491, 723.337 360.078, 733.320 360.174, 734.960 360.914, 744.932 361.654, 754.905 361.733, 755.968 362.633, 765.928 363.534, 775.887 363.569, 776.281 364.695, 786.217 365.757, 795.584 367.093, 805.494 368.240, 813.996 369.802, 823.873 370.999, 831.446 372.807, 841.281 374.017, 847.868 376.095, 857.650 377.275, 863.208 379.651, 872.921 380.752, 877.420 383.463, 887.046 384.427, 890.471 387.294, 899.293 " fill="none" stroke="rgb(0, 0, 0)" stroke-linecap="butt" stroke-linejoin="round" stroke-opacity="1.0" stroke-width="3.0" />
            <path d=" M 524.296, 532.861 524.569, 542.858 524.574, 543.041 524.734, 553.040 524.796, 556.879 524.848, 566.879 524.868, 570.799 524.811, 580.799 524.797, 583.346 " fill="none" stroke="rgb(0, 0, 0)" stroke-linecap="butt" stroke-linejoin="round" stroke-opacity="1.0" stroke-width="3.0" />
            <path d=" M 514.126, 736.939 514.103, 737.118 512.712, 747.021 512.250, 750.307 510.729, 760.190 510.252, 763.290 508.596, 773.152 508.110, 776.044 506.312, 785.881 505.826, 788.543 503.878, 798.351 503.399, 800.762 501.292, 810.537 500.832, 812.672 498.556, 822.409 498.127, 824.246 495.669, 833.939 495.284, 835.455 492.629, 845.096 492.307, 846.268 489.438, 855.848 489.197, 856.653 486.094, 866.160 485.958, 866.579 482.593, 876.011 479.105, 884.915 475.500, 893.254 471.781, 900.993 467.955, 908.094 464.028, 914.518 460.007, 920.226 455.900, 925.182 451.714, 929.344 449.536, 931.049 " fill="none" stroke="rgb(0, 0, 0)" stroke-linecap="butt" stroke-linejoin="round" stroke-opacity="1.0" stroke-width="3.0" />
            <path d=" M 398.395, 773.506 398.795, 778.102 399.829, 788.048 400.796, 797.345 402.041, 807.268 403.099, 815.704 404.571, 825.595 405.688, 833.105 407.405, 842.956 408.544, 849.484 410.531, 859.284 411.646, 864.785 413.931, 874.521 414.974, 878.966 417.590, 888.618 418.504, 891.992 421.496, 901.534 422.216, 903.832 425.635, 913.229 426.086, 914.469 429.996, 923.673 430.091, 923.896 434.210, 932.109 437.102, 936.918 437.387, 937.394 438.420, 939.111 442.702, 944.916 447.035, 949.543 451.399, 953.011 455.778, 955.346 460.155, 956.583 464.513, 956.754 468.839, 955.896 473.119, 954.046 477.341, 951.247 477.976, 950.682 481.495, 947.541 485.569, 942.967 486.926, 941.130 489.556, 937.569 493.447, 931.391 494.445, 929.570 497.236, 924.474 500.916, 916.858 504.480, 908.586 507.927, 899.699 511.250, 890.234 514.294, 880.709 514.447, 880.229 517.250, 870.630 517.515, 869.722 520.100, 860.062 520.451, 858.748 522.837, 849.037 523.254, 847.341 525.457, 837.587 525.921, 835.533 527.956, 825.742 528.452, 823.357 530.331, 813.535 530.846, 810.844 532.578, 800.995 533.101, 798.020 534.696, 788.148 535.219, 784.916 535.333, 784.141 " fill="none" stroke="rgb(0, 0, 0)" stroke-linecap="butt" stroke-linejoin="round" stroke-opacity="1.0" stroke-width="3.0" />
            <path d=" M 532.166, 778.296 530.516, 788.159 530.253, 789.732 528.465, 799.571 528.037, 801.929 526.103, 811.740 525.693, 813.819 523.603, 823.598 523.223, 825.373 522.972, 826.457 520.714, 836.199 520.629, 836.564 518.190, 846.262 517.913, 847.361 515.275, 857.007 515.078, 857.730 512.222, 867.314 512.125, 867.641 509.057, 877.061 505.880, 885.954 502.595, 894.283 499.209, 902.014 495.726, 909.109 492.151, 915.528 488.492, 921.235 484.754, 926.190 480.947, 930.355 477.079, 933.689 473.159, 936.156 469.197, 937.718 465.205, 938.338 " fill="none" stroke="rgb(0, 0, 0)" stroke-linecap="butt" stroke-linejoin="round" stroke-opacity="1.0" stroke-width="3.0" />
            <path d=" M 561.004, 505.261 559.843, 505.168 558.059, 505.025 557.789, 505.003 555.940, 504.855 548.821, 504.284 548.551, 504.262 546.706, 504.114 546.099, 504.066 546.550, 514.056 546.705, 517.500 547.049, 527.494 547.172, 531.077 547.412, 541.074 547.501, 544.775 547.640, 554.774 547.693, 558.576 547.732, 568.576 547.747, 572.459 547.687, 582.459 547.664, 586.405 547.507, 596.403 547.444, 600.394 547.191, 610.391 547.089, 614.408 546.738, 624.402 546.597, 628.428 546.150, 638.418 545.970, 642.433 545.426, 652.418 545.209, 656.405 544.591, 665.990 " fill="none" stroke="rgb(0, 0, 0)" stroke-linecap="butt" stroke-linejoin="round" stroke-opacity="1.0" stroke-width="3.0" />
            <path d=" M 547.171, 672.831 547.770, 662.849 548.033, 658.451 548.536, 648.464 548.767, 643.863 549.175, 633.872 549.364, 629.244 549.678, 619.249 549.824, 614.612 550.045, 604.614 550.148, 599.986 550.276, 589.987 550.335, 585.387 550.370, 575.387 550.386, 570.832 550.327, 560.832 550.301, 556.341 550.148, 546.342 550.080, 541.933 549.831, 531.937 549.723, 527.629 549.376, 517.635 549.231, 513.447 548.821, 504.284 " fill="none" stroke="rgb(0, 0, 0)" stroke-linecap="butt" stroke-linejoin="round" stroke-opacity="1.0" stroke-width="3.0" />
            <path d=" M 387.306, 782.174 388.371, 792.117 389.446, 802.168 390.719, 812.087 391.892, 821.227 393.388, 831.115 394.623, 839.276 396.364, 849.124 397.623, 856.247 399.631, 866.043 400.870, 872.083 403.175, 881.814 404.341, 886.739 406.979, 896.385 408.016, 900.180 411.031, 909.715 411.873, 912.376 415.320, 921.763 415.888, 923.312 419.834, 932.500 420.040, 932.979 424.306, 941.378 428.666, 948.514 433.099, 954.402 437.585, 959.063 442.105, 962.522 446.643, 964.807 451.180, 965.955 455.702, 966.003 460.194, 964.988 464.643, 962.954 469.036, 959.945 473.363, 956.004 " fill="none" stroke="rgb(0, 0, 0)" stroke-linecap="butt" stroke-linejoin="round" stroke-opacity="1.0" stroke-width="3.0" />
            <path d=" M 473.363, 956.004 480.291, 948.794 481.495, 947.541 " fill="none" stroke="rgb(0, 0, 0)" stroke-linecap="butt" stroke-linejoin="round" stroke-opacity="1.0" stroke-width="3.0" />
            <path d=" M 538.748, 479.956 539.439, 489.932 540.130, 499.908 540.387, 503.608 540.804, 513.600 540.947, 517.047 541.209, 527.044 541.229, 527.789 535.350, 530.726 532.058, 532.371 531.778, 532.511 531.498, 532.651 531.217, 532.791 530.937, 532.933 530.604, 532.983 527.068, 532.915 524.296, 532.861 520.705, 532.792 " fill="none" stroke="rgb(0, 0, 0)" stroke-linecap="butt" stroke-linejoin="round" stroke-opacity="1.0" stroke-width="3.0" />
            <path d=" M 520.695, 499.631 521.418, 497.295 524.375, 487.742 527.201, 478.613 537.134, 479.768 538.748, 479.956 535.891, 489.539 533.035, 499.123 530.802, 506.614 530.678, 507.025 530.433, 507.846 530.188, 508.669 529.943, 509.493 529.699, 510.318 529.420, 511.396 529.368, 511.658 529.168, 512.650 528.949, 514.057 528.768, 515.589 528.628, 517.218 528.618, 517.395 528.532, 518.911 528.482, 520.635 528.478, 522.358 528.510, 523.612 528.521, 524.046 528.611, 525.665 528.744, 527.185 528.919, 528.577 529.132, 529.814 529.379, 530.872 529.655, 531.731 529.955, 532.377 530.274, 532.797 530.604, 532.983 " fill="none" stroke="rgb(0, 0, 0)" stroke-linecap="butt" stroke-linejoin="round" stroke-opacity="1.0" stroke-width="3.0" />
            <path d=" M 530.900, 523.656 530.774, 523.613 530.654, 523.436 530.547, 523.132 530.456, 522.716 530.387, 522.204 530.341, 521.619 530.320, 520.987 530.327, 520.335 530.359, 519.693 530.417, 519.088 530.497, 518.548 530.596, 518.094 530.710, 517.749 530.832, 517.527 530.959, 517.436 " fill="none" stroke="rgb(0, 0, 0)" stroke-linecap="butt" stroke-linejoin="round" stroke-opacity="1.0" stroke-width="3.0" />
            <path d=" M 530.959, 517.436 531.085, 517.481 531.204, 517.660 531.311, 517.964 531.401, 518.381 531.470, 518.892 531.516, 519.475 531.536, 520.105 531.530, 520.754 531.497, 521.394 531.440, 521.996 531.360, 522.536 531.262, 522.989 531.149, 523.336 531.027, 523.562 530.900, 523.656 " fill="none" stroke="rgb(0, 0, 0)" stroke-linecap="butt" stroke-linejoin="round" stroke-opacity="1.0" stroke-width="3.0" />
            <path d=" M 552.826, 686.126 553.614, 676.157 553.701, 675.060 554.406, 665.085 554.650, 661.642 555.273, 651.661 555.491, 648.173 556.035, 638.188 556.226, 634.665 556.690, 624.676 556.854, 621.129 557.238, 611.137 557.375, 607.577 557.679, 597.582 557.788, 594.020 558.014, 584.023 558.094, 580.469 558.240, 570.470 558.292, 566.935 558.359, 556.936 558.382, 553.430 558.369, 543.430 558.364, 539.964 558.360, 539.561 558.266, 529.561 558.237, 526.548 558.217, 525.409 " fill="none" stroke="rgb(0, 0, 0)" stroke-linecap="butt" stroke-linejoin="round" stroke-opacity="1.0" stroke-width="3.0" />
            <path d=" M 454.237, 983.506 456.673, 983.696 460.785, 983.759 464.869, 982.989 468.918, 981.415 472.922, 979.068 476.874, 975.980 480.769, 972.181 484.599, 967.702 488.359, 962.576 492.044, 956.832 495.649, 950.501 499.171, 943.614 502.606, 936.199 505.951, 928.285 509.202, 919.899 512.358, 911.070 515.417, 901.822 518.376, 892.181 520.598, 884.398 521.234, 882.172 523.806, 872.508 523.990, 871.817 526.401, 862.112 526.642, 861.139 528.903, 851.398 529.191, 850.160 531.311, 840.388 531.634, 838.901 533.623, 829.101 533.972, 827.381 535.836, 817.557 536.203, 815.620 537.949, 805.774 538.328, 803.636 539.962, 793.770 540.144, 792.670 " fill="none" stroke="rgb(0, 0, 0)" stroke-linecap="butt" stroke-linejoin="round" stroke-opacity="1.0" stroke-width="3.0" />
            <path d=" M 527.012, 271.179 527.011, 271.176 524.264, 262.904 521.401, 255.090 518.426, 247.760 515.338, 240.941 512.140, 234.660 508.834, 228.945 505.422, 223.825 501.908, 219.328 498.295, 215.486 494.587, 212.327 490.789, 209.881 486.905, 208.177 482.942, 207.246 478.906, 207.117 478.260, 207.227 474.803, 207.816 470.643, 209.372 466.433, 211.811 462.182, 215.155 457.901, 219.429 453.600, 224.651 449.290, 230.839 444.985, 238.006 440.697, 246.164 436.440, 255.319 432.609, 264.556 432.228, 265.474 431.298, 267.971 428.076, 276.627 424.894, 286.107 423.999, 288.770 421.093, 298.338 420.014, 301.891 417.359, 311.532 416.136, 315.972 414.177, 323.806 412.381, 330.990 410.167, 340.742 408.766, 346.915 406.750, 356.709 405.308, 363.710 403.475, 373.541 402.022, 381.335 400.362, 391.196 398.924, 399.740 397.428, 409.627 396.030, 418.871 394.690, 428.781 393.353, 438.669 392.164, 448.598 390.974, 458.527 390.909, 459.068 389.863, 469.013 388.818, 478.958 388.708, 479.997 387.803, 489.956 386.897, 499.915 386.764, 501.381 385.995, 511.351 385.226, 521.322 385.086, 523.140 384.451, 533.120 383.816, 543.100 383.683, 545.193 383.180, 555.180 382.677, 565.167 382.562, 567.452 382.191, 577.445 381.819, 587.438 381.730, 589.830 381.489, 599.827 381.248, 609.824 381.190, 612.239 381.080, 622.238 380.970, 632.238 380.944, 634.589 380.967, 644.589 380.989, 654.589 380.994, 656.791 381.151, 666.790 381.307, 676.789 381.338, 678.758 381.631, 688.754 381.924, 698.749 381.972, 700.404 382.406, 710.394 382.839, 720.385 382.894, 721.645 383.471, 731.629 384.049, 741.612 384.095, 742.403 384.823, 752.377 385.551, 762.350 385.569, 762.603 386.453, 772.564 387.306, 782.174 388.355, 792.119 389.297, 801.050 390.519, 810.975 391.528, 819.172 392.935, 829.072 393.989, 836.485 395.593, 846.356 396.664, 852.943 398.482, 862.776 399.541, 868.503 401.591, 878.291 402.604, 883.131 404.908, 892.862 405.839, 896.796 408.422, 906.457 409.230, 909.478 412.124, 919.050 412.761, 921.157 416.003, 930.617 416.417, 931.824 420.053, 941.139 420.183, 941.472 424.044, 950.100 427.984, 957.713 431.990, 964.318 436.048, 969.927 440.145, 974.558 444.267, 978.227 448.403, 980.957 452.542, 982.771 455.944, 983.533 456.673, 983.696 " fill="none" stroke="rgb(0, 0, 0)" stroke-linecap="butt" stroke-linejoin="round" stroke-opacity="1.0" stroke-width="3.0" />
            <path d=" M 476.507, 207.171 472.378, 207.871 468.191, 209.427 463.955, 211.865 459.677, 215.210 455.369, 219.482 451.041, 224.703 446.706, 230.889 442.374, 238.055 438.060, 246.211 433.822, 255.268 433.777, 255.363 429.925, 264.591 429.540, 265.515 428.468, 268.375 425.363, 276.664 422.162, 286.138 421.262, 288.803 418.339, 298.366 417.253, 301.920 414.582, 311.557 413.352, 315.996 410.913, 325.694 409.576, 331.009 407.349, 340.758 406.016, 346.597 405.940, 346.928 403.912, 356.720 402.463, 363.717 400.619, 373.546 399.158, 381.335 397.489, 391.195 396.044, 399.733 394.539, 409.620 393.134, 418.858 391.786, 428.766 390.443, 438.648 389.247, 448.576 388.050, 458.504 387.986, 459.039 386.935, 468.983 385.883, 478.928 385.774, 479.959 384.864, 489.918 383.954, 499.876 383.821, 501.335 383.048, 511.305 382.275, 521.275 382.135, 523.086 381.497, 533.066 380.859, 543.045 380.726, 545.130 380.221, 555.117 379.717, 565.104 379.602, 567.380 379.229, 577.373 378.856, 587.366 378.767, 589.750 378.526, 599.747 378.285, 609.744 378.227, 612.150 378.117, 622.149 378.008, 632.149 377.983, 634.491 378.007, 644.491 378.030, 654.491 378.036, 656.685 378.194, 666.684 378.353, 676.682 378.384, 678.643 378.681, 688.639 378.977, 698.635 379.026, 700.281 379.463, 710.271 379.901, 720.262 379.956, 721.515 380.539, 731.498 381.122, 741.481 381.167, 742.266 381.901, 752.239 382.635, 762.212 382.653, 762.458 383.545, 772.418 384.404, 782.022 385.461, 791.966 386.409, 800.892 387.641, 810.816 388.657, 819.008 390.075, 828.907 391.136, 836.316 392.752, 846.184 393.830, 852.769 395.661, 862.600 396.727, 868.324 398.791, 878.109 399.812, 882.948 402.131, 892.675 403.069, 896.610 405.669, 906.267 406.483, 909.289 409.395, 918.855 410.038, 920.966 413.300, 930.419 413.718, 931.631 417.376, 940.938 417.509, 941.277 421.396, 949.904 425.362, 957.516 429.395, 964.121 433.479, 969.731 437.602, 974.362 441.752, 978.032 445.914, 980.763 450.080, 982.580 454.237, 983.506 " fill="none" stroke="rgb(0, 0, 0)" stroke-linecap="butt" stroke-linejoin="round" stroke-opacity="1.0" stroke-width="3.0" />
            <path d=" M 478.906, 207.117 476.507, 207.171 " fill="none" stroke="rgb(0, 0, 0)" stroke-linecap="butt" stroke-linejoin="round" stroke-opacity="1.0" stroke-width="3.0" />
            <path d=" M 558.414, 697.610 559.270, 687.647 559.467, 685.360 560.241, 675.390 560.566, 671.202 561.259, 661.226 561.554, 656.979 562.168, 646.998 562.432, 642.705 562.967, 632.719 563.199, 628.390 563.655, 618.400 563.855, 614.045 564.234, 604.052 564.400, 599.683 564.702, 589.687 564.834, 585.312 565.059, 575.315 565.158, 570.946 565.305, 560.947 565.370, 556.593 565.440, 546.593 565.470, 542.265 565.463, 532.265 565.459, 527.972 565.437, 525.375 " fill="none" stroke="rgb(0, 0, 0)" stroke-linecap="butt" stroke-linejoin="round" stroke-opacity="1.0" stroke-width="3.0" />
            <path d=" M 455.569, 1003.829 457.977, 1004.023 462.410, 1003.841 466.805, 1002.763 471.153, 1000.821 475.446, 998.053 479.676, 994.494 483.836, 990.181 487.921, 985.148 491.925, 979.431 495.843, 973.066 499.670, 966.085 503.403, 958.523 507.038, 950.412 510.573, 941.782 511.423, 939.524 514.005, 932.666 517.287, 923.220 517.332, 923.091 520.395, 913.572 520.552, 913.086 523.416, 903.505 523.663, 902.678 526.345, 893.044 526.665, 891.894 529.178, 882.214 529.557, 880.757 531.913, 871.038 532.337, 869.292 534.548, 859.539 535.005, 857.521 537.079, 847.739 537.561, 845.467 539.507, 835.658 540.005, 833.149 541.829, 823.317 542.336, 820.589 544.045, 810.736 544.554, 807.804 545.587, 801.432 " fill="none" stroke="rgb(0, 0, 0)" stroke-linecap="butt" stroke-linejoin="round" stroke-opacity="1.0" stroke-width="3.0" />
            <path d=" M 539.658, 263.913 538.353, 258.481 535.817, 248.808 535.724, 248.451 532.970, 238.834 530.090, 229.655 527.087, 220.942 523.959, 212.723 520.709, 205.028 517.337, 197.887 513.846, 191.331 510.238, 185.393 506.515, 180.105 502.681, 175.501 498.739, 171.614 494.694, 168.481 490.550, 166.134 486.314, 164.609 481.992, 163.940 479.879, 164.047 477.590, 164.161 473.118, 165.305 468.583, 167.404 463.996, 170.487 459.367, 174.584 454.707, 179.721 450.030, 185.919 445.348, 193.200 440.676, 201.580 436.278, 210.561 436.029, 211.070 432.046, 220.243 431.422, 221.679 427.806, 231.002 426.873, 233.407 423.583, 242.850 422.398, 246.252 419.402, 255.792 418.016, 260.203 417.080, 263.499 414.349, 273.118 413.745, 275.244 412.265, 281.002 409.775, 290.687 409.739, 290.828 409.603, 291.353 407.335, 301.093 405.610, 308.500 403.547, 318.285 401.784, 326.646 399.912, 336.469 398.144, 345.747 396.451, 355.603 394.759, 365.458 394.709, 365.751 393.185, 375.634 391.661, 385.517 391.495, 386.597 390.132, 396.504 388.769, 406.411 388.520, 408.220 387.311, 418.147 386.102, 428.073 385.930, 429.486 385.801, 430.545 384.740, 440.489 383.679, 450.432 383.353, 453.494 382.435, 463.451 381.517, 473.409 381.188, 476.979 380.409, 486.948 379.631, 496.918 379.319, 500.910 378.677, 510.889 378.035, 520.868 377.757, 525.191 377.250, 535.178 376.742, 545.166 376.511, 549.725 376.136, 559.718 375.762, 569.711 375.586, 574.409 375.345, 584.406 375.103, 594.403 374.989, 599.141 374.880, 609.140 374.772, 619.139 374.721, 623.816 374.746, 633.816 374.772, 643.816 374.784, 648.332 374.945, 658.331 375.106, 668.329 375.175, 672.587 375.475, 682.582 375.774, 692.578 375.891, 696.481 376.333, 706.472 376.775, 716.462 376.928, 719.920 377.516, 729.902 378.104, 739.885 378.276, 742.810 379.016, 752.783 379.756, 762.755 379.928, 765.066 380.826, 775.026 381.725, 784.985 381.871, 786.607 382.937, 796.550 384.002, 806.493 384.095, 807.358 385.336, 817.281 386.584, 827.252 388.013, 837.149 389.324, 846.228 390.955, 856.094 392.300, 864.233 394.147, 874.061 395.494, 881.222 397.578, 891.002 398.889, 897.156 401.232, 906.878 402.469, 912.006 405.098, 921.654 406.214, 925.747 409.163, 935.302 410.108, 938.363 413.416, 947.800 413.722, 948.675 413.765, 948.797 414.132, 949.845 417.846, 959.130 418.270, 960.190 420.817, 965.730 422.504, 969.399 424.238, 972.648 426.817, 977.480 431.193, 984.447 435.618, 990.315 440.076, 995.106 444.554, 998.844 449.038, 1001.556 453.516, 1003.272 456.583, 1003.788 457.977, 1004.023 " fill="none" stroke="rgb(0, 0, 0)" stroke-linecap="butt" stroke-linejoin="round" stroke-opacity="1.0" stroke-width="3.0" />
            <path d=" M 479.623, 164.007 475.194, 164.229 470.693, 165.373 466.130, 167.472 461.514, 170.556 456.856, 174.652 452.168, 179.787 447.462, 185.985 442.751, 193.264 438.051, 201.642 433.631, 210.612 433.376, 211.130 429.372, 220.293 428.741, 221.735 425.105, 231.050 424.165, 233.459 420.857, 242.896 419.664, 246.300 416.651, 255.835 415.256, 260.247 412.509, 269.862 410.961, 275.283 408.456, 284.965 407.660, 288.045 406.795, 291.387 406.660, 291.962 404.379, 301.699 402.779, 308.527 400.704, 318.309 398.932, 326.667 397.049, 336.488 396.765, 337.968 395.272, 345.761 393.569, 355.615 391.867, 365.469 391.817, 365.757 390.285, 375.639 388.753, 385.521 388.586, 386.596 387.216, 396.501 385.846, 406.407 385.596, 408.210 384.381, 418.136 383.165, 428.062 382.863, 430.527 381.797, 440.470 380.730, 450.413 380.402, 453.466 379.480, 463.423 378.557, 473.381 378.227, 476.942 377.751, 483.016 376.968, 492.985 376.350, 500.864 375.705, 510.843 375.060, 520.822 374.782, 525.136 374.272, 535.123 373.763, 545.110 373.531, 549.660 373.155, 559.653 372.780, 569.646 372.604, 574.334 372.362, 584.331 372.120, 594.328 372.006, 599.056 371.898, 609.055 371.790, 619.055 371.740, 623.722 371.767, 633.722 371.794, 643.722 371.806, 648.228 371.970, 658.227 372.133, 668.226 372.203, 672.474 372.506, 682.469 372.809, 692.465 372.927, 696.359 373.373, 706.349 373.819, 716.340 373.973, 719.789 374.566, 729.771 375.160, 739.754 375.333, 742.671 376.079, 752.643 376.825, 762.615 376.998, 764.919 377.904, 774.878 378.809, 784.837 378.956, 786.453 380.030, 796.395 381.103, 806.337 381.196, 807.197 382.447, 817.118 383.703, 827.084 385.143, 836.980 386.463, 846.054 388.105, 855.919 389.460, 864.054 391.320, 873.879 392.676, 881.038 394.774, 890.816 396.095, 896.968 398.454, 906.686 399.699, 911.814 402.346, 921.457 403.470, 925.552 406.437, 935.102 407.389, 938.166 407.753, 939.197 409.024, 942.798 411.441, 949.646 412.472, 952.207 415.606, 959.989 418.060, 965.294 419.867, 969.197 424.208, 977.278 428.614, 984.245 433.067, 990.114 437.554, 994.906 442.060, 998.645 446.573, 1001.358 451.080, 1003.076 455.569, 1003.829 " fill="none" stroke="rgb(0, 0, 0)" stroke-linecap="butt" stroke-linejoin="round" stroke-opacity="1.0" stroke-width="3.0" />
            <path d=" M 481.992, 163.940 479.623, 164.007 " fill="none" stroke="rgb(0, 0, 0)" stroke-linecap="butt" stroke-linejoin="round" stroke-opacity="1.0" stroke-width="3.0" />
            <path d=" M 543.366, 256.408 542.805, 253.814 540.513, 244.080 540.232, 242.887 537.747, 233.200 537.529, 232.346 534.833, 222.716 534.694, 222.220 531.767, 212.658 531.729, 212.534 528.633, 203.316 525.407, 194.598 522.052, 186.409 518.568, 178.782 514.958, 171.749 511.223, 165.345 507.366, 159.604 503.390, 154.563 499.299, 150.258 495.096, 146.726 490.786, 144.004 486.376, 142.131 481.871, 141.144 477.280, 141.079 472.512, 141.228 467.782, 142.124 462.982, 144.014 458.122, 146.932 453.212, 150.910 448.265, 155.978 443.295, 162.163 438.314, 169.488 433.339, 177.972 428.776, 186.870 428.385, 187.632 424.257, 196.740 423.470, 198.477 419.727, 207.750 418.612, 210.512 415.211, 219.916 413.830, 223.735 410.735, 233.245 409.142, 238.140 406.324, 247.735 404.569, 253.711 402.003, 263.376 400.131, 270.425 397.796, 280.148 395.850, 288.252 393.728, 298.024 391.745, 307.155 389.821, 316.969 387.897, 326.782 387.837, 327.087 386.099, 336.935 384.361, 346.783 384.147, 347.994 382.584, 357.871 381.884, 362.296 380.695, 369.812 379.298, 379.714 377.901, 389.616 377.498, 392.472 376.260, 402.395 375.022, 412.318 374.576, 415.894 373.490, 425.835 372.404, 435.776 371.944, 439.994 371.006, 449.950 370.068, 459.906 369.618, 464.680 368.823, 474.648 368.029, 484.616 367.612, 489.853 366.958, 499.831 366.304, 509.810 365.936, 515.411 365.421, 525.397 364.905, 535.384 364.602, 541.247 364.223, 551.240 364.142, 553.370 363.764, 563.363 363.616, 567.252 363.374, 577.249 363.131, 587.246 362.984, 593.314 362.878, 603.314 362.772, 613.313 362.708, 619.321 362.740, 629.321 362.771, 639.321 362.789, 645.161 362.960, 655.160 363.131, 665.158 363.226, 670.724 363.539, 680.719 363.852, 690.714 364.015, 695.902 364.473, 705.892 364.932, 715.881 365.148, 720.592 365.757, 730.574 366.366, 740.555 366.517, 743.035 366.619, 744.695 367.384, 754.666 368.148, 764.637 368.204, 765.363 368.415, 768.118 369.343, 778.075 369.618, 781.023 370.526, 790.773 371.625, 800.712 372.723, 810.652 372.937, 812.581 374.216, 822.499 375.496, 832.416 375.632, 833.470 377.105, 843.361 378.596, 853.375 380.275, 863.233 381.810, 872.241 383.713, 882.058 385.257, 890.020 387.294, 899.293 388.916, 906.673 391.329, 916.377 392.769, 922.167 395.478, 931.794 396.797, 936.481 399.834, 946.009 400.979, 949.599 404.386, 959.000 405.296, 961.511 409.122, 970.750 409.730, 972.217 414.033, 981.243 414.261, 981.720 418.871, 990.032 423.544, 997.167 428.263, 1003.146 433.012, 1007.992 437.776, 1011.734 442.542, 1014.401 447.295, 1016.028 452.025, 1016.647 456.817, 1017.042 461.454, 1016.686 466.046, 1015.398 470.584, 1013.215 475.061, 1010.176 479.467, 1006.321 483.797, 1001.687 488.044, 996.313 492.202, 990.237 496.267, 983.496 500.236, 976.127 504.103, 968.163 507.865, 959.640 511.521, 950.591 515.004, 941.217 515.068, 941.046 518.314, 931.588 518.503, 931.037 521.535, 921.508 521.826, 920.594 524.662, 911.004 525.034, 909.743 527.690, 900.102 528.128, 898.513 530.618, 888.828 531.106, 886.928 533.442, 877.205 533.968, 875.014 536.159, 865.257 536.713, 862.793 538.770, 853.007 539.341, 850.288 541.271, 840.476 541.852, 837.520 543.662, 827.685 544.247, 824.509 545.943, 814.653 546.524, 811.274 547.618, 804.473 " fill="none" stroke="rgb(0, 0, 0)" stroke-linecap="butt" stroke-linejoin="round" stroke-opacity="1.0" stroke-width="3.0" />
            <path d=" M 560.389, 701.335 560.576, 699.343 561.426, 689.380 561.816, 684.817 562.585, 674.847 562.942, 670.216 563.631, 660.239 563.955, 655.551 564.565, 645.569 564.854, 640.834 565.386, 630.848 565.640, 626.077 566.095, 616.087 566.313, 611.289 566.691, 601.297 566.873, 596.483 567.174, 586.488 567.319, 581.668 567.544, 571.671 567.652, 566.856 567.801, 556.857 567.872, 552.056 567.943, 542.056 567.978, 537.279 567.972, 527.279 567.969, 522.535 567.949, 520.117 " fill="none" stroke="rgb(0, 0, 0)" stroke-linecap="butt" stroke-linejoin="round" stroke-opacity="1.0" stroke-width="3.0" />
            <path d=" M 477.280, 141.079 472.609, 141.974 467.868, 143.863 463.068, 146.781 458.218, 150.760 453.331, 155.830 448.420, 162.016 443.499, 169.344 438.583, 177.833 434.065, 186.754 433.689, 187.498 429.603, 196.625 428.832, 198.348 425.128, 207.637 424.030, 210.391 420.666, 219.808 419.303, 223.622 416.244, 233.138 414.669, 238.036 411.882, 247.640 410.148, 253.617 407.611, 263.290 405.760, 270.342 403.451, 280.072 401.526, 288.182 399.428, 297.960 397.467, 307.099 397.431, 307.287 396.514, 312.017 394.612, 321.835 393.602, 327.046 391.883, 336.897 390.164, 346.748 389.951, 347.968 388.406, 357.848 386.860, 367.728 386.535, 369.803 385.153, 379.707 385.066, 380.331 383.685, 390.236 383.371, 392.480 382.147, 402.404 380.922, 412.329 380.478, 415.920 379.404, 425.862 378.330, 435.805 377.872, 440.039 376.944, 449.996 376.015, 459.953 375.568, 464.744 375.244, 468.851 374.457, 478.820 373.670, 488.789 373.580, 489.937 372.931, 499.916 372.283, 509.895 371.918, 515.515 371.406, 525.502 370.895, 535.489 370.593, 541.372 370.217, 551.365 369.840, 561.358 369.612, 567.398 369.486, 572.611 369.244, 582.608 369.002, 592.605 368.981, 593.480 368.874, 603.480 368.766, 613.479 368.702, 619.508 368.730, 629.508 368.759, 639.508 368.776, 645.368 368.942, 655.366 369.108, 665.365 369.201, 670.950 369.507, 680.945 369.813, 690.941 369.973, 696.148 370.423, 706.137 370.873, 716.127 371.086, 720.856 371.685, 730.838 372.283, 740.820 372.532, 744.976 373.285, 754.948 374.037, 764.920 374.301, 768.415 375.214, 778.374 376.127, 788.332 376.380, 791.086 377.462, 801.027 378.544, 810.969 378.756, 812.909 380.017, 822.829 381.278, 832.749 381.413, 833.811 382.865, 843.705 384.335, 853.729 385.991, 863.591 387.505, 872.606 389.382, 882.429 390.905, 890.395 392.390, 897.247 394.515, 907.057 395.730, 912.009 398.112, 921.721 398.317, 922.559 400.386, 930.012 401.245, 933.108 402.292, 936.879 405.292, 946.418 406.419, 950.002 406.765, 950.970 410.132, 960.386 410.680, 961.918 414.463, 971.175 415.056, 972.626 418.492, 979.928 419.529, 982.132 424.081, 990.444 428.694, 997.579 433.353, 1003.557 438.042, 1008.401 442.746, 1012.140 447.452, 1014.804 452.146, 1016.427 456.817, 1017.042 " fill="none" stroke="rgb(0, 0, 0)" stroke-linecap="butt" stroke-linejoin="round" stroke-opacity="1.0" stroke-width="3.0" />
            <path d=" M 559.081, 355.481 558.755, 352.411 558.477, 350.044 " fill="none" stroke="rgb(0, 0, 0)" stroke-linecap="butt" stroke-linejoin="round" stroke-opacity="1.0" stroke-width="3.0" />
            <path d=" M 482.959, 507.323 482.462, 507.315 482.097, 507.365 481.733, 507.624 481.376, 508.086 481.031, 508.745 480.706, 509.590 480.405, 510.608 480.134, 511.780 479.898, 513.089 479.700, 514.510 479.544, 516.020 479.432, 517.593 479.368, 519.202 479.352, 520.819 479.383, 522.417 479.462, 523.967 482.419, 524.021 " fill="none" stroke="rgb(0, 0, 0)" stroke-linecap="butt" stroke-linejoin="round" stroke-opacity="1.0" stroke-width="3.0" />
            <path d=" M 565.357, 525.539 565.305, 523.972 565.289, 522.357 565.310, 520.722 565.333, 520.071 565.367, 519.095 565.380, 518.861 565.428, 518.036 565.459, 517.504 565.586, 515.977 565.744, 514.539 565.931, 513.216 566.144, 512.029 566.378, 510.999 566.526, 510.498 566.630, 510.143 566.896, 509.476 567.171, 509.007 567.450, 508.744 567.729, 508.692 " fill="none" stroke="rgb(0, 0, 0)" stroke-linecap="butt" stroke-linejoin="round" stroke-opacity="1.0" stroke-width="3.0" />
            <path d=" M 567.978, 520.118 567.949, 519.650 567.945, 519.600 567.907, 519.224 567.853, 518.852 567.787, 518.543 567.713, 518.306 567.632, 518.148 567.546, 518.073 " fill="none" stroke="rgb(0, 0, 0)" stroke-linecap="butt" stroke-linejoin="round" stroke-opacity="1.0" stroke-width="3.0" />
            <path d=" M 528.953, 466.536 529.248, 471.968 529.759, 471.974 534.850, 472.032 535.053, 471.690 534.622, 466.496 529.270, 466.134 529.201, 466.129 528.953, 466.536 " fill="none" stroke="rgb(0, 0, 0)" stroke-linecap="butt" stroke-linejoin="round" stroke-opacity="1.0" stroke-width="3.0" />
            <path d=" M 534.562, 466.596 528.953, 466.536 " fill="none" stroke="rgb(0, 0, 0)" stroke-linecap="butt" stroke-linejoin="round" stroke-opacity="1.0" stroke-width="3.0" />
            <path d=" M 534.850, 472.032 534.562, 466.596 534.622, 466.496 " fill="none" stroke="rgb(0, 0, 0)" stroke-linecap="butt" stroke-linejoin="round" stroke-opacity="1.0" stroke-width="3.0" />
            <path d=" M 530.771, 469.131 530.761, 469.341 530.797, 469.562 530.819, 469.628 530.897, 469.827 531.013, 470.002 531.161, 470.147 531.206, 470.191 531.372, 470.295 531.429, 470.326 531.597, 470.382 531.650, 470.400 531.715, 470.413 531.790, 470.422 531.875, 470.426 531.958, 470.425 532.041, 470.418 532.121, 470.406 532.195, 470.391 532.260, 470.371 532.314, 470.348 532.471, 470.277 532.530, 470.240 532.682, 470.121 532.788, 470.006 " fill="none" stroke="rgb(0, 0, 0)" stroke-linecap="butt" stroke-linejoin="round" stroke-opacity="1.0" stroke-width="3.0" />
            <path d=" M 530.859, 468.822 530.824, 468.926 530.822, 468.931 530.805, 468.998 530.771, 469.131 530.811, 468.966 " fill="none" stroke="rgb(0, 0, 0)" stroke-linecap="butt" stroke-linejoin="round" stroke-opacity="1.0" stroke-width="3.0" />
            <path d=" M 532.788, 470.006 532.877, 469.883 532.947, 469.748 532.995, 469.603 533.021, 469.452 533.024, 469.297 533.004, 469.142 532.962, 468.990 532.898, 468.844 532.814, 468.707 532.712, 468.582 532.593, 468.471 532.460, 468.377 532.315, 468.301 532.163, 468.245 532.004, 468.210 531.844, 468.198 531.685, 468.207 531.531, 468.238 531.384, 468.291 531.247, 468.364 531.124, 468.455 531.017, 468.563 530.928, 468.687 530.859, 468.822 " fill="none" stroke="rgb(0, 0, 0)" stroke-linecap="butt" stroke-linejoin="round" stroke-opacity="1.0" stroke-width="3.0" />
            <path d=" M 634.461, 851.269 636.629, 851.726 644.515, 852.900 652.384, 853.344 660.218, 853.073 668.003, 852.106 675.723, 850.463 683.365, 848.165 690.916, 845.231 698.362, 841.684 705.694, 837.543 712.900, 832.832 719.970, 827.573 726.896, 821.785 733.669, 815.493 740.281, 808.716 746.726, 801.476 752.996, 793.795 759.004, 785.801 759.085, 785.693 764.788, 777.479 764.989, 777.190 770.398, 768.779 770.702, 768.307 775.827, 759.720 776.219, 759.063 781.070, 750.318 781.537, 749.477 786.124, 740.591 786.652, 739.569 790.983, 730.555 791.559, 729.356 795.644, 720.228 796.257, 718.857 800.102, 709.625 800.742, 708.089 804.355, 698.764 805.012, 697.069 808.399, 687.660 809.064, 685.815 812.231, 676.330 812.895, 674.342 815.849, 664.788 816.505, 662.666 819.250, 653.050 819.891, 650.804 822.432, 641.132 823.052, 638.771 825.392, 629.049 825.985, 626.582 828.128, 616.814 828.690, 614.251 830.639, 604.442 831.165, 601.793 832.923, 591.949 833.409, 589.223 834.977, 579.347 835.421, 576.555 836.801, 566.651 837.198, 563.802 838.393, 553.874 838.741, 550.980 839.751, 541.031 840.048, 538.101 840.874, 528.135 841.119, 525.179 841.760, 515.200 841.951, 512.229 842.408, 502.239 842.544, 499.263 842.817, 489.266 842.898, 486.295 842.984, 476.296 843.010, 473.341 842.910, 463.341 842.881, 460.412 842.592, 450.416 842.509, 447.524 842.030, 437.536 841.893, 434.691 841.221, 424.714 841.033, 421.927 840.165, 411.965 839.928, 409.247 838.861, 399.304 838.577, 396.665 837.306, 386.746 836.979, 384.198 835.501, 374.307 835.135, 371.860 833.443, 362.004 833.042, 359.667 831.133, 349.851 830.702, 347.636 828.568, 337.866 828.113, 335.784 825.748, 326.067 825.275, 324.126 822.672, 314.471 822.190, 312.682 819.340, 303.097 818.856, 301.469 815.750, 291.963 815.274, 290.505 811.904, 281.090 811.446, 279.810 807.800, 270.498 807.371, 269.402 803.439, 260.208 803.052, 259.302 798.821, 250.241 798.489, 249.530 793.947, 240.621 793.686, 240.108 788.819, 231.372 788.643, 231.055 783.439, 222.517 783.365, 222.396 777.854, 214.150 772.115, 206.342 766.152, 198.995 759.969, 192.131 753.573, 185.774 746.971, 179.948 740.169, 174.678 733.175, 169.986 725.999, 165.897 718.650, 162.434 711.139, 159.620 703.478, 157.478 695.680, 156.031 687.758, 155.299 679.727, 155.302 671.603, 156.060 669.363, 156.284 " fill="none" stroke="rgb(0, 0, 0)" stroke-linecap="butt" stroke-linejoin="round" stroke-opacity="1.0" stroke-width="3.0" />
            <path d=" M 636.629, 851.726 635.219, 851.382 628.743, 849.803 620.876, 847.117 613.046, 843.654 605.275, 839.404 597.582, 834.357 589.989, 828.506 582.519, 821.845 575.519, 814.704 575.194, 814.373 568.657, 806.806 568.039, 806.091 561.957, 798.152 561.075, 797.002 555.439, 788.741 554.329, 787.113 551.071, 781.767 549.091, 778.518 547.823, 776.436 547.583, 775.996 543.720, 768.908 542.203, 766.126 541.582, 764.985 538.847, 759.375 535.630, 752.776 535.258, 751.924 531.264, 742.756 529.990, 739.832 526.369, 730.511 524.686, 726.179 522.839, 720.826 519.741, 711.846 517.848, 705.637 515.175, 696.866 513.449, 690.404 511.010, 681.276 508.752, 671.534 507.265, 665.117 505.320, 655.308 503.957, 648.434 502.317, 638.570 501.104, 631.275 499.760, 621.366 498.720, 613.691 497.666, 603.747 496.817, 595.736 496.047, 585.765 495.406, 577.467 494.916, 567.479 494.497, 558.942 494.281, 548.945 494.094, 540.224 494.151, 530.224 494.201, 521.374 494.358, 516.579 494.686, 506.584 494.821, 502.456 495.418, 492.474 495.952, 483.535 496.818, 473.573 497.591, 464.675 498.726, 454.739 499.731, 445.939 501.137, 436.038 502.365, 427.392 504.044, 417.534 505.482, 409.095 507.437, 399.288 509.068, 391.109 511.305, 381.362 513.110, 373.493 515.632, 363.816 517.590, 356.302 520.403, 346.706 521.550, 342.795 522.490, 339.591 525.601, 330.087 525.922, 329.106 527.788, 323.408 531.206, 314.010 533.464, 307.802 534.245, 305.861 535.526, 302.676 537.591, 297.545 538.411, 295.507 539.494, 292.815 542.242, 286.625 542.548, 285.934 543.890, 282.912 545.854, 278.487 547.315, 275.499 549.387, 271.261 549.420, 271.195 549.469, 271.094 550.759, 268.456 552.520, 264.854 557.258, 256.047 558.698, 253.371 559.465, 251.947 561.084, 249.213 566.180, 240.609 566.663, 239.793 572.129, 231.419 573.192, 229.792 574.089, 228.418 579.937, 220.306 581.715, 217.839 587.956, 210.026 589.515, 208.074 596.158, 200.600 597.462, 199.133 604.517, 192.046 605.532, 191.026 613.001, 184.376 613.699, 183.755 621.581, 177.602 621.937, 177.324 630.224, 171.730 638.535, 166.969 646.850, 163.032 655.146, 159.910 663.404, 157.591 671.445, 156.090 671.603, 156.060 " fill="none" stroke="rgb(0, 0, 0)" stroke-linecap="butt" stroke-linejoin="round" stroke-opacity="1.0" stroke-width="3.0" />
            <path d=" M 669.363, 156.284 661.152, 157.815 652.884, 160.134 644.578, 163.254 636.253, 167.189 627.931, 171.947 619.635, 177.537 611.747, 183.683 611.387, 183.963 603.912, 190.606 603.212, 191.227 596.151, 198.308 595.134, 199.328 588.483, 206.796 587.178, 208.260 580.930, 216.068 579.371, 218.017 573.515, 226.123 571.738, 228.585 566.264, 236.954 564.305, 239.949 559.202, 248.549 558.358, 249.971 557.101, 252.090 552.356, 260.892 550.150, 264.983 547.954, 269.466 546.966, 271.484 546.646, 272.137 543.479, 278.602 543.157, 279.327 541.815, 282.344 541.158, 283.823 539.004, 288.666 537.114, 292.915 537.042, 293.094 536.191, 295.205 535.417, 297.125 534.671, 298.978 533.384, 302.169 531.080, 307.885 527.657, 317.281 525.401, 323.474 522.284, 332.976 520.437, 338.610 520.099, 339.639 517.282, 349.234 515.197, 356.332 512.672, 366.008 510.715, 373.503 509.258, 379.844 507.019, 389.590 506.672, 391.099 504.714, 400.905 503.085, 409.064 501.404, 418.922 499.968, 427.340 498.560, 437.240 497.334, 445.866 496.198, 455.801 495.195, 464.580 494.329, 474.543 493.557, 483.419 492.961, 493.401 492.428, 502.319 492.260, 507.473 492.201, 509.280 491.956, 516.762 491.926, 517.681 491.891, 518.778 491.811, 521.215 491.755, 531.215 491.706, 540.043 491.923, 550.041 492.112, 558.740 492.606, 568.728 493.026, 577.244 493.799, 587.214 494.441, 595.493 495.499, 605.437 496.349, 613.428 497.697, 623.337 498.738, 630.993 499.918, 638.067 501.563, 647.930 501.597, 648.134 503.547, 657.942 504.911, 664.800 507.175, 674.540 508.663, 680.942 510.930, 689.404 512.835, 696.516 515.757, 706.080 517.277, 711.054 517.408, 711.482 520.677, 720.932 522.361, 725.801 525.990, 735.120 527.673, 739.442 531.675, 748.606 533.321, 752.374 534.804, 755.408 538.390, 762.747 539.282, 764.572 541.772, 769.131 543.288, 771.907 545.532, 776.014 547.194, 778.737 548.711, 781.220 550.691, 784.463 552.047, 786.683 557.691, 794.938 558.803, 796.564 564.893, 804.496 565.776, 805.647 572.321, 813.207 572.942, 813.924 579.949, 821.058 580.277, 821.391 587.757, 828.049 595.360, 833.898 603.064, 838.944 610.846, 843.194 618.687, 846.657 626.565, 849.344 634.461, 851.269 " fill="none" stroke="rgb(0, 0, 0)" stroke-linecap="butt" stroke-linejoin="round" stroke-opacity="1.0" stroke-width="3.0" />
            <path d=" M 769.974, 566.766 769.870, 567.371 767.923, 577.180 767.499, 579.316 765.302, 589.071 764.845, 591.101 762.393, 600.796 761.911, 602.705 759.199, 612.330 758.699, 614.105 755.723, 623.652 755.215, 625.279 751.966, 634.736 751.462, 636.202 747.931, 645.559 747.443, 646.853 743.625, 656.095 743.165, 657.207 739.048, 666.320 738.632, 667.241 734.206, 676.208 733.850, 676.929 729.104, 685.732 728.826, 686.249 723.748, 694.864 723.565, 695.174 718.143, 703.577 718.076, 703.681 712.366, 711.742 706.444, 719.333 700.320, 726.430 694.003, 733.004 687.505, 739.030 680.838, 744.484 674.014, 749.340 667.048, 753.571 659.954, 757.154 652.748, 760.066 645.447, 762.281 638.069, 763.778 630.632, 764.536 625.071, 764.536 " fill="none" stroke="rgb(0, 0, 0)" stroke-linecap="butt" stroke-linejoin="round" stroke-opacity="1.0" stroke-width="3.0" />
            <path d=" M 784.670, 571.298 774.677, 570.935 773.860, 570.906 769.974, 566.766 763.131, 559.475 756.287, 552.183 752.570, 548.223 751.952, 547.563 751.333, 546.903 750.713, 546.241 750.093, 545.578 749.388, 544.674 748.757, 543.550 748.644, 543.275 748.213, 542.229 747.767, 540.734 747.555, 539.706 747.430, 539.096 747.426, 539.062 747.207, 537.346 747.101, 535.516 747.117, 533.642 747.240, 531.944 747.253, 531.761 747.423, 530.514 747.506, 529.909 747.872, 528.122 748.344, 526.435 748.912, 524.879 749.565, 523.485 750.291, 522.280 751.074, 521.286 751.901, 520.521 752.204, 520.336 752.337, 520.255 752.755, 520.000 753.619, 519.732 754.343, 519.615 755.068, 519.497 755.792, 519.380 756.514, 519.263 756.877, 519.204 766.749, 517.610 776.621, 516.016 781.350, 515.253 " fill="none" stroke="rgb(0, 0, 0)" stroke-linecap="butt" stroke-linejoin="round" stroke-opacity="1.0" stroke-width="3.0" />
            <path d=" M 681.307, 220.782 676.226, 221.069 672.955, 221.255 664.543, 222.531 656.096, 224.640 655.281, 224.927 647.644, 227.610 639.216, 231.454 630.843, 236.181 622.554, 241.786 614.711, 247.988 614.378, 248.252 606.978, 254.978 606.339, 255.559 599.392, 262.753 598.472, 263.706 591.987, 271.318 590.815, 272.694 584.791, 280.676 583.405, 282.512 577.835, 290.817 576.277, 293.139 571.148, 301.723 569.463, 304.542 564.757, 313.365 562.989, 316.679 558.685, 325.705 556.876, 329.499 556.169, 331.161 554.374, 335.379 553.824, 336.672 553.331, 337.832 553.236, 338.053 551.798, 341.434 551.149, 342.959 550.325, 345.145 549.001, 348.654 547.608, 352.349 545.845, 357.022 545.746, 357.324 544.408, 361.360 541.261, 370.852 540.998, 371.646 539.031, 378.467 537.709, 383.055 536.635, 386.778 534.232, 396.485 533.193, 400.682 532.779, 402.357 530.733, 412.145 529.444, 418.316 527.743, 428.170 526.636, 434.586 526.372, 436.501 525.006, 446.407 524.347, 451.187 523.296, 461.132 522.574, 467.967 521.836, 477.940 521.324, 484.853 520.899, 494.844 520.797, 497.247 520.695, 499.631 520.604, 501.772 520.601, 502.023 520.490, 512.023 520.432, 517.254 520.416, 518.653 520.514, 523.467 520.684, 531.771 520.705, 532.792 520.759, 535.422 521.282, 545.408 521.628, 552.009 522.475, 561.973 523.017, 568.344 524.195, 578.275 524.797, 583.346 524.917, 584.360 526.433, 594.244 527.090, 598.525 527.315, 599.992 529.178, 609.817 530.195, 615.180 532.417, 624.930 533.542, 629.864 534.294, 632.666 536.887, 642.324 537.334, 643.991 540.311, 653.538 541.550, 657.513 543.474, 662.875 543.715, 663.549 544.591, 665.990 545.010, 667.156 546.168, 670.384 547.171, 672.831 550.966, 682.083 551.162, 682.561 551.237, 682.722 552.290, 684.977 552.826, 686.126 553.808, 688.230 556.506, 694.011 556.859, 694.675 557.337, 695.577 558.414, 697.610 560.389, 701.335 562.174, 704.703 567.332, 713.270 568.138, 714.609 573.789, 722.859 574.371, 723.707 580.531, 731.584 580.842, 731.983 587.525, 739.422 594.392, 746.016 601.414, 751.760 608.564, 756.656 615.815, 760.706 623.141, 763.914 625.071, 764.536 630.518, 766.292 637.921, 767.852 645.327, 768.608 652.714, 768.575 660.061, 767.774 667.347, 766.226 674.555, 763.949 681.666, 760.968 688.665, 757.309 695.534, 752.994 702.261, 748.047 708.831, 742.497 715.233, 736.370 721.454, 729.690 727.484, 722.483 733.313, 714.778 738.933, 706.600 744.240, 698.125 744.334, 697.974 749.300, 689.294 749.510, 688.927 754.148, 680.067 754.453, 679.484 758.776, 670.466 759.158, 669.670 763.177, 660.514 763.618, 659.510 767.345, 650.231 767.828, 649.029 771.273, 639.641 771.783, 638.251 774.955, 628.767 775.480, 627.199 778.386, 617.631 778.913, 615.898 781.562, 606.255 782.079, 604.369 784.477, 594.661 784.977, 592.638 787.128, 582.872 787.600, 580.725 789.510, 570.909 789.948, 568.653 791.620, 558.793 792.019, 556.444 793.457, 546.548 793.810, 544.121 " fill="none" stroke="rgb(0, 0, 0)" stroke-linecap="butt" stroke-linejoin="round" stroke-opacity="1.0" stroke-width="3.0" />
            <path d=" M 781.350, 515.253 791.328, 515.926 792.067, 515.976 " fill="none" stroke="rgb(0, 0, 0)" stroke-linecap="butt" stroke-linejoin="round" stroke-opacity="1.0" stroke-width="3.0" />
            <path d=" M 825.263, 530.696 825.896, 523.789 826.198, 520.486 826.853, 510.508 827.029, 507.820 827.423, 497.828 827.484, 496.264 827.493, 496.051 827.529, 495.125 827.542, 494.145 827.675, 484.145 827.697, 482.426 827.570, 472.427 827.535, 469.746 827.149, 459.753 827.047, 457.105 826.406, 447.126 826.238, 444.526 825.337, 434.567 825.107, 432.030 823.936, 422.099 823.646, 419.643 823.574, 419.150 822.124, 409.256 821.851, 407.393 820.116, 397.545 819.722, 395.305 817.696, 385.513 817.260, 383.404 814.941, 373.677 814.472, 371.712 811.856, 362.060 811.365, 360.246 808.448, 350.681 807.944, 349.029 804.710, 339.566 804.206, 338.092 800.639, 328.749 800.150, 327.467 796.235, 318.266 795.776, 317.188 791.502, 308.147 791.091, 307.279 786.446, 298.424 786.102, 297.767 781.081, 289.119 780.819, 288.669 775.415, 280.255 775.252, 280.002 769.406, 271.800 763.285, 264.104 756.897, 256.949 750.251, 250.366 743.361, 244.381 736.241, 239.011 728.908, 234.269 722.232, 230.645 721.376, 230.181 713.659, 226.787 705.773, 224.125 697.738, 222.225 689.575, 221.106 681.675, 220.796 681.307, 220.782 " fill="none" stroke="rgb(0, 0, 0)" stroke-linecap="butt" stroke-linejoin="round" stroke-opacity="1.0" stroke-width="3.0" />
            <path d=" M 655.281, 224.927 658.137, 225.794 664.541, 228.534 670.777, 231.993 676.834, 236.131 682.702, 240.908 688.370, 246.296 693.826, 252.281 699.060, 258.845 704.061, 265.962 708.824, 273.601 713.343, 281.726 717.617, 290.297 721.645, 299.280 725.378, 308.557 725.419, 308.657 728.807, 318.066 728.931, 318.411 731.989, 327.932 732.177, 328.519 734.922, 338.135 735.155, 338.953 737.603, 348.648 737.864, 349.682 740.033, 359.444 740.307, 360.677 742.213, 370.493 742.487, 371.904 744.139, 381.766 744.403, 383.343 745.803, 393.245 746.049, 394.979 747.203, 404.912 747.421, 406.789 748.334, 416.748 748.518, 418.752 749.198, 428.729 749.342, 430.841 749.797, 440.831 749.898, 443.032 750.137, 453.029 750.191, 455.301 750.219, 465.301 750.226, 467.625 750.041, 477.623 749.997, 479.987 749.598, 489.979 749.503, 492.365 748.889, 502.346 748.742, 504.738 747.915, 514.704 747.717, 517.085 747.069, 523.287 746.799, 524.436 746.478, 525.534 746.109, 526.570 745.696, 527.532 745.243, 528.411 744.755, 529.196 744.628, 529.365 " fill="none" stroke="rgb(0, 0, 0)" stroke-linecap="butt" stroke-linejoin="round" stroke-opacity="1.0" stroke-width="3.0" />
            <path d=" M 719.085, 530.557 719.077, 531.009 719.023, 531.557 728.343, 535.181 734.193, 537.455 743.513, 541.078 744.895, 541.615 748.644, 543.275 " fill="none" stroke="rgb(0, 0, 0)" stroke-linecap="butt" stroke-linejoin="round" stroke-opacity="1.0" stroke-width="3.0" />
            <path d=" M 803.174, 536.993 812.380, 540.898 812.928, 541.131 821.951, 544.959 823.569, 545.645 823.816, 545.738 829.469, 547.852 " fill="none" stroke="rgb(0, 0, 0)" stroke-linecap="butt" stroke-linejoin="round" stroke-opacity="1.0" stroke-width="3.0" />
            <path d=" M 799.009, 546.252 799.676, 546.287 809.662, 546.812 811.954, 546.932 813.886, 547.034 821.650, 547.441 823.598, 547.544 829.469, 547.852 830.634, 537.920 831.009, 534.728 831.917, 524.769 832.213, 521.528 832.865, 511.550 833.079, 508.277 833.477, 498.284 833.607, 494.996 833.748, 484.997 833.795, 481.709 833.679, 471.709 833.641, 468.439 833.267, 458.446 833.146, 455.209 832.511, 445.230 832.308, 442.044 831.409, 432.084 831.127, 428.966 829.960, 419.034 829.604, 415.999 828.165, 406.103 827.738, 403.168 826.021, 393.317 825.529, 390.498 823.528, 380.700 822.979, 378.014 820.688, 368.280 820.090, 365.739 817.499, 356.081 816.861, 353.702 813.963, 344.131 813.296, 341.928 813.229, 341.731 810.014, 332.262 809.397, 330.444 805.855, 321.092 805.358, 319.782 805.167, 319.276 801.286, 310.060 800.609, 308.454 796.377, 299.394 795.728, 298.005 791.132, 289.124 790.529, 287.957 785.557, 279.281 785.017, 278.340 779.654, 269.900 779.199, 269.184 775.323, 263.693 773.082, 260.518 768.436, 254.612 766.674, 252.371 760.065, 244.866 759.985, 244.775 753.025, 237.760 745.805, 231.356 738.339, 225.592 730.639, 220.499 722.723, 216.108 714.605, 212.444 706.305, 209.536 697.843, 207.412 689.238, 206.096 680.514, 205.611 670.522, 206.004 665.309, 206.209 " fill="none" stroke="rgb(0, 0, 0)" stroke-linecap="butt" stroke-linejoin="round" stroke-opacity="1.0" stroke-width="3.0" />
            <path d=" M 680.514, 205.611 671.695, 205.979 668.493, 206.426 662.807, 207.221 660.205, 207.841 653.877, 209.351 644.933, 212.385 636.005, 216.333 627.238, 221.142 627.126, 221.204 618.774, 226.704 618.326, 227.000 610.416, 233.119 609.639, 233.720 602.187, 240.389 601.100, 241.362 594.111, 248.515 592.743, 249.915 586.216, 257.492 584.603, 259.364 578.533, 267.312 576.716, 269.691 571.096, 277.963 569.118, 280.874 563.935, 289.426 561.843, 292.880 557.087, 301.676 554.925, 305.675 553.112, 309.436 549.943, 316.014 548.736, 318.520 548.503, 319.004 548.398, 319.220 548.063, 320.002 544.127, 329.195 542.296, 333.471 541.985, 334.292 540.645, 337.827 537.101, 347.178 536.647, 348.376 533.486, 357.863 531.481, 363.880 528.694, 373.484 528.588, 373.850 526.825, 379.927 524.405, 389.630 522.703, 396.451 520.642, 406.236 519.136, 413.386 517.429, 423.239 516.143, 430.662 " fill="none" stroke="rgb(0, 0, 0)" stroke-linecap="butt" stroke-linejoin="round" stroke-opacity="1.0" stroke-width="3.0" />
            <path d=" M 812.603, 532.024 812.985, 531.370 813.393, 530.551 813.746, 529.718 813.771, 529.659 814.117, 528.703 814.428, 527.689 823.414, 530.183 825.263, 530.696 825.028, 531.268 824.623, 532.092 824.194, 532.838 823.742, 533.499 823.271, 534.071 823.041, 534.298 822.785, 534.549 822.288, 534.928 821.784, 535.206 821.276, 535.377 820.769, 535.441 820.267, 535.395 819.774, 535.239 815.342, 533.252 813.931, 532.620 813.484, 532.419 812.603, 532.024 807.734, 529.841 807.402, 528.326 806.971, 526.943 806.449, 525.716 805.843, 524.666 805.165, 523.811 804.424, 523.165 803.634, 522.740 802.806, 522.544 797.917, 522.257 797.825, 522.252 791.525, 521.883 790.936, 521.848 790.079, 521.883 789.250, 522.152 788.465, 522.650 787.702, 523.368 786.975, 524.295 786.776, 524.622 786.295, 525.415 785.675, 526.709 785.125, 528.156 784.656, 529.731 784.274, 531.406 783.987, 533.154 787.538, 534.641 788.407, 535.005 790.178, 535.119 791.392, 535.197 798.486, 535.652 798.899, 535.678 800.285, 535.767 800.380, 535.214 800.511, 534.692 800.676, 534.217 800.869, 533.801 801.086, 533.455 801.321, 533.190 801.566, 533.012 801.816, 532.926 802.064, 532.934 " fill="none" stroke="rgb(0, 0, 0)" stroke-linecap="butt" stroke-linejoin="round" stroke-opacity="1.0" stroke-width="3.0" />
            <path d=" M 790.178, 535.119 789.116, 543.880 787.673, 553.776 787.324, 556.174 785.596, 566.024 784.670, 571.298 777.878, 563.958 775.540, 561.432 771.625, 557.202 764.832, 549.863 764.069, 549.039 763.458, 548.376 762.844, 547.713 762.231, 547.048 761.617, 546.383 760.919, 545.475 760.295, 544.347 760.243, 544.218 759.757, 543.019 759.316, 541.518 758.984, 539.873 758.764, 538.113 758.703, 537.023 758.662, 536.275 758.679, 534.392 758.816, 532.502 759.069, 530.641 759.152, 530.230 759.433, 528.845 759.903, 527.148 760.467, 525.585 761.116, 524.184 761.836, 522.972 762.614, 521.972 763.435, 521.203 764.282, 520.678 765.138, 520.409 765.856, 520.290 766.575, 520.172 767.292, 520.054 768.008, 519.936 768.368, 519.876 778.235, 518.252 781.119, 517.778 790.986, 516.154 792.067, 515.976 791.525, 521.883 " fill="none" stroke="rgb(0, 0, 0)" stroke-linecap="butt" stroke-linejoin="round" stroke-opacity="1.0" stroke-width="3.0" />
            <path d=" M 515.021, 412.888 515.651, 422.868 516.143, 430.662 514.771, 440.567 513.699, 448.304 512.645, 458.249 511.808, 466.139 511.070, 476.112 510.479, 484.089 510.056, 494.080 509.756, 501.154 509.717, 502.075 509.611, 512.074 509.526, 520.018 509.738, 530.016 509.904, 537.840 510.437, 547.826 510.845, 555.465 511.706, 565.428 512.344, 572.818 513.539, 582.746 514.391, 589.824 515.926, 599.706 516.969, 606.417 518.855, 616.237 520.063, 622.529 522.311, 632.273 523.208, 636.160 523.655, 638.098 526.278, 647.748 527.723, 653.066 530.734, 662.602 532.242, 667.381 535.658, 676.780 537.189, 680.995 541.026, 690.230 541.639, 691.705 542.536, 693.863 545.194, 699.479 548.256, 705.949 549.058, 707.442 550.645, 710.393 554.317, 717.221 554.666, 717.792 556.223, 720.341 558.216, 723.601 560.691, 727.650 566.404, 735.857 567.348, 737.212 573.575, 745.037 574.256, 745.894 581.008, 753.270 581.385, 753.681 588.705, 760.565 596.186, 766.542 603.798, 771.615 611.512, 775.788 619.301, 779.066 627.137, 781.463 634.996, 782.994 642.852, 783.673 650.682, 783.520 658.463, 782.556 666.175, 780.805 673.797, 778.288 681.312, 775.033 688.702, 771.066 695.951, 766.414 703.043, 761.103 709.965, 755.163 716.704, 748.622 723.249, 741.508 729.587, 733.848 735.582, 725.844 735.711, 725.672 741.339, 717.406 741.610, 717.007 746.885, 708.512 747.277, 707.882 752.213, 699.185 752.703, 698.322 757.315, 689.449 757.882, 688.356 762.182, 679.328 762.809, 678.011 766.807, 668.845 767.476, 667.310 771.184, 658.023 771.879, 656.281 775.307, 646.887 776.014, 644.949 779.171, 635.461 779.877, 633.339 782.770, 623.767 783.463, 621.474 786.100, 611.828 786.769, 609.378 789.156, 599.667 789.793, 597.076 791.935, 587.308 792.531, 584.590 794.433, 574.772 794.981, 571.942 796.647, 562.081 797.141, 559.155 798.574, 549.258 799.009, 546.252 793.810, 544.121 798.916, 544.382 808.903, 544.894 812.455, 545.076 812.187, 544.964 802.963, 541.101 799.180, 539.517 798.666, 539.301 791.326, 536.228 791.381, 535.662 791.392, 535.197 " fill="none" stroke="rgb(0, 0, 0)" stroke-linecap="butt" stroke-linejoin="round" stroke-opacity="1.0" stroke-width="3.0" />
            <path d=" M 764.625, 537.414 764.314, 537.288 764.030, 537.020 763.784, 536.619 763.587, 536.104 763.449, 535.496 763.375, 534.824 763.370, 534.117 763.432, 533.404 763.559, 532.719 763.746, 532.090 763.985, 531.546 764.264, 531.110 764.572, 530.801 764.895, 530.633 765.219, 530.613 " fill="none" stroke="rgb(0, 0, 0)" stroke-linecap="butt" stroke-linejoin="round" stroke-opacity="1.0" stroke-width="3.0" />
            <path d=" M 765.219, 530.613 765.529, 530.743 765.813, 531.014 766.057, 531.416 766.253, 531.931 766.390, 532.536 766.463, 533.205 766.469, 533.910 766.407, 534.620 766.280, 535.303 766.094, 535.930 765.857, 536.474 765.579, 536.910 765.272, 537.220 764.949, 537.391 764.625, 537.414 " fill="none" stroke="rgb(0, 0, 0)" stroke-linecap="butt" stroke-linejoin="round" stroke-opacity="1.0" stroke-width="3.0" />
            <path d=" M 506.325, 447.637 505.267, 457.581 504.366, 466.050 503.626, 476.022 502.991, 484.581 502.567, 494.572 502.204, 503.148 502.201, 503.461 502.096, 513.460 502.009, 521.668 502.224, 531.666 502.405, 540.060 502.943, 550.046 503.386, 558.243 504.254, 568.206 504.945, 576.138 506.149, 586.066 507.071, 593.670 508.618, 603.549 509.748, 610.765 511.648, 620.583 512.959, 627.356 515.225, 637.096 516.686, 643.377 519.329, 653.021 520.904, 658.769 521.709, 661.297 524.743, 670.826 525.588, 673.478 529.030, 682.867 530.712, 687.453 534.580, 696.675 536.248, 700.651 540.109, 708.732 542.165, 713.034 543.737, 715.926 547.496, 722.845 548.433, 724.570 549.084, 725.622 553.131, 732.169 554.680, 734.675 555.022, 735.229 556.698, 737.608 561.899, 744.991 568.174, 752.776 569.031, 753.839 575.835, 761.168 576.388, 761.763 583.726, 768.557 583.937, 768.753 591.649, 774.809 599.491, 779.934 607.434, 784.132 615.451, 787.411 623.513, 789.787 631.594, 791.275 639.669, 791.892 647.715, 791.657 655.707, 790.596 663.625, 788.731 671.450, 786.086 679.161, 782.689 686.743, 778.569 694.178, 773.751 701.451, 768.264 708.548, 762.137 715.458, 755.401 722.167, 748.083 728.532, 740.370 728.664, 740.211 734.652, 732.201 734.941, 731.815 740.565, 723.546 740.988, 722.924 746.260, 714.427 746.795, 713.565 751.731, 704.868 752.357, 703.765 756.970, 694.893 757.666, 693.554 761.967, 684.526 762.715, 682.956 766.716, 673.791 767.499, 671.998 771.211, 662.713 772.013, 660.707 775.445, 651.314 776.252, 649.108 779.413, 639.620 780.211, 637.225 783.108, 627.654 783.887, 625.083 786.528, 615.438 787.276, 612.707 789.666, 602.997 790.375, 600.120 792.520, 590.353 793.180, 587.345 795.084, 577.528 795.689, 574.406 797.356, 564.546 797.901, 561.326 799.333, 551.429 799.811, 548.127 799.676, 546.287 " fill="none" stroke="rgb(0, 0, 0)" stroke-linecap="butt" stroke-linejoin="round" stroke-opacity="1.0" stroke-width="3.0" />
            <path d=" M 665.309, 206.209 657.286, 206.521 656.983, 206.565 649.182, 207.706 641.021, 209.780 632.829, 212.758 624.633, 216.653 616.462, 221.473 608.345, 227.222 600.655, 233.615 600.313, 233.899 593.102, 240.827 592.399, 241.503 585.663, 248.894 584.634, 250.023 578.364, 257.813 577.052, 259.443 571.236, 267.578 569.686, 269.747 564.310, 278.180 562.569, 280.911 557.618, 289.599 555.735, 292.903 551.763, 300.695 549.216, 305.688 548.483, 307.298 547.086, 310.361 546.278, 312.135 545.557, 313.717 543.045, 319.228 540.402, 325.728 539.061, 329.025 537.252, 333.476 533.854, 342.880 531.866, 348.380 528.825, 357.907 526.916, 363.887 526.710, 364.622 524.017, 374.252 522.427, 379.937 520.073, 389.656 518.423, 396.466 516.395, 406.258 515.021, 412.888 511.528, 422.258 508.856, 429.425 " fill="none" stroke="rgb(0, 0, 0)" stroke-linecap="butt" stroke-linejoin="round" stroke-opacity="1.0" stroke-width="3.0" />
            <path d=" M 508.856, 429.425 507.479, 439.330 506.325, 447.637 " fill="none" stroke="rgb(0, 0, 0)" stroke-linecap="butt" stroke-linejoin="round" stroke-opacity="1.0" stroke-width="3.0" />
            <path d=" M 813.229, 341.731 810.797, 332.031 810.637, 331.392 807.962, 321.757 807.662, 320.680 804.736, 311.117 804.453, 310.193 801.268, 300.713 801.011, 299.948 797.557, 290.563 797.336, 289.962 793.603, 280.685 793.430, 280.255 789.406, 271.101 789.294, 270.847 784.930, 261.758 780.338, 253.011 775.522, 244.626 770.487, 236.619 765.236, 229.010 759.775, 221.818 754.107, 215.064 748.239, 208.769 742.175, 202.959 735.922, 197.657 729.487, 192.887 722.879, 188.669 716.107, 185.021 709.181, 181.960 702.111, 179.506 694.909, 177.679 687.588, 176.499 680.160, 175.988 672.639, 176.167 671.017, 176.356 665.042, 177.054 657.384, 178.659 649.683, 180.992 641.955, 184.062 634.219, 187.879 626.495, 192.450 618.804, 197.782 611.167, 203.881 603.766, 210.607 603.607, 210.752 601.333, 213.080 596.147, 218.390 592.446, 222.624 588.810, 226.785 582.626, 234.644 581.616, 235.927 575.819, 244.075 574.590, 245.802 571.809, 250.112 567.755, 256.394 562.696, 265.021 562.076, 266.079 562.039, 266.141 561.677, 266.758 561.622, 266.853 561.228, 267.525 561.217, 267.543 561.134, 267.686 556.429, 276.510 554.752, 279.657 550.392, 288.657 549.909, 289.655 548.635, 292.285 546.619, 296.869 545.260, 299.959 543.117, 304.831 542.806, 305.540 542.368, 306.636 538.663, 315.925 538.522, 316.277 537.283, 319.385 537.210, 319.586 533.816, 328.992 532.087, 333.783 528.995, 343.293 527.239, 348.696 524.942, 356.586 522.760, 364.083 520.254, 373.764 518.667, 379.898 516.445, 389.648 514.975, 396.094 513.032, 405.904 511.701, 412.620 510.032, 422.480 508.856, 429.425 507.459, 439.327 506.453, 446.454 506.325, 447.637 505.193, 457.573 504.501, 463.653 503.641, 473.616 503.006, 480.964 502.413, 490.946 501.974, 498.331 501.784, 504.157 501.459, 514.152 501.409, 515.698 501.352, 525.697 501.311, 533.006 501.524, 543.003 501.678, 550.199 502.163, 560.188 502.505, 567.223 503.267, 577.194 503.789, 584.024 504.835, 593.969 505.526, 600.545 506.861, 610.456 507.707, 616.737 509.335, 626.604 510.317, 632.552 512.246, 642.364 513.343, 647.945 515.580, 657.692 516.769, 662.874 519.323, 672.542 520.518, 677.067 520.580, 677.298 523.463, 686.873 524.759, 691.179 527.984, 700.645 529.292, 704.482 532.873, 713.819 534.159, 717.172 538.111, 726.358 538.267, 726.721 539.343, 729.222 541.831, 734.395 544.820, 740.609 545.374, 741.642 546.913, 744.508 550.567, 751.316 550.825, 751.747 552.357, 754.306 554.324, 757.589 556.562, 761.326 562.122, 769.638 562.783, 770.627 568.779, 778.630 569.210, 779.205 575.654, 786.852 575.822, 787.052 582.598, 794.158 589.519, 800.518 596.563, 806.133 603.708, 811.010 610.933, 815.156 618.220, 818.580 625.549, 821.291 632.442, 823.172 632.904, 823.298 640.267, 824.610 647.623, 825.238 654.956, 825.193 662.251, 824.494 669.493, 823.162 676.669, 821.216 683.766, 818.676 690.773, 815.559 697.678, 811.883 704.472, 807.665 711.144, 802.920 717.685, 797.668 724.086, 791.930 730.342, 785.731 736.443, 779.090 742.384, 772.027 748.160, 764.561 753.763, 756.710 759.188, 748.489 764.429, 739.915 769.364, 731.217 769.483, 731.006 774.147, 722.160 774.346, 721.783 778.750, 712.804 779.015, 712.264 783.167, 703.167 783.486, 702.468 787.395, 693.263 787.757, 692.411 791.429, 683.110 791.824, 682.109 795.266, 672.720 795.685, 671.576 798.901, 662.107 799.336, 660.827 802.332, 651.287 802.774, 649.878 805.557, 640.273 805.999, 638.746 808.573, 629.083 809.010, 627.446 811.380, 617.731 811.804, 615.993 813.972, 606.231 814.379, 604.400 816.349, 594.596 816.734, 592.682 818.509, 582.841 818.867, 580.854 820.449, 570.980 820.778, 568.928 822.168, 559.026 822.464, 556.920 823.598, 547.544 " fill="none" stroke="rgb(0, 0, 0)" stroke-linecap="butt" stroke-linejoin="round" stroke-opacity="1.0" stroke-width="3.0" />
            <path d=" M 670.396, 176.371 662.789, 177.258 655.121, 178.864 647.410, 181.196 639.672, 184.265 631.927, 188.079 624.194, 192.647 616.494, 197.975 608.848, 204.069 601.441, 210.787 601.280, 210.933 595.970, 216.360 593.813, 218.564 587.225, 226.088 586.468, 226.952 586.081, 227.443 579.889, 235.296 579.267, 236.086 573.462, 244.228 572.234, 245.950 566.805, 254.348 565.393, 256.532 561.329, 263.449 558.766, 267.812 558.448, 268.407 558.374, 268.547 558.348, 268.596 558.338, 268.613 558.337, 268.616 558.242, 268.794 553.531, 277.614 552.379, 279.770 549.282, 286.151 546.257, 292.385 545.924, 293.140 544.561, 296.234 541.888, 302.301 541.094, 304.105 540.424, 305.626 537.705, 312.428 536.397, 315.701 534.897, 319.455 531.497, 328.860 529.698, 333.838 526.602, 343.346 524.847, 348.734 523.883, 352.041 521.083, 361.641 520.365, 364.103 517.856, 373.783 516.271, 379.901 514.045, 389.650 512.578, 396.079 510.632, 405.887 509.303, 412.586 507.632, 422.445 506.458, 429.371 505.059, 439.273 504.055, 446.381 502.926, 456.317 502.104, 463.559 501.243, 473.522 500.610, 480.851 500.017, 490.833 499.580, 498.198 499.255, 508.193 499.249, 508.399 499.017, 515.545 498.962, 525.545 498.922, 532.833 499.137, 542.831 499.292, 550.008 499.780, 559.996 500.123, 567.013 500.888, 576.984 501.411, 583.795 502.460, 593.739 503.152, 600.298 504.492, 610.208 505.338, 616.472 506.971, 626.338 507.954, 632.271 509.888, 642.082 510.985, 647.647 513.228, 657.393 514.417, 662.561 516.978, 672.227 518.234, 676.970 520.041, 682.954 522.421, 690.838 525.653, 700.301 526.960, 704.128 530.549, 713.462 531.836, 716.806 535.796, 725.989 537.027, 728.845 537.854, 730.561 541.431, 737.979 542.512, 740.222 544.980, 744.809 546.521, 747.674 548.267, 750.920 550.476, 754.600 551.993, 757.127 553.958, 760.401 554.271, 760.922 559.839, 769.228 560.501, 770.215 566.505, 778.212 566.937, 778.787 573.388, 786.428 573.558, 786.629 580.344, 793.731 587.274, 800.087 594.328, 805.700 601.483, 810.575 608.718, 814.721 616.015, 818.145 623.354, 820.856 630.719, 822.865 " fill="none" stroke="rgb(0, 0, 0)" stroke-linecap="butt" stroke-linejoin="round" stroke-opacity="1.0" stroke-width="3.0" />
            <path d=" M 672.639, 176.167 670.396, 176.371 " fill="none" stroke="rgb(0, 0, 0)" stroke-linecap="butt" stroke-linejoin="round" stroke-opacity="1.0" stroke-width="3.0" />
            <path d=" M 630.719, 822.865 632.904, 823.298 " fill="none" stroke="rgb(0, 0, 0)" stroke-linecap="butt" stroke-linejoin="round" stroke-opacity="1.0" stroke-width="3.0" />
            <path d=" M 491.006, 425.543 490.497, 429.105 489.084, 439.005 488.941, 440.007 488.272, 444.698 488.222, 445.047 487.083, 454.982 485.963, 464.751 485.096, 474.713 484.237, 484.586 483.642, 494.569 483.050, 504.486 482.959, 507.323 482.949, 507.605 482.659, 516.601 482.640, 517.186 482.524, 520.764 482.419, 524.021 482.407, 524.379 482.357, 534.379 482.308, 544.198 482.534, 554.196 482.752, 563.874 483.256, 573.861 483.734, 583.340 484.521, 593.309 485.248, 602.530 486.322, 612.472 487.284, 621.381 488.651, 631.288 489.830, 639.834 491.498, 649.694 492.873, 657.829 494.849, 667.632 496.396, 675.313 498.689, 685.047 500.382, 692.235 503.002, 701.886 504.811, 708.547 507.769, 718.099 509.661, 724.207 512.971, 733.644 514.126, 736.939 514.911, 739.176 515.834, 741.513 519.508, 750.814 520.536, 753.418 522.889, 758.726 526.513, 766.904 530.958, 775.861 531.146, 776.240 531.689, 777.333 532.166, 778.296 532.618, 779.207 532.817, 779.606 535.333, 784.141 538.624, 790.070 539.421, 791.504 539.606, 791.802 540.144, 792.670 541.109, 794.223 544.091, 799.023 544.638, 799.905 545.587, 801.432 546.299, 802.579 547.618, 804.473 553.331, 812.680 553.427, 812.818 559.591, 820.692 560.778, 822.209 567.401, 829.702 568.326, 830.748 575.414, 837.802 576.046, 838.430 583.599, 844.985 583.913, 845.257 591.903, 851.232 599.991, 856.361 608.156, 860.653 616.376, 864.119 624.628, 866.773 632.894, 868.629 637.203, 869.571 645.440, 870.640 653.652, 870.945 661.822, 870.506 669.935, 869.343 677.975, 867.478 685.927, 864.932 693.779, 861.729 701.517, 857.891 709.131, 853.441 716.609, 848.402 723.942, 842.799 731.121, 836.653 738.137, 829.989 744.983, 822.829 751.562, 815.297 751.652, 815.195 757.908, 807.394 758.136, 807.109 764.081, 799.068 764.431, 798.594 770.075, 790.339 770.531, 789.671 775.884, 781.224 776.432, 780.360 781.504, 771.742 782.128, 770.682 786.930, 761.910 787.616, 760.657 792.156, 751.748 792.892, 750.305 797.180, 741.271 797.953, 739.644 801.998, 730.499 802.796, 728.693 806.605, 719.447 807.419, 717.471 810.998, 708.133 811.818, 705.994 815.175, 696.574 815.993, 694.279 819.133, 684.785 819.940, 682.345 822.868, 672.783 823.658, 670.206 826.380, 660.584 827.145, 657.879 829.665, 648.202 830.400, 645.380 832.722, 635.653 833.421, 632.724 835.548, 622.953 836.208, 619.925 838.143, 610.114 838.757, 606.999 840.503, 597.152 841.070, 593.960 842.629, 584.082 843.143, 580.822 844.517, 570.916 844.977, 567.599 846.167, 557.670 846.570, 554.306 847.577, 544.357 847.921, 540.956 848.745, 530.990 849.029, 527.563 849.671, 517.584 849.893, 514.141 850.353, 504.151 850.512, 500.703 850.789, 490.707 850.885, 487.264 850.979, 477.264 851.011, 473.837 850.920, 463.837 850.889, 460.436 850.611, 450.440 850.518, 447.076 850.051, 437.087 849.896, 433.770 849.239, 423.792 849.024, 420.534 848.173, 410.570 847.901, 407.381 846.852, 397.437 846.524, 394.328 845.274, 384.406 844.894, 381.389 843.439, 371.496 843.010, 368.580 841.344, 358.720 840.871, 355.918 838.989, 346.097 838.476, 343.418 836.372, 333.642 835.825, 331.098 833.493, 321.374 832.918, 318.976 830.350, 309.311 829.754, 307.068 826.942, 297.471 826.334, 295.394 823.269, 285.875 822.657, 283.972 819.330, 274.541 818.724, 272.822 815.125, 263.492 814.536, 261.964 810.653, 252.748 810.093, 251.418 805.915, 242.332 805.398, 241.206 800.912, 232.268 800.451, 231.349 795.644, 222.580 795.255, 221.870 790.113, 213.294 789.812, 212.792 784.321, 204.434 784.126, 204.137 778.272, 196.030 778.200, 195.930 772.038, 188.195 765.645, 180.956 759.027, 174.239 752.190, 168.069 745.142, 162.471 737.889, 157.471 730.442, 153.093 722.809, 149.365 715.003, 146.310 707.033, 143.953 698.915, 142.319 690.661, 141.431 682.287, 141.310 673.809, 141.978 669.349, 142.451 660.762, 143.930 652.109, 146.233 643.409, 149.378 634.684, 153.378 625.955, 158.245 617.607, 163.750 617.246, 163.988 609.303, 170.062 608.582, 170.613 601.053, 177.194 599.988, 178.124 592.874, 185.152 591.490, 186.519 584.789, 193.942 583.115, 195.796 576.820, 203.566 574.891, 205.947 568.992, 214.021 566.846, 216.959 561.332, 225.301 559.008, 228.818 553.867, 237.395 551.406, 241.503 546.626, 250.286 544.067, 254.989 543.366, 256.408 540.661, 261.883 539.658, 263.913 538.322, 266.617 537.021, 269.249 535.777, 272.025 535.672, 272.259 534.362, 275.181 530.685, 283.380 530.638, 283.485 530.295, 284.250 529.681, 285.761 529.402, 286.450 525.638, 295.714 524.857, 297.636 524.448, 298.644 523.916, 299.952 523.206, 301.889 519.760, 311.276 517.910, 316.316 515.696, 323.021 512.559, 332.517 512.303, 333.294 509.470, 342.878 507.117, 350.838 504.577, 360.510 502.375, 368.893 500.123, 378.636 498.097, 387.403 496.129, 397.207 494.302, 406.307 492.613, 416.163 491.006, 425.543 " fill="none" stroke="rgb(0, 0, 0)" stroke-linecap="butt" stroke-linejoin="round" stroke-opacity="1.0" stroke-width="3.0" />
            <path d=" M 673.809, 141.978 665.246, 143.455 656.615, 145.759 647.937, 148.906 639.232, 152.910 630.524, 157.783 622.185, 163.303 621.835, 163.534 613.903, 169.623 613.190, 170.170 605.673, 176.764 604.615, 177.693 597.514, 184.734 596.134, 186.103 589.447, 193.538 587.776, 195.397 581.495, 203.178 579.568, 205.566 573.684, 213.651 571.538, 216.600 566.038, 224.952 563.714, 228.482 558.587, 237.068 556.124, 241.193 551.358, 249.984 548.798, 254.708 548.256, 255.808 544.769, 262.891 541.762, 268.998 541.171, 270.322 540.424, 271.993 540.300, 272.270 540.294, 272.285 539.849, 273.281 535.769, 282.411 535.046, 284.030 533.616, 287.563 532.696, 289.835 532.496, 290.329 531.239, 293.434 528.676, 299.767 525.240, 309.159 522.677, 316.167 519.550, 325.665 518.031, 330.280 517.076, 333.183 514.249, 342.776 511.895, 350.766 509.362, 360.440 507.157, 368.862 507.118, 369.032 506.453, 371.916 505.945, 374.123 503.699, 383.868 502.882, 387.415 501.390, 394.865 499.427, 404.671 499.089, 406.362 497.404, 416.219 495.793, 425.643 495.319, 428.967 493.909, 438.867 493.008, 445.191 491.871, 455.127 491.212, 460.886 490.747, 464.941 489.881, 474.903 489.018, 484.822 488.423, 494.805 487.970, 502.388 487.828, 504.767 487.742, 507.400 487.684, 509.206 487.441, 516.684 487.375, 518.698 487.199, 524.109 487.180, 524.707 487.127, 534.706 487.120, 535.995 487.075, 544.570 487.296, 554.568 487.395, 559.039 487.512, 564.291 488.010, 574.278 488.486, 583.800 489.266, 593.770 489.990, 603.033 491.057, 612.976 492.016, 621.926 493.374, 631.833 494.551, 640.418 496.209, 650.280 497.582, 658.452 499.547, 668.257 501.093, 675.973 503.373, 685.709 504.451, 690.308 505.065, 692.929 507.672, 702.583 509.479, 709.274 512.424, 718.831 514.314, 724.964 515.296, 727.780 518.591, 737.222 519.547, 739.961 523.206, 749.268 525.156, 754.230 529.192, 763.379 531.116, 767.739 532.656, 770.858 536.229, 778.092 537.401, 780.464 539.521, 784.300 541.029, 787.030 543.986, 792.381 544.919, 793.890 546.417, 796.312 548.411, 799.537 550.846, 803.473 556.543, 811.691 557.953, 813.726 564.101, 821.613 565.284, 823.130 571.892, 830.636 572.811, 831.679 579.886, 838.747 580.510, 839.370 588.051, 845.938 588.355, 846.203 596.323, 852.182 604.390, 857.313 612.533, 861.605 620.730, 865.070 628.960, 867.720 637.203, 869.571 " fill="none" stroke="rgb(0, 0, 0)" stroke-linecap="butt" stroke-linejoin="round" stroke-opacity="1.0" stroke-width="3.0" />
            <path d=" M 747.423, 530.514 744.628, 529.365 735.379, 525.562 734.894, 525.363 734.533, 523.890 734.070, 522.547 733.512, 521.354 732.868, 520.333 732.148, 519.500 731.366, 518.870 730.533, 518.454 729.663, 518.260 719.680, 517.675 718.506, 517.606 717.608, 517.636 716.738, 517.893 715.912, 518.372 715.110, 519.065 714.348, 519.960 713.637, 521.042 712.991, 522.294 712.419, 523.694 711.933, 525.219 711.541, 526.842 711.249, 528.535 715.930, 530.355 719.085, 530.557 727.094, 531.071 727.190, 530.535 727.326, 530.030 727.497, 529.570 727.699, 529.168 727.927, 528.834 728.173, 528.578 728.432, 528.407 728.696, 528.325 728.958, 528.334 " fill="none" stroke="rgb(0, 0, 0)" stroke-linecap="butt" stroke-linejoin="round" stroke-opacity="1.0" stroke-width="3.0" />
            <path d=" M 729.663, 518.260 728.772, 518.291 727.907, 518.549 727.087, 519.031 726.292, 519.728 725.534, 520.628 724.828, 521.716 724.185, 522.974 723.617, 524.381 723.134, 525.914 722.743, 527.545 722.675, 527.939 722.452, 529.247 " fill="none" stroke="rgb(0, 0, 0)" stroke-linecap="butt" stroke-linejoin="round" stroke-opacity="1.0" stroke-width="3.0" />
            <path d=" M 711.249, 528.535 718.878, 529.020 722.452, 529.247 727.094, 531.071 " fill="none" stroke="rgb(0, 0, 0)" stroke-linecap="butt" stroke-linejoin="round" stroke-opacity="1.0" stroke-width="3.0" />
            <path d=" M 728.958, 528.334 729.211, 528.435 729.448, 528.623 729.663, 528.895 729.850, 529.243 730.003, 529.656 730.118, 530.125 730.193, 530.635 730.226, 531.174 730.215, 531.726 730.161, 532.277 " fill="none" stroke="rgb(0, 0, 0)" stroke-linecap="butt" stroke-linejoin="round" stroke-opacity="1.0" stroke-width="3.0" />
            <path d=" M 719.023, 531.557 729.002, 532.202 730.161, 532.277 739.468, 535.935 747.426, 539.062 " fill="none" stroke="rgb(0, 0, 0)" stroke-linecap="butt" stroke-linejoin="round" stroke-opacity="1.0" stroke-width="3.0" />
            <path d=" M 802.806, 522.544 801.956, 522.579 801.134, 522.850 800.356, 523.351 799.600, 524.074 798.879, 525.006 798.204, 526.132 798.034, 526.492 797.589, 527.433 797.043, 528.887 796.576, 530.470 796.196, 532.154 796.130, 532.561 795.910, 533.911 " fill="none" stroke="rgb(0, 0, 0)" stroke-linecap="butt" stroke-linejoin="round" stroke-opacity="1.0" stroke-width="3.0" />
            <path d=" M 783.987, 533.154 791.206, 533.612 795.910, 533.911 798.453, 534.990 800.285, 535.767 " fill="none" stroke="rgb(0, 0, 0)" stroke-linecap="butt" stroke-linejoin="round" stroke-opacity="1.0" stroke-width="3.0" />
            <path d=" M 802.064, 532.934 802.302, 533.037 802.525, 533.230 802.726, 533.509 802.900, 533.866 803.042, 534.292 803.148, 534.774 803.216, 535.300 803.243, 535.855 803.229, 536.425 803.174, 536.993 798.537, 536.693 791.326, 536.228 " fill="none" stroke="rgb(0, 0, 0)" stroke-linecap="butt" stroke-linejoin="round" stroke-opacity="1.0" stroke-width="3.0" />
            <path d=" M 787.597, 501.953 787.775, 502.073 787.926, 502.229 788.042, 502.416 788.121, 502.630 788.158, 502.863 788.148, 503.113 788.096, 503.346 788.003, 503.568 787.873, 503.771 787.711, 503.947 787.524, 504.089 787.315, 504.194 787.091, 504.256 786.857, 504.270 786.698, 504.249 786.545, 504.204 786.403, 504.136 " fill="none" stroke="rgb(0, 0, 0)" stroke-linecap="butt" stroke-linejoin="round" stroke-opacity="1.0" stroke-width="3.0" />
            <path d=" M 787.597, 501.953 787.550, 501.935 787.373, 501.866 787.354, 501.861 787.342, 501.857 787.305, 501.848 787.263, 501.840 787.219, 501.832 787.172, 501.826 787.124, 501.821 787.078, 501.818 787.038, 501.817 787.003, 501.817 786.975, 501.820 786.770, 501.844 786.729, 501.852 786.515, 501.925 786.481, 501.941 786.276, 502.060 786.099, 502.217 785.955, 502.408 785.851, 502.628 785.835, 502.663 785.776, 502.908 785.767, 503.145 785.806, 503.378 785.891, 503.599 786.017, 503.800 786.040, 503.830 786.200, 503.997 786.392, 504.130 786.403, 504.136 " fill="none" stroke="rgb(0, 0, 0)" stroke-linecap="butt" stroke-linejoin="round" stroke-opacity="1.0" stroke-width="3.0" />
            <path d=" M 784.609, 499.882 783.795, 505.945 784.708, 506.154 787.131, 506.249 790.077, 506.365 790.388, 500.225 790.250, 500.161 787.448, 500.023 784.609, 499.882 " fill="none" stroke="rgb(0, 0, 0)" stroke-linecap="butt" stroke-linejoin="round" stroke-opacity="1.0" stroke-width="3.0" />
            <path d=" M 783.795, 505.945 789.436, 506.238 " fill="none" stroke="rgb(0, 0, 0)" stroke-linecap="butt" stroke-linejoin="round" stroke-opacity="1.0" stroke-width="3.0" />
            <path d=" M 790.077, 506.365 789.436, 506.238 790.250, 500.161 " fill="none" stroke="rgb(0, 0, 0)" stroke-linecap="butt" stroke-linejoin="round" stroke-opacity="1.0" stroke-width="3.0" />
            <path d=" M 734.193, 537.455 727.064, 536.148 717.263, 534.163 715.632, 533.832 705.864, 531.689 704.212, 531.326 694.475, 529.049 692.797, 528.657 683.086, 526.270 681.380, 525.850 671.692, 523.375 669.956, 522.932 660.284, 520.391 658.516, 519.927 648.856, 517.341 647.056, 516.859 637.403, 514.249 635.569, 513.753 625.917, 511.138 624.049, 510.632 614.393, 508.032 612.490, 507.519 602.825, 504.953 600.888, 504.438 591.209, 501.924 589.235, 501.411 579.539, 498.967 577.528, 498.461 577.063, 488.471 576.886, 484.678 576.291, 474.695 576.074, 471.069 575.343, 461.096 575.091, 457.657 574.219, 447.695 573.936, 444.463 572.915, 434.515 572.607, 431.511 571.430, 421.581 571.103, 418.824 569.762, 408.914 569.426, 406.426 567.910, 396.541 567.572, 394.343 565.869, 384.489 565.543, 382.603 563.639, 372.786 563.337, 371.232 561.216, 361.459 560.955, 360.258 558.597, 350.540 558.477, 350.044 558.397, 349.714 555.780, 340.062 555.663, 339.628 554.374, 335.379 " fill="none" stroke="rgb(0, 0, 0)" stroke-linecap="butt" stroke-linejoin="round" stroke-opacity="1.0" stroke-width="3.0" />
            <path d=" M 535.777, 272.025 535.616, 272.011 533.602, 271.834 527.733, 271.318 527.012, 271.179 524.779, 270.746 518.869, 269.602 515.711, 268.663 513.381, 267.971 509.863, 266.926 " fill="none" stroke="rgb(0, 0, 0)" stroke-linecap="butt" stroke-linejoin="round" stroke-opacity="1.0" stroke-width="3.0" />
            <path d=" M 509.863, 266.926 505.098, 266.015 500.224, 266.072 495.250, 267.129 490.191, 269.217 489.355, 269.730 485.060, 272.366 485.042, 272.381 479.873, 276.606 478.816, 277.688 474.646, 281.956 470.732, 286.786 469.397, 288.433 464.146, 296.054 461.583, 300.352 458.914, 304.828 457.405, 307.712 453.721, 314.753 449.517, 323.827 448.590, 325.827 444.772, 335.069 443.546, 338.039 440.074, 347.417 438.611, 351.370 435.453, 360.858 433.811, 365.789 430.939, 375.368 429.172, 381.263 426.563, 390.916 424.718, 397.747 422.354, 407.464 420.474, 415.190 418.338, 424.960 416.464, 433.529 414.544, 443.343 412.714, 452.693 410.998, 462.545 409.282, 472.396 409.245, 472.606 407.725, 482.490 406.204, 492.373 406.080, 493.181 404.747, 503.092 403.415, 513.003 403.237, 514.326 402.087, 524.260 400.938, 534.193 400.735, 535.941 399.764, 545.894 398.794, 555.847 398.591, 557.924 397.796, 567.893 397.000, 577.861 396.816, 580.166 396.195, 590.147 395.574, 600.128 395.423, 602.556 394.975, 612.546 394.528, 622.536 394.419, 624.981 394.146, 634.978 393.874, 644.974 393.810, 647.327 393.714, 657.327 393.618, 667.326 393.597, 669.481 393.681, 679.480 393.765, 689.480 393.781, 691.331 394.050, 701.327 394.319, 711.324 394.358, 712.770 394.819, 722.759 395.279, 732.748 395.322, 733.694 395.982, 743.673 396.641, 753.651 396.664, 754.007 397.532, 763.970 398.373, 773.615 398.395, 773.506 400.408, 763.710 402.420, 753.915 403.791, 747.241 404.015, 746.151 406.117, 736.375 408.220, 726.598 409.771, 719.388 411.966, 709.632 414.162, 699.876 415.641, 693.305 417.932, 683.571 420.223, 673.837 421.625, 667.879 424.015, 658.169 426.405, 648.459 427.726, 643.091 430.217, 633.406 432.708, 623.721 433.943, 618.920 436.538, 609.262 439.133, 599.605 440.278, 595.345 442.979, 585.717 445.681, 576.089 446.731, 572.348 449.542, 562.751 452.352, 553.154 453.303, 549.908 456.226, 540.344 459.149, 530.781 459.997, 528.006 463.034, 518.478 466.070, 508.951 466.812, 506.624 469.966, 497.134 473.119, 487.644 473.751, 485.743 477.023, 476.293 480.295, 466.844 480.815, 465.343 484.208, 455.937 487.601, 446.530 488.005, 445.409 488.272, 444.698 " fill="none" stroke="rgb(0, 0, 0)" stroke-linecap="butt" stroke-linejoin="round" stroke-opacity="1.0" stroke-width="3.0" />
            <path d=" M 368.204, 765.363 364.296, 774.568 363.569, 776.281 " fill="none" stroke="rgb(0, 0, 0)" stroke-linecap="butt" stroke-linejoin="round" stroke-opacity="1.0" stroke-width="3.0" />
            <path d=" M 489.355, 269.730 479.360, 269.418 474.438, 269.263 " fill="none" stroke="rgb(0, 0, 0)" stroke-linecap="butt" stroke-linejoin="round" stroke-opacity="1.0" stroke-width="3.0" />
            <path d=" M 530.822, 468.931 530.811, 468.966 " fill="none" stroke="rgb(0, 0, 0)" stroke-linecap="butt" stroke-linejoin="round" stroke-opacity="1.0" stroke-width="3.0" />
            <path d=" M 557.881, 508.533 557.789, 505.003 " fill="none" stroke="rgb(0, 0, 0)" stroke-linecap="butt" stroke-linejoin="round" stroke-opacity="1.0" stroke-width="3.0" />
        </g>
    </g>
</svg>
