<?xml version='1.0' encoding='ascii'?>
<svg xmlns="http://www.w3.org/2000/svg" height="1080" version="1.1" width="1080">
    <g id="View Layer_LineSet" inkscape:groupmode="lineset" inkscape:label="View Layer_LineSet" xmlns:inkscape="http://www.inkscape.org/namespaces/inkscape">
        <g id="strokes" inkscape:groupmode="layer" inkscape:label="strokes" xmlns:inkscape="http://www.inkscape.org/namespaces/inkscape">
            <path d=" M 563.991, 489.322 564.001, 490.477 563.992, 491.641 563.962, 492.802 563.912, 493.950 563.842, 495.073 563.754, 496.160 563.647, 497.199 563.523, 498.181 563.381, 499.096 563.310, 499.495 563.272, 499.708 563.156, 500.276 563.086, 500.577 563.034, 500.798 562.905, 501.270 562.772, 501.690 562.634, 502.056 562.492, 502.365 560.997, 505.294 559.880, 507.481 559.331, 508.557 " fill="none" stroke="rgb(0, 0, 0)" stroke-linecap="butt" stroke-linejoin="round" stroke-opacity="1.0" stroke-width="3.0" />
            <path d=" M 363.516, 775.764 369.567, 780.500 " fill="none" stroke="rgb(0, 0, 0)" stroke-linecap="butt" stroke-linejoin="round" stroke-opacity="1.0" stroke-width="3.0" />
            <path d=" M 387.255, 781.647 396.683, 778.313 398.746, 777.583 " fill="none" stroke="rgb(0, 0, 0)" stroke-linecap="butt" stroke-linejoin="round" stroke-opacity="1.0" stroke-width="3.0" />
            <path d=" M 398.746, 777.583 393.731, 768.932 388.716, 760.280 388.197, 759.385 " fill="none" stroke="rgb(0, 0, 0)" stroke-linecap="butt" stroke-linejoin="round" stroke-opacity="1.0" stroke-width="3.0" />
            <path d=" M 474.488, 269.050 470.146, 269.594 465.734, 271.180 461.264, 273.840 456.750, 277.604 452.208, 282.501 449.702, 285.828 447.652, 288.549 445.973, 291.212 443.100, 295.766 438.571, 304.168 434.331, 313.225 434.082, 313.757 430.282, 323.007 429.655, 324.532 426.239, 333.931 425.311, 336.487 422.235, 346.002 421.070, 349.605 418.297, 359.213 416.956, 363.861 414.456, 373.544 412.990, 379.221 410.739, 388.965 409.196, 395.645 407.173, 405.438 405.595, 413.080 403.784, 422.914 402.210, 431.464 400.596, 441.333 399.061, 450.726 397.635, 460.624 396.209, 470.522 396.170, 470.791 394.922, 480.712 393.673, 490.634 393.556, 491.568 392.478, 501.509 391.399, 511.451 391.235, 512.962 390.322, 522.920 389.408, 532.878 389.225, 534.870 388.471, 544.842 387.718, 554.814 387.539, 557.187 386.942, 567.169 386.346, 577.151 386.188, 579.796 385.747, 589.786 385.305, 599.776 385.181, 602.581 384.894, 612.577 384.608, 622.573 384.526, 625.425 384.394, 635.424 384.262, 645.423 384.226, 648.206 384.250, 658.206 384.275, 668.206 384.281, 670.805 384.465, 680.803 384.648, 690.801 384.691, 693.105 385.038, 703.099 385.385, 713.093 385.451, 714.993 385.966, 724.979 386.482, 734.966 386.553, 736.358 387.244, 746.334 387.934, 756.310 387.989, 757.099 388.197, 759.385 387.774, 769.376 387.352, 779.367 387.255, 781.647 " fill="none" stroke="rgb(0, 0, 0)" stroke-linecap="butt" stroke-linejoin="round" stroke-opacity="1.0" stroke-width="3.0" />
            <path d=" M 566.976, 520.102 567.945, 520.119 567.978, 520.120 572.340, 511.121 574.635, 506.385 577.666, 501.709 577.202, 491.720 577.016, 487.713 576.418, 477.731 576.188, 473.899 575.453, 463.927 575.185, 460.290 574.305, 450.329 574.002, 446.909 572.971, 436.963 572.641, 433.781 571.451, 423.852 571.100, 420.930 569.741, 411.023 569.379, 408.382 567.840, 398.501 567.476, 396.165 565.744, 386.316 565.391, 384.306 563.452, 374.496 563.124, 372.835 560.961, 363.071 560.675, 361.780 559.070, 355.313 558.044, 351.177 555.367, 341.542 555.231, 341.054 553.871, 336.691 " fill="none" stroke="rgb(0, 0, 0)" stroke-linecap="butt" stroke-linejoin="round" stroke-opacity="1.0" stroke-width="3.0" />
            <path d=" M 550.369, 345.140 552.987, 353.391 553.624, 355.645 555.690, 362.956 556.877, 367.662 558.222, 372.994 560.416, 382.750 560.579, 383.474 562.545, 393.279 562.759, 394.347 562.763, 394.366 564.519, 404.211 564.774, 405.640 566.334, 415.517 566.610, 417.267 567.987, 427.172 568.273, 429.222 569.479, 439.149 569.762, 441.476 570.808, 451.421 571.079, 454.005 571.971, 463.965 572.224, 466.783 572.971, 476.755 573.198, 479.788 573.805, 489.770 574.001, 492.996 574.050, 494.033 574.007, 494.849 573.954, 495.649 573.891, 496.428 573.818, 497.181 573.737, 497.904 573.647, 498.595 573.549, 499.248 573.444, 499.861 573.331, 500.430 573.213, 500.952 573.089, 501.425 572.960, 501.846 572.827, 502.212 572.690, 502.521 568.748, 510.539 568.517, 509.783 568.267, 509.217 568.004, 508.851 567.851, 508.762 567.730, 508.692 565.248, 508.652 564.342, 508.637 563.464, 508.623 563.309, 508.621 559.899, 508.566 559.331, 508.557 558.117, 508.537 557.878, 508.533 557.347, 508.524 557.058, 508.576 556.768, 508.836 556.483, 509.303 556.208, 509.969 556.082, 510.380 555.946, 510.822 555.703, 511.849 555.484, 513.033 555.290, 514.354 555.127, 515.789 554.997, 517.314 554.902, 518.902 554.843, 520.527 554.823, 522.160 554.841, 523.773 554.896, 525.339 556.372, 525.366 558.212, 525.399 558.317, 525.401 560.095, 525.434 563.653, 525.499 564.465, 525.514 565.357, 525.530 565.432, 525.375 566.936, 522.272 566.921, 521.773 566.921, 521.258 566.935, 520.742 566.964, 520.238 566.976, 520.102 567.007, 519.760 567.061, 519.321 567.127, 518.934 567.201, 518.609 567.283, 518.354 567.369, 518.177 567.457, 518.083 567.546, 518.073 " fill="none" stroke="rgb(0, 0, 0)" stroke-linecap="butt" stroke-linejoin="round" stroke-opacity="1.0" stroke-width="3.0" />
            <path d=" M 465.131, 938.158 461.120, 937.784 458.129, 936.755 457.104, 936.403 453.097, 933.983 449.535, 930.865 449.114, 930.497 445.170, 925.922 441.282, 920.242 437.465, 913.441 433.739, 905.510 430.121, 896.449 426.879, 886.990 426.630, 886.263 423.791, 876.674 423.283, 874.961 420.798, 865.275 420.101, 862.562 417.927, 852.802 417.102, 849.096 415.206, 839.277 414.302, 834.596 412.659, 824.732 411.721, 819.104 410.308, 809.205 409.375, 802.674 408.174, 792.746 407.280, 785.365 406.276, 775.416 405.451, 767.245 404.606, 757.281 403.864, 748.525 403.751, 746.746 " fill="none" stroke="rgb(0, 0, 0)" stroke-linecap="butt" stroke-linejoin="round" stroke-opacity="1.0" stroke-width="3.0" />
            <path d=" M 381.874, 362.092 379.759, 371.866 378.689, 376.812 376.803, 386.632 375.557, 393.121 373.880, 402.979 372.610, 410.446 371.126, 420.335 369.867, 428.727 368.562, 438.641 367.344, 447.897 366.209, 457.832 365.060, 467.881 364.085, 477.833 363.109, 487.786 363.030, 488.594 362.207, 498.560 361.384, 508.526 361.267, 509.943 360.591, 519.920 359.915, 529.897 359.784, 531.828 359.251, 541.814 358.718, 551.800 358.593, 554.145 358.200, 564.138 357.806, 574.130 357.702, 576.783 357.446, 586.779 357.190, 596.776 357.117, 599.625 356.998, 609.624 356.878, 619.624 356.843, 622.556 356.861, 632.556 356.878, 642.556 356.883, 645.457 357.038, 655.456 357.193, 665.455 357.236, 668.210 357.530, 678.205 357.824, 688.201 357.898, 690.696 358.335, 700.687 358.772, 710.677 358.865, 712.803 359.450, 722.785 360.034, 732.768 360.131, 734.418 360.868, 744.391 361.605, 754.364 361.685, 755.439 362.582, 765.398 363.479, 775.358 363.516, 775.764 364.639, 785.701 365.699, 795.082 367.032, 804.993 368.178, 813.511 369.736, 823.388 370.933, 830.978 372.737, 840.814 373.948, 847.419 376.021, 857.201 377.202, 862.777 379.574, 872.492 380.676, 877.009 383.382, 886.636 384.349, 890.080 387.256, 899.046 " fill="none" stroke="rgb(0, 0, 0)" stroke-linecap="butt" stroke-linejoin="round" stroke-opacity="1.0" stroke-width="3.0" />
            <path d=" M 524.292, 532.861 524.563, 542.857 524.569, 543.089 524.728, 553.088 524.790, 556.929 524.839, 566.929 524.859, 570.851 524.801, 580.850 524.785, 583.645 " fill="none" stroke="rgb(0, 0, 0)" stroke-linecap="butt" stroke-linejoin="round" stroke-opacity="1.0" stroke-width="3.0" />
            <path d=" M 514.089, 736.996 514.068, 737.163 512.674, 747.065 512.212, 750.348 510.689, 760.232 510.212, 763.328 508.554, 773.190 508.068, 776.078 506.267, 785.914 505.781, 788.573 503.831, 798.381 503.352, 800.787 501.243, 810.562 500.783, 812.691 498.504, 822.428 498.075, 824.259 495.614, 833.952 495.230, 835.462 492.572, 845.102 492.251, 846.268 489.378, 855.847 489.139, 856.646 486.032, 866.151 485.898, 866.563 482.530, 875.987 479.041, 884.882 475.433, 893.210 471.713, 900.939 467.885, 908.029 463.956, 914.441 459.934, 920.137 455.824, 925.079 451.637, 929.228 449.535, 930.865 " fill="none" stroke="rgb(0, 0, 0)" stroke-linecap="butt" stroke-linejoin="round" stroke-opacity="1.0" stroke-width="3.0" />
            <path d=" M 398.348, 772.984 398.746, 777.583 399.777, 787.530 400.743, 796.842 401.985, 806.764 403.043, 815.216 404.511, 825.108 405.628, 832.634 407.341, 842.486 408.480, 849.032 410.463, 858.833 411.580, 864.352 413.859, 874.089 414.905, 878.553 417.516, 888.206 418.433, 891.598 421.418, 901.142 422.143, 903.459 425.554, 912.859 426.011, 914.117 429.913, 923.324 430.015, 923.564 434.132, 931.798 437.095, 936.741 437.381, 937.218 438.342, 938.821 442.623, 944.646 446.955, 949.292 451.320, 952.779 455.700, 955.134 460.077, 956.389 464.436, 956.578 468.762, 955.737 473.043, 953.903 477.267, 951.120 477.977, 950.490 481.421, 947.429 485.497, 942.869 486.973, 940.878 489.486, 937.485 493.378, 931.320 494.539, 929.206 497.169, 924.415 500.851, 916.811 504.417, 908.550 507.865, 899.673 511.191, 890.217 514.239, 880.693 514.390, 880.221 517.196, 870.623 517.460, 869.722 520.048, 860.063 520.398, 858.756 522.787, 849.046 523.203, 847.356 525.409, 837.602 525.872, 835.554 527.910, 825.764 528.405, 823.384 530.287, 813.563 530.801, 810.876 532.536, 801.028 533.059, 798.058 534.656, 788.186 535.178, 784.958 535.289, 784.215 " fill="none" stroke="rgb(0, 0, 0)" stroke-linecap="butt" stroke-linejoin="round" stroke-opacity="1.0" stroke-width="3.0" />
            <path d=" M 532.122, 778.354 530.470, 788.216 530.211, 789.759 528.421, 799.597 527.993, 801.951 526.057, 811.762 525.647, 813.835 523.554, 823.614 523.176, 825.384 522.959, 826.316 520.698, 836.057 520.580, 836.569 518.137, 846.266 517.862, 847.358 515.220, 857.003 515.024, 857.720 512.165, 867.302 512.069, 867.623 509.000, 877.034 505.820, 885.917 502.534, 894.237 499.146, 901.957 495.661, 909.041 492.085, 915.449 488.424, 921.143 484.685, 926.086 480.877, 930.237 477.007, 933.556 473.086, 936.007 469.123, 937.554 465.131, 938.158 " fill="none" stroke="rgb(0, 0, 0)" stroke-linecap="butt" stroke-linejoin="round" stroke-opacity="1.0" stroke-width="3.0" />
            <path d=" M 560.997, 505.294 559.841, 505.201 558.057, 505.059 557.787, 505.037 555.938, 504.889 548.822, 504.319 548.550, 504.298 546.704, 504.150 546.101, 504.102 546.550, 514.092 546.705, 517.539 547.047, 527.533 547.170, 531.119 547.409, 541.116 547.497, 544.820 547.634, 554.819 547.686, 558.623 547.724, 568.622 547.738, 572.507 547.677, 582.507 547.653, 586.455 547.495, 596.454 547.432, 600.445 547.177, 610.442 547.074, 614.460 546.722, 624.454 546.581, 628.480 546.132, 638.470 545.952, 642.485 545.406, 652.470 545.188, 656.457 544.561, 666.165 " fill="none" stroke="rgb(0, 0, 0)" stroke-linecap="butt" stroke-linejoin="round" stroke-opacity="1.0" stroke-width="3.0" />
            <path d=" M 547.141, 673.016 547.741, 663.034 548.012, 658.514 548.516, 648.527 548.748, 643.926 549.157, 633.935 549.347, 629.306 549.663, 619.311 549.809, 614.674 550.032, 604.676 550.135, 600.048 550.265, 590.049 550.324, 585.447 550.361, 575.447 550.378, 570.891 550.321, 560.891 550.295, 556.398 550.143, 546.399 550.076, 541.988 549.828, 531.991 549.721, 527.681 549.376, 517.687 549.231, 513.496 548.822, 504.319 " fill="none" stroke="rgb(0, 0, 0)" stroke-linecap="butt" stroke-linejoin="round" stroke-opacity="1.0" stroke-width="3.0" />
            <path d=" M 387.255, 781.647 388.316, 791.591 389.391, 801.657 390.660, 811.576 391.832, 820.733 393.325, 830.621 394.560, 838.800 396.297, 848.649 397.556, 855.791 399.560, 865.588 400.799, 871.646 403.100, 881.378 404.269, 886.323 406.901, 895.970 407.941, 899.785 410.950, 909.321 411.796, 912.002 415.235, 921.392 415.809, 922.959 419.746, 932.151 419.959, 932.648 424.224, 941.069 428.584, 948.226 433.016, 954.134 437.502, 958.816 442.022, 962.295 446.560, 964.600 451.098, 965.766 455.621, 965.833 460.114, 964.836 464.564, 962.818 468.958, 959.825 473.286, 955.900 " fill="none" stroke="rgb(0, 0, 0)" stroke-linecap="butt" stroke-linejoin="round" stroke-opacity="1.0" stroke-width="3.0" />
            <path d=" M 473.286, 955.900 480.213, 948.688 481.421, 947.429 " fill="none" stroke="rgb(0, 0, 0)" stroke-linecap="butt" stroke-linejoin="round" stroke-opacity="1.0" stroke-width="3.0" />
            <path d=" M 538.753, 479.986 539.443, 489.962 540.133, 499.938 540.389, 503.645 540.804, 513.636 540.947, 517.087 541.207, 527.084 541.227, 527.831 535.346, 530.746 532.056, 532.376 531.776, 532.515 531.496, 532.654 531.215, 532.794 530.935, 532.934 530.602, 532.983 527.063, 532.914 524.292, 532.861 520.674, 532.791 " fill="none" stroke="rgb(0, 0, 0)" stroke-linecap="butt" stroke-linejoin="round" stroke-opacity="1.0" stroke-width="3.0" />
            <path d=" M 520.673, 499.718 521.409, 497.344 524.371, 487.792 527.207, 478.644 537.140, 479.798 538.753, 479.986 535.893, 489.568 533.032, 499.150 530.804, 506.612 530.680, 507.023 530.435, 507.843 530.190, 508.665 529.945, 509.488 529.701, 510.312 529.422, 511.389 529.367, 511.663 529.170, 512.643 528.951, 514.049 528.769, 515.580 528.629, 517.208 528.618, 517.395 528.533, 518.901 528.482, 520.626 528.478, 522.348 528.510, 523.612 528.521, 524.036 528.610, 525.656 528.743, 527.177 528.918, 528.570 529.130, 529.807 529.377, 530.866 529.653, 531.727 529.954, 532.374 530.273, 532.795 530.602, 532.983 " fill="none" stroke="rgb(0, 0, 0)" stroke-linecap="butt" stroke-linejoin="round" stroke-opacity="1.0" stroke-width="3.0" />
            <path d=" M 530.899, 523.656 530.773, 523.613 530.654, 523.435 530.547, 523.131 530.456, 522.714 530.386, 522.202 530.340, 521.617 530.320, 520.985 530.327, 520.333 530.359, 519.691 530.417, 519.086 530.497, 518.546 530.596, 518.093 530.710, 517.748 530.832, 517.526 530.959, 517.436 " fill="none" stroke="rgb(0, 0, 0)" stroke-linecap="butt" stroke-linejoin="round" stroke-opacity="1.0" stroke-width="3.0" />
            <path d=" M 530.959, 517.436 531.085, 517.481 531.204, 517.661 531.311, 517.965 531.401, 518.382 531.471, 518.894 531.516, 519.478 531.536, 520.107 531.530, 520.756 531.497, 521.396 531.440, 521.999 531.360, 522.538 531.261, 522.991 531.148, 523.337 531.026, 523.562 530.899, 523.656 " fill="none" stroke="rgb(0, 0, 0)" stroke-linecap="butt" stroke-linejoin="round" stroke-opacity="1.0" stroke-width="3.0" />
            <path d=" M 552.795, 686.307 553.585, 676.338 553.677, 675.175 554.384, 665.200 554.628, 661.758 555.253, 651.777 555.471, 648.290 556.016, 638.304 556.208, 634.782 556.673, 624.793 556.838, 621.246 557.223, 611.254 557.360, 607.694 557.667, 597.699 557.776, 594.137 558.003, 584.140 558.083, 580.585 558.231, 570.586 558.283, 567.051 558.352, 557.051 558.375, 553.544 558.363, 543.544 558.359, 540.077 558.355, 539.589 558.262, 529.589 558.234, 526.660 558.212, 525.399 " fill="none" stroke="rgb(0, 0, 0)" stroke-linecap="butt" stroke-linejoin="round" stroke-opacity="1.0" stroke-width="3.0" />
            <path d=" M 454.151, 983.350 456.588, 983.540 460.701, 983.619 464.786, 982.865 468.835, 981.306 472.841, 978.975 476.795, 975.900 480.690, 972.115 484.522, 967.649 488.283, 962.535 491.970, 956.804 495.577, 950.484 499.100, 943.607 502.537, 936.203 505.884, 928.298 509.137, 919.922 512.295, 911.101 515.355, 901.861 518.316, 892.228 520.686, 883.940 521.177, 882.225 523.752, 872.562 523.934, 871.877 526.348, 862.173 526.589, 861.205 528.853, 851.465 529.139, 850.232 531.262, 840.460 531.584, 838.978 533.576, 829.179 533.924, 827.463 535.791, 817.639 536.158, 815.707 537.906, 805.861 538.285, 803.727 539.921, 793.862 540.103, 792.760 " fill="none" stroke="rgb(0, 0, 0)" stroke-linecap="butt" stroke-linejoin="round" stroke-opacity="1.0" stroke-width="3.0" />
            <path d=" M 526.987, 270.984 524.305, 262.894 521.445, 255.070 518.471, 247.729 515.385, 240.899 512.188, 234.606 508.884, 228.879 505.474, 223.746 501.961, 219.237 498.350, 215.381 494.643, 212.207 490.846, 209.746 486.964, 208.028 483.002, 207.081 478.966, 206.935 478.273, 207.050 474.865, 207.617 470.705, 209.156 466.495, 211.577 462.245, 214.904 457.963, 219.159 453.662, 224.362 449.353, 230.531 445.047, 237.679 440.759, 245.818 436.500, 254.954 432.662, 264.188 432.287, 265.090 431.286, 267.772 428.134, 276.223 424.945, 285.701 424.055, 288.348 421.144, 297.914 420.068, 301.451 417.408, 311.090 416.187, 315.514 414.188, 323.493 412.430, 330.515 410.212, 340.266 408.812, 346.423 406.792, 356.217 405.350, 363.203 403.514, 373.033 402.061, 380.813 400.398, 390.674 398.960, 399.204 397.461, 409.091 396.061, 418.323 394.719, 428.233 393.381, 438.110 392.188, 448.038 390.995, 457.967 390.932, 458.498 389.883, 468.443 388.835, 478.388 388.727, 479.419 387.819, 489.378 386.910, 499.336 386.777, 500.796 386.006, 510.766 385.235, 520.736 385.094, 522.550 384.457, 532.530 383.820, 542.510 383.686, 544.599 383.181, 554.586 382.676, 564.573 382.561, 566.856 382.187, 576.849 381.813, 586.842 381.723, 589.234 381.480, 599.231 381.237, 609.228 381.178, 611.644 381.066, 621.643 380.954, 631.643 380.927, 633.997 380.947, 643.997 380.967, 653.997 380.972, 656.204 381.126, 666.203 381.280, 676.202 381.310, 678.177 381.601, 688.173 381.892, 698.169 381.940, 699.831 382.371, 709.821 382.801, 719.812 382.856, 721.082 383.431, 731.065 384.007, 741.049 384.053, 741.851 384.778, 751.825 385.503, 761.798 385.522, 762.063 386.404, 772.024 387.255, 781.647 388.301, 791.592 389.241, 800.538 390.460, 810.463 391.469, 818.675 392.872, 828.576 393.926, 836.006 395.527, 845.877 396.598, 852.481 398.412, 862.315 399.472, 868.059 401.517, 877.848 402.532, 882.706 404.831, 892.438 405.764, 896.391 408.342, 906.053 409.152, 909.092 412.040, 918.666 412.682, 920.791 415.917, 930.253 416.336, 931.478 419.964, 940.796 420.101, 941.146 423.960, 949.794 427.900, 957.426 431.905, 964.051 435.963, 969.680 440.059, 974.329 444.181, 978.017 448.318, 980.765 452.457, 982.598 455.907, 983.384 456.588, 983.540 " fill="none" stroke="rgb(0, 0, 0)" stroke-linecap="butt" stroke-linejoin="round" stroke-opacity="1.0" stroke-width="3.0" />
            <path d=" M 476.568, 206.989 472.440, 207.672 468.254, 209.211 464.017, 211.632 459.740, 214.958 455.432, 219.212 451.104, 224.414 446.768, 230.582 442.436, 237.728 438.121, 245.865 433.838, 254.998 429.978, 264.223 429.599, 265.131 428.461, 268.162 425.421, 276.261 422.214, 285.733 421.318, 288.381 418.390, 297.943 417.307, 301.480 414.632, 311.115 413.404, 315.538 410.960, 325.235 409.625, 330.534 407.394, 340.282 406.024, 346.273 405.986, 346.436 403.954, 356.228 402.505, 363.210 400.659, 373.038 399.198, 380.813 397.525, 390.672 396.079, 399.198 394.572, 409.083 393.165, 418.309 391.815, 428.218 390.470, 438.088 389.271, 448.016 388.072, 457.944 388.009, 458.469 386.955, 468.414 385.901, 478.358 385.793, 479.382 384.880, 489.340 383.967, 499.298 383.834, 500.750 383.059, 510.720 382.284, 520.690 382.143, 522.496 381.503, 532.476 380.863, 542.455 380.730, 544.536 380.222, 554.523 379.715, 564.510 379.600, 566.784 379.225, 576.777 378.850, 586.770 378.760, 589.153 378.517, 599.151 378.273, 609.148 378.214, 611.555 378.103, 621.554 377.991, 631.554 377.965, 633.899 377.987, 643.899 378.008, 653.899 378.013, 656.098 378.169, 666.097 378.326, 676.095 378.357, 678.063 378.650, 688.058 378.944, 698.054 378.993, 699.708 379.428, 709.699 379.863, 719.689 379.918, 720.952 380.498, 730.935 381.079, 740.918 381.125, 741.713 381.856, 751.687 382.587, 761.660 382.606, 761.918 383.495, 771.879 384.353, 781.496 385.406, 791.440 386.354, 800.380 387.582, 810.304 388.598, 818.512 390.012, 828.411 391.072, 835.837 392.685, 845.706 393.764, 852.307 395.590, 862.139 396.657, 867.881 398.717, 877.667 399.739, 882.523 402.053, 892.252 402.993, 896.205 405.588, 905.863 406.405, 908.903 409.311, 918.471 409.958, 920.600 413.213, 930.055 413.637, 931.285 417.287, 940.595 417.426, 940.951 421.311, 949.598 425.277, 957.230 429.309, 963.855 433.393, 969.484 437.516, 974.134 441.665, 977.823 445.828, 980.572 449.994, 982.406 454.151, 983.350 " fill="none" stroke="rgb(0, 0, 0)" stroke-linecap="butt" stroke-linejoin="round" stroke-opacity="1.0" stroke-width="3.0" />
            <path d=" M 478.966, 206.935 476.568, 206.989 " fill="none" stroke="rgb(0, 0, 0)" stroke-linecap="butt" stroke-linejoin="round" stroke-opacity="1.0" stroke-width="3.0" />
            <path d=" M 558.384, 697.791 559.242, 687.827 559.441, 685.509 560.217, 675.539 560.543, 671.351 561.237, 661.375 561.533, 657.129 562.148, 647.148 562.412, 642.855 562.949, 632.870 563.181, 628.541 563.639, 618.551 563.839, 614.197 564.220, 604.204 564.386, 599.834 564.690, 589.839 564.823, 585.464 565.049, 575.466 565.148, 571.096 565.297, 561.097 565.362, 556.743 565.434, 546.743 565.465, 542.414 565.458, 532.414 565.456, 528.120 565.432, 525.375 " fill="none" stroke="rgb(0, 0, 0)" stroke-linecap="butt" stroke-linejoin="round" stroke-opacity="1.0" stroke-width="3.0" />
            <path d=" M 455.480, 1003.699 457.888, 1003.893 462.322, 1003.729 466.718, 1002.667 471.067, 1000.742 475.361, 997.990 479.593, 994.446 483.755, 990.146 487.842, 985.127 491.847, 979.423 495.766, 973.070 499.595, 966.101 503.330, 958.550 506.967, 950.449 510.504, 941.830 511.461, 939.293 513.938, 932.722 517.225, 923.278 517.267, 923.156 520.335, 913.638 520.489, 913.159 523.357, 903.579 523.603, 902.759 526.288, 893.126 526.607, 891.981 529.123, 882.303 529.500, 880.851 531.860, 871.133 532.283, 869.392 534.496, 859.640 534.953, 857.627 537.030, 847.845 537.511, 845.578 539.459, 835.770 539.957, 833.266 541.784, 823.434 542.290, 820.710 544.002, 810.857 544.510, 807.929 545.551, 801.513 " fill="none" stroke="rgb(0, 0, 0)" stroke-linecap="butt" stroke-linejoin="round" stroke-opacity="1.0" stroke-width="3.0" />
            <path d=" M 539.688, 263.937 538.392, 258.537 535.860, 248.863 535.765, 248.499 533.013, 238.872 530.136, 229.684 527.134, 220.961 524.008, 212.731 520.760, 205.025 517.391, 197.872 513.901, 191.304 510.295, 185.353 506.574, 180.051 502.741, 175.433 498.801, 171.532 494.757, 168.383 490.615, 166.020 486.380, 164.479 482.059, 163.793 479.900, 163.892 477.659, 163.996 473.187, 165.121 468.653, 167.201 464.066, 170.265 459.438, 174.342 454.778, 179.458 450.101, 185.636 445.419, 192.896 440.746, 201.255 436.340, 210.232 436.098, 210.724 432.107, 219.894 431.490, 221.312 427.867, 230.632 426.939, 233.019 423.644, 242.460 422.463, 245.842 419.461, 255.381 418.079, 259.773 417.099, 263.219 414.362, 272.837 413.805, 274.795 412.266, 280.772 409.771, 290.456 409.735, 290.596 409.661, 290.884 407.389, 300.623 405.665, 308.012 403.598, 317.796 401.835, 326.140 399.960, 335.963 398.191, 345.224 396.496, 355.079 394.800, 364.934 394.752, 365.212 393.225, 375.095 391.699, 384.978 391.534, 386.044 390.168, 395.950 388.803, 405.857 388.555, 407.654 387.343, 417.580 386.131, 427.506 385.942, 429.055 385.831, 429.968 384.767, 439.911 383.704, 449.854 383.377, 452.906 382.457, 462.863 381.536, 472.821 381.207, 476.382 380.426, 486.352 379.645, 496.321 379.333, 500.307 378.689, 510.286 378.044, 520.265 377.765, 524.584 377.256, 534.571 376.746, 544.558 376.513, 549.115 376.137, 559.108 375.760, 569.101 375.583, 573.798 375.339, 583.795 375.095, 593.792 374.980, 598.531 374.869, 608.530 374.758, 618.529 374.706, 623.209 374.729, 633.209 374.752, 643.209 374.763, 647.730 374.922, 657.729 375.081, 667.728 375.148, 671.992 375.446, 681.987 375.743, 691.983 375.859, 695.895 376.299, 705.885 376.738, 715.876 376.890, 719.344 377.476, 729.327 378.061, 739.310 378.233, 742.246 378.971, 752.219 379.708, 762.192 379.880, 764.516 380.776, 774.476 381.671, 784.436 381.819, 786.072 382.881, 796.015 383.943, 805.959 384.037, 806.839 385.276, 816.762 386.522, 826.751 387.948, 836.649 389.258, 845.745 390.885, 855.612 392.230, 863.770 394.074, 873.599 395.421, 880.779 397.500, 890.560 398.813, 896.734 401.151, 906.457 402.390, 911.605 405.014, 921.255 406.133, 925.368 409.076, 934.925 410.024, 938.006 413.325, 947.446 413.671, 948.436 413.725, 948.588 414.047, 949.510 417.753, 958.798 418.183, 959.877 420.780, 965.541 422.416, 969.108 424.216, 972.491 426.728, 977.211 431.104, 984.199 435.528, 990.088 439.986, 994.899 444.464, 998.657 448.948, 1001.389 453.427, 1003.124 456.540, 1003.660 457.888, 1003.893 " fill="none" stroke="rgb(0, 0, 0)" stroke-linecap="butt" stroke-linejoin="round" stroke-opacity="1.0" stroke-width="3.0" />
            <path d=" M 479.691, 163.860 475.263, 164.063 470.763, 165.189 466.200, 167.269 461.585, 170.333 456.927, 174.410 452.239, 179.525 447.533, 185.702 442.822, 192.960 438.121, 201.317 433.693, 210.283 433.445, 210.784 429.434, 219.944 428.810, 221.368 425.167, 230.681 424.232, 233.071 420.918, 242.506 419.729, 245.891 416.710, 255.424 415.319, 259.817 412.568, 269.431 411.021, 274.834 408.512, 284.514 407.649, 287.844 406.853, 290.918 406.679, 291.657 404.394, 301.392 402.834, 308.039 400.755, 317.821 398.983, 326.161 397.097, 335.981 396.781, 337.628 395.319, 345.238 393.614, 355.091 391.908, 364.945 391.861, 365.218 390.325, 375.100 388.790, 384.981 388.625, 386.043 387.252, 395.948 385.879, 405.853 385.631, 407.644 384.412, 417.570 383.194, 427.495 382.893, 429.949 381.824, 439.892 380.754, 449.835 380.427, 452.878 379.502, 462.836 378.577, 472.793 378.246, 476.346 377.760, 482.521 376.976, 492.490 376.364, 500.261 375.717, 510.240 375.069, 520.219 374.790, 524.529 374.278, 534.515 373.766, 544.502 373.533, 549.050 373.155, 559.043 372.778, 569.035 372.600, 573.723 372.356, 583.720 372.112, 593.717 371.997, 598.446 371.887, 608.446 371.776, 618.445 371.725, 623.115 371.749, 633.115 371.774, 643.115 371.785, 647.627 371.946, 657.625 372.108, 667.624 372.176, 671.879 372.477, 681.875 372.777, 691.870 372.895, 695.773 373.338, 705.764 373.782, 715.754 373.935, 719.213 374.526, 729.196 375.116, 739.179 375.290, 742.108 376.033, 752.080 376.777, 762.052 376.949, 764.369 377.852, 774.329 378.755, 784.288 378.903, 785.918 379.974, 795.860 381.044, 805.803 381.138, 806.678 382.386, 816.600 383.641, 826.583 385.078, 836.480 386.397, 845.572 388.035, 855.437 389.390, 863.591 391.246, 873.417 392.603, 880.596 394.696, 890.374 396.018, 896.547 398.372, 906.266 399.619, 911.414 402.261, 921.059 403.388, 925.173 406.349, 934.725 407.305, 937.809 407.716, 938.975 408.991, 942.598 411.355, 949.311 412.439, 952.011 415.518, 959.676 418.023, 965.104 419.778, 968.906 424.119, 977.009 428.523, 983.996 432.976, 989.886 437.463, 994.699 441.970, 998.458 446.483, 1001.191 450.990, 1002.927 455.480, 1003.699 " fill="none" stroke="rgb(0, 0, 0)" stroke-linecap="butt" stroke-linejoin="round" stroke-opacity="1.0" stroke-width="3.0" />
            <path d=" M 482.059, 163.793 479.691, 163.860 " fill="none" stroke="rgb(0, 0, 0)" stroke-linecap="butt" stroke-linejoin="round" stroke-opacity="1.0" stroke-width="3.0" />
            <path d=" M 543.391, 256.429 542.844, 253.897 540.555, 244.162 540.273, 242.961 537.792, 233.274 537.572, 232.413 534.880, 222.782 534.739, 222.277 531.817, 212.714 531.776, 212.581 528.682, 203.354 525.458, 194.625 522.105, 186.425 518.624, 178.786 515.016, 171.741 511.283, 165.324 507.428, 159.569 503.454, 154.514 499.364, 150.193 495.163, 146.646 490.855, 143.908 486.446, 142.017 481.943, 141.012 477.352, 140.929 472.585, 141.078 467.857, 141.955 463.058, 143.825 458.198, 146.723 453.289, 150.681 448.342, 155.728 443.371, 161.891 438.391, 169.194 433.415, 177.656 428.843, 186.550 428.460, 187.293 424.325, 196.398 423.544, 198.116 419.794, 207.386 418.685, 210.129 415.277, 219.530 413.900, 223.330 410.800, 232.838 409.210, 237.713 406.388, 247.306 404.635, 253.262 402.064, 262.926 400.195, 269.956 397.855, 279.678 395.910, 287.763 393.784, 297.534 391.801, 306.647 389.874, 316.459 387.947, 326.272 387.890, 326.561 386.148, 336.408 384.407, 346.255 384.196, 347.450 382.629, 357.327 381.874, 362.092 380.738, 369.253 379.338, 379.155 377.939, 389.056 377.537, 391.898 376.296, 401.821 375.055, 411.744 374.609, 415.308 373.521, 425.249 372.433, 435.189 371.972, 439.397 371.031, 449.353 370.091, 459.308 369.640, 464.073 368.843, 474.041 368.046, 484.010 367.628, 489.239 366.972, 499.217 366.315, 509.196 365.947, 514.792 365.429, 524.779 364.911, 534.765 364.607, 540.625 364.225, 550.618 364.137, 552.939 363.755, 562.932 363.614, 566.629 363.369, 576.626 363.124, 586.623 362.976, 592.692 362.867, 602.692 362.759, 612.691 362.694, 618.702 362.723, 628.702 362.752, 638.702 362.769, 644.547 362.937, 654.546 363.106, 664.545 363.200, 670.118 363.510, 680.113 363.820, 690.108 363.982, 695.305 364.438, 705.295 364.894, 715.284 365.110, 720.006 365.716, 729.988 366.322, 739.969 366.502, 742.928 366.574, 744.122 367.336, 754.093 368.098, 764.064 368.157, 764.831 368.365, 767.559 369.290, 777.516 369.567, 780.500 370.471, 790.230 371.566, 800.169 372.662, 810.109 372.876, 812.055 374.153, 821.973 375.429, 831.891 375.567, 832.963 377.036, 842.854 378.527, 852.888 380.202, 862.746 381.737, 871.774 383.636, 881.592 385.180, 889.575 387.256, 899.046 388.836, 906.249 391.244, 915.955 392.686, 921.767 395.389, 931.395 396.711, 936.104 399.742, 945.633 400.891, 949.244 404.291, 958.648 405.206, 961.179 409.024, 970.422 409.638, 971.908 413.932, 980.939 414.168, 981.435 418.778, 989.769 423.450, 996.926 428.168, 1002.927 432.917, 1007.795 437.682, 1011.558 442.447, 1014.245 447.202, 1015.891 451.933, 1016.530 456.725, 1016.924 461.363, 1016.587 465.956, 1015.316 470.496, 1013.150 474.974, 1010.127 479.382, 1006.287 483.713, 1001.668 487.962, 996.308 492.122, 990.245 496.189, 983.517 500.159, 976.159 504.028, 968.206 507.793, 959.694 511.451, 950.654 514.939, 941.282 515.000, 941.119 518.251, 931.662 518.437, 931.119 521.473, 921.591 521.762, 920.683 524.602, 911.095 524.973, 909.841 527.632, 900.201 528.069, 898.617 530.562, 888.933 531.049, 887.039 533.387, 877.316 533.913, 875.131 536.107, 865.375 536.660, 862.916 538.719, 853.130 539.290, 850.416 541.222, 840.605 541.804, 837.653 543.616, 827.818 544.200, 824.646 545.898, 814.791 546.480, 811.415 547.582, 804.571 " fill="none" stroke="rgb(0, 0, 0)" stroke-linecap="butt" stroke-linejoin="round" stroke-opacity="1.0" stroke-width="3.0" />
            <path d=" M 560.360, 701.510 560.548, 699.506 561.400, 689.543 561.790, 684.982 562.561, 675.011 562.919, 670.381 563.609, 660.405 563.933, 655.717 564.545, 645.736 564.835, 641.001 565.368, 631.016 565.623, 626.244 566.079, 616.255 566.298, 611.457 566.677, 601.465 566.860, 596.651 567.162, 586.656 567.308, 581.836 567.534, 571.839 567.643, 567.023 567.793, 557.024 567.865, 552.222 567.938, 542.222 567.972, 537.444 567.968, 527.444 567.966, 522.700 567.945, 520.119 " fill="none" stroke="rgb(0, 0, 0)" stroke-linecap="butt" stroke-linejoin="round" stroke-opacity="1.0" stroke-width="3.0" />
            <path d=" M 477.352, 140.929 472.683, 141.805 467.943, 143.674 463.143, 146.572 458.294, 150.531 453.407, 155.579 448.496, 161.744 443.575, 169.050 438.659, 177.517 434.131, 186.433 433.763, 187.159 429.670, 196.283 428.905, 197.987 425.194, 207.274 424.102, 210.007 420.731, 219.422 419.373, 223.217 416.307, 232.735 416.259, 232.883 414.737, 237.609 411.945, 247.211 410.213, 253.168 407.671, 262.840 405.823, 269.873 403.510, 279.602 401.586, 287.693 399.484, 297.469 397.523, 306.590 397.464, 306.895 396.520, 311.755 394.614, 321.572 393.654, 326.519 391.932, 336.369 390.210, 346.220 389.999, 347.424 388.450, 357.303 386.901, 367.182 386.578, 369.243 385.194, 379.147 385.086, 379.918 383.701, 389.822 383.410, 391.906 382.182, 401.830 380.954, 411.754 380.512, 415.334 379.435, 425.275 378.358, 435.217 377.900, 439.441 376.969, 449.398 376.038, 459.354 375.591, 464.137 375.257, 468.356 374.467, 478.325 373.678, 488.293 373.596, 489.323 372.946, 499.301 372.295, 509.280 371.929, 514.896 371.415, 524.883 370.901, 534.869 370.598, 540.749 370.219, 550.742 369.840, 560.735 369.611, 566.774 369.482, 572.046 369.238, 582.043 368.993, 592.040 368.973, 592.858 368.863, 602.857 368.754, 612.857 368.688, 618.888 368.714, 628.888 368.740, 638.888 368.755, 644.753 368.919, 654.752 369.083, 664.751 369.174, 670.343 369.478, 680.339 369.782, 690.334 369.940, 695.550 370.388, 705.540 370.836, 715.530 371.048, 720.269 371.644, 730.251 372.240, 740.234 372.488, 744.402 373.238, 754.374 373.988, 764.346 374.252, 767.856 375.162, 777.814 376.072, 787.773 376.325, 790.543 377.405, 800.484 378.484, 810.426 378.696, 812.383 379.954, 822.303 381.212, 832.224 381.349, 833.304 382.797, 843.198 384.267, 853.241 385.919, 863.104 387.433, 872.139 389.306, 881.962 390.829, 889.950 392.348, 896.974 394.436, 906.633 395.681, 911.721 398.058, 921.434 398.235, 922.158 400.351, 929.797 401.201, 932.867 402.207, 936.501 405.201, 946.042 406.332, 949.647 406.744, 950.800 410.104, 960.219 410.591, 961.586 414.366, 970.846 414.966, 972.318 418.457, 979.756 419.437, 981.846 423.988, 990.181 428.601, 997.338 433.260, 1003.338 437.948, 1008.204 442.653, 1011.964 447.359, 1014.648 452.054, 1016.290 456.725, 1016.924 " fill="none" stroke="rgb(0, 0, 0)" stroke-linecap="butt" stroke-linejoin="round" stroke-opacity="1.0" stroke-width="3.0" />
            <path d=" M 559.070, 355.313 558.776, 352.542 558.460, 349.840 " fill="none" stroke="rgb(0, 0, 0)" stroke-linecap="butt" stroke-linejoin="round" stroke-opacity="1.0" stroke-width="3.0" />
            <path d=" M 482.939, 507.323 482.464, 507.315 482.099, 507.365 481.735, 507.622 481.378, 508.083 481.033, 508.741 480.708, 509.585 480.407, 510.601 480.136, 511.773 479.899, 513.080 479.701, 514.501 479.544, 516.010 479.433, 517.583 479.368, 519.192 479.351, 520.809 479.383, 522.407 479.462, 523.958 482.408, 524.012 " fill="none" stroke="rgb(0, 0, 0)" stroke-linecap="butt" stroke-linejoin="round" stroke-opacity="1.0" stroke-width="3.0" />
            <path d=" M 565.357, 525.530 565.305, 523.963 565.289, 522.347 565.310, 520.712 565.332, 520.073 565.367, 519.085 565.377, 518.913 565.428, 518.037 565.460, 517.495 565.587, 515.968 565.745, 514.531 565.932, 513.208 566.145, 512.022 566.380, 510.994 566.524, 510.503 566.632, 510.139 566.898, 509.472 567.173, 509.005 567.452, 508.743 567.730, 508.692 " fill="none" stroke="rgb(0, 0, 0)" stroke-linecap="butt" stroke-linejoin="round" stroke-opacity="1.0" stroke-width="3.0" />
            <path d=" M 567.978, 520.120 567.950, 519.652 567.940, 519.556 567.907, 519.226 567.853, 518.853 567.788, 518.544 567.713, 518.307 567.632, 518.149 567.546, 518.073 " fill="none" stroke="rgb(0, 0, 0)" stroke-linecap="butt" stroke-linejoin="round" stroke-opacity="1.0" stroke-width="3.0" />
            <path d=" M 528.961, 466.561 529.255, 471.994 529.765, 472.000 534.857, 472.059 535.060, 471.717 534.630, 466.522 529.276, 466.160 529.209, 466.156 528.961, 466.561 " fill="none" stroke="rgb(0, 0, 0)" stroke-linecap="butt" stroke-linejoin="round" stroke-opacity="1.0" stroke-width="3.0" />
            <path d=" M 534.570, 466.622 528.961, 466.561 " fill="none" stroke="rgb(0, 0, 0)" stroke-linecap="butt" stroke-linejoin="round" stroke-opacity="1.0" stroke-width="3.0" />
            <path d=" M 534.857, 472.059 534.570, 466.622 534.630, 466.522 " fill="none" stroke="rgb(0, 0, 0)" stroke-linecap="butt" stroke-linejoin="round" stroke-opacity="1.0" stroke-width="3.0" />
            <path d=" M 530.779, 469.157 530.768, 469.367 530.805, 469.588 530.826, 469.654 530.904, 469.853 531.020, 470.028 531.168, 470.173 531.213, 470.217 531.379, 470.321 531.436, 470.351 531.604, 470.408 531.657, 470.426 531.722, 470.439 531.797, 470.448 531.882, 470.452 531.966, 470.451 532.049, 470.444 532.129, 470.432 532.202, 470.417 532.267, 470.397 532.321, 470.375 532.478, 470.303 532.537, 470.266 532.689, 470.147 532.795, 470.032 " fill="none" stroke="rgb(0, 0, 0)" stroke-linecap="butt" stroke-linejoin="round" stroke-opacity="1.0" stroke-width="3.0" />
            <path d=" M 530.866, 468.848 530.831, 468.952 530.830, 468.957 530.813, 469.024 530.779, 469.157 530.818, 468.992 " fill="none" stroke="rgb(0, 0, 0)" stroke-linecap="butt" stroke-linejoin="round" stroke-opacity="1.0" stroke-width="3.0" />
            <path d=" M 532.795, 470.032 532.884, 469.909 532.954, 469.774 533.002, 469.629 533.028, 469.478 533.031, 469.323 533.012, 469.168 532.969, 469.016 532.906, 468.870 532.822, 468.733 532.719, 468.608 532.600, 468.497 532.467, 468.403 532.323, 468.327 532.170, 468.271 532.012, 468.236 531.852, 468.223 531.693, 468.233 531.538, 468.264 531.391, 468.317 531.255, 468.389 531.132, 468.481 531.025, 468.589 530.935, 468.712 530.866, 468.848 " fill="none" stroke="rgb(0, 0, 0)" stroke-linecap="butt" stroke-linejoin="round" stroke-opacity="1.0" stroke-width="3.0" />
            <path d=" M 634.584, 851.414 636.751, 851.871 644.637, 853.032 652.505, 853.461 660.339, 853.177 668.124, 852.197 675.843, 850.542 683.483, 848.231 691.032, 845.285 698.477, 841.726 705.807, 837.575 713.011, 832.853 720.079, 827.583 727.002, 821.786 733.773, 815.483 740.382, 808.697 746.823, 801.449 753.090, 793.760 759.093, 785.761 759.177, 785.649 764.875, 777.431 765.077, 777.139 770.481, 768.725 770.787, 768.249 775.907, 759.659 776.301, 758.998 781.147, 750.251 781.616, 749.406 786.198, 740.517 786.727, 739.491 791.054, 730.476 791.631, 729.272 795.711, 720.142 796.325, 718.768 800.166, 709.535 800.806, 707.995 804.415, 698.668 805.072, 696.970 808.456, 687.560 809.120, 685.711 812.284, 676.225 812.948, 674.234 815.898, 664.679 816.554, 662.555 819.296, 652.938 819.936, 650.689 822.473, 641.017 823.093, 638.653 825.429, 628.930 826.023, 626.460 828.162, 616.692 828.724, 614.127 830.669, 604.318 831.195, 601.667 832.948, 591.822 833.434, 589.095 834.999, 579.218 835.442, 576.425 836.819, 566.520 837.215, 563.671 838.407, 553.742 838.754, 550.847 839.761, 540.898 840.057, 537.967 840.879, 528.001 841.123, 525.045 841.761, 515.065 841.951, 512.094 842.405, 502.104 842.540, 499.128 842.809, 489.131 842.889, 486.160 842.973, 476.161 842.998, 473.206 842.894, 463.206 842.864, 460.278 842.572, 450.282 842.488, 447.391 842.005, 437.403 841.868, 434.559 841.192, 424.582 841.004, 421.796 840.132, 411.834 839.894, 409.118 838.823, 399.175 838.539, 396.538 837.264, 386.620 836.937, 384.073 835.454, 374.184 835.087, 371.738 833.392, 361.883 832.991, 359.548 831.077, 349.733 830.646, 347.521 828.508, 337.752 828.052, 335.672 825.683, 325.956 825.210, 324.019 822.603, 314.365 822.120, 312.579 819.266, 302.995 818.782, 301.370 815.672, 291.866 815.196, 290.411 811.821, 280.998 811.363, 279.721 807.712, 270.412 807.284, 269.319 803.346, 260.127 802.960, 259.226 798.724, 250.167 798.393, 249.460 793.845, 240.554 793.585, 240.045 788.713, 231.312 788.539, 231.000 783.328, 222.465 783.256, 222.347 777.741, 214.110 771.998, 206.311 766.030, 198.972 759.844, 192.118 753.444, 185.771 746.838, 179.956 740.032, 174.696 733.035, 170.016 725.856, 165.938 718.504, 162.487 710.990, 159.686 703.326, 157.557 695.525, 156.123 687.601, 155.405 679.568, 155.422 671.443, 156.195 669.202, 156.419 " fill="none" stroke="rgb(0, 0, 0)" stroke-linecap="butt" stroke-linejoin="round" stroke-opacity="1.0" stroke-width="3.0" />
            <path d=" M 636.751, 851.871 635.299, 851.520 628.865, 849.962 620.997, 847.291 613.166, 843.843 605.393, 839.608 597.698, 834.576 590.104, 828.740 582.631, 822.094 575.622, 814.962 575.303, 814.638 568.757, 807.078 568.144, 806.370 562.054, 798.439 561.177, 797.296 555.533, 789.042 554.426, 787.423 551.037, 781.873 549.055, 778.627 547.916, 776.761 547.549, 776.090 543.682, 769.008 542.165, 766.231 541.670, 765.323 538.805, 759.461 535.712, 753.129 535.220, 752.002 531.219, 742.837 530.066, 740.198 526.439, 730.880 524.756, 726.558 522.867, 721.095 519.804, 712.237 517.814, 705.722 515.232, 697.268 513.461, 690.659 511.059, 681.689 508.795, 671.949 507.306, 665.541 505.356, 655.733 503.991, 648.867 502.345, 639.003 501.129, 631.716 499.780, 621.808 498.737, 614.139 497.678, 604.196 496.825, 596.190 496.050, 586.221 495.406, 577.926 494.910, 567.939 494.487, 559.406 494.267, 549.409 494.075, 540.691 494.127, 530.691 494.174, 521.843 494.343, 516.613 494.665, 506.618 494.785, 502.926 495.376, 492.943 495.907, 484.004 496.767, 474.041 497.536, 465.141 498.667, 455.205 499.668, 446.403 501.069, 436.501 502.293, 427.851 503.968, 417.992 505.402, 409.549 507.352, 399.741 508.980, 391.557 511.211, 381.809 513.014, 373.933 515.531, 364.255 517.487, 356.734 520.295, 347.136 521.577, 342.754 522.379, 340.013 525.485, 330.507 525.839, 329.424 527.671, 323.820 531.083, 314.420 533.340, 308.202 534.274, 305.878 535.555, 302.687 537.647, 297.480 538.465, 295.442 539.365, 293.203 542.427, 286.292 542.573, 285.964 543.914, 282.936 545.720, 278.863 547.339, 275.544 549.512, 271.092 549.545, 271.026 549.601, 270.910 550.680, 268.700 552.380, 265.216 557.112, 256.406 558.622, 253.595 559.321, 252.295 561.063, 249.348 566.153, 240.740 566.515, 240.128 571.974, 231.749 573.119, 229.992 573.937, 228.737 579.778, 220.620 581.560, 218.144 587.793, 210.324 589.357, 208.363 595.993, 200.882 597.302, 199.407 604.349, 192.311 605.371, 191.283 612.832, 184.625 613.536, 183.997 621.411, 177.834 621.773, 177.550 630.060, 171.941 638.371, 167.163 646.686, 163.211 654.983, 160.074 663.242, 157.740 671.327, 156.217 671.443, 156.195 " fill="none" stroke="rgb(0, 0, 0)" stroke-linecap="butt" stroke-linejoin="round" stroke-opacity="1.0" stroke-width="3.0" />
            <path d=" M 669.202, 156.419 660.990, 157.964 652.721, 160.298 644.414, 163.434 636.089, 167.384 627.767, 172.158 619.471, 177.763 611.591, 183.919 611.224, 184.205 603.757, 190.856 603.050, 191.485 595.997, 198.573 594.974, 199.601 588.330, 207.075 587.020, 208.549 580.779, 216.363 579.215, 218.321 573.367, 226.432 571.585, 228.904 566.119, 237.277 564.157, 240.283 559.060, 248.886 558.338, 250.105 556.956, 252.438 552.217, 261.244 550.010, 265.345 547.897, 269.667 547.094, 271.310 546.670, 272.175 543.344, 278.977 543.181, 279.346 541.840, 282.367 541.093, 284.048 538.942, 288.894 537.103, 293.036 536.985, 293.303 536.248, 295.134 535.529, 296.921 534.700, 298.983 533.413, 302.180 530.957, 308.285 527.539, 317.683 525.283, 323.886 522.172, 333.389 520.471, 338.587 519.989, 340.060 517.176, 349.657 515.094, 356.763 512.573, 366.440 510.619, 373.942 509.183, 380.209 506.949, 389.956 506.584, 391.546 504.631, 401.353 503.005, 409.518 501.328, 419.376 499.896, 427.799 498.493, 437.700 497.271, 446.329 496.140, 456.265 495.140, 465.046 494.279, 475.009 493.512, 483.887 492.920, 493.869 492.392, 502.787 492.241, 507.473 492.182, 509.285 491.942, 516.762 491.910, 517.761 491.877, 518.780 491.783, 521.683 491.732, 531.683 491.687, 540.509 491.910, 550.507 492.103, 559.204 492.601, 569.191 493.026, 577.703 493.804, 587.673 494.449, 595.947 495.512, 605.890 496.366, 613.876 497.719, 623.784 498.764, 631.434 499.931, 638.407 501.581, 648.269 501.631, 648.567 503.587, 658.374 504.952, 665.223 507.222, 674.962 508.712, 681.355 510.942, 689.660 512.891, 696.918 515.820, 706.480 517.243, 711.127 517.471, 711.872 520.747, 721.321 522.431, 726.180 526.067, 735.495 527.750, 739.807 531.759, 748.968 533.403, 752.726 534.763, 755.502 538.349, 762.826 539.370, 764.910 541.734, 769.230 543.251, 772.001 545.625, 776.338 547.159, 778.844 548.675, 781.323 550.659, 784.564 552.145, 786.992 557.797, 795.241 558.905, 796.858 565.003, 804.784 565.882, 805.926 572.436, 813.479 573.051, 814.188 580.067, 821.314 580.389, 821.641 587.872, 828.283 595.477, 834.117 603.182, 839.148 610.966, 843.383 618.808, 846.831 626.687, 849.503 634.584, 851.414 " fill="none" stroke="rgb(0, 0, 0)" stroke-linecap="butt" stroke-linejoin="round" stroke-opacity="1.0" stroke-width="3.0" />
            <path d=" M 769.987, 566.733 769.884, 567.331 767.941, 577.140 767.518, 579.278 765.325, 589.035 764.868, 591.066 762.420, 600.762 761.937, 602.674 759.230, 612.300 758.730, 614.077 755.757, 623.625 755.250, 625.255 752.004, 634.714 751.500, 636.183 747.974, 645.541 747.485, 646.839 743.671, 656.083 743.211, 657.198 739.099, 666.314 738.682, 667.238 734.261, 676.207 733.903, 676.932 729.162, 685.737 728.882, 686.258 723.810, 694.876 723.625, 695.191 718.208, 703.597 718.139, 703.704 712.432, 711.773 706.513, 719.373 700.391, 726.478 694.077, 733.061 687.582, 739.096 680.917, 744.560 674.095, 749.426 667.131, 753.668 660.038, 757.262 652.833, 760.185 645.533, 762.413 638.156, 763.921 630.720, 764.692 625.021, 764.702 " fill="none" stroke="rgb(0, 0, 0)" stroke-linecap="butt" stroke-linejoin="round" stroke-opacity="1.0" stroke-width="3.0" />
            <path d=" M 784.685, 571.259 774.692, 570.896 773.875, 570.867 769.987, 566.733 763.135, 559.449 756.284, 552.165 752.576, 548.223 751.957, 547.564 751.338, 546.905 750.717, 546.244 750.097, 545.583 749.392, 544.680 748.760, 543.557 748.616, 543.206 748.216, 542.237 747.769, 540.744 747.543, 539.648 747.431, 539.106 747.421, 539.027 747.207, 537.356 747.102, 535.526 747.117, 533.653 747.242, 531.905 747.252, 531.772 747.427, 530.484 747.504, 529.920 747.870, 528.132 748.341, 526.444 748.908, 524.888 749.561, 523.493 750.286, 522.286 751.070, 521.291 751.896, 520.524 752.196, 520.341 752.330, 520.259 752.750, 520.002 753.614, 519.732 754.338, 519.614 755.063, 519.496 755.787, 519.377 756.509, 519.259 756.872, 519.199 766.742, 517.589 776.611, 515.979 781.347, 515.206 " fill="none" stroke="rgb(0, 0, 0)" stroke-linecap="butt" stroke-linejoin="round" stroke-opacity="1.0" stroke-width="3.0" />
            <path d=" M 681.172, 220.946 676.215, 221.235 672.819, 221.433 664.406, 222.723 655.958, 224.846 655.273, 225.088 647.505, 227.829 639.077, 231.688 630.704, 236.429 622.416, 242.048 614.580, 248.260 614.241, 248.528 606.849, 255.263 606.204, 255.850 599.264, 263.050 598.339, 264.010 591.861, 271.628 590.685, 273.012 584.667, 280.998 583.278, 282.843 577.714, 291.152 576.153, 293.482 571.030, 302.070 569.343, 304.898 564.643, 313.724 562.873, 317.046 558.575, 326.075 556.765, 329.878 556.188, 331.237 554.421, 335.398 553.871, 336.691 553.350, 337.919 553.258, 338.135 551.820, 341.521 551.044, 343.348 550.369, 345.140 549.020, 348.724 547.626, 352.425 545.766, 357.367 545.745, 357.421 544.427, 361.406 541.286, 370.899 540.904, 372.054 539.047, 378.506 537.725, 383.103 536.548, 387.193 534.150, 396.901 533.213, 400.695 532.698, 402.778 530.657, 412.568 529.370, 418.743 527.674, 428.599 526.569, 435.019 526.374, 436.437 525.013, 446.344 524.288, 451.623 523.242, 461.568 522.522, 468.405 521.789, 478.378 521.281, 485.292 520.860, 495.283 520.775, 497.295 520.673, 499.718 520.575, 502.060 520.568, 502.212 520.462, 512.211 520.408, 517.253 520.388, 519.091 520.480, 523.467 520.654, 531.793 520.674, 532.791 520.739, 535.858 521.266, 545.845 521.615, 552.442 522.468, 562.406 523.013, 568.773 524.196, 578.702 524.785, 583.645 524.920, 584.783 526.442, 594.666 527.071, 598.759 527.325, 600.409 529.194, 610.233 530.213, 615.589 532.441, 625.337 533.566, 630.264 534.269, 632.877 536.868, 642.533 537.365, 644.383 540.348, 653.927 541.588, 657.894 543.445, 663.062 543.686, 663.731 544.561, 666.165 544.982, 667.334 546.211, 670.754 547.141, 673.016 550.942, 682.266 551.206, 682.908 551.211, 682.920 552.261, 685.164 552.795, 686.307 553.779, 688.410 556.561, 694.358 556.828, 694.862 557.308, 695.764 558.384, 697.791 560.360, 701.510 562.233, 705.037 567.399, 713.600 568.202, 714.930 573.861, 723.175 574.438, 724.015 580.607, 731.886 580.914, 732.277 587.600, 739.703 594.469, 746.283 601.494, 752.014 608.645, 756.896 615.898, 760.932 623.226, 764.126 625.021, 764.702 630.604, 766.491 638.007, 768.038 645.413, 768.780 652.800, 768.734 660.146, 767.921 667.432, 766.360 674.639, 764.072 681.749, 761.079 688.746, 757.408 695.614, 753.083 702.338, 748.126 708.906, 742.566 715.306, 736.429 721.524, 729.740 727.551, 722.525 733.378, 714.811 738.994, 706.626 744.296, 698.147 744.393, 697.992 749.353, 689.309 749.565, 688.938 754.198, 680.076 754.505, 679.488 758.823, 670.469 759.206, 669.669 763.221, 660.510 763.663, 659.503 767.385, 650.222 767.869, 649.016 771.310, 639.627 771.821, 638.233 774.989, 628.748 775.513, 627.177 778.416, 617.608 778.943, 615.871 781.588, 606.228 782.106, 604.340 784.499, 594.630 784.999, 592.605 787.146, 582.838 787.618, 580.688 789.524, 570.872 789.962, 568.614 791.631, 558.754 792.029, 556.403 793.463, 546.507 793.815, 544.078 " fill="none" stroke="rgb(0, 0, 0)" stroke-linecap="butt" stroke-linejoin="round" stroke-opacity="1.0" stroke-width="3.0" />
            <path d=" M 781.347, 515.206 791.324, 515.880 792.063, 515.930 " fill="none" stroke="rgb(0, 0, 0)" stroke-linecap="butt" stroke-linejoin="round" stroke-opacity="1.0" stroke-width="3.0" />
            <path d=" M 825.264, 530.654 825.884, 523.852 826.195, 520.443 826.846, 510.464 827.022, 507.776 827.412, 497.784 827.463, 496.474 827.489, 495.818 827.518, 495.081 827.528, 494.300 827.657, 484.301 827.682, 482.382 827.551, 472.383 827.516, 469.702 827.126, 459.709 827.023, 457.062 826.378, 447.083 826.210, 444.484 825.305, 434.525 825.074, 431.990 823.899, 422.059 823.609, 419.605 823.563, 419.290 822.109, 409.396 821.810, 407.357 820.071, 397.510 819.676, 395.272 817.646, 385.481 817.210, 383.375 814.886, 373.648 814.417, 371.686 811.797, 362.035 811.306, 360.224 808.384, 350.660 807.881, 349.011 804.642, 339.550 804.138, 338.079 800.567, 328.738 800.078, 327.460 796.158, 318.260 795.700, 317.186 791.420, 308.148 791.010, 307.284 786.360, 298.431 786.017, 297.778 780.990, 289.134 780.730, 288.687 775.319, 280.277 775.159, 280.027 769.309, 271.834 763.184, 264.146 756.791, 257.000 750.142, 250.427 743.248, 244.451 736.125, 239.092 728.789, 234.361 722.232, 230.813 721.254, 230.283 713.533, 226.901 705.644, 224.252 697.607, 222.363 689.442, 221.257 681.672, 220.965 681.172, 220.946 " fill="none" stroke="rgb(0, 0, 0)" stroke-linecap="butt" stroke-linejoin="round" stroke-opacity="1.0" stroke-width="3.0" />
            <path d=" M 655.273, 225.088 658.005, 225.912 664.412, 228.640 670.651, 232.087 676.711, 236.215 682.582, 240.981 688.253, 246.358 693.713, 252.334 698.950, 258.889 703.955, 265.997 708.722, 273.628 713.245, 281.745 717.524, 290.308 721.556, 299.284 725.295, 308.558 725.334, 308.655 728.728, 318.061 728.851, 318.403 731.914, 327.922 732.102, 328.505 734.851, 338.119 735.084, 338.933 737.536, 348.628 737.797, 349.659 739.971, 359.419 740.244, 360.648 742.156, 370.464 742.430, 371.871 744.086, 381.733 744.350, 383.308 745.755, 393.209 746.000, 394.940 747.158, 404.873 747.377, 406.748 748.294, 416.706 748.479, 418.708 749.163, 428.685 749.308, 430.795 749.767, 440.785 749.868, 442.985 750.111, 452.982 750.166, 455.252 750.198, 465.252 750.205, 467.576 750.024, 477.574 749.981, 479.937 749.586, 489.929 749.491, 492.315 748.881, 502.297 748.735, 504.689 747.911, 514.655 747.714, 517.036 747.069, 523.239 746.799, 524.388 746.478, 525.487 746.109, 526.523 745.697, 527.486 745.244, 528.365 744.757, 529.151 744.618, 529.334 " fill="none" stroke="rgb(0, 0, 0)" stroke-linecap="butt" stroke-linejoin="round" stroke-opacity="1.0" stroke-width="3.0" />
            <path d=" M 719.085, 530.560 719.077, 531.006 719.023, 531.555 728.349, 535.164 734.083, 537.383 743.409, 540.992 744.901, 541.569 748.616, 543.206 " fill="none" stroke="rgb(0, 0, 0)" stroke-linecap="butt" stroke-linejoin="round" stroke-opacity="1.0" stroke-width="3.0" />
            <path d=" M 803.175, 536.990 812.387, 540.880 812.930, 541.109 821.953, 544.920 823.575, 545.605 823.818, 545.695 829.475, 547.802 " fill="none" stroke="rgb(0, 0, 0)" stroke-linecap="butt" stroke-linejoin="round" stroke-opacity="1.0" stroke-width="3.0" />
            <path d=" M 799.016, 546.200 799.684, 546.235 809.670, 546.760 811.958, 546.881 813.890, 546.982 821.654, 547.391 823.602, 547.493 829.475, 547.802 830.637, 537.870 831.011, 534.676 831.916, 524.717 832.211, 521.475 832.860, 511.497 833.073, 508.223 833.467, 498.231 833.597, 494.942 833.734, 484.943 833.780, 481.655 833.661, 471.656 833.622, 468.385 833.244, 458.393 833.122, 455.157 832.484, 445.177 832.280, 441.992 831.377, 432.033 831.094, 428.916 829.924, 418.985 829.566, 415.951 828.124, 406.056 827.696, 403.123 825.975, 393.272 825.483, 390.456 823.478, 380.659 822.928, 377.974 820.632, 368.241 820.034, 365.704 817.439, 356.046 816.801, 353.670 813.898, 344.101 813.231, 341.901 813.231, 341.901 810.011, 332.433 809.327, 330.422 805.780, 321.072 805.396, 320.059 805.093, 319.260 801.206, 310.046 800.531, 308.443 796.293, 299.386 795.645, 298.001 791.044, 289.122 790.441, 287.960 785.463, 279.287 784.925, 278.350 779.556, 269.914 779.102, 269.201 775.345, 263.888 772.981, 260.544 768.464, 254.811 766.569, 252.406 759.953, 244.907 759.876, 244.819 752.911, 237.814 745.688, 231.420 738.218, 225.667 730.515, 220.586 722.595, 216.206 714.475, 212.554 706.172, 209.659 697.706, 207.548 689.099, 206.245 680.373, 205.774 670.381, 206.165 665.167, 206.369 " fill="none" stroke="rgb(0, 0, 0)" stroke-linecap="butt" stroke-linejoin="round" stroke-opacity="1.0" stroke-width="3.0" />
            <path d=" M 680.373, 205.774 671.553, 206.156 668.485, 206.589 662.663, 207.412 660.197, 208.005 653.732, 209.557 644.787, 212.606 635.860, 216.569 627.099, 221.390 626.980, 221.455 618.635, 226.966 618.181, 227.266 610.278, 233.394 609.495, 234.001 602.050, 240.678 600.957, 241.658 593.976, 248.818 592.603, 250.226 586.083, 257.809 584.465, 259.690 578.403, 267.643 576.582, 270.031 570.968, 278.307 568.987, 281.227 563.811, 289.783 561.716, 293.246 556.966, 302.046 554.803, 306.054 553.136, 309.519 549.970, 316.100 548.798, 318.539 548.530, 319.095 548.282, 319.611 548.117, 319.996 544.186, 329.191 542.185, 333.873 542.010, 334.334 540.671, 337.874 537.133, 347.227 536.542, 348.788 533.386, 358.277 531.382, 364.302 528.615, 373.859 526.733, 380.357 524.318, 390.061 522.618, 396.889 520.562, 406.675 519.058, 413.830 517.356, 423.684 516.073, 431.111 " fill="none" stroke="rgb(0, 0, 0)" stroke-linecap="butt" stroke-linejoin="round" stroke-opacity="1.0" stroke-width="3.0" />
            <path d=" M 812.594, 532.001 812.986, 531.329 813.393, 530.509 813.746, 529.678 813.771, 529.617 814.117, 528.660 814.428, 527.645 823.413, 530.140 825.264, 530.654 825.028, 531.226 824.624, 532.051 824.195, 532.797 823.743, 533.459 823.272, 534.032 823.040, 534.261 822.787, 534.511 822.290, 534.891 821.785, 535.169 821.277, 535.342 820.770, 535.407 820.268, 535.362 819.775, 535.206 815.340, 533.227 813.930, 532.598 813.482, 532.398 812.594, 532.001 807.732, 529.832 807.399, 528.317 806.968, 526.935 806.446, 525.709 805.840, 524.660 805.161, 523.806 804.420, 523.162 803.629, 522.738 802.802, 522.543 797.920, 522.257 797.826, 522.252 791.519, 521.882 790.932, 521.848 790.075, 521.884 789.245, 522.154 788.460, 522.654 787.697, 523.373 786.970, 524.301 786.780, 524.615 786.291, 525.422 785.672, 526.718 785.122, 528.165 784.653, 529.740 784.272, 531.417 783.985, 533.165 787.547, 534.649 788.407, 535.008 790.176, 535.121 791.392, 535.199 798.492, 535.655 798.908, 535.681 800.285, 535.770 800.379, 535.216 800.510, 534.694 800.675, 534.219 800.868, 533.803 801.085, 533.457 801.319, 533.191 801.565, 533.013 801.815, 532.926 802.063, 532.934 " fill="none" stroke="rgb(0, 0, 0)" stroke-linecap="butt" stroke-linejoin="round" stroke-opacity="1.0" stroke-width="3.0" />
            <path d=" M 790.176, 535.121 789.121, 543.837 787.683, 553.733 787.334, 556.133 785.609, 565.983 784.685, 571.259 777.885, 563.928 775.549, 561.409 771.631, 557.185 764.831, 549.853 764.075, 549.039 763.463, 548.377 762.849, 547.715 762.235, 547.052 761.621, 546.388 760.923, 545.481 760.298, 544.354 760.220, 544.162 759.759, 543.027 759.319, 541.527 758.985, 539.882 758.765, 538.124 758.703, 537.023 758.662, 536.285 758.679, 534.403 758.815, 532.512 759.067, 530.651 759.152, 530.230 759.431, 528.855 759.900, 527.158 760.464, 525.593 761.112, 524.191 761.832, 522.978 762.610, 521.977 763.430, 521.207 764.277, 520.681 765.133, 520.409 765.851, 520.290 766.570, 520.170 767.287, 520.051 768.003, 519.932 768.363, 519.871 778.228, 518.231 781.114, 517.751 790.978, 516.110 792.063, 515.930 791.519, 521.882 " fill="none" stroke="rgb(0, 0, 0)" stroke-linecap="butt" stroke-linejoin="round" stroke-opacity="1.0" stroke-width="3.0" />
            <path d=" M 514.944, 413.330 515.578, 423.310 516.073, 431.111 514.706, 441.017 513.638, 448.757 512.588, 458.702 511.755, 466.595 511.021, 476.568 510.434, 484.546 510.015, 494.537 509.737, 501.194 509.681, 502.532 509.579, 512.531 509.498, 520.474 509.715, 530.471 509.884, 538.294 510.422, 548.279 510.834, 555.915 511.700, 565.877 512.341, 573.262 513.541, 583.190 514.396, 590.263 515.936, 600.144 516.982, 606.848 518.873, 616.668 520.084, 622.952 522.337, 632.695 523.182, 636.346 523.683, 638.512 526.312, 648.160 527.758, 653.470 530.775, 663.004 532.285, 667.775 535.706, 677.171 537.237, 681.377 541.082, 690.608 541.605, 691.866 542.591, 694.233 545.158, 699.648 548.315, 706.306 549.023, 707.620 550.610, 710.565 554.382, 717.564 554.632, 717.972 556.190, 720.516 558.184, 723.772 560.760, 727.979 566.482, 736.181 567.422, 737.528 573.657, 745.346 574.334, 746.194 581.095, 753.563 581.466, 753.967 588.789, 760.836 596.272, 766.799 603.886, 771.857 611.602, 776.016 619.392, 779.279 627.229, 781.662 635.088, 783.178 642.944, 783.844 650.774, 783.677 658.555, 782.700 666.266, 780.936 673.887, 778.407 681.401, 775.139 688.789, 771.161 696.035, 766.498 703.125, 761.176 710.045, 755.226 716.781, 748.675 723.323, 741.551 729.659, 733.882 735.648, 725.874 735.780, 725.698 741.402, 717.428 741.676, 717.025 746.946, 708.527 747.339, 707.892 752.270, 699.192 752.762, 698.325 757.368, 689.449 757.938, 688.353 762.232, 679.322 762.860, 678.001 766.854, 668.833 767.524, 667.294 771.227, 658.005 771.923, 656.260 775.347, 646.864 776.055, 644.923 779.207, 635.433 779.913, 633.308 782.802, 623.735 783.495, 621.439 786.128, 611.792 786.797, 609.340 789.181, 599.628 789.817, 597.034 791.956, 587.265 792.551, 584.544 794.449, 574.726 794.997, 571.894 796.659, 562.033 797.152, 559.105 798.581, 549.208 799.016, 546.200 793.815, 544.078 798.923, 544.340 808.910, 544.852 812.460, 545.034 812.189, 544.921 802.959, 541.074 799.189, 539.502 798.672, 539.287 791.327, 536.225 791.381, 535.659 791.392, 535.199 " fill="none" stroke="rgb(0, 0, 0)" stroke-linecap="butt" stroke-linejoin="round" stroke-opacity="1.0" stroke-width="3.0" />
            <path d=" M 764.627, 537.414 764.316, 537.289 764.031, 537.021 763.785, 536.621 763.588, 536.106 763.449, 535.499 763.376, 534.827 763.369, 534.119 763.431, 533.407 763.559, 532.721 763.746, 532.093 763.984, 531.548 764.263, 531.112 764.571, 530.802 764.894, 530.634 765.218, 530.613 " fill="none" stroke="rgb(0, 0, 0)" stroke-linecap="butt" stroke-linejoin="round" stroke-opacity="1.0" stroke-width="3.0" />
            <path d=" M 765.218, 530.613 765.527, 530.742 765.812, 531.012 766.057, 531.414 766.252, 531.928 766.390, 532.533 766.463, 533.202 766.469, 533.907 766.407, 534.617 766.281, 535.300 766.095, 535.928 765.858, 536.472 765.580, 536.909 765.273, 537.219 764.950, 537.390 764.627, 537.414 " fill="none" stroke="rgb(0, 0, 0)" stroke-linecap="butt" stroke-linejoin="round" stroke-opacity="1.0" stroke-width="3.0" />
            <path d=" M 506.262, 448.094 505.210, 458.039 504.313, 466.509 503.577, 476.482 502.946, 485.042 502.527, 495.033 502.170, 503.550 502.168, 503.609 502.068, 513.608 501.982, 522.128 502.202, 532.126 502.386, 540.517 502.930, 550.503 503.376, 558.697 504.249, 568.658 504.944, 576.587 506.153, 586.513 507.078, 594.112 508.631, 603.990 509.764, 611.200 511.669, 621.016 512.983, 627.782 515.254, 637.521 516.717, 643.793 519.366, 653.436 520.942, 659.175 521.677, 661.477 524.717, 671.003 525.633, 673.872 529.082, 683.259 530.763, 687.836 534.638, 697.055 536.306, 701.021 540.072, 708.886 542.229, 713.391 543.698, 716.088 547.460, 722.999 548.502, 724.912 549.046, 725.791 553.096, 732.329 554.646, 734.831 555.096, 735.558 556.663, 737.778 561.977, 745.304 568.261, 753.083 569.113, 754.138 575.926, 761.459 576.473, 762.047 583.820, 768.831 584.026, 769.022 591.739, 775.062 599.583, 780.172 607.529, 784.355 615.547, 787.619 623.610, 789.980 631.691, 791.454 639.766, 792.056 647.811, 791.808 655.803, 790.733 663.720, 788.855 671.543, 786.198 679.253, 782.789 686.833, 778.656 694.266, 773.827 701.537, 768.329 708.632, 762.192 715.538, 755.446 722.245, 748.118 728.604, 740.401 728.739, 740.237 734.721, 732.223 735.013, 731.832 740.631, 723.560 741.056, 722.933 746.323, 714.433 746.860, 713.566 751.791, 704.866 752.419, 703.760 757.026, 694.884 757.724, 693.541 762.020, 684.511 762.769, 682.937 766.766, 673.771 767.549, 671.973 771.257, 662.686 772.059, 660.676 775.487, 651.282 776.294, 649.072 779.451, 639.584 780.249, 637.185 783.143, 627.613 783.921, 625.039 786.558, 615.393 787.306, 612.659 789.693, 602.948 790.400, 600.068 792.542, 590.300 793.201, 587.291 795.102, 577.473 795.706, 574.349 797.370, 564.488 797.913, 561.266 799.342, 551.369 799.819, 548.065 799.684, 546.235 " fill="none" stroke="rgb(0, 0, 0)" stroke-linecap="butt" stroke-linejoin="round" stroke-opacity="1.0" stroke-width="3.0" />
            <path d=" M 665.167, 206.369 657.143, 206.695 656.947, 206.724 649.037, 207.895 640.875, 209.984 632.683, 212.976 624.486, 216.886 616.315, 221.722 608.199, 227.486 600.517, 233.888 600.169, 234.178 592.965, 241.114 592.256, 241.797 585.528, 249.194 584.494, 250.331 578.231, 258.127 576.914, 259.767 571.105, 267.906 569.551, 270.085 564.182, 278.521 562.438, 281.262 557.494, 289.954 555.609, 293.268 551.787, 300.775 549.094, 306.066 548.507, 307.356 547.111, 310.424 546.337, 312.126 545.617, 313.707 542.928, 319.617 540.430, 325.771 539.090, 329.074 537.141, 333.876 533.748, 343.283 531.761, 348.791 528.725, 358.319 526.817, 364.307 526.734, 364.603 524.046, 374.235 522.335, 380.366 519.986, 390.086 518.338, 396.902 516.315, 406.695 514.944, 413.330 511.456, 422.702 508.785, 429.878 " fill="none" stroke="rgb(0, 0, 0)" stroke-linecap="butt" stroke-linejoin="round" stroke-opacity="1.0" stroke-width="3.0" />
            <path d=" M 508.785, 429.878 507.414, 439.783 506.262, 448.094 " fill="none" stroke="rgb(0, 0, 0)" stroke-linecap="butt" stroke-linejoin="round" stroke-opacity="1.0" stroke-width="3.0" />
            <path d=" M 813.231, 341.901 810.795, 332.202 810.572, 331.314 807.892, 321.680 807.593, 320.606 804.662, 311.045 804.379, 310.123 801.189, 300.646 800.932, 299.883 797.474, 290.500 797.253, 289.903 793.515, 280.628 793.344, 280.202 789.314, 271.050 789.204, 270.799 784.835, 261.717 780.239, 252.977 775.419, 244.599 770.380, 236.600 765.125, 228.998 759.660, 221.815 753.989, 215.069 748.117, 208.784 742.049, 202.983 735.793, 197.691 729.355, 192.932 722.743, 188.725 715.968, 185.087 709.039, 182.038 701.967, 179.596 694.763, 177.781 687.439, 176.614 680.009, 176.116 672.487, 176.308 670.908, 176.495 664.888, 177.208 657.229, 178.827 649.527, 181.174 641.798, 184.259 634.062, 188.090 626.339, 192.675 618.648, 198.022 611.011, 204.136 603.619, 210.870 603.453, 211.021 601.275, 213.255 595.995, 218.673 592.410, 222.783 588.660, 227.083 582.483, 234.948 581.469, 236.239 575.678, 244.392 574.446, 246.128 571.719, 250.360 567.614, 256.733 562.562, 265.364 562.285, 265.837 562.242, 265.910 561.871, 266.544 561.814, 266.641 561.407, 267.336 561.396, 267.356 560.996, 268.038 556.299, 276.866 554.619, 280.022 550.265, 289.024 549.933, 289.713 548.507, 292.662 546.642, 296.908 545.284, 300.003 543.175, 304.806 542.682, 305.928 542.419, 306.590 538.719, 315.881 538.550, 316.305 537.236, 319.606 537.165, 319.784 533.776, 329.193 531.975, 334.193 528.889, 343.704 527.133, 349.115 524.969, 356.565 522.660, 364.510 520.160, 374.193 518.574, 380.334 516.357, 390.085 514.890, 396.536 512.951, 406.347 511.623, 413.068 509.958, 422.929 508.785, 429.878 507.393, 439.780 506.391, 446.911 506.262, 448.094 505.136, 458.030 504.446, 464.112 503.591, 474.075 502.960, 481.425 502.371, 491.408 501.936, 498.793 501.761, 504.233 501.441, 514.228 501.379, 516.159 501.327, 526.159 501.289, 533.465 501.507, 543.463 501.664, 550.657 502.155, 560.645 502.500, 567.677 503.267, 577.648 503.792, 584.473 504.843, 594.417 505.537, 600.989 506.877, 610.898 507.725, 617.174 509.359, 627.040 510.343, 632.982 512.277, 642.793 513.376, 648.366 515.618, 658.112 516.809, 663.286 519.369, 672.953 520.488, 677.177 520.627, 677.700 523.516, 687.274 524.813, 691.571 528.044, 701.035 529.351, 704.863 532.939, 714.197 534.225, 717.542 538.184, 726.725 538.230, 726.832 539.414, 729.579 541.792, 734.512 544.896, 740.954 545.337, 741.774 546.876, 744.635 550.648, 751.647 550.790, 751.884 552.323, 754.438 554.291, 757.718 556.647, 761.644 562.216, 769.951 562.873, 770.931 568.877, 778.928 569.303, 779.496 575.755, 787.136 575.918, 787.328 582.697, 794.421 589.621, 800.767 596.667, 806.368 603.814, 811.231 611.041, 815.363 618.329, 818.773 625.659, 821.470 632.509, 823.327 633.014, 823.464 640.377, 824.763 647.733, 825.378 655.066, 825.320 662.360, 824.609 669.602, 823.265 676.777, 821.307 683.872, 818.755 690.878, 815.627 697.781, 811.941 704.573, 807.712 711.243, 802.958 717.782, 797.696 724.181, 791.949 730.434, 785.741 736.533, 779.091 742.471, 772.020 748.243, 764.547 753.843, 756.688 759.266, 748.460 764.504, 739.879 769.433, 731.178 769.555, 730.964 774.214, 722.115 774.414, 721.734 778.813, 712.754 779.080, 712.210 783.227, 703.111 783.547, 702.408 787.452, 693.202 787.815, 692.346 791.483, 683.043 791.879, 682.039 795.317, 672.649 795.736, 671.502 798.948, 662.032 799.383, 660.750 802.375, 651.208 802.818, 649.796 805.597, 640.190 806.039, 638.661 808.610, 628.997 809.046, 627.357 811.412, 617.641 811.836, 615.901 814.001, 606.139 814.408, 604.306 816.374, 594.501 816.759, 592.586 818.530, 582.744 818.888, 580.755 820.467, 570.881 820.795, 568.828 822.182, 558.925 822.477, 556.818 823.602, 547.493 " fill="none" stroke="rgb(0, 0, 0)" stroke-linecap="butt" stroke-linejoin="round" stroke-opacity="1.0" stroke-width="3.0" />
            <path d=" M 670.243, 176.512 662.635, 177.413 654.966, 179.032 647.254, 181.378 639.516, 184.461 631.770, 188.290 624.037, 192.872 616.337, 198.214 608.693, 204.323 601.293, 211.050 601.126, 211.202 595.932, 216.522 593.661, 218.848 587.080, 226.377 586.318, 227.250 586.008, 227.643 579.824, 235.502 579.120, 236.397 573.322, 244.545 572.090, 246.276 566.667, 254.678 565.252, 256.871 561.255, 263.686 558.629, 268.164 558.612, 268.196 558.522, 268.363 558.517, 268.374 558.493, 268.419 558.489, 268.425 558.415, 268.565 553.710, 277.389 552.246, 280.135 549.306, 286.204 546.129, 292.761 545.948, 293.173 544.585, 296.271 541.948, 302.267 541.155, 304.070 540.300, 306.014 537.733, 312.449 536.425, 315.727 534.779, 319.854 531.385, 329.261 529.586, 334.247 526.495, 343.757 524.741, 349.152 523.909, 352.012 521.115, 361.614 520.266, 364.530 517.762, 374.212 516.178, 380.336 513.958, 390.086 512.493, 396.520 510.551, 406.330 509.225, 413.033 507.558, 422.893 506.387, 429.823 504.994, 439.726 503.993, 446.837 502.869, 456.773 502.049, 464.018 501.193, 473.982 500.564, 481.311 499.975, 491.294 499.541, 498.660 499.228, 508.461 498.987, 516.006 498.936, 526.006 498.900, 533.293 499.120, 543.290 499.278, 550.465 499.771, 560.452 500.117, 567.466 500.888, 577.436 501.413, 584.243 502.468, 594.187 503.163, 600.741 504.507, 610.650 505.356, 616.909 506.995, 626.774 507.979, 632.700 509.919, 642.510 511.018, 648.068 513.267, 657.812 514.457, 662.973 517.024, 672.638 518.281, 677.372 520.007, 683.077 522.474, 691.229 525.713, 700.690 527.020, 704.508 530.616, 713.839 531.901, 717.175 535.868, 726.355 537.098, 729.201 537.816, 730.686 541.391, 738.088 542.588, 740.566 544.943, 744.934 546.484, 747.793 548.348, 751.251 550.442, 754.731 551.958, 757.253 553.926, 760.524 554.356, 761.240 559.933, 769.540 560.591, 770.519 566.603, 778.510 567.030, 779.078 573.490, 786.711 573.655, 786.905 580.443, 793.993 587.376, 800.336 594.432, 805.935 601.589, 810.796 608.826, 814.928 616.124, 818.338 623.464, 821.036 630.829, 823.030 " fill="none" stroke="rgb(0, 0, 0)" stroke-linecap="butt" stroke-linejoin="round" stroke-opacity="1.0" stroke-width="3.0" />
            <path d=" M 672.487, 176.308 670.243, 176.512 " fill="none" stroke="rgb(0, 0, 0)" stroke-linecap="butt" stroke-linejoin="round" stroke-opacity="1.0" stroke-width="3.0" />
            <path d=" M 630.829, 823.030 633.014, 823.464 " fill="none" stroke="rgb(0, 0, 0)" stroke-linecap="butt" stroke-linejoin="round" stroke-opacity="1.0" stroke-width="3.0" />
            <path d=" M 490.933, 426.009 490.502, 429.039 489.094, 438.939 488.948, 439.965 488.230, 445.010 488.158, 445.516 487.024, 455.452 485.908, 465.223 485.046, 475.186 484.191, 485.061 483.601, 495.044 483.015, 504.961 482.939, 507.323 482.931, 507.585 482.644, 516.601 482.627, 517.141 482.511, 520.762 482.408, 524.012 482.381, 524.854 482.336, 534.854 482.292, 544.671 482.522, 554.668 482.745, 564.344 483.254, 574.331 483.737, 583.805 484.528, 593.773 485.260, 602.990 486.339, 612.931 487.305, 621.834 488.677, 631.740 489.860, 640.279 491.533, 650.138 492.912, 658.265 494.893, 668.067 496.443, 675.740 498.742, 685.472 500.437, 692.651 503.063, 702.300 504.874, 708.951 507.839, 718.502 509.731, 724.599 513.047, 734.033 514.089, 736.996 514.988, 739.554 515.795, 741.592 519.475, 750.890 520.620, 753.783 522.849, 758.800 526.603, 767.254 531.056, 776.208 531.109, 776.316 531.647, 777.398 532.122, 778.354 532.582, 779.277 532.912, 779.942 535.289, 784.215 538.586, 790.143 539.521, 791.825 539.568, 791.900 540.103, 792.760 541.072, 794.317 544.055, 799.109 544.605, 799.992 545.551, 801.513 546.405, 802.885 547.582, 804.571 553.304, 812.772 553.537, 813.107 559.709, 820.975 560.892, 822.483 567.524, 829.968 568.444, 831.006 575.540, 838.051 576.167, 838.672 583.728, 845.217 584.036, 845.483 592.028, 851.442 600.118, 856.556 608.285, 860.832 616.505, 864.283 624.758, 866.921 633.024, 868.762 637.333, 869.705 645.569, 870.759 653.781, 871.050 661.951, 870.597 670.063, 869.421 678.101, 867.542 686.052, 864.984 693.902, 861.768 701.638, 857.918 709.250, 853.457 716.726, 848.408 724.057, 842.793 731.233, 836.638 738.246, 829.964 745.089, 822.794 751.662, 815.258 751.755, 815.151 758.005, 807.346 758.236, 807.057 764.175, 799.012 764.528, 798.534 770.166, 790.275 770.625, 789.603 775.972, 781.153 776.521, 780.285 781.589, 771.664 782.214, 770.600 787.011, 761.826 787.698, 760.569 792.234, 751.657 792.971, 750.210 797.255, 741.174 798.028, 739.544 802.069, 730.396 802.868, 728.587 806.672, 719.339 807.486, 717.359 811.062, 708.020 811.882, 705.878 815.235, 696.456 816.053, 694.159 819.189, 684.663 819.996, 682.220 822.921, 672.658 823.710, 670.078 826.428, 660.454 827.193, 657.747 829.710, 648.069 830.444, 645.245 832.762, 635.517 833.461, 632.586 835.585, 622.814 836.243, 619.784 838.175, 609.973 838.789, 606.856 840.532, 597.009 841.097, 593.814 842.653, 583.936 843.167, 580.674 844.537, 570.769 844.996, 567.450 846.183, 557.521 846.585, 554.156 847.588, 544.206 847.932, 540.805 848.753, 530.839 849.035, 527.411 849.674, 517.432 849.895, 513.989 850.352, 503.999 850.510, 500.551 850.784, 490.555 850.878, 487.112 850.969, 477.112 851.000, 473.685 850.905, 463.685 850.873, 460.285 850.592, 450.289 850.498, 446.925 850.028, 436.936 849.872, 433.621 849.211, 423.643 848.996, 420.386 848.141, 410.423 847.868, 407.235 846.815, 397.291 846.487, 394.184 845.233, 384.263 844.852, 381.248 843.393, 371.355 842.963, 368.442 841.294, 358.582 840.820, 355.782 838.934, 345.962 838.420, 343.286 836.313, 333.510 835.765, 330.969 833.428, 321.246 832.853, 318.851 830.281, 309.187 829.685, 306.947 826.868, 297.352 826.259, 295.278 823.190, 285.760 822.578, 283.861 819.247, 274.432 818.640, 272.716 815.036, 263.388 814.448, 261.864 810.560, 252.650 810.000, 251.324 805.817, 242.241 805.300, 241.119 800.809, 232.184 800.349, 231.269 795.536, 222.504 795.148, 221.798 790.000, 213.225 789.701, 212.727 784.204, 204.374 784.011, 204.081 778.150, 195.979 778.080, 195.883 771.914, 188.157 765.517, 180.928 758.895, 174.221 752.055, 168.061 745.002, 162.474 737.746, 157.485 730.295, 153.120 722.659, 149.404 714.849, 146.362 706.877, 144.019 698.756, 142.399 690.500, 141.524 682.123, 141.418 673.644, 142.101 669.183, 142.574 660.595, 144.068 651.941, 146.387 643.240, 149.548 634.514, 153.564 625.785, 158.447 617.444, 163.963 617.077, 164.206 609.141, 170.291 608.414, 170.848 600.891, 177.438 599.821, 178.375 592.714, 185.411 591.324, 186.788 584.631, 194.217 582.952, 196.081 576.664, 203.857 574.730, 206.247 568.839, 214.327 566.688, 217.276 561.181, 225.623 558.854, 229.150 553.720, 237.732 551.256, 241.850 546.483, 250.638 543.922, 255.352 543.391, 256.429 540.686, 261.913 539.688, 263.937 538.351, 266.646 536.881, 269.626 535.882, 271.858 535.697, 272.272 534.387, 275.198 530.760, 283.302 530.674, 283.493 530.161, 284.639 529.746, 285.664 529.431, 286.440 525.673, 295.707 524.935, 297.527 524.479, 298.653 523.788, 300.355 523.231, 301.877 519.791, 311.267 517.789, 316.730 515.731, 322.973 512.600, 332.471 512.189, 333.720 509.498, 342.840 507.010, 351.273 504.475, 360.947 502.276, 369.338 500.029, 379.082 498.007, 387.855 496.043, 397.661 494.220, 406.767 492.536, 416.624 490.933, 426.009 " fill="none" stroke="rgb(0, 0, 0)" stroke-linecap="butt" stroke-linejoin="round" stroke-opacity="1.0" stroke-width="3.0" />
            <path d=" M 673.644, 142.101 665.079, 143.594 656.446, 145.913 647.767, 149.076 639.063, 153.096 630.354, 157.986 622.023, 163.516 621.666, 163.753 613.741, 169.852 613.022, 170.405 605.512, 177.009 604.447, 177.945 597.355, 184.994 595.969, 186.372 589.289, 193.814 587.613, 195.682 581.339, 203.469 579.407, 205.868 573.530, 213.958 571.380, 216.917 565.888, 225.274 563.560, 228.815 558.440, 237.405 555.975, 241.541 551.215, 250.336 548.653, 255.071 548.175, 256.042 544.793, 262.923 541.623, 269.375 541.195, 270.333 540.532, 271.821 540.414, 272.086 540.405, 272.105 539.874, 273.297 535.800, 282.429 534.912, 284.421 533.675, 287.482 532.758, 289.753 532.526, 290.325 531.269, 293.435 528.548, 300.171 525.118, 309.564 522.556, 316.582 519.435, 326.083 518.067, 330.247 516.962, 333.610 514.141, 343.204 511.788, 351.203 509.261, 360.878 507.058, 369.308 507.033, 369.419 506.388, 372.224 505.882, 374.427 503.641, 384.172 502.792, 387.868 501.329, 395.192 499.371, 404.998 499.007, 406.823 497.327, 416.681 495.720, 426.109 495.253, 429.400 493.847, 439.301 492.944, 445.662 491.812, 455.598 491.214, 460.843 490.693, 465.414 489.831, 475.377 488.973, 485.298 488.382, 495.281 487.959, 502.431 487.792, 505.244 487.723, 507.400 487.665, 509.211 487.426, 516.684 487.361, 518.701 487.188, 524.099 487.154, 525.182 487.106, 535.182 487.100, 536.418 487.058, 545.044 487.285, 555.042 487.385, 559.473 487.505, 564.761 488.008, 574.749 488.488, 584.266 489.273, 594.236 490.002, 603.494 491.073, 613.436 492.037, 622.380 493.401, 632.286 494.581, 640.864 496.244, 650.725 497.621, 658.889 499.591, 668.693 501.139, 676.400 503.426, 686.135 504.475, 690.599 505.120, 693.345 507.733, 702.998 509.541, 709.679 512.492, 719.233 514.384, 725.357 515.258, 727.857 518.560, 737.297 519.624, 740.341 523.289, 749.645 525.240, 754.595 529.283, 763.742 531.205, 768.091 532.614, 770.937 536.187, 778.156 537.496, 780.800 539.482, 784.386 540.991, 787.111 544.087, 792.702 544.882, 793.986 546.381, 796.404 548.378, 799.627 550.951, 803.779 556.656, 811.992 558.063, 814.017 564.220, 821.897 565.398, 823.405 572.015, 830.903 572.928, 831.938 580.012, 838.996 580.630, 839.612 588.180, 846.170 588.478, 846.429 596.448, 852.392 604.517, 857.508 612.661, 861.784 620.859, 865.233 629.089, 867.868 637.333, 869.705 " fill="none" stroke="rgb(0, 0, 0)" stroke-linecap="butt" stroke-linejoin="round" stroke-opacity="1.0" stroke-width="3.0" />
            <path d=" M 747.427, 530.484 744.618, 529.334 735.364, 525.546 734.893, 525.353 734.531, 523.882 734.067, 522.539 733.508, 521.347 732.864, 520.327 732.144, 519.496 731.361, 518.867 730.528, 518.452 729.658, 518.259 719.675, 517.675 718.501, 517.606 717.603, 517.637 716.733, 517.895 715.907, 518.375 715.106, 519.070 714.343, 519.966 713.633, 521.049 712.987, 522.302 712.416, 523.703 711.930, 525.228 711.539, 526.852 711.247, 528.546 715.930, 530.358 719.085, 530.560 727.094, 531.074 727.190, 530.537 727.325, 530.032 727.496, 529.572 727.698, 529.169 727.925, 528.835 728.172, 528.579 728.431, 528.407 728.695, 528.325 728.957, 528.334 " fill="none" stroke="rgb(0, 0, 0)" stroke-linecap="butt" stroke-linejoin="round" stroke-opacity="1.0" stroke-width="3.0" />
            <path d=" M 729.658, 518.259 728.767, 518.291 727.902, 518.551 727.082, 519.034 726.287, 519.732 725.530, 520.634 724.824, 521.723 724.182, 522.982 723.614, 524.390 723.131, 525.923 722.741, 527.555 722.675, 527.938 722.450, 529.257 " fill="none" stroke="rgb(0, 0, 0)" stroke-linecap="butt" stroke-linejoin="round" stroke-opacity="1.0" stroke-width="3.0" />
            <path d=" M 711.247, 528.546 718.881, 529.030 722.450, 529.257 727.094, 531.074 " fill="none" stroke="rgb(0, 0, 0)" stroke-linecap="butt" stroke-linejoin="round" stroke-opacity="1.0" stroke-width="3.0" />
            <path d=" M 728.957, 528.334 729.210, 528.434 729.447, 528.622 729.662, 528.894 729.849, 529.241 730.002, 529.654 730.118, 530.122 730.193, 530.632 730.226, 531.171 730.215, 531.723 730.161, 532.274 " fill="none" stroke="rgb(0, 0, 0)" stroke-linecap="butt" stroke-linejoin="round" stroke-opacity="1.0" stroke-width="3.0" />
            <path d=" M 719.023, 531.555 729.002, 532.199 730.161, 532.274 739.474, 535.918 747.421, 539.027 " fill="none" stroke="rgb(0, 0, 0)" stroke-linecap="butt" stroke-linejoin="round" stroke-opacity="1.0" stroke-width="3.0" />
            <path d=" M 802.802, 522.543 801.952, 522.580 801.129, 522.852 800.351, 523.355 799.595, 524.079 798.874, 525.012 798.201, 526.139 798.037, 526.486 797.586, 527.441 797.040, 528.897 796.574, 530.480 796.194, 532.165 796.130, 532.561 795.909, 533.922 " fill="none" stroke="rgb(0, 0, 0)" stroke-linecap="butt" stroke-linejoin="round" stroke-opacity="1.0" stroke-width="3.0" />
            <path d=" M 783.985, 533.165 791.208, 533.623 795.909, 533.922 798.459, 534.999 800.285, 535.770 " fill="none" stroke="rgb(0, 0, 0)" stroke-linecap="butt" stroke-linejoin="round" stroke-opacity="1.0" stroke-width="3.0" />
            <path d=" M 802.063, 532.934 802.301, 533.036 802.524, 533.229 802.725, 533.508 802.899, 533.864 803.041, 534.290 803.148, 534.772 803.215, 535.297 803.243, 535.852 803.229, 536.422 803.175, 536.990 798.543, 536.691 791.327, 536.225 " fill="none" stroke="rgb(0, 0, 0)" stroke-linecap="butt" stroke-linejoin="round" stroke-opacity="1.0" stroke-width="3.0" />
            <path d=" M 787.388, 501.830 787.588, 501.907 787.767, 502.027 787.917, 502.183 788.034, 502.370 788.112, 502.584 788.149, 502.818 788.140, 503.067 788.087, 503.300 787.995, 503.522 787.865, 503.725 787.703, 503.901 787.516, 504.044 787.307, 504.149 787.083, 504.210 786.849, 504.224 786.690, 504.204 786.537, 504.159 786.395, 504.090 " fill="none" stroke="rgb(0, 0, 0)" stroke-linecap="butt" stroke-linejoin="round" stroke-opacity="1.0" stroke-width="3.0" />
            <path d=" M 787.388, 501.830 787.364, 501.820 787.346, 501.815 787.333, 501.811 787.296, 501.802 787.255, 501.794 787.210, 501.786 787.163, 501.780 787.116, 501.775 787.069, 501.772 787.029, 501.771 786.994, 501.772 786.966, 501.774 786.761, 501.798 786.721, 501.806 786.507, 501.879 786.472, 501.895 786.268, 502.015 786.091, 502.172 785.947, 502.363 785.843, 502.582 785.827, 502.617 785.767, 502.863 785.759, 503.099 785.798, 503.333 785.882, 503.554 786.009, 503.755 786.032, 503.785 786.192, 503.951 786.384, 504.084 786.395, 504.090 " fill="none" stroke="rgb(0, 0, 0)" stroke-linecap="butt" stroke-linejoin="round" stroke-opacity="1.0" stroke-width="3.0" />
            <path d=" M 787.124, 506.203 790.070, 506.319 790.379, 500.179 790.241, 500.115 787.439, 499.976 784.600, 499.836 783.788, 505.899 784.701, 506.107 " fill="none" stroke="rgb(0, 0, 0)" stroke-linecap="butt" stroke-linejoin="round" stroke-opacity="1.0" stroke-width="3.0" />
            <path d=" M 783.788, 505.899 789.429, 506.193 " fill="none" stroke="rgb(0, 0, 0)" stroke-linecap="butt" stroke-linejoin="round" stroke-opacity="1.0" stroke-width="3.0" />
            <path d=" M 790.070, 506.319 789.429, 506.193 790.241, 500.115 " fill="none" stroke="rgb(0, 0, 0)" stroke-linecap="butt" stroke-linejoin="round" stroke-opacity="1.0" stroke-width="3.0" />
            <path d=" M 734.083, 537.383 727.070, 536.100 717.268, 534.118 715.637, 533.789 705.869, 531.650 704.217, 531.288 694.478, 529.016 692.802, 528.625 683.089, 526.243 681.385, 525.825 671.694, 523.355 669.959, 522.913 660.286, 520.378 658.520, 519.915 648.858, 517.335 647.059, 516.855 637.404, 514.250 635.572, 513.756 625.918, 511.147 624.052, 510.643 614.394, 508.048 612.493, 507.538 602.826, 504.977 600.890, 504.464 591.210, 501.956 589.238, 501.445 579.539, 499.007 577.530, 498.502 577.067, 488.513 576.891, 484.715 576.297, 474.733 576.080, 471.103 575.351, 461.130 575.099, 457.687 574.228, 447.725 573.945, 444.488 572.926, 434.540 572.618, 431.531 571.444, 421.600 571.117, 418.838 569.778, 408.928 569.441, 406.433 567.927, 396.549 567.590, 394.344 565.889, 384.490 565.562, 382.597 563.661, 372.779 563.358, 371.218 561.240, 361.445 560.978, 360.237 558.624, 350.518 558.460, 349.840 558.422, 349.684 555.809, 340.031 555.689, 339.589 554.421, 335.398 " fill="none" stroke="rgb(0, 0, 0)" stroke-linecap="butt" stroke-linejoin="round" stroke-opacity="1.0" stroke-width="3.0" />
            <path d=" M 535.882, 271.858 535.598, 271.833 533.583, 271.653 527.745, 271.132 526.987, 270.984 524.753, 270.549 518.898, 269.409 515.680, 268.450 513.350, 267.756 509.909, 266.731 " fill="none" stroke="rgb(0, 0, 0)" stroke-linecap="butt" stroke-linejoin="round" stroke-opacity="1.0" stroke-width="3.0" />
            <path d=" M 509.909, 266.731 505.145, 265.804 500.271, 265.843 495.299, 266.883 490.240, 268.953 489.324, 269.512 485.109, 272.083 485.011, 272.164 479.922, 276.304 478.784, 277.465 474.695, 281.635 470.686, 286.568 469.447, 288.093 464.195, 295.695 461.555, 300.111 458.962, 304.449 457.376, 307.474 453.768, 314.355 449.557, 323.425 448.636, 325.410 444.812, 334.650 443.589, 337.603 440.113, 346.979 438.653, 350.915 435.490, 360.402 433.851, 365.318 430.974, 374.895 429.208, 380.774 426.596, 390.427 424.752, 397.243 422.384, 406.959 420.504, 414.672 418.365, 424.440 416.492, 432.997 414.568, 442.810 412.737, 452.148 411.018, 462.000 409.300, 471.851 409.265, 472.051 407.741, 481.934 406.218, 491.817 406.095, 492.617 404.760, 502.527 403.425, 512.438 403.248, 513.754 402.095, 523.687 400.943, 533.620 400.741, 535.363 399.768, 545.316 398.795, 555.268 398.592, 557.342 397.794, 567.310 396.997, 577.279 396.813, 579.582 396.189, 589.563 395.565, 599.543 395.414, 601.972 394.964, 611.962 394.515, 621.951 394.405, 624.398 394.130, 634.394 393.855, 644.391 393.791, 646.747 393.692, 656.747 393.594, 666.746 393.573, 668.907 393.655, 678.906 393.737, 688.906 393.752, 690.764 394.019, 700.760 394.285, 710.757 394.324, 712.211 394.782, 722.201 395.240, 732.190 395.284, 733.147 395.940, 743.125 396.597, 753.104 396.621, 753.472 397.486, 763.434 398.325, 773.093 398.348, 772.984 400.365, 763.190 402.381, 753.395 403.751, 746.746 403.966, 745.703 406.073, 735.927 408.180, 726.152 409.720, 719.011 411.920, 709.257 414.121, 699.502 415.588, 692.998 417.885, 683.265 420.182, 673.533 421.572, 667.642 423.967, 657.933 426.362, 648.224 427.671, 642.921 430.168, 633.238 432.664, 623.555 433.886, 618.816 436.487, 609.160 439.088, 599.505 440.219, 595.307 442.927, 585.681 445.635, 576.054 446.671, 572.373 449.488, 562.778 452.306, 553.183 453.242, 549.996 456.171, 540.435 459.101, 530.873 459.934, 528.156 462.978, 518.630 466.021, 509.105 466.747, 506.834 469.908, 497.346 473.069, 487.859 473.685, 486.011 476.964, 476.564 480.244, 467.118 480.747, 465.670 484.148, 456.266 487.549, 446.862 487.935, 445.793 488.230, 445.010 " fill="none" stroke="rgb(0, 0, 0)" stroke-linecap="butt" stroke-linejoin="round" stroke-opacity="1.0" stroke-width="3.0" />
            <path d=" M 368.157, 764.831 364.249, 774.036 363.516, 775.764 " fill="none" stroke="rgb(0, 0, 0)" stroke-linecap="butt" stroke-linejoin="round" stroke-opacity="1.0" stroke-width="3.0" />
            <path d=" M 489.324, 269.512 479.329, 269.200 474.488, 269.050 " fill="none" stroke="rgb(0, 0, 0)" stroke-linecap="butt" stroke-linejoin="round" stroke-opacity="1.0" stroke-width="3.0" />
            <path d=" M 530.830, 468.957 530.818, 468.992 " fill="none" stroke="rgb(0, 0, 0)" stroke-linecap="butt" stroke-linejoin="round" stroke-opacity="1.0" stroke-width="3.0" />
            <path d=" M 557.878, 508.533 557.787, 505.037 " fill="none" stroke="rgb(0, 0, 0)" stroke-linecap="butt" stroke-linejoin="round" stroke-opacity="1.0" stroke-width="3.0" />
        </g>
    </g>
</svg>
