<?xml version='1.0' encoding='ascii'?>
<svg xmlns="http://www.w3.org/2000/svg" height="1080" version="1.1" width="1080">
    <g id="View Layer_LineSet" inkscape:groupmode="lineset" inkscape:label="View Layer_LineSet" xmlns:inkscape="http://www.inkscape.org/namespaces/inkscape">
        <g id="strokes" inkscape:groupmode="layer" inkscape:label="strokes" xmlns:inkscape="http://www.inkscape.org/namespaces/inkscape">
            <path d=" M 564.063, 489.870 564.070, 491.028 564.058, 492.191 564.034, 493.047 564.025, 493.351 563.972, 494.496 563.900, 495.614 563.808, 496.694 563.699, 497.725 563.573, 498.697 563.429, 499.602 563.319, 500.205 563.274, 500.418 563.201, 500.764 563.078, 501.276 563.040, 501.409 562.948, 501.737 562.814, 502.147 562.675, 502.501 562.533, 502.799 560.862, 505.924 559.829, 507.856 559.449, 508.565 " fill="none" stroke="rgb(0, 0, 0)" stroke-linecap="butt" stroke-linejoin="round" stroke-opacity="1.0" stroke-width="3.0" />
            <path d=" M 362.531, 765.914 368.634, 770.526 " fill="none" stroke="rgb(0, 0, 0)" stroke-linecap="butt" stroke-linejoin="round" stroke-opacity="1.0" stroke-width="3.0" />
            <path d=" M 386.312, 771.604 395.782, 768.392 397.848, 767.692 " fill="none" stroke="rgb(0, 0, 0)" stroke-linecap="butt" stroke-linejoin="round" stroke-opacity="1.0" stroke-width="3.0" />
            <path d=" M 397.848, 767.692 392.896, 759.004 387.943, 750.317 387.352, 749.279 " fill="none" stroke="rgb(0, 0, 0)" stroke-linecap="butt" stroke-linejoin="round" stroke-opacity="1.0" stroke-width="3.0" />
            <path d=" M 475.442, 265.048 471.115, 265.258 466.714, 266.500 462.252, 268.807 457.741, 272.213 453.198, 276.744 449.120, 281.820 448.636, 282.422 445.490, 287.142 444.073, 289.268 439.527, 297.295 435.132, 306.278 435.017, 306.512 431.082, 315.706 430.563, 316.919 427.029, 326.273 426.185, 328.509 423.006, 337.991 421.905, 341.273 419.040, 350.854 417.746, 355.184 415.163, 364.845 413.728, 370.214 411.403, 379.939 409.876, 386.322 407.786, 396.101 406.212, 403.462 404.339, 413.285 402.758, 421.572 401.087, 431.431 399.535, 440.586 398.054, 450.476 396.564, 460.428 395.264, 470.343 393.965, 480.258 393.866, 481.013 392.738, 490.949 391.611, 500.885 391.457, 502.246 390.496, 512.199 389.535, 522.153 389.354, 524.027 388.555, 533.995 387.756, 543.963 387.573, 546.250 386.932, 556.230 386.292, 566.209 386.125, 568.803 385.640, 578.792 385.155, 588.780 385.019, 591.570 384.689, 601.564 384.359, 611.559 384.264, 614.431 384.089, 624.429 383.914, 634.428 383.864, 637.267 383.845, 647.267 383.826, 657.267 383.821, 659.958 383.960, 669.957 384.099, 679.956 384.133, 682.386 384.434, 692.381 384.735, 702.377 384.797, 704.436 385.265, 714.425 385.733, 724.414 385.807, 725.996 386.448, 735.976 387.089, 745.955 387.154, 746.964 387.352, 749.279 386.886, 759.268 386.421, 769.257 386.312, 771.604 " fill="none" stroke="rgb(0, 0, 0)" stroke-linecap="butt" stroke-linejoin="round" stroke-opacity="1.0" stroke-width="3.0" />
            <path d=" M 566.972, 520.146 567.870, 520.162 567.980, 520.164 572.504, 511.245 574.661, 506.993 577.699, 502.511 577.263, 492.520 577.085, 488.446 576.516, 478.462 576.294, 474.556 575.589, 464.581 575.326, 460.863 574.478, 450.899 574.180, 447.390 573.183, 437.440 572.855, 434.162 571.701, 424.228 571.350, 421.201 570.031, 411.289 569.665, 408.535 568.169, 398.648 567.798, 396.191 566.114, 386.334 565.749, 384.197 563.864, 374.376 563.518, 372.579 561.414, 362.803 561.106, 361.369 558.823, 351.897 558.510, 350.599 555.907, 340.944 555.733, 340.300 554.737, 337.004 " fill="none" stroke="rgb(0, 0, 0)" stroke-linecap="butt" stroke-linejoin="round" stroke-opacity="1.0" stroke-width="3.0" />
            <path d=" M 551.283, 345.389 553.386, 352.226 553.462, 352.473 556.132, 362.210 556.665, 364.389 558.629, 372.411 560.764, 382.180 560.952, 383.044 562.584, 391.420 563.102, 394.078 564.808, 403.932 565.078, 405.485 566.593, 415.370 566.879, 417.238 568.216, 427.148 568.507, 429.308 569.676, 439.239 569.962, 441.669 570.972, 451.618 571.244, 454.296 572.103, 464.259 572.354, 467.166 573.070, 477.140 573.293, 480.254 573.871, 490.237 574.062, 493.537 574.108, 494.578 574.063, 495.392 574.008, 496.188 573.943, 496.961 573.869, 497.708 573.786, 498.426 573.694, 499.109 573.595, 499.754 573.488, 500.358 573.374, 500.918 573.255, 501.430 573.130, 501.893 573.000, 502.303 572.866, 502.658 572.729, 502.956 568.774, 510.638 568.545, 509.861 568.297, 509.272 568.035, 508.883 567.787, 508.717 567.762, 508.700 565.190, 508.658 564.278, 508.643 563.593, 508.632 563.405, 508.629 559.839, 508.572 559.449, 508.565 558.057, 508.543 557.824, 508.539 557.380, 508.532 557.091, 508.559 556.801, 508.796 556.516, 509.239 556.239, 509.882 556.026, 510.554 555.976, 510.715 555.730, 511.723 555.508, 512.890 555.311, 514.196 555.144, 515.619 555.010, 517.135 554.911, 518.717 554.848, 520.339 554.823, 521.972 554.837, 523.589 554.888, 525.161 556.286, 525.187 558.127, 525.221 558.232, 525.223 560.011, 525.255 563.570, 525.320 564.396, 525.335 565.349, 525.353 565.351, 525.349 566.934, 522.227 566.921, 521.727 566.922, 521.211 566.938, 520.695 566.968, 520.193 566.972, 520.146 567.011, 519.718 567.067, 519.284 567.133, 518.902 567.208, 518.583 567.290, 518.335 567.377, 518.165 567.465, 518.078 567.554, 518.077 " fill="none" stroke="rgb(0, 0, 0)" stroke-linecap="butt" stroke-linejoin="round" stroke-opacity="1.0" stroke-width="3.0" />
            <path d=" M 463.732, 934.673 459.711, 933.979 458.071, 933.280 455.690, 932.267 451.681, 929.508 449.528, 927.434 447.701, 925.674 443.763, 920.746 439.887, 914.706 436.087, 907.543 432.383, 899.248 428.792, 889.823 425.676, 880.320 425.333, 879.274 422.603, 869.654 422.024, 867.615 419.634, 857.905 418.886, 854.865 416.796, 845.086 415.935, 841.057 414.115, 831.224 413.190, 826.227 411.615, 816.352 410.668, 810.421 409.317, 800.512 408.387, 793.692 407.243, 783.758 406.361, 776.105 405.410, 766.150 404.605, 757.728 403.811, 747.760 403.096, 738.773 403.012, 737.361 " fill="none" stroke="rgb(0, 0, 0)" stroke-linecap="butt" stroke-linejoin="round" stroke-opacity="1.0" stroke-width="3.0" />
            <path d=" M 381.674, 358.190 379.478, 367.950 377.519, 377.756 376.283, 383.942 374.539, 393.789 373.267, 400.969 371.720, 410.849 370.449, 418.973 369.085, 428.880 367.846, 437.891 366.655, 447.820 365.476, 457.649 364.448, 467.596 363.419, 477.543 363.355, 478.164 362.482, 488.126 361.608, 498.088 361.498, 499.346 360.773, 509.320 360.048, 519.293 359.917, 521.098 359.336, 531.081 358.756, 541.064 358.625, 543.315 358.185, 553.306 357.745, 563.296 357.630, 565.889 357.328, 575.884 357.026, 585.880 356.940, 588.704 356.775, 598.703 356.610, 608.702 356.561, 611.646 356.532, 621.646 356.503, 631.646 356.495, 634.594 356.603, 644.593 356.711, 654.592 356.742, 657.430 356.989, 667.427 357.236, 677.424 357.300, 680.036 357.689, 690.029 358.077, 700.021 358.166, 702.297 358.700, 712.283 359.235, 722.268 359.333, 724.100 360.018, 734.077 360.703, 744.053 360.791, 745.340 361.634, 755.304 362.476, 765.269 362.531, 765.914 363.595, 775.858 364.629, 785.512 365.899, 795.431 367.027, 804.244 368.517, 814.132 369.708, 822.035 371.437, 831.885 372.654, 838.819 374.645, 848.619 375.846, 854.535 378.125, 864.272 379.264, 869.137 381.866, 878.793 382.888, 882.587 385.854, 892.137 386.533, 894.324 " fill="none" stroke="rgb(0, 0, 0)" stroke-linecap="butt" stroke-linejoin="round" stroke-opacity="1.0" stroke-width="3.0" />
            <path d=" M 524.218, 532.851 524.457, 542.848 524.485, 543.990 524.613, 553.989 524.663, 557.869 524.683, 567.869 524.691, 571.823 524.603, 581.823 524.568, 585.832 524.509, 588.841 " fill="none" stroke="rgb(0, 0, 0)" stroke-linecap="butt" stroke-linejoin="round" stroke-opacity="1.0" stroke-width="3.0" />
            <path d=" M 513.366, 738.158 511.934, 748.055 511.493, 751.110 509.930, 760.987 509.449, 764.021 507.749, 773.876 507.262, 776.694 505.417, 786.522 504.933, 789.103 502.935, 798.901 502.462, 801.222 500.301, 810.986 499.850, 813.023 497.515, 822.747 497.100, 824.477 494.579, 834.154 494.213, 835.557 491.490, 845.178 491.192, 846.229 488.248, 855.786 488.039, 856.462 484.853, 865.941 484.758, 866.225 481.351, 875.482 477.823, 884.199 474.178, 892.339 470.421, 899.866 466.559, 906.743 462.597, 912.929 458.543, 918.386 454.404, 923.078 450.190, 926.964 449.528, 927.434 " fill="none" stroke="rgb(0, 0, 0)" stroke-linecap="butt" stroke-linejoin="round" stroke-opacity="1.0" stroke-width="3.0" />
            <path d=" M 397.468, 763.035 397.848, 767.692 398.824, 777.644 399.765, 787.230 400.948, 797.160 401.991, 805.908 403.395, 815.809 404.507, 823.651 406.150, 833.515 407.296, 840.390 409.201, 850.207 410.338, 856.068 412.531, 865.825 413.612, 870.639 416.123, 880.318 417.095, 884.063 419.966, 893.642 420.765, 896.309 424.045, 905.756 424.600, 907.357 428.348, 916.628 428.577, 917.195 432.673, 925.820 436.867, 933.231 436.992, 933.411 437.275, 933.823 441.138, 939.439 445.465, 944.461 449.829, 948.317 454.213, 951.031 458.598, 952.635 462.969, 953.163 467.311, 952.647 471.611, 951.127 475.856, 948.645 478.011, 946.890 480.036, 945.241 484.139, 940.955 487.869, 936.196 488.156, 935.830 492.080, 929.912 495.603, 923.764 495.903, 923.240 499.619, 915.856 503.221, 907.802 506.705, 899.120 510.068, 889.846 513.197, 880.348 513.306, 880.020 516.185, 870.443 516.414, 869.679 519.068, 860.038 519.392, 858.860 521.840, 849.164 522.237, 847.595 524.497, 837.854 524.946, 835.919 527.034, 826.139 527.520, 823.864 529.447, 814.051 529.956, 811.460 531.734, 801.620 532.255, 798.737 533.892, 788.872 534.415, 785.724 534.430, 785.623 " fill="none" stroke="rgb(0, 0, 0)" stroke-linecap="butt" stroke-linejoin="round" stroke-opacity="1.0" stroke-width="3.0" />
            <path d=" M 531.270, 779.511 529.576, 789.367 529.427, 790.236 527.592, 800.066 527.169, 802.334 525.185, 812.135 524.785, 814.114 523.202, 821.324 522.274, 825.549 519.958, 835.277 519.640, 836.610 517.137, 846.292 516.885, 847.266 514.176, 856.892 514.009, 857.484 511.076, 867.044 511.018, 867.232 507.913, 876.477 504.698, 885.183 501.378, 893.313 497.957, 900.832 494.440, 907.703 490.834, 913.885 487.145, 919.341 483.380, 924.034 479.547, 927.922 475.656, 930.966 471.716, 933.131 467.737, 934.379 463.732, 934.673 " fill="none" stroke="rgb(0, 0, 0)" stroke-linecap="butt" stroke-linejoin="round" stroke-opacity="1.0" stroke-width="3.0" />
            <path d=" M 546.545, 676.337 546.701, 674.205 547.329, 664.225 547.614, 659.684 548.146, 649.698 548.391, 645.104 548.827, 635.113 549.030, 630.485 549.373, 620.491 549.532, 615.846 549.782, 605.849 549.898, 601.207 550.055, 591.208 550.127, 586.586 550.191, 576.586 550.220, 572.003 550.191, 562.003 550.178, 557.476 550.054, 547.477 549.999, 543.026 549.779, 533.028 549.684, 528.671 549.368, 518.676 549.233, 514.431 548.841, 504.992 " fill="none" stroke="rgb(0, 0, 0)" stroke-linecap="butt" stroke-linejoin="round" stroke-opacity="1.0" stroke-width="3.0" />
            <path d=" M 560.862, 505.924 559.799, 505.842 558.015, 505.704 557.758, 505.684 555.909, 505.540 548.841, 504.992 548.522, 504.968 546.677, 504.825 546.134, 504.783 546.553, 514.774 546.700, 518.281 547.012, 528.276 547.126, 531.915 547.336, 541.913 547.415, 545.663 547.524, 555.662 547.566, 559.505 547.575, 569.505 547.579, 573.423 547.490, 583.423 547.455, 587.397 547.270, 597.395 547.195, 601.407 546.913, 611.403 546.799, 615.434 546.419, 625.427 546.266, 629.459 545.790, 639.448 545.598, 643.463 545.024, 653.447 544.796, 657.427 544.123, 667.404 543.982, 669.488 " fill="none" stroke="rgb(0, 0, 0)" stroke-linecap="butt" stroke-linejoin="round" stroke-opacity="1.0" stroke-width="3.0" />
            <path d=" M 386.312, 771.604 387.317, 781.553 388.322, 791.502 388.363, 791.907 389.572, 801.834 390.725, 811.302 392.153, 821.200 393.380, 829.709 395.045, 839.570 396.309, 847.058 398.233, 856.871 399.492, 863.288 401.703, 873.041 402.907, 878.352 405.437, 888.026 406.531, 892.210 409.424, 901.783 410.345, 904.831 413.649, 914.269 414.323, 916.194 418.103, 925.452 418.445, 926.291 422.688, 935.118 427.031, 942.678 431.453, 948.984 435.934, 954.056 440.454, 957.916 444.997, 960.592 449.544, 962.119 454.080, 962.533 458.591, 961.872 463.061, 960.176 467.480, 957.491 471.834, 953.860 " fill="none" stroke="rgb(0, 0, 0)" stroke-linecap="butt" stroke-linejoin="round" stroke-opacity="1.0" stroke-width="3.0" />
            <path d=" M 471.834, 953.860 478.728, 946.615 480.036, 945.241 " fill="none" stroke="rgb(0, 0, 0)" stroke-linecap="butt" stroke-linejoin="round" stroke-opacity="1.0" stroke-width="3.0" />
            <path d=" M 538.858, 480.553 539.515, 490.532 540.172, 500.510 540.424, 504.340 540.808, 514.333 540.943, 517.844 541.173, 527.841 541.191, 528.630 535.274, 531.113 532.020, 532.478 531.740, 532.596 531.460, 532.714 531.179, 532.832 530.899, 532.950 530.566, 532.974 526.982, 532.905 524.218, 532.851 520.060, 532.771 " fill="none" stroke="rgb(0, 0, 0)" stroke-linecap="butt" stroke-linejoin="round" stroke-opacity="1.0" stroke-width="3.0" />
            <path d=" M 520.234, 501.404 521.237, 498.267 524.282, 488.742 527.320, 479.237 537.255, 480.371 538.858, 480.553 535.917, 490.111 532.975, 499.669 530.846, 506.588 530.720, 506.990 530.474, 507.792 530.226, 508.596 529.979, 509.401 529.733, 510.207 529.451, 511.263 529.350, 511.750 529.195, 512.499 528.973, 513.889 528.787, 515.409 528.642, 517.028 528.620, 517.394 528.541, 518.715 528.485, 520.438 528.476, 522.162 528.509, 523.614 528.514, 523.856 528.598, 525.484 528.727, 527.018 528.897, 528.425 529.106, 529.681 529.349, 530.760 529.622, 531.644 529.920, 532.315 530.237, 532.761 530.566, 532.974 " fill="none" stroke="rgb(0, 0, 0)" stroke-linecap="butt" stroke-linejoin="round" stroke-opacity="1.0" stroke-width="3.0" />
            <path d=" M 530.890, 523.657 530.765, 523.605 530.646, 523.418 530.540, 523.105 530.451, 522.680 530.382, 522.162 530.338, 521.573 530.320, 520.938 530.328, 520.286 530.363, 519.646 530.422, 519.045 530.504, 518.510 530.604, 518.065 530.719, 517.728 530.841, 517.515 530.969, 517.435 " fill="none" stroke="rgb(0, 0, 0)" stroke-linecap="butt" stroke-linejoin="round" stroke-opacity="1.0" stroke-width="3.0" />
            <path d=" M 530.969, 517.435 531.094, 517.490 531.212, 517.679 531.318, 517.992 531.407, 518.416 531.475, 518.934 531.519, 519.521 531.537, 520.153 531.528, 520.803 531.494, 521.440 531.435, 522.039 531.354, 522.573 531.254, 523.019 531.140, 523.357 531.017, 523.573 530.890, 523.657 " fill="none" stroke="rgb(0, 0, 0)" stroke-linecap="butt" stroke-linejoin="round" stroke-opacity="1.0" stroke-width="3.0" />
            <path d=" M 552.205, 689.747 553.023, 679.780 553.224, 677.342 553.958, 667.369 554.211, 663.943 554.864, 653.964 555.091, 650.487 555.663, 640.504 555.864, 636.988 556.356, 627.000 556.530, 623.456 556.942, 613.465 557.089, 609.903 557.421, 599.908 557.540, 596.340 557.794, 586.343 557.884, 582.778 558.058, 572.779 558.120, 569.228 558.215, 559.228 558.248, 555.702 558.263, 545.702 558.268, 542.210 558.255, 540.228 558.189, 530.228 558.179, 528.764 558.127, 525.221 " fill="none" stroke="rgb(0, 0, 0)" stroke-linecap="butt" stroke-linejoin="round" stroke-opacity="1.0" stroke-width="3.0" />
            <path d=" M 456.690, 980.702 459.111, 980.890 463.212, 980.442 467.280, 979.178 471.306, 977.130 475.283, 974.328 479.204, 970.804 483.062, 966.588 486.852, 961.712 490.569, 956.207 494.208, 950.103 497.764, 943.431 501.234, 936.220 504.615, 928.499 507.903, 920.296 511.097, 911.638 514.194, 902.552 517.191, 893.063 520.009, 883.468 520.089, 883.196 522.743, 873.488 522.884, 872.975 525.355, 863.285 525.576, 862.422 527.893, 852.694 528.163, 851.559 530.337, 841.798 530.646, 840.407 532.685, 830.617 533.024, 828.988 534.934, 819.172 535.295, 817.319 537.085, 807.480 537.460, 805.420 539.135, 795.561 539.363, 794.219 " fill="none" stroke="rgb(0, 0, 0)" stroke-linecap="butt" stroke-linejoin="round" stroke-opacity="1.0" stroke-width="3.0" />
            <path d=" M 526.560, 267.329 525.087, 262.732 522.261, 254.719 519.321, 247.181 516.269, 240.143 513.105, 233.632 509.832, 227.678 506.453, 222.307 502.970, 217.550 499.387, 213.435 495.707, 209.993 491.935, 207.253 488.075, 205.246 484.134, 204.000 480.117, 203.546 478.511, 203.689 476.031, 203.911 471.884, 205.124 467.684, 207.210 463.440, 210.195 459.162, 214.102 454.860, 218.952 450.546, 224.762 446.232, 231.549 441.930, 239.325 437.653, 248.097 433.676, 257.272 433.417, 257.871 431.064, 263.933 429.236, 268.645 425.938, 278.085 425.124, 280.414 422.114, 289.950 421.098, 293.169 418.349, 302.784 417.174, 306.893 414.663, 316.573 414.259, 318.132 413.368, 321.566 411.076, 331.299 409.697, 337.158 407.607, 346.938 406.176, 353.638 404.275, 363.456 402.822, 370.965 401.099, 380.815 399.651, 389.093 398.096, 398.971 396.679, 407.970 395.282, 417.872 393.920, 427.538 392.676, 437.460 391.432, 447.383 391.388, 447.734 390.290, 457.673 389.193, 467.613 389.096, 468.488 388.141, 478.442 387.185, 488.397 387.058, 489.727 386.240, 499.694 385.423, 509.661 385.282, 511.374 384.600, 521.350 383.917, 531.327 383.779, 533.345 383.230, 543.330 382.680, 553.315 382.557, 555.557 382.139, 565.548 381.721, 575.539 381.622, 577.921 381.335, 587.917 381.048, 597.913 380.978, 600.351 380.822, 610.349 380.666, 620.348 380.629, 622.755 380.605, 632.755 380.581, 642.755 380.575, 645.045 380.684, 655.045 380.794, 665.044 380.817, 667.133 381.062, 677.130 381.307, 687.127 381.351, 688.931 381.735, 698.924 382.119, 708.916 382.174, 710.356 382.701, 720.342 383.228, 730.329 383.280, 731.327 383.955, 741.304 384.630, 751.282 384.662, 751.767 385.491, 761.733 386.312, 771.604 387.302, 781.555 388.218, 790.769 389.378, 800.702 390.371, 809.202 391.711, 819.111 392.757, 826.845 394.290, 836.727 395.363, 843.649 397.103, 853.497 398.176, 859.571 400.141, 869.376 401.181, 874.571 403.390, 884.324 404.363, 888.620 406.842, 898.308 407.707, 901.691 410.483, 911.298 411.197, 913.766 414.306, 923.270 414.817, 924.831 418.302, 934.204 418.552, 934.879 422.388, 943.906 426.309, 951.915 430.300, 958.912 434.348, 964.909 438.439, 969.920 442.560, 973.962 446.699, 977.056 450.844, 979.225 454.985, 980.494 456.909, 980.679 459.111, 980.890 " fill="none" stroke="rgb(0, 0, 0)" stroke-linecap="butt" stroke-linejoin="round" stroke-opacity="1.0" stroke-width="3.0" />
            <path d=" M 477.725, 203.601 473.613, 203.967 469.440, 205.180 465.213, 207.266 460.943, 210.251 456.638, 214.157 452.309, 219.006 447.968, 224.815 443.627, 231.600 439.299, 239.374 434.997, 248.144 430.999, 257.310 430.735, 257.914 428.261, 264.248 426.529, 268.685 423.212, 278.119 422.393, 280.450 419.366, 289.981 418.343, 293.201 415.578, 302.811 414.396, 306.921 411.871, 316.597 410.568, 321.588 408.263, 331.319 406.875, 337.175 406.343, 339.649 404.242, 349.426 403.334, 353.649 401.423, 363.464 399.962, 370.969 398.229, 380.818 396.773, 389.090 395.209, 398.967 393.785, 407.960 392.381, 417.861 391.011, 427.521 389.760, 437.442 388.510, 447.364 388.466, 447.709 387.363, 457.648 386.260, 467.587 386.163, 468.455 385.203, 478.409 384.242, 488.363 384.115, 489.686 383.293, 499.652 382.472, 509.618 382.331, 511.324 381.645, 521.300 380.960, 531.277 380.822, 533.287 380.270, 543.271 379.718, 553.256 379.595, 555.490 379.175, 565.481 378.756, 575.472 378.657, 577.846 378.369, 587.841 378.082, 597.837 378.012, 600.266 377.856, 610.265 377.701, 620.264 377.663, 622.662 377.640, 632.662 377.618, 642.662 377.612, 644.943 377.724, 654.943 377.835, 664.942 377.858, 667.022 378.106, 677.019 378.354, 687.016 378.399, 688.813 378.787, 698.805 379.175, 708.798 379.230, 710.230 379.762, 720.216 380.293, 730.202 380.346, 731.193 381.027, 741.170 381.707, 751.147 381.740, 751.626 382.575, 761.591 383.402, 771.455 384.400, 781.406 385.323, 790.614 386.492, 800.546 387.491, 809.041 388.842, 818.949 389.895, 826.679 391.439, 836.559 392.520, 843.478 394.272, 853.323 395.353, 859.395 397.331, 869.197 398.379, 874.391 400.603, 884.141 401.583, 888.436 404.077, 898.120 404.949, 901.504 407.744, 911.106 408.463, 913.577 411.592, 923.074 412.107, 924.640 415.613, 934.005 415.868, 934.685 419.729, 943.711 423.675, 951.720 427.693, 958.717 431.767, 964.714 435.885, 969.725 440.033, 973.768 444.198, 976.863 448.371, 979.033 452.538, 980.304 456.690, 980.702 " fill="none" stroke="rgb(0, 0, 0)" stroke-linecap="butt" stroke-linejoin="round" stroke-opacity="1.0" stroke-width="3.0" />
            <path d=" M 480.117, 203.546 477.725, 203.601 " fill="none" stroke="rgb(0, 0, 0)" stroke-linecap="butt" stroke-linejoin="round" stroke-opacity="1.0" stroke-width="3.0" />
            <path d=" M 557.808, 701.229 558.694, 691.268 558.958, 688.300 559.762, 678.332 560.097, 674.165 560.819, 664.192 561.125, 659.962 561.767, 649.983 562.042, 645.702 562.605, 635.718 562.849, 631.397 563.333, 621.409 563.544, 617.057 563.951, 607.066 564.129, 602.695 564.458, 592.700 564.602, 588.320 564.854, 578.323 564.965, 573.944 565.140, 563.946 565.216, 559.578 565.313, 549.578 565.356, 545.231 565.375, 535.231 565.384, 530.916 565.351, 525.349 " fill="none" stroke="rgb(0, 0, 0)" stroke-linecap="butt" stroke-linejoin="round" stroke-opacity="1.0" stroke-width="3.0" />
            <path d=" M 453.792, 1001.153 456.211, 1001.348 460.660, 1001.520 465.075, 1000.783 469.446, 999.169 473.764, 996.715 478.022, 993.456 482.213, 989.430 486.330, 984.670 490.367, 979.213 494.320, 973.094 498.183, 966.348 501.954, 959.007 505.628, 951.104 509.202, 942.672 512.187, 934.993 512.674, 933.741 516.041, 924.341 519.186, 914.848 519.302, 914.500 522.240, 904.941 522.454, 904.245 525.204, 894.631 525.498, 893.604 528.074, 883.941 528.431, 882.601 530.846, 872.897 531.253, 871.261 533.518, 861.521 533.963, 859.606 536.088, 849.834 536.561, 847.659 538.555, 837.860 539.047, 835.442 540.916, 825.618 541.419, 822.973 543.171, 813.127 543.679, 810.272 544.870, 803.109 " fill="none" stroke="rgb(0, 0, 0)" stroke-linecap="butt" stroke-linejoin="round" stroke-opacity="1.0" stroke-width="3.0" />
            <path d=" M 540.222, 264.323 539.128, 259.623 536.668, 249.930 536.540, 249.425 533.871, 239.788 533.827, 239.630 530.989, 230.263 528.026, 221.352 524.938, 212.924 521.728, 205.008 518.395, 197.635 514.942, 190.836 511.371, 184.642 507.684, 179.086 503.884, 174.201 499.975, 170.023 495.961, 166.584 491.846, 163.920 487.637, 162.065 483.339, 161.054 478.959, 160.922 478.277, 161.041 474.505, 161.700 469.985, 163.423 465.410, 166.121 460.788, 169.823 456.132, 174.556 451.454, 180.345 446.766, 187.211 442.083, 195.171 437.509, 204.064 437.419, 204.239 433.281, 213.343 432.790, 214.425 429.037, 223.695 428.212, 225.733 424.802, 235.133 423.703, 238.160 420.598, 247.666 419.280, 251.701 417.443, 257.929 414.962, 266.340 412.383, 276.002 412.176, 276.781 410.767, 282.058 410.067, 284.955 407.718, 294.675 406.714, 298.827 404.576, 308.596 402.822, 316.613 400.880, 326.422 399.109, 335.372 397.351, 345.217 395.594, 355.057 394.010, 364.930 392.425, 374.804 392.296, 375.609 390.875, 385.507 389.455, 395.406 389.231, 396.964 387.967, 406.884 386.703, 416.803 386.417, 419.051 386.229, 420.730 385.115, 430.667 384.001, 440.605 383.868, 441.793 382.899, 451.746 381.930, 461.699 381.599, 465.106 380.771, 475.071 379.943, 485.037 379.622, 488.899 378.932, 498.876 378.242, 508.852 377.949, 513.081 377.394, 523.065 376.839, 533.050 376.589, 537.552 376.168, 547.543 375.747, 557.534 375.550, 562.212 375.262, 572.208 374.974, 582.204 374.836, 586.959 374.681, 596.958 374.526, 606.956 374.453, 611.688 374.431, 621.688 374.409, 631.688 374.400, 636.297 374.513, 646.296 374.627, 656.296 374.677, 660.682 374.928, 670.679 375.179, 680.676 375.281, 684.743 375.672, 694.735 376.064, 704.728 376.207, 708.383 376.744, 718.369 377.280, 728.354 377.450, 731.509 378.136, 741.485 378.822, 751.462 378.999, 754.031 379.841, 763.996 380.683, 773.960 380.844, 775.867 381.850, 785.817 382.856, 795.766 382.975, 796.941 384.153, 806.871 385.331, 816.801 385.376, 817.180 386.738, 827.087 388.034, 836.523 389.592, 846.401 390.934, 854.914 392.702, 864.756 394.058, 872.303 396.055, 882.102 397.390, 888.651 399.637, 898.395 400.913, 903.924 403.435, 913.601 404.607, 918.096 407.436, 927.688 408.457, 931.148 411.629, 940.632 412.444, 943.068 412.789, 943.975 413.040, 944.635 416.549, 953.851 420.088, 961.962 420.757, 963.496 423.651, 969.234 425.050, 972.010 429.413, 979.403 433.828, 985.691 438.282, 990.893 442.761, 995.032 447.250, 998.135 451.737, 1000.230 455.739, 1001.230 456.211, 1001.348 " fill="none" stroke="rgb(0, 0, 0)" stroke-linecap="butt" stroke-linejoin="round" stroke-opacity="1.0" stroke-width="3.0" />
            <path d=" M 476.571, 160.990 472.089, 161.769 467.541, 163.493 462.936, 166.190 458.286, 169.892 453.601, 174.625 448.894, 180.412 444.177, 187.276 439.465, 195.235 434.869, 204.116 434.773, 204.301 430.615, 213.395 430.117, 214.484 426.344, 223.745 425.512, 225.788 422.082, 235.181 420.976, 238.212 417.854, 247.712 416.527, 251.748 413.682, 261.334 412.184, 266.382 409.591, 276.040 407.965, 282.095 407.542, 283.834 407.041, 285.893 404.678, 295.610 403.888, 298.858 401.738, 308.624 399.974, 316.637 398.022, 326.445 397.068, 331.236 396.241, 335.390 394.473, 345.232 392.707, 355.067 391.113, 364.939 389.520, 374.811 389.391, 375.611 387.962, 385.509 386.534, 395.406 386.310, 396.958 385.039, 406.877 383.768, 416.796 383.481, 419.037 382.361, 428.974 381.241, 438.911 380.919, 441.770 379.945, 451.723 378.972, 461.675 378.639, 465.073 377.961, 473.195 377.129, 483.160 376.653, 488.858 375.960, 498.834 375.267, 508.810 374.973, 513.030 374.416, 523.014 373.859, 532.999 373.608, 537.491 373.186, 547.482 372.763, 557.474 372.566, 562.142 372.277, 572.138 371.988, 582.134 371.851, 586.879 371.696, 596.878 371.541, 606.876 371.468, 611.599 371.448, 621.599 371.427, 631.599 371.418, 636.198 371.534, 646.197 371.649, 656.196 371.700, 660.573 371.954, 670.570 372.208, 680.567 372.311, 684.625 372.707, 694.618 373.102, 704.610 373.247, 708.257 373.788, 718.242 374.329, 728.228 374.500, 731.374 375.192, 741.350 375.884, 751.326 376.061, 753.888 376.911, 763.852 377.760, 773.816 377.922, 775.717 378.935, 785.665 379.949, 795.614 380.068, 796.783 381.255, 806.712 382.442, 816.641 382.487, 817.016 383.858, 826.921 385.164, 836.353 386.733, 846.229 388.084, 854.737 389.865, 864.578 391.230, 872.122 393.241, 881.918 394.585, 888.466 396.848, 898.206 398.132, 903.735 400.671, 913.407 401.852, 917.903 404.699, 927.490 405.727, 930.953 406.976, 934.661 408.324, 938.664 409.740, 942.871 411.814, 948.279 413.873, 953.652 417.321, 961.501 418.109, 963.296 422.430, 971.809 426.821, 979.202 431.265, 985.490 435.748, 990.693 440.255, 994.833 444.773, 997.937 449.289, 1000.034 453.792, 1001.153 " fill="none" stroke="rgb(0, 0, 0)" stroke-linecap="butt" stroke-linejoin="round" stroke-opacity="1.0" stroke-width="3.0" />
            <path d=" M 478.959, 160.922 476.571, 160.990 " fill="none" stroke="rgb(0, 0, 0)" stroke-linecap="butt" stroke-linejoin="round" stroke-opacity="1.0" stroke-width="3.0" />
            <path d=" M 543.913, 257.113 543.572, 255.488 541.347, 245.738 541.043, 244.404 538.631, 234.699 538.382, 233.697 535.768, 224.045 535.591, 223.393 532.754, 213.804 532.669, 213.519 529.616, 204.104 526.433, 195.176 523.119, 186.766 519.677, 178.905 516.108, 171.627 512.413, 164.964 508.595, 158.952 504.656, 153.626 500.600, 149.023 496.432, 145.179 492.154, 142.133 487.774, 139.921 483.297, 138.582 478.730, 138.152 473.980, 138.302 469.272, 138.821 464.490, 140.322 459.644, 142.840 454.745, 146.408 449.803, 151.055 444.834, 156.811 439.849, 163.701 434.864, 171.744 430.117, 180.546 429.895, 180.960 425.606, 189.993 424.958, 191.359 421.073, 200.573 420.072, 202.948 416.545, 212.306 415.254, 215.730 412.047, 225.201 410.525, 229.697 407.606, 239.262 405.903, 244.839 403.245, 254.479 401.410, 261.136 398.991, 270.839 397.065, 278.559 394.866, 288.315 392.891, 297.076 390.895, 306.874 388.906, 316.640 387.101, 326.476 385.296, 336.312 385.133, 337.203 383.507, 347.070 381.881, 356.937 381.674, 358.190 381.590, 358.703 380.133, 368.596 378.677, 378.489 378.297, 381.072 377.002, 390.988 375.707, 400.904 375.272, 404.236 374.132, 414.171 372.992, 424.106 372.533, 428.111 371.542, 438.062 370.552, 448.012 370.094, 452.607 369.249, 462.571 368.404, 472.535 367.972, 477.629 367.268, 487.604 366.565, 497.579 366.177, 503.075 365.612, 513.059 365.048, 523.043 364.720, 528.841 364.293, 538.832 364.031, 544.959 363.610, 554.816 363.319, 564.812 363.029, 574.808 362.852, 580.891 362.698, 590.889 362.544, 600.888 362.451, 606.952 362.434, 616.952 362.417, 626.952 362.407, 632.888 362.529, 642.887 362.651, 652.886 362.721, 658.587 362.984, 668.583 363.247, 678.580 363.388, 683.941 363.795, 693.933 364.202, 703.924 364.403, 708.844 364.959, 718.829 365.514, 728.813 365.758, 733.196 366.468, 743.171 366.589, 744.872 367.288, 754.707 367.445, 756.901 368.314, 766.864 368.634, 770.526 369.450, 779.870 370.487, 789.816 371.525, 799.762 371.760, 802.020 372.975, 811.946 374.190, 821.872 374.362, 823.276 375.765, 833.177 377.168, 843.078 377.238, 843.571 378.842, 853.442 380.371, 862.846 382.192, 872.679 383.743, 881.050 385.800, 890.836 386.533, 894.324 387.335, 898.140 389.650, 907.869 391.128, 914.083 393.727, 923.740 395.102, 928.852 398.016, 938.418 399.238, 942.429 402.506, 951.880 403.516, 954.803 407.183, 964.107 407.917, 965.970 412.037, 975.081 412.422, 975.931 417.013, 984.696 421.672, 992.278 426.382, 998.695 431.128, 1003.970 435.895, 1008.129 440.667, 1011.203 445.432, 1013.222 450.177, 1014.222 454.992, 1014.616 459.648, 1014.627 464.262, 1013.690 468.825, 1011.845 473.329, 1009.129 477.766, 1005.581 482.128, 1001.241 486.409, 996.146 490.603, 990.335 494.706, 983.845 498.713, 976.713 502.620, 968.973 506.423, 960.662 510.120, 951.811 513.709, 942.454 517.043, 933.026 517.187, 932.620 520.298, 923.117 520.552, 922.341 523.461, 912.774 523.804, 911.645 526.526, 902.022 526.941, 900.558 529.492, 890.889 529.962, 889.107 532.355, 879.398 532.867, 877.317 535.112, 867.573 535.655, 865.212 537.762, 855.437 538.327, 852.814 540.303, 843.012 540.881, 840.145 542.735, 830.318 543.319, 827.225 545.056, 817.377 545.639, 814.074 546.924, 806.281 " fill="none" stroke="rgb(0, 0, 0)" stroke-linecap="butt" stroke-linejoin="round" stroke-opacity="1.0" stroke-width="3.0" />
            <path d=" M 559.806, 704.848 560.026, 702.581 560.906, 692.620 561.306, 688.084 562.104, 678.116 562.473, 673.507 563.191, 663.533 563.527, 658.862 564.165, 648.882 564.467, 644.159 565.026, 634.175 565.293, 629.412 565.775, 619.424 566.006, 614.630 566.411, 604.638 566.606, 599.824 566.934, 589.830 567.092, 585.006 567.344, 575.009 567.466, 570.185 567.641, 560.186 567.725, 555.372 567.823, 545.372 567.871, 540.578 567.892, 530.578 567.902, 525.813 567.870, 520.162 " fill="none" stroke="rgb(0, 0, 0)" stroke-linecap="butt" stroke-linejoin="round" stroke-opacity="1.0" stroke-width="3.0" />
            <path d=" M 478.730, 138.152 474.081, 138.670 469.358, 140.170 464.572, 142.687 459.732, 146.255 454.851, 150.904 449.942, 156.662 445.017, 163.554 440.091, 171.601 435.391, 180.428 435.181, 180.821 430.936, 189.875 430.303, 191.226 426.458, 200.457 425.473, 202.822 421.984, 212.194 420.712, 215.611 417.540, 225.095 416.037, 229.588 415.894, 230.061 413.007, 239.636 411.468, 244.739 408.840, 254.388 407.026, 261.047 404.633, 270.756 402.730, 278.483 400.555, 288.243 398.601, 297.012 397.968, 300.159 396.506, 307.419 394.660, 316.591 392.875, 326.430 391.090, 336.270 390.927, 337.169 389.319, 347.038 387.711, 356.908 387.422, 358.684 385.981, 368.580 385.372, 372.764 384.163, 381.071 382.882, 390.989 381.601, 400.906 381.169, 404.253 380.041, 414.189 378.913, 424.125 378.457, 428.146 377.477, 438.098 376.496, 448.050 376.042, 452.662 375.507, 459.035 374.670, 469.000 373.939, 477.703 373.242, 487.679 372.544, 497.655 372.159, 503.170 371.599, 513.154 371.039, 523.139 370.713, 528.956 370.289, 538.947 369.865, 548.938 369.610, 554.952 369.424, 561.370 369.134, 571.366 368.854, 581.047 368.700, 591.046 368.545, 601.045 368.451, 607.129 368.432, 617.129 368.413, 627.129 368.401, 633.085 368.519, 643.084 368.637, 653.083 368.704, 658.804 368.961, 668.800 369.218, 678.797 369.356, 684.177 369.756, 694.169 370.155, 704.161 370.353, 709.099 370.899, 719.084 371.445, 729.069 371.685, 733.469 372.383, 743.445 373.081, 753.420 373.345, 757.191 374.201, 767.155 375.057, 777.118 375.320, 780.176 376.342, 790.124 377.363, 800.071 377.597, 802.341 378.793, 812.269 379.990, 822.197 380.161, 823.611 381.544, 833.515 382.927, 843.419 382.996, 843.919 384.578, 853.793 386.086, 863.205 387.883, 873.043 389.412, 881.420 391.442, 891.212 391.556, 891.764 392.956, 898.519 394.763, 906.219 396.699, 914.470 399.264, 924.136 399.581, 925.329 400.359, 928.261 400.620, 929.246 403.498, 938.823 404.702, 942.829 406.320, 947.574 408.924, 955.207 412.548, 964.527 413.267, 966.377 417.343, 975.509 417.714, 976.341 417.862, 976.626 422.246, 985.107 426.846, 992.689 431.497, 999.105 436.183, 1004.378 440.889, 1008.536 445.601, 1011.606 450.306, 1013.621 454.992, 1014.616 " fill="none" stroke="rgb(0, 0, 0)" stroke-linecap="butt" stroke-linejoin="round" stroke-opacity="1.0" stroke-width="3.0" />
            <path d=" M 482.714, 507.326 482.506, 507.323 482.142, 507.348 481.777, 507.581 481.418, 508.019 481.072, 508.655 480.744, 509.478 480.440, 510.476 480.165, 511.631 479.924, 512.923 479.721, 514.332 479.560, 515.833 479.444, 517.400 479.373, 519.006 479.351, 520.623 479.377, 522.225 479.450, 523.782 482.158, 523.832 " fill="none" stroke="rgb(0, 0, 0)" stroke-linecap="butt" stroke-linejoin="round" stroke-opacity="1.0" stroke-width="3.0" />
            <path d=" M 565.349, 525.353 565.301, 523.778 565.289, 522.159 565.315, 520.524 565.322, 520.338 565.330, 520.117 565.376, 518.900 565.429, 518.040 565.473, 517.315 565.604, 515.797 565.765, 514.372 565.956, 513.064 566.171, 511.896 566.408, 510.886 566.495, 510.601 566.662, 510.052 566.929, 509.408 567.205, 508.964 567.484, 508.727 567.762, 508.700 " fill="none" stroke="rgb(0, 0, 0)" stroke-linecap="butt" stroke-linejoin="round" stroke-opacity="1.0" stroke-width="3.0" />
            <path d=" M 567.980, 520.164 567.953, 519.693 567.912, 519.263 567.863, 518.920 567.858, 518.885 567.794, 518.569 567.720, 518.326 567.640, 518.160 567.554, 518.077 " fill="none" stroke="rgb(0, 0, 0)" stroke-linecap="butt" stroke-linejoin="round" stroke-opacity="1.0" stroke-width="3.0" />
            <path d=" M 529.111, 467.047 529.389, 472.504 529.872, 472.509 534.987, 472.568 535.191, 472.242 534.777, 467.013 529.403, 466.664 529.360, 466.661 529.111, 467.047 " fill="none" stroke="rgb(0, 0, 0)" stroke-linecap="butt" stroke-linejoin="round" stroke-opacity="1.0" stroke-width="3.0" />
            <path d=" M 534.717, 467.108 529.111, 467.047 " fill="none" stroke="rgb(0, 0, 0)" stroke-linecap="butt" stroke-linejoin="round" stroke-opacity="1.0" stroke-width="3.0" />
            <path d=" M 534.987, 472.568 534.717, 467.108 534.777, 467.013 " fill="none" stroke="rgb(0, 0, 0)" stroke-linecap="butt" stroke-linejoin="round" stroke-opacity="1.0" stroke-width="3.0" />
            <path d=" M 530.920, 469.651 530.909, 469.862 530.944, 470.084 530.966, 470.147 531.043, 470.347 531.158, 470.523 531.306, 470.670 531.351, 470.712 531.516, 470.818 531.573, 470.847 531.741, 470.906 531.794, 470.923 531.859, 470.936 531.934, 470.945 532.019, 470.948 532.102, 470.947 532.185, 470.940 532.265, 470.930 532.339, 470.915 532.404, 470.896 532.458, 470.874 532.615, 470.801 532.674, 470.766 532.826, 470.646 532.933, 470.533 " fill="none" stroke="rgb(0, 0, 0)" stroke-linecap="butt" stroke-linejoin="round" stroke-opacity="1.0" stroke-width="3.0" />
            <path d=" M 531.008, 469.344 530.973, 469.445 530.968, 469.464 530.956, 469.512 530.920, 469.651 530.959, 469.489 " fill="none" stroke="rgb(0, 0, 0)" stroke-linecap="butt" stroke-linejoin="round" stroke-opacity="1.0" stroke-width="3.0" />
            <path d=" M 532.933, 470.533 533.022, 470.409 533.092, 470.274 533.141, 470.128 533.167, 469.977 533.171, 469.821 533.151, 469.666 533.110, 469.513 533.047, 469.367 532.963, 469.229 532.861, 469.103 532.742, 468.992 532.610, 468.897 532.466, 468.821 532.313, 468.765 532.155, 468.730 531.995, 468.717 531.836, 468.726 531.682, 468.758 531.535, 468.810 531.398, 468.883 531.275, 468.975 531.167, 469.084 531.078, 469.208 531.008, 469.344 " fill="none" stroke="rgb(0, 0, 0)" stroke-linecap="butt" stroke-linejoin="round" stroke-opacity="1.0" stroke-width="3.0" />
            <path d=" M 629.006, 852.474 631.180, 852.934 639.072, 854.573 646.958, 855.469 654.821, 855.640 662.643, 855.103 670.411, 853.878 678.109, 851.983 685.724, 849.440 693.243, 846.270 700.654, 842.493 707.947, 838.132 715.109, 833.208 722.133, 827.743 729.010, 821.759 735.730, 815.278 742.287, 808.320 748.674, 800.907 754.884, 793.060 760.778, 784.983 760.911, 784.801 766.505, 776.512 766.751, 776.148 772.055, 767.671 772.398, 767.122 777.422, 758.476 777.848, 757.743 782.602, 748.945 783.098, 748.029 787.591, 739.095 788.142, 738.000 792.383, 728.944 792.978, 727.673 796.976, 718.506 797.604, 717.066 801.365, 707.800 802.015, 706.197 805.547, 696.842 806.210, 695.084 809.518, 685.647 810.186, 683.741 813.278, 674.231 813.942, 672.187 816.821, 662.610 817.475, 660.436 820.147, 650.799 820.783, 648.504 823.252, 638.814 823.865, 636.408 826.135, 626.669 826.720, 624.160 828.794, 614.378 829.345, 611.778 831.226, 601.956 831.740, 599.274 833.430, 589.418 833.903, 586.663 835.405, 576.776 835.833, 573.959 837.148, 564.046 837.529, 561.177 838.659, 551.241 838.990, 548.330 839.935, 538.375 840.214, 535.432 840.975, 525.461 841.201, 522.497 841.778, 512.514 841.949, 509.539 842.342, 499.546 842.459, 496.570 842.666, 486.572 842.727, 483.606 842.749, 473.606 842.755, 470.659 842.589, 460.660 842.540, 457.744 842.185, 447.751 842.082, 444.876 841.535, 434.891 841.381, 432.068 840.639, 422.095 840.434, 419.334 839.495, 409.378 839.242, 406.690 838.102, 396.755 837.803, 394.151 836.459, 384.242 836.118, 381.732 834.563, 371.853 834.185, 369.448 832.416, 359.606 832.004, 357.316 830.015, 347.516 829.575, 345.353 827.359, 335.601 826.898, 333.574 824.447, 323.879 823.971, 321.997 821.279, 312.366 820.797, 310.640 817.855, 301.083 817.374, 299.521 814.173, 290.047 813.704, 288.658 810.234, 279.280 809.787, 278.072 806.037, 268.801 805.624, 267.780 801.583, 258.633 801.217, 257.804 796.873, 248.797 796.567, 248.164 791.907, 239.316 791.677, 238.881 786.687, 230.215 786.549, 229.976 781.186, 221.473 775.592, 213.392 769.771, 205.757 763.727, 198.591 757.465, 191.918 750.993, 185.761 744.316, 180.143 737.443, 175.090 730.380, 170.624 723.139, 166.769 715.728, 163.549 708.160, 160.987 700.445, 159.105 692.598, 157.925 684.632, 157.468 676.562, 157.753 674.329, 157.974 " fill="none" stroke="rgb(0, 0, 0)" stroke-linecap="butt" stroke-linejoin="round" stroke-opacity="1.0" stroke-width="3.0" />
            <path d=" M 631.180, 852.934 631.088, 852.906 623.300, 850.538 615.451, 847.369 607.653, 843.416 599.925, 838.669 592.291, 833.120 584.771, 826.763 577.597, 819.796 577.389, 819.594 570.679, 812.180 570.167, 811.614 563.917, 803.808 563.130, 802.825 557.329, 794.679 556.300, 793.234 550.938, 784.793 550.392, 783.933 549.703, 782.849 548.396, 780.546 546.907, 777.924 543.363, 771.683 542.962, 770.895 541.472, 767.962 538.010, 761.146 537.303, 759.753 534.486, 753.550 531.547, 747.079 527.792, 737.811 526.120, 733.685 523.410, 726.168 521.043, 719.600 518.003, 710.073 517.155, 707.415 516.339, 704.854 513.703, 695.457 512.028, 689.484 509.655, 679.770 508.130, 673.530 506.075, 663.744 504.665, 657.034 502.917, 647.188 501.649, 640.044 500.200, 630.150 499.096, 622.609 497.940, 612.676 497.022, 604.783 496.152, 594.821 495.436, 586.621 494.847, 576.639 494.348, 568.182 494.036, 558.187 493.766, 549.526 493.728, 539.526 493.694, 530.715 493.926, 520.718 494.006, 517.296 494.134, 511.813 494.636, 501.826 495.085, 492.883 495.857, 482.913 496.547, 473.990 497.587, 464.044 498.513, 455.198 499.823, 445.285 500.975, 436.572 502.558, 426.698 503.925, 418.172 505.783, 408.347 507.350, 400.062 509.487, 390.293 511.235, 382.300 513.656, 372.597 515.565, 364.943 518.275, 355.317 520.322, 348.046 522.153, 342.236 524.273, 335.506 525.485, 331.659 528.794, 322.223 531.034, 315.832 534.654, 306.510 534.806, 306.118 536.084, 302.827 536.945, 300.609 538.759, 296.380 539.585, 294.451 543.019, 286.441 543.196, 286.030 544.392, 283.497 545.146, 281.900 547.783, 276.319 549.191, 273.338 549.760, 272.133 551.915, 267.989 551.923, 267.974 552.098, 267.637 556.613, 258.951 557.493, 257.415 559.703, 253.552 563.729, 246.514 569.060, 238.053 571.082, 234.845 571.567, 234.147 577.275, 225.936 578.644, 223.966 584.741, 216.040 586.390, 213.896 592.886, 206.292 594.293, 204.645 601.196, 197.410 602.327, 196.225 609.643, 189.408 610.466, 188.641 618.197, 182.298 618.686, 181.896 626.826, 176.087 626.963, 175.989 635.273, 170.916 643.593, 166.671 651.902, 163.244 660.179, 160.625 668.406, 158.800 675.035, 157.949 676.562, 157.753 " fill="none" stroke="rgb(0, 0, 0)" stroke-linecap="butt" stroke-linejoin="round" stroke-opacity="1.0" stroke-width="3.0" />
            <path d=" M 674.329, 157.974 666.161, 159.022 657.924, 160.847 649.636, 163.466 641.317, 166.890 632.987, 171.133 624.667, 176.202 616.523, 182.004 616.381, 182.105 608.645, 188.441 608.152, 188.845 600.829, 195.655 600.004, 196.422 593.094, 203.651 591.961, 204.835 585.459, 212.432 584.051, 214.076 577.947, 221.997 576.298, 224.138 570.582, 232.343 568.728, 235.005 563.390, 243.461 561.369, 246.662 557.184, 253.964 554.247, 259.087 549.628, 267.956 549.556, 268.094 549.518, 268.166 549.468, 268.263 547.388, 272.255 547.112, 272.840 546.731, 273.645 543.697, 280.055 542.328, 282.948 540.819, 286.137 539.568, 289.050 538.459, 291.633 538.412, 291.742 538.282, 292.045 538.256, 292.105 537.776, 293.221 537.425, 294.040 535.250, 299.104 534.564, 300.700 533.943, 302.296 530.318, 311.616 528.649, 315.907 525.335, 325.342 523.097, 331.717 521.089, 338.078 518.079, 347.615 517.931, 348.085 515.217, 357.709 513.172, 364.963 510.748, 374.665 508.840, 382.300 507.774, 387.165 505.634, 396.933 504.953, 400.042 503.093, 409.867 501.528, 418.131 499.943, 428.005 498.578, 436.509 497.266, 446.423 496.116, 455.115 495.075, 465.060 494.151, 473.885 493.380, 483.855 493.328, 484.532 492.691, 492.756 492.618, 494.220 492.116, 504.207 491.952, 507.476 491.856, 509.377 491.741, 511.664 491.623, 516.760 491.576, 518.818 491.521, 521.178 491.304, 530.545 491.344, 540.545 491.380, 549.335 491.694, 559.330 491.965, 567.970 492.557, 577.952 493.057, 586.388 493.930, 596.350 494.647, 604.530 495.807, 614.463 496.727, 622.337 498.180, 632.231 499.285, 639.753 500.184, 644.805 501.938, 654.650 502.307, 656.725 504.369, 666.511 505.779, 673.204 508.158, 682.917 509.683, 689.142 511.181, 694.470 513.888, 704.096 514.001, 704.496 516.586, 712.577 518.713, 719.228 522.111, 728.632 523.797, 733.300 527.561, 742.565 529.233, 746.681 533.376, 755.783 534.002, 757.158 534.997, 759.344 537.560, 764.378 541.004, 771.143 541.066, 771.264 542.528, 773.833 546.489, 780.793 547.415, 782.421 547.993, 783.328 550.021, 786.514 554.022, 792.798 559.830, 800.938 560.861, 802.382 567.119, 810.182 567.908, 811.165 574.625, 818.573 575.140, 819.141 582.321, 826.100 582.533, 826.305 590.063, 832.660 597.708, 838.208 605.446, 842.954 613.255, 846.906 621.115, 850.075 629.006, 852.474 " fill="none" stroke="rgb(0, 0, 0)" stroke-linecap="butt" stroke-linejoin="round" stroke-opacity="1.0" stroke-width="3.0" />
            <path d=" M 770.229, 566.111 770.154, 566.568 768.280, 576.390 767.866, 578.562 765.744, 588.334 765.294, 590.404 762.918, 600.118 762.440, 602.073 759.807, 611.720 759.308, 613.546 756.412, 623.117 755.902, 624.799 752.735, 634.285 752.226, 635.811 748.781, 645.199 748.283, 646.557 744.553, 655.836 744.079, 657.015 740.054, 666.170 739.618, 667.161 735.288, 676.175 734.906, 676.969 730.260, 685.824 729.950, 686.416 724.977, 695.092 724.755, 695.478 719.442, 703.950 719.330, 704.129 713.681, 712.343 707.817, 720.096 701.748, 727.362 695.484, 734.114 689.034, 740.326 682.412, 745.975 675.629, 751.033 668.699, 755.475 661.637, 759.276 654.458, 762.413 647.178, 764.862 639.816, 766.599 632.390, 767.603 624.920, 767.855 624.083, 767.797 " fill="none" stroke="rgb(0, 0, 0)" stroke-linecap="butt" stroke-linejoin="round" stroke-opacity="1.0" stroke-width="3.0" />
            <path d=" M 784.969, 570.528 774.976, 570.153 774.164, 570.122 770.229, 566.111 763.226, 558.973 756.223, 551.834 752.679, 548.221 752.055, 547.584 751.430, 546.946 750.804, 546.307 750.178, 545.667 749.466, 544.789 748.825, 543.689 748.270, 542.389 748.133, 541.947 747.813, 540.913 747.463, 539.290 747.364, 538.562 747.337, 538.362 747.226, 537.550 747.108, 535.728 747.109, 533.857 747.231, 531.975 747.334, 531.178 747.471, 530.118 747.511, 529.919 747.825, 528.322 748.285, 526.622 748.843, 525.049 749.487, 523.636 750.204, 522.408 750.982, 521.388 751.805, 520.596 752.062, 520.430 752.195, 520.345 752.657, 520.047 753.520, 519.749 754.245, 519.608 754.970, 519.466 755.694, 519.324 756.417, 519.183 756.780, 519.111 766.595, 517.194 776.409, 515.278 781.270, 514.328 " fill="none" stroke="rgb(0, 0, 0)" stroke-linecap="butt" stroke-linejoin="round" stroke-opacity="1.0" stroke-width="3.0" />
            <path d=" M 678.632, 224.118 676.053, 224.346 670.250, 224.859 661.815, 226.408 655.494, 228.190 653.352, 228.794 644.891, 232.043 636.462, 236.170 628.096, 241.180 619.949, 246.978 619.824, 247.067 612.120, 253.444 611.672, 253.815 604.414, 260.694 603.667, 261.401 596.860, 268.727 595.842, 269.823 589.494, 277.549 588.237, 279.079 582.346, 287.160 580.889, 289.159 575.447, 297.549 573.832, 300.039 568.826, 308.696 567.097, 311.685 562.510, 320.570 560.712, 324.053 556.583, 333.003 555.293, 335.799 554.737, 337.004 554.697, 337.091 553.702, 339.510 553.653, 339.628 552.222, 343.107 551.283, 345.389 549.364, 350.054 549.076, 350.754 547.971, 353.789 546.208, 358.629 544.821, 362.439 543.886, 365.006 540.843, 374.531 539.344, 379.223 539.160, 379.800 538.017, 383.924 535.347, 393.561 534.925, 395.083 533.557, 400.860 531.252, 410.591 531.204, 410.793 529.254, 420.601 528.009, 426.864 526.514, 436.046 525.346, 443.224 524.073, 453.143 523.207, 459.893 522.249, 469.847 521.587, 476.717 520.941, 486.696 520.493, 493.624 520.341, 498.200 520.234, 501.404 520.188, 502.773 519.930, 510.542 519.918, 517.243 519.906, 523.458 519.899, 527.397 520.042, 532.180 520.060, 532.771 520.358, 542.766 520.398, 544.118 521.018, 554.099 521.423, 560.634 522.369, 570.589 522.966, 576.876 524.245, 586.794 524.509, 588.841 525.017, 592.778 526.637, 602.646 526.714, 603.113 527.562, 608.276 529.533, 618.079 530.584, 623.310 532.918, 633.033 533.800, 636.707 534.068, 637.822 536.777, 647.448 537.991, 651.761 541.090, 661.269 542.332, 665.080 542.905, 666.611 543.120, 667.185 543.982, 669.488 544.444, 670.723 546.545, 676.337 547.068, 677.733 550.643, 686.099 551.709, 688.595 552.173, 689.680 552.205, 689.747 553.221, 691.836 556.274, 698.118 556.764, 699.126 557.621, 700.889 557.808, 701.229 559.806, 704.848 563.384, 711.331 568.697, 719.802 569.435, 720.979 575.249, 729.115 575.747, 729.813 582.075, 737.556 582.290, 737.819 589.035, 744.985 595.956, 751.303 603.025, 756.771 610.213, 761.391 617.495, 765.166 624.083, 767.797 624.845, 768.101 632.238, 770.209 639.651, 771.504 647.059, 771.998 654.442, 771.710 661.778, 770.660 669.049, 768.868 676.236, 766.356 683.320, 763.146 690.287, 759.266 697.121, 754.738 703.808, 749.587 710.334, 743.840 716.688, 737.524 722.857, 730.664 728.833, 723.287 734.605, 715.419 740.164, 707.086 745.363, 698.544 745.503, 698.315 750.365, 689.576 750.614, 689.130 755.153, 680.219 755.490, 679.558 759.718, 670.496 760.125, 669.623 764.054, 660.427 764.514, 659.351 768.154, 650.037 768.651, 648.765 772.013, 639.347 772.533, 637.890 775.624, 628.380 776.153, 626.750 778.981, 617.158 779.509, 615.368 782.082, 605.704 782.598, 603.767 784.921, 594.040 785.415, 591.970 787.494, 582.188 787.959, 579.999 789.797, 570.169 790.225, 567.877 791.827, 558.006 792.213, 555.626 793.581, 545.720 793.920, 543.267 " fill="none" stroke="rgb(0, 0, 0)" stroke-linecap="butt" stroke-linejoin="round" stroke-opacity="1.0" stroke-width="3.0" />
            <path d=" M 781.270, 514.328 791.247, 515.015 791.988, 515.066 " fill="none" stroke="rgb(0, 0, 0)" stroke-linecap="butt" stroke-linejoin="round" stroke-opacity="1.0" stroke-width="3.0" />
            <path d=" M 825.269, 529.852 825.711, 524.646 826.138, 519.625 826.726, 509.643 826.885, 506.947 827.076, 501.111 827.301, 494.247 827.367, 484.247 827.385, 481.551 827.190, 471.552 827.138, 468.880 826.684, 458.890 826.564, 456.258 825.853, 446.283 825.669, 443.703 824.697, 433.751 824.452, 431.240 823.491, 423.581 822.904, 418.894 821.379, 409.011 821.021, 406.693 819.209, 396.859 818.805, 394.662 816.699, 384.886 816.255, 382.826 813.853, 373.119 813.379, 371.208 810.677, 361.580 810.185, 359.824 807.178, 350.287 806.676, 348.696 803.348, 339.266 802.851, 337.857 799.186, 328.553 798.708, 327.340 794.690, 318.183 794.248, 317.177 789.865, 308.188 789.478, 307.394 784.719, 298.599 784.404, 298.016 779.263, 289.439 779.037, 289.061 773.508, 280.728 773.388, 280.547 767.461, 272.506 761.261, 264.981 754.796, 258.006 748.076, 251.614 741.115, 245.827 733.927, 240.665 726.529, 236.140 722.115, 233.894 718.936, 232.276 711.161, 229.116 703.223, 226.695 695.140, 225.043 686.936, 224.180 681.364, 224.138 678.632, 224.118 " fill="none" stroke="rgb(0, 0, 0)" stroke-linecap="butt" stroke-linejoin="round" stroke-opacity="1.0" stroke-width="3.0" />
            <path d=" M 655.494, 228.190 655.514, 228.195 661.968, 230.697 668.259, 233.924 674.376, 237.841 680.307, 242.404 686.043, 247.587 691.569, 253.376 696.877, 259.753 701.955, 266.694 706.797, 274.165 711.397, 282.131 715.755, 290.552 719.868, 299.394 723.728, 308.640 727.229, 318.007 727.328, 318.271 730.493, 327.757 730.663, 328.265 733.510, 337.851 733.730, 338.594 736.276, 348.265 736.529, 349.228 738.792, 358.969 739.063, 360.134 741.061, 369.933 741.335, 371.282 743.075, 381.129 743.343, 382.650 744.828, 392.539 745.081, 394.222 746.317, 404.145 746.545, 405.977 747.538, 415.928 747.734, 417.892 748.493, 427.863 748.651, 429.942 749.183, 439.928 749.299, 442.101 749.613, 452.096 749.684, 454.345 749.786, 464.345 749.810, 466.652 749.699, 476.652 749.672, 479.004 749.346, 488.999 749.269, 491.380 748.728, 501.365 748.598, 503.759 747.843, 513.730 747.662, 516.118 747.059, 522.331 746.797, 523.486 746.483, 524.593 746.122, 525.639 745.715, 526.613 745.268, 527.505 744.785, 528.305 744.444, 528.770 " fill="none" stroke="rgb(0, 0, 0)" stroke-linecap="butt" stroke-linejoin="round" stroke-opacity="1.0" stroke-width="3.0" />
            <path d=" M 719.083, 530.610 719.079, 530.957 719.030, 531.506 728.457, 534.840 731.675, 535.977 741.103, 539.311 745.017, 540.696 748.133, 541.947 " fill="none" stroke="rgb(0, 0, 0)" stroke-linecap="butt" stroke-linejoin="round" stroke-opacity="1.0" stroke-width="3.0" />
            <path d=" M 803.181, 536.939 812.513, 540.534 812.961, 540.707 821.984, 544.182 823.673, 544.833 823.861, 544.897 829.596, 546.850 " fill="none" stroke="rgb(0, 0, 0)" stroke-linecap="butt" stroke-linejoin="round" stroke-opacity="1.0" stroke-width="3.0" />
            <path d=" M 799.143, 545.213 799.836, 545.250 809.822, 545.787 812.037, 545.906 813.968, 546.010 821.727, 546.427 823.674, 546.532 829.596, 546.850 830.696, 536.911 831.051, 533.697 831.894, 523.733 832.169, 520.477 832.757, 510.494 832.950, 507.212 833.281, 497.218 833.391, 493.926 833.466, 483.926 833.490, 480.641 833.308, 470.643 833.249, 467.381 832.807, 457.391 832.665, 454.169 831.961, 444.194 831.737, 441.029 830.768, 431.076 830.466, 427.985 829.227, 418.062 828.853, 415.060 827.339, 405.175 826.896, 402.278 825.102, 392.441 824.596, 389.666 822.516, 379.885 821.955, 377.248 819.581, 367.534 818.974, 365.049 816.298, 355.413 815.654, 353.095 813.263, 345.458 811.997, 341.413 808.689, 331.976 808.006, 330.030 805.513, 323.650 803.685, 318.972 799.702, 309.800 799.037, 308.269 794.697, 299.260 794.066, 297.949 789.358, 289.127 788.777, 288.039 783.687, 279.432 783.178, 278.570 777.691, 270.209 777.272, 269.571 775.821, 267.583 771.070, 261.072 769.037, 258.577 764.578, 253.103 757.808, 245.693 750.768, 238.875 743.472, 232.678 735.932, 227.130 728.163, 222.263 720.180, 218.107 712.001, 214.687 703.644, 212.032 695.130, 210.169 686.479, 209.122 677.715, 208.913 667.721, 209.265 662.485, 209.450 " fill="none" stroke="rgb(0, 0, 0)" stroke-linecap="butt" stroke-linejoin="round" stroke-opacity="1.0" stroke-width="3.0" />
            <path d=" M 677.715, 208.913 668.862, 209.563 668.385, 209.645 660.114, 211.065 659.948, 211.093 650.998, 213.517 642.043, 216.847 633.113, 221.095 624.473, 226.131 624.239, 226.267 616.023, 231.969 615.454, 232.365 607.685, 238.661 606.791, 239.385 599.481, 246.209 598.286, 247.325 591.438, 254.612 589.973, 256.172 583.584, 263.865 581.887, 265.909 575.952, 273.957 574.064, 276.517 568.573, 284.875 566.540, 287.971 561.483, 296.598 559.349, 300.238 554.713, 309.099 553.602, 311.223 552.525, 313.282 550.474, 317.683 549.925, 318.860 549.264, 320.276 549.036, 320.766 546.102, 327.062 542.571, 335.592 541.184, 338.943 540.112, 341.532 536.676, 350.923 534.585, 356.639 531.528, 366.160 529.548, 372.327 529.094, 373.954 526.409, 383.586 525.029, 388.537 522.707, 398.264 521.051, 405.203 519.087, 415.008 517.634, 422.258 516.022, 432.127 514.797, 439.631 " fill="none" stroke="rgb(0, 0, 0)" stroke-linecap="butt" stroke-linejoin="round" stroke-opacity="1.0" stroke-width="3.0" />
            <path d=" M 812.396, 531.567 812.570, 531.307 812.999, 530.552 813.401, 529.719 813.712, 528.968 813.775, 528.816 814.115, 527.849 814.420, 526.826 823.402, 529.331 825.269, 529.852 825.037, 530.433 824.638, 531.270 824.212, 532.029 823.764, 532.706 823.296, 533.294 823.021, 533.575 822.813, 533.788 822.317, 534.185 821.814, 534.480 821.306, 534.670 820.798, 534.752 820.295, 534.724 819.800, 534.586 815.302, 532.752 813.915, 532.186 813.433, 531.990 812.396, 531.567 807.699, 529.651 807.356, 528.150 806.915, 526.785 806.383, 525.579 805.770, 524.552 805.084, 523.721 804.337, 523.102 803.542, 522.705 802.712, 522.536 797.982, 522.259 797.859, 522.252 791.411, 521.874 790.841, 521.841 789.983, 521.904 789.154, 522.200 788.371, 522.726 787.612, 523.470 786.889, 524.421 786.856, 524.477 786.216, 525.563 785.604, 526.877 785.064, 528.341 784.605, 529.929 784.234, 531.615 783.959, 533.370 787.719, 534.800 788.400, 535.059 790.124, 535.169 791.390, 535.251 798.612, 535.714 799.070, 535.744 800.278, 535.821 800.369, 535.265 800.497, 534.740 800.659, 534.260 800.850, 533.838 801.065, 533.485 801.298, 533.212 801.543, 533.025 801.792, 532.930 802.041, 532.930 " fill="none" stroke="rgb(0, 0, 0)" stroke-linecap="butt" stroke-linejoin="round" stroke-opacity="1.0" stroke-width="3.0" />
            <path d=" M 790.124, 535.169 789.227, 543.021 787.855, 552.926 787.519, 555.349 785.862, 565.211 784.969, 570.528 778.015, 563.341 775.719, 560.967 771.754, 556.869 764.801, 549.682 764.177, 549.036 763.559, 548.397 762.941, 547.756 762.321, 547.115 761.701, 546.472 760.996, 545.591 760.362, 544.486 759.813, 543.180 759.789, 543.099 759.362, 541.698 759.016, 540.067 758.784, 538.319 758.702, 537.025 758.668, 536.488 758.671, 534.608 758.794, 532.717 759.034, 530.851 759.156, 530.229 759.386, 529.045 759.844, 527.336 760.398, 525.756 761.038, 524.335 761.751, 523.100 762.523, 522.075 763.339, 521.279 764.184, 520.726 765.040, 520.426 765.758, 520.283 766.478, 520.140 767.195, 519.997 767.912, 519.854 768.272, 519.782 778.080, 517.832 781.023, 517.246 790.831, 515.296 791.988, 515.066 791.411, 521.874 " fill="none" stroke="rgb(0, 0, 0)" stroke-linecap="butt" stroke-linejoin="round" stroke-opacity="1.0" stroke-width="3.0" />
            <path d=" M 513.516, 421.726 514.230, 431.701 514.797, 439.631 513.519, 449.549 512.514, 457.346 511.553, 467.300 510.787, 475.230 510.142, 485.209 509.625, 493.202 509.337, 501.933 509.031, 511.186 509.019, 521.186 509.009, 529.102 509.316, 539.097 509.555, 546.871 510.186, 556.852 510.664, 564.420 511.624, 574.373 512.328, 581.671 513.624, 591.587 514.535, 598.554 516.176, 608.419 517.271, 615.001 519.265, 624.801 520.517, 630.948 522.689, 639.886 524.255, 646.331 526.996, 655.948 528.463, 661.096 531.597, 670.592 533.116, 675.192 536.660, 684.543 538.188, 688.572 540.946, 694.943 543.652, 701.193 544.471, 702.855 548.372, 710.771 549.481, 713.020 549.941, 713.843 554.012, 721.112 555.545, 723.850 555.642, 724.024 557.568, 727.047 562.108, 734.176 567.985, 742.267 568.848, 743.455 575.243, 751.143 575.830, 751.849 582.755, 759.064 583.024, 759.345 590.401, 765.935 597.929, 771.618 605.580, 776.398 613.325, 780.279 621.136, 783.268 628.988, 785.380 636.854, 786.630 644.711, 787.034 652.534, 786.612 660.303, 785.386 667.996, 783.380 675.594, 780.617 683.079, 777.122 690.434, 772.925 697.643, 768.051 704.691, 762.527 711.565, 756.382 718.253, 749.646 724.742, 742.346 731.023, 734.509 736.900, 726.418 737.085, 726.164 742.601, 717.824 742.920, 717.341 748.088, 708.780 748.520, 708.065 753.354, 699.312 753.877, 698.364 758.391, 689.441 758.986, 688.266 763.191, 679.193 763.839, 677.796 767.747, 668.592 768.431, 666.980 772.053, 657.659 772.758, 655.845 776.103, 646.421 776.815, 644.414 779.892, 634.899 780.599, 632.713 783.414, 623.117 784.104, 620.765 786.665, 611.099 787.328, 608.595 789.642, 598.866 790.269, 596.226 792.339, 586.443 792.923, 583.681 794.754, 573.850 795.288, 570.982 796.884, 561.110 797.362, 558.152 798.726, 548.245 799.143, 545.213 793.920, 543.267 799.049, 543.537 809.036, 544.062 812.561, 544.248 812.235, 544.124 802.889, 540.569 799.350, 539.223 798.796, 539.013 791.333, 536.174 791.384, 535.608 791.390, 535.251 " fill="none" stroke="rgb(0, 0, 0)" stroke-linecap="butt" stroke-linejoin="round" stroke-opacity="1.0" stroke-width="3.0" />
            <path d=" M 764.650, 537.417 764.337, 537.303 764.050, 537.045 763.801, 536.654 763.600, 536.146 763.457, 535.544 763.379, 534.876 763.368, 534.170 763.425, 533.457 763.548, 532.769 763.730, 532.135 763.965, 531.584 764.242, 531.139 764.548, 530.820 764.871, 530.641 765.195, 530.609 " fill="none" stroke="rgb(0, 0, 0)" stroke-linecap="butt" stroke-linejoin="round" stroke-opacity="1.0" stroke-width="3.0" />
            <path d=" M 765.195, 530.609 765.506, 530.728 765.792, 530.988 766.041, 531.381 766.240, 531.888 766.382, 532.487 766.460, 533.153 766.471, 533.857 766.414, 534.567 766.292, 535.253 766.110, 535.885 765.876, 536.436 765.601, 536.881 765.296, 537.202 764.974, 537.383 764.650, 537.417 " fill="none" stroke="rgb(0, 0, 0)" stroke-linecap="butt" stroke-linejoin="round" stroke-opacity="1.0" stroke-width="3.0" />
            <path d=" M 505.129, 456.760 504.166, 466.714 503.342, 475.222 502.695, 485.202 502.140, 493.777 501.810, 503.772 501.772, 504.920 501.528, 512.341 501.518, 522.341 501.509, 530.832 501.820, 540.827 502.080, 549.169 502.716, 559.148 503.234, 567.271 504.202, 577.224 504.964, 585.060 506.270, 594.975 507.257, 602.462 508.910, 612.325 510.097, 619.406 512.107, 629.202 513.466, 635.823 515.846, 645.536 517.344, 651.651 520.106, 661.262 521.079, 664.648 521.706, 666.831 524.865, 676.319 526.527, 681.312 530.100, 690.652 531.780, 695.044 535.786, 704.207 537.437, 707.985 539.354, 711.836 542.942, 719.045 543.467, 720.099 546.774, 725.942 548.355, 728.737 549.838, 731.357 552.437, 735.390 553.992, 737.805 556.014, 740.944 556.520, 741.730 562.444, 749.786 563.482, 751.198 569.927, 758.844 570.690, 759.749 577.666, 766.914 578.112, 767.372 585.622, 773.975 585.718, 774.060 593.477, 779.812 601.358, 784.635 609.332, 788.533 617.371, 791.516 625.447, 793.599 633.535, 794.800 641.609, 795.135 649.646, 794.625 657.625, 793.296 665.522, 791.171 673.321, 788.274 681.000, 784.634 688.545, 780.278 695.938, 775.235 703.166, 769.531 710.213, 763.197 717.069, 756.262 723.721, 748.755 729.965, 740.944 730.158, 740.703 736.029, 732.608 736.371, 732.137 741.883, 723.793 742.352, 723.085 747.518, 714.523 748.091, 713.573 752.925, 704.819 753.581, 703.631 758.097, 694.708 758.817, 693.285 763.025, 684.213 763.791, 682.562 767.703, 673.359 768.499, 671.487 772.124, 662.168 772.934, 660.087 776.283, 650.665 777.093, 648.388 780.174, 638.875 780.971, 636.414 783.790, 626.820 784.564, 624.189 787.129, 614.523 787.869, 611.737 790.186, 602.009 790.883, 599.083 792.956, 589.300 793.602, 586.249 795.435, 576.418 796.025, 573.258 797.622, 563.387 798.148, 560.134 799.511, 550.228 799.969, 546.899 799.836, 545.250 " fill="none" stroke="rgb(0, 0, 0)" stroke-linecap="butt" stroke-linejoin="round" stroke-opacity="1.0" stroke-width="3.0" />
            <path d=" M 662.485, 209.450 656.766, 209.872 654.430, 210.045 646.301, 211.519 638.123, 213.887 629.921, 217.163 621.723, 221.358 613.559, 226.481 605.548, 232.466 605.459, 232.533 597.921, 239.104 597.453, 239.512 590.393, 246.594 589.574, 247.415 582.986, 254.938 581.855, 256.230 575.728, 264.134 574.328, 265.941 568.650, 274.173 567.026, 276.528 561.784, 285.043 559.985, 287.965 555.161, 296.725 553.236, 300.221 552.247, 302.228 549.023, 308.770 547.589, 311.680 547.409, 312.045 546.812, 313.257 546.689, 313.537 542.658, 322.688 540.954, 326.557 540.745, 327.033 539.610, 329.923 535.957, 339.231 535.066, 341.501 531.776, 350.945 529.802, 356.610 527.294, 364.776 524.982, 372.301 522.390, 381.959 520.631, 388.515 518.376, 398.258 516.772, 405.187 514.840, 414.999 513.516, 421.726 510.132, 431.136 507.493, 438.472 " fill="none" stroke="rgb(0, 0, 0)" stroke-linecap="butt" stroke-linejoin="round" stroke-opacity="1.0" stroke-width="3.0" />
            <path d=" M 507.493, 438.472 506.211, 448.389 505.129, 456.760 " fill="none" stroke="rgb(0, 0, 0)" stroke-linecap="butt" stroke-linejoin="round" stroke-opacity="1.0" stroke-width="3.0" />
            <path d=" M 813.263, 345.458 812.149, 340.696 809.629, 331.019 809.326, 329.854 806.559, 320.244 806.267, 319.228 803.246, 309.695 802.973, 308.834 799.689, 299.389 799.446, 298.689 795.890, 289.343 795.688, 288.811 791.848, 279.578 791.698, 279.219 787.563, 270.114 787.480, 269.932 783.033, 260.972 778.360, 252.362 773.464, 244.121 768.350, 236.266 763.021, 228.818 757.483, 221.793 751.741, 215.215 745.800, 209.105 739.665, 203.487 733.344, 198.384 726.844, 193.823 720.173, 189.822 713.342, 186.397 706.360, 183.568 699.239, 181.353 691.989, 179.772 684.624, 178.845 677.158, 178.593 669.604, 179.037 668.854, 179.151 661.979, 180.194 654.300, 182.075 646.583, 184.688 638.846, 188.043 631.107, 192.146 623.388, 197.005 615.708, 202.627 608.091, 209.016 600.843, 215.906 600.559, 216.176 600.202, 216.557 593.365, 223.855 593.135, 224.101 591.374, 226.196 585.841, 232.781 579.801, 240.750 578.700, 242.202 573.042, 250.447 571.735, 252.351 570.026, 255.093 564.968, 263.210 560.040, 271.911 558.425, 274.762 553.846, 283.651 552.129, 286.983 550.375, 290.731 547.102, 297.724 546.106, 299.850 545.719, 300.762 544.223, 304.283 543.484, 306.022 540.379, 313.332 539.062, 316.755 537.754, 320.151 534.966, 327.392 531.681, 336.836 529.888, 341.990 526.902, 351.534 525.460, 356.143 525.165, 357.087 522.472, 366.718 520.816, 372.642 518.411, 382.349 516.861, 388.608 514.737, 398.380 513.312, 404.936 511.466, 414.764 510.186, 421.575 508.612, 431.450 507.493, 438.472 506.191, 448.387 505.247, 455.573 505.129, 456.760 504.092, 466.706 503.454, 472.823 502.687, 482.794 502.121, 490.165 501.621, 500.152 501.349, 505.595 501.252, 507.541 501.021, 517.538 500.851, 524.894 500.889, 534.894 500.917, 542.169 501.227, 552.164 501.448, 559.308 502.031, 569.291 502.438, 576.256 503.299, 586.219 503.882, 592.961 505.029, 602.895 505.777, 609.368 507.215, 619.264 508.111, 625.426 509.847, 635.275 510.872, 641.090 512.911, 650.880 514.043, 656.316 516.393, 666.035 517.609, 671.061 519.902, 679.329 521.555, 685.287 524.561, 694.824 525.863, 698.957 529.216, 708.378 530.518, 712.036 534.232, 721.320 535.501, 724.491 537.523, 729.000 540.794, 736.296 541.034, 736.776 544.662, 744.017 546.175, 747.038 546.372, 747.430 550.156, 754.198 551.667, 756.900 552.213, 757.876 553.664, 760.202 558.294, 767.620 564.017, 775.821 564.595, 776.649 570.758, 784.524 571.093, 784.952 577.769, 792.521 584.602, 799.347 591.573, 805.427 598.659, 810.762 605.839, 815.360 613.093, 819.230 620.401, 822.380 627.746, 824.820 633.785, 826.247 635.110, 826.560 642.477, 827.610 649.831, 827.981 657.156, 827.685 664.438, 826.741 671.663, 825.169 678.817, 822.991 685.887, 820.224 692.863, 816.888 699.734, 813.000 706.490, 808.577 713.121, 803.635 719.617, 798.192 725.972, 792.272 732.177, 785.896 738.226, 779.087 744.112, 771.863 749.831, 764.243 755.375, 756.245 760.739, 747.884 765.851, 739.290 765.918, 739.177 770.753, 730.423 770.908, 730.142 775.476, 721.246 775.705, 720.799 780.016, 711.776 780.307, 711.168 784.370, 702.031 784.710, 701.266 788.532, 692.025 788.911, 691.109 792.500, 681.775 792.909, 680.713 796.269, 671.295 796.698, 670.093 799.835, 660.598 800.276, 659.263 803.195, 649.699 803.641, 648.239 806.349, 638.612 806.792, 637.037 809.294, 627.355 809.728, 625.674 812.027, 615.942 812.447, 614.163 814.545, 604.386 814.946, 602.519 816.847, 592.701 817.224, 590.755 818.931, 580.901 819.280, 578.885 820.794, 569.001 821.113, 566.925 822.436, 557.013 822.720, 554.887 823.674, 546.532 " fill="none" stroke="rgb(0, 0, 0)" stroke-linecap="butt" stroke-linejoin="round" stroke-opacity="1.0" stroke-width="3.0" />
            <path d=" M 667.357, 179.239 659.722, 180.396 652.033, 182.277 644.306, 184.889 636.559, 188.242 628.812, 192.342 621.084, 197.198 613.395, 202.815 605.769, 209.199 598.515, 216.082 598.229, 216.352 595.219, 219.560 590.798, 224.270 585.022, 231.130 583.497, 232.941 577.449, 240.905 576.349, 242.354 570.683, 250.594 569.377, 252.492 564.081, 260.975 562.605, 263.341 562.088, 264.251 562.016, 264.378 561.965, 264.467 561.905, 264.574 561.669, 264.990 561.666, 264.994 559.845, 268.203 556.056, 274.880 551.469, 283.766 549.755, 287.088 549.736, 287.128 546.453, 294.129 545.055, 297.110 543.727, 299.942 543.026, 301.589 542.268, 303.372 538.352, 312.573 538.251, 312.810 537.996, 313.409 536.939, 316.151 533.340, 325.481 532.579, 327.453 529.289, 336.896 527.498, 342.035 524.507, 351.578 524.463, 351.720 522.772, 357.116 520.076, 366.745 518.421, 372.653 516.013, 382.359 514.464, 388.601 512.338, 398.372 510.915, 404.910 509.066, 414.738 507.788, 421.530 506.212, 431.405 505.095, 438.408 503.791, 448.322 502.849, 455.490 501.815, 465.436 501.057, 472.720 500.291, 482.690 499.725, 490.041 499.226, 500.029 498.858, 507.397 498.807, 509.646 498.577, 519.643 498.460, 524.731 498.500, 534.731 498.529, 541.986 498.841, 551.981 499.063, 559.106 499.649, 569.089 500.057, 576.036 500.921, 585.998 501.505, 592.722 502.656, 602.656 503.404, 609.111 504.848, 619.006 505.744, 625.152 507.485, 635.000 508.510, 640.799 510.555, 650.588 511.687, 656.009 514.044, 665.727 515.259, 670.739 517.939, 680.373 519.211, 684.951 519.368, 685.447 522.382, 694.983 523.527, 698.607 526.887, 708.026 528.189, 711.674 531.911, 720.955 533.180, 724.118 537.097, 732.834 538.480, 735.912 540.638, 740.209 544.067, 747.036 544.236, 747.339 545.785, 750.102 549.776, 757.225 549.916, 757.474 551.298, 759.684 553.305, 762.892 556.006, 767.210 561.737, 775.405 562.316, 776.232 568.487, 784.100 568.824, 784.529 575.509, 792.093 582.351, 798.916 589.331, 804.992 596.427, 810.326 603.617, 814.922 610.881, 818.791 618.200, 821.942 625.555, 824.383 632.929, 826.125 " fill="none" stroke="rgb(0, 0, 0)" stroke-linecap="butt" stroke-linejoin="round" stroke-opacity="1.0" stroke-width="3.0" />
            <path d=" M 669.604, 179.037 667.357, 179.239 " fill="none" stroke="rgb(0, 0, 0)" stroke-linecap="butt" stroke-linejoin="round" stroke-opacity="1.0" stroke-width="3.0" />
            <path d=" M 632.929, 826.125 635.110, 826.560 " fill="none" stroke="rgb(0, 0, 0)" stroke-linecap="butt" stroke-linejoin="round" stroke-opacity="1.0" stroke-width="3.0" />
            <path d=" M 489.591, 434.837 489.046, 438.943 487.729, 448.856 487.426, 451.135 486.989, 454.424 485.946, 464.370 484.916, 474.187 484.144, 484.157 483.378, 494.057 482.878, 504.044 482.714, 507.326 482.709, 507.426 482.382, 513.964 482.322, 516.598 482.322, 516.618 482.229, 520.713 482.158, 523.832 481.930, 533.841 481.977, 543.841 482.023, 553.617 482.346, 563.612 482.657, 573.225 483.260, 583.207 483.828, 592.599 484.715, 602.560 485.527, 611.674 486.704, 621.605 487.745, 630.388 489.218, 640.279 490.469, 648.680 492.246, 658.521 493.685, 666.495 495.773, 676.274 497.375, 683.779 499.784, 693.484 501.521, 700.482 504.262, 710.100 506.103, 716.560 509.187, 726.073 511.099, 731.970 513.366, 738.158 515.076, 742.826 516.486, 746.675 520.296, 755.921 522.078, 760.246 522.241, 760.642 526.435, 769.721 528.339, 773.842 530.391, 777.812 530.846, 778.691 531.270, 779.511 531.876, 780.683 534.430, 785.623 534.754, 786.250 537.848, 791.600 538.908, 793.431 539.363, 794.219 540.385, 795.986 541.461, 797.846 543.365, 800.786 543.956, 801.699 544.870, 803.109 546.924, 806.281 548.434, 808.613 554.312, 816.702 555.647, 818.538 561.980, 826.277 563.073, 827.614 569.869, 834.950 570.689, 835.835 577.950, 842.710 578.467, 843.199 586.191, 849.550 586.384, 849.708 594.415, 855.367 602.537, 860.183 610.727, 864.164 618.964, 867.325 627.228, 869.678 631.552, 870.628 639.798, 872.183 648.032, 872.963 656.236, 872.986 664.391, 872.272 672.484, 870.841 680.498, 868.716 688.420, 865.919 696.237, 862.472 703.936, 858.399 711.506, 853.723 718.938, 848.466 726.221, 842.653 733.347, 836.307 740.307, 829.450 747.094, 822.106 753.553, 814.472 753.701, 814.296 759.842, 806.404 760.123, 806.043 765.956, 797.921 766.352, 797.368 771.888, 789.040 772.385, 788.293 777.635, 779.782 778.217, 778.838 783.190, 770.162 783.842, 769.024 788.548, 760.201 789.258, 758.870 793.707, 749.914 794.461, 748.396 798.661, 739.321 799.448, 737.620 803.407, 728.437 804.216, 726.562 807.942, 717.282 808.762, 715.238 812.261, 705.870 813.084, 703.666 816.363, 694.219 817.181, 691.864 820.245, 682.345 821.049, 679.848 823.904, 670.264 824.688, 667.634 827.338, 657.991 828.095, 655.237 830.544, 645.542 831.269, 642.675 833.522, 632.932 834.209, 629.960 836.268, 620.175 836.913, 617.110 838.781, 607.286 839.380, 604.137 841.060, 594.280 841.609, 591.057 843.103, 581.170 843.599, 577.884 844.908, 567.970 845.349, 564.632 846.475, 554.696 846.858, 551.315 847.801, 541.359 848.124, 537.946 848.884, 527.975 849.146, 524.539 849.725, 514.556 849.924, 511.109 850.320, 501.117 850.457, 497.669 850.670, 487.671 850.743, 484.232 850.772, 474.232 850.782, 470.813 850.625, 460.815 850.572, 457.426 850.228, 447.432 850.113, 444.085 849.580, 434.099 849.404, 430.804 848.678, 420.831 848.443, 417.599 847.522, 407.641 847.230, 404.482 846.110, 394.545 845.763, 391.471 844.441, 381.559 844.043, 378.581 842.513, 368.699 842.069, 365.826 840.326, 355.979 839.839, 353.225 837.878, 343.419 837.353, 340.792 835.168, 331.034 834.611, 328.546 832.194, 318.843 831.612, 316.504 828.956, 306.863 828.356, 304.684 825.454, 295.114 824.844, 293.104 821.685, 283.616 821.076, 281.784 817.651, 272.389 817.051, 270.743 813.350, 261.454 812.771, 260.002 808.782, 250.833 808.238, 249.582 803.948, 240.549 803.452, 239.503 798.849, 230.625 798.415, 229.788 793.485, 221.087 793.129, 220.459 787.859, 211.960 787.598, 211.539 781.974, 203.270 781.825, 203.051 775.813, 195.021 769.566, 187.471 763.091, 180.427 756.392, 173.914 749.477, 167.956 742.353, 162.581 735.028, 157.813 727.511, 153.677 719.812, 150.199 711.943, 147.403 703.917, 145.315 695.745, 143.958 687.443, 143.354 679.027, 143.527 674.581, 143.994 666.045, 144.965 657.429, 146.750 648.753, 149.365 640.038, 152.828 631.304, 157.150 622.710, 162.263 622.576, 162.342 614.375, 168.065 613.876, 168.413 606.084, 174.681 605.230, 175.368 597.852, 182.119 596.662, 183.208 589.700, 190.386 588.201, 191.932 581.648, 199.487 579.872, 201.535 573.721, 209.420 571.703, 212.007 565.945, 220.183 563.724, 223.336 558.346, 231.767 555.962, 235.504 550.952, 244.159 548.445, 248.490 543.913, 257.113 541.203, 262.268 541.139, 262.402 540.222, 264.323 538.889, 267.115 538.170, 268.623 536.214, 272.720 534.866, 275.544 534.263, 276.807 532.095, 281.813 531.328, 283.585 531.110, 284.089 530.060, 286.515 527.653, 292.073 526.308, 295.504 525.036, 298.749 523.775, 301.967 521.399, 308.026 518.064, 317.454 516.413, 322.122 515.528, 324.624 512.499, 334.154 510.063, 341.819 510.005, 342.022 507.275, 351.642 505.028, 359.560 502.590, 369.258 500.445, 377.791 498.294, 387.557 496.333, 396.456 494.464, 406.279 492.710, 415.492 491.118, 425.365 490.641, 428.324 489.591, 434.837 " fill="none" stroke="rgb(0, 0, 0)" stroke-linecap="butt" stroke-linejoin="round" stroke-opacity="1.0" stroke-width="3.0" />
            <path d=" M 679.027, 143.527 670.513, 144.495 661.920, 146.279 653.266, 148.896 644.572, 152.362 635.860, 156.689 627.274, 161.815 627.152, 161.888 618.961, 167.625 618.472, 167.968 610.691, 174.250 609.844, 174.934 602.480, 181.698 601.295, 182.787 594.346, 189.978 592.851, 191.526 586.313, 199.093 584.538, 201.146 578.402, 209.043 576.385, 211.639 570.642, 219.825 568.421, 222.990 563.057, 231.430 560.672, 235.182 555.676, 243.845 553.168, 248.195 548.529, 257.054 547.959, 258.142 545.937, 262.001 545.244, 263.459 542.760, 268.681 542.748, 268.708 542.705, 268.798 541.729, 270.850 540.369, 273.709 539.008, 276.572 535.046, 285.753 534.877, 286.144 533.950, 288.295 533.094, 290.278 532.407, 291.870 531.816, 293.383 528.177, 302.698 526.161, 307.859 522.836, 317.290 520.297, 324.494 518.704, 329.523 515.684, 339.056 514.838, 341.727 512.116, 351.350 509.808, 359.508 508.666, 364.065 506.235, 373.765 505.901, 375.098 505.628, 376.185 505.228, 377.781 505.149, 378.144 504.699, 380.192 502.553, 389.959 501.119, 396.488 500.177, 401.448 498.312, 411.272 497.497, 415.569 495.909, 425.442 494.378, 434.958 494.024, 437.629 492.710, 447.543 491.775, 454.591 491.233, 459.763 490.191, 469.708 489.699, 474.399 488.928, 484.369 488.159, 494.314 487.709, 503.274 487.502, 507.404 487.407, 509.304 487.158, 514.268 487.103, 516.681 487.056, 518.739 486.937, 523.919 486.707, 533.916 486.701, 534.190 486.744, 544.190 486.745, 544.363 486.787, 554.011 487.106, 564.006 487.222, 567.640 487.414, 573.663 488.011, 583.646 488.576, 593.081 489.457, 603.042 490.266, 612.198 491.435, 622.129 492.474, 630.952 493.938, 640.844 495.186, 649.284 496.952, 659.127 498.389, 667.136 500.466, 676.918 502.066, 684.456 504.463, 694.165 504.934, 696.073 506.198, 701.194 508.926, 710.815 510.765, 717.303 513.835, 726.821 514.563, 729.078 515.746, 732.743 519.171, 742.139 521.117, 747.476 524.911, 756.728 526.855, 761.468 531.032, 770.554 531.832, 772.293 532.935, 774.691 535.373, 779.429 538.745, 785.980 539.332, 787.120 540.247, 788.710 544.214, 795.599 545.692, 798.165 546.020, 798.734 547.731, 801.388 552.973, 809.517 558.836, 817.618 560.166, 819.457 566.483, 827.208 567.572, 828.544 574.354, 835.894 575.166, 836.774 582.415, 843.663 582.923, 844.146 590.637, 850.510 590.818, 850.660 598.828, 856.322 606.928, 861.139 615.096, 865.121 623.311, 868.279 631.552, 870.628 " fill="none" stroke="rgb(0, 0, 0)" stroke-linecap="butt" stroke-linejoin="round" stroke-opacity="1.0" stroke-width="3.0" />
            <path d=" M 747.511, 529.919 744.444, 528.770 735.079, 525.262 734.857, 525.178 734.484, 523.720 734.010, 522.394 733.441, 521.221 732.789, 520.222 732.062, 519.413 731.273, 518.809 730.436, 518.419 729.564, 518.252 719.581, 517.667 718.405, 517.599 717.507, 517.656 716.637, 517.939 715.813, 518.445 715.016, 519.163 714.259, 520.082 713.555, 521.186 712.917, 522.457 712.356, 523.873 711.881, 525.411 711.500, 527.044 711.221, 528.744 715.923, 530.407 719.083, 530.610 727.087, 531.124 727.180, 530.585 727.311, 530.076 727.479, 529.612 727.679, 529.203 727.904, 528.863 728.149, 528.599 728.407, 528.419 728.671, 528.329 728.934, 528.329 " fill="none" stroke="rgb(0, 0, 0)" stroke-linecap="butt" stroke-linejoin="round" stroke-opacity="1.0" stroke-width="3.0" />
            <path d=" M 729.564, 518.252 728.671, 518.310 727.807, 518.596 726.989, 519.104 726.197, 519.826 725.446, 520.750 724.747, 521.860 724.112, 523.138 723.554, 524.561 723.081, 526.107 722.702, 527.748 722.672, 527.935 722.423, 529.457 " fill="none" stroke="rgb(0, 0, 0)" stroke-linecap="butt" stroke-linejoin="round" stroke-opacity="1.0" stroke-width="3.0" />
            <path d=" M 711.221, 528.744 718.933, 529.235 722.423, 529.457 727.087, 531.124 " fill="none" stroke="rgb(0, 0, 0)" stroke-linecap="butt" stroke-linejoin="round" stroke-opacity="1.0" stroke-width="3.0" />
            <path d=" M 728.934, 528.329 729.188, 528.421 729.427, 528.602 729.644, 528.866 729.833, 529.207 729.990, 529.614 730.109, 530.078 730.188, 530.585 730.225, 531.122 730.218, 531.673 730.168, 532.225 " fill="none" stroke="rgb(0, 0, 0)" stroke-linecap="butt" stroke-linejoin="round" stroke-opacity="1.0" stroke-width="3.0" />
            <path d=" M 719.030, 531.506 729.009, 532.150 730.168, 532.225 739.585, 535.591 747.337, 538.362 " fill="none" stroke="rgb(0, 0, 0)" stroke-linecap="butt" stroke-linejoin="round" stroke-opacity="1.0" stroke-width="3.0" />
            <path d=" M 802.712, 522.536 801.861, 522.600 801.039, 522.899 800.263, 523.427 799.510, 524.176 798.794, 525.132 798.127, 526.281 798.089, 526.362 797.519, 527.602 796.982, 529.073 796.526, 530.670 796.157, 532.364 796.127, 532.557 795.882, 534.128 " fill="none" stroke="rgb(0, 0, 0)" stroke-linecap="butt" stroke-linejoin="round" stroke-opacity="1.0" stroke-width="3.0" />
            <path d=" M 783.959, 533.370 791.256, 533.834 795.882, 534.128 798.581, 535.167 800.278, 535.821 " fill="none" stroke="rgb(0, 0, 0)" stroke-linecap="butt" stroke-linejoin="round" stroke-opacity="1.0" stroke-width="3.0" />
            <path d=" M 802.041, 532.930 802.280, 533.023 802.505, 533.208 802.708, 533.479 802.885, 533.829 803.030, 534.249 803.140, 534.726 803.211, 535.248 803.242, 535.802 803.232, 536.370 803.181, 536.939 798.664, 536.648 791.333, 536.174 " fill="none" stroke="rgb(0, 0, 0)" stroke-linecap="butt" stroke-linejoin="round" stroke-opacity="1.0" stroke-width="3.0" />
            <path d=" M 787.221, 500.962 787.422, 501.040 787.601, 501.159 787.752, 501.316 787.870, 501.503 787.950, 501.718 787.989, 501.952 787.981, 502.203 787.930, 502.437 787.839, 502.659 787.710, 502.863 787.550, 503.039 787.363, 503.183 787.155, 503.288 786.931, 503.350 786.697, 503.364 786.538, 503.343 786.386, 503.298 " fill="none" stroke="rgb(0, 0, 0)" stroke-linecap="butt" stroke-linejoin="round" stroke-opacity="1.0" stroke-width="3.0" />
            <path d=" M 787.221, 500.962 787.197, 500.953 787.182, 500.949 787.166, 500.945 787.129, 500.936 787.087, 500.929 787.043, 500.922 786.996, 500.916 786.948, 500.911 786.902, 500.908 786.862, 500.907 786.827, 500.907 786.799, 500.909 786.593, 500.936 786.553, 500.943 786.340, 501.019 786.305, 501.033 786.101, 501.155 785.925, 501.314 785.783, 501.507 785.768, 501.537 785.664, 501.760 785.607, 502.006 785.600, 502.243 785.641, 502.477 785.726, 502.698 785.854, 502.898 785.878, 502.926 786.038, 503.093 786.232, 503.225 786.386, 503.298 " fill="none" stroke="rgb(0, 0, 0)" stroke-linecap="butt" stroke-linejoin="round" stroke-opacity="1.0" stroke-width="3.0" />
            <path d=" M 786.990, 505.322 789.933, 505.442 790.201, 499.300 790.062, 499.241 787.264, 499.103 784.420, 498.964 783.647, 505.046 784.564, 505.223 " fill="none" stroke="rgb(0, 0, 0)" stroke-linecap="butt" stroke-linejoin="round" stroke-opacity="1.0" stroke-width="3.0" />
            <path d=" M 783.647, 505.046 789.290, 505.337 " fill="none" stroke="rgb(0, 0, 0)" stroke-linecap="butt" stroke-linejoin="round" stroke-opacity="1.0" stroke-width="3.0" />
            <path d=" M 789.933, 505.442 789.290, 505.337 790.062, 499.241 " fill="none" stroke="rgb(0, 0, 0)" stroke-linecap="butt" stroke-linejoin="round" stroke-opacity="1.0" stroke-width="3.0" />
            <path d=" M 731.675, 535.977 727.172, 535.184 717.355, 533.278 715.732, 532.963 705.945, 530.909 704.305, 530.565 694.545, 528.386 692.882, 528.014 683.146, 525.732 681.458, 525.336 671.742, 522.971 670.027, 522.554 660.325, 520.128 658.581, 519.691 648.890, 517.224 647.115, 516.772 637.430, 514.282 635.622, 513.817 625.938, 511.324 624.098, 510.850 614.410, 508.371 612.537, 507.892 602.840, 505.446 600.932, 504.965 591.223, 502.570 589.278, 502.090 579.553, 499.763 577.571, 499.289 577.136, 489.298 576.967, 485.435 576.402, 475.451 576.193, 471.749 575.494, 461.774 575.247, 458.251 574.409, 448.286 574.129, 444.963 573.144, 435.011 572.837, 431.908 571.700, 421.973 571.372, 419.109 570.073, 409.194 569.732, 406.591 568.261, 396.700 567.916, 394.379 566.263, 384.516 565.924, 382.499 564.075, 372.672 563.756, 370.979 561.696, 361.194 561.412, 359.847 559.121, 350.113 558.891, 349.133 558.221, 346.582 556.194, 338.867 555.293, 335.799 " fill="none" stroke="rgb(0, 0, 0)" stroke-linecap="butt" stroke-linejoin="round" stroke-opacity="1.0" stroke-width="3.0" />
            <path d=" M 536.309, 268.599 535.251, 268.477 533.218, 268.241 527.988, 267.636 526.560, 267.329 524.311, 266.845 519.449, 265.799 515.154, 264.459 512.816, 263.730 510.779, 263.095 " fill="none" stroke="rgb(0, 0, 0)" stroke-linecap="butt" stroke-linejoin="round" stroke-opacity="1.0" stroke-width="3.0" />
            <path d=" M 510.779, 263.095 506.036, 261.852 501.181, 261.566 496.223, 262.270 491.175, 263.997 488.557, 265.417 486.053, 266.777 484.436, 267.982 480.870, 270.640 478.166, 273.210 475.643, 275.608 470.390, 281.701 469.817, 282.488 465.129, 288.935 461.049, 295.455 459.881, 297.322 456.845, 302.878 454.668, 306.863 450.324, 315.870 449.510, 317.556 445.569, 326.747 444.433, 329.395 440.852, 338.732 439.460, 342.362 436.204, 351.817 434.615, 356.430 431.655, 365.982 429.924, 371.567 427.236, 381.199 425.412, 387.733 422.976, 397.431 421.105, 404.878 418.902, 414.632 417.026, 422.941 415.044, 432.742 413.200, 441.856 411.427, 451.697 409.651, 461.548 408.077, 471.423 406.502, 481.298 406.401, 481.933 405.017, 491.837 403.633, 501.741 403.469, 502.920 402.270, 512.848 401.071, 522.776 400.874, 524.413 399.856, 534.361 398.837, 544.309 398.633, 546.309 397.792, 556.273 396.951, 566.238 396.760, 568.500 396.094, 578.478 395.427, 588.456 395.266, 590.878 394.774, 600.866 394.282, 610.854 394.160, 613.328 393.844, 623.323 393.527, 633.318 393.450, 635.737 393.309, 645.736 393.169, 655.735 393.137, 657.991 393.175, 667.991 393.214, 677.991 393.221, 679.978 393.443, 689.976 393.666, 699.973 393.701, 701.589 394.113, 711.580 394.524, 721.572 394.572, 722.719 395.179, 732.700 395.787, 742.682 395.823, 743.268 396.637, 753.235 397.445, 763.141 397.468, 763.035 399.579, 753.260 401.690, 743.485 403.012, 737.361 403.058, 737.148 405.264, 727.394 407.470, 717.641 408.785, 711.826 411.088, 702.095 413.392, 692.364 414.625, 687.154 417.030, 677.448 419.434, 667.741 420.581, 663.113 423.089, 653.432 425.597, 643.752 426.652, 639.681 429.266, 630.029 431.881, 620.377 432.839, 616.839 435.563, 607.217 438.286, 597.595 439.143, 594.568 441.979, 584.978 444.815, 575.389 445.566, 572.848 448.517, 563.293 451.467, 553.738 452.108, 551.661 455.176, 542.143 458.244, 532.625 458.771, 530.988 461.958, 521.509 465.146, 512.031 465.556, 510.811 468.865, 501.374 472.174, 491.938 472.464, 491.112 475.897, 481.720 479.331, 472.328 479.497, 471.874 483.056, 462.529 486.655, 453.079 487.426, 451.135 " fill="none" stroke="rgb(0, 0, 0)" stroke-linecap="butt" stroke-linejoin="round" stroke-opacity="1.0" stroke-width="3.0" />
            <path d=" M 367.288, 754.707 363.381, 763.912 362.531, 765.914 " fill="none" stroke="rgb(0, 0, 0)" stroke-linecap="butt" stroke-linejoin="round" stroke-opacity="1.0" stroke-width="3.0" />
            <path d=" M 488.557, 265.417 478.561, 265.136 475.442, 265.048 " fill="none" stroke="rgb(0, 0, 0)" stroke-linecap="butt" stroke-linejoin="round" stroke-opacity="1.0" stroke-width="3.0" />
            <path d=" M 530.968, 469.464 530.959, 469.489 " fill="none" stroke="rgb(0, 0, 0)" stroke-linecap="butt" stroke-linejoin="round" stroke-opacity="1.0" stroke-width="3.0" />
            <path d=" M 538.170, 268.623 536.309, 268.599 535.277, 268.586 533.294, 268.560 531.455, 268.537 " fill="none" stroke="rgb(0, 0, 0)" stroke-linecap="butt" stroke-linejoin="round" stroke-opacity="1.0" stroke-width="3.0" />
            <path d=" M 557.824, 508.539 557.758, 505.684 " fill="none" stroke="rgb(0, 0, 0)" stroke-linecap="butt" stroke-linejoin="round" stroke-opacity="1.0" stroke-width="3.0" />
            <path d=" M 558.823, 351.897 558.221, 346.582 " fill="none" stroke="rgb(0, 0, 0)" stroke-linecap="butt" stroke-linejoin="round" stroke-opacity="1.0" stroke-width="3.0" />
        </g>
    </g>
</svg>
