<?xml version='1.0' encoding='ascii'?>
<svg xmlns="http://www.w3.org/2000/svg" height="1080" version="1.1" width="1080">
    <g id="View Layer_LineSet" inkscape:groupmode="lineset" inkscape:label="View Layer_LineSet" xmlns:inkscape="http://www.inkscape.org/namespaces/inkscape">
        <g id="strokes" inkscape:groupmode="layer" inkscape:label="strokes" xmlns:inkscape="http://www.inkscape.org/namespaces/inkscape">
            <path d=" M 564.104, 490.187 564.109, 491.345 564.095, 492.508 564.060, 493.667 564.032, 494.263 564.006, 494.810 563.932, 495.925 563.839, 497.001 563.728, 498.028 563.601, 498.995 563.456, 499.893 563.345, 500.491 563.254, 500.917 563.226, 501.045 563.102, 501.551 563.007, 501.885 562.972, 502.006 562.837, 502.409 562.698, 502.757 562.555, 503.048 560.777, 506.286 559.802, 508.060 559.520, 508.572 " fill="none" stroke="rgb(0, 0, 0)" stroke-linecap="butt" stroke-linejoin="round" stroke-opacity="1.0" stroke-width="3.0" />
            <path d=" M 361.988, 760.226 368.119, 764.762 " fill="none" stroke="rgb(0, 0, 0)" stroke-linecap="butt" stroke-linejoin="round" stroke-opacity="1.0" stroke-width="3.0" />
            <path d=" M 385.792, 765.803 395.286, 762.663 397.353, 761.980 " fill="none" stroke="rgb(0, 0, 0)" stroke-linecap="butt" stroke-linejoin="round" stroke-opacity="1.0" stroke-width="3.0" />
            <path d=" M 397.353, 761.980 392.436, 753.272 387.519, 744.564 386.888, 743.447 " fill="none" stroke="rgb(0, 0, 0)" stroke-linecap="butt" stroke-linejoin="round" stroke-opacity="1.0" stroke-width="3.0" />
            <path d=" M 475.992, 262.801 471.674, 262.821 467.280, 263.867 462.822, 265.974 458.315, 269.174 453.771, 273.497 449.207, 278.964 448.789, 279.571 445.225, 284.744 444.638, 285.596 440.084, 293.410 435.563, 302.413 431.547, 311.572 431.093, 312.607 427.490, 321.936 426.697, 323.989 423.457, 333.450 422.396, 336.547 419.477, 346.112 418.212, 350.260 415.581, 359.908 414.166, 365.097 411.796, 374.812 410.282, 381.023 408.151, 390.794 406.582, 397.990 404.672, 407.806 403.089, 415.940 401.384, 425.794 399.824, 434.808 398.312, 444.693 396.809, 454.518 395.479, 464.430 394.150, 474.341 394.063, 474.988 392.907, 484.921 391.752, 494.854 391.604, 496.124 390.616, 506.075 389.628, 516.026 389.449, 517.827 388.624, 527.793 387.799, 537.759 387.614, 539.992 386.948, 549.970 386.281, 559.948 386.110, 562.507 385.600, 572.494 385.090, 582.481 384.948, 585.257 384.593, 595.250 384.239, 605.244 384.136, 608.122 383.936, 618.120 383.737, 628.118 383.679, 630.984 383.635, 640.984 383.591, 650.984 383.579, 653.722 383.693, 663.722 383.806, 673.721 383.835, 676.218 384.110, 686.215 384.385, 696.211 384.444, 698.356 384.885, 708.346 385.326, 718.336 385.400, 720.024 386.013, 730.005 386.626, 739.986 386.695, 741.116 386.888, 743.447 386.398, 753.435 385.908, 763.423 385.792, 765.803 " fill="none" stroke="rgb(0, 0, 0)" stroke-linecap="butt" stroke-linejoin="round" stroke-opacity="1.0" stroke-width="3.0" />
            <path d=" M 566.969, 520.171 567.831, 520.186 567.982, 520.189 572.602, 511.320 574.674, 507.342 577.717, 502.971 577.296, 492.979 577.123, 488.868 576.571, 478.884 576.353, 474.936 575.665, 464.960 575.406, 461.196 574.577, 451.231 574.280, 447.672 573.303, 437.720 572.976, 434.387 571.844, 424.452 571.492, 421.366 570.196, 411.451 569.827, 408.634 568.357, 398.743 567.981, 396.219 566.325, 386.357 565.953, 384.148 564.097, 374.322 563.744, 372.449 561.672, 362.665 561.351, 361.151 559.045, 351.421 558.777, 350.288 558.675, 349.903 556.112, 340.237 556.020, 339.890 555.282, 337.403 " fill="none" stroke="rgb(0, 0, 0)" stroke-linecap="butt" stroke-linejoin="round" stroke-opacity="1.0" stroke-width="3.0" />
            <path d=" M 551.798, 345.560 553.241, 350.336 553.733, 351.968 556.336, 361.624 556.384, 361.802 556.510, 362.326 558.862, 372.094 560.963, 381.870 561.165, 382.812 562.488, 389.714 563.295, 393.927 564.974, 403.785 565.251, 405.409 566.741, 415.297 567.033, 417.231 568.346, 427.144 568.641, 429.366 569.788, 439.300 570.076, 441.787 571.066, 451.738 571.338, 454.470 572.179, 464.434 572.428, 467.390 573.126, 477.366 573.347, 480.524 573.908, 490.508 574.095, 493.849 574.140, 494.893 574.094, 495.704 574.038, 496.498 573.972, 497.268 573.897, 498.012 573.813, 498.726 573.720, 499.405 573.620, 500.045 573.512, 500.645 573.398, 501.199 573.278, 501.706 573.152, 502.162 573.022, 502.566 572.888, 502.914 572.751, 503.206 568.788, 510.695 568.560, 509.906 568.314, 509.305 568.052, 508.902 567.780, 508.705 567.751, 508.705 565.159, 508.663 564.241, 508.648 563.766, 508.641 563.375, 508.634 559.808, 508.577 559.520, 508.572 558.026, 508.548 557.796, 508.544 557.399, 508.538 557.110, 508.551 556.820, 508.774 556.534, 509.204 556.257, 509.834 555.997, 510.641 555.992, 510.654 555.746, 511.651 555.522, 512.808 555.323, 514.106 555.154, 515.522 555.018, 517.032 554.916, 518.611 554.851, 520.231 554.824, 521.865 554.835, 523.484 554.883, 525.060 556.240, 525.085 558.081, 525.118 558.188, 525.120 559.966, 525.153 563.526, 525.218 564.349, 525.233 565.308, 525.250 565.345, 525.251 566.933, 522.202 566.920, 521.700 566.922, 521.184 566.939, 520.669 566.969, 520.171 566.970, 520.168 567.014, 519.695 567.070, 519.263 567.137, 518.884 567.212, 518.568 567.295, 518.324 567.381, 518.159 567.470, 518.076 " fill="none" stroke="rgb(0, 0, 0)" stroke-linecap="butt" stroke-linejoin="round" stroke-opacity="1.0" stroke-width="3.0" />
            <path d=" M 462.936, 932.617 458.911, 931.738 457.997, 931.306 454.887, 929.835 450.878, 926.881 449.505, 925.490 446.899, 922.848 442.967, 917.716 439.097, 911.471 435.308, 904.100 431.617, 895.596 428.138, 886.221 428.042, 885.963 424.996, 876.438 424.603, 875.208 421.933, 865.571 421.317, 863.345 418.980, 853.622 418.204, 850.396 416.161, 840.607 415.282, 836.394 413.504, 826.553 412.569, 821.378 411.032, 811.496 410.082, 805.393 408.766, 795.480 407.838, 788.496 406.726, 778.558 405.853, 770.753 404.932, 760.795 404.140, 752.234 403.374, 742.263 402.674, 733.147 402.610, 731.993 " fill="none" stroke="rgb(0, 0, 0)" stroke-linecap="butt" stroke-linejoin="round" stroke-opacity="1.0" stroke-width="3.0" />
            <path d=" M 381.720, 355.204 379.946, 362.917 377.944, 372.714 376.715, 378.725 374.932, 388.565 373.661, 395.578 372.078, 405.452 370.800, 413.421 369.403, 423.323 368.152, 432.189 366.929, 442.114 365.734, 451.813 364.675, 461.757 363.617, 471.701 363.562, 472.211 362.659, 482.170 361.757, 492.130 361.651, 493.293 360.898, 503.265 360.145, 513.236 360.015, 514.963 359.407, 524.944 358.799, 534.926 358.665, 537.118 358.198, 547.107 357.731, 557.096 357.612, 559.650 357.283, 569.644 356.955, 579.639 356.862, 582.444 356.670, 592.443 356.479, 602.441 356.422, 605.386 356.367, 615.385 356.312, 625.385 356.296, 628.355 356.377, 638.355 356.459, 648.354 356.482, 651.233 356.702, 661.231 356.922, 671.229 356.981, 673.903 357.342, 683.896 357.703, 693.890 357.788, 696.247 358.294, 706.234 358.800, 716.221 358.898, 718.153 359.553, 728.131 360.208, 738.110 360.301, 739.513 361.112, 749.480 361.924, 759.447 361.988, 760.226 363.019, 770.173 364.036, 779.979 365.270, 789.903 366.387, 798.882 367.839, 808.776 369.025, 816.856 370.712, 826.712 371.931, 833.832 373.875, 843.642 375.086, 849.751 377.314, 859.500 378.472, 864.564 381.016, 874.235 382.066, 878.230 384.967, 887.800 385.850, 890.716 386.058, 891.308 " fill="none" stroke="rgb(0, 0, 0)" stroke-linecap="butt" stroke-linejoin="round" stroke-opacity="1.0" stroke-width="3.0" />
            <path d=" M 524.177, 532.844 524.398, 542.842 524.435, 544.502 524.546, 554.502 524.590, 558.403 524.592, 568.403 524.593, 572.375 524.489, 582.374 524.446, 586.397 524.336, 591.631 " fill="none" stroke="rgb(0, 0, 0)" stroke-linecap="butt" stroke-linejoin="round" stroke-opacity="1.0" stroke-width="3.0" />
            <path d=" M 512.936, 738.885 511.483, 748.779 511.080, 751.524 509.494, 761.398 509.012, 764.395 507.287, 774.245 506.801, 777.022 504.930, 786.845 504.447, 789.380 502.421, 799.173 501.951, 801.444 499.760, 811.201 499.315, 813.183 496.948, 822.899 496.541, 824.571 493.985, 834.239 493.631, 835.578 490.869, 845.189 490.586, 846.172 487.599, 855.716 487.410, 856.321 484.177, 865.784 484.106, 865.993 480.676, 875.154 477.127, 883.767 473.460, 891.796 469.683, 899.206 465.801, 905.959 461.821, 912.014 457.749, 917.334 453.594, 921.881 449.505, 925.490 " fill="none" stroke="rgb(0, 0, 0)" stroke-linecap="butt" stroke-linejoin="round" stroke-opacity="1.0" stroke-width="3.0" />
            <path d=" M 396.984, 757.290 397.353, 761.980 398.299, 771.935 399.224, 781.674 400.374, 791.608 401.406, 800.522 402.775, 810.428 403.882, 818.447 405.487, 828.318 406.634, 835.380 408.496, 845.205 409.643, 851.260 411.786, 861.028 412.886, 866.040 415.343, 875.734 416.343, 879.680 419.151, 889.278 419.990, 892.146 423.196, 901.618 423.805, 903.416 427.467, 912.721 427.765, 913.479 431.848, 922.327 436.032, 929.960 436.983, 931.393 437.265, 931.818 440.296, 936.388 444.619, 941.627 448.983, 945.695 453.367, 948.616 457.757, 950.421 462.134, 951.144 466.485, 950.817 470.795, 949.478 475.052, 947.169 478.037, 944.864 479.245, 943.931 483.363, 939.804 487.397, 934.831 488.481, 933.242 491.338, 929.055 495.180, 922.519 496.611, 919.739 498.915, 915.263 502.537, 907.330 506.042, 898.761 509.426, 889.593 512.603, 880.111 512.685, 879.866 515.607, 870.302 515.816, 869.617 518.508, 859.986 518.816, 858.884 521.299, 849.197 521.683, 847.698 523.975, 837.965 524.416, 836.095 526.533, 826.322 527.012, 824.108 528.967, 814.301 529.472, 811.766 531.275, 801.930 531.793, 799.099 533.454, 789.238 533.955, 786.265 " fill="none" stroke="rgb(0, 0, 0)" stroke-linecap="butt" stroke-linejoin="round" stroke-opacity="1.0" stroke-width="3.0" />
            <path d=" M 530.765, 780.230 529.047, 790.081 528.977, 790.482 527.117, 800.308 526.697, 802.525 524.686, 812.320 524.290, 814.244 523.488, 817.845 521.758, 825.612 519.409, 835.333 519.102, 836.601 516.563, 846.274 516.325, 847.179 513.577, 856.794 513.429, 857.313 510.451, 866.859 510.416, 866.970 507.291, 876.119 504.057, 884.721 500.717, 892.741 497.278, 900.143 493.743, 906.890 490.120, 912.941 486.415, 918.259 482.636, 922.806 478.790, 926.542 474.886, 929.428 470.936, 931.426 466.948, 932.502 462.936, 932.617 " fill="none" stroke="rgb(0, 0, 0)" stroke-linecap="butt" stroke-linejoin="round" stroke-opacity="1.0" stroke-width="3.0" />
            <path d=" M 546.207, 678.098 546.449, 674.852 547.093, 664.873 547.385, 660.341 547.933, 650.356 548.185, 645.766 548.637, 635.776 548.847, 631.149 549.205, 621.155 549.372, 616.508 549.638, 606.511 549.761, 601.862 549.933, 591.863 550.013, 587.231 550.093, 577.231 550.129, 572.634 550.115, 562.634 550.109, 558.089 550.001, 548.090 549.953, 543.617 549.750, 533.619 549.661, 529.236 549.362, 519.241 549.233, 514.966 548.851, 505.379 " fill="none" stroke="rgb(0, 0, 0)" stroke-linecap="butt" stroke-linejoin="round" stroke-opacity="1.0" stroke-width="3.0" />
            <path d=" M 560.777, 506.286 559.778, 506.210 557.993, 506.074 557.743, 506.055 555.894, 505.914 548.851, 505.379 548.508, 505.353 546.663, 505.212 546.152, 505.173 546.554, 515.165 546.696, 518.706 546.992, 528.701 547.100, 532.369 547.294, 542.367 547.367, 546.142 547.460, 556.142 547.496, 560.007 547.489, 570.007 547.487, 573.942 547.382, 583.942 547.341, 587.929 547.140, 597.927 547.059, 601.949 546.760, 611.945 546.640, 615.982 546.245, 625.974 546.085, 630.009 545.593, 639.997 545.395, 644.011 544.805, 653.994 544.570, 657.969 543.881, 667.945 543.642, 671.398 " fill="none" stroke="rgb(0, 0, 0)" stroke-linecap="butt" stroke-linejoin="round" stroke-opacity="1.0" stroke-width="3.0" />
            <path d=" M 385.792, 765.803 386.765, 775.755 387.739, 785.708 387.794, 786.270 388.969, 796.201 390.110, 805.844 391.501, 815.746 392.722, 824.442 394.347, 834.309 395.612, 841.994 397.492, 851.816 398.759, 858.436 400.920, 868.200 402.142, 873.719 404.616, 883.408 405.738, 887.803 408.566, 897.395 409.527, 900.653 412.757, 910.117 413.485, 912.249 417.178, 921.542 417.590, 922.579 421.819, 931.639 426.152, 939.429 430.567, 945.964 435.044, 951.260 439.564, 955.340 444.108, 958.230 448.660, 959.964 453.204, 960.580 457.723, 960.112 462.205, 958.602 466.636, 956.095 471.006, 952.635 475.303, 948.262 " fill="none" stroke="rgb(0, 0, 0)" stroke-linecap="butt" stroke-linejoin="round" stroke-opacity="1.0" stroke-width="3.0" />
            <path d=" M 475.303, 948.262 482.201, 941.023 483.363, 939.804 " fill="none" stroke="rgb(0, 0, 0)" stroke-linecap="butt" stroke-linejoin="round" stroke-opacity="1.0" stroke-width="3.0" />
            <path d=" M 538.918, 480.882 539.556, 490.861 540.194, 500.841 540.443, 504.740 540.809, 514.733 540.940, 518.277 541.153, 528.275 541.170, 529.086 535.233, 531.319 531.999, 532.535 531.719, 532.641 531.439, 532.746 531.158, 532.852 530.878, 532.959 530.545, 532.967 526.938, 532.898 524.177, 532.844 519.674, 532.757 " fill="none" stroke="rgb(0, 0, 0)" stroke-linecap="butt" stroke-linejoin="round" stroke-opacity="1.0" stroke-width="3.0" />
            <path d=" M 519.962, 502.389 521.131, 498.797 524.225, 489.287 527.319, 479.778 527.383, 479.580 537.320, 480.701 538.918, 480.882 535.928, 490.424 532.939, 499.967 530.869, 506.576 530.743, 506.972 530.495, 507.764 530.247, 508.557 529.998, 509.352 529.751, 510.148 529.468, 511.192 529.342, 511.793 529.210, 512.417 528.985, 513.799 528.797, 515.311 528.650, 516.925 528.621, 517.393 528.546, 518.609 528.487, 520.331 528.475, 522.056 528.508, 523.615 528.510, 523.752 528.592, 525.386 528.717, 526.926 528.885, 528.342 529.092, 529.608 529.333, 530.699 529.604, 531.595 529.901, 532.279 530.217, 532.740 530.545, 532.967 " fill="none" stroke="rgb(0, 0, 0)" stroke-linecap="butt" stroke-linejoin="round" stroke-opacity="1.0" stroke-width="3.0" />
            <path d=" M 530.885, 523.658 530.760, 523.600 530.641, 523.407 530.536, 523.090 530.447, 522.661 530.380, 522.139 530.337, 521.548 530.320, 520.912 530.329, 520.260 530.365, 519.621 530.425, 519.022 530.508, 518.490 530.609, 518.049 530.724, 517.716 530.847, 517.509 530.974, 517.434 " fill="none" stroke="rgb(0, 0, 0)" stroke-linecap="butt" stroke-linejoin="round" stroke-opacity="1.0" stroke-width="3.0" />
            <path d=" M 530.974, 517.434 531.099, 517.495 531.217, 517.689 531.322, 518.007 531.410, 518.436 531.477, 518.956 531.520, 519.546 531.537, 520.180 531.527, 520.829 531.492, 521.466 531.432, 522.063 531.350, 522.594 531.249, 523.035 531.135, 523.369 531.012, 523.579 530.885, 523.658 " fill="none" stroke="rgb(0, 0, 0)" stroke-linecap="butt" stroke-linejoin="round" stroke-opacity="1.0" stroke-width="3.0" />
            <path d=" M 551.877, 691.521 552.712, 681.556 552.962, 678.569 553.713, 668.597 553.970, 665.181 554.639, 655.203 554.871, 651.734 555.458, 641.751 555.665, 638.241 556.172, 628.253 556.352, 624.712 556.779, 614.721 556.931, 611.159 557.279, 601.165 557.403, 597.593 557.671, 587.597 557.767, 584.026 557.957, 574.028 558.024, 570.469 558.134, 560.469 558.173, 556.932 558.203, 546.932 558.213, 543.428 558.199, 540.688 558.149, 530.688 558.145, 529.966 558.081, 525.118 " fill="none" stroke="rgb(0, 0, 0)" stroke-linecap="butt" stroke-linejoin="round" stroke-opacity="1.0" stroke-width="3.0" />
            <path d=" M 455.777, 979.075 458.204, 979.263 462.314, 978.991 466.392, 977.899 470.429, 976.015 474.419, 973.371 478.354, 969.997 482.228, 965.926 486.034, 961.188 489.768, 955.815 493.424, 949.836 496.998, 943.283 500.488, 936.185 503.888, 928.571 507.196, 920.469 510.410, 911.906 513.527, 902.910 516.546, 893.505 519.403, 883.922 519.464, 883.717 522.139, 874.082 522.281, 873.570 524.148, 866.355 524.994, 863.086 527.343, 853.366 527.603, 852.288 529.806, 842.534 530.108, 841.197 532.173, 831.412 532.506, 829.833 534.443, 820.022 534.799, 818.216 536.614, 808.381 536.986, 806.364 538.684, 796.509 538.934, 795.058 " fill="none" stroke="rgb(0, 0, 0)" stroke-linecap="butt" stroke-linejoin="round" stroke-opacity="1.0" stroke-width="3.0" />
            <path d=" M 526.350, 265.269 525.532, 262.666 522.727, 254.547 519.807, 246.897 516.773, 239.742 513.629, 233.109 510.375, 227.026 507.013, 221.521 503.547, 216.624 499.980, 212.363 496.316, 208.769 492.558, 205.871 488.712, 203.700 484.783, 202.285 480.777, 201.656 478.651, 201.752 476.701, 201.841 472.562, 202.868 468.368, 204.765 464.129, 207.555 459.853, 211.264 455.552, 215.912 451.236, 221.518 446.917, 228.099 442.608, 235.667 438.322, 244.231 434.263, 253.370 434.074, 253.796 430.943, 261.680 429.877, 264.363 426.515, 273.781 425.748, 275.929 422.680, 285.446 421.701, 288.483 418.899, 298.083 417.753, 302.011 415.194, 311.678 414.285, 315.115 413.920, 316.493 411.584, 326.217 410.218, 331.903 408.088, 341.674 406.664, 348.208 404.726, 358.019 403.274, 365.370 401.516, 375.214 400.065, 383.343 398.476, 393.216 397.051, 402.078 395.623, 411.975 394.247, 421.517 392.974, 431.435 391.700, 441.354 391.669, 441.597 390.543, 451.534 389.417, 461.470 389.329, 462.252 388.346, 472.203 387.363, 482.155 387.239, 483.407 386.395, 493.372 385.551, 503.336 385.411, 504.987 384.703, 514.961 383.995, 524.936 383.855, 526.908 383.280, 536.892 382.705, 546.875 382.577, 549.088 382.134, 559.079 381.691, 569.069 381.586, 571.440 381.274, 581.435 380.962, 591.430 380.886, 593.874 380.705, 603.873 380.524, 613.871 380.480, 616.303 380.431, 626.302 380.382, 636.302 380.371, 638.635 380.454, 648.634 380.538, 658.634 380.556, 660.783 380.775, 670.780 380.995, 680.778 381.036, 682.659 381.393, 692.652 381.750, 702.646 381.805, 704.178 382.305, 714.166 382.804, 724.153 382.859, 725.260 383.505, 735.239 384.151, 745.218 384.191, 745.826 384.990, 755.794 385.792, 765.803 386.750, 775.757 387.652, 785.121 388.778, 795.058 389.760, 803.719 391.065, 813.634 392.105, 821.539 393.600, 831.427 394.674, 838.529 396.372, 848.384 397.451, 854.644 399.370, 864.458 400.423, 869.845 402.583, 879.609 403.576, 884.100 405.999, 893.802 406.893, 897.382 409.608, 907.007 410.359, 909.671 413.399, 919.198 413.959, 920.952 417.365, 930.355 417.677, 931.217 421.498, 940.461 425.407, 948.686 429.389, 955.897 433.431, 962.105 437.518, 967.324 441.638, 971.570 445.777, 974.863 449.926, 977.226 454.071, 978.684 456.520, 979.027 458.204, 979.263 " fill="none" stroke="rgb(0, 0, 0)" stroke-linecap="butt" stroke-linejoin="round" stroke-opacity="1.0" stroke-width="3.0" />
            <path d=" M 478.389, 201.712 474.287, 201.897 470.122, 202.925 465.902, 204.821 461.635, 207.612 457.333, 211.320 453.005, 215.967 448.662, 221.572 444.316, 228.151 439.981, 235.717 435.669, 244.278 431.589, 253.408 431.395, 253.841 428.112, 262.056 427.174, 264.405 423.792, 273.816 423.020, 275.967 419.934, 285.479 418.949, 288.517 416.131, 298.112 414.978, 302.040 412.404, 311.704 411.122, 316.517 408.773, 326.238 407.399, 331.922 406.519, 335.936 404.377, 345.703 403.825, 348.221 401.876, 358.029 400.416, 365.376 398.648, 375.219 397.189, 383.343 395.591, 393.214 394.158, 402.070 392.723, 411.967 391.340, 421.502 390.060, 431.419 388.779, 441.337 388.748, 441.575 387.617, 451.510 386.485, 461.446 386.396, 462.221 385.408, 472.172 384.420, 482.123 384.297, 483.368 383.448, 493.332 382.600, 503.296 382.460, 504.939 381.748, 514.914 381.037, 524.888 380.897, 526.852 380.319, 536.836 379.742, 546.819 379.614, 549.024 379.170, 559.014 378.725, 569.004 378.620, 571.367 378.307, 581.362 377.995, 591.357 377.918, 593.792 377.738, 603.791 377.557, 613.789 377.513, 616.212 377.465, 626.212 377.417, 636.211 377.406, 638.535 377.491, 648.535 377.577, 658.535 377.596, 660.675 377.818, 670.672 378.039, 680.670 378.081, 682.542 378.442, 692.536 378.803, 702.529 378.858, 704.054 379.362, 714.041 379.866, 724.029 379.922, 725.128 380.573, 735.107 381.225, 745.086 381.264, 745.687 382.070, 755.654 382.878, 765.656 383.844, 775.610 384.752, 784.969 385.888, 794.904 386.877, 803.560 388.191, 813.474 389.239, 821.374 390.744, 831.260 391.825, 838.359 393.536, 848.212 394.622, 854.470 396.555, 864.281 397.616, 869.667 399.790, 879.427 400.790, 883.918 403.229, 893.616 404.129, 897.197 406.862, 906.816 407.619, 909.483 410.678, 919.003 411.243, 920.762 414.670, 930.156 414.986, 931.024 418.833, 940.267 422.767, 948.491 426.776, 955.702 430.844, 961.910 434.958, 967.129 439.104, 971.376 443.271, 974.670 447.446, 977.034 451.618, 978.494 455.777, 979.075 " fill="none" stroke="rgb(0, 0, 0)" stroke-linecap="butt" stroke-linejoin="round" stroke-opacity="1.0" stroke-width="3.0" />
            <path d=" M 480.777, 201.656 478.389, 201.712 " fill="none" stroke="rgb(0, 0, 0)" stroke-linecap="butt" stroke-linejoin="round" stroke-opacity="1.0" stroke-width="3.0" />
            <path d=" M 557.486, 703.051 558.388, 693.092 558.679, 689.885 559.498, 679.918 559.839, 675.764 560.577, 665.792 560.889, 661.573 561.546, 651.594 561.828, 647.321 562.405, 637.338 562.655, 633.022 563.155, 623.035 563.372, 618.686 563.793, 608.695 563.978, 604.325 564.322, 594.331 564.473, 589.949 564.740, 579.952 564.857, 575.569 565.046, 565.570 565.129, 561.195 565.241, 551.196 565.290, 546.840 565.325, 536.840 565.340, 532.513 565.308, 525.250 " fill="none" stroke="rgb(0, 0, 0)" stroke-linecap="butt" stroke-linejoin="round" stroke-opacity="1.0" stroke-width="3.0" />
            <path d=" M 457.315, 999.999 459.712, 1000.191 464.137, 999.640 468.519, 998.207 472.851, 995.926 477.124, 992.833 481.330, 988.964 485.464, 984.355 489.519, 979.041 493.491, 973.059 497.374, 966.441 501.165, 959.223 504.859, 951.436 508.454, 943.113 511.948, 934.285 513.061, 931.229 515.337, 924.981 518.528, 915.504 518.620, 915.230 521.600, 905.685 521.795, 905.061 524.583, 895.458 524.861, 894.500 527.472, 884.846 527.817, 883.571 530.264, 873.875 530.661, 872.300 532.956, 862.567 533.394, 860.710 535.547, 850.945 536.015, 848.823 538.035, 839.030 538.523, 836.661 540.417, 826.842 540.918, 824.244 542.693, 814.402 543.201, 811.590 544.468, 804.073 " fill="none" stroke="rgb(0, 0, 0)" stroke-linecap="butt" stroke-linejoin="round" stroke-opacity="1.0" stroke-width="3.0" />
            <path d=" M 540.536, 264.594 539.545, 260.267 537.126, 250.564 536.980, 249.980 534.355, 240.330 534.290, 240.090 531.474, 230.622 528.533, 221.605 525.468, 213.065 522.278, 205.032 518.967, 197.534 515.535, 190.605 511.984, 184.274 508.317, 178.574 504.536, 173.540 500.645, 169.204 496.648, 165.601 492.550, 162.767 488.356, 160.735 484.072, 159.540 479.704, 159.217 478.513, 159.373 475.261, 159.799 470.750, 161.320 466.181, 163.809 461.565, 167.298 456.911, 171.813 452.233, 177.380 447.543, 184.021 442.854, 191.753 438.182, 200.592 433.958, 209.656 433.542, 210.549 429.713, 219.786 428.950, 221.627 425.471, 231.002 424.423, 233.827 421.258, 243.312 419.980, 247.143 417.527, 255.287 415.637, 261.561 413.009, 271.210 412.113, 274.498 411.414, 277.065 410.271, 281.697 407.876, 291.406 407.329, 293.626 405.150, 303.386 403.402, 311.213 401.422, 321.015 399.650, 329.783 397.857, 339.621 396.094, 349.290 394.476, 359.158 392.858, 369.026 392.751, 369.677 391.298, 379.571 389.846, 389.465 389.638, 390.882 388.344, 400.798 387.049, 410.714 386.772, 412.835 386.399, 416.081 385.256, 426.016 384.170, 435.460 383.173, 445.410 382.176, 455.360 381.845, 458.672 380.990, 468.636 380.135, 478.599 379.810, 482.386 379.093, 492.360 378.377, 502.334 378.077, 506.506 377.496, 516.490 376.916, 526.473 376.656, 530.937 376.209, 540.927 375.763, 550.917 375.554, 555.578 375.241, 565.573 374.927, 575.568 374.778, 580.326 374.597, 590.325 374.417, 600.323 374.331, 605.079 374.284, 615.079 374.237, 625.078 374.215, 629.731 374.303, 639.731 374.390, 649.730 374.429, 654.181 374.654, 664.178 374.879, 674.176 374.972, 678.327 375.337, 688.320 375.702, 698.313 375.839, 702.071 376.348, 712.058 376.856, 722.045 377.023, 725.319 377.680, 735.297 378.337, 745.275 378.516, 747.981 379.328, 757.948 380.140, 767.915 380.307, 769.973 381.281, 779.925 382.255, 789.878 382.386, 791.217 383.531, 801.151 384.675, 811.085 384.739, 811.640 386.065, 821.552 387.352, 831.179 388.870, 841.063 390.209, 849.776 391.935, 859.626 393.294, 867.381 395.245, 877.189 396.591, 883.951 398.787, 893.707 400.081, 899.453 402.548, 909.144 403.747, 913.858 406.513, 923.468 407.572, 927.146 410.672, 936.653 411.537, 939.304 412.345, 941.483 412.644, 942.288 415.624, 950.325 419.530, 959.530 419.688, 959.903 419.817, 960.207 423.246, 967.214 424.099, 968.957 428.452, 976.582 432.862, 983.099 437.313, 988.526 441.791, 992.885 446.282, 996.202 450.774, 998.504 455.254, 999.823 457.342, 999.995 459.712, 1000.191 " fill="none" stroke="rgb(0, 0, 0)" stroke-linecap="butt" stroke-linejoin="round" stroke-opacity="1.0" stroke-width="3.0" />
            <path d=" M 477.321, 159.286 472.849, 159.869 468.310, 161.389 463.713, 163.879 459.067, 167.367 454.385, 171.882 449.678, 177.448 444.959, 184.087 440.241, 191.818 435.541, 200.655 431.295, 209.709 430.873, 210.608 427.023, 219.838 426.254, 221.683 422.756, 231.052 421.700, 233.879 418.517, 243.359 417.230, 247.191 414.330, 256.761 412.862, 261.605 410.219, 271.249 408.615, 277.103 407.556, 281.370 407.247, 282.615 404.839, 292.321 404.507, 293.659 402.315, 303.415 400.557, 311.239 398.566, 321.039 397.231, 327.608 396.785, 329.803 394.981, 339.639 393.209, 349.302 391.582, 359.169 389.954, 369.036 389.848, 369.682 388.387, 379.575 386.927, 389.468 386.718, 390.879 385.417, 400.794 384.115, 410.709 383.838, 412.823 382.689, 422.757 381.540, 432.691 381.222, 435.439 380.220, 445.389 379.218, 455.338 378.886, 458.643 378.087, 467.898 377.228, 477.862 376.841, 482.347 376.121, 492.321 375.402, 502.295 375.101, 506.458 374.518, 516.441 373.935, 526.424 373.674, 530.879 373.226, 540.869 372.778, 550.859 372.569, 555.510 372.255, 565.506 371.941, 575.501 371.791, 580.249 371.611, 590.247 371.430, 600.246 371.345, 604.992 371.299, 614.991 371.253, 624.991 371.231, 629.634 371.321, 639.634 371.411, 649.634 371.451, 654.075 371.678, 664.072 371.906, 674.069 372.000, 678.211 372.368, 688.205 372.737, 698.198 372.875, 701.947 373.388, 711.933 373.902, 721.920 374.069, 725.186 374.732, 735.164 375.395, 745.142 375.574, 747.840 376.393, 757.806 377.212, 767.773 377.380, 769.824 378.362, 779.776 379.343, 789.728 379.475, 791.061 380.628, 800.994 381.781, 810.927 381.845, 811.478 383.180, 821.388 384.477, 831.010 386.006, 840.893 387.354, 849.601 389.093, 859.449 390.461, 867.201 392.426, 877.006 393.780, 883.767 395.992, 893.520 397.295, 899.265 399.777, 908.952 400.986, 913.666 403.769, 923.271 404.836, 926.952 406.442, 931.842 407.893, 936.260 408.827, 939.107 411.451, 946.134 412.942, 950.126 416.870, 959.322 416.916, 959.429 417.163, 960.007 421.472, 968.756 425.854, 976.381 430.292, 982.898 434.772, 988.326 439.279, 992.686 443.799, 996.004 448.320, 998.308 452.828, 999.629 457.315, 999.999 " fill="none" stroke="rgb(0, 0, 0)" stroke-linecap="butt" stroke-linejoin="round" stroke-opacity="1.0" stroke-width="3.0" />
            <path d=" M 479.704, 159.217 477.321, 159.286 " fill="none" stroke="rgb(0, 0, 0)" stroke-linecap="butt" stroke-linejoin="round" stroke-opacity="1.0" stroke-width="3.0" />
            <path d=" M 544.204, 257.482 543.985, 256.419 541.796, 246.662 541.479, 245.251 539.107, 235.537 538.843, 234.456 536.271, 224.792 536.075, 224.058 533.285, 214.455 533.177, 214.084 530.147, 204.563 526.987, 195.523 523.697, 186.994 520.277, 179.009 516.730, 171.599 513.057, 164.797 509.260, 158.640 505.342, 153.162 501.306, 148.399 497.156, 144.388 492.897, 141.167 488.533, 138.773 484.072, 137.245 479.519, 136.620 474.778, 136.770 470.082, 137.087 465.311, 138.378 460.474, 140.680 455.580, 144.026 450.643, 148.447 445.675, 153.971 440.688, 160.624 435.699, 168.429 430.849, 177.174 430.722, 177.403 426.343, 186.393 425.775, 187.560 421.810, 196.740 420.874, 198.907 417.277, 208.237 416.039, 211.447 412.769, 220.897 411.288, 225.176 408.312, 234.723 406.641, 240.083 403.932, 249.709 402.119, 256.151 399.653, 265.842 397.742, 273.352 395.499, 283.098 393.530, 291.655 391.495, 301.446 389.505, 311.017 387.663, 320.845 385.821, 330.674 385.687, 331.388 384.026, 341.249 382.365, 351.110 382.096, 352.710 381.720, 355.204 380.231, 365.093 378.751, 374.917 377.425, 384.829 376.099, 394.740 375.672, 397.935 374.502, 407.866 373.333, 417.797 372.875, 421.682 371.856, 431.630 370.837, 441.577 370.377, 446.069 369.504, 456.031 368.631, 465.993 368.192, 471.002 367.461, 480.976 366.730, 490.949 366.332, 496.381 365.741, 506.364 365.150, 516.346 364.809, 522.101 364.356, 532.091 363.971, 540.573 363.632, 548.054 363.315, 558.049 362.999, 568.044 362.806, 574.128 362.626, 584.127 362.446, 594.125 362.336, 600.212 362.293, 610.212 362.250, 620.212 362.225, 626.193 362.320, 636.193 362.416, 646.192 362.471, 651.960 362.707, 661.957 362.943, 671.954 363.071, 677.403 363.451, 687.396 363.831, 697.388 364.022, 702.416 364.549, 712.402 365.076, 722.388 365.314, 726.898 365.994, 736.875 366.492, 744.186 366.811, 748.866 366.940, 750.751 367.778, 760.716 368.119, 764.762 368.887, 773.885 369.892, 783.835 370.897, 793.784 371.142, 796.216 372.322, 806.147 373.503, 816.077 373.692, 817.668 375.058, 827.574 376.424, 837.481 376.519, 838.171 378.083, 848.048 379.607, 857.665 381.385, 867.506 382.937, 876.097 384.947, 885.893 386.058, 891.308 386.492, 893.424 388.754, 903.164 390.251, 909.608 392.791, 919.280 394.195, 924.624 397.044, 934.209 398.304, 938.450 401.499, 947.926 402.560, 951.074 406.143, 960.410 406.942, 962.491 410.967, 971.645 411.431, 972.702 415.961, 981.617 416.010, 981.714 420.661, 989.539 425.366, 996.196 430.110, 1001.705 434.876, 1006.093 439.652, 1009.389 444.422, 1011.624 449.175, 1012.832 454.003, 1013.227 458.668, 1013.439 463.293, 1012.696 467.870, 1011.036 472.388, 1008.497 476.841, 1005.119 481.220, 1000.941 485.519, 996.000 489.733, 990.335 493.856, 983.984 497.883, 976.982 501.811, 969.367 505.637, 961.173 509.356, 952.432 512.967, 943.178 516.351, 933.768 516.468, 933.442 519.624, 923.954 519.857, 923.254 522.806, 913.699 523.132, 912.643 525.892, 903.032 526.292, 901.636 528.878, 891.976 529.337, 890.260 531.761, 880.558 532.266, 878.539 534.540, 868.801 535.077, 866.499 537.211, 856.729 537.772, 854.160 539.775, 844.363 540.350, 841.546 542.228, 831.724 542.811, 828.677 544.571, 818.834 545.155, 815.573 546.551, 807.218 " fill="none" stroke="rgb(0, 0, 0)" stroke-linecap="butt" stroke-linejoin="round" stroke-opacity="1.0" stroke-width="3.0" />
            <path d=" M 559.482, 706.774 559.723, 704.327 560.619, 694.368 561.026, 689.847 561.840, 679.880 562.215, 675.284 562.948, 665.311 563.291, 660.650 563.944, 650.672 564.252, 645.957 564.827, 635.974 565.101, 631.216 565.597, 621.228 565.836, 616.438 566.255, 606.446 566.457, 601.633 566.800, 591.639 566.965, 586.814 567.232, 576.817 567.360, 571.989 567.550, 561.991 567.642, 557.170 567.755, 547.171 567.809, 542.367 567.845, 532.368 567.862, 527.591 567.831, 520.186 " fill="none" stroke="rgb(0, 0, 0)" stroke-linecap="butt" stroke-linejoin="round" stroke-opacity="1.0" stroke-width="3.0" />
            <path d=" M 479.519, 136.620 474.882, 136.934 470.169, 138.225 465.392, 140.526 460.558, 143.872 455.681, 148.294 450.773, 153.820 445.847, 160.476 440.917, 168.284 436.113, 177.055 436.000, 177.262 431.664, 186.274 431.111, 187.424 427.187, 196.622 426.267, 198.778 422.708, 208.123 421.488, 211.326 418.254, 220.788 416.792, 225.063 416.100, 227.313 413.156, 236.870 412.199, 239.980 409.519, 249.615 407.727, 256.058 405.289, 265.756 403.399, 273.272 401.182, 283.023 399.234, 291.587 398.106, 297.080 396.491, 304.937 395.253, 310.963 393.432, 320.796 391.610, 330.628 391.476, 331.349 389.834, 341.213 388.192, 351.078 387.924, 352.687 386.451, 362.578 385.495, 368.997 384.614, 374.911 383.302, 384.825 381.991, 394.738 381.566, 397.947 380.409, 407.880 379.251, 417.812 378.797, 421.712 377.788, 431.661 376.780, 441.610 376.323, 446.119 375.660, 453.757 374.795, 463.719 374.157, 471.072 373.434, 481.045 372.710, 491.019 372.314, 496.471 371.728, 506.454 371.142, 516.436 370.803, 522.211 370.353, 532.201 369.903, 542.191 369.633, 548.184 369.408, 555.305 369.093, 565.300 368.810, 574.279 368.630, 584.278 368.450, 594.276 368.340, 600.384 368.295, 610.384 368.250, 620.383 368.223, 626.385 368.314, 636.385 368.406, 646.384 368.459, 652.172 368.689, 662.169 368.920, 672.166 369.046, 677.634 369.418, 687.627 369.790, 697.620 369.978, 702.666 370.496, 712.653 371.014, 722.640 371.248, 727.166 371.917, 737.144 372.585, 747.121 372.848, 751.037 373.673, 761.002 374.498, 770.968 374.765, 774.187 375.755, 784.138 376.744, 794.089 376.987, 796.534 378.150, 806.466 379.313, 816.398 379.500, 817.999 380.846, 827.908 382.193, 837.817 382.287, 838.516 383.830, 848.396 385.333, 858.021 387.086, 867.866 388.618, 876.464 390.600, 886.266 391.101, 888.742 392.124, 893.800 394.238, 903.031 395.833, 909.993 398.341, 919.674 399.114, 922.658 399.725, 925.016 399.964, 925.831 402.777, 935.427 403.780, 938.847 406.068, 945.726 407.980, 951.476 411.522, 960.828 412.305, 962.897 416.286, 972.071 416.737, 973.110 418.090, 975.809 421.257, 982.123 425.848, 989.949 430.494, 996.605 435.177, 1002.113 439.884, 1006.499 444.599, 1009.792 449.310, 1012.024 454.003, 1013.227 " fill="none" stroke="rgb(0, 0, 0)" stroke-linecap="butt" stroke-linejoin="round" stroke-opacity="1.0" stroke-width="3.0" />
            <path d=" M 482.585, 507.330 482.530, 507.329 482.166, 507.340 481.801, 507.560 481.442, 507.984 481.095, 508.607 480.765, 509.419 480.459, 510.405 480.182, 511.550 479.939, 512.834 479.734, 514.236 479.570, 515.732 479.450, 517.295 479.377, 518.899 479.351, 520.517 479.374, 522.120 479.444, 523.682 481.976, 523.728 " fill="none" stroke="rgb(0, 0, 0)" stroke-linecap="butt" stroke-linejoin="round" stroke-opacity="1.0" stroke-width="3.0" />
            <path d=" M 565.345, 525.251 565.301, 523.744 565.299, 523.673 565.290, 522.052 565.293, 521.873 565.318, 520.416 565.328, 520.142 565.382, 518.794 565.429, 518.041 565.481, 517.213 565.613, 515.700 565.777, 514.282 565.969, 512.983 566.186, 511.824 566.424, 510.825 566.476, 510.658 566.679, 510.004 566.947, 509.373 567.223, 508.942 567.502, 508.718 567.751, 508.707 567.780, 508.705 " fill="none" stroke="rgb(0, 0, 0)" stroke-linecap="butt" stroke-linejoin="round" stroke-opacity="1.0" stroke-width="3.0" />
            <path d=" M 567.982, 520.189 567.955, 519.716 567.914, 519.284 567.861, 518.903 567.825, 518.723 567.798, 518.584 567.724, 518.336 567.644, 518.166 567.558, 518.079 567.470, 518.076 " fill="none" stroke="rgb(0, 0, 0)" stroke-linecap="butt" stroke-linejoin="round" stroke-opacity="1.0" stroke-width="3.0" />
            <path d=" M 529.196, 467.331 529.464, 472.799 529.933, 472.805 535.061, 472.864 535.265, 472.547 534.860, 467.299 529.475, 466.956 529.445, 466.954 529.196, 467.331 " fill="none" stroke="rgb(0, 0, 0)" stroke-linecap="butt" stroke-linejoin="round" stroke-opacity="1.0" stroke-width="3.0" />
            <path d=" M 534.800, 467.392 529.196, 467.331 " fill="none" stroke="rgb(0, 0, 0)" stroke-linecap="butt" stroke-linejoin="round" stroke-opacity="1.0" stroke-width="3.0" />
            <path d=" M 535.061, 472.864 534.800, 467.392 534.860, 467.299 " fill="none" stroke="rgb(0, 0, 0)" stroke-linecap="butt" stroke-linejoin="round" stroke-opacity="1.0" stroke-width="3.0" />
            <path d=" M 530.999, 469.938 530.988, 470.150 531.023, 470.372 531.045, 470.433 531.122, 470.634 531.237, 470.811 531.384, 470.959 531.429, 471.000 531.594, 471.107 531.651, 471.135 531.819, 471.195 531.871, 471.212 531.936, 471.224 532.012, 471.233 532.096, 471.236 532.180, 471.235 532.263, 471.229 532.343, 471.218 532.416, 471.204 532.481, 471.186 532.535, 471.165 532.692, 471.091 532.752, 471.056 532.904, 470.936 533.010, 470.824 " fill="none" stroke="rgb(0, 0, 0)" stroke-linecap="butt" stroke-linejoin="round" stroke-opacity="1.0" stroke-width="3.0" />
            <path d=" M 531.088, 469.632 531.053, 469.732 531.046, 469.758 531.036, 469.795 530.999, 469.938 531.039, 469.778 " fill="none" stroke="rgb(0, 0, 0)" stroke-linecap="butt" stroke-linejoin="round" stroke-opacity="1.0" stroke-width="3.0" />
            <path d=" M 533.010, 470.824 533.100, 470.700 533.170, 470.564 533.219, 470.419 533.246, 470.266 533.250, 470.111 533.231, 469.955 533.189, 469.802 533.126, 469.655 533.043, 469.517 532.941, 469.391 532.823, 469.279 532.690, 469.184 532.546, 469.108 532.394, 469.052 532.236, 469.017 532.076, 469.004 531.917, 469.013 531.763, 469.045 531.616, 469.097 531.479, 469.171 531.356, 469.263 531.248, 469.372 531.158, 469.496 531.088, 469.632 " fill="none" stroke="rgb(0, 0, 0)" stroke-linecap="butt" stroke-linejoin="round" stroke-opacity="1.0" stroke-width="3.0" />
            <path d=" M 630.340, 854.128 632.513, 854.590 640.407, 856.075 648.292, 856.821 656.150, 856.845 663.966, 856.164 671.723, 854.799 679.408, 852.769 687.008, 850.095 694.509, 846.797 701.900, 842.897 709.170, 838.418 716.309, 833.379 723.307, 827.805 730.156, 821.715 736.847, 815.132 743.374, 808.077 749.729, 800.572 755.906, 792.637 761.740, 784.515 761.899, 784.292 767.435, 775.964 767.704, 775.559 772.952, 767.047 773.315, 766.458 778.285, 757.780 778.729, 757.006 783.431, 748.180 783.940, 747.224 788.383, 738.265 788.946, 737.130 793.139, 728.051 793.744, 726.742 797.694, 717.556 798.329, 716.078 802.045, 706.794 802.701, 705.156 806.188, 695.784 806.855, 693.992 810.121, 684.541 810.790, 682.603 813.840, 673.080 814.504, 671.006 817.343, 661.417 817.995, 659.215 820.628, 649.568 821.261, 647.247 823.692, 637.547 824.301, 635.116 826.533, 625.369 827.112, 622.839 829.149, 613.049 829.694, 610.429 831.538, 600.600 832.045, 597.901 833.699, 588.038 834.164, 585.269 835.630, 575.377 836.050, 572.547 837.330, 562.629 837.701, 559.750 838.796, 549.810 839.117, 546.891 840.027, 536.932 840.296, 533.983 841.022, 524.010 841.238, 521.042 841.780, 511.057 841.941, 508.080 842.298, 498.086 842.405, 495.111 842.576, 485.112 842.627, 482.149 842.613, 472.149 842.609, 469.208 842.406, 459.210 842.347, 456.302 841.955, 446.309 841.843, 443.445 841.259, 433.462 841.094, 430.651 840.315, 420.681 840.101, 417.935 839.123, 407.983 838.861, 405.312 837.682, 395.382 837.375, 392.797 835.990, 382.893 835.642, 380.405 834.046, 370.533 833.661, 368.152 831.850, 358.318 831.433, 356.054 829.399, 346.263 828.956, 344.128 826.694, 334.387 826.230, 332.390 823.732, 322.707 823.256, 320.858 820.515, 311.241 820.033, 309.550 817.040, 300.008 816.562, 298.483 813.308, 289.027 812.844, 287.677 809.319, 278.319 808.879, 277.150 805.072, 267.903 804.668, 266.923 800.567, 257.803 800.213, 257.016 795.806, 248.039 795.516, 247.448 790.790, 238.636 790.579, 238.243 785.521, 229.617 785.405, 229.420 779.996, 221.002 774.357, 213.012 768.491, 205.473 762.404, 198.407 756.101, 191.839 749.587, 185.791 742.870, 180.288 735.958, 175.354 728.859, 171.012 721.583, 167.286 714.139, 164.199 706.540, 161.775 698.797, 160.035 690.924, 159.002 682.935, 158.695 674.846, 159.135 672.610, 159.355 " fill="none" stroke="rgb(0, 0, 0)" stroke-linecap="butt" stroke-linejoin="round" stroke-opacity="1.0" stroke-width="3.0" />
            <path d=" M 632.513, 854.590 631.965, 854.434 624.627, 852.349 616.768, 849.340 608.957, 845.548 601.212, 840.964 593.556, 835.578 586.011, 829.386 578.742, 822.518 578.598, 822.382 571.794, 815.053 571.342, 814.566 564.999, 806.835 564.265, 805.941 558.375, 797.860 557.393, 796.511 551.944, 788.126 550.748, 786.286 550.028, 785.047 548.022, 781.592 546.528, 779.020 544.354, 775.276 542.566, 771.833 541.071, 768.954 538.237, 763.499 537.559, 762.038 534.053, 754.489 532.420, 750.973 528.591, 741.735 526.927, 737.722 523.725, 729.045 521.780, 723.773 518.672, 714.268 517.001, 709.157 516.775, 708.370 514.009, 698.761 513.839, 698.169 512.612, 693.909 510.176, 684.211 508.633, 678.069 506.517, 668.295 505.083, 661.678 503.276, 651.842 501.979, 644.782 500.473, 634.896 499.336, 627.432 498.124, 617.505 497.169, 609.679 496.244, 599.722 495.488, 591.579 494.846, 581.600 494.304, 573.190 493.940, 563.196 493.625, 554.571 493.534, 544.572 493.455, 535.786 493.636, 525.787 493.782, 517.712 493.797, 516.895 494.248, 506.905 494.651, 497.965 495.371, 487.990 496.016, 479.058 497.005, 469.107 497.887, 460.240 499.146, 450.319 500.256, 441.573 501.787, 431.691 503.114, 423.122 504.919, 413.287 506.450, 404.948 508.533, 395.167 510.250, 387.110 512.616, 377.394 514.498, 369.666 517.151, 360.025 519.176, 352.671 522.124, 343.116 522.481, 341.958 523.386, 339.023 524.264, 336.177 527.514, 326.720 529.742, 320.233 533.301, 310.887 535.091, 306.187 535.588, 304.883 536.395, 302.965 539.401, 295.820 540.206, 293.905 541.777, 290.171 543.304, 286.876 544.680, 283.909 546.469, 280.051 547.082, 278.728 547.090, 278.710 548.023, 276.699 548.285, 276.133 548.373, 275.960 552.919, 267.053 553.485, 265.944 555.087, 262.803 557.047, 259.313 558.771, 256.243 562.157, 250.212 567.416, 241.707 569.468, 238.386 570.849, 236.360 576.482, 228.098 576.995, 227.346 583.014, 219.360 584.710, 217.110 591.125, 209.439 592.586, 207.692 599.408, 200.380 600.599, 199.103 607.833, 192.198 608.723, 191.349 616.371, 184.906 616.932, 184.433 624.990, 178.511 625.201, 178.356 633.509, 173.113 641.831, 168.700 650.146, 165.108 658.433, 162.325 666.672, 160.339 673.787, 159.291 674.846, 159.135 " fill="none" stroke="rgb(0, 0, 0)" stroke-linecap="butt" stroke-linejoin="round" stroke-opacity="1.0" stroke-width="3.0" />
            <path d=" M 672.610, 159.355 664.426, 160.560 656.176, 162.546 647.878, 165.328 639.553, 168.918 631.221, 173.328 622.904, 178.567 614.840, 184.482 614.625, 184.640 606.971, 191.076 606.407, 191.550 599.167, 198.448 598.275, 199.297 591.446, 206.603 590.254, 207.879 583.831, 215.543 582.369, 217.287 576.343, 225.268 574.647, 227.513 569.007, 235.771 567.114, 238.543 561.848, 247.044 559.796, 250.357 556.251, 256.658 552.720, 262.935 550.989, 266.322 550.897, 266.500 550.873, 266.548 547.390, 273.361 545.913, 276.250 545.832, 276.424 543.979, 280.413 542.617, 283.345 539.654, 289.725 539.632, 289.773 539.400, 290.273 539.260, 290.604 538.905, 291.446 538.499, 292.410 538.070, 293.427 537.109, 295.710 535.590, 299.313 534.264, 302.459 533.206, 304.970 529.642, 314.313 527.357, 320.302 524.102, 329.758 521.875, 336.229 521.416, 337.716 518.463, 347.270 516.784, 352.705 514.126, 362.345 512.104, 369.681 509.734, 379.396 507.854, 387.105 506.983, 391.187 504.897, 400.967 504.053, 404.922 502.246, 414.757 500.717, 423.076 499.184, 432.957 497.859, 441.505 496.598, 451.426 495.490, 460.150 494.501, 470.101 493.621, 478.947 493.285, 483.600 492.565, 493.574 492.418, 495.614 492.258, 497.832 491.823, 507.479 491.735, 509.432 491.405, 516.741 491.405, 516.757 491.368, 518.839 491.321, 521.443 491.141, 531.441 491.066, 535.610 491.158, 545.609 491.239, 554.374 491.606, 564.367 491.922, 572.972 492.568, 582.951 493.110, 591.340 494.038, 601.297 494.795, 609.420 496.011, 619.346 496.968, 627.154 498.478, 637.039 499.616, 644.486 500.343, 648.427 502.155, 658.262 502.727, 661.364 504.849, 671.136 506.283, 677.738 508.726, 687.435 510.269, 693.562 511.316, 697.190 514.089, 706.798 514.665, 708.795 516.197, 713.469 519.311, 722.971 519.451, 723.397 522.920, 732.776 524.606, 737.333 528.444, 746.567 530.108, 750.572 533.573, 758.015 535.933, 763.086 537.095, 765.318 540.608, 772.065 542.059, 774.854 542.102, 774.928 546.115, 781.822 547.611, 784.393 548.462, 785.854 549.646, 787.673 555.116, 796.072 561.014, 804.148 561.999, 805.495 568.349, 813.220 569.085, 814.115 575.896, 821.437 576.351, 821.926 583.626, 828.787 583.774, 828.926 591.330, 835.116 598.996, 840.500 606.752, 845.084 614.574, 848.875 622.444, 851.886 630.340, 854.128 " fill="none" stroke="rgb(0, 0, 0)" stroke-linecap="butt" stroke-linejoin="round" stroke-opacity="1.0" stroke-width="3.0" />
            <path d=" M 770.366, 565.753 770.305, 566.128 768.471, 575.958 768.063, 578.148 765.981, 587.929 765.535, 590.021 763.201, 599.744 762.726, 601.723 760.134, 611.382 759.637, 613.234 756.784, 622.818 756.274, 624.530 753.152, 634.030 752.640, 635.588 749.241, 644.993 748.738, 646.385 745.055, 655.683 744.574, 656.899 740.599, 666.074 740.153, 667.104 735.874, 676.142 735.480, 676.976 730.887, 685.859 730.561, 686.491 725.643, 695.199 725.402, 695.626 720.148, 704.134 720.012, 704.354 714.396, 712.650 708.565, 720.489 702.526, 727.846 696.291, 734.693 689.868, 741.005 683.271, 746.758 676.511, 751.926 669.601, 756.481 662.557, 760.399 655.393, 763.658 648.126, 766.232 640.774, 768.098 633.355, 769.235 625.888, 769.623 623.585, 769.506 " fill="none" stroke="rgb(0, 0, 0)" stroke-linecap="butt" stroke-linejoin="round" stroke-opacity="1.0" stroke-width="3.0" />
            <path d=" M 785.128, 570.106 775.135, 569.724 774.327, 569.693 770.366, 565.753 763.276, 558.701 756.186, 551.649 752.737, 548.219 752.111, 547.594 751.483, 546.968 750.853, 546.341 750.225, 545.714 749.508, 544.850 748.863, 543.764 748.302, 542.475 747.922, 541.273 747.838, 541.009 747.481, 539.395 747.283, 537.985 747.278, 537.945 747.238, 537.661 747.111, 535.843 747.106, 533.974 747.220, 532.092 747.387, 530.763 747.453, 530.232 747.575, 529.601 747.800, 528.431 748.253, 526.724 748.805, 525.143 749.444, 523.718 750.158, 522.478 750.932, 521.445 751.753, 520.638 751.990, 520.481 752.122, 520.393 752.603, 520.073 753.466, 519.760 754.191, 519.605 754.917, 519.450 755.641, 519.295 756.364, 519.140 756.727, 519.062 766.506, 516.973 776.285, 514.883 781.224, 513.828 " fill="none" stroke="rgb(0, 0, 0)" stroke-linecap="butt" stroke-linejoin="round" stroke-opacity="1.0" stroke-width="3.0" />
            <path d=" M 677.186, 225.974 675.794, 226.120 668.789, 226.860 660.342, 228.558 655.431, 230.029 651.871, 231.095 643.406, 234.497 634.978, 238.777 626.618, 243.941 618.545, 249.842 618.356, 249.981 610.729, 256.449 610.218, 256.881 603.037, 263.840 602.233, 264.618 595.502, 272.014 594.433, 273.188 588.159, 280.975 586.857, 282.590 581.038, 290.722 579.543, 292.811 574.171, 301.245 572.526, 303.827 567.587, 312.521 565.836, 315.602 561.313, 324.521 559.501, 328.094 556.808, 334.035 555.826, 336.202 555.282, 337.403 553.904, 340.446 553.879, 340.500 553.540, 341.248 552.442, 343.966 551.798, 345.560 549.587, 351.035 548.164, 354.557 547.977, 355.020 546.449, 359.298 545.063, 363.176 542.850, 369.371 539.863, 378.914 539.548, 379.921 538.191, 384.255 538.174, 384.319 535.558, 393.971 534.027, 399.617 533.739, 400.866 531.486, 410.609 530.380, 415.396 528.481, 425.214 527.261, 431.524 526.591, 435.780 525.036, 445.658 524.678, 447.930 523.456, 457.854 522.621, 464.632 521.713, 474.590 521.085, 481.477 520.489, 491.459 520.075, 498.392 520.066, 498.718 519.962, 502.389 519.940, 503.181 519.657, 513.177 519.597, 515.306 519.603, 517.237 519.624, 523.454 519.652, 532.144 519.660, 532.374 519.674, 532.757 520.023, 542.751 520.237, 548.835 520.908, 558.813 521.345, 565.310 522.345, 575.260 522.972, 581.498 524.306, 591.409 524.336, 591.631 525.104, 597.335 526.501, 605.549 527.727, 612.757 529.757, 622.549 530.826, 627.705 533.222, 637.414 533.534, 638.679 534.384, 642.122 537.158, 651.729 538.378, 655.956 541.544, 665.442 542.594, 668.586 542.786, 669.162 542.788, 669.169 543.642, 671.398 544.129, 672.672 546.207, 678.098 547.584, 681.695 550.313, 687.941 551.399, 690.427 551.877, 691.521 552.749, 693.516 552.894, 693.809 555.952, 699.964 556.454, 700.974 557.486, 703.051 558.251, 704.593 559.482, 706.774 564.065, 714.897 569.464, 723.315 570.163, 724.404 576.065, 732.476 576.516, 733.093 582.936, 740.761 583.096, 740.952 589.875, 747.970 596.825, 754.138 603.917, 759.456 611.125, 763.926 618.423, 767.551 623.585, 769.506 625.785, 770.339 633.185, 772.301 640.602, 773.452 648.010, 773.805 655.390, 773.379 662.720, 772.194 669.981, 770.272 677.156, 767.632 684.225, 764.299 691.174, 760.300 697.988, 755.657 704.652, 750.396 711.154, 744.544 717.481, 738.127 723.622, 731.171 729.568, 723.701 735.308, 715.746 740.834, 707.331 745.975, 698.754 746.139, 698.482 750.945, 689.713 751.214, 689.223 755.700, 680.286 756.053, 679.582 760.231, 670.497 760.651, 669.584 764.531, 660.367 765.000, 659.251 768.594, 649.919 769.098, 648.610 772.414, 639.176 772.939, 637.684 775.986, 628.160 776.518, 626.497 779.304, 616.893 779.832, 615.072 782.363, 605.398 782.877, 603.432 785.160, 593.697 785.652, 591.601 787.690, 581.811 788.151, 579.600 789.950, 569.764 790.373, 567.452 791.937, 557.575 792.316, 555.180 793.647, 545.269 793.978, 542.803 " fill="none" stroke="rgb(0, 0, 0)" stroke-linecap="butt" stroke-linejoin="round" stroke-opacity="1.0" stroke-width="3.0" />
            <path d=" M 781.224, 513.828 791.200, 514.522 791.942, 514.573 " fill="none" stroke="rgb(0, 0, 0)" stroke-linecap="butt" stroke-linejoin="round" stroke-opacity="1.0" stroke-width="3.0" />
            <path d=" M 825.270, 529.394 825.650, 524.727 826.102, 519.160 826.655, 509.175 826.804, 506.475 826.865, 504.392 827.157, 494.396 827.175, 493.774 827.205, 483.774 827.213, 481.080 826.981, 471.083 826.919, 468.417 826.428, 458.429 826.299, 455.805 825.550, 445.833 825.357, 443.266 824.346, 433.317 824.093, 430.822 823.374, 425.275 822.497, 418.499 820.932, 408.622 820.568, 406.325 818.713, 396.499 818.303, 394.327 816.154, 384.561 815.707, 382.528 813.258, 372.832 812.783, 370.950 810.034, 361.335 809.541, 359.612 806.485, 350.090 805.985, 348.535 802.606, 339.123 802.113, 337.750 798.393, 328.468 797.922, 327.293 793.847, 318.161 793.416, 317.194 788.973, 308.235 788.599, 307.481 783.778, 298.720 783.479, 298.177 778.273, 289.639 778.068, 289.302 772.471, 281.014 772.374, 280.871 766.404, 272.920 760.162, 265.489 753.655, 258.613 746.896, 252.325 739.896, 246.648 732.672, 241.600 725.239, 237.193 721.792, 235.503 717.613, 233.453 709.808, 230.420 701.842, 228.131 693.735, 226.616 685.508, 225.892 681.177, 225.935 677.186, 225.974 " fill="none" stroke="rgb(0, 0, 0)" stroke-linecap="butt" stroke-linejoin="round" stroke-opacity="1.0" stroke-width="3.0" />
            <path d=" M 655.431, 230.029 660.573, 231.910 666.894, 235.011 673.043, 238.806 679.008, 243.252 684.779, 248.322 690.344, 254.004 695.691, 260.278 700.810, 267.121 705.695, 274.500 710.339, 282.378 714.742, 290.717 718.900, 299.481 722.807, 308.654 726.370, 317.998 726.454, 318.218 729.679, 327.683 729.837, 328.148 732.740, 337.718 732.953, 338.419 735.553, 348.075 735.802, 349.000 738.116, 358.728 738.385, 359.857 740.432, 369.645 740.707, 370.960 742.494, 380.799 742.764, 382.288 744.295, 392.170 744.552, 393.824 745.833, 403.742 746.066, 405.548 747.103, 415.494 747.305, 417.436 748.106, 427.404 748.272, 429.463 748.846, 439.447 748.970, 441.604 749.325, 451.598 749.405, 453.834 749.548, 463.833 749.581, 466.130 749.509, 476.130 749.493, 478.476 749.206, 488.472 749.138, 490.849 748.637, 500.837 748.516, 503.229 747.801, 513.204 747.630, 515.594 747.051, 521.812 746.793, 522.972 746.484, 524.083 746.125, 525.134 745.723, 526.114 745.279, 527.013 744.799, 527.821 744.342, 528.453 " fill="none" stroke="rgb(0, 0, 0)" stroke-linecap="butt" stroke-linejoin="round" stroke-opacity="1.0" stroke-width="3.0" />
            <path d=" M 719.083, 530.638 719.081, 530.928 719.033, 531.478 728.516, 534.651 729.938, 535.127 739.421, 538.301 745.081, 540.195 747.922, 541.273 " fill="none" stroke="rgb(0, 0, 0)" stroke-linecap="butt" stroke-linejoin="round" stroke-opacity="1.0" stroke-width="3.0" />
            <path d=" M 803.185, 536.910 812.581, 540.332 812.979, 540.477 822.003, 543.763 823.727, 544.390 823.886, 544.442 829.663, 546.305 " fill="none" stroke="rgb(0, 0, 0)" stroke-linecap="butt" stroke-linejoin="round" stroke-opacity="1.0" stroke-width="3.0" />
            <path d=" M 799.213, 544.648 799.921, 544.686 809.906, 545.230 812.082, 545.348 814.012, 545.453 821.769, 545.875 823.716, 545.981 829.663, 546.305 830.726, 536.362 831.071, 533.138 831.879, 523.171 832.143, 519.908 832.695, 509.923 832.876, 506.637 833.172, 496.641 833.270, 493.349 833.309, 483.349 833.322, 480.067 833.103, 470.069 833.032, 466.813 832.553, 456.825 832.400, 453.612 831.658, 443.640 831.424, 440.487 830.416, 430.538 830.104, 427.462 828.826, 417.544 828.441, 414.561 826.887, 404.683 826.435, 401.808 824.599, 391.978 824.086, 389.229 821.962, 379.457 821.395, 376.848 818.976, 367.145 818.364, 364.690 815.641, 355.068 814.995, 352.783 813.303, 347.476 811.288, 341.153 807.929, 331.734 807.248, 329.826 805.585, 325.641 802.878, 318.829 798.838, 309.682 798.180, 308.193 793.782, 299.212 793.160, 297.944 788.390, 289.155 787.824, 288.110 782.669, 279.542 782.176, 278.723 776.622, 270.407 776.224, 269.811 775.992, 269.499 769.975, 261.404 769.294, 260.584 763.439, 253.532 756.624, 246.226 749.542, 239.516 742.205, 233.432 734.626, 228.003 726.820, 223.261 718.802, 219.233 710.590, 215.947 702.203, 213.430 693.661, 211.711 684.985, 210.811 676.201, 210.752 666.206, 211.082 660.957, 211.256 " fill="none" stroke="rgb(0, 0, 0)" stroke-linecap="butt" stroke-linejoin="round" stroke-opacity="1.0" stroke-width="3.0" />
            <path d=" M 676.201, 210.752 669.140, 211.393 667.331, 211.557 660.129, 212.918 658.403, 213.244 649.444, 215.827 640.484, 219.319 631.554, 223.730 622.985, 228.885 622.684, 229.066 614.544, 234.873 613.909, 235.326 606.216, 241.716 605.261, 242.509 598.027, 249.415 596.775, 250.610 590.003, 257.969 588.487, 259.616 582.173, 267.370 580.432, 269.509 574.569, 277.609 572.645, 280.268 567.225, 288.671 565.163, 291.868 560.173, 300.534 558.019, 304.275 553.883, 312.323 551.247, 317.452 550.749, 318.539 550.533, 319.012 549.888, 320.420 549.314, 321.675 545.152, 330.768 544.882, 331.357 542.880, 336.282 541.495, 339.691 538.954, 345.944 535.576, 355.356 533.494, 361.158 530.493, 370.697 529.396, 374.185 528.529, 376.943 525.898, 386.591 524.085, 393.238 521.817, 402.978 520.187, 409.979 518.274, 419.794 516.852, 427.096 515.292, 436.973 514.100, 444.517 " fill="none" stroke="rgb(0, 0, 0)" stroke-linecap="butt" stroke-linejoin="round" stroke-opacity="1.0" stroke-width="3.0" />
            <path d=" M 812.278, 531.324 812.577, 530.871 813.004, 530.108 813.404, 529.268 813.691, 528.561 813.774, 528.359 814.111, 527.386 814.412, 526.358 823.397, 528.870 825.270, 529.394 825.040, 529.980 824.643, 530.824 824.220, 531.591 823.773, 532.276 823.307, 532.872 823.013, 533.180 822.825, 533.376 822.331, 533.782 821.828, 534.086 821.320, 534.286 820.812, 534.378 820.308, 534.360 819.812, 534.232 815.283, 532.484 813.907, 531.952 813.408, 531.760 812.278, 531.324 807.679, 529.549 807.330, 528.056 806.884, 526.701 806.347, 525.506 805.729, 524.491 805.039, 523.674 804.290, 523.069 803.492, 522.687 802.661, 522.533 798.021, 522.262 797.881, 522.254 791.352, 521.871 790.790, 521.838 789.931, 521.917 789.102, 522.228 788.320, 522.768 787.563, 523.527 786.904, 524.410 786.843, 524.491 786.174, 525.645 785.567, 526.969 785.031, 528.442 784.577, 530.037 784.213, 531.729 783.944, 533.487 787.822, 534.881 788.396, 535.088 790.098, 535.197 791.389, 535.280 798.684, 535.748 799.166, 535.779 800.275, 535.850 800.363, 535.293 800.489, 534.766 800.649, 534.283 800.839, 533.858 801.053, 533.501 801.285, 533.224 801.530, 533.033 801.779, 532.933 802.028, 532.927 " fill="none" stroke="rgb(0, 0, 0)" stroke-linecap="butt" stroke-linejoin="round" stroke-opacity="1.0" stroke-width="3.0" />
            <path d=" M 790.098, 535.197 789.286, 542.553 787.951, 552.464 787.623, 554.900 786.004, 564.768 785.128, 570.106 778.088, 563.005 775.816, 560.714 771.825, 556.689 764.784, 549.587 764.235, 549.034 763.615, 548.406 762.993, 547.778 762.370, 547.149 761.747, 546.519 761.038, 545.652 760.399, 544.561 759.845, 543.267 759.604, 542.494 759.387, 541.794 759.035, 540.172 758.795, 538.430 758.700, 537.025 758.671, 536.603 758.667, 534.725 758.783, 532.834 759.016, 530.965 759.156, 530.228 759.361, 529.155 759.813, 527.439 760.361, 525.849 760.996, 524.418 761.705, 523.171 762.473, 522.132 763.287, 521.321 764.131, 520.753 764.986, 520.437 765.705, 520.281 766.424, 520.124 767.142, 519.968 767.859, 519.812 768.219, 519.733 777.991, 517.608 780.970, 516.960 790.742, 514.835 791.942, 514.573 791.352, 521.871 " fill="none" stroke="rgb(0, 0, 0)" stroke-linecap="butt" stroke-linejoin="round" stroke-opacity="1.0" stroke-width="3.0" />
            <path d=" M 512.732, 426.545 513.491, 436.516 514.100, 444.517 512.872, 454.442 511.905, 462.269 510.994, 472.228 510.268, 480.175 509.673, 490.157 509.196, 498.157 509.079, 502.356 508.800, 512.352 508.694, 516.135 508.733, 526.135 508.764, 534.032 509.123, 544.026 509.402, 551.770 510.085, 561.747 510.600, 569.273 511.615, 579.221 512.353, 586.467 513.706, 596.375 514.648, 603.279 516.346, 613.134 517.468, 619.645 519.522, 629.431 520.796, 635.498 522.398, 641.911 524.613, 650.778 527.419, 660.376 528.896, 665.430 532.098, 674.904 533.620, 679.405 537.235, 688.728 538.759, 692.656 540.560, 696.724 544.064, 704.638 544.286, 705.141 547.999, 712.511 549.562, 715.615 550.172, 716.826 553.651, 722.903 555.188, 725.588 556.387, 727.682 557.208, 728.941 562.666, 737.320 562.902, 737.683 568.868, 745.708 569.685, 746.808 576.173, 754.418 576.707, 755.044 583.724, 762.168 583.935, 762.381 591.340, 768.812 598.893, 774.335 606.564, 778.956 614.324, 782.679 622.147, 785.511 630.006, 787.469 637.875, 788.567 645.730, 788.823 653.550, 788.255 661.310, 786.888 668.992, 784.745 676.576, 781.849 684.044, 778.225 691.380, 773.904 698.566, 768.911 705.590, 763.272 712.438, 757.018 719.097, 750.177 725.555, 742.777 731.804, 734.845 737.619, 726.710 737.832, 726.411 743.288, 718.031 743.632, 717.503 748.743, 708.907 749.195, 708.147 753.975, 699.363 754.515, 698.370 758.976, 689.421 759.584, 688.201 763.740, 679.105 764.398, 677.665 768.258, 668.440 768.949, 666.788 772.525, 657.449 773.234, 655.595 776.535, 646.156 777.249, 644.112 780.282, 634.584 780.989, 632.364 783.762, 622.756 784.450, 620.372 786.970, 610.695 787.630, 608.163 789.903, 598.425 790.526, 595.759 792.556, 585.967 793.134, 583.183 794.926, 573.345 795.452, 570.457 797.010, 560.579 797.479, 557.605 798.805, 547.693 799.213, 544.648 793.978, 542.803 799.120, 543.078 809.105, 543.610 812.616, 543.797 812.263, 543.670 802.852, 540.286 799.444, 539.061 798.868, 538.854 791.337, 536.145 791.385, 535.579 791.389, 535.280 " fill="none" stroke="rgb(0, 0, 0)" stroke-linecap="butt" stroke-linejoin="round" stroke-opacity="1.0" stroke-width="3.0" />
            <path d=" M 764.663, 537.418 764.349, 537.310 764.061, 537.058 763.810, 536.672 763.607, 536.168 763.462, 535.570 763.381, 534.904 763.367, 534.199 763.421, 533.486 763.541, 532.796 763.722, 532.159 763.955, 531.604 764.230, 531.154 764.535, 530.830 764.857, 530.645 765.182, 530.608 " fill="none" stroke="rgb(0, 0, 0)" stroke-linecap="butt" stroke-linejoin="round" stroke-opacity="1.0" stroke-width="3.0" />
            <path d=" M 765.182, 530.608 765.494, 530.720 765.781, 530.975 766.031, 531.363 766.233, 531.866 766.377, 532.461 766.458, 533.125 766.472, 533.827 766.417, 534.538 766.298, 535.226 766.119, 535.861 765.887, 536.415 765.613, 536.865 765.308, 537.191 764.987, 537.378 764.663, 537.418 " fill="none" stroke="rgb(0, 0, 0)" stroke-linecap="butt" stroke-linejoin="round" stroke-opacity="1.0" stroke-width="3.0" />
            <path d=" M 504.515, 461.727 503.603, 471.685 502.821, 480.212 502.225, 490.195 501.713, 498.776 501.520, 505.712 501.242, 515.708 501.197, 517.335 501.238, 527.334 501.273, 535.806 501.637, 545.799 501.939, 554.109 502.628, 564.085 503.187, 572.164 504.209, 582.111 505.009, 589.892 506.372, 599.799 507.393, 607.221 509.104, 617.073 510.321, 624.078 512.391, 633.862 513.774, 640.399 516.216, 650.096 517.733, 656.119 520.561, 665.711 520.739, 666.317 522.173, 671.182 525.401, 680.646 527.068, 685.536 530.712, 694.848 532.390, 699.133 536.470, 708.263 538.111, 711.933 538.933, 713.548 542.516, 720.590 544.200, 723.900 546.371, 727.652 547.956, 730.392 550.626, 735.005 552.050, 737.166 553.609, 739.533 555.651, 742.631 557.358, 745.221 563.371, 753.211 564.364, 754.530 570.901, 762.097 571.611, 762.919 578.681, 769.991 579.068, 770.378 586.704, 776.901 594.487, 782.489 602.388, 787.148 610.377, 790.883 618.427, 793.705 626.510, 795.630 634.600, 796.675 642.672, 796.858 650.705, 796.201 658.674, 794.727 666.560, 792.462 674.343, 789.429 682.005, 785.658 689.529, 781.176 696.899, 776.011 704.100, 770.190 711.120, 763.745 717.946, 756.704 724.566, 749.095 730.746, 741.233 730.970, 740.947 736.779, 732.808 737.148, 732.290 742.601, 723.908 743.092, 723.152 748.202, 714.556 748.794, 713.559 753.573, 704.775 754.246, 703.540 758.709, 694.591 759.441, 693.123 763.599, 684.028 764.375, 682.333 768.238, 673.109 769.040, 671.196 772.619, 661.859 773.432, 659.739 776.737, 650.301 777.547, 647.987 780.585, 638.459 781.381, 635.964 784.159, 626.358 784.929, 623.695 787.454, 614.019 788.188, 611.203 790.465, 601.466 791.156, 598.514 793.190, 588.723 793.828, 585.649 795.623, 575.811 796.203, 572.631 797.763, 562.754 798.279, 559.485 799.605, 549.573 800.052, 546.231 799.921, 544.686 " fill="none" stroke="rgb(0, 0, 0)" stroke-linecap="butt" stroke-linejoin="round" stroke-opacity="1.0" stroke-width="3.0" />
            <path d=" M 660.957, 211.256 656.721, 211.649 652.886, 212.005 644.745, 213.636 636.558, 216.165 628.352, 219.602 620.155, 223.962 611.997, 229.249 604.067, 235.342 603.906, 235.465 596.451, 242.130 595.916, 242.608 588.937, 249.770 588.057, 250.673 581.549, 258.265 580.364, 259.648 574.315, 267.611 572.868, 269.516 567.265, 277.798 565.604, 280.254 560.433, 288.813 558.605, 291.839 553.849, 300.636 552.514, 303.106 551.904, 304.236 549.315, 309.586 548.060, 312.181 547.883, 312.547 547.350, 313.648 545.532, 317.406 541.565, 326.585 541.289, 327.222 539.906, 330.423 539.523, 331.308 535.930, 340.640 533.907, 345.894 530.675, 355.358 528.711, 361.110 527.596, 364.817 524.716, 374.394 523.962, 376.899 521.425, 386.572 519.687, 393.200 517.486, 402.954 515.908, 409.946 514.029, 419.768 512.732, 426.545 509.406, 435.976 506.788, 443.401 " fill="none" stroke="rgb(0, 0, 0)" stroke-linecap="butt" stroke-linejoin="round" stroke-opacity="1.0" stroke-width="3.0" />
            <path d=" M 506.788, 443.401 505.557, 453.325 504.515, 461.727 " fill="none" stroke="rgb(0, 0, 0)" stroke-linecap="butt" stroke-linejoin="round" stroke-opacity="1.0" stroke-width="3.0" />
            <path d=" M 813.303, 347.476 811.476, 339.835 808.909, 330.170 808.607, 329.037 805.791, 319.442 805.503, 318.459 802.430, 308.943 802.163, 308.117 798.825, 298.691 798.591, 298.028 794.978, 288.704 794.787, 288.209 790.888, 279.001 790.752, 278.680 786.555, 269.604 786.489, 269.460 781.998, 260.572 777.281, 252.038 772.341, 243.876 767.184, 236.106 761.814, 228.745 756.235, 221.814 750.452, 215.333 744.472, 209.324 738.300, 203.811 731.942, 198.819 725.407, 194.372 718.703, 190.489 711.840, 187.187 704.828, 184.484 697.680, 182.400 690.405, 180.954 683.017, 180.165 675.531, 180.055 667.960, 180.644 667.685, 180.691 660.321, 181.949 652.631, 183.981 644.906, 186.747 637.165, 190.255 629.427, 194.515 621.711, 199.531 614.040, 205.310 606.434, 211.857 599.811, 218.304 598.919, 219.173 592.163, 226.546 591.515, 227.253 590.701, 228.243 584.347, 235.965 584.247, 236.086 578.284, 244.114 577.136, 245.659 571.552, 253.954 570.205, 255.955 569.063, 257.823 567.519, 260.348 567.512, 260.359 566.796, 261.531 566.793, 261.535 563.477, 266.959 558.618, 275.699 556.977, 278.649 552.464, 287.573 550.729, 291.005 550.609, 291.266 547.380, 298.295 545.989, 301.323 544.784, 303.945 544.759, 304.000 544.060, 305.676 540.213, 314.906 539.345, 316.988 539.088, 317.604 538.034, 320.397 534.501, 329.752 533.736, 331.777 530.509, 341.242 528.723, 346.481 525.779, 356.092 524.068, 361.676 521.432, 371.322 519.792, 377.319 517.442, 387.039 515.912, 393.364 513.842, 403.147 512.442, 409.760 510.648, 419.598 509.397, 426.457 507.875, 436.340 506.788, 443.401 505.537, 453.323 504.627, 460.538 504.515, 461.727 503.529, 471.678 502.921, 477.813 502.205, 487.787 501.676, 495.167 501.227, 505.157 501.179, 506.242 500.896, 512.544 500.716, 522.543 500.584, 529.887 500.674, 539.887 500.740, 547.140 501.101, 557.133 501.359, 564.246 501.995, 574.225 502.437, 581.150 503.352, 591.108 503.967, 597.800 505.170, 607.727 505.947, 614.141 507.443, 624.029 508.365, 630.124 510.159, 639.962 511.206, 645.703 513.306, 655.480 514.455, 660.835 516.869, 670.539 518.097, 675.478 519.557, 680.607 522.115, 689.594 525.188, 699.110 526.492, 703.147 529.915, 712.543 531.212, 716.102 535.000, 725.357 536.257, 728.429 537.107, 730.281 540.611, 737.924 541.608, 740.099 544.270, 745.297 545.788, 748.260 547.240, 751.094 549.786, 755.548 551.301, 758.197 553.130, 761.398 553.297, 761.658 558.678, 770.087 559.258, 770.995 565.070, 779.133 565.600, 779.876 571.855, 787.678 572.136, 788.029 578.846, 795.447 585.709, 802.121 592.705, 808.049 599.812, 813.232 607.011, 817.679 614.279, 821.398 621.598, 824.400 628.950, 826.693 634.522, 827.901 636.318, 828.290 643.686, 829.198 651.037, 829.431 658.358, 828.999 665.632, 827.922 672.846, 826.222 679.987, 823.918 687.043, 821.030 694.002, 817.576 700.853, 813.573 707.588, 809.040 714.196, 803.992 720.668, 798.447 726.996, 792.429 733.173, 785.959 739.193, 779.060 745.050, 771.750 750.736, 764.047 756.248, 755.970 761.579, 747.535 766.636, 738.907 766.724, 738.757 771.505, 729.973 771.679, 729.654 776.195, 720.732 776.440, 720.248 780.701, 711.201 781.005, 710.557 785.020, 701.398 785.371, 700.598 789.147, 691.338 789.534, 690.388 793.078, 681.037 793.493, 679.942 796.810, 670.509 797.244, 669.276 800.339, 659.767 800.783, 658.403 803.660, 648.826 804.107, 647.339 806.775, 637.701 807.218, 636.101 809.680, 626.409 810.113, 624.704 812.373, 614.963 812.791, 613.163 814.851, 603.378 815.249, 601.492 817.112, 591.667 817.485, 589.703 819.155, 579.844 819.499, 577.813 820.977, 567.923 821.289, 565.834 822.577, 555.917 822.854, 553.781 823.716, 545.981 " fill="none" stroke="rgb(0, 0, 0)" stroke-linecap="butt" stroke-linejoin="round" stroke-opacity="1.0" stroke-width="3.0" />
            <path d=" M 665.711, 180.845 658.062, 182.150 650.362, 184.181 642.628, 186.946 634.877, 190.452 627.130, 194.709 619.405, 199.721 611.725, 205.496 604.111, 212.037 596.939, 219.005 596.587, 219.346 594.744, 221.354 589.177, 227.419 584.526, 233.060 581.901, 236.244 575.930, 244.266 574.783, 245.807 569.191, 254.098 567.846, 256.093 564.426, 261.676 564.379, 261.753 564.094, 262.217 564.020, 262.339 563.799, 262.700 563.786, 262.720 561.112, 267.085 559.038, 270.808 554.607, 278.764 550.087, 287.684 550.011, 287.834 548.354, 291.106 546.730, 294.633 545.335, 297.665 543.661, 301.300 542.883, 302.990 542.379, 304.087 538.578, 313.190 537.232, 316.413 536.704, 317.676 533.166, 327.029 531.349, 331.833 528.117, 341.297 526.332, 346.521 524.780, 351.581 521.847, 361.141 521.675, 361.699 519.034, 371.344 517.397, 377.325 515.043, 387.044 513.515, 393.351 511.442, 403.134 510.045, 409.729 508.248, 419.566 506.999, 426.406 505.475, 436.290 504.390, 443.331 503.138, 453.253 502.229, 460.449 501.246, 470.400 500.524, 477.703 499.809, 487.678 499.281, 495.038 498.833, 505.028 498.599, 510.241 498.503, 512.395 498.324, 522.394 498.193, 529.719 498.285, 539.718 498.352, 546.952 498.716, 556.945 498.975, 564.038 499.614, 574.018 500.056, 580.924 500.975, 590.882 501.591, 597.556 502.798, 607.482 503.576, 613.879 505.076, 623.766 505.999, 629.845 507.798, 639.682 508.845, 645.407 510.951, 655.183 512.101, 660.523 514.520, 670.226 515.749, 675.151 518.493, 684.767 519.016, 686.600 519.773, 689.253 522.854, 698.767 524.157, 702.793 527.588, 712.186 528.885, 715.736 532.681, 724.988 533.938, 728.051 536.679, 734.017 539.296, 739.711 540.196, 741.463 543.844, 748.571 544.936, 750.697 545.374, 751.461 549.409, 758.503 550.835, 760.992 550.911, 761.110 552.941, 764.283 556.972, 770.582 562.792, 778.714 563.323, 779.456 569.586, 787.252 569.868, 787.604 576.587, 795.016 583.459, 801.687 590.465, 807.612 597.583, 812.793 604.791, 817.239 612.069, 820.958 619.398, 823.960 626.761, 826.255 634.139, 827.853 " fill="none" stroke="rgb(0, 0, 0)" stroke-linecap="butt" stroke-linejoin="round" stroke-opacity="1.0" stroke-width="3.0" />
            <path d=" M 667.960, 180.644 665.711, 180.845 " fill="none" stroke="rgb(0, 0, 0)" stroke-linecap="butt" stroke-linejoin="round" stroke-opacity="1.0" stroke-width="3.0" />
            <path d=" M 634.139, 827.853 636.318, 828.290 " fill="none" stroke="rgb(0, 0, 0)" stroke-linecap="butt" stroke-linejoin="round" stroke-opacity="1.0" stroke-width="3.0" />
            <path d=" M 488.859, 439.901 487.594, 449.820 486.958, 454.810 486.357, 459.530 485.365, 469.480 484.384, 479.320 483.665, 489.294 482.949, 499.204 482.585, 507.330 482.584, 507.358 482.169, 516.607 482.057, 519.112 482.029, 520.684 481.976, 523.728 481.801, 533.726 481.709, 538.975 481.808, 548.975 481.905, 558.724 482.282, 568.717 482.643, 578.292 483.300, 588.271 483.916, 597.612 484.858, 607.568 485.715, 616.621 486.949, 626.545 488.032, 635.256 489.563, 645.138 490.852, 653.458 492.688, 663.288 494.160, 671.171 496.309, 680.938 497.939, 688.344 500.412, 698.033 502.171, 704.926 504.978, 714.524 506.835, 720.874 509.988, 730.364 511.909, 736.146 512.936, 738.885 514.665, 743.494 517.370, 750.706 521.254, 759.921 521.658, 760.879 523.194, 764.522 527.465, 773.564 529.356, 777.565 529.968, 778.722 530.372, 779.487 530.765, 780.230 531.458, 781.542 533.955, 786.265 535.830, 789.811 537.413, 792.486 538.518, 794.355 538.934, 795.058 540.001, 796.861 542.592, 801.242 542.958, 801.794 543.574, 802.724 544.468, 804.073 546.551, 807.218 549.614, 811.840 555.583, 819.864 556.872, 821.596 563.297, 829.258 564.339, 830.499 571.228, 837.747 571.989, 838.548 579.344, 845.322 579.797, 845.739 587.614, 851.976 587.740, 852.076 595.792, 857.563 603.931, 862.209 612.134, 866.023 620.380, 869.018 628.647, 871.208 632.967, 872.160 641.215, 873.556 649.446, 874.180 657.644, 874.050 665.790, 873.188 673.871, 871.613 681.870, 869.348 689.775, 866.416 697.572, 862.838 705.249, 858.639 712.796, 853.841 720.202, 848.467 727.457, 842.542 734.553, 836.088 741.482, 829.128 748.237, 821.685 754.632, 813.997 754.811, 813.781 760.889, 805.841 761.197, 805.439 766.970, 797.273 767.391, 796.678 772.869, 788.313 773.387, 787.522 778.581, 778.977 779.181, 777.990 784.100, 769.284 784.768, 768.103 789.423, 759.253 790.144, 757.880 794.544, 748.900 795.308, 747.341 799.460, 738.244 800.254, 736.504 804.167, 727.302 804.981, 725.388 808.662, 716.091 809.485, 714.011 812.941, 704.627 813.765, 702.389 817.002, 692.928 817.819, 690.540 820.843, 681.008 821.644, 678.481 824.459, 668.885 825.239, 666.227 827.851, 656.574 828.603, 653.794 831.014, 644.089 831.733, 641.197 833.948, 631.446 834.628, 628.453 836.651, 618.660 837.288, 615.575 839.120, 605.745 839.711, 602.579 841.355, 592.715 841.895, 589.478 843.353, 579.585 843.839, 576.286 845.113, 566.368 845.543, 563.019 846.634, 553.079 847.006, 549.689 847.914, 539.731 848.226, 536.311 848.952, 526.338 849.202, 522.898 849.746, 512.913 849.933, 509.465 850.294, 499.471 850.419, 496.024 850.597, 486.025 850.658, 482.590 850.652, 472.590 850.649, 469.176 850.457, 459.178 850.392, 455.798 850.012, 445.805 849.885, 442.468 849.315, 432.484 849.127, 429.202 848.364, 419.231 848.118, 416.013 847.159, 406.059 846.856, 402.918 845.698, 392.985 845.341, 389.931 843.979, 380.024 843.572, 377.068 842.001, 367.192 841.548, 364.344 839.764, 354.504 839.269, 351.776 837.265, 341.979 836.734, 339.381 834.504, 329.633 833.942, 327.176 831.479, 317.484 830.894, 315.179 828.190, 305.551 827.588, 303.408 824.636, 293.853 824.026, 291.880 820.816, 282.410 820.208, 280.617 816.729, 271.242 816.134, 269.637 812.376, 260.370 811.805, 258.961 807.756, 249.817 807.222, 248.610 802.871, 239.606 802.387, 238.604 797.719, 229.760 797.301, 228.967 792.304, 220.305 791.967, 219.721 786.627, 211.266 786.388, 210.889 780.690, 202.671 780.568, 202.494 774.509, 194.560 768.217, 187.112 761.698, 180.176 754.956, 173.775 747.998, 167.935 740.833, 162.682 733.469, 158.041 725.915, 154.037 718.181, 150.697 710.280, 148.044 702.222, 146.103 694.023, 144.897 685.696, 144.450 677.258, 144.782 672.808, 145.248 664.253, 146.383 655.622, 148.335 646.935, 151.121 638.212, 154.756 629.476, 159.254 620.959, 164.494 620.749, 164.623 612.629, 170.460 612.056, 170.873 604.346, 177.242 603.420, 178.006 596.126, 184.847 594.869, 186.025 587.988, 193.282 586.428, 194.927 579.956, 202.550 578.126, 204.706 572.054, 212.651 569.990, 215.352 564.307, 223.581 562.047, 226.852 556.742, 235.329 554.328, 239.187 549.389, 247.882 546.860, 252.335 544.204, 257.482 541.433, 262.854 540.536, 264.594 539.672, 266.268 539.404, 266.840 539.179, 267.320 536.514, 273.009 535.168, 275.882 532.797, 280.944 532.791, 280.957 531.834, 283.208 531.679, 283.574 530.412, 286.556 527.062, 294.441 526.245, 296.365 525.333, 298.737 524.078, 302.001 520.490, 311.335 520.061, 312.452 516.833, 321.763 514.263, 329.174 511.293, 338.722 510.346, 341.765 508.878, 346.483 506.204, 356.119 503.927, 364.328 501.544, 374.040 499.431, 382.652 497.333, 392.429 495.410, 401.397 493.593, 411.230 491.881, 420.501 490.723, 427.936 489.184, 437.816 489.103, 438.333 488.859, 439.901 " fill="none" stroke="rgb(0, 0, 0)" stroke-linecap="butt" stroke-linejoin="round" stroke-opacity="1.0" stroke-width="3.0" />
            <path d=" M 677.258, 144.782 668.726, 145.915 660.117, 147.867 651.452, 150.654 642.751, 154.293 634.036, 158.796 625.527, 164.050 625.329, 164.173 617.220, 170.024 616.655, 170.432 608.957, 176.815 608.038, 177.577 600.757, 184.431 599.505, 185.609 592.638, 192.879 591.082, 194.527 584.624, 202.162 582.795, 204.324 576.738, 212.280 574.674, 214.991 569.006, 223.229 566.747, 226.513 561.456, 234.999 559.041, 238.873 554.116, 247.576 551.585, 252.047 547.148, 260.680 545.518, 263.851 544.408, 266.010 543.990, 266.906 543.949, 266.993 543.938, 267.017 542.025, 271.116 540.667, 274.025 537.537, 280.731 535.552, 285.420 534.650, 287.551 533.448, 290.390 532.149, 293.458 531.000, 296.172 527.423, 305.510 524.824, 312.294 521.558, 321.746 519.040, 329.034 519.034, 329.054 516.072, 338.605 513.654, 346.402 510.988, 356.040 508.707, 364.287 507.752, 368.190 505.376, 377.904 505.269, 378.343 504.214, 382.653 504.020, 383.560 501.929, 393.339 500.196, 401.441 499.523, 405.093 497.711, 414.928 496.668, 420.589 495.132, 430.470 493.646, 440.033 493.350, 442.357 492.088, 452.277 491.234, 458.988 491.142, 459.708 490.152, 469.659 489.168, 479.544 488.448, 489.518 487.729, 499.474 487.535, 503.784 487.373, 507.407 487.285, 509.359 486.956, 516.680 486.862, 518.760 486.832, 519.428 486.754, 523.815 486.577, 533.814 486.479, 539.336 486.570, 548.859 486.666, 558.862 486.668, 559.130 487.040, 569.123 487.398, 578.742 488.049, 588.721 488.662, 598.105 489.598, 608.061 490.452, 617.155 491.678, 627.080 492.758, 635.831 494.280, 645.714 495.566, 654.072 497.392, 663.904 498.862, 671.823 501.000, 681.592 502.628, 689.031 505.089, 698.723 505.201, 699.165 506.846, 705.647 509.640, 715.249 511.495, 721.626 514.169, 729.716 516.553, 736.928 520.050, 746.296 521.998, 751.515 525.866, 760.736 527.804, 765.355 531.392, 772.984 533.948, 778.421 534.892, 780.214 538.339, 786.763 539.823, 789.584 540.404, 790.688 543.831, 796.505 545.318, 799.030 547.147, 802.136 547.349, 802.443 552.857, 810.790 554.150, 812.751 560.103, 820.786 561.387, 822.519 567.798, 830.194 568.833, 831.434 575.709, 838.695 576.462, 839.491 583.806, 846.279 584.250, 846.689 592.056, 852.939 592.170, 853.031 600.201, 858.521 608.317, 863.168 616.498, 866.981 624.722, 869.974 632.967, 872.160 " fill="none" stroke="rgb(0, 0, 0)" stroke-linecap="butt" stroke-linejoin="round" stroke-opacity="1.0" stroke-width="3.0" />
            <path d=" M 747.575, 529.601 744.342, 528.453 734.835, 525.079 734.456, 523.629 733.976, 522.312 733.403, 521.150 732.745, 520.163 732.015, 519.367 731.223, 518.776 730.383, 518.402 729.509, 518.249 719.526, 517.665 718.351, 517.596 717.452, 517.668 716.582, 517.966 715.759, 518.486 714.964, 519.217 714.211, 520.149 713.511, 521.265 712.878, 522.546 712.322, 523.971 711.852, 525.516 711.478, 527.154 711.206, 528.858 715.919, 530.435 719.083, 530.638 727.083, 531.152 727.174, 530.612 727.304, 530.102 727.470, 529.634 727.668, 529.223 727.892, 528.878 728.136, 528.611 728.393, 528.426 728.657, 528.331 728.920, 528.327 " fill="none" stroke="rgb(0, 0, 0)" stroke-linecap="butt" stroke-linejoin="round" stroke-opacity="1.0" stroke-width="3.0" />
            <path d=" M 729.509, 518.249 728.616, 518.322 727.753, 518.622 726.936, 519.145 726.146, 519.881 725.398, 520.818 724.703, 521.939 724.073, 523.227 723.520, 524.660 723.053, 526.212 722.680, 527.859 722.669, 527.934 722.409, 529.571 " fill="none" stroke="rgb(0, 0, 0)" stroke-linecap="butt" stroke-linejoin="round" stroke-opacity="1.0" stroke-width="3.0" />
            <path d=" M 711.206, 528.858 718.964, 529.352 722.409, 529.571 727.083, 531.152 " fill="none" stroke="rgb(0, 0, 0)" stroke-linecap="butt" stroke-linejoin="round" stroke-opacity="1.0" stroke-width="3.0" />
            <path d=" M 728.920, 528.327 729.175, 528.414 729.415, 528.590 729.633, 528.850 729.824, 529.187 729.982, 529.592 730.104, 530.053 730.185, 530.558 730.224, 531.093 730.219, 531.645 730.172, 532.197 " fill="none" stroke="rgb(0, 0, 0)" stroke-linecap="butt" stroke-linejoin="round" stroke-opacity="1.0" stroke-width="3.0" />
            <path d=" M 719.033, 531.478 729.012, 532.122 730.172, 532.197 739.644, 535.401 747.076, 537.914 747.283, 537.985 " fill="none" stroke="rgb(0, 0, 0)" stroke-linecap="butt" stroke-linejoin="round" stroke-opacity="1.0" stroke-width="3.0" />
            <path d=" M 802.661, 522.533 801.809, 522.613 800.987, 522.926 800.212, 523.470 799.462, 524.233 798.748, 525.202 798.121, 526.298 798.084, 526.363 797.481, 527.694 796.950, 529.175 796.498, 530.779 796.136, 532.479 796.124, 532.556 795.868, 534.246 " fill="none" stroke="rgb(0, 0, 0)" stroke-linecap="butt" stroke-linejoin="round" stroke-opacity="1.0" stroke-width="3.0" />
            <path d=" M 783.944, 533.487 791.285, 533.954 795.868, 534.246 798.655, 535.260 800.275, 535.850 " fill="none" stroke="rgb(0, 0, 0)" stroke-linecap="butt" stroke-linejoin="round" stroke-opacity="1.0" stroke-width="3.0" />
            <path d=" M 802.028, 532.927 802.268, 533.016 802.493, 533.196 802.698, 533.463 802.876, 533.809 803.023, 534.226 803.135, 534.700 803.208, 535.221 803.241, 535.772 803.234, 536.341 803.185, 536.910 798.736, 536.623 791.337, 536.145 " fill="none" stroke="rgb(0, 0, 0)" stroke-linecap="butt" stroke-linejoin="round" stroke-opacity="1.0" stroke-width="3.0" />
            <path d=" M 787.122, 500.469 787.324, 500.547 787.503, 500.667 787.655, 500.823 787.774, 501.011 787.855, 501.226 787.894, 501.461 787.887, 501.712 787.837, 501.946 787.746, 502.169 787.619, 502.373 787.459, 502.550 787.273, 502.693 787.065, 502.799 786.842, 502.861 786.608, 502.875 786.449, 502.854 786.296, 502.809 " fill="none" stroke="rgb(0, 0, 0)" stroke-linecap="butt" stroke-linejoin="round" stroke-opacity="1.0" stroke-width="3.0" />
            <path d=" M 787.122, 500.469 787.099, 500.461 787.087, 500.458 787.068, 500.452 787.031, 500.444 786.989, 500.437 786.944, 500.430 786.897, 500.424 786.850, 500.420 786.803, 500.417 786.763, 500.416 786.728, 500.416 786.700, 500.418 786.495, 500.447 786.455, 500.453 786.241, 500.530 786.207, 500.544 786.004, 500.667 785.828, 500.827 785.686, 501.021 785.672, 501.049 785.569, 501.273 785.512, 501.519 785.506, 501.757 785.548, 501.990 785.634, 502.211 785.763, 502.412 785.787, 502.438 785.948, 502.605 786.142, 502.737 786.296, 502.809 " fill="none" stroke="rgb(0, 0, 0)" stroke-linecap="butt" stroke-linejoin="round" stroke-opacity="1.0" stroke-width="3.0" />
            <path d=" M 784.315, 498.468 783.564, 504.560 784.483, 504.721 786.910, 504.821 789.852, 504.943 790.097, 498.801 789.958, 498.744 787.161, 498.607 784.315, 498.468 " fill="none" stroke="rgb(0, 0, 0)" stroke-linecap="butt" stroke-linejoin="round" stroke-opacity="1.0" stroke-width="3.0" />
            <path d=" M 783.564, 504.560 789.208, 504.851 " fill="none" stroke="rgb(0, 0, 0)" stroke-linecap="butt" stroke-linejoin="round" stroke-opacity="1.0" stroke-width="3.0" />
            <path d=" M 789.852, 504.943 789.208, 504.851 789.958, 498.744 " fill="none" stroke="rgb(0, 0, 0)" stroke-linecap="butt" stroke-linejoin="round" stroke-opacity="1.0" stroke-width="3.0" />
            <path d=" M 729.938, 535.127 727.227, 534.660 717.402, 532.798 715.784, 532.491 705.987, 530.486 704.352, 530.151 694.581, 528.025 692.926, 527.665 683.177, 525.440 681.499, 525.057 671.768, 522.752 670.063, 522.349 660.346, 519.986 658.614, 519.564 648.907, 517.161 647.145, 516.725 637.443, 514.301 635.650, 513.853 625.949, 511.426 624.124, 510.969 614.419, 508.557 612.560, 508.095 602.847, 505.716 600.954, 505.252 591.230, 502.923 589.301, 502.461 579.560, 500.197 577.594, 499.740 577.174, 489.749 577.010, 485.850 576.462, 475.865 576.256, 472.123 575.575, 462.146 575.331, 458.579 574.511, 448.613 574.233, 445.242 573.268, 435.288 572.962, 432.133 571.845, 422.195 571.517, 419.275 570.240, 409.357 569.897, 406.692 568.451, 396.797 568.102, 394.411 566.475, 384.544 566.131, 382.458 564.310, 372.625 563.983, 370.858 561.955, 361.066 561.660, 359.641 559.405, 349.899 559.159, 348.837 558.101, 344.740 556.482, 338.475 555.826, 336.202 " fill="none" stroke="rgb(0, 0, 0)" stroke-linecap="butt" stroke-linejoin="round" stroke-opacity="1.0" stroke-width="3.0" />
            <path d=" M 536.185, 266.733 535.049, 266.583 533.007, 266.315 528.132, 265.673 526.350, 265.269 524.094, 264.756 519.769, 263.773 514.871, 262.205 512.500, 261.446 511.281, 261.055 " fill="none" stroke="rgb(0, 0, 0)" stroke-linecap="butt" stroke-linejoin="round" stroke-opacity="1.0" stroke-width="3.0" />
            <path d=" M 511.281, 261.055 506.550, 259.633 501.705, 259.162 496.756, 259.676 491.716, 261.207 487.928, 263.116 486.599, 263.787 484.077, 265.568 481.419, 267.447 477.732, 270.805 476.192, 272.208 470.937, 278.092 469.358, 280.199 465.672, 285.115 460.746, 292.779 460.417, 293.291 456.496, 300.294 455.193, 302.623 450.770, 311.592 450.022, 313.109 446.011, 322.269 444.928, 324.743 441.285, 334.056 439.934, 337.510 436.624, 346.946 435.066, 351.385 432.057, 360.921 430.348, 366.336 427.616, 375.956 425.806, 382.326 423.329, 392.014 421.465, 399.305 419.225, 409.051 417.349, 417.215 415.333, 427.010 413.483, 435.990 411.678, 445.826 409.892, 455.558 408.287, 465.428 406.683, 475.299 406.595, 475.835 405.184, 485.735 403.771, 495.634 403.615, 496.731 402.390, 506.656 401.164, 516.580 400.970, 518.151 399.926, 528.097 398.882, 538.042 398.677, 539.994 397.811, 549.957 396.945, 559.919 396.751, 562.153 396.060, 572.130 395.369, 582.106 395.202, 584.518 394.686, 594.505 394.170, 604.492 394.042, 606.977 393.701, 616.971 393.360, 626.965 393.276, 629.414 393.111, 639.413 392.946, 649.412 392.908, 651.718 392.922, 661.718 392.936, 671.718 392.939, 673.773 393.135, 683.772 393.332, 693.770 393.366, 695.472 393.751, 705.465 394.136, 715.457 394.185, 716.709 394.765, 726.692 395.345, 736.675 395.386, 737.382 396.171, 747.351 396.961, 757.395 396.984, 757.290 399.154, 747.528 401.324, 737.766 402.559, 732.209 402.610, 731.993 404.877, 722.254 407.145, 712.514 408.271, 707.677 410.640, 697.962 413.008, 688.246 414.097, 683.780 416.569, 674.090 419.041, 664.400 420.037, 660.496 422.616, 650.834 425.195, 641.173 426.093, 637.807 428.781, 628.175 431.470, 618.544 432.265, 615.693 435.066, 606.093 437.866, 596.493 438.554, 594.135 441.470, 584.569 444.386, 575.004 444.962, 573.114 447.995, 563.585 451.029, 554.056 451.489, 552.611 454.642, 543.121 457.796, 533.632 458.136, 532.609 461.412, 523.161 464.689, 513.713 464.905, 513.090 468.306, 503.687 471.708, 494.283 471.797, 494.037 475.325, 484.680 478.813, 475.432 482.471, 466.125 485.956, 457.258 486.958, 454.810 " fill="none" stroke="rgb(0, 0, 0)" stroke-linecap="butt" stroke-linejoin="round" stroke-opacity="1.0" stroke-width="3.0" />
            <path d=" M 366.811, 748.866 362.903, 758.070 361.988, 760.226 " fill="none" stroke="rgb(0, 0, 0)" stroke-linecap="butt" stroke-linejoin="round" stroke-opacity="1.0" stroke-width="3.0" />
            <path d=" M 487.928, 263.116 477.932, 262.852 475.992, 262.801 " fill="none" stroke="rgb(0, 0, 0)" stroke-linecap="butt" stroke-linejoin="round" stroke-opacity="1.0" stroke-width="3.0" />
            <path d=" M 531.046, 469.758 531.039, 469.778 " fill="none" stroke="rgb(0, 0, 0)" stroke-linecap="butt" stroke-linejoin="round" stroke-opacity="1.0" stroke-width="3.0" />
            <path d=" M 539.404, 266.840 539.066, 266.829 536.185, 266.733 535.075, 266.695 533.081, 266.629 531.424, 266.573 " fill="none" stroke="rgb(0, 0, 0)" stroke-linecap="butt" stroke-linejoin="round" stroke-opacity="1.0" stroke-width="3.0" />
            <path d=" M 557.796, 508.544 557.743, 506.055 " fill="none" stroke="rgb(0, 0, 0)" stroke-linecap="butt" stroke-linejoin="round" stroke-opacity="1.0" stroke-width="3.0" />
            <path d=" M 558.675, 349.903 558.101, 344.740 " fill="none" stroke="rgb(0, 0, 0)" stroke-linecap="butt" stroke-linejoin="round" stroke-opacity="1.0" stroke-width="3.0" />
        </g>
    </g>
</svg>
