<?xml version='1.0' encoding='ascii'?>
<svg xmlns="http://www.w3.org/2000/svg" height="1080" version="1.1" width="1080">
    <g id="View Layer_LineSet" inkscape:groupmode="lineset" inkscape:label="View Layer_LineSet" xmlns:inkscape="http://www.inkscape.org/namespaces/inkscape">
        <g id="strokes" inkscape:groupmode="layer" inkscape:label="strokes" xmlns:inkscape="http://www.inkscape.org/namespaces/inkscape">
            <path d=" M 564.151, 490.565 564.155, 491.724 564.138, 492.888 564.102, 494.045 564.045, 495.185 564.024, 495.487 563.969, 496.297 563.875, 497.369 563.762, 498.390 563.633, 499.349 563.487, 500.240 563.375, 500.832 563.256, 501.379 563.230, 501.481 563.130, 501.879 563.000, 502.327 562.957, 502.452 562.864, 502.723 562.725, 503.063 562.582, 503.346 560.668, 506.716 559.771, 508.294 559.608, 508.581 " fill="none" stroke="rgb(0, 0, 0)" stroke-linecap="butt" stroke-linejoin="round" stroke-opacity="1.0" stroke-width="3.0" />
            <path d=" M 361.362, 753.419 367.525, 757.862 " fill="none" stroke="rgb(0, 0, 0)" stroke-linecap="butt" stroke-linejoin="round" stroke-opacity="1.0" stroke-width="3.0" />
            <path d=" M 385.193, 758.860 394.715, 755.807 396.782, 755.144 " fill="none" stroke="rgb(0, 0, 0)" stroke-linecap="butt" stroke-linejoin="round" stroke-opacity="1.0" stroke-width="3.0" />
            <path d=" M 396.782, 755.144 391.907, 746.413 387.031, 737.682 386.356, 736.473 " fill="none" stroke="rgb(0, 0, 0)" stroke-linecap="butt" stroke-linejoin="round" stroke-opacity="1.0" stroke-width="3.0" />
            <path d=" M 472.342, 259.965 467.957, 260.780 463.506, 262.650 459.002, 265.608 454.459, 269.683 449.892, 274.900 448.430, 276.940 445.318, 281.279 444.951, 281.888 440.755, 288.838 436.221, 297.587 432.107, 306.702 431.735, 307.529 428.047, 316.824 427.318, 318.660 424.003, 328.095 422.992, 330.974 420.007, 340.518 418.778, 344.448 416.089, 354.079 414.700, 359.055 412.277, 368.757 410.778, 374.761 408.600, 384.521 407.038, 391.520 405.084, 401.327 403.500, 409.277 401.754, 419.123 400.186, 427.966 398.635, 437.845 397.118, 447.517 395.752, 457.423 394.387, 467.329 394.316, 467.845 393.126, 477.774 391.937, 487.703 391.798, 488.861 390.777, 498.809 389.757, 508.757 389.582, 510.466 388.725, 520.430 387.869, 530.393 387.683, 532.557 386.986, 542.533 386.289, 552.508 386.114, 555.022 385.574, 565.007 385.034, 574.993 384.885, 577.746 384.500, 587.739 384.116, 597.731 384.005, 600.612 383.776, 610.609 383.546, 620.607 383.480, 623.499 383.406, 633.499 383.332, 643.499 383.312, 646.288 383.396, 656.288 383.479, 666.288 383.501, 668.860 383.745, 678.857 383.989, 688.854 384.044, 691.097 384.454, 701.088 384.863, 711.080 384.937, 712.887 385.517, 722.870 386.096, 732.853 386.170, 734.123 386.356, 736.473 385.837, 746.460 385.318, 756.446 385.193, 758.860 " fill="none" stroke="rgb(0, 0, 0)" stroke-linecap="butt" stroke-linejoin="round" stroke-opacity="1.0" stroke-width="3.0" />
            <path d=" M 566.968, 520.201 567.789, 520.216 567.983, 520.219 572.722, 511.414 574.690, 507.758 577.738, 503.518 577.335, 493.526 577.168, 489.372 576.635, 479.386 576.422, 475.391 575.755, 465.414 575.500, 461.597 574.692, 451.630 574.399, 448.013 573.445, 438.059 573.119, 434.663 572.011, 424.725 571.660, 421.571 570.390, 411.652 570.020, 408.762 568.578, 398.867 568.199, 396.264 566.574, 386.397 566.196, 384.104 564.374, 374.271 564.011, 372.308 561.977, 362.517 561.643, 360.908 559.379, 351.168 559.093, 349.936 558.544, 347.823 556.361, 339.421 555.903, 337.846 " fill="none" stroke="rgb(0, 0, 0)" stroke-linecap="butt" stroke-linejoin="round" stroke-opacity="1.0" stroke-width="3.0" />
            <path d=" M 552.392, 345.760 553.082, 348.092 554.056, 351.387 556.371, 360.149 556.684, 361.334 558.981, 371.067 559.138, 371.732 561.200, 381.518 561.418, 382.551 562.386, 387.702 563.524, 393.760 565.172, 403.624 565.457, 405.330 566.918, 415.223 567.215, 417.233 568.501, 427.150 568.799, 429.444 569.921, 439.381 570.210, 441.935 571.177, 451.888 571.449, 454.682 572.267, 464.648 572.515, 467.661 573.192, 477.638 573.410, 480.848 573.951, 490.833 574.135, 494.221 574.178, 495.269 574.130, 496.078 574.073, 496.868 574.006, 497.635 573.929, 498.375 573.844, 499.084 573.751, 499.758 573.649, 500.393 573.541, 500.986 573.426, 501.534 573.305, 502.034 573.179, 502.484 573.048, 502.880 572.913, 503.220 572.776, 503.504 568.805, 510.765 568.579, 509.961 568.334, 509.345 568.073, 508.926 567.802, 508.713 567.712, 508.712 565.127, 508.670 564.202, 508.655 563.983, 508.652 563.342, 508.641 559.775, 508.584 559.608, 508.581 557.992, 508.555 557.765, 508.551 557.421, 508.546 557.133, 508.542 556.843, 508.749 556.556, 509.163 556.278, 509.778 556.012, 510.583 555.964, 510.775 555.764, 511.567 555.538, 512.712 555.338, 514.000 555.166, 515.407 555.027, 516.911 554.923, 518.486 554.855, 520.104 554.825, 521.737 554.832, 523.358 554.878, 524.939 556.188, 524.963 558.029, 524.996 558.138, 524.998 559.917, 525.031 563.478, 525.096 564.296, 525.111 565.260, 525.128 565.340, 525.130 566.932, 522.172 566.920, 521.669 566.923, 521.153 566.940, 520.638 566.968, 520.201 566.972, 520.138 567.017, 519.667 567.074, 519.238 567.141, 518.863 567.217, 518.551 567.300, 518.312 567.387, 518.151 567.475, 518.074 " fill="none" stroke="rgb(0, 0, 0)" stroke-linecap="butt" stroke-linejoin="round" stroke-opacity="1.0" stroke-width="3.0" />
            <path d=" M 461.995, 930.116 457.965, 929.015 457.912, 928.987 453.938, 926.886 449.929, 923.698 449.390, 923.120 445.954, 919.427 442.028, 914.053 438.168, 907.563 434.391, 899.945 430.717, 891.193 427.332, 881.783 427.163, 881.312 424.197, 871.762 423.747, 870.313 421.147, 860.656 420.489, 858.209 418.213, 848.471 417.407, 845.024 415.419, 835.224 414.520, 830.794 412.791, 820.944 411.845, 815.558 410.353, 805.670 409.401, 799.364 408.125, 789.446 407.202, 782.271 406.128, 772.329 405.265, 764.345 404.379, 754.385 403.603, 745.659 402.872, 735.686 402.192, 726.420 402.149, 725.622 " fill="none" stroke="rgb(0, 0, 0)" stroke-linecap="butt" stroke-linejoin="round" stroke-opacity="1.0" stroke-width="3.0" />
            <path d=" M 381.804, 351.523 380.516, 356.973 378.462, 366.760 377.245, 372.561 375.414, 382.392 374.145, 389.205 372.518, 399.071 371.236, 406.851 369.798, 416.747 368.534, 425.440 367.273, 435.360 366.060, 444.901 364.965, 454.841 363.869, 464.780 363.828, 465.154 362.890, 475.110 361.953, 485.066 361.854, 486.112 361.067, 496.081 360.281, 506.050 360.152, 507.680 359.511, 517.660 358.871, 527.639 358.735, 529.757 358.236, 539.744 357.737, 549.732 357.612, 552.233 357.251, 562.227 356.891, 572.220 356.791, 574.997 356.568, 584.995 356.345, 594.992 356.279, 597.933 356.193, 607.933 356.106, 617.933 356.080, 620.923 356.130, 630.923 356.180, 640.922 356.195, 643.846 356.383, 653.845 356.571, 663.843 356.622, 666.586 356.951, 676.580 357.279, 686.575 357.360, 689.024 357.832, 699.013 358.304, 709.002 358.401, 711.047 359.022, 721.028 359.643, 731.008 359.738, 732.547 360.514, 742.516 361.289, 752.486 361.362, 753.419 362.354, 763.369 363.350, 773.354 364.543, 783.282 365.645, 792.455 367.053, 802.356 368.230, 810.643 369.869, 820.508 371.088, 827.847 372.979, 837.667 374.199, 844.005 376.367, 853.767 377.544, 859.065 380.021, 868.753 381.103, 872.986 383.928, 882.579 384.856, 885.733 385.451, 887.483 " fill="none" stroke="rgb(0, 0, 0)" stroke-linecap="butt" stroke-linejoin="round" stroke-opacity="1.0" stroke-width="3.0" />
            <path d=" M 524.129, 532.838 524.329, 542.836 524.375, 545.109 524.466, 555.108 524.501, 559.034 524.484, 569.034 524.477, 573.025 524.352, 583.024 524.301, 587.062 524.121, 594.842 " fill="none" stroke="rgb(0, 0, 0)" stroke-linecap="butt" stroke-linejoin="round" stroke-opacity="1.0" stroke-width="3.0" />
            <path d=" M 512.429, 739.693 510.949, 749.583 510.588, 751.996 508.974, 761.864 508.492, 764.816 506.737, 774.661 506.251, 777.387 504.349, 787.205 503.868, 789.685 501.809, 799.470 501.344, 801.680 499.117, 811.429 498.680, 813.346 496.274, 823.052 495.877, 824.653 493.278, 834.309 492.938, 835.572 490.130, 845.170 489.866, 846.072 486.828, 855.599 486.662, 856.119 483.373, 865.563 483.331, 865.682 479.875, 874.726 476.300, 883.214 472.609, 891.111 468.808, 898.380 464.902, 904.984 460.900, 910.881 456.808, 916.035 452.634, 920.407 449.390, 923.120 " fill="none" stroke="rgb(0, 0, 0)" stroke-linecap="butt" stroke-linejoin="round" stroke-opacity="1.0" stroke-width="3.0" />
            <path d=" M 396.428, 750.416 396.782, 755.144 397.692, 765.102 398.599, 775.020 399.710, 784.958 400.729, 794.067 402.055, 803.979 403.156, 812.206 404.715, 822.084 405.864, 829.366 407.674, 839.200 408.831, 845.484 410.918, 855.264 412.038, 860.512 414.430, 870.222 415.461, 874.406 418.196, 884.025 419.080, 887.132 422.202, 896.632 422.871, 898.666 426.435, 908.009 426.810, 908.994 430.877, 918.108 435.049, 926.005 436.941, 928.981 437.191, 929.373 439.304, 932.695 443.622, 938.192 447.983, 942.514 452.369, 945.682 456.762, 947.728 461.147, 948.684 465.507, 948.582 469.829, 947.460 474.100, 945.360 478.075, 942.490 478.308, 942.322 482.444, 938.385 486.497, 933.593 489.176, 929.803 490.458, 927.990 494.322, 921.617 497.273, 916.037 498.079, 914.514 501.725, 906.726 505.254, 898.293 508.663, 889.253 511.898, 879.791 511.948, 879.646 514.921, 870.098 515.105, 869.509 517.843, 859.891 518.131, 858.879 520.656, 849.203 521.025, 847.790 523.356, 838.065 523.785, 836.275 525.937, 826.510 526.409, 824.370 528.396, 814.569 528.896, 812.103 530.729, 802.272 531.245, 799.504 532.934, 789.648 533.374, 787.077 " fill="none" stroke="rgb(0, 0, 0)" stroke-linecap="butt" stroke-linejoin="round" stroke-opacity="1.0" stroke-width="3.0" />
            <path d=" M 530.161, 781.064 528.442, 790.750 526.551, 800.570 526.136, 802.725 524.091, 812.513 523.703, 814.370 523.582, 814.906 521.371, 824.658 521.145, 825.658 518.756, 835.368 518.463, 836.559 515.881, 846.220 515.661, 847.043 512.865, 856.644 512.739, 857.074 509.702, 866.623 506.553, 875.654 503.295, 884.132 499.933, 892.019 496.472, 899.281 492.917, 905.879 489.274, 911.773 485.550, 916.925 481.754, 921.298 477.892, 924.851 473.975, 927.546 470.012, 929.345 466.015, 930.214 461.995, 930.116 " fill="none" stroke="rgb(0, 0, 0)" stroke-linecap="butt" stroke-linejoin="round" stroke-opacity="1.0" stroke-width="3.0" />
            <path d=" M 560.668, 506.716 559.753, 506.648 557.969, 506.516 557.725, 506.497 555.877, 506.360 548.863, 505.839 548.491, 505.811 546.647, 505.674 546.173, 505.639 546.554, 515.631 546.690, 519.210 546.966, 529.206 547.069, 532.907 547.243, 542.906 547.309, 546.710 547.383, 556.709 547.411, 560.598 547.386, 570.598 547.376, 574.554 547.253, 584.553 547.204, 588.556 546.984, 598.554 546.895, 602.586 546.579, 612.581 546.450, 616.625 546.037, 626.617 545.869, 630.654 545.358, 640.640 545.153, 644.652 544.543, 654.633 544.301, 658.601 543.592, 668.576 543.315, 672.481 543.223, 673.611 " fill="none" stroke="rgb(0, 0, 0)" stroke-linecap="butt" stroke-linejoin="round" stroke-opacity="1.0" stroke-width="3.0" />
            <path d=" M 545.797, 680.203 546.148, 675.608 546.812, 665.630 547.112, 661.109 547.679, 651.125 547.939, 646.542 548.410, 636.553 548.628, 631.928 549.005, 621.935 549.181, 617.285 549.465, 607.289 549.597, 602.634 549.788, 592.635 549.876, 587.992 549.974, 577.992 550.020, 573.379 550.025, 563.379 550.027, 558.814 549.938, 548.815 549.898, 544.317 549.714, 534.319 549.633, 529.906 549.353, 519.910 549.232, 515.602 548.863, 505.839 " fill="none" stroke="rgb(0, 0, 0)" stroke-linecap="butt" stroke-linejoin="round" stroke-opacity="1.0" stroke-width="3.0" />
            <path d=" M 385.193, 758.860 386.129, 768.816 387.066, 778.772 387.136, 779.519 388.272, 789.454 389.397, 799.301 390.745, 809.210 391.958, 818.124 393.535, 827.999 394.800, 835.914 396.628, 845.745 397.903, 852.606 400.007, 862.382 401.247, 868.148 403.656, 877.854 404.809, 882.498 407.563, 892.112 408.568, 895.620 411.712, 905.113 412.500, 907.491 416.093, 916.823 416.583, 918.098 420.696, 927.213 420.795, 927.435 425.115, 935.500 429.522, 942.306 433.993, 947.870 438.512, 952.212 443.058, 955.358 447.615, 957.341 452.166, 958.196 456.696, 957.960 461.191, 956.674 465.637, 954.381 470.024, 951.124 474.339, 946.947 " fill="none" stroke="rgb(0, 0, 0)" stroke-linecap="butt" stroke-linejoin="round" stroke-opacity="1.0" stroke-width="3.0" />
            <path d=" M 474.339, 946.947 481.214, 939.684 482.444, 938.385 " fill="none" stroke="rgb(0, 0, 0)" stroke-linecap="butt" stroke-linejoin="round" stroke-opacity="1.0" stroke-width="3.0" />
            <path d=" M 538.987, 481.275 539.603, 491.256 540.219, 501.237 540.465, 505.215 540.811, 515.209 540.935, 518.791 541.128, 528.789 541.144, 529.627 535.185, 531.560 531.974, 532.602 531.694, 532.693 531.414, 532.784 531.133, 532.875 530.853, 532.967 526.886, 532.891 524.129, 532.838 519.343, 532.745 " fill="none" stroke="rgb(0, 0, 0)" stroke-linecap="butt" stroke-linejoin="round" stroke-opacity="1.0" stroke-width="3.0" />
            <path d=" M 519.639, 503.518 520.999, 499.427 524.152, 489.938 527.306, 480.448 527.458, 479.991 537.396, 481.097 538.987, 481.275 535.940, 490.799 532.893, 500.323 530.897, 506.562 530.770, 506.952 530.521, 507.732 530.272, 508.513 530.022, 509.295 529.773, 510.078 529.488, 511.109 529.332, 511.838 529.228, 512.321 529.001, 513.693 528.810, 515.196 528.659, 516.804 528.622, 517.393 528.552, 518.483 528.490, 520.203 528.475, 521.930 528.506, 523.615 528.506, 523.629 528.584, 525.268 528.707, 526.816 528.871, 528.243 529.075, 529.520 529.314, 530.625 529.583, 531.536 529.879, 532.237 530.194, 532.714 530.521, 532.959 530.853, 532.967 " fill="none" stroke="rgb(0, 0, 0)" stroke-linecap="butt" stroke-linejoin="round" stroke-opacity="1.0" stroke-width="3.0" />
            <path d=" M 530.879, 523.658 530.754, 523.593 530.636, 523.395 530.531, 523.071 530.443, 522.638 530.377, 522.112 530.335, 521.518 530.319, 520.880 530.330, 520.229 530.367, 519.590 530.429, 518.994 530.512, 518.467 530.614, 518.030 530.729, 517.703 530.853, 517.503 530.980, 517.434 " fill="none" stroke="rgb(0, 0, 0)" stroke-linecap="butt" stroke-linejoin="round" stroke-opacity="1.0" stroke-width="3.0" />
            <path d=" M 530.980, 517.434 531.105, 517.501 531.222, 517.702 531.327, 518.025 531.414, 518.459 531.480, 518.984 531.521, 519.576 531.537, 520.211 531.526, 520.860 531.490, 521.496 531.428, 522.090 531.345, 522.617 531.244, 523.054 531.129, 523.382 531.006, 523.586 530.879, 523.658 " fill="none" stroke="rgb(0, 0, 0)" stroke-linecap="butt" stroke-linejoin="round" stroke-opacity="1.0" stroke-width="3.0" />
            <path d=" M 551.478, 693.631 551.508, 693.314 552.362, 683.350 552.648, 680.015 553.419, 670.044 553.681, 666.641 554.369, 656.665 554.607, 653.205 555.213, 643.224 555.426, 639.719 555.951, 629.733 556.137, 626.195 556.582, 616.205 556.741, 612.643 557.107, 602.650 557.237, 599.076 557.524, 589.080 557.626, 585.504 557.834, 575.506 557.908, 571.939 558.035, 561.939 558.081, 558.391 558.129, 548.391 558.146, 544.872 558.134, 541.326 558.102, 531.392 558.029, 524.996 " fill="none" stroke="rgb(0, 0, 0)" stroke-linecap="butt" stroke-linejoin="round" stroke-opacity="1.0" stroke-width="3.0" />
            <path d=" M 454.696, 977.080 457.130, 977.267 461.249, 977.208 465.339, 976.319 469.390, 974.633 473.395, 972.178 477.346, 968.986 481.237, 965.088 485.062, 960.516 488.815, 955.301 492.492, 949.473 496.088, 943.063 499.600, 936.101 503.023, 928.615 506.355, 920.635 509.593, 912.187 512.735, 903.299 515.778, 893.996 518.683, 884.428 518.721, 884.304 521.440, 874.681 521.562, 874.246 524.109, 864.576 524.301, 863.846 525.760, 857.909 526.936, 853.126 529.173, 843.380 529.465, 842.108 531.564, 832.330 531.890, 830.811 533.857, 821.007 534.208, 819.257 536.052, 809.428 536.420, 807.463 538.146, 797.613 538.411, 796.103 " fill="none" stroke="rgb(0, 0, 0)" stroke-linecap="butt" stroke-linejoin="round" stroke-opacity="1.0" stroke-width="3.0" />
            <path d=" M 526.132, 262.849 526.060, 262.614 523.279, 254.371 520.382, 246.590 517.372, 239.297 514.250, 232.520 511.018, 226.286 507.678, 220.623 504.233, 215.561 500.685, 211.128 497.040, 207.355 493.300, 204.271 489.470, 201.907 485.556, 200.293 481.564, 199.457 477.499, 199.429 477.139, 199.500 473.370, 200.238 469.185, 201.910 464.951, 204.470 460.679, 207.944 456.378, 212.354 452.061, 217.718 447.737, 224.053 443.421, 231.374 439.125, 239.690 434.965, 248.784 434.863, 249.008 431.083, 258.266 430.812, 258.931 430.649, 259.329 427.208, 268.718 426.499, 270.651 423.361, 280.146 422.429, 282.966 419.563, 292.546 418.453, 296.259 415.836, 305.911 414.589, 310.514 414.376, 311.378 411.987, 321.088 410.852, 325.703 408.674, 335.463 407.260, 341.798 405.277, 351.600 403.828, 358.760 402.028, 368.597 400.573, 376.547 398.945, 386.414 397.510, 395.109 396.045, 405.001 394.655, 414.390 393.346, 424.304 392.022, 434.330 390.862, 444.262 389.702, 454.195 389.624, 454.861 388.609, 464.809 387.593, 474.757 387.475, 475.912 386.599, 485.873 385.723, 495.835 385.585, 497.407 384.846, 507.379 384.107, 517.352 383.965, 519.265 383.360, 529.246 382.754, 539.228 382.622, 541.402 382.149, 551.391 381.677, 561.380 381.565, 563.732 381.223, 573.727 380.882, 583.721 380.798, 586.168 380.588, 596.166 380.377, 606.163 380.325, 608.619 380.246, 618.619 380.167, 628.618 380.149, 630.996 380.202, 640.996 380.256, 650.996 380.268, 653.210 380.456, 663.208 380.645, 673.206 380.682, 675.173 381.008, 685.168 381.334, 695.163 381.387, 696.801 381.854, 706.790 382.321, 716.779 382.379, 718.009 382.991, 727.991 383.604, 737.972 383.650, 738.721 384.414, 748.691 385.193, 758.860 386.114, 768.817 386.997, 778.357 388.085, 788.298 389.053, 797.148 390.316, 807.068 391.348, 815.174 392.798, 825.069 393.870, 832.382 395.520, 842.245 396.604, 848.725 398.471, 858.550 399.537, 864.163 401.639, 873.940 402.654, 878.662 405.013, 888.380 405.938, 892.193 408.582, 901.838 409.376, 904.735 412.335, 914.287 412.951, 916.273 416.265, 925.707 416.647, 926.795 420.363, 936.079 420.450, 936.296 424.344, 944.778 428.315, 952.244 432.348, 958.704 436.430, 964.170 440.548, 968.659 444.688, 972.190 448.839, 974.786 452.990, 976.469 456.059, 977.061 457.130, 977.267 " fill="none" stroke="rgb(0, 0, 0)" stroke-linecap="butt" stroke-linejoin="round" stroke-opacity="1.0" stroke-width="3.0" />
            <path d=" M 475.090, 199.486 470.935, 200.295 466.723, 201.967 462.462, 204.528 458.163, 208.001 453.836, 212.410 449.492, 217.772 445.142, 224.106 440.799, 231.425 436.477, 239.739 432.295, 248.823 432.189, 249.054 428.389, 258.304 427.950, 259.372 427.942, 259.394 424.481, 268.776 423.775, 270.691 420.619, 280.179 419.680, 283.001 416.799, 292.577 415.681, 296.290 413.050, 305.938 411.794, 310.540 409.392, 320.247 408.036, 325.724 406.655, 331.877 404.464, 341.634 404.423, 341.813 402.429, 351.612 400.972, 358.769 399.162, 368.604 397.699, 376.549 396.062, 386.414 394.620, 395.104 393.147, 404.995 391.749, 414.378 390.433, 424.291 389.103, 434.310 387.936, 444.241 386.770, 454.173 386.693, 454.833 385.672, 464.781 384.651, 474.728 384.533, 475.876 383.653, 485.837 382.772, 495.798 382.634, 497.362 381.891, 507.335 381.148, 517.307 381.006, 519.212 380.398, 529.193 379.790, 539.175 379.659, 541.340 379.184, 551.329 378.709, 561.318 378.598, 563.662 378.255, 573.656 377.913, 583.650 377.829, 586.089 377.618, 596.086 377.408, 606.084 377.356, 608.531 377.278, 618.531 377.200, 628.530 377.181, 630.899 377.237, 640.899 377.292, 650.899 377.304, 653.105 377.496, 663.103 377.687, 673.101 377.724, 675.060 378.053, 685.055 378.383, 695.049 378.437, 696.679 378.908, 706.668 379.379, 716.657 379.437, 717.880 380.055, 727.861 380.673, 737.842 380.719, 738.584 381.489, 748.554 382.274, 758.716 383.203, 768.673 384.093, 778.207 385.189, 788.147 386.164, 796.992 387.436, 806.910 388.476, 815.012 389.936, 824.905 391.016, 832.214 392.678, 842.075 393.770, 848.553 395.649, 858.375 396.723, 863.986 398.839, 873.760 399.861, 878.481 402.236, 888.195 403.168, 892.009 405.829, 901.649 406.629, 904.548 409.607, 914.095 410.228, 916.083 413.563, 925.511 413.949, 926.603 417.687, 935.879 417.777, 936.104 421.697, 944.584 425.694, 952.050 429.754, 958.510 433.863, 963.976 438.007, 968.466 442.174, 971.998 446.352, 974.594 450.530, 976.280 454.696, 977.080 " fill="none" stroke="rgb(0, 0, 0)" stroke-linecap="butt" stroke-linejoin="round" stroke-opacity="1.0" stroke-width="3.0" />
            <path d=" M 477.499, 199.429 475.090, 199.486 " fill="none" stroke="rgb(0, 0, 0)" stroke-linecap="butt" stroke-linejoin="round" stroke-opacity="1.0" stroke-width="3.0" />
            <path d=" M 557.100, 705.188 558.022, 695.230 558.344, 691.755 559.182, 681.791 559.530, 677.653 560.286, 667.681 560.605, 663.476 561.281, 653.499 561.569, 649.236 562.165, 639.254 562.422, 634.945 562.940, 624.958 563.165, 620.614 563.604, 610.624 563.796, 606.255 564.157, 596.261 564.316, 591.878 564.600, 581.882 564.725, 577.494 564.932, 567.496 565.023, 563.114 565.153, 553.115 565.209, 548.748 565.261, 538.748 565.284, 534.408 565.260, 525.128 " fill="none" stroke="rgb(0, 0, 0)" stroke-linecap="butt" stroke-linejoin="round" stroke-opacity="1.0" stroke-width="3.0" />
            <path d=" M 456.182, 998.356 458.587, 998.548 463.023, 998.222 467.420, 997.005 471.767, 994.931 476.056, 992.037 480.281, 988.357 484.435, 983.929 488.511, 978.788 492.505, 972.970 496.411, 966.507 500.225, 959.436 503.944, 951.789 507.564, 943.597 511.083, 934.893 513.542, 928.279 514.498, 925.705 517.745, 916.247 517.807, 916.065 520.838, 906.535 521.009, 905.998 523.843, 896.408 524.102, 895.533 526.755, 885.891 527.084, 884.694 529.570, 875.008 529.956, 873.507 532.287, 863.783 532.715, 861.995 534.902, 852.237 535.363, 850.181 537.414, 840.394 537.898, 838.086 539.822, 828.273 540.320, 825.731 542.123, 815.895 542.629, 813.135 543.978, 805.262 " fill="none" stroke="rgb(0, 0, 0)" stroke-linecap="butt" stroke-linejoin="round" stroke-opacity="1.0" stroke-width="3.0" />
            <path d=" M 540.886, 264.831 540.039, 261.053 537.666, 251.339 537.501, 250.661 534.927, 240.998 534.837, 240.660 532.048, 231.075 529.133, 221.933 526.094, 213.262 522.931, 205.091 519.645, 197.448 516.237, 190.365 512.711, 183.873 509.067, 178.005 505.309, 172.794 501.440, 168.273 497.465, 164.478 493.386, 161.443 489.210, 159.202 484.943, 157.790 480.590, 157.243 478.795, 157.385 476.160, 157.593 471.661, 158.874 467.101, 161.118 462.491, 164.355 457.841, 168.612 453.164, 173.916 448.471, 180.290 443.777, 187.753 439.096, 196.320 434.766, 205.333 434.444, 206.003 430.521, 215.201 429.836, 216.808 426.274, 226.152 425.289, 228.737 422.049, 238.198 420.821, 241.785 417.871, 251.339 417.590, 252.251 416.450, 255.940 413.762, 265.572 412.195, 271.186 412.062, 271.712 410.512, 277.846 408.074, 287.499 405.844, 297.247 404.106, 304.846 402.079, 314.638 400.310, 323.189 398.473, 333.019 396.705, 342.481 395.046, 352.343 393.387, 362.204 393.309, 362.669 391.818, 372.557 390.327, 382.446 390.139, 383.691 388.809, 393.603 387.478, 403.514 387.214, 405.480 386.607, 410.598 385.430, 420.528 384.548, 427.960 383.518, 437.906 382.488, 447.853 382.157, 451.049 381.270, 461.010 380.383, 470.970 380.054, 474.661 379.306, 484.633 378.558, 494.605 378.250, 498.704 377.639, 508.685 377.027, 518.667 376.757, 523.081 376.280, 533.070 375.802, 543.058 375.581, 547.693 375.237, 557.687 374.894, 567.681 374.730, 572.437 374.520, 582.435 374.309, 592.433 374.208, 597.211 374.131, 607.211 374.054, 617.210 374.017, 621.910 374.075, 631.910 374.132, 641.909 374.158, 646.430 374.351, 656.428 374.545, 666.426 374.627, 670.671 374.960, 680.666 375.293, 690.660 375.422, 694.533 375.898, 704.522 376.374, 714.511 376.536, 717.922 377.159, 727.902 377.783, 737.883 377.962, 740.745 378.738, 750.715 379.514, 760.685 379.688, 762.918 380.625, 772.874 381.562, 782.830 381.705, 784.360 382.810, 794.299 383.915, 804.238 384.000, 804.999 385.283, 814.916 386.558, 824.767 388.031, 834.658 389.364, 843.606 391.041, 853.465 392.402, 861.465 394.300, 871.283 395.655, 878.298 397.793, 888.067 399.107, 894.069 401.508, 903.777 402.738, 908.750 405.431, 918.381 406.532, 922.318 409.550, 931.851 410.470, 934.757 411.818, 938.505 412.128, 939.369 414.535, 946.061 418.334, 955.311 418.709, 956.225 419.464, 957.822 422.763, 964.806 422.976, 965.255 427.318, 973.158 431.720, 979.948 436.167, 985.643 440.643, 990.264 445.136, 993.837 449.632, 996.388 454.120, 997.948 456.816, 998.310 458.587, 998.548 " fill="none" stroke="rgb(0, 0, 0)" stroke-linecap="butt" stroke-linejoin="round" stroke-opacity="1.0" stroke-width="3.0" />
            <path d=" M 362.739, 670.208 362.739, 670.222 363.086, 680.216 363.433, 690.210 363.566, 694.048 363.567, 694.059 " fill="none" stroke="rgb(0, 0, 0)" stroke-linecap="butt" stroke-linejoin="round" stroke-opacity="1.0" stroke-width="3.0" />
            <path d=" M 478.212, 157.312 473.754, 157.663 469.226, 158.945 464.637, 161.189 459.998, 164.425 455.320, 168.682 450.614, 173.985 445.892, 180.358 441.170, 187.818 436.460, 196.383 432.108, 205.386 431.780, 206.064 427.836, 215.253 427.144, 216.866 423.563, 226.203 422.571, 228.791 419.313, 238.246 418.077, 241.835 415.110, 251.385 413.680, 255.986 410.977, 265.613 409.400, 271.227 407.575, 278.409 407.491, 278.740 405.255, 287.534 403.013, 297.279 401.265, 304.875 399.227, 314.665 397.448, 323.211 397.433, 323.290 395.585, 333.117 393.823, 342.496 392.154, 352.356 390.486, 362.216 390.408, 362.677 388.909, 372.564 387.410, 382.451 387.222, 383.691 385.884, 393.601 384.546, 403.511 384.281, 405.471 383.097, 415.401 381.913, 425.330 381.602, 427.942 380.566, 437.888 379.531, 447.835 379.199, 451.022 378.307, 460.983 378.248, 461.644 377.356, 471.604 377.086, 474.625 376.334, 484.597 375.583, 494.569 375.274, 498.659 374.660, 508.640 374.046, 518.621 373.775, 523.026 373.296, 533.015 372.817, 543.003 372.595, 547.628 372.251, 557.622 371.906, 567.617 371.742, 572.363 371.532, 582.361 371.321, 592.359 371.220, 597.127 371.144, 607.127 371.067, 617.126 371.032, 621.816 371.091, 631.816 371.149, 641.816 371.176, 646.327 371.372, 656.325 371.569, 666.323 371.652, 670.559 371.988, 680.553 372.325, 690.547 372.455, 694.412 372.935, 704.400 373.415, 714.389 373.579, 717.792 374.208, 727.772 374.836, 737.752 375.016, 740.607 375.799, 750.576 376.582, 760.545 376.757, 762.772 377.701, 772.727 378.645, 782.682 378.789, 784.207 379.902, 794.144 381.016, 804.082 381.101, 804.838 382.393, 814.754 383.677, 824.600 385.161, 834.490 386.503, 843.434 388.192, 853.290 389.562, 861.287 391.473, 871.103 392.838, 878.115 394.991, 887.881 396.313, 893.883 398.730, 903.586 399.969, 908.560 402.680, 918.185 403.789, 922.124 405.809, 928.462 407.347, 933.288 407.753, 934.562 411.017, 943.575 411.845, 945.863 415.666, 955.104 416.047, 956.026 416.648, 957.291 420.341, 965.055 424.712, 972.958 429.143, 979.748 433.618, 985.443 438.124, 990.065 442.646, 993.639 447.171, 996.192 451.687, 997.754 456.182, 998.356 " fill="none" stroke="rgb(0, 0, 0)" stroke-linecap="butt" stroke-linejoin="round" stroke-opacity="1.0" stroke-width="3.0" />
            <path d=" M 480.590, 157.243 478.212, 157.312 " fill="none" stroke="rgb(0, 0, 0)" stroke-linecap="butt" stroke-linejoin="round" stroke-opacity="1.0" stroke-width="3.0" />
            <path d=" M 544.536, 257.862 544.472, 257.546 542.324, 247.779 541.994, 246.280 539.667, 236.554 539.386, 235.380 536.864, 225.703 536.647, 224.871 533.911, 215.253 533.776, 214.781 530.805, 205.232 530.775, 205.135 527.642, 195.964 524.379, 187.297 520.987, 179.165 517.466, 171.601 513.819, 164.637 510.048, 158.309 506.155, 152.651 502.143, 147.700 498.015, 143.493 493.778, 140.067 489.435, 137.460 484.992, 135.709 480.456, 134.852 475.834, 134.927 471.046, 135.081 466.288, 136.125 461.461, 138.172 456.576, 141.256 451.644, 145.408 446.678, 150.658 441.691, 157.032 436.697, 164.553 431.713, 173.241 427.223, 182.176 426.753, 183.110 422.691, 192.247 421.837, 194.169 418.153, 203.465 416.982, 206.422 413.634, 215.845 412.206, 219.866 409.161, 229.391 407.530, 234.493 404.759, 244.101 402.974, 250.286 400.452, 259.963 398.559, 267.222 396.264, 276.955 394.305, 285.268 392.221, 295.049 390.232, 304.385 388.345, 314.206 386.458, 324.026 386.362, 324.526 384.660, 334.380 382.957, 344.234 382.715, 345.633 381.804, 351.523 380.275, 361.405 379.311, 367.642 377.947, 377.549 376.584, 387.456 376.167, 390.482 374.962, 400.409 373.756, 410.336 373.303, 414.071 372.249, 424.016 371.196, 433.960 370.733, 438.324 369.827, 448.283 368.921, 458.242 368.474, 463.146 367.711, 473.117 366.948, 483.088 366.539, 488.439 365.916, 498.420 365.293, 508.401 364.938, 514.099 364.453, 524.088 363.969, 534.076 363.680, 540.018 363.642, 541.118 363.295, 551.112 362.947, 561.106 362.774, 566.086 362.563, 576.084 362.352, 586.082 362.223, 592.190 362.149, 602.190 362.075, 612.190 362.031, 618.219 362.095, 628.219 362.159, 638.219 362.196, 644.060 362.401, 654.058 362.605, 664.055 362.718, 669.603 362.739, 670.208 363.086, 680.202 363.433, 690.196 363.567, 694.059 363.591, 694.741 364.084, 704.729 364.578, 714.716 364.808, 719.371 365.453, 729.350 366.098, 739.330 366.263, 741.882 366.347, 743.184 366.360, 743.396 367.163, 753.363 367.525, 757.862 368.238, 766.722 369.204, 776.675 370.171, 786.628 370.427, 789.264 371.566, 799.199 372.706, 809.134 372.913, 810.944 374.236, 820.856 375.559, 830.768 375.682, 831.691 377.200, 841.575 378.715, 851.442 380.443, 861.291 381.995, 870.143 383.950, 879.950 385.451, 887.483 385.504, 887.747 387.706, 897.502 389.222, 904.218 391.695, 913.907 393.129, 919.525 395.903, 929.132 397.206, 933.646 400.316, 943.150 401.434, 946.567 404.921, 955.939 405.793, 958.282 409.708, 967.484 410.263, 968.789 414.666, 977.768 414.827, 978.095 419.467, 986.211 424.165, 993.153 428.904, 998.943 433.671, 1003.604 438.449, 1007.166 443.225, 1009.659 447.986, 1011.116 452.721, 1011.573 457.505, 1011.964 462.144, 1011.453 466.735, 1010.015 471.271, 1007.690 475.742, 1004.515 480.141, 1000.531 484.462, 995.775 488.698, 990.286 492.844, 984.102 496.896, 977.259 500.849, 969.793 504.700, 961.739 508.446, 953.131 512.084, 944.002 515.527, 934.614 515.612, 934.384 518.822, 924.913 519.028, 924.306 522.026, 914.766 522.331, 913.798 525.135, 904.199 525.519, 902.887 528.145, 893.238 528.591, 891.601 531.054, 881.909 531.548, 879.964 533.857, 870.234 534.387, 868.001 536.555, 858.239 537.110, 855.735 539.144, 845.944 539.716, 843.188 541.623, 833.372 542.204, 830.381 543.992, 820.542 544.576, 817.333 546.098, 808.376 " fill="none" stroke="rgb(0, 0, 0)" stroke-linecap="butt" stroke-linejoin="round" stroke-opacity="1.0" stroke-width="3.0" />
            <path d=" M 559.090, 709.075 559.360, 706.389 560.276, 696.432 560.690, 691.930 561.523, 681.965 561.905, 677.385 562.657, 667.413 563.007, 662.766 563.678, 652.788 563.995, 648.084 564.587, 638.101 564.869, 633.351 565.383, 623.364 565.630, 618.578 566.067, 608.588 566.277, 603.776 566.637, 593.783 566.811, 588.956 567.095, 578.960 567.232, 574.128 567.439, 564.130 567.539, 559.303 567.669, 549.304 567.732, 544.491 567.786, 534.491 567.811, 529.703 567.789, 520.216 " fill="none" stroke="rgb(0, 0, 0)" stroke-linecap="butt" stroke-linejoin="round" stroke-opacity="1.0" stroke-width="3.0" />
            <path d=" M 475.834, 134.927 471.135, 135.970 466.367, 138.017 461.542, 141.100 456.671, 145.253 451.765, 150.505 446.838, 156.881 441.904, 164.406 436.979, 173.098 432.533, 182.055 432.078, 182.972 428.058, 192.128 427.219, 194.037 423.574, 203.349 422.420, 206.297 419.110, 215.733 417.700, 219.750 416.340, 224.058 413.328, 233.593 413.078, 234.386 410.337, 244.003 408.574, 250.190 406.079, 259.874 404.208, 267.137 401.939, 276.876 400.001, 285.196 398.263, 293.451 396.472, 301.959 395.973, 304.327 394.107, 314.151 392.242, 323.976 392.145, 324.482 390.462, 334.339 388.778, 344.197 388.537, 345.605 387.025, 355.490 385.637, 364.568 385.168, 367.631 383.820, 377.540 382.471, 387.448 382.057, 390.488 380.865, 400.417 379.672, 410.345 379.221, 414.096 378.179, 424.042 377.136, 433.987 376.677, 438.368 375.851, 447.537 374.954, 457.496 374.439, 463.210 373.683, 473.181 372.927, 483.152 372.520, 488.523 371.903, 498.504 371.285, 508.485 370.932, 514.203 370.451, 524.191 369.970, 534.180 369.683, 540.143 369.407, 548.138 369.061, 558.132 368.781, 566.231 368.570, 576.229 368.359, 586.226 368.230, 592.356 368.154, 602.356 368.079, 612.355 368.033, 618.405 368.094, 628.405 368.154, 638.404 368.190, 644.266 368.389, 654.264 368.588, 664.262 368.698, 669.828 369.038, 679.822 369.378, 689.817 369.554, 694.985 370.039, 704.974 370.523, 714.962 370.750, 719.634 371.384, 729.614 372.018, 739.594 372.278, 743.676 373.067, 753.645 373.856, 763.613 374.126, 767.018 375.078, 776.973 376.029, 786.928 376.282, 789.576 377.405, 799.513 378.527, 809.450 378.733, 811.271 380.037, 821.185 381.340, 831.100 381.462, 832.031 382.959, 841.918 384.454, 851.794 386.157, 861.648 387.689, 870.506 389.617, 880.319 390.559, 885.113 391.150, 888.121 393.323, 897.882 393.617, 899.205 394.818, 904.600 397.259, 914.297 398.560, 919.462 398.673, 919.914 399.669, 923.410 402.408, 933.028 402.697, 934.041 405.758, 943.525 406.869, 946.968 410.316, 956.355 411.171, 958.686 415.043, 967.906 415.584, 969.196 417.673, 973.511 420.090, 978.504 424.670, 986.620 429.308, 993.562 433.988, 999.350 438.694, 1004.010 443.412, 1007.569 448.128, 1010.058 452.830, 1011.511 457.505, 1011.964 " fill="none" stroke="rgb(0, 0, 0)" stroke-linecap="butt" stroke-linejoin="round" stroke-opacity="1.0" stroke-width="3.0" />
            <path d=" M 558.544, 347.823 558.212, 344.770 557.925, 342.375 " fill="none" stroke="rgb(0, 0, 0)" stroke-linecap="butt" stroke-linejoin="round" stroke-opacity="1.0" stroke-width="3.0" />
            <path d=" M 482.398, 507.334 482.194, 507.332 481.829, 507.535 481.469, 507.944 481.121, 508.552 480.790, 509.349 480.482, 510.322 480.203, 511.455 479.957, 512.729 479.748, 514.123 479.581, 515.612 479.457, 517.171 479.381, 518.773 479.351, 520.391 479.370, 521.996 479.437, 523.562 481.769, 523.604 " fill="none" stroke="rgb(0, 0, 0)" stroke-linecap="butt" stroke-linejoin="round" stroke-opacity="1.0" stroke-width="3.0" />
            <path d=" M 565.340, 525.130 565.297, 523.547 565.291, 521.924 565.321, 520.289 565.326, 520.172 565.388, 518.668 565.429, 518.039 565.490, 517.092 565.625, 515.586 565.791, 514.176 565.985, 512.887 566.204, 511.740 566.443, 510.755 566.452, 510.726 566.700, 509.948 566.968, 509.332 567.245, 508.917 567.524, 508.710 567.712, 508.712 567.802, 508.713 " fill="none" stroke="rgb(0, 0, 0)" stroke-linecap="butt" stroke-linejoin="round" stroke-opacity="1.0" stroke-width="3.0" />
            <path d=" M 567.983, 520.219 567.957, 519.744 567.917, 519.309 567.865, 518.924 567.802, 518.602 567.785, 518.542 567.729, 518.349 567.649, 518.175 567.564, 518.082 567.475, 518.074 " fill="none" stroke="rgb(0, 0, 0)" stroke-linecap="butt" stroke-linejoin="round" stroke-opacity="1.0" stroke-width="3.0" />
            <path d=" M 529.295, 467.671 529.552, 473.154 530.006, 473.160 535.148, 473.220 535.352, 472.913 534.958, 467.643 529.560, 467.309 529.545, 467.308 529.295, 467.671 " fill="none" stroke="rgb(0, 0, 0)" stroke-linecap="butt" stroke-linejoin="round" stroke-opacity="1.0" stroke-width="3.0" />
            <path d=" M 534.898, 467.733 529.295, 467.671 " fill="none" stroke="rgb(0, 0, 0)" stroke-linecap="butt" stroke-linejoin="round" stroke-opacity="1.0" stroke-width="3.0" />
            <path d=" M 535.148, 473.220 534.898, 467.733 534.958, 467.643 " fill="none" stroke="rgb(0, 0, 0)" stroke-linecap="butt" stroke-linejoin="round" stroke-opacity="1.0" stroke-width="3.0" />
            <path d=" M 531.093, 470.283 531.082, 470.496 531.116, 470.719 531.138, 470.778 531.214, 470.979 531.329, 471.157 531.476, 471.306 531.520, 471.345 531.685, 471.454 531.742, 471.481 531.910, 471.543 531.962, 471.559 532.027, 471.571 532.103, 471.579 532.187, 471.583 532.230, 471.584 532.273, 471.584 532.315, 471.581 532.354, 471.576 532.434, 471.566 532.507, 471.552 532.572, 471.534 532.626, 471.514 532.783, 471.439 532.843, 471.406 532.995, 471.284 533.102, 471.174 " fill="none" stroke="rgb(0, 0, 0)" stroke-linecap="butt" stroke-linejoin="round" stroke-opacity="1.0" stroke-width="3.0" />
            <path d=" M 531.183, 469.979 531.147, 470.077 531.138, 470.112 531.132, 470.136 531.093, 470.283 531.134, 470.125 " fill="none" stroke="rgb(0, 0, 0)" stroke-linecap="butt" stroke-linejoin="round" stroke-opacity="1.0" stroke-width="3.0" />
            <path d=" M 533.102, 471.174 533.192, 471.050 533.262, 470.913 533.311, 470.767 533.338, 470.615 533.342, 470.459 533.324, 470.303 533.283, 470.149 533.220, 470.002 533.137, 469.864 533.036, 469.737 532.918, 469.625 532.785, 469.530 532.642, 469.453 532.489, 469.397 532.332, 469.362 532.172, 469.349 532.013, 469.358 531.858, 469.390 531.711, 469.443 531.574, 469.516 531.451, 469.609 531.343, 469.718 531.253, 469.842 531.183, 469.979 " fill="none" stroke="rgb(0, 0, 0)" stroke-linecap="butt" stroke-linejoin="round" stroke-opacity="1.0" stroke-width="3.0" />
            <path d=" M 631.934, 856.051 634.104, 856.514 642.000, 857.818 649.882, 858.386 657.735, 858.236 665.540, 857.386 673.285, 855.857 680.954, 853.667 688.535, 850.837 696.014, 847.390 703.381, 843.345 710.624, 838.725 717.733, 833.553 724.700, 827.848 731.516, 821.634 738.172, 814.932 744.662, 807.764 750.979, 800.149 757.048, 792.201 757.117, 792.110 762.879, 783.938 763.070, 783.667 768.536, 775.294 768.832, 774.840 774.014, 766.287 774.401, 765.649 779.307, 756.935 779.770, 756.113 784.411, 747.255 784.937, 746.251 789.321, 737.263 789.897, 736.081 794.033, 726.976 794.648, 725.622 798.543, 716.412 799.186, 714.892 802.849, 705.587 803.510, 703.907 806.946, 694.516 807.616, 692.685 810.831, 683.216 811.502, 681.241 814.503, 671.702 815.166, 669.593 817.958, 659.991 818.607, 657.756 821.193, 648.096 821.823, 645.745 824.208, 636.034 824.811, 633.576 826.999, 623.818 827.571, 621.264 829.564, 611.464 830.102, 608.822 831.903, 598.986 832.401, 596.266 834.013, 586.397 834.468, 583.610 835.892, 573.712 836.301, 570.868 837.539, 560.945 837.899, 558.053 838.952, 548.109 839.262, 545.181 840.130, 535.218 840.388, 532.263 841.072, 522.287 841.276, 519.315 841.776, 509.328 841.925, 506.350 842.240, 496.355 842.334, 493.381 842.463, 483.382 842.502, 480.423 842.445, 470.423 842.428, 467.489 842.183, 457.492 842.112, 454.594 841.676, 444.604 841.552, 441.752 840.923, 431.771 840.747, 428.976 839.923, 419.010 839.698, 416.282 838.674, 406.335 838.402, 403.685 837.176, 393.760 836.859, 391.199 835.426, 381.302 835.070, 378.841 833.425, 368.977 833.032, 366.625 831.170, 356.800 830.747, 354.569 828.661, 344.789 828.213, 342.688 825.896, 332.960 825.430, 331.001 822.876, 321.332 822.398, 319.523 819.599, 309.923 819.119, 308.273 816.065, 298.751 815.591, 297.270 812.274, 287.836 811.815, 286.531 808.224, 277.198 807.793, 276.078 803.918, 266.859 803.526, 265.928 799.354, 256.840 799.015, 256.103 794.533, 247.164 794.262, 246.623 789.458, 237.853 789.270, 237.510 784.129, 228.933 784.041, 228.786 778.578, 220.472 772.885, 212.591 766.967, 205.166 760.829, 198.221 754.475, 191.778 747.913, 185.862 741.150, 180.496 734.193, 175.705 727.051, 171.511 719.734, 167.940 712.252, 165.013 704.617, 162.753 696.841, 161.183 688.938, 160.325 680.922, 160.198 672.810, 160.822 670.572, 161.040 " fill="none" stroke="rgb(0, 0, 0)" stroke-linecap="butt" stroke-linejoin="round" stroke-opacity="1.0" stroke-width="3.0" />
            <path d=" M 634.104, 856.514 633.013, 856.230 626.212, 854.458 618.343, 851.637 610.517, 848.036 602.753, 843.644 595.072, 838.453 587.498, 832.456 580.051, 825.648 573.135, 818.425 572.755, 818.028 566.302, 810.389 565.633, 809.597 559.636, 801.596 558.710, 800.360 553.157, 792.044 552.009, 790.325 549.604, 786.292 547.567, 782.877 546.068, 780.364 545.555, 779.502 542.084, 772.994 540.583, 770.180 539.371, 767.907 537.030, 762.999 533.527, 755.652 533.482, 755.559 529.564, 746.358 527.911, 742.479 524.364, 733.129 524.008, 732.189 522.682, 728.694 519.493, 719.216 517.816, 714.234 516.344, 709.270 513.998, 701.364 513.336, 699.133 510.824, 689.454 509.261, 683.430 507.071, 673.673 505.611, 667.166 503.733, 657.343 502.403, 650.385 500.829, 640.510 499.653, 633.138 498.375, 623.220 497.376, 615.475 496.387, 605.524 495.584, 597.452 494.878, 587.477 494.286, 579.125 493.859, 569.135 493.492, 560.555 493.339, 550.556 493.206, 541.802 493.326, 531.803 493.432, 522.930 493.623, 518.020 493.954, 509.536 493.962, 509.348 494.170, 504.002 494.829, 494.024 495.420, 485.083 496.348, 475.126 497.177, 466.236 498.375, 456.308 499.434, 447.527 500.904, 437.635 502.184, 429.018 503.927, 419.171 505.413, 410.771 507.434, 400.977 509.111, 392.846 511.412, 383.114 513.260, 375.302 515.847, 365.642 517.843, 358.193 520.723, 348.617 522.342, 343.237 522.842, 341.574 522.848, 341.556 526.028, 332.075 528.235, 325.493 531.723, 316.121 534.001, 309.996 535.464, 306.441 536.783, 303.234 540.110, 295.142 540.117, 295.127 540.942, 293.307 543.635, 287.367 545.008, 284.338 546.557, 280.923 547.747, 278.539 548.286, 277.460 548.304, 277.423 548.343, 277.345 548.391, 277.249 552.857, 268.302 553.296, 267.421 554.782, 264.716 554.782, 264.715 555.115, 264.110 555.162, 264.024 555.200, 263.955 556.519, 261.553 557.666, 259.463 560.310, 254.650 565.483, 246.092 567.571, 242.637 569.993, 239.002 575.053, 231.406 580.981, 223.352 582.730, 220.975 589.051, 213.226 590.575, 211.359 597.300, 203.958 598.561, 202.569 605.697, 195.563 606.664, 194.614 614.214, 188.056 614.858, 187.495 622.819, 181.444 623.119, 181.216 631.422, 175.772 639.745, 171.160 648.066, 167.370 656.364, 164.392 664.618, 162.214 672.309, 160.907 672.810, 160.822 " fill="none" stroke="rgb(0, 0, 0)" stroke-linecap="butt" stroke-linejoin="round" stroke-opacity="1.0" stroke-width="3.0" />
            <path d=" M 670.572, 161.040 662.369, 162.433 654.104, 164.611 645.796, 167.587 637.465, 171.375 629.132, 175.985 620.819, 181.425 612.853, 187.469 612.549, 187.699 604.994, 194.250 604.346, 194.811 597.204, 201.810 596.235, 202.760 589.503, 210.155 588.240, 211.542 581.911, 219.284 580.388, 221.149 574.453, 229.197 572.704, 231.569 567.152, 239.887 565.215, 242.789 560.034, 251.343 557.947, 254.790 555.145, 259.883 552.697, 264.333 550.928, 267.547 547.715, 273.972 545.105, 279.191 544.303, 280.797 544.183, 281.036 542.947, 283.758 540.737, 288.623 539.703, 290.898 538.849, 292.778 537.738, 295.224 537.239, 296.434 536.315, 298.679 535.974, 299.505 534.653, 302.711 531.619, 310.077 528.126, 319.448 525.849, 325.557 522.664, 335.036 521.847, 337.468 520.452, 341.620 517.568, 351.195 515.451, 358.221 512.859, 367.879 510.865, 375.310 508.561, 385.040 506.715, 392.834 506.060, 396.005 504.037, 405.798 503.017, 410.738 501.272, 420.585 499.786, 428.964 498.316, 438.855 497.037, 447.452 495.839, 457.380 494.781, 466.140 493.852, 476.097 493.247, 482.583 493.025, 484.965 492.366, 494.943 492.245, 496.780 491.777, 503.862 491.636, 507.483 491.558, 509.497 491.275, 516.752 491.193, 518.866 491.081, 521.740 491.041, 522.769 490.922, 532.768 490.818, 541.620 490.972, 551.618 491.107, 560.351 491.537, 570.342 491.905, 578.901 492.615, 588.876 493.207, 597.207 494.200, 607.158 495.004, 615.210 496.287, 625.128 497.286, 632.854 498.866, 642.729 500.042, 650.083 500.543, 652.695 502.426, 662.516 503.256, 666.846 505.451, 676.602 506.912, 683.093 509.430, 692.771 510.994, 698.781 511.474, 700.392 514.325, 709.977 515.482, 713.866 515.723, 714.582 518.919, 724.057 520.355, 728.312 523.909, 737.659 525.592, 742.084 529.519, 751.281 531.171, 755.153 533.050, 759.084 536.542, 766.388 537.069, 767.491 540.124, 773.207 541.624, 776.012 543.261, 779.076 545.660, 783.088 547.161, 785.600 549.201, 789.014 549.725, 789.890 555.286, 798.201 556.436, 799.918 562.441, 807.914 563.369, 809.149 569.829, 816.782 570.500, 817.574 577.423, 824.790 577.806, 825.190 585.263, 831.994 592.849, 837.989 600.539, 843.179 608.314, 847.570 616.151, 851.171 624.031, 853.994 631.934, 856.051 " fill="none" stroke="rgb(0, 0, 0)" stroke-linecap="butt" stroke-linejoin="round" stroke-opacity="1.0" stroke-width="3.0" />
            <path d=" M 770.527, 565.326 770.484, 565.603 768.696, 575.442 768.295, 577.653 766.260, 587.444 765.821, 589.560 763.534, 599.295 763.063, 601.302 760.521, 610.974 760.027, 612.857 757.224, 622.456 756.714, 624.202 753.645, 633.719 753.130, 635.315 749.786, 644.739 749.277, 646.171 745.651, 655.490 745.162, 656.748 741.245, 665.949 740.788, 667.023 736.570, 676.090 736.161, 676.970 731.632, 685.885 731.286, 686.565 726.435, 695.310 726.172, 695.785 720.986, 704.336 720.823, 704.604 715.248, 712.996 709.455, 720.936 703.453, 728.400 697.252, 735.359 690.862, 741.789 684.295, 747.665 677.562, 752.961 670.678, 757.649 663.656, 761.706 656.511, 765.108 649.260, 767.831 641.920, 769.849 634.509, 771.143 627.047, 771.692 622.995, 771.574 " fill="none" stroke="rgb(0, 0, 0)" stroke-linecap="butt" stroke-linejoin="round" stroke-opacity="1.0" stroke-width="3.0" />
            <path d=" M 785.316, 569.603 775.324, 569.213 774.519, 569.181 770.527, 565.326 763.334, 558.379 756.140, 551.433 752.808, 548.214 752.177, 547.604 751.545, 546.993 750.913, 546.381 750.280, 545.768 749.559, 544.922 748.907, 543.851 748.340, 542.576 747.869, 541.123 747.730, 540.510 747.504, 539.518 747.252, 537.792 747.233, 537.546 747.209, 537.219 747.117, 535.979 747.102, 534.113 747.208, 532.230 747.432, 530.368 747.450, 530.270 747.647, 529.220 747.771, 528.561 748.217, 526.846 748.761, 525.254 749.394, 523.817 750.103, 522.563 750.873, 521.513 751.691, 520.690 751.908, 520.541 752.039, 520.451 752.540, 520.107 753.402, 519.775 754.127, 519.604 754.853, 519.433 755.577, 519.262 756.300, 519.091 756.664, 519.005 766.397, 516.713 776.131, 514.421 781.166, 513.236 " fill="none" stroke="rgb(0, 0, 0)" stroke-linecap="butt" stroke-linejoin="round" stroke-opacity="1.0" stroke-width="3.0" />
            <path d=" M 683.819, 227.965 680.987, 228.051 675.520, 228.216 675.475, 228.217 667.062, 229.278 658.602, 231.153 655.384, 232.184 650.122, 233.869 641.655, 237.452 633.229, 241.914 624.876, 247.260 616.892, 253.282 616.626, 253.483 609.090, 260.056 608.508, 260.563 601.417, 267.614 600.547, 268.479 593.905, 275.955 592.777, 277.224 586.590, 285.080 585.237, 286.798 579.502, 294.989 577.966, 297.184 572.675, 305.670 570.997, 308.360 566.136, 317.099 564.362, 320.289 559.914, 329.245 558.086, 332.925 557.068, 335.220 556.434, 336.648 555.903, 337.846 554.172, 341.749 554.166, 341.762 552.709, 345.047 552.392, 345.760 552.190, 346.216 549.843, 352.157 548.424, 355.748 546.725, 360.046 546.699, 360.114 545.341, 364.003 542.044, 373.444 541.647, 374.581 539.780, 380.693 538.407, 385.188 537.068, 389.569 534.516, 399.238 533.999, 401.198 532.989, 405.023 530.799, 414.781 529.430, 420.881 527.593, 430.710 526.692, 435.534 526.404, 437.073 524.909, 446.961 523.915, 453.530 522.753, 463.462 521.956, 470.269 521.107, 480.233 520.519, 487.136 519.983, 497.122 519.864, 499.345 519.639, 503.518 519.631, 503.667 519.610, 504.058 519.388, 514.056 519.317, 517.232 519.286, 518.603 519.234, 520.963 519.243, 521.962 519.257, 523.448 519.341, 532.522 519.343, 532.745 519.390, 537.778 519.801, 547.769 520.076, 554.431 520.810, 564.404 521.284, 570.853 522.348, 580.797 523.009, 586.975 524.121, 594.842 525.237, 602.732 526.241, 608.396 527.954, 618.062 530.055, 627.839 531.143, 632.905 533.211, 641.021 534.787, 647.206 537.638, 656.791 538.864, 660.914 542.111, 670.373 542.233, 670.728 542.407, 671.236 543.223, 673.611 543.351, 673.984 543.748, 674.995 545.797, 680.203 548.223, 686.373 549.914, 690.143 551.024, 692.618 551.478, 693.631 552.519, 695.952 553.457, 698.042 555.563, 702.174 556.079, 703.185 557.100, 705.188 559.024, 708.961 559.090, 709.075 564.102, 717.729 564.897, 719.101 570.398, 727.452 571.048, 728.439 577.057, 736.433 577.450, 736.956 583.979, 744.531 584.074, 744.640 590.890, 751.481 597.872, 757.471 604.993, 762.610 612.223, 766.902 619.538, 770.350 622.995, 771.574 626.913, 772.962 634.322, 774.752 641.742, 775.732 649.150, 775.919 656.525, 775.330 663.847, 773.986 671.096, 771.909 678.255, 769.119 685.306, 765.641 692.233, 761.502 699.022, 756.724 705.659, 751.333 712.131, 745.357 718.426, 738.821 724.533, 731.751 730.442, 724.174 736.145, 716.117 741.563, 707.712 741.631, 707.605 746.704, 698.987 746.894, 698.664 751.636, 689.859 751.927, 689.319 756.350, 680.351 756.722, 679.598 760.840, 670.485 761.274, 669.524 765.097, 660.283 765.578, 659.121 769.116, 649.768 769.628, 648.415 772.891, 638.963 773.420, 637.430 776.416, 627.889 776.950, 626.188 779.686, 616.570 780.214, 614.714 782.696, 605.027 783.208, 603.030 785.444, 593.283 785.931, 591.159 787.923, 581.359 788.378, 579.123 790.131, 569.278 790.547, 566.946 792.065, 557.062 792.436, 554.648 793.722, 544.731 794.044, 542.252 " fill="none" stroke="rgb(0, 0, 0)" stroke-linecap="butt" stroke-linejoin="round" stroke-opacity="1.0" stroke-width="3.0" />
            <path d=" M 781.166, 513.236 791.141, 513.938 791.886, 513.991 " fill="none" stroke="rgb(0, 0, 0)" stroke-linecap="butt" stroke-linejoin="round" stroke-opacity="1.0" stroke-width="3.0" />
            <path d=" M 825.269, 528.852 825.606, 524.475 826.058, 518.608 826.568, 508.621 826.706, 505.918 826.732, 504.887 826.981, 494.890 827.023, 493.216 827.009, 483.216 827.006, 480.527 826.730, 470.530 826.657, 467.872 826.121, 457.887 825.981, 455.275 825.188, 445.306 824.984, 442.754 823.927, 432.810 823.664, 430.334 823.264, 427.357 822.012, 418.040 820.398, 408.172 820.027, 405.901 818.122, 396.084 817.706, 393.942 815.504, 384.187 815.053, 382.187 812.550, 372.505 812.073, 370.660 809.267, 361.061 808.774, 359.377 805.659, 349.875 805.162, 348.360 801.721, 338.971 801.234, 337.642 797.449, 328.386 796.988, 327.257 792.845, 318.156 792.426, 317.236 787.912, 308.313 787.554, 307.606 782.658, 298.887 782.381, 298.392 777.096, 289.903 776.916, 289.612 771.237, 281.381 771.170, 281.283 765.148, 273.439 758.856, 266.121 752.301, 259.364 745.494, 253.201 738.450, 247.655 731.182, 242.744 723.709, 238.479 721.436, 237.413 716.045, 234.886 708.205, 232.006 700.206, 229.875 692.070, 228.522 683.819, 227.965 " fill="none" stroke="rgb(0, 0, 0)" stroke-linecap="butt" stroke-linejoin="round" stroke-opacity="1.0" stroke-width="3.0" />
            <path d=" M 655.384, 232.184 658.921, 233.387 665.277, 236.337 671.462, 239.986 677.467, 244.291 683.281, 249.227 688.890, 254.779 694.283, 260.931 699.451, 267.656 704.385, 274.924 709.082, 282.698 713.537, 290.937 717.750, 299.608 721.712, 308.693 725.350, 318.008 725.415, 318.174 728.711, 327.616 728.855, 328.029 731.826, 337.578 732.029, 338.230 734.692, 347.868 734.935, 348.745 737.311, 358.459 737.577, 359.543 739.683, 369.319 739.957, 370.592 741.802, 380.421 742.074, 381.871 743.660, 391.745 743.921, 393.364 745.255, 403.275 745.494, 405.050 746.583, 414.990 746.793, 416.905 747.645, 426.868 747.819, 428.904 748.443, 438.884 748.576, 441.022 748.981, 451.014 749.071, 453.233 749.262, 463.231 749.305, 465.516 749.282, 475.516 749.276, 477.853 749.037, 487.850 748.980, 490.222 748.526, 500.212 748.417, 502.603 747.748, 512.581 747.588, 514.974 747.038, 521.197 746.786, 522.361 746.481, 523.477 746.128, 524.535 745.729, 525.523 745.289, 526.430 744.812, 527.247 744.304, 527.965 744.205, 528.078 " fill="none" stroke="rgb(0, 0, 0)" stroke-linecap="butt" stroke-linejoin="round" stroke-opacity="1.0" stroke-width="3.0" />
            <path d=" M 719.083, 530.672 719.082, 530.894 719.037, 531.444 727.402, 534.057 736.947, 537.038 745.154, 539.601 747.730, 540.510 " fill="none" stroke="rgb(0, 0, 0)" stroke-linecap="butt" stroke-linejoin="round" stroke-opacity="1.0" stroke-width="3.0" />
            <path d=" M 803.189, 536.876 812.659, 540.089 813.001, 540.205 822.027, 543.267 823.789, 543.865 823.917, 543.903 829.739, 545.657 " fill="none" stroke="rgb(0, 0, 0)" stroke-linecap="butt" stroke-linejoin="round" stroke-opacity="1.0" stroke-width="3.0" />
            <path d=" M 799.293, 543.976 800.020, 544.016 810.004, 544.567 812.135, 544.685 814.066, 544.792 821.819, 545.220 823.765, 545.327 829.739, 545.657 830.760, 535.709 831.093, 532.474 831.858, 522.504 832.109, 519.233 832.618, 509.246 832.786, 505.957 833.040, 495.960 833.123, 492.668 833.120, 482.668 833.119, 479.389 832.857, 469.393 832.772, 466.145 832.249, 456.159 832.082, 452.958 831.296, 442.989 831.048, 439.852 829.994, 429.908 829.670, 426.852 828.345, 416.940 827.949, 413.980 826.347, 404.109 825.885, 401.262 823.999, 391.441 823.477, 388.722 821.301, 378.962 820.727, 376.387 818.254, 366.697 817.637, 364.280 814.858, 354.674 814.209, 352.429 813.379, 349.881 810.444, 340.862 807.023, 331.465 806.345, 329.603 805.710, 328.037 801.916, 318.680 797.809, 309.563 797.161, 308.123 792.691, 299.178 792.083, 297.960 787.239, 289.212 786.689, 288.219 781.457, 279.698 780.986, 278.930 776.307, 272.071 774.978, 270.123 769.568, 263.002 768.675, 261.827 762.200, 254.207 762.085, 254.072 755.219, 246.889 748.087, 240.310 740.701, 234.362 733.076, 229.075 725.226, 224.481 717.167, 220.608 708.917, 217.482 700.495, 215.131 691.921, 213.581 683.218, 212.857 674.409, 212.978 664.414, 213.282 659.150, 213.441 " fill="none" stroke="rgb(0, 0, 0)" stroke-linecap="butt" stroke-linejoin="round" stroke-opacity="1.0" stroke-width="3.0" />
            <path d=" M 674.409, 212.978 669.117, 213.567 665.520, 213.967 660.088, 215.105 656.577, 215.841 647.609, 218.615 638.644, 222.299 629.714, 226.903 621.230, 232.197 620.851, 232.433 612.799, 238.363 612.088, 238.888 604.486, 245.385 603.458, 246.263 596.317, 253.263 594.998, 254.555 588.316, 261.995 586.742, 263.748 580.515, 271.573 578.724, 273.824 572.946, 281.986 570.981, 284.762 565.643, 293.218 563.550, 296.534 558.639, 305.245 556.463, 309.106 554.207, 313.590 551.277, 319.412 551.103, 319.760 550.620, 320.719 549.755, 322.439 549.633, 322.710 545.544, 331.836 543.458, 336.491 543.234, 337.055 541.851, 340.534 538.157, 349.827 537.606, 351.214 534.297, 360.650 532.227, 366.552 529.767, 374.565 527.347, 382.449 524.781, 392.115 522.994, 398.844 520.789, 408.598 519.191, 415.669 517.340, 425.497 515.954, 432.856 514.455, 442.743 513.304, 450.333 " fill="none" stroke="rgb(0, 0, 0)" stroke-linecap="butt" stroke-linejoin="round" stroke-opacity="1.0" stroke-width="3.0" />
            <path d=" M 812.137, 531.042 812.584, 530.353 813.007, 529.581 813.404, 528.734 813.670, 528.069 813.771, 527.817 814.104, 526.837 814.401, 525.803 823.387, 528.324 825.269, 528.852 825.041, 529.443 824.647, 530.295 824.227, 531.071 823.783, 531.765 823.319, 532.372 823.005, 532.708 822.838, 532.886 822.345, 533.303 821.843, 533.619 821.335, 533.830 820.827, 533.934 820.322, 533.928 819.825, 533.811 815.264, 532.168 813.896, 531.676 813.382, 531.490 812.137, 531.042 807.656, 529.428 807.300, 527.945 806.847, 526.602 806.304, 525.420 805.680, 524.420 804.986, 523.619 804.233, 523.031 803.433, 522.667 802.600, 522.532 798.071, 522.266 797.909, 522.257 791.283, 521.869 790.728, 521.836 789.869, 521.933 789.040, 522.262 788.260, 522.820 787.505, 523.595 786.963, 524.336 786.789, 524.574 786.124, 525.742 785.522, 527.079 784.993, 528.562 784.545, 530.167 784.188, 531.864 783.927, 533.626 787.948, 534.974 788.392, 535.123 790.069, 535.230 791.389, 535.315 798.772, 535.789 799.285, 535.822 800.270, 535.885 800.357, 535.327 800.481, 534.797 800.639, 534.311 800.827, 533.882 801.039, 533.521 801.271, 533.239 801.514, 533.042 801.764, 532.936 802.013, 532.925 " fill="none" stroke="rgb(0, 0, 0)" stroke-linecap="butt" stroke-linejoin="round" stroke-opacity="1.0" stroke-width="3.0" />
            <path d=" M 790.069, 535.230 789.352, 541.997 788.063, 551.914 787.744, 554.364 786.171, 564.239 785.316, 569.603 778.171, 562.607 775.930, 560.413 771.909, 556.475 764.764, 549.479 764.305, 549.029 763.680, 548.417 763.055, 547.803 762.428, 547.189 761.802, 546.574 761.088, 545.724 760.444, 544.648 759.882, 543.368 759.417, 541.908 759.387, 541.773 759.057, 540.296 758.808, 538.562 758.697, 537.025 758.677, 536.740 758.664, 534.865 758.771, 532.973 758.995, 531.101 759.157, 530.227 759.332, 529.285 759.776, 527.561 760.318, 525.961 760.946, 524.517 761.650, 523.256 762.415, 522.201 763.226, 521.372 764.068, 520.786 764.923, 520.452 765.642, 520.279 766.361, 520.107 767.080, 519.934 767.796, 519.762 768.156, 519.676 777.881, 517.346 780.907, 516.621 790.632, 514.291 791.886, 513.991 791.283, 521.869 " fill="none" stroke="rgb(0, 0, 0)" stroke-linecap="butt" stroke-linejoin="round" stroke-opacity="1.0" stroke-width="3.0" />
            <path d=" M 511.833, 432.285 512.645, 442.251 513.304, 450.333 512.137, 460.265 511.214, 468.125 510.364, 478.089 509.684, 486.054 509.149, 496.040 508.784, 502.862 508.720, 504.043 508.502, 514.041 508.327, 522.013 508.427, 532.012 508.506, 539.884 508.927, 549.875 509.252, 557.581 509.998, 567.553 510.558, 575.027 511.637, 584.968 512.416, 592.148 513.835, 602.047 514.813, 608.875 516.580, 618.718 517.733, 625.140 519.859, 634.911 521.157, 640.880 522.035, 644.283 524.533, 653.966 525.067, 656.035 527.951, 665.611 529.438, 670.552 532.722, 679.997 534.246, 684.380 537.947, 693.670 539.463, 697.475 540.091, 698.857 543.589, 706.553 545.064, 709.797 547.547, 714.599 549.114, 717.630 551.018, 721.313 553.216, 725.052 554.756, 727.673 556.782, 731.119 557.295, 731.993 562.856, 740.304 563.866, 741.813 569.939, 749.758 570.700, 750.754 577.298, 758.269 577.767, 758.803 584.896, 765.815 585.034, 765.951 592.473, 772.192 600.054, 777.526 607.747, 781.957 615.525, 785.492 623.360, 788.140 631.226, 789.914 639.098, 790.833 646.952, 790.914 654.765, 790.174 662.515, 788.640 670.183, 786.335 677.750, 783.282 685.197, 779.507 692.508, 775.039 699.668, 769.906 706.661, 764.132 713.477, 757.749 720.101, 750.785 726.523, 743.268 732.634, 735.352 732.733, 735.224 738.474, 727.036 738.721, 726.685 744.106, 718.259 744.478, 717.676 749.522, 709.041 749.998, 708.226 754.713, 699.408 755.272, 698.361 759.672, 689.381 760.295, 688.110 764.391, 678.987 765.061, 677.497 768.864, 668.248 769.563, 666.548 773.084, 657.188 773.799, 655.289 777.046, 645.831 777.762, 643.745 780.744, 634.200 781.450, 631.940 784.174, 622.318 784.859, 619.898 787.331, 610.208 787.986, 607.643 790.212, 597.894 790.828, 595.199 792.812, 585.398 793.381, 582.587 795.128, 572.741 795.645, 569.831 797.158, 559.947 797.616, 556.953 798.898, 547.036 799.293, 543.976 794.044, 542.252 799.201, 542.531 809.187, 543.073 812.680, 543.262 812.296, 543.133 802.814, 539.956 799.558, 538.865 798.955, 538.662 791.341, 536.111 791.387, 535.544 791.389, 535.315 " fill="none" stroke="rgb(0, 0, 0)" stroke-linecap="butt" stroke-linejoin="round" stroke-opacity="1.0" stroke-width="3.0" />
            <path d=" M 764.678, 537.420 764.364, 537.319 764.075, 537.074 763.821, 536.693 763.616, 536.195 763.468, 535.601 763.383, 534.938 763.366, 534.234 763.417, 533.520 763.534, 532.828 763.712, 532.188 763.942, 531.629 764.216, 531.173 764.520, 530.843 764.841, 530.651 765.166, 530.606 " fill="none" stroke="rgb(0, 0, 0)" stroke-linecap="butt" stroke-linejoin="round" stroke-opacity="1.0" stroke-width="3.0" />
            <path d=" M 765.166, 530.606 765.479, 530.711 765.768, 530.959 766.020, 531.341 766.224, 531.839 766.372, 532.431 766.456, 533.091 766.473, 533.793 766.422, 534.504 766.305, 535.193 766.129, 535.832 765.899, 536.391 765.627, 536.846 765.324, 537.178 765.003, 537.372 764.678, 537.420 " fill="none" stroke="rgb(0, 0, 0)" stroke-linecap="butt" stroke-linejoin="round" stroke-opacity="1.0" stroke-width="3.0" />
            <path d=" M 503.819, 467.635 502.967, 477.598 502.236, 486.145 501.701, 496.130 501.241, 504.715 501.198, 506.655 500.981, 516.653 500.837, 523.264 500.940, 533.264 501.027, 541.709 501.452, 551.700 501.805, 559.968 502.558, 569.940 503.164, 577.963 504.252, 587.904 505.096, 595.617 506.525, 605.514 507.586, 612.855 509.366, 622.695 510.617, 629.608 512.759, 639.376 514.171, 645.810 516.688, 655.488 518.225, 661.400 520.327, 668.321 522.756, 676.321 526.066, 685.757 527.737, 690.523 531.468, 699.801 533.140, 703.959 537.311, 713.048 538.434, 715.494 538.936, 716.589 542.000, 722.454 545.095, 728.380 545.884, 729.708 547.473, 732.383 551.582, 739.299 551.585, 739.303 553.146, 741.609 555.212, 744.661 558.374, 749.332 564.495, 757.240 565.432, 758.450 572.080, 765.921 572.725, 766.646 579.906, 773.605 580.221, 773.910 587.891, 780.237 595.703, 785.630 603.626, 790.094 611.632, 793.637 619.693, 796.269 627.783, 798.006 635.875, 798.868 643.945, 798.871 651.970, 798.038 659.928, 796.394 667.799, 793.963 675.563, 790.771 683.203, 786.844 690.701, 782.214 698.043, 776.906 705.214, 770.948 712.200, 764.372 718.990, 757.206 725.474, 749.593 725.572, 749.478 731.674, 741.556 731.936, 741.217 737.671, 733.025 738.072, 732.453 743.454, 724.025 743.973, 723.213 749.015, 714.577 749.629, 713.525 754.344, 704.707 755.034, 703.417 759.436, 694.437 760.182, 692.915 764.281, 683.794 765.066, 682.047 768.873, 672.800 769.681, 670.838 773.206, 661.480 774.022, 659.314 777.274, 649.857 778.085, 647.500 781.072, 637.957 781.866, 635.421 784.594, 625.800 785.360, 623.100 787.837, 613.412 788.565, 610.563 790.795, 600.815 791.478, 597.833 793.465, 588.033 794.094, 584.932 795.844, 575.086 796.413, 571.884 797.927, 561.999 798.431, 558.712 799.713, 548.794 800.147, 545.437 800.020, 544.016 " fill="none" stroke="rgb(0, 0, 0)" stroke-linecap="butt" stroke-linejoin="round" stroke-opacity="1.0" stroke-width="3.0" />
            <path d=" M 659.150, 213.441 656.699, 213.724 651.061, 214.375 642.905, 216.194 634.709, 218.913 626.500, 222.544 618.305, 227.097 610.154, 232.580 602.321, 238.797 602.077, 238.991 594.719, 245.763 594.106, 246.327 587.224, 253.583 586.273, 254.585 579.859, 262.257 578.612, 263.749 572.654, 271.780 571.155, 273.801 565.639, 282.142 563.935, 284.719 558.848, 293.329 556.988, 296.477 552.851, 304.299 550.344, 309.040 549.649, 310.508 548.797, 312.309 548.220, 313.529 548.107, 313.767 544.037, 322.368 541.672, 327.963 540.291, 331.229 538.098, 336.418 534.576, 345.777 532.557, 351.141 529.394, 360.628 527.961, 364.927 527.442, 366.483 524.629, 376.079 522.780, 382.385 520.308, 392.074 518.596, 398.785 516.458, 408.554 514.912, 415.617 513.095, 425.450 511.833, 432.285 508.576, 441.739 505.983, 449.268 " fill="none" stroke="rgb(0, 0, 0)" stroke-linecap="butt" stroke-linejoin="round" stroke-opacity="1.0" stroke-width="3.0" />
            <path d=" M 505.983, 449.268 504.813, 459.199 503.819, 467.635 " fill="none" stroke="rgb(0, 0, 0)" stroke-linecap="butt" stroke-linejoin="round" stroke-opacity="1.0" stroke-width="3.0" />
            <path d=" M 813.379, 349.881 813.357, 349.781 810.976, 340.069 810.672, 338.828 808.047, 329.179 807.749, 328.084 804.873, 318.507 804.590, 317.565 801.455, 308.069 801.196, 307.285 797.794, 297.882 797.570, 297.263 793.889, 287.965 793.712, 287.516 789.743, 278.338 789.624, 278.063 785.353, 269.021 785.308, 268.925 780.764, 260.122 775.995, 251.679 771.004, 243.613 765.796, 235.944 760.376, 228.689 754.749, 221.869 748.919, 215.504 742.893, 209.617 736.676, 204.230 730.275, 199.370 723.699, 195.060 716.956, 191.319 710.056, 188.164 703.010, 185.613 695.830, 183.686 688.526, 182.400 681.112, 181.777 673.603, 181.836 671.651, 182.032 666.012, 182.598 658.358, 184.079 650.656, 186.290 642.923, 189.237 635.179, 192.930 627.441, 197.375 619.731, 202.577 612.070, 208.543 604.589, 215.180 604.480, 215.276 599.495, 220.266 596.985, 222.778 590.326, 230.238 590.002, 230.600 589.608, 231.043 583.347, 238.841 582.370, 240.057 576.498, 248.151 575.296, 249.808 569.799, 258.162 568.407, 260.279 567.923, 261.087 562.792, 269.670 561.727, 271.452 556.949, 280.237 555.280, 283.307 550.923, 292.114 549.090, 295.819 547.698, 298.917 546.309, 302.008 545.518, 303.767 544.781, 305.407 543.183, 308.965 539.718, 317.467 538.376, 320.760 537.581, 322.711 534.120, 332.092 532.303, 337.017 529.145, 346.505 527.367, 351.845 526.137, 355.963 523.276, 365.545 522.795, 367.153 520.224, 376.817 518.606, 382.898 516.319, 392.634 514.816, 399.034 512.809, 408.830 511.440, 415.509 509.708, 425.357 508.492, 432.271 507.031, 442.164 505.983, 449.268 504.792, 459.197 503.923, 466.445 503.819, 467.635 502.893, 477.592 502.321, 483.745 501.666, 493.723 501.181, 501.111 500.951, 507.026 500.564, 517.018 500.507, 518.486 500.388, 528.486 500.301, 535.814 500.453, 545.813 500.562, 553.037 500.986, 563.028 501.287, 570.100 501.986, 580.076 502.468, 586.949 503.449, 596.901 504.102, 603.531 505.371, 613.450 506.182, 619.792 507.746, 629.669 508.698, 635.682 510.562, 645.507 511.634, 651.158 513.806, 660.919 514.975, 666.175 517.464, 675.861 518.706, 680.695 519.138, 682.167 521.953, 691.763 522.808, 694.678 525.963, 704.168 527.267, 708.091 530.774, 717.455 532.063, 720.898 535.939, 730.116 536.615, 731.725 537.181, 733.069 540.102, 739.276 542.599, 744.578 543.795, 746.854 545.317, 749.749 548.293, 755.408 549.337, 757.186 550.857, 759.774 552.878, 763.218 554.242, 765.541 559.726, 773.903 560.423, 774.965 566.341, 783.025 566.814, 783.669 573.178, 791.382 573.394, 791.643 580.142, 798.880 587.039, 805.374 594.064, 811.121 601.196, 816.124 608.415, 820.391 615.699, 823.933 623.030, 826.759 630.214, 828.828 630.390, 828.879 637.762, 830.305 645.130, 831.046 652.478, 831.115 659.791, 830.523 667.056, 829.290 674.257, 827.437 681.382, 824.985 688.419, 821.954 695.357, 818.361 702.185, 814.225 708.893, 809.562 715.473, 804.388 721.915, 798.723 728.212, 792.590 734.356, 786.010 740.341, 779.004 746.162, 771.592 751.811, 763.793 757.284, 755.624 762.575, 747.101 767.566, 738.435 767.679, 738.239 772.396, 729.422 772.591, 729.058 777.047, 720.106 777.310, 719.578 781.512, 710.504 781.831, 709.816 785.789, 700.633 786.152, 699.791 789.874, 690.509 790.271, 689.519 793.762, 680.148 794.184, 679.016 797.449, 669.564 797.888, 668.295 800.933, 658.770 801.380, 657.372 804.209, 647.781 804.657, 646.262 807.277, 636.611 807.720, 634.982 810.135, 625.278 810.566, 623.546 812.781, 613.794 813.195, 611.970 815.211, 602.175 815.603, 600.267 817.423, 590.434 817.790, 588.451 819.416, 578.584 819.753, 576.536 821.188, 566.640 821.493, 564.537 822.738, 554.615 823.008, 552.467 823.765, 545.327 " fill="none" stroke="rgb(0, 0, 0)" stroke-linecap="butt" stroke-linejoin="round" stroke-opacity="1.0" stroke-width="3.0" />
            <path d=" M 671.362, 182.034 663.761, 182.797 656.097, 184.278 648.385, 186.488 640.643, 189.434 632.889, 193.125 625.142, 197.566 617.423, 202.765 609.753, 208.726 602.266, 215.355 602.155, 215.453 595.080, 222.521 594.652, 222.948 593.917, 223.770 587.267, 231.205 583.945, 235.336 580.023, 240.211 574.143, 248.299 572.942, 249.952 567.438, 258.301 566.273, 260.068 566.232, 260.131 566.046, 260.412 565.868, 260.710 565.845, 260.748 560.706, 269.327 559.360, 271.574 558.081, 273.923 553.296, 282.704 552.908, 283.416 550.327, 288.625 547.056, 295.225 546.714, 295.915 545.654, 298.269 544.417, 301.016 543.660, 302.697 540.802, 309.046 538.950, 313.584 537.606, 316.874 535.196, 322.777 531.729, 332.157 529.914, 337.068 526.751, 346.555 525.143, 351.377 524.976, 351.879 522.110, 361.460 520.402, 367.170 517.827, 376.833 516.210, 382.898 513.921, 392.632 512.419, 399.015 510.409, 408.811 509.043, 415.471 507.308, 425.319 506.094, 432.214 504.632, 442.107 503.585, 449.191 502.393, 459.120 501.526, 466.348 500.603, 476.306 499.925, 483.628 499.270, 493.607 498.786, 500.975 498.404, 510.848 498.114, 518.331 497.997, 528.330 497.911, 535.639 498.065, 545.637 498.175, 552.842 498.602, 562.833 498.903, 569.887 499.606, 579.862 500.089, 586.717 501.073, 596.668 501.727, 603.280 503.000, 613.199 503.812, 619.523 505.380, 629.400 506.333, 635.397 508.202, 645.221 509.275, 650.856 511.453, 660.616 512.622, 665.858 515.117, 675.542 516.359, 680.363 518.593, 687.957 520.468, 694.333 523.630, 703.820 524.934, 707.732 528.449, 717.094 529.738, 720.527 533.622, 729.742 534.863, 732.687 536.171, 735.460 539.672, 742.879 540.289, 744.186 543.373, 750.038 544.898, 752.932 545.992, 755.006 548.965, 760.059 550.471, 762.619 551.949, 765.131 552.500, 765.968 557.992, 774.325 558.139, 774.548 564.065, 782.602 564.539, 783.245 570.911, 790.952 571.128, 791.214 577.885, 798.447 584.792, 804.938 591.827, 810.682 598.969, 815.683 606.198, 819.950 613.492, 823.491 620.833, 826.318 628.203, 828.440 " fill="none" stroke="rgb(0, 0, 0)" stroke-linecap="butt" stroke-linejoin="round" stroke-opacity="1.0" stroke-width="3.0" />
            <path d=" M 673.603, 181.836 671.362, 182.034 " fill="none" stroke="rgb(0, 0, 0)" stroke-linecap="butt" stroke-linejoin="round" stroke-opacity="1.0" stroke-width="3.0" />
            <path d=" M 628.203, 828.440 630.390, 828.879 " fill="none" stroke="rgb(0, 0, 0)" stroke-linecap="butt" stroke-linejoin="round" stroke-opacity="1.0" stroke-width="3.0" />
            <path d=" M 488.023, 445.928 486.821, 455.855 486.403, 459.305 485.640, 465.603 484.710, 475.559 483.788, 485.423 483.130, 495.401 482.476, 505.320 482.398, 507.334 482.035, 516.728 481.883, 520.652 481.769, 523.604 481.706, 525.225 481.593, 535.224 481.482, 545.068 481.644, 555.067 481.801, 564.781 482.241, 574.772 482.661, 584.297 483.383, 594.271 484.054, 603.550 485.063, 613.499 485.973, 622.477 487.274, 632.392 488.405, 641.015 490.005, 650.886 491.338, 659.107 493.245, 668.923 494.756, 676.697 496.979, 686.447 498.641, 693.734 501.190, 703.404 502.974, 710.170 505.860, 719.745 507.734, 725.961 510.969, 735.424 512.429, 739.693 512.899, 741.068 514.164, 744.348 517.762, 753.679 518.446, 755.454 521.147, 761.691 524.350, 769.088 528.715, 778.085 529.482, 779.665 529.816, 780.354 530.161, 781.064 530.587, 781.943 530.949, 782.609 533.374, 787.077 536.888, 793.550 537.131, 793.997 538.045, 795.501 538.411, 796.103 539.533, 797.950 542.497, 802.830 543.129, 803.869 543.956, 805.230 543.978, 805.262 546.098, 808.376 551.036, 815.628 557.113, 823.570 558.345, 825.181 564.881, 832.749 565.858, 833.880 572.859, 841.020 573.548, 841.723 581.015, 848.374 581.391, 848.709 589.363, 854.841 597.439, 860.125 605.597, 864.569 613.814, 868.185 622.068, 870.984 630.341, 872.983 634.655, 873.936 642.903, 875.143 651.130, 875.583 659.320, 875.274 667.455, 874.236 675.521, 872.492 683.502, 870.062 691.385, 866.970 699.158, 863.238 706.809, 858.890 714.326, 853.949 721.701, 848.438 728.923, 842.381 735.983, 835.800 742.875, 828.719 749.517, 821.244 749.591, 821.160 755.910, 813.410 756.125, 813.146 762.130, 805.150 762.470, 804.698 768.172, 796.483 768.620, 795.838 774.031, 787.428 774.572, 786.586 779.701, 778.001 780.321, 776.964 785.178, 768.223 785.862, 766.992 790.457, 758.110 791.192, 756.688 795.533, 747.680 796.307, 746.073 800.403, 736.950 801.205, 735.165 805.064, 725.939 805.883, 723.982 809.511, 714.663 810.338, 712.541 813.743, 703.139 814.568, 700.861 817.755, 691.382 818.571, 688.958 821.546, 679.410 822.345, 676.848 825.113, 667.238 825.888, 664.547 828.454, 654.882 829.200, 652.072 831.566, 642.356 832.277, 639.436 834.449, 629.675 835.120, 626.657 837.099, 616.855 837.727, 613.748 839.516, 603.909 840.096, 600.724 841.698, 590.853 842.226, 587.598 843.643, 577.699 844.117, 574.386 845.349, 564.463 845.767, 561.102 846.816, 551.157 847.174, 547.759 848.041, 537.796 848.339, 534.370 849.024, 524.394 849.260, 520.951 849.763, 510.963 849.936, 507.514 850.256, 497.519 850.366, 494.073 850.503, 484.074 850.549, 480.643 850.501, 470.643 850.484, 467.237 850.249, 457.240 850.170, 453.869 849.747, 443.878 849.606, 440.554 848.992, 430.573 848.791, 427.306 847.984, 417.338 847.725, 414.139 846.720, 404.190 846.405, 401.069 845.200, 391.142 844.832, 388.112 843.422, 378.212 843.005, 375.282 841.386, 365.414 840.923, 362.596 839.088, 352.765 838.585, 350.069 836.529, 340.283 835.991, 337.720 833.708, 327.984 833.140, 325.565 830.622, 315.887 830.033, 313.622 827.272, 304.011 826.669, 301.910 823.657, 292.374 823.048, 290.446 819.775, 280.997 819.170, 279.251 815.627, 269.900 815.037, 268.344 811.212, 259.105 810.649, 257.747 806.530, 248.634 806.008, 247.479 801.583, 238.511 801.115, 237.562 796.370, 228.759 795.971, 228.019 790.894, 219.404 790.580, 218.872 785.156, 210.472 784.945, 210.145 779.159, 201.989 779.069, 201.861 772.955, 194.044 766.610, 186.719 760.037, 179.911 753.244, 173.645 746.238, 167.945 739.025, 162.839 731.615, 158.351 724.017, 154.506 716.242, 151.330 708.302, 148.847 700.210, 147.082 691.978, 146.058 683.622, 145.797 675.159, 146.321 670.704, 146.784 662.128, 148.114 653.480, 150.266 644.781, 153.255 636.051, 157.097 627.312, 161.803 618.888, 167.191 618.589, 167.383 610.565, 173.352 609.904, 173.844 602.292, 180.330 601.283, 181.190 594.086, 188.134 592.752, 189.421 585.968, 196.768 584.338, 198.534 577.960, 206.236 576.068, 208.522 570.088, 216.536 567.971, 219.374 562.378, 227.663 560.075, 231.075 554.856, 239.605 552.408, 243.606 547.552, 252.348 544.999, 256.945 544.536, 257.862 541.770, 263.344 541.016, 264.839 540.927, 265.014 540.919, 265.031 540.901, 265.065 539.558, 267.728 537.876, 271.062 536.854, 273.291 535.511, 276.223 533.708, 280.159 532.717, 282.322 532.111, 283.645 531.066, 285.926 530.810, 286.544 528.004, 293.301 525.709, 298.827 524.599, 301.500 524.420, 301.975 520.904, 311.337 518.498, 317.743 517.304, 321.273 514.098, 330.746 512.790, 334.611 510.731, 341.402 507.828, 350.971 507.500, 352.053 504.893, 361.707 502.649, 370.018 500.331, 379.745 498.258, 388.448 496.224, 398.239 494.346, 407.285 492.592, 417.130 490.929, 426.467 490.803, 427.310 489.327, 437.201 489.213, 437.964 488.023, 445.928 " fill="none" stroke="rgb(0, 0, 0)" stroke-linecap="butt" stroke-linejoin="round" stroke-opacity="1.0" stroke-width="3.0" />
            <path d=" M 675.159, 146.321 666.606, 147.649 657.980, 149.801 649.303, 152.792 640.594, 156.637 631.877, 161.349 623.462, 166.752 623.173, 166.938 615.160, 172.921 614.507, 173.409 606.908, 179.909 605.905, 180.766 598.722, 187.724 597.392, 189.012 590.622, 196.372 588.995, 198.141 582.632, 205.855 580.741, 208.147 574.776, 216.173 572.659, 219.020 567.080, 227.319 564.777, 230.744 559.573, 239.283 557.123, 243.301 552.281, 252.051 549.726, 256.667 546.180, 263.721 545.853, 264.373 545.599, 264.877 542.614, 270.815 542.355, 271.382 541.005, 274.339 536.853, 283.436 536.331, 284.580 535.815, 285.711 535.429, 286.644 533.848, 290.463 532.552, 293.595 529.356, 301.318 525.851, 310.684 523.263, 317.598 520.067, 327.073 519.509, 328.729 517.562, 334.503 514.668, 344.075 512.277, 351.984 509.677, 361.640 507.430, 369.990 506.684, 373.130 504.515, 382.259 504.184, 383.655 503.042, 388.462 501.014, 398.255 499.132, 407.343 498.751, 409.486 497.002, 419.332 495.716, 426.568 494.243, 436.459 492.810, 446.075 492.578, 447.992 491.377, 457.920 491.292, 458.624 490.425, 465.795 489.496, 475.751 488.571, 485.661 487.912, 495.639 487.337, 504.357 487.254, 505.604 487.184, 507.411 487.106, 509.424 486.825, 516.675 486.743, 518.788 486.552, 523.692 486.480, 525.554 486.364, 535.553 486.250, 545.443 486.342, 551.255 486.500, 561.254 486.551, 564.482 486.562, 565.201 486.997, 575.191 487.414, 584.760 488.130, 594.735 488.799, 604.056 489.800, 614.006 490.707, 623.024 492.000, 632.940 493.129, 641.603 494.720, 651.475 496.050, 659.733 497.947, 669.551 499.455, 677.360 501.666, 687.113 503.326, 694.432 505.522, 702.804 507.645, 710.902 510.518, 720.480 512.390, 726.724 513.688, 730.538 516.909, 740.005 517.539, 741.859 521.122, 751.195 523.070, 756.272 527.028, 765.455 528.957, 769.930 530.855, 773.861 534.328, 781.054 535.175, 782.808 537.844, 787.744 539.334, 790.502 541.701, 794.881 543.364, 797.631 544.859, 800.103 546.919, 803.507 548.506, 806.132 554.118, 814.409 555.567, 816.545 561.628, 824.499 562.856, 826.110 569.377, 833.691 570.348, 834.820 577.335, 841.973 578.017, 842.671 585.472, 849.336 585.839, 849.664 593.789, 855.800 601.843, 861.087 609.978, 865.532 618.173, 869.146 626.405, 871.942 634.655, 873.936 " fill="none" stroke="rgb(0, 0, 0)" stroke-linecap="butt" stroke-linejoin="round" stroke-opacity="1.0" stroke-width="3.0" />
            <path d=" M 747.647, 529.220 744.205, 528.078 734.809, 524.961 734.423, 523.521 733.936, 522.215 733.356, 521.066 732.693, 520.094 731.958, 519.313 731.163, 518.740 730.320, 518.382 729.445, 518.247 719.462, 517.662 718.286, 517.594 717.386, 517.683 716.517, 517.999 715.696, 518.536 714.904, 519.283 714.154, 520.230 713.459, 521.359 712.831, 522.652 712.282, 524.088 711.820, 525.641 711.453, 527.286 711.189, 528.993 715.915, 530.469 719.083, 530.672 727.079, 531.186 727.167, 530.645 727.295, 530.132 727.459, 529.662 727.655, 529.246 727.877, 528.898 728.121, 528.625 728.377, 528.435 728.641, 528.334 728.904, 528.325 " fill="none" stroke="rgb(0, 0, 0)" stroke-linecap="butt" stroke-linejoin="round" stroke-opacity="1.0" stroke-width="3.0" />
            <path d=" M 729.445, 518.247 728.551, 518.338 727.688, 518.655 726.873, 519.195 726.086, 519.947 725.341, 520.899 724.651, 522.034 724.027, 523.334 723.480, 524.777 723.021, 526.338 722.668, 527.932 722.656, 527.991 722.392, 529.707 " fill="none" stroke="rgb(0, 0, 0)" stroke-linecap="butt" stroke-linejoin="round" stroke-opacity="1.0" stroke-width="3.0" />
            <path d=" M 711.189, 528.993 718.986, 529.490 722.392, 529.707 727.079, 531.186 " fill="none" stroke="rgb(0, 0, 0)" stroke-linecap="butt" stroke-linejoin="round" stroke-opacity="1.0" stroke-width="3.0" />
            <path d=" M 728.904, 528.325 729.160, 528.406 729.401, 528.577 729.620, 528.832 729.813, 529.165 729.974, 529.565 730.097, 530.023 730.181, 530.526 730.223, 531.060 730.221, 531.611 730.176, 532.163 " fill="none" stroke="rgb(0, 0, 0)" stroke-linecap="butt" stroke-linejoin="round" stroke-opacity="1.0" stroke-width="3.0" />
            <path d=" M 719.037, 531.444 729.017, 532.088 730.176, 532.163 739.712, 535.173 745.291, 536.933 747.233, 537.546 " fill="none" stroke="rgb(0, 0, 0)" stroke-linecap="butt" stroke-linejoin="round" stroke-opacity="1.0" stroke-width="3.0" />
            <path d=" M 802.600, 522.532 801.748, 522.629 800.926, 522.961 800.153, 523.522 799.405, 524.301 798.695, 525.286 798.163, 526.234 798.035, 526.461 797.437, 527.805 796.911, 529.296 796.467, 530.908 796.124, 532.554 796.111, 532.615 795.851, 534.386 " fill="none" stroke="rgb(0, 0, 0)" stroke-linecap="butt" stroke-linejoin="round" stroke-opacity="1.0" stroke-width="3.0" />
            <path d=" M 783.927, 533.626 791.305, 534.096 795.851, 534.386 798.745, 535.368 800.270, 535.885 " fill="none" stroke="rgb(0, 0, 0)" stroke-linecap="butt" stroke-linejoin="round" stroke-opacity="1.0" stroke-width="3.0" />
            <path d=" M 802.013, 532.925 802.254, 533.008 802.480, 533.183 802.686, 533.444 802.866, 533.786 803.015, 534.198 803.129, 534.670 803.205, 535.188 803.241, 535.738 803.235, 536.306 803.189, 536.876 798.823, 536.594 791.341, 536.111 " fill="none" stroke="rgb(0, 0, 0)" stroke-linecap="butt" stroke-linejoin="round" stroke-opacity="1.0" stroke-width="3.0" />
            <path d=" M 787.003, 499.886 787.205, 499.965 787.385, 500.084 787.538, 500.241 787.657, 500.430 787.739, 500.645 787.779, 500.880 787.773, 501.131 787.724, 501.366 787.635, 501.589 787.508, 501.794 787.349, 501.971 787.163, 502.115 786.956, 502.220 786.733, 502.283 786.499, 502.297 786.340, 502.276 " fill="none" stroke="rgb(0, 0, 0)" stroke-linecap="butt" stroke-linejoin="round" stroke-opacity="1.0" stroke-width="3.0" />
            <path d=" M 787.003, 499.886 786.979, 499.879 786.971, 499.877 786.948, 499.871 786.911, 499.863 786.869, 499.856 786.824, 499.850 786.777, 499.844 786.730, 499.840 786.683, 499.837 786.643, 499.835 786.609, 499.836 786.581, 499.837 786.375, 499.868 786.335, 499.874 786.122, 499.953 786.088, 499.966 785.885, 500.090 785.710, 500.251 785.569, 500.446 785.555, 500.473 785.453, 500.697 785.397, 500.944 785.393, 501.182 785.435, 501.416 785.523, 501.637 785.652, 501.837 785.676, 501.862 785.838, 502.028 786.032, 502.160 786.187, 502.231 786.254, 502.251 786.340, 502.276 " fill="none" stroke="rgb(0, 0, 0)" stroke-linecap="butt" stroke-linejoin="round" stroke-opacity="1.0" stroke-width="3.0" />
            <path d=" M 786.811, 504.229 789.753, 504.354 789.970, 498.211 789.831, 498.157 787.038, 498.021 784.187, 497.883 783.463, 503.986 784.384, 504.126 " fill="none" stroke="rgb(0, 0, 0)" stroke-linecap="butt" stroke-linejoin="round" stroke-opacity="1.0" stroke-width="3.0" />
            <path d=" M 783.463, 503.986 789.107, 504.275 " fill="none" stroke="rgb(0, 0, 0)" stroke-linecap="butt" stroke-linejoin="round" stroke-opacity="1.0" stroke-width="3.0" />
            <path d=" M 789.753, 504.354 789.107, 504.275 789.831, 498.157 " fill="none" stroke="rgb(0, 0, 0)" stroke-linecap="butt" stroke-linejoin="round" stroke-opacity="1.0" stroke-width="3.0" />
            <path d=" M 727.402, 534.057 727.290, 534.038 717.455, 532.227 715.842, 531.930 706.034, 529.983 704.407, 529.660 694.622, 527.597 692.976, 527.251 683.211, 525.094 681.544, 524.725 671.796, 522.493 670.105, 522.106 660.370, 519.817 658.652, 519.413 648.926, 517.088 647.179, 516.670 637.458, 514.325 635.681, 513.896 625.961, 511.549 624.153, 511.112 614.428, 508.780 612.587, 508.339 602.855, 506.038 600.980, 505.595 591.237, 503.344 589.326, 502.902 579.568, 500.715 577.620, 500.278 577.219, 490.286 577.061, 486.346 576.531, 476.360 576.331, 472.571 575.669, 462.593 575.430, 458.975 574.631, 449.007 574.356, 445.579 573.414, 435.624 573.109, 432.407 572.017, 422.467 571.689, 419.480 570.438, 409.559 570.094, 406.823 568.676, 396.924 568.323, 394.462 566.727, 384.590 566.376, 382.422 564.589, 372.583 564.253, 370.730 562.262, 360.930 561.954, 359.414 559.740, 349.662 559.477, 348.504 557.925, 342.375 556.825, 338.029 556.434, 336.648 " fill="none" stroke="rgb(0, 0, 0)" stroke-linecap="butt" stroke-linejoin="round" stroke-opacity="1.0" stroke-width="3.0" />
            <path d=" M 536.067, 264.549 534.834, 264.362 532.782, 264.053 528.308, 263.377 526.132, 262.849 523.855, 262.296 520.098, 261.385 515.406, 260.246 " fill="none" stroke="rgb(0, 0, 0)" stroke-linecap="butt" stroke-linejoin="round" stroke-opacity="1.0" stroke-width="3.0" />
            <path d=" M 507.163, 257.037 502.331, 256.347 497.393, 256.636 492.363, 257.936 487.252, 260.279 487.169, 260.335 483.527, 262.740 482.077, 263.698 477.232, 267.886 476.852, 268.214 471.595, 273.849 468.741, 277.519 466.325, 280.623 461.062, 288.549 460.406, 289.688 456.097, 297.161 455.827, 297.630 451.308, 306.551 450.640, 307.868 446.545, 316.991 445.527, 319.258 441.810, 328.542 440.510, 331.787 437.133, 341.199 435.615, 345.430 432.546, 354.948 430.866, 360.159 428.080, 369.763 426.289, 375.936 423.763, 385.612 421.909, 392.715 419.624, 402.451 417.750, 410.440 415.692, 420.226 413.837, 429.045 411.993, 438.874 410.195, 448.460 408.555, 458.325 406.914, 468.190 406.845, 468.605 405.399, 478.500 403.953, 488.394 403.808, 489.388 402.550, 499.309 401.292, 509.230 401.104, 510.718 400.029, 520.660 398.954, 530.602 398.750, 532.493 397.854, 542.453 396.958, 552.413 396.760, 554.608 396.040, 564.582 395.320, 574.556 395.147, 576.952 394.602, 586.938 394.058, 596.923 393.922, 599.415 393.552, 609.408 393.182, 619.401 393.091, 621.882 392.897, 631.880 392.703, 641.878 392.657, 644.238 392.642, 654.238 392.626, 664.238 392.623, 666.371 392.790, 676.370 392.957, 686.368 392.987, 688.169 393.341, 698.163 393.695, 708.157 393.744, 709.528 394.292, 719.513 394.839, 729.498 394.886, 730.344 395.636, 740.316 396.386, 750.288 396.404, 750.520 396.428, 750.416 398.673, 740.672 400.919, 730.927 401.986, 726.299 402.149, 725.622 404.497, 715.902 406.844, 706.181 407.681, 702.713 410.133, 693.018 412.585, 683.323 413.490, 679.742 416.050, 670.074 418.609, 660.408 419.414, 657.364 422.084, 647.727 424.753, 638.090 425.453, 635.563 428.236, 625.958 431.019, 616.353 431.608, 614.318 434.507, 604.747 437.406, 595.177 437.880, 593.611 440.898, 584.077 443.916, 574.543 444.270, 573.423 447.410, 563.929 450.549, 554.435 450.779, 553.738 454.043, 544.285 457.306, 534.833 457.409, 534.536 460.799, 525.129 464.160, 515.802 467.679, 506.442 471.034, 497.518 474.684, 488.208 478.032, 479.667 481.815, 470.410 485.156, 462.233 486.403, 459.305 " fill="none" stroke="rgb(0, 0, 0)" stroke-linecap="butt" stroke-linejoin="round" stroke-opacity="1.0" stroke-width="3.0" />
            <path d=" M 366.263, 741.882 362.353, 751.086 361.362, 753.419 " fill="none" stroke="rgb(0, 0, 0)" stroke-linecap="butt" stroke-linejoin="round" stroke-opacity="1.0" stroke-width="3.0" />
            <path d=" M 487.169, 260.335 477.172, 260.086 472.342, 259.965 " fill="none" stroke="rgb(0, 0, 0)" stroke-linecap="butt" stroke-linejoin="round" stroke-opacity="1.0" stroke-width="3.0" />
            <path d=" M 520.098, 261.385 514.494, 259.501 512.112, 258.701 507.163, 257.037 " fill="none" stroke="rgb(0, 0, 0)" stroke-linecap="butt" stroke-linejoin="round" stroke-opacity="1.0" stroke-width="3.0" />
            <path d=" M 531.138, 470.112 531.134, 470.125 " fill="none" stroke="rgb(0, 0, 0)" stroke-linecap="butt" stroke-linejoin="round" stroke-opacity="1.0" stroke-width="3.0" />
            <path d=" M 541.016, 264.839 540.886, 264.831 538.877, 264.713 536.067, 264.549 534.860, 264.478 532.853, 264.360 531.394, 264.275 " fill="none" stroke="rgb(0, 0, 0)" stroke-linecap="butt" stroke-linejoin="round" stroke-opacity="1.0" stroke-width="3.0" />
            <path d=" M 540.919, 265.031 539.058, 265.093 " fill="none" stroke="rgb(0, 0, 0)" stroke-linecap="butt" stroke-linejoin="round" stroke-opacity="1.0" stroke-width="3.0" />
            <path d=" M 557.765, 508.551 557.725, 506.497 " fill="none" stroke="rgb(0, 0, 0)" stroke-linecap="butt" stroke-linejoin="round" stroke-opacity="1.0" stroke-width="3.0" />
        </g>
    </g>
</svg>
