<?xml version='1.0' encoding='ascii'?>
<svg xmlns="http://www.w3.org/2000/svg" height="1080" version="1.1" width="1080">
    <g id="View Layer_LineSet" inkscape:groupmode="lineset" inkscape:label="View Layer_LineSet" xmlns:inkscape="http://www.inkscape.org/namespaces/inkscape">
        <g id="strokes" inkscape:groupmode="layer" inkscape:label="strokes" xmlns:inkscape="http://www.inkscape.org/namespaces/inkscape">
            <path d=" M 564.294, 491.764 564.291, 492.925 564.269, 494.087 564.226, 495.240 564.163, 496.372 564.081, 497.472 563.986, 498.474 563.981, 498.528 563.864, 499.531 563.730, 500.469 563.579, 501.336 563.464, 501.909 563.342, 502.436 563.215, 502.914 563.164, 503.079 563.082, 503.340 562.945, 503.712 562.804, 504.028 562.694, 504.226 562.660, 504.286 560.264, 508.065 559.945, 508.568 " fill="none" stroke="rgb(0, 0, 0)" stroke-linecap="butt" stroke-linejoin="round" stroke-opacity="1.0" stroke-width="3.0" />
            <path d=" M 359.544, 731.822 365.797, 735.950 " fill="none" stroke="rgb(0, 0, 0)" stroke-linecap="butt" stroke-linejoin="round" stroke-opacity="1.0" stroke-width="3.0" />
            <path d=" M 383.454, 736.829 393.061, 734.052 395.129, 733.455 " fill="none" stroke="rgb(0, 0, 0)" stroke-linecap="butt" stroke-linejoin="round" stroke-opacity="1.0" stroke-width="3.0" />
            <path d=" M 395.129, 733.455 390.378, 724.656 385.626, 715.857 384.828, 714.379 " fill="none" stroke="rgb(0, 0, 0)" stroke-linecap="butt" stroke-linejoin="round" stroke-opacity="1.0" stroke-width="3.0" />
            <path d=" M 474.459, 251.331 470.106, 251.432 465.679, 252.566 461.191, 254.772 456.655, 258.080 452.086, 262.516 447.499, 268.105 447.277, 268.433 444.087, 273.138 442.913, 274.869 438.344, 282.821 433.903, 291.781 433.811, 291.968 429.841, 301.145 429.336, 302.312 425.775, 311.656 424.939, 313.850 421.737, 323.324 420.641, 326.567 417.759, 336.142 416.465, 340.440 413.870, 350.097 412.434, 355.441 410.099, 365.165 408.570, 371.531 406.473, 381.309 404.896, 388.659 403.019, 398.481 401.435, 406.767 399.762, 416.627 398.207, 425.790 396.727, 435.679 395.235, 445.648 393.937, 455.563 392.639, 465.479 392.538, 466.257 391.414, 476.193 390.290, 486.130 390.133, 487.523 389.177, 497.477 388.221, 507.431 388.037, 509.346 387.245, 519.314 386.452, 529.283 386.266, 531.618 385.632, 541.598 384.998, 551.577 384.830, 554.226 384.353, 564.215 383.876, 574.203 383.739, 577.055 383.418, 587.050 383.097, 597.044 383.002, 599.985 382.836, 609.983 382.671, 619.982 382.622, 622.895 382.613, 632.895 382.603, 642.895 382.600, 645.666 382.750, 655.665 382.899, 665.664 382.937, 668.179 383.248, 678.174 383.560, 688.169 383.627, 690.318 384.105, 700.307 384.583, 710.295 384.664, 711.973 384.828, 714.379 384.217, 724.361 383.606, 734.342 383.454, 736.829 " fill="none" stroke="rgb(0, 0, 0)" stroke-linecap="butt" stroke-linejoin="round" stroke-opacity="1.0" stroke-width="3.0" />
            <path d=" M 566.962, 520.295 567.669, 520.308 567.986, 520.313 573.130, 511.738 574.735, 509.062 577.795, 505.236 577.450, 495.242 577.302, 490.963 576.829, 480.974 576.634, 476.838 576.029, 466.856 575.788, 462.883 575.046, 452.911 574.765, 449.122 573.880, 439.161 573.562, 435.578 572.529, 425.631 572.180, 422.273 570.991, 412.344 570.618, 409.234 569.263, 399.326 568.874, 396.487 567.344, 386.604 566.949, 384.057 565.231, 374.206 564.842, 371.973 562.922, 362.159 562.552, 360.264 560.415, 350.495 560.079, 348.960 558.059, 340.690 557.811, 339.677 " fill="none" stroke="rgb(0, 0, 0)" stroke-linecap="butt" stroke-linejoin="round" stroke-opacity="1.0" stroke-width="3.0" />
            <path d=" M 554.350, 347.118 555.066, 349.699 555.932, 353.187 557.620, 359.991 559.788, 369.753 560.001, 370.713 561.947, 380.522 562.006, 380.819 562.207, 381.835 563.948, 391.682 564.239, 393.327 565.790, 403.206 566.097, 405.161 567.470, 415.066 567.780, 417.309 568.985, 427.236 569.290, 429.746 570.337, 439.691 570.627, 442.447 571.523, 452.406 571.791, 455.385 572.543, 465.357 572.783, 468.539 573.396, 478.520 573.603, 481.884 574.084, 491.873 574.254, 495.399 574.291, 496.456 574.239, 497.258 574.178, 498.038 574.107, 498.794 574.027, 499.521 573.938, 500.215 573.842, 500.873 573.738, 501.490 573.626, 502.064 573.509, 502.592 573.386, 503.071 573.258, 503.497 573.125, 503.870 572.989, 504.187 572.851, 504.445 568.857, 510.988 568.636, 510.141 568.395, 509.477 568.138, 509.010 567.869, 508.746 567.614, 508.696 567.592, 508.691 565.022, 508.650 564.778, 508.646 564.103, 508.635 563.236, 508.621 559.945, 508.568 559.668, 508.563 557.885, 508.534 557.682, 508.531 557.204, 508.523 556.914, 508.679 556.626, 509.043 556.345, 509.609 556.076, 510.370 555.876, 511.115 555.823, 511.312 555.591, 512.419 555.384, 513.674 555.205, 515.054 555.058, 516.537 554.945, 518.097 554.868, 519.707 554.828, 521.339 554.827, 522.966 554.864, 524.558 556.046, 524.580 557.889, 524.614 558.000, 524.616 559.780, 524.648 563.343, 524.713 564.158, 524.728 565.125, 524.745 565.326, 524.749 566.928, 522.077 566.919, 521.570 566.925, 521.053 566.945, 520.540 566.962, 520.295 566.979, 520.045 567.027, 519.581 567.086, 519.162 567.155, 518.798 567.233, 518.499 567.316, 518.275 567.404, 518.130 567.493, 518.069 " fill="none" stroke="rgb(0, 0, 0)" stroke-linecap="butt" stroke-linejoin="round" stroke-opacity="1.0" stroke-width="3.0" />
            <path d=" M 463.130, 922.666 459.089, 921.888 457.933, 921.374 455.047, 920.088 451.016, 917.240 449.381, 915.638 447.013, 913.317 443.052, 908.296 439.150, 902.161 435.325, 894.902 431.595, 886.511 428.044, 877.163 427.977, 876.987 424.866, 867.483 424.491, 866.337 421.762, 856.717 421.156, 854.578 418.763, 844.869 417.989, 841.729 415.895, 831.951 415.011, 827.818 413.185, 817.987 412.238, 812.887 410.656, 803.013 409.689, 796.980 408.330, 787.073 407.381, 780.152 406.228, 770.218 405.329, 762.465 404.369, 752.511 403.547, 743.991 402.769, 734.021 402.049, 724.809 401.420, 714.829 400.844, 705.689 " fill="none" stroke="rgb(0, 0, 0)" stroke-linecap="butt" stroke-linejoin="round" stroke-opacity="1.0" stroke-width="3.0" />
            <path d=" M 381.951, 340.647 379.728, 350.397 379.010, 353.547 377.025, 363.348 375.775, 369.517 374.007, 379.359 372.718, 386.530 371.148, 396.406 369.857, 404.530 368.472, 414.434 367.210, 423.454 365.998, 433.380 364.796, 443.228 363.747, 453.172 362.698, 463.117 362.629, 463.767 361.736, 473.727 360.842, 483.687 360.726, 484.983 359.982, 494.955 359.237, 504.928 359.099, 506.778 358.499, 516.760 357.899, 526.742 357.761, 529.047 357.301, 539.036 356.842, 549.026 356.720, 551.679 356.399, 561.674 356.078, 571.669 355.985, 574.561 355.800, 584.560 355.616, 594.558 355.561, 597.576 355.513, 607.576 355.465, 617.576 355.450, 620.604 355.539, 630.603 355.628, 640.603 355.654, 643.526 355.881, 653.523 356.109, 663.520 356.170, 666.222 356.539, 676.215 356.908, 686.209 356.996, 688.578 357.509, 698.565 358.023, 708.551 358.123, 710.481 358.787, 720.458 359.452, 730.436 359.544, 731.822 360.418, 741.784 361.292, 751.745 361.341, 752.299 362.408, 762.241 363.455, 771.997 364.727, 781.916 365.870, 790.832 367.362, 800.720 368.570, 808.727 370.301, 818.577 371.537, 825.614 373.528, 835.414 374.751, 841.435 377.029, 851.172 378.193, 856.142 380.793, 865.798 381.842, 869.695 383.989, 876.618 " fill="none" stroke="rgb(0, 0, 0)" stroke-linecap="butt" stroke-linejoin="round" stroke-opacity="1.0" stroke-width="3.0" />
            <path d=" M 523.986, 532.855 523.992, 533.064 524.127, 543.063 524.181, 546.986 524.207, 556.986 524.218, 560.979 524.137, 570.978 524.104, 575.023 523.916, 585.021 523.839, 589.098 523.545, 599.094 523.425, 603.187 523.381, 604.267 " fill="none" stroke="rgb(0, 0, 0)" stroke-linecap="butt" stroke-linejoin="round" stroke-opacity="1.0" stroke-width="3.0" />
            <path d=" M 510.854, 741.912 509.290, 751.789 509.047, 753.322 507.345, 763.176 506.861, 765.977 505.012, 775.805 504.530, 778.365 502.527, 788.162 502.057, 790.460 499.890, 800.222 499.444, 802.234 497.101, 811.955 496.690, 813.657 494.158, 823.331 493.800, 824.701 491.063, 834.319 490.774, 835.336 487.814, 844.887 487.615, 845.529 484.410, 855.001 484.327, 855.246 480.913, 864.456 477.376, 873.122 473.722, 881.209 469.954, 888.679 466.080, 895.495 462.105, 901.620 458.037, 907.013 453.883, 911.636 449.652, 915.451 449.381, 915.638 " fill="none" stroke="rgb(0, 0, 0)" stroke-linecap="butt" stroke-linejoin="round" stroke-opacity="1.0" stroke-width="3.0" />
            <path d=" M 394.817, 728.617 395.129, 733.455 395.930, 743.423 396.730, 753.391 396.769, 753.873 397.763, 763.823 398.731, 773.516 399.931, 783.444 401.002, 792.302 402.423, 802.200 403.564, 810.152 405.223, 820.014 406.398, 826.999 408.317, 836.814 409.484, 842.787 411.687, 852.541 412.799, 857.467 415.319, 867.144 416.323, 870.998 419.198, 880.576 420.031, 883.351 423.309, 892.798 423.901, 894.505 427.641, 903.780 427.911, 904.449 432.038, 913.175 436.260, 920.687 436.873, 921.587 437.146, 921.988 440.556, 926.996 444.906, 932.115 449.291, 936.064 453.693, 938.871 458.094, 940.566 462.480, 941.180 466.835, 940.749 471.146, 939.313 475.400, 936.911 478.386, 934.537 479.587, 933.582 483.697, 929.370 487.720, 924.318 491.341, 918.926 491.648, 918.468 495.474, 911.860 499.192, 904.539 500.210, 902.281 502.796, 896.545 506.282, 887.918 509.645, 878.697 512.788, 869.204 512.882, 868.921 515.773, 859.348 515.990, 858.627 518.653, 848.988 518.967, 847.850 521.422, 838.156 521.810, 836.625 524.077, 826.885 524.519, 824.986 526.611, 815.207 527.091, 812.964 529.021, 803.152 529.525, 800.589 531.305, 790.749 531.530, 789.504 " fill="none" stroke="rgb(0, 0, 0)" stroke-linecap="butt" stroke-linejoin="round" stroke-opacity="1.0" stroke-width="3.0" />
            <path d=" M 528.279, 783.336 526.768, 791.410 524.777, 801.210 524.380, 803.162 524.263, 803.692 522.110, 813.458 521.866, 814.566 519.538, 824.291 519.227, 825.590 516.710, 835.269 516.466, 836.208 513.742, 845.829 513.585, 846.384 510.632, 855.938 510.586, 856.086 507.474, 865.282 504.251, 873.936 500.921, 882.012 497.490, 889.473 493.962, 896.282 490.344, 902.402 486.642, 907.791 482.863, 912.412 479.016, 916.229 475.108, 919.200 471.151, 921.286 467.154, 922.453 463.130, 922.666 " fill="none" stroke="rgb(0, 0, 0)" stroke-linecap="butt" stroke-linejoin="round" stroke-opacity="1.0" stroke-width="3.0" />
            <path d=" M 560.264, 508.065 559.661, 508.024 557.876, 507.901 557.668, 507.887 555.820, 507.759 548.896, 507.282 548.433, 507.250 546.589, 507.123 546.232, 507.098 546.550, 517.093 546.667, 520.783 546.882, 530.780 546.964, 534.578 547.078, 544.577 547.122, 548.463 547.136, 558.463 547.142, 562.420 547.058, 572.420 547.025, 576.429 546.844, 586.428 546.771, 590.471 546.492, 600.467 546.380, 604.525 546.004, 614.518 545.852, 618.574 545.379, 628.563 545.188, 632.598 544.618, 642.582 544.389, 646.577 543.719, 656.555 543.455, 660.492 542.684, 670.462 542.385, 674.322 541.906, 679.792 " fill="none" stroke="rgb(0, 0, 0)" stroke-linecap="butt" stroke-linejoin="round" stroke-opacity="1.0" stroke-width="3.0" />
            <path d=" M 544.474, 686.659 545.201, 677.875 545.926, 667.902 546.251, 663.425 546.877, 653.445 547.163, 648.892 547.693, 638.906 547.938, 634.296 548.373, 624.305 548.576, 619.656 548.917, 609.662 549.077, 604.993 549.325, 594.996 549.441, 590.326 549.597, 580.327 549.670, 575.673 549.733, 565.673 549.762, 561.053 549.732, 551.053 549.718, 546.486 549.594, 536.487 549.538, 531.991 549.318, 521.994 549.222, 517.587 548.906, 507.592 548.896, 507.282 " fill="none" stroke="rgb(0, 0, 0)" stroke-linecap="butt" stroke-linejoin="round" stroke-opacity="1.0" stroke-width="3.0" />
            <path d=" M 383.454, 736.829 384.278, 746.795 385.102, 756.761 385.209, 758.056 386.225, 768.004 387.240, 777.953 387.292, 778.465 388.510, 788.391 389.686, 797.967 391.122, 807.864 392.374, 816.482 394.047, 826.341 395.336, 833.937 397.267, 843.749 398.552, 850.276 400.767, 860.028 401.999, 865.449 404.533, 875.122 405.657, 879.413 408.550, 888.985 409.503, 892.139 412.804, 901.578 413.513, 903.608 417.284, 912.870 417.666, 913.809 421.940, 922.736 426.312, 930.397 430.762, 936.803 435.270, 941.971 439.817, 945.924 444.384, 948.693 448.955, 950.312 453.513, 950.812 458.045, 950.235 462.535, 948.623 466.972, 946.019 471.344, 942.464 475.640, 938.004 " fill="none" stroke="rgb(0, 0, 0)" stroke-linecap="butt" stroke-linejoin="round" stroke-opacity="1.0" stroke-width="3.0" />
            <path d=" M 475.640, 938.004 482.462, 930.693 483.697, 929.370 " fill="none" stroke="rgb(0, 0, 0)" stroke-linecap="butt" stroke-linejoin="round" stroke-opacity="1.0" stroke-width="3.0" />
            <path d=" M 539.198, 482.524 539.747, 492.509 540.295, 502.494 540.526, 506.706 540.809, 516.702 540.913, 520.395 541.044, 530.394 541.056, 531.309 535.042, 532.289 531.896, 532.802 531.617, 532.848 531.336, 532.894 531.056, 532.940 530.776, 532.986 526.735, 532.908 523.986, 532.855 518.589, 532.751 518.338, 532.705 " fill="none" stroke="rgb(0, 0, 0)" stroke-linecap="butt" stroke-linejoin="round" stroke-opacity="1.0" stroke-width="3.0" />
            <path d=" M 518.932, 505.915 519.174, 505.235 520.535, 501.407 523.885, 491.984 527.234, 482.562 527.684, 481.297 537.628, 482.357 539.198, 482.524 535.961, 491.986 532.723, 501.447 530.984, 506.529 530.856, 506.900 530.602, 507.641 530.349, 508.383 530.095, 509.126 529.842, 509.869 529.552, 510.855 529.306, 511.936 529.285, 512.028 529.050, 513.365 528.850, 514.840 528.690, 516.427 528.622, 517.394 528.573, 518.093 528.500, 519.806 528.474, 521.534 528.495, 523.243 528.510, 523.614 528.562, 524.899 528.675, 526.470 528.830, 527.927 529.025, 529.241 529.256, 530.388 529.519, 531.345 529.809, 532.095 530.120, 532.624 530.445, 532.923 530.776, 532.986 " fill="none" stroke="rgb(0, 0, 0)" stroke-linecap="butt" stroke-linejoin="round" stroke-opacity="1.0" stroke-width="3.0" />
            <path d=" M 530.860, 523.657 530.735, 523.572 530.619, 523.354 530.516, 523.012 530.432, 522.563 530.369, 522.026 530.331, 521.423 530.319, 520.782 530.334, 520.130 530.375, 519.497 530.440, 518.910 530.527, 518.394 530.631, 517.973 530.748, 517.665 530.872, 517.484 530.999, 517.436 " fill="none" stroke="rgb(0, 0, 0)" stroke-linecap="butt" stroke-linejoin="round" stroke-opacity="1.0" stroke-width="3.0" />
            <path d=" M 530.999, 517.436 531.123, 517.523 531.239, 517.743 531.341, 518.084 531.425, 518.533 531.488, 519.070 531.525, 519.670 531.537, 520.309 531.522, 520.958 531.482, 521.589 531.417, 522.175 531.331, 522.690 531.227, 523.111 531.111, 523.421 530.987, 523.606 530.860, 523.657 " fill="none" stroke="rgb(0, 0, 0)" stroke-linecap="butt" stroke-linejoin="round" stroke-opacity="1.0" stroke-width="3.0" />
            <path d=" M 550.175, 700.272 550.436, 697.683 551.352, 687.725 551.654, 684.446 552.484, 674.481 552.764, 671.124 553.511, 661.152 553.767, 657.730 554.431, 647.752 554.663, 644.275 555.246, 634.292 555.451, 630.771 555.953, 620.784 556.132, 617.230 556.554, 607.239 556.705, 603.664 557.047, 593.669 557.170, 590.082 557.434, 580.086 557.528, 576.498 557.712, 566.500 557.778, 562.921 557.882, 552.922 557.919, 549.364 557.932, 543.956 557.952, 535.836 557.896, 525.836 557.889, 524.614 " fill="none" stroke="rgb(0, 0, 0)" stroke-linecap="butt" stroke-linejoin="round" stroke-opacity="1.0" stroke-width="3.0" />
            <path d=" M 455.514, 971.021 457.944, 971.207 462.066, 970.969 466.155, 969.910 470.203, 968.059 474.202, 965.447 478.146, 962.105 482.027, 958.064 485.841, 953.357 489.581, 948.012 493.243, 942.062 496.822, 935.537 500.316, 928.466 503.720, 920.877 507.031, 912.800 510.248, 904.262 513.367, 895.288 516.387, 885.905 519.251, 876.324 519.307, 876.138 521.986, 866.504 522.124, 866.010 524.633, 856.330 524.837, 855.544 527.189, 845.825 527.446, 844.763 529.651, 835.009 529.950, 833.687 530.814, 829.599 532.348, 822.337 534.285, 812.527 534.639, 810.733 536.454, 800.899 536.795, 799.049 " fill="none" stroke="rgb(0, 0, 0)" stroke-linecap="butt" stroke-linejoin="round" stroke-opacity="1.0" stroke-width="3.0" />
            <path d=" M 525.409, 255.335 524.992, 254.006 522.171, 245.827 519.234, 238.116 516.185, 230.899 513.023, 224.205 509.751, 218.060 506.372, 212.495 502.889, 207.536 499.304, 203.216 495.622, 199.563 491.846, 196.607 487.981, 194.379 484.034, 192.909 480.010, 192.226 477.713, 192.302 475.916, 192.360 471.759, 193.339 467.547, 195.189 463.291, 197.936 458.998, 201.605 454.680, 206.216 450.348, 211.788 446.014, 218.339 441.690, 225.881 437.391, 234.423 433.316, 243.555 433.130, 243.971 430.484, 250.607 428.922, 254.526 425.550, 263.940 424.782, 266.083 421.707, 275.598 420.726, 278.633 417.920, 288.231 416.770, 292.162 414.927, 299.116 412.931, 306.650 410.594, 316.373 409.224, 322.069 407.095, 331.840 405.667, 338.389 403.731, 348.199 402.276, 355.569 400.520, 365.414 399.067, 373.565 397.482, 383.439 396.055, 392.327 394.632, 402.225 393.255, 411.797 391.987, 421.716 390.718, 431.635 390.683, 431.912 389.563, 441.849 388.443, 451.786 388.350, 452.604 387.374, 462.556 386.397, 472.508 386.270, 473.801 385.433, 483.765 384.596, 493.730 384.454, 495.423 383.753, 505.399 383.052, 515.374 382.910, 517.391 382.343, 527.375 381.776, 537.359 381.648, 539.619 381.213, 549.610 380.778, 559.600 380.673, 562.020 380.370, 572.016 380.066, 582.011 379.991, 584.506 379.819, 594.504 379.647, 604.503 379.604, 606.986 379.565, 616.986 379.525, 626.986 379.515, 629.371 379.609, 639.371 379.702, 649.370 379.723, 651.572 379.952, 661.569 380.181, 671.567 380.225, 673.502 380.593, 683.495 380.960, 693.488 381.019, 695.075 381.528, 705.062 382.038, 715.049 382.097, 716.210 382.754, 726.188 383.411, 736.167 383.454, 736.829 384.264, 746.796 385.081, 756.857 386.050, 766.810 386.967, 776.228 388.105, 786.163 389.102, 794.876 390.417, 804.789 391.473, 812.746 392.978, 822.632 394.068, 829.784 395.777, 839.637 396.871, 845.947 398.800, 855.759 399.869, 861.195 402.038, 870.957 403.047, 875.496 405.479, 885.195 406.388, 888.822 409.111, 898.444 409.879, 901.155 412.926, 910.679 413.502, 912.479 416.913, 921.879 417.242, 922.785 421.085, 932.070 425.015, 940.335 429.017, 947.585 433.077, 953.832 437.182, 959.088 441.319, 963.371 445.475, 966.701 449.638, 969.100 453.798, 970.593 456.365, 970.973 457.944, 971.207 " fill="none" stroke="rgb(0, 0, 0)" stroke-linecap="butt" stroke-linejoin="round" stroke-opacity="1.0" stroke-width="3.0" />
            <path d=" M 477.616, 192.285 473.496, 192.420 469.312, 193.399 465.074, 195.249 460.790, 197.996 456.471, 201.664 452.126, 206.274 447.767, 211.845 443.406, 218.395 439.056, 225.935 434.731, 234.474 430.634, 243.597 430.444, 244.020 427.661, 250.956 426.211, 254.571 422.820, 263.978 422.046, 266.124 418.954, 275.634 417.967, 278.670 415.144, 288.264 413.987, 292.195 411.411, 301.857 410.126, 306.677 407.775, 316.397 407.075, 319.291 406.398, 322.092 404.256, 331.859 402.821, 338.405 400.873, 348.213 399.410, 355.579 397.645, 365.422 396.183, 373.569 394.589, 383.441 393.155, 392.323 391.724, 402.220 390.341, 411.786 389.065, 421.704 387.790, 431.622 387.755, 431.893 386.629, 441.829 385.503, 451.766 385.411, 452.577 384.429, 462.529 383.447, 472.481 383.320, 473.765 382.479, 483.730 381.637, 493.694 381.495, 495.380 380.791, 505.355 380.087, 515.330 379.945, 517.339 379.375, 527.322 378.806, 537.306 378.677, 539.558 378.241, 549.548 377.805, 559.539 377.700, 561.950 377.396, 571.946 377.092, 581.941 377.016, 584.427 376.845, 594.426 376.673, 604.424 376.630, 606.898 376.592, 616.898 376.553, 626.898 376.544, 629.275 376.639, 639.275 376.735, 649.274 376.756, 651.467 376.988, 661.465 377.220, 671.462 377.264, 673.389 377.636, 683.382 378.007, 693.375 378.065, 694.954 378.580, 704.941 379.094, 714.928 379.154, 716.081 379.816, 726.059 380.478, 736.037 380.522, 736.693 381.338, 746.659 382.161, 756.714 383.138, 766.667 384.062, 776.078 385.208, 786.012 386.213, 794.720 387.538, 804.632 388.601, 812.584 390.118, 822.468 391.214, 829.618 392.936, 839.468 394.038, 845.775 395.980, 855.585 397.056, 861.019 399.240, 870.778 400.256, 875.316 402.704, 885.012 403.620, 888.639 406.361, 898.256 407.134, 900.969 410.201, 910.487 410.782, 912.291 414.214, 921.683 414.548, 922.595 418.416, 931.879 422.371, 940.143 426.400, 947.393 430.487, 953.639 434.619, 958.896 438.782, 963.180 442.965, 966.510 447.156, 968.911 451.342, 970.405 455.514, 971.021 " fill="none" stroke="rgb(0, 0, 0)" stroke-linecap="butt" stroke-linejoin="round" stroke-opacity="1.0" stroke-width="3.0" />
            <path d=" M 480.010, 192.226 477.616, 192.285 " fill="none" stroke="rgb(0, 0, 0)" stroke-linecap="butt" stroke-linejoin="round" stroke-opacity="1.0" stroke-width="3.0" />
            <path d=" M 555.842, 711.978 555.898, 711.459 556.882, 701.507 557.276, 697.516 558.175, 687.556 558.543, 683.476 559.358, 673.509 559.698, 669.350 560.432, 659.377 560.742, 655.152 561.395, 645.174 561.675, 640.893 562.248, 630.910 562.496, 626.585 562.991, 616.597 563.207, 612.238 563.623, 602.247 563.806, 597.864 564.145, 587.870 564.294, 583.474 564.556, 573.477 564.671, 569.078 564.855, 559.080 564.936, 554.688 565.043, 544.689 565.090, 540.314 565.119, 530.314 565.131, 525.966 565.125, 524.745 " fill="none" stroke="rgb(0, 0, 0)" stroke-linecap="butt" stroke-linejoin="round" stroke-opacity="1.0" stroke-width="3.0" />
            <path d=" M 457.158, 993.172 459.557, 993.362 463.992, 992.833 468.384, 991.420 472.724, 989.160 477.005, 986.088 481.218, 982.240 485.358, 977.651 489.418, 972.358 493.394, 966.395 497.281, 959.797 501.075, 952.598 504.772, 944.830 508.369, 936.525 511.864, 927.715 515.254, 918.428 516.061, 916.035 518.537, 908.694 521.522, 899.150 521.712, 898.540 524.503, 888.938 524.778, 887.994 527.391, 878.341 527.732, 877.079 530.181, 867.384 530.576, 865.822 532.872, 856.089 533.307, 854.244 535.460, 844.479 535.926, 842.369 537.945, 832.575 538.431, 830.217 540.325, 820.398 540.824, 817.809 542.500, 808.509 " fill="none" stroke="rgb(0, 0, 0)" stroke-linecap="butt" stroke-linejoin="round" stroke-opacity="1.0" stroke-width="3.0" />
            <path d=" M 540.404, 258.613 539.106, 252.947 536.685, 243.244 536.526, 242.609 533.900, 232.960 533.821, 232.668 530.990, 223.150 528.033, 214.081 524.951, 205.489 521.746, 197.403 518.418, 189.854 514.969, 182.873 511.401, 176.491 507.716, 170.741 503.918, 165.656 500.009, 161.272 495.995, 157.622 491.879, 154.742 487.667, 152.665 483.364, 151.429 478.979, 151.066 477.670, 151.226 474.518, 151.611 469.990, 153.096 465.405, 155.554 460.772, 159.014 456.102, 163.504 451.408, 169.050 446.703, 175.672 442.001, 183.391 437.316, 192.221 433.080, 201.279 432.664, 202.171 428.826, 211.406 428.061, 213.248 424.577, 222.622 423.525, 225.451 420.355, 234.936 419.073, 238.775 418.119, 241.938 415.233, 251.513 414.723, 253.205 412.135, 262.704 411.258, 265.926 410.495, 268.725 408.101, 278.434 406.407, 285.307 404.229, 295.067 402.478, 302.917 400.500, 312.720 398.726, 321.516 396.937, 331.355 395.172, 341.055 393.558, 350.924 391.944, 360.793 391.832, 361.478 390.385, 371.372 388.938, 381.267 388.725, 382.721 387.437, 392.638 387.295, 393.733 386.006, 403.649 385.868, 404.715 384.731, 414.650 383.595, 424.586 383.275, 427.383 382.285, 437.334 381.295, 447.285 380.961, 450.641 380.114, 460.605 379.266, 470.569 378.940, 474.402 378.231, 484.377 377.523, 494.352 377.223, 498.571 376.650, 508.555 376.078, 518.538 375.819, 523.051 375.381, 533.042 374.942, 543.032 374.736, 547.742 374.431, 557.737 374.127, 567.733 373.980, 572.540 373.809, 582.539 373.637, 592.537 373.555, 597.343 373.517, 607.342 373.480, 617.342 373.462, 622.044 373.559, 632.044 373.657, 642.043 373.701, 646.543 373.936, 656.540 374.170, 666.537 374.269, 670.736 374.644, 680.729 375.019, 690.722 375.162, 694.526 375.681, 704.513 376.200, 714.500 376.372, 717.819 377.040, 727.797 377.708, 737.775 377.892, 740.525 378.715, 750.491 379.538, 760.457 379.711, 762.559 380.696, 772.510 381.681, 782.461 381.818, 783.842 382.973, 793.775 384.129, 803.708 384.198, 804.304 385.535, 814.215 386.839, 823.880 388.368, 833.762 389.723, 842.512 391.460, 852.360 392.835, 860.150 394.797, 869.956 396.157, 876.753 398.365, 886.506 399.673, 892.285 402.150, 901.973 403.364, 906.719 406.140, 916.326 407.212, 920.035 410.166, 929.061 410.587, 930.348 411.200, 932.220 414.687, 941.592 415.309, 943.266 418.098, 949.824 419.523, 953.174 421.888, 957.997 423.824, 961.948 428.197, 969.597 432.624, 976.138 437.092, 981.587 441.585, 985.969 446.090, 989.308 450.595, 991.632 455.088, 992.973 457.250, 993.161 459.557, 993.362 " fill="none" stroke="rgb(0, 0, 0)" stroke-linecap="butt" stroke-linejoin="round" stroke-opacity="1.0" stroke-width="3.0" />
            <path d=" M 361.521, 621.199 361.519, 621.669 361.625, 631.669 361.730, 641.668 361.777, 646.130 362.023, 656.127 362.270, 666.124 362.372, 670.287 362.762, 680.279 363.152, 690.271 363.299, 694.041 363.368, 695.311 " fill="none" stroke="rgb(0, 0, 0)" stroke-linecap="butt" stroke-linejoin="round" stroke-opacity="1.0" stroke-width="3.0" />
            <path d=" M 476.590, 151.137 472.101, 151.683 467.544, 153.169 462.930, 155.627 458.268, 159.087 453.569, 163.576 448.847, 169.121 444.113, 175.742 439.382, 183.459 434.668, 192.286 430.411, 201.335 429.988, 202.234 426.130, 211.460 425.358, 213.308 421.854, 222.674 420.795, 225.507 417.608, 234.986 416.317, 238.826 413.415, 248.396 411.942, 253.252 409.298, 262.896 408.175, 266.992 407.689, 268.766 407.486, 269.587 405.078, 279.292 403.578, 285.342 401.388, 295.100 399.626, 302.947 398.489, 308.554 396.500, 318.354 395.854, 321.539 394.054, 331.376 392.280, 341.071 390.657, 350.938 389.034, 360.805 388.923, 361.485 387.467, 371.379 386.012, 381.273 385.799, 382.721 384.504, 392.636 383.208, 402.552 382.926, 404.706 381.784, 414.641 380.641, 424.575 380.321, 427.365 379.326, 437.316 378.820, 442.367 377.996, 450.615 377.144, 460.578 376.292, 470.542 375.965, 474.366 375.253, 484.341 374.541, 494.315 374.240, 498.526 373.665, 508.509 373.090, 518.492 372.831, 522.996 372.391, 532.987 371.952, 542.977 371.745, 547.677 371.439, 557.673 371.134, 567.668 370.987, 572.466 370.816, 582.464 370.645, 592.463 370.563, 597.258 370.526, 607.258 370.490, 617.258 370.473, 621.950 370.572, 631.950 370.672, 641.949 370.716, 646.439 370.954, 656.436 371.192, 666.434 371.291, 670.624 371.670, 680.616 372.049, 690.609 372.193, 694.405 372.716, 704.391 373.240, 714.378 373.414, 717.689 374.087, 727.667 374.761, 737.644 374.946, 740.387 375.776, 750.352 376.605, 760.318 376.780, 762.413 377.772, 772.363 378.765, 782.314 378.902, 783.689 380.066, 793.621 381.231, 803.553 381.300, 804.144 382.647, 814.053 383.959, 823.714 385.500, 833.594 386.864, 842.340 388.614, 852.186 389.998, 859.973 391.974, 869.776 393.343, 876.571 395.566, 886.321 396.883, 892.099 399.377, 901.783 400.599, 906.530 403.393, 916.131 403.844, 917.682 404.473, 919.843 405.951, 924.329 408.487, 932.025 409.393, 934.444 412.624, 943.070 415.312, 949.348 416.866, 952.977 421.195, 961.749 425.596, 969.399 430.052, 975.939 434.549, 981.389 439.071, 985.771 443.605, 989.112 448.139, 991.438 452.660, 992.780 457.158, 993.172 " fill="none" stroke="rgb(0, 0, 0)" stroke-linecap="butt" stroke-linejoin="round" stroke-opacity="1.0" stroke-width="3.0" />
            <path d=" M 478.979, 151.066 476.590, 151.137 " fill="none" stroke="rgb(0, 0, 0)" stroke-linecap="butt" stroke-linejoin="round" stroke-opacity="1.0" stroke-width="3.0" />
            <path d=" M 545.547, 259.154 543.580, 249.638 541.387, 239.881 541.060, 238.424 538.684, 228.710 538.409, 227.581 535.834, 217.918 535.626, 217.136 532.834, 207.534 532.712, 207.115 529.667, 197.546 526.491, 188.458 523.184, 179.881 519.748, 171.848 516.184, 164.391 512.493, 157.543 508.679, 151.339 504.743, 145.815 500.690, 141.008 496.522, 136.955 492.245, 133.693 487.863, 131.260 483.384, 129.695 478.813, 129.035 474.061, 129.190 469.348, 129.474 464.559, 130.737 459.704, 133.013 454.794, 136.335 449.840, 140.736 444.856, 146.245 439.855, 152.886 434.852, 160.683 429.990, 169.422 429.862, 169.653 425.474, 178.639 424.902, 179.810 420.932, 188.988 419.991, 191.162 416.390, 200.491 415.146, 203.712 411.874, 213.161 410.387, 217.454 407.411, 227.001 405.734, 232.379 403.026, 242.005 401.207, 248.468 398.743, 258.160 396.827, 265.696 394.587, 275.442 392.614, 284.029 390.582, 293.820 388.590, 303.424 386.752, 313.254 384.914, 323.083 384.774, 323.832 383.119, 333.694 381.951, 340.647 381.188, 345.194 379.705, 355.084 378.221, 364.973 377.851, 367.444 376.531, 377.356 375.211, 387.269 374.780, 390.507 373.617, 400.439 372.454, 410.371 371.994, 414.300 370.983, 424.249 369.971, 434.198 369.509, 438.737 368.644, 448.699 367.778, 458.661 367.339, 463.719 366.616, 473.693 365.894, 483.667 365.497, 489.149 364.914, 499.132 364.331, 509.115 363.993, 514.919 363.600, 523.754 363.155, 533.744 362.836, 540.922 362.528, 550.918 362.221, 560.913 362.032, 567.047 361.862, 577.045 361.691, 587.044 361.586, 593.180 361.553, 603.180 361.520, 613.180 361.500, 619.209 361.521, 621.199 361.626, 631.199 361.732, 641.198 361.772, 645.022 362.018, 655.019 362.264, 665.016 362.400, 670.510 362.790, 680.502 363.180, 690.494 363.368, 695.311 363.378, 695.566 363.916, 705.551 364.454, 715.537 364.681, 719.765 364.699, 720.088 365.389, 730.065 365.797, 735.950 365.810, 736.143 366.353, 743.980 367.203, 753.944 368.053, 763.908 368.329, 767.151 369.345, 777.099 370.362, 787.048 370.614, 789.517 371.805, 799.445 372.997, 809.374 373.192, 811.000 374.570, 820.905 375.947, 830.810 376.048, 831.534 377.624, 841.409 379.164, 851.055 380.954, 860.894 382.523, 869.514 383.989, 876.618 386.010, 886.411 386.104, 886.864 388.378, 896.602 389.889, 903.072 392.441, 912.741 393.858, 918.109 396.719, 927.691 397.992, 931.955 401.198, 941.427 402.271, 944.598 405.865, 953.930 406.675, 956.033 410.710, 965.183 411.185, 966.261 415.724, 975.172 415.784, 975.289 420.453, 983.131 425.176, 989.803 429.935, 995.328 434.717, 999.732 439.506, 1003.043 444.289, 1005.293 449.054, 1006.516 453.885, 1006.907 458.560, 1007.134 463.195, 1006.406 467.780, 1004.762 472.306, 1002.239 476.765, 998.877 481.150, 994.714 485.454, 989.789 489.672, 984.140 493.799, 977.804 497.829, 970.818 501.759, 963.218 505.586, 955.039 509.307, 946.313 512.918, 937.074 516.306, 927.665 516.419, 927.352 519.579, 917.864 519.807, 917.178 522.759, 907.623 523.082, 906.580 525.843, 896.969 526.241, 895.585 528.827, 885.926 529.284, 884.221 531.709, 874.519 532.210, 872.511 534.485, 862.773 535.020, 860.481 537.153, 850.711 537.712, 848.152 539.714, 838.355 540.287, 835.547 542.164, 825.725 542.745, 822.686 544.503, 812.842 544.687, 811.817 " fill="none" stroke="rgb(0, 0, 0)" stroke-linecap="butt" stroke-linejoin="round" stroke-opacity="1.0" stroke-width="3.0" />
            <path d=" M 557.890, 715.682 558.204, 712.745 559.181, 702.793 559.616, 698.358 560.509, 688.398 560.914, 683.875 561.723, 673.908 562.097, 669.307 562.826, 659.334 563.167, 654.667 563.815, 644.688 564.122, 639.966 564.692, 629.982 564.964, 625.216 565.456, 615.228 565.692, 610.427 566.107, 600.436 566.307, 595.611 566.645, 585.617 566.808, 580.778 567.069, 570.781 567.196, 565.939 567.380, 555.940 567.469, 551.104 567.577, 541.104 567.629, 536.283 567.660, 526.283 567.674, 521.488 567.669, 520.308 " fill="none" stroke="rgb(0, 0, 0)" stroke-linecap="butt" stroke-linejoin="round" stroke-opacity="1.0" stroke-width="3.0" />
            <path d=" M 478.813, 129.035 474.158, 129.317 469.428, 130.578 464.634, 132.853 459.784, 136.176 454.891, 140.578 449.967, 146.088 445.026, 152.732 440.082, 160.532 435.267, 169.297 435.152, 169.507 430.808, 178.514 430.251, 179.669 426.321, 188.865 425.397, 191.028 421.834, 200.371 420.609, 203.585 417.372, 213.046 416.882, 214.478 415.904, 217.336 412.961, 226.893 411.304, 232.270 408.626, 241.905 406.829, 248.370 404.392, 258.069 402.497, 265.610 400.283, 275.362 398.706, 282.306 398.331, 283.955 396.698, 291.918 394.689, 301.714 394.351, 303.365 392.534, 313.198 390.717, 323.032 390.577, 323.788 388.940, 333.653 387.302, 343.518 387.029, 345.166 386.434, 349.179 384.966, 359.071 383.726, 367.432 382.421, 377.347 381.115, 387.261 380.687, 390.513 379.536, 400.447 378.386, 410.380 377.929, 414.325 376.927, 424.275 376.506, 428.461 375.505, 438.410 375.468, 438.780 374.611, 448.744 373.754, 458.707 373.317, 463.783 372.601, 473.758 371.885, 483.732 371.490, 489.233 370.913, 499.216 370.335, 509.199 369.998, 515.024 369.557, 525.014 369.512, 526.036 369.070, 536.026 368.848, 541.048 368.542, 551.043 368.236, 561.038 368.048, 567.193 367.877, 577.191 367.706, 587.190 367.601, 593.346 367.565, 603.346 367.530, 613.346 367.508, 619.395 367.610, 629.395 367.711, 639.394 367.770, 645.229 368.011, 655.226 368.251, 665.223 368.384, 670.736 368.766, 680.729 369.149, 690.721 369.344, 695.811 369.872, 705.797 370.400, 715.783 370.642, 720.352 371.321, 730.329 372.001, 740.306 372.270, 744.261 373.106, 754.226 373.943, 764.191 374.216, 767.448 375.217, 777.398 376.218, 787.348 376.467, 789.829 377.641, 799.760 378.815, 809.691 379.008, 811.327 380.366, 821.235 381.724, 831.142 381.824, 831.873 383.378, 841.752 384.897, 851.407 386.663, 861.250 388.210, 869.876 389.378, 875.617 391.372, 885.416 391.688, 886.969 391.743, 887.237 393.987, 896.982 395.477, 903.452 397.201, 910.072 398.248, 914.095 399.394, 918.496 402.219, 928.089 403.474, 932.348 404.462, 935.308 407.629, 944.794 407.696, 944.996 411.249, 954.344 412.043, 956.435 416.034, 965.604 416.338, 966.304 416.496, 966.665 420.987, 975.600 421.035, 975.695 425.645, 983.537 430.307, 990.209 435.007, 995.733 439.728, 1000.134 444.457, 1003.442 449.180, 1005.688 453.885, 1006.907 " fill="none" stroke="rgb(0, 0, 0)" stroke-linecap="butt" stroke-linejoin="round" stroke-opacity="1.0" stroke-width="3.0" />
            <path d=" M 482.032, 507.419 481.918, 507.466 481.556, 507.826 481.205, 508.386 480.869, 509.138 480.555, 510.069 480.268, 511.165 480.013, 512.407 479.795, 513.773 479.618, 515.241 479.483, 516.786 479.395, 518.380 479.354, 519.996 479.361, 521.607 479.416, 523.185 481.295, 523.219 " fill="none" stroke="rgb(0, 0, 0)" stroke-linecap="butt" stroke-linejoin="round" stroke-opacity="1.0" stroke-width="3.0" />
            <path d=" M 565.326, 524.749 565.292, 523.154 565.295, 521.525 565.325, 520.267 565.334, 519.891 565.410, 518.279 565.427, 518.033 565.520, 516.717 565.663, 515.232 565.836, 513.849 566.036, 512.593 566.261, 511.484 566.399, 510.947 566.505, 510.541 566.764, 509.779 567.035, 509.212 567.313, 508.847 567.592, 508.691 " fill="none" stroke="rgb(0, 0, 0)" stroke-linecap="butt" stroke-linejoin="round" stroke-opacity="1.0" stroke-width="3.0" />
            <path d=" M 567.986, 520.313 567.963, 519.833 567.926, 519.389 567.876, 518.993 567.815, 518.658 567.744, 518.392 567.665, 518.202 567.659, 518.194 567.580, 518.093 567.493, 518.069 " fill="none" stroke="rgb(0, 0, 0)" stroke-linecap="butt" stroke-linejoin="round" stroke-opacity="1.0" stroke-width="3.0" />
            <path d=" M 529.602, 468.767 529.823, 474.291 530.229, 474.296 535.414, 474.357 535.619, 474.083 535.259, 468.749 529.852, 468.443 529.826, 468.478 529.602, 468.767 " fill="none" stroke="rgb(0, 0, 0)" stroke-linecap="butt" stroke-linejoin="round" stroke-opacity="1.0" stroke-width="3.0" />
            <path d=" M 535.198, 468.829 529.602, 468.767 " fill="none" stroke="rgb(0, 0, 0)" stroke-linecap="butt" stroke-linejoin="round" stroke-opacity="1.0" stroke-width="3.0" />
            <path d=" M 535.414, 474.357 535.198, 468.829 535.259, 468.749 " fill="none" stroke="rgb(0, 0, 0)" stroke-linecap="butt" stroke-linejoin="round" stroke-opacity="1.0" stroke-width="3.0" />
            <path d=" M 531.473, 471.092 531.437, 471.184 531.381, 471.391 531.369, 471.605 531.402, 471.830 531.478, 472.037 531.498, 472.087 531.611, 472.267 531.757, 472.419 531.801, 472.454 531.966, 472.566 532.022, 472.591 532.189, 472.658 532.242, 472.672 532.306, 472.683 532.428, 472.697 532.466, 472.700 532.509, 472.702 532.551, 472.702 532.594, 472.699 532.634, 472.694 532.672, 472.688 532.786, 472.666 532.851, 472.651 532.905, 472.633 532.946, 472.612 533.122, 472.525 533.210, 472.454 533.275, 472.401 " fill="none" stroke="rgb(0, 0, 0)" stroke-linecap="butt" stroke-linejoin="round" stroke-opacity="1.0" stroke-width="3.0" />
            <path d=" M 533.210, 472.454 533.274, 472.406 533.382, 472.296 533.473, 472.171 533.544, 472.033 533.594, 471.886 533.622, 471.733 533.627, 471.575 533.609, 471.418 533.570, 471.263 533.508, 471.115 533.426, 470.976 533.325, 470.848 533.208, 470.736 533.076, 470.640 532.933, 470.562 532.782, 470.505 532.624, 470.470 532.465, 470.457 532.306, 470.467 532.151, 470.498 532.004, 470.552 531.867, 470.626 531.743, 470.719 531.634, 470.829 531.544, 470.954 531.473, 471.092 " fill="none" stroke="rgb(0, 0, 0)" stroke-linecap="butt" stroke-linejoin="round" stroke-opacity="1.0" stroke-width="3.0" />
            <path d=" M 629.047, 860.279 631.220, 860.747 639.123, 862.230 647.018, 862.974 654.887, 862.993 662.714, 862.309 670.485, 860.938 678.183, 858.902 685.797, 856.220 693.313, 852.915 700.720, 849.007 708.006, 844.519 715.161, 839.471 722.176, 833.887 729.042, 827.787 735.751, 821.194 742.296, 814.128 748.669, 806.612 754.864, 798.667 760.705, 790.550 760.876, 790.312 766.419, 781.989 766.699, 781.568 771.955, 773.060 772.329, 772.455 777.308, 763.783 777.761, 762.993 782.472, 754.172 782.991, 753.200 787.444, 744.246 788.016, 743.096 792.219, 734.022 792.832, 732.698 796.793, 723.516 797.436, 722.025 801.163, 712.745 801.826, 711.093 805.325, 701.725 805.999, 699.920 809.276, 690.472 809.952, 688.523 813.014, 679.003 813.685, 676.917 816.535, 667.332 817.194, 665.118 819.838, 655.474 820.478, 653.143 822.920, 643.446 823.535, 641.006 825.779, 631.261 826.364, 628.722 828.413, 618.934 828.964, 616.307 830.821, 606.480 831.332, 603.773 832.999, 593.913 833.469, 591.137 834.948, 581.247 835.372, 578.412 836.664, 568.496 837.040, 565.611 838.147, 555.673 838.473, 552.750 839.395, 542.792 839.669, 539.840 840.407, 529.868 840.627, 526.898 841.181, 516.913 841.346, 513.935 841.716, 503.942 841.826, 500.966 842.010, 490.968 842.065, 488.005 842.062, 478.005 842.062, 475.065 841.871, 465.066 841.816, 462.160 841.436, 452.167 841.327, 449.306 840.755, 439.322 840.594, 436.515 839.826, 426.544 839.615, 423.803 838.649, 413.849 838.391, 411.184 837.223, 401.252 836.919, 398.673 835.545, 388.768 835.201, 386.287 833.616, 376.413 833.235, 374.039 831.433, 364.203 831.020, 361.948 828.996, 352.155 828.557, 350.028 826.304, 340.285 825.845, 338.297 823.356, 328.612 822.884, 326.772 820.152, 317.153 819.674, 315.471 816.690, 305.927 816.216, 304.413 812.970, 294.954 812.511, 293.615 808.993, 284.254 808.558, 283.096 804.757, 273.846 804.359, 272.877 800.264, 263.754 799.916, 262.978 795.515, 253.999 795.230, 253.419 790.509, 244.604 790.304, 244.222 785.249, 235.594 785.140, 235.408 779.742, 226.998 774.112, 219.017 768.255, 211.485 762.176, 204.427 755.880, 197.866 749.374, 191.825 742.663, 186.328 735.757, 181.400 728.663, 177.064 721.390, 173.342 713.950, 170.260 706.352, 167.839 698.610, 166.102 690.737, 165.071 682.747, 164.765 674.655, 165.205 672.420, 165.419 " fill="none" stroke="rgb(0, 0, 0)" stroke-linecap="butt" stroke-linejoin="round" stroke-opacity="1.0" stroke-width="3.0" />
            <path d=" M 631.220, 860.747 630.596, 860.570 623.327, 858.508 615.462, 855.498 607.645, 851.705 599.897, 847.119 592.239, 841.731 584.693, 835.534 577.427, 828.663 577.281, 828.525 570.481, 821.193 570.028, 820.704 563.690, 812.969 562.956, 812.072 557.072, 803.986 556.089, 802.635 550.648, 794.245 549.452, 792.401 548.238, 790.305 546.149, 786.700 544.668, 784.143 543.069, 781.383 540.557, 776.533 539.074, 773.669 536.964, 769.596 535.327, 766.060 531.923, 758.707 531.161, 757.061 527.343, 747.818 525.683, 743.799 524.742, 741.238 521.293, 731.851 520.553, 729.840 517.459, 720.330 515.794, 715.213 515.145, 712.945 514.946, 712.250 512.194, 702.636 511.427, 699.955 509.005, 690.252 507.471, 684.104 505.369, 674.327 503.945, 667.702 502.154, 657.864 500.867, 650.797 499.378, 640.908 498.252, 633.436 497.057, 623.508 496.114, 615.674 495.207, 605.716 494.464, 597.566 493.839, 587.586 493.312, 579.169 492.965, 569.175 492.666, 560.544 492.593, 550.544 492.529, 541.752 492.728, 531.754 492.906, 522.857 493.090, 518.928 493.521, 509.749 493.583, 508.433 493.795, 503.923 494.533, 493.950 495.195, 485.013 496.202, 475.064 497.101, 466.193 498.378, 456.275 499.505, 447.526 501.055, 437.647 502.399, 429.076 504.223, 419.243 505.770, 410.903 507.872, 401.126 509.605, 393.067 511.989, 383.356 513.886, 375.626 516.558, 365.990 518.597, 358.635 519.709, 355.055 522.675, 345.505 523.719, 342.146 524.119, 340.986 527.386, 331.535 529.228, 326.207 532.804, 316.868 535.104, 310.864 536.612, 307.298 537.966, 304.094 541.322, 296.158 542.438, 293.763 543.236, 292.048 544.665, 288.982 545.682, 286.799 546.067, 285.971 547.858, 282.126 549.313, 279.288 551.710, 274.611 551.962, 274.119 551.998, 274.050 553.733, 270.663 554.228, 269.698 554.686, 268.804 559.597, 260.093 560.296, 258.855 560.349, 258.760 560.411, 258.650 561.781, 256.220 567.054, 247.724 567.286, 247.349 569.116, 244.401 574.762, 236.148 576.664, 233.368 582.695, 225.392 584.399, 223.139 590.826, 215.478 592.294, 213.728 599.126, 206.426 600.324, 205.145 607.567, 198.250 608.463, 197.397 616.119, 190.963 616.686, 190.486 624.750, 184.573 624.968, 184.413 633.286, 179.175 641.617, 174.765 649.940, 171.176 658.233, 168.395 666.478, 166.410 673.661, 165.352 674.655, 165.205 " fill="none" stroke="rgb(0, 0, 0)" stroke-linecap="butt" stroke-linejoin="round" stroke-opacity="1.0" stroke-width="3.0" />
            <path d=" M 672.420, 165.419 664.232, 166.624 655.977, 168.609 647.673, 171.389 639.340, 174.977 630.999, 179.384 622.671, 184.618 614.601, 190.524 614.380, 190.686 606.718, 197.113 606.148, 197.591 598.898, 204.479 598.000, 205.333 591.161, 212.629 589.962, 213.908 583.528, 221.563 582.059, 223.310 576.020, 231.281 574.316, 233.529 568.663, 241.778 566.761, 244.551 561.481, 253.044 559.420, 256.359 557.944, 258.973 553.025, 267.680 552.320, 268.929 551.702, 270.132 548.726, 275.928 545.486, 282.237 545.386, 282.452 544.011, 285.398 543.290, 286.942 543.121, 287.305 542.978, 287.612 542.121, 289.449 541.306, 291.195 538.945, 296.254 537.201, 300.371 535.850, 303.560 534.274, 307.281 533.806, 308.385 532.722, 310.944 529.141, 320.280 526.843, 326.270 523.571, 335.720 523.183, 336.838 521.330, 342.191 518.359, 351.740 516.206, 358.662 513.530, 368.297 511.493, 375.634 509.105, 385.345 507.209, 393.055 505.105, 402.831 503.374, 410.870 503.287, 411.336 501.461, 421.168 500.002, 429.022 498.451, 438.901 497.108, 447.451 495.830, 457.369 494.704, 466.097 493.696, 476.046 493.242, 480.527 492.800, 484.895 492.061, 494.868 491.719, 499.497 491.401, 503.783 491.229, 507.458 491.123, 509.710 490.794, 516.738 490.690, 518.951 490.535, 522.256 490.514, 522.696 490.316, 532.694 490.140, 541.570 490.215, 551.569 490.280, 560.340 490.629, 570.334 490.930, 578.944 491.558, 588.925 492.086, 597.321 492.997, 607.279 493.741, 615.409 494.940, 625.337 495.884, 633.152 497.378, 643.039 498.505, 650.493 500.301, 660.331 501.043, 664.392 501.588, 667.381 503.696, 677.156 505.120, 683.766 507.548, 693.466 509.083, 699.601 511.842, 709.213 512.714, 712.254 513.458, 714.844 514.291, 717.398 517.392, 726.904 518.224, 729.456 521.681, 738.840 523.362, 743.403 527.187, 752.642 528.848, 756.652 531.413, 762.180 534.660, 769.177 534.808, 769.463 538.586, 776.740 540.066, 779.590 540.773, 780.954 544.231, 786.908 545.715, 789.465 547.166, 791.963 547.822, 792.973 553.272, 801.358 553.812, 802.189 559.704, 810.270 560.688, 811.620 567.034, 819.349 567.770, 820.246 574.577, 827.572 575.034, 828.063 582.306, 834.927 582.455, 835.068 590.012, 841.262 597.680, 846.649 605.439, 851.234 613.267, 855.027 621.143, 858.038 629.047, 860.279 " fill="none" stroke="rgb(0, 0, 0)" stroke-linecap="butt" stroke-linejoin="round" stroke-opacity="1.0" stroke-width="3.0" />
            <path d=" M 785.888, 568.011 775.897, 567.595 775.102, 567.562 771.020, 563.979 763.503, 557.383 755.987, 550.788 753.026, 548.190 752.385, 547.626 751.742, 547.062 751.099, 546.496 750.456, 545.930 749.719, 545.137 749.050, 544.116 748.462, 542.886 747.968, 541.471 747.578, 539.899 747.312, 538.272 747.300, 538.198 747.137, 536.402 747.133, 536.220 747.104, 534.973 747.095, 534.544 747.173, 532.662 747.370, 530.792 747.683, 528.970 747.739, 528.740 747.911, 528.027 748.105, 527.230 748.628, 525.607 749.242, 524.133 749.934, 522.834 750.691, 521.735 751.499, 520.858 751.677, 520.723 751.806, 520.626 752.342, 520.219 753.203, 519.829 753.928, 519.608 754.654, 519.388 755.378, 519.167 756.101, 518.947 756.464, 518.837 766.033, 515.933 775.602, 513.029 780.968, 511.400 " fill="none" stroke="rgb(0, 0, 0)" stroke-linecap="butt" stroke-linejoin="round" stroke-opacity="1.0" stroke-width="3.0" />
            <path d=" M 678.589, 234.708 675.270, 235.020 670.185, 235.497 661.725, 237.106 655.484, 238.891 653.231, 239.536 644.734, 242.814 636.263, 246.964 627.851, 251.995 619.700, 257.788 619.530, 257.909 611.826, 264.285 611.329, 264.697 604.075, 271.580 603.277, 272.338 596.466, 279.660 595.400, 280.806 589.034, 288.517 587.733, 290.092 581.814, 298.152 580.315, 300.193 574.839, 308.560 573.184, 311.090 568.143, 319.726 566.374, 322.755 561.754, 331.623 559.916, 335.149 558.323, 338.576 557.919, 339.444 557.811, 339.677 555.054, 345.605 554.957, 345.814 554.350, 347.118 553.836, 348.225 553.571, 348.864 550.650, 355.904 549.198, 359.404 548.152, 361.926 547.674, 363.221 546.248, 367.089 542.888, 376.203 540.528, 383.472 539.108, 387.844 538.079, 391.015 535.360, 400.638 534.827, 402.524 533.757, 406.311 531.402, 416.029 529.948, 422.033 527.951, 431.831 527.122, 435.900 526.670, 438.116 525.023, 447.979 523.935, 454.491 522.628, 464.405 521.746, 471.087 520.770, 481.039 520.095, 487.920 519.431, 497.898 519.204, 501.318 518.970, 504.833 518.957, 505.220 518.932, 505.915 518.582, 515.909 518.526, 517.506 518.377, 521.755 518.372, 522.989 518.338, 532.705 518.317, 538.613 518.599, 548.609 518.789, 555.334 519.393, 565.315 519.788, 571.848 520.719, 581.804 521.307, 588.086 522.572, 598.005 523.335, 603.981 523.381, 604.267 524.990, 614.136 525.393, 616.608 525.859, 619.470 527.820, 629.276 528.864, 634.493 531.189, 644.219 532.155, 648.262 532.330, 648.993 535.033, 658.621 536.240, 662.917 539.335, 672.426 540.569, 676.218 541.056, 677.519 541.161, 677.801 541.906, 679.792 542.570, 681.568 544.474, 686.659 545.294, 688.851 548.651, 696.707 549.817, 699.436 550.175, 700.272 550.391, 700.778 551.309, 702.665 554.330, 708.873 554.882, 710.008 555.834, 711.964 555.842, 711.978 557.890, 715.682 561.594, 722.379 566.917, 730.845 567.644, 732.000 573.470, 740.128 573.956, 740.806 580.301, 748.535 580.502, 748.780 587.253, 755.914 594.181, 762.199 601.257, 767.632 608.456, 772.214 615.750, 775.951 621.184, 778.090 623.113, 778.849 630.520, 780.917 637.948, 782.170 645.373, 782.624 652.773, 782.295 660.128, 781.202 667.418, 779.368 674.625, 776.814 681.730, 773.562 688.717, 769.639 695.572, 765.069 702.280, 759.878 708.828, 754.090 715.203, 747.733 721.395, 740.834 727.392, 733.419 733.185, 725.513 738.766, 717.144 743.966, 708.602 744.126, 708.338 748.990, 699.601 749.258, 699.120 753.800, 690.211 754.155, 689.515 758.387, 680.455 758.810, 679.550 762.745, 670.357 763.219, 669.249 766.866, 659.938 767.376, 658.636 770.744, 649.220 771.276, 647.735 774.375, 638.228 774.915, 636.572 777.752, 626.983 778.289, 625.168 780.871, 615.507 781.395, 613.546 783.728, 603.822 784.229, 601.731 786.318, 591.952 786.790, 589.745 788.638, 579.917 789.072, 577.609 790.684, 567.739 791.075, 565.345 792.454, 555.441 792.796, 552.978 793.944, 543.044 794.235, 540.526 " fill="none" stroke="rgb(0, 0, 0)" stroke-linecap="butt" stroke-linejoin="round" stroke-opacity="1.0" stroke-width="3.0" />
            <path d=" M 780.968, 511.400 790.942, 512.130 791.692, 512.185 " fill="none" stroke="rgb(0, 0, 0)" stroke-linecap="butt" stroke-linejoin="round" stroke-opacity="1.0" stroke-width="3.0" />
            <path d=" M 825.251, 527.163 825.297, 526.439 825.628, 521.245 825.904, 516.899 825.990, 514.639 826.367, 504.646 826.383, 504.199 826.499, 494.199 826.530, 491.503 826.382, 481.504 826.342, 478.834 825.930, 468.842 825.822, 466.216 825.147, 456.239 824.973, 453.670 824.037, 443.714 823.802, 441.216 822.975, 434.386 822.307, 428.878 820.826, 418.988 820.481, 416.682 818.712, 406.840 818.320, 404.657 816.255, 394.873 815.824, 392.829 813.456, 383.113 812.995, 381.222 810.319, 371.587 809.839, 369.860 806.853, 360.316 806.365, 358.758 803.062, 349.320 802.579, 347.940 798.940, 338.625 798.476, 337.437 794.485, 328.268 794.057, 327.285 789.697, 318.285 789.324, 317.515 784.582, 308.711 784.283, 308.155 779.148, 299.574 778.942, 299.230 773.409, 290.900 773.313, 290.756 767.406, 282.752 761.226, 275.250 754.780, 268.294 748.076, 261.917 741.127, 256.152 733.945, 251.023 726.548, 246.547 720.977, 243.750 718.952, 242.733 711.173, 239.608 703.227, 237.212 695.133, 235.579 686.913, 234.739 680.402, 234.715 678.589, 234.708 " fill="none" stroke="rgb(0, 0, 0)" stroke-linecap="butt" stroke-linejoin="round" stroke-opacity="1.0" stroke-width="3.0" />
            <path d=" M 655.484, 238.891 660.248, 240.715 666.545, 243.902 672.670, 247.762 678.611, 252.268 684.355, 257.411 689.891, 263.170 695.207, 269.521 700.295, 276.434 705.151, 283.871 709.770, 291.792 714.149, 300.163 718.281, 308.966 722.158, 318.183 725.680, 327.542 725.774, 327.792 728.960, 337.271 729.125, 337.765 731.995, 347.344 732.212, 348.070 734.785, 357.733 735.036, 358.675 737.330, 368.408 737.599, 369.547 739.625, 379.340 739.899, 380.666 741.661, 390.509 741.930, 392.015 743.435, 401.901 743.689, 403.573 744.943, 413.494 745.173, 415.317 746.186, 425.265 746.385, 427.221 747.165, 437.190 747.327, 439.260 747.885, 449.244 748.006, 451.407 748.349, 461.401 748.426, 463.640 748.551, 473.639 748.580, 475.942 748.489, 485.941 748.468, 488.292 748.160, 498.287 748.087, 500.668 747.564, 510.654 747.439, 513.049 746.980, 519.286 746.744, 520.462 746.455, 521.594 746.116, 522.671 745.731, 523.681 745.303, 524.613 744.837, 525.459 744.338, 526.208 743.810, 526.852 743.722, 526.938 " fill="none" stroke="rgb(0, 0, 0)" stroke-linecap="butt" stroke-linejoin="round" stroke-opacity="1.0" stroke-width="3.0" />
            <path d=" M 719.086, 530.779 719.086, 530.789 719.049, 531.340 728.766, 533.703 738.482, 536.067 745.364, 537.741 747.312, 538.272 " fill="none" stroke="rgb(0, 0, 0)" stroke-linecap="butt" stroke-linejoin="round" stroke-opacity="1.0" stroke-width="3.0" />
            <path d=" M 803.201, 536.767 812.873, 539.307 813.067, 539.358 822.109, 541.733 823.969, 542.221 824.018, 542.233 829.960, 543.631 " fill="none" stroke="rgb(0, 0, 0)" stroke-linecap="butt" stroke-linejoin="round" stroke-opacity="1.0" stroke-width="3.0" />
            <path d=" M 799.525, 541.874 800.312, 541.919 810.296, 542.496 812.302, 542.612 814.232, 542.723 821.976, 543.170 823.921, 543.282 829.960, 543.631 830.850, 533.671 831.141, 530.407 831.775, 520.427 831.983, 517.140 832.361, 507.147 832.486, 503.852 832.607, 493.853 832.647, 490.568 832.509, 480.569 832.464, 477.310 832.067, 467.318 831.939, 464.102 831.279, 454.124 831.070, 450.967 830.142, 441.010 829.856, 437.929 828.657, 428.001 828.296, 425.012 826.822, 415.122 826.393, 412.241 824.638, 402.396 824.146, 399.639 822.102, 389.850 821.555, 387.233 819.215, 377.511 818.622, 375.048 815.978, 365.404 815.349, 363.109 813.453, 356.987 811.737, 351.444 808.455, 341.998 807.789, 340.079 806.025, 335.532 803.508, 329.042 799.545, 319.860 798.898, 318.359 794.576, 309.341 793.962, 308.061 789.267, 299.231 788.706, 298.175 783.626, 289.562 783.136, 288.731 777.657, 280.366 777.258, 279.757 777.151, 279.610 771.258, 271.530 771.080, 271.286 770.631, 270.736 764.609, 263.345 757.856, 255.965 750.831, 249.177 743.546, 243.012 736.014, 237.498 728.248, 232.664 720.266, 228.541 712.082, 225.157 703.718, 222.539 695.191, 220.711 686.524, 219.701 677.740, 219.531 667.743, 219.770 661.619, 219.917 " fill="none" stroke="rgb(0, 0, 0)" stroke-linecap="butt" stroke-linejoin="round" stroke-opacity="1.0" stroke-width="3.0" />
            <path d=" M 677.740, 219.531 669.697, 220.154 668.863, 220.219 659.948, 221.781 659.920, 221.785 650.938, 224.248 641.947, 227.617 632.975, 231.902 624.340, 236.945 624.056, 237.111 615.843, 242.816 615.222, 243.247 607.451, 249.540 606.506, 250.305 599.188, 257.120 597.944, 258.279 591.084, 265.555 589.570, 267.161 583.166, 274.841 581.420, 276.934 575.464, 284.966 573.530, 287.575 568.013, 295.916 565.934, 299.060 560.848, 307.670 558.670, 311.358 555.233, 317.870 553.557, 321.046 552.925, 322.243 552.182, 323.650 551.770, 324.431 550.706, 326.692 546.445, 335.739 545.268, 338.239 544.427, 340.246 543.003, 343.645 539.197, 352.733 535.721, 362.110 533.587, 367.864 530.930, 376.017 528.467, 383.574 525.737, 393.195 523.862, 399.803 521.495, 409.519 519.798, 416.486 517.788, 426.282 516.295, 433.556 514.637, 443.418 513.371, 450.941 512.061, 460.855 511.042, 468.568 " fill="none" stroke="rgb(0, 0, 0)" stroke-linecap="butt" stroke-linejoin="round" stroke-opacity="1.0" stroke-width="3.0" />
            <path d=" M 811.609, 530.187 811.688, 530.097 812.150, 529.462 812.590, 528.742 813.004, 527.943 813.391, 527.070 813.617, 526.473 813.746, 526.130 814.067, 525.131 814.351, 524.080 823.330, 526.620 825.244, 527.161 825.251, 527.163 825.242, 527.188 825.030, 527.771 824.646, 528.648 824.234, 529.452 823.798, 530.176 823.341, 530.814 822.992, 531.215 822.865, 531.361 822.376, 531.812 821.876, 532.163 821.370, 532.411 820.861, 532.551 820.355, 532.582 819.854, 532.502 815.220, 531.201 813.847, 530.815 813.321, 530.667 811.609, 530.187 807.579, 529.055 807.201, 527.604 806.727, 526.298 806.166, 525.159 805.527, 524.207 804.819, 523.457 804.055, 522.922 803.247, 522.613 802.410, 522.535 798.252, 522.292 798.016, 522.278 791.086, 521.872 790.536, 521.840 789.675, 521.993 788.848, 522.378 788.073, 522.989 787.326, 523.815 787.163, 524.054 786.622, 524.843 785.971, 526.054 785.386, 527.429 784.876, 528.944 784.450, 530.573 784.116, 532.289 783.879, 534.062 788.372, 535.229 788.380, 535.231 789.997, 535.335 791.391, 535.425 799.066, 535.918 799.687, 535.958 800.258, 535.994 800.337, 535.432 800.454, 534.896 800.606, 534.401 800.789, 533.959 800.997, 533.585 801.225, 533.286 801.467, 533.073 801.716, 532.949 801.966, 532.920 " fill="none" stroke="rgb(0, 0, 0)" stroke-linecap="butt" stroke-linejoin="round" stroke-opacity="1.0" stroke-width="3.0" />
            <path d=" M 771.020, 563.979 769.378, 573.843 769.005, 576.082 767.118, 585.902 766.697, 588.089 764.561, 597.858 764.105, 599.946 761.717, 609.657 761.231, 611.631 758.586, 621.275 758.080, 623.123 755.172, 632.690 754.653, 634.396 751.476, 643.878 750.956, 645.430 747.502, 654.815 746.992, 656.200 743.255, 665.475 742.768, 666.684 738.736, 675.835 738.286, 676.856 733.951, 685.868 733.553, 686.693 728.904, 695.547 728.576, 696.172 723.601, 704.846 723.361, 705.265 718.047, 713.737 717.914, 713.949 712.245, 722.197 706.361, 729.986 700.271, 737.288 693.987, 744.077 687.517, 750.329 680.875, 756.017 674.073, 761.115 667.125, 765.597 660.044, 769.440 652.847, 772.618 645.551, 775.107 638.173, 776.884 630.731, 777.930 623.247, 778.222 621.184, 778.090 " fill="none" stroke="rgb(0, 0, 0)" stroke-linecap="butt" stroke-linejoin="round" stroke-opacity="1.0" stroke-width="3.0" />
            <path d=" M 789.997, 535.335 789.545, 540.259 788.395, 550.192 788.107, 552.680 786.674, 562.577 785.888, 568.011 778.416, 561.365 776.285, 559.469 772.175, 555.812 764.703, 549.166 764.522, 549.004 763.886, 548.438 763.250, 547.872 762.613, 547.304 761.976, 546.736 761.247, 545.939 760.585, 544.914 760.003, 543.679 759.515, 542.258 759.130, 540.678 758.946, 539.533 758.856, 538.969 758.697, 537.164 758.693, 537.024 758.656, 535.298 758.736, 533.407 758.933, 531.527 759.154, 530.227 759.245, 529.695 759.665, 527.947 760.185, 526.316 760.795, 524.833 761.482, 523.528 762.234, 522.424 763.036, 521.542 763.872, 520.898 764.725, 520.506 765.444, 520.283 766.164, 520.061 766.882, 519.839 767.599, 519.618 767.959, 519.506 777.515, 516.559 780.709, 515.573 790.264, 512.625 791.692, 512.185 791.086, 521.872 " fill="none" stroke="rgb(0, 0, 0)" stroke-linecap="butt" stroke-linejoin="round" stroke-opacity="1.0" stroke-width="3.0" />
            <path d=" M 509.243, 450.302 510.223, 460.254 511.042, 468.568 510.063, 478.520 509.282, 486.460 508.619, 496.438 508.087, 504.440 508.086, 504.472 507.739, 514.466 507.463, 522.428 507.433, 532.428 507.410, 540.346 507.701, 550.341 507.928, 558.115 508.543, 568.096 509.010, 575.661 509.955, 585.616 510.648, 592.908 511.931, 602.825 512.831, 609.784 514.461, 619.650 515.546, 626.221 517.531, 636.022 518.773, 642.154 520.880, 650.861 522.493, 657.524 525.228, 667.143 526.686, 672.273 529.816, 681.770 531.326, 686.349 534.869, 695.701 536.387, 699.708 538.635, 704.900 541.842, 712.307 542.037, 712.703 546.107, 720.953 547.650, 724.082 547.664, 724.109 551.837, 731.548 553.359, 734.260 553.822, 735.085 555.447, 737.630 560.285, 745.208 566.173, 753.291 567.024, 754.459 573.436, 762.133 574.009, 762.819 580.952, 770.017 581.207, 770.281 588.589, 776.838 596.125, 782.486 603.785, 787.227 611.541, 791.070 619.365, 794.022 627.231, 796.094 635.113, 797.302 642.986, 797.666 650.827, 797.203 658.615, 795.935 666.328, 793.886 673.946, 791.082 681.453, 787.546 688.830, 783.305 696.061, 778.389 703.132, 772.825 710.029, 766.640 716.740, 759.862 723.253, 752.523 729.557, 744.647 735.432, 736.555 735.642, 736.265 741.158, 727.923 741.501, 727.404 746.670, 718.844 747.124, 718.093 751.961, 709.341 752.504, 708.358 757.022, 699.436 757.635, 698.226 761.846, 689.156 762.510, 687.724 766.425, 678.522 767.125, 676.878 770.754, 667.560 771.473, 665.714 774.826, 656.293 775.551, 654.256 778.636, 644.744 779.355, 642.530 782.180, 632.937 782.880, 630.559 785.451, 620.895 786.123, 618.367 788.447, 608.641 789.083, 605.978 791.163, 596.197 791.755, 593.416 793.597, 583.587 794.137, 580.702 795.744, 570.831 796.228, 567.858 797.602, 557.953 798.024, 554.908 799.168, 544.974 799.525, 541.874 794.235, 540.526 799.444, 540.823 809.428, 541.392 812.864, 541.588 812.405, 541.468 802.726, 538.956 799.925, 538.228 799.231, 538.048 791.353, 536.003 791.391, 535.435 791.391, 535.425 " fill="none" stroke="rgb(0, 0, 0)" stroke-linecap="butt" stroke-linejoin="round" stroke-opacity="1.0" stroke-width="3.0" />
            <path d=" M 764.727, 537.422 764.411, 537.344 764.116, 537.119 763.857, 536.759 763.643, 536.277 763.486, 535.696 763.392, 535.041 763.364, 534.341 763.405, 533.627 763.512, 532.930 763.681, 532.281 763.905, 531.707 764.172, 531.234 764.472, 530.884 764.792, 530.670 765.117, 530.603 " fill="none" stroke="rgb(0, 0, 0)" stroke-linecap="butt" stroke-linejoin="round" stroke-opacity="1.0" stroke-width="3.0" />
            <path d=" M 765.117, 530.603 765.433, 530.686 765.726, 530.913 765.985, 531.275 766.197, 531.757 766.353, 532.336 766.447, 532.988 766.474, 533.685 766.434, 534.397 766.327, 535.091 766.159, 535.739 765.937, 536.312 765.670, 536.785 765.371, 537.137 765.052, 537.352 764.727, 537.422 " fill="none" stroke="rgb(0, 0, 0)" stroke-linecap="butt" stroke-linejoin="round" stroke-opacity="1.0" stroke-width="3.0" />
            <path d=" M 501.874, 486.133 501.211, 496.111 500.640, 504.695 500.491, 508.977 500.145, 518.971 499.997, 523.264 499.970, 533.264 499.947, 541.758 500.242, 551.753 500.489, 560.095 501.110, 570.076 501.616, 578.196 502.570, 588.150 503.320, 595.983 504.614, 605.899 505.589, 613.379 507.231, 623.243 508.408, 630.315 510.408, 640.113 511.758, 646.722 514.128, 656.437 515.617, 662.538 518.373, 672.151 518.995, 674.323 519.964, 677.704 523.119, 687.193 524.773, 692.167 528.343, 701.508 530.015, 705.881 534.020, 715.044 535.662, 718.801 536.862, 721.208 540.340, 728.191 541.686, 730.892 544.372, 735.629 545.928, 738.375 548.054, 742.123 550.151, 745.372 551.697, 747.766 553.800, 751.024 554.734, 752.469 560.669, 760.518 561.695, 761.909 568.156, 769.542 568.905, 770.428 575.900, 777.575 576.332, 778.017 583.861, 784.598 583.944, 784.671 591.711, 790.387 599.602, 795.171 607.587, 799.029 615.638, 801.973 623.729, 804.015 631.832, 805.172 639.922, 805.465 647.977, 804.913 655.973, 803.539 663.890, 801.369 671.708, 798.429 679.409, 794.745 686.974, 790.344 694.389, 785.257 701.638, 779.511 708.708, 773.135 715.585, 766.158 722.260, 758.610 728.499, 750.796 728.719, 750.520 734.587, 742.422 734.955, 741.914 740.466, 733.570 740.958, 732.825 746.125, 724.263 746.720, 723.278 751.556, 714.526 752.233, 713.301 756.751, 704.380 757.490, 702.922 761.703, 693.853 762.486, 692.168 766.405, 682.967 767.215, 681.064 770.849, 671.747 771.672, 669.636 775.030, 660.217 775.852, 657.911 778.942, 648.401 779.751, 645.913 782.581, 636.322 783.365, 633.666 785.941, 624.003 786.690, 621.194 789.018, 611.469 789.723, 608.521 791.808, 598.741 792.463, 595.671 794.308, 585.843 794.904, 582.667 796.513, 572.797 797.046, 569.531 798.421, 559.626 798.885, 556.286 800.030, 546.351 800.421, 542.954 800.312, 541.919 " fill="none" stroke="rgb(0, 0, 0)" stroke-linecap="butt" stroke-linejoin="round" stroke-opacity="1.0" stroke-width="3.0" />
            <path d=" M 661.619, 219.917 656.278, 220.338 653.555, 220.553 645.415, 222.066 637.224, 224.474 629.008, 227.791 620.794, 232.025 612.613, 237.186 604.614, 243.187 604.494, 243.277 596.966, 249.860 596.468, 250.295 589.413, 257.383 588.566, 258.234 581.982, 265.761 580.823, 267.086 574.699, 274.991 573.271, 276.834 567.593, 285.065 565.944, 287.455 560.697, 295.968 558.874, 298.925 554.044, 307.682 553.871, 307.995 552.096, 311.214 551.118, 313.194 550.750, 313.938 550.455, 314.536 549.289, 316.897 545.642, 324.282 542.874, 330.547 541.451, 333.767 539.543, 338.088 535.876, 347.392 533.830, 352.585 530.527, 362.023 529.178, 365.878 528.534, 367.720 525.583, 377.275 523.680, 383.436 521.072, 393.090 519.294, 399.672 517.022, 409.410 515.400, 416.363 513.458, 426.172 512.018, 433.440 510.394, 443.307 509.243, 450.302 506.199, 459.827 503.695, 467.662 " fill="none" stroke="rgb(0, 0, 0)" stroke-linecap="butt" stroke-linejoin="round" stroke-opacity="1.0" stroke-width="3.0" />
            <path d=" M 503.695, 467.662 502.714, 477.614 501.874, 486.133 " fill="none" stroke="rgb(0, 0, 0)" stroke-linecap="butt" stroke-linejoin="round" stroke-opacity="1.0" stroke-width="3.0" />
            <path d=" M 813.453, 356.987 811.138, 347.259 810.979, 346.589 808.421, 336.922 808.124, 335.798 805.315, 326.201 805.031, 325.230 801.964, 315.712 801.703, 314.900 798.370, 305.472 798.141, 304.824 794.532, 295.498 794.346, 295.019 790.451, 285.809 790.322, 285.504 786.127, 276.426 786.068, 276.297 781.587, 267.420 776.881, 258.894 771.951, 250.742 766.802, 242.984 761.438, 235.638 755.866, 228.723 750.089, 222.258 744.114, 216.265 737.947, 210.765 731.594, 205.782 725.063, 201.341 718.362, 197.467 711.501, 194.177 704.491, 191.488 697.342, 189.418 690.066, 187.986 682.677, 187.209 675.187, 187.108 667.612, 187.700 667.421, 187.733 659.967, 189.007 652.270, 191.043 644.537, 193.816 636.787, 197.334 629.039, 201.603 621.312, 206.628 613.628, 212.412 606.007, 218.961 598.832, 225.926 598.474, 226.274 597.485, 227.350 591.051, 234.352 588.640, 237.275 583.764, 243.186 577.791, 251.207 576.633, 252.762 571.039, 261.051 569.681, 263.063 565.075, 270.576 562.932, 274.070 558.060, 282.803 556.409, 285.763 551.873, 294.698 550.136, 298.119 548.724, 301.177 547.716, 303.358 547.306, 304.247 547.009, 304.890 544.136, 311.111 540.849, 318.954 539.476, 322.229 538.435, 324.712 534.887, 334.061 533.055, 338.887 529.813, 348.346 528.014, 353.593 527.298, 355.917 524.352, 365.473 523.330, 368.790 520.675, 378.431 519.022, 384.433 516.653, 394.149 515.109, 400.479 513.021, 410.258 511.608, 416.877 509.796, 426.711 508.531, 433.576 506.990, 443.457 505.889, 450.522 504.619, 460.441 503.695, 467.662 502.693, 477.612 501.956, 484.939 501.874, 486.133 501.137, 496.106 500.679, 502.297 500.359, 509.155 499.893, 519.144 499.868, 519.678 499.670, 529.676 499.524, 537.026 499.596, 547.025 499.649, 554.282 499.994, 564.276 500.240, 571.393 500.860, 581.373 501.290, 588.302 502.190, 598.261 502.795, 604.956 503.979, 614.886 504.745, 621.304 506.223, 631.195 507.135, 637.294 508.914, 647.135 509.952, 652.878 512.039, 662.658 513.181, 668.013 515.583, 677.721 516.804, 682.659 517.850, 686.350 520.577, 695.971 520.805, 696.778 523.868, 706.297 525.166, 710.334 528.578, 719.734 529.870, 723.294 533.646, 732.553 534.899, 735.626 535.066, 735.992 538.475, 743.453 540.234, 747.303 542.317, 751.379 543.821, 754.322 545.855, 758.301 547.948, 761.966 549.452, 764.599 551.518, 768.217 551.739, 768.604 557.118, 777.034 557.861, 778.199 563.673, 786.337 564.200, 787.076 570.456, 794.877 570.734, 795.224 577.442, 802.638 584.304, 809.312 591.299, 815.241 598.408, 820.423 605.610, 824.864 612.885, 828.574 620.211, 831.564 627.572, 833.845 633.031, 835.016 634.950, 835.428 642.327, 836.327 649.689, 836.551 657.021, 836.114 664.308, 835.028 671.535, 833.314 678.690, 830.993 685.761, 828.087 692.735, 824.615 699.602, 820.596 706.353, 816.048 712.978, 810.988 719.467, 805.433 725.813, 799.401 732.008, 792.915 738.045, 785.997 743.919, 778.668 749.623, 770.948 755.153, 762.855 760.502, 754.405 765.568, 745.783 765.667, 745.616 770.457, 736.838 770.641, 736.502 775.166, 727.585 775.420, 727.083 779.690, 718.040 780.003, 717.377 784.027, 708.222 784.386, 707.403 788.172, 698.147 788.568, 697.179 792.121, 687.832 792.544, 686.721 795.872, 677.291 796.312, 676.043 799.420, 666.538 799.870, 665.161 802.761, 655.588 803.214, 654.089 805.893, 644.454 806.342, 642.841 808.816, 633.152 809.254, 631.435 811.526, 621.696 811.948, 619.885 814.022, 610.102 814.423, 608.206 816.300, 598.384 816.677, 596.412 818.359, 586.554 818.707, 584.516 820.198, 574.627 820.514, 572.532 821.815, 562.617 822.096, 560.475 823.207, 550.537 823.451, 548.357 823.921, 543.282 " fill="none" stroke="rgb(0, 0, 0)" stroke-linecap="butt" stroke-linejoin="round" stroke-opacity="1.0" stroke-width="3.0" />
            <path d=" M 665.364, 187.894 657.709, 189.201 650.002, 191.236 642.259, 194.008 634.500, 197.524 626.743, 201.790 619.007, 206.811 611.314, 212.591 603.685, 219.133 596.503, 226.092 596.143, 226.440 592.276, 230.641 588.713, 234.511 582.342, 242.219 582.064, 242.555 581.418, 243.336 575.438, 251.351 574.281, 252.903 573.291, 254.366 573.250, 254.426 567.649, 262.710 567.323, 263.193 562.088, 271.714 560.568, 274.189 555.689, 282.918 554.569, 284.921 554.039, 285.869 551.315, 291.225 548.120, 297.505 547.761, 298.212 546.693, 300.521 546.677, 300.554 545.948, 302.130 541.757, 311.190 540.128, 315.070 538.750, 318.350 536.052, 324.776 532.498, 334.123 530.668, 338.935 527.420, 348.393 526.384, 351.412 525.624, 353.625 522.674, 363.180 520.937, 368.805 518.278, 378.445 516.627, 384.431 514.255, 394.145 512.713, 400.458 510.622, 410.237 509.211, 416.837 507.396, 426.671 506.133, 433.517 504.591, 443.398 503.491, 450.444 502.220, 460.363 501.297, 467.564 500.295, 477.514 499.560, 484.822 498.826, 494.795 498.284, 502.159 497.819, 512.149 497.798, 512.599 497.475, 519.521 497.278, 529.519 497.133, 536.849 497.208, 546.848 497.261, 554.086 497.609, 564.080 497.855, 571.177 498.479, 581.158 498.910, 588.067 499.813, 598.026 500.419, 604.703 501.607, 614.632 502.373, 621.034 503.856, 630.923 504.768, 637.007 506.553, 646.846 507.591, 652.574 509.683, 662.353 510.826, 667.694 513.234, 677.399 514.456, 682.325 517.189, 691.944 517.240, 692.122 518.463, 696.429 521.533, 705.946 522.831, 709.972 526.251, 719.369 527.543, 722.919 531.326, 732.176 532.579, 735.241 534.586, 739.622 537.922, 746.907 538.014, 747.086 541.866, 754.605 543.373, 757.547 543.552, 757.896 547.549, 764.880 549.043, 767.490 549.443, 768.190 551.144, 770.850 555.574, 777.778 561.394, 785.910 561.922, 786.648 568.186, 794.443 568.466, 794.791 575.183, 802.200 582.054, 808.870 589.059, 814.796 596.178, 819.977 603.390, 824.417 610.674, 828.127 618.011, 831.117 625.382, 833.399 632.770, 834.985 " fill="none" stroke="rgb(0, 0, 0)" stroke-linecap="butt" stroke-linejoin="round" stroke-opacity="1.0" stroke-width="3.0" />
            <path d=" M 667.612, 187.700 665.364, 187.894 " fill="none" stroke="rgb(0, 0, 0)" stroke-linecap="butt" stroke-linejoin="round" stroke-opacity="1.0" stroke-width="3.0" />
            <path d=" M 632.770, 834.985 634.950, 835.428 " fill="none" stroke="rgb(0, 0, 0)" stroke-linecap="butt" stroke-linejoin="round" stroke-opacity="1.0" stroke-width="3.0" />
            <path d=" M 485.651, 464.827 484.711, 474.075 483.701, 484.024 483.641, 484.618 482.902, 494.591 482.168, 504.505 482.032, 507.419 481.566, 517.408 481.414, 520.660 481.295, 523.219 481.239, 524.417 481.045, 534.415 480.854, 544.285 480.936, 554.284 481.015, 564.041 481.373, 574.034 481.717, 583.617 482.357, 593.596 482.956, 602.946 483.881, 612.903 484.723, 621.965 485.940, 631.891 487.008, 640.612 488.523, 650.496 489.798, 658.826 491.618, 668.659 493.078, 676.553 495.212, 686.323 496.831, 693.739 499.289, 703.433 501.039, 710.336 503.830, 719.939 505.680, 726.299 508.818, 735.794 510.732, 741.586 510.854, 741.912 512.619, 746.639 516.117, 756.008 516.174, 756.161 519.526, 764.144 521.981, 769.991 526.240, 779.039 527.930, 782.628 528.061, 782.906 528.128, 783.049 528.279, 783.336 529.400, 785.463 531.530, 789.504 534.590, 795.310 535.281, 796.482 536.599, 798.716 536.795, 799.049 538.068, 801.207 541.010, 806.194 541.340, 806.754 541.712, 807.317 542.500, 808.509 544.687, 811.817 548.354, 817.366 554.314, 825.396 555.604, 827.134 562.022, 834.803 563.066, 836.050 569.949, 843.304 570.712, 844.109 578.063, 850.889 578.519, 851.310 586.332, 857.552 586.462, 857.656 594.516, 863.151 602.658, 867.804 610.866, 871.624 619.118, 874.624 627.394, 876.818 631.715, 877.782 639.971, 879.180 648.213, 879.806 656.421, 879.677 664.580, 878.814 672.674, 877.238 680.687, 874.972 688.606, 872.036 696.418, 868.455 704.111, 864.251 711.674, 859.448 719.097, 854.069 726.369, 848.137 733.483, 841.677 740.430, 834.710 747.203, 827.259 753.604, 819.576 753.795, 819.347 759.881, 811.412 760.200, 810.996 765.981, 802.837 766.412, 802.228 771.899, 793.868 772.427, 793.063 777.630, 784.524 778.240, 783.523 783.169, 774.822 783.846, 773.628 788.511, 764.782 789.241, 763.397 793.651, 754.421 794.423, 752.849 798.586, 743.757 799.389, 742.004 803.312, 732.806 804.134, 730.880 807.826, 721.587 808.657, 719.495 812.125, 710.116 812.956, 707.866 816.205, 698.408 817.029, 696.010 820.064, 686.482 820.872, 683.944 823.700, 674.352 824.486, 671.683 827.110, 662.033 827.868, 659.244 830.292, 649.543 831.016, 646.643 833.244, 636.894 833.930, 633.893 835.965, 624.102 836.607, 621.010 838.452, 611.182 839.047, 608.010 840.704, 598.148 841.249, 594.905 842.720, 585.014 843.211, 581.711 844.498, 571.794 844.933, 568.440 846.036, 558.502 846.412, 555.109 847.333, 545.151 847.649, 541.729 848.388, 531.756 848.642, 528.315 849.198, 518.331 849.391, 514.881 849.764, 504.888 849.893, 501.440 850.083, 491.442 850.148, 488.006 850.154, 478.006 850.156, 474.594 849.976, 464.596 849.915, 461.217 849.547, 451.224 849.424, 447.889 848.865, 437.905 848.682, 434.625 847.931, 424.654 847.688, 421.440 846.741, 411.485 846.442, 408.348 845.295, 398.414 844.943, 395.365 843.591, 385.457 843.189, 382.506 841.629, 372.628 841.180, 369.787 839.406, 359.946 838.915, 357.224 836.922, 347.425 836.395, 344.835 834.175, 335.084 833.617, 332.635 831.164, 322.941 830.583, 320.644 827.889, 311.014 827.292, 308.878 824.349, 299.321 823.744, 297.357 820.542, 287.884 819.939, 286.100 816.468, 276.722 815.878, 275.127 812.128, 265.856 811.562, 264.457 807.521, 255.310 806.991, 254.112 802.647, 245.105 802.168, 244.113 797.507, 235.265 797.094, 234.482 792.103, 225.816 791.772, 225.241 786.437, 216.783 786.204, 216.414 780.511, 208.193 780.394, 208.025 774.346, 200.096 768.064, 192.653 761.553, 185.720 754.819, 179.323 747.869, 173.486 740.711, 168.235 733.353, 163.596 725.804, 159.593 718.074, 156.253 710.176, 153.599 702.121, 151.656 693.923, 150.448 685.596, 149.997 677.156, 150.326 672.708, 150.781 664.150, 151.910 655.515, 153.856 646.823, 156.635 638.093, 160.263 629.349, 164.752 620.825, 169.981 620.612, 170.112 612.484, 175.937 611.906, 176.351 604.187, 182.708 603.258, 183.474 595.952, 190.303 594.691, 191.481 587.799, 198.727 586.234, 200.372 579.749, 207.984 577.913, 210.139 571.827, 218.073 569.756, 220.773 564.059, 228.991 561.792, 232.260 556.472, 240.727 554.049, 244.582 549.094, 253.268 546.556, 257.718 545.804, 259.168 545.622, 259.520 545.580, 259.600 545.580, 259.601 542.819, 264.929 542.114, 266.288 540.714, 268.991 539.340, 271.640 537.973, 274.545 536.600, 277.460 536.378, 277.933 535.435, 279.936 533.478, 284.092 532.431, 286.317 532.140, 286.998 530.832, 290.062 526.894, 299.281 525.855, 301.714 525.582, 302.419 521.976, 311.747 519.640, 317.791 518.826, 320.124 515.532, 329.566 513.810, 334.503 511.945, 340.458 508.956, 350.000 508.391, 351.804 505.698, 361.435 503.404, 369.642 501.003, 379.349 498.873, 387.960 496.757, 397.733 494.816, 406.700 492.980, 416.530 491.250, 425.801 491.178, 426.257 489.620, 436.135 489.538, 436.652 488.190, 445.198 486.907, 455.116 485.651, 464.827 " fill="none" stroke="rgb(0, 0, 0)" stroke-linecap="butt" stroke-linejoin="round" stroke-opacity="1.0" stroke-width="3.0" />
            <path d=" M 677.156, 150.326 668.621, 151.453 660.009, 153.399 651.339, 156.180 642.630, 159.811 633.907, 164.305 625.392, 169.549 625.190, 169.673 617.072, 175.513 616.504, 175.921 608.797, 182.293 607.874, 183.056 600.582, 189.898 599.326, 191.077 592.447, 198.335 590.886, 199.983 584.415, 207.607 582.581, 209.768 576.510, 217.714 574.440, 220.423 568.757, 228.651 566.490, 231.933 561.184, 240.409 558.761, 244.280 553.820, 252.974 551.280, 257.443 550.266, 259.405 550.260, 259.418 550.259, 259.420 546.876, 265.970 544.076, 271.394 543.464, 272.698 543.131, 273.409 542.101, 275.603 538.851, 282.532 537.959, 284.433 537.177, 286.102 535.121, 290.933 533.788, 294.066 530.610, 301.533 527.015, 310.864 524.402, 317.645 521.119, 327.091 520.903, 327.711 518.579, 334.395 515.599, 343.941 513.166, 351.735 510.482, 361.368 508.184, 369.613 505.790, 379.322 503.656, 387.973 503.471, 388.828 502.865, 391.638 502.159, 394.909 500.048, 404.684 499.601, 406.756 498.014, 415.281 496.183, 425.112 496.036, 425.901 494.482, 435.779 492.977, 445.343 491.696, 455.261 491.458, 457.101 490.436, 465.017 490.365, 465.712 489.356, 475.661 488.424, 484.854 487.685, 494.827 486.948, 504.786 486.902, 505.762 486.826, 507.387 486.721, 509.637 486.392, 516.662 486.289, 518.873 486.081, 523.306 486.014, 524.744 485.818, 534.742 485.624, 544.658 485.702, 554.658 485.768, 563.199 485.778, 564.459 486.132, 574.452 486.392, 581.799 486.473, 584.079 487.106, 594.059 487.703, 603.451 488.621, 613.409 489.461, 622.512 490.669, 632.439 491.735, 641.199 493.240, 651.085 494.514, 659.453 496.323, 669.288 497.781, 677.217 499.903, 686.989 501.521, 694.439 503.966, 704.135 505.714, 711.069 506.544, 713.941 509.323, 723.547 510.340, 727.063 512.203, 732.728 515.327, 742.227 515.377, 742.380 518.860, 751.754 520.803, 756.982 524.658, 766.209 526.592, 770.838 529.176, 776.352 532.545, 783.540 532.721, 783.918 536.282, 790.704 537.752, 793.506 539.165, 796.199 541.922, 800.893 543.399, 803.409 545.515, 807.012 545.896, 807.661 551.394, 816.015 552.890, 818.289 558.835, 826.330 560.121, 828.070 566.523, 835.751 567.562, 836.997 574.431, 844.264 575.187, 845.065 582.525, 851.858 582.973, 852.273 590.775, 858.528 590.894, 858.624 598.926, 864.122 607.046, 868.775 615.232, 872.594 623.462, 875.592 631.715, 877.782 " fill="none" stroke="rgb(0, 0, 0)" stroke-linecap="butt" stroke-linejoin="round" stroke-opacity="1.0" stroke-width="3.0" />
            <path d=" M 747.911, 528.027 743.722, 526.938 734.725, 524.599 734.316, 523.189 733.807, 521.920 733.209, 520.813 732.529, 519.886 731.780, 519.155 730.974, 518.633 730.123, 518.329 729.243, 518.250 719.260, 517.665 718.082, 517.596 717.182, 517.740 716.315, 518.110 715.500, 518.699 714.716, 519.496 713.979, 520.489 713.299, 521.660 712.690, 522.990 712.161, 524.457 711.721, 526.035 711.379, 527.697 711.156, 529.307 711.141, 529.416 715.903, 530.574 719.086, 530.779 719.932, 530.833 727.067, 531.292 727.147, 530.747 727.267, 530.228 727.425, 529.748 727.615, 529.321 727.833, 528.959 728.073, 528.671 728.327, 528.465 728.590, 528.347 728.854, 528.320 " fill="none" stroke="rgb(0, 0, 0)" stroke-linecap="butt" stroke-linejoin="round" stroke-opacity="1.0" stroke-width="3.0" />
            <path d=" M 729.243, 518.250 728.348, 518.395 727.487, 518.767 726.678, 519.360 725.900, 520.162 725.167, 521.160 724.492, 522.337 723.886, 523.674 723.360, 525.148 722.922, 526.734 722.678, 527.931 722.582, 528.405 722.343, 530.131 " fill="none" stroke="rgb(0, 0, 0)" stroke-linecap="butt" stroke-linejoin="round" stroke-opacity="1.0" stroke-width="3.0" />
            <path d=" M 711.141, 529.416 712.103, 529.477 719.048, 529.921 722.343, 530.131 727.067, 531.292 " fill="none" stroke="rgb(0, 0, 0)" stroke-linecap="butt" stroke-linejoin="round" stroke-opacity="1.0" stroke-width="3.0" />
            <path d=" M 728.854, 528.320 729.112, 528.384 729.356, 528.538 729.580, 528.777 729.779, 529.096 729.946, 529.484 730.077, 529.932 730.168, 530.427 730.218, 530.956 730.225, 531.505 730.188, 532.058 " fill="none" stroke="rgb(0, 0, 0)" stroke-linecap="butt" stroke-linejoin="round" stroke-opacity="1.0" stroke-width="3.0" />
            <path d=" M 719.049, 531.340 725.419, 531.750 730.188, 532.058 735.078, 533.259 744.790, 535.644 747.133, 536.220 " fill="none" stroke="rgb(0, 0, 0)" stroke-linecap="butt" stroke-linejoin="round" stroke-opacity="1.0" stroke-width="3.0" />
            <path d=" M 802.410, 522.535 801.556, 522.690 800.736, 523.077 799.967, 523.692 799.227, 524.523 798.529, 525.556 798.301, 525.985 797.883, 526.774 797.302, 528.156 796.795, 529.679 796.372, 531.317 796.133, 532.553 796.039, 533.042 795.802, 534.824 " fill="none" stroke="rgb(0, 0, 0)" stroke-linecap="butt" stroke-linejoin="round" stroke-opacity="1.0" stroke-width="3.0" />
            <path d=" M 783.879, 534.062 791.360, 534.540 795.802, 534.824 799.048, 535.676 800.258, 535.994 " fill="none" stroke="rgb(0, 0, 0)" stroke-linecap="butt" stroke-linejoin="round" stroke-opacity="1.0" stroke-width="3.0" />
            <path d=" M 801.966, 532.920 802.208, 532.985 802.438, 533.142 802.648, 533.388 802.834, 533.715 802.989, 534.115 803.110, 534.576 803.193, 535.086 803.237, 535.631 803.239, 536.197 803.201, 536.767 799.112, 536.503 791.353, 536.003 " fill="none" stroke="rgb(0, 0, 0)" stroke-linecap="butt" stroke-linejoin="round" stroke-opacity="1.0" stroke-width="3.0" />
            <path d=" M 786.613, 498.090 786.816, 498.168 786.998, 498.289 787.152, 498.446 787.274, 498.635 787.359, 498.851 787.402, 499.088 787.400, 499.340 787.354, 499.576 787.268, 499.801 787.144, 500.006 786.987, 500.185 786.804, 500.330 786.598, 500.436 786.376, 500.499 786.142, 500.513 785.983, 500.493 " fill="none" stroke="rgb(0, 0, 0)" stroke-linecap="butt" stroke-linejoin="round" stroke-opacity="1.0" stroke-width="3.0" />
            <path d=" M 786.613, 498.090 786.597, 498.086 786.589, 498.084 786.558, 498.077 786.521, 498.071 786.479, 498.065 786.434, 498.059 786.387, 498.054 786.339, 498.050 786.292, 498.048 786.252, 498.046 786.218, 498.046 786.190, 498.047 786.170, 498.049 785.945, 498.089 785.922, 498.095 785.699, 498.182 785.497, 498.311 785.325, 498.476 785.186, 498.673 785.173, 498.694 785.074, 498.921 785.021, 499.169 785.020, 499.408 785.066, 499.642 785.156, 499.863 785.289, 500.062 785.458, 500.232 785.477, 500.248 785.674, 500.379 785.829, 500.448 785.897, 500.469 785.983, 500.493 " fill="none" stroke="rgb(0, 0, 0)" stroke-linecap="butt" stroke-linejoin="round" stroke-opacity="1.0" stroke-width="3.0" />
            <path d=" M 786.490, 502.400 789.426, 502.532 789.558, 496.393 789.417, 496.349 786.638, 496.216 783.770, 496.079 783.131, 502.214 784.056, 502.290 " fill="none" stroke="rgb(0, 0, 0)" stroke-linecap="butt" stroke-linejoin="round" stroke-opacity="1.0" stroke-width="3.0" />
            <path d=" M 783.131, 502.214 788.777, 502.499 " fill="none" stroke="rgb(0, 0, 0)" stroke-linecap="butt" stroke-linejoin="round" stroke-opacity="1.0" stroke-width="3.0" />
            <path d=" M 789.426, 502.532 788.777, 502.499 789.417, 496.349 " fill="none" stroke="rgb(0, 0, 0)" stroke-linecap="butt" stroke-linejoin="round" stroke-opacity="1.0" stroke-width="3.0" />
            <path d=" M 711.156, 529.307 704.559, 528.125 694.734, 526.263 693.116, 525.957 683.306, 524.015 681.672, 523.692 671.875, 521.687 670.221, 521.348 660.433, 519.297 658.757, 518.946 648.976, 516.865 647.275, 516.503 637.497, 514.407 635.769, 514.036 625.991, 511.941 624.234, 511.565 614.452, 509.485 612.664, 509.105 602.876, 507.056 601.054, 506.674 591.257, 504.670 589.399, 504.290 579.591, 502.344 577.695, 501.968 577.351, 491.974 577.211, 487.912 576.742, 477.923 576.557, 473.998 575.958, 464.016 575.732, 460.246 574.999, 450.273 574.735, 446.679 573.862, 436.717 573.564, 433.318 572.546, 423.370 572.220, 420.186 571.049, 410.255 570.701, 407.306 569.369, 397.395 569.007, 394.703 567.504, 384.817 567.137, 382.403 565.452, 372.546 565.091, 370.431 563.212, 360.610 562.868, 358.816 560.779, 349.037 560.469, 347.586 558.323, 338.576 " fill="none" stroke="rgb(0, 0, 0)" stroke-linecap="butt" stroke-linejoin="round" stroke-opacity="1.0" stroke-width="3.0" />
            <path d=" M 545.804, 259.168 545.547, 259.154 543.456, 259.043 541.591, 258.781 540.404, 258.613 538.351, 258.324 536.023, 257.996 534.243, 257.745 532.189, 257.455 531.346, 257.336 " fill="none" stroke="rgb(0, 0, 0)" stroke-linecap="butt" stroke-linejoin="round" stroke-opacity="1.0" stroke-width="3.0" />
            <path d=" M 509.100, 249.206 504.313, 247.843 499.414, 247.437 494.416, 248.022 489.330, 249.632 485.649, 251.538 484.173, 252.301 482.151, 253.756 478.957, 256.055 475.909, 258.875 473.701, 260.918 468.422, 266.911 466.968, 268.876 463.139, 274.052 459.426, 279.902 457.872, 282.349 455.013, 287.522 452.644, 291.808 448.269, 300.800 447.477, 302.427 443.513, 311.608 442.394, 314.200 438.798, 323.531 437.420, 327.106 434.156, 336.558 432.579, 341.123 429.618, 350.674 427.898, 356.219 425.213, 365.852 423.401, 372.353 420.972, 382.053 419.113, 389.474 416.922, 399.231 415.060, 407.523 413.092, 417.328 411.265, 426.436 409.509, 436.280 407.752, 446.134 406.198, 456.013 404.644, 465.891 404.542, 466.535 403.182, 476.442 401.821, 486.349 401.657, 487.547 400.484, 497.478 399.311, 507.409 399.114, 509.075 398.123, 519.026 397.132, 528.977 396.929, 531.016 396.117, 540.983 395.305, 550.950 395.117, 553.261 394.481, 563.240 393.846, 573.220 393.688, 575.700 393.229, 585.690 392.770, 595.679 392.653, 598.220 392.369, 608.216 392.086, 618.212 392.015, 620.706 391.908, 630.706 391.802, 640.705 391.777, 643.044 391.852, 653.044 391.926, 663.043 391.941, 665.121 392.200, 675.117 392.459, 685.114 392.503, 686.828 392.951, 696.818 393.400, 706.808 393.456, 708.060 394.101, 718.039 394.747, 728.018 394.792, 728.715 394.817, 728.617 397.350, 718.944 399.883, 709.270 400.331, 707.559 400.844, 705.689 403.491, 696.046 405.983, 686.971 408.747, 677.360 411.512, 667.750 411.747, 666.931 414.633, 657.357 417.518, 647.782 417.626, 647.423 420.635, 637.886 423.619, 628.427 426.754, 618.932 429.727, 609.928 432.992, 600.476 435.952, 591.908 439.349, 582.503 442.294, 574.350 445.826, 564.995 448.754, 557.239 452.424, 547.936 455.334, 540.558 459.143, 531.312 462.035, 524.293 465.986, 515.106 468.858, 508.427 472.952, 499.303 475.805, 492.946 480.044, 483.889 482.877, 477.836 484.711, 474.075 " fill="none" stroke="rgb(0, 0, 0)" stroke-linecap="butt" stroke-linejoin="round" stroke-opacity="1.0" stroke-width="3.0" />
            <path d=" M 364.681, 719.765 360.761, 728.964 359.544, 731.822 " fill="none" stroke="rgb(0, 0, 0)" stroke-linecap="butt" stroke-linejoin="round" stroke-opacity="1.0" stroke-width="3.0" />
            <path d=" M 485.649, 251.538 475.650, 251.353 474.459, 251.331 " fill="none" stroke="rgb(0, 0, 0)" stroke-linecap="butt" stroke-linejoin="round" stroke-opacity="1.0" stroke-width="3.0" />
            <path d=" M 519.011, 253.284 513.383, 250.968 510.907, 249.949 509.100, 249.206 " fill="none" stroke="rgb(0, 0, 0)" stroke-linecap="butt" stroke-linejoin="round" stroke-opacity="1.0" stroke-width="3.0" />
            <path d=" M 518.957, 505.220 519.174, 505.235 " fill="none" stroke="rgb(0, 0, 0)" stroke-linecap="butt" stroke-linejoin="round" stroke-opacity="1.0" stroke-width="3.0" />
            <path d=" M 527.788, 256.097 525.409, 255.335 523.070, 254.585 519.011, 253.284 516.658, 252.530 " fill="none" stroke="rgb(0, 0, 0)" stroke-linecap="butt" stroke-linejoin="round" stroke-opacity="1.0" stroke-width="3.0" />
            <path d=" M 536.023, 257.996 534.203, 257.576 532.103, 257.092 527.788, 256.097 525.482, 255.566 524.086, 255.244 " fill="none" stroke="rgb(0, 0, 0)" stroke-linecap="butt" stroke-linejoin="round" stroke-opacity="1.0" stroke-width="3.0" />
            <path d=" M 545.580, 259.600 545.212, 259.615 " fill="none" stroke="rgb(0, 0, 0)" stroke-linecap="butt" stroke-linejoin="round" stroke-opacity="1.0" stroke-width="3.0" />
            <path d=" M 557.682, 508.531 557.668, 507.887 " fill="none" stroke="rgb(0, 0, 0)" stroke-linecap="butt" stroke-linejoin="round" stroke-opacity="1.0" stroke-width="3.0" />
            <path d=" M 558.059, 340.690 557.919, 339.444 " fill="none" stroke="rgb(0, 0, 0)" stroke-linecap="butt" stroke-linejoin="round" stroke-opacity="1.0" stroke-width="3.0" />
        </g>
    </g>
</svg>
