<?xml version='1.0' encoding='ascii'?>
<svg xmlns="http://www.w3.org/2000/svg" height="1080" version="1.1" width="1080">
    <g id="View Layer_LineSet" inkscape:groupmode="lineset" inkscape:label="View Layer_LineSet" xmlns:inkscape="http://www.inkscape.org/namespaces/inkscape">
        <g id="strokes" inkscape:groupmode="layer" inkscape:label="strokes" xmlns:inkscape="http://www.inkscape.org/namespaces/inkscape">
            <path d=" M 564.605, 494.709 564.586, 495.871 564.549, 497.026 564.491, 498.163 564.415, 499.271 564.319, 500.339 564.206, 501.356 564.077, 502.312 563.933, 503.197 563.879, 503.464 563.772, 504.002 563.651, 504.529 563.523, 505.006 563.391, 505.431 563.254, 505.803 563.114, 506.118 563.028, 506.272 562.970, 506.376 562.825, 506.574 561.191, 508.452 561.072, 508.589 " fill="none" stroke="rgb(0, 0, 0)" stroke-linecap="butt" stroke-linejoin="round" stroke-opacity="1.0" stroke-width="3.0" />
            <path d=" M 356.085, 678.705 362.432, 681.918 " fill="none" stroke="rgb(0, 0, 0)" stroke-linecap="butt" stroke-linejoin="round" stroke-opacity="1.0" stroke-width="3.0" />
            <path d=" M 380.159, 682.615 389.942, 680.540 392.003, 680.103 " fill="none" stroke="rgb(0, 0, 0)" stroke-linecap="butt" stroke-linejoin="round" stroke-opacity="1.0" stroke-width="3.0" />
            <path d=" M 392.003, 680.103 387.518, 671.166 383.032, 662.228 382.032, 660.236 " fill="none" stroke="rgb(0, 0, 0)" stroke-linecap="butt" stroke-linejoin="round" stroke-opacity="1.0" stroke-width="3.0" />
            <path d=" M 471.043, 230.452 466.619, 230.912 462.128, 232.430 457.582, 235.038 452.997, 238.768 448.387, 243.647 444.916, 248.196 443.769, 249.699 442.255, 252.079 439.162, 256.938 434.583, 265.380 430.334, 274.432 430.053, 275.030 426.252, 284.279 425.592, 285.886 422.184, 295.287 421.223, 297.938 418.161, 307.458 416.967, 311.172 414.215, 320.786 412.848, 325.562 410.373, 335.251 408.887, 341.071 406.665, 350.822 405.108, 357.657 403.119, 367.457 401.535, 375.267 399.761, 385.108 398.188, 393.836 396.616, 403.712 395.090, 413.293 393.707, 423.197 392.324, 433.101 392.261, 433.556 391.058, 443.483 389.856, 453.411 389.720, 454.535 388.690, 464.482 387.660, 474.429 387.484, 476.133 386.621, 486.096 385.758, 496.059 385.568, 498.245 384.867, 508.220 384.167, 518.196 383.986, 520.760 383.445, 530.745 382.903, 540.730 382.750, 543.563 382.365, 553.556 381.980, 563.549 381.865, 566.536 381.637, 576.534 381.408, 586.531 381.339, 589.559 381.267, 599.559 381.195, 609.558 381.173, 612.510 381.259, 622.509 381.345, 632.509 381.369, 635.269 381.615, 645.266 381.861, 655.263 381.922, 657.719 382.032, 660.236 381.198, 670.201 380.364, 680.166 380.159, 682.615 " fill="none" stroke="rgb(0, 0, 0)" stroke-linecap="butt" stroke-linejoin="round" stroke-opacity="1.0" stroke-width="3.0" />
            <path d=" M 566.948, 520.522 567.416, 520.530 567.992, 520.540 574.319, 512.796 574.812, 512.193 577.894, 509.360 577.681, 499.362 577.585, 494.836 577.248, 484.841 577.099, 480.422 576.636, 470.433 576.438, 466.141 575.845, 456.159 575.598, 452.015 574.871, 442.041 574.581, 438.065 573.714, 428.102 573.384, 424.314 572.372, 414.365 572.008, 410.785 570.844, 400.853 570.451, 397.505 569.126, 387.593 568.713, 384.498 567.219, 374.610 566.793, 371.789 565.119, 361.930 564.691, 359.408 562.824, 349.584 562.406, 347.383 562.230, 346.552 " fill="none" stroke="rgb(0, 0, 0)" stroke-linecap="butt" stroke-linejoin="round" stroke-opacity="1.0" stroke-width="3.0" />
            <path d=" M 558.911, 353.185 559.841, 357.511 561.209, 364.615 562.042, 368.940 563.738, 378.795 564.069, 380.721 565.582, 390.606 565.922, 392.827 567.263, 402.736 567.600, 405.228 568.779, 415.159 569.104, 417.901 570.129, 427.849 570.435, 430.821 571.313, 440.782 571.593, 443.961 572.330, 453.934 572.578, 457.300 573.180, 467.282 573.392, 470.815 573.862, 480.804 574.035, 484.483 574.378, 494.477 574.508, 498.283 574.532, 499.358 574.471, 500.138 574.400, 500.893 574.320, 501.619 574.232, 502.313 574.136, 502.970 574.032, 503.586 573.921, 504.160 573.804, 504.687 573.681, 505.165 573.554, 505.591 573.421, 505.963 573.286, 506.279 573.147, 506.537 573.007, 506.736 568.974, 511.555 568.766, 510.608 568.536, 509.837 568.288, 509.255 568.026, 508.873 567.942, 508.819 567.753, 508.697 567.422, 508.692 564.956, 508.652 564.834, 508.650 564.833, 508.650 563.908, 508.635 563.046, 508.621 561.072, 508.589 559.476, 508.563 557.691, 508.535 557.512, 508.532 557.370, 508.529 557.081, 508.563 556.792, 508.807 556.506, 509.258 556.230, 509.908 555.967, 510.746 555.873, 511.136 555.722, 511.760 555.694, 511.913 555.500, 512.932 555.305, 514.243 555.139, 515.669 555.006, 517.188 554.908, 518.772 554.847, 520.395 554.823, 522.028 554.838, 523.644 555.757, 523.661 557.602, 523.694 557.714, 523.696 559.496, 523.728 563.063, 523.793 563.891, 523.808 564.847, 523.825 565.302, 523.833 566.922, 521.850 566.920, 521.336 566.932, 520.819 566.948, 520.522 566.959, 520.312 566.999, 519.830 567.052, 519.385 567.116, 518.989 567.189, 518.654 567.270, 518.388 567.356, 518.199 567.417, 518.124 567.444, 518.092 567.533, 518.069 " fill="none" stroke="rgb(0, 0, 0)" stroke-linecap="butt" stroke-linejoin="round" stroke-opacity="1.0" stroke-width="3.0" />
            <path d=" M 464.604, 904.091 460.547, 903.689 458.170, 902.865 456.480, 902.280 452.416, 899.832 449.440, 897.248 448.370, 896.319 444.358, 891.718 440.394, 886.011 436.497, 879.181 432.685, 871.220 428.974, 862.127 425.661, 852.692 425.385, 851.905 422.476, 842.337 421.935, 840.561 419.379, 830.893 418.645, 828.116 416.401, 818.371 415.532, 814.598 413.569, 804.792 412.616, 800.037 410.906, 790.184 409.915, 784.477 408.436, 774.587 407.446, 767.969 406.180, 758.050 405.225, 750.574 404.158, 740.631 403.269, 732.357 402.388, 722.396 401.591, 713.394 400.886, 703.419 400.203, 693.769 399.666, 683.783 399.129, 673.797 399.117, 673.569 398.720, 663.577 398.519, 658.519 " fill="none" stroke="rgb(0, 0, 0)" stroke-linecap="butt" stroke-linejoin="round" stroke-opacity="1.0" stroke-width="3.0" />
            <path d=" M 382.428, 315.733 380.324, 324.263 378.183, 334.031 376.953, 339.647 375.041, 349.463 373.746, 356.111 372.044, 365.965 370.725, 373.605 369.216, 383.491 367.907, 392.069 366.578, 401.980 365.311, 411.432 364.150, 421.365 362.990, 431.297 362.953, 431.617 361.953, 441.567 360.954, 451.517 360.851, 452.538 360.004, 462.502 359.157, 472.466 359.018, 474.099 358.318, 484.075 357.618, 494.050 357.467, 496.198 356.910, 506.182 356.353, 516.167 356.210, 518.728 355.792, 528.719 355.375, 538.710 355.255, 541.576 354.974, 551.572 354.694, 561.568 354.608, 564.624 354.464, 574.623 354.321, 584.622 354.275, 587.755 354.268, 597.755 354.261, 607.755 354.258, 610.847 354.388, 620.847 354.518, 630.846 354.557, 633.781 354.826, 643.778 355.095, 653.774 355.167, 656.439 355.579, 666.431 355.991, 676.422 356.085, 678.705 356.694, 688.687 357.303, 698.668 357.402, 700.292 358.189, 710.261 358.976, 720.230 359.057, 721.249 360.031, 731.201 361.006, 741.153 361.037, 741.476 362.210, 751.407 363.329, 760.885 364.713, 770.789 365.916, 779.393 367.528, 789.262 368.780, 796.927 370.640, 806.753 371.904, 813.426 374.037, 823.196 375.267, 828.834 377.703, 838.532 378.851, 843.106 380.491, 848.789 " fill="none" stroke="rgb(0, 0, 0)" stroke-linecap="butt" stroke-linejoin="round" stroke-opacity="1.0" stroke-width="3.0" />
            <path d=" M 523.665, 533.871 523.697, 537.266 523.681, 547.266 523.674, 551.334 523.551, 561.333 523.500, 565.438 523.270, 575.435 523.174, 579.558 522.837, 589.552 522.698, 593.675 522.254, 603.665 522.071, 607.771 521.519, 617.755 521.410, 619.729 " fill="none" stroke="rgb(0, 0, 0)" stroke-linecap="butt" stroke-linejoin="round" stroke-opacity="1.0" stroke-width="3.0" />
            <path d=" M 507.138, 745.689 505.354, 755.574 503.425, 765.386 502.955, 767.777 500.865, 777.557 500.414, 779.668 498.152, 789.409 497.731, 791.218 495.284, 800.914 494.909, 802.400 492.262, 812.044 491.950, 813.182 489.085, 822.763 488.855, 823.533 485.753, 833.040 485.628, 833.423 482.272, 842.817 478.790, 851.679 475.187, 859.976 471.466, 867.672 467.635, 874.729 463.698, 881.108 459.662, 886.773 455.535, 891.684 451.326, 895.802 449.440, 897.248 " fill="none" stroke="rgb(0, 0, 0)" stroke-linecap="butt" stroke-linejoin="round" stroke-opacity="1.0" stroke-width="3.0" />
            <path d=" M 391.798, 675.058 392.003, 680.103 392.557, 690.088 393.112, 700.073 393.198, 701.632 393.932, 711.605 394.666, 721.578 394.737, 722.534 395.659, 732.491 396.581, 742.448 396.606, 742.711 397.727, 752.648 398.790, 762.073 400.124, 771.984 401.275, 780.540 402.834, 790.417 404.038, 798.039 405.843, 807.874 407.060, 814.508 409.134, 824.290 410.321, 829.891 412.690, 839.606 413.797, 844.145 416.496, 853.774 417.466, 857.236 420.535, 866.754 421.304, 869.138 424.796, 878.508 425.289, 879.831 429.268, 889.006 429.399, 889.309 433.610, 897.570 437.024, 903.178 437.305, 903.638 437.902, 904.620 442.255, 910.469 446.648, 915.137 451.064, 918.648 455.484, 921.028 459.894, 922.307 464.277, 922.521 468.621, 921.708 472.912, 919.904 477.139, 917.151 479.382, 915.174 481.291, 913.492 485.360, 908.967 489.336, 903.617 493.213, 897.487 496.942, 890.694 496.983, 890.619 500.641, 883.053 504.183, 874.829 507.373, 866.583 507.603, 865.988 510.899, 856.570 513.929, 847.040 514.066, 846.609 516.853, 837.005 517.103, 836.143 519.670, 826.478 520.007, 825.208 522.374, 815.492 522.777, 813.837 524.960, 804.078 525.411, 802.062 527.032, 794.173 " fill="none" stroke="rgb(0, 0, 0)" stroke-linecap="butt" stroke-linejoin="round" stroke-opacity="1.0" stroke-width="3.0" />
            <path d=" M 523.725, 787.405 522.773, 791.884 520.522, 801.628 520.195, 803.045 517.759, 812.744 517.492, 813.807 514.855, 823.453 514.667, 824.139 511.809, 833.722 511.723, 834.011 508.661, 843.388 505.487, 852.235 502.202, 860.519 498.813, 868.203 495.323, 875.249 491.738, 881.619 488.065, 887.277 484.310, 892.184 480.481, 896.299 476.586, 899.584 472.634, 902.003 468.637, 903.518 464.604, 904.091 " fill="none" stroke="rgb(0, 0, 0)" stroke-linecap="butt" stroke-linejoin="round" stroke-opacity="1.0" stroke-width="3.0" />
            <path d=" M 555.873, 511.136 555.687, 511.125 548.952, 510.749 548.305, 510.713 546.462, 510.610 546.336, 510.603 546.508, 520.601 546.576, 524.505 546.648, 534.504 546.677, 538.482 546.650, 548.482 546.640, 552.515 546.515, 562.514 546.465, 566.584 546.243, 576.581 546.152, 580.670 545.833, 590.665 545.702, 594.755 545.286, 604.746 545.116, 608.818 544.601, 618.804 544.393, 622.840 543.778, 632.821 543.533, 636.802 542.819, 646.776 542.539, 650.684 541.721, 660.650 541.408, 664.466 540.486, 674.423 540.143, 678.126 539.113, 688.072 538.743, 691.643 538.615, 692.755 " fill="none" stroke="rgb(0, 0, 0)" stroke-linecap="butt" stroke-linejoin="round" stroke-opacity="1.0" stroke-width="3.0" />
            <path d=" M 541.173, 699.977 541.517, 696.832 542.495, 686.880 542.907, 682.692 543.781, 672.730 544.159, 668.410 544.931, 658.440 545.274, 654.008 545.946, 644.030 546.251, 639.507 546.826, 629.523 547.091, 624.927 547.571, 614.939 547.794, 610.289 548.180, 600.296 548.360, 595.610 548.653, 585.615 548.791, 580.912 548.991, 570.914 549.085, 566.213 549.192, 556.213 549.242, 551.531 549.257, 541.531 549.264, 536.886 549.186, 526.886 549.151, 522.297 548.979, 512.299 548.952, 510.749 " fill="none" stroke="rgb(0, 0, 0)" stroke-linecap="butt" stroke-linejoin="round" stroke-opacity="1.0" stroke-width="3.0" />
            <path d=" M 380.159, 682.615 380.730, 692.598 381.302, 702.582 381.441, 705.010 382.189, 714.982 382.937, 724.954 383.071, 726.741 384.005, 736.697 384.939, 746.653 385.037, 747.705 386.167, 757.641 387.298, 767.577 387.324, 767.808 388.664, 777.718 389.914, 786.964 391.479, 796.841 392.788, 805.098 394.598, 814.933 395.926, 822.146 398.005, 831.927 399.306, 838.049 401.683, 847.762 402.907, 852.763 405.617, 862.389 406.705, 866.256 409.792, 875.767 410.679, 878.500 414.197, 887.860 414.805, 889.477 418.820, 898.635 419.060, 899.182 423.424, 907.617 427.873, 914.789 432.389, 920.710 436.951, 925.404 441.541, 928.897 446.140, 931.218 450.734, 932.402 455.305, 932.487 459.840, 931.513 464.326, 929.521 468.750, 926.554 473.103, 922.658 " fill="none" stroke="rgb(0, 0, 0)" stroke-linecap="butt" stroke-linejoin="round" stroke-opacity="1.0" stroke-width="3.0" />
            <path d=" M 473.103, 922.658 477.572, 917.655 481.291, 913.492 " fill="none" stroke="rgb(0, 0, 0)" stroke-linecap="butt" stroke-linejoin="round" stroke-opacity="1.0" stroke-width="3.0" />
            <path d=" M 540.809, 535.249 530.810, 535.125 529.452, 535.108 526.418, 534.459 523.665, 533.871 519.557, 532.993 519.268, 532.931 518.978, 532.869 518.688, 532.807 518.400, 532.745 518.059, 532.554 517.729, 532.129 517.416, 531.479 517.128, 530.615 516.990, 530.045 " fill="none" stroke="rgb(0, 0, 0)" stroke-linecap="butt" stroke-linejoin="round" stroke-opacity="1.0" stroke-width="3.0" />
            <path d=" M 518.354, 507.835 518.588, 507.280 518.859, 506.636 518.997, 506.314 519.061, 506.162 522.947, 496.948 526.832, 487.734 528.183, 484.531 538.139, 485.477 539.665, 485.622 540.059, 495.614 540.452, 505.606 540.636, 510.284 540.771, 520.283 540.823, 524.192 540.810, 534.192 540.809, 535.249 531.707, 533.228 531.429, 533.166 531.151, 533.104 530.872, 533.042 530.594, 532.981 530.267, 532.790 529.949, 532.365 529.649, 531.714 529.453, 531.101 529.372, 530.849 529.126, 529.786 528.914, 528.545 528.740, 527.150 528.608, 525.627 528.520, 524.006 528.510, 523.600 528.477, 522.317 528.482, 520.594 528.534, 518.870 528.618, 517.409 528.631, 517.178 528.772, 515.552 528.954, 514.022 529.174, 512.618 529.282, 512.084 529.427, 511.368 529.708, 510.294 530.010, 509.418 530.271, 508.770 530.534, 508.122 530.796, 507.476 531.057, 506.831 531.190, 506.508 534.950, 497.242 538.710, 487.976 539.665, 485.622 " fill="none" stroke="rgb(0, 0, 0)" stroke-linecap="butt" stroke-linejoin="round" stroke-opacity="1.0" stroke-width="3.0" />
            <path d=" M 530.815, 523.642 530.693, 523.509 530.581, 523.245 530.484, 522.863 530.407, 522.380 530.353, 521.816 530.324, 521.197 530.321, 520.549 530.346, 519.900 530.396, 519.280 530.469, 518.716 530.562, 518.232 530.671, 517.849 530.792, 517.584 530.917, 517.451 531.044, 517.451 " fill="none" stroke="rgb(0, 0, 0)" stroke-linecap="butt" stroke-linejoin="round" stroke-opacity="1.0" stroke-width="3.0" />
            <path d=" M 531.044, 517.451 531.166, 517.587 531.277, 517.852 531.374, 518.234 531.450, 518.716 531.504, 519.279 531.533, 519.896 531.535, 520.542 531.511, 521.188 531.461, 521.805 531.389, 522.369 531.296, 522.852 531.187, 523.236 531.067, 523.502 530.941, 523.640 530.815, 523.642 " fill="none" stroke="rgb(0, 0, 0)" stroke-linecap="butt" stroke-linejoin="round" stroke-opacity="1.0" stroke-width="3.0" />
            <path d=" M 360.503, 614.422 360.505, 616.315 360.658, 626.314 360.810, 636.313 360.843, 638.498 361.137, 648.493 361.431, 658.489 361.487, 660.393 361.719, 665.687 362.158, 675.678 362.432, 681.918 362.570, 684.261 " fill="none" stroke="rgb(0, 0, 0)" stroke-linecap="butt" stroke-linejoin="round" stroke-opacity="1.0" stroke-width="3.0" />
            <path d=" M 547.010, 714.201 547.794, 707.495 548.862, 697.552 549.195, 694.449 550.174, 684.497 550.490, 681.293 551.381, 671.332 551.676, 668.037 552.482, 658.070 552.754, 654.697 553.476, 644.723 553.725, 641.282 554.364, 631.303 554.588, 627.807 555.145, 617.822 555.343, 614.282 555.820, 604.293 555.990, 600.718 556.387, 590.726 556.529, 587.128 556.846, 577.133 556.961, 573.522 557.198, 563.525 557.284, 559.912 557.375, 554.120 557.498, 546.308 557.576, 536.308 557.604, 532.722 557.602, 523.694 " fill="none" stroke="rgb(0, 0, 0)" stroke-linecap="butt" stroke-linejoin="round" stroke-opacity="1.0" stroke-width="3.0" />
            <path d=" M 456.140, 956.017 458.568, 956.197 462.700, 955.856 466.796, 954.698 470.848, 952.754 474.849, 950.055 478.790, 946.631 482.668, 942.514 486.474, 937.735 490.206, 932.324 493.857, 926.313 497.423, 919.731 500.902, 912.608 504.290, 904.971 507.584, 896.850 510.782, 888.271 513.881, 879.261 516.880, 869.844 519.715, 860.254 519.777, 860.046 522.429, 850.404 522.571, 849.889 525.054, 840.202 525.260, 839.397 527.586, 829.671 527.844, 828.592 530.023, 818.832 530.322, 817.493 532.364, 807.704 532.694, 806.122 532.862, 805.259 " fill="none" stroke="rgb(0, 0, 0)" stroke-linecap="butt" stroke-linejoin="round" stroke-opacity="1.0" stroke-width="3.0" />
            <path d=" M 524.102, 238.111 523.604, 236.553 520.733, 228.361 517.747, 220.642 514.647, 213.422 511.435, 206.730 508.114, 200.593 504.686, 195.041 501.153, 190.104 497.519, 185.812 493.789, 182.194 489.966, 179.282 486.056, 177.106 482.064, 175.696 477.997, 175.083 475.883, 175.192 473.862, 175.296 469.666, 176.362 465.418, 178.310 461.127, 181.165 456.803, 184.951 452.457, 189.689 448.101, 195.398 443.747, 202.094 439.407, 209.791 435.096, 218.495 431.075, 227.651 430.828, 228.214 429.977, 230.383 426.618, 238.945 423.295, 248.377 422.482, 250.685 419.454, 260.216 418.435, 263.423 416.203, 271.192 414.494, 277.144 411.976, 286.822 410.675, 291.826 408.381, 301.560 406.995, 307.442 404.908, 317.222 403.471, 323.957 401.577, 333.776 400.119, 341.332 398.405, 351.184 396.955, 359.520 395.411, 369.400 393.995, 378.468 392.613, 388.372 391.253, 398.118 390.025, 408.043 388.798, 417.967 388.744, 418.406 387.665, 428.348 386.586, 438.289 386.480, 439.262 385.545, 449.218 384.610, 459.175 384.475, 460.612 383.679, 470.580 382.883, 480.548 382.737, 482.376 382.078, 492.354 381.419, 502.332 381.277, 504.471 380.752, 514.458 380.227, 524.444 380.103, 526.813 379.711, 536.806 379.318, 546.798 379.220, 549.313 378.959, 559.310 378.699, 569.306 378.632, 571.882 378.504, 581.881 378.376, 591.880 378.343, 594.428 378.347, 604.428 378.352, 614.428 378.353, 616.863 378.492, 626.862 378.630, 636.861 378.661, 639.097 378.936, 649.093 379.211, 659.089 379.265, 661.042 379.679, 671.034 380.093, 681.025 380.159, 682.615 380.717, 692.599 381.275, 702.584 381.339, 703.732 382.045, 713.708 382.750, 723.683 382.795, 724.319 383.656, 734.282 384.520, 744.300 385.542, 754.248 386.503, 763.609 387.694, 773.537 388.731, 782.183 390.103, 792.088 391.193, 799.966 392.757, 809.843 393.875, 816.908 395.645, 826.750 396.762, 832.964 398.755, 842.764 399.840, 848.098 402.076, 857.845 403.092, 862.277 405.595, 871.959 406.505, 875.477 409.303, 885.078 410.062, 887.679 413.189, 897.177 413.746, 898.869 417.244, 908.237 417.544, 909.039 421.439, 918.188 425.416, 926.316 429.461, 933.432 433.560, 939.545 437.699, 944.671 441.865, 948.827 446.046, 952.033 450.231, 954.313 454.408, 955.692 456.703, 955.971 458.568, 956.197 " fill="none" stroke="rgb(0, 0, 0)" stroke-linecap="butt" stroke-linejoin="round" stroke-opacity="1.0" stroke-width="3.0" />
            <path d=" M 475.588, 175.148 471.426, 175.361 467.204, 176.428 462.929, 178.376 458.611, 181.231 454.260, 185.016 449.887, 189.753 445.504, 195.461 441.123, 202.156 436.756, 209.850 432.419, 218.552 428.377, 227.699 428.125, 228.268 427.167, 230.696 423.890, 238.996 420.549, 248.421 419.729, 250.732 416.684, 260.257 415.659, 263.466 412.882, 273.073 411.694, 277.183 409.163, 286.857 408.686, 288.679 407.854, 291.860 405.547, 301.590 404.153, 307.470 402.054, 317.247 400.609, 323.979 398.704, 333.796 397.238, 341.347 395.514, 351.198 394.057, 359.528 392.504, 369.407 391.080, 378.469 389.691, 388.372 388.324, 398.112 387.090, 408.036 385.856, 417.959 385.802, 418.392 384.717, 428.333 383.632, 438.274 383.527, 439.240 382.587, 449.196 381.647, 459.152 381.512, 460.581 380.712, 470.549 379.912, 480.517 379.766, 482.337 379.104, 492.315 378.442, 502.293 378.300, 504.424 377.773, 514.410 377.246, 524.396 377.121, 526.757 376.728, 536.749 376.334, 546.741 376.236, 549.248 375.975, 559.245 375.714, 569.241 375.647, 571.808 375.520, 581.807 375.392, 591.806 375.360, 594.345 375.365, 604.345 375.371, 614.345 375.373, 616.772 375.513, 626.771 375.654, 636.770 375.686, 638.997 375.964, 648.993 376.242, 658.989 376.296, 660.934 376.714, 670.925 377.133, 680.916 377.199, 682.498 377.762, 692.482 378.324, 702.467 378.389, 703.608 379.101, 713.583 379.812, 723.558 379.857, 724.187 380.724, 734.149 381.596, 744.161 382.625, 754.108 383.593, 763.464 384.793, 773.391 385.838, 782.032 387.220, 791.936 388.318, 799.809 389.893, 809.684 391.019, 816.745 392.801, 826.585 393.926, 832.797 395.933, 842.594 397.025, 847.927 399.276, 857.670 400.300, 862.102 402.820, 871.780 403.736, 875.299 406.553, 884.894 407.317, 887.498 410.464, 896.990 411.026, 898.686 414.545, 908.046 414.849, 908.854 418.770, 918.002 422.774, 926.129 426.845, 933.244 430.971, 939.358 435.137, 944.484 439.330, 948.640 443.538, 951.848 447.750, 954.129 451.954, 955.510 456.140, 956.017 " fill="none" stroke="rgb(0, 0, 0)" stroke-linecap="butt" stroke-linejoin="round" stroke-opacity="1.0" stroke-width="3.0" />
            <path d=" M 477.997, 175.083 475.588, 175.148 " fill="none" stroke="rgb(0, 0, 0)" stroke-linecap="butt" stroke-linejoin="round" stroke-opacity="1.0" stroke-width="3.0" />
            <path d=" M 552.798, 726.417 553.046, 724.410 554.183, 714.474 554.616, 710.682 555.663, 700.737 556.074, 696.830 557.033, 686.876 557.419, 682.868 558.293, 672.906 558.652, 668.808 559.443, 658.840 559.774, 654.663 560.482, 644.689 560.784, 640.445 561.411, 630.465 561.682, 626.166 562.230, 616.181 562.469, 611.837 562.938, 601.848 563.144, 597.469 563.536, 587.476 563.708, 583.073 564.022, 573.077 564.160, 568.660 564.397, 558.662 564.501, 554.241 564.660, 544.242 564.730, 539.826 564.811, 529.827 564.847, 525.427 564.847, 523.825 " fill="none" stroke="rgb(0, 0, 0)" stroke-linecap="butt" stroke-linejoin="round" stroke-opacity="1.0" stroke-width="3.0" />
            <path d=" M 453.499, 980.150 455.922, 980.338 460.400, 980.580 464.841, 979.911 469.234, 978.366 473.573, 975.981 477.849, 972.791 482.055, 968.831 486.185, 964.139 490.233, 958.749 494.195, 952.696 498.066, 946.015 501.841, 938.738 505.519, 930.898 509.095, 922.527 512.567, 913.656 515.934, 904.313 519.093, 894.825 519.193, 894.528 521.101, 888.347 522.342, 884.327 525.100, 874.715 525.381, 873.736 527.963, 864.076 528.309, 862.782 530.727, 853.079 531.124, 851.488 533.391, 841.748 533.826, 839.876 535.952, 830.105 536.416, 827.970 538.408, 818.170 538.892, 815.789 538.916, 815.663 " fill="none" stroke="rgb(0, 0, 0)" stroke-linecap="butt" stroke-linejoin="round" stroke-opacity="1.0" stroke-width="3.0" />
            <path d=" M 539.722, 245.240 537.915, 237.501 535.451, 227.810 535.285, 227.156 532.614, 217.519 532.529, 217.211 529.646, 207.693 526.638, 198.630 523.505, 190.049 520.248, 181.980 516.868, 174.454 513.367, 167.502 509.747, 161.158 506.011, 155.453 502.161, 150.422 498.202, 146.100 494.138, 142.522 489.974, 139.722 485.715, 137.737 481.367, 136.602 476.938, 136.352 475.906, 136.505 472.436, 137.021 467.869, 138.641 463.247, 141.245 458.581, 144.862 453.882, 149.520 449.162, 155.245 444.436, 162.057 439.716, 169.975 435.105, 178.848 435.019, 179.013 430.853, 188.104 430.360, 189.181 426.587, 198.442 425.756, 200.482 422.332, 209.878 421.224, 212.916 419.675, 217.647 416.783, 226.476 413.951, 236.066 413.100, 238.949 412.451, 241.146 412.339, 241.566 409.762, 251.228 408.247, 256.908 405.902, 266.629 404.189, 273.732 402.059, 283.503 400.297, 291.584 398.367, 301.396 396.591, 310.421 394.846, 320.268 393.088, 330.193 391.519, 340.069 389.950, 349.945 389.807, 350.841 389.302, 354.404 387.899, 364.305 386.765, 372.302 385.520, 382.224 384.275, 392.146 383.979, 394.502 382.886, 404.442 381.793, 414.382 381.465, 417.363 380.518, 427.318 379.571, 437.273 379.235, 440.800 378.430, 450.768 377.626, 460.735 377.304, 464.723 376.638, 474.701 375.972, 484.678 375.681, 489.036 375.151, 499.022 374.622, 509.008 374.376, 513.642 373.981, 523.634 373.586, 533.626 373.396, 538.438 373.135, 548.435 372.874, 558.431 372.746, 563.320 372.619, 573.320 372.492, 583.319 372.430, 588.185 372.437, 598.185 372.444, 608.185 372.448, 612.927 372.591, 622.926 372.734, 632.925 372.798, 637.444 373.079, 647.440 373.361, 657.436 373.479, 661.634 373.901, 671.625 374.323, 681.616 374.483, 685.399 375.051, 695.383 375.618, 705.367 375.805, 708.646 376.523, 718.620 377.240, 728.594 377.434, 731.286 378.308, 741.247 379.183, 751.209 379.360, 753.235 380.398, 763.181 381.437, 773.127 381.571, 774.416 382.782, 784.343 383.993, 794.269 384.053, 794.760 385.447, 804.663 386.790, 814.203 388.380, 824.076 389.767, 832.690 391.568, 842.526 392.968, 850.171 394.997, 859.963 396.374, 866.608 398.652, 876.345 399.968, 881.966 402.521, 891.634 403.732, 896.220 406.248, 904.658 407.263, 908.060 407.648, 909.351 410.846, 918.826 411.698, 921.349 415.174, 930.409 415.864, 932.207 419.184, 939.771 420.129, 941.926 424.476, 950.512 428.889, 957.976 433.352, 964.335 437.850, 969.607 442.369, 973.816 446.895, 976.988 451.417, 979.152 455.652, 980.267 455.922, 980.338 " fill="none" stroke="rgb(0, 0, 0)" stroke-linecap="butt" stroke-linejoin="round" stroke-opacity="1.0" stroke-width="3.0" />
            <path d=" M 360.800, 561.300 360.755, 563.036 360.629, 573.035 360.504, 583.034 360.443, 587.862 360.456, 597.862 360.469, 607.862 360.475, 612.565 360.503, 614.422 360.655, 624.421 360.807, 634.420 360.847, 637.044 361.141, 647.040 361.435, 657.036 361.557, 661.197 361.751, 665.614 362.190, 675.604 362.455, 681.648 362.561, 684.058 362.570, 684.261 362.599, 684.927 362.739, 687.299 " fill="none" stroke="rgb(0, 0, 0)" stroke-linecap="butt" stroke-linejoin="round" stroke-opacity="1.0" stroke-width="3.0" />
            <path d=" M 474.534, 136.428 470.003, 137.098 465.407, 138.719 460.757, 141.323 456.061, 144.940 451.333, 149.597 446.585, 155.320 441.829, 162.131 437.081, 170.047 432.446, 178.909 432.355, 179.083 428.168, 188.164 427.668, 189.248 423.875, 198.501 423.037, 200.547 419.594, 209.935 418.478, 212.977 415.348, 222.474 414.011, 226.532 411.163, 236.118 410.024, 239.952 409.654, 241.198 407.885, 247.789 405.425, 256.954 403.067, 266.672 401.344, 273.772 400.691, 276.751 398.549, 286.519 397.431, 291.618 395.489, 301.428 393.704, 310.448 391.950, 320.293 390.182, 330.213 388.604, 340.087 387.026, 349.962 386.883, 350.853 385.472, 360.753 384.061, 370.653 383.825, 372.306 382.574, 382.227 381.322, 392.148 381.025, 394.497 380.505, 399.196 379.406, 409.136 378.498, 417.349 377.546, 427.304 376.594, 437.259 376.258, 440.777 375.449, 450.744 374.640, 460.712 374.317, 464.691 373.648, 474.668 372.979, 484.646 372.688, 488.995 372.156, 498.980 371.624, 508.966 371.378, 513.590 370.982, 523.583 370.586, 533.575 370.395, 538.377 370.134, 548.373 369.872, 558.370 369.745, 563.249 369.618, 573.248 369.491, 583.248 369.430, 588.104 369.438, 598.104 369.447, 608.104 369.451, 612.837 369.596, 622.836 369.741, 632.835 369.807, 637.344 370.091, 647.340 370.376, 657.336 370.495, 661.524 370.921, 671.515 371.348, 681.506 371.509, 685.281 372.081, 695.264 372.654, 705.248 372.842, 708.519 373.565, 718.493 374.289, 728.467 374.484, 731.151 375.365, 741.112 376.247, 751.073 376.425, 753.092 377.471, 763.037 378.518, 772.983 378.653, 774.267 379.873, 784.192 381.093, 794.117 381.152, 794.604 382.557, 804.505 383.909, 814.041 385.511, 823.911 386.908, 832.521 388.721, 842.355 390.130, 849.998 392.173, 859.787 393.560, 866.430 395.854, 876.163 397.178, 881.784 399.760, 891.491 400.968, 896.034 402.738, 901.929 404.910, 909.163 406.128, 912.747 408.987, 921.158 412.354, 929.875 413.181, 932.014 417.222, 941.162 417.474, 941.732 421.849, 950.318 426.291, 957.782 430.783, 964.140 435.310, 969.413 439.858, 973.623 444.414, 976.796 448.965, 978.962 453.499, 980.150 " fill="none" stroke="rgb(0, 0, 0)" stroke-linecap="butt" stroke-linejoin="round" stroke-opacity="1.0" stroke-width="3.0" />
            <path d=" M 476.938, 136.352 474.534, 136.428 " fill="none" stroke="rgb(0, 0, 0)" stroke-linecap="butt" stroke-linejoin="round" stroke-opacity="1.0" stroke-width="3.0" />
            <path d=" M 544.986, 247.067 544.889, 246.568 542.826, 236.783 542.449, 234.998 540.216, 225.250 539.878, 223.778 537.460, 214.075 537.176, 212.935 534.556, 203.284 534.341, 202.492 531.501, 192.904 531.375, 192.479 528.277, 182.923 525.047, 173.854 521.687, 165.303 518.197, 157.302 514.580, 149.884 510.836, 143.083 506.968, 136.936 502.979, 131.477 498.873, 126.745 494.654, 122.777 490.327, 119.610 485.896, 117.283 481.369, 115.835 476.752, 115.304 471.971, 115.469 467.214, 115.895 462.383, 117.310 457.490, 119.751 452.545, 123.251 447.560, 127.842 442.548, 133.551 437.524, 140.405 432.503, 148.425 427.727, 157.211 427.500, 157.629 423.190, 166.652 422.533, 168.028 418.634, 177.237 417.621, 179.631 414.086, 188.985 412.781, 192.437 409.571, 201.908 408.034, 206.443 405.116, 216.007 403.399, 221.634 400.746, 231.276 398.898, 237.992 396.487, 247.697 394.551, 255.488 392.362, 265.246 390.379, 274.088 388.396, 283.890 386.403, 293.747 384.613, 303.585 382.823, 313.424 382.643, 314.412 382.428, 315.733 380.819, 325.603 379.210, 335.473 379.121, 336.023 377.683, 345.919 376.246, 355.815 375.854, 358.510 374.580, 368.429 373.305, 378.347 372.862, 381.799 371.744, 391.736 370.626, 401.673 370.161, 405.803 369.194, 415.756 368.226, 425.709 367.767, 430.433 366.946, 440.399 366.125, 450.365 365.694, 455.591 365.016, 465.568 364.337, 475.545 363.954, 481.175 363.462, 490.306 362.924, 500.291 362.558, 507.078 362.158, 517.070 361.758, 527.062 361.512, 533.191 361.250, 543.188 360.987, 553.184 360.824, 559.401 360.800, 561.300 360.675, 571.299 360.550, 581.298 360.496, 585.595 360.504, 591.819 360.516, 601.819 360.529, 611.659 360.681, 621.658 360.833, 631.657 360.921, 637.483 361.215, 647.479 361.509, 657.474 361.670, 662.957 361.783, 665.539 362.222, 675.529 362.479, 681.375 362.692, 686.226 362.710, 686.634 362.739, 687.299 362.769, 687.975 363.356, 697.957 363.944, 707.940 364.176, 711.876 364.209, 712.435 364.951, 722.408 365.693, 732.380 365.980, 736.243 366.883, 746.202 367.786, 756.162 368.071, 759.309 369.142, 769.251 370.213, 779.194 370.467, 781.550 371.715, 791.471 372.964, 801.393 373.152, 802.891 374.589, 812.787 376.026, 822.684 376.111, 823.266 377.750, 833.131 379.325, 842.615 380.491, 848.789 382.347, 858.615 382.776, 860.889 384.867, 870.668 386.445, 878.045 388.794, 887.765 390.312, 894.050 392.944, 903.697 394.357, 908.877 397.303, 918.433 398.560, 922.510 401.859, 931.950 402.902, 934.937 406.598, 944.229 407.364, 946.155 411.510, 955.254 411.926, 956.166 416.570, 964.980 421.279, 972.610 426.036, 979.075 430.825, 984.398 435.631, 988.605 440.439, 991.727 445.237, 993.795 450.011, 994.844 454.834, 995.227 459.515, 995.288 464.152, 994.403 468.736, 992.608 473.257, 989.944 477.709, 986.449 482.084, 982.162 486.375, 977.120 490.578, 971.362 494.687, 964.926 498.698, 957.846 502.608, 950.159 506.412, 941.899 510.109, 933.099 513.696, 923.791 517.042, 914.368 517.171, 914.007 520.291, 904.506 520.532, 903.775 523.447, 894.209 523.778, 893.123 526.505, 883.503 526.908, 882.080 529.462, 872.412 529.922, 870.671 532.315, 860.962 532.818, 858.921 535.062, 849.176 535.597, 846.853 537.701, 837.077 538.258, 834.489 540.231, 824.686 540.801, 821.852 541.275, 819.336 " fill="none" stroke="rgb(0, 0, 0)" stroke-linecap="butt" stroke-linejoin="round" stroke-opacity="1.0" stroke-width="3.0" />
            <path d=" M 554.925, 730.518 555.319, 727.306 556.446, 717.370 556.927, 713.132 557.966, 703.186 558.420, 698.834 559.372, 688.879 559.798, 684.427 560.665, 674.465 561.061, 669.924 561.846, 659.955 562.209, 655.336 562.913, 645.361 563.244, 640.676 563.868, 630.696 564.164, 625.955 564.709, 615.970 564.970, 611.185 565.437, 601.195 565.663, 596.375 566.052, 586.383 566.241, 581.538 566.554, 571.543 566.706, 566.683 566.942, 556.686 567.057, 551.821 567.216, 541.823 567.293, 536.963 567.376, 526.964 567.415, 522.119 567.416, 520.530 " fill="none" stroke="rgb(0, 0, 0)" stroke-linecap="butt" stroke-linejoin="round" stroke-opacity="1.0" stroke-width="3.0" />
            <path d=" M 476.752, 115.304 472.054, 115.728 467.284, 117.142 462.451, 119.582 457.566, 123.082 452.642, 127.674 447.691, 133.385 442.727, 140.242 437.766, 148.265 433.035, 157.076 432.822, 157.473 428.556, 166.517 427.914, 167.878 424.056, 177.104 423.059, 179.487 419.561, 188.856 418.275, 192.301 417.714, 193.977 414.539, 203.459 413.583, 206.315 410.697, 215.890 409.001, 221.517 406.377, 231.166 404.550, 237.885 402.166, 247.597 400.390, 254.833 400.252, 255.394 398.088, 265.157 397.260, 268.892 396.126, 274.007 394.166, 283.813 392.193, 293.679 390.424, 303.522 388.654, 313.364 388.475, 314.360 388.460, 314.451 386.869, 324.324 385.278, 334.196 384.989, 335.987 383.567, 345.885 382.145, 355.784 381.756, 358.492 380.496, 368.412 379.235, 378.333 378.794, 381.798 378.195, 387.182 377.089, 397.121 376.120, 405.822 375.162, 415.776 374.205, 425.730 373.749, 430.471 372.936, 440.438 372.122, 450.404 371.694, 455.649 371.022, 465.626 370.342, 475.722 369.969, 481.253 369.435, 491.239 368.901, 501.224 368.583, 507.177 368.185, 517.169 367.788, 527.161 367.543, 533.310 367.281, 543.307 367.020, 553.303 366.856, 559.541 366.730, 569.540 366.604, 579.539 366.525, 585.755 366.535, 595.755 366.545, 605.755 366.551, 611.841 366.698, 621.839 366.846, 631.838 366.932, 637.684 367.220, 647.680 367.507, 657.676 367.665, 663.178 368.096, 673.168 368.526, 683.159 368.744, 688.214 369.321, 698.198 369.899, 708.181 370.160, 712.693 370.890, 722.666 371.620, 732.640 371.904, 736.518 372.792, 746.479 373.681, 756.439 373.963, 759.600 375.018, 769.544 376.073, 779.489 376.324, 781.856 377.554, 791.780 378.784, 801.704 378.971, 803.212 380.388, 813.111 381.804, 823.010 381.889, 823.600 383.504, 833.468 385.059, 842.961 386.103, 848.571 387.756, 857.452 388.463, 861.245 390.526, 871.030 392.082, 878.411 393.841, 885.794 394.965, 890.511 395.897, 894.423 398.496, 904.080 399.889, 909.258 402.048, 916.357 404.037, 922.896 407.296, 932.350 408.323, 935.328 411.976, 944.637 412.726, 946.549 414.673, 950.877 417.230, 956.563 421.815, 965.378 426.464, 973.008 431.160, 979.473 435.888, 984.794 440.633, 989.000 445.381, 992.118 450.119, 994.183 454.834, 995.227 " fill="none" stroke="rgb(0, 0, 0)" stroke-linecap="butt" stroke-linejoin="round" stroke-opacity="1.0" stroke-width="3.0" />
            <path d=" M 479.792, 513.847 479.715, 514.382 479.555, 515.885 479.440, 517.454 479.372, 519.061 479.351, 520.679 479.379, 522.279 480.785, 522.305 " fill="none" stroke="rgb(0, 0, 0)" stroke-linecap="butt" stroke-linejoin="round" stroke-opacity="1.0" stroke-width="3.0" />
            <path d=" M 565.302, 523.833 565.289, 522.215 565.313, 520.580 565.316, 520.493 565.373, 518.955 565.429, 518.033 565.469, 517.369 565.599, 515.848 565.759, 514.419 565.949, 513.107 566.163, 511.933 566.262, 511.510 566.399, 510.918 566.653, 510.078 566.920, 509.427 567.195, 508.976 567.422, 508.777 567.474, 508.731 567.753, 508.697 " fill="none" stroke="rgb(0, 0, 0)" stroke-linecap="butt" stroke-linejoin="round" stroke-opacity="1.0" stroke-width="3.0" />
            <path d=" M 567.992, 520.540 567.975, 520.047 567.944, 519.584 567.900, 519.166 567.844, 518.802 567.777, 518.504 567.701, 518.278 567.619, 518.132 567.533, 518.069 " fill="none" stroke="rgb(0, 0, 0)" stroke-linecap="butt" stroke-linejoin="round" stroke-opacity="1.0" stroke-width="3.0" />
            <path d=" M 530.294, 471.552 530.432, 477.152 530.737, 477.156 536.010, 477.220 536.217, 477.024 535.938, 471.559 530.547, 471.321 530.434, 471.424 530.294, 471.552 " fill="none" stroke="rgb(0, 0, 0)" stroke-linecap="butt" stroke-linejoin="round" stroke-opacity="1.0" stroke-width="3.0" />
            <path d=" M 535.877, 471.616 530.294, 471.552 " fill="none" stroke="rgb(0, 0, 0)" stroke-linecap="butt" stroke-linejoin="round" stroke-opacity="1.0" stroke-width="3.0" />
            <path d=" M 536.010, 477.220 535.877, 471.616 535.938, 471.559 " fill="none" stroke="rgb(0, 0, 0)" stroke-linecap="butt" stroke-linejoin="round" stroke-opacity="1.0" stroke-width="3.0" />
            <path d=" M 532.089, 473.987 532.031, 474.196 532.015, 474.413 532.044, 474.641 532.118, 474.852 532.137, 474.888 532.247, 475.074 532.390, 475.232 532.562, 475.358 532.596, 475.378 532.779, 475.462 532.818, 475.474 532.996, 475.511 533.022, 475.516 533.055, 475.521 533.094, 475.523 533.137, 475.525 533.179, 475.525 533.221, 475.523 533.262, 475.520 533.299, 475.515 533.332, 475.510 533.360, 475.503 533.533, 475.458 533.574, 475.444 533.641, 475.411 533.751, 475.352 533.779, 475.336 " fill="none" stroke="rgb(0, 0, 0)" stroke-linecap="butt" stroke-linejoin="round" stroke-opacity="1.0" stroke-width="3.0" />
            <path d=" M 532.199, 473.769 532.187, 473.793 532.121, 473.923 532.120, 473.925 532.089, 473.987 532.126, 473.909 " fill="none" stroke="rgb(0, 0, 0)" stroke-linecap="butt" stroke-linejoin="round" stroke-opacity="1.0" stroke-width="3.0" />
            <path d=" M 533.779, 475.336 533.904, 475.242 534.014, 475.130 534.106, 475.003 534.179, 474.864 534.231, 474.714 534.261, 474.559 534.269, 474.399 534.253, 474.240 534.216, 474.083 534.157, 473.933 534.077, 473.791 533.978, 473.662 533.863, 473.548 533.733, 473.451 533.591, 473.372 533.441, 473.315 533.284, 473.279 533.125, 473.266 532.967, 473.275 532.812, 473.307 532.664, 473.361 532.526, 473.436 532.401, 473.531 532.291, 473.643 532.199, 473.769 532.126, 473.909 " fill="none" stroke="rgb(0, 0, 0)" stroke-linecap="butt" stroke-linejoin="round" stroke-opacity="1.0" stroke-width="3.0" />
            <path d=" M 625.429, 870.878 627.605, 871.358 635.517, 872.992 643.427, 873.882 651.316, 874.044 659.169, 873.495 666.969, 872.256 674.702, 870.346 682.355, 867.785 689.913, 864.594 697.366, 860.796 704.702, 856.412 711.910, 851.464 718.980, 845.973 725.904, 839.962 732.674, 833.453 739.280, 826.466 745.718, 819.025 751.979, 811.149 757.893, 803.086 758.059, 802.860 763.674, 794.586 763.951, 794.178 769.279, 785.715 769.651, 785.123 774.701, 776.491 775.155, 775.715 779.935, 766.932 780.457, 765.973 784.979, 757.053 785.556, 755.916 789.826, 746.873 790.446, 745.562 794.473, 736.409 795.125, 734.929 798.917, 725.676 799.590, 724.035 803.154, 714.692 803.839, 712.897 807.180, 703.472 807.868, 701.532 810.994, 692.033 811.677, 689.956 814.592, 680.390 815.263, 678.185 817.971, 668.558 818.625, 666.234 821.130, 656.553 821.760, 654.120 824.066, 644.390 824.666, 641.858 826.778, 632.083 827.344, 629.461 829.262, 619.647 829.791, 616.945 831.519, 607.095 832.005, 604.324 833.545, 594.443 833.986, 591.612 835.340, 581.704 835.733, 578.823 836.901, 568.891 837.244, 565.971 838.227, 556.020 838.519, 553.070 839.318, 543.102 839.556, 540.134 840.170, 530.153 840.354, 527.176 840.784, 517.186 840.912, 514.211 841.157, 504.214 841.229, 501.251 841.288, 491.251 841.305, 488.311 841.176, 478.312 841.139, 475.405 840.820, 465.410 840.728, 462.546 840.217, 452.559 840.074, 449.750 839.368, 439.775 839.174, 437.030 838.270, 427.071 838.028, 424.401 836.923, 414.463 836.635, 411.879 835.324, 401.965 834.995, 399.478 833.474, 389.595 833.107, 387.215 831.370, 377.367 830.971, 375.104 829.012, 365.298 828.586, 363.162 826.399, 353.404 825.952, 351.407 823.530, 341.705 823.069, 339.855 820.404, 330.217 819.936, 328.524 817.021, 318.958 816.555, 317.431 813.379, 307.949 812.926, 306.595 809.479, 297.208 809.048, 296.036 805.320, 286.757 804.925, 285.773 800.904, 276.617 800.556, 275.825 796.230, 266.809 795.944, 266.213 791.299, 257.357 791.090, 256.958 786.113, 248.284 785.997, 248.082 780.668, 239.605 775.106, 231.552 769.316, 223.943 763.302, 216.803 757.068, 210.153 750.622, 204.019 743.970, 198.423 737.118, 193.390 730.076, 188.942 722.851, 185.103 715.456, 181.898 707.899, 179.347 700.193, 177.475 692.352, 176.302 684.389, 175.850 676.318, 176.138 674.088, 176.340 " fill="none" stroke="rgb(0, 0, 0)" stroke-linecap="butt" stroke-linejoin="round" stroke-opacity="1.0" stroke-width="3.0" />
            <path d=" M 627.605, 871.358 627.296, 871.264 619.709, 868.962 611.847, 865.792 604.040, 861.835 596.309, 857.081 588.675, 851.522 581.161, 845.153 573.999, 838.174 573.789, 837.969 567.095, 830.541 566.582, 829.972 560.352, 822.151 559.566, 821.164 553.789, 813.002 552.762, 811.551 547.427, 803.093 546.197, 801.143 544.981, 798.985 542.737, 795.000 541.287, 792.427 539.893, 789.953 536.875, 783.956 535.423, 781.070 533.876, 777.997 531.201, 772.044 528.169, 765.296 528.024, 764.933 527.573, 763.808 523.856, 754.524 522.795, 751.875 519.445, 742.452 517.777, 737.761 517.710, 737.546 514.714, 728.005 513.138, 722.988 511.648, 717.579 508.992, 707.938 508.897, 707.590 506.570, 697.865 505.074, 691.609 503.066, 681.813 501.688, 675.088 499.990, 665.233 498.756, 658.073 497.358, 648.171 496.291, 640.615 495.187, 630.676 494.309, 622.768 493.491, 612.802 492.818, 604.588 492.283, 594.602 491.829, 586.133 491.571, 576.137 491.348, 567.464 491.364, 557.464 491.378, 548.643 491.666, 538.648 491.923, 529.734 492.480, 519.750 492.511, 519.207 492.980, 510.800 493.022, 510.301 493.223, 507.881 494.049, 497.915 494.548, 491.907 495.644, 481.967 496.620, 473.118 497.986, 463.212 499.189, 454.497 500.827, 444.632 502.243, 436.107 504.157, 426.292 505.772, 418.008 507.964, 408.251 509.759, 400.261 512.234, 390.572 513.214, 386.734 514.189, 382.921 516.952, 373.310 519.042, 366.043 522.100, 356.522 524.299, 349.678 527.259, 341.383 529.938, 333.874 533.608, 324.572 535.935, 318.675 539.417, 310.672 540.278, 308.695 540.834, 307.416 542.268, 304.122 546.587, 295.102 547.168, 293.889 547.695, 292.789 547.828, 292.511 548.433, 291.248 548.541, 291.022 548.594, 290.912 548.910, 290.251 551.699, 284.955 555.837, 277.095 560.847, 268.441 560.917, 268.321 563.022, 264.684 568.395, 256.250 570.439, 253.041 571.233, 251.911 571.305, 251.808 571.317, 251.790 577.064, 243.606 578.060, 242.188 584.193, 234.289 585.860, 232.141 592.389, 224.566 593.812, 222.914 600.745, 215.707 601.891, 214.516 609.232, 207.726 610.070, 206.951 617.822, 200.634 618.325, 200.224 626.481, 194.438 626.631, 194.332 634.966, 189.272 643.307, 185.038 651.633, 181.620 659.923, 179.006 668.157, 177.184 674.989, 176.308 676.318, 176.138 " fill="none" stroke="rgb(0, 0, 0)" stroke-linecap="butt" stroke-linejoin="round" stroke-opacity="1.0" stroke-width="3.0" />
            <path d=" M 674.088, 176.340 665.916, 177.388 657.671, 179.210 649.370, 181.822 641.034, 185.239 632.683, 189.470 624.338, 194.526 616.176, 200.304 616.022, 200.413 608.264, 206.724 607.758, 207.135 600.410, 213.918 599.570, 214.693 592.631, 221.893 591.484, 223.084 584.948, 230.653 583.523, 232.303 577.384, 240.196 575.716, 242.339 569.962, 250.518 569.145, 251.678 568.879, 252.056 568.878, 252.058 568.087, 253.182 562.707, 261.611 560.664, 264.812 555.647, 273.463 553.473, 277.211 551.169, 281.579 548.029, 287.531 547.599, 288.347 546.836, 289.794 546.566, 290.306 546.541, 290.353 545.163, 293.225 540.837, 302.241 540.159, 303.655 539.893, 304.209 538.746, 306.840 537.805, 308.999 533.809, 318.166 533.556, 318.746 529.880, 328.046 528.465, 331.623 527.554, 333.928 527.308, 334.618 526.430, 337.075 523.064, 346.492 521.912, 349.715 518.849, 359.234 516.652, 366.061 513.884, 375.671 511.796, 382.920 509.318, 392.608 507.365, 400.240 505.170, 409.996 503.376, 417.967 501.460, 427.782 499.847, 436.045 498.916, 441.642 497.276, 451.507 496.792, 454.414 495.425, 464.320 494.224, 473.014 493.548, 479.137 492.452, 489.076 492.153, 491.781 491.326, 501.747 491.182, 503.475 490.852, 507.455 490.619, 510.261 490.587, 510.653 490.248, 516.729 490.112, 519.165 489.944, 522.177 489.531, 529.565 489.244, 539.561 488.989, 548.453 488.975, 558.453 488.962, 567.252 489.221, 577.249 489.446, 585.900 489.984, 595.886 490.440, 604.334 491.260, 614.301 491.934, 622.494 493.043, 632.433 493.922, 640.322 495.324, 650.223 496.392, 657.761 498.095, 667.615 499.330, 674.758 501.343, 684.553 502.722, 691.262 503.549, 694.710 505.882, 704.435 506.551, 707.227 509.213, 716.866 510.799, 722.609 510.859, 722.797 513.862, 732.335 515.284, 736.852 515.447, 737.368 518.804, 746.788 520.472, 751.468 524.197, 760.749 525.854, 764.878 527.444, 768.406 530.612, 775.440 531.570, 777.567 534.881, 784.131 536.323, 786.991 537.596, 789.513 540.795, 795.181 542.248, 797.754 543.908, 800.695 544.512, 801.650 549.856, 810.103 550.483, 811.095 556.268, 819.252 557.296, 820.701 563.534, 828.516 564.322, 829.503 571.024, 836.926 571.539, 837.496 578.707, 844.468 578.921, 844.675 586.446, 851.042 594.090, 856.600 601.832, 861.353 609.649, 865.310 617.522, 868.481 625.429, 870.878 " fill="none" stroke="rgb(0, 0, 0)" stroke-linecap="butt" stroke-linejoin="round" stroke-opacity="1.0" stroke-width="3.0" />
            <path d=" M 787.158, 564.118 777.170, 563.639 776.397, 563.602 772.114, 560.692 763.843, 555.072 755.572, 549.451 753.545, 548.074 752.881, 547.622 752.215, 547.169 751.548, 546.716 750.882, 546.262 750.114, 545.599 749.406, 544.699 748.771, 543.580 748.225, 542.263 747.778, 540.773 747.438, 539.138 747.211, 537.390 747.103, 535.561 747.116, 533.688 747.134, 533.433 747.148, 533.223 747.248, 531.807 747.499, 529.954 747.538, 529.759 747.862, 528.165 748.331, 526.475 748.794, 525.199 748.824, 525.117 748.897, 524.916 749.548, 523.518 750.271, 522.307 751.054, 521.308 751.282, 521.095 751.333, 521.047 751.880, 520.537 752.732, 520.010 753.454, 519.673 754.176, 519.336 754.898, 519.000 755.617, 518.664 755.979, 518.496 765.046, 514.277 774.112, 510.058 780.393, 507.135 " fill="none" stroke="rgb(0, 0, 0)" stroke-linecap="butt" stroke-linejoin="round" stroke-opacity="1.0" stroke-width="3.0" />
            <path d=" M 683.330, 250.680 679.654, 250.859 674.944, 251.088 674.644, 251.132 666.485, 252.332 657.977, 254.419 656.088, 255.067 649.446, 257.343 640.917, 261.105 632.420, 265.724 623.989, 271.218 616.047, 277.294 615.657, 277.592 608.166, 284.216 607.458, 284.841 600.419, 291.945 599.423, 292.950 592.828, 300.468 591.579, 301.891 585.416, 309.766 583.954, 311.633 578.218, 319.824 576.582, 322.160 571.273, 330.634 569.503, 333.459 564.615, 342.183 562.754, 345.505 562.698, 345.617 562.230, 346.552 559.956, 351.096 558.911, 353.185 557.194, 356.616 556.887, 357.230 556.370, 358.261 555.661, 359.852 552.618, 366.668 551.105, 370.060 550.380, 371.682 549.965, 372.728 548.457, 376.527 544.808, 385.715 542.412, 392.513 540.913, 396.767 539.669, 400.297 537.005, 408.873 534.985, 415.374 532.376, 425.028 530.789, 430.898 528.537, 440.641 528.452, 441.007 527.110, 446.811 525.213, 456.630 523.971, 463.051 522.424, 472.931 521.387, 479.549 520.183, 489.476 519.364, 496.233 518.502, 506.132 518.354, 507.835 518.250, 509.034 517.902, 513.032 517.365, 523.017 516.992, 529.957 516.990, 530.045 516.767, 540.042 516.616, 546.851 516.709, 556.851 516.773, 563.643 517.187, 573.634 517.461, 580.260 518.201, 590.233 518.676, 596.633 519.748, 606.575 520.407, 612.694 521.410, 619.729 522.643, 628.378 523.198, 631.477 524.959, 641.321 525.371, 643.623 527.492, 653.396 528.573, 658.370 529.506, 661.992 532.000, 671.676 532.230, 672.566 535.112, 682.142 536.321, 686.160 538.034, 691.085 538.199, 691.558 538.615, 692.755 539.643, 695.707 540.824, 699.104 541.173, 699.977 544.880, 709.265 545.508, 710.839 545.715, 711.358 546.900, 713.959 547.010, 714.201 548.361, 717.167 550.966, 722.887 551.304, 723.536 551.973, 724.828 552.798, 726.417 554.925, 730.518 556.553, 733.657 561.637, 742.268 562.448, 743.641 568.030, 751.938 568.622, 752.818 574.718, 760.745 575.046, 761.171 581.693, 768.684 588.534, 775.349 595.541, 781.163 602.685, 786.125 609.941, 790.234 617.282, 793.500 617.392, 793.536 624.682, 795.931 632.116, 797.540 639.561, 798.338 646.994, 798.344 654.394, 797.578 661.739, 796.058 669.012, 793.806 676.194, 790.847 683.267, 787.203 690.216, 782.900 697.026, 777.962 703.683, 772.418 710.174, 766.292 716.487, 759.610 722.611, 752.401 728.537, 744.690 734.254, 736.504 739.627, 728.069 739.755, 727.868 744.788, 719.227 745.031, 718.810 749.738, 709.987 750.076, 709.355 754.469, 700.372 754.882, 699.529 758.973, 690.404 759.443, 689.356 763.244, 680.106 763.756, 678.861 767.275, 669.501 767.813, 668.070 771.060, 658.612 771.611, 657.005 774.593, 647.460 775.146, 645.691 777.871, 636.070 778.414, 634.152 780.887, 624.463 781.411, 622.410 783.638, 612.661 784.135, 610.487 786.120, 600.686 786.582, 598.407 788.330, 588.561 788.751, 586.192 790.264, 576.307 790.638, 573.864 791.919, 563.946 792.242, 561.444 793.292, 551.499 793.560, 548.955 794.381, 538.989 794.593, 536.419 " fill="none" stroke="rgb(0, 0, 0)" stroke-linecap="butt" stroke-linejoin="round" stroke-opacity="1.0" stroke-width="3.0" />
            <path d=" M 780.393, 507.135 790.361, 507.929 791.128, 507.990 " fill="none" stroke="rgb(0, 0, 0)" stroke-linecap="butt" stroke-linejoin="round" stroke-opacity="1.0" stroke-width="3.0" />
            <path d=" M 825.116, 523.201 825.436, 513.206 825.445, 512.925 825.506, 502.925 825.522, 500.247 825.318, 490.249 825.264, 487.610 824.791, 477.621 824.669, 475.038 823.926, 465.065 823.739, 462.553 822.727, 452.605 822.480, 450.177 822.356, 449.222 821.075, 439.304 820.897, 437.930 819.339, 428.052 818.989, 425.834 817.141, 416.006 816.748, 413.919 814.600, 404.152 814.173, 402.213 811.713, 392.521 811.262, 390.745 808.483, 381.139 808.020, 379.539 804.915, 370.033 804.452, 368.617 801.017, 359.225 800.567, 357.996 796.794, 348.735 796.371, 347.698 792.240, 338.591 791.862, 337.757 787.354, 328.831 787.041, 328.210 782.139, 319.494 781.910, 319.088 776.599, 310.615 776.477, 310.421 770.752, 302.231 764.745, 294.536 758.468, 287.353 751.930, 280.716 745.137, 274.668 738.099, 269.242 730.830, 264.472 723.347, 260.378 719.631, 258.733 715.666, 256.978 707.805, 254.279 699.783, 252.304 691.617, 251.094 683.330, 250.680 " fill="none" stroke="rgb(0, 0, 0)" stroke-linecap="butt" stroke-linejoin="round" stroke-opacity="1.0" stroke-width="3.0" />
            <path d=" M 656.088, 255.067 661.398, 257.363 667.617, 260.808 673.658, 264.929 679.509, 269.710 685.158, 275.126 690.594, 281.146 695.810, 287.735 700.801, 294.850 705.563, 302.458 710.087, 310.541 714.364, 319.081 718.388, 328.057 722.113, 337.337 722.154, 337.439 725.536, 346.850 725.661, 347.196 728.723, 356.716 728.909, 357.294 731.672, 366.904 731.900, 367.698 734.376, 377.386 734.632, 378.388 736.826, 388.144 737.097, 389.347 739.018, 399.161 739.291, 400.556 740.948, 410.417 741.212, 411.989 742.616, 421.890 742.862, 423.621 744.024, 433.554 744.243, 435.426 745.174, 445.382 745.360, 447.374 746.069, 457.349 746.218, 459.444 746.703, 469.432 746.809, 471.617 747.073, 481.614 747.133, 483.875 747.176, 493.875 747.186, 496.196 747.012, 506.194 746.971, 508.557 746.729, 514.803 746.532, 516.004 746.282, 517.169 745.979, 518.288 745.627, 519.347 745.230, 520.337 744.791, 521.246 744.315, 522.065 743.807, 522.784 743.273, 523.398 742.717, 523.899 742.146, 524.281 741.764, 524.453 " fill="none" stroke="rgb(0, 0, 0)" stroke-linecap="butt" stroke-linejoin="round" stroke-opacity="1.0" stroke-width="3.0" />
            <path d=" M 719.073, 531.031 719.071, 531.091 729.037, 531.921 739.002, 532.751 745.753, 533.314 747.134, 533.433 " fill="none" stroke="rgb(0, 0, 0)" stroke-linecap="butt" stroke-linejoin="round" stroke-opacity="1.0" stroke-width="3.0" />
            <path d=" M 803.224, 536.509 813.224, 537.363 822.359, 538.142 824.301, 538.308 824.308, 538.308 830.377, 538.809 " fill="none" stroke="rgb(0, 0, 0)" stroke-linecap="butt" stroke-linejoin="round" stroke-opacity="1.0" stroke-width="3.0" />
            <path d=" M 799.961, 536.872 800.919, 536.933 810.899, 537.569 812.662, 537.681 814.590, 537.804 822.349, 538.298 824.294, 538.422 830.377, 538.809 830.955, 528.826 831.146, 525.534 831.467, 515.539 831.573, 512.253 831.636, 502.253 831.657, 498.988 831.461, 488.990 831.398, 485.763 830.938, 475.773 830.793, 472.602 830.068, 462.628 829.842, 459.527 828.847, 449.577 828.546, 446.564 827.276, 436.645 826.904, 433.735 825.353, 423.856 824.915, 421.067 823.077, 411.237 822.580, 408.582 820.448, 398.812 819.902, 396.308 817.466, 386.609 816.878, 384.269 814.131, 374.654 813.572, 372.696 813.513, 372.492 810.444, 362.975 809.809, 361.003 806.573, 352.059 805.767, 349.830 802.019, 340.558 801.390, 339.000 797.285, 329.881 796.682, 328.541 792.208, 319.597 791.649, 318.481 786.790, 309.740 786.295, 308.850 781.037, 300.343 780.625, 299.677 779.601, 298.189 774.647, 290.991 773.412, 289.384 768.369, 282.822 761.799, 275.201 754.947, 268.158 747.824, 261.722 740.442, 255.923 732.815, 250.793 724.956, 246.359 716.884, 242.648 708.614, 239.692 700.166, 237.515 691.561, 236.142 682.821, 235.596 672.822, 235.686 664.920, 235.757 " fill="none" stroke="rgb(0, 0, 0)" stroke-linecap="butt" stroke-linejoin="round" stroke-opacity="1.0" stroke-width="3.0" />
            <path d=" M 682.821, 235.596 673.970, 235.901 671.392, 236.240 665.032, 237.076 660.457, 238.123 656.035, 239.135 647.007, 242.095 637.977, 245.969 629.151, 250.669 628.977, 250.761 620.552, 256.148 620.039, 256.477 612.042, 262.481 611.196, 263.116 603.643, 269.670 602.483, 270.676 595.379, 277.714 593.934, 279.146 587.279, 286.611 585.584, 288.512 579.376, 296.352 577.471, 298.759 571.701, 306.926 569.629, 309.860 564.288, 318.314 562.095, 321.787 558.810, 327.596 558.250, 328.587 557.674, 329.605 554.902, 334.506 554.773, 334.762 553.250, 337.773 548.736, 346.697 548.088, 347.979 547.278, 349.773 545.765, 353.123 541.683, 362.161 537.955, 371.440 535.720, 377.002 533.847, 382.270 530.497, 391.692 530.229, 392.448 527.250, 401.994 525.239, 408.441 522.623, 418.093 520.774, 424.917 518.516, 434.659 516.857, 441.812 514.952, 451.628 513.511, 459.054 511.955, 468.932 510.751, 476.572 509.541, 486.499 508.590, 494.291 507.725, 504.254 507.363, 508.427 507.041, 512.136 " fill="none" stroke="rgb(0, 0, 0)" stroke-linecap="butt" stroke-linejoin="round" stroke-opacity="1.0" stroke-width="3.0" />
            <path d=" M 809.564, 528.415 809.701, 528.355 810.207, 528.025 810.704, 527.594 811.187, 527.066 811.652, 526.446 812.096, 525.740 812.515, 524.954 812.907, 524.093 813.268, 523.164 813.558, 522.288 813.595, 522.174 813.886, 521.131 814.138, 520.042 823.234, 522.659 825.116, 523.201 824.912, 523.846 824.554, 524.780 824.165, 525.645 823.749, 526.436 823.309, 527.146 823.004, 527.558 822.848, 527.769 822.369, 528.300 821.877, 528.733 821.375, 529.065 820.868, 529.292 820.358, 529.410 819.852, 529.418 815.136, 528.958 813.729, 528.821 813.211, 528.770 809.564, 528.415 807.374, 528.201 806.946, 526.831 806.426, 525.620 805.824, 524.587 805.149, 523.750 804.412, 523.123 803.625, 522.718 802.802, 522.542 798.831, 522.310 798.370, 522.283 790.931, 521.847 790.697, 521.862 790.078, 521.903 789.217, 522.189 788.398, 522.705 787.753, 523.329 787.637, 523.442 786.914, 524.386 786.239, 525.521 785.625, 526.830 785.081, 528.289 784.619, 529.873 784.245, 531.556 783.967, 533.309 783.788, 535.101 788.358, 535.490 789.547, 535.566 789.937, 535.591 791.377, 535.684 799.891, 536.232 800.236, 536.254 800.297, 535.685 800.397, 535.135 800.533, 534.620 800.573, 534.510 800.702, 534.152 800.900, 533.746 801.120, 533.412 801.356, 533.159 801.603, 532.994 801.853, 532.922 " fill="none" stroke="rgb(0, 0, 0)" stroke-linecap="butt" stroke-linejoin="round" stroke-opacity="1.0" stroke-width="3.0" />
            <path d=" M 772.114, 560.692 770.812, 570.607 770.602, 572.205 769.058, 582.085 768.696, 584.403 766.908, 594.242 766.501, 596.488 764.468, 606.279 764.020, 608.437 761.738, 618.173 761.256, 620.228 758.720, 629.901 758.212, 631.838 755.418, 641.440 754.892, 643.245 751.833, 652.766 751.299, 654.427 747.970, 663.856 747.439, 665.359 743.830, 674.685 743.314, 676.018 739.418, 685.228 738.930, 686.381 734.738, 695.460 734.293, 696.423 729.794, 705.354 729.408, 706.121 724.591, 714.884 724.282, 715.447 719.136, 724.022 718.921, 724.379 713.434, 732.739 713.334, 732.891 707.529, 740.957 701.514, 748.550 695.299, 755.646 688.895, 762.219 682.313, 768.241 675.565, 773.687 668.665, 778.532 661.627, 782.749 654.465, 786.314 647.197, 789.202 639.839, 791.392 632.410, 792.858 624.930, 793.580 617.419, 793.539 617.392, 793.536 " fill="none" stroke="rgb(0, 0, 0)" stroke-linecap="butt" stroke-linejoin="round" stroke-opacity="1.0" stroke-width="3.0" />
            <path d=" M 789.937, 535.591 789.906, 536.121 789.084, 546.087 788.875, 548.628 787.773, 558.567 787.158, 564.118 778.922, 558.447 777.113, 557.202 772.822, 554.247 765.036, 548.887 764.378, 548.433 763.719, 547.978 763.058, 547.523 762.398, 547.068 761.638, 546.402 760.937, 545.499 760.309, 544.375 759.769, 543.052 759.327, 541.555 758.992, 539.913 758.769, 538.156 758.703, 537.010 758.664, 536.319 758.678, 534.437 758.691, 534.246 758.811, 532.546 759.061, 530.684 759.151, 530.241 759.423, 528.886 759.890, 527.187 760.452, 525.620 761.099, 524.214 761.817, 522.998 762.594, 521.993 763.413, 521.218 764.258, 520.688 764.974, 520.348 765.691, 520.009 766.406, 519.671 767.120, 519.333 767.479, 519.163 776.520, 514.892 780.220, 513.144 789.262, 508.872 791.128, 507.990 790.832, 517.986 790.788, 519.499 790.697, 521.862 " fill="none" stroke="rgb(0, 0, 0)" stroke-linecap="butt" stroke-linejoin="round" stroke-opacity="1.0" stroke-width="3.0" />
            <path d=" M 504.446, 493.495 505.825, 503.400 506.518, 508.380 507.041, 512.136 506.506, 522.121 506.077, 530.127 505.859, 540.125 505.686, 548.085 505.788, 558.085 505.867, 565.932 506.292, 575.923 506.618, 583.589 507.371, 593.560 507.932, 600.981 509.020, 610.922 509.799, 618.036 511.230, 627.933 512.206, 634.683 513.990, 644.523 515.138, 650.856 517.286, 660.623 518.022, 663.973 518.577, 666.492 521.101, 676.168 522.500, 681.532 525.416, 691.098 526.886, 695.924 530.210, 705.355 531.711, 709.616 534.979, 717.698 536.947, 722.567 538.224, 725.333 542.416, 734.413 542.547, 734.697 542.566, 734.738 544.066, 737.589 548.446, 745.917 548.539, 746.095 549.964, 748.474 552.164, 752.146 554.837, 756.608 560.479, 764.865 561.430, 766.257 567.590, 774.134 568.285, 775.023 574.977, 782.453 575.373, 782.892 582.664, 789.856 590.125, 795.912 597.729, 801.060 605.446, 805.302 613.247, 808.647 621.106, 811.107 628.996, 812.696 636.891, 813.427 644.769, 813.321 652.606, 812.401 660.380, 810.688 668.071, 808.203 675.660, 804.977 683.130, 801.034 690.463, 796.399 697.644, 791.103 704.659, 785.173 711.495, 778.638 718.138, 771.526 724.579, 763.865 730.637, 755.909 730.807, 755.686 736.501, 747.465 736.812, 747.015 742.155, 738.562 742.586, 737.880 747.592, 729.223 748.121, 728.310 752.804, 719.474 753.409, 718.332 757.781, 709.338 758.445, 707.972 762.517, 698.839 763.223, 697.257 767.006, 688.000 767.736, 686.213 771.240, 676.847 771.981, 674.866 775.214, 665.403 775.953, 663.240 778.923, 653.691 779.648, 651.360 782.362, 641.735 783.063, 639.250 785.527, 629.558 786.195, 626.934 788.414, 617.183 789.039, 614.435 791.018, 604.633 791.595, 601.776 793.337, 591.929 793.859, 588.981 795.368, 579.095 795.829, 576.070 797.107, 566.152 797.504, 563.067 798.552, 553.123 798.882, 549.994 799.701, 540.028 799.961, 536.872 794.593, 536.419 799.948, 536.759 809.928, 537.394 813.210, 537.602 812.671, 537.557 802.707, 536.710 800.865, 536.553 799.917, 536.472 791.375, 535.746 791.377, 535.684 " fill="none" stroke="rgb(0, 0, 0)" stroke-linecap="butt" stroke-linejoin="round" stroke-opacity="1.0" stroke-width="3.0" />
            <path d=" M 764.844, 537.414 764.523, 537.389 764.219, 537.216 763.945, 536.902 763.714, 536.461 763.536, 535.913 763.418, 535.282 763.366, 534.595 763.367, 534.543 763.370, 534.434 763.383, 533.882 763.467, 533.176 763.614, 532.505 763.819, 531.901 764.072, 531.390 764.362, 530.994 764.676, 530.730 765.001, 530.609 " fill="none" stroke="rgb(0, 0, 0)" stroke-linecap="butt" stroke-linejoin="round" stroke-opacity="1.0" stroke-width="3.0" />
            <path d=" M 765.001, 530.609 765.321, 530.639 765.625, 530.815 765.897, 531.130 766.127, 531.571 766.304, 532.118 766.421, 532.747 766.473, 533.432 766.456, 534.142 766.386, 534.736 766.373, 534.846 766.226, 535.514 766.022, 536.117 765.771, 536.628 765.482, 537.025 765.168, 537.291 764.844, 537.414 " fill="none" stroke="rgb(0, 0, 0)" stroke-linecap="butt" stroke-linejoin="round" stroke-opacity="1.0" stroke-width="3.0" />
            <path d=" M 498.660, 530.187 498.445, 540.185 498.261, 548.725 498.366, 558.725 498.455, 567.145 498.886, 577.136 499.240, 585.366 500.001, 595.337 500.609, 603.309 501.707, 613.249 502.551, 620.897 503.994, 630.793 505.053, 638.058 506.850, 647.895 508.098, 654.720 510.262, 664.483 511.667, 670.820 514.211, 680.491 515.692, 686.124 515.738, 686.297 518.675, 695.855 520.285, 701.094 523.634, 710.517 525.285, 715.161 529.062, 724.421 530.708, 728.454 532.921, 733.204 536.213, 740.266 536.524, 740.934 540.604, 748.614 542.112, 751.453 542.703, 752.566 546.607, 759.013 548.120, 761.511 549.216, 763.321 550.365, 764.984 556.028, 773.178 562.235, 781.018 563.107, 782.120 569.850, 789.504 570.423, 790.132 577.706, 796.985 577.944, 797.209 585.637, 803.348 593.472, 808.551 601.419, 812.821 609.449, 816.169 617.534, 818.608 625.646, 820.153 633.761, 820.820 641.854, 820.632 649.901, 819.612 657.880, 817.781 665.773, 815.166 673.557, 811.795 681.217, 807.694 688.735, 802.891 696.096, 797.415 703.285, 791.297 710.288, 784.564 717.095, 777.246 723.518, 769.581 723.693, 769.372 729.741, 761.408 730.072, 760.973 735.758, 752.747 736.223, 752.075 741.561, 743.619 742.137, 742.707 747.141, 734.049 747.806, 732.898 752.489, 724.062 753.224, 722.675 757.596, 713.682 758.382, 712.066 762.457, 702.934 763.277, 701.096 767.064, 691.841 767.902, 689.793 771.410, 680.428 772.252, 678.181 775.490, 668.720 776.323, 666.286 779.298, 656.739 780.110, 654.134 782.830, 644.511 783.611, 641.747 786.081, 632.057 786.822, 629.151 789.047, 619.401 789.739, 616.368 791.723, 606.567 792.359, 603.422 794.107, 593.576 794.682, 590.336 796.194, 580.451 796.702, 577.133 797.983, 567.216 798.419, 563.835 799.469, 553.891 799.831, 550.465 800.651, 540.499 800.935, 537.045 800.919, 536.933 " fill="none" stroke="rgb(0, 0, 0)" stroke-linecap="butt" stroke-linejoin="round" stroke-opacity="1.0" stroke-width="3.0" />
            <path d=" M 664.920, 235.757 656.898, 236.015 655.807, 236.166 648.787, 237.140 640.610, 239.149 632.392, 242.059 624.161, 245.883 615.944, 250.628 607.772, 256.299 600.020, 262.616 599.674, 262.898 592.393, 269.753 591.683, 270.421 584.870, 277.742 583.830, 278.860 577.478, 286.584 576.149, 288.201 570.247, 296.274 568.673, 298.427 563.206, 306.801 561.435, 309.514 556.469, 318.011 556.326, 318.256 555.855, 319.061 554.469, 321.432 553.368, 323.536 551.853, 326.428 547.809, 334.148 545.768, 338.498 544.258, 341.714 541.486, 347.623 537.616, 356.843 535.532, 361.810 532.222, 370.657 529.976, 376.659 526.827, 386.150 524.848, 392.116 522.046, 401.716 520.175, 408.122 517.710, 417.814 515.981, 424.613 513.846, 434.382 512.287, 441.521 510.478, 451.356 509.114, 458.776 507.627, 468.665 506.478, 476.305 505.304, 486.236 504.446, 493.495 501.888, 503.163 499.653, 511.614 " fill="none" stroke="rgb(0, 0, 0)" stroke-linecap="butt" stroke-linejoin="round" stroke-opacity="1.0" stroke-width="3.0" />
            <path d=" M 499.653, 511.614 499.590, 512.784 499.057, 522.770 498.660, 530.187 " fill="none" stroke="rgb(0, 0, 0)" stroke-linecap="butt" stroke-linejoin="round" stroke-opacity="1.0" stroke-width="3.0" />
            <path d=" M 813.572, 372.696 813.449, 372.102 811.199, 362.359 810.906, 361.088 808.416, 351.403 808.126, 350.273 805.388, 340.655 805.109, 339.675 802.112, 330.135 801.854, 329.315 798.589, 319.863 798.363, 319.209 794.821, 309.857 794.638, 309.374 790.809, 300.136 790.681, 299.827 786.554, 290.718 786.494, 290.585 782.080, 281.667 777.440, 273.093 772.577, 264.884 767.494, 257.063 762.194, 249.654 756.681, 242.676 750.961, 236.148 745.041, 230.088 738.926, 224.516 732.624, 219.453 726.141, 214.922 719.486, 210.945 712.667, 207.548 705.695, 204.753 698.580, 202.578 691.334, 201.040 683.970, 200.153 676.501, 199.934 668.941, 200.401 668.483, 200.472 661.306, 201.571 653.612, 203.460 645.877, 206.084 638.120, 209.458 630.359, 213.584 622.613, 218.468 614.903, 224.109 607.249, 230.510 599.982, 237.379 599.674, 237.670 594.012, 243.669 592.201, 245.588 589.490, 248.787 589.474, 248.806 588.967, 249.404 588.955, 249.419 584.853, 254.259 584.545, 254.662 578.474, 262.608 577.656, 263.678 571.967, 271.902 570.633, 273.830 565.313, 282.298 563.807, 284.696 558.844, 293.377 558.205, 294.495 557.201, 296.251 554.195, 302.024 552.828, 304.648 552.167, 305.918 551.208, 307.761 550.837, 308.473 549.732, 310.802 545.448, 319.838 544.738, 321.334 543.600, 323.972 542.168, 327.293 538.927, 334.805 535.282, 344.118 533.428, 348.855 530.224, 357.911 528.264, 363.448 525.230, 372.976 523.457, 378.544 520.714, 388.160 519.020, 394.096 516.562, 403.790 514.972, 410.059 512.794, 419.819 511.329, 426.383 509.427, 436.201 508.107, 443.020 506.479, 452.887 505.319, 459.917 503.961, 469.825 502.975, 477.019 501.885, 486.959 501.084, 494.270 500.262, 504.236 499.653, 511.614 499.588, 512.786 499.034, 522.771 498.689, 528.993 498.660, 530.187 498.371, 540.183 498.192, 546.352 498.176, 556.352 498.164, 563.632 498.420, 573.629 498.603, 580.778 499.135, 590.764 499.507, 597.734 500.319, 607.701 500.868, 614.446 501.965, 624.385 502.679, 630.862 504.066, 640.765 504.930, 646.933 506.614, 656.790 507.608, 662.610 509.601, 672.410 510.706, 677.846 513.017, 687.575 514.209, 692.597 514.712, 694.438 517.349, 704.084 518.098, 706.826 521.070, 716.374 522.354, 720.498 525.673, 729.931 526.958, 733.581 530.638, 742.880 531.290, 744.527 531.891, 746.046 534.507, 751.941 537.134, 757.863 538.728, 761.073 540.197, 764.033 542.668, 769.009 544.579, 772.449 546.054, 775.104 548.251, 779.059 548.474, 779.460 553.755, 787.952 554.530, 789.199 560.247, 797.404 560.812, 798.216 566.975, 806.091 567.298, 806.503 573.964, 814.056 580.789, 820.871 587.754, 826.945 594.836, 832.277 602.018, 836.868 609.281, 840.720 616.604, 843.841 623.968, 846.245 629.662, 847.558 631.354, 847.948 638.745, 848.962 646.125, 849.301 653.479, 848.981 660.791, 848.014 668.049, 846.415 675.240, 844.197 682.349, 841.384 689.366, 837.997 696.279, 834.058 703.079, 829.588 709.755, 824.605 716.299, 819.128 722.702, 813.174 728.956, 806.760 735.054, 799.905 740.990, 792.632 746.757, 784.961 752.351, 776.913 757.766, 768.509 762.901, 759.927 762.998, 759.764 767.860, 751.025 768.043, 750.697 772.639, 741.816 772.895, 741.322 777.233, 732.312 777.549, 731.655 781.639, 722.530 782.004, 721.715 785.853, 712.485 786.256, 711.520 789.872, 702.197 790.303, 701.087 793.694, 691.679 794.143, 690.434 797.314, 680.950 797.774, 679.576 800.731, 670.023 801.193, 668.527 803.939, 658.912 804.398, 657.304 806.936, 647.631 807.385, 645.918 809.719, 636.194 810.153, 634.384 812.288, 624.615 812.702, 622.720 814.641, 612.910 815.030, 610.940 816.776, 601.093 817.137, 599.057 818.690, 589.178 819.019, 587.085 820.381, 577.178 820.676, 575.037 821.849, 565.107 822.106, 562.929 823.091, 552.977 823.309, 550.772 824.106, 540.804 824.284, 538.582 824.294, 538.422 " fill="none" stroke="rgb(0, 0, 0)" stroke-linecap="butt" stroke-linejoin="round" stroke-opacity="1.0" stroke-width="3.0" />
            <path d=" M 666.697, 200.582 659.052, 201.752 651.348, 203.640 643.603, 206.263 635.837, 209.635 628.066, 213.759 620.311, 218.638 612.592, 224.275 604.930, 230.670 597.656, 237.532 597.347, 237.824 590.476, 245.089 589.866, 245.734 588.587, 247.240 586.517, 249.679 586.431, 249.780 586.341, 249.885 586.242, 250.003 586.226, 250.021 586.144, 250.118 582.511, 254.397 578.243, 259.972 575.307, 263.807 569.610, 272.026 568.278, 273.949 562.951, 282.412 561.446, 284.802 556.475, 293.480 554.834, 296.346 553.709, 298.503 551.996, 301.784 551.323, 303.075 550.690, 304.288 549.212, 307.122 548.464, 308.555 547.732, 310.096 543.441, 319.128 542.982, 320.095 542.361, 321.402 541.530, 323.325 537.563, 332.504 536.546, 334.859 532.895, 344.168 531.043, 348.892 529.442, 353.408 526.102, 362.833 525.876, 363.469 522.837, 372.996 521.066, 378.548 518.318, 388.163 516.627, 394.083 514.165, 403.775 512.577, 410.027 510.396, 419.786 508.933, 426.333 507.029, 436.150 505.710, 442.951 504.080, 452.817 502.922, 459.828 501.562, 469.736 500.578, 476.910 499.488, 486.851 498.688, 494.141 497.866, 504.108 497.259, 511.465 497.047, 515.286 496.493, 525.271 496.296, 528.825 496.011, 538.821 495.802, 546.164 495.787, 556.164 495.777, 563.425 496.035, 573.422 496.219, 580.552 496.754, 590.537 497.126, 597.488 497.941, 607.455 498.492, 614.182 499.592, 624.121 500.307, 630.580 501.698, 640.483 502.562, 646.634 504.251, 656.490 505.246, 662.295 507.245, 672.093 508.350, 677.515 510.667, 687.243 511.859, 692.251 514.007, 700.089 515.755, 706.466 518.734, 716.012 520.017, 720.124 523.344, 729.555 524.628, 733.195 528.316, 742.490 529.569, 745.648 530.721, 748.237 533.943, 755.483 534.820, 757.455 538.217, 764.281 539.690, 767.240 540.363, 768.591 544.128, 775.354 545.604, 778.004 546.177, 779.034 547.845, 781.711 552.241, 788.765 557.966, 796.964 558.532, 797.775 564.703, 805.644 565.027, 806.057 571.702, 813.605 578.537, 820.416 585.511, 826.487 592.604, 831.818 599.796, 836.408 607.068, 840.259 614.401, 843.380 621.775, 845.786 629.171, 847.490 " fill="none" stroke="rgb(0, 0, 0)" stroke-linecap="butt" stroke-linejoin="round" stroke-opacity="1.0" stroke-width="3.0" />
            <path d=" M 668.941, 200.401 666.697, 200.582 " fill="none" stroke="rgb(0, 0, 0)" stroke-linecap="butt" stroke-linejoin="round" stroke-opacity="1.0" stroke-width="3.0" />
            <path d=" M 629.171, 847.490 631.354, 847.948 " fill="none" stroke="rgb(0, 0, 0)" stroke-linecap="butt" stroke-linejoin="round" stroke-opacity="1.0" stroke-width="3.0" />
            <path d=" M 481.470, 509.992 481.371, 511.779 480.862, 520.907 480.785, 522.305 480.362, 529.903 480.079, 539.899 479.799, 549.788 479.790, 559.788 479.781, 569.577 480.050, 579.573 480.308, 589.202 480.857, 599.187 481.374, 608.597 482.207, 618.562 482.972, 627.696 484.096, 637.633 485.092, 646.438 486.512, 656.337 487.721, 664.762 489.446, 674.612 490.847, 682.611 492.885, 692.401 494.452, 699.931 496.812, 709.649 498.518, 716.673 501.211, 726.304 503.025, 732.791 506.063, 742.318 507.138, 745.689 507.952, 748.242 508.921, 750.926 512.317, 760.332 513.276, 762.989 515.639, 768.799 518.973, 776.997 523.127, 786.094 523.725, 787.405 523.849, 787.675 524.244, 788.542 525.019, 790.239 525.657, 791.485 527.032, 794.173 531.380, 802.671 531.389, 802.688 532.862, 805.259 533.121, 805.711 534.557, 808.217 537.443, 813.253 538.056, 814.323 538.337, 814.762 538.916, 815.663 541.275, 819.336 544.995, 825.129 550.844, 833.240 552.179, 835.092 558.486, 842.852 559.583, 844.203 566.356, 851.560 567.182, 852.456 574.424, 859.352 574.948, 859.851 582.657, 866.221 582.859, 866.388 590.888, 872.072 599.014, 876.910 607.213, 880.911 615.462, 884.088 623.742, 886.455 628.069, 887.440 636.337, 889.006 644.595, 889.793 652.825, 889.820 661.012, 889.108 669.138, 887.676 677.188, 885.548 685.148, 882.744 693.005, 879.290 700.747, 875.206 708.363, 870.517 715.841, 865.247 723.171, 859.419 730.346, 853.055 737.356, 846.180 744.194, 838.816 750.673, 831.199 750.853, 830.986 757.015, 823.111 757.327, 822.712 763.183, 814.607 763.610, 814.016 769.171, 805.705 769.696, 804.919 774.972, 796.424 775.582, 795.442 780.582, 786.783 781.262, 785.606 785.997, 776.798 786.732, 775.430 791.211, 766.489 791.990, 764.935 796.221, 755.874 797.031, 754.138 801.023, 744.969 801.854, 743.058 805.613, 733.792 806.455, 731.715 809.988, 722.359 810.832, 720.124 814.145, 710.689 814.983, 708.303 818.082, 698.796 818.905, 696.270 821.796, 686.696 822.598, 684.039 825.284, 674.407 826.059, 671.628 828.545, 661.942 829.287, 659.051 831.576, 649.317 832.280, 646.324 834.377, 636.546 835.038, 633.462 836.943, 623.646 837.558, 620.480 839.276, 610.629 839.840, 607.392 841.371, 597.510 841.882, 594.212 843.229, 584.303 843.684, 580.955 844.847, 571.022 845.244, 567.633 846.225, 557.682 846.561, 554.262 847.360, 544.294 847.635, 540.856 848.251, 530.875 848.464, 527.426 848.898, 517.436 849.047, 513.989 849.297, 503.992 849.383, 500.557 849.449, 490.557 849.472, 487.144 849.352, 477.144 849.311, 473.764 849.004, 463.769 848.901, 460.432 848.404, 450.444 848.240, 447.161 847.550, 437.185 847.328, 433.967 846.442, 424.006 846.163, 420.864 845.078, 410.923 844.744, 407.867 843.456, 397.951 843.071, 394.992 841.575, 385.105 841.143, 382.255 839.434, 372.402 838.960, 369.670 837.031, 359.858 836.520, 357.257 834.366, 347.491 833.823, 345.030 831.437, 335.319 830.870, 333.008 828.244, 323.359 827.659, 321.208 824.785, 311.630 824.190, 309.650 821.059, 300.153 820.465, 298.351 817.067, 288.947 816.483, 287.333 812.807, 278.033 812.245, 276.613 808.280, 267.433 807.753, 266.214 803.485, 257.171 803.007, 256.157 798.425, 247.268 798.009, 246.462 793.099, 237.751 792.762, 237.154 787.509, 228.644 787.268, 228.253 781.659, 219.974 781.530, 219.784 775.553, 211.771 769.339, 204.237 762.895, 197.208 756.226, 190.707 749.339, 184.761 742.240, 179.395 734.938, 174.633 727.442, 170.502 719.762, 167.026 711.908, 164.230 703.894, 162.138 695.732, 160.775 687.436, 160.162 679.023, 160.323 674.582, 160.757 666.044, 161.712 657.423, 163.479 648.737, 166.073 640.008, 169.512 631.256, 173.807 622.643, 178.888 622.504, 178.970 614.281, 184.660 613.776, 185.010 605.957, 191.244 605.096, 191.930 597.688, 198.648 596.490, 199.734 589.494, 206.879 587.985, 208.420 581.395, 215.942 579.607, 217.984 573.416, 225.837 571.384, 228.416 565.583, 236.561 563.345, 239.704 557.922, 248.105 556.617, 250.127 555.518, 251.830 550.461, 260.458 548.233, 264.259 547.931, 264.775 545.361, 269.598 544.974, 270.325 543.524, 273.046 542.521, 274.930 541.647, 276.570 540.635, 278.471 540.613, 278.511 539.235, 281.357 537.369, 285.210 536.770, 286.449 535.357, 289.366 533.593, 293.010 529.805, 301.624 528.432, 304.747 526.897, 308.237 523.195, 317.527 522.544, 319.160 520.554, 324.154 517.165, 333.562 514.952, 339.706 514.588, 340.717 511.505, 350.230 509.026, 357.880 506.241, 367.484 503.890, 375.591 501.396, 385.275 499.202, 393.797 496.995, 403.550 494.983, 412.439 493.057, 422.252 492.338, 425.919 491.251, 431.457 490.558, 435.605 488.910, 445.469 488.021, 450.788 486.648, 460.693 485.307, 470.365 484.207, 480.305 483.121, 490.123 482.293, 500.088 481.658, 507.725 481.470, 509.992 " fill="none" stroke="rgb(0, 0, 0)" stroke-linecap="butt" stroke-linejoin="round" stroke-opacity="1.0" stroke-width="3.0" />
            <path d=" M 679.023, 160.323 670.507, 161.276 661.908, 163.042 653.245, 165.638 644.537, 169.080 635.806, 173.380 627.202, 178.475 627.075, 178.551 618.862, 184.255 618.366, 184.599 610.559, 190.848 609.706, 191.531 602.311, 198.262 601.118, 199.348 594.135, 206.507 592.630, 208.050 586.055, 215.584 584.269, 217.631 578.093, 225.496 576.061, 228.083 570.275, 236.239 568.037, 239.393 562.628, 247.804 560.666, 250.857 560.223, 251.544 555.181, 260.180 552.649, 264.516 549.379, 270.677 546.149, 276.763 545.343, 278.281 544.719, 279.575 544.517, 279.993 543.726, 281.633 539.381, 290.640 538.333, 292.811 538.162, 293.202 537.439, 294.853 536.776, 296.367 532.762, 305.527 531.648, 308.071 527.956, 317.365 525.312, 324.023 524.294, 326.860 520.916, 336.272 519.354, 340.623 516.280, 350.139 513.798, 357.824 511.021, 367.431 508.667, 375.576 506.181, 385.262 503.983, 393.823 501.782, 403.578 499.766, 412.508 499.443, 414.158 499.314, 414.817 497.453, 424.327 496.035, 431.570 494.391, 441.434 493.630, 445.998 492.806, 450.945 492.131, 455.823 490.761, 465.729 490.091, 470.568 488.993, 480.508 487.903, 490.371 487.075, 500.337 486.490, 507.385 486.443, 507.953 486.426, 508.154 486.257, 510.189 486.249, 510.286 485.894, 516.653 485.759, 519.088 485.574, 522.391 485.137, 530.243 484.852, 540.239 484.568, 550.174 484.557, 560.174 484.545, 570.008 484.809, 580.004 485.064, 589.677 485.608, 599.662 485.690, 601.171 486.093, 608.579 486.122, 609.115 486.949, 619.081 487.710, 628.257 488.827, 638.195 489.820, 647.040 491.232, 656.940 492.439, 665.403 494.154, 675.255 495.552, 683.290 497.579, 693.082 499.145, 700.646 501.492, 710.366 503.197, 717.422 505.877, 727.056 507.689, 733.572 508.671, 736.665 508.798, 737.067 511.822, 746.599 512.601, 749.053 515.982, 758.464 517.909, 763.827 521.660, 773.096 523.589, 777.861 525.116, 781.221 528.248, 788.113 529.617, 791.125 532.524, 796.833 533.956, 799.643 535.969, 803.595 538.455, 807.954 539.899, 810.485 542.186, 814.493 542.617, 815.249 548.004, 823.674 549.536, 826.071 555.370, 834.193 556.701, 836.047 562.993, 843.820 564.085, 845.169 570.844, 852.540 571.662, 853.432 578.892, 860.341 579.408, 860.834 587.105, 867.218 587.297, 867.377 595.305, 873.063 603.408, 877.902 611.585, 881.903 619.812, 885.077 628.069, 887.440 " fill="none" stroke="rgb(0, 0, 0)" stroke-linecap="butt" stroke-linejoin="round" stroke-opacity="1.0" stroke-width="3.0" />
            <path d=" M 748.824, 525.117 741.764, 524.453 734.503, 523.770 734.041, 522.439 733.484, 521.261 732.843, 520.256 732.126, 519.440 731.347, 518.829 730.517, 518.433 729.651, 518.258 719.668, 517.674 718.493, 517.605 717.599, 517.655 716.699, 517.929 715.841, 518.425 715.042, 519.135 714.284, 520.047 713.578, 521.145 712.938, 522.411 712.374, 523.823 711.895, 525.357 711.878, 525.431 711.511, 526.987 711.229, 528.685 711.052, 530.423 715.881, 530.825 719.073, 531.031 727.045, 531.544 727.106, 530.992 727.208, 530.460 727.349, 529.960 727.525, 529.508 727.731, 529.115 727.962, 528.792 728.210, 528.548 728.471, 528.390 728.735, 528.321 " fill="none" stroke="rgb(0, 0, 0)" stroke-linecap="butt" stroke-linejoin="round" stroke-opacity="1.0" stroke-width="3.0" />
            <path d=" M 729.651, 518.258 728.764, 518.309 727.869, 518.585 727.017, 519.084 726.224, 519.799 725.471, 520.716 724.770, 521.819 724.133, 523.092 723.572, 524.511 723.096, 526.053 722.908, 526.859 722.714, 527.691 722.672, 527.940 722.431, 529.398 722.254, 531.143 " fill="none" stroke="rgb(0, 0, 0)" stroke-linecap="butt" stroke-linejoin="round" stroke-opacity="1.0" stroke-width="3.0" />
            <path d=" M 711.052, 530.423 719.076, 530.939 722.254, 531.143 727.045, 531.544 " fill="none" stroke="rgb(0, 0, 0)" stroke-linecap="butt" stroke-linejoin="round" stroke-opacity="1.0" stroke-width="3.0" />
            <path d=" M 728.735, 528.321 728.996, 528.344 729.247, 528.458 729.481, 528.659 729.692, 528.943 729.874, 529.300 730.022, 529.723 730.132, 530.198 730.201, 530.713 730.227, 531.255 730.210, 531.808 " fill="none" stroke="rgb(0, 0, 0)" stroke-linecap="butt" stroke-linejoin="round" stroke-opacity="1.0" stroke-width="3.0" />
            <path d=" M 719.071, 531.091 729.051, 531.733 730.210, 531.808 740.175, 532.641 747.148, 533.223 " fill="none" stroke="rgb(0, 0, 0)" stroke-linecap="butt" stroke-linejoin="round" stroke-opacity="1.0" stroke-width="3.0" />
            <path d=" M 802.802, 522.542 801.956, 522.599 801.102, 522.887 800.289, 523.406 799.536, 524.147 798.818, 525.097 798.699, 525.300 798.149, 526.239 797.539, 527.554 797.000, 529.021 796.540, 530.613 796.168, 532.305 796.127, 532.562 795.890, 534.067 795.712, 535.868 " fill="none" stroke="rgb(0, 0, 0)" stroke-linecap="butt" stroke-linejoin="round" stroke-opacity="1.0" stroke-width="3.0" />
            <path d=" M 783.788, 535.101 791.381, 535.589 795.712, 535.868 799.890, 536.225 800.236, 536.254 " fill="none" stroke="rgb(0, 0, 0)" stroke-linecap="butt" stroke-linejoin="round" stroke-opacity="1.0" stroke-width="3.0" />
            <path d=" M 801.853, 532.922 802.100, 532.944 802.336, 533.060 802.556, 533.266 802.753, 533.557 802.923, 533.925 803.060, 534.360 803.160, 534.849 803.222, 535.381 803.243, 535.939 803.224, 536.509 799.898, 536.295 791.375, 535.746 " fill="none" stroke="rgb(0, 0, 0)" stroke-linecap="butt" stroke-linejoin="round" stroke-opacity="1.0" stroke-width="3.0" />
            <path d=" M 785.367, 493.933 785.583, 493.967 785.788, 494.045 785.974, 494.166 786.133, 494.325 786.261, 494.516 786.353, 494.733 786.404, 494.972 786.410, 495.226 786.372, 495.464 786.293, 495.691 786.176, 495.899 786.025, 496.079 785.847, 496.225 785.645, 496.333 785.425, 496.397 785.192, 496.412 785.032, 496.392 " fill="none" stroke="rgb(0, 0, 0)" stroke-linecap="butt" stroke-linejoin="round" stroke-opacity="1.0" stroke-width="3.0" />
            <path d=" M 785.367, 493.933 785.137, 493.939 785.126, 493.940 784.891, 493.993 784.670, 494.090 784.663, 494.094 784.463, 494.233 784.294, 494.407 784.161, 494.612 784.069, 494.843 784.025, 495.094 784.032, 495.335 784.085, 495.569 784.183, 495.788 784.322, 495.984 784.497, 496.150 784.704, 496.281 784.937, 496.370 784.944, 496.372 785.032, 496.392 " fill="none" stroke="rgb(0, 0, 0)" stroke-linecap="butt" stroke-linejoin="round" stroke-opacity="1.0" stroke-width="3.0" />
            <path d=" M 782.674, 491.944 782.237, 498.133 785.643, 498.299 787.890, 498.409 788.545, 498.335 788.472, 492.225 788.328, 492.205 785.606, 492.079 782.674, 491.944 " fill="none" stroke="rgb(0, 0, 0)" stroke-linecap="butt" stroke-linejoin="round" stroke-opacity="1.0" stroke-width="3.0" />
            <path d=" M 787.890, 498.409 788.328, 492.205 " fill="none" stroke="rgb(0, 0, 0)" stroke-linecap="butt" stroke-linejoin="round" stroke-opacity="1.0" stroke-width="3.0" />
            <path d=" M 711.878, 525.431 704.817, 524.488 694.912, 523.111 693.352, 522.895 683.453, 521.476 681.887, 521.251 671.993, 519.800 670.416, 519.569 660.526, 518.096 658.935, 517.859 649.046, 516.375 647.437, 516.133 637.548, 514.647 635.919, 514.402 626.029, 512.924 624.374, 512.676 614.481, 511.215 612.798, 510.966 602.901, 509.532 601.186, 509.283 591.284, 507.884 589.534, 507.636 579.626, 506.282 577.836, 506.037 577.624, 496.039 577.533, 491.739 577.199, 481.744 577.059, 477.546 576.602, 467.557 576.415, 463.479 575.830, 453.497 575.599, 449.559 574.883, 439.585 574.611, 435.807 573.758, 425.843 573.450, 422.243 572.455, 412.293 572.115, 408.890 570.971, 398.956 570.605, 395.773 569.305, 385.858 568.920, 382.915 567.456, 373.022 567.059, 370.340 565.420, 360.475 565.022, 358.076 563.196, 348.244 562.808, 346.150 562.698, 345.617 " fill="none" stroke="rgb(0, 0, 0)" stroke-linecap="butt" stroke-linejoin="round" stroke-opacity="1.0" stroke-width="3.0" />
            <path d=" M 528.226, 240.308 524.102, 238.111 521.550, 236.752 519.810, 235.825 511.249, 230.658 510.768, 230.367 509.156, 229.395 " fill="none" stroke="rgb(0, 0, 0)" stroke-linecap="butt" stroke-linejoin="round" stroke-opacity="1.0" stroke-width="3.0" />
            <path d=" M 542.904, 246.449 540.802, 245.650 539.722, 245.240 537.532, 244.408 536.443, 243.994 533.085, 242.488 530.848, 241.484 528.226, 240.308 525.719, 239.184 " fill="none" stroke="rgb(0, 0, 0)" stroke-linecap="butt" stroke-linejoin="round" stroke-opacity="1.0" stroke-width="3.0" />
            <path d=" M 509.156, 229.395 508.123, 228.963 504.370, 227.393 499.470, 226.330 494.469, 226.244 489.378, 227.172 484.212, 229.145 481.897, 230.494 478.985, 232.192 478.873, 232.280 473.713, 236.342 472.837, 237.216 468.415, 241.621 463.109, 248.045 462.904, 248.339 457.815, 255.628 457.303, 256.480 452.582, 264.336 452.555, 264.381 447.911, 273.237 447.351, 274.306 443.156, 283.384 442.226, 285.396 438.432, 294.648 437.205, 297.640 433.771, 307.032 432.312, 311.021 429.203, 320.525 427.573, 325.509 424.761, 335.106 423.013, 341.068 420.473, 350.741 418.658, 357.653 416.371, 367.388 414.533, 375.211 412.481, 384.998 410.662, 393.678 408.832, 403.510 407.069, 412.983 405.449, 422.851 403.830, 432.719 403.776, 433.046 402.357, 442.945 400.939, 452.844 400.805, 453.782 399.579, 463.706 398.354, 473.631 398.174, 475.094 397.135, 485.040 396.097, 494.986 395.899, 496.884 395.044, 506.847 394.190, 516.810 393.998, 519.045 393.323, 529.022 392.648, 538.999 392.481, 541.468 391.983, 551.456 391.486, 561.443 391.357, 564.040 391.037, 574.035 390.716, 584.030 390.633, 586.645 390.491, 596.644 390.349, 606.643 390.313, 609.169 390.351, 619.168 390.389, 629.168 390.398, 631.498 390.619, 641.496 390.840, 651.493 390.885, 653.522 391.294, 663.513 391.703, 673.505 391.769, 675.128 391.798, 675.058 395.534, 665.782 397.253, 661.515 398.519, 658.519 402.413, 649.308 402.845, 648.287 406.900, 639.146 408.548, 635.431 412.766, 626.364 414.362, 622.934 418.745, 613.945 420.287, 610.784 424.837, 601.879 426.324, 598.968 431.043, 590.151 432.475, 587.476 437.363, 578.752 438.740, 576.294 443.799, 567.668 445.121, 565.414 450.350, 556.890 451.618, 554.822 457.018, 546.405 458.234, 544.509 463.803, 536.204 464.969, 534.465 470.707, 526.275 471.824, 524.679 477.729, 516.609 478.802, 515.142 479.792, 513.847 481.371, 511.779 " fill="none" stroke="rgb(0, 0, 0)" stroke-linecap="butt" stroke-linejoin="round" stroke-opacity="1.0" stroke-width="3.0" />
            <path d=" M 361.719, 665.687 357.747, 674.865 356.085, 678.705 " fill="none" stroke="rgb(0, 0, 0)" stroke-linecap="butt" stroke-linejoin="round" stroke-opacity="1.0" stroke-width="3.0" />
            <path d=" M 477.572, 917.655 484.247, 910.209 485.360, 908.967 " fill="none" stroke="rgb(0, 0, 0)" stroke-linecap="butt" stroke-linejoin="round" stroke-opacity="1.0" stroke-width="3.0" />
            <path d=" M 481.897, 230.494 471.897, 230.456 471.043, 230.452 " fill="none" stroke="rgb(0, 0, 0)" stroke-linecap="butt" stroke-linejoin="round" stroke-opacity="1.0" stroke-width="3.0" />
            <path d=" M 551.930, 249.129 544.986, 247.067 542.904, 246.449 542.249, 246.254 " fill="none" stroke="rgb(0, 0, 0)" stroke-linecap="butt" stroke-linejoin="round" stroke-opacity="1.0" stroke-width="3.0" />
            <path d=" M 556.617, 250.127 551.930, 249.129 547.886, 248.268 " fill="none" stroke="rgb(0, 0, 0)" stroke-linecap="butt" stroke-linejoin="round" stroke-opacity="1.0" stroke-width="3.0" />
        </g>
    </g>
</svg>
