<?xml version='1.0' encoding='ascii'?>
<svg xmlns="http://www.w3.org/2000/svg" height="1080" version="1.1" width="1080">
    <g id="View Layer_LineSet" inkscape:groupmode="lineset" inkscape:label="View Layer_LineSet" xmlns:inkscape="http://www.inkscape.org/namespaces/inkscape">
        <g id="strokes" inkscape:groupmode="layer" inkscape:label="strokes" xmlns:inkscape="http://www.inkscape.org/namespaces/inkscape">
            <path d=" M 564.677, 495.477 564.654, 496.638 564.613, 497.790 564.552, 498.922 564.472, 500.023 564.373, 501.082 564.257, 502.089 564.125, 503.032 563.978, 503.902 563.850, 504.523 563.815, 504.692 563.692, 505.206 563.564, 505.670 563.430, 506.082 563.292, 506.439 563.151, 506.740 563.007, 506.983 562.998, 506.995 562.861, 507.166 561.479, 508.608 " fill="none" stroke="rgb(0, 0, 0)" stroke-linecap="butt" stroke-linejoin="round" stroke-opacity="1.0" stroke-width="3.0" />
            <path d=" M 355.406, 664.879 361.753, 667.832 " fill="none" stroke="rgb(0, 0, 0)" stroke-linecap="butt" stroke-linejoin="round" stroke-opacity="1.0" stroke-width="3.0" />
            <path d=" M 379.516, 668.498 389.336, 666.610 391.395, 666.215 " fill="none" stroke="rgb(0, 0, 0)" stroke-linecap="butt" stroke-linejoin="round" stroke-opacity="1.0" stroke-width="3.0" />
            <path d=" M 391.395, 666.215 386.971, 657.247 382.547, 648.278 381.515, 646.186 " fill="none" stroke="rgb(0, 0, 0)" stroke-linecap="butt" stroke-linejoin="round" stroke-opacity="1.0" stroke-width="3.0" />
            <path d=" M 472.444, 225.259 468.042, 225.287 463.567, 226.360 459.034, 228.512 454.456, 231.775 449.847, 236.181 445.224, 241.751 444.337, 243.049 441.795, 246.766 440.605, 248.506 436.008, 256.460 431.557, 265.415 431.453, 265.624 427.478, 274.800 426.959, 275.998 423.399, 285.342 422.549, 287.574 419.354, 297.050 418.244, 300.342 415.374, 309.921 414.068, 314.280 411.488, 323.941 410.043, 329.354 407.726, 339.082 406.192, 345.525 404.116, 355.307 402.538, 362.744 400.684, 372.571 399.104, 380.951 397.457, 390.815 395.911, 400.077 394.458, 409.971 392.980, 420.043 391.712, 429.963 390.444, 439.882 390.331, 440.765 389.239, 450.705 388.147, 460.645 387.982, 462.145 387.059, 472.103 386.136, 482.060 385.948, 484.082 385.190, 494.053 384.431, 504.025 384.245, 506.468 383.647, 516.450 383.048, 526.432 382.883, 529.189 382.443, 539.179 382.002, 549.169 381.872, 552.127 381.587, 562.123 381.303, 572.119 381.217, 575.162 381.089, 585.161 380.962, 595.160 380.923, 598.174 380.953, 608.174 380.983, 618.174 380.991, 621.042 381.180, 631.040 381.369, 641.038 381.418, 643.647 381.515, 646.186 380.622, 656.146 379.730, 666.106 379.516, 668.498 " fill="none" stroke="rgb(0, 0, 0)" stroke-linecap="butt" stroke-linejoin="round" stroke-opacity="1.0" stroke-width="3.0" />
            <path d=" M 566.945, 520.580 567.357, 520.587 567.993, 520.598 574.676, 513.160 574.825, 512.994 577.911, 510.414 577.731, 500.416 577.648, 495.838 577.345, 485.842 577.209, 481.363 576.781, 471.373 576.594, 467.012 576.037, 457.027 575.802, 452.805 575.112, 442.828 574.831, 438.764 574.005, 428.798 573.682, 424.912 572.713, 414.959 572.354, 411.273 571.235, 401.336 570.844, 397.870 569.568, 387.952 569.154, 384.730 567.713, 374.835 567.282, 371.877 565.666, 362.009 565.228, 359.340 563.424, 349.504 563.324, 348.955 " fill="none" stroke="rgb(0, 0, 0)" stroke-linecap="butt" stroke-linejoin="round" stroke-opacity="1.0" stroke-width="3.0" />
            <path d=" M 560.014, 355.167 560.402, 357.039 560.985, 360.174 562.557, 368.633 564.195, 378.498 564.538, 380.569 565.997, 390.462 566.344, 392.816 567.636, 402.732 567.977, 405.349 569.109, 415.285 569.435, 418.142 570.417, 428.094 570.720, 431.171 571.557, 441.136 571.832, 444.411 572.531, 454.387 572.772, 457.840 573.337, 467.824 573.541, 471.434 573.976, 481.424 574.139, 485.172 574.447, 495.167 574.567, 499.032 574.586, 500.112 574.523, 500.885 574.450, 501.633 574.368, 502.351 574.278, 503.036 574.180, 503.683 574.074, 504.289 573.962, 504.851 573.844, 505.365 573.719, 505.830 573.591, 506.243 573.458, 506.601 573.321, 506.902 573.182, 507.145 573.042, 507.329 569.002, 511.707 568.798, 510.736 568.571, 509.938 568.570, 509.936 568.326, 509.328 568.065, 508.916 567.793, 508.710 567.382, 508.703 564.965, 508.664 564.792, 508.661 563.867, 508.646 563.005, 508.632 561.479, 508.608 559.433, 508.575 557.649, 508.546 557.491, 508.543 557.412, 508.542 557.124, 508.545 556.834, 508.759 556.547, 509.179 556.485, 509.318 556.269, 509.800 556.004, 510.612 555.757, 511.602 555.681, 511.989 555.662, 512.087 555.531, 512.752 555.332, 514.043 555.161, 515.454 555.023, 516.961 554.920, 518.537 554.853, 520.156 554.824, 521.790 554.833, 523.410 555.705, 523.426 557.550, 523.459 557.649, 523.461 559.431, 523.493 562.999, 523.557 563.834, 523.573 564.784, 523.590 565.298, 523.599 566.922, 521.791 566.921, 521.277 566.935, 520.760 566.945, 520.580 566.963, 520.256 567.005, 519.777 567.059, 519.336 567.124, 518.947 567.198, 518.619 567.280, 518.362 567.366, 518.182 567.366, 518.182 567.454, 518.085 567.543, 518.072 " fill="none" stroke="rgb(0, 0, 0)" stroke-linecap="butt" stroke-linejoin="round" stroke-opacity="1.0" stroke-width="3.0" />
            <path d=" M 462.984, 899.206 458.918, 898.392 458.214, 898.075 454.845, 896.559 450.781, 893.677 449.608, 892.528 446.740, 889.719 442.738, 884.665 438.791, 878.500 434.918, 871.207 431.135, 862.781 427.546, 853.447 427.461, 853.223 424.310, 843.733 423.914, 842.540 421.146, 832.931 420.515, 830.741 418.082, 821.042 417.282, 817.851 415.147, 808.082 414.233, 803.899 412.367, 794.075 411.388, 788.921 409.765, 779.054 408.764, 772.962 407.365, 763.061 406.378, 756.079 405.186, 746.150 404.247, 738.333 403.249, 728.383 402.386, 719.793 401.570, 709.827 400.809, 700.540 400.165, 690.561 399.526, 680.658 399.047, 670.670 398.568, 660.681 398.547, 660.240 398.207, 650.246 398.086, 646.668 " fill="none" stroke="rgb(0, 0, 0)" stroke-linecap="butt" stroke-linejoin="round" stroke-opacity="1.0" stroke-width="3.0" />
            <path d=" M 382.773, 308.724 381.622, 313.161 379.378, 322.906 378.179, 328.108 376.173, 337.905 374.893, 344.154 373.105, 353.993 371.785, 361.254 370.196, 371.127 368.872, 379.351 367.468, 389.252 366.174, 398.378 364.943, 408.302 363.707, 418.260 362.640, 428.203 361.573, 438.146 361.490, 438.915 360.578, 448.874 359.666, 458.832 359.536, 460.251 358.774, 470.221 358.011, 480.192 357.860, 482.166 357.241, 492.147 356.623, 502.128 356.473, 504.557 355.995, 514.545 355.518, 524.534 355.385, 527.312 355.046, 537.306 354.706, 547.300 354.604, 550.315 354.401, 560.313 354.198, 570.311 354.135, 573.448 354.068, 583.447 354.002, 593.447 353.981, 596.590 354.052, 606.590 354.122, 616.590 354.143, 619.622 354.352, 629.620 354.561, 639.618 354.620, 642.424 354.970, 652.418 355.320, 662.412 355.406, 664.879 355.951, 674.864 356.495, 684.850 356.596, 686.706 357.316, 696.680 358.036, 706.654 358.129, 707.942 359.032, 717.901 359.935, 727.860 359.992, 728.487 361.089, 738.427 362.173, 748.248 363.476, 758.163 364.656, 767.138 366.180, 777.021 367.423, 785.082 369.187, 794.926 370.458, 802.015 372.485, 811.807 373.740, 817.876 376.057, 827.604 377.251, 832.618 379.676, 841.480 " fill="none" stroke="rgb(0, 0, 0)" stroke-linecap="butt" stroke-linejoin="round" stroke-opacity="1.0" stroke-width="3.0" />
            <path d=" M 523.591, 534.349 523.613, 538.318 523.558, 548.317 523.536, 552.411 523.375, 562.410 523.308, 566.531 523.040, 576.528 522.929, 580.660 522.554, 590.653 522.399, 594.776 521.916, 604.765 521.718, 608.863 521.128, 618.845 520.888, 622.898 520.876, 623.065 " fill="none" stroke="rgb(0, 0, 0)" stroke-linecap="butt" stroke-linejoin="round" stroke-opacity="1.0" stroke-width="3.0" />
            <path d=" M 506.205, 746.321 504.411, 755.941 502.421, 765.741 501.959, 768.016 499.803, 777.781 499.365, 779.766 497.032, 789.490 496.630, 791.164 494.106, 800.841 493.757, 802.181 491.025, 811.801 490.746, 812.785 487.789, 822.338 487.601, 822.946 484.396, 832.418 484.324, 832.630 480.920, 841.805 477.390, 850.434 473.741, 858.484 469.977, 865.917 466.103, 872.695 462.126, 878.781 458.052, 884.136 453.890, 888.723 449.648, 892.501 449.608, 892.528 " fill="none" stroke="rgb(0, 0, 0)" stroke-linecap="butt" stroke-linejoin="round" stroke-opacity="1.0" stroke-width="3.0" />
            <path d=" M 391.217, 661.129 391.395, 666.215 391.889, 676.203 392.383, 686.190 392.472, 687.984 393.144, 697.961 393.815, 707.938 393.898, 709.165 394.754, 719.128 395.610, 729.091 395.659, 729.659 396.709, 739.604 397.741, 749.373 398.998, 759.294 400.129, 768.221 401.606, 778.112 402.804, 786.130 404.518, 795.982 405.744, 803.032 407.716, 812.836 408.930, 818.868 411.186, 828.610 412.339, 833.591 414.909, 843.255 415.949, 847.163 418.871, 856.727 419.735, 859.556 423.058, 868.988 423.677, 870.745 427.456, 880.003 427.750, 880.721 431.932, 889.481 436.202, 897.026 437.172, 898.443 437.447, 898.845 440.539, 903.365 444.923, 908.515 449.336, 912.499 453.760, 915.339 458.178, 917.066 462.574, 917.715 466.935, 917.322 471.248, 915.922 475.501, 913.557 479.638, 910.303 479.682, 910.268 483.783, 906.098 487.794, 901.086 491.708, 895.276 495.517, 888.712 498.561, 882.725 499.217, 881.433 502.802, 873.480 506.267, 864.894 509.339, 856.455 509.608, 855.715 512.743, 846.219 512.823, 845.978 515.702, 836.401 515.907, 835.721 518.558, 826.079 518.860, 824.981 521.302, 815.284 521.679, 813.791 523.931, 804.048 524.362, 802.183 525.868, 795.093 " fill="none" stroke="rgb(0, 0, 0)" stroke-linecap="butt" stroke-linejoin="round" stroke-opacity="1.0" stroke-width="3.0" />
            <path d=" M 522.545, 788.170 521.757, 791.756 519.435, 801.483 519.132, 802.752 516.618, 812.431 516.382, 813.336 513.659, 822.958 513.512, 823.477 510.557, 833.031 510.522, 833.144 507.417, 842.303 504.199, 850.917 500.873, 858.952 497.444, 866.374 493.915, 873.141 490.294, 879.218 486.587, 884.567 482.800, 889.149 478.942, 892.923 475.022, 895.853 471.048, 897.903 467.032, 899.033 462.984, 899.206 " fill="none" stroke="rgb(0, 0, 0)" stroke-linecap="butt" stroke-linejoin="round" stroke-opacity="1.0" stroke-width="3.0" />
            <path d=" M 555.681, 511.989 555.661, 511.988 548.961, 511.635 548.281, 511.600 546.438, 511.503 546.354, 511.498 546.490, 521.497 546.544, 525.444 546.581, 535.444 546.596, 539.457 546.534, 549.456 546.509, 553.516 546.350, 563.514 546.285, 567.602 546.028, 577.599 545.922, 581.697 545.568, 591.691 545.423, 595.781 544.971, 605.771 544.787, 609.835 544.236, 619.820 544.015, 623.839 543.364, 633.818 543.106, 637.774 542.354, 647.746 542.061, 651.620 541.206, 661.583 540.882, 665.356 539.920, 675.309 539.567, 678.961 538.496, 688.903 538.117, 692.414 537.725, 695.702 " fill="none" stroke="rgb(0, 0, 0)" stroke-linecap="butt" stroke-linejoin="round" stroke-opacity="1.0" stroke-width="3.0" />
            <path d=" M 540.316, 702.773 540.874, 697.859 541.893, 687.911 542.316, 683.783 543.228, 673.825 543.619, 669.556 544.428, 659.589 544.785, 655.199 545.494, 645.225 545.813, 640.734 546.424, 630.753 546.704, 626.182 547.219, 616.195 547.458, 611.561 547.879, 601.570 548.076, 596.891 548.403, 586.897 548.557, 582.193 548.792, 572.195 548.903, 567.484 549.045, 557.485 549.112, 552.785 549.161, 542.785 549.185, 538.113 549.142, 528.113 549.122, 523.489 548.986, 513.490 548.961, 511.635 " fill="none" stroke="rgb(0, 0, 0)" stroke-linecap="butt" stroke-linejoin="round" stroke-opacity="1.0" stroke-width="3.0" />
            <path d=" M 379.516, 668.498 380.026, 678.485 380.535, 688.472 380.672, 691.145 381.356, 701.121 382.040, 711.098 382.182, 713.170 383.048, 723.132 383.914, 733.095 384.033, 734.468 385.091, 744.412 386.149, 754.356 386.211, 754.941 387.473, 764.861 388.699, 774.498 390.179, 784.388 391.478, 793.062 393.195, 802.914 394.528, 810.564 396.504, 820.367 397.830, 826.942 400.091, 836.683 401.360, 842.148 403.939, 851.809 405.096, 856.143 408.033, 865.702 409.015, 868.900 412.360, 878.324 413.095, 880.395 416.908, 889.639 417.313, 890.620 421.646, 899.573 426.073, 907.259 430.574, 913.688 435.127, 918.881 439.715, 922.863 444.319, 925.660 448.921, 927.306 453.508, 927.838 458.062, 927.296 462.572, 925.718 467.025, 923.148 471.410, 919.632 475.716, 915.212 " fill="none" stroke="rgb(0, 0, 0)" stroke-linecap="butt" stroke-linejoin="round" stroke-opacity="1.0" stroke-width="3.0" />
            <path d=" M 475.716, 915.212 482.343, 907.724 483.783, 906.098 " fill="none" stroke="rgb(0, 0, 0)" stroke-linecap="butt" stroke-linejoin="round" stroke-opacity="1.0" stroke-width="3.0" />
            <path d=" M 540.738, 536.235 530.738, 536.146 529.378, 536.133 526.338, 535.196 523.591, 534.349 519.506, 533.089 519.218, 533.000 518.929, 532.911 518.640, 532.822 518.352, 532.733 518.013, 532.509 517.685, 532.053 517.375, 531.372 517.091, 530.480 516.956, 529.902 " fill="none" stroke="rgb(0, 0, 0)" stroke-linecap="butt" stroke-linejoin="round" stroke-opacity="1.0" stroke-width="3.0" />
            <path d=" M 518.432, 507.720 518.582, 507.380 518.639, 507.250 518.912, 506.631 519.051, 506.321 523.091, 497.174 527.132, 488.027 528.302, 485.379 538.259, 486.296 539.776, 486.435 540.131, 496.429 540.486, 506.422 540.656, 511.199 540.753, 521.199 540.792, 525.151 540.743, 535.151 540.738, 536.235 531.659, 533.324 531.381, 533.236 531.104, 533.147 530.825, 533.057 530.548, 532.969 530.222, 532.745 529.907, 532.288 529.609, 531.607 529.398, 530.917 529.336, 530.714 529.095, 529.625 528.888, 528.362 528.719, 526.947 528.593, 525.409 528.511, 523.776 528.507, 523.601 528.475, 522.081 528.487, 520.356 528.544, 518.634 528.620, 517.405 528.648, 516.949 528.795, 515.334 528.982, 513.820 529.207, 512.436 529.284, 512.069 529.464, 511.209 529.748, 510.161 530.053, 509.314 530.316, 508.690 530.581, 508.068 530.845, 507.446 531.108, 506.826 531.242, 506.515 535.153, 497.312 539.064, 488.109 539.776, 486.435 " fill="none" stroke="rgb(0, 0, 0)" stroke-linecap="butt" stroke-linejoin="round" stroke-opacity="1.0" stroke-width="3.0" />
            <path d=" M 530.930, 523.645 530.803, 523.636 530.682, 523.490 530.571, 523.215 530.476, 522.823 530.401, 522.332 530.349, 521.762 530.323, 521.139 530.323, 520.489 530.349, 519.842 530.401, 519.226 530.476, 518.668 530.571, 518.192 530.682, 517.820 530.803, 517.567 530.929, 517.445 " fill="none" stroke="rgb(0, 0, 0)" stroke-linecap="butt" stroke-linejoin="round" stroke-opacity="1.0" stroke-width="3.0" />
            <path d=" M 530.929, 517.445 531.056, 517.458 531.177, 517.606 531.287, 517.882 531.381, 518.274 531.456, 518.764 531.508, 519.333 531.534, 519.954 531.534, 520.601 531.507, 521.245 531.456, 521.859 531.381, 522.416 531.287, 522.892 531.176, 523.265 531.056, 523.520 530.930, 523.645 " fill="none" stroke="rgb(0, 0, 0)" stroke-linecap="butt" stroke-linejoin="round" stroke-opacity="1.0" stroke-width="3.0" />
            <path d=" M 360.222, 599.269 360.210, 601.754 360.303, 611.754 360.396, 621.753 360.418, 624.056 360.652, 634.053 360.885, 644.051 360.933, 646.111 361.144, 651.696 361.521, 661.689 361.753, 667.832 362.277, 677.818 362.802, 687.805 362.871, 689.137 362.918, 689.819 " fill="none" stroke="rgb(0, 0, 0)" stroke-linecap="butt" stroke-linejoin="round" stroke-opacity="1.0" stroke-width="3.0" />
            <path d=" M 546.186, 717.425 547.102, 709.853 548.211, 699.915 548.551, 696.866 549.569, 686.918 549.892, 683.761 550.821, 673.804 551.124, 670.550 551.967, 660.586 552.249, 657.248 553.007, 647.277 553.266, 643.866 553.940, 633.888 554.175, 630.416 554.767, 620.433 554.976, 616.910 555.487, 606.923 555.669, 603.360 556.100, 593.369 556.255, 589.777 556.605, 579.783 556.732, 576.173 557.003, 566.176 557.101, 562.558 557.292, 552.560 557.361, 548.944 557.361, 548.932 557.473, 538.932 557.513, 535.341 557.545, 525.341 557.550, 523.459 " fill="none" stroke="rgb(0, 0, 0)" stroke-linecap="butt" stroke-linejoin="round" stroke-opacity="1.0" stroke-width="3.0" />
            <path d=" M 454.231, 951.972 456.671, 952.152 460.820, 952.210 464.936, 951.438 469.012, 949.866 473.039, 947.524 477.010, 944.443 480.918, 940.655 484.759, 936.190 488.526, 931.080 492.215, 925.355 495.821, 919.045 499.340, 912.180 502.770, 904.789 506.107, 896.900 509.348, 888.541 512.492, 879.737 515.536, 870.516 518.478, 860.901 521.214, 851.283 521.318, 850.917 523.878, 841.251 524.053, 840.587 526.451, 830.879 526.684, 829.933 528.930, 820.188 529.209, 818.976 531.312, 809.200 531.627, 807.737 531.857, 806.593 " fill="none" stroke="rgb(0, 0, 0)" stroke-linecap="butt" stroke-linejoin="round" stroke-opacity="1.0" stroke-width="3.0" />
            <path d=" M 523.834, 233.847 521.875, 228.003 518.934, 220.039 515.880, 212.562 512.713, 205.600 509.435, 199.180 506.048, 193.332 502.556, 188.085 498.962, 183.469 495.269, 179.514 491.481, 176.251 487.604, 173.711 483.642, 171.924 479.602, 170.920 475.491, 170.730 474.612, 170.867 471.315, 171.382 467.084, 172.904 462.806, 175.323 458.491, 178.663 454.148, 182.947 449.791, 188.195 445.429, 194.425 441.077, 201.651 436.748, 209.883 432.537, 218.954 432.455, 219.130 429.918, 225.267 428.214, 229.391 424.742, 238.769 424.040, 240.666 420.879, 250.153 419.949, 252.946 417.068, 262.522 416.592, 264.106 415.957, 266.218 413.331, 275.867 412.080, 280.464 409.687, 290.173 408.335, 295.658 406.157, 305.418 404.739, 311.770 402.760, 321.572 401.308, 328.762 399.515, 338.600 398.059, 346.590 396.441, 356.458 395.007, 365.206 393.555, 375.100 392.168, 384.552 390.874, 394.468 389.556, 404.567 388.413, 414.501 387.270, 424.436 387.184, 425.184 386.187, 435.134 385.190, 445.084 385.066, 446.330 384.210, 456.293 383.355, 466.257 383.211, 467.928 382.494, 477.902 381.777, 487.876 381.631, 489.897 381.049, 499.880 380.467, 509.863 380.334, 512.152 379.885, 522.142 379.437, 532.132 379.326, 534.607 379.010, 544.602 378.694, 554.596 378.612, 557.171 378.428, 567.169 378.244, 577.168 378.196, 579.755 378.145, 589.755 378.093, 599.755 378.080, 602.269 378.162, 612.269 378.243, 622.268 378.263, 624.622 378.480, 634.620 378.697, 644.618 378.742, 646.727 379.097, 656.721 379.452, 666.715 379.516, 668.498 380.012, 678.485 380.509, 688.473 380.577, 689.850 381.220, 699.829 381.862, 709.809 381.920, 710.705 382.713, 720.674 383.507, 730.642 383.534, 730.989 384.486, 740.943 385.412, 750.630 386.529, 760.567 387.541, 769.564 388.833, 779.480 389.909, 787.731 391.387, 797.621 392.502, 805.080 394.180, 814.938 395.308, 821.562 397.201, 831.381 398.310, 837.138 400.437, 846.909 401.495, 851.773 403.876, 861.485 404.846, 865.439 407.509, 875.078 408.348, 878.115 411.323, 887.662 411.985, 889.784 415.310, 899.215 415.741, 900.437 419.461, 909.719 419.601, 910.068 423.549, 918.678 427.572, 926.272 431.654, 932.858 435.782, 938.449 439.943, 943.061 444.123, 946.715 448.312, 949.432 452.498, 951.235 455.964, 951.997 456.671, 952.152 " fill="none" stroke="rgb(0, 0, 0)" stroke-linecap="butt" stroke-linejoin="round" stroke-opacity="1.0" stroke-width="3.0" />
            <path d=" M 473.065, 170.797 468.863, 171.449 464.605, 172.972 460.300, 175.390 455.957, 178.730 451.588, 183.013 447.203, 188.260 442.815, 194.489 438.436, 201.713 434.080, 209.943 429.847, 219.003 429.762, 219.187 427.085, 225.622 425.495, 229.445 422.004, 238.816 421.296, 240.716 418.118, 250.198 417.181, 252.992 414.284, 262.563 413.165, 266.260 410.524, 275.905 409.266, 280.501 409.056, 281.346 406.649, 291.052 405.499, 295.690 403.309, 305.447 401.883, 311.796 399.892, 321.596 398.433, 328.782 396.630, 338.618 395.166, 346.604 393.539, 356.470 392.097, 365.212 390.637, 375.105 389.243, 384.551 387.941, 394.466 386.617, 404.558 385.468, 414.492 384.319, 424.426 384.233, 425.167 383.231, 435.117 382.229, 445.067 382.104, 446.305 381.245, 456.268 380.385, 466.231 380.241, 467.895 379.521, 477.869 378.800, 487.843 378.654, 489.855 378.070, 499.838 377.485, 509.821 377.352, 512.102 376.902, 522.091 376.452, 532.081 376.340, 534.547 376.024, 544.542 375.707, 554.537 375.625, 557.103 375.441, 567.101 375.257, 577.099 375.210, 579.678 375.159, 589.678 375.108, 599.678 375.096, 602.183 375.179, 612.183 375.263, 622.182 375.283, 624.528 375.502, 634.525 375.722, 644.523 375.769, 646.624 376.127, 656.618 376.486, 666.611 376.550, 668.386 377.051, 678.374 377.552, 688.361 377.621, 689.731 378.268, 699.710 378.916, 709.689 378.974, 710.579 379.774, 720.547 380.575, 730.515 380.602, 730.855 381.561, 740.809 382.494, 750.489 383.620, 760.426 384.638, 769.417 385.940, 779.331 387.023, 787.578 388.513, 797.467 389.636, 804.921 391.326, 814.777 392.461, 821.399 394.367, 831.215 395.485, 836.970 397.626, 846.738 398.691, 851.601 401.089, 861.309 402.065, 865.264 404.746, 874.898 405.591, 877.937 408.585, 887.478 409.252, 889.604 412.598, 899.027 413.033, 900.254 416.775, 909.528 416.919, 909.884 420.894, 918.493 424.943, 926.086 429.052, 932.671 433.207, 938.263 437.395, 942.876 441.603, 946.530 445.819, 949.248 450.031, 951.053 454.231, 951.972 " fill="none" stroke="rgb(0, 0, 0)" stroke-linecap="butt" stroke-linejoin="round" stroke-opacity="1.0" stroke-width="3.0" />
            <path d=" M 475.491, 170.730 473.065, 170.797 " fill="none" stroke="rgb(0, 0, 0)" stroke-linecap="butt" stroke-linejoin="round" stroke-opacity="1.0" stroke-width="3.0" />
            <path d=" M 551.998, 729.888 552.296, 727.566 553.472, 717.635 553.914, 713.902 554.999, 703.961 555.420, 700.107 556.416, 690.157 556.813, 686.196 557.724, 676.237 558.094, 672.180 558.921, 662.214 559.264, 658.073 560.007, 648.101 560.321, 643.886 560.984, 633.908 561.267, 629.633 561.849, 619.650 562.102, 615.323 562.605, 605.336 562.825, 600.969 563.249, 590.978 563.436, 586.581 563.783, 576.587 563.936, 572.170 564.205, 562.174 564.324, 557.748 564.516, 547.750 564.600, 543.325 564.714, 533.326 564.765, 528.911 564.784, 523.590 " fill="none" stroke="rgb(0, 0, 0)" stroke-linecap="butt" stroke-linejoin="round" stroke-opacity="1.0" stroke-width="3.0" />
            <path d=" M 455.983, 977.073 458.392, 977.259 462.853, 977.012 467.271, 975.873 471.637, 973.878 475.944, 971.062 480.184, 967.460 484.350, 963.109 488.436, 958.044 492.438, 952.301 496.351, 945.913 500.170, 938.915 503.892, 931.339 507.514, 923.217 511.033, 914.581 514.447, 905.460 517.711, 896.008 517.754, 895.884 520.798, 886.358 520.952, 885.879 522.509, 880.632 524.039, 875.473 526.701, 865.833 527.016, 864.691 529.508, 855.006 529.881, 853.557 532.216, 843.834 532.633, 842.096 534.821, 832.339 535.272, 830.330 537.323, 820.542 537.797, 818.279 538.004, 817.222 " fill="none" stroke="rgb(0, 0, 0)" stroke-linecap="butt" stroke-linejoin="round" stroke-opacity="1.0" stroke-width="3.0" />
            <path d=" M 539.637, 242.116 538.926, 238.953 536.550, 229.240 536.348, 228.413 533.773, 218.750 533.643, 218.261 530.851, 208.659 530.812, 208.524 527.855, 199.228 524.773, 190.402 521.566, 182.075 518.235, 174.276 514.782, 167.037 511.210, 160.390 507.520, 154.368 503.715, 149.004 499.799, 144.334 495.776, 140.393 491.650, 137.214 487.427, 134.835 483.113, 133.290 478.714, 132.615 476.544, 132.726 474.238, 132.845 469.693, 134.012 465.090, 136.150 460.437, 139.289 455.746, 143.458 451.030, 148.683 446.300, 154.988 441.572, 162.393 436.859, 170.914 432.493, 179.911 432.177, 180.562 428.229, 189.750 427.544, 191.345 423.964, 200.682 422.975, 203.262 420.091, 211.652 418.489, 216.311 415.533, 225.864 414.104, 230.480 413.501, 232.642 412.600, 235.865 409.911, 245.497 409.839, 245.752 407.392, 255.448 405.713, 262.102 403.489, 271.851 401.745, 279.498 399.728, 289.292 397.954, 297.900 396.129, 307.732 394.360, 317.263 392.715, 327.126 391.069, 336.990 390.979, 337.531 389.976, 344.258 388.501, 354.148 387.831, 358.642 386.518, 368.555 385.205, 378.469 384.932, 380.527 383.774, 390.460 382.615, 400.393 382.298, 403.112 381.289, 413.060 380.279, 423.009 379.944, 426.312 379.079, 436.274 378.214, 446.237 377.883, 450.040 377.158, 460.014 376.433, 469.987 376.127, 474.203 375.539, 484.186 374.952, 494.168 374.685, 498.704 374.233, 508.694 373.781, 518.683 373.566, 523.442 373.248, 533.437 372.931, 543.432 372.776, 548.314 372.592, 558.312 372.408, 568.310 372.318, 573.215 372.268, 583.215 372.218, 593.215 372.194, 598.042 372.280, 608.041 372.365, 618.041 372.405, 622.689 372.627, 632.686 372.850, 642.684 372.947, 647.055 373.309, 657.048 373.671, 667.042 373.816, 671.040 374.322, 681.027 374.827, 691.014 375.006, 694.549 375.660, 704.527 376.313, 714.506 376.509, 717.489 377.316, 727.456 378.122, 737.424 378.313, 739.776 379.280, 749.729 380.247, 759.682 380.407, 761.329 381.543, 771.264 382.679, 781.200 382.779, 782.075 384.093, 791.988 385.413, 801.947 386.917, 811.834 388.294, 820.887 390.001, 830.740 391.406, 838.843 393.333, 848.655 394.730, 855.771 396.897, 865.533 398.251, 871.634 400.680, 881.335 401.949, 886.404 404.668, 896.027 405.302, 898.272 405.807, 900.059 406.626, 902.624 409.668, 912.150 409.806, 912.584 413.211, 921.987 413.930, 923.971 414.586, 925.562 418.159, 934.219 418.468, 934.870 422.478, 943.330 426.869, 951.313 431.316, 958.184 435.806, 963.958 440.321, 968.659 444.851, 972.311 449.380, 974.941 453.897, 976.580 456.851, 977.026 458.392, 977.259 " fill="none" stroke="rgb(0, 0, 0)" stroke-linecap="butt" stroke-linejoin="round" stroke-opacity="1.0" stroke-width="3.0" />
            <path d=" M 360.833, 546.301 360.777, 548.053 360.593, 558.051 360.410, 568.049 360.321, 572.915 360.275, 582.915 360.229, 592.915 360.207, 597.703 360.222, 599.269 360.315, 609.269 360.408, 619.269 360.436, 622.312 360.670, 632.309 360.903, 642.306 361.005, 646.641 361.191, 651.588 361.568, 661.581 361.789, 667.439 361.908, 670.590 362.155, 675.290 362.679, 685.277 362.918, 689.819 363.140, 694.063 363.187, 694.747 " fill="none" stroke="rgb(0, 0, 0)" stroke-linecap="butt" stroke-linejoin="round" stroke-opacity="1.0" stroke-width="3.0" />
            <path d=" M 476.320, 132.692 471.816, 132.923 467.243, 134.091 462.610, 136.229 457.928, 139.367 453.208, 143.536 448.463, 148.761 443.704, 155.065 438.947, 162.468 434.205, 170.987 429.818, 179.973 429.496, 180.633 425.527, 189.811 424.834, 191.412 421.236, 200.742 420.239, 203.326 416.970, 212.777 415.726, 216.371 412.753, 225.919 411.316, 230.536 410.504, 233.426 408.032, 242.222 407.026, 245.802 404.566, 255.495 402.877, 262.146 401.329, 268.891 399.092, 278.638 398.886, 279.536 396.857, 289.328 395.074, 297.932 393.239, 307.762 391.460, 317.287 389.805, 327.150 388.151, 337.012 388.061, 337.548 386.578, 347.437 385.095, 357.326 384.896, 358.651 383.576, 368.563 382.255, 378.476 381.982, 380.528 381.078, 388.240 379.913, 398.172 379.335, 403.103 378.320, 413.052 377.305, 423.000 376.969, 426.294 376.100, 436.257 375.230, 446.219 374.899, 450.013 374.170, 459.987 373.442, 469.960 373.135, 474.167 372.545, 484.150 371.955, 494.132 371.687, 498.658 371.234, 508.648 370.780, 518.638 370.564, 523.386 370.246, 533.381 369.927, 543.376 369.772, 548.248 369.588, 558.247 369.405, 568.245 369.315, 573.140 369.266, 583.140 369.217, 593.140 369.194, 597.957 369.281, 607.956 369.368, 617.956 369.409, 622.594 369.634, 632.592 369.860, 642.589 369.958, 646.951 370.324, 656.944 370.690, 666.938 370.836, 670.927 371.346, 680.914 371.856, 690.901 372.036, 694.427 372.695, 704.405 373.354, 714.384 373.551, 717.359 374.365, 727.326 375.178, 737.293 375.369, 739.638 376.344, 749.590 377.319, 759.543 377.480, 761.184 378.624, 771.118 379.769, 781.052 379.869, 781.923 381.193, 791.835 382.522, 801.789 384.037, 811.673 385.424, 820.723 387.143, 830.574 388.557, 838.673 390.497, 848.483 391.905, 855.596 394.086, 865.355 395.449, 871.455 397.894, 881.151 398.659, 884.186 399.172, 886.221 401.909, 895.840 402.005, 896.176 403.056, 899.873 405.438, 907.280 407.082, 912.396 410.508, 921.791 411.233, 923.781 411.741, 925.003 415.490, 934.027 419.837, 943.137 424.257, 951.120 428.734, 957.990 433.252, 963.765 437.797, 968.467 442.355, 972.120 446.914, 974.751 451.460, 976.392 455.983, 977.073 " fill="none" stroke="rgb(0, 0, 0)" stroke-linecap="butt" stroke-linejoin="round" stroke-opacity="1.0" stroke-width="3.0" />
            <path d=" M 478.714, 132.615 476.320, 132.692 " fill="none" stroke="rgb(0, 0, 0)" stroke-linecap="butt" stroke-linejoin="round" stroke-opacity="1.0" stroke-width="3.0" />
            <path d=" M 544.921, 244.369 543.442, 237.089 541.286, 227.324 540.925, 225.688 538.591, 215.964 538.276, 214.651 535.750, 204.975 535.496, 204.003 532.758, 194.385 532.584, 193.771 529.614, 184.222 529.539, 183.983 526.363, 174.668 523.056, 165.857 519.619, 157.582 516.052, 149.874 512.359, 142.768 508.541, 136.300 504.600, 130.504 500.541, 125.417 496.366, 121.078 492.081, 117.524 487.690, 114.794 483.199, 112.925 478.616, 111.957 473.948, 111.927 469.130, 112.095 464.326, 113.042 459.455, 115.000 454.526, 118.004 449.552, 122.085 444.546, 127.274 439.522, 133.598 434.493, 141.080 429.476, 149.740 424.959, 158.662 424.487, 159.593 420.406, 168.722 419.545, 170.647 415.849, 179.939 414.668, 182.908 411.315, 192.329 409.875, 196.372 406.829, 205.897 405.186, 211.031 402.417, 220.640 400.622, 226.867 398.105, 236.545 396.203, 243.858 393.917, 253.593 391.951, 261.970 389.878, 271.753 387.885, 281.163 386.012, 290.986 384.139, 300.809 384.028, 301.389 382.773, 308.724 381.086, 318.581 380.400, 322.591 378.889, 332.476 377.377, 342.361 377.019, 344.703 375.675, 354.612 374.331, 364.521 373.906, 367.652 372.721, 377.581 371.536, 387.511 371.077, 391.356 370.045, 401.303 369.014, 411.250 368.549, 415.729 367.666, 425.690 366.782, 435.651 366.337, 440.675 365.598, 450.648 364.859, 460.621 364.453, 466.095 363.855, 476.077 363.532, 481.471 362.935, 491.453 362.909, 491.883 362.450, 501.872 361.992, 511.862 361.713, 517.930 361.393, 527.925 361.072, 537.920 360.873, 544.126 360.833, 546.301 360.649, 556.299 360.466, 566.298 360.392, 570.356 360.363, 576.568 360.317, 586.568 360.272, 596.509 360.365, 606.508 360.458, 616.508 360.513, 622.471 360.747, 632.468 360.980, 642.465 361.113, 648.131 361.239, 651.478 361.616, 661.471 361.826, 667.042 362.065, 673.382 362.560, 682.803 362.964, 690.505 363.187, 694.747 363.364, 698.121 363.797, 704.517 364.473, 714.494 364.998, 722.249 365.832, 732.215 366.665, 742.180 366.958, 745.675 367.956, 755.625 368.954, 765.575 369.229, 768.311 370.400, 778.242 371.572, 788.173 371.797, 790.080 373.151, 799.988 374.506, 809.896 374.645, 810.912 376.195, 820.791 377.757, 830.743 379.516, 840.587 379.676, 841.480 381.113, 849.520 383.099, 859.321 384.696, 867.197 386.929, 876.945 388.485, 883.737 390.989, 893.418 392.461, 899.110 395.264, 908.709 396.604, 913.295 399.741, 922.790 400.893, 926.278 404.406, 935.641 405.311, 938.053 409.248, 947.246 409.837, 948.620 414.258, 957.589 414.453, 957.984 419.141, 966.158 423.884, 973.158 428.665, 979.005 433.469, 983.724 438.282, 987.344 443.090, 989.896 447.879, 991.412 452.639, 991.930 457.430, 992.308 462.090, 991.858 466.701, 990.481 471.254, 988.218 475.739, 985.105 480.150, 981.183 484.481, 976.490 488.725, 971.063 492.877, 964.941 496.933, 958.159 500.888, 950.754 504.740, 942.761 508.485, 934.212 512.121, 925.141 515.579, 915.758 515.645, 915.579 518.867, 906.113 519.057, 905.557 522.064, 896.020 522.354, 895.102 525.165, 885.505 525.535, 884.242 528.166, 874.595 528.600, 873.005 531.065, 863.314 531.547, 861.415 533.858, 851.686 534.378, 849.496 536.544, 839.734 537.090, 837.272 539.121, 827.480 539.685, 824.764 540.382, 821.169 " fill="none" stroke="rgb(0, 0, 0)" stroke-linecap="butt" stroke-linejoin="round" stroke-opacity="1.0" stroke-width="3.0" />
            <path d=" M 554.158, 734.014 554.556, 730.876 555.723, 720.944 556.214, 716.764 557.291, 706.822 557.757, 702.523 558.746, 692.572 559.184, 688.166 560.088, 678.207 560.496, 673.706 561.316, 663.740 561.693, 659.155 562.432, 649.183 562.776, 644.526 563.434, 634.548 563.745, 629.831 564.324, 619.847 564.600, 615.080 565.100, 605.092 565.341, 600.284 565.764, 590.293 565.968, 585.455 566.314, 575.461 566.481, 570.603 566.750, 560.607 566.880, 555.739 567.072, 545.741 567.165, 540.873 567.280, 530.874 567.336, 526.015 567.357, 520.587 " fill="none" stroke="rgb(0, 0, 0)" stroke-linecap="butt" stroke-linejoin="round" stroke-opacity="1.0" stroke-width="3.0" />
            <path d=" M 473.948, 111.927 469.204, 112.872 464.392, 114.829 459.524, 117.833 454.611, 121.914 449.666, 127.105 444.701, 133.431 439.733, 140.916 434.776, 149.580 430.303, 158.524 429.846, 159.437 425.807, 168.585 424.962, 170.498 421.305, 179.805 420.142, 182.766 418.266, 188.099 415.404, 196.238 412.391, 205.773 410.769, 210.906 408.030, 220.524 406.256, 226.753 403.767, 236.438 401.887, 243.755 401.223, 246.618 398.963, 256.359 397.682, 261.879 397.447, 263.001 395.398, 272.789 393.661, 281.087 391.809, 290.914 389.957, 300.740 389.846, 301.328 389.190, 305.202 387.522, 315.062 386.256, 322.545 384.761, 332.433 383.267, 342.320 382.911, 344.674 381.581, 354.585 380.251, 364.496 379.829, 367.640 378.798, 376.374 377.626, 386.305 377.029, 391.363 376.008, 401.311 374.987, 411.259 374.525, 415.755 373.651, 425.717 372.776, 435.679 372.333, 440.721 371.601, 450.694 370.869, 460.668 370.595, 464.407 370.466, 466.161 369.873, 476.143 369.281, 486.126 368.934, 491.969 368.478, 501.959 368.023, 511.949 367.746, 518.037 367.426, 528.032 367.107, 538.027 366.908, 544.254 366.725, 554.252 366.541, 564.250 366.426, 570.505 366.378, 580.505 366.331, 590.505 366.301, 596.678 366.390, 606.678 366.480, 616.678 366.533, 622.660 366.761, 632.658 366.989, 642.655 367.118, 648.341 367.488, 658.334 367.858, 668.327 368.053, 673.611 368.568, 683.598 369.082, 693.585 369.329, 698.368 369.994, 708.346 370.658, 718.324 370.938, 722.514 371.758, 732.481 372.578, 742.447 372.867, 745.956 373.850, 755.908 374.833, 765.859 375.104, 768.608 376.258, 778.541 377.412, 788.475 377.635, 790.392 378.970, 800.303 380.306, 810.213 380.443, 811.237 381.972, 821.120 383.512, 831.081 385.251, 840.948 386.695, 849.143 386.823, 849.869 388.782, 859.675 390.357, 867.556 392.561, 877.311 393.074, 879.584 394.023, 883.783 394.095, 884.105 396.567, 893.795 398.019, 899.485 400.787, 909.095 401.545, 911.726 402.107, 913.677 405.206, 923.184 406.341, 926.665 409.812, 936.043 410.701, 938.444 413.968, 946.173 415.168, 949.014 419.543, 958.006 419.725, 958.380 424.353, 966.554 429.036, 973.554 433.756, 979.400 438.500, 984.117 443.252, 987.735 448.000, 990.283 452.729, 991.796 457.430, 992.308 " fill="none" stroke="rgb(0, 0, 0)" stroke-linecap="butt" stroke-linejoin="round" stroke-opacity="1.0" stroke-width="3.0" />
            <path d=" M 565.298, 523.599 565.290, 521.977 565.316, 520.551 565.320, 520.341 565.385, 518.720 565.429, 518.035 565.486, 517.141 565.620, 515.633 565.785, 514.220 565.978, 512.926 566.196, 511.774 566.224, 511.661 566.435, 510.784 566.691, 509.971 566.960, 509.348 567.236, 508.927 567.383, 508.815 567.515, 508.713 567.793, 508.710 " fill="none" stroke="rgb(0, 0, 0)" stroke-linecap="butt" stroke-linejoin="round" stroke-opacity="1.0" stroke-width="3.0" />
            <path d=" M 567.993, 520.598 567.978, 520.102 567.948, 519.636 567.906, 519.211 567.851, 518.841 567.785, 518.534 567.711, 518.300 567.629, 518.145 567.543, 518.072 " fill="none" stroke="rgb(0, 0, 0)" stroke-linecap="butt" stroke-linejoin="round" stroke-opacity="1.0" stroke-width="3.0" />
            <path d=" M 530.462, 472.298 530.578, 477.913 530.862, 477.916 536.154, 477.981 536.361, 477.804 536.103, 472.311 530.715, 472.091 530.583, 472.199 530.462, 472.298 " fill="none" stroke="rgb(0, 0, 0)" stroke-linecap="butt" stroke-linejoin="round" stroke-opacity="1.0" stroke-width="3.0" />
            <path d=" M 536.042, 472.362 530.462, 472.298 " fill="none" stroke="rgb(0, 0, 0)" stroke-linecap="butt" stroke-linejoin="round" stroke-opacity="1.0" stroke-width="3.0" />
            <path d=" M 536.154, 477.981 536.042, 472.362 536.103, 472.311 " fill="none" stroke="rgb(0, 0, 0)" stroke-linecap="butt" stroke-linejoin="round" stroke-opacity="1.0" stroke-width="3.0" />
            <path d=" M 532.247, 474.735 532.188, 474.945 532.171, 475.162 532.200, 475.391 532.272, 475.603 532.383, 475.793 532.401, 475.822 532.543, 475.982 532.714, 476.109 532.749, 476.127 532.931, 476.213 532.970, 476.224 533.147, 476.265 533.174, 476.269 533.207, 476.273 533.245, 476.276 533.288, 476.277 533.330, 476.277 533.372, 476.275 533.413, 476.273 533.451, 476.269 533.484, 476.264 533.511, 476.258 533.684, 476.211 533.725, 476.198 533.792, 476.167 " fill="none" stroke="rgb(0, 0, 0)" stroke-linecap="butt" stroke-linejoin="round" stroke-opacity="1.0" stroke-width="3.0" />
            <path d=" M 532.357, 474.521 532.345, 474.541 532.304, 474.622 532.282, 474.665 532.282, 474.665 532.247, 474.735 532.284, 474.661 " fill="none" stroke="rgb(0, 0, 0)" stroke-linecap="butt" stroke-linejoin="round" stroke-opacity="1.0" stroke-width="3.0" />
            <path d=" M 533.792, 476.167 533.930, 476.092 534.056, 475.997 534.166, 475.885 534.259, 475.758 534.332, 475.618 534.385, 475.469 534.415, 475.313 534.424, 475.153 534.409, 474.993 534.372, 474.836 534.313, 474.685 534.234, 474.543 534.136, 474.414 534.021, 474.299 533.892, 474.202 533.750, 474.123 533.600, 474.065 533.444, 474.029 533.285, 474.016 533.126, 474.026 532.972, 474.058 532.824, 474.112 532.685, 474.187 532.560, 474.282 532.450, 474.394 532.357, 474.521 " fill="none" stroke="rgb(0, 0, 0)" stroke-linecap="butt" stroke-linejoin="round" stroke-opacity="1.0" stroke-width="3.0" />
            <path d=" M 628.593, 874.484 630.764, 874.965 638.679, 876.259 646.583, 876.815 654.460, 876.650 662.294, 875.784 670.069, 874.235 677.771, 872.025 685.387, 869.173 692.904, 865.701 700.309, 861.631 707.593, 856.985 714.745, 851.784 721.756, 846.051 728.617, 839.807 735.320, 833.075 741.857, 825.876 748.221, 818.231 754.305, 810.295 754.408, 810.161 760.188, 802.001 760.410, 801.688 765.896, 793.327 766.222, 792.830 771.425, 784.290 771.840, 783.609 776.770, 774.908 777.260, 774.043 781.926, 765.198 782.478, 764.152 786.888, 755.177 787.489, 753.954 791.652, 744.862 792.291, 743.468 796.215, 734.271 796.880, 732.712 800.573, 723.419 801.255, 721.702 804.722, 712.322 805.412, 710.456 808.660, 700.998 809.349, 698.991 812.383, 689.462 813.065, 687.322 815.890, 677.729 816.556, 675.466 819.177, 665.815 819.822, 663.437 822.242, 653.735 822.861, 651.253 825.084, 641.503 825.672, 638.926 827.700, 629.134 828.252, 626.472 830.089, 616.642 830.601, 613.906 832.249, 604.043 832.717, 601.241 834.178, 591.349 834.599, 588.492 835.874, 578.574 836.247, 575.674 837.336, 565.733 837.658, 562.798 838.563, 552.839 838.832, 549.880 839.553, 539.906 839.768, 536.934 840.305, 526.948 840.465, 523.972 840.817, 513.978 840.921, 511.009 841.087, 501.010 841.136, 498.058 841.116, 488.058 841.110, 485.134 840.900, 475.136 840.840, 472.250 840.440, 462.258 840.326, 459.421 839.732, 449.438 839.567, 446.660 838.778, 436.692 838.563, 433.983 837.574, 424.032 837.312, 421.405 836.120, 411.476 835.815, 408.940 834.414, 399.038 834.070, 396.603 832.456, 386.734 832.076, 384.411 830.244, 374.580 829.834, 372.380 827.778, 362.593 827.343, 360.525 825.055, 350.790 824.603, 348.865 822.076, 339.189 821.613, 337.416 818.840, 327.808 818.375, 326.195 815.346, 316.665 814.888, 315.222 811.594, 305.781 811.153, 304.515 807.583, 295.174 807.171, 294.093 803.314, 284.867 802.942, 283.976 798.787, 274.880 798.469, 274.184 794.003, 265.237 793.753, 264.737 788.962, 255.959 788.797, 255.657 783.667, 247.073 783.603, 246.965 778.174, 238.683 772.514, 230.834 766.627, 223.440 760.518, 216.524 754.193, 210.111 747.657, 204.222 740.918, 198.883 733.984, 194.116 726.862, 189.946 719.562, 186.395 712.096, 183.487 704.473, 181.245 696.707, 179.690 688.811, 178.843 680.799, 178.726 672.687, 179.357 670.452, 179.557 " fill="none" stroke="rgb(0, 0, 0)" stroke-linecap="butt" stroke-linejoin="round" stroke-opacity="1.0" stroke-width="3.0" />
            <path d=" M 630.764, 874.965 629.441, 874.623 622.858, 872.918 614.977, 870.101 607.143, 866.503 599.376, 862.112 591.697, 856.918 584.128, 850.916 576.692, 844.101 569.788, 836.867 569.411, 836.472 562.974, 828.819 562.310, 828.030 556.332, 820.013 555.412, 818.780 549.882, 810.448 548.742, 808.729 544.156, 800.985 542.323, 797.889 541.850, 796.995 540.429, 794.309 536.181, 786.276 535.914, 785.711 534.491, 782.699 530.338, 773.908 530.118, 773.386 528.598, 769.778 527.047, 766.097 524.820, 760.808 521.311, 751.444 519.647, 747.003 518.869, 744.656 515.721, 735.165 514.844, 732.522 512.042, 722.923 510.801, 718.668 510.431, 717.401 507.964, 707.710 506.428, 701.678 504.285, 691.910 502.855, 685.394 501.025, 675.563 499.728, 668.596 498.202, 658.713 497.063, 651.332 495.834, 641.407 494.875, 633.654 493.936, 623.698 493.174, 615.617 492.520, 605.638 491.971, 597.279 491.596, 587.286 491.274, 578.700 491.175, 568.701 491.088, 559.941 491.261, 549.943 491.414, 541.065 491.858, 531.075 492.255, 522.136 492.460, 519.264 493.090, 510.453 493.270, 507.939 493.608, 503.218 494.590, 493.267 495.467, 484.376 496.719, 474.455 497.827, 465.674 499.350, 455.791 500.678, 447.175 502.474, 437.338 504.008, 428.940 506.081, 419.158 507.803, 411.030 510.157, 401.311 511.572, 395.469 512.048, 393.503 514.688, 383.858 516.725, 376.413 519.657, 366.853 521.815, 359.814 525.045, 350.350 527.295, 343.755 528.050, 341.758 531.586, 332.404 533.145, 328.281 536.996, 319.052 538.666, 315.050 539.340, 313.435 540.123, 311.730 541.573, 308.574 545.790, 299.396 545.855, 299.255 547.370, 296.256 547.807, 295.392 549.172, 292.690 549.262, 292.513 549.885, 291.280 552.298, 286.503 552.666, 285.776 557.521, 277.034 559.329, 273.779 559.746, 273.028 564.958, 264.494 567.069, 261.039 572.650, 252.741 573.655, 251.247 574.608, 249.829 580.569, 241.800 582.337, 239.419 588.689, 231.695 590.229, 229.823 596.981, 222.446 598.258, 221.050 605.417, 214.068 606.399, 213.110 613.968, 206.574 614.626, 206.006 622.602, 199.974 622.915, 199.737 631.243, 194.302 639.585, 189.696 647.921, 185.910 656.230, 182.933 664.492, 180.753 672.402, 179.405 672.687, 179.357 " fill="none" stroke="rgb(0, 0, 0)" stroke-linecap="butt" stroke-linejoin="round" stroke-opacity="1.0" stroke-width="3.0" />
            <path d=" M 670.452, 179.557 662.246, 180.954 653.973, 183.133 645.654, 186.108 637.308, 189.892 628.955, 194.496 620.618, 199.926 612.637, 205.951 612.320, 206.190 604.745, 212.718 604.084, 213.288 596.919, 220.264 595.935, 221.221 589.176, 228.591 587.897, 229.985 581.538, 237.703 579.997, 239.573 574.029, 247.596 572.261, 249.973 571.563, 251.008 565.975, 259.301 564.715, 261.171 559.495, 269.701 557.386, 273.148 552.523, 281.886 551.786, 283.211 550.300, 285.882 548.956, 288.536 548.703, 289.036 548.230, 289.971 547.244, 291.918 543.484, 299.347 543.257, 299.840 540.936, 304.882 539.496, 308.010 536.963, 313.511 536.540, 314.525 532.683, 323.751 530.764, 328.341 527.273, 337.560 527.190, 337.778 525.718, 341.667 524.911, 343.798 521.676, 353.260 519.427, 359.840 516.491, 369.399 514.335, 376.420 511.691, 386.064 509.656, 393.490 507.298, 403.208 505.409, 410.997 503.333, 420.780 501.612, 428.887 499.814, 438.724 498.282, 447.101 497.707, 450.829 496.182, 460.712 495.431, 465.579 494.178, 475.500 493.671, 479.515 493.072, 484.259 492.089, 494.211 491.214, 503.079 491.124, 504.335 490.900, 507.468 490.689, 510.413 490.238, 516.731 490.060, 519.221 489.863, 521.975 489.860, 522.038 489.417, 532.028 489.024, 540.883 488.852, 550.881 488.700, 559.737 488.801, 569.737 488.890, 578.475 489.267, 588.468 489.591, 597.033 490.248, 607.012 490.798, 615.351 491.740, 625.306 492.503, 633.368 493.735, 643.291 494.696, 651.027 496.226, 660.909 497.366, 668.272 499.202, 678.103 500.499, 685.053 502.649, 694.820 503.933, 700.657 504.079, 701.320 506.553, 711.010 508.089, 717.028 510.023, 723.637 512.509, 732.134 515.665, 741.623 516.445, 743.969 517.320, 746.601 520.836, 755.962 522.500, 760.394 526.422, 769.682 528.027, 773.482 529.531, 776.659 533.811, 785.697 533.878, 785.839 533.909, 785.897 535.364, 788.641 539.898, 797.195 540.029, 797.443 541.359, 799.682 543.683, 803.598 546.457, 808.274 551.995, 816.600 553.137, 818.317 559.122, 826.328 560.044, 827.561 566.489, 835.207 567.155, 835.998 574.066, 843.226 574.446, 843.623 581.893, 850.435 589.472, 856.435 597.162, 861.627 604.940, 866.017 612.784, 869.616 620.675, 872.434 628.593, 874.484 " fill="none" stroke="rgb(0, 0, 0)" stroke-linecap="butt" stroke-linejoin="round" stroke-opacity="1.0" stroke-width="3.0" />
            <path d=" M 787.460, 563.107 777.472, 562.613 776.705, 562.575 772.378, 559.842 763.923, 554.503 755.468, 549.163 753.676, 548.032 753.007, 547.608 752.336, 547.184 751.664, 546.759 750.992, 546.334 750.217, 545.705 749.499, 544.837 748.854, 543.747 748.295, 542.456 747.833, 540.988 747.478, 539.371 747.236, 537.636 747.111, 535.817 747.107, 533.948 747.197, 532.478 747.212, 532.246 747.223, 532.065 747.457, 530.206 747.796, 528.456 747.805, 528.406 748.260, 526.701 748.813, 525.122 749.164, 524.343 749.453, 523.700 750.167, 522.462 750.943, 521.432 751.186, 521.194 751.237, 521.144 751.764, 520.629 752.613, 520.068 753.333, 519.702 754.055, 519.336 754.774, 518.970 755.493, 518.606 755.854, 518.423 756.818, 517.934 756.890, 517.898 765.810, 513.378 774.731, 508.859 780.224, 506.076 " fill="none" stroke="rgb(0, 0, 0)" stroke-linecap="butt" stroke-linejoin="round" stroke-opacity="1.0" stroke-width="3.0" />
            <path d=" M 680.398, 254.853 679.449, 254.935 674.649, 255.352 671.979, 255.583 663.494, 257.156 656.254, 259.211 654.969, 259.576 646.430, 262.836 637.901, 266.937 629.415, 271.896 621.198, 277.595 621.004, 277.729 613.228, 284.017 612.704, 284.441 605.380, 291.250 604.547, 292.024 597.674, 299.288 596.564, 300.461 590.133, 308.119 588.785, 309.724 582.780, 317.721 581.235, 319.779 575.652, 328.076 573.948, 330.608 568.788, 339.174 566.966, 342.198 563.783, 348.105 563.324, 348.955 560.456, 354.276 560.325, 354.519 560.014, 355.167 557.743, 359.884 557.387, 360.623 556.194, 363.103 554.060, 367.535 553.113, 369.744 551.600, 373.269 550.558, 375.700 549.007, 379.315 548.199, 381.198 544.637, 390.542 542.882, 395.143 542.765, 395.452 541.381, 399.551 538.182, 409.025 537.773, 410.235 537.551, 410.984 534.705, 420.571 533.245, 425.492 530.753, 435.177 529.212, 441.171 528.814, 442.990 526.677, 452.759 525.702, 457.215 523.918, 467.054 522.739, 473.559 521.303, 483.455 520.335, 490.134 519.242, 500.074 518.496, 506.868 518.458, 507.373 518.432, 507.720 518.257, 510.023 517.501, 519.995 517.221, 523.689 516.956, 529.902 516.531, 539.893 516.500, 540.609 516.390, 550.608 516.314, 557.469 516.522, 567.467 516.661, 574.199 517.191, 584.185 517.538, 590.728 518.396, 600.691 518.938, 606.985 520.131, 616.914 520.851, 622.905 520.876, 623.065 522.412, 632.946 522.636, 634.382 523.264, 638.424 525.155, 648.244 526.163, 653.480 528.420, 663.222 528.820, 664.950 529.531, 668.017 532.166, 677.663 533.346, 681.982 536.375, 691.512 537.209, 694.136 537.445, 694.879 537.587, 695.326 537.725, 695.702 538.886, 698.870 540.316, 702.773 542.233, 708.005 544.711, 713.910 546.147, 717.332 546.186, 717.425 547.257, 719.978 547.585, 720.663 550.535, 726.830 551.226, 728.273 551.998, 729.888 552.632, 731.213 554.158, 734.014 558.333, 741.678 563.605, 750.176 564.333, 751.348 570.110, 759.510 570.601, 760.202 576.900, 767.969 577.110, 768.227 583.831, 775.408 590.737, 781.738 597.798, 787.216 604.987, 791.841 612.279, 795.617 616.550, 797.319 619.646, 798.552 627.063, 800.656 634.506, 801.942 641.951, 802.424 649.377, 802.121 656.763, 801.053 664.087, 799.240 671.331, 796.703 678.479, 793.467 685.511, 789.558 692.415, 784.997 699.173, 779.813 705.775, 774.032 712.206, 767.681 718.454, 760.783 724.511, 753.368 730.365, 745.463 736.008, 737.093 741.250, 728.577 741.430, 728.283 746.339, 719.571 746.626, 719.061 751.214, 710.176 751.587, 709.454 755.867, 700.415 756.308, 699.484 760.290, 690.311 760.782, 689.177 764.478, 679.885 765.005, 678.560 768.423, 669.162 768.971, 667.655 772.120, 658.164 772.676, 656.487 775.563, 646.913 776.116, 645.079 778.749, 635.432 779.288, 633.455 781.672, 623.743 782.189, 621.637 784.328, 611.869 784.814, 609.649 786.713, 599.831 787.162, 597.512 788.825, 587.651 789.230, 585.249 790.659, 575.352 791.016, 572.882 792.213, 562.954 792.517, 560.434 793.485, 550.480 793.733, 547.924 794.471, 537.952 794.611, 536.063 " fill="none" stroke="rgb(0, 0, 0)" stroke-linecap="butt" stroke-linejoin="round" stroke-opacity="1.0" stroke-width="3.0" />
            <path d=" M 780.224, 506.076 790.191, 506.886 790.962, 506.949 " fill="none" stroke="rgb(0, 0, 0)" stroke-linecap="butt" stroke-linejoin="round" stroke-opacity="1.0" stroke-width="3.0" />
            <path d=" M 825.061, 522.207 825.302, 512.210 825.308, 511.937 825.288, 501.937 825.282, 499.275 824.996, 489.279 824.921, 486.664 824.365, 476.679 824.223, 474.126 823.395, 464.161 823.189, 461.686 822.301, 453.661 821.826, 449.364 820.455, 439.458 820.139, 437.179 818.488, 427.316 818.126, 425.155 816.182, 415.346 815.781, 413.322 813.533, 403.578 813.102, 401.709 810.538, 392.043 810.087, 390.343 807.199, 380.769 806.740, 379.249 803.522, 369.781 803.069, 368.450 799.515, 359.103 799.081, 357.962 795.183, 348.753 794.783, 347.807 790.522, 338.761 790.173, 338.021 785.528, 329.165 785.252, 328.638 780.205, 320.005 780.023, 319.692 774.561, 311.315 774.493, 311.211 768.672, 303.219 762.573, 295.733 756.206, 288.770 749.581, 282.363 742.704, 276.556 735.586, 271.382 728.242, 266.874 720.687, 263.053 719.410, 262.539 712.940, 259.935 705.018, 257.527 696.941, 255.853 688.727, 254.951 680.398, 254.853 " fill="none" stroke="rgb(0, 0, 0)" stroke-linecap="butt" stroke-linejoin="round" stroke-opacity="1.0" stroke-width="3.0" />
            <path d=" M 656.254, 259.211 658.572, 260.100 664.856, 263.267 670.967, 267.120 676.893, 271.642 682.621, 276.810 688.140, 282.594 693.444, 288.957 698.526, 295.857 703.381, 303.260 708.001, 311.149 712.377, 319.507 716.502, 328.311 720.371, 337.532 723.890, 346.893 723.983, 347.139 727.175, 356.616 727.337, 357.097 730.224, 366.671 730.435, 367.371 733.029, 377.029 733.275, 377.942 735.583, 387.672 735.848, 388.792 737.879, 398.584 738.152, 399.901 739.915, 409.745 740.184, 411.246 741.690, 421.132 741.944, 422.799 743.205, 432.719 743.435, 434.533 744.463, 444.480 744.664, 446.420 745.467, 456.388 745.632, 458.439 746.210, 468.422 746.334, 470.570 746.689, 480.563 746.768, 482.794 746.901, 492.793 746.931, 495.091 746.846, 505.090 746.826, 507.437 746.639, 513.680 746.454, 514.886 746.213, 516.059 745.919, 517.188 745.576, 518.259 745.187, 519.262 744.755, 520.186 744.286, 521.022 743.783, 521.760 743.253, 522.394 742.701, 522.915 742.132, 523.320 741.553, 523.602 740.970, 523.761 740.388, 523.793 734.409, 523.477 " fill="none" stroke="rgb(0, 0, 0)" stroke-linecap="butt" stroke-linejoin="round" stroke-opacity="1.0" stroke-width="3.0" />
            <path d=" M 800.238, 536.251 800.979, 536.299 803.228, 536.444 812.710, 536.835 814.642, 536.914 822.411, 537.235 824.359, 537.315 824.374, 537.316 830.459, 537.585 830.958, 527.598 831.122, 524.308 831.364, 514.311 831.443, 511.034 831.427, 501.034 831.422, 497.785 831.144, 487.789 831.055, 484.586 830.513, 474.601 830.343, 471.460 829.533, 461.493 829.284, 458.430 828.203, 448.489 827.880, 445.521 826.521, 435.614 826.129, 432.757 824.486, 422.892 824.031, 420.162 822.098, 410.350 821.588, 407.761 819.357, 398.014 818.801, 395.581 816.262, 385.908 815.669, 383.647 813.697, 377.026 812.195, 371.985 809.014, 362.504 808.382, 360.621 806.771, 356.336 804.232, 349.584 800.361, 340.364 799.748, 338.902 795.514, 329.842 794.934, 328.601 790.324, 319.727 789.796, 318.711 784.794, 310.052 784.337, 309.261 780.086, 302.647 778.565, 300.281 773.947, 293.837 772.487, 291.799 766.232, 283.997 766.111, 283.846 759.445, 276.453 752.500, 269.650 745.287, 263.464 737.819, 257.928 730.110, 253.071 722.175, 248.922 714.030, 245.507 705.694, 242.856 697.187, 240.994 688.528, 239.945 679.742, 239.732 669.742, 239.774 661.806, 239.807 " fill="none" stroke="rgb(0, 0, 0)" stroke-linecap="butt" stroke-linejoin="round" stroke-opacity="1.0" stroke-width="3.0" />
            <path d=" M 679.742, 239.732 671.610, 240.323 670.852, 240.378 661.885, 241.899 660.487, 242.273 652.867, 244.311 643.827, 247.628 634.796, 251.861 626.121, 256.835 625.805, 257.016 617.541, 262.646 616.887, 263.092 609.056, 269.312 608.074, 270.092 600.689, 276.834 599.403, 278.009 592.467, 285.212 590.908, 286.830 584.419, 294.438 582.625, 296.541 576.578, 304.505 574.590, 307.123 568.976, 315.398 566.839, 318.549 561.648, 327.096 560.056, 329.717 559.503, 330.628 559.406, 330.788 558.279, 332.861 555.437, 338.087 553.886, 340.939 552.328, 343.803 548.005, 352.693 546.448, 355.894 545.639, 357.556 541.658, 366.730 539.371, 371.999 535.772, 381.329 534.585, 384.407 533.555, 387.079 530.331, 396.545 528.221, 402.742 525.364, 412.326 523.397, 418.929 520.900, 428.612 519.106, 435.573 516.965, 445.341 515.371, 452.608 513.581, 462.446 512.213, 469.963 510.770, 479.858 509.646, 487.565 508.549, 497.504 507.684, 505.338 507.373, 509.452 506.620, 519.424 506.335, 523.206 " fill="none" stroke="rgb(0, 0, 0)" stroke-linecap="butt" stroke-linejoin="round" stroke-opacity="1.0" stroke-width="3.0" />
            <path d=" M 756.890, 517.898 756.910, 517.606 756.855, 517.818 756.818, 517.934 " fill="none" stroke="rgb(0, 0, 0)" stroke-linecap="butt" stroke-linejoin="round" stroke-opacity="1.0" stroke-width="3.0" />
            <path d=" M 807.283, 527.887 808.145, 527.932 808.658, 527.903 809.172, 527.764 809.684, 527.517 810.189, 527.166 810.683, 526.715 811.163, 526.167 811.624, 525.529 812.063, 524.806 812.477, 524.003 812.862, 523.126 813.216, 522.184 813.536, 521.182 813.553, 521.120 813.819, 520.129 814.063, 519.032 823.219, 521.675 825.061, 522.207 824.862, 522.862 824.511, 523.809 824.128, 524.690 823.717, 525.497 823.282, 526.224 822.997, 526.625 822.825, 526.866 822.350, 527.416 821.860, 527.870 821.359, 528.224 820.852, 528.472 820.343, 528.612 819.835, 528.642 813.699, 528.323 807.317, 527.992 807.283, 527.887 806.877, 526.644 806.346, 525.457 805.734, 524.452 805.050, 523.645 804.307, 523.050 803.515, 522.679 802.688, 522.537 799.015, 522.321 798.485, 522.290 790.816, 521.841 790.616, 521.862 789.962, 521.931 789.101, 522.251 788.285, 522.799 787.933, 523.156 787.529, 523.567 786.812, 524.540 786.145, 525.702 785.540, 527.034 785.008, 528.513 784.559, 530.114 784.198, 531.809 783.934, 533.569 783.771, 535.365 789.689, 535.746 789.924, 535.761 794.611, 536.063 795.694, 536.133 799.993, 536.310 800.231, 536.320 800.238, 536.251 800.258, 536.050 800.288, 535.750 800.289, 535.744 800.310, 535.620 800.383, 535.197 800.516, 534.677 800.681, 534.203 800.793, 533.965 800.876, 533.789 801.093, 533.446 801.328, 533.184 801.574, 533.009 801.824, 532.926 802.072, 532.937 " fill="none" stroke="rgb(0, 0, 0)" stroke-linecap="butt" stroke-linejoin="round" stroke-opacity="1.0" stroke-width="3.0" />
            <path d=" M 772.378, 559.842 771.161, 569.768 770.986, 571.191 769.528, 581.084 769.183, 583.428 767.483, 593.282 767.090, 595.560 765.145, 605.369 764.710, 607.565 762.518, 617.322 762.046, 619.422 759.602, 629.119 759.101, 631.107 756.400, 640.736 755.878, 642.599 752.916, 652.150 752.381, 653.874 749.151, 663.338 748.615, 664.909 745.109, 674.274 744.583, 675.681 740.793, 684.935 740.289, 686.166 736.209, 695.295 735.741, 696.341 731.358, 705.329 730.943, 706.180 726.247, 715.009 725.901, 715.659 720.881, 724.307 720.623, 724.753 715.267, 733.198 715.115, 733.438 709.385, 741.686 703.442, 749.472 697.297, 756.771 690.958, 763.558 684.437, 769.803 677.746, 775.482 670.897, 780.571 663.905, 785.043 656.785, 788.870 649.551, 792.031 642.222, 794.502 634.815, 796.259 627.350, 797.278 619.845, 797.542 616.550, 797.319 " fill="none" stroke="rgb(0, 0, 0)" stroke-linecap="butt" stroke-linejoin="round" stroke-opacity="1.0" stroke-width="3.0" />
            <path d=" M 789.924, 535.761 789.186, 545.734 789.049, 547.589 788.030, 557.537 787.460, 563.107 779.037, 557.718 777.320, 556.619 772.991, 553.850 765.166, 548.843 764.503, 548.419 763.838, 547.993 763.173, 547.567 762.508, 547.140 761.740, 546.508 761.029, 545.637 760.391, 544.542 759.838, 543.245 759.382, 541.771 759.031, 540.147 758.793, 538.403 758.700, 537.012 758.671, 536.575 758.669, 534.697 758.772, 533.035 758.786, 532.806 759.020, 530.937 759.153, 530.244 759.367, 529.128 759.820, 527.414 760.369, 525.827 761.005, 524.397 761.714, 523.153 762.484, 522.118 763.298, 521.310 764.140, 520.746 764.855, 520.377 765.570, 520.009 766.284, 519.641 766.997, 519.274 767.355, 519.089 776.247, 514.516 780.092, 512.539 788.985, 507.965 790.962, 506.949 790.750, 516.946 790.719, 518.449 790.616, 521.862 " fill="none" stroke="rgb(0, 0, 0)" stroke-linecap="butt" stroke-linejoin="round" stroke-opacity="1.0" stroke-width="3.0" />
            <path d=" M 764.551, 537.397 764.245, 537.237 763.969, 536.936 763.733, 536.506 763.549, 535.966 763.426, 535.342 763.368, 534.659 763.378, 533.947 763.445, 533.340 763.456, 533.238 763.460, 533.219 763.598, 532.564 763.798, 531.953 764.047, 531.432 764.334, 531.024 764.647, 530.748 764.971, 530.614 765.293, 530.630 " fill="none" stroke="rgb(0, 0, 0)" stroke-linecap="butt" stroke-linejoin="round" stroke-opacity="1.0" stroke-width="3.0" />
            <path d=" M 765.293, 530.630 765.598, 530.793 765.874, 531.096 766.108, 531.527 766.291, 532.065 766.413, 532.687 766.471, 533.368 766.468, 533.537 766.460, 534.077 766.383, 534.783 766.242, 535.456 766.043, 536.065 765.795, 536.586 765.509, 536.994 765.197, 537.273 764.873, 537.409 764.551, 537.397 " fill="none" stroke="rgb(0, 0, 0)" stroke-linecap="butt" stroke-linejoin="round" stroke-opacity="1.0" stroke-width="3.0" />
            <path d=" M 799.993, 536.310 799.255, 546.283 799.074, 548.736 798.108, 558.690 797.803, 561.831 796.608, 571.759 796.235, 574.864 794.809, 584.762 794.370, 587.813 792.712, 597.675 792.210, 600.657 790.317, 610.476 789.758, 613.374 787.626, 623.144 787.016, 625.940 784.641, 635.654 783.986, 638.332 781.364, 647.982 780.672, 650.528 777.796, 660.106 777.076, 662.504 773.940, 672.000 773.201, 674.237 769.797, 683.639 769.052, 685.700 765.373, 694.998 764.632, 696.869 760.668, 706.050 759.947, 707.721 755.688, 716.769 755.001, 718.228 750.436, 727.125 749.801, 728.363 744.917, 737.089 744.351, 738.101 739.137, 746.634 738.660, 747.415 733.102, 755.727 732.735, 756.276 726.818, 764.337 726.584, 764.656 720.295, 772.431 720.216, 772.529 713.641, 779.864 706.870, 786.634 699.916, 792.809 692.790, 798.362 685.507, 803.264 678.082, 807.485 670.532, 811.000 662.872, 813.783 655.124, 815.804 647.305, 817.041 639.437, 817.472 631.543, 817.075 623.647, 815.826 615.772, 813.712 607.945, 810.718 600.193, 806.830 592.544, 802.038 585.026, 796.340 577.669, 789.734 570.769, 782.496 570.504, 782.219 564.140, 774.505 563.561, 773.803 557.722, 765.685 556.870, 764.499 551.541, 756.037 551.302, 755.658 550.462, 754.323 549.082, 751.825 547.589, 749.123 544.368, 743.293 543.129, 740.740 541.643, 737.674 538.618, 731.438 537.211, 728.127 534.014, 720.607 533.241, 718.789 529.762, 709.414 528.265, 705.383 525.201, 695.864 523.719, 691.260 521.053, 681.622 519.627, 676.468 517.342, 666.732 517.289, 666.503 516.011, 661.060 514.096, 651.245 512.896, 645.091 511.339, 635.213 510.300, 628.622 509.089, 618.696 508.238, 611.720 507.365, 601.758 506.725, 594.453 506.183, 584.468 505.772, 576.892 505.556, 566.895 505.388, 559.113 505.492, 549.114 505.575, 541.192 505.997, 531.201 506.335, 523.206 504.854, 513.316 504.251, 509.288 503.535, 504.503 " fill="none" stroke="rgb(0, 0, 0)" stroke-linecap="butt" stroke-linejoin="round" stroke-opacity="1.0" stroke-width="3.0" />
            <path d=" M 661.806, 239.807 656.021, 240.237 653.748, 240.406 645.609, 241.878 637.412, 244.240 629.185, 247.508 620.954, 251.693 612.748, 256.802 604.711, 262.751 604.597, 262.836 597.027, 269.370 596.532, 269.797 589.433, 276.839 588.585, 277.679 581.951, 285.162 580.789, 286.472 574.610, 294.335 573.175, 296.160 567.440, 304.352 565.779, 306.725 560.473, 315.201 558.634, 318.140 557.757, 319.702 557.171, 320.746 556.944, 321.152 554.032, 326.343 552.489, 329.093 551.772, 330.372 547.279, 339.306 546.493, 340.870 545.226, 343.388 544.952, 343.997 540.845, 353.115 539.030, 357.145 535.296, 366.422 533.214, 371.596 532.969, 372.279 529.596, 381.693 527.806, 386.687 524.785, 396.220 522.837, 402.365 520.157, 411.999 518.331, 418.566 515.986, 428.287 514.312, 435.226 512.294, 445.020 510.800, 452.276 509.107, 462.132 507.816, 469.645 506.443, 479.551 505.375, 487.259 504.314, 497.203 503.535, 504.503 501.784, 511.470 499.347, 521.169 498.941, 522.782 " fill="none" stroke="rgb(0, 0, 0)" stroke-linecap="butt" stroke-linejoin="round" stroke-opacity="1.0" stroke-width="3.0" />
            <path d=" M 498.160, 541.349 498.059, 551.348 497.973, 559.849 498.194, 569.846 498.379, 578.199 498.927, 588.184 499.373, 596.319 500.255, 606.280 500.949, 614.131 502.170, 624.056 503.093, 631.560 504.663, 641.436 505.791, 648.534 507.721, 658.346 509.026, 664.984 511.328, 674.716 512.778, 680.847 514.875, 688.363 517.023, 696.065 520.111, 705.576 521.736, 710.584 525.242, 719.949 526.891, 724.353 530.834, 733.543 531.880, 735.982 532.460, 737.333 535.140, 742.806 538.410, 749.485 539.617, 751.646 541.135, 754.367 544.713, 760.778 545.677, 762.291 547.200, 764.683 549.478, 768.262 551.338, 771.184 557.222, 779.270 558.251, 780.684 564.663, 788.358 565.420, 789.264 572.372, 796.452 572.815, 796.910 580.307, 803.534 580.403, 803.619 588.151, 809.389 596.031, 814.225 604.013, 818.131 612.068, 821.119 620.167, 823.203 628.286, 824.399 636.397, 824.726 644.478, 824.205 652.505, 822.860 660.458, 820.715 668.316, 817.795 676.060, 814.130 683.673, 809.746 691.138, 804.670 698.440, 798.934 705.566, 792.566 712.503, 785.595 719.162, 778.135 719.237, 778.050 725.514, 770.265 725.760, 769.961 731.668, 761.893 732.060, 761.358 737.612, 753.041 738.129, 752.267 743.339, 743.731 743.957, 742.718 748.839, 733.990 749.539, 732.738 754.104, 723.841 754.866, 722.357 759.126, 713.310 759.932, 711.598 763.899, 702.419 764.732, 700.490 768.415, 691.193 769.260, 689.059 772.669, 679.658 773.512, 677.331 776.654, 667.837 777.483, 665.329 780.365, 655.753 781.170, 653.078 783.798, 643.430 784.568, 640.605 786.949, 630.892 787.675, 627.931 789.812, 618.162 790.487, 615.080 792.386, 605.261 793.002, 602.075 794.665, 592.214 795.217, 588.940 796.647, 579.043 797.130, 575.697 798.328, 565.769 798.738, 562.369 799.706, 552.416 800.041, 548.978 800.779, 539.005 800.979, 536.299 " fill="none" stroke="rgb(0, 0, 0)" stroke-linecap="butt" stroke-linejoin="round" stroke-opacity="1.0" stroke-width="3.0" />
            <path d=" M 498.941, 522.782 498.521, 532.773 498.160, 541.349 " fill="none" stroke="rgb(0, 0, 0)" stroke-linecap="butt" stroke-linejoin="round" stroke-opacity="1.0" stroke-width="3.0" />
            <path d=" M 813.697, 377.026 812.215, 370.193 809.861, 360.474 809.571, 359.274 806.974, 349.617 806.690, 348.562 803.840, 338.976 803.572, 338.075 800.459, 328.572 800.217, 327.833 796.831, 318.424 796.626, 317.854 792.958, 308.552 792.802, 308.155 788.841, 298.973 788.746, 298.753 784.461, 289.664 779.949, 280.908 775.214, 272.506 770.257, 264.477 765.080, 256.846 759.689, 249.636 754.087, 242.867 748.280, 236.557 742.275, 230.725 736.078, 225.390 729.697, 220.575 723.139, 216.299 716.412, 212.588 709.526, 209.466 702.490, 206.955 695.317, 205.072 688.018, 203.834 680.606, 203.255 673.096, 203.353 671.473, 203.522 665.501, 204.142 657.837, 205.640 650.122, 207.863 642.374, 210.827 634.611, 214.543 626.852, 219.015 619.118, 224.246 611.428, 230.235 603.940, 236.863 603.804, 236.984 596.719, 244.041 596.268, 244.490 593.282, 247.811 592.159, 249.060 592.036, 249.197 591.947, 249.297 591.727, 249.542 591.205, 250.122 591.188, 250.141 588.843, 252.750 583.810, 258.971 581.554, 261.760 575.652, 269.832 574.426, 271.510 568.901, 279.846 567.482, 281.987 562.321, 290.553 560.745, 293.168 556.674, 300.588 554.779, 304.044 554.238, 305.029 554.056, 305.394 553.423, 306.659 551.855, 309.797 550.361, 312.786 547.983, 317.544 544.311, 325.613 542.847, 328.830 542.003, 330.685 538.180, 339.925 536.320, 344.420 532.809, 353.784 530.959, 358.718 530.959, 358.719 527.753, 368.191 525.942, 373.541 523.033, 383.108 521.288, 388.848 518.668, 398.498 517.014, 404.590 514.676, 414.313 513.135, 420.721 511.075, 430.506 509.668, 437.191 507.883, 447.030 506.627, 453.950 505.114, 463.835 504.026, 470.944 502.782, 480.867 501.873, 488.118 500.896, 498.071 500.176, 505.416 499.607, 513.416 498.941, 522.782 498.501, 532.772 498.175, 540.157 498.160, 541.349 497.985, 551.347 497.877, 557.486 497.976, 567.485 498.047, 574.710 498.420, 584.703 498.683, 591.775 499.334, 601.754 499.782, 608.626 500.715, 618.582 501.336, 625.208 502.556, 635.134 503.335, 641.472 504.848, 651.357 505.769, 657.369 507.584, 667.203 508.626, 672.852 510.754, 682.623 511.897, 687.873 513.935, 695.936 515.566, 702.391 518.347, 711.997 519.614, 716.370 522.737, 725.870 524.021, 729.777 527.498, 739.153 528.769, 742.581 530.326, 746.320 533.455, 753.836 533.837, 754.753 537.806, 763.263 539.207, 766.267 539.247, 766.344 543.712, 774.903 544.859, 777.101 545.168, 777.631 547.430, 781.504 550.773, 787.231 556.247, 795.600 556.929, 796.642 562.845, 804.704 563.301, 805.326 569.669, 813.037 569.868, 813.277 576.606, 820.491 583.495, 826.965 590.513, 832.699 597.642, 837.692 604.861, 841.946 612.152, 845.463 619.496, 848.254 626.319, 850.176 626.873, 850.333 634.265, 851.715 641.655, 852.414 649.028, 852.446 656.367, 851.825 663.660, 850.565 670.892, 848.680 678.051, 846.185 685.125, 843.103 692.100, 839.456 698.968, 835.266 705.717, 830.553 712.340, 825.336 718.826, 819.634 725.169, 813.465 731.359, 806.845 737.391, 799.792 743.257, 792.329 748.952, 784.478 754.472, 776.260 759.811, 767.692 764.823, 759.038 764.965, 758.793 769.708, 749.989 769.929, 749.579 774.412, 740.640 774.700, 740.066 778.929, 731.004 779.271, 730.270 783.255, 721.097 783.641, 720.207 787.388, 710.936 787.807, 709.897 791.325, 700.536 791.768, 699.358 795.062, 689.917 795.520, 688.606 798.597, 679.091 799.062, 677.656 801.927, 668.075 802.391, 666.523 805.048, 656.882 805.505, 655.222 807.956, 645.527 808.401, 643.766 810.649, 634.022 811.076, 632.169 813.127, 622.382 813.532, 620.449 815.388, 610.622 815.767, 608.618 817.430, 598.758 817.779, 596.692 819.251, 586.801 819.566, 584.684 820.848, 574.766 821.127, 572.607 822.221, 562.667 822.462, 560.475 823.367, 550.516 823.568, 548.302 824.286, 538.328 824.359, 537.315 " fill="none" stroke="rgb(0, 0, 0)" stroke-linecap="butt" stroke-linejoin="round" stroke-opacity="1.0" stroke-width="3.0" />
            <path d=" M 670.858, 203.530 663.253, 204.320 655.579, 205.818 647.854, 208.040 640.096, 211.002 632.324, 214.715 624.556, 219.184 616.813, 224.410 609.114, 230.395 601.620, 237.015 601.482, 237.137 594.390, 244.187 593.938, 244.636 588.836, 250.301 588.690, 250.463 588.654, 250.504 588.618, 250.543 588.523, 250.649 588.205, 251.001 588.202, 251.005 588.153, 251.059 588.081, 251.140 587.832, 251.416 587.535, 251.745 587.380, 251.918 586.506, 252.889 580.208, 260.657 579.209, 261.890 577.351, 264.427 572.074, 271.631 566.542, 279.961 565.124, 282.097 559.956, 290.658 558.382, 293.266 554.327, 300.643 553.278, 302.550 552.608, 303.769 551.869, 305.114 551.332, 306.186 549.863, 309.121 546.027, 316.780 545.609, 317.616 543.720, 321.759 542.252, 324.979 539.624, 330.742 535.796, 339.980 533.938, 344.463 530.421, 353.824 530.231, 354.331 528.573, 358.744 525.362, 368.215 523.552, 373.551 520.639, 383.117 518.897, 388.840 516.273, 398.490 514.620, 404.565 512.279, 414.287 510.740, 420.677 508.677, 430.462 507.272, 437.128 505.484, 446.967 504.231, 453.868 502.716, 463.753 501.629, 470.843 500.384, 480.765 499.477, 487.997 498.500, 497.949 497.781, 505.275 497.072, 515.250 497.039, 515.711 496.548, 522.621 496.108, 532.611 495.783, 539.977 495.613, 549.975 495.488, 557.285 495.589, 567.285 495.661, 574.490 496.036, 584.483 496.301, 591.536 496.954, 601.515 497.403, 608.368 498.340, 618.324 498.961, 624.933 500.185, 634.857 500.965, 641.179 502.483, 651.063 503.404, 657.059 505.224, 666.892 506.267, 672.526 508.401, 682.295 509.544, 687.531 512.000, 697.225 513.170, 701.840 513.219, 702.035 516.007, 711.638 517.274, 716.000 520.404, 725.497 521.688, 729.394 525.172, 738.767 526.443, 742.185 529.732, 750.065 531.519, 754.346 532.889, 757.278 536.897, 765.851 537.265, 766.556 538.749, 769.394 542.557, 776.675 543.241, 777.844 544.729, 780.387 546.995, 784.259 548.480, 786.797 553.962, 795.161 554.644, 796.202 560.568, 804.258 561.026, 804.880 567.401, 812.584 567.601, 812.825 574.349, 820.035 581.247, 826.506 588.275, 832.237 595.413, 837.229 602.643, 841.482 609.944, 844.999 617.298, 847.791 624.685, 849.871 " fill="none" stroke="rgb(0, 0, 0)" stroke-linecap="butt" stroke-linejoin="round" stroke-opacity="1.0" stroke-width="3.0" />
            <path d=" M 673.096, 203.353 670.858, 203.530 " fill="none" stroke="rgb(0, 0, 0)" stroke-linecap="butt" stroke-linejoin="round" stroke-opacity="1.0" stroke-width="3.0" />
            <path d=" M 624.685, 849.871 626.873, 850.333 " fill="none" stroke="rgb(0, 0, 0)" stroke-linecap="butt" stroke-linejoin="round" stroke-opacity="1.0" stroke-width="3.0" />
            <path d=" M 480.737, 521.469 480.729, 521.660 480.711, 522.071 480.270, 532.062 479.859, 541.376 479.692, 551.374 479.527, 561.225 479.636, 571.224 479.741, 580.948 480.128, 590.940 480.497, 600.477 481.166, 610.455 481.789, 619.747 482.745, 629.701 483.609, 638.693 484.859, 648.615 485.947, 657.255 487.497, 667.134 488.789, 675.372 490.647, 685.198 492.121, 692.991 494.296, 702.752 495.924, 710.059 498.426, 719.740 500.180, 726.526 503.020, 736.115 504.868, 742.351 506.205, 746.321 508.000, 751.652 509.967, 757.491 513.522, 766.837 514.639, 769.772 515.453, 771.911 519.387, 781.105 521.301, 785.580 522.545, 788.170 522.765, 788.629 523.316, 789.776 524.720, 792.702 525.868, 795.093 527.488, 798.469 530.407, 803.895 531.857, 806.593 532.238, 807.301 533.643, 809.914 533.988, 810.555 536.542, 814.795 537.500, 816.385 538.004, 817.222 540.382, 821.169 540.774, 821.821 546.373, 830.106 547.822, 832.250 553.873, 840.211 555.104, 841.831 561.617, 849.419 562.594, 850.557 569.577, 857.716 570.268, 858.425 577.720, 865.094 578.100, 865.434 586.065, 871.586 594.139, 876.888 602.300, 881.347 610.524, 884.975 618.790, 887.784 627.078, 889.789 631.395, 890.777 639.662, 891.989 647.912, 892.429 656.128, 892.119 664.292, 891.077 672.388, 889.326 680.404, 886.888 688.323, 883.786 696.134, 880.041 703.825, 875.679 711.385, 870.722 718.803, 865.193 726.070, 859.117 733.177, 852.516 740.116, 845.414 746.774, 837.953 746.880, 837.834 753.217, 830.097 753.463, 829.797 759.488, 821.816 759.857, 821.326 765.581, 813.126 766.059, 812.443 771.492, 804.048 772.061, 803.168 777.215, 794.598 777.861, 793.523 782.744, 784.796 783.454, 783.527 788.076, 774.660 788.836, 773.201 793.205, 764.207 794.003, 762.564 798.128, 753.455 798.953, 751.634 802.842, 742.422 803.683, 740.430 807.343, 731.124 808.190, 728.970 811.627, 719.579 812.472, 717.271 815.692, 707.804 816.527, 705.350 819.536, 695.813 820.353, 693.223 823.155, 683.624 823.948, 680.907 826.548, 671.251 827.311, 668.417 829.713, 658.710 830.440, 655.769 832.647, 646.016 833.335, 642.979 835.349, 633.184 835.992, 630.060 837.818, 620.228 838.412, 617.027 840.050, 607.162 840.593, 603.895 842.046, 594.001 842.534, 590.678 843.803, 580.759 844.233, 577.390 845.319, 567.450 845.691, 564.045 846.594, 554.086 846.906, 550.657 847.627, 540.683 847.876, 537.240 848.415, 527.254 848.601, 523.806 848.957, 513.812 849.079, 510.371 849.252, 500.372 849.311, 496.947 849.298, 486.947 849.294, 483.550 849.095, 473.552 849.028, 470.192 848.640, 460.199 848.512, 456.888 847.933, 446.905 847.744, 443.653 846.971, 433.683 846.724, 430.502 845.754, 420.549 845.452, 417.448 844.280, 407.517 843.925, 404.508 842.548, 394.603 842.144, 391.697 840.557, 381.824 840.108, 379.031 838.305, 369.195 837.815, 366.526 835.790, 356.733 835.266, 354.199 833.013, 344.456 832.460, 342.067 829.971, 332.382 829.397, 330.148 826.664, 320.529 826.076, 318.460 823.091, 308.916 822.499, 307.021 819.252, 297.563 818.664, 295.852 815.145, 286.492 814.573, 284.971 810.770, 275.722 810.227, 274.399 806.129, 265.277 805.626, 264.157 801.220, 255.179 800.772, 254.266 796.046, 245.453 795.667, 244.748 790.606, 236.123 790.315, 235.626 784.905, 227.216 784.716, 226.923 778.943, 218.757 778.875, 218.661 772.796, 210.867 766.483, 203.562 759.942, 196.773 753.179, 190.524 746.200, 184.841 739.013, 179.748 731.626, 175.271 724.050, 171.436 716.294, 168.266 708.369, 165.788 700.290, 164.024 692.068, 162.999 683.719, 162.733 675.259, 163.250 670.809, 163.680 662.233, 165.000 653.580, 167.138 644.872, 170.111 636.130, 173.933 627.373, 178.617 618.932, 183.979 618.627, 184.173 610.583, 190.114 609.915, 190.607 602.279, 197.064 601.262, 197.923 594.037, 204.837 592.694, 206.122 585.879, 213.440 584.238, 215.202 577.826, 222.875 575.921, 225.154 569.903, 233.141 567.772, 235.970 562.138, 244.232 559.818, 247.634 559.045, 248.883 559.008, 248.942 558.995, 248.963 553.734, 257.467 552.087, 260.128 548.921, 265.760 546.000, 270.956 545.685, 271.517 544.610, 273.428 544.224, 274.184 543.979, 274.664 543.149, 276.287 541.345, 279.817 539.914, 282.616 538.941, 284.519 537.579, 287.184 537.414, 287.508 536.167, 290.191 531.954, 299.260 530.527, 302.335 530.526, 302.335 529.158, 305.580 525.274, 314.795 523.976, 317.873 523.473, 319.189 519.907, 328.532 517.789, 334.081 515.759, 339.975 512.502, 349.430 511.990, 350.916 509.035, 360.470 506.605, 368.328 503.945, 377.968 501.655, 386.265 499.284, 395.980 497.163, 404.671 495.076, 414.450 493.147, 423.486 492.661, 426.131 490.868, 435.884 489.625, 442.650 488.094, 452.532 486.612, 462.097 485.354, 472.017 484.120, 481.761 483.135, 491.712 482.159, 501.575 481.725, 507.652 481.012, 517.627 480.780, 520.864 480.737, 521.469 " fill="none" stroke="rgb(0, 0, 0)" stroke-linecap="butt" stroke-linejoin="round" stroke-opacity="1.0" stroke-width="3.0" />
            <path d=" M 675.259, 163.250 666.705, 164.568 658.075, 166.707 649.389, 169.682 640.667, 173.509 631.932, 178.199 623.500, 183.575 623.206, 183.763 615.173, 189.718 614.513, 190.207 606.889, 196.678 605.879, 197.535 598.667, 204.463 597.329, 205.749 590.528, 213.079 588.890, 214.845 582.492, 222.530 580.589, 224.816 574.586, 232.814 572.455, 235.653 566.835, 243.924 564.515, 247.340 563.059, 249.702 562.849, 250.043 562.848, 250.044 557.601, 258.557 556.798, 259.859 551.912, 268.584 549.996, 272.004 549.333, 273.188 546.848, 278.067 545.939, 279.852 545.407, 280.897 545.156, 281.391 542.148, 287.297 538.966, 294.172 537.545, 297.243 536.878, 298.684 535.271, 302.156 531.398, 311.375 528.729, 317.728 525.179, 327.061 522.550, 333.973 519.303, 343.431 516.758, 350.845 513.812, 360.401 511.378, 368.296 508.726, 377.938 506.433, 386.274 504.069, 395.991 501.944, 404.722 499.862, 414.503 498.390, 421.422 497.930, 423.581 497.841, 424.067 496.255, 432.721 494.452, 442.557 494.409, 442.789 493.235, 450.385 492.351, 456.100 491.396, 462.280 490.141, 472.201 488.902, 481.990 487.919, 491.942 486.939, 501.850 486.543, 507.398 486.477, 508.314 486.333, 510.341 485.881, 516.656 485.714, 518.999 485.703, 519.144 485.514, 521.790 485.498, 522.158 485.056, 532.148 484.632, 541.742 484.462, 551.741 484.294, 561.637 484.399, 571.636 484.501, 581.404 484.883, 591.397 485.249, 600.978 485.871, 610.334 486.418, 618.570 486.533, 620.290 487.482, 630.245 488.344, 639.278 489.585, 649.201 490.671, 657.880 492.211, 667.761 493.501, 676.037 495.349, 685.864 496.820, 693.692 498.984, 703.455 500.610, 710.795 503.100, 720.480 504.852, 727.296 507.679, 736.888 507.794, 737.280 508.864, 740.909 509.525, 743.151 512.702, 752.633 514.608, 758.320 518.149, 767.672 520.077, 772.767 523.996, 781.967 524.080, 782.165 525.909, 786.459 527.136, 789.027 531.447, 798.050 531.547, 798.258 532.078, 799.370 532.973, 801.041 537.563, 809.615 538.560, 811.477 538.989, 812.193 541.357, 816.141 545.327, 822.759 550.910, 831.056 552.355, 833.203 558.390, 841.177 559.616, 842.797 566.115, 850.398 567.086, 851.534 574.055, 858.706 574.739, 859.410 582.179, 866.092 582.550, 866.425 590.493, 872.581 598.546, 877.885 606.684, 882.345 614.886, 885.971 623.130, 888.777 631.395, 890.777 " fill="none" stroke="rgb(0, 0, 0)" stroke-linecap="butt" stroke-linejoin="round" stroke-opacity="1.0" stroke-width="3.0" />
            <path d=" M 734.441, 523.566 734.409, 523.477 733.966, 522.257 733.398, 521.103 732.746, 520.125 732.021, 519.338 731.235, 518.758 730.400, 518.394 729.531, 518.252 719.548, 517.667 718.371, 517.599 717.476, 517.681 716.577, 517.988 715.722, 518.516 714.929, 519.257 714.177, 520.197 713.480, 521.321 712.850, 522.609 712.298, 524.040 712.172, 524.460 711.833, 525.590 711.464, 527.232 711.196, 528.938 711.035, 530.678 721.014, 531.321 722.237, 531.400 727.041, 531.607 727.047, 531.541 727.064, 531.375 727.096, 531.055 727.194, 530.519 727.331, 530.016 727.503, 529.557 727.706, 529.157 727.934, 528.826 728.181, 528.572 728.440, 528.404 728.704, 528.325 728.966, 528.337 " fill="none" stroke="rgb(0, 0, 0)" stroke-linecap="butt" stroke-linejoin="round" stroke-opacity="1.0" stroke-width="3.0" />
            <path d=" M 729.531, 518.252 728.642, 518.336 727.748, 518.645 726.899, 519.175 726.111, 519.921 725.365, 520.866 724.672, 521.995 724.216, 522.938 724.213, 522.945 724.046, 523.291 723.497, 524.729 723.188, 525.767 723.034, 526.287 722.666, 527.937 722.665, 527.940 722.399, 529.651 722.253, 531.232 722.237, 531.400 " fill="none" stroke="rgb(0, 0, 0)" stroke-linecap="butt" stroke-linejoin="round" stroke-opacity="1.0" stroke-width="3.0" />
            <path d=" M 728.966, 528.337 729.219, 528.440 729.456, 528.632 729.669, 528.906 729.855, 529.256 730.007, 529.671 730.121, 530.141 730.195, 530.653 730.226, 531.192 730.214, 531.745 " fill="none" stroke="rgb(0, 0, 0)" stroke-linecap="butt" stroke-linejoin="round" stroke-opacity="1.0" stroke-width="3.0" />
            <path d=" M 734.441, 523.566 744.427, 524.093 749.164, 524.343 " fill="none" stroke="rgb(0, 0, 0)" stroke-linecap="butt" stroke-linejoin="round" stroke-opacity="1.0" stroke-width="3.0" />
            <path d=" M 727.047, 531.541 730.214, 531.745 740.205, 532.176 747.197, 532.478 " fill="none" stroke="rgb(0, 0, 0)" stroke-linecap="butt" stroke-linejoin="round" stroke-opacity="1.0" stroke-width="3.0" />
            <path d=" M 802.688, 522.537 801.841, 522.627 800.987, 522.949 800.177, 523.501 799.428, 524.273 798.816, 525.116 798.717, 525.252 798.055, 526.421 797.623, 527.385 797.615, 527.403 797.455, 527.760 796.927, 529.246 796.480, 530.855 796.121, 532.559 796.121, 532.562 795.858, 534.328 795.758, 535.423 795.756, 535.448 795.710, 535.960 795.694, 536.133 " fill="none" stroke="rgb(0, 0, 0)" stroke-linecap="butt" stroke-linejoin="round" stroke-opacity="1.0" stroke-width="3.0" />
            <path d=" M 802.072, 532.937 802.310, 533.042 802.532, 533.238 802.732, 533.520 802.905, 533.880 803.046, 534.307 803.151, 534.791 803.217, 535.318 803.243, 535.874 803.241, 535.936 803.228, 536.444 " fill="none" stroke="rgb(0, 0, 0)" stroke-linecap="butt" stroke-linejoin="round" stroke-opacity="1.0" stroke-width="3.0" />
            <path d=" M 784.920, 492.926 785.082, 492.921 785.298, 492.954 785.504, 493.033 785.691, 493.154 785.852, 493.313 785.981, 493.504 786.075, 493.722 786.128, 493.960 786.136, 494.215 786.100, 494.454 786.023, 494.681 785.908, 494.889 785.759, 495.069 785.581, 495.216 785.380, 495.324 785.160, 495.388 784.928, 495.403 784.767, 495.383 " fill="none" stroke="rgb(0, 0, 0)" stroke-linecap="butt" stroke-linejoin="round" stroke-opacity="1.0" stroke-width="3.0" />
            <path d=" M 785.082, 492.921 784.913, 492.928 784.896, 492.928 784.841, 492.930 784.606, 492.986 784.601, 492.987 784.379, 493.087 784.181, 493.228 784.013, 493.403 783.882, 493.610 783.792, 493.841 783.749, 494.093 783.758, 494.334 783.814, 494.568 783.913, 494.786 784.054, 494.982 784.231, 495.146 784.439, 495.275 784.673, 495.363 784.680, 495.364 784.767, 495.383 " fill="none" stroke="rgb(0, 0, 0)" stroke-linecap="butt" stroke-linejoin="round" stroke-opacity="1.0" stroke-width="3.0" />
            <path d=" M 784.920, 492.926 784.896, 492.928 " fill="none" stroke="rgb(0, 0, 0)" stroke-linecap="butt" stroke-linejoin="round" stroke-opacity="1.0" stroke-width="3.0" />
            <path d=" M 782.373, 490.930 781.988, 497.128 785.411, 497.294 787.642, 497.402 788.298, 497.300 788.173, 491.203 788.029, 491.189 785.326, 491.065 782.373, 490.930 " fill="none" stroke="rgb(0, 0, 0)" stroke-linecap="butt" stroke-linejoin="round" stroke-opacity="1.0" stroke-width="3.0" />
            <path d=" M 787.642, 497.402 788.029, 491.189 " fill="none" stroke="rgb(0, 0, 0)" stroke-linecap="butt" stroke-linejoin="round" stroke-opacity="1.0" stroke-width="3.0" />
            <path d=" M 712.172, 524.460 704.859, 523.568 694.938, 522.317 693.391, 522.121 683.474, 520.837 681.922, 520.636 672.008, 519.328 670.448, 519.122 660.536, 517.799 658.964, 517.589 649.053, 516.259 647.464, 516.046 637.552, 514.717 635.943, 514.502 626.030, 513.183 624.397, 512.966 614.482, 511.665 612.821, 511.447 602.902, 510.172 601.210, 509.954 591.287, 508.712 589.559, 508.495 579.631, 507.294 577.863, 507.080 577.684, 497.081 577.606, 492.732 577.306, 482.736 577.178, 478.480 576.756, 468.489 576.580, 464.346 576.032, 454.361 575.811, 450.348 575.132, 440.371 574.869, 436.508 574.056, 426.541 573.755, 422.848 572.802, 412.893 572.466, 409.388 571.368, 399.449 571.003, 396.153 569.752, 386.232 569.365, 383.167 567.953, 373.267 567.552, 370.453 565.969, 360.579 565.562, 358.038 563.783, 348.105 " fill="none" stroke="rgb(0, 0, 0)" stroke-linecap="butt" stroke-linejoin="round" stroke-opacity="1.0" stroke-width="3.0" />
            <path d=" M 528.843, 236.821 523.834, 233.847 521.184, 232.273 520.647, 231.954 512.334, 226.395 510.411, 225.109 " fill="none" stroke="rgb(0, 0, 0)" stroke-linecap="butt" stroke-linejoin="round" stroke-opacity="1.0" stroke-width="3.0" />
            <path d=" M 544.111, 244.080 540.658, 242.564 539.637, 242.116 537.422, 241.144 536.542, 240.758 532.913, 238.902 530.619, 237.730 528.843, 236.821 526.182, 235.461 " fill="none" stroke="rgb(0, 0, 0)" stroke-linecap="butt" stroke-linejoin="round" stroke-opacity="1.0" stroke-width="3.0" />
            <path d=" M 558.198, 248.710 552.494, 247.075 544.921, 244.369 544.111, 244.080 542.007, 243.328 " fill="none" stroke="rgb(0, 0, 0)" stroke-linecap="butt" stroke-linejoin="round" stroke-opacity="1.0" stroke-width="3.0" />
            <path d=" M 510.411, 225.109 510.034, 224.919 507.383, 223.585 505.657, 222.716 500.787, 221.248 495.812, 220.743 490.744, 221.239 485.596, 222.769 480.592, 225.258 480.382, 225.362 478.190, 226.898 475.119, 229.050 472.176, 231.724 469.824, 233.859 464.515, 239.809 462.045, 243.118 459.212, 246.913 456.885, 250.562 453.936, 255.187 452.063, 258.572 448.709, 264.635 444.341, 273.631 443.554, 275.253 439.607, 284.442 438.495, 287.033 434.926, 296.375 433.557, 299.960 430.329, 309.425 428.765, 314.010 425.845, 323.574 424.144, 329.147 421.507, 338.793 419.720, 345.331 417.344, 355.045 415.518, 362.513 413.386, 372.283 411.564, 380.632 409.659, 390.449 407.880, 399.620 406.190, 409.476 404.489, 419.401 403.006, 429.290 401.522, 439.179 401.415, 439.891 400.128, 449.808 398.841, 459.724 398.675, 460.998 397.578, 470.938 396.481, 480.877 396.288, 482.624 395.375, 492.582 394.463, 502.540 394.269, 504.665 393.538, 514.639 392.807, 524.612 392.631, 527.014 392.079, 536.999 391.527, 546.984 391.385, 549.557 391.011, 559.550 390.636, 569.543 390.538, 572.180 390.341, 582.178 390.145, 592.176 390.094, 594.768 390.078, 604.768 390.061, 614.768 390.057, 617.208 390.221, 627.206 390.386, 637.205 390.422, 639.386 390.773, 649.380 391.124, 659.373 391.188, 661.190 391.217, 661.129 395.473, 652.080 396.667, 649.540 398.086, 646.668 402.255, 638.225 406.856, 629.346 407.952, 627.232 412.728, 618.446 413.758, 616.550 418.710, 607.863 419.675, 606.170 424.804, 597.585 425.703, 596.079 431.009, 587.603 431.844, 586.269 437.326, 577.905 438.097, 576.728 443.756, 568.483 444.466, 567.448 450.299, 559.325 450.950, 558.418 456.956, 550.422 457.551, 549.630 463.728, 541.766 464.271, 541.074 470.616, 533.345 471.111, 532.743 477.621, 525.152 478.071, 524.627 480.366, 522.065 480.729, 521.660 " fill="none" stroke="rgb(0, 0, 0)" stroke-linecap="butt" stroke-linejoin="round" stroke-opacity="1.0" stroke-width="3.0" />
            <path d=" M 361.144, 651.696 357.153, 660.865 355.406, 664.879 " fill="none" stroke="rgb(0, 0, 0)" stroke-linecap="butt" stroke-linejoin="round" stroke-opacity="1.0" stroke-width="3.0" />
            <path d=" M 480.366, 522.065 480.711, 522.071 " fill="none" stroke="rgb(0, 0, 0)" stroke-linecap="butt" stroke-linejoin="round" stroke-opacity="1.0" stroke-width="3.0" />
            <path d=" M 480.592, 225.258 472.444, 225.259 " fill="none" stroke="rgb(0, 0, 0)" stroke-linecap="butt" stroke-linejoin="round" stroke-opacity="1.0" stroke-width="3.0" />
            <path d=" M 532.304, 474.622 532.284, 474.661 " fill="none" stroke="rgb(0, 0, 0)" stroke-linecap="butt" stroke-linejoin="round" stroke-opacity="1.0" stroke-width="3.0" />
            <path d=" M 559.045, 248.883 558.198, 248.710 557.816, 248.632 " fill="none" stroke="rgb(0, 0, 0)" stroke-linecap="butt" stroke-linejoin="round" stroke-opacity="1.0" stroke-width="3.0" />
        </g>
    </g>
</svg>
