<?xml version='1.0' encoding='ascii'?>
<svg xmlns="http://www.w3.org/2000/svg" height="1080" version="1.1" width="1080">
    <g id="View Layer_LineSet" inkscape:groupmode="lineset" inkscape:label="View Layer_LineSet" xmlns:inkscape="http://www.inkscape.org/namespaces/inkscape">
        <g id="strokes" inkscape:groupmode="layer" inkscape:label="strokes" xmlns:inkscape="http://www.inkscape.org/namespaces/inkscape">
            <path d=" M 564.712, 495.873 564.701, 496.427 564.688, 497.034 564.645, 498.184 564.582, 499.314 564.500, 500.411 564.400, 501.466 564.282, 502.466 564.149, 503.403 564.000, 504.266 563.837, 505.043 563.836, 505.047 563.712, 505.555 563.583, 506.012 563.449, 506.417 563.311, 506.767 563.169, 507.061 563.025, 507.296 562.985, 507.344 562.879, 507.471 561.725, 508.612 " fill="none" stroke="rgb(0, 0, 0)" stroke-linecap="butt" stroke-linejoin="round" stroke-opacity="1.0" stroke-width="3.0" />
            <path d=" M 355.090, 657.747 361.437, 660.565 " fill="none" stroke="rgb(0, 0, 0)" stroke-linecap="butt" stroke-linejoin="round" stroke-opacity="1.0" stroke-width="3.0" />
            <path d=" M 379.217, 661.215 389.055, 659.424 391.112, 659.050 " fill="none" stroke="rgb(0, 0, 0)" stroke-linecap="butt" stroke-linejoin="round" stroke-opacity="1.0" stroke-width="3.0" />
            <path d=" M 391.112, 659.050 386.719, 650.067 382.326, 641.084 381.280, 638.946 " fill="none" stroke="rgb(0, 0, 0)" stroke-linecap="butt" stroke-linejoin="round" stroke-opacity="1.0" stroke-width="3.0" />
            <path d=" M 468.777, 222.472 464.313, 223.319 459.786, 225.239 455.212, 228.265 450.605, 232.428 445.981, 237.753 444.044, 240.479 441.562, 243.971 441.357, 244.259 436.752, 251.963 432.185, 260.877 428.116, 270.012 427.676, 271.002 424.034, 280.316 423.246, 282.333 419.980, 291.785 418.918, 294.860 415.985, 304.420 414.714, 308.563 412.078, 318.210 410.657, 323.411 408.290, 333.127 406.770, 339.365 404.648, 349.138 403.076, 356.380 401.181, 366.199 399.598, 374.396 397.913, 384.253 396.358, 393.347 394.869, 403.235 393.376, 413.155 392.074, 423.070 390.772, 432.985 390.673, 433.738 389.548, 443.674 388.424, 453.611 388.267, 455.000 387.312, 464.954 386.358, 474.908 386.173, 476.840 385.384, 486.808 384.596, 496.777 384.408, 499.151 383.780, 509.132 383.153, 519.112 382.982, 521.822 382.513, 531.811 382.044, 541.800 381.906, 544.734 381.594, 554.729 381.281, 564.724 381.186, 567.768 381.030, 577.767 380.874, 587.765 380.826, 590.803 380.827, 600.803 380.828, 610.803 380.829, 613.719 380.988, 623.717 381.148, 633.716 381.191, 636.396 381.280, 638.946 380.358, 648.903 379.435, 658.861 379.217, 661.215 " fill="none" stroke="rgb(0, 0, 0)" stroke-linecap="butt" stroke-linejoin="round" stroke-opacity="1.0" stroke-width="3.0" />
            <path d=" M 566.943, 520.609 567.331, 520.616 567.993, 520.628 574.831, 513.405 577.919, 510.955 577.755, 500.957 577.679, 496.354 577.393, 486.358 577.264, 481.850 576.854, 471.859 576.673, 467.464 576.135, 457.479 575.905, 453.218 575.235, 443.240 574.959, 439.133 574.152, 429.166 573.834, 425.232 572.886, 415.277 572.529, 411.537 571.433, 401.597 571.045, 398.074 569.793, 388.153 569.379, 384.868 567.964, 374.969 567.532, 371.943 565.944, 362.070 565.503, 359.328 563.859, 350.203 " fill="none" stroke="rgb(0, 0, 0)" stroke-linecap="butt" stroke-linejoin="round" stroke-opacity="1.0" stroke-width="3.0" />
            <path d=" M 560.598, 356.375 560.689, 356.821 560.876, 357.843 562.672, 367.680 562.821, 368.499 564.429, 378.369 564.778, 380.511 566.210, 390.408 566.560, 392.829 567.827, 402.748 568.169, 405.427 569.279, 415.365 569.604, 418.280 570.564, 428.234 570.865, 431.363 571.682, 441.330 571.954, 444.652 572.633, 454.629 572.871, 458.124 573.417, 468.109 573.616, 471.757 574.033, 481.748 574.191, 485.529 574.482, 495.525 574.595, 499.419 574.614, 500.500 574.549, 501.271 574.475, 502.015 574.392, 502.729 574.301, 503.408 574.202, 504.050 574.095, 504.650 573.982, 505.206 573.863, 505.715 573.738, 506.173 573.609, 506.578 573.475, 506.929 573.339, 507.223 573.200, 507.458 573.059, 507.634 569.016, 511.787 568.814, 510.803 568.730, 510.500 568.589, 509.992 568.344, 509.367 568.085, 508.940 567.814, 508.718 567.536, 508.706 567.361, 508.703 564.970, 508.664 564.775, 508.661 563.846, 508.646 562.988, 508.632 561.725, 508.612 559.416, 508.575 557.632, 508.546 557.476, 508.543 557.145, 508.538 556.855, 508.736 556.569, 509.141 556.290, 509.747 556.245, 509.882 556.023, 510.545 555.775, 511.522 555.648, 512.155 555.594, 512.428 555.547, 512.660 555.346, 513.942 555.173, 515.345 555.033, 516.846 554.927, 518.418 554.857, 520.034 554.825, 521.668 554.831, 523.290 555.683, 523.305 557.528, 523.338 557.621, 523.340 559.403, 523.372 562.971, 523.437 563.803, 523.452 564.756, 523.469 565.296, 523.479 566.921, 521.761 566.921, 521.247 566.936, 520.730 566.943, 520.609 566.965, 520.227 567.008, 519.750 567.063, 519.312 567.128, 518.926 567.203, 518.602 567.285, 518.349 567.344, 518.229 567.371, 518.174 567.459, 518.082 567.548, 518.074 " fill="none" stroke="rgb(0, 0, 0)" stroke-linecap="butt" stroke-linejoin="round" stroke-opacity="1.0" stroke-width="3.0" />
            <path d=" M 462.162, 896.622 458.244, 895.633 458.091, 895.594 454.017, 893.542 449.953, 890.435 449.592, 890.061 445.916, 886.248 441.920, 880.962 437.983, 874.560 434.123, 867.030 430.356, 858.366 426.860, 848.996 426.701, 848.571 423.631, 839.054 423.178, 837.652 420.479, 828.023 419.806, 825.622 417.434, 815.908 416.603, 812.506 414.522, 802.725 413.588, 798.334 411.770, 788.501 410.780, 783.145 409.202, 773.271 408.197, 766.986 406.838, 757.079 405.855, 749.913 404.700, 739.980 403.771, 731.992 402.807, 722.039 401.960, 713.293 401.176, 703.324 400.434, 693.896 399.821, 683.915 399.206, 673.889 398.757, 663.900 398.308, 653.910 398.283, 653.365 397.972, 643.370 397.887, 640.614 " fill="none" stroke="rgb(0, 0, 0)" stroke-linecap="butt" stroke-linejoin="round" stroke-opacity="1.0" stroke-width="3.0" />
            <path d=" M 382.949, 305.131 382.309, 307.537 380.009, 317.269 378.831, 322.256 376.775, 332.042 375.506, 338.084 373.671, 347.914 372.353, 354.978 370.722, 364.844 369.393, 372.882 367.950, 382.777 366.644, 391.730 365.376, 401.650 364.123, 411.452 363.020, 421.391 361.918, 431.330 361.847, 431.964 360.902, 441.919 359.956, 451.875 359.833, 453.177 359.038, 463.145 358.242, 473.113 358.093, 474.991 357.443, 484.969 356.793, 494.948 356.640, 497.303 356.131, 507.290 355.623, 517.277 355.485, 520.002 355.115, 529.995 354.745, 539.988 354.634, 542.974 354.401, 552.971 354.168, 562.968 354.095, 566.100 353.999, 576.099 353.902, 586.099 353.872, 589.260 353.912, 599.260 353.952, 609.260 353.964, 612.334 354.143, 622.332 354.321, 632.331 354.372, 635.202 354.690, 645.197 355.009, 655.192 355.090, 657.747 355.602, 667.734 356.113, 677.721 356.214, 679.690 356.900, 689.666 357.586, 699.643 357.683, 701.063 358.551, 711.025 359.418, 720.987 359.486, 721.765 360.545, 731.708 361.609, 741.700 362.871, 751.620 364.037, 760.781 365.518, 770.671 366.754, 778.931 368.470, 788.783 369.742, 796.082 371.716, 805.885 372.981, 812.172 375.239, 821.914 376.453, 827.152 379.026, 836.816 379.258, 837.684 " fill="none" stroke="rgb(0, 0, 0)" stroke-linecap="butt" stroke-linejoin="round" stroke-opacity="1.0" stroke-width="3.0" />
            <path d=" M 523.553, 534.591 523.568, 538.853 523.494, 548.853 523.464, 552.958 523.283, 562.957 523.209, 567.086 522.921, 577.082 522.802, 581.217 522.407, 591.209 522.244, 595.331 521.742, 605.319 521.536, 609.411 520.925, 619.392 520.678, 623.435 520.625, 624.170 " fill="none" stroke="rgb(0, 0, 0)" stroke-linecap="butt" stroke-linejoin="round" stroke-opacity="1.0" stroke-width="3.0" />
            <path d=" M 505.707, 746.710 503.927, 756.096 501.905, 765.890 501.448, 768.103 499.258, 777.861 498.827, 779.779 496.457, 789.494 496.066, 791.097 493.501, 800.763 493.166, 802.028 490.390, 811.635 490.129, 812.538 487.123, 822.076 486.958, 822.598 483.699, 832.052 483.657, 832.175 480.228, 841.236 476.674, 849.743 473.002, 857.662 469.215, 864.958 465.320, 871.592 461.323, 877.524 457.231, 882.719 453.051, 887.136 449.592, 890.061 " fill="none" stroke="rgb(0, 0, 0)" stroke-linecap="butt" stroke-linejoin="round" stroke-opacity="1.0" stroke-width="3.0" />
            <path d=" M 390.949, 653.945 391.112, 659.050 391.577, 669.039 392.041, 679.029 392.129, 680.935 392.769, 690.914 393.409, 700.894 393.496, 702.253 394.319, 712.219 395.142, 722.185 395.201, 722.904 396.216, 732.852 397.230, 742.792 398.449, 752.718 399.568, 761.832 401.004, 771.728 402.195, 779.946 403.864, 789.805 405.093, 797.066 407.015, 806.879 408.239, 813.131 410.439, 822.886 411.613, 828.091 414.119, 837.772 415.190, 841.908 418.040, 851.494 418.949, 854.551 422.188, 864.012 422.867, 865.993 426.550, 875.290 426.920, 876.225 431.086, 885.240 435.344, 893.039 437.243, 895.931 437.488, 896.304 439.672, 899.629 444.051, 905.028 448.461, 909.255 452.885, 912.334 457.306, 914.292 461.708, 915.167 466.078, 914.991 470.401, 913.800 474.666, 911.636 478.862, 908.541 479.905, 907.531 482.979, 904.555 487.007, 899.719 490.939, 894.076 494.769, 887.671 498.489, 880.542 499.485, 878.386 502.096, 872.730 505.583, 864.278 508.948, 855.224 510.659, 850.140 512.186, 845.604 515.115, 836.043 515.294, 835.457 517.990, 825.827 518.272, 824.820 520.755, 815.133 521.115, 813.725 523.404, 803.990 523.824, 802.205 525.275, 795.486 " fill="none" stroke="rgb(0, 0, 0)" stroke-linecap="butt" stroke-linejoin="round" stroke-opacity="1.0" stroke-width="3.0" />
            <path d=" M 521.930, 788.546 521.237, 791.651 518.877, 801.369 518.587, 802.560 516.031, 812.228 515.814, 813.051 513.045, 822.659 512.920, 823.091 509.908, 832.651 506.780, 841.695 503.541, 850.187 500.194, 858.093 496.744, 865.376 493.197, 871.999 489.557, 877.923 485.833, 883.110 482.031, 887.524 478.159, 891.121 474.225, 893.867 470.241, 895.724 466.216, 896.654 462.162, 896.622 " fill="none" stroke="rgb(0, 0, 0)" stroke-linecap="butt" stroke-linejoin="round" stroke-opacity="1.0" stroke-width="3.0" />
            <path d=" M 555.594, 512.428 548.965, 512.091 548.269, 512.055 546.426, 511.962 546.362, 511.958 546.480, 521.958 546.527, 525.925 546.546, 535.925 546.553, 539.953 546.474, 549.953 546.441, 554.024 546.264, 564.022 546.191, 568.118 545.916, 578.114 545.804, 582.215 545.431, 592.208 545.279, 596.297 544.809, 606.286 544.617, 610.345 544.048, 620.328 543.820, 624.338 543.150, 634.315 542.885, 638.257 542.114, 648.227 541.816, 652.082 540.940, 662.044 540.611, 665.793 539.628, 675.745 539.271, 679.368 538.178, 689.308 537.796, 692.786 537.289, 696.959 " fill="none" stroke="rgb(0, 0, 0)" stroke-linecap="butt" stroke-linejoin="round" stroke-opacity="1.0" stroke-width="3.0" />
            <path d=" M 539.866, 704.208 540.544, 698.363 541.583, 688.417 542.011, 684.322 542.944, 674.365 543.341, 670.125 544.169, 660.159 544.533, 655.793 545.261, 645.820 545.587, 641.348 546.217, 631.368 546.504, 626.811 547.038, 616.825 547.285, 612.201 547.723, 602.211 547.929, 597.538 548.274, 587.544 548.436, 582.841 548.689, 572.844 548.808, 568.130 548.968, 558.131 549.043, 553.423 549.111, 543.423 549.142, 538.740 549.118, 528.740 549.106, 524.099 548.988, 514.100 548.965, 512.091 " fill="none" stroke="rgb(0, 0, 0)" stroke-linecap="butt" stroke-linejoin="round" stroke-opacity="1.0" stroke-width="3.0" />
            <path d=" M 379.217, 661.215 379.696, 671.203 380.174, 681.192 380.308, 683.984 380.960, 693.962 381.611, 703.941 381.756, 706.153 382.587, 716.118 383.419, 726.084 383.547, 727.616 384.568, 737.563 385.590, 747.511 385.668, 748.272 386.891, 758.197 388.102, 768.030 389.541, 777.926 390.832, 786.810 392.503, 796.669 393.836, 804.540 395.761, 814.353 397.096, 821.158 399.300, 830.912 400.588, 836.613 403.103, 846.292 404.291, 850.865 407.154, 860.446 408.181, 863.883 411.441, 873.336 412.236, 875.642 415.950, 884.927 416.433, 886.133 420.673, 895.189 420.749, 895.352 425.164, 903.302 429.655, 909.992 434.203, 915.443 438.789, 919.677 443.394, 922.720 448.001, 924.604 452.593, 925.368 457.158, 925.050 461.679, 923.687 466.146, 921.324 470.546, 918.005 474.869, 913.774 " fill="none" stroke="rgb(0, 0, 0)" stroke-linecap="butt" stroke-linejoin="round" stroke-opacity="1.0" stroke-width="3.0" />
            <path d=" M 474.869, 913.774 481.474, 906.266 482.979, 904.555 " fill="none" stroke="rgb(0, 0, 0)" stroke-linecap="butt" stroke-linejoin="round" stroke-opacity="1.0" stroke-width="3.0" />
            <path d=" M 540.700, 536.739 530.700, 536.666 529.339, 536.657 526.296, 535.570 523.553, 534.591 519.480, 533.137 519.192, 533.034 518.904, 532.931 518.615, 532.828 518.328, 532.725 517.989, 532.485 517.662, 532.012 517.354, 531.316 517.072, 530.410 516.900, 529.654 " fill="none" stroke="rgb(0, 0, 0)" stroke-linecap="butt" stroke-linejoin="round" stroke-opacity="1.0" stroke-width="3.0" />
            <path d=" M 518.615, 507.347 518.665, 507.237 518.939, 506.630 519.078, 506.327 523.202, 497.216 527.325, 488.106 528.361, 485.818 538.320, 486.719 539.831, 486.856 540.167, 496.850 540.502, 506.845 540.664, 511.669 540.743, 521.669 540.775, 525.641 540.707, 535.641 540.700, 536.739 531.634, 533.372 531.357, 533.269 531.079, 533.166 530.802, 533.063 530.525, 532.960 530.199, 532.720 529.885, 532.247 529.589, 531.551 529.373, 530.825 529.318, 530.643 529.079, 529.542 528.874, 528.267 528.709, 526.843 528.586, 525.297 528.507, 523.659 528.506, 523.604 528.474, 521.960 528.489, 520.234 528.550, 518.514 528.621, 517.403 528.657, 516.833 528.807, 515.224 528.997, 513.718 529.224, 512.344 529.286, 512.053 529.483, 511.129 529.769, 510.095 530.076, 509.262 530.340, 508.651 530.605, 508.042 530.870, 507.433 531.134, 506.825 531.268, 506.521 535.260, 497.352 539.253, 488.184 539.831, 486.856 " fill="none" stroke="rgb(0, 0, 0)" stroke-linecap="butt" stroke-linejoin="round" stroke-opacity="1.0" stroke-width="3.0" />
            <path d=" M 530.924, 523.648 530.797, 523.632 530.677, 523.480 530.566, 523.200 530.472, 522.803 530.398, 522.307 530.347, 521.734 530.322, 521.109 530.323, 520.459 530.351, 519.813 530.404, 519.199 530.480, 518.644 530.576, 518.173 530.687, 517.805 530.809, 517.558 530.935, 517.443 " fill="none" stroke="rgb(0, 0, 0)" stroke-linecap="butt" stroke-linejoin="round" stroke-opacity="1.0" stroke-width="3.0" />
            <path d=" M 530.935, 517.443 531.061, 517.462 531.182, 517.616 531.292, 517.898 531.385, 518.295 531.459, 518.789 531.510, 519.361 531.535, 519.984 531.533, 520.631 531.505, 521.275 531.453, 521.886 531.377, 522.440 531.282, 522.911 531.171, 523.279 531.050, 523.528 530.924, 523.648 " fill="none" stroke="rgb(0, 0, 0)" stroke-linecap="butt" stroke-linejoin="round" stroke-opacity="1.0" stroke-width="3.0" />
            <path d=" M 360.113, 591.524 360.092, 594.266 360.155, 604.266 360.218, 614.266 360.233, 616.622 360.436, 626.620 360.639, 636.618 360.683, 638.750 360.881, 644.485 361.227, 654.479 361.437, 660.565 361.929, 670.553 362.421, 680.541 362.492, 681.983 362.578, 683.310 " fill="none" stroke="rgb(0, 0, 0)" stroke-linecap="butt" stroke-linejoin="round" stroke-opacity="1.0" stroke-width="3.0" />
            <path d=" M 545.768, 718.967 546.745, 711.040 547.874, 701.104 548.218, 698.085 549.255, 688.139 549.582, 685.007 550.531, 675.052 550.839, 671.822 551.700, 661.859 551.987, 658.540 552.763, 648.570 553.028, 645.176 553.720, 635.200 553.960, 631.740 554.570, 621.759 554.785, 618.246 555.314, 608.260 555.502, 604.704 555.950, 594.714 556.111, 591.127 556.478, 581.133 556.611, 577.524 556.899, 567.528 557.004, 563.908 557.096, 559.483 557.288, 550.290 557.417, 540.291 557.463, 536.681 557.512, 526.681 557.528, 523.338 " fill="none" stroke="rgb(0, 0, 0)" stroke-linecap="butt" stroke-linejoin="round" stroke-opacity="1.0" stroke-width="3.0" />
            <path d=" M 453.257, 949.810 455.704, 949.990 459.861, 950.255 463.987, 949.683 468.074, 948.304 472.114, 946.148 476.099, 943.246 480.024, 939.629 483.881, 935.328 487.666, 930.374 491.374, 924.798 494.999, 918.630 498.539, 911.900 501.990, 904.638 505.349, 896.870 508.612, 888.626 511.778, 879.931 514.845, 870.812 517.810, 861.294 520.590, 851.688 520.674, 851.401 523.274, 841.745 523.433, 841.156 525.867, 831.457 526.087, 830.581 528.367, 820.845 528.636, 819.699 530.772, 809.930 531.078, 808.529 531.340, 807.246 " fill="none" stroke="rgb(0, 0, 0)" stroke-linecap="butt" stroke-linejoin="round" stroke-opacity="1.0" stroke-width="3.0" />
            <path d=" M 523.707, 231.674 522.457, 227.863 519.541, 219.777 516.510, 212.170 513.366, 205.072 510.110, 198.510 506.746, 192.512 503.275, 187.109 499.701, 182.329 496.027, 178.204 492.258, 174.764 488.398, 172.040 484.452, 170.062 480.427, 168.861 476.329, 168.466 474.850, 168.623 472.165, 168.908 467.943, 170.214 463.672, 172.410 459.362, 175.523 455.023, 179.575 450.665, 184.588 446.301, 190.580 441.944, 197.565 437.606, 205.556 433.302, 214.559 429.915, 222.536 429.047, 224.579 425.495, 233.927 424.855, 235.614 421.623, 245.077 420.742, 247.657 417.798, 257.214 416.791, 260.482 416.725, 260.697 414.041, 270.331 412.819, 274.717 410.374, 284.413 409.043, 289.692 406.816, 299.441 405.411, 305.593 403.387, 315.386 401.941, 322.384 400.107, 332.214 398.650, 340.024 396.993, 349.886 395.552, 358.463 394.063, 368.352 392.664, 377.648 391.335, 387.559 390.000, 397.517 388.824, 407.448 387.648, 417.378 387.574, 418.005 386.545, 427.951 385.516, 437.898 385.398, 439.039 384.512, 449.000 383.626, 458.961 383.485, 460.545 382.738, 470.517 381.990, 480.489 381.844, 482.441 381.232, 492.423 380.621, 502.404 380.484, 504.645 380.006, 514.633 379.529, 524.622 379.412, 527.068 379.067, 537.062 378.723, 547.056 378.634, 549.622 378.421, 559.620 378.209, 569.617 378.153, 572.217 378.073, 582.217 377.992, 592.217 377.972, 594.764 378.025, 604.764 378.077, 614.764 378.090, 617.171 378.278, 627.169 378.465, 637.167 378.506, 639.350 378.831, 649.345 379.156, 659.339 379.217, 661.215 379.682, 671.204 380.148, 681.193 380.217, 682.680 380.827, 692.662 381.438, 702.643 381.500, 703.667 382.260, 713.638 383.021, 723.609 383.058, 724.099 383.974, 734.057 384.881, 743.905 385.961, 753.846 386.957, 763.018 388.210, 772.939 389.276, 781.378 390.712, 791.274 391.823, 798.931 393.456, 808.796 394.586, 815.628 396.429, 825.456 397.549, 831.427 399.621, 841.210 400.697, 846.293 403.019, 856.020 404.015, 860.196 406.611, 869.853 407.488, 873.113 410.388, 882.684 411.099, 885.027 414.339, 894.488 414.832, 895.927 418.456, 905.247 418.673, 905.806 422.606, 914.662 426.616, 922.501 430.689, 929.330 434.810, 935.161 438.967, 940.009 443.146, 943.894 447.336, 946.836 451.526, 948.859 455.588, 949.959 455.704, 949.990 " fill="none" stroke="rgb(0, 0, 0)" stroke-linecap="butt" stroke-linejoin="round" stroke-opacity="1.0" stroke-width="3.0" />
            <path d=" M 473.908, 168.533 469.718, 168.975 465.469, 170.281 461.171, 172.478 456.834, 175.591 452.467, 179.643 448.083, 184.655 443.692, 190.645 439.308, 197.628 434.944, 205.617 430.614, 214.618 427.034, 222.992 426.332, 224.635 422.762, 233.976 422.115, 235.666 418.866, 245.123 417.978, 247.706 415.018, 257.257 413.938, 260.742 411.239, 270.370 410.009, 274.756 409.357, 277.328 406.897, 287.021 406.211, 289.726 403.971, 299.472 402.559, 305.621 400.523, 315.412 399.069, 322.407 397.224, 332.235 395.759, 340.040 394.093, 349.900 392.645, 358.472 391.148, 368.359 389.741, 377.649 388.405, 387.560 387.063, 397.511 385.881, 407.441 384.698, 417.371 384.624, 417.991 383.590, 427.937 382.556, 437.884 382.438, 439.017 381.547, 448.978 380.657, 458.938 380.516, 460.515 379.765, 470.486 379.014, 480.458 378.867, 482.402 378.253, 492.384 377.639, 502.365 377.502, 504.597 377.022, 514.585 376.543, 524.574 376.426, 527.011 376.081, 537.005 375.735, 546.999 375.646, 549.556 375.434, 559.554 375.221, 569.552 375.166, 572.143 375.086, 582.143 375.006, 592.143 374.986, 594.681 375.041, 604.681 375.095, 614.680 375.108, 617.079 375.298, 627.077 375.489, 637.076 375.530, 639.250 375.858, 649.244 376.187, 659.239 376.248, 661.106 376.718, 671.095 377.188, 681.084 377.257, 682.564 377.873, 692.545 378.489, 702.526 378.551, 703.543 379.318, 713.514 380.084, 723.484 380.121, 723.968 381.045, 733.925 381.958, 743.766 383.047, 753.707 384.050, 762.873 385.313, 772.793 386.386, 781.227 387.833, 791.122 388.952, 798.774 390.596, 808.638 391.734, 815.466 393.590, 825.292 394.718, 831.261 396.804, 841.041 397.888, 846.123 400.225, 855.846 401.229, 860.022 403.842, 869.675 404.725, 872.936 407.644, 882.501 408.360, 884.848 411.621, 894.301 412.119, 895.745 415.764, 905.057 415.985, 905.622 419.944, 914.478 423.981, 922.316 428.080, 929.144 432.228, 934.975 436.412, 939.824 440.619, 943.710 444.836, 946.653 449.052, 948.678 453.257, 949.810 " fill="none" stroke="rgb(0, 0, 0)" stroke-linecap="butt" stroke-linejoin="round" stroke-opacity="1.0" stroke-width="3.0" />
            <path d=" M 476.329, 168.466 473.908, 168.533 " fill="none" stroke="rgb(0, 0, 0)" stroke-linecap="butt" stroke-linejoin="round" stroke-opacity="1.0" stroke-width="3.0" />
            <path d=" M 551.600, 731.514 551.907, 729.162 553.104, 719.234 553.550, 715.533 554.655, 705.594 555.080, 701.769 556.096, 691.821 556.498, 687.885 557.428, 677.928 557.804, 673.893 558.649, 663.928 558.998, 659.806 559.760, 649.835 560.080, 645.637 560.760, 635.660 561.051, 631.398 561.650, 621.416 561.909, 617.100 562.430, 607.113 562.657, 602.754 563.098, 592.763 563.292, 588.371 563.656, 578.378 563.816, 573.963 564.102, 563.968 564.229, 559.541 564.437, 549.543 564.529, 545.114 564.660, 535.115 564.718, 530.695 564.756, 523.469 " fill="none" stroke="rgb(0, 0, 0)" stroke-linecap="butt" stroke-linejoin="round" stroke-opacity="1.0" stroke-width="3.0" />
            <path d=" M 454.951, 975.281 457.366, 975.467 461.837, 975.439 466.267, 974.511 470.647, 972.718 474.969, 970.096 479.225, 966.681 483.409, 962.508 487.515, 957.613 491.537, 952.031 495.471, 945.796 499.312, 938.944 503.056, 931.506 506.701, 923.515 510.244, 915.002 513.682, 905.997 517.013, 896.530 520.108, 887.021 520.236, 886.628 522.903, 877.795 523.348, 876.318 526.052, 866.691 526.350, 865.627 528.881, 855.953 529.240, 854.579 531.611, 844.864 532.017, 843.197 534.239, 833.446 534.682, 831.504 536.764, 821.723 537.232, 819.522 537.528, 818.038 " fill="none" stroke="rgb(0, 0, 0)" stroke-linecap="butt" stroke-linejoin="round" stroke-opacity="1.0" stroke-width="3.0" />
            <path d=" M 539.625, 240.574 539.440, 239.732 537.107, 230.008 536.888, 229.094 534.362, 219.418 534.210, 218.838 531.471, 209.221 531.406, 208.991 528.475, 199.579 525.419, 190.630 522.237, 182.172 518.932, 174.236 515.505, 166.852 511.957, 160.053 508.291, 153.872 504.509, 148.341 500.616, 143.495 496.614, 139.370 492.509, 136.000 488.305, 133.422 484.008, 131.670 479.625, 130.780 475.163, 130.786 474.800, 130.861 470.631, 131.724 466.038, 133.625 461.393, 136.521 456.707, 140.441 451.993, 145.412 447.264, 151.459 442.532, 158.601 437.812, 166.857 433.339, 175.801 433.120, 176.239 429.078, 185.386 428.473, 186.755 424.811, 196.060 423.887, 198.408 420.562, 207.839 420.205, 208.851 419.379, 211.193 416.357, 220.726 414.969, 225.103 413.810, 229.157 412.660, 233.179 410.675, 240.121 408.173, 249.803 406.515, 256.224 404.241, 265.962 402.509, 273.383 400.446, 283.167 398.677, 291.558 396.809, 301.382 395.036, 310.706 393.351, 320.563 391.666, 330.420 391.606, 330.773 390.306, 339.268 388.794, 349.153 388.405, 351.699 387.056, 361.607 385.708, 371.516 385.449, 373.417 384.257, 383.345 383.065, 393.274 382.755, 395.851 381.713, 405.797 380.671, 415.742 380.338, 418.922 379.441, 428.882 378.545, 438.842 378.212, 442.543 377.456, 452.514 376.701, 462.486 376.387, 466.620 375.770, 476.601 375.153, 486.582 374.876, 491.059 374.395, 501.047 373.914, 511.036 373.686, 515.758 373.339, 525.752 372.993, 535.746 372.824, 540.616 372.611, 550.614 372.398, 560.611 372.293, 565.527 372.214, 575.527 372.136, 585.527 372.097, 590.388 372.153, 600.388 372.209, 610.388 372.236, 615.094 372.428, 625.092 372.621, 635.090 372.707, 639.542 373.039, 649.536 373.370, 659.531 373.506, 663.632 373.981, 673.620 374.455, 683.609 374.628, 687.266 375.249, 697.247 375.870, 707.228 376.065, 710.354 376.838, 720.324 377.611, 730.294 377.805, 732.807 378.737, 742.764 379.669, 752.720 379.839, 754.544 380.937, 764.484 382.035, 774.423 382.153, 775.491 383.427, 785.409 384.701, 795.328 384.733, 795.578 386.194, 805.471 387.564, 814.746 389.224, 824.607 390.628, 832.941 392.505, 842.763 393.910, 850.118 396.021, 859.892 397.391, 866.237 399.759, 875.953 401.054, 881.270 403.705, 890.912 404.818, 894.962 404.881, 895.191 406.279, 899.695 408.853, 907.986 412.171, 917.420 412.953, 919.644 414.226, 922.824 417.163, 930.162 418.281, 932.599 421.466, 939.543 425.844, 947.794 430.283, 954.928 434.766, 960.961 439.280, 965.916 443.809, 969.816 448.341, 972.687 452.864, 974.560 456.402, 975.273 457.366, 975.467 " fill="none" stroke="rgb(0, 0, 0)" stroke-linecap="butt" stroke-linejoin="round" stroke-opacity="1.0" stroke-width="3.0" />
            <path d=" M 360.882, 538.653 360.822, 540.367 360.609, 550.365 360.395, 560.362 360.292, 565.239 360.216, 575.239 360.140, 585.239 360.104, 590.061 360.113, 591.524 360.176, 601.524 360.239, 611.524 360.259, 614.729 360.462, 624.727 360.665, 634.725 360.755, 639.139 360.935, 644.360 361.281, 654.354 361.480, 660.115 361.587, 663.192 362.079, 673.180 362.172, 675.080 362.578, 683.310 362.749, 686.792 362.835, 688.132 " fill="none" stroke="rgb(0, 0, 0)" stroke-linecap="butt" stroke-linejoin="round" stroke-opacity="1.0" stroke-width="3.0" />
            <path d=" M 472.747, 130.865 468.186, 131.803 463.564, 133.705 458.890, 136.600 454.175, 140.520 449.432, 145.491 444.673, 151.536 439.912, 158.677 435.164, 166.932 430.669, 175.864 430.444, 176.311 426.381, 185.448 425.769, 186.824 422.087, 196.121 421.155, 198.473 417.812, 207.898 416.621, 211.255 413.582, 220.782 412.185, 225.160 410.816, 229.919 408.035, 239.585 407.866, 240.173 405.351, 249.852 403.683, 256.271 401.615, 265.074 399.654, 273.423 397.579, 283.206 395.800, 291.592 393.922, 301.414 392.139, 310.733 390.445, 320.588 388.751, 330.444 388.691, 330.792 387.170, 340.676 385.649, 350.560 385.472, 351.711 384.116, 361.618 382.760, 371.526 382.501, 373.420 381.382, 382.688 380.183, 392.616 379.793, 395.846 378.746, 405.791 377.699, 415.736 377.365, 418.908 376.463, 428.867 375.562, 438.827 375.228, 442.519 374.469, 452.490 373.710, 462.461 373.396, 466.587 372.776, 476.568 372.156, 486.549 371.878, 491.016 371.395, 501.004 370.912, 510.993 370.684, 515.706 370.336, 525.700 369.989, 535.694 369.820, 540.553 369.607, 550.551 369.394, 560.549 369.289, 565.455 369.211, 575.455 369.133, 585.455 369.095, 590.306 369.153, 600.306 369.211, 610.306 369.238, 615.003 369.433, 625.001 369.629, 634.999 369.715, 639.441 370.051, 649.435 370.386, 659.430 370.523, 663.522 371.002, 673.510 371.480, 683.499 371.655, 687.148 372.281, 697.128 372.908, 707.108 373.103, 710.227 373.883, 720.196 374.662, 730.166 374.858, 732.672 375.797, 742.628 376.736, 752.583 376.907, 754.401 378.014, 764.340 379.120, 774.279 379.238, 775.341 380.522, 785.258 381.805, 795.175 381.837, 795.422 383.309, 805.313 384.688, 814.583 386.360, 824.443 387.774, 832.773 389.663, 842.593 391.078, 849.944 393.204, 859.716 394.583, 866.060 396.967, 875.772 398.100, 880.390 398.271, 881.088 400.939, 890.726 401.553, 892.944 402.124, 895.007 405.078, 904.458 406.123, 907.799 409.460, 917.225 410.250, 919.455 411.401, 922.312 414.488, 929.971 418.680, 939.050 418.819, 939.351 423.226, 947.601 427.694, 954.735 432.206, 960.769 436.748, 965.724 441.307, 969.625 445.868, 972.498 450.420, 974.373 454.951, 975.281 " fill="none" stroke="rgb(0, 0, 0)" stroke-linecap="butt" stroke-linejoin="round" stroke-opacity="1.0" stroke-width="3.0" />
            <path d=" M 475.163, 130.786 472.747, 130.865 " fill="none" stroke="rgb(0, 0, 0)" stroke-linecap="butt" stroke-linejoin="round" stroke-opacity="1.0" stroke-width="3.0" />
            <path d=" M 544.915, 243.056 543.945, 238.193 541.828, 228.419 541.456, 226.701 539.165, 216.967 538.835, 215.566 536.355, 205.879 536.083, 204.815 533.396, 195.183 533.198, 194.474 530.284, 184.908 530.181, 184.570 527.033, 175.132 523.753, 166.191 520.343, 157.777 516.803, 149.924 513.136, 142.665 509.344, 136.034 505.428, 130.069 501.393, 124.804 497.241, 120.278 492.978, 116.528 488.608, 113.593 484.137, 111.512 479.572, 110.323 474.920, 110.063 470.114, 110.232 465.324, 110.942 460.464, 112.655 455.545, 115.407 450.578, 119.229 445.576, 124.153 440.552, 130.207 435.521, 137.414 430.498, 145.796 425.870, 154.660 425.500, 155.368 421.321, 164.453 420.544, 166.142 416.762, 175.399 415.650, 178.122 412.219, 187.515 410.835, 191.307 407.720, 200.810 406.120, 205.691 403.288, 215.282 401.525, 221.258 398.951, 230.921 397.070, 237.986 394.733, 247.709 392.778, 255.844 390.659, 265.617 388.669, 274.794 386.752, 284.609 384.835, 294.424 384.763, 294.790 383.035, 304.640 382.949, 305.131 381.221, 314.981 381.082, 315.776 379.532, 325.655 377.983, 335.535 377.645, 337.689 376.264, 347.593 374.883, 357.497 374.470, 360.457 373.251, 370.382 372.031, 380.307 371.577, 384.000 370.512, 393.943 369.447, 403.887 368.982, 408.233 368.066, 418.191 367.151, 428.149 366.699, 433.063 365.929, 443.033 365.158, 453.003 364.742, 458.389 364.114, 468.369 363.561, 477.155 363.123, 484.108 362.634, 494.096 362.145, 504.084 361.850, 510.113 361.500, 520.107 361.149, 530.101 360.932, 536.292 360.882, 538.653 360.669, 548.651 360.456, 558.649 360.373, 562.532 360.325, 568.828 360.250, 578.828 360.175, 588.720 360.238, 598.720 360.301, 608.720 360.338, 614.743 360.541, 624.741 360.744, 634.739 360.861, 640.490 360.991, 644.234 361.336, 654.228 361.524, 659.659 361.738, 665.853 362.230, 675.841 362.623, 683.821 362.664, 684.652 362.835, 688.132 362.963, 690.726 363.604, 700.686 364.247, 710.666 364.527, 715.011 365.325, 724.979 366.124, 734.947 366.418, 738.613 367.379, 748.567 368.341, 758.521 368.624, 761.446 369.756, 771.381 370.889, 781.317 371.130, 783.428 372.443, 793.342 373.757, 803.255 373.920, 804.489 375.426, 814.375 376.932, 824.261 376.978, 824.563 378.690, 834.415 379.258, 837.684 380.285, 843.594 382.219, 853.405 383.822, 861.535 385.997, 871.295 387.569, 878.346 390.010, 888.044 391.508, 893.997 394.241, 903.616 395.618, 908.464 398.677, 917.984 399.880, 921.731 403.303, 931.127 404.273, 933.792 408.108, 943.027 408.779, 944.643 413.083, 953.669 413.379, 954.290 418.055, 962.743 422.790, 970.019 427.566, 976.136 432.368, 981.120 437.183, 984.997 441.994, 987.799 446.791, 989.559 451.560, 990.310 456.364, 990.689 461.036, 990.464 465.660, 989.305 470.227, 987.250 474.729, 984.337 479.159, 980.605 483.509, 976.093 487.773, 970.840 491.947, 964.881 496.025, 958.255 500.004, 950.998 503.880, 943.144 507.649, 934.727 511.310, 925.780 514.860, 916.335 518.136, 906.887 518.297, 906.422 521.353, 896.900 521.620, 896.070 524.476, 886.487 524.827, 885.307 527.499, 875.671 527.918, 874.160 530.420, 864.479 530.892, 862.655 533.237, 852.934 533.748, 850.815 535.947, 841.060 536.487, 838.664 538.548, 828.879 539.108, 826.223 539.949, 821.954 " fill="none" stroke="rgb(0, 0, 0)" stroke-linecap="butt" stroke-linejoin="round" stroke-opacity="1.0" stroke-width="3.0" />
            <path d=" M 553.753, 735.844 554.161, 732.685 555.348, 722.755 555.844, 718.607 556.941, 708.667 557.412, 704.396 558.420, 694.447 558.864, 690.066 559.787, 680.108 560.202, 675.629 561.040, 665.664 561.424, 661.099 562.180, 651.128 562.532, 646.488 563.208, 636.510 563.526, 631.806 564.122, 621.824 564.406, 617.066 564.923, 607.080 565.172, 602.279 565.611, 592.289 565.823, 587.456 566.185, 577.462 566.361, 572.607 566.646, 562.611 566.785, 557.742 566.994, 547.744 567.095, 542.873 567.227, 532.874 567.291, 528.010 567.331, 520.616 " fill="none" stroke="rgb(0, 0, 0)" stroke-linecap="butt" stroke-linejoin="round" stroke-opacity="1.0" stroke-width="3.0" />
            <path d=" M 474.920, 110.063 470.189, 110.771 465.390, 112.483 460.531, 115.234 455.625, 119.057 450.684, 123.982 445.720, 130.037 440.749, 137.248 435.786, 145.633 431.203, 154.521 430.848, 155.210 426.711, 164.315 425.950, 165.990 422.208, 175.263 421.112, 177.977 418.543, 185.099 416.353, 191.170 413.272, 200.684 411.692, 205.563 408.892, 215.163 407.149, 221.140 404.605, 230.811 402.745, 237.879 401.434, 243.398 399.124, 253.128 398.501, 255.749 397.655, 259.695 395.560, 269.473 394.437, 274.713 392.541, 284.532 390.646, 294.351 390.574, 294.724 389.568, 300.522 387.859, 310.375 386.932, 315.725 385.399, 325.607 383.866, 335.489 383.531, 337.655 382.165, 347.561 380.799, 357.467 380.389, 360.440 379.182, 370.367 379.116, 370.913 377.909, 380.840 377.525, 384.002 376.471, 393.946 375.417, 403.890 374.954, 408.254 374.048, 418.212 373.142, 428.171 372.693, 433.102 371.930, 443.073 371.167, 453.044 370.753, 458.449 370.743, 458.619 370.120, 468.599 369.497, 478.580 369.147, 484.189 368.662, 494.177 368.177, 504.165 367.883, 510.214 367.535, 520.208 367.186, 530.202 366.969, 536.414 366.756, 546.411 366.543, 556.409 366.410, 562.675 366.333, 572.675 366.255, 582.674 366.207, 588.884 366.267, 598.883 366.326, 608.883 366.362, 614.927 366.560, 624.925 366.758, 634.923 366.872, 640.694 367.210, 650.688 367.549, 660.683 367.732, 666.076 368.215, 676.064 368.698, 686.053 368.935, 690.968 369.567, 700.948 370.199, 710.928 370.473, 715.271 371.259, 725.240 372.045, 735.209 372.335, 738.890 373.282, 748.845 374.229, 758.800 374.508, 761.738 375.624, 771.676 376.740, 781.613 376.978, 783.736 378.273, 793.652 379.567, 803.568 379.729, 804.810 381.214, 814.699 382.698, 824.589 382.744, 824.897 384.432, 834.753 384.814, 836.978 386.006, 843.939 386.228, 845.084 388.136, 854.900 389.495, 861.890 391.642, 871.657 392.616, 876.090 393.192, 878.711 393.748, 880.950 396.157, 890.655 397.079, 894.369 399.778, 903.998 400.988, 908.317 401.135, 908.843 404.156, 918.376 405.341, 922.116 408.723, 931.526 409.677, 934.180 413.469, 943.434 413.600, 943.754 414.125, 945.035 418.383, 954.083 418.666, 954.684 423.282, 963.139 427.956, 970.414 432.672, 976.531 437.413, 981.513 442.167, 985.388 446.918, 988.187 451.654, 989.942 456.364, 990.689 " fill="none" stroke="rgb(0, 0, 0)" stroke-linecap="butt" stroke-linejoin="round" stroke-opacity="1.0" stroke-width="3.0" />
            <path d=" M 565.296, 523.479 565.291, 521.854 565.316, 520.581 565.323, 520.219 565.392, 518.600 565.429, 518.037 565.495, 517.026 565.631, 515.523 565.799, 514.118 565.994, 512.835 566.205, 511.740 566.214, 511.694 566.454, 510.716 566.711, 509.917 566.980, 509.310 567.257, 508.904 567.361, 508.830 567.536, 508.706 " fill="none" stroke="rgb(0, 0, 0)" stroke-linecap="butt" stroke-linejoin="round" stroke-opacity="1.0" stroke-width="3.0" />
            <path d=" M 567.993, 520.628 567.979, 520.131 567.951, 519.662 567.909, 519.235 567.854, 518.861 567.789, 518.550 567.715, 518.312 567.634, 518.151 567.548, 518.074 " fill="none" stroke="rgb(0, 0, 0)" stroke-linecap="butt" stroke-linejoin="round" stroke-opacity="1.0" stroke-width="3.0" />
            <path d=" M 530.546, 472.686 530.652, 478.307 530.925, 478.311 536.226, 478.376 536.433, 478.210 536.186, 472.703 530.799, 472.492 530.658, 472.600 530.546, 472.686 " fill="none" stroke="rgb(0, 0, 0)" stroke-linecap="butt" stroke-linejoin="round" stroke-opacity="1.0" stroke-width="3.0" />
            <path d=" M 536.124, 472.751 530.546, 472.686 " fill="none" stroke="rgb(0, 0, 0)" stroke-linecap="butt" stroke-linejoin="round" stroke-opacity="1.0" stroke-width="3.0" />
            <path d=" M 536.226, 478.376 536.124, 472.751 536.186, 472.703 " fill="none" stroke="rgb(0, 0, 0)" stroke-linecap="butt" stroke-linejoin="round" stroke-opacity="1.0" stroke-width="3.0" />
            <path d=" M 532.437, 474.912 532.425, 474.930 532.326, 475.125 532.267, 475.334 532.250, 475.551 532.278, 475.781 532.350, 475.993 532.461, 476.184 532.478, 476.211 532.620, 476.371 532.791, 476.500 532.825, 476.517 533.007, 476.604 533.046, 476.614 533.224, 476.656 533.250, 476.661 533.283, 476.664 533.321, 476.667 533.364, 476.668 533.406, 476.668 533.449, 476.667 533.489, 476.664 533.527, 476.660 533.560, 476.656 533.587, 476.650 533.678, 476.625 533.716, 476.615 533.723, 476.613 533.739, 476.609 533.760, 476.603 533.801, 476.591 533.868, 476.560 " fill="none" stroke="rgb(0, 0, 0)" stroke-linecap="butt" stroke-linejoin="round" stroke-opacity="1.0" stroke-width="3.0" />
            <path d=" M 533.868, 476.560 534.007, 476.484 534.132, 476.390 534.243, 476.278 534.336, 476.150 534.409, 476.010 534.462, 475.861 534.493, 475.704 534.502, 475.545 534.487, 475.384 534.451, 475.227 534.392, 475.076 534.313, 474.934 534.216, 474.805 534.101, 474.690 533.972, 474.592 533.831, 474.513 533.681, 474.456 533.524, 474.420 533.365, 474.406 533.207, 474.416 533.052, 474.448 532.904, 474.503 532.766, 474.578 532.640, 474.672 532.530, 474.785 532.437, 474.912 " fill="none" stroke="rgb(0, 0, 0)" stroke-linecap="butt" stroke-linejoin="round" stroke-opacity="1.0" stroke-width="3.0" />
            <path d=" M 533.678, 476.625 533.720, 476.614 533.739, 476.609 " fill="none" stroke="rgb(0, 0, 0)" stroke-linecap="butt" stroke-linejoin="round" stroke-opacity="1.0" stroke-width="3.0" />
            <path d=" M 630.225, 876.267 632.394, 876.749 640.309, 877.869 648.209, 878.255 656.079, 877.925 663.901, 876.898 671.662, 875.192 679.347, 872.829 686.943, 869.830 694.437, 866.216 701.818, 862.008 709.075, 857.230 716.198, 851.902 723.177, 846.046 730.005, 839.685 736.672, 832.841 743.173, 825.534 749.500, 817.787 755.513, 809.797 755.647, 809.620 761.359, 801.412 761.609, 801.053 767.030, 792.650 767.380, 792.107 772.520, 783.529 772.956, 782.802 777.825, 774.068 778.333, 773.158 782.940, 764.282 783.506, 763.192 787.860, 754.190 788.473, 752.924 792.582, 743.808 793.229, 742.372 797.101, 733.152 797.772, 731.554 801.414, 722.241 802.100, 720.486 805.518, 711.089 806.210, 709.187 809.410, 699.713 810.100, 697.671 813.087, 688.128 813.767, 685.957 816.547, 676.351 817.210, 674.058 819.786, 664.395 820.427, 661.991 822.804, 652.278 823.417, 649.771 825.597, 640.012 826.178, 637.413 828.165, 627.613 828.708, 624.932 830.504, 615.094 831.007, 612.341 832.614, 602.471 833.073, 599.656 834.493, 589.757 834.904, 586.889 836.139, 576.966 836.501, 574.056 837.550, 564.111 837.861, 561.170 838.726, 551.208 838.983, 548.245 839.664, 538.268 839.867, 535.294 840.364, 525.306 840.512, 522.332 840.824, 512.336 840.916, 509.371 841.042, 499.372 841.079, 496.427 841.017, 486.427 841.000, 483.512 840.749, 473.515 840.677, 470.641 840.235, 460.650 840.110, 457.828 839.474, 447.848 839.298, 445.087 838.465, 435.122 838.240, 432.433 837.207, 422.487 836.936, 419.882 835.698, 409.959 835.385, 407.447 833.938, 397.552 833.585, 395.145 831.924, 385.284 831.538, 382.991 829.657, 373.170 829.242, 371.002 827.135, 361.226 826.696, 359.194 824.356, 349.471 823.902, 347.583 821.321, 337.922 820.858, 336.189 818.029, 326.597 817.566, 325.027 814.478, 315.515 814.024, 314.117 810.670, 304.696 810.235, 303.477 806.602, 294.161 806.199, 293.127 802.276, 283.929 801.917, 283.087 797.693, 274.023 797.391, 273.375 792.852, 264.465 792.623, 264.015 787.755, 255.279 787.614, 255.026 782.368, 246.430 776.889, 238.250 771.179, 230.507 765.243, 223.225 759.086, 216.427 752.714, 210.136 746.133, 204.375 739.351, 199.169 732.374, 194.541 725.213, 190.515 717.876, 187.113 710.374, 184.359 702.719, 182.276 694.923, 180.885 687.000, 180.207 678.964, 180.263 676.738, 180.461 " fill="none" stroke="rgb(0, 0, 0)" stroke-linecap="butt" stroke-linejoin="round" stroke-opacity="1.0" stroke-width="3.0" />
            <path d=" M 632.394, 876.749 630.548, 876.313 624.484, 874.878 616.596, 872.242 608.750, 868.827 600.966, 864.621 593.265, 859.614 585.670, 853.800 578.202, 847.174 571.191, 840.044 570.885, 839.733 564.342, 832.172 563.742, 831.479 557.661, 823.541 556.798, 822.415 551.168, 814.151 550.076, 812.549 544.884, 804.002 543.716, 802.080 543.600, 801.890 541.417, 797.867 539.991, 795.237 537.396, 790.455 535.446, 786.431 534.016, 783.480 531.486, 778.259 529.589, 773.871 529.128, 772.804 526.523, 766.780 525.895, 765.326 522.304, 755.993 520.645, 751.681 519.477, 748.256 516.250, 738.791 515.760, 737.353 512.882, 727.776 511.260, 722.377 510.387, 719.053 507.847, 709.381 507.166, 706.789 504.952, 697.037 503.498, 690.631 501.600, 680.813 500.273, 673.947 498.681, 664.075 497.506, 656.786 496.213, 646.870 495.213, 639.199 494.212, 629.249 493.406, 621.241 492.690, 611.266 492.095, 602.968 491.659, 592.977 491.287, 584.440 491.128, 574.441 490.990, 565.717 491.104, 555.718 491.205, 546.864 491.590, 536.871 491.934, 527.942 492.502, 519.294 493.077, 510.531 493.176, 509.018 493.276, 507.947 494.199, 497.989 494.926, 490.154 496.120, 480.225 497.179, 471.415 498.643, 461.523 499.924, 452.865 501.661, 443.017 503.151, 434.565 505.164, 424.770 506.847, 416.577 509.140, 406.843 510.752, 399.995 510.997, 398.958 513.573, 389.296 515.582, 381.764 518.449, 372.184 520.584, 365.049 523.748, 355.563 525.982, 348.863 528.477, 342.116 531.754, 333.252 535.534, 323.994 537.841, 318.344 537.876, 318.259 540.503, 312.420 541.951, 309.201 544.325, 303.924 545.488, 301.573 546.946, 298.625 548.138, 296.216 549.590, 293.280 549.822, 292.812 550.521, 291.399 551.074, 290.282 552.621, 287.436 557.399, 278.650 558.098, 277.364 558.363, 276.922 563.494, 268.339 565.371, 265.199 570.868, 256.845 572.866, 253.809 574.871, 251.046 580.556, 243.214 586.819, 235.417 588.416, 233.429 595.076, 225.970 596.418, 224.466 603.484, 217.390 604.537, 216.334 612.012, 209.691 612.748, 209.037 620.631, 202.884 621.026, 202.575 629.348, 196.948 637.689, 192.151 646.029, 188.175 654.346, 185.012 662.620, 182.648 670.832, 181.070 676.988, 180.459 678.964, 180.263 " fill="none" stroke="rgb(0, 0, 0)" stroke-linecap="butt" stroke-linejoin="round" stroke-opacity="1.0" stroke-width="3.0" />
            <path d=" M 676.738, 180.461 668.595, 181.269 660.372, 182.847 652.087, 185.210 643.760, 188.372 635.410, 192.345 627.059, 197.139 618.728, 202.762 610.839, 208.907 610.440, 209.218 602.959, 215.854 602.221, 216.509 595.148, 223.579 594.093, 224.634 587.425, 232.087 586.082, 233.588 579.813, 241.379 578.215, 243.364 572.750, 250.878 570.517, 253.948 565.013, 262.297 563.016, 265.327 557.877, 273.906 555.737, 277.479 552.111, 284.134 549.638, 288.674 549.038, 289.775 548.902, 290.025 548.707, 290.383 547.574, 292.668 543.133, 301.628 542.736, 302.430 541.952, 304.011 541.311, 305.433 539.875, 308.620 535.762, 317.747 535.499, 318.330 531.713, 327.586 529.372, 333.307 527.699, 337.825 526.539, 340.955 525.071, 344.919 523.597, 348.901 520.428, 358.385 518.196, 365.069 515.324, 374.648 513.191, 381.765 510.611, 391.426 508.604, 398.939 506.308, 408.672 504.453, 416.538 502.438, 426.333 500.756, 434.505 499.017, 444.353 497.528, 452.784 497.065, 455.911 495.599, 465.803 494.783, 471.313 493.745, 479.939 492.551, 489.868 492.532, 490.030 491.607, 499.987 491.169, 504.707 490.913, 507.468 490.783, 508.872 490.676, 510.491 490.267, 516.733 490.102, 519.252 489.930, 521.868 489.543, 527.775 489.158, 537.768 488.816, 546.675 488.703, 556.674 488.603, 565.507 488.764, 575.506 488.904, 584.208 489.342, 594.199 489.715, 602.716 490.434, 612.690 491.031, 620.969 492.036, 630.918 492.843, 638.907 494.140, 648.823 495.141, 656.475 496.737, 666.347 497.913, 673.618 499.816, 683.435 501.144, 690.284 503.364, 700.035 504.372, 704.461 504.819, 706.426 507.366, 716.096 508.920, 721.998 509.573, 724.166 512.457, 733.741 513.427, 736.960 516.661, 746.422 517.054, 747.571 518.320, 751.274 521.918, 760.604 523.577, 764.907 525.901, 770.270 528.959, 777.326 529.177, 777.828 533.440, 786.605 534.857, 789.522 535.095, 790.013 539.465, 798.049 540.895, 800.679 541.309, 801.440 543.247, 804.624 547.794, 812.090 553.432, 820.349 554.525, 821.949 560.615, 829.881 561.479, 831.007 568.030, 838.563 568.632, 839.257 575.650, 846.380 575.959, 846.693 583.437, 853.317 591.042, 859.129 598.754, 864.134 606.548, 868.340 614.405, 871.756 622.304, 874.394 630.225, 876.267 " fill="none" stroke="rgb(0, 0, 0)" stroke-linecap="butt" stroke-linejoin="round" stroke-opacity="1.0" stroke-width="3.0" />
            <path d=" M 787.612, 562.586 777.625, 562.083 776.859, 562.044 772.511, 559.404 763.964, 554.214 755.416, 549.024 753.744, 548.008 753.071, 547.599 752.398, 547.190 751.723, 546.780 751.049, 546.369 750.270, 545.757 749.548, 544.905 748.897, 543.831 748.331, 542.553 747.863, 541.097 747.500, 539.489 747.249, 537.762 747.116, 535.947 747.103, 534.080 747.211, 532.198 747.223, 532.096 747.279, 531.638 747.437, 530.336 747.777, 528.531 747.970, 527.792 748.225, 526.817 748.771, 525.228 749.342, 523.937 749.405, 523.794 750.115, 522.543 750.886, 521.498 751.143, 521.241 751.193, 521.190 751.704, 520.678 752.552, 520.100 753.272, 519.719 753.992, 519.338 754.711, 518.957 755.429, 518.578 755.789, 518.387 756.602, 517.958 756.825, 517.841 765.668, 513.172 774.512, 508.504 780.133, 505.536 " fill="none" stroke="rgb(0, 0, 0)" stroke-linecap="butt" stroke-linejoin="round" stroke-opacity="1.0" stroke-width="3.0" />
            <path d=" M 687.256, 256.979 679.444, 257.040 678.907, 257.044 674.656, 257.496 670.472, 257.941 661.975, 259.682 656.531, 261.335 653.443, 262.273 644.901, 265.706 636.374, 269.980 627.895, 275.113 619.761, 280.931 619.497, 281.120 611.806, 287.512 611.214, 288.004 603.975, 294.904 603.080, 295.758 596.292, 303.101 595.127, 304.362 588.778, 312.088 587.382, 313.788 581.458, 321.844 579.872, 324.001 574.367, 332.350 572.631, 334.984 567.546, 343.594 565.700, 346.719 564.309, 349.352 563.859, 350.203 560.726, 356.133 560.598, 356.375 559.117, 359.179 558.013, 361.518 557.633, 362.323 556.463, 364.803 553.364, 371.370 552.914, 372.325 551.843, 374.871 550.853, 377.228 549.298, 380.927 547.120, 386.108 543.623, 395.477 543.140, 396.769 541.758, 400.473 541.609, 400.924 538.473, 410.420 537.842, 412.331 536.843, 415.356 534.059, 424.960 532.395, 430.700 529.964, 440.400 529.007, 444.218 528.447, 446.455 526.369, 456.237 525.025, 462.561 523.299, 472.411 522.152, 478.955 520.774, 488.859 519.841, 495.565 518.806, 505.511 518.615, 507.347 518.546, 508.016 518.284, 510.532 518.098, 512.320 517.399, 522.295 516.919, 529.148 516.900, 529.654 516.532, 539.648 516.295, 546.060 516.243, 556.060 516.207, 562.899 516.472, 572.895 516.651, 579.593 517.240, 589.576 517.623, 596.072 518.542, 606.029 519.118, 612.266 520.374, 622.187 520.625, 624.170 521.123, 628.110 522.353, 635.693 523.626, 643.540 525.584, 653.346 526.612, 658.496 528.477, 666.289 530.063, 672.921 532.772, 682.548 533.958, 686.765 536.802, 695.469 537.079, 696.317 537.289, 696.959 538.276, 699.979 538.485, 700.535 539.866, 704.208 542.993, 712.519 544.289, 715.530 545.766, 718.962 545.768, 718.967 547.199, 722.292 548.083, 724.346 550.133, 728.524 550.844, 729.973 551.600, 731.514 553.521, 735.429 553.753, 735.844 558.630, 744.574 559.279, 745.736 564.648, 754.172 565.330, 755.243 571.209, 763.332 571.645, 763.931 578.049, 771.612 578.195, 771.787 584.953, 778.797 591.890, 784.955 598.978, 790.261 606.189, 794.715 613.497, 798.320 616.139, 799.310 620.876, 801.085 628.300, 803.022 635.746, 804.144 643.191, 804.465 650.612, 804.005 657.988, 802.784 665.300, 800.821 672.529, 798.140 679.658, 794.764 686.669, 790.720 693.548, 786.030 700.280, 780.721 706.852, 774.821 713.251, 768.355 719.466, 761.349 725.487, 753.831 731.304, 745.827 736.825, 737.489 736.907, 737.364 742.084, 728.808 742.290, 728.467 747.136, 719.720 747.444, 719.164 751.972, 710.248 752.362, 709.479 756.584, 700.414 757.038, 699.438 760.965, 690.241 761.467, 689.065 765.110, 679.752 765.644, 678.386 769.010, 668.970 769.563, 667.425 772.662, 657.917 773.220, 656.205 776.059, 646.617 776.612, 644.751 779.198, 635.091 779.734, 633.085 782.072, 623.362 782.585, 621.230 784.679, 611.452 785.159, 609.209 787.015, 599.383 787.456, 597.045 789.076, 587.177 789.473, 584.760 790.859, 574.856 791.207, 572.375 792.361, 562.442 792.656, 559.913 793.581, 549.956 793.818, 547.395 794.514, 537.419 794.600, 536.199 " fill="none" stroke="rgb(0, 0, 0)" stroke-linecap="butt" stroke-linejoin="round" stroke-opacity="1.0" stroke-width="3.0" />
            <path d=" M 780.133, 505.536 790.100, 506.355 790.873, 506.419 " fill="none" stroke="rgb(0, 0, 0)" stroke-linecap="butt" stroke-linejoin="round" stroke-opacity="1.0" stroke-width="3.0" />
            <path d=" M 825.030, 521.700 825.230, 511.702 825.235, 511.434 825.173, 501.434 825.157, 498.782 824.828, 488.787 824.742, 486.185 824.143, 476.203 823.991, 473.668 823.119, 463.706 822.905, 461.252 822.232, 455.419 821.488, 448.959 820.070, 439.060 819.747, 436.808 818.049, 426.953 817.681, 424.822 815.688, 415.023 815.283, 413.033 812.983, 403.301 812.550, 401.469 809.932, 391.817 809.482, 390.157 806.538, 380.600 806.083, 379.122 802.805, 369.675 802.358, 368.388 798.742, 359.064 798.318, 357.970 794.355, 348.789 793.968, 347.890 789.638, 338.876 789.306, 338.184 784.590, 329.366 784.334, 328.888 779.213, 320.299 779.055, 320.034 773.476, 311.650 767.607, 303.762 761.461, 296.384 755.049, 289.535 748.379, 283.248 741.460, 277.566 734.302, 272.523 726.920, 268.151 719.345, 264.479 719.329, 264.471 711.549, 261.499 703.598, 259.242 695.494, 257.722 687.256, 256.979 " fill="none" stroke="rgb(0, 0, 0)" stroke-linecap="butt" stroke-linejoin="round" stroke-opacity="1.0" stroke-width="3.0" />
            <path d=" M 656.531, 261.335 657.131, 261.551 663.446, 264.573 669.592, 268.287 675.556, 272.675 681.323, 277.715 686.885, 283.375 692.233, 289.621 697.360, 296.409 702.263, 303.705 706.932, 311.494 711.359, 319.756 715.535, 328.470 719.456, 337.608 723.046, 346.941 723.121, 347.136 726.380, 356.590 726.529, 357.021 729.480, 366.575 729.682, 367.227 732.338, 376.868 732.576, 377.735 734.943, 387.451 735.206, 388.527 737.293, 398.307 737.565, 399.584 739.383, 409.417 739.653, 410.881 741.212, 420.759 741.469, 422.391 742.782, 432.305 743.018, 434.088 744.096, 444.030 744.303, 445.943 745.155, 455.907 745.328, 457.933 745.954, 467.914 746.087, 470.041 746.488, 480.033 746.577, 482.247 746.756, 492.245 746.797, 494.529 746.758, 504.529 746.748, 506.866 746.590, 513.107 746.409, 514.316 746.174, 515.493 745.885, 516.626 745.546, 517.703 745.161, 518.713 744.733, 519.645 744.267, 520.489 743.768, 521.237 743.240, 521.881 742.690, 522.413 742.122, 522.828 741.544, 523.122 740.960, 523.292 740.378, 523.337 734.290, 523.141 " fill="none" stroke="rgb(0, 0, 0)" stroke-linecap="butt" stroke-linejoin="round" stroke-opacity="1.0" stroke-width="3.0" />
            <path d=" M 800.242, 536.218 800.977, 536.265 803.230, 536.410 812.725, 536.588 814.659, 536.624 822.437, 536.770 824.387, 536.807 824.405, 536.807 830.497, 536.959 830.956, 526.969 831.106, 523.682 831.308, 513.684 831.373, 510.413 831.316, 500.413 831.297, 497.174 830.978, 487.179 830.876, 483.990 830.291, 474.007 830.108, 470.883 829.255, 460.920 828.995, 457.878 827.869, 447.942 827.535, 444.998 826.130, 435.098 825.728, 432.269 824.038, 422.413 823.575, 419.714 821.593, 409.912 821.076, 407.358 818.794, 397.622 818.233, 395.227 815.641, 385.569 815.045, 383.349 813.813, 379.298 811.516, 371.747 808.277, 362.287 807.648, 360.450 806.911, 358.530 803.443, 349.485 799.508, 340.291 798.904, 338.880 794.603, 329.852 794.036, 328.662 789.355, 319.825 788.844, 318.861 783.768, 310.245 783.333, 309.505 780.487, 305.166 777.509, 300.626 774.414, 296.397 771.380, 292.251 765.041, 284.517 764.953, 284.410 758.239, 277.136 751.247, 270.457 743.989, 264.401 736.478, 259.001 728.728, 254.287 720.755, 250.285 712.574, 247.023 704.205, 244.529 695.668, 242.831 686.984, 241.949 678.175, 241.908 668.175, 241.925 660.221, 241.939 " fill="none" stroke="rgb(0, 0, 0)" stroke-linecap="butt" stroke-linejoin="round" stroke-opacity="1.0" stroke-width="3.0" />
            <path d=" M 678.175, 241.908 672.026, 242.474 669.267, 242.729 660.590, 244.371 660.286, 244.428 651.259, 247.022 642.215, 250.522 633.185, 254.940 624.588, 260.048 624.200, 260.279 616.019, 266.030 615.293, 266.540 607.548, 272.866 606.499, 273.724 599.200, 280.559 597.851, 281.822 591.000, 289.107 589.386, 290.823 582.980, 298.501 581.138, 300.709 575.172, 308.734 573.145, 311.461 567.610, 319.789 565.442, 323.051 560.714, 330.995 560.174, 331.902 558.585, 334.571 558.064, 335.447 555.765, 339.760 554.215, 342.666 551.046, 348.612 548.365, 354.236 546.809, 357.499 544.423, 362.505 540.510, 371.707 538.226, 377.077 534.968, 385.707 532.487, 392.277 529.327, 401.765 527.235, 408.048 524.441, 417.650 522.497, 424.329 520.062, 434.028 518.297, 441.055 516.215, 450.836 514.657, 458.157 512.925, 468.006 511.595, 475.565 510.210, 485.469 509.129, 493.205 508.089, 503.151 507.374, 509.978 507.268, 511.001 506.572, 520.977 506.022, 528.877 " fill="none" stroke="rgb(0, 0, 0)" stroke-linecap="butt" stroke-linejoin="round" stroke-opacity="1.0" stroke-width="3.0" />
            <path d=" M 756.825, 517.841 756.875, 517.040 756.821, 517.254 756.602, 517.958 " fill="none" stroke="rgb(0, 0, 0)" stroke-linecap="butt" stroke-linejoin="round" stroke-opacity="1.0" stroke-width="3.0" />
            <path d=" M 807.162, 527.509 808.134, 527.538 808.647, 527.497 809.161, 527.347 809.673, 527.089 810.177, 526.727 810.670, 526.266 811.148, 525.708 811.607, 525.061 812.043, 524.328 812.454, 523.517 812.836, 522.633 813.187, 521.684 813.503, 520.676 813.539, 520.538 813.782, 519.618 814.021, 518.517 823.213, 521.175 825.030, 521.700 824.834, 522.359 824.486, 523.314 824.106, 524.202 823.698, 525.017 823.265, 525.754 822.995, 526.140 822.810, 526.405 822.337, 526.965 821.848, 527.430 821.349, 527.794 820.842, 528.053 820.333, 528.205 819.825, 528.246 813.684, 528.069 807.288, 527.886 807.162, 527.509 806.841, 526.549 806.305, 525.376 805.688, 524.385 805.000, 523.593 804.252, 523.015 803.458, 522.660 802.630, 522.536 799.116, 522.330 798.547, 522.296 790.757, 521.840 790.578, 521.863 789.902, 521.947 789.042, 522.284 788.227, 522.849 788.028, 523.056 787.474, 523.633 786.760, 524.621 786.097, 525.797 785.498, 527.140 784.972, 528.629 784.529, 530.238 784.175, 531.939 783.919, 533.703 783.763, 535.500 789.676, 535.881 789.913, 535.896 794.600, 536.199 795.686, 536.269 799.987, 536.349 800.229, 536.354 800.242, 536.218 800.280, 535.820 800.283, 535.783 800.377, 535.229 800.379, 535.218 800.440, 534.976 800.507, 534.706 800.671, 534.230 800.864, 533.812 800.916, 533.729 801.080, 533.465 801.314, 533.197 801.560, 533.016 801.810, 532.928 802.057, 532.934 " fill="none" stroke="rgb(0, 0, 0)" stroke-linecap="butt" stroke-linejoin="round" stroke-opacity="1.0" stroke-width="3.0" />
            <path d=" M 772.511, 559.404 771.337, 569.335 771.180, 570.666 769.766, 580.566 769.430, 582.921 767.774, 592.783 767.389, 595.076 765.489, 604.894 765.061, 607.109 762.915, 616.876 762.448, 618.998 760.051, 628.706 759.554, 630.720 756.901, 640.362 756.381, 642.253 753.468, 651.819 752.934, 653.574 749.754, 663.055 749.216, 664.661 745.763, 674.046 745.232, 675.489 741.497, 684.765 740.985, 686.035 736.961, 695.189 736.483, 696.275 732.159, 705.292 731.730, 706.186 727.095, 715.047 726.732, 715.741 721.775, 724.426 721.495, 724.916 716.206, 733.403 716.028, 733.688 710.338, 742.028 704.433, 749.911 698.324, 757.313 692.019, 764.207 685.530, 770.565 678.869, 776.363 672.047, 781.575 665.080, 786.175 657.982, 790.136 650.767, 793.435 643.454, 796.048 636.059, 797.952 628.602, 799.122 621.103, 799.542 616.139, 799.310 " fill="none" stroke="rgb(0, 0, 0)" stroke-linecap="butt" stroke-linejoin="round" stroke-opacity="1.0" stroke-width="3.0" />
            <path d=" M 789.913, 535.896 789.217, 545.872 789.135, 547.055 788.159, 557.007 787.612, 562.586 779.094, 557.346 777.425, 556.320 773.078, 553.645 765.233, 548.819 764.567, 548.409 763.900, 547.998 763.232, 547.587 762.564, 547.175 761.792, 546.561 761.077, 545.706 760.433, 544.626 759.874, 543.343 759.411, 541.880 759.053, 540.265 758.806, 538.530 758.698, 537.015 758.676, 536.706 758.665, 534.830 758.774, 532.939 758.830, 532.472 759.000, 531.067 759.154, 530.241 759.339, 529.253 759.785, 527.531 760.328, 525.934 760.958, 524.492 761.662, 523.234 762.428, 522.183 763.240, 521.359 764.080, 520.777 764.794, 520.394 765.508, 520.010 766.221, 519.628 766.933, 519.245 767.291, 519.054 776.105, 514.331 780.027, 512.230 788.841, 507.507 790.873, 506.419 790.705, 516.417 790.680, 517.914 790.578, 521.863 " fill="none" stroke="rgb(0, 0, 0)" stroke-linecap="butt" stroke-linejoin="round" stroke-opacity="1.0" stroke-width="3.0" />
            <path d=" M 764.566, 537.401 764.259, 537.248 763.981, 536.953 763.743, 536.528 763.557, 535.993 763.431, 535.372 763.369, 534.691 763.377, 533.980 763.451, 533.271 763.551, 532.784 763.590, 532.594 763.605, 532.548 763.788, 531.979 764.035, 531.454 764.320, 531.040 764.632, 530.758 764.956, 530.617 765.278, 530.626 " fill="none" stroke="rgb(0, 0, 0)" stroke-linecap="butt" stroke-linejoin="round" stroke-opacity="1.0" stroke-width="3.0" />
            <path d=" M 765.278, 530.626 765.585, 530.782 765.862, 531.079 766.098, 531.504 766.284, 532.037 766.409, 532.657 766.437, 532.975 766.469, 533.336 766.462, 534.044 766.388, 534.751 766.250, 535.426 766.053, 536.039 765.808, 536.564 765.523, 536.978 765.212, 537.263 764.888, 537.405 764.566, 537.401 " fill="none" stroke="rgb(0, 0, 0)" stroke-linecap="butt" stroke-linejoin="round" stroke-opacity="1.0" stroke-width="3.0" />
            <path d=" M 799.987, 536.349 799.292, 546.325 799.169, 548.091 798.245, 558.048 797.953, 561.194 796.800, 571.127 796.439, 574.241 795.056, 584.144 794.628, 587.209 793.013, 597.077 792.522, 600.076 790.672, 609.903 790.123, 612.820 788.036, 622.600 787.434, 625.419 785.105, 635.144 784.457, 637.849 781.880, 647.511 781.193, 650.087 778.365, 659.679 777.648, 662.111 774.562, 671.623 773.824, 673.896 770.471, 683.317 769.724, 685.416 766.098, 694.736 765.353, 696.649 761.444, 705.853 760.716, 707.568 756.514, 716.643 755.817, 718.148 751.311, 727.076 750.661, 728.362 745.840, 737.124 745.256, 738.185 740.107, 746.758 739.608, 747.589 734.117, 755.946 733.724, 756.545 727.878, 764.658 727.613, 765.026 721.398, 772.861 721.283, 773.006 714.744, 780.454 708.008, 787.341 701.085, 793.640 693.989, 799.323 686.732, 804.360 679.331, 808.722 671.802, 812.383 664.160, 815.317 656.425, 817.495 648.617, 818.894 640.756, 819.490 632.864, 819.262 624.966, 818.187 617.084, 816.249 609.246, 813.434 601.477, 809.727 593.807, 805.118 586.262, 799.603 578.873, 793.179 571.866, 786.045 571.670, 785.846 565.201, 778.221 564.684, 777.611 558.743, 769.567 557.943, 768.485 552.516, 760.086 551.481, 758.483 550.862, 757.391 548.633, 753.457 547.135, 750.813 545.327, 747.623 542.654, 742.249 541.163, 739.250 539.512, 735.931 536.692, 729.466 534.064, 723.440 533.520, 722.011 529.959, 712.666 529.013, 710.182 525.871, 700.689 524.386, 696.199 521.646, 686.582 520.208, 681.538 517.853, 671.820 516.896, 667.871 516.504, 666.250 514.521, 656.449 513.295, 650.390 511.673, 640.522 510.603, 634.017 509.329, 624.098 508.442, 617.197 507.508, 607.241 506.828, 599.999 506.226, 590.017 505.773, 582.492 505.497, 572.496 505.284, 564.752 505.330, 554.752 505.366, 546.854 505.731, 536.861 506.022, 528.877 504.489, 518.995 503.202, 510.698 503.117, 510.146 " fill="none" stroke="rgb(0, 0, 0)" stroke-linecap="butt" stroke-linejoin="round" stroke-opacity="1.0" stroke-width="3.0" />
            <path d=" M 660.221, 241.939 656.010, 242.342 652.146, 242.712 643.994, 244.363 635.789, 246.907 627.558, 250.359 619.330, 254.729 611.131, 260.023 603.186, 266.095 602.993, 266.243 595.516, 272.883 594.946, 273.389 587.939, 280.523 587.024, 281.455 580.480, 289.016 579.258, 290.428 573.166, 298.358 571.681, 300.292 566.030, 308.543 564.328, 311.028 559.103, 319.555 558.418, 320.672 557.827, 321.636 557.247, 322.583 557.231, 322.609 554.369, 327.820 552.828, 330.624 550.424, 335.000 546.868, 342.221 545.323, 345.359 543.940, 348.166 539.905, 357.316 537.811, 362.065 534.146, 371.369 533.371, 373.337 532.066, 376.648 528.760, 386.085 526.737, 391.860 523.779, 401.413 521.849, 407.646 519.232, 417.297 517.430, 423.943 515.146, 433.679 513.502, 440.686 511.544, 450.492 510.085, 457.804 508.451, 467.670 507.199, 475.227 505.884, 485.140 504.858, 492.880 503.854, 502.829 503.117, 510.146 502.924, 510.934 500.548, 520.648 498.626, 528.502 " fill="none" stroke="rgb(0, 0, 0)" stroke-linecap="butt" stroke-linejoin="round" stroke-opacity="1.0" stroke-width="3.0" />
            <path d=" M 497.954, 547.061 497.911, 557.061 497.875, 565.536 498.156, 575.532 498.389, 583.845 498.998, 593.827 499.491, 601.909 500.434, 611.865 501.171, 619.650 502.456, 629.567 503.418, 636.993 505.054, 646.858 506.216, 653.867 508.214, 663.665 509.547, 670.204 511.920, 679.919 513.392, 685.943 514.438, 689.585 517.199, 699.197 517.724, 701.024 520.890, 710.510 522.521, 715.397 526.108, 724.731 527.754, 729.012 531.363, 737.212 533.395, 741.828 534.569, 744.165 539.102, 753.191 539.413, 753.811 540.617, 755.913 545.199, 763.918 545.777, 764.928 546.712, 766.358 549.023, 769.896 552.458, 775.154 558.444, 783.164 559.421, 784.470 565.939, 792.054 566.634, 792.863 573.693, 799.947 574.067, 800.322 581.687, 806.842 589.463, 812.424 597.364, 817.072 605.362, 820.791 613.428, 823.595 621.533, 825.499 629.653, 826.518 637.761, 826.670 645.835, 825.980 653.851, 824.471 661.788, 822.166 669.627, 819.092 677.349, 815.278 684.937, 810.751 692.374, 805.538 699.646, 799.669 706.739, 793.175 713.640, 786.084 720.222, 778.556 720.337, 778.425 726.540, 770.582 726.820, 770.228 732.658, 762.108 733.079, 761.522 738.564, 753.160 739.105, 752.334 744.250, 743.760 744.890, 742.694 749.709, 733.932 750.426, 732.629 754.932, 723.702 755.706, 722.168 759.910, 713.094 760.725, 711.335 764.636, 702.132 765.475, 700.158 769.106, 690.840 769.954, 688.664 773.312, 679.244 774.156, 676.877 777.247, 667.367 778.075, 664.821 780.909, 655.231 781.709, 652.523 784.292, 642.862 785.055, 640.006 787.391, 630.283 788.108, 627.294 790.202, 617.515 790.866, 614.410 792.721, 604.583 793.327, 601.377 794.947, 591.509 795.487, 588.219 796.874, 578.315 797.344, 574.957 798.500, 565.024 798.897, 561.615 799.823, 551.658 800.143, 548.214 800.840, 538.238 800.977, 536.265 " fill="none" stroke="rgb(0, 0, 0)" stroke-linecap="butt" stroke-linejoin="round" stroke-opacity="1.0" stroke-width="3.0" />
            <path d=" M 498.626, 528.502 498.264, 538.496 497.954, 547.061 " fill="none" stroke="rgb(0, 0, 0)" stroke-linecap="butt" stroke-linejoin="round" stroke-opacity="1.0" stroke-width="3.0" />
            <path d=" M 813.813, 379.298 811.642, 369.536 811.575, 369.235 809.168, 359.529 808.879, 358.366 806.226, 348.724 805.947, 347.708 803.039, 338.140 802.778, 337.279 799.604, 327.796 799.372, 327.100 795.923, 317.713 795.730, 317.188 791.995, 307.911 791.854, 307.560 787.825, 298.408 787.748, 298.233 783.413, 289.225 778.852, 280.554 774.068, 272.241 769.062, 264.306 763.839, 256.774 758.401, 249.668 752.754, 243.008 746.903, 236.811 740.855, 231.098 734.617, 225.886 728.197, 221.199 721.601, 217.056 714.838, 213.483 707.918, 210.502 700.851, 208.138 693.648, 206.407 686.323, 205.324 678.889, 204.905 671.358, 205.165 670.284, 205.300 663.746, 206.121 656.070, 207.788 648.345, 210.183 640.591, 213.321 632.827, 217.213 625.071, 221.862 617.344, 227.271 609.667, 233.438 602.272, 240.170 602.059, 240.364 595.067, 247.513 594.545, 248.047 592.817, 250.018 592.811, 250.024 592.748, 250.096 592.745, 250.099 592.676, 250.178 592.607, 250.256 592.579, 250.289 592.327, 250.576 587.147, 256.482 583.492, 261.106 579.890, 265.663 574.075, 273.798 572.799, 275.583 567.358, 283.973 565.898, 286.224 560.817, 294.838 559.208, 297.565 555.893, 303.735 555.093, 305.226 554.707, 305.943 554.069, 307.132 552.754, 309.580 552.172, 310.769 550.679, 313.818 546.556, 322.242 544.670, 326.475 543.209, 329.756 540.639, 335.523 536.886, 344.793 535.024, 349.392 531.580, 358.780 531.359, 359.383 529.734, 363.813 526.594, 373.307 524.793, 378.750 521.949, 388.337 520.221, 394.161 517.663, 403.828 516.031, 409.997 513.754, 419.734 512.240, 426.209 510.240, 436.007 508.864, 442.750 507.138, 452.600 505.917, 459.567 504.462, 469.461 503.412, 476.607 502.226, 486.536 501.357, 493.813 500.439, 503.771 499.760, 511.131 499.588, 513.763 498.937, 523.742 498.626, 528.502 498.244, 538.495 497.961, 545.871 497.954, 547.061 497.837, 557.060 497.765, 563.179 497.923, 573.178 498.037, 580.370 498.469, 590.361 498.773, 597.389 499.485, 607.364 499.971, 614.181 500.967, 624.132 501.623, 630.694 502.907, 640.611 503.718, 646.876 505.297, 656.750 506.245, 662.680 508.128, 672.501 509.193, 678.059 511.391, 687.814 512.551, 692.966 513.528, 696.715 516.051, 706.391 516.304, 707.362 519.161, 716.945 520.432, 721.210 523.633, 730.684 524.915, 734.478 528.474, 743.823 529.735, 747.136 529.810, 747.312 532.935, 754.626 534.871, 759.156 537.338, 764.313 538.783, 767.335 540.304, 770.514 543.276, 776.068 544.730, 778.785 546.015, 781.185 546.993, 782.820 551.983, 791.150 557.557, 799.452 558.188, 800.392 564.207, 808.378 564.605, 808.905 571.078, 816.527 571.211, 816.683 577.985, 823.723 584.904, 830.023 591.949, 835.582 599.099, 840.402 606.336, 844.483 613.640, 847.830 620.993, 850.452 627.288, 852.083 628.376, 852.365 635.770, 853.584 643.158, 854.123 650.525, 853.999 657.856, 853.225 665.138, 851.816 672.355, 849.786 679.497, 847.151 686.551, 843.933 693.505, 840.155 700.348, 835.837 707.071, 831.001 713.665, 825.667 720.122, 819.852 726.433, 813.574 732.590, 806.849 738.586, 799.697 744.416, 792.139 750.074, 784.198 755.555, 775.893 760.780, 767.366 760.855, 767.243 765.805, 758.554 765.969, 758.266 770.652, 749.431 770.892, 748.979 775.317, 740.011 775.620, 739.397 779.793, 730.310 780.149, 729.536 784.079, 720.340 784.475, 719.412 788.170, 710.120 788.597, 709.046 792.064, 699.666 792.512, 698.453 795.758, 688.995 796.219, 687.651 799.249, 678.122 799.715, 676.656 802.534, 667.061 802.999, 665.481 805.610, 655.828 806.066, 654.142 808.472, 644.436 808.915, 642.651 811.119, 632.897 811.543, 631.023 813.550, 621.227 813.950, 619.275 815.764, 609.441 816.137, 607.421 817.759, 597.553 818.100, 595.474 819.531, 585.577 819.839, 583.449 821.080, 573.526 821.351, 571.358 822.404, 561.413 822.636, 559.216 823.501, 549.253 823.693, 547.036 824.370, 537.058 824.387, 536.807 " fill="none" stroke="rgb(0, 0, 0)" stroke-linecap="butt" stroke-linejoin="round" stroke-opacity="1.0" stroke-width="3.0" />
            <path d=" M 669.118, 205.340 661.496, 206.297 653.810, 207.964 646.075, 210.357 638.311, 213.493 630.538, 217.383 622.773, 222.029 615.037, 227.432 607.351, 233.595 599.950, 240.320 599.736, 240.515 592.736, 247.656 592.214, 248.190 590.050, 250.652 589.959, 250.755 589.840, 250.891 589.767, 250.974 589.754, 250.988 588.945, 251.909 588.914, 251.944 587.212, 253.882 584.808, 256.617 578.600, 264.456 577.544, 265.789 576.904, 266.682 571.081, 274.812 570.446, 275.699 564.997, 284.084 563.539, 286.329 558.451, 294.938 556.844, 297.658 554.640, 301.752 553.934, 303.063 553.280, 304.280 551.671, 307.267 550.384, 309.660 550.178, 310.079 545.776, 319.058 545.185, 320.261 544.181, 322.309 544.079, 322.539 542.613, 325.823 538.537, 334.954 538.259, 335.576 534.501, 344.842 532.640, 349.429 530.638, 354.880 527.348, 363.834 524.202, 373.326 522.404, 378.754 519.555, 388.340 517.829, 394.147 515.267, 403.814 513.637, 409.965 511.357, 419.702 509.845, 426.159 507.842, 435.957 506.468, 442.681 504.740, 452.530 503.521, 459.479 502.064, 469.372 501.016, 476.499 499.829, 486.428 498.961, 493.685 498.043, 503.643 497.365, 510.983 497.043, 515.921 496.392, 525.900 496.234, 528.335 495.852, 538.327 495.571, 545.683 495.459, 555.683 495.377, 562.972 495.537, 572.971 495.652, 580.144 496.087, 590.135 496.392, 597.144 497.107, 607.119 497.594, 613.918 498.593, 623.868 499.250, 630.412 500.538, 640.329 501.350, 646.576 502.933, 656.450 503.882, 662.364 505.770, 672.184 506.835, 677.727 509.039, 687.481 510.200, 692.619 512.729, 702.294 512.771, 702.455 513.959, 707.000 516.822, 716.581 518.093, 720.835 521.302, 730.306 522.584, 734.090 526.150, 743.432 527.411, 746.736 529.222, 750.964 532.333, 758.228 532.555, 758.746 536.792, 767.582 537.996, 770.093 538.248, 770.563 542.793, 779.037 543.715, 780.756 544.263, 781.669 546.563, 785.501 549.692, 790.713 555.274, 799.010 555.905, 799.948 561.933, 807.928 562.331, 808.455 568.812, 816.071 568.947, 816.228 575.730, 823.264 582.659, 829.561 589.713, 835.118 596.873, 839.936 604.120, 844.017 611.434, 847.364 618.797, 849.987 626.190, 851.902 " fill="none" stroke="rgb(0, 0, 0)" stroke-linecap="butt" stroke-linejoin="round" stroke-opacity="1.0" stroke-width="3.0" />
            <path d=" M 671.358, 205.165 669.118, 205.340 " fill="none" stroke="rgb(0, 0, 0)" stroke-linecap="butt" stroke-linejoin="round" stroke-opacity="1.0" stroke-width="3.0" />
            <path d=" M 626.190, 851.902 628.376, 852.365 " fill="none" stroke="rgb(0, 0, 0)" stroke-linecap="butt" stroke-linejoin="round" stroke-opacity="1.0" stroke-width="3.0" />
            <path d=" M 480.414, 527.348 480.032, 537.341 479.654, 547.247 479.546, 557.246 479.440, 567.072 479.609, 577.070 479.772, 586.756 480.220, 596.746 480.645, 606.231 481.376, 616.204 482.052, 625.431 483.072, 635.379 483.986, 644.294 485.301, 654.208 486.435, 662.759 488.051, 672.627 489.384, 680.767 491.311, 690.579 492.819, 698.263 495.065, 708.007 496.723, 715.197 499.298, 724.859 501.074, 731.521 503.992, 741.086 505.707, 746.710 505.854, 747.192 507.523, 752.014 510.794, 761.464 511.039, 762.170 514.146, 770.124 516.606, 776.420 520.626, 785.576 521.930, 788.546 522.194, 789.146 522.530, 789.912 522.816, 790.493 524.227, 793.358 525.275, 795.486 528.788, 802.618 529.883, 804.604 531.340, 807.246 531.790, 808.062 533.201, 810.620 535.352, 814.518 536.059, 815.662 537.055, 817.273 537.528, 818.038 539.949, 821.954 542.198, 825.592 547.898, 833.809 549.298, 835.827 555.453, 843.708 556.628, 845.212 563.248, 852.708 564.161, 853.741 571.251, 860.794 571.872, 861.411 579.430, 867.959 579.735, 868.222 587.726, 874.178 595.822, 879.285 603.998, 883.551 612.234, 886.989 620.507, 889.610 624.842, 890.605 633.110, 892.421 641.375, 893.452 649.619, 893.716 657.825, 893.234 665.977, 892.026 674.057, 890.113 682.053, 887.519 689.951, 884.264 697.738, 880.374 705.402, 875.870 712.932, 870.777 720.318, 865.118 727.551, 858.917 734.623, 852.197 741.526, 844.981 748.109, 837.454 748.251, 837.291 754.516, 829.496 754.794, 829.150 760.750, 821.117 761.148, 820.580 766.805, 812.334 767.307, 811.603 772.676, 803.166 773.266, 802.239 778.358, 793.632 779.022, 792.509 783.845, 783.749 784.569, 782.434 789.134, 773.536 789.905, 772.032 794.219, 763.011 795.026, 761.324 799.098, 752.191 799.929, 750.328 803.766, 741.094 804.611, 739.062 808.221, 729.736 809.070, 727.544 812.458, 718.135 813.303, 715.790 816.476, 706.307 817.309, 703.819 820.272, 694.268 821.085, 691.646 823.843, 682.034 824.630, 679.288 827.187, 669.620 827.943, 666.759 830.302, 657.041 831.021, 654.076 833.186, 644.314 833.865, 641.254 835.838, 631.451 836.471, 628.307 838.255, 618.468 838.839, 615.250 840.437, 605.379 840.968, 602.097 842.381, 592.198 842.857, 588.863 844.086, 578.939 844.504, 575.561 845.551, 565.616 845.909, 562.205 846.773, 552.242 847.071, 548.809 847.753, 538.832 847.988, 535.387 848.487, 525.400 848.660, 521.953 848.976, 511.958 849.085, 508.520 849.217, 498.521 849.263, 495.102 849.210, 485.102 849.192, 481.714 848.952, 471.717 848.871, 468.369 848.442, 458.378 848.301, 455.081 847.680, 445.100 847.479, 441.866 846.663, 431.899 846.404, 428.737 845.390, 418.789 845.076, 415.710 843.860, 405.785 843.495, 402.801 842.072, 392.902 841.658, 390.024 840.024, 380.158 839.566, 377.396 837.714, 367.569 837.218, 364.933 835.143, 355.150 834.613, 352.652 832.308, 342.921 831.751, 340.570 829.208, 330.898 828.632, 328.705 825.843, 319.102 825.255, 317.076 822.212, 307.550 821.621, 305.700 818.314, 296.263 817.731, 294.599 814.149, 285.262 813.584, 283.790 809.716, 274.568 809.182, 273.295 805.016, 264.204 804.526, 263.135 800.049, 254.193 799.617, 253.331 794.816, 244.559 794.458, 243.906 789.319, 235.328 789.051, 234.881 783.560, 226.524 783.400, 226.281 777.506, 218.128 771.376, 210.447 765.013, 203.262 758.422, 196.598 751.611, 190.480 744.586, 184.933 737.354, 179.982 729.925, 175.653 722.309, 171.971 714.515, 168.961 706.555, 166.647 698.443, 165.053 690.192, 164.202 681.817, 164.116 673.334, 164.817 668.880, 165.244 660.285, 166.752 651.618, 169.081 642.901, 172.249 634.153, 176.269 625.396, 181.153 617.045, 186.653 616.655, 186.910 608.703, 192.974 607.953, 193.546 600.410, 200.112 599.316, 201.065 592.184, 208.075 590.769, 209.466 584.046, 216.869 582.341, 218.746 576.018, 226.494 574.057, 228.897 568.127, 236.949 565.947, 239.908 560.398, 248.227 560.300, 248.373 560.252, 248.445 560.213, 248.503 558.039, 251.763 552.859, 260.317 550.360, 264.443 549.256, 266.449 546.340, 271.748 546.065, 272.247 544.740, 274.654 544.601, 274.906 543.899, 276.182 542.941, 277.923 541.688, 280.426 540.261, 283.280 539.758, 284.284 538.023, 287.752 536.579, 290.637 535.809, 292.175 531.670, 301.279 530.929, 302.909 529.523, 306.000 528.992, 307.167 525.179, 316.412 523.969, 319.344 522.518, 322.861 519.020, 332.230 516.412, 339.216 516.144, 340.013 512.954, 349.491 510.701, 356.186 507.811, 365.759 505.408, 373.721 502.812, 383.378 500.556, 391.769 498.247, 401.499 496.165, 410.272 494.139, 420.065 492.836, 426.361 492.255, 429.172 491.030, 436.070 489.283, 445.916 488.841, 448.404 487.370, 458.296 485.940, 467.906 484.742, 477.834 483.562, 487.609 482.636, 497.566 481.718, 507.446 481.702, 507.680 481.049, 517.659 480.846, 520.751 480.767, 521.953 480.454, 526.730 480.414, 527.348 " fill="none" stroke="rgb(0, 0, 0)" stroke-linecap="butt" stroke-linejoin="round" stroke-opacity="1.0" stroke-width="3.0" />
            <path d=" M 673.334, 164.817 664.762, 166.323 656.117, 168.654 647.421, 171.824 638.694, 175.849 629.959, 180.739 621.617, 186.254 621.237, 186.505 613.297, 192.583 612.555, 193.152 605.025, 199.732 603.936, 200.683 596.818, 207.707 595.407, 209.099 588.698, 216.514 586.996, 218.396 580.688, 226.156 578.728, 228.566 572.812, 236.629 570.633, 239.599 565.098, 247.927 564.194, 249.288 564.013, 249.560 564.012, 249.562 562.739, 251.478 557.573, 260.040 555.074, 264.183 550.333, 272.829 547.667, 277.692 547.187, 278.654 546.631, 279.768 545.868, 281.299 545.748, 281.539 541.287, 290.488 540.545, 291.975 539.356, 294.601 537.939, 297.728 536.061, 301.872 533.738, 306.999 529.936, 316.248 527.273, 322.728 525.622, 327.166 522.135, 336.538 521.175, 339.119 517.995, 348.600 515.470, 356.127 512.589, 365.703 510.182, 373.702 507.593, 383.361 505.334, 391.791 503.032, 401.522 500.946, 410.337 499.699, 416.381 498.652, 421.455 497.038, 429.279 495.651, 437.114 493.908, 446.961 493.626, 448.557 492.663, 455.042 492.470, 456.340 491.001, 466.232 490.724, 468.103 489.527, 478.031 488.344, 487.852 487.419, 497.809 486.529, 507.397 486.497, 507.735 486.445, 508.539 486.321, 510.419 485.912, 516.658 485.747, 519.175 485.559, 522.040 485.394, 524.566 485.189, 527.683 484.806, 537.676 484.425, 547.627 484.314, 557.626 484.205, 567.497 484.370, 577.496 484.530, 587.225 484.973, 597.216 485.395, 606.744 485.841, 612.884 486.566, 622.857 486.623, 623.633 486.794, 625.987 487.806, 635.936 488.717, 644.892 490.024, 654.806 491.155, 663.396 492.762, 673.266 494.093, 681.442 496.009, 691.257 497.516, 698.975 499.750, 708.722 501.405, 715.944 503.969, 725.610 505.743, 732.300 507.343, 737.573 509.336, 744.140 510.507, 748.001 513.764, 757.456 515.676, 763.008 519.300, 772.328 521.226, 777.284 523.550, 782.599 526.558, 789.482 527.134, 790.799 531.070, 798.829 532.474, 801.693 533.373, 803.528 537.122, 810.353 538.542, 812.939 539.919, 815.447 540.912, 817.060 546.154, 825.577 546.745, 826.537 552.430, 834.765 553.826, 836.787 559.966, 844.680 561.136, 846.184 567.741, 853.692 568.648, 854.723 575.725, 861.789 576.338, 862.401 583.885, 868.961 584.180, 869.217 592.150, 875.177 600.223, 880.285 608.378, 884.551 616.591, 887.987 624.842, 890.605 " fill="none" stroke="rgb(0, 0, 0)" stroke-linecap="butt" stroke-linejoin="round" stroke-opacity="1.0" stroke-width="3.0" />
            <path d=" M 734.409, 523.464 734.290, 523.141 733.928, 522.165 733.354, 521.023 732.697, 520.059 731.967, 519.288 731.177, 518.723 730.340, 518.376 729.469, 518.251 719.486, 517.666 718.309, 517.597 717.414, 517.697 716.515, 518.020 715.662, 518.564 714.871, 519.320 714.123, 520.275 713.431, 521.412 712.806, 522.711 712.332, 523.962 712.260, 524.153 711.802, 525.710 711.440, 527.358 711.180, 529.067 711.027, 530.809 721.006, 531.453 722.229, 531.532 727.039, 531.640 727.052, 531.508 727.083, 531.180 727.092, 531.087 727.187, 530.550 727.322, 530.044 727.492, 529.583 727.693, 529.179 727.920, 528.843 728.166, 528.585 728.425, 528.411 728.689, 528.327 728.951, 528.334 " fill="none" stroke="rgb(0, 0, 0)" stroke-linecap="butt" stroke-linejoin="round" stroke-opacity="1.0" stroke-width="3.0" />
            <path d=" M 729.469, 518.251 728.580, 518.352 727.687, 518.677 726.839, 519.224 726.054, 519.985 725.311, 520.944 724.623, 522.087 724.275, 522.820 724.262, 522.848 724.002, 523.394 723.459, 524.842 723.352, 525.209 723.003, 526.408 722.670, 527.938 722.642, 528.063 722.383, 529.781 722.258, 531.200 722.229, 531.532 " fill="none" stroke="rgb(0, 0, 0)" stroke-linecap="butt" stroke-linejoin="round" stroke-opacity="1.0" stroke-width="3.0" />
            <path d=" M 728.951, 528.334 729.205, 528.432 729.442, 528.618 729.658, 528.888 729.845, 529.233 729.999, 529.645 730.116, 530.112 730.192, 530.622 730.226, 531.160 730.216, 531.712 " fill="none" stroke="rgb(0, 0, 0)" stroke-linecap="butt" stroke-linejoin="round" stroke-opacity="1.0" stroke-width="3.0" />
            <path d=" M 734.409, 523.464 744.404, 523.780 749.342, 523.937 " fill="none" stroke="rgb(0, 0, 0)" stroke-linecap="butt" stroke-linejoin="round" stroke-opacity="1.0" stroke-width="3.0" />
            <path d=" M 727.052, 531.508 730.216, 531.712 740.213, 531.938 747.223, 532.096 " fill="none" stroke="rgb(0, 0, 0)" stroke-linecap="butt" stroke-linejoin="round" stroke-opacity="1.0" stroke-width="3.0" />
            <path d=" M 802.630, 522.536 801.782, 522.644 800.929, 522.983 800.120, 523.551 799.374, 524.340 798.880, 525.033 798.666, 525.333 798.008, 526.515 797.692, 527.233 797.662, 527.302 797.413, 527.866 796.891, 529.363 796.450, 530.980 796.125, 532.560 796.098, 532.690 795.842, 534.463 795.807, 534.865 795.803, 534.916 795.715, 535.927 795.686, 536.269 " fill="none" stroke="rgb(0, 0, 0)" stroke-linecap="butt" stroke-linejoin="round" stroke-opacity="1.0" stroke-width="3.0" />
            <path d=" M 802.057, 532.934 802.296, 533.033 802.519, 533.224 802.721, 533.501 802.896, 533.857 803.038, 534.280 803.146, 534.761 803.214, 535.286 803.221, 535.406 803.243, 535.841 803.230, 536.410 " fill="none" stroke="rgb(0, 0, 0)" stroke-linecap="butt" stroke-linejoin="round" stroke-opacity="1.0" stroke-width="3.0" />
            <path d=" M 784.771, 492.413 784.932, 492.408 785.149, 492.441 785.355, 492.520 785.542, 492.641 785.704, 492.800 785.834, 492.990 785.929, 493.209 785.983, 493.448 785.992, 493.703 785.957, 493.941 785.881, 494.168 785.767, 494.376 785.618, 494.557 785.442, 494.704 785.241, 494.812 785.022, 494.876 784.789, 494.891 784.629, 494.871 " fill="none" stroke="rgb(0, 0, 0)" stroke-linecap="butt" stroke-linejoin="round" stroke-opacity="1.0" stroke-width="3.0" />
            <path d=" M 784.932, 492.408 784.758, 492.416 784.728, 492.417 784.692, 492.418 784.689, 492.419 784.452, 492.476 784.231, 492.577 784.033, 492.718 783.866, 492.894 783.735, 493.101 783.646, 493.333 783.605, 493.586 783.615, 493.826 783.671, 494.060 783.772, 494.278 783.914, 494.473 784.091, 494.637 784.300, 494.766 784.534, 494.852 784.547, 494.854 784.596, 494.862 784.789, 494.891 " fill="none" stroke="rgb(0, 0, 0)" stroke-linecap="butt" stroke-linejoin="round" stroke-opacity="1.0" stroke-width="3.0" />
            <path d=" M 784.771, 492.413 784.728, 492.417 " fill="none" stroke="rgb(0, 0, 0)" stroke-linecap="butt" stroke-linejoin="round" stroke-opacity="1.0" stroke-width="3.0" />
            <path d=" M 782.215, 490.416 781.857, 496.618 785.289, 496.783 787.512, 496.890 788.168, 496.775 788.016, 490.685 787.872, 490.674 785.180, 490.551 782.215, 490.416 " fill="none" stroke="rgb(0, 0, 0)" stroke-linecap="butt" stroke-linejoin="round" stroke-opacity="1.0" stroke-width="3.0" />
            <path d=" M 787.512, 496.890 787.872, 490.674 " fill="none" stroke="rgb(0, 0, 0)" stroke-linecap="butt" stroke-linejoin="round" stroke-opacity="1.0" stroke-width="3.0" />
            <path d=" M 712.332, 523.962 704.877, 523.098 694.948, 521.910 693.407, 521.726 683.481, 520.511 681.937, 520.322 672.013, 519.087 670.462, 518.894 660.540, 517.648 658.976, 517.452 649.054, 516.201 647.475, 516.002 637.553, 514.755 635.954, 514.554 626.030, 513.318 624.407, 513.116 614.482, 511.897 612.831, 511.695 602.903, 510.501 601.220, 510.299 591.288, 509.138 589.570, 508.937 579.633, 507.814 577.876, 507.615 577.713, 497.617 577.642, 493.244 577.359, 483.248 577.238, 478.964 576.833, 468.972 576.664, 464.796 576.133, 454.810 575.918, 450.761 575.258, 440.783 575.000, 436.879 574.207, 426.910 573.909, 423.170 572.978, 413.214 572.645, 409.658 571.569, 399.716 571.207, 396.365 569.979, 386.440 569.593, 383.314 568.206, 373.411 567.803, 370.532 566.249, 360.653 565.839, 358.041 564.309, 349.352 " fill="none" stroke="rgb(0, 0, 0)" stroke-linecap="butt" stroke-linejoin="round" stroke-opacity="1.0" stroke-width="3.0" />
            <path d=" M 529.254, 235.149 523.707, 231.674 521.081, 230.028 521.033, 229.994 512.854, 224.240 511.057, 222.975 " fill="none" stroke="rgb(0, 0, 0)" stroke-linecap="butt" stroke-linejoin="round" stroke-opacity="1.0" stroke-width="3.0" />
            <path d=" M 544.846, 243.029 540.615, 241.040 539.625, 240.574 537.392, 239.523 536.602, 239.152 532.801, 237.081 530.491, 235.823 529.254, 235.149 526.428, 233.610 " fill="none" stroke="rgb(0, 0, 0)" stroke-linecap="butt" stroke-linejoin="round" stroke-opacity="1.0" stroke-width="3.0" />
            <path d=" M 559.230, 248.122 552.218, 245.900 544.915, 243.056 544.846, 243.029 541.894, 241.880 " fill="none" stroke="rgb(0, 0, 0)" stroke-linecap="butt" stroke-linejoin="round" stroke-opacity="1.0" stroke-width="3.0" />
            <path d=" M 511.057, 222.975 509.717, 222.241 507.022, 220.767 506.321, 220.384 501.467, 218.710 496.506, 217.992 491.450, 218.269 486.312, 219.573 481.106, 221.936 480.319, 222.453 477.870, 224.061 475.849, 225.388 471.815, 228.871 470.556, 229.957 465.247, 235.663 461.496, 240.511 459.940, 242.523 456.629, 247.555 454.657, 250.551 451.795, 255.579 449.419, 259.754 444.960, 268.705 444.250, 270.129 440.223, 279.282 439.173, 281.669 435.533, 290.983 434.213, 294.361 430.922, 303.804 429.395, 308.182 426.419, 317.729 424.744, 323.100 422.056, 332.732 420.286, 339.075 417.865, 348.777 416.047, 356.059 413.872, 365.820 412.051, 373.995 410.107, 383.805 408.321, 392.815 406.596, 402.665 404.882, 412.445 403.364, 422.329 401.846, 432.213 401.756, 432.803 400.436, 442.715 399.117, 452.628 398.961, 453.797 397.833, 463.734 396.705, 473.670 396.516, 475.332 395.574, 485.287 394.632, 495.243 394.437, 497.305 393.678, 507.276 392.919, 517.247 392.739, 519.607 392.159, 529.591 391.579, 539.574 391.430, 542.128 391.028, 552.120 390.626, 562.112 390.520, 564.752 390.296, 574.749 390.072, 584.747 390.013, 587.365 389.968, 597.365 389.923, 607.365 389.912, 609.854 390.048, 619.853 390.185, 629.852 390.215, 632.103 390.537, 642.098 390.858, 652.093 390.920, 654.002 390.949, 653.945 395.528, 645.055 396.399, 643.365 397.887, 640.614 401.986, 633.035 406.922, 624.338 407.681, 623.002 412.797, 614.410 413.485, 613.256 418.782, 604.774 419.399, 603.786 424.876, 595.420 425.423, 594.584 431.080, 586.337 431.560, 585.638 437.395, 577.517 437.809, 576.941 443.821, 568.950 444.173, 568.483 450.359, 560.626 450.651, 560.255 457.010, 552.537 457.246, 552.250 463.774, 544.674 463.959, 544.459 470.652, 537.028 470.792, 536.873 477.645, 529.592 477.745, 529.486 480.454, 526.730 " fill="none" stroke="rgb(0, 0, 0)" stroke-linecap="butt" stroke-linejoin="round" stroke-opacity="1.0" stroke-width="3.0" />
            <path d=" M 360.881, 644.485 356.879, 653.650 355.090, 657.747 " fill="none" stroke="rgb(0, 0, 0)" stroke-linecap="butt" stroke-linejoin="round" stroke-opacity="1.0" stroke-width="3.0" />
            <path d=" M 480.319, 222.453 470.319, 222.469 468.777, 222.472 " fill="none" stroke="rgb(0, 0, 0)" stroke-linecap="butt" stroke-linejoin="round" stroke-opacity="1.0" stroke-width="3.0" />
            <path d=" M 560.300, 248.373 559.230, 248.122 557.380, 247.687 " fill="none" stroke="rgb(0, 0, 0)" stroke-linecap="butt" stroke-linejoin="round" stroke-opacity="1.0" stroke-width="3.0" />
            <path d=" M 784.547, 494.854 784.629, 494.871 " fill="none" stroke="rgb(0, 0, 0)" stroke-linecap="butt" stroke-linejoin="round" stroke-opacity="1.0" stroke-width="3.0" />
        </g>
    </g>
</svg>
