<?xml version='1.0' encoding='ascii'?>
<svg xmlns="http://www.w3.org/2000/svg" height="1080" version="1.1" width="1080">
    <g id="View Layer_LineSet" inkscape:groupmode="lineset" inkscape:label="View Layer_LineSet" xmlns:inkscape="http://www.inkscape.org/namespaces/inkscape">
        <g id="strokes" inkscape:groupmode="layer" inkscape:label="strokes" xmlns:inkscape="http://www.inkscape.org/namespaces/inkscape">
            <path d=" M 564.818, 497.106 564.788, 498.265 564.739, 499.410 564.708, 499.916 564.670, 500.531 564.583, 501.616 564.477, 502.655 564.355, 503.638 564.217, 504.554 564.065, 505.393 563.897, 506.149 563.807, 506.496 563.771, 506.637 563.640, 507.073 563.504, 507.456 563.365, 507.784 563.222, 508.054 563.077, 508.265 562.956, 508.390 562.931, 508.416 562.694, 508.611 " fill="none" stroke="rgb(0, 0, 0)" stroke-linecap="butt" stroke-linejoin="round" stroke-opacity="1.0" stroke-width="3.0" />
            <path d=" M 354.254, 635.605 360.602, 638.003 " fill="none" stroke="rgb(0, 0, 0)" stroke-linecap="butt" stroke-linejoin="round" stroke-opacity="1.0" stroke-width="3.0" />
            <path d=" M 378.429, 638.601 388.318, 637.115 390.370, 636.807 " fill="none" stroke="rgb(0, 0, 0)" stroke-linecap="butt" stroke-linejoin="round" stroke-opacity="1.0" stroke-width="3.0" />
            <path d=" M 390.370, 636.807 386.067, 627.780 381.764, 618.753 380.689, 616.498 " fill="none" stroke="rgb(0, 0, 0)" stroke-linecap="butt" stroke-linejoin="round" stroke-opacity="1.0" stroke-width="3.0" />
            <path d=" M 471.067, 214.095 466.636, 214.254 462.136, 215.465 457.580, 217.765 452.982, 221.187 448.358, 225.758 443.725, 231.501 443.248, 232.215 441.016, 235.563 439.099, 238.436 434.501, 246.579 430.125, 255.571 429.949, 255.934 426.042, 265.140 425.464, 266.503 421.968, 275.872 421.069, 278.279 417.933, 287.775 416.786, 291.249 413.969, 300.844 412.636, 305.386 410.107, 315.061 408.644, 320.657 406.377, 330.397 404.833, 337.024 402.804, 346.816 401.226, 354.432 399.417, 364.267 397.844, 372.819 396.241, 382.690 394.710, 392.116 393.300, 402.016 391.890, 411.916 391.844, 412.243 390.618, 422.168 389.391, 432.092 389.265, 433.111 388.214, 443.055 387.163, 453.000 386.991, 454.622 386.109, 464.583 385.227, 474.544 385.038, 476.673 384.320, 486.648 383.601, 496.622 383.419, 499.156 382.861, 509.141 382.302, 519.125 382.144, 521.954 381.744, 531.946 381.344, 541.938 381.223, 544.950 380.979, 554.947 380.736, 564.944 380.661, 568.023 380.574, 578.023 380.487, 588.022 380.461, 591.052 380.531, 601.052 380.602, 611.052 380.622, 613.917 380.689, 616.498 379.672, 626.446 378.655, 636.394 378.429, 638.601 " fill="none" stroke="rgb(0, 0, 0)" stroke-linecap="butt" stroke-linejoin="round" stroke-opacity="1.0" stroke-width="3.0" />
            <path d=" M 566.938, 520.701 567.272, 520.707 567.994, 520.720 574.844, 514.674 577.935, 512.625 577.822, 502.626 577.770, 497.956 577.536, 487.959 577.428, 483.369 577.071, 473.375 576.911, 468.885 576.428, 458.897 576.217, 454.526 575.605, 444.545 575.345, 440.313 574.599, 430.341 574.295, 426.267 573.411, 416.306 573.066, 412.412 572.038, 402.465 571.657, 398.772 570.479, 388.842 570.067, 385.371 568.731, 375.461 568.296, 372.234 566.794, 362.348 566.344, 359.388 565.499, 354.428 " fill="none" stroke="rgb(0, 0, 0)" stroke-linecap="butt" stroke-linejoin="round" stroke-opacity="1.0" stroke-width="3.0" />
            <path d=" M 562.262, 360.254 563.629, 368.178 565.150, 378.061 565.513, 380.417 566.865, 390.325 567.222, 392.944 568.414, 402.873 568.758, 405.734 569.797, 415.680 570.120, 418.762 571.014, 428.722 571.309, 432.004 572.063, 441.976 572.325, 445.436 572.945, 455.417 573.170, 459.035 573.659, 469.023 573.844, 472.780 574.206, 482.773 574.346, 486.648 574.585, 496.645 574.680, 500.620 574.693, 501.706 574.624, 502.466 574.547, 503.199 574.461, 503.899 574.366, 504.564 574.264, 505.189 574.155, 505.772 574.040, 506.309 573.918, 506.798 573.792, 507.235 573.661, 507.619 573.526, 507.947 573.389, 508.217 573.249, 508.429 573.108, 508.580 569.059, 512.036 568.863, 511.015 568.643, 510.163 568.402, 509.494 568.146, 509.020 567.877, 508.751 567.600, 508.690 567.317, 508.685 564.992, 508.648 564.743, 508.644 563.802, 508.628 562.955, 508.615 562.694, 508.611 559.383, 508.557 557.598, 508.528 557.435, 508.526 557.212, 508.522 556.922, 508.671 556.634, 509.029 556.353, 509.590 556.083, 510.345 555.830, 511.282 555.755, 511.639 555.610, 512.325 555.598, 512.385 555.390, 513.635 555.370, 513.787 555.210, 515.012 555.062, 516.493 554.948, 518.051 554.870, 519.659 554.829, 521.291 554.826, 522.919 555.598, 522.932 557.444, 522.966 557.556, 522.968 559.339, 523.000 562.908, 523.064 563.733, 523.079 564.693, 523.096 565.292, 523.107 566.920, 521.669 566.923, 521.153 566.938, 520.701 566.940, 520.638 566.972, 520.138 567.017, 519.667 567.074, 519.238 567.141, 518.863 567.217, 518.551 567.290, 518.342 567.300, 518.312 567.387, 518.151 567.475, 518.074 " fill="none" stroke="rgb(0, 0, 0)" stroke-linecap="butt" stroke-linejoin="round" stroke-opacity="1.0" stroke-width="3.0" />
            <path d=" M 463.734, 888.992 459.663, 888.315 458.572, 887.863 455.582, 886.624 451.506, 883.890 449.890, 882.375 447.449, 880.086 443.427, 875.188 439.456, 869.181 435.553, 862.051 431.736, 853.788 428.062, 844.488 428.025, 844.392 424.797, 834.928 424.436, 833.870 421.596, 824.282 420.989, 822.232 418.492, 812.549 417.704, 809.496 415.510, 799.740 414.600, 795.693 412.678, 785.879 411.694, 780.857 410.019, 770.999 409.006, 765.033 407.557, 755.138 406.552, 748.272 405.313, 738.349 404.350, 730.637 403.306, 720.692 402.414, 712.197 401.554, 702.234 400.759, 693.028 400.073, 683.052 399.397, 673.215 398.878, 663.229 398.359, 653.242 398.338, 652.849 397.980, 642.855 397.621, 632.862 397.591, 632.026 397.368, 622.038 " fill="none" stroke="rgb(0, 0, 0)" stroke-linecap="butt" stroke-linejoin="round" stroke-opacity="1.0" stroke-width="3.0" />
            <path d=" M 383.205, 295.617 380.932, 304.510 378.716, 314.261 377.491, 319.651 375.511, 329.453 374.211, 335.892 372.446, 345.735 371.110, 353.180 369.542, 363.057 368.208, 371.458 366.823, 381.362 365.523, 390.658 364.310, 400.584 363.073, 410.704 362.023, 420.649 360.972, 430.594 360.875, 431.510 359.978, 441.470 359.082, 451.430 358.942, 452.982 358.194, 462.954 357.446, 472.926 357.289, 475.019 356.685, 485.001 356.082, 494.982 355.928, 497.515 355.464, 507.504 355.001, 517.493 354.868, 520.356 354.541, 530.351 354.215, 540.345 354.115, 543.426 353.925, 553.425 353.736, 563.423 353.676, 566.607 353.623, 576.607 353.570, 586.607 353.553, 589.777 353.637, 599.777 353.721, 609.777 353.746, 612.816 353.969, 622.814 354.191, 632.811 354.254, 635.605 354.666, 645.597 355.078, 655.588 355.172, 657.874 355.755, 667.857 356.337, 677.840 356.443, 679.640 357.202, 689.611 357.961, 699.582 358.054, 700.797 358.999, 710.753 359.943, 720.708 359.995, 721.246 361.135, 731.181 362.251, 740.893 363.600, 750.802 364.806, 759.657 366.380, 769.533 367.644, 777.463 369.462, 787.297 370.746, 794.244 372.831, 804.025 374.093, 809.945 376.472, 819.658 377.664, 824.522 377.940, 825.502 " fill="none" stroke="rgb(0, 0, 0)" stroke-linecap="butt" stroke-linejoin="round" stroke-opacity="1.0" stroke-width="3.0" />
            <path d=" M 523.437, 535.326 523.424, 540.492 523.291, 550.491 523.235, 554.625 522.995, 564.622 522.895, 568.767 522.548, 578.760 522.404, 582.897 521.949, 592.887 521.762, 596.998 521.198, 606.982 520.969, 611.050 520.296, 621.027 520.026, 625.033 519.802, 627.881 " fill="none" stroke="rgb(0, 0, 0)" stroke-linecap="butt" stroke-linejoin="round" stroke-opacity="1.0" stroke-width="3.0" />
            <path d=" M 504.244, 747.371 502.434, 756.436 500.310, 766.208 499.872, 768.224 497.573, 777.956 497.170, 779.662 494.681, 789.348 494.327, 790.723 491.633, 800.354 491.347, 801.376 488.429, 810.941 488.231, 811.589 485.067, 821.075 484.983, 821.329 481.605, 830.566 478.101, 839.262 474.476, 847.383 470.734, 854.892 466.881, 861.754 462.922, 867.929 458.865, 873.379 454.717, 878.067 450.486, 881.953 449.890, 882.375 " fill="none" stroke="rgb(0, 0, 0)" stroke-linecap="butt" stroke-linejoin="round" stroke-opacity="1.0" stroke-width="3.0" />
            <path d=" M 390.251, 631.651 390.370, 636.807 390.743, 646.800 391.115, 656.793 391.198, 659.018 391.742, 669.003 392.286, 678.988 392.381, 680.729 393.103, 690.703 393.826, 700.677 393.909, 701.835 394.818, 711.794 395.726, 721.752 395.771, 722.236 396.875, 732.175 397.949, 741.841 399.262, 751.755 400.428, 760.568 401.962, 770.449 403.187, 778.342 404.961, 788.183 406.207, 795.097 408.242, 804.888 409.466, 810.777 411.787, 820.504 412.940, 825.338 415.580, 834.984 416.608, 838.743 419.606, 848.283 420.447, 850.961 423.851, 860.364 424.434, 861.975 428.302, 871.197 428.545, 871.776 432.759, 880.359 437.054, 887.728 437.518, 888.384 437.785, 888.762 441.411, 893.896 445.809, 898.879 450.230, 902.697 454.658, 905.378 459.074, 906.954 463.465, 907.458 467.817, 906.923 472.117, 905.390 476.354, 902.901 480.388, 899.600 480.517, 899.495 484.597, 895.211 488.584, 890.096 492.472, 884.190 496.255, 877.535 499.927, 870.171 501.916, 865.679 503.482, 862.142 506.916, 853.485 510.226, 844.238 513.315, 834.727 513.409, 834.441 513.731, 833.350 516.461, 824.129 519.073, 814.476 519.381, 813.338 521.787, 803.632 522.166, 802.100 523.423, 796.576 " fill="none" stroke="rgb(0, 0, 0)" stroke-linecap="butt" stroke-linejoin="round" stroke-opacity="1.0" stroke-width="3.0" />
            <path d=" M 520.047, 789.404 519.634, 791.158 517.153, 800.846 516.911, 801.790 514.223, 811.422 514.066, 811.982 511.149, 821.547 511.101, 821.704 508.020, 830.922 504.824, 839.602 501.520, 847.707 498.110, 855.203 494.600, 862.052 490.995, 868.217 487.302, 873.658 483.527, 878.339 479.679, 882.221 475.766, 885.264 471.797, 887.430 467.783, 888.686 463.734, 888.992 " fill="none" stroke="rgb(0, 0, 0)" stroke-linecap="butt" stroke-linejoin="round" stroke-opacity="1.0" stroke-width="3.0" />
            <path d=" M 555.370, 513.787 548.973, 513.496 548.238, 513.462 546.396, 513.378 546.382, 513.378 546.444, 523.378 546.468, 527.401 546.431, 537.401 546.416, 541.471 546.281, 551.470 546.226, 555.570 545.994, 565.567 545.898, 569.678 545.568, 579.673 545.432, 583.776 545.004, 593.767 544.830, 597.845 544.303, 607.831 544.090, 611.864 543.464, 621.845 543.214, 625.816 542.486, 635.789 542.202, 639.679 541.371, 649.644 541.055, 653.434 540.118, 663.390 539.772, 667.059 538.726, 677.004 538.354, 680.533 537.195, 690.466 536.802, 693.835 535.891, 700.916 " fill="none" stroke="rgb(0, 0, 0)" stroke-linecap="butt" stroke-linejoin="round" stroke-opacity="1.0" stroke-width="3.0" />
            <path d=" M 538.482, 708.267 539.520, 699.816 540.625, 689.877 541.068, 685.891 542.063, 675.940 542.478, 671.794 543.367, 661.834 543.750, 657.548 544.537, 647.579 544.885, 643.174 545.573, 633.197 545.883, 628.692 546.473, 618.710 546.744, 614.123 547.238, 604.136 547.468, 599.487 547.869, 589.495 548.057, 584.803 548.364, 574.808 548.509, 570.091 548.723, 560.093 548.825, 555.369 548.947, 545.370 549.005, 540.657 549.036, 530.657 549.050, 525.973 548.988, 515.974 548.973, 513.496 " fill="none" stroke="rgb(0, 0, 0)" stroke-linecap="butt" stroke-linejoin="round" stroke-opacity="1.0" stroke-width="3.0" />
            <path d=" M 378.429, 638.601 378.814, 648.594 379.198, 658.587 379.318, 661.714 379.872, 671.699 380.425, 681.683 380.570, 684.297 381.298, 694.270 382.027, 704.244 382.173, 706.238 383.085, 716.197 383.997, 726.155 384.114, 727.434 385.221, 737.373 386.327, 747.311 386.380, 747.787 387.692, 757.700 388.951, 767.211 390.484, 777.092 391.809, 785.628 393.582, 795.470 394.934, 802.970 396.970, 812.761 398.305, 819.179 400.630, 828.905 401.899, 834.210 404.547, 843.853 405.693, 848.025 408.706, 857.560 409.665, 860.594 413.094, 869.988 413.793, 871.901 417.699, 881.107 418.052, 881.939 422.422, 890.704 426.880, 898.203 431.406, 904.451 435.981, 909.467 440.584, 913.275 445.199, 915.905 449.809, 917.392 454.398, 917.773 458.952, 917.083 463.458, 915.368 467.903, 912.669 472.277, 909.031 476.569, 904.495 " fill="none" stroke="rgb(0, 0, 0)" stroke-linecap="butt" stroke-linejoin="round" stroke-opacity="1.0" stroke-width="3.0" />
            <path d=" M 476.569, 904.495 483.110, 896.931 484.597, 895.211 " fill="none" stroke="rgb(0, 0, 0)" stroke-linecap="butt" stroke-linejoin="round" stroke-opacity="1.0" stroke-width="3.0" />
            <path d=" M 540.578, 538.278 530.578, 538.260 529.211, 538.257 526.168, 536.712 523.437, 535.326 519.400, 533.276 519.114, 533.130 518.827, 532.984 518.539, 532.838 518.253, 532.692 517.917, 532.401 517.594, 531.880 517.290, 531.137 517.015, 530.187 517.011, 530.170 " fill="none" stroke="rgb(0, 0, 0)" stroke-linecap="butt" stroke-linejoin="round" stroke-opacity="1.0" stroke-width="3.0" />
            <path d=" M 519.262, 506.149 523.656, 497.166 528.050, 488.183 528.537, 487.187 538.500, 488.041 539.996, 488.169 540.272, 498.165 540.548, 508.161 540.685, 513.119 540.707, 523.118 540.716, 527.147 540.592, 537.147 540.578, 538.278 531.736, 533.606 531.556, 533.511 531.281, 533.366 531.005, 533.220 530.728, 533.074 530.453, 532.928 530.130, 532.637 529.819, 532.115 529.528, 531.371 529.301, 530.556 529.263, 530.420 529.031, 529.279 528.835, 527.969 528.678, 526.517 528.565, 524.948 528.509, 523.610 528.496, 523.294 528.474, 521.586 528.498, 519.859 528.569, 518.144 528.622, 517.397 528.686, 516.476 528.845, 514.887 529.043, 513.408 529.278, 512.066 529.284, 512.036 529.543, 510.888 529.835, 509.896 530.145, 509.109 530.411, 508.538 530.679, 507.968 530.947, 507.399 531.214, 506.831 531.349, 506.546 535.607, 497.498 539.864, 488.449 539.996, 488.169 " fill="none" stroke="rgb(0, 0, 0)" stroke-linecap="butt" stroke-linejoin="round" stroke-opacity="1.0" stroke-width="3.0" />
            <path d=" M 530.905, 523.654 530.780, 523.618 530.660, 523.448 530.552, 523.150 530.460, 522.737 530.389, 522.229 530.342, 521.648 530.320, 521.017 530.326, 520.366 530.357, 519.723 530.414, 519.115 530.493, 518.571 530.591, 518.113 530.704, 517.762 530.827, 517.533 530.953, 517.437 " fill="none" stroke="rgb(0, 0, 0)" stroke-linecap="butt" stroke-linejoin="round" stroke-opacity="1.0" stroke-width="3.0" />
            <path d=" M 530.953, 517.437 531.079, 517.476 531.198, 517.649 531.306, 517.948 531.397, 518.360 531.468, 518.867 531.515, 519.447 531.536, 520.075 531.531, 520.724 531.499, 521.365 531.443, 521.970 531.364, 522.513 531.267, 522.971 531.154, 523.323 531.032, 523.554 530.905, 523.654 " fill="none" stroke="rgb(0, 0, 0)" stroke-linecap="butt" stroke-linejoin="round" stroke-opacity="1.0" stroke-width="3.0" />
            <path d=" M 359.926, 567.787 359.870, 571.120 359.841, 581.120 359.812, 591.120 359.804, 593.607 359.914, 603.606 360.023, 613.606 360.049, 615.931 360.204, 622.124 360.455, 632.121 360.602, 638.003 360.996, 647.995 361.390, 657.988 361.459, 659.739 361.631, 662.913 " fill="none" stroke="rgb(0, 0, 0)" stroke-linecap="butt" stroke-linejoin="round" stroke-opacity="1.0" stroke-width="3.0" />
            <path d=" M 544.452, 723.670 545.632, 714.604 546.826, 704.676 547.178, 701.753 548.278, 691.813 548.615, 688.768 549.625, 678.819 549.774, 677.344 549.945, 675.664 550.865, 665.707 551.166, 662.454 552.000, 652.489 552.279, 649.151 553.029, 639.179 553.285, 635.766 553.950, 625.789 554.182, 622.313 554.766, 612.330 554.972, 608.803 555.474, 598.816 555.653, 595.247 556.074, 585.256 556.226, 581.657 556.567, 571.663 556.691, 568.044 556.746, 565.936 557.008, 555.939 557.047, 554.420 557.229, 544.422 557.295, 540.795 557.398, 530.795 557.435, 527.180 557.444, 522.966 " fill="none" stroke="rgb(0, 0, 0)" stroke-linecap="butt" stroke-linejoin="round" stroke-opacity="1.0" stroke-width="3.0" />
            <path d=" M 454.489, 943.685 456.928, 943.862 461.081, 943.917 465.200, 943.143 469.277, 941.570 473.305, 939.229 477.275, 936.150 481.182, 932.365 485.021, 927.905 488.784, 922.800 492.469, 917.081 496.071, 910.778 499.585, 903.922 503.009, 896.539 506.339, 888.659 509.574, 880.310 512.710, 871.516 515.746, 862.305 518.681, 852.701 521.412, 843.081 521.512, 842.727 524.067, 833.059 524.239, 832.407 526.630, 822.697 526.861, 821.763 529.100, 812.017 529.376, 810.816 529.739, 809.122 " fill="none" stroke="rgb(0, 0, 0)" stroke-linecap="butt" stroke-linejoin="round" stroke-opacity="1.0" stroke-width="3.0" />
            <path d=" M 523.371, 225.028 521.399, 219.163 518.442, 211.169 515.369, 203.662 512.185, 196.672 508.889, 190.225 505.485, 184.351 501.975, 179.079 498.364, 174.441 494.653, 170.466 490.849, 167.185 486.955, 164.629 482.978, 162.829 478.922, 161.815 474.796, 161.617 473.882, 161.758 470.607, 162.265 466.363, 163.786 462.072, 166.206 457.746, 169.552 453.393, 173.845 449.027, 179.106 444.658, 185.352 440.300, 192.598 435.966, 200.854 431.763, 209.927 431.670, 210.126 429.878, 214.475 427.428, 220.418 423.966, 229.800 423.255, 231.726 420.105, 241.217 419.167, 244.042 417.485, 249.655 415.179, 257.353 412.565, 267.005 411.309, 271.640 408.928, 281.353 407.574, 286.878 405.408, 296.640 403.989, 303.034 402.023, 312.839 400.572, 320.072 398.792, 329.913 397.338, 337.948 395.734, 347.818 394.304, 356.611 392.866, 366.507 391.485, 376.004 390.205, 385.922 388.925, 395.840 388.895, 396.067 387.767, 406.003 386.638, 415.939 386.548, 416.729 385.565, 426.681 384.583, 436.633 384.456, 437.920 383.615, 447.885 382.774, 457.849 382.630, 459.561 381.927, 469.537 381.224, 479.512 381.079, 481.571 380.512, 491.555 379.945, 501.539 379.813, 503.865 379.379, 513.855 378.946, 523.846 378.837, 526.354 378.536, 536.350 378.236, 546.345 378.157, 548.951 377.989, 558.949 377.820, 568.948 377.776, 571.564 377.740, 581.564 377.704, 591.564 377.695, 594.103 377.792, 604.103 377.890, 614.102 377.913, 616.478 378.146, 626.476 378.380, 636.473 378.429, 638.601 378.801, 648.594 379.172, 658.588 379.239, 660.386 379.752, 670.373 380.265, 680.360 380.336, 681.749 380.995, 691.728 381.655, 701.706 381.714, 702.612 382.525, 712.579 383.336, 722.546 383.365, 722.899 384.333, 732.852 385.276, 742.541 386.411, 752.477 387.439, 761.473 388.749, 771.387 389.839, 779.636 391.336, 789.524 392.464, 796.978 394.161, 806.833 395.300, 813.451 397.212, 823.267 398.331, 829.016 400.477, 838.784 401.543, 843.639 403.944, 853.347 404.920, 857.293 407.602, 866.926 408.446, 869.955 411.441, 879.496 412.105, 881.610 415.450, 891.034 415.881, 892.249 419.622, 901.523 419.760, 901.866 423.726, 910.462 427.764, 918.043 431.860, 924.616 436.001, 930.196 440.172, 934.799 444.362, 938.444 448.559, 941.152 452.751, 942.950 456.223, 943.708 456.928, 943.862 " fill="none" stroke="rgb(0, 0, 0)" stroke-linecap="butt" stroke-linejoin="round" stroke-opacity="1.0" stroke-width="3.0" />
            <path d=" M 472.365, 161.686 468.149, 162.335 463.878, 163.856 459.560, 166.277 455.206, 169.622 450.827, 173.914 446.433, 179.174 442.037, 185.419 437.652, 192.663 433.292, 200.917 429.067, 209.980 428.971, 210.187 427.068, 214.775 424.703, 220.475 421.222, 229.850 420.505, 231.780 417.337, 241.265 416.393, 244.092 413.507, 253.667 412.382, 257.399 410.292, 265.067 408.489, 271.681 406.095, 281.390 404.732, 286.913 402.554, 296.673 401.127, 303.064 399.149, 312.866 397.691, 320.096 395.901, 329.934 394.439, 337.965 392.826, 347.834 391.389, 356.620 389.942, 366.515 388.555, 376.007 387.267, 385.924 385.980, 395.840 385.951, 396.061 384.816, 405.997 383.682, 415.932 383.592, 416.716 382.604, 426.667 381.617, 436.618 381.490, 437.899 380.644, 447.863 379.799, 457.827 379.655, 459.531 378.949, 469.506 378.243, 479.481 378.098, 481.532 377.528, 491.516 376.959, 501.500 376.826, 503.817 376.391, 513.807 375.956, 523.798 375.848, 526.298 375.546, 536.293 375.245, 546.289 375.166, 548.886 374.998, 558.884 374.830, 568.883 374.786, 571.490 374.751, 581.490 374.716, 591.490 374.707, 594.020 374.807, 604.020 374.906, 614.019 374.930, 616.387 375.166, 626.384 375.402, 636.381 375.452, 638.501 375.827, 648.494 376.203, 658.487 376.270, 660.278 376.788, 670.264 377.305, 680.251 377.377, 681.633 378.042, 691.611 378.707, 701.589 378.767, 702.489 379.584, 712.455 380.401, 722.422 380.430, 722.769 381.406, 732.721 382.356, 742.404 383.500, 752.338 384.535, 761.329 385.855, 771.242 386.953, 779.486 388.460, 789.372 389.597, 796.822 391.305, 806.675 392.452, 813.291 394.377, 823.104 395.505, 828.851 397.665, 838.615 398.739, 843.471 401.156, 853.174 402.139, 857.120 404.838, 866.749 405.688, 869.780 408.702, 879.314 409.372, 881.432 412.738, 890.849 413.174, 892.069 416.936, 901.334 417.079, 901.685 421.071, 910.280 425.136, 917.860 429.259, 924.433 433.426, 930.013 437.625, 934.616 441.842, 938.262 446.065, 940.972 450.285, 942.771 454.489, 943.685 " fill="none" stroke="rgb(0, 0, 0)" stroke-linecap="butt" stroke-linejoin="round" stroke-opacity="1.0" stroke-width="3.0" />
            <path d=" M 474.796, 161.617 472.365, 161.686 " fill="none" stroke="rgb(0, 0, 0)" stroke-linecap="butt" stroke-linejoin="round" stroke-opacity="1.0" stroke-width="3.0" />
            <path d=" M 550.330, 736.620 550.691, 733.985 551.953, 724.065 552.411, 720.469 553.579, 710.537 554.018, 706.806 555.094, 696.864 555.512, 693.012 556.500, 683.061 556.893, 679.100 557.795, 669.141 558.162, 665.084 558.980, 655.117 559.320, 650.975 560.055, 641.002 560.365, 636.785 561.019, 626.807 561.299, 622.528 561.872, 612.544 562.121, 608.213 562.615, 598.226 562.831, 593.853 563.247, 583.862 563.430, 579.459 563.768, 569.465 563.917, 565.041 564.177, 555.044 564.293, 550.610 564.475, 540.611 564.556, 536.177 564.661, 526.177 564.693, 523.096 " fill="none" stroke="rgb(0, 0, 0)" stroke-linecap="butt" stroke-linejoin="round" stroke-opacity="1.0" stroke-width="3.0" />
            <path d=" M 456.315, 970.033 458.723, 970.216 463.186, 969.950 467.605, 968.794 471.971, 966.783 476.276, 963.953 480.513, 960.340 484.675, 955.980 488.758, 950.908 492.755, 945.158 496.661, 938.766 500.474, 931.765 504.189, 924.187 507.803, 916.065 511.314, 907.429 514.720, 898.310 517.976, 888.855 518.018, 888.735 521.055, 879.208 521.206, 878.733 524.044, 869.144 524.285, 868.331 525.362, 864.418 527.252, 857.553 529.736, 847.866 530.106, 846.423 532.434, 836.698 532.848, 834.967 535.029, 825.207 535.476, 823.205 536.068, 820.369 " fill="none" stroke="rgb(0, 0, 0)" stroke-linecap="butt" stroke-linejoin="round" stroke-opacity="1.0" stroke-width="3.0" />
            <path d=" M 539.589, 236.015 538.533, 231.342 536.147, 221.631 535.937, 220.778 533.353, 211.118 533.215, 210.602 530.413, 201.003 530.366, 200.842 527.391, 191.525 524.290, 182.678 521.064, 174.330 517.715, 166.513 514.244, 159.258 510.653, 152.596 506.945, 146.561 503.122, 141.187 499.188, 136.510 495.148, 132.562 491.004, 129.382 486.765, 127.003 482.434, 125.462 478.019, 124.795 475.859, 124.910 473.529, 125.035 468.970, 126.217 464.353, 128.373 459.689, 131.534 454.987, 135.730 450.261, 140.985 445.524, 147.325 440.789, 154.768 436.071, 163.331 431.721, 172.335 431.387, 173.025 427.453, 182.218 426.753, 183.856 423.188, 193.199 422.185, 195.826 420.985, 199.335 417.748, 208.797 417.703, 208.930 414.751, 218.520 413.324, 223.157 412.900, 224.682 410.225, 234.317 409.067, 238.488 406.634, 248.188 404.951, 254.899 402.742, 264.652 400.996, 272.358 398.993, 282.155 397.221, 290.824 395.410, 300.658 393.644, 310.249 392.013, 320.115 391.243, 324.774 390.284, 330.580 388.824, 340.473 387.363, 350.365 387.159, 351.753 385.860, 361.668 384.562, 371.583 384.285, 373.698 383.141, 383.632 381.997, 393.567 381.678, 396.339 380.684, 406.290 379.689, 416.240 379.354, 419.594 378.503, 429.558 377.653, 439.522 377.324, 443.373 376.614, 453.348 375.905, 463.323 375.601, 467.584 375.029, 477.567 374.457, 487.551 374.195, 492.128 373.758, 502.118 373.322, 512.109 373.112, 516.903 372.810, 526.899 372.508, 536.894 372.359, 541.808 372.191, 551.807 372.023, 561.805 371.940, 566.738 371.906, 576.737 371.872, 586.737 371.856, 591.586 371.957, 601.586 372.059, 611.585 372.106, 616.250 372.345, 626.247 372.584, 636.244 372.689, 640.627 373.067, 650.620 373.446, 660.613 373.598, 664.618 374.120, 674.604 374.643, 684.590 374.828, 688.126 375.498, 698.104 376.169, 708.081 376.369, 711.062 377.194, 721.028 378.018, 730.994 378.212, 733.338 379.197, 743.290 380.182, 753.241 380.344, 754.877 381.498, 764.810 382.652, 774.743 382.752, 775.604 384.084, 785.515 385.421, 795.454 386.944, 805.338 388.335, 814.369 390.062, 824.218 391.479, 832.296 393.426, 842.104 394.834, 849.193 397.021, 858.951 398.382, 865.024 400.833, 874.719 402.107, 879.760 403.405, 884.312 405.099, 890.255 405.989, 893.380 409.055, 902.898 410.012, 905.869 413.102, 914.336 414.155, 917.221 417.358, 924.922 418.403, 927.433 422.739, 936.510 427.144, 944.460 431.605, 951.298 436.105, 957.042 440.631, 961.714 445.167, 965.338 449.703, 967.943 454.225, 969.558 457.138, 969.984 458.723, 970.216 " fill="none" stroke="rgb(0, 0, 0)" stroke-linecap="butt" stroke-linejoin="round" stroke-opacity="1.0" stroke-width="3.0" />
            <path d=" M 361.166, 515.305 361.105, 516.692 360.800, 526.687 360.495, 536.682 360.346, 541.557 360.179, 551.556 360.012, 561.554 359.930, 566.447 359.926, 567.787 359.897, 577.787 359.867, 587.787 359.857, 591.257 359.967, 601.256 360.076, 611.256 360.127, 615.883 360.279, 621.954 360.529, 631.951 360.666, 637.398 360.737, 640.222 361.131, 650.215 361.525, 660.207 361.594, 661.966 361.631, 662.913 361.681, 664.177 361.855, 667.386 " fill="none" stroke="rgb(0, 0, 0)" stroke-linecap="butt" stroke-linejoin="round" stroke-opacity="1.0" stroke-width="3.0" />
            <path d=" M 475.621, 124.875 471.101, 125.116 466.514, 126.298 461.868, 128.455 457.174, 131.616 452.444, 135.811 447.689, 141.066 442.922, 147.404 438.158, 154.846 433.412, 163.406 429.039, 172.400 428.700, 173.098 424.745, 182.283 424.038, 183.926 420.453, 193.262 419.443, 195.893 416.188, 205.348 414.934, 208.993 411.976, 218.545 411.768, 219.215 410.529, 223.215 408.462, 230.616 406.248, 238.541 403.802, 248.237 402.481, 253.472 402.109, 254.947 399.887, 264.697 398.131, 272.399 396.117, 282.194 394.335, 290.858 392.514, 300.691 390.738, 310.277 389.099, 320.141 387.459, 330.006 387.360, 330.600 385.892, 340.491 384.423, 350.383 384.218, 351.764 382.913, 361.679 382.362, 365.861 381.330, 373.701 380.180, 383.635 379.030, 393.569 378.710, 396.334 377.710, 406.284 376.710, 416.234 376.374, 419.580 375.520, 429.543 374.665, 439.506 374.335, 443.350 373.622, 453.324 372.909, 463.299 372.605, 467.550 372.030, 477.534 371.456, 487.517 371.193, 492.084 370.755, 502.075 370.316, 512.065 370.107, 516.850 369.804, 526.846 369.501, 536.841 369.353, 541.745 369.185, 551.744 369.017, 561.743 368.934, 566.665 368.901, 576.665 368.868, 586.665 368.853, 591.504 368.956, 601.503 369.060, 611.503 369.108, 616.158 369.350, 626.155 369.591, 636.152 369.697, 640.526 370.080, 650.518 370.462, 660.511 370.615, 664.507 371.142, 674.493 371.670, 684.479 371.856, 688.007 372.532, 697.984 373.208, 707.961 373.410, 710.934 374.241, 720.900 375.072, 730.865 375.267, 733.203 376.260, 743.154 377.253, 753.104 377.415, 754.734 378.578, 764.666 379.741, 774.599 379.841, 775.454 381.183, 785.364 382.529, 795.298 384.063, 805.180 385.464, 814.206 387.204, 824.054 388.630, 832.128 390.591, 841.934 392.008, 849.020 394.210, 858.775 395.581, 864.847 396.713, 869.297 399.180, 878.988 399.331, 879.579 400.370, 883.201 403.129, 892.813 403.239, 893.196 403.609, 894.338 406.694, 903.850 407.288, 905.683 410.260, 913.770 411.459, 917.033 415.322, 926.257 415.735, 927.244 420.099, 936.319 424.534, 944.269 429.023, 951.107 433.553, 956.851 438.107, 961.524 442.673, 965.149 447.238, 967.755 451.789, 969.373 456.315, 970.033 " fill="none" stroke="rgb(0, 0, 0)" stroke-linecap="butt" stroke-linejoin="round" stroke-opacity="1.0" stroke-width="3.0" />
            <path d=" M 478.019, 124.795 475.621, 124.875 " fill="none" stroke="rgb(0, 0, 0)" stroke-linecap="butt" stroke-linejoin="round" stroke-opacity="1.0" stroke-width="3.0" />
            <path d=" M 544.931, 239.074 543.068, 229.959 540.902, 220.197 540.533, 218.537 538.189, 208.815 537.867, 207.479 535.329, 197.806 535.068, 196.810 532.319, 187.196 532.137, 186.559 529.156, 177.014 529.074, 176.753 525.879, 167.422 522.553, 158.595 519.097, 150.306 515.512, 142.587 511.799, 135.471 507.962, 128.995 504.003, 123.194 499.925, 118.105 495.732, 113.766 491.428, 110.216 487.020, 107.492 482.513, 105.634 477.913, 104.681 473.229, 104.669 468.401, 104.842 463.582, 105.812 458.696, 107.796 453.755, 110.831 448.770, 114.947 443.754, 120.175 438.720, 126.542 433.685, 134.072 428.663, 142.784 424.164, 151.714 423.671, 152.691 419.608, 161.829 418.728, 163.805 415.049, 173.104 413.853, 176.128 410.516, 185.555 409.063, 189.658 406.033, 199.188 404.381, 204.384 401.627, 213.998 399.825, 220.291 397.324, 229.973 395.417, 237.352 393.147, 247.091 391.179, 255.537 389.122, 265.323 387.130, 274.803 385.273, 284.629 383.415, 294.454 383.293, 295.101 383.205, 295.617 381.534, 305.477 379.862, 315.336 379.686, 316.374 378.190, 326.261 376.695, 336.149 376.331, 338.555 375.002, 348.466 373.673, 358.378 373.245, 361.571 372.075, 371.503 370.906, 381.434 370.446, 385.340 369.429, 395.288 368.413, 405.237 367.950, 409.773 367.082, 419.736 366.214, 429.698 365.772, 434.775 365.048, 444.749 364.325, 454.723 363.924, 460.246 363.618, 465.500 363.036, 475.483 362.454, 485.466 362.418, 486.080 361.975, 496.070 361.533, 506.060 361.262, 512.167 361.166, 515.305 360.861, 525.300 360.557, 535.295 360.462, 538.396 360.346, 545.345 360.179, 555.344 360.023, 564.654 359.993, 574.654 359.964, 584.654 359.946, 590.827 360.055, 600.827 360.165, 610.826 360.230, 616.803 360.355, 621.783 360.605, 631.779 360.730, 636.785 360.873, 642.470 361.267, 652.463 361.661, 662.455 361.740, 664.465 361.806, 666.124 361.855, 667.386 361.869, 667.722 362.410, 677.708 362.951, 687.693 362.980, 688.221 363.210, 692.456 363.903, 702.431 364.597, 712.407 364.886, 716.572 365.738, 726.536 366.589, 736.499 366.887, 739.980 367.903, 749.928 368.920, 759.876 369.198, 762.593 370.388, 772.522 371.578, 782.451 371.804, 784.335 373.178, 794.240 374.552, 804.145 374.689, 805.134 376.259, 815.010 377.836, 824.930 377.940, 825.502 379.720, 835.342 381.226, 843.668 383.234, 853.464 384.841, 861.304 387.096, 871.046 388.659, 877.800 391.186, 887.475 392.662, 893.128 395.490, 902.719 396.830, 907.266 399.993, 916.753 401.143, 920.203 404.683, 929.556 405.582, 931.932 409.547, 941.112 410.126, 942.452 414.578, 951.407 414.759, 951.771 419.462, 959.901 424.217, 966.858 429.009, 972.664 433.822, 977.345 438.642, 980.928 443.455, 983.446 448.249, 984.930 453.011, 985.418 457.798, 985.793 462.460, 985.315 467.071, 983.914 471.621, 981.628 476.104, 978.496 480.512, 974.556 484.838, 969.848 489.076, 964.408 493.222, 958.274 497.271, 951.483 501.219, 944.070 505.063, 936.071 508.799, 927.518 512.426, 918.444 515.876, 909.058 515.941, 908.880 519.155, 899.410 519.343, 898.856 522.342, 889.316 522.630, 888.401 525.433, 878.801 525.801, 877.542 528.424, 867.892 528.855, 866.306 531.312, 856.612 531.792, 854.717 534.094, 844.986 534.611, 842.801 536.769, 833.037 537.312, 830.579 538.559, 824.542 " fill="none" stroke="rgb(0, 0, 0)" stroke-linecap="butt" stroke-linejoin="round" stroke-opacity="1.0" stroke-width="3.0" />
            <path d=" M 552.548, 740.922 552.923, 738.166 554.174, 728.245 554.685, 724.199 555.843, 714.266 556.331, 710.088 557.399, 700.145 557.861, 695.846 558.841, 685.894 559.276, 681.488 560.171, 671.529 560.575, 667.027 561.387, 657.060 561.760, 652.474 562.490, 642.501 562.831, 637.842 563.480, 627.863 563.787, 623.143 564.357, 613.159 564.629, 608.387 565.121, 598.399 565.358, 593.586 565.771, 583.594 565.972, 578.750 566.308, 568.756 566.472, 563.891 566.731, 553.894 566.858, 549.018 567.041, 539.020 567.130, 534.143 567.235, 524.143 567.272, 520.707 " fill="none" stroke="rgb(0, 0, 0)" stroke-linecap="butt" stroke-linejoin="round" stroke-opacity="1.0" stroke-width="3.0" />
            <path d=" M 473.229, 104.669 468.470, 105.637 463.645, 107.620 458.764, 110.654 453.840, 114.771 448.885, 120.000 443.912, 126.370 438.937, 133.903 433.974, 142.618 429.520, 151.571 429.042, 152.531 425.020, 161.686 424.157, 163.651 420.517, 172.964 419.338, 175.981 418.779, 177.580 415.478, 187.019 414.604, 189.518 411.607, 199.059 409.975, 204.254 407.252, 213.876 405.471, 220.171 402.997, 229.860 402.036, 233.627 401.113, 237.244 398.868, 246.989 398.052, 250.533 396.921, 255.441 394.888, 265.232 392.917, 274.721 391.080, 284.551 390.742, 286.358 389.121, 295.034 387.468, 304.897 385.815, 314.759 385.553, 316.323 384.073, 326.213 382.594, 336.103 382.232, 338.521 380.918, 348.434 380.124, 354.421 379.178, 361.555 378.021, 371.488 376.863, 381.421 376.406, 385.342 375.401, 395.292 374.395, 405.241 373.935, 409.795 373.075, 419.758 372.216, 429.721 371.776, 434.817 371.465, 439.146 370.749, 449.120 370.032, 459.095 369.945, 460.308 369.368, 470.291 368.790, 480.274 368.450, 486.162 368.010, 496.152 367.571, 506.142 367.301, 512.270 366.998, 522.265 366.694, 532.261 366.504, 538.520 366.337, 548.518 366.169, 558.517 366.064, 564.799 366.032, 574.799 366.000, 584.799 365.981, 590.992 366.086, 600.992 366.191, 610.991 366.255, 616.988 366.499, 626.985 366.744, 636.982 366.883, 642.676 367.269, 652.668 367.656, 662.661 367.860, 667.947 368.392, 677.933 368.924, 687.918 369.178, 692.698 369.860, 702.675 370.542, 712.652 370.828, 716.833 371.666, 726.797 372.504, 736.762 372.798, 740.257 373.799, 750.207 374.800, 760.156 375.075, 762.886 376.248, 772.817 377.420, 782.748 377.644, 784.642 378.998, 794.550 380.353, 804.458 380.489, 805.456 382.037, 815.335 383.468, 824.472 383.592, 825.264 384.977, 833.028 386.733, 842.873 386.936, 844.013 388.917, 853.815 390.502, 861.658 391.361, 865.422 392.675, 871.180 394.269, 878.163 396.764, 887.847 398.219, 893.499 400.179, 900.238 402.333, 907.644 405.457, 917.143 406.589, 920.586 410.087, 929.954 410.970, 932.318 413.154, 937.441 415.456, 942.842 419.861, 951.819 420.029, 952.162 424.672, 960.293 429.367, 967.250 434.098, 973.055 438.850, 977.734 443.609, 981.315 448.362, 983.829 453.096, 985.309 457.798, 985.793 " fill="none" stroke="rgb(0, 0, 0)" stroke-linecap="butt" stroke-linejoin="round" stroke-opacity="1.0" stroke-width="3.0" />
            <path d=" M 565.292, 523.107 565.295, 521.478 565.315, 520.673 565.336, 519.843 565.412, 518.232 565.426, 518.038 565.523, 516.672 565.667, 515.190 565.841, 513.811 566.043, 512.559 566.159, 511.988 566.267, 511.454 566.512, 510.516 566.772, 509.760 567.043, 509.198 567.317, 508.845 567.321, 508.840 567.600, 508.690 " fill="none" stroke="rgb(0, 0, 0)" stroke-linecap="butt" stroke-linejoin="round" stroke-opacity="1.0" stroke-width="3.0" />
            <path d=" M 567.994, 520.720 567.983, 520.219 567.957, 519.744 567.917, 519.308 567.865, 518.924 567.802, 518.601 567.729, 518.349 567.649, 518.174 567.564, 518.082 567.475, 518.074 " fill="none" stroke="rgb(0, 0, 0)" stroke-linecap="butt" stroke-linejoin="round" stroke-opacity="1.0" stroke-width="3.0" />
            <path d=" M 530.801, 473.906 530.874, 479.545 531.116, 479.548 536.443, 479.615 536.651, 479.480 536.436, 473.933 531.055, 473.749 530.886, 473.854 530.801, 473.906 " fill="none" stroke="rgb(0, 0, 0)" stroke-linecap="butt" stroke-linejoin="round" stroke-opacity="1.0" stroke-width="3.0" />
            <path d=" M 536.374, 473.972 530.801, 473.906 " fill="none" stroke="rgb(0, 0, 0)" stroke-linecap="butt" stroke-linejoin="round" stroke-opacity="1.0" stroke-width="3.0" />
            <path d=" M 536.443, 479.615 536.374, 473.972 536.436, 473.933 " fill="none" stroke="rgb(0, 0, 0)" stroke-linecap="butt" stroke-linejoin="round" stroke-opacity="1.0" stroke-width="3.0" />
            <path d=" M 532.801, 475.980 532.771, 476.011 532.665, 476.152 532.565, 476.346 532.505, 476.556 532.486, 476.774 532.513, 477.004 532.584, 477.218 532.694, 477.410 532.711, 477.432 532.852, 477.594 533.022, 477.725 533.214, 477.820 533.237, 477.830 533.433, 477.880 533.453, 477.884 533.480, 477.888 533.512, 477.891 533.551, 477.893 533.594, 477.894 533.636, 477.894 533.678, 477.893 533.719, 477.891 533.756, 477.888 533.789, 477.885 533.817, 477.880 533.837, 477.875 533.950, 477.847 534.031, 477.821 534.098, 477.792 " fill="none" stroke="rgb(0, 0, 0)" stroke-linecap="butt" stroke-linejoin="round" stroke-opacity="1.0" stroke-width="3.0" />
            <path d=" M 533.008, 475.804 532.968, 475.838 532.803, 475.978 532.801, 475.980 532.882, 475.899 " fill="none" stroke="rgb(0, 0, 0)" stroke-linecap="butt" stroke-linejoin="round" stroke-opacity="1.0" stroke-width="3.0" />
            <path d=" M 534.098, 477.792 534.236, 477.717 534.362, 477.622 534.474, 477.509 534.567, 477.382 534.642, 477.241 534.695, 477.091 534.727, 476.934 534.737, 476.774 534.723, 476.613 534.688, 476.455 534.630, 476.304 534.552, 476.162 534.455, 476.032 534.341, 475.916 534.213, 475.818 534.072, 475.740 533.923, 475.682 533.767, 475.645 533.608, 475.632 533.450, 475.642 533.295, 475.674 533.146, 475.728 533.008, 475.804 532.882, 475.899 " fill="none" stroke="rgb(0, 0, 0)" stroke-linecap="butt" stroke-linejoin="round" stroke-opacity="1.0" stroke-width="3.0" />
            <path d=" M 627.368, 880.149 629.540, 880.636 637.456, 881.967 645.364, 882.559 653.246, 882.428 661.087, 881.595 668.871, 880.077 676.584, 877.896 684.212, 875.072 691.742, 871.627 699.163, 867.582 706.463, 862.959 713.632, 857.781 720.661, 852.068 727.541, 845.844 734.264, 839.130 740.822, 831.948 747.208, 824.318 753.313, 816.398 753.417, 816.263 759.217, 808.118 759.442, 807.803 764.949, 799.456 765.278, 798.958 770.502, 790.431 770.920, 789.748 775.870, 781.060 776.364, 780.193 781.051, 771.360 781.606, 770.312 786.038, 761.348 786.642, 760.124 790.827, 751.042 791.470, 749.647 795.415, 740.458 796.085, 738.899 799.799, 729.614 800.486, 727.897 803.974, 718.525 804.669, 716.658 807.938, 707.207 808.633, 705.199 811.688, 695.677 812.375, 693.537 815.221, 683.950 815.893, 681.686 818.535, 672.042 819.186, 669.664 821.627, 659.966 822.252, 657.484 824.496, 647.739 825.089, 645.163 827.140, 635.375 827.697, 632.714 829.556, 622.888 830.073, 620.153 831.743, 610.293 832.217, 607.493 833.699, 597.603 834.127, 594.749 835.423, 584.833 835.802, 581.934 836.913, 571.996 837.241, 569.063 838.168, 559.106 838.443, 556.149 839.185, 546.177 839.406, 543.207 839.965, 533.222 840.131, 530.249 840.505, 520.256 840.615, 517.290 840.803, 507.292 840.859, 504.343 840.860, 494.343 840.860, 491.423 840.672, 481.424 840.618, 478.542 840.240, 468.549 840.132, 465.716 839.561, 455.733 839.402, 452.959 838.634, 442.989 838.426, 440.285 837.459, 430.332 837.204, 427.709 836.033, 417.778 835.734, 415.247 834.356, 405.342 834.017, 402.912 832.426, 393.040 832.052, 390.722 830.242, 380.887 829.838, 378.692 827.804, 368.901 827.376, 366.839 825.110, 357.099 824.664, 355.179 822.160, 345.497 821.703, 343.729 818.952, 334.115 818.492, 332.508 815.486, 322.971 815.033, 321.534 811.762, 312.084 811.326, 310.825 807.779, 301.475 807.371, 300.399 803.538, 291.163 803.171, 290.278 799.039, 281.172 798.725, 280.481 794.282, 271.522 794.036, 271.027 789.268, 262.237 789.107, 261.940 784.000, 253.342 783.939, 253.239 778.536, 244.947 772.901, 237.087 767.040, 229.680 760.955, 222.750 754.653, 216.320 748.140, 210.414 741.423, 205.055 734.510, 200.267 727.408, 196.073 720.127, 192.497 712.678, 189.562 705.072, 187.290 697.321, 185.703 689.438, 184.823 681.437, 184.671 673.334, 185.264 671.101, 185.458 " fill="none" stroke="rgb(0, 0, 0)" stroke-linecap="butt" stroke-linejoin="round" stroke-opacity="1.0" stroke-width="3.0" />
            <path d=" M 629.540, 880.636 628.265, 880.299 621.634, 878.550 613.757, 875.693 605.928, 872.054 598.169, 867.620 590.500, 862.384 582.944, 856.337 575.601, 849.549 575.524, 849.478 568.650, 842.214 568.261, 841.803 561.856, 834.124 561.181, 833.316 555.236, 825.275 554.308, 824.020 548.811, 815.666 547.665, 813.924 542.602, 805.300 542.418, 804.986 541.276, 803.040 540.036, 800.674 538.626, 797.983 535.166, 791.383 533.949, 788.781 532.542, 785.773 530.563, 781.544 529.360, 778.972 527.897, 775.466 524.955, 768.410 523.879, 765.831 520.839, 757.628 518.748, 751.985 515.633, 742.483 513.988, 737.467 511.220, 727.857 509.621, 722.310 509.094, 720.208 506.659, 710.508 505.667, 706.553 503.556, 696.779 502.144, 690.239 500.346, 680.402 499.070, 673.414 497.577, 663.526 496.459, 656.125 495.263, 646.197 494.327, 638.427 493.420, 628.468 492.683, 620.374 492.061, 610.393 491.539, 602.024 491.196, 592.030 490.901, 583.436 490.833, 573.436 490.774, 564.673 490.979, 554.675 491.161, 545.797 491.636, 535.808 492.061, 526.872 492.620, 519.387 493.262, 510.780 493.455, 508.198 493.473, 507.963 494.486, 498.015 495.391, 489.134 496.674, 479.217 497.809, 470.449 499.363, 460.571 500.716, 451.971 502.544, 442.140 504.102, 433.762 506.206, 423.986 507.951, 415.881 508.677, 412.925 511.062, 403.213 512.247, 398.386 514.918, 388.749 516.974, 381.332 519.936, 371.781 522.111, 364.772 525.371, 355.318 527.636, 348.753 529.748, 343.222 533.315, 333.879 533.528, 333.323 536.243, 326.877 539.762, 318.523 541.632, 314.490 543.108, 311.305 543.155, 311.204 544.933, 307.369 546.314, 304.391 549.147, 298.833 550.624, 295.933 551.832, 293.563 552.508, 292.238 553.158, 290.962 553.569, 290.228 556.163, 285.595 560.268, 278.265 565.511, 269.749 567.619, 266.326 573.230, 258.049 575.182, 255.169 578.102, 251.266 582.933, 244.810 589.314, 237.111 590.843, 235.266 597.624, 227.915 598.888, 226.545 606.074, 219.591 607.041, 218.656 614.636, 212.151 615.278, 211.601 623.279, 205.603 623.574, 205.382 631.905, 199.995 640.249, 195.435 648.584, 191.693 656.890, 188.760 665.146, 186.621 673.003, 185.319 673.334, 185.264 " fill="none" stroke="rgb(0, 0, 0)" stroke-linecap="butt" stroke-linejoin="round" stroke-opacity="1.0" stroke-width="3.0" />
            <path d=" M 671.101, 185.458 662.902, 186.816 654.635, 188.954 646.319, 191.886 637.974, 195.625 629.620, 200.182 621.279, 205.565 613.272, 211.556 612.973, 211.779 605.372, 218.277 604.728, 218.828 597.534, 225.775 596.566, 226.710 589.778, 234.054 588.513, 235.422 582.124, 243.116 580.594, 244.958 576.135, 250.907 572.837, 255.306 567.218, 263.578 565.266, 266.452 560.016, 274.963 557.909, 278.379 553.092, 286.965 551.715, 289.418 551.000, 290.694 550.793, 291.062 550.102, 292.415 548.621, 295.317 544.073, 304.223 543.943, 304.478 542.511, 307.561 541.045, 310.717 540.618, 311.636 537.387, 318.594 534.072, 326.449 531.148, 333.378 529.019, 338.943 525.447, 348.283 525.253, 348.791 524.543, 350.846 523.055, 355.152 519.789, 364.603 519.724, 364.791 516.757, 374.341 514.584, 381.333 511.910, 390.968 509.856, 398.367 507.467, 408.078 505.557, 415.842 503.450, 425.618 501.707, 433.703 499.877, 443.534 498.321, 451.891 496.765, 461.769 495.414, 470.348 495.230, 471.771 493.976, 481.447 492.997, 489.012 491.982, 498.960 491.276, 505.890 491.116, 507.455 491.079, 507.819 490.861, 510.740 490.413, 516.737 490.219, 519.345 490.062, 521.445 489.669, 526.706 489.194, 536.695 488.771, 545.609 488.567, 555.607 488.387, 564.464 488.456, 574.463 488.517, 583.206 488.862, 593.200 489.159, 601.773 489.784, 611.753 490.307, 620.103 491.217, 630.061 491.955, 638.136 493.155, 648.064 494.093, 655.815 495.590, 665.702 496.708, 673.085 498.511, 682.921 499.789, 689.893 501.905, 699.666 503.318, 706.190 505.773, 715.947 507.279, 721.931 508.243, 725.269 511.019, 734.876 511.653, 737.073 514.776, 746.573 516.421, 751.577 518.325, 756.704 521.560, 765.410 524.285, 771.929 527.048, 778.540 527.226, 778.919 531.472, 787.973 531.931, 788.951 532.863, 790.940 533.336, 791.840 537.987, 800.693 538.072, 800.855 538.982, 802.587 539.493, 803.457 541.921, 807.583 545.380, 813.463 550.885, 821.811 552.032, 823.551 557.986, 831.586 558.915, 832.841 565.329, 840.514 566.005, 841.323 572.885, 848.580 573.277, 848.993 580.627, 855.775 580.708, 855.850 588.275, 861.894 595.954, 867.129 603.724, 871.562 611.563, 875.202 619.451, 878.060 627.368, 880.149 " fill="none" stroke="rgb(0, 0, 0)" stroke-linecap="butt" stroke-linejoin="round" stroke-opacity="1.0" stroke-width="3.0" />
            <path d=" M 788.065, 560.967 778.079, 560.438 777.320, 560.398 772.911, 558.045 764.089, 553.337 755.267, 548.629 753.950, 547.926 753.270, 547.563 752.589, 547.199 751.907, 546.834 751.225, 546.470 750.435, 545.911 749.699, 545.110 749.031, 544.082 748.446, 542.846 747.956, 541.427 747.569, 539.850 747.294, 538.145 747.135, 536.347 747.096, 534.488 747.177, 532.606 747.359, 530.918 747.378, 530.737 747.548, 529.755 747.694, 528.916 748.119, 527.180 748.582, 525.754 748.645, 525.561 749.261, 524.091 749.955, 522.798 750.069, 522.634 750.714, 521.706 751.031, 521.365 751.080, 521.312 751.523, 520.836 752.366, 520.204 753.082, 519.778 753.800, 519.351 754.516, 518.925 755.230, 518.500 755.589, 518.287 755.791, 518.167 756.637, 517.665 765.236, 512.561 773.836, 507.456 779.840, 503.893 " fill="none" stroke="rgb(0, 0, 0)" stroke-linecap="butt" stroke-linejoin="round" stroke-opacity="1.0" stroke-width="3.0" />
            <path d=" M 682.770, 263.444 679.425, 263.671 674.663, 263.994 674.365, 264.014 665.886, 265.425 657.359, 267.688 656.852, 267.873 648.811, 270.807 640.267, 274.772 631.753, 279.581 623.448, 285.151 623.302, 285.248 615.428, 291.412 614.949, 291.787 607.521, 298.483 606.728, 299.198 599.752, 306.363 598.673, 307.470 592.143, 315.044 590.816, 316.583 584.720, 324.510 583.186, 326.505 577.506, 334.735 575.807, 337.198 570.539, 345.698 568.714, 348.642 565.934, 353.645 565.499, 354.428 562.262, 360.254 561.949, 360.818 561.514, 361.693 558.857, 367.036 558.398, 367.959 557.275, 370.217 555.547, 373.693 554.149, 376.843 552.608, 380.317 551.747, 382.257 550.154, 385.849 549.542, 387.226 545.872, 396.528 543.962, 401.366 543.885, 401.587 542.349, 405.982 539.050, 415.422 538.829, 416.055 538.697, 416.482 535.754, 426.038 534.155, 431.228 531.559, 440.885 529.961, 446.826 529.598, 448.399 527.351, 458.143 526.277, 462.796 524.379, 472.614 523.130, 479.078 521.581, 488.957 520.539, 495.603 519.337, 505.531 519.262, 506.149 518.796, 509.998 518.540, 512.111 518.517, 512.303 517.657, 522.266 517.067, 529.104 517.011, 530.170 516.487, 540.157 516.185, 545.935 515.993, 555.933 515.861, 562.805 515.986, 572.804 516.071, 579.558 516.518, 589.548 516.812, 596.123 517.586, 606.093 518.078, 612.430 519.187, 622.368 519.802, 627.881 519.861, 628.411 521.312, 638.306 521.478, 639.441 522.148, 644.004 523.951, 653.840 524.924, 659.146 527.091, 668.908 527.399, 670.294 528.173, 673.779 530.718, 683.449 531.876, 687.848 534.813, 697.407 535.502, 699.650 535.891, 700.916 535.900, 700.943 536.012, 701.307 537.302, 704.942 538.482, 708.267 540.556, 714.108 543.003, 720.114 544.452, 723.670 544.566, 723.952 545.487, 726.210 545.985, 727.281 548.891, 733.527 549.647, 735.151 550.330, 736.620 550.776, 737.579 552.548, 740.922 556.398, 748.185 561.567, 756.745 562.325, 758.000 568.000, 766.233 568.529, 767.001 574.725, 774.850 574.981, 775.174 581.652, 782.507 588.515, 788.989 595.542, 794.617 602.704, 799.393 609.974, 803.319 614.906, 805.386 617.327, 806.400 624.737, 808.648 632.178, 810.075 639.628, 810.696 647.064, 810.526 654.465, 809.587 661.809, 807.900 669.079, 805.484 676.255, 802.364 683.322, 798.565 690.263, 794.112 697.062, 789.029 703.708, 783.344 710.186, 777.083 716.485, 770.274 722.593, 762.941 728.502, 755.112 734.202, 746.814 739.514, 738.342 739.683, 738.074 744.661, 729.400 744.939, 728.915 749.595, 720.065 749.962, 719.367 754.308, 710.361 754.746, 709.453 758.794, 700.309 759.285, 699.199 763.044, 689.932 763.573, 688.629 767.054, 679.254 767.606, 677.768 770.817, 668.298 771.379, 666.641 774.327, 657.085 774.887, 655.270 777.580, 645.639 778.128, 643.679 780.571, 633.982 781.098, 631.892 783.296, 622.136 783.793, 619.931 785.751, 610.124 786.211, 607.818 787.932, 597.967 788.350, 595.576 789.837, 585.687 790.207, 583.227 791.462, 573.306 791.780, 570.794 792.805, 560.846 793.067, 558.297 793.862, 548.328 794.067, 545.758 794.585, 536.616 " fill="none" stroke="rgb(0, 0, 0)" stroke-linecap="butt" stroke-linejoin="round" stroke-opacity="1.0" stroke-width="3.0" />
            <path d=" M 779.840, 503.893 789.804, 504.737 790.586, 504.803 " fill="none" stroke="rgb(0, 0, 0)" stroke-linecap="butt" stroke-linejoin="round" stroke-opacity="1.0" stroke-width="3.0" />
            <path d=" M 824.921, 520.149 824.994, 510.149 824.995, 509.901 824.805, 499.902 824.755, 497.286 824.296, 487.297 824.178, 484.742 823.446, 474.768 823.264, 472.291 822.256, 462.342 822.076, 460.569 822.014, 459.957 820.729, 450.040 820.434, 447.761 818.871, 437.884 818.529, 435.721 816.681, 425.893 816.299, 423.862 814.150, 414.095 813.736, 412.214 811.275, 402.522 810.840, 400.807 808.053, 391.203 807.608, 389.669 804.488, 380.168 804.046, 378.825 800.584, 369.443 800.161, 368.297 796.351, 359.051 795.960, 358.101 791.794, 349.010 791.451, 348.261 786.908, 339.352 786.632, 338.810 781.691, 330.116 781.504, 329.786 776.148, 321.342 776.073, 321.222 770.345, 313.147 764.330, 305.583 758.042, 298.548 751.492, 292.057 744.690, 286.145 737.644, 280.855 730.365, 276.222 722.870, 272.274 719.181, 270.722 715.174, 269.035 707.297, 266.518 699.258, 264.730 691.075, 263.693 682.770, 263.444 " fill="none" stroke="rgb(0, 0, 0)" stroke-linecap="butt" stroke-linejoin="round" stroke-opacity="1.0" stroke-width="3.0" />
            <path d=" M 656.852, 267.873 659.131, 268.788 665.380, 272.067 671.455, 276.037 677.342, 280.674 683.030, 285.949 688.510, 291.826 693.777, 298.263 698.823, 305.224 703.640, 312.694 708.218, 320.656 712.550, 329.087 716.631, 337.958 720.458, 347.237 723.929, 356.615 724.031, 356.889 727.184, 366.379 727.351, 366.879 730.199, 376.465 730.414, 377.186 732.965, 386.855 733.213, 387.794 735.477, 397.534 735.744, 398.682 737.732, 408.482 738.004, 409.826 739.728, 419.676 739.994, 421.199 741.466, 431.090 741.716, 432.774 742.949, 442.698 743.176, 444.522 744.179, 454.471 744.375, 456.418 745.149, 466.388 745.309, 468.447 745.855, 478.432 745.973, 480.589 746.295, 490.584 746.367, 492.822 746.469, 502.821 746.492, 505.124 746.421, 511.355 746.257, 512.571 746.037, 513.758 745.763, 514.905 745.439, 516.000 745.066, 517.030 744.650, 517.986 744.195, 518.856 743.704, 519.633 743.184, 520.307 742.639, 520.871 742.076, 521.321 741.500, 521.650 740.917, 521.856 740.334, 521.936 733.906, 522.139 " fill="none" stroke="rgb(0, 0, 0)" stroke-linecap="butt" stroke-linejoin="round" stroke-opacity="1.0" stroke-width="3.0" />
            <path d=" M 800.252, 536.115 800.990, 536.162 803.235, 536.307 812.792, 535.828 814.732, 535.731 822.525, 535.340 824.482, 535.242 824.487, 535.242 830.598, 535.030 830.932, 525.036 831.041, 521.762 831.116, 511.762 831.141, 508.516 830.956, 498.517 830.896, 495.315 830.448, 485.325 830.306, 482.184 829.590, 472.209 829.369, 469.145 828.381, 459.194 828.086, 456.223 826.821, 446.303 826.456, 443.441 824.908, 433.562 824.479, 430.825 822.640, 420.995 822.155, 418.399 820.019, 408.630 819.485, 406.189 817.043, 396.492 816.470, 394.219 813.917, 385.321 813.112, 382.518 810.027, 373.006 809.413, 371.112 807.245, 365.160 805.375, 360.026 801.603, 350.764 801.002, 349.289 796.866, 340.184 796.296, 338.930 791.783, 330.005 791.263, 328.976 786.360, 320.260 785.907, 319.456 781.285, 312.076 780.235, 310.400 775.335, 303.387 774.253, 301.838 768.094, 293.959 767.969, 293.799 761.391, 286.312 754.530, 279.410 747.397, 273.122 740.003, 267.476 732.363, 262.502 724.490, 258.231 716.402, 254.690 708.116, 251.905 699.651, 249.904 691.027, 248.712 682.268, 248.351 672.268, 248.317 663.422, 248.287 " fill="none" stroke="rgb(0, 0, 0)" stroke-linecap="butt" stroke-linejoin="round" stroke-opacity="1.0" stroke-width="3.0" />
            <path d=" M 682.268, 248.351 673.397, 248.842 672.846, 248.926 664.439, 250.206 661.019, 251.060 655.422, 252.458 646.373, 255.611 637.323, 259.676 628.571, 264.513 628.302, 264.662 619.954, 270.167 619.344, 270.569 611.423, 276.673 610.482, 277.398 603.001, 284.034 601.750, 285.144 594.714, 292.251 593.183, 293.798 586.592, 301.318 584.817, 303.343 578.665, 311.227 576.688, 313.761 570.968, 321.964 568.832, 325.028 563.535, 333.510 562.621, 334.974 562.106, 335.799 561.285, 337.114 559.539, 340.234 556.766, 345.187 555.193, 347.997 554.081, 349.983 549.599, 358.922 549.454, 359.211 547.871, 362.369 547.256, 363.595 543.167, 372.720 540.844, 377.905 537.137, 387.193 536.103, 389.784 534.874, 392.864 531.542, 402.292 529.378, 408.414 526.412, 417.965 524.383, 424.499 521.779, 434.154 519.917, 441.054 517.667, 450.797 516.000, 458.012 514.100, 467.829 512.654, 475.302 511.101, 485.181 509.895, 492.853 508.688, 502.780 507.738, 510.589 507.649, 511.615 506.786, 521.578 506.192, 528.435 505.674, 538.422 505.265, 546.313 " fill="none" stroke="rgb(0, 0, 0)" stroke-linecap="butt" stroke-linejoin="round" stroke-opacity="1.0" stroke-width="3.0" />
            <path d=" M 756.637, 517.665 756.753, 515.309 756.702, 515.526 756.379, 516.626 756.009, 517.661 755.791, 518.167 " fill="none" stroke="rgb(0, 0, 0)" stroke-linecap="butt" stroke-linejoin="round" stroke-opacity="1.0" stroke-width="3.0" />
            <path d=" M 806.770, 526.383 808.088, 526.329 808.602, 526.254 809.116, 526.069 809.626, 525.778 810.128, 525.383 810.616, 524.889 811.088, 524.302 811.540, 523.625 811.969, 522.866 812.371, 522.030 812.743, 521.123 813.083, 520.154 813.387, 519.128 813.496, 518.686 813.653, 518.054 813.878, 516.941 823.180, 519.643 824.921, 520.149 824.732, 520.822 824.395, 521.796 824.026, 522.707 823.627, 523.548 823.202, 524.311 823.000, 524.618 822.753, 524.992 822.285, 525.582 821.801, 526.079 821.304, 526.476 820.799, 526.769 820.290, 526.955 819.781, 527.031 813.636, 527.292 807.193, 527.565 806.770, 526.383 806.728, 526.264 806.174, 525.131 805.542, 524.185 804.841, 523.441 804.084, 522.914 803.282, 522.612 802.450, 522.541 799.454, 522.365 798.758, 522.325 790.575, 521.845 790.455, 521.868 789.719, 522.006 788.861, 522.395 788.348, 522.785 788.051, 523.011 787.305, 523.843 786.602, 524.876 785.953, 526.092 785.370, 527.471 784.862, 528.990 784.439, 530.622 784.107, 532.341 783.873, 534.115 783.741, 535.915 789.664, 536.298 789.899, 536.313 794.585, 536.616 795.664, 536.686 799.988, 536.470 800.224, 536.458 800.252, 536.115 800.270, 535.886 800.357, 535.327 800.408, 535.108 800.481, 534.798 800.639, 534.312 800.827, 533.883 800.978, 533.626 801.039, 533.522 801.148, 533.389 801.271, 533.239 801.515, 533.043 801.515, 533.042 801.764, 532.937 802.013, 532.926 " fill="none" stroke="rgb(0, 0, 0)" stroke-linecap="butt" stroke-linejoin="round" stroke-opacity="1.0" stroke-width="3.0" />
            <path d=" M 772.911, 558.045 771.871, 567.991 771.762, 569.033 770.483, 578.951 770.175, 581.337 768.655, 591.221 768.296, 593.555 766.534, 603.399 766.129, 605.665 764.122, 615.462 763.675, 617.646 761.420, 627.389 760.938, 629.475 758.431, 639.155 757.920, 641.128 755.157, 650.739 754.626, 652.585 751.601, 662.117 751.059, 663.822 747.765, 673.264 747.223, 674.816 743.653, 684.157 743.123, 685.543 739.269, 694.770 738.764, 695.980 734.616, 705.079 734.150, 706.102 729.699, 715.057 729.288, 715.884 724.524, 724.676 724.184, 725.303 719.095, 733.911 718.846, 734.333 713.419, 742.733 713.279, 742.949 707.494, 751.124 701.498, 758.833 695.301, 766.051 688.914, 772.749 682.347, 778.904 675.614, 784.488 668.727, 789.476 661.700, 793.841 654.548, 797.558 647.288, 800.605 639.936, 802.956 632.511, 804.587 625.033, 805.479 617.522, 805.611 614.906, 805.386 " fill="none" stroke="rgb(0, 0, 0)" stroke-linecap="butt" stroke-linejoin="round" stroke-opacity="1.0" stroke-width="3.0" />
            <path d=" M 789.899, 536.313 789.384, 545.406 788.539, 555.371 788.065, 560.967 779.268, 556.212 777.748, 555.390 773.350, 553.013 765.437, 548.736 764.764, 548.372 764.089, 548.007 763.414, 547.641 762.738, 547.276 761.956, 546.715 761.227, 545.911 760.566, 544.878 759.987, 543.637 759.503, 542.211 759.121, 540.627 758.850, 538.915 758.694, 537.107 758.693, 537.021 758.657, 535.240 758.740, 533.349 758.941, 531.470 759.066, 530.745 759.154, 530.234 759.256, 529.640 759.679, 527.895 760.202, 526.268 760.814, 524.790 761.503, 523.490 762.257, 522.393 763.060, 521.518 763.895, 520.882 764.606, 520.453 765.318, 520.023 766.028, 519.595 766.737, 519.167 767.093, 518.953 775.659, 513.793 779.821, 511.286 788.387, 506.127 790.586, 504.803 790.550, 514.803 790.545, 516.274 790.487, 520.902 790.455, 521.868 " fill="none" stroke="rgb(0, 0, 0)" stroke-linecap="butt" stroke-linejoin="round" stroke-opacity="1.0" stroke-width="3.0" />
            <path d=" M 764.612, 537.411 764.302, 537.279 764.018, 537.003 763.774, 536.596 763.580, 536.075 763.445, 535.465 763.374, 534.791 763.371, 534.082 763.436, 533.371 763.567, 532.687 763.756, 532.062 763.997, 531.522 764.270, 531.103 764.278, 531.092 764.586, 530.789 764.910, 530.628 765.232, 530.616 " fill="none" stroke="rgb(0, 0, 0)" stroke-linecap="butt" stroke-linejoin="round" stroke-opacity="1.0" stroke-width="3.0" />
            <path d=" M 765.232, 530.616 765.542, 530.751 765.825, 531.028 765.937, 531.218 766.068, 531.436 766.261, 531.955 766.395, 532.564 766.465, 533.236 766.467, 533.942 766.403, 534.651 766.273, 535.332 766.084, 535.956 765.845, 536.495 765.566, 536.926 765.258, 537.230 764.935, 537.394 764.612, 537.411 " fill="none" stroke="rgb(0, 0, 0)" stroke-linecap="butt" stroke-linejoin="round" stroke-opacity="1.0" stroke-width="3.0" />
            <path d=" M 799.988, 536.470 799.442, 546.096 798.648, 556.065 798.396, 559.221 797.373, 569.168 797.051, 572.303 795.798, 582.224 795.407, 585.320 793.923, 595.210 793.467, 598.252 791.751, 608.103 791.233, 611.075 789.281, 620.883 788.707, 623.767 786.516, 633.524 785.891, 636.306 783.456, 646.005 782.788, 648.668 780.105, 658.301 779.400, 660.830 776.463, 670.389 775.732, 672.769 772.534, 682.244 771.785, 684.460 768.319, 693.840 767.565, 695.878 763.822, 705.151 763.076, 706.999 759.047, 716.152 758.322, 717.798 753.996, 726.814 753.309, 728.247 748.675, 737.108 748.042, 738.321 743.089, 747.008 742.528, 747.993 737.243, 756.482 736.774, 757.235 731.142, 765.499 730.787, 766.020 724.797, 774.027 724.577, 774.320 718.153, 782.107 711.524, 789.350 704.703, 796.023 697.701, 802.097 690.531, 807.542 683.208, 812.330 675.746, 816.434 668.164, 819.826 660.478, 822.479 652.707, 824.367 644.871, 825.466 636.992, 825.755 629.094, 825.208 621.198, 823.809 613.331, 821.542 605.519, 818.390 597.789, 814.341 590.169, 809.389 582.688, 803.530 575.377, 796.759 568.581, 789.424 568.264, 789.082 562.004, 781.284 561.381, 780.507 555.646, 772.315 554.758, 771.046 549.508, 762.478 548.427, 760.714 547.217, 758.462 545.743, 755.721 542.417, 749.534 541.156, 746.860 539.693, 743.756 536.759, 737.535 535.067, 733.435 531.998, 726.001 531.481, 724.748 528.097, 715.338 526.613, 711.209 523.641, 701.661 522.179, 696.964 519.603, 687.301 518.206, 682.060 516.011, 672.303 515.753, 671.160 514.716, 666.548 512.889, 656.716 511.732, 650.487 510.260, 640.596 509.270, 633.939 508.144, 624.003 507.347, 616.971 506.558, 607.002 505.977, 599.650 505.518, 589.660 505.169, 582.049 505.035, 572.050 504.930, 564.245 505.117, 554.247 505.265, 546.313 503.571, 536.458 502.035, 527.520 " fill="none" stroke="rgb(0, 0, 0)" stroke-linecap="butt" stroke-linejoin="round" stroke-opacity="1.0" stroke-width="3.0" />
            <path d=" M 663.422, 248.287 655.939, 248.703 655.388, 248.734 647.266, 250.051 639.080, 252.255 630.857, 255.360 622.623, 259.378 614.407, 264.319 606.239, 270.184 598.579, 276.613 598.148, 276.974 590.956, 283.923 590.166, 284.686 583.441, 292.086 582.328, 293.311 576.058, 301.101 574.664, 302.833 568.837, 310.961 567.208, 313.234 561.812, 321.653 560.367, 323.909 559.995, 324.490 559.806, 324.819 558.220, 327.579 555.389, 332.509 553.825, 335.233 553.057, 336.571 548.477, 345.460 547.986, 346.414 546.427, 349.440 546.413, 349.469 542.220, 358.547 540.137, 363.058 536.319, 372.300 534.555, 376.569 534.221, 377.379 530.764, 386.763 528.706, 392.352 525.601, 401.857 523.621, 407.919 520.859, 417.530 518.993, 424.023 516.566, 433.724 514.847, 440.598 512.748, 450.375 511.203, 457.576 509.428, 467.417 508.082, 474.885 506.627, 484.779 505.499, 492.453 504.363, 502.388 503.469, 510.204 503.308, 512.142 502.483, 522.108 502.035, 527.520 499.845, 537.277 497.866, 546.093 " fill="none" stroke="rgb(0, 0, 0)" stroke-linecap="butt" stroke-linejoin="round" stroke-opacity="1.0" stroke-width="3.0" />
            <path d=" M 497.527, 564.604 497.666, 574.603 497.783, 582.982 498.248, 592.971 498.628, 601.145 499.425, 611.113 500.056, 619.016 501.192, 628.951 502.057, 636.517 503.541, 646.406 504.617, 653.576 506.458, 663.405 507.717, 670.126 509.928, 679.878 511.339, 686.100 513.128, 692.756 515.462, 701.439 518.456, 710.980 520.059, 716.088 523.469, 725.489 525.105, 729.999 528.949, 739.231 529.713, 741.065 530.571, 743.126 532.829, 747.868 536.429, 755.431 537.544, 757.484 539.042, 760.243 542.646, 766.883 543.734, 768.640 545.240, 771.071 547.594, 774.873 549.193, 777.454 554.971, 785.615 556.037, 787.120 562.344, 794.880 563.146, 795.867 569.991, 803.156 570.487, 803.684 577.876, 810.422 578.030, 810.562 585.742, 816.500 593.593, 821.503 601.553, 825.575 609.594, 828.724 617.686, 830.966 625.804, 832.317 633.921, 832.795 642.014, 832.419 650.059, 831.214 658.034, 829.205 665.920, 826.416 673.697, 822.874 681.346, 818.609 688.852, 813.648 696.200, 808.019 703.373, 801.753 710.361, 794.879 717.150, 787.427 723.500, 779.702 723.729, 779.424 729.709, 771.409 730.088, 770.901 735.712, 762.632 736.218, 761.887 741.498, 753.395 742.110, 752.410 747.060, 743.721 747.757, 742.497 752.389, 733.635 753.151, 732.178 757.477, 723.162 758.286, 721.478 762.317, 712.327 763.155, 710.424 766.901, 701.153 767.754, 699.043 771.225, 689.665 772.078, 687.360 775.281, 677.887 776.122, 675.401 779.065, 665.844 779.882, 663.190 782.571, 653.558 783.355, 650.751 785.796, 641.053 786.537, 638.109 788.735, 628.353 789.425, 625.286 791.383, 615.480 792.017, 612.307 793.739, 602.456 794.309, 599.194 795.797, 589.306 796.299, 585.970 797.556, 576.050 797.986, 572.658 799.012, 562.711 799.367, 559.280 800.163, 549.311 800.440, 545.857 800.990, 536.162 " fill="none" stroke="rgb(0, 0, 0)" stroke-linecap="butt" stroke-linejoin="round" stroke-opacity="1.0" stroke-width="3.0" />
            <path d=" M 497.866, 546.093 497.683, 556.091 497.527, 564.604 " fill="none" stroke="rgb(0, 0, 0)" stroke-linecap="butt" stroke-linejoin="round" stroke-opacity="1.0" stroke-width="3.0" />
            <path d=" M 813.917, 385.321 812.192, 377.285 809.859, 367.561 809.573, 366.370 806.997, 356.708 806.719, 355.662 803.891, 346.070 803.628, 345.177 800.539, 335.666 800.301, 334.934 796.939, 325.517 796.738, 324.954 793.091, 315.643 792.940, 315.255 788.999, 306.064 788.909, 305.854 784.649, 296.767 780.161, 288.012 775.450, 279.609 770.517, 271.578 765.365, 263.941 759.998, 256.721 754.419, 249.941 748.635, 243.623 742.651, 237.783 736.475, 232.441 730.113, 227.617 723.573, 223.331 716.864, 219.604 709.994, 216.461 702.974, 213.925 695.815, 212.019 688.528, 210.759 681.128, 210.159 673.627, 210.235 672.008, 210.399 666.039, 211.001 658.382, 212.473 650.671, 214.665 642.923, 217.592 635.158, 221.268 627.397, 225.703 619.657, 230.898 611.961, 236.853 604.452, 243.458 604.327, 243.568 597.220, 250.602 596.780, 251.038 595.716, 252.213 595.523, 252.427 595.443, 252.515 591.686, 256.667 589.340, 259.260 583.023, 267.012 582.093, 268.154 582.033, 268.228 576.101, 276.279 574.881, 277.934 569.326, 286.249 567.912, 288.366 562.723, 296.914 561.149, 299.506 556.628, 307.684 556.025, 308.776 556.013, 308.797 554.614, 311.329 553.501, 313.539 553.176, 314.184 551.661, 317.192 548.328, 323.808 545.779, 329.366 544.286, 332.619 542.316, 336.913 538.465, 346.142 536.598, 350.615 533.057, 359.966 532.537, 361.339 531.197, 364.877 527.959, 374.338 526.136, 379.664 523.195, 389.222 521.436, 394.937 518.786, 404.580 517.118, 410.652 514.750, 420.368 513.193, 426.758 511.103, 436.537 509.677, 443.205 507.861, 453.038 506.586, 459.943 505.041, 469.823 503.932, 476.919 502.657, 486.837 501.726, 494.078 500.719, 504.028 499.976, 511.365 499.731, 514.673 498.990, 524.645 498.688, 528.722 498.215, 538.711 497.866, 546.093 497.663, 556.091 497.514, 563.419 497.527, 564.604 497.592, 574.604 497.630, 580.645 497.971, 590.640 498.213, 597.715 498.831, 607.696 499.257, 614.574 500.158, 624.533 500.758, 631.168 501.947, 641.097 502.708, 647.445 504.190, 657.335 505.094, 663.358 506.877, 673.197 507.904, 678.859 509.997, 688.637 511.125, 693.904 512.309, 698.660 514.747, 708.449 517.496, 718.063 518.752, 722.454 521.844, 731.964 523.120, 735.887 526.567, 745.274 527.832, 748.717 528.276, 749.793 531.285, 757.084 532.866, 760.917 535.879, 767.434 537.301, 770.508 538.204, 772.461 541.910, 779.626 543.342, 782.395 543.825, 783.328 545.678, 786.531 549.709, 793.495 555.149, 801.886 555.836, 802.945 561.723, 811.029 562.185, 811.664 568.526, 819.396 568.732, 819.646 575.454, 826.890 582.329, 833.393 589.335, 839.156 596.454, 844.180 603.664, 848.467 610.948, 852.021 618.287, 854.845 625.116, 856.796 625.663, 856.952 633.056, 858.359 640.449, 859.080 647.826, 859.133 655.172, 858.532 662.473, 857.294 669.714, 855.433 676.883, 852.965 683.969, 849.904 690.958, 846.274 697.840, 842.097 704.605, 837.396 711.244, 832.190 717.748, 826.499 724.109, 820.342 730.319, 813.737 736.371, 806.699 742.258, 799.247 747.975, 791.404 753.516, 783.191 758.822, 774.715 758.877, 774.628 763.907, 765.985 764.053, 765.733 768.816, 756.940 769.041, 756.525 773.544, 747.596 773.835, 747.019 778.086, 737.968 778.432, 737.231 782.438, 728.068 782.828, 727.176 786.595, 717.913 787.019, 716.871 790.556, 707.518 791.003, 706.336 794.318, 696.901 794.780, 695.586 797.878, 686.078 798.346, 684.639 801.232, 675.064 801.701, 673.509 804.379, 663.875 804.841, 662.212 807.314, 652.523 807.764, 650.761 810.035, 641.022 810.467, 639.169 812.538, 629.386 812.948, 627.452 814.825, 617.630 815.208, 615.625 816.893, 605.768 817.246, 603.703 818.740, 593.815 819.060, 591.698 820.364, 581.784 820.648, 579.625 821.763, 569.688 822.009, 567.498 822.936, 557.541 823.142, 555.329 823.881, 545.356 824.046, 543.133 824.482, 535.242 " fill="none" stroke="rgb(0, 0, 0)" stroke-linecap="butt" stroke-linejoin="round" stroke-opacity="1.0" stroke-width="3.0" />
            <path d=" M 671.391, 210.405 663.793, 211.172 656.126, 212.643 648.404, 214.834 640.647, 217.759 632.873, 221.433 625.102, 225.865 617.354, 231.056 609.649, 237.006 602.133, 243.603 602.007, 243.714 594.893, 250.742 594.451, 251.178 593.320, 252.426 593.316, 252.430 593.199, 252.559 592.851, 252.943 592.839, 252.956 587.004, 259.392 586.081, 260.523 579.757, 268.269 579.689, 268.351 575.744, 273.696 572.531, 278.047 566.969, 286.357 565.556, 288.469 560.359, 297.012 558.787, 299.597 555.900, 304.810 555.605, 305.342 555.269, 305.948 552.689, 310.607 552.246, 311.407 551.190, 313.499 546.685, 322.427 545.956, 323.873 545.227, 325.458 543.734, 328.706 542.627, 331.114 539.939, 336.964 536.081, 346.190 534.217, 350.650 531.883, 356.803 528.812, 364.896 525.569, 374.356 523.748, 379.667 520.803, 389.224 519.046, 394.923 516.392, 404.564 514.725, 410.620 512.354, 420.335 510.799, 426.707 508.706, 436.485 507.282, 443.135 505.464, 452.969 504.190, 459.854 502.644, 469.734 501.536, 476.811 500.260, 486.729 499.331, 493.951 498.323, 503.900 497.582, 511.217 497.192, 516.469 496.452, 526.441 496.295, 528.554 495.823, 538.543 495.475, 545.905 495.273, 555.903 495.125, 563.212 495.195, 573.212 495.245, 580.419 495.588, 590.413 495.830, 597.470 496.452, 607.450 496.879, 614.310 497.783, 624.269 498.384, 630.885 499.577, 640.814 500.338, 647.145 501.826, 657.034 502.729, 663.041 504.518, 672.879 505.545, 678.526 507.644, 688.303 508.772, 693.556 511.195, 703.258 511.497, 704.470 512.400, 708.085 515.156, 717.698 516.412, 722.077 519.512, 731.584 520.787, 735.496 524.242, 744.881 525.506, 748.315 527.648, 753.492 530.548, 760.503 530.645, 760.713 534.850, 769.786 535.297, 770.751 535.894, 772.038 536.747, 773.684 541.393, 782.646 541.523, 782.896 542.864, 785.208 545.217, 789.266 547.415, 793.055 552.864, 801.440 553.551, 802.497 559.446, 810.575 559.909, 811.210 566.258, 818.936 566.465, 819.187 573.196, 826.427 580.081, 832.927 587.097, 838.687 594.225, 843.710 601.445, 847.996 608.739, 851.550 616.089, 854.375 623.474, 856.484 " fill="none" stroke="rgb(0, 0, 0)" stroke-linecap="butt" stroke-linejoin="round" stroke-opacity="1.0" stroke-width="3.0" />
            <path d=" M 673.627, 210.235 671.391, 210.405 " fill="none" stroke="rgb(0, 0, 0)" stroke-linecap="butt" stroke-linejoin="round" stroke-opacity="1.0" stroke-width="3.0" />
            <path d=" M 623.474, 856.484 625.663, 856.952 " fill="none" stroke="rgb(0, 0, 0)" stroke-linecap="butt" stroke-linejoin="round" stroke-opacity="1.0" stroke-width="3.0" />
            <path d=" M 479.636, 545.427 479.437, 555.425 479.240, 565.277 479.316, 575.277 479.391, 585.006 479.745, 594.999 480.084, 604.546 480.720, 614.526 481.314, 623.831 482.238, 633.789 483.074, 642.798 484.291, 652.724 485.352, 661.384 486.869, 671.268 488.137, 679.530 489.961, 689.362 491.412, 697.181 493.554, 706.949 495.162, 714.285 497.630, 723.975 499.367, 730.792 502.173, 740.390 504.006, 746.658 504.244, 747.371 506.074, 752.870 509.059, 761.843 512.591, 771.231 514.502, 776.310 518.401, 785.518 520.047, 789.404 520.310, 790.027 520.468, 790.358 521.346, 792.207 522.730, 795.117 523.423, 796.576 526.460, 802.966 528.308, 806.435 529.739, 809.122 530.393, 810.350 531.783, 812.960 532.926, 815.104 534.623, 817.948 535.710, 819.770 536.068, 820.369 538.559, 824.542 539.681, 826.422 545.245, 834.731 546.700, 836.903 552.717, 844.891 553.957, 846.538 560.437, 854.154 561.426, 855.317 568.375, 862.508 569.081, 863.238 576.501, 869.941 576.897, 870.299 584.849, 876.502 592.913, 881.855 601.066, 886.364 609.285, 890.039 617.548, 892.895 625.836, 894.945 630.155, 895.944 638.424, 897.199 646.678, 897.682 654.900, 897.411 663.072, 896.408 671.179, 894.694 679.205, 892.290 687.138, 889.221 694.964, 885.508 702.671, 881.175 710.248, 876.245 717.684, 870.743 724.970, 864.692 732.097, 858.114 739.058, 851.034 745.737, 843.592 745.844, 843.473 752.202, 835.755 752.449, 835.455 758.496, 827.490 758.867, 827.002 764.613, 818.817 765.092, 818.135 770.547, 809.754 771.119, 808.875 776.294, 800.318 776.944, 799.244 781.849, 790.530 782.562, 789.262 787.205, 780.405 787.969, 778.948 792.361, 769.964 793.163, 768.322 797.310, 759.223 798.139, 757.403 802.050, 748.200 802.896, 746.209 806.577, 736.911 807.430, 734.758 810.888, 725.375 811.739, 723.068 814.980, 713.608 815.821, 711.154 818.851, 701.624 819.674, 699.035 822.498, 689.442 823.297, 686.726 825.919, 677.076 826.688, 674.243 829.111, 664.541 829.845, 661.602 832.073, 651.853 832.767, 648.817 834.803, 639.026 835.452, 635.904 837.299, 626.076 837.900, 622.876 839.560, 613.015 840.109, 609.750 841.583, 599.859 842.078, 596.538 843.369, 586.621 843.807, 583.255 844.914, 573.316 845.293, 569.914 846.217, 559.957 846.536, 556.530 847.278, 546.558 847.534, 543.117 848.094, 533.132 848.288, 529.687 848.665, 519.694 848.795, 516.255 848.989, 506.257 849.055, 502.836 849.064, 492.836 849.067, 489.441 848.890, 479.443 848.830, 476.087 848.464, 466.093 848.343, 462.786 847.785, 452.801 847.604, 449.553 846.853, 439.582 846.613, 436.404 845.665, 426.449 845.370, 423.352 844.220, 413.419 843.873, 410.414 842.518, 400.506 842.121, 397.604 840.555, 387.727 840.113, 384.938 838.332, 375.098 837.850, 372.433 835.848, 362.636 835.330, 360.105 833.099, 350.357 832.554, 347.972 830.087, 338.281 829.520, 336.052 826.810, 326.426 826.228, 324.361 823.266, 314.810 822.680, 312.919 819.456, 303.453 818.874, 301.745 815.378, 292.376 814.812, 290.859 811.033, 281.600 810.494, 280.280 806.420, 271.148 805.922, 270.030 801.540, 261.041 801.096, 260.130 796.394, 251.305 796.020, 250.602 790.983, 241.964 790.695, 241.469 785.309, 233.043 785.123, 232.752 779.375, 224.570 779.309, 224.476 773.257, 216.665 766.970, 209.342 760.454, 202.533 753.714, 196.262 746.759, 190.555 739.594, 185.436 732.229, 180.931 724.673, 177.065 716.936, 173.864 709.030, 171.350 700.966, 169.550 692.759, 168.485 684.422, 168.178 675.973, 168.651 671.527, 169.070 662.959, 170.343 654.314, 172.433 645.610, 175.356 636.869, 179.127 628.112, 183.758 619.646, 189.080 619.362, 189.258 611.291, 195.162 610.644, 195.636 602.979, 202.059 601.982, 202.895 594.727, 209.778 593.401, 211.036 586.555, 218.325 584.930, 220.056 578.486, 227.703 576.594, 229.949 570.545, 237.912 568.423, 240.705 563.795, 247.436 560.443, 252.310 555.150, 260.794 552.685, 264.745 550.323, 268.910 547.359, 274.138 547.198, 274.422 547.000, 274.771 546.194, 276.192 545.721, 277.026 545.176, 277.988 542.783, 282.629 542.192, 283.774 541.328, 285.450 539.321, 289.342 537.944, 292.012 537.850, 292.213 533.605, 301.267 532.100, 304.477 531.019, 306.784 530.674, 307.596 526.757, 316.797 525.450, 319.866 524.427, 322.270 520.829, 331.600 518.195, 338.429 517.403, 340.704 514.115, 350.147 512.350, 355.217 509.363, 364.760 506.914, 372.585 504.223, 382.216 501.913, 390.482 499.510, 400.189 497.366, 408.851 495.247, 418.624 493.381, 427.226 493.293, 427.634 491.547, 436.964 489.712, 446.770 488.149, 456.647 486.639, 466.193 485.350, 476.110 484.085, 485.839 483.069, 495.787 482.062, 505.639 481.926, 507.461 481.181, 517.434 480.952, 520.503 480.871, 521.588 480.577, 525.524 480.105, 535.513 479.778, 542.419 479.636, 545.427 " fill="none" stroke="rgb(0, 0, 0)" stroke-linecap="butt" stroke-linejoin="round" stroke-opacity="1.0" stroke-width="3.0" />
            <path d=" M 675.973, 168.651 667.428, 169.923 658.804, 172.014 650.122, 174.939 641.403, 178.714 632.667, 183.351 624.210, 188.687 623.937, 188.859 615.877, 194.778 615.238, 195.247 607.586, 201.684 606.595, 202.518 599.354, 209.414 598.032, 210.673 591.201, 217.975 589.578, 219.709 583.149, 227.369 581.259, 229.621 575.224, 237.595 573.103, 240.398 567.442, 248.663 567.434, 248.674 567.391, 248.738 565.138, 252.027 559.859, 260.520 557.393, 264.487 552.474, 273.194 551.328, 275.222 549.896, 277.758 548.770, 279.950 548.282, 280.898 548.022, 281.405 546.818, 283.750 542.676, 291.811 540.591, 296.274 539.146, 299.369 535.761, 306.616 533.533, 311.869 529.628, 321.075 529.178, 322.135 527.002, 327.798 523.415, 337.133 522.954, 338.330 519.676, 347.778 517.115, 355.156 514.138, 364.702 511.686, 372.563 509.002, 382.196 506.689, 390.500 504.293, 400.209 502.145, 408.912 500.032, 418.686 498.075, 427.738 497.293, 431.929 497.153, 432.677 495.318, 442.507 494.495, 446.918 493.845, 451.036 492.846, 457.362 491.422, 466.386 490.986, 469.744 489.699, 479.661 488.867, 486.077 487.852, 496.026 486.842, 505.923 486.732, 507.384 486.610, 509.029 486.487, 510.668 486.040, 516.661 485.845, 519.267 485.665, 521.674 485.353, 525.855 484.880, 535.843 484.600, 541.739 484.407, 545.803 484.206, 555.801 484.006, 565.698 484.079, 575.698 484.150, 585.472 484.500, 595.466 484.836, 605.056 485.466, 615.036 485.921, 622.218 486.057, 624.384 486.974, 634.342 487.401, 638.980 487.808, 643.393 489.016, 653.319 490.076, 662.019 491.583, 671.904 492.849, 680.204 494.663, 690.038 496.112, 697.892 498.242, 707.662 499.848, 715.030 502.304, 724.724 504.039, 731.571 505.972, 738.215 508.664, 747.468 510.790, 753.891 513.701, 762.682 517.207, 772.047 519.127, 777.175 521.904, 783.764 524.784, 790.596 524.919, 790.917 529.195, 799.956 529.546, 800.698 530.923, 803.607 531.051, 803.878 535.726, 812.695 537.121, 815.325 537.498, 816.036 539.589, 819.555 544.234, 827.371 549.782, 835.691 551.234, 837.868 557.235, 845.867 558.471, 847.515 564.936, 855.144 565.919, 856.305 572.855, 863.508 573.553, 864.233 580.962, 870.950 581.348, 871.301 589.278, 877.509 597.321, 882.863 605.452, 887.372 613.649, 891.046 621.890, 893.899 630.155, 895.944 " fill="none" stroke="rgb(0, 0, 0)" stroke-linecap="butt" stroke-linejoin="round" stroke-opacity="1.0" stroke-width="3.0" />
            <path d=" M 734.307, 523.152 733.906, 522.139 733.806, 521.887 733.214, 520.785 732.541, 519.864 731.798, 519.140 730.998, 518.625 730.153, 518.328 729.278, 518.255 719.296, 517.670 718.117, 517.601 717.221, 517.753 716.324, 518.127 715.476, 518.720 714.694, 519.523 713.958, 520.521 713.280, 521.698 712.944, 522.437 712.673, 523.032 712.147, 524.502 711.710, 526.083 711.371, 527.747 711.135, 529.467 711.007, 531.212 720.986, 531.857 722.209, 531.936 727.034, 531.741 727.061, 531.409 727.079, 531.187 727.167, 530.646 727.184, 530.578 727.295, 530.133 727.459, 529.662 727.655, 529.247 727.878, 528.898 728.121, 528.626 728.378, 528.436 728.641, 528.335 728.904, 528.326 " fill="none" stroke="rgb(0, 0, 0)" stroke-linecap="butt" stroke-linejoin="round" stroke-opacity="1.0" stroke-width="3.0" />
            <path d=" M 729.278, 518.255 728.388, 518.408 727.497, 518.784 726.655, 519.381 725.878, 520.189 725.147, 521.192 724.474, 522.374 724.445, 522.439 724.394, 522.551 723.969, 523.496 723.870, 523.716 723.346, 525.193 722.911, 526.782 722.679, 527.934 722.573, 528.455 722.338, 530.183 722.271, 531.101 722.209, 531.936 " fill="none" stroke="rgb(0, 0, 0)" stroke-linecap="butt" stroke-linejoin="round" stroke-opacity="1.0" stroke-width="3.0" />
            <path d=" M 728.904, 528.326 729.160, 528.408 729.401, 528.578 729.621, 528.833 729.813, 529.166 729.974, 529.567 730.097, 530.024 730.181, 530.527 730.223, 531.061 730.221, 531.612 " fill="none" stroke="rgb(0, 0, 0)" stroke-linecap="butt" stroke-linejoin="round" stroke-opacity="1.0" stroke-width="3.0" />
            <path d=" M 734.307, 523.152 744.302, 522.823 750.069, 522.634 " fill="none" stroke="rgb(0, 0, 0)" stroke-linecap="butt" stroke-linejoin="round" stroke-opacity="1.0" stroke-width="3.0" />
            <path d=" M 727.061, 531.409 730.221, 531.612 740.213, 531.207 747.359, 530.918 " fill="none" stroke="rgb(0, 0, 0)" stroke-linecap="butt" stroke-linejoin="round" stroke-opacity="1.0" stroke-width="3.0" />
            <path d=" M 802.450, 522.541 801.601, 522.703 800.749, 523.095 799.946, 523.714 799.207, 524.551 799.082, 524.736 798.509, 525.590 797.901, 526.745 797.865, 526.812 797.789, 526.996 797.286, 528.199 796.782, 529.726 796.361, 531.367 796.133, 532.556 796.031, 533.094 796.024, 533.143 796.006, 533.284 795.797, 534.877 795.727, 535.824 795.664, 536.686 " fill="none" stroke="rgb(0, 0, 0)" stroke-linecap="butt" stroke-linejoin="round" stroke-opacity="1.0" stroke-width="3.0" />
            <path d=" M 802.013, 532.926 802.254, 533.009 802.480, 533.183 802.686, 533.445 802.849, 533.754 802.866, 533.787 803.015, 534.199 803.129, 534.671 803.205, 535.189 803.241, 535.739 803.235, 536.307 " fill="none" stroke="rgb(0, 0, 0)" stroke-linecap="butt" stroke-linejoin="round" stroke-opacity="1.0" stroke-width="3.0" />
            <path d=" M 784.296, 490.857 784.458, 490.851 784.674, 490.885 784.881, 490.963 785.070, 491.084 785.234, 491.243 785.367, 491.434 785.464, 491.652 785.522, 491.892 785.534, 492.147 785.502, 492.386 785.429, 492.614 785.318, 492.822 785.172, 493.003 784.997, 493.150 784.798, 493.258 784.579, 493.323 784.347, 493.338 784.186, 493.318 " fill="none" stroke="rgb(0, 0, 0)" stroke-linecap="butt" stroke-linejoin="round" stroke-opacity="1.0" stroke-width="3.0" />
            <path d=" M 784.296, 490.857 784.221, 490.865 784.214, 490.865 783.978, 490.925 783.758, 491.029 783.561, 491.173 783.397, 491.351 783.268, 491.559 783.183, 491.792 783.145, 492.046 783.158, 492.286 783.217, 492.519 783.321, 492.737 783.466, 492.930 783.645, 493.092 783.855, 493.218 783.860, 493.220 784.093, 493.303 784.142, 493.309 784.171, 493.314 784.347, 493.338 " fill="none" stroke="rgb(0, 0, 0)" stroke-linecap="butt" stroke-linejoin="round" stroke-opacity="1.0" stroke-width="3.0" />
            <path d=" M 781.714, 488.859 781.438, 495.069 784.904, 495.233 787.096, 495.337 787.753, 495.179 787.519, 489.115 784.720, 488.984 782.141, 488.863 781.714, 488.859 " fill="none" stroke="rgb(0, 0, 0)" stroke-linecap="butt" stroke-linejoin="round" stroke-opacity="1.0" stroke-width="3.0" />
            <path d=" M 787.096, 495.337 787.374, 489.113 " fill="none" stroke="rgb(0, 0, 0)" stroke-linecap="butt" stroke-linejoin="round" stroke-opacity="1.0" stroke-width="3.0" />
            <path d=" M 787.519, 489.115 787.374, 489.113 781.714, 488.859 " fill="none" stroke="rgb(0, 0, 0)" stroke-linecap="butt" stroke-linejoin="round" stroke-opacity="1.0" stroke-width="3.0" />
            <path d=" M 712.944, 522.437 704.918, 521.653 694.967, 520.663 693.443, 520.512 683.494, 519.511 681.969, 519.358 672.020, 518.351 670.491, 518.196 660.542, 517.188 659.003, 517.032 649.053, 516.028 647.500, 515.871 637.549, 514.876 635.977, 514.719 626.026, 513.738 624.431, 513.581 614.477, 512.619 612.855, 512.462 602.899, 511.523 601.246, 511.367 591.288, 510.456 589.599, 510.302 579.638, 509.423 577.910, 509.271 577.798, 499.271 577.748, 494.834 577.517, 484.836 577.417, 480.475 577.065, 470.481 576.915, 466.214 576.440, 456.225 576.242, 452.070 575.640, 442.088 575.398, 438.064 574.665, 428.091 574.381, 424.217 573.513, 414.255 573.190, 410.550 572.182, 400.601 571.826, 397.086 570.672, 387.153 570.288, 383.849 568.979, 373.935 568.573, 370.862 567.103, 360.970 566.684, 358.150 565.934, 353.645 " fill="none" stroke="rgb(0, 0, 0)" stroke-linecap="butt" stroke-linejoin="round" stroke-opacity="1.0" stroke-width="3.0" />
            <path d=" M 530.967, 230.601 530.185, 230.027 523.371, 225.028 522.439, 224.344 520.470, 222.733 513.061, 216.668 " fill="none" stroke="rgb(0, 0, 0)" stroke-linecap="butt" stroke-linejoin="round" stroke-opacity="1.0" stroke-width="3.0" />
            <path d=" M 552.559, 242.964 546.576, 240.016 544.931, 239.074 540.513, 236.544 539.589, 236.015 537.293, 234.700 536.822, 234.430 532.598, 231.667 530.967, 230.601 530.204, 230.102 527.213, 228.146 " fill="none" stroke="rgb(0, 0, 0)" stroke-linecap="butt" stroke-linejoin="round" stroke-opacity="1.0" stroke-width="3.0" />
            <path d=" M 563.795, 247.436 561.384, 246.625 552.559, 242.964 551.411, 242.488 " fill="none" stroke="rgb(0, 0, 0)" stroke-linecap="butt" stroke-linejoin="round" stroke-opacity="1.0" stroke-width="3.0" />
            <path d=" M 513.061, 216.668 508.586, 213.617 508.381, 213.477 505.930, 212.304 503.579, 211.179 498.665, 209.816 493.650, 209.425 488.546, 210.043 483.369, 211.700 478.897, 214.032 478.131, 214.431 476.668, 215.494 472.851, 218.266 470.752, 220.228 467.545, 223.226 462.232, 229.333 460.180, 232.147 456.932, 236.603 455.953, 238.174 451.667, 245.048 450.968, 246.340 446.460, 254.669 442.169, 263.702 441.333, 265.463 437.461, 274.683 436.311, 277.423 432.815, 286.792 431.419, 290.531 428.260, 300.019 426.681, 304.758 423.829, 314.343 422.124, 320.072 419.554, 329.736 417.773, 336.431 415.463, 346.160 413.654, 353.780 411.585, 363.564 409.789, 372.059 407.948, 381.888 406.204, 391.199 404.579, 401.066 402.922, 411.122 401.501, 421.021 400.080, 430.919 399.962, 431.742 398.737, 441.667 397.513, 451.592 397.343, 452.966 396.309, 462.912 395.275, 472.858 395.084, 474.694 394.235, 484.658 393.386, 494.622 393.199, 496.822 392.531, 506.800 391.864, 516.778 391.699, 519.240 391.211, 529.228 390.723, 539.216 390.595, 541.835 390.285, 551.830 389.976, 561.825 389.893, 564.492 389.762, 574.491 389.631, 584.490 389.597, 587.097 389.646, 597.097 389.695, 607.097 389.707, 609.535 389.939, 619.533 390.171, 629.530 390.221, 631.692 390.251, 631.651 395.706, 624.199 397.368, 622.038 401.296, 616.928 406.993, 609.872 412.796, 603.022 418.707, 596.373 424.727, 589.916 430.856, 583.646 437.097, 577.554 443.450, 571.636 449.916, 565.885 456.497, 560.295 463.194, 554.859 470.008, 549.574 476.941, 544.432 479.778, 542.419 " fill="none" stroke="rgb(0, 0, 0)" stroke-linecap="butt" stroke-linejoin="round" stroke-opacity="1.0" stroke-width="3.0" />
            <path d=" M 360.204, 622.124 356.166, 631.272 354.254, 635.605 " fill="none" stroke="rgb(0, 0, 0)" stroke-linecap="butt" stroke-linejoin="round" stroke-opacity="1.0" stroke-width="3.0" />
            <path d=" M 478.897, 214.032 471.067, 214.095 " fill="none" stroke="rgb(0, 0, 0)" stroke-linecap="butt" stroke-linejoin="round" stroke-opacity="1.0" stroke-width="3.0" />
            <path d=" M 784.142, 493.309 784.186, 493.318 " fill="none" stroke="rgb(0, 0, 0)" stroke-linecap="butt" stroke-linejoin="round" stroke-opacity="1.0" stroke-width="3.0" />
        </g>
    </g>
</svg>
