<?xml version='1.0' encoding='ascii'?>
<svg xmlns="http://www.w3.org/2000/svg" height="1080" version="1.1" width="1080">
    <g id="View Layer_LineSet" inkscape:groupmode="lineset" inkscape:label="View Layer_LineSet" xmlns:inkscape="http://www.inkscape.org/namespaces/inkscape">
        <g id="strokes" inkscape:groupmode="layer" inkscape:label="strokes" xmlns:inkscape="http://www.inkscape.org/namespaces/inkscape">
            <path d=" M 564.852, 497.530 564.820, 498.687 564.769, 499.830 564.707, 500.810 564.699, 500.948 564.609, 502.029 564.502, 503.063 564.378, 504.040 564.239, 504.948 564.085, 505.780 563.916, 506.526 563.801, 506.963 563.790, 507.007 563.658, 507.437 563.522, 507.812 563.382, 508.132 563.239, 508.394 563.094, 508.597 563.077, 508.614 " fill="none" stroke="rgb(0, 0, 0)" stroke-linecap="butt" stroke-linejoin="round" stroke-opacity="1.0" stroke-width="3.0" />
            <path d=" M 354.016, 628.015 360.365, 630.268 " fill="none" stroke="rgb(0, 0, 0)" stroke-linecap="butt" stroke-linejoin="round" stroke-opacity="1.0" stroke-width="3.0" />
            <path d=" M 378.207, 630.848 388.111, 629.467 390.162, 629.181 " fill="none" stroke="rgb(0, 0, 0)" stroke-linecap="butt" stroke-linejoin="round" stroke-opacity="1.0" stroke-width="3.0" />
            <path d=" M 390.162, 629.181 385.888, 620.140 381.614, 611.100 380.533, 608.812 " fill="none" stroke="rgb(0, 0, 0)" stroke-linecap="butt" stroke-linejoin="round" stroke-opacity="1.0" stroke-width="3.0" />
            <path d=" M 467.436, 211.272 462.946, 212.246 458.397, 214.300 453.805, 217.472 449.182, 221.788 444.547, 227.272 443.001, 229.500 440.826, 232.635 439.916, 233.945 435.309, 241.825 430.822, 250.762 430.744, 250.918 426.742, 260.082 426.243, 261.225 422.663, 270.562 421.827, 272.743 418.618, 282.214 417.519, 285.460 414.638, 295.036 413.340, 299.351 410.753, 309.010 409.314, 314.385 406.994, 324.112 405.465, 330.525 403.389, 340.307 401.815, 347.719 399.963, 357.546 398.387, 365.907 396.744, 375.771 395.203, 385.021 393.755, 394.916 392.283, 404.984 391.021, 414.904 389.759, 424.825 389.647, 425.708 388.562, 435.649 387.477, 445.590 387.313, 447.096 386.398, 457.055 385.483, 467.013 385.296, 469.049 384.547, 479.021 383.797, 488.992 383.612, 491.456 383.024, 501.439 382.435, 511.422 382.271, 514.204 381.840, 524.195 381.410, 534.185 381.281, 537.175 381.008, 547.171 380.735, 557.168 380.650, 560.249 380.534, 570.249 380.417, 580.248 380.381, 583.306 380.422, 593.305 380.462, 603.305 380.474, 606.223 380.533, 608.812 379.483, 618.757 378.434, 628.702 378.207, 630.848 " fill="none" stroke="rgb(0, 0, 0)" stroke-linecap="butt" stroke-linejoin="round" stroke-opacity="1.0" stroke-width="3.0" />
            <path d=" M 566.937, 520.733 567.254, 520.738 567.995, 520.751 574.847, 515.106 577.939, 513.194 577.843, 503.195 577.798, 498.505 577.582, 488.507 577.482, 483.893 577.143, 473.898 576.990, 469.378 576.526, 459.389 576.321, 454.983 575.728, 445.001 575.475, 440.729 574.749, 430.756 574.450, 426.637 573.588, 416.675 573.247, 412.731 572.242, 402.781 571.863, 399.033 570.709, 389.100 570.299, 385.569 568.990, 375.655 568.555, 372.363 567.080, 362.472 566.629, 359.441 566.038, 355.909 " fill="none" stroke="rgb(0, 0, 0)" stroke-linecap="butt" stroke-linejoin="round" stroke-opacity="1.0" stroke-width="3.0" />
            <path d=" M 562.835, 361.793 563.903, 368.101 565.396, 377.989 565.762, 380.414 567.087, 390.326 567.446, 393.010 568.613, 402.941 568.957, 405.862 569.973, 415.810 570.294, 418.947 571.166, 428.908 571.458, 432.239 572.192, 442.212 572.450, 445.717 573.050, 455.699 573.270, 459.356 573.741, 469.345 573.919, 473.136 574.264, 483.130 574.398, 487.035 574.619, 497.033 574.707, 501.032 574.718, 502.120 574.648, 502.876 574.570, 503.605 574.483, 504.300 574.387, 504.960 574.284, 505.580 574.174, 506.157 574.058, 506.687 573.936, 507.169 573.809, 507.599 573.678, 507.975 573.543, 508.295 573.405, 508.558 573.265, 508.761 573.123, 508.905 569.073, 512.123 568.879, 511.089 568.661, 510.223 568.422, 509.539 568.166, 509.050 567.898, 508.764 567.622, 508.687 567.309, 508.682 565.000, 508.645 564.734, 508.640 563.794, 508.625 563.077, 508.614 562.946, 508.611 559.374, 508.554 557.589, 508.525 557.426, 508.522 557.235, 508.519 556.945, 508.652 556.656, 508.994 556.375, 509.539 556.104, 510.279 555.849, 511.202 555.626, 512.242 555.615, 512.293 555.595, 512.413 555.405, 513.532 555.309, 514.252 555.223, 514.901 555.072, 516.374 554.956, 517.926 554.875, 519.532 554.831, 521.163 554.825, 522.792 555.574, 522.805 557.420, 522.839 557.536, 522.841 559.319, 522.873 562.888, 522.937 563.718, 522.952 564.674, 522.969 565.291, 522.980 566.920, 521.638 566.923, 521.121 566.937, 520.733 566.942, 520.606 566.974, 520.108 567.020, 519.639 567.078, 519.213 567.146, 518.842 567.222, 518.534 567.265, 518.414 567.305, 518.300 567.392, 518.144 567.481, 518.072 " fill="none" stroke="rgb(0, 0, 0)" stroke-linecap="butt" stroke-linejoin="round" stroke-opacity="1.0" stroke-width="3.0" />
            <path d=" M 462.900, 886.269 458.824, 885.369 458.612, 885.269 454.741, 883.449 450.666, 880.482 449.968, 879.785 446.612, 876.438 442.597, 871.297 438.636, 865.043 434.746, 857.665 430.947, 849.154 427.372, 839.814 427.255, 839.509 424.113, 830.016 423.691, 828.741 420.925, 819.131 420.272, 816.860 417.839, 807.161 417.018, 803.887 414.882, 794.118 413.949, 789.853 412.078, 780.030 411.082, 774.796 409.454, 764.930 408.436, 758.761 407.030, 748.860 406.028, 741.801 404.828, 731.873 403.875, 723.982 402.867, 714.032 401.990, 705.373 401.165, 695.407 400.390, 686.052 399.737, 676.073 399.084, 666.106 398.596, 656.118 398.108, 646.130 398.084, 645.627 397.756, 635.632 397.427, 625.638 397.397, 624.712 397.223, 615.733 " fill="none" stroke="rgb(0, 0, 0)" stroke-linecap="butt" stroke-linejoin="round" stroke-opacity="1.0" stroke-width="3.0" />
            <path d=" M 383.443, 291.851 381.678, 298.569 379.406, 308.307 378.200, 313.472 376.169, 323.263 374.878, 329.484 373.066, 339.318 371.732, 346.557 370.120, 356.426 368.780, 364.633 367.354, 374.531 366.041, 383.647 364.789, 393.569 363.533, 403.526 362.446, 413.466 361.359, 423.407 361.274, 424.183 360.342, 434.140 359.411, 444.096 359.277, 445.528 358.495, 455.497 357.713, 465.467 357.557, 467.461 356.920, 477.440 356.283, 487.420 356.127, 489.876 355.630, 499.864 355.134, 509.851 354.995, 512.661 354.637, 522.655 354.279, 532.649 354.170, 535.701 353.949, 545.699 353.728, 555.696 353.657, 558.877 353.573, 568.877 353.488, 578.876 353.461, 582.068 353.513, 592.068 353.565, 602.068 353.581, 605.154 353.771, 615.152 353.962, 625.150 354.016, 628.015 354.395, 638.007 354.774, 648.000 354.864, 650.384 355.412, 660.369 355.960, 670.354 356.066, 672.274 356.789, 682.247 357.513, 692.221 357.611, 693.576 358.518, 703.535 359.425, 713.494 359.488, 714.191 360.589, 724.130 361.684, 734.023 362.990, 743.937 364.183, 752.989 365.710, 762.871 366.968, 771.011 368.735, 780.854 370.021, 788.022 372.050, 797.814 373.324, 803.964 375.641, 813.692 376.855, 818.790 377.544, 821.310 " fill="none" stroke="rgb(0, 0, 0)" stroke-linecap="butt" stroke-linejoin="round" stroke-opacity="1.0" stroke-width="3.0" />
            <path d=" M 523.398, 535.572 523.373, 541.046 523.219, 551.045 523.156, 555.186 522.895, 565.182 522.787, 569.329 522.419, 579.322 522.266, 583.457 521.791, 593.446 521.595, 597.551 521.011, 607.534 520.774, 611.591 520.080, 621.567 519.802, 625.556 519.557, 628.596 " fill="none" stroke="rgb(0, 0, 0)" stroke-linecap="butt" stroke-linejoin="round" stroke-opacity="1.0" stroke-width="3.0" />
            <path d=" M 503.769, 747.427 501.925, 756.503 499.766, 766.267 499.336, 768.213 496.998, 777.936 496.605, 779.568 494.074, 789.242 493.735, 790.538 490.995, 800.155 490.728, 801.093 487.759, 810.642 487.586, 811.201 484.366, 820.668 484.311, 820.829 480.908, 829.946 477.380, 838.515 473.731, 846.500 469.966, 853.866 466.090, 860.577 462.111, 866.592 458.034, 871.874 453.868, 876.385 449.968, 879.785 " fill="none" stroke="rgb(0, 0, 0)" stroke-linecap="butt" stroke-linejoin="round" stroke-opacity="1.0" stroke-width="3.0" />
            <path d=" M 390.058, 624.011 390.162, 629.181 390.503, 639.175 390.845, 649.170 390.924, 651.493 391.436, 661.480 391.949, 671.467 392.044, 673.327 392.733, 683.304 393.422, 693.280 393.511, 694.579 394.384, 704.541 395.257, 714.502 395.314, 715.146 396.381, 725.089 397.437, 734.935 398.709, 744.854 399.863, 753.863 401.353, 763.752 402.574, 771.854 404.299, 781.704 405.549, 788.838 407.530, 798.640 408.767, 804.759 411.028, 814.500 412.205, 819.569 414.776, 829.233 415.840, 833.230 418.760, 842.794 419.650, 845.710 422.964, 855.145 423.612, 856.989 427.376, 866.254 427.703, 867.057 431.900, 875.908 436.183, 883.542 437.630, 885.683 437.899, 886.081 440.530, 889.972 444.923, 895.215 449.342, 899.288 453.769, 902.217 458.189, 904.034 462.587, 904.772 466.947, 904.465 471.258, 903.150 475.508, 900.871 479.686, 897.666 480.696, 896.657 483.782, 893.575 487.787, 888.642 491.695, 882.911 495.498, 876.421 499.191, 869.214 502.726, 861.427 502.769, 861.332 506.227, 852.815 509.561, 843.699 512.707, 834.207 512.767, 834.024 514.885, 827.008 515.845, 823.827 518.503, 814.187 518.790, 813.143 521.238, 803.447 521.602, 802.005 522.778, 796.926 " fill="none" stroke="rgb(0, 0, 0)" stroke-linecap="butt" stroke-linejoin="round" stroke-opacity="1.0" stroke-width="3.0" />
            <path d=" M 519.428, 789.515 519.089, 790.932 516.565, 800.608 516.342, 801.466 513.606, 811.084 513.472, 811.553 510.484, 821.162 507.379, 830.261 504.161, 838.813 500.834, 846.783 497.404, 854.135 493.874, 860.834 490.250, 866.838 486.539, 872.111 482.749, 876.616 478.886, 880.314 474.960, 883.164 470.979, 885.130 466.956, 886.177 462.900, 886.269 " fill="none" stroke="rgb(0, 0, 0)" stroke-linecap="butt" stroke-linejoin="round" stroke-opacity="1.0" stroke-width="3.0" />
            <path d=" M 555.309, 514.252 548.974, 513.975 548.222, 513.942 546.387, 513.862 546.430, 523.862 546.447, 527.901 546.391, 537.901 546.368, 541.984 546.214, 551.982 546.151, 556.089 545.900, 566.086 545.797, 570.200 545.447, 580.194 545.304, 584.295 544.857, 594.285 544.675, 598.356 544.129, 608.342 543.909, 612.364 543.263, 622.344 543.007, 626.299 542.259, 636.271 541.968, 640.140 541.116, 650.104 540.794, 653.868 539.836, 663.822 539.485, 667.462 538.417, 677.405 538.041, 680.899 536.859, 690.829 536.463, 694.159 535.437, 701.983 " fill="none" stroke="rgb(0, 0, 0)" stroke-linecap="butt" stroke-linejoin="round" stroke-opacity="1.0" stroke-width="3.0" />
            <path d=" M 538.005, 709.580 539.170, 700.276 540.298, 690.340 540.745, 686.394 541.762, 676.446 542.183, 672.334 543.093, 662.376 543.482, 658.120 544.289, 648.153 544.644, 643.772 545.352, 633.797 545.670, 629.312 546.279, 619.331 546.558, 614.760 547.071, 604.773 547.310, 600.136 547.729, 590.145 547.925, 585.459 548.251, 575.464 548.405, 570.749 548.638, 560.752 548.748, 556.025 548.890, 546.026 548.956, 541.305 549.005, 531.305 549.029, 526.610 548.985, 516.610 548.974, 513.975 " fill="none" stroke="rgb(0, 0, 0)" stroke-linecap="butt" stroke-linejoin="round" stroke-opacity="1.0" stroke-width="3.0" />
            <path d=" M 378.207, 630.848 378.560, 640.842 378.913, 650.836 379.027, 654.067 379.547, 664.053 380.068, 674.040 380.210, 676.779 380.905, 686.755 381.599, 696.731 381.748, 698.874 382.624, 708.836 383.500, 718.797 383.627, 720.244 384.695, 730.187 385.763, 740.130 385.834, 740.791 387.104, 750.710 388.349, 760.427 389.837, 770.315 391.155, 779.072 392.879, 788.922 394.233, 796.654 396.214, 806.456 397.560, 813.116 399.825, 822.856 401.115, 828.408 403.695, 838.069 404.875, 842.491 407.810, 852.051 408.817, 855.334 412.155, 864.760 412.919, 866.918 416.719, 876.167 417.157, 877.233 421.510, 886.277 425.955, 894.051 430.472, 900.572 435.041, 905.857 439.642, 909.928 444.259, 912.814 448.873, 914.550 453.469, 915.172 458.033, 914.716 462.551, 913.224 467.010, 910.741 471.400, 907.308 475.711, 902.969 " fill="none" stroke="rgb(0, 0, 0)" stroke-linecap="butt" stroke-linejoin="round" stroke-opacity="1.0" stroke-width="3.0" />
            <path d=" M 475.711, 902.969 482.227, 895.384 483.782, 893.575 " fill="none" stroke="rgb(0, 0, 0)" stroke-linecap="butt" stroke-linejoin="round" stroke-opacity="1.0" stroke-width="3.0" />
            <path d=" M 540.534, 538.798 530.534, 538.798 529.165, 538.798 526.124, 537.097 523.398, 535.572 519.372, 533.320 519.087, 533.160 518.800, 533.000 518.513, 532.839 518.227, 532.679 517.892, 532.371 517.571, 531.833 517.269, 531.074 517.125, 530.565 " fill="none" stroke="rgb(0, 0, 0)" stroke-linecap="butt" stroke-linejoin="round" stroke-opacity="1.0" stroke-width="3.0" />
            <path d=" M 519.555, 505.640 524.047, 496.706 528.595, 487.658 538.560, 488.496 540.050, 488.621 540.306, 498.618 540.563, 508.615 540.691, 513.613 540.693, 523.613 540.694, 527.658 540.551, 537.657 540.534, 538.798 531.892, 533.767 531.530, 533.556 531.255, 533.396 530.979, 533.236 530.703, 533.075 530.429, 532.915 530.106, 532.606 529.797, 532.067 529.508, 531.308 529.280, 530.469 529.245, 530.342 529.016, 529.188 528.822, 527.867 528.668, 526.404 528.558, 524.828 528.510, 523.612 528.493, 523.169 528.474, 521.459 528.502, 519.731 528.577, 518.019 528.621, 517.396 528.696, 516.356 528.858, 514.774 529.060, 513.304 529.279, 512.073 529.296, 511.974 529.564, 510.809 529.857, 509.831 530.168, 509.059 530.436, 508.502 530.705, 507.946 530.973, 507.390 531.241, 506.836 531.377, 506.558 535.730, 497.555 540.050, 488.621 " fill="none" stroke="rgb(0, 0, 0)" stroke-linecap="butt" stroke-linejoin="round" stroke-opacity="1.0" stroke-width="3.0" />
            <path d=" M 530.899, 523.655 530.774, 523.613 530.655, 523.436 530.547, 523.132 530.456, 522.715 530.386, 522.203 530.340, 521.618 530.320, 520.986 530.326, 520.334 530.359, 519.692 530.417, 519.087 530.497, 518.547 530.596, 518.094 530.710, 517.748 530.833, 517.526 530.959, 517.436 " fill="none" stroke="rgb(0, 0, 0)" stroke-linecap="butt" stroke-linejoin="round" stroke-opacity="1.0" stroke-width="3.0" />
            <path d=" M 530.959, 517.436 531.085, 517.481 531.204, 517.661 531.311, 517.966 531.401, 518.382 531.471, 518.893 531.516, 519.477 531.536, 520.106 531.530, 520.755 531.497, 521.395 531.440, 521.998 531.360, 522.537 531.262, 522.990 531.148, 523.337 531.026, 523.562 530.899, 523.655 " fill="none" stroke="rgb(0, 0, 0)" stroke-linecap="butt" stroke-linejoin="round" stroke-opacity="1.0" stroke-width="3.0" />
            <path d=" M 359.913, 559.753 359.844, 563.220 359.783, 573.219 359.722, 583.219 359.707, 585.740 359.785, 595.739 359.863, 605.739 359.882, 608.118 360.020, 614.467 360.239, 624.465 360.365, 630.268 360.727, 640.261 361.088, 650.255 361.155, 652.101 361.345, 655.852 " fill="none" stroke="rgb(0, 0, 0)" stroke-linecap="butt" stroke-linejoin="round" stroke-opacity="1.0" stroke-width="3.0" />
            <path d=" M 544.012, 725.117 545.249, 715.785 546.465, 705.859 546.819, 702.971 547.941, 693.034 548.282, 690.020 549.312, 680.074 549.636, 676.947 550.577, 666.991 550.834, 664.278 550.882, 663.763 551.736, 653.800 552.020, 650.483 552.789, 640.512 553.050, 637.118 553.735, 627.141 553.972, 623.681 554.574, 613.699 554.786, 610.183 555.307, 600.197 555.492, 596.637 555.932, 586.647 556.090, 583.053 556.450, 573.060 556.580, 569.444 556.611, 568.330 556.891, 558.333 556.961, 555.819 557.161, 545.821 557.233, 542.190 557.354, 532.191 557.397, 528.569 557.420, 522.839 " fill="none" stroke="rgb(0, 0, 0)" stroke-linecap="butt" stroke-linejoin="round" stroke-opacity="1.0" stroke-width="3.0" />
            <path d=" M 453.492, 941.381 455.938, 941.558 460.099, 941.830 464.228, 941.265 468.317, 939.895 472.357, 937.748 476.343, 934.856 480.266, 931.251 484.122, 926.962 487.904, 922.022 491.608, 916.459 495.230, 910.306 498.766, 903.591 502.211, 896.343 505.564, 888.591 508.822, 880.363 511.981, 871.684 515.041, 862.580 518.000, 853.077 520.777, 843.471 520.855, 843.199 523.453, 833.543 523.607, 832.969 526.038, 823.269 526.253, 822.409 528.529, 812.672 528.793, 811.541 529.184, 809.752 " fill="none" stroke="rgb(0, 0, 0)" stroke-linecap="butt" stroke-linejoin="round" stroke-opacity="1.0" stroke-width="3.0" />
            <path d=" M 523.258, 222.766 522.028, 219.020 519.096, 210.898 516.048, 203.256 512.888, 196.123 509.616, 189.527 506.236, 183.497 502.749, 178.062 499.158, 173.252 495.469, 169.099 491.684, 165.632 487.809, 162.883 483.849, 160.883 479.809, 159.661 475.697, 159.249 474.154, 159.407 471.520, 159.676 467.285, 160.970 463.003, 163.157 458.682, 166.264 454.333, 170.314 449.967, 175.328 445.596, 181.324 441.232, 188.316 436.890, 196.318 432.583, 205.336 429.911, 211.635 428.326, 215.373 424.780, 224.724 424.134, 226.429 420.909, 235.895 420.023, 238.496 417.720, 245.994 416.010, 251.563 413.335, 261.198 412.110, 265.611 409.674, 275.310 408.341, 280.618 406.124, 290.369 404.719, 296.553 402.706, 306.348 401.261, 313.380 399.437, 323.212 397.983, 331.057 396.338, 340.920 394.901, 349.534 393.424, 359.424 392.031, 368.757 390.714, 378.670 389.386, 388.665 388.223, 398.598 387.060, 408.530 386.982, 409.192 385.966, 419.140 384.950, 429.089 384.830, 430.265 383.957, 440.227 383.084, 450.189 382.942, 451.809 382.208, 461.782 381.474, 471.755 381.327, 473.741 380.730, 483.724 380.132, 493.706 379.996, 495.979 379.532, 505.969 379.068, 515.958 378.953, 518.436 378.622, 528.430 378.291, 538.425 378.205, 541.021 378.007, 551.019 377.808, 561.017 377.756, 563.645 377.690, 573.645 377.624, 583.645 377.607, 586.218 377.674, 596.217 377.742, 606.217 377.758, 608.648 377.960, 618.646 378.163, 628.644 378.207, 630.848 378.547, 640.843 378.887, 650.837 378.951, 652.731 379.432, 662.719 379.912, 672.708 379.984, 674.212 380.610, 684.193 381.235, 694.173 381.300, 695.212 382.076, 705.182 382.851, 715.152 382.891, 715.654 383.822, 725.611 384.745, 735.468 385.841, 745.408 386.853, 754.587 388.122, 764.506 389.202, 772.951 390.654, 782.845 391.778, 790.506 393.427, 800.369 394.569, 807.203 396.428, 817.029 397.559, 823.002 399.647, 832.782 400.732, 837.866 403.070, 847.589 404.075, 851.767 406.687, 861.420 407.569, 864.682 410.486, 874.247 411.201, 876.593 414.458, 886.048 414.954, 887.489 418.594, 896.803 418.813, 897.365 422.762, 906.219 426.787, 914.056 430.873, 920.884 435.006, 926.715 439.173, 931.564 443.362, 935.450 447.559, 938.395 451.755, 940.423 455.853, 941.535 455.938, 941.558 " fill="none" stroke="rgb(0, 0, 0)" stroke-linecap="butt" stroke-linejoin="round" stroke-opacity="1.0" stroke-width="3.0" />
            <path d=" M 473.271, 159.319 469.067, 159.747 464.806, 161.041 460.496, 163.229 456.148, 166.335 451.772, 170.385 447.379, 175.397 442.981, 181.392 438.590, 188.383 434.222, 196.383 429.888, 205.398 427.052, 212.043 425.605, 215.432 422.041, 224.775 421.389, 226.485 418.146, 235.944 417.253, 238.548 414.301, 248.102 413.216, 251.610 410.614, 260.930 409.294, 265.654 406.844, 275.349 405.503, 280.656 403.274, 290.404 401.861, 296.585 399.836, 306.378 398.383, 313.406 396.549, 323.236 395.087, 331.076 393.432, 340.938 391.988, 349.546 390.503, 359.436 389.103, 368.763 387.779, 378.674 386.444, 388.663 385.275, 398.594 384.105, 408.526 384.028, 409.182 383.006, 419.129 381.985, 429.077 381.865, 430.247 380.987, 440.208 380.110, 450.170 379.968, 451.782 379.230, 461.754 378.493, 471.727 378.346, 473.706 377.746, 483.688 377.145, 493.670 377.009, 495.935 376.544, 505.924 376.078, 515.913 375.963, 518.382 375.632, 528.377 375.300, 538.371 375.214, 540.959 375.015, 550.957 374.817, 560.955 374.765, 563.574 374.700, 573.574 374.635, 583.574 374.618, 586.138 374.687, 596.138 374.756, 606.137 374.773, 608.560 374.978, 618.558 375.183, 628.556 375.228, 630.751 375.571, 640.745 375.914, 650.740 375.979, 652.626 376.464, 662.614 376.949, 672.602 377.022, 674.099 377.653, 684.079 378.284, 694.059 378.349, 695.091 379.131, 705.061 379.913, 715.030 379.952, 715.526 380.891, 725.482 381.821, 735.333 382.925, 745.272 383.944, 754.445 385.222, 764.363 386.310, 772.803 387.773, 782.696 388.905, 790.353 390.566, 800.214 391.716, 807.045 393.588, 816.868 394.726, 822.839 396.829, 832.616 397.922, 837.699 400.275, 847.418 401.287, 851.597 403.917, 861.245 404.806, 864.508 407.741, 874.067 408.462, 876.416 411.739, 885.864 412.241, 887.311 415.901, 896.616 416.125, 897.185 420.100, 906.038 424.152, 913.874 428.264, 920.701 432.425, 926.532 436.619, 931.381 440.835, 935.269 445.059, 938.215 449.282, 940.244 453.492, 941.381 " fill="none" stroke="rgb(0, 0, 0)" stroke-linecap="butt" stroke-linejoin="round" stroke-opacity="1.0" stroke-width="3.0" />
            <path d=" M 475.697, 159.249 473.271, 159.319 " fill="none" stroke="rgb(0, 0, 0)" stroke-linecap="butt" stroke-linejoin="round" stroke-opacity="1.0" stroke-width="3.0" />
            <path d=" M 549.912, 738.172 550.272, 735.595 551.556, 725.678 552.017, 722.119 553.207, 712.190 553.650, 708.493 554.748, 698.553 555.170, 694.732 556.178, 684.783 556.577, 680.849 557.499, 670.892 557.872, 666.858 558.709, 656.893 559.055, 652.772 559.808, 642.800 560.126, 638.602 560.798, 628.624 561.085, 624.360 561.676, 614.377 561.932, 610.058 562.444, 600.071 562.668, 595.708 563.102, 585.717 563.292, 581.319 563.648, 571.326 563.805, 566.905 564.083, 556.909 564.206, 552.474 564.406, 542.476 564.495, 538.038 564.617, 528.039 564.671, 523.608 564.674, 522.969 " fill="none" stroke="rgb(0, 0, 0)" stroke-linecap="butt" stroke-linejoin="round" stroke-opacity="1.0" stroke-width="3.0" />
            <path d=" M 455.254, 968.125 457.668, 968.308 462.142, 968.271 466.572, 967.336 470.952, 965.537 475.273, 962.911 479.528, 959.493 483.709, 955.319 487.811, 950.424 491.829, 944.844 495.757, 938.613 499.593, 931.764 503.331, 924.331 506.969, 916.346 510.505, 907.840 513.935, 898.842 517.258, 889.383 520.348, 879.872 520.473, 879.489 523.358, 869.914 523.577, 869.188 525.739, 861.470 526.570, 858.505 529.095, 848.829 529.451, 847.465 531.815, 837.749 532.219, 836.092 534.434, 826.340 534.873, 824.408 535.559, 821.174 " fill="none" stroke="rgb(0, 0, 0)" stroke-linecap="butt" stroke-linejoin="round" stroke-opacity="1.0" stroke-width="3.0" />
            <path d=" M 539.616, 234.551 539.086, 232.159 536.746, 222.437 536.518, 221.493 533.984, 211.819 533.824, 211.209 531.077, 201.594 531.003, 201.334 528.056, 191.895 524.982, 182.919 521.784, 174.436 518.462, 166.475 515.018, 159.068 511.453, 152.247 507.770, 146.045 503.972, 140.496 500.062, 135.634 496.044, 131.495 491.922, 128.113 487.702, 125.526 483.391, 123.767 478.993, 122.874 474.517, 122.881 474.141, 122.959 469.972, 123.821 465.366, 125.729 460.710, 128.635 456.014, 132.569 451.291, 137.558 446.554, 143.626 441.815, 150.793 437.091, 159.078 432.628, 168.027 432.396, 168.492 428.364, 177.643 427.747, 179.043 424.096, 188.353 423.161, 190.734 421.326, 195.961 418.656, 203.562 415.646, 213.098 415.067, 214.930 414.251, 217.516 413.086, 221.608 410.349, 231.226 409.963, 232.581 407.474, 242.266 405.812, 248.733 403.551, 258.474 401.818, 265.942 399.767, 275.729 397.998, 284.169 396.143, 293.995 394.373, 303.369 392.701, 313.228 391.566, 319.921 390.961, 323.488 389.462, 333.375 387.963, 343.262 387.780, 344.466 386.445, 354.377 385.109, 364.287 384.847, 366.235 383.668, 376.165 382.489, 386.096 382.178, 388.720 381.149, 398.667 380.121, 408.614 379.787, 411.839 378.904, 421.800 378.021, 431.761 377.689, 435.505 376.947, 445.477 376.206, 455.450 375.895, 459.625 375.292, 469.607 374.688, 479.589 374.415, 484.103 373.948, 494.092 373.481, 504.081 373.258, 508.838 372.926, 518.833 372.593, 528.827 372.430, 533.728 372.232, 543.726 372.033, 553.724 371.935, 558.667 371.871, 568.667 371.806, 578.667 371.775, 583.552 371.846, 593.551 371.916, 603.551 371.950, 608.277 372.157, 618.274 372.365, 628.272 372.458, 632.739 372.804, 642.733 373.151, 652.727 373.294, 656.839 373.783, 666.827 374.273, 676.815 374.452, 680.479 375.089, 690.459 375.725, 700.439 375.925, 703.569 376.713, 713.538 377.502, 723.506 377.701, 726.019 378.649, 735.974 379.596, 745.929 379.770, 747.750 380.884, 757.688 381.998, 767.626 382.117, 768.687 383.408, 778.604 384.698, 788.520 384.729, 788.762 386.207, 798.652 387.591, 807.915 389.269, 817.773 390.685, 826.092 392.579, 835.911 393.995, 843.249 396.124, 853.020 397.503, 859.348 399.889, 869.059 401.191, 874.358 402.929, 880.635 404.709, 887.059 405.041, 888.257 408.025, 897.801 409.034, 901.029 412.371, 910.455 412.715, 911.425 413.153, 912.664 416.890, 921.939 416.960, 922.113 417.381, 923.159 421.571, 932.239 421.699, 932.517 426.092, 940.747 430.543, 947.860 435.037, 953.875 439.560, 958.812 444.097, 962.696 448.635, 965.553 453.163, 967.413 456.689, 968.114 457.668, 968.308 " fill="none" stroke="rgb(0, 0, 0)" stroke-linecap="butt" stroke-linejoin="round" stroke-opacity="1.0" stroke-width="3.0" />
            <path d=" M 361.308, 507.430 361.250, 508.639 360.914, 518.634 360.578, 528.628 360.415, 533.489 360.216, 543.487 360.018, 553.486 359.921, 558.390 359.913, 559.753 359.852, 569.752 359.791, 579.752 359.770, 583.235 359.848, 593.235 359.926, 603.234 359.962, 607.922 360.101, 614.284 360.320, 624.282 360.436, 629.618 360.496, 632.346 360.857, 642.340 361.218, 652.333 361.306, 654.777 361.345, 655.852 361.366, 656.410 361.873, 666.397 362.381, 676.384 362.565, 680.015 362.590, 680.389 " fill="none" stroke="rgb(0, 0, 0)" stroke-linecap="butt" stroke-linejoin="round" stroke-opacity="1.0" stroke-width="3.0" />
            <path d=" M 472.096, 122.962 467.522, 123.903 462.887, 125.811 458.202, 128.718 453.477, 132.651 448.725, 137.639 443.958, 143.706 439.191, 150.872 434.438, 159.155 429.952, 168.093 429.714, 168.567 425.661, 177.708 425.038, 179.115 421.366, 188.417 420.425, 190.803 417.093, 200.231 415.893, 203.626 412.865, 213.157 412.088, 215.603 411.462, 217.576 408.709, 227.190 408.603, 227.557 407.149, 232.636 404.646, 242.318 402.974, 248.783 402.846, 249.334 400.572, 259.072 398.957, 265.985 396.895, 275.770 395.117, 284.206 393.251, 294.030 391.472, 303.398 389.790, 313.256 388.109, 323.114 388.041, 323.510 386.533, 333.396 385.026, 343.282 384.843, 344.481 383.500, 354.390 382.709, 360.226 381.894, 366.241 380.709, 376.171 379.524, 386.100 379.211, 388.717 378.177, 398.664 377.144, 408.610 376.809, 411.827 375.922, 421.788 375.034, 431.748 374.701, 435.484 373.956, 445.456 373.211, 455.428 372.899, 459.595 372.293, 469.576 371.687, 479.558 371.414, 484.063 370.945, 494.052 370.476, 504.041 370.253, 508.788 369.919, 518.783 369.586, 528.777 369.423, 533.668 369.224, 543.666 369.026, 553.664 368.928, 558.598 368.864, 568.598 368.801, 578.597 368.770, 583.472 368.843, 593.472 368.915, 603.472 368.949, 608.188 369.160, 618.185 369.370, 628.183 369.464, 632.641 369.814, 642.635 370.164, 652.628 370.308, 656.731 370.802, 666.719 371.296, 676.707 371.477, 680.363 372.119, 690.343 372.761, 700.322 372.962, 703.444 373.757, 713.412 374.552, 723.381 374.752, 725.887 375.707, 735.841 376.662, 745.795 376.836, 747.610 377.959, 757.547 379.082, 767.484 379.201, 768.540 380.501, 778.455 381.801, 788.370 381.833, 788.608 383.321, 798.497 384.714, 807.755 386.404, 817.611 387.830, 825.927 389.738, 835.743 391.163, 843.079 393.307, 852.846 394.695, 859.173 396.265, 865.517 398.408, 874.179 400.012, 879.932 402.284, 888.075 403.280, 891.239 406.304, 900.844 409.661, 910.263 409.867, 910.840 410.450, 912.477 414.208, 921.744 414.706, 922.970 418.919, 932.040 419.053, 932.328 423.474, 940.557 427.955, 947.670 432.478, 953.685 437.029, 958.623 441.595, 962.507 446.163, 965.366 450.720, 967.228 455.254, 968.125 " fill="none" stroke="rgb(0, 0, 0)" stroke-linecap="butt" stroke-linejoin="round" stroke-opacity="1.0" stroke-width="3.0" />
            <path d=" M 474.517, 122.881 472.096, 122.962 " fill="none" stroke="rgb(0, 0, 0)" stroke-linecap="butt" stroke-linejoin="round" stroke-opacity="1.0" stroke-width="3.0" />
            <path d=" M 544.948, 237.801 543.609, 231.116 541.483, 221.345 541.104, 219.599 538.804, 209.867 538.466, 208.439 535.977, 198.754 535.697, 197.664 533.001, 188.034 532.795, 187.298 529.873, 177.735 529.761, 177.371 526.596, 167.910 523.298, 158.948 519.871, 150.514 516.314, 142.642 512.629, 135.366 508.819, 128.720 504.886, 122.741 500.834, 117.465 496.665, 112.931 492.385, 109.175 487.999, 106.238 483.512, 104.156 478.932, 102.971 474.265, 102.718 469.449, 102.892 464.645, 103.612 459.772, 105.340 454.841, 108.109 449.864, 111.953 444.852, 116.903 439.819, 122.987 434.781, 130.228 429.753, 138.648 425.138, 147.519 424.752, 148.261 420.586, 157.352 419.795, 159.080 416.026, 168.342 414.900, 171.108 411.484, 180.506 410.088, 184.345 406.987, 193.852 405.378, 198.782 402.560, 208.377 400.790, 214.405 398.231, 224.072 396.346, 231.191 394.022, 240.917 392.065, 249.109 389.960, 258.885 387.971, 268.120 386.067, 277.937 384.164, 287.754 384.082, 288.176 383.443, 291.851 381.729, 301.703 380.420, 309.223 378.884, 319.104 377.348, 328.985 377.005, 331.195 375.638, 341.101 374.271, 351.007 373.855, 354.021 372.649, 363.948 371.443, 373.875 370.988, 377.621 369.937, 387.565 368.886, 397.510 368.422, 401.907 367.520, 411.866 366.619, 421.826 366.170, 426.787 365.414, 436.758 364.657, 446.729 364.246, 452.159 363.712, 460.831 363.098, 470.812 362.661, 477.921 362.186, 487.910 361.712, 497.899 361.424, 503.964 361.308, 507.430 360.972, 517.424 360.636, 527.419 360.543, 530.175 360.398, 537.482 360.200, 547.480 360.022, 556.443 359.961, 566.443 359.900, 576.443 359.863, 582.654 359.941, 592.653 360.018, 602.653 360.065, 608.694 360.183, 614.099 360.402, 624.097 360.508, 628.960 360.628, 634.452 360.989, 644.446 361.350, 654.439 361.469, 657.730 361.538, 659.645 361.544, 659.820 362.052, 669.808 362.560, 679.795 362.590, 680.389 362.760, 683.743 362.809, 684.694 363.467, 694.673 364.125, 704.651 364.411, 708.975 365.226, 718.941 366.041, 728.908 366.340, 732.568 367.318, 742.520 368.296, 752.472 368.583, 755.387 369.732, 765.320 370.882, 775.254 371.124, 777.351 372.455, 787.262 373.786, 797.174 373.949, 798.390 375.473, 808.274 376.996, 818.157 377.040, 818.440 377.544, 821.310 379.274, 831.159 380.378, 837.443 382.331, 847.251 383.944, 855.355 386.139, 865.111 387.720, 872.135 390.180, 881.828 391.684, 887.753 394.438, 897.367 395.818, 902.187 398.898, 911.701 400.102, 915.421 403.547, 924.809 404.515, 927.447 408.373, 936.673 409.039, 938.265 413.366, 947.280 413.654, 947.880 418.344, 956.302 423.091, 963.548 427.877, 969.636 432.689, 974.593 437.510, 978.446 442.327, 981.225 447.127, 982.963 451.899, 983.696 456.701, 984.070 461.374, 983.829 465.998, 982.655 470.564, 980.587 475.064, 977.663 479.491, 973.923 483.837, 969.404 488.097, 964.145 492.265, 958.184 496.338, 951.556 500.310, 944.298 504.178, 936.444 507.940, 928.029 511.593, 919.085 515.134, 909.644 518.404, 900.193 518.563, 899.735 521.613, 890.211 521.876, 889.388 524.726, 879.803 525.074, 878.631 527.740, 868.993 528.156, 867.490 530.652, 857.806 531.120, 855.990 533.459, 846.268 533.966, 844.157 536.158, 834.400 536.695, 832.012 538.100, 825.318 " fill="none" stroke="rgb(0, 0, 0)" stroke-linecap="butt" stroke-linejoin="round" stroke-opacity="1.0" stroke-width="3.0" />
            <path d=" M 552.121, 742.700 552.495, 740.001 553.769, 730.082 554.283, 726.073 555.463, 716.143 555.956, 711.998 557.045, 702.057 557.512, 697.789 558.513, 687.839 558.953, 683.460 559.868, 673.502 560.279, 669.024 561.110, 659.058 561.491, 654.493 562.239, 644.521 562.587, 639.880 563.255, 629.902 563.570, 625.196 564.158, 615.213 564.438, 610.453 564.947, 600.466 565.192, 595.661 565.623, 585.670 565.832, 580.832 566.186, 570.838 566.358, 565.976 566.635, 555.980 566.770, 551.104 566.970, 541.106 567.068, 536.226 567.191, 526.227 567.251, 521.353 567.254, 520.738 " fill="none" stroke="rgb(0, 0, 0)" stroke-linecap="butt" stroke-linejoin="round" stroke-opacity="1.0" stroke-width="3.0" />
            <path d=" M 474.265, 102.718 469.521, 103.436 464.708, 105.163 459.838, 107.931 454.921, 111.776 449.970, 116.727 444.999, 122.812 440.021, 130.056 435.053, 138.480 430.482, 147.374 430.110, 148.098 425.987, 157.208 425.212, 158.922 421.482, 168.201 420.374, 170.957 419.104, 174.495 415.724, 183.906 415.618, 184.202 412.550, 193.720 410.961, 198.648 408.175, 208.252 406.426, 214.282 403.895, 223.956 402.223, 230.344 402.031, 231.079 399.734, 240.811 398.170, 247.435 397.799, 249.009 395.717, 258.790 393.749, 268.033 391.867, 277.855 391.061, 282.059 389.902, 288.105 388.207, 297.960 386.512, 307.815 386.280, 309.167 384.761, 319.051 383.242, 328.935 382.900, 331.155 381.548, 341.064 380.476, 348.919 379.783, 353.999 378.590, 363.928 377.397, 373.856 376.945, 377.617 375.905, 387.563 374.865, 397.508 374.403, 401.923 373.510, 411.883 372.618, 421.843 372.172, 426.822 371.735, 432.639 370.986, 442.611 370.264, 452.215 369.656, 462.196 369.047, 472.177 368.692, 477.997 368.221, 487.986 367.751, 497.975 367.464, 504.060 367.129, 514.054 366.795, 524.049 366.586, 530.293 366.388, 540.291 366.189, 550.289 366.065, 556.581 366.002, 566.581 365.940, 576.581 365.901, 582.812 365.975, 592.812 366.049, 602.812 366.094, 608.873 366.307, 618.871 366.520, 628.868 366.643, 634.651 366.997, 644.645 367.351, 654.639 367.542, 660.039 368.040, 670.026 368.539, 680.014 368.784, 684.932 369.432, 694.911 370.079, 704.890 370.360, 709.230 371.162, 719.197 371.964, 729.165 372.260, 732.840 373.223, 742.793 374.186, 752.747 374.469, 755.675 375.602, 765.610 376.734, 775.546 376.975, 777.654 378.286, 787.568 379.597, 797.482 379.760, 798.707 381.261, 808.594 382.763, 818.480 382.807, 818.769 383.256, 821.361 384.508, 828.593 386.100, 837.784 388.026, 847.597 389.618, 855.706 390.984, 861.862 392.213, 867.403 393.343, 872.495 395.771, 882.196 397.255, 888.121 399.940, 897.628 401.334, 902.561 404.376, 912.087 405.561, 915.801 408.966, 925.203 409.917, 927.832 412.802, 934.822 414.383, 938.653 418.665, 947.690 418.939, 948.270 423.569, 956.693 428.255, 963.938 432.981, 970.026 437.731, 974.982 442.492, 978.832 447.248, 981.608 451.989, 983.342 456.701, 984.070 " fill="none" stroke="rgb(0, 0, 0)" stroke-linecap="butt" stroke-linejoin="round" stroke-opacity="1.0" stroke-width="3.0" />
            <path d=" M 565.291, 522.980 565.297, 521.349 565.314, 520.704 565.341, 519.716 565.420, 518.108 565.425, 518.036 565.534, 516.553 565.680, 515.078 565.856, 513.708 566.059, 512.466 566.141, 512.074 566.286, 511.374 566.532, 510.450 566.793, 509.709 567.065, 509.162 567.309, 508.862 567.343, 508.820 567.622, 508.687 " fill="none" stroke="rgb(0, 0, 0)" stroke-linecap="butt" stroke-linejoin="round" stroke-opacity="1.0" stroke-width="3.0" />
            <path d=" M 567.995, 520.751 567.984, 520.249 567.959, 519.772 567.920, 519.334 567.868, 518.946 567.806, 518.619 567.734, 518.363 567.654, 518.183 567.569, 518.085 567.481, 518.072 " fill="none" stroke="rgb(0, 0, 0)" stroke-linecap="butt" stroke-linejoin="round" stroke-opacity="1.0" stroke-width="3.0" />
            <path d=" M 530.886, 474.330 530.947, 479.974 531.180, 479.977 536.515, 480.043 536.723, 479.919 536.519, 474.360 531.139, 474.186 530.962, 474.286 530.886, 474.330 " fill="none" stroke="rgb(0, 0, 0)" stroke-linecap="butt" stroke-linejoin="round" stroke-opacity="1.0" stroke-width="3.0" />
            <path d=" M 536.458, 474.396 530.886, 474.330 " fill="none" stroke="rgb(0, 0, 0)" stroke-linecap="butt" stroke-linejoin="round" stroke-opacity="1.0" stroke-width="3.0" />
            <path d=" M 536.515, 480.043 536.458, 474.396 536.519, 474.360 " fill="none" stroke="rgb(0, 0, 0)" stroke-linecap="butt" stroke-linejoin="round" stroke-opacity="1.0" stroke-width="3.0" />
            <path d=" M 532.881, 476.404 532.851, 476.437 532.745, 476.576 532.645, 476.770 532.584, 476.980 532.565, 477.198 532.591, 477.429 532.662, 477.642 532.771, 477.835 532.788, 477.855 532.929, 478.018 533.098, 478.150 533.290, 478.245 533.314, 478.254 533.510, 478.306 533.529, 478.310 533.556, 478.313 533.589, 478.316 533.627, 478.318 533.670, 478.319 533.712, 478.319 533.754, 478.318 533.795, 478.317 533.832, 478.314 533.865, 478.311 533.893, 478.307 533.914, 478.302 534.026, 478.274 534.107, 478.247 534.174, 478.219 " fill="none" stroke="rgb(0, 0, 0)" stroke-linecap="butt" stroke-linejoin="round" stroke-opacity="1.0" stroke-width="3.0" />
            <path d=" M 533.088, 476.229 533.048, 476.262 532.893, 476.394 532.881, 476.404 532.962, 476.324 " fill="none" stroke="rgb(0, 0, 0)" stroke-linecap="butt" stroke-linejoin="round" stroke-opacity="1.0" stroke-width="3.0" />
            <path d=" M 534.174, 478.219 534.313, 478.144 534.439, 478.049 534.550, 477.936 534.644, 477.808 534.719, 477.668 534.773, 477.518 534.805, 477.361 534.815, 477.200 534.802, 477.039 534.766, 476.881 534.709, 476.730 534.631, 476.587 534.535, 476.457 534.421, 476.342 534.293, 476.244 534.153, 476.165 534.003, 476.107 533.847, 476.071 533.689, 476.057 533.530, 476.067 533.375, 476.099 533.227, 476.154 533.088, 476.229 532.962, 476.324 " fill="none" stroke="rgb(0, 0, 0)" stroke-linecap="butt" stroke-linejoin="round" stroke-opacity="1.0" stroke-width="3.0" />
            <path d=" M 629.107, 882.011 631.277, 882.499 639.192, 883.648 647.096, 884.062 654.971, 883.758 662.800, 882.756 670.569, 881.074 678.264, 878.733 685.871, 875.755 693.377, 872.161 700.771, 867.972 708.043, 863.211 715.181, 857.899 722.177, 852.058 729.022, 845.711 735.708, 838.880 742.228, 831.585 748.575, 823.849 754.606, 815.872 754.742, 815.692 760.472, 807.496 760.725, 807.134 766.164, 798.743 766.517, 798.197 771.676, 789.630 772.115, 788.900 777.003, 780.176 777.514, 779.263 782.140, 770.397 782.710, 769.304 787.083, 760.311 787.699, 759.043 791.827, 749.934 792.479, 748.497 796.370, 739.284 797.046, 737.684 800.706, 728.378 801.397, 726.621 804.834, 717.230 805.531, 715.327 808.750, 705.859 809.445, 703.816 812.451, 694.278 813.136, 692.105 815.935, 682.505 816.604, 680.211 819.199, 670.554 819.845, 668.148 822.241, 658.440 822.860, 655.933 825.059, 646.178 825.645, 643.579 827.652, 633.782 828.201, 631.101 830.016, 621.267 830.524, 618.514 832.151, 608.648 832.615, 605.833 834.055, 595.937 834.472, 593.071 835.726, 583.150 836.094, 580.242 837.163, 570.299 837.479, 567.360 838.364, 557.399 838.627, 554.439 839.328, 544.463 839.536, 541.492 840.053, 531.505 840.207, 528.534 840.538, 518.539 840.636, 515.578 840.782, 505.579 840.825, 502.638 840.783, 492.638 840.771, 489.727 840.540, 479.730 840.474, 476.861 840.052, 466.870 839.933, 464.052 839.317, 454.071 839.147, 451.316 838.334, 441.349 838.115, 438.667 837.101, 428.718 836.837, 426.119 835.618, 416.194 835.311, 413.689 833.884, 403.791 833.538, 401.391 831.897, 391.526 831.516, 389.241 829.655, 379.415 829.246, 377.255 827.159, 367.475 826.727, 365.450 824.407, 355.723 823.958, 353.843 821.398, 344.176 820.940, 342.450 818.131, 332.853 817.674, 331.291 814.606, 321.773 814.158, 320.382 810.823, 310.955 810.395, 309.743 806.781, 300.419 806.384, 299.394 802.481, 290.187 802.127, 289.352 797.923, 280.279 797.626, 279.640 793.107, 270.720 792.883, 270.277 788.035, 261.531 787.899, 261.285 782.677, 252.685 777.221, 244.499 771.535, 236.750 765.622, 229.460 759.488, 222.653 753.137, 216.351 746.578, 210.579 739.815, 205.359 732.858, 200.716 725.715, 196.672 718.395, 193.252 710.909, 190.477 703.269, 188.372 695.486, 186.956 687.575, 186.252 679.550, 186.280 677.326, 186.472 " fill="none" stroke="rgb(0, 0, 0)" stroke-linecap="butt" stroke-linejoin="round" stroke-opacity="1.0" stroke-width="3.0" />
            <path d=" M 631.277, 882.499 629.456, 882.061 623.367, 880.598 615.481, 877.930 607.640, 874.482 599.863, 870.242 592.172, 865.202 584.589, 859.353 577.135, 852.690 570.149, 845.535 569.835, 845.213 563.318, 837.628 562.712, 836.923 556.657, 828.964 555.789, 827.822 550.187, 819.538 549.092, 817.919 543.928, 809.355 542.643, 807.224 541.965, 805.964 539.577, 801.527 538.156, 798.888 536.468, 795.753 533.450, 789.471 532.034, 786.526 530.600, 783.542 530.591, 783.523 527.326, 775.904 525.034, 770.556 524.415, 768.929 521.173, 760.423 519.822, 756.878 516.625, 747.403 514.977, 742.519 512.129, 732.933 510.519, 727.514 508.677, 720.411 506.469, 711.899 504.285, 702.141 502.847, 695.716 500.978, 685.892 499.669, 679.010 498.108, 669.133 496.953, 661.830 495.689, 651.910 494.711, 644.227 493.739, 634.274 492.956, 626.255 492.269, 616.279 491.698, 607.973 491.291, 597.981 490.944, 589.438 490.814, 579.439 490.701, 570.713 490.844, 560.714 490.971, 551.860 491.385, 541.869 491.755, 532.943 492.439, 522.967 492.682, 519.419 493.051, 514.026 493.354, 510.867 493.587, 508.433 494.539, 498.479 494.855, 495.174 496.077, 485.249 497.161, 476.451 498.653, 466.563 499.958, 457.919 501.723, 448.076 503.236, 439.642 505.277, 429.852 506.981, 421.679 508.057, 417.168 510.378, 407.441 511.178, 404.088 513.783, 394.433 515.809, 386.925 518.704, 377.353 520.854, 370.243 524.046, 360.766 526.293, 354.093 529.789, 344.723 530.180, 343.675 532.104, 338.519 535.703, 329.779 538.262, 323.565 542.019, 315.281 542.215, 314.850 543.493, 312.030 544.162, 310.556 544.744, 309.271 549.206, 300.322 549.487, 299.757 550.963, 296.797 551.524, 295.671 552.501, 293.888 553.183, 292.642 553.906, 291.324 555.408, 288.580 558.577, 282.796 563.735, 274.229 565.875, 270.674 571.398, 262.338 573.393, 259.328 579.152, 251.447 581.103, 248.777 587.390, 241.000 588.979, 239.035 595.664, 231.598 596.996, 230.116 604.085, 223.063 605.127, 222.026 612.624, 215.408 613.346, 214.770 621.250, 208.644 621.631, 208.349 629.956, 202.762 638.299, 198.002 646.638, 194.063 654.953, 190.934 663.222, 188.604 671.427, 187.058 677.555, 186.471 679.550, 186.280 " fill="none" stroke="rgb(0, 0, 0)" stroke-linecap="butt" stroke-linejoin="round" stroke-opacity="1.0" stroke-width="3.0" />
            <path d=" M 677.326, 186.472 669.191, 187.251 660.975, 188.797 652.696, 191.127 644.371, 194.254 636.022, 198.190 627.669, 202.946 619.334, 208.530 611.424, 214.648 611.040, 214.945 603.537, 221.556 602.811, 222.195 595.715, 229.241 594.672, 230.278 587.980, 237.708 586.647, 239.189 580.352, 246.959 578.763, 248.920 577.212, 251.039 571.304, 259.108 571.046, 259.461 565.515, 267.793 563.521, 270.796 558.356, 279.359 556.217, 282.906 553.428, 287.988 552.411, 289.840 551.712, 291.114 550.466, 293.383 549.159, 295.767 548.961, 296.163 544.492, 305.109 542.908, 308.282 542.373, 309.352 541.432, 311.424 539.678, 315.285 535.886, 323.631 533.498, 329.420 529.724, 338.568 529.450, 339.299 525.949, 348.666 523.909, 354.124 523.866, 354.253 522.362, 358.711 519.165, 368.187 518.467, 370.257 515.568, 379.827 513.419, 386.920 510.810, 396.573 508.786, 404.063 506.462, 413.789 504.588, 421.634 502.544, 431.422 500.842, 439.576 499.074, 449.419 497.563, 457.833 496.069, 467.720 494.766, 476.343 494.656, 477.237 494.057, 482.093 492.834, 492.017 492.461, 495.045 491.508, 504.999 491.389, 506.247 491.273, 507.454 490.950, 510.827 490.658, 513.875 490.462, 516.736 490.282, 519.377 490.151, 521.282 489.468, 531.258 489.364, 532.770 488.951, 542.762 488.582, 551.665 488.440, 561.664 488.315, 570.497 488.447, 580.496 488.561, 589.201 488.970, 599.193 489.318, 607.715 490.008, 617.691 490.581, 625.977 491.556, 635.930 492.340, 643.929 493.608, 653.849 494.587, 661.514 496.154, 671.390 497.310, 678.676 499.184, 688.498 500.493, 695.364 502.683, 705.121 504.122, 711.530 506.267, 719.779 507.786, 725.620 508.178, 727.130 511.033, 736.713 512.643, 742.120 515.848, 751.593 517.497, 756.465 518.659, 759.509 522.228, 768.851 522.717, 770.130 523.724, 772.475 526.651, 779.290 528.282, 783.086 531.431, 789.624 532.828, 792.524 534.168, 795.306 537.612, 801.691 539.025, 804.310 540.351, 806.768 541.459, 808.601 546.631, 817.160 546.809, 817.454 552.419, 825.732 553.516, 827.350 559.578, 835.303 560.448, 836.445 566.972, 844.023 567.581, 844.731 574.574, 851.879 574.891, 852.204 582.355, 858.863 589.949, 864.710 597.651, 869.750 605.438, 873.989 613.290, 877.438 621.186, 880.107 629.107, 882.011 " fill="none" stroke="rgb(0, 0, 0)" stroke-linecap="butt" stroke-linejoin="round" stroke-opacity="1.0" stroke-width="3.0" />
            <path d=" M 788.214, 560.411 778.229, 559.874 777.472, 559.833 773.045, 557.580 764.133, 553.043 755.221, 548.507 754.020, 547.895 753.338, 547.547 752.654, 547.199 751.970, 546.850 751.285, 546.501 750.492, 545.961 749.751, 545.177 749.078, 544.165 748.486, 542.944 747.989, 541.537 747.594, 539.971 747.310, 538.275 747.143, 536.482 747.095, 534.627 747.167, 532.745 747.359, 530.873 747.420, 530.514 747.657, 529.107 747.667, 529.048 748.084, 527.304 748.603, 525.676 748.854, 525.065 749.212, 524.194 749.901, 522.887 750.393, 522.165 750.656, 521.779 751.001, 521.400 751.050, 521.346 751.462, 520.892 752.302, 520.243 753.018, 519.800 753.734, 519.358 754.449, 518.917 755.163, 518.477 755.434, 518.309 755.521, 518.256 756.579, 517.604 765.093, 512.359 773.607, 507.114 779.734, 503.339 " fill="none" stroke="rgb(0, 0, 0)" stroke-linecap="butt" stroke-linejoin="round" stroke-opacity="1.0" stroke-width="3.0" />
            <path d=" M 689.586, 265.798 681.260, 265.719 679.442, 265.879 674.752, 266.293 672.838, 266.461 664.346, 268.048 657.171, 270.100 655.811, 270.490 647.260, 273.788 638.717, 277.935 630.210, 282.925 621.991, 288.621 621.771, 288.774 613.985, 295.049 613.435, 295.493 606.097, 302.286 605.238, 303.081 598.350, 310.331 597.213, 311.529 590.770, 319.176 589.391, 320.812 583.379, 328.803 581.802, 330.900 576.204, 339.186 574.470, 341.754 569.281, 350.302 567.430, 353.352 566.465, 355.125 566.038, 355.909 562.835, 361.793 561.783, 363.727 560.723, 365.673 559.132, 368.940 558.652, 369.926 557.551, 372.187 554.401, 378.654 554.386, 378.685 552.858, 382.201 552.044, 384.075 550.451, 387.743 548.451, 392.346 544.849, 401.674 544.148, 403.490 542.946, 406.602 542.586, 407.656 539.353, 417.119 538.996, 418.163 537.892, 421.396 535.013, 430.972 533.302, 436.662 530.769, 446.336 529.801, 450.032 529.196, 452.341 527.010, 462.099 525.603, 468.378 523.766, 478.208 522.551, 484.712 521.062, 494.601 520.057, 501.277 519.555, 505.640 518.976, 510.677 518.748, 512.654 518.133, 518.000 517.333, 527.968 517.125, 530.565 516.784, 534.810 516.320, 544.799 516.003, 551.635 515.871, 561.634 515.781, 568.484 515.967, 578.483 516.093, 585.202 516.601, 595.189 516.934, 601.716 517.772, 611.681 518.299, 617.959 519.473, 627.890 519.557, 628.596 520.179, 633.863 521.193, 640.462 522.560, 649.364 524.433, 659.187 525.427, 664.403 527.044, 671.434 528.765, 678.921 531.386, 688.571 532.552, 692.865 535.075, 700.839 535.437, 701.983 535.519, 702.244 536.767, 706.188 536.881, 706.500 538.005, 709.580 541.387, 718.845 542.558, 721.642 544.012, 725.117 544.169, 725.492 545.577, 728.857 546.388, 730.796 548.468, 735.150 549.247, 736.780 549.912, 738.172 551.743, 742.006 552.121, 742.700 556.901, 751.484 557.425, 752.447 562.696, 760.945 563.407, 762.092 569.188, 770.252 569.661, 770.919 575.966, 778.681 576.157, 778.916 582.867, 786.070 589.764, 792.372 596.819, 797.820 604.004, 802.416 611.292, 806.163 614.531, 807.440 618.658, 809.067 626.076, 811.139 633.521, 812.394 640.970, 812.846 648.401, 812.511 655.793, 811.411 663.125, 809.567 670.378, 806.999 677.536, 803.732 684.580, 799.791 691.495, 795.202 698.266, 789.988 704.881, 784.177 711.326, 777.797 717.590, 770.873 723.661, 763.431 729.531, 755.499 735.120, 747.207 735.190, 747.104 740.433, 738.589 740.629, 738.271 745.540, 729.561 745.841, 729.027 750.433, 720.144 750.819, 719.398 755.105, 710.363 755.557, 709.409 759.546, 700.239 760.048, 699.084 763.751, 689.795 764.288, 688.450 767.715, 679.055 768.271, 677.530 771.430, 668.042 771.994, 666.348 774.892, 656.777 775.451, 654.928 778.095, 645.284 778.640, 643.293 781.036, 633.585 781.558, 631.467 783.709, 621.702 784.200, 619.472 786.112, 609.657 786.565, 607.331 788.241, 597.472 788.650, 595.065 790.092, 585.169 790.453, 582.697 791.663, 572.771 791.971, 570.249 792.951, 560.297 793.202, 557.743 793.953, 547.771 794.147, 545.200 794.588, 536.759 " fill="none" stroke="rgb(0, 0, 0)" stroke-linecap="butt" stroke-linejoin="round" stroke-opacity="1.0" stroke-width="3.0" />
            <path d=" M 779.734, 503.339 789.698, 504.192 790.483, 504.259 " fill="none" stroke="rgb(0, 0, 0)" stroke-linecap="butt" stroke-linejoin="round" stroke-opacity="1.0" stroke-width="3.0" />
            <path d=" M 824.879, 519.625 824.909, 509.625 824.909, 509.384 824.675, 499.387 824.614, 496.785 824.110, 486.798 823.982, 484.260 823.204, 474.291 823.012, 471.835 822.052, 462.786 821.707, 459.531 820.373, 449.620 820.070, 447.370 818.458, 437.501 818.110, 435.371 816.210, 425.553 815.824, 423.557 813.622, 413.802 813.206, 411.960 810.689, 402.282 810.254, 400.609 807.409, 391.022 806.967, 389.533 803.786, 380.052 803.351, 378.756 799.824, 369.398 799.410, 368.300 795.533, 359.082 795.155, 358.183 790.919, 349.125 790.592, 348.426 785.976, 339.556 785.720, 339.065 780.702, 330.416 780.541, 330.137 775.058, 321.674 769.280, 313.706 763.217, 306.255 756.881, 299.338 750.286, 292.972 743.439, 287.191 736.351, 282.037 729.033, 277.544 721.500, 273.744 719.172, 272.814 713.770, 270.657 705.861, 268.297 697.794, 266.670 689.586, 265.798 " fill="none" stroke="rgb(0, 0, 0)" stroke-linecap="butt" stroke-linejoin="round" stroke-opacity="1.0" stroke-width="3.0" />
            <path d=" M 657.171, 270.100 657.672, 270.288 663.955, 273.418 670.066, 277.243 675.992, 281.742 681.722, 286.883 687.247, 292.632 692.559, 298.947 697.653, 305.792 702.520, 313.151 707.149, 321.008 711.534, 329.340 715.668, 338.118 719.550, 347.310 723.095, 356.661 723.178, 356.880 726.402, 366.346 726.554, 366.794 729.470, 376.359 729.674, 377.030 732.290, 386.682 732.531, 387.573 734.857, 397.298 735.120, 398.401 737.167, 408.189 737.439, 409.491 739.219, 419.331 739.487, 420.815 741.014, 430.698 741.268, 432.346 742.555, 442.263 742.787, 444.055 743.842, 453.999 744.045, 455.917 744.870, 465.883 745.038, 467.917 745.635, 477.899 745.762, 480.035 746.133, 490.028 746.215, 492.248 746.365, 502.247 746.399, 504.536 746.357, 510.763 746.199, 511.981 745.984, 513.172 745.716, 514.323 745.396, 515.424 745.029, 516.461 744.617, 517.424 744.165, 518.303 743.678, 519.089 743.160, 519.774 742.617, 520.349 742.056, 520.810 741.481, 521.151 740.898, 521.369 740.315, 521.461 733.769, 521.810 " fill="none" stroke="rgb(0, 0, 0)" stroke-linecap="butt" stroke-linejoin="round" stroke-opacity="1.0" stroke-width="3.0" />
            <path d=" M 800.254, 536.080 801.001, 536.128 803.237, 536.272 812.821, 535.568 814.763, 535.426 822.558, 534.853 824.510, 534.710 824.516, 534.710 830.627, 534.375 830.918, 524.379 831.013, 521.112 831.046, 511.112 831.056, 507.876 830.827, 497.878 830.755, 494.691 830.261, 484.703 830.107, 481.579 829.345, 471.609 829.113, 468.566 828.078, 458.620 827.771, 455.675 826.459, 445.761 826.084, 442.929 824.486, 433.057 824.048, 430.354 822.159, 420.534 821.666, 417.975 819.477, 408.217 818.938, 405.816 816.441, 396.133 815.866, 393.904 814.093, 387.863 812.450, 382.266 809.305, 372.774 808.693, 370.928 807.328, 367.259 804.598, 359.917 800.759, 350.683 800.168, 349.260 795.962, 340.188 795.405, 338.988 790.820, 330.101 790.316, 329.126 785.336, 320.454 784.906, 319.704 781.673, 314.651 779.179, 310.753 775.728, 305.920 773.144, 302.302 766.898, 294.493 766.808, 294.380 760.181, 287.017 753.271, 280.244 746.090, 274.091 738.651, 268.586 730.968, 263.760 723.055, 259.643 714.930, 256.260 706.609, 253.640 698.112, 251.808 689.462, 250.791 680.679, 250.608 670.679, 250.549 661.813, 250.496 " fill="none" stroke="rgb(0, 0, 0)" stroke-linecap="butt" stroke-linejoin="round" stroke-opacity="1.0" stroke-width="3.0" />
            <path d=" M 680.679, 250.608 673.156, 251.178 671.788, 251.282 662.815, 252.831 661.184, 253.273 653.788, 255.272 644.734, 258.616 635.684, 262.874 631.903, 265.046 631.887, 265.056 626.670, 268.052 618.408, 273.687 617.724, 274.153 609.891, 280.370 608.879, 281.174 601.488, 287.910 600.171, 289.110 593.225, 296.304 591.634, 297.951 585.130, 305.547 583.305, 307.680 577.238, 315.629 575.218, 318.276 569.582, 326.536 567.412, 329.715 563.253, 336.517 562.749, 337.341 559.921, 341.966 559.845, 342.104 557.101, 347.108 555.530, 349.975 552.779, 354.991 549.822, 361.014 548.239, 364.236 546.022, 368.751 542.005, 377.908 539.684, 383.199 536.494, 391.369 533.794, 398.283 530.529, 407.735 528.382, 413.948 525.482, 423.518 523.478, 430.133 520.936, 439.805 519.105, 446.775 516.917, 456.532 515.286, 463.805 513.447, 473.634 512.041, 481.152 510.549, 491.040 509.386, 498.745 508.239, 508.679 507.835, 512.177 507.335, 516.507 506.532, 526.475 505.897, 534.363 505.439, 544.352 505.078, 552.234 " fill="none" stroke="rgb(0, 0, 0)" stroke-linecap="butt" stroke-linejoin="round" stroke-opacity="1.0" stroke-width="3.0" />
            <path d=" M 756.579, 517.604 756.580, 517.549 756.706, 514.724 756.656, 514.941 756.338, 516.047 755.972, 517.089 755.562, 518.057 755.434, 518.309 " fill="none" stroke="rgb(0, 0, 0)" stroke-linecap="butt" stroke-linejoin="round" stroke-opacity="1.0" stroke-width="3.0" />
            <path d=" M 806.611, 526.014 808.069, 525.920 808.583, 525.833 809.097, 525.637 809.607, 525.334 810.107, 524.928 810.594, 524.423 811.064, 523.826 811.514, 523.139 811.940, 522.371 812.338, 521.526 812.707, 520.612 813.043, 519.636 813.342, 518.604 813.483, 518.025 813.604, 517.526 813.825, 516.409 823.162, 519.125 824.879, 519.625 824.693, 520.302 824.360, 521.283 823.994, 522.202 823.598, 523.051 823.176, 523.823 823.004, 524.089 822.730, 524.513 822.264, 525.114 821.781, 525.621 821.285, 526.030 820.781, 526.335 820.272, 526.532 819.762, 526.620 813.620, 527.028 807.160, 527.458 806.688, 526.169 806.611, 526.014 806.129, 525.050 805.492, 524.119 804.787, 523.392 804.026, 522.882 803.222, 522.598 802.389, 522.545 799.580, 522.381 798.836, 522.337 790.513, 521.850 790.414, 521.871 789.657, 522.028 788.799, 522.436 788.466, 522.697 787.991, 523.069 787.249, 523.917 786.549, 524.965 785.905, 526.195 785.327, 527.586 784.826, 529.114 784.409, 530.754 784.086, 532.478 783.859, 534.255 783.735, 536.056 789.670, 536.440 789.901, 536.455 794.588, 536.759 795.658, 536.828 799.995, 536.510 800.222, 536.493 800.254, 536.080 800.266, 535.921 800.350, 535.361 800.465, 534.862 800.472, 534.829 800.628, 534.340 800.814, 533.907 801.026, 533.542 801.144, 533.394 801.256, 533.254 801.438, 533.103 801.499, 533.052 801.749, 532.941 801.998, 532.924 " fill="none" stroke="rgb(0, 0, 0)" stroke-linecap="butt" stroke-linejoin="round" stroke-opacity="1.0" stroke-width="3.0" />
            <path d=" M 773.045, 557.580 772.050, 567.530 771.956, 568.471 770.722, 578.394 770.424, 580.789 768.950, 590.680 768.601, 593.026 766.885, 602.878 766.488, 605.161 764.529, 614.967 764.088, 617.171 761.882, 626.924 761.405, 629.033 758.947, 638.726 758.440, 640.725 755.728, 650.350 755.199, 652.226 752.225, 661.774 751.684, 663.512 748.443, 672.972 747.899, 674.559 744.383, 683.921 743.849, 685.345 740.051, 694.596 739.538, 695.846 735.450, 704.972 734.973, 706.038 730.584, 715.023 730.158, 715.895 725.458, 724.722 725.100, 725.394 720.078, 734.042 719.806, 734.510 714.449, 742.954 714.282, 743.217 708.538, 751.488 702.581, 759.300 696.422, 766.625 690.071, 773.437 683.538, 779.710 676.835, 785.419 669.977, 790.536 662.975, 795.036 655.847, 798.894 648.606, 802.086 641.271, 804.586 633.859, 806.372 626.389, 807.423 618.883, 807.718 614.531, 807.440 " fill="none" stroke="rgb(0, 0, 0)" stroke-linecap="butt" stroke-linejoin="round" stroke-opacity="1.0" stroke-width="3.0" />
            <path d=" M 789.901, 536.455 789.464, 544.844 788.664, 554.811 788.214, 560.411 779.326, 555.829 777.857, 555.072 773.443, 552.797 765.507, 548.705 764.831, 548.356 764.154, 548.007 763.476, 547.657 762.798, 547.307 762.012, 546.765 761.279, 545.978 760.612, 544.962 760.027, 543.736 759.536, 542.322 759.146, 540.749 758.866, 539.045 758.702, 537.243 758.696, 537.023 758.656, 535.379 758.730, 533.488 758.922, 531.607 759.152, 530.232 759.164, 530.160 759.229, 529.773 759.644, 528.020 760.160, 526.383 760.766, 524.893 761.450, 523.579 762.199, 522.466 762.999, 521.574 763.833, 520.921 764.543, 520.476 765.253, 520.031 765.962, 519.587 766.669, 519.144 767.025, 518.921 775.505, 513.621 779.751, 510.967 788.230, 505.667 790.483, 504.259 790.493, 514.259 790.494, 515.720 790.457, 520.344 790.414, 521.871 " fill="none" stroke="rgb(0, 0, 0)" stroke-linecap="butt" stroke-linejoin="round" stroke-opacity="1.0" stroke-width="3.0" />
            <path d=" M 764.627, 537.413 764.316, 537.288 764.031, 537.020 763.785, 536.618 763.588, 536.103 763.450, 535.496 763.376, 534.824 763.370, 534.117 763.432, 533.405 763.559, 532.719 763.746, 532.090 763.984, 531.546 764.263, 531.110 764.571, 530.801 764.894, 530.632 765.217, 530.613 " fill="none" stroke="rgb(0, 0, 0)" stroke-linecap="butt" stroke-linejoin="round" stroke-opacity="1.0" stroke-width="3.0" />
            <path d=" M 765.217, 530.613 765.528, 530.741 765.812, 531.012 766.057, 531.413 766.253, 531.928 766.390, 532.532 766.463, 533.202 766.469, 533.907 766.407, 534.617 766.281, 535.300 766.095, 535.927 765.858, 536.471 765.580, 536.908 765.273, 537.219 764.951, 537.389 764.627, 537.413 " fill="none" stroke="rgb(0, 0, 0)" stroke-linecap="butt" stroke-linejoin="round" stroke-opacity="1.0" stroke-width="3.0" />
            <path d=" M 799.995, 536.510 799.530, 545.416 798.779, 555.388 798.541, 558.545 797.562, 568.497 797.253, 571.637 796.045, 581.563 795.667, 584.669 794.228, 594.565 793.783, 597.620 792.112, 607.479 791.606, 610.467 789.700, 620.284 789.135, 623.189 786.991, 632.957 786.375, 635.762 783.987, 645.473 783.326, 648.164 780.692, 657.811 779.993, 660.371 777.106, 669.945 776.378, 672.360 773.231, 681.852 772.484, 684.105 769.071, 693.505 768.315, 695.584 764.628, 704.880 763.877, 706.772 759.905, 715.949 759.173, 717.642 754.907, 726.686 754.208, 728.168 749.638, 737.062 748.989, 738.325 744.102, 747.049 743.522, 748.086 738.305, 756.617 737.813, 757.422 732.253, 765.734 731.869, 766.307 725.954, 774.370 725.701, 774.714 719.415, 782.491 719.317, 782.613 712.726, 789.975 705.940, 796.772 698.971, 802.976 691.832, 808.558 684.537, 813.488 677.100, 817.740 669.539, 821.286 661.871, 824.098 654.115, 826.149 646.290, 827.419 638.417, 827.881 630.521, 827.512 622.623, 826.295 614.748, 824.213 606.924, 821.248 599.176, 817.389 591.533, 812.629 584.023, 806.961 576.677, 800.383 569.769, 793.152 569.525, 792.896 563.155, 785.187 562.595, 784.510 556.754, 776.393 555.920, 775.234 550.593, 766.771 549.531, 765.084 549.038, 764.191 546.742, 760.031 545.263, 757.351 543.458, 754.081 540.653, 748.288 539.184, 745.254 537.731, 742.252 534.514, 734.666 532.378, 729.629 531.485, 727.214 528.017, 717.835 527.430, 716.245 524.378, 706.722 522.911, 702.146 520.259, 692.504 518.848, 687.377 516.580, 677.637 515.346, 672.340 515.265, 671.989 513.367, 662.171 512.182, 656.040 510.643, 646.159 509.620, 639.590 508.428, 629.662 507.593, 622.706 506.740, 612.743 506.116, 605.455 505.595, 595.469 505.201, 587.909 505.005, 577.911 504.853, 570.144 504.979, 560.144 505.078, 552.234 503.329, 542.389 501.738, 533.428 " fill="none" stroke="rgb(0, 0, 0)" stroke-linecap="butt" stroke-linejoin="round" stroke-opacity="1.0" stroke-width="3.0" />
            <path d=" M 661.813, 250.496 656.119, 250.941 653.760, 251.125 645.624, 252.629 637.430, 255.022 629.203, 258.318 620.970, 262.529 612.761, 267.664 604.734, 273.628 604.605, 273.724 597.043, 280.266 596.533, 280.707 589.439, 287.754 588.577, 288.610 581.946, 296.095 580.769, 297.423 574.591, 305.287 573.143, 307.130 567.405, 315.321 565.731, 317.711 561.026, 325.218 560.472, 326.102 558.568, 329.140 558.533, 329.203 555.733, 334.185 554.171, 336.965 551.687, 341.388 548.367, 347.973 546.797, 351.089 545.120, 354.416 541.002, 363.529 538.899, 368.183 535.153, 377.454 534.971, 377.906 533.057, 382.643 529.671, 392.052 527.622, 397.743 524.585, 407.271 522.623, 413.426 519.927, 423.056 518.085, 429.632 515.723, 439.349 514.034, 446.295 511.998, 456.086 510.489, 463.346 508.775, 473.198 507.469, 480.714 506.075, 490.616 504.991, 498.324 503.915, 508.266 503.449, 512.569 503.067, 516.101 502.302, 526.072 501.738, 533.428 499.610, 543.199 497.680, 552.066 " fill="none" stroke="rgb(0, 0, 0)" stroke-linecap="butt" stroke-linejoin="round" stroke-opacity="1.0" stroke-width="3.0" />
            <path d=" M 497.455, 570.554 497.656, 580.552 497.823, 588.891 498.351, 598.877 498.781, 606.998 499.642, 616.961 500.319, 624.796 501.521, 634.723 502.428, 642.209 503.980, 652.088 505.092, 659.166 507.004, 668.982 508.293, 675.599 510.579, 685.335 512.013, 691.444 512.670, 693.812 515.343, 703.448 516.229, 706.642 519.303, 716.158 520.913, 721.141 524.408, 730.510 526.041, 734.890 529.164, 742.188 531.585, 747.848 532.216, 749.138 536.607, 758.122 537.001, 758.927 537.514, 759.976 538.489, 761.725 543.227, 770.223 543.796, 771.245 544.722, 772.700 547.113, 776.458 550.402, 781.627 556.288, 789.712 557.299, 791.101 563.716, 798.771 564.455, 799.653 571.413, 806.836 571.837, 807.274 579.338, 813.887 579.414, 813.954 587.156, 819.695 595.030, 824.501 603.007, 828.377 611.060, 831.334 619.159, 833.386 627.279, 834.551 635.393, 834.846 643.478, 834.292 651.512, 832.914 659.472, 830.738 667.338, 827.786 675.092, 824.088 682.715, 819.672 690.192, 814.566 697.507, 808.799 704.647, 802.400 711.597, 795.400 718.251, 787.935 718.347, 787.827 724.620, 780.039 724.885, 779.710 730.790, 771.641 731.201, 771.080 736.753, 762.763 737.286, 761.964 742.498, 753.430 743.132, 752.391 748.016, 743.665 748.731, 742.389 753.301, 733.494 754.076, 731.985 758.342, 722.941 759.160, 721.207 763.134, 712.031 763.979, 710.081 767.670, 700.787 768.525, 698.632 771.943, 689.234 772.796, 686.888 775.948, 677.398 776.787, 674.873 779.679, 665.301 780.492, 662.611 783.132, 652.966 783.910, 650.127 786.303, 640.417 787.036, 637.444 789.187, 627.678 789.868, 624.587 791.780, 614.772 792.402, 611.578 794.079, 601.719 794.637, 598.440 796.081, 588.545 796.569, 585.197 797.782, 575.270 798.198, 571.869 799.180, 561.918 799.519, 558.481 800.273, 548.509 800.534, 545.054 801.001, 536.128 " fill="none" stroke="rgb(0, 0, 0)" stroke-linecap="butt" stroke-linejoin="round" stroke-opacity="1.0" stroke-width="3.0" />
            <path d=" M 497.680, 552.066 497.558, 562.065 497.455, 570.554 " fill="none" stroke="rgb(0, 0, 0)" stroke-linecap="butt" stroke-linejoin="round" stroke-opacity="1.0" stroke-width="3.0" />
            <path d=" M 814.093, 387.863 813.991, 387.343 811.839, 377.577 811.554, 376.287 809.165, 366.577 808.882, 365.426 806.247, 355.779 805.973, 354.774 803.085, 345.200 802.829, 344.350 799.676, 334.860 799.448, 334.173 796.020, 324.779 795.832, 324.263 792.117, 314.979 791.981, 314.639 787.969, 305.479 787.898, 305.317 783.586, 296.314 779.047, 287.648 774.285, 279.339 769.301, 271.406 764.100, 263.873 758.685, 256.761 753.060, 250.095 747.229, 243.895 741.201, 238.180 734.982, 232.967 728.578, 228.276 721.999, 224.129 715.253, 220.546 708.348, 217.552 701.296, 215.169 694.106, 213.421 686.793, 212.323 679.368, 211.889 671.846, 212.135 670.802, 212.265 664.242, 213.075 656.571, 214.723 648.850, 217.095 641.096, 220.204 633.330, 224.063 625.572, 228.683 617.840, 234.064 610.156, 240.205 602.746, 246.920 602.541, 247.105 596.659, 253.088 595.016, 254.760 591.422, 258.835 587.605, 263.164 581.796, 270.469 580.330, 272.312 574.489, 280.428 573.218, 282.193 567.750, 290.566 566.293, 292.798 561.188, 301.396 559.579, 304.104 557.273, 308.369 556.672, 309.480 556.347, 310.082 553.505, 315.337 553.099, 316.088 552.688, 316.921 551.987, 318.344 547.567, 327.315 546.874, 328.721 546.144, 330.347 544.653, 333.672 540.927, 341.973 537.149, 351.232 535.280, 355.813 532.942, 362.130 529.954, 370.204 526.784, 379.689 524.972, 385.111 522.098, 394.689 520.357, 400.493 517.772, 410.153 516.126, 416.305 513.823, 426.036 512.294, 432.496 510.266, 442.289 508.873, 449.017 507.119, 458.862 505.880, 465.815 504.397, 475.705 503.327, 482.839 502.113, 492.765 501.224, 500.032 500.277, 509.988 499.803, 514.974 499.578, 517.339 498.899, 527.316 498.395, 534.703 497.983, 544.694 497.680, 552.066 497.538, 562.065 497.434, 569.372 497.455, 570.554 497.581, 580.553 497.656, 586.563 498.060, 596.555 498.344, 603.585 499.026, 613.562 499.492, 620.383 500.458, 630.336 501.096, 636.903 502.352, 646.823 503.145, 653.094 504.697, 662.973 505.629, 668.909 507.483, 678.736 508.533, 684.302 510.700, 694.065 511.846, 699.229 511.880, 699.360 514.372, 709.044 515.556, 713.645 518.384, 723.237 519.645, 727.513 522.819, 736.996 524.093, 740.801 527.625, 750.156 527.761, 750.515 528.880, 753.478 530.723, 757.827 533.985, 765.519 535.378, 768.454 536.806, 771.460 539.389, 776.900 541.446, 780.773 542.884, 783.480 545.071, 787.597 545.214, 787.838 550.324, 796.434 551.011, 797.591 556.557, 805.912 557.190, 806.863 563.185, 814.867 563.586, 815.403 570.038, 823.043 570.174, 823.204 576.933, 830.266 583.840, 836.586 590.874, 842.167 598.015, 847.009 605.244, 851.116 612.542, 854.490 619.890, 857.138 626.170, 858.783 627.271, 859.072 634.666, 860.307 642.057, 860.861 649.429, 860.750 656.766, 859.990 664.054, 858.596 671.280, 856.584 678.431, 853.968 685.496, 850.765 692.462, 846.997 699.318, 842.687 706.055, 837.858 712.665, 832.528 719.137, 826.719 725.465, 820.449 731.640, 813.734 737.655, 806.592 743.505, 799.041 749.182, 791.104 754.682, 782.801 759.921, 774.283 760.002, 774.152 764.967, 765.472 765.135, 765.177 769.835, 756.350 770.079, 755.892 774.522, 746.933 774.830, 746.313 779.023, 737.235 779.382, 736.458 783.331, 727.271 783.732, 726.339 787.445, 717.054 787.876, 715.975 791.361, 706.602 791.814, 705.384 795.077, 695.932 795.543, 694.584 798.591, 685.059 799.061, 683.589 801.898, 674.000 802.367, 672.416 804.997, 662.768 805.458, 661.079 807.885, 651.378 808.331, 649.592 810.557, 639.843 810.985, 637.968 813.011, 628.176 813.416, 626.223 815.249, 616.392 815.625, 614.371 817.266, 604.507 817.612, 602.427 819.063, 592.533 819.375, 590.405 820.637, 580.485 820.912, 578.318 821.985, 568.376 822.221, 566.180 823.106, 556.219 823.303, 554.004 824.000, 544.028 824.155, 541.804 824.516, 534.710 " fill="none" stroke="rgb(0, 0, 0)" stroke-linecap="butt" stroke-linejoin="round" stroke-opacity="1.0" stroke-width="3.0" />
            <path d=" M 669.608, 212.304 661.994, 213.244 654.313, 214.892 646.582, 217.262 638.819, 220.369 631.043, 224.226 623.276, 228.842 615.535, 234.219 607.843, 240.355 600.425, 247.062 600.219, 247.248 594.360, 253.196 592.687, 254.895 586.065, 262.389 585.508, 263.020 585.267, 263.292 579.036, 271.113 577.986, 272.430 575.319, 276.129 570.867, 282.302 565.392, 290.670 563.936, 292.895 558.823, 301.489 557.216, 304.190 556.543, 305.433 555.927, 306.570 555.927, 306.570 553.046, 311.887 551.529, 314.687 550.730, 316.161 546.304, 325.128 545.615, 326.522 544.501, 328.780 544.102, 329.668 541.770, 334.855 538.549, 342.018 534.765, 351.274 532.898, 355.842 532.294, 357.471 528.818, 366.847 527.569, 370.218 524.394, 379.701 522.584, 385.108 519.706, 394.685 517.966, 400.472 515.378, 410.131 513.734, 416.266 511.427, 425.997 509.900, 432.439 507.869, 442.231 506.478, 448.941 504.722, 458.785 503.485, 465.720 502.000, 475.609 500.931, 482.724 499.716, 492.650 498.829, 499.898 497.882, 509.853 497.233, 516.670 497.185, 517.185 496.505, 527.162 496.003, 534.528 495.592, 544.520 495.290, 551.872 495.149, 561.871 495.046, 569.158 495.177, 579.157 495.272, 586.330 495.678, 596.322 495.963, 603.333 496.648, 613.309 497.115, 620.112 498.085, 630.065 498.723, 636.614 499.983, 646.534 500.777, 652.788 502.333, 662.666 503.266, 668.586 505.125, 678.412 506.176, 683.963 508.348, 693.724 509.495, 698.875 511.076, 705.003 513.211, 713.276 516.046, 722.866 517.306, 727.131 520.488, 736.611 521.761, 740.405 525.302, 749.758 526.556, 753.071 527.099, 754.349 530.086, 761.378 531.669, 765.102 534.802, 771.684 536.233, 774.691 537.081, 776.472 540.935, 783.712 542.376, 786.419 542.771, 787.160 544.759, 790.497 548.720, 797.146 554.273, 805.462 554.908, 806.412 560.910, 814.410 561.312, 814.946 567.772, 822.579 567.910, 822.742 574.678, 829.800 581.594, 836.117 588.638, 841.696 595.789, 846.536 603.027, 850.643 610.335, 854.018 617.694, 856.667 625.085, 858.602 " fill="none" stroke="rgb(0, 0, 0)" stroke-linecap="butt" stroke-linejoin="round" stroke-opacity="1.0" stroke-width="3.0" />
            <path d=" M 671.846, 212.135 669.608, 212.304 " fill="none" stroke="rgb(0, 0, 0)" stroke-linecap="butt" stroke-linejoin="round" stroke-opacity="1.0" stroke-width="3.0" />
            <path d=" M 625.085, 858.602 627.271, 859.072 " fill="none" stroke="rgb(0, 0, 0)" stroke-linecap="butt" stroke-linejoin="round" stroke-opacity="1.0" stroke-width="3.0" />
            <path d=" M 479.447, 551.566 479.310, 561.565 479.175, 571.392 479.314, 581.391 479.449, 591.080 479.867, 601.071 480.264, 610.564 480.966, 620.539 481.615, 629.777 482.605, 639.728 483.494, 648.657 484.778, 658.574 485.888, 667.142 487.474, 677.015 488.785, 685.173 490.681, 694.992 492.170, 702.697 494.385, 712.448 496.024, 719.661 498.569, 729.331 500.329, 736.017 503.216, 745.592 503.769, 747.427 505.064, 751.723 505.565, 753.184 508.805, 762.645 510.208, 766.738 512.064, 771.537 515.672, 780.864 515.735, 781.028 519.428, 789.515 519.902, 790.603 520.842, 792.764 521.623, 794.560 522.203, 795.747 522.778, 796.926 527.165, 805.912 527.749, 807.108 527.847, 807.309 529.184, 809.752 529.913, 811.085 531.315, 813.648 534.116, 818.767 534.380, 819.251 535.239, 820.651 535.559, 821.174 538.100, 825.318 541.198, 830.369 546.868, 838.606 548.273, 840.647 554.398, 848.551 555.580, 850.076 562.171, 857.597 563.093, 858.649 570.155, 865.729 570.787, 866.362 578.319, 872.940 578.636, 873.216 586.615, 879.214 594.701, 884.362 602.871, 888.668 611.102, 892.145 619.373, 894.804 623.709, 895.810 631.977, 897.662 640.244, 898.728 648.493, 899.026 656.704, 898.576 664.863, 897.398 672.953, 895.515 680.960, 892.947 688.870, 889.719 696.669, 885.852 704.348, 881.372 711.894, 876.300 719.297, 870.662 726.548, 864.479 733.638, 857.776 740.560, 850.576 747.161, 843.065 747.305, 842.901 753.588, 835.122 753.869, 834.775 759.843, 826.755 760.243, 826.218 765.919, 817.984 766.424, 817.252 771.812, 808.828 772.406, 807.899 777.516, 799.304 778.184, 798.180 783.027, 789.431 783.755, 788.114 788.338, 779.227 789.114, 777.722 793.448, 768.710 794.259, 767.022 798.350, 757.897 799.186, 756.034 803.042, 746.807 803.892, 744.775 807.521, 735.456 808.375, 733.263 811.783, 723.862 812.633, 721.516 815.825, 712.039 816.664, 709.551 819.646, 700.006 820.465, 697.383 823.242, 687.777 824.036, 685.030 826.611, 675.368 827.373, 672.507 829.751, 662.794 830.477, 659.829 832.661, 650.070 833.346, 647.012 835.338, 637.212 835.978, 634.069 837.781, 624.233 838.371, 621.017 839.989, 611.148 840.526, 607.868 841.958, 597.971 842.441, 594.638 843.689, 584.716 844.114, 581.340 845.180, 571.397 845.545, 567.989 846.429, 558.028 846.733, 554.597 847.434, 544.622 847.676, 541.179 848.195, 531.193 848.374, 527.749 848.710, 517.755 848.825, 514.320 848.977, 504.322 849.029, 500.907 848.996, 490.907 848.985, 487.522 848.764, 477.525 848.691, 474.181 848.281, 464.189 848.146, 460.897 847.545, 450.915 847.351, 447.686 846.555, 437.717 846.303, 434.561 845.309, 424.610 845.002, 421.537 843.806, 411.609 843.447, 408.631 842.044, 398.729 841.637, 395.856 840.023, 385.988 839.572, 383.231 837.740, 373.400 837.250, 370.770 835.196, 360.983 834.672, 358.490 832.387, 348.755 831.837, 346.410 829.315, 336.733 828.745, 334.546 825.977, 324.937 825.395, 322.917 822.372, 313.385 821.788, 311.541 818.501, 302.097 817.924, 300.438 814.362, 291.094 813.803, 289.628 809.956, 280.397 809.428, 279.130 805.282, 270.029 804.798, 268.966 800.342, 260.014 799.915, 259.157 795.135, 250.374 794.782, 249.726 789.664, 241.135 789.401, 240.694 783.930, 232.323 783.774, 232.085 777.906, 223.922 771.799, 216.230 765.460, 209.032 758.892, 202.353 752.104, 196.219 745.100, 190.654 737.889, 185.684 730.480, 181.333 722.882, 177.628 715.105, 174.592 707.162, 172.250 699.064, 170.626 690.826, 169.744 682.463, 169.625 673.990, 170.289 669.540, 170.706 660.953, 172.175 652.292, 174.465 643.578, 177.591 634.831, 181.568 626.074, 186.408 617.701, 191.875 617.329, 192.118 609.355, 198.152 608.621, 198.707 601.055, 205.245 599.975, 206.177 592.819, 213.162 591.417, 214.529 584.668, 221.908 582.974, 223.759 576.625, 231.484 574.674, 233.859 568.716, 241.891 566.543, 244.819 564.899, 247.266 559.322, 255.567 558.612, 256.624 553.404, 265.161 550.907, 269.253 550.669, 269.682 547.763, 274.923 547.710, 275.018 547.588, 275.239 546.979, 276.337 546.114, 277.896 543.459, 282.685 543.138, 283.320 542.968, 283.656 541.686, 286.199 539.771, 289.996 538.301, 292.911 536.294, 296.889 532.511, 305.140 531.078, 308.266 529.442, 311.834 525.966, 320.186 522.930, 327.483 519.404, 336.840 517.832, 341.011 516.784, 343.794 513.565, 353.262 511.029, 360.724 508.110, 370.288 505.690, 378.221 503.065, 387.871 500.789, 396.234 498.452, 405.957 496.348, 414.706 494.293, 424.492 493.588, 427.853 492.386, 433.577 491.720, 437.266 489.944, 447.107 488.919, 452.785 487.418, 462.672 485.962, 472.266 484.735, 482.190 483.528, 491.953 482.573, 501.907 482.046, 507.408 481.627, 511.777 481.037, 520.395 480.963, 521.464 480.280, 531.441 480.265, 531.672 479.854, 541.663 479.602, 547.778 479.447, 551.566 " fill="none" stroke="rgb(0, 0, 0)" stroke-linecap="butt" stroke-linejoin="round" stroke-opacity="1.0" stroke-width="3.0" />
            <path d=" M 673.990, 170.289 665.426, 171.758 656.787, 174.049 648.095, 177.178 639.370, 181.159 630.633, 186.005 622.270, 191.487 621.908, 191.724 613.945, 197.773 613.220, 198.324 605.665, 204.876 604.592, 205.807 597.449, 212.805 596.052, 214.173 589.317, 221.564 587.626, 223.420 581.292, 231.157 579.342, 233.539 573.398, 241.582 571.226, 244.521 568.499, 248.596 568.471, 248.637 568.428, 248.702 563.309, 256.349 558.115, 264.895 555.618, 269.005 551.677, 276.137 549.476, 280.121 548.719, 281.490 548.642, 281.630 548.181, 282.464 547.170, 284.477 542.680, 293.412 541.028, 296.699 540.990, 296.783 539.548, 299.939 535.393, 309.034 534.186, 311.676 532.669, 315.334 528.839, 324.571 527.682, 327.360 527.450, 327.978 523.935, 337.340 521.544, 343.708 518.335, 353.179 515.796, 360.675 512.886, 370.242 510.462, 378.212 507.845, 387.863 505.566, 396.266 503.235, 405.991 501.128, 414.780 499.079, 424.568 497.168, 433.695 496.538, 437.191 496.520, 437.293 494.748, 447.135 493.702, 452.947 493.253, 455.910 492.974, 457.749 491.477, 467.636 490.745, 472.473 490.448, 474.872 489.224, 484.797 488.309, 492.205 487.355, 502.160 486.855, 507.383 486.681, 509.193 486.532, 510.754 486.405, 512.076 486.091, 516.660 485.910, 519.299 485.756, 521.550 485.073, 531.527 485.039, 532.016 484.627, 542.008 484.397, 547.589 484.217, 551.956 484.077, 561.955 483.939, 571.827 484.075, 581.826 484.206, 591.560 484.619, 601.551 485.014, 611.087 485.709, 621.063 486.126, 627.045 486.356, 630.343 487.339, 640.295 487.716, 644.117 488.225, 649.264 489.501, 659.183 490.608, 667.789 492.185, 677.664 493.494, 685.859 495.380, 695.680 496.866, 703.419 499.070, 713.173 500.707, 720.418 503.240, 730.092 504.998, 736.807 505.492, 738.455 508.365, 748.033 509.718, 752.543 511.285, 757.142 514.511, 766.607 514.845, 767.587 518.438, 776.919 520.357, 781.902 521.331, 784.153 524.201, 790.780 526.227, 795.459 529.037, 801.240 530.420, 804.086 532.433, 808.229 535.258, 813.416 536.660, 815.989 538.948, 820.190 539.118, 820.469 544.329, 829.004 545.746, 831.325 551.400, 839.573 552.802, 841.618 558.912, 849.534 560.089, 851.059 566.665, 858.592 567.582, 859.641 574.630, 866.735 575.254, 867.363 582.775, 873.953 583.082, 874.222 591.040, 880.224 599.104, 885.373 607.252, 889.680 615.461, 893.154 623.709, 895.810 " fill="none" stroke="rgb(0, 0, 0)" stroke-linecap="butt" stroke-linejoin="round" stroke-opacity="1.0" stroke-width="3.0" />
            <path d=" M 734.271, 523.047 733.769, 521.810 733.763, 521.795 733.165, 520.707 732.487, 519.800 731.740, 519.092 730.937, 518.594 730.090, 518.314 729.214, 518.259 719.231, 517.674 718.052, 517.605 717.155, 517.775 716.260, 518.166 715.414, 518.776 714.635, 519.595 713.903, 520.607 713.230, 521.797 713.177, 521.917 712.629, 523.143 712.109, 524.622 711.680, 526.211 711.349, 527.880 711.121, 529.603 711.002, 531.349 720.981, 531.995 722.204, 532.074 727.032, 531.775 727.063, 531.375 727.075, 531.220 727.160, 530.678 727.235, 530.371 727.286, 530.163 727.448, 529.690 727.642, 529.271 727.863, 528.918 728.105, 528.640 728.361, 528.445 728.625, 528.339 728.888, 528.324 " fill="none" stroke="rgb(0, 0, 0)" stroke-linecap="butt" stroke-linejoin="round" stroke-opacity="1.0" stroke-width="3.0" />
            <path d=" M 729.214, 518.259 728.323, 518.430 727.433, 518.824 726.593, 519.437 725.819, 520.261 725.092, 521.279 724.520, 522.302 724.436, 522.452 724.424, 522.474 724.228, 522.916 723.826, 523.827 723.309, 525.314 722.881, 526.910 722.680, 527.933 722.551, 528.589 722.324, 530.320 722.273, 531.067 722.204, 532.074 " fill="none" stroke="rgb(0, 0, 0)" stroke-linecap="butt" stroke-linejoin="round" stroke-opacity="1.0" stroke-width="3.0" />
            <path d=" M 728.888, 528.324 729.144, 528.400 729.386, 528.565 729.608, 528.815 729.802, 529.143 729.965, 529.540 730.091, 529.995 730.177, 530.495 730.221, 531.028 730.222, 531.578 " fill="none" stroke="rgb(0, 0, 0)" stroke-linecap="butt" stroke-linejoin="round" stroke-opacity="1.0" stroke-width="3.0" />
            <path d=" M 734.271, 523.047 744.257, 522.501 750.393, 522.165 " fill="none" stroke="rgb(0, 0, 0)" stroke-linecap="butt" stroke-linejoin="round" stroke-opacity="1.0" stroke-width="3.0" />
            <path d=" M 727.063, 531.375 730.222, 531.578 740.203, 530.961 747.420, 530.514 " fill="none" stroke="rgb(0, 0, 0)" stroke-linecap="butt" stroke-linejoin="round" stroke-opacity="1.0" stroke-width="3.0" />
            <path d=" M 802.389, 522.545 801.539, 522.725 800.688, 523.136 799.887, 523.772 799.153, 524.622 799.150, 524.625 798.457, 525.679 797.996, 526.570 797.829, 526.893 797.818, 526.915 797.244, 528.314 796.746, 529.850 796.331, 531.499 796.136, 532.550 796.135, 532.555 796.102, 532.732 796.009, 533.232 795.783, 535.018 795.730, 535.789 795.658, 536.828 " fill="none" stroke="rgb(0, 0, 0)" stroke-linecap="butt" stroke-linejoin="round" stroke-opacity="1.0" stroke-width="3.0" />
            <path d=" M 801.998, 532.924 802.239, 533.001 802.467, 533.170 802.471, 533.175 802.674, 533.427 802.856, 533.764 803.007, 534.172 803.123, 534.640 803.201, 535.156 803.240, 535.705 803.237, 536.272 " fill="none" stroke="rgb(0, 0, 0)" stroke-linecap="butt" stroke-linejoin="round" stroke-opacity="1.0" stroke-width="3.0" />
            <path d=" M 784.129, 490.336 784.291, 490.330 784.508, 490.363 784.715, 490.442 784.905, 490.563 785.069, 490.722 785.203, 490.913 785.301, 491.131 785.360, 491.370 785.374, 491.626 785.343, 491.865 785.271, 492.093 785.160, 492.301 785.015, 492.482 784.841, 492.629 784.642, 492.737 784.424, 492.802 784.191, 492.817 784.031, 492.797 " fill="none" stroke="rgb(0, 0, 0)" stroke-linecap="butt" stroke-linejoin="round" stroke-opacity="1.0" stroke-width="3.0" />
            <path d=" M 784.129, 490.336 784.055, 490.344 784.048, 490.345 783.812, 490.406 783.592, 490.510 783.396, 490.655 783.232, 490.834 783.105, 491.043 783.020, 491.276 782.983, 491.530 782.997, 491.770 783.058, 492.003 783.163, 492.220 783.308, 492.413 783.488, 492.574 783.699, 492.699 783.704, 492.702 783.938, 492.783 783.950, 492.785 784.004, 492.792 784.022, 492.795 784.191, 492.817 " fill="none" stroke="rgb(0, 0, 0)" stroke-linecap="butt" stroke-linejoin="round" stroke-opacity="1.0" stroke-width="3.0" />
            <path d=" M 781.539, 488.338 781.291, 494.549 784.769, 494.713 786.949, 494.817 787.607, 494.643 787.345, 488.589 784.559, 488.456 781.966, 488.333 781.539, 488.338 " fill="none" stroke="rgb(0, 0, 0)" stroke-linecap="butt" stroke-linejoin="round" stroke-opacity="1.0" stroke-width="3.0" />
            <path d=" M 786.949, 494.817 787.199, 488.591 " fill="none" stroke="rgb(0, 0, 0)" stroke-linecap="butt" stroke-linejoin="round" stroke-opacity="1.0" stroke-width="3.0" />
            <path d=" M 787.345, 488.589 787.199, 488.591 781.539, 488.338 " fill="none" stroke="rgb(0, 0, 0)" stroke-linecap="butt" stroke-linejoin="round" stroke-opacity="1.0" stroke-width="3.0" />
            <path d=" M 713.177, 521.917 704.926, 521.162 694.969, 520.241 693.451, 520.100 683.494, 519.173 681.976, 519.031 672.019, 518.102 670.497, 517.960 660.540, 517.033 659.008, 516.891 649.050, 515.971 647.505, 515.828 637.546, 514.920 635.982, 514.777 626.022, 513.883 624.436, 513.741 614.474, 512.866 612.861, 512.725 602.898, 511.873 601.253, 511.732 591.287, 510.907 589.607, 510.768 579.639, 509.973 577.919, 509.835 577.825, 499.836 577.782, 495.379 577.569, 485.381 577.475, 480.996 577.142, 471.002 576.999, 466.706 576.542, 456.716 576.351, 452.528 575.768, 442.545 575.531, 438.483 574.819, 428.508 574.539, 424.591 573.693, 414.627 573.374, 410.875 572.389, 400.924 572.036, 397.356 570.905, 387.420 570.522, 384.058 569.239, 374.141 568.834, 371.004 567.391, 361.109 566.970, 358.220 566.465, 355.125 " fill="none" stroke="rgb(0, 0, 0)" stroke-linecap="butt" stroke-linejoin="round" stroke-opacity="1.0" stroke-width="3.0" />
            <path d=" M 531.721, 229.302 530.061, 228.020 523.258, 222.766 522.908, 222.495 520.303, 220.254 513.747, 214.614 " fill="none" stroke="rgb(0, 0, 0)" stroke-linecap="butt" stroke-linejoin="round" stroke-opacity="1.0" stroke-width="3.0" />
            <path d=" M 553.743, 242.563 546.486, 238.738 544.948, 237.801 540.505, 235.093 539.616, 234.551 537.305, 233.142 536.909, 232.901 532.519, 229.856 531.721, 229.302 530.100, 228.178 527.491, 226.369 " fill="none" stroke="rgb(0, 0, 0)" stroke-linecap="butt" stroke-linejoin="round" stroke-opacity="1.0" stroke-width="3.0" />
            <path d=" M 564.899, 247.266 560.967, 245.814 553.743, 242.563 551.152, 241.397 " fill="none" stroke="rgb(0, 0, 0)" stroke-linecap="butt" stroke-linejoin="round" stroke-opacity="1.0" stroke-width="3.0" />
            <path d=" M 513.747, 214.614 509.087, 211.221 508.273, 210.795 505.520, 209.352 504.303, 208.715 499.406, 207.135 494.406, 206.520 489.316, 206.906 484.149, 208.326 478.920, 210.814 478.401, 211.167 476.398, 212.529 473.645, 214.400 470.409, 217.273 468.342, 219.108 463.028, 224.959 459.672, 229.397 457.725, 231.971 455.743, 235.048 452.453, 240.158 450.749, 243.214 447.234, 249.521 442.848, 258.508 442.091, 260.059 438.137, 269.244 437.051, 271.767 433.480, 281.108 432.135, 284.629 428.910, 294.094 427.370, 298.617 424.459, 308.184 422.781, 313.701 420.158, 323.351 418.394, 329.840 416.036, 339.558 414.234, 346.983 412.122, 356.758 410.325, 365.071 408.444, 374.892 406.693, 384.035 405.029, 393.896 403.358, 403.801 401.902, 413.694 400.446, 423.588 400.343, 424.284 399.085, 434.204 397.827, 444.125 397.667, 445.391 396.601, 455.334 395.535, 465.277 395.347, 467.025 394.467, 476.987 393.588, 486.948 393.399, 489.083 392.702, 499.059 392.005, 509.035 391.835, 511.455 391.318, 521.441 390.800, 531.428 390.665, 534.027 390.327, 544.022 389.988, 554.016 389.898, 556.688 389.738, 566.687 389.577, 576.685 389.535, 579.321 389.555, 589.321 389.574, 599.321 389.579, 601.812 389.781, 611.810 389.983, 621.808 390.028, 624.047 390.058, 624.011 395.517, 617.631 397.223, 615.733 401.110, 611.408 406.809, 605.370 412.614, 599.512 418.526, 593.826 424.547, 588.308 430.676, 582.951 436.915, 577.749 443.266, 572.697 449.730, 567.790 456.307, 563.022 463.000, 558.389 469.810, 553.886 476.738, 549.508 479.602, 547.778 " fill="none" stroke="rgb(0, 0, 0)" stroke-linecap="butt" stroke-linejoin="round" stroke-opacity="1.0" stroke-width="3.0" />
            <path d=" M 360.020, 614.467 355.968, 623.610 354.016, 628.015 " fill="none" stroke="rgb(0, 0, 0)" stroke-linecap="butt" stroke-linejoin="round" stroke-opacity="1.0" stroke-width="3.0" />
            <path d=" M 478.401, 211.167 468.402, 211.263 467.436, 211.272 " fill="none" stroke="rgb(0, 0, 0)" stroke-linecap="butt" stroke-linejoin="round" stroke-opacity="1.0" stroke-width="3.0" />
            <path d=" M 784.004, 492.792 784.031, 492.797 " fill="none" stroke="rgb(0, 0, 0)" stroke-linecap="butt" stroke-linejoin="round" stroke-opacity="1.0" stroke-width="3.0" />
        </g>
    </g>
</svg>
