<?xml version='1.0' encoding='ascii'?>
<svg xmlns="http://www.w3.org/2000/svg" height="1080" version="1.1" width="1080">
    <g id="View Layer_LineSet" inkscape:groupmode="lineset" inkscape:label="View Layer_LineSet" xmlns:inkscape="http://www.inkscape.org/namespaces/inkscape">
        <g id="strokes" inkscape:groupmode="layer" inkscape:label="strokes" xmlns:inkscape="http://www.inkscape.org/namespaces/inkscape">
            <path d=" M 565.102, 501.059 565.054, 502.204 564.987, 503.326 564.901, 504.414 564.797, 505.457 564.699, 506.257 564.677, 506.444 564.540, 507.366 564.389, 508.213 564.294, 508.655 " fill="none" stroke="rgb(0, 0, 0)" stroke-linecap="butt" stroke-linejoin="round" stroke-opacity="1.0" stroke-width="3.0" />
            <path d=" M 352.990, 565.316 359.351, 566.361 " fill="none" stroke="rgb(0, 0, 0)" stroke-linecap="butt" stroke-linejoin="round" stroke-opacity="1.0" stroke-width="3.0" />
            <path d=" M 377.278, 566.794 387.266, 566.292 389.307, 566.189 " fill="none" stroke="rgb(0, 0, 0)" stroke-linecap="butt" stroke-linejoin="round" stroke-opacity="1.0" stroke-width="3.0" />
            <path d=" M 389.307, 566.189 385.248, 557.050 381.189, 547.911 380.130, 545.526 " fill="none" stroke="rgb(0, 0, 0)" stroke-linecap="butt" stroke-linejoin="round" stroke-opacity="1.0" stroke-width="3.0" />
            <path d=" M 465.268, 188.118 460.740, 189.288 456.160, 191.557 451.541, 194.954 446.900, 199.509 442.254, 205.248 441.193, 206.836 439.595, 209.230 437.620, 212.189 433.018, 220.344 428.653, 229.341 428.468, 229.723 424.578, 238.935 423.991, 240.326 420.515, 249.702 419.610, 252.144 416.497, 261.647 415.346, 265.161 412.557, 274.764 411.223, 279.355 408.724, 289.038 407.265, 294.691 405.028, 304.438 403.494, 311.125 401.497, 320.924 399.932, 328.604 398.158, 338.445 396.604, 347.068 395.037, 356.944 393.530, 366.442 392.157, 376.347 390.783, 386.253 390.729, 386.645 389.540, 396.574 388.352, 406.503 388.222, 407.589 387.210, 417.537 386.197, 427.486 386.025, 429.175 385.182, 439.139 384.339, 449.104 384.153, 451.298 383.475, 461.275 382.796, 471.252 382.619, 473.848 382.101, 483.834 381.583, 493.821 381.434, 496.709 381.074, 506.703 380.714, 516.696 380.604, 519.763 380.401, 529.761 380.198, 539.759 380.135, 542.889 380.130, 545.526 378.801, 555.438 377.472, 565.349 377.278, 566.794 " fill="none" stroke="rgb(0, 0, 0)" stroke-linecap="butt" stroke-linejoin="round" stroke-opacity="1.0" stroke-width="3.0" />
            <path d=" M 566.928, 520.989 567.131, 520.993 567.995, 521.008 574.844, 518.646 577.935, 517.852 577.977, 507.852 577.997, 503.046 577.921, 493.046 577.885, 488.278 577.689, 478.279 577.597, 473.567 577.281, 463.572 577.134, 458.934 576.694, 448.943 576.494, 444.400 575.929, 434.416 575.678, 429.985 574.983, 420.010 574.684, 415.712 573.855, 405.747 573.511, 401.604 572.545, 391.650 572.159, 387.682 571.049, 377.744 570.628, 373.971 570.140, 370.124 " fill="none" stroke="rgb(0, 0, 0)" stroke-linecap="butt" stroke-linejoin="round" stroke-opacity="1.0" stroke-width="3.0" />
            <path d=" M 567.071, 375.505 567.768, 380.933 568.890, 390.870 569.247, 394.028 570.224, 403.980 570.553, 407.333 571.391, 417.297 571.687, 420.824 572.390, 430.800 572.649, 434.480 573.221, 444.464 573.440, 448.277 573.885, 458.267 574.060, 462.194 574.381, 472.189 574.510, 476.210 574.709, 486.208 574.790, 490.304 574.869, 500.304 574.901, 504.456 574.897, 505.552 574.818, 506.276 574.730, 506.968 574.635, 507.623 574.531, 508.238 574.421, 508.810 574.305, 509.336 574.182, 509.812 574.055, 510.236 573.924, 510.606 573.789, 510.920 573.651, 511.176 573.511, 511.373 573.370, 511.510 573.228, 511.586 569.183, 512.861 569.006, 511.730 568.802, 510.755 568.576, 509.953 568.331, 509.339 568.070, 508.923 567.799, 508.712 567.268, 508.703 565.102, 508.668 564.692, 508.662 564.294, 508.655 563.752, 508.647 562.904, 508.633 559.331, 508.575 557.546, 508.546 557.418, 508.544 557.415, 508.544 557.130, 508.543 556.840, 508.752 556.553, 509.168 556.275, 509.785 556.010, 510.593 555.762, 511.579 555.556, 512.624 555.536, 512.726 555.336, 514.015 555.165, 515.423 555.026, 516.928 555.008, 517.198 554.951, 518.069 554.922, 518.504 554.854, 520.122 554.824, 521.755 555.458, 521.767 557.305, 521.800 557.412, 521.802 559.197, 521.833 562.767, 521.897 563.606, 521.912 564.554, 521.929 565.291, 521.942 566.920, 521.380 566.928, 520.989 566.931, 520.862 566.956, 520.354 566.996, 519.869 567.047, 519.420 567.110, 519.020 567.156, 518.807 567.183, 518.679 567.263, 518.407 567.348, 518.212 567.436, 518.097 567.525, 518.068 " fill="none" stroke="rgb(0, 0, 0)" stroke-linecap="butt" stroke-linejoin="round" stroke-opacity="1.0" stroke-width="3.0" />
            <path d=" M 464.498, 864.292 460.420, 863.584 459.772, 863.311 456.330, 861.865 452.240, 859.104 451.067, 858.002 448.166, 855.278 444.123, 850.364 440.126, 844.342 436.194, 837.198 432.344, 828.927 428.638, 819.638 428.593, 819.526 425.332, 810.072 424.961, 808.997 422.087, 799.419 421.468, 797.354 418.933, 787.680 418.131, 784.616 415.899, 774.869 414.970, 770.811 413.010, 761.005 412.004, 755.970 410.291, 746.118 409.252, 740.140 407.764, 730.251 406.730, 723.373 405.452, 713.455 404.457, 705.728 403.374, 695.787 402.448, 687.274 401.549, 677.314 400.716, 668.087 399.992, 658.114 399.275, 648.253 398.718, 638.268 398.160, 628.284 398.137, 627.859 397.740, 617.867 397.343, 607.875 397.309, 607.004 397.069, 597.007 396.828, 587.010 396.799, 585.788 396.711, 575.789 396.624, 565.789 396.611, 564.318 396.612, 564.163 " fill="none" stroke="rgb(0, 0, 0)" stroke-linecap="butt" stroke-linejoin="round" stroke-opacity="1.0" stroke-width="3.0" />
            <path d=" M 385.246, 262.736 384.590, 264.994 382.093, 274.677 380.966, 279.049 378.732, 288.797 377.483, 294.250 375.484, 304.048 374.158, 310.553 372.375, 320.392 371.012, 327.910 369.427, 337.783 368.066, 346.262 366.664, 356.163 365.337, 365.540 364.107, 375.464 362.876, 385.388 362.842, 385.664 361.775, 395.607 360.707, 405.550 360.600, 406.550 359.687, 416.508 358.774, 426.466 358.624, 428.102 357.860, 438.073 357.095, 448.044 356.928, 450.218 356.308, 460.199 355.687, 470.179 355.525, 472.789 355.044, 482.778 354.564, 492.766 354.423, 495.704 354.081, 505.698 353.738, 515.692 353.630, 518.843 353.424, 528.841 353.218, 538.839 353.152, 542.088 353.082, 552.088 353.012, 562.087 352.990, 565.316 353.103, 575.316 353.217, 585.315 353.251, 588.294 353.526, 598.291 353.802, 608.287 353.877, 610.991 354.318, 620.981 354.759, 630.971 354.862, 633.290 355.474, 643.271 356.087, 653.252 356.199, 655.079 356.989, 665.048 357.779, 675.017 357.877, 676.253 358.854, 686.205 359.830, 696.157 359.885, 696.712 361.058, 706.643 362.207, 716.367 363.591, 726.271 364.829, 735.133 366.439, 745.002 367.733, 752.936 369.589, 762.763 370.901, 769.715 373.024, 779.487 374.312, 785.412 374.438, 785.918 " fill="none" stroke="rgb(0, 0, 0)" stroke-linecap="butt" stroke-linejoin="round" stroke-opacity="1.0" stroke-width="3.0" />
            <path d=" M 523.085, 537.527 522.917, 545.476 522.597, 555.471 522.465, 559.623 522.038, 569.614 521.862, 573.736 521.326, 583.721 521.108, 587.794 520.462, 597.773 520.203, 601.779 519.446, 611.750 519.148, 615.671 518.278, 625.633 517.944, 629.449 517.682, 632.088 " fill="none" stroke="rgb(0, 0, 0)" stroke-linecap="butt" stroke-linejoin="round" stroke-opacity="1.0" stroke-width="3.0" />
            <path d=" M 499.861, 747.195 497.769, 756.119 495.296, 765.808 494.958, 767.135 492.277, 776.769 492.007, 777.741 489.101, 787.309 488.920, 787.906 485.767, 797.396 485.699, 797.599 482.348, 806.784 478.869, 815.429 475.267, 823.501 471.546, 830.961 467.712, 837.772 463.771, 843.899 459.729, 849.303 455.593, 853.946 451.372, 857.788 451.067, 858.002 " fill="none" stroke="rgb(0, 0, 0)" stroke-linecap="butt" stroke-linejoin="round" stroke-opacity="1.0" stroke-width="3.0" />
            <path d=" M 389.328, 560.954 389.307, 566.189 389.403, 576.189 389.499, 586.188 389.527, 589.110 389.787, 599.107 390.047, 609.104 390.116, 611.752 390.543, 621.743 390.970, 631.733 391.066, 633.998 391.665, 643.980 392.264, 653.962 392.370, 655.738 393.147, 665.708 393.924, 675.678 394.016, 676.867 394.978, 686.820 395.940, 696.774 395.990, 697.286 397.146, 707.219 398.274, 716.905 399.637, 726.812 400.852, 735.641 402.436, 745.515 403.703, 753.420 405.524, 763.253 406.807, 770.179 408.886, 779.961 410.140, 785.863 412.504, 795.580 413.682, 800.424 416.361, 810.059 417.409, 813.828 420.441, 823.357 421.298, 826.049 424.731, 835.441 425.326, 837.067 429.220, 846.277 429.471, 846.870 433.711, 855.460 438.026, 862.840 438.839, 863.991 439.121, 864.390 442.395, 869.020 446.799, 874.018 451.221, 877.857 455.643, 880.564 460.050, 882.166 464.428, 882.699 468.762, 882.201 473.041, 880.709 477.254, 878.260 481.390, 874.898 482.709, 873.520 485.440, 870.665 489.398, 865.600 493.255, 859.745 497.004, 853.145 500.642, 845.838 504.162, 837.864 507.562, 829.262 509.909, 822.674 510.836, 820.074 513.911, 810.558 513.983, 810.333 516.805, 800.740 517.000, 800.076 517.596, 797.858 " fill="none" stroke="rgb(0, 0, 0)" stroke-linecap="butt" stroke-linejoin="round" stroke-opacity="1.0" stroke-width="3.0" />
            <path d=" M 514.146, 789.644 511.716, 797.630 508.656, 806.795 505.482, 815.420 502.196, 823.473 498.804, 830.916 495.311, 837.711 491.721, 843.823 488.040, 849.215 484.276, 853.847 480.437, 857.681 476.529, 860.680 472.563, 862.806 468.549, 864.022 464.498, 864.292 " fill="none" stroke="rgb(0, 0, 0)" stroke-linecap="butt" stroke-linejoin="round" stroke-opacity="1.0" stroke-width="3.0" />
            <path d=" M 554.951, 518.069 548.962, 517.896 548.118, 517.871 546.393, 517.821 546.281, 527.820 546.235, 531.946 546.026, 541.944 545.940, 546.076 545.633, 556.071 545.507, 560.190 545.102, 570.182 544.936, 574.270 544.432, 584.257 544.228, 588.296 543.624, 598.278 543.384, 602.249 542.678, 612.224 542.403, 616.109 541.594, 626.077 541.286, 629.856 540.370, 639.814 540.034, 643.469 539.008, 653.416 538.646, 656.927 537.508, 666.862 537.124, 670.208 535.868, 680.129 535.467, 683.290 534.088, 693.194 533.677, 696.149 532.170, 706.035 531.754, 708.763 531.651, 709.380 " fill="none" stroke="rgb(0, 0, 0)" stroke-linecap="butt" stroke-linejoin="round" stroke-opacity="1.0" stroke-width="3.0" />
            <path d=" M 534.163, 717.811 534.355, 716.610 535.800, 706.715 536.288, 703.376 537.608, 693.464 538.083, 689.896 539.284, 679.969 539.740, 676.194 540.828, 666.253 541.261, 662.293 542.239, 652.341 542.644, 648.215 543.517, 638.254 543.891, 633.984 544.662, 624.014 545.001, 619.620 545.673, 609.642 545.975, 605.143 546.550, 595.159 546.813, 590.573 547.293, 580.585 547.516, 575.932 547.901, 565.939 548.083, 561.237 548.375, 551.241 548.514, 546.508 548.715, 536.510 548.810, 531.765 548.920, 521.766 548.962, 517.896 " fill="none" stroke="rgb(0, 0, 0)" stroke-linecap="butt" stroke-linejoin="round" stroke-opacity="1.0" stroke-width="3.0" />
            <path d=" M 377.278, 566.794 377.379, 576.794 377.480, 586.793 377.519, 590.654 377.780, 600.651 378.042, 610.647 378.135, 614.217 378.561, 624.207 378.986, 634.198 379.121, 637.360 379.716, 647.342 380.311, 657.324 380.468, 659.966 381.239, 669.936 382.010, 679.907 382.166, 681.924 383.120, 691.878 384.074, 701.832 384.199, 703.129 385.347, 713.063 386.495, 722.997 386.552, 723.488 387.906, 733.396 389.207, 742.912 390.783, 752.787 392.146, 761.325 393.962, 771.159 395.347, 778.661 397.424, 788.443 398.788, 794.863 401.155, 804.579 402.447, 809.884 405.137, 819.516 406.302, 823.688 409.354, 833.211 410.329, 836.251 413.795, 845.631 414.505, 847.553 418.447, 856.743 418.808, 857.585 423.216, 866.348 427.707, 873.851 432.261, 880.105 436.858, 885.130 441.479, 888.954 446.107, 891.605 450.726, 893.115 455.319, 893.522 459.874, 892.867 464.377, 891.189 468.816, 888.530 473.181, 884.934 477.462, 880.448 " fill="none" stroke="rgb(0, 0, 0)" stroke-linecap="butt" stroke-linejoin="round" stroke-opacity="1.0" stroke-width="3.0" />
            <path d=" M 477.462, 880.448 483.782, 872.698 485.440, 870.665 " fill="none" stroke="rgb(0, 0, 0)" stroke-linecap="butt" stroke-linejoin="round" stroke-opacity="1.0" stroke-width="3.0" />
            <path d=" M 540.145, 542.964 530.147, 543.113 528.757, 543.133 525.763, 540.174 523.085, 537.527 519.147, 533.633 518.866, 533.356 518.827, 533.317 " fill="none" stroke="rgb(0, 0, 0)" stroke-linecap="butt" stroke-linejoin="round" stroke-opacity="1.0" stroke-width="3.0" />
            <path d=" M 523.830, 499.672 529.028, 491.607 539.003, 492.310 540.456, 492.412 540.552, 502.412 540.648, 512.411 540.698, 517.656 540.544, 527.655 540.480, 531.788 540.181, 541.783 540.145, 542.964 533.178, 535.791 531.312, 533.870 531.042, 533.592 530.772, 533.314 530.502, 533.036 530.232, 532.757 529.918, 532.310 529.621, 531.637 529.347, 530.752 529.131, 529.796 529.103, 529.670 528.894, 528.413 528.724, 527.004 528.596, 525.469 528.513, 523.840 528.508, 523.612 528.476, 522.146 528.485, 520.421 528.541, 518.699 528.620, 517.396 528.643, 517.012 528.788, 515.394 528.975, 513.876 529.198, 512.486 529.261, 512.181 529.454, 511.253 529.737, 510.198 530.043, 509.342 530.363, 508.701 530.637, 508.256 530.912, 507.813 531.186, 507.370 531.460, 506.927 531.599, 506.706 536.866, 498.205 540.456, 492.412 " fill="none" stroke="rgb(0, 0, 0)" stroke-linecap="butt" stroke-linejoin="round" stroke-opacity="1.0" stroke-width="3.0" />
            <path d=" M 530.849, 523.655 530.725, 523.559 530.610, 523.331 530.509, 522.980 530.426, 522.523 530.365, 521.979 530.329, 521.372 530.319, 520.729 530.336, 520.078 530.379, 519.447 530.446, 518.865 530.534, 518.356 530.640, 517.944 530.758, 517.645 530.883, 517.474 531.010, 517.438 " fill="none" stroke="rgb(0, 0, 0)" stroke-linecap="butt" stroke-linejoin="round" stroke-opacity="1.0" stroke-width="3.0" />
            <path d=" M 531.010, 517.438 531.133, 517.537 531.248, 517.767 531.349, 518.118 531.431, 518.574 531.492, 519.117 531.527, 519.722 531.537, 520.362 531.520, 521.011 531.477, 521.639 531.411, 522.220 531.323, 522.728 531.218, 523.141 531.101, 523.441 530.976, 523.615 530.849, 523.655 " fill="none" stroke="rgb(0, 0, 0)" stroke-linecap="butt" stroke-linejoin="round" stroke-opacity="1.0" stroke-width="3.0" />
            <path d=" M 360.696, 495.397 360.550, 498.616 360.235, 508.611 359.920, 518.606 359.839, 521.188 359.662, 531.186 359.485, 541.185 359.439, 543.800 359.409, 551.395 359.370, 561.395 359.351, 566.361 359.450, 576.361 359.550, 586.360 359.574, 588.782 359.815, 598.779 360.055, 608.777 360.108, 610.975 360.263, 615.013 " fill="none" stroke="rgb(0, 0, 0)" stroke-linecap="butt" stroke-linejoin="round" stroke-opacity="1.0" stroke-width="3.0" />
            <path d=" M 540.386, 735.605 541.900, 725.720 542.042, 724.792 543.450, 714.892 543.815, 712.331 545.121, 702.417 545.478, 699.700 546.686, 689.774 547.034, 686.916 548.147, 676.978 548.481, 673.990 549.502, 664.043 549.820, 660.939 550.751, 650.982 551.051, 647.774 551.894, 637.809 552.173, 634.508 552.931, 624.537 553.188, 621.155 553.861, 611.177 554.094, 607.725 554.684, 597.743 554.892, 594.232 555.401, 584.244 555.582, 580.685 556.010, 570.694 556.164, 567.098 556.511, 557.104 556.637, 553.481 556.904, 543.484 557.001, 539.845 557.189, 529.846 557.257, 526.201 557.305, 521.800 " fill="none" stroke="rgb(0, 0, 0)" stroke-linecap="butt" stroke-linejoin="round" stroke-opacity="1.0" stroke-width="3.0" />
            <path d=" M 458.178, 923.802 460.596, 923.971 464.727, 923.482 468.816, 922.188 472.855, 920.118 476.838, 917.304 480.758, 913.775 484.609, 909.564 488.386, 904.700 492.083, 899.214 495.697, 893.137 499.225, 886.497 502.661, 879.323 506.004, 871.643 509.251, 863.486 512.400, 854.876 515.449, 845.841 518.395, 836.404 521.178, 826.799 521.238, 826.589 523.839, 816.933 523.977, 816.421 524.732, 813.409 " fill="none" stroke="rgb(0, 0, 0)" stroke-linecap="butt" stroke-linejoin="round" stroke-opacity="1.0" stroke-width="3.0" />
            <path d=" M 522.062, 202.941 521.525, 201.300 518.570, 193.077 515.501, 185.335 512.318, 178.100 509.024, 171.402 505.622, 165.270 502.113, 159.733 498.502, 154.823 494.791, 150.570 490.986, 147.004 487.090, 144.159 483.110, 142.064 479.052, 140.750 474.922, 140.249 473.091, 140.398 470.728, 140.589 466.478, 141.801 462.181, 143.910 457.847, 146.943 453.486, 150.923 449.110, 155.871 444.730, 161.807 440.360, 168.746 436.014, 176.698 431.704, 185.673 430.270, 189.042 427.447, 195.673 423.895, 205.021 423.258, 206.698 420.031, 216.163 419.924, 216.478 419.153, 218.740 416.218, 228.299 415.147, 231.787 412.477, 241.424 411.258, 245.822 408.829, 255.522 407.502, 260.820 405.295, 270.574 403.897, 276.753 401.895, 286.551 400.458, 293.583 398.647, 303.418 397.202, 311.268 395.571, 321.134 394.145, 329.758 392.684, 339.650 391.303, 348.998 390.002, 358.913 388.689, 368.928 387.542, 378.862 386.396, 388.796 386.317, 389.479 385.319, 399.429 384.321, 409.379 384.201, 410.581 383.346, 420.544 382.492, 430.508 382.350, 432.155 381.635, 442.130 380.920, 452.104 380.776, 454.122 380.198, 464.105 379.619, 474.089 379.486, 476.396 379.042, 486.386 378.598, 496.376 378.487, 498.890 378.176, 508.885 377.866, 518.880 377.784, 521.515 377.606, 531.513 377.428, 541.512 377.381, 544.180 377.335, 554.180 377.290, 564.180 377.278, 566.794 377.367, 576.794 377.455, 586.793 377.477, 589.268 377.700, 599.265 377.923, 609.263 377.974, 611.511 378.335, 621.504 378.695, 631.498 378.765, 633.438 379.267, 643.425 379.768, 653.412 379.846, 654.963 380.493, 664.942 381.139, 674.922 381.209, 676.008 382.005, 685.976 382.801, 695.945 382.845, 696.496 383.798, 706.451 384.745, 716.355 385.861, 726.293 386.897, 735.521 388.185, 745.438 389.288, 753.932 390.759, 763.823 391.905, 771.535 393.571, 781.395 394.735, 788.282 396.611, 798.104 397.762, 804.131 399.865, 813.907 400.970, 819.046 403.321, 828.766 404.345, 833.000 406.968, 842.650 407.870, 845.969 410.795, 855.532 411.531, 857.936 414.792, 867.389 415.310, 868.889 418.949, 878.204 419.192, 878.824 423.162, 887.740 427.206, 895.639 431.309, 902.531 435.457, 908.428 439.636, 913.345 443.835, 917.301 448.042, 920.317 452.244, 922.416 456.432, 923.626 458.333, 923.783 460.596, 923.971 " fill="none" stroke="rgb(0, 0, 0)" stroke-linecap="butt" stroke-linejoin="round" stroke-opacity="1.0" stroke-width="3.0" />
            <path d=" M 472.488, 140.325 468.268, 140.667 463.990, 141.878 459.666, 143.987 455.305, 147.020 450.917, 151.000 446.513, 155.948 442.107, 161.882 437.710, 168.819 433.337, 176.770 429.002, 185.742 427.466, 189.326 424.719, 195.740 421.147, 205.080 420.505, 206.761 417.260, 216.220 416.375, 218.799 413.423, 228.353 413.146, 229.253 412.346, 231.842 409.660, 241.474 408.434, 245.872 405.991, 255.569 404.657, 260.866 402.437, 270.616 401.031, 276.792 399.017, 286.588 397.573, 293.616 395.752, 303.449 394.299, 311.295 392.658, 321.159 391.225, 329.778 389.755, 339.669 388.367, 349.011 387.060, 358.925 385.740, 368.933 384.587, 378.866 383.435, 388.800 383.356, 389.477 382.353, 399.426 381.350, 409.376 381.229, 410.570 380.370, 420.533 379.511, 430.496 379.370, 432.136 378.652, 442.110 377.933, 452.084 377.789, 454.094 377.208, 464.077 376.627, 474.060 376.494, 476.359 376.048, 486.349 375.603, 496.339 375.491, 498.844 375.180, 508.840 374.869, 518.835 374.787, 521.460 374.609, 531.459 374.432, 541.457 374.384, 544.116 374.340, 554.116 374.296, 564.116 374.285, 566.722 374.375, 576.722 374.465, 586.721 374.487, 589.187 374.713, 599.184 374.940, 609.181 374.990, 611.421 375.355, 621.415 375.719, 631.408 375.790, 633.340 376.296, 643.327 376.802, 653.314 376.880, 654.858 377.532, 664.836 378.184, 674.815 378.255, 675.895 379.057, 685.862 379.860, 695.830 379.904, 696.375 380.864, 706.329 381.818, 716.228 382.942, 726.164 383.986, 735.386 385.283, 745.302 386.394, 753.792 387.876, 763.681 389.031, 771.389 390.709, 781.247 391.880, 788.130 393.769, 797.950 394.928, 803.975 397.045, 813.748 398.159, 818.886 400.525, 828.602 401.557, 832.836 404.197, 842.481 405.106, 845.802 408.050, 855.359 408.791, 857.766 412.072, 867.212 412.595, 868.717 416.257, 878.023 416.504, 878.650 420.500, 887.564 424.571, 895.463 428.701, 902.355 432.875, 908.252 437.082, 913.169 441.309, 917.125 445.542, 920.142 449.772, 922.243 453.987, 923.454 458.178, 923.802 " fill="none" stroke="rgb(0, 0, 0)" stroke-linecap="butt" stroke-linejoin="round" stroke-opacity="1.0" stroke-width="3.0" />
            <path d=" M 474.922, 140.249 472.488, 140.325 " fill="none" stroke="rgb(0, 0, 0)" stroke-linecap="butt" stroke-linejoin="round" stroke-opacity="1.0" stroke-width="3.0" />
            <path d=" M 546.427, 750.028 546.738, 748.093 548.215, 738.203 548.694, 734.992 550.068, 725.087 550.537, 721.709 551.813, 711.790 552.267, 708.259 553.447, 698.328 553.883, 694.656 554.971, 684.716 555.387, 680.916 556.385, 670.966 556.778, 667.051 557.689, 657.092 558.057, 653.075 558.883, 643.109 559.223, 639.000 559.966, 629.027 560.278, 624.838 560.938, 614.860 561.220, 610.602 561.800, 600.619 562.051, 596.303 562.552, 586.315 562.770, 581.951 563.192, 571.960 563.378, 567.559 563.721, 557.565 563.873, 553.138 564.139, 543.141 564.257, 538.697 564.445, 528.698 564.529, 524.247 564.554, 521.929 " fill="none" stroke="rgb(0, 0, 0)" stroke-linecap="butt" stroke-linejoin="round" stroke-opacity="1.0" stroke-width="3.0" />
            <path d=" M 455.824, 952.904 458.237, 953.082 462.711, 953.091 467.142, 952.204 471.519, 950.456 475.837, 947.881 480.086, 944.516 484.261, 940.395 488.356, 935.554 492.366, 930.029 496.285, 923.853 500.111, 917.060 503.839, 909.682 507.466, 901.752 510.989, 893.301 514.407, 884.357 517.717, 874.951 520.810, 865.442 520.918, 865.110 523.805, 855.536 524.009, 854.860 526.706, 845.231 526.988, 844.227 529.511, 834.551 529.854, 833.235 531.257, 827.464 531.516, 826.399 " fill="none" stroke="rgb(0, 0, 0)" stroke-linecap="butt" stroke-linejoin="round" stroke-opacity="1.0" stroke-width="3.0" />
            <path d=" M 540.060, 223.499 538.668, 217.227 536.324, 207.505 536.078, 206.482 533.541, 196.809 533.360, 196.119 530.614, 186.504 530.516, 186.164 527.546, 176.643 524.450, 167.586 521.228, 159.021 517.883, 150.979 514.415, 143.490 510.827, 136.589 507.121, 130.307 503.301, 124.680 499.368, 119.741 495.328, 115.527 491.185, 112.073 486.945, 109.416 482.613, 107.592 478.196, 106.635 473.702, 106.583 473.146, 106.691 469.140, 107.469 464.518, 109.326 459.847, 112.186 455.139, 116.079 450.405, 121.033 445.658, 127.071 440.913, 134.214 436.184, 142.480 431.715, 151.426 431.487, 151.881 427.453, 161.032 426.838, 162.426 423.520, 170.890 422.256, 174.116 418.947, 183.553 417.756, 186.948 417.642, 187.310 414.639, 196.848 414.302, 197.918 413.360, 200.912 410.632, 210.533 409.084, 215.992 406.606, 225.680 404.948, 232.164 402.700, 241.908 400.972, 249.398 398.935, 259.188 397.174, 267.653 395.334, 277.483 395.025, 279.137 393.574, 286.886 391.918, 296.748 390.263, 306.610 390.190, 307.041 388.708, 316.931 387.226, 326.820 387.040, 328.058 385.722, 337.971 384.405, 347.883 384.141, 349.867 382.980, 359.800 381.820, 369.732 381.509, 372.394 380.499, 382.343 379.490, 392.292 379.158, 395.556 378.295, 405.519 377.431, 415.481 377.103, 419.266 376.381, 429.240 375.659, 439.214 375.354, 443.430 374.770, 453.413 374.187, 463.396 373.921, 467.951 373.474, 477.941 373.027, 487.931 372.813, 492.728 372.501, 502.724 372.189, 512.719 372.035, 517.659 371.857, 527.657 371.680, 537.656 371.591, 542.638 371.548, 552.638 371.505, 562.637 371.483, 567.559 371.575, 577.559 371.667, 587.559 371.711, 592.319 371.940, 602.317 372.169, 612.314 372.272, 616.815 372.640, 626.808 373.008, 636.801 373.161, 640.946 373.672, 650.933 374.183, 660.920 374.372, 664.615 375.030, 674.594 375.688, 684.572 375.896, 687.731 376.706, 697.699 377.516, 707.666 377.723, 710.207 378.692, 720.160 379.660, 730.113 379.840, 731.961 380.976, 741.897 382.111, 751.832 382.236, 752.920 383.547, 762.834 384.858, 772.748 384.893, 773.016 386.392, 782.903 387.799, 792.189 389.497, 802.044 390.934, 810.386 392.848, 820.201 394.283, 827.563 396.431, 837.329 397.827, 843.681 399.323, 849.721 401.549, 858.712 402.015, 860.383 404.700, 870.015 405.430, 872.633 408.429, 882.172 409.452, 885.427 410.153, 887.398 413.503, 896.820 413.597, 897.086 414.778, 900.008 417.848, 907.607 422.045, 916.684 422.187, 916.993 426.598, 925.252 431.065, 932.398 435.573, 938.447 440.106, 943.420 444.651, 947.342 449.196, 950.239 453.729, 952.142 457.400, 952.908 458.237, 953.082 " fill="none" stroke="rgb(0, 0, 0)" stroke-linecap="butt" stroke-linejoin="round" stroke-opacity="1.0" stroke-width="3.0" />
            <path d=" M 362.085, 464.825 361.908, 467.816 361.454, 477.806 361.001, 487.796 360.785, 492.555 360.696, 495.397 360.381, 505.392 360.066, 515.387 360.001, 517.446 359.824, 527.444 359.647, 537.442 359.560, 542.385 359.526, 551.142 359.487, 561.142 359.470, 565.502 359.463, 567.268 359.562, 577.267 359.662, 587.267 359.709, 591.989 359.950, 601.986 359.955, 602.213 360.195, 612.210 360.263, 615.013 360.297, 616.447 360.680, 626.440 361.063, 636.432 361.221, 640.541 361.296, 641.947 " fill="none" stroke="rgb(0, 0, 0)" stroke-linecap="butt" stroke-linejoin="round" stroke-opacity="1.0" stroke-width="3.0" />
            <path d=" M 471.273, 106.669 466.682, 107.556 462.031, 109.414 457.331, 112.274 452.594, 116.167 447.830, 121.120 443.055, 127.157 438.280, 134.299 433.523, 142.563 429.031, 151.498 428.797, 151.962 424.742, 161.103 424.121, 162.504 420.451, 171.806 419.511, 174.190 416.184, 183.621 414.985, 187.019 414.682, 187.977 411.661, 197.510 410.563, 200.978 409.838, 203.518 407.095, 213.135 406.262, 216.053 406.070, 216.801 403.578, 226.486 402.103, 232.220 399.842, 241.961 398.104, 249.447 396.056, 259.235 394.285, 267.697 392.435, 277.524 390.665, 286.922 389.000, 296.783 387.335, 306.643 387.263, 307.070 385.986, 315.543 384.495, 325.431 384.096, 328.079 382.771, 337.991 381.446, 347.902 381.182, 349.880 380.015, 359.812 378.848, 369.743 378.536, 372.398 377.521, 382.346 376.507, 392.295 376.174, 395.551 375.306, 405.513 374.438, 415.476 374.109, 419.251 373.384, 429.225 372.658, 439.199 372.352, 443.406 371.767, 453.389 371.181, 463.371 370.914, 467.917 370.466, 477.907 370.017, 487.897 369.802, 492.685 369.490, 502.680 369.177, 512.675 369.023, 517.606 368.845, 527.604 368.668, 537.602 368.580, 542.574 368.538, 552.574 368.495, 562.574 368.475, 567.486 368.569, 577.486 368.663, 587.485 368.707, 592.237 368.939, 602.234 369.171, 612.231 369.275, 616.723 369.647, 626.716 370.019, 636.709 370.173, 640.845 370.688, 650.831 371.204, 660.818 371.394, 664.505 372.058, 674.483 372.721, 684.461 372.931, 687.613 373.747, 697.579 374.564, 707.546 374.772, 710.080 375.748, 720.033 376.725, 729.985 376.905, 731.827 378.049, 741.761 379.194, 751.696 379.318, 752.779 380.639, 762.691 381.960, 772.604 381.995, 772.868 383.504, 782.754 384.921, 792.035 386.631, 801.887 388.079, 810.226 390.006, 820.039 391.451, 827.398 392.259, 831.049 394.421, 840.813 395.019, 843.512 397.110, 851.895 398.766, 858.539 400.226, 863.737 402.673, 872.456 405.691, 881.990 406.722, 885.248 407.281, 886.809 410.652, 896.224 410.895, 896.905 414.663, 906.168 415.174, 907.424 419.394, 916.490 419.542, 916.809 423.982, 925.068 428.478, 932.213 433.014, 938.262 437.577, 943.235 442.152, 947.158 446.726, 950.057 451.287, 951.962 455.824, 952.904 " fill="none" stroke="rgb(0, 0, 0)" stroke-linecap="butt" stroke-linejoin="round" stroke-opacity="1.0" stroke-width="3.0" />
            <path d=" M 473.702, 106.583 471.273, 106.669 " fill="none" stroke="rgb(0, 0, 0)" stroke-linecap="butt" stroke-linejoin="round" stroke-opacity="1.0" stroke-width="3.0" />
            <path d=" M 545.525, 228.791 543.554, 218.988 543.207, 217.266 541.076, 207.496 540.679, 205.678 538.374, 195.948 538.018, 194.448 535.525, 184.763 535.226, 183.600 532.527, 173.971 532.300, 173.161 529.377, 163.598 529.243, 163.160 526.053, 153.626 522.732, 144.590 519.280, 136.083 515.699, 128.139 511.990, 120.791 508.156, 114.075 504.200, 108.028 500.124, 102.686 495.932, 98.087 491.630, 94.271 487.222, 91.275 482.714, 89.139 478.113, 87.902 473.428, 87.603 468.597, 87.787 463.775, 88.466 458.885, 90.156 453.938, 92.893 448.947, 96.711 443.923, 101.640 438.881, 107.708 433.835, 114.940 428.802, 123.356 424.186, 132.226 423.798, 132.972 419.635, 142.064 418.841, 143.799 415.078, 153.064 413.950, 155.841 410.542, 165.242 409.144, 169.098 406.053, 178.608 404.443, 183.561 401.638, 193.159 399.868, 199.214 397.322, 208.884 395.440, 216.035 393.131, 225.765 391.179, 233.992 389.089, 243.771 387.108, 253.045 385.246, 262.736 383.359, 272.556 383.246, 273.147 381.549, 283.002 379.853, 292.857 379.614, 294.242 378.097, 304.126 376.579, 314.010 376.233, 316.264 374.885, 326.173 373.536, 336.082 373.120, 339.142 371.933, 349.071 370.747, 359.000 370.294, 362.793 369.262, 372.740 368.231, 382.686 367.770, 387.131 366.889, 397.092 366.007, 407.053 365.564, 412.061 364.829, 422.034 364.503, 426.449 363.767, 436.422 363.689, 437.483 363.096, 447.466 362.502, 457.448 362.155, 463.292 362.085, 464.825 361.632, 474.815 361.579, 475.990 361.126, 485.979 360.971, 489.380 360.657, 499.375 360.342, 509.370 360.145, 515.633 359.968, 525.632 359.791, 535.630 359.679, 541.940 359.644, 550.885 359.605, 560.885 359.590, 564.631 359.576, 568.186 359.676, 578.185 359.776, 588.185 359.836, 594.257 360.076, 604.255 360.317, 614.252 360.337, 615.083 360.456, 620.044 360.839, 630.036 360.947, 632.866 361.296, 641.947 361.392, 644.463 361.429, 645.436 361.959, 655.422 362.489, 665.408 362.750, 670.331 363.430, 680.308 364.111, 690.285 364.407, 694.629 365.244, 704.594 366.082, 714.559 366.390, 718.236 367.391, 728.186 368.391, 738.136 368.686, 741.066 369.857, 750.998 371.029, 760.929 371.278, 763.040 372.631, 772.948 373.983, 782.857 374.151, 784.086 374.438, 785.918 375.983, 795.798 377.288, 804.141 379.039, 813.987 380.669, 823.150 382.643, 832.953 384.277, 841.065 386.492, 850.816 388.090, 857.849 390.571, 867.536 392.090, 873.471 394.863, 883.079 396.257, 887.909 399.354, 897.418 400.569, 901.149 404.030, 910.531 405.009, 913.183 408.881, 922.403 409.556, 924.010 413.896, 933.020 414.193, 933.636 418.901, 942.072 423.662, 949.333 428.462, 955.440 433.283, 960.418 438.112, 964.293 442.935, 967.098 447.739, 968.865 452.512, 969.629 457.310, 969.994 461.983, 969.786 466.605, 968.648 471.168, 966.618 475.663, 963.734 480.083, 960.035 484.422, 955.559 488.673, 950.344 492.832, 944.428 496.894, 937.846 500.855, 930.634 504.712, 922.827 508.461, 914.459 512.101, 905.562 515.629, 896.168 518.900, 886.718 519.043, 886.305 522.093, 876.782 522.342, 876.004 525.190, 866.419 525.525, 865.292 528.189, 855.653 528.592, 854.195 531.084, 844.510 531.540, 842.738 533.875, 833.014 534.284, 831.308 " fill="none" stroke="rgb(0, 0, 0)" stroke-linecap="butt" stroke-linejoin="round" stroke-opacity="1.0" stroke-width="3.0" />
            <path d=" M 548.751, 755.139 548.876, 754.353 550.340, 744.460 550.882, 740.794 552.244, 730.887 552.770, 727.055 554.034, 717.136 554.542, 713.151 555.712, 703.220 556.198, 699.097 557.277, 689.155 557.738, 684.907 558.728, 674.956 559.162, 670.593 560.066, 660.634 560.471, 656.170 561.291, 646.204 561.666, 641.650 562.403, 631.677 562.746, 627.044 563.402, 617.066 563.711, 612.365 564.287, 602.382 564.562, 597.624 565.060, 587.636 565.299, 582.831 565.718, 572.840 565.922, 567.998 566.264, 558.004 566.431, 553.135 566.695, 543.139 566.825, 538.253 567.013, 528.255 567.105, 523.363 567.131, 520.993 " fill="none" stroke="rgb(0, 0, 0)" stroke-linecap="butt" stroke-linejoin="round" stroke-opacity="1.0" stroke-width="3.0" />
            <path d=" M 473.428, 87.603 468.665, 88.279 463.836, 89.968 458.950, 92.705 454.020, 96.523 449.057, 101.452 444.076, 107.522 439.091, 114.757 434.117, 123.177 429.546, 132.071 429.172, 132.797 425.052, 141.909 424.274, 143.630 421.176, 151.351 419.439, 155.679 416.068, 165.094 414.689, 168.944 411.632, 178.465 410.042, 183.415 407.268, 193.023 405.519, 199.079 405.057, 200.854 402.539, 210.532 401.140, 215.911 399.934, 221.054 397.652, 230.790 396.927, 233.880 394.861, 243.664 394.321, 246.220 392.900, 252.947 391.035, 262.772 389.169, 272.596 389.080, 273.064 387.403, 282.922 385.725, 292.780 385.488, 294.174 383.987, 304.061 383.535, 307.032 382.141, 316.213 380.808, 326.124 379.474, 336.034 379.061, 339.108 377.887, 349.039 376.713, 358.970 376.262, 362.778 375.242, 372.725 374.305, 381.852 373.763, 387.135 372.891, 397.097 372.018, 407.058 371.578, 412.085 370.849, 422.058 370.120, 432.031 369.718, 437.527 369.130, 447.510 368.542, 457.492 368.196, 463.357 367.746, 473.346 367.296, 483.336 367.020, 489.465 366.707, 499.460 366.394, 509.455 366.197, 515.739 366.019, 525.738 365.842, 535.736 365.730, 542.067 365.689, 552.067 365.647, 562.067 365.622, 568.333 365.717, 578.333 365.813, 588.332 365.871, 594.425 366.106, 604.423 366.340, 614.420 366.477, 620.232 366.852, 630.225 367.228, 640.217 367.432, 645.644 367.952, 655.630 368.472, 665.617 368.730, 670.557 369.399, 680.535 370.068, 690.512 370.361, 694.873 371.185, 704.839 372.008, 714.805 372.314, 718.497 373.299, 728.448 374.284, 738.400 374.575, 741.343 375.729, 751.277 376.883, 761.210 377.130, 763.332 378.463, 773.243 379.796, 783.154 379.963, 784.392 380.177, 785.779 380.715, 789.272 382.238, 799.156 383.056, 804.460 384.783, 814.310 386.391, 823.480 387.932, 831.241 389.117, 837.210 389.950, 841.405 392.136, 851.164 393.713, 858.198 396.161, 867.894 397.437, 872.948 397.659, 873.829 400.397, 883.447 401.771, 888.274 404.830, 897.794 406.027, 901.519 409.448, 910.916 410.409, 913.557 410.922, 914.796 414.751, 924.034 414.898, 924.388 419.191, 933.419 419.475, 934.016 424.122, 942.452 428.823, 949.714 433.562, 955.820 438.322, 960.796 443.090, 964.670 447.853, 967.472 452.596, 969.235 457.310, 969.994 " fill="none" stroke="rgb(0, 0, 0)" stroke-linecap="butt" stroke-linejoin="round" stroke-opacity="1.0" stroke-width="3.0" />
            <path d=" M 565.291, 521.942 565.309, 520.961 565.321, 520.306 565.387, 518.686 565.429, 518.031 565.488, 517.109 565.623, 515.602 565.789, 514.191 565.983, 512.900 566.000, 512.808 566.201, 511.752 566.441, 510.764 566.697, 509.955 566.965, 509.337 567.242, 508.920 567.266, 508.902 567.521, 508.711 567.799, 508.712 " fill="none" stroke="rgb(0, 0, 0)" stroke-linecap="butt" stroke-linejoin="round" stroke-opacity="1.0" stroke-width="3.0" />
            <path d=" M 567.995, 521.008 567.991, 520.498 567.973, 520.007 567.941, 519.548 567.896, 519.133 567.838, 518.775 567.771, 518.482 567.695, 518.263 567.612, 518.123 567.525, 518.068 " fill="none" stroke="rgb(0, 0, 0)" stroke-linecap="butt" stroke-linejoin="round" stroke-opacity="1.0" stroke-width="3.0" />
            <path d=" M 531.541, 477.937 531.510, 483.600 531.678, 483.603 537.067, 483.673 537.273, 483.635 537.160, 477.995 531.793, 477.897 531.558, 477.934 531.541, 477.937 " fill="none" stroke="rgb(0, 0, 0)" stroke-linecap="butt" stroke-linejoin="round" stroke-opacity="1.0" stroke-width="3.0" />
            <path d=" M 537.099, 478.005 531.541, 477.937 " fill="none" stroke="rgb(0, 0, 0)" stroke-linecap="butt" stroke-linejoin="round" stroke-opacity="1.0" stroke-width="3.0" />
            <path d=" M 537.067, 483.673 537.099, 478.005 537.160, 477.995 " fill="none" stroke="rgb(0, 0, 0)" stroke-linecap="butt" stroke-linejoin="round" stroke-opacity="1.0" stroke-width="3.0" />
            <path d=" M 533.708, 479.843 533.667, 479.866 533.499, 480.006 533.360, 480.176 533.257, 480.370 533.193, 480.579 533.170, 480.798 533.193, 481.029 533.260, 481.245 533.365, 481.440 533.505, 481.609 533.675, 481.747 533.869, 481.851 533.877, 481.854 533.971, 481.882 534.001, 481.891 534.060, 481.909 534.083, 481.916 534.095, 481.918 534.106, 481.919 534.126, 481.921 534.297, 481.937 " fill="none" stroke="rgb(0, 0, 0)" stroke-linecap="butt" stroke-linejoin="round" stroke-opacity="1.0" stroke-width="3.0" />
            <path d=" M 534.610, 481.895 534.759, 481.841 534.899, 481.765 535.026, 481.670 535.139, 481.557 535.235, 481.429 535.312, 481.288 535.368, 481.137 535.403, 480.979 535.415, 480.818 535.404, 480.657 535.372, 480.498 535.317, 480.346 535.242, 480.203 535.147, 480.073 535.036, 479.957 534.910, 479.858 534.771, 479.779 534.622, 479.721 534.468, 479.685 534.310, 479.671 534.151, 479.681 " fill="none" stroke="rgb(0, 0, 0)" stroke-linecap="butt" stroke-linejoin="round" stroke-opacity="1.0" stroke-width="3.0" />
            <path d=" M 534.139, 481.924 534.297, 481.937 534.455, 481.928 " fill="none" stroke="rgb(0, 0, 0)" stroke-linecap="butt" stroke-linejoin="round" stroke-opacity="1.0" stroke-width="3.0" />
            <path d=" M 534.455, 481.928 534.498, 481.920 534.610, 481.895 " fill="none" stroke="rgb(0, 0, 0)" stroke-linecap="butt" stroke-linejoin="round" stroke-opacity="1.0" stroke-width="3.0" />
            <path d=" M 534.151, 479.681 534.078, 479.694 533.996, 479.713 533.862, 479.760 533.847, 479.768 " fill="none" stroke="rgb(0, 0, 0)" stroke-linecap="butt" stroke-linejoin="round" stroke-opacity="1.0" stroke-width="3.0" />
            <path d=" M 533.847, 479.768 533.708, 479.843 " fill="none" stroke="rgb(0, 0, 0)" stroke-linecap="butt" stroke-linejoin="round" stroke-opacity="1.0" stroke-width="3.0" />
            <path d=" M 533.984, 481.887 534.060, 481.909 " fill="none" stroke="rgb(0, 0, 0)" stroke-linecap="butt" stroke-linejoin="round" stroke-opacity="1.0" stroke-width="3.0" />
            <path d=" M 627.719, 893.796 629.889, 894.296 637.800, 895.458 645.702, 895.883 653.577, 895.589 661.410, 894.595 669.185, 892.921 676.888, 890.587 684.505, 887.614 692.024, 884.024 699.433, 879.838 706.721, 875.079 713.877, 869.768 720.892, 863.928 727.758, 857.581 734.466, 850.748 741.009, 843.452 747.380, 835.714 753.426, 827.748 753.573, 827.554 759.319, 819.370 759.582, 818.995 765.038, 810.614 765.402, 810.055 770.578, 801.499 771.028, 800.755 775.934, 792.042 776.456, 791.115 781.101, 782.260 781.681, 781.154 786.074, 772.171 786.701, 770.890 790.850, 761.792 791.511, 760.342 795.424, 751.139 796.110, 749.527 799.793, 740.231 800.493, 738.464 803.953, 729.082 804.659, 727.168 807.902, 717.709 808.606, 715.658 811.637, 706.128 812.330, 703.948 815.154, 694.355 815.831, 692.055 818.452, 682.404 819.107, 679.994 821.529, 670.292 822.156, 667.781 824.382, 658.032 824.976, 655.430 827.009, 645.639 827.566, 642.957 829.408, 633.129 829.924, 630.376 831.579, 620.514 832.051, 617.701 833.518, 607.809 833.943, 604.946 835.225, 595.028 835.601, 592.125 836.698, 582.186 837.022, 579.253 837.935, 569.294 838.206, 566.342 838.936, 556.368 839.152, 553.407 839.698, 543.421 839.859, 540.461 840.220, 530.467 840.326, 527.518 840.501, 517.519 840.552, 514.592 840.539, 504.592 840.535, 501.697 840.334, 491.699 840.276, 488.847 839.883, 478.854 839.773, 476.055 839.186, 466.073 839.025, 463.337 838.241, 453.368 838.031, 450.707 837.046, 440.756 836.792, 438.179 835.602, 428.250 835.305, 425.769 833.906, 415.868 833.570, 413.492 831.957, 403.623 831.588, 401.364 829.754, 391.534 829.357, 389.401 827.297, 379.615 826.877, 377.619 824.583, 367.885 824.147, 366.035 821.613, 356.361 821.169, 354.666 818.386, 345.061 817.942, 343.530 814.900, 334.004 814.466, 332.645 811.156, 323.209 810.742, 322.030 807.153, 312.696 806.771, 311.704 802.892, 302.487 802.554, 301.686 798.372, 292.603 798.093, 291.997 793.594, 283.066 793.388, 282.656 788.561, 273.899 788.443, 273.686 783.260, 265.107 777.843, 256.942 772.194, 249.211 766.319, 241.939 760.221, 235.148 753.907, 228.862 747.382, 223.102 740.654, 217.894 733.729, 213.260 726.618, 209.224 719.329, 205.809 711.872, 203.037 704.259, 200.931 696.502, 199.513 688.614, 198.805 680.611, 198.824 678.390, 199.003 " fill="none" stroke="rgb(0, 0, 0)" stroke-linecap="butt" stroke-linejoin="round" stroke-opacity="1.0" stroke-width="3.0" />
            <path d=" M 629.889, 894.296 627.987, 893.835 621.986, 892.381 614.111, 889.699 606.284, 886.235 598.524, 881.978 590.853, 876.919 583.294, 871.051 575.868, 864.369 568.907, 857.190 568.599, 856.872 562.110, 849.264 561.510, 848.561 555.486, 840.579 554.626, 839.440 549.056, 831.135 547.971, 829.516 542.841, 820.932 541.568, 818.802 538.354, 812.772 535.751, 807.889 535.443, 807.311 535.031, 806.445 534.389, 805.094 530.095, 796.063 529.618, 795.062 529.307, 794.328 527.979, 791.192 525.670, 785.739 524.118, 782.077 522.639, 778.145 520.104, 771.408 518.966, 768.383 515.808, 758.894 514.183, 754.010 511.376, 744.412 509.791, 738.991 507.322, 729.301 505.810, 723.366 505.314, 721.104 503.172, 711.336 502.259, 707.175 500.432, 697.343 499.155, 690.463 497.635, 680.579 496.513, 673.280 495.292, 663.355 494.348, 655.677 493.419, 645.720 492.671, 637.709 492.027, 627.729 491.492, 619.432 491.129, 609.439 490.818, 600.908 490.731, 590.908 490.655, 582.196 490.841, 572.198 491.005, 563.360 491.461, 553.370 491.868, 544.463 492.593, 534.489 493.242, 525.570 493.852, 519.463 494.847, 509.512 495.123, 506.744 496.386, 496.825 497.503, 488.051 499.037, 478.169 500.374, 469.552 502.179, 459.716 502.977, 455.372 503.723, 451.310 505.803, 441.529 507.536, 433.384 509.896, 423.667 511.798, 415.833 514.441, 406.189 516.490, 398.712 519.423, 389.152 521.594, 382.074 524.822, 372.609 527.088, 365.968 530.619, 356.612 531.037, 355.506 532.949, 350.439 533.633, 348.797 535.998, 343.116 539.155, 335.531 539.593, 334.575 543.756, 325.483 545.098, 322.551 545.679, 321.283 546.639, 319.376 549.318, 314.050 552.251, 308.220 552.498, 307.728 553.790, 305.389 556.539, 300.413 557.776, 298.173 558.390, 297.062 559.585, 294.899 564.772, 286.349 566.913, 282.821 572.464, 274.503 574.457, 271.518 580.383, 263.463 582.189, 261.008 585.943, 256.394 585.961, 256.372 586.066, 256.243 590.083, 251.306 596.789, 243.888 598.113, 242.424 605.221, 235.391 606.253, 234.370 613.768, 227.772 614.479, 227.148 622.398, 221.041 622.766, 220.757 631.089, 215.198 639.428, 210.463 647.759, 206.547 656.062, 203.438 664.317, 201.124 672.506, 199.591 678.726, 199.003 680.611, 198.824 " fill="none" stroke="rgb(0, 0, 0)" stroke-linecap="butt" stroke-linejoin="round" stroke-opacity="1.0" stroke-width="3.0" />
            <path d=" M 678.390, 199.003 670.274, 199.772 662.075, 201.304 653.809, 203.617 645.495, 206.724 637.154, 210.638 628.806, 215.369 620.472, 220.925 612.547, 227.024 612.176, 227.309 604.655, 233.900 603.941, 234.526 596.826, 241.552 595.792, 242.573 589.079, 249.984 587.754, 251.446 584.441, 255.510 579.852, 261.138 573.919, 269.187 572.113, 271.637 566.554, 279.950 564.563, 282.929 559.368, 291.474 557.714, 294.195 557.228, 294.994 557.081, 295.260 556.125, 296.987 553.371, 301.964 551.824, 304.759 550.135, 307.811 546.163, 315.692 544.614, 318.765 543.311, 321.351 539.141, 330.440 536.781, 335.583 533.457, 343.555 533.057, 344.514 530.572, 350.475 528.991, 354.656 525.454, 364.010 524.707, 365.986 521.473, 375.449 519.209, 382.074 519.181, 382.167 516.244, 391.726 515.739, 393.369 514.103, 398.694 511.456, 408.337 509.408, 415.795 507.045, 425.512 505.145, 433.326 503.061, 443.107 501.331, 451.231 499.523, 461.066 497.981, 469.452 496.446, 479.334 495.111, 487.930 494.699, 491.160 493.435, 501.080 492.731, 506.602 492.642, 507.498 492.448, 509.435 492.234, 511.578 491.716, 516.753 491.427, 519.651 491.379, 520.125 491.379, 520.128 490.851, 525.405 490.126, 535.379 489.479, 544.277 489.023, 554.267 488.618, 563.152 488.433, 573.151 488.271, 581.967 488.360, 591.967 488.437, 600.658 488.803, 610.651 489.114, 619.162 489.761, 629.141 490.298, 637.418 491.230, 647.374 491.979, 655.366 493.204, 665.291 494.149, 672.950 495.673, 682.834 496.796, 690.116 498.628, 699.946 499.906, 706.810 502.055, 716.576 503.464, 722.984 504.298, 726.248 506.773, 735.937 507.452, 738.594 510.265, 748.190 510.338, 748.438 511.851, 753.598 515.015, 763.084 516.641, 767.958 519.286, 774.969 521.788, 781.604 521.802, 781.639 523.166, 784.852 527.074, 794.057 527.257, 794.487 527.310, 794.612 528.614, 797.348 532.916, 806.375 533.143, 806.851 533.766, 808.017 535.164, 810.634 537.778, 815.526 539.277, 818.333 544.415, 826.912 545.689, 829.039 551.267, 837.339 552.354, 838.956 558.386, 846.932 559.247, 848.071 565.744, 855.673 566.346, 856.377 573.313, 863.550 573.625, 863.870 581.061, 870.549 588.631, 876.415 596.312, 881.473 604.082, 885.730 611.920, 889.194 619.806, 891.879 627.719, 893.796 " fill="none" stroke="rgb(0, 0, 0)" stroke-linecap="butt" stroke-linejoin="round" stroke-opacity="1.0" stroke-width="3.0" />
            <path d=" M 789.341, 555.799 779.359, 555.192 778.617, 555.147 774.069, 553.716 764.529, 550.716 754.990, 547.716 754.586, 547.588 753.887, 547.368 753.187, 547.148 752.485, 546.927 751.783, 546.706 750.965, 546.316 750.190, 545.677 749.473, 544.800 748.831, 543.702 748.277, 542.404 747.819, 540.930 747.468, 539.308 747.229, 537.569 747.109, 535.747 747.109, 533.877 747.230, 531.995 747.468, 530.138 747.820, 528.341 748.157, 527.091 748.279, 526.639 748.835, 525.065 749.478, 523.650 749.649, 523.356 750.195, 522.420 750.890, 521.506 750.972, 521.398 751.792, 520.604 752.496, 520.038 753.200, 519.472 753.902, 518.907 754.604, 518.343 754.956, 518.061 756.279, 516.999 764.078, 510.740 771.878, 504.482 778.780, 498.943 " fill="none" stroke="rgb(0, 0, 0)" stroke-linecap="butt" stroke-linejoin="round" stroke-opacity="1.0" stroke-width="3.0" />
            <path d=" M 686.119, 283.826 679.946, 284.198 677.742, 284.331 675.635, 284.660 669.279, 285.655 660.755, 287.825 659.152, 288.394 652.199, 290.859 643.639, 294.761 635.103, 299.529 626.766, 305.051 626.618, 305.149 618.689, 311.242 618.211, 311.609 610.709, 318.220 609.918, 318.918 602.854, 325.997 601.774, 327.080 595.153, 334.574 593.816, 336.087 587.632, 343.945 586.079, 345.920 580.322, 354.096 578.594, 356.549 573.247, 364.999 571.389, 367.934 570.517, 369.463 570.140, 370.124 567.071, 375.505 564.488, 380.032 563.839, 381.297 561.287, 386.265 560.635, 387.534 559.661, 389.432 557.925, 392.812 556.435, 396.047 554.813, 399.570 554.336, 400.607 552.688, 404.186 551.740, 406.245 547.938, 415.494 546.088, 419.996 545.968, 420.288 544.443, 424.470 541.197, 433.368 540.641, 434.893 537.579, 444.412 535.783, 449.999 533.075, 459.626 531.411, 465.544 531.242, 466.236 528.877, 475.952 527.536, 481.459 525.505, 491.251 524.172, 497.680 523.830, 499.672 522.139, 509.528 521.346, 514.146 521.063, 516.230 520.946, 517.084 520.922, 517.263 520.079, 523.459 519.081, 530.793 518.827, 533.317 517.823, 543.267 517.391, 547.549 516.733, 557.528 516.284, 564.343 515.969, 574.338 515.756, 581.102 515.782, 591.102 515.799, 597.758 516.163, 607.751 516.402, 614.315 517.093, 624.292 517.531, 630.623 517.682, 632.088 518.706, 642.035 519.055, 645.423 519.178, 646.612 520.545, 656.518 521.332, 662.219 523.052, 672.070 523.980, 677.381 524.223, 678.522 526.308, 688.302 527.104, 692.041 529.567, 701.733 530.687, 706.144 531.542, 709.012 531.651, 709.380 532.378, 711.818 533.663, 716.132 534.163, 717.811 534.708, 719.639 537.973, 729.091 538.993, 732.042 539.145, 732.481 540.386, 735.605 540.909, 736.922 542.264, 740.332 543.972, 744.631 545.025, 746.945 545.962, 749.006 546.427, 750.028 548.751, 755.139 549.166, 756.050 553.774, 764.925 554.699, 766.707 559.795, 775.311 560.545, 776.576 566.148, 784.858 566.674, 785.635 572.803, 793.536 573.058, 793.866 579.671, 801.256 586.482, 807.797 593.464, 813.485 600.588, 818.318 607.829, 822.299 611.868, 824.028 615.158, 825.437 622.551, 827.740 629.982, 829.218 637.428, 829.888 644.865, 829.767 652.273, 828.874 659.630, 827.228 666.918, 824.853 674.117, 821.772 681.210, 818.009 688.181, 813.588 695.016, 808.537 701.699, 802.882 708.219, 796.648 714.562, 789.862 720.718, 782.553 726.676, 774.746 732.427, 766.468 737.786, 758.025 737.963, 757.746 742.988, 749.100 743.275, 748.606 747.978, 739.781 748.355, 739.074 752.750, 730.091 753.198, 729.175 757.295, 720.053 757.797, 718.936 761.607, 709.691 762.147, 708.381 765.679, 699.026 766.242, 697.535 769.505, 688.082 770.078, 686.421 773.080, 676.882 773.651, 675.064 776.398, 665.449 776.958, 663.488 779.454, 653.805 779.993, 651.715 782.245, 641.972 782.755, 639.768 784.767, 629.973 785.240, 627.671 787.016, 617.830 787.446, 615.444 788.988, 605.564 789.371, 603.112 790.681, 593.198 791.012, 590.695 792.092, 580.753 792.368, 578.215 793.218, 568.251 793.436, 565.694 794.056, 555.714 794.215, 553.155 794.606, 543.162 794.705, 540.618 794.748, 537.922 " fill="none" stroke="rgb(0, 0, 0)" stroke-linecap="butt" stroke-linejoin="round" stroke-opacity="1.0" stroke-width="3.0" />
            <path d=" M 778.780, 498.943 788.737, 499.864 789.550, 499.939 " fill="none" stroke="rgb(0, 0, 0)" stroke-linecap="butt" stroke-linejoin="round" stroke-opacity="1.0" stroke-width="3.0" />
            <path d=" M 824.453, 515.418 824.125, 505.423 824.120, 505.279 823.523, 495.297 823.376, 492.848 822.501, 482.886 822.294, 480.532 821.951, 477.589 820.874, 468.357 819.427, 458.462 819.117, 456.346 817.379, 446.498 817.030, 444.519 814.999, 434.727 814.619, 432.893 812.284, 423.170 811.882, 421.496 809.227, 411.855 808.815, 410.358 805.824, 400.816 805.415, 399.511 802.074, 390.086 801.684, 388.984 797.981, 379.695 797.626, 378.802 793.552, 369.670 793.248, 368.988 788.796, 360.033 788.560, 359.557 783.721, 350.806 783.569, 350.531 778.276, 341.948 772.682, 333.844 766.795, 326.254 760.624, 319.207 754.179, 312.724 747.474, 306.822 740.524, 301.516 733.339, 296.839 725.931, 292.834 719.251, 289.941 718.313, 289.534 710.503, 286.969 702.520, 285.156 694.385, 284.107 686.119, 283.826 " fill="none" stroke="rgb(0, 0, 0)" stroke-linecap="butt" stroke-linejoin="round" stroke-opacity="1.0" stroke-width="3.0" />
            <path d=" M 659.152, 288.394 665.107, 291.577 671.155, 295.589 677.017, 300.253 682.685, 305.528 688.151, 311.379 693.404, 317.791 698.434, 324.748 703.232, 332.227 707.790, 340.201 712.106, 348.634 716.177, 357.493 720.002, 366.739 723.489, 376.111 723.578, 376.352 726.738, 385.839 726.897, 386.316 729.742, 395.903 729.952, 396.611 732.497, 406.282 732.741, 407.213 735.000, 416.954 735.264, 418.092 737.252, 427.893 737.522, 429.221 739.255, 439.070 739.519, 440.568 741.008, 450.457 741.257, 452.109 742.504, 462.031 742.730, 463.828 743.740, 473.777 743.935, 475.705 744.711, 485.675 744.870, 487.719 745.417, 497.704 745.534, 499.847 745.735, 506.015 745.623, 507.247 745.453, 508.462 745.228, 509.647 744.949, 510.790 744.620, 511.879 744.242, 512.903 743.822, 513.850 743.362, 514.711 742.868, 515.476 742.345, 516.139 741.797, 516.691 741.232, 517.127 740.654, 517.443 740.071, 517.635 735.880, 518.590 732.143, 519.442 " fill="none" stroke="rgb(0, 0, 0)" stroke-linecap="butt" stroke-linejoin="round" stroke-opacity="1.0" stroke-width="3.0" />
            <path d=" M 800.286, 535.797 801.210, 535.857 803.243, 535.987 812.917, 533.454 813.095, 533.407 815.043, 532.897 822.885, 530.843 824.615, 530.390 824.840, 530.341 830.759, 529.050 830.700, 519.050 830.682, 515.876 830.360, 505.881 830.260, 502.770 829.671, 492.787 829.492, 489.755 828.631, 479.793 828.377, 476.857 827.237, 466.922 826.914, 464.098 825.491, 454.200 825.103, 451.503 823.390, 441.651 822.945, 439.096 820.933, 429.301 820.440, 426.904 818.119, 417.177 817.588, 414.952 814.950, 405.306 814.637, 404.162 814.392, 403.265 811.425, 393.716 810.852, 391.871 808.340, 384.704 806.971, 380.796 803.310, 371.490 802.751, 370.068 798.724, 360.914 798.196, 359.714 793.789, 350.737 793.310, 349.762 788.507, 340.991 788.098, 340.244 784.079, 333.665 782.564, 331.185 778.498, 325.227 776.717, 322.617 770.643, 314.673 770.562, 314.568 764.109, 307.071 757.366, 300.151 750.344, 293.841 743.055, 288.172 735.512, 283.170 727.729, 278.866 719.722, 275.286 711.508, 272.461 703.105, 270.414 694.535, 269.170 685.819, 268.754 675.821, 268.544 665.823, 268.333 665.111, 268.318 " fill="none" stroke="rgb(0, 0, 0)" stroke-linecap="butt" stroke-linejoin="round" stroke-opacity="1.0" stroke-width="3.0" />
            <path d=" M 685.819, 268.754 676.979, 269.187 676.219, 269.298 668.042, 270.487 662.835, 271.748 659.033, 272.669 649.981, 275.751 640.915, 279.741 636.047, 282.380 635.897, 282.461 631.866, 284.646 623.471, 290.079 622.866, 290.470 614.890, 296.502 613.949, 297.214 606.405, 303.779 605.148, 304.872 598.041, 311.907 596.498, 313.435 589.829, 320.885 588.036, 322.888 581.799, 330.705 579.798, 333.214 573.986, 341.352 571.818, 344.388 568.002, 350.342 567.562, 351.030 564.134, 356.379 562.321, 359.528 559.703, 364.078 558.092, 366.878 556.781, 369.156 552.656, 377.138 551.014, 380.317 549.794, 382.677 545.591, 391.751 543.207, 396.898 539.438, 406.002 537.051, 411.769 533.597, 421.154 531.359, 427.237 528.268, 436.748 526.158, 443.242 523.424, 452.861 521.474, 459.721 519.093, 469.434 517.333, 476.609 515.300, 486.400 513.756, 493.835 512.068, 503.691 510.760, 511.326 510.021, 516.768 508.676, 526.677 508.360, 529.010 507.358, 538.959 506.567, 546.809 505.910, 556.787 505.391, 564.648 505.079, 574.643 504.835, 582.448 504.872, 592.448 504.900, 600.135 " fill="none" stroke="rgb(0, 0, 0)" stroke-linecap="butt" stroke-linejoin="round" stroke-opacity="1.0" stroke-width="3.0" />
            <path d=" M 756.279, 516.999 756.201, 512.815 756.218, 510.020 756.176, 510.244 755.898, 511.392 755.570, 512.487 755.195, 513.515 754.777, 514.467 754.320, 515.332 753.829, 516.102 753.310, 516.767 752.766, 517.323 752.205, 517.761 751.632, 518.079 751.053, 518.273 750.904, 518.307 747.068, 519.196 737.326, 521.452 733.960, 522.232 733.400, 521.082 732.755, 520.108 732.143, 519.442 732.037, 519.327 731.258, 518.751 730.430, 518.392 729.715, 518.279 729.567, 518.256 719.584, 517.671 718.407, 517.602 717.518, 517.690 717.456, 517.712 716.623, 518.002 715.738, 518.532 714.912, 519.275 714.162, 520.220 713.466, 521.347 712.838, 522.638 712.287, 524.073 711.824, 525.625 711.457, 527.268 711.191, 528.975 711.033, 530.716 710.983, 532.461 720.962, 533.111 722.184, 533.191 727.027, 532.053 727.048, 531.498 727.095, 531.101 727.112, 530.948 727.218, 530.417 727.362, 529.921 727.541, 529.474 727.749, 529.086 727.982, 528.770 728.232, 528.533 728.401, 528.435 728.492, 528.382 728.757, 528.320 " fill="none" stroke="rgb(0, 0, 0)" stroke-linecap="butt" stroke-linejoin="round" stroke-opacity="1.0" stroke-width="3.0" />
            <path d=" M 804.790, 523.409 807.844, 522.626 808.359, 522.444 808.870, 522.153 809.372, 521.758 809.862, 521.263 810.334, 520.674 810.786, 519.995 811.215, 519.232 811.616, 518.393 811.988, 517.484 812.326, 516.511 812.629, 515.483 812.895, 514.407 813.120, 513.292 813.302, 512.146 822.898, 514.962 823.065, 515.011 824.453, 515.418 824.289, 516.129 823.987, 517.163 823.651, 518.140 823.282, 519.054 823.065, 519.516 822.884, 519.898 822.459, 520.664 822.011, 521.347 821.542, 521.940 821.057, 522.437 820.560, 522.835 820.054, 523.127 819.543, 523.311 813.491, 524.891 806.872, 526.618 806.349, 525.436 805.745, 524.435 805.070, 523.633 804.790, 523.409 804.334, 523.043 803.549, 522.677 802.729, 522.540 800.782, 522.426 799.567, 522.355 790.856, 521.845 790.169, 521.922 790.008, 521.940 789.610, 522.091 789.152, 522.265 788.304, 522.816 787.513, 523.586 786.797, 524.563 786.131, 525.729 785.528, 527.065 784.998, 528.546 784.550, 530.149 784.192, 531.846 783.930, 533.607 783.768, 535.403 783.710, 537.203 789.898, 537.606 790.064, 537.617 794.748, 537.922 795.632, 537.980 800.179, 536.789 800.216, 536.780 800.239, 536.207 800.286, 535.797 800.303, 535.639 800.407, 535.092 800.546, 534.580 800.718, 534.117 800.917, 533.716 801.139, 533.388 801.252, 533.271 801.376, 533.143 801.624, 532.985 801.874, 532.921 " fill="none" stroke="rgb(0, 0, 0)" stroke-linecap="butt" stroke-linejoin="round" stroke-opacity="1.0" stroke-width="3.0" />
            <path d=" M 774.069, 553.716 773.438, 563.775 772.574, 573.738 772.363, 576.167 771.260, 586.106 770.993, 588.517 769.652, 598.427 769.330, 600.804 767.750, 610.678 767.378, 613.005 765.556, 622.837 765.137, 625.098 763.071, 634.882 762.611, 637.062 760.298, 646.791 759.803, 648.874 757.239, 658.540 756.716, 660.512 753.897, 670.106 753.354, 671.953 750.273, 681.466 749.720, 683.174 746.372, 692.596 745.819, 694.152 742.196, 703.472 741.656, 704.863 737.750, 714.068 737.234, 715.282 733.036, 724.359 732.561, 725.387 728.062, 734.318 727.641, 735.153 722.829, 743.920 722.481, 744.554 717.346, 753.135 717.089, 753.564 711.618, 761.935 711.471, 762.160 705.637, 770.315 699.594, 778.001 693.354, 785.194 686.927, 791.868 680.324, 797.995 673.557, 803.549 666.640, 808.504 659.588, 812.836 652.414, 816.518 645.137, 819.525 637.773, 821.834 630.341, 823.423 622.861, 824.269 615.353, 824.352 611.868, 824.028 " fill="none" stroke="rgb(0, 0, 0)" stroke-linecap="butt" stroke-linejoin="round" stroke-opacity="1.0" stroke-width="3.0" />
            <path d=" M 790.064, 537.617 790.023, 540.228 789.585, 550.219 789.341, 555.799 779.811, 552.768 778.736, 552.426 774.231, 550.992 766.069, 548.395 765.376, 548.175 764.682, 547.954 763.986, 547.733 763.291, 547.512 762.481, 547.121 761.713, 546.479 761.004, 545.598 760.368, 544.496 759.820, 543.192 759.368, 541.711 759.021, 540.082 758.787, 538.335 758.703, 537.024 758.669, 536.504 758.671, 534.625 758.793, 532.733 759.031, 530.867 759.155, 530.230 759.382, 529.061 759.838, 527.350 760.391, 525.768 760.528, 525.463 761.030, 524.346 761.741, 523.109 762.513, 522.082 763.327, 521.284 764.025, 520.714 764.723, 520.145 765.420, 519.576 766.116, 519.009 766.465, 518.725 774.221, 512.413 779.158, 508.396 786.914, 502.084 789.550, 499.939 789.933, 509.932 789.985, 511.278 790.118, 515.856 790.169, 521.922 " fill="none" stroke="rgb(0, 0, 0)" stroke-linecap="butt" stroke-linejoin="round" stroke-opacity="1.0" stroke-width="3.0" />
            <path d=" M 764.755, 537.421 764.437, 537.355 764.140, 537.142 763.877, 536.791 763.659, 536.318 763.497, 535.745 763.397, 535.095 763.364, 534.398 763.399, 533.684 763.501, 532.984 763.665, 532.330 763.884, 531.749 764.148, 531.267 764.446, 530.906 764.765, 530.681 765.089, 530.603 " fill="none" stroke="rgb(0, 0, 0)" stroke-linecap="butt" stroke-linejoin="round" stroke-opacity="1.0" stroke-width="3.0" />
            <path d=" M 765.089, 530.603 765.407, 530.672 765.703, 530.888 765.965, 531.240 766.182, 531.711 766.343, 532.284 766.442, 532.931 766.475, 533.626 766.440, 534.338 766.338, 535.035 766.175, 535.688 765.957, 536.267 765.694, 536.749 765.397, 537.112 765.079, 537.339 764.755, 537.421 " fill="none" stroke="rgb(0, 0, 0)" stroke-linecap="butt" stroke-linejoin="round" stroke-opacity="1.0" stroke-width="3.0" />
            <path d=" M 800.179, 536.789 800.130, 539.845 799.737, 549.838 799.614, 552.968 798.992, 562.948 798.797, 566.093 797.946, 576.056 797.678, 579.198 796.599, 589.140 796.260, 592.262 794.951, 602.176 794.544, 605.263 793.005, 615.144 792.532, 618.179 790.760, 628.020 790.226, 630.986 788.219, 640.783 787.628, 643.663 785.382, 653.408 784.741, 656.188 782.252, 665.873 781.568, 668.536 778.830, 678.154 778.110, 680.684 775.118, 690.226 774.372, 692.608 771.120, 702.065 770.357, 704.284 766.838, 713.645 766.069, 715.688 762.274, 724.940 761.513, 726.793 757.432, 735.923 756.694, 737.575 752.318, 746.567 751.617, 748.007 746.934, 756.843 746.288, 758.063 741.286, 766.722 740.713, 767.714 735.380, 776.174 734.900, 776.935 729.224, 785.168 728.858, 785.697 722.822, 793.670 722.594, 793.972 716.187, 801.649 716.119, 801.730 709.443, 808.945 702.577, 815.587 695.534, 821.625 688.327, 827.034 680.971, 831.784 673.481, 835.846 665.875, 839.192 658.171, 841.798 650.387, 843.638 642.544, 844.684 634.665, 844.917 626.771, 844.315 618.888, 842.858 611.041, 840.529 603.255, 837.314 595.558, 833.205 587.979, 828.189 580.547, 822.264 573.291, 815.430 566.558, 808.037 566.242, 807.691 560.051, 799.839 559.432, 799.053 553.769, 790.811 552.889, 789.530 547.737, 780.959 546.644, 779.140 545.256, 776.503 542.801, 771.840 541.363, 769.110 540.729, 767.906 536.543, 758.824 536.484, 758.697 535.173, 755.853 535.069, 755.594 531.333, 746.317 530.004, 743.017 529.956, 742.878 527.292, 735.269 525.250, 729.435 522.360, 719.862 520.938, 715.150 518.445, 705.466 517.092, 700.211 514.980, 690.436 513.734, 684.671 512.423, 677.266 510.885, 668.589 509.498, 658.686 508.564, 652.026 507.522, 642.081 506.785, 635.049 506.080, 625.074 505.561, 617.728 505.185, 607.735 504.900, 600.135 502.697, 590.381 500.659, 581.355 " fill="none" stroke="rgb(0, 0, 0)" stroke-linecap="butt" stroke-linejoin="round" stroke-opacity="1.0" stroke-width="3.0" />
            <path d=" M 665.111, 268.318 657.111, 268.713 656.748, 268.769 649.017, 269.970 640.854, 272.110 632.647, 275.147 624.422, 279.093 616.208, 283.955 608.034, 289.739 600.331, 296.115 599.931, 296.446 592.691, 303.345 591.928, 304.071 585.150, 311.423 584.060, 312.606 577.735, 320.351 576.358, 322.037 570.475, 330.123 568.856, 332.348 565.952, 336.808 565.465, 337.556 561.588, 343.512 561.077, 344.386 558.424, 348.928 556.824, 351.668 554.585, 355.501 551.318, 361.732 549.702, 364.814 547.883, 368.282 543.625, 377.330 541.514, 381.815 538.116, 389.868 535.507, 396.052 531.980, 405.410 529.894, 410.945 526.718, 420.427 524.704, 426.439 521.869, 436.029 519.964, 442.474 517.462, 452.156 515.697, 458.984 513.523, 468.745 511.928, 475.904 510.076, 485.731 508.676, 493.161 507.143, 503.043 505.958, 510.684 505.229, 516.629 504.012, 526.555 503.786, 528.395 502.886, 538.354 502.175, 546.218 501.590, 556.201 501.129, 564.077 500.857, 574.073 500.659, 581.355 499.033, 591.222 497.523, 600.388 " fill="none" stroke="rgb(0, 0, 0)" stroke-linecap="butt" stroke-linejoin="round" stroke-opacity="1.0" stroke-width="3.0" />
            <path d=" M 498.218, 618.547 498.932, 628.522 499.498, 636.423 500.550, 646.367 501.352, 653.938 502.752, 663.840 503.767, 671.020 505.526, 680.864 506.729, 687.599 508.857, 697.369 509.190, 698.897 510.216, 703.610 512.728, 713.289 514.209, 718.993 517.120, 728.559 518.682, 733.692 522.011, 743.121 523.611, 747.656 524.559, 749.990 527.290, 756.714 528.967, 760.843 532.632, 768.721 534.039, 771.745 534.721, 773.212 539.121, 781.488 540.548, 784.172 540.844, 784.729 543.122, 788.481 547.303, 795.367 553.008, 803.580 554.066, 805.104 560.304, 812.921 561.103, 813.923 567.885, 821.271 568.381, 821.809 575.710, 828.612 575.868, 828.759 583.532, 834.769 591.343, 839.840 599.271, 843.977 607.286, 847.193 615.360, 849.499 623.467, 850.909 631.579, 851.444 639.673, 851.124 647.726, 849.972 655.714, 848.010 663.618, 845.267 671.418, 841.769 679.095, 837.543 686.634, 832.618 694.017, 827.025 701.231, 820.791 708.262, 813.946 715.097, 806.520 721.489, 798.830 721.726, 798.544 727.749, 790.561 728.138, 790.045 733.805, 781.805 734.323, 781.052 739.648, 772.588 740.272, 771.595 745.269, 762.932 745.978, 761.702 750.658, 752.865 751.434, 751.400 755.808, 742.408 756.631, 740.717 760.713, 731.588 761.565, 729.680 765.363, 720.429 766.231, 718.315 769.754, 708.956 770.622, 706.648 773.878, 697.192 774.735, 694.703 777.732, 685.163 778.566, 682.507 781.309, 672.891 782.110, 670.084 784.606, 660.401 785.364, 657.457 787.617, 647.714 788.325, 644.651 790.339, 634.856 790.991, 631.688 792.769, 621.847 793.358, 618.592 794.903, 608.712 795.423, 605.385 796.738, 595.472 797.186, 592.091 798.271, 582.150 798.644, 578.731 799.499, 568.767 799.794, 565.328 800.420, 555.347 800.636, 551.904 801.031, 541.912 801.167, 538.482 801.210, 535.857 " fill="none" stroke="rgb(0, 0, 0)" stroke-linecap="butt" stroke-linejoin="round" stroke-opacity="1.0" stroke-width="3.0" />
            <path d=" M 497.523, 600.388 497.906, 610.381 498.218, 618.547 " fill="none" stroke="rgb(0, 0, 0)" stroke-linecap="butt" stroke-linejoin="round" stroke-opacity="1.0" stroke-width="3.0" />
            <path d=" M 814.637, 404.162 814.060, 401.168 811.933, 391.397 811.660, 390.142 809.294, 380.426 809.023, 379.312 806.412, 369.659 806.150, 368.694 803.285, 359.113 803.042, 358.303 799.913, 348.805 799.699, 348.158 796.296, 338.755 796.123, 338.276 792.433, 328.981 792.312, 328.677 788.323, 319.507 788.268, 319.382 783.994, 310.411 779.491, 301.781 774.763, 293.508 769.815, 285.612 764.649, 278.113 759.270, 271.030 753.681, 264.386 747.887, 258.206 741.893, 252.513 735.706, 247.327 729.334, 242.666 722.784, 238.549 716.067, 234.994 709.190, 232.022 702.164, 229.653 695.000, 227.910 687.710, 226.815 680.306, 226.390 672.804, 226.647 671.962, 226.753 665.217, 227.599 657.561, 229.259 649.853, 231.637 642.109, 234.745 634.349, 238.595 626.592, 243.196 618.860, 248.558 611.173, 254.685 603.755, 261.391 603.553, 261.573 603.084, 262.049 596.020, 269.217 589.395, 276.707 588.598, 277.608 588.428, 277.822 582.189, 285.637 581.309, 286.738 579.366, 289.423 574.176, 296.596 568.682, 304.951 567.224, 307.167 562.205, 315.552 561.652, 316.475 560.478, 318.437 558.891, 321.348 556.211, 326.263 554.645, 329.135 553.963, 330.387 549.515, 339.343 549.137, 340.103 547.703, 342.990 547.557, 343.313 546.324, 346.038 542.201, 355.149 541.719, 356.214 537.912, 365.461 536.128, 369.795 536.032, 370.026 532.531, 379.393 530.663, 384.388 527.460, 393.862 525.633, 399.264 522.721, 408.830 520.962, 414.610 518.336, 424.260 516.669, 430.386 514.326, 440.107 512.775, 446.544 510.711, 456.329 509.296, 463.035 507.504, 472.873 506.241, 479.805 504.718, 489.689 503.622, 496.801 502.366, 506.721 501.449, 513.967 501.101, 517.478 500.113, 527.429 499.734, 531.248 499.013, 541.222 498.481, 548.588 498.027, 558.577 497.694, 565.929 497.509, 575.927 497.374, 583.214 497.461, 593.214 497.523, 600.388 497.885, 610.381 498.138, 617.394 498.218, 618.547 498.855, 628.527 499.215, 634.177 500.139, 644.134 500.746, 650.685 501.960, 660.611 502.724, 666.867 504.234, 676.752 505.139, 682.673 506.954, 692.507 507.979, 698.057 508.746, 701.578 510.874, 711.349 511.228, 712.977 513.679, 722.672 514.872, 727.391 517.657, 736.996 518.894, 741.263 522.029, 750.759 523.281, 754.552 523.523, 755.201 526.148, 762.232 528.013, 767.227 531.360, 775.196 532.700, 778.387 533.068, 779.264 537.329, 788.311 537.677, 789.050 538.426, 790.640 539.058, 791.839 541.594, 796.650 544.063, 801.334 549.145, 809.947 549.960, 811.329 555.475, 819.671 556.096, 820.609 562.060, 828.636 562.449, 829.160 568.876, 836.821 569.001, 836.970 575.729, 844.032 582.610, 850.348 589.623, 855.921 596.745, 860.756 603.957, 864.857 611.239, 868.232 618.574, 870.886 624.718, 872.503 625.944, 872.826 633.331, 874.062 640.719, 874.609 648.091, 874.486 655.430, 873.711 662.722, 872.303 669.954, 870.280 677.113, 867.659 684.187, 864.456 691.165, 860.687 698.035, 856.369 704.787, 851.526 711.413, 846.179 717.903, 840.352 724.249, 834.066 730.445, 827.338 736.483, 820.189 742.357, 812.635 748.059, 804.692 753.585, 796.379 758.836, 787.868 758.929, 787.717 763.907, 779.044 764.088, 778.727 768.802, 769.908 769.058, 769.428 773.517, 760.477 773.835, 759.839 778.047, 750.769 778.416, 749.975 782.388, 740.798 782.797, 739.853 786.535, 730.578 786.974, 729.488 790.483, 720.124 790.944, 718.894 794.230, 709.449 794.703, 708.089 797.773, 698.572 798.251, 697.089 801.111, 687.506 801.587, 685.911 804.241, 676.270 804.708, 674.571 807.160, 664.876 807.614, 663.084 809.867, 653.341 810.301, 651.463 812.358, 641.676 812.768, 639.722 814.630, 629.897 815.013, 627.875 816.680, 618.015 817.032, 615.935 818.510, 606.045 818.828, 603.919 820.117, 594.003 820.398, 591.840 821.500, 581.901 821.743, 579.711 822.657, 569.753 822.859, 567.546 823.585, 557.572 823.746, 555.358 824.284, 545.373 824.403, 543.162 824.753, 533.168 824.830, 530.970 824.840, 530.341 " fill="none" stroke="rgb(0, 0, 0)" stroke-linecap="butt" stroke-linejoin="round" stroke-opacity="1.0" stroke-width="3.0" />
            <path d=" M 670.570, 226.800 662.973, 227.753 655.307, 229.412 647.589, 231.789 639.836, 234.895 632.066, 238.742 624.300, 243.340 616.558, 248.697 608.863, 254.819 601.387, 261.563 601.234, 261.701 594.208, 268.817 593.694, 269.337 587.062, 276.821 586.265, 277.720 583.039, 281.753 578.968, 286.841 573.099, 294.937 572.739, 295.434 571.829, 296.688 566.327, 305.039 564.870, 307.249 561.641, 312.633 561.076, 313.575 558.518, 317.840 558.118, 318.507 555.817, 322.720 554.263, 325.564 551.598, 330.444 548.695, 336.277 547.131, 339.420 545.333, 343.033 541.204, 352.141 539.344, 356.243 535.624, 365.263 535.559, 365.420 533.653, 370.040 530.147, 379.405 528.281, 384.386 525.073, 393.857 523.248, 399.244 520.331, 408.810 518.574, 414.574 515.944, 424.222 514.279, 430.331 511.933, 440.052 510.384, 446.471 508.317, 456.255 506.903, 462.943 505.109, 472.781 503.848, 479.694 502.323, 489.577 501.229, 496.670 499.972, 506.590 499.057, 513.816 498.626, 518.156 497.637, 528.107 497.342, 531.077 496.622, 541.051 496.091, 548.397 495.638, 558.387 495.306, 565.719 495.122, 575.717 494.989, 582.985 495.077, 592.984 495.141, 600.139 495.505, 610.133 495.759, 617.126 496.403, 627.105 496.840, 633.891 497.767, 643.847 498.375, 650.381 499.593, 660.306 500.358, 666.545 501.873, 676.430 502.778, 682.335 504.598, 692.168 505.623, 697.703 507.764, 707.505 508.878, 712.607 511.335, 722.301 512.528, 727.007 515.320, 736.610 516.557, 740.865 519.699, 750.359 520.951, 754.141 522.768, 758.998 525.376, 765.964 525.690, 766.805 529.571, 776.022 530.661, 778.612 530.753, 778.832 532.051, 781.580 536.119, 790.198 537.085, 792.027 538.494, 794.693 541.036, 799.504 541.764, 800.883 546.854, 809.491 547.670, 810.870 553.193, 819.207 553.814, 820.144 559.786, 828.164 560.177, 828.689 566.611, 836.343 566.737, 836.493 573.475, 843.552 580.366, 849.865 587.388, 855.436 594.519, 860.269 601.741, 864.370 609.034, 867.745 616.379, 870.400 623.758, 872.343 " fill="none" stroke="rgb(0, 0, 0)" stroke-linecap="butt" stroke-linejoin="round" stroke-opacity="1.0" stroke-width="3.0" />
            <path d=" M 672.804, 226.647 670.570, 226.800 " fill="none" stroke="rgb(0, 0, 0)" stroke-linecap="butt" stroke-linejoin="round" stroke-opacity="1.0" stroke-width="3.0" />
            <path d=" M 623.758, 872.343 625.944, 872.826 " fill="none" stroke="rgb(0, 0, 0)" stroke-linecap="butt" stroke-linejoin="round" stroke-opacity="1.0" stroke-width="3.0" />
            <path d=" M 479.329, 601.227 479.704, 611.220 480.060, 620.704 480.718, 630.683 481.327, 639.916 482.274, 649.871 483.123, 658.798 484.364, 668.721 485.436, 677.290 486.979, 687.170 488.253, 695.331 490.107, 705.158 491.561, 712.869 493.733, 722.630 495.340, 729.850 497.843, 739.531 499.573, 746.226 499.861, 747.195 501.709, 753.425 504.239, 761.955 507.438, 771.429 507.848, 772.643 509.317, 776.995 512.883, 786.337 514.146, 789.644 514.782, 791.311 515.107, 792.067 516.813, 796.035 517.596, 797.858 518.105, 799.040 520.612, 804.873 523.387, 810.623 524.732, 813.409 526.042, 816.122 526.780, 817.651 527.395, 818.786 530.147, 823.870 531.504, 826.376 531.516, 826.399 533.262, 829.625 534.284, 831.308 539.475, 839.855 540.033, 840.774 545.667, 849.036 547.065, 851.085 553.156, 859.015 554.332, 860.546 560.892, 868.095 561.810, 869.151 568.843, 876.260 569.472, 876.897 576.978, 883.504 577.294, 883.782 585.249, 889.810 593.315, 894.987 601.469, 899.322 609.687, 902.826 617.948, 905.511 622.284, 906.538 630.546, 908.415 638.810, 909.504 647.058, 909.823 655.272, 909.392 663.436, 908.232 671.533, 906.365 679.550, 903.812 687.472, 900.597 695.286, 896.743 702.980, 892.273 710.544, 887.211 717.966, 881.581 725.238, 875.405 732.351, 868.709 739.297, 861.513 745.914, 854.016 746.067, 853.843 752.367, 846.077 752.657, 845.720 758.649, 837.714 759.059, 837.166 764.753, 828.945 765.268, 828.203 770.675, 819.791 771.278, 818.852 776.409, 810.268 777.086, 809.134 781.949, 800.396 782.687, 799.070 787.292, 790.193 788.078, 788.679 792.433, 779.677 793.254, 777.980 797.368, 768.866 798.213, 766.993 802.093, 757.776 802.952, 755.735 806.605, 746.426 807.469, 744.225 810.901, 734.833 811.760, 732.480 814.977, 723.012 815.825, 720.517 818.832, 710.980 819.661, 708.352 822.463, 698.753 823.266, 696.002 825.867, 686.347 826.639, 683.483 829.043, 673.776 829.778, 670.809 831.989, 661.056 832.682, 657.996 834.702, 648.202 835.350, 645.059 837.181, 635.229 837.780, 632.013 839.425, 622.149 839.971, 618.872 841.431, 608.979 841.922, 605.649 843.199, 595.731 843.633, 592.360 844.726, 582.420 845.101, 579.018 846.012, 569.059 846.326, 565.636 847.055, 555.663 847.307, 552.229 847.854, 542.244 848.042, 538.811 848.407, 528.817 848.531, 525.395 848.712, 515.396 848.773, 511.994 848.769, 501.994 848.768, 498.624 848.576, 488.626 848.512, 485.298 848.132, 475.305 848.007, 472.030 847.434, 462.046 847.250, 458.834 846.483, 448.864 846.242, 445.726 845.276, 435.773 844.980, 432.720 843.812, 422.789 843.465, 419.832 842.090, 409.927 841.695, 407.076 840.109, 397.203 839.670, 394.469 837.866, 384.633 837.388, 382.028 835.361, 372.235 834.851, 369.768 832.593, 360.026 832.056, 357.707 829.561, 348.024 829.004, 345.863 826.263, 336.246 825.695, 334.254 822.699, 324.713 822.129, 322.898 818.868, 313.444 818.306, 311.814 814.770, 302.460 814.227, 301.023 810.404, 291.782 809.892, 290.544 805.771, 281.432 805.303, 280.398 800.870, 271.434 800.461, 270.606 795.703, 261.810 795.368, 261.191 790.271, 252.587 790.027, 252.174 784.577, 243.790 784.440, 243.580 778.611, 235.430 772.544, 227.749 766.242, 220.560 759.713, 213.890 752.961, 207.761 745.993, 202.200 738.817, 197.232 731.441, 192.880 723.875, 189.171 716.129, 186.129 708.214, 183.779 700.144, 182.144 691.931, 181.246 683.591, 181.109 675.138, 181.754 670.695, 182.147 662.126, 183.592 653.480, 185.855 644.778, 188.951 636.040, 192.895 627.288, 197.698 618.899, 203.140 618.546, 203.369 610.552, 209.378 609.836, 209.916 602.248, 216.429 601.184, 217.342 594.004, 224.302 592.616, 225.647 585.841, 233.002 584.159, 234.828 577.783, 242.531 575.840, 244.877 572.524, 249.314 567.687, 255.785 562.079, 264.065 559.728, 267.536 554.489, 276.053 553.579, 277.531 553.575, 277.539 552.858, 278.704 551.992, 280.111 550.690, 282.438 550.534, 282.718 549.179, 285.139 549.176, 285.144 546.143, 290.565 544.618, 293.290 544.508, 293.487 543.296, 295.866 541.779, 298.845 537.302, 307.636 535.742, 311.004 534.258, 314.209 530.405, 322.526 529.961, 323.582 526.082, 332.799 523.843, 338.120 521.298, 344.793 517.735, 354.137 517.643, 354.379 514.386, 363.834 511.830, 371.256 508.873, 380.809 506.429, 388.704 503.765, 398.342 501.463, 406.669 499.086, 416.382 496.953, 425.095 495.193, 433.308 493.224, 442.497 492.918, 443.924 491.101, 453.758 489.376, 463.093 487.834, 472.974 486.341, 482.539 485.072, 492.458 483.827, 502.194 483.311, 507.347 483.250, 507.951 482.385, 516.591 482.378, 516.654 482.056, 519.871 481.998, 520.456 481.844, 521.991 481.118, 531.965 480.398, 541.862 479.945, 551.852 479.496, 561.738 479.317, 571.736 479.140, 581.549 479.234, 591.321 479.329, 601.227 " fill="none" stroke="rgb(0, 0, 0)" stroke-linecap="butt" stroke-linejoin="round" stroke-opacity="1.0" stroke-width="3.0" />
            <path d=" M 675.138, 181.754 666.592, 183.199 657.968, 185.462 649.288, 188.561 640.571, 192.509 631.840, 197.319 623.461, 202.776 623.118, 202.999 615.135, 209.023 614.427, 209.557 606.852, 216.084 605.795, 216.995 598.628, 223.969 597.245, 225.315 590.484, 232.683 588.805, 234.513 582.443, 242.228 580.502, 244.582 575.691, 251.044 572.364, 255.511 566.771, 263.801 564.420, 267.286 559.194, 275.812 556.697, 279.887 554.991, 282.946 554.445, 283.926 554.323, 284.144 551.638, 288.962 550.104, 291.714 549.224, 293.291 544.700, 302.209 544.361, 302.877 542.837, 305.880 542.030, 307.470 537.840, 316.550 535.143, 322.393 531.277, 331.615 531.228, 331.730 528.590, 338.021 527.168, 341.763 523.616, 351.111 522.398, 354.316 519.151, 363.774 516.592, 371.231 513.644, 380.787 511.197, 388.718 508.540, 398.359 506.235, 406.724 503.864, 416.439 501.728, 425.193 499.638, 434.972 497.695, 444.065 495.883, 453.900 494.154, 463.279 494.066, 463.846 493.488, 467.558 493.286, 468.856 491.747, 478.737 491.119, 482.769 489.853, 492.689 489.706, 493.842 488.604, 502.470 488.108, 507.425 487.950, 509.006 487.789, 510.613 487.700, 511.502 487.183, 516.674 486.893, 519.571 486.796, 520.541 486.618, 522.313 485.893, 532.287 485.170, 542.230 484.715, 552.219 484.263, 562.151 484.081, 572.149 483.901, 582.007 483.994, 592.006 484.029, 595.810 484.083, 601.729 484.454, 611.723 484.807, 621.251 485.459, 631.230 486.065, 640.505 487.005, 650.461 487.656, 657.359 487.851, 659.429 489.084, 669.352 489.499, 672.686 490.154, 677.960 491.688, 687.842 492.960, 696.040 494.803, 705.869 496.255, 713.614 498.416, 723.377 500.021, 730.629 501.900, 737.938 504.240, 747.039 507.071, 756.630 508.892, 762.798 512.076, 772.277 513.953, 777.866 514.954, 780.499 516.814, 785.395 519.234, 791.764 519.402, 792.209 523.336, 801.403 524.822, 804.875 525.215, 805.794 526.153, 807.746 530.484, 816.759 531.365, 818.594 531.379, 818.620 532.769, 821.197 535.444, 826.160 537.829, 830.586 543.003, 839.144 544.580, 841.753 550.199, 850.025 551.593, 852.078 557.669, 860.020 558.841, 861.551 565.386, 869.112 566.298, 870.166 573.318, 877.288 573.940, 877.919 581.434, 884.540 581.740, 884.810 589.674, 890.842 597.718, 896.021 605.850, 900.355 614.046, 903.857 622.284, 906.538 " fill="none" stroke="rgb(0, 0, 0)" stroke-linecap="butt" stroke-linejoin="round" stroke-opacity="1.0" stroke-width="3.0" />
            <path d=" M 729.567, 518.256 729.462, 518.266 728.684, 518.345 727.795, 518.659 726.916, 519.192 726.095, 519.939 725.349, 520.889 725.278, 521.006 724.864, 521.685 724.658, 522.022 724.034, 523.320 723.486, 524.762 723.025, 526.321 722.667, 527.937 722.659, 527.973 722.394, 529.688 722.294, 530.793 722.235, 531.438 722.184, 533.191 " fill="none" stroke="rgb(0, 0, 0)" stroke-linecap="butt" stroke-linejoin="round" stroke-opacity="1.0" stroke-width="3.0" />
            <path d=" M 728.757, 528.320 729.017, 528.351 729.267, 528.472 729.500, 528.681 729.709, 528.971 729.888, 529.334 730.033, 529.761 730.139, 530.241 730.205, 530.759 730.227, 531.302 " fill="none" stroke="rgb(0, 0, 0)" stroke-linecap="butt" stroke-linejoin="round" stroke-opacity="1.0" stroke-width="3.0" />
            <path d=" M 727.095, 531.101 730.227, 531.302 739.962, 529.015 748.157, 527.091 " fill="none" stroke="rgb(0, 0, 0)" stroke-linecap="butt" stroke-linejoin="round" stroke-opacity="1.0" stroke-width="3.0" />
            <path d=" M 802.729, 522.540 801.888, 522.636 801.039, 522.964 800.197, 523.518 799.835, 523.875 799.413, 524.293 798.975, 524.899 798.702, 525.275 798.239, 526.099 798.042, 526.448 797.604, 527.431 797.443, 527.790 797.268, 528.287 796.917, 529.279 796.471, 530.891 796.122, 532.559 796.115, 532.596 795.853, 534.367 795.751, 535.506 795.691, 536.172 795.632, 537.980 " fill="none" stroke="rgb(0, 0, 0)" stroke-linecap="butt" stroke-linejoin="round" stroke-opacity="1.0" stroke-width="3.0" />
            <path d=" M 801.874, 532.921 802.120, 532.951 802.355, 533.075 802.573, 533.288 802.768, 533.586 802.935, 533.960 803.069, 534.400 803.167, 534.893 803.225, 535.427 803.243, 535.987 " fill="none" stroke="rgb(0, 0, 0)" stroke-linecap="butt" stroke-linejoin="round" stroke-opacity="1.0" stroke-width="3.0" />
            <path d=" M 782.677, 486.249 782.838, 486.244 783.056, 486.277 783.267, 486.355 783.461, 486.475 783.631, 486.634 783.772, 486.824 783.878, 487.042 783.945, 487.281 783.968, 487.536 783.946, 487.774 783.883, 488.002 783.780, 488.210 783.641, 488.391 783.473, 488.538 783.278, 488.647 783.062, 488.711 " fill="none" stroke="rgb(0, 0, 0)" stroke-linecap="butt" stroke-linejoin="round" stroke-opacity="1.0" stroke-width="3.0" />
            <path d=" M 782.677, 486.249 782.602, 486.262 782.518, 486.280 782.375, 486.326 782.165, 486.433 782.144, 486.446 781.954, 486.597 781.797, 486.781 781.677, 486.993 781.601, 487.229 781.573, 487.483 781.596, 487.722 781.665, 487.952 781.676, 487.974 781.788, 488.185 781.939, 488.370 782.124, 488.521 782.338, 488.635 782.361, 488.644 782.587, 488.710 782.608, 488.714 782.638, 488.718 782.674, 488.721 782.717, 488.723 782.766, 488.725 782.831, 488.727 782.916, 488.724 782.962, 488.722 783.002, 488.719 783.036, 488.715 783.062, 488.711 " fill="none" stroke="rgb(0, 0, 0)" stroke-linecap="butt" stroke-linejoin="round" stroke-opacity="1.0" stroke-width="3.0" />
            <path d=" M 780.012, 484.259 779.995, 490.460 783.605, 490.624 785.661, 490.718 786.318, 490.427 785.828, 484.474 783.178, 484.327 780.443, 484.176 780.012, 484.259 " fill="none" stroke="rgb(0, 0, 0)" stroke-linecap="butt" stroke-linejoin="round" stroke-opacity="1.0" stroke-width="3.0" />
            <path d=" M 785.661, 490.718 785.682, 484.503 " fill="none" stroke="rgb(0, 0, 0)" stroke-linecap="butt" stroke-linejoin="round" stroke-opacity="1.0" stroke-width="3.0" />
            <path d=" M 785.828, 484.474 785.682, 484.503 780.012, 484.259 " fill="none" stroke="rgb(0, 0, 0)" stroke-linecap="butt" stroke-linejoin="round" stroke-opacity="1.0" stroke-width="3.0" />
            <path d=" M 717.456, 517.712 716.378, 517.663 706.386, 517.254 704.896, 517.193 694.902, 516.826 693.420, 516.772 683.425, 516.445 681.945, 516.397 671.949, 516.106 670.467, 516.063 660.470, 515.806 658.981, 515.768 648.984, 515.541 647.482, 515.506 637.484, 515.306 635.966, 515.276 625.967, 515.100 624.427, 515.073 614.428, 514.918 612.862, 514.894 602.863, 514.758 601.266, 514.736 591.266, 514.615 589.633, 514.595 579.634, 514.487 577.961, 514.469 578.004, 504.469 578.024, 499.904 577.951, 489.904 577.918, 485.373 577.728, 475.375 577.642, 470.896 577.333, 460.901 577.197, 456.492 576.767, 446.501 576.581, 442.180 576.028, 432.195 575.794, 427.981 575.114, 418.004 574.835, 413.914 574.025, 403.947 573.704, 400.001 572.759, 390.046 572.399, 386.265 571.314, 376.324 570.922, 372.727 570.517, 369.463 " fill="none" stroke="rgb(0, 0, 0)" stroke-linecap="butt" stroke-linejoin="round" stroke-opacity="1.0" stroke-width="3.0" />
            <path d=" M 558.451, 239.845 550.836, 233.663 545.525, 228.791 542.572, 226.082 540.688, 224.145 540.060, 223.499 537.468, 220.834 534.579, 217.863 532.111, 215.037 529.305, 211.826 526.858, 209.023 522.062, 202.941 519.407, 199.574 " fill="none" stroke="rgb(0, 0, 0)" stroke-linecap="butt" stroke-linejoin="round" stroke-opacity="1.0" stroke-width="3.0" />
            <path d=" M 572.524, 249.314 571.995, 249.025 564.011, 243.888 563.083, 243.291 561.224, 241.908 558.451, 239.845 554.415, 236.842 " fill="none" stroke="rgb(0, 0, 0)" stroke-linecap="butt" stroke-linejoin="round" stroke-opacity="1.0" stroke-width="3.0" />
            <path d=" M 519.407, 199.574 518.325, 198.377 514.924, 194.614 510.307, 190.473 505.565, 187.191 505.276, 187.050 502.544, 185.711 500.707, 184.811 495.744, 183.370 490.688, 182.904 485.551, 183.453 480.348, 185.051 475.093, 187.730 474.907, 187.863 474.896, 187.871 474.895, 187.871 473.576, 188.816 469.805, 191.516 467.803, 193.373 464.501, 196.438 459.200, 202.516 456.307, 206.490 454.280, 209.274 453.923, 209.763 448.865, 217.914 448.692, 218.191 443.962, 227.002 443.530, 227.806 439.280, 236.858 438.460, 238.603 434.636, 247.843 433.507, 250.572 430.064, 259.961 428.694, 263.695 425.596, 273.202 424.050, 277.946 421.263, 287.550 419.598, 293.291 417.096, 302.973 415.363, 309.683 413.125, 319.430 411.370, 327.072 409.378, 336.872 407.646, 345.396 405.883, 355.240 404.211, 364.585 402.665, 374.464 401.120, 384.344 401.087, 384.557 399.749, 394.468 398.411, 404.378 398.296, 405.230 397.156, 415.165 396.017, 425.100 395.856, 426.508 394.908, 436.463 393.960, 446.418 393.782, 448.290 393.020, 458.261 392.259, 468.232 392.088, 470.470 391.509, 480.453 390.931, 490.437 390.786, 492.939 390.388, 502.931 389.990, 512.923 389.884, 515.584 389.665, 525.582 389.446, 535.579 389.387, 538.290 389.347, 548.290 389.308, 558.290 389.298, 560.940 389.328, 560.954 394.863, 563.418 396.612, 564.163 400.525, 565.829 406.284, 568.176 412.142, 570.462 418.099, 572.691 424.157, 574.864 430.316, 576.985 436.579, 579.057 442.946, 581.082 449.419, 583.064 455.999, 585.003 462.688, 586.903 469.487, 588.767 476.399, 590.596 479.234, 591.321 " fill="none" stroke="rgb(0, 0, 0)" stroke-linecap="butt" stroke-linejoin="round" stroke-opacity="1.0" stroke-width="3.0" />
            <path d=" M 359.409, 551.395 355.222, 560.476 352.990, 565.316 " fill="none" stroke="rgb(0, 0, 0)" stroke-linecap="butt" stroke-linejoin="round" stroke-opacity="1.0" stroke-width="3.0" />
            <path d=" M 474.907, 187.863 465.268, 188.118 " fill="none" stroke="rgb(0, 0, 0)" stroke-linecap="butt" stroke-linejoin="round" stroke-opacity="1.0" stroke-width="3.0" />
            <path d=" M 533.971, 481.882 533.984, 481.887 " fill="none" stroke="rgb(0, 0, 0)" stroke-linecap="butt" stroke-linejoin="round" stroke-opacity="1.0" stroke-width="3.0" />
            <path d=" M 534.106, 481.919 534.139, 481.924 " fill="none" stroke="rgb(0, 0, 0)" stroke-linecap="butt" stroke-linejoin="round" stroke-opacity="1.0" stroke-width="3.0" />
            <path d=" M 564.011, 243.888 561.224, 241.908 " fill="none" stroke="rgb(0, 0, 0)" stroke-linecap="butt" stroke-linejoin="round" stroke-opacity="1.0" stroke-width="3.0" />
            <path d=" M 735.880, 518.590 729.715, 518.279 " fill="none" stroke="rgb(0, 0, 0)" stroke-linecap="butt" stroke-linejoin="round" stroke-opacity="1.0" stroke-width="3.0" />
        </g>
    </g>
</svg>
