<?xml version='1.0' encoding='ascii'?>
<svg xmlns="http://www.w3.org/2000/svg" height="1080" version="1.1" width="1080">
    <g id="View Layer_LineSet" inkscape:groupmode="lineset" inkscape:label="View Layer_LineSet" xmlns:inkscape="http://www.inkscape.org/namespaces/inkscape">
        <g id="strokes" inkscape:groupmode="layer" inkscape:label="strokes" xmlns:inkscape="http://www.inkscape.org/namespaces/inkscape">
            <path d=" M 565.129, 501.507 565.079, 502.651 565.010, 503.770 564.922, 504.853 564.817, 505.891 564.697, 506.852 564.695, 506.872 564.557, 507.786 564.404, 508.625 564.398, 508.652 " fill="none" stroke="rgb(0, 0, 0)" stroke-linecap="butt" stroke-linejoin="round" stroke-opacity="1.0" stroke-width="3.0" />
            <path d=" M 352.976, 557.431 359.339, 558.323 " fill="none" stroke="rgb(0, 0, 0)" stroke-linecap="butt" stroke-linejoin="round" stroke-opacity="1.0" stroke-width="3.0" />
            <path d=" M 377.274, 558.737 387.266, 558.346 389.306, 558.267 " fill="none" stroke="rgb(0, 0, 0)" stroke-linecap="butt" stroke-linejoin="round" stroke-opacity="1.0" stroke-width="3.0" />
            <path d=" M 389.306, 558.267 385.271, 549.117 381.236, 539.967 380.188, 537.591 " fill="none" stroke="rgb(0, 0, 0)" stroke-linecap="butt" stroke-linejoin="round" stroke-opacity="1.0" stroke-width="3.0" />
            <path d=" M 466.147, 185.115 461.631, 186.042 457.059, 188.061 452.445, 191.201 447.807, 195.496 443.160, 200.970 440.995, 204.084 439.404, 206.373 438.521, 207.643 433.911, 215.528 429.433, 224.470 429.349, 224.638 425.362, 233.808 424.856, 234.973 421.295, 244.317 420.454, 246.526 417.267, 256.004 416.165, 259.283 413.311, 268.867 412.013, 273.224 409.456, 282.891 408.021, 288.315 405.732, 298.050 404.211, 304.516 402.167, 314.305 400.607, 321.775 398.789, 331.608 397.232, 340.033 395.624, 349.903 394.107, 359.218 392.696, 369.118 391.285, 379.018 391.252, 379.252 390.027, 389.176 388.803, 399.101 388.686, 400.046 387.640, 409.991 386.594, 419.936 386.429, 421.505 385.553, 431.466 384.677, 441.428 384.493, 443.524 383.783, 453.498 383.072, 463.473 382.893, 465.994 382.344, 475.979 381.795, 485.964 381.639, 488.801 381.249, 498.794 380.859, 508.786 380.740, 511.827 380.507, 521.825 380.274, 531.822 380.201, 534.952 380.188, 537.591 378.823, 547.498 377.457, 557.404 377.274, 558.737 " fill="none" stroke="rgb(0, 0, 0)" stroke-linecap="butt" stroke-linejoin="round" stroke-opacity="1.0" stroke-width="3.0" />
            <path d=" M 566.928, 521.021 567.119, 521.025 567.994, 521.040 574.841, 519.088 577.930, 518.433 577.989, 508.434 578.017, 503.619 577.958, 493.620 577.930, 488.838 577.752, 478.839 577.668, 474.109 577.370, 464.113 577.231, 459.453 576.810, 449.462 576.617, 444.891 576.070, 434.906 575.826, 430.443 575.151, 420.466 574.858, 416.131 574.051, 406.164 573.712, 401.978 572.767, 392.022 572.386, 388.006 571.300, 378.065 570.882, 374.239 570.608, 372.036 " fill="none" stroke="rgb(0, 0, 0)" stroke-linecap="butt" stroke-linejoin="round" stroke-opacity="1.0" stroke-width="3.0" />
            <path d=" M 567.557, 377.426 568.015, 381.065 569.113, 391.004 569.468, 394.214 570.423, 404.169 570.749, 407.569 571.565, 417.535 571.857, 421.104 572.540, 431.081 572.794, 434.798 573.347, 444.783 573.560, 448.629 573.986, 458.620 574.155, 462.574 574.457, 472.569 574.580, 476.613 574.761, 486.611 574.835, 490.725 574.897, 500.725 574.922, 504.890 574.916, 505.986 574.836, 506.706 574.747, 507.393 574.650, 508.043 574.546, 508.653 574.435, 509.218 574.318, 509.737 574.195, 510.206 574.067, 510.623 573.935, 510.985 573.799, 511.292 573.661, 511.540 573.521, 511.728 573.380, 511.857 573.239, 511.924 569.196, 512.957 569.021, 511.814 568.820, 510.826 568.595, 510.010 568.351, 509.381 568.091, 508.948 567.821, 508.721 567.543, 508.703 567.263, 508.699 565.118, 508.664 564.688, 508.657 564.398, 508.652 563.747, 508.642 562.900, 508.628 559.328, 508.571 557.543, 508.542 557.419, 508.540 557.153, 508.535 556.863, 508.728 556.576, 509.128 556.297, 509.729 556.030, 510.522 555.781, 511.495 555.553, 512.629 555.552, 512.635 555.351, 513.908 555.177, 515.308 555.036, 516.806 554.967, 517.819 554.929, 518.377 554.921, 518.547 554.858, 519.992 554.825, 521.626 555.449, 521.637 557.296, 521.670 557.401, 521.672 559.185, 521.704 562.756, 521.767 563.594, 521.782 564.543, 521.799 565.292, 521.812 566.920, 521.347 566.928, 521.021 566.932, 520.830 566.958, 520.323 566.998, 519.840 567.051, 519.393 567.115, 518.997 567.147, 518.848 567.188, 518.660 567.268, 518.393 567.354, 518.202 567.395, 518.152 567.442, 518.093 567.531, 518.069 " fill="none" stroke="rgb(0, 0, 0)" stroke-linecap="butt" stroke-linejoin="round" stroke-opacity="1.0" stroke-width="3.0" />
            <path d=" M 385.543, 258.921 385.458, 259.206 382.897, 268.873 381.801, 273.008 379.510, 282.741 378.280, 287.962 376.230, 297.750 374.914, 304.030 373.083, 313.861 371.722, 321.164 370.093, 331.030 368.725, 339.308 367.282, 349.203 365.942, 358.393 364.672, 368.312 363.389, 378.344 362.284, 388.283 361.179, 398.221 361.084, 399.075 360.136, 409.030 359.187, 418.985 359.043, 420.495 358.245, 430.463 357.446, 440.432 357.280, 442.502 356.626, 452.481 355.972, 462.459 355.806, 464.988 355.293, 474.975 354.780, 484.962 354.632, 487.843 354.257, 497.836 353.883, 507.828 353.766, 510.948 353.528, 520.945 353.290, 530.942 353.213, 534.184 353.111, 544.184 353.009, 554.183 352.976, 557.431 353.057, 567.430 353.138, 577.430 353.163, 580.458 353.406, 590.455 353.648, 600.452 353.716, 603.229 354.123, 613.221 354.531, 623.212 354.629, 625.627 355.206, 635.611 355.783, 645.594 355.896, 647.540 356.649, 657.511 357.403, 667.483 357.507, 668.858 358.445, 678.814 359.383, 688.770 359.450, 689.484 360.582, 699.420 361.711, 709.324 363.051, 719.234 364.275, 728.292 365.837, 738.169 367.126, 746.313 368.928, 756.150 370.243, 763.323 372.309, 773.107 373.608, 779.263 374.091, 781.255 " fill="none" stroke="rgb(0, 0, 0)" stroke-linecap="butt" stroke-linejoin="round" stroke-opacity="1.0" stroke-width="3.0" />
            <path d=" M 523.047, 537.765 522.855, 546.017 522.515, 556.011 522.374, 560.159 521.926, 570.149 521.742, 574.262 521.185, 584.246 520.959, 588.305 520.292, 598.283 520.025, 602.271 519.246, 612.240 518.942, 616.138 518.048, 626.098 517.708, 629.886 517.525, 631.687 " fill="none" stroke="rgb(0, 0, 0)" stroke-linecap="butt" stroke-linejoin="round" stroke-opacity="1.0" stroke-width="3.0" />
            <path d=" M 499.419, 746.870 497.251, 755.954 494.736, 765.632 494.413, 766.876 491.686, 776.497 491.435, 777.380 488.478, 786.933 488.322, 787.437 485.112, 796.907 485.076, 797.014 481.699, 806.076 478.196, 814.590 474.570, 822.522 470.827, 829.836 466.972, 836.492 463.010, 842.455 458.949, 847.688 454.796, 852.151 451.175, 855.274 " fill="none" stroke="rgb(0, 0, 0)" stroke-linecap="butt" stroke-linejoin="round" stroke-opacity="1.0" stroke-width="3.0" />
            <path d=" M 389.343, 553.029 389.306, 558.267 389.373, 568.266 389.439, 578.266 389.459, 581.237 389.688, 591.234 389.917, 601.232 389.980, 603.953 390.375, 613.945 390.770, 623.937 390.864, 626.298 391.430, 636.282 391.996, 646.266 392.103, 648.161 392.846, 658.133 393.588, 668.106 393.687, 669.434 394.613, 679.391 395.539, 689.348 395.601, 690.019 396.719, 699.957 397.829, 709.824 399.150, 719.736 400.353, 728.761 401.892, 738.642 403.155, 746.758 404.926, 756.599 406.213, 763.747 408.237, 773.540 409.504, 779.673 411.807, 789.404 413.009, 794.485 415.618, 804.139 416.702, 808.147 419.655, 817.701 420.561, 820.632 423.903, 830.057 424.563, 831.917 428.352, 841.172 428.687, 841.990 432.910, 850.849 437.211, 858.498 439.029, 861.188 439.284, 861.564 441.570, 864.944 445.968, 870.204 450.386, 874.301 454.808, 877.259 459.218, 879.107 463.601, 879.878 467.943, 879.610 472.233, 878.340 476.457, 876.104 480.607, 872.947 482.959, 870.612 484.674, 868.910 488.648, 864.032 492.524, 858.356 496.294, 851.924 499.952, 844.778 503.495, 836.955 506.917, 828.497 510.215, 819.443 510.824, 817.597 513.386, 809.829 516.260, 800.251 516.428, 799.690 516.932, 797.850 " fill="none" stroke="rgb(0, 0, 0)" stroke-linecap="butt" stroke-linejoin="round" stroke-opacity="1.0" stroke-width="3.0" />
            <path d=" M 463.715, 861.435 459.914, 860.566 459.634, 860.502 455.542, 858.551 451.454, 855.553 451.175, 855.274 447.385, 851.484 443.348, 846.324 439.363, 840.053 435.445, 832.658 431.612, 824.136 428.007, 814.808 427.882, 814.484 424.708, 805.001 424.275, 803.707 421.477, 794.107 420.810, 791.819 418.342, 782.129 417.506, 778.843 415.333, 769.082 414.381, 764.805 412.474, 754.989 411.455, 749.742 409.789, 739.881 408.746, 733.699 407.302, 723.804 406.271, 716.733 405.033, 706.810 404.047, 698.903 403.002, 688.958 402.091, 680.279 401.227, 670.316 400.414, 660.941 399.723, 650.965 399.031, 640.974 398.506, 630.988 397.980, 621.002 397.952, 620.468 397.587, 610.475 397.221, 600.482 397.186, 599.523 396.975, 589.525 396.765, 579.527 396.738, 578.239 396.680, 568.239 396.622, 558.239 396.619, 557.667 " fill="none" stroke="rgb(0, 0, 0)" stroke-linecap="butt" stroke-linejoin="round" stroke-opacity="1.0" stroke-width="3.0" />
            <path d=" M 513.512, 789.369 511.143, 797.002 508.060, 806.043 504.864, 814.537 501.557, 822.451 498.145, 829.747 494.632, 836.387 491.023, 842.336 487.326, 847.557 483.546, 852.009 479.692, 855.654 475.772, 858.457 471.796, 860.380 467.773, 861.384 463.715, 861.435 " fill="none" stroke="rgb(0, 0, 0)" stroke-linecap="butt" stroke-linejoin="round" stroke-opacity="1.0" stroke-width="3.0" />
            <path d=" M 554.921, 518.547 548.958, 518.385 548.109, 518.362 546.389, 518.315 546.259, 528.315 546.205, 532.445 545.977, 542.443 545.882, 546.574 545.557, 556.569 545.422, 560.683 544.998, 570.674 544.825, 574.754 544.302, 584.740 544.091, 588.765 543.467, 598.746 543.219, 602.698 542.493, 612.672 542.212, 616.534 541.382, 626.499 541.069, 630.251 540.131, 640.207 539.790, 643.829 538.742, 653.774 538.376, 657.247 537.214, 667.179 536.827, 670.483 535.546, 680.400 535.144, 683.513 533.740, 693.414 533.328, 696.316 531.793, 706.197 531.379, 708.867 531.180, 710.039 " fill="none" stroke="rgb(0, 0, 0)" stroke-linecap="butt" stroke-linejoin="round" stroke-opacity="1.0" stroke-width="3.0" />
            <path d=" M 533.708, 718.438 533.966, 716.850 535.437, 706.959 535.925, 703.679 537.270, 693.770 537.747, 690.257 538.972, 680.332 539.432, 676.606 540.542, 666.668 540.980, 662.751 541.980, 652.801 542.391, 648.714 543.285, 638.754 543.665, 634.517 544.456, 624.549 544.803, 620.183 545.494, 610.207 545.804, 605.730 546.398, 595.748 546.670, 591.181 547.168, 581.193 547.400, 576.554 547.805, 566.562 547.995, 561.869 548.306, 551.874 548.454, 547.146 548.674, 537.148 548.778, 532.402 548.906, 522.403 548.958, 518.385 " fill="none" stroke="rgb(0, 0, 0)" stroke-linecap="butt" stroke-linejoin="round" stroke-opacity="1.0" stroke-width="3.0" />
            <path d=" M 377.274, 558.737 377.343, 568.737 377.413, 578.737 377.441, 582.649 377.671, 592.646 377.901, 602.643 377.985, 606.290 378.378, 616.282 378.772, 626.274 378.900, 629.538 379.461, 639.522 380.023, 649.506 380.178, 652.273 380.914, 662.246 381.650, 672.219 381.809, 674.384 382.727, 684.341 383.644, 694.299 383.779, 695.764 384.888, 705.702 385.996, 715.641 386.072, 716.317 387.384, 726.231 388.671, 735.954 390.201, 745.836 391.557, 754.595 393.322, 764.438 394.709, 772.173 396.730, 781.967 398.105, 788.630 400.410, 798.360 401.725, 803.913 404.344, 813.564 405.544, 817.988 408.516, 827.537 409.540, 830.827 412.913, 840.241 413.690, 842.408 417.524, 851.644 417.971, 852.720 422.361, 861.765 426.838, 869.547 431.381, 876.076 435.972, 881.373 440.591, 885.463 445.219, 888.374 449.841, 890.137 454.442, 890.789 459.005, 890.370 463.520, 888.920 467.973, 886.479 472.353, 883.093 476.651, 878.807 480.858, 873.661 " fill="none" stroke="rgb(0, 0, 0)" stroke-linecap="butt" stroke-linejoin="round" stroke-opacity="1.0" stroke-width="3.0" />
            <path d=" M 480.858, 873.661 487.147, 865.887 488.648, 864.032 " fill="none" stroke="rgb(0, 0, 0)" stroke-linecap="butt" stroke-linejoin="round" stroke-opacity="1.0" stroke-width="3.0" />
            <path d=" M 540.093, 543.474 530.094, 543.640 528.701, 543.664 525.717, 540.550 523.047, 537.765 519.172, 533.722 " fill="none" stroke="rgb(0, 0, 0)" stroke-linecap="butt" stroke-linejoin="round" stroke-opacity="1.0" stroke-width="3.0" />
            <path d=" M 524.616, 498.797 529.077, 492.111 539.054, 492.797 540.502, 492.897 540.578, 502.897 540.655, 512.896 540.695, 518.161 540.521, 528.160 540.449, 532.297 540.130, 542.292 540.093, 543.474 533.321, 536.115 531.285, 533.903 531.016, 533.611 530.747, 533.318 530.477, 533.025 530.208, 532.732 529.896, 532.267 529.600, 531.578 529.328, 530.677 529.113, 529.706 529.086, 529.582 528.880, 528.312 528.713, 526.893 528.589, 525.351 528.509, 523.715 528.506, 523.611 528.475, 522.018 528.488, 520.292 528.547, 518.571 528.621, 517.398 528.652, 516.889 528.801, 515.277 528.990, 513.767 529.216, 512.388 529.263, 512.164 529.474, 511.167 529.759, 510.127 530.067, 509.286 530.388, 508.662 530.662, 508.232 530.938, 507.802 531.213, 507.373 531.487, 506.945 531.626, 506.730 537.026, 498.314 540.502, 492.897 " fill="none" stroke="rgb(0, 0, 0)" stroke-linecap="butt" stroke-linejoin="round" stroke-opacity="1.0" stroke-width="3.0" />
            <path d=" M 530.843, 523.653 530.720, 523.551 530.605, 523.317 530.504, 522.960 530.422, 522.498 530.363, 521.950 530.328, 521.341 530.320, 520.697 530.338, 520.046 530.382, 519.417 530.450, 518.838 530.539, 518.333 530.645, 517.926 530.764, 517.634 530.889, 517.469 531.016, 517.439 " fill="none" stroke="rgb(0, 0, 0)" stroke-linecap="butt" stroke-linejoin="round" stroke-opacity="1.0" stroke-width="3.0" />
            <path d=" M 531.016, 517.439 531.139, 517.545 531.253, 517.781 531.353, 518.138 531.435, 518.599 531.494, 519.145 531.529, 519.752 531.537, 520.394 531.519, 521.042 531.475, 521.669 531.407, 522.247 531.318, 522.751 531.213, 523.158 531.095, 523.452 530.969, 523.620 530.843, 523.653 " fill="none" stroke="rgb(0, 0, 0)" stroke-linecap="butt" stroke-linejoin="round" stroke-opacity="1.0" stroke-width="3.0" />
            <path d=" M 360.899, 487.549 360.752, 490.573 360.406, 500.567 360.059, 510.561 359.971, 513.123 359.762, 523.121 359.553, 533.119 359.499, 535.737 359.444, 543.484 359.373, 553.484 359.339, 558.323 359.407, 568.323 359.475, 578.322 359.492, 580.791 359.699, 590.789 359.907, 600.786 359.954, 603.052 360.111, 607.528 " fill="none" stroke="rgb(0, 0, 0)" stroke-linecap="butt" stroke-linejoin="round" stroke-opacity="1.0" stroke-width="3.0" />
            <path d=" M 539.928, 736.770 541.468, 726.890 541.633, 725.835 543.066, 715.938 543.430, 713.423 544.760, 703.512 545.119, 700.839 546.350, 690.915 546.699, 688.095 547.834, 678.160 548.172, 675.208 549.214, 665.262 549.535, 662.190 550.487, 652.235 550.791, 649.055 551.654, 639.092 551.938, 635.816 552.716, 625.846 552.978, 622.485 553.670, 612.509 553.909, 609.075 554.518, 599.094 554.732, 595.598 555.259, 585.612 555.446, 582.064 555.893, 572.074 556.053, 568.486 556.419, 558.493 556.551, 554.875 556.837, 544.879 556.941, 541.242 557.146, 531.244 557.222, 527.598 557.296, 521.670 " fill="none" stroke="rgb(0, 0, 0)" stroke-linecap="butt" stroke-linejoin="round" stroke-opacity="1.0" stroke-width="3.0" />
            <path d=" M 457.225, 921.532 459.651, 921.702 463.790, 921.428 467.890, 920.341 471.941, 918.472 475.938, 915.850 479.873, 912.506 483.741, 908.472 487.535, 903.778 491.252, 898.455 494.886, 892.532 498.433, 886.039 501.891, 879.006 505.256, 871.459 508.526, 863.428 511.697, 854.938 514.769, 846.015 517.739, 836.685 520.570, 827.094 520.607, 826.971 523.252, 817.327 523.370, 816.897 524.180, 813.723 " fill="none" stroke="rgb(0, 0, 0)" stroke-linecap="butt" stroke-linejoin="round" stroke-opacity="1.0" stroke-width="3.0" />
            <path d=" M 521.842, 200.204 519.271, 192.872 516.227, 184.995 513.070, 177.619 509.802, 170.773 506.424, 164.485 502.939, 158.785 499.350, 153.704 495.662, 149.272 491.878, 145.520 488.002, 142.481 484.041, 140.184 480.000, 138.662 475.885, 137.945 471.705, 138.062 471.663, 138.072 467.466, 139.044 463.179, 140.917 458.852, 143.708 454.496, 147.442 450.122, 152.139 445.741, 157.820 441.368, 164.500 437.014, 172.193 432.694, 180.907 430.399, 186.142 428.424, 190.646 424.784, 199.961 424.217, 201.411 420.912, 210.849 420.180, 212.940 420.090, 213.197 417.086, 222.735 416.060, 225.992 413.327, 235.611 412.142, 239.780 409.656, 249.466 408.354, 254.539 406.095, 264.281 404.712, 270.241 402.662, 280.028 401.233, 286.850 399.378, 296.677 397.933, 304.326 396.260, 314.185 394.829, 322.621 393.328, 332.507 391.936, 341.680 390.598, 351.590 389.268, 361.445 388.086, 371.375 386.904, 381.305 386.839, 381.850 385.807, 391.797 384.775, 401.743 384.663, 402.824 383.775, 412.784 382.888, 422.745 382.750, 424.290 382.003, 434.262 381.256, 444.234 381.111, 446.169 380.502, 456.151 379.892, 466.132 379.755, 468.377 379.280, 478.366 378.806, 488.355 378.689, 490.828 378.348, 500.822 378.007, 510.816 377.917, 513.432 377.709, 523.429 377.501, 533.427 377.445, 536.098 377.369, 546.098 377.294, 556.098 377.274, 558.737 377.331, 568.737 377.389, 578.737 377.403, 581.257 377.595, 591.256 377.787, 601.254 377.832, 603.570 378.161, 613.565 378.490, 623.559 378.556, 625.587 379.025, 635.576 379.494, 645.565 379.572, 647.224 380.184, 657.205 380.796, 667.187 380.871, 668.400 381.631, 678.371 382.392, 688.342 382.445, 689.038 383.360, 698.996 384.286, 709.064 385.362, 719.006 386.381, 728.413 387.627, 738.335 388.718, 747.022 390.145, 756.919 391.286, 764.835 392.904, 774.704 394.068, 781.804 395.892, 791.637 397.051, 797.886 399.097, 807.674 400.220, 813.042 402.508, 822.777 403.558, 827.243 406.112, 836.912 407.051, 840.465 409.898, 850.051 410.682, 852.689 413.856, 862.172 414.435, 863.902 417.976, 873.255 418.296, 874.098 422.248, 883.275 426.276, 891.434 430.367, 898.584 434.506, 904.735 438.680, 909.903 442.876, 914.105 447.082, 917.362 451.287, 919.696 455.480, 921.134 458.023, 921.480 459.651, 921.702 " fill="none" stroke="rgb(0, 0, 0)" stroke-linecap="butt" stroke-linejoin="round" stroke-opacity="1.0" stroke-width="3.0" />
            <path d=" M 469.250, 138.140 464.985, 139.122 460.670, 140.996 456.316, 143.787 451.933, 147.520 447.531, 152.216 443.124, 157.896 438.723, 164.575 434.343, 172.266 429.997, 180.977 427.537, 186.553 425.701, 190.714 422.041, 200.021 421.469, 201.476 418.146, 210.908 417.318, 213.258 414.296, 222.790 413.429, 225.529 413.264, 226.049 410.515, 235.664 409.323, 239.832 406.823, 249.515 405.513, 254.587 403.241, 264.325 401.850, 270.283 399.788, 280.068 398.352, 286.886 396.486, 296.710 395.034, 304.356 393.351, 314.213 391.912, 322.643 390.403, 332.529 389.003, 341.696 387.658, 351.605 386.321, 361.453 385.133, 371.383 383.945, 381.312 383.880, 381.850 382.843, 391.796 381.805, 401.742 381.693, 402.816 380.801, 412.776 379.909, 422.736 379.771, 424.273 379.021, 434.245 378.270, 444.217 378.125, 446.144 377.513, 456.125 376.901, 466.107 376.763, 468.344 376.287, 478.332 375.811, 488.321 375.693, 490.785 375.351, 500.779 375.009, 510.774 374.920, 513.380 374.712, 523.378 374.504, 533.376 374.448, 536.038 374.373, 546.038 374.298, 556.037 374.279, 558.668 374.338, 568.668 374.397, 578.668 374.412, 581.179 374.607, 591.178 374.801, 601.176 374.846, 603.483 375.179, 613.478 375.511, 623.472 375.578, 625.492 376.052, 635.481 376.525, 645.470 376.603, 647.121 377.221, 657.102 377.838, 667.083 377.913, 668.289 378.680, 678.260 379.447, 688.230 379.500, 688.919 380.423, 698.877 381.355, 708.939 382.440, 718.880 383.466, 728.281 384.721, 738.202 385.820, 746.883 387.257, 756.780 388.406, 764.691 390.036, 774.558 391.208, 781.655 393.045, 791.485 394.212, 797.732 396.273, 807.517 397.403, 812.884 399.707, 822.615 400.764, 827.081 403.335, 836.745 404.281, 840.300 407.146, 849.880 407.936, 852.521 411.130, 861.997 411.715, 863.732 415.277, 873.076 415.601, 873.926 419.579, 883.100 423.635, 891.259 427.753, 898.408 431.919, 904.559 436.120, 909.727 440.343, 913.930 444.576, 917.187 448.808, 919.523 453.028, 920.963 457.225, 921.532 " fill="none" stroke="rgb(0, 0, 0)" stroke-linecap="butt" stroke-linejoin="round" stroke-opacity="1.0" stroke-width="3.0" />
            <path d=" M 471.705, 138.062 469.250, 138.140 " fill="none" stroke="rgb(0, 0, 0)" stroke-linecap="butt" stroke-linejoin="round" stroke-opacity="1.0" stroke-width="3.0" />
            <path d=" M 545.990, 751.369 546.284, 749.570 547.786, 739.683 548.266, 736.522 549.665, 726.620 550.135, 723.287 551.434, 713.371 551.891, 709.881 553.093, 699.953 553.533, 696.318 554.643, 686.380 555.063, 682.614 556.082, 672.666 556.480, 668.782 557.411, 658.825 557.784, 654.835 558.630, 644.870 558.977, 640.785 559.739, 630.814 560.057, 626.646 560.737, 616.669 561.025, 612.428 561.624, 602.446 561.882, 598.145 562.401, 588.158 562.627, 583.806 563.066, 573.816 563.260, 569.423 563.621, 559.430 563.781, 555.008 564.064, 545.012 564.190, 540.570 564.396, 530.572 564.488, 526.121 564.543, 521.799 " fill="none" stroke="rgb(0, 0, 0)" stroke-linecap="butt" stroke-linejoin="round" stroke-opacity="1.0" stroke-width="3.0" />
            <path d=" M 454.792, 950.828 457.211, 951.006 461.694, 951.250 466.136, 950.590 470.527, 949.059 474.859, 946.693 479.125, 943.528 483.318, 939.600 487.432, 934.942 491.462, 929.592 495.403, 923.582 499.250, 916.947 503.001, 909.719 506.652, 901.932 510.199, 893.615 513.642, 884.798 516.977, 875.512 520.125, 866.021 520.203, 865.784 523.140, 856.225 523.319, 855.640 526.062, 846.024 526.324, 845.107 528.889, 835.442 529.216, 834.209 531.020, 826.914 " fill="none" stroke="rgb(0, 0, 0)" stroke-linecap="butt" stroke-linejoin="round" stroke-opacity="1.0" stroke-width="3.0" />
            <path d=" M 540.157, 222.252 539.256, 218.106 536.957, 208.374 536.694, 207.261 534.207, 197.575 534.006, 196.791 531.314, 187.161 531.191, 186.723 528.250, 177.082 525.182, 167.897 521.989, 159.197 518.672, 151.012 515.232, 143.373 511.671, 136.312 507.992, 129.864 504.197, 124.061 500.290, 118.938 496.274, 114.532 492.154, 110.877 487.935, 108.009 483.623, 105.966 479.225, 104.783 474.748, 104.495 473.570, 104.661 470.200, 105.137 465.591, 106.743 460.930, 109.345 456.229, 112.973 451.499, 117.656 446.754, 123.417 442.007, 130.281 437.272, 138.263 432.684, 147.148 432.566, 147.378 428.428, 156.482 427.904, 157.636 424.163, 166.910 423.696, 168.068 423.304, 169.040 419.915, 178.449 418.784, 181.589 418.045, 183.874 414.970, 193.389 414.457, 194.976 414.361, 195.273 411.569, 204.875 410.056, 210.078 407.519, 219.751 405.886, 225.982 403.584, 235.714 401.871, 242.956 399.785, 252.737 398.030, 260.964 396.144, 270.785 395.414, 274.591 394.382, 279.961 392.684, 289.816 390.986, 299.671 390.947, 299.895 389.425, 309.779 387.902, 319.662 387.741, 320.707 386.386, 330.614 385.030, 340.522 384.783, 342.329 383.586, 352.257 382.390, 362.186 382.088, 364.689 381.044, 374.634 379.999, 384.579 379.671, 387.704 378.774, 397.664 377.877, 407.624 377.547, 411.290 376.792, 421.262 376.038, 431.233 375.726, 435.354 375.111, 445.335 374.496, 455.316 374.220, 459.799 373.742, 469.787 373.264, 479.776 373.036, 484.526 372.693, 494.520 372.351, 504.514 372.182, 509.431 371.974, 519.429 371.765, 529.427 371.661, 534.411 371.587, 544.411 371.513, 554.410 371.476, 559.360 371.537, 569.359 371.598, 579.359 371.627, 584.172 371.825, 594.170 372.022, 604.168 372.112, 608.746 372.448, 618.740 372.784, 628.735 372.926, 632.979 373.404, 642.968 373.882, 652.956 374.064, 656.774 374.688, 666.755 375.311, 676.735 375.517, 680.038 376.292, 690.008 377.066, 699.978 377.276, 702.683 378.207, 712.639 379.138, 722.596 379.328, 724.626 380.424, 734.565 381.519, 744.505 381.661, 745.791 382.930, 755.710 384.199, 765.629 384.260, 766.109 385.713, 776.002 387.110, 785.518 388.760, 795.381 390.195, 803.964 392.056, 813.789 393.497, 821.400 395.586, 831.179 396.998, 837.787 398.886, 845.631 400.681, 853.092 401.769, 857.109 404.383, 866.761 404.528, 867.293 407.447, 876.857 408.519, 880.371 409.838, 884.196 412.638, 892.316 414.630, 897.406 416.867, 903.123 420.946, 912.253 421.188, 912.794 425.584, 921.337 430.040, 928.762 434.540, 935.086 439.069, 940.329 443.613, 944.515 448.159, 947.671 452.696, 949.824 456.988, 950.948 457.211, 951.006 " fill="none" stroke="rgb(0, 0, 0)" stroke-linecap="butt" stroke-linejoin="round" stroke-opacity="1.0" stroke-width="3.0" />
            <path d=" M 362.375, 457.038 362.209, 459.677 361.724, 469.665 361.239, 479.653 361.010, 484.365 360.899, 487.549 360.553, 497.543 360.206, 507.537 360.148, 509.231 359.939, 519.229 359.730, 529.226 359.627, 534.171 359.563, 543.227 359.493, 553.227 359.463, 557.456 359.451, 559.081 359.519, 569.080 359.587, 579.080 359.619, 583.855 359.827, 593.853 359.867, 595.772 360.074, 605.770 360.111, 607.528 360.129, 608.390 360.479, 618.384 360.829, 628.378 360.976, 632.586 361.074, 634.568 " fill="none" stroke="rgb(0, 0, 0)" stroke-linecap="butt" stroke-linejoin="round" stroke-opacity="1.0" stroke-width="3.0" />
            <path d=" M 472.325, 104.582 467.749, 105.225 463.110, 106.831 458.421, 109.434 453.690, 113.062 448.931, 117.744 444.157, 123.505 439.380, 130.366 434.617, 138.347 430.007, 147.221 429.882, 147.460 425.723, 156.555 425.193, 157.716 421.432, 166.982 420.565, 169.117 417.158, 178.518 416.018, 181.661 415.089, 184.518 411.997, 194.028 411.570, 195.341 410.093, 200.388 407.285, 209.985 407.239, 210.141 406.637, 212.424 404.086, 222.094 403.045, 226.040 400.730, 235.768 399.008, 243.009 396.910, 252.786 395.145, 261.010 393.249, 270.828 391.478, 280.000 389.770, 289.853 388.062, 299.706 388.023, 299.927 386.492, 309.809 386.426, 310.239 384.895, 320.121 384.801, 320.730 383.438, 330.637 382.074, 340.544 381.827, 342.345 380.623, 352.272 379.420, 362.199 379.118, 364.695 378.068, 374.640 377.018, 384.585 376.689, 387.702 375.788, 397.661 374.886, 407.621 374.555, 411.279 373.796, 421.250 373.038, 431.221 372.726, 435.333 372.108, 445.314 371.490, 455.295 371.214, 459.768 370.734, 469.757 370.254, 479.745 370.026, 484.485 369.682, 494.479 369.339, 504.474 369.170, 509.381 368.961, 519.379 368.753, 529.377 368.649, 534.351 368.576, 544.351 368.503, 554.350 368.466, 559.290 368.529, 569.290 368.592, 579.289 368.622, 584.093 368.821, 594.091 369.021, 604.089 369.113, 608.657 369.452, 618.651 369.791, 628.645 369.935, 632.881 370.417, 642.869 370.900, 652.857 371.083, 656.667 371.712, 666.647 372.341, 676.627 372.549, 679.922 373.329, 689.892 374.110, 699.861 374.321, 702.559 375.260, 712.515 376.198, 722.471 376.389, 724.494 377.493, 734.433 378.597, 744.372 378.739, 745.652 380.018, 755.569 381.296, 765.487 381.357, 765.963 382.821, 775.855 384.228, 785.366 385.889, 795.227 387.334, 803.806 389.208, 813.629 390.659, 821.237 391.851, 826.778 393.955, 836.554 394.184, 837.619 396.539, 847.338 396.778, 848.322 397.892, 852.921 399.922, 860.363 401.765, 867.118 404.702, 876.677 405.783, 880.193 406.961, 883.587 409.930, 892.136 413.595, 901.440 414.186, 902.941 418.288, 912.061 418.535, 912.611 422.960, 921.153 427.445, 928.577 431.974, 934.902 436.532, 940.145 441.106, 944.332 445.682, 947.489 450.247, 949.644 454.792, 950.828 " fill="none" stroke="rgb(0, 0, 0)" stroke-linecap="butt" stroke-linejoin="round" stroke-opacity="1.0" stroke-width="3.0" />
            <path d=" M 474.748, 104.495 472.325, 104.582 " fill="none" stroke="rgb(0, 0, 0)" stroke-linecap="butt" stroke-linejoin="round" stroke-opacity="1.0" stroke-width="3.0" />
            <path d=" M 545.616, 227.801 543.780, 218.485 541.688, 208.707 541.281, 206.805 539.020, 197.064 538.651, 195.474 536.206, 185.778 535.889, 184.520 533.243, 174.877 532.994, 173.969 530.128, 164.388 529.966, 163.847 526.858, 154.343 526.807, 154.186 523.515, 145.014 520.093, 136.364 516.542, 128.268 512.862, 120.760 509.056, 113.875 505.128, 107.650 501.078, 102.120 496.913, 97.326 492.635, 93.303 488.251, 90.092 483.765, 87.732 479.185, 86.262 474.517, 85.720 469.700, 85.905 464.894, 86.332 460.019, 87.762 455.084, 90.232 450.101, 93.774 445.083, 98.420 440.044, 104.200 434.997, 111.139 429.959, 119.258 425.221, 128.064 424.947, 128.574 420.677, 137.616 419.977, 139.099 416.120, 148.325 415.068, 150.840 411.577, 160.210 410.240, 163.797 407.075, 173.282 405.513, 177.963 402.641, 187.541 400.907, 193.324 398.301, 202.979 396.443, 209.860 394.079, 219.577 392.141, 227.541 390.001, 237.310 388.024, 246.330 386.091, 256.142 385.543, 258.921 384.112, 266.181 382.372, 276.028 380.631, 285.876 380.426, 287.039 378.867, 296.917 377.308, 306.794 376.985, 308.842 375.597, 318.745 374.210, 328.648 373.808, 331.518 372.584, 341.443 371.361, 351.368 370.914, 354.990 369.847, 364.933 368.780, 374.876 368.320, 379.170 367.404, 389.128 366.488, 399.086 366.039, 403.967 365.270, 413.938 364.622, 422.338 364.087, 429.281 363.461, 439.261 362.835, 449.242 362.473, 455.008 362.375, 457.038 361.889, 467.026 361.404, 477.014 361.209, 481.040 361.191, 481.547 360.845, 491.541 360.498, 501.535 360.299, 507.267 360.091, 517.265 359.882, 527.262 359.751, 533.574 359.684, 542.966 359.613, 552.966 359.588, 556.578 359.565, 559.848 359.632, 569.848 359.700, 579.848 359.741, 585.976 359.949, 595.974 360.157, 605.972 360.194, 607.753 360.279, 611.846 360.629, 621.840 360.780, 626.163 361.074, 634.568 361.172, 637.348 361.341, 640.750 361.836, 650.738 362.332, 660.725 362.414, 662.377 363.059, 672.356 363.704, 682.336 363.995, 686.833 364.795, 696.801 365.595, 706.769 365.905, 710.621 366.866, 720.575 367.828, 730.529 368.130, 733.653 369.260, 743.589 370.391, 753.524 370.656, 755.847 371.965, 765.761 373.274, 775.675 373.466, 777.130 374.091, 781.255 375.590, 791.142 376.544, 797.437 378.246, 807.291 379.872, 816.710 381.791, 826.524 383.429, 834.901 385.585, 844.666 387.198, 851.969 389.612, 861.673 391.157, 867.883 393.856, 877.512 395.287, 882.618 398.302, 892.152 399.568, 896.157 402.937, 905.573 403.981, 908.492 407.748, 917.756 408.506, 919.620 412.724, 928.687 413.124, 929.545 417.817, 938.277 422.568, 945.831 427.361, 952.226 432.179, 957.485 437.008, 961.635 441.834, 964.707 446.643, 966.733 451.425, 967.747 456.237, 968.113 460.920, 968.146 465.555, 967.241 470.133, 965.434 474.645, 962.765 479.083, 959.271 483.441, 954.991 487.713, 949.962 491.894, 944.223 495.979, 937.810 499.963, 930.758 503.844, 923.103 507.619, 914.878 511.284, 906.116 514.838, 896.849 518.168, 887.420 518.278, 887.107 521.382, 877.601 521.604, 876.919 524.501, 867.347 524.814, 866.312 527.522, 856.686 527.908, 855.315 530.441, 845.641 530.883, 843.951 533.256, 834.237 533.742, 832.246 533.813, 831.934 " fill="none" stroke="rgb(0, 0, 0)" stroke-linecap="butt" stroke-linejoin="round" stroke-opacity="1.0" stroke-width="3.0" />
            <path d=" M 548.351, 756.423 548.410, 756.063 549.898, 746.175 550.442, 742.556 551.828, 732.653 552.357, 728.865 553.644, 718.948 554.156, 715.004 555.348, 705.075 555.839, 700.989 556.939, 691.050 557.405, 686.834 558.416, 676.885 558.856, 672.553 559.780, 662.596 560.192, 658.158 561.031, 648.194 561.412, 643.663 562.169, 633.692 562.518, 629.079 563.193, 619.102 563.510, 614.418 564.105, 604.436 564.387, 599.692 564.903, 589.706 565.151, 584.912 565.588, 574.921 565.800, 570.088 566.159, 560.094 566.335, 555.231 566.617, 545.235 566.755, 540.353 566.961, 530.355 567.062, 525.462 567.119, 521.025 " fill="none" stroke="rgb(0, 0, 0)" stroke-linecap="butt" stroke-linejoin="round" stroke-opacity="1.0" stroke-width="3.0" />
            <path d=" M 474.517, 85.720 469.771, 86.145 464.956, 87.574 460.082, 90.042 455.161, 93.584 450.204, 98.232 445.225, 104.013 440.239, 110.954 435.261, 119.076 430.568, 127.907 430.308, 128.397 426.081, 137.459 425.396, 138.927 421.579, 148.170 421.212, 149.059 420.545, 150.675 417.091, 160.059 415.773, 163.639 412.642, 173.136 411.100, 177.813 408.260, 187.402 406.547, 193.185 405.411, 197.443 402.833, 207.105 402.133, 209.732 400.151, 217.974 397.879, 227.425 395.763, 237.199 394.597, 242.582 393.807, 246.227 391.895, 256.043 389.983, 265.859 389.938, 266.092 388.217, 275.943 386.496, 285.794 386.291, 286.966 384.749, 296.846 383.974, 301.811 382.886, 308.785 381.514, 318.690 380.142, 328.596 379.742, 331.479 378.532, 341.405 377.321, 351.332 376.878, 354.969 375.822, 364.913 374.766, 374.857 374.665, 375.803 374.308, 379.168 373.401, 389.127 372.495, 399.086 372.049, 403.984 371.287, 413.955 370.525, 423.926 370.114, 429.318 369.493, 439.299 368.873, 449.280 368.513, 455.066 368.031, 465.054 367.550, 475.042 367.257, 481.119 366.912, 491.113 366.567, 501.107 366.352, 507.366 366.143, 517.364 365.935, 527.362 365.803, 533.694 365.730, 543.694 365.658, 553.694 365.612, 559.989 365.676, 569.989 365.740, 579.989 365.780, 586.138 365.982, 596.136 366.185, 606.134 366.304, 612.027 366.647, 622.021 366.990, 632.016 367.180, 637.549 367.666, 647.537 368.153, 657.525 368.400, 662.597 369.034, 672.577 369.668, 682.557 369.955, 687.071 370.743, 697.040 371.530, 707.009 371.836, 710.877 372.783, 720.832 373.729, 730.787 374.028, 733.924 375.142, 743.862 376.256, 753.800 376.517, 756.134 377.807, 766.050 379.097, 775.967 379.288, 777.431 379.967, 781.976 380.343, 784.493 381.820, 794.383 382.323, 797.751 384.001, 807.609 385.605, 817.036 387.498, 826.855 387.586, 827.312 388.696, 833.066 389.114, 835.237 391.242, 845.009 392.832, 852.315 395.215, 862.027 396.739, 868.237 397.028, 869.284 399.693, 878.923 400.815, 882.979 403.792, 892.525 405.040, 896.524 408.368, 905.954 409.395, 908.864 410.960, 912.765 413.861, 919.996 418.034, 929.083 418.420, 929.923 423.053, 938.657 427.744, 946.211 432.475, 952.605 437.233, 957.862 442.001, 962.011 446.766, 965.080 451.515, 967.102 456.237, 968.113 " fill="none" stroke="rgb(0, 0, 0)" stroke-linecap="butt" stroke-linejoin="round" stroke-opacity="1.0" stroke-width="3.0" />
            <path d=" M 565.292, 521.812 565.308, 520.993 565.325, 520.177 565.394, 518.559 565.429, 518.032 565.498, 516.986 565.635, 515.486 565.803, 514.084 565.984, 512.904 565.999, 512.803 566.220, 511.667 566.460, 510.694 566.718, 509.899 566.987, 509.297 567.262, 508.898 567.264, 508.896 567.543, 508.703 " fill="none" stroke="rgb(0, 0, 0)" stroke-linecap="butt" stroke-linejoin="round" stroke-opacity="1.0" stroke-width="3.0" />
            <path d=" M 567.994, 521.040 567.992, 520.529 567.975, 520.037 567.943, 519.575 567.899, 519.157 567.842, 518.795 567.775, 518.498 567.700, 518.274 567.617, 518.130 567.531, 518.069 " fill="none" stroke="rgb(0, 0, 0)" stroke-linecap="butt" stroke-linejoin="round" stroke-opacity="1.0" stroke-width="3.0" />
            <path d=" M 531.618, 478.405 531.575, 484.068 531.737, 484.070 537.131, 484.141 537.337, 484.114 537.236, 478.467 531.870, 478.378 531.629, 478.404 531.618, 478.405 " fill="none" stroke="rgb(0, 0, 0)" stroke-linecap="butt" stroke-linejoin="round" stroke-opacity="1.0" stroke-width="3.0" />
            <path d=" M 537.175, 478.473 531.618, 478.405 " fill="none" stroke="rgb(0, 0, 0)" stroke-linecap="butt" stroke-linejoin="round" stroke-opacity="1.0" stroke-width="3.0" />
            <path d=" M 537.131, 484.141 537.175, 478.473 537.236, 478.467 " fill="none" stroke="rgb(0, 0, 0)" stroke-linecap="butt" stroke-linejoin="round" stroke-opacity="1.0" stroke-width="3.0" />
            <path d=" M 534.147, 482.382 534.151, 482.383 534.160, 482.384 534.188, 482.387 534.365, 482.405 " fill="none" stroke="rgb(0, 0, 0)" stroke-linecap="butt" stroke-linejoin="round" stroke-opacity="1.0" stroke-width="3.0" />
            <path d=" M 534.224, 480.149 534.151, 480.161 534.069, 480.181 533.935, 480.227 533.740, 480.333 533.571, 480.473 533.432, 480.642 533.328, 480.836 533.264, 481.045 533.241, 481.263 533.263, 481.495 533.329, 481.711 533.435, 481.906 533.575, 482.075 533.744, 482.214 533.937, 482.318 534.027, 482.345 534.082, 482.362 534.147, 482.382 534.052, 482.355 " fill="none" stroke="rgb(0, 0, 0)" stroke-linecap="butt" stroke-linejoin="round" stroke-opacity="1.0" stroke-width="3.0" />
            <path d=" M 534.678, 482.363 534.827, 482.309 534.967, 482.233 535.095, 482.138 535.208, 482.025 535.304, 481.897 535.381, 481.756 535.438, 481.605 535.473, 481.447 535.485, 481.286 535.475, 481.125 535.443, 480.966 535.388, 480.814 535.313, 480.671 535.219, 480.541 535.108, 480.425 534.982, 480.327 534.843, 480.247 534.695, 480.189 534.540, 480.153 534.382, 480.139 534.224, 480.149 " fill="none" stroke="rgb(0, 0, 0)" stroke-linecap="butt" stroke-linejoin="round" stroke-opacity="1.0" stroke-width="3.0" />
            <path d=" M 534.207, 482.392 534.365, 482.405 534.523, 482.396 " fill="none" stroke="rgb(0, 0, 0)" stroke-linecap="butt" stroke-linejoin="round" stroke-opacity="1.0" stroke-width="3.0" />
            <path d=" M 534.523, 482.396 534.566, 482.388 534.678, 482.363 " fill="none" stroke="rgb(0, 0, 0)" stroke-linecap="butt" stroke-linejoin="round" stroke-opacity="1.0" stroke-width="3.0" />
            <path d=" M 621.641, 893.872 623.818, 894.375 631.723, 896.103 639.632, 897.081 647.528, 897.327 655.394, 896.859 663.214, 895.695 670.973, 893.856 678.656, 891.362 686.251, 888.234 693.744, 884.494 701.125, 880.164 708.382, 875.266 715.506, 869.822 722.487, 863.854 729.316, 857.385 735.986, 850.435 742.490, 843.027 748.820, 835.182 754.791, 827.161 754.970, 826.921 760.645, 818.687 760.935, 818.265 766.323, 809.840 766.711, 809.234 771.821, 800.638 772.291, 799.848 777.133, 791.098 777.672, 790.126 782.256, 781.239 782.850, 780.088 787.184, 771.076 787.821, 769.751 791.914, 760.627 792.583, 759.135 796.440, 749.910 797.131, 748.258 800.761, 738.940 801.465, 737.135 804.873, 727.734 805.580, 725.785 808.773, 716.308 809.475, 714.223 812.457, 704.678 813.148, 702.466 815.925, 692.860 816.598, 690.531 819.172, 680.868 819.821, 678.431 822.197, 668.718 822.817, 666.183 824.998, 656.424 825.584, 653.802 827.573, 644.002 828.121, 641.302 829.920, 631.465 830.426, 628.697 832.037, 618.827 832.498, 616.002 833.923, 606.104 834.337, 603.230 835.576, 593.307 835.940, 590.397 836.995, 580.453 837.307, 577.515 838.178, 567.553 838.437, 564.598 839.124, 554.622 839.328, 551.661 839.831, 541.674 839.980, 538.717 840.298, 528.722 840.391, 525.779 840.523, 515.780 840.561, 512.861 840.505, 502.862 840.489, 499.979 840.244, 489.982 840.174, 487.144 839.736, 477.154 839.615, 474.372 838.982, 464.392 838.810, 461.677 837.980, 451.712 837.761, 449.074 836.729, 439.127 836.464, 436.577 835.227, 426.654 834.921, 424.201 833.473, 414.307 833.130, 411.963 831.466, 402.102 831.090, 399.877 829.205, 390.057 828.802, 387.961 826.689, 378.187 826.265, 376.229 823.916, 366.509 823.479, 364.700 820.887, 355.042 820.444, 353.391 817.601, 343.804 817.160, 342.319 814.056, 332.813 813.628, 331.503 810.252, 322.090 809.848, 320.961 806.190, 311.654 805.820, 310.713 801.869, 301.527 801.547, 300.779 797.290, 291.730 797.030, 291.177 792.454, 282.286 792.271, 281.930 787.362, 273.218 787.272, 273.058 782.036, 264.583 776.565, 256.527 770.865, 248.911 764.938, 241.759 758.791, 235.094 752.429, 228.938 745.858, 223.315 739.085, 218.249 732.118, 213.763 724.966, 209.881 717.638, 206.624 710.145, 204.016 702.499, 202.080 694.712, 200.837 686.798, 200.306 678.771, 200.509 676.548, 200.687 " fill="none" stroke="rgb(0, 0, 0)" stroke-linecap="butt" stroke-linejoin="round" stroke-opacity="1.0" stroke-width="3.0" />
            <path d=" M 623.818, 894.375 623.537, 894.286 615.936, 891.883 608.097, 888.613 600.322, 884.552 592.630, 879.691 585.044, 874.023 577.587, 867.542 570.511, 860.475 570.281, 860.245 563.678, 852.735 563.150, 852.134 557.015, 844.237 556.218, 843.212 550.541, 834.980 549.509, 833.485 544.276, 824.963 543.048, 822.963 538.244, 814.193 537.899, 813.563 536.858, 811.662 535.749, 809.392 535.296, 808.466 533.938, 805.686 530.963, 799.598 528.819, 794.673 527.484, 791.607 526.071, 788.360 525.388, 786.792 522.061, 778.197 520.155, 773.270 519.569, 771.560 516.327, 762.100 515.286, 759.062 512.398, 749.488 510.803, 744.199 508.257, 734.529 506.727, 728.720 504.940, 720.863 503.076, 712.665 501.178, 702.847 499.869, 696.079 498.279, 686.206 497.120, 679.009 495.831, 669.092 494.845, 661.506 493.849, 651.555 493.056, 643.624 492.347, 633.649 491.762, 625.420 491.335, 615.430 490.972, 606.954 490.822, 596.955 490.691, 588.285 490.814, 578.286 490.923, 569.477 491.317, 559.485 491.668, 550.592 492.332, 540.614 492.926, 531.696 493.858, 521.739 494.069, 519.484 494.690, 512.852 495.892, 502.924 496.956, 494.124 498.427, 484.232 499.715, 475.575 501.457, 465.728 502.369, 460.579 502.954, 457.269 504.971, 447.474 506.662, 439.264 508.956, 429.531 510.821, 421.621 513.398, 411.958 515.416, 404.393 518.280, 394.812 520.426, 387.636 523.584, 378.148 525.831, 371.399 529.291, 362.016 530.547, 358.610 531.609, 355.729 534.061, 349.703 535.152, 347.023 537.737, 340.669 539.248, 337.293 543.335, 328.166 544.189, 326.260 545.481, 323.634 547.031, 320.484 548.618, 317.257 550.941, 312.535 552.600, 309.464 554.142, 306.610 556.857, 301.586 557.968, 299.529 558.378, 298.837 558.996, 297.796 564.098, 289.196 565.242, 287.267 570.704, 278.891 572.737, 275.775 578.571, 267.654 580.426, 265.072 586.644, 257.240 586.765, 257.087 588.284, 255.173 594.894, 247.670 596.284, 246.092 603.294, 238.961 604.400, 237.836 611.815, 231.127 612.607, 230.410 620.428, 224.178 620.880, 223.817 629.100, 218.122 629.196, 218.055 637.532, 213.119 645.866, 209.003 654.176, 205.696 662.442, 203.188 670.646, 201.464 677.452, 200.664 678.771, 200.509 " fill="none" stroke="rgb(0, 0, 0)" stroke-linecap="butt" stroke-linejoin="round" stroke-opacity="1.0" stroke-width="3.0" />
            <path d=" M 676.548, 200.687 668.413, 201.643 660.197, 203.366 651.920, 205.873 643.600, 209.178 635.256, 213.292 626.911, 218.224 618.686, 223.912 618.585, 223.982 610.759, 230.206 610.302, 230.569 602.881, 237.271 602.087, 237.988 595.069, 245.112 593.962, 246.236 587.345, 253.734 585.954, 255.309 585.160, 256.308 578.935, 264.134 578.089, 265.198 572.247, 273.314 570.392, 275.891 564.922, 284.262 562.890, 287.371 558.364, 294.985 557.741, 296.033 556.456, 298.195 555.610, 299.620 553.723, 303.106 552.178, 305.961 548.578, 312.612 546.556, 316.714 545.008, 319.854 541.820, 326.322 537.727, 335.446 535.363, 340.716 533.493, 345.303 532.611, 347.466 529.231, 355.759 528.475, 357.806 525.010, 367.186 523.450, 371.411 520.286, 380.898 519.076, 384.527 518.041, 387.630 515.153, 397.274 513.028, 404.368 510.448, 414.029 508.432, 421.576 506.134, 431.308 504.271, 439.199 502.251, 448.993 500.563, 457.183 498.818, 467.030 497.323, 475.469 495.850, 485.360 494.762, 492.665 494.564, 493.996 493.362, 503.923 492.916, 507.607 492.651, 509.792 492.423, 511.676 492.299, 512.702 491.919, 516.757 491.645, 519.687 491.613, 520.027 491.087, 525.641 490.535, 531.524 489.872, 541.502 489.280, 550.399 488.886, 560.392 488.537, 569.262 488.415, 579.262 488.308, 588.049 488.460, 598.048 488.592, 606.697 489.022, 616.688 489.386, 625.143 490.098, 635.118 490.684, 643.327 491.683, 653.276 492.478, 661.189 493.771, 671.105 494.758, 678.673 496.352, 688.545 497.512, 695.725 499.416, 705.542 500.726, 712.294 502.949, 722.044 503.882, 726.136 504.383, 728.333 506.936, 738.002 508.466, 743.797 510.964, 752.059 512.956, 758.645 516.205, 768.102 517.832, 772.840 518.727, 775.148 521.217, 781.566 523.073, 786.349 523.568, 787.483 526.768, 794.816 528.085, 797.833 528.657, 799.144 533.055, 808.125 533.301, 808.626 534.560, 811.198 534.666, 811.392 537.329, 816.242 540.759, 822.491 546.001, 831.007 547.230, 833.004 552.915, 841.230 553.948, 842.724 560.091, 850.615 560.889, 851.641 567.499, 859.145 568.030, 859.748 575.112, 866.808 575.346, 867.040 582.814, 873.519 590.410, 879.186 598.112, 884.046 605.899, 888.106 613.748, 891.378 621.641, 893.872 " fill="none" stroke="rgb(0, 0, 0)" stroke-linecap="butt" stroke-linejoin="round" stroke-opacity="1.0" stroke-width="3.0" />
            <path d=" M 789.469, 555.215 779.488, 554.599 778.748, 554.553 774.189, 553.227 764.587, 550.433 754.985, 547.639 754.656, 547.543 753.955, 547.339 753.253, 547.135 752.549, 546.930 751.846, 546.725 751.025, 546.354 750.246, 545.733 749.525, 544.873 748.877, 543.791 748.315, 542.507 747.850, 541.046 747.490, 539.434 747.243, 537.703 747.114, 535.885 747.105, 534.018 747.217, 532.135 747.446, 530.275 747.790, 528.472 748.241, 526.762 748.284, 526.638 748.790, 525.178 749.427, 523.750 750.134, 522.514 750.139, 522.505 750.892, 521.494 750.912, 521.467 751.730, 520.656 752.431, 520.074 753.133, 519.493 753.834, 518.913 754.534, 518.334 754.885, 518.043 756.251, 516.915 763.960, 510.546 771.669, 504.177 778.649, 498.410 " fill="none" stroke="rgb(0, 0, 0)" stroke-linecap="butt" stroke-linejoin="round" stroke-opacity="1.0" stroke-width="3.0" />
            <path d=" M 692.988, 286.239 684.700, 286.129 680.138, 286.498 676.307, 286.808 675.760, 286.905 667.831, 288.310 659.300, 290.660 659.282, 290.666 650.741, 293.874 642.183, 297.959 633.655, 302.910 625.404, 308.560 625.182, 308.712 617.342, 314.919 616.794, 315.353 609.381, 322.065 608.524, 322.841 601.550, 330.008 600.410, 331.179 593.876, 338.749 592.488, 340.358 586.389, 348.283 584.793, 350.358 579.118, 358.592 577.356, 361.148 572.088, 369.648 570.985, 371.428 570.608, 372.036 570.204, 372.688 567.557, 377.426 564.079, 383.650 563.362, 384.932 561.536, 388.563 560.866, 389.894 559.909, 391.797 556.864, 397.850 556.662, 398.299 555.038, 401.899 554.602, 402.867 552.950, 406.530 550.749, 411.410 547.018, 420.688 546.313, 422.440 545.053, 425.571 544.650, 426.703 541.445, 435.687 539.807, 440.281 536.810, 449.821 535.033, 455.481 532.389, 465.125 531.397, 468.745 530.750, 471.105 528.447, 480.837 526.967, 487.087 524.998, 496.891 524.616, 498.797 523.699, 503.361 522.068, 513.227 521.458, 516.923 521.400, 517.273 521.340, 517.636 520.971, 519.866 520.504, 523.466 519.216, 533.382 519.172, 533.722 518.806, 536.536 517.863, 546.492 517.218, 553.301 516.620, 563.283 516.212, 570.088 515.958, 580.085 515.787, 586.825 515.874, 596.825 515.932, 603.445 516.359, 613.436 516.637, 619.951 517.392, 629.923 517.525, 631.687 517.866, 636.193 518.860, 645.254 519.611, 652.103 521.046, 662.000 521.861, 667.617 523.652, 677.456 523.914, 678.898 524.602, 682.674 526.759, 692.439 527.815, 697.217 530.353, 706.890 531.109, 709.770 531.180, 710.039 531.483, 711.193 531.989, 712.841 533.281, 717.050 533.708, 718.438 535.585, 724.551 538.579, 732.974 539.928, 736.770 540.097, 737.247 540.499, 738.230 541.860, 741.562 544.596, 748.260 544.996, 749.242 545.548, 750.423 545.990, 751.369 548.351, 756.423 550.256, 760.500 554.962, 769.323 555.850, 770.990 561.049, 779.532 561.751, 780.686 567.462, 788.895 567.930, 789.569 574.170, 797.383 574.360, 797.621 581.011, 804.829 587.856, 811.187 594.866, 816.693 602.013, 821.343 609.272, 825.143 611.605, 826.083 616.614, 828.100 624.014, 830.226 631.448, 831.529 638.893, 832.028 646.325, 831.740 653.723, 830.684 661.067, 828.879 668.338, 826.350 675.517, 823.120 682.586, 819.214 689.531, 814.655 696.336, 809.471 702.988, 803.689 709.473, 797.334 715.780, 790.433 721.898, 783.014 727.816, 775.104 733.448, 766.841 733.525, 766.728 738.813, 758.240 739.017, 757.913 743.975, 749.229 744.284, 748.687 748.923, 739.828 749.318, 739.074 753.651, 730.062 754.114, 729.100 758.152, 719.952 758.664, 718.791 762.418, 709.522 762.965, 708.172 766.442, 698.796 767.009, 697.266 770.219, 687.795 770.794, 686.098 773.744, 676.543 774.315, 674.693 777.012, 665.063 777.569, 663.073 780.017, 653.378 780.551, 651.262 782.755, 641.508 783.259, 639.282 785.224, 629.477 785.690, 627.156 787.419, 617.307 787.841, 614.907 789.337, 605.019 789.710, 602.556 790.975, 592.636 791.296, 590.125 792.331, 580.179 792.595, 577.637 793.401, 567.670 793.607, 565.113 794.183, 555.130 794.330, 552.575 794.675, 542.581 794.763, 540.044 794.785, 538.068 " fill="none" stroke="rgb(0, 0, 0)" stroke-linecap="butt" stroke-linejoin="round" stroke-opacity="1.0" stroke-width="3.0" />
            <path d=" M 778.649, 498.410 788.605, 499.340 789.422, 499.416 " fill="none" stroke="rgb(0, 0, 0)" stroke-linecap="butt" stroke-linejoin="round" stroke-opacity="1.0" stroke-width="3.0" />
            <path d=" M 824.389, 514.903 824.016, 504.910 824.012, 504.781 823.368, 494.802 823.211, 492.376 822.289, 482.419 822.073, 480.092 821.965, 479.201 820.758, 469.274 820.597, 467.954 819.100, 458.067 818.785, 455.985 816.995, 446.146 816.641, 444.205 814.557, 434.425 814.174, 432.632 811.784, 422.922 811.382, 421.292 808.669, 411.667 808.260, 410.217 805.208, 400.695 804.805, 399.439 801.400, 390.037 801.019, 388.987 797.249, 379.725 796.907, 378.885 792.762, 369.784 792.475, 369.156 787.949, 360.239 787.735, 359.816 782.817, 351.109 782.692, 350.888 777.348, 342.407 771.704, 334.412 765.769, 326.937 759.550, 320.010 753.060, 313.654 746.312, 307.884 739.320, 302.714 732.096, 298.181 724.650, 294.324 719.429, 292.177 716.998, 291.178 709.157, 288.771 701.147, 287.121 692.988, 286.239 " fill="none" stroke="rgb(0, 0, 0)" stroke-linecap="butt" stroke-linejoin="round" stroke-opacity="1.0" stroke-width="3.0" />
            <path d=" M 659.282, 290.666 663.768, 292.943 669.853, 296.809 675.754, 301.333 681.464, 306.474 686.974, 312.196 692.273, 318.484 697.350, 325.323 702.197, 332.690 706.807, 340.557 711.175, 348.891 715.300, 357.655 719.180, 366.812 722.741, 376.156 722.812, 376.341 726.042, 385.805 726.186, 386.228 729.099, 395.795 729.299, 396.451 731.908, 406.105 732.146, 406.986 734.467, 416.713 734.727, 417.805 736.775, 427.593 737.044, 428.878 738.834, 438.716 739.100, 440.174 740.645, 450.054 740.897, 451.670 742.199, 461.585 742.430, 463.348 743.492, 473.292 743.695, 475.190 744.521, 485.156 744.689, 487.174 745.286, 497.156 745.413, 499.276 745.644, 505.434 745.538, 506.667 745.374, 507.885 745.154, 509.074 744.881, 510.222 744.556, 511.317 744.183, 512.347 743.767, 513.302 743.311, 514.172 742.820, 514.948 742.299, 515.620 741.754, 516.184 741.190, 516.632 740.613, 516.960 740.030, 517.164 736.801, 517.970 731.876, 519.199 " fill="none" stroke="rgb(0, 0, 0)" stroke-linecap="butt" stroke-linejoin="round" stroke-opacity="1.0" stroke-width="3.0" />
            <path d=" M 800.289, 535.762 801.251, 535.824 803.243, 535.952 812.860, 533.208 813.137, 533.129 815.084, 532.574 822.917, 530.339 824.618, 529.854 824.882, 529.791 830.762, 528.389 830.660, 518.390 830.628, 515.232 830.261, 505.239 830.148, 502.148 829.513, 492.168 829.322, 489.161 828.414, 479.202 828.148, 476.294 826.961, 466.365 826.627, 463.573 825.155, 453.682 824.758, 451.020 822.993, 441.177 822.542, 438.662 820.476, 428.878 819.979, 426.524 817.603, 416.810 817.069, 414.631 814.783, 406.465 813.815, 403.009 810.787, 393.478 810.218, 391.684 808.537, 386.991 806.279, 380.686 802.551, 371.407 802.002, 370.040 797.905, 360.918 797.391, 359.774 792.910, 350.834 792.450, 349.917 787.569, 341.189 787.182, 340.498 784.530, 336.248 781.595, 331.547 778.919, 327.711 775.695, 323.090 769.489, 315.161 762.985, 307.788 756.194, 301.000 749.126, 294.827 741.792, 289.300 734.206, 284.448 726.383, 280.298 718.339, 276.880 710.091, 274.221 701.658, 272.345 693.061, 271.277 684.321, 271.041 674.324, 270.805 664.327, 270.570 663.592, 270.553 " fill="none" stroke="rgb(0, 0, 0)" stroke-linecap="butt" stroke-linejoin="round" stroke-opacity="1.0" stroke-width="3.0" />
            <path d=" M 684.321, 271.041 676.767, 271.567 675.463, 271.658 666.511, 273.145 662.982, 274.073 657.493, 275.517 648.436, 278.791 639.371, 282.975 636.483, 284.604 636.479, 284.606 630.328, 288.075 622.019, 293.639 621.341, 294.093 613.454, 300.241 612.442, 301.031 604.988, 307.697 603.665, 308.880 596.648, 316.004 595.046, 317.630 588.465, 325.159 586.621, 327.268 580.470, 335.153 578.426, 337.773 572.698, 345.970 570.497, 349.120 568.539, 352.241 568.106, 352.929 562.869, 361.277 562.605, 361.746 560.009, 366.351 558.398, 369.209 555.579, 374.211 552.988, 379.330 551.338, 382.592 548.661, 387.881 544.530, 396.988 542.148, 402.240 539.773, 408.102 536.072, 417.237 532.687, 426.647 530.466, 432.820 527.442, 442.351 525.356, 448.925 522.686, 458.563 520.767, 465.492 518.449, 475.219 516.725, 482.451 514.754, 492.255 513.250, 499.734 511.623, 509.601 510.359, 517.267 510.350, 517.339 509.066, 527.256 508.066, 534.976 507.125, 544.931 506.383, 552.784 505.786, 562.766 505.316, 570.616 505.065, 580.612 504.870, 588.393 504.969, 598.392 505.044, 606.040 " fill="none" stroke="rgb(0, 0, 0)" stroke-linecap="butt" stroke-linejoin="round" stroke-opacity="1.0" stroke-width="3.0" />
            <path d=" M 756.251, 516.915 756.141, 512.233 756.145, 509.443 756.104, 509.668 755.831, 510.821 755.508, 511.921 755.137, 512.957 754.723, 513.917 754.270, 514.791 753.782, 515.570 753.265, 516.247 752.724, 516.813 752.164, 517.264 751.592, 517.593 751.013, 517.799 750.883, 517.832 748.086, 518.542 738.393, 521.000 733.919, 522.135 733.352, 520.998 732.702, 520.039 731.980, 519.273 731.876, 519.199 731.197, 518.715 730.366, 518.373 729.502, 518.255 719.519, 517.670 718.341, 517.601 717.451, 517.707 716.557, 518.036 715.674, 518.584 714.851, 519.343 714.105, 520.302 713.414, 521.444 712.791, 522.747 712.247, 524.192 711.792, 525.752 711.432, 527.402 711.175, 529.112 711.025, 530.854 710.984, 532.598 720.963, 533.250 722.185, 533.329 727.028, 532.088 727.046, 531.533 727.098, 531.067 727.107, 530.982 727.210, 530.449 727.352, 529.951 727.529, 529.500 727.736, 529.108 727.967, 528.787 728.216, 528.545 728.476, 528.388 728.740, 528.322 " fill="none" stroke="rgb(0, 0, 0)" stroke-linecap="butt" stroke-linejoin="round" stroke-opacity="1.0" stroke-width="3.0" />
            <path d=" M 804.470, 523.156 807.807, 522.222 808.323, 522.027 808.833, 521.725 809.334, 521.319 809.822, 520.813 810.292, 520.213 810.742, 519.524 811.168, 518.753 811.566, 517.905 811.934, 516.988 812.268, 516.008 812.567, 514.974 812.828, 513.894 813.048, 512.774 813.226, 511.625 822.821, 514.442 823.060, 514.512 824.389, 514.903 824.228, 515.618 823.931, 516.657 823.598, 517.642 823.233, 518.564 823.064, 518.929 822.838, 519.416 822.416, 520.191 821.970, 520.884 821.503, 521.487 821.020, 521.996 820.523, 522.404 820.018, 522.709 819.508, 522.904 813.475, 524.625 806.834, 526.518 806.305, 525.349 805.696, 524.364 805.016, 523.578 804.470, 523.156 804.276, 523.006 803.489, 522.658 802.667, 522.539 800.959, 522.439 799.673, 522.364 790.794, 521.844 790.150, 521.930 789.945, 521.957 789.777, 522.025 789.090, 522.301 788.243, 522.869 787.455, 523.656 786.742, 524.649 786.081, 525.829 785.484, 527.177 784.960, 528.669 784.518, 530.281 784.168, 531.983 783.913, 533.749 783.760, 535.546 783.710, 537.345 789.926, 537.750 790.102, 537.762 794.785, 538.068 795.632, 538.123 800.216, 536.815 800.219, 536.727 800.237, 536.243 800.289, 535.762 800.298, 535.674 800.399, 535.125 800.536, 534.610 800.706, 534.144 800.904, 533.739 801.124, 533.406 801.282, 533.239 801.361, 533.155 801.608, 532.993 801.858, 532.922 " fill="none" stroke="rgb(0, 0, 0)" stroke-linecap="butt" stroke-linejoin="round" stroke-opacity="1.0" stroke-width="3.0" />
            <path d=" M 774.189, 553.227 773.611, 563.177 772.792, 573.143 772.593, 575.572 771.536, 585.516 771.280, 587.931 769.985, 597.847 769.674, 600.231 768.140, 610.113 767.777, 612.450 766.002, 622.292 765.592, 624.567 763.574, 634.361 763.121, 636.559 760.857, 646.299 760.368, 648.405 757.854, 658.083 757.336, 660.081 754.567, 669.690 754.027, 671.565 750.998, 681.095 750.446, 682.834 747.151, 692.276 746.597, 693.866 743.030, 703.208 742.484, 704.636 738.636, 713.866 738.113, 715.120 733.975, 724.223 733.489, 725.294 729.052, 734.256 728.617, 735.135 723.871, 743.937 723.504, 744.616 718.437, 753.237 718.157, 753.713 712.757, 762.129 712.584, 762.400 706.792, 770.652 700.791, 778.441 694.589, 785.742 688.199, 792.530 681.630, 798.778 674.895, 804.457 668.008, 809.543 660.982, 814.012 653.833, 817.835 646.576, 820.989 639.229, 823.450 631.811, 825.196 624.340, 826.203 616.838, 826.451 611.605, 826.083 " fill="none" stroke="rgb(0, 0, 0)" stroke-linecap="butt" stroke-linejoin="round" stroke-opacity="1.0" stroke-width="3.0" />
            <path d=" M 790.102, 537.762 790.081, 539.651 789.688, 549.643 789.469, 555.215 779.876, 552.392 778.845, 552.089 774.332, 550.761 766.138, 548.350 765.443, 548.145 764.748, 547.941 764.050, 547.735 763.354, 547.531 762.540, 547.158 761.769, 546.535 761.055, 545.672 760.413, 544.585 759.858, 543.296 759.398, 541.827 759.043, 540.208 758.800, 538.468 758.700, 537.022 758.674, 536.643 758.667, 534.766 758.780, 532.874 759.009, 531.004 759.156, 530.232 759.352, 529.192 759.801, 527.474 760.347, 525.881 760.784, 524.889 760.979, 524.446 761.686, 523.194 762.453, 522.151 763.265, 521.335 763.961, 520.750 764.657, 520.165 765.352, 519.582 766.046, 518.999 766.395, 518.707 774.060, 512.286 779.082, 508.079 786.747, 501.657 789.422, 499.416 789.852, 509.407 789.910, 510.734 790.064, 515.305 790.150, 521.930 " fill="none" stroke="rgb(0, 0, 0)" stroke-linecap="butt" stroke-linejoin="round" stroke-opacity="1.0" stroke-width="3.0" />
            <path d=" M 764.771, 537.421 764.452, 537.362 764.154, 537.155 763.889, 536.811 763.669, 536.344 763.504, 535.775 763.401, 535.129 763.364, 534.433 763.396, 533.719 763.495, 533.018 763.656, 532.360 763.872, 531.775 764.135, 531.288 764.431, 530.921 764.749, 530.688 765.074, 530.603 " fill="none" stroke="rgb(0, 0, 0)" stroke-linecap="butt" stroke-linejoin="round" stroke-opacity="1.0" stroke-width="3.0" />
            <path d=" M 765.074, 530.603 765.392, 530.665 765.690, 530.874 765.953, 531.219 766.172, 531.685 766.336, 532.253 766.439, 532.898 766.475, 533.591 766.443, 534.302 766.345, 535.001 766.185, 535.657 765.969, 536.241 765.708, 536.728 765.412, 537.097 765.095, 537.331 764.771, 537.421 " fill="none" stroke="rgb(0, 0, 0)" stroke-linecap="butt" stroke-linejoin="round" stroke-opacity="1.0" stroke-width="3.0" />
            <path d=" M 800.219, 536.727 800.191, 539.149 799.843, 549.143 799.734, 552.265 799.157, 562.248 798.975, 565.388 798.169, 575.356 797.915, 578.497 796.880, 588.444 796.555, 591.570 795.292, 601.490 794.897, 604.584 793.404, 614.472 792.943, 617.518 791.217, 627.368 790.695, 630.349 788.733, 640.155 788.153, 643.055 785.954, 652.810 785.323, 655.613 782.882, 665.310 782.205, 668.000 779.516, 677.632 778.802, 680.192 775.861, 689.750 775.118, 692.166 771.919, 701.640 771.157, 703.897 767.692, 713.277 766.923, 715.361 763.183, 724.635 762.419, 726.532 758.396, 735.687 757.650, 737.385 753.335, 746.406 752.623, 747.895 748.004, 756.764 747.343, 758.033 742.408, 766.731 741.816, 767.774 736.553, 776.277 736.050, 777.090 730.445, 785.372 730.052, 785.953 724.092, 793.983 723.831, 794.334 717.503, 802.077 717.397, 802.206 710.760, 809.541 703.931, 816.308 696.922, 822.478 689.747, 828.024 682.420, 832.918 674.956, 837.129 667.373, 840.631 659.687, 843.399 651.919, 845.405 644.087, 846.622 636.215, 847.031 628.324, 846.610 620.439, 845.337 612.584, 843.196 604.786, 840.172 597.071, 836.255 589.470, 831.433 582.009, 825.703 574.719, 819.064 567.871, 811.776 567.629, 811.518 561.326, 803.755 560.772, 803.072 555.002, 794.904 554.177, 793.737 548.922, 785.229 547.874, 783.532 544.793, 777.836 542.296, 773.219 541.894, 772.477 540.887, 770.350 536.607, 761.312 536.268, 760.597 535.956, 759.844 534.585, 756.530 531.024, 747.927 529.416, 743.462 526.759, 736.085 526.189, 734.502 523.218, 724.954 521.791, 720.366 519.221, 710.702 517.854, 705.564 515.668, 695.806 514.402, 690.150 512.586, 680.316 512.081, 677.580 511.454, 674.182 509.997, 664.288 509.030, 657.719 507.922, 647.780 507.146, 640.828 506.376, 630.857 505.814, 623.577 505.376, 613.587 505.044, 606.040 502.784, 596.299 500.691, 587.281 " fill="none" stroke="rgb(0, 0, 0)" stroke-linecap="butt" stroke-linejoin="round" stroke-opacity="1.0" stroke-width="3.0" />
            <path d=" M 663.592, 270.553 656.850, 271.039 655.574, 271.131 647.466, 272.577 639.295, 274.906 631.084, 278.136 622.862, 282.276 614.655, 287.334 606.588, 293.244 606.494, 293.312 598.889, 299.805 598.410, 300.214 591.268, 307.214 590.433, 308.032 583.750, 315.471 582.596, 316.755 576.364, 324.576 574.933, 326.373 569.139, 334.524 567.476, 336.864 566.507, 338.386 566.029, 339.136 561.383, 346.436 560.258, 348.203 558.740, 350.860 557.141, 353.659 553.313, 360.360 551.665, 363.573 550.050, 366.721 546.675, 373.301 542.492, 382.384 540.374, 386.983 538.477, 391.582 534.663, 400.826 534.443, 401.360 530.987, 410.744 528.911, 416.382 525.804, 425.886 523.808, 431.992 521.039, 441.601 519.159, 448.129 516.722, 457.827 514.988, 464.728 512.877, 474.502 511.318, 481.721 509.529, 491.560 508.169, 499.037 506.698, 508.928 505.556, 516.602 505.486, 517.207 504.330, 527.140 503.493, 534.339 502.653, 544.304 501.990, 552.173 501.467, 562.159 501.055, 570.024 500.844, 580.022 500.691, 587.281 499.127, 597.158 497.673, 606.345 " fill="none" stroke="rgb(0, 0, 0)" stroke-linecap="butt" stroke-linejoin="round" stroke-opacity="1.0" stroke-width="3.0" />
            <path d=" M 498.481, 624.447 499.260, 634.416 499.872, 642.248 500.992, 652.185 501.835, 659.674 503.304, 669.566 504.357, 676.652 506.187, 686.483 507.421, 693.113 508.790, 699.175 511.007, 708.993 513.597, 718.652 515.093, 724.233 518.086, 733.775 519.656, 738.778 523.070, 748.177 523.988, 750.707 524.668, 752.579 526.675, 757.384 530.102, 765.594 532.088, 769.749 533.501, 772.706 535.928, 777.784 538.614, 782.701 540.047, 785.325 542.117, 789.115 542.610, 789.905 547.904, 798.389 548.635, 799.562 554.449, 807.699 555.453, 809.104 561.802, 816.830 562.537, 817.725 569.432, 824.967 569.856, 825.411 577.299, 832.090 577.378, 832.160 585.071, 837.970 592.905, 842.841 600.850, 846.781 608.877, 849.801 616.957, 851.914 625.065, 853.136 633.174, 853.485 641.260, 852.985 649.300, 851.657 657.272, 849.526 665.156, 846.618 672.932, 842.962 680.582, 838.584 688.090, 833.512 695.440, 827.778 702.619, 821.411 709.611, 814.439 716.302, 807.007 716.406, 806.891 722.719, 799.136 722.993, 798.800 728.940, 790.760 729.361, 790.192 734.955, 781.903 735.499, 781.097 740.755, 772.589 741.401, 771.543 746.331, 762.843 747.058, 761.560 751.675, 752.690 752.463, 751.174 756.777, 742.153 757.609, 740.413 761.632, 731.258 762.491, 729.303 766.233, 720.029 767.104, 717.871 770.572, 708.492 771.441, 706.143 774.644, 696.669 775.498, 694.142 778.444, 684.586 779.273, 681.896 781.967, 672.266 782.761, 669.428 785.208, 659.732 785.958, 656.762 788.164, 647.008 788.862, 643.921 790.830, 634.116 791.469, 630.929 793.202, 621.080 793.778, 617.809 795.278, 607.922 795.785, 604.583 797.055, 594.664 797.488, 591.275 798.529, 581.329 798.887, 577.906 799.698, 567.939 799.977, 564.499 800.558, 554.516 800.759, 551.077 801.109, 541.083 801.230, 537.661 801.251, 535.824 " fill="none" stroke="rgb(0, 0, 0)" stroke-linecap="butt" stroke-linejoin="round" stroke-opacity="1.0" stroke-width="3.0" />
            <path d=" M 497.673, 606.345 498.119, 616.335 498.481, 624.447 " fill="none" stroke="rgb(0, 0, 0)" stroke-linecap="butt" stroke-linejoin="round" stroke-opacity="1.0" stroke-width="3.0" />
            <path d=" M 814.783, 406.465 813.524, 400.124 811.342, 390.365 811.070, 389.149 808.647, 379.447 808.379, 378.375 805.708, 368.738 805.453, 367.816 802.525, 358.254 802.291, 357.489 799.097, 348.013 798.894, 347.412 795.424, 338.034 795.264, 337.603 791.504, 328.337 791.401, 328.082 787.305, 318.869 782.978, 309.985 778.424, 301.447 773.646, 293.271 768.648, 285.477 763.433, 278.083 758.006, 271.112 752.371, 264.585 746.531, 258.527 740.493, 252.960 734.264, 247.907 727.852, 243.383 721.264, 239.408 714.510, 236.000 707.599, 233.179 700.542, 230.967 693.349, 229.384 686.032, 228.454 678.606, 228.198 671.084, 228.627 670.822, 228.666 663.482, 229.756 655.814, 231.594 648.097, 234.154 640.350, 237.446 632.590, 241.481 624.838, 246.269 617.115, 251.818 609.443, 258.132 603.841, 263.347 601.843, 265.207 594.921, 272.425 594.336, 273.036 588.295, 280.042 586.944, 281.610 580.798, 289.498 579.690, 290.920 579.103, 291.750 573.331, 299.916 572.598, 300.953 567.191, 309.365 565.693, 311.696 562.793, 316.650 562.251, 317.575 559.194, 322.797 558.998, 323.132 556.540, 327.742 554.976, 330.675 552.540, 335.242 549.503, 341.494 547.919, 344.755 546.343, 347.998 545.575, 349.733 541.529, 358.878 540.427, 361.367 536.693, 370.644 536.526, 371.058 534.813, 375.316 531.382, 384.709 529.521, 389.805 526.387, 399.301 524.573, 404.797 521.728, 414.384 519.988, 420.250 517.428, 429.917 515.786, 436.120 513.507, 445.857 511.986, 452.361 509.985, 462.158 508.603, 468.922 506.874, 478.771 505.649, 485.749 504.187, 495.641 503.132, 502.787 501.938, 512.716 501.321, 517.846 501.064, 519.983 500.137, 529.940 499.454, 537.280 498.795, 547.258 498.308, 554.622 497.916, 564.614 497.629, 571.951 497.506, 581.950 497.417, 589.211 497.566, 599.210 497.673, 606.345 498.098, 616.336 498.394, 623.297 498.481, 624.447 499.183, 634.422 499.576, 640.014 500.566, 649.965 501.210, 656.444 502.491, 666.361 503.288, 672.535 504.868, 682.409 505.801, 688.239 507.688, 698.059 508.375, 701.634 508.736, 703.509 510.938, 713.264 512.077, 718.305 514.604, 727.981 515.808, 732.587 518.673, 742.168 519.914, 746.316 523.025, 755.469 524.380, 759.456 525.580, 762.580 529.187, 771.974 530.866, 775.863 532.213, 778.984 534.313, 783.848 537.226, 789.870 538.594, 792.696 539.735, 795.055 541.141, 797.651 545.433, 805.576 550.618, 814.127 551.386, 815.394 557.008, 823.664 557.572, 824.494 563.646, 832.437 563.971, 832.862 570.563, 840.487 577.327, 847.364 584.239, 853.495 591.277, 858.883 598.421, 863.534 605.649, 867.452 612.944, 870.646 620.287, 873.121 625.877, 874.460 627.661, 874.887 635.048, 875.951 642.433, 876.329 649.797, 876.041 657.125, 875.105 664.404, 873.541 671.619, 871.366 678.759, 868.597 685.810, 865.251 692.763, 861.344 699.606, 856.893 706.329, 851.922 712.923, 846.452 719.379, 840.507 725.691, 834.107 731.850, 827.272 737.850, 820.019 743.684, 812.366 749.346, 804.329 754.830, 795.927 760.013, 787.375 760.131, 787.181 765.044, 778.470 765.246, 778.111 769.897, 769.258 770.171, 768.737 774.570, 759.756 774.903, 759.076 779.057, 749.980 779.438, 749.146 783.353, 739.944 783.771, 738.961 787.455, 729.665 787.901, 728.538 791.357, 719.154 791.822, 717.891 795.057, 708.428 795.533, 707.035 798.553, 697.502 799.032, 695.990 801.843, 686.393 802.318, 684.770 804.924, 675.116 805.389, 673.392 807.794, 663.686 808.244, 661.870 810.451, 652.117 810.881, 650.219 812.892, 640.423 813.297, 638.451 815.114, 628.618 815.490, 626.581 817.114, 616.714 817.458, 614.622 818.892, 604.726 819.201, 602.590 820.448, 592.668 820.720, 590.499 821.779, 580.555 822.012, 578.361 822.883, 568.399 823.076, 566.191 823.758, 556.214 823.910, 554.002 824.405, 544.014 824.514, 541.807 824.820, 531.812 824.882, 529.791 " fill="none" stroke="rgb(0, 0, 0)" stroke-linecap="butt" stroke-linejoin="round" stroke-opacity="1.0" stroke-width="3.0" />
            <path d=" M 668.848, 228.779 661.235, 229.908 653.558, 231.745 645.831, 234.304 638.074, 237.594 630.305, 241.626 622.544, 246.410 614.812, 251.954 607.132, 258.263 602.131, 262.909 599.523, 265.331 592.595, 272.542 592.008, 273.152 585.471, 280.719 584.609, 281.718 582.826, 284.001 577.348, 291.018 572.529, 297.823 570.250, 301.041 564.835, 309.448 563.338, 311.773 562.227, 313.667 561.674, 314.610 558.843, 319.437 556.637, 323.197 556.146, 324.118 554.594, 327.022 550.174, 335.294 549.061, 337.580 547.499, 340.790 543.972, 348.036 539.919, 357.178 538.051, 361.391 536.023, 366.420 534.787, 369.485 532.433, 375.323 528.998, 384.715 527.139, 389.797 523.999, 399.291 522.187, 404.772 519.339, 414.357 517.600, 420.207 515.036, 429.873 513.396, 436.059 511.114, 445.795 509.594, 452.281 507.591, 462.078 506.211, 468.823 504.480, 478.672 503.256, 485.630 501.793, 495.523 500.740, 502.650 499.545, 512.578 498.843, 518.406 498.672, 519.826 497.745, 529.782 497.063, 537.103 496.404, 547.081 495.919, 554.425 495.528, 564.417 495.242, 571.734 495.120, 581.733 495.033, 588.974 495.184, 598.973 495.291, 606.089 495.719, 616.080 496.016, 623.023 496.725, 632.998 497.202, 639.722 498.195, 649.672 498.840, 656.133 500.126, 666.050 500.923, 672.207 502.508, 682.081 503.442, 687.894 505.334, 697.714 506.382, 703.149 507.378, 707.548 509.586, 717.301 509.729, 717.930 512.263, 727.604 513.466, 732.197 516.338, 741.776 517.579, 745.914 520.804, 755.379 522.052, 759.041 522.216, 759.467 524.814, 766.215 526.866, 771.548 530.173, 779.190 531.524, 782.312 532.000, 783.411 536.364, 792.409 536.610, 792.917 537.430, 794.609 537.999, 795.656 540.589, 800.428 543.137, 805.121 548.330, 813.667 549.098, 814.931 554.728, 823.196 555.293, 824.024 561.375, 831.962 561.701, 832.387 568.302, 840.008 575.075, 846.881 581.997, 853.009 589.045, 858.395 596.198, 863.045 603.436, 866.963 610.741, 870.158 618.094, 872.635 625.478, 874.402 " fill="none" stroke="rgb(0, 0, 0)" stroke-linecap="butt" stroke-linejoin="round" stroke-opacity="1.0" stroke-width="3.0" />
            <path d=" M 671.084, 228.627 668.848, 228.779 " fill="none" stroke="rgb(0, 0, 0)" stroke-linecap="butt" stroke-linejoin="round" stroke-opacity="1.0" stroke-width="3.0" />
            <path d=" M 625.478, 874.402 627.661, 874.887 " fill="none" stroke="rgb(0, 0, 0)" stroke-linecap="butt" stroke-linejoin="round" stroke-opacity="1.0" stroke-width="3.0" />
            <path d=" M 479.491, 607.348 479.931, 617.338 480.345, 626.764 481.069, 636.738 481.734, 645.899 482.748, 655.847 483.649, 664.689 484.959, 674.603 486.079, 683.074 487.693, 692.943 489.010, 700.996 490.936, 710.809 492.426, 718.401 494.675, 728.145 496.311, 735.237 498.892, 744.898 499.419, 746.870 500.645, 751.459 501.226, 753.359 504.152, 762.922 505.406, 767.022 507.340, 772.586 510.574, 781.888 513.512, 789.369 514.537, 791.981 516.124, 796.022 516.294, 796.407 516.932, 797.850 517.593, 799.346 521.634, 808.493 522.032, 809.394 522.828, 810.997 524.180, 813.723 525.584, 816.555 526.922, 819.252 528.274, 821.977 529.645, 824.442 531.020, 826.914 531.047, 826.963 533.813, 831.934 534.824, 833.751 540.118, 842.234 541.655, 844.697 547.397, 852.883 548.742, 854.801 554.945, 862.644 556.059, 864.053 562.732, 871.501 563.580, 872.448 570.728, 879.443 571.280, 879.983 578.899, 886.460 579.133, 886.659 587.115, 892.478 595.202, 897.449 603.371, 901.579 611.600, 904.881 619.867, 907.368 624.197, 908.396 632.460, 910.078 640.720, 910.977 648.961, 911.110 657.164, 910.499 665.313, 909.163 673.392, 907.125 681.387, 904.408 689.284, 901.033 697.071, 897.025 704.735, 892.408 712.266, 887.203 719.654, 881.436 726.890, 875.130 733.964, 868.308 740.869, 860.994 747.409, 853.428 747.598, 853.209 753.822, 845.382 754.144, 844.977 760.063, 836.917 760.502, 836.320 766.126, 828.052 766.665, 827.259 772.005, 818.804 772.629, 817.816 777.694, 809.194 778.389, 808.011 783.189, 799.238 783.942, 797.864 788.486, 788.956 789.283, 787.395 793.580, 778.365 794.409, 776.623 798.466, 767.483 799.317, 765.567 803.143, 756.328 804.005, 754.246 807.605, 744.916 808.469, 742.676 811.850, 733.265 812.709, 730.876 815.876, 721.391 816.720, 718.862 819.679, 709.309 820.503, 706.650 823.258, 697.037 824.055, 694.257 826.610, 684.589 827.374, 681.698 829.733, 671.981 830.459, 668.990 832.625, 659.227 833.309, 656.146 835.284, 646.343 835.922, 643.181 837.710, 633.342 838.297, 630.111 839.899, 620.240 840.433, 616.949 841.850, 607.050 842.329, 603.710 843.563, 593.787 843.983, 590.408 845.035, 580.463 845.396, 577.056 846.265, 567.094 846.564, 563.669 847.252, 553.692 847.489, 550.259 847.994, 540.272 848.168, 536.842 848.490, 526.847 848.601, 523.430 848.739, 513.431 848.786, 510.038 848.738, 500.038 848.723, 496.680 848.488, 486.682 848.410, 483.369 847.985, 473.378 847.847, 470.120 847.230, 460.139 847.033, 456.947 846.220, 446.980 845.966, 443.865 844.954, 433.917 844.647, 430.890 843.432, 420.964 843.073, 418.035 841.650, 408.137 841.245, 405.318 839.609, 395.453 839.161, 392.754 837.306, 382.927 836.821, 380.358 834.741, 370.577 834.225, 368.149 831.913, 358.420 831.371, 356.144 828.819, 346.475 828.261, 344.359 825.461, 334.759 824.893, 332.814 821.836, 323.293 821.268, 321.526 817.943, 312.095 817.387, 310.516 813.784, 301.188 813.249, 299.803 809.357, 290.592 808.856, 289.408 804.662, 280.330 804.209, 279.351 799.700, 270.425 799.310, 269.653 794.472, 260.901 794.161, 260.337 788.980, 251.784 788.763, 251.426 783.226, 243.099 783.121, 242.941 777.238, 234.908 771.117, 227.349 764.764, 220.288 758.183, 213.752 751.382, 207.763 744.366, 202.348 737.144, 197.531 729.725, 193.337 722.117, 189.791 714.333, 186.919 706.382, 184.743 698.279, 183.288 690.037, 182.576 681.670, 182.629 677.245, 183.018 668.748, 183.859 660.160, 185.503 651.501, 187.968 642.791, 191.270 634.049, 195.422 625.298, 200.436 617.004, 206.023 616.562, 206.320 608.667, 212.457 607.865, 213.080 600.376, 219.707 599.232, 220.719 592.150, 227.779 590.688, 229.236 584.010, 236.679 582.262, 238.628 575.980, 246.408 573.980, 248.885 573.281, 249.843 573.229, 249.914 573.224, 249.920 567.329, 257.998 565.870, 259.998 560.351, 268.337 557.961, 271.948 554.272, 278.083 553.935, 278.642 553.567, 279.255 551.068, 283.410 550.878, 283.726 550.281, 284.718 549.892, 285.430 549.542, 286.070 546.517, 291.597 544.995, 294.379 543.724, 296.701 542.859, 298.282 542.192, 299.622 537.734, 308.573 536.131, 311.793 535.724, 312.611 534.640, 315.004 530.514, 324.113 530.455, 324.244 528.902, 327.672 525.099, 336.921 522.422, 343.429 521.712, 345.335 518.221, 354.706 516.309, 359.838 513.124, 369.317 510.590, 376.855 507.702, 386.429 505.288, 394.430 502.691, 404.086 500.425, 412.508 498.114, 422.237 496.023, 431.034 495.387, 434.104 493.419, 443.591 492.101, 449.948 490.347, 459.793 488.674, 469.187 487.196, 479.077 485.759, 488.685 484.553, 498.612 483.491, 507.346 483.388, 508.201 483.366, 508.378 482.595, 516.595 482.561, 516.957 482.290, 519.844 482.244, 520.332 481.506, 528.196 480.843, 538.174 480.185, 548.071 479.795, 558.063 479.409, 567.934 479.292, 577.933 479.177, 587.715 479.321, 596.678 479.480, 606.677 479.491, 607.348 " fill="none" stroke="rgb(0, 0, 0)" stroke-linecap="butt" stroke-linejoin="round" stroke-opacity="1.0" stroke-width="3.0" />
            <path d=" M 681.670, 182.629 673.196, 183.468 664.631, 185.112 655.994, 187.579 647.305, 190.884 638.584, 195.042 629.855, 200.062 621.570, 205.664 621.138, 205.956 613.254, 212.107 612.460, 212.727 604.984, 219.368 603.846, 220.379 596.777, 227.453 595.320, 228.911 588.656, 236.367 586.910, 238.320 580.643, 246.113 578.644, 248.598 576.413, 251.667 576.259, 251.878 576.259, 251.879 570.549, 259.732 565.045, 268.081 562.655, 271.708 557.515, 280.286 555.637, 283.420 554.988, 284.504 554.965, 284.546 554.776, 284.893 552.006, 289.974 550.474, 292.784 547.578, 298.096 544.773, 303.751 543.251, 306.818 540.454, 312.456 536.340, 321.571 533.642, 327.550 531.685, 332.325 527.893, 341.578 527.170, 343.342 526.368, 345.504 522.888, 354.879 521.065, 359.788 517.889, 369.270 515.353, 376.843 512.473, 386.419 510.056, 394.457 507.466, 404.116 505.197, 412.577 502.892, 422.308 500.799, 431.146 498.773, 440.939 496.878, 450.103 495.129, 459.949 494.205, 465.152 493.452, 469.386 492.994, 472.455 492.693, 474.479 491.217, 484.369 490.536, 488.930 489.332, 498.857 489.298, 499.137 488.293, 507.423 488.142, 508.668 487.938, 510.842 487.867, 511.600 487.645, 513.967 487.391, 516.679 487.116, 519.607 487.040, 520.417 486.279, 528.532 485.616, 538.510 484.955, 548.453 484.563, 558.445 484.173, 568.361 484.054, 578.360 483.937, 588.188 484.092, 598.186 484.149, 601.798 484.243, 607.864 484.678, 617.855 485.090, 627.324 485.808, 637.298 486.470, 646.501 487.476, 656.450 488.032, 661.946 488.338, 664.969 488.375, 665.332 489.677, 675.247 490.794, 683.757 492.398, 693.627 493.713, 701.717 495.629, 711.532 497.117, 719.157 499.354, 728.904 500.988, 736.028 501.454, 737.779 504.022, 747.444 505.308, 752.282 508.220, 761.848 510.054, 767.875 513.323, 777.325 514.662, 781.195 515.206, 782.768 516.245, 785.426 518.649, 791.579 520.740, 796.928 524.325, 805.080 525.629, 808.045 526.631, 810.323 530.928, 819.026 532.276, 821.756 532.855, 822.928 534.987, 826.779 539.386, 834.720 544.664, 843.213 546.198, 845.682 551.924, 853.880 553.266, 855.800 559.453, 863.655 560.563, 865.064 567.221, 872.525 568.063, 873.468 575.197, 880.475 575.742, 881.010 583.350, 887.500 583.574, 887.690 591.534, 893.513 599.599, 898.485 607.746, 902.614 615.953, 905.914 624.197, 908.396 " fill="none" stroke="rgb(0, 0, 0)" stroke-linecap="butt" stroke-linejoin="round" stroke-opacity="1.0" stroke-width="3.0" />
            <path d=" M 729.502, 518.255 728.618, 518.362 727.730, 518.693 726.852, 519.244 726.034, 520.007 725.416, 520.812 725.293, 520.972 724.921, 521.594 724.606, 522.119 723.987, 523.430 723.446, 524.881 722.993, 526.449 722.671, 527.940 722.634, 528.107 722.378, 529.826 722.297, 530.759 722.227, 531.577 722.185, 533.329 " fill="none" stroke="rgb(0, 0, 0)" stroke-linecap="butt" stroke-linejoin="round" stroke-opacity="1.0" stroke-width="3.0" />
            <path d=" M 728.740, 528.322 729.002, 528.346 729.252, 528.462 729.486, 528.665 729.696, 528.950 729.878, 529.310 730.025, 529.733 730.134, 530.209 730.202, 530.726 730.227, 531.268 " fill="none" stroke="rgb(0, 0, 0)" stroke-linecap="butt" stroke-linejoin="round" stroke-opacity="1.0" stroke-width="3.0" />
            <path d=" M 727.098, 531.067 730.227, 531.268 739.914, 528.784 748.284, 526.638 " fill="none" stroke="rgb(0, 0, 0)" stroke-linecap="butt" stroke-linejoin="round" stroke-opacity="1.0" stroke-width="3.0" />
            <path d=" M 802.667, 522.539 801.825, 522.654 800.977, 523.000 800.137, 523.572 799.930, 523.781 799.355, 524.363 799.156, 524.644 798.648, 525.362 798.293, 526.005 797.992, 526.548 797.916, 526.723 797.469, 527.742 797.399, 527.903 796.878, 529.403 796.440, 531.023 796.126, 532.562 796.091, 532.735 795.837, 534.509 795.755, 535.471 795.683, 536.315 795.632, 538.123 " fill="none" stroke="rgb(0, 0, 0)" stroke-linecap="butt" stroke-linejoin="round" stroke-opacity="1.0" stroke-width="3.0" />
            <path d=" M 801.858, 532.922 802.105, 532.946 802.341, 533.064 802.560, 533.272 802.757, 533.565 802.926, 533.935 803.062, 534.370 803.162, 534.861 803.223, 535.393 803.243, 535.952 " fill="none" stroke="rgb(0, 0, 0)" stroke-linecap="butt" stroke-linejoin="round" stroke-opacity="1.0" stroke-width="3.0" />
            <path d=" M 782.484, 485.761 782.646, 485.755 782.864, 485.788 783.075, 485.866 783.269, 485.987 783.440, 486.145 783.582, 486.335 783.689, 486.553 783.758, 486.792 783.782, 487.046 783.761, 487.285 783.698, 487.512 783.596, 487.720 783.459, 487.901 783.291, 488.048 783.096, 488.157 782.881, 488.221 " fill="none" stroke="rgb(0, 0, 0)" stroke-linecap="butt" stroke-linejoin="round" stroke-opacity="1.0" stroke-width="3.0" />
            <path d=" M 782.484, 485.761 782.410, 485.774 782.326, 485.792 782.183, 485.839 781.974, 485.947 781.953, 485.961 781.763, 486.112 781.606, 486.296 781.487, 486.509 781.412, 486.745 781.386, 486.999 781.410, 487.238 781.481, 487.468 781.491, 487.491 781.604, 487.701 781.756, 487.885 781.942, 488.035 782.157, 488.148 782.180, 488.157 782.406, 488.222 782.427, 488.226 782.456, 488.230 782.493, 488.234 782.536, 488.236 782.585, 488.238 782.636, 488.238 782.687, 488.237 782.735, 488.236 782.781, 488.233 782.821, 488.230 782.855, 488.226 782.881, 488.221 " fill="none" stroke="rgb(0, 0, 0)" stroke-linecap="butt" stroke-linejoin="round" stroke-opacity="1.0" stroke-width="3.0" />
            <path d=" M 779.811, 483.772 779.822, 489.969 783.453, 490.134 785.490, 490.226 786.146, 489.921 785.628, 483.983 782.997, 483.835 780.242, 483.680 779.811, 483.772 " fill="none" stroke="rgb(0, 0, 0)" stroke-linecap="butt" stroke-linejoin="round" stroke-opacity="1.0" stroke-width="3.0" />
            <path d=" M 785.490, 490.226 785.481, 484.015 " fill="none" stroke="rgb(0, 0, 0)" stroke-linecap="butt" stroke-linejoin="round" stroke-opacity="1.0" stroke-width="3.0" />
            <path d=" M 785.628, 483.983 785.481, 484.015 779.811, 483.772 " fill="none" stroke="rgb(0, 0, 0)" stroke-linecap="butt" stroke-linejoin="round" stroke-opacity="1.0" stroke-width="3.0" />
            <path d=" M 736.801, 517.970 727.854, 517.560 717.862, 517.160 716.361, 517.100 706.367, 516.754 704.879, 516.702 694.884, 516.405 693.404, 516.361 683.407, 516.110 681.930, 516.072 671.933, 515.862 670.454, 515.831 660.455, 515.657 658.969, 515.631 648.970, 515.491 647.471, 515.470 637.472, 515.359 635.956, 515.342 625.957, 515.255 624.420, 515.242 614.420, 515.178 612.856, 515.167 602.856, 515.120 601.262, 515.113 591.262, 515.080 589.632, 515.075 579.632, 515.052 577.962, 515.049 578.022, 505.049 578.049, 500.477 577.994, 490.477 577.968, 485.934 577.795, 475.935 577.718, 471.440 577.427, 461.444 577.298, 457.014 576.886, 447.022 576.707, 442.675 576.173, 432.690 575.945, 428.444 575.285, 418.466 575.012, 414.340 574.223, 404.371 573.907, 400.385 572.984, 390.428 572.629, 386.601 571.567, 376.658 571.177, 373.010 570.985, 371.428 " fill="none" stroke="rgb(0, 0, 0)" stroke-linecap="butt" stroke-linejoin="round" stroke-opacity="1.0" stroke-width="3.0" />
            <path d=" M 566.112, 245.129 559.174, 239.935 551.566, 233.445 550.800, 232.792 545.616, 227.801 542.705, 224.999 540.745, 222.886 540.157, 222.252 537.545, 219.437 534.893, 216.578 532.061, 213.180 529.226, 209.778 527.364, 207.544 521.842, 200.204 520.118, 197.913 " fill="none" stroke="rgb(0, 0, 0)" stroke-linecap="butt" stroke-linejoin="round" stroke-opacity="1.0" stroke-width="3.0" />
            <path d=" M 573.281, 249.843 571.701, 248.924 571.503, 248.808 571.119, 248.546 566.112, 245.129 562.737, 242.826 " fill="none" stroke="rgb(0, 0, 0)" stroke-linecap="butt" stroke-linejoin="round" stroke-opacity="1.0" stroke-width="3.0" />
            <path d=" M 520.118, 197.913 518.049, 195.525 515.659, 192.767 511.065, 188.430 506.344, 184.945 504.962, 184.205 502.093, 182.667 501.507, 182.353 496.562, 180.692 491.522, 179.998 486.399, 180.312 481.208, 181.668 475.963, 184.098 474.815, 184.866 473.221, 185.933 470.682, 187.631 467.498, 190.432 465.381, 192.295 460.081, 198.111 455.839, 203.722 454.801, 205.095 454.140, 206.125 449.563, 213.258 448.696, 214.825 444.390, 222.608 440.044, 231.614 439.306, 233.143 435.397, 242.348 434.333, 244.853 430.816, 254.214 429.498, 257.722 426.333, 267.208 424.825, 271.728 421.980, 281.315 420.341, 286.836 417.787, 296.504 416.070, 303.002 413.784, 312.737 412.037, 320.177 410.001, 329.968 408.268, 338.303 406.465, 348.139 404.784, 357.310 403.201, 367.184 401.608, 377.120 400.234, 387.025 398.861, 396.930 398.761, 397.649 397.588, 407.580 396.415, 417.511 396.262, 418.805 395.282, 428.757 394.302, 438.708 394.127, 440.487 393.334, 450.456 392.542, 460.424 392.369, 462.592 391.761, 472.573 391.152, 482.555 391.002, 485.009 390.575, 495.000 390.147, 504.991 390.034, 507.629 389.785, 517.626 389.537, 527.623 389.469, 530.334 389.400, 540.334 389.331, 550.334 389.313, 553.010 389.343, 553.029 394.893, 556.605 396.619, 557.667 400.569, 560.099 406.340, 563.496 412.209, 566.802 418.176, 570.019 424.243, 573.153 430.410, 576.207 436.680, 579.185 443.053, 582.091 449.531, 584.929 456.115, 587.702 462.807, 590.413 469.608, 593.066 476.520, 595.663 479.321, 596.678 " fill="none" stroke="rgb(0, 0, 0)" stroke-linecap="butt" stroke-linejoin="round" stroke-opacity="1.0" stroke-width="3.0" />
            <path d=" M 359.444, 543.484 355.237, 552.556 352.976, 557.431 " fill="none" stroke="rgb(0, 0, 0)" stroke-linecap="butt" stroke-linejoin="round" stroke-opacity="1.0" stroke-width="3.0" />
            <path d=" M 474.815, 184.866 466.147, 185.115 " fill="none" stroke="rgb(0, 0, 0)" stroke-linecap="butt" stroke-linejoin="round" stroke-opacity="1.0" stroke-width="3.0" />
            <path d=" M 534.027, 482.345 534.052, 482.355 " fill="none" stroke="rgb(0, 0, 0)" stroke-linecap="butt" stroke-linejoin="round" stroke-opacity="1.0" stroke-width="3.0" />
            <path d=" M 534.160, 482.384 534.207, 482.392 " fill="none" stroke="rgb(0, 0, 0)" stroke-linecap="butt" stroke-linejoin="round" stroke-opacity="1.0" stroke-width="3.0" />
            <path d=" M 571.701, 248.924 571.119, 248.546 " fill="none" stroke="rgb(0, 0, 0)" stroke-linecap="butt" stroke-linejoin="round" stroke-opacity="1.0" stroke-width="3.0" />
        </g>
    </g>
</svg>
