<?xml version='1.0' encoding='ascii'?>
<svg xmlns="http://www.w3.org/2000/svg" height="1080" version="1.1" width="1080">
    <g id="View Layer_LineSet" inkscape:groupmode="lineset" inkscape:label="View Layer_LineSet" xmlns:inkscape="http://www.inkscape.org/namespaces/inkscape">
        <g id="strokes" inkscape:groupmode="layer" inkscape:label="strokes" xmlns:inkscape="http://www.inkscape.org/namespaces/inkscape">
            <path d=" M 565.181, 502.401 565.127, 503.540 565.054, 504.653 564.963, 505.728 564.854, 506.755 564.728, 507.723 564.697, 507.922 564.587, 508.623 564.584, 508.644 " fill="none" stroke="rgb(0, 0, 0)" stroke-linecap="butt" stroke-linejoin="round" stroke-opacity="1.0" stroke-width="3.0" />
            <path d=" M 353.024, 541.777 359.392, 542.365 " fill="none" stroke="rgb(0, 0, 0)" stroke-linecap="butt" stroke-linejoin="round" stroke-opacity="1.0" stroke-width="3.0" />
            <path d=" M 377.337, 542.742 387.335, 542.573 389.375, 542.539 " fill="none" stroke="rgb(0, 0, 0)" stroke-linecap="butt" stroke-linejoin="round" stroke-opacity="1.0" stroke-width="3.0" />
            <path d=" M 389.375, 542.539 385.385, 533.370 381.395, 524.200 380.375, 521.856 " fill="none" stroke="rgb(0, 0, 0)" stroke-linecap="butt" stroke-linejoin="round" stroke-opacity="1.0" stroke-width="3.0" />
            <path d=" M 467.902, 179.336 463.409, 179.785 458.856, 181.312 454.257, 183.949 449.626, 187.728 444.979, 192.679 440.636, 198.423 440.335, 198.822 439.219, 200.596 435.711, 206.173 431.127, 214.747 426.938, 223.828 426.605, 224.549 422.869, 233.825 422.165, 235.574 418.826, 245.000 417.830, 247.811 414.841, 257.354 413.623, 261.245 410.946, 270.880 409.566, 275.845 407.170, 285.554 405.684, 291.575 403.542, 301.343 401.998, 308.387 400.091, 318.203 398.533, 326.227 396.843, 336.083 395.310, 345.026 393.822, 354.915 392.349, 364.709 391.052, 374.625 389.756, 384.540 389.671, 385.192 388.556, 395.130 387.441, 405.068 387.294, 406.383 386.352, 416.339 385.411, 426.294 385.233, 428.179 384.459, 438.149 383.686, 448.120 383.503, 450.475 382.893, 460.456 382.283, 470.438 382.116, 473.157 381.666, 483.147 381.215, 493.137 381.081, 496.110 380.788, 506.106 380.495, 516.101 380.404, 519.212 380.375, 521.856 378.935, 531.751 377.496, 541.647 377.337, 542.742 " fill="none" stroke="rgb(0, 0, 0)" stroke-linecap="butt" stroke-linejoin="round" stroke-opacity="1.0" stroke-width="3.0" />
            <path d=" M 566.926, 521.085 567.105, 521.088 567.994, 521.104 574.831, 519.964 577.917, 519.586 578.010, 509.587 578.054, 504.760 578.029, 494.760 578.017, 489.957 577.874, 479.958 577.806, 475.197 577.543, 465.200 577.419, 460.499 577.034, 450.506 576.856, 445.885 576.347, 435.898 576.117, 431.375 575.481, 421.395 575.201, 416.991 574.434, 407.020 574.106, 402.754 573.205, 392.795 572.833, 388.688 571.793, 378.742 571.522, 376.155 " fill="none" stroke="rgb(0, 0, 0)" stroke-linecap="butt" stroke-linejoin="round" stroke-opacity="1.0" stroke-width="3.0" />
            <path d=" M 568.488, 381.257 568.501, 381.368 569.553, 391.313 569.904, 394.623 570.814, 404.581 571.134, 408.071 571.908, 418.040 572.192, 421.689 572.835, 431.668 573.078, 435.455 573.593, 445.442 573.794, 449.347 574.184, 459.339 574.340, 463.344 574.607, 473.340 574.716, 477.424 574.862, 487.423 574.923, 491.568 574.950, 501.567 574.961, 505.754 574.951, 506.851 574.868, 507.563 574.778, 508.240 574.679, 508.879 574.573, 509.477 574.460, 510.030 574.341, 510.535 574.217, 510.990 574.088, 511.393 573.955, 511.740 573.819, 512.030 573.680, 512.262 573.540, 512.435 573.399, 512.546 573.257, 512.597 569.221, 513.150 569.050, 511.984 568.853, 510.970 568.632, 510.127 568.390, 509.467 568.133, 509.003 567.864, 508.743 567.587, 508.692 567.261, 508.687 565.153, 508.653 564.691, 508.645 564.584, 508.644 563.745, 508.630 562.903, 508.616 559.331, 508.559 557.545, 508.530 557.432, 508.528 557.198, 508.524 556.908, 508.684 556.620, 509.051 556.340, 509.622 556.071, 510.385 555.819, 511.330 555.587, 512.441 555.550, 512.664 555.380, 513.698 555.202, 515.081 555.056, 516.565 554.943, 518.126 554.899, 519.051 554.878, 519.496 554.867, 519.737 554.828, 521.369 555.441, 521.380 557.289, 521.413 557.390, 521.415 559.174, 521.446 562.746, 521.510 563.581, 521.525 564.532, 521.542 565.294, 521.555 566.921, 521.283 566.926, 521.085 566.934, 520.767 566.963, 520.262 567.004, 519.782 567.058, 519.342 567.060, 519.334 567.123, 518.952 567.141, 518.874 567.197, 518.623 567.278, 518.365 567.365, 518.184 567.453, 518.085 567.542, 518.072 " fill="none" stroke="rgb(0, 0, 0)" stroke-linecap="butt" stroke-linejoin="round" stroke-opacity="1.0" stroke-width="3.0" />
            <path d=" M 385.810, 252.960 383.503, 261.205 381.093, 270.910 379.912, 275.666 377.754, 285.430 376.465, 291.259 374.536, 301.071 373.185, 307.941 371.465, 317.792 370.091, 325.661 368.564, 335.544 367.202, 344.354 365.854, 354.263 364.536, 363.946 363.357, 373.876 362.177, 383.806 362.111, 384.358 361.091, 394.306 360.072, 404.254 359.944, 405.500 359.076, 415.463 358.208, 425.425 358.047, 427.274 357.327, 437.247 356.606, 447.221 356.436, 449.574 355.857, 459.557 355.279, 469.540 355.120, 472.291 354.681, 482.282 354.242, 492.272 354.109, 495.311 353.807, 505.306 353.506, 515.301 353.409, 518.513 353.243, 528.511 353.078, 538.510 353.024, 541.777 353.041, 551.777 353.058, 561.777 353.064, 564.884 353.241, 574.882 353.419, 584.881 353.470, 587.785 353.811, 597.779 354.152, 607.773 354.240, 610.363 354.749, 620.350 355.257, 630.337 355.367, 632.503 356.049, 642.480 356.731, 652.456 356.843, 654.094 357.705, 664.057 358.568, 674.020 358.656, 675.035 359.708, 684.979 360.761, 694.924 360.793, 695.229 362.047, 705.150 363.240, 714.586 364.710, 724.477 365.981, 733.028 367.684, 742.882 368.997, 750.486 370.952, 760.293 372.269, 766.898 373.414, 771.892 " fill="none" stroke="rgb(0, 0, 0)" stroke-linecap="butt" stroke-linejoin="round" stroke-opacity="1.0" stroke-width="3.0" />
            <path d=" M 522.971, 538.233 522.729, 547.081 522.348, 557.074 522.191, 561.209 521.702, 571.197 521.501, 575.288 520.902, 585.270 520.661, 589.298 519.951, 599.273 519.670, 603.221 518.847, 613.187 518.529, 617.035 517.591, 626.990 517.239, 630.720 517.204, 631.050 " fill="none" stroke="rgb(0, 0, 0)" stroke-linecap="butt" stroke-linejoin="round" stroke-opacity="1.0" stroke-width="3.0" />
            <path d=" M 498.496, 746.364 496.225, 755.548 493.623, 765.204 493.333, 766.278 490.511, 775.872 490.303, 776.576 487.241, 786.096 487.139, 786.413 483.842, 795.755 480.416, 804.567 476.866, 812.816 473.195, 820.468 469.408, 827.485 465.510, 833.828 461.509, 839.462 457.412, 844.350 453.225, 848.451 451.560, 849.729 " fill="none" stroke="rgb(0, 0, 0)" stroke-linecap="butt" stroke-linejoin="round" stroke-opacity="1.0" stroke-width="3.0" />
            <path d=" M 389.443, 537.301 389.375, 542.539 389.382, 552.539 389.390, 562.539 389.392, 565.588 389.561, 575.587 389.730, 585.586 389.778, 588.434 390.112, 598.429 390.445, 608.423 390.530, 610.959 391.032, 620.947 391.534, 630.934 391.640, 633.049 392.316, 643.026 392.992, 653.004 393.099, 654.595 393.954, 664.558 394.810, 674.521 394.893, 675.494 395.936, 685.439 396.979, 695.385 397.007, 695.651 398.248, 705.574 399.424, 714.977 400.875, 724.871 402.125, 733.393 403.801, 743.252 405.089, 750.830 407.008, 760.645 408.295, 767.227 410.480, 776.986 411.721, 782.531 414.199, 792.219 415.345, 796.700 418.148, 806.299 419.143, 809.704 422.313, 819.188 423.092, 821.517 426.681, 830.850 427.170, 832.122 431.241, 841.256 431.356, 841.515 435.627, 849.696 439.402, 855.768 439.677, 856.210 439.964, 856.671 444.346, 862.452 448.756, 867.062 453.175, 870.523 457.588, 872.860 461.980, 874.108 466.335, 874.301 470.643, 873.476 474.891, 871.670 479.067, 868.925 483.163, 865.282 483.614, 864.775 487.171, 860.781 491.083, 855.463 494.891, 849.373 498.590, 842.550 502.175, 835.034 505.642, 826.865 508.986, 818.084 512.205, 808.727 512.596, 807.472 515.295, 798.829 515.670, 797.509 " fill="none" stroke="rgb(0, 0, 0)" stroke-linecap="butt" stroke-linejoin="round" stroke-opacity="1.0" stroke-width="3.0" />
            <path d=" M 466.252, 855.991 462.183, 855.605 460.404, 855.002 458.096, 854.220 454.004, 851.807 451.560, 849.729 449.921, 848.335 445.862, 843.784 441.843, 838.135 437.881, 831.369 433.993, 823.477 430.197, 814.457 426.784, 805.058 426.512, 804.310 423.503, 794.774 422.957, 793.044 420.302, 783.403 419.551, 780.676 417.210, 770.954 416.313, 767.230 414.253, 757.445 413.262, 752.740 411.457, 742.904 410.417, 737.242 408.844, 727.366 407.796, 720.788 406.437, 710.881 405.416, 703.436 404.256, 693.503 403.293, 685.250 402.321, 675.297 401.443, 666.303 400.648, 656.334 399.878, 646.678 399.252, 636.697 398.626, 626.717 398.611, 626.462 398.148, 616.473 397.685, 606.483 397.651, 605.749 397.346, 595.754 397.041, 585.758 397.007, 584.639 396.855, 574.640 396.704, 564.642 396.683, 563.237 396.683, 553.237 396.683, 544.721 " fill="none" stroke="rgb(0, 0, 0)" stroke-linecap="butt" stroke-linejoin="round" stroke-opacity="1.0" stroke-width="3.0" />
            <path d=" M 512.204, 788.867 510.010, 795.657 506.883, 804.448 503.643, 812.677 500.295, 820.309 496.843, 827.308 493.293, 833.635 489.649, 839.255 485.919, 844.130 482.109, 848.220 478.229, 851.488 474.286, 853.897 470.290, 855.411 466.252, 855.991 " fill="none" stroke="rgb(0, 0, 0)" stroke-linecap="butt" stroke-linejoin="round" stroke-opacity="1.0" stroke-width="3.0" />
            <path d=" M 554.878, 519.496 548.947, 519.356 548.093, 519.336 546.379, 519.296 546.211, 529.294 546.142, 533.430 545.876, 543.427 545.766, 547.555 545.402, 557.548 545.253, 561.650 544.790, 571.639 544.602, 575.697 544.040, 585.681 543.815, 589.675 543.151, 599.653 542.891, 603.565 542.124, 613.535 541.831, 617.347 540.959, 627.309 540.635, 631.001 539.654, 640.953 539.304, 644.506 538.211, 654.446 537.838, 657.840 536.629, 667.766 536.238, 670.981 534.908, 680.892 534.503, 683.906 533.046, 693.799 532.635, 696.591 531.046, 706.464 530.635, 709.014 530.302, 710.908 " fill="none" stroke="rgb(0, 0, 0)" stroke-linecap="butt" stroke-linejoin="round" stroke-opacity="1.0" stroke-width="3.0" />
            <path d=" M 532.774, 719.751 533.193, 717.266 534.718, 707.383 535.205, 704.226 536.601, 694.324 537.081, 690.921 538.354, 681.003 538.819, 677.377 539.976, 667.444 540.421, 663.617 541.465, 653.671 541.886, 649.664 542.822, 639.708 543.214, 635.542 544.047, 625.576 544.406, 621.270 545.138, 611.297 545.462, 606.871 546.095, 596.891 546.382, 592.365 546.919, 582.379 547.167, 577.771 547.610, 567.781 547.816, 563.110 548.166, 553.116 548.331, 548.401 548.588, 538.404 548.710, 533.662 548.876, 523.664 548.947, 519.356 " fill="none" stroke="rgb(0, 0, 0)" stroke-linecap="butt" stroke-linejoin="round" stroke-opacity="1.0" stroke-width="3.0" />
            <path d=" M 377.337, 542.742 377.346, 552.742 377.355, 562.742 377.359, 566.737 377.527, 576.736 377.695, 586.734 377.759, 590.516 378.089, 600.510 378.419, 610.505 378.533, 613.953 379.028, 623.941 379.524, 633.929 379.673, 636.929 380.340, 646.906 381.008, 656.884 381.171, 659.326 382.016, 669.290 382.861, 679.254 383.013, 681.037 384.045, 690.984 385.076, 700.931 385.184, 701.963 386.413, 711.887 387.668, 722.008 389.109, 731.904 390.447, 741.091 392.115, 750.951 393.500, 759.140 395.414, 768.955 396.806, 776.091 398.991, 785.849 400.343, 791.890 402.828, 801.576 404.089, 806.496 406.908, 816.090 408.020, 819.877 411.218, 829.352 412.114, 832.009 415.745, 841.327 416.349, 842.876 420.477, 851.984 420.700, 852.476 425.146, 860.812 429.668, 867.890 434.243, 873.728 438.854, 878.348 443.481, 881.778 448.108, 884.046 452.719, 885.188 457.299, 885.244 461.834, 884.251 466.312, 882.250 470.722, 879.286 475.053, 875.402 479.296, 870.641 " fill="none" stroke="rgb(0, 0, 0)" stroke-linecap="butt" stroke-linejoin="round" stroke-opacity="1.0" stroke-width="3.0" />
            <path d=" M 479.296, 870.641 485.537, 862.827 487.171, 860.781 " fill="none" stroke="rgb(0, 0, 0)" stroke-linecap="butt" stroke-linejoin="round" stroke-opacity="1.0" stroke-width="3.0" />
            <path d=" M 539.985, 544.476 529.987, 544.679 528.588, 544.707 525.626, 541.293 522.971, 538.233 519.917, 534.712 " fill="none" stroke="rgb(0, 0, 0)" stroke-linecap="butt" stroke-linejoin="round" stroke-opacity="1.0" stroke-width="3.0" />
            <path d=" M 526.147, 497.334 529.171, 493.118 539.150, 493.771 540.590, 493.865 540.628, 503.865 540.665, 513.865 540.685, 519.162 540.473, 529.160 540.385, 533.304 540.027, 543.297 539.985, 544.476 533.586, 536.792 531.231, 533.964 530.963, 533.643 530.696, 533.321 530.428, 532.999 530.161, 532.677 529.850, 532.179 529.558, 531.458 529.290, 530.527 529.082, 529.539 529.053, 529.404 528.853, 528.111 528.692, 526.672 528.574, 525.113 528.507, 523.607 528.500, 523.467 528.474, 521.763 528.493, 520.036 528.560, 518.319 528.621, 517.402 528.672, 516.645 528.826, 515.046 529.021, 513.554 529.252, 512.197 529.271, 512.112 529.515, 511.001 529.804, 509.989 530.114, 509.180 530.437, 508.588 530.712, 508.187 530.989, 507.785 531.265, 507.385 531.540, 506.985 531.680, 506.784 537.357, 498.552 540.590, 493.865 " fill="none" stroke="rgb(0, 0, 0)" stroke-linecap="butt" stroke-linejoin="round" stroke-opacity="1.0" stroke-width="3.0" />
            <path d=" M 530.830, 523.649 530.708, 523.534 530.595, 523.287 530.495, 522.919 530.416, 522.448 530.358, 521.893 530.326, 521.279 530.320, 520.633 530.341, 519.983 530.388, 519.358 530.458, 518.785 530.549, 518.289 530.656, 517.892 530.776, 517.612 530.902, 517.460 531.028, 517.444 " fill="none" stroke="rgb(0, 0, 0)" stroke-linecap="butt" stroke-linejoin="round" stroke-opacity="1.0" stroke-width="3.0" />
            <path d=" M 531.028, 517.444 531.151, 517.562 531.264, 517.811 531.362, 518.179 531.441, 518.649 531.498, 519.202 531.530, 519.814 531.536, 520.457 531.515, 521.105 531.469, 521.728 531.399, 522.300 531.309, 522.795 531.202, 523.192 531.083, 523.474 530.957, 523.629 530.830, 523.649 " fill="none" stroke="rgb(0, 0, 0)" stroke-linecap="butt" stroke-linejoin="round" stroke-opacity="1.0" stroke-width="3.0" />
            <path d=" M 361.368, 472.125 361.229, 474.659 360.819, 484.651 360.410, 494.643 360.307, 497.150 360.035, 507.147 359.764, 517.143 359.693, 519.749 359.586, 527.794 359.453, 537.793 359.392, 542.365 359.396, 552.365 359.401, 562.365 359.402, 564.908 359.546, 574.907 359.690, 584.906 359.724, 587.288 360.009, 597.284 360.294, 607.280 360.355, 609.417 360.362, 609.586 " fill="none" stroke="rgb(0, 0, 0)" stroke-linecap="butt" stroke-linejoin="round" stroke-opacity="1.0" stroke-width="3.0" />
            <path d=" M 539.077, 738.615 540.671, 728.743 540.815, 727.848 542.299, 717.959 542.662, 715.539 544.040, 705.635 544.400, 703.048 545.677, 693.130 546.030, 690.391 547.209, 680.460 547.551, 677.581 548.636, 667.640 548.964, 664.634 549.957, 654.683 550.269, 651.562 551.173, 641.603 551.466, 638.379 552.282, 628.412 552.554, 625.097 553.285, 615.124 553.534, 611.729 554.182, 601.750 554.407, 598.286 554.971, 588.302 555.171, 584.781 555.654, 574.793 555.826, 571.226 556.229, 561.234 556.374, 557.630 556.696, 547.635 556.813, 544.006 557.055, 534.009 557.143, 530.365 557.289, 521.413 " fill="none" stroke="rgb(0, 0, 0)" stroke-linecap="butt" stroke-linejoin="round" stroke-opacity="1.0" stroke-width="3.0" />
            <path d=" M 455.351, 916.847 457.789, 917.016 461.944, 917.173 466.063, 916.504 470.138, 915.037 474.161, 912.802 478.125, 909.831 482.024, 906.155 485.852, 901.803 489.605, 896.807 493.277, 891.197 496.865, 885.002 500.364, 878.252 503.772, 870.975 507.085, 863.199 510.302, 854.951 513.419, 846.258 516.436, 837.144 519.350, 827.634 522.086, 818.016 522.161, 817.753 523.086, 814.256 " fill="none" stroke="rgb(0, 0, 0)" stroke-linecap="butt" stroke-linejoin="round" stroke-opacity="1.0" stroke-width="3.0" />
            <path d=" M 521.277, 194.440 520.653, 192.576 517.662, 184.439 514.556, 176.789 511.338, 169.654 508.009, 163.063 504.572, 157.045 501.030, 151.631 497.387, 146.852 493.645, 142.737 489.810, 139.319 485.887, 136.630 481.881, 134.699 477.799, 133.559 473.647, 133.240 472.339, 133.405 469.434, 133.772 465.167, 135.182 460.857, 137.498 456.512, 140.746 452.144, 144.948 447.765, 150.125 443.386, 156.296 439.021, 163.474 434.684, 171.671 430.514, 180.623 430.389, 180.893 426.567, 190.134 426.151, 191.142 422.685, 200.522 421.985, 202.416 420.955, 205.521 417.908, 214.707 415.046, 224.288 413.937, 228.001 411.334, 237.656 410.087, 242.279 407.721, 251.995 406.376, 257.515 404.228, 267.282 402.820, 273.678 400.874, 283.487 399.437, 290.730 397.679, 300.575 396.241, 308.626 394.660, 318.501 393.249, 327.315 391.836, 337.215 390.477, 346.741 389.223, 356.662 387.970, 366.583 387.937, 366.840 386.836, 376.780 385.736, 386.719 385.644, 387.545 384.691, 397.499 383.737, 407.454 383.610, 408.780 382.799, 418.748 381.988, 428.715 381.845, 430.470 381.173, 440.447 380.501, 450.425 380.359, 452.530 379.823, 462.516 379.287, 472.502 379.160, 474.877 378.758, 484.869 378.357, 494.860 378.254, 497.421 377.985, 507.417 377.717, 517.414 377.645, 520.073 377.509, 530.072 377.373, 540.071 377.337, 542.742 377.333, 552.742 377.330, 562.742 377.329, 565.338 377.460, 575.337 377.591, 585.336 377.622, 587.770 377.889, 597.766 378.155, 607.763 378.213, 609.950 378.617, 619.942 379.022, 629.933 379.097, 631.791 379.643, 641.776 380.189, 651.761 380.268, 653.211 380.960, 663.187 381.652, 673.163 381.719, 674.131 382.562, 684.095 383.405, 694.059 383.440, 694.475 384.440, 704.424 385.421, 714.173 386.587, 724.105 387.650, 733.163 388.990, 743.072 390.115, 751.384 391.641, 761.267 392.801, 768.784 394.526, 778.634 395.695, 785.318 397.633, 795.128 398.782, 800.945 400.951, 810.706 402.046, 815.631 404.468, 825.333 405.471, 829.350 408.171, 838.978 409.041, 842.080 412.050, 851.616 412.741, 853.805 416.096, 863.226 416.555, 864.517 420.299, 873.790 420.468, 874.210 424.464, 882.885 428.529, 890.547 432.648, 897.205 436.808, 902.872 440.996, 907.565 445.200, 911.303 449.407, 914.108 453.606, 916.004 457.415, 916.926 457.789, 917.016 " fill="none" stroke="rgb(0, 0, 0)" stroke-linecap="butt" stroke-linejoin="round" stroke-opacity="1.0" stroke-width="3.0" />
            <path d=" M 471.205, 133.319 466.964, 133.851 462.671, 135.262 458.333, 137.578 453.961, 140.826 449.566, 145.027 445.160, 150.204 440.754, 156.373 436.362, 163.549 431.998, 171.744 427.754, 180.799 427.703, 180.909 427.677, 180.964 423.835, 190.196 423.413, 191.210 419.928, 200.583 419.223, 202.481 416.057, 211.966 415.122, 214.768 414.149, 218.004 411.271, 227.581 411.127, 228.057 408.509, 237.708 407.255, 242.330 404.875, 252.043 403.523, 257.562 401.362, 267.326 399.947, 273.719 397.990, 283.526 396.545, 290.765 394.777, 300.607 393.331, 308.654 391.742, 318.527 390.323, 327.336 388.902, 337.235 387.536, 346.755 386.275, 356.675 385.015, 366.595 384.983, 366.846 383.877, 376.785 382.770, 386.724 382.679, 387.543 381.720, 397.497 380.762, 407.451 380.635, 408.770 379.819, 418.737 379.004, 428.704 378.861, 430.451 378.186, 440.428 377.511, 450.405 377.369, 452.503 376.831, 462.488 376.293, 472.474 376.166, 474.840 375.763, 484.832 375.360, 494.824 375.257, 497.376 374.988, 507.372 374.719, 517.368 374.647, 520.019 374.512, 530.018 374.376, 540.017 374.340, 542.679 374.338, 552.679 374.336, 562.679 374.336, 565.266 374.468, 575.265 374.601, 585.264 374.633, 587.689 374.903, 597.686 375.172, 607.682 375.231, 609.861 375.639, 619.853 376.048, 629.844 376.123, 631.694 376.674, 641.679 377.225, 651.664 377.304, 653.106 378.002, 663.082 378.700, 673.057 378.767, 674.018 379.617, 683.982 380.467, 693.946 380.502, 694.355 381.510, 704.304 382.498, 714.046 383.673, 723.977 384.743, 733.029 386.094, 742.938 387.226, 751.244 388.763, 761.125 389.932, 768.639 391.668, 778.487 392.846, 785.168 394.798, 794.975 395.954, 800.790 398.139, 810.549 399.241, 815.472 401.679, 825.171 402.689, 829.188 405.407, 838.811 406.284, 841.914 409.312, 851.445 410.009, 853.637 413.384, 863.051 413.849, 864.347 417.614, 873.611 417.787, 874.038 421.810, 882.712 425.901, 890.373 430.048, 897.031 434.235, 902.698 438.450, 907.391 442.681, 911.130 446.915, 913.936 451.142, 915.833 455.351, 916.847 " fill="none" stroke="rgb(0, 0, 0)" stroke-linecap="butt" stroke-linejoin="round" stroke-opacity="1.0" stroke-width="3.0" />
            <path d=" M 473.647, 133.240 471.205, 133.319 " fill="none" stroke="rgb(0, 0, 0)" stroke-linecap="butt" stroke-linejoin="round" stroke-opacity="1.0" stroke-width="3.0" />
            <path d=" M 545.156, 753.737 545.375, 752.443 546.928, 742.564 547.409, 739.503 548.856, 729.608 549.330, 726.367 550.675, 716.458 551.137, 713.052 552.384, 703.130 552.831, 699.573 553.983, 689.639 554.412, 685.944 555.472, 676.000 555.880, 672.179 556.852, 662.227 557.236, 658.293 558.120, 648.332 558.479, 644.297 559.279, 634.329 559.610, 630.205 560.327, 620.231 560.629, 616.028 561.265, 606.048 561.537, 601.778 562.092, 591.794 562.332, 587.467 562.808, 577.479 563.016, 573.106 563.413, 563.114 563.588, 558.706 563.907, 548.711 564.049, 544.277 564.290, 534.280 564.397, 529.830 564.532, 521.542 " fill="none" stroke="rgb(0, 0, 0)" stroke-linecap="butt" stroke-linejoin="round" stroke-opacity="1.0" stroke-width="3.0" />
            <path d=" M 457.283, 947.233 459.687, 947.409 464.149, 947.203 468.564, 946.110 472.924, 944.165 477.222, 941.405 481.449, 937.863 485.600, 933.575 489.669, 928.577 493.651, 922.903 497.541, 916.588 501.337, 909.664 505.033, 902.164 508.628, 894.119 512.119, 885.561 515.503, 876.518 518.779, 867.019 521.818, 857.492 521.946, 857.092 524.782, 847.502 525.001, 846.762 527.652, 837.120 527.945, 836.055 530.023, 827.937 " fill="none" stroke="rgb(0, 0, 0)" stroke-linecap="butt" stroke-linejoin="round" stroke-opacity="1.0" stroke-width="3.0" />
            <path d=" M 540.408, 219.921 538.196, 210.168 537.906, 208.892 535.514, 199.182 535.276, 198.216 532.687, 188.557 532.518, 187.928 529.715, 178.329 529.634, 178.054 526.624, 168.622 523.488, 159.661 520.227, 151.199 516.842, 143.268 513.336, 135.899 509.711, 129.126 505.968, 122.982 502.111, 117.501 498.144, 112.719 494.070, 108.672 489.895, 105.395 485.625, 102.925 481.265, 101.297 476.822, 100.549 474.415, 100.637 472.305, 100.714 467.722, 101.828 463.084, 103.923 458.399, 107.030 453.681, 111.180 448.940, 116.398 444.192, 122.708 439.449, 130.130 434.727, 138.680 430.375, 147.683 430.043, 148.370 426.113, 157.566 425.412, 159.206 424.410, 161.840 420.853, 171.189 418.836, 177.112 416.383, 184.314 414.983, 188.892 412.057, 198.455 412.022, 198.570 409.365, 208.210 407.787, 213.937 405.376, 223.642 403.699, 230.390 401.512, 240.148 399.776, 247.897 397.797, 257.699 396.175, 265.735 396.038, 266.417 394.253, 276.256 392.503, 285.900 390.900, 295.771 389.296, 305.642 389.190, 306.293 387.758, 316.190 386.326, 326.086 386.117, 327.530 384.848, 337.449 383.578, 347.368 383.300, 349.542 382.186, 359.480 381.072, 369.417 380.754, 372.251 379.790, 382.204 378.826, 392.158 378.495, 395.573 377.676, 405.539 376.856, 415.506 376.535, 419.419 375.856, 429.396 375.178, 439.373 374.884, 443.695 374.344, 453.680 373.803, 463.666 373.553, 468.301 373.148, 478.293 372.744, 488.285 372.548, 493.138 372.278, 503.134 372.009, 513.130 371.875, 518.099 371.740, 528.098 371.604, 538.097 371.537, 543.081 371.536, 553.081 371.536, 563.081 371.535, 567.979 371.670, 577.978 371.805, 587.977 371.869, 592.687 372.141, 602.683 372.414, 612.680 372.534, 617.104 372.946, 627.096 373.359, 637.087 373.526, 641.130 374.082, 651.115 374.638, 661.100 374.837, 664.671 375.541, 674.646 376.245, 684.621 376.458, 687.634 377.316, 697.597 378.174, 707.560 378.378, 709.935 379.397, 719.883 380.415, 729.831 380.586, 731.495 381.773, 741.424 382.960, 751.354 383.066, 752.241 384.431, 762.147 385.804, 772.108 387.360, 781.986 388.785, 791.037 390.544, 800.881 391.990, 808.979 393.969, 818.782 395.404, 825.891 397.621, 835.642 398.028, 837.433 399.007, 841.736 401.190, 850.269 402.781, 856.488 405.549, 866.097 406.710, 870.125 409.208, 877.816 410.773, 882.634 413.979, 891.354 414.955, 894.008 418.813, 903.234 419.236, 904.245 423.601, 913.349 428.032, 921.331 432.514, 928.204 437.032, 933.986 441.571, 938.700 446.118, 942.371 450.661, 945.025 455.188, 946.694 458.291, 947.187 459.687, 947.409 " fill="none" stroke="rgb(0, 0, 0)" stroke-linecap="butt" stroke-linejoin="round" stroke-opacity="1.0" stroke-width="3.0" />
            <path d=" M 363.009, 441.756 362.882, 443.598 362.332, 453.583 361.783, 463.568 361.530, 468.166 361.368, 472.125 360.958, 482.117 360.549, 492.109 360.514, 492.963 360.243, 502.959 359.971, 512.956 359.838, 517.885 359.709, 527.532 359.575, 537.532 359.523, 541.495 359.505, 542.828 359.509, 552.828 359.514, 562.828 359.516, 567.686 359.660, 577.685 359.731, 582.612 359.871, 592.356 360.156, 602.352 360.362, 609.586 360.566, 616.736 360.696, 619.767 " fill="none" stroke="rgb(0, 0, 0)" stroke-linecap="butt" stroke-linejoin="round" stroke-opacity="1.0" stroke-width="3.0" />
            <path d=" M 474.415, 100.637 474.413, 100.636 469.867, 100.803 465.255, 101.917 460.587, 104.013 455.873, 107.120 451.125, 111.270 446.356, 116.487 441.578, 122.796 436.806, 130.216 432.056, 138.765 427.682, 147.757 427.344, 148.452 423.393, 157.639 422.685, 159.285 419.110, 168.624 418.099, 171.265 415.890, 177.713 413.603, 184.386 410.661, 193.943 410.532, 194.361 409.216, 198.637 407.581, 204.533 404.957, 213.999 402.532, 223.700 400.845, 230.447 398.646, 240.202 396.900, 247.948 394.911, 257.748 393.141, 266.460 391.346, 276.298 389.587, 285.937 387.975, 295.806 387.311, 299.871 386.257, 306.322 384.817, 316.218 383.376, 326.113 383.167, 327.551 381.891, 337.469 380.614, 347.388 380.335, 349.555 379.216, 359.492 378.096, 369.429 377.777, 372.255 376.808, 382.208 375.839, 392.161 375.507, 395.568 374.684, 405.534 373.860, 415.500 373.537, 419.405 372.856, 429.381 372.174, 439.358 371.880, 443.671 371.337, 453.656 370.795, 463.641 370.543, 468.268 370.138, 478.259 369.732, 488.251 369.536, 493.094 369.266, 503.090 368.996, 513.087 368.862, 518.046 368.727, 528.045 368.592, 538.044 368.525, 543.018 368.526, 553.018 368.527, 563.018 368.527, 567.905 368.664, 577.904 368.801, 587.904 368.866, 592.604 369.141, 602.600 369.417, 612.597 369.538, 617.012 369.955, 627.003 370.371, 636.995 370.540, 641.029 371.101, 651.013 371.662, 660.998 371.862, 664.561 372.572, 674.535 373.282, 684.510 373.496, 687.516 374.361, 697.478 375.226, 707.441 375.431, 709.809 376.458, 719.756 377.484, 729.703 377.655, 731.361 378.851, 741.289 380.047, 751.218 380.154, 752.100 381.529, 762.005 382.912, 771.960 384.478, 781.837 385.913, 790.884 387.684, 800.726 389.141, 808.820 391.050, 818.209 392.578, 825.727 394.810, 835.475 396.119, 841.189 396.206, 841.568 398.701, 851.252 399.247, 853.369 400.006, 856.316 402.792, 865.920 403.961, 869.950 406.321, 877.166 408.052, 882.457 411.523, 891.835 412.261, 893.828 416.141, 903.045 416.570, 904.064 420.917, 913.070 420.963, 913.167 425.424, 921.148 429.935, 928.021 434.482, 933.803 439.050, 938.518 443.627, 942.189 448.199, 944.845 452.755, 946.516 457.283, 947.233 " fill="none" stroke="rgb(0, 0, 0)" stroke-linecap="butt" stroke-linejoin="round" stroke-opacity="1.0" stroke-width="3.0" />
            <path d=" M 476.822, 100.549 474.413, 100.636 " fill="none" stroke="rgb(0, 0, 0)" stroke-linecap="butt" stroke-linejoin="round" stroke-opacity="1.0" stroke-width="3.0" />
            <path d=" M 545.853, 225.999 544.901, 220.978 542.887, 211.182 542.463, 209.117 540.286, 199.357 539.892, 197.595 537.539, 187.876 537.190, 186.436 534.645, 176.765 534.355, 175.665 531.600, 166.052 531.388, 165.312 528.403, 155.768 528.289, 155.403 525.057, 145.969 521.694, 137.041 518.201, 128.650 514.580, 120.831 510.831, 113.619 506.958, 107.048 502.963, 101.155 498.850, 95.978 494.622, 91.555 490.285, 87.925 485.845, 85.128 481.306, 83.201 476.677, 82.185 471.966, 82.117 467.115, 82.306 462.270, 83.227 457.360, 85.171 452.397, 88.173 447.394, 92.265 442.362, 97.478 437.316, 103.838 432.272, 111.370 427.245, 120.093 422.753, 129.027 422.253, 130.021 418.200, 139.163 417.314, 141.163 413.650, 150.467 412.446, 153.523 409.127, 162.956 407.670, 167.097 404.661, 176.633 403.006, 181.876 400.275, 191.496 398.474, 197.842 395.997, 207.530 394.096, 214.969 391.851, 224.714 389.891, 233.224 387.862, 243.016 385.883, 252.565 385.810, 252.960 383.980, 262.791 382.150, 272.622 382.091, 272.942 380.449, 282.806 378.806, 292.670 378.535, 294.296 377.069, 304.188 375.603, 314.080 375.236, 316.559 373.937, 326.475 372.639, 336.390 372.211, 339.658 371.073, 349.593 369.934, 359.528 369.478, 363.509 368.493, 373.460 367.509, 383.412 367.053, 388.022 366.217, 397.987 365.381, 407.952 364.949, 413.102 364.841, 414.668 364.150, 424.645 363.459, 434.621 363.180, 438.646 363.009, 441.756 362.460, 451.741 361.911, 461.726 361.756, 464.549 361.670, 466.631 361.261, 476.623 360.851, 486.615 360.684, 490.700 360.413, 500.696 360.141, 510.692 359.970, 516.987 359.837, 526.986 359.833, 527.268 359.700, 537.267 359.655, 540.614 359.619, 543.297 359.624, 553.297 359.628, 563.297 359.631, 569.515 359.775, 579.514 359.919, 589.513 359.969, 593.036 360.005, 595.529 360.290, 605.525 360.492, 612.623 360.696, 619.767 360.737, 621.228 361.114, 630.017 361.543, 640.008 361.822, 646.505 362.398, 656.488 362.974, 666.471 363.250, 671.256 363.978, 681.230 364.707, 691.203 365.012, 695.385 365.898, 705.346 366.785, 715.307 367.096, 718.800 368.147, 728.745 369.199, 738.689 369.487, 741.416 370.712, 751.341 371.937, 761.266 372.171, 763.156 373.414, 771.892 374.822, 781.793 375.130, 783.951 376.734, 793.821 378.346, 803.739 380.161, 813.573 381.802, 822.468 383.843, 832.257 385.477, 840.093 387.766, 849.828 389.353, 856.579 391.912, 866.246 393.408, 871.897 396.267, 881.480 397.623, 886.028 400.816, 895.504 401.979, 898.958 405.546, 908.300 406.456, 910.682 410.446, 919.851 411.034, 921.202 415.507, 930.146 415.696, 930.523 420.423, 938.659 425.199, 945.627 430.008, 951.447 434.834, 956.147 439.664, 959.753 444.482, 962.299 449.279, 963.815 454.040, 964.339 458.821, 964.700 463.479, 964.263 468.084, 962.906 472.627, 960.668 477.100, 957.587 481.495, 953.702 485.808, 949.050 490.031, 943.669 494.160, 937.597 498.191, 930.868 502.119, 923.520 505.943, 915.585 509.658, 907.097 513.263, 898.089 516.714, 888.703 516.755, 888.590 519.968, 879.121 520.133, 878.632 523.129, 869.091 523.396, 868.241 526.195, 858.641 526.543, 857.446 529.160, 847.795 529.572, 846.272 532.021, 836.577 532.484, 834.745 532.879, 833.069 " fill="none" stroke="rgb(0, 0, 0)" stroke-linecap="butt" stroke-linejoin="round" stroke-opacity="1.0" stroke-width="3.0" />
            <path d=" M 547.521, 759.101 549.059, 749.220 549.560, 746.000 550.993, 736.103 551.529, 732.405 552.861, 722.495 553.380, 718.634 554.616, 708.711 555.116, 704.701 556.258, 694.766 556.735, 690.619 557.787, 680.675 558.238, 676.405 559.202, 666.451 559.626, 662.069 560.505, 652.108 560.899, 647.627 561.694, 637.658 562.058, 633.089 562.770, 623.114 563.101, 618.468 563.733, 608.488 564.031, 603.775 564.582, 593.790 564.846, 589.021 565.319, 579.033 565.547, 574.219 565.942, 564.226 566.134, 559.377 566.451, 549.382 566.606, 544.507 566.847, 534.510 566.965, 529.620 567.105, 521.088 " fill="none" stroke="rgb(0, 0, 0)" stroke-linecap="butt" stroke-linejoin="round" stroke-opacity="1.0" stroke-width="3.0" />
            <path d=" M 471.966, 82.117 467.180, 83.037 462.332, 84.980 457.430, 87.981 452.487, 92.073 447.516, 97.287 442.531, 103.650 437.547, 111.184 432.580, 119.911 428.132, 128.867 427.647, 129.843 423.636, 139.004 422.766, 140.991 421.632, 143.906 418.006, 153.226 417.955, 153.358 414.672, 162.804 413.234, 166.941 410.257, 176.487 408.623, 181.729 405.936, 191.309 404.142, 197.705 401.693, 207.400 400.583, 211.794 399.813, 214.844 397.594, 224.594 395.655, 233.111 395.320, 234.747 393.314, 244.544 391.691, 252.466 389.882, 262.301 388.072, 272.136 387.940, 272.858 386.315, 282.725 384.723, 292.398 384.422, 294.228 382.972, 304.122 381.522, 314.016 381.157, 316.508 379.872, 326.426 378.588, 336.343 378.163, 339.625 377.036, 349.561 375.910, 359.497 375.456, 363.494 375.420, 363.867 374.445, 373.819 373.471, 383.772 373.054, 388.027 372.227, 397.992 371.399, 407.958 370.970, 413.126 370.285, 423.103 369.600, 433.079 369.215, 438.691 368.671, 448.676 368.126, 458.661 367.801, 464.614 367.395, 474.606 366.988, 484.597 366.736, 490.786 366.465, 500.782 366.195, 510.779 366.024, 517.094 365.890, 527.093 365.755, 537.092 365.670, 543.424 365.672, 553.424 365.674, 563.424 365.675, 569.663 365.815, 579.662 365.954, 589.661 366.038, 595.697 366.317, 605.694 366.595, 615.690 366.755, 621.416 367.175, 631.407 367.595, 641.399 367.819, 646.712 368.385, 656.696 368.951, 666.680 369.224, 671.483 369.940, 681.457 370.656, 691.431 370.958, 695.630 371.831, 705.591 372.703, 715.553 373.010, 719.061 374.046, 729.008 375.081, 738.954 375.367, 741.693 376.574, 751.620 377.781, 761.547 378.012, 763.448 379.280, 772.492 379.614, 774.877 380.929, 784.256 382.511, 794.130 384.102, 804.057 385.891, 813.895 386.901, 819.445 387.510, 822.797 388.080, 825.570 390.094, 835.365 391.136, 840.432 393.394, 850.174 394.960, 856.927 396.686, 863.538 398.961, 872.253 401.784, 881.846 403.121, 886.389 406.275, 895.879 407.420, 899.325 410.363, 907.135 411.839, 911.053 415.785, 920.242 416.358, 921.576 420.784, 930.543 420.960, 930.899 425.627, 939.036 430.342, 946.004 435.090, 951.824 439.855, 956.521 444.624, 960.126 449.382, 962.667 454.118, 964.181 458.821, 964.700 " fill="none" stroke="rgb(0, 0, 0)" stroke-linecap="butt" stroke-linejoin="round" stroke-opacity="1.0" stroke-width="3.0" />
            <path d=" M 565.294, 521.555 565.306, 521.056 565.333, 519.921 565.408, 518.308 565.427, 518.035 565.517, 516.745 565.660, 515.258 565.832, 513.874 565.956, 513.095 566.032, 512.615 566.256, 511.503 566.500, 510.556 566.759, 509.791 567.030, 509.220 567.259, 508.916 567.308, 508.852 567.587, 508.692 " fill="none" stroke="rgb(0, 0, 0)" stroke-linecap="butt" stroke-linejoin="round" stroke-opacity="1.0" stroke-width="3.0" />
            <path d=" M 567.994, 521.104 567.993, 520.592 567.977, 520.096 567.948, 519.630 567.905, 519.206 567.850, 518.836 567.784, 518.531 567.709, 518.298 567.628, 518.143 567.542, 518.072 " fill="none" stroke="rgb(0, 0, 0)" stroke-linecap="butt" stroke-linejoin="round" stroke-opacity="1.0" stroke-width="3.0" />
            <path d=" M 531.767, 479.344 531.702, 485.006 531.853, 485.008 537.255, 485.079 537.461, 485.074 537.382, 479.413 532.019, 479.342 531.767, 479.344 531.767, 479.344 " fill="none" stroke="rgb(0, 0, 0)" stroke-linecap="butt" stroke-linejoin="round" stroke-opacity="1.0" stroke-width="3.0" />
            <path d=" M 537.321, 479.413 531.767, 479.344 " fill="none" stroke="rgb(0, 0, 0)" stroke-linecap="butt" stroke-linejoin="round" stroke-opacity="1.0" stroke-width="3.0" />
            <path d=" M 537.255, 485.079 537.321, 479.413 537.382, 479.413 " fill="none" stroke="rgb(0, 0, 0)" stroke-linecap="butt" stroke-linejoin="round" stroke-opacity="1.0" stroke-width="3.0" />
            <path d=" M 534.365, 481.087 534.292, 481.099 534.210, 481.120 534.076, 481.164 533.881, 481.269 533.711, 481.408 533.572, 481.577 533.467, 481.770 533.402, 481.979 533.378, 482.197 533.400, 482.429 533.465, 482.645 533.570, 482.841 533.708, 483.010 533.877, 483.150 534.070, 483.254 534.144, 483.277 534.229, 483.304 534.279, 483.320 " fill="none" stroke="rgb(0, 0, 0)" stroke-linecap="butt" stroke-linejoin="round" stroke-opacity="1.0" stroke-width="3.0" />
            <path d=" M 534.811, 483.302 534.960, 483.247 535.100, 483.171 535.228, 483.076 535.341, 482.963 535.438, 482.835 535.515, 482.694 535.572, 482.544 535.608, 482.386 535.621, 482.225 535.612, 482.064 535.580, 481.905 535.526, 481.753 535.452, 481.610 535.358, 481.479 535.248, 481.364 535.122, 481.265 534.984, 481.186 534.836, 481.128 534.681, 481.091 534.523, 481.078 534.365, 481.087 " fill="none" stroke="rgb(0, 0, 0)" stroke-linecap="butt" stroke-linejoin="round" stroke-opacity="1.0" stroke-width="3.0" />
            <path d=" M 534.339, 483.330 534.497, 483.343 534.655, 483.334 " fill="none" stroke="rgb(0, 0, 0)" stroke-linecap="butt" stroke-linejoin="round" stroke-opacity="1.0" stroke-width="3.0" />
            <path d=" M 534.655, 483.334 534.698, 483.325 534.811, 483.302 " fill="none" stroke="rgb(0, 0, 0)" stroke-linecap="butt" stroke-linejoin="round" stroke-opacity="1.0" stroke-width="3.0" />
            <path d=" M 534.185, 483.294 534.279, 483.320 534.339, 483.330 " fill="none" stroke="rgb(0, 0, 0)" stroke-linecap="butt" stroke-linejoin="round" stroke-opacity="1.0" stroke-width="3.0" />
            <path d=" M 625.301, 897.669 627.473, 898.174 635.380, 899.533 643.282, 900.152 651.164, 900.046 659.008, 899.235 666.799, 897.738 674.523, 895.576 682.165, 892.769 689.713, 889.338 697.154, 885.306 704.478, 880.695 711.673, 875.526 718.731, 869.822 725.642, 863.605 732.397, 856.896 738.991, 849.718 745.414, 842.093 751.544, 834.192 751.661, 834.041 757.489, 825.914 757.727, 825.583 763.262, 817.254 763.604, 816.739 768.858, 808.231 769.290, 807.531 774.271, 798.860 774.779, 797.977 779.497, 789.161 780.066, 788.098 784.531, 779.150 785.149, 777.910 789.368, 768.844 790.024, 767.435 794.005, 758.261 794.688, 756.688 798.438, 747.418 799.138, 745.688 802.664, 736.330 803.372, 734.451 806.679, 725.014 807.386, 722.996 810.480, 713.487 811.180, 711.337 814.066, 701.763 814.750, 699.492 817.432, 689.858 818.096, 687.475 820.578, 677.788 821.215, 675.302 823.501, 665.567 824.107, 662.988 826.199, 653.209 826.769, 650.548 828.670, 640.731 829.200, 637.997 830.913, 628.144 831.399, 625.348 832.925, 615.465 833.364, 612.616 834.705, 602.706 835.096, 599.815 836.251, 589.882 836.591, 586.959 837.563, 577.007 837.850, 574.062 838.638, 564.093 838.871, 561.137 839.475, 551.156 839.653, 548.199 840.072, 538.208 840.196, 535.260 840.429, 525.263 840.498, 522.335 840.544, 512.335 840.558, 509.438 840.416, 499.439 840.375, 496.582 840.043, 486.587 839.949, 483.781 839.423, 473.795 839.279, 471.051 838.557, 461.077 838.363, 458.405 837.441, 448.447 837.202, 445.857 836.076, 435.921 835.793, 433.424 834.460, 423.514 834.138, 421.121 832.591, 411.241 832.234, 408.962 830.469, 399.119 830.082, 396.964 828.092, 387.164 827.682, 385.143 825.460, 375.393 825.032, 373.516 822.571, 363.823 822.134, 362.100 819.425, 352.473 818.986, 350.912 816.022, 341.361 815.590, 339.971 812.360, 330.507 811.946, 329.294 808.439, 319.929 808.054, 318.901 804.259, 309.649 803.916, 308.812 799.822, 299.689 799.533, 299.046 795.126, 290.069 794.907, 289.623 790.174, 280.814 790.040, 280.564 784.934, 271.891 779.592, 263.625 774.018, 255.789 768.216, 248.404 762.190, 241.494 755.946, 235.082 749.490, 229.190 742.828, 223.842 735.968, 219.062 728.918, 214.873 721.687, 211.298 714.285, 208.360 706.724, 206.082 699.015, 204.484 691.171, 203.589 683.206, 203.416 675.135, 203.985 672.908, 204.161 " fill="none" stroke="rgb(0, 0, 0)" stroke-linecap="butt" stroke-linejoin="round" stroke-opacity="1.0" stroke-width="3.0" />
            <path d=" M 627.473, 898.174 626.109, 897.808 619.582, 896.056 611.724, 893.167 603.920, 889.494 596.190, 885.024 588.556, 879.750 581.040, 873.666 573.666, 866.767 566.837, 859.461 566.455, 859.053 560.099, 851.333 559.433, 850.525 553.540, 842.446 552.623, 841.189 547.181, 832.799 546.048, 831.054 541.044, 822.396 539.735, 820.131 537.174, 815.164 537.036, 814.896 534.361, 809.708 533.705, 808.436 533.015, 806.934 528.838, 797.848 527.984, 795.990 527.796, 795.529 527.407, 794.578 526.500, 792.362 522.714, 783.106 522.595, 782.815 520.917, 778.190 518.538, 771.633 517.560, 768.938 514.510, 759.415 512.902, 754.392 510.199, 744.764 508.640, 739.210 506.273, 729.495 504.795, 723.433 504.174, 720.455 502.130, 710.666 501.386, 707.103 499.656, 697.254 498.428, 690.265 497.003, 680.367 495.938, 672.970 494.809, 663.034 493.927, 655.271 493.088, 645.306 492.407, 637.222 491.852, 627.237 491.388, 618.881 491.112, 608.885 490.876, 600.309 490.875, 590.309 490.874, 581.567 491.146, 571.571 491.386, 562.719 491.928, 552.734 492.410, 543.828 493.221, 533.861 493.945, 524.958 494.528, 519.583 495.607, 509.641 495.983, 506.173 497.331, 496.265 498.518, 487.538 500.136, 477.670 501.231, 470.994 501.539, 469.115 503.429, 459.296 505.034, 450.965 507.200, 441.203 508.988, 433.148 511.434, 423.452 513.385, 415.721 516.116, 406.101 518.207, 398.737 521.228, 389.205 523.433, 382.250 526.752, 372.817 529.042, 366.308 529.289, 365.672 532.912, 356.352 533.495, 354.854 534.867, 351.323 535.011, 350.955 538.562, 342.664 541.316, 336.233 545.575, 327.185 546.226, 325.803 547.226, 323.679 547.772, 322.520 547.932, 322.179 552.524, 313.296 553.271, 311.851 554.809, 308.876 554.834, 308.827 557.501, 304.128 559.593, 300.442 560.187, 299.395 561.996, 296.208 567.286, 287.722 569.391, 284.345 575.047, 276.099 576.992, 273.262 583.025, 265.287 584.774, 262.976 588.044, 259.072 592.709, 253.501 599.526, 246.185 600.772, 244.847 607.992, 237.928 608.938, 237.021 616.562, 230.551 617.181, 230.026 625.208, 224.062 625.477, 223.862 633.804, 218.527 642.138, 214.013 650.458, 210.315 658.744, 207.419 666.976, 205.314 674.940, 204.017 675.135, 203.985 " fill="none" stroke="rgb(0, 0, 0)" stroke-linecap="butt" stroke-linejoin="round" stroke-opacity="1.0" stroke-width="3.0" />
            <path d=" M 672.908, 204.161 664.737, 205.490 656.495, 207.594 648.198, 210.488 639.868, 214.184 631.524, 218.694 623.188, 224.026 615.155, 229.982 614.882, 230.185 607.251, 236.647 606.630, 237.173 599.404, 244.086 598.456, 244.992 591.631, 252.302 590.384, 253.638 586.529, 258.232 582.441, 263.104 576.400, 271.074 574.652, 273.380 568.988, 281.622 567.043, 284.452 561.746, 292.933 559.642, 296.302 559.579, 296.413 558.975, 297.475 557.119, 300.740 554.421, 305.485 552.854, 308.240 552.474, 308.908 547.875, 317.788 547.331, 318.839 545.756, 321.879 545.567, 322.245 541.301, 331.290 538.945, 336.284 535.002, 345.474 534.351, 346.992 532.636, 350.990 530.955, 355.304 527.468, 364.258 526.663, 366.326 523.339, 375.757 521.050, 382.250 518.014, 391.814 515.821, 398.719 513.994, 405.144 511.259, 414.763 510.997, 415.682 508.547, 425.378 506.598, 433.090 504.429, 442.852 502.643, 450.887 500.750, 460.706 499.147, 469.016 497.527, 478.884 496.126, 487.418 494.876, 496.601 493.592, 506.031 493.370, 508.075 493.136, 510.231 492.957, 511.875 492.426, 516.769 492.425, 516.774 492.101, 519.758 491.554, 524.794 490.744, 534.761 490.581, 536.762 490.022, 543.643 489.481, 553.628 488.999, 562.512 488.729, 572.509 488.490, 581.339 488.492, 591.339 488.494, 600.060 488.772, 610.056 489.010, 618.611 489.568, 628.595 490.034, 636.931 490.876, 646.896 491.558, 654.961 492.690, 664.896 493.573, 672.641 495.003, 682.538 496.069, 689.918 497.804, 699.766 499.033, 706.737 501.082, 716.525 502.448, 723.051 503.093, 725.691 505.467, 735.405 506.300, 738.812 509.009, 748.439 510.568, 753.979 512.220, 759.125 515.234, 768.512 517.669, 775.206 520.015, 781.656 520.277, 782.375 524.071, 791.628 525.001, 793.896 525.674, 795.539 525.736, 795.672 527.071, 798.570 531.255, 807.653 531.404, 807.975 532.365, 809.835 533.740, 812.497 536.422, 817.686 537.442, 819.660 542.454, 828.313 543.764, 830.574 549.214, 838.958 550.348, 840.702 556.249, 848.775 557.168, 850.032 563.532, 857.745 564.200, 858.554 571.035, 865.853 571.420, 866.265 578.729, 873.089 578.805, 873.160 586.331, 879.243 593.975, 884.515 601.716, 888.984 609.530, 892.659 617.399, 895.549 625.301, 897.669 " fill="none" stroke="rgb(0, 0, 0)" stroke-linecap="butt" stroke-linejoin="round" stroke-opacity="1.0" stroke-width="3.0" />
            <path d=" M 789.717, 554.052 779.737, 553.419 778.999, 553.372 774.422, 552.252 764.708, 549.875 754.995, 547.499 754.794, 547.450 754.090, 547.277 753.385, 547.105 752.678, 546.932 751.971, 546.759 751.145, 546.425 750.358, 545.841 749.627, 545.015 748.967, 543.965 748.392, 542.710 747.912, 541.273 747.536, 539.681 747.272, 537.965 747.126, 536.159 747.099, 534.296 747.192, 532.414 747.405, 530.548 747.732, 528.734 748.168, 527.008 748.602, 525.706 748.703, 525.404 749.327, 523.951 750.029, 522.677 750.794, 521.607 751.480, 520.892 751.606, 520.761 752.303, 520.149 753.001, 519.539 753.698, 518.929 754.394, 518.320 754.743, 518.015 756.200, 516.742 763.731, 510.163 771.262, 503.584 778.381, 497.365 " fill="none" stroke="rgb(0, 0, 0)" stroke-linecap="butt" stroke-linejoin="round" stroke-opacity="1.0" stroke-width="3.0" />
            <path d=" M 690.240, 290.569 681.915, 290.799 680.278, 290.999 676.210, 291.494 673.492, 291.825 664.994, 293.680 660.041, 295.249 656.451, 296.387 647.889, 299.961 639.339, 304.407 630.829, 309.720 622.752, 315.615 622.386, 315.881 614.722, 322.306 614.037, 322.880 606.802, 329.782 605.819, 330.720 599.020, 338.054 597.768, 339.404 591.406, 347.120 589.921, 348.921 583.989, 356.971 582.312, 359.247 576.799, 367.590 574.974, 370.351 571.879, 375.556 571.522, 376.155 568.488, 381.257 567.932, 382.191 564.547, 388.502 562.016, 393.221 561.305, 394.545 561.212, 394.720 560.379, 396.445 557.114, 403.205 555.470, 406.610 555.107, 407.363 554.846, 407.904 553.433, 411.170 549.463, 420.348 548.874, 421.710 546.733, 427.264 545.059, 431.608 543.330, 436.095 541.909, 440.264 538.681, 449.728 538.245, 451.006 535.377, 460.586 533.642, 466.381 531.681, 473.920 529.538, 482.156 527.358, 491.915 526.147, 497.334 525.940, 498.260 524.092, 508.088 522.863, 514.629 522.455, 517.295 522.302, 518.295 522.236, 518.729 521.510, 523.480 520.330, 531.200 519.917, 534.712 518.748, 544.644 518.364, 547.908 517.540, 557.874 516.977, 564.679 516.499, 574.668 516.175, 581.443 516.042, 591.442 515.953, 598.127 516.162, 608.125 516.299, 614.665 516.850, 624.650 517.204, 631.050 517.204, 631.060 518.087, 641.021 518.452, 645.140 518.631, 647.163 519.853, 657.088 520.569, 662.907 522.140, 672.783 523.006, 678.230 523.291, 679.679 525.223, 689.491 525.927, 693.071 528.232, 702.802 529.315, 707.375 530.297, 710.888 530.302, 710.908 531.274, 714.385 532.518, 718.836 532.774, 719.751 533.148, 721.091 536.244, 730.600 537.407, 734.171 537.715, 734.990 539.077, 738.615 539.742, 740.385 541.062, 743.895 542.068, 746.572 543.780, 750.545 544.774, 752.849 545.156, 753.737 547.104, 758.256 547.521, 759.101 551.940, 768.072 552.492, 769.191 557.394, 777.907 558.203, 779.346 563.608, 787.759 564.211, 788.698 570.135, 796.754 570.485, 797.230 576.999, 804.925 583.725, 811.773 590.632, 817.769 597.694, 822.911 604.884, 827.201 611.089, 830.130 612.173, 830.641 619.537, 833.244 626.950, 835.019 634.388, 835.979 641.827, 836.140 649.245, 835.524 656.622, 834.147 663.937, 832.031 671.172, 829.201 678.308, 825.680 685.329, 821.493 692.219, 816.664 698.965, 811.222 705.552, 805.193 711.968, 798.602 718.201, 791.477 724.241, 783.845 730.078, 775.733 735.567, 767.374 735.703, 767.167 740.854, 758.595 741.108, 758.173 745.934, 749.415 746.285, 748.779 750.798, 739.856 751.226, 739.010 755.439, 729.940 755.927, 728.890 759.849, 719.692 760.380, 718.447 764.023, 709.133 764.582, 707.703 767.952, 698.288 768.526, 696.684 771.632, 687.179 772.209, 685.414 775.058, 675.828 775.626, 673.916 778.224, 664.260 778.775, 662.214 781.127, 652.495 781.650, 650.331 783.761, 640.556 784.251, 638.288 786.125, 628.466 786.574, 626.111 788.213, 616.246 788.616, 613.819 790.023, 603.918 790.376, 601.435 791.552, 591.505 791.850, 588.982 792.797, 579.027 793.039, 576.481 793.756, 566.506 793.939, 563.953 794.426, 553.965 794.550, 551.421 794.806, 541.424 794.870, 538.906 794.872, 538.355 " fill="none" stroke="rgb(0, 0, 0)" stroke-linecap="butt" stroke-linejoin="round" stroke-opacity="1.0" stroke-width="3.0" />
            <path d=" M 778.381, 497.365 788.336, 498.311 789.160, 498.389 " fill="none" stroke="rgb(0, 0, 0)" stroke-linecap="butt" stroke-linejoin="round" stroke-opacity="1.0" stroke-width="3.0" />
            <path d=" M 824.256, 513.889 823.789, 503.805 823.053, 493.832 822.878, 491.456 822.010, 482.962 821.629, 479.238 820.325, 469.323 820.042, 467.177 818.445, 457.305 818.119, 455.294 816.225, 445.475 815.866, 443.612 813.673, 433.855 813.289, 432.146 810.785, 422.465 810.387, 420.924 807.555, 411.333 807.155, 409.978 803.979, 400.496 803.592, 399.340 800.056, 389.986 799.698, 389.038 795.791, 379.833 795.479, 379.099 791.190, 370.066 790.943, 369.544 786.266, 360.705 786.098, 360.389 781.022, 351.773 780.953, 351.657 775.509, 343.384 769.768, 335.608 763.738, 328.364 757.427, 321.679 750.848, 315.577 744.015, 310.072 736.943, 305.178 729.642, 300.931 722.126, 297.372 719.841, 296.531 714.408, 294.532 706.508, 292.442 698.445, 291.117 690.240, 290.569 " fill="none" stroke="rgb(0, 0, 0)" stroke-linecap="butt" stroke-linejoin="round" stroke-opacity="1.0" stroke-width="3.0" />
            <path d=" M 660.041, 295.249 661.128, 295.743 667.282, 299.317 673.260, 303.560 679.050, 308.430 684.645, 313.892 690.033, 319.932 695.204, 326.534 700.148, 333.675 704.858, 341.329 709.329, 349.460 713.559, 358.033 717.547, 367.010 721.288, 376.371 724.661, 385.785 724.774, 386.100 727.823, 395.624 727.999, 396.176 730.738, 405.794 730.961, 406.575 733.405, 416.272 733.657, 417.269 735.823, 427.032 736.089, 428.228 737.995, 438.045 738.262, 439.421 739.918, 449.283 740.177, 450.823 741.586, 460.723 741.827, 462.417 742.994, 472.349 743.210, 474.185 744.139, 484.142 744.322, 486.106 745.020, 496.081 745.165, 498.155 745.456, 504.291 745.361, 505.526 745.208, 506.748 745.000, 507.944 744.736, 509.101 744.421, 510.208 744.058, 511.252 743.650, 512.223 743.201, 513.110 742.716, 513.905 742.201, 514.599 741.660, 515.184 741.099, 515.655 740.524, 516.007 739.942, 516.236 738.326, 516.708 731.266, 518.774 " fill="none" stroke="rgb(0, 0, 0)" stroke-linecap="butt" stroke-linejoin="round" stroke-opacity="1.0" stroke-width="3.0" />
            <path d=" M 800.297, 535.693 800.308, 535.694 801.343, 535.760 803.243, 535.882 812.735, 532.734 813.231, 532.570 815.173, 531.926 822.984, 529.336 824.615, 528.795 824.945, 528.703 830.760, 527.084 830.570, 517.085 830.511, 513.963 830.055, 503.974 829.916, 500.926 829.191, 490.953 828.976, 487.996 827.974, 478.046 827.687, 475.197 826.404, 465.280 826.051, 462.554 824.479, 452.678 824.067, 450.090 822.199, 440.266 821.736, 437.831 819.563, 428.070 819.058, 425.803 816.569, 416.117 816.033, 414.031 815.050, 410.677 812.665, 402.541 809.515, 393.050 808.954, 391.361 808.719, 390.731 805.219, 381.364 804.902, 380.517 801.039, 371.293 800.514, 370.038 796.274, 360.981 795.792, 359.951 791.161, 351.088 790.741, 350.284 785.703, 341.646 785.366, 341.068 784.938, 340.411 779.674, 332.331 779.435, 332.004 773.670, 324.102 767.363, 316.412 760.761, 309.290 753.875, 302.766 746.716, 296.869 739.295, 291.630 731.628, 287.077 723.728, 283.238 715.613, 280.141 707.300, 277.814 698.809, 276.280 690.160, 275.563 680.164, 275.305 670.167, 275.047 668.555, 275.006 " fill="none" stroke="rgb(0, 0, 0)" stroke-linecap="butt" stroke-linejoin="round" stroke-opacity="1.0" stroke-width="3.0" />
            <path d=" M 690.160, 275.563 681.378, 275.686 677.926, 276.068 672.485, 276.669 663.509, 278.529 663.374, 278.570 654.475, 281.279 645.413, 284.935 637.740, 288.804 637.467, 288.942 636.353, 289.503 627.807, 294.696 627.327, 294.987 619.191, 300.801 618.367, 301.390 610.658, 307.759 609.508, 308.708 602.233, 315.569 600.784, 316.934 593.943, 324.228 592.230, 326.055 585.822, 333.731 583.883, 336.054 577.901, 344.067 575.779, 346.910 570.214, 355.219 569.584, 356.158 569.161, 356.790 567.953, 358.594 563.177, 366.529 560.591, 370.824 560.440, 371.075 558.972, 373.789 554.215, 382.585 553.612, 383.700 553.279, 384.315 551.951, 387.050 547.582, 396.045 546.501, 398.271 542.512, 407.441 540.409, 412.275 540.140, 412.895 536.523, 422.218 534.227, 428.135 530.975, 437.591 528.793, 443.934 525.899, 453.506 523.865, 460.231 521.323, 469.902 519.467, 476.959 517.273, 486.715 515.623, 494.052 513.775, 503.879 512.353, 511.437 511.281, 518.473 509.775, 528.358 509.671, 529.041 508.508, 538.973 507.592, 546.789 506.771, 556.756 506.125, 564.605 505.649, 574.593 505.276, 582.411 505.147, 592.410 505.047, 600.131 505.270, 610.129 505.438, 617.690 " fill="none" stroke="rgb(0, 0, 0)" stroke-linecap="butt" stroke-linejoin="round" stroke-opacity="1.0" stroke-width="3.0" />
            <path d=" M 756.200, 516.742 756.014, 511.087 755.990, 508.307 755.951, 508.533 755.689, 509.696 755.376, 510.807 755.014, 511.857 754.608, 512.832 754.162, 513.724 753.681, 514.523 753.169, 515.220 752.632, 515.809 752.075, 516.282 751.504, 516.636 750.926, 516.867 750.839, 516.892 749.762, 517.212 740.177, 520.061 733.836, 521.945 733.257, 520.836 732.596, 519.906 731.865, 519.172 731.266, 518.774 731.075, 518.647 730.239, 518.340 729.372, 518.257 719.389, 517.673 718.210, 517.604 717.319, 517.745 716.427, 518.109 715.548, 518.690 714.731, 519.481 713.992, 520.471 713.311, 521.638 712.700, 522.966 712.170, 524.430 711.729, 526.006 711.385, 527.667 711.144, 529.385 711.011, 531.129 710.987, 532.871 720.966, 533.523 722.188, 533.603 727.028, 532.156 727.041, 531.602 727.097, 531.049 727.106, 531.000 727.195, 530.514 727.333, 530.010 727.505, 529.553 727.709, 529.153 727.937, 528.823 728.184, 528.571 728.444, 528.403 728.708, 528.325 728.970, 528.339 " fill="none" stroke="rgb(0, 0, 0)" stroke-linecap="butt" stroke-linejoin="round" stroke-opacity="1.0" stroke-width="3.0" />
            <path d=" M 803.683, 522.748 807.730, 521.424 808.244, 521.206 808.753, 520.881 809.252, 520.453 809.736, 519.925 810.203, 519.305 810.648, 518.597 811.067, 517.807 811.459, 516.943 811.820, 516.011 812.147, 515.018 812.437, 513.973 812.689, 512.882 812.900, 511.755 813.068, 510.600 822.662, 513.421 823.053, 513.535 824.256, 513.889 824.100, 514.612 823.811, 515.663 823.487, 516.661 823.128, 517.597 823.064, 517.742 822.740, 518.466 822.323, 519.260 821.882, 519.972 821.420, 520.595 820.940, 521.126 820.446, 521.557 819.941, 521.884 819.431, 522.103 813.443, 524.097 806.756, 526.323 806.216, 525.182 806.205, 525.165 805.597, 524.227 804.908, 523.474 804.161, 522.937 803.683, 522.748 803.369, 522.624 802.545, 522.543 801.332, 522.472 799.895, 522.388 790.670, 521.847 790.121, 521.944 790.100, 521.948 789.820, 521.997 788.966, 522.376 788.122, 522.980 787.340, 523.799 786.635, 524.823 785.983, 526.031 785.396, 527.403 784.885, 528.915 784.457, 530.543 784.121, 532.258 783.882, 534.030 783.745, 535.830 783.712, 537.626 789.998, 538.037 790.189, 538.049 794.872, 538.355 795.633, 538.405 800.216, 536.886 800.232, 536.314 800.288, 535.744 800.297, 535.693 800.308, 535.632 800.385, 535.191 800.517, 534.671 800.683, 534.199 800.878, 533.785 801.096, 533.443 801.331, 533.182 801.351, 533.168 801.577, 533.008 801.827, 532.926 802.075, 532.939 " fill="none" stroke="rgb(0, 0, 0)" stroke-linecap="butt" stroke-linejoin="round" stroke-opacity="1.0" stroke-width="3.0" />
            <path d=" M 774.422, 552.252 773.945, 561.983 773.218, 571.956 773.041, 574.382 772.075, 584.335 771.840, 586.754 770.637, 596.682 770.346, 599.077 768.905, 608.973 768.561, 611.330 766.880, 621.187 766.487, 623.489 764.563, 633.302 764.126, 635.533 761.958, 645.296 761.481, 647.441 759.066, 657.145 758.557, 659.190 755.888, 668.827 755.354, 670.756 752.429, 680.318 751.878, 682.117 748.690, 691.596 748.133, 693.251 744.676, 702.635 744.123, 704.134 740.388, 713.411 739.852, 714.742 735.832, 723.898 735.326, 725.050 731.012, 734.072 730.551, 735.036 725.932, 743.905 725.532, 744.672 720.597, 753.370 720.276, 753.935 715.014, 762.439 714.791, 762.800 709.190, 771.085 709.085, 771.241 703.165, 779.230 697.042, 786.742 690.726, 793.753 684.228, 800.233 677.559, 806.157 670.732, 811.500 663.761, 816.235 656.661, 820.336 649.447, 823.777 642.137, 826.536 634.747, 828.589 627.299, 829.912 619.810, 830.484 612.303, 830.289 611.089, 830.130 " fill="none" stroke="rgb(0, 0, 0)" stroke-linecap="butt" stroke-linejoin="round" stroke-opacity="1.0" stroke-width="3.0" />
            <path d=" M 790.189, 538.049 790.188, 538.504 789.885, 548.500 789.717, 554.052 780.009, 551.652 779.058, 551.416 774.517, 550.294 766.275, 548.256 765.577, 548.083 764.878, 547.910 764.177, 547.737 763.477, 547.564 762.659, 547.230 761.880, 546.643 761.156, 545.814 760.503, 544.759 759.934, 543.499 759.460, 542.055 759.089, 540.456 758.829, 538.732 758.693, 537.018 758.685, 536.917 758.661, 535.046 758.755, 533.154 758.968, 531.278 759.155, 530.235 759.294, 529.456 759.728, 527.721 760.260, 526.108 760.880, 524.647 761.362, 523.763 761.577, 523.367 762.336, 522.291 763.142, 521.441 763.834, 520.826 764.526, 520.211 765.217, 519.598 765.908, 518.985 766.254, 518.678 773.740, 512.048 778.929, 507.452 786.415, 500.821 789.160, 498.389 789.685, 508.376 789.753, 509.664 789.949, 514.218 790.121, 521.944 " fill="none" stroke="rgb(0, 0, 0)" stroke-linecap="butt" stroke-linejoin="round" stroke-opacity="1.0" stroke-width="3.0" />
            <path d=" M 764.802, 537.419 764.483, 537.374 764.182, 537.182 763.913, 536.850 763.688, 536.394 763.517, 535.834 763.408, 535.194 763.365, 534.502 763.390, 533.789 763.482, 533.085 763.638, 532.422 763.849, 531.828 764.107, 531.331 764.401, 530.951 764.717, 530.705 765.042, 530.605 " fill="none" stroke="rgb(0, 0, 0)" stroke-linecap="butt" stroke-linejoin="round" stroke-opacity="1.0" stroke-width="3.0" />
            <path d=" M 765.042, 530.605 765.361, 530.653 765.662, 530.847 765.929, 531.180 766.153, 531.635 766.323, 532.194 766.432, 532.832 766.474, 533.522 766.449, 534.233 766.357, 534.935 766.203, 535.596 765.992, 536.188 765.735, 536.685 765.442, 537.066 765.127, 537.314 764.802, 537.419 " fill="none" stroke="rgb(0, 0, 0)" stroke-linecap="butt" stroke-linejoin="round" stroke-opacity="1.0" stroke-width="3.0" />
            <path d=" M 800.308, 535.694 800.302, 537.768 800.043, 547.764 799.962, 550.867 799.473, 560.855 799.320, 563.984 798.602, 573.959 798.376, 577.097 797.430, 587.052 797.132, 590.182 795.957, 600.113 795.589, 603.220 794.184, 613.120 793.749, 616.186 792.113, 626.052 791.614, 629.060 789.744, 638.884 789.186, 641.819 787.080, 651.595 786.467, 654.440 784.121, 664.161 783.460, 666.900 780.869, 676.559 780.167, 679.176 777.326, 688.764 776.591, 691.243 773.495, 700.752 772.738, 703.080 769.379, 712.499 768.609, 714.659 764.979, 723.977 764.208, 725.957 760.301, 735.162 759.542, 736.948 755.346, 746.025 754.615, 747.607 750.120, 756.539 749.433, 757.905 744.627, 766.675 744.001, 767.818 738.874, 776.403 738.328, 777.318 732.865, 785.694 732.420, 786.377 726.607, 794.515 726.285, 794.966 720.111, 802.832 719.934, 803.058 713.375, 810.625 706.621, 817.637 699.682, 824.063 692.572, 829.878 685.304, 835.053 677.894, 839.557 670.358, 843.363 662.713, 846.446 654.977, 848.778 647.171, 850.332 639.316, 851.087 631.433, 851.020 623.547, 850.111 615.682, 848.339 607.863, 845.691 600.118, 842.154 592.474, 837.716 584.960, 832.372 577.605, 826.118 570.532, 819.049 570.440, 818.957 563.914, 811.379 563.494, 810.891 557.508, 802.881 556.799, 801.933 551.337, 793.556 550.385, 792.096 545.429, 783.410 544.282, 781.400 543.849, 780.533 541.351, 775.533 539.943, 772.715 538.521, 769.867 534.962, 761.721 533.577, 758.552 533.131, 757.531 529.571, 748.185 528.284, 744.806 528.139, 744.424 525.768, 737.239 523.573, 730.587 520.848, 720.966 519.460, 716.065 517.126, 706.341 515.822, 700.909 513.865, 691.102 512.681, 685.173 511.471, 677.680 510.057, 668.918 508.816, 658.995 507.967, 652.206 507.068, 642.247 506.423, 635.107 505.858, 625.123 505.438, 617.690 503.063, 607.976 500.865, 598.982 " fill="none" stroke="rgb(0, 0, 0)" stroke-linecap="butt" stroke-linejoin="round" stroke-opacity="1.0" stroke-width="3.0" />
            <path d=" M 668.555, 275.006 660.606, 275.094 657.285, 275.484 652.555, 276.039 644.425, 277.857 636.240, 280.565 628.026, 284.177 619.810, 288.703 611.623, 294.146 603.748, 300.310 603.492, 300.511 596.081, 307.224 595.450, 307.796 588.500, 314.986 587.528, 315.992 581.033, 323.596 579.758, 325.089 573.708, 333.051 572.174, 335.071 567.610, 341.792 567.142, 342.482 564.810, 345.916 561.977, 350.568 559.363, 354.861 557.744, 357.520 557.697, 357.597 552.899, 366.370 552.344, 367.385 550.870, 370.080 550.700, 370.426 546.291, 379.401 544.362, 383.330 540.329, 392.481 539.177, 395.094 538.203, 397.303 534.534, 406.605 532.425, 411.949 529.108, 421.383 527.058, 427.216 524.085, 436.764 522.128, 443.047 519.491, 452.693 517.663, 459.378 515.354, 469.107 513.684, 476.142 511.698, 485.943 510.213, 493.272 508.547, 503.132 507.270, 510.693 506.226, 518.354 504.868, 528.331 503.833, 538.277 503.019, 546.110 502.300, 556.084 501.733, 563.952 501.332, 573.944 501.017, 581.780 500.928, 591.780 500.865, 598.982 499.422, 608.877 498.078, 618.096 " fill="none" stroke="rgb(0, 0, 0)" stroke-linecap="butt" stroke-linejoin="round" stroke-opacity="1.0" stroke-width="3.0" />
            <path d=" M 499.111, 636.073 500.020, 646.032 500.721, 653.718 501.974, 663.640 502.898, 670.958 504.506, 680.828 505.628, 687.720 507.601, 697.524 508.013, 699.569 508.893, 703.939 511.245, 713.658 512.671, 719.551 515.416, 729.167 516.940, 734.501 520.096, 743.990 521.675, 748.735 522.882, 751.879 525.452, 758.570 526.849, 762.206 530.883, 771.357 531.013, 771.652 532.383, 774.762 532.433, 774.875 536.935, 783.804 537.590, 785.102 538.398, 786.705 539.007, 787.762 541.648, 792.344 544.713, 797.664 550.216, 806.014 551.346, 807.730 557.376, 815.708 558.266, 816.884 564.838, 824.421 565.439, 825.111 572.561, 832.131 572.836, 832.401 580.423, 838.753 588.169, 844.165 596.045, 848.641 604.021, 852.190 612.067, 854.824 620.157, 856.558 628.264, 857.408 636.363, 857.394 644.430, 856.540 652.442, 854.869 660.379, 852.404 668.220, 849.174 675.946, 845.208 683.540, 840.532 690.986, 835.175 698.269, 829.167 705.374, 822.539 712.290, 815.318 718.821, 807.746 719.003, 807.535 725.163, 799.657 725.504, 799.220 731.304, 791.074 731.783, 790.401 737.236, 782.019 737.829, 781.107 742.950, 772.518 743.636, 771.367 748.437, 762.595 749.195, 761.210 753.687, 752.276 754.499, 750.661 758.694, 741.583 759.543, 739.748 763.451, 730.544 764.320, 728.499 767.952, 719.181 768.826, 716.939 772.188, 707.521 773.055, 705.093 776.155, 695.585 777.003, 692.986 779.849, 683.400 780.667, 680.645 783.264, 670.988 784.042, 668.091 786.395, 658.372 787.126, 655.350 789.239, 645.576 789.915, 642.445 791.792, 632.623 792.408, 629.400 794.051, 619.535 794.600, 616.236 796.012, 606.336 796.490, 602.976 797.672, 593.046 798.077, 589.644 799.029, 579.689 799.357, 576.261 800.080, 566.287 800.329, 562.851 800.822, 552.863 800.991, 549.434 801.253, 539.437 801.343, 536.034 801.343, 535.760 " fill="none" stroke="rgb(0, 0, 0)" stroke-linecap="butt" stroke-linejoin="round" stroke-opacity="1.0" stroke-width="3.0" />
            <path d=" M 498.078, 618.096 498.652, 628.080 499.111, 636.073 " fill="none" stroke="rgb(0, 0, 0)" stroke-linecap="butt" stroke-linejoin="round" stroke-opacity="1.0" stroke-width="3.0" />
            <path d=" M 815.050, 410.677 814.768, 409.155 812.714, 399.369 812.446, 398.091 810.153, 388.358 809.885, 387.221 807.347, 377.549 807.087, 376.560 804.296, 366.957 804.054, 366.123 801.001, 356.600 800.786, 355.927 797.462, 346.495 797.284, 345.989 793.678, 336.661 793.549, 336.328 789.648, 327.120 789.581, 326.963 785.382, 317.917 780.953, 309.209 776.298, 300.856 771.421, 292.876 766.325, 285.287 761.015, 278.108 755.494, 271.362 749.767, 265.070 743.839, 259.256 737.716, 253.945 731.405, 249.157 724.914, 244.908 718.252, 241.218 711.428, 238.104 704.451, 235.587 697.334, 233.687 690.086, 232.426 682.721, 231.826 675.252, 231.906 673.902, 232.044 667.695, 232.680 660.064, 234.159 652.375, 236.354 644.646, 239.275 636.894, 242.932 629.139, 247.336 621.400, 252.493 613.700, 258.413 606.174, 264.998 606.061, 265.097 605.056, 266.087 605.016, 266.127 604.977, 266.165 598.504, 272.540 591.774, 279.937 591.050, 280.733 588.029, 284.416 583.722, 289.666 578.540, 296.642 576.543, 299.329 570.948, 307.617 569.537, 309.708 564.300, 318.227 563.923, 318.840 563.391, 319.707 562.727, 320.787 559.814, 325.987 557.179, 330.692 556.139, 332.547 555.604, 333.596 551.057, 342.503 550.200, 344.182 549.799, 344.969 548.609, 347.527 544.392, 356.595 544.344, 356.698 543.729, 358.021 539.831, 367.230 537.951, 371.672 537.279, 373.418 533.688, 382.752 532.484, 385.883 529.193, 395.326 527.350, 400.616 524.351, 410.156 522.567, 415.831 519.855, 425.457 518.156, 431.486 515.726, 441.186 514.135, 447.534 511.984, 457.300 510.524, 463.928 508.648, 473.751 507.336, 480.618 505.730, 490.488 504.582, 497.547 503.243, 507.457 502.270, 514.661 501.842, 518.628 500.769, 528.570 500.410, 531.905 499.604, 541.873 499.010, 549.223 498.473, 559.209 498.077, 566.558 497.807, 576.555 497.610, 583.853 497.611, 593.853 497.611, 601.051 497.885, 611.047 498.078, 618.096 498.630, 628.081 499.009, 634.933 499.111, 636.073 499.941, 646.039 500.397, 651.510 501.519, 661.447 502.233, 667.774 503.650, 677.673 504.509, 683.676 506.229, 693.527 507.214, 699.169 507.685, 701.443 509.717, 711.234 510.334, 714.207 512.685, 723.926 513.853, 728.751 516.536, 738.384 517.755, 742.762 520.781, 752.293 521.995, 756.115 522.023, 756.204 524.479, 763.027 526.643, 769.041 529.896, 777.056 531.205, 780.282 531.595, 781.244 535.742, 790.344 536.302, 791.574 536.856, 792.790 537.664, 794.371 540.265, 799.467 542.405, 803.659 547.367, 812.341 548.219, 813.833 553.611, 822.255 554.278, 823.297 560.115, 831.417 560.560, 832.038 566.856, 839.808 567.046, 840.043 573.715, 847.302 580.545, 853.812 587.514, 859.575 594.600, 864.597 601.782, 868.884 609.041, 872.442 616.357, 875.279 623.008, 877.201 623.712, 877.404 631.091, 878.824 638.475, 879.549 645.849, 879.596 653.196, 878.985 660.501, 877.734 667.750, 875.863 674.929, 873.390 682.028, 870.333 689.033, 866.708 695.934, 862.531 702.721, 857.821 709.384, 852.599 715.915, 846.890 722.304, 840.715 728.545, 834.094 734.630, 827.047 740.553, 819.593 746.308, 811.748 751.888, 803.530 757.217, 795.068 757.288, 794.955 762.340, 786.325 762.504, 786.045 767.289, 777.264 767.531, 776.821 772.060, 767.905 772.367, 767.301 776.647, 758.264 777.007, 757.503 781.047, 748.356 781.449, 747.445 785.254, 738.197 785.689, 737.140 789.266, 727.802 789.724, 726.605 793.076, 717.184 793.549, 715.854 796.683, 706.358 797.163, 704.904 800.085, 695.340 800.564, 693.771 803.279, 684.146 803.751, 682.471 806.264, 672.792 806.723, 671.021 809.036, 661.292 809.478, 659.434 811.595, 649.661 812.014, 647.725 813.936, 637.912 814.329, 635.908 816.057, 626.058 816.419, 623.995 817.956, 614.114 818.285, 612.001 819.633, 602.092 819.925, 599.941 821.086, 590.008 821.340, 587.828 822.313, 577.875 822.528, 575.676 823.314, 565.707 823.488, 563.499 824.085, 553.517 824.217, 551.310 824.626, 541.318 824.716, 539.122 824.936, 529.124 824.945, 528.703 " fill="none" stroke="rgb(0, 0, 0)" stroke-linecap="butt" stroke-linejoin="round" stroke-opacity="1.0" stroke-width="3.0" />
            <path d=" M 673.023, 232.054 665.455, 232.828 657.814, 234.307 650.115, 236.501 642.376, 239.420 634.615, 243.075 626.850, 247.475 619.103, 252.628 611.394, 258.543 603.862, 265.120 603.747, 265.221 603.450, 265.513 603.319, 265.641 603.296, 265.664 596.181, 272.656 589.444, 280.046 588.720, 280.841 582.370, 288.567 582.111, 288.882 581.385, 289.766 575.414, 297.787 574.199, 299.419 571.888, 302.835 567.186, 309.787 563.394, 315.944 562.850, 316.827 560.370, 320.854 559.460, 322.476 556.815, 327.189 555.243, 329.990 553.777, 332.602 549.794, 340.389 548.208, 343.490 547.431, 345.010 543.208, 354.074 541.357, 358.048 537.452, 367.255 536.801, 368.790 535.574, 371.683 533.288, 377.617 530.104, 385.879 526.808, 395.320 524.966, 400.595 521.963, 410.134 520.181, 415.793 517.465, 425.417 515.768, 431.430 513.334, 441.129 511.746, 447.460 509.591, 457.225 508.133, 463.835 506.255, 473.657 504.945, 480.506 503.337, 490.375 502.190, 497.415 500.850, 507.325 499.878, 514.510 499.399, 518.947 498.326, 528.889 498.019, 531.734 497.214, 541.702 496.621, 549.032 496.084, 559.018 495.689, 566.348 495.421, 576.344 495.225, 583.623 495.228, 593.623 495.229, 600.801 495.505, 610.797 495.700, 617.827 496.254, 627.812 496.634, 634.646 497.472, 644.611 498.026, 651.205 499.152, 661.141 499.867, 667.451 501.288, 677.350 502.147, 683.337 503.872, 693.187 504.857, 698.813 506.644, 707.399 507.983, 713.836 510.341, 723.554 511.508, 728.365 514.198, 737.996 515.417, 742.362 518.450, 751.891 519.692, 755.792 521.192, 759.948 523.652, 766.767 524.320, 768.617 528.087, 777.880 529.154, 780.501 529.279, 780.809 530.514, 783.512 534.548, 792.345 535.679, 794.556 537.063, 797.261 539.671, 802.358 540.104, 803.205 545.075, 811.882 545.927, 813.371 551.327, 821.788 551.995, 822.828 557.839, 830.942 558.286, 831.562 564.589, 839.326 564.781, 839.562 571.459, 846.817 578.299, 853.324 585.277, 859.085 592.373, 864.105 599.564, 868.392 606.833, 871.950 614.159, 874.789 621.524, 876.915 " fill="none" stroke="rgb(0, 0, 0)" stroke-linecap="butt" stroke-linejoin="round" stroke-opacity="1.0" stroke-width="3.0" />
            <path d=" M 675.252, 231.906 673.023, 232.054 " fill="none" stroke="rgb(0, 0, 0)" stroke-linecap="butt" stroke-linejoin="round" stroke-opacity="1.0" stroke-width="3.0" />
            <path d=" M 621.524, 876.915 623.712, 877.404 " fill="none" stroke="rgb(0, 0, 0)" stroke-linecap="butt" stroke-linejoin="round" stroke-opacity="1.0" stroke-width="3.0" />
            <path d=" M 479.926, 619.423 480.494, 629.407 481.024, 638.706 481.879, 648.669 482.652, 657.677 483.801, 667.611 484.802, 676.274 486.250, 686.169 487.460, 694.438 489.216, 704.283 490.612, 712.113 492.685, 721.896 494.243, 729.246 496.642, 738.954 498.332, 745.788 498.496, 746.364 500.342, 752.848 502.861, 761.694 505.951, 771.205 506.336, 772.391 507.808, 776.923 511.262, 786.307 512.204, 788.867 513.150, 791.438 513.352, 791.923 515.351, 796.739 515.670, 797.509 516.608, 799.769 518.864, 805.205 521.774, 811.443 523.086, 814.256 524.630, 817.565 524.925, 818.198 525.969, 820.194 528.683, 825.379 530.023, 827.937 530.129, 828.140 531.307, 830.391 532.879, 833.069 537.985, 841.766 543.489, 850.115 544.934, 852.305 550.893, 860.336 552.126, 861.998 558.551, 869.661 559.536, 870.836 566.435, 878.075 567.139, 878.814 574.512, 885.569 574.908, 885.932 582.820, 892.193 590.850, 897.600 598.974, 902.162 607.170, 905.889 615.416, 908.794 623.691, 910.891 628.010, 911.922 636.271, 913.222 644.523, 913.746 652.746, 913.515 660.923, 912.549 669.040, 910.869 677.080, 908.498 685.030, 905.457 692.876, 901.771 700.606, 897.463 708.209, 892.556 715.674, 887.074 722.992, 881.041 730.153, 874.480 737.149, 867.415 743.856, 859.997 743.974, 859.868 750.360, 852.173 750.618, 851.862 756.695, 843.920 757.078, 843.419 762.854, 835.257 763.346, 834.562 768.833, 826.202 769.418, 825.311 774.625, 816.774 775.288, 815.688 780.226, 806.993 780.953, 805.713 785.631, 796.875 786.408, 795.406 790.835, 786.440 791.651, 784.787 795.834, 775.704 796.677, 773.874 800.625, 764.687 801.484, 762.687 805.203, 753.404 806.070, 751.242 809.567, 741.873 810.431, 739.558 813.712, 730.111 814.566, 727.651 817.636, 718.134 818.473, 715.539 821.337, 705.958 822.150, 703.238 824.812, 693.599 825.595, 690.763 828.060, 681.071 828.808, 678.130 831.077, 668.391 831.785, 665.355 833.864, 655.573 834.527, 652.452 836.416, 642.632 837.031, 639.436 838.734, 629.582 839.297, 626.322 840.815, 616.437 841.324, 613.123 842.658, 603.212 843.110, 599.854 844.261, 589.920 844.654, 586.528 845.623, 576.575 845.955, 573.161 846.742, 563.192 847.013, 559.764 847.618, 549.782 847.826, 546.353 848.248, 536.362 848.393, 532.940 848.632, 522.943 848.713, 519.541 848.767, 509.541 848.785, 506.168 848.653, 496.169 848.609, 492.835 848.288, 482.841 848.182, 479.558 847.671, 469.571 847.505, 466.349 846.800, 456.374 846.577, 453.225 845.674, 443.266 845.396, 440.199 844.291, 430.260 843.961, 427.286 842.651, 417.372 842.272, 414.503 840.752, 404.619 840.328, 401.865 838.592, 392.016 838.128, 389.387 836.170, 379.581 835.672, 377.087 833.486, 367.329 832.960, 364.982 830.537, 355.280 829.990, 353.089 827.324, 343.451 826.764, 341.425 823.844, 331.861 823.280, 330.011 820.098, 320.530 819.539, 318.863 816.085, 309.479 815.542, 308.003 811.804, 298.727 811.289, 297.449 807.255, 288.298 806.781, 287.223 802.440, 278.215 802.021, 277.345 797.357, 268.499 797.009, 267.838 792.010, 259.177 791.747, 258.723 786.398, 250.274 786.240, 250.024 780.489, 241.763 774.498, 233.964 768.273, 226.651 761.817, 219.848 755.137, 213.581 748.239, 207.873 741.131, 202.751 733.820, 198.239 726.316, 194.361 718.629, 191.144 710.770, 188.610 702.751, 186.784 694.585, 185.690 686.287, 185.349 677.872, 185.782 673.438, 186.166 664.900, 187.395 656.280, 189.436 647.598, 192.305 638.873, 196.016 630.128, 200.583 621.634, 205.860 621.384, 206.015 613.281, 211.875 612.665, 212.320 604.965, 218.700 603.997, 219.502 596.704, 226.343 595.404, 227.562 588.516, 234.812 586.914, 236.499 580.426, 244.108 578.552, 246.305 574.812, 251.169 570.348, 256.972 564.633, 265.178 562.329, 268.486 556.984, 276.938 555.588, 279.146 554.894, 280.243 554.618, 280.681 554.524, 280.829 551.829, 285.514 551.579, 285.950 551.330, 286.383 550.294, 288.184 547.230, 293.511 546.961, 293.979 545.707, 296.374 544.580, 298.527 543.039, 301.471 539.668, 307.909 536.928, 313.661 535.418, 316.831 532.675, 322.589 531.405, 325.520 527.431, 334.697 526.008, 337.983 522.562, 346.753 519.694, 354.052 516.346, 363.475 513.759, 370.752 510.712, 380.276 508.229, 388.036 505.475, 397.650 503.126, 405.852 500.661, 415.544 498.472, 424.146 496.290, 433.905 495.782, 436.176 494.288, 442.858 493.781, 445.471 491.878, 455.288 490.590, 461.928 488.962, 471.795 487.396, 481.292 486.041, 491.200 484.717, 500.885 484.014, 507.343 483.814, 509.184 483.006, 516.605 482.829, 518.225 482.659, 519.787 482.627, 520.084 482.567, 520.638 481.756, 530.606 480.952, 540.485 480.412, 550.470 479.878, 560.356 479.612, 570.352 479.350, 580.181 479.358, 590.181 479.366, 599.893 479.576, 607.214 479.863, 617.210 479.926, 619.423 " fill="none" stroke="rgb(0, 0, 0)" stroke-linecap="butt" stroke-linejoin="round" stroke-opacity="1.0" stroke-width="3.0" />
            <path d=" M 677.872, 185.782 669.357, 187.010 660.760, 189.052 652.099, 191.923 643.396, 195.638 634.672, 200.211 626.186, 205.503 625.948, 205.652 617.856, 211.526 617.249, 211.967 609.561, 218.361 608.600, 219.161 601.320, 226.016 600.025, 227.235 593.151, 234.498 591.552, 236.188 585.079, 243.810 583.207, 246.014 577.776, 253.103 575.019, 256.702 569.318, 264.918 567.014, 268.239 561.684, 276.700 559.223, 280.607 556.933, 284.602 556.282, 285.739 555.466, 287.163 552.716, 291.963 551.672, 293.784 551.175, 294.737 546.551, 303.603 545.571, 305.482 544.391, 307.744 544.031, 308.502 539.743, 317.536 537.408, 322.456 533.446, 331.637 532.587, 333.628 530.750, 337.884 527.104, 347.195 525.929, 350.196 524.445, 353.988 521.107, 363.415 518.517, 370.726 515.479, 380.253 512.993, 388.049 510.248, 397.665 507.895, 405.906 505.436, 415.599 503.245, 424.241 501.068, 434.002 499.063, 442.997 497.164, 452.815 495.366, 462.111 494.461, 467.612 492.837, 477.479 492.172, 481.520 492.060, 482.343 491.599, 485.720 490.247, 495.628 489.493, 501.158 488.812, 507.420 488.550, 509.833 488.388, 511.319 488.336, 511.798 487.804, 516.689 487.480, 519.676 487.426, 520.169 487.340, 520.957 487.005, 525.077 486.194, 535.044 485.722, 540.849 485.182, 550.835 484.645, 560.765 484.376, 570.762 484.111, 580.636 484.116, 590.636 484.121, 600.392 484.403, 610.389 484.495, 613.633 484.674, 619.967 485.236, 629.951 485.763, 639.293 486.612, 649.256 487.382, 658.305 488.523, 668.240 488.824, 670.865 489.299, 675.001 489.522, 676.943 490.961, 686.839 492.169, 695.146 493.914, 704.992 495.309, 712.858 497.371, 722.643 498.926, 730.026 500.651, 737.042 503.002, 746.601 505.727, 756.222 507.516, 762.538 510.592, 772.053 512.448, 777.795 515.165, 785.213 515.939, 787.327 517.418, 791.365 517.774, 792.336 521.592, 801.579 523.280, 805.666 523.471, 806.129 524.595, 808.549 528.806, 817.619 529.514, 819.143 529.976, 820.030 531.337, 822.642 534.091, 827.926 535.878, 831.356 540.925, 839.989 542.538, 842.748 548.026, 851.108 549.467, 853.303 555.410, 861.345 556.639, 863.008 563.049, 870.683 564.029, 871.856 570.914, 879.109 571.611, 879.843 578.972, 886.611 579.359, 886.967 587.250, 893.231 595.258, 898.641 603.360, 903.203 611.534, 906.928 619.758, 909.830 628.010, 911.922 " fill="none" stroke="rgb(0, 0, 0)" stroke-linecap="butt" stroke-linejoin="round" stroke-opacity="1.0" stroke-width="3.0" />
            <path d=" M 729.372, 518.257 728.487, 518.400 727.600, 518.766 726.727, 519.351 725.914, 520.146 725.732, 520.393 725.181, 521.141 725.022, 521.416 724.504, 522.315 723.897, 523.649 723.369, 525.121 722.930, 526.705 722.676, 527.943 722.587, 528.374 722.347, 530.100 722.302, 530.692 722.213, 531.853 722.188, 533.603 " fill="none" stroke="rgb(0, 0, 0)" stroke-linecap="butt" stroke-linejoin="round" stroke-opacity="1.0" stroke-width="3.0" />
            <path d=" M 728.970, 528.339 729.222, 528.443 729.458, 528.636 729.672, 528.911 729.857, 529.262 730.008, 529.678 730.122, 530.148 730.196, 530.660 730.226, 531.200 " fill="none" stroke="rgb(0, 0, 0)" stroke-linecap="butt" stroke-linejoin="round" stroke-opacity="1.0" stroke-width="3.0" />
            <path d=" M 727.106, 531.000 730.226, 531.200 739.807, 528.336 748.602, 525.706 " fill="none" stroke="rgb(0, 0, 0)" stroke-linecap="butt" stroke-linejoin="round" stroke-opacity="1.0" stroke-width="3.0" />
            <path d=" M 802.545, 522.543 801.702, 522.694 800.854, 523.076 800.127, 523.603 800.017, 523.683 799.658, 524.065 799.241, 524.507 798.767, 525.205 798.541, 525.536 798.390, 525.821 797.937, 526.672 797.895, 526.751 797.312, 528.130 796.804, 529.651 796.379, 531.287 796.131, 532.565 796.044, 533.010 795.806, 534.792 795.759, 535.402 795.668, 536.600 795.633, 538.405 " fill="none" stroke="rgb(0, 0, 0)" stroke-linecap="butt" stroke-linejoin="round" stroke-opacity="1.0" stroke-width="3.0" />
            <path d=" M 802.075, 532.939 802.312, 533.045 802.534, 533.242 802.734, 533.525 802.907, 533.885 803.047, 534.314 803.152, 534.798 803.218, 535.326 803.243, 535.882 " fill="none" stroke="rgb(0, 0, 0)" stroke-linecap="butt" stroke-linejoin="round" stroke-opacity="1.0" stroke-width="3.0" />
            <path d=" M 782.095, 484.808 782.257, 484.802 782.475, 484.835 782.687, 484.913 782.882, 485.033 783.055, 485.191 783.198, 485.381 783.308, 485.598 783.378, 485.836 783.405, 486.091 783.386, 486.329 783.326, 486.556 783.225, 486.764 783.089, 486.944 782.923, 487.091 782.730, 487.199 782.515, 487.264 " fill="none" stroke="rgb(0, 0, 0)" stroke-linecap="butt" stroke-linejoin="round" stroke-opacity="1.0" stroke-width="3.0" />
            <path d=" M 781.565, 485.013 781.496, 485.069 781.377, 485.165 781.222, 485.351 781.105, 485.564 781.032, 485.800 781.008, 486.054 781.034, 486.292 781.107, 486.521 781.117, 486.549 781.232, 486.757 781.386, 486.939 781.573, 487.087 781.789, 487.196 781.812, 487.207 782.039, 487.268 782.060, 487.273 782.090, 487.278 782.127, 487.281 782.169, 487.284 782.219, 487.285 782.270, 487.286 782.320, 487.285 782.369, 487.282 782.414, 487.279 782.455, 487.275 782.489, 487.270 782.515, 487.264 " fill="none" stroke="rgb(0, 0, 0)" stroke-linecap="butt" stroke-linejoin="round" stroke-opacity="1.0" stroke-width="3.0" />
            <path d=" M 782.095, 484.808 782.021, 484.822 781.938, 484.839 781.795, 484.887 781.586, 484.996 781.496, 485.069 " fill="none" stroke="rgb(0, 0, 0)" stroke-linecap="butt" stroke-linejoin="round" stroke-opacity="1.0" stroke-width="3.0" />
            <path d=" M 779.403, 482.823 779.472, 489.010 783.144, 489.175 785.142, 489.265 785.797, 488.930 785.223, 483.025 782.634, 482.874 779.835, 482.711 779.403, 482.823 " fill="none" stroke="rgb(0, 0, 0)" stroke-linecap="butt" stroke-linejoin="round" stroke-opacity="1.0" stroke-width="3.0" />
            <path d=" M 785.142, 489.265 785.076, 483.063 " fill="none" stroke="rgb(0, 0, 0)" stroke-linecap="butt" stroke-linejoin="round" stroke-opacity="1.0" stroke-width="3.0" />
            <path d=" M 785.223, 483.025 785.076, 483.063 779.403, 482.823 " fill="none" stroke="rgb(0, 0, 0)" stroke-linecap="butt" stroke-linejoin="round" stroke-opacity="1.0" stroke-width="3.0" />
            <path d=" M 738.326, 516.708 728.333, 516.342 727.810, 516.323 717.814, 516.032 716.319, 515.989 706.321, 515.767 704.839, 515.734 694.840, 515.574 693.366, 515.551 683.367, 515.448 681.895, 515.433 671.895, 515.380 670.421, 515.373 660.421, 515.365 658.939, 515.364 648.939, 515.395 647.445, 515.400 637.445, 515.464 635.934, 515.474 625.934, 515.566 624.401, 515.580 614.401, 515.693 612.841, 515.711 602.842, 515.842 601.251, 515.862 591.252, 516.004 589.626, 516.027 579.627, 516.175 577.961, 516.200 578.054, 506.200 578.097, 501.617 578.075, 491.617 578.065, 487.055 577.927, 477.055 577.864, 472.531 577.608, 462.534 577.494, 458.066 577.119, 448.073 576.954, 443.679 576.457, 433.691 576.243, 429.389 575.621, 419.408 575.360, 415.216 574.612, 405.244 574.307, 401.182 573.426, 391.220 573.080, 387.308 572.063, 377.359 571.879, 375.556 " fill="none" stroke="rgb(0, 0, 0)" stroke-linecap="butt" stroke-linejoin="round" stroke-opacity="1.0" stroke-width="3.0" />
            <path d=" M 574.812, 251.169 567.159, 245.652 559.454, 239.277 558.809, 238.744 551.520, 231.898 550.749, 231.174 545.853, 225.999 542.987, 222.969 540.903, 220.506 540.408, 219.921 537.675, 216.691 535.701, 214.357 535.528, 214.152 535.346, 213.913 532.020, 209.538 530.381, 207.382 529.019, 205.590 528.376, 204.743 526.317, 201.739 521.532, 194.759 " fill="none" stroke="rgb(0, 0, 0)" stroke-linecap="butt" stroke-linejoin="round" stroke-opacity="1.0" stroke-width="3.0" />
            <path d=" M 521.532, 194.759 521.277, 194.440 517.400, 189.600 517.120, 189.250 512.572, 184.533 507.896, 180.650 504.244, 178.361 503.099, 177.644 501.445, 176.938 498.192, 175.551 493.186, 174.411 488.094, 174.264 482.928, 175.145 477.704, 177.086 474.160, 179.128 472.596, 180.029 472.438, 180.120 467.147, 184.274 466.950, 184.471 461.850, 189.574 456.566, 196.036 455.216, 198.001 453.896, 199.921 451.318, 203.674 448.366, 208.692 446.127, 212.499 441.580, 221.406 441.016, 222.512 436.932, 231.640 436.008, 233.706 432.338, 243.007 431.130, 246.068 427.830, 255.507 426.406, 259.579 423.440, 269.129 421.861, 274.210 419.198, 283.849 417.521, 289.919 415.137, 299.631 413.411, 306.663 411.285, 316.434 409.556, 324.384 407.670, 334.205 405.978, 343.018 404.319, 352.879 402.701, 362.490 401.256, 372.385 399.811, 382.281 399.746, 382.721 398.505, 392.644 397.264, 402.566 397.133, 403.620 396.088, 413.565 395.043, 423.510 394.878, 425.089 394.023, 435.053 393.168, 445.016 392.995, 447.027 392.326, 457.005 391.657, 466.982 391.500, 469.327 391.013, 479.315 390.526, 489.303 390.400, 491.877 390.093, 501.872 389.786, 511.867 389.703, 514.563 389.575, 524.563 389.447, 534.562 389.413, 537.270 389.443, 537.301 395.026, 543.082 396.683, 544.721 400.731, 548.724 406.531, 554.204 412.425, 559.530 418.415, 564.707 424.502, 569.743 430.688, 574.644 436.973, 579.416 443.360, 584.065 449.850, 588.597 456.444, 593.017 463.144, 597.331 469.951, 601.544 476.868, 605.662 479.576, 607.214 " fill="none" stroke="rgb(0, 0, 0)" stroke-linecap="butt" stroke-linejoin="round" stroke-opacity="1.0" stroke-width="3.0" />
            <path d=" M 359.586, 527.794 355.338, 536.847 353.024, 541.777 " fill="none" stroke="rgb(0, 0, 0)" stroke-linecap="butt" stroke-linejoin="round" stroke-opacity="1.0" stroke-width="3.0" />
            <path d=" M 474.160, 179.128 467.902, 179.336 " fill="none" stroke="rgb(0, 0, 0)" stroke-linecap="butt" stroke-linejoin="round" stroke-opacity="1.0" stroke-width="3.0" />
            <path d=" M 530.381, 207.382 528.980, 205.437 526.317, 201.739 " fill="none" stroke="rgb(0, 0, 0)" stroke-linecap="butt" stroke-linejoin="round" stroke-opacity="1.0" stroke-width="3.0" />
            <path d=" M 534.144, 483.277 534.185, 483.294 " fill="none" stroke="rgb(0, 0, 0)" stroke-linecap="butt" stroke-linejoin="round" stroke-opacity="1.0" stroke-width="3.0" />
            <path d=" M 535.701, 214.357 535.346, 213.913 " fill="none" stroke="rgb(0, 0, 0)" stroke-linecap="butt" stroke-linejoin="round" stroke-opacity="1.0" stroke-width="3.0" />
        </g>
    </g>
</svg>
