<?xml version='1.0' encoding='ascii'?>
<svg xmlns="http://www.w3.org/2000/svg" height="1080" version="1.1" width="1080">
    <g id="View Layer_LineSet" inkscape:groupmode="lineset" inkscape:label="View Layer_LineSet" xmlns:inkscape="http://www.inkscape.org/namespaces/inkscape">
        <g id="strokes" inkscape:groupmode="layer" inkscape:label="strokes" xmlns:inkscape="http://www.inkscape.org/namespaces/inkscape">
            <path d=" M 565.228, 503.286 565.170, 504.421 565.094, 505.527 564.999, 506.593 564.887, 507.609 564.758, 508.565 564.746, 508.640 " fill="none" stroke="rgb(0, 0, 0)" stroke-linecap="butt" stroke-linejoin="round" stroke-opacity="1.0" stroke-width="3.0" />
            <path d=" M 353.169, 526.371 359.541, 526.659 " fill="none" stroke="rgb(0, 0, 0)" stroke-linecap="butt" stroke-linejoin="round" stroke-opacity="1.0" stroke-width="3.0" />
            <path d=" M 377.493, 526.999 387.493, 527.049 389.534, 527.060 " fill="none" stroke="rgb(0, 0, 0)" stroke-linecap="butt" stroke-linejoin="round" stroke-opacity="1.0" stroke-width="3.0" />
            <path d=" M 389.534, 527.060 385.585, 517.872 381.637, 508.685 380.650, 506.389 " fill="none" stroke="rgb(0, 0, 0)" stroke-linecap="butt" stroke-linejoin="round" stroke-opacity="1.0" stroke-width="3.0" />
            <path d=" M 465.176, 173.864 460.644, 174.913 456.061, 177.059 451.440, 180.337 446.797, 184.776 442.150, 190.400 440.328, 193.084 438.991, 195.055 437.516, 197.227 432.916, 205.274 428.513, 214.253 428.368, 214.550 424.449, 223.750 423.895, 225.051 420.397, 234.419 419.518, 236.773 416.390, 246.271 415.260, 249.701 412.460, 259.301 411.145, 263.811 408.638, 273.491 407.195, 279.067 404.954, 288.812 403.433, 295.428 401.435, 305.226 399.883, 312.843 398.110, 322.684 396.567, 331.247 395.002, 341.124 393.505, 350.569 392.136, 360.474 390.767, 370.380 390.719, 370.728 389.536, 380.658 388.353, 390.587 388.228, 391.635 387.221, 401.585 386.215, 411.534 386.047, 413.192 385.211, 423.157 384.374, 433.122 384.192, 435.294 383.520, 445.271 382.849, 455.249 382.675, 457.831 382.165, 467.818 381.655, 477.805 381.507, 480.688 381.155, 490.681 380.803, 500.675 380.695, 503.745 380.650, 506.389 379.136, 516.274 377.622, 526.159 377.493, 526.999 " fill="none" stroke="rgb(0, 0, 0)" stroke-linecap="butt" stroke-linejoin="round" stroke-opacity="1.0" stroke-width="3.0" />
            <path d=" M 566.924, 521.148 567.104, 521.151 567.993, 521.167 574.819, 520.825 577.901, 520.720 578.026, 510.721 578.087, 505.887 578.095, 495.887 578.099, 491.068 577.990, 481.069 577.937, 476.282 577.708, 466.285 577.600, 461.549 577.250, 451.555 577.087, 446.890 576.615, 436.901 576.398, 432.324 575.800, 422.342 575.533, 417.874 574.806, 407.901 574.490, 403.562 573.630, 393.599 573.269, 389.409 572.344, 380.179 " fill="none" stroke="rgb(0, 0, 0)" stroke-linecap="butt" stroke-linejoin="round" stroke-opacity="1.0" stroke-width="3.0" />
            <path d=" M 569.351, 385.419 570.328, 395.074 571.197, 405.036 571.509, 408.608 572.243, 418.581 572.517, 422.301 573.122, 432.283 573.355, 436.133 573.833, 446.121 574.022, 450.080 574.376, 460.074 574.519, 464.122 574.751, 474.119 574.847, 478.237 574.959, 488.237 575.006, 492.406 574.999, 502.406 574.996, 506.609 574.982, 507.707 574.898, 508.409 574.805, 509.076 574.704, 509.705 574.596, 510.291 574.482, 510.831 574.362, 511.324 574.236, 511.765 574.106, 512.153 573.973, 512.485 573.836, 512.760 573.697, 512.976 573.556, 513.132 573.415, 513.227 573.273, 513.261 569.244, 513.342 569.078, 512.154 568.885, 511.116 568.667, 510.245 568.429, 509.556 568.174, 509.061 567.906, 508.770 567.630, 508.686 567.273, 508.680 565.190, 508.647 564.746, 508.640 564.707, 508.639 563.757, 508.624 562.919, 508.610 559.347, 508.552 557.562, 508.524 557.456, 508.522 557.243, 508.519 556.953, 508.645 556.665, 508.981 556.383, 509.521 556.112, 510.255 555.856, 511.173 555.621, 512.259 555.559, 512.623 555.411, 513.495 555.228, 514.860 555.076, 516.330 554.958, 517.881 554.876, 519.486 554.855, 520.264 554.851, 520.428 554.832, 521.117 555.445, 521.128 557.292, 521.160 557.394, 521.162 559.178, 521.194 562.750, 521.257 563.586, 521.272 564.537, 521.289 565.298, 521.303 566.922, 521.221 566.924, 521.148 566.937, 520.705 566.949, 520.503 566.967, 520.202 567.010, 519.727 567.066, 519.291 567.132, 518.908 567.150, 518.830 567.207, 518.588 567.289, 518.339 567.375, 518.168 567.464, 518.079 567.552, 518.076 " fill="none" stroke="rgb(0, 0, 0)" stroke-linecap="butt" stroke-linejoin="round" stroke-opacity="1.0" stroke-width="3.0" />
            <path d=" M 386.490, 245.585 385.236, 249.833 382.703, 259.507 381.578, 263.800 379.310, 273.539 378.058, 278.916 376.029, 288.708 374.695, 295.144 372.883, 304.978 371.509, 312.433 369.897, 322.302 368.521, 330.724 367.092, 340.622 365.747, 349.948 364.492, 359.869 363.237, 369.790 363.207, 370.027 362.115, 379.968 361.024, 389.908 360.917, 390.877 359.981, 400.833 359.045, 410.789 358.893, 412.400 358.106, 422.369 357.318, 432.338 357.148, 434.496 356.505, 444.475 355.862, 454.454 355.695, 457.056 355.192, 467.044 354.690, 477.031 354.542, 479.968 354.178, 489.961 353.814, 499.954 353.699, 503.113 353.471, 513.110 353.243, 523.107 353.169, 526.371 353.123, 536.371 353.078, 546.371 353.063, 549.532 353.177, 559.531 353.292, 569.531 353.326, 572.539 353.602, 582.535 353.878, 592.531 353.954, 595.271 354.395, 605.261 354.837, 615.252 354.941, 617.613 355.554, 627.594 356.166, 637.576 356.282, 639.452 357.072, 649.421 357.862, 659.390 357.964, 660.683 358.940, 670.636 359.916, 680.588 359.977, 681.207 361.150, 691.138 362.306, 700.931 363.689, 710.835 364.936, 719.773 366.544, 729.643 367.849, 737.659 369.700, 747.486 371.026, 754.525 372.760, 762.526 " fill="none" stroke="rgb(0, 0, 0)" stroke-linecap="butt" stroke-linejoin="round" stroke-opacity="1.0" stroke-width="3.0" />
            <path d=" M 522.898, 538.691 522.602, 548.118 522.181, 558.109 522.007, 562.226 521.477, 572.212 521.261, 576.277 520.620, 586.256 520.364, 590.249 519.612, 600.221 519.317, 604.123 518.451, 614.086 518.121, 617.880 517.137, 627.831 517.021, 629.002 " fill="none" stroke="rgb(0, 0, 0)" stroke-linecap="butt" stroke-linejoin="round" stroke-opacity="1.0" stroke-width="3.0" />
            <path d=" M 497.668, 745.478 495.217, 755.048 492.526, 764.679 492.274, 765.583 489.353, 775.147 489.193, 775.672 486.022, 785.156 485.979, 785.285 482.634, 794.389 479.161, 802.949 475.565, 810.930 471.850, 818.298 468.021, 825.016 464.084, 831.044 460.046, 836.348 455.915, 840.889 451.953, 844.401 " fill="none" stroke="rgb(0, 0, 0)" stroke-linecap="butt" stroke-linejoin="round" stroke-opacity="1.0" stroke-width="3.0" />
            <path d=" M 389.631, 521.826 389.534, 527.060 389.483, 537.059 389.432, 547.059 389.416, 550.164 389.527, 560.163 389.637, 570.162 389.670, 573.115 389.943, 583.111 390.217, 593.107 390.290, 595.794 390.730, 605.784 391.171, 615.774 391.272, 618.085 391.884, 628.067 392.495, 638.048 392.607, 639.878 393.394, 649.847 394.182, 659.816 394.280, 661.067 395.252, 671.019 396.223, 680.972 396.279, 681.553 397.443, 691.485 398.587, 701.245 399.956, 711.151 401.186, 720.060 402.772, 729.933 404.055, 737.924 405.875, 747.757 407.174, 754.774 409.249, 764.556 410.521, 770.551 412.875, 780.269 414.072, 785.211 416.736, 794.849 417.806, 798.719 420.818, 808.255 421.699, 811.046 425.105, 820.448 425.730, 822.172 429.586, 831.398 429.875, 832.088 434.113, 840.793 438.424, 848.288 439.852, 850.349 440.131, 850.750 442.788, 854.585 447.186, 859.702 451.600, 863.661 456.013, 866.485 460.410, 868.206 464.777, 868.859 469.101, 868.479 473.368, 867.101 477.569, 864.768 481.692, 861.520 484.149, 859.012 485.731, 857.397 489.676, 852.440 493.521, 846.693 497.259, 840.197 500.885, 832.990 504.394, 825.113 507.782, 816.607 511.046, 807.510 514.136, 797.999 514.183, 797.856 514.301, 797.456 514.411, 797.083 " fill="none" stroke="rgb(0, 0, 0)" stroke-linecap="butt" stroke-linejoin="round" stroke-opacity="1.0" stroke-width="3.0" />
            <path d=" M 464.780, 850.478 460.703, 849.656 460.658, 849.636 456.612, 847.823 452.522, 844.951 451.953, 844.401 448.447, 841.011 444.401, 835.983 440.402, 829.850 436.466, 822.598 432.611, 814.217 428.937, 804.917 428.856, 804.710 425.618, 795.249 425.218, 794.080 422.361, 784.497 421.717, 782.337 419.196, 772.660 418.373, 769.502 416.150, 759.752 415.204, 755.603 413.249, 745.796 412.228, 740.676 410.518, 730.823 409.466, 724.762 407.980, 714.873 406.935, 707.915 405.656, 697.997 404.650, 690.198 403.565, 680.257 402.628, 671.676 401.726, 661.717 400.885, 652.428 400.156, 642.455 399.432, 632.538 398.869, 622.554 398.306, 612.569 398.279, 612.096 397.877, 602.104 397.475, 592.113 397.438, 591.199 397.192, 581.202 396.946, 571.205 396.915, 569.949 396.821, 559.950 396.728, 549.950 396.714, 548.451 396.771, 538.451 396.808, 531.880 " fill="none" stroke="rgb(0, 0, 0)" stroke-linecap="butt" stroke-linejoin="round" stroke-opacity="1.0" stroke-width="3.0" />
            <path d=" M 510.938, 788.152 508.901, 794.205 505.731, 802.743 502.450, 810.704 499.063, 818.053 495.573, 824.753 491.986, 830.765 488.309, 836.054 484.549, 840.582 480.712, 844.310 476.807, 847.199 472.843, 849.215 468.830, 850.321 464.780, 850.478 " fill="none" stroke="rgb(0, 0, 0)" stroke-linecap="butt" stroke-linejoin="round" stroke-opacity="1.0" stroke-width="3.0" />
            <path d=" M 554.851, 520.428 548.934, 520.310 548.080, 520.293 546.366, 520.259 546.161, 530.257 546.076, 534.394 545.773, 544.389 545.648, 548.509 545.247, 558.501 545.083, 562.585 544.582, 572.572 544.380, 576.603 543.779, 586.585 543.541, 590.543 542.838, 600.518 542.566, 604.385 541.759, 614.353 541.454, 618.110 540.540, 628.068 540.207, 631.697 539.183, 641.644 538.825, 645.123 537.687, 655.058 537.308, 658.369 536.052, 668.290 535.656, 671.412 534.277, 681.316 533.871, 684.227 532.362, 694.112 531.953, 696.792 530.663, 704.527 529.903, 709.081 529.462, 711.508 " fill="none" stroke="rgb(0, 0, 0)" stroke-linecap="butt" stroke-linejoin="round" stroke-opacity="1.0" stroke-width="3.0" />
            <path d=" M 531.907, 720.596 532.431, 717.598 534.010, 707.723 534.495, 704.691 535.942, 694.796 536.423, 691.508 537.745, 681.596 538.214, 678.075 539.417, 668.147 539.869, 664.414 540.957, 654.473 541.386, 650.550 542.365, 640.598 542.768, 636.505 543.641, 626.544 544.013, 622.302 544.784, 612.332 545.122, 607.961 545.794, 597.983 546.096, 593.502 546.671, 583.519 546.934, 578.947 547.414, 568.959 547.637, 564.315 548.024, 554.322 548.205, 549.624 548.499, 539.628 548.639, 534.895 548.841, 524.897 548.934, 520.310 " fill="none" stroke="rgb(0, 0, 0)" stroke-linecap="butt" stroke-linejoin="round" stroke-opacity="1.0" stroke-width="3.0" />
            <path d=" M 377.493, 526.999 377.443, 536.999 377.393, 546.999 377.372, 551.052 377.480, 561.051 377.588, 571.051 377.630, 574.941 377.899, 584.938 378.167, 594.934 378.264, 598.542 378.696, 608.533 379.129, 618.523 379.267, 621.730 379.869, 631.712 380.470, 641.694 380.632, 644.389 381.408, 654.358 382.184, 664.328 382.346, 666.406 383.304, 676.360 384.263, 686.314 384.394, 687.679 385.546, 697.612 386.697, 707.546 386.763, 708.109 388.119, 718.017 389.433, 727.612 391.009, 737.487 392.385, 746.110 394.198, 755.944 395.598, 763.536 397.671, 773.319 399.051, 779.832 401.410, 789.550 402.721, 794.952 405.398, 804.587 406.585, 808.861 409.620, 818.389 410.620, 821.530 414.063, 830.919 414.804, 832.941 418.714, 842.145 419.114, 843.086 423.527, 851.966 428.022, 859.585 432.580, 865.957 437.179, 871.103 441.802, 875.048 446.431, 877.818 451.049, 879.448 455.642, 879.976 460.195, 879.440 464.696, 877.879 469.133, 875.336 473.495, 871.857 477.771, 867.481 481.955, 862.255 " fill="none" stroke="rgb(0, 0, 0)" stroke-linecap="butt" stroke-linejoin="round" stroke-opacity="1.0" stroke-width="3.0" />
            <path d=" M 481.955, 862.255 488.138, 854.395 489.676, 852.440 " fill="none" stroke="rgb(0, 0, 0)" stroke-linecap="butt" stroke-linejoin="round" stroke-opacity="1.0" stroke-width="3.0" />
            <path d=" M 539.876, 545.452 529.879, 545.691 528.473, 545.724 525.536, 542.019 522.898, 538.691 520.730, 535.956 " fill="none" stroke="rgb(0, 0, 0)" stroke-linecap="butt" stroke-linejoin="round" stroke-opacity="1.0" stroke-width="3.0" />
            <path d=" M 527.870, 495.914 529.260, 494.118 539.241, 494.737 540.673, 494.825 540.673, 504.825 540.672, 514.825 540.672, 520.146 540.422, 530.143 540.318, 534.288 539.922, 544.280 539.876, 545.452 533.821, 537.494 531.177, 534.018 530.912, 533.669 530.646, 533.320 530.380, 532.969 530.114, 532.619 529.806, 532.088 529.518, 531.335 529.254, 530.375 529.055, 529.392 529.022, 529.226 528.827, 527.910 528.672, 526.452 528.560, 524.879 528.509, 523.602 528.494, 523.222 528.474, 521.513 528.500, 519.785 528.573, 518.072 528.621, 517.407 528.692, 516.407 528.852, 514.822 529.053, 513.347 529.282, 512.047 529.289, 512.012 529.555, 510.842 529.848, 509.858 530.160, 509.080 530.485, 508.521 530.761, 508.148 531.039, 507.774 531.316, 507.401 531.593, 507.029 531.733, 506.843 537.702, 498.820 540.673, 494.825 " fill="none" stroke="rgb(0, 0, 0)" stroke-linecap="butt" stroke-linejoin="round" stroke-opacity="1.0" stroke-width="3.0" />
            <path d=" M 530.818, 523.644 530.697, 523.516 530.584, 523.257 530.487, 522.879 530.409, 522.398 530.354, 521.837 530.324, 521.219 530.321, 520.571 530.344, 519.922 530.393, 519.301 530.466, 518.734 530.559, 518.247 530.667, 517.860 530.788, 517.592 530.914, 517.452 531.040, 517.449 " fill="none" stroke="rgb(0, 0, 0)" stroke-linecap="butt" stroke-linejoin="round" stroke-opacity="1.0" stroke-width="3.0" />
            <path d=" M 531.040, 517.449 531.162, 517.581 531.274, 517.841 531.370, 518.220 531.448, 518.699 531.503, 519.259 531.532, 519.875 531.535, 520.520 531.512, 521.166 531.463, 521.785 531.391, 522.351 531.299, 522.838 531.191, 523.225 531.071, 523.495 530.945, 523.637 530.818, 523.644 " fill="none" stroke="rgb(0, 0, 0)" stroke-linecap="butt" stroke-linejoin="round" stroke-opacity="1.0" stroke-width="3.0" />
            <path d=" M 361.911, 457.144 361.793, 459.066 361.321, 469.055 360.849, 479.044 360.734, 481.476 360.401, 491.470 360.068, 501.464 359.983, 504.037 359.820, 512.370 359.625, 522.368 359.541, 526.659 359.484, 536.659 359.427, 546.659 359.412, 549.253 359.494, 559.253 359.575, 569.252 359.595, 571.727 359.817, 581.725 360.038, 591.722 360.089, 593.993 360.127, 595.041 " fill="none" stroke="rgb(0, 0, 0)" stroke-linecap="butt" stroke-linejoin="round" stroke-opacity="1.0" stroke-width="3.0" />
            <path d=" M 538.234, 740.357 539.881, 730.493 540.003, 729.757 541.538, 719.875 541.898, 717.553 543.325, 707.656 543.685, 705.160 545.008, 695.248 545.363, 692.591 546.587, 682.667 546.933, 679.863 548.061, 669.927 548.394, 666.990 549.429, 657.043 549.747, 653.984 550.692, 644.029 550.992, 640.860 551.848, 630.897 552.129, 627.631 552.899, 617.661 553.157, 614.308 553.842, 604.332 554.078, 600.905 554.680, 590.923 554.890, 587.432 555.410, 577.445 555.594, 573.902 556.033, 563.911 556.190, 560.325 556.548, 550.332 556.677, 546.714 556.955, 536.718 557.056, 533.079 557.254, 523.081 557.292, 521.160 " fill="none" stroke="rgb(0, 0, 0)" stroke-linecap="butt" stroke-linejoin="round" stroke-opacity="1.0" stroke-width="3.0" />
            <path d=" M 457.721, 912.588 460.144, 912.754 464.280, 912.501 468.376, 911.437 472.423, 909.591 476.414, 906.993 480.343, 903.676 484.203, 899.668 487.990, 895.001 491.698, 889.706 495.324, 883.811 498.863, 877.347 502.312, 870.342 505.667, 862.825 508.927, 854.822 512.089, 846.361 515.151, 837.466 518.111, 828.164 520.968, 818.478 521.998, 814.718 " fill="none" stroke="rgb(0, 0, 0)" stroke-linecap="butt" stroke-linejoin="round" stroke-opacity="1.0" stroke-width="3.0" />
            <path d=" M 520.795, 188.979 519.064, 184.043 516.010, 176.131 512.842, 168.720 509.562, 161.839 506.174, 155.516 502.679, 149.783 499.080, 144.669 495.382, 140.205 491.589, 136.424 487.705, 133.355 483.735, 131.031 479.686, 129.482 475.565, 128.741 471.378, 128.836 471.258, 128.863 467.135, 129.797 462.843, 131.652 458.512, 134.427 454.154, 138.147 449.778, 142.833 445.398, 148.505 441.025, 155.179 436.674, 162.867 432.358, 171.580 430.801, 175.134 428.092, 181.320 424.459, 190.637 423.892, 192.088 421.636, 198.549 419.774, 203.879 416.778, 213.420 415.754, 216.681 413.030, 226.303 411.847, 230.479 409.371, 240.167 408.072, 245.249 405.823, 254.992 404.445, 260.963 402.406, 270.753 400.983, 277.586 399.139, 287.414 397.701, 295.076 396.040, 304.937 394.616, 313.385 393.127, 323.274 391.744, 332.461 390.418, 342.373 389.098, 352.242 387.929, 362.173 386.759, 372.104 386.694, 372.662 385.674, 382.610 384.654, 392.558 384.542, 393.651 383.668, 403.613 382.793, 413.574 382.656, 415.132 381.922, 425.105 381.188, 435.078 381.044, 437.025 380.448, 447.008 379.851, 456.990 379.716, 459.247 379.254, 469.236 378.793, 479.225 378.678, 481.709 378.350, 491.704 378.022, 501.698 377.936, 504.323 377.741, 514.321 377.546, 524.320 377.493, 526.999 377.431, 536.999 377.368, 546.999 377.351, 549.646 377.422, 559.646 377.492, 569.645 377.510, 572.173 377.715, 582.171 377.921, 592.169 377.968, 594.490 378.310, 604.484 378.652, 614.479 378.722, 616.511 379.204, 626.499 379.685, 636.488 379.765, 638.151 380.391, 648.131 381.016, 658.111 381.092, 659.328 381.866, 669.298 382.639, 679.268 382.694, 679.965 383.621, 689.922 384.560, 699.991 385.649, 709.932 386.680, 719.339 387.938, 729.259 389.041, 737.946 390.479, 747.842 391.630, 755.758 393.260, 765.624 394.433, 772.725 396.269, 782.555 397.435, 788.805 399.493, 798.591 400.622, 803.960 402.921, 813.692 403.977, 818.161 406.541, 827.827 407.484, 831.383 410.341, 840.966 411.128, 843.608 414.310, 853.089 414.893, 854.825 418.441, 864.174 418.764, 865.024 422.724, 874.206 426.760, 882.372 430.856, 889.531 435.000, 895.692 439.177, 900.872 443.374, 905.087 447.581, 908.359 451.785, 910.710 455.976, 912.167 458.591, 912.535 460.144, 912.754 " fill="none" stroke="rgb(0, 0, 0)" stroke-linecap="butt" stroke-linejoin="round" stroke-opacity="1.0" stroke-width="3.0" />
            <path d=" M 468.921, 128.917 464.650, 129.878 460.331, 131.734 455.973, 134.509 451.587, 138.228 447.184, 142.913 442.777, 148.584 438.377, 155.257 433.999, 162.944 429.657, 171.654 427.968, 175.487 425.366, 181.391 421.713, 190.700 421.141, 192.156 417.825, 201.591 416.998, 203.943 414.901, 210.580 412.954, 216.742 410.215, 226.359 409.025, 230.534 406.535, 240.219 405.228, 245.299 402.966, 255.040 401.581, 261.008 399.530, 270.795 398.099, 277.625 396.244, 287.451 394.799, 295.109 393.128, 304.968 391.697, 313.412 390.200, 323.299 388.809, 332.480 387.476, 342.391 386.150, 352.253 384.974, 362.184 383.798, 372.115 383.733, 372.666 382.708, 382.613 381.683, 392.561 381.571, 393.647 380.691, 403.608 379.812, 413.569 379.675, 415.119 378.938, 425.092 378.200, 435.065 378.056, 437.004 377.457, 446.986 376.858, 456.968 376.723, 459.217 376.260, 469.206 375.796, 479.195 375.682, 481.670 375.353, 491.665 375.024, 501.659 374.938, 504.275 374.743, 514.274 374.548, 524.272 374.495, 526.943 374.434, 536.942 374.372, 546.942 374.356, 549.580 374.428, 559.580 374.500, 569.580 374.519, 572.098 374.727, 582.096 374.934, 592.094 374.983, 594.407 375.328, 604.401 375.674, 614.395 375.744, 616.420 376.230, 626.408 376.716, 636.396 376.797, 638.051 377.427, 648.031 378.058, 658.011 378.135, 659.220 378.915, 669.190 379.695, 679.159 379.749, 679.850 380.684, 689.807 381.629, 699.869 382.727, 709.809 383.765, 719.210 385.033, 729.129 386.143, 737.811 387.593, 747.706 388.751, 755.617 390.393, 765.482 391.574, 772.579 393.423, 782.407 394.598, 788.654 396.669, 798.437 397.806, 803.805 400.121, 813.534 401.184, 818.002 403.765, 827.663 404.715, 831.221 407.590, 840.799 408.384, 843.443 411.586, 852.917 412.174, 854.657 415.743, 863.998 415.865, 864.315 415.914, 864.446 416.071, 864.855 420.058, 874.035 424.120, 882.201 428.243, 889.358 432.414, 895.520 436.618, 900.699 440.843, 904.915 445.077, 908.188 449.308, 910.541 453.526, 911.998 457.721, 912.588 " fill="none" stroke="rgb(0, 0, 0)" stroke-linecap="butt" stroke-linejoin="round" stroke-opacity="1.0" stroke-width="3.0" />
            <path d=" M 471.378, 128.836 468.921, 128.917 " fill="none" stroke="rgb(0, 0, 0)" stroke-linecap="butt" stroke-linejoin="round" stroke-opacity="1.0" stroke-width="3.0" />
            <path d=" M 544.322, 756.045 544.470, 755.195 546.074, 745.325 546.555, 742.366 548.050, 732.478 548.526, 729.333 549.918, 719.430 550.384, 716.112 551.676, 706.195 552.128, 702.719 553.324, 692.790 553.760, 689.168 554.862, 679.229 555.278, 675.475 556.290, 665.527 556.684, 661.653 557.608, 651.696 557.977, 647.714 558.816, 637.749 559.159, 633.672 559.913, 623.701 560.228, 619.539 560.900, 609.562 561.185, 605.327 561.776, 595.344 562.031, 591.046 562.542, 581.059 562.764, 576.710 563.197, 566.719 563.386, 562.328 563.740, 552.335 563.897, 547.912 564.173, 537.916 564.295, 533.473 564.493, 523.475 564.537, 521.289 " fill="none" stroke="rgb(0, 0, 0)" stroke-linecap="butt" stroke-linejoin="round" stroke-opacity="1.0" stroke-width="3.0" />
            <path d=" M 455.309, 943.206 457.727, 943.382 462.206, 943.631 466.643, 942.976 471.029, 941.454 475.355, 939.098 479.614, 935.945 483.799, 932.029 487.905, 927.386 491.927, 922.051 495.858, 916.057 499.697, 909.440 503.438, 902.231 507.078, 894.462 510.615, 886.164 514.047, 877.368 517.372, 868.102 520.516, 858.609 520.587, 858.393 523.519, 848.833 523.692, 848.270 526.431, 838.652 526.686, 837.757 529.057, 828.805 " fill="none" stroke="rgb(0, 0, 0)" stroke-linecap="butt" stroke-linejoin="round" stroke-opacity="1.0" stroke-width="3.0" />
            <path d=" M 540.629, 217.693 539.083, 210.606 536.780, 200.875 536.510, 199.734 534.018, 190.049 533.809, 189.238 531.113, 179.608 530.982, 179.142 528.060, 169.579 528.028, 169.475 524.948, 160.264 521.743, 151.538 518.414, 143.328 514.963, 135.665 511.390, 128.581 507.700, 122.110 503.893, 116.286 499.975, 111.144 495.949, 106.719 491.819, 103.048 487.591, 100.167 483.270, 98.111 478.863, 96.918 474.379, 96.622 473.171, 96.791 469.825, 97.259 465.210, 98.863 460.544, 101.465 455.840, 105.096 451.108, 109.784 446.361, 115.554 441.614, 122.429 436.881, 130.425 432.303, 139.315 432.178, 139.557 428.051, 148.665 427.522, 149.834 425.212, 155.579 422.928, 161.259 419.604, 170.521 418.416, 173.830 415.361, 183.324 414.004, 187.540 411.223, 197.145 409.710, 202.371 407.186, 212.048 405.554, 218.304 403.265, 228.038 401.555, 235.307 399.482, 245.090 397.732, 253.345 397.141, 256.447 395.268, 266.270 394.104, 272.371 392.419, 282.228 390.733, 292.085 390.690, 292.335 389.181, 302.220 387.671, 312.106 387.508, 313.176 386.165, 323.085 384.822, 332.995 384.574, 334.827 383.390, 344.756 382.207, 354.686 381.905, 357.213 380.874, 367.159 379.843, 377.106 379.517, 380.254 378.632, 390.215 377.748, 400.175 377.421, 403.862 376.680, 413.835 375.938, 423.807 375.631, 427.947 375.029, 437.929 374.427, 447.911 374.155, 452.410 373.691, 462.400 373.226, 472.389 373.004, 477.152 372.674, 487.147 372.345, 497.142 372.182, 502.070 371.987, 512.068 371.792, 522.067 371.694, 527.059 371.633, 537.059 371.573, 547.059 371.542, 552.014 371.617, 562.014 371.691, 572.013 371.726, 576.830 371.937, 586.827 372.147, 596.825 372.244, 601.403 372.593, 611.397 372.942, 621.391 373.090, 625.633 373.581, 635.621 374.072, 645.609 374.260, 649.422 374.896, 659.402 375.533, 669.381 375.743, 672.677 376.531, 682.646 377.319, 692.615 377.532, 695.310 378.476, 705.266 379.421, 715.221 379.612, 717.240 380.721, 727.178 381.830, 737.117 381.972, 738.390 383.255, 748.307 384.537, 758.225 384.597, 758.691 386.064, 768.583 387.472, 778.083 389.134, 787.944 390.579, 796.511 392.453, 806.333 393.901, 813.928 396.004, 823.704 397.197, 829.250 397.422, 830.296 399.774, 840.015 400.551, 843.226 401.122, 845.583 403.749, 855.232 404.984, 859.766 407.916, 869.326 408.580, 871.494 408.989, 872.827 412.262, 882.276 413.120, 884.756 413.396, 885.457 417.051, 894.765 417.359, 895.548 421.449, 904.673 421.688, 905.206 426.091, 913.737 430.552, 921.153 435.056, 927.469 439.587, 932.707 444.132, 936.890 448.679, 940.043 453.214, 942.197 457.527, 943.330 457.727, 943.382 " fill="none" stroke="rgb(0, 0, 0)" stroke-linecap="butt" stroke-linejoin="round" stroke-opacity="1.0" stroke-width="3.0" />
            <path d=" M 363.709, 426.939 363.638, 427.875 363.026, 437.856 362.413, 447.838 362.140, 452.300 361.911, 457.144 361.439, 467.133 360.973, 477.003 360.640, 486.997 360.307, 496.992 360.144, 501.882 359.949, 511.880 359.944, 512.108 359.749, 522.107 359.677, 525.801 359.657, 526.831 359.600, 536.831 359.543, 546.831 359.515, 551.746 359.596, 561.746 359.657, 569.166 359.717, 576.523 359.938, 586.521 360.127, 595.041 360.260, 601.059 360.403, 605.004 " fill="none" stroke="rgb(0, 0, 0)" stroke-linecap="butt" stroke-linejoin="round" stroke-opacity="1.0" stroke-width="3.0" />
            <path d=" M 471.953, 96.712 467.370, 97.350 462.726, 98.954 458.031, 101.556 453.297, 105.188 448.536, 109.875 443.760, 115.644 438.984, 122.517 434.223, 130.512 429.622, 139.390 429.491, 139.642 425.343, 148.740 424.807, 149.916 421.057, 159.186 420.186, 161.338 416.790, 170.743 416.667, 171.082 415.648, 173.906 412.567, 183.419 411.210, 187.611 410.889, 188.711 408.329, 197.499 406.891, 202.438 404.352, 212.110 402.711, 218.365 400.408, 228.096 398.689, 235.362 396.604, 245.142 394.845, 253.393 392.961, 263.214 391.197, 272.413 389.502, 282.268 388.195, 289.862 387.764, 292.369 386.246, 302.254 384.728, 312.138 384.565, 313.203 383.214, 323.111 381.864, 333.019 381.616, 334.845 380.425, 344.774 379.235, 354.703 378.933, 357.223 377.897, 367.169 376.860, 377.115 376.533, 380.255 375.644, 390.215 374.755, 400.175 374.427, 403.854 373.682, 413.826 372.937, 423.798 372.629, 427.929 372.024, 437.911 371.420, 447.892 371.148, 452.383 370.681, 462.372 370.215, 472.361 369.993, 477.115 369.662, 487.110 369.332, 497.104 369.169, 502.023 368.974, 512.021 368.779, 522.019 368.681, 527.002 368.622, 537.002 368.562, 547.002 368.532, 551.947 368.608, 561.947 368.684, 571.946 368.720, 576.753 368.934, 586.751 369.147, 596.748 369.244, 601.317 369.597, 611.310 369.950, 621.304 370.099, 625.537 370.595, 635.525 371.090, 645.513 371.279, 649.317 371.921, 659.297 372.564, 669.276 372.775, 672.564 373.569, 682.533 374.363, 692.501 374.577, 695.189 375.530, 705.144 376.482, 715.098 376.674, 717.111 377.792, 727.048 378.909, 736.986 379.052, 738.254 380.344, 748.170 381.635, 758.086 381.696, 758.548 383.172, 768.439 384.590, 777.934 386.265, 787.793 387.719, 796.356 389.606, 806.176 390.229, 809.418 391.065, 813.768 393.182, 823.541 394.609, 830.131 395.524, 833.883 397.892, 843.598 398.320, 845.354 398.335, 845.415 400.979, 855.059 402.223, 859.594 405.173, 869.149 405.684, 870.803 406.255, 872.652 409.547, 882.094 410.413, 884.578 414.090, 893.878 414.680, 895.369 418.793, 904.484 419.038, 905.026 423.470, 913.556 427.960, 920.971 432.493, 927.288 437.053, 932.526 441.628, 936.709 446.204, 939.864 450.768, 942.020 455.309, 943.206 " fill="none" stroke="rgb(0, 0, 0)" stroke-linecap="butt" stroke-linejoin="round" stroke-opacity="1.0" stroke-width="3.0" />
            <path d=" M 474.379, 96.622 471.953, 96.712 " fill="none" stroke="rgb(0, 0, 0)" stroke-linecap="butt" stroke-linejoin="round" stroke-opacity="1.0" stroke-width="3.0" />
            <path d=" M 546.156, 224.446 545.987, 223.523 544.047, 213.713 543.608, 211.492 541.510, 201.715 541.097, 199.788 538.829, 190.049 538.453, 188.434 536.002, 178.739 535.678, 177.457 533.027, 167.815 532.770, 166.882 529.899, 157.303 529.730, 156.738 526.617, 147.235 526.558, 147.054 523.254, 137.861 519.819, 129.189 516.255, 121.074 512.563, 113.547 508.745, 106.645 504.804, 100.404 500.744, 94.861 496.567, 90.054 492.279, 86.021 487.884, 82.802 483.389, 80.436 478.799, 78.963 474.124, 78.420 469.299, 78.610 464.486, 79.039 459.604, 80.474 454.664, 82.952 449.677, 86.505 444.656, 91.166 439.615, 96.963 434.568, 103.921 429.531, 112.063 424.805, 120.875 424.522, 121.404 420.265, 130.453 419.557, 131.958 415.713, 141.189 414.655, 143.729 411.177, 153.105 409.836, 156.718 406.684, 166.209 405.119, 170.919 402.260, 180.502 400.525, 186.317 397.932, 195.975 396.076, 202.890 393.725, 212.610 391.791, 220.609 389.664, 230.380 387.693, 239.437 386.490, 245.585 384.569, 255.399 383.801, 259.325 382.074, 269.175 380.347, 279.025 380.137, 280.221 378.592, 290.101 377.046, 299.981 376.721, 302.060 375.347, 311.966 373.974, 321.871 373.571, 324.772 372.361, 334.698 371.151, 344.625 370.706, 348.277 369.652, 358.221 368.599, 368.165 368.141, 372.488 367.239, 382.447 366.337, 392.406 365.892, 397.312 365.211, 406.300 364.456, 416.271 363.972, 422.651 363.709, 426.939 363.097, 436.920 362.484, 446.901 362.392, 448.399 362.209, 452.287 361.737, 462.276 361.265, 472.265 361.162, 474.449 360.829, 484.443 360.496, 494.438 360.288, 500.688 360.093, 510.687 360.070, 511.843 359.875, 521.842 359.815, 524.932 359.775, 527.005 359.717, 537.005 359.660, 547.005 359.624, 553.284 359.706, 563.284 359.787, 573.284 359.828, 578.328 359.837, 579.413 360.058, 589.411 360.270, 598.991 360.403, 605.004 360.410, 605.280 360.773, 615.273 360.911, 619.070 361.275, 629.063 361.337, 630.775 361.847, 640.762 362.356, 650.749 362.613, 655.793 363.272, 665.772 363.931, 675.750 364.227, 680.235 365.042, 690.202 365.856, 700.169 366.169, 704.006 367.145, 713.958 368.120, 723.910 368.425, 727.017 369.569, 736.952 370.714, 746.886 370.980, 749.189 372.303, 759.101 372.760, 762.526 373.818, 770.447 375.330, 780.332 376.843, 790.217 376.921, 790.728 378.637, 800.580 380.273, 809.974 382.206, 819.785 383.852, 828.137 386.022, 837.899 387.641, 845.177 390.069, 854.878 391.618, 861.063 394.332, 870.688 395.764, 875.770 398.794, 885.300 400.060, 889.283 403.443, 898.693 404.485, 901.592 408.266, 910.850 409.020, 912.696 413.253, 921.756 413.647, 922.599 418.347, 931.310 423.103, 938.845 427.899, 945.223 432.719, 950.468 437.548, 954.606 442.373, 957.669 447.181, 959.687 451.959, 960.697 456.767, 961.057 461.446, 961.088 466.076, 960.183 470.647, 958.378 475.152, 955.712 479.583, 952.223 483.933, 947.950 488.196, 942.930 492.368, 937.201 496.443, 930.799 500.417, 923.760 504.288, 916.119 508.051, 907.909 511.706, 899.162 515.248, 889.911 518.573, 880.480 518.677, 880.185 521.776, 870.677 521.992, 870.014 524.883, 860.441 525.190, 859.425 527.892, 849.797 528.272, 848.444 530.800, 838.769 531.236, 837.097 531.970, 834.084 " fill="none" stroke="rgb(0, 0, 0)" stroke-linecap="butt" stroke-linejoin="round" stroke-opacity="1.0" stroke-width="3.0" />
            <path d=" M 546.742, 761.371 548.330, 751.498 548.680, 749.319 550.161, 739.429 550.701, 735.826 552.080, 725.921 552.605, 722.147 553.885, 712.229 554.392, 708.297 555.577, 698.368 556.063, 694.293 557.156, 684.353 557.618, 680.148 558.621, 670.199 559.057, 665.875 559.974, 655.918 560.382, 651.489 561.214, 641.523 561.591, 637.000 562.340, 627.028 562.686, 622.421 563.353, 612.444 563.666, 607.765 564.254, 597.782 564.532, 593.042 565.041, 583.055 565.284, 578.263 565.714, 568.273 565.922, 563.440 566.274, 553.446 566.446, 548.583 566.721, 538.587 566.855, 533.703 567.054, 523.705 567.104, 521.151 " fill="none" stroke="rgb(0, 0, 0)" stroke-linecap="butt" stroke-linejoin="round" stroke-opacity="1.0" stroke-width="3.0" />
            <path d=" M 474.124, 78.420 469.370, 78.847 464.549, 80.281 459.669, 82.757 454.743, 86.310 449.784, 90.972 444.803, 96.770 439.817, 103.731 434.841, 111.876 430.160, 120.713 429.890, 121.222 425.676, 130.291 424.984, 131.781 422.366, 138.145 420.139, 143.559 416.698, 152.948 415.375, 156.555 412.258, 166.057 410.713, 170.765 407.886, 180.357 406.416, 185.344 406.171, 186.172 403.607, 195.838 401.772, 202.757 401.155, 205.339 398.831, 215.066 397.535, 220.488 396.323, 226.120 394.220, 235.896 393.482, 239.328 391.583, 249.146 389.684, 258.964 389.633, 259.231 387.925, 269.085 386.217, 278.938 386.008, 280.143 385.528, 283.245 384.000, 293.128 382.628, 301.998 381.269, 311.906 379.910, 321.813 379.510, 324.727 378.313, 334.655 377.116, 344.583 376.673, 348.250 376.262, 352.173 375.220, 362.119 374.177, 372.064 374.133, 372.480 373.240, 382.440 372.347, 392.400 371.905, 397.324 371.157, 407.296 370.408, 417.268 370.002, 422.683 369.395, 432.664 368.788, 442.646 368.435, 448.451 367.966, 458.440 367.498, 468.429 367.213, 474.522 366.881, 484.516 366.550, 494.511 366.342, 500.782 366.147, 510.781 365.952, 520.779 365.828, 527.120 365.769, 537.120 365.710, 547.120 365.673, 553.420 365.751, 563.420 365.828, 573.420 365.876, 579.569 366.092, 589.567 366.308, 599.565 366.435, 605.456 366.791, 615.450 367.148, 625.443 367.345, 630.971 367.845, 640.958 368.345, 650.946 368.599, 656.008 369.247, 665.987 369.895, 675.966 370.187, 680.468 370.988, 690.436 371.789, 700.404 372.099, 704.256 373.059, 714.210 374.020, 724.164 374.321, 727.284 375.449, 737.220 376.576, 747.156 376.839, 749.471 378.143, 759.385 378.614, 762.968 378.840, 764.685 379.637, 770.743 381.128, 780.632 382.619, 790.520 382.698, 791.037 384.389, 800.893 386.003, 810.295 386.247, 811.550 387.570, 818.360 389.477, 828.176 389.534, 828.469 391.675, 838.237 393.272, 845.518 395.669, 855.227 396.313, 857.835 397.196, 861.412 399.875, 871.046 401.288, 876.126 404.280, 885.668 405.527, 889.645 408.870, 899.070 409.758, 901.575 409.894, 901.959 413.632, 911.234 414.371, 913.066 418.558, 922.148 418.938, 922.972 423.578, 931.684 428.274, 939.220 433.009, 945.597 437.768, 950.841 442.536, 954.977 447.300, 958.037 452.048, 960.052 456.767, 961.057 " fill="none" stroke="rgb(0, 0, 0)" stroke-linecap="butt" stroke-linejoin="round" stroke-opacity="1.0" stroke-width="3.0" />
            <path d=" M 565.298, 521.303 565.303, 521.119 565.342, 519.669 565.423, 518.062 565.424, 518.039 565.537, 516.510 565.685, 515.037 565.862, 513.671 565.925, 513.287 566.065, 512.433 566.293, 511.345 566.539, 510.426 566.801, 509.690 567.073, 509.150 567.271, 508.911 567.351, 508.813 567.630, 508.686 " fill="none" stroke="rgb(0, 0, 0)" stroke-linecap="butt" stroke-linejoin="round" stroke-opacity="1.0" stroke-width="3.0" />
            <path d=" M 567.993, 521.167 567.994, 520.653 567.980, 520.155 567.952, 519.684 567.911, 519.255 567.857, 518.878 567.793, 518.564 567.719, 518.322 567.638, 518.157 567.552, 518.076 " fill="none" stroke="rgb(0, 0, 0)" stroke-linecap="butt" stroke-linejoin="round" stroke-opacity="1.0" stroke-width="3.0" />
            <path d=" M 531.910, 480.282 531.904, 480.633 531.823, 485.940 531.963, 485.950 532.223, 485.970 537.579, 486.029 537.521, 480.357 537.461, 480.352 531.910, 480.282 " fill="none" stroke="rgb(0, 0, 0)" stroke-linecap="butt" stroke-linejoin="round" stroke-opacity="1.0" stroke-width="3.0" />
            <path d=" M 537.373, 486.014 537.461, 480.352 " fill="none" stroke="rgb(0, 0, 0)" stroke-linecap="butt" stroke-linejoin="round" stroke-opacity="1.0" stroke-width="3.0" />
            <path d=" M 531.823, 485.940 537.373, 486.014 537.579, 486.029 " fill="none" stroke="rgb(0, 0, 0)" stroke-linecap="butt" stroke-linejoin="round" stroke-opacity="1.0" stroke-width="3.0" />
            <path d=" M 534.658, 482.015 534.465, 482.032 534.431, 482.035 534.426, 482.035 " fill="none" stroke="rgb(0, 0, 0)" stroke-linecap="butt" stroke-linejoin="round" stroke-opacity="1.0" stroke-width="3.0" />
            <path d=" M 534.500, 482.024 534.426, 482.035 534.345, 482.057 534.211, 482.100 534.015, 482.203 533.845, 482.342 533.705, 482.510 533.600, 482.702 533.534, 482.911 533.509, 483.129 533.530, 483.361 533.594, 483.577 533.698, 483.773 533.836, 483.943 534.004, 484.083 534.146, 484.160 534.166, 484.171 534.167, 484.172 534.197, 484.188 " fill="none" stroke="rgb(0, 0, 0)" stroke-linecap="butt" stroke-linejoin="round" stroke-opacity="1.0" stroke-width="3.0" />
            <path d=" M 534.164, 484.171 534.197, 484.188 534.253, 484.206 534.368, 484.242 534.405, 484.254 " fill="none" stroke="rgb(0, 0, 0)" stroke-linecap="butt" stroke-linejoin="round" stroke-opacity="1.0" stroke-width="3.0" />
            <path d=" M 534.816, 482.028 534.658, 482.015 534.500, 482.024 " fill="none" stroke="rgb(0, 0, 0)" stroke-linecap="butt" stroke-linejoin="round" stroke-opacity="1.0" stroke-width="3.0" />
            <path d=" M 534.970, 482.065 534.871, 482.041 534.816, 482.028 " fill="none" stroke="rgb(0, 0, 0)" stroke-linecap="butt" stroke-linejoin="round" stroke-opacity="1.0" stroke-width="3.0" />
            <path d=" M 534.465, 484.265 534.623, 484.279 534.781, 484.269 534.937, 484.237 535.086, 484.183 535.226, 484.107 535.354, 484.012 535.468, 483.899 535.565, 483.771 535.643, 483.630 535.701, 483.480 535.737, 483.322 535.751, 483.161 535.742, 483.000 535.711, 482.842 535.658, 482.690 535.584, 482.547 535.491, 482.416 535.381, 482.301 535.256, 482.202 535.118, 482.123 534.970, 482.065 " fill="none" stroke="rgb(0, 0, 0)" stroke-linecap="butt" stroke-linejoin="round" stroke-opacity="1.0" stroke-width="3.0" />
            <path d=" M 534.311, 484.229 534.405, 484.254 534.465, 484.265 " fill="none" stroke="rgb(0, 0, 0)" stroke-linecap="butt" stroke-linejoin="round" stroke-opacity="1.0" stroke-width="3.0" />
            <path d=" M 621.022, 899.447 623.200, 899.956 631.097, 901.708 639.001, 902.710 646.893, 902.979 654.756, 902.532 662.576, 901.389 670.335, 899.570 678.021, 897.095 685.620, 893.985 693.118, 890.263 700.506, 885.949 707.771, 881.066 714.903, 875.637 721.894, 869.682 728.734, 863.226 735.416, 856.288 741.932, 848.892 748.275, 841.057 754.260, 833.047 754.440, 832.807 760.128, 824.582 760.420, 824.160 765.821, 815.745 766.210, 815.138 771.335, 806.551 771.807, 805.761 776.664, 797.020 777.204, 796.048 781.803, 787.168 782.399, 786.017 786.749, 777.013 787.388, 775.689 791.496, 766.571 792.168, 765.080 796.041, 755.861 796.735, 754.210 800.381, 744.898 801.087, 743.094 804.512, 733.699 805.222, 731.751 808.431, 722.279 809.137, 720.196 812.135, 710.656 812.830, 708.446 815.623, 698.844 816.299, 696.517 818.890, 686.859 819.543, 684.425 821.936, 674.715 822.560, 672.184 824.758, 662.428 825.348, 659.809 827.354, 650.012 827.906, 647.316 829.723, 637.482 830.233, 634.718 831.862, 624.851 832.328, 622.030 833.770, 612.135 834.188, 609.266 835.446, 599.346 835.814, 596.440 836.887, 586.498 837.203, 583.566 838.093, 573.606 838.356, 570.658 839.061, 560.683 839.270, 557.729 839.791, 547.742 839.945, 544.792 840.281, 534.798 840.380, 531.863 840.530, 521.864 840.574, 518.954 840.537, 508.954 840.526, 506.080 840.299, 496.083 840.235, 493.255 839.816, 483.263 839.700, 480.492 839.086, 470.510 838.920, 467.806 838.109, 457.839 837.895, 455.212 836.882, 445.263 836.624, 442.724 835.405, 432.798 835.105, 430.358 833.676, 420.460 833.340, 418.128 831.695, 408.265 831.326, 406.052 829.459, 396.228 829.064, 394.144 826.969, 384.366 826.553, 382.422 824.223, 372.697 823.793, 370.901 821.220, 361.238 820.784, 359.600 817.959, 350.008 817.526, 348.537 814.441, 339.024 814.020, 337.728 810.664, 328.308 810.267, 327.194 806.628, 317.879 806.266, 316.952 802.334, 307.758 802.020, 307.023 797.781, 297.966 797.529, 297.427 792.972, 288.526 792.797, 288.185 787.906, 279.462 787.824, 279.317 782.614, 270.844 777.170, 262.789 771.496, 255.174 765.595, 248.022 759.473, 241.354 753.136, 235.196 746.590, 229.568 739.841, 224.496 732.897, 220.003 725.768, 216.110 718.462, 212.843 710.990, 210.222 703.364, 208.271 695.596, 207.011 687.699, 206.462 679.689, 206.645 677.468, 206.816 " fill="none" stroke="rgb(0, 0, 0)" stroke-linecap="butt" stroke-linejoin="round" stroke-opacity="1.0" stroke-width="3.0" />
            <path d=" M 623.200, 899.956 622.936, 899.871 615.328, 897.439 607.500, 894.142 599.738, 890.055 592.062, 885.168 584.495, 879.472 577.058, 872.964 570.006, 865.873 569.774, 865.640 563.197, 858.107 562.668, 857.501 556.560, 849.584 555.764, 848.552 550.113, 840.301 549.084, 838.798 543.879, 830.260 542.654, 828.251 538.577, 820.750 536.498, 816.925 536.166, 816.240 533.478, 810.693 532.142, 807.936 530.639, 804.836 529.083, 801.231 526.843, 796.042 525.534, 793.009 525.102, 792.008 521.521, 782.671 519.909, 778.465 519.780, 778.087 517.547, 771.503 515.082, 764.237 512.223, 754.654 510.643, 749.357 508.125, 739.679 506.612, 733.863 504.423, 724.105 503.459, 719.806 503.008, 717.795 501.137, 707.971 499.848, 701.198 498.287, 691.320 497.148, 684.119 495.888, 674.199 494.923, 666.611 493.955, 656.658 493.184, 648.728 492.503, 638.751 491.941, 630.525 491.541, 620.533 491.202, 612.062 491.079, 602.063 490.972, 593.401 491.123, 583.402 491.255, 574.603 491.676, 564.612 492.050, 555.732 492.741, 545.755 493.357, 536.852 494.315, 526.898 495.002, 519.765 495.170, 518.027 496.397, 508.102 497.483, 499.321 498.979, 489.434 500.203, 481.350 500.287, 480.798 502.055, 470.956 503.570, 462.520 505.612, 452.730 507.319, 444.546 509.639, 434.818 511.519, 426.935 514.120, 417.279 516.151, 409.742 519.040, 400.168 521.196, 393.021 524.379, 383.541 526.635, 376.822 528.467, 371.891 531.894, 362.668 532.443, 361.191 535.678, 353.297 537.421, 349.043 538.598, 346.172 542.708, 337.055 545.075, 331.803 545.761, 330.418 546.947, 328.022 548.518, 324.850 551.850, 318.120 553.926, 314.299 555.486, 311.429 558.117, 306.587 558.895, 305.155 560.744, 302.056 561.331, 301.073 566.186, 292.935 571.669, 284.573 573.695, 281.484 579.550, 273.377 581.396, 270.822 587.633, 263.005 589.247, 260.981 589.262, 260.963 595.891, 253.476 597.267, 251.920 604.296, 244.807 605.387, 243.702 612.819, 237.012 613.594, 236.313 621.431, 230.101 621.866, 229.755 630.178, 224.027 638.508, 219.123 646.834, 215.036 655.134, 211.758 663.389, 209.276 671.580, 207.577 678.376, 206.796 679.689, 206.645 " fill="none" stroke="rgb(0, 0, 0)" stroke-linecap="butt" stroke-linejoin="round" stroke-opacity="1.0" stroke-width="3.0" />
            <path d=" M 677.468, 206.816 669.348, 207.749 661.146, 209.448 652.881, 211.929 644.570, 215.205 636.235, 219.289 627.895, 224.189 619.573, 229.913 611.731, 236.118 611.292, 236.466 603.853, 243.149 603.075, 243.848 596.040, 250.955 594.948, 252.059 588.312, 259.539 587.789, 260.129 586.934, 261.092 580.689, 268.903 579.060, 270.941 573.198, 279.043 571.352, 281.593 565.861, 289.951 563.836, 293.032 560.764, 298.171 560.165, 299.173 557.752, 303.211 556.539, 305.239 555.094, 307.894 553.535, 310.757 549.488, 318.191 548.083, 321.023 546.510, 324.195 542.708, 331.859 538.592, 340.972 536.226, 346.212 535.175, 348.773 531.377, 358.023 530.067, 361.215 529.356, 363.125 526.596, 370.537 524.255, 376.828 521.067, 386.306 518.813, 393.009 516.984, 399.062 514.091, 408.634 513.765, 409.711 512.770, 413.397 510.165, 423.052 509.131, 426.884 506.808, 436.610 504.930, 444.475 502.885, 454.264 501.180, 462.428 499.410, 472.270 497.896, 480.686 496.398, 490.573 495.092, 499.188 494.957, 500.277 493.869, 509.071 493.764, 509.916 493.497, 512.074 492.780, 517.871 492.591, 519.829 491.632, 529.783 490.968, 536.674 490.278, 546.651 490.189, 547.938 489.663, 555.533 489.243, 565.524 488.870, 574.382 488.721, 584.381 488.590, 593.159 488.715, 603.158 488.823, 611.800 489.225, 621.792 489.566, 630.242 490.250, 640.218 490.813, 648.424 491.784, 658.377 492.557, 666.289 493.822, 676.208 494.787, 683.778 496.353, 693.655 497.492, 700.838 499.368, 710.661 500.658, 717.418 502.362, 724.995 504.268, 733.470 506.792, 743.146 508.306, 748.949 511.172, 758.530 512.752, 763.815 513.472, 765.932 516.620, 775.186 517.587, 778.029 518.885, 781.406 522.473, 790.740 522.788, 791.560 524.780, 796.164 526.081, 799.170 526.680, 800.556 528.333, 804.377 531.471, 810.835 532.811, 813.593 534.201, 816.455 535.553, 818.938 540.366, 827.773 545.579, 836.306 546.805, 838.312 552.463, 846.557 553.494, 848.059 559.610, 855.970 560.408, 857.003 566.992, 864.529 567.524, 865.137 574.582, 872.221 574.817, 872.457 582.265, 878.963 589.843, 884.657 597.529, 889.543 605.302, 893.630 613.140, 896.928 621.022, 899.447 " fill="none" stroke="rgb(0, 0, 0)" stroke-linecap="butt" stroke-linejoin="round" stroke-opacity="1.0" stroke-width="3.0" />
            <path d=" M 789.951, 552.902 779.972, 552.251 779.236, 552.203 774.644, 551.287 764.837, 549.329 754.930, 547.352 754.222, 547.211 753.514, 547.069 752.804, 546.928 752.094, 546.786 751.263, 546.490 750.470, 545.941 749.729, 545.150 749.059, 544.131 748.471, 542.904 747.976, 541.492 747.584, 539.921 747.304, 538.222 747.140, 536.426 747.095, 534.570 747.171, 532.688 747.367, 530.817 747.678, 528.994 748.098, 527.253 748.619, 525.628 748.988, 524.738 749.231, 524.151 749.922, 522.850 750.679, 521.749 751.485, 520.870 752.178, 520.229 752.861, 519.599 752.872, 519.589 753.565, 518.950 754.256, 518.312 754.604, 517.992 756.158, 516.562 763.514, 509.788 770.871, 503.015 778.108, 496.351 " fill="none" stroke="rgb(0, 0, 0)" stroke-linecap="butt" stroke-linejoin="round" stroke-opacity="1.0" stroke-width="3.0" />
            <path d=" M 695.818, 295.176 687.572, 294.958 680.667, 295.427 679.213, 295.526 676.578, 295.953 670.764, 296.895 662.250, 299.097 660.592, 299.690 653.698, 302.155 645.139, 306.084 636.601, 310.884 628.284, 316.437 628.114, 316.551 620.208, 322.674 619.704, 323.065 612.214, 329.691 611.399, 330.411 604.337, 337.491 603.236, 338.595 596.608, 346.083 595.252, 347.615 589.056, 355.465 587.483, 357.458 581.713, 365.625 579.965, 368.100 574.608, 376.544 572.729, 379.506 572.690, 379.575 572.344, 380.179 569.351, 385.419 565.800, 391.633 564.980, 393.224 562.477, 398.081 561.736, 399.519 560.830, 401.277 559.203, 404.433 557.533, 408.034 555.885, 411.586 555.590, 412.224 553.886, 415.896 552.971, 417.869 549.137, 427.105 547.144, 431.908 547.116, 431.982 545.436, 436.532 542.336, 444.927 541.754, 446.504 538.654, 456.011 536.832, 461.601 534.089, 471.217 532.400, 477.137 531.889, 479.209 529.493, 488.918 528.474, 493.046 527.870, 495.914 525.810, 505.699 525.060, 509.259 523.644, 517.321 523.238, 519.639 523.209, 519.799 522.561, 523.494 522.172, 525.708 520.779, 535.611 520.730, 535.956 519.833, 542.332 518.781, 552.277 518.064, 559.063 517.357, 569.038 516.875, 575.828 516.515, 585.821 516.272, 592.556 516.258, 602.556 516.249, 609.175 516.579, 619.170 516.792, 625.620 517.021, 629.002 517.696, 638.979 517.893, 641.895 518.136, 644.291 519.146, 654.240 519.512, 657.849 520.864, 667.757 521.637, 673.419 522.750, 679.845 524.255, 688.543 526.327, 698.326 527.352, 703.161 529.462, 711.508 529.520, 711.741 530.564, 715.870 530.906, 717.223 531.806, 720.253 531.907, 720.596 534.752, 730.182 534.899, 730.676 536.918, 736.538 538.234, 740.357 538.981, 742.525 539.308, 743.474 540.297, 745.968 542.975, 752.717 543.991, 755.279 544.109, 755.578 544.322, 756.045 546.742, 761.371 549.277, 766.952 553.884, 775.827 554.785, 777.563 559.885, 786.166 560.607, 787.385 566.218, 795.663 566.715, 796.396 572.853, 804.290 573.078, 804.580 579.670, 811.923 586.464, 818.416 593.428, 824.055 600.537, 828.842 607.763, 832.777 610.692, 834.014 615.079, 835.867 622.460, 838.123 629.881, 839.556 637.318, 840.181 644.748, 840.015 652.150, 839.079 659.502, 837.392 666.785, 834.974 673.981, 831.853 681.072, 828.051 688.043, 823.593 694.877, 818.504 701.561, 812.813 708.083, 806.546 714.428, 799.728 720.587, 792.388 726.550, 784.552 732.246, 776.333 732.306, 776.247 737.656, 767.799 737.846, 767.499 742.865, 758.850 743.164, 758.335 747.864, 749.509 748.251, 748.782 752.643, 739.798 753.100, 738.864 757.197, 729.741 757.706, 728.606 761.517, 719.361 762.064, 718.035 765.598, 708.681 766.167, 707.175 769.433, 697.724 770.011, 696.050 773.017, 686.512 773.593, 684.683 776.344, 675.069 776.908, 673.100 779.411, 663.418 779.953, 661.322 782.211, 651.580 782.724, 649.372 784.743, 639.578 785.218, 637.274 787.002, 627.434 787.435, 625.049 788.985, 615.170 789.369, 612.720 790.688, 602.808 791.020, 600.309 792.109, 590.369 792.386, 587.838 793.246, 577.875 793.466, 575.329 794.095, 565.348 794.256, 562.802 794.655, 552.810 794.756, 550.281 794.924, 540.282 794.952, 538.637 " fill="none" stroke="rgb(0, 0, 0)" stroke-linecap="butt" stroke-linejoin="round" stroke-opacity="1.0" stroke-width="3.0" />
            <path d=" M 778.108, 496.351 788.062, 497.314 788.894, 497.394 " fill="none" stroke="rgb(0, 0, 0)" stroke-linecap="butt" stroke-linejoin="round" stroke-opacity="1.0" stroke-width="3.0" />
            <path d=" M 824.116, 512.901 823.561, 502.857 822.734, 492.891 822.541, 490.568 822.104, 486.652 821.184, 478.420 819.783, 468.519 819.489, 466.439 817.791, 456.584 817.458, 454.647 815.460, 444.848 815.096, 443.065 812.795, 433.333 812.411, 431.710 809.795, 422.058 809.402, 420.608 806.452, 411.053 806.063, 409.794 802.763, 400.354 802.394, 399.298 798.728, 389.994 798.396, 389.150 794.351, 380.004 794.073, 379.375 789.640, 370.411 789.434, 369.996 784.605, 361.239 784.489, 361.028 779.245, 352.493 773.704, 344.429 767.868, 336.873 761.746, 329.861 755.347, 323.419 748.683, 317.571 741.769, 312.331 734.620, 307.713 727.247, 303.752 719.733, 300.518 719.663, 300.488 711.884, 297.954 703.929, 296.178 695.818, 295.176 " fill="none" stroke="rgb(0, 0, 0)" stroke-linecap="butt" stroke-linejoin="round" stroke-opacity="1.0" stroke-width="3.0" />
            <path d=" M 660.592, 299.690 664.772, 301.896 670.821, 305.858 676.688, 310.458 682.365, 315.661 687.839, 321.451 693.099, 327.816 698.137, 334.731 702.943, 342.169 707.514, 350.097 711.846, 358.478 715.939, 367.273 719.786, 376.463 723.302, 385.825 723.380, 386.032 726.565, 395.512 726.715, 395.960 729.584, 405.540 729.788, 406.221 732.357, 415.886 732.596, 416.788 734.882, 426.523 735.142, 427.630 737.163, 437.424 737.429, 438.716 739.196, 448.559 739.459, 450.021 740.976, 459.906 741.225, 461.529 742.496, 471.448 742.723, 473.220 743.754, 483.167 743.951, 485.073 744.748, 495.041 744.910, 497.065 745.259, 503.178 745.176, 504.415 745.035, 505.641 744.837, 506.843 744.584, 508.009 744.279, 509.126 743.924, 510.183 743.524, 511.169 743.083, 512.074 742.605, 512.887 742.095, 513.601 741.558, 514.207 741.001, 514.701 740.428, 515.076 739.846, 515.329 739.515, 515.440 730.531, 518.449 " fill="none" stroke="rgb(0, 0, 0)" stroke-linecap="butt" stroke-linejoin="round" stroke-opacity="1.0" stroke-width="3.0" />
            <path d=" M 800.310, 535.626 800.395, 535.631 801.417, 535.697 803.242, 535.813 812.599, 532.285 813.336, 532.007 815.273, 531.276 823.056, 528.341 824.604, 527.757 825.012, 527.627 830.747, 525.804 830.471, 515.808 830.386, 512.725 829.842, 502.739 829.679, 499.739 828.862, 489.772 828.625, 486.870 827.531, 476.930 827.224, 474.142 825.844, 464.238 825.474, 461.580 823.803, 451.721 823.378, 449.208 821.407, 439.405 820.934, 437.052 818.653, 427.315 818.143, 425.137 815.543, 415.481 815.148, 414.014 815.007, 413.489 812.076, 403.928 811.527, 402.135 809.183, 395.367 807.705, 391.100 804.076, 381.782 803.543, 380.414 799.545, 371.249 799.045, 370.104 794.664, 361.116 794.216, 360.198 789.435, 351.415 789.059, 350.724 785.687, 345.179 783.579, 341.712 780.239, 336.801 777.784, 333.191 771.680, 325.190 765.276, 317.740 758.579, 310.871 751.602, 304.611 744.356, 298.990 736.853, 294.038 729.107, 289.784 721.135, 286.255 712.953, 283.478 704.579, 281.481 696.034, 280.286 687.340, 279.917 677.345, 279.612 667.349, 279.308 665.690, 279.258 " fill="none" stroke="rgb(0, 0, 0)" stroke-linecap="butt" stroke-linejoin="round" stroke-opacity="1.0" stroke-width="3.0" />
            <path d=" M 687.340, 279.917 678.519, 280.396 678.373, 280.418 669.597, 281.742 664.019, 283.123 660.600, 283.969 651.555, 287.092 642.493, 291.123 638.906, 293.083 638.818, 293.132 633.444, 296.069 625.063, 301.524 624.439, 301.930 616.474, 307.977 615.512, 308.708 607.977, 315.283 606.698, 316.399 599.596, 323.439 598.031, 324.991 591.362, 332.443 589.546, 334.471 583.305, 342.285 581.280, 344.821 575.462, 352.953 573.270, 356.016 570.588, 360.189 570.180, 360.823 565.551, 368.025 563.711, 371.209 561.165, 375.613 559.517, 378.463 558.158, 380.815 554.214, 388.407 552.535, 391.637 551.127, 394.347 546.901, 403.410 544.492, 408.575 541.030, 416.872 538.284, 423.450 534.800, 432.823 532.536, 438.916 529.413, 448.416 527.276, 454.917 524.507, 464.526 522.530, 471.389 520.111, 481.091 518.323, 488.264 516.250, 498.047 514.676, 505.474 512.947, 515.323 512.200, 519.581 511.609, 522.946 510.222, 532.849 509.135, 540.606 508.089, 550.551 507.266, 558.379 506.564, 568.354 506.012, 576.187 505.655, 586.181 505.377, 593.955 505.368, 603.955 505.362, 611.605 505.707, 621.599 505.964, 629.063 " fill="none" stroke="rgb(0, 0, 0)" stroke-linecap="butt" stroke-linejoin="round" stroke-opacity="1.0" stroke-width="3.0" />
            <path d=" M 756.158, 516.562 755.878, 509.968 755.828, 507.200 755.791, 507.426 755.539, 508.598 755.235, 509.721 754.882, 510.783 754.485, 511.774 754.046, 512.683 753.571, 513.500 753.064, 514.218 752.532, 514.828 751.978, 515.324 751.410, 515.701 750.832, 515.955 741.365, 519.175 733.752, 521.763 733.162, 520.680 732.491, 519.780 731.751, 519.078 730.954, 518.586 730.531, 518.449 730.114, 518.313 720.131, 517.729 718.957, 517.660 718.081, 517.611 717.190, 517.787 716.299, 518.185 715.424, 518.799 714.613, 519.622 713.883, 520.640 713.212, 521.834 712.613, 523.184 712.096, 524.667 711.669, 526.258 711.341, 527.930 711.116, 529.654 711.000, 531.399 710.994, 533.138 720.972, 533.791 722.194, 533.871 727.030, 532.223 727.037, 531.669 727.088, 531.116 727.120, 530.935 727.181, 530.577 727.314, 530.070 727.483, 529.606 727.683, 529.198 727.908, 528.859 728.154, 528.597 728.412, 528.419 728.676, 528.330 728.938, 528.332 " fill="none" stroke="rgb(0, 0, 0)" stroke-linecap="butt" stroke-linejoin="round" stroke-opacity="1.0" stroke-width="3.0" />
            <path d=" M 802.534, 522.555 807.646, 520.646 808.160, 520.405 808.668, 520.058 809.164, 519.607 809.645, 519.059 810.107, 518.419 810.547, 517.692 810.961, 516.885 811.346, 516.005 811.699, 515.059 812.018, 514.053 812.300, 512.997 812.543, 511.897 812.745, 510.763 812.904, 509.603 822.497, 512.425 823.043, 512.585 824.116, 512.901 823.966, 513.631 823.685, 514.693 823.368, 515.704 823.066, 516.523 823.017, 516.655 822.635, 517.540 822.224, 518.351 821.788, 519.081 821.330, 519.725 820.853, 520.276 820.362, 520.729 819.859, 521.079 819.350, 521.321 813.412, 523.578 806.679, 526.136 806.127, 525.022 805.498, 524.097 805.177, 523.766 804.801, 523.377 804.047, 522.874 803.251, 522.597 802.534, 522.555 801.369, 522.487 800.126, 522.414 791.382, 521.902 790.547, 521.856 790.102, 521.953 790.090, 521.956 789.697, 522.041 788.845, 522.456 788.005, 523.093 787.228, 523.945 786.530, 524.998 785.888, 526.233 785.312, 527.628 784.813, 529.160 784.399, 530.803 784.078, 532.529 783.855, 534.307 783.733, 536.108 783.716, 537.901 790.088, 538.318 790.263, 538.330 794.952, 538.637 795.637, 538.682 800.217, 536.954 800.228, 536.383 800.279, 535.812 800.310, 535.626 800.371, 535.257 800.392, 535.171 800.499, 534.732 800.662, 534.253 800.853, 533.832 801.069, 533.481 801.302, 533.209 801.432, 533.111 801.547, 533.024 801.797, 532.931 802.045, 532.932 " fill="none" stroke="rgb(0, 0, 0)" stroke-linecap="butt" stroke-linejoin="round" stroke-opacity="1.0" stroke-width="3.0" />
            <path d=" M 774.644, 551.287 774.264, 560.799 773.625, 570.778 773.471, 573.197 772.594, 583.159 772.381, 585.578 771.267, 595.516 770.998, 597.920 769.646, 607.828 769.323, 610.200 767.732, 620.072 767.357, 622.396 765.526, 632.227 765.104, 634.488 763.030, 644.270 762.567, 646.452 760.247, 656.179 759.749, 658.266 757.178, 667.930 756.652, 669.908 753.826, 679.501 753.280, 681.356 750.195, 690.868 749.638, 692.586 746.286, 702.008 745.729, 703.575 742.103, 712.894 741.557, 714.298 737.651, 723.504 737.129, 724.733 732.932, 733.810 732.449, 734.856 727.953, 743.788 727.524, 744.641 722.717, 753.410 722.359, 754.062 717.231, 762.647 716.962, 763.096 711.501, 771.473 711.341, 771.717 705.504, 779.898 699.460, 787.612 693.219, 794.836 686.792, 801.541 680.190, 807.701 673.424, 813.290 666.510, 818.282 659.461, 822.651 652.293, 826.370 645.021, 829.417 637.664, 831.767 630.240, 833.397 622.769, 834.285 615.271, 834.412 610.692, 834.014 " fill="none" stroke="rgb(0, 0, 0)" stroke-linecap="butt" stroke-linejoin="round" stroke-opacity="1.0" stroke-width="3.0" />
            <path d=" M 790.263, 538.330 790.049, 548.327 789.951, 552.902 780.148, 550.926 779.267, 550.748 774.702, 549.828 766.409, 548.157 765.708, 548.016 765.006, 547.874 764.303, 547.733 763.599, 547.591 762.776, 547.294 761.990, 546.743 761.257, 545.949 760.593, 544.926 760.012, 543.694 759.523, 542.275 759.136, 540.697 758.860, 538.990 758.699, 537.186 758.695, 537.012 758.657, 535.320 758.734, 533.429 758.930, 531.549 759.151, 530.240 759.240, 529.716 759.658, 527.967 760.177, 526.334 760.785, 524.849 761.471, 523.541 762.060, 522.672 762.222, 522.434 763.022, 521.550 763.710, 520.905 764.398, 520.262 765.085, 519.619 765.771, 518.977 766.116, 518.656 773.426, 511.832 778.778, 506.837 786.088, 500.013 788.894, 497.394 789.512, 507.375 789.589, 508.621 789.827, 513.158 790.102, 521.953 " fill="none" stroke="rgb(0, 0, 0)" stroke-linecap="butt" stroke-linejoin="round" stroke-opacity="1.0" stroke-width="3.0" />
            <path d=" M 764.833, 537.415 764.513, 537.385 764.210, 537.206 763.937, 536.887 763.707, 536.442 763.531, 535.891 763.415, 535.258 763.366, 534.570 763.384, 533.857 763.471, 533.151 763.620, 532.482 763.826, 531.881 764.081, 531.373 764.372, 530.981 764.686, 530.722 765.011, 530.608 " fill="none" stroke="rgb(0, 0, 0)" stroke-linecap="butt" stroke-linejoin="round" stroke-opacity="1.0" stroke-width="3.0" />
            <path d=" M 765.011, 530.608 765.331, 530.642 765.634, 530.822 765.905, 531.142 766.134, 531.587 766.309, 532.136 766.424, 532.769 766.473, 533.455 766.454, 534.165 766.369, 534.868 766.220, 535.535 766.015, 536.135 765.762, 536.642 765.472, 537.035 765.158, 537.296 764.833, 537.415 " fill="none" stroke="rgb(0, 0, 0)" stroke-linecap="butt" stroke-linejoin="round" stroke-opacity="1.0" stroke-width="3.0" />
            <path d=" M 800.395, 535.631 800.400, 536.409 800.228, 546.408 800.175, 549.488 799.773, 559.480 799.648, 562.594 799.016, 572.574 798.818, 575.705 797.958, 585.668 797.688, 588.799 796.599, 598.739 796.258, 601.854 794.940, 611.767 794.531, 614.848 792.983, 624.728 792.508, 627.759 790.727, 637.600 790.190, 640.565 788.175, 650.360 787.582, 653.243 785.328, 662.986 784.684, 665.770 782.188, 675.454 781.499, 678.123 778.756, 687.739 778.031, 690.278 775.035, 699.819 774.283, 702.212 771.028, 711.668 770.259, 713.900 766.736, 723.259 765.962, 725.317 762.165, 734.568 761.397, 736.438 757.316, 745.568 756.570, 747.238 752.194, 756.230 751.484, 757.689 746.804, 766.526 746.148, 767.766 741.151, 776.428 740.567, 777.441 735.241, 785.905 734.748, 786.687 729.079, 794.925 728.700, 795.475 722.675, 803.456 722.432, 803.777 716.037, 811.466 715.953, 811.567 709.274, 818.813 702.406, 825.487 695.362, 831.560 688.156, 837.006 680.801, 841.792 673.314, 845.892 665.712, 849.279 658.012, 851.927 650.235, 853.808 642.400, 854.898 634.529, 855.176 626.647, 854.620 618.775, 853.208 610.941, 850.927 603.170, 847.762 595.490, 843.700 587.929, 838.734 580.515, 832.860 573.280, 826.077 566.534, 818.695 566.253, 818.387 560.052, 810.542 559.466, 809.800 553.796, 801.562 552.946, 800.328 547.792, 791.759 546.727, 789.989 542.963, 782.839 540.839, 778.803 540.394, 777.839 539.026, 774.868 535.310, 766.801 533.975, 763.480 532.635, 760.148 530.169, 754.014 527.239, 745.621 525.444, 740.479 524.783, 738.284 521.903, 728.708 521.161, 726.240 518.679, 716.553 517.345, 711.347 515.245, 701.569 514.017, 695.851 512.287, 686.002 511.199, 679.810 510.892, 677.600 509.519, 667.695 508.908, 663.287 507.881, 653.340 507.159, 646.349 506.469, 636.372 505.964, 629.063 503.476, 619.377 501.175, 610.421 " fill="none" stroke="rgb(0, 0, 0)" stroke-linecap="butt" stroke-linejoin="round" stroke-opacity="1.0" stroke-width="3.0" />
            <path d=" M 665.690, 279.258 657.706, 279.701 657.423, 279.747 649.627, 281.008 641.478, 283.194 633.284, 286.275 625.072, 290.264 616.869, 295.168 608.704, 300.990 601.020, 307.389 600.608, 307.732 593.387, 314.649 592.613, 315.391 585.851, 322.758 584.750, 323.957 578.438, 331.713 577.052, 333.416 571.179, 341.509 569.552, 343.751 568.647, 345.143 568.196, 345.837 562.748, 354.223 562.533, 354.555 562.284, 354.938 559.961, 358.921 558.344, 361.693 555.280, 366.947 552.997, 371.302 551.338, 374.469 548.573, 379.744 544.315, 388.792 542.198, 393.289 539.854, 398.843 536.184, 407.538 532.653, 416.894 530.561, 422.438 527.378, 431.918 525.359, 437.936 522.516, 447.524 520.605, 453.972 518.094, 463.652 516.323, 470.481 514.138, 480.240 512.535, 487.396 510.672, 497.220 509.263, 504.645 507.718, 514.525 506.943, 519.476 506.524, 522.156 505.294, 532.080 504.330, 539.853 503.415, 549.811 502.693, 557.658 502.093, 567.640 501.622, 575.495 501.340, 585.491 501.120, 593.285 501.152, 603.285 501.175, 610.421 499.852, 620.333 498.619, 629.568 " fill="none" stroke="rgb(0, 0, 0)" stroke-linecap="butt" stroke-linejoin="round" stroke-opacity="1.0" stroke-width="3.0" />
            <path d=" M 499.868, 647.409 500.906, 657.355 501.693, 664.888 503.079, 674.791 504.078, 681.931 505.823, 691.778 507.008, 698.470 507.278, 699.715 509.394, 709.489 510.467, 714.440 512.968, 724.122 514.429, 729.780 517.331, 739.349 518.873, 744.435 521.813, 752.788 523.773, 758.355 524.253, 759.539 528.011, 768.806 529.102, 771.496 529.962, 773.346 531.346, 776.325 534.829, 783.818 536.615, 787.178 538.023, 789.829 540.668, 794.805 540.925, 795.289 546.117, 803.835 547.359, 805.879 553.070, 814.087 554.099, 815.567 560.345, 823.376 561.113, 824.337 567.906, 831.675 568.369, 832.176 575.714, 838.962 575.837, 839.076 583.482, 845.036 591.276, 850.059 599.188, 854.149 607.189, 857.316 615.250, 859.573 623.344, 860.938 631.446, 861.426 639.531, 861.059 647.576, 859.861 655.557, 857.857 663.456, 855.070 671.251, 851.530 678.926, 847.264 686.462, 842.300 693.844, 836.667 701.058, 830.397 708.090, 823.518 714.847, 816.146 714.927, 816.059 721.305, 808.356 721.559, 808.049 727.570, 800.058 727.974, 799.520 733.631, 791.275 734.163, 790.500 739.480, 782.031 740.117, 781.016 745.107, 772.351 745.828, 771.099 750.505, 762.259 751.290, 760.775 755.663, 751.782 756.494, 750.072 760.575, 740.942 761.436, 739.016 765.234, 729.765 766.109, 727.634 769.634, 718.276 770.510, 715.953 773.769, 706.499 774.631, 703.997 777.632, 694.458 778.471, 691.791 781.220, 682.177 782.025, 679.361 784.528, 669.679 785.290, 666.729 787.550, 656.988 788.262, 653.920 790.284, 644.127 790.939, 640.957 792.726, 631.118 793.318, 627.863 794.873, 617.984 795.396, 614.660 796.720, 604.748 797.171, 601.373 798.266, 591.433 798.641, 588.022 799.507, 578.059 799.805, 574.630 800.442, 564.650 800.661, 561.220 801.067, 551.228 801.206, 547.814 801.380, 537.816 801.417, 535.697 " fill="none" stroke="rgb(0, 0, 0)" stroke-linecap="butt" stroke-linejoin="round" stroke-opacity="1.0" stroke-width="3.0" />
            <path d=" M 498.619, 629.568 499.317, 639.544 499.868, 647.409 " fill="none" stroke="rgb(0, 0, 0)" stroke-linecap="butt" stroke-linejoin="round" stroke-opacity="1.0" stroke-width="3.0" />
            <path d=" M 815.148, 414.014 813.792, 407.106 811.630, 397.342 811.365, 396.141 808.960, 386.434 808.699, 385.378 806.045, 375.737 805.797, 374.833 802.886, 365.266 802.659, 364.520 799.482, 355.038 799.287, 354.456 795.834, 345.071 795.682, 344.659 791.940, 335.385 791.845, 335.148 787.775, 325.943 783.476, 317.065 778.947, 308.535 774.195, 300.369 769.221, 292.585 764.031, 285.202 758.628, 278.240 753.016, 271.719 747.201, 265.663 741.188, 260.095 734.983, 255.039 728.593, 250.516 722.028, 246.542 715.295, 243.136 708.404, 240.316 701.366, 238.101 694.192, 236.513 686.894, 235.571 679.484, 235.297 671.978, 235.712 671.748, 235.746 664.389, 236.828 656.734, 238.654 649.029, 241.201 641.291, 244.478 633.539, 248.495 625.793, 253.261 618.073, 258.782 610.400, 265.065 606.273, 268.890 602.799, 272.111 595.864, 279.315 595.289, 279.913 588.746, 287.475 587.893, 288.461 587.291, 289.230 581.131, 297.107 580.633, 297.744 578.171, 301.214 573.532, 307.750 568.108, 316.151 566.615, 318.463 565.020, 321.173 564.505, 322.048 560.398, 329.028 559.905, 329.865 557.806, 333.776 556.226, 336.721 553.427, 341.938 550.888, 347.130 549.281, 350.417 547.207, 354.658 543.139, 363.793 543.066, 363.955 541.268, 367.994 538.012, 376.030 535.629, 381.911 532.178, 391.296 530.312, 396.370 527.157, 405.860 525.336, 411.333 522.469, 420.913 520.721, 426.757 518.137, 436.417 516.484, 442.597 514.180, 452.328 512.645, 458.808 510.618, 468.601 509.222, 475.341 507.468, 485.186 506.229, 492.144 504.743, 502.033 503.673, 509.160 502.453, 519.085 502.403, 519.492 501.563, 526.335 500.610, 536.289 499.909, 543.613 499.223, 553.590 498.717, 560.938 498.299, 570.929 497.993, 578.252 497.843, 588.251 497.735, 595.499 497.857, 605.499 497.945, 612.623 498.342, 622.615 498.619, 629.568 499.296, 639.545 499.753, 646.280 499.868, 647.409 500.827, 657.363 501.342, 662.706 502.595, 672.627 503.374, 678.796 504.926, 688.675 505.841, 694.501 507.058, 700.931 508.731, 709.775 510.906, 719.536 512.029, 724.575 514.531, 734.257 515.720, 738.862 518.558, 748.451 519.786, 752.599 521.044, 756.338 523.395, 763.330 524.210, 765.752 527.765, 775.098 528.932, 778.168 528.977, 778.285 530.253, 781.266 534.066, 790.171 535.428, 793.005 536.775, 795.809 539.389, 801.250 539.456, 801.390 544.194, 810.196 545.123, 811.922 550.284, 820.487 551.047, 821.752 556.645, 830.038 557.205, 830.866 563.255, 838.828 563.577, 839.251 570.143, 846.897 576.882, 853.796 583.773, 859.945 590.793, 865.348 597.921, 870.011 605.136, 873.942 612.419, 877.148 619.752, 879.638 625.325, 880.987 627.116, 881.420 634.495, 882.504 641.873, 882.901 649.233, 882.626 656.560, 881.701 663.838, 880.144 671.054, 877.977 678.196, 875.216 685.251, 871.880 692.208, 867.985 699.057, 863.549 705.787, 858.588 712.389, 853.126 718.854, 847.186 725.175, 840.790 731.345, 833.957 737.356, 826.709 743.203, 819.062 748.878, 811.034 754.377, 802.641 759.574, 794.097 759.693, 793.901 764.618, 785.198 764.823, 784.836 769.486, 775.989 769.763, 775.464 774.174, 766.490 774.510, 765.806 778.676, 756.715 779.060, 755.878 782.989, 746.683 783.410, 745.698 787.109, 736.407 787.557, 735.280 791.031, 725.903 791.498, 724.640 794.750, 715.183 795.229, 713.792 798.265, 704.264 798.747, 702.751 801.573, 693.159 802.051, 691.537 804.672, 681.886 805.141, 680.163 807.562, 670.460 808.014, 668.646 810.238, 658.896 810.670, 657.000 812.699, 647.208 813.107, 645.239 814.942, 635.408 815.321, 633.376 816.964, 623.512 817.312, 621.425 818.763, 611.531 819.076, 609.400 820.339, 599.480 820.615, 597.316 821.691, 587.374 821.928, 585.186 822.817, 575.226 823.014, 573.025 823.715, 563.049 823.870, 560.844 824.384, 550.857 824.497, 548.659 824.821, 538.664 824.892, 536.482 825.012, 527.627 " fill="none" stroke="rgb(0, 0, 0)" stroke-linecap="butt" stroke-linejoin="round" stroke-opacity="1.0" stroke-width="3.0" />
            <path d=" M 669.744, 235.857 662.145, 236.972 654.480, 238.798 646.765, 241.343 639.018, 244.618 631.257, 248.633 623.501, 253.394 615.772, 258.910 608.091, 265.188 604.663, 268.359 600.481, 272.227 593.539, 279.425 592.964, 280.021 586.413, 287.577 585.560, 288.561 581.766, 293.403 578.293, 297.835 572.498, 305.985 571.325, 307.635 571.186, 307.831 565.754, 316.227 564.492, 318.177 564.262, 318.532 563.963, 319.040 560.068, 325.646 557.546, 329.923 557.443, 330.114 555.874, 333.032 551.139, 341.840 551.063, 341.982 550.490, 343.151 548.905, 346.387 544.838, 354.688 540.763, 363.820 538.894, 368.010 537.556, 371.308 533.795, 380.573 533.252, 381.911 531.854, 385.707 528.397, 395.090 527.932, 396.355 524.771, 405.842 522.953, 411.300 520.081, 420.879 518.335, 426.707 515.747, 436.366 514.096, 442.529 511.788, 452.259 510.256, 458.722 508.225, 468.513 506.832, 475.235 505.076, 485.080 503.838, 492.019 502.351, 501.907 501.282, 509.015 500.062, 518.940 499.983, 519.582 499.173, 526.170 498.219, 536.125 497.520, 543.429 496.834, 553.405 496.330, 560.734 495.912, 570.725 495.607, 578.028 495.459, 588.027 495.352, 595.256 495.476, 605.255 495.565, 612.361 495.964, 622.353 496.242, 629.287 496.923, 639.264 497.381, 645.980 498.347, 655.933 498.973, 662.388 500.231, 672.309 501.011, 678.461 502.567, 688.339 503.483, 694.150 505.347, 703.975 505.940, 707.100 506.378, 709.408 508.559, 719.167 509.682, 724.193 512.190, 733.874 513.379, 738.466 516.224, 748.052 517.452, 752.189 520.185, 760.296 521.883, 765.330 522.534, 767.037 526.096, 776.380 526.657, 777.851 528.201, 781.450 529.528, 784.541 531.754, 789.727 534.779, 796.009 536.129, 798.814 537.152, 800.936 538.805, 804.002 542.827, 811.460 547.997, 820.020 548.759, 821.283 554.366, 829.563 554.926, 830.390 560.985, 838.346 561.307, 838.770 567.882, 846.411 574.630, 853.306 581.531, 859.452 588.561, 864.853 595.699, 869.516 602.924, 873.446 610.217, 876.653 617.559, 879.144 624.933, 880.929 " fill="none" stroke="rgb(0, 0, 0)" stroke-linecap="butt" stroke-linejoin="round" stroke-opacity="1.0" stroke-width="3.0" />
            <path d=" M 671.978, 235.712 669.744, 235.857 " fill="none" stroke="rgb(0, 0, 0)" stroke-linecap="butt" stroke-linejoin="round" stroke-opacity="1.0" stroke-width="3.0" />
            <path d=" M 624.933, 880.929 627.116, 881.420 " fill="none" stroke="rgb(0, 0, 0)" stroke-linecap="butt" stroke-linejoin="round" stroke-opacity="1.0" stroke-width="3.0" />
            <path d=" M 480.501, 631.211 481.197, 641.187 481.836, 650.348 482.822, 660.299 483.698, 669.144 484.979, 679.061 486.075, 687.538 487.660, 697.411 488.954, 705.472 490.851, 715.291 492.320, 722.892 494.539, 732.643 496.156, 739.747 497.668, 745.478 499.469, 752.299 500.442, 755.990 503.338, 765.561 505.158, 771.576 505.343, 772.112 508.596, 781.568 510.282, 786.468 510.938, 788.152 512.247, 791.518 514.401, 797.056 514.411, 797.083 515.618, 800.185 515.791, 800.630 519.803, 809.790 520.714, 811.871 521.660, 814.031 521.998, 814.718 523.746, 818.271 525.060, 820.942 527.705, 826.321 527.865, 826.645 529.057, 828.805 529.247, 829.150 531.970, 834.084 534.379, 838.451 539.645, 846.952 541.178, 849.429 546.892, 857.636 548.236, 859.566 554.410, 867.432 555.525, 868.853 562.171, 876.326 563.021, 877.282 570.142, 884.303 570.698, 884.851 578.293, 891.357 578.531, 891.561 586.495, 897.414 594.567, 902.418 602.723, 906.581 610.940, 909.915 619.199, 912.433 623.529, 913.472 631.785, 915.184 640.041, 916.112 648.278, 916.274 656.480, 915.689 664.630, 914.380 672.711, 912.367 680.709, 909.673 688.612, 906.321 696.405, 902.334 704.077, 897.737 711.617, 892.552 719.015, 886.803 726.261, 880.514 733.348, 873.708 740.266, 866.409 746.820, 858.856 747.009, 858.639 753.248, 850.824 753.569, 850.421 759.503, 842.372 759.942, 841.776 765.581, 833.518 766.121, 832.728 771.476, 824.282 772.102, 823.296 777.182, 814.683 777.879, 813.501 782.695, 804.737 783.449, 803.365 788.009, 794.465 788.808, 792.906 793.121, 783.883 793.953, 782.143 798.027, 773.011 798.880, 771.097 802.722, 761.864 803.588, 759.784 807.204, 750.460 808.072, 748.222 811.469, 738.817 812.331, 736.430 815.515, 726.951 816.364, 724.424 819.339, 714.877 820.167, 712.220 822.939, 702.612 823.740, 699.835 826.312, 690.171 827.081, 687.284 829.456, 677.570 830.187, 674.582 832.370, 664.823 833.059, 661.746 835.052, 651.946 835.694, 648.789 837.499, 638.953 838.091, 635.726 839.711, 625.858 840.250, 622.572 841.685, 612.675 842.169, 609.340 843.421, 599.419 843.846, 596.045 844.916, 586.103 845.282, 582.701 846.169, 572.741 846.474, 569.321 847.180, 559.346 847.422, 555.920 847.946, 545.934 848.125, 542.510 848.466, 532.516 848.582, 529.107 848.738, 519.108 848.791, 515.723 848.763, 505.723 848.753, 502.372 848.536, 492.375 848.465, 489.069 848.059, 479.078 847.927, 475.828 847.329, 465.846 847.138, 462.664 846.344, 452.695 846.097, 449.590 845.104, 439.640 844.803, 436.623 843.607, 426.695 843.255, 423.776 841.851, 413.875 841.453, 411.067 839.836, 401.198 839.395, 398.510 837.559, 388.680 837.082, 386.122 835.021, 376.337 834.512, 373.920 832.219, 364.187 831.685, 361.921 829.153, 352.247 828.602, 350.143 825.821, 340.538 825.261, 338.604 822.223, 329.076 821.663, 327.322 818.358, 317.884 817.809, 316.317 814.225, 306.981 813.698, 305.608 809.826, 296.388 809.333, 295.216 805.158, 286.129 804.714, 285.161 800.224, 276.226 799.842, 275.465 795.024, 266.703 794.720, 266.150 789.559, 257.585 789.350, 257.239 783.831, 248.899 783.735, 248.753 777.878, 240.716 771.784, 233.153 765.457, 226.088 758.902, 219.544 752.126, 213.547 745.136, 208.121 737.938, 203.292 730.543, 199.084 722.958, 195.523 715.195, 192.633 707.266, 190.437 699.183, 188.961 690.959, 188.225 682.610, 188.252 678.189, 188.629 669.707, 189.442 661.134, 191.056 652.487, 193.489 643.787, 196.757 635.054, 200.873 626.309, 205.849 617.999, 211.410 617.577, 211.693 609.664, 217.807 608.882, 218.411 601.373, 225.016 600.247, 226.007 593.146, 233.047 591.701, 234.480 585.002, 241.904 583.268, 243.826 576.964, 251.589 576.167, 252.572 574.977, 254.037 569.060, 262.099 566.855, 265.103 561.314, 273.427 558.931, 277.006 556.876, 280.403 556.211, 281.502 555.315, 282.983 552.664, 287.365 552.555, 287.545 552.245, 288.058 551.234, 289.728 551.001, 290.151 547.953, 295.688 546.412, 298.487 545.399, 300.326 543.832, 303.171 543.792, 303.245 539.311, 312.184 537.683, 315.431 536.632, 317.527 536.156, 318.572 532.334, 326.951 529.784, 332.542 525.957, 341.780 523.358, 348.051 523.275, 348.253 519.760, 357.615 517.130, 364.619 513.919, 374.089 511.375, 381.593 508.462, 391.159 506.036, 399.127 503.413, 408.777 501.133, 417.168 498.796, 426.891 496.688, 435.658 496.154, 438.199 494.139, 447.790 492.721, 454.539 490.942, 464.380 489.248, 473.748 487.743, 483.634 486.284, 493.220 485.051, 503.144 484.529, 507.344 484.156, 510.354 483.841, 512.889 483.481, 516.617 483.188, 519.646 483.187, 519.662 483.180, 519.734 483.169, 519.844 482.208, 529.797 481.929, 532.687 481.239, 542.663 480.556, 552.546 480.138, 562.537 479.726, 572.396 479.582, 582.395 479.441, 592.169 479.573, 602.168 479.701, 611.796 479.933, 617.439 480.345, 627.430 480.501, 631.211 " fill="none" stroke="rgb(0, 0, 0)" stroke-linecap="butt" stroke-linejoin="round" stroke-opacity="1.0" stroke-width="3.0" />
            <path d=" M 682.610, 188.252 674.151, 189.063 665.600, 190.677 656.976, 193.112 648.297, 196.383 639.585, 200.504 630.861, 205.486 622.561, 211.063 622.149, 211.340 614.247, 217.469 613.473, 218.069 605.977, 224.689 604.857, 225.679 597.769, 232.733 596.328, 234.167 589.643, 241.604 587.912, 243.530 581.624, 251.306 579.637, 253.762 579.054, 254.559 573.152, 262.632 571.531, 264.849 566.004, 273.183 563.621, 276.777 558.459, 285.341 558.145, 285.862 557.497, 286.938 556.112, 289.235 555.937, 289.525 553.421, 294.112 551.882, 296.918 548.507, 303.070 546.361, 307.367 544.817, 310.458 541.359, 317.383 537.222, 326.487 534.521, 332.431 533.458, 335.004 529.642, 344.247 528.020, 348.177 524.525, 357.517 521.883, 364.579 518.682, 374.053 516.135, 381.592 513.230, 391.161 510.801, 399.166 508.186, 408.818 505.902, 417.248 503.572, 426.972 501.461, 435.781 499.410, 445.568 497.495, 454.705 495.720, 464.546 494.699, 470.212 494.023, 473.958 492.521, 483.844 491.649, 489.587 491.059, 493.475 490.635, 496.893 489.405, 506.817 489.330, 507.422 488.778, 511.869 488.763, 511.995 488.615, 513.189 488.276, 516.701 487.982, 519.747 487.964, 519.929 487.899, 520.603 486.939, 530.557 486.700, 533.033 486.480, 536.219 485.790, 546.195 485.324, 552.938 484.905, 562.929 484.489, 572.833 484.342, 582.832 484.198, 592.651 484.327, 602.650 484.451, 612.323 484.858, 622.314 484.976, 625.218 485.244, 631.781 485.934, 641.757 486.570, 650.960 487.548, 660.912 488.422, 669.797 489.656, 679.411 490.333, 684.680 490.788, 688.231 492.364, 698.106 493.656, 706.203 495.543, 716.023 497.010, 723.659 499.217, 733.412 499.863, 736.265 500.832, 740.548 503.371, 750.220 505.104, 756.823 507.987, 766.398 509.806, 772.439 513.045, 781.900 514.088, 784.947 514.914, 787.359 516.259, 790.834 517.186, 793.229 520.406, 801.546 522.310, 805.914 523.599, 808.872 526.258, 814.970 529.088, 820.750 530.412, 823.454 532.445, 827.606 533.209, 828.997 538.024, 837.761 538.941, 839.430 544.190, 847.941 545.721, 850.424 551.418, 858.642 552.759, 860.576 558.918, 868.454 560.028, 869.874 566.659, 877.359 567.504, 878.312 574.612, 885.346 575.160, 885.889 582.744, 892.407 582.972, 892.603 590.914, 898.459 598.964, 903.464 607.098, 907.627 615.293, 910.958 623.529, 913.472 " fill="none" stroke="rgb(0, 0, 0)" stroke-linecap="butt" stroke-linejoin="round" stroke-opacity="1.0" stroke-width="3.0" />
            <path d=" M 730.114, 518.313 729.244, 518.265 728.359, 518.443 727.474, 518.843 726.604, 519.461 726.166, 519.910 725.798, 520.288 725.119, 521.245 725.072, 521.311 724.406, 522.511 723.810, 523.868 723.295, 525.359 722.870, 526.958 722.680, 527.938 722.543, 528.638 722.319, 530.370 722.302, 530.626 722.202, 532.125 722.194, 533.871 " fill="none" stroke="rgb(0, 0, 0)" stroke-linecap="butt" stroke-linejoin="round" stroke-opacity="1.0" stroke-width="3.0" />
            <path d=" M 728.938, 528.332 729.192, 528.426 729.431, 528.608 729.647, 528.874 729.836, 529.216 729.992, 529.624 730.111, 530.089 730.189, 530.597 730.225, 531.134 " fill="none" stroke="rgb(0, 0, 0)" stroke-linecap="butt" stroke-linejoin="round" stroke-opacity="1.0" stroke-width="3.0" />
            <path d=" M 727.120, 530.935 730.225, 531.134 739.690, 527.907 748.988, 524.738 " fill="none" stroke="rgb(0, 0, 0)" stroke-linecap="butt" stroke-linejoin="round" stroke-opacity="1.0" stroke-width="3.0" />
            <path d=" M 803.251, 522.597 802.528, 522.557 802.424, 522.552 801.580, 522.739 800.734, 523.156 800.554, 523.294 799.901, 523.797 799.130, 524.653 798.489, 525.634 798.482, 525.644 798.438, 525.713 797.800, 526.954 797.229, 528.356 796.733, 529.897 796.321, 531.548 796.134, 532.560 796.001, 533.282 795.778, 535.070 795.760, 535.334 795.656, 536.880 795.637, 538.682 " fill="none" stroke="rgb(0, 0, 0)" stroke-linecap="butt" stroke-linejoin="round" stroke-opacity="1.0" stroke-width="3.0" />
            <path d=" M 802.045, 532.932 802.284, 533.027 802.508, 533.214 802.711, 533.486 802.887, 533.838 803.032, 534.259 803.141, 534.737 803.212, 535.260 803.242, 535.813 " fill="none" stroke="rgb(0, 0, 0)" stroke-linecap="butt" stroke-linejoin="round" stroke-opacity="1.0" stroke-width="3.0" />
            <path d=" M 781.546, 483.920 781.704, 483.890 781.865, 483.884 782.084, 483.916 782.296, 483.994 782.493, 484.114 782.667, 484.272 782.812, 484.461 782.923, 484.678 782.996, 484.916 783.025, 485.170 783.008, 485.407 782.950, 485.634 782.851, 485.841 782.717, 486.022 782.552, 486.168 782.360, 486.276 782.146, 486.341 " fill="none" stroke="rgb(0, 0, 0)" stroke-linecap="butt" stroke-linejoin="round" stroke-opacity="1.0" stroke-width="3.0" />
            <path d=" M 781.546, 483.920 781.404, 483.971 781.196, 484.080 781.015, 484.229 780.988, 484.253 780.834, 484.439 780.720, 484.654 780.649, 484.890 780.627, 485.143 780.655, 485.381 780.730, 485.609 780.741, 485.640 780.858, 485.847 781.013, 486.026 781.202, 486.172 781.235, 486.190 781.442, 486.291 781.483, 486.303 781.691, 486.355 781.720, 486.359 781.757, 486.363 781.800, 486.366 781.849, 486.367 781.900, 486.367 781.951, 486.366 781.999, 486.363 782.045, 486.359 782.085, 486.354 782.119, 486.348 782.146, 486.341 " fill="none" stroke="rgb(0, 0, 0)" stroke-linecap="butt" stroke-linejoin="round" stroke-opacity="1.0" stroke-width="3.0" />
            <path d=" M 778.993, 481.909 779.119, 488.084 782.835, 488.250 784.790, 488.337 785.444, 487.974 784.816, 482.103 782.271, 481.950 779.425, 481.779 778.993, 481.909 " fill="none" stroke="rgb(0, 0, 0)" stroke-linecap="butt" stroke-linejoin="round" stroke-opacity="1.0" stroke-width="3.0" />
            <path d=" M 784.790, 488.337 784.669, 482.148 " fill="none" stroke="rgb(0, 0, 0)" stroke-linecap="butt" stroke-linejoin="round" stroke-opacity="1.0" stroke-width="3.0" />
            <path d=" M 784.816, 482.103 784.669, 482.148 778.993, 481.909 " fill="none" stroke="rgb(0, 0, 0)" stroke-linecap="butt" stroke-linejoin="round" stroke-opacity="1.0" stroke-width="3.0" />
            <path d=" M 739.515, 515.440 739.260, 515.430 729.264, 515.154 727.755, 515.112 717.756, 514.928 716.266, 514.901 706.266, 514.801 704.789, 514.786 694.789, 514.762 693.319, 514.758 683.319, 514.801 681.851, 514.808 671.852, 514.911 670.381, 514.926 660.382, 515.081 658.903, 515.104 648.905, 515.304 647.412, 515.334 637.415, 515.571 635.905, 515.607 625.909, 515.873 624.377, 515.914 614.381, 516.203 612.822, 516.248 602.826, 516.552 601.236, 516.601 591.241, 516.914 589.616, 516.965 579.621, 517.280 577.955, 517.332 578.082, 507.333 578.140, 502.745 578.151, 492.745 578.156, 488.168 578.052, 478.168 578.004, 473.621 577.783, 463.623 577.683, 459.123 577.343, 449.129 577.192, 444.693 576.731, 434.704 576.530, 430.351 575.947, 420.368 575.698, 416.116 574.989, 406.141 574.695, 402.009 573.855, 392.045 573.519, 388.053 572.690, 379.575 " fill="none" stroke="rgb(0, 0, 0)" stroke-linecap="butt" stroke-linejoin="round" stroke-opacity="1.0" stroke-width="3.0" />
            <path d=" M 539.472, 216.198 537.811, 213.939 533.694, 208.340 531.846, 205.545 528.661, 200.729 527.142, 198.433 " fill="none" stroke="rgb(0, 0, 0)" stroke-linecap="butt" stroke-linejoin="round" stroke-opacity="1.0" stroke-width="3.0" />
            <path d=" M 576.167, 252.572 574.888, 251.692 567.066, 245.462 566.538, 245.041 559.140, 238.312 558.478, 237.709 551.509, 230.537 551.074, 230.089 550.722, 229.727 550.397, 229.351 546.156, 224.446 545.157, 223.291 543.283, 221.124 541.632, 218.990 541.039, 218.224 540.629, 217.693 539.472, 216.198 537.845, 214.096 536.167, 211.927 " fill="none" stroke="rgb(0, 0, 0)" stroke-linecap="butt" stroke-linejoin="round" stroke-opacity="1.0" stroke-width="3.0" />
            <path d=" M 527.142, 198.433 522.924, 191.838 520.795, 188.979 518.561, 185.980 516.940, 184.149 514.060, 180.897 509.428, 176.631 504.673, 173.225 503.529, 172.635 500.680, 171.167 499.805, 170.716 494.835, 169.144 489.774, 168.549 484.637, 168.968 479.436, 170.436 474.188, 172.982 473.350, 173.562 472.065, 174.453 468.909, 176.640 466.455, 178.863 463.618, 181.434 458.334, 187.385 454.476, 192.613 453.636, 193.752 453.078, 194.507 448.006, 202.602 447.873, 202.815 443.118, 211.612 442.739, 212.312 438.474, 221.357 437.702, 222.995 433.872, 232.232 432.785, 234.853 429.345, 244.242 428.015, 247.872 424.923, 257.383 423.414, 262.025 420.640, 271.632 419.010, 277.275 416.526, 286.962 414.828, 293.581 412.611, 303.332 410.892, 310.892 408.923, 320.696 407.226, 329.144 405.489, 338.992 403.852, 348.268 402.335, 358.152 400.794, 368.187 399.485, 378.101 398.176, 388.015 398.071, 388.813 396.962, 398.751 395.852, 408.690 395.700, 410.053 394.783, 420.011 393.867, 429.968 393.698, 431.805 392.969, 441.778 392.239, 451.752 392.078, 453.965 391.532, 463.950 390.986, 473.936 390.850, 476.425 390.485, 486.418 390.120, 496.412 390.023, 499.070 389.837, 509.068 389.652, 519.066 389.602, 521.784 389.631, 521.826 395.251, 529.776 396.808, 531.880 400.990, 537.530 406.820, 545.056 412.743, 552.366 418.759, 559.467 424.870, 566.370 431.077, 573.082 437.382, 579.613 443.785, 585.970 450.290, 592.162 456.897, 598.196 463.607, 604.080 470.423, 609.821 477.347, 615.425 479.933, 617.439 " fill="none" stroke="rgb(0, 0, 0)" stroke-linecap="butt" stroke-linejoin="round" stroke-opacity="1.0" stroke-width="3.0" />
            <path d=" M 359.820, 512.370 355.529, 521.403 353.169, 526.371 " fill="none" stroke="rgb(0, 0, 0)" stroke-linecap="butt" stroke-linejoin="round" stroke-opacity="1.0" stroke-width="3.0" />
            <path d=" M 473.350, 173.562 465.176, 173.864 " fill="none" stroke="rgb(0, 0, 0)" stroke-linecap="butt" stroke-linejoin="round" stroke-opacity="1.0" stroke-width="3.0" />
            <path d=" M 534.146, 484.160 534.164, 484.171 " fill="none" stroke="rgb(0, 0, 0)" stroke-linecap="butt" stroke-linejoin="round" stroke-opacity="1.0" stroke-width="3.0" />
            <path d=" M 534.253, 484.206 534.311, 484.229 " fill="none" stroke="rgb(0, 0, 0)" stroke-linecap="butt" stroke-linejoin="round" stroke-opacity="1.0" stroke-width="3.0" />
            <path d=" M 545.157, 223.291 541.632, 218.990 " fill="none" stroke="rgb(0, 0, 0)" stroke-linecap="butt" stroke-linejoin="round" stroke-opacity="1.0" stroke-width="3.0" />
            <path d=" M 551.074, 230.089 550.397, 229.351 " fill="none" stroke="rgb(0, 0, 0)" stroke-linecap="butt" stroke-linejoin="round" stroke-opacity="1.0" stroke-width="3.0" />
        </g>
    </g>
</svg>
