<?xml version='1.0' encoding='ascii'?>
<svg xmlns="http://www.w3.org/2000/svg" height="1080" version="1.1" width="1080">
    <g id="View Layer_LineSet" inkscape:groupmode="lineset" inkscape:label="View Layer_LineSet" xmlns:inkscape="http://www.inkscape.org/namespaces/inkscape">
        <g id="strokes" inkscape:groupmode="layer" inkscape:label="strokes" xmlns:inkscape="http://www.inkscape.org/namespaces/inkscape">
            <path d=" M 565.292, 504.584 565.228, 505.711 565.147, 506.807 565.047, 507.859 564.955, 508.642 " fill="none" stroke="rgb(0, 0, 0)" stroke-linecap="butt" stroke-linejoin="round" stroke-opacity="1.0" stroke-width="3.0" />
            <path d=" M 353.551, 503.959 359.932, 503.811 " fill="none" stroke="rgb(0, 0, 0)" stroke-linecap="butt" stroke-linejoin="round" stroke-opacity="1.0" stroke-width="3.0" />
            <path d=" M 377.887, 504.097 387.880, 504.465 389.923, 504.541 " fill="none" stroke="rgb(0, 0, 0)" stroke-linecap="butt" stroke-linejoin="round" stroke-opacity="1.0" stroke-width="3.0" />
            <path d=" M 389.923, 504.541 386.031, 495.329 382.138, 486.118 381.212, 483.927 " fill="none" stroke="rgb(0, 0, 0)" stroke-linecap="butt" stroke-linejoin="round" stroke-opacity="1.0" stroke-width="3.0" />
            <path d=" M 467.773, 165.659 463.277, 166.023 458.722, 167.465 454.121, 170.020 449.490, 173.722 444.845, 178.595 440.203, 184.662 439.923, 185.104 438.766, 186.928 435.583, 191.944 431.006, 200.452 426.799, 209.524 426.491, 210.188 422.744, 219.460 422.061, 221.152 418.716, 230.576 417.737, 233.335 414.746, 242.877 413.543, 246.716 410.867, 256.352 409.501, 261.268 407.108, 270.978 405.635, 276.954 403.500, 286.723 401.969, 293.728 400.069, 303.546 398.524, 311.532 396.842, 321.390 395.322, 330.300 393.844, 340.190 392.385, 349.957 391.099, 359.874 389.814, 369.791 389.732, 370.418 388.629, 380.357 387.525, 390.296 387.381, 391.590 386.451, 401.547 385.522, 411.504 385.347, 413.372 384.586, 423.343 383.824, 433.314 383.646, 435.658 383.047, 445.640 382.449, 455.623 382.287, 458.335 381.848, 468.326 381.410, 478.316 381.280, 481.286 381.212, 483.927 379.586, 493.793 377.959, 503.660 377.887, 504.097 " fill="none" stroke="rgb(0, 0, 0)" stroke-linecap="butt" stroke-linejoin="round" stroke-opacity="1.0" stroke-width="3.0" />
            <path d=" M 530.685, 721.398 531.320, 717.939 532.982, 708.078 533.121, 707.248 533.460, 705.238 534.984, 695.355 535.463, 692.244 536.857, 682.342 537.330, 678.982 538.601, 669.063 539.060, 665.476 540.214, 655.543 540.654, 651.751 541.696, 641.806 542.113, 637.831 543.047, 627.874 543.435, 623.736 544.265, 613.770 544.621, 609.488 545.350, 599.514 545.672, 595.109 546.303, 585.129 546.588, 580.619 547.123, 570.633 547.369, 566.037 547.810, 556.047 548.016, 551.384 548.363, 541.390 548.527, 536.678 548.783, 526.682 548.904, 521.939 555.429, 522.036 557.276, 522.063 557.378, 522.065 559.162, 522.091 562.734, 522.144 563.569, 522.156 564.521, 522.170 567.084, 522.208 577.083, 522.356 577.870, 522.367 578.044, 512.369 578.127, 507.535 578.184, 497.535 578.211, 492.702 578.150, 482.702 578.121, 477.888 577.942, 467.890 577.856, 463.113 577.557, 453.118 577.416, 448.398 576.996, 438.406 576.800, 433.762 576.256, 423.777 576.008, 419.226 575.338, 409.249 575.040, 404.813 574.239, 394.845 573.894, 390.544 573.516, 386.518 " fill="none" stroke="rgb(0, 0, 0)" stroke-linecap="butt" stroke-linejoin="round" stroke-opacity="1.0" stroke-width="3.0" />
            <path d=" M 570.532, 391.506 570.940, 395.816 571.749, 405.783 572.048, 409.465 572.726, 419.442 572.985, 423.258 573.535, 433.243 573.751, 437.175 574.176, 447.166 574.347, 451.192 574.650, 461.188 574.774, 465.290 574.956, 475.288 575.032, 479.448 575.094, 489.447 575.121, 493.645 575.065, 503.644 575.042, 507.861 575.023, 508.958 574.935, 509.648 574.839, 510.300 574.736, 510.912 574.625, 511.481 574.509, 512.003 574.387, 512.476 574.260, 512.896 574.128, 513.263 573.993, 513.573 573.856, 513.825 573.716, 514.018 573.575, 514.151 573.434, 514.222 573.293, 514.232 569.278, 513.627 569.118, 512.409 568.931, 511.335 568.718, 510.425 568.484, 509.694 568.232, 509.155 567.967, 508.817 567.693, 508.687 567.307, 508.680 565.249, 508.647 564.955, 508.642 564.742, 508.639 563.791, 508.624 562.955, 508.610 559.383, 508.552 557.598, 508.524 557.497, 508.522 557.308, 508.519 557.018, 508.599 556.729, 508.888 556.445, 509.382 556.171, 510.074 555.912, 510.952 555.672, 512.002 555.592, 512.446 555.456, 513.206 555.266, 514.543 555.107, 515.992 554.982, 517.527 554.892, 519.122 554.838, 520.750 555.450, 520.820 556.519, 520.945 557.295, 520.958 557.396, 520.960 557.629, 520.964 559.181, 520.992 562.752, 521.055 563.588, 521.070 564.539, 521.087 565.030, 521.096 566.923, 521.129 566.941, 520.615 566.974, 520.116 567.019, 519.647 567.077, 519.220 567.142, 518.862 567.144, 518.847 567.221, 518.539 567.304, 518.303 567.391, 518.146 567.480, 518.072 " fill="none" stroke="rgb(0, 0, 0)" stroke-linecap="butt" stroke-linejoin="round" stroke-opacity="1.0" stroke-width="3.0" />
            <path d=" M 567.991, 521.258 574.795, 522.078 577.870, 522.367 " fill="none" stroke="rgb(0, 0, 0)" stroke-linecap="butt" stroke-linejoin="round" stroke-opacity="1.0" stroke-width="3.0" />
            <path d=" M 387.361, 235.457 384.639, 245.079 384.110, 246.948 381.673, 256.646 380.489, 261.355 378.307, 271.114 377.013, 276.901 375.061, 286.709 373.701, 293.543 371.959, 303.390 370.574, 311.225 369.025, 321.105 367.650, 329.884 366.282, 339.790 364.948, 349.450 363.750, 359.378 362.551, 369.306 362.487, 369.840 361.448, 379.786 360.410, 389.732 360.281, 390.964 359.396, 400.925 358.510, 410.885 358.347, 412.724 357.608, 422.697 356.870, 432.669 356.696, 435.017 356.101, 444.999 355.505, 454.981 355.341, 457.731 354.885, 467.721 354.429, 477.710 354.291, 480.751 353.972, 490.746 353.654, 500.741 353.551, 503.959 353.415, 513.959 353.278, 523.958 353.234, 527.158 353.257, 537.158 353.279, 547.158 353.286, 550.276 353.469, 560.274 353.652, 570.273 353.706, 573.193 354.052, 583.187 354.398, 593.181 354.489, 595.791 355.003, 605.778 355.517, 615.764 355.629, 617.954 356.316, 627.930 357.004, 637.906 357.118, 639.572 357.986, 649.535 358.854, 659.497 358.945, 660.544 360.004, 670.488 361.062, 680.432 361.098, 680.772 362.358, 690.692 363.561, 700.167 365.036, 710.058 366.317, 718.652 368.024, 728.505 369.349, 736.156 371.309, 745.962 371.835, 748.598 " fill="none" stroke="rgb(0, 0, 0)" stroke-linecap="butt" stroke-linejoin="round" stroke-opacity="1.0" stroke-width="3.0" />
            <path d=" M 522.792, 539.351 522.419, 549.344 522.410, 549.605 521.929, 559.594 521.733, 563.677 521.143, 573.660 520.905, 577.677 520.203, 587.652 519.927, 591.585 519.112, 601.551 518.799, 605.380 517.868, 615.337 517.521, 619.044 516.909, 624.836 " fill="none" stroke="rgb(0, 0, 0)" stroke-linecap="butt" stroke-linejoin="round" stroke-opacity="1.0" stroke-width="3.0" />
            <path d=" M 496.478, 744.042 493.873, 753.697 493.754, 754.140 490.927, 763.732 490.736, 764.378 487.666, 773.895 487.584, 774.151 484.299, 783.428 480.885, 792.174 477.345, 800.353 473.685, 807.932 469.908, 814.876 466.021, 821.146 462.029, 826.704 457.941, 831.513 453.762, 835.538 452.561, 836.440 " fill="none" stroke="rgb(0, 0, 0)" stroke-linecap="butt" stroke-linejoin="round" stroke-opacity="1.0" stroke-width="3.0" />
            <path d=" M 390.064, 499.323 389.923, 504.541 389.788, 514.540 389.653, 524.539 389.611, 527.683 389.637, 537.682 389.663, 547.682 389.671, 550.745 389.858, 560.743 390.045, 570.742 390.099, 573.609 390.451, 583.602 390.802, 593.596 390.892, 596.155 391.412, 606.142 391.931, 616.128 392.042, 618.270 392.734, 628.246 393.425, 638.222 393.538, 639.845 394.408, 649.807 395.277, 659.770 395.366, 660.778 396.422, 670.722 397.478, 680.666 397.511, 680.972 398.763, 690.893 399.956, 700.339 401.416, 710.232 402.681, 718.801 404.364, 728.659 405.666, 736.288 407.590, 746.101 408.890, 752.735 411.076, 762.494 412.331, 768.095 414.806, 777.784 415.965, 782.324 418.762, 791.925 419.771, 795.390 422.930, 804.878 423.725, 807.267 427.295, 816.607 427.805, 817.941 431.849, 827.087 431.990, 827.406 436.258, 835.659 440.488, 842.545 440.589, 842.708 440.768, 842.949 444.964, 848.568 449.364, 853.258 453.773, 856.798 458.174, 859.217 462.552, 860.549 466.894, 860.826 471.187, 860.084 475.418, 858.363 479.579, 855.703 483.659, 852.143 485.120, 850.525 487.650, 847.724 491.545, 842.490 495.337, 836.482 499.020, 829.738 502.588, 822.300 506.039, 814.209 509.368, 805.502 512.571, 796.216 512.612, 796.086 " fill="none" stroke="rgb(0, 0, 0)" stroke-linecap="butt" stroke-linejoin="round" stroke-opacity="1.0" stroke-width="3.0" />
            <path d=" M 466.746, 842.552 462.680, 842.086 461.377, 841.618 458.596, 840.621 454.506, 838.129 452.561, 836.440 450.423, 834.582 446.364, 829.954 442.343, 824.229 438.378, 817.392 434.486, 809.432 430.685, 800.343 427.285, 790.939 426.993, 790.131 423.992, 780.592 423.430, 778.805 420.780, 769.162 420.014, 766.378 417.675, 756.655 416.765, 752.876 414.704, 743.090 413.702, 738.332 411.893, 728.497 410.842, 722.787 409.264, 712.912 408.206, 706.287 406.841, 696.381 405.809, 688.892 404.642, 678.960 403.668, 670.668 402.688, 660.716 401.799, 651.687 400.995, 641.719 400.214, 632.030 399.579, 622.050 398.944, 612.070 398.926, 611.787 398.453, 601.798 397.980, 591.809 397.944, 591.051 397.629, 581.056 397.313, 571.061 397.277, 569.922 397.116, 559.923 396.954, 549.924 396.931, 548.503 396.921, 538.503 396.911, 528.503 396.909, 526.904 397.049, 516.905 397.104, 512.963 " fill="none" stroke="rgb(0, 0, 0)" stroke-linecap="butt" stroke-linejoin="round" stroke-opacity="1.0" stroke-width="3.0" />
            <path d=" M 509.125, 786.748 507.297, 791.864 504.066, 800.022 500.727, 807.580 497.284, 814.504 493.741, 820.756 490.106, 826.297 486.383, 831.092 482.581, 835.104 478.707, 838.292 474.770, 840.619 470.779, 842.051 466.746, 842.552 " fill="none" stroke="rgb(0, 0, 0)" stroke-linecap="butt" stroke-linejoin="round" stroke-opacity="1.0" stroke-width="3.0" />
            <path d=" M 546.340, 521.660 546.081, 531.657 545.974, 535.785 545.617, 545.779 545.470, 549.877 545.014, 559.866 544.830, 563.916 544.274, 573.900 544.052, 577.883 543.395, 587.861 543.138, 591.758 542.377, 601.729 542.087, 605.522 541.221, 615.484 540.902, 619.154 539.926, 629.106 539.580, 632.632 538.492, 642.573 538.124, 645.936 536.919, 655.864 536.533, 659.044 535.207, 668.956 534.809, 671.933 533.355, 681.827 532.951, 684.578 531.369, 694.417 530.960, 696.957 529.231, 706.806 528.839, 709.043 528.295, 711.885 " fill="none" stroke="rgb(0, 0, 0)" stroke-linecap="butt" stroke-linejoin="round" stroke-opacity="1.0" stroke-width="3.0" />
            <path d=" M 548.904, 521.939 546.340, 521.660 555.433, 521.794 557.281, 521.821 562.738, 521.901 564.525, 521.927 565.015, 521.935 564.526, 521.878 563.576, 521.767 562.742, 521.670 559.176, 521.254 557.628, 521.073 557.629, 520.964 " fill="none" stroke="rgb(0, 0, 0)" stroke-linecap="butt" stroke-linejoin="round" stroke-opacity="1.0" stroke-width="3.0" />
            <path d=" M 377.887, 504.097 377.751, 514.096 377.614, 524.095 377.558, 528.190 377.580, 538.190 377.601, 548.190 377.609, 552.198 377.789, 562.196 377.969, 572.194 378.037, 575.993 378.379, 585.987 378.720, 595.981 378.839, 599.451 379.346, 609.438 379.853, 619.425 380.007, 622.450 380.684, 632.427 381.362, 642.404 381.530, 644.875 382.385, 654.839 383.240, 664.802 383.396, 666.619 384.438, 676.565 385.479, 686.511 385.591, 687.580 386.830, 697.503 388.068, 707.426 388.098, 707.664 389.546, 717.559 390.897, 726.791 392.570, 736.650 393.968, 744.887 395.887, 754.701 397.292, 761.887 399.479, 771.645 400.845, 777.740 403.328, 787.427 404.604, 792.405 407.419, 802.000 408.547, 805.846 411.737, 815.324 412.651, 818.041 416.268, 827.364 416.893, 828.976 421.001, 838.094 421.251, 838.648 425.702, 847.055 430.227, 854.207 434.804, 860.124 439.414, 864.824 444.041, 868.333 448.665, 870.684 453.272, 871.911 457.848, 872.051 462.377, 871.141 466.849, 869.226 471.251, 866.347 475.574, 862.548 479.809, 857.870 " fill="none" stroke="rgb(0, 0, 0)" stroke-linecap="butt" stroke-linejoin="round" stroke-opacity="1.0" stroke-width="3.0" />
            <path d=" M 479.809, 857.870 485.924, 849.957 487.650, 847.724 " fill="none" stroke="rgb(0, 0, 0)" stroke-linecap="butt" stroke-linejoin="round" stroke-opacity="1.0" stroke-width="3.0" />
            <path d=" M 539.711, 546.855 529.715, 547.144 528.298, 547.185 525.405, 543.068 522.792, 539.351 521.973, 538.185 " fill="none" stroke="rgb(0, 0, 0)" stroke-linecap="butt" stroke-linejoin="round" stroke-opacity="1.0" stroke-width="3.0" />
            <path d=" M 530.178, 495.633 540.162, 496.203 540.787, 496.238 540.731, 506.238 540.675, 516.238 540.646, 521.577 540.340, 531.572 540.214, 535.709 539.763, 545.699 539.711, 546.855 534.119, 538.565 531.099, 534.087 530.837, 533.698 530.573, 533.307 530.310, 532.917 530.047, 532.525 529.743, 531.946 529.460, 531.149 529.202, 530.147 529.025, 529.214 528.977, 528.961 528.791, 527.612 528.645, 526.127 528.542, 524.534 528.511, 523.602 528.485, 522.863 528.475, 521.148 528.512, 519.420 528.595, 517.714 528.619, 517.403 528.722, 516.063 528.892, 514.499 529.100, 513.052 529.308, 511.937 529.343, 511.750 529.615, 510.618 529.912, 509.676 530.228, 508.943 530.555, 508.432 530.833, 508.099 531.112, 507.767 531.390, 507.435 531.668, 507.104 531.809, 506.937 538.237, 499.277 540.787, 496.238 " fill="none" stroke="rgb(0, 0, 0)" stroke-linecap="butt" stroke-linejoin="round" stroke-opacity="1.0" stroke-width="3.0" />
            <path d=" M 530.927, 523.646 530.801, 523.634 530.680, 523.487 530.570, 523.211 530.475, 522.818 530.400, 522.324 530.348, 521.753 530.322, 521.130 530.323, 520.480 530.350, 519.833 530.402, 519.218 530.478, 518.661 530.573, 518.186 530.684, 517.815 530.805, 517.564 530.932, 517.444 " fill="none" stroke="rgb(0, 0, 0)" stroke-linecap="butt" stroke-linejoin="round" stroke-opacity="1.0" stroke-width="3.0" />
            <path d=" M 530.932, 517.444 531.057, 517.460 531.178, 517.609 531.288, 517.887 531.382, 518.281 531.457, 518.773 531.508, 519.341 531.534, 519.963 531.534, 520.610 531.507, 521.254 531.455, 521.868 531.380, 522.424 531.285, 522.898 531.175, 523.270 531.054, 523.523 530.927, 523.646 " fill="none" stroke="rgb(0, 0, 0)" stroke-linecap="butt" stroke-linejoin="round" stroke-opacity="1.0" stroke-width="3.0" />
            <path d=" M 362.838, 435.697 362.781, 436.504 362.218, 446.489 361.655, 456.473 361.526, 458.755 361.103, 468.746 360.680, 478.737 360.575, 481.220 360.326, 489.965 360.041, 499.961 359.932, 503.811 359.785, 513.810 359.638, 523.809 359.600, 526.437 359.591, 536.437 359.582, 546.437 359.580, 549.008 359.710, 559.007 359.841, 569.006 359.872, 571.434 359.929, 573.545 " fill="none" stroke="rgb(0, 0, 0)" stroke-linecap="butt" stroke-linejoin="round" stroke-opacity="1.0" stroke-width="3.0" />
            <path d=" M 537.041, 742.490 538.768, 732.640 538.810, 732.406 540.420, 722.536 540.774, 720.365 542.273, 710.478 542.631, 708.121 544.023, 698.219 544.379, 695.691 545.669, 685.775 546.018, 683.090 547.210, 673.161 547.550, 670.332 548.646, 660.392 548.973, 657.431 549.977, 647.482 550.288, 644.401 551.202, 634.443 551.494, 631.256 552.321, 621.290 552.593, 618.007 553.333, 608.034 553.583, 604.667 554.240, 594.688 554.466, 591.248 555.039, 581.265 555.240, 577.763 555.731, 567.775 555.906, 564.222 556.316, 554.230 556.464, 550.636 556.794, 540.642 556.913, 537.018 557.163, 527.022 557.254, 523.379 557.276, 522.063 " fill="none" stroke="rgb(0, 0, 0)" stroke-linecap="butt" stroke-linejoin="round" stroke-opacity="1.0" stroke-width="3.0" />
            <path d=" M 459.300, 906.106 461.714, 906.269 465.836, 905.803 469.914, 904.534 473.941, 902.493 477.910, 899.710 481.814, 896.217 485.648, 892.042 489.407, 887.217 493.086, 881.772 496.681, 875.737 500.187, 869.141 503.603, 862.012 506.924, 854.378 510.149, 846.267 513.275, 837.704 516.301, 828.715 519.224, 819.324 520.467, 815.018 " fill="none" stroke="rgb(0, 0, 0)" stroke-linecap="butt" stroke-linejoin="round" stroke-opacity="1.0" stroke-width="3.0" />
            <path d=" M 520.012, 180.730 518.111, 175.447 515.018, 167.648 511.811, 160.359 508.494, 153.607 505.069, 147.423 501.538, 141.837 497.906, 136.879 494.175, 132.582 490.350, 128.975 486.437, 126.092 482.440, 123.963 478.366, 122.619 474.222, 122.092 472.291, 122.239 470.015, 122.411 465.755, 123.606 461.449, 125.703 457.109, 128.729 452.744, 132.708 448.367, 137.660 443.989, 143.604 439.623, 150.557 435.284, 158.528 431.102, 167.282 430.985, 167.526 427.088, 176.736 426.742, 177.554 423.211, 186.910 422.570, 188.611 422.444, 188.982 419.240, 198.455 418.485, 200.688 415.574, 210.255 414.503, 213.775 411.858, 223.419 410.642, 227.852 408.239, 237.559 406.918, 242.895 404.737, 252.654 403.347, 258.874 401.372, 268.677 399.947, 275.751 398.164, 285.591 396.734, 293.484 395.130, 303.354 393.722, 312.022 392.289, 321.918 390.928, 331.309 389.656, 341.228 388.366, 351.284 387.248, 361.221 386.131, 371.158 386.050, 371.878 385.080, 381.831 384.111, 391.784 383.990, 393.020 383.164, 402.986 382.338, 412.952 382.199, 414.632 381.513, 424.608 380.827, 434.585 380.686, 436.632 380.137, 446.617 379.588, 456.602 379.459, 458.935 379.045, 468.926 378.630, 478.917 378.525, 481.453 378.243, 491.449 377.962, 501.445 377.887, 504.097 377.738, 514.096 377.590, 524.095 377.550, 526.777 377.534, 536.777 377.517, 546.777 377.513, 549.401 377.631, 559.400 377.748, 569.399 377.777, 571.878 378.030, 581.875 378.282, 591.872 378.339, 594.121 378.729, 604.113 379.119, 614.106 379.195, 616.042 379.725, 626.028 380.256, 636.014 380.338, 637.559 381.013, 647.536 381.689, 657.513 381.761, 658.590 382.587, 668.555 383.412, 678.521 383.456, 679.060 384.437, 689.012 385.412, 698.899 386.556, 708.833 387.617, 718.042 388.934, 727.955 390.059, 736.428 391.558, 746.315 392.724, 754.005 394.418, 763.860 395.598, 770.724 397.501, 780.541 398.666, 786.546 400.796, 796.316 401.912, 801.434 404.289, 811.148 405.321, 815.362 407.970, 825.005 408.877, 828.306 411.827, 837.861 412.564, 840.250 415.849, 849.696 416.367, 851.184 420.029, 860.489 420.270, 861.101 424.257, 870.002 428.315, 877.891 432.428, 884.775 436.583, 890.668 440.768, 895.585 444.969, 899.545 449.175, 902.569 453.374, 904.680 457.557, 905.905 459.540, 906.079 461.714, 906.269 " fill="none" stroke="rgb(0, 0, 0)" stroke-linecap="butt" stroke-linejoin="round" stroke-opacity="1.0" stroke-width="3.0" />
            <path d=" M 471.781, 122.174 467.548, 122.494 463.260, 123.690 458.928, 125.787 454.560, 128.813 450.168, 132.791 445.763, 137.743 441.358, 143.686 436.966, 150.637 432.600, 158.606 428.324, 167.500 428.275, 167.602 424.358, 176.802 424.006, 177.627 420.457, 186.976 419.809, 188.680 416.588, 198.147 415.995, 199.889 415.700, 200.754 412.773, 210.316 411.696, 213.836 409.035, 223.476 407.812, 227.909 405.395, 237.612 404.066, 242.947 401.873, 252.703 400.476, 258.920 398.489, 268.721 397.056, 275.792 395.263, 285.629 393.825, 293.517 392.212, 303.387 390.797, 312.048 389.355, 321.944 387.988, 331.328 386.709, 341.246 385.413, 351.296 384.289, 361.232 383.165, 371.169 383.084, 371.882 382.110, 381.835 381.135, 391.787 381.015, 393.016 380.185, 402.982 379.355, 412.947 379.216, 414.619 378.526, 424.596 377.837, 434.572 377.696, 436.610 377.145, 446.595 376.593, 456.580 376.465, 458.905 376.049, 468.896 375.633, 478.887 375.527, 481.414 375.245, 491.410 374.963, 501.406 374.889, 504.049 374.740, 514.048 374.592, 524.047 374.552, 526.720 374.537, 536.720 374.522, 546.720 374.519, 549.335 374.638, 559.334 374.758, 569.334 374.787, 571.804 375.043, 581.801 375.298, 591.797 375.355, 594.038 375.749, 604.031 376.143, 614.023 376.219, 615.951 376.755, 625.937 377.290, 635.923 377.373, 637.459 378.054, 647.436 378.735, 657.413 378.808, 658.483 379.640, 668.448 380.472, 678.413 380.516, 678.946 381.505, 688.897 382.487, 698.778 383.640, 708.711 384.708, 717.914 386.035, 727.826 387.168, 736.294 388.678, 746.179 389.852, 753.865 391.558, 763.718 392.746, 770.579 394.663, 780.394 395.835, 786.396 397.980, 796.164 399.104, 801.281 401.498, 810.990 402.537, 815.205 405.203, 824.843 406.117, 828.146 409.085, 837.695 409.829, 840.087 413.134, 849.525 413.657, 851.018 417.341, 860.315 417.586, 860.934 421.600, 869.834 425.684, 877.721 429.824, 884.605 434.007, 890.498 438.219, 895.415 442.447, 899.376 446.680, 902.400 450.907, 904.513 455.117, 905.739 459.300, 906.106 " fill="none" stroke="rgb(0, 0, 0)" stroke-linecap="butt" stroke-linejoin="round" stroke-opacity="1.0" stroke-width="3.0" />
            <path d=" M 474.222, 122.092 471.781, 122.174 " fill="none" stroke="rgb(0, 0, 0)" stroke-linecap="butt" stroke-linejoin="round" stroke-opacity="1.0" stroke-width="3.0" />
            <path d=" M 543.172, 758.848 544.853, 748.991 545.293, 746.409 546.861, 736.533 547.338, 733.534 548.799, 723.641 549.269, 720.458 550.627, 710.551 551.086, 707.199 552.346, 697.279 552.791, 693.771 553.954, 683.839 554.382, 680.189 555.453, 670.247 555.861, 666.467 556.842, 656.516 557.227, 652.619 558.121, 642.659 558.481, 638.657 559.290, 628.690 559.622, 624.595 560.348, 614.621 560.652, 610.444 561.296, 600.464 561.570, 596.215 562.133, 586.231 562.376, 581.922 562.860, 571.934 563.071, 567.574 563.475, 557.582 563.654, 553.183 563.980, 543.189 564.125, 538.760 564.373, 528.763 564.484, 524.316 564.521, 522.170 " fill="none" stroke="rgb(0, 0, 0)" stroke-linecap="butt" stroke-linejoin="round" stroke-opacity="1.0" stroke-width="3.0" />
            <path d=" M 456.993, 937.828 459.400, 938.001 463.865, 937.998 468.284, 937.103 472.648, 935.351 476.951, 932.777 481.184, 929.417 485.341, 925.305 489.417, 920.477 493.406, 914.967 497.305, 908.809 501.109, 902.036 504.814, 894.682 508.418, 886.777 511.917, 878.353 515.311, 869.438 518.597, 860.061 521.677, 850.547 521.773, 850.250 524.646, 840.672 524.838, 840.031 527.522, 830.398 527.676, 829.843 " fill="none" stroke="rgb(0, 0, 0)" stroke-linecap="butt" stroke-linejoin="round" stroke-opacity="1.0" stroke-width="3.0" />
            <path d=" M 540.976, 214.291 540.770, 213.290 538.589, 203.531 538.280, 202.146 535.922, 192.428 535.662, 191.358 533.112, 181.689 532.918, 180.953 530.158, 171.342 530.047, 170.957 527.050, 161.396 523.927, 152.300 520.679, 143.698 517.308, 135.621 513.814, 128.101 510.201, 121.170 506.471, 114.861 502.626, 109.211 498.670, 104.253 494.608, 100.024 490.444, 96.560 486.184, 93.896 481.833, 92.071 477.400, 91.119 472.891, 91.076 472.338, 91.185 468.315, 91.978 463.682, 93.857 459.003, 96.744 454.289, 100.671 449.551, 105.664 444.804, 111.748 440.061, 118.942 435.338, 127.265 430.899, 136.226 430.650, 136.728 426.647, 145.892 426.015, 147.339 425.865, 147.726 422.246, 157.048 421.449, 159.100 420.628, 161.466 417.350, 170.913 416.971, 172.007 416.087, 174.846 413.114, 184.394 412.599, 186.049 409.901, 195.678 408.352, 201.209 405.905, 210.905 404.250, 217.463 402.032, 227.214 400.311, 234.778 398.619, 243.038 396.613, 252.834 396.555, 253.116 394.745, 262.951 393.000, 272.430 391.375, 282.297 389.749, 292.164 389.666, 292.664 388.214, 302.558 386.761, 312.452 386.570, 313.756 385.281, 323.673 383.993, 333.590 383.727, 335.637 382.596, 345.573 381.466, 355.509 381.156, 358.231 380.176, 368.183 379.195, 378.135 378.869, 381.454 378.034, 391.419 377.200, 401.384 376.879, 405.218 376.186, 415.194 375.494, 425.170 375.198, 429.429 374.644, 439.414 374.091, 449.398 373.836, 453.990 373.419, 463.981 373.001, 473.972 372.800, 478.798 372.517, 488.794 372.235, 498.790 372.094, 503.751 371.946, 513.750 371.798, 523.749 371.724, 528.743 371.711, 538.743 371.697, 548.743 371.690, 553.669 371.812, 563.669 371.933, 573.668 371.991, 578.425 372.250, 588.422 372.508, 598.418 372.624, 602.908 373.022, 612.900 373.420, 622.892 373.584, 627.018 374.125, 637.003 374.666, 646.988 374.865, 650.658 375.552, 660.635 376.240, 670.611 376.456, 673.738 377.296, 683.703 378.136, 693.667 378.347, 696.171 379.347, 706.121 380.346, 716.071 380.527, 717.877 381.693, 727.809 382.859, 737.741 382.981, 738.783 384.323, 748.692 385.665, 758.602 385.695, 758.821 387.224, 768.703 388.652, 777.933 390.381, 787.782 391.835, 796.067 393.780, 805.876 395.228, 813.179 396.280, 817.890 398.460, 827.649 398.813, 829.232 399.814, 833.219 402.250, 842.917 402.571, 844.198 405.289, 853.822 406.484, 858.054 407.888, 862.465 410.535, 870.786 412.951, 877.508 414.704, 882.386 418.484, 891.644 418.976, 892.850 423.205, 901.911 423.332, 902.182 427.756, 910.392 432.233, 917.492 436.746, 923.499 441.283, 928.436 445.829, 932.326 450.372, 935.197 454.899, 937.078 458.554, 937.827 459.400, 938.001 " fill="none" stroke="rgb(0, 0, 0)" stroke-linecap="butt" stroke-linejoin="round" stroke-opacity="1.0" stroke-width="3.0" />
            <path d=" M 363.457, 425.658 363.196, 429.355 362.838, 435.697 362.275, 445.682 361.813, 453.877 361.390, 463.868 360.967, 473.859 360.764, 478.646 360.480, 488.642 360.449, 489.711 360.165, 499.706 360.071, 502.995 360.055, 503.559 359.908, 513.558 359.762, 523.557 359.689, 528.512 359.680, 538.512 359.671, 548.695 359.667, 553.399 359.797, 563.398 359.929, 573.545 359.989, 578.117 360.259, 588.113 360.530, 598.109 360.630, 601.790 360.651, 602.562 360.700, 603.769 " fill="none" stroke="rgb(0, 0, 0)" stroke-linecap="butt" stroke-linejoin="round" stroke-opacity="1.0" stroke-width="3.0" />
            <path d=" M 470.455, 91.168 465.850, 92.071 461.188, 93.950 456.480, 96.838 451.736, 100.765 446.969, 105.757 442.193, 111.839 437.421, 119.032 432.669, 127.353 428.208, 136.303 427.953, 136.814 423.929, 145.969 423.290, 147.423 419.651, 156.737 418.697, 159.180 417.696, 162.049 414.400, 171.490 414.193, 172.083 411.741, 179.911 409.795, 186.121 409.538, 187.032 406.825, 196.658 405.524, 201.276 403.063, 210.968 401.398, 217.524 399.167, 227.272 397.437, 234.834 395.419, 244.628 393.660, 253.165 391.840, 262.998 390.086, 272.472 389.675, 274.951 388.040, 284.817 386.734, 292.698 385.273, 302.591 383.812, 312.484 383.621, 313.783 382.326, 323.698 381.030, 333.614 380.764, 335.655 379.627, 345.591 378.490, 355.526 378.179, 358.240 377.194, 368.192 376.209, 378.143 375.881, 381.454 375.042, 391.419 374.204, 401.384 373.882, 405.209 373.186, 415.185 372.491, 425.160 372.194, 429.410 371.638, 439.395 371.082, 449.380 370.827, 453.961 370.408, 463.952 369.989, 473.944 369.787, 478.760 369.504, 488.756 369.221, 498.752 369.081, 503.703 368.933, 513.702 368.785, 523.701 368.712, 528.685 368.699, 538.685 368.687, 548.685 368.681, 553.602 368.804, 563.601 368.928, 573.600 368.987, 578.348 369.248, 588.344 369.510, 598.341 369.627, 602.821 370.029, 612.813 370.431, 622.805 370.597, 626.922 371.142, 636.907 371.688, 646.892 371.888, 650.554 372.582, 660.530 373.275, 670.505 373.492, 673.625 374.339, 683.589 375.186, 693.553 375.398, 696.050 376.405, 705.999 377.412, 715.948 377.594, 717.748 378.769, 727.679 379.944, 737.610 380.067, 738.647 381.418, 748.555 382.770, 758.463 382.800, 758.678 384.340, 768.559 385.777, 777.784 387.519, 787.631 388.930, 795.607 388.984, 795.913 390.942, 805.719 392.400, 813.020 394.594, 822.776 394.691, 823.205 396.009, 829.069 397.582, 835.289 399.793, 844.031 402.528, 853.649 403.732, 857.884 404.986, 861.797 407.810, 870.613 411.213, 880.016 412.007, 882.210 415.808, 891.459 416.307, 892.672 420.560, 901.723 420.692, 902.003 425.145, 910.212 429.650, 917.312 434.194, 923.320 438.759, 928.257 443.335, 932.148 447.907, 935.020 452.463, 936.903 456.993, 937.828 " fill="none" stroke="rgb(0, 0, 0)" stroke-linecap="butt" stroke-linejoin="round" stroke-opacity="1.0" stroke-width="3.0" />
            <path d=" M 472.891, 91.076 470.455, 91.168 " fill="none" stroke="rgb(0, 0, 0)" stroke-linecap="butt" stroke-linejoin="round" stroke-opacity="1.0" stroke-width="3.0" />
            <path d=" M 546.535, 222.026 545.244, 215.123 543.256, 205.323 542.819, 203.166 540.671, 193.399 540.262, 191.541 537.941, 181.814 537.574, 180.274 535.064, 170.594 534.753, 169.391 532.038, 159.766 531.799, 158.918 528.859, 149.360 528.713, 148.885 525.495, 139.320 522.146, 130.255 518.667, 121.722 515.058, 113.755 511.323, 106.388 507.463, 99.655 503.480, 93.596 499.380, 88.246 495.164, 83.644 490.839, 79.829 486.409, 76.840 481.881, 74.717 477.262, 73.499 472.559, 73.225 467.713, 73.418 462.876, 74.128 457.973, 75.856 453.016, 78.638 448.017, 82.506 442.989, 87.493 437.945, 93.625 432.901, 100.927 427.873, 109.419 423.294, 118.309 422.877, 119.117 418.751, 128.226 417.933, 130.031 414.206, 139.310 413.059, 142.165 409.686, 151.579 408.275, 155.517 405.218, 165.038 403.600, 170.078 400.828, 179.686 399.055, 185.832 396.542, 195.511 394.661, 202.754 392.385, 212.491 390.440, 220.813 388.383, 230.599 387.361, 235.457 386.413, 239.967 384.558, 249.794 382.703, 259.620 382.600, 260.168 380.934, 270.029 379.269, 279.889 379.021, 281.359 377.534, 291.248 376.048, 301.137 375.697, 303.473 374.379, 313.386 373.062, 323.299 372.645, 326.436 371.489, 336.369 370.333, 346.302 369.883, 350.168 368.883, 360.118 367.882, 370.068 367.428, 374.578 366.577, 384.542 365.726, 394.506 365.678, 395.066 365.293, 399.573 364.588, 409.548 363.883, 419.523 363.492, 425.050 363.457, 425.658 363.100, 431.995 362.537, 441.979 362.034, 450.904 361.611, 460.895 361.188, 470.886 360.928, 477.026 360.643, 487.022 360.574, 489.453 360.289, 499.449 360.212, 502.169 360.180, 503.304 360.033, 513.303 359.886, 523.302 359.793, 529.624 359.785, 539.624 359.776, 549.624 359.770, 555.872 359.797, 557.928 359.927, 567.927 360.057, 577.926 360.066, 578.598 360.109, 581.934 360.380, 591.931 360.651, 601.927 360.664, 602.432 360.700, 603.769 360.807, 607.701 361.221, 617.693 361.635, 627.684 361.857, 633.064 362.418, 643.048 362.978, 653.033 363.253, 657.920 363.964, 667.894 364.676, 677.869 364.983, 682.169 365.851, 692.131 366.719, 702.093 367.035, 705.720 368.067, 715.666 369.099, 725.613 369.397, 728.486 370.600, 738.413 371.804, 748.341 371.835, 748.598 372.052, 750.390 373.437, 760.294 374.822, 770.197 374.985, 771.361 376.563, 781.236 378.141, 791.110 378.177, 791.336 379.962, 801.176 381.610, 810.262 383.617, 820.058 385.264, 828.093 387.514, 837.836 389.120, 844.791 391.635, 854.469 393.158, 860.328 395.966, 869.925 397.358, 874.681 400.492, 884.177 401.700, 887.838 405.199, 897.206 406.165, 899.791 410.076, 908.995 410.733, 910.541 415.112, 919.531 415.386, 920.093 420.107, 928.459 424.878, 935.655 429.683, 941.702 434.507, 946.626 439.336, 950.452 444.155, 953.214 448.952, 954.942 453.717, 955.673 458.504, 956.029 463.166, 955.794 467.775, 954.634 472.323, 952.587 476.801, 949.691 481.204, 945.984 485.523, 941.505 489.754, 936.291 493.891, 930.379 497.931, 923.805 501.868, 916.605 505.701, 908.813 509.426, 900.461 513.040, 891.583 516.542, 882.209 519.798, 872.754 519.931, 872.369 522.965, 862.840 523.204, 862.091 526.037, 852.501 526.361, 851.403 529.008, 841.760 529.401, 840.332 530.651, 835.443 " fill="none" stroke="rgb(0, 0, 0)" stroke-linecap="butt" stroke-linejoin="round" stroke-opacity="1.0" stroke-width="3.0" />
            <path d=" M 545.606, 764.528 547.270, 754.667 547.378, 754.029 548.930, 744.150 549.474, 740.690 550.921, 730.796 551.453, 727.154 552.799, 717.245 553.316, 713.436 554.564, 703.514 555.062, 699.551 556.215, 689.618 556.692, 685.515 557.754, 675.572 558.206, 671.341 559.180, 661.388 559.605, 657.042 560.492, 647.082 560.889, 642.632 561.692, 632.664 562.058, 628.122 562.778, 618.148 563.112, 613.526 563.752, 603.546 564.052, 598.854 564.612, 588.869 564.878, 584.117 565.359, 574.129 565.590, 569.327 565.993, 559.335 566.188, 554.495 566.513, 544.500 566.672, 539.631 566.920, 529.634 567.041, 524.745 567.084, 522.208 " fill="none" stroke="rgb(0, 0, 0)" stroke-linecap="butt" stroke-linejoin="round" stroke-opacity="1.0" stroke-width="3.0" />
            <path d=" M 472.559, 73.225 467.782, 73.932 462.940, 75.659 458.044, 78.440 453.105, 82.308 448.138, 87.296 443.155, 93.429 438.171, 100.734 433.203, 109.230 428.668, 118.143 428.267, 118.933 424.182, 128.060 423.381, 129.852 422.812, 131.284 419.124, 140.579 418.563, 141.993 415.226, 151.419 413.834, 155.352 410.810, 164.884 409.212, 169.922 407.760, 175.019 405.018, 184.636 404.719, 185.686 402.234, 195.372 401.960, 196.440 400.375, 202.620 398.124, 212.363 397.781, 213.850 396.201, 220.691 394.166, 230.482 392.217, 239.859 390.383, 249.689 388.549, 259.520 388.445, 260.075 386.949, 269.036 385.302, 278.900 384.905, 281.281 383.434, 291.172 381.964, 301.064 381.615, 303.412 380.312, 313.327 379.009, 323.241 378.595, 326.393 377.499, 335.911 376.355, 345.845 375.860, 350.143 374.870, 360.094 373.879, 370.044 373.429, 374.572 372.586, 384.537 371.743, 394.501 371.313, 399.586 370.614, 409.562 369.915, 419.537 369.527, 425.084 368.968, 435.068 368.410, 445.053 368.080, 450.959 367.660, 460.950 367.239, 470.941 366.980, 477.102 366.697, 487.098 366.413, 497.094 366.234, 503.400 366.087, 513.399 365.940, 523.398 365.846, 529.741 365.835, 539.741 365.824, 549.741 365.816, 556.009 365.942, 566.009 366.068, 576.008 366.145, 582.093 366.409, 592.089 366.674, 602.086 366.827, 607.879 367.233, 617.871 367.639, 627.863 367.858, 633.262 368.409, 643.246 368.959, 653.231 369.230, 658.136 369.930, 668.111 370.629, 678.087 370.932, 682.403 371.787, 692.366 372.642, 702.330 372.954, 705.971 373.970, 715.919 374.986, 725.867 375.281, 728.753 376.467, 738.683 377.668, 748.745 377.696, 748.979 377.898, 750.672 379.263, 760.578 380.628, 770.485 380.790, 771.657 382.345, 781.535 383.901, 791.413 383.938, 791.645 385.393, 799.785 386.523, 806.108 387.323, 810.582 389.304, 820.384 390.928, 828.423 393.149, 838.174 394.733, 845.130 395.350, 847.539 397.833, 857.226 398.717, 860.675 401.490, 870.283 402.862, 875.035 405.958, 884.544 407.147, 888.197 409.564, 894.755 411.554, 900.155 415.421, 909.377 416.064, 910.908 420.397, 919.921 420.657, 920.462 425.317, 928.830 430.028, 936.026 434.772, 942.073 439.535, 946.994 444.302, 950.819 449.061, 953.577 453.798, 955.302 458.504, 956.029 " fill="none" stroke="rgb(0, 0, 0)" stroke-linecap="butt" stroke-linejoin="round" stroke-opacity="1.0" stroke-width="3.0" />
            <path d=" M 565.305, 520.935 565.357, 519.305 565.427, 518.037 565.445, 517.708 565.568, 516.171 565.722, 514.720 565.806, 514.106 565.905, 513.381 566.115, 512.175 566.346, 511.124 566.597, 510.244 566.861, 509.551 567.135, 509.056 567.305, 508.879 567.414, 508.767 567.693, 508.687 " fill="none" stroke="rgb(0, 0, 0)" stroke-linecap="butt" stroke-linejoin="round" stroke-opacity="1.0" stroke-width="3.0" />
            <path d=" M 554.838, 520.750 555.451, 520.760 557.298, 520.793 557.630, 520.799 562.755, 520.890 564.542, 520.921 565.032, 520.930 565.305, 520.935 566.923, 521.129 " fill="none" stroke="rgb(0, 0, 0)" stroke-linecap="butt" stroke-linejoin="round" stroke-opacity="1.0" stroke-width="3.0" />
            <path d=" M 557.628, 521.073 562.750, 521.164 564.537, 521.196 565.028, 521.205 567.101, 521.242 567.991, 521.258 567.995, 520.743 567.984, 520.241 567.958, 519.765 567.919, 519.327 567.868, 518.940 567.805, 518.615 567.733, 518.359 567.653, 518.180 567.568, 518.084 567.480, 518.072 " fill="none" stroke="rgb(0, 0, 0)" stroke-linecap="butt" stroke-linejoin="round" stroke-opacity="1.0" stroke-width="3.0" />
            <path d=" M 532.263, 487.380 532.389, 487.408 537.743, 487.441 537.717, 481.756 537.657, 481.742 533.772, 481.692 " fill="none" stroke="rgb(0, 0, 0)" stroke-linecap="butt" stroke-linejoin="round" stroke-opacity="1.0" stroke-width="3.0" />
            <path d=" M 537.538, 487.395 537.657, 481.742 " fill="none" stroke="rgb(0, 0, 0)" stroke-linecap="butt" stroke-linejoin="round" stroke-opacity="1.0" stroke-width="3.0" />
            <path d=" M 534.847, 483.401 534.673, 483.414 534.651, 483.416 534.632, 483.417 534.619, 483.419 534.574, 483.432 534.539, 483.442 534.527, 483.446 534.488, 483.457 534.408, 483.480 534.399, 483.484 534.203, 483.586 534.032, 483.723 533.892, 483.891 533.785, 484.082 533.718, 484.290 533.693, 484.508 533.712, 484.739 533.775, 484.955 533.877, 485.151 534.015, 485.322 534.079, 485.376 534.182, 485.463 534.207, 485.477 534.355, 485.559 534.360, 485.561 534.374, 485.569 " fill="none" stroke="rgb(0, 0, 0)" stroke-linecap="butt" stroke-linejoin="round" stroke-opacity="1.0" stroke-width="3.0" />
            <path d=" M 534.341, 485.554 534.374, 485.569 534.403, 485.578 534.560, 485.629 534.582, 485.636 " fill="none" stroke="rgb(0, 0, 0)" stroke-linecap="butt" stroke-linejoin="round" stroke-opacity="1.0" stroke-width="3.0" />
            <path d=" M 535.004, 483.415 534.847, 483.401 534.689, 483.411 " fill="none" stroke="rgb(0, 0, 0)" stroke-linecap="butt" stroke-linejoin="round" stroke-opacity="1.0" stroke-width="3.0" />
            <path d=" M 535.158, 483.451 535.059, 483.426 535.004, 483.415 " fill="none" stroke="rgb(0, 0, 0)" stroke-linecap="butt" stroke-linejoin="round" stroke-opacity="1.0" stroke-width="3.0" />
            <path d=" M 534.642, 485.648 534.799, 485.662 534.957, 485.653 535.113, 485.620 535.262, 485.566 535.403, 485.490 535.531, 485.395 535.646, 485.283 535.743, 485.155 535.822, 485.014 535.881, 484.864 535.918, 484.707 535.932, 484.546 535.925, 484.385 535.894, 484.227 535.842, 484.075 535.769, 483.933 535.677, 483.802 535.568, 483.687 535.443, 483.589 535.305, 483.510 535.158, 483.451 " fill="none" stroke="rgb(0, 0, 0)" stroke-linecap="butt" stroke-linejoin="round" stroke-opacity="1.0" stroke-width="3.0" />
            <path d=" M 534.689, 483.411 534.651, 483.416 " fill="none" stroke="rgb(0, 0, 0)" stroke-linecap="butt" stroke-linejoin="round" stroke-opacity="1.0" stroke-width="3.0" />
            <path d=" M 534.574, 483.432 534.533, 483.443 534.488, 483.457 " fill="none" stroke="rgb(0, 0, 0)" stroke-linecap="butt" stroke-linejoin="round" stroke-opacity="1.0" stroke-width="3.0" />
            <path d=" M 534.488, 485.612 534.582, 485.636 534.642, 485.648 " fill="none" stroke="rgb(0, 0, 0)" stroke-linecap="butt" stroke-linejoin="round" stroke-opacity="1.0" stroke-width="3.0" />
            <path d=" M 532.278, 487.324 537.538, 487.395 537.743, 487.441 " fill="none" stroke="rgb(0, 0, 0)" stroke-linecap="butt" stroke-linejoin="round" stroke-opacity="1.0" stroke-width="3.0" />
            <path d=" M 626.350, 904.759 628.519, 905.270 636.417, 906.498 644.309, 906.987 652.179, 906.755 660.010, 905.821 667.787, 904.204 675.495, 901.924 683.121, 899.004 690.651, 895.464 698.073, 891.326 705.378, 886.612 712.553, 881.344 719.590, 875.546 726.480, 869.237 733.214, 862.442 739.785, 855.181 746.186, 847.475 752.266, 839.536 752.410, 839.348 758.190, 831.187 758.452, 830.818 763.942, 822.460 764.306, 821.906 769.517, 813.371 769.968, 812.633 774.909, 803.940 775.432, 803.019 780.113, 794.182 780.696, 793.082 785.125, 784.116 785.755, 782.842 789.940, 773.760 790.606, 772.316 794.555, 763.129 795.245, 761.523 798.965, 752.240 799.671, 750.480 803.168, 741.111 803.880, 739.204 807.160, 729.758 807.870, 727.713 810.938, 718.195 811.639, 716.022 814.500, 706.440 815.185, 704.147 817.844, 694.507 818.506, 692.105 820.966, 682.412 821.602, 679.909 823.866, 670.169 824.469, 667.576 826.540, 657.793 827.106, 655.121 828.988, 645.299 829.513, 642.556 831.207, 632.701 831.688, 629.898 833.195, 620.013 833.630, 617.160 834.952, 607.248 835.337, 604.357 836.475, 594.422 836.809, 591.501 837.763, 581.547 838.044, 578.607 838.814, 568.637 839.041, 565.689 839.627, 555.706 839.800, 552.760 840.202, 542.768 840.319, 539.834 840.535, 529.836 840.598, 526.925 840.626, 516.925 840.635, 514.047 840.474, 504.048 840.429, 501.213 840.078, 491.220 839.980, 488.439 839.435, 478.454 839.286, 475.737 838.545, 465.765 838.348, 463.123 837.406, 453.168 837.164, 450.611 836.017, 440.677 835.733, 438.217 834.377, 428.309 834.055, 425.955 832.485, 416.079 832.129, 413.842 830.340, 404.003 829.956, 401.892 827.939, 392.098 827.533, 390.123 825.284, 380.380 824.862, 378.552 822.372, 368.867 821.942, 367.194 819.203, 357.577 818.773, 356.069 815.776, 346.528 815.356, 345.193 812.091, 335.741 811.691, 334.586 808.147, 325.235 807.779, 324.266 803.944, 315.030 803.622, 314.253 799.484, 305.149 799.219, 304.566 794.766, 295.613 794.574, 295.227 789.791, 286.445 789.688, 286.255 784.564, 277.672 779.205, 269.500 773.614, 261.761 767.796, 254.477 761.755, 247.672 755.496, 241.367 749.026, 235.586 742.352, 230.353 735.480, 225.690 728.419, 221.621 721.179, 218.169 713.769, 215.357 706.201, 213.206 698.486, 211.739 690.638, 210.977 682.671, 210.938 680.456, 211.105 " fill="none" stroke="rgb(0, 0, 0)" stroke-linecap="butt" stroke-linejoin="round" stroke-opacity="1.0" stroke-width="3.0" />
            <path d=" M 628.519, 905.270 626.708, 904.815 620.634, 903.288 612.782, 900.535 604.981, 897.000 597.252, 892.671 589.618, 887.539 582.099, 881.597 574.719, 874.841 567.819, 867.603 567.501, 867.269 561.075, 859.607 560.469, 858.884 554.510, 850.854 553.646, 849.690 548.142, 841.341 547.057, 839.695 541.994, 831.071 540.726, 828.910 539.855, 827.245 535.218, 818.385 534.951, 817.876 534.676, 817.351 532.190, 812.021 530.886, 809.224 530.570, 808.547 528.933, 805.037 525.453, 796.652 524.179, 793.583 523.518, 791.991 520.063, 782.607 518.456, 778.239 518.197, 777.444 516.122, 771.061 513.767, 763.813 511.026, 754.196 509.472, 748.746 507.069, 739.039 505.592, 733.078 503.515, 723.296 502.488, 718.461 502.146, 716.849 500.384, 707.006 499.149, 700.107 497.693, 690.214 496.616, 682.900 495.459, 672.967 494.562, 665.279 493.696, 655.317 492.998, 647.301 492.416, 637.318 491.932, 629.023 491.630, 619.027 491.372, 610.504 491.345, 600.504 491.322, 591.805 491.568, 581.808 491.785, 572.990 492.300, 563.003 492.759, 554.122 493.543, 544.153 494.243, 535.265 495.295, 525.321 495.751, 521.018 496.230, 516.484 496.663, 513.235 496.743, 512.637 498.064, 502.725 498.715, 497.842 499.037, 495.841 500.628, 485.968 501.686, 479.401 503.548, 469.576 505.132, 461.224 507.269, 451.455 509.037, 443.370 511.453, 433.666 513.387, 425.896 516.086, 416.267 518.163, 408.857 521.150, 399.313 523.344, 392.305 526.627, 382.859 527.270, 381.007 528.910, 376.289 530.603, 371.880 534.189, 362.544 534.838, 360.855 536.073, 357.934 536.811, 356.191 540.707, 346.981 541.104, 346.044 544.011, 339.791 547.683, 331.894 547.970, 331.331 549.562, 328.212 554.108, 319.305 554.549, 318.440 554.855, 317.895 556.433, 315.077 559.019, 310.459 561.678, 305.712 562.372, 304.585 562.941, 303.659 568.179, 295.141 569.042, 293.736 574.643, 285.452 576.616, 282.534 582.590, 274.515 584.371, 272.125 590.730, 264.407 590.820, 264.299 592.283, 262.523 599.036, 255.147 600.325, 253.739 607.478, 246.751 608.472, 245.780 616.029, 239.230 616.699, 238.650 624.658, 232.595 624.981, 232.349 633.296, 226.876 641.620, 222.224 649.933, 218.386 658.214, 215.352 666.442, 213.109 674.601, 211.644 680.746, 211.107 682.671, 210.938 " fill="none" stroke="rgb(0, 0, 0)" stroke-linecap="butt" stroke-linejoin="round" stroke-opacity="1.0" stroke-width="3.0" />
            <path d=" M 680.456, 211.105 672.374, 211.811 664.205, 213.277 655.965, 215.519 647.674, 218.552 639.351, 222.387 631.017, 227.035 622.692, 232.504 614.728, 238.551 614.401, 238.799 606.837, 245.341 606.165, 245.923 599.005, 252.904 598.009, 253.875 591.250, 261.244 589.959, 262.650 589.376, 263.357 583.009, 271.068 582.039, 272.243 576.057, 280.256 574.276, 282.642 568.668, 290.921 566.696, 293.832 562.409, 300.791 561.828, 301.734 559.325, 305.796 558.667, 306.970 556.066, 311.604 554.494, 314.406 552.191, 318.510 549.161, 324.435 547.566, 327.555 545.318, 331.950 541.096, 341.015 538.734, 346.084 536.347, 351.716 532.464, 360.879 528.873, 370.212 527.849, 372.874 526.532, 376.296 525.336, 379.734 522.048, 389.178 520.963, 392.294 517.971, 401.835 515.779, 408.827 515.513, 409.773 512.810, 419.401 511.001, 425.846 510.619, 427.381 508.199, 437.084 506.650, 443.300 504.510, 453.069 502.743, 461.134 500.878, 470.959 499.296, 479.290 497.704, 489.163 496.325, 497.709 495.003, 507.622 494.491, 511.459 494.259, 513.195 493.841, 516.330 493.371, 520.765 492.318, 530.710 491.854, 535.090 491.070, 545.059 490.372, 553.925 489.857, 563.912 489.821, 564.610 489.400, 572.771 489.155, 582.768 488.940, 591.565 488.968, 601.565 488.993, 610.243 489.298, 620.238 489.557, 628.741 490.142, 638.724 490.626, 647.000 491.497, 656.962 492.195, 664.958 493.357, 674.891 494.254, 682.560 495.715, 692.452 496.792, 699.749 498.559, 709.591 499.795, 716.474 501.340, 723.727 503.248, 732.686 505.658, 742.391 507.134, 748.338 509.882, 757.954 511.436, 763.391 514.534, 772.898 514.942, 774.152 515.143, 774.768 516.132, 777.803 517.239, 780.803 520.701, 790.185 521.202, 791.542 523.378, 796.772 524.651, 799.833 526.625, 804.577 528.078, 807.685 530.172, 812.163 531.480, 814.961 532.377, 816.881 534.310, 820.565 538.435, 828.430 543.506, 837.049 544.776, 839.206 550.288, 847.550 551.374, 849.195 557.341, 857.219 558.206, 858.383 564.640, 866.039 565.248, 866.763 572.155, 873.994 572.476, 874.331 579.866, 881.084 587.395, 887.024 595.040, 892.155 602.779, 896.484 610.591, 900.020 618.454, 902.774 626.350, 904.759 " fill="none" stroke="rgb(0, 0, 0)" stroke-linecap="butt" stroke-linejoin="round" stroke-opacity="1.0" stroke-width="3.0" />
            <path d=" M 790.273, 551.217 780.295, 550.542 779.562, 550.492 774.955, 549.872 765.045, 548.536 755.125, 547.200 754.414, 547.104 753.701, 547.008 752.988, 546.912 752.274, 546.816 751.437, 546.574 750.634, 546.078 749.881, 545.337 749.194, 544.365 748.588, 543.180 748.073, 541.805 747.658, 540.265 747.354, 538.590 747.165, 536.812 747.094, 534.966 747.145, 533.086 747.316, 531.210 747.602, 529.374 748.000, 527.613 748.501, 525.961 749.094, 524.450 749.726, 523.197 749.770, 523.110 750.514, 521.964 751.310, 521.037 751.997, 520.354 752.684, 519.672 753.371, 518.991 754.056, 518.311 754.400, 517.971 754.654, 517.719 756.107, 516.279 763.213, 509.243 770.318, 502.206 777.424, 495.170 777.694, 494.902 " fill="none" stroke="rgb(0, 0, 0)" stroke-linecap="butt" stroke-linejoin="round" stroke-opacity="1.0" stroke-width="3.0" />
            <path d=" M 692.050, 301.308 683.751, 301.575 681.118, 301.908 677.206, 302.402 675.350, 302.637 666.870, 304.507 661.683, 306.155 658.339, 307.217 649.784, 310.787 641.235, 315.230 632.723, 320.545 624.652, 326.449 624.277, 326.723 616.623, 333.158 615.924, 333.745 608.687, 340.646 607.693, 341.594 600.880, 348.914 599.619, 350.270 593.236, 357.967 591.741, 359.770 585.784, 367.802 584.096, 370.078 578.556, 378.403 576.718, 381.167 573.850, 385.959 573.516, 386.518 570.532, 391.506 569.637, 393.000 565.589, 400.509 563.100, 405.126 562.881, 405.531 562.310, 406.707 561.447, 408.481 558.108, 415.347 556.472, 418.710 556.440, 418.782 556.221, 419.285 554.511, 423.194 550.505, 432.356 550.443, 432.498 547.649, 439.647 545.922, 444.068 544.832, 446.857 542.878, 452.493 539.673, 461.739 536.756, 471.304 534.993, 477.087 533.772, 481.692 533.760, 481.737 532.387, 486.913 532.278, 487.324 532.263, 487.380 532.123, 487.908 530.815, 492.837 530.178, 495.633 529.365, 499.206 527.152, 508.921 525.532, 517.350 524.741, 521.469 524.719, 521.583 524.345, 523.526 524.010, 525.268 523.044, 531.393 521.973, 538.185 521.400, 541.813 520.177, 551.738 519.345, 558.490 518.463, 568.451 517.863, 575.231 517.326, 585.217 516.964, 591.964 516.775, 601.962 516.649, 608.617 516.810, 618.616 516.909, 624.836 516.914, 625.121 517.422, 635.108 517.743, 641.409 517.805, 642.130 518.661, 652.093 519.125, 657.486 520.321, 667.414 521.019, 673.204 522.021, 679.613 523.411, 688.502 525.317, 698.319 526.288, 703.319 528.295, 711.885 528.442, 712.516 529.599, 717.456 529.633, 717.598 530.685, 721.398 530.819, 721.883 533.424, 731.290 535.770, 738.555 537.041, 742.490 537.641, 744.347 537.926, 745.111 539.226, 748.593 541.827, 755.560 542.261, 756.724 542.919, 758.258 543.172, 758.848 545.606, 764.528 547.260, 768.385 551.663, 777.364 552.610, 779.297 557.497, 788.022 558.286, 789.432 563.678, 797.853 564.260, 798.762 570.176, 806.825 570.504, 807.272 576.989, 814.947 583.686, 821.775 590.569, 827.751 597.609, 832.873 604.777, 837.143 610.158, 839.676 612.048, 840.566 619.396, 843.148 626.794, 844.904 634.220, 845.847 641.649, 845.990 649.059, 845.355 656.429, 843.961 663.740, 841.829 670.971, 838.982 678.106, 835.444 685.127, 831.242 692.019, 826.399 698.768, 820.941 705.359, 814.897 711.781, 808.294 718.021, 801.156 724.069, 793.512 729.915, 785.389 735.406, 777.031 735.550, 776.813 740.704, 768.244 740.965, 767.810 745.796, 759.054 746.153, 758.407 750.674, 749.487 751.108, 748.631 755.328, 739.565 755.821, 738.506 759.752, 729.311 760.288, 728.057 763.940, 718.748 764.504, 717.310 767.885, 707.899 768.463, 706.289 771.581, 696.788 772.161, 695.018 775.022, 685.436 775.594, 683.520 778.205, 673.867 778.759, 671.820 781.125, 662.104 781.652, 659.940 783.777, 650.168 784.270, 647.903 786.158, 638.082 786.610, 635.731 788.264, 625.868 788.671, 623.447 790.093, 613.548 790.448, 611.072 791.640, 601.144 791.942, 598.630 792.904, 588.676 793.149, 586.141 793.882, 576.168 794.069, 573.627 794.572, 563.640 794.699, 561.111 794.971, 551.115 795.039, 548.613 795.076, 539.044 " fill="none" stroke="rgb(0, 0, 0)" stroke-linecap="butt" stroke-linejoin="round" stroke-opacity="1.0" stroke-width="3.0" />
            <path d=" M 777.694, 494.902 787.645, 495.887 788.489, 495.971 " fill="none" stroke="rgb(0, 0, 0)" stroke-linecap="butt" stroke-linejoin="round" stroke-opacity="1.0" stroke-width="3.0" />
            <path d=" M 823.896, 511.480 823.214, 501.502 822.253, 491.548 822.166, 490.644 822.037, 489.308 820.789, 479.386 820.523, 477.270 818.979, 467.390 818.670, 465.413 816.824, 455.585 816.482, 453.761 814.330, 443.996 813.964, 442.334 811.502, 432.641 811.123, 431.148 808.339, 421.543 807.959, 420.231 804.834, 410.732 804.466, 409.616 800.982, 400.243 800.645, 399.336 796.785, 390.111 796.495, 389.419 792.246, 380.367 792.024, 379.893 787.375, 371.039 787.238, 370.778 782.148, 362.090 776.762, 353.851 771.082, 346.099 765.113, 338.873 758.860, 332.205 752.336, 326.125 745.552, 320.655 738.524, 315.808 731.268, 311.598 723.794, 308.060 720.596, 306.882 716.118, 305.232 708.255, 303.149 700.225, 301.836 692.050, 301.308 " fill="none" stroke="rgb(0, 0, 0)" stroke-linecap="butt" stroke-linejoin="round" stroke-opacity="1.0" stroke-width="3.0" />
            <path d=" M 661.683, 306.155 667.299, 309.395 673.274, 313.594 679.065, 318.412 684.659, 323.833 690.047, 329.844 695.217, 336.422 700.161, 343.539 704.874, 351.163 709.353, 359.254 713.595, 367.777 717.595, 376.711 721.344, 386.039 724.732, 395.448 724.838, 395.742 727.899, 405.262 728.070, 405.794 730.823, 415.408 731.041, 416.168 733.504, 425.860 733.751, 426.832 735.941, 436.589 736.203, 437.755 738.134, 447.566 738.398, 448.910 740.074, 458.769 740.331, 460.283 741.756, 470.181 741.997, 471.854 743.177, 481.784 743.393, 483.602 744.336, 493.558 744.520, 495.503 744.954, 501.577 744.888, 502.816 744.763, 504.047 744.581, 505.257 744.343, 506.435 744.052, 507.568 743.711, 508.643 743.324, 509.650 742.893, 510.579 742.425, 511.419 741.923, 512.161 741.393, 512.799 740.841, 513.324 740.506, 513.565 740.272, 513.733 739.692, 514.021 730.396, 517.707 729.070, 518.233 " fill="none" stroke="rgb(0, 0, 0)" stroke-linecap="butt" stroke-linejoin="round" stroke-opacity="1.0" stroke-width="3.0" />
            <path d=" M 800.326, 535.528 800.516, 535.540 801.539, 535.606 803.240, 535.714 812.381, 531.660 813.490, 531.169 815.434, 530.306 823.170, 526.875 824.572, 526.254 825.116, 526.049 830.709, 523.950 830.306, 513.958 830.184, 510.939 829.511, 500.962 829.313, 498.036 828.365, 488.081 828.096, 485.265 826.865, 475.341 826.531, 472.649 825.011, 462.765 824.618, 460.214 822.801, 450.381 822.358, 447.985 820.235, 438.213 819.751, 435.987 817.312, 426.289 816.798, 424.245 815.578, 420.009 813.499, 412.787 810.395, 403.281 809.858, 401.637 809.510, 400.692 806.054, 391.308 805.876, 390.825 802.055, 381.584 801.556, 380.377 797.355, 371.303 796.901, 370.323 792.307, 361.441 791.917, 360.688 786.912, 352.030 786.608, 351.503 786.532, 351.386 781.170, 343.094 780.978, 342.798 775.109, 334.701 775.036, 334.600 768.790, 326.940 762.246, 319.849 755.416, 313.355 748.311, 307.488 740.942, 302.276 733.323, 297.751 725.469, 293.939 717.396, 290.867 709.122, 288.562 700.666, 287.052 692.050, 286.356 682.056, 286.011 672.062, 285.666 669.509, 285.578 " fill="none" stroke="rgb(0, 0, 0)" stroke-linecap="butt" stroke-linejoin="round" stroke-opacity="1.0" stroke-width="3.0" />
            <path d=" M 692.050, 286.356 683.295, 286.498 680.099, 286.858 674.426, 287.498 665.468, 289.374 664.864, 289.560 656.449, 292.139 647.397, 295.805 640.814, 299.134 640.357, 299.365 638.343, 300.383 629.800, 305.581 629.317, 305.876 621.181, 311.690 620.352, 312.283 612.639, 318.648 611.482, 319.603 604.201, 326.457 602.742, 327.830 595.892, 335.115 594.168, 336.949 587.745, 344.614 585.793, 346.944 579.793, 354.944 577.656, 357.792 572.070, 366.087 571.927, 366.300 571.538, 366.877 569.793, 369.468 564.611, 378.021 564.450, 378.287 562.238, 381.938 561.931, 382.500 560.278, 385.532 555.491, 394.312 555.027, 395.163 555.027, 395.163 553.347, 398.591 548.947, 407.570 548.195, 409.103 544.172, 418.258 541.818, 423.613 541.776, 423.710 538.121, 433.018 535.799, 438.929 532.505, 448.372 530.296, 454.706 527.358, 464.265 525.295, 470.979 522.708, 480.638 520.821, 487.682 518.579, 497.427 516.895, 504.747 514.997, 514.565 513.672, 521.420 513.540, 522.103 511.983, 531.982 510.771, 539.678 509.555, 549.604 508.601, 557.395 507.727, 567.357 507.040, 575.178 506.510, 585.164 506.097, 592.951 505.913, 602.950 505.772, 610.638 505.939, 620.637 506.065, 628.163 506.590, 638.149 506.973, 645.451 " fill="none" stroke="rgb(0, 0, 0)" stroke-linecap="butt" stroke-linejoin="round" stroke-opacity="1.0" stroke-width="3.0" />
            <path d=" M 756.107, 516.279 755.660, 508.355 755.573, 505.605 755.539, 505.834 755.302, 507.017 755.012, 508.155 754.673, 509.236 754.287, 510.248 753.860, 511.181 753.394, 512.025 752.896, 512.772 752.370, 513.412 751.821, 513.941 751.256, 514.352 750.680, 514.641 741.404, 518.375 733.628, 521.505 733.020, 520.462 732.335, 519.605 731.583, 518.949 730.777, 518.506 729.930, 518.284 729.070, 518.233 719.087, 517.649 718.772, 517.630 717.893, 517.632 717.002, 517.858 716.115, 518.306 715.246, 518.967 714.445, 519.834 713.727, 520.893 713.071, 522.124 712.489, 523.506 711.992, 525.016 711.587, 526.627 711.281, 528.313 711.081, 530.045 710.989, 531.792 711.007, 533.524 720.986, 534.179 722.207, 534.259 727.033, 532.319 727.033, 531.767 727.076, 531.213 727.135, 530.840 727.162, 530.671 727.288, 530.156 727.451, 529.684 727.645, 529.266 727.867, 528.914 728.109, 528.637 728.366, 528.444 728.629, 528.339 728.892, 528.325 " fill="none" stroke="rgb(0, 0, 0)" stroke-linecap="butt" stroke-linejoin="round" stroke-opacity="1.0" stroke-width="3.0" />
            <path d=" M 800.901, 522.440 801.370, 522.233 802.685, 521.653 807.512, 519.525 808.025, 519.251 808.530, 518.871 809.022, 518.389 809.498, 517.811 809.953, 517.142 810.385, 516.389 810.790, 515.557 811.166, 514.655 811.509, 513.688 811.816, 512.665 812.086, 511.593 812.316, 510.481 812.504, 509.337 812.648, 508.170 822.241, 510.993 823.006, 511.219 823.896, 511.480 823.755, 512.221 823.487, 513.298 823.181, 514.327 823.070, 514.644 822.841, 515.298 822.468, 516.206 822.066, 517.041 821.638, 517.799 821.186, 518.471 820.714, 519.052 820.226, 519.537 819.726, 519.919 819.218, 520.195 813.366, 522.819 808.679, 524.921 806.562, 525.871 805.995, 524.798 805.915, 524.690 805.351, 523.918 804.643, 523.245 803.881, 522.793 803.078, 522.567 801.374, 522.468 800.901, 522.440 800.291, 522.404 798.313, 522.288 791.207, 521.872 790.370, 521.878 790.099, 521.954 790.093, 521.956 789.519, 522.116 788.669, 522.581 787.835, 523.267 787.067, 524.165 786.381, 525.260 785.752, 526.533 785.193, 527.961 784.712, 529.520 784.319, 531.184 784.019, 532.924 783.818, 534.711 783.720, 536.513 783.727, 538.299 790.254, 538.728 790.379, 538.736 795.076, 539.044 795.647, 539.082 800.219, 537.054 800.223, 536.484 800.267, 535.912 800.326, 535.528 800.352, 535.353 800.474, 534.822 800.519, 534.682 800.631, 534.334 800.818, 533.902 801.029, 533.537 801.260, 533.251 801.503, 533.050 801.551, 533.029 801.753, 532.941 802.002, 532.925 " fill="none" stroke="rgb(0, 0, 0)" stroke-linecap="butt" stroke-linejoin="round" stroke-opacity="1.0" stroke-width="3.0" />
            <path d=" M 774.955, 549.872 774.709, 559.059 774.200, 569.046 774.078, 571.449 773.331, 581.421 773.150, 583.835 772.166, 593.786 771.927, 596.195 770.706, 606.120 770.412, 608.507 768.953, 618.400 768.606, 620.749 766.907, 630.604 766.512, 632.901 764.572, 642.711 764.131, 644.939 761.948, 654.697 761.469, 656.841 759.038, 666.541 758.525, 668.585 755.843, 678.219 755.306, 680.149 752.368, 689.708 751.814, 691.510 748.614, 700.984 748.053, 702.645 744.585, 712.024 744.028, 713.529 740.284, 722.801 739.744, 724.139 735.716, 733.292 735.205, 734.452 730.883, 743.470 730.417, 744.443 725.792, 753.309 725.387, 754.086 720.449, 762.781 720.122, 763.357 714.858, 771.859 714.628, 772.231 709.025, 780.514 708.913, 780.680 702.987, 788.680 696.859, 796.205 690.538, 803.227 684.036, 809.720 677.365, 815.658 670.538, 821.016 663.568, 825.765 656.470, 829.880 649.260, 833.338 641.956, 836.114 634.574, 838.182 627.134, 839.522 619.655, 840.113 612.161, 839.934 610.158, 839.676 " fill="none" stroke="rgb(0, 0, 0)" stroke-linecap="butt" stroke-linejoin="round" stroke-opacity="1.0" stroke-width="3.0" />
            <path d=" M 790.379, 538.736 790.294, 548.735 790.273, 551.217 780.364, 549.872 779.568, 549.764 774.975, 549.140 766.603, 548.004 765.898, 547.908 765.192, 547.812 764.485, 547.716 763.778, 547.621 762.948, 547.378 762.152, 546.880 761.407, 546.136 760.727, 545.160 760.128, 543.971 759.618, 542.589 759.209, 541.043 758.909, 539.360 758.723, 537.573 758.703, 537.014 758.656, 535.718 758.708, 533.829 758.879, 531.943 759.143, 530.242 759.165, 530.098 759.561, 528.328 760.059, 526.668 760.649, 525.149 761.320, 523.802 762.058, 522.650 762.848, 521.717 763.432, 521.129 763.530, 521.031 764.212, 520.345 764.893, 519.660 765.572, 518.976 765.914, 518.634 772.971, 511.549 778.553, 505.946 785.610, 498.861 788.489, 495.971 789.244, 505.943 789.333, 507.122 789.631, 511.630 790.078, 521.620 790.093, 521.956 " fill="none" stroke="rgb(0, 0, 0)" stroke-linecap="butt" stroke-linejoin="round" stroke-opacity="1.0" stroke-width="3.0" />
            <path d=" M 764.557, 537.398 764.250, 537.240 763.972, 536.939 763.736, 536.511 763.552, 535.973 763.428, 535.350 763.369, 534.667 763.378, 533.956 763.455, 533.247 763.596, 532.572 763.795, 531.960 764.043, 531.437 764.329, 531.028 764.642, 530.750 764.965, 530.615 765.287, 530.628 " fill="none" stroke="rgb(0, 0, 0)" stroke-linecap="butt" stroke-linejoin="round" stroke-opacity="1.0" stroke-width="3.0" />
            <path d=" M 765.287, 530.628 765.594, 530.788 765.870, 531.090 766.105, 531.518 766.288, 532.054 766.412, 532.676 766.470, 533.357 766.461, 534.066 766.384, 534.772 766.244, 535.445 766.046, 536.056 765.799, 536.578 765.514, 536.988 765.202, 537.268 764.879, 537.407 764.557, 537.398 " fill="none" stroke="rgb(0, 0, 0)" stroke-linecap="butt" stroke-linejoin="round" stroke-opacity="1.0" stroke-width="3.0" />
            <path d=" M 800.516, 535.540 800.472, 545.540 800.463, 547.474 800.188, 557.470 800.103, 560.555 799.597, 570.542 799.440, 573.656 798.705, 583.629 798.475, 586.753 797.512, 596.707 797.210, 599.826 796.019, 609.754 795.647, 612.852 794.226, 622.750 793.787, 625.808 792.135, 635.671 791.632, 638.674 789.747, 648.495 789.185, 651.427 787.064, 661.199 786.447, 664.043 784.086, 673.760 783.421, 676.499 780.816, 686.154 780.110, 688.772 777.257, 698.357 776.517, 700.840 773.409, 710.344 772.646, 712.676 769.276, 722.091 768.500, 724.257 764.861, 733.571 764.085, 735.558 760.167, 744.759 759.403, 746.554 755.199, 755.627 754.462, 757.217 749.959, 766.146 749.265, 767.522 744.454, 776.288 743.821, 777.442 738.689, 786.025 738.135, 786.951 732.669, 795.324 732.216, 796.018 726.402, 804.154 726.072, 804.617 719.898, 812.483 719.712, 812.720 713.146, 820.297 706.385, 827.320 699.442, 833.760 692.329, 839.589 685.059, 844.776 677.649, 849.294 670.115, 853.116 662.473, 856.214 654.743, 858.560 646.945, 860.131 639.099, 860.904 631.228, 860.854 623.356, 859.961 615.507, 858.208 607.706, 855.580 599.982, 852.061 592.360, 847.643 584.871, 842.319 577.544, 836.087 570.408, 828.946 563.890, 821.363 563.494, 820.903 557.517, 812.886 556.832, 811.968 551.382, 803.583 550.453, 802.154 545.513, 793.460 544.388, 791.480 541.674, 786.020 539.049, 780.741 538.667, 779.973 537.701, 777.752 533.716, 768.581 533.316, 767.662 532.565, 765.675 531.267, 762.244 528.367, 754.580 525.725, 746.508 523.846, 740.768 523.418, 739.243 520.715, 729.615 519.777, 726.273 517.467, 716.543 516.184, 711.144 514.252, 701.332 513.090, 695.435 511.522, 685.559 510.513, 679.206 510.188, 676.555 508.972, 666.629 508.469, 662.523 507.596, 652.561 506.973, 645.451 504.319, 635.810 501.874, 626.928 " fill="none" stroke="rgb(0, 0, 0)" stroke-linecap="butt" stroke-linejoin="round" stroke-opacity="1.0" stroke-width="3.0" />
            <path d=" M 669.509, 285.578 661.582, 285.687 658.263, 286.086 653.551, 286.652 645.440, 288.489 637.272, 291.213 629.073, 294.838 620.871, 299.374 612.695, 304.827 604.827, 310.999 604.574, 311.198 597.166, 317.915 596.538, 318.485 589.591, 325.678 588.621, 326.683 582.127, 334.288 580.853, 335.779 574.801, 343.740 573.268, 345.757 570.095, 350.424 569.661, 351.062 565.899, 356.596 563.336, 360.799 560.797, 364.962 559.158, 367.649 558.780, 368.269 553.974, 377.038 553.891, 377.189 552.209, 380.260 551.943, 380.743 547.524, 389.714 545.422, 393.981 541.377, 403.126 540.788, 404.457 539.248, 407.940 535.565, 417.237 533.452, 422.572 530.120, 432.001 528.062, 437.823 525.072, 447.366 523.108, 453.636 520.452, 463.277 518.615, 469.949 516.287, 479.675 514.606, 486.695 512.600, 496.492 511.102, 503.805 509.415, 513.661 508.123, 521.205 508.105, 521.338 506.733, 531.243 505.684, 538.822 504.626, 548.766 503.795, 556.578 503.052, 566.551 502.468, 574.398 502.041, 584.388 501.708, 592.201 501.600, 602.201 501.517, 609.913 501.727, 619.911 501.874, 626.928 500.722, 636.862 499.651, 646.098 " fill="none" stroke="rgb(0, 0, 0)" stroke-linecap="butt" stroke-linejoin="round" stroke-opacity="1.0" stroke-width="3.0" />
            <path d=" M 501.215, 663.718 502.443, 673.642 503.345, 680.931 504.927, 690.805 506.027, 697.669 506.327, 699.181 508.276, 708.990 509.244, 713.864 511.573, 723.589 512.977, 729.453 515.699, 739.075 517.201, 744.379 520.287, 753.730 521.891, 758.592 522.570, 760.370 526.134, 769.713 527.023, 772.042 528.478, 775.362 529.821, 778.425 532.567, 784.689 535.205, 789.948 536.580, 792.687 538.492, 796.498 539.298, 797.903 544.275, 806.577 544.769, 807.439 550.259, 815.797 551.367, 817.485 557.387, 825.470 558.253, 826.618 564.817, 834.162 565.396, 834.827 572.512, 841.852 572.763, 842.100 580.323, 848.432 588.045, 853.825 595.898, 858.284 603.854, 861.815 611.883, 864.431 619.957, 866.146 628.050, 866.979 636.138, 866.948 644.195, 866.076 652.200, 864.387 660.131, 861.907 667.968, 858.660 675.692, 854.677 683.286, 849.986 690.733, 844.614 698.018, 838.591 705.128, 831.948 712.049, 824.714 718.578, 817.140 718.769, 816.918 724.927, 809.039 725.277, 808.590 731.078, 800.444 731.565, 799.760 737.020, 791.380 737.621, 790.457 742.745, 781.869 743.438, 780.707 748.244, 771.938 749.009, 770.541 753.508, 761.610 754.327, 759.985 758.530, 750.911 759.384, 749.067 763.301, 739.866 764.176, 737.812 767.817, 728.499 768.696, 726.249 772.070, 716.835 772.942, 714.401 776.054, 704.898 776.907, 702.294 779.765, 692.711 780.588, 689.953 783.198, 680.299 783.981, 677.402 786.348, 667.686 787.084, 664.665 789.211, 654.893 789.892, 651.765 791.784, 641.945 792.404, 638.725 794.063, 628.864 794.617, 625.570 796.045, 615.672 796.529, 612.320 797.727, 602.392 798.136, 598.999 799.105, 589.046 799.438, 585.630 800.179, 575.657 800.433, 572.234 800.944, 562.247 801.118, 558.833 801.398, 548.837 801.493, 545.451 801.539, 535.606 " fill="none" stroke="rgb(0, 0, 0)" stroke-linecap="butt" stroke-linejoin="round" stroke-opacity="1.0" stroke-width="3.0" />
            <path d=" M 499.651, 646.098 500.535, 656.059 501.215, 663.718 " fill="none" stroke="rgb(0, 0, 0)" stroke-linecap="butt" stroke-linejoin="round" stroke-opacity="1.0" stroke-width="3.0" />
            <path d=" M 815.578, 420.009 814.676, 415.214 812.596, 405.432 812.335, 404.203 810.015, 394.476 809.755, 393.390 807.186, 383.726 806.938, 382.791 804.113, 373.198 803.884, 372.421 800.795, 362.910 800.596, 362.296 797.233, 352.878 797.074, 352.433 793.427, 343.122 793.320, 342.849 789.376, 333.660 789.335, 333.564 785.120, 324.599 780.675, 315.974 776.004, 307.711 771.111, 299.825 765.999, 292.336 760.674, 285.262 755.138, 278.622 749.398, 272.438 743.458, 266.733 737.325, 261.530 731.004, 256.854 724.504, 252.725 717.834, 249.158 711.002, 246.173 704.020, 243.787 696.898, 242.019 689.648, 240.890 682.281, 240.418 674.813, 240.626 673.975, 240.727 667.257, 241.532 659.630, 243.148 651.947, 245.482 644.226, 248.544 636.484, 252.342 628.740, 256.883 621.015, 262.175 613.329, 268.224 607.771, 273.189 605.706, 275.033 598.649, 282.118 598.168, 282.602 591.506, 290.060 590.736, 290.921 587.048, 295.497 583.433, 299.980 577.628, 307.923 576.282, 309.765 570.746, 318.092 569.305, 320.260 566.528, 324.843 566.026, 325.671 562.526, 331.449 561.242, 333.773 558.696, 338.378 557.098, 341.269 555.970, 343.311 551.853, 351.476 550.225, 354.705 549.661, 355.825 545.486, 364.912 543.624, 368.965 541.151, 374.881 539.018, 379.983 537.883, 382.697 534.333, 392.046 532.457, 396.985 529.204, 406.442 527.365, 411.789 524.402, 421.340 522.627, 427.065 519.948, 436.700 518.260, 442.772 515.861, 452.480 514.284, 458.862 512.160, 468.634 510.714, 475.288 508.865, 485.116 507.570, 492.000 505.992, 501.874 504.862, 508.943 503.551, 518.857 503.232, 521.266 502.598, 526.062 501.553, 536.007 500.786, 543.301 500.006, 553.271 499.432, 560.604 498.920, 570.591 498.544, 577.914 498.300, 587.911 498.123, 595.175 498.150, 605.175 498.169, 612.329 498.469, 622.325 498.679, 629.322 499.258, 639.305 499.651, 646.098 500.513, 656.061 501.080, 662.605 501.215, 663.718 502.362, 673.652 502.956, 678.791 504.403, 688.686 505.269, 694.607 506.201, 699.845 507.952, 709.691 508.008, 710.007 510.074, 719.792 511.162, 724.946 513.551, 734.657 514.713, 739.383 517.436, 749.005 518.646, 753.280 519.667, 756.446 521.874, 763.290 522.943, 766.605 526.371, 775.999 527.585, 779.324 527.591, 779.340 528.880, 782.471 532.557, 791.404 534.164, 794.876 535.486, 797.735 537.838, 802.820 538.152, 803.425 542.756, 812.302 543.406, 813.554 548.430, 822.201 549.237, 823.590 554.695, 831.969 555.311, 832.914 561.217, 840.984 561.605, 841.514 567.971, 849.225 568.099, 849.380 574.772, 856.503 581.604, 862.877 588.575, 868.501 595.661, 873.382 602.843, 877.526 610.098, 880.942 617.410, 883.640 623.571, 885.308 624.759, 885.630 632.128, 886.921 639.501, 887.523 646.863, 887.447 654.197, 886.712 661.488, 885.338 668.722, 883.345 675.886, 880.754 682.967, 877.583 689.954, 873.850 696.837, 869.573 703.605, 864.768 710.248, 859.453 716.757, 853.650 723.125, 847.383 729.344, 840.674 735.407, 833.543 741.308, 826.010 747.040, 818.092 752.598, 809.806 757.883, 801.317 757.976, 801.169 762.985, 792.514 763.168, 792.198 767.912, 783.395 768.172, 782.914 772.661, 773.978 772.983, 773.337 777.226, 764.282 777.599, 763.486 781.603, 754.323 782.016, 753.377 785.789, 744.116 786.232, 743.028 789.779, 733.678 790.244, 732.453 793.569, 723.022 794.047, 721.668 797.155, 712.163 797.638, 710.685 800.534, 701.114 801.015, 699.523 803.705, 689.891 804.178, 688.197 806.666, 678.511 807.126, 676.722 809.415, 666.988 809.856, 665.115 811.950, 655.337 812.367, 653.390 814.269, 643.572 814.659, 641.560 816.369, 631.707 816.728, 629.639 818.246, 619.755 818.571, 617.640 819.900, 607.728 820.188, 605.577 821.329, 595.642 821.579, 593.465 822.534, 583.510 822.744, 581.317 823.511, 571.347 823.681, 569.148 824.260, 559.164 824.388, 556.969 824.779, 546.977 824.864, 544.796 825.065, 534.798 825.109, 532.642 825.116, 526.049 " fill="none" stroke="rgb(0, 0, 0)" stroke-linecap="butt" stroke-linejoin="round" stroke-opacity="1.0" stroke-width="3.0" />
            <path d=" M 672.584, 240.766 665.018, 241.672 657.381, 243.287 649.688, 245.620 641.957, 248.680 634.206, 252.475 626.453, 257.013 618.719, 262.300 611.024, 268.343 606.345, 272.514 603.393, 275.146 596.329, 282.224 595.846, 282.707 589.177, 290.159 588.407, 291.019 582.124, 298.798 581.097, 300.068 581.085, 300.085 575.177, 308.153 573.939, 309.843 570.992, 314.267 566.955, 320.328 566.068, 321.789 565.557, 322.632 560.922, 330.267 560.170, 331.504 558.363, 334.769 556.776, 337.634 553.609, 343.354 551.498, 347.533 549.882, 350.732 547.295, 355.854 543.114, 364.938 541.254, 368.979 538.628, 375.249 535.508, 382.697 531.952, 392.043 530.078, 396.969 529.845, 397.646 526.587, 407.101 524.984, 411.755 522.016, 421.305 520.242, 427.015 517.560, 436.648 515.874, 442.703 513.471, 452.411 511.896, 458.775 509.770, 468.547 508.326, 475.182 506.474, 485.009 505.180, 491.875 503.600, 501.749 502.473, 508.799 501.879, 513.281 501.874, 513.323 500.827, 521.231 500.209, 525.898 499.163, 535.843 498.398, 543.117 497.618, 553.087 497.045, 560.401 496.533, 570.387 496.159, 577.691 495.916, 587.688 495.740, 594.932 495.769, 604.932 495.789, 612.067 496.091, 622.063 496.303, 629.041 496.884, 639.024 497.279, 645.799 498.144, 655.761 498.711, 662.288 499.866, 672.221 500.592, 678.456 502.043, 688.350 502.910, 694.256 504.666, 704.100 505.016, 706.058 505.655, 709.640 507.726, 719.423 508.814, 724.563 511.209, 734.272 512.372, 738.986 515.101, 748.606 516.311, 752.870 518.757, 760.437 520.614, 766.182 520.935, 767.059 524.371, 776.450 525.264, 778.889 526.817, 782.653 528.110, 785.786 530.243, 790.958 533.479, 797.936 534.800, 800.784 535.532, 802.365 537.549, 806.244 541.108, 813.090 546.141, 821.732 546.948, 823.118 552.414, 831.492 553.030, 832.435 558.944, 840.499 559.333, 841.029 565.707, 848.735 565.836, 848.890 572.518, 856.010 579.360, 862.381 586.341, 868.003 593.437, 872.882 600.628, 877.026 607.893, 880.443 615.215, 883.142 622.574, 885.133 " fill="none" stroke="rgb(0, 0, 0)" stroke-linecap="butt" stroke-linejoin="round" stroke-opacity="1.0" stroke-width="3.0" />
            <path d=" M 674.813, 240.626 672.584, 240.766 " fill="none" stroke="rgb(0, 0, 0)" stroke-linecap="butt" stroke-linejoin="round" stroke-opacity="1.0" stroke-width="3.0" />
            <path d=" M 622.574, 885.133 624.759, 885.630 " fill="none" stroke="rgb(0, 0, 0)" stroke-linecap="butt" stroke-linejoin="round" stroke-opacity="1.0" stroke-width="3.0" />
            <path d=" M 481.595, 648.194 482.479, 658.155 483.272, 667.094 484.449, 677.024 485.467, 685.610 486.946, 695.500 488.170, 703.686 489.958, 713.525 491.364, 721.264 493.471, 731.040 495.034, 738.293 496.478, 744.042 498.260, 751.138 499.161, 754.725 501.938, 764.332 503.725, 770.514 503.971, 771.261 507.102, 780.759 508.704, 785.621 509.125, 786.748 510.626, 790.768 512.612, 796.086 513.044, 797.244 514.076, 800.009 514.243, 800.404 518.123, 809.621 519.207, 812.195 519.817, 813.645 520.467, 815.018 522.455, 819.219 523.735, 821.925 525.902, 826.503 526.331, 827.310 527.676, 829.843 527.989, 830.431 530.651, 835.443 532.306, 838.559 537.426, 847.148 539.003, 849.793 544.568, 858.102 545.967, 860.191 551.991, 868.173 553.173, 869.740 559.665, 877.346 560.594, 878.433 567.562, 885.606 568.205, 886.268 575.649, 892.945 575.980, 893.242 583.895, 899.359 591.926, 904.623 600.049, 909.044 608.242, 912.632 616.483, 915.400 620.819, 916.447 629.065, 918.404 637.317, 919.571 645.558, 919.966 653.769, 919.609 661.933, 918.519 670.035, 916.720 678.059, 914.232 685.992, 911.079 693.820, 907.284 701.531, 902.870 709.115, 897.862 716.559, 892.282 723.856, 886.155 730.995, 879.504 737.969, 872.353 744.623, 864.888 744.770, 864.723 751.107, 856.987 751.392, 856.639 757.421, 848.661 757.828, 848.122 763.559, 839.927 764.072, 839.194 769.516, 830.806 770.120, 829.876 775.287, 821.315 775.966, 820.190 780.866, 811.473 781.606, 810.155 786.248, 801.298 787.037, 799.792 791.429, 790.809 792.255, 789.121 796.406, 780.023 797.256, 778.159 801.173, 768.958 802.038, 766.926 805.729, 757.631 806.599, 755.439 810.068, 746.060 810.936, 743.716 814.190, 734.261 815.046, 731.775 818.091, 722.250 818.928, 719.631 821.768, 710.043 822.580, 707.301 825.219, 697.655 826.000, 694.801 828.443, 685.104 829.188, 682.146 831.437, 672.402 832.141, 669.352 834.199, 659.566 834.858, 656.433 836.727, 646.610 837.337, 643.405 839.021, 633.547 839.579, 630.281 841.078, 620.394 841.581, 617.075 842.897, 607.162 843.343, 603.803 844.476, 593.868 844.862, 590.478 845.814, 580.523 846.140, 577.113 846.909, 567.142 847.173, 563.722 847.760, 553.739 847.962, 550.320 848.367, 540.328 848.505, 536.919 848.726, 526.922 848.801, 523.535 848.837, 513.535 848.849, 510.180 848.699, 500.181 848.649, 496.869 848.310, 486.875 848.199, 483.616 847.669, 473.630 847.499, 470.435 846.773, 460.461 846.547, 457.341 845.623, 447.384 845.342, 444.349 844.217, 434.412 843.884, 431.473 842.552, 421.562 842.172, 418.730 840.629, 408.850 840.205, 406.135 838.445, 396.291 837.982, 393.705 835.999, 383.903 835.504, 381.455 833.290, 371.703 832.768, 369.403 830.318, 359.708 829.776, 357.566 827.080, 347.937 826.527, 345.963 823.576, 336.409 823.022, 334.612 819.806, 325.143 819.259, 323.532 815.769, 314.161 815.240, 312.742 811.464, 303.482 810.966, 302.262 806.892, 293.130 806.438, 292.114 802.052, 283.127 801.657, 282.318 796.947, 273.497 796.625, 272.895 791.576, 264.264 791.345, 263.869 785.942, 255.454 785.818, 255.261 780.049, 247.096 774.041, 239.396 767.799, 232.185 761.327, 225.489 754.631, 219.331 747.719, 213.736 740.598, 208.730 733.275, 204.337 725.760, 200.582 718.063, 197.489 710.195, 195.084 702.169, 193.389 693.998, 192.427 685.696, 192.221 677.280, 192.791 672.846, 193.161 664.308, 194.528 655.691, 196.707 647.012, 199.716 638.294, 203.567 629.557, 208.274 621.127, 213.653 620.824, 213.846 612.786, 219.796 612.119, 220.290 604.484, 226.748 603.466, 227.609 596.237, 234.519 594.892, 235.805 588.066, 243.114 586.422, 244.874 579.994, 252.535 578.084, 254.811 577.901, 255.052 577.894, 255.062 577.877, 255.084 571.838, 263.055 569.906, 265.604 564.245, 273.848 561.915, 277.240 558.691, 282.408 558.048, 283.439 556.294, 286.250 554.557, 289.035 554.141, 289.701 553.602, 290.651 553.204, 291.352 552.051, 293.382 548.964, 298.819 547.409, 301.557 546.612, 302.962 546.565, 303.052 545.006, 306.068 540.414, 314.951 539.355, 316.998 538.775, 318.231 537.244, 321.485 533.647, 329.129 532.400, 331.778 528.466, 340.971 525.774, 347.264 524.527, 350.476 520.908, 359.799 519.503, 363.418 516.190, 372.853 513.613, 380.195 510.600, 389.730 508.129, 397.547 505.408, 407.169 503.075, 415.422 500.640, 425.121 498.471, 433.764 496.690, 441.840 494.623, 451.217 494.337, 452.516 492.462, 462.339 490.691, 471.616 489.091, 481.487 487.550, 490.999 486.222, 500.911 485.359, 507.357 484.925, 510.600 484.754, 512.209 484.751, 512.233 484.284, 516.629 483.980, 519.494 483.963, 519.658 483.951, 519.766 483.942, 519.849 482.887, 529.793 482.827, 530.353 482.042, 540.322 481.266, 550.187 480.752, 560.174 480.245, 570.035 480.005, 580.032 479.769, 589.828 479.804, 599.827 479.838, 609.496 480.151, 619.491 480.448, 628.974 480.630, 632.017 481.226, 642.000 481.595, 648.194 " fill="none" stroke="rgb(0, 0, 0)" stroke-linecap="butt" stroke-linejoin="round" stroke-opacity="1.0" stroke-width="3.0" />
            <path d=" M 677.280, 192.791 668.765, 194.157 660.169, 196.338 651.513, 199.349 642.816, 203.205 634.100, 207.919 625.679, 213.312 625.387, 213.499 617.360, 219.463 616.701, 219.953 609.079, 226.426 608.068, 227.285 600.852, 234.209 599.511, 235.496 592.700, 242.818 591.059, 244.582 584.645, 252.255 582.737, 254.538 580.701, 257.235 580.679, 257.265 580.667, 257.280 574.643, 265.262 574.574, 265.352 568.928, 273.606 566.598, 277.012 561.319, 285.505 559.849, 287.872 559.219, 288.885 558.838, 289.498 557.073, 292.618 554.426, 297.297 552.876, 300.038 551.321, 302.788 547.488, 310.229 545.920, 313.273 544.076, 316.854 539.830, 325.908 537.131, 331.665 534.703, 337.361 530.781, 346.560 530.514, 347.186 526.906, 356.512 524.251, 363.375 522.492, 368.404 519.190, 377.843 518.368, 380.190 515.364, 389.728 512.890, 397.581 510.177, 407.206 507.840, 415.497 505.413, 425.198 503.240, 433.882 501.093, 443.649 499.109, 452.677 497.239, 462.500 495.465, 471.821 495.016, 474.592 493.420, 484.464 492.323, 491.249 491.348, 498.545 490.159, 507.435 489.697, 510.896 489.437, 513.348 489.080, 516.712 488.759, 519.743 488.698, 520.311 487.644, 530.255 487.597, 530.693 487.124, 536.712 486.339, 546.681 486.032, 550.573 485.918, 552.806 485.403, 562.793 485.008, 570.467 484.765, 580.464 484.527, 590.304 484.558, 600.304 484.589, 610.017 484.897, 620.013 485.192, 629.539 485.782, 639.521 485.926, 641.963 486.330, 648.802 487.207, 658.763 487.997, 667.742 489.167, 677.674 489.903, 683.924 490.109, 685.669 490.183, 686.299 491.652, 696.191 492.874, 704.413 494.652, 714.254 496.056, 722.028 498.152, 731.806 498.786, 734.765 499.713, 739.092 502.137, 748.794 503.826, 755.556 506.590, 765.167 508.376, 771.376 511.492, 780.878 512.574, 784.178 513.339, 786.511 514.571, 789.826 518.047, 799.180 518.695, 800.925 520.891, 806.165 522.148, 809.166 524.419, 814.586 527.786, 821.732 529.077, 824.472 530.487, 827.465 531.972, 830.274 536.647, 839.114 536.872, 839.540 541.976, 848.139 543.550, 850.791 549.099, 859.110 550.495, 861.203 556.503, 869.197 557.681, 870.765 564.159, 878.383 565.082, 879.468 572.037, 886.654 572.672, 887.310 580.104, 894.001 580.426, 894.290 588.320, 900.410 596.329, 905.677 604.430, 910.097 612.601, 913.683 620.819, 916.447 " fill="none" stroke="rgb(0, 0, 0)" stroke-linecap="butt" stroke-linejoin="round" stroke-opacity="1.0" stroke-width="3.0" />
            <path d=" M 729.930, 518.284 729.057, 518.286 728.712, 518.375 728.172, 518.514 727.514, 518.850 727.291, 518.964 726.427, 519.629 725.630, 520.501 725.292, 521.006 724.917, 521.566 724.265, 522.803 723.687, 524.192 723.192, 525.710 722.788, 527.329 722.680, 527.934 722.484, 529.024 722.310, 530.531 722.283, 530.763 722.191, 532.519 722.207, 534.259 " fill="none" stroke="rgb(0, 0, 0)" stroke-linecap="butt" stroke-linejoin="round" stroke-opacity="1.0" stroke-width="3.0" />
            <path d=" M 728.892, 528.325 729.148, 528.403 729.390, 528.570 729.611, 528.821 729.805, 529.150 729.967, 529.548 730.093, 530.004 730.178, 530.505 730.222, 531.038 " fill="none" stroke="rgb(0, 0, 0)" stroke-linecap="butt" stroke-linejoin="round" stroke-opacity="1.0" stroke-width="3.0" />
            <path d=" M 727.135, 530.840 730.222, 531.038 739.500, 527.308 748.779, 523.578 749.726, 523.197 " fill="none" stroke="rgb(0, 0, 0)" stroke-linecap="butt" stroke-linejoin="round" stroke-opacity="1.0" stroke-width="3.0" />
            <path d=" M 803.078, 522.567 802.247, 522.574 801.404, 522.813 800.561, 523.282 799.733, 523.971 799.575, 524.158 798.970, 524.874 798.647, 525.397 798.289, 525.976 797.666, 527.255 797.110, 528.691 796.633, 530.259 796.241, 531.931 796.134, 532.556 795.942, 533.680 795.768, 535.236 795.742, 535.476 795.643, 537.287 795.647, 539.082 " fill="none" stroke="rgb(0, 0, 0)" stroke-linecap="butt" stroke-linejoin="round" stroke-opacity="1.0" stroke-width="3.0" />
            <path d=" M 802.002, 532.925 802.243, 533.004 802.470, 533.174 802.677, 533.432 802.859, 533.771 803.009, 534.180 803.125, 534.649 803.202, 535.165 803.240, 535.714 " fill="none" stroke="rgb(0, 0, 0)" stroke-linecap="butt" stroke-linejoin="round" stroke-opacity="1.0" stroke-width="3.0" />
            <path d=" M 780.811, 482.673 780.961, 482.618 781.118, 482.588 781.279, 482.582 781.498, 482.614 781.711, 482.692 781.909, 482.811 782.086, 482.968 782.233, 483.157 782.347, 483.373 782.423, 483.610 782.456, 483.863 782.442, 484.100 782.387, 484.326 782.291, 484.532 782.159, 484.712 781.996, 484.858 781.805, 484.966 " fill="none" stroke="rgb(0, 0, 0)" stroke-linecap="butt" stroke-linejoin="round" stroke-opacity="1.0" stroke-width="3.0" />
            <path d=" M 780.811, 482.673 780.612, 482.782 780.433, 482.931 780.406, 482.960 780.255, 483.148 780.143, 483.362 780.075, 483.598 780.057, 483.851 780.088, 484.088 780.100, 484.127 780.177, 484.351 780.297, 484.555 780.455, 484.732 780.646, 484.874 780.679, 484.895 780.887, 484.991 780.928, 485.004 781.137, 485.050 781.167, 485.056 781.203, 485.060 781.246, 485.063 781.296, 485.064 781.347, 485.063 781.397, 485.061 781.446, 485.057 781.491, 485.052 781.532, 485.046 781.566, 485.038 781.754, 484.981 781.805, 484.966 " fill="none" stroke="rgb(0, 0, 0)" stroke-linecap="butt" stroke-linejoin="round" stroke-opacity="1.0" stroke-width="3.0" />
            <path d=" M 778.381, 480.615 778.588, 486.769 782.375, 486.936 784.263, 487.019 784.915, 486.615 784.207, 480.797 781.732, 480.641 778.813, 480.457 778.381, 480.615 " fill="none" stroke="rgb(0, 0, 0)" stroke-linecap="butt" stroke-linejoin="round" stroke-opacity="1.0" stroke-width="3.0" />
            <path d=" M 784.263, 487.019 784.060, 480.851 " fill="none" stroke="rgb(0, 0, 0)" stroke-linecap="butt" stroke-linejoin="round" stroke-opacity="1.0" stroke-width="3.0" />
            <path d=" M 784.207, 480.797 784.060, 480.851 778.381, 480.615 " fill="none" stroke="rgb(0, 0, 0)" stroke-linecap="butt" stroke-linejoin="round" stroke-opacity="1.0" stroke-width="3.0" />
            <path d=" M 740.506, 513.565 739.154, 513.528 729.155, 513.383 727.653, 513.361 717.653, 513.333 716.169, 513.328 706.169, 513.405 704.698, 513.417 694.699, 513.588 693.234, 513.613 683.237, 513.869 681.772, 513.906 671.777, 514.235 670.308, 514.284 660.315, 514.675 658.836, 514.733 648.846, 515.177 647.353, 515.244 637.365, 515.731 635.853, 515.805 625.867, 516.324 624.332, 516.404 614.347, 516.947 612.785, 517.032 602.800, 517.589 601.207, 517.677 591.223, 518.239 589.594, 518.330 579.609, 518.888 577.941, 518.981 578.116, 508.982 578.196, 504.395 578.255, 494.395 578.282, 489.807 578.226, 479.807 578.201, 475.235 578.028, 465.237 577.950, 460.699 577.661, 450.703 577.531, 446.217 577.122, 436.225 576.941, 431.808 576.411, 421.822 576.182, 417.493 575.528, 407.514 575.251, 403.291 574.470, 393.322 574.149, 389.225 573.850, 385.959 " fill="none" stroke="rgb(0, 0, 0)" stroke-linecap="butt" stroke-linejoin="round" stroke-opacity="1.0" stroke-width="3.0" />
            <path d=" M 577.605, 254.816 570.633, 248.878 563.453, 241.918 562.833, 241.317 556.090, 233.932 555.368, 233.143 549.060, 225.383 548.253, 224.391 546.535, 222.026 541.498, 215.092 541.267, 214.738 540.976, 214.291 537.958, 209.652 535.110, 205.276 531.477, 199.048 529.096, 194.968 " fill="none" stroke="rgb(0, 0, 0)" stroke-linecap="butt" stroke-linejoin="round" stroke-opacity="1.0" stroke-width="3.0" />
            <path d=" M 529.096, 194.968 527.958, 193.027 524.953, 187.905 520.663, 181.553 520.012, 180.730 516.232, 175.952 516.056, 175.766 511.667, 171.142 506.976, 167.168 502.505, 164.285 502.168, 164.068 499.696, 162.967 497.253, 161.880 492.243, 160.646 487.149, 160.405 481.986, 161.192 476.769, 163.039 472.453, 165.455 471.513, 165.982 471.243, 166.190 466.237, 170.047 465.737, 170.541 460.959, 175.257 455.698, 181.631 453.669, 184.569 453.411, 184.942 450.478, 189.187 447.630, 194.014 445.319, 197.931 440.770, 206.836 440.244, 207.864 436.166, 216.995 435.278, 218.982 431.620, 228.289 430.447, 231.275 427.163, 240.720 425.773, 244.719 422.827, 254.275 421.283, 259.285 418.644, 268.930 417.002, 274.935 414.645, 284.654 412.955, 291.625 410.859, 301.403 409.166, 309.297 407.312, 319.124 405.659, 327.886 404.033, 337.753 402.456, 347.319 401.045, 357.219 399.635, 367.119 399.578, 367.516 398.372, 377.443 397.167, 387.370 397.044, 388.385 396.035, 398.334 395.026, 408.283 394.870, 409.830 394.052, 419.797 393.234, 429.763 393.071, 431.750 392.440, 441.730 391.808, 451.710 391.661, 454.038 391.211, 464.028 390.762, 474.018 390.646, 476.581 390.377, 486.578 390.107, 496.574 390.035, 499.266 390.064, 499.323 394.619, 508.225 395.744, 510.425 397.104, 512.963 401.539, 521.245 406.428, 529.969 407.422, 531.743 412.478, 540.370 413.392, 541.930 418.617, 550.457 419.453, 551.822 424.845, 560.244 425.604, 561.430 431.163, 569.743 431.848, 570.767 437.573, 578.967 438.186, 579.845 444.075, 587.928 444.620, 588.676 450.671, 596.638 451.152, 597.271 457.361, 605.109 457.782, 605.640 464.148, 613.352 464.512, 613.794 471.031, 621.377 471.346, 621.742 478.014, 629.195 478.283, 629.496 480.630, 632.017 " fill="none" stroke="rgb(0, 0, 0)" stroke-linecap="butt" stroke-linejoin="round" stroke-opacity="1.0" stroke-width="3.0" />
            <path d=" M 360.326, 489.965 355.969, 498.966 353.551, 503.959 " fill="none" stroke="rgb(0, 0, 0)" stroke-linecap="butt" stroke-linejoin="round" stroke-opacity="1.0" stroke-width="3.0" />
            <path d=" M 472.453, 165.455 467.773, 165.659 " fill="none" stroke="rgb(0, 0, 0)" stroke-linecap="butt" stroke-linejoin="round" stroke-opacity="1.0" stroke-width="3.0" />
            <path d=" M 534.207, 485.477 534.341, 485.554 " fill="none" stroke="rgb(0, 0, 0)" stroke-linecap="butt" stroke-linejoin="round" stroke-opacity="1.0" stroke-width="3.0" />
            <path d=" M 534.403, 485.578 534.488, 485.612 " fill="none" stroke="rgb(0, 0, 0)" stroke-linecap="butt" stroke-linejoin="round" stroke-opacity="1.0" stroke-width="3.0" />
            <path d=" M 577.901, 255.052 577.605, 254.816 573.638, 251.655 " fill="none" stroke="rgb(0, 0, 0)" stroke-linecap="butt" stroke-linejoin="round" stroke-opacity="1.0" stroke-width="3.0" />
        </g>
    </g>
</svg>
