<?xml version='1.0' encoding='ascii'?>
<svg xmlns="http://www.w3.org/2000/svg" height="1080" version="1.1" width="1080">
    <g id="View Layer_LineSet" inkscape:groupmode="lineset" inkscape:label="View Layer_LineSet" xmlns:inkscape="http://www.inkscape.org/namespaces/inkscape">
        <g id="strokes" inkscape:groupmode="layer" inkscape:label="strokes" xmlns:inkscape="http://www.inkscape.org/namespaces/inkscape">
            <path d=" M 565.329, 505.421 565.262, 506.543 565.177, 507.631 565.076, 508.649 " fill="none" stroke="rgb(0, 0, 0)" stroke-linecap="butt" stroke-linejoin="round" stroke-opacity="1.0" stroke-width="3.0" />
            <path d=" M 353.902, 489.635 360.289, 489.208 " fill="none" stroke="rgb(0, 0, 0)" stroke-linecap="butt" stroke-linejoin="round" stroke-opacity="1.0" stroke-width="3.0" />
            <path d=" M 378.242, 489.460 388.226, 490.031 390.271, 490.148 " fill="none" stroke="rgb(0, 0, 0)" stroke-linecap="butt" stroke-linejoin="round" stroke-opacity="1.0" stroke-width="3.0" />
            <path d=" M 390.271, 490.148 386.411, 480.922 382.552, 471.697 381.672, 469.592 " fill="none" stroke="rgb(0, 0, 0)" stroke-linecap="butt" stroke-linejoin="round" stroke-opacity="1.0" stroke-width="3.0" />
            <path d=" M 464.981, 160.595 460.447, 161.592 455.862, 163.691 451.241, 166.925 446.601, 171.321 441.957, 176.905 439.730, 180.174 438.645, 181.768 437.330, 183.697 432.737, 191.714 428.332, 200.691 428.200, 200.959 424.282, 210.159 423.739, 211.434 420.246, 220.804 419.378, 223.134 416.257, 232.635 415.137, 236.043 412.346, 245.646 411.042, 250.135 408.546, 259.819 407.113, 265.377 404.886, 275.126 403.377, 281.729 401.393, 291.530 399.854, 299.134 398.095, 308.978 396.566, 317.531 395.017, 327.410 393.536, 336.847 392.183, 346.755 390.830, 356.663 390.784, 357.003 389.616, 366.935 388.449, 376.867 388.326, 377.907 387.336, 387.858 386.346, 397.809 386.181, 399.462 385.361, 409.428 384.541, 419.395 384.363, 421.563 383.708, 431.542 383.053, 441.520 382.884, 444.100 382.390, 454.088 381.896, 464.076 381.754, 466.958 381.672, 469.592 379.971, 479.447 378.242, 489.460 " fill="none" stroke="rgb(0, 0, 0)" stroke-linecap="butt" stroke-linejoin="round" stroke-opacity="1.0" stroke-width="3.0" />
            <path d=" M 529.946, 721.562 530.609, 718.070 532.324, 708.219 532.796, 705.508 534.370, 695.633 534.690, 693.627 534.847, 692.641 536.288, 682.746 536.762, 679.496 538.077, 669.582 538.540, 666.095 539.737, 656.167 540.183, 652.466 541.266, 642.525 541.690, 638.630 542.663, 628.678 543.061, 624.611 543.929, 614.649 544.297, 610.429 545.063, 600.458 545.397, 596.107 546.064, 586.129 546.363, 581.664 546.933, 571.680 547.193, 567.121 547.669, 557.132 547.889, 552.497 548.271, 542.504 548.451, 537.812 548.741, 527.817 548.878, 523.086 555.405, 523.161 557.252, 523.182 557.354, 523.184 559.139, 523.204 562.710, 523.246 563.547, 523.255 564.497, 523.266 567.062, 523.296 577.061, 523.412 577.846, 523.421 578.050, 513.423 578.149, 508.594 578.236, 498.595 578.278, 493.758 578.248, 483.758 578.234, 478.933 578.086, 468.934 578.015, 464.137 577.748, 454.140 577.621, 449.391 577.234, 439.399 577.052, 434.716 576.543, 424.729 576.308, 420.133 575.673, 410.153 575.387, 405.661 574.623, 395.691 574.289, 391.325 574.219, 390.552 " fill="none" stroke="rgb(0, 0, 0)" stroke-linecap="butt" stroke-linejoin="round" stroke-opacity="1.0" stroke-width="3.0" />
            <path d=" M 571.267, 395.673 571.328, 396.344 572.099, 406.314 572.389, 410.060 573.031, 420.039 573.280, 423.912 573.795, 433.898 574.001, 437.876 574.392, 447.869 574.551, 451.933 574.822, 461.929 574.933, 466.060 575.083, 476.059 575.146, 480.239 575.178, 490.239 575.191, 494.448 575.104, 504.447 575.068, 508.667 575.045, 509.764 574.956, 510.444 574.858, 511.087 574.753, 511.689 574.641, 512.246 574.523, 512.756 574.400, 513.216 574.271, 513.624 574.139, 513.976 574.004, 514.272 573.865, 514.510 573.725, 514.688 573.584, 514.805 573.443, 514.861 573.303, 514.856 569.298, 513.813 569.143, 512.575 568.959, 511.480 568.750, 510.545 568.519, 509.788 568.269, 509.220 568.006, 508.853 567.732, 508.692 567.321, 508.686 565.291, 508.653 565.076, 508.649 564.759, 508.644 563.805, 508.629 562.972, 508.615 559.400, 508.558 557.615, 508.529 557.520, 508.527 557.349, 508.525 557.060, 508.574 556.770, 508.833 556.485, 509.299 556.210, 509.963 555.948, 510.815 555.705, 511.841 555.626, 512.265 555.485, 513.024 555.292, 514.344 555.128, 515.778 554.998, 517.302 554.902, 518.890 554.844, 520.515 555.456, 520.650 556.520, 520.886 557.299, 520.900 557.400, 520.902 557.629, 520.906 559.185, 520.934 562.756, 520.997 563.592, 521.012 564.543, 521.029 565.032, 521.037 566.925, 521.071 566.944, 520.557 566.978, 520.061 567.025, 519.596 567.084, 519.175 567.153, 518.809 567.153, 518.807 567.230, 518.508 567.313, 518.281 567.401, 518.133 567.490, 518.069 " fill="none" stroke="rgb(0, 0, 0)" stroke-linecap="butt" stroke-linejoin="round" stroke-opacity="1.0" stroke-width="3.0" />
            <path d=" M 567.990, 521.316 574.777, 522.878 577.846, 523.421 " fill="none" stroke="rgb(0, 0, 0)" stroke-linecap="butt" stroke-linejoin="round" stroke-opacity="1.0" stroke-width="3.0" />
            <path d=" M 387.798, 229.691 385.794, 236.426 383.242, 246.095 382.114, 250.372 379.828, 260.107 378.569, 265.471 376.524, 275.260 375.181, 281.685 373.354, 291.517 371.969, 298.964 370.342, 308.830 368.953, 317.245 367.511, 327.141 366.152, 336.463 364.884, 346.382 363.615, 356.302 363.585, 356.540 362.479, 366.479 361.374, 376.417 361.266, 377.387 360.317, 387.341 359.367, 397.296 359.213, 398.909 358.413, 408.877 357.613, 418.845 357.439, 421.007 356.784, 430.985 356.128, 440.964 355.957, 443.570 355.442, 453.557 354.927, 463.544 354.775, 466.485 354.398, 476.478 354.021, 486.471 353.902, 489.635 353.707, 499.633 353.513, 509.631 353.451, 512.832 353.415, 522.831 353.379, 532.831 353.368, 535.996 353.492, 545.995 353.616, 555.994 353.653, 559.006 353.939, 569.002 354.225, 578.998 354.304, 581.742 354.756, 591.732 355.207, 601.722 355.315, 604.088 355.937, 614.069 356.560, 624.050 356.678, 625.933 357.478, 635.901 358.279, 645.869 358.383, 647.170 359.370, 657.122 360.357, 667.073 360.420, 667.701 361.604, 677.630 362.772, 687.433 364.166, 697.335 365.425, 706.285 367.044, 716.153 368.361, 724.184 370.223, 734.009 371.391, 740.168 " fill="none" stroke="rgb(0, 0, 0)" stroke-linecap="butt" stroke-linejoin="round" stroke-opacity="1.0" stroke-width="3.0" />
            <path d=" M 522.672, 541.038 522.282, 550.545 521.764, 560.532 521.553, 564.588 520.924, 574.568 520.673, 578.549 519.932, 588.522 519.643, 592.410 518.788, 602.373 518.463, 606.149 517.490, 616.102 517.134, 619.747 517.076, 620.272 " fill="none" stroke="rgb(0, 0, 0)" stroke-linecap="butt" stroke-linejoin="round" stroke-opacity="1.0" stroke-width="3.0" />
            <path d=" M 495.752, 742.935 495.746, 742.956 493.059, 752.588 492.820, 753.445 489.901, 763.010 489.756, 763.487 486.558, 773.050 483.228, 782.104 479.771, 790.613 476.190, 798.541 472.490, 805.855 468.676, 812.519 464.753, 818.495 460.728, 823.744 456.608, 828.230 452.943, 831.442 " fill="none" stroke="rgb(0, 0, 0)" stroke-linecap="butt" stroke-linejoin="round" stroke-opacity="1.0" stroke-width="3.0" />
            <path d=" M 390.440, 484.945 390.271, 490.148 390.082, 500.146 389.894, 510.144 389.835, 513.288 389.807, 523.288 389.779, 533.288 389.770, 536.396 389.903, 546.395 390.036, 556.394 390.075, 559.352 390.371, 569.348 390.666, 579.343 390.746, 582.037 391.208, 592.026 391.670, 602.016 391.777, 604.335 392.408, 614.315 393.040, 624.295 393.156, 626.135 393.963, 636.103 394.770, 646.070 394.872, 647.333 395.862, 657.284 396.851, 667.235 396.910, 667.829 398.091, 677.759 399.254, 687.531 400.637, 697.435 401.884, 706.360 403.483, 716.231 404.780, 724.240 406.611, 734.070 407.922, 741.105 410.006, 750.885 411.288, 756.901 413.648, 766.618 414.854, 771.584 417.522, 781.221 418.599, 785.115 421.611, 794.651 422.501, 797.467 425.902, 806.871 426.536, 808.623 430.382, 817.854 430.682, 818.573 434.918, 827.311 439.225, 834.843 440.983, 837.400 441.250, 837.789 443.582, 841.181 447.970, 846.341 452.373, 850.344 456.773, 853.215 461.155, 854.987 465.507, 855.692 469.813, 855.363 474.062, 854.041 478.243, 851.765 482.348, 848.574 485.672, 845.210 486.367, 844.508 490.292, 839.610 494.117, 833.923 497.835, 827.484 501.440, 820.335 504.930, 812.517 508.299, 804.069 511.448, 795.292 " fill="none" stroke="rgb(0, 0, 0)" stroke-linecap="butt" stroke-linejoin="round" stroke-opacity="1.0" stroke-width="3.0" />
            <path d=" M 465.437, 837.357 461.717, 836.560 461.365, 836.485 457.279, 834.603 453.191, 831.685 452.943, 831.442 449.117, 827.702 445.071, 822.633 441.070, 816.460 437.130, 809.172 433.269, 800.759 429.600, 791.457 429.506, 791.219 426.269, 781.758 425.859, 780.560 422.999, 770.978 422.347, 768.793 419.820, 759.117 418.989, 755.935 416.759, 746.186 415.805, 742.014 413.842, 732.209 412.812, 727.068 411.092, 717.217 410.031, 711.139 408.534, 701.251 407.478, 694.277 406.187, 684.361 405.170, 676.546 404.073, 666.607 403.124, 658.015 402.209, 648.057 401.354, 638.757 400.612, 628.785 399.873, 618.859 399.297, 608.875 398.721, 598.892 398.693, 598.410 398.276, 588.418 397.860, 578.427 397.821, 577.507 397.561, 567.511 397.300, 557.514 397.267, 556.252 397.159, 546.252 397.051, 536.253 397.035, 534.749 397.078, 524.749 397.120, 514.749 397.127, 513.108 397.319, 503.110 397.366, 500.693 " fill="none" stroke="rgb(0, 0, 0)" stroke-linecap="butt" stroke-linejoin="round" stroke-opacity="1.0" stroke-width="3.0" />
            <path d=" M 508.018, 785.541 506.276, 790.222 503.008, 798.129 499.633, 805.421 496.156, 812.066 492.581, 818.023 488.915, 823.255 485.165, 827.727 481.338, 831.400 477.442, 834.236 473.487, 836.196 469.482, 837.249 465.437, 837.357 " fill="none" stroke="rgb(0, 0, 0)" stroke-linecap="butt" stroke-linejoin="round" stroke-opacity="1.0" stroke-width="3.0" />
            <path d=" M 546.320, 522.555 546.026, 532.551 545.905, 536.669 545.513, 546.661 545.353, 550.740 544.862, 560.727 544.664, 564.749 544.073, 574.732 543.839, 578.678 543.145, 588.654 542.877, 592.507 542.078, 602.475 541.779, 606.214 540.873, 616.173 540.545, 619.780 539.530, 629.729 539.177, 633.184 538.047, 643.120 537.673, 646.403 536.425, 656.325 536.036, 659.417 534.664, 669.322 534.265, 672.201 532.763, 682.087 532.361, 684.731 531.773, 688.268 530.325, 696.983 528.540, 706.823 528.157, 708.933 527.570, 711.903 " fill="none" stroke="rgb(0, 0, 0)" stroke-linecap="butt" stroke-linejoin="round" stroke-opacity="1.0" stroke-width="3.0" />
            <path d=" M 548.878, 523.086 546.320, 522.555 555.415, 522.659 557.262, 522.680 562.721, 522.742 564.508, 522.762 564.996, 522.768 564.510, 522.660 563.563, 522.450 562.730, 522.265 559.174, 521.475 557.627, 521.131 557.629, 520.906 " fill="none" stroke="rgb(0, 0, 0)" stroke-linecap="butt" stroke-linejoin="round" stroke-opacity="1.0" stroke-width="3.0" />
            <path d=" M 378.242, 489.460 378.051, 499.458 377.859, 509.456 377.781, 513.550 377.747, 523.550 377.713, 533.550 377.699, 537.607 377.823, 547.606 377.947, 557.605 377.995, 561.500 378.279, 571.496 378.563, 581.492 378.666, 585.104 379.114, 595.094 379.562, 605.084 379.706, 608.297 380.322, 618.278 380.939, 628.259 381.106, 630.960 381.896, 640.929 382.687, 650.898 382.852, 652.984 383.826, 662.937 384.799, 672.889 384.933, 674.263 386.099, 684.195 387.264, 694.127 387.332, 694.701 388.701, 704.607 390.029, 714.214 391.617, 724.087 393.006, 732.724 394.831, 742.556 396.243, 750.162 398.326, 759.943 399.717, 766.474 402.083, 776.190 403.405, 781.614 406.088, 791.247 407.284, 795.543 410.324, 805.070 411.333, 808.235 414.776, 817.623 415.528, 819.673 419.434, 828.878 419.846, 829.849 424.265, 838.761 428.765, 846.415 433.324, 852.826 437.923, 858.014 442.544, 862.002 447.169, 864.818 451.783, 866.499 456.369, 867.079 460.914, 866.594 465.406, 865.088 469.832, 862.603 474.183, 859.179 478.447, 854.861 482.618, 849.694 " fill="none" stroke="rgb(0, 0, 0)" stroke-linecap="butt" stroke-linejoin="round" stroke-opacity="1.0" stroke-width="3.0" />
            <path d=" M 482.618, 849.694 488.674, 841.737 490.292, 839.610 " fill="none" stroke="rgb(0, 0, 0)" stroke-linecap="butt" stroke-linejoin="round" stroke-opacity="1.0" stroke-width="3.0" />
            <path d=" M 539.602, 547.742 529.607, 548.063 528.183, 548.109 525.320, 543.735 522.834, 539.938 " fill="none" stroke="rgb(0, 0, 0)" stroke-linecap="butt" stroke-linejoin="round" stroke-opacity="1.0" stroke-width="3.0" />
            <path d=" M 531.522, 496.649 540.855, 497.152 540.764, 507.151 540.673, 517.151 540.625, 522.491 540.284, 532.485 540.143, 536.612 539.657, 546.600 539.602, 547.742 534.283, 539.273 531.049, 534.125 530.789, 533.710 530.527, 533.294 530.266, 532.877 530.005, 532.460 529.704, 531.851 529.423, 531.025 529.170, 529.997 529.011, 529.122 528.950, 528.787 528.769, 527.419 528.628, 525.917 528.532, 524.312 528.511, 523.606 528.481, 522.633 528.477, 520.914 528.520, 519.187 528.609, 517.487 528.617, 517.399 528.743, 515.846 528.918, 514.296 529.131, 512.867 529.329, 511.839 529.378, 511.587 529.654, 510.479 529.954, 509.564 530.272, 508.860 530.600, 508.380 530.879, 508.074 531.158, 507.768 531.437, 507.462 531.716, 507.157 531.857, 507.004 538.601, 499.620 540.855, 497.152 " fill="none" stroke="rgb(0, 0, 0)" stroke-linecap="butt" stroke-linejoin="round" stroke-opacity="1.0" stroke-width="3.0" />
            <path d=" M 530.916, 523.650 530.790, 523.626 530.670, 523.468 530.561, 523.181 530.467, 522.777 530.394, 522.276 530.345, 521.700 530.321, 521.072 530.324, 520.422 530.353, 519.777 530.408, 519.165 530.485, 518.615 530.582, 518.149 530.694, 517.788 530.816, 517.548 530.943, 517.439 " fill="none" stroke="rgb(0, 0, 0)" stroke-linecap="butt" stroke-linejoin="round" stroke-opacity="1.0" stroke-width="3.0" />
            <path d=" M 530.943, 517.439 531.069, 517.467 531.189, 517.629 531.297, 517.918 531.390, 518.321 531.462, 518.820 531.512, 519.395 531.535, 520.020 531.532, 520.668 531.503, 521.311 531.449, 521.920 531.372, 522.469 531.276, 522.935 531.164, 523.297 531.043, 523.539 530.916, 523.650 " fill="none" stroke="rgb(0, 0, 0)" stroke-linecap="butt" stroke-linejoin="round" stroke-opacity="1.0" stroke-width="3.0" />
            <path d=" M 362.455, 439.191 362.138, 444.284 361.657, 454.272 361.176, 464.261 361.060, 466.662 360.752, 475.665 360.410, 485.659 360.289, 489.208 360.085, 499.206 359.881, 509.203 359.827, 511.829 359.761, 521.829 359.695, 531.829 359.678, 534.436 359.750, 544.436 359.822, 554.436 359.840, 556.939 359.896, 559.590 " fill="none" stroke="rgb(0, 0, 0)" stroke-linecap="butt" stroke-linejoin="round" stroke-opacity="1.0" stroke-width="3.0" />
            <path d=" M 536.317, 743.529 538.037, 734.021 539.698, 724.159 540.046, 722.089 541.593, 712.210 541.947, 709.947 543.385, 700.051 543.740, 697.611 545.074, 687.701 545.424, 685.096 546.658, 675.173 547.000, 672.417 548.137, 662.482 548.468, 659.588 549.511, 649.643 549.827, 646.624 550.779, 636.669 551.079, 633.536 551.942, 623.574 552.222, 620.339 552.998, 610.369 553.257, 607.045 553.948, 597.069 554.184, 593.666 554.792, 583.684 555.003, 580.213 555.528, 570.227 555.714, 566.699 556.158, 556.709 556.317, 553.135 556.680, 543.142 556.811, 539.532 557.094, 529.536 557.197, 525.902 557.252, 523.182 " fill="none" stroke="rgb(0, 0, 0)" stroke-linecap="butt" stroke-linejoin="round" stroke-opacity="1.0" stroke-width="3.0" />
            <path d=" M 457.665, 901.863 460.090, 902.026 464.226, 901.949 468.321, 901.058 472.369, 899.380 476.362, 896.948 480.293, 893.791 484.155, 889.939 487.945, 885.424 491.657, 880.275 495.286, 874.523 498.828, 868.196 502.281, 861.323 505.641, 853.934 508.905, 846.054 512.072, 837.710 515.138, 828.929 518.103, 819.735 519.518, 814.999 " fill="none" stroke="rgb(0, 0, 0)" stroke-linecap="butt" stroke-linejoin="round" stroke-opacity="1.0" stroke-width="3.0" />
            <path d=" M 519.629, 175.706 519.447, 175.178 516.401, 167.139 513.243, 159.596 509.973, 152.579 506.593, 146.115 503.107, 140.235 499.517, 134.971 495.828, 130.352 492.043, 126.410 488.167, 123.177 484.205, 120.684 480.163, 118.964 476.049, 118.046 471.869, 117.962 471.218, 118.082 467.631, 118.741 463.344, 120.411 459.018, 122.999 454.664, 126.529 450.292, 131.025 445.914, 136.506 441.542, 142.989 437.192, 150.487 432.876, 159.010 431.467, 162.164 428.609, 168.562 424.918, 177.857 424.406, 179.146 423.217, 182.496 420.285, 190.755 417.247, 200.283 416.260, 203.380 413.500, 212.992 412.348, 217.006 409.841, 226.687 408.566, 231.610 406.290, 241.348 404.930, 247.166 402.868, 256.951 401.458, 263.638 399.594, 273.463 398.166, 280.986 396.487, 290.844 395.070, 299.164 393.565, 309.050 392.185, 318.117 390.845, 328.027 389.525, 337.787 388.343, 347.717 387.161, 357.647 387.106, 358.109 386.075, 368.055 385.043, 378.002 384.939, 379.011 384.053, 388.972 383.168, 398.933 383.036, 400.419 382.292, 410.392 381.547, 420.364 381.407, 422.253 380.801, 432.235 380.195, 442.217 380.060, 444.430 379.590, 454.418 379.119, 464.407 379.004, 466.861 378.667, 476.855 378.330, 486.850 378.242, 489.460 378.039, 499.457 377.835, 509.455 377.780, 512.134 377.709, 522.134 377.637, 532.134 377.618, 534.795 377.680, 544.794 377.742, 554.794 377.758, 557.350 377.954, 567.348 378.150, 577.346 378.196, 579.710 378.528, 589.704 378.860, 599.699 378.930, 601.788 379.401, 611.777 379.872, 621.766 379.954, 623.498 380.568, 633.479 381.182, 643.460 381.262, 644.759 382.023, 654.730 382.784, 664.701 382.844, 665.494 383.758, 675.452 384.672, 685.410 384.692, 685.628 385.766, 695.571 386.794, 705.096 388.036, 715.019 389.139, 723.834 390.558, 733.733 391.712, 741.786 393.319, 751.656 394.500, 758.903 396.310, 768.738 397.488, 775.140 399.516, 784.932 400.661, 790.459 402.926, 800.199 404.003, 804.831 406.527, 814.507 407.499, 818.229 410.309, 827.826 411.132, 830.635 414.261, 840.133 414.887, 842.035 418.372, 851.408 418.749, 852.421 422.636, 861.635 422.702, 861.792 426.731, 870.149 430.821, 877.498 434.959, 883.850 439.132, 889.220 443.326, 893.624 447.530, 897.084 451.732, 899.620 455.922, 901.259 459.066, 901.838 460.090, 902.026 " fill="none" stroke="rgb(0, 0, 0)" stroke-linecap="butt" stroke-linejoin="round" stroke-opacity="1.0" stroke-width="3.0" />
            <path d=" M 469.413, 118.046 465.148, 118.826 460.834, 120.496 456.481, 123.084 452.099, 126.615 447.700, 131.110 443.294, 136.590 438.896, 143.071 434.519, 150.567 430.177, 159.088 428.631, 162.527 425.884, 168.638 422.174, 177.924 421.657, 179.219 418.292, 188.636 417.510, 190.824 416.785, 193.084 413.731, 202.606 413.461, 203.446 410.686, 213.053 409.527, 217.067 407.005, 226.744 405.723, 231.666 403.434, 241.401 402.067, 247.216 399.992, 256.999 398.575, 263.683 396.700, 273.505 395.265, 281.024 393.576, 290.881 392.151, 299.195 390.638, 309.080 389.251, 318.141 387.904, 328.050 386.577, 337.804 385.389, 347.733 384.200, 357.662 384.146, 358.118 383.109, 368.064 382.072, 378.010 381.968, 379.013 381.078, 388.973 380.188, 398.933 380.055, 400.412 379.308, 410.384 378.560, 420.356 378.419, 422.238 377.810, 432.219 377.202, 442.201 377.067, 444.405 376.595, 454.394 376.123, 464.383 376.007, 466.828 375.670, 476.822 375.332, 486.817 375.244, 489.417 375.040, 499.415 374.837, 509.413 374.782, 512.083 374.712, 522.083 374.641, 532.083 374.622, 534.735 374.686, 544.734 374.749, 554.734 374.766, 557.281 374.964, 567.279 375.163, 577.277 375.210, 579.633 375.545, 589.627 375.881, 599.622 375.951, 601.702 376.427, 611.691 376.902, 621.680 376.984, 623.404 377.604, 633.385 378.223, 643.366 378.303, 644.658 379.070, 654.628 379.838, 664.599 379.898, 665.385 380.820, 675.342 381.741, 685.299 381.761, 685.512 382.843, 695.453 383.879, 704.973 385.130, 714.894 386.240, 723.704 387.670, 733.602 388.832, 741.651 390.451, 751.519 391.640, 758.762 393.462, 768.594 394.649, 774.994 396.691, 784.783 397.843, 790.309 400.124, 800.046 401.209, 804.677 403.750, 814.348 404.728, 818.071 407.557, 827.663 408.386, 830.474 411.535, 839.966 412.167, 841.872 414.729, 848.717 414.843, 849.021 416.054, 852.256 419.963, 861.461 420.033, 861.625 424.089, 869.981 428.206, 877.330 432.372, 883.682 436.572, 889.051 440.793, 893.456 445.024, 896.916 449.254, 899.454 453.470, 901.094 457.665, 901.863 " fill="none" stroke="rgb(0, 0, 0)" stroke-linecap="butt" stroke-linejoin="round" stroke-opacity="1.0" stroke-width="3.0" />
            <path d=" M 471.869, 117.962 469.413, 118.046 " fill="none" stroke="rgb(0, 0, 0)" stroke-linecap="butt" stroke-linejoin="round" stroke-opacity="1.0" stroke-width="3.0" />
            <path d=" M 542.454, 760.406 544.185, 750.558 544.473, 748.920 546.090, 739.052 546.565, 736.151 548.071, 726.265 548.542, 723.174 549.944, 713.272 550.407, 710.005 551.708, 700.090 552.158, 696.660 553.362, 686.733 553.796, 683.154 554.906, 673.216 555.321, 669.502 556.340, 659.554 556.733, 655.716 557.664, 645.759 558.034, 641.810 558.878, 631.846 559.222, 627.797 559.982, 617.826 560.298, 613.690 560.976, 603.713 561.262, 599.499 561.859, 589.517 562.114, 585.237 562.631, 575.251 562.855, 570.916 563.293, 560.925 563.484, 556.545 563.843, 546.552 564.002, 542.137 564.283, 532.141 564.407, 527.701 564.497, 523.266 " fill="none" stroke="rgb(0, 0, 0)" stroke-linecap="butt" stroke-linejoin="round" stroke-opacity="1.0" stroke-width="3.0" />
            <path d=" M 459.708, 934.378 462.099, 934.549 466.537, 934.065 470.924, 932.708 475.252, 930.514 479.513, 927.518 483.702, 923.754 487.811, 919.259 491.836, 914.068 495.772, 908.213 499.614, 901.729 503.360, 894.648 507.005, 887.003 510.547, 878.824 513.985, 870.142 517.314, 860.985 520.494, 851.504 520.535, 851.382 523.499, 841.831 523.646, 841.358 526.413, 831.749 526.646, 830.941 526.796, 830.380 " fill="none" stroke="rgb(0, 0, 0)" stroke-linecap="butt" stroke-linejoin="round" stroke-opacity="1.0" stroke-width="3.0" />
            <path d=" M 541.170, 212.044 539.396, 203.813 537.120, 194.075 536.832, 192.847 534.371, 183.155 534.142, 182.252 531.479, 172.613 531.324, 172.053 528.440, 162.477 528.380, 162.277 525.310, 152.953 522.115, 144.109 518.795, 135.776 515.353, 127.985 511.791, 120.768 508.110, 114.160 504.313, 108.193 500.404, 102.904 496.386, 98.327 492.265, 94.500 488.045, 91.457 483.732, 89.236 479.334, 87.874 474.856, 87.405 473.178, 87.575 470.308, 87.865 465.699, 89.289 461.039, 91.709 456.339, 95.155 451.611, 99.656 446.867, 105.238 442.122, 111.923 437.390, 119.730 432.736, 128.580 432.687, 128.673 428.496, 137.752 428.029, 138.763 426.671, 142.085 423.433, 150.003 421.410, 155.553 418.918, 162.392 416.541, 169.672 414.500, 175.922 411.686, 185.518 410.201, 190.581 407.647, 200.249 406.037, 206.345 403.722, 216.073 402.029, 223.187 399.933, 232.965 399.577, 234.628 398.196, 241.071 396.303, 250.890 394.556, 259.952 392.853, 269.806 391.129, 279.780 389.604, 289.663 388.079, 299.546 387.932, 300.496 386.576, 310.404 385.219, 320.311 384.983, 322.033 383.787, 331.961 382.591, 341.889 382.298, 344.317 381.255, 354.263 380.213, 364.208 379.892, 367.269 378.997, 377.229 378.102, 387.189 377.777, 390.802 377.026, 400.774 376.275, 410.746 375.968, 414.825 375.356, 424.807 374.745, 434.788 374.472, 439.242 373.998, 449.231 373.525, 459.219 373.300, 463.952 372.962, 473.946 372.623, 483.941 372.457, 488.853 372.253, 498.851 372.049, 508.849 371.947, 513.841 371.878, 523.841 371.808, 533.840 371.773, 538.810 371.839, 548.809 371.904, 558.809 371.935, 563.654 372.136, 573.652 372.338, 583.650 372.431, 588.272 372.770, 598.266 373.109, 608.260 373.255, 612.560 373.736, 622.549 374.216, 632.537 374.403, 636.422 375.029, 646.403 375.654, 656.383 375.866, 659.764 376.641, 669.734 377.416, 679.704 377.634, 682.497 378.565, 692.454 379.496, 702.410 379.695, 704.538 380.788, 714.478 381.882, 724.418 382.036, 725.811 383.301, 735.731 384.566, 745.651 384.642, 746.247 386.089, 756.141 387.499, 765.782 389.140, 775.646 390.590, 784.361 392.439, 794.189 393.897, 801.938 395.604, 809.988 397.403, 818.473 399.419, 826.923 401.091, 833.933 403.680, 843.592 404.940, 848.293 407.379, 856.376 408.935, 861.535 412.156, 871.002 412.403, 871.727 413.056, 873.648 416.651, 882.979 417.286, 884.627 421.305, 893.784 421.608, 894.474 426.004, 903.193 430.460, 910.798 434.959, 917.302 439.486, 922.727 444.029, 927.095 448.573, 930.431 453.107, 932.765 457.619, 934.127 459.976, 934.349 462.099, 934.549 " fill="none" stroke="rgb(0, 0, 0)" stroke-linecap="butt" stroke-linejoin="round" stroke-opacity="1.0" stroke-width="3.0" />
            <path d=" M 364.193, 411.956 363.977, 414.774 363.355, 424.755 362.733, 434.735 362.457, 439.152 362.455, 439.191 361.974, 449.180 361.493, 459.168 361.269, 463.823 360.927, 473.818 360.872, 475.420 360.530, 485.414 360.427, 488.433 360.418, 488.685 360.214, 498.683 360.010, 508.681 359.909, 513.633 359.843, 523.633 359.777, 533.633 359.768, 535.032 359.745, 538.563 359.817, 548.563 359.889, 558.562 359.896, 559.590 359.924, 563.369 360.135, 573.367 360.347, 583.364 360.444, 587.948 360.516, 589.971 " fill="none" stroke="rgb(0, 0, 0)" stroke-linecap="butt" stroke-linejoin="round" stroke-opacity="1.0" stroke-width="3.0" />
            <path d=" M 472.432, 87.497 467.855, 87.959 463.217, 89.383 458.528, 91.803 453.799, 95.249 449.041, 99.750 444.268, 105.331 439.494, 112.015 434.733, 119.820 430.056, 128.659 430.002, 128.762 425.789, 137.831 425.316, 138.849 421.511, 148.096 420.693, 150.085 418.488, 156.098 416.150, 162.471 413.030, 171.972 412.096, 174.813 411.707, 175.998 410.645, 179.596 407.815, 189.187 407.382, 190.651 404.814, 200.316 403.195, 206.410 400.867, 216.135 399.164, 223.247 397.056, 233.022 395.309, 241.124 393.406, 250.941 391.650, 259.999 390.731, 265.280 389.019, 275.133 388.204, 279.820 386.670, 289.701 385.137, 299.583 384.990, 300.527 383.626, 310.434 382.262, 320.340 382.026, 322.056 380.823, 331.983 379.620, 341.911 379.327, 344.332 378.278, 354.277 377.230, 364.222 376.908, 367.275 376.009, 377.234 375.110, 387.194 374.784, 390.799 374.029, 400.770 373.274, 410.742 372.966, 414.812 372.352, 424.794 371.738, 434.775 371.465, 439.219 370.989, 449.208 370.514, 459.197 370.289, 463.920 369.949, 473.914 369.610, 483.908 369.444, 488.811 369.240, 498.809 369.036, 508.807 368.934, 513.789 368.865, 523.789 368.797, 533.788 368.763, 538.748 368.829, 548.747 368.896, 558.747 368.929, 563.583 369.133, 573.581 369.337, 583.579 369.431, 588.191 369.773, 598.185 370.116, 608.179 370.264, 612.470 370.749, 622.458 371.234, 632.447 371.422, 636.323 372.053, 646.303 372.684, 656.283 372.897, 659.656 373.678, 669.626 374.460, 679.595 374.678, 682.381 375.617, 692.337 376.555, 702.293 376.755, 704.414 377.857, 714.353 378.960, 724.293 379.113, 725.680 380.388, 735.598 381.663, 745.517 381.739, 746.108 383.197, 756.002 384.616, 765.637 386.269, 775.499 387.729, 784.211 388.278, 787.107 390.140, 796.932 391.059, 801.783 393.148, 811.562 394.159, 816.298 394.589, 818.312 396.925, 828.036 397.103, 828.779 398.302, 833.768 400.908, 843.423 402.178, 848.125 404.469, 855.669 406.199, 861.364 409.439, 870.824 410.347, 873.475 413.964, 882.798 414.605, 884.452 418.647, 893.599 418.956, 894.297 423.381, 903.015 427.866, 910.619 432.394, 917.124 436.951, 922.549 441.522, 926.917 446.096, 930.255 450.659, 932.590 455.200, 933.954 459.708, 934.378 " fill="none" stroke="rgb(0, 0, 0)" stroke-linecap="butt" stroke-linejoin="round" stroke-opacity="1.0" stroke-width="3.0" />
            <path d=" M 474.856, 87.405 472.432, 87.497 " fill="none" stroke="rgb(0, 0, 0)" stroke-linecap="butt" stroke-linejoin="round" stroke-opacity="1.0" stroke-width="3.0" />
            <path d=" M 546.824, 220.610 546.273, 217.553 544.352, 207.739 543.903, 205.441 541.827, 195.659 541.401, 193.651 539.159, 183.905 538.768, 182.206 536.345, 172.504 536.003, 171.133 533.383, 161.483 533.105, 160.459 530.270, 150.869 530.075, 150.210 527.002, 140.694 526.913, 140.417 523.619, 131.109 520.194, 122.319 516.640, 114.079 512.958, 106.423 509.150, 99.387 505.219, 93.007 501.168, 87.320 497.001, 82.364 492.722, 78.177 488.336, 74.800 483.849, 72.272 479.268, 70.631 474.600, 69.917 469.779, 70.112 464.973, 70.367 460.097, 71.624 455.162, 73.920 450.180, 77.289 445.164, 81.763 440.125, 87.372 435.081, 94.141 430.045, 102.093 425.244, 110.865 425.036, 111.245 420.715, 120.263 420.069, 121.610 416.171, 130.818 415.165, 133.194 411.640, 142.552 410.342, 145.999 407.150, 155.476 405.620, 160.019 402.727, 169.592 401.020, 175.241 398.397, 184.891 396.562, 191.644 394.186, 201.357 392.267, 209.199 390.118, 218.965 388.158, 227.870 387.798, 229.691 385.858, 239.501 384.254, 247.611 382.510, 257.457 380.765, 267.304 380.577, 268.368 379.015, 278.245 377.454, 288.122 377.145, 290.079 375.757, 299.982 374.369, 309.885 373.979, 312.674 372.756, 322.599 371.533, 332.524 371.095, 336.074 370.030, 346.017 368.965, 355.960 368.512, 360.194 367.598, 370.152 366.685, 380.111 366.242, 384.941 366.012, 387.947 365.246, 397.918 364.480, 407.889 364.301, 410.216 364.193, 411.956 363.731, 419.374 363.109, 429.354 362.700, 435.917 362.219, 445.905 361.738, 455.893 361.447, 461.933 361.105, 471.928 360.994, 475.171 360.652, 485.166 360.567, 487.649 360.550, 488.156 360.346, 498.154 360.142, 508.152 360.013, 514.471 359.947, 524.471 359.881, 534.471 359.839, 540.765 359.875, 545.691 359.947, 555.690 360.015, 565.204 360.028, 566.923 360.240, 576.921 360.451, 586.919 360.516, 589.971 360.545, 591.337 360.577, 592.835 360.930, 602.829 361.284, 612.823 361.481, 618.391 361.980, 628.378 362.478, 638.366 362.734, 643.484 363.381, 653.463 364.029, 663.442 364.325, 668.014 365.127, 677.982 365.928, 687.950 366.245, 691.887 367.207, 701.841 368.169, 711.794 368.480, 715.013 369.609, 724.949 370.738, 734.885 371.014, 737.310 371.391, 740.168 372.697, 750.082 373.833, 758.705 375.326, 768.593 376.820, 778.481 376.918, 779.132 378.612, 788.987 380.252, 798.533 382.161, 808.349 383.816, 816.858 385.958, 826.626 387.590, 834.067 389.986, 843.776 391.553, 850.127 394.229, 859.763 395.687, 865.014 398.673, 874.558 399.972, 878.710 403.303, 888.139 404.387, 891.205 408.107, 900.487 408.913, 902.497 413.075, 911.590 413.532, 912.589 418.226, 921.489 422.977, 929.213 427.768, 935.779 432.585, 941.210 437.412, 945.533 442.236, 948.777 447.042, 950.975 451.821, 952.159 456.632, 952.515 461.312, 952.718 465.943, 951.979 470.517, 950.338 475.024, 947.831 479.457, 944.496 483.811, 940.373 488.078, 935.498 492.254, 929.909 496.333, 923.642 500.313, 916.733 504.189, 909.217 507.958, 901.127 511.617, 892.496 515.166, 883.355 518.529, 873.937 518.601, 873.735 521.732, 864.238 521.921, 863.664 524.842, 854.100 525.126, 853.171 527.854, 843.550 528.214, 842.282 529.815, 836.213 " fill="none" stroke="rgb(0, 0, 0)" stroke-linecap="butt" stroke-linejoin="round" stroke-opacity="1.0" stroke-width="3.0" />
            <path d=" M 544.889, 766.406 546.530, 756.968 548.130, 747.097 548.675, 743.734 550.166, 733.846 550.702, 730.294 552.091, 720.391 552.613, 716.665 553.902, 706.748 554.407, 702.862 555.600, 692.933 556.085, 688.900 557.185, 678.960 557.647, 674.793 558.657, 664.844 559.093, 660.555 560.016, 650.598 560.424, 646.200 561.263, 636.235 561.641, 631.739 562.396, 621.767 562.743, 617.185 563.416, 607.207 563.730, 602.549 564.323, 592.567 564.603, 587.843 565.117, 577.857 565.362, 573.079 565.797, 563.088 566.007, 558.266 566.365, 548.273 566.538, 543.416 566.819, 533.420 566.955, 528.540 567.062, 523.296 " fill="none" stroke="rgb(0, 0, 0)" stroke-linecap="butt" stroke-linejoin="round" stroke-opacity="1.0" stroke-width="3.0" />
            <path d=" M 474.600, 69.917 469.853, 70.169 465.038, 71.425 460.164, 73.720 455.243, 77.088 450.287, 81.563 445.310, 87.173 440.326, 93.944 435.351, 101.899 430.595, 110.696 430.400, 111.055 426.123, 120.094 425.493, 121.425 423.547, 126.077 420.645, 133.016 417.158, 142.388 415.878, 145.829 412.721, 155.317 411.210, 159.857 408.349, 169.439 408.276, 169.684 406.663, 175.089 404.069, 184.746 402.446, 190.792 402.255, 191.502 399.905, 201.222 398.371, 207.572 398.009, 209.069 395.883, 218.841 393.945, 227.753 392.026, 237.567 390.083, 247.508 388.358, 257.358 387.863, 260.182 386.445, 268.280 384.901, 278.160 383.357, 288.040 383.049, 290.008 381.677, 299.913 380.304, 309.818 379.916, 312.620 378.706, 322.546 378.311, 325.786 377.101, 335.712 377.061, 336.038 376.007, 345.982 374.953, 355.927 374.503, 360.177 373.599, 370.136 372.695, 380.095 372.255, 384.943 371.496, 394.914 370.738, 404.885 370.331, 410.239 369.714, 420.219 369.097, 430.201 368.742, 435.959 368.264, 445.948 367.787, 455.936 367.497, 461.997 367.157, 471.991 366.817, 481.985 366.604, 488.240 366.400, 498.238 366.196, 508.236 366.067, 514.576 365.999, 524.576 365.931, 534.576 365.888, 540.891 365.957, 550.890 366.025, 560.890 366.068, 567.070 366.274, 577.068 366.481, 587.066 366.603, 593.002 366.950, 602.996 367.296, 612.990 367.490, 618.577 367.979, 628.565 368.469, 638.553 368.721, 643.689 369.357, 653.669 369.994, 663.649 370.287, 668.238 371.076, 678.207 371.864, 688.176 372.177, 692.128 373.124, 702.083 374.071, 712.038 374.378, 715.270 375.491, 725.208 376.603, 735.146 376.876, 737.583 377.064, 739.030 377.335, 741.114 378.622, 751.031 379.655, 758.992 381.127, 768.883 382.600, 778.774 382.698, 779.432 384.368, 789.292 384.850, 792.142 385.860, 798.099 385.986, 798.845 387.869, 808.666 389.501, 817.181 391.614, 826.955 393.224, 834.400 395.081, 842.030 397.135, 850.469 399.777, 860.114 401.215, 865.363 404.163, 874.918 405.443, 879.065 408.734, 888.507 409.060, 889.441 409.800, 891.565 413.478, 900.864 414.268, 902.860 418.385, 911.974 418.828, 912.955 423.461, 921.857 428.152, 929.582 432.882, 936.148 437.638, 941.578 442.404, 945.899 447.167, 949.140 451.913, 951.334 456.632, 952.515 " fill="none" stroke="rgb(0, 0, 0)" stroke-linecap="butt" stroke-linejoin="round" stroke-opacity="1.0" stroke-width="3.0" />
            <path d=" M 565.310, 520.700 565.368, 519.073 565.429, 518.034 565.461, 517.483 565.588, 515.957 565.723, 514.731 565.746, 514.520 565.934, 513.199 566.147, 512.014 566.381, 510.986 566.634, 510.133 566.900, 509.468 567.175, 509.002 567.318, 508.868 567.454, 508.742 567.732, 508.692 " fill="none" stroke="rgb(0, 0, 0)" stroke-linecap="butt" stroke-linejoin="round" stroke-opacity="1.0" stroke-width="3.0" />
            <path d=" M 554.844, 520.515 555.458, 520.526 557.305, 520.558 557.630, 520.564 562.763, 520.655 564.550, 520.686 565.039, 520.695 565.310, 520.700 566.925, 521.071 " fill="none" stroke="rgb(0, 0, 0)" stroke-linecap="butt" stroke-linejoin="round" stroke-opacity="1.0" stroke-width="3.0" />
            <path d=" M 557.627, 521.131 562.751, 521.223 564.538, 521.254 565.027, 521.263 567.102, 521.300 567.990, 521.316 567.995, 520.801 567.985, 520.296 567.962, 519.817 567.924, 519.374 567.874, 518.981 567.812, 518.648 567.741, 518.384 567.662, 518.196 567.577, 518.091 567.490, 518.069 " fill="none" stroke="rgb(0, 0, 0)" stroke-linecap="butt" stroke-linejoin="round" stroke-opacity="1.0" stroke-width="3.0" />
            <path d=" M 533.622, 488.344 537.843, 488.357 537.838, 482.667 537.778, 482.646 535.243, 482.614 " fill="none" stroke="rgb(0, 0, 0)" stroke-linecap="butt" stroke-linejoin="round" stroke-opacity="1.0" stroke-width="3.0" />
            <path d=" M 537.639, 488.291 537.778, 482.646 " fill="none" stroke="rgb(0, 0, 0)" stroke-linecap="butt" stroke-linejoin="round" stroke-opacity="1.0" stroke-width="3.0" />
            <path d=" M 535.175, 484.327 535.153, 484.324 535.150, 484.324 534.963, 484.303 534.769, 484.315 534.749, 484.317 534.746, 484.317 " fill="none" stroke="rgb(0, 0, 0)" stroke-linecap="butt" stroke-linejoin="round" stroke-opacity="1.0" stroke-width="3.0" />
            <path d=" M 534.449, 486.452 534.482, 486.466 534.492, 486.469 534.678, 486.530 534.690, 486.534 " fill="none" stroke="rgb(0, 0, 0)" stroke-linecap="butt" stroke-linejoin="round" stroke-opacity="1.0" stroke-width="3.0" />
            <path d=" M 535.120, 484.317 534.963, 484.303 " fill="none" stroke="rgb(0, 0, 0)" stroke-linecap="butt" stroke-linejoin="round" stroke-opacity="1.0" stroke-width="3.0" />
            <path d=" M 535.274, 484.353 535.175, 484.327 535.120, 484.317 " fill="none" stroke="rgb(0, 0, 0)" stroke-linecap="butt" stroke-linejoin="round" stroke-opacity="1.0" stroke-width="3.0" />
            <path d=" M 534.750, 486.547 534.907, 486.561 535.065, 486.551 535.221, 486.519 535.370, 486.465 535.511, 486.389 535.640, 486.295 535.755, 486.182 535.853, 486.055 535.932, 485.914 535.991, 485.764 536.029, 485.607 536.044, 485.447 536.037, 485.286 536.007, 485.128 535.955, 484.976 535.883, 484.834 535.791, 484.704 535.682, 484.589 535.558, 484.490 535.421, 484.411 535.274, 484.353 " fill="none" stroke="rgb(0, 0, 0)" stroke-linecap="butt" stroke-linejoin="round" stroke-opacity="1.0" stroke-width="3.0" />
            <path d=" M 534.177, 486.266 534.188, 486.275 534.291, 486.360 534.312, 486.373 " fill="none" stroke="rgb(0, 0, 0)" stroke-linecap="butt" stroke-linejoin="round" stroke-opacity="1.0" stroke-width="3.0" />
            <path d=" M 534.596, 486.511 534.690, 486.534 534.750, 486.547 " fill="none" stroke="rgb(0, 0, 0)" stroke-linecap="butt" stroke-linejoin="round" stroke-opacity="1.0" stroke-width="3.0" />
            <path d=" M 534.312, 486.373 534.449, 486.452 " fill="none" stroke="rgb(0, 0, 0)" stroke-linecap="butt" stroke-linejoin="round" stroke-opacity="1.0" stroke-width="3.0" />
            <path d=" M 533.649, 488.237 537.639, 488.291 537.843, 488.357 " fill="none" stroke="rgb(0, 0, 0)" stroke-linecap="butt" stroke-linejoin="round" stroke-opacity="1.0" stroke-width="3.0" />
            <path d=" M 621.892, 906.290 624.067, 906.805 631.955, 908.450 639.848, 909.346 647.729, 909.512 655.581, 908.964 663.387, 907.723 671.134, 905.808 678.805, 903.241 686.389, 900.041 693.872, 896.231 701.243, 891.833 708.492, 886.870 715.608, 881.362 722.581, 875.333 729.404, 868.804 736.068, 861.798 742.567, 854.336 748.818, 846.531 748.892, 846.439 754.839, 838.399 755.038, 838.129 760.690, 829.879 761.001, 829.426 766.367, 820.988 766.773, 820.351 771.865, 811.744 772.351, 810.923 777.178, 802.165 777.730, 801.163 782.301, 792.268 782.907, 791.088 787.230, 782.071 787.878, 780.718 791.961, 771.590 792.639, 770.071 796.489, 760.842 797.189, 759.165 800.812, 749.845 801.523, 748.017 804.926, 738.614 805.639, 736.644 808.829, 727.167 809.536, 725.063 812.516, 715.517 813.212, 713.289 815.987, 703.682 816.664, 701.340 819.238, 691.677 819.890, 689.229 822.267, 679.515 822.889, 676.972 825.072, 667.213 825.660, 664.585 827.652, 654.785 828.202, 652.081 830.004, 642.245 830.511, 639.476 832.127, 629.608 832.589, 626.784 834.018, 616.887 834.433, 614.018 835.678, 604.096 836.042, 601.193 837.103, 591.250 837.415, 588.323 838.292, 578.361 838.551, 575.420 839.245, 565.444 839.449, 562.500 839.959, 552.513 840.108, 549.575 840.433, 539.581 840.528, 536.660 840.666, 526.661 840.706, 523.768 840.656, 513.769 840.642, 510.914 840.403, 500.917 840.336, 498.111 839.904, 488.120 839.785, 485.373 839.159, 475.392 838.991, 472.715 838.166, 462.749 837.951, 460.151 836.924, 450.204 836.665, 447.696 835.431, 437.773 835.132, 435.366 833.687, 425.471 833.352, 423.175 831.690, 413.314 831.324, 411.140 829.440, 401.320 829.048, 399.277 826.935, 389.503 826.523, 387.602 824.173, 377.882 823.750, 376.131 821.155, 366.473 820.728, 364.883 817.880, 355.297 817.458, 353.874 814.347, 344.370 813.939, 343.124 810.555, 333.714 810.173, 332.651 806.505, 323.348 806.161, 322.473 802.197, 313.292 801.903, 312.611 797.630, 303.570 797.401, 303.085 792.807, 294.203 792.658, 293.915 787.727, 285.215 787.675, 285.122 782.455, 276.728 777.002, 268.754 771.318, 261.222 765.410, 254.156 759.281, 247.578 752.936, 241.510 746.384, 235.977 739.629, 231.001 732.681, 226.605 725.548, 222.814 718.240, 219.649 710.767, 217.133 703.140, 215.288 695.372, 214.135 687.477, 213.695 679.470, 213.988 677.250, 214.152 " fill="none" stroke="rgb(0, 0, 0)" stroke-linecap="butt" stroke-linejoin="round" stroke-opacity="1.0" stroke-width="3.0" />
            <path d=" M 624.067, 906.805 623.438, 906.613 616.203, 904.397 608.383, 901.212 600.626, 897.238 592.954, 892.464 585.389, 886.883 577.953, 880.490 570.845, 873.456 570.669, 873.282 564.038, 865.797 563.561, 865.259 557.401, 857.381 556.653, 856.424 550.954, 848.207 549.968, 846.785 544.717, 838.274 543.530, 836.351 541.282, 832.260 537.365, 825.136 534.205, 818.686 531.495, 813.157 531.445, 813.042 531.356, 812.837 530.092, 809.940 526.093, 800.775 525.945, 800.435 524.575, 796.899 523.346, 793.729 520.737, 786.996 517.494, 777.536 517.225, 776.753 515.893, 772.868 515.220, 770.634 512.333, 761.060 511.436, 758.085 508.892, 748.414 507.384, 742.683 505.171, 732.930 503.758, 726.702 501.936, 717.251 500.575, 710.187 498.992, 700.313 497.850, 693.185 496.569, 683.267 495.597, 675.747 494.610, 665.796 493.830, 657.927 493.130, 647.952 492.557, 639.782 492.139, 629.791 491.787, 621.369 491.646, 611.370 491.525, 602.750 491.658, 592.751 491.775, 583.987 492.179, 573.996 492.536, 565.144 493.209, 555.166 493.808, 546.283 494.750, 536.327 495.587, 527.470 496.216, 522.301 497.215, 514.104 497.334, 513.129 497.865, 508.768 498.417, 505.071 499.895, 495.181 500.634, 490.240 502.382, 480.394 503.882, 471.948 505.904, 462.155 507.596, 453.954 509.894, 444.221 511.761, 436.314 514.340, 426.652 516.360, 419.085 519.224, 409.504 521.372, 402.321 524.529, 392.832 526.503, 386.898 526.778, 386.071 529.414, 378.913 532.555, 370.383 535.554, 362.998 537.519, 358.158 538.679, 355.300 542.757, 346.169 542.887, 345.879 545.128, 340.862 548.630, 333.718 550.219, 330.478 551.874, 327.104 555.457, 320.445 557.032, 317.516 558.893, 314.058 559.578, 312.898 563.403, 306.419 563.954, 305.486 566.158, 301.753 571.600, 293.363 573.644, 290.211 579.454, 282.072 581.322, 279.455 587.512, 271.600 589.168, 269.499 591.837, 266.442 597.154, 260.355 604.130, 253.190 605.256, 252.034 612.634, 245.284 613.448, 244.539 621.229, 238.258 621.706, 237.873 629.885, 232.120 630.005, 232.035 638.324, 227.021 646.639, 222.824 654.931, 219.434 663.179, 216.841 671.365, 215.031 678.565, 214.104 679.470, 213.988 " fill="none" stroke="rgb(0, 0, 0)" stroke-linecap="butt" stroke-linejoin="round" stroke-opacity="1.0" stroke-width="3.0" />
            <path d=" M 677.250, 214.152 669.134, 215.195 660.938, 217.005 652.679, 219.598 644.377, 222.985 636.051, 227.179 627.723, 232.190 619.538, 237.936 619.414, 238.023 611.626, 244.297 611.147, 244.683 603.762, 251.426 602.946, 252.171 595.963, 259.329 594.836, 260.484 590.459, 265.485 586.841, 269.619 580.644, 277.467 578.988, 279.565 573.170, 287.699 571.302, 290.311 565.853, 298.696 563.810, 301.840 563.419, 302.502 562.856, 303.453 559.253, 309.544 556.664, 313.921 556.538, 314.133 555.097, 316.807 550.352, 325.609 549.824, 326.588 549.514, 327.164 548.227, 329.783 543.818, 338.758 542.762, 340.907 538.678, 350.036 537.071, 353.627 536.309, 355.330 532.541, 364.593 530.180, 370.397 526.874, 379.358 524.631, 385.440 524.399, 386.067 521.238, 395.554 518.991, 402.298 516.122, 411.878 515.198, 414.964 513.976, 419.044 511.393, 428.704 509.375, 436.253 509.327, 436.458 507.025, 446.189 505.209, 453.872 503.185, 463.665 501.493, 471.846 499.743, 481.692 498.245, 490.116 496.765, 500.006 495.476, 508.623 494.988, 512.626 494.813, 514.064 493.869, 521.805 493.199, 527.303 492.257, 537.259 491.421, 546.095 490.749, 556.073 490.151, 564.934 489.748, 574.926 489.724, 575.530 489.392, 583.757 489.260, 593.756 489.145, 602.498 489.287, 612.497 489.410, 621.096 489.830, 631.087 490.184, 639.488 490.886, 649.464 491.461, 657.614 492.451, 667.565 493.233, 675.415 494.518, 685.332 495.490, 692.834 497.078, 702.707 498.221, 709.818 500.119, 719.636 500.718, 722.737 501.410, 726.316 503.629, 736.067 505.043, 742.280 507.593, 751.950 509.101, 757.668 511.995, 767.240 513.566, 772.437 514.215, 774.324 516.219, 780.157 516.262, 780.282 518.417, 786.551 522.038, 795.873 522.489, 797.033 523.633, 799.978 523.726, 800.191 527.733, 809.354 529.048, 812.360 529.192, 812.689 529.332, 812.973 530.652, 815.662 533.523, 821.508 535.070, 824.658 539.896, 833.417 541.244, 835.865 546.503, 844.370 547.691, 846.291 553.398, 854.503 554.385, 855.924 560.553, 863.795 561.303, 864.753 567.942, 872.231 568.421, 872.771 575.536, 879.799 575.715, 879.976 583.161, 886.367 590.737, 891.946 598.419, 896.719 606.186, 900.694 614.017, 903.880 621.892, 906.290 " fill="none" stroke="rgb(0, 0, 0)" stroke-linecap="butt" stroke-linejoin="round" stroke-opacity="1.0" stroke-width="3.0" />
            <path d=" M 790.468, 550.133 780.492, 549.442 779.759, 549.391 775.147, 548.959 765.191, 548.027 755.249, 547.096 754.536, 547.030 753.821, 546.963 753.105, 546.896 752.390, 546.830 751.549, 546.622 750.740, 546.160 749.979, 545.451 749.283, 544.509 748.665, 543.352 748.137, 542.001 747.708, 540.482 747.388, 538.824 747.183, 537.058 747.097, 535.219 747.131, 533.341 747.286, 531.462 747.557, 529.619 747.940, 527.845 748.427, 526.177 749.009, 524.645 749.674, 523.280 750.410, 522.107 750.460, 522.046 751.200, 521.149 751.882, 520.440 752.565, 519.731 753.246, 519.024 753.927, 518.317 754.269, 517.964 755.667, 516.515 756.082, 516.086 763.029, 508.892 769.975, 501.699 776.922, 494.505 777.418, 493.991 " fill="none" stroke="rgb(0, 0, 0)" stroke-linecap="butt" stroke-linejoin="round" stroke-opacity="1.0" stroke-width="3.0" />
            <path d=" M 697.887, 305.593 689.674, 305.373 681.452, 305.945 681.345, 305.952 677.728, 306.545 672.921, 307.332 664.427, 309.525 662.256, 310.296 655.889, 312.560 647.336, 316.457 638.800, 321.228 630.471, 326.763 630.310, 326.871 622.398, 332.987 621.896, 333.375 614.402, 339.997 613.585, 340.719 606.508, 347.784 605.405, 348.885 598.751, 356.349 597.394, 357.871 591.165, 365.694 589.589, 367.673 583.782, 375.814 582.028, 378.273 576.633, 386.693 574.745, 389.641 574.544, 389.989 574.219, 390.552 571.267, 395.673 567.770, 401.739 565.954, 405.234 563.485, 409.984 562.655, 411.583 561.812, 413.205 561.129, 414.519 558.454, 420.229 556.782, 423.797 556.605, 424.174 554.877, 427.862 554.845, 427.931 550.964, 437.147 548.950, 441.933 547.951, 444.589 546.199, 449.254 543.482, 456.485 543.174, 457.410 540.017, 466.899 538.473, 471.539 535.673, 481.139 535.243, 482.614 535.228, 482.662 534.746, 484.317 534.745, 484.320 534.745, 484.320 534.743, 484.326 534.178, 486.264 534.177, 486.266 533.953, 487.035 533.649, 488.237 533.622, 488.344 532.224, 493.876 531.522, 496.649 529.940, 502.908 529.381, 505.501 527.271, 515.276 526.820, 517.368 526.448, 519.090 525.783, 522.775 525.775, 522.819 525.642, 523.554 523.864, 533.395 523.482, 535.510 522.834, 539.938 522.672, 541.038 521.223, 550.933 521.052, 552.101 519.937, 562.039 519.179, 568.798 518.406, 578.769 517.881, 585.532 517.453, 595.523 517.167, 602.230 517.088, 612.230 517.037, 618.822 517.076, 620.272 517.349, 630.269 517.484, 635.237 517.755, 639.577 518.378, 649.558 518.494, 651.412 519.468, 661.365 520.054, 667.350 521.371, 677.263 521.611, 679.069 522.121, 682.906 523.792, 692.765 524.682, 698.017 526.718, 707.808 527.570, 711.903 527.721, 712.627 527.770, 712.824 529.052, 717.973 529.946, 721.562 530.221, 722.667 531.220, 726.679 534.031, 736.276 535.040, 739.721 535.159, 740.126 536.317, 743.529 537.295, 746.402 538.557, 750.106 539.515, 752.921 541.134, 757.045 542.262, 759.918 542.454, 760.406 544.266, 765.022 544.889, 766.406 548.994, 775.524 549.385, 776.394 553.962, 785.285 554.848, 787.005 559.917, 795.625 560.625, 796.829 566.209, 805.125 566.692, 805.842 572.806, 813.755 573.018, 814.029 579.574, 821.376 586.334, 827.874 593.269, 833.519 600.351, 838.310 607.553, 842.251 609.895, 843.245 614.848, 845.348 622.211, 847.608 629.616, 849.048 637.040, 849.679 644.460, 849.519 651.853, 848.587 659.200, 846.905 666.480, 844.494 673.675, 841.376 680.767, 837.578 687.741, 833.125 694.580, 828.041 701.271, 822.353 707.801, 816.089 714.156, 809.276 720.327, 801.940 726.302, 794.107 732.009, 785.896 732.072, 785.806 737.435, 777.366 737.628, 777.062 742.659, 768.421 742.961, 767.902 747.675, 759.083 748.065, 758.353 752.473, 749.377 752.933, 748.440 757.046, 739.325 757.559, 738.188 761.386, 728.949 761.936, 727.622 765.488, 718.274 766.060, 716.768 769.344, 707.323 769.926, 705.650 772.950, 696.118 773.530, 694.290 776.300, 684.682 776.867, 682.714 779.390, 673.038 779.935, 670.945 782.215, 661.208 782.731, 659.005 784.771, 649.215 785.250, 646.916 787.055, 637.080 787.491, 634.703 789.063, 624.827 789.451, 622.386 790.792, 612.476 791.129, 609.987 792.239, 600.049 792.521, 597.530 793.402, 587.569 793.626, 585.034 794.279, 575.056 794.444, 572.523 794.866, 562.532 794.972, 560.018 795.162, 550.020 795.209, 547.541 795.173, 539.305 " fill="none" stroke="rgb(0, 0, 0)" stroke-linecap="butt" stroke-linejoin="round" stroke-opacity="1.0" stroke-width="3.0" />
            <path d=" M 777.418, 493.991 787.368, 494.991 788.220, 495.077 " fill="none" stroke="rgb(0, 0, 0)" stroke-linecap="butt" stroke-linejoin="round" stroke-opacity="1.0" stroke-width="3.0" />
            <path d=" M 823.746, 510.582 822.983, 500.649 822.350, 494.639 821.705, 488.521 820.368, 478.611 820.091, 476.559 818.454, 466.694 818.138, 464.788 816.196, 454.978 815.850, 453.230 813.597, 443.487 813.232, 441.907 810.666, 432.242 810.292, 430.835 807.399, 421.262 807.030, 420.041 803.789, 410.580 803.440, 409.559 799.834, 400.232 799.521, 399.422 795.533, 390.251 795.276, 389.659 790.893, 380.671 790.710, 380.296 785.920, 371.518 785.832, 371.356 780.651, 362.853 775.176, 354.808 769.409, 347.262 763.355, 340.251 757.022, 333.810 750.419, 327.966 743.561, 322.742 736.463, 318.151 729.140, 314.207 721.606, 310.943 720.645, 310.627 713.873, 308.399 705.960, 306.608 697.887, 305.593 " fill="none" stroke="rgb(0, 0, 0)" stroke-linecap="butt" stroke-linejoin="round" stroke-opacity="1.0" stroke-width="3.0" />
            <path d=" M 662.256, 310.296 665.064, 311.778 671.104, 315.717 676.965, 320.283 682.635, 325.463 688.101, 331.243 693.354, 337.600 698.384, 344.507 703.186, 351.930 707.756, 359.833 712.093, 368.176 716.189, 376.940 720.037, 386.109 723.557, 395.469 723.630, 395.662 726.818, 405.141 726.964, 405.576 729.838, 415.154 730.038, 415.821 732.616, 425.483 732.852, 426.366 735.153, 436.098 735.408, 437.179 737.446, 446.969 737.709, 448.234 739.488, 458.075 739.748, 459.516 741.273, 469.399 741.521, 471.005 742.798, 480.923 743.024, 482.681 744.061, 492.627 744.259, 494.519 744.747, 500.565 744.692, 501.804 744.577, 503.038 744.405, 504.254 744.178, 505.438 743.896, 506.580 743.564, 507.667 743.184, 508.688 742.761, 509.631 742.299, 510.487 741.803, 511.248 741.278, 511.905 740.826, 512.354 740.729, 512.451 740.162, 512.881 739.583, 513.191 730.417, 517.189 728.160, 518.174 " fill="none" stroke="rgb(0, 0, 0)" stroke-linecap="butt" stroke-linejoin="round" stroke-opacity="1.0" stroke-width="3.0" />
            <path d=" M 800.333, 535.465 800.593, 535.482 801.632, 535.549 803.238, 535.651 812.231, 531.280 813.580, 530.624 815.517, 529.682 823.249, 525.924 824.542, 525.296 825.187, 525.030 830.672, 522.770 830.188, 512.781 830.043, 509.808 829.286, 499.836 829.068, 496.963 828.033, 487.016 827.746, 484.259 826.427, 474.346 826.077, 471.720 824.465, 461.851 824.060, 459.372 822.147, 449.557 821.695, 447.240 819.473, 437.490 818.984, 435.347 816.441, 425.676 815.928, 423.722 815.797, 423.286 812.922, 413.708 812.526, 412.391 809.904, 404.676 808.783, 401.379 805.207, 392.040 804.699, 390.713 800.752, 381.525 800.279, 380.424 795.945, 371.412 795.525, 370.538 790.791, 361.730 790.443, 361.083 787.142, 355.591 785.037, 352.088 781.905, 347.435 779.314, 343.585 773.280, 335.600 766.944, 328.164 760.314, 321.307 753.400, 315.059 746.215, 309.448 738.770, 304.504 731.080, 300.256 723.159, 296.732 715.025, 293.957 706.696, 291.959 698.192, 290.763 689.534, 290.390 679.541, 290.002 669.549, 289.615 666.951, 289.514 " fill="none" stroke="rgb(0, 0, 0)" stroke-linecap="butt" stroke-linejoin="round" stroke-opacity="1.0" stroke-width="3.0" />
            <path d=" M 689.534, 290.390 680.770, 290.860 680.745, 290.861 671.849, 292.198 665.418, 293.786 662.873, 294.415 653.845, 297.525 644.794, 301.539 641.894, 303.118 641.464, 303.352 635.749, 306.465 627.360, 311.907 626.744, 312.307 618.768, 318.338 617.810, 319.062 610.259, 325.618 608.983, 326.726 601.863, 333.748 600.297, 335.292 593.606, 342.724 591.787, 344.744 585.520, 352.536 583.489, 355.062 577.640, 363.172 575.440, 366.223 572.748, 370.375 572.371, 370.956 567.676, 378.199 564.900, 382.956 562.405, 387.230 560.736, 390.091 560.232, 390.954 555.535, 399.894 553.836, 403.129 553.143, 404.449 548.874, 413.492 546.444, 418.640 542.548, 427.849 542.298, 428.440 540.167, 433.477 536.635, 442.832 534.343, 448.905 531.169, 458.388 529.001, 464.867 526.181, 474.461 524.170, 481.300 521.697, 490.989 519.873, 498.137 517.743, 507.907 516.130, 515.309 514.789, 522.692 513.002, 532.531 512.963, 532.744 511.517, 542.639 510.387, 550.369 509.281, 560.307 508.413, 568.107 507.648, 578.077 507.050, 585.882 506.630, 595.873 506.304, 603.617 506.232, 613.617 506.178, 621.237 506.458, 631.233 506.667, 638.666 507.307, 648.646 507.768, 655.832 " fill="none" stroke="rgb(0, 0, 0)" stroke-linecap="butt" stroke-linejoin="round" stroke-opacity="1.0" stroke-width="3.0" />
            <path d=" M 756.082, 516.086 755.510, 507.333 755.398, 504.596 755.366, 504.826 755.138, 506.016 754.858, 507.163 754.527, 508.256 754.150, 509.281 753.729, 510.229 753.270, 511.090 752.777, 511.854 752.256, 512.515 751.711, 513.064 751.148, 513.496 750.574, 513.808 741.429, 517.855 733.546, 521.344 732.928, 520.327 732.233, 519.498 731.474, 518.872 730.663, 518.461 729.812, 518.271 728.160, 518.174 718.653, 517.617 717.773, 517.651 716.882, 517.910 715.998, 518.389 715.133, 519.080 714.338, 519.975 713.628, 521.060 712.983, 522.314 712.412, 523.716 711.928, 525.242 711.536, 526.866 711.246, 528.560 711.061, 530.295 710.985, 532.042 711.019, 533.770 720.997, 534.426 722.219, 534.506 727.036, 532.381 727.031, 531.830 727.069, 531.275 727.143, 530.780 727.150, 530.731 727.272, 530.213 727.431, 529.735 727.622, 529.310 727.841, 528.950 728.081, 528.664 728.336, 528.462 728.599, 528.346 728.863, 528.322 " fill="none" stroke="rgb(0, 0, 0)" stroke-linecap="butt" stroke-linejoin="round" stroke-opacity="1.0" stroke-width="3.0" />
            <path d=" M 800.049, 522.384 800.286, 522.269 801.373, 521.742 803.868, 520.534 807.419, 518.815 807.931, 518.519 808.433, 518.119 808.923, 517.617 809.395, 517.020 809.846, 516.334 810.273, 515.563 810.673, 514.716 811.041, 513.800 811.377, 512.820 811.677, 511.786 811.939, 510.705 812.160, 509.585 812.339, 508.435 812.475, 507.264 822.068, 510.088 822.990, 510.360 823.746, 510.582 823.610, 511.329 823.350, 512.415 823.071, 513.389 823.052, 513.455 822.719, 514.439 822.352, 515.361 821.956, 516.212 821.532, 516.986 821.085, 517.677 820.617, 518.277 820.132, 518.781 819.634, 519.184 819.127, 519.481 813.337, 522.332 809.864, 524.042 806.486, 525.705 805.908, 524.659 805.256, 523.808 805.059, 523.632 804.541, 523.167 803.773, 522.746 802.967, 522.554 801.393, 522.462 800.289, 522.398 800.049, 522.384 796.104, 522.153 791.095, 521.859 790.256, 521.899 790.121, 521.941 790.097, 521.949 789.405, 522.169 788.558, 522.667 787.728, 523.384 786.965, 524.310 786.287, 525.433 785.667, 526.729 785.119, 528.177 784.650, 529.754 784.270, 531.430 783.984, 533.179 783.798, 534.969 783.715, 536.771 783.736, 538.552 790.382, 538.990 790.470, 538.995 795.173, 539.305 795.656, 539.336 800.222, 537.117 800.220, 536.549 800.260, 535.977 800.333, 535.465 800.341, 535.415 800.459, 534.880 800.589, 534.458 800.612, 534.386 800.795, 533.947 801.004, 533.575 801.233, 533.279 801.475, 533.069 801.623, 532.998 801.725, 532.949 801.974, 532.922 " fill="none" stroke="rgb(0, 0, 0)" stroke-linecap="butt" stroke-linejoin="round" stroke-opacity="1.0" stroke-width="3.0" />
            <path d=" M 775.147, 548.959 774.982, 557.936 774.556, 567.927 774.455, 570.316 773.791, 580.293 773.630, 582.699 772.729, 592.659 772.511, 595.066 771.373, 605.001 771.099, 607.394 769.723, 617.299 769.395, 619.661 767.780, 629.529 767.401, 631.845 765.547, 641.672 765.122, 643.925 763.026, 653.703 762.559, 655.879 760.217, 665.601 759.715, 667.683 757.124, 677.342 756.594, 679.316 753.749, 688.903 753.199, 690.756 750.095, 700.262 749.534, 701.978 746.164, 711.393 745.603, 712.959 741.961, 722.272 741.412, 723.676 737.489, 732.875 736.964, 734.106 732.752, 743.176 732.266, 744.223 727.755, 753.147 727.323, 754.002 722.503, 762.763 722.143, 763.419 717.003, 771.997 716.732, 772.449 711.258, 780.818 711.097, 781.065 705.248, 789.241 699.194, 796.953 692.944, 804.173 686.509, 810.873 679.900, 817.029 673.131, 822.615 666.215, 827.602 659.165, 831.965 651.998, 835.681 644.730, 838.723 637.379, 841.068 629.963, 842.692 622.501, 843.575 615.016, 843.697 609.895, 843.245 " fill="none" stroke="rgb(0, 0, 0)" stroke-linecap="butt" stroke-linejoin="round" stroke-opacity="1.0" stroke-width="3.0" />
            <path d=" M 790.470, 538.995 790.468, 548.995 790.468, 550.133 780.512, 549.196 779.759, 549.126 775.152, 548.692 766.726, 547.899 766.019, 547.833 765.311, 547.767 764.602, 547.700 763.892, 547.634 763.059, 547.426 762.258, 546.962 761.504, 546.251 760.815, 545.305 760.204, 544.143 759.682, 542.786 759.259, 541.260 758.943, 539.594 758.742, 537.820 758.705, 537.019 758.658, 535.971 758.694, 534.085 758.849, 532.197 759.120, 530.344 759.142, 530.237 759.501, 528.562 759.986, 526.885 760.564, 525.345 761.225, 523.973 761.955, 522.794 762.739, 521.830 763.416, 521.117 764.093, 520.404 764.331, 520.154 764.770, 519.693 765.445, 518.982 765.784, 518.627 772.682, 511.387 778.407, 505.377 785.305, 498.137 788.220, 495.077 789.063, 505.041 789.159, 506.174 789.495, 510.661 790.028, 520.647 790.097, 521.949 " fill="none" stroke="rgb(0, 0, 0)" stroke-linecap="butt" stroke-linejoin="round" stroke-opacity="1.0" stroke-width="3.0" />
            <path d=" M 764.585, 537.404 764.277, 537.259 763.996, 536.971 763.755, 536.554 763.566, 536.025 763.436, 535.408 763.371, 534.730 763.374, 534.020 763.445, 533.309 763.581, 532.630 763.775, 532.011 764.019, 531.479 764.303, 531.059 764.613, 530.769 764.936, 530.621 765.259, 530.620 " fill="none" stroke="rgb(0, 0, 0)" stroke-linecap="butt" stroke-linejoin="round" stroke-opacity="1.0" stroke-width="3.0" />
            <path d=" M 765.259, 530.620 765.567, 530.768 765.847, 531.057 766.086, 531.475 766.274, 532.002 766.403, 532.618 766.468, 533.294 766.464, 534.002 766.394, 534.710 766.259, 535.387 766.066, 536.005 765.823, 536.535 765.541, 536.956 765.231, 537.249 764.908, 537.401 764.585, 537.404 " fill="none" stroke="rgb(0, 0, 0)" stroke-linecap="butt" stroke-linejoin="round" stroke-opacity="1.0" stroke-width="3.0" />
            <path d=" M 800.593, 535.482 800.632, 545.482 800.634, 546.180 800.440, 556.178 800.381, 559.241 799.956, 569.232 799.824, 572.329 799.170, 582.308 798.965, 585.424 798.083, 595.385 797.806, 598.502 796.696, 608.441 796.349, 611.543 795.009, 621.453 794.594, 624.524 793.023, 634.400 792.543, 637.423 790.741, 647.260 790.199, 650.218 788.162, 660.008 787.564, 662.885 785.289, 672.623 784.640, 675.402 782.123, 685.080 781.430, 687.746 778.667, 697.357 777.937, 699.893 774.922, 709.428 774.165, 711.819 770.890, 721.268 770.117, 723.500 766.576, 732.852 765.797, 734.910 761.983, 744.154 761.211, 746.025 757.113, 755.147 756.362, 756.818 751.970, 765.802 751.256, 767.263 746.561, 776.092 745.901, 777.334 740.890, 785.988 740.302, 787.004 734.962, 795.459 734.467, 796.243 728.785, 804.473 728.404, 805.026 722.368, 812.999 722.122, 813.324 715.717, 821.004 715.630, 821.107 708.940, 828.347 702.064, 835.015 695.013, 841.083 687.801, 846.521 680.443, 851.300 672.955, 855.394 665.355, 858.775 657.659, 861.414 649.888, 863.287 642.062, 864.371 634.203, 864.641 626.335, 864.076 618.481, 862.658 610.666, 860.370 602.918, 857.197 595.264, 853.127 587.732, 848.155 580.351, 842.276 573.151, 835.487 566.427, 828.084 566.162, 827.793 559.985, 819.929 559.415, 819.203 553.772, 810.947 552.939, 809.729 547.815, 801.142 546.767, 799.388 542.139, 790.523 540.927, 788.203 540.837, 788.005 538.226, 782.286 536.882, 779.342 535.449, 776.203 531.752, 766.911 531.697, 766.775 530.386, 763.481 530.362, 763.419 527.100, 753.966 525.693, 749.889 524.779, 746.813 522.599, 739.470 521.467, 735.657 519.019, 725.962 517.709, 720.773 515.644, 710.989 514.442, 705.288 512.747, 695.433 511.685, 689.261 510.346, 679.351 509.816, 675.421 509.455, 672.753 508.463, 662.803 507.768, 655.832 505.007, 646.221 502.472, 637.401 " fill="none" stroke="rgb(0, 0, 0)" stroke-linecap="butt" stroke-linejoin="round" stroke-opacity="1.0" stroke-width="3.0" />
            <path d=" M 666.951, 289.514 658.991, 289.953 658.369, 290.053 650.936, 291.253 642.808, 293.431 634.632, 296.500 626.436, 300.473 618.247, 305.360 610.093, 311.163 602.401, 317.554 602.005, 317.883 594.773, 324.790 594.013, 325.516 587.240, 332.873 586.151, 334.056 579.826, 341.801 578.450, 343.487 572.562, 351.569 570.950, 353.781 570.943, 353.791 570.529, 354.425 565.064, 362.800 563.818, 364.710 563.665, 364.945 561.314, 368.957 559.668, 371.766 556.647, 376.922 554.440, 381.112 552.757, 384.306 549.923, 389.685 545.643, 398.723 543.525, 403.195 541.339, 408.340 537.485, 417.409 533.932, 426.756 531.833, 432.275 528.626, 441.747 526.598, 447.739 523.729, 457.319 521.806, 463.740 519.269, 473.413 517.484, 480.217 515.271, 489.969 513.653, 497.101 511.760, 506.920 510.334, 514.320 509.008, 522.626 507.544, 531.802 506.283, 541.722 505.298, 549.471 504.351, 559.426 503.607, 567.251 502.974, 577.231 502.477, 585.063 502.162, 595.058 501.916, 602.831 501.921, 612.831 501.925, 620.477 502.248, 630.471 502.472, 637.401 501.430, 647.347 500.464, 656.569 " fill="none" stroke="rgb(0, 0, 0)" stroke-linecap="butt" stroke-linejoin="round" stroke-opacity="1.0" stroke-width="3.0" />
            <path d=" M 502.226, 674.032 503.577, 683.940 504.548, 691.063 505.810, 698.332 507.417, 707.592 509.498, 717.373 510.814, 723.555 513.280, 733.245 514.717, 738.889 517.585, 748.469 519.104, 753.542 519.316, 754.153 521.537, 760.537 523.947, 767.462 527.547, 776.432 528.838, 779.649 529.221, 780.604 533.404, 789.687 534.298, 791.627 534.897, 792.928 535.659, 794.374 538.446, 799.663 540.944, 804.403 546.106, 812.968 547.331, 815.000 553.014, 823.228 554.028, 824.695 560.249, 832.524 561.001, 833.472 567.771, 840.831 568.220, 841.319 575.543, 848.128 575.652, 848.229 583.266, 854.198 591.031, 859.229 598.917, 863.329 606.895, 866.506 614.937, 868.771 623.015, 870.144 631.103, 870.642 639.177, 870.283 647.212, 869.092 655.188, 867.094 663.083, 864.315 670.877, 860.780 678.552, 856.520 686.091, 851.562 693.478, 845.935 700.698, 839.668 707.738, 832.793 714.503, 825.429 714.586, 825.339 720.972, 817.644 721.229, 817.334 727.249, 809.350 727.657, 808.809 733.325, 800.571 733.861, 799.793 739.190, 791.331 739.831, 790.314 744.834, 781.656 745.559, 780.401 750.249, 771.569 751.038, 770.081 755.427, 761.095 756.263, 759.384 760.359, 750.261 761.225, 748.334 765.039, 739.090 765.919, 736.958 769.461, 727.606 770.341, 725.283 773.619, 715.835 774.487, 713.335 777.506, 703.801 778.351, 701.137 781.119, 691.527 781.929, 688.714 784.452, 679.037 785.220, 676.092 787.501, 666.355 788.218, 663.292 790.261, 653.503 790.922, 650.340 792.731, 640.505 793.328, 637.257 794.905, 627.382 795.435, 624.068 796.781, 614.159 797.239, 610.793 798.356, 600.856 798.739, 597.456 799.628, 587.496 799.933, 584.080 800.593, 574.102 800.819, 570.686 801.249, 560.695 801.396, 557.297 801.594, 547.299 801.661, 543.935 801.632, 535.549 " fill="none" stroke="rgb(0, 0, 0)" stroke-linecap="butt" stroke-linejoin="round" stroke-opacity="1.0" stroke-width="3.0" />
            <path d=" M 500.464, 656.569 501.468, 666.518 502.226, 674.032 " fill="none" stroke="rgb(0, 0, 0)" stroke-linecap="butt" stroke-linejoin="round" stroke-opacity="1.0" stroke-width="3.0" />
            <path d=" M 815.797, 423.286 813.851, 413.477 813.818, 413.312 811.638, 403.552 811.380, 402.395 808.956, 392.694 808.703, 391.684 806.027, 382.049 805.789, 381.195 802.852, 371.635 802.639, 370.942 799.434, 361.469 799.255, 360.942 795.771, 351.569 795.638, 351.212 791.864, 341.952 791.790, 341.770 787.711, 332.635 783.403, 323.827 778.867, 315.370 774.106, 307.282 769.124, 299.582 763.925, 292.286 758.515, 285.414 752.896, 278.986 747.076, 273.023 741.058, 267.548 734.850, 262.584 728.457, 258.156 721.889, 254.283 715.155, 250.982 708.263, 248.270 701.226, 246.166 694.053, 244.688 686.757, 243.856 679.351, 243.690 677.328, 243.830 671.849, 244.209 664.266, 245.432 656.618, 247.370 648.922, 250.032 641.195, 253.424 633.455, 257.556 625.722, 262.433 618.016, 268.061 610.358, 274.446 608.661, 276.044 608.641, 276.063 608.596, 276.105 602.771, 281.590 595.890, 288.846 595.279, 289.491 588.789, 297.099 587.903, 298.138 586.554, 299.887 580.666, 307.519 577.366, 312.229 573.589, 317.620 568.210, 326.050 567.453, 327.237 566.958, 328.014 566.697, 328.423 561.769, 336.889 560.012, 339.909 559.247, 341.349 557.651, 344.355 553.560, 352.058 552.452, 354.343 550.826, 357.700 547.364, 364.845 543.327, 373.994 541.451, 378.244 539.958, 381.963 539.648, 382.736 535.924, 392.016 535.841, 392.221 532.420, 401.617 530.556, 406.735 527.428, 416.234 525.612, 421.747 522.772, 431.335 521.030, 437.212 518.471, 446.879 516.827, 453.087 514.545, 462.823 513.021, 469.324 511.012, 479.120 509.627, 485.873 507.891, 495.721 506.663, 502.684 505.197, 512.576 504.141, 519.703 503.795, 522.565 502.595, 532.493 502.065, 536.873 501.131, 546.829 500.444, 554.138 499.775, 564.116 499.284, 571.442 498.882, 581.434 498.589, 588.728 498.457, 598.727 498.362, 605.939 498.502, 615.938 498.601, 623.020 499.017, 633.011 499.303, 639.914 499.999, 649.890 500.464, 656.569 501.446, 666.521 502.078, 672.931 502.226, 674.032 503.495, 683.951 504.136, 688.951 505.711, 698.838 506.625, 704.580 508.506, 714.401 509.535, 719.773 511.735, 729.528 512.853, 734.487 515.382, 744.162 516.563, 748.681 518.825, 756.238 520.646, 762.321 520.908, 763.090 524.128, 772.558 525.086, 775.373 526.782, 779.789 528.027, 783.030 529.862, 787.807 533.365, 795.904 534.659, 798.894 534.960, 799.591 537.391, 804.593 540.359, 810.701 545.143, 819.483 546.035, 821.121 551.246, 829.656 551.966, 830.835 557.618, 839.085 558.130, 839.832 564.236, 847.752 564.506, 848.101 571.072, 855.633 577.808, 862.421 584.695, 868.460 591.711, 873.749 598.835, 878.296 606.045, 882.110 613.322, 885.200 620.624, 887.569 620.647, 887.576 628.002, 889.249 635.370, 890.229 642.736, 890.526 650.083, 890.153 657.396, 889.128 664.661, 887.472 671.863, 885.206 678.990, 882.349 686.030, 878.921 692.971, 874.940 699.804, 870.423 706.517, 865.388 713.102, 859.851 719.550, 853.836 725.854, 847.366 732.005, 840.463 737.998, 833.146 743.827, 825.436 749.484, 817.350 754.966, 808.905 760.129, 800.341 760.265, 800.116 765.157, 791.395 765.377, 791.003 770.008, 782.140 770.299, 781.585 774.679, 772.595 775.027, 771.882 779.164, 762.778 779.558, 761.912 783.461, 752.705 783.890, 751.693 787.564, 742.393 788.019, 741.241 791.470, 731.855 791.942, 730.570 795.175, 721.107 795.657, 719.697 798.674, 710.163 799.158, 708.633 801.966, 699.036 802.446, 697.397 805.049, 687.742 805.518, 686.004 807.921, 676.297 808.373, 674.470 810.580, 664.717 811.011, 662.810 813.024, 653.015 813.430, 651.038 815.251, 641.206 815.628, 639.169 817.259, 629.302 817.604, 627.214 819.043, 617.318 819.353, 615.189 820.603, 605.267 820.876, 603.106 821.939, 593.163 822.172, 590.980 823.048, 581.019 823.241, 578.826 823.931, 568.849 824.083, 566.655 824.584, 556.668 824.694, 554.483 825.006, 544.488 825.074, 542.322 825.196, 532.322 825.223, 530.186 825.187, 525.030 " fill="none" stroke="rgb(0, 0, 0)" stroke-linecap="butt" stroke-linejoin="round" stroke-opacity="1.0" stroke-width="3.0" />
            <path d=" M 677.129, 243.825 669.617, 244.345 662.024, 245.568 654.366, 247.505 646.660, 250.165 638.923, 253.555 631.174, 257.684 623.432, 262.557 615.716, 268.180 608.050, 274.559 607.195, 275.362 607.155, 275.400 607.132, 275.422 600.455, 281.696 593.567, 288.945 592.955, 289.589 586.458, 297.191 585.572, 298.228 580.852, 304.334 578.327, 307.600 572.582, 315.784 571.244, 317.690 570.520, 318.822 567.024, 324.291 566.519, 325.081 564.346, 328.481 561.467, 333.418 558.931, 337.767 557.655, 339.955 557.331, 340.565 552.633, 349.393 552.118, 350.361 551.198, 352.091 550.486, 353.558 546.119, 362.554 544.997, 364.865 540.953, 374.010 539.280, 377.796 539.079, 378.249 535.349, 387.527 533.466, 392.210 530.039, 401.604 528.917, 404.680 528.177, 406.708 525.044, 416.205 523.231, 421.703 520.386, 431.289 518.646, 437.150 516.083, 446.816 514.441, 453.007 512.155, 462.742 510.633, 469.225 508.622, 479.020 507.239, 485.755 505.500, 495.603 504.274, 502.547 502.807, 512.439 501.752, 519.547 501.390, 522.538 500.189, 532.465 499.677, 536.697 498.742, 546.653 498.057, 553.942 497.388, 563.920 496.899, 571.226 496.498, 581.218 496.206, 588.493 496.076, 598.492 495.982, 605.684 496.124, 615.683 496.224, 622.746 496.641, 632.737 496.929, 639.622 497.628, 649.597 498.094, 656.258 499.079, 666.209 499.712, 672.602 500.990, 682.520 501.774, 688.605 503.352, 698.480 504.269, 704.218 504.457, 705.197 506.344, 715.018 507.185, 719.395 509.391, 729.149 510.509, 734.094 513.044, 743.768 514.225, 748.275 517.099, 757.852 517.853, 760.364 518.315, 761.901 519.963, 766.735 522.761, 774.941 525.952, 783.227 527.201, 786.471 527.545, 787.364 531.524, 796.538 532.640, 799.112 532.651, 799.137 533.972, 801.850 536.755, 807.563 538.058, 810.238 542.850, 819.015 543.742, 820.650 548.961, 829.180 549.681, 830.357 555.341, 838.601 555.854, 839.348 561.968, 847.261 562.238, 847.611 568.814, 855.139 575.559, 861.923 582.456, 867.959 589.482, 873.247 596.615, 877.793 603.835, 881.607 611.122, 884.698 618.457, 887.076 " fill="none" stroke="rgb(0, 0, 0)" stroke-linecap="butt" stroke-linejoin="round" stroke-opacity="1.0" stroke-width="3.0" />
            <path d=" M 679.351, 243.690 677.129, 243.825 " fill="none" stroke="rgb(0, 0, 0)" stroke-linecap="butt" stroke-linejoin="round" stroke-opacity="1.0" stroke-width="3.0" />
            <path d=" M 618.457, 887.076 620.647, 887.576 " fill="none" stroke="rgb(0, 0, 0)" stroke-linecap="butt" stroke-linejoin="round" stroke-opacity="1.0" stroke-width="3.0" />
            <path d=" M 482.454, 658.950 483.459, 668.900 484.346, 677.682 485.648, 687.597 486.752, 696.006 488.359, 705.876 489.659, 713.863 491.579, 723.677 493.051, 731.201 495.294, 740.946 495.752, 742.935 496.910, 747.968 497.514, 750.231 500.092, 759.893 501.219, 764.118 503.148, 770.428 505.955, 779.607 508.018, 785.541 509.605, 790.105 511.097, 794.398 511.448, 795.292 512.199, 797.201 513.413, 800.290 516.622, 808.455 518.274, 812.190 519.518, 814.999 521.628, 819.768 522.505, 821.749 522.882, 822.507 525.485, 827.743 526.796, 830.380 527.190, 831.172 528.722, 834.253 529.815, 836.213 534.688, 844.945 535.247, 845.947 540.556, 854.421 542.054, 856.812 547.815, 864.986 549.118, 866.835 555.342, 874.661 556.412, 876.006 563.110, 883.432 563.911, 884.320 571.086, 891.285 571.589, 891.773 579.238, 898.214 579.421, 898.367 587.383, 904.106 595.450, 908.997 603.601, 913.048 611.812, 916.271 620.062, 918.681 624.388, 919.730 632.635, 921.335 640.881, 922.158 649.107, 922.217 657.297, 921.533 665.433, 920.126 673.501, 918.018 681.485, 915.233 689.372, 911.792 697.150, 907.720 704.806, 903.039 712.330, 897.774 719.711, 891.949 726.940, 885.586 734.009, 878.710 740.909, 871.343 747.422, 863.756 747.634, 863.509 753.834, 855.663 754.177, 855.230 760.074, 847.154 760.531, 846.527 766.136, 838.245 766.692, 837.424 772.014, 828.958 772.654, 827.940 777.704, 819.308 778.413, 818.096 783.200, 809.316 783.964, 807.913 788.497, 799.000 789.305, 797.411 793.593, 788.377 794.432, 786.609 798.481, 777.465 799.341, 775.525 803.159, 766.283 804.029, 764.177 807.624, 754.846 808.496, 752.584 811.873, 743.172 812.737, 740.763 815.902, 731.277 816.751, 728.731 819.709, 719.178 820.537, 716.504 823.291, 706.891 824.092, 704.098 826.647, 694.430 827.414, 691.529 829.775, 681.812 830.503, 678.812 832.672, 669.050 833.358, 665.963 835.336, 656.161 835.975, 652.996 837.767, 643.158 838.355, 639.926 839.962, 630.056 840.497, 626.767 841.919, 616.869 842.399, 613.534 843.638, 603.611 844.059, 600.239 845.117, 590.296 845.478, 586.898 846.354, 576.937 846.654, 573.524 847.348, 563.548 847.586, 560.131 848.097, 550.144 848.272, 546.732 848.601, 536.738 848.713, 533.342 848.857, 523.343 848.906, 519.974 848.865, 509.974 848.852, 506.642 848.623, 496.644 848.548, 493.360 848.129, 483.369 847.994, 480.143 847.383, 470.161 847.190, 467.005 846.382, 457.037 846.133, 453.960 845.126, 444.011 844.824, 441.024 843.613, 431.098 843.261, 428.212 841.842, 418.313 841.444, 415.539 839.810, 405.674 839.372, 403.022 837.518, 393.195 837.044, 390.677 834.964, 380.895 834.459, 378.520 832.147, 368.791 831.619, 366.569 829.065, 356.900 828.521, 354.841 825.718, 345.242 825.167, 343.355 822.104, 333.835 821.556, 332.129 818.224, 322.700 817.688, 321.183 814.077, 311.858 813.565, 310.536 809.662, 301.329 809.187, 300.209 804.980, 291.137 804.555, 290.222 800.031, 281.304 799.672, 280.596 794.816, 271.854 794.538, 271.354 789.337, 262.813 789.158, 262.518 783.596, 254.207 783.532, 254.111 777.666, 246.156 771.562, 238.677 765.226, 231.699 758.664, 225.244 751.880, 219.339 744.883, 214.008 737.680, 209.276 730.280, 205.167 722.691, 201.708 714.925, 198.921 706.994, 196.830 698.910, 195.460 690.687, 194.833 682.339, 194.970 677.920, 195.334 669.441, 196.257 660.872, 197.982 652.231, 200.526 643.538, 203.905 634.814, 208.133 626.172, 213.165 626.080, 213.219 617.822, 218.858 617.360, 219.173 609.499, 225.354 608.678, 226.000 601.222, 232.664 600.059, 233.703 593.008, 240.794 591.529, 242.281 584.879, 249.749 583.115, 251.729 579.063, 256.781 574.845, 262.039 568.972, 270.133 566.745, 273.201 561.245, 281.552 559.805, 283.739 559.163, 284.714 558.846, 285.196 556.915, 288.420 555.761, 290.346 554.276, 292.825 553.817, 293.591 552.704, 295.450 551.174, 298.005 549.601, 300.890 548.055, 303.725 547.323, 305.068 545.739, 307.971 543.758, 311.605 539.477, 320.226 537.920, 323.361 536.628, 325.964 534.480, 330.716 530.362, 339.828 529.809, 341.052 526.011, 350.302 525.257, 352.139 523.331, 356.828 519.843, 366.201 517.219, 373.253 514.034, 382.733 511.498, 390.281 508.608, 399.854 506.192, 407.860 503.593, 417.516 501.325, 425.939 499.009, 435.667 497.010, 444.066 496.916, 444.459 494.916, 454.078 492.986, 463.362 491.226, 473.206 489.549, 482.586 488.063, 492.474 486.622, 502.064 485.973, 507.372 485.357, 512.403 485.339, 512.553 484.839, 516.636 484.517, 519.271 484.476, 519.609 484.448, 519.832 484.418, 520.083 484.216, 521.731 483.273, 531.686 482.341, 541.518 481.669, 551.496 481.004, 561.359 480.604, 571.351 480.210, 581.182 480.084, 591.181 479.960, 600.921 480.110, 610.919 480.254, 620.506 480.684, 630.496 481.087, 639.871 481.177, 641.118 481.891, 651.092 482.454, 658.950 " fill="none" stroke="rgb(0, 0, 0)" stroke-linecap="butt" stroke-linejoin="round" stroke-opacity="1.0" stroke-width="3.0" />
            <path d=" M 682.339, 194.970 673.883, 195.891 665.337, 197.616 656.718, 200.163 648.046, 203.545 639.343, 207.778 630.630, 212.872 622.382, 218.526 621.930, 218.835 614.081, 225.032 613.267, 225.674 605.824, 232.352 604.667, 233.391 597.629, 240.495 596.155, 241.984 589.519, 249.465 587.758, 251.450 581.761, 258.955 579.503, 261.781 573.645, 269.885 571.419, 272.964 565.933, 281.326 563.533, 284.984 560.926, 289.353 560.318, 290.373 557.667, 294.816 555.874, 297.821 555.052, 299.334 553.511, 302.170 548.738, 310.957 548.471, 311.449 548.182, 312.032 546.618, 315.193 542.184, 324.156 541.351, 325.839 537.245, 334.958 535.472, 338.896 534.543, 340.960 530.756, 350.215 528.073, 356.771 524.596, 366.148 521.968, 373.233 521.201, 375.524 518.026, 385.007 516.254, 390.299 513.374, 399.875 510.954, 407.918 508.362, 417.576 506.091, 426.038 503.782, 435.768 501.685, 444.602 499.655, 454.393 497.757, 463.548 496.001, 473.393 495.198, 477.895 494.321, 482.816 492.838, 492.705 491.394, 502.339 490.769, 507.450 490.757, 507.548 489.637, 516.719 489.274, 519.694 489.122, 520.940 488.986, 522.051 488.802, 523.995 487.860, 533.951 487.109, 541.885 486.745, 547.287 486.072, 557.264 485.768, 561.770 485.693, 563.648 485.291, 573.640 484.969, 581.639 484.840, 591.638 484.714, 601.422 484.860, 611.421 485.001, 621.051 485.426, 631.042 485.826, 640.460 486.535, 650.435 486.689, 652.604 487.184, 659.582 488.182, 669.532 489.067, 678.354 490.360, 688.270 490.813, 691.742 491.182, 694.569 491.462, 696.717 493.059, 706.589 494.357, 714.612 496.266, 724.428 497.736, 731.985 498.121, 733.667 500.353, 743.415 501.583, 748.786 504.147, 758.452 505.877, 764.968 508.787, 774.535 510.598, 780.487 511.633, 783.480 513.522, 788.938 515.724, 795.305 519.326, 804.513 519.989, 806.209 521.200, 809.305 521.232, 809.387 525.264, 818.539 526.939, 822.343 527.098, 822.704 528.235, 825.001 531.195, 830.981 533.297, 835.229 538.154, 843.971 539.804, 846.941 545.097, 855.425 546.592, 857.821 552.337, 866.007 553.636, 867.858 559.846, 875.696 560.910, 877.040 567.594, 884.479 568.389, 885.363 575.551, 892.341 576.046, 892.823 583.685, 899.277 583.857, 899.422 591.797, 905.164 599.843, 910.055 607.971, 914.105 616.160, 917.325 624.388, 919.730 " fill="none" stroke="rgb(0, 0, 0)" stroke-linecap="butt" stroke-linejoin="round" stroke-opacity="1.0" stroke-width="3.0" />
            <path d=" M 729.812, 518.271 728.938, 518.306 728.053, 518.566 727.174, 519.048 726.315, 519.743 725.525, 520.643 725.386, 520.857 724.819, 521.733 724.178, 522.994 723.610, 524.403 723.128, 525.937 722.738, 527.569 722.676, 527.933 722.449, 529.271 722.321, 530.471 722.263, 531.015 722.186, 532.770 722.219, 534.506 " fill="none" stroke="rgb(0, 0, 0)" stroke-linecap="butt" stroke-linejoin="round" stroke-opacity="1.0" stroke-width="3.0" />
            <path d=" M 728.863, 528.322 729.120, 528.390 729.364, 528.547 729.587, 528.789 729.785, 529.110 729.951, 529.500 730.080, 529.950 730.171, 530.447 730.219, 530.977 " fill="none" stroke="rgb(0, 0, 0)" stroke-linecap="butt" stroke-linejoin="round" stroke-opacity="1.0" stroke-width="3.0" />
            <path d=" M 727.143, 530.780 730.219, 530.977 739.368, 526.940 748.517, 522.903 750.460, 522.046 " fill="none" stroke="rgb(0, 0, 0)" stroke-linecap="butt" stroke-linejoin="round" stroke-opacity="1.0" stroke-width="3.0" />
            <path d=" M 802.967, 522.554 802.135, 522.595 801.291, 522.867 800.641, 523.254 800.450, 523.368 799.626, 524.089 798.870, 525.021 798.737, 525.242 798.196, 526.149 797.582, 527.453 797.037, 528.909 796.571, 530.493 796.192, 532.178 796.131, 532.555 795.907, 533.936 795.779, 535.174 795.721, 535.736 795.637, 537.546 795.656, 539.336 " fill="none" stroke="rgb(0, 0, 0)" stroke-linecap="butt" stroke-linejoin="round" stroke-opacity="1.0" stroke-width="3.0" />
            <path d=" M 801.974, 532.922 802.216, 532.990 802.446, 533.151 802.655, 533.399 802.840, 533.729 802.994, 534.131 803.113, 534.594 803.195, 535.105 803.238, 535.651 " fill="none" stroke="rgb(0, 0, 0)" stroke-linecap="butt" stroke-linejoin="round" stroke-opacity="1.0" stroke-width="3.0" />
            <path d=" M 780.427, 481.862 780.576, 481.807 780.733, 481.776 780.894, 481.770 781.114, 481.803 781.327, 481.880 781.526, 481.999 781.704, 482.155 781.853, 482.344 781.969, 482.559 782.047, 482.795 782.082, 483.048 782.070, 483.284 782.017, 483.509 781.923, 483.715 781.792, 483.895 781.630, 484.040 781.440, 484.148 " fill="none" stroke="rgb(0, 0, 0)" stroke-linecap="butt" stroke-linejoin="round" stroke-opacity="1.0" stroke-width="3.0" />
            <path d=" M 780.427, 481.862 780.229, 481.973 780.050, 482.122 780.024, 482.154 779.874, 482.342 779.764, 482.557 779.698, 482.793 779.682, 483.046 779.716, 483.281 779.727, 483.325 779.806, 483.547 779.928, 483.750 780.088, 483.924 780.279, 484.064 780.313, 484.086 780.522, 484.180 780.563, 484.194 780.620, 484.205 780.802, 484.242 780.839, 484.247 780.882, 484.249 780.932, 484.250 780.982, 484.250 781.033, 484.247 781.082, 484.242 781.127, 484.237 781.167, 484.229 781.201, 484.221 781.390, 484.165 781.440, 484.148 " fill="none" stroke="rgb(0, 0, 0)" stroke-linecap="butt" stroke-linejoin="round" stroke-opacity="1.0" stroke-width="3.0" />
            <path d=" M 777.979, 479.809 778.239, 485.947 782.074, 486.114 783.916, 486.195 784.566, 485.764 783.807, 479.983 781.380, 479.826 778.411, 479.634 777.979, 479.809 " fill="none" stroke="rgb(0, 0, 0)" stroke-linecap="butt" stroke-linejoin="round" stroke-opacity="1.0" stroke-width="3.0" />
            <path d=" M 783.916, 486.195 783.660, 480.043 " fill="none" stroke="rgb(0, 0, 0)" stroke-linecap="butt" stroke-linejoin="round" stroke-opacity="1.0" stroke-width="3.0" />
            <path d=" M 783.807, 479.983 783.660, 480.043 777.979, 479.809 " fill="none" stroke="rgb(0, 0, 0)" stroke-linecap="butt" stroke-linejoin="round" stroke-opacity="1.0" stroke-width="3.0" />
            <path d=" M 740.826, 512.354 739.072, 512.318 729.072, 512.256 727.574, 512.247 717.575, 512.318 716.095, 512.328 706.097, 512.518 704.628, 512.546 694.632, 512.843 693.168, 512.886 683.176, 513.277 681.711, 513.335 671.722, 513.807 670.252, 513.877 660.267, 514.419 658.786, 514.500 648.804, 515.100 647.308, 515.190 637.329, 515.836 635.813, 515.934 625.837, 516.615 624.298, 516.720 614.322, 517.425 612.756, 517.535 602.781, 518.253 601.183, 518.368 591.209, 519.087 589.575, 519.205 579.601, 519.917 577.928, 520.036 578.133, 510.038 578.227, 505.458 578.317, 495.458 578.358, 490.868 578.333, 480.868 578.322, 476.286 578.181, 466.287 578.117, 461.731 577.859, 451.734 577.743, 447.221 577.367, 437.229 577.199, 432.776 576.703, 422.789 576.486, 418.416 575.867, 408.435 575.603, 404.159 574.858, 394.187 574.548, 390.029 574.544, 389.989 " fill="none" stroke="rgb(0, 0, 0)" stroke-linecap="butt" stroke-linejoin="round" stroke-opacity="1.0" stroke-width="3.0" />
            <path d=" M 579.063, 256.781 577.985, 255.912 570.637, 249.128 570.114, 248.645 563.211, 241.410 562.572, 240.740 556.113, 233.106 555.378, 232.236 549.360, 224.250 548.547, 223.171 546.824, 220.610 542.093, 213.578 541.358, 212.357 541.170, 212.044 538.056, 206.868 536.024, 203.490 531.287, 194.683 531.138, 194.407 530.347, 192.936 " fill="none" stroke="rgb(0, 0, 0)" stroke-linecap="butt" stroke-linejoin="round" stroke-opacity="1.0" stroke-width="3.0" />
            <path d=" M 530.347, 192.936 527.363, 187.576 526.253, 185.582 522.010, 178.924 519.629, 175.706 517.625, 173.000 515.551, 170.638 513.105, 167.852 508.456, 163.523 503.688, 160.052 501.966, 159.143 498.993, 157.574 498.811, 157.478 493.835, 155.843 488.773, 155.187 483.637, 155.545 478.442, 156.951 473.204, 159.441 471.997, 160.267 470.895, 161.021 467.940, 163.044 465.404, 165.324 462.669, 167.783 457.409, 173.681 453.235, 179.332 453.027, 179.614 452.183, 180.755 447.359, 188.462 447.012, 189.017 442.267, 197.820 441.917, 198.469 437.669, 207.522 436.924, 209.109 433.117, 218.356 432.057, 220.931 428.643, 230.330 427.341, 233.914 424.279, 243.434 422.800, 248.032 420.058, 257.649 418.460, 263.252 416.011, 272.948 414.347, 279.532 412.166, 289.291 410.484, 296.818 408.552, 306.629 406.895, 315.047 405.196, 324.902 403.603, 334.152 402.125, 344.042 400.629, 354.054 399.361, 363.973 398.092, 373.892 397.993, 374.665 396.924, 384.607 395.856, 394.550 395.712, 395.891 394.837, 405.852 393.962, 415.814 393.802, 417.633 393.115, 427.609 392.427, 437.585 392.276, 439.786 391.772, 449.773 391.268, 459.760 391.143, 462.239 390.820, 472.234 390.497, 482.229 390.411, 484.879 390.440, 484.945 394.439, 494.110 396.163, 498.060 397.366, 500.693 401.520, 509.790 401.999, 510.837 406.309, 519.861 407.918, 523.229 412.387, 532.175 413.923, 535.252 418.552, 544.116 420.016, 546.921 424.805, 555.700 426.197, 558.253 431.147, 566.942 432.468, 569.261 437.580, 577.856 438.831, 579.961 444.104, 588.458 445.288, 590.366 450.721, 598.761 451.839, 600.488 457.432, 608.778 458.488, 610.342 464.239, 618.523 465.234, 619.939 471.142, 628.008 472.081, 629.292 478.143, 637.245 479.031, 638.411 481.177, 641.118 " fill="none" stroke="rgb(0, 0, 0)" stroke-linecap="butt" stroke-linejoin="round" stroke-opacity="1.0" stroke-width="3.0" />
            <path d=" M 360.752, 475.665 356.349, 484.643 353.902, 489.635 " fill="none" stroke="rgb(0, 0, 0)" stroke-linecap="butt" stroke-linejoin="round" stroke-opacity="1.0" stroke-width="3.0" />
            <path d=" M 471.997, 160.267 464.981, 160.595 " fill="none" stroke="rgb(0, 0, 0)" stroke-linecap="butt" stroke-linejoin="round" stroke-opacity="1.0" stroke-width="3.0" />
            <path d=" M 534.492, 486.469 534.596, 486.511 " fill="none" stroke="rgb(0, 0, 0)" stroke-linecap="butt" stroke-linejoin="round" stroke-opacity="1.0" stroke-width="3.0" />
        </g>
    </g>
</svg>
