<?xml version='1.0' encoding='ascii'?>
<svg xmlns="http://www.w3.org/2000/svg" height="1080" version="1.1" width="1080">
    <g id="View Layer_LineSet" inkscape:groupmode="lineset" inkscape:label="View Layer_LineSet" xmlns:inkscape="http://www.inkscape.org/namespaces/inkscape">
        <g id="strokes" inkscape:groupmode="layer" inkscape:label="strokes" xmlns:inkscape="http://www.inkscape.org/namespaces/inkscape">
            <path d=" M 565.362, 506.228 565.291, 507.345 565.203, 508.426 565.179, 508.660 " fill="none" stroke="rgb(0, 0, 0)" stroke-linecap="butt" stroke-linejoin="round" stroke-opacity="1.0" stroke-width="3.0" />
            <path d=" M 354.316, 475.921 360.709, 475.227 " fill="none" stroke="rgb(0, 0, 0)" stroke-linecap="butt" stroke-linejoin="round" stroke-opacity="1.0" stroke-width="3.0" />
            <path d=" M 378.658, 475.445 388.629, 476.211 390.676, 476.368 " fill="none" stroke="rgb(0, 0, 0)" stroke-linecap="butt" stroke-linejoin="round" stroke-opacity="1.0" stroke-width="3.0" />
            <path d=" M 390.676, 476.368 386.847, 467.130 383.017, 457.892 382.186, 455.886 " fill="none" stroke="rgb(0, 0, 0)" stroke-linecap="butt" stroke-linejoin="round" stroke-opacity="1.0" stroke-width="3.0" />
            <path d=" M 466.627, 155.580 462.115, 156.156 457.548, 157.820 452.940, 160.610 448.307, 164.552 443.665, 169.674 439.552, 175.289 439.032, 175.999 438.515, 176.845 434.428, 183.544 429.872, 192.316 425.780, 201.441 425.385, 202.321 421.742, 211.634 420.991, 213.555 417.739, 223.012 416.710, 226.006 413.803, 235.575 412.565, 239.651 409.967, 249.308 408.580, 254.461 406.261, 264.188 404.780, 270.398 402.712, 280.182 401.185, 287.410 399.349, 297.241 397.818, 305.439 396.197, 315.307 394.701, 324.417 393.282, 334.316 391.856, 344.266 390.626, 354.190 389.396, 364.114 389.299, 364.898 388.250, 374.842 387.200, 384.787 387.049, 386.218 386.173, 396.179 385.296, 406.141 385.121, 408.125 384.412, 418.099 383.702, 428.074 383.529, 430.509 382.981, 440.494 382.433, 450.479 382.281, 453.258 382.186, 455.886 380.411, 465.727 378.658, 475.445 " fill="none" stroke="rgb(0, 0, 0)" stroke-linecap="butt" stroke-linejoin="round" stroke-opacity="1.0" stroke-width="3.0" />
            <path d=" M 529.239, 721.633 529.925, 718.132 531.694, 708.289 532.157, 705.707 533.781, 695.840 534.254, 692.968 535.742, 683.079 536.168, 680.249 536.215, 679.938 537.575, 670.031 538.040, 666.644 539.278, 656.721 539.729, 653.111 540.851, 643.174 541.282, 639.362 542.294, 629.413 542.700, 625.419 543.605, 615.460 543.983, 611.305 544.785, 601.337 545.130, 597.041 545.832, 587.066 546.143, 582.649 546.747, 572.667 547.021, 568.147 547.530, 558.160 547.765, 553.556 548.180, 543.564 548.374, 538.895 548.697, 528.900 548.850, 524.184 555.382, 524.240 557.230, 524.255 557.335, 524.256 559.120, 524.271 562.692, 524.302 563.530, 524.309 564.479, 524.317 567.045, 524.339 577.045, 524.424 577.821, 524.430 578.054, 514.433 578.167, 509.614 578.283, 499.615 578.339, 494.779 578.339, 484.779 578.339, 479.947 578.221, 469.947 578.164, 465.135 577.928, 455.138 577.815, 450.365 577.459, 440.372 577.291, 435.657 576.813, 425.669 576.591, 421.032 575.990, 411.050 575.716, 406.509 574.987, 396.536 574.855, 394.732 " fill="none" stroke="rgb(0, 0, 0)" stroke-linecap="butt" stroke-linejoin="round" stroke-opacity="1.0" stroke-width="3.0" />
            <path d=" M 571.904, 399.691 572.640, 409.664 572.714, 410.665 573.322, 420.647 573.560, 424.568 574.043, 434.556 574.237, 438.574 574.597, 448.568 574.745, 452.664 574.984, 462.661 575.083, 466.816 575.203, 476.815 575.253, 481.010 575.255, 491.010 575.256, 495.226 575.139, 505.225 575.090, 509.444 575.065, 510.540 574.973, 511.212 574.874, 511.845 574.767, 512.437 574.654, 512.983 574.534, 513.481 574.410, 513.929 574.281, 514.324 574.148, 514.663 574.011, 514.945 573.873, 515.169 573.733, 515.332 573.592, 515.435 573.451, 515.477 573.310, 515.456 569.317, 513.994 569.166, 512.738 568.986, 511.622 568.780, 510.664 568.552, 509.881 568.305, 509.287 568.043, 508.891 567.770, 508.702 567.345, 508.695 565.326, 508.663 565.179, 508.660 564.785, 508.654 563.830, 508.638 562.998, 508.625 559.426, 508.567 557.642, 508.539 557.550, 508.537 557.389, 508.534 557.100, 508.555 556.810, 508.785 556.524, 509.223 556.247, 509.860 555.983, 510.687 555.737, 511.690 555.646, 512.163 555.514, 512.852 555.317, 514.155 555.149, 515.575 555.014, 517.088 554.913, 518.669 554.850, 520.290 555.471, 520.491 556.522, 520.831 557.310, 520.845 557.415, 520.846 557.629, 520.850 559.199, 520.878 562.770, 520.941 563.608, 520.956 564.557, 520.973 565.037, 520.982 566.926, 521.015 566.947, 520.503 566.983, 520.009 567.031, 519.548 567.091, 519.132 567.161, 518.773 567.177, 518.713 567.239, 518.480 567.323, 518.261 567.410, 518.122 567.499, 518.068 " fill="none" stroke="rgb(0, 0, 0)" stroke-linecap="butt" stroke-linejoin="round" stroke-opacity="1.0" stroke-width="3.0" />
            <path d=" M 567.988, 521.371 574.758, 523.645 577.821, 524.430 " fill="none" stroke="rgb(0, 0, 0)" stroke-linecap="butt" stroke-linejoin="round" stroke-opacity="1.0" stroke-width="3.0" />
            <path d=" M 388.498, 223.193 387.455, 226.534 384.788, 236.171 383.720, 240.030 381.332, 249.740 380.114, 254.693 377.975, 264.462 376.656, 270.489 374.743, 280.305 373.366, 287.370 371.660, 297.223 370.265, 305.278 368.750, 315.162 367.372, 324.150 366.034, 334.060 364.705, 343.912 363.534, 353.843 362.364, 363.774 362.281, 364.478 361.269, 374.427 360.257, 384.375 360.116, 385.757 359.256, 395.720 358.396, 405.683 358.226, 407.650 357.512, 417.624 356.798, 427.599 356.622, 430.050 356.050, 440.034 355.478, 450.017 355.316, 452.846 354.883, 462.836 354.450, 472.827 354.316, 475.921 354.066, 485.918 353.816, 495.915 353.736, 499.097 353.644, 509.096 353.553, 519.096 353.524, 522.286 353.592, 532.286 353.659, 542.285 353.680, 545.366 353.909, 555.364 354.138, 565.361 354.203, 568.218 354.596, 578.210 354.989, 588.202 355.089, 590.722 355.651, 600.706 356.213, 610.691 356.330, 612.767 357.067, 622.739 357.804, 632.712 357.917, 634.243 358.837, 644.201 359.757, 654.158 359.840, 655.049 360.953, 664.987 362.085, 675.091 363.402, 685.003 364.635, 694.283 366.172, 704.164 367.475, 712.549 369.248, 722.390 370.587, 729.819 370.959, 731.614 " fill="none" stroke="rgb(0, 0, 0)" stroke-linecap="butt" stroke-linejoin="round" stroke-opacity="1.0" stroke-width="3.0" />
            <path d=" M 522.092, 552.609 521.537, 562.593 521.378, 565.448 520.711, 575.426 520.448, 579.369 519.669, 589.338 519.368, 593.180 518.473, 603.139 518.139, 606.861 517.472, 613.412 " fill="none" stroke="rgb(0, 0, 0)" stroke-linecap="butt" stroke-linejoin="round" stroke-opacity="1.0" stroke-width="3.0" />
            <path d=" M 495.059, 741.775 494.897, 742.389 492.127, 751.997 491.925, 752.696 488.916, 762.232 488.818, 762.544 485.577, 771.900 482.206, 780.734 478.708, 789.010 475.089, 796.693 471.351, 803.747 467.501, 810.137 463.545, 815.825 459.490, 820.772 455.342, 824.942 453.385, 826.495 " fill="none" stroke="rgb(0, 0, 0)" stroke-linecap="butt" stroke-linejoin="round" stroke-opacity="1.0" stroke-width="3.0" />
            <path d=" M 390.871, 471.183 390.676, 476.368 390.436, 486.365 390.197, 496.362 390.122, 499.487 390.042, 509.487 389.963, 519.487 389.938, 522.621 390.019, 532.620 390.100, 542.620 390.124, 545.647 390.367, 555.644 390.609, 565.641 390.677, 568.446 391.085, 578.438 391.492, 588.430 391.592, 590.902 392.167, 600.885 392.742, 610.869 392.859, 612.901 393.607, 622.873 394.354, 632.845 394.466, 634.337 395.393, 644.294 396.320, 654.251 396.400, 655.107 397.514, 665.045 398.644, 675.118 399.955, 685.032 401.180, 694.286 402.701, 704.169 403.988, 712.532 405.735, 722.378 407.049, 729.787 409.039, 739.587 410.340, 745.994 412.596, 755.737 413.839, 761.105 416.389, 770.775 417.524, 775.078 420.402, 784.655 421.371, 787.882 424.619, 797.340 425.360, 799.497 429.028, 808.800 429.466, 809.909 433.621, 819.005 433.670, 819.112 437.950, 827.107 441.435, 832.570 441.727, 833.027 442.287, 833.905 446.661, 839.519 451.055, 843.968 455.452, 847.276 459.837, 849.475 464.195, 850.594 468.512, 850.667 472.776, 849.733 476.976, 847.831 481.103, 844.998 485.147, 841.276 486.381, 839.850 489.100, 836.708 492.954, 831.334 496.705, 825.194 500.345, 818.328 503.871, 810.779 507.277, 802.585 510.396, 794.224 " fill="none" stroke="rgb(0, 0, 0)" stroke-linecap="butt" stroke-linejoin="round" stroke-opacity="1.0" stroke-width="3.0" />
            <path d=" M 468.255, 832.482 464.202, 832.209 462.250, 831.603 460.126, 830.944 456.039, 828.660 453.385, 826.495 451.957, 825.330 447.892, 820.928 443.862, 815.432 439.881, 808.829 435.968, 801.109 432.141, 792.263 428.642, 782.895 428.417, 782.293 425.327, 772.782 424.815, 771.207 422.083, 761.588 421.354, 759.022 418.941, 749.317 418.055, 745.755 415.925, 735.985 414.935, 731.440 413.062, 721.617 412.013, 716.115 410.375, 706.250 409.308, 699.827 407.886, 689.929 406.838, 682.630 405.617, 672.704 404.618, 664.588 403.585, 654.641 402.665, 645.773 401.810, 635.810 400.992, 626.265 400.308, 616.289 399.612, 606.149 399.091, 596.162 398.570, 586.176 398.536, 585.518 398.173, 575.525 397.810, 565.531 397.771, 564.472 397.562, 554.474 397.354, 544.476 397.325, 543.112 397.269, 533.112 397.212, 523.112 397.203, 521.546 397.296, 511.546 397.389, 501.547 397.405, 499.882 397.647, 489.885 397.674, 488.800 " fill="none" stroke="rgb(0, 0, 0)" stroke-linecap="butt" stroke-linejoin="round" stroke-opacity="1.0" stroke-width="3.0" />
            <path d=" M 506.940, 784.311 505.303, 788.542 501.999, 796.202 498.591, 803.234 495.081, 809.604 491.477, 815.274 487.784, 820.204 484.009, 824.359 480.159, 827.703 476.244, 830.195 472.273, 831.799 468.255, 832.482 " fill="none" stroke="rgb(0, 0, 0)" stroke-linecap="butt" stroke-linejoin="round" stroke-opacity="1.0" stroke-width="3.0" />
            <path d=" M 546.297, 523.414 545.971, 533.408 545.836, 537.511 545.411, 547.502 545.238, 551.558 544.713, 561.545 544.503, 565.536 543.877, 575.516 543.632, 579.424 542.902, 589.397 542.624, 593.203 541.789, 603.168 541.480, 606.852 540.538, 616.807 540.202, 620.351 539.147, 630.295 538.788, 633.678 537.617, 643.609 537.240, 646.812 535.949, 656.728 535.558, 659.730 534.141, 669.629 533.743, 672.409 532.222, 682.100 531.794, 684.824 530.104, 694.680 529.715, 696.951 527.875, 706.780 527.504, 708.765 526.965, 711.406 " fill="none" stroke="rgb(0, 0, 0)" stroke-linecap="butt" stroke-linejoin="round" stroke-opacity="1.0" stroke-width="3.0" />
            <path d=" M 548.850, 524.184 546.297, 523.414 555.400, 523.488 557.247, 523.503 562.709, 523.548 564.497, 523.562 564.975, 523.566 564.500, 523.413 563.558, 523.107 562.726, 522.838 559.180, 521.691 557.625, 521.187 557.629, 520.850 " fill="none" stroke="rgb(0, 0, 0)" stroke-linecap="butt" stroke-linejoin="round" stroke-opacity="1.0" stroke-width="3.0" />
            <path d=" M 378.658, 475.445 378.414, 485.443 378.170, 495.440 378.070, 499.515 377.983, 509.514 377.896, 519.514 377.861, 523.598 377.931, 533.597 378.001, 543.597 378.029, 547.565 378.259, 557.563 378.489, 567.560 378.575, 571.291 378.967, 581.284 379.359, 591.276 379.491, 594.651 380.050, 604.635 380.608, 614.620 380.771, 617.525 381.501, 627.498 382.231, 637.472 382.401, 639.800 383.310, 649.759 384.220, 659.718 384.370, 661.369 385.468, 671.309 386.565, 681.248 386.663, 682.133 387.959, 692.049 389.261, 702.003 390.769, 711.889 392.144, 720.899 393.883, 730.747 395.295, 738.748 397.282, 748.548 398.689, 755.491 400.949, 765.232 402.306, 771.079 404.869, 780.745 406.122, 785.471 409.024, 795.040 410.115, 798.635 413.401, 808.080 414.261, 810.552 417.984, 819.833 418.537, 821.211 422.767, 830.273 422.923, 830.606 427.396, 838.742 431.935, 845.630 436.520, 851.289 441.134, 855.737 445.757, 859.006 450.374, 861.126 454.969, 862.132 459.527, 862.060 464.036, 860.952 468.484, 858.850 472.859, 855.794 477.151, 851.827 481.353, 846.996 " fill="none" stroke="rgb(0, 0, 0)" stroke-linecap="butt" stroke-linejoin="round" stroke-opacity="1.0" stroke-width="3.0" />
            <path d=" M 481.353, 846.996 487.368, 839.007 489.100, 836.708 " fill="none" stroke="rgb(0, 0, 0)" stroke-linecap="butt" stroke-linejoin="round" stroke-opacity="1.0" stroke-width="3.0" />
            <path d=" M 539.494, 548.584 529.500, 548.937 528.069, 548.987 525.238, 544.373 523.675, 541.826 " fill="none" stroke="rgb(0, 0, 0)" stroke-linecap="butt" stroke-linejoin="round" stroke-opacity="1.0" stroke-width="3.0" />
            <path d=" M 540.918, 498.035 540.793, 508.034 540.668, 518.033 540.602, 523.367 540.227, 533.360 540.073, 537.473 539.552, 547.459 539.494, 548.584 534.421, 539.966 531.001, 534.158 530.742, 533.718 530.483, 533.277 530.223, 532.836 529.965, 532.394 529.666, 531.756 529.389, 530.902 529.139, 529.850 529.000, 529.052 528.924, 528.618 528.748, 527.231 528.613, 525.714 528.523, 524.098 528.510, 523.610 528.478, 522.412 528.480, 520.690 528.529, 518.965 528.617, 517.396 528.624, 517.270 528.763, 515.639 528.943, 514.103 529.102, 513.073 " fill="none" stroke="rgb(0, 0, 0)" stroke-linecap="butt" stroke-linejoin="round" stroke-opacity="1.0" stroke-width="3.0" />
            <path d=" M 532.808, 497.623 540.918, 498.035 533.855, 505.115 531.903, 507.072 531.761, 507.213 531.482, 507.493 531.203, 507.773 530.923, 508.054 530.644, 508.335 530.314, 508.785 529.994, 509.461 529.859, 509.858 " fill="none" stroke="rgb(0, 0, 0)" stroke-linecap="butt" stroke-linejoin="round" stroke-opacity="1.0" stroke-width="3.0" />
            <path d=" M 530.905, 523.653 530.779, 523.618 530.660, 523.448 530.552, 523.151 530.460, 522.738 530.389, 522.230 530.342, 521.648 530.320, 521.017 530.326, 520.366 530.357, 519.723 530.414, 519.116 530.493, 518.571 530.591, 518.114 530.704, 517.763 530.827, 517.534 530.954, 517.436 " fill="none" stroke="rgb(0, 0, 0)" stroke-linecap="butt" stroke-linejoin="round" stroke-opacity="1.0" stroke-width="3.0" />
            <path d=" M 530.954, 517.436 531.079, 517.476 531.198, 517.649 531.306, 517.948 531.397, 518.360 531.468, 518.867 531.515, 519.447 531.536, 520.075 531.531, 520.724 531.500, 521.364 531.443, 521.970 531.365, 522.513 531.267, 522.971 531.154, 523.323 531.032, 523.554 530.905, 523.653 " fill="none" stroke="rgb(0, 0, 0)" stroke-linecap="butt" stroke-linejoin="round" stroke-opacity="1.0" stroke-width="3.0" />
            <path d=" M 363.101, 426.062 362.801, 430.467 362.264, 440.452 361.727, 450.438 361.603, 452.744 361.235, 461.989 360.838, 471.981 360.709, 475.227 360.450, 485.223 360.191, 495.220 360.124, 497.825 360.003, 507.824 359.882, 517.823 359.850, 520.448 359.867, 530.448 359.884, 540.448 359.888, 543.006 359.936, 546.069 " fill="none" stroke="rgb(0, 0, 0)" stroke-linecap="butt" stroke-linejoin="round" stroke-opacity="1.0" stroke-width="3.0" />
            <path d=" M 535.641, 744.361 537.291, 735.510 539.001, 725.657 539.342, 723.688 540.936, 713.815 541.286, 711.647 542.768, 701.758 543.121, 699.405 544.497, 689.500 544.848, 686.977 546.122, 677.058 546.466, 674.377 547.642, 664.447 547.977, 661.621 549.057, 651.680 549.379, 648.723 550.367, 638.772 550.673, 635.695 551.572, 625.735 551.859, 622.551 552.670, 612.584 552.937, 609.304 553.662, 599.330 553.907, 595.966 554.548, 585.986 554.768, 582.548 555.326, 572.564 555.522, 569.064 555.998, 559.075 556.168, 555.523 556.563, 545.531 556.705, 541.938 557.020, 531.943 557.134, 528.320 557.230, 524.255 " fill="none" stroke="rgb(0, 0, 0)" stroke-linecap="butt" stroke-linejoin="round" stroke-opacity="1.0" stroke-width="3.0" />
            <path d=" M 460.285, 897.910 462.694, 898.071 466.805, 897.546 470.871, 896.223 474.885, 894.132 478.839, 891.304 482.729, 887.768 486.547, 883.556 490.288, 878.697 493.949, 873.221 497.526, 867.159 501.013, 860.538 504.409, 853.388 507.711, 845.736 510.915, 837.608 514.021, 829.032 517.026, 820.031 518.576, 815.010 " fill="none" stroke="rgb(0, 0, 0)" stroke-linecap="butt" stroke-linejoin="round" stroke-opacity="1.0" stroke-width="3.0" />
            <path d=" M 519.057, 170.457 517.722, 166.778 514.610, 158.999 511.385, 151.732 508.050, 145.007 504.607, 138.852 501.060, 133.299 497.411, 128.378 493.665, 124.121 489.826, 120.559 485.899, 117.724 481.890, 115.648 477.806, 114.362 473.652, 113.897 471.892, 114.058 469.438, 114.282 465.172, 115.547 460.862, 117.719 456.519, 120.824 452.154, 124.885 447.779, 129.924 443.405, 135.959 439.046, 143.004 434.717, 151.071 431.757, 157.352 430.430, 160.168 426.577, 169.396 426.202, 170.296 423.959, 176.318 422.048, 181.453 418.882, 190.939 417.984, 193.632 415.109, 203.210 414.026, 206.819 411.415, 216.473 410.192, 220.996 407.822, 230.711 406.498, 236.138 404.348, 245.904 402.960, 252.212 401.015, 262.021 399.596, 269.182 397.841, 279.027 396.421, 287.002 394.845, 296.877 393.451, 305.623 392.045, 315.523 390.701, 324.987 389.455, 334.909 388.210, 344.831 388.185, 345.032 387.094, 354.972 386.002, 364.912 385.917, 365.689 384.973, 375.644 384.030, 385.600 383.908, 386.886 383.108, 396.854 382.307, 406.821 382.169, 408.543 381.508, 418.521 380.848, 428.499 380.710, 430.580 380.186, 440.566 379.661, 450.552 379.538, 452.910 379.148, 462.902 378.758, 472.895 378.658, 475.445 378.402, 485.442 378.145, 495.439 378.077, 498.097 377.953, 508.096 377.828, 518.095 377.795, 520.773 377.804, 530.773 377.812, 540.773 377.815, 543.384 377.957, 553.383 378.099, 563.382 378.134, 565.839 378.411, 575.835 378.688, 585.831 378.750, 588.049 379.165, 598.041 379.580, 608.032 379.659, 609.929 380.215, 619.913 380.770, 629.898 380.854, 631.394 381.555, 641.369 382.255, 651.345 382.327, 652.366 383.178, 662.330 384.029, 672.294 384.070, 672.770 385.077, 682.719 386.071, 692.536 387.243, 702.467 388.320, 711.599 389.664, 721.508 390.802, 729.900 392.329, 739.783 393.505, 747.388 395.228, 757.238 396.414, 764.014 398.347, 773.825 399.513, 779.740 401.675, 789.503 402.788, 794.531 405.199, 804.236 406.223, 808.359 408.907, 817.992 409.802, 821.204 412.789, 830.747 413.509, 833.048 416.834, 842.480 417.329, 843.883 421.033, 853.172 421.245, 853.704 425.244, 862.510 429.310, 870.305 433.429, 877.100 437.588, 882.907 441.773, 887.741 445.973, 891.621 450.175, 894.570 454.370, 896.610 458.546, 897.768 460.359, 897.900 462.694, 898.071 " fill="none" stroke="rgb(0, 0, 0)" stroke-linecap="butt" stroke-linejoin="round" stroke-opacity="1.0" stroke-width="3.0" />
            <path d=" M 471.207, 113.982 466.966, 114.368 462.672, 115.634 458.335, 117.806 453.965, 120.911 449.573, 124.972 445.171, 130.010 440.770, 136.043 436.385, 143.087 432.028, 151.152 428.918, 157.711 427.716, 160.246 423.842, 169.466 423.462, 170.371 419.954, 179.736 419.283, 181.525 417.495, 186.850 415.195, 193.700 412.305, 203.273 411.214, 206.884 408.589, 216.533 407.358, 221.056 404.974, 230.768 403.642, 236.192 401.481, 245.956 400.085, 252.261 398.129, 262.068 396.701, 269.225 394.937, 279.068 393.509, 287.038 391.925, 296.912 390.523, 305.652 389.109, 315.552 387.758, 325.009 386.506, 334.930 385.230, 345.046 384.132, 354.986 383.035, 364.925 382.950, 365.696 382.002, 375.651 381.053, 385.605 380.931, 386.884 380.127, 396.851 379.323, 406.819 379.185, 408.533 378.521, 418.511 377.857, 428.489 377.719, 430.561 377.193, 440.547 376.666, 450.533 376.543, 452.882 376.152, 462.874 375.760, 472.867 375.661, 475.409 375.404, 485.406 375.147, 495.402 375.079, 498.051 374.955, 508.051 374.831, 518.050 374.798, 520.719 374.808, 530.719 374.818, 540.719 374.821, 543.321 374.965, 553.320 375.110, 563.319 375.145, 565.767 375.426, 575.763 375.706, 585.759 375.768, 587.969 376.187, 597.960 376.606, 607.951 376.686, 609.840 377.246, 619.824 377.807, 629.809 377.891, 631.297 378.598, 641.272 379.304, 651.247 379.376, 652.262 380.234, 662.225 381.092, 672.188 381.133, 672.658 382.148, 682.607 383.149, 692.417 384.330, 702.347 385.414, 711.474 386.768, 721.382 387.915, 729.769 389.453, 739.650 390.637, 747.251 392.372, 757.099 393.566, 763.872 395.514, 773.681 396.687, 779.593 398.864, 789.353 399.985, 794.380 402.412, 804.081 403.444, 808.205 406.145, 817.833 407.047, 821.046 410.053, 830.584 410.779, 832.888 414.124, 842.312 414.228, 842.604 414.448, 843.224 414.624, 843.721 418.350, 853.001 418.567, 853.539 422.592, 862.344 426.685, 870.139 430.831, 876.933 435.017, 882.739 439.229, 887.574 443.456, 891.455 447.686, 894.404 451.908, 896.446 456.110, 897.605 460.285, 897.910 " fill="none" stroke="rgb(0, 0, 0)" stroke-linecap="butt" stroke-linejoin="round" stroke-opacity="1.0" stroke-width="3.0" />
            <path d=" M 473.652, 113.897 471.207, 113.982 " fill="none" stroke="rgb(0, 0, 0)" stroke-linecap="butt" stroke-linejoin="round" stroke-opacity="1.0" stroke-width="3.0" />
            <path d=" M 541.757, 761.885 543.538, 752.045 543.678, 751.271 545.342, 741.410 545.814, 738.608 547.366, 728.729 547.837, 725.729 549.281, 715.834 549.746, 712.651 551.088, 702.742 551.542, 699.390 552.785, 689.467 553.224, 685.961 554.372, 676.027 554.794, 672.378 555.849, 662.434 556.251, 658.655 557.217, 648.702 557.595, 644.807 558.474, 634.845 558.828, 630.845 559.622, 620.876 559.948, 616.782 560.659, 606.808 560.956, 602.631 561.585, 592.651 561.853, 588.403 562.402, 578.418 562.638, 574.109 563.107, 564.120 563.312, 559.761 563.702, 549.768 563.874, 545.370 564.186, 535.374 564.324, 530.946 564.479, 524.317 " fill="none" stroke="rgb(0, 0, 0)" stroke-linecap="butt" stroke-linejoin="round" stroke-opacity="1.0" stroke-width="3.0" />
            <path d=" M 458.013, 930.876 460.415, 931.047 464.869, 930.962 469.276, 929.991 473.627, 928.167 477.914, 925.527 482.131, 922.105 486.271, 917.936 490.329, 913.056 494.299, 907.498 498.178, 901.297 501.962, 894.486 505.646, 887.096 509.229, 879.159 512.707, 870.706 516.079, 861.766 519.342, 852.367 522.397, 842.845 522.496, 842.536 525.346, 832.951 525.539, 832.300 525.940, 830.847 " fill="none" stroke="rgb(0, 0, 0)" stroke-linecap="butt" stroke-linejoin="round" stroke-opacity="1.0" stroke-width="3.0" />
            <path d=" M 541.375, 209.920 540.456, 205.501 538.254, 195.746 537.943, 194.369 535.563, 184.656 535.304, 183.597 532.730, 173.934 532.538, 173.210 529.753, 163.605 529.645, 163.234 526.626, 153.696 523.481, 144.627 520.212, 136.055 516.820, 128.011 513.306, 120.528 509.673, 113.638 505.923, 107.376 502.060, 101.776 498.087, 96.873 494.007, 92.704 489.827, 89.305 485.552, 86.712 481.188, 84.962 476.743, 84.091 472.224, 84.135 471.885, 84.208 467.639, 85.128 463.000, 87.103 458.316, 90.093 453.599, 94.127 448.861, 99.232 444.117, 105.431 439.379, 112.745 434.664, 121.191 430.281, 130.179 429.988, 130.781 427.383, 136.834 425.367, 141.520 422.152, 149.925 420.819, 153.410 417.584, 162.873 416.968, 164.673 416.362, 166.447 413.429, 176.008 412.014, 180.619 409.354, 190.259 407.795, 195.908 405.383, 205.613 403.724, 212.288 401.540, 222.047 400.463, 226.855 399.821, 229.727 397.846, 239.530 396.103, 248.183 394.324, 258.024 392.590, 267.610 390.994, 277.482 389.397, 287.354 389.301, 287.951 387.877, 297.849 386.453, 307.747 386.252, 309.142 384.992, 319.062 383.732, 328.983 383.461, 331.114 382.357, 341.053 381.253, 350.992 380.942, 353.788 379.989, 363.743 379.035, 373.697 378.711, 377.082 377.903, 387.049 377.095, 397.017 376.779, 400.906 376.112, 410.883 375.446, 420.861 375.158, 425.164 374.630, 435.150 374.101, 445.136 373.857, 449.760 373.464, 459.752 373.072, 469.745 372.882, 474.591 372.624, 484.588 372.367, 494.584 372.239, 499.553 372.116, 509.552 371.993, 519.551 371.931, 524.541 371.943, 534.541 371.954, 544.541 371.960, 549.451 372.106, 559.450 372.253, 569.449 372.322, 574.177 372.606, 584.173 372.890, 594.169 373.016, 598.618 373.440, 608.609 373.863, 618.600 374.036, 622.673 374.602, 632.657 375.169, 642.641 375.373, 646.248 376.087, 656.223 376.801, 666.197 377.020, 669.252 377.887, 679.214 378.754, 689.177 378.965, 691.599 379.991, 701.546 381.018, 711.493 381.195, 713.210 382.389, 723.139 383.583, 733.067 383.697, 734.013 385.068, 743.919 386.455, 753.942 388.014, 763.820 389.453, 772.939 391.214, 782.783 392.675, 790.953 394.653, 800.755 394.951, 802.233 396.103, 807.941 398.317, 817.693 398.936, 820.423 399.719, 823.869 402.191, 833.559 403.505, 838.707 406.262, 848.320 406.885, 850.493 407.442, 852.436 410.516, 861.951 411.513, 865.040 412.015, 866.413 415.443, 875.807 415.701, 876.512 419.530, 885.750 419.986, 886.851 424.271, 895.887 424.353, 896.061 428.786, 904.152 433.267, 911.136 437.784, 917.032 442.320, 921.861 446.864, 925.649 451.402, 928.423 455.922, 930.211 459.362, 930.851 460.415, 931.047 " fill="none" stroke="rgb(0, 0, 0)" stroke-linecap="butt" stroke-linejoin="round" stroke-opacity="1.0" stroke-width="3.0" />
            <path d=" M 364.957, 398.993 364.801, 400.876 364.122, 410.853 363.443, 420.830 363.153, 425.097 363.101, 426.062 362.564, 436.048 362.027, 446.033 361.832, 449.654 361.435, 459.646 361.351, 461.756 360.954, 471.748 360.846, 474.445 360.845, 474.498 360.586, 484.494 360.327, 494.491 360.201, 499.368 360.080, 509.367 359.959, 519.367 359.933, 521.537 359.899, 524.317 359.916, 534.317 359.933, 544.317 359.936, 546.069 359.941, 549.188 360.097, 559.186 360.253, 569.185 360.326, 573.875 360.406, 576.579 " fill="none" stroke="rgb(0, 0, 0)" stroke-linecap="butt" stroke-linejoin="round" stroke-opacity="1.0" stroke-width="3.0" />
            <path d=" M 469.782, 84.229 465.169, 85.223 460.500, 87.199 455.787, 90.189 451.041, 94.223 446.274, 99.327 441.500, 105.525 436.734, 112.838 431.991, 121.282 427.585, 130.259 427.286, 130.869 423.313, 140.046 422.637, 141.606 419.239, 150.434 418.062, 153.493 414.809, 162.949 413.579, 166.526 412.638, 169.574 411.380, 173.650 409.206, 180.693 406.531, 190.329 404.963, 195.977 402.537, 205.678 400.869, 212.351 398.672, 222.107 396.943, 229.784 394.957, 239.585 393.205, 248.234 391.630, 256.891 389.841, 266.729 389.673, 267.654 388.067, 277.524 386.462, 287.394 386.365, 287.987 384.934, 297.884 383.502, 307.781 383.301, 309.170 382.033, 319.090 380.766, 329.009 380.495, 331.134 379.385, 341.072 378.275, 351.010 377.964, 353.800 377.005, 363.753 376.047, 373.707 375.722, 377.084 374.910, 387.051 374.097, 397.018 373.781, 400.898 373.111, 410.876 372.441, 420.853 372.153, 425.147 371.623, 435.133 371.092, 445.119 370.847, 449.733 370.453, 459.726 370.060, 469.718 369.869, 474.554 369.612, 484.551 369.354, 494.548 369.226, 499.507 369.103, 509.506 368.981, 519.505 368.920, 524.485 368.932, 534.485 368.945, 544.485 368.951, 549.385 369.100, 559.384 369.249, 569.383 369.320, 574.102 369.607, 584.097 369.894, 594.093 370.021, 598.533 370.449, 608.524 370.876, 618.514 371.050, 622.579 371.622, 632.563 372.193, 642.547 372.399, 646.146 373.119, 656.120 373.839, 666.094 374.059, 669.141 374.933, 679.103 375.807, 689.064 376.019, 691.480 377.054, 701.426 378.088, 711.372 378.266, 713.083 379.469, 723.011 380.672, 732.938 380.786, 733.879 382.167, 743.783 383.564, 753.801 385.134, 763.677 386.584, 772.792 387.685, 778.906 389.458, 788.747 389.828, 790.801 391.819, 800.601 393.279, 807.785 393.755, 809.865 395.984, 819.614 396.461, 821.701 396.920, 823.708 399.408, 833.393 400.731, 838.542 403.506, 848.149 403.968, 849.748 404.695, 852.267 407.788, 861.777 408.794, 864.868 412.243, 874.255 413.009, 876.339 416.860, 885.567 417.323, 886.676 421.631, 895.701 421.719, 895.885 426.180, 903.975 430.691, 910.958 435.236, 916.855 439.802, 921.685 444.375, 925.474 448.942, 928.248 453.492, 930.039 458.013, 930.876 " fill="none" stroke="rgb(0, 0, 0)" stroke-linecap="butt" stroke-linejoin="round" stroke-opacity="1.0" stroke-width="3.0" />
            <path d=" M 472.224, 84.135 469.782, 84.229 " fill="none" stroke="rgb(0, 0, 0)" stroke-linecap="butt" stroke-linejoin="round" stroke-opacity="1.0" stroke-width="3.0" />
            <path d=" M 547.138, 219.388 545.280, 209.562 544.929, 207.705 542.921, 197.909 542.481, 195.761 540.311, 185.999 539.901, 184.152 537.557, 174.431 537.189, 172.903 534.656, 163.229 534.345, 162.041 531.605, 152.423 531.368, 151.592 528.401, 142.042 528.259, 141.585 525.019, 132.051 521.647, 123.021 518.146, 114.526 514.515, 106.601 510.759, 99.281 506.878, 92.600 502.875, 86.597 498.755, 81.309 494.521, 76.775 490.178, 73.033 485.732, 70.122 481.189, 68.084 476.556, 66.956 471.841, 66.778 466.985, 66.976 462.137, 67.788 457.226, 69.624 452.263, 72.520 447.260, 76.508 442.230, 81.619 437.188, 87.881 432.148, 95.317 427.128, 103.947 422.609, 112.868 422.144, 113.786 418.072, 122.919 417.214, 124.843 413.536, 134.142 412.358, 137.122 409.030, 146.552 407.595, 150.620 404.580, 160.155 402.945, 165.327 400.212, 174.946 398.429, 181.225 395.953, 190.914 394.069, 198.290 391.828, 208.035 389.884, 216.487 388.498, 223.193 386.474, 232.986 385.897, 235.775 384.074, 245.607 382.251, 255.440 382.128, 256.104 380.494, 265.969 378.859, 275.835 378.598, 277.415 377.141, 287.308 375.684, 297.201 375.324, 299.641 374.036, 309.557 372.747, 319.474 372.327, 322.706 371.199, 332.643 370.071, 342.579 369.623, 346.529 368.649, 356.482 367.676, 366.434 367.227, 371.020 366.409, 380.915 365.585, 390.881 365.155, 396.081 364.957, 398.993 364.375, 407.536 363.696, 417.513 363.417, 421.612 362.880, 431.598 362.343, 441.583 362.025, 447.506 361.628, 457.498 361.468, 461.520 361.071, 471.512 360.986, 473.654 360.983, 473.759 360.724, 483.756 360.465, 493.752 360.305, 499.942 360.184, 509.941 360.063, 519.941 359.986, 526.258 359.999, 533.480 360.015, 543.480 360.030, 552.112 360.031, 552.486 360.186, 562.485 360.342, 572.484 360.406, 576.579 360.436, 578.516 360.553, 582.466 360.850, 592.462 361.147, 602.457 361.199, 604.235 361.639, 614.225 362.079, 624.215 362.314, 629.536 362.901, 639.519 363.488, 649.502 363.771, 654.318 364.510, 664.290 365.248, 674.263 365.561, 678.481 366.457, 688.441 367.353, 698.400 367.671, 701.935 368.731, 711.878 369.791, 721.822 370.087, 724.594 370.959, 731.614 372.191, 741.537 372.793, 746.383 374.208, 756.282 375.624, 766.181 375.774, 767.230 377.383, 777.100 379.010, 787.076 380.827, 796.909 382.483, 805.867 384.525, 815.656 386.174, 823.559 388.461, 833.294 390.063, 840.115 392.617, 849.784 394.130, 855.509 396.980, 865.094 398.355, 869.718 401.535, 879.200 402.719, 882.732 406.268, 892.081 407.202, 894.543 411.167, 903.723 411.785, 905.153 416.224, 914.114 416.449, 914.568 421.178, 922.801 425.954, 929.868 430.761, 935.790 435.584, 940.594 440.409, 944.306 445.222, 946.958 450.012, 948.584 454.766, 949.217 459.542, 949.568 464.192, 949.241 468.788, 947.995 473.321, 945.868 477.784, 942.898 482.168, 939.122 486.469, 934.580 490.681, 929.307 494.798, 923.342 498.817, 916.719 502.733, 909.474 506.544, 901.641 510.246, 893.253 513.838, 884.342 517.318, 874.939 520.546, 865.475 520.683, 865.073 523.692, 855.537 523.933, 854.773 526.742, 845.175 527.067, 844.064 529.043, 836.800 " fill="none" stroke="rgb(0, 0, 0)" stroke-linecap="butt" stroke-linejoin="round" stroke-opacity="1.0" stroke-width="3.0" />
            <path d=" M 544.241, 767.918 545.707, 759.730 547.353, 749.867 547.898, 746.601 549.433, 736.719 549.971, 733.258 551.402, 723.360 551.928, 719.717 553.257, 709.806 553.768, 705.996 555.000, 696.072 555.492, 692.109 556.629, 682.174 557.099, 678.070 558.146, 668.125 558.591, 663.895 559.550, 653.941 559.968, 649.595 560.840, 639.633 561.230, 635.183 562.018, 625.215 562.377, 620.673 563.083, 610.698 563.410, 606.076 564.035, 596.095 564.328, 591.403 564.873, 581.418 565.133, 576.666 565.599, 566.677 565.823, 561.875 566.211, 551.883 566.399, 547.042 566.710, 537.047 566.862, 532.177 567.045, 524.339 " fill="none" stroke="rgb(0, 0, 0)" stroke-linecap="butt" stroke-linejoin="round" stroke-opacity="1.0" stroke-width="3.0" />
            <path d=" M 471.841, 66.778 467.054, 67.588 462.203, 69.423 457.301, 72.318 452.359, 76.306 447.390, 81.418 442.409, 87.681 437.430, 95.120 432.469, 103.754 427.994, 112.697 427.544, 113.597 424.238, 121.104 422.672, 124.660 419.033, 133.975 417.872, 136.946 414.580, 146.389 413.163, 150.452 410.182, 159.997 408.741, 164.611 408.567, 165.168 405.865, 174.796 404.102, 181.076 403.113, 184.993 400.665, 194.689 399.791, 198.152 399.212, 200.698 396.996, 210.450 395.653, 216.362 393.651, 226.159 391.709, 235.663 389.907, 245.500 388.742, 251.855 387.981, 256.007 386.364, 265.876 384.748, 275.744 384.488, 277.334 383.046, 287.229 381.605, 297.125 381.248, 299.576 379.974, 309.495 379.102, 316.276 378.281, 322.660 377.165, 332.597 376.049, 342.535 375.604, 346.501 374.640, 356.455 373.677, 366.408 373.231, 371.011 372.415, 380.977 371.599, 390.944 371.177, 396.092 370.504, 406.069 369.832, 416.047 369.454, 421.643 368.922, 431.629 368.389, 441.615 368.072, 447.558 367.677, 457.550 367.283, 467.542 367.038, 473.726 366.780, 483.723 366.522, 493.720 366.359, 500.036 366.237, 510.035 366.115, 520.034 366.037, 526.372 366.051, 536.372 366.066, 546.372 366.074, 552.621 366.226, 562.620 366.377, 572.619 366.468, 578.671 366.758, 588.667 367.049, 598.663 367.215, 604.410 367.647, 614.401 368.079, 624.391 368.310, 629.731 368.887, 639.714 369.464, 649.698 369.743, 654.531 370.469, 664.504 371.196, 674.478 371.505, 678.712 372.387, 688.673 373.268, 698.634 373.583, 702.182 374.627, 712.128 375.671, 722.073 375.963, 724.858 376.567, 729.790 376.863, 732.211 378.078, 742.137 378.631, 746.661 380.026, 756.563 381.421, 766.466 381.570, 767.522 383.157, 777.396 384.334, 784.720 384.761, 787.381 385.524, 791.568 387.317, 801.406 388.187, 806.183 390.202, 815.978 391.828, 823.885 394.085, 833.627 394.796, 836.694 395.666, 840.451 398.187, 850.128 399.679, 855.852 402.493, 865.448 403.849, 870.068 406.990, 879.562 408.156, 883.087 409.009, 885.366 412.516, 894.731 412.580, 894.903 416.501, 904.102 417.104, 905.516 421.496, 914.499 421.708, 914.933 426.377, 923.167 431.092, 930.234 435.838, 936.156 440.600, 940.957 445.364, 944.668 450.117, 947.317 454.846, 948.939 459.542, 949.568 " fill="none" stroke="rgb(0, 0, 0)" stroke-linecap="butt" stroke-linejoin="round" stroke-opacity="1.0" stroke-width="3.0" />
            <path d=" M 565.316, 520.475 565.379, 518.852 565.429, 518.032 565.476, 517.268 565.608, 515.753 565.655, 515.344 565.771, 514.331 565.962, 513.027 566.178, 511.863 566.415, 510.858 566.670, 510.030 566.937, 509.392 567.213, 508.954 567.342, 508.847 567.492, 508.723 567.770, 508.702 " fill="none" stroke="rgb(0, 0, 0)" stroke-linecap="butt" stroke-linejoin="round" stroke-opacity="1.0" stroke-width="3.0" />
            <path d=" M 554.850, 520.290 555.475, 520.301 557.322, 520.334 557.626, 520.339 562.782, 520.430 564.569, 520.462 565.049, 520.470 565.316, 520.475 566.926, 521.015 " fill="none" stroke="rgb(0, 0, 0)" stroke-linecap="butt" stroke-linejoin="round" stroke-opacity="1.0" stroke-width="3.0" />
            <path d=" M 557.625, 521.187 562.763, 521.279 564.549, 521.310 565.029, 521.319 567.115, 521.356 567.988, 521.371 567.995, 520.856 567.987, 520.350 567.965, 519.867 567.929, 519.420 567.880, 519.021 567.820, 518.681 567.749, 518.409 567.671, 518.213 567.587, 518.098 567.499, 518.068 " fill="none" stroke="rgb(0, 0, 0)" stroke-linecap="butt" stroke-linejoin="round" stroke-opacity="1.0" stroke-width="3.0" />
            <path d=" M 535.109, 489.245 537.936, 489.244 537.951, 483.551 537.890, 483.525 536.711, 483.510 " fill="none" stroke="rgb(0, 0, 0)" stroke-linecap="butt" stroke-linejoin="round" stroke-opacity="1.0" stroke-width="3.0" />
            <path d=" M 537.732, 489.161 537.890, 483.525 " fill="none" stroke="rgb(0, 0, 0)" stroke-linecap="butt" stroke-linejoin="round" stroke-opacity="1.0" stroke-width="3.0" />
            <path d=" M 535.676, 487.214 535.741, 487.167 535.856, 487.055 535.955, 486.927 536.035, 486.787 536.094, 486.637 536.132, 486.481 536.148, 486.320 536.141, 486.160 536.112, 486.002 536.061, 485.851 536.059, 485.846 " fill="none" stroke="rgb(0, 0, 0)" stroke-linecap="butt" stroke-linejoin="round" stroke-opacity="1.0" stroke-width="3.0" />
            <path d=" M 535.143, 489.125 537.732, 489.161 537.936, 489.244 " fill="none" stroke="rgb(0, 0, 0)" stroke-linecap="butt" stroke-linejoin="round" stroke-opacity="1.0" stroke-width="3.0" />
            <path d=" M 625.214, 909.499 627.384, 910.015 635.272, 911.338 643.158, 911.920 651.025, 911.779 658.857, 910.933 666.636, 909.402 674.350, 907.205 681.984, 904.365 689.526, 900.902 696.962, 896.838 704.282, 892.195 711.475, 886.996 718.532, 881.263 725.443, 875.017 732.200, 868.282 738.796, 861.078 745.223, 853.427 751.345, 845.519 751.475, 845.351 757.296, 837.219 757.546, 836.870 763.077, 828.539 763.431, 828.006 768.681, 819.495 769.124, 818.777 774.104, 810.106 774.621, 809.205 779.339, 800.389 779.917, 799.308 784.384, 790.361 785.010, 789.106 789.233, 780.041 789.896, 778.616 793.882, 769.444 794.571, 767.857 798.327, 758.589 799.033, 756.846 802.566, 747.491 803.279, 745.601 806.595, 736.166 807.307, 734.138 810.410, 724.632 811.115, 722.474 814.011, 712.902 814.700, 710.625 817.393, 700.994 818.061, 698.606 820.555, 688.922 821.196, 686.433 823.494, 676.700 824.103, 674.121 826.209, 664.345 826.782, 661.685 828.697, 651.870 829.230, 649.139 830.957, 639.289 831.447, 636.498 832.987, 626.617 833.431, 623.775 834.786, 613.868 835.180, 610.986 836.352, 601.055 836.695, 598.144 837.683, 588.193 837.974, 585.262 838.778, 575.294 839.015, 572.354 839.635, 562.374 839.817, 559.435 840.253, 549.445 840.381, 546.518 840.631, 536.521 840.704, 533.616 840.768, 523.616 840.786, 520.744 840.662, 510.744 840.626, 507.915 840.311, 497.920 840.223, 495.144 839.714, 485.156 839.576, 482.444 838.871, 472.469 838.684, 469.831 837.779, 459.872 837.547, 457.318 836.438, 447.380 836.163, 444.922 834.846, 435.009 834.533, 432.656 833.002, 422.774 832.655, 420.537 830.905, 410.692 830.529, 408.581 828.553, 398.778 828.155, 396.803 825.947, 387.050 825.533, 385.221 823.085, 375.525 822.662, 373.851 819.965, 364.221 819.542, 362.711 816.588, 353.157 816.174, 351.818 812.953, 342.351 812.559, 341.192 809.060, 331.824 808.696, 330.851 804.908, 321.596 804.588, 320.814 800.498, 311.689 800.235, 311.101 795.831, 302.123 795.639, 301.732 790.906, 292.923 790.802, 292.729 785.727, 284.111 780.416, 275.901 774.873, 268.121 769.103, 260.793 763.109, 253.939 756.896, 247.583 750.471, 241.748 743.841, 236.456 737.012, 231.731 729.993, 227.596 722.792, 224.074 715.421, 221.188 707.889, 218.959 700.208, 217.411 692.393, 216.563 684.455, 216.436 682.243, 216.597 " fill="none" stroke="rgb(0, 0, 0)" stroke-linecap="butt" stroke-linejoin="round" stroke-opacity="1.0" stroke-width="3.0" />
            <path d=" M 627.384, 910.015 625.809, 909.599 619.513, 907.935 611.677, 905.083 603.898, 901.447 596.194, 897.015 588.588, 891.780 581.103, 885.734 573.760, 878.874 566.931, 871.569 566.584, 871.198 560.229, 863.477 559.598, 862.710 553.709, 854.628 552.825, 853.414 547.392, 845.019 546.291, 843.318 542.650, 837.002 540.018, 832.436 535.449, 823.540 534.032, 820.782 533.456, 819.522 533.082, 818.705 530.618, 813.321 529.342, 810.532 528.356, 808.376 524.587, 799.113 523.742, 797.035 523.012, 795.242 522.526, 793.892 519.134, 784.485 518.025, 781.406 516.299, 775.978 514.396, 769.991 513.414, 766.901 510.733, 757.267 509.202, 751.762 506.857, 742.041 505.407, 736.027 503.387, 726.233 502.047, 719.738 501.412, 716.067 499.706, 706.213 499.140, 702.943 497.740, 693.042 496.700, 685.690 495.597, 675.751 494.740, 668.033 493.926, 658.066 493.270, 650.026 492.741, 640.040 492.300, 631.727 492.050, 621.730 491.836, 613.196 491.861, 603.196 491.882, 594.495 492.179, 584.499 492.440, 575.686 493.006, 565.702 493.509, 556.834 494.343, 546.869 495.085, 538.002 496.187, 528.063 496.678, 523.638 497.164, 519.255 497.760, 514.948 497.883, 514.055 497.931, 513.708 499.302, 503.802 499.737, 500.655 501.377, 490.790 502.794, 482.265 504.706, 472.450 506.323, 464.147 508.509, 454.389 510.308, 446.360 512.772, 436.668 514.733, 428.960 517.481, 419.345 519.580, 412.002 522.617, 402.474 524.828, 395.537 525.776, 392.855 528.170, 386.084 530.456, 379.615 534.092, 370.299 534.892, 368.248 536.442, 364.278 538.193, 360.202 541.806, 351.792 542.760, 349.570 547.028, 340.526 549.232, 335.856 549.387, 335.527 550.840, 332.720 555.438, 323.839 556.007, 322.742 556.296, 322.183 557.598, 319.892 560.122, 315.447 563.462, 309.567 564.351, 308.142 564.896, 307.268 570.187, 298.782 570.858, 297.705 576.513, 289.458 578.458, 286.619 584.487, 278.641 586.236, 276.327 592.641, 268.664 594.165, 266.842 600.972, 259.516 602.219, 258.174 609.426, 251.242 610.373, 250.331 617.983, 243.844 618.602, 243.316 626.613, 237.330 626.883, 237.128 635.192, 231.766 643.506, 227.223 651.805, 223.491 660.069, 220.560 668.277, 218.417 676.411, 217.048 682.321, 216.598 684.455, 216.436 " fill="none" stroke="rgb(0, 0, 0)" stroke-linecap="butt" stroke-linejoin="round" stroke-opacity="1.0" stroke-width="3.0" />
            <path d=" M 682.243, 216.597 674.188, 217.210 666.042, 218.579 657.824, 220.721 649.550, 223.651 641.241, 227.380 632.916, 231.920 624.598, 237.278 616.581, 243.256 616.307, 243.460 608.691, 249.940 608.069, 250.469 600.855, 257.394 599.906, 258.305 593.092, 265.624 591.844, 266.964 591.281, 267.636 584.860, 275.303 583.907, 276.440 577.871, 284.413 576.122, 286.722 570.460, 294.965 568.515, 297.797 564.396, 304.390 563.839, 305.281 561.112, 309.646 559.792, 311.966 557.254, 316.426 555.672, 319.206 553.940, 322.249 550.472, 328.934 548.858, 332.046 547.025, 335.579 542.751, 344.619 540.393, 349.606 537.768, 355.707 534.070, 364.298 530.429, 373.612 528.081, 379.618 525.632, 386.534 523.981, 391.196 522.449, 395.522 519.408, 405.049 517.198, 411.968 514.517, 421.333 512.349, 428.907 509.880, 438.597 508.495, 444.037 507.922, 446.287 505.732, 456.044 503.935, 464.054 502.021, 473.869 500.406, 482.151 498.764, 492.016 497.349, 500.520 495.977, 510.425 495.619, 513.013 495.357, 514.907 494.776, 519.098 494.356, 522.889 493.253, 532.828 492.698, 537.824 491.864, 547.789 491.123, 556.634 490.557, 566.618 490.056, 575.465 489.761, 585.461 489.740, 586.177 489.501, 594.252 489.478, 604.252 489.458, 612.932 489.710, 622.929 489.925, 631.442 490.458, 641.428 490.899, 649.721 491.716, 659.688 492.373, 667.709 493.481, 677.647 494.338, 685.347 495.743, 695.248 496.784, 702.582 498.495, 712.434 499.697, 719.359 500.161, 721.606 502.187, 731.399 503.062, 735.631 505.413, 745.351 506.864, 751.351 509.551, 760.983 511.083, 766.476 513.371, 773.656 515.228, 779.481 515.701, 780.967 517.538, 786.050 520.697, 794.789 521.656, 797.142 522.902, 800.196 526.048, 807.912 528.589, 813.452 529.868, 816.242 530.688, 818.029 531.733, 820.307 532.777, 822.336 537.355, 831.227 537.728, 831.952 542.729, 840.611 544.009, 842.826 549.451, 851.216 550.553, 852.914 556.449, 860.991 557.335, 862.205 563.697, 869.919 564.331, 870.688 571.167, 877.986 571.517, 878.359 578.870, 885.216 586.365, 891.260 593.981, 896.495 601.695, 900.926 609.486, 904.563 617.332, 907.416 625.214, 909.499 " fill="none" stroke="rgb(0, 0, 0)" stroke-linecap="butt" stroke-linejoin="round" stroke-opacity="1.0" stroke-width="3.0" />
            <path d=" M 695.667, 309.298 687.422, 309.373 681.863, 309.959 679.067, 310.254 678.135, 310.440 670.625, 311.940 662.990, 314.186 662.119, 314.442 653.579, 317.790 645.032, 322.002 636.511, 327.086 628.333, 332.841 628.046, 333.042 620.287, 339.351 619.666, 339.857 612.327, 346.649 611.399, 347.507 604.475, 354.722 603.274, 355.974 596.769, 363.570 595.326, 365.255 589.244, 373.192 587.596, 375.342 581.930, 383.582 580.119, 386.216 575.167, 394.228 574.855, 394.732 572.931, 397.846 571.904, 399.691 567.041, 408.430 566.285, 409.789 566.061, 410.192 563.832, 414.635 562.969, 416.357 562.143, 418.003 559.534, 423.205 558.763, 424.910 557.086, 428.619 556.950, 428.919 555.217, 432.753 553.373, 436.831 549.612, 446.097 548.204, 449.567 547.609, 451.031 546.438, 454.270 543.435, 462.571 542.282, 465.761 539.237, 475.286 537.421, 480.970 536.711, 483.510 536.699, 483.553 536.059, 485.846 535.676, 487.214 535.143, 489.125 535.109, 489.245 533.055, 496.598 532.808, 497.623 532.266, 499.872 529.923, 509.593 529.859, 509.858 529.351, 511.966 529.203, 512.580 529.102, 513.073 528.220, 517.389 526.953, 523.582 525.877, 528.846 525.816, 529.202 524.144, 539.061 523.675, 541.826 523.081, 545.325 522.092, 552.609 520.824, 561.951 519.813, 571.900 519.126, 578.657 518.457, 588.634 518.005, 595.373 517.683, 605.367 517.468, 612.027 517.472, 613.412 517.500, 623.412 517.514, 628.549 517.807, 636.226 518.137, 644.870 518.870, 654.843 519.318, 660.927 520.406, 670.868 521.047, 676.723 521.267, 678.240 522.702, 688.137 523.278, 692.113 525.071, 701.951 525.998, 707.039 526.965, 711.406 527.220, 712.555 528.527, 718.452 529.189, 721.442 529.239, 721.633 529.669, 723.261 532.218, 732.931 532.834, 735.270 534.412, 740.381 535.641, 744.361 536.673, 747.703 536.911, 748.475 537.942, 751.355 540.469, 758.418 541.397, 761.013 541.618, 761.548 541.757, 761.885 544.241, 767.918 546.270, 772.844 550.537, 781.888 551.502, 783.934 556.249, 792.735 557.068, 794.253 562.316, 802.766 562.940, 803.777 568.710, 811.945 569.090, 812.484 575.398, 820.244 575.491, 820.358 582.113, 827.391 588.929, 833.572 595.910, 838.899 603.030, 843.374 609.656, 846.698 610.259, 847.001 617.574, 849.786 624.948, 851.740 632.357, 852.878 639.776, 853.214 647.184, 852.766 654.559, 851.553 661.880, 849.598 669.128, 846.922 676.286, 843.549 683.335, 839.505 690.261, 834.815 697.047, 829.505 703.681, 823.600 710.150, 817.130 716.441, 810.120 722.543, 802.597 728.446, 794.587 734.027, 786.290 734.142, 786.120 739.384, 777.604 739.621, 777.220 744.537, 768.512 744.875, 767.914 749.478, 759.036 749.898, 758.227 754.199, 749.200 754.682, 748.187 758.693, 739.027 759.222, 737.818 762.951, 728.539 763.512, 727.144 766.969, 717.761 767.548, 716.191 770.741, 706.715 771.324, 704.983 774.259, 695.424 774.837, 693.544 777.521, 683.911 778.082, 681.896 780.520, 672.198 781.057, 670.064 783.254, 660.309 783.758, 658.070 785.718, 648.264 786.183, 645.937 787.908, 636.087 788.328, 633.687 789.821, 623.799 790.192, 621.342 791.455, 611.422 791.773, 608.925 792.806, 598.978 793.068, 596.456 793.872, 586.488 794.076, 583.958 794.651, 573.975 794.796, 571.454 795.139, 561.459 795.225, 558.963 795.337, 548.964 795.364, 546.509 795.278, 539.554 " fill="none" stroke="rgb(0, 0, 0)" stroke-linecap="butt" stroke-linejoin="round" stroke-opacity="1.0" stroke-width="3.0" />
            <path d=" M 790.646, 549.089 790.461, 549.079 780.795, 548.553 775.324, 548.256 766.844, 547.795 766.135, 547.757 765.425, 547.718 764.713, 547.680 764.002, 547.642 754.027, 546.945 752.501, 546.838 751.657, 546.664 750.842, 546.234 750.074, 545.556 749.369, 544.644 748.740, 543.514 748.200, 542.187 747.758, 540.688 747.424, 539.046 747.203, 537.292 747.101, 535.460 747.120, 533.586 747.259, 531.705 747.515, 529.855 747.884, 528.070 748.358, 526.386 748.928, 524.835 749.583, 523.447 750.310, 522.248 751.094, 521.261 751.660, 520.647 751.772, 520.526 752.450, 519.792 753.127, 519.060 753.803, 518.328 754.143, 517.962 756.063, 515.889 756.551, 515.362 763.347, 508.026 770.142, 500.690 776.938, 493.354 777.146, 493.129 787.094, 494.143 787.954, 494.231 " fill="none" stroke="rgb(0, 0, 0)" stroke-linecap="butt" stroke-linejoin="round" stroke-opacity="1.0" stroke-width="3.0" />
            <path d=" M 823.595, 509.728 822.754, 499.842 822.405, 496.783 821.380, 487.782 819.956, 477.884 819.670, 475.896 817.943, 466.046 817.621, 464.210 815.585, 454.419 815.238, 452.747 812.888, 443.027 812.525, 441.527 809.857, 431.890 809.491, 430.568 806.490, 421.028 806.134, 419.896 802.782, 410.475 802.451, 409.546 798.727, 400.265 798.440, 399.550 794.328, 390.434 794.104, 389.938 789.590, 381.015 789.449, 380.737 784.483, 371.967 779.216, 363.645 773.657, 355.792 767.808, 348.445 761.675, 341.645 755.265, 335.424 748.589, 329.811 741.662, 324.827 734.498, 320.485 727.114, 316.799 721.094, 314.422 719.523, 313.801 711.739, 311.532 703.780, 310.023 695.667, 309.298 " fill="none" stroke="rgb(0, 0, 0)" stroke-linecap="butt" stroke-linejoin="round" stroke-opacity="1.0" stroke-width="3.0" />
            <path d=" M 662.990, 314.186 669.034, 317.837 674.961, 322.159 680.700, 327.104 686.240, 332.659 691.571, 338.801 696.682, 345.502 701.569, 352.730 706.226, 360.447 710.651, 368.614 714.838, 377.212 718.780, 386.224 722.430, 395.534 722.468, 395.631 725.779, 405.067 725.899, 405.408 728.890, 414.950 729.070, 415.525 731.761, 425.156 731.983, 425.952 734.392, 435.658 734.640, 436.656 736.781, 446.424 737.041, 447.612 738.920, 457.434 739.182, 458.802 740.803, 468.670 741.056, 470.209 742.427, 480.115 742.662, 481.812 743.791, 491.748 743.999, 493.585 744.540, 499.604 744.495, 500.843 744.391, 502.079 744.228, 503.299 744.010, 504.491 743.738, 505.641 743.414, 506.738 743.042, 507.771 742.626, 508.729 742.171, 509.601 741.680, 510.379 741.159, 511.054 741.026, 511.192 740.614, 511.620 740.049, 512.070 739.472, 512.401 730.437, 516.687 727.399, 518.128 " fill="none" stroke="rgb(0, 0, 0)" stroke-linecap="butt" stroke-linejoin="round" stroke-opacity="1.0" stroke-width="3.0" />
            <path d=" M 800.344, 535.406 800.677, 535.428 801.731, 535.495 803.235, 535.591 812.082, 530.929 813.678, 530.088 815.607, 529.071 823.329, 525.001 824.505, 524.381 825.258, 524.044 830.628, 521.642 830.065, 511.658 829.899, 508.730 829.061, 498.765 828.824, 495.945 827.706, 486.008 827.402, 483.310 825.997, 473.409 825.633, 470.849 823.931, 460.995 823.516, 458.588 821.511, 448.792 821.052, 446.552 818.733, 436.825 818.242, 434.766 816.057, 426.797 815.087, 423.257 812.106, 413.711 811.587, 412.051 810.200, 408.122 807.746, 401.174 804.054, 391.880 803.566, 390.654 799.496, 381.520 799.050, 380.521 794.587, 371.572 794.202, 370.800 789.331, 362.067 789.027, 361.522 787.737, 359.455 783.530, 352.714 782.478, 351.211 777.717, 344.408 771.596, 336.631 765.176, 329.414 758.464, 322.786 751.473, 316.777 744.213, 311.416 736.697, 306.732 728.941, 302.753 720.959, 299.508 712.769, 297.022 704.390, 295.320 695.841, 294.429 685.849, 294.027 675.857, 293.626 672.400, 293.487 " fill="none" stroke="rgb(0, 0, 0)" stroke-linecap="butt" stroke-linejoin="round" stroke-opacity="1.0" stroke-width="3.0" />
            <path d=" M 695.841, 294.429 687.146, 294.368 682.022, 294.826 678.327, 295.157 669.410, 296.817 666.123, 297.747 660.420, 299.362 651.387, 302.804 643.132, 306.770 642.412, 307.116 642.340, 307.151 633.699, 312.185 633.309, 312.412 625.069, 318.078 624.328, 318.587 616.505, 324.816 615.428, 325.674 608.032, 332.404 606.646, 333.666 599.679, 340.840 598.015, 342.554 591.475, 350.119 589.572, 352.320 583.452, 360.229 581.351, 362.944 575.645, 371.156 573.498, 374.246 573.391, 374.400 573.131, 374.816 567.829, 383.295 565.727, 386.658 565.309, 387.399 562.838, 391.788 561.167, 394.754 558.393, 399.680 555.995, 404.411 554.281, 407.793 551.425, 413.426 547.281, 422.526 544.857, 427.849 542.726, 433.075 538.950, 442.335 538.721, 442.899 535.306, 452.298 533.046, 458.518 529.986, 468.038 527.862, 474.648 525.152, 484.273 523.196, 491.224 520.832, 500.941 519.280, 507.318 519.070, 508.180 517.048, 517.973 516.192, 522.120 515.823, 523.904 515.505, 525.443 513.824, 535.301 512.520, 542.943 511.179, 552.853 510.130, 560.604 509.129, 570.554 508.344, 578.351 507.685, 588.329 507.171, 596.107 506.857, 606.102 506.616, 613.795 506.651, 623.795 506.678, 631.340 507.068, 641.332 507.355, 648.667 508.107, 658.639 508.640, 665.705 " fill="none" stroke="rgb(0, 0, 0)" stroke-linecap="butt" stroke-linejoin="round" stroke-opacity="1.0" stroke-width="3.0" />
            <path d=" M 756.063, 515.889 755.357, 506.360 755.221, 503.637 755.191, 503.867 754.973, 505.064 754.702, 506.220 754.380, 507.323 754.010, 508.360 753.596, 509.323 753.143, 510.199 752.656, 510.981 752.139, 511.660 751.597, 512.228 751.037, 512.681 750.464, 513.014 741.453, 517.350 733.465, 521.194 732.838, 520.201 732.135, 519.400 731.369, 518.803 730.553, 518.422 729.699, 518.263 727.399, 518.128 718.539, 517.609 717.657, 517.674 716.768, 517.963 715.886, 518.472 715.026, 519.192 714.237, 520.114 713.535, 521.223 712.899, 522.499 712.340, 523.919 711.868, 525.460 711.490, 527.096 711.214, 528.797 711.044, 530.536 710.983, 532.282 711.032, 534.005 721.011, 534.662 722.231, 534.742 727.039, 532.440 727.029, 531.890 727.063, 531.335 727.139, 530.789 727.154, 530.722 727.257, 530.267 727.412, 529.784 727.600, 529.353 727.816, 528.985 728.054, 528.692 728.308, 528.479 728.571, 528.355 728.835, 528.321 " fill="none" stroke="rgb(0, 0, 0)" stroke-linecap="butt" stroke-linejoin="round" stroke-opacity="1.0" stroke-width="3.0" />
            <path d=" M 799.335, 522.340 799.575, 522.214 800.278, 521.844 801.380, 521.264 804.823, 519.454 807.324, 518.139 807.834, 517.823 808.335, 517.403 808.822, 516.883 809.290, 516.268 809.737, 515.564 810.159, 514.778 810.553, 513.916 810.915, 512.986 811.244, 511.995 811.537, 510.951 811.791, 509.861 812.004, 508.734 812.175, 507.579 812.301, 506.405 821.894, 509.228 822.981, 509.548 823.595, 509.728 823.465, 510.481 823.212, 511.576 823.068, 512.095 822.921, 512.626 822.595, 513.622 822.235, 514.557 821.844, 515.423 821.425, 516.213 820.982, 516.920 820.518, 517.539 820.035, 518.062 819.539, 518.485 819.033, 518.802 813.309, 521.863 810.824, 523.191 806.411, 525.551 805.824, 524.531 805.164, 523.708 804.442, 523.096 803.669, 522.707 802.860, 522.547 801.422, 522.463 800.297, 522.397 799.335, 522.340 794.776, 522.073 790.987, 521.851 790.154, 521.922 790.146, 521.923 790.095, 521.941 789.296, 522.225 788.451, 522.753 787.625, 523.500 786.869, 524.454 786.198, 525.601 785.587, 526.920 785.049, 528.388 784.592, 529.979 784.225, 531.668 783.952, 533.424 783.780, 535.218 783.712, 537.018 783.747, 538.795 790.521, 539.241 790.570, 539.244 795.278, 539.554 795.667, 539.580 800.224, 537.178 800.219, 536.611 800.254, 536.038 800.330, 535.475 800.344, 535.406 800.444, 534.936 800.594, 534.437 800.664, 534.265 800.774, 533.992 800.981, 533.612 801.208, 533.307 801.449, 533.087 801.698, 532.957 801.703, 532.956 801.947, 532.921 " fill="none" stroke="rgb(0, 0, 0)" stroke-linecap="butt" stroke-linejoin="round" stroke-opacity="1.0" stroke-width="3.0" />
            <path d=" M 775.324, 548.256 775.235, 556.852 774.890, 566.846 774.808, 569.218 774.223, 579.200 774.083, 581.596 773.261, 591.562 773.062, 593.965 772.004, 603.909 771.749, 606.304 770.453, 616.220 770.143, 618.591 768.609, 628.473 768.247, 630.804 766.475, 640.645 766.065, 642.920 764.051, 652.716 763.598, 654.919 761.340, 664.661 760.849, 666.778 758.344, 676.459 757.823, 678.473 755.066, 688.086 754.521, 689.984 751.507, 699.519 750.949, 701.287 747.672, 710.734 747.109, 712.357 743.563, 721.707 743.007, 723.173 739.184, 732.413 738.648, 733.710 734.539, 742.827 734.036, 743.944 729.633, 752.922 729.178, 753.849 724.470, 762.672 724.080, 763.402 719.057, 772.049 718.750, 772.578 713.398, 781.026 713.193, 781.349 707.502, 789.572 707.420, 789.691 701.437, 797.578 695.257, 804.982 688.887, 811.878 682.341, 818.238 675.629, 824.039 668.766, 829.250 661.765, 833.847 654.641, 837.806 647.411, 841.101 640.091, 843.707 632.701, 845.600 625.258, 846.761 617.785, 847.167 610.302, 846.798 609.656, 846.698 " fill="none" stroke="rgb(0, 0, 0)" stroke-linecap="butt" stroke-linejoin="round" stroke-opacity="1.0" stroke-width="3.0" />
            <path d=" M 764.002, 547.642 763.166, 547.468 762.359, 547.037 761.599, 546.357 760.900, 545.440 760.279, 544.305 759.744, 542.973 759.308, 541.467 758.978, 539.817 758.761, 538.055 758.706, 537.023 758.662, 536.214 758.682, 534.331 758.822, 532.441 759.078, 530.581 759.149, 530.233 759.445, 528.787 759.917, 527.095 760.484, 525.536 761.134, 524.140 761.856, 522.935 762.634, 521.942 763.306, 521.203 763.979, 520.466 764.651, 519.729 765.117, 519.218 765.322, 518.993 765.659, 518.625 772.406, 511.243 778.264, 504.833 785.010, 497.452 787.954, 494.231 788.883, 504.187 788.984, 505.274 789.357, 509.740 789.972, 519.721 790.075, 521.388 790.095, 521.941 " fill="none" stroke="rgb(0, 0, 0)" stroke-linecap="butt" stroke-linejoin="round" stroke-opacity="1.0" stroke-width="3.0" />
            <path d=" M 794.766, 521.796 799.575, 522.214 " fill="none" stroke="rgb(0, 0, 0)" stroke-linecap="butt" stroke-linejoin="round" stroke-opacity="1.0" stroke-width="3.0" />
            <path d=" M 764.612, 537.410 764.302, 537.277 764.018, 537.001 763.774, 536.594 763.580, 536.074 763.445, 535.464 763.374, 534.789 763.371, 534.081 763.436, 533.369 763.567, 532.686 763.756, 532.060 763.996, 531.521 764.277, 531.090 764.586, 530.788 764.908, 530.628 765.232, 530.615 " fill="none" stroke="rgb(0, 0, 0)" stroke-linecap="butt" stroke-linejoin="round" stroke-opacity="1.0" stroke-width="3.0" />
            <path d=" M 765.232, 530.615 765.542, 530.750 765.824, 531.027 766.068, 531.434 766.260, 531.953 766.395, 532.563 766.465, 533.235 766.467, 533.941 766.402, 534.650 766.273, 535.331 766.085, 535.955 765.846, 536.494 765.566, 536.925 765.258, 537.229 764.936, 537.393 764.612, 537.410 " fill="none" stroke="rgb(0, 0, 0)" stroke-linecap="butt" stroke-linejoin="round" stroke-opacity="1.0" stroke-width="3.0" />
            <path d=" M 800.677, 535.428 800.789, 544.936 800.673, 554.936 800.638, 557.973 800.290, 567.967 800.183, 571.046 799.606, 581.030 799.426, 584.134 798.620, 594.102 798.369, 597.215 797.335, 607.162 797.012, 610.267 795.750, 620.187 795.358, 623.267 793.866, 633.155 793.407, 636.194 791.684, 646.044 791.163, 649.025 789.206, 658.832 788.627, 661.738 786.433, 671.494 785.801, 674.309 783.367, 684.009 782.688, 686.717 780.010, 696.351 779.292, 698.936 776.364, 708.498 775.615, 710.944 772.430, 720.423 771.661, 722.715 768.214, 732.102 767.434, 734.226 763.716, 743.510 762.939, 745.452 758.942, 754.618 758.180, 756.365 753.893, 765.399 753.163, 766.940 748.577, 775.826 747.893, 777.151 742.997, 785.871 742.379, 786.972 737.158, 795.501 736.625, 796.372 731.068, 804.686 730.641, 805.326 724.735, 813.396 724.435, 813.806 718.166, 821.597 718.017, 821.782 711.396, 829.225 704.586, 836.108 697.596, 842.401 690.442, 848.075 683.136, 853.100 675.696, 857.451 668.136, 861.099 660.476, 864.014 652.734, 866.174 644.930, 867.553 637.086, 868.127 629.225, 867.873 621.369, 866.773 613.545, 864.809 605.779, 861.965 598.097, 858.229 590.527, 853.593 583.099, 848.051 575.842, 841.600 568.920, 834.382 568.785, 834.242 562.414, 826.534 561.960, 825.985 556.129, 817.861 555.396, 816.840 550.091, 808.363 549.125, 806.820 544.325, 798.047 543.177, 795.948 540.099, 789.517 537.579, 784.250 537.407, 783.839 536.110, 780.731 532.363, 771.756 530.881, 767.670 529.623, 764.202 527.556, 758.503 524.569, 748.959 523.907, 746.846 523.183, 744.532 521.838, 739.500 519.270, 729.890 517.077, 720.133 515.840, 714.627 514.021, 704.794 512.913, 698.801 511.456, 688.908 510.508, 682.472 509.547, 673.846 508.640, 665.705 505.774, 656.124 503.156, 647.373 " fill="none" stroke="rgb(0, 0, 0)" stroke-linecap="butt" stroke-linejoin="round" stroke-opacity="1.0" stroke-width="3.0" />
            <path d=" M 672.400, 293.487 664.523, 293.397 658.954, 293.925 656.535, 294.154 648.459, 295.777 640.319, 298.283 632.141, 301.685 623.950, 305.992 615.776, 311.214 607.796, 317.240 607.648, 317.352 600.126, 323.941 599.596, 324.405 592.533, 331.484 591.651, 332.367 585.043, 339.873 583.847, 341.231 577.682, 349.105 576.214, 350.980 571.774, 357.323 571.360, 357.916 568.787, 361.592 564.284, 368.767 561.787, 372.743 561.598, 373.044 560.133, 375.642 555.220, 384.352 554.941, 384.847 554.682, 385.306 553.255, 388.119 548.731, 397.037 548.070, 398.340 543.922, 407.439 541.833, 412.020 541.795, 412.104 538.010, 421.361 535.887, 426.554 532.456, 435.947 530.377, 441.637 527.289, 451.148 525.293, 457.295 522.539, 466.908 520.660, 473.468 518.235, 483.169 516.504, 490.091 514.401, 499.868 512.847, 507.096 511.062, 516.935 509.807, 523.854 509.706, 524.410 508.237, 534.301 507.099, 541.959 505.944, 551.892 505.040, 559.667 504.198, 569.632 503.538, 577.458 503.011, 587.444 502.599, 595.253 502.390, 605.251 502.229, 612.974 502.341, 622.974 502.427, 630.546 502.860, 640.537 503.156, 647.373 502.220, 657.329 501.354, 666.527 " fill="none" stroke="rgb(0, 0, 0)" stroke-linecap="butt" stroke-linejoin="round" stroke-opacity="1.0" stroke-width="3.0" />
            <path d=" M 503.303, 683.830 504.774, 693.721 505.328, 697.444 505.809, 700.676 507.643, 710.506 508.853, 716.996 511.064, 726.749 512.419, 732.728 515.021, 742.383 516.483, 747.811 518.470, 754.106 520.531, 760.640 521.021, 762.193 524.456, 771.585 526.008, 775.827 526.654, 777.362 527.959, 780.462 531.415, 788.668 533.475, 792.936 534.817, 795.716 537.213, 800.679 537.605, 801.388 542.439, 810.141 543.372, 811.830 548.715, 820.283 549.860, 822.094 555.732, 830.188 556.647, 831.450 563.063, 839.120 563.701, 839.882 570.669, 847.055 570.988, 847.383 578.478, 853.945 586.140, 859.566 593.942, 864.251 601.856, 868.009 609.852, 870.847 617.902, 872.780 625.979, 873.826 634.059, 874.005 642.116, 873.335 650.128, 871.843 658.073, 869.553 665.930, 866.492 673.680, 862.684 681.306, 858.162 688.790, 852.953 696.118, 847.087 703.274, 840.591 710.246, 833.498 716.871, 826.008 717.021, 825.837 723.272, 818.032 723.589, 817.637 729.480, 809.556 729.938, 808.926 735.483, 800.604 736.061, 799.736 741.271, 791.201 741.947, 790.094 746.836, 781.371 747.589, 780.028 752.169, 771.139 752.980, 769.566 757.263, 760.530 758.113, 758.736 762.109, 749.570 762.983, 747.565 766.701, 738.281 767.584, 736.077 771.033, 726.690 771.911, 724.300 775.098, 714.821 775.960, 712.259 778.892, 702.698 779.726, 699.978 782.409, 690.344 783.206, 687.481 785.646, 677.783 786.397, 674.794 788.597, 665.039 789.296, 661.940 791.259, 652.134 791.898, 648.941 793.628, 639.091 794.203, 635.820 795.702, 625.933 796.207, 622.602 797.477, 612.683 797.909, 609.307 798.949, 599.361 799.305, 595.959 800.118, 585.992 800.396, 582.580 800.979, 572.597 801.178, 569.191 801.531, 559.198 801.650, 555.817 801.771, 545.818 801.811, 542.478 801.731, 535.495 " fill="none" stroke="rgb(0, 0, 0)" stroke-linecap="butt" stroke-linejoin="round" stroke-opacity="1.0" stroke-width="3.0" />
            <path d=" M 501.354, 666.527 502.474, 676.464 503.303, 683.830 " fill="none" stroke="rgb(0, 0, 0)" stroke-linecap="butt" stroke-linejoin="round" stroke-opacity="1.0" stroke-width="3.0" />
            <path d=" M 816.057, 426.797 815.273, 422.537 813.234, 412.747 812.978, 411.521 810.701, 401.784 810.447, 400.698 807.922, 391.022 807.678, 390.088 804.896, 380.483 804.672, 379.707 801.625, 370.182 801.430, 369.570 798.110, 360.137 797.954, 359.694 794.351, 350.366 794.247, 350.096 790.348, 340.887 790.308, 340.793 786.140, 331.805 781.744, 323.153 777.121, 314.860 772.275, 306.944 767.208, 299.425 761.928, 292.319 756.436, 285.645 750.740, 279.424 744.844, 273.676 738.753, 268.425 732.474, 263.693 726.015, 259.507 719.383, 255.883 712.589, 252.840 705.643, 250.395 698.554, 248.564 691.335, 247.368 683.999, 246.824 676.557, 246.952 675.527, 247.064 669.026, 247.771 661.420, 249.301 653.756, 251.549 646.050, 254.526 638.321, 258.236 630.587, 262.688 622.867, 267.887 615.183, 273.838 609.520, 278.816 607.555, 280.544 600.445, 287.575 600.008, 288.007 593.294, 295.418 592.564, 296.224 586.224, 303.986 585.246, 305.183 579.297, 313.221 578.075, 314.871 577.135, 316.268 571.550, 324.564 571.075, 325.270 568.336, 329.733 567.856, 330.516 564.268, 336.363 562.267, 339.936 559.776, 344.383 558.161, 347.267 557.678, 348.129 553.126, 357.033 553.021, 357.239 551.375, 360.459 551.330, 360.547 547.103, 369.610 545.247, 373.591 541.339, 382.795 540.232, 385.401 539.455, 387.231 538.841, 388.823 535.241, 398.153 533.976, 401.434 530.675, 410.874 528.828, 416.158 525.819, 425.694 524.031, 431.360 521.305, 440.982 519.601, 446.997 517.155, 456.693 515.557, 463.023 513.386, 472.785 511.916, 479.390 510.017, 489.208 508.693, 496.048 507.065, 505.914 505.904, 512.944 504.545, 522.851 504.414, 523.808 503.561, 530.025 502.467, 539.965 501.668, 547.233 500.839, 557.198 500.231, 564.512 499.668, 574.496 499.256, 581.805 498.961, 591.801 498.747, 599.057 498.723, 609.057 498.706, 616.210 498.955, 626.207 499.129, 633.209 499.655, 643.195 500.014, 649.999 500.822, 659.966 501.354, 666.527 502.452, 676.466 503.144, 682.741 503.303, 683.830 504.692, 693.733 505.260, 697.781 505.373, 698.592 507.069, 708.447 508.030, 714.033 510.037, 723.829 511.101, 729.020 513.432, 738.745 514.574, 743.510 517.238, 753.149 518.017, 755.968 518.431, 757.465 520.041, 762.566 522.656, 770.851 525.997, 780.194 527.196, 783.547 527.228, 783.637 530.968, 792.911 532.130, 795.793 532.601, 796.830 533.916, 799.729 536.645, 805.744 537.346, 807.288 541.884, 816.199 542.853, 818.101 547.812, 826.785 548.629, 828.216 554.022, 836.637 554.652, 837.620 560.492, 845.737 560.898, 846.301 567.198, 854.067 567.348, 854.252 573.979, 861.463 580.772, 867.929 587.708, 873.646 594.764, 878.615 601.920, 882.844 609.154, 886.343 616.448, 889.122 622.794, 890.913 623.782, 891.191 631.139, 892.563 638.504, 893.247 645.859, 893.256 653.189, 892.601 660.481, 891.302 667.717, 889.379 674.887, 886.853 681.976, 883.746 688.974, 880.075 695.869, 875.860 702.651, 871.118 709.311, 865.866 715.839, 860.121 722.227, 853.907 728.467, 847.246 734.552, 840.161 740.477, 832.670 746.235, 824.794 751.820, 816.551 757.145, 808.087 757.227, 807.957 762.276, 799.325 762.450, 799.028 767.232, 790.245 767.484, 789.782 772.009, 780.864 772.326, 780.239 776.604, 771.200 776.974, 770.418 781.012, 761.270 781.423, 760.339 785.230, 751.092 785.672, 750.017 789.253, 740.680 789.718, 739.470 793.078, 730.051 793.557, 728.711 796.701, 719.218 797.185, 717.756 800.117, 708.196 800.601, 706.619 803.325, 696.997 803.801, 695.315 806.323, 685.638 806.786, 683.862 809.109, 674.135 809.553, 672.274 811.681, 662.503 812.103, 660.566 814.038, 650.755 814.432, 648.753 816.177, 638.906 816.541, 636.848 818.095, 626.970 818.426, 624.865 819.790, 614.959 820.085, 612.818 821.260, 602.887 821.517, 600.719 822.505, 590.768 822.722, 588.583 823.524, 578.616 823.700, 576.425 824.315, 566.444 824.450, 564.257 824.877, 554.266 824.969, 552.093 825.206, 542.096 825.257, 539.947 825.304, 529.947 825.314, 527.832 825.258, 524.044 " fill="none" stroke="rgb(0, 0, 0)" stroke-linecap="butt" stroke-linejoin="round" stroke-opacity="1.0" stroke-width="3.0" />
            <path d=" M 674.332, 247.084 666.790, 247.904 659.174, 249.433 651.500, 251.681 643.785, 254.655 636.047, 258.363 628.303, 262.811 620.574, 268.006 612.881, 273.951 608.165, 278.089 605.245, 280.651 598.128, 287.675 597.690, 288.107 590.969, 295.511 590.239, 296.316 583.905, 304.054 582.913, 305.266 580.660, 308.304 575.735, 314.943 570.590, 322.572 568.729, 325.331 567.905, 326.670 567.415, 327.468 562.177, 335.987 561.967, 336.329 561.916, 336.413 559.472, 340.768 557.869, 343.624 555.320, 348.167 552.711, 353.261 551.063, 356.478 548.966, 360.571 544.733, 369.631 542.879, 373.600 539.894, 380.617 537.083, 387.226 533.478, 396.553 531.600, 401.412 528.294, 410.850 528.188, 411.154 526.449, 416.120 523.435, 425.654 521.649, 431.305 518.919, 440.925 517.217, 446.924 514.767, 456.619 513.172, 462.932 510.997, 472.693 509.529, 479.280 507.627, 489.097 506.306, 495.918 504.675, 505.784 503.517, 512.795 502.156, 522.702 502.007, 523.788 501.174, 529.856 500.079, 539.796 499.281, 547.044 498.452, 557.010 497.845, 564.304 497.283, 574.288 496.872, 581.578 496.578, 591.573 496.366, 598.810 496.343, 608.810 496.327, 615.944 496.578, 625.941 496.754, 632.924 497.283, 642.910 497.642, 649.695 498.454, 659.662 498.987, 666.205 500.088, 676.144 500.781, 682.402 502.178, 692.304 503.015, 698.236 504.003, 703.962 505.677, 713.661 507.690, 723.456 508.754, 728.633 511.090, 738.356 512.232, 743.108 514.903, 752.745 516.097, 757.050 517.034, 760.014 519.031, 766.323 520.328, 770.423 523.703, 779.837 524.907, 783.197 525.119, 783.721 526.381, 786.842 529.817, 795.342 531.898, 799.918 533.191, 802.761 535.040, 806.827 535.995, 808.697 540.556, 817.632 545.523, 826.311 546.340, 827.739 551.741, 836.155 552.371, 837.136 558.220, 845.247 558.626, 845.812 564.934, 853.571 565.085, 853.757 571.726, 860.964 578.528, 867.428 585.473, 873.142 592.539, 878.110 599.705, 882.339 606.949, 885.838 614.252, 888.618 621.597, 890.689 " fill="none" stroke="rgb(0, 0, 0)" stroke-linecap="butt" stroke-linejoin="round" stroke-opacity="1.0" stroke-width="3.0" />
            <path d=" M 676.557, 246.952 674.332, 247.084 " fill="none" stroke="rgb(0, 0, 0)" stroke-linecap="butt" stroke-linejoin="round" stroke-opacity="1.0" stroke-width="3.0" />
            <path d=" M 621.597, 890.689 623.782, 891.191 " fill="none" stroke="rgb(0, 0, 0)" stroke-linecap="butt" stroke-linejoin="round" stroke-opacity="1.0" stroke-width="3.0" />
            <path d=" M 483.393, 669.179 484.516, 679.116 485.490, 687.739 486.912, 697.638 488.095, 705.867 489.826, 715.716 491.195, 723.506 493.243, 733.294 494.772, 740.604 495.059, 741.775 496.854, 749.114 498.810, 757.111 501.526, 766.735 502.344, 769.633 503.289, 772.982 506.356, 782.500 506.940, 784.311 508.186, 788.177 508.625, 789.378 510.396, 794.224 511.415, 797.011 512.588, 800.220 513.480, 802.658 517.294, 811.902 517.381, 812.113 518.576, 815.010 519.147, 816.393 520.859, 820.083 522.122, 822.805 524.640, 828.230 525.162, 829.354 525.940, 830.847 526.424, 831.776 529.043, 836.800 531.500, 841.516 536.550, 850.147 538.137, 852.859 543.630, 861.215 545.045, 863.367 550.996, 871.404 552.200, 873.029 558.619, 880.697 559.574, 881.837 566.470, 889.079 567.143, 889.786 574.516, 896.541 574.881, 896.874 582.763, 903.105 590.765, 908.483 598.864, 913.016 607.037, 916.715 615.262, 919.591 623.517, 921.660 627.834, 922.711 636.078, 923.982 644.314, 924.479 652.524, 924.220 660.690, 923.226 668.797, 921.519 676.829, 919.120 684.772, 916.054 692.614, 912.342 700.341, 908.008 707.942, 903.076 715.406, 897.570 722.725, 891.513 729.888, 884.929 736.887, 877.841 743.586, 870.417 743.716, 870.273 750.096, 862.573 750.366, 862.247 756.437, 854.301 756.832, 853.785 762.605, 845.619 763.107, 844.909 768.592, 836.547 769.187, 835.641 774.394, 827.104 775.066, 826.002 780.005, 817.306 780.741, 816.012 785.421, 807.174 786.207, 805.691 790.637, 796.726 791.460, 795.059 795.648, 785.978 796.499, 784.135 800.452, 774.950 801.318, 772.938 805.044, 763.658 805.917, 761.484 809.422, 752.119 810.292, 749.793 813.582, 740.350 814.442, 737.881 817.522, 728.367 818.364, 725.765 821.238, 716.188 822.056, 713.462 824.730, 703.826 825.518, 700.986 827.994, 691.298 828.746, 688.355 831.029, 678.619 831.741, 675.582 833.833, 665.803 834.500, 662.683 836.404, 652.866 837.023, 649.673 838.740, 639.822 839.307, 636.566 840.840, 626.685 841.353, 623.377 842.702, 613.469 843.158, 610.119 844.325, 600.188 844.722, 596.807 845.707, 586.856 846.044, 583.454 846.847, 573.486 847.122, 570.074 847.743, 560.093 847.956, 556.681 848.395, 546.691 848.544, 543.289 848.800, 533.292 848.887, 529.911 848.958, 519.911 848.981, 516.561 848.866, 506.562 848.828, 503.254 848.524, 493.259 848.425, 490.004 847.930, 480.016 847.772, 476.824 847.083, 466.848 846.867, 463.730 845.981, 453.769 845.711, 450.736 844.623, 440.795 844.301, 437.857 843.007, 427.941 842.638, 425.109 841.133, 415.223 840.720, 412.507 838.999, 402.656 838.547, 400.068 836.603, 390.259 836.118, 387.808 833.945, 378.047 833.433, 375.744 831.024, 366.038 830.491, 363.893 827.837, 354.251 827.292, 352.273 824.385, 342.705 823.837, 340.903 820.666, 331.419 820.126, 329.801 816.681, 320.413 816.158, 318.987 812.428, 309.709 811.935, 308.481 807.908, 299.328 807.457, 298.304 803.121, 289.293 802.727, 288.475 798.067, 279.628 797.746, 279.018 792.749, 270.356 792.516, 269.953 787.167, 261.504 787.040, 261.304 781.320, 253.094 775.362, 245.345 769.168, 238.082 762.744, 231.330 756.095, 225.112 749.229, 219.454 742.152, 214.380 734.873, 209.915 727.400, 206.084 719.743, 202.911 711.914, 200.421 703.924, 198.637 695.786, 197.582 687.516, 197.279 679.127, 197.748 674.700, 198.108 666.188, 199.370 657.593, 201.441 648.933, 204.337 640.229, 208.073 631.503, 212.662 623.021, 217.960 622.776, 218.113 614.685, 223.990 614.073, 224.434 606.383, 230.826 605.418, 231.628 598.133, 238.479 596.836, 239.698 589.954, 246.953 588.354, 248.640 581.869, 256.253 579.998, 258.449 579.974, 258.481 573.878, 266.409 571.797, 269.116 566.081, 277.321 563.778, 280.625 560.860, 285.236 560.232, 286.229 557.504, 290.538 556.860, 291.556 555.970, 292.961 554.899, 294.820 554.391, 295.703 553.331, 297.543 550.209, 302.963 548.648, 305.673 548.401, 306.100 548.012, 306.843 546.432, 309.853 541.787, 318.708 541.100, 320.017 540.125, 322.058 538.571, 325.310 535.258, 332.245 534.095, 334.680 530.109, 343.851 527.412, 350.055 525.942, 353.780 522.272, 363.082 521.080, 366.102 517.717, 375.520 515.124, 382.778 512.060, 392.297 509.569, 400.036 506.798, 409.644 504.438, 417.823 501.954, 427.509 499.754, 436.086 497.551, 445.840 497.317, 446.878 495.536, 454.766 495.175, 456.606 493.250, 466.419 491.802, 473.802 490.152, 483.665 488.569, 493.131 487.192, 503.036 486.586, 507.391 485.863, 512.590 485.849, 512.688 485.822, 512.930 485.409, 516.644 485.140, 519.059 485.084, 519.564 485.047, 519.898 484.989, 520.415 483.883, 530.354 483.655, 532.405 482.820, 542.370 481.995, 552.214 481.430, 562.198 480.874, 572.047 480.582, 582.043 480.296, 591.834 480.279, 601.834 480.263, 611.508 480.524, 621.505 480.771, 631.001 481.314, 640.986 481.786, 649.669 481.817, 650.246 482.647, 660.211 483.393, 669.179 " fill="none" stroke="rgb(0, 0, 0)" stroke-linecap="butt" stroke-linejoin="round" stroke-opacity="1.0" stroke-width="3.0" />
            <path d=" M 679.127, 197.748 670.638, 199.009 662.064, 201.081 653.427, 203.980 644.745, 207.721 636.039, 212.316 627.567, 217.629 627.333, 217.775 619.253, 223.667 618.649, 224.106 610.972, 230.513 610.013, 231.313 602.741, 238.178 601.449, 239.397 594.582, 246.666 592.985, 248.356 586.515, 255.981 584.646, 258.184 582.638, 260.805 576.558, 268.744 576.460, 268.872 570.759, 277.087 568.456, 280.405 563.122, 288.864 561.922, 290.767 561.318, 291.724 560.662, 292.766 558.235, 296.995 555.663, 301.477 554.100, 304.199 553.105, 305.933 548.866, 314.043 547.277, 317.083 545.816, 319.879 541.518, 328.909 538.821, 334.574 536.214, 340.593 532.240, 349.769 532.148, 349.983 528.489, 359.289 525.824, 366.066 522.471, 375.487 521.101, 379.335 519.875, 382.779 516.821, 392.301 514.326, 400.076 511.563, 409.687 509.201, 417.904 506.723, 427.592 504.520, 436.208 502.324, 445.964 500.305, 454.931 498.385, 464.745 496.572, 474.012 495.346, 481.360 493.700, 491.224 493.339, 493.385 491.965, 503.291 491.385, 507.469 490.619, 512.987 490.212, 516.652 490.203, 516.727 489.879, 519.649 489.657, 521.648 488.552, 531.586 488.423, 532.750 488.294, 534.290 487.459, 544.256 486.759, 552.605 486.475, 557.623 485.911, 567.607 485.635, 572.483 485.576, 574.489 485.282, 584.485 485.052, 592.315 485.032, 602.315 485.012, 612.034 485.269, 622.030 485.514, 631.570 486.051, 641.555 486.551, 650.858 487.374, 660.824 487.533, 662.748 488.118, 669.833 489.233, 679.770 490.204, 688.433 491.618, 698.333 491.723, 699.064 492.278, 702.954 492.799, 706.599 494.519, 716.450 495.886, 724.275 497.558, 732.308 499.451, 741.407 501.815, 751.124 503.475, 757.947 506.178, 767.575 507.939, 773.850 510.759, 782.644 512.493, 788.050 512.821, 789.073 516.240, 798.471 518.099, 803.581 519.143, 806.123 520.366, 809.101 520.542, 809.531 523.749, 817.340 526.195, 822.634 527.455, 825.361 529.747, 830.322 530.424, 831.628 535.030, 840.504 536.068, 842.504 541.101, 851.144 542.685, 853.864 548.162, 862.231 549.574, 864.387 555.510, 872.435 556.709, 874.062 563.114, 881.742 564.063, 882.880 570.945, 890.135 571.611, 890.836 578.973, 897.604 579.328, 897.931 587.189, 904.165 595.170, 909.545 603.247, 914.078 611.398, 917.775 619.600, 920.647 627.834, 922.711 " fill="none" stroke="rgb(0, 0, 0)" stroke-linecap="butt" stroke-linejoin="round" stroke-opacity="1.0" stroke-width="3.0" />
            <path d=" M 729.699, 518.263 728.823, 518.329 727.940, 518.620 727.063, 519.132 726.208, 519.855 725.479, 520.717 725.424, 520.782 724.727, 521.898 724.095, 523.180 723.539, 524.607 723.069, 526.156 722.692, 527.800 722.671, 527.933 722.417, 529.510 722.329, 530.414 722.246, 531.257 722.184, 533.011 722.231, 534.742 " fill="none" stroke="rgb(0, 0, 0)" stroke-linecap="butt" stroke-linejoin="round" stroke-opacity="1.0" stroke-width="3.0" />
            <path d=" M 728.835, 528.321 729.093, 528.378 729.338, 528.526 729.564, 528.759 729.765, 529.072 729.934, 529.455 730.068, 529.899 730.163, 530.391 730.216, 530.918 " fill="none" stroke="rgb(0, 0, 0)" stroke-linecap="butt" stroke-linejoin="round" stroke-opacity="1.0" stroke-width="3.0" />
            <path d=" M 727.154, 530.722 730.216, 530.918 739.235, 526.599 748.254, 522.279 751.660, 520.647 " fill="none" stroke="rgb(0, 0, 0)" stroke-linecap="butt" stroke-linejoin="round" stroke-opacity="1.0" stroke-width="3.0" />
            <path d=" M 802.860, 522.547 802.026, 522.619 801.183, 522.924 800.344, 523.455 799.524, 524.206 798.827, 525.098 798.774, 525.165 798.108, 526.319 797.502, 527.645 796.968, 529.120 796.513, 530.720 796.147, 532.417 796.126, 532.554 795.876, 534.182 795.787, 535.115 795.704, 535.985 795.634, 537.795 795.667, 539.580 " fill="none" stroke="rgb(0, 0, 0)" stroke-linecap="butt" stroke-linejoin="round" stroke-opacity="1.0" stroke-width="3.0" />
            <path d=" M 801.947, 532.921 802.191, 532.979 802.422, 533.129 802.634, 533.369 802.821, 533.690 802.979, 534.084 803.102, 534.541 803.188, 535.048 803.235, 535.591 " fill="none" stroke="rgb(0, 0, 0)" stroke-linecap="butt" stroke-linejoin="round" stroke-opacity="1.0" stroke-width="3.0" />
            <path d=" M 779.913, 481.177 780.051, 481.099 780.199, 481.044 780.356, 481.014 780.517, 481.008 780.737, 481.040 780.951, 481.117 781.152, 481.236 781.331, 481.392 781.481, 481.580 781.599, 481.794 781.679, 482.030 781.715, 482.282 781.706, 482.517 781.654, 482.742 781.562, 482.947 781.433, 483.126 781.272, 483.271 781.083, 483.379 " fill="none" stroke="rgb(0, 0, 0)" stroke-linecap="butt" stroke-linejoin="round" stroke-opacity="1.0" stroke-width="3.0" />
            <path d=" M 779.913, 481.177 779.854, 481.212 779.676, 481.362 779.533, 481.544 779.502, 481.586 779.393, 481.801 779.329, 482.037 779.315, 482.289 779.351, 482.524 779.362, 482.570 779.443, 482.792 779.567, 482.992 779.728, 483.165 779.770, 483.195 779.954, 483.326 780.165, 483.417 780.206, 483.432 780.263, 483.444 780.446, 483.477 780.482, 483.482 780.525, 483.484 780.575, 483.485 780.626, 483.484 780.676, 483.481 780.725, 483.476 780.771, 483.470 780.811, 483.462 780.845, 483.453 781.033, 483.398 781.083, 483.379 " fill="none" stroke="rgb(0, 0, 0)" stroke-linecap="butt" stroke-linejoin="round" stroke-opacity="1.0" stroke-width="3.0" />
            <path d=" M 777.586, 479.053 777.896, 485.173 781.782, 485.341 783.575, 485.419 784.223, 484.964 783.416, 479.219 781.038, 479.061 778.018, 478.861 777.586, 479.053 " fill="none" stroke="rgb(0, 0, 0)" stroke-linecap="butt" stroke-linejoin="round" stroke-opacity="1.0" stroke-width="3.0" />
            <path d=" M 783.575, 485.419 783.270, 479.285 " fill="none" stroke="rgb(0, 0, 0)" stroke-linecap="butt" stroke-linejoin="round" stroke-opacity="1.0" stroke-width="3.0" />
            <path d=" M 783.416, 479.219 783.270, 479.285 777.586, 479.053 " fill="none" stroke="rgb(0, 0, 0)" stroke-linecap="butt" stroke-linejoin="round" stroke-opacity="1.0" stroke-width="3.0" />
            <path d=" M 741.026, 511.192 738.983, 511.162 728.983, 511.181 727.490, 511.183 717.491, 511.349 716.015, 511.374 706.019, 511.672 704.552, 511.716 694.561, 512.132 693.098, 512.193 683.112, 512.713 681.646, 512.790 671.665, 513.400 670.192, 513.490 660.216, 514.176 658.732, 514.279 648.760, 515.027 647.259, 515.140 637.291, 515.939 635.770, 516.060 625.805, 516.896 624.260, 517.025 614.297, 517.884 612.724, 518.020 602.762, 518.891 601.157, 519.031 591.195, 519.901 589.554, 520.045 579.591, 520.903 577.912, 521.048 578.146, 511.051 578.254, 506.481 578.373, 496.481 578.428, 491.894 578.432, 481.894 578.434, 477.307 578.323, 467.308 578.273, 462.738 578.045, 452.741 577.942, 448.206 577.598, 438.212 577.443, 433.731 576.979, 423.742 576.774, 419.331 576.189, 409.348 575.935, 405.027 575.226, 395.052 575.167, 394.228 " fill="none" stroke="rgb(0, 0, 0)" stroke-linecap="butt" stroke-linejoin="round" stroke-opacity="1.0" stroke-width="3.0" />
            <path d=" M 579.974, 258.481 577.273, 256.126 570.187, 249.070 569.638, 248.523 563.004, 241.041 562.341, 240.293 556.157, 232.434 555.404, 231.478 549.665, 223.288 548.844, 222.117 547.138, 219.388 542.674, 212.248 541.490, 210.126 541.375, 209.920 538.148, 204.134 536.905, 201.906 532.455, 192.951 531.546, 191.122 " fill="none" stroke="rgb(0, 0, 0)" stroke-linecap="butt" stroke-linejoin="round" stroke-opacity="1.0" stroke-width="3.0" />
            <path d=" M 531.546, 191.122 530.670, 189.471 527.500, 183.496 526.830, 182.388 523.304, 176.550 519.057, 170.457 518.964, 170.323 515.044, 165.537 514.487, 164.857 509.881, 160.194 505.153, 156.374 501.330, 154.054 500.313, 153.436 498.485, 152.691 495.371, 151.423 490.340, 150.374 485.232, 150.325 480.061, 151.313 474.842, 153.373 471.598, 155.327 470.494, 155.993 469.592, 156.536 465.015, 160.268 464.330, 160.827 459.074, 166.269 453.845, 172.883 453.135, 173.953 452.648, 174.685 448.665, 180.682 447.201, 183.257 443.555, 189.671 439.135, 198.641 438.539, 199.851 434.582, 209.034 433.641, 211.217 430.095, 220.567 428.887, 223.753 425.709, 233.235 424.300, 237.437 421.455, 247.023 419.907, 252.236 417.365, 261.907 415.733, 268.114 413.468, 277.854 411.802, 285.018 409.793, 294.814 408.137, 302.891 406.368, 312.734 404.762, 321.668 403.219, 331.549 401.700, 341.273 400.369, 351.184 399.039, 361.096 398.968, 361.621 397.841, 371.558 396.714, 381.494 396.587, 382.620 395.656, 392.577 394.725, 402.534 394.572, 404.175 393.830, 414.148 393.089, 424.120 392.936, 426.181 392.379, 436.166 391.823, 446.150 391.690, 448.530 391.315, 458.523 390.940, 468.516 390.843, 471.109 390.871, 471.183 394.452, 480.519 396.640, 486.224 397.674, 488.800 401.397, 498.081 402.517, 500.872 406.386, 510.093 408.475, 515.075 412.492, 524.233 414.517, 528.851 418.683, 537.941 420.643, 542.218 424.961, 551.238 426.855, 555.196 431.326, 564.141 433.155, 567.800 437.781, 576.666 439.545, 580.048 444.325, 588.831 446.025, 591.954 450.961, 600.651 452.598, 603.535 457.690, 612.142 459.266, 614.805 464.513, 623.318 466.030, 625.779 471.432, 634.194 472.892, 636.469 478.448, 644.784 479.855, 646.891 481.786, 649.669 " fill="none" stroke="rgb(0, 0, 0)" stroke-linecap="butt" stroke-linejoin="round" stroke-opacity="1.0" stroke-width="3.0" />
            <path d=" M 361.235, 461.989 356.787, 470.945 354.316, 475.921 " fill="none" stroke="rgb(0, 0, 0)" stroke-linecap="butt" stroke-linejoin="round" stroke-opacity="1.0" stroke-width="3.0" />
            <path d=" M 471.598, 155.327 466.627, 155.580 " fill="none" stroke="rgb(0, 0, 0)" stroke-linecap="butt" stroke-linejoin="round" stroke-opacity="1.0" stroke-width="3.0" />
            <path d=" M 790.570, 539.244 790.646, 549.089 " fill="none" stroke="rgb(0, 0, 0)" stroke-linecap="butt" stroke-linejoin="round" stroke-opacity="1.0" stroke-width="3.0" />
            <path d=" M 794.776, 522.073 794.766, 521.796 " fill="none" stroke="rgb(0, 0, 0)" stroke-linecap="butt" stroke-linejoin="round" stroke-opacity="1.0" stroke-width="3.0" />
        </g>
    </g>
</svg>
