<?xml version='1.0' encoding='ascii'?>
<svg xmlns="http://www.w3.org/2000/svg" height="1080" version="1.1" width="1080">
    <g id="View Layer_LineSet" inkscape:groupmode="lineset" inkscape:label="View Layer_LineSet" xmlns:inkscape="http://www.inkscape.org/namespaces/inkscape">
        <g id="strokes" inkscape:groupmode="layer" inkscape:label="strokes" xmlns:inkscape="http://www.inkscape.org/namespaces/inkscape">
            <path d=" M 565.403, 507.370 565.328, 508.478 565.312, 508.666 " fill="none" stroke="rgb(0, 0, 0)" stroke-linecap="butt" stroke-linejoin="round" stroke-opacity="1.0" stroke-width="3.0" />
            <path d=" M 355.025, 456.700 361.428, 455.632 " fill="none" stroke="rgb(0, 0, 0)" stroke-linecap="butt" stroke-linejoin="round" stroke-opacity="1.0" stroke-width="3.0" />
            <path d=" M 379.367, 455.805 389.313, 456.841 391.364, 457.055 " fill="none" stroke="rgb(0, 0, 0)" stroke-linecap="butt" stroke-linejoin="round" stroke-opacity="1.0" stroke-width="3.0" />
            <path d=" M 391.364, 457.055 387.574, 447.801 383.783, 438.548 383.027, 436.703 " fill="none" stroke="rgb(0, 0, 0)" stroke-linecap="butt" stroke-linejoin="round" stroke-opacity="1.0" stroke-width="3.0" />
            <path d=" M 464.483, 148.837 459.944, 149.900 455.358, 152.071 450.738, 155.380 446.102, 159.857 441.467, 165.527 439.340, 168.700 439.311, 168.742 439.311, 168.743 438.496, 169.958 436.851, 172.410 432.275, 180.519 427.921, 189.521 427.757, 189.859 423.889, 199.081 423.321, 200.434 419.874, 209.822 418.988, 212.235 415.910, 221.749 414.780, 225.242 412.030, 234.857 410.721, 239.433 408.266, 249.127 406.835, 254.774 404.646, 264.531 403.145, 271.218 401.197, 281.027 399.671, 288.712 397.948, 298.563 396.438, 307.193 394.923, 317.077 393.466, 326.587 392.147, 336.500 390.827, 346.413 390.774, 346.812 389.640, 356.747 388.505, 366.683 388.380, 367.776 387.423, 377.730 386.465, 387.684 386.302, 389.381 385.514, 399.350 384.726, 409.319 384.551, 411.523 383.928, 421.503 383.304, 431.484 383.141, 434.089 383.027, 436.703 381.145, 446.524 379.367, 455.805 " fill="none" stroke="rgb(0, 0, 0)" stroke-linecap="butt" stroke-linejoin="round" stroke-opacity="1.0" stroke-width="3.0" />
            <path d=" M 528.366, 721.029 528.964, 718.109 530.810, 708.281 531.259, 705.888 532.955, 696.032 533.419, 693.335 534.974, 683.457 535.444, 680.477 536.867, 670.579 537.333, 667.341 538.331, 659.717 539.086, 653.950 540.267, 644.020 540.705, 640.330 541.772, 630.387 542.188, 626.503 543.146, 616.549 543.537, 612.492 544.390, 602.528 544.750, 598.318 545.502, 588.346 545.829, 584.002 546.482, 574.024 546.774, 569.566 547.330, 559.581 547.584, 555.027 548.047, 545.038 548.261, 540.408 548.630, 530.415 548.803, 525.726 555.352, 525.753 557.200, 525.761 557.314, 525.762 559.099, 525.769 562.672, 525.784 563.514, 525.787 564.459, 525.791 567.030, 525.802 577.030, 525.844 577.779, 525.847 578.054, 515.851 578.186, 511.052 578.344, 501.053 578.420, 496.227 578.461, 486.227 578.481, 481.391 578.405, 471.392 578.368, 466.565 578.174, 456.567 578.081, 451.768 577.768, 441.773 577.620, 437.021 577.187, 427.031 576.984, 422.344 576.428, 412.359 576.172, 407.757 575.691, 400.696 " fill="none" stroke="rgb(0, 0, 0)" stroke-linecap="butt" stroke-linejoin="round" stroke-opacity="1.0" stroke-width="3.0" />
            <path d=" M 572.759, 405.682 573.165, 411.571 573.726, 421.556 573.949, 425.538 574.387, 435.528 574.565, 439.596 574.881, 449.591 575.011, 453.725 575.208, 463.723 575.290, 467.904 575.367, 477.904 575.400, 482.113 575.359, 492.113 575.342, 496.332 575.184, 506.331 575.118, 510.542 575.088, 511.636 574.993, 512.295 574.892, 512.915 574.783, 513.492 574.668, 514.022 574.547, 514.504 574.421, 514.934 574.290, 515.310 574.156, 515.631 574.019, 515.893 573.880, 516.097 573.739, 516.240 573.598, 516.323 573.458, 516.344 573.318, 516.303 569.343, 514.251 569.198, 512.970 569.023, 511.826 568.822, 510.836 568.598, 510.018 568.354, 509.386 568.094, 508.952 567.824, 508.722 567.546, 508.702 567.398, 508.700 565.379, 508.667 565.312, 508.666 564.838, 508.658 563.883, 508.643 563.052, 508.630 559.481, 508.572 557.697, 508.543 557.605, 508.542 557.156, 508.534 556.866, 508.724 556.579, 509.122 556.300, 509.721 556.033, 510.513 555.783, 511.483 555.690, 511.947 555.555, 512.616 555.353, 513.893 555.179, 515.292 555.037, 516.789 554.930, 518.359 554.859, 519.974 555.506, 520.276 556.524, 520.752 557.340, 520.766 557.452, 520.768 557.631, 520.772 559.237, 520.800 562.807, 520.863 563.639, 520.878 564.594, 520.895 565.049, 520.903 566.928, 520.936 566.952, 520.426 566.989, 519.937 567.039, 519.482 567.101, 519.074 567.172, 518.724 567.199, 518.627 567.251, 518.442 567.336, 518.235 567.424, 518.109 567.513, 518.067 " fill="none" stroke="rgb(0, 0, 0)" stroke-linecap="butt" stroke-linejoin="round" stroke-opacity="1.0" stroke-width="3.0" />
            <path d=" M 567.986, 521.449 574.726, 524.722 577.779, 525.847 " fill="none" stroke="rgb(0, 0, 0)" stroke-linecap="butt" stroke-linejoin="round" stroke-opacity="1.0" stroke-width="3.0" />
            <path d=" M 389.363, 214.643 386.525, 224.232 386.056, 225.817 383.516, 235.489 382.368, 239.857 380.093, 249.595 378.818, 255.052 376.780, 264.842 375.424, 271.358 373.604, 281.191 372.209, 288.723 370.587, 298.591 369.190, 307.089 367.753, 316.985 366.388, 326.386 365.124, 336.306 363.859, 346.225 363.820, 346.533 362.719, 356.472 361.617, 366.411 361.503, 367.443 360.557, 377.398 359.610, 387.353 359.452, 389.021 358.655, 398.989 357.858, 408.957 357.681, 411.163 357.028, 421.142 356.375, 431.121 356.202, 433.761 355.690, 443.748 355.178, 453.735 355.025, 456.700 354.697, 466.695 354.368, 476.689 354.266, 479.815 354.096, 489.814 353.926, 499.812 353.872, 503.008 353.861, 513.008 353.850, 523.008 353.847, 526.157 353.996, 536.155 354.145, 546.154 354.189, 549.139 354.501, 559.134 354.813, 569.129 354.897, 571.837 355.375, 581.825 355.853, 591.814 355.964, 594.133 356.614, 604.112 357.264, 614.091 357.383, 615.919 358.211, 625.884 359.040, 635.850 359.143, 637.087 360.159, 647.035 361.175, 656.983 361.232, 657.540 362.446, 667.466 363.635, 677.189 365.060, 687.087 366.337, 695.952 367.989, 705.815 369.319, 713.755 370.323, 718.951 " fill="none" stroke="rgb(0, 0, 0)" stroke-linecap="butt" stroke-linejoin="round" stroke-opacity="1.0" stroke-width="3.0" />
            <path d=" M 494.185, 739.725 493.706, 741.460 490.814, 751.033 490.672, 751.503 487.504, 761.069 484.204, 770.126 480.776, 778.642 477.223, 786.582 473.550, 793.908 469.762, 800.588 465.865, 806.583 461.864, 811.857 457.767, 816.371 454.010, 819.708 " fill="none" stroke="rgb(0, 0, 0)" stroke-linecap="butt" stroke-linejoin="round" stroke-opacity="1.0" stroke-width="3.0" />
            <path d=" M 391.596, 451.901 391.364, 457.055 391.052, 467.050 390.740, 477.045 390.645, 480.114 390.493, 490.113 390.341, 500.112 390.294, 503.251 390.302, 513.251 390.310, 523.251 390.312, 526.344 390.481, 536.343 390.650, 546.341 390.699, 549.274 391.031, 559.269 391.362, 569.263 391.451, 571.922 391.947, 581.909 392.444, 591.897 392.557, 594.172 393.223, 604.150 393.889, 614.128 394.008, 615.916 394.849, 625.881 395.691, 635.845 395.792, 637.047 396.815, 646.995 397.839, 656.942 397.893, 657.469 399.107, 667.395 400.293, 677.091 401.709, 686.990 402.974, 695.833 404.606, 705.699 405.916, 713.620 407.780, 723.445 409.098, 730.390 411.214, 740.164 412.497, 746.090 414.890, 755.799 416.092, 760.674 418.793, 770.302 419.859, 774.105 422.905, 783.630 423.777, 786.359 427.213, 795.750 427.823, 797.418 431.707, 806.633 431.976, 807.272 436.215, 815.918 440.519, 823.363 442.143, 825.698 442.421, 826.099 444.869, 829.618 449.247, 834.698 453.636, 838.626 458.020, 841.431 462.384, 843.140 466.713, 843.785 470.995, 843.405 475.218, 842.037 479.373, 839.719 483.450, 836.491 487.177, 832.664 487.440, 832.395 491.335, 827.472 495.129, 821.761 498.816, 815.305 502.390, 808.143 505.848, 800.316 508.907, 792.566 " fill="none" stroke="rgb(0, 0, 0)" stroke-linecap="butt" stroke-linejoin="round" stroke-opacity="1.0" stroke-width="3.0" />
            <path d=" M 466.561, 825.517 462.778, 824.757 462.499, 824.701 458.420, 822.878 454.338, 820.022 454.010, 819.708 450.265, 816.109 446.219, 811.114 442.214, 805.017 438.267, 797.809 434.396, 789.481 430.685, 780.195 430.619, 780.029 427.343, 770.581 426.954, 769.458 424.058, 759.886 423.420, 757.780 420.859, 748.113 420.037, 745.014 417.774, 735.273 416.823, 731.184 414.829, 721.385 413.798, 716.325 412.047, 706.480 410.980, 700.482 409.452, 690.600 408.387, 683.706 407.067, 673.793 406.036, 666.053 404.909, 656.117 403.943, 647.594 402.999, 637.639 402.123, 628.405 401.352, 618.434 400.589, 608.567 399.985, 598.585 399.380, 588.603 399.354, 588.169 398.909, 578.179 398.465, 568.189 398.426, 567.310 398.137, 557.314 397.848, 547.318 397.812, 546.088 397.676, 536.089 397.540, 526.090 397.520, 524.610 397.534, 514.610 397.549, 504.610 397.551, 502.982 397.715, 492.983 397.880, 482.985 397.907, 481.315 398.204, 471.877 " fill="none" stroke="rgb(0, 0, 0)" stroke-linecap="butt" stroke-linejoin="round" stroke-opacity="1.0" stroke-width="3.0" />
            <path d=" M 505.467, 782.283 503.943, 786.003 500.591, 793.307 497.137, 799.964 493.585, 805.940 489.941, 811.195 486.211, 815.691 482.403, 819.394 478.524, 822.265 474.585, 824.266 470.593, 825.361 466.561, 825.517 " fill="none" stroke="rgb(0, 0, 0)" stroke-linecap="butt" stroke-linejoin="round" stroke-opacity="1.0" stroke-width="3.0" />
            <path d=" M 546.261, 524.618 545.887, 534.611 545.735, 538.687 545.262, 548.676 545.072, 552.694 544.499, 562.677 544.273, 566.619 543.597, 576.596 543.337, 580.442 542.557, 590.412 542.265, 594.144 541.379, 604.105 541.058, 607.704 540.062, 617.654 539.716, 621.102 538.606, 631.040 538.240, 634.314 537.010, 644.238 536.629, 647.320 535.276, 657.228 534.884, 660.097 533.402, 669.986 533.007, 672.620 532.770, 674.064 531.151, 683.932 530.998, 684.866 529.234, 694.709 528.857, 696.808 526.939, 706.622 526.587, 708.422 526.170, 710.379 " fill="none" stroke="rgb(0, 0, 0)" stroke-linecap="butt" stroke-linejoin="round" stroke-opacity="1.0" stroke-width="3.0" />
            <path d=" M 548.803, 525.726 546.261, 524.618 555.383, 524.652 557.231, 524.659 562.702, 524.679 564.490, 524.685 564.942, 524.687 564.496, 524.478 563.562, 524.042 562.731, 523.653 559.204, 522.005 557.623, 521.265 557.631, 520.772 " fill="none" stroke="rgb(0, 0, 0)" stroke-linecap="butt" stroke-linejoin="round" stroke-opacity="1.0" stroke-width="3.0" />
            <path d=" M 379.367, 455.805 379.048, 465.800 378.729, 475.795 378.601, 479.811 378.440, 489.809 378.279, 499.808 378.213, 503.898 378.209, 513.898 378.205, 523.898 378.203, 527.938 378.357, 537.937 378.511, 547.935 378.570, 551.802 378.885, 561.797 379.200, 571.792 379.312, 575.366 379.790, 585.354 380.268, 595.343 380.420, 598.506 381.066, 608.485 381.713, 618.464 381.884, 621.107 382.706, 631.073 383.527, 641.039 383.694, 643.057 384.698, 653.007 385.702, 662.956 385.833, 664.254 387.030, 674.182 388.227, 684.110 388.287, 684.604 389.688, 694.506 391.035, 704.022 392.656, 713.890 394.059, 722.431 395.918, 732.257 397.338, 739.765 399.456, 749.539 400.849, 755.972 403.252, 765.679 404.570, 771.004 407.292, 780.626 408.479, 784.824 411.558, 794.338 412.551, 797.409 416.036, 806.783 416.765, 808.744 420.717, 817.930 421.098, 818.817 425.528, 827.629 430.035, 835.190 434.596, 841.513 439.195, 846.615 443.812, 850.524 448.430, 853.269 453.033, 854.882 457.606, 855.399 462.136, 854.860 466.610, 853.306 471.017, 850.777 475.346, 847.314 479.588, 842.965 483.735, 837.771 " fill="none" stroke="rgb(0, 0, 0)" stroke-linecap="butt" stroke-linejoin="round" stroke-opacity="1.0" stroke-width="3.0" />
            <path d=" M 483.735, 837.771 489.672, 829.724 491.335, 827.472 " fill="none" stroke="rgb(0, 0, 0)" stroke-linecap="butt" stroke-linejoin="round" stroke-opacity="1.0" stroke-width="3.0" />
            <path d=" M 539.338, 549.753 529.346, 550.149 527.903, 550.206 525.122, 545.266 524.891, 544.857 " fill="none" stroke="rgb(0, 0, 0)" stroke-linecap="butt" stroke-linejoin="round" stroke-opacity="1.0" stroke-width="3.0" />
            <path d=" M 541.000, 499.286 540.828, 509.285 540.656, 519.284 540.564, 524.598 540.142, 534.589 539.969, 538.674 539.400, 548.658 539.338, 549.753 534.585, 540.955 530.934, 534.196 530.678, 533.722 530.421, 533.246 530.164, 532.770 529.908, 532.294 529.613, 531.616 529.341, 530.725 529.098, 529.638 528.990, 528.985 528.889, 528.376 528.720, 526.963 528.593, 525.426 528.578, 525.116 " fill="none" stroke="rgb(0, 0, 0)" stroke-linecap="butt" stroke-linejoin="round" stroke-opacity="1.0" stroke-width="3.0" />
            <path d=" M 530.890, 523.656 530.764, 523.604 530.646, 523.419 530.540, 523.107 530.451, 522.682 530.382, 522.163 530.338, 521.574 530.320, 520.940 530.328, 520.288 530.363, 519.648 530.422, 519.047 530.504, 518.511 530.604, 518.066 530.719, 517.728 530.842, 517.515 530.969, 517.434 " fill="none" stroke="rgb(0, 0, 0)" stroke-linecap="butt" stroke-linejoin="round" stroke-opacity="1.0" stroke-width="3.0" />
            <path d=" M 530.969, 517.434 531.094, 517.490 531.212, 517.678 531.318, 517.992 531.406, 518.416 531.475, 518.933 531.519, 519.520 531.537, 520.152 531.529, 520.801 531.494, 521.439 531.435, 522.038 531.354, 522.573 531.254, 523.019 531.140, 523.357 531.017, 523.573 530.890, 523.656 " fill="none" stroke="rgb(0, 0, 0)" stroke-linecap="butt" stroke-linejoin="round" stroke-opacity="1.0" stroke-width="3.0" />
            <path d=" M 364.107, 407.891 363.857, 411.163 363.241, 421.144 362.624, 431.125 362.492, 433.268 362.036, 442.845 361.561, 452.834 361.428, 455.632 361.092, 465.627 360.755, 475.621 360.670, 478.167 360.472, 488.165 360.273, 498.163 360.222, 500.782 360.161, 510.782 360.101, 520.781 360.085, 523.387 360.112, 526.846 " fill="none" stroke="rgb(0, 0, 0)" stroke-linecap="butt" stroke-linejoin="round" stroke-opacity="1.0" stroke-width="3.0" />
            <path d=" M 534.722, 745.275 536.232, 737.503 538.013, 727.663 538.343, 725.842 540.004, 715.980 540.346, 713.951 541.892, 704.071 542.240, 701.848 543.678, 691.951 544.027, 689.548 545.359, 679.637 545.705, 677.066 546.937, 667.142 547.275, 664.419 548.410, 654.483 548.737, 651.619 549.778, 641.673 550.091, 638.681 551.040, 628.726 551.337, 625.618 552.197, 615.655 552.475, 612.442 553.248, 602.472 553.504, 599.167 554.193, 589.191 554.426, 585.805 555.031, 575.823 555.240, 572.367 555.762, 562.381 555.946, 558.865 556.387, 548.875 556.544, 545.311 556.904, 535.317 557.033, 531.715 557.200, 525.761 " fill="none" stroke="rgb(0, 0, 0)" stroke-linecap="butt" stroke-linejoin="round" stroke-opacity="1.0" stroke-width="3.0" />
            <path d=" M 458.138, 892.153 460.562, 892.313 464.692, 892.313 468.781, 891.497 472.822, 889.897 476.808, 887.540 480.732, 884.458 484.588, 880.681 488.370, 876.239 492.075, 871.163 495.696, 865.482 499.232, 859.225 502.677, 852.421 506.030, 845.098 509.287, 837.283 512.446, 829.004 515.505, 820.284 517.299, 814.746 " fill="none" stroke="rgb(0, 0, 0)" stroke-linecap="butt" stroke-linejoin="round" stroke-opacity="1.0" stroke-width="3.0" />
            <path d=" M 518.526, 163.708 516.521, 158.377 513.361, 150.771 510.090, 143.687 506.710, 137.156 503.223, 131.208 499.633, 125.874 495.943, 121.184 492.158, 117.171 488.283, 113.865 484.322, 111.299 480.282, 109.505 476.169, 108.513 471.991, 108.354 471.111, 108.500 467.755, 109.059 463.471, 110.654 459.149, 113.168 454.798, 116.624 450.430, 121.047 446.057, 126.455 441.692, 132.867 437.347, 140.295 433.038, 148.749 432.193, 150.630 428.778, 158.234 425.074, 167.523 424.704, 168.450 424.583, 168.752 421.227, 178.172 420.470, 180.298 417.425, 189.823 416.454, 192.862 413.689, 202.473 412.551, 206.429 410.042, 216.109 408.779, 220.978 406.502, 230.715 405.155, 236.479 403.092, 246.264 401.694, 252.901 399.831, 262.725 398.413, 270.201 396.736, 280.059 395.329, 288.334 393.827, 298.221 392.456, 307.246 391.120, 317.157 389.809, 326.878 388.631, 336.809 387.453, 346.739 387.403, 347.166 386.376, 357.113 385.350, 367.060 385.249, 368.038 384.368, 377.999 383.488, 387.960 383.359, 389.420 382.620, 399.392 381.881, 409.365 381.743, 411.231 381.143, 421.213 380.542, 431.195 380.410, 433.388 379.945, 443.377 379.480, 453.366 379.367, 455.805 379.036, 465.799 378.705, 475.794 378.618, 478.393 378.420, 488.391 378.222, 498.389 378.169, 501.061 378.103, 511.061 378.037, 521.060 378.020, 523.719 378.087, 533.719 378.154, 543.718 378.171, 546.276 378.372, 556.274 378.573, 566.272 378.621, 568.642 378.958, 578.637 379.295, 588.631 379.365, 590.731 379.841, 600.719 380.317, 610.708 380.400, 612.455 381.018, 622.436 381.636, 632.417 381.717, 633.735 382.482, 643.706 383.246, 653.677 383.309, 654.493 384.226, 664.451 385.142, 674.409 385.165, 674.655 386.241, 684.597 387.275, 694.153 388.517, 704.076 389.626, 712.926 391.045, 722.825 392.205, 730.917 393.811, 740.787 394.998, 748.076 396.805, 757.912 397.990, 764.359 400.014, 774.152 401.166, 779.728 403.425, 789.470 404.511, 794.153 407.027, 803.831 408.008, 807.606 410.807, 817.207 411.642, 820.071 414.756, 829.574 415.398, 831.532 418.864, 840.912 419.158, 841.709 419.159, 841.712 419.259, 841.983 423.121, 851.207 423.210, 851.419 427.237, 859.844 431.325, 867.263 435.460, 873.687 439.629, 879.129 443.819, 883.608 448.018, 887.142 452.216, 889.754 456.400, 891.469 459.775, 892.153 460.562, 892.313 " fill="none" stroke="rgb(0, 0, 0)" stroke-linecap="butt" stroke-linejoin="round" stroke-opacity="1.0" stroke-width="3.0" />
            <path d=" M 469.534, 108.441 465.272, 109.146 460.961, 110.742 456.611, 113.256 452.233, 116.713 447.838, 121.135 443.438, 126.542 439.045, 132.952 434.674, 140.379 430.338, 148.831 429.380, 150.952 426.053, 158.314 422.329, 167.594 421.833, 168.829 418.488, 178.159 417.695, 180.371 414.633, 189.891 413.655, 192.932 410.875, 202.537 409.730, 206.494 407.206, 216.170 405.937, 221.037 403.647, 230.772 402.291, 236.534 400.217, 246.316 398.811, 252.949 396.937, 262.772 395.512, 270.244 393.825, 280.100 392.410, 288.370 390.900, 298.255 389.522, 307.275 388.179, 317.184 386.862, 326.900 385.677, 336.829 384.493, 346.759 384.443, 347.180 383.411, 357.126 382.379, 367.073 382.278, 368.044 381.393, 378.004 380.508, 387.965 380.379, 389.417 379.637, 399.389 378.895, 409.362 378.756, 411.219 378.153, 421.201 377.550, 431.183 377.418, 433.368 376.951, 443.357 376.485, 453.346 376.371, 455.776 376.039, 465.771 375.707, 475.765 375.621, 478.355 375.423, 488.353 375.225, 498.351 375.172, 501.014 375.107, 511.014 375.042, 521.014 375.025, 523.663 375.093, 533.663 375.162, 543.663 375.180, 546.212 375.384, 556.210 375.587, 566.207 375.635, 568.570 375.976, 578.564 376.317, 588.558 376.388, 590.649 376.868, 600.638 377.348, 610.626 377.432, 612.366 378.055, 622.347 378.678, 632.327 378.760, 633.638 379.531, 643.608 380.302, 653.579 380.365, 654.388 381.289, 664.345 382.213, 674.302 382.235, 674.543 383.319, 684.484 384.361, 694.034 385.613, 703.956 386.729, 712.801 388.158, 722.698 389.326, 730.786 390.945, 740.654 392.139, 747.940 393.959, 757.773 395.152, 764.218 397.190, 774.008 398.350, 779.582 400.625, 789.320 401.718, 794.003 404.251, 803.677 405.239, 807.453 408.057, 817.048 408.898, 819.914 412.032, 829.411 412.679, 831.373 413.801, 834.389 414.019, 834.974 416.566, 841.821 420.451, 851.036 420.544, 851.256 424.597, 859.680 428.712, 867.098 432.874, 873.522 437.071, 878.964 441.288, 883.443 445.514, 886.978 449.739, 889.591 453.950, 891.308 458.138, 892.153 " fill="none" stroke="rgb(0, 0, 0)" stroke-linecap="butt" stroke-linejoin="round" stroke-opacity="1.0" stroke-width="3.0" />
            <path d=" M 471.991, 108.354 469.534, 108.441 " fill="none" stroke="rgb(0, 0, 0)" stroke-linecap="butt" stroke-linejoin="round" stroke-opacity="1.0" stroke-width="3.0" />
            <path d=" M 540.850, 763.471 542.546, 754.479 544.278, 744.630 544.745, 741.972 546.361, 732.104 546.830, 729.238 548.336, 719.352 548.802, 716.294 550.202, 706.393 550.660, 703.157 551.959, 693.242 552.405, 689.841 553.607, 679.914 554.037, 676.363 555.145, 666.424 555.556, 662.735 556.573, 652.787 556.963, 648.972 557.891, 639.015 558.258, 635.088 559.100, 625.123 559.440, 621.094 560.198, 611.122 560.511, 607.003 561.186, 597.025 561.470, 592.827 562.063, 582.844 562.317, 578.578 562.830, 568.591 563.053, 564.266 563.487, 554.276 563.677, 549.904 564.033, 539.910 564.189, 535.502 564.459, 525.791 " fill="none" stroke="rgb(0, 0, 0)" stroke-linecap="butt" stroke-linejoin="round" stroke-opacity="1.0" stroke-width="3.0" />
            <path d=" M 460.149, 926.117 462.538, 926.285 466.970, 925.866 471.351, 924.574 475.672, 922.444 479.927, 919.513 484.108, 915.814 488.210, 911.382 492.228, 906.253 496.156, 900.461 499.992, 894.038 503.730, 887.017 507.368, 879.431 510.903, 871.310 514.333, 862.684 517.655, 853.582 520.869, 844.032 523.841, 834.484 523.972, 834.060 524.790, 831.228 " fill="none" stroke="rgb(0, 0, 0)" stroke-linecap="butt" stroke-linejoin="round" stroke-opacity="1.0" stroke-width="3.0" />
            <path d=" M 541.700, 206.971 541.210, 204.688 539.485, 196.663 537.215, 186.924 536.918, 185.651 534.464, 175.957 534.224, 175.008 531.571, 165.367 531.404, 164.760 528.532, 155.182 528.457, 154.934 525.385, 145.557 522.187, 136.660 518.866, 128.272 515.422, 120.425 511.857, 113.151 508.175, 106.485 504.377, 100.459 500.467, 95.110 496.448, 90.472 492.327, 86.583 488.107, 83.478 483.794, 81.195 479.396, 79.770 474.920, 79.239 473.066, 79.401 470.373, 79.637 465.766, 80.998 461.109, 83.356 456.412, 86.740 451.687, 91.181 446.948, 96.703 442.207, 103.329 437.481, 111.078 432.784, 119.966 428.578, 129.038 428.132, 130.000 427.999, 130.325 424.204, 139.577 423.544, 141.187 423.072, 142.480 419.640, 151.873 419.037, 153.525 417.748, 157.464 414.628, 167.006 411.811, 176.601 410.338, 181.617 407.783, 191.285 406.184, 197.336 403.869, 207.064 402.187, 214.135 401.674, 216.529 399.580, 226.308 398.365, 231.978 396.475, 241.798 394.738, 250.821 393.038, 260.676 391.323, 270.614 389.802, 280.497 388.280, 290.381 388.140, 291.296 386.787, 301.205 385.435, 311.113 385.204, 312.803 384.012, 322.732 382.821, 332.661 382.533, 335.060 381.495, 345.006 380.457, 354.952 380.140, 357.987 379.251, 367.948 378.361, 377.908 378.041, 381.499 377.295, 391.471 376.549, 401.443 376.245, 405.504 375.640, 415.485 375.034, 425.467 374.765, 429.905 374.296, 439.894 373.828, 449.883 373.607, 454.603 373.274, 464.597 372.941, 474.592 372.778, 479.495 372.580, 489.493 372.382, 499.491 372.283, 504.476 372.219, 514.476 372.155, 524.476 372.123, 529.442 372.193, 539.442 372.264, 549.441 372.298, 554.287 372.504, 564.285 372.711, 574.283 372.806, 578.908 373.151, 588.902 373.495, 598.896 373.644, 603.204 374.129, 613.192 374.614, 623.180 374.803, 627.076 375.433, 637.057 376.063, 647.037 376.277, 650.432 377.056, 660.402 377.835, 670.371 378.055, 673.182 378.989, 683.138 379.924, 693.095 380.125, 695.244 381.222, 705.183 382.319, 715.123 382.475, 716.540 383.742, 726.460 385.010, 736.379 385.089, 737.003 386.538, 746.897 387.953, 756.568 389.594, 766.432 391.050, 775.180 392.898, 785.008 394.055, 791.158 394.362, 792.794 396.434, 802.577 397.872, 809.368 398.318, 811.239 400.634, 820.967 401.563, 824.869 404.146, 834.530 405.415, 839.274 406.382, 842.490 409.261, 852.066 409.411, 852.564 411.718, 859.373 413.532, 864.727 417.113, 874.064 417.762, 875.758 421.762, 884.923 422.083, 885.659 426.478, 894.434 430.931, 902.096 435.427, 908.660 439.951, 914.146 444.489, 918.575 449.029, 921.975 453.558, 924.372 458.064, 925.799 460.602, 926.075 462.538, 926.285 " fill="none" stroke="rgb(0, 0, 0)" stroke-linecap="butt" stroke-linejoin="round" stroke-opacity="1.0" stroke-width="3.0" />
            <path d=" M 366.121, 381.080 366.083, 381.500 365.323, 391.471 364.563, 401.443 364.256, 405.467 364.107, 407.891 363.490, 417.872 362.874, 427.853 362.752, 429.830 362.277, 439.819 362.143, 442.635 361.667, 452.624 361.579, 454.489 361.563, 454.951 361.227, 464.945 360.891, 474.940 360.743, 479.341 360.544, 489.339 360.346, 499.337 360.295, 501.903 360.248, 504.283 360.188, 514.283 360.127, 524.283 360.112, 526.846 360.098, 529.210 360.175, 539.210 360.253, 549.209 360.290, 554.017 360.366, 557.504 " fill="none" stroke="rgb(0, 0, 0)" stroke-linecap="butt" stroke-linejoin="round" stroke-opacity="1.0" stroke-width="3.0" />
            <path d=" M 472.495, 79.334 467.920, 79.733 463.284, 81.095 458.597, 83.453 453.871, 86.838 449.117, 91.278 444.348, 96.799 439.579, 103.424 434.823, 111.172 430.098, 120.057 425.871, 129.120 425.419, 130.089 421.604, 139.333 420.803, 141.273 420.161, 143.020 416.710, 152.406 416.269, 153.607 413.420, 162.266 412.391, 165.393 411.835, 167.085 409.001, 176.675 407.519, 181.691 404.950, 191.355 403.342, 197.405 401.014, 207.130 399.322, 214.198 397.216, 223.973 395.479, 232.035 393.578, 241.852 392.883, 245.437 391.831, 250.871 390.121, 260.724 388.398, 270.657 386.868, 280.539 385.338, 290.421 385.197, 291.332 383.838, 301.239 382.478, 311.146 382.246, 312.830 381.048, 322.758 379.850, 332.686 379.561, 335.078 378.518, 345.024 377.475, 354.969 377.157, 357.997 376.263, 367.957 375.369, 377.917 375.048, 381.499 374.298, 391.471 373.549, 401.443 373.245, 405.495 372.636, 415.476 372.028, 425.457 371.758, 429.886 371.288, 439.875 370.818, 449.864 370.596, 454.574 370.263, 464.569 369.929, 474.563 369.766, 479.456 369.567, 489.454 369.369, 499.452 369.270, 504.428 369.207, 514.428 369.144, 524.427 369.113, 529.384 369.185, 539.384 369.258, 549.383 369.293, 554.219 369.502, 564.217 369.711, 574.215 369.807, 578.831 370.155, 588.825 370.503, 598.819 370.653, 603.117 371.143, 613.105 371.632, 623.093 371.823, 626.981 372.458, 636.961 373.093, 646.941 373.309, 650.328 374.095, 660.297 374.880, 670.266 375.101, 673.070 376.043, 683.025 376.985, 692.981 377.187, 695.123 378.292, 705.062 379.397, 715.001 379.554, 716.413 380.831, 726.331 382.108, 736.249 382.188, 736.868 383.647, 746.761 385.072, 756.427 386.725, 766.289 386.875, 767.184 388.190, 775.034 390.051, 784.859 391.526, 792.642 393.140, 800.211 395.060, 809.211 395.676, 811.779 398.007, 821.503 398.776, 824.708 401.376, 834.364 402.654, 839.110 403.461, 841.776 406.359, 851.347 406.676, 852.396 409.906, 861.860 410.826, 864.557 414.427, 873.886 415.083, 875.586 419.106, 884.741 419.432, 885.485 423.856, 894.260 428.338, 901.921 432.863, 908.485 437.417, 913.971 441.984, 918.401 446.553, 921.801 451.111, 924.200 455.647, 925.628 460.149, 926.117 " fill="none" stroke="rgb(0, 0, 0)" stroke-linecap="butt" stroke-linejoin="round" stroke-opacity="1.0" stroke-width="3.0" />
            <path d=" M 474.920, 79.239 472.495, 79.334 " fill="none" stroke="rgb(0, 0, 0)" stroke-linecap="butt" stroke-linejoin="round" stroke-opacity="1.0" stroke-width="3.0" />
            <path d=" M 547.567, 217.782 546.349, 211.021 544.432, 201.206 543.975, 198.869 541.904, 189.086 541.471, 187.038 539.234, 177.291 538.834, 175.551 536.418, 165.847 536.066, 164.434 533.454, 154.781 533.165, 153.714 530.339, 144.121 530.132, 143.418 527.070, 133.898 526.966, 133.576 523.670, 124.219 520.242, 115.378 516.686, 107.086 513.002, 99.377 509.192, 92.287 505.259, 85.852 501.207, 80.110 497.038, 75.097 492.758, 70.855 488.371, 67.421 483.884, 64.835 479.303, 63.137 474.636, 62.366 469.890, 62.561 465.008, 62.763 460.134, 63.963 455.202, 66.203 450.222, 69.516 445.209, 73.936 440.174, 79.490 435.134, 86.207 430.104, 94.107 425.286, 102.870 425.100, 103.209 420.767, 112.221 420.140, 113.524 416.233, 122.730 415.243, 125.062 411.713, 134.418 410.428, 137.821 407.233, 147.297 405.715, 151.797 402.821, 161.369 401.125, 166.977 398.502, 176.627 396.677, 183.340 394.302, 193.054 392.394, 200.857 390.247, 210.624 389.363, 214.643 388.297, 219.492 386.359, 229.303 384.405, 239.200 382.664, 249.047 380.923, 258.894 380.741, 259.926 379.184, 269.804 377.627, 279.682 377.323, 281.608 375.940, 291.512 374.556, 301.416 374.171, 304.177 372.953, 314.102 371.735, 324.028 371.302, 327.553 370.242, 337.497 369.182, 347.440 368.734, 351.651 367.826, 361.610 366.906, 371.701 366.480, 376.379 366.121, 381.080 365.361, 391.052 364.601, 401.023 364.554, 401.638 364.432, 403.623 363.816, 413.604 363.199, 423.585 362.968, 427.325 362.493, 437.313 362.250, 442.423 361.775, 452.411 361.731, 453.330 361.700, 454.262 361.364, 464.256 361.028, 474.250 360.849, 479.544 360.651, 489.542 360.453, 499.540 360.328, 505.853 360.270, 515.525 360.209, 525.524 360.169, 532.144 360.247, 542.144 360.285, 547.042 360.363, 557.042 360.366, 557.504 360.372, 558.302 360.590, 568.300 360.604, 568.963 360.821, 578.961 360.935, 584.217 361.294, 594.210 361.653, 604.204 361.853, 609.777 362.357, 619.765 362.860, 629.752 363.119, 634.879 363.771, 644.858 364.423, 654.836 364.723, 659.421 365.528, 669.388 366.334, 679.355 366.653, 683.307 367.619, 693.260 368.584, 703.214 368.898, 706.450 370.031, 716.385 370.323, 718.951 371.442, 728.767 372.751, 738.681 374.060, 748.595 374.270, 750.185 375.765, 760.073 377.260, 769.960 377.363, 770.638 379.057, 780.493 380.703, 790.067 382.612, 799.883 384.272, 808.424 386.413, 818.192 388.050, 825.667 390.443, 835.377 392.018, 841.765 394.688, 851.401 396.154, 856.691 399.133, 866.237 400.440, 870.428 403.762, 879.861 404.856, 882.968 408.564, 892.255 409.382, 894.306 413.527, 903.407 414.000, 904.446 418.643, 913.303 418.693, 913.397 423.441, 921.173 428.230, 927.793 433.043, 933.279 437.866, 937.658 442.684, 940.960 447.486, 943.215 452.259, 944.458 457.066, 944.809 461.740, 945.071 466.365, 944.393 470.932, 942.811 475.433, 940.364 479.859, 937.089 484.206, 933.025 488.466, 928.209 492.634, 922.678 496.706, 916.469 500.678, 909.616 504.547, 902.156 508.308, 894.121 511.960, 885.543 515.501, 876.455 518.873, 867.041 518.929, 866.886 522.068, 857.391 522.242, 856.865 525.169, 847.303 525.439, 846.420 527.947, 837.593 " fill="none" stroke="rgb(0, 0, 0)" stroke-linecap="butt" stroke-linejoin="round" stroke-opacity="1.0" stroke-width="3.0" />
            <path d=" M 543.333, 769.951 544.532, 763.520 546.245, 753.668 546.788, 750.544 548.387, 740.672 548.927, 737.342 550.417, 727.454 550.948, 723.934 552.335, 714.030 552.852, 710.334 554.139, 700.417 554.640, 696.558 555.831, 686.629 556.312, 682.621 557.410, 672.682 557.868, 668.538 558.876, 658.589 559.309, 654.322 560.230, 644.364 560.635, 639.986 561.470, 630.020 561.845, 625.542 562.597, 615.570 562.942, 611.004 563.612, 601.026 563.924, 596.382 564.513, 586.399 564.792, 581.688 565.302, 571.701 565.546, 566.933 565.978, 556.942 566.186, 552.128 566.540, 542.135 566.712, 537.284 566.989, 527.288 567.030, 525.802 " fill="none" stroke="rgb(0, 0, 0)" stroke-linecap="butt" stroke-linejoin="round" stroke-opacity="1.0" stroke-width="3.0" />
            <path d=" M 469.890, 62.561 465.077, 63.759 460.205, 65.998 455.287, 69.311 450.334, 73.730 445.361, 79.286 440.381, 86.005 435.411, 93.908 430.639, 102.696 430.466, 103.014 426.176, 112.047 425.565, 113.335 424.616, 115.599 420.725, 124.878 417.232, 134.248 415.966, 137.645 412.805, 147.132 411.307, 151.629 410.032, 155.896 407.169, 165.478 406.769, 166.819 404.175, 176.476 403.880, 177.575 402.371, 183.192 400.579, 190.609 398.231, 200.330 398.136, 200.721 396.012, 210.493 394.084, 219.369 392.168, 229.184 390.235, 239.091 389.755, 241.835 388.033, 251.686 386.609, 259.832 385.069, 269.712 383.529, 279.593 383.228, 281.530 381.859, 291.436 380.491, 301.342 380.230, 303.231 380.108, 304.116 378.903, 314.043 377.698, 323.970 377.268, 327.510 376.219, 337.455 375.170, 347.400 374.724, 351.627 373.826, 361.587 372.927, 371.546 372.491, 376.375 371.738, 386.346 370.986, 396.318 370.583, 401.654 369.972, 411.635 369.361, 421.616 369.009, 427.360 368.538, 437.349 368.066, 447.338 367.780, 453.387 367.446, 463.381 367.111, 473.375 366.902, 479.621 366.704, 489.619 366.506, 499.617 366.380, 505.951 366.318, 515.951 366.256, 525.951 366.216, 532.263 366.291, 542.263 366.365, 552.262 366.410, 558.442 366.622, 568.440 366.834, 578.437 366.960, 584.376 367.311, 594.370 367.663, 604.364 367.860, 609.957 368.354, 619.944 368.849, 629.932 369.103, 635.077 369.745, 645.057 370.386, 655.036 370.681, 659.637 371.474, 669.606 372.267, 679.574 372.583, 683.541 373.533, 693.496 374.484, 703.451 374.794, 706.700 375.900, 716.548 376.222, 719.419 377.301, 729.033 378.591, 738.950 379.881, 748.866 380.089, 750.465 381.563, 760.356 383.037, 770.247 383.139, 770.931 383.753, 774.558 384.895, 781.296 386.433, 790.373 388.316, 800.194 389.954, 808.741 392.066, 818.515 393.682, 825.994 393.969, 827.177 396.331, 836.894 397.596, 842.100 400.233, 851.746 401.678, 857.033 404.620, 866.590 405.908, 870.777 408.577, 878.460 410.266, 883.321 413.931, 892.626 414.734, 894.664 418.833, 903.785 419.292, 904.807 423.924, 913.759 428.612, 921.536 433.340, 928.156 438.092, 933.641 442.854, 938.018 447.612, 941.317 452.353, 943.569 457.066, 944.809 " fill="none" stroke="rgb(0, 0, 0)" stroke-linecap="butt" stroke-linejoin="round" stroke-opacity="1.0" stroke-width="3.0" />
            <path d=" M 565.325, 520.159 565.395, 518.541 565.429, 518.031 565.499, 516.969 565.569, 516.208 565.637, 515.470 565.805, 514.069 566.002, 512.790 566.222, 511.655 566.463, 510.684 566.721, 509.891 566.990, 509.291 567.267, 508.893 567.396, 508.805 567.546, 508.702 " fill="none" stroke="rgb(0, 0, 0)" stroke-linecap="butt" stroke-linejoin="round" stroke-opacity="1.0" stroke-width="3.0" />
            <path d=" M 554.859, 519.974 555.514, 519.986 557.361, 520.018 557.616, 520.023 562.822, 520.115 564.609, 520.146 565.071, 520.154 565.325, 520.159 566.928, 520.936 " fill="none" stroke="rgb(0, 0, 0)" stroke-linecap="butt" stroke-linejoin="round" stroke-opacity="1.0" stroke-width="3.0" />
            <path d=" M 557.623, 521.265 562.795, 521.357 564.581, 521.389 565.035, 521.397 567.143, 521.434 567.986, 521.449 567.995, 520.934 567.989, 520.426 567.969, 519.938 567.935, 519.485 567.888, 519.078 567.829, 518.728 567.760, 518.445 567.683, 518.237 567.600, 518.110 567.513, 518.067 " fill="none" stroke="rgb(0, 0, 0)" stroke-linecap="butt" stroke-linejoin="round" stroke-opacity="1.0" stroke-width="3.0" />
            <path d=" M 537.859, 490.398 537.930, 488.219 " fill="none" stroke="rgb(0, 0, 0)" stroke-linecap="butt" stroke-linejoin="round" stroke-opacity="1.0" stroke-width="3.0" />
            <path d=" M 537.276, 490.389 537.859, 490.398 538.061, 490.507 " fill="none" stroke="rgb(0, 0, 0)" stroke-linecap="butt" stroke-linejoin="round" stroke-opacity="1.0" stroke-width="3.0" />
            <path d=" M 537.239, 490.511 538.061, 490.507 538.082, 487.717 " fill="none" stroke="rgb(0, 0, 0)" stroke-linecap="butt" stroke-linejoin="round" stroke-opacity="1.0" stroke-width="3.0" />
            <path d=" M 622.038, 912.112 624.211, 912.632 632.087, 914.257 639.969, 915.134 647.840, 915.280 655.682, 914.714 663.480, 913.454 671.218, 911.521 678.883, 908.936 686.460, 905.719 693.938, 901.893 701.305, 897.479 708.549, 892.500 715.662, 886.977 722.633, 880.933 729.454, 874.391 736.117, 867.372 742.614, 859.897 748.860, 852.087 748.939, 851.988 754.881, 843.945 755.086, 843.667 760.734, 835.414 761.049, 834.954 766.413, 826.514 766.823, 825.869 771.913, 817.261 772.403, 816.432 777.228, 807.674 777.785, 806.664 782.354, 797.769 782.964, 796.582 787.287, 787.564 787.938, 786.206 792.021, 777.077 792.703, 775.553 796.555, 766.324 797.256, 764.642 800.882, 755.323 801.595, 753.490 805.001, 744.088 805.717, 742.114 808.909, 732.638 809.619, 730.531 812.603, 720.987 813.300, 718.756 816.079, 709.150 816.757, 706.806 819.336, 697.144 819.990, 694.696 822.372, 684.984 822.996, 682.441 825.185, 672.684 825.774, 670.057 827.771, 660.258 828.322, 657.557 830.131, 647.722 830.640, 644.957 832.261, 635.089 832.725, 632.270 834.161, 622.374 834.577, 619.511 835.829, 609.590 836.194, 606.694 837.262, 596.751 837.576, 593.832 838.461, 583.871 838.721, 580.939 839.422, 570.964 839.629, 568.030 840.146, 558.043 840.297, 555.117 840.630, 545.122 840.726, 542.214 840.873, 532.215 840.915, 529.336 840.873, 519.336 840.862, 516.497 840.630, 506.499 840.566, 503.709 840.143, 493.718 840.027, 490.988 839.408, 481.007 839.244, 478.347 838.427, 468.381 838.215, 465.802 837.196, 455.854 836.941, 453.367 835.715, 443.443 835.421, 441.058 833.983, 431.162 833.653, 428.889 831.999, 419.026 831.638, 416.876 829.761, 407.054 829.375, 405.036 827.268, 395.260 826.864, 393.384 824.520, 383.663 824.104, 381.938 821.515, 372.279 821.096, 370.716 818.253, 361.128 817.840, 359.733 814.734, 350.228 814.336, 349.010 810.956, 339.599 810.585, 338.564 806.920, 329.260 806.587, 328.415 802.626, 319.233 802.345, 318.582 798.074, 309.540 797.859, 309.085 793.265, 300.202 793.131, 299.944 788.164, 291.181 782.961, 282.817 777.524, 274.873 771.857, 267.372 765.965, 260.336 759.853, 253.789 753.526, 247.752 746.990, 242.249 740.253, 237.303 733.322, 232.937 726.206, 229.175 718.914, 226.038 711.458, 223.550 703.848, 221.732 696.096, 220.606 688.217, 220.191 680.225, 220.508 678.008, 220.666 " fill="none" stroke="rgb(0, 0, 0)" stroke-linecap="butt" stroke-linejoin="round" stroke-opacity="1.0" stroke-width="3.0" />
            <path d=" M 624.211, 912.632 623.477, 912.409 616.361, 910.245 608.554, 907.080 600.812, 903.127 593.157, 898.375 585.608, 892.815 578.190, 886.444 571.081, 879.412 570.925, 879.258 564.293, 871.773 563.837, 871.258 557.678, 863.379 556.948, 862.446 551.252, 854.227 550.284, 852.830 545.038, 844.317 543.869, 842.419 543.673, 842.063 538.862, 833.297 537.726, 831.228 534.952, 825.555 532.450, 820.438 531.879, 819.273 529.572, 813.971 528.315, 811.083 526.353, 806.575 522.748, 797.247 522.625, 796.928 521.426, 793.827 521.169, 793.161 517.935, 783.698 516.350, 779.057 515.026, 774.650 513.278, 768.831 511.917, 764.299 509.384, 754.625 507.891, 748.922 505.689, 739.167 504.290, 732.966 502.409, 723.144 501.131, 716.476 500.749, 714.075 499.179, 704.199 498.431, 699.499 497.162, 689.580 496.204, 682.087 495.229, 672.134 494.461, 664.292 493.773, 654.316 493.212, 646.171 492.806, 636.179 492.465, 627.783 492.337, 617.784 492.226, 609.188 492.371, 599.190 492.498, 590.449 492.913, 580.458 493.280, 571.629 493.964, 561.652 494.572, 552.791 495.524, 542.836 496.369, 533.999 497.242, 526.898 497.412, 525.513 498.562, 516.153 498.665, 515.318 498.759, 514.690 500.248, 504.802 501.450, 496.810 503.208, 486.966 504.713, 478.538 506.744, 468.746 508.441, 460.561 510.748, 450.830 512.618, 442.937 515.205, 433.278 517.227, 425.724 520.099, 416.145 522.248, 408.973 524.919, 400.964 526.468, 396.317 527.662, 392.736 531.122, 383.354 533.444, 377.058 533.647, 376.559 537.414, 367.295 539.110, 363.124 539.573, 361.983 540.281, 360.400 544.362, 351.270 546.024, 347.551 550.089, 339.266 551.698, 335.989 552.772, 333.798 556.792, 326.329 558.384, 323.370 559.791, 320.755 560.861, 318.943 565.658, 310.817 566.190, 309.916 567.055, 308.451 572.494, 300.060 574.537, 296.909 580.344, 288.768 582.211, 286.150 588.396, 278.292 590.051, 276.189 593.675, 272.033 593.677, 272.031 593.753, 271.943 598.031, 267.039 604.999, 259.867 606.124, 258.709 613.494, 251.949 614.307, 251.203 622.079, 244.911 622.554, 244.525 630.723, 238.758 630.843, 238.673 639.149, 233.643 647.452, 229.429 655.731, 226.020 663.965, 223.406 672.135, 221.574 679.466, 220.608 680.225, 220.508 " fill="none" stroke="rgb(0, 0, 0)" stroke-linecap="butt" stroke-linejoin="round" stroke-opacity="1.0" stroke-width="3.0" />
            <path d=" M 678.008, 220.666 669.907, 221.732 661.725, 223.564 653.481, 226.176 645.192, 229.583 636.879, 233.795 628.563, 238.821 620.388, 244.581 620.265, 244.668 612.487, 250.953 612.008, 251.340 604.632, 258.092 603.817, 258.838 596.841, 266.004 595.714, 267.161 592.429, 270.921 592.321, 271.043 592.321, 271.044 587.727, 276.302 581.534, 284.154 579.879, 286.253 574.065, 294.389 572.198, 297.001 566.750, 305.388 565.706, 306.997 565.161, 307.835 564.709, 308.531 560.550, 315.562 558.045, 319.797 557.439, 320.823 556.463, 322.633 551.717, 331.435 551.344, 332.126 550.414, 333.852 549.720, 335.263 545.309, 344.237 543.661, 347.590 539.574, 356.716 538.713, 358.639 537.205, 362.006 533.433, 371.267 531.072, 377.064 527.606, 386.444 525.285, 392.724 523.933, 396.774 523.076, 399.341 519.908, 408.826 519.869, 408.943 516.993, 418.521 514.845, 425.675 513.463, 430.829 510.873, 440.488 510.234, 442.869 507.925, 452.598 507.454, 454.579 506.056, 460.472 504.022, 470.263 502.327, 478.428 500.566, 488.272 499.063, 496.680 497.573, 506.568 496.494, 513.734 496.278, 515.166 496.162, 516.112 495.115, 524.626 493.983, 533.826 493.031, 543.780 492.187, 552.596 491.503, 562.572 490.897, 571.412 490.482, 581.404 490.116, 590.211 489.973, 600.210 489.955, 601.421 489.848, 608.929 489.978, 618.929 490.090, 627.503 490.498, 637.495 490.840, 645.871 491.531, 655.847 492.093, 663.972 493.072, 673.924 493.841, 681.747 495.114, 691.666 496.074, 699.141 497.649, 709.017 498.779, 716.100 499.459, 719.641 501.346, 729.461 501.944, 732.573 504.151, 742.327 505.551, 748.513 508.090, 758.185 509.584, 763.875 512.199, 772.558 513.891, 778.178 514.024, 778.620 517.265, 788.080 518.683, 792.220 518.851, 792.710 520.527, 797.038 521.730, 800.144 524.042, 806.112 527.531, 814.108 528.772, 816.953 529.577, 818.799 531.758, 823.248 532.471, 824.702 535.432, 830.744 540.252, 839.506 541.584, 841.927 546.839, 850.435 548.009, 852.330 553.713, 860.544 554.682, 861.940 560.849, 869.812 561.580, 870.746 568.219, 878.224 568.678, 878.742 575.794, 885.767 575.953, 885.924 583.382, 892.293 590.940, 897.851 598.607, 902.603 606.359, 906.557 614.176, 909.722 622.038, 912.112 " fill="none" stroke="rgb(0, 0, 0)" stroke-linecap="butt" stroke-linejoin="round" stroke-opacity="1.0" stroke-width="3.0" />
            <path d=" M 700.753, 314.984 692.590, 314.670 684.303, 315.163 682.485, 315.447 678.920, 316.002 675.917, 316.471 667.454, 318.588 663.974, 319.789 658.939, 321.527 650.400, 325.314 641.868, 329.967 633.486, 335.420 633.375, 335.492 625.409, 341.537 624.950, 341.885 617.408, 348.451 616.625, 349.133 609.502, 356.151 608.427, 357.210 601.716, 364.623 600.384, 366.095 594.088, 373.864 592.533, 375.782 586.653, 383.870 584.914, 386.262 579.444, 394.634 577.562, 397.513 575.991, 400.185 575.691, 400.696 572.759, 405.682 570.513, 409.502 566.733, 416.640 564.278, 421.276 563.796, 422.186 563.375, 423.068 562.571, 424.752 559.172, 431.875 557.469, 435.444 557.436, 435.513 557.393, 435.612 555.626, 439.724 551.676, 448.911 551.453, 449.430 548.520, 457.042 546.734, 461.677 545.880, 463.893 543.717, 470.209 540.754, 478.858 538.082, 487.717 537.930, 488.219 537.276, 490.389 537.239, 490.511 536.105, 494.270 534.864, 499.001 532.943, 506.322 532.750, 507.057 531.960, 510.069 530.307, 517.422 529.218, 522.268 528.914, 523.620 528.578, 525.116 528.337, 526.187 526.482, 536.013 525.262, 542.471 525.246, 542.554 524.891, 544.857 523.365, 554.740 522.691, 559.100 521.492, 569.028 520.679, 575.757 519.814, 585.719 519.229, 592.457 518.706, 602.444 518.356, 609.132 518.182, 619.130 518.068, 625.708 518.138, 629.655 518.317, 639.653 518.361, 642.117 518.895, 652.102 519.226, 658.289 520.117, 668.249 520.646, 674.165 520.914, 676.289 522.164, 686.211 522.610, 689.745 524.212, 699.616 525.068, 704.890 526.170, 710.379 526.483, 711.944 527.848, 718.747 528.007, 719.540 528.366, 721.029 528.966, 723.518 531.311, 733.239 531.408, 733.642 533.547, 741.149 534.722, 745.275 535.253, 747.143 535.876, 749.020 537.115, 752.752 539.519, 759.998 539.562, 760.110 540.793, 763.323 540.850, 763.471 543.333, 769.951 544.183, 772.167 548.211, 781.320 549.220, 783.611 553.719, 792.541 554.604, 794.298 559.596, 802.963 560.309, 804.201 565.813, 812.550 566.307, 813.299 572.343, 821.272 572.570, 821.571 579.069, 829.005 585.777, 835.593 592.664, 841.329 599.705, 846.210 606.871, 850.242 609.450, 851.374 614.134, 853.429 621.471, 855.780 628.855, 857.306 636.263, 858.024 643.671, 857.950 651.057, 857.101 658.401, 855.499 665.682, 853.166 672.882, 850.125 679.982, 846.400 686.968, 842.016 693.823, 837.001 700.532, 831.379 707.083, 825.176 713.463, 818.423 719.660, 811.143 725.664, 803.365 731.465, 795.115 736.872, 786.703 737.054, 786.421 742.130, 777.805 742.423, 777.308 747.180, 768.512 747.564, 767.802 752.015, 758.847 752.470, 757.931 756.626, 748.835 757.136, 747.719 761.006, 738.498 761.555, 737.191 765.148, 727.859 765.721, 726.372 769.048, 716.942 769.631, 715.287 772.698, 705.769 773.280, 703.960 776.093, 694.364 776.664, 692.414 779.229, 682.749 779.779, 680.673 782.101, 670.946 782.623, 668.759 784.705, 658.979 785.191, 656.696 787.038, 646.868 787.482, 644.506 789.096, 634.637 789.493, 632.211 790.876, 622.307 791.221, 619.833 792.375, 609.900 792.666, 607.395 793.590, 597.437 793.824, 594.917 794.519, 584.941 794.695, 582.422 795.160, 572.433 795.277, 569.932 795.510, 559.934 795.568, 557.468 795.568, 547.468 795.568, 545.052 795.447, 539.904 " fill="none" stroke="rgb(0, 0, 0)" stroke-linecap="butt" stroke-linejoin="round" stroke-opacity="1.0" stroke-width="3.0" />
            <path d=" M 790.884, 547.613 790.737, 547.613 781.056, 547.625 775.569, 547.631 767.008, 547.641 766.297, 547.642 765.584, 547.643 764.871, 547.644 764.158, 547.646 754.182, 546.949 752.658, 546.842 751.809, 546.715 750.988, 546.331 750.210, 545.698 749.492, 544.827 748.849, 543.735 748.292, 542.443 747.831, 540.973 747.476, 539.355 747.235, 537.619 747.111, 535.799 747.108, 533.929 747.225, 532.047 747.460, 530.188 747.809, 528.389 748.264, 526.684 748.818, 525.107 749.458, 523.687 750.173, 522.451 750.947, 521.424 751.618, 520.654 752.290, 519.886 752.960, 519.118 753.599, 518.387 753.629, 518.352 753.966, 517.968 756.043, 515.594 757.663, 513.744 764.249, 506.219 770.836, 498.695 776.750, 491.937 786.697, 492.971 787.568, 493.061 " fill="none" stroke="rgb(0, 0, 0)" stroke-linecap="butt" stroke-linejoin="round" stroke-opacity="1.0" stroke-width="3.0" />
            <path d=" M 823.371, 508.542 822.639, 500.979 822.421, 498.727 821.170, 488.805 820.912, 486.767 819.364, 476.887 819.067, 474.994 817.212, 465.168 816.885, 463.434 814.715, 453.673 814.368, 452.111 811.878, 442.426 811.523, 441.043 808.708, 431.448 808.357, 430.249 805.203, 420.759 804.869, 419.755 801.355, 410.392 801.056, 409.596 797.162, 400.385 796.917, 399.805 792.626, 390.773 792.455, 390.413 787.752, 381.588 787.675, 381.444 782.587, 372.922 777.201, 364.860 771.525, 357.281 765.564, 350.223 759.321, 343.725 752.806, 337.820 746.031, 332.536 739.010, 327.895 731.757, 323.909 724.291, 320.590 721.734, 319.717 716.624, 317.971 708.772, 316.092 700.753, 314.984 " fill="none" stroke="rgb(0, 0, 0)" stroke-linecap="butt" stroke-linejoin="round" stroke-opacity="1.0" stroke-width="3.0" />
            <path d=" M 663.974, 319.789 666.145, 320.956 672.160, 324.930 677.995, 329.540 683.636, 334.772 689.072, 340.605 694.295, 347.012 699.297, 353.959 704.074, 361.409 708.623, 369.322 712.937, 377.680 717.008, 386.466 720.828, 395.660 724.317, 405.032 724.393, 405.238 727.553, 414.726 727.701, 415.171 730.553, 424.755 730.752, 425.426 733.316, 435.092 733.549, 435.971 735.838, 445.705 736.091, 446.779 738.113, 456.573 738.373, 457.836 740.133, 467.680 740.390, 469.121 741.895, 479.008 742.140, 480.615 743.398, 490.535 743.621, 492.292 744.234, 498.269 744.204, 499.507 744.114, 500.746 743.966, 501.971 743.761, 503.171 743.501, 504.333 743.190, 505.445 742.829, 506.494 742.423, 507.471 741.977, 508.365 741.494, 509.167 741.205, 509.560 740.980, 509.867 740.440, 510.460 739.879, 510.939 739.304, 511.299 730.462, 515.970 726.471, 518.079 " fill="none" stroke="rgb(0, 0, 0)" stroke-linecap="butt" stroke-linejoin="round" stroke-opacity="1.0" stroke-width="3.0" />
            <path d=" M 800.363, 535.324 800.810, 535.352 801.890, 535.421 803.231, 535.507 811.863, 530.459 813.831, 529.307 815.747, 528.187 823.448, 523.683 824.442, 523.102 825.364, 522.643 830.552, 520.063 829.876, 510.086 829.683, 507.229 828.730, 497.275 828.467, 494.534 827.230, 484.611 826.905, 482.002 825.377, 472.120 824.996, 469.657 823.167, 459.826 822.739, 457.526 820.601, 447.757 820.136, 445.632 817.679, 435.938 817.188, 434.001 816.478, 431.560 813.894, 422.661 810.761, 413.165 810.581, 412.620 810.257, 411.638 806.768, 402.267 806.280, 400.958 802.420, 391.734 801.966, 390.650 797.718, 381.597 797.317, 380.742 792.667, 371.889 792.338, 371.262 788.548, 364.814 787.034, 362.238 783.477, 356.837 781.411, 353.700 775.475, 345.678 769.234, 338.201 762.697, 331.297 755.874, 324.997 748.775, 319.332 741.413, 314.328 733.802, 310.014 725.956, 306.421 717.891, 303.573 709.627, 301.497 701.182, 300.216 692.577, 299.757 682.587, 299.300 672.598, 298.843 669.078, 298.682 " fill="none" stroke="rgb(0, 0, 0)" stroke-linecap="butt" stroke-linejoin="round" stroke-opacity="1.0" stroke-width="3.0" />
            <path d=" M 692.577, 299.757 683.835, 300.138 683.160, 300.232 674.979, 301.377 666.840, 303.303 666.036, 303.494 657.034, 306.501 648.000, 310.409 644.854, 312.086 644.038, 312.521 638.965, 315.225 630.528, 320.594 629.960, 320.955 621.933, 326.918 621.019, 327.597 613.413, 334.089 612.174, 335.146 604.995, 342.107 603.462, 343.595 596.709, 350.971 594.916, 352.930 588.586, 360.671 586.574, 363.132 580.658, 371.195 578.469, 374.178 574.514, 380.171 574.164, 380.701 570.641, 386.039 565.870, 394.064 563.409, 398.202 563.123, 398.683 561.734, 401.277 557.011, 410.092 556.590, 410.877 555.951, 412.070 554.853, 414.348 550.509, 423.356 549.159, 426.155 545.187, 435.332 543.255, 439.796 542.781, 440.892 539.173, 450.218 536.848, 456.225 533.595, 465.682 531.388, 472.098 528.487, 481.668 526.431, 488.447 523.876, 498.115 522.025, 505.117 522.001, 505.209 519.788, 514.961 519.273, 517.231 519.144, 517.801 518.120, 522.312 517.495, 525.596 516.807, 529.204 514.934, 539.027 514.808, 539.687 513.275, 549.569 512.081, 557.259 510.888, 567.188 509.954, 574.954 509.100, 584.917 508.434, 592.694 507.922, 602.681 507.527, 610.404 507.363, 620.402 507.238, 628.007 507.425, 638.005 507.565, 645.429 508.110, 655.414 508.502, 662.596 509.271, 670.994 510.043, 679.437 " fill="none" stroke="rgb(0, 0, 0)" stroke-linecap="butt" stroke-linejoin="round" stroke-opacity="1.0" stroke-width="3.0" />
            <path d=" M 756.043, 515.594 755.181, 505.632 755.127, 505.005 754.959, 502.302 754.932, 502.533 754.727, 503.739 754.469, 504.906 754.158, 506.023 753.800, 507.078 753.396, 508.060 752.952, 508.958 752.473, 509.763 751.962, 510.468 751.426, 511.064 750.869, 511.545 750.299, 511.907 741.484, 516.630 733.350, 520.988 732.709, 520.031 731.995, 519.268 731.220, 518.713 730.397, 518.374 729.540, 518.258 726.471, 518.079 718.378, 517.605 717.495, 517.714 716.607, 518.046 715.729, 518.596 714.876, 519.356 714.097, 520.315 713.407, 521.458 712.785, 522.763 712.242, 524.209 711.787, 525.770 711.429, 527.421 711.173, 529.132 711.024, 530.874 710.984, 532.618 711.055, 534.333 721.033, 534.992 722.253, 535.072 727.044, 532.522 727.028, 531.975 727.055, 531.419 727.125, 530.871 727.173, 530.642 727.237, 530.344 727.386, 529.855 727.569, 529.415 727.782, 529.037 728.017, 528.731 728.269, 528.506 728.531, 528.368 728.795, 528.320 " fill="none" stroke="rgb(0, 0, 0)" stroke-linecap="butt" stroke-linejoin="round" stroke-opacity="1.0" stroke-width="3.0" />
            <path d=" M 798.464, 522.295 800.271, 521.238 800.701, 520.986 801.396, 520.580 805.931, 517.928 807.181, 517.197 807.689, 516.854 808.187, 516.406 808.669, 515.859 809.133, 515.219 809.573, 514.492 809.988, 513.684 810.373, 512.802 810.727, 511.854 811.046, 510.847 811.328, 509.789 811.571, 508.687 811.773, 507.551 811.931, 506.389 812.045, 505.211 821.639, 508.032 822.977, 508.426 823.371, 508.542 823.248, 509.302 823.057, 510.178 823.007, 510.409 822.726, 511.472 822.409, 512.485 822.058, 513.438 821.676, 514.324 821.264, 515.136 820.827, 515.867 820.368, 516.511 819.890, 517.060 819.397, 517.510 818.893, 517.856 813.269, 521.199 811.942, 521.988 806.304, 525.339 805.704, 524.356 805.033, 523.573 804.302, 523.004 803.523, 522.658 802.709, 522.543 801.484, 522.471 800.325, 522.404 798.464, 522.295 794.771, 522.078 790.835, 521.848 790.220, 521.933 790.093, 521.950 789.993, 521.964 789.144, 522.311 788.302, 522.882 787.483, 523.669 786.735, 524.662 786.074, 525.844 785.477, 527.193 784.954, 528.687 784.514, 530.299 784.164, 532.003 783.911, 533.769 783.759, 535.567 783.711, 537.365 783.766, 539.133 790.731, 539.593 790.738, 539.593 795.447, 539.904 795.686, 539.920 800.229, 537.263 800.217, 536.698 800.246, 536.125 800.316, 535.559 800.363, 535.324 800.424, 535.016 800.569, 534.510 800.745, 534.056 800.779, 533.990 800.948, 533.665 801.172, 533.349 801.411, 533.115 801.660, 532.971 801.834, 532.936 801.909, 532.920 " fill="none" stroke="rgb(0, 0, 0)" stroke-linecap="butt" stroke-linejoin="round" stroke-opacity="1.0" stroke-width="3.0" />
            <path d=" M 775.569, 547.631 775.577, 555.317 775.344, 565.314 775.290, 567.656 774.817, 577.645 774.705, 580.021 773.994, 589.996 773.824, 592.389 772.876, 602.344 772.649, 604.738 771.465, 614.667 771.181, 617.046 769.760, 626.945 769.423, 629.292 767.764, 639.154 767.377, 641.454 765.479, 651.273 765.046, 653.511 762.905, 663.279 762.432, 665.439 760.046, 675.150 759.539, 677.216 756.904, 686.863 756.370, 688.821 753.481, 698.395 752.928, 700.230 749.780, 709.721 749.217, 711.419 745.804, 720.819 745.242, 722.367 741.558, 731.663 741.008, 733.049 737.043, 742.229 736.520, 743.440 732.265, 752.490 731.782, 753.516 727.229, 762.420 726.802, 763.254 721.940, 771.992 721.586, 772.628 716.403, 781.179 716.141, 781.610 710.625, 789.951 710.475, 790.177 704.597, 798.303 698.516, 805.961 692.241, 813.123 685.784, 819.765 679.157, 825.860 672.372, 831.380 665.442, 836.299 658.383, 840.594 651.210, 844.237 643.939, 847.204 636.589, 849.470 629.178, 851.016 621.726, 851.817 614.254, 851.853 609.450, 851.374 " fill="none" stroke="rgb(0, 0, 0)" stroke-linecap="butt" stroke-linejoin="round" stroke-opacity="1.0" stroke-width="3.0" />
            <path d=" M 764.158, 547.646 763.317, 547.519 762.504, 547.134 761.733, 546.498 761.023, 545.624 760.386, 544.528 759.835, 543.229 759.380, 541.753 759.030, 540.127 758.792, 538.383 758.702, 537.026 758.671, 536.554 758.670, 534.675 758.788, 532.784 759.023, 530.916 759.155, 530.230 759.370, 529.108 759.824, 527.394 760.374, 525.809 761.010, 524.381 761.720, 523.139 762.488, 522.106 763.154, 521.332 763.820, 520.559 764.486, 519.787 765.150, 519.017 765.484, 518.631 766.110, 517.906 772.646, 510.338 778.056, 504.074 784.593, 496.506 787.568, 493.061 788.618, 503.006 788.726, 504.022 789.150, 508.457 789.883, 518.430 790.001, 520.033 790.093, 521.950 " fill="none" stroke="rgb(0, 0, 0)" stroke-linecap="butt" stroke-linejoin="round" stroke-opacity="1.0" stroke-width="3.0" />
            <path d=" M 794.693, 520.451 800.257, 520.947 800.701, 520.986 " fill="none" stroke="rgb(0, 0, 0)" stroke-linecap="butt" stroke-linejoin="round" stroke-opacity="1.0" stroke-width="3.0" />
            <path d=" M 764.651, 537.416 764.338, 537.301 764.051, 537.041 763.801, 536.649 763.600, 536.141 763.458, 535.541 763.379, 534.872 763.368, 534.166 763.425, 533.453 763.548, 532.765 763.730, 532.131 763.965, 531.580 764.242, 531.135 764.548, 530.817 764.869, 530.639 765.194, 530.608 " fill="none" stroke="rgb(0, 0, 0)" stroke-linecap="butt" stroke-linejoin="round" stroke-opacity="1.0" stroke-width="3.0" />
            <path d=" M 765.194, 530.608 765.506, 530.726 765.792, 530.987 766.041, 531.379 766.240, 531.886 766.382, 532.486 766.460, 533.152 766.471, 533.855 766.414, 534.566 766.292, 535.252 766.110, 535.884 765.877, 536.435 765.601, 536.880 765.296, 537.200 764.975, 537.381 764.651, 537.416 " fill="none" stroke="rgb(0, 0, 0)" stroke-linecap="butt" stroke-linejoin="round" stroke-opacity="1.0" stroke-width="3.0" />
            <path d=" M 800.810, 535.352 800.990, 543.183 800.984, 553.183 800.983, 556.180 800.744, 566.177 800.672, 569.226 800.203, 579.215 800.058, 582.299 799.360, 592.274 799.143, 595.376 798.218, 605.333 797.929, 608.436 796.775, 618.369 796.417, 621.457 795.034, 631.361 794.607, 634.417 792.994, 644.286 792.503, 647.293 790.658, 657.122 790.106, 660.064 788.027, 669.845 787.419, 672.705 785.101, 682.433 784.443, 685.195 781.884, 694.862 781.183, 697.510 778.377, 707.108 777.641, 709.626 774.582, 719.146 773.820, 721.518 770.503, 730.952 769.725, 733.164 766.142, 742.500 765.360, 744.537 761.502, 753.763 760.728, 755.612 756.587, 764.714 755.836, 766.363 751.402, 775.326 750.690, 776.764 745.951, 785.570 745.295, 786.789 740.239, 795.417 739.658, 796.408 734.273, 804.835 733.787, 805.596 728.061, 813.794 727.690, 814.325 721.608, 822.262 721.377, 822.564 714.926, 830.205 714.857, 830.286 708.141, 837.462 701.242, 844.064 694.171, 850.062 686.943, 855.426 679.572, 860.131 672.075, 864.147 664.469, 867.445 656.772, 870.000 649.004, 871.788 641.186, 872.783 633.339, 872.961 625.488, 872.303 617.656, 870.792 609.870, 868.407 602.155, 865.137 594.539, 860.972 587.051, 855.904 579.720, 849.926 572.576, 843.042 565.929, 835.571 565.648, 835.255 559.549, 827.331 558.967, 826.574 553.403, 818.265 552.564, 817.010 547.517, 808.377 546.469, 806.584 541.917, 797.680 540.711, 795.319 539.051, 791.601 536.336, 785.519 535.320, 783.241 535.036, 782.512 531.415, 773.191 530.325, 770.385 529.756, 768.694 528.549, 765.106 525.751, 756.791 522.977, 747.183 522.757, 746.420 521.625, 742.501 520.819, 739.207 518.443, 729.494 517.971, 727.564 515.977, 717.765 514.810, 712.035 513.184, 702.168 512.162, 695.972 510.891, 686.053 510.043, 679.437 508.607, 674.892 505.593, 665.356 504.300, 661.263 " fill="none" stroke="rgb(0, 0, 0)" stroke-linecap="butt" stroke-linejoin="round" stroke-opacity="1.0" stroke-width="3.0" />
            <path d=" M 669.078, 298.682 661.155, 299.033 659.470, 299.287 653.133, 300.239 645.034, 302.319 636.883, 305.288 628.706, 309.156 620.530, 313.933 612.385, 319.625 604.642, 325.953 604.300, 326.232 597.015, 333.083 596.305, 333.750 589.477, 341.055 588.433, 342.172 582.053, 349.872 580.716, 351.486 574.773, 359.528 573.187, 361.674 572.863, 362.164 572.465, 362.765 566.944, 371.103 565.879, 372.712 564.900, 374.358 562.439, 378.496 560.767, 381.308 558.824, 384.574 555.634, 390.539 553.932, 393.722 552.057, 397.227 547.722, 406.238 545.609, 410.630 542.511, 417.799 539.512, 424.739 535.903, 434.065 533.797, 439.507 530.535, 448.960 528.492, 454.878 525.567, 464.441 523.624, 470.794 521.030, 480.452 519.220, 487.192 516.951, 496.931 515.302, 504.005 513.352, 513.813 511.891, 521.163 511.161, 525.570 509.527, 535.435 509.004, 538.591 507.684, 548.504 506.657, 556.217 505.650, 566.166 504.862, 573.962 504.169, 583.938 503.626, 591.749 503.248, 601.742 502.955, 609.500 502.897, 619.500 502.852, 627.139 503.118, 637.136 503.316, 644.590 503.905, 654.572 504.300, 661.263 503.510, 671.231 502.786, 680.377 " fill="none" stroke="rgb(0, 0, 0)" stroke-linecap="butt" stroke-linejoin="round" stroke-opacity="1.0" stroke-width="3.0" />
            <path d=" M 504.996, 697.439 506.638, 707.303 507.754, 714.009 509.765, 723.805 511.041, 730.021 513.436, 739.730 514.838, 745.415 517.293, 753.848 519.123, 760.132 519.187, 760.321 522.399, 769.792 523.869, 774.125 525.472, 778.216 526.731, 781.429 529.049, 787.346 532.326, 794.625 533.625, 797.511 534.636, 799.756 536.495, 803.361 540.600, 811.319 545.683, 819.931 546.909, 822.009 552.512, 830.292 553.533, 831.801 559.674, 839.693 560.440, 840.677 567.132, 848.107 567.597, 848.624 574.845, 855.514 574.974, 855.636 582.539, 861.709 590.261, 866.842 598.109, 871.044 606.054, 874.322 614.069, 876.689 622.125, 878.158 630.197, 878.751 638.259, 878.487 646.288, 877.387 654.261, 875.476 662.158, 872.782 669.958, 869.331 677.643, 865.148 685.195, 860.266 692.599, 854.712 699.839, 848.515 706.903, 841.706 713.776, 834.314 720.207, 826.657 720.448, 826.370 726.512, 818.419 726.907, 817.902 732.619, 809.694 733.144, 808.939 738.517, 800.505 739.150, 799.512 744.196, 790.879 744.916, 789.648 749.648, 780.839 750.435, 779.375 754.865, 770.410 755.700, 768.720 759.839, 759.617 760.705, 757.712 764.562, 748.486 765.444, 746.376 769.028, 737.040 769.912, 734.738 773.231, 725.305 774.104, 722.824 777.166, 713.304 778.017, 710.660 780.827, 701.063 781.645, 698.269 784.209, 688.603 784.986, 685.675 787.309, 675.949 788.036, 672.904 790.122, 663.124 790.793, 659.978 792.645, 650.151 793.253, 646.920 794.873, 637.052 795.415, 633.753 796.805, 623.850 797.275, 620.500 798.436, 610.567 798.832, 607.183 799.764, 597.227 800.083, 593.825 800.787, 583.850 801.028, 580.448 801.503, 570.459 801.664, 567.074 801.907, 557.077 801.989, 553.727 801.999, 543.727 802.003, 540.427 801.890, 535.421 " fill="none" stroke="rgb(0, 0, 0)" stroke-linecap="butt" stroke-linejoin="round" stroke-opacity="1.0" stroke-width="3.0" />
            <path d=" M 502.786, 680.377 504.071, 690.294 504.754, 695.571 504.996, 697.439 " fill="none" stroke="rgb(0, 0, 0)" stroke-linecap="butt" stroke-linejoin="round" stroke-opacity="1.0" stroke-width="3.0" />
            <path d=" M 816.478, 431.560 816.385, 431.023 814.446, 421.213 814.195, 419.948 812.021, 410.188 811.770, 409.060 809.353, 399.356 809.109, 398.375 806.438, 388.738 806.210, 387.912 803.277, 378.352 803.074, 377.690 799.871, 368.216 799.704, 367.722 796.221, 358.348 796.101, 358.025 792.327, 348.765 792.267, 348.617 788.203, 339.517 783.911, 330.742 779.392, 322.315 774.648, 314.258 769.683, 306.592 764.500, 299.333 759.106, 292.499 753.504, 286.110 747.700, 280.186 741.699, 274.747 735.508, 269.817 729.134, 265.419 722.583, 261.577 715.866, 258.310 708.991, 255.635 701.971, 253.569 694.815, 252.128 687.535, 251.331 680.146, 251.196 678.297, 251.331 672.659, 251.742 665.092, 252.987 657.459, 254.950 649.777, 257.638 642.064, 261.058 634.338, 265.217 626.618, 270.120 618.924, 275.770 611.277, 282.173 610.518, 282.889 610.517, 282.890 610.474, 282.931 603.699, 289.328 596.825, 296.591 596.214, 297.237 589.732, 304.852 588.845, 305.895 586.218, 309.307 581.614, 315.287 576.928, 321.989 574.545, 325.398 569.530, 333.271 569.061, 334.008 567.658, 336.210 562.950, 344.309 560.978, 347.703 560.492, 348.619 558.877, 351.661 554.528, 359.854 553.794, 361.369 552.148, 364.764 548.332, 372.640 544.290, 381.787 542.414, 386.032 541.037, 389.458 537.620, 397.959 536.799, 400.000 533.373, 409.395 531.508, 414.508 528.376, 424.004 526.560, 429.511 523.715, 439.098 521.973, 444.967 519.408, 454.633 517.763, 460.830 515.474, 470.565 513.948, 477.053 511.930, 486.847 510.543, 493.586 508.795, 503.432 507.563, 510.378 506.085, 520.268 505.296, 525.545 505.023, 527.376 503.813, 537.303 502.933, 544.526 501.988, 554.481 501.297, 561.768 500.617, 571.745 500.119, 579.049 499.706, 589.040 499.405, 596.310 499.261, 606.309 499.158, 613.496 499.286, 623.495 499.376, 630.549 499.780, 640.541 500.057, 647.416 500.741, 657.393 501.196, 664.043 502.165, 673.996 502.786, 680.377 504.048, 690.297 504.733, 695.680 504.820, 696.367 504.996, 697.439 506.554, 707.317 507.287, 711.966 509.157, 721.790 510.173, 727.129 512.362, 736.887 513.466, 741.813 515.984, 751.491 516.950, 755.201 517.152, 755.977 518.838, 761.629 521.212, 769.585 524.424, 779.055 524.917, 780.508 525.629, 782.605 526.106, 783.850 529.685, 793.188 530.383, 795.007 531.584, 797.793 532.868, 800.768 535.455, 806.764 535.631, 807.128 539.994, 816.126 540.828, 817.847 545.608, 826.631 546.482, 828.237 551.692, 836.772 552.392, 837.919 558.046, 846.167 558.536, 846.882 564.646, 854.799 564.892, 855.118 571.439, 862.619 578.156, 869.379 585.023, 875.393 592.020, 880.659 599.126, 885.179 606.321, 888.963 613.583, 892.022 620.721, 894.311 620.895, 894.367 628.237, 896.010 635.593, 896.963 642.946, 897.237 650.282, 896.845 657.584, 895.800 664.840, 894.120 672.034, 891.828 679.153, 888.945 686.186, 885.492 693.121, 881.487 699.948, 876.950 706.656, 871.897 713.238, 866.347 719.683, 860.317 725.983, 853.829 732.132, 846.907 738.123, 839.572 743.950, 831.844 749.607, 823.743 755.088, 815.285 760.249, 806.720 760.389, 806.488 765.280, 797.766 765.503, 797.368 770.133, 788.504 770.427, 787.941 774.805, 778.951 775.157, 778.229 779.292, 769.124 779.690, 768.250 783.591, 759.042 784.023, 758.022 787.697, 748.721 788.155, 747.562 791.607, 738.177 792.082, 736.887 795.317, 727.424 795.801, 726.010 798.823, 716.478 799.309, 714.947 802.122, 705.350 802.602, 703.711 805.210, 694.057 805.680, 692.318 808.088, 682.612 808.541, 680.785 810.752, 671.033 811.184, 669.126 813.202, 659.332 813.608, 657.357 815.435, 647.526 815.813, 645.492 817.449, 635.627 817.795, 633.543 819.243, 623.649 819.554, 621.525 820.812, 611.605 821.085, 609.451 822.155, 599.509 822.389, 597.335 823.273, 587.374 823.466, 585.191 824.163, 575.215 824.316, 573.032 824.826, 563.045 824.937, 560.873 825.258, 550.878 825.327, 548.726 825.457, 538.727 825.485, 536.605 825.424, 526.606 825.411, 524.525 825.364, 522.643 " fill="none" stroke="rgb(0, 0, 0)" stroke-linecap="butt" stroke-linejoin="round" stroke-opacity="1.0" stroke-width="3.0" />
            <path d=" M 677.926, 251.324 670.429, 251.870 662.852, 253.116 655.209, 255.077 647.517, 257.763 639.795, 261.181 632.060, 265.337 624.331, 270.235 616.628, 275.881 609.148, 282.130 609.098, 282.172 609.083, 282.184 608.972, 282.277 601.694, 289.135 601.386, 289.426 594.505, 296.682 593.893, 297.327 587.404, 304.936 586.516, 305.976 580.409, 313.894 580.271, 314.073 579.279, 315.359 573.541, 323.549 572.202, 325.460 570.172, 328.641 569.128, 330.276 568.649, 331.027 565.309, 336.260 562.676, 340.782 560.208, 345.020 558.624, 347.741 558.590, 347.805 553.894, 356.634 553.505, 357.365 552.168, 359.879 551.842, 360.551 547.474, 369.547 545.967, 372.651 541.919, 381.795 540.715, 384.514 540.045, 386.028 536.309, 395.304 534.426, 399.981 530.994, 409.374 529.132, 414.471 526.832, 421.434 524.181, 429.458 521.331, 439.043 519.591, 444.897 517.022, 454.561 515.379, 460.741 513.087, 470.475 511.563, 476.945 509.543, 486.739 508.156, 493.459 506.407, 503.305 505.176, 510.232 503.697, 520.122 502.887, 525.535 502.636, 527.211 501.426, 537.138 500.547, 544.341 499.602, 554.296 498.912, 561.564 498.232, 571.541 497.736, 578.825 497.324, 588.816 497.024, 596.066 496.881, 606.065 496.779, 613.233 496.909, 623.232 497.001, 630.267 497.407, 640.259 497.685, 647.115 498.372, 657.092 498.828, 663.724 499.800, 673.676 500.422, 680.040 501.688, 689.960 502.461, 696.013 503.413, 702.016 504.933, 711.596 506.808, 721.419 507.825, 726.744 510.019, 736.500 511.124, 741.413 513.648, 751.089 514.815, 755.563 515.920, 759.255 517.766, 765.426 518.882, 769.158 522.102, 778.626 523.306, 782.166 524.019, 784.023 525.240, 787.200 528.067, 794.557 530.841, 800.971 532.106, 803.896 533.147, 806.304 534.963, 810.040 538.529, 817.377 543.317, 826.157 544.190, 827.759 549.409, 836.289 550.109, 837.434 555.771, 845.676 556.262, 846.391 562.379, 854.301 562.627, 854.622 569.183, 862.118 575.909, 868.874 582.785, 874.886 589.792, 880.150 596.908, 884.670 604.112, 888.454 611.385, 891.514 618.706, 893.861 " fill="none" stroke="rgb(0, 0, 0)" stroke-linecap="butt" stroke-linejoin="round" stroke-opacity="1.0" stroke-width="3.0" />
            <path d=" M 680.146, 251.196 677.926, 251.324 " fill="none" stroke="rgb(0, 0, 0)" stroke-linecap="butt" stroke-linejoin="round" stroke-opacity="1.0" stroke-width="3.0" />
            <path d=" M 618.706, 893.861 620.895, 894.367 " fill="none" stroke="rgb(0, 0, 0)" stroke-linecap="butt" stroke-linejoin="round" stroke-opacity="1.0" stroke-width="3.0" />
            <path d=" M 484.902, 683.404 486.191, 693.321 487.282, 701.705 488.876, 711.577 490.162, 719.541 492.070, 729.357 493.528, 736.856 494.185, 739.725 495.947, 747.424 497.362, 753.602 499.928, 763.267 501.257, 768.270 501.644, 769.730 504.557, 779.296 505.467, 782.283 506.355, 785.198 507.320, 787.984 508.907, 792.566 510.320, 796.644 511.448, 799.900 511.472, 799.968 515.120, 809.279 516.133, 811.864 516.972, 814.005 517.299, 814.746 519.794, 820.397 521.037, 823.214 522.831, 827.279 523.505, 828.639 524.790, 831.228 525.378, 832.413 527.947, 837.593 529.024, 839.764 533.890, 848.500 535.527, 851.438 540.830, 859.915 542.312, 862.284 548.068, 870.461 549.355, 872.288 555.576, 880.117 556.629, 881.441 563.325, 888.868 564.108, 889.736 571.283, 896.702 571.768, 897.172 579.419, 903.611 579.582, 903.749 587.528, 909.470 595.580, 914.344 603.716, 918.378 611.914, 921.585 620.152, 923.978 624.476, 925.038 632.711, 926.627 640.947, 927.434 649.164, 927.477 657.345, 926.778 665.473, 925.356 673.534, 923.234 681.512, 920.434 689.394, 916.980 697.167, 912.894 704.820, 908.200 712.340, 902.923 719.719, 897.085 726.946, 890.711 734.014, 883.823 740.845, 876.520 740.914, 876.446 747.422, 868.854 747.639, 868.601 753.835, 860.752 754.182, 860.312 760.076, 852.233 760.538, 851.600 766.140, 843.317 766.700, 842.488 772.021, 834.021 772.665, 832.996 777.714, 824.364 778.426, 823.146 783.213, 814.366 783.981, 812.956 788.514, 804.043 789.325, 802.448 793.614, 793.414 794.456, 791.641 798.507, 782.498 799.369, 780.552 803.190, 771.311 804.063, 769.201 807.660, 759.871 808.534, 757.605 811.914, 748.194 812.781, 745.782 815.949, 736.297 816.801, 733.748 819.763, 724.197 820.592, 721.521 823.352, 711.909 824.154, 709.115 826.715, 699.449 827.483, 696.547 829.849, 686.831 830.579, 683.833 832.753, 674.072 833.441, 670.987 835.426, 661.186 836.066, 658.024 837.864, 648.187 838.454, 644.958 840.067, 635.089 840.604, 631.805 842.033, 621.908 842.514, 618.578 843.761, 608.656 844.183, 605.291 845.248, 595.348 845.611, 591.958 846.495, 581.997 846.796, 578.593 847.498, 568.618 847.738, 565.210 848.257, 555.224 848.434, 551.823 848.771, 541.828 848.885, 538.444 849.037, 528.445 849.089, 525.089 849.056, 515.089 849.045, 511.771 848.824, 501.773 848.752, 498.504 848.341, 488.512 848.210, 485.302 847.606, 475.320 847.417, 472.180 846.617, 462.212 846.372, 459.153 845.373, 449.203 845.075, 446.235 843.871, 436.308 843.524, 433.442 842.112, 423.542 841.720, 420.789 840.094, 410.923 839.660, 408.293 837.814, 398.465 837.346, 395.969 835.273, 386.186 834.775, 383.834 832.469, 374.104 831.948, 371.906 829.400, 362.236 828.865, 360.202 826.067, 350.601 825.524, 348.740 822.467, 339.218 821.928, 337.539 818.601, 328.108 818.075, 326.618 814.468, 317.291 813.967, 315.996 810.068, 306.788 809.605, 305.695 805.400, 296.622 804.989, 295.735 800.466, 286.816 800.121, 286.136 795.266, 277.394 795.004, 276.921 789.802, 268.381 789.639, 268.113 784.030, 259.733 778.180, 251.806 772.094, 244.355 765.775, 237.404 759.229, 230.977 752.463, 225.099 745.483, 219.794 738.296, 215.089 730.913, 211.006 723.341, 207.571 715.592, 204.809 707.677, 202.742 699.609, 201.395 691.402, 200.789 683.070, 200.947 678.655, 201.299 670.191, 202.241 661.637, 203.984 653.010, 206.545 644.330, 209.940 635.618, 214.181 626.985, 219.227 626.896, 219.279 618.646, 224.930 618.187, 225.244 610.334, 231.434 609.515, 232.079 602.065, 238.750 600.905, 239.789 593.859, 246.885 592.383, 248.372 585.736, 255.844 583.975, 257.823 581.188, 261.300 575.710, 268.135 569.838, 276.230 567.614, 279.296 562.280, 287.397 561.666, 288.330 559.717, 291.289 558.389, 293.506 558.325, 293.613 555.781, 297.860 555.198, 298.833 554.194, 300.509 552.046, 304.095 551.049, 305.922 549.499, 308.763 548.994, 309.688 547.394, 312.622 544.630, 317.688 541.041, 324.909 539.464, 328.082 537.497, 332.040 536.339, 334.600 532.216, 343.711 530.675, 347.118 526.896, 356.306 524.191, 362.884 520.698, 372.254 518.072, 379.297 514.880, 388.774 512.343, 396.310 509.446, 405.881 507.027, 413.874 504.419, 423.528 502.148, 431.936 499.823, 441.662 497.726, 450.439 497.712, 450.505 495.667, 460.294 495.516, 461.016 493.780, 469.324 492.011, 479.166 490.328, 488.527 488.831, 498.415 487.470, 507.409 487.383, 507.985 486.781, 512.859 486.681, 513.668 486.312, 516.658 486.053, 518.762 485.961, 519.502 485.901, 519.990 485.772, 521.034 484.958, 527.631 484.004, 537.586 483.063, 547.398 482.379, 557.374 481.705, 567.216 481.293, 577.207 480.888, 587.017 480.750, 597.016 480.615, 606.733 480.753, 616.732 480.885, 626.295 481.302, 636.287 481.693, 645.638 482.396, 655.613 482.804, 661.405 483.035, 664.695 484.028, 674.645 484.902, 683.404 " fill="none" stroke="rgb(0, 0, 0)" stroke-linecap="butt" stroke-linejoin="round" stroke-opacity="1.0" stroke-width="3.0" />
            <path d=" M 683.070, 200.947 674.629, 201.888 666.097, 203.631 657.492, 206.194 648.834, 209.593 640.143, 213.839 631.442, 218.945 623.202, 224.611 622.753, 224.919 614.911, 231.125 614.100, 231.767 606.663, 238.452 605.508, 239.490 598.476, 246.600 597.004, 248.089 590.372, 255.573 588.613, 257.558 583.777, 263.615 580.364, 267.890 574.507, 275.996 572.283, 279.073 566.799, 287.435 564.400, 291.091 563.298, 292.938 562.721, 293.905 559.020, 300.107 556.742, 303.924 556.489, 304.390 554.931, 307.256 550.156, 316.042 549.784, 316.726 549.338, 317.546 548.191, 319.862 543.754, 328.824 542.217, 331.929 538.107, 341.045 537.226, 343.000 535.405, 347.040 531.613, 356.293 528.930, 362.841 525.447, 372.215 522.818, 379.290 519.636, 388.770 519.564, 388.986 517.095, 396.342 514.207, 405.916 511.785, 413.946 509.185, 423.602 506.910, 432.049 504.592, 441.777 502.492, 450.595 500.452, 460.385 498.548, 469.523 496.783, 479.366 495.488, 486.583 495.096, 488.771 493.603, 498.659 492.270, 507.487 492.151, 508.274 491.108, 516.741 490.757, 519.587 490.364, 522.779 489.725, 527.965 489.555, 529.739 488.601, 539.694 487.827, 547.777 487.751, 548.887 487.067, 558.864 486.466, 567.641 486.266, 572.458 485.853, 582.450 485.644, 587.487 485.568, 592.866 485.427, 602.865 485.365, 607.248 485.499, 617.247 485.628, 626.854 486.041, 636.845 486.429, 646.239 487.125, 656.215 487.569, 662.572 487.762, 665.338 488.748, 675.290 488.798, 675.793 488.907, 676.897 489.619, 684.088 490.900, 694.006 491.756, 700.629 491.872, 701.530 491.988, 702.428 493.573, 712.302 494.857, 720.301 496.755, 730.120 496.782, 730.261 498.211, 737.653 500.431, 747.403 502.031, 754.432 504.585, 764.100 506.299, 770.592 509.199, 780.162 509.545, 781.303 510.995, 786.089 511.114, 786.434 514.373, 795.888 516.096, 800.887 517.995, 805.756 519.174, 808.779 521.174, 813.907 521.580, 814.949 525.126, 823.020 526.353, 825.812 527.422, 828.245 529.399, 832.250 533.598, 840.750 538.447, 849.496 540.081, 852.443 545.369, 860.930 546.848, 863.304 552.588, 871.492 553.871, 873.322 560.077, 881.163 561.125, 882.486 567.807, 889.925 568.584, 890.790 575.746, 897.768 576.223, 898.232 583.863, 904.684 584.016, 904.814 591.940, 910.538 599.971, 915.412 608.085, 919.445 616.260, 922.649 624.476, 925.038 " fill="none" stroke="rgb(0, 0, 0)" stroke-linecap="butt" stroke-linejoin="round" stroke-opacity="1.0" stroke-width="3.0" />
            <path d=" M 729.540, 518.258 728.662, 518.368 727.780, 518.703 726.908, 519.256 726.060, 520.020 725.651, 520.529 725.285, 520.984 724.599, 522.133 723.981, 523.445 723.441, 524.899 722.988, 526.468 722.672, 527.935 722.631, 528.127 722.375, 529.846 722.334, 530.333 722.226, 531.597 722.185, 533.349 722.253, 535.072 " fill="none" stroke="rgb(0, 0, 0)" stroke-linecap="butt" stroke-linejoin="round" stroke-opacity="1.0" stroke-width="3.0" />
            <path d=" M 728.795, 528.320 729.054, 528.364 729.302, 528.498 729.532, 528.718 729.736, 529.019 729.911, 529.393 730.050, 529.828 730.151, 530.314 730.211, 530.837 " fill="none" stroke="rgb(0, 0, 0)" stroke-linecap="butt" stroke-linejoin="round" stroke-opacity="1.0" stroke-width="3.0" />
            <path d=" M 727.173, 530.642 730.211, 530.837 739.038, 526.138 747.865, 521.439 753.599, 518.387 " fill="none" stroke="rgb(0, 0, 0)" stroke-linecap="butt" stroke-linejoin="round" stroke-opacity="1.0" stroke-width="3.0" />
            <path d=" M 802.709, 522.543 801.874, 522.661 801.032, 523.010 800.197, 523.585 799.383, 524.376 798.991, 524.903 798.641, 525.374 797.985, 526.563 797.393, 527.919 796.873, 529.421 796.435, 531.042 796.128, 532.556 796.087, 532.754 795.835, 534.529 795.792, 535.031 795.682, 536.336 795.632, 538.143 795.686, 539.920 " fill="none" stroke="rgb(0, 0, 0)" stroke-linecap="butt" stroke-linejoin="round" stroke-opacity="1.0" stroke-width="3.0" />
            <path d=" M 801.909, 532.920 802.154, 532.964 802.388, 533.101 802.603, 533.327 802.794, 533.636 802.957, 534.020 803.086, 534.468 803.178, 534.969 803.231, 535.507 " fill="none" stroke="rgb(0, 0, 0)" stroke-linecap="butt" stroke-linejoin="round" stroke-opacity="1.0" stroke-width="3.0" />
            <path d=" M 779.373, 480.131 779.510, 480.054 779.659, 479.999 779.815, 479.969 779.976, 479.963 780.196, 479.995 780.412, 480.071 780.613, 480.189 780.794, 480.345 780.947, 480.532 781.067, 480.745 781.149, 480.980 781.189, 481.231 781.182, 481.465 781.133, 481.688 781.043, 481.893 780.917, 482.071 780.757, 482.216 780.569, 482.323 " fill="none" stroke="rgb(0, 0, 0)" stroke-linecap="butt" stroke-linejoin="round" stroke-opacity="1.0" stroke-width="3.0" />
            <path d=" M 779.373, 480.131 779.315, 480.170 779.139, 480.320 778.998, 480.502 778.967, 480.548 778.860, 480.764 778.799, 480.999 778.788, 481.250 778.826, 481.484 778.838, 481.536 778.921, 481.755 779.047, 481.953 779.211, 482.122 779.253, 482.157 779.439, 482.284 779.651, 482.370 779.692, 482.386 779.749, 482.400 779.933, 482.427 779.969, 482.432 780.012, 482.435 780.062, 482.435 780.113, 482.434 780.163, 482.430 780.212, 482.424 780.257, 482.417 780.298, 482.408 780.453, 482.363 780.519, 482.344 780.569, 482.323 " fill="none" stroke="rgb(0, 0, 0)" stroke-linecap="butt" stroke-linejoin="round" stroke-opacity="1.0" stroke-width="3.0" />
            <path d=" M 777.023, 478.017 777.403, 484.109 781.363, 484.279 783.085, 484.353 783.730, 483.863 782.855, 478.173 780.550, 478.015 777.453, 477.802 777.023, 478.017 " fill="none" stroke="rgb(0, 0, 0)" stroke-linecap="butt" stroke-linejoin="round" stroke-opacity="1.0" stroke-width="3.0" />
            <path d=" M 783.085, 484.353 782.709, 478.247 " fill="none" stroke="rgb(0, 0, 0)" stroke-linecap="butt" stroke-linejoin="round" stroke-opacity="1.0" stroke-width="3.0" />
            <path d=" M 782.855, 478.173 782.709, 478.247 777.023, 478.017 " fill="none" stroke="rgb(0, 0, 0)" stroke-linecap="butt" stroke-linejoin="round" stroke-opacity="1.0" stroke-width="3.0" />
            <path d=" M 741.205, 509.560 738.841, 509.547 728.842, 509.678 727.355, 509.697 717.359, 509.996 715.887, 510.040 705.897, 510.490 704.433, 510.556 694.450, 511.140 692.986, 511.226 683.011, 511.927 681.543, 512.030 671.575, 512.833 670.098, 512.952 660.137, 513.840 658.646, 513.973 648.692, 514.930 647.182, 515.075 637.233, 516.086 635.702, 516.242 625.757, 517.292 624.201, 517.456 614.258, 518.531 612.673, 518.702 602.732, 519.787 601.114, 519.964 591.173, 521.045 589.520, 521.225 579.577, 522.289 577.885, 522.471 578.160, 512.474 578.286, 507.926 578.447, 497.927 578.520, 493.350 578.566, 483.350 578.587, 478.763 578.518, 468.763 578.486, 464.181 578.301, 454.183 578.217, 449.626 577.916, 439.630 577.779, 435.115 577.360, 425.123 577.173, 420.667 576.634, 410.681 576.397, 406.303 575.991, 400.185 " fill="none" stroke="rgb(0, 0, 0)" stroke-linecap="butt" stroke-linejoin="round" stroke-opacity="1.0" stroke-width="3.0" />
            <path d=" M 581.188, 261.300 574.164, 254.183 573.799, 253.813 567.228, 246.276 566.958, 245.966 " fill="none" stroke="rgb(0, 0, 0)" stroke-linecap="butt" stroke-linejoin="round" stroke-opacity="1.0" stroke-width="3.0" />
            <path d=" M 569.004, 248.520 566.958, 245.966 565.994, 244.763 562.048, 239.839 560.501, 237.664 558.508, 234.863 555.468, 230.593 554.330, 228.795 551.707, 224.653 549.283, 220.825 548.388, 219.239 547.567, 217.782 545.827, 214.695 543.507, 210.578 542.639, 208.846 541.700, 206.971 541.637, 206.846 540.961, 205.496 538.199, 199.981 538.153, 199.889 " fill="none" stroke="rgb(0, 0, 0)" stroke-linecap="butt" stroke-linejoin="round" stroke-opacity="1.0" stroke-width="3.0" />
            <path d=" M 537.055, 197.413 533.231, 188.794 529.954, 182.206 529.252, 180.795 526.095, 175.183 525.123, 173.456 520.849, 166.814 518.526, 163.708 516.435, 160.911 514.446, 158.671 511.889, 155.790 507.219, 151.490 502.434, 148.051 500.522, 147.059 497.559, 145.523 497.544, 145.515 492.559, 143.924 487.493, 143.313 482.358, 143.721 477.170, 145.183 471.944, 147.734 470.873, 148.482 470.002, 149.091 466.699, 151.399 464.613, 153.309 461.452, 156.205 456.224, 162.175 453.050, 166.547 451.951, 168.061 451.930, 168.091 451.928, 168.093 451.035, 169.324 446.947, 175.970 445.907, 177.661 441.230, 186.499 440.864, 187.190 436.683, 196.274 435.929, 197.912 432.187, 207.186 431.127, 209.813 427.776, 219.235 426.481, 222.875 423.483, 232.415 422.019, 237.073 419.339, 246.707 417.764, 252.371 415.376, 262.081 413.742, 268.724 411.621, 278.496 409.975, 286.078 408.104, 295.902 406.489, 304.374 404.851, 314.239 403.306, 323.539 401.886, 333.438 400.445, 343.493 399.234, 353.420 398.023, 363.346 397.925, 364.148 396.914, 374.097 395.904, 384.046 395.765, 385.412 394.947, 395.378 394.129, 405.345 393.978, 407.183 393.347, 417.163 392.716, 427.143 392.576, 429.355 392.128, 439.345 391.680, 449.335 391.569, 451.818 391.596, 451.901 394.722, 461.400 397.434, 469.638 398.204, 471.877 401.457, 481.333 403.374, 486.904 406.758, 496.314 409.392, 503.639 412.909, 513.000 415.489, 519.867 419.142, 529.176 421.667, 535.609 425.459, 544.862 427.927, 550.886 431.860, 560.081 434.272, 565.720 438.347, 574.852 440.702, 580.129 444.922, 589.195 447.220, 594.133 451.586, 603.130 453.827, 607.750 458.340, 616.673 460.526, 620.997 465.187, 629.844 467.318, 633.891 472.127, 642.659 474.206, 646.449 479.162, 655.134 481.190, 658.687 482.804, 661.405 " fill="none" stroke="rgb(0, 0, 0)" stroke-linecap="butt" stroke-linejoin="round" stroke-opacity="1.0" stroke-width="3.0" />
            <path d=" M 362.036, 442.845 357.521, 451.768 355.025, 456.700 " fill="none" stroke="rgb(0, 0, 0)" stroke-linecap="butt" stroke-linejoin="round" stroke-opacity="1.0" stroke-width="3.0" />
            <path d=" M 470.873, 148.482 464.483, 148.837 " fill="none" stroke="rgb(0, 0, 0)" stroke-linecap="butt" stroke-linejoin="round" stroke-opacity="1.0" stroke-width="3.0" />
            <path d=" M 534.864, 499.001 541.000, 499.286 533.468, 505.864 532.943, 506.322 " fill="none" stroke="rgb(0, 0, 0)" stroke-linecap="butt" stroke-linejoin="round" stroke-opacity="1.0" stroke-width="3.0" />
            <path d=" M 540.961, 205.496 538.120, 199.618 537.055, 197.413 " fill="none" stroke="rgb(0, 0, 0)" stroke-linecap="butt" stroke-linejoin="round" stroke-opacity="1.0" stroke-width="3.0" />
            <path d=" M 545.827, 214.695 542.639, 208.846 " fill="none" stroke="rgb(0, 0, 0)" stroke-linecap="butt" stroke-linejoin="round" stroke-opacity="1.0" stroke-width="3.0" />
            <path d=" M 551.707, 224.653 548.388, 219.239 " fill="none" stroke="rgb(0, 0, 0)" stroke-linecap="butt" stroke-linejoin="round" stroke-opacity="1.0" stroke-width="3.0" />
            <path d=" M 558.508, 234.863 554.330, 228.795 " fill="none" stroke="rgb(0, 0, 0)" stroke-linecap="butt" stroke-linejoin="round" stroke-opacity="1.0" stroke-width="3.0" />
            <path d=" M 565.994, 244.763 560.501, 237.664 " fill="none" stroke="rgb(0, 0, 0)" stroke-linecap="butt" stroke-linejoin="round" stroke-opacity="1.0" stroke-width="3.0" />
            <path d=" M 790.731, 539.593 790.884, 547.613 " fill="none" stroke="rgb(0, 0, 0)" stroke-linecap="butt" stroke-linejoin="round" stroke-opacity="1.0" stroke-width="3.0" />
            <path d=" M 794.771, 522.078 794.693, 520.451 " fill="none" stroke="rgb(0, 0, 0)" stroke-linecap="butt" stroke-linejoin="round" stroke-opacity="1.0" stroke-width="3.0" />
            <path d=" M 800.271, 521.238 800.257, 520.947 " fill="none" stroke="rgb(0, 0, 0)" stroke-linecap="butt" stroke-linejoin="round" stroke-opacity="1.0" stroke-width="3.0" />
        </g>
    </g>
</svg>
