<?xml version='1.0' encoding='ascii'?>
<svg xmlns="http://www.w3.org/2000/svg" height="1080" version="1.1" width="1080">
    <g id="View Layer_LineSet" inkscape:groupmode="lineset" inkscape:label="View Layer_LineSet" xmlns:inkscape="http://www.inkscape.org/namespaces/inkscape">
        <g id="strokes" inkscape:groupmode="layer" inkscape:label="strokes" xmlns:inkscape="http://www.inkscape.org/namespaces/inkscape">
            <path d=" M 565.416, 507.729 565.351, 508.662 " fill="none" stroke="rgb(0, 0, 0)" stroke-linecap="butt" stroke-linejoin="round" stroke-opacity="1.0" stroke-width="3.0" />
            <path d=" M 355.278, 450.698 361.684, 449.514 " fill="none" stroke="rgb(0, 0, 0)" stroke-linecap="butt" stroke-linejoin="round" stroke-opacity="1.0" stroke-width="3.0" />
            <path d=" M 379.618, 449.672 389.555, 450.793 391.608, 451.025 " fill="none" stroke="rgb(0, 0, 0)" stroke-linecap="butt" stroke-linejoin="round" stroke-opacity="1.0" stroke-width="3.0" />
            <path d=" M 391.608, 451.025 387.829, 441.767 384.049, 432.508 383.319, 430.720 " fill="none" stroke="rgb(0, 0, 0)" stroke-linecap="butt" stroke-linejoin="round" stroke-opacity="1.0" stroke-width="3.0" />
            <path d=" M 465.230, 146.623 460.701, 147.499 456.122, 149.478 451.508, 152.591 446.874, 156.866 442.240, 162.332 439.325, 166.546 438.437, 167.830 437.621, 169.009 433.039, 176.910 428.598, 185.870 428.513, 186.042 424.570, 195.232 424.065, 196.410 420.554, 205.773 419.717, 208.005 416.583, 217.501 415.491, 220.811 412.692, 230.411 411.410, 234.805 408.911, 244.488 407.499, 249.956 405.270, 259.705 403.779, 266.220 401.796, 276.021 400.274, 283.542 398.518, 293.386 397.006, 301.862 395.460, 311.742 393.995, 321.109 392.647, 331.018 391.299, 340.926 391.262, 341.200 390.100, 351.132 388.938, 361.065 388.824, 362.046 387.840, 371.998 386.857, 381.949 386.698, 383.551 385.886, 393.518 385.073, 403.485 384.900, 405.609 384.252, 415.588 383.604, 425.567 383.439, 428.111 383.319, 430.720 381.402, 440.534 379.618, 449.672 " fill="none" stroke="rgb(0, 0, 0)" stroke-linecap="butt" stroke-linejoin="round" stroke-opacity="1.0" stroke-width="3.0" />
            <path d=" M 528.116, 720.709 528.663, 718.076 530.533, 708.253 530.977, 705.920 532.696, 696.069 533.157, 693.428 534.734, 683.553 535.202, 680.626 536.645, 670.731 537.111, 667.541 538.429, 657.628 538.751, 655.206 538.885, 654.197 540.083, 644.269 540.523, 640.619 541.608, 630.678 542.027, 626.830 543.002, 616.878 543.396, 612.853 544.265, 602.891 544.630, 598.709 545.397, 588.738 545.730, 584.419 546.398, 574.442 546.695, 570.004 547.267, 560.021 547.526, 555.485 548.003, 545.496 548.224, 540.880 548.608, 530.887 548.787, 526.208 555.343, 526.227 557.191, 526.232 557.309, 526.233 559.094, 526.238 562.667, 526.248 563.511, 526.250 564.454, 526.253 567.027, 526.260 577.027, 526.288 577.765, 526.291 578.053, 516.295 578.191, 511.504 578.362, 501.505 578.444, 496.683 578.498, 486.683 578.524, 481.848 578.461, 471.849 578.431, 467.019 578.250, 457.021 578.163, 452.216 577.864, 442.221 577.721, 437.458 577.302, 427.467 577.105, 422.767 576.564, 412.781 576.314, 408.162 575.940, 402.554 " fill="none" stroke="rgb(0, 0, 0)" stroke-linecap="butt" stroke-linejoin="round" stroke-opacity="1.0" stroke-width="3.0" />
            <path d=" M 573.017, 407.602 573.305, 411.869 573.851, 421.854 574.070, 425.854 574.493, 435.845 574.666, 439.926 574.969, 449.922 575.094, 454.066 575.277, 464.064 575.353, 468.251 575.418, 478.251 575.445, 482.463 575.391, 492.463 575.369, 496.682 575.198, 506.681 575.125, 510.887 575.094, 511.980 574.999, 512.636 574.896, 513.251 574.787, 513.823 574.671, 514.349 574.550, 514.825 574.423, 515.250 574.292, 515.620 574.158, 515.935 574.021, 516.191 573.881, 516.388 573.741, 516.526 573.600, 516.601 573.459, 516.616 573.319, 516.568 569.351, 514.333 569.207, 513.044 569.034, 511.891 568.835, 510.891 568.612, 510.063 568.369, 509.419 568.110, 508.973 567.840, 508.730 567.563, 508.698 567.416, 508.695 565.396, 508.663 565.351, 508.662 564.859, 508.654 563.902, 508.638 563.073, 508.625 559.502, 508.567 557.718, 508.539 557.626, 508.537 557.174, 508.530 556.884, 508.707 556.596, 509.092 556.316, 509.680 556.049, 510.459 555.798, 511.419 555.708, 511.862 555.568, 512.543 555.364, 513.812 555.189, 515.204 555.045, 516.696 554.935, 518.262 554.862, 519.876 555.520, 520.213 556.525, 520.728 557.352, 520.742 557.457, 520.744 557.631, 520.747 559.241, 520.776 562.812, 520.839 563.644, 520.854 564.599, 520.871 565.054, 520.879 566.929, 520.912 566.953, 520.402 566.991, 519.914 567.042, 519.461 567.104, 519.056 567.176, 518.709 567.208, 518.596 567.255, 518.430 567.340, 518.227 567.428, 518.105 567.517, 518.067 " fill="none" stroke="rgb(0, 0, 0)" stroke-linecap="butt" stroke-linejoin="round" stroke-opacity="1.0" stroke-width="3.0" />
            <path d=" M 567.985, 521.474 574.716, 525.059 577.765, 526.291 " fill="none" stroke="rgb(0, 0, 0)" stroke-linecap="butt" stroke-linejoin="round" stroke-opacity="1.0" stroke-width="3.0" />
            <path d=" M 389.521, 212.463 386.806, 221.446 384.216, 231.105 383.094, 235.289 380.774, 245.016 379.515, 250.292 377.438, 260.074 376.091, 266.415 374.233, 276.241 372.841, 283.606 371.185, 293.468 369.784, 301.809 368.316, 311.700 366.941, 320.955 365.647, 330.871 364.329, 340.965 363.199, 350.901 362.069, 360.837 361.965, 361.753 360.991, 371.706 360.018, 381.658 359.865, 383.226 359.041, 393.192 358.218, 403.158 358.043, 405.281 357.364, 415.258 356.685, 425.235 356.510, 427.809 355.973, 437.795 355.435, 447.781 355.278, 450.698 354.925, 460.692 354.572, 470.686 354.462, 473.787 354.268, 483.785 354.074, 493.783 354.012, 496.974 353.977, 506.974 353.941, 516.974 353.930, 520.136 354.054, 530.135 354.179, 540.134 354.216, 543.152 354.502, 553.148 354.789, 563.144 354.868, 565.903 355.320, 575.893 355.772, 585.882 355.880, 588.272 356.503, 598.252 357.125, 608.233 357.245, 610.147 358.045, 620.115 358.846, 630.083 358.953, 631.423 359.940, 641.374 360.926, 651.325 360.993, 651.999 362.175, 661.929 363.349, 671.786 364.740, 681.689 366.006, 690.700 367.622, 700.569 368.947, 708.666 370.131, 714.929 " fill="none" stroke="rgb(0, 0, 0)" stroke-linecap="butt" stroke-linejoin="round" stroke-opacity="1.0" stroke-width="3.0" />
            <path d=" M 493.915, 739.062 493.333, 741.138 490.402, 750.699 490.281, 751.096 487.094, 760.572 483.776, 769.533 480.330, 777.947 476.760, 785.779 473.071, 792.992 469.268, 799.552 465.356, 805.422 461.342, 810.564 457.233, 814.939 454.191, 817.530 " fill="none" stroke="rgb(0, 0, 0)" stroke-linecap="butt" stroke-linejoin="round" stroke-opacity="1.0" stroke-width="3.0" />
            <path d=" M 391.851, 445.882 391.608, 451.025 391.274, 461.019 390.939, 471.014 390.837, 474.057 390.663, 484.056 390.488, 494.054 390.434, 497.188 390.419, 507.188 390.405, 517.188 390.400, 520.295 390.546, 530.294 390.692, 540.293 390.735, 543.258 391.043, 553.253 391.351, 563.249 391.435, 565.959 391.907, 575.947 392.379, 585.936 392.490, 588.281 393.131, 598.260 393.772, 608.240 393.892, 610.114 394.707, 620.081 395.522, 630.048 395.628, 631.352 396.624, 641.303 397.619, 651.253 397.684, 651.896 398.868, 661.826 400.041, 671.656 401.425, 681.560 402.681, 690.549 404.278, 700.420 405.585, 708.498 407.411, 718.330 408.731, 725.440 410.805, 735.223 412.098, 741.321 414.444, 751.042 415.663, 756.094 418.311, 765.737 419.404, 769.719 422.389, 779.263 423.299, 782.172 426.665, 791.588 427.325, 793.433 431.128, 802.682 431.461, 803.490 435.685, 812.339 439.978, 819.988 442.369, 823.543 442.661, 823.978 444.320, 826.444 448.692, 831.722 453.077, 835.846 457.460, 838.841 461.824, 840.736 466.157, 841.563 470.444, 841.358 474.674, 840.160 478.837, 838.005 482.923, 834.934 486.924, 830.988 487.607, 830.153 490.831, 826.209 494.638, 820.635 498.339, 814.309 501.929, 807.271 505.403, 799.561 508.434, 792.019 " fill="none" stroke="rgb(0, 0, 0)" stroke-linecap="butt" stroke-linejoin="round" stroke-opacity="1.0" stroke-width="3.0" />
            <path d=" M 470.074, 823.283 466.038, 823.273 463.032, 822.542 461.974, 822.285 457.895, 820.286 454.191, 817.530 453.815, 817.250 449.747, 813.153 445.706, 807.971 441.710, 801.686 437.775, 794.288 433.918, 785.771 430.284, 776.454 430.158, 776.130 426.949, 766.659 426.513, 765.371 423.675, 755.783 423.002, 753.509 420.491, 743.830 419.644, 740.564 417.426, 730.813 416.458, 726.559 414.504, 716.752 413.464, 711.534 411.749, 701.682 410.679, 695.533 409.185, 685.645 408.121, 678.607 406.832, 668.690 405.809, 660.816 404.711, 650.877 403.756, 642.232 402.839, 632.274 401.979, 622.930 401.233, 612.958 400.489, 602.994 399.909, 593.011 399.329, 583.028 399.299, 582.515 398.878, 572.524 398.458, 562.533 398.418, 561.590 398.152, 551.594 397.886, 541.597 397.852, 540.321 397.739, 530.321 397.625, 520.322 397.608, 518.811 397.645, 508.812 397.682, 498.812 397.688, 497.172 397.874, 487.173 398.060, 477.175 398.091, 475.511 398.394, 466.529 " fill="none" stroke="rgb(0, 0, 0)" stroke-linecap="butt" stroke-linejoin="round" stroke-opacity="1.0" stroke-width="3.0" />
            <path d=" M 505.035, 781.533 503.519, 785.165 500.153, 792.356 496.685, 798.893 493.120, 804.743 489.463, 809.866 485.723, 814.225 481.905, 817.783 478.018, 820.504 474.071, 822.349 470.074, 823.283 " fill="none" stroke="rgb(0, 0, 0)" stroke-linecap="butt" stroke-linejoin="round" stroke-opacity="1.0" stroke-width="3.0" />
            <path d=" M 546.249, 524.995 545.860, 534.988 545.702, 539.053 545.214, 549.042 545.019, 553.046 544.431, 563.028 544.199, 566.953 543.509, 576.929 543.244, 580.754 542.448, 590.723 542.152, 594.430 541.249, 604.390 540.925, 607.961 539.911, 617.909 539.564, 621.325 538.435, 631.261 538.067, 634.500 536.819, 644.421 536.437, 647.463 535.065, 657.369 534.673, 660.194 533.170, 670.080 533.001, 671.191 532.777, 672.667 531.135, 682.531 530.748, 684.857 528.960, 694.696 528.589, 696.740 526.645, 706.549 526.300, 708.290 525.917, 710.058 " fill="none" stroke="rgb(0, 0, 0)" stroke-linecap="butt" stroke-linejoin="round" stroke-opacity="1.0" stroke-width="3.0" />
            <path d=" M 548.787, 526.208 546.249, 524.995 555.379, 525.016 557.227, 525.020 562.702, 525.033 564.490, 525.037 564.931, 525.038 564.496, 524.815 563.567, 524.338 562.735, 523.912 559.213, 522.106 557.622, 521.290 557.632, 520.775 557.631, 520.747 " fill="none" stroke="rgb(0, 0, 0)" stroke-linecap="butt" stroke-linejoin="round" stroke-opacity="1.0" stroke-width="3.0" />
            <path d=" M 379.618, 449.672 379.276, 459.667 378.934, 469.661 378.798, 473.651 378.613, 483.649 378.429, 493.647 378.353, 497.731 378.326, 507.731 378.298, 517.731 378.287, 521.786 378.418, 531.785 378.548, 541.784 378.599, 545.686 378.889, 555.682 379.180, 565.678 379.285, 569.305 379.739, 579.295 380.192, 589.285 380.339, 592.522 380.960, 602.502 381.581, 612.483 381.751, 615.218 382.545, 625.186 383.340, 635.155 383.509, 637.281 384.485, 647.233 385.461, 657.186 385.601, 658.608 386.767, 668.539 387.934, 678.471 388.008, 679.103 389.376, 689.009 390.713, 698.679 392.298, 708.553 393.696, 717.259 395.516, 727.092 396.938, 734.775 399.012, 744.557 400.415, 751.172 402.769, 760.890 404.105, 766.401 406.772, 776.039 407.986, 780.425 411.003, 789.959 412.034, 793.218 415.448, 802.617 416.227, 804.763 420.096, 813.984 420.542, 815.048 424.958, 824.072 429.453, 831.843 434.006, 838.375 438.599, 843.683 443.212, 847.793 447.830, 850.736 452.434, 852.542 457.012, 853.245 461.548, 852.886 466.029, 851.506 470.445, 849.143 474.785, 845.841 479.039, 841.645 483.199, 836.598 " fill="none" stroke="rgb(0, 0, 0)" stroke-linecap="butt" stroke-linejoin="round" stroke-opacity="1.0" stroke-width="3.0" />
            <path d=" M 483.199, 836.598 489.120, 828.539 490.831, 826.209 " fill="none" stroke="rgb(0, 0, 0)" stroke-linecap="butt" stroke-linejoin="round" stroke-opacity="1.0" stroke-width="3.0" />
            <path d=" M 539.288, 550.116 529.296, 550.526 527.850, 550.585 525.268, 545.879 " fill="none" stroke="rgb(0, 0, 0)" stroke-linecap="butt" stroke-linejoin="round" stroke-opacity="1.0" stroke-width="3.0" />
            <path d=" M 541.024, 499.681 540.838, 509.679 540.651, 519.678 540.552, 524.983 540.114, 534.973 539.936, 539.049 539.351, 549.032 539.288, 550.116 534.630, 541.267 530.913, 534.206 530.658, 533.721 530.402, 533.235 530.146, 532.748 529.891, 532.261 529.597, 531.570 529.327, 530.668 529.085, 529.571 528.988, 528.972 528.878, 528.299 528.774, 527.412 " fill="none" stroke="rgb(0, 0, 0)" stroke-linecap="butt" stroke-linejoin="round" stroke-opacity="1.0" stroke-width="3.0" />
            <path d=" M 530.885, 523.657 530.760, 523.600 530.642, 523.409 530.537, 523.093 530.448, 522.664 530.380, 522.143 530.337, 521.551 530.319, 520.916 530.328, 520.343 " fill="none" stroke="rgb(0, 0, 0)" stroke-linecap="butt" stroke-linejoin="round" stroke-opacity="1.0" stroke-width="3.0" />
            <path d=" M 530.966, 517.438 530.974, 517.433 531.099, 517.495 531.216, 517.688 531.321, 518.006 531.409, 518.434 531.477, 518.954 531.520, 519.543 531.537, 520.177 531.528, 520.826 531.492, 521.463 531.432, 522.060 531.350, 522.591 531.250, 523.034 531.136, 523.367 531.012, 523.578 530.885, 523.657 " fill="none" stroke="rgb(0, 0, 0)" stroke-linecap="butt" stroke-linejoin="round" stroke-opacity="1.0" stroke-width="3.0" />
            <path d=" M 364.445, 402.271 364.218, 405.151 363.576, 415.130 362.935, 425.109 362.801, 427.195 362.316, 436.874 361.817, 446.861 361.684, 449.514 361.323, 459.508 360.963, 469.501 360.872, 472.021 360.650, 482.019 360.427, 492.016 360.369, 494.626 360.285, 504.626 360.200, 514.626 360.178, 517.239 360.197, 520.778 " fill="none" stroke="rgb(0, 0, 0)" stroke-linecap="butt" stroke-linejoin="round" stroke-opacity="1.0" stroke-width="3.0" />
            <path d=" M 534.464, 745.385 535.898, 738.103 537.702, 728.267 538.028, 726.494 539.710, 716.636 540.049, 714.651 541.616, 704.775 541.962, 702.593 543.419, 692.700 543.767, 690.335 545.118, 680.427 545.464, 677.892 546.714, 667.971 547.053, 665.280 548.205, 655.347 548.534, 652.513 549.591, 642.569 549.906, 639.604 550.872, 629.651 551.171, 626.568 552.047, 616.606 552.327, 613.416 553.116, 603.447 553.376, 600.163 554.079, 590.187 554.316, 586.819 554.935, 576.838 555.149, 573.397 555.685, 563.411 555.873, 559.908 556.328, 549.919 556.490, 546.365 556.864, 536.372 556.999, 532.778 557.191, 526.232 " fill="none" stroke="rgb(0, 0, 0)" stroke-linecap="butt" stroke-linejoin="round" stroke-opacity="1.0" stroke-width="3.0" />
            <path d=" M 457.472, 890.277 459.900, 890.436 464.035, 890.603 468.131, 889.949 472.180, 888.503 476.175, 886.297 480.109, 883.359 483.976, 879.721 487.771, 875.412 491.489, 870.463 495.124, 864.903 498.674, 858.763 502.135, 852.070 505.503, 844.852 508.776, 837.138 511.952, 828.953 515.028, 820.324 516.924, 814.559 " fill="none" stroke="rgb(0, 0, 0)" stroke-linecap="butt" stroke-linejoin="round" stroke-opacity="1.0" stroke-width="3.0" />
            <path d=" M 518.318, 161.487 517.117, 158.234 513.978, 150.524 510.727, 143.331 507.366, 136.685 503.899, 130.616 500.327, 125.154 496.656, 120.331 492.888, 116.179 489.029, 112.729 485.084, 110.012 481.058, 108.061 476.959, 106.906 472.792, 106.580 471.426, 106.751 468.568, 107.110 464.293, 108.527 459.977, 110.857 455.632, 114.126 451.267, 118.357 446.896, 123.570 442.529, 129.784 438.181, 137.012 433.865, 145.265 432.376, 148.505 429.597, 154.550 425.822, 163.810 425.391, 164.867 425.021, 165.883 421.602, 175.281 421.263, 176.213 418.163, 185.720 417.230, 188.581 414.415, 198.176 413.307, 201.954 410.752, 211.622 409.512, 216.314 407.194, 226.042 405.862, 231.633 403.761, 241.410 402.372, 247.879 400.474, 257.698 399.059, 265.013 397.350, 274.866 395.940, 282.989 394.408, 292.871 393.030, 301.754 391.665, 311.661 390.343, 321.252 389.138, 331.179 387.932, 341.106 387.894, 341.418 386.841, 351.362 385.789, 361.307 385.696, 362.182 384.790, 372.141 383.884, 382.100 383.759, 383.470 382.996, 393.441 382.233, 403.412 382.095, 405.204 381.471, 415.185 380.846, 425.165 380.712, 427.300 380.224, 437.288 379.735, 447.276 379.618, 449.672 379.264, 459.666 378.909, 469.660 378.818, 472.233 378.596, 482.230 378.375, 492.228 378.316, 494.891 378.227, 504.891 378.138, 514.890 378.114, 517.556 378.158, 527.556 378.201, 537.556 378.212, 540.138 378.390, 550.136 378.567, 560.135 378.610, 562.546 378.923, 572.541 379.235, 582.536 379.303, 584.693 379.754, 594.683 380.205, 604.672 380.287, 606.492 380.879, 616.475 381.471, 626.457 381.555, 627.862 382.293, 637.835 383.030, 647.807 383.098, 648.724 383.987, 658.684 384.876, 668.645 384.908, 669.004 385.955, 678.949 386.974, 688.634 388.185, 698.560 389.283, 707.550 390.668, 717.453 391.822, 725.694 393.393, 735.570 394.577, 743.016 396.346, 752.858 397.535, 759.470 399.517, 769.272 400.679, 775.017 402.892, 784.769 403.994, 789.626 406.459, 799.317 407.465, 803.268 410.208, 812.885 411.075, 815.925 414.126, 825.448 414.809, 827.582 418.204, 836.988 418.652, 838.229 422.434, 847.486 422.588, 847.863 426.601, 856.484 430.678, 864.099 434.805, 870.717 438.967, 876.351 443.154, 881.018 447.351, 884.737 451.548, 887.530 455.734, 889.421 459.596, 890.362 459.900, 890.436 " fill="none" stroke="rgb(0, 0, 0)" stroke-linecap="butt" stroke-linejoin="round" stroke-opacity="1.0" stroke-width="3.0" />
            <path d=" M 470.341, 106.667 466.089, 107.199 461.787, 108.616 457.444, 110.946 453.072, 114.215 448.680, 118.445 444.281, 123.658 439.887, 129.871 435.512, 137.097 431.171, 145.348 429.533, 148.887 426.876, 154.630 423.081, 163.882 422.645, 164.944 419.208, 174.335 418.799, 175.453 418.493, 176.288 415.375, 185.789 414.436, 188.651 411.605, 198.242 410.490, 202.021 407.921, 211.685 406.673, 216.376 404.342, 226.100 403.002, 231.690 400.890, 241.464 399.492, 247.930 397.583, 257.746 396.161, 265.057 394.442, 274.909 393.025, 283.027 391.484, 292.907 390.099, 301.785 388.727, 311.691 387.398, 321.275 386.186, 331.202 384.974, 341.128 384.937, 341.433 383.878, 351.377 382.820, 361.321 382.727, 362.190 381.817, 372.148 380.906, 382.107 380.781, 383.470 380.014, 393.440 379.247, 403.411 379.110, 405.195 378.482, 415.175 377.855, 425.156 377.721, 427.282 377.231, 437.270 376.740, 447.258 376.623, 449.646 376.268, 459.640 375.912, 469.633 375.821, 472.197 375.599, 482.195 375.378, 492.193 375.319, 494.847 375.231, 504.846 375.142, 514.846 375.119, 517.503 375.164, 527.503 375.209, 537.503 375.221, 540.076 375.401, 550.075 375.581, 560.073 375.624, 562.476 375.940, 572.471 376.256, 582.466 376.324, 584.614 376.779, 594.603 377.234, 604.593 377.317, 606.405 377.915, 616.387 378.512, 626.369 378.596, 627.767 379.340, 637.739 380.084, 647.711 380.152, 648.621 381.048, 658.581 381.944, 668.541 381.976, 668.894 383.031, 678.838 384.057, 688.517 385.278, 698.442 386.383, 707.426 387.779, 717.328 388.940, 725.565 390.523, 735.439 391.715, 742.881 393.497, 752.721 394.694, 759.330 396.690, 769.129 397.860, 774.873 400.088, 784.621 401.198, 789.477 403.680, 799.164 404.692, 803.116 407.453, 812.727 408.327, 815.770 411.397, 825.287 412.086, 827.424 413.705, 831.878 413.953, 832.561 415.955, 838.069 419.759, 847.317 419.917, 847.701 423.957, 856.321 428.061, 863.935 432.214, 870.553 436.404, 876.187 440.618, 880.854 444.842, 884.574 449.067, 887.368 453.280, 889.260 457.472, 890.277 " fill="none" stroke="rgb(0, 0, 0)" stroke-linecap="butt" stroke-linejoin="round" stroke-opacity="1.0" stroke-width="3.0" />
            <path d=" M 472.792, 106.580 470.341, 106.667 " fill="none" stroke="rgb(0, 0, 0)" stroke-linecap="butt" stroke-linejoin="round" stroke-opacity="1.0" stroke-width="3.0" />
            <path d=" M 540.552, 764.021 542.188, 755.461 543.941, 745.616 544.406, 743.004 546.043, 733.139 546.511, 730.317 548.037, 720.434 548.502, 717.417 549.922, 707.518 550.380, 704.320 551.697, 694.407 552.145, 691.041 553.364, 681.116 553.796, 677.597 554.921, 667.660 555.335, 664.000 556.368, 654.054 556.761, 650.266 557.705, 640.310 558.075, 636.406 558.933, 626.443 559.277, 622.435 560.050, 612.465 560.367, 608.365 561.057, 598.388 561.346, 594.206 561.954, 584.225 562.213, 579.972 562.740, 569.986 562.968, 565.674 563.416, 555.684 563.611, 551.322 563.981, 541.329 564.143, 536.927 564.435, 526.932 564.454, 526.253 " fill="none" stroke="rgb(0, 0, 0)" stroke-linecap="butt" stroke-linejoin="round" stroke-opacity="1.0" stroke-width="3.0" />
            <path d=" M 459.418, 924.576 461.812, 924.745 466.251, 924.500 470.640, 923.377 474.971, 921.411 479.237, 918.635 483.431, 915.086 487.547, 910.798 491.579, 905.805 495.523, 900.143 499.374, 893.845 503.128, 886.942 506.783, 879.468 510.336, 871.454 513.784, 862.929 517.124, 853.922 520.357, 844.462 523.368, 834.926 523.479, 834.575 524.409, 831.397 " fill="none" stroke="rgb(0, 0, 0)" stroke-linecap="butt" stroke-linejoin="round" stroke-opacity="1.0" stroke-width="3.0" />
            <path d=" M 541.731, 205.769 541.028, 202.447 539.963, 197.417 537.726, 187.671 537.419, 186.333 535.001, 176.630 534.748, 175.613 532.134, 165.960 531.951, 165.282 529.122, 155.690 529.027, 155.367 525.977, 145.897 522.802, 136.900 519.502, 128.407 516.081, 120.449 512.538, 113.058 508.877, 106.267 505.099, 100.111 501.209, 94.624 497.211, 89.843 493.108, 85.803 488.905, 82.541 484.610, 80.094 480.227, 78.498 475.765, 77.789 473.437, 77.899 471.231, 78.003 466.635, 79.174 461.987, 81.336 457.297, 84.520 452.577, 88.754 447.840, 94.065 443.100, 100.477 438.371, 108.009 433.669, 116.677 429.380, 125.710 429.009, 126.491 428.363, 128.032 424.495, 137.254 424.410, 137.457 423.428, 140.088 419.932, 149.457 419.888, 149.575 417.967, 155.331 415.462, 162.838 412.593, 172.418 411.150, 177.235 408.549, 186.890 406.972, 192.744 404.615, 202.462 402.947, 209.340 402.111, 213.172 399.977, 222.941 399.094, 226.987 397.168, 236.800 395.432, 245.643 393.699, 255.492 391.980, 265.259 390.427, 275.138 388.875, 285.017 388.755, 285.777 387.373, 295.681 385.991, 305.585 385.776, 307.132 384.556, 317.057 383.336, 326.983 383.057, 329.252 381.993, 339.195 380.928, 349.138 380.616, 352.057 379.701, 362.016 378.785, 371.974 378.464, 375.464 377.694, 385.435 376.923, 395.405 376.615, 399.382 375.985, 409.362 375.355, 419.342 375.079, 423.714 374.587, 433.702 374.095, 443.690 373.864, 448.362 373.508, 458.356 373.152, 468.349 372.978, 473.224 372.756, 483.221 372.534, 493.219 372.424, 498.195 372.336, 508.194 372.248, 518.194 372.205, 523.170 372.252, 533.170 372.299, 543.170 372.321, 548.044 372.504, 558.042 372.686, 568.041 372.771, 572.714 373.091, 582.709 373.411, 592.704 373.551, 597.077 374.011, 607.066 374.471, 617.056 374.654, 621.035 375.258, 631.017 375.862, 640.999 376.073, 644.494 376.825, 654.465 377.577, 664.437 377.798, 667.363 378.704, 677.322 379.610, 687.281 379.818, 689.560 380.884, 699.503 381.951, 709.446 382.119, 711.005 383.354, 720.929 384.590, 730.852 384.687, 731.629 386.102, 741.529 387.508, 751.368 389.112, 761.238 390.564, 770.164 392.373, 779.999 393.779, 787.648 393.839, 787.970 395.868, 797.762 397.315, 804.743 398.178, 808.451 400.447, 818.190 400.974, 820.450 403.505, 830.125 404.798, 835.065 406.199, 839.829 408.769, 848.568 411.515, 856.859 412.869, 860.946 416.375, 870.312 417.080, 872.194 420.995, 881.396 421.385, 882.311 425.767, 891.302 430.209, 899.177 434.698, 905.951 439.217, 911.643 443.753, 916.275 448.292, 919.873 452.822, 922.463 457.333, 924.077 460.347, 924.526 461.812, 924.745 " fill="none" stroke="rgb(0, 0, 0)" stroke-linecap="butt" stroke-linejoin="round" stroke-opacity="1.0" stroke-width="3.0" />
            <path d=" M 364.937, 395.490 364.632, 399.355 364.445, 402.271 363.803, 412.250 363.162, 422.230 363.071, 423.649 362.571, 433.636 362.419, 436.672 361.919, 446.660 361.839, 448.258 361.818, 448.852 361.457, 458.845 361.097, 468.839 360.944, 473.080 360.721, 483.078 360.499, 493.075 360.443, 495.606 360.389, 498.012 360.305, 508.011 360.220, 518.011 360.197, 520.778 360.178, 522.948 360.232, 532.948 360.285, 542.948 360.311, 547.783 360.382, 551.473 " fill="none" stroke="rgb(0, 0, 0)" stroke-linecap="butt" stroke-linejoin="round" stroke-opacity="1.0" stroke-width="3.0" />
            <path d=" M 473.345, 77.884 468.783, 78.100 464.158, 79.272 459.480, 81.434 454.761, 84.617 450.012, 88.851 445.246, 94.162 440.477, 100.573 435.719, 108.104 430.988, 116.769 426.677, 125.792 426.301, 126.581 422.412, 135.794 421.674, 137.544 420.521, 140.613 417.125, 149.658 413.942, 159.138 413.607, 160.135 412.703, 162.829 412.673, 162.918 409.788, 172.493 408.336, 177.310 405.720, 186.962 404.134, 192.814 401.764, 202.529 400.086, 209.404 397.941, 219.171 396.212, 227.045 394.274, 236.856 393.277, 241.907 392.529, 245.695 390.786, 255.542 389.058, 265.304 387.497, 275.181 385.936, 285.059 385.816, 285.814 384.427, 295.717 383.037, 305.620 382.821, 307.161 381.595, 317.086 380.368, 327.010 380.089, 329.272 379.019, 339.215 377.948, 349.157 377.635, 352.069 376.715, 362.027 375.795, 371.984 375.473, 375.467 374.699, 385.437 373.924, 395.407 373.616, 399.375 372.983, 409.355 372.350, 419.335 372.073, 423.698 371.579, 433.685 371.085, 443.673 370.854, 448.336 370.497, 458.329 370.140, 468.323 369.966, 473.188 369.744, 483.185 369.522, 493.183 369.412, 498.149 369.325, 508.148 369.238, 518.148 369.195, 523.114 369.243, 533.114 369.292, 543.114 369.315, 547.979 369.500, 557.977 369.685, 567.975 369.771, 572.639 370.095, 582.634 370.418, 592.628 370.559, 596.993 371.023, 606.982 371.488, 616.971 371.672, 620.942 372.281, 630.923 372.891, 640.905 373.103, 644.392 373.862, 654.363 374.620, 664.334 374.842, 667.253 375.755, 677.211 376.668, 687.169 376.877, 689.441 377.952, 699.383 379.027, 709.325 379.195, 710.880 380.440, 720.802 381.685, 730.724 381.782, 731.497 383.207, 741.395 384.623, 751.228 386.239, 761.097 386.627, 763.466 387.701, 770.019 389.522, 779.852 390.998, 787.819 392.948, 797.160 394.498, 804.587 395.513, 808.912 397.797, 818.647 398.182, 820.291 400.730, 829.960 402.032, 834.902 403.275, 839.098 406.030, 848.401 409.193, 857.888 410.157, 860.777 413.684, 870.135 414.396, 872.023 418.334, 881.215 418.729, 882.138 423.140, 891.128 427.612, 899.002 432.130, 905.776 436.678, 911.469 441.243, 916.101 445.811, 919.700 450.371, 922.291 454.910, 923.906 459.418, 924.576 " fill="none" stroke="rgb(0, 0, 0)" stroke-linecap="butt" stroke-linejoin="round" stroke-opacity="1.0" stroke-width="3.0" />
            <path d=" M 475.765, 77.789 473.345, 77.884 " fill="none" stroke="rgb(0, 0, 0)" stroke-linecap="butt" stroke-linejoin="round" stroke-opacity="1.0" stroke-width="3.0" />
            <path d=" M 547.710, 217.282 546.788, 212.091 544.899, 202.271 544.438, 199.876 542.397, 190.087 541.957, 187.977 539.752, 178.223 539.344, 176.418 536.963, 166.706 536.599, 165.224 534.026, 155.561 533.722, 154.421 530.938, 144.816 530.713, 144.037 527.698, 134.502 527.571, 134.102 524.298, 124.644 520.895, 115.697 517.361, 107.293 513.700, 99.466 509.913, 92.250 506.002, 85.683 501.971, 79.801 497.824, 74.642 493.564, 70.246 489.196, 66.651 484.727, 63.896 480.163, 62.023 475.511, 61.069 470.779, 61.074 465.908, 61.277 461.046, 62.280 456.124, 64.317 451.153, 67.421 446.146, 71.626 441.115, 76.961 436.076, 83.454 431.044, 91.126 426.127, 99.834 426.035, 99.997 421.616, 108.968 421.067, 110.081 417.085, 119.254 416.159, 121.386 412.562, 130.717 411.329, 133.914 408.075, 143.369 406.598, 147.660 403.650, 157.215 401.985, 162.613 399.315, 172.249 397.512, 178.753 395.094, 188.456 393.200, 196.054 391.012, 205.812 389.521, 212.463 389.069, 214.481 387.095, 224.284 385.141, 233.989 383.366, 243.830 381.590, 253.672 381.436, 254.527 379.847, 264.400 378.258, 274.273 377.974, 276.034 376.561, 285.933 375.147, 295.833 374.775, 298.440 373.528, 308.362 372.281, 318.284 371.856, 321.670 370.768, 331.611 369.681, 341.551 369.234, 345.638 368.300, 355.595 367.366, 365.551 367.045, 368.967 366.925, 370.254 366.139, 380.223 365.353, 390.192 364.941, 395.420 364.937, 395.490 364.749, 398.404 364.108, 408.384 363.467, 418.363 363.295, 421.032 362.795, 431.020 362.523, 436.468 362.023, 446.456 361.996, 446.985 361.953, 448.181 361.593, 458.174 361.233, 468.168 361.052, 473.167 360.830, 483.164 360.608, 493.162 360.468, 499.465 360.383, 509.465 360.381, 509.712 360.296, 519.712 360.245, 525.766 360.298, 535.766 360.328, 541.311 360.381, 551.310 360.382, 551.473 360.385, 551.956 360.577, 561.955 360.618, 564.081 360.811, 574.079 360.885, 577.923 361.218, 587.918 361.552, 597.912 361.741, 603.557 362.218, 613.545 362.696, 623.534 362.945, 628.751 363.571, 638.731 364.196, 648.712 364.490, 653.404 365.268, 663.373 366.046, 673.343 366.364, 677.419 367.300, 687.375 368.237, 697.331 368.554, 700.706 369.656, 710.645 370.131, 714.929 371.046, 723.183 372.322, 733.101 373.599, 743.020 373.824, 744.774 375.285, 754.667 376.746, 764.560 376.871, 765.412 378.528, 775.274 380.169, 785.037 382.037, 794.861 383.699, 803.599 385.795, 813.377 387.441, 821.055 389.785, 830.776 391.375, 837.370 393.992, 847.022 395.483, 852.519 398.401, 862.083 399.743, 866.482 402.997, 875.938 404.136, 879.249 407.767, 888.567 408.643, 890.815 412.701, 899.955 413.246, 901.183 417.788, 910.092 417.925, 910.360 422.664, 918.359 427.446, 925.198 432.254, 930.900 437.076, 935.490 441.895, 938.996 446.699, 941.451 451.477, 942.888 456.217, 943.341 460.976, 943.687 465.609, 943.189 470.186, 941.781 474.697, 939.500 479.137, 936.385 483.497, 932.474 487.771, 927.804 491.955, 922.412 496.044, 916.335 500.033, 909.608 503.919, 902.267 507.699, 894.345 511.370, 885.874 514.929, 876.887 518.376, 867.413 521.558, 857.932 521.709, 857.482 524.675, 847.932 524.926, 847.122 527.627, 837.749 " fill="none" stroke="rgb(0, 0, 0)" stroke-linecap="butt" stroke-linejoin="round" stroke-opacity="1.0" stroke-width="3.0" />
            <path d=" M 543.071, 770.454 544.160, 764.684 545.895, 754.835 546.437, 751.757 548.056, 741.889 548.595, 738.602 550.105, 728.717 550.637, 725.236 552.042, 715.335 552.561, 711.675 553.866, 701.761 554.369, 697.936 555.577, 688.009 556.061, 684.033 557.176, 674.095 557.637, 669.980 558.661, 660.032 559.098, 655.791 560.034, 645.835 560.444, 641.480 561.294, 631.516 561.674, 627.059 562.441, 617.088 562.791, 612.540 563.475, 602.563 563.793, 597.935 564.396, 587.953 564.681, 583.256 565.205, 573.270 565.454, 568.514 565.900, 558.523 566.114, 553.719 566.482, 543.726 566.660, 538.883 566.951, 528.887 567.027, 526.260 " fill="none" stroke="rgb(0, 0, 0)" stroke-linecap="butt" stroke-linejoin="round" stroke-opacity="1.0" stroke-width="3.0" />
            <path d=" M 470.779, 61.074 465.978, 62.076 461.117, 64.111 456.206, 67.215 451.260, 71.420 446.290, 76.756 441.312, 83.250 436.340, 90.926 431.469, 99.659 431.390, 99.801 427.015, 108.793 426.481, 109.890 424.945, 113.472 421.630, 121.200 418.071, 130.545 416.857, 133.735 413.637, 143.202 412.180, 147.489 410.273, 153.744 407.620, 162.451 404.979, 172.096 404.122, 175.226 403.197, 178.602 401.006, 187.497 398.933, 195.915 396.770, 205.678 394.848, 214.354 392.896, 224.162 390.963, 233.876 390.183, 238.246 388.428, 248.090 387.297, 254.429 385.726, 264.305 384.154, 274.180 383.872, 275.952 382.474, 285.853 381.076, 295.755 380.706, 298.375 380.629, 298.994 379.396, 308.918 378.162, 318.841 377.816, 321.622 376.740, 331.564 375.664, 341.506 375.220, 345.609 374.295, 355.567 373.371, 365.524 372.932, 370.245 372.154, 380.214 371.376, 390.184 370.966, 395.430 370.331, 405.410 369.695, 415.390 369.334, 421.063 368.838, 431.051 368.342, 441.038 368.044, 447.036 367.686, 457.030 367.327, 467.023 367.104, 473.239 366.882, 483.236 366.660, 493.234 366.520, 499.558 366.434, 509.558 366.347, 519.557 366.293, 525.880 366.343, 535.880 366.393, 545.880 366.424, 552.091 366.612, 562.089 366.799, 572.087 366.911, 578.078 367.238, 588.073 367.565, 598.067 367.750, 603.731 368.219, 613.720 368.688, 623.709 368.934, 628.944 369.549, 638.926 370.163, 648.907 370.453, 653.616 371.219, 663.586 371.984, 673.557 372.298, 677.648 373.220, 687.606 374.142, 697.563 374.456, 700.952 375.541, 710.893 375.699, 712.339 376.027, 715.345 376.912, 723.445 378.169, 733.366 379.427, 743.286 379.650, 745.051 381.090, 754.947 382.530, 764.843 382.655, 765.702 383.562, 771.179 384.657, 777.795 385.907, 785.340 387.750, 795.169 389.389, 803.913 391.457, 813.697 393.080, 821.378 393.885, 824.761 396.199, 834.489 396.963, 837.702 399.546, 847.363 401.016, 852.859 403.898, 862.434 405.220, 866.828 408.387, 876.156 409.556, 879.601 413.145, 888.934 414.005, 891.171 418.017, 900.331 418.548, 901.542 423.043, 910.474 423.167, 910.720 427.845, 918.720 432.566, 925.560 437.314, 931.261 442.074, 935.849 446.833, 939.353 451.577, 941.805 456.295, 943.238 460.976, 943.687 " fill="none" stroke="rgb(0, 0, 0)" stroke-linecap="butt" stroke-linejoin="round" stroke-opacity="1.0" stroke-width="3.0" />
            <path d=" M 565.328, 520.060 565.400, 518.444 565.428, 518.031 565.507, 516.876 565.544, 516.480 565.646, 515.382 565.817, 513.988 566.014, 512.717 566.236, 511.592 566.478, 510.630 566.737, 509.849 567.007, 509.261 567.284, 508.875 567.414, 508.792 567.563, 508.698 " fill="none" stroke="rgb(0, 0, 0)" stroke-linecap="butt" stroke-linejoin="round" stroke-opacity="1.0" stroke-width="3.0" />
            <path d=" M 554.862, 519.876 555.530, 519.888 557.376, 519.920 557.612, 519.924 562.830, 520.016 564.616, 520.047 565.079, 520.056 565.328, 520.060 566.929, 520.912 " fill="none" stroke="rgb(0, 0, 0)" stroke-linecap="butt" stroke-linejoin="round" stroke-opacity="1.0" stroke-width="3.0" />
            <path d=" M 557.622, 521.290 562.800, 521.382 564.587, 521.414 565.038, 521.422 567.147, 521.459 567.985, 521.474 567.995, 520.959 567.990, 520.450 567.971, 519.961 567.937, 519.506 567.891, 519.096 567.832, 518.743 567.764, 518.457 567.687, 518.246 567.604, 518.114 567.517, 518.067 " fill="none" stroke="rgb(0, 0, 0)" stroke-linecap="butt" stroke-linejoin="round" stroke-opacity="1.0" stroke-width="3.0" />
            <path d=" M 537.964, 490.907 538.099, 490.907 538.103, 490.437 " fill="none" stroke="rgb(0, 0, 0)" stroke-linecap="butt" stroke-linejoin="round" stroke-opacity="1.0" stroke-width="3.0" />
            <path d=" M 623.521, 913.517 625.693, 914.038 633.569, 915.521 641.448, 916.259 649.312, 916.270 657.146, 915.572 664.932, 914.185 672.656, 912.128 680.304, 909.422 687.863, 906.090 695.320, 902.151 702.664, 897.629 709.884, 892.546 716.971, 886.924 723.914, 880.785 730.706, 874.151 737.339, 867.045 743.805, 859.487 749.994, 851.632 750.098, 851.500 755.984, 843.415 756.212, 843.103 761.806, 834.814 762.140, 834.319 767.453, 825.847 767.879, 825.166 772.920, 816.530 773.423, 815.666 778.201, 806.881 778.769, 805.838 783.293, 796.919 783.911, 795.699 788.190, 786.661 788.848, 785.270 792.888, 776.123 793.575, 774.568 797.385, 765.323 798.090, 763.612 801.675, 754.276 802.390, 752.417 805.757, 743.001 806.472, 741.001 809.627, 731.512 810.335, 729.382 813.281, 719.826 813.976, 717.574 816.719, 707.957 817.393, 705.593 819.937, 695.922 820.586, 693.456 822.933, 683.735 823.551, 681.177 825.706, 671.412 826.288, 668.771 828.252, 658.965 828.796, 656.252 830.572, 646.411 831.072, 643.636 832.661, 633.763 833.116, 630.936 834.520, 621.036 834.927, 618.167 836.146, 608.242 836.503, 605.342 837.539, 595.396 837.843, 592.475 838.696, 582.512 838.946, 579.581 839.615, 569.603 839.812, 566.672 840.297, 556.683 840.439, 553.762 840.738, 543.767 840.826, 540.866 840.939, 530.866 840.972, 527.996 840.897, 517.997 840.876, 515.168 840.611, 505.171 840.538, 502.394 840.081, 492.405 839.956, 489.690 839.303, 479.712 839.130, 477.070 838.278, 467.106 838.059, 464.547 837.004, 454.603 836.742, 452.138 835.480, 442.218 835.179, 439.857 833.704, 429.966 833.369, 427.719 831.675, 417.863 831.311, 415.741 829.393, 405.926 829.005, 403.938 826.856, 394.172 826.451, 392.328 824.063, 382.617 823.648, 380.926 821.014, 371.279 820.597, 369.751 817.708, 360.177 817.298, 358.819 814.144, 349.330 813.752, 348.151 810.321, 338.757 809.958, 337.763 806.241, 328.479 805.919, 327.675 801.902, 318.517 801.635, 317.907 797.306, 308.893 797.107, 308.479 792.453, 299.628 792.339, 299.412 787.331, 290.725 782.088, 282.442 776.612, 274.583 770.907, 267.172 764.978, 260.229 758.829, 253.779 752.466, 247.843 745.896, 242.446 739.126, 237.610 732.164, 233.359 725.019, 229.714 717.699, 226.700 710.217, 224.338 702.583, 222.650 694.811, 221.657 686.913, 221.380 678.905, 221.837 676.686, 221.993 " fill="none" stroke="rgb(0, 0, 0)" stroke-linecap="butt" stroke-linejoin="round" stroke-opacity="1.0" stroke-width="3.0" />
            <path d=" M 625.693, 914.038 624.543, 913.709 617.839, 911.795 610.026, 908.777 602.273, 904.973 594.603, 900.371 587.037, 894.964 579.597, 888.745 572.399, 881.803 572.306, 881.712 565.587, 874.306 565.187, 873.865 558.943, 866.054 558.264, 865.206 552.485, 857.045 551.561, 855.740 546.235, 847.277 545.103, 845.478 544.325, 844.090 539.436, 835.367 538.913, 834.433 535.357, 827.311 533.015, 822.621 532.146, 820.666 529.248, 814.146 527.979, 811.293 527.432, 810.062 523.760, 800.761 522.254, 796.946 522.188, 796.781 521.109, 793.691 517.810, 784.250 517.306, 782.806 514.644, 774.149 512.910, 768.509 512.805, 768.170 510.213, 758.512 508.708, 752.907 506.449, 743.166 505.033, 737.059 503.096, 727.248 501.797, 720.668 500.581, 713.287 499.016, 703.782 497.695, 693.870 496.706, 686.450 495.680, 676.503 494.878, 668.726 494.141, 658.753 493.543, 650.665 493.088, 640.675 492.708, 632.326 492.531, 622.328 492.380, 613.770 492.477, 603.770 492.562, 595.057 492.930, 585.064 493.255, 576.251 493.892, 566.271 494.458, 557.416 495.363, 547.457 496.166, 538.615 497.069, 530.971 497.648, 526.065 498.374, 519.913 498.867, 516.532 499.080, 515.068 500.521, 505.172 501.074, 501.373 502.784, 491.521 504.253, 483.057 506.235, 473.255 507.899, 465.025 510.157, 455.283 511.998, 447.336 514.534, 437.663 516.531, 430.047 519.351, 420.453 521.480, 413.210 524.590, 403.706 524.651, 403.520 525.946, 399.560 526.824, 396.878 530.230, 387.476 532.542, 381.097 533.476, 378.758 537.187, 369.472 538.610, 365.910 539.396, 364.122 539.873, 363.036 543.896, 353.881 545.004, 351.360 549.349, 342.353 550.347, 340.285 551.700, 337.481 551.958, 336.993 556.635, 328.154 557.029, 327.409 558.620, 324.402 558.671, 324.307 561.096, 320.129 565.891, 311.866 566.043, 311.627 566.578, 310.787 571.952, 302.353 573.334, 300.183 579.072, 291.993 580.974, 289.279 587.088, 281.366 588.785, 279.170 594.093, 272.963 596.739, 269.870 603.633, 262.627 604.812, 261.388 612.107, 254.548 612.979, 253.730 620.675, 247.345 621.214, 246.898 629.309, 241.027 629.494, 240.893 637.797, 235.711 646.099, 231.344 654.381, 227.786 662.621, 225.024 670.802, 223.046 678.578, 221.885 678.905, 221.837 " fill="none" stroke="rgb(0, 0, 0)" stroke-linecap="butt" stroke-linejoin="round" stroke-opacity="1.0" stroke-width="3.0" />
            <path d=" M 676.686, 221.993 668.572, 223.203 660.381, 225.180 652.129, 227.940 643.837, 231.497 635.525, 235.860 627.213, 241.038 619.112, 246.902 618.923, 247.039 611.220, 253.416 610.678, 253.864 603.377, 260.697 602.503, 261.515 595.602, 268.752 594.422, 269.989 592.775, 271.911 586.459, 279.280 580.338, 287.188 578.641, 289.379 572.896, 297.563 570.994, 300.272 566.119, 307.910 565.581, 308.751 563.544, 311.943 560.783, 316.691 558.299, 320.963 556.705, 323.703 556.317, 324.370 551.621, 333.230 549.988, 336.310 549.341, 337.530 544.989, 346.534 542.640, 351.394 539.008, 359.644 536.241, 365.929 532.525, 375.212 530.169, 381.098 526.757, 390.498 524.448, 396.862 523.413, 400.018 522.793, 401.909 519.678, 411.411 519.100, 413.176 516.276, 422.768 514.149, 429.993 513.139, 433.837 510.599, 443.509 509.614, 447.262 507.353, 457.004 507.137, 457.937 505.514, 464.931 503.529, 474.732 501.867, 482.942 500.154, 492.794 498.687, 501.237 497.245, 511.133 496.823, 514.029 496.464, 516.491 495.988, 519.756 495.342, 525.223 494.168, 535.154 493.781, 538.437 492.875, 548.396 492.073, 557.216 491.436, 567.195 490.872, 576.029 490.505, 586.022 490.182, 594.814 490.086, 604.813 490.072, 606.259 490.002, 613.505 490.181, 623.504 490.334, 632.041 490.791, 642.031 491.172, 650.360 491.913, 660.332 492.512, 668.401 493.542, 678.348 494.345, 686.106 495.670, 696.018 496.660, 703.419 498.290, 713.286 499.236, 719.014 499.446, 720.288 501.388, 730.098 502.688, 736.662 504.953, 746.402 506.370, 752.495 508.969, 762.151 510.474, 767.742 511.838, 772.166 513.514, 777.604 514.982, 782.365 518.287, 791.803 519.303, 794.703 519.872, 796.327 520.156, 797.046 521.365, 800.098 525.045, 809.396 525.124, 809.596 527.207, 814.271 528.453, 817.068 530.714, 822.144 531.424, 823.562 532.877, 826.466 536.621, 833.947 541.518, 842.665 542.820, 844.983 548.155, 853.442 549.288, 855.238 555.075, 863.393 556.000, 864.697 562.252, 872.502 562.932, 873.351 569.658, 880.751 570.061, 881.194 577.265, 888.130 577.362, 888.224 584.813, 894.440 592.389, 899.846 600.070, 904.447 607.832, 908.252 615.656, 911.271 623.521, 913.517 " fill="none" stroke="rgb(0, 0, 0)" stroke-linecap="butt" stroke-linejoin="round" stroke-opacity="1.0" stroke-width="3.0" />
            <path d=" M 699.814, 316.576 691.636, 316.391 683.338, 317.017 682.617, 317.140 679.209, 317.725 674.943, 318.458 666.474, 320.711 664.321, 321.489 657.958, 323.787 649.421, 327.712 640.896, 332.502 632.578, 338.054 632.412, 338.164 624.513, 344.297 624.002, 344.694 616.528, 351.337 615.696, 352.076 608.640, 359.162 607.521, 360.286 600.875, 367.759 599.505, 369.300 593.273, 377.121 591.686, 379.113 585.868, 387.247 584.102, 389.715 578.693, 398.126 576.792, 401.082 576.237, 402.040 575.940, 402.554 573.017, 407.602 569.788, 413.180 566.864, 418.787 564.409, 423.495 563.496, 425.247 563.120, 425.967 562.696, 426.869 559.292, 434.114 557.580, 437.759 557.523, 437.881 556.814, 439.390 555.743, 441.921 551.846, 451.131 550.888, 453.395 548.608, 459.410 546.817, 464.135 545.376, 467.937 543.783, 472.667 540.592, 482.145 540.314, 482.972 538.103, 490.437 537.984, 490.839 537.964, 490.907 535.732, 498.444 535.479, 499.431 533.885, 505.628 532.898, 509.466 531.658, 514.292 530.967, 517.433 530.966, 517.438 530.328, 520.343 529.605, 523.634 529.129, 525.798 528.774, 527.412 528.107, 530.449 526.297, 540.284 525.268, 545.879 525.091, 546.844 524.979, 547.591 523.498, 557.481 522.611, 563.407 521.457, 573.340 520.676, 580.069 519.857, 590.035 519.304, 596.764 518.827, 606.753 518.509, 613.421 518.381, 623.420 518.336, 626.982 518.297, 629.969 518.523, 639.967 518.667, 646.338 519.250, 656.321 519.609, 662.460 520.549, 672.416 520.839, 675.483 521.103, 678.275 522.404, 688.190 523.139, 693.785 524.794, 703.647 525.668, 708.849 525.917, 710.058 526.257, 711.705 527.679, 718.590 528.116, 720.709 528.674, 723.411 528.735, 723.659 531.138, 733.366 532.140, 737.415 533.283, 741.335 534.464, 745.385 535.632, 749.391 536.046, 750.811 536.852, 753.187 539.313, 760.439 540.370, 763.555 540.516, 763.929 540.552, 764.021 543.071, 770.454 545.087, 775.606 549.186, 784.727 550.175, 786.926 554.749, 795.819 555.606, 797.486 560.675, 806.106 561.353, 807.258 566.938, 815.553 567.388, 816.221 573.509, 824.129 573.685, 824.357 580.214, 831.652 586.946, 838.101 593.855, 843.697 600.913, 848.439 608.091, 852.332 609.385, 852.875 615.364, 855.382 622.706, 857.598 630.093, 858.991 637.499, 859.579 644.902, 859.378 652.280, 858.404 659.613, 856.681 666.880, 854.232 674.064, 851.078 681.146, 847.244 688.111, 842.755 694.943, 837.640 701.627, 831.922 708.151, 825.628 714.503, 818.787 720.670, 811.425 726.643, 803.569 732.338, 795.349 732.411, 795.245 737.765, 786.799 737.966, 786.481 742.991, 777.835 743.300, 777.303 748.008, 768.481 748.405, 767.737 752.809, 758.759 753.275, 757.809 757.385, 748.693 757.903, 747.545 761.730, 738.306 762.284, 736.970 765.836, 727.622 766.411, 726.107 769.697, 716.662 770.282, 714.982 773.309, 705.451 773.891, 703.619 776.665, 694.012 777.234, 692.041 779.761, 682.366 780.308, 680.272 782.593, 670.537 783.110, 668.335 785.157, 658.546 785.637, 656.251 787.449, 646.417 787.886, 644.045 789.465, 634.170 789.854, 631.737 791.203, 621.828 791.541, 619.351 792.660, 609.413 792.942, 606.907 793.832, 596.947 794.057, 594.428 794.718, 584.450 794.885, 581.935 795.316, 571.945 795.424, 569.451 795.623, 559.453 795.672, 556.997 795.637, 546.997 795.629, 544.594 795.505, 540.014 " fill="none" stroke="rgb(0, 0, 0)" stroke-linecap="butt" stroke-linejoin="round" stroke-opacity="1.0" stroke-width="3.0" />
            <path d=" M 790.955, 547.149 790.821, 547.152 781.138, 547.331 775.646, 547.432 767.059, 547.591 766.347, 547.604 765.634, 547.618 764.920, 547.631 764.206, 547.646 754.231, 546.949 752.707, 546.842 751.857, 546.729 751.034, 546.360 750.253, 545.741 749.532, 544.883 748.884, 543.804 748.321, 542.522 747.855, 541.061 747.494, 539.451 747.245, 537.721 747.115, 535.904 747.104, 534.037 747.215, 532.154 747.443, 530.293 747.786, 528.490 748.235, 526.779 748.783, 525.193 749.419, 523.763 750.130, 522.517 750.901, 521.477 751.570, 520.696 752.239, 519.917 752.908, 519.138 753.575, 518.361 753.910, 517.972 754.195, 517.640 756.039, 515.497 757.983, 513.238 764.504, 505.657 771.026, 498.076 776.623, 491.569 786.569, 492.609 787.444, 492.700 " fill="none" stroke="rgb(0, 0, 0)" stroke-linecap="butt" stroke-linejoin="round" stroke-opacity="1.0" stroke-width="3.0" />
            <path d=" M 823.299, 508.173 822.685, 502.071 822.314, 498.382 821.025, 488.465 820.763, 486.455 819.176, 476.582 818.876, 474.719 816.980, 464.901 816.652, 463.201 814.440, 453.448 814.093, 451.922 811.559, 442.249 811.207, 440.904 808.346, 431.322 807.999, 430.163 804.797, 420.689 804.471, 419.726 800.906, 410.383 800.618, 409.628 796.670, 400.440 796.439, 399.903 792.091, 390.898 791.938, 390.581 787.174, 381.788 787.120, 381.687 781.993, 373.244 776.570, 365.265 770.859, 357.774 764.862, 350.807 758.586, 344.405 752.039, 338.600 745.234, 333.421 738.183, 328.888 730.904, 325.015 723.412, 321.812 721.838, 321.301 715.723, 319.314 707.850, 317.558 699.814, 316.576 " fill="none" stroke="rgb(0, 0, 0)" stroke-linecap="butt" stroke-linejoin="round" stroke-opacity="1.0" stroke-width="3.0" />
            <path d=" M 664.321, 321.489 665.245, 321.967 671.287, 325.830 677.151, 330.333 682.823, 335.463 688.292, 341.199 693.549, 347.512 698.587, 354.369 703.401, 361.734 707.988, 369.567 712.341, 377.847 716.452, 386.561 720.313, 395.688 723.858, 405.038 723.920, 405.202 727.134, 414.671 727.271, 415.074 730.173, 424.644 730.364, 425.274 732.977, 434.927 733.204, 435.768 735.541, 445.491 735.791, 446.529 737.857, 456.313 738.117, 457.542 739.920, 467.378 740.179, 468.788 741.725, 478.668 741.973, 480.246 743.272, 490.161 743.499, 491.891 744.135, 497.855 744.109, 499.093 744.024, 500.332 743.880, 501.559 743.679, 502.761 743.424, 503.927 743.116, 505.042 742.759, 506.097 742.357, 507.080 741.913, 507.981 741.433, 508.790 741.244, 509.050 740.920, 509.498 740.382, 510.100 739.823, 510.587 739.249, 510.957 730.469, 515.744 726.208, 518.067 " fill="none" stroke="rgb(0, 0, 0)" stroke-linecap="butt" stroke-linejoin="round" stroke-opacity="1.0" stroke-width="3.0" />
            <path d=" M 800.368, 535.298 800.856, 535.329 801.944, 535.399 803.229, 535.481 811.792, 530.317 813.883, 529.056 815.794, 527.904 823.487, 523.265 824.419, 522.702 825.398, 522.200 830.524, 519.571 829.813, 509.596 829.611, 506.763 828.622, 496.812 828.352, 494.097 827.078, 484.179 826.746, 481.599 825.179, 471.723 824.793, 469.292 822.924, 459.468 822.493, 457.202 820.313, 447.443 819.846, 445.355 817.345, 435.672 816.854, 433.774 816.516, 432.631 813.681, 423.042 813.518, 422.489 810.763, 414.279 809.839, 411.525 806.298, 402.173 805.819, 400.908 801.905, 391.706 801.463, 390.668 797.159, 381.642 796.773, 380.832 792.063, 372.010 791.753, 371.429 788.839, 366.553 786.409, 362.486 783.694, 358.433 780.747, 354.034 774.773, 346.103 768.495, 338.721 761.922, 331.917 755.065, 325.722 747.933, 320.165 740.540, 315.275 732.899, 311.079 725.026, 307.607 716.937, 304.885 708.651, 302.938 700.186, 301.791 690.196, 301.342 680.206, 300.894 675.864, 300.699 " fill="none" stroke="rgb(0, 0, 0)" stroke-linecap="butt" stroke-linejoin="round" stroke-opacity="1.0" stroke-width="3.0" />
            <path d=" M 700.186, 301.791 691.564, 301.467 683.785, 301.929 682.809, 301.987 673.943, 303.368 667.214, 305.068 664.994, 305.628 655.988, 308.781 646.956, 312.835 645.385, 313.699 644.522, 314.173 637.926, 317.798 629.554, 323.267 628.931, 323.674 620.971, 329.727 620.004, 330.462 612.466, 337.032 611.179, 338.155 604.067, 345.185 602.489, 346.745 595.804, 354.181 593.972, 356.219 587.707, 364.013 585.663, 366.556 579.810, 374.664 577.597, 377.731 574.808, 382.025 574.463, 382.556 569.811, 389.717 566.037, 396.166 563.585, 400.354 562.341, 402.480 561.902, 403.313 557.236, 412.158 556.767, 413.048 555.221, 415.978 555.022, 416.399 550.733, 425.433 548.486, 430.166 544.567, 439.367 543.404, 442.097 542.169, 444.998 538.612, 454.344 536.301, 460.417 533.098, 469.890 530.910, 476.365 528.057, 485.949 526.024, 492.779 523.517, 502.460 522.994, 504.479 521.669, 509.594 519.973, 517.243 519.369, 519.964 518.003, 526.122 517.866, 526.740 517.143, 530.634 515.317, 540.466 514.633, 544.145 513.146, 554.034 511.988, 561.736 510.840, 571.669 509.943, 579.436 509.135, 589.403 508.506, 597.170 508.041, 607.159 507.683, 614.861 507.565, 624.860 507.477, 632.433 507.712, 642.431 507.886, 649.812 508.480, 659.795 508.905, 666.925 509.201, 669.997 510.163, 679.951 510.525, 683.701 " fill="none" stroke="rgb(0, 0, 0)" stroke-linecap="butt" stroke-linejoin="round" stroke-opacity="1.0" stroke-width="3.0" />
            <path d=" M 756.039, 515.497 755.138, 505.538 755.052, 504.584 754.874, 501.887 754.847, 502.119 754.647, 503.327 754.392, 504.498 754.086, 505.619 753.731, 506.679 753.331, 507.667 752.889, 508.572 752.412, 509.385 751.904, 510.097 751.369, 510.702 750.814, 511.192 750.244, 511.563 741.493, 516.402 733.314, 520.925 732.668, 519.979 731.951, 519.229 731.173, 518.686 730.348, 518.361 729.490, 518.259 726.208, 518.067 718.328, 517.605 717.444, 517.728 716.557, 518.073 715.680, 518.637 714.830, 519.409 714.053, 520.379 713.367, 521.533 712.750, 522.847 712.212, 524.301 711.763, 525.868 711.410, 527.523 711.161, 529.237 711.018, 530.980 710.985, 532.723 711.062, 534.436 721.040, 535.095 722.261, 535.175 727.046, 532.548 727.028, 532.001 727.053, 531.446 727.121, 530.896 727.179, 530.617 727.230, 530.369 727.378, 529.877 727.560, 529.434 727.771, 529.053 728.005, 528.744 728.257, 528.515 728.518, 528.373 728.782, 528.320 " fill="none" stroke="rgb(0, 0, 0)" stroke-linecap="butt" stroke-linejoin="round" stroke-opacity="1.0" stroke-width="3.0" />
            <path d=" M 798.218, 522.284 800.269, 521.046 801.007, 520.601 801.402, 520.363 806.231, 517.449 807.133, 516.905 807.642, 516.552 808.138, 516.096 808.619, 515.541 809.081, 514.893 809.519, 514.159 809.932, 513.344 810.315, 512.456 810.665, 511.503 810.981, 510.490 811.260, 509.428 811.499, 508.323 811.697, 507.184 811.852, 506.020 811.962, 504.841 821.556, 507.661 822.979, 508.079 823.299, 508.173 823.178, 508.936 823.050, 509.532 822.940, 510.046 822.663, 511.114 822.349, 512.131 822.000, 513.090 821.620, 513.982 821.211, 514.801 820.776, 515.540 820.319, 516.191 819.842, 516.749 819.350, 517.208 818.846, 517.562 813.256, 520.990 812.246, 521.609 806.270, 525.274 805.666, 524.303 804.991, 523.532 804.258, 522.976 803.477, 522.645 802.662, 522.544 801.508, 522.476 800.338, 522.408 798.218, 522.284 794.772, 522.082 790.787, 521.849 790.246, 521.932 790.096, 521.955 789.944, 521.979 789.096, 522.339 788.256, 522.924 787.438, 523.724 786.693, 524.728 786.036, 525.921 785.444, 527.280 784.925, 528.781 784.490, 530.400 784.146, 532.109 783.899, 533.877 783.753, 535.676 783.711, 537.473 783.773, 539.239 790.787, 539.702 790.797, 539.703 795.505, 540.014 795.692, 540.026 800.230, 537.289 800.216, 536.726 800.244, 536.153 800.312, 535.586 800.368, 535.298 800.418, 535.041 800.561, 534.533 800.736, 534.076 800.818, 533.915 800.938, 533.682 801.161, 533.362 801.400, 533.124 801.648, 532.976 801.879, 532.925 801.898, 532.921 " fill="none" stroke="rgb(0, 0, 0)" stroke-linecap="butt" stroke-linejoin="round" stroke-opacity="1.0" stroke-width="3.0" />
            <path d=" M 775.646, 547.432 775.680, 554.833 775.483, 564.831 775.437, 567.164 775.000, 577.154 774.896, 579.522 774.220, 589.500 774.058, 591.888 773.146, 601.846 772.927, 604.239 771.778, 614.172 771.503, 616.552 770.117, 626.456 769.788, 628.808 768.164, 638.675 767.785, 640.982 765.923, 650.808 765.497, 653.055 763.392, 662.831 762.925, 665.003 760.576, 674.724 760.073, 676.805 757.477, 686.462 756.946, 688.438 754.097, 698.023 753.545, 699.878 750.438, 709.383 749.875, 711.104 746.504, 720.518 745.940, 722.091 742.298, 731.404 741.746, 732.817 737.825, 742.016 737.296, 743.256 733.087, 752.327 732.597, 753.384 728.091, 762.312 727.654, 763.178 722.841, 771.943 722.474, 772.612 717.343, 781.194 717.065, 781.659 711.602, 790.035 711.433, 790.294 705.588, 798.494 699.538, 806.229 693.294, 813.473 686.866, 820.201 680.266, 826.387 673.505, 832.002 666.599, 837.021 659.561, 841.419 652.407, 845.170 645.152, 848.248 637.816, 850.630 630.416, 852.295 622.971, 853.219 615.505, 853.380 609.385, 852.875 " fill="none" stroke="rgb(0, 0, 0)" stroke-linecap="butt" stroke-linejoin="round" stroke-opacity="1.0" stroke-width="3.0" />
            <path d=" M 764.206, 547.646 763.365, 547.533 762.549, 547.163 761.776, 546.541 761.061, 545.680 760.420, 544.596 759.864, 543.308 759.403, 541.841 759.047, 540.223 758.803, 538.485 758.701, 537.026 758.675, 536.660 758.667, 534.783 758.778, 532.892 759.006, 531.021 759.155, 530.229 759.347, 529.209 759.795, 527.489 760.340, 525.895 760.971, 524.458 761.677, 523.205 762.443, 522.159 763.106, 521.374 763.770, 520.590 764.434, 519.808 765.096, 519.026 765.428, 518.635 766.396, 517.495 772.867, 509.872 777.991, 503.837 784.462, 496.213 787.444, 492.700 788.533, 502.641 788.642, 503.634 789.082, 508.058 789.852, 518.028 789.974, 519.611 790.096, 521.955 " fill="none" stroke="rgb(0, 0, 0)" stroke-linecap="butt" stroke-linejoin="round" stroke-opacity="1.0" stroke-width="3.0" />
            <path d=" M 794.667, 520.032 800.243, 520.532 801.007, 520.601 " fill="none" stroke="rgb(0, 0, 0)" stroke-linecap="butt" stroke-linejoin="round" stroke-opacity="1.0" stroke-width="3.0" />
            <path d=" M 764.663, 537.417 764.350, 537.308 764.061, 537.053 763.809, 536.666 763.607, 536.162 763.462, 535.565 763.381, 534.898 763.367, 534.193 763.422, 533.480 763.542, 532.790 763.722, 532.154 763.955, 531.599 764.231, 531.150 764.536, 530.826 764.857, 530.643 765.181, 530.607 " fill="none" stroke="rgb(0, 0, 0)" stroke-linecap="butt" stroke-linejoin="round" stroke-opacity="1.0" stroke-width="3.0" />
            <path d=" M 765.181, 530.607 765.494, 530.719 765.782, 530.974 766.032, 531.362 766.234, 531.865 766.378, 532.462 766.458, 533.126 766.471, 533.829 766.417, 534.539 766.298, 535.227 766.118, 535.862 765.886, 536.416 765.612, 536.865 765.308, 537.190 764.987, 537.377 764.663, 537.417 " fill="none" stroke="rgb(0, 0, 0)" stroke-linecap="butt" stroke-linejoin="round" stroke-opacity="1.0" stroke-width="3.0" />
            <path d=" M 800.856, 535.329 801.049, 542.632 801.078, 552.632 801.087, 555.616 800.883, 565.614 800.821, 568.652 800.386, 578.642 800.252, 581.718 799.588, 591.696 799.382, 594.793 798.490, 604.753 798.213, 607.854 797.092, 617.791 796.744, 620.880 795.395, 630.789 794.979, 633.849 793.401, 643.724 792.919, 646.738 791.109, 656.573 790.566, 659.525 788.522, 669.314 787.922, 672.186 785.640, 681.923 784.990, 684.701 782.467, 694.377 781.772, 697.044 779.004, 706.653 778.273, 709.192 775.253, 718.725 774.494, 721.121 771.216, 730.569 770.440, 732.807 766.898, 742.159 766.116, 744.225 762.301, 753.469 761.524, 755.349 757.427, 764.471 756.672, 766.153 752.284, 775.139 751.564, 776.612 746.874, 785.444 746.207, 786.699 741.202, 795.356 740.607, 796.385 735.275, 804.845 734.772, 805.644 729.101, 813.881 728.710, 814.449 722.686, 822.431 722.430, 822.769 716.039, 830.460 715.942, 830.576 709.257, 837.843 702.386, 844.540 695.342, 850.637 688.139, 856.106 680.791, 860.920 673.315, 865.049 665.726, 868.465 658.045, 871.143 650.289, 873.057 642.480, 874.183 634.640, 874.495 626.791, 873.975 618.959, 872.603 611.167, 870.362 603.444, 867.237 595.815, 863.219 588.310, 858.298 580.957, 852.470 573.787, 845.734 567.052, 838.341 566.828, 838.095 560.644, 830.236 560.112, 829.560 554.467, 821.305 553.670, 820.140 548.544, 811.553 547.530, 809.854 542.904, 800.989 541.723, 798.726 538.736, 792.170 536.280, 786.781 535.993, 786.058 534.735, 782.888 531.227, 774.051 529.436, 768.843 528.223, 765.317 526.592, 760.577 523.757, 750.987 522.401, 746.400 522.380, 746.319 520.532, 738.956 518.678, 731.568 516.628, 721.781 515.445, 716.135 513.764, 706.278 512.721, 700.159 511.399, 690.247 510.525, 683.701 508.124, 676.229 505.064, 666.709 504.701, 665.580 " fill="none" stroke="rgb(0, 0, 0)" stroke-linecap="butt" stroke-linejoin="round" stroke-opacity="1.0" stroke-width="3.0" />
            <path d=" M 675.864, 300.699 668.047, 300.351 660.112, 300.841 659.605, 300.926 652.080, 302.188 643.975, 304.411 635.822, 307.525 627.647, 311.540 619.478, 316.464 611.343, 322.303 603.674, 328.720 603.273, 329.056 596.062, 335.984 595.298, 336.718 588.542, 344.091 587.450, 345.283 581.141, 353.041 579.763, 354.737 573.888, 362.829 573.201, 363.775 572.803, 364.324 572.267, 365.061 566.813, 373.442 565.084, 376.098 564.998, 376.230 562.633, 380.275 560.960, 383.135 557.987, 388.218 555.841, 392.299 554.138, 395.536 551.269, 400.991 546.992, 410.030 544.874, 414.506 542.711, 419.595 538.834, 428.721 535.279, 438.067 533.180, 443.585 529.970, 453.056 527.941, 459.044 525.067, 468.622 523.142, 475.036 520.597, 484.707 518.810, 491.501 516.589, 501.251 514.968, 508.369 513.066, 518.186 511.635, 525.570 511.549, 526.104 509.962, 535.977 508.828, 543.030 507.554, 552.949 506.562, 560.675 505.602, 570.629 504.850, 578.427 504.204, 588.406 503.698, 596.209 503.367, 606.203 503.111, 613.942 503.100, 623.942 503.092, 631.551 503.405, 641.546 503.638, 648.959 504.276, 658.939 504.701, 665.580 503.958, 675.552 503.278, 684.676 " fill="none" stroke="rgb(0, 0, 0)" stroke-linecap="butt" stroke-linejoin="round" stroke-opacity="1.0" stroke-width="3.0" />
            <path d=" M 505.568, 701.659 507.264, 711.515 508.404, 718.139 510.471, 727.923 511.766, 734.052 514.220, 743.746 515.634, 749.337 516.935, 753.698 518.814, 760.002 519.987, 763.937 523.263, 773.385 524.796, 777.805 525.084, 778.524 526.348, 781.683 530.035, 790.895 531.971, 795.105 533.275, 797.943 535.677, 803.167 536.131, 804.029 540.790, 812.877 541.691, 814.589 546.853, 823.154 548.046, 825.133 553.731, 833.360 554.710, 834.777 560.937, 842.602 561.653, 843.502 568.432, 850.853 568.842, 851.297 576.245, 858.156 583.831, 864.075 591.570, 869.056 599.431, 873.107 607.385, 876.236 615.404, 878.455 623.461, 879.781 631.529, 880.233 639.584, 879.832 647.603, 878.598 655.563, 876.558 663.444, 873.740 671.225, 870.168 678.888, 865.869 686.417, 860.875 693.795, 855.215 701.007, 848.917 708.041, 842.011 714.788, 834.631 714.883, 834.528 721.254, 826.821 721.521, 826.497 727.528, 818.503 727.946, 817.947 733.603, 809.701 734.147, 808.907 739.467, 800.440 740.116, 799.408 745.112, 790.745 745.844, 789.476 750.528, 780.641 751.324, 779.139 755.708, 770.152 756.549, 768.426 760.643, 759.303 761.513, 757.364 765.328, 748.120 766.211, 745.978 769.754, 736.627 770.637, 734.295 773.917, 724.848 774.787, 722.340 777.811, 712.808 778.657, 710.138 781.430, 700.530 782.242, 697.714 784.770, 688.039 785.539, 685.092 787.827, 675.357 788.546, 672.296 790.596, 662.508 791.258, 659.349 793.075, 649.515 793.674, 646.274 795.259, 636.400 795.790, 633.094 797.146, 623.186 797.605, 619.832 798.732, 609.896 799.117, 606.510 800.015, 596.550 800.322, 593.150 800.993, 583.173 801.221, 579.775 801.662, 569.785 801.811, 566.408 802.021, 556.410 802.091, 553.070 802.066, 543.070 802.058, 539.783 801.944, 535.399 " fill="none" stroke="rgb(0, 0, 0)" stroke-linecap="butt" stroke-linejoin="round" stroke-opacity="1.0" stroke-width="3.0" />
            <path d=" M 503.278, 684.676 504.614, 694.587 504.630, 694.704 505.568, 701.659 " fill="none" stroke="rgb(0, 0, 0)" stroke-linecap="butt" stroke-linejoin="round" stroke-opacity="1.0" stroke-width="3.0" />
            <path d=" M 816.516, 432.631 816.082, 430.187 814.101, 420.385 813.851, 419.150 811.634, 409.399 811.385, 408.303 808.924, 398.610 808.683, 397.662 805.967, 388.038 805.744, 387.247 802.763, 377.702 802.568, 377.076 799.315, 367.619 799.158, 367.162 795.622, 357.808 795.515, 357.523 791.686, 348.285 791.641, 348.177 787.538, 339.140 783.207, 330.434 778.651, 322.079 773.869, 314.098 768.867, 306.511 763.649, 299.335 758.219, 292.588 752.583, 286.290 746.745, 280.460 740.713, 275.120 734.491, 270.291 728.087, 265.999 721.509, 262.266 714.766, 259.113 707.867, 256.555 700.824, 254.608 693.648, 253.290 686.351, 252.620 678.945, 252.614 677.536, 252.741 671.446, 253.291 663.868, 254.671 656.228, 256.770 648.542, 259.596 640.829, 263.156 633.105, 267.455 625.391, 272.499 617.706, 278.291 610.886, 284.136 610.073, 284.834 602.876, 291.777 602.512, 292.129 595.712, 299.461 595.048, 300.177 588.638, 307.853 587.704, 308.972 586.020, 311.199 580.502, 318.498 576.857, 323.805 573.466, 328.741 569.900, 334.436 569.436, 335.177 566.617, 339.680 563.162, 345.724 560.715, 350.007 559.978, 351.296 559.092, 352.993 554.465, 361.858 554.030, 362.689 553.573, 363.566 552.380, 366.069 548.078, 375.096 547.426, 376.464 543.442, 385.636 541.562, 389.963 541.277, 390.683 537.602, 399.984 537.349, 400.627 536.004, 404.030 532.631, 413.445 530.773, 418.630 527.694, 428.144 525.889, 433.717 523.095, 443.319 521.369, 449.249 518.853, 458.928 517.229, 465.179 514.988, 474.925 513.486, 481.459 511.517, 491.264 510.155, 498.040 508.456, 507.895 507.252, 514.870 505.822, 524.768 505.631, 526.088 504.791, 531.896 503.628, 541.829 502.781, 549.063 501.883, 559.022 501.226, 566.312 500.593, 576.292 500.130, 583.589 499.763, 593.582 499.497, 600.836 499.401, 610.835 499.331, 617.996 499.508, 627.995 499.631, 635.014 500.083, 645.004 500.392, 651.836 501.125, 661.809 501.610, 668.407 502.630, 678.355 503.278, 684.676 504.592, 694.590 504.616, 694.774 505.387, 700.593 505.568, 701.659 507.179, 711.529 507.927, 716.110 509.853, 725.923 510.885, 731.183 513.130, 740.928 514.246, 745.769 516.653, 754.792 517.997, 759.828 518.455, 761.328 521.376, 770.892 522.119, 773.325 524.603, 780.486 525.778, 783.873 526.595, 786.228 530.241, 795.539 531.255, 798.127 531.404, 798.508 532.536, 801.079 535.338, 807.439 536.528, 810.138 540.964, 819.100 541.949, 821.091 546.806, 829.832 547.647, 831.346 552.937, 839.832 553.598, 840.892 559.334, 849.083 559.778, 849.717 565.973, 857.567 566.167, 857.813 572.743, 865.172 579.485, 871.791 586.373, 877.663 593.388, 882.788 600.509, 887.168 607.714, 890.814 614.984, 893.736 621.702, 895.765 622.299, 895.946 629.643, 897.456 636.997, 898.279 644.346, 898.426 651.674, 897.910 658.967, 896.744 666.210, 894.946 673.389, 892.540 680.492, 889.547 687.506, 885.987 694.421, 881.879 701.226, 877.242 707.911, 872.095 714.467, 866.453 720.885, 860.335 727.158, 853.763 733.278, 846.761 739.239, 839.349 745.034, 831.549 750.659, 823.378 756.045, 814.952 756.108, 814.855 761.218, 806.259 761.375, 805.996 766.217, 797.246 766.455, 796.817 771.038, 787.929 771.344, 787.335 775.677, 778.323 776.038, 777.571 780.130, 768.447 780.535, 767.544 784.394, 758.319 784.832, 757.271 788.465, 747.954 788.927, 746.770 792.339, 737.370 792.816, 736.055 796.013, 726.580 796.498, 725.143 799.482, 715.599 799.968, 714.047 802.744, 704.441 803.223, 702.782 805.795, 693.119 806.262, 691.363 808.634, 681.648 809.084, 679.806 811.260, 670.046 811.688, 668.127 813.671, 658.325 814.073, 656.340 815.866, 646.502 816.238, 644.459 817.841, 634.588 818.181, 632.498 819.595, 622.599 819.899, 620.470 821.125, 610.546 821.391, 608.389 822.429, 598.443 822.655, 596.269 823.506, 586.305 823.692, 584.123 824.356, 574.145 824.501, 571.966 824.978, 561.977 825.082, 559.810 825.370, 549.814 825.431, 547.670 825.529, 537.670 825.549, 535.559 825.454, 525.559 825.435, 523.490 825.398, 522.200 " fill="none" stroke="rgb(0, 0, 0)" stroke-linecap="butt" stroke-linejoin="round" stroke-opacity="1.0" stroke-width="3.0" />
            <path d=" M 676.724, 252.740 669.215, 253.418 661.627, 254.798 653.977, 256.895 646.281, 259.719 638.558, 263.277 630.825, 267.573 623.102, 272.612 615.409, 278.399 609.581, 283.384 607.766, 284.936 600.563, 291.872 600.197, 292.224 593.390, 299.550 592.725, 300.265 586.308, 307.934 585.374, 309.050 580.218, 315.858 578.166, 318.567 572.496, 326.804 571.123, 328.798 570.014, 330.566 569.497, 331.390 569.024, 332.144 564.267, 339.726 562.889, 342.133 560.438, 346.414 558.819, 349.241 557.623, 351.330 553.752, 358.732 552.085, 361.918 551.213, 363.586 546.904, 372.611 545.061, 376.470 541.070, 385.639 540.971, 385.866 539.192, 389.954 535.512, 399.252 533.630, 404.006 530.253, 413.418 528.397, 418.589 526.383, 424.800 523.510, 433.659 520.711, 443.260 518.987, 449.174 516.468, 458.851 514.845, 465.085 512.601, 474.830 511.101, 481.347 509.129, 491.151 507.770, 497.909 506.068, 507.763 504.866, 514.720 503.434, 524.617 503.222, 526.081 502.405, 531.726 501.241, 541.658 500.396, 548.873 499.497, 558.832 498.842, 566.103 498.209, 576.083 497.747, 583.359 497.382, 593.353 497.117, 600.587 497.022, 610.586 496.954, 617.728 497.132, 627.726 497.256, 634.727 497.711, 644.717 498.021, 651.530 498.757, 661.503 499.243, 668.084 500.266, 678.031 500.915, 684.335 502.233, 694.248 503.029, 700.235 503.225, 701.428 504.846, 711.296 505.575, 715.736 507.505, 725.548 508.538, 730.793 510.789, 740.537 511.905, 745.365 514.489, 755.025 515.560, 759.032 515.662, 759.411 517.388, 765.047 519.791, 772.895 523.075, 782.340 523.679, 784.077 524.274, 785.785 524.875, 787.318 528.529, 796.626 529.090, 798.054 530.510, 801.269 531.785, 804.156 534.222, 809.675 534.628, 810.494 539.073, 819.452 539.651, 820.618 544.516, 829.355 545.357, 830.866 550.656, 839.347 551.316, 840.404 557.061, 848.589 557.506, 849.223 563.709, 857.067 563.904, 857.314 570.489, 864.669 577.240, 871.284 584.138, 877.155 591.162, 882.278 598.292, 886.658 605.508, 890.304 612.787, 893.227 620.113, 895.438 " fill="none" stroke="rgb(0, 0, 0)" stroke-linecap="butt" stroke-linejoin="round" stroke-opacity="1.0" stroke-width="3.0" />
            <path d=" M 678.945, 252.614 676.724, 252.740 " fill="none" stroke="rgb(0, 0, 0)" stroke-linecap="butt" stroke-linejoin="round" stroke-opacity="1.0" stroke-width="3.0" />
            <path d=" M 620.113, 895.438 622.299, 895.946 " fill="none" stroke="rgb(0, 0, 0)" stroke-linecap="butt" stroke-linejoin="round" stroke-opacity="1.0" stroke-width="3.0" />
            <path d=" M 485.419, 687.820 486.761, 697.730 487.887, 706.036 489.536, 715.899 490.853, 723.776 492.817, 733.581 493.915, 739.062 494.300, 740.986 495.677, 746.838 497.967, 756.573 498.213, 757.618 500.839, 767.267 500.955, 767.692 502.570, 773.625 505.035, 781.533 506.906, 787.533 507.352, 788.964 508.434, 792.019 509.999, 796.437 511.133, 799.637 512.536, 803.598 515.770, 811.675 516.924, 814.559 518.099, 817.494 519.454, 820.501 520.703, 823.270 523.159, 828.719 524.016, 830.621 524.409, 831.397 525.039, 832.640 527.627, 837.749 530.264, 842.956 535.207, 851.648 536.815, 854.476 542.200, 862.902 543.646, 865.165 549.485, 873.283 550.728, 875.011 557.036, 882.771 558.038, 884.004 564.821, 891.351 565.549, 892.138 572.811, 899.013 573.235, 899.414 580.972, 905.749 581.072, 905.830 589.036, 911.393 597.102, 916.109 605.248, 919.988 613.452, 923.042 621.692, 925.285 626.012, 926.345 634.246, 927.787 642.478, 928.450 650.687, 928.354 658.858, 927.518 666.974, 925.964 675.019, 923.713 682.979, 920.790 690.841, 917.215 698.592, 913.014 706.220, 908.210 713.715, 902.826 721.066, 896.886 728.264, 890.414 735.302, 883.434 742.072, 876.074 742.170, 875.967 748.619, 868.325 748.862, 868.038 755.001, 860.144 755.371, 859.668 761.210, 851.550 761.692, 850.880 767.241, 842.561 767.819, 841.696 773.089, 833.197 773.747, 832.135 778.747, 823.475 779.471, 822.220 784.211, 813.414 784.988, 811.970 789.476, 803.034 790.294, 801.405 794.539, 792.350 795.386, 790.544 799.394, 781.382 800.260, 779.405 804.040, 770.147 804.913, 768.008 808.471, 758.662 809.345, 756.369 812.686, 746.943 813.551, 744.505 816.682, 735.008 817.530, 732.435 820.455, 722.872 821.281, 720.174 824.005, 710.552 824.801, 707.737 827.327, 698.062 828.089, 695.142 830.421, 685.418 831.144, 682.403 833.284, 672.635 833.963, 669.535 835.915, 659.727 836.547, 656.553 838.312, 646.710 838.893, 643.471 840.473, 633.597 841.000, 630.305 842.397, 620.403 842.868, 617.067 844.082, 607.141 844.495, 603.772 845.528, 593.826 845.880, 590.434 846.731, 580.471 847.022, 577.067 847.692, 567.089 847.920, 563.684 848.408, 553.696 848.574, 550.299 848.878, 540.304 848.981, 536.926 849.101, 526.927 849.142, 523.579 849.076, 513.580 849.054, 510.272 848.801, 500.275 848.718, 497.019 848.274, 487.029 848.132, 483.834 847.494, 473.854 847.295, 470.731 846.461, 460.766 846.206, 457.726 845.172, 447.780 844.865, 444.834 843.626, 434.911 843.271, 432.069 841.821, 422.174 841.422, 419.447 839.757, 409.587 839.318, 406.985 837.433, 397.164 836.959, 394.698 834.846, 384.924 834.344, 382.604 831.996, 372.884 831.473, 370.720 828.881, 361.061 828.345, 359.063 825.502, 349.476 824.961, 347.652 821.856, 338.146 821.320, 336.505 817.944, 327.092 817.424, 325.642 813.765, 316.336 813.272, 315.083 809.318, 305.898 808.866, 304.847 804.604, 295.801 804.207, 294.956 799.624, 286.068 799.296, 285.432 794.379, 276.724 794.136, 276.295 788.870, 267.794 788.730, 267.568 783.080, 259.275 777.189, 251.438 771.063, 244.081 764.706, 237.229 758.122, 230.906 751.320, 225.136 744.305, 219.944 737.085, 215.356 729.669, 211.394 722.068, 208.086 714.291, 205.453 706.350, 203.521 698.259, 202.312 690.031, 201.848 681.681, 202.151 677.262, 202.501 668.784, 203.592 660.218, 205.487 651.582, 208.202 642.898, 211.753 634.185, 216.153 625.621, 221.317 625.466, 221.411 617.288, 227.167 616.764, 227.537 608.985, 233.821 608.103, 234.534 600.728, 241.287 599.509, 242.404 592.537, 249.574 591.007, 251.147 584.434, 258.683 582.625, 260.757 581.564, 262.106 575.381, 269.966 574.390, 271.225 568.587, 279.370 566.329, 282.539 562.719, 288.118 562.113, 289.055 558.842, 294.111 558.573, 294.526 558.472, 294.682 556.050, 298.795 555.447, 299.819 554.464, 301.488 551.307, 306.849 550.846, 307.633 549.752, 309.671 549.290, 310.533 547.691, 313.515 543.479, 321.366 541.320, 325.786 539.744, 329.010 536.665, 335.311 536.401, 335.852 532.337, 344.989 529.639, 351.056 527.189, 357.117 523.442, 366.388 523.219, 366.942 519.780, 376.332 517.168, 383.465 514.030, 392.960 511.511, 400.580 508.666, 410.167 506.272, 418.237 503.715, 427.904 501.473, 436.380 499.198, 446.118 497.834, 451.960 497.134, 454.954 495.614, 462.415 493.618, 472.214 493.275, 473.898 491.554, 483.749 489.911, 493.149 488.463, 503.044 487.824, 507.410 487.058, 512.642 487.022, 512.944 486.906, 513.921 486.581, 516.663 486.343, 518.669 486.247, 519.483 486.183, 520.020 486.034, 521.273 484.857, 531.204 484.726, 532.311 483.819, 542.270 482.925, 552.088 482.289, 562.068 481.661, 571.904 481.297, 581.897 480.940, 591.690 480.850, 601.690 480.762, 611.379 480.949, 621.377 481.126, 630.901 481.594, 640.890 482.028, 650.192 482.781, 660.163 483.145, 664.981 483.462, 669.185 484.507, 679.131 485.419, 687.820 " fill="none" stroke="rgb(0, 0, 0)" stroke-linecap="butt" stroke-linejoin="round" stroke-opacity="1.0" stroke-width="3.0" />
            <path d=" M 681.681, 202.151 673.225, 203.241 664.681, 205.137 656.068, 207.854 647.405, 211.409 638.713, 215.815 630.159, 220.994 630.014, 221.081 621.847, 226.852 621.332, 227.216 613.566, 233.516 612.690, 234.225 605.329, 240.994 604.115, 242.110 597.157, 249.293 595.631, 250.869 589.072, 258.418 587.265, 260.498 584.147, 264.477 579.046, 270.987 573.258, 279.142 571.000, 282.324 565.582, 290.729 563.717, 293.623 563.157, 294.491 563.135, 294.529 559.267, 301.123 556.754, 305.406 555.544, 307.469 555.180, 308.150 550.467, 316.970 550.079, 317.695 548.469, 320.708 548.189, 321.232 543.812, 330.223 541.122, 335.749 537.542, 343.828 534.369, 350.987 530.634, 360.263 527.958, 366.907 524.530, 376.301 521.914, 383.468 519.087, 392.053 516.264, 400.622 513.428, 410.211 511.030, 418.318 508.481, 427.988 506.235, 436.503 503.967, 446.243 501.900, 455.120 499.909, 464.920 498.042, 474.108 496.325, 483.959 495.518, 488.589 494.679, 493.403 493.234, 503.298 492.620, 507.502 491.825, 512.941 491.375, 516.746 491.041, 519.568 490.613, 523.180 489.491, 532.656 489.377, 533.910 488.471, 543.869 487.688, 552.478 487.623, 553.488 486.987, 563.468 486.421, 572.339 486.244, 577.176 485.878, 587.169 485.695, 592.171 485.632, 598.907 485.539, 608.907 485.511, 611.904 485.693, 621.902 485.868, 631.470 486.330, 641.459 486.762, 650.803 487.509, 660.776 487.864, 665.523 488.090, 668.542 488.187, 669.839 488.700, 674.762 489.279, 680.314 489.382, 681.299 490.134, 688.514 491.468, 698.424 492.197, 703.842 492.382, 705.213 492.591, 706.768 494.230, 716.633 495.545, 724.545 496.546, 729.573 498.500, 739.380 498.980, 741.791 501.258, 751.528 502.879, 758.456 505.493, 768.109 507.222, 774.494 509.178, 780.802 510.722, 785.778 511.989, 789.862 515.313, 799.294 517.157, 804.524 517.618, 805.680 518.802, 808.651 521.758, 816.072 522.703, 818.444 524.792, 823.098 526.030, 825.859 528.604, 831.594 529.060, 832.500 533.563, 841.429 534.833, 843.948 539.760, 852.650 541.366, 855.486 546.734, 863.923 548.177, 866.190 554.001, 874.319 555.241, 876.049 561.533, 883.821 562.530, 885.052 569.300, 892.412 570.020, 893.196 577.271, 900.083 577.686, 900.477 585.413, 906.825 585.501, 906.898 593.443, 912.463 601.488, 917.179 609.612, 921.056 617.794, 924.107 626.012, 926.345 " fill="none" stroke="rgb(0, 0, 0)" stroke-linecap="butt" stroke-linejoin="round" stroke-opacity="1.0" stroke-width="3.0" />
            <path d=" M 729.490, 518.259 728.612, 518.383 727.730, 518.730 726.859, 519.297 726.013, 520.073 725.699, 520.471 725.242, 521.049 724.560, 522.209 723.946, 523.530 723.411, 524.991 722.964, 526.566 722.675, 527.936 722.613, 528.229 722.363, 529.952 722.334, 530.308 722.220, 531.703 722.186, 533.455 722.261, 535.175 " fill="none" stroke="rgb(0, 0, 0)" stroke-linecap="butt" stroke-linejoin="round" stroke-opacity="1.0" stroke-width="3.0" />
            <path d=" M 728.782, 528.320 729.042, 528.360 729.291, 528.489 729.521, 528.706 729.727, 529.003 729.903, 529.374 730.045, 529.806 730.147, 530.290 730.209, 530.811 " fill="none" stroke="rgb(0, 0, 0)" stroke-linecap="butt" stroke-linejoin="round" stroke-opacity="1.0" stroke-width="3.0" />
            <path d=" M 727.179, 530.617 730.209, 530.811 738.974, 525.998 747.740, 521.185 754.195, 517.640 " fill="none" stroke="rgb(0, 0, 0)" stroke-linecap="butt" stroke-linejoin="round" stroke-opacity="1.0" stroke-width="3.0" />
            <path d=" M 802.662, 522.544 801.826, 522.676 800.985, 523.039 800.151, 523.627 799.339, 524.431 799.038, 524.843 798.599, 525.441 797.948, 526.641 797.359, 528.007 796.844, 529.516 796.412, 531.143 796.130, 532.558 796.069, 532.860 795.822, 534.638 795.793, 535.005 795.676, 536.446 795.632, 538.252 795.692, 540.026 " fill="none" stroke="rgb(0, 0, 0)" stroke-linecap="butt" stroke-linejoin="round" stroke-opacity="1.0" stroke-width="3.0" />
            <path d=" M 801.898, 532.921 802.143, 532.960 802.377, 533.092 802.593, 533.314 802.786, 533.620 802.950, 534.000 803.080, 534.446 803.174, 534.944 803.229, 535.481 " fill="none" stroke="rgb(0, 0, 0)" stroke-linecap="butt" stroke-linejoin="round" stroke-opacity="1.0" stroke-width="3.0" />
            <path d=" M 779.202, 479.810 779.339, 479.733 779.486, 479.678 779.643, 479.648 779.804, 479.642 780.024, 479.674 780.240, 479.750 780.442, 479.868 780.623, 480.023 780.776, 480.210 780.897, 480.423 780.981, 480.658 781.021, 480.908 781.015, 481.142 780.967, 481.365 780.878, 481.569 780.752, 481.747 780.593, 481.892 780.406, 481.998 " fill="none" stroke="rgb(0, 0, 0)" stroke-linecap="butt" stroke-linejoin="round" stroke-opacity="1.0" stroke-width="3.0" />
            <path d=" M 779.202, 479.810 779.143, 479.850 778.968, 480.000 778.827, 480.182 778.796, 480.230 778.691, 480.445 778.630, 480.681 778.620, 480.931 778.659, 481.165 778.671, 481.218 778.755, 481.437 778.882, 481.634 779.046, 481.802 779.088, 481.837 779.275, 481.963 779.334, 481.987 779.528, 482.065 779.585, 482.079 779.656, 482.089 779.806, 482.109 779.848, 482.112 779.898, 482.113 779.949, 482.111 780.000, 482.107 780.049, 482.101 780.094, 482.093 780.134, 482.084 780.289, 482.040 780.355, 482.020 780.406, 481.998 " fill="none" stroke="rgb(0, 0, 0)" stroke-linecap="butt" stroke-linejoin="round" stroke-opacity="1.0" stroke-width="3.0" />
            <path d=" M 776.843, 477.700 777.246, 483.782 781.230, 483.953 782.928, 484.026 783.572, 483.524 782.677, 477.852 780.396, 477.694 777.273, 477.477 776.843, 477.700 " fill="none" stroke="rgb(0, 0, 0)" stroke-linecap="butt" stroke-linejoin="round" stroke-opacity="1.0" stroke-width="3.0" />
            <path d=" M 782.928, 484.026 782.530, 477.929 " fill="none" stroke="rgb(0, 0, 0)" stroke-linecap="butt" stroke-linejoin="round" stroke-opacity="1.0" stroke-width="3.0" />
            <path d=" M 782.677, 477.852 782.530, 477.929 776.843, 477.700 " fill="none" stroke="rgb(0, 0, 0)" stroke-linecap="butt" stroke-linejoin="round" stroke-opacity="1.0" stroke-width="3.0" />
            <path d=" M 741.244, 509.050 738.793, 509.044 728.794, 509.209 727.309, 509.234 717.315, 509.574 715.844, 509.624 705.856, 510.122 704.392, 510.194 694.412, 510.831 692.948, 510.924 682.977, 511.682 681.508, 511.794 671.545, 512.657 670.065, 512.785 660.111, 513.735 658.616, 513.878 648.669, 514.900 647.156, 515.055 637.214, 516.133 635.679, 516.299 625.741, 517.416 624.180, 517.592 614.246, 518.734 612.655, 518.917 602.722, 520.068 601.099, 520.256 591.165, 521.404 589.508, 521.595 579.571, 522.723 577.875, 522.916 578.164, 512.920 578.295, 508.380 578.468, 498.382 578.548, 493.810 578.607, 483.810 578.634, 479.223 578.577, 469.223 578.552, 464.640 578.380, 454.642 578.302, 450.079 578.014, 440.083 577.883, 435.558 577.478, 425.566 577.296, 421.097 576.771, 411.111 576.540, 406.716 576.237, 402.040 " fill="none" stroke="rgb(0, 0, 0)" stroke-linecap="butt" stroke-linejoin="round" stroke-opacity="1.0" stroke-width="3.0" />
            <path d=" M 581.564, 262.106 581.001, 261.590 574.085, 254.366 573.606, 253.865 567.145, 246.232 566.574, 245.557 560.567, 237.562 559.929, 236.712 554.372, 228.398 553.690, 227.376 548.580, 218.781 547.874, 217.593 547.710, 217.282 543.041, 208.438 542.494, 207.403 541.731, 205.769 541.637, 205.570 538.075, 197.946 537.560, 196.844 " fill="none" stroke="rgb(0, 0, 0)" stroke-linecap="butt" stroke-linejoin="round" stroke-opacity="1.0" stroke-width="3.0" />
            <path d=" M 537.560, 196.844 533.758, 188.117 529.801, 180.005 529.698, 179.818 525.766, 172.679 525.693, 172.545 521.439, 165.776 518.318, 161.487 517.046, 159.739 514.187, 156.416 512.520, 154.477 507.868, 150.029 503.101, 146.435 500.296, 144.884 498.227, 143.739 497.373, 143.436 493.257, 141.980 488.205, 141.195 483.082, 141.423 477.904, 142.701 472.687, 145.061 470.812, 146.303 469.942, 146.880 467.448, 148.532 464.535, 151.092 462.205, 153.139 456.978, 158.908 453.029, 164.192 451.788, 165.854 451.762, 165.895 446.865, 173.654 446.656, 173.986 441.893, 182.780 441.605, 183.312 437.350, 192.362 436.660, 193.831 432.853, 203.078 431.843, 205.532 428.436, 214.934 427.181, 218.397 424.133, 227.921 422.698, 232.403 419.974, 242.025 418.419, 247.517 415.991, 257.218 414.370, 263.694 412.213, 273.458 410.573, 280.882 408.668, 290.699 407.053, 299.022 405.384, 308.882 403.833, 318.044 402.385, 327.939 400.932, 337.869 399.694, 347.792 398.456, 357.715 398.370, 358.410 397.334, 368.356 396.298, 378.303 396.165, 379.576 395.323, 389.540 394.480, 399.505 394.331, 401.267 393.677, 411.245 393.022, 421.224 392.881, 423.377 392.410, 433.366 391.940, 443.355 391.825, 445.796 391.851, 445.882 394.860, 455.418 397.712, 464.460 398.394, 466.529 401.525, 476.026 403.673, 482.542 406.930, 491.997 409.711, 500.067 413.097, 509.476 415.827, 517.058 419.345, 526.419 422.022, 533.540 425.675, 542.849 428.298, 549.534 432.088, 558.788 434.657, 565.062 438.586, 574.258 441.101, 580.145 445.171, 589.279 447.632, 594.802 451.845, 603.871 454.251, 609.052 458.608, 618.054 460.961, 622.915 465.462, 631.844 467.762, 636.407 472.409, 645.262 474.658, 649.546 479.451, 658.323 481.650, 662.349 483.145, 664.981 " fill="none" stroke="rgb(0, 0, 0)" stroke-linecap="butt" stroke-linejoin="round" stroke-opacity="1.0" stroke-width="3.0" />
            <path d=" M 362.316, 436.874 357.780, 445.785 355.278, 450.698 " fill="none" stroke="rgb(0, 0, 0)" stroke-linecap="butt" stroke-linejoin="round" stroke-opacity="1.0" stroke-width="3.0" />
            <path d=" M 470.812, 146.303 465.230, 146.623 " fill="none" stroke="rgb(0, 0, 0)" stroke-linecap="butt" stroke-linejoin="round" stroke-opacity="1.0" stroke-width="3.0" />
            <path d=" M 537.984, 490.839 538.099, 490.907 " fill="none" stroke="rgb(0, 0, 0)" stroke-linecap="butt" stroke-linejoin="round" stroke-opacity="1.0" stroke-width="3.0" />
            <path d=" M 535.479, 499.431 541.024, 499.681 533.885, 505.628 " fill="none" stroke="rgb(0, 0, 0)" stroke-linecap="butt" stroke-linejoin="round" stroke-opacity="1.0" stroke-width="3.0" />
            <path d=" M 790.787, 539.702 790.955, 547.149 " fill="none" stroke="rgb(0, 0, 0)" stroke-linecap="butt" stroke-linejoin="round" stroke-opacity="1.0" stroke-width="3.0" />
            <path d=" M 794.772, 522.082 794.667, 520.032 " fill="none" stroke="rgb(0, 0, 0)" stroke-linecap="butt" stroke-linejoin="round" stroke-opacity="1.0" stroke-width="3.0" />
            <path d=" M 800.269, 521.046 800.243, 520.532 " fill="none" stroke="rgb(0, 0, 0)" stroke-linecap="butt" stroke-linejoin="round" stroke-opacity="1.0" stroke-width="3.0" />
        </g>
    </g>
</svg>
