<?xml version='1.0' encoding='ascii'?>
<svg xmlns="http://www.w3.org/2000/svg" height="1080" version="1.1" width="1080">
    <g id="View Layer_LineSet" inkscape:groupmode="lineset" inkscape:label="View Layer_LineSet" xmlns:inkscape="http://www.inkscape.org/namespaces/inkscape">
        <g id="strokes" inkscape:groupmode="layer" inkscape:label="strokes" xmlns:inkscape="http://www.inkscape.org/namespaces/inkscape">
            <path d=" M 565.427, 508.076 565.385, 508.658 " fill="none" stroke="rgb(0, 0, 0)" stroke-linecap="butt" stroke-linejoin="round" stroke-opacity="1.0" stroke-width="3.0" />
            <path d=" M 355.536, 444.917 361.944, 443.621 " fill="none" stroke="rgb(0, 0, 0)" stroke-linecap="butt" stroke-linejoin="round" stroke-opacity="1.0" stroke-width="3.0" />
            <path d=" M 379.874, 443.765 389.801, 444.967 391.856, 445.216 " fill="none" stroke="rgb(0, 0, 0)" stroke-linecap="butt" stroke-linejoin="round" stroke-opacity="1.0" stroke-width="3.0" />
            <path d=" M 391.856, 445.216 388.087, 435.953 384.318, 426.691 383.613, 424.959 " fill="none" stroke="rgb(0, 0, 0)" stroke-linecap="butt" stroke-linejoin="round" stroke-opacity="1.0" stroke-width="3.0" />
            <path d=" M 465.952, 144.522 461.433, 145.219 456.861, 147.013 452.253, 149.937 447.623, 154.019 442.989, 159.288 439.268, 164.506 438.369, 165.766 438.348, 165.802 433.782, 173.466 429.248, 182.397 425.232, 191.555 424.789, 192.565 421.215, 201.904 420.427, 203.961 417.238, 213.439 416.184, 216.572 413.336, 226.158 412.083, 230.376 409.540, 240.047 408.148, 245.343 405.879, 255.082 404.401, 261.429 402.382, 271.224 400.865, 278.584 399.077, 288.423 397.563, 296.747 395.988, 306.623 394.516, 315.850 393.140, 325.755 391.743, 335.810 390.555, 345.739 389.367, 355.668 389.263, 356.540 388.254, 366.489 387.246, 376.438 387.093, 377.944 386.256, 387.909 385.420, 397.874 385.248, 399.920 384.577, 409.897 383.906, 419.875 383.739, 422.356 383.613, 424.959 381.663, 434.767 379.874, 443.765 " fill="none" stroke="rgb(0, 0, 0)" stroke-linecap="butt" stroke-linejoin="round" stroke-opacity="1.0" stroke-width="3.0" />
            <path d=" M 527.891, 720.320 528.372, 718.033 530.267, 708.214 530.705, 705.940 532.447, 696.093 532.904, 693.508 534.502, 683.636 534.968, 680.761 536.431, 670.868 536.896, 667.725 538.233, 657.815 538.690, 654.427 539.363, 648.929 540.348, 640.891 541.449, 630.952 541.871, 627.140 542.862, 617.189 543.260, 613.196 544.145, 603.235 544.514, 599.081 545.296, 589.112 545.633, 584.818 546.316, 574.841 546.619, 570.425 547.205, 560.442 547.470, 555.924 547.961, 545.936 548.188, 541.333 548.586, 531.341 548.771, 526.673 555.334, 526.684 557.182, 526.686 557.305, 526.687 559.090, 526.689 562.663, 526.695 563.509, 526.696 564.450, 526.698 567.025, 526.701 577.025, 526.717 577.751, 526.718 578.052, 516.722 578.195, 511.940 578.378, 501.942 578.467, 497.124 578.533, 487.125 578.565, 482.291 578.515, 472.292 578.490, 467.460 578.322, 457.462 578.242, 452.651 577.955, 442.655 577.819, 437.884 577.413, 427.892 577.222, 423.179 576.694, 413.193 576.450, 408.558 576.175, 404.360 " fill="none" stroke="rgb(0, 0, 0)" stroke-linecap="butt" stroke-linejoin="round" stroke-opacity="1.0" stroke-width="3.0" />
            <path d=" M 573.261, 409.451 573.439, 412.161 573.972, 422.147 574.186, 426.163 574.596, 436.155 574.764, 440.249 575.053, 450.245 575.173, 454.398 575.343, 464.396 575.414, 468.589 575.466, 478.589 575.487, 482.803 575.421, 492.803 575.393, 497.020 575.210, 507.019 575.132, 511.221 575.099, 512.313 575.004, 512.964 574.901, 513.576 574.790, 514.143 574.674, 514.664 574.552, 515.135 574.425, 515.554 574.294, 515.919 574.159, 516.228 574.022, 516.479 573.882, 516.670 573.742, 516.801 573.601, 516.870 573.460, 516.879 573.320, 516.825 569.358, 514.412 569.216, 513.116 569.045, 511.954 568.847, 510.945 568.625, 510.106 568.384, 509.452 568.126, 508.993 567.856, 508.739 567.580, 508.694 567.426, 508.691 565.414, 508.659 565.385, 508.658 564.875, 508.650 563.912, 508.634 563.089, 508.621 559.519, 508.563 557.735, 508.535 557.647, 508.533 557.190, 508.526 556.901, 508.691 556.613, 509.064 556.332, 509.640 556.064, 510.409 555.812, 511.358 555.726, 511.773 555.581, 512.473 555.375, 513.734 555.198, 515.119 555.052, 516.606 554.941, 518.169 554.865, 519.781 555.536, 520.153 556.526, 520.704 557.366, 520.719 557.464, 520.721 557.631, 520.723 559.248, 520.752 562.818, 520.815 563.651, 520.830 564.605, 520.847 565.060, 520.855 566.930, 520.888 566.955, 520.379 566.993, 519.892 567.045, 519.441 567.107, 519.038 567.179, 518.695 567.218, 518.560 567.259, 518.419 567.344, 518.219 567.432, 518.101 567.521, 518.067 " fill="none" stroke="rgb(0, 0, 0)" stroke-linecap="butt" stroke-linejoin="round" stroke-opacity="1.0" stroke-width="3.0" />
            <path d=" M 567.984, 521.497 574.705, 525.384 577.751, 526.718 " fill="none" stroke="rgb(0, 0, 0)" stroke-linecap="butt" stroke-linejoin="round" stroke-opacity="1.0" stroke-width="3.0" />
            <path d=" M 389.719, 210.196 387.537, 217.265 384.898, 226.911 383.802, 230.917 381.439, 240.633 380.198, 245.734 378.081, 255.508 376.744, 261.678 374.850, 271.497 373.461, 278.700 371.772, 288.556 370.368, 296.743 368.869, 306.630 367.486, 315.742 366.163, 325.654 364.832, 335.617 363.674, 345.550 362.516, 355.483 362.423, 356.285 361.423, 366.235 360.423, 376.185 360.276, 377.654 359.427, 387.618 358.578, 397.582 358.404, 399.621 357.701, 409.596 356.997, 419.572 356.820, 422.080 356.259, 432.064 355.697, 442.048 355.536, 444.917 355.159, 454.910 354.782, 464.903 354.666, 467.977 354.448, 477.974 354.231, 487.972 354.161, 491.154 354.102, 501.154 354.043, 511.153 354.024, 514.326 354.125, 524.325 354.225, 534.325 354.255, 537.371 354.518, 547.368 354.780, 557.365 354.853, 560.170 355.280, 570.161 355.707, 580.152 355.812, 582.605 356.409, 592.587 357.006, 602.570 357.125, 604.565 357.899, 614.535 358.672, 624.505 358.783, 625.941 359.741, 635.895 360.699, 645.849 360.775, 646.633 361.927, 656.567 363.085, 666.550 364.444, 676.458 365.699, 685.608 367.279, 695.482 368.599, 703.729 369.949, 711.024 " fill="none" stroke="rgb(0, 0, 0)" stroke-linecap="butt" stroke-linejoin="round" stroke-opacity="1.0" stroke-width="3.0" />
            <path d=" M 493.691, 738.289 492.974, 740.813 490.005, 750.362 489.903, 750.688 486.699, 760.076 483.363, 768.943 479.900, 777.258 476.314, 784.985 472.610, 792.088 468.792, 798.531 464.866, 804.278 460.839, 809.292 456.719, 813.534 454.417, 815.412 " fill="none" stroke="rgb(0, 0, 0)" stroke-linecap="butt" stroke-linejoin="round" stroke-opacity="1.0" stroke-width="3.0" />
            <path d=" M 392.110, 440.084 391.856, 445.216 391.500, 455.209 391.143, 465.203 391.035, 468.219 390.839, 478.217 390.643, 488.215 390.582, 491.340 390.545, 501.340 390.509, 511.340 390.498, 514.457 390.621, 524.456 390.745, 534.455 390.782, 537.449 391.068, 547.445 391.353, 557.441 391.432, 560.197 391.881, 570.187 392.330, 580.177 392.439, 582.586 393.055, 592.567 393.672, 602.548 393.793, 604.503 394.582, 614.472 395.372, 624.440 395.483, 625.841 396.451, 635.794 397.420, 645.747 397.494, 646.501 398.649, 656.434 399.808, 666.390 401.162, 676.298 402.408, 685.426 403.972, 695.303 405.275, 703.530 407.065, 713.368 408.387, 720.637 410.421, 730.428 411.722, 736.691 414.023, 746.423 415.258, 751.644 417.856, 761.301 418.974, 765.456 421.902, 775.018 422.846, 778.099 426.147, 787.539 426.852, 789.555 430.579, 798.834 430.970, 799.807 435.181, 808.853 439.462, 816.697 442.586, 821.492 442.888, 821.956 443.795, 823.348 448.161, 828.818 452.543, 833.130 456.924, 836.310 461.289, 838.386 465.624, 839.389 469.915, 839.354 474.151, 838.320 478.322, 836.324 482.417, 833.405 486.428, 829.605 487.857, 827.913 490.347, 824.966 494.166, 819.525 497.881, 813.326 501.485, 806.409 504.974, 798.813 507.979, 791.467 " fill="none" stroke="rgb(0, 0, 0)" stroke-linecap="butt" stroke-linejoin="round" stroke-opacity="1.0" stroke-width="3.0" />
            <path d=" M 469.577, 821.250 465.537, 821.078 463.279, 820.437 461.472, 819.924 457.393, 817.755 454.417, 815.412 453.315, 814.544 449.251, 810.269 445.218, 804.908 441.231, 798.441 437.307, 790.860 433.464, 782.160 429.903, 772.815 429.721, 772.337 426.575, 762.845 426.095, 761.398 423.311, 751.794 422.606, 749.360 420.143, 739.668 419.273, 736.241 417.097, 726.481 416.115, 722.071 414.199, 712.256 413.150, 706.886 411.471, 697.028 410.398, 690.733 408.936, 680.840 407.875, 673.665 406.616, 663.745 405.600, 655.744 404.530, 645.801 403.587, 637.040 402.696, 627.080 401.851, 617.633 401.130, 607.659 400.404, 597.605 399.848, 587.621 399.291, 577.636 399.258, 577.050 398.860, 567.058 398.462, 557.066 398.422, 556.065 398.179, 546.068 397.935, 536.071 397.903, 534.752 397.811, 524.752 397.719, 514.753 397.705, 513.216 397.763, 503.217 397.822, 493.217 397.831, 491.568 398.039, 481.570 398.247, 471.572 398.281, 469.916 398.588, 461.350 " fill="none" stroke="rgb(0, 0, 0)" stroke-linecap="butt" stroke-linejoin="round" stroke-opacity="1.0" stroke-width="3.0" />
            <path d=" M 504.594, 780.849 503.111, 784.338 499.732, 791.417 496.250, 797.839 492.673, 803.566 489.005, 808.561 485.254, 812.785 481.427, 816.203 477.532, 818.779 473.579, 820.473 469.577, 821.250 " fill="none" stroke="rgb(0, 0, 0)" stroke-linecap="butt" stroke-linejoin="round" stroke-opacity="1.0" stroke-width="3.0" />
            <path d=" M 546.236, 525.358 545.833, 535.350 545.670, 539.406 545.168, 549.393 544.967, 553.383 544.364, 563.365 544.128, 567.272 543.423, 577.247 543.153, 581.052 542.342, 591.019 542.042, 594.702 541.124, 604.660 540.797, 608.203 539.766, 618.150 539.416, 621.534 538.270, 631.468 537.901, 634.672 536.635, 644.591 536.251, 647.594 534.860, 657.497 534.469, 660.279 533.149, 668.845 532.554, 672.703 530.891, 682.564 530.508, 684.839 528.696, 694.674 528.330, 696.664 526.361, 706.468 526.023, 708.150 525.722, 709.524 " fill="none" stroke="rgb(0, 0, 0)" stroke-linecap="butt" stroke-linejoin="round" stroke-opacity="1.0" stroke-width="3.0" />
            <path d=" M 548.771, 526.673 546.236, 525.358 555.375, 525.367 557.223, 525.369 562.703, 525.374 564.491, 525.375 564.919, 525.376 564.498, 525.141 563.565, 524.622 562.740, 524.163 559.215, 522.200 557.621, 521.313 557.631, 520.799 557.631, 520.723 " fill="none" stroke="rgb(0, 0, 0)" stroke-linecap="butt" stroke-linejoin="round" stroke-opacity="1.0" stroke-width="3.0" />
            <path d=" M 379.874, 443.765 379.509, 453.758 379.145, 463.752 379.000, 467.713 378.793, 477.711 378.587, 487.709 378.502, 491.784 378.452, 501.783 378.402, 511.783 378.382, 515.849 378.490, 525.848 378.598, 535.848 378.640, 539.780 378.907, 549.776 379.175, 559.773 379.273, 563.450 379.703, 573.441 380.132, 583.431 380.274, 586.736 380.870, 596.719 381.466, 606.701 381.635, 609.521 382.404, 619.491 383.172, 629.462 383.344, 631.690 384.293, 641.645 385.242, 651.600 385.388, 653.139 386.526, 663.074 387.663, 673.009 387.750, 673.771 389.088, 683.681 390.413, 693.499 391.965, 703.378 393.357, 712.241 395.140, 722.081 396.562, 729.930 398.595, 739.721 400.005, 746.509 402.314, 756.239 403.665, 761.928 406.281, 771.580 407.519, 776.147 410.477, 785.699 411.543, 789.140 414.890, 798.563 415.715, 800.887 419.506, 810.140 420.013, 811.376 424.317, 820.402 424.414, 820.604 428.897, 828.580 433.441, 835.313 438.028, 840.820 442.639, 845.125 447.255, 848.259 451.861, 850.251 456.441, 851.135 460.983, 850.951 465.471, 849.739 469.896, 847.539 474.246, 844.393 478.512, 840.346 482.684, 835.441 " fill="none" stroke="rgb(0, 0, 0)" stroke-linecap="butt" stroke-linejoin="round" stroke-opacity="1.0" stroke-width="3.0" />
            <path d=" M 482.684, 835.441 488.588, 827.370 490.347, 824.966 " fill="none" stroke="rgb(0, 0, 0)" stroke-linecap="butt" stroke-linejoin="round" stroke-opacity="1.0" stroke-width="3.0" />
            <path d=" M 539.239, 550.465 529.248, 550.887 527.799, 550.948 525.676, 546.984 " fill="none" stroke="rgb(0, 0, 0)" stroke-linecap="butt" stroke-linejoin="round" stroke-opacity="1.0" stroke-width="3.0" />
            <path d=" M 541.048, 500.063 540.846, 510.061 540.645, 520.059 540.539, 525.354 540.087, 535.343 539.903, 539.409 539.304, 549.391 539.239, 550.465 534.670, 541.570 530.893, 534.215 530.638, 533.720 530.383, 533.224 530.128, 532.726 529.874, 532.229 529.582, 531.526 529.313, 530.612 529.073, 529.505 529.037, 529.284 " fill="none" stroke="rgb(0, 0, 0)" stroke-linecap="butt" stroke-linejoin="round" stroke-opacity="1.0" stroke-width="3.0" />
            <path d=" M 530.880, 523.657 530.755, 523.595 530.638, 523.400 530.533, 523.079 530.454, 522.693 " fill="none" stroke="rgb(0, 0, 0)" stroke-linecap="butt" stroke-linejoin="round" stroke-opacity="1.0" stroke-width="3.0" />
            <path d=" M 531.390, 518.343 531.412, 518.452 531.479, 518.975 531.521, 519.566 531.537, 520.200 531.527, 520.849 531.491, 521.485 531.430, 522.080 531.347, 522.609 531.246, 523.048 531.131, 523.377 531.007, 523.583 530.880, 523.657 " fill="none" stroke="rgb(0, 0, 0)" stroke-linecap="butt" stroke-linejoin="round" stroke-opacity="1.0" stroke-width="3.0" />
            <path d=" M 364.781, 396.881 364.579, 399.365 363.913, 409.343 363.248, 419.321 363.112, 421.347 362.600, 431.124 362.076, 441.110 361.944, 443.621 361.560, 453.613 361.176, 463.606 361.081, 466.098 360.835, 476.095 360.589, 486.092 360.525, 488.690 360.418, 498.690 360.310, 508.689 360.281, 511.306 360.292, 514.904 " fill="none" stroke="rgb(0, 0, 0)" stroke-linecap="butt" stroke-linejoin="round" stroke-opacity="1.0" stroke-width="3.0" />
            <path d=" M 534.206, 745.537 535.575, 738.670 537.402, 728.839 537.722, 727.112 539.426, 717.258 539.761, 715.318 541.348, 705.444 541.693, 703.304 543.168, 693.413 543.516, 691.086 544.885, 681.181 545.230, 678.682 546.498, 668.762 546.837, 666.104 548.006, 656.173 548.336, 653.369 549.409, 643.427 549.726, 640.489 550.707, 630.538 551.009, 627.479 551.900, 617.519 552.183, 614.352 552.987, 604.384 553.250, 601.119 553.967, 591.145 554.209, 587.794 554.842, 577.814 555.059, 574.388 555.610, 564.403 555.802, 560.913 556.271, 550.924 556.437, 547.380 556.825, 537.388 556.964, 533.802 557.182, 526.686 " fill="none" stroke="rgb(0, 0, 0)" stroke-linecap="butt" stroke-linejoin="round" stroke-opacity="1.0" stroke-width="3.0" />
            <path d=" M 460.997, 888.762 463.403, 888.920 467.505, 888.422 471.562, 887.128 475.565, 885.067 479.509, 882.270 483.387, 878.767 487.194, 874.587 490.924, 869.762 494.572, 864.321 498.136, 858.294 501.611, 851.709 504.995, 844.594 508.283, 836.977 511.475, 828.885 514.568, 820.344 516.561, 814.370 " fill="none" stroke="rgb(0, 0, 0)" stroke-linecap="butt" stroke-linejoin="round" stroke-opacity="1.0" stroke-width="3.0" />
            <path d=" M 518.133, 159.338 517.691, 158.120 514.572, 150.310 511.340, 143.012 507.999, 136.256 504.550, 130.071 500.997, 124.489 497.343, 119.539 493.592, 115.253 489.749, 111.664 485.819, 108.803 481.808, 106.702 477.721, 105.392 473.567, 104.904 471.729, 105.062 469.352, 105.268 465.087, 106.513 460.779, 108.667 456.439, 111.756 452.078, 115.802 447.707, 120.828 443.340, 126.851 438.989, 133.887 434.668, 141.946 432.529, 146.493 430.392, 151.036 426.547, 160.267 426.176, 161.159 425.352, 163.377 422.035, 172.313 418.879, 181.802 417.985, 184.490 415.122, 194.071 414.044, 197.676 411.444, 207.332 410.227, 211.853 407.869, 221.571 406.552, 226.995 404.415, 236.764 403.035, 243.071 401.102, 252.882 399.692, 260.041 397.951, 269.889 396.540, 277.863 394.978, 287.741 393.594, 296.485 392.201, 306.388 390.870, 315.851 389.637, 325.774 388.380, 335.896 387.302, 345.838 386.223, 355.780 386.139, 356.554 385.209, 366.510 384.278, 376.467 384.158, 377.749 383.371, 387.718 382.584, 397.687 382.448, 399.405 381.800, 409.384 381.152, 419.363 381.017, 421.439 380.506, 431.426 379.994, 441.413 379.874, 443.765 379.497, 453.758 379.120, 463.751 379.024, 466.296 378.780, 476.293 378.536, 486.290 378.471, 488.941 378.360, 498.940 378.248, 508.939 378.218, 511.610 378.240, 521.610 378.261, 531.610 378.266, 534.212 378.421, 544.211 378.575, 554.209 378.613, 556.657 378.902, 566.653 379.192, 576.649 379.256, 578.857 379.683, 588.848 380.110, 598.838 380.191, 600.725 380.758, 610.709 381.326, 620.693 381.410, 622.178 382.123, 632.153 382.835, 642.128 382.908, 643.138 383.770, 653.101 384.632, 663.064 384.673, 663.530 385.691, 673.478 386.695, 683.284 387.877, 693.214 388.963, 702.335 390.317, 712.243 391.463, 720.626 393.000, 730.507 394.182, 738.103 395.915, 747.951 397.106, 754.720 399.048, 764.530 400.218, 770.438 402.388, 780.200 403.505, 785.223 405.922, 794.926 406.949, 799.047 409.639, 808.678 410.536, 811.889 413.527, 821.431 414.249, 823.733 417.577, 833.163 418.073, 834.569 421.779, 843.857 421.993, 844.393 425.993, 853.205 430.059, 861.009 434.177, 867.815 438.334, 873.634 442.516, 878.483 446.711, 882.381 450.907, 885.349 455.095, 887.411 459.263, 888.592 461.161, 888.743 463.403, 888.920 " fill="none" stroke="rgb(0, 0, 0)" stroke-linecap="butt" stroke-linejoin="round" stroke-opacity="1.0" stroke-width="3.0" />
            <path d=" M 471.120, 104.991 466.879, 105.357 462.586, 106.602 458.250, 108.757 453.883, 111.845 449.495, 115.891 445.098, 120.917 440.703, 126.939 436.326, 133.973 431.978, 142.030 429.686, 146.872 427.676, 151.118 423.811, 160.341 423.435, 161.238 419.935, 170.606 419.269, 172.389 419.136, 172.786 415.963, 182.269 415.196, 184.562 412.316, 194.138 411.231, 197.744 408.617, 207.396 407.393, 211.916 405.020, 221.631 403.696, 227.053 401.546, 236.819 400.159, 243.123 398.215, 252.932 396.798, 260.088 395.046, 269.933 393.628, 277.903 392.057, 287.779 390.666, 296.518 389.265, 306.420 387.927, 315.876 386.688, 325.799 385.425, 335.914 384.341, 345.855 383.256, 355.796 383.173, 356.564 382.237, 366.520 381.302, 376.476 381.182, 377.751 380.391, 387.720 379.600, 397.688 379.464, 399.399 378.813, 409.377 378.162, 419.356 378.027, 421.424 377.514, 431.410 377.000, 441.397 376.880, 443.741 376.502, 453.734 376.123, 463.727 376.027, 466.263 375.783, 476.260 375.539, 486.257 375.474, 488.899 375.363, 498.898 375.253, 508.898 375.223, 511.559 375.246, 521.559 375.268, 531.559 375.274, 534.152 375.431, 544.151 375.588, 554.150 375.626, 556.589 375.919, 566.585 376.212, 576.580 376.276, 578.780 376.707, 588.771 377.138, 598.761 377.220, 600.640 377.792, 610.623 378.365, 620.607 378.450, 622.086 379.168, 632.060 379.887, 642.034 379.959, 643.038 380.829, 653.000 381.698, 662.962 381.738, 663.422 382.765, 673.369 383.776, 683.169 384.967, 693.098 386.060, 702.214 387.425, 712.120 388.579, 720.498 390.127, 730.377 391.317, 737.969 393.062, 747.816 394.261, 754.582 396.217, 764.389 397.395, 770.295 399.580, 780.053 400.705, 785.076 403.138, 794.775 404.173, 798.896 406.880, 808.522 407.784, 811.734 410.794, 821.271 411.522, 823.576 413.545, 829.269 413.860, 830.155 415.372, 834.410 419.100, 843.689 419.318, 844.232 423.344, 853.043 427.437, 860.846 431.583, 867.651 435.766, 873.470 439.975, 878.319 444.198, 882.218 448.421, 885.187 452.636, 887.250 456.831, 888.433 460.997, 888.762 " fill="none" stroke="rgb(0, 0, 0)" stroke-linecap="butt" stroke-linejoin="round" stroke-opacity="1.0" stroke-width="3.0" />
            <path d=" M 473.567, 104.904 471.120, 104.991 " fill="none" stroke="rgb(0, 0, 0)" stroke-linecap="butt" stroke-linejoin="round" stroke-opacity="1.0" stroke-width="3.0" />
            <path d=" M 540.302, 764.353 541.841, 756.397 543.616, 746.555 544.078, 743.990 545.735, 734.128 546.202, 731.349 547.746, 721.469 548.212, 718.491 549.649, 708.595 550.108, 705.434 551.443, 695.523 551.892, 692.192 553.128, 682.268 553.562, 678.780 554.703, 668.846 555.120, 665.215 556.168, 655.270 556.565, 651.508 557.524, 641.554 557.898, 637.674 558.770, 627.712 559.118, 623.725 559.905, 613.756 560.227, 609.675 560.931, 599.700 561.224, 595.534 561.846, 585.553 562.110, 581.315 562.651, 571.330 562.884, 567.030 563.345, 557.040 563.546, 552.688 563.929, 542.696 564.097, 538.302 564.401, 528.307 564.450, 526.698 " fill="none" stroke="rgb(0, 0, 0)" stroke-linecap="butt" stroke-linejoin="round" stroke-opacity="1.0" stroke-width="3.0" />
            <path d=" M 458.715, 923.055 461.113, 923.223 465.559, 923.149 469.956, 922.190 474.297, 920.382 478.573, 917.758 482.779, 914.354 486.907, 910.206 490.953, 905.347 494.911, 899.811 498.777, 893.634 502.547, 886.847 506.219, 879.482 509.788, 871.571 513.253, 863.144 516.611, 854.231 519.861, 844.858 522.912, 835.335 523.002, 835.054 524.077, 831.430 " fill="none" stroke="rgb(0, 0, 0)" stroke-linecap="butt" stroke-linejoin="round" stroke-opacity="1.0" stroke-width="3.0" />
            <path d=" M 541.741, 204.488 540.422, 198.162 540.280, 197.534 538.075, 187.781 537.900, 187.008 535.517, 177.296 535.251, 176.214 532.675, 166.551 532.476, 165.804 529.688, 156.200 529.574, 155.806 526.546, 146.246 523.392, 137.155 520.115, 128.561 516.714, 120.497 513.193, 112.993 509.552, 106.084 505.795, 99.803 501.925, 94.186 497.945, 89.267 493.860, 85.083 489.675, 81.671 485.396, 79.066 481.028, 77.307 476.580, 76.428 472.059, 76.465 471.693, 76.544 467.474, 77.454 462.835, 79.428 458.152, 82.418 453.438, 86.454 448.704, 91.563 443.964, 97.769 439.234, 105.091 434.527, 113.548 430.155, 122.542 429.860, 123.149 428.712, 125.826 425.250, 133.902 423.770, 137.789 420.715, 145.807 418.180, 153.256 416.272, 158.860 413.353, 168.424 411.941, 173.049 409.295, 182.692 407.740, 188.355 405.342, 198.063 403.689, 204.753 402.532, 209.954 400.361, 219.715 399.806, 222.209 397.845, 232.015 396.112, 240.684 394.346, 250.527 392.623, 260.127 391.040, 270.001 389.457, 279.875 389.360, 280.484 387.949, 290.384 386.539, 300.284 386.338, 301.690 385.092, 311.612 383.845, 321.534 383.576, 323.674 382.485, 333.615 381.394, 343.555 381.087, 346.360 380.146, 356.315 379.206, 366.271 378.886, 369.662 378.091, 379.630 377.296, 389.599 376.985, 393.492 376.331, 403.470 375.678, 413.449 375.396, 417.754 374.880, 427.741 374.365, 437.727 374.126, 442.350 373.747, 452.343 373.368, 462.336 373.184, 467.179 372.940, 477.176 372.695, 487.173 372.574, 492.136 372.463, 502.135 372.353, 512.135 372.298, 517.117 372.322, 527.117 372.346, 537.117 372.358, 542.015 372.517, 552.014 372.676, 562.013 372.751, 566.728 373.048, 576.724 373.344, 586.719 373.475, 591.153 373.911, 601.143 374.347, 611.134 374.524, 615.190 375.103, 625.173 375.682, 635.157 375.890, 638.745 376.616, 648.719 377.342, 658.692 377.563, 661.727 378.442, 671.688 379.321, 681.649 379.533, 684.050 380.571, 693.996 381.610, 703.942 381.787, 705.637 382.992, 715.564 384.198, 725.491 384.310, 726.415 385.693, 736.319 387.088, 746.318 388.659, 756.194 390.105, 765.290 391.877, 775.132 393.343, 783.279 393.576, 784.424 395.564, 794.224 396.786, 800.243 398.043, 805.756 400.267, 815.505 400.414, 816.148 402.896, 825.835 404.210, 830.964 406.021, 837.253 408.157, 844.673 411.239, 854.186 411.318, 854.427 412.235, 857.258 415.672, 866.649 416.427, 868.715 420.264, 877.950 420.717, 879.040 425.007, 888.073 425.086, 888.239 429.518, 896.320 433.999, 903.297 438.513, 909.190 443.045, 914.018 447.584, 917.807 452.116, 920.584 456.629, 922.379 460.102, 923.033 461.113, 923.223 " fill="none" stroke="rgb(0, 0, 0)" stroke-linecap="butt" stroke-linejoin="round" stroke-opacity="1.0" stroke-width="3.0" />
            <path d=" M 365.289, 390.013 365.008, 393.474 364.781, 396.881 364.115, 406.858 363.450, 416.836 363.392, 417.698 362.868, 427.685 362.698, 430.931 362.175, 440.917 362.104, 442.256 362.077, 442.978 361.693, 452.971 361.309, 462.963 361.152, 467.045 360.906, 477.042 360.661, 487.039 360.601, 489.459 360.540, 491.963 360.432, 501.962 360.324, 511.962 360.292, 514.904 360.271, 516.904 360.301, 526.904 360.331, 536.904 360.345, 541.764 360.410, 545.630 " fill="none" stroke="rgb(0, 0, 0)" stroke-linecap="butt" stroke-linejoin="round" stroke-opacity="1.0" stroke-width="3.0" />
            <path d=" M 469.616, 76.562 465.002, 77.552 460.333, 79.526 455.621, 82.516 450.877, 86.552 446.115, 91.661 441.346, 97.865 436.586, 105.187 431.851, 113.641 427.457, 122.624 427.156, 123.240 423.195, 132.422 422.519, 133.990 420.867, 138.298 417.957, 145.892 414.717, 155.353 413.790, 158.058 413.488, 158.941 413.177, 159.953 410.241, 169.512 409.132, 173.125 406.470, 182.765 404.907, 188.427 402.494, 198.131 400.832, 204.819 398.649, 214.578 396.928, 222.270 394.955, 232.073 393.658, 238.524 393.212, 240.737 391.436, 250.578 389.705, 260.174 388.113, 270.046 386.521, 279.919 386.424, 280.523 385.005, 290.422 383.587, 300.321 383.386, 301.721 382.133, 311.642 380.879, 321.563 380.609, 323.697 379.513, 333.637 378.417, 343.576 378.108, 346.374 377.163, 356.329 376.218, 366.284 375.897, 369.667 375.098, 379.635 374.299, 389.603 373.987, 393.487 373.331, 403.466 372.674, 413.444 372.391, 417.740 371.874, 427.727 371.356, 437.713 371.117, 442.327 370.737, 452.319 370.356, 462.312 370.172, 467.145 369.928, 477.142 369.683, 487.139 369.562, 492.093 369.452, 502.092 369.342, 512.092 369.288, 517.063 369.313, 527.063 369.339, 537.063 369.351, 541.952 369.513, 551.951 369.674, 561.950 369.750, 566.656 370.050, 576.651 370.350, 586.647 370.482, 591.071 370.922, 601.061 371.362, 611.051 371.541, 615.099 372.125, 625.082 372.708, 635.065 372.918, 638.645 373.650, 648.618 374.382, 658.591 374.605, 661.618 375.491, 671.579 376.377, 681.540 376.590, 683.934 377.636, 693.879 378.683, 703.824 378.860, 705.513 380.075, 715.439 381.290, 725.365 381.402, 726.284 382.795, 736.186 384.200, 746.181 385.782, 756.055 386.391, 759.856 387.238, 765.146 389.023, 774.986 390.499, 783.130 392.502, 792.928 392.763, 794.204 393.965, 800.089 395.354, 806.133 397.593, 815.879 397.618, 815.989 400.117, 825.672 401.441, 830.802 403.094, 836.507 405.414, 844.507 408.515, 854.014 409.519, 857.090 412.976, 866.474 413.739, 868.544 417.597, 877.770 418.057, 878.868 422.370, 887.890 422.454, 888.065 426.916, 896.146 431.426, 903.123 435.969, 909.015 440.531, 913.844 445.099, 917.634 449.659, 920.413 454.202, 922.209 458.715, 923.055 " fill="none" stroke="rgb(0, 0, 0)" stroke-linecap="butt" stroke-linejoin="round" stroke-opacity="1.0" stroke-width="3.0" />
            <path d=" M 472.059, 76.465 469.616, 76.562 " fill="none" stroke="rgb(0, 0, 0)" stroke-linecap="butt" stroke-linejoin="round" stroke-opacity="1.0" stroke-width="3.0" />
            <path d=" M 547.826, 216.662 547.210, 213.137 545.347, 203.312 544.882, 200.863 542.869, 191.067 542.424, 188.900 540.250, 179.139 539.834, 177.271 537.486, 167.551 537.112, 166.003 534.575, 156.331 534.258, 155.122 531.514, 145.505 531.271, 144.654 528.301, 135.105 528.152, 134.629 524.902, 125.077 521.521, 116.029 518.011, 107.518 514.372, 99.577 510.606, 92.242 506.717, 85.548 502.707, 79.533 498.580, 74.234 494.339, 69.691 489.990, 65.942 485.539, 63.026 480.991, 60.984 476.355, 59.855 471.637, 59.679 466.776, 59.882 461.927, 60.697 457.015, 62.539 452.052, 65.443 447.051, 69.441 442.025, 74.565 436.987, 80.842 431.954, 88.296 426.941, 96.945 422.436, 105.873 421.966, 106.805 417.909, 115.945 417.047, 117.886 413.384, 127.191 412.204, 130.189 408.891, 139.624 407.456, 143.712 404.456, 153.252 402.823, 158.446 400.105, 168.069 398.325, 174.371 395.864, 184.063 393.985, 191.462 391.759, 201.211 389.823, 209.686 389.719, 210.196 387.709, 219.991 385.860, 229.000 384.052, 238.835 382.243, 248.670 382.117, 249.354 380.497, 259.222 378.876, 269.090 378.614, 270.689 377.171, 280.584 375.728, 290.479 375.369, 292.936 374.095, 302.855 372.820, 312.773 372.402, 316.021 371.288, 325.959 370.174, 335.897 369.730, 339.861 368.770, 349.815 367.810, 359.769 367.367, 364.365 367.232, 366.021 366.422, 375.988 365.611, 385.955 365.328, 389.437 365.289, 390.013 365.062, 393.418 364.397, 403.396 363.731, 413.374 363.624, 414.975 363.101, 424.961 362.798, 430.736 362.275, 440.722 362.267, 440.873 362.211, 442.327 361.827, 452.319 361.443, 462.312 361.262, 467.020 361.017, 477.017 360.771, 487.014 360.616, 493.304 360.509, 503.303 360.501, 504.017 360.393, 514.016 360.332, 519.611 360.362, 529.611 360.381, 535.740 360.410, 545.630 360.411, 545.828 360.580, 555.826 360.639, 559.316 360.807, 569.315 360.850, 571.841 361.160, 581.837 361.469, 591.832 361.646, 597.541 362.099, 607.531 362.552, 617.521 362.792, 622.821 363.392, 632.803 363.991, 642.785 364.279, 647.577 365.031, 657.549 365.782, 667.521 366.098, 671.713 367.007, 681.672 367.915, 691.630 368.235, 695.137 369.308, 705.080 369.949, 711.024 370.677, 717.766 371.922, 727.688 373.167, 737.610 373.407, 739.522 374.834, 749.419 376.262, 759.317 376.409, 760.336 378.030, 770.204 379.664, 780.148 381.494, 789.979 383.155, 798.906 385.209, 808.693 386.862, 816.565 389.160, 826.297 390.764, 833.089 393.330, 842.755 394.843, 848.452 397.704, 858.034 399.077, 862.633 402.268, 872.110 403.449, 875.619 407.007, 884.964 407.937, 887.405 411.912, 896.581 412.523, 897.992 416.972, 906.948 417.190, 907.386 421.919, 915.601 426.693, 922.653 431.497, 928.563 436.316, 933.357 441.136, 937.063 445.943, 939.712 450.725, 941.336 455.471, 941.971 460.239, 942.317 464.880, 941.994 469.466, 940.754 473.988, 938.635 478.439, 935.676 482.812, 931.913 487.101, 927.384 491.300, 922.128 495.404, 916.179 499.409, 909.575 503.312, 902.350 507.109, 894.538 510.798, 886.172 514.376, 877.283 517.842, 867.902 521.065, 858.436 521.193, 858.059 524.197, 848.521 524.430, 847.782 527.232, 838.183 527.304, 837.937 " fill="none" stroke="rgb(0, 0, 0)" stroke-linecap="butt" stroke-linejoin="round" stroke-opacity="1.0" stroke-width="3.0" />
            <path d=" M 542.810, 770.976 543.800, 765.796 545.555, 755.951 546.095, 752.918 547.735, 743.053 548.274, 739.808 549.802, 729.926 550.335, 726.484 551.758, 716.586 552.279, 712.962 553.600, 703.050 554.106, 699.258 555.331, 689.334 555.817, 685.388 556.948, 675.452 557.413, 671.365 558.452, 661.419 558.893, 657.203 559.844, 647.249 560.258, 642.917 561.122, 632.954 561.508, 628.518 562.288, 618.548 562.643, 614.018 563.341, 604.043 563.664, 599.431 564.281, 589.450 564.571, 584.766 565.109, 574.781 565.364, 570.036 565.823, 560.047 566.043, 555.252 566.424, 545.259 566.608, 540.424 566.912, 530.428 567.025, 526.701 " fill="none" stroke="rgb(0, 0, 0)" stroke-linecap="butt" stroke-linejoin="round" stroke-opacity="1.0" stroke-width="3.0" />
            <path d=" M 471.637, 59.679 466.848, 60.492 461.997, 62.332 457.095, 65.235 452.155, 69.234 447.189, 74.359 442.212, 80.637 437.239, 88.093 432.286, 96.747 427.826, 105.697 427.370, 106.611 425.259, 111.425 422.509, 117.697 418.885, 127.017 417.722, 130.008 414.445, 139.455 413.028, 143.539 410.500, 151.676 408.448, 158.281 405.760, 167.913 404.356, 172.947 404.002, 174.216 401.568, 183.916 401.417, 184.516 399.710, 191.319 397.509, 201.074 395.594, 209.556 393.607, 219.356 391.675, 228.884 390.597, 234.812 388.808, 244.651 387.972, 249.252 386.369, 259.123 384.767, 268.994 384.505, 270.603 383.078, 280.500 381.651, 290.398 381.295, 292.867 381.060, 294.711 379.799, 304.631 378.538, 314.551 378.358, 315.970 377.255, 325.909 376.153, 335.848 375.711, 339.828 374.761, 349.783 373.811, 359.737 373.371, 364.351 372.568, 374.319 371.765, 384.287 371.350, 389.443 370.690, 399.421 370.031, 409.399 369.661, 415.001 369.141, 424.988 368.622, 434.974 368.312, 440.919 367.931, 450.912 367.549, 460.905 367.313, 467.087 367.068, 477.084 366.823, 487.081 366.669, 493.392 366.559, 503.391 366.450, 513.391 366.381, 519.720 366.408, 529.720 366.435, 539.720 366.452, 545.957 366.616, 555.956 366.780, 565.955 366.879, 571.991 367.182, 581.987 367.485, 591.982 367.658, 597.711 368.103, 607.701 368.547, 617.691 368.784, 623.010 369.373, 632.993 369.963, 642.975 370.247, 647.785 370.986, 657.758 371.725, 667.730 372.037, 671.939 372.931, 681.898 373.826, 691.858 374.142, 695.380 375.198, 705.324 375.509, 708.250 375.842, 711.381 376.548, 718.024 377.775, 727.948 379.001, 737.873 379.239, 739.795 380.646, 749.695 382.053, 759.596 382.199, 760.623 383.378, 767.904 384.429, 774.394 385.410, 780.448 387.214, 790.283 388.853, 799.216 390.880, 809.009 392.510, 816.886 393.798, 822.418 396.066, 832.158 396.360, 833.419 398.893, 843.093 400.385, 848.790 403.210, 858.382 404.564, 862.977 407.715, 872.467 408.201, 873.929 408.878, 875.968 412.395, 885.329 413.308, 887.759 417.239, 896.954 417.835, 898.349 422.237, 907.328 422.442, 907.746 427.110, 915.962 431.824, 923.014 436.567, 928.924 441.325, 933.716 446.084, 937.420 450.830, 940.065 455.552, 941.686 460.239, 942.317 " fill="none" stroke="rgb(0, 0, 0)" stroke-linecap="butt" stroke-linejoin="round" stroke-opacity="1.0" stroke-width="3.0" />
            <path d=" M 565.332, 519.965 565.405, 518.351 565.428, 518.031 565.514, 516.786 565.518, 516.742 565.656, 515.297 565.827, 513.910 566.027, 512.647 566.250, 511.531 566.493, 510.580 566.752, 509.809 567.023, 509.233 567.300, 508.859 567.425, 508.785 567.580, 508.694 " fill="none" stroke="rgb(0, 0, 0)" stroke-linecap="butt" stroke-linejoin="round" stroke-opacity="1.0" stroke-width="3.0" />
            <path d=" M 554.865, 519.781 555.544, 519.792 557.390, 519.825 557.608, 519.829 562.839, 519.921 564.625, 519.952 565.087, 519.960 565.332, 519.965 566.930, 520.888 " fill="none" stroke="rgb(0, 0, 0)" stroke-linecap="butt" stroke-linejoin="round" stroke-opacity="1.0" stroke-width="3.0" />
            <path d=" M 557.621, 521.313 562.805, 521.405 564.592, 521.437 565.041, 521.445 567.152, 521.483 567.984, 521.497 567.995, 520.982 567.990, 520.473 567.972, 519.983 567.939, 519.525 567.893, 519.114 567.835, 518.758 567.767, 518.469 567.691, 518.254 567.608, 518.119 567.521, 518.067 " fill="none" stroke="rgb(0, 0, 0)" stroke-linecap="butt" stroke-linejoin="round" stroke-opacity="1.0" stroke-width="3.0" />
            <path d=" M 624.958, 914.843 627.127, 915.364 635.002, 916.711 642.878, 917.316 650.736, 917.198 658.560, 916.374 666.335, 914.863 674.045, 912.687 681.676, 909.867 689.217, 906.423 696.654, 902.377 703.976, 897.752 711.172, 892.569 718.233, 886.852 725.150, 880.622 731.914, 873.901 738.517, 866.711 744.953, 859.074 751.086, 851.176 751.214, 851.011 757.047, 842.888 757.295, 842.543 762.838, 834.220 763.191, 833.690 768.454, 825.187 768.896, 824.474 773.889, 815.809 774.405, 814.913 779.137, 806.103 779.715, 805.027 784.195, 796.087 784.822, 794.835 789.058, 785.777 789.722, 784.356 793.722, 775.190 794.413, 773.607 798.183, 764.345 798.890, 762.606 802.437, 753.256 803.153, 751.371 806.482, 741.942 807.197, 739.918 810.315, 730.417 811.022, 728.264 813.933, 718.697 814.624, 716.424 817.333, 706.798 818.003, 704.415 820.513, 694.735 821.157, 692.252 823.471, 682.524 824.083, 679.950 826.205, 670.178 826.781, 667.524 828.713, 657.712 829.249, 654.988 830.993, 645.141 831.486, 642.357 833.043, 632.479 833.490, 629.646 834.862, 619.740 835.261, 616.867 836.449, 606.938 836.796, 604.035 837.801, 594.086 838.096, 591.164 838.918, 581.198 839.159, 578.268 839.797, 568.288 839.985, 565.360 840.438, 555.370 840.571, 552.454 840.839, 542.458 840.917, 539.564 840.999, 529.564 841.022, 526.703 840.916, 516.704 840.886, 513.887 840.589, 503.891 840.507, 501.127 840.016, 491.139 839.884, 488.440 839.197, 478.464 839.017, 475.839 838.130, 465.878 837.905, 463.339 836.814, 453.399 836.546, 450.955 835.248, 441.039 834.942, 438.702 833.430, 428.817 833.090, 426.595 831.359, 416.746 830.990, 414.651 829.034, 404.844 828.643, 402.885 826.454, 393.128 826.048, 391.315 823.619, 381.614 823.204, 379.956 820.527, 370.321 820.112, 368.827 817.178, 359.268 816.772, 357.946 813.570, 348.472 813.184, 347.330 809.705, 337.955 809.350, 336.999 805.581, 327.736 805.270, 326.971 801.200, 317.837 800.946, 317.267 796.561, 308.280 796.379, 307.907 791.665, 299.087 791.571, 298.910 786.525, 290.299 781.243, 282.095 775.729, 274.319 769.988, 266.994 764.022, 260.142 757.839, 253.786 751.442, 247.949 744.840, 242.655 738.038, 237.926 731.046, 233.785 723.873, 230.255 716.527, 227.360 709.020, 225.120 701.365, 223.558 693.572, 222.695 685.657, 222.550 683.447, 222.705 " fill="none" stroke="rgb(0, 0, 0)" stroke-linecap="butt" stroke-linejoin="round" stroke-opacity="1.0" stroke-width="3.0" />
            <path d=" M 627.127, 915.364 625.576, 914.948 619.270, 913.259 611.451, 910.383 603.689, 906.722 596.006, 902.265 588.423, 897.005 580.963, 890.934 573.647, 884.049 566.844, 876.719 566.500, 876.349 560.173, 868.605 559.545, 867.837 553.685, 859.733 552.805, 858.517 547.401, 850.103 546.306, 848.399 544.953, 846.033 540.071, 837.495 535.742, 828.997 534.124, 825.821 531.864, 820.838 528.922, 814.353 528.488, 813.397 527.680, 811.392 523.942, 802.117 523.188, 800.246 521.947, 796.771 520.801, 793.558 518.244, 786.396 515.245, 776.856 514.255, 773.710 513.680, 771.878 512.610, 767.989 509.959, 758.347 509.514, 756.728 507.199, 747.000 505.768, 740.985 503.777, 731.185 502.457, 724.692 500.781, 714.833 500.402, 712.605 499.600, 707.894 498.228, 697.988 497.211, 690.641 496.135, 680.699 495.301, 672.987 494.515, 663.018 493.883, 654.987 493.380, 644.999 492.963, 636.697 492.740, 626.700 492.549, 618.179 492.601, 608.179 492.645, 599.494 492.968, 589.499 493.252, 580.705 493.844, 570.722 494.368, 561.874 495.228, 551.911 495.991, 543.067 496.915, 534.924 497.860, 526.597 498.115, 524.348 499.164, 516.898 499.369, 515.445 500.731, 505.779 502.395, 495.918 503.829, 487.422 505.765, 477.611 507.396, 469.339 509.606, 459.586 511.418, 451.589 513.906, 441.903 515.877, 434.228 518.648, 424.620 520.756, 417.311 523.815, 407.790 524.392, 405.996 525.449, 402.705 526.033, 400.889 529.388, 391.468 531.688, 385.009 533.310, 380.879 536.967, 371.572 537.696, 369.717 539.479, 365.592 539.673, 365.143 543.641, 355.963 544.035, 355.053 548.323, 346.019 550.590, 341.241 550.679, 341.054 552.218, 338.098 556.836, 329.228 557.253, 328.426 557.603, 327.755 558.859, 325.554 561.318, 321.248 564.781, 315.183 566.430, 312.550 566.959, 311.706 572.186, 303.365 577.858, 295.129 579.792, 292.322 585.838, 284.356 587.573, 282.071 594.003, 274.412 594.379, 273.965 595.502, 272.626 602.325, 265.316 603.555, 263.998 610.777, 257.081 611.705, 256.193 619.328, 249.722 619.927, 249.214 627.951, 243.245 628.199, 243.060 636.497, 237.730 644.798, 233.217 653.083, 229.514 661.329, 226.609 669.519, 224.490 677.634, 223.142 683.537, 222.706 685.657, 222.550 " fill="none" stroke="rgb(0, 0, 0)" stroke-linecap="butt" stroke-linejoin="round" stroke-opacity="1.0" stroke-width="3.0" />
            <path d=" M 683.447, 222.705 675.413, 223.298 667.287, 224.646 659.087, 226.764 650.830, 229.667 642.535, 233.368 634.224, 237.878 625.916, 243.203 617.887, 249.164 617.635, 249.351 610.005, 255.815 609.403, 256.325 602.174, 263.234 601.245, 264.123 594.414, 271.427 593.184, 272.743 593.066, 272.883 586.628, 280.535 585.247, 282.178 579.193, 290.137 577.458, 292.418 571.778, 300.649 569.845, 303.450 566.507, 308.766 565.977, 309.611 562.433, 315.256 561.003, 317.756 558.538, 322.065 556.947, 324.847 555.249, 327.814 551.882, 334.270 550.250, 337.399 548.320, 341.100 544.025, 350.131 541.670, 355.083 539.287, 360.587 535.327, 369.731 531.664, 379.036 529.314, 385.006 525.955, 394.425 523.656, 400.868 522.917, 403.166 522.521, 404.395 519.457, 413.914 518.376, 417.271 515.601, 426.879 513.495, 434.169 512.830, 436.755 510.339, 446.440 509.034, 451.510 506.835, 461.203 505.011, 469.240 503.073, 479.051 501.443, 487.302 499.777, 497.162 498.345, 505.638 497.119, 514.327 496.762, 516.856 495.729, 524.185 495.544, 525.812 494.416, 535.748 493.606, 542.884 492.746, 552.847 491.984, 561.669 491.393, 571.652 490.870, 580.478 490.548, 590.473 490.266, 599.246 490.216, 609.246 490.207, 610.954 490.173, 617.910 490.398, 627.908 490.590, 636.408 491.095, 646.395 491.513, 654.677 492.302, 664.646 492.936, 672.658 494.015, 682.599 494.850, 690.293 496.227, 700.198 497.245, 707.527 498.927, 717.385 499.067, 718.207 500.108, 724.307 502.105, 734.106 503.424, 740.584 505.746, 750.311 507.178, 756.312 509.835, 765.952 511.350, 771.447 511.472, 771.834 513.131, 777.097 515.922, 785.951 519.291, 795.367 519.839, 796.899 519.903, 797.078 520.873, 799.788 520.997, 800.095 524.743, 809.367 526.182, 812.928 526.881, 814.467 528.132, 817.218 531.119, 823.787 531.825, 825.341 533.264, 828.158 537.781, 837.006 542.753, 845.682 544.025, 847.902 549.438, 856.310 550.534, 858.012 556.401, 866.110 557.282, 867.326 563.617, 875.063 564.247, 875.833 571.057, 883.156 571.404, 883.529 578.730, 890.411 586.201, 896.480 593.794, 901.740 601.488, 906.196 609.260, 909.858 617.090, 912.736 624.958, 914.843 " fill="none" stroke="rgb(0, 0, 0)" stroke-linecap="butt" stroke-linejoin="round" stroke-opacity="1.0" stroke-width="3.0" />
            <path d=" M 698.913, 318.130 690.721, 318.070 682.793, 318.788 682.412, 318.823 679.385, 319.388 674.009, 320.393 665.536, 322.777 664.637, 323.116 657.019, 325.985 648.485, 330.043 639.966, 334.966 631.711, 340.611 631.493, 340.761 623.659, 346.976 623.097, 347.422 615.688, 354.138 614.810, 354.934 607.818, 362.083 606.657, 363.270 600.076, 370.799 598.669, 372.409 592.499, 380.279 590.881, 382.342 585.123, 390.518 583.333, 393.060 577.982, 401.508 576.473, 403.891 576.175, 404.360 576.063, 404.538 573.261, 409.451 569.103, 416.741 566.988, 420.859 564.532, 425.638 563.611, 427.432 562.815, 428.981 562.484, 429.626 559.404, 436.280 557.682, 440.000 557.637, 440.098 556.229, 443.140 555.851, 444.047 552.005, 453.278 550.360, 457.228 548.688, 461.709 546.884, 466.546 544.907, 471.845 543.842, 475.062 540.698, 484.556 539.907, 486.946 537.114, 496.548 536.154, 499.848 535.391, 502.474 534.735, 505.075 533.036, 511.816 531.390, 518.343 531.384, 518.368 530.454, 522.693 530.249, 523.646 529.037, 529.284 528.953, 529.676 527.903, 534.561 526.138, 544.404 525.676, 546.984 524.959, 550.981 524.665, 553.007 523.229, 562.903 522.553, 567.558 521.443, 577.496 520.692, 584.223 519.917, 594.193 519.395, 600.911 518.962, 610.902 518.675, 617.550 518.627, 623.271 518.545, 633.271 518.538, 634.069 518.810, 644.065 518.982, 650.398 519.612, 660.378 519.996, 666.470 520.797, 674.531 521.562, 682.225 522.913, 692.133 523.667, 697.665 525.374, 707.518 525.722, 709.524 526.048, 711.407 526.264, 712.650 527.505, 718.503 527.891, 720.320 528.565, 723.496 529.335, 727.124 531.793, 736.817 532.862, 741.033 533.019, 741.557 534.206, 745.537 535.422, 749.614 536.604, 753.577 536.827, 754.327 539.066, 760.787 540.285, 764.305 540.302, 764.353 541.206, 766.962 542.810, 770.976 545.975, 778.898 550.143, 787.989 551.110, 790.099 555.756, 798.955 556.585, 800.535 561.730, 809.110 562.372, 810.180 568.036, 818.421 568.443, 819.013 574.646, 826.857 574.772, 827.016 581.328, 834.178 588.084, 840.493 595.013, 845.954 602.086, 850.562 609.277, 854.321 609.322, 854.340 616.558, 857.240 623.905, 859.325 631.292, 860.591 638.696, 861.053 646.094, 860.729 653.464, 859.637 660.786, 857.798 668.040, 855.236 675.208, 851.974 682.272, 848.036 689.216, 843.447 696.026, 838.236 702.686, 832.426 709.184, 826.045 715.507, 819.120 721.645, 811.680 727.587, 803.748 733.230, 795.492 733.324, 795.354 738.627, 786.876 738.846, 786.524 743.822, 777.850 744.147, 777.285 748.808, 768.437 749.217, 767.661 753.576, 758.660 754.051, 757.679 758.118, 748.543 758.643, 747.365 762.428, 738.109 762.986, 736.744 766.498, 727.381 767.076, 725.840 770.323, 716.382 770.908, 714.677 773.898, 705.135 774.479, 703.281 777.216, 693.663 777.783, 691.673 780.274, 681.988 780.817, 679.878 783.068, 670.134 783.579, 667.918 785.592, 658.122 786.066, 655.816 787.844, 645.975 788.274, 643.594 789.820, 633.714 790.202, 631.275 791.518, 621.362 791.847, 618.880 792.933, 608.939 793.207, 606.432 794.065, 596.469 794.281, 593.953 794.909, 583.972 795.067, 581.463 795.466, 571.471 795.565, 568.985 795.731, 558.986 795.771, 556.541 795.703, 546.541 795.686, 544.152 795.563, 540.119 " fill="none" stroke="rgb(0, 0, 0)" stroke-linecap="butt" stroke-linejoin="round" stroke-opacity="1.0" stroke-width="3.0" />
            <path d=" M 791.022, 546.701 790.902, 546.705 781.217, 547.046 775.721, 547.239 767.108, 547.542 766.396, 547.567 765.682, 547.592 764.968, 547.618 764.253, 547.644 754.278, 546.947 752.754, 546.841 751.904, 546.742 751.078, 546.387 750.295, 545.781 749.570, 544.936 748.917, 543.868 748.350, 542.597 747.878, 541.146 747.511, 539.543 747.256, 537.818 747.119, 536.006 747.102, 534.140 747.205, 532.258 747.428, 530.395 747.764, 528.587 748.208, 526.870 748.751, 525.277 749.382, 523.838 750.089, 522.580 750.857, 521.528 751.524, 520.737 752.191, 519.947 752.857, 519.158 753.522, 518.371 753.856, 517.976 754.764, 516.904 756.035, 515.401 758.279, 512.750 764.738, 505.116 771.197, 497.482 776.500, 491.216 786.445, 492.261 787.324, 492.354 " fill="none" stroke="rgb(0, 0, 0)" stroke-linecap="butt" stroke-linejoin="round" stroke-opacity="1.0" stroke-width="3.0" />
            <path d=" M 823.227, 507.820 822.741, 503.159 822.209, 498.051 820.883, 488.139 820.618, 486.157 818.993, 476.290 818.691, 474.457 816.755, 464.647 816.426, 462.979 814.172, 453.236 813.828, 451.745 811.250, 442.083 810.901, 440.775 807.995, 431.206 807.654, 430.085 804.404, 420.628 804.087, 419.704 800.471, 410.381 800.195, 409.667 796.194, 400.502 795.978, 400.006 791.574, 391.028 791.439, 390.752 786.583, 381.931 781.421, 373.564 775.963, 365.667 770.217, 358.260 764.187, 351.383 757.878, 345.074 751.301, 339.367 744.466, 334.289 737.388, 329.862 730.083, 326.097 722.568, 323.008 721.954, 322.818 714.857, 320.625 706.965, 318.989 698.913, 318.130 " fill="none" stroke="rgb(0, 0, 0)" stroke-linecap="butt" stroke-linejoin="round" stroke-opacity="1.0" stroke-width="3.0" />
            <path d=" M 664.637, 323.116 670.447, 326.713 676.338, 331.113 682.040, 336.144 687.540, 341.784 692.830, 348.006 697.902, 354.777 702.751, 362.058 707.375, 369.812 711.766, 378.018 715.915, 386.662 719.816, 395.722 723.416, 405.051 723.463, 405.174 726.729, 414.625 726.854, 414.988 729.806, 424.542 729.989, 425.134 732.649, 434.774 732.871, 435.577 735.253, 445.289 735.499, 446.292 737.610, 456.067 737.868, 457.262 739.714, 467.091 739.973, 468.470 741.561, 478.343 741.810, 479.893 743.149, 489.803 743.380, 491.507 744.038, 497.456 744.016, 498.694 743.935, 499.934 743.796, 501.162 743.599, 502.367 743.348, 503.536 743.044, 504.656 742.690, 505.716 742.291, 506.704 741.850, 507.611 741.372, 508.427 741.278, 508.559 740.862, 509.143 740.325, 509.753 739.767, 510.249 739.194, 510.627 730.475, 515.524 725.966, 518.056 " fill="none" stroke="rgb(0, 0, 0)" stroke-linecap="butt" stroke-linejoin="round" stroke-opacity="1.0" stroke-width="3.0" />
            <path d=" M 800.373, 535.273 800.901, 535.307 801.998, 535.377 803.227, 535.456 811.724, 530.182 813.935, 528.810 815.841, 527.627 823.515, 522.864 824.396, 522.318 825.431, 521.771 830.496, 519.096 829.751, 509.124 829.541, 506.314 828.516, 496.367 828.239, 493.678 826.929, 483.764 826.591, 481.213 824.986, 471.343 824.596, 468.943 822.688, 459.127 822.254, 456.895 820.033, 447.145 819.566, 445.092 817.021, 435.421 816.576, 433.729 816.532, 433.561 813.652, 423.985 813.154, 422.329 810.957, 415.889 809.434, 411.423 805.844, 402.089 805.374, 400.868 801.407, 391.688 800.977, 390.694 796.618, 381.694 796.247, 380.928 791.480, 372.138 791.188, 371.600 789.027, 368.041 785.806, 362.737 783.922, 359.970 780.107, 354.369 774.096, 346.526 767.782, 339.236 761.176, 332.529 754.285, 326.435 747.122, 320.984 739.699, 316.204 732.031, 312.122 724.132, 308.768 716.020, 306.168 707.712, 304.346 699.229, 303.328 689.240, 302.864 679.251, 302.399 674.889, 302.196 " fill="none" stroke="rgb(0, 0, 0)" stroke-linecap="butt" stroke-linejoin="round" stroke-opacity="1.0" stroke-width="3.0" />
            <path d=" M 699.229, 303.328 690.592, 303.137 684.155, 303.617 681.824, 303.791 672.949, 305.309 667.594, 306.743 663.994, 307.708 654.987, 311.000 645.956, 315.196 645.878, 315.240 645.008, 315.732 636.932, 320.299 628.623, 325.864 627.948, 326.316 620.052, 332.454 619.035, 333.244 611.562, 339.889 610.228, 341.076 603.182, 348.171 601.563, 349.802 594.941, 357.296 593.074, 359.409 586.871, 367.253 584.797, 369.875 579.005, 378.027 576.769, 381.175 575.086, 383.806 574.744, 384.340 569.356, 392.764 569.025, 393.281 566.194, 398.191 563.751, 402.429 562.063, 405.356 561.602, 406.156 556.991, 415.030 556.933, 415.142 555.184, 418.507 554.533, 419.760 550.298, 428.819 547.853, 434.047 543.986, 443.269 543.542, 444.326 541.595, 448.968 538.088, 458.333 535.790, 464.468 532.636, 473.958 530.466, 480.487 527.660, 490.085 525.650, 496.962 523.868, 503.979 521.407, 513.672 521.368, 513.827 520.625, 517.253 519.281, 523.446 518.591, 526.628 517.640, 531.012 517.518, 531.687 515.736, 541.527 514.484, 548.444 513.042, 558.340 511.918, 566.050 510.814, 575.989 509.952, 583.754 509.189, 593.725 508.596, 601.480 508.176, 611.471 507.853, 619.151 507.781, 629.151 507.727, 636.692 508.009, 646.688 508.216, 654.028 508.857, 664.007 509.169, 668.849 509.312, 671.086 510.323, 681.035 511.009, 687.797 " fill="none" stroke="rgb(0, 0, 0)" stroke-linecap="butt" stroke-linejoin="round" stroke-opacity="1.0" stroke-width="3.0" />
            <path d=" M 756.035, 515.401 755.097, 505.445 754.978, 504.179 754.790, 501.489 754.764, 501.720 754.568, 502.931 754.317, 504.105 754.014, 505.231 753.663, 506.296 753.266, 507.289 752.827, 508.200 752.352, 509.020 751.846, 509.740 751.313, 510.353 750.759, 510.852 750.190, 511.232 741.501, 516.181 733.278, 520.864 732.629, 519.930 731.908, 519.191 731.128, 518.661 730.301, 518.349 729.441, 518.260 725.966, 518.056 718.279, 517.606 717.395, 517.742 716.508, 518.101 715.633, 518.676 714.785, 519.460 714.011, 520.442 713.329, 521.605 712.716, 522.928 712.183, 524.389 711.739, 525.963 711.393, 527.622 711.149, 529.338 711.013, 531.083 710.987, 532.824 711.070, 534.534 721.048, 535.194 722.269, 535.274 727.048, 532.572 727.027, 532.026 727.051, 531.471 727.117, 530.921 727.184, 530.593 727.224, 530.392 727.370, 529.899 727.551, 529.453 727.761, 529.069 727.994, 528.757 728.245, 528.524 728.506, 528.377 728.770, 528.321 " fill="none" stroke="rgb(0, 0, 0)" stroke-linecap="butt" stroke-linejoin="round" stroke-opacity="1.0" stroke-width="3.0" />
            <path d=" M 797.991, 522.274 800.269, 520.859 801.284, 520.228 801.409, 520.151 806.501, 516.987 807.087, 516.623 807.595, 516.262 808.090, 515.798 808.570, 515.235 809.030, 514.580 809.466, 513.839 809.876, 513.017 810.257, 512.124 810.604, 511.164 810.917, 510.148 811.193, 509.081 811.429, 507.973 811.623, 506.832 811.774, 505.666 811.881, 504.485 821.475, 507.305 822.981, 507.747 823.227, 507.820 823.108, 508.584 823.042, 508.901 822.874, 509.698 822.600, 510.770 822.289, 511.792 821.943, 512.756 821.566, 513.654 821.159, 514.479 820.726, 515.225 820.270, 515.884 819.795, 516.449 819.304, 516.917 818.801, 517.280 813.243, 520.788 812.521, 521.244 806.237, 525.212 805.629, 524.252 804.951, 523.494 804.215, 522.951 803.432, 522.633 802.616, 522.545 801.534, 522.482 800.352, 522.413 797.991, 522.274 794.775, 522.086 790.741, 521.850 790.273, 521.930 790.100, 521.959 789.898, 521.994 789.050, 522.368 788.211, 522.965 787.395, 523.777 786.653, 524.793 786.000, 525.996 785.411, 527.364 784.897, 528.873 784.467, 530.498 784.129, 532.211 783.888, 533.982 783.748, 535.781 783.712, 537.578 783.780, 539.340 790.843, 539.807 790.856, 539.808 795.563, 540.119 795.699, 540.128 800.232, 537.314 800.216, 536.752 800.242, 536.179 800.308, 535.612 800.373, 535.273 800.413, 535.066 800.554, 534.556 800.727, 534.096 800.857, 533.838 800.928, 533.698 801.150, 533.375 801.389, 533.133 801.636, 532.981 801.886, 532.921 " fill="none" stroke="rgb(0, 0, 0)" stroke-linecap="butt" stroke-linejoin="round" stroke-opacity="1.0" stroke-width="3.0" />
            <path d=" M 775.721, 547.239 775.779, 554.365 775.616, 564.364 775.578, 566.686 775.174, 576.678 775.079, 579.039 774.437, 589.018 774.284, 591.402 773.405, 601.363 773.194, 603.753 772.079, 613.691 771.812, 616.071 770.460, 625.980 770.138, 628.335 768.549, 638.208 768.177, 640.521 766.349, 650.353 765.930, 652.609 763.861, 662.393 763.399, 664.577 761.086, 674.305 760.588, 676.401 758.028, 686.067 757.501, 688.060 754.689, 697.656 754.140, 699.530 751.071, 709.048 750.509, 710.789 747.177, 720.218 746.613, 721.814 743.012, 731.143 742.457, 732.581 738.578, 741.798 738.045, 743.066 733.880, 752.157 733.382, 753.244 728.922, 762.194 728.475, 763.091 723.710, 771.882 723.331, 772.582 718.249, 781.194 717.956, 781.691 712.545, 790.100 712.357, 790.392 706.606, 798.573 706.544, 798.661 700.525, 806.471 694.311, 813.793 687.910, 820.604 681.337, 826.876 674.601, 832.583 667.718, 837.696 660.700, 842.193 653.564, 846.048 646.326, 849.233 639.003, 851.726 631.614, 853.504 624.178, 854.546 616.716, 854.828 609.322, 854.340 " fill="none" stroke="rgb(0, 0, 0)" stroke-linecap="butt" stroke-linejoin="round" stroke-opacity="1.0" stroke-width="3.0" />
            <path d=" M 764.253, 547.644 763.411, 547.546 762.593, 547.190 761.817, 546.582 761.099, 545.734 760.453, 544.661 759.892, 543.384 759.426, 541.926 759.064, 540.316 758.813, 538.583 758.698, 537.027 758.679, 536.762 758.664, 534.887 758.768, 532.995 758.991, 531.123 759.156, 530.229 759.326, 529.306 759.768, 527.581 760.307, 525.979 760.934, 524.533 761.637, 523.268 762.399, 522.211 763.060, 521.416 763.723, 520.621 764.384, 519.828 765.044, 519.036 765.375, 518.639 766.661, 517.100 773.070, 509.424 777.927, 503.608 784.336, 495.932 787.324, 492.354 788.449, 502.290 788.559, 503.261 789.015, 507.675 789.821, 517.642 789.947, 519.204 790.100, 521.959 " fill="none" stroke="rgb(0, 0, 0)" stroke-linecap="butt" stroke-linejoin="round" stroke-opacity="1.0" stroke-width="3.0" />
            <path d=" M 794.641, 519.628 800.229, 520.133 801.284, 520.228 " fill="none" stroke="rgb(0, 0, 0)" stroke-linecap="butt" stroke-linejoin="round" stroke-opacity="1.0" stroke-width="3.0" />
            <path d=" M 764.675, 537.418 764.361, 537.314 764.071, 537.065 763.818, 536.682 763.613, 536.182 763.466, 535.587 763.383, 534.923 763.366, 534.219 763.419, 533.505 763.536, 532.814 763.715, 532.175 763.946, 531.617 764.220, 531.164 764.524, 530.836 764.845, 530.647 765.170, 530.605 " fill="none" stroke="rgb(0, 0, 0)" stroke-linecap="butt" stroke-linejoin="round" stroke-opacity="1.0" stroke-width="3.0" />
            <path d=" M 765.170, 530.605 765.483, 530.712 765.772, 530.963 766.024, 531.346 766.227, 531.845 766.374, 532.439 766.456, 533.101 766.472, 533.803 766.420, 534.514 766.303, 535.203 766.126, 535.840 765.896, 536.397 765.623, 536.851 765.319, 537.181 764.999, 537.373 764.675, 537.418 " fill="none" stroke="rgb(0, 0, 0)" stroke-linecap="butt" stroke-linejoin="round" stroke-opacity="1.0" stroke-width="3.0" />
            <path d=" M 800.901, 535.307 801.104, 542.101 801.167, 552.101 801.185, 555.070 801.015, 565.069 800.963, 568.096 800.561, 578.088 800.437, 581.155 799.806, 591.135 799.611, 594.227 798.752, 604.190 798.484, 607.289 797.397, 617.230 797.059, 620.319 795.743, 630.232 795.336, 633.296 793.791, 643.176 793.319, 646.196 791.542, 656.037 791.008, 658.998 788.998, 668.794 788.406, 671.679 786.159, 681.423 785.515, 684.216 783.029, 693.901 782.339, 696.585 779.607, 706.205 778.881, 708.764 775.898, 718.309 775.142, 720.727 771.904, 730.188 771.129, 732.452 767.627, 741.818 766.844, 743.912 763.070, 753.173 762.292, 755.082 758.238, 764.224 757.478, 765.937 753.134, 774.945 752.407, 776.452 747.763, 785.308 747.087, 786.598 742.130, 795.283 741.523, 796.347 736.242, 804.839 735.722, 805.675 730.105, 813.947 729.694, 814.552 723.726, 822.575 723.447, 822.949 717.113, 830.687 716.990, 830.838 710.335, 838.190 703.492, 844.979 696.474, 851.171 689.295, 856.740 681.970, 861.658 674.513, 865.896 666.943, 869.426 659.277, 872.220 651.533, 874.256 643.734, 875.507 635.900, 875.947 628.055, 875.560 620.221, 874.323 612.426, 872.220 604.695, 869.234 597.054, 865.357 589.533, 860.580 582.161, 854.894 574.966, 848.301 568.148, 840.986 567.979, 840.805 561.712, 833.012 561.229, 832.411 555.505, 824.212 554.749, 823.130 549.548, 814.590 548.568, 812.981 543.869, 804.154 542.715, 801.986 538.499, 792.918 538.422, 792.752 537.221, 790.169 535.697, 786.406 534.433, 783.288 532.114, 777.562 529.115, 769.028 527.897, 765.561 527.420, 764.205 524.526, 754.633 523.166, 750.138 522.085, 745.935 520.241, 738.765 519.378, 735.409 517.273, 725.633 516.076, 720.071 514.343, 710.222 513.280, 704.180 511.907, 694.274 511.009, 687.797 507.904, 678.291 507.651, 677.515 505.107, 669.729 " fill="none" stroke="rgb(0, 0, 0)" stroke-linecap="butt" stroke-linejoin="round" stroke-opacity="1.0" stroke-width="3.0" />
            <path d=" M 674.889, 302.196 667.057, 301.980 659.878, 302.543 659.110, 302.604 651.069, 304.087 642.960, 306.449 634.805, 309.704 626.633, 313.859 618.470, 318.925 610.347, 324.905 602.749, 331.407 602.292, 331.799 595.152, 338.801 594.337, 339.601 587.651, 347.037 586.513, 348.302 580.272, 356.116 578.855, 357.890 573.516, 365.371 573.125, 365.918 571.393, 368.345 566.001, 376.767 565.265, 377.918 564.162, 379.640 562.815, 381.980 561.142, 384.888 557.194, 391.749 556.035, 393.987 554.332, 397.278 550.523, 404.635 546.302, 413.701 544.180, 418.259 542.899, 421.322 539.042, 430.548 538.196, 432.573 534.692, 441.939 532.602, 447.528 529.442, 457.016 527.426, 463.069 524.601, 472.662 522.695, 479.135 520.198, 488.818 518.433, 495.661 516.259, 505.422 514.665, 512.581 512.808, 522.407 512.012, 526.618 511.407, 529.822 509.865, 539.703 508.678, 547.311 507.449, 557.235 506.491, 564.972 505.576, 574.930 504.859, 582.729 504.258, 592.711 503.788, 600.503 503.502, 610.499 503.282, 618.218 503.316, 628.218 503.343, 635.795 503.703, 645.789 503.969, 653.161 504.654, 663.137 505.107, 669.729 504.409, 679.705 503.771, 688.807 " fill="none" stroke="rgb(0, 0, 0)" stroke-linecap="butt" stroke-linejoin="round" stroke-opacity="1.0" stroke-width="3.0" />
            <path d=" M 506.139, 705.712 507.887, 715.558 509.049, 722.104 511.171, 731.876 512.483, 737.919 514.994, 747.598 516.420, 753.097 516.573, 753.599 518.441, 759.725 520.837, 767.583 524.176, 777.009 524.752, 778.635 525.707, 781.329 525.967, 781.965 529.749, 791.222 531.003, 794.292 531.617, 795.603 532.927, 798.394 535.808, 804.537 536.696, 806.431 541.428, 815.241 542.758, 817.715 547.996, 826.234 549.155, 828.119 554.920, 836.290 555.858, 837.618 562.167, 845.377 562.835, 846.197 569.698, 853.470 570.053, 853.845 577.480, 860.557 585.087, 866.329 592.841, 871.163 600.714, 875.068 608.676, 878.054 616.698, 880.132 624.755, 881.319 632.819, 881.635 640.868, 881.102 648.876, 879.741 656.823, 877.577 664.687, 874.639 672.450, 870.951 680.092, 866.542 687.597, 861.442 694.950, 855.680 702.135, 849.285 709.139, 842.286 715.828, 834.852 715.950, 834.716 722.265, 826.961 722.557, 826.602 728.509, 818.566 728.948, 817.974 734.552, 809.691 735.114, 808.860 740.384, 800.361 741.047, 799.292 745.995, 790.601 746.739, 789.295 751.376, 780.436 752.181, 778.898 756.520, 769.889 757.367, 768.130 761.419, 758.987 762.293, 757.016 766.066, 747.755 766.951, 745.583 770.454, 736.216 771.336, 733.856 774.577, 724.396 775.445, 721.862 778.431, 712.318 779.273, 709.626 782.010, 700.008 782.817, 697.171 785.309, 687.486 786.071, 684.522 788.324, 674.779 789.035, 671.702 791.052, 661.908 791.705, 658.736 793.488, 648.896 794.077, 645.645 795.629, 635.766 796.150, 632.453 797.473, 622.541 797.921, 619.183 799.016, 609.243 799.389, 605.856 800.255, 595.894 800.551, 592.496 801.188, 582.516 801.405, 579.124 801.814, 569.132 801.951, 565.763 802.128, 555.764 802.186, 552.435 802.129, 542.435 802.110, 539.162 801.998, 535.377 " fill="none" stroke="rgb(0, 0, 0)" stroke-linecap="butt" stroke-linejoin="round" stroke-opacity="1.0" stroke-width="3.0" />
            <path d=" M 503.771, 688.807 504.493, 693.963 505.880, 703.866 506.139, 705.712 " fill="none" stroke="rgb(0, 0, 0)" stroke-linecap="butt" stroke-linejoin="round" stroke-opacity="1.0" stroke-width="3.0" />
            <path d=" M 816.576, 433.729 815.786, 429.385 813.765, 419.591 813.516, 418.385 811.257, 408.644 811.010, 407.579 808.506, 397.897 808.269, 396.981 805.508, 387.370 805.291, 386.613 802.264, 377.082 802.076, 376.491 798.775, 367.052 798.628, 366.631 795.042, 357.296 794.947, 357.048 791.035, 347.761 786.894, 338.788 782.527, 330.149 777.933, 321.864 773.116, 313.956 768.079, 306.446 762.826, 299.351 757.362, 292.689 751.693, 286.479 745.824, 280.741 739.761, 275.496 733.510, 270.766 727.078, 266.577 720.473, 262.951 713.705, 259.907 706.784, 257.461 699.719, 255.631 692.524, 254.433 685.210, 253.884 677.790, 254.003 676.805, 254.109 670.279, 254.808 662.692, 256.318 655.046, 258.548 647.357, 261.508 639.643, 265.202 631.922, 269.637 624.214, 274.817 616.540, 280.745 611.236, 285.393 608.919, 287.424 601.795, 294.441 601.376, 294.855 594.646, 302.252 593.933, 303.036 587.592, 310.769 586.614, 311.962 585.834, 313.011 579.871, 321.039 579.441, 321.617 576.791, 325.540 572.438, 331.985 570.248, 335.541 569.790, 336.284 565.625, 343.047 563.363, 347.070 560.931, 351.395 559.298, 354.298 559.027, 354.781 554.458, 363.676 554.262, 364.057 552.667, 367.164 552.599, 367.308 548.354, 376.362 546.568, 380.169 542.638, 389.365 541.513, 391.997 540.755, 393.769 537.134, 403.091 537.087, 403.213 535.253, 407.932 531.932, 417.364 530.082, 422.618 527.052, 432.148 525.260, 437.786 522.514, 447.401 520.804, 453.389 518.337, 463.080 516.732, 469.382 514.538, 479.138 513.060, 485.716 511.136, 495.529 509.802, 502.341 508.147, 512.203 506.973, 519.206 505.937, 526.609 504.587, 536.257 503.470, 546.194 502.655, 553.438 501.802, 563.401 501.178, 570.692 500.590, 580.674 500.160, 587.962 499.839, 597.957 499.607, 605.193 499.556, 615.193 499.519, 622.328 499.742, 632.325 499.897, 639.310 500.396, 649.298 500.736, 656.086 501.517, 666.055 502.029, 672.602 503.098, 682.545 503.771, 688.807 504.486, 693.998 505.851, 703.905 505.954, 704.651 506.139, 705.712 507.802, 715.573 508.564, 720.087 510.543, 729.890 511.589, 735.072 513.890, 744.803 515.016, 749.562 516.351, 754.449 518.116, 760.909 518.829, 763.519 521.810, 773.064 523.011, 776.908 524.287, 780.509 525.470, 783.849 527.542, 789.697 530.974, 798.281 532.214, 801.382 532.404, 801.858 535.052, 807.748 537.577, 813.365 542.085, 822.292 543.045, 824.191 547.976, 832.891 548.784, 834.317 554.152, 842.754 554.773, 843.730 560.590, 851.864 560.988, 852.421 567.266, 860.205 567.408, 860.382 574.011, 867.605 580.777, 874.087 587.685, 879.823 594.716, 884.812 601.849, 889.058 609.065, 892.569 616.341, 895.360 622.653, 897.154 623.660, 897.440 631.004, 898.823 638.356, 899.520 645.700, 899.545 653.021, 898.910 660.304, 897.628 667.535, 895.718 674.700, 893.203 681.786, 890.103 688.782, 886.440 695.677, 882.234 702.460, 877.502 709.122, 872.263 715.653, 866.534 722.045, 860.332 728.291, 853.680 734.382, 846.601 740.314, 839.117 746.079, 831.246 751.673, 823.010 757.009, 814.552 757.090, 814.424 762.152, 805.800 762.324, 805.506 767.120, 796.731 767.371, 796.271 771.909, 787.360 772.226, 786.738 776.516, 777.704 776.886, 776.925 780.936, 767.781 781.348, 766.851 785.166, 757.609 785.610, 756.536 789.203, 747.204 789.669, 745.995 793.043, 736.581 793.522, 735.244 796.682, 725.756 797.167, 724.298 800.115, 714.742 800.600, 713.171 803.341, 703.554 803.819, 701.878 806.356, 692.205 806.820, 690.434 809.158, 680.711 809.605, 678.855 811.748, 669.087 812.171, 667.156 814.122, 657.348 814.518, 655.352 816.279, 645.508 816.645, 643.457 818.216, 633.581 818.550, 631.485 819.932, 621.581 820.230, 619.448 821.424, 609.520 821.684, 607.361 822.689, 597.412 822.909, 595.237 823.728, 585.271 823.907, 583.091 824.539, 573.111 824.677, 570.935 825.122, 560.945 825.219, 558.784 825.474, 548.787 825.529, 546.650 825.594, 536.650 825.608, 534.549 825.480, 524.549 825.454, 522.492 825.431, 521.771 " fill="none" stroke="rgb(0, 0, 0)" stroke-linecap="butt" stroke-linejoin="round" stroke-opacity="1.0" stroke-width="3.0" />
            <path d=" M 675.568, 254.129 668.047, 254.934 660.449, 256.443 652.793, 258.672 645.094, 261.630 637.371, 265.321 629.641, 269.753 621.924, 274.928 614.241, 280.851 609.937, 284.615 606.612, 287.523 599.481, 294.534 599.060, 294.947 592.323, 302.337 591.610, 303.120 585.261, 310.847 584.283, 312.037 580.172, 317.561 577.104, 321.683 571.499, 329.964 570.094, 332.040 569.865, 332.410 569.844, 332.444 569.377, 333.202 564.125, 341.712 563.275, 343.090 563.091, 343.417 560.655, 347.741 559.037, 350.613 556.671, 354.811 553.985, 360.031 552.319, 363.269 550.306, 367.180 546.054, 376.231 544.203, 380.172 541.214, 387.153 538.386, 393.757 534.759, 403.076 532.880, 407.903 529.553, 417.334 527.705, 422.573 525.957, 428.061 522.923, 437.590 522.880, 437.723 520.130, 447.338 518.423, 453.309 515.951, 462.999 514.349, 469.283 512.152, 479.039 510.675, 485.599 508.749, 495.412 507.416, 502.205 505.760, 512.067 504.587, 519.050 503.529, 526.606 502.202, 536.081 501.083, 546.019 500.270, 553.243 499.417, 563.206 498.794, 570.477 498.207, 580.460 497.779, 587.728 497.459, 597.723 497.227, 604.939 497.178, 614.939 497.143, 622.055 497.367, 632.052 497.523, 639.018 498.025, 649.006 498.366, 655.776 499.150, 665.745 499.663, 672.274 500.736, 682.216 501.410, 688.462 502.779, 698.368 503.093, 700.641 503.597, 704.289 505.269, 714.148 506.212, 719.709 508.197, 729.510 509.243, 734.678 511.551, 744.408 512.676, 749.154 515.265, 758.606 516.495, 763.098 517.005, 764.726 519.994, 774.269 520.684, 776.473 523.372, 784.041 524.544, 787.339 525.223, 789.251 528.943, 798.533 530.092, 801.401 530.179, 801.593 531.463, 804.444 534.332, 810.809 535.273, 812.899 539.789, 821.821 540.748, 823.716 545.688, 832.410 546.496, 833.834 551.872, 842.266 552.494, 843.240 558.319, 851.368 558.718, 851.925 565.003, 859.703 565.146, 859.881 571.759, 867.100 578.533, 873.579 585.451, 879.313 592.492, 884.301 599.635, 888.546 606.860, 892.058 614.147, 894.850 621.476, 896.932 " fill="none" stroke="rgb(0, 0, 0)" stroke-linecap="butt" stroke-linejoin="round" stroke-opacity="1.0" stroke-width="3.0" />
            <path d=" M 677.790, 254.003 675.568, 254.129 " fill="none" stroke="rgb(0, 0, 0)" stroke-linecap="butt" stroke-linejoin="round" stroke-opacity="1.0" stroke-width="3.0" />
            <path d=" M 621.476, 896.932 623.660, 897.440 " fill="none" stroke="rgb(0, 0, 0)" stroke-linecap="butt" stroke-linejoin="round" stroke-opacity="1.0" stroke-width="3.0" />
            <path d=" M 485.938, 692.062 487.332, 701.965 488.490, 710.194 490.192, 720.048 491.538, 727.840 493.556, 737.634 493.691, 738.289 495.064, 744.948 495.398, 746.332 497.744, 756.052 499.051, 761.468 500.646, 767.188 503.332, 776.821 503.481, 777.356 504.594, 780.849 506.545, 786.968 507.979, 791.467 508.330, 792.569 509.674, 796.282 510.813, 799.429 513.578, 807.072 515.402, 811.534 516.561, 814.370 519.118, 820.627 519.201, 820.830 520.367, 823.365 522.839, 828.738 524.077, 831.430 524.719, 832.827 525.174, 833.816 527.304, 837.937 531.473, 846.004 536.492, 854.653 538.071, 857.375 543.534, 865.751 544.944, 867.913 550.865, 875.972 552.065, 877.605 558.455, 885.297 559.408, 886.444 566.276, 893.712 566.948, 894.424 574.295, 901.207 574.659, 901.544 582.517, 907.806 590.497, 913.216 598.576, 917.781 606.731, 921.510 614.940, 924.417 623.183, 926.516 627.498, 927.577 635.731, 928.877 643.958, 929.402 652.160, 929.171 660.320, 928.204 668.423, 926.523 676.453, 924.150 684.395, 921.107 692.237, 917.418 699.966, 913.107 707.571, 908.196 715.040, 902.711 722.364, 896.673 729.534, 890.108 736.542, 883.038 743.254, 875.625 743.379, 875.487 749.772, 867.797 750.039, 867.476 756.124, 859.541 756.516, 859.030 762.302, 850.874 762.803, 850.169 768.302, 841.817 768.895, 840.915 774.116, 832.387 774.787, 831.290 779.741, 822.603 780.476, 821.313 785.170, 812.483 785.956, 811.005 790.401, 802.047 791.225, 800.385 795.428, 791.311 796.279, 789.473 800.247, 780.294 801.115, 778.287 804.856, 769.013 805.730, 766.845 809.250, 757.485 810.123, 755.165 813.428, 745.727 814.290, 743.264 817.385, 733.755 818.230, 731.159 821.120, 721.585 821.941, 718.866 824.630, 709.234 825.421, 706.401 827.914, 696.716 828.669, 693.779 830.968, 684.047 831.684, 681.017 833.792, 671.242 834.463, 668.128 836.383, 658.314 837.006, 655.129 838.740, 645.280 839.311, 642.032 840.860, 632.153 841.378, 628.853 842.744, 618.947 843.205, 615.606 844.388, 605.676 844.790, 602.304 845.793, 592.354 846.134, 588.961 846.955, 578.995 847.235, 575.592 847.874, 565.613 848.092, 562.210 848.549, 552.220 848.704, 548.828 848.977, 538.832 849.070, 535.462 849.159, 525.462 849.188, 522.123 849.091, 512.124 849.059, 508.827 848.773, 498.831 848.681, 495.588 848.204, 485.599 848.052, 482.419 847.382, 472.442 847.173, 469.336 846.305, 459.374 846.042, 456.353 844.973, 446.410 844.658, 443.485 843.384, 433.567 843.021, 430.748 841.536, 420.859 841.130, 418.157 839.428, 408.303 838.984, 405.728 837.060, 395.915 836.582, 393.478 834.429, 383.713 833.924, 381.424 831.535, 371.714 831.010, 369.583 828.376, 359.936 827.840, 357.972 824.952, 348.398 824.413, 346.611 821.262, 337.120 820.730, 335.517 817.305, 326.122 816.791, 324.711 813.081, 315.425 812.597, 314.212 808.590, 305.050 808.149, 304.041 803.832, 295.020 803.448, 294.218 798.808, 285.359 798.496, 284.764 793.519, 276.091 793.296, 275.703 787.966, 267.242 787.849, 267.056 782.160, 258.847 776.230, 251.098 770.066, 243.834 763.671, 237.078 757.052, 230.856 750.215, 225.191 743.166, 220.109 735.915, 215.633 728.469, 211.790 720.839, 208.604 713.035, 206.097 705.070, 204.295 696.957, 203.220 688.709, 202.894 680.342, 203.338 675.920, 203.686 667.428, 204.921 658.851, 206.963 650.208, 209.827 641.520, 213.530 632.806, 218.082 624.311, 223.358 624.091, 223.495 615.985, 229.351 615.397, 229.776 607.690, 236.149 606.748, 236.928 599.446, 243.760 598.170, 244.954 591.270, 252.192 589.689, 253.851 583.186, 261.448 581.925, 262.921 581.332, 263.614 575.218, 271.526 573.127, 274.232 567.391, 282.423 565.101, 285.693 563.132, 288.788 562.533, 289.728 559.292, 294.823 558.825, 295.556 557.283, 297.980 556.304, 299.669 555.683, 300.742 554.720, 302.404 551.566, 307.850 549.995, 310.561 549.701, 311.069 549.569, 311.319 547.971, 314.347 543.304, 323.191 542.384, 324.936 541.583, 326.601 540.009, 329.877 536.994, 336.149 535.359, 339.549 531.351, 348.711 528.655, 354.875 527.466, 357.867 523.773, 367.160 522.297, 370.874 518.911, 380.283 516.313, 387.503 513.226, 397.014 510.727, 404.714 507.932, 414.316 505.562, 422.457 503.054, 432.138 500.841, 440.678 498.614, 450.427 497.945, 453.358 496.583, 459.318 495.705, 463.739 493.756, 473.547 492.808, 478.317 491.133, 488.176 489.531, 497.612 488.143, 507.411 487.347, 513.028 487.180, 514.208 486.831, 516.667 486.765, 517.137 486.601, 518.579 486.500, 519.464 486.434, 520.047 486.267, 521.513 485.135, 531.449 484.523, 536.826 483.662, 546.788 482.813, 556.610 482.222, 566.592 481.641, 576.421 481.323, 586.416 481.012, 596.191 480.968, 606.191 480.926, 615.851 481.159, 625.848 481.381, 635.333 481.896, 645.319 482.334, 653.815 482.373, 654.571 483.174, 664.539 483.483, 668.381 483.895, 673.502 484.989, 683.442 485.938, 692.062 " fill="none" stroke="rgb(0, 0, 0)" stroke-linecap="butt" stroke-linejoin="round" stroke-opacity="1.0" stroke-width="3.0" />
            <path d=" M 680.342, 203.338 671.872, 204.572 663.318, 206.615 654.697, 209.482 646.030, 213.189 637.338, 217.748 628.852, 223.039 628.642, 223.169 620.547, 229.040 619.968, 229.460 612.274, 235.848 611.338, 236.625 604.049, 243.471 602.778, 244.665 595.893, 251.917 594.315, 253.579 587.827, 261.188 585.975, 263.360 584.465, 265.322 578.365, 273.246 577.785, 274.000 572.064, 282.201 569.774, 285.484 564.420, 293.930 564.133, 294.384 563.558, 295.290 561.970, 297.796 559.500, 302.077 557.009, 306.393 555.430, 309.129 554.401, 310.913 550.358, 318.602 548.748, 321.664 547.095, 324.809 542.776, 333.828 540.081, 339.455 537.840, 344.596 533.844, 353.763 533.386, 354.814 529.704, 364.112 527.037, 370.848 523.661, 380.261 521.060, 387.514 518.628, 395.033 515.550, 404.547 515.480, 404.765 512.694, 414.369 510.320, 422.549 507.819, 432.231 505.603, 440.811 503.383, 450.561 501.348, 459.494 499.404, 469.303 497.575, 478.537 495.904, 488.396 495.541, 490.538 494.298, 497.876 492.922, 507.608 491.630, 516.751 491.531, 517.446 491.292, 519.549 490.834, 523.576 489.705, 533.512 489.287, 537.180 489.220, 537.963 488.359, 547.926 487.575, 557.010 487.520, 557.939 486.929, 567.921 486.399, 576.867 486.243, 581.758 485.923, 591.753 485.765, 596.682 485.726, 604.863 485.679, 614.863 485.672, 616.386 485.902, 626.383 486.120, 635.911 486.630, 645.898 487.104, 655.192 487.899, 665.161 488.151, 668.320 488.393, 671.347 488.618, 674.164 489.114, 678.704 489.765, 684.662 489.860, 685.533 490.651, 692.765 492.036, 702.669 492.629, 706.911 492.885, 708.740 493.192, 710.935 494.884, 720.791 496.227, 728.618 496.301, 728.977 498.308, 738.773 499.741, 745.761 502.075, 755.484 503.715, 762.314 506.387, 771.950 508.130, 778.233 508.806, 780.365 510.330, 785.169 512.964, 793.475 516.352, 802.883 517.288, 805.482 518.196, 808.004 518.426, 808.569 522.194, 817.832 522.321, 818.144 523.802, 821.786 524.456, 823.214 525.705, 825.943 528.764, 832.622 529.758, 834.794 534.333, 843.686 536.039, 847.001 541.041, 855.660 542.618, 858.390 548.065, 866.776 549.472, 868.942 555.377, 877.013 556.573, 878.647 562.948, 886.351 563.896, 887.496 570.750, 894.777 571.415, 895.484 578.750, 902.281 579.105, 902.610 586.942, 908.876 594.901, 914.288 602.958, 918.852 611.091, 922.580 619.278, 925.483 627.498, 927.577 " fill="none" stroke="rgb(0, 0, 0)" stroke-linecap="butt" stroke-linejoin="round" stroke-opacity="1.0" stroke-width="3.0" />
            <path d=" M 729.441, 518.260 728.563, 518.397 727.682, 518.758 726.812, 519.337 725.969, 520.125 725.743, 520.415 725.200, 521.112 724.522, 522.281 723.912, 523.612 723.382, 525.080 722.941, 526.661 722.676, 527.937 722.595, 528.329 722.352, 530.054 722.334, 530.283 722.215, 531.806 722.187, 533.556 722.269, 535.274 " fill="none" stroke="rgb(0, 0, 0)" stroke-linecap="butt" stroke-linejoin="round" stroke-opacity="1.0" stroke-width="3.0" />
            <path d=" M 728.770, 528.321 729.030, 528.356 729.280, 528.482 729.511, 528.694 729.718, 528.988 729.896, 529.355 730.039, 529.785 730.143, 530.267 730.207, 530.787 " fill="none" stroke="rgb(0, 0, 0)" stroke-linecap="butt" stroke-linejoin="round" stroke-opacity="1.0" stroke-width="3.0" />
            <path d=" M 727.184, 530.593 730.207, 530.787 738.912, 525.865 747.617, 520.944 754.764, 516.904 " fill="none" stroke="rgb(0, 0, 0)" stroke-linecap="butt" stroke-linejoin="round" stroke-opacity="1.0" stroke-width="3.0" />
            <path d=" M 802.616, 522.545 801.780, 522.691 800.939, 523.067 800.106, 523.668 799.297, 524.485 799.080, 524.785 798.560, 525.506 797.911, 526.716 797.327, 528.091 796.817, 529.608 796.389, 531.241 796.131, 532.559 796.052, 532.963 795.811, 534.743 795.793, 534.980 795.671, 536.552 795.633, 538.357 795.699, 540.128 " fill="none" stroke="rgb(0, 0, 0)" stroke-linecap="butt" stroke-linejoin="round" stroke-opacity="1.0" stroke-width="3.0" />
            <path d=" M 801.886, 532.921 802.132, 532.956 802.366, 533.084 802.584, 533.302 802.778, 533.604 802.943, 533.981 803.075, 534.424 803.171, 534.920 803.227, 535.456 " fill="none" stroke="rgb(0, 0, 0)" stroke-linecap="butt" stroke-linejoin="round" stroke-opacity="1.0" stroke-width="3.0" />
            <path d=" M 779.035, 479.503 779.171, 479.426 779.319, 479.372 779.475, 479.341 779.636, 479.336 779.857, 479.367 780.072, 479.443 780.275, 479.561 780.457, 479.716 780.611, 479.902 780.733, 480.115 780.817, 480.349 780.858, 480.599 780.853, 480.833 780.805, 481.055 780.717, 481.260 780.592, 481.437 780.433, 481.581 780.246, 481.688 " fill="none" stroke="rgb(0, 0, 0)" stroke-linecap="butt" stroke-linejoin="round" stroke-opacity="1.0" stroke-width="3.0" />
            <path d=" M 779.035, 479.503 778.976, 479.544 778.801, 479.694 778.661, 479.876 778.631, 479.925 778.526, 480.141 778.466, 480.376 778.457, 480.627 778.497, 480.859 778.508, 480.914 778.594, 481.132 778.721, 481.329 778.886, 481.496 778.928, 481.532 779.115, 481.657 779.174, 481.681 779.369, 481.758 779.426, 481.772 779.497, 481.782 779.647, 481.800 779.689, 481.803 779.739, 481.804 779.790, 481.802 779.841, 481.798 779.890, 481.792 779.935, 481.784 779.975, 481.774 780.130, 481.731 780.196, 481.711 780.246, 481.688 " fill="none" stroke="rgb(0, 0, 0)" stroke-linecap="butt" stroke-linejoin="round" stroke-opacity="1.0" stroke-width="3.0" />
            <path d=" M 776.669, 477.396 777.093, 483.469 781.102, 483.641 782.776, 483.712 783.419, 483.200 782.503, 477.546 780.246, 477.387 777.099, 477.167 776.669, 477.396 " fill="none" stroke="rgb(0, 0, 0)" stroke-linecap="butt" stroke-linejoin="round" stroke-opacity="1.0" stroke-width="3.0" />
            <path d=" M 782.776, 483.712 782.357, 477.624 " fill="none" stroke="rgb(0, 0, 0)" stroke-linecap="butt" stroke-linejoin="round" stroke-opacity="1.0" stroke-width="3.0" />
            <path d=" M 782.503, 477.546 782.357, 477.624 776.669, 477.396 " fill="none" stroke="rgb(0, 0, 0)" stroke-linecap="butt" stroke-linejoin="round" stroke-opacity="1.0" stroke-width="3.0" />
            <path d=" M 741.278, 508.559 738.744, 508.559 728.746, 508.758 727.263, 508.788 717.270, 509.168 715.800, 509.224 705.815, 509.767 704.351, 509.847 694.375, 510.534 692.910, 510.634 682.943, 511.447 681.472, 511.567 671.515, 512.487 670.033, 512.624 660.084, 513.635 658.587, 513.787 648.646, 514.872 647.130, 515.037 637.195, 516.178 635.655, 516.355 625.725, 517.537 624.160, 517.723 614.233, 518.930 612.638, 519.124 602.712, 520.339 601.085, 520.539 591.158, 521.749 589.495, 521.952 579.566, 523.142 577.865, 523.346 578.166, 513.350 578.303, 508.819 578.489, 498.821 578.574, 494.254 578.645, 484.254 578.678, 479.670 578.634, 469.670 578.614, 465.086 578.455, 455.087 578.383, 450.519 578.108, 440.523 577.983, 435.990 577.591, 425.998 577.415, 421.517 576.903, 411.530 576.677, 407.121 576.473, 403.891 " fill="none" stroke="rgb(0, 0, 0)" stroke-linecap="butt" stroke-linejoin="round" stroke-opacity="1.0" stroke-width="3.0" />
            <path d=" M 581.925, 262.921 580.722, 261.783 573.912, 254.460 573.423, 253.933 567.070, 246.210 566.490, 245.506 560.592, 237.430 559.948, 236.548 554.502, 228.161 553.818, 227.107 548.819, 218.446 548.116, 217.228 547.826, 216.662 543.270, 207.760 542.855, 206.951 541.741, 204.488 541.623, 204.227 538.047, 196.318 " fill="none" stroke="rgb(0, 0, 0)" stroke-linecap="butt" stroke-linejoin="round" stroke-opacity="1.0" stroke-width="3.0" />
            <path d=" M 538.047, 196.318 537.954, 196.100 534.266, 187.488 530.330, 179.268 529.540, 177.802 526.243, 171.693 525.553, 170.570 522.009, 164.802 518.133, 159.338 517.635, 158.637 513.938, 154.210 513.128, 153.240 508.495, 148.651 503.745, 144.909 500.047, 142.739 498.887, 142.058 497.112, 141.370 493.933, 140.138 488.894, 139.187 483.783, 139.242 478.616, 140.342 473.407, 142.520 470.659, 144.244 469.727, 144.829 468.174, 145.803 464.350, 149.027 462.935, 150.220 457.710, 155.795 452.965, 161.966 452.519, 162.545 451.684, 163.835 447.383, 170.481 446.849, 171.445 442.326, 179.609 437.998, 188.625 437.371, 189.932 433.501, 199.153 432.542, 201.439 429.079, 210.821 427.864, 214.114 424.766, 223.623 423.361, 227.935 420.594, 237.544 419.060, 242.869 416.593, 252.560 414.985, 258.874 412.792, 268.631 411.159, 275.900 409.222, 285.710 407.607, 293.888 405.908, 303.742 404.351, 312.770 402.876, 322.661 401.413, 332.468 400.149, 342.388 398.885, 352.308 398.810, 352.897 397.750, 362.840 396.689, 372.784 396.563, 373.965 395.697, 383.928 394.831, 393.890 394.685, 395.576 394.007, 405.553 393.330, 415.530 393.188, 417.622 392.695, 427.610 392.202, 437.598 392.084, 439.996 392.110, 440.084 395.014, 449.653 397.917, 459.222 397.993, 459.473 398.588, 461.350 401.610, 470.882 403.975, 478.340 407.120, 487.833 410.033, 496.625 413.303, 506.075 416.167, 514.352 419.565, 523.757 422.379, 531.545 425.908, 540.902 428.671, 548.229 432.334, 557.535 435.046, 564.426 438.843, 573.676 441.503, 580.156 445.439, 589.349 448.047, 595.441 452.121, 604.573 454.677, 610.302 458.893, 619.370 461.397, 624.756 465.755, 633.756 468.208, 638.823 472.709, 647.753 475.113, 652.522 479.758, 661.378 482.113, 665.868 483.483, 668.381 " fill="none" stroke="rgb(0, 0, 0)" stroke-linecap="butt" stroke-linejoin="round" stroke-opacity="1.0" stroke-width="3.0" />
            <path d=" M 481.041, 649.100 482.334, 653.815 " fill="none" stroke="rgb(0, 0, 0)" stroke-linecap="butt" stroke-linejoin="round" stroke-opacity="1.0" stroke-width="3.0" />
            <path d=" M 362.600, 431.124 358.041, 440.024 355.536, 444.917 " fill="none" stroke="rgb(0, 0, 0)" stroke-linecap="butt" stroke-linejoin="round" stroke-opacity="1.0" stroke-width="3.0" />
            <path d=" M 470.659, 144.244 465.952, 144.522 " fill="none" stroke="rgb(0, 0, 0)" stroke-linecap="butt" stroke-linejoin="round" stroke-opacity="1.0" stroke-width="3.0" />
            <path d=" M 536.154, 499.848 541.048, 500.063 534.735, 505.075 " fill="none" stroke="rgb(0, 0, 0)" stroke-linecap="butt" stroke-linejoin="round" stroke-opacity="1.0" stroke-width="3.0" />
            <path d=" M 790.843, 539.807 791.022, 546.701 " fill="none" stroke="rgb(0, 0, 0)" stroke-linecap="butt" stroke-linejoin="round" stroke-opacity="1.0" stroke-width="3.0" />
            <path d=" M 794.775, 522.086 794.641, 519.628 " fill="none" stroke="rgb(0, 0, 0)" stroke-linecap="butt" stroke-linejoin="round" stroke-opacity="1.0" stroke-width="3.0" />
            <path d=" M 800.269, 520.859 800.229, 520.133 " fill="none" stroke="rgb(0, 0, 0)" stroke-linecap="butt" stroke-linejoin="round" stroke-opacity="1.0" stroke-width="3.0" />
        </g>
    </g>
</svg>
