<?xml version='1.0' encoding='ascii'?>
<svg xmlns="http://www.w3.org/2000/svg" height="1080" version="1.1" width="1080">
    <g id="View Layer_LineSet" inkscape:groupmode="lineset" inkscape:label="View Layer_LineSet" xmlns:inkscape="http://www.inkscape.org/namespaces/inkscape">
        <g id="strokes" inkscape:groupmode="layer" inkscape:label="strokes" xmlns:inkscape="http://www.inkscape.org/namespaces/inkscape">
            <path d=" M 565.437, 508.411 565.419, 508.655 " fill="none" stroke="rgb(0, 0, 0)" stroke-linecap="butt" stroke-linejoin="round" stroke-opacity="1.0" stroke-width="3.0" />
            <path d=" M 355.796, 439.367 362.208, 437.963 " fill="none" stroke="rgb(0, 0, 0)" stroke-linecap="butt" stroke-linejoin="round" stroke-opacity="1.0" stroke-width="3.0" />
            <path d=" M 380.132, 438.094 390.050, 439.373 392.106, 439.639 " fill="none" stroke="rgb(0, 0, 0)" stroke-linecap="butt" stroke-linejoin="round" stroke-opacity="1.0" stroke-width="3.0" />
            <path d=" M 392.106, 439.639 388.347, 430.372 384.588, 421.106 383.908, 419.432 " fill="none" stroke="rgb(0, 0, 0)" stroke-linecap="butt" stroke-linejoin="round" stroke-opacity="1.0" stroke-width="3.0" />
            <path d=" M 466.649, 142.534 462.139, 143.059 457.576, 144.677 452.973, 147.420 448.347, 151.317 443.714, 156.397 439.169, 162.580 439.092, 162.684 438.377, 163.853 434.501, 170.191 429.961, 178.929 425.872, 188.055 425.492, 188.903 421.855, 198.218 421.117, 200.108 417.874, 209.568 416.858, 212.531 413.962, 222.103 412.737, 226.151 410.152, 235.811 408.780, 240.939 406.473, 250.670 405.008, 256.854 402.954, 266.641 401.443, 273.846 399.623, 283.679 398.109, 291.857 396.505, 301.727 395.027, 310.818 393.624, 320.719 392.217, 330.650 391.003, 340.576 389.790, 350.502 389.697, 351.265 388.664, 361.212 387.631, 371.159 387.484, 372.571 386.624, 382.534 385.764, 392.497 385.595, 394.463 384.901, 404.439 384.208, 414.415 384.039, 416.834 383.908, 419.432 381.925, 429.233 380.132, 438.094 " fill="none" stroke="rgb(0, 0, 0)" stroke-linecap="butt" stroke-linejoin="round" stroke-opacity="1.0" stroke-width="3.0" />
            <path d=" M 527.661, 720.003 528.093, 717.979 530.011, 708.165 530.444, 705.950 532.207, 696.107 532.661, 693.575 534.279, 683.707 534.743, 680.881 536.225, 670.992 536.690, 667.895 538.044, 657.987 538.502, 654.642 539.735, 644.718 539.778, 644.369 540.179, 641.147 541.296, 631.209 541.721, 627.432 542.727, 617.483 543.128, 613.521 544.028, 603.562 544.401, 599.436 545.198, 589.468 545.540, 585.198 546.237, 575.222 546.544, 570.827 547.144, 560.845 547.415, 556.344 547.920, 546.357 548.152, 541.769 548.564, 531.777 548.755, 527.120 555.326, 527.122 557.174, 527.123 557.301, 527.123 559.087, 527.123 562.660, 527.124 563.508, 527.125 564.447, 527.125 567.024, 527.126 577.024, 527.128 577.737, 527.129 578.050, 517.134 578.199, 512.360 578.394, 502.362 578.488, 497.550 578.566, 487.550 578.604, 482.719 578.566, 472.719 578.547, 467.887 578.391, 457.888 578.316, 453.073 578.043, 443.077 577.912, 438.298 577.519, 428.306 577.333, 423.581 576.819, 413.594 576.579, 408.944 576.406, 406.222 " fill="none" stroke="rgb(0, 0, 0)" stroke-linecap="butt" stroke-linejoin="round" stroke-opacity="1.0" stroke-width="3.0" />
            <path d=" M 573.489, 411.227 573.568, 412.448 574.087, 422.435 574.297, 426.465 574.694, 436.458 574.857, 440.563 575.133, 450.559 575.248, 454.720 575.406, 464.719 575.472, 468.917 575.511, 478.917 575.528, 483.132 575.450, 493.132 575.417, 497.347 575.221, 507.345 575.139, 511.542 575.104, 512.633 575.008, 513.281 574.904, 513.888 574.793, 514.451 574.676, 514.967 574.554, 515.434 574.427, 515.848 574.295, 516.207 574.160, 516.510 574.022, 516.755 573.883, 516.941 573.742, 517.066 573.601, 517.129 573.461, 517.132 573.321, 517.072 569.365, 514.488 569.225, 513.186 569.056, 512.016 568.859, 510.997 568.638, 510.148 568.398, 509.483 568.141, 509.013 567.872, 508.747 567.595, 508.690 567.438, 508.688 565.431, 508.656 565.419, 508.655 564.888, 508.647 563.924, 508.631 563.102, 508.618 559.531, 508.560 557.748, 508.531 557.669, 508.530 557.207, 508.523 556.917, 508.676 556.629, 509.038 556.348, 509.602 556.079, 510.360 555.826, 511.300 555.746, 511.680 555.594, 512.406 555.386, 513.659 555.207, 515.039 555.060, 516.520 554.946, 518.079 554.869, 519.689 555.544, 520.093 556.527, 520.681 557.376, 520.696 557.472, 520.698 557.630, 520.701 559.256, 520.729 562.827, 520.793 563.660, 520.807 564.613, 520.824 565.065, 520.832 566.931, 520.865 566.956, 520.357 566.995, 519.872 567.047, 519.423 567.110, 519.022 567.182, 518.681 567.230, 518.518 567.262, 518.409 567.348, 518.212 567.436, 518.098 567.525, 518.068 " fill="none" stroke="rgb(0, 0, 0)" stroke-linecap="butt" stroke-linejoin="round" stroke-opacity="1.0" stroke-width="3.0" />
            <path d=" M 567.984, 521.520 574.694, 525.696 577.737, 527.129 " fill="none" stroke="rgb(0, 0, 0)" stroke-linecap="butt" stroke-linejoin="round" stroke-opacity="1.0" stroke-width="3.0" />
            <path d=" M 390.042, 207.581 388.247, 213.279 385.561, 222.911 384.491, 226.745 382.085, 236.452 380.863, 241.384 378.707, 251.148 377.381, 257.155 375.452, 266.967 374.067, 274.011 372.345, 283.862 370.940, 291.899 369.410, 301.782 368.021, 310.754 366.669, 320.662 365.327, 330.498 364.142, 340.427 362.957, 350.357 362.875, 351.048 361.850, 360.995 360.824, 370.943 360.683, 372.313 359.809, 382.275 358.936, 392.237 358.764, 394.194 358.037, 404.167 357.309, 414.141 357.131, 416.582 356.546, 426.565 355.961, 436.548 355.796, 439.367 355.396, 449.359 354.997, 459.351 354.875, 462.396 354.634, 472.393 354.394, 482.390 354.318, 485.560 354.236, 495.560 354.154, 505.560 354.128, 508.739 354.205, 518.738 354.283, 528.738 354.306, 531.809 354.545, 541.806 354.784, 551.803 354.852, 554.651 355.255, 564.643 355.658, 574.635 355.760, 577.147 356.332, 587.130 356.904, 597.114 357.023, 599.184 357.770, 609.156 358.518, 619.128 358.632, 620.654 359.563, 630.611 360.494, 640.567 360.577, 641.456 361.701, 651.393 362.843, 661.496 364.171, 671.408 365.415, 680.690 366.962, 690.569 368.276, 698.958 369.777, 707.243 " fill="none" stroke="rgb(0, 0, 0)" stroke-linecap="butt" stroke-linejoin="round" stroke-opacity="1.0" stroke-width="3.0" />
            <path d=" M 493.459, 737.607 492.629, 740.487 489.622, 750.024 489.541, 750.282 486.319, 759.584 482.967, 768.360 479.488, 776.578 475.887, 784.204 472.168, 791.199 468.336, 797.529 464.397, 803.158 460.358, 808.048 456.227, 812.159 454.636, 813.404 " fill="none" stroke="rgb(0, 0, 0)" stroke-linecap="butt" stroke-linejoin="round" stroke-opacity="1.0" stroke-width="3.0" />
            <path d=" M 392.371, 434.519 392.106, 439.639 391.729, 449.632 391.351, 459.624 391.238, 462.611 391.021, 472.609 390.804, 482.607 390.736, 485.720 390.679, 495.720 390.621, 505.719 390.603, 508.843 390.706, 518.842 390.809, 528.842 390.839, 531.860 391.103, 541.856 391.367, 551.853 391.441, 554.651 391.868, 564.642 392.295, 574.633 392.401, 577.100 392.994, 587.082 393.588, 597.065 393.708, 599.094 394.474, 609.065 395.239, 619.036 395.354, 620.526 396.297, 630.482 397.240, 640.437 397.322, 641.295 398.451, 651.231 399.595, 661.307 400.920, 671.219 402.157, 680.478 403.690, 690.359 404.987, 698.728 406.743, 708.573 408.066, 715.992 410.062, 725.791 411.370, 732.212 413.629, 741.953 414.878, 747.337 417.428, 757.006 418.568, 761.327 421.442, 770.905 422.417, 774.153 425.657, 783.614 426.404, 785.795 430.061, 795.102 430.506, 796.235 434.643, 805.339 434.702, 805.469 438.972, 813.502 442.794, 819.546 443.072, 819.985 443.296, 820.339 447.655, 825.995 452.033, 830.489 456.412, 833.848 460.777, 836.098 465.114, 837.269 469.409, 837.399 473.651, 836.525 477.829, 834.682 481.933, 831.910 485.953, 828.251 488.100, 825.790 489.883, 823.747 493.714, 818.436 497.441, 812.360 501.059, 805.560 504.562, 798.075 507.590, 790.800 " fill="none" stroke="rgb(0, 0, 0)" stroke-linecap="butt" stroke-linejoin="round" stroke-opacity="1.0" stroke-width="3.0" />
            <path d=" M 469.102, 819.270 465.059, 818.942 463.505, 818.439 460.992, 817.627 456.914, 815.293 454.636, 813.404 452.839, 811.915 448.780, 807.469 444.753, 801.934 440.775, 795.292 436.863, 787.535 433.034, 778.659 429.541, 769.289 429.307, 768.662 426.220, 759.150 425.701, 757.550 422.969, 747.931 422.233, 745.342 419.816, 735.639 418.924, 732.060 416.789, 722.290 415.793, 717.730 413.914, 707.908 412.858, 702.392 411.211, 692.529 410.137, 686.096 408.706, 676.199 407.649, 668.893 406.418, 658.969 405.410, 650.848 404.366, 640.902 403.435, 632.032 402.569, 622.070 401.739, 612.525 401.042, 602.549 400.333, 592.412 399.799, 582.427 399.266, 572.441 399.230, 571.786 398.854, 561.793 398.478, 551.801 398.438, 550.746 398.215, 540.748 397.993, 530.751 397.963, 529.394 397.892, 519.394 397.821, 509.394 397.810, 507.836 397.889, 497.836 397.968, 487.837 397.981, 486.182 398.209, 476.184 398.438, 466.187 398.475, 464.541 398.786, 456.351 " fill="none" stroke="rgb(0, 0, 0)" stroke-linecap="butt" stroke-linejoin="round" stroke-opacity="1.0" stroke-width="3.0" />
            <path d=" M 504.163, 780.188 502.720, 783.524 499.327, 790.496 495.833, 796.805 492.244, 802.413 488.566, 807.284 484.805, 811.378 480.969, 814.661 477.067, 817.096 473.108, 818.644 469.102, 819.270 " fill="none" stroke="rgb(0, 0, 0)" stroke-linecap="butt" stroke-linejoin="round" stroke-opacity="1.0" stroke-width="3.0" />
            <path d=" M 546.223, 525.708 545.807, 535.699 545.639, 539.743 545.123, 549.730 544.917, 553.706 544.300, 563.687 544.060, 567.577 543.339, 577.551 543.066, 581.335 542.240, 591.301 541.937, 594.960 541.002, 604.916 540.672, 608.432 539.626, 618.377 539.274, 621.730 538.111, 631.662 537.740, 634.831 536.457, 644.749 536.073, 647.714 534.663, 657.614 534.273, 660.354 533.300, 666.581 532.340, 672.729 530.656, 682.587 530.276, 684.813 528.442, 694.644 528.081, 696.580 526.087, 706.380 525.757, 708.005 525.545, 708.960 " fill="none" stroke="rgb(0, 0, 0)" stroke-linecap="butt" stroke-linejoin="round" stroke-opacity="1.0" stroke-width="3.0" />
            <path d=" M 548.755, 527.120 546.223, 525.708 555.372, 525.704 557.220, 525.704 562.705, 525.702 564.492, 525.701 564.908, 525.701 564.500, 525.456 563.562, 524.895 562.740, 524.402 559.219, 522.293 557.620, 521.336 557.631, 520.821 557.630, 520.701 " fill="none" stroke="rgb(0, 0, 0)" stroke-linecap="butt" stroke-linejoin="round" stroke-opacity="1.0" stroke-width="3.0" />
            <path d=" M 380.132, 438.094 379.746, 448.086 379.360, 458.079 379.208, 462.009 378.979, 472.007 378.751, 482.004 378.658, 486.067 378.587, 496.067 378.515, 506.067 378.486, 510.139 378.572, 520.139 378.658, 530.138 378.692, 534.096 378.937, 544.093 379.182, 554.090 379.274, 557.812 379.680, 567.804 380.087, 577.796 380.224, 581.163 380.797, 591.147 381.369, 601.130 381.536, 604.030 382.280, 614.002 383.024, 623.974 383.197, 626.298 384.120, 636.255 385.043, 646.213 385.195, 647.862 386.305, 657.800 387.415, 667.738 387.514, 668.624 388.822, 678.538 390.135, 688.494 391.655, 698.378 393.041, 707.390 394.789, 717.236 396.210, 725.245 398.205, 735.044 399.620, 741.997 401.887, 751.737 403.250, 757.597 405.818, 767.262 407.078, 772.003 409.981, 781.572 411.078, 785.187 414.362, 794.632 415.230, 797.128 418.949, 806.411 419.510, 807.813 423.730, 816.879 423.897, 817.238 428.368, 825.409 432.904, 832.336 437.485, 838.035 442.091, 842.529 446.706, 845.846 451.313, 848.018 455.896, 849.076 460.442, 849.061 464.937, 848.013 469.370, 845.970 473.729, 842.975 478.006, 839.072 482.190, 834.305 486.275, 828.714 " fill="none" stroke="rgb(0, 0, 0)" stroke-linecap="butt" stroke-linejoin="round" stroke-opacity="1.0" stroke-width="3.0" />
            <path d=" M 486.275, 828.714 489.883, 823.747 " fill="none" stroke="rgb(0, 0, 0)" stroke-linecap="butt" stroke-linejoin="round" stroke-opacity="1.0" stroke-width="3.0" />
            <path d=" M 539.192, 550.799 529.201, 551.233 527.749, 551.297 526.055, 548.061 " fill="none" stroke="rgb(0, 0, 0)" stroke-linecap="butt" stroke-linejoin="round" stroke-opacity="1.0" stroke-width="3.0" />
            <path d=" M 541.069, 500.431 540.854, 510.429 540.639, 520.426 540.526, 525.710 540.060, 535.699 539.871, 539.754 539.257, 549.735 539.192, 550.799 534.706, 541.861 530.873, 534.223 530.619, 533.718 530.365, 533.212 530.111, 532.705 529.858, 532.197 529.567, 531.483 529.356, 530.756 " fill="none" stroke="rgb(0, 0, 0)" stroke-linecap="butt" stroke-linejoin="round" stroke-opacity="1.0" stroke-width="3.0" />
            <path d=" M 531.529, 520.707 531.526, 520.872 531.489, 521.507 531.427, 522.100 531.344, 522.626 531.242, 523.061 531.127, 523.387 531.003, 523.588 530.876, 523.657 530.852, 523.645 " fill="none" stroke="rgb(0, 0, 0)" stroke-linecap="butt" stroke-linejoin="round" stroke-opacity="1.0" stroke-width="3.0" />
            <path d=" M 365.113, 391.729 364.938, 393.817 364.249, 403.794 363.560, 413.770 363.424, 415.737 362.884, 425.606 362.338, 435.591 362.208, 437.963 361.801, 447.955 361.395, 457.946 361.294, 460.409 361.026, 470.405 360.758, 480.402 360.689, 482.985 360.559, 492.984 360.428, 502.983 360.394, 505.601 360.397, 509.236 " fill="none" stroke="rgb(0, 0, 0)" stroke-linecap="butt" stroke-linejoin="round" stroke-opacity="1.0" stroke-width="3.0" />
            <path d=" M 533.948, 745.725 535.264, 739.206 537.112, 729.378 537.428, 727.698 539.152, 717.847 539.484, 715.949 541.090, 706.079 541.432, 703.979 542.926, 694.091 543.272, 691.801 544.659, 681.898 545.005, 679.434 546.289, 669.517 546.628, 666.891 547.813, 656.961 548.144, 654.187 549.233, 644.246 549.552, 641.336 550.548, 631.386 550.852, 628.352 551.758, 618.393 552.044, 615.247 552.862, 605.281 553.128, 602.036 553.859, 592.062 554.104, 588.729 554.751, 578.750 554.972, 575.339 555.536, 565.355 555.732, 561.877 556.214, 551.889 556.385, 548.356 556.785, 538.364 556.929, 534.786 557.174, 527.123 " fill="none" stroke="rgb(0, 0, 0)" stroke-linecap="butt" stroke-linejoin="round" stroke-opacity="1.0" stroke-width="3.0" />
            <path d=" M 460.388, 887.114 462.798, 887.272 466.906, 886.925 470.969, 885.777 474.981, 883.858 478.934, 881.197 482.822, 877.824 486.639, 873.770 490.381, 869.065 494.042, 863.739 497.619, 857.821 501.108, 851.341 504.506, 844.326 507.809, 836.804 511.016, 828.802 514.124, 820.347 516.196, 814.226 " fill="none" stroke="rgb(0, 0, 0)" stroke-linecap="butt" stroke-linejoin="round" stroke-opacity="1.0" stroke-width="3.0" />
            <path d=" M 517.954, 157.297 515.142, 150.127 511.929, 142.729 508.606, 135.868 505.176, 129.574 501.640, 123.875 498.003, 118.804 494.269, 114.392 490.442, 110.671 486.527, 107.672 482.529, 105.427 478.455, 103.968 474.313, 103.326 472.023, 103.438 470.109, 103.531 465.852, 104.612 461.551, 106.598 457.217, 109.513 452.860, 113.383 448.491, 118.229 444.124, 124.070 439.771, 130.921 435.445, 138.794 432.655, 144.593 431.162, 147.697 427.248, 156.899 426.936, 157.633 425.670, 160.974 422.783, 168.601 419.573, 178.072 418.718, 180.594 415.806, 190.160 414.760, 193.599 412.116, 203.244 410.923, 207.599 408.524, 217.308 407.224, 222.570 405.051, 232.331 403.681, 238.480 401.715, 248.285 400.310, 255.293 398.537, 265.134 397.127, 272.965 395.535, 282.837 394.147, 291.447 392.727, 301.345 391.387, 310.682 390.128, 320.603 388.859, 330.610 387.755, 340.549 386.652, 350.488 386.577, 351.162 385.622, 361.117 384.668, 371.071 384.553, 372.266 383.743, 382.233 382.932, 392.200 382.799, 393.844 382.128, 403.822 381.458, 413.799 381.322, 415.815 380.789, 425.801 380.256, 435.787 380.132, 438.094 379.733, 448.086 379.335, 458.078 379.234, 460.593 378.969, 470.589 378.703, 480.586 378.633, 483.222 378.500, 493.221 378.367, 503.220 378.332, 505.892 378.331, 515.892 378.330, 525.892 378.330, 528.510 378.463, 538.509 378.596, 548.508 378.628, 550.988 378.896, 560.984 379.163, 570.981 379.223, 573.236 379.628, 583.227 380.032, 593.219 380.111, 595.167 380.655, 605.152 381.199, 615.137 381.284, 616.698 381.972, 626.675 382.660, 636.651 382.736, 637.750 383.573, 647.715 384.410, 657.680 384.458, 658.246 385.450, 668.197 386.438, 678.117 387.592, 688.050 388.666, 697.297 389.991, 707.208 391.129, 715.725 392.634, 725.611 393.812, 733.350 395.510, 743.205 396.702, 750.123 398.608, 759.940 399.784, 766.004 401.913, 775.775 403.042, 780.957 405.415, 790.672 406.461, 794.954 409.101, 804.600 410.025, 807.973 412.960, 817.533 413.717, 819.997 416.982, 829.449 417.523, 831.016 421.158, 840.332 421.427, 841.022 425.414, 850.017 429.469, 858.003 433.579, 864.989 437.728, 870.987 441.906, 876.012 446.098, 880.082 450.294, 883.219 454.483, 885.446 458.654, 886.788 461.006, 887.063 462.798, 887.272 " fill="none" stroke="rgb(0, 0, 0)" stroke-linecap="butt" stroke-linejoin="round" stroke-opacity="1.0" stroke-width="3.0" />
            <path d=" M 471.870, 103.414 467.639, 103.620 463.355, 104.702 459.028, 106.688 454.666, 109.604 450.282, 113.473 445.886, 118.319 441.492, 124.158 437.112, 131.008 432.760, 138.879 429.838, 144.914 428.450, 147.779 424.516, 156.973 424.199, 157.713 420.638, 167.057 420.021, 168.678 419.528, 170.123 416.301, 179.588 415.933, 180.667 413.004, 190.228 411.951, 193.668 409.293, 203.309 408.092, 207.664 405.679, 217.369 404.372, 222.629 402.186, 232.387 400.809, 238.534 398.831, 248.336 397.419, 255.341 395.636, 265.180 394.218, 273.006 392.617, 282.877 391.222, 291.482 389.794, 301.379 388.447, 310.710 387.181, 320.630 385.906, 330.630 384.796, 340.568 383.687, 350.507 383.612, 351.174 382.653, 361.128 381.693, 371.082 381.579, 372.270 380.764, 382.237 379.950, 392.204 379.816, 393.840 379.143, 403.817 378.469, 413.794 378.334, 415.802 377.798, 425.788 377.262, 435.773 377.139, 438.072 376.739, 448.064 376.339, 458.056 376.239, 460.562 375.973, 470.558 375.707, 480.555 375.637, 483.182 375.504, 493.182 375.371, 503.181 375.336, 505.843 375.337, 515.843 375.338, 525.843 375.338, 528.453 375.473, 538.452 375.608, 548.451 375.641, 550.922 375.911, 560.918 376.182, 570.915 376.243, 573.161 376.651, 583.153 377.059, 593.144 377.138, 595.084 377.687, 605.069 378.237, 615.054 378.322, 616.607 379.016, 626.583 379.710, 636.559 379.786, 637.651 380.630, 647.616 381.474, 657.580 381.521, 658.140 382.521, 668.090 383.517, 678.004 384.679, 687.936 385.761, 697.177 387.096, 707.087 388.242, 715.600 389.758, 725.484 390.944, 733.219 392.655, 743.071 393.855, 749.986 395.773, 759.801 396.958, 765.862 399.102, 775.630 400.239, 780.811 402.628, 790.522 403.681, 794.805 406.338, 804.445 407.269, 807.820 410.223, 817.374 410.986, 819.842 413.360, 826.665 413.745, 827.773 414.818, 830.857 418.474, 840.165 418.748, 840.862 422.761, 849.855 426.843, 857.840 430.980, 864.826 435.157, 870.823 439.361, 875.849 443.581, 879.920 447.804, 883.058 452.020, 885.286 456.218, 886.629 460.388, 887.114 " fill="none" stroke="rgb(0, 0, 0)" stroke-linecap="butt" stroke-linejoin="round" stroke-opacity="1.0" stroke-width="3.0" />
            <path d=" M 474.313, 103.326 471.870, 103.414 " fill="none" stroke="rgb(0, 0, 0)" stroke-linecap="butt" stroke-linejoin="round" stroke-opacity="1.0" stroke-width="3.0" />
            <path d=" M 540.061, 764.666 540.087, 764.534 541.506, 757.287 543.301, 747.449 543.761, 744.928 545.438, 735.070 545.903, 732.333 547.466, 722.455 547.931, 719.517 549.386, 709.623 549.846, 706.498 551.197, 696.589 551.647, 693.291 552.899, 683.370 553.336, 679.913 554.492, 669.980 554.911, 666.377 555.975, 656.434 556.374, 652.698 557.348, 642.745 557.725, 638.889 558.611, 628.928 558.964, 624.962 559.764, 614.995 560.091, 610.932 560.808, 600.957 561.106, 596.809 561.741, 586.829 562.009, 582.605 562.563, 572.620 562.801, 568.332 563.276, 558.343 563.482, 554.001 563.877, 544.009 564.051, 539.624 564.368, 529.629 564.447, 527.125 " fill="none" stroke="rgb(0, 0, 0)" stroke-linecap="butt" stroke-linejoin="round" stroke-opacity="1.0" stroke-width="3.0" />
            <path d=" M 458.040, 921.560 460.443, 921.728 464.894, 921.818 469.299, 921.019 473.648, 919.363 477.935, 916.887 482.151, 913.624 486.292, 909.610 490.350, 904.880 494.322, 899.469 498.203, 893.408 501.988, 886.733 505.675, 879.475 509.260, 871.665 512.742, 863.333 516.117, 854.510 519.384, 845.223 522.473, 835.712 522.542, 835.500 523.761, 831.444 " fill="none" stroke="rgb(0, 0, 0)" stroke-linecap="butt" stroke-linejoin="round" stroke-opacity="1.0" stroke-width="3.0" />
            <path d=" M 541.752, 203.223 540.862, 198.893 540.093, 195.446 538.361, 187.673 536.010, 177.954 535.733, 176.809 533.192, 167.137 532.979, 166.324 530.230, 156.709 530.098, 156.246 527.122, 146.699 527.091, 146.602 523.959, 137.420 520.702, 128.731 517.322, 120.566 513.821, 112.955 510.200, 105.934 506.463, 99.534 502.612, 93.792 498.650, 88.742 494.583, 84.421 490.415, 80.865 486.152, 78.110 481.799, 76.194 477.364, 75.153 472.856, 75.022 472.050, 75.166 468.281, 75.837 463.651, 77.631 458.976, 80.436 454.267, 84.282 449.537, 89.197 444.798, 95.205 440.066, 102.327 435.356, 110.580 430.903, 119.534 430.682, 119.977 429.048, 123.709 426.063, 130.524 424.097, 135.584 421.516, 142.225 418.387, 151.245 417.058, 155.075 414.089, 164.624 412.708, 169.063 410.017, 178.694 408.486, 184.173 406.047, 193.871 404.410, 200.380 402.939, 206.880 400.731, 216.633 400.500, 217.652 398.505, 227.451 396.774, 235.949 394.977, 245.786 393.252, 255.225 391.639, 265.094 390.027, 274.963 389.951, 275.424 388.513, 285.320 387.075, 295.216 386.890, 296.484 385.617, 306.403 384.344, 316.321 384.085, 318.336 382.969, 328.274 381.853, 338.211 381.551, 340.903 380.587, 350.856 379.622, 360.810 379.303, 364.102 378.485, 374.068 377.666, 384.035 377.353, 387.844 376.677, 397.821 376.000, 407.798 375.713, 412.036 375.175, 422.021 374.637, 432.007 374.391, 436.579 373.990, 446.571 373.589, 456.563 373.395, 461.373 373.129, 471.369 372.863, 481.366 372.731, 486.313 372.599, 496.312 372.467, 506.311 372.401, 511.295 372.403, 521.295 372.405, 531.295 372.406, 536.214 372.543, 546.213 372.680, 556.212 372.745, 560.965 373.019, 570.961 373.293, 580.957 373.415, 585.445 373.828, 595.436 374.241, 605.428 374.411, 609.555 374.966, 619.540 375.522, 629.525 375.726, 633.200 376.427, 643.175 377.129, 653.150 377.349, 656.286 378.203, 666.250 379.056, 676.213 379.271, 678.730 380.282, 688.679 381.294, 698.627 381.479, 700.450 382.656, 710.380 383.833, 720.311 383.959, 721.373 385.311, 731.281 386.663, 741.189 386.696, 741.433 388.233, 751.314 389.674, 760.571 391.410, 770.419 392.876, 778.736 393.400, 781.369 395.350, 791.177 396.286, 795.882 397.913, 803.159 399.884, 811.975 402.320, 821.674 403.653, 826.985 405.849, 834.770 407.576, 840.890 410.600, 850.421 411.127, 852.083 411.632, 853.675 415.004, 863.089 415.806, 865.331 419.568, 874.597 420.080, 875.857 424.285, 884.930 424.436, 885.256 428.858, 893.535 433.331, 900.709 437.839, 906.794 442.368, 911.811 446.906, 915.786 451.438, 918.743 455.954, 920.714 459.867, 921.598 460.443, 921.728 " fill="none" stroke="rgb(0, 0, 0)" stroke-linecap="butt" stroke-linejoin="round" stroke-opacity="1.0" stroke-width="3.0" />
            <path d=" M 365.638, 384.777 365.382, 387.835 365.113, 391.729 364.424, 401.706 363.735, 411.682 363.714, 411.989 363.167, 421.974 362.979, 425.422 362.432, 435.408 362.373, 436.494 362.338, 437.340 361.932, 447.332 361.525, 457.324 361.366, 461.248 361.098, 471.244 360.829, 481.241 360.769, 483.481 360.698, 486.149 360.568, 496.148 360.437, 506.147 360.397, 509.236 360.373, 511.092 360.380, 521.092 360.388, 531.092 360.391, 535.971 360.537, 545.970 360.664, 554.658 360.752, 560.684 360.754, 560.742 " fill="none" stroke="rgb(0, 0, 0)" stroke-linecap="butt" stroke-linejoin="round" stroke-opacity="1.0" stroke-width="3.0" />
            <path d=" M 470.417, 75.119 465.814, 75.935 461.155, 77.729 456.450, 80.535 451.712, 84.381 446.952, 89.295 442.185, 95.302 437.424, 102.423 432.685, 110.674 428.209, 119.617 427.983, 120.069 423.951, 129.220 423.337, 130.614 421.199, 136.079 418.762, 142.311 415.467, 151.752 414.278, 155.157 414.021, 155.980 413.645, 157.182 410.659, 166.726 409.903, 169.141 407.197, 178.768 405.657, 184.246 403.204, 193.941 401.557, 200.448 399.337, 210.198 397.625, 217.713 395.618, 227.510 394.024, 235.294 393.878, 236.004 392.071, 245.840 390.337, 255.273 388.715, 265.141 387.093, 275.008 387.018, 275.465 385.572, 285.360 384.126, 295.255 383.941, 296.517 382.661, 306.435 381.380, 316.353 381.121, 318.361 379.999, 328.298 378.878, 338.235 378.575, 340.919 377.605, 350.872 376.635, 360.825 376.316, 364.109 375.493, 374.075 374.671, 384.041 374.357, 387.842 373.677, 397.819 372.998, 407.796 372.710, 412.024 372.170, 422.009 371.630, 431.995 371.383, 436.558 370.980, 446.550 370.578, 456.542 370.384, 461.341 370.118, 471.338 369.851, 481.334 369.719, 486.272 369.587, 496.271 369.456, 506.270 369.390, 511.244 369.394, 521.244 369.397, 531.244 369.399, 536.153 369.538, 546.152 369.677, 556.151 369.743, 560.894 370.020, 570.890 370.297, 580.887 370.421, 585.365 370.838, 595.357 371.255, 605.348 371.427, 609.466 371.987, 619.451 372.546, 629.435 372.752, 633.102 373.460, 643.077 374.167, 653.052 374.389, 656.180 375.249, 666.143 376.109, 676.106 376.326, 678.615 377.345, 688.563 378.364, 698.511 378.550, 700.328 379.736, 710.257 380.922, 720.187 381.048, 721.244 382.410, 731.151 383.772, 741.058 383.805, 741.297 385.354, 751.177 386.167, 756.364 386.804, 760.429 388.553, 770.275 390.029, 778.588 391.992, 788.393 392.585, 791.352 393.462, 795.730 395.200, 803.449 397.085, 811.818 399.536, 821.513 400.880, 826.824 402.920, 834.007 404.828, 840.725 407.872, 850.251 408.912, 853.508 412.304, 862.915 413.114, 865.162 416.897, 874.418 417.415, 875.686 421.644, 884.748 421.800, 885.083 426.251, 893.362 430.753, 900.535 435.291, 906.620 439.849, 911.638 444.416, 915.613 448.978, 918.572 453.523, 920.544 458.040, 921.560 " fill="none" stroke="rgb(0, 0, 0)" stroke-linecap="butt" stroke-linejoin="round" stroke-opacity="1.0" stroke-width="3.0" />
            <path d=" M 472.856, 75.022 470.417, 75.119 " fill="none" stroke="rgb(0, 0, 0)" stroke-linecap="butt" stroke-linejoin="round" stroke-opacity="1.0" stroke-width="3.0" />
            <path d=" M 547.945, 216.079 547.613, 214.156 545.775, 204.327 545.307, 201.825 543.321, 192.024 542.870, 189.801 540.725, 180.034 540.302, 178.108 537.986, 168.380 537.602, 166.770 535.100, 157.088 534.770, 155.813 532.064, 146.186 531.806, 145.266 528.877, 135.705 528.709, 135.156 525.535, 125.674 525.481, 125.514 522.122, 116.370 518.633, 107.757 515.016, 99.708 511.271, 92.259 507.403, 85.445 503.413, 79.303 499.306, 73.871 495.084, 69.187 490.753, 65.291 486.319, 62.222 481.788, 60.020 477.166, 58.724 472.462, 58.373 467.611, 58.576 462.774, 59.212 457.873, 60.867 452.919, 63.579 447.924, 67.380 442.902, 72.302 437.866, 78.372 432.832, 85.616 427.816, 94.052 423.227, 102.938 422.834, 103.698 418.704, 112.805 417.907, 114.562 414.179, 123.841 413.051, 126.650 409.681, 136.065 408.287, 139.959 405.236, 149.482 403.634, 154.480 400.871, 164.090 399.115, 170.197 396.612, 179.878 394.749, 187.085 392.484, 196.825 390.557, 205.113 390.042, 207.581 387.997, 217.369 386.561, 224.239 384.720, 234.068 382.879, 243.897 382.782, 244.414 381.131, 254.277 379.480, 264.140 379.239, 265.581 377.767, 275.472 376.296, 285.363 375.952, 287.673 374.650, 297.588 373.348, 307.503 372.939, 310.616 371.799, 320.551 370.659, 330.486 370.218, 334.329 369.234, 344.281 368.249, 354.232 367.805, 358.723 367.429, 363.204 366.595, 373.169 365.760, 383.134 365.713, 383.701 365.638, 384.777 365.370, 388.669 364.681, 398.645 363.992, 408.621 363.954, 409.164 363.408, 419.149 363.074, 425.237 362.540, 435.005 362.470, 436.709 362.064, 446.701 361.658, 456.693 361.478, 461.115 361.210, 471.111 360.942, 481.107 360.773, 487.381 360.643, 497.380 360.629, 498.466 360.499, 508.465 360.430, 513.691 360.438, 523.691 360.443, 530.344 360.450, 539.929 360.596, 549.928 360.665, 554.686 360.754, 560.742 360.830, 565.984 361.117, 575.980 361.403, 585.976 361.568, 591.745 361.997, 601.736 362.427, 611.727 362.657, 617.103 363.233, 627.087 363.808, 637.070 364.090, 641.956 364.816, 651.930 365.542, 661.903 365.855, 666.205 366.737, 676.166 367.619, 686.127 367.940, 689.758 368.985, 699.703 369.777, 707.243 370.333, 712.529 371.548, 722.455 372.764, 732.381 373.016, 734.441 374.412, 744.343 375.808, 754.245 375.974, 755.423 377.562, 765.296 379.150, 775.169 379.189, 775.413 380.982, 785.251 382.642, 794.358 384.657, 804.153 386.314, 812.211 388.569, 821.953 390.185, 828.936 392.703, 838.614 394.235, 844.503 397.043, 854.101 398.445, 858.892 401.575, 868.389 402.794, 872.088 406.285, 881.459 407.263, 884.086 411.161, 893.295 411.834, 894.884 416.194, 903.883 416.488, 904.488 421.206, 912.911 425.973, 920.167 430.773, 926.279 435.589, 931.270 440.408, 935.168 445.217, 938.004 450.003, 939.809 454.754, 940.620 459.532, 940.966 464.180, 940.812 468.775, 939.736 473.307, 937.774 477.769, 934.965 482.154, 931.346 486.456, 926.955 490.669, 921.830 494.788, 916.007 498.809, 909.521 502.728, 902.409 506.542, 894.704 510.248, 886.439 513.843, 877.646 517.327, 868.356 520.591, 858.903 520.696, 858.598 523.737, 849.071 523.951, 848.401 526.787, 838.812 526.982, 838.153 " fill="none" stroke="rgb(0, 0, 0)" stroke-linecap="butt" stroke-linejoin="round" stroke-opacity="1.0" stroke-width="3.0" />
            <path d=" M 542.551, 771.510 543.451, 766.856 545.227, 757.015 545.766, 754.025 547.424, 744.164 547.963, 740.960 549.509, 731.080 550.042, 727.677 551.483, 717.781 552.005, 714.193 553.343, 704.283 553.851, 700.524 555.091, 690.601 555.581, 686.685 556.727, 676.751 557.195, 672.692 558.249, 662.747 558.693, 658.557 559.659, 648.604 560.077, 644.294 560.956, 634.333 561.345, 629.917 562.140, 619.949 562.499, 615.437 563.211, 605.462 563.539, 600.866 564.169, 590.886 564.464, 586.217 565.015, 576.232 565.276, 571.499 565.747, 561.511 565.973, 556.725 566.367, 546.733 566.557, 541.905 566.873, 531.910 567.024, 527.126 " fill="none" stroke="rgb(0, 0, 0)" stroke-linecap="butt" stroke-linejoin="round" stroke-opacity="1.0" stroke-width="3.0" />
            <path d=" M 472.462, 58.373 467.685, 59.006 462.844, 60.660 457.951, 63.371 453.017, 67.172 448.056, 72.095 443.081, 78.166 438.107, 85.412 433.151, 93.852 428.607, 102.760 428.228, 103.502 425.560, 109.458 423.358, 114.372 419.670, 123.667 418.559, 126.466 415.225, 135.894 413.850, 139.783 410.832, 149.317 410.713, 149.693 409.251, 154.313 406.518, 163.932 404.782, 170.040 404.620, 170.676 402.145, 180.365 401.716, 182.045 400.465, 186.939 398.226, 196.685 396.320, 204.979 394.298, 214.773 392.368, 224.119 390.994, 231.538 389.174, 241.371 388.630, 244.309 386.997, 254.174 385.364, 264.040 385.124, 265.491 383.669, 275.384 382.213, 285.278 381.871, 287.600 381.479, 290.623 380.191, 300.540 378.889, 310.560 377.761, 320.497 376.633, 330.433 376.195, 334.292 375.221, 344.244 374.246, 354.197 373.805, 358.704 372.978, 368.670 372.152, 378.636 371.731, 383.703 371.049, 393.679 370.366, 403.656 369.988, 409.185 369.446, 419.171 368.904, 429.156 368.584, 435.047 368.180, 445.039 367.776, 455.031 367.528, 461.177 367.261, 471.174 366.993, 481.170 366.825, 487.465 366.694, 497.464 366.563, 507.463 366.479, 513.795 366.484, 523.795 366.489, 533.795 366.492, 540.054 366.633, 550.053 366.775, 560.052 366.861, 566.130 367.141, 576.126 367.421, 586.122 367.583, 591.910 368.004, 601.901 368.425, 611.893 368.652, 617.288 369.218, 627.272 369.783, 637.256 370.061, 642.160 370.775, 652.134 371.489, 662.109 371.798, 666.426 372.666, 676.389 373.534, 686.351 373.852, 689.996 374.881, 699.943 375.331, 704.290 375.667, 707.541 376.209, 712.784 377.407, 722.712 378.605, 732.640 378.854, 734.711 380.230, 744.616 381.606, 754.520 381.771, 755.707 383.203, 764.739 384.211, 771.102 384.942, 775.709 386.710, 785.552 388.347, 794.665 390.335, 804.466 391.970, 812.529 393.711, 820.157 395.789, 829.263 398.274, 838.949 399.786, 844.838 402.558, 854.446 403.940, 859.234 407.032, 868.744 408.019, 871.781 408.232, 872.436 411.682, 881.822 412.644, 884.438 416.498, 893.665 417.155, 895.239 421.469, 904.261 421.749, 904.846 426.407, 913.270 431.113, 920.527 435.852, 926.638 440.607, 931.628 445.366, 935.524 450.114, 938.357 454.840, 940.159 459.532, 940.966 " fill="none" stroke="rgb(0, 0, 0)" stroke-linecap="butt" stroke-linejoin="round" stroke-opacity="1.0" stroke-width="3.0" />
            <path d=" M 565.335, 519.873 565.411, 518.261 565.427, 518.031 565.500, 516.995 565.521, 516.700 565.664, 515.216 565.838, 513.835 566.039, 512.580 566.263, 511.473 566.507, 510.531 566.767, 509.772 567.038, 509.206 567.316, 508.844 567.437, 508.777 567.595, 508.690 " fill="none" stroke="rgb(0, 0, 0)" stroke-linecap="butt" stroke-linejoin="round" stroke-opacity="1.0" stroke-width="3.0" />
            <path d=" M 554.869, 519.689 555.553, 519.701 557.400, 519.734 557.602, 519.737 562.850, 519.829 564.636, 519.861 565.096, 519.869 565.335, 519.873 566.931, 520.865 " fill="none" stroke="rgb(0, 0, 0)" stroke-linecap="butt" stroke-linejoin="round" stroke-opacity="1.0" stroke-width="3.0" />
            <path d=" M 557.620, 521.336 562.811, 521.428 564.598, 521.460 565.045, 521.468 567.159, 521.505 567.984, 521.520 567.995, 521.005 567.991, 520.495 567.973, 520.004 567.941, 519.545 567.895, 519.131 567.838, 518.772 567.770, 518.480 567.694, 518.261 567.612, 518.123 567.525, 518.068 " fill="none" stroke="rgb(0, 0, 0)" stroke-linecap="butt" stroke-linejoin="round" stroke-opacity="1.0" stroke-width="3.0" />
            <path d=" M 626.342, 916.090 628.510, 916.612 636.384, 917.829 644.256, 918.307 652.107, 918.064 659.922, 917.119 667.685, 915.492 675.381, 913.202 682.997, 910.271 690.519, 906.721 697.936, 902.572 705.236, 897.849 712.409, 892.572 719.446, 886.763 726.337, 880.446 733.073, 873.642 739.648, 866.373 746.054, 858.660 752.135, 850.721 752.285, 850.525 758.068, 842.366 758.335, 841.989 763.829, 833.633 764.199, 833.072 769.415, 824.540 769.871, 823.794 774.818, 815.104 775.347, 814.176 780.035, 805.343 780.623, 804.235 785.061, 795.274 785.695, 793.992 789.891, 784.915 790.560, 783.465 794.521, 774.283 795.215, 772.672 798.947, 763.394 799.657, 761.630 803.167, 752.266 803.883, 750.356 807.177, 740.914 807.891, 738.867 810.974, 729.355 811.679, 727.181 814.556, 717.603 815.245, 715.311 817.920, 705.676 818.586, 703.275 821.063, 693.587 821.702, 691.088 823.985, 681.352 824.591, 678.765 826.681, 668.986 827.251, 666.320 829.152, 656.502 829.681, 653.768 831.394, 643.916 831.880, 641.123 833.407, 631.241 833.846, 628.401 835.188, 618.491 835.578, 615.613 836.736, 605.681 837.075, 602.776 838.050, 592.823 838.336, 589.901 839.128, 579.933 839.361, 577.004 839.969, 567.022 840.147, 564.097 840.570, 554.106 840.694, 551.196 840.932, 541.198 841.001, 538.312 841.052, 528.312 841.067, 525.461 840.930, 515.461 840.891, 512.655 840.563, 502.661 840.473, 499.910 839.951, 489.924 839.811, 487.240 839.092, 477.265 838.904, 474.658 837.985, 464.700 837.752, 462.180 836.628, 452.243 836.354, 449.820 835.021, 439.910 834.710, 437.595 833.162, 427.715 832.818, 425.519 831.050, 415.676 830.679, 413.608 828.685, 403.808 828.292, 401.878 826.064, 392.129 825.657, 390.347 823.187, 380.656 822.773, 379.030 820.054, 369.407 819.642, 367.947 816.664, 358.401 816.262, 357.114 813.015, 347.656 812.635, 346.550 809.108, 337.193 808.762, 336.274 804.944, 327.031 804.643, 326.305 800.521, 317.194 800.280, 316.662 795.841, 307.702 795.675, 307.367 790.905, 298.579 790.829, 298.440 785.746, 289.901 780.428, 281.773 774.878, 274.078 769.101, 266.837 763.101, 260.073 756.884, 253.809 750.456, 248.068 743.822, 242.873 736.991, 238.247 729.971, 234.214 722.770, 230.795 715.400, 228.014 707.870, 225.892 700.193, 224.452 692.382, 223.714 684.450, 223.697 682.239, 223.851 " fill="none" stroke="rgb(0, 0, 0)" stroke-linecap="butt" stroke-linejoin="round" stroke-opacity="1.0" stroke-width="3.0" />
            <path d=" M 628.510, 916.612 626.571, 916.126 620.651, 914.641 612.827, 911.900 605.057, 908.376 597.362, 904.059 589.764, 898.939 582.284, 893.009 574.946, 886.266 568.061, 879.013 567.772, 878.708 561.364, 871.031 560.786, 870.338 554.848, 862.291 554.012, 861.159 548.532, 852.794 547.474, 851.179 545.557, 847.891 541.197, 840.412 536.588, 831.538 536.107, 830.611 535.203, 828.872 531.582, 821.041 529.518, 816.577 528.633, 814.426 527.405, 811.438 524.163, 803.552 521.642, 796.633 520.490, 793.471 519.162, 789.823 516.104, 780.302 514.536, 775.421 513.909, 773.193 512.313, 767.516 510.306, 760.380 507.936, 750.665 506.491, 744.740 504.448, 734.951 503.110, 728.541 501.383, 718.691 500.213, 712.020 500.179, 711.830 498.758, 701.931 497.714, 694.656 496.591, 684.719 495.726, 677.071 494.894, 667.105 494.228, 659.129 493.680, 649.144 493.227, 640.889 492.959, 630.893 492.731, 622.411 492.738, 612.411 492.744, 603.754 493.023, 593.758 493.268, 584.982 493.816, 574.997 494.301, 566.159 495.117, 556.192 495.842, 547.347 496.779, 538.746 497.863, 528.805 497.884, 528.613 498.089, 527.108 499.434, 517.250 499.629, 515.819 500.420, 510.017 502.040, 500.149 503.440, 491.624 505.330, 481.805 506.930, 473.494 509.095, 463.731 510.878, 455.687 513.320, 445.990 515.266, 438.259 517.990, 428.637 520.076, 421.266 523.087, 411.730 524.143, 408.386 524.977, 405.746 525.288, 404.759 528.593, 395.321 530.881, 388.786 533.150, 382.918 536.756, 373.590 536.832, 373.393 539.100, 368.062 539.934, 366.101 543.117, 358.621 547.350, 349.562 549.711, 344.509 550.835, 342.315 552.464, 339.138 556.589, 331.089 557.476, 329.511 559.085, 326.647 561.528, 322.302 563.725, 318.393 566.794, 313.416 567.317, 312.567 571.092, 306.446 576.702, 298.167 578.665, 295.270 584.647, 287.255 586.417, 284.883 592.781, 277.169 594.322, 275.300 594.634, 274.960 601.388, 267.585 602.353, 266.532 609.506, 259.543 610.487, 258.585 618.041, 252.032 618.697, 251.464 626.651, 245.403 626.960, 245.168 635.252, 239.696 643.552, 235.043 651.838, 231.199 660.090, 228.156 668.288, 225.901 676.413, 224.420 682.729, 223.852 684.450, 223.697 " fill="none" stroke="rgb(0, 0, 0)" stroke-linecap="butt" stroke-linejoin="round" stroke-opacity="1.0" stroke-width="3.0" />
            <path d=" M 682.239, 223.851 674.191, 224.575 666.055, 226.056 657.846, 228.310 649.584, 231.351 641.288, 235.192 632.978, 239.842 624.675, 245.309 616.715, 251.362 616.403, 251.599 608.843, 258.144 608.184, 258.714 601.025, 265.696 600.042, 266.654 593.389, 273.902 592.002, 275.414 585.632, 283.122 584.090, 284.987 578.101, 292.995 576.331, 295.363 570.714, 303.637 568.751, 306.528 566.872, 309.568 566.348, 310.416 561.377, 318.463 561.211, 318.756 558.764, 323.102 557.175, 325.924 554.235, 331.145 552.128, 335.247 550.497, 338.424 547.351, 344.550 543.111, 353.607 540.752, 358.648 539.549, 361.469 535.628, 370.668 534.463, 373.403 530.851, 382.728 528.508, 388.779 525.198, 398.215 522.912, 404.733 522.445, 406.209 522.259, 406.796 519.244, 416.330 517.697, 421.222 514.969, 430.843 512.884, 438.196 512.536, 439.577 510.091, 449.274 508.494, 455.604 506.549, 464.367 504.545, 473.391 502.652, 483.210 501.054, 491.500 499.432, 501.367 498.034, 509.872 497.385, 514.624 497.032, 517.208 495.775, 526.420 495.498, 528.445 494.414, 538.386 493.457, 547.159 492.641, 557.125 491.918, 565.948 491.370, 575.933 490.886, 584.750 490.609, 594.747 490.365, 603.501 490.360, 613.501 490.359, 615.494 490.356, 622.137 490.626, 632.133 490.855, 640.595 491.405, 650.580 491.859, 658.815 492.695, 668.780 493.362, 676.737 494.489, 686.673 495.355, 694.303 496.780, 704.201 497.826, 711.459 498.889, 717.506 500.622, 727.355 500.762, 728.153 502.811, 737.941 504.149, 744.335 506.525, 754.049 507.970, 759.960 510.684, 769.585 511.175, 771.326 512.208, 774.987 512.743, 776.651 515.809, 786.170 516.841, 789.375 519.534, 796.750 520.481, 799.343 520.690, 799.917 521.850, 803.092 525.660, 812.338 526.584, 814.580 527.213, 816.105 527.812, 817.399 530.842, 823.935 532.907, 828.389 533.630, 829.778 538.247, 838.649 538.909, 839.920 543.954, 848.555 545.195, 850.680 550.683, 859.039 551.742, 860.652 557.688, 868.692 558.526, 869.825 564.940, 877.496 565.521, 878.191 572.412, 885.437 572.705, 885.745 580.053, 892.485 587.543, 898.413 595.152, 903.532 602.857, 907.849 610.638, 911.374 618.473, 914.116 626.342, 916.090 " fill="none" stroke="rgb(0, 0, 0)" stroke-linecap="butt" stroke-linejoin="round" stroke-opacity="1.0" stroke-width="3.0" />
            <path d=" M 698.050, 319.640 689.845, 319.700 683.042, 320.416 681.526, 320.576 679.569, 320.971 673.117, 322.271 664.868, 324.714 664.640, 324.781 656.122, 328.116 647.592, 332.302 639.079, 337.352 630.886, 343.086 630.617, 343.274 622.845, 349.568 622.236, 350.061 614.889, 356.845 613.967, 357.697 607.038, 364.907 605.838, 366.155 599.317, 373.737 597.876, 375.413 591.765, 383.329 590.119, 385.462 584.419, 393.678 582.606, 396.290 577.310, 404.773 576.699, 405.752 576.406, 406.222 575.375, 407.873 573.489, 411.227 568.589, 419.944 568.458, 420.176 567.103, 422.853 564.647, 427.703 563.717, 429.538 562.927, 431.098 561.886, 433.155 559.508, 438.367 557.777, 442.162 557.743, 442.237 555.952, 446.163 555.682, 446.755 551.885, 456.006 549.867, 460.922 548.760, 463.933 546.940, 468.890 544.471, 475.610 543.892, 477.388 540.794, 486.897 539.532, 490.772 536.823, 500.250 535.585, 504.581 535.079, 506.353 533.163, 514.100 531.529, 520.707 531.138, 522.290 530.852, 523.645 530.850, 523.657 529.356, 530.756 528.766, 533.563 527.725, 538.515 526.055, 548.061 524.850, 554.957 524.269, 559.083 522.875, 568.985 522.514, 571.546 521.447, 581.489 520.725, 588.213 519.992, 598.186 519.500, 604.892 519.110, 614.884 518.924, 619.668 518.852, 621.512 518.812, 631.512 518.787, 638.001 519.103, 647.996 519.302, 654.289 519.977, 664.267 520.386, 670.311 520.742, 673.731 521.777, 683.677 522.019, 686.007 523.419, 695.909 524.192, 701.379 525.545, 708.960 525.890, 710.893 526.853, 716.287 527.329, 718.475 527.661, 720.003 528.396, 723.374 529.985, 730.676 532.498, 740.355 532.808, 741.550 533.572, 744.492 533.948, 745.725 535.211, 749.870 536.398, 753.766 537.593, 757.686 538.821, 761.158 540.061, 764.666 540.062, 764.670 542.024, 770.216 542.551, 771.510 546.324, 780.771 546.842, 782.042 551.076, 791.101 552.023, 793.127 556.738, 801.946 557.539, 803.443 562.757, 811.974 563.364, 812.965 569.104, 821.153 569.469, 821.673 575.750, 829.454 575.827, 829.549 582.410, 836.582 589.188, 842.767 596.135, 848.099 603.223, 852.578 609.312, 855.649 610.424, 856.209 617.713, 859.001 625.063, 860.962 632.451, 862.105 639.853, 862.447 647.245, 862.006 654.607, 860.800 661.918, 858.850 669.159, 856.181 676.311, 852.816 683.357, 848.777 690.281, 844.093 697.068, 838.790 703.705, 832.893 710.177, 826.428 716.474, 819.424 722.584, 811.908 728.496, 803.906 734.087, 795.615 734.202, 795.444 739.456, 786.936 739.693, 786.552 744.622, 777.851 744.960, 777.253 749.577, 768.383 749.997, 767.574 754.313, 758.554 754.797, 757.542 758.823, 748.388 759.353, 747.181 763.099, 737.909 763.661, 736.517 767.135, 727.140 767.715, 725.573 770.925, 716.103 771.510, 714.375 774.464, 704.822 775.043, 702.947 777.746, 693.319 778.310, 691.311 780.767, 681.618 781.306, 679.491 783.523, 669.740 784.030, 667.510 786.009, 657.708 786.477, 655.391 788.223, 645.544 788.646, 643.155 790.160, 633.270 790.535, 630.825 791.819, 620.908 792.140, 618.424 793.195, 608.480 793.461, 605.973 794.287, 596.007 794.495, 593.493 795.092, 583.511 795.241, 581.007 795.608, 571.013 795.699, 568.536 795.832, 558.536 795.865, 556.102 795.764, 546.102 795.740, 543.726 795.621, 540.220 " fill="none" stroke="rgb(0, 0, 0)" stroke-linecap="butt" stroke-linejoin="round" stroke-opacity="1.0" stroke-width="3.0" />
            <path d=" M 791.086, 546.270 790.979, 546.275 781.293, 546.771 775.794, 547.052 767.155, 547.494 766.442, 547.531 765.729, 547.568 765.013, 547.605 764.299, 547.642 754.323, 546.945 752.800, 546.839 751.948, 546.754 751.121, 546.412 750.335, 545.819 749.606, 544.987 748.950, 543.930 748.377, 542.669 747.900, 541.227 747.527, 539.631 747.267, 537.912 747.123, 536.104 747.100, 534.240 747.197, 532.357 747.413, 530.492 747.743, 528.681 748.182, 526.958 748.720, 525.358 749.346, 523.910 750.050, 522.642 750.815, 521.579 751.480, 520.778 752.145, 519.978 752.809, 519.179 753.472, 518.381 753.805, 517.982 755.305, 516.181 756.032, 515.307 758.553, 512.281 764.952, 504.597 771.352, 496.914 776.379, 490.878 786.324, 491.929 787.206, 492.023 " fill="none" stroke="rgb(0, 0, 0)" stroke-linecap="butt" stroke-linejoin="round" stroke-opacity="1.0" stroke-width="3.0" />
            <path d=" M 823.157, 507.481 822.807, 504.236 822.107, 497.735 820.746, 487.828 820.478, 485.873 818.815, 476.012 818.511, 474.209 816.537, 464.406 816.208, 462.770 813.914, 453.037 813.571, 451.579 810.952, 441.928 810.606, 440.656 807.656, 431.101 807.322, 430.017 804.026, 420.576 803.716, 419.690 800.053, 410.386 799.787, 409.711 795.736, 400.569 795.534, 400.113 791.076, 391.161 790.958, 390.925 786.068, 382.175 780.871, 373.883 775.378, 366.063 769.600, 358.739 763.538, 351.948 757.199, 345.730 750.592, 340.117 743.730, 335.137 736.626, 330.812 729.297, 327.153 722.160, 324.331 721.759, 324.172 714.027, 321.902 706.118, 320.381 698.050, 319.640 " fill="none" stroke="rgb(0, 0, 0)" stroke-linecap="butt" stroke-linejoin="round" stroke-opacity="1.0" stroke-width="3.0" />
            <path d=" M 664.868, 324.714 669.642, 327.576 675.559, 331.876 681.288, 336.810 686.818, 342.358 692.139, 348.492 697.244, 355.179 702.127, 362.380 706.786, 370.058 711.212, 378.191 715.398, 386.766 719.337, 395.762 723.022, 405.154 726.339, 414.588 726.453, 414.912 729.453, 424.451 729.628, 425.005 732.334, 434.632 732.549, 435.399 734.976, 445.100 735.218, 446.069 737.372, 455.834 737.628, 456.998 739.515, 466.818 739.774, 468.167 741.401, 478.034 741.652, 479.556 743.030, 489.460 743.263, 491.139 743.943, 497.075 743.925, 498.313 743.849, 499.553 743.713, 500.783 743.521, 501.990 743.273, 503.161 742.973, 504.285 742.622, 505.350 742.226, 506.344 741.788, 507.257 741.313, 508.079 741.307, 508.087 740.805, 508.803 740.270, 509.420 739.713, 509.925 739.140, 510.311 730.480, 515.312 725.742, 518.048 " fill="none" stroke="rgb(0, 0, 0)" stroke-linecap="butt" stroke-linejoin="round" stroke-opacity="1.0" stroke-width="3.0" />
            <path d=" M 800.377, 535.249 800.947, 535.286 802.052, 535.356 803.226, 535.431 811.658, 530.055 813.987, 528.570 815.888, 527.358 823.541, 522.479 824.372, 521.949 825.463, 521.357 830.468, 518.641 829.690, 508.672 829.472, 505.884 828.413, 495.940 828.130, 493.277 826.784, 483.368 826.441, 480.845 824.800, 470.980 824.406, 468.611 822.459, 458.803 822.023, 456.603 819.762, 446.862 819.294, 444.845 816.742, 435.310 816.221, 433.362 813.297, 423.799 812.803, 422.182 811.162, 417.446 809.043, 411.331 805.405, 402.016 804.945, 400.837 800.927, 391.679 800.510, 390.727 796.097, 381.753 795.741, 381.030 790.918, 372.270 790.645, 371.774 789.225, 369.471 785.226, 362.988 784.159, 361.445 779.491, 354.701 773.445, 346.943 767.098, 339.743 760.458, 333.130 753.536, 327.135 746.344, 321.786 738.893, 317.112 731.198, 313.140 723.275, 309.901 715.141, 307.419 706.813, 305.718 698.313, 304.824 688.324, 304.344 678.336, 303.864 673.955, 303.653 " fill="none" stroke="rgb(0, 0, 0)" stroke-linecap="butt" stroke-linejoin="round" stroke-opacity="1.0" stroke-width="3.0" />
            <path d=" M 698.313, 304.824 689.661, 304.759 684.531, 305.217 680.882, 305.543 671.999, 307.193 667.818, 308.374 663.039, 309.725 654.030, 313.153 646.529, 316.751 645.373, 317.306 645.002, 317.484 636.356, 322.508 635.984, 322.723 627.737, 328.378 627.010, 328.876 619.178, 335.093 618.112, 335.938 610.703, 342.653 609.325, 343.902 602.341, 351.059 600.682, 352.759 594.122, 360.306 592.221, 362.493 586.078, 370.384 583.977, 373.083 578.243, 381.276 575.985, 384.502 575.348, 385.513 575.010, 386.049 569.677, 394.509 568.283, 396.721 566.342, 400.136 563.906, 404.423 562.217, 407.395 560.905, 409.704 557.087, 417.158 555.337, 420.575 553.886, 423.409 549.701, 432.491 547.260, 437.789 543.669, 446.479 541.060, 452.795 537.600, 462.178 535.316, 468.371 532.208, 477.876 530.056, 484.457 527.295, 494.068 525.308, 500.988 524.658, 503.596 522.242, 513.300 521.254, 517.264 521.096, 517.900 519.916, 523.458 519.140, 527.113 517.973, 532.613 517.440, 535.120 515.702, 544.968 514.359, 552.577 512.959, 562.478 511.868, 570.196 510.808, 580.139 509.980, 587.901 509.259, 597.875 508.700, 605.617 508.324, 615.610 508.035, 623.267 508.007, 633.267 507.986, 640.776 508.313, 650.770 508.551, 658.068 509.195, 667.424 509.722, 675.073 510.779, 685.017 511.492, 691.720 " fill="none" stroke="rgb(0, 0, 0)" stroke-linecap="butt" stroke-linejoin="round" stroke-opacity="1.0" stroke-width="3.0" />
            <path d=" M 756.032, 515.307 755.058, 505.355 754.905, 503.791 754.708, 501.107 754.682, 501.339 754.490, 502.552 754.243, 503.729 753.944, 504.858 753.596, 505.928 753.202, 506.927 752.766, 507.845 752.294, 508.671 751.789, 509.399 751.258, 510.019 750.705, 510.526 750.137, 510.915 741.508, 515.968 733.244, 520.807 732.591, 519.883 731.867, 519.156 731.084, 518.638 730.255, 518.338 729.395, 518.262 725.742, 518.048 718.232, 517.608 717.348, 517.757 716.462, 518.128 715.588, 518.715 714.742, 519.511 713.971, 520.503 713.293, 521.676 712.684, 523.007 712.156, 524.475 711.717, 526.054 711.376, 527.717 711.139, 529.436 711.009, 531.181 710.988, 532.922 711.078, 534.629 721.056, 535.289 722.276, 535.369 727.050, 532.596 727.027, 532.051 727.049, 531.496 727.113, 530.945 727.188, 530.570 727.219, 530.415 727.363, 529.919 727.542, 529.472 727.751, 529.085 727.983, 528.769 728.233, 528.532 728.494, 528.382 728.758, 528.321 " fill="none" stroke="rgb(0, 0, 0)" stroke-linecap="butt" stroke-linejoin="round" stroke-opacity="1.0" stroke-width="3.0" />
            <path d=" M 797.781, 522.267 800.268, 520.679 801.415, 519.946 801.535, 519.870 806.746, 516.543 807.042, 516.354 807.548, 515.985 808.043, 515.513 808.521, 514.942 808.980, 514.280 809.414, 513.532 809.822, 512.704 810.200, 511.805 810.545, 510.841 810.855, 509.819 811.127, 508.749 811.360, 507.638 811.551, 506.494 811.699, 505.327 811.801, 504.145 821.396, 506.963 822.985, 507.430 823.157, 507.481 823.041, 508.247 823.033, 508.286 822.809, 509.364 822.538, 510.440 822.230, 511.466 821.888, 512.435 821.512, 513.339 821.108, 514.171 820.677, 514.923 820.222, 515.589 819.748, 516.163 819.258, 516.638 818.756, 517.009 813.231, 520.594 812.771, 520.893 806.205, 525.153 805.593, 524.204 804.912, 523.458 804.174, 522.927 803.389, 522.622 802.572, 522.548 801.560, 522.488 800.368, 522.419 797.781, 522.267 794.780, 522.091 790.696, 521.852 790.300, 521.926 790.106, 521.962 789.853, 522.009 789.006, 522.396 788.168, 523.006 787.354, 523.830 786.615, 524.856 785.965, 526.069 785.380, 527.445 784.871, 528.962 784.446, 530.592 784.113, 532.309 783.877, 534.083 783.743, 535.883 783.713, 537.678 783.787, 539.438 790.899, 539.908 790.915, 539.909 795.621, 540.220 795.706, 540.226 800.234, 537.339 800.216, 536.777 800.240, 536.204 800.304, 535.636 800.377, 535.249 800.407, 535.089 800.547, 534.577 800.719, 534.115 800.896, 533.759 800.918, 533.715 801.140, 533.387 801.378, 533.142 801.625, 532.986 801.875, 532.922 " fill="none" stroke="rgb(0, 0, 0)" stroke-linecap="butt" stroke-linejoin="round" stroke-opacity="1.0" stroke-width="3.0" />
            <path d=" M 775.794, 547.052 775.872, 553.915 775.742, 563.914 775.712, 566.225 775.341, 576.218 775.253, 578.571 774.644, 588.553 774.499, 590.931 773.652, 600.895 773.450, 603.283 772.367, 613.224 772.107, 615.605 770.788, 625.518 770.474, 627.876 768.918, 637.754 768.553, 640.073 766.758, 649.910 766.345, 652.175 764.310, 661.966 763.854, 664.160 761.575, 673.896 761.082, 676.005 758.557, 685.681 758.033, 687.688 755.257, 697.295 754.710, 699.187 751.678, 708.716 751.117, 710.478 747.824, 719.920 747.259, 721.538 743.697, 730.883 743.140, 732.345 739.301, 741.579 738.764, 742.872 734.641, 751.983 734.137, 753.097 729.721, 762.069 729.265, 762.995 724.545, 771.811 724.155, 772.540 719.120, 781.180 718.812, 781.708 713.451, 790.149 713.246, 790.472 707.547, 798.688 707.464, 798.807 701.475, 806.687 695.289, 814.084 688.916, 820.974 682.368, 827.329 675.656, 833.122 668.795, 838.327 661.798, 842.918 654.680, 846.871 647.458, 850.158 640.149, 852.757 632.770, 854.645 625.343, 855.799 617.887, 856.198 610.423, 855.823 609.312, 855.649 " fill="none" stroke="rgb(0, 0, 0)" stroke-linecap="butt" stroke-linejoin="round" stroke-opacity="1.0" stroke-width="3.0" />
            <path d=" M 764.299, 547.642 763.455, 547.558 762.635, 547.215 761.857, 546.620 761.135, 545.784 760.486, 544.723 759.919, 543.456 759.448, 542.008 759.080, 540.405 758.823, 538.678 758.696, 537.027 758.683, 536.860 758.662, 534.987 758.760, 533.096 758.976, 531.221 759.155, 530.228 759.305, 529.401 759.742, 527.669 760.276, 526.060 760.899, 524.605 761.598, 523.330 762.357, 522.261 763.017, 521.456 763.676, 520.651 764.335, 519.848 764.993, 519.046 765.324, 518.645 766.906, 516.720 773.256, 508.994 777.865, 503.387 784.215, 495.662 787.206, 492.023 788.368, 501.955 788.479, 502.904 788.949, 507.307 789.790, 517.272 789.920, 518.813 790.106, 521.962 " fill="none" stroke="rgb(0, 0, 0)" stroke-linecap="butt" stroke-linejoin="round" stroke-opacity="1.0" stroke-width="3.0" />
            <path d=" M 794.614, 519.241 800.215, 519.750 801.410, 519.859 801.535, 519.870 " fill="none" stroke="rgb(0, 0, 0)" stroke-linecap="butt" stroke-linejoin="round" stroke-opacity="1.0" stroke-width="3.0" />
            <path d=" M 764.686, 537.419 764.371, 537.320 764.080, 537.076 763.826, 536.697 763.620, 536.201 763.470, 535.609 763.384, 534.947 763.366, 534.244 763.416, 533.530 763.531, 532.838 763.708, 532.196 763.937, 531.635 764.210, 531.178 764.513, 530.845 764.834, 530.651 765.159, 530.604 " fill="none" stroke="rgb(0, 0, 0)" stroke-linecap="butt" stroke-linejoin="round" stroke-opacity="1.0" stroke-width="3.0" />
            <path d=" M 765.159, 530.604 765.473, 530.706 765.763, 530.951 766.016, 531.330 766.221, 531.826 766.370, 532.417 766.454, 533.077 766.473, 533.778 766.423, 534.489 766.308, 535.179 766.133, 535.819 765.904, 536.379 765.633, 536.837 765.330, 537.171 765.010, 537.369 764.686, 537.419 " fill="none" stroke="rgb(0, 0, 0)" stroke-linecap="butt" stroke-linejoin="round" stroke-opacity="1.0" stroke-width="3.0" />
            <path d=" M 800.947, 535.286 801.156, 541.590 801.251, 551.589 801.279, 554.545 801.140, 564.544 801.098, 567.560 800.727, 577.553 800.614, 580.612 800.014, 590.594 799.829, 593.680 799.001, 603.646 798.744, 606.742 797.688, 616.686 797.360, 619.776 796.075, 629.693 795.678, 632.759 794.165, 642.644 793.701, 645.670 791.957, 655.517 791.431, 658.486 789.454, 668.288 788.870, 671.184 786.656, 680.936 786.019, 683.742 783.567, 693.436 782.883, 696.137 780.186, 705.766 779.464, 708.344 776.517, 717.900 775.765, 720.339 772.563, 729.813 771.790, 732.100 768.326, 741.481 767.543, 743.601 763.809, 752.877 763.029, 754.815 759.015, 763.974 758.251, 765.718 753.950, 774.746 753.217, 776.284 748.618, 785.164 747.933, 786.487 743.022, 795.198 742.403, 796.297 737.171, 804.819 736.636, 805.689 731.069, 813.996 730.641, 814.635 724.725, 822.697 724.425, 823.105 718.146, 830.889 717.999, 831.072 711.372, 838.507 704.556, 845.382 697.564, 851.665 690.409, 857.329 683.106, 862.347 675.669, 866.689 668.116, 870.327 660.464, 873.234 652.734, 875.386 644.944, 876.756 637.117, 877.320 629.275, 877.058 621.442, 875.952 613.643, 873.980 605.905, 871.129 598.254, 867.387 590.718, 862.747 583.327, 857.199 576.109, 850.744 569.210, 843.505 569.095, 843.385 562.750, 835.656 562.315, 835.127 556.513, 826.982 555.800, 825.980 550.524, 817.485 549.579, 815.963 544.809, 807.173 543.682, 805.095 539.399, 796.059 538.140, 793.402 538.113, 793.337 535.402, 786.776 534.134, 783.707 532.981, 780.915 529.605, 771.502 528.795, 769.244 528.231, 767.671 527.611, 765.664 524.659, 756.109 523.918, 753.712 521.786, 745.615 520.067, 739.083 519.957, 738.588 517.800, 728.823 516.699, 723.836 514.916, 713.996 513.834, 708.028 512.413, 698.130 511.492, 691.720 508.343, 682.228 507.189, 678.748 505.516, 673.705 " fill="none" stroke="rgb(0, 0, 0)" stroke-linecap="butt" stroke-linejoin="round" stroke-opacity="1.0" stroke-width="3.0" />
            <path d=" M 673.955, 303.653 666.109, 303.563 660.255, 304.117 658.151, 304.316 650.103, 305.932 641.989, 308.427 633.835, 311.816 625.665, 316.108 617.510, 321.309 609.525, 327.330 609.397, 327.426 601.869, 334.008 601.358, 334.455 594.287, 341.526 593.422, 342.390 586.803, 349.886 585.623, 351.223 579.447, 359.088 577.993, 360.939 573.806, 366.901 573.420, 367.451 570.565, 371.518 565.435, 379.658 563.370, 382.934 562.987, 383.610 561.314, 386.564 556.445, 395.157 556.218, 395.602 554.513, 398.946 549.971, 407.855 549.820, 408.153 545.652, 417.243 543.527, 421.878 543.075, 422.977 539.269, 432.224 537.597, 436.287 534.144, 445.672 532.062, 451.329 528.950, 460.833 526.948, 466.948 524.170, 476.554 522.282, 483.082 519.831, 492.776 518.089, 499.666 515.959, 509.437 514.391, 516.633 512.578, 526.468 512.459, 527.111 511.206, 533.911 509.707, 543.798 508.551, 551.426 507.366, 561.355 506.441, 569.101 505.569, 579.063 504.886, 586.861 504.328, 596.845 503.893, 604.626 503.650, 614.623 503.464, 622.320 503.543, 632.320 503.602, 639.866 504.007, 649.858 504.304, 657.188 505.036, 667.162 505.516, 673.705 504.860, 683.684 504.264, 692.764 " fill="none" stroke="rgb(0, 0, 0)" stroke-linecap="butt" stroke-linejoin="round" stroke-opacity="1.0" stroke-width="3.0" />
            <path d=" M 506.705, 709.591 508.504, 719.428 509.687, 725.897 511.862, 735.657 513.189, 741.616 515.755, 751.281 516.283, 753.270 517.191, 756.690 518.067, 759.501 521.041, 769.048 521.669, 771.066 524.436, 778.719 525.642, 782.052 526.597, 784.694 530.443, 793.925 531.299, 795.980 531.946, 797.533 532.581, 798.861 535.506, 804.979 537.689, 809.544 542.492, 818.315 543.796, 820.696 549.109, 829.168 550.234, 830.963 556.076, 839.079 556.973, 840.324 563.362, 848.017 563.981, 848.762 570.926, 855.957 571.227, 856.268 578.677, 862.838 586.302, 868.468 594.072, 873.162 601.955, 876.927 609.923, 879.775 617.948, 881.718 626.004, 882.772 634.065, 882.959 642.106, 882.300 650.104, 880.816 658.038, 878.534 665.886, 875.481 673.630, 871.683 681.252, 867.168 688.734, 861.966 696.062, 856.107 703.220, 849.620 710.196, 842.533 716.828, 835.048 716.978, 834.879 723.237, 827.080 723.553, 826.686 729.452, 818.612 729.912, 817.983 735.465, 809.667 736.044, 808.800 741.266, 800.271 741.943, 799.166 746.844, 790.449 747.598, 789.108 752.192, 780.225 753.004, 778.654 757.301, 769.624 758.154, 767.832 762.164, 758.672 763.041, 756.670 766.775, 747.393 767.660, 745.192 771.125, 735.811 772.007, 733.425 775.211, 723.952 776.076, 721.394 779.026, 711.839 779.865, 709.125 782.566, 699.496 783.367, 696.641 785.825, 686.947 786.581, 683.966 788.801, 674.215 789.504, 671.125 791.488, 661.324 792.132, 658.140 793.883, 648.295 794.463, 645.035 795.984, 635.151 796.494, 631.832 797.786, 621.916 798.224, 618.555 799.287, 608.612 799.649, 605.225 800.484, 595.259 800.769, 591.864 801.375, 581.882 801.581, 578.495 801.958, 568.502 802.084, 565.141 802.229, 555.142 802.277, 551.823 802.187, 541.824 802.157, 538.565 802.052, 535.356 " fill="none" stroke="rgb(0, 0, 0)" stroke-linecap="butt" stroke-linejoin="round" stroke-opacity="1.0" stroke-width="3.0" />
            <path d=" M 504.264, 692.764 504.347, 693.335 505.782, 703.231 506.705, 709.591 " fill="none" stroke="rgb(0, 0, 0)" stroke-linecap="butt" stroke-linejoin="round" stroke-opacity="1.0" stroke-width="3.0" />
            <path d=" M 816.742, 435.310 815.498, 428.618 813.438, 418.833 813.190, 417.655 810.892, 407.923 810.647, 406.888 808.102, 397.218 807.869, 396.333 805.064, 386.734 804.853, 386.010 801.781, 376.494 801.601, 375.937 798.253, 366.514 798.115, 366.128 794.480, 356.812 794.398, 356.601 790.450, 347.372 786.273, 338.460 781.870, 329.885 777.241, 321.668 772.390, 313.831 767.319, 306.396 762.033, 299.380 756.537, 292.800 750.836, 286.675 744.937, 281.026 738.845, 275.873 732.566, 271.240 726.107, 267.149 719.478, 263.626 712.686, 260.688 705.743, 258.352 698.659, 256.634 691.446, 255.551 684.116, 255.120 676.683, 255.360 676.105, 255.431 669.161, 256.288 661.565, 257.922 653.913, 260.280 646.221, 263.367 638.508, 267.192 630.791, 271.757 623.090, 277.068 615.425, 283.127 611.520, 286.622 607.818, 289.936 600.763, 297.023 600.292, 297.496 593.630, 304.954 592.870, 305.805 586.595, 313.592 585.681, 314.727 585.576, 314.857 579.677, 322.932 578.432, 324.636 576.731, 327.195 571.460, 335.125 570.576, 336.584 570.123, 337.331 564.939, 345.882 564.684, 346.303 563.552, 348.346 561.134, 352.714 559.501, 355.664 558.125, 358.149 554.480, 365.356 552.817, 368.646 551.808, 370.640 547.617, 379.719 545.757, 383.747 541.879, 392.965 541.738, 393.300 539.995, 397.444 536.747, 405.940 534.546, 411.696 531.274, 421.146 529.432, 426.465 526.450, 436.010 524.671, 441.708 521.972, 451.337 520.278, 457.378 517.857, 467.081 516.272, 473.430 514.123, 483.196 512.667, 489.814 510.789, 499.636 509.479, 506.480 507.869, 516.350 506.723, 523.376 506.217, 527.110 504.875, 537.019 504.410, 540.449 503.336, 550.391 502.552, 557.642 501.742, 567.609 501.150, 574.899 500.606, 584.884 500.209, 592.162 499.931, 602.158 499.731, 609.376 499.724, 619.376 499.719, 626.483 499.986, 636.480 500.172, 643.429 500.716, 653.415 501.084, 660.160 501.911, 670.125 502.451, 676.622 503.567, 686.559 504.264, 692.764 504.346, 693.338 505.759, 703.238 506.515, 708.536 506.705, 709.591 508.419, 719.444 509.193, 723.893 511.224, 733.685 512.283, 738.791 514.638, 748.510 515.772, 753.188 516.046, 754.168 517.802, 760.452 519.644, 767.046 522.684, 776.572 523.883, 780.329 523.970, 780.571 525.162, 783.866 528.468, 793.007 530.694, 798.468 531.939, 801.519 533.380, 805.054 534.767, 808.081 538.599, 816.442 543.177, 825.333 544.110, 827.146 549.114, 835.804 549.889, 837.146 555.332, 845.535 555.914, 846.432 561.809, 854.510 562.162, 854.994 568.519, 862.713 568.611, 862.824 575.239, 869.917 582.027, 876.267 588.953, 881.872 596.000, 886.731 603.146, 890.847 610.369, 894.230 617.652, 896.894 623.571, 898.475 624.974, 898.850 632.317, 900.111 639.667, 900.689 647.005, 900.597 654.318, 899.847 661.591, 898.454 668.810, 896.436 675.961, 893.817 683.031, 890.616 690.009, 886.856 696.884, 882.555 703.646, 877.733 710.286, 872.406 716.793, 866.593 723.160, 860.311 729.379, 853.583 735.444, 846.431 741.347, 838.877 747.083, 830.941 752.647, 822.641 757.934, 814.154 758.033, 813.996 763.048, 805.345 763.236, 805.022 767.987, 796.223 768.250, 795.734 772.745, 786.801 773.072, 786.151 777.320, 777.098 777.699, 776.291 781.709, 767.130 782.128, 766.174 785.907, 756.916 786.355, 755.818 789.911, 746.472 790.380, 745.240 793.717, 735.813 794.199, 734.454 797.322, 724.954 797.808, 723.476 800.722, 713.910 801.206, 712.321 803.913, 702.694 804.389, 701.001 806.893, 691.320 807.355, 689.533 809.660, 679.803 810.103, 677.933 812.214, 668.159 812.633, 666.217 814.552, 656.402 814.944, 654.397 816.673, 644.548 817.034, 642.489 818.574, 632.608 818.902, 630.506 820.254, 620.598 820.545, 618.462 821.708, 608.530 821.961, 606.369 822.937, 596.417 823.150, 594.243 823.938, 584.274 824.110, 582.096 824.712, 572.114 824.843, 569.942 825.258, 559.951 825.347, 557.795 825.572, 547.798 825.620, 545.669 825.654, 535.669 825.661, 533.577 825.502, 523.578 825.470, 521.533 825.463, 521.357 " fill="none" stroke="rgb(0, 0, 0)" stroke-linecap="butt" stroke-linejoin="round" stroke-opacity="1.0" stroke-width="3.0" />
            <path d=" M 674.459, 255.484 666.927, 256.412 659.321, 258.046 651.659, 260.402 643.958, 263.488 636.235, 267.309 628.508, 271.871 620.799, 277.176 613.125, 283.230 610.226, 285.820 605.510, 290.033 598.448, 297.113 597.976, 297.586 591.307, 305.037 590.546, 305.887 584.264, 313.667 583.245, 314.929 580.132, 319.181 576.094, 324.698 570.550, 333.021 570.188, 333.566 569.941, 333.937 569.718, 334.271 569.116, 335.176 563.924, 343.723 563.291, 344.765 562.333, 346.342 560.859, 348.999 559.242, 351.915 555.769, 358.176 554.205, 361.263 552.539, 364.551 549.447, 370.652 545.249, 379.729 543.391, 383.746 541.441, 388.372 537.625, 397.427 534.049, 406.766 532.173, 411.663 528.896, 421.111 527.056, 426.416 525.555, 431.210 522.569, 440.753 522.291, 441.641 519.588, 451.269 517.897, 457.294 515.471, 466.995 513.889, 473.327 511.737, 483.092 510.283, 489.692 508.402, 499.513 507.094, 506.339 505.482, 516.208 504.337, 523.216 503.810, 527.109 502.466, 537.018 502.025, 540.269 500.950, 550.211 500.168, 557.443 499.358, 567.410 498.767, 574.679 498.223, 584.665 497.828, 591.923 497.551, 601.919 497.352, 609.117 497.347, 619.117 497.343, 626.206 497.612, 636.202 497.799, 643.133 498.346, 653.118 498.715, 659.845 499.546, 669.811 500.086, 676.289 501.206, 686.226 501.903, 692.414 502.971, 699.867 504.160, 708.170 505.882, 718.020 506.843, 723.511 508.879, 733.301 509.939, 738.394 512.300, 748.111 513.434, 752.777 514.966, 758.247 516.665, 764.311 517.312, 766.621 520.359, 776.145 521.558, 779.891 523.064, 784.046 524.241, 787.292 526.150, 792.558 529.900, 801.734 531.069, 804.594 531.143, 804.755 534.052, 811.086 536.297, 815.973 540.882, 824.860 541.815, 826.668 546.827, 835.321 547.603, 836.661 553.054, 845.044 553.637, 845.940 559.539, 854.012 559.893, 854.496 566.258, 862.209 566.351, 862.321 572.989, 869.410 579.786, 875.757 586.722, 881.361 593.778, 886.218 600.933, 890.334 608.167, 893.718 615.459, 896.383 622.791, 898.341 " fill="none" stroke="rgb(0, 0, 0)" stroke-linecap="butt" stroke-linejoin="round" stroke-opacity="1.0" stroke-width="3.0" />
            <path d=" M 676.683, 255.360 674.459, 255.484 " fill="none" stroke="rgb(0, 0, 0)" stroke-linecap="butt" stroke-linejoin="round" stroke-opacity="1.0" stroke-width="3.0" />
            <path d=" M 622.791, 898.341 624.974, 898.850 " fill="none" stroke="rgb(0, 0, 0)" stroke-linecap="butt" stroke-linejoin="round" stroke-opacity="1.0" stroke-width="3.0" />
            <path d=" M 486.456, 696.125 487.899, 706.020 489.089, 714.174 490.841, 724.019 492.214, 731.728 493.459, 737.607 495.171, 745.696 495.815, 748.735 498.216, 758.443 499.875, 765.148 500.332, 766.753 503.075, 776.370 504.163, 780.188 504.372, 780.920 506.179, 786.468 507.590, 790.800 509.286, 796.011 509.347, 796.175 510.491, 799.271 513.955, 808.652 514.595, 810.386 515.032, 811.434 516.196, 814.226 518.842, 820.574 520.043, 823.455 520.275, 824.011 522.518, 828.795 523.761, 831.444 524.441, 832.895 526.301, 836.859 526.982, 838.153 531.643, 847.000 532.648, 848.907 537.740, 857.513 539.290, 860.134 544.829, 868.460 546.203, 870.526 552.202, 878.527 553.359, 880.070 559.830, 887.695 560.734, 888.760 567.683, 895.951 568.301, 896.591 575.729, 903.286 576.036, 903.563 583.913, 909.677 591.908, 914.940 599.999, 919.359 608.162, 922.945 616.376, 925.712 620.709, 926.778 628.931, 928.733 637.161, 929.898 645.383, 930.291 653.578, 929.931 661.728, 928.839 669.818, 927.037 677.832, 924.546 685.757, 921.390 693.580, 917.591 701.287, 913.175 708.869, 908.163 716.313, 902.580 723.611, 896.449 730.754, 889.795 737.732, 882.640 744.389, 875.177 744.540, 875.008 750.879, 867.274 751.169, 866.920 757.202, 858.945 757.614, 858.401 763.350, 850.210 763.868, 849.470 769.319, 841.086 769.927, 840.151 775.101, 831.594 775.785, 830.463 780.694, 821.751 781.439, 820.428 786.090, 811.575 786.884, 810.065 791.287, 801.086 792.117, 799.393 796.279, 790.301 797.134, 788.433 801.064, 779.237 801.934, 777.202 805.637, 767.913 806.512, 765.718 809.996, 756.344 810.867, 753.999 814.137, 744.549 814.997, 742.062 818.058, 732.542 818.899, 729.924 821.756, 720.340 822.572, 717.600 825.228, 707.960 826.014, 705.108 828.474, 695.415 829.224, 692.462 831.491, 682.723 832.199, 679.678 834.276, 669.896 834.940, 666.771 836.829, 656.951 837.444, 653.755 839.147, 643.901 839.710, 640.644 841.229, 630.760 841.737, 627.454 843.073, 617.543 843.524, 614.197 844.679, 604.264 845.071, 600.889 846.043, 590.937 846.375, 587.543 847.166, 577.574 847.436, 574.172 848.045, 564.191 848.253, 560.791 848.680, 550.800 848.825, 547.414 849.068, 537.417 849.150, 534.053 849.209, 524.053 849.229, 520.723 849.101, 510.724 849.059, 507.438 848.743, 497.443 848.640, 494.212 848.132, 484.225 847.971, 481.060 847.269, 471.085 847.052, 467.996 846.151, 458.037 845.880, 455.035 844.777, 445.096 844.455, 442.191 843.146, 432.277 842.777, 429.481 841.257, 419.598 840.845, 416.920 839.107, 407.073 838.658, 404.525 836.696, 394.719 836.215, 392.310 834.023, 382.554 833.516, 380.295 831.087, 370.595 830.561, 368.496 827.885, 358.861 827.350, 356.931 824.419, 347.370 823.882, 345.618 820.686, 336.142 820.158, 334.576 816.686, 325.198 816.178, 323.825 812.420, 314.558 811.944, 313.385 807.886, 304.245 807.456, 303.276 803.085, 294.281 802.715, 293.518 798.019, 284.690 797.724, 284.135 792.687, 275.496 792.484, 275.147 787.093, 266.725 786.999, 266.578 781.271, 258.450 775.305, 250.786 769.104, 243.611 762.674, 236.949 756.021, 230.824 749.150, 225.261 742.070, 220.285 734.788, 215.920 727.313, 212.191 719.656, 209.122 711.827, 206.738 703.839, 205.062 695.705, 204.116 687.439, 203.923 679.056, 204.503 674.631, 204.849 666.126, 206.223 657.539, 208.406 648.890, 211.414 640.198, 215.263 631.486, 219.963 623.057, 225.344 622.774, 225.524 614.737, 231.474 614.088, 231.954 606.452, 238.410 605.452, 239.256 598.219, 246.162 596.890, 247.431 590.059, 254.734 588.430, 256.476 582.295, 263.772 580.098, 266.384 574.049, 274.347 571.922, 277.147 566.250, 285.382 563.931, 288.749 563.519, 289.406 562.928, 290.351 559.714, 295.483 559.064, 296.521 556.550, 300.536 556.151, 301.172 555.905, 301.605 554.961, 303.259 551.810, 308.788 550.240, 311.540 549.851, 312.223 548.613, 314.395 548.236, 315.120 543.626, 323.994 541.839, 327.434 541.343, 328.389 540.258, 330.683 537.303, 336.928 534.371, 343.124 530.416, 352.309 527.726, 358.557 527.723, 358.565 524.082, 367.878 521.426, 374.671 518.090, 384.099 515.507, 391.400 512.469, 400.927 509.989, 408.702 507.242, 418.318 504.897, 426.528 502.435, 436.220 500.251, 444.820 498.070, 454.579 498.042, 454.705 496.072, 463.522 495.789, 464.983 493.885, 474.801 492.378, 482.572 490.748, 492.438 489.183, 501.906 488.429, 507.412 487.648, 513.108 487.456, 514.509 487.159, 516.674 486.909, 518.494 486.779, 519.446 486.693, 520.074 486.503, 521.460 486.471, 521.750 485.384, 531.691 484.347, 541.166 483.530, 551.133 482.725, 560.956 482.179, 570.941 481.641, 580.761 481.368, 590.757 481.100, 600.512 481.101, 610.512 481.102, 620.142 481.381, 630.138 481.645, 639.583 481.693, 640.442 482.254, 650.426 482.615, 656.847 482.723, 658.769 483.572, 668.733 483.816, 671.600 484.330, 677.637 485.473, 687.572 486.456, 696.125 " fill="none" stroke="rgb(0, 0, 0)" stroke-linecap="butt" stroke-linejoin="round" stroke-opacity="1.0" stroke-width="3.0" />
            <path d=" M 679.056, 204.503 670.574, 205.876 662.009, 208.060 653.382, 211.072 644.711, 214.925 636.019, 219.632 627.600, 225.028 627.328, 225.202 619.302, 231.167 618.662, 231.642 611.038, 238.113 610.044, 238.957 602.825, 245.877 601.501, 247.147 594.684, 254.463 593.058, 256.209 586.637, 263.875 584.743, 266.137 584.735, 266.147 578.701, 274.121 576.582, 276.921 570.925, 285.166 568.605, 288.546 564.523, 295.091 563.955, 296.001 560.840, 300.995 559.719, 302.968 557.248, 307.318 555.671, 310.095 553.314, 314.246 550.621, 319.449 549.012, 322.558 546.056, 328.270 541.791, 337.315 539.094, 343.037 538.121, 345.305 534.178, 354.495 532.455, 358.512 528.825, 367.830 526.167, 374.654 522.841, 384.085 520.254, 391.420 518.190, 397.917 515.161, 407.447 514.743, 408.762 512.004, 418.380 509.655, 426.628 507.201, 436.322 505.013, 444.963 502.838, 454.723 500.837, 463.707 498.938, 473.525 497.144, 482.801 495.557, 492.428 493.950, 502.181 493.180, 507.807 491.956, 516.757 491.576, 519.531 491.269, 521.779 491.030, 523.964 489.944, 533.905 489.111, 541.531 489.081, 541.893 488.264, 551.859 487.485, 561.366 487.438, 562.229 486.891, 572.214 486.398, 581.216 486.261, 586.195 485.985, 596.191 485.852, 601.013 485.850, 610.707 485.847, 620.687 486.122, 630.683 486.382, 640.171 486.938, 650.156 487.390, 658.271 487.453, 659.400 488.191, 668.141 488.430, 670.964 488.686, 673.991 489.050, 678.309 489.525, 682.465 490.252, 688.830 490.339, 689.591 491.166, 696.836 492.601, 706.733 493.050, 709.833 493.379, 712.107 493.788, 714.923 495.530, 724.770 496.129, 728.155 496.901, 732.514 498.961, 742.299 500.489, 749.556 502.878, 759.267 504.535, 766.001 507.264, 775.621 508.468, 779.866 509.018, 781.803 509.932, 784.625 513.014, 794.138 513.917, 796.923 516.980, 805.256 518.110, 808.333 519.210, 811.324 522.860, 820.121 524.155, 823.243 524.872, 824.973 525.380, 826.060 528.485, 832.711 530.881, 837.843 535.526, 846.698 537.210, 849.909 542.286, 858.525 543.834, 861.153 549.356, 869.490 550.727, 871.559 556.711, 879.572 557.864, 881.116 564.320, 888.753 565.218, 889.816 572.154, 897.020 572.765, 897.654 580.181, 904.362 580.478, 904.631 588.334, 910.749 596.308, 916.013 604.377, 920.432 612.518, 924.016 620.709, 926.778 " fill="none" stroke="rgb(0, 0, 0)" stroke-linecap="butt" stroke-linejoin="round" stroke-opacity="1.0" stroke-width="3.0" />
            <path d=" M 729.395, 518.262 728.517, 518.412 727.636, 518.785 726.768, 519.376 725.926, 520.176 725.783, 520.363 725.160, 521.173 724.486, 522.352 723.880, 523.691 723.355, 525.166 722.919, 526.753 722.678, 527.939 722.579, 528.424 722.341, 530.152 722.333, 530.260 722.211, 531.905 722.189, 533.654 722.276, 535.369 " fill="none" stroke="rgb(0, 0, 0)" stroke-linecap="butt" stroke-linejoin="round" stroke-opacity="1.0" stroke-width="3.0" />
            <path d=" M 728.758, 528.321 729.019, 528.353 729.269, 528.474 729.501, 528.683 729.710, 528.974 729.889, 529.338 730.033, 529.765 730.140, 530.245 730.205, 530.763 " fill="none" stroke="rgb(0, 0, 0)" stroke-linecap="butt" stroke-linejoin="round" stroke-opacity="1.0" stroke-width="3.0" />
            <path d=" M 727.188, 530.570 730.205, 530.763 738.852, 525.740 747.498, 520.716 755.305, 516.181 " fill="none" stroke="rgb(0, 0, 0)" stroke-linecap="butt" stroke-linejoin="round" stroke-opacity="1.0" stroke-width="3.0" />
            <path d=" M 802.572, 522.548 801.736, 522.706 800.895, 523.095 800.064, 523.709 799.256, 524.537 799.118, 524.731 798.522, 525.570 797.877, 526.789 797.296, 528.173 796.790, 529.697 796.368, 531.336 796.132, 532.560 796.036, 533.062 795.801, 534.845 795.792, 534.956 795.666, 536.654 795.634, 538.458 795.706, 540.226 " fill="none" stroke="rgb(0, 0, 0)" stroke-linecap="butt" stroke-linejoin="round" stroke-opacity="1.0" stroke-width="3.0" />
            <path d=" M 801.875, 532.922 802.121, 532.952 802.356, 533.076 802.575, 533.291 802.770, 533.589 802.936, 533.963 803.070, 534.403 803.167, 534.897 803.226, 535.431 " fill="none" stroke="rgb(0, 0, 0)" stroke-linecap="butt" stroke-linejoin="round" stroke-opacity="1.0" stroke-width="3.0" />
            <path d=" M 778.873, 479.211 779.009, 479.134 779.157, 479.080 779.313, 479.049 779.474, 479.044 779.695, 479.075 779.911, 479.151 780.113, 479.269 780.296, 479.423 780.450, 479.609 780.573, 479.822 780.658, 480.056 780.700, 480.305 780.696, 480.538 780.649, 480.761 780.561, 480.965 780.436, 481.142 780.279, 481.286 780.092, 481.392 " fill="none" stroke="rgb(0, 0, 0)" stroke-linecap="butt" stroke-linejoin="round" stroke-opacity="1.0" stroke-width="3.0" />
            <path d=" M 778.873, 479.211 778.814, 479.253 778.640, 479.403 778.501, 479.585 778.470, 479.636 778.366, 479.851 778.307, 480.086 778.299, 480.336 778.339, 480.569 778.351, 480.625 778.437, 480.843 778.565, 481.038 778.731, 481.205 778.773, 481.242 778.961, 481.365 779.019, 481.390 779.214, 481.465 779.272, 481.479 779.343, 481.490 779.493, 481.506 779.535, 481.509 779.585, 481.510 779.636, 481.508 779.687, 481.504 779.735, 481.497 779.781, 481.489 779.821, 481.479 779.976, 481.437 780.041, 481.415 780.092, 481.392 " fill="none" stroke="rgb(0, 0, 0)" stroke-linecap="butt" stroke-linejoin="round" stroke-opacity="1.0" stroke-width="3.0" />
            <path d=" M 776.500, 477.107 776.945, 483.171 780.977, 483.343 782.629, 483.413 783.271, 482.891 782.335, 477.254 780.102, 477.096 776.929, 476.871 776.500, 477.107 " fill="none" stroke="rgb(0, 0, 0)" stroke-linecap="butt" stroke-linejoin="round" stroke-opacity="1.0" stroke-width="3.0" />
            <path d=" M 782.629, 483.413 782.189, 477.335 " fill="none" stroke="rgb(0, 0, 0)" stroke-linecap="butt" stroke-linejoin="round" stroke-opacity="1.0" stroke-width="3.0" />
            <path d=" M 782.335, 477.254 782.189, 477.335 776.500, 477.107 " fill="none" stroke="rgb(0, 0, 0)" stroke-linecap="butt" stroke-linejoin="round" stroke-opacity="1.0" stroke-width="3.0" />
            <path d=" M 741.307, 508.087 738.696, 508.094 728.698, 508.326 727.217, 508.360 717.226, 508.779 715.757, 508.840 705.774, 509.427 704.310, 509.513 694.337, 510.248 692.872, 510.356 682.910, 511.221 681.437, 511.349 671.485, 512.325 670.001, 512.470 660.058, 513.539 658.558, 513.701 648.624, 514.845 647.103, 515.020 637.176, 516.222 635.632, 516.409 625.710, 517.653 624.139, 517.849 614.220, 519.118 612.620, 519.323 602.702, 520.600 601.070, 520.810 591.151, 522.081 589.483, 522.295 579.561, 523.544 577.855, 523.759 578.168, 513.764 578.310, 509.242 578.508, 499.244 578.598, 494.683 578.682, 484.683 578.720, 480.102 578.688, 470.102 578.674, 465.517 578.527, 455.518 578.460, 450.946 578.197, 440.950 578.078, 436.410 577.698, 426.417 577.528, 421.926 577.030, 411.939 576.809, 407.515 576.699, 405.752 " fill="none" stroke="rgb(0, 0, 0)" stroke-linecap="butt" stroke-linejoin="round" stroke-opacity="1.0" stroke-width="3.0" />
            <path d=" M 582.295, 263.772 580.457, 261.984 573.750, 254.568 573.250, 254.015 567.001, 246.208 566.412, 245.473 560.619, 237.322 559.970, 236.407 554.630, 227.953 553.943, 226.866 549.051, 218.145 548.350, 216.895 547.945, 216.079 543.495, 207.124 543.204, 206.537 541.752, 203.223 541.611, 202.900 538.515, 195.832 " fill="none" stroke="rgb(0, 0, 0)" stroke-linecap="butt" stroke-linejoin="round" stroke-opacity="1.0" stroke-width="3.0" />
            <path d=" M 538.515, 195.832 537.795, 194.123 534.755, 186.906 530.839, 178.581 529.351, 175.771 526.771, 170.897 525.368, 168.564 522.557, 163.890 518.203, 157.603 517.954, 157.297 513.714, 152.078 513.714, 152.078 509.098, 147.353 504.365, 143.471 499.731, 140.600 499.523, 140.472 496.873, 139.360 494.583, 138.399 489.558, 137.289 484.459, 137.179 479.302, 138.108 474.102, 140.111 470.406, 142.306 469.461, 142.868 468.876, 143.215 464.170, 147.021 463.641, 147.449 458.418, 152.838 453.226, 159.400 452.938, 159.835 451.575, 161.889 448.087, 167.147 446.809, 169.403 443.024, 176.085 438.625, 185.066 438.060, 186.219 434.129, 195.414 433.220, 197.540 429.703, 206.901 428.527, 210.031 425.381, 219.523 424.006, 223.672 421.196, 233.269 419.684, 238.433 417.178, 248.114 415.584, 254.271 413.357, 264.020 411.731, 271.139 409.762, 280.943 408.149, 288.979 406.421, 298.828 404.860, 307.724 403.358, 317.611 401.886, 327.298 400.597, 337.214 399.308, 347.131 399.245, 347.615 398.160, 357.557 397.076, 367.497 396.957, 368.588 396.068, 378.549 395.179, 388.509 395.036, 390.118 394.336, 400.094 393.637, 410.069 393.495, 412.101 392.980, 422.088 392.466, 432.075 392.345, 434.428 392.371, 434.519 395.181, 444.116 397.991, 453.713 398.276, 454.685 398.786, 456.351 401.711, 465.914 404.279, 474.306 407.323, 483.831 410.355, 493.320 413.521, 502.805 416.508, 511.752 419.798, 521.195 422.737, 529.628 426.155, 539.026 429.045, 546.974 432.593, 556.323 435.434, 563.811 439.114, 573.109 441.905, 580.163 445.719, 589.406 448.461, 596.050 452.412, 605.237 455.103, 611.495 459.192, 620.621 461.834, 626.518 466.062, 635.580 468.655, 641.136 473.023, 650.132 475.567, 655.371 480.077, 664.296 482.575, 669.239 483.816, 671.600 " fill="none" stroke="rgb(0, 0, 0)" stroke-linecap="butt" stroke-linejoin="round" stroke-opacity="1.0" stroke-width="3.0" />
            <path d=" M 480.541, 635.572 481.693, 640.442 " fill="none" stroke="rgb(0, 0, 0)" stroke-linecap="butt" stroke-linejoin="round" stroke-opacity="1.0" stroke-width="3.0" />
            <path d=" M 481.435, 652.519 482.615, 656.847 " fill="none" stroke="rgb(0, 0, 0)" stroke-linecap="butt" stroke-linejoin="round" stroke-opacity="1.0" stroke-width="3.0" />
            <path d=" M 362.884, 425.606 358.305, 434.496 355.796, 439.367 " fill="none" stroke="rgb(0, 0, 0)" stroke-linecap="butt" stroke-linejoin="round" stroke-opacity="1.0" stroke-width="3.0" />
            <path d=" M 470.406, 142.306 466.649, 142.534 " fill="none" stroke="rgb(0, 0, 0)" stroke-linecap="butt" stroke-linejoin="round" stroke-opacity="1.0" stroke-width="3.0" />
            <path d=" M 536.823, 500.250 541.069, 500.431 535.585, 504.581 " fill="none" stroke="rgb(0, 0, 0)" stroke-linecap="butt" stroke-linejoin="round" stroke-opacity="1.0" stroke-width="3.0" />
            <path d=" M 790.899, 539.908 791.086, 546.270 " fill="none" stroke="rgb(0, 0, 0)" stroke-linecap="butt" stroke-linejoin="round" stroke-opacity="1.0" stroke-width="3.0" />
            <path d=" M 794.780, 522.091 794.614, 519.241 " fill="none" stroke="rgb(0, 0, 0)" stroke-linecap="butt" stroke-linejoin="round" stroke-opacity="1.0" stroke-width="3.0" />
            <path d=" M 800.268, 520.679 800.215, 519.750 " fill="none" stroke="rgb(0, 0, 0)" stroke-linecap="butt" stroke-linejoin="round" stroke-opacity="1.0" stroke-width="3.0" />
            <path d=" M 801.415, 519.946 801.410, 519.859 " fill="none" stroke="rgb(0, 0, 0)" stroke-linecap="butt" stroke-linejoin="round" stroke-opacity="1.0" stroke-width="3.0" />
        </g>
    </g>
</svg>
