<?xml version='1.0' encoding='ascii'?>
<svg xmlns="http://www.w3.org/2000/svg" height="1080" version="1.1" width="1080">
    <g id="View Layer_LineSet" inkscape:groupmode="lineset" inkscape:label="View Layer_LineSet" xmlns:inkscape="http://www.inkscape.org/namespaces/inkscape">
        <g id="strokes" inkscape:groupmode="layer" inkscape:label="strokes" xmlns:inkscape="http://www.inkscape.org/namespaces/inkscape">
            <path d=" M 356.573, 424.200 362.994, 422.503 " fill="none" stroke="rgb(0, 0, 0)" stroke-linecap="butt" stroke-linejoin="round" stroke-opacity="1.0" stroke-width="3.0" />
            <path d=" M 380.902, 422.598 390.790, 424.089 392.851, 424.400 " fill="none" stroke="rgb(0, 0, 0)" stroke-linecap="butt" stroke-linejoin="round" stroke-opacity="1.0" stroke-width="3.0" />
            <path d=" M 392.851, 424.400 389.117, 415.123 385.382, 405.847 384.776, 404.341 " fill="none" stroke="rgb(0, 0, 0)" stroke-linecap="butt" stroke-linejoin="round" stroke-opacity="1.0" stroke-width="3.0" />
            <path d=" M 464.087, 137.306 459.546, 138.444 454.961, 140.693 450.347, 144.085 445.719, 148.651 441.096, 154.415 439.104, 157.438 439.093, 157.454 439.091, 157.457 438.456, 158.421 436.497, 161.394 431.940, 169.601 427.643, 178.631 427.446, 179.045 423.631, 188.288 423.039, 189.724 419.641, 199.129 418.738, 201.626 415.707, 211.156 414.568, 214.737 411.863, 224.364 410.552, 229.031 408.138, 238.735 406.712, 244.470 404.562, 254.236 403.071, 261.008 401.163, 270.824 399.652, 278.591 397.967, 288.448 396.478, 297.155 394.999, 307.045 393.567, 316.623 392.282, 326.541 390.998, 336.458 390.939, 336.913 389.839, 346.852 388.739, 356.792 388.612, 357.934 387.688, 367.891 386.764, 377.848 386.602, 379.585 385.847, 389.556 385.091, 399.528 384.922, 401.760 384.776, 404.341 382.700, 414.123 380.902, 422.598 " fill="none" stroke="rgb(0, 0, 0)" stroke-linecap="butt" stroke-linejoin="round" stroke-opacity="1.0" stroke-width="3.0" />
            <path d=" M 527.114, 718.740 527.326, 717.778 529.311, 707.977 529.726, 705.924 531.551, 696.092 531.993, 693.712 533.668, 683.854 534.125, 681.170 535.661, 671.288 536.122, 668.322 537.527, 658.421 537.985, 655.196 539.266, 645.278 539.713, 641.817 540.876, 631.884 540.963, 631.137 541.307, 628.207 542.357, 618.262 542.766, 614.390 543.708, 604.435 544.091, 600.389 544.928, 590.424 545.282, 586.225 546.018, 576.252 546.339, 571.918 546.977, 561.938 547.262, 557.489 547.805, 547.504 548.052, 542.958 548.501, 532.968 548.708, 528.345 555.305, 528.324 557.153, 528.318 557.292, 528.318 559.077, 528.312 562.650, 528.301 563.487, 528.298 564.438, 528.295 567.004, 528.287 577.004, 528.256 577.696, 528.254 578.042, 518.260 578.206, 513.514 578.434, 503.516 578.543, 498.723 578.654, 488.724 578.708, 483.902 578.703, 473.902 578.700, 469.070 578.578, 459.071 578.519, 454.247 578.279, 444.250 578.164, 439.453 577.806, 429.459 577.635, 424.707 577.157, 414.719 576.995, 411.343 " fill="none" stroke="rgb(0, 0, 0)" stroke-linecap="butt" stroke-linejoin="round" stroke-opacity="1.0" stroke-width="3.0" />
            <path d=" M 574.062, 416.231 574.545, 426.219 574.599, 427.319 574.960, 437.312 575.110, 441.445 575.352, 451.442 575.453, 455.622 575.577, 465.621 575.629, 469.828 575.635, 479.828 575.637, 484.044 575.526, 494.043 575.479, 498.249 575.250, 508.247 575.154, 512.425 575.116, 513.514 575.018, 514.151 574.912, 514.747 574.800, 515.298 574.681, 515.801 574.557, 516.254 574.429, 516.654 574.297, 516.998 574.161, 517.286 574.023, 517.515 573.883, 517.685 573.742, 517.793 573.601, 517.841 573.461, 517.826 573.322, 517.750 569.384, 514.699 569.249, 513.378 569.084, 512.187 568.891, 511.144 568.674, 510.268 568.436, 509.573 568.181, 509.073 567.914, 508.775 567.638, 508.686 567.481, 508.683 564.931, 508.642 563.968, 508.626 563.145, 508.613 559.576, 508.555 557.792, 508.527 557.721, 508.525 557.251, 508.518 556.962, 508.639 556.673, 508.968 556.391, 509.502 556.119, 510.231 555.864, 511.144 555.809, 511.394 555.628, 512.226 555.416, 513.457 555.233, 514.819 555.080, 516.286 554.961, 517.835 554.878, 519.439 555.573, 519.935 556.529, 520.619 557.401, 520.634 557.504, 520.636 557.630, 520.638 559.288, 520.668 562.858, 520.731 563.695, 520.746 564.644, 520.763 565.083, 520.770 566.933, 520.803 566.960, 520.297 567.001, 519.815 567.054, 519.371 567.118, 518.977 567.192, 518.644 567.273, 518.381 567.275, 518.376 567.358, 518.194 567.447, 518.090 567.535, 518.070 " fill="none" stroke="rgb(0, 0, 0)" stroke-linecap="butt" stroke-linejoin="round" stroke-opacity="1.0" stroke-width="3.0" />
            <path d=" M 567.981, 521.582 574.663, 526.551 577.696, 528.254 " fill="none" stroke="rgb(0, 0, 0)" stroke-linecap="butt" stroke-linejoin="round" stroke-opacity="1.0" stroke-width="3.0" />
            <path d=" M 390.929, 200.428 390.231, 202.525 387.409, 212.118 386.420, 215.479 383.893, 225.155 382.727, 229.619 380.462, 239.359 379.172, 244.909 377.143, 254.702 375.775, 261.307 373.962, 271.141 372.558, 278.760 370.943, 288.629 369.539, 297.210 368.108, 307.107 366.738, 316.582 365.478, 326.502 364.219, 336.422 364.172, 336.796 363.075, 346.736 361.978, 356.676 361.858, 357.766 360.916, 367.722 359.974, 377.677 359.812, 379.394 359.018, 389.362 358.225, 399.331 358.046, 401.575 357.397, 411.553 356.747, 421.532 356.573, 424.200 356.111, 434.189 355.648, 444.179 355.511, 447.128 355.208, 457.124 354.906, 467.119 354.811, 470.243 354.667, 480.242 354.523, 490.241 354.477, 493.423 354.492, 503.423 354.506, 513.423 354.511, 516.546 354.686, 526.545 354.861, 536.543 354.913, 539.491 355.251, 549.485 355.589, 559.480 355.679, 562.139 356.184, 572.126 356.689, 582.113 356.804, 584.376 357.482, 594.353 358.159, 604.330 358.279, 606.090 359.137, 616.053 359.994, 626.016 360.094, 627.178 361.141, 637.123 362.187, 647.068 362.237, 647.544 363.482, 657.466 364.691, 667.099 366.149, 676.992 367.442, 685.760 369.128, 695.617 369.323, 696.753 " fill="none" stroke="rgb(0, 0, 0)" stroke-linecap="butt" stroke-linejoin="round" stroke-opacity="1.0" stroke-width="3.0" />
            <path d=" M 492.864, 735.584 491.686, 739.527 488.550, 749.096 485.282, 758.158 481.885, 766.680 478.363, 774.630 474.720, 781.972 470.961, 788.668 467.092, 794.684 463.119, 799.983 459.048, 804.528 455.195, 808.002 " fill="none" stroke="rgb(0, 0, 0)" stroke-linecap="butt" stroke-linejoin="round" stroke-opacity="1.0" stroke-width="3.0" />
            <path d=" M 393.144, 419.314 392.851, 424.400 392.415, 434.390 391.979, 444.381 391.853, 447.272 391.579, 457.268 391.304, 467.264 391.220, 470.330 391.105, 480.330 390.990, 490.329 390.954, 493.455 390.999, 503.455 391.043, 513.454 391.057, 516.524 391.262, 526.522 391.467, 536.519 391.526, 539.417 391.893, 549.410 392.259, 559.403 392.355, 562.017 392.886, 572.003 393.418, 581.989 393.536, 584.209 394.236, 594.185 394.936, 604.160 395.057, 605.884 395.932, 615.846 396.807, 625.807 396.906, 626.938 397.962, 636.882 399.018, 646.826 399.066, 647.274 400.312, 657.196 401.519, 666.805 402.968, 676.700 404.248, 685.448 405.912, 695.309 407.232, 703.133 409.127, 712.952 410.449, 719.799 412.596, 729.565 413.877, 735.390 416.303, 745.092 417.496, 749.864 420.229, 759.483 421.281, 763.187 424.359, 772.702 425.211, 775.335 428.682, 784.713 429.265, 786.288 433.185, 795.488 433.420, 796.039 437.656, 804.587 441.954, 811.938 443.424, 814.026 443.716, 814.441 446.294, 818.102 450.658, 823.097 455.030, 826.947 459.394, 829.678 463.735, 831.318 468.038, 831.903 472.294, 831.468 476.489, 830.050 480.615, 827.687 484.660, 824.422 488.618, 820.293 488.955, 819.862 492.481, 815.341 496.242, 809.607 499.896, 803.133 503.438, 795.957 506.443, 789.077 " fill="none" stroke="rgb(0, 0, 0)" stroke-linecap="butt" stroke-linejoin="round" stroke-opacity="1.0" stroke-width="3.0" />
            <path d=" M 467.814, 813.710 463.949, 812.985 463.765, 812.951 459.697, 811.193 455.622, 808.405 455.195, 808.002 451.555, 804.564 447.511, 799.647 443.506, 793.636 439.555, 786.514 435.677, 778.276 431.888, 768.919 428.574, 759.484 428.209, 758.445 425.276, 748.885 424.657, 746.864 422.060, 737.207 421.251, 734.197 418.954, 724.464 418.010, 720.467 415.983, 710.675 414.955, 705.707 413.173, 695.867 412.102, 689.960 410.544, 680.082 409.471, 673.276 408.121, 663.368 407.077, 655.714 405.922, 645.781 404.939, 637.338 403.966, 627.386 403.071, 618.226 402.271, 608.258 401.485, 598.458 400.851, 588.478 400.218, 578.498 400.194, 578.124 399.721, 568.135 399.249, 558.146 399.209, 557.317 398.892, 547.322 398.575, 537.327 398.537, 536.139 398.373, 526.141 398.208, 516.142 398.184, 514.694 398.170, 504.694 398.156, 494.694 398.154, 493.089 398.289, 483.090 398.425, 473.091 398.447, 471.434 398.732, 461.438 399.017, 451.443 399.063, 449.839 399.380, 442.561 " fill="none" stroke="rgb(0, 0, 0)" stroke-linecap="butt" stroke-linejoin="round" stroke-opacity="1.0" stroke-width="3.0" />
            <path d=" M 503.096, 778.030 501.654, 781.204 498.225, 787.877 494.698, 793.870 491.077, 799.149 487.370, 803.674 483.584, 807.408 479.726, 810.315 475.805, 812.359 471.831, 813.502 467.814, 813.710 " fill="none" stroke="rgb(0, 0, 0)" stroke-linecap="butt" stroke-linejoin="round" stroke-opacity="1.0" stroke-width="3.0" />
            <path d=" M 546.187, 526.664 545.733, 536.654 545.550, 540.665 544.996, 550.650 544.778, 554.584 544.122, 564.563 543.869, 568.401 543.109, 578.372 542.825, 582.096 541.958, 592.058 541.645, 595.648 540.668, 605.600 540.331, 609.037 539.240, 618.978 538.882, 622.242 537.673, 632.169 537.299, 635.239 535.967, 645.150 535.583, 648.007 534.122, 657.900 533.819, 659.946 533.734, 660.522 532.136, 670.394 531.753, 672.760 530.010, 682.607 529.641, 684.695 527.744, 694.514 527.399, 696.302 525.337, 706.087 525.072, 707.346 " fill="none" stroke="rgb(0, 0, 0)" stroke-linecap="butt" stroke-linejoin="round" stroke-opacity="1.0" stroke-width="3.0" />
            <path d=" M 548.708, 528.345 546.187, 526.664 555.365, 526.628 557.214, 526.621 562.697, 526.599 564.484, 526.592 564.875, 526.591 564.492, 526.316 563.560, 525.650 562.739, 525.062 559.236, 522.555 557.618, 521.398 557.631, 520.884 557.630, 520.638 " fill="none" stroke="rgb(0, 0, 0)" stroke-linecap="butt" stroke-linejoin="round" stroke-opacity="1.0" stroke-width="3.0" />
            <path d=" M 380.902, 422.598 380.456, 432.588 380.010, 442.578 379.839, 446.408 379.551, 456.404 379.264, 466.399 379.148, 470.414 379.018, 480.413 378.887, 490.412 378.834, 494.488 378.860, 504.488 378.887, 514.487 378.897, 518.501 379.082, 528.499 379.267, 538.497 379.338, 542.325 379.682, 552.320 380.027, 562.314 380.149, 565.837 380.657, 575.824 381.166, 585.811 381.324, 588.913 382.001, 598.891 382.679, 608.868 382.853, 611.439 383.706, 621.403 384.559, 631.366 384.724, 633.305 385.760, 643.251 386.795, 653.197 386.922, 654.409 388.150, 664.334 389.378, 674.258 389.428, 674.660 390.862, 684.556 392.226, 693.970 393.880, 703.832 395.295, 712.267 397.187, 722.087 398.613, 729.488 400.765, 739.254 402.159, 745.578 404.598, 755.276 405.910, 760.491 408.669, 770.103 409.844, 774.195 412.962, 783.696 413.937, 786.666 417.464, 796.023 418.167, 797.886 422.164, 807.052 422.511, 807.848 426.948, 816.556 431.457, 824.016 436.018, 830.242 440.612, 835.254 445.221, 839.080 449.828, 841.747 454.417, 843.288 458.974, 843.741 463.486, 843.145 467.939, 841.537 472.323, 838.961 476.627, 835.459 480.843, 831.076 484.962, 825.851 " fill="none" stroke="rgb(0, 0, 0)" stroke-linecap="butt" stroke-linejoin="round" stroke-opacity="1.0" stroke-width="3.0" />
            <path d=" M 484.962, 825.851 490.781, 817.718 492.481, 815.341 " fill="none" stroke="rgb(0, 0, 0)" stroke-linecap="butt" stroke-linejoin="round" stroke-opacity="1.0" stroke-width="3.0" />
            <path d=" M 539.060, 551.706 529.071, 552.175 527.609, 552.243 527.039, 551.086 " fill="none" stroke="rgb(0, 0, 0)" stroke-linecap="butt" stroke-linejoin="round" stroke-opacity="1.0" stroke-width="3.0" />
            <path d=" M 541.126, 501.445 540.873, 511.442 540.620, 521.439 540.488, 526.687 539.983, 536.674 539.780, 540.697 539.127, 550.675 539.060, 551.706 534.793, 542.662 530.819, 534.241 530.568, 533.709 530.461, 533.481 " fill="none" stroke="rgb(0, 0, 0)" stroke-linecap="butt" stroke-linejoin="round" stroke-opacity="1.0" stroke-width="3.0" />
            <path d=" M 366.070, 377.757 365.985, 378.689 365.232, 388.661 364.478, 398.632 364.343, 400.422 363.733, 410.403 363.725, 410.541 363.115, 420.522 362.994, 422.503 362.525, 432.492 362.056, 442.481 361.945, 444.847 361.615, 454.841 361.286, 464.836 361.202, 467.365 361.011, 477.363 360.819, 487.361 360.769, 489.966 360.749, 493.606 " fill="none" stroke="rgb(0, 0, 0)" stroke-linecap="butt" stroke-linejoin="round" stroke-opacity="1.0" stroke-width="3.0" />
            <path d=" M 533.340, 745.720 534.405, 740.622 536.314, 730.806 536.615, 729.254 538.397, 719.414 538.718, 717.637 540.379, 707.776 540.713, 705.788 542.259, 695.908 542.601, 693.724 544.036, 683.828 544.380, 681.461 545.711, 671.550 546.051, 669.015 547.281, 659.091 547.614, 656.400 548.746, 646.465 549.069, 643.631 550.107, 633.685 550.416, 630.721 551.363, 620.766 551.656, 617.684 552.513, 607.721 552.787, 604.532 553.557, 594.562 553.811, 591.278 554.495, 581.302 554.727, 577.935 555.327, 567.953 555.534, 564.514 556.053, 554.527 556.235, 551.026 556.671, 541.035 556.827, 537.483 557.153, 528.318 " fill="none" stroke="rgb(0, 0, 0)" stroke-linecap="butt" stroke-linejoin="round" stroke-opacity="1.0" stroke-width="3.0" />
            <path d=" M 458.729, 882.445 461.150, 882.602 465.271, 882.674 469.352, 881.932 473.385, 880.404 477.361, 878.120 481.276, 875.110 485.122, 871.405 488.896, 867.034 492.591, 862.029 496.203, 856.417 499.729, 850.228 503.165, 843.492 506.508, 836.235 509.756, 828.485 512.906, 820.268 515.237, 813.654 " fill="none" stroke="rgb(0, 0, 0)" stroke-linecap="butt" stroke-linejoin="round" stroke-opacity="1.0" stroke-width="3.0" />
            <path d=" M 517.522, 151.940 516.699, 149.736 513.538, 142.071 510.267, 134.928 506.887, 128.336 503.401, 122.326 499.811, 116.928 496.123, 112.174 492.340, 108.095 488.466, 104.724 484.508, 102.091 480.471, 100.229 476.361, 99.170 472.187, 98.943 471.099, 99.107 467.956, 99.579 463.677, 101.106 459.361, 103.552 455.016, 106.941 450.655, 111.296 446.289, 116.638 441.932, 122.984 437.596, 130.347 433.295, 138.737 433.044, 139.295 429.046, 148.160 426.543, 154.416 424.862, 158.617 421.498, 168.034 420.759, 170.103 417.710, 179.627 416.755, 182.610 413.988, 192.219 412.865, 196.120 410.355, 205.800 409.106, 210.614 406.830, 220.352 405.495, 226.064 403.435, 235.850 402.048, 242.436 400.188, 252.261 398.782, 259.689 397.109, 269.548 395.712, 277.777 394.215, 287.664 392.855, 296.647 391.524, 306.558 390.223, 316.240 389.051, 326.171 387.878, 336.102 387.832, 336.491 386.812, 346.439 385.791, 356.386 385.694, 357.329 384.820, 367.291 383.945, 377.253 383.820, 378.680 383.087, 388.654 382.355, 398.627 382.220, 400.464 381.625, 410.447 381.031, 420.429 380.902, 422.598 380.443, 432.587 379.985, 442.577 379.874, 444.994 379.549, 454.989 379.224, 464.983 379.140, 467.565 378.948, 477.563 378.756, 487.561 378.705, 490.220 378.645, 500.220 378.585, 510.219 378.569, 512.868 378.642, 522.868 378.715, 532.867 378.734, 535.419 378.940, 545.417 379.147, 555.415 379.196, 557.784 379.538, 567.778 379.880, 577.772 379.952, 579.873 380.433, 589.862 380.913, 599.850 380.998, 601.604 381.620, 611.585 382.242, 621.565 382.325, 622.894 383.094, 632.864 383.862, 642.834 383.926, 643.665 384.846, 653.622 385.766, 663.580 385.790, 663.844 386.868, 673.786 387.907, 683.364 389.151, 693.286 390.264, 702.162 391.684, 712.061 392.848, 720.182 394.454, 730.053 395.645, 737.374 397.450, 747.210 398.640, 753.694 400.660, 763.488 401.819, 769.103 404.072, 778.846 405.164, 783.571 407.672, 793.251 408.662, 797.072 411.450, 806.675 412.295, 809.586 415.395, 819.093 416.049, 821.100 419.497, 830.487 419.908, 831.606 423.747, 840.840 423.856, 841.101 427.879, 849.587 431.962, 857.069 436.091, 863.558 440.254, 869.067 444.438, 873.613 448.630, 877.217 452.820, 879.900 456.996, 881.686 460.589, 882.478 461.150, 882.602 " fill="none" stroke="rgb(0, 0, 0)" stroke-linecap="butt" stroke-linejoin="round" stroke-opacity="1.0" stroke-width="3.0" />
            <path d=" M 469.730, 99.033 465.472, 99.670 461.167, 101.198 456.823, 103.644 452.451, 107.032 448.062, 111.387 443.670, 116.728 439.285, 123.073 434.923, 130.434 430.596, 138.823 430.260, 139.564 426.321, 148.243 422.586, 157.520 422.112, 158.697 420.478, 163.244 417.985, 170.180 414.919, 179.698 413.957, 182.682 411.175, 192.287 410.045, 196.189 407.520, 205.865 406.264, 210.678 403.975, 220.413 402.632, 226.122 400.560, 235.905 399.166, 242.488 397.295, 252.312 395.881, 259.735 394.199, 269.593 392.795, 277.817 391.289, 287.703 389.922, 296.680 388.584, 306.590 387.277, 316.265 386.098, 326.196 384.919, 336.126 384.874, 336.508 383.847, 346.456 382.821, 356.403 382.725, 357.339 381.846, 367.300 380.967, 377.262 380.842, 378.682 380.105, 388.655 379.369, 398.628 379.234, 400.457 378.637, 410.439 378.040, 420.422 377.911, 422.582 377.451, 432.571 376.991, 442.561 376.880, 444.969 376.554, 454.964 376.228, 464.959 376.145, 467.531 375.953, 477.530 375.761, 487.528 375.710, 490.177 375.651, 500.177 375.592, 510.177 375.576, 512.817 375.651, 522.817 375.726, 532.816 375.745, 535.359 375.954, 545.357 376.164, 555.355 376.213, 557.715 376.559, 567.709 376.905, 577.703 376.977, 579.797 377.462, 589.785 377.947, 599.773 378.032, 601.519 378.660, 611.499 379.287, 621.479 379.370, 622.801 380.145, 632.770 380.920, 642.740 380.984, 643.564 381.911, 653.521 382.839, 663.478 382.863, 663.736 383.949, 673.677 384.996, 683.249 386.249, 693.170 387.370, 702.041 388.800, 711.938 389.972, 720.055 391.590, 729.924 392.789, 737.242 394.607, 747.075 395.805, 753.556 397.840, 763.347 399.006, 768.961 401.274, 778.700 402.375, 783.425 404.899, 793.101 405.896, 796.922 408.702, 806.520 409.554, 809.433 412.673, 818.934 412.858, 819.496 413.326, 820.922 413.333, 820.945 416.802, 830.324 417.218, 831.449 421.079, 840.673 421.192, 840.942 425.241, 849.426 429.351, 856.908 433.508, 863.396 437.698, 868.905 441.909, 873.452 446.129, 877.056 450.345, 879.740 454.549, 881.527 458.729, 882.445 " fill="none" stroke="rgb(0, 0, 0)" stroke-linecap="butt" stroke-linejoin="round" stroke-opacity="1.0" stroke-width="3.0" />
            <path d=" M 472.187, 98.943 469.730, 99.033 " fill="none" stroke="rgb(0, 0, 0)" stroke-linecap="butt" stroke-linejoin="round" stroke-opacity="1.0" stroke-width="3.0" />
            <path d=" M 539.381, 765.603 540.563, 759.757 540.580, 759.677 542.433, 749.851 542.885, 747.455 544.615, 737.606 545.076, 734.986 546.691, 725.117 547.153, 722.288 548.658, 712.402 549.118, 709.378 550.516, 699.477 550.969, 696.273 552.266, 686.358 552.706, 682.988 553.906, 673.060 554.332, 669.537 555.437, 659.599 555.844, 655.936 556.858, 645.988 557.244, 642.198 558.169, 632.241 558.532, 628.335 559.371, 618.371 559.708, 614.362 560.463, 604.390 560.773, 600.289 561.444, 590.312 561.726, 586.130 562.316, 576.147 562.567, 571.895 563.077, 561.908 563.297, 557.596 563.727, 547.605 563.915, 543.244 564.267, 533.250 564.422, 528.850 564.438, 528.295 " fill="none" stroke="rgb(0, 0, 0)" stroke-linecap="butt" stroke-linejoin="round" stroke-opacity="1.0" stroke-width="3.0" />
            <path d=" M 460.694, 917.847 463.080, 918.013 467.504, 917.654 471.876, 916.423 476.188, 914.355 480.434, 911.485 484.606, 907.847 488.699, 903.477 492.707, 898.409 496.627, 892.676 500.452, 886.312 504.181, 879.351 507.810, 871.822 511.336, 863.758 514.756, 855.187 518.070, 846.139 521.275, 836.642 522.848, 831.598 " fill="none" stroke="rgb(0, 0, 0)" stroke-linecap="butt" stroke-linejoin="round" stroke-opacity="1.0" stroke-width="3.0" />
            <path d=" M 541.724, 199.415 539.614, 189.576 539.017, 187.006 537.045, 178.524 534.598, 168.828 534.349, 167.839 531.704, 158.195 531.526, 157.547 528.664, 147.965 528.577, 147.675 525.503, 138.252 522.304, 129.307 518.981, 120.869 515.536, 112.972 511.970, 105.647 508.287, 98.928 504.489, 92.850 500.579, 87.446 496.561, 82.755 492.440, 78.810 488.222, 75.651 483.911, 73.312 479.515, 71.831 475.041, 71.244 473.030, 71.395 470.498, 71.586 465.895, 72.892 461.242, 75.194 456.550, 78.524 451.831, 82.910 447.098, 88.378 442.365, 94.952 437.646, 102.650 432.958, 111.486 429.772, 118.340 428.316, 121.471 424.987, 129.570 423.738, 132.610 420.302, 142.001 419.241, 144.901 419.006, 145.620 415.895, 155.124 414.844, 158.337 412.026, 167.932 410.566, 172.904 408.012, 182.572 406.425, 188.580 404.113, 198.309 404.056, 198.550 402.442, 205.339 400.351, 215.118 398.634, 223.143 396.748, 232.964 395.022, 241.950 393.326, 251.805 391.623, 261.707 390.106, 271.591 388.590, 281.476 388.455, 282.356 387.108, 292.265 385.761, 302.174 385.536, 303.832 384.350, 313.761 383.164, 323.691 382.881, 326.060 381.849, 336.006 380.817, 345.953 380.505, 348.960 379.622, 358.921 378.739, 368.882 378.423, 372.447 377.683, 382.420 376.944, 392.392 376.644, 396.429 376.045, 406.411 375.445, 416.393 375.180, 420.810 374.718, 430.800 374.256, 440.789 374.039, 445.490 373.713, 455.485 373.386, 465.480 373.227, 470.367 373.035, 480.365 372.843, 490.363 372.747, 495.336 372.689, 505.336 372.631, 515.336 372.603, 520.292 372.679, 530.292 372.756, 540.291 372.793, 545.130 373.005, 555.128 373.217, 565.126 373.315, 569.747 373.665, 579.741 374.015, 589.734 374.166, 594.041 374.656, 604.029 375.147, 614.017 375.338, 617.915 375.973, 627.895 376.607, 637.875 376.823, 641.275 377.607, 651.244 378.390, 661.213 378.612, 664.033 379.550, 673.988 380.488, 683.944 380.692, 686.105 381.792, 696.044 382.891, 705.983 383.050, 707.415 384.320, 717.334 385.590, 727.254 385.672, 727.895 387.122, 737.789 388.542, 747.480 390.183, 757.344 391.643, 766.116 392.922, 772.919 394.770, 782.747 394.960, 783.756 397.030, 793.540 397.552, 796.008 398.473, 800.360 400.785, 810.089 402.165, 815.894 404.743, 825.556 405.374, 827.920 406.018, 830.335 408.890, 839.914 410.014, 843.663 410.838, 846.104 414.037, 855.579 414.135, 855.867 417.701, 865.210 418.362, 866.942 422.344, 876.115 422.680, 876.889 427.071, 885.713 431.520, 893.426 436.011, 900.043 440.529, 905.582 445.061, 910.068 449.594, 913.524 454.115, 915.980 458.614, 917.466 461.319, 917.797 463.080, 918.013 " fill="none" stroke="rgb(0, 0, 0)" stroke-linecap="butt" stroke-linejoin="round" stroke-opacity="1.0" stroke-width="3.0" />
            <path d=" M 366.640, 370.584 366.470, 372.463 366.070, 377.757 365.316, 387.729 364.660, 396.407 364.050, 406.389 363.806, 410.385 363.196, 420.366 363.173, 420.750 363.117, 421.942 362.648, 431.931 362.180, 441.920 362.017, 445.391 361.687, 455.385 361.357, 465.380 361.311, 466.796 361.197, 470.228 361.006, 480.227 360.814, 490.225 360.749, 493.606 360.719, 495.158 360.665, 505.158 360.611, 515.158 360.584, 520.075 360.668, 530.074 360.752, 540.074 360.764, 541.421 360.793, 544.874 360.807, 545.538 " fill="none" stroke="rgb(0, 0, 0)" stroke-linecap="butt" stroke-linejoin="round" stroke-opacity="1.0" stroke-width="3.0" />
            <path d=" M 472.616, 71.341 468.044, 71.685 463.412, 72.991 458.730, 75.294 454.009, 78.624 449.260, 83.010 444.498, 88.478 439.736, 95.050 434.989, 102.746 430.272, 111.581 426.035, 120.639 425.602, 121.564 422.101, 130.029 420.996, 132.699 417.542, 142.083 416.473, 144.987 414.802, 150.064 414.701, 150.370 412.051, 158.418 409.217, 168.008 407.748, 172.981 405.180, 182.645 403.583, 188.652 401.258, 198.378 399.577, 205.405 397.474, 215.181 395.748, 223.203 395.243, 225.817 393.346, 235.635 392.116, 242.003 390.411, 251.856 388.698, 261.753 387.173, 271.636 385.649, 281.519 385.514, 282.395 384.159, 292.303 382.805, 302.211 382.579, 303.862 381.387, 313.791 380.194, 323.719 379.911, 326.082 378.874, 336.028 377.836, 345.974 377.523, 348.973 376.636, 358.934 375.748, 368.894 375.431, 372.451 374.688, 382.423 373.945, 392.396 373.645, 396.424 373.043, 406.406 372.441, 416.387 372.175, 420.795 371.711, 430.784 371.248, 440.774 371.030, 445.466 370.703, 455.460 370.375, 465.455 370.216, 470.332 370.024, 480.331 369.832, 490.329 369.737, 495.291 369.680, 505.291 369.623, 515.291 369.595, 520.238 369.673, 530.237 369.751, 540.237 369.789, 545.066 370.004, 555.064 370.219, 565.061 370.318, 569.673 370.672, 579.667 371.025, 589.661 371.177, 593.958 371.672, 603.946 372.167, 613.934 372.360, 617.823 373.000, 627.802 373.640, 637.782 373.857, 641.174 374.647, 651.143 375.437, 661.112 375.660, 663.924 376.606, 673.879 377.551, 683.834 377.756, 685.988 378.864, 695.926 379.972, 705.865 380.131, 707.291 381.411, 717.209 382.690, 727.127 382.772, 727.764 384.233, 737.656 385.533, 746.459 385.663, 747.342 387.316, 757.205 388.786, 765.973 390.647, 775.798 392.101, 783.478 392.126, 783.608 394.210, 793.388 394.772, 796.025 395.663, 800.206 397.991, 809.932 399.381, 815.737 401.975, 825.394 402.438, 827.114 403.260, 830.174 406.150, 839.747 407.282, 843.499 410.501, 852.966 411.430, 855.700 415.018, 865.035 415.686, 866.773 419.690, 875.937 420.032, 876.719 424.452, 885.542 428.930, 893.254 433.450, 899.870 437.997, 905.410 442.559, 909.896 447.121, 913.354 451.671, 915.811 456.199, 917.299 460.694, 917.847 " fill="none" stroke="rgb(0, 0, 0)" stroke-linecap="butt" stroke-linejoin="round" stroke-opacity="1.0" stroke-width="3.0" />
            <path d=" M 475.041, 71.244 472.616, 71.341 " fill="none" stroke="rgb(0, 0, 0)" stroke-linecap="butt" stroke-linejoin="round" stroke-opacity="1.0" stroke-width="3.0" />
            <path d=" M 548.240, 214.422 546.460, 204.533 544.546, 194.717 544.084, 192.346 542.016, 182.562 541.576, 180.478 539.343, 170.730 538.936, 168.953 536.525, 159.248 536.165, 157.797 533.560, 148.142 533.261, 147.036 530.443, 137.441 530.225, 136.699 527.174, 127.176 527.058, 126.814 523.759, 117.412 520.330, 108.526 516.772, 100.188 513.086, 92.432 509.275, 85.294 505.341, 78.811 501.288, 73.019 497.120, 67.957 492.840, 63.665 488.454, 60.180 483.968, 57.544 479.388, 55.796 474.723, 54.974 469.980, 55.119 465.097, 55.326 460.227, 56.476 455.298, 58.667 450.323, 61.931 445.315, 66.303 440.287, 71.810 435.253, 78.480 430.231, 86.335 425.401, 95.091 425.235, 95.392 420.894, 104.401 420.285, 105.665 416.372, 114.868 415.398, 117.160 411.864, 126.515 410.594, 129.879 407.397, 139.354 405.892, 143.816 402.998, 153.388 401.314, 158.958 398.693, 168.608 396.880, 175.284 394.508, 184.999 392.611, 192.766 390.929, 200.428 388.786, 210.195 388.528, 211.368 386.595, 221.179 384.652, 231.043 382.916, 240.891 381.180, 250.740 381.004, 251.739 379.452, 261.618 377.901, 271.497 377.603, 273.393 376.225, 283.298 374.848, 293.202 374.468, 295.935 373.256, 305.861 372.044, 315.787 371.617, 319.286 370.563, 329.230 369.509, 339.174 369.066, 343.360 368.164, 353.320 367.938, 355.827 367.036, 365.787 366.830, 368.066 366.640, 370.584 366.240, 375.878 365.486, 385.849 364.923, 393.305 364.313, 403.287 363.889, 410.227 363.355, 418.973 363.242, 421.374 362.773, 431.363 362.305, 441.352 362.135, 444.963 361.806, 454.957 361.476, 464.952 361.271, 471.162 361.079, 481.160 361.047, 482.856 360.855, 492.854 360.767, 497.459 360.713, 507.459 360.670, 515.355 360.625, 523.740 360.708, 533.739 360.776, 541.742 360.807, 545.538 360.844, 549.890 361.067, 559.887 361.290, 569.885 361.422, 575.798 361.787, 585.792 362.151, 595.785 362.355, 601.356 362.864, 611.343 363.372, 621.330 363.634, 626.457 364.291, 636.435 364.948, 646.413 365.250, 651.000 366.061, 660.967 366.871, 670.934 367.193, 674.891 368.162, 684.844 369.132, 694.797 369.323, 696.753 369.448, 698.041 370.584, 707.976 371.720, 717.912 372.001, 720.368 373.313, 730.282 374.625, 740.196 374.837, 741.799 376.334, 751.686 377.832, 761.574 377.937, 762.267 379.633, 772.123 381.283, 781.716 383.192, 791.532 384.857, 800.094 386.996, 809.863 388.639, 817.362 391.029, 827.072 392.608, 833.487 395.275, 843.125 396.746, 848.443 399.718, 857.991 401.032, 862.214 404.345, 871.649 405.447, 874.789 409.143, 884.081 409.971, 886.165 414.101, 895.273 414.587, 896.346 419.210, 905.213 419.275, 905.340 424.020, 913.161 428.803, 919.827 433.610, 925.362 438.427, 929.791 443.238, 933.144 448.033, 935.452 452.798, 936.749 457.601, 937.095 462.267, 937.412 466.883, 936.789 471.441, 935.263 475.933, 932.872 480.350, 929.654 484.687, 925.646 488.938, 920.886 493.097, 915.412 497.160, 909.258 501.122, 902.461 504.981, 895.054 508.733, 887.073 512.376, 878.547 515.908, 869.511 519.288, 860.099 519.326, 859.992 522.472, 850.499 522.630, 850.020 525.562, 840.460 525.819, 839.623 526.164, 838.411 " fill="none" stroke="rgb(0, 0, 0)" stroke-linecap="butt" stroke-linejoin="round" stroke-opacity="1.0" stroke-width="3.0" />
            <path d=" M 541.919, 772.556 542.487, 769.712 544.319, 759.881 544.853, 757.016 546.565, 747.163 547.101, 744.075 548.699, 734.203 549.232, 730.908 550.721, 721.019 551.246, 717.531 552.631, 707.627 553.143, 703.961 554.428, 694.043 554.924, 690.213 556.112, 680.284 556.589, 676.303 557.684, 666.363 558.138, 662.244 559.143, 652.295 559.572, 648.051 560.490, 638.093 560.891, 633.736 561.723, 623.770 562.096, 619.311 562.844, 609.339 563.186, 604.790 563.852, 594.812 564.162, 590.183 564.748, 580.200 565.023, 575.503 565.530, 565.515 565.771, 560.759 566.200, 550.768 566.406, 545.964 566.756, 535.970 566.926, 531.128 567.004, 528.287 " fill="none" stroke="rgb(0, 0, 0)" stroke-linecap="butt" stroke-linejoin="round" stroke-opacity="1.0" stroke-width="3.0" />
            <path d=" M 469.980, 55.119 465.170, 56.268 460.302, 58.457 455.388, 61.721 450.441, 66.092 445.474, 71.601 440.501, 78.273 435.538, 86.130 430.754, 94.912 430.602, 95.192 426.304, 104.221 425.752, 105.380 425.709, 105.469 421.838, 114.689 420.880, 116.971 417.384, 126.340 416.131, 129.697 412.969, 139.184 411.484, 143.642 411.382, 143.983 408.520, 153.565 406.958, 158.793 405.404, 164.584 402.812, 174.243 402.574, 175.130 402.429, 175.730 400.083, 185.451 398.352, 192.624 396.232, 202.397 394.314, 211.239 392.403, 221.054 392.083, 222.699 390.481, 230.928 388.764, 240.779 387.047, 250.631 386.871, 251.639 385.337, 261.520 383.802, 271.402 383.506, 273.309 382.576, 280.070 381.213, 289.977 380.403, 295.867 379.204, 305.795 378.005, 315.723 377.581, 319.236 376.538, 329.182 375.495, 339.127 375.054, 343.330 374.162, 353.290 373.270, 363.250 372.839, 368.055 372.093, 378.027 371.346, 387.999 370.949, 393.314 370.344, 403.296 369.740, 413.277 369.393, 419.002 368.928, 428.992 368.462, 438.981 368.182, 445.012 367.854, 455.007 367.526, 465.002 367.321, 471.233 367.129, 481.231 366.937, 491.229 366.816, 497.551 366.760, 507.550 366.704, 517.550 366.669, 523.852 366.749, 533.851 366.829, 543.851 366.878, 550.023 367.096, 560.020 367.314, 570.018 367.443, 575.951 367.800, 585.945 368.158, 595.939 368.357, 601.528 368.857, 611.516 369.357, 621.503 369.614, 626.648 370.261, 636.627 370.907, 646.606 371.205, 651.210 372.002, 661.178 372.800, 671.146 373.117, 675.118 374.072, 685.073 374.861, 693.298 375.203, 696.860 375.339, 698.285 376.459, 708.222 377.578, 718.159 377.856, 720.628 379.148, 730.544 380.441, 740.460 380.651, 742.073 382.127, 751.963 382.727, 755.982 383.620, 761.965 383.708, 762.555 385.380, 772.414 387.009, 782.015 388.891, 791.836 390.534, 800.404 392.645, 810.179 393.448, 813.902 394.265, 817.682 396.624, 827.400 398.182, 833.815 400.814, 843.463 402.265, 848.779 405.200, 858.339 406.495, 862.556 408.170, 867.393 410.852, 875.136 414.505, 884.445 415.318, 886.517 419.402, 895.645 419.874, 896.700 424.449, 905.592 424.502, 905.696 429.186, 913.518 433.908, 920.184 438.655, 925.718 443.410, 930.146 448.161, 933.496 452.895, 935.801 457.601, 937.095 " fill="none" stroke="rgb(0, 0, 0)" stroke-linecap="butt" stroke-linejoin="round" stroke-opacity="1.0" stroke-width="3.0" />
            <path d=" M 565.344, 519.622 565.425, 518.033 565.426, 518.017 565.449, 517.700 565.541, 516.466 565.689, 514.996 565.867, 513.633 566.072, 512.399 566.300, 511.316 566.547, 510.402 566.808, 509.672 567.081, 509.137 567.359, 508.807 567.480, 508.754 567.638, 508.686 " fill="none" stroke="rgb(0, 0, 0)" stroke-linecap="butt" stroke-linejoin="round" stroke-opacity="1.0" stroke-width="3.0" />
            <path d=" M 554.878, 519.439 555.586, 519.451 557.433, 519.484 557.584, 519.486 562.889, 519.579 564.676, 519.611 565.124, 519.619 565.344, 519.622 566.933, 520.803 " fill="none" stroke="rgb(0, 0, 0)" stroke-linecap="butt" stroke-linejoin="round" stroke-opacity="1.0" stroke-width="3.0" />
            <path d=" M 557.618, 521.398 562.837, 521.491 564.623, 521.523 565.056, 521.530 567.187, 521.568 567.981, 521.582 567.994, 521.067 567.992, 520.556 567.976, 520.062 567.945, 519.598 567.902, 519.178 567.846, 518.813 567.779, 518.512 567.704, 518.284 567.622, 518.135 567.535, 518.070 " fill="none" stroke="rgb(0, 0, 0)" stroke-linecap="butt" stroke-linejoin="round" stroke-opacity="1.0" stroke-width="3.0" />
            <path d=" M 622.287, 917.762 624.460, 918.287 632.321, 919.897 640.190, 920.759 648.048, 920.891 655.878, 920.311 663.666, 919.038 671.394, 917.092 679.050, 914.493 686.620, 911.264 694.091, 907.426 701.451, 903.001 708.691, 898.010 715.799, 892.477 722.766, 886.423 729.584, 879.871 736.245, 872.843 742.740, 865.360 748.982, 857.547 749.065, 857.443 755.003, 849.397 755.211, 849.114 760.856, 840.860 761.175, 840.394 766.537, 831.953 766.950, 831.304 772.038, 822.695 772.531, 821.862 777.356, 813.103 777.915, 812.088 782.485, 803.194 783.097, 802.002 787.421, 792.985 788.074, 791.623 792.159, 782.495 792.843, 780.968 796.696, 771.740 797.400, 770.055 801.029, 760.737 801.743, 758.902 805.153, 749.502 805.870, 747.526 809.066, 738.051 809.777, 735.943 812.766, 726.400 813.464, 724.170 816.249, 714.565 816.928, 712.222 819.513, 702.562 820.167, 700.115 822.556, 690.404 823.180, 687.864 825.375, 678.108 825.966, 675.484 827.970, 665.687 828.522, 662.990 830.338, 653.157 830.847, 650.397 832.477, 640.530 832.941, 637.718 834.385, 627.822 834.802, 624.967 836.062, 615.047 836.429, 612.159 837.505, 602.217 837.820, 599.307 838.713, 589.347 838.975, 586.426 839.685, 576.451 839.893, 573.528 840.419, 563.542 840.573, 560.629 840.914, 550.635 841.013, 547.740 841.168, 537.742 841.212, 534.877 841.180, 524.877 841.171, 522.053 840.949, 512.055 840.887, 509.282 840.473, 499.291 840.361, 496.578 839.751, 486.597 839.590, 483.956 838.782, 473.989 838.575, 471.431 837.565, 461.482 837.314, 459.016 836.098, 449.090 835.808, 446.727 834.379, 436.829 834.055, 434.579 832.409, 424.716 832.054, 422.589 830.185, 412.765 829.806, 410.772 827.707, 400.995 827.310, 399.144 824.974, 389.421 824.566, 387.723 821.984, 378.062 821.574, 376.526 818.738, 366.936 818.334, 365.569 815.234, 356.062 814.847, 354.872 811.473, 345.458 811.112, 344.453 807.453, 335.147 807.132, 334.331 803.175, 325.147 802.908, 324.525 798.640, 315.482 798.439, 315.056 793.848, 306.173 793.730, 305.944 788.782, 297.209 783.597, 288.874 778.179, 280.959 772.531, 273.486 766.659, 266.479 760.566, 259.960 754.259, 253.951 747.743, 248.476 741.025, 243.557 734.114, 239.218 727.018, 235.481 719.746, 232.370 712.309, 229.906 704.718, 228.112 696.985, 227.008 689.125, 226.615 681.151, 226.951 678.936, 227.103 " fill="none" stroke="rgb(0, 0, 0)" stroke-linecap="butt" stroke-linejoin="round" stroke-opacity="1.0" stroke-width="3.0" />
            <path d=" M 624.460, 918.287 623.637, 918.038 616.625, 915.915 608.835, 912.767 601.111, 908.830 593.474, 904.094 585.945, 898.552 578.548, 892.198 571.440, 885.164 571.305, 885.030 564.676, 877.542 564.239, 877.048 558.085, 869.166 557.374, 868.255 551.684, 860.031 550.734, 858.658 547.212, 852.930 544.344, 848.267 539.541, 839.496 538.227, 837.096 537.643, 835.898 533.259, 826.909 532.407, 825.162 530.825, 821.515 527.833, 814.618 526.908, 812.486 526.606, 811.701 523.013, 802.369 521.752, 799.093 520.790, 796.267 519.689, 793.030 516.961, 785.013 514.097, 775.432 512.973, 771.672 512.556, 770.277 511.493, 766.192 508.973, 756.515 508.558, 754.923 506.370, 745.166 504.986, 738.992 503.118, 729.168 501.856, 722.526 500.299, 712.648 499.850, 709.799 499.184, 705.574 497.929, 695.653 496.985, 688.187 496.024, 678.233 495.269, 670.417 494.596, 660.440 494.048, 652.322 493.655, 642.330 493.327, 633.960 493.212, 623.961 493.113, 615.391 493.271, 605.393 493.409, 596.678 493.838, 586.687 494.215, 577.883 494.912, 567.908 495.529, 559.071 496.473, 549.330 497.347, 540.304 498.579, 530.380 498.812, 528.503 499.662, 521.648 500.183, 518.215 500.373, 516.961 501.872, 507.074 502.465, 503.164 504.234, 493.321 505.745, 484.914 507.785, 475.125 509.487, 466.960 511.803, 457.232 513.677, 449.358 516.272, 439.700 518.297, 432.164 521.177, 422.588 523.328, 415.432 523.562, 414.732 524.245, 412.689 527.415, 403.205 528.749, 399.212 532.216, 389.832 532.702, 388.516 534.538, 383.550 538.062, 374.896 540.611, 368.636 540.671, 368.490 544.756, 359.362 547.124, 354.071 551.487, 345.187 553.113, 341.874 553.872, 340.328 558.078, 332.517 559.686, 329.531 560.890, 327.294 562.099, 325.247 567.184, 316.636 567.751, 315.675 568.151, 314.997 568.261, 314.828 573.700, 306.436 575.629, 303.460 581.434, 295.318 583.297, 292.704 589.479, 284.843 591.130, 282.744 595.371, 277.876 599.101, 273.593 606.064, 266.416 607.185, 265.260 614.548, 258.493 615.356, 257.750 623.120, 251.448 623.591, 251.065 631.752, 245.286 631.866, 245.205 640.159, 240.164 648.446, 235.937 656.709, 232.515 664.926, 229.885 673.079, 228.036 680.524, 227.036 681.151, 226.951 " fill="none" stroke="rgb(0, 0, 0)" stroke-linecap="butt" stroke-linejoin="round" stroke-opacity="1.0" stroke-width="3.0" />
            <path d=" M 678.936, 227.103 670.853, 228.188 662.689, 230.036 654.461, 232.664 646.188, 236.085 637.891, 240.309 629.589, 245.345 621.423, 251.117 621.304, 251.201 613.534, 257.496 613.060, 257.880 605.690, 264.639 604.879, 265.383 597.909, 272.553 596.787, 273.708 594.098, 276.789 588.808, 282.850 582.619, 290.704 580.968, 292.800 575.155, 300.937 573.292, 303.545 567.857, 311.914 567.330, 312.725 565.807, 315.070 561.803, 321.839 559.373, 325.946 558.540, 327.354 557.777, 328.769 553.029, 337.570 552.797, 338.001 551.517, 340.374 551.151, 341.117 546.737, 350.090 544.763, 354.102 540.672, 363.227 540.271, 364.120 538.305, 368.505 534.527, 377.764 532.167, 383.549 528.695, 392.927 526.375, 399.193 523.200, 408.676 521.852, 412.702 521.503, 413.745 520.951, 415.395 518.067, 424.970 515.917, 432.108 513.319, 441.764 512.177, 446.006 511.295, 449.282 508.976, 459.009 507.104, 466.864 505.788, 473.167 503.745, 482.956 503.360, 484.798 501.589, 494.640 500.080, 503.026 498.579, 512.913 498.175, 515.574 497.781, 518.173 497.277, 521.489 496.441, 528.225 495.208, 538.149 494.963, 540.124 493.998, 550.077 493.146, 558.869 492.449, 568.844 491.834, 577.660 491.406, 587.651 491.030, 596.433 490.873, 606.432 490.737, 615.126 490.854, 625.125 490.888, 628.062 490.954, 633.674 491.348, 643.666 491.678, 652.015 492.354, 661.993 492.904, 670.091 493.868, 680.044 494.624, 687.841 495.883, 697.761 496.829, 705.210 498.390, 715.087 498.444, 715.426 499.506, 722.144 501.378, 731.967 502.642, 738.593 504.835, 748.349 506.220, 754.508 508.746, 764.184 510.225, 769.847 510.298, 770.090 511.785, 775.053 514.637, 784.569 517.865, 794.033 518.671, 796.395 519.435, 798.636 519.796, 799.573 522.071, 805.466 524.599, 812.017 525.784, 814.742 527.015, 817.572 530.032, 824.511 530.107, 824.682 534.498, 833.667 535.259, 835.222 535.935, 836.607 540.746, 845.373 542.061, 847.769 547.308, 856.282 548.460, 858.152 554.158, 866.371 555.109, 867.743 561.271, 875.619 561.983, 876.530 568.619, 884.012 569.059, 884.508 576.174, 891.535 576.312, 891.673 583.720, 898.024 591.259, 903.565 598.906, 908.300 606.641, 912.238 614.441, 915.388 622.287, 917.762 " fill="none" stroke="rgb(0, 0, 0)" stroke-linecap="butt" stroke-linejoin="round" stroke-opacity="1.0" stroke-width="3.0" />
            <path d=" M 703.812, 324.276 695.705, 323.859 687.467, 324.252 683.673, 324.804 680.250, 325.302 679.124, 325.466 670.699, 327.503 665.848, 329.136 662.215, 330.359 653.699, 334.043 645.180, 338.578 636.689, 343.978 628.665, 349.945 628.259, 350.247 620.659, 356.747 619.922, 357.377 612.747, 364.343 611.707, 365.351 604.947, 372.720 603.643, 374.141 597.288, 381.862 595.758, 383.721 589.809, 391.758 588.089, 394.082 582.545, 402.404 580.675, 405.210 577.270, 410.884 576.995, 411.343 574.062, 416.231 573.554, 417.078 568.799, 425.875 567.393, 428.475 566.759, 429.649 564.941, 433.382 563.992, 435.332 563.215, 436.928 560.319, 442.877 559.758, 444.156 558.016, 448.130 558.010, 448.142 556.210, 452.250 554.256, 456.707 550.591, 466.011 548.927, 470.234 548.592, 471.083 547.067, 475.416 543.997, 484.137 543.356, 485.957 540.383, 495.505 538.585, 501.281 538.567, 501.345 537.980, 503.505 535.353, 513.154 534.307, 516.998 533.486, 520.503 531.204, 530.240 530.547, 533.043 530.461, 533.481 528.520, 543.291 528.047, 545.681 527.321, 549.349 527.039, 551.086 525.433, 560.956 524.638, 565.844 523.360, 575.762 522.497, 582.457 521.546, 592.412 520.904, 599.120 520.288, 609.101 519.876, 615.767 519.604, 625.763 519.426, 632.325 519.506, 642.324 519.557, 648.724 519.995, 658.714 520.266, 664.895 520.720, 670.562 521.520, 680.530 521.540, 680.772 522.703, 690.704 523.359, 696.299 524.891, 706.181 525.072, 707.346 525.428, 709.645 525.712, 711.475 526.945, 717.867 527.114, 718.740 527.939, 723.014 528.547, 726.165 530.818, 735.904 531.847, 740.315 532.209, 741.624 533.340, 745.720 534.652, 750.466 535.593, 753.871 535.794, 754.493 538.193, 761.924 539.381, 765.603 539.432, 765.759 539.764, 766.788 541.919, 772.556 544.336, 779.024 548.285, 788.211 549.286, 790.542 553.704, 799.513 554.588, 801.307 559.497, 810.019 560.215, 811.292 565.636, 819.695 566.140, 820.475 572.092, 828.511 572.334, 828.838 578.771, 836.363 585.422, 843.043 592.258, 848.873 599.252, 853.851 606.376, 857.977 609.265, 859.288 613.605, 861.258 620.911, 863.704 628.269, 865.324 635.656, 866.133 643.049, 866.149 650.424, 865.389 657.761, 863.873 665.040, 861.623 672.241, 858.663 679.348, 855.017 686.342, 850.709 693.210, 845.766 699.935, 840.215 706.505, 834.080 712.907, 827.390 719.129, 820.173 725.160, 812.454 730.990, 804.260 736.443, 795.877 736.611, 795.619 741.732, 787.030 742.014, 786.557 746.816, 777.786 747.191, 777.101 751.685, 768.168 752.135, 767.275 756.334, 758.199 756.839, 757.106 760.753, 747.904 761.299, 746.621 764.936, 737.306 765.508, 735.841 768.877, 726.426 769.462, 724.793 772.571, 715.289 773.156, 713.501 776.011, 703.918 776.586, 701.989 779.193, 692.335 779.748, 690.279 782.112, 680.562 782.640, 678.394 784.765, 668.623 785.257, 666.359 787.147, 656.539 787.599, 654.195 789.256, 644.333 789.660, 641.924 791.087, 632.027 791.441, 629.569 792.638, 619.641 792.938, 617.152 793.906, 607.199 794.150, 604.694 794.889, 594.721 795.075, 592.217 795.584, 582.230 795.711, 579.743 795.990, 569.747 796.059, 567.294 796.104, 557.294 796.115, 554.891 795.924, 544.893 795.880, 542.557 795.789, 540.450 " fill="none" stroke="rgb(0, 0, 0)" stroke-linecap="butt" stroke-linejoin="round" stroke-opacity="1.0" stroke-width="3.0" />
            <path d=" M 791.252, 545.083 791.186, 545.089 781.502, 546.009 775.994, 546.532 767.284, 547.359 766.570, 547.427 765.855, 547.495 765.139, 547.564 764.423, 547.633 763.577, 547.586 753.601, 546.889 752.071, 546.782 751.239, 546.478 750.446, 545.921 749.708, 545.122 749.040, 544.097 748.455, 542.864 747.963, 541.447 747.575, 539.872 747.297, 538.169 747.137, 536.371 747.096, 534.513 747.175, 532.631 747.374, 530.761 747.688, 528.939 748.112, 527.202 748.635, 525.582 749.250, 524.110 749.943, 522.814 750.700, 521.720 751.359, 520.892 752.018, 520.064 752.676, 519.238 753.333, 518.413 753.663, 518.000 756.343, 514.642 759.252, 510.999 765.490, 503.183 771.729, 495.368 776.043, 489.964 785.986, 491.030 786.878, 491.126 " fill="none" stroke="rgb(0, 0, 0)" stroke-linecap="butt" stroke-linejoin="round" stroke-opacity="1.0" stroke-width="3.0" />
            <path d=" M 822.959, 506.559 821.823, 496.878 820.364, 486.985 820.087, 485.106 818.323, 475.263 818.014, 473.543 815.934, 463.762 815.605, 462.216 813.201, 452.509 812.863, 451.146 810.128, 441.528 809.794, 440.355 806.722, 430.838 806.406, 429.858 802.982, 420.463 802.698, 419.684 798.900, 410.433 798.668, 409.868 794.474, 400.790 794.314, 400.444 789.706, 391.568 789.641, 391.442 784.654, 382.887 779.363, 374.803 773.779, 367.202 767.911, 360.107 761.763, 353.556 755.341, 347.588 748.656, 342.236 741.719, 337.529 734.545, 333.486 727.151, 330.119 722.950, 328.637 719.554, 327.439 711.769, 325.478 703.812, 324.276 " fill="none" stroke="rgb(0, 0, 0)" stroke-linecap="butt" stroke-linejoin="round" stroke-opacity="1.0" stroke-width="3.0" />
            <path d=" M 665.848, 329.136 667.442, 330.008 673.429, 334.032 679.233, 338.700 684.843, 343.993 690.249, 349.882 695.442, 356.335 700.417, 363.313 705.170, 370.778 709.694, 378.710 713.980, 387.094 718.021, 395.910 721.811, 405.133 725.268, 414.517 725.348, 414.733 728.483, 424.229 728.631, 424.679 731.465, 434.269 731.663, 434.936 734.212, 444.606 734.442, 445.479 736.713, 455.217 736.964, 456.290 738.964, 466.088 739.222, 467.353 740.959, 477.201 741.213, 478.645 742.697, 488.534 742.938, 490.141 743.676, 496.039 743.669, 497.275 743.604, 498.516 743.480, 499.749 743.299, 500.962 743.061, 502.142 742.771, 503.276 742.430, 504.353 742.042, 505.362 741.612, 506.291 741.330, 506.797 741.143, 507.132 740.641, 507.876 740.110, 508.514 739.557, 509.041 738.987, 509.450 730.492, 514.726 725.185, 518.022 " fill="none" stroke="rgb(0, 0, 0)" stroke-linecap="butt" stroke-linejoin="round" stroke-opacity="1.0" stroke-width="3.0" />
            <path d=" M 800.387, 535.184 801.079, 535.228 802.210, 535.301 803.221, 535.365 811.474, 529.718 814.136, 527.896 816.023, 526.605 823.616, 521.410 824.302, 520.940 825.529, 520.225 830.382, 517.397 829.513, 507.435 829.275, 504.712 828.122, 494.779 827.822, 492.188 826.379, 482.293 826.022, 479.848 824.280, 470.001 823.876, 467.718 821.825, 457.931 821.383, 455.824 819.013, 446.109 818.545, 444.189 817.155, 439.235 815.362, 432.841 812.318, 423.316 811.836, 421.807 811.398, 420.596 807.969, 411.114 804.197, 401.853 803.764, 400.788 799.606, 391.693 799.224, 390.857 794.663, 381.958 794.352, 381.352 789.925, 373.641 789.154, 372.299 784.903, 365.695 783.636, 363.727 777.803, 355.665 771.662, 348.146 765.224, 341.195 758.496, 334.843 751.490, 329.120 744.217, 324.055 736.690, 319.675 728.925, 316.009 720.938, 313.085 712.744, 310.928 704.365, 309.561 695.820, 309.010 685.834, 308.487 675.847, 307.964 671.414, 307.732 " fill="none" stroke="rgb(0, 0, 0)" stroke-linecap="butt" stroke-linejoin="round" stroke-opacity="1.0" stroke-width="3.0" />
            <path d=" M 695.820, 309.010 687.132, 309.295 685.668, 309.485 678.323, 310.436 669.421, 312.448 668.497, 312.747 660.451, 315.347 651.442, 319.145 647.954, 320.963 646.721, 321.606 642.423, 323.847 633.938, 329.139 633.426, 329.458 625.347, 335.351 624.484, 335.981 616.824, 342.409 615.630, 343.410 608.393, 350.311 606.898, 351.736 600.084, 359.055 598.323, 360.947 591.929, 368.637 589.942, 371.027 583.961, 379.042 581.789, 381.952 576.213, 390.253 576.060, 390.479 575.729, 390.972 573.902, 393.693 568.721, 402.246 566.732, 405.530 566.315, 406.218 564.311, 409.887 562.619, 412.984 559.066, 419.490 557.490, 422.692 555.734, 426.258 552.187, 433.464 548.139, 442.609 545.711, 448.093 543.990, 452.434 540.304, 461.730 539.671, 463.325 536.341, 472.754 534.098, 479.102 531.116, 488.647 529.018, 495.362 527.006, 502.719 524.457, 512.041 523.217, 517.299 521.756, 523.491 520.590, 528.434 520.440, 529.070 519.218, 535.189 517.261, 544.996 516.985, 546.379 515.364, 556.247 514.108, 563.893 512.826, 573.811 511.826, 581.539 510.882, 591.494 510.148, 599.240 509.546, 609.222 509.081, 616.920 508.823, 626.916 508.627, 634.503 508.720, 644.502 508.789, 651.914 509.238, 661.903 509.307, 663.449 509.561, 669.079 510.374, 679.046 510.936, 685.928 512.123, 695.857 512.904, 702.391 " fill="none" stroke="rgb(0, 0, 0)" stroke-linecap="butt" stroke-linejoin="round" stroke-opacity="1.0" stroke-width="3.0" />
            <path d=" M 755.981, 514.609 754.907, 504.667 754.699, 502.734 754.476, 500.068 754.452, 500.301 754.271, 501.519 754.034, 502.705 753.745, 503.845 753.406, 504.927 753.020, 505.940 752.592, 506.875 752.127, 507.720 751.628, 508.467 751.101, 509.109 750.552, 509.638 749.986, 510.050 741.524, 515.379 733.148, 520.653 732.485, 519.758 731.752, 519.063 730.963, 518.578 730.130, 518.312 725.185, 518.022 718.973, 517.659 718.103, 517.617 717.219, 517.800 716.335, 518.205 715.465, 518.826 714.625, 519.652 713.863, 520.672 713.194, 521.871 712.597, 523.225 712.082, 524.712 711.658, 526.306 711.333, 527.980 711.112, 529.704 710.998, 531.450 710.995, 533.188 711.102, 534.887 721.080, 535.548 722.299, 535.629 727.056, 532.661 727.028, 532.118 727.044, 531.563 727.103, 531.011 727.198, 530.507 727.204, 530.478 727.344, 529.977 727.519, 529.523 727.724, 529.128 727.954, 528.803 728.202, 528.557 728.462, 528.396 728.726, 528.324 " fill="none" stroke="rgb(0, 0, 0)" stroke-linecap="butt" stroke-linejoin="round" stroke-opacity="1.0" stroke-width="3.0" />
            <path d=" M 797.257, 522.243 800.269, 520.177 801.436, 519.376 802.150, 518.887 806.912, 515.620 807.299, 515.320 807.417, 515.228 807.909, 514.735 808.383, 514.144 808.837, 513.462 809.266, 512.696 809.668, 511.852 810.039, 510.937 810.376, 509.959 810.678, 508.926 810.942, 507.845 811.165, 506.725 811.347, 505.575 811.485, 504.403 811.577, 503.219 821.173, 506.035 822.959, 506.559 822.849, 507.331 822.627, 508.456 822.364, 509.542 822.064, 510.580 821.729, 511.563 821.361, 512.483 820.962, 513.331 820.536, 514.102 820.087, 514.787 819.616, 515.381 819.129, 515.878 818.629, 516.271 810.425, 521.990 806.115, 524.994 805.966, 524.774 805.494, 524.075 804.805, 523.362 804.060, 522.866 803.271, 522.596 801.643, 522.500 800.419, 522.429 797.257, 522.243 794.799, 522.099 791.401, 521.901 790.574, 521.862 790.386, 521.905 790.127, 521.964 789.731, 522.054 788.885, 522.476 788.051, 523.120 787.243, 523.976 786.511, 525.032 785.870, 526.271 785.296, 527.671 784.800, 529.206 784.388, 530.852 784.070, 532.580 783.850, 534.359 783.731, 536.161 783.717, 537.953 783.808, 539.704 791.063, 540.185 791.093, 540.187 795.726, 540.494 795.789, 540.450 800.239, 537.406 800.216, 536.846 800.234, 536.274 800.294, 535.704 800.387, 535.184 800.393, 535.154 800.528, 534.637 800.696, 534.168 800.893, 533.759 801.010, 533.580 801.112, 533.423 801.348, 533.167 801.595, 533.000 801.845, 532.925 " fill="none" stroke="rgb(0, 0, 0)" stroke-linecap="butt" stroke-linejoin="round" stroke-opacity="1.0" stroke-width="3.0" />
            <path d=" M 775.994, 546.532 776.120, 552.673 776.080, 562.673 776.071, 564.953 775.790, 574.949 775.724, 577.279 775.204, 587.265 775.081, 589.627 774.323, 599.598 774.143, 601.977 773.149, 611.927 772.911, 614.306 771.681, 624.230 771.388, 626.593 769.921, 636.485 769.576, 638.816 767.872, 648.670 767.477, 650.954 765.534, 660.763 765.094, 662.983 762.909, 672.742 762.429, 674.883 760.000, 684.584 759.487, 686.631 756.809, 696.266 756.270, 698.204 753.338, 707.765 752.781, 709.579 749.590, 719.057 749.026, 720.734 745.570, 730.118 745.008, 731.644 741.280, 740.923 740.732, 742.286 736.723, 751.448 736.203, 752.636 731.905, 761.665 731.428, 762.669 726.831, 771.550 726.411, 772.361 721.505, 781.075 721.161, 781.685 715.933, 790.210 715.684, 790.617 710.124, 798.929 709.988, 799.132 704.082, 807.202 697.976, 814.800 691.679, 821.902 685.202, 828.480 678.558, 834.508 671.759, 839.958 664.819, 844.806 657.753, 849.025 650.577, 852.590 643.307, 855.476 635.961, 857.661 628.558, 859.121 621.119, 859.834 613.665, 859.781 609.265, 859.288 " fill="none" stroke="rgb(0, 0, 0)" stroke-linecap="butt" stroke-linejoin="round" stroke-opacity="1.0" stroke-width="3.0" />
            <path d=" M 763.577, 547.586 762.752, 547.280 761.967, 546.721 761.236, 545.920 760.575, 544.891 759.996, 543.652 759.510, 542.228 759.127, 540.646 758.854, 538.935 758.696, 537.128 758.694, 537.026 758.657, 535.261 758.738, 533.370 758.937, 531.491 759.153, 530.228 759.250, 529.660 759.672, 527.914 760.193, 526.285 760.803, 524.806 761.492, 523.503 762.243, 522.403 762.896, 521.570 763.550, 520.738 764.204, 519.908 764.856, 519.078 765.183, 518.663 767.534, 515.679 773.722, 507.824 777.693, 502.784 783.882, 494.929 786.878, 491.126 788.139, 501.046 788.251, 501.932 788.762, 506.306 789.699, 516.262 789.839, 517.746 790.127, 521.964 " fill="none" stroke="rgb(0, 0, 0)" stroke-linecap="butt" stroke-linejoin="round" stroke-opacity="1.0" stroke-width="3.0" />
            <path d=" M 794.534, 518.181 800.171, 518.703 801.399, 518.817 802.150, 518.887 " fill="none" stroke="rgb(0, 0, 0)" stroke-linecap="butt" stroke-linejoin="round" stroke-opacity="1.0" stroke-width="3.0" />
            <path d=" M 764.717, 537.421 764.401, 537.336 764.107, 537.105 763.848, 536.739 763.637, 536.253 763.482, 535.669 763.390, 535.013 763.365, 534.312 763.408, 533.598 763.517, 532.902 763.688, 532.255 763.913, 531.684 764.182, 531.216 764.483, 530.871 764.803, 530.664 765.128, 530.602 " fill="none" stroke="rgb(0, 0, 0)" stroke-linecap="butt" stroke-linejoin="round" stroke-opacity="1.0" stroke-width="3.0" />
            <path d=" M 765.128, 530.602 765.444, 530.689 765.736, 530.922 765.994, 531.288 766.204, 531.774 766.358, 532.357 766.449, 533.012 766.474, 533.710 766.431, 534.421 766.322, 535.115 766.152, 535.760 765.928, 536.330 765.660, 536.798 765.360, 537.145 765.041, 537.356 764.717, 537.421 " fill="none" stroke="rgb(0, 0, 0)" stroke-linecap="butt" stroke-linejoin="round" stroke-opacity="1.0" stroke-width="3.0" />
            <path d=" M 727.198, 530.507 730.199, 530.699 738.683, 525.404 747.166, 520.110 755.650, 514.816 755.981, 514.609 756.343, 514.642 " fill="none" stroke="rgb(0, 0, 0)" stroke-linecap="butt" stroke-linejoin="round" stroke-opacity="1.0" stroke-width="3.0" />
            <path d=" M 801.079, 535.228 801.289, 540.185 801.472, 550.184 801.526, 553.099 801.475, 563.099 801.460, 566.081 801.176, 576.077 801.090, 579.111 800.577, 589.098 800.419, 592.166 799.677, 602.139 799.447, 605.225 798.477, 615.178 798.176, 618.264 796.978, 628.192 796.608, 631.263 795.181, 641.161 794.743, 644.200 793.087, 654.061 792.585, 657.051 790.697, 666.871 790.135, 669.794 788.012, 679.566 787.395, 682.407 785.034, 692.124 784.368, 694.866 781.766, 704.521 781.057, 707.148 778.208, 716.734 777.466, 719.229 774.364, 728.736 773.597, 731.086 770.237, 740.504 769.456, 742.693 765.828, 752.012 765.045, 754.024 761.142, 763.232 760.369, 765.056 756.184, 774.137 755.435, 775.761 750.956, 784.702 750.249, 786.114 745.464, 794.895 744.815, 796.086 739.714, 804.687 739.141, 805.652 733.711, 814.049 733.237, 814.783 727.464, 822.949 727.108, 823.451 720.979, 831.353 720.766, 831.627 714.219, 839.284 707.480, 846.392 700.560, 852.921 693.472, 858.843 686.230, 864.130 678.849, 868.754 671.346, 872.684 663.738, 875.896 656.043, 878.363 648.282, 880.058 640.476, 880.957 632.646, 881.040 624.817, 880.286 617.012, 878.673 609.258, 876.188 601.581, 872.818 594.008, 868.551 586.569, 863.380 579.293, 857.303 572.208, 850.321 565.643, 842.778 565.346, 842.437 559.331, 834.448 558.737, 833.660 553.257, 825.295 552.411, 824.005 547.446, 815.325 546.398, 813.492 541.929, 804.546 540.728, 802.143 537.369, 794.437 535.430, 789.986 534.590, 787.770 533.373, 784.559 530.531, 777.059 528.015, 769.377 526.849, 765.817 526.058, 763.398 523.359, 753.769 522.036, 749.049 520.987, 744.612 519.311, 737.532 518.490, 734.061 516.568, 724.247 515.439, 718.489 513.884, 708.611 512.904, 702.391 509.635, 692.940 506.726, 684.531 " fill="none" stroke="rgb(0, 0, 0)" stroke-linecap="butt" stroke-linejoin="round" stroke-opacity="1.0" stroke-width="3.0" />
            <path d=" M 671.414, 307.732 663.533, 307.991 660.709, 308.383 655.548, 309.101 647.482, 311.078 639.360, 313.940 631.207, 317.699 623.049, 322.363 614.917, 327.937 607.120, 334.199 606.838, 334.425 599.499, 341.217 598.844, 341.823 591.960, 349.075 590.966, 350.122 584.530, 357.775 583.237, 359.312 577.237, 367.312 575.689, 369.377 574.574, 371.036 574.198, 371.595 568.622, 379.895 568.354, 380.294 565.883, 384.386 563.458, 388.404 561.770, 391.201 561.266, 392.034 556.718, 400.408 554.980, 403.608 554.459, 404.568 550.068, 413.552 547.964, 417.856 543.941, 427.011 543.521, 427.967 541.812, 431.855 538.146, 441.159 536.035, 446.517 532.717, 455.950 530.662, 461.789 527.682, 471.334 525.721, 477.612 523.070, 487.255 521.236, 493.925 518.909, 503.650 517.231, 510.660 515.223, 520.456 513.729, 527.749 513.607, 528.456 511.915, 538.312 510.746, 545.119 509.366, 555.023 508.297, 562.695 507.230, 572.637 506.397, 580.400 505.643, 590.371 505.054, 598.157 504.614, 608.147 504.273, 615.889 504.150, 625.888 504.057, 633.517 504.257, 643.515 504.406, 650.967 504.935, 660.953 505.316, 668.164 506.175, 678.127 506.323, 679.845 506.726, 684.531 506.188, 694.516 505.703, 703.525 " fill="none" stroke="rgb(0, 0, 0)" stroke-linecap="butt" stroke-linejoin="round" stroke-opacity="1.0" stroke-width="3.0" />
            <path d=" M 508.345, 720.134 510.284, 729.944 511.520, 736.195 513.841, 745.922 515.207, 751.646 515.445, 752.488 517.136, 758.473 519.384, 766.431 522.520, 775.927 523.540, 779.016 524.028, 780.496 524.728, 782.328 528.297, 791.669 529.110, 793.797 530.454, 796.854 531.719, 799.732 534.603, 806.293 534.631, 806.349 539.132, 815.278 540.478, 817.949 545.478, 826.609 546.705, 828.733 552.223, 837.073 553.251, 838.625 559.307, 846.582 560.085, 847.604 566.695, 855.109 567.177, 855.656 574.345, 862.629 574.494, 862.774 582.004, 868.954 589.677, 874.196 597.483, 878.504 605.391, 881.888 613.374, 884.361 621.405, 885.934 629.456, 886.628 637.502, 886.462 645.520, 885.460 653.487, 883.644 661.383, 881.040 669.185, 877.676 676.877, 873.579 684.440, 868.777 691.858, 863.301 699.116, 857.180 706.200, 850.443 713.097, 843.119 719.574, 835.500 719.795, 835.240 725.906, 827.324 726.284, 826.834 732.041, 818.658 732.552, 817.931 737.969, 809.525 738.592, 808.559 743.683, 799.952 744.394, 798.749 749.171, 789.963 749.952, 788.527 754.425, 779.583 755.257, 777.920 759.438, 768.836 760.303, 766.957 764.203, 757.749 765.086, 755.664 768.713, 746.345 769.600, 744.067 772.961, 734.649 773.839, 732.192 776.943, 722.686 777.799, 720.064 780.652, 710.479 781.477, 707.707 784.084, 698.053 784.869, 695.147 787.235, 685.431 787.971, 682.406 790.100, 672.635 790.781, 669.509 792.676, 659.690 793.296, 656.478 794.959, 646.617 795.512, 643.336 796.946, 633.440 797.429, 630.107 798.634, 620.180 799.043, 616.813 800.021, 606.861 800.353, 603.475 801.102, 593.503 801.356, 590.117 801.877, 580.131 802.052, 576.761 802.342, 566.765 802.439, 563.429 802.496, 553.429 802.515, 550.143 802.336, 540.144 802.278, 536.926 802.210, 535.301 " fill="none" stroke="rgb(0, 0, 0)" stroke-linecap="butt" stroke-linejoin="round" stroke-opacity="1.0" stroke-width="3.0" />
            <path d=" M 505.703, 703.525 507.274, 713.401 508.345, 720.134 " fill="none" stroke="rgb(0, 0, 0)" stroke-linecap="butt" stroke-linejoin="round" stroke-opacity="1.0" stroke-width="3.0" />
            <path d=" M 817.155, 439.235 816.871, 437.588 814.939, 427.776 814.695, 426.540 812.528, 416.778 812.284, 415.680 809.874, 405.975 809.638, 405.024 806.977, 395.385 806.757, 394.588 803.832, 385.025 803.639, 384.393 800.441, 374.917 800.285, 374.455 796.806, 365.080 796.699, 364.791 792.927, 355.529 792.881, 355.417 788.834, 346.350 784.559, 337.609 780.059, 329.214 775.335, 321.187 770.390, 313.549 765.227, 306.323 759.851, 299.525 754.268, 293.172 748.483, 287.285 742.502, 281.882 736.331, 276.986 729.977, 272.619 723.447, 268.803 716.750, 265.564 709.896, 262.920 702.895, 260.886 695.758, 259.478 688.499, 258.714 681.128, 258.609 679.454, 258.737 673.660, 259.181 666.111, 260.448 658.495, 262.426 650.830, 265.133 643.134, 268.573 635.424, 272.753 627.720, 277.677 620.041, 283.346 612.408, 289.763 612.160, 289.997 612.135, 290.021 612.126, 290.029 604.841, 296.928 597.974, 304.198 597.366, 304.842 590.888, 312.460 590.005, 313.500 585.827, 318.933 582.782, 322.894 577.056, 331.093 576.772, 331.500 575.719, 333.008 571.460, 339.704 571.010, 340.412 568.839, 343.823 564.073, 352.031 562.165, 355.317 561.674, 356.244 560.039, 359.324 555.719, 367.467 555.058, 368.831 553.394, 372.264 549.525, 380.247 545.480, 389.392 543.605, 393.630 542.324, 396.811 538.588, 406.087 537.985, 407.584 535.676, 413.901 532.688, 422.075 529.549, 431.570 527.733, 437.064 524.882, 446.649 523.139, 452.505 520.568, 462.169 518.922, 468.352 516.625, 478.084 515.098, 484.556 513.072, 494.349 511.682, 501.069 509.924, 510.913 508.688, 517.839 507.197, 527.727 507.084, 528.477 506.129, 534.812 504.906, 544.737 504.019, 551.936 503.063, 561.891 502.365, 569.154 501.674, 579.130 501.170, 586.408 500.744, 596.399 500.436, 603.642 500.278, 613.640 500.165, 620.799 500.280, 630.799 500.360, 637.825 500.750, 647.817 501.017, 654.662 501.687, 664.640 502.132, 671.259 503.087, 681.214 503.696, 687.564 504.109, 690.851 505.357, 700.773 505.703, 703.525 507.251, 713.404 508.143, 719.095 508.345, 720.134 510.198, 729.961 511.002, 734.228 513.178, 743.988 514.268, 748.882 515.319, 752.946 516.932, 759.179 517.925, 763.018 520.772, 772.604 521.958, 776.597 523.207, 780.293 524.361, 783.708 526.348, 789.587 529.927, 798.950 531.076, 801.958 531.131, 802.085 534.025, 808.811 536.122, 813.686 540.474, 822.689 541.467, 824.745 546.237, 833.534 547.093, 835.110 552.297, 843.649 552.977, 844.765 558.629, 853.015 559.098, 853.700 565.208, 861.617 565.432, 861.907 571.956, 869.378 578.652, 876.111 585.496, 882.102 592.471, 887.348 599.556, 891.850 606.731, 895.612 613.976, 898.646 620.963, 900.867 621.271, 900.965 628.598, 902.582 635.939, 903.510 643.279, 903.762 650.601, 903.353 657.890, 902.294 665.134, 900.599 672.317, 898.289 679.427, 895.386 686.451, 891.911 693.379, 887.886 700.198, 883.330 706.901, 878.263 713.477, 872.701 719.918, 866.662 726.215, 860.164 732.360, 853.229 738.348, 845.880 744.172, 838.139 749.828, 830.025 755.308, 821.557 760.466, 812.989 760.609, 812.752 765.499, 804.029 765.725, 803.627 770.355, 794.763 770.651, 794.197 775.029, 785.207 775.383, 784.481 779.518, 775.376 779.918, 774.497 783.819, 765.289 784.254, 764.264 787.928, 754.963 788.388, 753.799 791.841, 744.415 792.317, 743.121 795.555, 733.659 796.040, 732.243 799.067, 722.712 799.553, 721.180 802.373, 711.586 802.854, 709.948 805.468, 700.296 805.939, 698.560 808.352, 688.855 808.806, 687.030 811.022, 677.279 811.455, 675.376 813.478, 665.583 813.885, 663.612 815.718, 653.781 816.096, 651.752 817.739, 641.888 818.085, 639.811 819.541, 629.918 819.852, 627.802 821.120, 617.883 821.394, 615.738 822.474, 605.797 822.708, 603.634 823.600, 593.674 823.794, 591.502 824.500, 581.527 824.653, 579.356 825.171, 569.370 825.283, 567.211 825.613, 557.217 825.684, 555.080 825.824, 545.081 825.854, 542.976 825.802, 532.976 825.792, 530.913 825.546, 520.916 825.529, 520.225 " fill="none" stroke="rgb(0, 0, 0)" stroke-linecap="butt" stroke-linejoin="round" stroke-opacity="1.0" stroke-width="3.0" />
            <path d=" M 678.911, 258.729 671.433, 259.302 663.873, 260.568 656.248, 262.546 648.573, 265.251 640.867, 268.689 633.148, 272.865 625.435, 277.784 617.747, 283.448 610.846, 289.238 610.837, 289.245 610.833, 289.248 610.105, 289.859 602.838, 296.728 602.531, 297.018 595.656, 304.280 595.047, 304.924 588.562, 312.536 587.679, 313.573 581.576, 321.495 580.449, 322.958 580.043, 323.538 574.310, 331.731 573.379, 333.062 571.103, 336.634 570.648, 337.347 570.102, 338.203 566.493, 343.865 563.827, 348.449 561.418, 352.588 559.813, 355.346 559.785, 355.399 555.092, 364.229 554.802, 364.774 553.362, 367.483 553.121, 367.979 548.753, 376.975 547.163, 380.249 543.111, 389.392 542.051, 391.785 541.239, 393.617 537.497, 402.891 535.615, 407.556 532.176, 416.946 530.314, 422.031 527.170, 431.524 525.356, 437.003 524.492, 439.905 521.635, 449.488 520.760, 452.426 518.185, 462.089 516.541, 468.254 514.241, 477.986 512.716, 484.440 510.687, 494.232 509.298, 500.934 507.538, 510.778 506.304, 517.685 504.811, 527.573 504.674, 528.484 503.745, 534.639 502.521, 544.564 501.635, 551.743 500.679, 561.698 499.983, 568.941 499.292, 578.917 498.789, 586.175 498.364, 596.166 498.057, 603.390 497.901, 613.389 497.789, 620.528 497.905, 630.527 497.987, 637.535 498.379, 647.527 498.647, 654.354 499.320, 664.331 499.765, 670.933 500.724, 680.887 501.334, 687.220 502.586, 697.141 502.656, 697.699 503.346, 703.164 504.898, 713.043 505.790, 718.717 507.653, 728.542 508.656, 733.835 510.837, 743.594 511.927, 748.475 514.172, 757.127 515.591, 762.596 515.739, 763.094 518.593, 772.678 519.630, 776.162 522.252, 783.900 523.380, 787.229 524.027, 789.140 527.605, 798.478 528.763, 801.501 529.093, 802.266 530.355, 805.192 533.258, 811.923 533.816, 813.218 538.176, 822.218 539.169, 824.268 543.947, 833.053 544.803, 834.625 550.015, 843.159 550.696, 844.273 556.355, 852.518 556.825, 853.202 562.943, 861.112 563.168, 861.403 569.702, 868.871 576.406, 875.600 583.260, 881.588 590.244, 886.833 597.339, 891.334 604.524, 895.096 611.779, 898.132 619.084, 900.452 " fill="none" stroke="rgb(0, 0, 0)" stroke-linecap="butt" stroke-linejoin="round" stroke-opacity="1.0" stroke-width="3.0" />
            <path d=" M 681.128, 258.609 678.911, 258.729 " fill="none" stroke="rgb(0, 0, 0)" stroke-linecap="butt" stroke-linejoin="round" stroke-opacity="1.0" stroke-width="3.0" />
            <path d=" M 619.084, 900.452 621.271, 900.965 " fill="none" stroke="rgb(0, 0, 0)" stroke-linecap="butt" stroke-linejoin="round" stroke-opacity="1.0" stroke-width="3.0" />
            <path d=" M 487.969, 707.174 489.549, 717.049 490.820, 724.988 492.714, 734.807 492.864, 735.584 494.156, 742.283 494.541, 743.978 496.759, 753.729 497.960, 759.008 499.584, 765.160 502.137, 774.829 502.213, 775.116 503.096, 778.030 505.199, 784.969 506.443, 789.077 506.894, 790.566 508.575, 795.437 509.668, 798.605 511.983, 805.317 514.114, 810.778 515.237, 813.654 517.455, 819.336 518.022, 820.626 519.236, 823.385 521.651, 828.876 522.848, 831.598 523.286, 832.593 523.621, 833.270 526.164, 838.411 529.453, 845.062 534.309, 853.803 535.929, 856.720 541.224, 865.203 542.689, 867.551 548.438, 875.733 549.707, 877.540 555.922, 885.374 556.958, 886.679 563.649, 894.110 564.415, 894.961 571.586, 901.930 572.053, 902.383 579.702, 908.825 579.848, 908.947 587.774, 914.656 595.808, 919.518 603.927, 923.540 612.109, 926.736 620.332, 929.118 624.654, 930.186 632.875, 931.765 641.098, 932.561 649.303, 932.594 657.474, 931.884 665.593, 930.453 673.645, 928.321 681.616, 925.512 689.491, 922.048 697.258, 917.953 704.906, 913.251 712.422, 907.966 719.797, 902.120 727.022, 895.738 734.088, 888.844 740.915, 881.536 740.987, 881.459 747.492, 873.865 747.711, 873.609 753.905, 865.757 754.255, 865.314 760.147, 857.234 760.611, 856.597 766.212, 848.312 766.775, 847.480 772.095, 839.012 772.741, 837.983 777.790, 829.352 778.505, 828.129 783.293, 819.349 784.063, 817.936 788.598, 809.024 789.411, 807.426 793.701, 798.393 794.545, 796.616 798.599, 787.474 799.463, 785.526 803.287, 776.286 804.161, 774.174 807.763, 764.845 808.638, 762.578 812.022, 753.169 812.890, 750.756 816.063, 741.273 816.916, 738.723 819.883, 729.173 820.714, 726.498 823.479, 716.887 824.283, 714.095 826.849, 704.430 827.619, 701.530 829.991, 691.816 830.723, 688.820 832.904, 679.061 833.592, 675.979 835.584, 666.179 836.226, 663.022 838.031, 653.186 838.623, 649.963 840.243, 640.095 840.782, 636.817 842.219, 626.921 842.701, 623.598 843.956, 613.677 844.380, 610.320 845.453, 600.378 845.818, 596.997 846.710, 587.037 847.013, 583.643 847.724, 573.668 847.965, 570.271 848.493, 560.285 848.673, 556.896 849.018, 546.902 849.135, 543.530 849.296, 533.532 849.350, 530.189 849.326, 520.189 849.318, 516.885 849.107, 506.888 849.038, 503.634 848.637, 493.642 848.508, 490.449 847.914, 480.466 847.728, 477.344 846.938, 467.375 846.697, 464.335 845.707, 454.384 845.413, 451.435 844.219, 441.507 843.877, 438.662 842.474, 428.760 842.087, 426.029 840.469, 416.160 840.042, 413.553 838.205, 403.723 837.742, 401.250 835.678, 391.465 835.187, 389.137 832.889, 379.405 832.376, 377.232 829.836, 367.559 829.308, 365.550 826.518, 355.948 825.985, 354.112 822.934, 344.589 822.405, 342.935 819.085, 333.502 818.569, 332.039 814.968, 322.710 814.479, 321.442 810.584, 312.232 810.134, 311.166 805.933, 302.091 805.536, 301.231 801.016, 292.310 800.686, 291.658 795.834, 282.914 795.587, 282.469 790.388, 273.927 790.241, 273.686 784.651, 265.333 778.820, 257.431 772.753, 250.005 766.454, 243.079 759.928, 236.677 753.181, 230.824 746.221, 225.544 739.054, 220.861 731.690, 216.801 724.138, 213.388 716.409, 210.647 708.513, 208.600 700.464, 207.272 692.275, 206.684 683.961, 206.858 679.551, 207.198 671.105, 208.155 662.568, 209.911 653.957, 212.484 645.293, 215.889 636.596, 220.138 627.888, 225.243 619.644, 230.903 619.192, 231.213 611.344, 237.410 610.532, 238.051 603.087, 244.727 601.933, 245.762 594.890, 252.862 593.420, 254.344 586.776, 261.818 585.021, 263.793 583.122, 266.162 576.869, 273.966 576.762, 274.100 570.890, 282.195 568.671, 285.254 564.609, 291.422 564.025, 292.308 560.820, 297.175 560.777, 297.239 559.696, 299.043 557.236, 303.147 556.541, 304.308 555.635, 305.819 553.108, 310.035 552.455, 311.232 550.889, 314.100 550.602, 314.625 548.984, 317.587 545.693, 323.616 542.549, 329.933 540.953, 333.141 538.558, 337.954 538.117, 338.927 533.990, 348.035 531.733, 353.017 528.467, 360.944 525.244, 368.766 521.743, 378.134 519.117, 385.161 515.918, 394.635 513.379, 402.155 510.474, 411.724 508.053, 419.699 505.436, 429.350 503.161, 437.739 500.827, 447.463 498.725, 456.220 498.292, 458.279 496.237, 468.065 495.998, 469.200 494.763, 475.081 492.982, 484.921 491.293, 494.261 489.785, 504.147 489.285, 507.420 488.384, 513.329 488.328, 513.695 488.119, 515.376 487.955, 516.689 487.759, 518.261 487.617, 519.399 487.524, 520.151 487.220, 522.584 485.983, 532.507 485.882, 533.316 484.916, 543.269 483.965, 553.058 483.269, 563.033 482.583, 572.851 482.158, 582.842 481.742, 592.628 481.590, 602.627 481.443, 612.319 481.567, 622.318 481.686, 631.857 481.706, 632.354 482.110, 642.346 482.299, 647.034 482.363, 648.609 482.467, 651.176 483.155, 661.152 483.319, 663.530 483.408, 664.822 483.780, 670.209 484.756, 680.137 485.618, 688.896 486.893, 698.814 487.969, 707.174 " fill="none" stroke="rgb(0, 0, 0)" stroke-linecap="butt" stroke-linejoin="round" stroke-opacity="1.0" stroke-width="3.0" />
            <path d=" M 683.961, 206.858 675.539, 207.814 667.024, 209.571 658.435, 212.146 649.793, 215.554 641.117, 219.809 632.430, 224.922 624.195, 230.596 623.753, 230.901 615.917, 237.113 615.112, 237.751 607.680, 244.442 606.532, 245.476 599.503, 252.589 598.037, 254.074 591.407, 261.561 589.654, 263.541 585.536, 268.701 581.411, 273.868 575.555, 281.974 573.336, 285.045 567.850, 293.406 565.546, 296.918 565.456, 297.054 564.994, 297.829 560.336, 305.631 557.884, 309.737 557.801, 309.877 556.309, 312.619 551.530, 321.403 551.329, 321.774 550.397, 323.487 549.708, 324.876 545.267, 333.836 543.273, 337.856 539.159, 346.971 538.901, 347.541 536.458, 352.952 532.660, 362.203 529.978, 368.736 526.488, 378.108 523.859, 385.167 520.670, 394.645 518.128, 402.200 517.000, 405.925 514.104, 415.497 512.807, 419.783 510.198, 429.437 507.919, 437.865 505.592, 447.591 503.486, 456.388 501.436, 466.176 499.527, 475.293 497.751, 485.134 496.057, 494.517 495.572, 497.705 494.067, 507.591 493.850, 509.019 493.093, 513.996 491.858, 523.919 491.701, 525.180 490.646, 533.662 489.680, 543.616 488.915, 551.497 488.726, 553.450 488.029, 563.425 487.340, 573.288 487.308, 574.047 486.882, 584.037 486.494, 593.110 486.411, 598.498 486.257, 608.497 486.190, 612.846 486.310, 622.845 486.364, 627.269 486.406, 630.771 486.426, 632.428 486.616, 637.199 487.015, 647.191 487.140, 650.305 487.199, 651.789 487.640, 658.233 488.152, 665.718 488.504, 670.865 489.475, 680.818 489.495, 681.023 490.332, 689.592 490.717, 692.605 491.685, 700.181 491.745, 700.651 492.649, 707.730 492.672, 707.909 492.743, 708.353 494.314, 718.229 495.512, 725.760 495.591, 726.174 497.474, 735.995 498.835, 743.091 501.042, 752.844 502.626, 759.849 505.166, 769.521 506.865, 775.989 507.576, 778.347 508.927, 782.829 511.532, 791.468 514.778, 800.926 516.088, 804.742 516.604, 806.247 517.201, 807.782 520.822, 817.103 522.060, 820.291 523.346, 823.228 524.326, 825.466 524.571, 826.025 527.672, 833.109 527.874, 833.570 532.291, 842.542 534.023, 846.059 538.863, 854.810 540.481, 857.735 545.760, 866.229 547.222, 868.582 552.955, 876.775 554.221, 878.584 560.421, 886.430 561.451, 887.734 568.129, 895.178 568.888, 896.025 576.047, 903.007 576.506, 903.454 584.144, 909.908 584.279, 910.022 592.184, 915.734 600.196, 920.595 608.293, 924.617 616.453, 927.809 624.654, 930.186 " fill="none" stroke="rgb(0, 0, 0)" stroke-linecap="butt" stroke-linejoin="round" stroke-opacity="1.0" stroke-width="3.0" />
            <path d=" M 730.130, 518.312 729.267, 518.271 728.389, 518.455 727.510, 518.863 726.645, 519.487 725.906, 520.222 725.810, 520.318 725.052, 521.344 724.388, 522.549 723.794, 523.910 723.282, 525.404 722.860, 527.006 722.679, 527.944 722.535, 528.688 722.343, 530.197 722.314, 530.421 722.200, 532.176 722.195, 533.922 722.299, 535.629 " fill="none" stroke="rgb(0, 0, 0)" stroke-linecap="butt" stroke-linejoin="round" stroke-opacity="1.0" stroke-width="3.0" />
            <path d=" M 728.726, 528.324 728.988, 528.344 729.240, 528.455 729.474, 528.654 729.686, 528.935 729.869, 529.290 730.018, 529.711 730.129, 530.184 730.199, 530.699 " fill="none" stroke="rgb(0, 0, 0)" stroke-linecap="butt" stroke-linejoin="round" stroke-opacity="1.0" stroke-width="3.0" />
            <path d=" M 803.271, 522.596 802.451, 522.557 801.615, 522.752 800.775, 523.176 799.948, 523.824 799.238, 524.585 799.145, 524.684 798.419, 525.746 797.783, 526.993 797.213, 528.399 796.720, 529.943 796.310, 531.597 796.134, 532.565 795.993, 533.334 795.802, 534.891 795.773, 535.123 795.654, 536.933 795.638, 538.734 795.726, 540.494 " fill="none" stroke="rgb(0, 0, 0)" stroke-linecap="butt" stroke-linejoin="round" stroke-opacity="1.0" stroke-width="3.0" />
            <path d=" M 801.845, 532.925 802.092, 532.944 802.329, 533.057 802.549, 533.260 802.747, 533.549 802.918, 533.914 803.056, 534.347 803.158, 534.835 803.221, 535.365 " fill="none" stroke="rgb(0, 0, 0)" stroke-linecap="butt" stroke-linejoin="round" stroke-opacity="1.0" stroke-width="3.0" />
            <path d=" M 778.424, 478.424 778.559, 478.347 778.706, 478.293 778.862, 478.262 779.023, 478.257 779.244, 478.288 779.461, 478.364 779.665, 478.481 779.848, 478.635 780.005, 478.820 780.129, 479.032 780.217, 479.264 780.261, 479.512 780.259, 479.744 780.214, 479.966 780.128, 480.169 780.005, 480.345 779.849, 480.489 779.663, 480.595 " fill="none" stroke="rgb(0, 0, 0)" stroke-linecap="butt" stroke-linejoin="round" stroke-opacity="1.0" stroke-width="3.0" />
            <path d=" M 778.302, 478.522 778.317, 478.510 " fill="none" stroke="rgb(0, 0, 0)" stroke-linecap="butt" stroke-linejoin="round" stroke-opacity="1.0" stroke-width="3.0" />
            <path d=" M 778.192, 478.618 778.055, 478.800 778.024, 478.854 777.922, 479.070 777.865, 479.305 777.859, 479.554 777.902, 479.785 777.914, 479.845 778.002, 480.061 778.132, 480.254 778.299, 480.418 778.342, 480.458 778.531, 480.578 778.590, 480.605 778.786, 480.676 778.843, 480.691 778.914, 480.701 779.064, 480.713 779.107, 480.716 779.157, 480.717 779.208, 480.715 779.258, 480.710 779.307, 480.703 779.352, 480.694 779.469, 480.664 779.547, 480.643 779.612, 480.620 779.663, 480.595 " fill="none" stroke="rgb(0, 0, 0)" stroke-linecap="butt" stroke-linejoin="round" stroke-opacity="1.0" stroke-width="3.0" />
            <path d=" M 778.424, 478.424 778.365, 478.468 778.317, 478.510 778.299, 478.526 778.192, 478.618 778.302, 478.522 " fill="none" stroke="rgb(0, 0, 0)" stroke-linecap="butt" stroke-linejoin="round" stroke-opacity="1.0" stroke-width="3.0" />
            <path d=" M 776.031, 476.329 776.532, 482.366 780.633, 482.539 782.218, 482.606 782.857, 482.056 781.868, 476.468 779.699, 476.310 776.459, 476.074 776.031, 476.329 " fill="none" stroke="rgb(0, 0, 0)" stroke-linecap="butt" stroke-linejoin="round" stroke-opacity="1.0" stroke-width="3.0" />
            <path d=" M 782.218, 482.606 781.722, 476.555 " fill="none" stroke="rgb(0, 0, 0)" stroke-linecap="butt" stroke-linejoin="round" stroke-opacity="1.0" stroke-width="3.0" />
            <path d=" M 781.868, 476.468 781.722, 476.555 776.031, 476.329 " fill="none" stroke="rgb(0, 0, 0)" stroke-linecap="butt" stroke-linejoin="round" stroke-opacity="1.0" stroke-width="3.0" />
            <path d=" M 741.330, 506.797 738.555, 506.824 728.560, 507.144 727.083, 507.191 717.097, 507.716 715.630, 507.793 705.655, 508.499 704.192, 508.603 694.229, 509.470 692.762, 509.598 682.813, 510.606 681.335, 510.755 671.399, 511.882 669.908, 512.052 659.983, 513.279 658.473, 513.466 648.559, 514.773 647.027, 514.975 637.121, 516.344 635.564, 516.559 625.664, 517.971 624.080, 518.197 614.184, 519.635 612.569, 519.869 602.674, 521.315 601.026, 521.555 591.129, 522.991 589.446, 523.235 579.546, 524.646 577.825, 524.891 578.171, 514.897 578.327, 510.403 578.558, 500.406 578.663, 495.865 578.779, 485.866 578.832, 481.295 578.833, 471.295 578.834, 466.712 578.721, 456.713 578.669, 452.135 578.440, 442.137 578.336, 437.582 577.991, 427.588 577.835, 423.072 577.372, 413.083 577.270, 410.884 " fill="none" stroke="rgb(0, 0, 0)" stroke-linecap="butt" stroke-linejoin="round" stroke-opacity="1.0" stroke-width="3.0" />
            <path d=" M 583.122, 266.162 579.750, 262.616 573.323, 254.954 572.792, 254.321 566.828, 246.294 566.214, 245.468 560.708, 237.120 560.041, 236.110 554.989, 227.480 554.296, 226.298 549.693, 217.420 548.998, 216.079 548.240, 214.422 544.161, 205.501 541.724, 199.415 541.405, 198.620 539.797, 194.605 " fill="none" stroke="rgb(0, 0, 0)" stroke-linecap="butt" stroke-linejoin="round" stroke-opacity="1.0" stroke-width="3.0" />
            <path d=" M 539.797, 194.605 537.384, 188.619 536.093, 185.417 532.233, 176.815 528.736, 169.859 528.221, 168.835 524.700, 162.641 524.061, 161.517 519.759, 154.900 517.522, 151.940 515.321, 149.028 513.262, 146.733 510.755, 143.939 506.069, 139.675 501.272, 136.277 499.225, 135.238 496.374, 133.789 496.181, 133.729 491.386, 132.246 486.322, 131.689 481.194, 132.156 476.019, 133.683 470.813, 136.299 469.928, 136.932 469.271, 137.402 465.592, 140.034 463.978, 141.545 460.377, 144.916 455.186, 150.963 453.008, 154.022 451.079, 156.733 451.077, 156.735 451.069, 156.747 450.041, 158.191 446.697, 163.736 444.964, 166.609 440.361, 175.487 439.979, 176.224 435.870, 185.341 435.109, 187.029 431.437, 196.331 430.378, 199.013 427.096, 208.459 425.811, 212.158 422.880, 221.719 421.433, 226.437 418.820, 236.090 417.270, 241.813 414.945, 251.539 413.344, 258.239 411.287, 268.025 409.681, 275.664 407.872, 285.499 406.304, 294.024 404.726, 303.899 403.233, 313.245 401.873, 323.153 400.489, 333.247 399.338, 343.181 398.187, 353.115 398.091, 353.944 397.139, 363.899 396.187, 373.853 396.054, 375.240 395.294, 385.211 394.534, 395.182 394.393, 397.034 393.819, 407.018 393.246, 417.001 393.118, 419.218 393.144, 419.314 395.731, 428.974 398.317, 438.633 399.112, 441.602 399.380, 442.561 402.073, 452.192 404.766, 461.822 405.174, 463.280 407.977, 472.880 410.779, 482.479 411.306, 484.283 414.222, 493.849 417.137, 503.415 417.510, 504.640 420.541, 514.170 423.572, 523.700 423.788, 524.380 426.937, 533.871 430.142, 543.529 433.412, 552.979 436.573, 562.114 439.966, 571.521 443.083, 580.160 446.603, 589.520 449.675, 597.691 453.323, 607.002 456.351, 614.730 460.129, 623.989 463.112, 631.301 467.022, 640.505 469.961, 647.423 474.004, 656.569 476.899, 663.118 481.077, 672.204 483.929, 678.407 484.756, 680.137 " fill="none" stroke="rgb(0, 0, 0)" stroke-linecap="butt" stroke-linejoin="round" stroke-opacity="1.0" stroke-width="3.0" />
            <path d=" M 480.812, 627.958 481.706, 632.354 " fill="none" stroke="rgb(0, 0, 0)" stroke-linecap="butt" stroke-linejoin="round" stroke-opacity="1.0" stroke-width="3.0" />
            <path d=" M 482.299, 647.034 481.522, 645.001 482.363, 648.609 " fill="none" stroke="rgb(0, 0, 0)" stroke-linecap="butt" stroke-linejoin="round" stroke-opacity="1.0" stroke-width="3.0" />
            <path d=" M 483.319, 663.530 482.604, 661.826 483.408, 664.822 " fill="none" stroke="rgb(0, 0, 0)" stroke-linecap="butt" stroke-linejoin="round" stroke-opacity="1.0" stroke-width="3.0" />
            <path d=" M 363.725, 410.541 359.086, 419.400 356.573, 424.200 " fill="none" stroke="rgb(0, 0, 0)" stroke-linecap="butt" stroke-linejoin="round" stroke-opacity="1.0" stroke-width="3.0" />
            <path d=" M 469.928, 136.932 464.087, 137.306 " fill="none" stroke="rgb(0, 0, 0)" stroke-linecap="butt" stroke-linejoin="round" stroke-opacity="1.0" stroke-width="3.0" />
            <path d=" M 538.567, 501.345 541.126, 501.445 537.980, 503.505 " fill="none" stroke="rgb(0, 0, 0)" stroke-linecap="butt" stroke-linejoin="round" stroke-opacity="1.0" stroke-width="3.0" />
            <path d=" M 791.063, 540.185 791.252, 545.083 " fill="none" stroke="rgb(0, 0, 0)" stroke-linecap="butt" stroke-linejoin="round" stroke-opacity="1.0" stroke-width="3.0" />
            <path d=" M 794.799, 522.099 794.534, 518.181 " fill="none" stroke="rgb(0, 0, 0)" stroke-linecap="butt" stroke-linejoin="round" stroke-opacity="1.0" stroke-width="3.0" />
            <path d=" M 800.269, 520.177 800.171, 518.703 " fill="none" stroke="rgb(0, 0, 0)" stroke-linecap="butt" stroke-linejoin="round" stroke-opacity="1.0" stroke-width="3.0" />
            <path d=" M 801.436, 519.376 801.399, 518.817 " fill="none" stroke="rgb(0, 0, 0)" stroke-linecap="butt" stroke-linejoin="round" stroke-opacity="1.0" stroke-width="3.0" />
        </g>
    </g>
</svg>
