<?xml version='1.0' encoding='ascii'?>
<svg xmlns="http://www.w3.org/2000/svg" height="1080" version="1.1" width="1080">
    <g id="View Layer_LineSet" inkscape:groupmode="lineset" inkscape:label="View Layer_LineSet" xmlns:inkscape="http://www.inkscape.org/namespaces/inkscape">
        <g id="strokes" inkscape:groupmode="layer" inkscape:label="strokes" xmlns:inkscape="http://www.inkscape.org/namespaces/inkscape">
            <path d=" M 357.301, 411.460 363.729, 409.517 " fill="none" stroke="rgb(0, 0, 0)" stroke-linecap="butt" stroke-linejoin="round" stroke-opacity="1.0" stroke-width="3.0" />
            <path d=" M 381.621, 409.581 391.481, 411.249 393.547, 411.598 " fill="none" stroke="rgb(0, 0, 0)" stroke-linecap="butt" stroke-linejoin="round" stroke-opacity="1.0" stroke-width="3.0" />
            <path d=" M 393.547, 411.598 389.831, 402.314 386.115, 393.030 385.575, 391.681 " fill="none" stroke="rgb(0, 0, 0)" stroke-linecap="butt" stroke-linejoin="round" stroke-opacity="1.0" stroke-width="3.0" />
            <path d=" M 465.743, 132.640 461.224, 133.377 456.656, 135.214 452.054, 138.182 447.433, 142.316 442.812, 147.641 439.096, 152.914 438.352, 153.970 438.207, 154.175 433.639, 161.935 429.128, 170.930 425.153, 180.106 424.696, 181.162 421.160, 190.516 420.364, 192.623 417.212, 202.113 416.155, 205.299 413.344, 214.896 412.092, 219.169 409.584, 228.850 408.198, 234.199 405.963, 243.946 404.496, 250.345 402.510, 260.146 401.009, 267.558 399.252, 277.402 397.758, 285.775 396.214, 295.655 394.765, 304.924 393.419, 314.833 392.048, 324.925 390.890, 334.858 389.732, 344.790 389.627, 345.690 388.648, 355.642 387.668, 365.594 387.518, 367.122 386.709, 377.089 385.901, 387.056 385.734, 389.116 385.575, 391.681 383.418, 401.445 381.621, 409.581 " fill="none" stroke="rgb(0, 0, 0)" stroke-linecap="butt" stroke-linejoin="round" stroke-opacity="1.0" stroke-width="3.0" />
            <path d=" M 526.688, 717.501 528.730, 707.712 529.120, 705.844 530.998, 696.022 531.428, 693.775 533.153, 683.925 533.602, 681.364 535.184, 671.490 535.641, 668.638 537.090, 658.743 537.546, 655.624 538.869, 645.712 539.318, 642.347 540.520, 632.419 540.954, 628.830 541.770, 621.374 542.457, 615.098 543.435, 605.145 543.826, 601.171 544.698, 591.210 545.060, 587.074 545.831, 577.103 546.162, 572.825 546.833, 562.847 547.129, 558.445 547.704, 548.462 547.964, 543.956 548.444, 533.968 548.665, 529.376 555.288, 529.337 557.136, 529.325 557.274, 529.325 559.059, 529.314 562.632, 529.292 563.474, 529.287 564.420, 529.282 566.991, 529.266 576.991, 529.206 577.659, 529.202 578.032, 519.209 578.209, 514.490 578.464, 504.494 578.587, 499.720 578.726, 489.721 578.792, 484.911 578.815, 474.911 578.826, 470.084 578.731, 460.084 578.686, 455.257 578.475, 445.259 578.373, 440.451 578.044, 430.456 577.887, 425.685 577.439, 415.704 " fill="none" stroke="rgb(0, 0, 0)" stroke-linecap="butt" stroke-linejoin="round" stroke-opacity="1.0" stroke-width="3.0" />
            <path d=" M 574.518, 420.737 574.850, 428.066 575.182, 438.061 575.320, 442.213 575.534, 452.211 575.623, 456.402 575.718, 466.401 575.758, 470.612 575.736, 480.612 575.727, 484.824 575.587, 494.823 575.529, 499.017 575.271, 509.014 575.164, 513.173 575.123, 514.260 575.023, 514.888 574.916, 515.474 574.803, 516.015 574.683, 516.507 574.558, 516.948 574.429, 517.335 574.296, 517.667 574.159, 517.942 574.021, 518.158 573.881, 518.314 573.740, 518.409 573.599, 518.442 573.459, 518.414 573.321, 518.324 569.399, 514.880 569.268, 513.544 569.107, 512.334 568.917, 511.271 568.703, 510.372 568.468, 509.653 568.215, 509.127 567.949, 508.802 567.674, 508.685 567.528, 508.683 564.977, 508.642 564.016, 508.626 563.192, 508.613 559.623, 508.555 557.839, 508.526 557.766, 508.525 557.289, 508.518 556.999, 508.611 556.710, 508.914 556.427, 509.421 556.154, 510.126 555.896, 511.015 555.860, 511.176 555.657, 512.076 555.442, 513.289 555.255, 514.635 555.098, 516.090 554.975, 517.630 554.887, 519.228 555.606, 519.813 556.531, 520.567 557.429, 520.582 557.541, 520.584 557.630, 520.586 559.325, 520.616 562.894, 520.679 563.735, 520.694 564.680, 520.711 565.101, 520.718 566.935, 520.751 566.964, 520.246 567.006, 519.768 567.060, 519.328 567.125, 518.940 567.200, 518.614 567.281, 518.358 567.293, 518.333 567.312, 518.295 567.367, 518.180 567.456, 518.084 567.544, 518.073 " fill="none" stroke="rgb(0, 0, 0)" stroke-linecap="butt" stroke-linejoin="round" stroke-opacity="1.0" stroke-width="3.0" />
            <path d=" M 567.979, 521.635 574.634, 527.272 577.659, 529.202 " fill="none" stroke="rgb(0, 0, 0)" stroke-linecap="butt" stroke-linejoin="round" stroke-opacity="1.0" stroke-width="3.0" />
            <path d=" M 391.593, 194.793 388.650, 204.350 388.091, 206.164 385.457, 215.811 384.347, 219.877 381.986, 229.595 380.733, 234.755 378.618, 244.528 377.270, 250.755 375.378, 260.575 373.979, 267.833 372.291, 277.689 370.880, 285.929 369.380, 295.816 367.991, 304.975 366.667, 314.887 365.330, 324.892 364.172, 334.825 363.014, 344.758 362.916, 345.598 361.916, 355.548 360.915, 365.497 360.764, 366.996 359.914, 376.960 359.064, 386.924 358.889, 388.986 358.184, 398.961 357.480, 408.936 357.301, 411.460 356.785, 421.446 356.269, 431.433 356.121, 434.286 355.766, 444.279 355.410, 454.273 355.301, 457.341 355.104, 467.339 354.908, 477.337 354.846, 480.504 354.808, 490.504 354.770, 500.504 354.758, 503.653 354.879, 513.652 355.001, 523.651 355.038, 526.667 355.322, 536.663 355.605, 546.659 355.684, 549.426 356.133, 559.416 356.582, 569.406 356.691, 571.814 357.311, 581.795 357.930, 591.775 358.051, 593.718 358.848, 603.686 359.645, 613.655 359.755, 615.033 360.738, 624.985 361.720, 634.937 361.791, 635.660 362.969, 645.591 364.144, 655.507 365.529, 665.411 366.799, 674.490 368.407, 684.360 369.061, 688.376 " fill="none" stroke="rgb(0, 0, 0)" stroke-linecap="butt" stroke-linejoin="round" stroke-opacity="1.0" stroke-width="3.0" />
            <path d=" M 492.361, 733.874 490.891, 738.639 487.716, 748.013 484.409, 756.867 480.975, 765.170 477.418, 772.887 473.741, 779.984 469.950, 786.423 466.051, 792.168 462.049, 797.184 457.953, 801.431 455.676, 803.306 " fill="none" stroke="rgb(0, 0, 0)" stroke-linecap="butt" stroke-linejoin="round" stroke-opacity="1.0" stroke-width="3.0" />
            <path d=" M 393.863, 406.544 393.547, 411.598 393.061, 421.586 392.576, 431.575 392.440, 434.368 392.117, 444.363 391.794, 454.358 391.696, 457.367 391.533, 467.365 391.369, 477.364 391.318, 480.474 391.314, 490.474 391.310, 500.474 391.309, 503.569 391.465, 513.567 391.620, 523.566 391.666, 526.530 391.983, 536.525 392.299, 546.520 392.385, 549.240 392.864, 559.229 393.343, 569.217 393.456, 571.583 394.103, 581.562 394.749, 591.542 394.872, 593.447 395.690, 603.414 396.508, 613.380 396.619, 614.727 397.615, 624.677 398.611, 634.627 398.680, 635.323 399.863, 645.253 401.041, 655.146 402.420, 665.050 403.682, 674.108 405.271, 683.981 406.583, 692.138 408.397, 701.973 409.724, 709.171 411.781, 718.957 413.083, 725.149 415.407, 734.875 416.638, 740.025 419.257, 749.676 420.366, 753.762 423.315, 763.318 424.246, 766.334 427.568, 775.766 428.256, 777.718 432.004, 786.989 432.374, 787.902 436.579, 796.885 440.851, 804.670 443.964, 809.420 444.271, 809.889 445.172, 811.264 449.523, 816.685 453.886, 820.953 458.247, 824.093 462.589, 826.132 466.899, 827.105 471.163, 827.047 475.372, 825.993 479.514, 823.980 483.580, 821.051 487.560, 817.246 489.559, 814.860 491.448, 812.603 495.237, 807.164 498.920, 800.971 502.493, 794.062 505.545, 787.367 " fill="none" stroke="rgb(0, 0, 0)" stroke-linecap="butt" stroke-linejoin="round" stroke-opacity="1.0" stroke-width="3.0" />
            <path d=" M 470.769, 809.018 466.745, 808.868 464.540, 808.254 462.693, 807.741 458.625, 805.605 455.676, 803.306 454.555, 802.432 450.498, 798.197 446.469, 792.882 442.483, 786.467 438.558, 778.940 434.710, 770.296 431.123, 760.962 430.959, 760.536 427.787, 751.052 427.322, 749.663 424.513, 740.065 423.818, 737.689 421.331, 728.003 420.467, 724.638 418.267, 714.883 417.287, 710.538 415.347, 700.728 414.298, 695.422 412.594, 685.568 411.517, 679.337 410.031, 669.448 408.963, 662.336 407.679, 652.419 406.652, 644.481 405.558, 634.541 404.601, 625.839 403.686, 615.881 402.823, 606.489 402.079, 596.516 401.332, 586.515 400.752, 576.532 400.171, 566.549 400.140, 566.008 399.718, 556.017 399.296, 546.026 399.255, 545.064 398.988, 535.068 398.720, 525.071 398.685, 523.786 398.569, 513.786 398.453, 503.787 398.435, 502.279 398.469, 492.279 398.503, 482.279 398.508, 480.650 398.692, 470.652 398.875, 460.654 398.905, 459.011 399.238, 449.017 399.571, 439.022 399.623, 437.471 399.945, 430.832 " fill="none" stroke="rgb(0, 0, 0)" stroke-linecap="butt" stroke-linejoin="round" stroke-opacity="1.0" stroke-width="3.0" />
            <path d=" M 502.231, 776.039 500.759, 779.141 497.301, 785.556 493.747, 791.278 490.102, 796.273 486.372, 800.502 482.565, 803.926 478.690, 806.511 474.755, 808.220 470.769, 809.018 " fill="none" stroke="rgb(0, 0, 0)" stroke-linecap="butt" stroke-linejoin="round" stroke-opacity="1.0" stroke-width="3.0" />
            <path d=" M 546.153, 527.470 545.667, 537.458 545.473, 541.438 544.886, 551.421 544.658, 555.316 543.968, 565.292 543.706, 569.084 542.912, 579.052 542.619, 582.721 541.717, 592.680 541.397, 596.207 540.384, 606.156 540.041, 609.522 538.912, 619.458 538.550, 622.644 537.301, 632.565 536.926, 635.549 535.552, 645.454 535.168, 648.216 534.152, 654.886 533.279, 660.620 531.633, 670.484 531.257, 672.738 529.464, 682.576 529.105, 684.543 527.153, 694.351 526.823, 696.010 524.719, 705.701 " fill="none" stroke="rgb(0, 0, 0)" stroke-linecap="butt" stroke-linejoin="round" stroke-opacity="1.0" stroke-width="3.0" />
            <path d=" M 548.665, 529.376 546.153, 527.470 555.363, 527.406 557.211, 527.393 562.691, 527.355 564.479, 527.343 564.844, 527.340 564.488, 527.050 563.565, 526.298 562.744, 525.629 559.258, 522.788 557.616, 521.450 557.630, 520.936 557.630, 520.586 " fill="none" stroke="rgb(0, 0, 0)" stroke-linecap="butt" stroke-linejoin="round" stroke-opacity="1.0" stroke-width="3.0" />
            <path d=" M 381.621, 409.581 381.124, 419.569 380.627, 429.557 380.442, 433.284 380.104, 443.278 379.767, 453.272 379.633, 457.227 379.453, 467.225 379.272, 477.224 379.199, 481.283 379.175, 491.283 379.152, 501.283 379.142, 505.325 379.277, 515.324 379.411, 525.323 379.463, 529.223 379.756, 539.218 380.049, 549.214 380.156, 552.851 380.611, 562.841 381.066, 572.830 381.215, 576.088 381.837, 586.069 382.459, 596.049 382.631, 598.814 383.426, 608.783 384.220, 618.751 384.393, 620.919 385.367, 630.872 386.341, 640.824 386.486, 642.299 387.649, 652.231 388.811, 662.163 388.893, 662.856 390.256, 672.763 391.597, 682.504 393.175, 692.379 394.579, 701.165 396.387, 711.000 397.816, 718.773 399.876, 728.558 401.288, 735.268 403.625, 744.991 404.973, 750.602 407.616, 760.247 408.847, 764.740 411.833, 774.284 412.887, 777.654 416.263, 787.068 417.072, 789.324 420.892, 798.565 421.378, 799.739 425.711, 808.751 425.783, 808.899 430.267, 816.811 434.809, 823.483 439.390, 828.935 443.991, 833.193 448.596, 836.283 453.188, 838.235 457.752, 839.088 462.275, 838.878 466.744, 837.644 471.147, 835.426 475.474, 832.269 479.715, 828.215 483.862, 823.305 " fill="none" stroke="rgb(0, 0, 0)" stroke-linecap="butt" stroke-linejoin="round" stroke-opacity="1.0" stroke-width="3.0" />
            <path d=" M 483.862, 823.305 489.645, 815.147 491.448, 812.603 " fill="none" stroke="rgb(0, 0, 0)" stroke-linecap="butt" stroke-linejoin="round" stroke-opacity="1.0" stroke-width="3.0" />
            <path d=" M 538.946, 552.464 528.958, 552.961 528.108, 553.003 " fill="none" stroke="rgb(0, 0, 0)" stroke-linecap="butt" stroke-linejoin="round" stroke-opacity="1.0" stroke-width="3.0" />
            <path d=" M 541.171, 502.308 540.886, 512.304 540.601, 522.299 540.453, 527.510 539.916, 537.495 539.701, 541.487 539.015, 551.463 538.946, 552.464 534.852, 543.340 531.530, 535.936 " fill="none" stroke="rgb(0, 0, 0)" stroke-linecap="butt" stroke-linejoin="round" stroke-opacity="1.0" stroke-width="3.0" />
            <path d=" M 365.522, 383.464 365.189, 387.575 364.525, 397.553 364.502, 397.900 363.838, 407.878 363.729, 409.517 363.208, 419.504 362.686, 429.490 362.568, 431.757 362.186, 441.750 361.804, 451.743 361.710, 454.208 361.466, 464.205 361.222, 474.202 361.160, 476.779 361.122, 480.317 " fill="none" stroke="rgb(0, 0, 0)" stroke-linecap="butt" stroke-linejoin="round" stroke-opacity="1.0" stroke-width="3.0" />
            <path d=" M 532.841, 745.638 533.674, 741.758 535.636, 731.952 535.924, 730.512 537.755, 720.681 538.066, 719.009 539.773, 709.156 540.101, 707.267 541.691, 697.395 542.027, 695.303 543.505, 685.413 543.846, 683.133 545.217, 673.227 545.557, 670.772 546.825, 660.853 547.160, 658.236 548.329, 648.305 548.655, 645.540 549.728, 635.597 550.042, 632.696 551.023, 622.744 551.321, 619.718 552.212, 609.758 552.492, 606.621 553.295, 596.653 553.556, 593.415 554.273, 583.441 554.512, 580.114 555.144, 570.134 555.360, 566.730 555.909, 556.745 556.100, 553.274 556.568, 543.285 556.733, 539.757 557.119, 529.765 557.136, 529.325 " fill="none" stroke="rgb(0, 0, 0)" stroke-linecap="butt" stroke-linejoin="round" stroke-opacity="1.0" stroke-width="3.0" />
            <path d=" M 461.500, 878.761 463.903, 878.915 467.997, 878.520 472.045, 877.328 476.041, 875.368 479.977, 872.671 483.847, 869.266 487.645, 865.183 491.367, 860.453 495.009, 855.106 498.565, 849.170 502.033, 842.674 505.409, 835.646 508.691, 828.114 511.876, 820.104 514.404, 813.171 " fill="none" stroke="rgb(0, 0, 0)" stroke-linecap="butt" stroke-linejoin="round" stroke-opacity="1.0" stroke-width="3.0" />
            <path d=" M 517.064, 147.147 514.891, 141.648 511.664, 134.272 508.327, 127.436 504.883, 121.169 501.335, 115.501 497.686, 110.464 493.941, 106.090 490.104, 102.410 486.180, 99.456 482.175, 97.259 478.095, 95.853 473.947, 95.267 471.813, 95.402 469.740, 95.532 465.482, 96.677 461.181, 98.730 456.849, 101.717 452.497, 105.662 448.135, 110.585 443.776, 116.506 439.434, 123.440 435.122, 131.398 433.494, 134.827 430.855, 140.387 427.188, 149.124 426.648, 150.411 423.148, 159.778 422.517, 161.467 419.345, 170.951 418.477, 173.548 415.601, 183.125 414.545, 186.641 411.936, 196.294 410.738, 200.727 408.372, 210.443 407.073, 215.780 404.930, 225.548 403.565, 231.771 401.629, 241.582 400.231, 248.661 398.487, 258.508 397.089, 266.406 395.525, 276.283 394.152, 284.955 392.758, 294.857 391.436, 304.252 390.204, 314.176 388.955, 324.235 387.877, 334.177 386.799, 344.118 386.722, 344.834 385.792, 354.791 384.863, 364.748 384.748, 365.978 383.963, 375.947 383.177, 385.916 383.045, 387.588 382.399, 397.567 381.753, 407.546 381.621, 409.581 381.112, 419.568 380.602, 429.555 380.484, 431.874 380.109, 441.867 379.734, 451.860 379.639, 454.377 379.397, 464.374 379.155, 474.371 379.092, 477.002 378.982, 487.001 378.872, 497.001 378.843, 499.657 378.866, 509.657 378.889, 519.657 378.894, 522.253 379.050, 532.251 379.206, 542.250 379.244, 544.698 379.535, 554.694 379.825, 564.690 379.889, 566.905 380.317, 576.896 380.744, 586.887 380.826, 588.787 381.393, 598.771 381.961, 608.755 382.046, 610.262 382.758, 620.237 383.469, 630.211 383.543, 631.250 384.404, 641.213 385.265, 651.176 385.308, 651.676 386.324, 661.624 387.329, 671.470 388.507, 681.401 389.595, 690.569 390.944, 700.477 392.092, 708.912 393.623, 718.794 394.808, 726.448 396.532, 736.298 397.727, 743.130 399.659, 752.942 400.835, 758.917 402.992, 768.682 404.117, 773.776 406.518, 783.483 407.556, 787.678 410.226, 797.315 411.137, 800.603 414.104, 810.153 414.844, 812.533 418.142, 821.974 418.221, 822.199 418.285, 822.384 418.661, 823.460 422.331, 832.762 422.574, 833.376 426.567, 842.283 430.625, 850.185 434.735, 857.090 438.884, 863.010 443.057, 867.961 447.244, 871.962 451.433, 875.033 455.612, 877.199 459.772, 878.484 461.981, 878.715 463.903, 878.915 " fill="none" stroke="rgb(0, 0, 0)" stroke-linecap="butt" stroke-linejoin="round" stroke-opacity="1.0" stroke-width="3.0" />
            <path d=" M 471.501, 95.358 467.267, 95.624 462.982, 96.770 458.654, 98.823 454.295, 101.810 449.915, 105.754 445.526, 110.677 441.141, 116.597 436.772, 123.529 432.434, 131.485 430.660, 135.200 428.141, 140.472 424.250, 149.685 423.909, 150.493 421.171, 157.774 419.753, 161.546 416.564, 171.024 415.689, 173.624 412.797, 183.196 411.734, 186.712 409.110, 196.362 407.905, 200.794 405.526, 210.506 404.218, 215.842 402.063, 225.608 400.691, 231.828 398.743, 241.636 397.339, 248.711 395.585, 258.556 394.178, 266.450 392.606, 276.325 391.226, 284.992 389.824, 294.893 388.495, 304.282 387.257, 314.205 386.002, 324.257 384.918, 334.198 383.835, 344.139 383.757, 344.849 382.823, 354.805 381.889, 364.762 381.774, 365.984 380.985, 375.953 380.195, 385.922 380.063, 387.586 379.414, 397.564 378.765, 407.543 378.633, 409.571 378.122, 419.557 377.610, 429.544 377.492, 431.854 377.116, 441.847 376.740, 451.840 376.645, 454.349 376.403, 464.346 376.161, 474.343 376.097, 476.965 375.988, 486.964 375.879, 496.963 375.850, 499.611 375.874, 509.611 375.898, 519.611 375.905, 522.198 376.063, 532.197 376.221, 542.195 376.260, 544.635 376.553, 554.630 376.847, 564.626 376.912, 566.833 377.344, 576.824 377.775, 586.814 377.857, 588.707 378.429, 598.691 379.002, 608.674 379.088, 610.174 379.806, 620.148 380.523, 630.122 380.597, 631.154 381.465, 641.116 382.333, 651.078 382.376, 651.573 383.399, 661.520 384.412, 671.360 385.599, 681.289 386.694, 690.452 388.054, 700.359 389.210, 708.789 390.752, 718.670 391.945, 726.319 393.682, 736.168 394.885, 742.996 396.831, 752.805 398.015, 758.779 400.186, 768.540 401.319, 773.633 403.737, 783.336 404.782, 787.532 407.469, 797.164 408.387, 800.453 411.373, 809.997 412.119, 812.381 412.538, 813.574 413.315, 815.781 415.962, 823.304 419.654, 832.598 419.901, 833.219 423.920, 842.125 428.005, 850.025 432.143, 856.930 436.318, 862.850 440.519, 867.801 444.733, 871.802 448.949, 874.875 453.155, 877.042 457.342, 878.328 461.500, 878.761 " fill="none" stroke="rgb(0, 0, 0)" stroke-linecap="butt" stroke-linejoin="round" stroke-opacity="1.0" stroke-width="3.0" />
            <path d=" M 473.947, 95.267 471.501, 95.358 " fill="none" stroke="rgb(0, 0, 0)" stroke-linecap="butt" stroke-linejoin="round" stroke-opacity="1.0" stroke-width="3.0" />
            <path d=" M 538.870, 766.056 539.789, 761.637 541.466, 752.989 542.136, 749.534 543.914, 739.693 544.369, 737.176 546.028, 727.315 546.488, 724.582 548.035, 714.702 548.494, 711.768 549.933, 701.872 550.387, 698.752 551.722, 688.841 552.166, 685.549 553.403, 675.625 553.833, 672.174 554.974, 662.239 555.387, 658.642 556.436, 648.697 556.829, 644.967 557.788, 635.013 558.159, 631.161 559.030, 621.200 559.376, 617.239 560.162, 607.270 560.482, 603.213 561.185, 593.237 561.477, 589.093 562.097, 579.113 562.360, 574.893 562.900, 564.908 563.131, 560.624 563.591, 550.635 563.791, 546.297 564.173, 536.304 564.340, 531.922 564.420, 529.282 " fill="none" stroke="rgb(0, 0, 0)" stroke-linecap="butt" stroke-linejoin="round" stroke-opacity="1.0" stroke-width="3.0" />
            <path d=" M 459.161, 914.453 461.558, 914.618 465.995, 914.637 470.385, 913.771 474.717, 912.055 478.986, 909.522 483.184, 906.208 487.305, 902.148 491.343, 897.375 495.294, 891.926 499.153, 885.831 502.917, 879.126 506.581, 871.841 510.144, 864.008 513.602, 855.656 516.955, 846.816 520.199, 837.514 522.137, 831.493 " fill="none" stroke="rgb(0, 0, 0)" stroke-linecap="butt" stroke-linejoin="round" stroke-opacity="1.0" stroke-width="3.0" />
            <path d=" M 541.524, 195.433 540.661, 191.272 538.467, 181.516 538.141, 180.066 538.006, 179.513 535.636, 169.797 535.494, 169.217 532.933, 159.551 532.721, 158.750 529.951, 149.142 529.821, 148.692 526.796, 139.071 523.646, 129.915 520.371, 121.255 516.974, 113.122 513.456, 105.547 509.819, 98.565 506.067, 92.209 502.201, 86.514 498.226, 81.516 494.146, 77.251 489.966, 73.756 485.692, 71.067 481.330, 69.221 476.888, 68.255 472.373, 68.204 471.766, 68.323 467.795, 69.103 463.162, 70.986 458.487, 73.885 453.780, 77.829 449.054, 82.846 444.322, 88.960 439.600, 96.190 434.901, 104.555 430.502, 113.536 430.243, 114.065 430.206, 114.151 426.244, 123.333 425.642, 124.728 425.578, 124.896 422.001, 134.234 421.116, 136.545 419.603, 140.971 416.682, 149.511 413.752, 159.072 412.360, 163.615 409.706, 173.256 408.169, 178.838 405.764, 188.545 405.001, 191.625 404.127, 195.156 401.952, 204.917 400.254, 212.535 398.290, 222.340 396.568, 230.935 394.800, 240.778 393.089, 250.308 391.505, 260.182 389.921, 270.056 389.834, 270.598 388.424, 280.498 387.013, 290.398 386.822, 291.741 385.575, 301.663 384.329, 311.585 384.067, 313.668 382.978, 323.608 381.888, 333.549 381.587, 336.300 380.648, 346.256 379.709, 356.211 379.394, 359.554 378.600, 369.522 377.807, 379.491 377.501, 383.341 376.849, 393.319 376.197, 403.298 375.918, 407.566 375.405, 417.552 374.891, 427.539 374.655, 432.130 374.278, 442.123 373.901, 452.116 373.719, 456.934 373.476, 466.931 373.234, 476.928 373.114, 481.872 373.005, 491.871 372.897, 501.870 372.843, 506.839 372.869, 516.839 372.894, 526.839 372.907, 531.731 373.068, 541.730 373.228, 551.728 373.304, 556.443 373.601, 566.439 373.899, 576.434 374.031, 580.874 374.467, 590.864 374.904, 600.855 375.082, 604.924 375.661, 614.907 376.239, 624.890 376.449, 628.497 377.174, 638.471 377.900, 648.444 378.123, 651.504 379.000, 661.465 379.878, 671.427 380.092, 673.859 381.129, 683.805 382.165, 693.751 382.345, 695.483 383.548, 705.410 384.750, 715.337 384.867, 716.303 386.246, 726.208 387.643, 736.255 389.208, 746.132 390.657, 755.280 392.422, 765.123 392.496, 765.538 393.892, 773.328 395.872, 783.130 397.167, 789.543 397.331, 790.355 399.543, 800.107 400.955, 806.327 403.422, 816.018 404.746, 821.215 405.098, 822.446 407.847, 832.061 408.687, 834.999 410.739, 841.379 412.759, 847.663 416.170, 857.064 416.946, 859.201 420.750, 868.449 421.228, 869.611 425.480, 878.662 425.590, 878.896 430.016, 887.066 434.489, 894.134 438.996, 900.118 443.521, 905.038 448.051, 908.921 452.576, 911.792 457.081, 913.680 460.806, 914.461 461.558, 914.618 " fill="none" stroke="rgb(0, 0, 0)" stroke-linecap="butt" stroke-linejoin="round" stroke-opacity="1.0" stroke-width="3.0" />
            <path d=" M 367.535, 358.790 367.458, 359.590 366.649, 369.557 365.840, 379.524 365.531, 383.339 365.522, 383.464 364.859, 393.442 364.571, 397.770 363.922, 407.526 363.844, 409.015 363.323, 419.002 362.801, 428.988 362.641, 432.052 362.259, 442.045 361.877, 452.038 361.864, 452.381 361.695, 456.816 361.451, 466.813 361.208, 476.810 361.122, 480.317 361.088, 481.715 360.982, 491.714 360.876, 501.714 360.824, 506.643 360.855, 516.643 360.887, 526.643 360.898, 530.010 360.902, 531.496 360.921, 532.573 " fill="none" stroke="rgb(0, 0, 0)" stroke-linecap="butt" stroke-linejoin="round" stroke-opacity="1.0" stroke-width="3.0" />
            <path d=" M 469.931, 68.303 465.323, 69.203 460.662, 71.087 455.957, 73.986 451.221, 77.930 446.465, 82.947 441.705, 89.059 436.953, 96.289 432.227, 104.652 427.806, 113.621 427.540, 114.160 423.558, 123.332 422.912, 124.820 422.689, 125.399 419.093, 134.730 418.359, 136.633 415.439, 145.119 415.329, 145.439 413.899, 149.596 410.953, 159.152 409.552, 163.695 406.883, 173.332 405.336, 178.914 402.918, 188.617 401.271, 195.226 399.084, 204.984 397.376, 212.599 396.322, 217.830 394.347, 227.633 393.670, 230.992 391.893, 240.833 390.172, 250.358 388.579, 260.231 386.987, 270.103 386.900, 270.641 385.481, 280.540 384.063, 290.438 383.871, 291.776 382.618, 301.697 381.365, 311.618 381.103, 313.694 380.008, 323.634 378.912, 333.574 378.610, 336.318 377.666, 346.273 376.722, 356.228 376.406, 359.563 375.609, 369.531 374.812, 379.499 374.505, 383.340 373.850, 393.319 373.195, 403.297 372.916, 407.556 372.400, 417.542 371.885, 427.529 371.648, 432.111 371.270, 442.104 370.891, 452.097 370.709, 456.904 370.466, 466.901 370.224, 476.898 370.104, 481.832 369.996, 491.832 369.888, 501.831 369.835, 506.790 369.862, 516.790 369.889, 526.790 369.902, 531.672 370.065, 541.671 370.228, 551.669 370.305, 556.375 370.606, 566.370 370.906, 576.366 371.040, 580.796 371.480, 590.786 371.921, 600.777 372.100, 604.837 372.684, 614.820 373.268, 624.803 373.479, 628.401 374.211, 638.375 374.942, 648.348 375.166, 651.400 376.051, 661.361 376.936, 671.321 377.151, 673.746 378.196, 683.692 379.240, 693.637 379.421, 695.363 380.633, 705.289 381.844, 715.215 381.962, 716.176 383.350, 726.079 384.758, 736.121 385.045, 737.923 386.621, 747.798 387.793, 755.140 389.570, 764.981 391.050, 773.182 391.878, 777.252 393.871, 787.051 394.201, 788.673 394.512, 790.205 396.740, 799.954 398.161, 806.172 400.645, 815.859 401.978, 821.057 402.053, 821.318 404.820, 830.928 405.946, 834.837 409.026, 844.351 410.045, 847.499 413.477, 856.891 414.259, 859.034 418.086, 868.273 418.570, 869.442 422.846, 878.482 422.961, 878.726 427.416, 886.895 431.918, 893.963 436.454, 899.947 441.008, 904.868 445.568, 908.751 450.121, 911.623 454.656, 913.513 459.161, 914.453 " fill="none" stroke="rgb(0, 0, 0)" stroke-linecap="butt" stroke-linejoin="round" stroke-opacity="1.0" stroke-width="3.0" />
            <path d=" M 472.373, 68.204 469.931, 68.303 " fill="none" stroke="rgb(0, 0, 0)" stroke-linecap="butt" stroke-linejoin="round" stroke-opacity="1.0" stroke-width="3.0" />
            <path d=" M 548.482, 212.984 547.421, 206.896 545.566, 197.069 545.095, 194.577 543.091, 184.780 542.638, 182.567 540.474, 172.804 540.049, 170.889 537.713, 161.166 537.329, 159.570 534.806, 149.893 534.477, 148.634 531.749, 139.013 531.493, 138.110 528.540, 128.556 528.377, 128.027 525.176, 118.553 525.129, 118.414 521.751, 109.303 518.243, 100.727 514.608, 92.719 510.846, 85.315 506.960, 78.550 502.954, 72.462 498.831, 67.088 494.595, 62.468 490.251, 58.640 485.805, 55.644 481.262, 53.521 476.631, 52.309 471.920, 52.048 467.060, 52.256 462.217, 52.986 457.312, 54.742 452.356, 57.559 447.362, 61.470 442.343, 66.507 437.313, 72.696 432.288, 80.062 427.283, 88.625 422.753, 97.540 422.317, 98.398 418.239, 107.529 417.407, 109.393 413.728, 118.691 412.573, 121.612 409.247, 131.043 407.833, 135.052 404.824, 144.588 403.210, 149.704 400.484, 159.325 398.722, 165.550 396.255, 175.241 394.391, 182.564 392.161, 192.312 391.593, 194.793 390.238, 200.714 388.226, 210.509 386.285, 219.957 384.475, 229.792 382.664, 239.627 382.551, 240.243 380.930, 250.111 379.309, 259.979 379.057, 261.514 377.614, 271.409 376.171, 281.304 375.821, 283.701 374.547, 293.620 373.273, 303.538 372.863, 306.730 371.750, 316.668 370.637, 326.606 370.199, 330.519 369.241, 340.473 368.326, 349.971 367.845, 354.976 367.535, 358.790 367.004, 365.339 366.195, 375.306 365.813, 380.007 365.150, 389.985 364.641, 397.639 364.117, 405.509 363.961, 408.507 363.439, 418.493 362.918, 428.479 362.766, 431.375 362.385, 441.368 362.003, 451.361 361.768, 457.498 361.525, 467.495 361.482, 469.243 361.238, 479.240 361.128, 483.763 361.022, 493.762 360.930, 502.485 360.849, 510.057 360.881, 520.057 360.913, 530.057 360.914, 530.532 360.921, 532.573 360.932, 536.267 361.103, 546.265 361.273, 556.264 361.375, 562.280 361.686, 572.275 361.997, 582.270 362.174, 587.985 362.628, 597.975 363.082, 607.965 363.323, 613.276 363.923, 623.258 364.523, 633.240 364.812, 638.050 365.563, 648.022 366.314, 657.994 366.631, 662.210 367.539, 672.169 368.447, 682.127 368.769, 685.664 369.061, 688.376 370.132, 698.318 371.210, 708.327 372.452, 718.250 373.694, 728.173 373.939, 730.124 375.362, 740.022 376.786, 749.920 376.939, 750.985 378.555, 760.853 380.192, 770.848 382.015, 780.681 383.680, 789.662 385.725, 799.450 387.382, 807.381 389.670, 817.116 391.281, 823.970 393.833, 833.639 395.354, 839.402 398.199, 848.988 399.584, 853.654 402.754, 863.138 403.949, 866.716 407.483, 876.070 408.432, 878.580 412.377, 887.769 413.012, 889.248 417.424, 898.222 417.671, 898.725 422.393, 907.025 427.161, 914.163 431.957, 920.161 436.769, 925.043 441.581, 928.838 446.380, 931.576 451.154, 933.290 455.892, 934.014 460.658, 934.355 465.291, 934.121 469.869, 932.970 474.384, 930.939 478.828, 928.066 483.193, 924.388 487.475, 919.944 491.666, 914.770 495.763, 908.903 499.762, 902.378 503.658, 895.230 507.448, 887.493 511.131, 879.201 514.703, 870.383 518.162, 861.072 521.400, 851.611 521.508, 851.296 524.523, 841.762 524.738, 841.084 525.444, 838.677 " fill="none" stroke="rgb(0, 0, 0)" stroke-linecap="butt" stroke-linejoin="round" stroke-opacity="1.0" stroke-width="3.0" />
            <path d=" M 541.378, 773.458 541.664, 772.066 543.545, 762.245 544.073, 759.488 545.831, 749.643 546.364, 746.656 548.005, 736.792 548.538, 733.590 550.068, 723.708 550.595, 720.307 552.019, 710.409 552.535, 706.824 553.858, 696.912 554.359, 693.157 555.584, 683.232 556.067, 679.321 557.197, 669.385 557.659, 665.330 558.698, 655.384 559.135, 651.198 560.086, 641.243 560.497, 636.938 561.361, 626.976 561.744, 622.564 562.524, 612.594 562.877, 608.087 563.574, 598.111 563.895, 593.520 564.512, 583.539 564.800, 578.873 565.336, 568.887 565.590, 564.159 566.048, 554.169 566.267, 549.387 566.647, 539.395 566.830, 534.570 566.991, 529.266 " fill="none" stroke="rgb(0, 0, 0)" stroke-linecap="butt" stroke-linejoin="round" stroke-opacity="1.0" stroke-width="3.0" />
            <path d=" M 471.920, 52.048 467.137, 52.776 462.292, 54.531 457.397, 57.347 452.464, 61.258 447.506, 66.295 442.537, 72.486 437.571, 79.854 432.626, 88.420 428.141, 97.358 427.719, 98.198 426.483, 101.000 422.866, 109.199 419.226, 118.512 418.088, 121.424 414.798, 130.868 413.403, 134.872 412.360, 138.221 409.383, 147.767 408.832, 149.533 406.138, 159.163 405.998, 159.662 404.395, 165.389 403.417, 169.281 400.977, 178.979 400.113, 182.415 397.908, 192.169 396.007, 200.577 394.017, 210.377 393.000, 215.383 392.096, 219.834 390.306, 229.672 388.516, 239.511 388.403, 240.135 386.799, 250.005 385.196, 259.876 384.945, 261.421 383.518, 271.318 383.426, 271.955 381.999, 281.853 381.744, 283.625 380.483, 293.545 379.223, 303.465 378.815, 306.671 377.714, 316.611 376.613, 326.550 376.177, 330.478 375.229, 340.433 374.280, 350.388 373.845, 354.955 373.044, 364.922 372.243, 374.890 371.832, 380.005 371.174, 389.983 370.517, 399.962 370.150, 405.527 369.632, 415.514 369.115, 425.500 368.809, 431.414 368.429, 441.407 368.050, 451.400 367.816, 457.557 367.573, 467.554 367.330, 477.551 367.177, 483.843 367.069, 493.843 366.962, 503.842 366.894, 510.158 366.923, 520.158 366.952, 530.158 366.969, 536.389 367.135, 546.387 367.300, 556.386 367.400, 562.422 367.704, 572.417 368.008, 582.413 368.183, 588.147 368.628, 598.138 369.073, 608.128 369.311, 613.458 369.900, 623.441 370.490, 633.423 370.775, 638.251 371.514, 648.223 372.253, 658.196 372.566, 662.428 373.460, 672.388 374.353, 682.348 374.460, 683.540 374.672, 685.899 375.037, 689.342 376.091, 699.287 377.077, 708.578 378.301, 718.503 379.525, 728.428 379.767, 730.390 381.170, 740.291 382.332, 748.492 382.725, 751.264 383.392, 755.395 384.985, 765.267 385.933, 771.140 387.731, 780.977 389.374, 789.965 391.392, 799.759 392.912, 807.141 393.027, 807.695 395.284, 817.437 396.873, 824.293 399.392, 833.971 400.893, 839.732 403.702, 849.330 405.066, 853.992 407.816, 862.330 409.375, 867.059 412.868, 876.429 413.799, 878.927 417.700, 888.135 418.320, 889.598 422.685, 898.595 422.920, 899.078 427.581, 907.379 432.288, 914.518 437.024, 920.515 441.774, 925.396 446.525, 929.189 451.264, 931.924 455.979, 933.635 460.658, 934.355 " fill="none" stroke="rgb(0, 0, 0)" stroke-linecap="butt" stroke-linejoin="round" stroke-opacity="1.0" stroke-width="3.0" />
            <path d=" M 565.353, 519.411 565.412, 518.300 565.427, 518.036 565.439, 517.811 565.559, 516.269 565.711, 514.812 565.892, 513.464 566.100, 512.249 566.331, 511.187 566.580, 510.296 566.843, 509.591 567.117, 509.082 567.395, 508.779 567.527, 508.735 567.674, 508.685 " fill="none" stroke="rgb(0, 0, 0)" stroke-linecap="butt" stroke-linejoin="round" stroke-opacity="1.0" stroke-width="3.0" />
            <path d=" M 554.887, 519.228 555.623, 519.241 557.469, 519.273 557.563, 519.275 562.934, 519.369 564.720, 519.400 565.152, 519.408 565.353, 519.411 566.935, 520.751 " fill="none" stroke="rgb(0, 0, 0)" stroke-linecap="butt" stroke-linejoin="round" stroke-opacity="1.0" stroke-width="3.0" />
            <path d=" M 557.616, 521.450 562.868, 521.544 564.654, 521.575 565.067, 521.583 567.222, 521.621 567.979, 521.635 567.993, 521.120 567.993, 520.608 567.978, 520.111 567.949, 519.644 567.907, 519.219 567.852, 518.847 567.786, 518.539 567.724, 518.340 567.712, 518.304 567.631, 518.147 567.544, 518.073 " fill="none" stroke="rgb(0, 0, 0)" stroke-linecap="butt" stroke-linejoin="round" stroke-opacity="1.0" stroke-width="3.0" />
            <path d=" M 625.533, 920.681 627.701, 921.208 635.561, 922.514 643.421, 923.080 651.265, 922.923 659.075, 922.062 666.836, 920.515 674.534, 918.304 682.153, 915.449 689.682, 911.972 697.107, 907.895 704.418, 903.240 711.605, 898.028 718.656, 892.283 725.563, 886.026 732.318, 879.280 738.914, 872.066 745.341, 864.407 751.460, 856.497 751.596, 856.322 757.415, 848.190 757.670, 847.834 763.201, 839.503 763.559, 838.963 768.811, 830.453 769.258, 829.729 774.241, 821.059 774.763, 820.152 779.486, 811.338 780.068, 810.252 784.540, 801.307 785.170, 800.047 789.399, 790.985 790.066, 789.555 794.060, 780.387 794.753, 778.796 798.518, 769.532 799.227, 767.786 802.770, 758.435 803.487, 756.543 806.813, 747.113 807.529, 745.084 810.644, 735.582 811.351, 733.425 814.260, 723.857 814.952, 721.582 817.659, 711.955 818.330, 709.570 820.839, 699.890 821.482, 697.407 823.796, 687.678 824.408, 685.105 826.530, 675.333 827.106, 672.681 829.038, 662.869 829.574, 660.149 831.319, 650.302 831.811, 647.523 833.370, 637.645 833.817, 634.817 835.191, 624.912 835.588, 622.046 836.779, 612.117 837.126, 609.223 838.133, 599.274 838.428, 596.363 839.252, 586.397 839.493, 583.478 840.134, 573.499 840.321, 570.584 840.778, 560.594 840.910, 557.692 841.182, 547.696 841.260, 544.818 841.345, 534.819 841.369, 531.975 841.266, 521.976 841.237, 519.177 840.943, 509.181 840.862, 506.438 840.375, 496.450 840.244, 493.772 839.560, 483.796 839.382, 481.194 838.499, 471.233 838.275, 468.719 837.188, 458.778 836.923, 456.360 835.627, 446.444 835.325, 444.134 833.815, 434.249 833.480, 432.056 831.750, 422.206 831.387, 420.141 829.432, 410.334 829.047, 408.406 826.859, 398.649 826.460, 396.868 824.031, 387.168 823.624, 385.543 820.946, 375.908 820.541, 374.449 817.605, 364.890 817.210, 363.604 814.005, 354.131 813.631, 353.025 810.148, 343.651 809.807, 342.732 806.034, 333.471 805.737, 332.744 801.661, 323.612 801.423, 323.080 797.031, 314.096 796.867, 313.760 792.145, 304.945 792.070, 304.806 787.036, 296.238 781.766, 288.078 776.265, 280.346 770.536, 273.067 764.584, 266.261 758.414, 259.952 752.031, 254.162 745.443, 248.915 738.656, 244.233 731.679, 240.140 724.521, 236.659 717.190, 233.810 709.699, 231.618 702.059, 230.103 694.283, 229.286 686.384, 229.187 684.176, 229.336 " fill="none" stroke="rgb(0, 0, 0)" stroke-linecap="butt" stroke-linejoin="round" stroke-opacity="1.0" stroke-width="3.0" />
            <path d=" M 627.701, 921.208 625.987, 920.757 619.859, 919.145 612.056, 916.311 604.311, 912.693 596.645, 908.280 589.079, 903.064 581.636, 897.038 574.338, 890.199 567.522, 882.882 567.209, 882.546 560.870, 874.811 560.271, 874.080 554.402, 865.983 553.550, 864.808 548.138, 856.399 548.035, 856.239 547.069, 854.737 542.100, 846.059 540.852, 843.881 539.331, 840.898 534.923, 832.254 530.790, 823.148 530.199, 821.846 529.305, 819.877 527.189, 814.629 525.994, 811.664 524.022, 806.773 520.660, 797.355 520.105, 795.799 519.095, 792.970 518.990, 792.636 515.992, 783.096 514.547, 778.499 512.250, 770.135 510.825, 764.949 510.398, 763.394 508.086, 753.665 506.667, 747.696 504.680, 737.895 503.372, 731.446 501.699, 721.587 500.529, 714.691 499.580, 707.821 498.213, 697.915 498.153, 697.480 497.082, 687.537 496.256, 679.865 495.475, 669.896 494.849, 661.903 494.351, 651.915 493.940, 643.650 493.721, 633.652 493.536, 625.166 493.591, 615.167 493.639, 606.514 493.967, 596.519 494.253, 587.755 494.849, 577.772 495.376, 568.952 496.239, 558.990 496.292, 558.382 497.004, 550.171 498.134, 540.235 499.131, 531.474 499.385, 529.675 500.783, 519.773 500.887, 519.032 501.024, 518.059 501.749, 512.924 503.415, 503.064 504.848, 494.585 506.785, 484.775 508.415, 476.517 510.626, 466.764 512.436, 458.778 514.923, 449.092 516.892, 441.425 519.662, 431.816 521.767, 424.513 523.171, 420.139 523.826, 418.099 526.883, 408.578 527.039, 408.093 530.390, 398.671 532.040, 394.030 532.687, 392.212 536.339, 382.903 537.187, 380.741 538.688, 376.916 541.185, 371.130 545.018, 362.245 549.299, 353.207 551.653, 348.236 552.015, 347.539 553.662, 344.368 558.270, 335.494 558.564, 334.927 558.567, 334.923 560.189, 332.073 562.579, 327.876 565.733, 322.335 568.563, 317.805 569.067, 316.997 573.127, 310.498 578.785, 302.253 580.720, 299.433 586.750, 291.456 588.488, 289.158 594.900, 281.485 595.978, 280.195 596.403, 279.686 603.207, 272.358 604.441, 271.029 611.643, 264.091 612.576, 263.192 620.178, 256.696 620.783, 256.179 628.785, 250.181 629.039, 249.990 637.321, 244.622 645.607, 240.071 653.875, 236.326 662.105, 233.379 670.279, 231.217 678.377, 229.825 684.475, 229.339 686.384, 229.187 " fill="none" stroke="rgb(0, 0, 0)" stroke-linecap="butt" stroke-linejoin="round" stroke-opacity="1.0" stroke-width="3.0" />
            <path d=" M 684.176, 229.336 676.159, 229.974 668.049, 231.366 659.865, 233.527 651.624, 236.473 643.346, 240.214 635.050, 244.763 626.759, 250.126 618.752, 256.116 618.493, 256.309 610.884, 262.798 610.277, 263.316 603.068, 270.247 602.133, 271.146 595.322, 278.468 594.738, 279.095 594.087, 279.795 587.667, 287.462 586.164, 289.257 580.126, 297.228 578.388, 299.522 572.723, 307.762 570.788, 310.575 568.661, 313.974 568.147, 314.795 563.388, 322.400 562.282, 324.338 559.891, 328.530 558.287, 331.343 556.215, 334.975 553.357, 340.468 551.708, 343.637 549.296, 348.273 545.009, 357.308 542.656, 362.267 540.865, 366.411 536.897, 375.590 536.321, 376.922 532.663, 386.229 530.316, 392.201 526.960, 401.621 524.664, 408.064 521.603, 417.584 521.370, 418.308 521.220, 418.774 519.389, 424.466 516.616, 434.073 514.512, 441.359 512.035, 450.991 510.054, 458.691 507.840, 468.443 506.032, 476.410 505.176, 480.739 503.237, 490.549 502.464, 494.458 500.796, 504.317 499.365, 512.776 498.839, 516.496 498.487, 518.990 497.088, 528.892 496.975, 529.689 496.747, 531.304 495.616, 541.239 494.620, 549.979 493.757, 559.942 492.994, 568.739 492.398, 578.721 491.873, 587.520 491.547, 597.515 491.262, 606.258 491.208, 616.258 491.161, 624.890 491.382, 634.887 491.468, 638.803 491.549, 642.479 491.569, 643.353 491.595, 643.872 492.094, 653.860 492.481, 661.585 493.265, 671.555 493.893, 679.528 494.967, 689.470 495.794, 697.124 497.166, 707.029 498.082, 713.638 498.176, 714.317 499.854, 724.175 501.025, 731.055 503.017, 740.854 504.326, 747.288 506.644, 757.015 508.064, 762.971 509.648, 768.724 510.989, 773.593 512.220, 778.061 515.225, 787.598 516.775, 792.518 517.986, 795.904 519.104, 799.027 521.709, 806.309 523.417, 810.537 525.129, 814.771 526.327, 817.736 527.000, 819.402 529.417, 824.715 532.626, 831.768 536.902, 840.134 538.564, 843.385 543.542, 852.058 544.790, 854.234 550.210, 862.637 551.280, 864.297 557.157, 872.388 558.011, 873.563 564.357, 881.292 564.958, 882.024 571.781, 889.335 572.097, 889.673 579.405, 896.510 586.859, 902.533 594.435, 907.749 602.112, 912.161 609.867, 915.780 617.681, 918.616 625.533, 920.681 " fill="none" stroke="rgb(0, 0, 0)" stroke-linecap="butt" stroke-linejoin="round" stroke-opacity="1.0" stroke-width="3.0" />
            <path d=" M 701.888, 327.653 693.749, 327.513 685.487, 328.188 684.108, 328.435 680.870, 329.016 677.126, 329.688 668.690, 332.016 666.624, 332.782 660.204, 335.164 651.692, 339.143 643.186, 343.972 634.888, 349.552 634.718, 349.666 626.837, 355.822 626.319, 356.226 618.864, 362.892 618.022, 363.644 610.991, 370.755 609.857, 371.901 603.238, 379.397 601.852, 380.967 595.635, 388.800 594.035, 390.815 588.220, 398.951 586.444, 401.435 581.030, 409.843 579.118, 412.811 577.708, 415.240 577.439, 415.704 574.518, 420.737 572.094, 424.914 567.621, 433.465 565.404, 437.705 565.168, 438.206 564.202, 440.256 563.436, 441.885 559.947, 449.292 559.078, 451.137 558.211, 453.184 558.194, 453.222 556.401, 457.455 553.139, 465.154 549.583, 474.500 549.018, 475.985 547.605, 479.698 547.144, 481.057 543.995, 490.335 542.507, 494.721 540.245, 502.274 540.043, 502.949 537.879, 510.173 535.355, 519.849 533.752, 525.995 533.730, 526.091 531.530, 535.936 530.147, 542.123 528.305, 551.952 528.108, 553.003 527.080, 558.487 525.573, 568.373 524.559, 575.017 523.379, 584.947 522.583, 591.641 521.729, 601.604 521.156, 608.291 520.639, 618.277 520.295, 624.899 520.123, 634.898 520.011, 641.396 520.193, 651.394 520.307, 657.710 520.823, 667.230 521.178, 673.772 522.084, 683.731 522.611, 689.519 523.884, 699.438 524.585, 704.894 524.719, 705.701 525.128, 708.153 526.639, 717.208 526.688, 717.501 527.088, 719.898 527.609, 722.434 529.623, 732.229 530.068, 734.397 531.774, 741.313 532.841, 745.638 533.507, 748.337 534.217, 750.779 535.359, 754.708 537.384, 761.668 537.671, 762.516 538.870, 766.056 538.963, 766.330 541.378, 773.458 541.679, 774.345 545.322, 783.658 546.367, 786.328 550.466, 795.450 551.424, 797.582 556.001, 806.473 556.825, 808.073 561.901, 816.689 562.542, 817.777 568.138, 826.064 568.548, 826.671 574.682, 834.569 574.814, 834.740 581.314, 841.968 588.019, 848.350 594.900, 853.880 601.930, 858.559 609.082, 862.388 609.222, 862.445 616.330, 865.375 623.647, 867.531 631.009, 868.866 638.393, 869.395 645.774, 869.138 653.132, 868.112 660.445, 866.337 667.694, 863.837 674.861, 860.635 681.927, 856.756 688.876, 852.224 695.694, 847.066 702.365, 841.310 708.877, 834.980 715.217, 828.103 721.375, 820.709 727.338, 812.823 733.016, 804.591 733.098, 804.472 738.435, 796.015 738.646, 795.682 743.657, 787.029 743.973, 786.482 748.670, 777.654 749.073, 776.897 753.466, 767.914 753.937, 766.951 758.039, 757.831 758.561, 756.671 762.382, 747.430 762.938, 746.083 766.486, 736.734 767.063, 735.211 770.346, 725.765 770.932, 724.078 773.957, 714.547 774.539, 712.711 777.313, 703.103 777.882, 701.131 780.410, 691.455 780.957, 689.362 783.243, 679.627 783.759, 677.427 785.808, 667.639 786.287, 665.350 788.102, 655.516 788.538, 653.152 790.121, 643.278 790.509, 640.855 791.862, 630.947 792.198, 628.482 793.322, 618.545 793.604, 616.055 794.499, 606.095 794.724, 603.595 795.390, 593.617 795.556, 591.124 795.992, 581.133 796.100, 578.664 796.305, 568.666 796.355, 566.236 796.326, 556.236 796.319, 553.863 796.052, 543.867 795.991, 541.567 795.940, 540.577 " fill="none" stroke="rgb(0, 0, 0)" stroke-linecap="butt" stroke-linejoin="round" stroke-opacity="1.0" stroke-width="3.0" />
            <path d=" M 791.385, 544.078 791.356, 544.081 781.677, 545.357 776.165, 546.084 767.391, 547.240 766.677, 547.335 765.962, 547.430 765.245, 547.525 764.528, 547.621 763.680, 547.606 753.704, 546.909 752.175, 546.802 751.340, 546.529 750.541, 546.002 749.795, 545.233 749.118, 544.235 748.522, 543.026 748.018, 541.630 747.617, 540.073 747.325, 538.383 747.150, 536.596 747.094, 534.743 747.159, 532.862 747.343, 530.989 747.644, 529.159 748.054, 527.409 748.566, 525.773 749.170, 524.281 749.854, 522.963 750.604, 521.843 751.257, 520.992 751.911, 520.142 752.564, 519.293 753.216, 518.445 753.543, 518.021 756.833, 513.751 759.787, 509.918 765.891, 501.998 771.996, 494.077 775.751, 489.204 785.693, 490.283 786.594, 490.380 " fill="none" stroke="rgb(0, 0, 0)" stroke-linecap="butt" stroke-linejoin="round" stroke-opacity="1.0" stroke-width="3.0" />
            <path d=" M 822.786, 505.789 821.577, 496.166 820.034, 486.286 819.751, 484.474 817.899, 474.647 817.589, 473.000 815.418, 463.238 815.091, 461.770 812.591, 452.087 812.261, 450.806 809.426, 441.217 809.104, 440.130 805.928, 430.648 805.629, 429.757 802.095, 420.402 801.835, 419.715 797.921, 410.513 797.720, 410.041 793.404, 401.020 793.283, 400.767 788.527, 391.925 783.460, 383.541 778.091, 375.635 772.431, 368.222 766.489, 361.323 760.270, 354.978 753.780, 349.226 747.030, 344.099 740.032, 339.624 732.801, 335.822 725.354, 332.704 723.299, 332.053 717.709, 330.281 709.881, 328.585 701.888, 327.653 " fill="none" stroke="rgb(0, 0, 0)" stroke-linecap="butt" stroke-linejoin="round" stroke-opacity="1.0" stroke-width="3.0" />
            <path d=" M 666.624, 332.782 671.641, 335.927 677.507, 340.367 683.182, 345.440 688.657, 351.120 693.923, 357.371 698.974, 364.158 703.806, 371.440 708.411, 379.198 712.781, 387.418 716.907, 396.079 720.785, 405.155 724.363, 414.493 724.411, 414.619 727.661, 424.076 727.785, 424.436 730.729, 433.993 730.908, 434.574 733.563, 444.215 733.780, 445.005 736.153, 454.720 736.395, 455.715 738.493, 465.492 738.748, 466.683 740.579, 476.514 740.835, 477.890 742.409, 487.765 742.656, 489.310 743.442, 495.173 743.445, 496.407 743.390, 497.649 743.275, 498.885 743.103, 500.102 742.875, 501.288 742.593, 502.431 742.260, 503.519 741.879, 504.539 741.456, 505.483 741.331, 505.713 740.993, 506.339 740.495, 507.099 739.969, 507.755 739.419, 508.300 738.851, 508.730 730.498, 514.227 724.784, 517.987 " fill="none" stroke="rgb(0, 0, 0)" stroke-linecap="butt" stroke-linejoin="round" stroke-opacity="1.0" stroke-width="3.0" />
            <path d=" M 800.401, 535.130 801.201, 535.181 802.355, 535.254 803.216, 535.309 811.316, 529.445 814.246, 527.325 816.145, 525.950 823.682, 520.493 824.236, 520.093 825.584, 519.261 830.302, 516.352 829.354, 506.396 829.101, 503.732 827.868, 493.808 827.554, 491.281 826.028, 481.398 825.661, 479.023 823.832, 469.192 823.422, 466.984 821.280, 457.216 820.836, 455.189 818.372, 445.497 817.905, 443.663 817.353, 441.770 814.631, 432.433 811.844, 424.027 811.014, 421.526 807.504, 412.163 807.057, 410.969 803.170, 401.756 802.763, 400.789 798.484, 391.751 798.135, 391.014 793.446, 382.182 793.177, 381.674 790.466, 377.119 787.894, 372.796 785.541, 369.272 782.292, 364.408 776.378, 356.542 770.160, 349.227 763.645, 342.490 756.844, 336.362 749.768, 330.873 742.430, 326.051 734.841, 321.923 727.019, 318.518 718.979, 315.863 710.739, 313.983 702.318, 312.901 692.333, 312.369 682.347, 311.836 677.082, 311.555 " fill="none" stroke="rgb(0, 0, 0)" stroke-linecap="butt" stroke-linejoin="round" stroke-opacity="1.0" stroke-width="3.0" />
            <path d=" M 702.318, 312.901 693.739, 312.641 686.584, 313.120 685.022, 313.225 676.193, 314.668 669.286, 316.465 667.277, 316.987 658.301, 320.197 649.295, 324.307 649.106, 324.412 647.757, 325.163 640.289, 329.322 631.943, 334.831 631.314, 335.246 623.378, 341.332 622.402, 342.080 614.887, 348.677 613.589, 349.817 606.496, 356.866 604.907, 358.445 598.236, 365.895 596.394, 367.953 590.140, 375.756 588.084, 378.321 582.238, 386.434 580.013, 389.523 576.636, 394.725 576.313, 395.222 572.218, 401.530 567.164, 410.159 567.049, 410.354 564.733, 414.308 564.632, 414.500 562.927, 417.727 558.256, 426.568 557.805, 427.421 557.596, 427.817 556.041, 431.082 551.743, 440.111 550.838, 442.012 546.904, 451.206 544.493, 456.843 544.211, 457.579 540.636, 466.919 538.592, 472.257 535.369, 481.723 533.312, 487.766 533.166, 488.194 532.771, 489.510 529.894, 499.087 528.905, 502.377 528.240, 504.593 525.705, 514.266 524.902, 517.330 523.839, 521.385 523.359, 523.519 522.005, 529.538 520.216, 537.493 519.988, 538.504 518.130, 548.330 516.703, 555.877 515.182, 565.761 514.001, 573.430 512.817, 583.359 511.896, 591.087 511.051, 601.051 510.397, 608.773 509.893, 618.760 509.508, 626.412 509.351, 636.411 509.233, 643.928 509.428, 653.926 509.534, 659.387 509.570, 661.246 510.124, 671.231 510.516, 678.294 511.437, 688.252 512.062, 695.002 513.360, 704.918 514.195, 711.302 " fill="none" stroke="rgb(0, 0, 0)" stroke-linecap="butt" stroke-linejoin="round" stroke-opacity="1.0" stroke-width="3.0" />
            <path d=" M 755.895, 513.663 754.736, 503.730 754.516, 501.849 754.271, 499.199 754.250, 499.432 754.078, 500.656 753.850, 501.848 753.569, 502.996 753.238, 504.089 752.860, 505.115 752.438, 506.063 751.978, 506.923 751.484, 507.687 750.961, 508.346 750.415, 508.895 749.852, 509.326 741.533, 514.876 733.066, 520.525 732.394, 519.656 731.655, 518.987 730.860, 518.531 730.024, 518.294 724.784, 517.987 718.865, 517.641 717.995, 517.628 717.110, 517.841 716.228, 518.274 715.362, 518.922 714.527, 519.775 713.772, 520.819 713.112, 522.039 712.525, 523.412 712.022, 524.914 711.610, 526.520 711.298, 528.202 711.091, 529.931 710.992, 531.678 711.003, 533.412 711.124, 535.104 721.102, 535.766 722.321, 535.847 727.061, 532.715 727.029, 532.174 727.040, 531.620 727.095, 531.067 727.192, 530.531 727.213, 530.454 727.328, 530.027 727.500, 529.567 727.702, 529.166 727.930, 528.833 728.176, 528.578 728.435, 528.408 728.700, 528.327 728.962, 528.338 " fill="none" stroke="rgb(0, 0, 0)" stroke-linecap="butt" stroke-linejoin="round" stroke-opacity="1.0" stroke-width="3.0" />
            <path d=" M 796.881, 522.210 800.271, 519.747 801.457, 518.886 802.598, 518.057 806.797, 515.005 807.301, 514.595 807.602, 514.280 807.790, 514.084 808.261, 513.476 808.710, 512.778 809.135, 511.996 809.531, 511.138 809.896, 510.211 810.227, 509.222 810.522, 508.178 810.779, 507.090 810.995, 505.963 811.168, 504.808 811.297, 503.633 811.382, 502.447 820.978, 505.259 822.786, 505.789 822.681, 506.565 822.466, 507.697 822.211, 508.791 821.918, 509.840 821.589, 510.834 821.226, 511.766 820.833, 512.628 820.412, 513.414 819.966, 514.116 819.499, 514.727 819.014, 515.242 818.516, 515.654 810.470, 521.593 806.039, 524.863 805.677, 524.350 805.409, 523.971 804.714, 523.285 803.963, 522.818 803.171, 522.578 801.724, 522.493 800.470, 522.420 796.881, 522.210 794.821, 522.089 791.300, 521.883 790.471, 521.874 790.458, 521.878 790.152, 521.958 789.627, 522.097 788.783, 522.548 787.952, 523.220 787.149, 524.103 786.424, 525.183 785.791, 526.445 785.227, 527.864 784.741, 529.415 784.342, 531.073 784.036, 532.809 783.828, 534.594 783.724, 536.395 783.723, 538.184 783.827, 539.928 791.215, 540.418 791.259, 540.421 795.745, 540.718 795.940, 540.577 800.243, 537.461 800.216, 536.904 800.231, 536.332 800.286, 535.762 800.381, 535.209 800.401, 535.130 800.513, 534.688 800.678, 534.213 800.872, 533.798 801.089, 533.454 801.113, 533.426 801.324, 533.190 801.569, 533.013 801.819, 532.928 802.067, 532.937 " fill="none" stroke="rgb(0, 0, 0)" stroke-linecap="butt" stroke-linejoin="round" stroke-opacity="1.0" stroke-width="3.0" />
            <path d=" M 776.165, 546.084 776.321, 551.619 776.359, 561.619 776.367, 563.870 776.161, 573.868 776.114, 576.174 775.669, 586.164 775.564, 588.509 774.882, 598.486 774.720, 600.854 773.801, 610.811 773.581, 613.186 772.426, 623.119 772.151, 625.483 770.760, 635.386 770.432, 637.725 768.804, 647.592 768.425, 649.889 766.559, 659.713 766.134, 661.953 764.027, 671.729 763.560, 673.896 761.210, 683.616 760.708, 685.694 758.111, 695.351 757.580, 697.326 754.732, 706.912 754.180, 708.769 751.075, 718.275 750.512, 719.999 747.145, 729.415 746.581, 730.994 742.944, 740.309 742.390, 741.729 738.476, 750.931 737.945, 752.180 733.745, 761.256 733.251, 762.324 728.757, 771.257 728.315, 772.135 723.516, 780.908 723.143, 781.588 718.027, 790.180 717.742, 790.658 712.298, 799.046 712.121, 799.319 706.286, 807.546 700.248, 815.310 694.017, 822.587 687.602, 829.350 681.017, 835.572 674.272, 841.225 667.383, 846.286 660.362, 850.727 653.227, 854.522 645.992, 857.647 638.676, 860.080 631.297, 861.795 623.876, 862.771 616.432, 862.988 609.222, 862.445 " fill="none" stroke="rgb(0, 0, 0)" stroke-linecap="butt" stroke-linejoin="round" stroke-opacity="1.0" stroke-width="3.0" />
            <path d=" M 763.680, 547.606 762.852, 547.331 762.060, 546.803 761.322, 546.031 760.652, 545.028 760.063, 543.815 759.565, 542.412 759.168, 540.847 758.881, 539.150 758.709, 537.354 758.700, 537.025 758.656, 535.492 758.722, 533.602 758.907, 531.719 759.149, 530.229 759.206, 529.881 759.614, 528.122 760.124, 526.478 760.724, 524.978 761.403, 523.652 762.147, 522.526 762.796, 521.671 763.445, 520.816 764.093, 519.962 764.739, 519.110 765.064, 518.684 768.016, 514.803 774.070, 506.844 777.546, 502.275 783.600, 494.316 786.594, 490.380 787.939, 500.289 788.052, 501.120 788.597, 505.469 789.616, 515.417 789.762, 516.849 790.152, 521.958 " fill="none" stroke="rgb(0, 0, 0)" stroke-linecap="butt" stroke-linejoin="round" stroke-opacity="1.0" stroke-width="3.0" />
            <path d=" M 794.459, 517.291 800.128, 517.824 801.387, 517.943 802.598, 518.057 " fill="none" stroke="rgb(0, 0, 0)" stroke-linecap="butt" stroke-linejoin="round" stroke-opacity="1.0" stroke-width="3.0" />
            <path d=" M 764.743, 537.421 764.426, 537.348 764.129, 537.129 763.867, 536.773 763.652, 536.296 763.492, 535.719 763.395, 535.068 763.364, 534.369 763.402, 533.655 763.506, 532.956 763.672, 532.304 763.893, 531.727 764.159, 531.250 764.458, 530.893 764.776, 530.675 765.102, 530.601 " fill="none" stroke="rgb(0, 0, 0)" stroke-linecap="butt" stroke-linejoin="round" stroke-opacity="1.0" stroke-width="3.0" />
            <path d=" M 765.102, 530.601 765.419, 530.677 765.714, 530.898 765.975, 531.254 766.189, 531.730 766.348, 532.306 766.444, 532.957 766.474, 533.653 766.437, 534.364 766.333, 535.060 766.168, 535.711 765.948, 536.287 765.684, 536.764 765.386, 537.122 765.068, 537.344 764.743, 537.421 " fill="none" stroke="rgb(0, 0, 0)" stroke-linecap="butt" stroke-linejoin="round" stroke-opacity="1.0" stroke-width="3.0" />
            <path d=" M 727.213, 530.454 730.194, 530.645 738.537, 525.132 746.880, 519.619 755.224, 514.106 755.895, 513.663 756.833, 513.751 " fill="none" stroke="rgb(0, 0, 0)" stroke-linecap="butt" stroke-linejoin="round" stroke-opacity="1.0" stroke-width="3.0" />
            <path d=" M 801.201, 535.181 801.392, 538.998 801.651, 548.994 801.726, 551.872 801.749, 561.872 801.756, 564.824 801.546, 574.822 801.482, 577.831 801.042, 587.822 800.907, 590.872 800.238, 600.849 800.032, 603.924 799.134, 613.883 798.857, 616.965 797.731, 626.901 797.383, 629.973 796.030, 639.881 795.614, 642.927 794.032, 652.801 793.550, 655.805 791.737, 665.639 791.194, 668.582 789.147, 678.370 788.548, 681.237 786.265, 690.973 785.614, 693.748 783.091, 703.424 782.395, 706.090 779.627, 715.699 778.895, 718.239 775.877, 727.773 775.117, 730.172 771.842, 739.621 771.064, 741.865 767.526, 751.218 766.741, 753.292 762.932, 762.538 762.153, 764.427 758.063, 773.553 757.304, 775.246 752.925, 784.237 752.201, 785.722 747.521, 794.559 746.849, 795.827 741.857, 804.492 741.256, 805.535 735.939, 814.005 735.428, 814.819 729.774, 823.067 729.375, 823.650 723.369, 831.645 723.104, 831.998 716.735, 839.707 716.627, 839.837 709.954, 847.138 703.096, 853.870 696.066, 860.006 688.878, 865.517 681.547, 870.374 674.089, 874.548 666.519, 878.012 658.858, 880.741 651.124, 882.708 643.338, 883.887 635.522, 884.257 627.698, 883.797 619.892, 882.486 612.128, 880.307 604.432, 877.248 596.832, 873.297 589.357, 868.444 582.035, 862.685 574.895, 856.021 568.142, 848.645 567.968, 848.454 561.770, 840.606 561.284, 839.990 555.627, 831.744 554.873, 830.644 549.739, 822.063 548.765, 820.434 544.135, 811.570 542.990, 809.378 538.843, 800.279 537.579, 797.506 536.722, 795.346 533.951, 788.364 532.723, 785.268 532.557, 784.850 529.307, 775.392 527.952, 771.448 527.359, 769.436 526.257, 765.701 523.791, 757.341 521.364, 747.640 520.348, 743.580 520.097, 742.578 518.815, 736.430 516.892, 727.213 515.221, 717.354 514.195, 711.302 510.824, 701.887 507.850, 693.581 " fill="none" stroke="rgb(0, 0, 0)" stroke-linecap="butt" stroke-linejoin="round" stroke-opacity="1.0" stroke-width="3.0" />
            <path d=" M 677.082, 311.555 669.293, 311.272 661.385, 311.828 661.153, 311.869 653.380, 313.240 645.302, 315.524 637.176, 318.696 629.027, 322.769 620.884, 327.746 612.774, 333.634 605.137, 340.089 604.729, 340.434 597.548, 347.394 596.777, 348.141 590.049, 355.539 588.952, 356.745 582.667, 364.523 581.285, 366.233 575.432, 374.341 575.205, 374.657 574.834, 375.170 573.810, 376.589 568.375, 384.982 566.559, 387.786 566.243, 388.329 563.836, 392.462 562.146, 395.363 559.565, 399.795 557.112, 404.475 555.362, 407.813 552.861, 412.585 548.595, 421.629 546.480, 426.114 543.864, 432.286 540.451, 440.337 536.902, 449.686 534.806, 455.204 531.600, 464.676 529.574, 470.661 526.702, 480.240 524.781, 486.649 522.236, 496.320 520.451, 503.103 519.438, 507.542 517.215, 517.292 516.608, 519.956 516.196, 522.076 514.739, 529.582 513.272, 537.138 511.681, 547.010 510.461, 554.574 509.181, 564.492 508.188, 572.191 507.220, 582.144 506.465, 589.910 505.810, 599.889 505.301, 607.655 504.961, 617.649 504.700, 625.348 504.678, 635.348 504.663, 642.911 504.966, 652.907 505.189, 660.270 505.823, 670.250 506.267, 677.242 506.274, 677.350 507.240, 687.303 507.850, 693.581 507.411, 703.572 507.019, 712.511 " fill="none" stroke="rgb(0, 0, 0)" stroke-linecap="butt" stroke-linejoin="round" stroke-opacity="1.0" stroke-width="3.0" />
            <path d=" M 509.828, 728.927 511.888, 738.712 513.163, 744.773 514.839, 751.413 516.368, 757.472 517.003, 759.991 519.854, 769.576 521.325, 774.523 522.854, 778.937 524.013, 782.281 526.105, 788.321 529.762, 797.460 530.973, 800.486 531.314, 801.340 533.963, 807.102 536.924, 813.543 541.587, 822.389 542.907, 824.894 548.076, 833.454 549.230, 835.366 554.926, 843.585 555.863, 844.938 562.103, 852.753 562.774, 853.594 569.571, 860.929 569.932, 861.319 577.306, 868.108 584.862, 873.960 592.571, 878.875 600.404, 882.859 608.331, 885.923 616.323, 888.080 624.354, 889.345 632.397, 889.736 640.429, 889.277 648.425, 887.989 656.363, 885.895 664.223, 883.023 671.985, 879.401 679.630, 875.056 687.141, 870.017 694.503, 864.313 701.700, 857.975 708.720, 851.031 715.443, 843.628 715.549, 843.511 721.897, 835.784 722.175, 835.446 728.163, 827.436 728.589, 826.866 734.228, 818.607 734.781, 817.797 740.084, 809.320 740.740, 808.271 745.722, 799.601 746.461, 798.316 751.133, 789.475 751.934, 787.959 756.308, 778.966 757.153, 777.228 761.239, 768.100 762.113, 766.149 765.920, 756.903 766.807, 754.751 770.345, 745.397 771.230, 743.057 774.505, 733.609 775.377, 731.094 778.398, 721.562 779.245, 718.888 782.017, 709.280 782.830, 706.462 785.358, 696.787 786.128, 693.841 788.416, 684.106 789.135, 681.048 791.188, 671.261 791.850, 668.107 793.670, 658.274 794.268, 655.041 795.858, 645.168 796.388, 641.872 797.748, 631.965 798.207, 628.624 799.340, 618.688 799.724, 615.319 800.629, 605.360 800.936, 601.979 801.613, 592.002 801.842, 588.627 802.289, 578.637 802.439, 575.285 802.656, 565.287 802.727, 561.974 802.710, 551.974 802.705, 548.718 802.450, 538.722 802.370, 535.540 802.355, 535.254 " fill="none" stroke="rgb(0, 0, 0)" stroke-linecap="butt" stroke-linejoin="round" stroke-opacity="1.0" stroke-width="3.0" />
            <path d=" M 507.019, 712.511 508.705, 722.367 509.828, 728.927 " fill="none" stroke="rgb(0, 0, 0)" stroke-linecap="butt" stroke-linejoin="round" stroke-opacity="1.0" stroke-width="3.0" />
            <path d=" M 817.353, 441.770 816.264, 435.777 814.242, 425.984 814.001, 424.813 811.741, 415.072 811.503, 414.043 808.997, 404.362 808.770, 403.484 806.009, 393.872 805.802, 393.151 802.774, 383.621 802.598, 383.067 799.293, 373.629 799.160, 373.248 795.568, 363.915 795.488, 363.709 791.587, 354.468 787.456, 345.541 783.100, 336.949 778.518, 328.710 773.715, 320.846 768.692, 313.380 763.452, 306.334 758.002, 299.723 752.347, 293.566 746.491, 287.883 740.442, 282.693 734.206, 278.016 727.791, 273.877 721.202, 270.297 714.451, 267.302 707.546, 264.908 700.498, 263.132 693.320, 261.989 686.023, 261.496 678.620, 261.668 677.892, 261.751 671.127, 262.523 663.557, 264.078 655.927, 266.349 648.255, 269.351 640.558, 273.091 632.855, 277.571 625.165, 282.796 617.508, 288.767 612.881, 292.856 609.905, 295.486 602.804, 302.527 602.377, 302.951 595.667, 310.366 594.948, 311.160 588.624, 318.907 587.642, 320.110 585.787, 322.620 580.483, 329.791 576.694, 335.425 573.494, 340.184 572.172, 342.339 571.732, 343.057 566.695, 351.270 564.503, 355.185 562.128, 359.425 560.477, 362.373 560.111, 363.025 555.540, 371.956 553.859, 375.241 553.764, 375.426 549.528, 384.485 547.677, 388.445 543.753, 397.643 542.788, 399.906 541.873, 402.053 538.255, 411.375 536.376, 416.217 534.804, 420.685 531.485, 430.119 531.209, 430.903 528.182, 440.434 526.392, 446.069 523.649, 455.685 521.943, 461.668 519.478, 471.360 517.876, 477.655 515.684, 487.411 514.208, 493.979 512.285, 503.792 510.953, 510.590 509.297, 520.452 508.124, 527.437 507.817, 529.624 506.428, 539.527 505.734, 544.467 504.612, 554.403 503.796, 561.623 502.940, 571.587 502.316, 578.851 501.725, 588.833 501.295, 596.092 500.970, 606.087 500.736, 613.291 500.680, 623.291 500.640, 630.391 500.858, 640.389 501.008, 647.337 501.503, 657.324 501.837, 664.073 502.614, 674.043 503.121, 680.548 503.974, 688.523 504.850, 696.711 506.210, 706.618 507.019, 712.511 508.682, 722.371 509.615, 727.901 509.828, 728.927 511.800, 738.730 512.626, 742.837 514.737, 751.773 516.037, 757.279 516.223, 757.958 518.856, 767.605 519.833, 771.187 522.576, 779.972 523.683, 783.517 523.998, 784.525 527.339, 793.951 528.513, 797.262 529.302, 799.234 530.515, 802.264 533.359, 809.370 533.389, 809.436 537.493, 818.555 538.514, 820.824 543.025, 829.749 543.961, 831.601 548.897, 840.298 549.680, 841.678 555.057, 850.110 555.650, 851.039 561.480, 859.164 561.847, 859.676 568.141, 867.447 568.250, 867.581 574.835, 874.750 581.583, 881.179 588.472, 886.866 595.483, 891.810 602.597, 896.011 609.794, 899.476 617.053, 902.217 623.139, 903.908 624.356, 904.247 631.684, 905.580 639.020, 906.230 646.349, 906.211 653.654, 905.536 660.922, 904.218 668.138, 902.273 675.289, 899.719 682.362, 896.581 689.345, 892.879 696.228, 888.634 702.999, 883.867 709.650, 878.596 716.171, 872.839 722.554, 866.614 728.790, 859.937 734.872, 852.832 740.795, 845.321 746.551, 837.425 752.137, 829.165 757.458, 820.698 757.546, 820.557 762.596, 811.926 762.774, 811.621 767.561, 802.841 767.816, 802.373 772.346, 793.458 772.667, 792.827 776.948, 783.790 777.322, 783.002 781.364, 773.855 781.779, 772.916 785.590, 763.671 786.036, 762.588 789.622, 753.254 790.090, 752.036 793.458, 742.621 793.939, 741.276 797.094, 731.787 797.581, 730.324 800.527, 720.768 801.012, 719.194 803.752, 709.576 804.230, 707.900 806.767, 698.227 807.232, 696.456 809.569, 686.733 810.015, 684.877 812.157, 675.110 812.580, 673.180 814.530, 663.372 814.926, 661.379 816.686, 651.535 817.052, 649.489 818.624, 639.613 818.956, 637.523 820.341, 627.619 820.637, 625.495 821.834, 615.567 822.094, 613.418 823.103, 603.469 823.322, 601.306 824.143, 591.340 824.322, 589.172 824.956, 579.193 825.094, 577.031 825.541, 567.041 825.637, 564.896 825.896, 554.900 825.951, 552.781 826.020, 542.781 826.034, 540.698 825.910, 530.699 825.884, 528.663 825.584, 519.261 " fill="none" stroke="rgb(0, 0, 0)" stroke-linecap="butt" stroke-linejoin="round" stroke-opacity="1.0" stroke-width="3.0" />
            <path d=" M 676.400, 261.786 668.896, 262.641 661.316, 264.195 653.677, 266.465 645.995, 269.465 638.289, 273.201 630.577, 277.678 622.878, 282.899 615.212, 288.865 611.621, 292.031 607.600, 295.577 600.492, 302.611 600.064, 303.034 593.347, 310.442 592.628, 311.236 586.296, 318.976 585.314, 320.177 579.916, 327.462 578.149, 329.847 572.560, 338.140 571.840, 339.209 571.386, 339.883 571.152, 340.230 569.844, 342.359 564.609, 350.880 564.348, 351.304 564.259, 351.463 561.881, 355.700 560.248, 358.609 557.758, 363.046 555.295, 367.850 553.612, 371.133 551.406, 375.434 547.164, 384.489 545.314, 388.438 542.556, 394.892 539.506, 402.031 535.882, 411.351 534.005, 416.179 530.681, 425.611 528.835, 430.849 525.803, 440.378 524.015, 445.997 523.638, 447.318 520.891, 456.933 519.564, 461.579 517.095, 471.269 515.496, 477.547 513.300, 487.303 511.826, 493.852 509.901, 503.665 508.570, 510.445 506.912, 520.306 505.741, 527.273 505.409, 529.638 504.018, 539.541 503.352, 544.282 502.228, 554.219 501.414, 561.419 500.557, 571.383 499.935, 578.627 499.344, 588.610 498.916, 595.849 498.592, 605.844 498.359, 613.028 498.305, 623.028 498.266, 630.109 498.485, 640.107 498.637, 647.036 499.135, 657.024 499.470, 663.755 500.249, 673.724 500.757, 680.212 501.825, 690.155 502.422, 695.709 502.491, 696.357 503.855, 706.263 504.664, 712.140 506.333, 722.000 507.266, 727.514 509.248, 737.316 510.283, 742.436 512.587, 752.166 513.516, 756.086 513.700, 756.863 515.037, 761.750 517.502, 770.758 520.490, 780.301 521.565, 783.736 521.674, 784.083 522.698, 786.965 526.047, 796.388 526.196, 796.808 528.466, 802.466 529.683, 805.500 531.049, 808.905 532.633, 812.417 536.212, 820.350 540.731, 829.271 541.667, 831.119 546.611, 839.811 547.394, 841.188 552.779, 849.614 553.372, 850.542 559.211, 858.661 559.579, 859.173 565.880, 866.938 565.990, 867.073 572.585, 874.238 579.342, 880.664 586.240, 886.349 593.261, 891.292 600.385, 895.493 607.592, 898.959 614.861, 901.701 622.174, 903.733 " fill="none" stroke="rgb(0, 0, 0)" stroke-linecap="butt" stroke-linejoin="round" stroke-opacity="1.0" stroke-width="3.0" />
            <path d=" M 678.620, 261.668 676.400, 261.786 " fill="none" stroke="rgb(0, 0, 0)" stroke-linecap="butt" stroke-linejoin="round" stroke-opacity="1.0" stroke-width="3.0" />
            <path d=" M 622.174, 903.733 624.356, 904.247 " fill="none" stroke="rgb(0, 0, 0)" stroke-linecap="butt" stroke-linejoin="round" stroke-opacity="1.0" stroke-width="3.0" />
            <path d=" M 489.351, 716.400 491.048, 726.254 492.361, 733.874 492.383, 734.005 494.085, 742.275 495.895, 751.072 498.238, 760.793 498.957, 763.775 499.867, 767.550 502.231, 776.039 504.280, 783.395 504.363, 783.656 505.545, 787.367 507.916, 794.809 508.954, 798.066 509.113, 798.565 512.515, 807.969 513.325, 810.207 514.344, 813.024 514.404, 813.171 517.384, 820.463 518.550, 823.314 519.949, 826.738 520.930, 828.869 522.137, 831.493 522.991, 833.347 525.444, 838.677 525.905, 839.679 530.499, 848.561 532.185, 851.823 537.209, 860.469 538.766, 863.150 544.235, 871.522 545.621, 873.643 551.550, 881.696 552.724, 883.292 559.124, 890.975 560.050, 892.087 566.929, 899.345 567.572, 900.024 574.932, 906.794 575.266, 907.101 583.107, 913.322 591.071, 918.690 599.134, 923.214 607.273, 926.904 615.467, 929.772 623.694, 931.833 628.006, 932.902 636.225, 934.165 644.437, 934.654 652.626, 934.387 660.774, 933.386 668.864, 931.671 676.882, 929.266 684.813, 926.192 692.644, 922.473 700.362, 918.132 707.957, 913.194 715.416, 907.681 722.732, 901.618 729.893, 895.028 736.893, 887.935 743.590, 880.509 743.723, 880.362 750.102, 872.661 750.376, 872.331 756.448, 864.385 756.846, 863.865 762.621, 855.701 763.127, 854.985 768.615, 846.626 769.213, 845.714 774.425, 837.180 775.101, 836.073 780.045, 827.381 780.784, 826.082 785.471, 817.248 786.260, 815.760 790.698, 806.799 791.525, 805.128 795.722, 796.052 796.576, 794.206 800.539, 785.024 801.409, 783.010 805.145, 773.734 806.021, 771.560 809.538, 762.198 810.411, 759.873 813.713, 750.434 814.577, 747.966 817.670, 738.456 818.515, 735.856 821.404, 726.282 822.225, 723.560 824.913, 713.928 825.705, 711.093 828.196, 701.408 828.952, 698.471 831.251, 688.739 831.966, 685.709 834.075, 675.934 834.746, 672.823 836.666, 663.009 837.289, 659.826 839.024, 649.978 839.595, 646.735 841.146, 636.855 841.663, 633.561 843.031, 623.655 843.491, 620.321 844.677, 610.392 845.079, 607.028 846.083, 597.078 846.425, 593.695 847.248, 583.729 847.528, 580.337 848.170, 570.358 848.388, 566.967 848.848, 556.978 849.003, 553.600 849.279, 543.603 849.372, 540.248 849.464, 530.248 849.495, 526.926 849.400, 516.926 849.370, 513.647 849.087, 503.651 848.996, 500.427 848.522, 490.438 848.372, 487.278 847.704, 477.301 847.498, 474.217 846.633, 464.254 846.373, 461.257 845.306, 451.314 844.995, 448.413 843.722, 438.494 843.364, 435.701 841.880, 425.812 841.479, 423.136 839.779, 413.282 839.339, 410.736 837.417, 400.922 836.945, 398.515 834.793, 388.749 834.295, 386.491 831.905, 376.780 831.389, 374.681 828.754, 365.034 828.227, 363.103 825.338, 353.529 824.808, 351.775 821.656, 342.285 821.134, 340.717 817.707, 331.322 817.205, 329.946 813.492, 320.661 813.021, 319.484 809.009, 310.324 808.583, 309.350 804.260, 300.333 803.893, 299.566 799.245, 290.712 798.952, 290.153 793.966, 281.485 793.763, 281.132 788.423, 272.677 788.328, 272.526 782.650, 264.359 776.733, 256.653 770.582, 249.432 764.200, 242.720 757.594, 236.542 750.771, 230.922 743.736, 225.884 736.499, 221.454 729.068, 217.656 721.452, 214.514 713.664, 212.053 705.714, 210.295 697.616, 209.264 689.384, 208.981 681.033, 209.468 676.615, 209.804 668.139, 211.080 659.577, 213.162 650.950, 216.066 642.278, 219.807 633.580, 224.396 625.104, 229.703 624.880, 229.844 616.793, 235.727 616.201, 236.158 608.513, 242.554 607.566, 243.342 600.283, 250.193 599.003, 251.397 592.120, 258.651 590.536, 260.321 584.049, 267.931 583.717, 268.320 582.192, 270.109 576.092, 278.032 574.000, 280.750 568.276, 288.950 565.986, 292.231 565.482, 293.026 564.914, 293.921 561.769, 298.877 560.233, 301.299 558.180, 304.535 557.790, 305.208 557.056, 306.479 556.192, 307.975 553.007, 313.487 551.422, 316.231 551.214, 316.590 550.608, 317.639 549.591, 319.571 544.932, 328.419 543.301, 331.518 543.120, 331.893 541.526, 335.216 538.804, 340.890 536.285, 346.140 532.282, 355.304 529.588, 361.472 529.061, 362.800 525.372, 372.094 523.237, 377.474 519.854, 386.885 517.259, 394.103 514.174, 403.615 511.677, 411.312 508.883, 420.914 506.516, 429.050 504.008, 438.730 501.797, 447.262 499.569, 457.011 498.480, 461.777 497.540, 465.890 496.137, 472.949 494.186, 482.757 493.765, 484.875 492.088, 494.734 490.486, 504.153 490.020, 507.431 489.156, 513.521 488.766, 516.269 488.704, 516.705 488.511, 518.065 488.327, 519.360 488.206, 520.214 487.762, 523.341 487.717, 523.658 486.582, 533.594 485.471, 543.325 484.606, 553.288 483.756, 563.085 483.161, 573.067 482.578, 582.869 482.255, 592.864 481.940, 602.610 481.892, 612.610 481.851, 621.129 481.845, 622.238 481.862, 622.955 482.091, 632.953 482.202, 637.838 482.233, 639.188 482.291, 641.687 482.801, 651.674 482.933, 654.254 482.980, 655.191 483.272, 660.891 484.040, 670.504 484.088, 671.105 484.782, 679.785 485.568, 686.956 486.658, 696.897 486.812, 698.307 488.202, 708.210 489.351, 716.400 " fill="none" stroke="rgb(0, 0, 0)" stroke-linecap="butt" stroke-linejoin="round" stroke-opacity="1.0" stroke-width="3.0" />
            <path d=" M 681.033, 209.468 672.579, 210.744 664.040, 212.827 655.435, 215.734 646.784, 219.479 638.107, 224.075 629.641, 229.397 629.427, 229.531 621.351, 235.429 620.768, 235.855 613.093, 242.266 612.152, 243.052 604.882, 249.918 603.607, 251.122 596.739, 258.390 595.158, 260.063 588.685, 267.686 586.831, 269.869 586.121, 270.795 580.036, 278.730 578.654, 280.532 572.945, 288.742 570.655, 292.036 566.420, 298.736 565.862, 299.620 562.862, 304.365 560.845, 307.870 558.437, 312.054 556.843, 314.822 555.304, 317.497 551.931, 323.927 550.301, 327.035 548.008, 331.406 543.695, 340.428 541.002, 346.060 539.541, 349.419 535.550, 358.588 534.315, 361.426 530.638, 370.725 527.973, 377.464 524.600, 386.878 522.002, 394.130 518.926, 403.645 516.426, 411.378 516.013, 412.803 513.228, 422.407 511.270, 429.156 508.769, 438.838 506.555, 447.410 504.334, 457.160 502.301, 466.081 500.356, 475.890 498.527, 485.110 496.854, 494.969 495.507, 502.909 495.249, 504.432 494.350, 510.774 493.233, 518.664 493.200, 518.897 492.480, 523.982 492.218, 526.278 491.085, 536.213 490.232, 543.694 489.367, 553.657 488.862, 559.477 488.513, 563.499 487.918, 573.482 487.332, 583.329 487.307, 584.080 486.983, 594.075 486.689, 603.114 486.659, 609.039 486.608, 619.039 486.588, 622.787 486.813, 632.785 487.026, 642.280 487.531, 652.267 487.683, 655.274 487.757, 656.726 487.999, 661.526 488.790, 671.494 489.501, 680.461 490.181, 686.716 491.263, 696.657 491.521, 699.023 491.788, 700.942 493.006, 709.673 493.038, 709.908 493.719, 714.788 493.826, 715.559 494.048, 717.154 495.243, 724.129 496.931, 733.986 497.069, 734.796 499.074, 744.593 500.568, 751.898 502.899, 761.622 504.526, 768.409 506.870, 776.869 508.080, 781.234 508.925, 784.284 511.947, 793.817 513.743, 799.483 515.397, 804.077 516.486, 807.103 518.958, 813.967 522.682, 823.123 523.859, 826.015 524.358, 827.243 524.547, 827.705 527.055, 833.181 530.485, 840.668 535.063, 849.559 536.748, 852.832 541.755, 861.488 543.310, 864.175 548.763, 872.558 550.146, 874.684 556.059, 882.748 557.229, 884.344 563.614, 892.040 564.534, 893.149 571.400, 900.420 572.036, 901.094 579.384, 907.877 579.709, 908.178 587.529, 914.402 595.471, 919.772 603.512, 924.295 611.630, 927.983 619.801, 930.847 628.006, 932.902 " fill="none" stroke="rgb(0, 0, 0)" stroke-linecap="butt" stroke-linejoin="round" stroke-opacity="1.0" stroke-width="3.0" />
            <path d=" M 730.024, 518.294 729.159, 518.282 728.281, 518.496 727.404, 518.933 726.543, 519.584 726.036, 520.108 725.713, 520.441 724.962, 521.491 724.306, 522.718 723.722, 524.098 723.221, 525.607 722.812, 527.221 722.679, 527.943 722.501, 528.912 722.354, 530.144 722.293, 530.649 722.193, 532.404 722.203, 534.147 722.321, 535.847 " fill="none" stroke="rgb(0, 0, 0)" stroke-linecap="butt" stroke-linejoin="round" stroke-opacity="1.0" stroke-width="3.0" />
            <path d=" M 728.962, 528.338 729.215, 528.439 729.451, 528.629 729.666, 528.902 729.852, 529.251 730.004, 529.665 730.119, 530.134 730.194, 530.645 " fill="none" stroke="rgb(0, 0, 0)" stroke-linecap="butt" stroke-linejoin="round" stroke-opacity="1.0" stroke-width="3.0" />
            <path d=" M 803.171, 522.578 802.349, 522.570 801.512, 522.795 800.675, 523.249 799.850, 523.925 799.363, 524.466 799.053, 524.812 798.332, 525.899 797.705, 527.167 797.144, 528.593 796.661, 530.153 796.264, 531.820 796.134, 532.564 795.959, 533.565 795.812, 534.836 795.752, 535.358 795.646, 537.169 795.644, 538.966 795.745, 540.718 " fill="none" stroke="rgb(0, 0, 0)" stroke-linecap="butt" stroke-linejoin="round" stroke-opacity="1.0" stroke-width="3.0" />
            <path d=" M 802.067, 532.937 802.305, 533.041 802.528, 533.235 802.728, 533.516 802.902, 533.874 803.043, 534.300 803.149, 534.783 803.216, 535.309 " fill="none" stroke="rgb(0, 0, 0)" stroke-linecap="butt" stroke-linejoin="round" stroke-opacity="1.0" stroke-width="3.0" />
            <path d=" M 778.038, 477.774 778.173, 477.698 778.319, 477.644 778.475, 477.614 778.636, 477.608 778.857, 477.639 779.074, 477.715 779.279, 477.831 779.464, 477.985 779.622, 478.169 779.748, 478.380 779.837, 478.611 779.884, 478.858 779.883, 479.090 779.840, 479.310 779.756, 479.512 779.634, 479.688 779.479, 479.831 779.294, 479.937 " fill="none" stroke="rgb(0, 0, 0)" stroke-linecap="butt" stroke-linejoin="round" stroke-opacity="1.0" stroke-width="3.0" />
            <path d=" M 777.917, 477.872 777.969, 477.830 " fill="none" stroke="rgb(0, 0, 0)" stroke-linecap="butt" stroke-linejoin="round" stroke-opacity="1.0" stroke-width="3.0" />
            <path d=" M 777.808, 477.971 777.671, 478.153 777.641, 478.210 777.541, 478.426 777.486, 478.660 777.481, 478.908 777.526, 479.138 777.539, 479.202 777.628, 479.416 777.760, 479.608 777.810, 479.656 777.971, 479.811 778.161, 479.928 778.220, 479.957 778.417, 480.024 778.474, 480.040 778.545, 480.051 778.628, 480.057 778.739, 480.062 778.789, 480.063 778.840, 480.060 778.890, 480.055 778.939, 480.047 778.984, 480.038 779.101, 480.010 779.178, 479.988 779.244, 479.963 779.294, 479.937 " fill="none" stroke="rgb(0, 0, 0)" stroke-linecap="butt" stroke-linejoin="round" stroke-opacity="1.0" stroke-width="3.0" />
            <path d=" M 778.038, 477.774 777.979, 477.821 777.969, 477.830 777.903, 477.888 777.808, 477.971 777.917, 477.872 " fill="none" stroke="rgb(0, 0, 0)" stroke-linecap="butt" stroke-linejoin="round" stroke-opacity="1.0" stroke-width="3.0" />
            <path d=" M 775.628, 475.689 776.177, 481.700 780.338, 481.875 781.865, 481.939 782.502, 481.366 781.467, 475.821 779.352, 475.664 776.056, 475.419 775.628, 475.689 " fill="none" stroke="rgb(0, 0, 0)" stroke-linecap="butt" stroke-linejoin="round" stroke-opacity="1.0" stroke-width="3.0" />
            <path d=" M 781.865, 481.939 781.322, 475.913 " fill="none" stroke="rgb(0, 0, 0)" stroke-linecap="butt" stroke-linejoin="round" stroke-opacity="1.0" stroke-width="3.0" />
            <path d=" M 781.467, 475.821 781.322, 475.913 775.628, 475.689 " fill="none" stroke="rgb(0, 0, 0)" stroke-linecap="butt" stroke-linejoin="round" stroke-opacity="1.0" stroke-width="3.0" />
            <path d=" M 741.331, 505.713 738.426, 505.757 728.434, 506.152 726.961, 506.210 716.980, 506.823 715.515, 506.913 705.548, 507.720 704.083, 507.839 694.131, 508.818 692.661, 508.962 682.725, 510.090 681.242, 510.258 671.321, 511.512 669.823, 511.702 659.915, 513.061 658.396, 513.270 648.501, 514.714 646.958, 514.940 637.072, 516.448 635.503, 516.688 625.624, 518.241 624.026, 518.492 614.151, 520.071 612.522, 520.332 602.648, 521.917 600.986, 522.184 591.110, 523.759 589.412, 524.029 579.532, 525.575 577.796, 525.846 578.171, 515.853 578.338, 511.388 578.597, 501.391 578.714, 496.871 578.858, 486.872 578.923, 482.314 578.953, 472.314 578.966, 467.737 578.881, 457.737 578.842, 453.158 578.641, 443.160 578.550, 438.595 578.234, 428.600 578.091, 424.068 577.708, 415.240 " fill="none" stroke="rgb(0, 0, 0)" stroke-linecap="butt" stroke-linejoin="round" stroke-opacity="1.0" stroke-width="3.0" />
            <path d=" M 579.174, 263.239 578.019, 261.774 572.815, 255.166 572.425, 254.672 572.346, 254.559 566.621, 246.359 566.063, 245.560 560.797, 237.059 560.116, 235.959 555.304, 227.193 554.606, 225.922 550.243, 216.923 549.553, 215.499 548.482, 212.984 544.972, 204.739 541.524, 195.433 541.163, 194.458 540.878, 193.687 " fill="none" stroke="rgb(0, 0, 0)" stroke-linecap="butt" stroke-linejoin="round" stroke-opacity="1.0" stroke-width="3.0" />
            <path d=" M 540.878, 193.687 537.222, 184.284 536.923, 183.592 533.409, 175.454 529.444, 167.231 528.246, 165.026 525.330, 159.656 524.222, 157.862 521.074, 152.767 517.064, 147.147 516.680, 146.609 512.844, 142.038 512.157, 141.219 507.512, 136.639 502.753, 132.910 498.599, 130.489 497.892, 130.077 495.724, 129.245 492.938, 128.175 487.904, 127.245 482.804, 127.327 477.652, 128.456 472.464, 130.664 469.793, 132.365 468.987, 132.879 467.257, 133.981 463.747, 136.985 462.051, 138.437 456.863, 144.052 452.968, 149.191 451.716, 150.842 450.865, 152.178 446.630, 158.821 446.579, 158.917 441.793, 167.697 441.630, 167.997 437.363, 177.040 436.738, 178.365 432.928, 187.611 431.977, 189.917 428.575, 199.320 427.374, 202.638 424.337, 212.165 422.953, 216.505 420.245, 226.131 418.739, 231.482 416.329, 241.187 414.755, 247.528 412.620, 257.297 411.026, 264.592 409.147, 274.414 407.577, 282.616 405.934, 292.480 404.427, 301.527 403.007, 311.426 401.598, 321.249 400.390, 331.176 399.182, 341.103 399.110, 341.698 398.104, 351.647 397.097, 361.596 396.978, 362.781 396.165, 372.748 395.353, 382.715 395.216, 384.398 394.592, 394.379 393.969, 404.359 393.838, 406.445 393.863, 406.544 396.291, 416.245 398.719, 425.946 399.888, 430.614 399.945, 430.832 402.473, 440.507 405.000, 450.182 406.002, 454.017 408.633, 463.665 411.263, 473.312 412.184, 476.687 414.920, 486.306 417.656, 495.924 418.434, 498.658 421.279, 508.245 424.124, 517.831 424.756, 519.959 427.712, 529.512 430.669, 539.065 431.150, 540.620 434.220, 550.137 437.291, 559.654 437.619, 560.670 440.806, 570.148 443.994, 579.626 444.165, 580.135 447.472, 589.573 450.790, 599.043 454.218, 608.437 457.496, 617.418 461.048, 626.765 464.285, 635.284 467.962, 644.583 471.159, 652.666 474.964, 661.913 478.120, 669.585 482.054, 678.779 485.171, 686.064 485.568, 686.956 " fill="none" stroke="rgb(0, 0, 0)" stroke-linecap="butt" stroke-linejoin="round" stroke-opacity="1.0" stroke-width="3.0" />
            <path d=" M 481.851, 621.129 481.135, 618.810 481.862, 622.955 " fill="none" stroke="rgb(0, 0, 0)" stroke-linecap="butt" stroke-linejoin="round" stroke-opacity="1.0" stroke-width="3.0" />
            <path d=" M 482.202, 637.838 481.581, 635.945 482.233, 639.188 " fill="none" stroke="rgb(0, 0, 0)" stroke-linecap="butt" stroke-linejoin="round" stroke-opacity="1.0" stroke-width="3.0" />
            <path d=" M 482.933, 654.254 482.451, 652.895 482.980, 655.191 " fill="none" stroke="rgb(0, 0, 0)" stroke-linecap="butt" stroke-linejoin="round" stroke-opacity="1.0" stroke-width="3.0" />
            <path d=" M 484.040, 670.504 483.691, 669.608 484.088, 671.105 " fill="none" stroke="rgb(0, 0, 0)" stroke-linecap="butt" stroke-linejoin="round" stroke-opacity="1.0" stroke-width="3.0" />
            <path d=" M 364.502, 397.900 359.812, 406.732 357.301, 411.460 " fill="none" stroke="rgb(0, 0, 0)" stroke-linecap="butt" stroke-linejoin="round" stroke-opacity="1.0" stroke-width="3.0" />
            <path d=" M 469.793, 132.365 465.743, 132.640 " fill="none" stroke="rgb(0, 0, 0)" stroke-linecap="butt" stroke-linejoin="round" stroke-opacity="1.0" stroke-width="3.0" />
            <path d=" M 540.245, 502.274 541.171, 502.308 540.043, 502.949 " fill="none" stroke="rgb(0, 0, 0)" stroke-linecap="butt" stroke-linejoin="round" stroke-opacity="1.0" stroke-width="3.0" />
            <path d=" M 572.815, 255.166 572.346, 254.559 " fill="none" stroke="rgb(0, 0, 0)" stroke-linecap="butt" stroke-linejoin="round" stroke-opacity="1.0" stroke-width="3.0" />
            <path d=" M 583.717, 268.320 578.019, 261.774 " fill="none" stroke="rgb(0, 0, 0)" stroke-linecap="butt" stroke-linejoin="round" stroke-opacity="1.0" stroke-width="3.0" />
            <path d=" M 791.215, 540.418 791.385, 544.078 " fill="none" stroke="rgb(0, 0, 0)" stroke-linecap="butt" stroke-linejoin="round" stroke-opacity="1.0" stroke-width="3.0" />
            <path d=" M 794.821, 522.089 794.459, 517.291 " fill="none" stroke="rgb(0, 0, 0)" stroke-linecap="butt" stroke-linejoin="round" stroke-opacity="1.0" stroke-width="3.0" />
            <path d=" M 800.271, 519.747 800.128, 517.824 " fill="none" stroke="rgb(0, 0, 0)" stroke-linecap="butt" stroke-linejoin="round" stroke-opacity="1.0" stroke-width="3.0" />
            <path d=" M 801.457, 518.886 801.387, 517.943 " fill="none" stroke="rgb(0, 0, 0)" stroke-linecap="butt" stroke-linejoin="round" stroke-opacity="1.0" stroke-width="3.0" />
        </g>
    </g>
</svg>
