<?xml version='1.0' encoding='ascii'?>
<svg xmlns="http://www.w3.org/2000/svg" height="1080" version="1.1" width="1080">
    <g id="View Layer_LineSet" inkscape:groupmode="lineset" inkscape:label="View Layer_LineSet" xmlns:inkscape="http://www.inkscape.org/namespaces/inkscape">
        <g id="strokes" inkscape:groupmode="layer" inkscape:label="strokes" xmlns:inkscape="http://www.inkscape.org/namespaces/inkscape">
            <path d=" M 357.926, 401.392 364.360, 399.256 " fill="none" stroke="rgb(0, 0, 0)" stroke-linecap="butt" stroke-linejoin="round" stroke-opacity="1.0" stroke-width="3.0" />
            <path d=" M 382.237, 399.296 392.073, 401.102 394.142, 401.482 " fill="none" stroke="rgb(0, 0, 0)" stroke-linecap="butt" stroke-linejoin="round" stroke-opacity="1.0" stroke-width="3.0" />
            <path d=" M 394.142, 401.482 390.440, 392.193 386.738, 382.903 386.253, 381.686 " fill="none" stroke="rgb(0, 0, 0)" stroke-linecap="butt" stroke-linejoin="round" stroke-opacity="1.0" stroke-width="3.0" />
            <path d=" M 467.065, 129.060 462.564, 129.482 458.011, 130.993 453.420, 133.629 448.807, 137.422 444.188, 142.399 439.581, 148.582 439.044, 149.452 438.473, 150.375 435.006, 155.986 430.484, 164.625 426.376, 173.742 426.034, 174.501 422.383, 183.811 421.678, 185.609 418.427, 195.066 417.440, 197.938 414.542, 207.508 413.342, 211.468 410.757, 221.128 409.408, 226.169 407.103, 235.899 405.659, 241.998 403.610, 251.786 402.119, 258.910 400.305, 268.744 398.810, 276.845 397.213, 286.716 395.754, 295.733 394.358, 305.635 392.968, 315.496 391.764, 325.423 390.559, 335.350 390.474, 336.049 389.450, 345.996 388.426, 355.943 388.287, 357.296 387.436, 367.260 386.584, 377.223 386.421, 379.135 386.253, 381.686 384.030, 391.436 382.237, 399.296 " fill="none" stroke="rgb(0, 0, 0)" stroke-linecap="butt" stroke-linejoin="round" stroke-opacity="1.0" stroke-width="3.0" />
            <path d=" M 526.413, 716.158 526.960, 713.600 528.639, 705.741 530.560, 695.928 530.979, 693.788 532.744, 683.945 533.186, 681.486 534.806, 671.618 535.259, 668.860 536.742, 658.970 537.198, 655.937 538.553, 646.030 539.003, 642.745 540.236, 632.821 540.673, 629.305 541.791, 619.368 542.138, 616.287 542.210, 615.641 543.217, 605.692 543.614, 601.778 544.514, 591.818 544.883, 587.736 545.681, 577.767 546.019, 573.535 546.717, 563.560 547.022, 559.198 547.623, 549.217 547.892, 544.745 548.398, 534.758 548.629, 530.195 555.275, 530.139 557.124, 530.124 557.261, 530.123 559.047, 530.108 562.621, 530.078 563.467, 530.071 564.409, 530.063 566.984, 530.042 576.983, 529.959 577.627, 529.954 578.023, 519.961 578.209, 515.267 578.487, 505.271 578.619, 500.516 578.780, 490.517 578.857, 485.720 578.902, 475.720 578.923, 470.898 578.851, 460.898 578.816, 456.071 578.628, 446.073 578.537, 441.258 578.231, 431.263 578.084, 426.479 577.773, 419.167 " fill="none" stroke="rgb(0, 0, 0)" stroke-linecap="butt" stroke-linejoin="round" stroke-opacity="1.0" stroke-width="3.0" />
            <path d=" M 574.861, 424.318 575.048, 428.678 575.357, 438.673 575.486, 442.838 575.676, 452.836 575.756, 457.033 575.829, 467.033 575.860, 471.244 575.815, 481.244 575.796, 485.450 575.635, 495.449 575.567, 499.632 575.287, 509.628 575.171, 513.769 575.128, 514.854 575.027, 515.475 574.918, 516.053 574.804, 516.585 574.683, 517.068 574.557, 517.500 574.427, 517.878 574.294, 518.200 574.157, 518.464 574.018, 518.669 573.878, 518.814 573.737, 518.898 573.597, 518.921 573.457, 518.882 573.319, 518.781 569.411, 515.024 569.283, 513.676 569.125, 512.453 568.938, 511.373 568.727, 510.457 568.493, 509.719 568.242, 509.172 567.977, 508.826 567.703, 508.688 567.573, 508.685 565.021, 508.644 564.061, 508.629 563.235, 508.615 559.667, 508.558 557.884, 508.529 557.807, 508.528 557.319, 508.520 557.029, 508.592 556.740, 508.873 556.456, 509.359 556.181, 510.044 555.922, 510.915 555.898, 511.017 555.681, 511.959 555.464, 513.157 555.273, 514.490 555.113, 515.935 554.986, 517.467 554.894, 519.060 555.637, 519.724 556.533, 520.525 557.457, 520.541 557.578, 520.543 557.630, 520.544 559.361, 520.575 562.930, 520.638 563.761, 520.653 564.716, 520.670 565.117, 520.677 566.937, 520.709 566.967, 520.206 567.010, 519.730 567.065, 519.295 567.131, 518.911 567.155, 518.808 567.206, 518.590 567.288, 518.341 567.335, 518.247 567.375, 518.169 567.463, 518.080 567.552, 518.075 " fill="none" stroke="rgb(0, 0, 0)" stroke-linecap="butt" stroke-linejoin="round" stroke-opacity="1.0" stroke-width="3.0" />
            <path d=" M 567.978, 521.676 574.610, 527.843 577.627, 529.954 " fill="none" stroke="rgb(0, 0, 0)" stroke-linecap="butt" stroke-linejoin="round" stroke-opacity="1.0" stroke-width="3.0" />
            <path d=" M 391.928, 191.127 389.446, 198.898 386.723, 208.520 385.663, 212.270 383.223, 221.968 382.004, 226.815 379.818, 236.573 378.491, 242.496 376.534, 252.302 375.144, 259.268 373.396, 269.114 371.982, 277.078 370.426, 286.956 369.025, 295.856 367.649, 305.761 366.291, 315.529 365.084, 325.456 363.876, 335.383 363.799, 336.016 362.752, 345.961 361.704, 355.906 361.565, 357.223 360.670, 367.182 359.774, 377.142 359.603, 379.050 358.855, 389.022 358.106, 398.994 357.926, 401.392 357.367, 411.376 356.808, 421.360 356.653, 424.125 356.256, 434.117 355.858, 444.109 355.738, 447.121 355.500, 457.118 355.261, 467.115 355.186, 470.259 355.107, 480.258 355.027, 490.258 355.002, 493.417 355.081, 503.417 355.161, 513.416 355.186, 516.474 355.426, 526.471 355.667, 536.468 355.736, 539.310 356.141, 549.302 356.546, 559.293 356.648, 561.807 357.222, 571.791 357.797, 581.774 357.916, 583.852 358.666, 593.824 359.416, 603.796 359.532, 605.337 360.464, 615.294 361.396, 625.250 361.481, 626.162 362.606, 636.099 363.753, 646.233 365.081, 656.144 366.330, 665.463 367.877, 675.342 368.909, 681.937 " fill="none" stroke="rgb(0, 0, 0)" stroke-linecap="butt" stroke-linejoin="round" stroke-opacity="1.0" stroke-width="3.0" />
            <path d=" M 492.068, 732.177 490.262, 737.883 487.056, 747.099 483.719, 755.785 480.256, 763.910 476.671, 771.440 472.968, 778.339 469.152, 784.569 465.230, 790.096 461.207, 794.883 457.091, 798.892 456.114, 799.634 " fill="none" stroke="rgb(0, 0, 0)" stroke-linecap="butt" stroke-linejoin="round" stroke-opacity="1.0" stroke-width="3.0" />
            <path d=" M 394.477, 396.457 394.142, 401.482 393.617, 411.469 393.092, 421.455 392.950, 424.160 392.588, 434.153 392.226, 444.146 392.119, 447.099 391.917, 457.097 391.715, 467.095 391.653, 470.180 391.610, 480.180 391.567, 490.180 391.554, 493.284 391.671, 503.283 391.787, 513.283 391.822, 516.288 392.099, 526.284 392.375, 536.281 392.452, 539.074 392.891, 549.065 393.329, 559.055 393.437, 561.526 394.041, 571.508 394.645, 581.489 394.768, 583.530 395.542, 593.500 396.315, 603.470 396.432, 604.978 397.382, 614.933 398.331, 624.888 398.415, 625.772 399.548, 635.708 400.700, 645.817 402.026, 655.729 403.270, 665.026 404.801, 674.908 406.105, 683.323 407.855, 693.168 409.183, 700.641 411.171, 710.441 412.485, 716.920 414.732, 726.665 415.988, 732.111 418.520, 741.785 419.669, 746.174 422.520, 755.759 423.508, 759.079 426.717, 768.550 427.481, 770.802 431.099, 780.124 431.567, 781.330 435.656, 790.456 435.746, 790.658 439.997, 798.788 444.301, 805.724 444.390, 805.841 444.691, 806.242 448.639, 811.483 452.995, 816.084 457.351, 819.551 461.693, 821.910 466.006, 823.194 470.277, 823.438 474.495, 822.675 478.649, 820.944 482.730, 818.286 486.727, 814.741 490.038, 811.018 490.634, 810.347 494.444, 805.146 498.150, 799.179 501.747, 792.486 504.837, 785.940 " fill="none" stroke="rgb(0, 0, 0)" stroke-linecap="butt" stroke-linejoin="round" stroke-opacity="1.0" stroke-width="3.0" />
            <path d=" M 469.938, 805.363 465.909, 804.927 464.926, 804.582 461.855, 803.505 457.789, 801.068 456.114, 799.634 453.725, 797.587 449.677, 793.039 445.660, 787.406 441.692, 780.671 437.788, 772.822 433.967, 763.857 430.504, 754.476 430.246, 753.778 427.182, 744.259 426.645, 742.589 423.931, 732.965 423.182, 730.307 420.778, 720.600 419.875, 716.956 417.750, 707.184 416.745, 702.565 414.872, 692.742 413.810, 687.172 412.167, 677.308 411.088, 670.824 409.658, 660.927 408.596, 653.579 407.364, 643.655 406.352, 635.498 405.306, 625.553 404.371, 616.652 403.501, 606.690 402.667, 597.122 401.966, 587.146 401.252, 576.993 400.713, 567.008 400.174, 557.023 400.138, 556.359 399.756, 546.366 399.374, 536.374 399.334, 535.316 399.105, 525.319 398.876, 515.322 398.845, 513.969 398.767, 503.969 398.689, 493.970 398.677, 492.423 398.749, 482.423 398.821, 472.424 398.832, 470.787 399.054, 460.790 399.275, 450.792 399.311, 449.172 399.682, 439.178 400.053, 429.185 400.109, 427.686 400.435, 421.457 " fill="none" stroke="rgb(0, 0, 0)" stroke-linecap="butt" stroke-linejoin="round" stroke-opacity="1.0" stroke-width="3.0" />
            <path d=" M 501.508, 774.475 500.053, 777.435 496.573, 783.642 492.998, 789.146 489.333, 793.912 485.586, 797.902 481.765, 801.077 477.876, 803.402 473.931, 804.844 469.938, 805.363 " fill="none" stroke="rgb(0, 0, 0)" stroke-linecap="butt" stroke-linejoin="round" stroke-opacity="1.0" stroke-width="3.0" />
            <path d=" M 546.124, 528.109 545.613, 538.096 545.410, 542.048 544.798, 552.029 544.560, 555.891 543.845, 565.865 543.575, 569.617 542.754, 579.583 542.455, 583.206 541.524, 593.163 541.199, 596.637 540.156, 606.583 539.810, 609.890 538.650, 619.823 538.286, 622.943 537.005, 632.861 536.629, 635.773 535.220, 645.673 534.839, 648.356 534.452, 650.835 532.917, 660.670 531.233, 670.527 530.863, 672.690 529.028, 682.520 528.679, 684.388 526.683, 694.187 526.367, 695.740 524.553, 703.898 " fill="none" stroke="rgb(0, 0, 0)" stroke-linecap="butt" stroke-linejoin="round" stroke-opacity="1.0" stroke-width="3.0" />
            <path d=" M 548.629, 530.195 546.124, 528.109 555.362, 528.023 557.211, 528.006 562.690, 527.955 564.478, 527.938 564.819, 527.935 564.488, 527.639 563.573, 526.821 562.752, 526.086 559.282, 522.983 557.614, 521.491 557.630, 520.978 557.630, 520.544 " fill="none" stroke="rgb(0, 0, 0)" stroke-linecap="butt" stroke-linejoin="round" stroke-opacity="1.0" stroke-width="3.0" />
            <path d=" M 382.237, 399.296 381.700, 409.281 381.163, 419.267 380.967, 422.901 380.589, 432.894 380.212, 442.887 380.065, 446.782 379.845, 456.780 379.625, 466.777 379.536, 470.812 379.473, 480.812 379.409, 490.812 379.384, 494.864 379.478, 504.863 379.572, 514.863 379.609, 518.808 379.861, 528.804 380.114, 538.801 380.208, 542.517 380.621, 552.509 381.034, 562.500 381.174, 565.869 381.752, 575.853 382.331, 585.836 382.500, 588.744 383.249, 598.716 383.998, 608.688 384.174, 611.028 385.100, 620.985 386.026, 630.942 386.182, 632.616 387.294, 642.554 388.406, 652.492 388.509, 653.409 389.818, 663.323 391.138, 673.317 392.656, 683.201 394.048, 692.259 395.792, 702.106 397.220, 710.167 399.208, 719.967 400.631, 726.979 402.889, 736.721 404.261, 742.644 406.815, 752.312 408.086, 757.123 410.971, 766.698 412.082, 770.386 415.342, 779.840 416.229, 782.410 419.916, 791.706 420.502, 793.183 424.681, 802.268 424.880, 802.703 429.342, 810.972 433.868, 818.000 438.437, 823.803 443.030, 828.406 447.632, 831.834 452.225, 834.115 456.794, 835.288 461.324, 835.388 465.804, 834.454 470.221, 832.524 474.565, 829.645 478.825, 825.857 482.993, 821.201 487.062, 815.721 " fill="none" stroke="rgb(0, 0, 0)" stroke-linecap="butt" stroke-linejoin="round" stroke-opacity="1.0" stroke-width="3.0" />
            <path d=" M 487.062, 815.721 492.786, 807.521 494.444, 805.146 " fill="none" stroke="rgb(0, 0, 0)" stroke-linecap="butt" stroke-linejoin="round" stroke-opacity="1.0" stroke-width="3.0" />
            <path d=" M 538.854, 553.060 529.134, 553.565 " fill="none" stroke="rgb(0, 0, 0)" stroke-linecap="butt" stroke-linejoin="round" stroke-opacity="1.0" stroke-width="3.0" />
            <path d=" M 541.167, 504.193 540.857, 514.188 540.547, 524.184 540.423, 528.162 539.860, 538.147 539.636, 542.111 538.923, 552.085 538.854, 553.060 534.891, 543.878 532.337, 537.962 " fill="none" stroke="rgb(0, 0, 0)" stroke-linecap="butt" stroke-linejoin="round" stroke-opacity="1.0" stroke-width="3.0" />
            <path d=" M 366.195, 374.071 365.906, 377.436 365.200, 387.411 365.164, 387.919 364.457, 397.894 364.360, 399.256 363.796, 409.240 363.233, 419.224 363.110, 421.403 362.686, 431.394 362.262, 441.385 362.161, 443.788 361.876, 453.784 361.591, 463.780 361.518, 466.324 361.469, 469.710 " fill="none" stroke="rgb(0, 0, 0)" stroke-linecap="butt" stroke-linejoin="round" stroke-opacity="1.0" stroke-width="3.0" />
            <path d=" M 532.491, 745.351 533.091, 742.620 535.096, 732.823 535.372, 731.474 537.243, 721.651 537.545, 720.065 539.290, 710.218 539.610, 708.411 541.236, 698.544 541.568, 696.528 543.080, 686.643 543.418, 684.434 544.822, 674.533 545.161, 672.143 546.460, 662.228 546.795, 659.672 547.994, 649.745 548.321, 647.035 549.424, 637.096 549.740, 634.246 550.749, 624.297 551.051, 621.319 551.969, 611.361 552.254, 608.266 553.083, 598.301 553.349, 595.101 554.092, 585.129 554.337, 581.836 554.995, 571.858 555.217, 568.483 555.791, 558.500 555.989, 555.054 556.481, 545.066 556.654, 541.560 557.064, 531.569 557.124, 530.124 " fill="none" stroke="rgb(0, 0, 0)" stroke-linecap="butt" stroke-linejoin="round" stroke-opacity="1.0" stroke-width="3.0" />
            <path d=" M 460.414, 875.666 462.825, 875.820 466.928, 875.704 470.988, 874.782 474.997, 873.083 478.949, 870.637 482.837, 867.474 486.655, 863.624 490.398, 859.117 494.062, 853.982 497.641, 848.250 501.134, 841.949 504.536, 835.106 507.844, 827.751 511.056, 819.909 513.825, 812.528 " fill="none" stroke="rgb(0, 0, 0)" stroke-linecap="butt" stroke-linejoin="round" stroke-opacity="1.0" stroke-width="3.0" />
            <path d=" M 516.797, 143.582 515.962, 141.397 512.769, 133.841 509.467, 126.815 506.057, 120.347 502.542, 114.469 498.926, 109.212 495.211, 104.607 491.404, 100.685 487.508, 97.480 483.529, 95.022 479.473, 93.344 475.348, 92.477 471.161, 92.451 470.639, 92.555 466.920, 93.296 462.634, 95.040 458.313, 97.710 453.969, 101.331 449.611, 105.924 445.254, 111.509 440.908, 118.103 436.589, 125.718 433.767, 131.418 432.310, 134.363 428.311, 143.529 428.086, 144.042 427.678, 145.095 424.064, 154.419 423.934, 154.755 420.661, 164.205 419.868, 166.496 416.901, 176.046 415.905, 179.255 413.214, 188.886 412.062, 193.013 409.622, 202.711 408.355, 207.748 406.144, 217.501 404.800, 223.431 402.802, 233.230 401.416, 240.027 399.614, 249.863 398.217, 257.492 396.599, 267.361 395.219, 275.779 393.774, 285.674 392.437, 294.834 391.157, 304.751 389.886, 314.594 388.763, 324.531 387.639, 334.468 387.579, 334.995 386.606, 344.947 385.633, 354.900 385.529, 355.964 384.700, 365.929 383.872, 375.895 383.745, 377.424 383.057, 387.401 382.370, 397.377 382.237, 399.296 381.687, 409.281 381.137, 419.266 381.014, 421.494 380.599, 431.486 380.184, 441.477 380.082, 443.933 379.801, 453.929 379.519, 463.925 379.446, 466.522 379.296, 476.521 379.147, 486.520 379.108, 489.171 379.090, 499.171 379.073, 509.171 379.069, 511.790 379.185, 521.790 379.300, 531.789 379.329, 534.289 379.579, 544.285 379.828, 554.282 379.886, 556.577 380.271, 566.570 380.657, 576.562 380.734, 578.569 381.259, 588.555 381.783, 598.542 381.870, 600.180 382.537, 610.158 383.204, 620.136 383.284, 621.330 384.098, 631.297 384.912, 641.264 384.967, 641.943 385.935, 651.896 386.911, 661.947 388.038, 671.883 389.103, 681.276 390.398, 691.191 391.530, 699.868 393.003, 709.760 394.180, 717.671 395.841, 727.532 397.038, 734.634 398.901, 744.459 400.089, 750.717 402.171, 760.498 403.317, 765.882 405.637, 775.609 406.708, 780.100 409.287, 789.761 410.245, 793.347 413.111, 802.927 413.913, 805.606 417.098, 815.085 417.696, 816.864 418.105, 817.945 418.146, 818.053 421.579, 827.115 425.546, 836.356 429.583, 844.591 433.676, 851.827 437.812, 858.075 441.976, 863.349 446.157, 867.668 450.343, 871.050 454.523, 873.520 458.687, 875.101 461.729, 875.629 462.825, 875.820 " fill="none" stroke="rgb(0, 0, 0)" stroke-linecap="butt" stroke-linejoin="round" stroke-opacity="1.0" stroke-width="3.0" />
            <path d=" M 468.697, 92.543 464.429, 93.389 460.116, 95.134 455.768, 97.804 451.396, 101.424 447.012, 106.017 442.627, 111.602 438.255, 118.194 433.909, 125.807 430.993, 131.661 429.604, 134.450 425.584, 143.607 425.355, 144.127 421.719, 153.450 421.178, 154.837 417.887, 164.280 417.088, 166.575 414.105, 176.119 413.101, 179.329 410.396, 188.956 409.236, 193.083 406.782, 202.777 405.507, 207.813 403.284, 217.563 401.933, 223.491 399.923, 233.287 398.529, 240.080 396.717, 249.915 395.312, 257.540 393.685, 267.406 392.298, 275.820 390.846, 285.714 389.502, 294.867 388.214, 304.784 386.938, 314.620 385.808, 324.556 384.678, 334.492 384.619, 335.013 383.640, 344.965 382.662, 354.917 382.558, 355.974 381.725, 365.939 380.893, 375.904 380.766, 377.426 380.075, 387.402 379.384, 397.378 379.252, 399.289 378.700, 409.274 378.147, 419.259 378.024, 421.479 377.608, 431.471 377.191, 441.462 377.089, 443.909 376.807, 453.905 376.525, 463.901 376.452, 466.489 376.303, 476.488 376.154, 486.487 376.115, 489.129 376.099, 499.129 376.083, 509.129 376.079, 511.740 376.197, 521.739 376.314, 531.738 376.344, 534.229 376.596, 544.226 376.849, 554.223 376.907, 556.509 377.296, 566.502 377.686, 576.494 377.764, 578.493 378.293, 588.479 378.822, 598.465 378.909, 600.096 379.582, 610.073 380.254, 620.051 380.335, 621.238 381.155, 631.204 381.976, 641.171 382.032, 641.843 383.007, 651.796 383.990, 661.840 385.126, 671.775 386.199, 681.162 387.503, 691.077 388.644, 699.749 390.127, 709.638 391.312, 717.545 392.986, 727.404 394.190, 734.503 396.067, 744.326 397.262, 750.581 399.359, 760.359 400.513, 765.741 402.849, 775.465 403.927, 779.956 406.524, 789.612 407.488, 793.199 410.373, 802.774 411.181, 805.455 412.400, 809.056 413.220, 811.481 414.990, 816.711 418.553, 826.054 418.898, 826.959 422.892, 836.199 426.956, 844.433 431.076, 851.668 435.239, 857.916 439.430, 863.190 443.638, 867.509 447.852, 870.892 452.059, 873.363 456.250, 874.945 460.414, 875.666 " fill="none" stroke="rgb(0, 0, 0)" stroke-linecap="butt" stroke-linejoin="round" stroke-opacity="1.0" stroke-width="3.0" />
            <path d=" M 471.161, 92.451 468.697, 92.543 " fill="none" stroke="rgb(0, 0, 0)" stroke-linecap="butt" stroke-linejoin="round" stroke-opacity="1.0" stroke-width="3.0" />
            <path d=" M 538.457, 766.446 539.157, 763.155 541.101, 753.346 541.536, 751.149 542.278, 747.134 543.802, 738.882 545.497, 729.027 545.954, 726.372 547.535, 716.498 547.993, 713.637 549.465, 703.746 549.919, 700.694 551.286, 690.788 551.731, 687.559 552.998, 677.639 553.431, 674.246 554.601, 664.315 555.018, 660.772 556.094, 650.830 556.493, 647.149 557.479, 637.197 557.856, 633.391 558.753, 623.431 559.106, 619.512 559.918, 609.545 560.245, 605.523 560.973, 595.550 561.273, 591.438 561.918, 581.459 562.189, 577.268 562.753, 567.284 562.993, 563.024 563.477, 553.036 563.687, 548.718 564.092, 538.727 564.268, 534.361 564.409, 530.063 " fill="none" stroke="rgb(0, 0, 0)" stroke-linecap="butt" stroke-linejoin="round" stroke-opacity="1.0" stroke-width="3.0" />
            <path d=" M 462.426, 911.964 464.803, 912.127 469.205, 911.554 473.553, 910.120 477.839, 907.860 482.057, 904.807 486.199, 900.997 490.260, 896.464 494.236, 891.242 498.120, 885.366 501.911, 878.868 505.603, 871.780 509.195, 864.134 512.683, 855.961 516.065, 847.289 519.340, 838.146 521.543, 831.478 " fill="none" stroke="rgb(0, 0, 0)" stroke-linecap="butt" stroke-linejoin="round" stroke-opacity="1.0" stroke-width="3.0" />
            <path d=" M 541.329, 191.965 539.189, 182.197 539.004, 181.352 537.633, 175.582 536.396, 170.376 533.899, 160.693 533.662, 159.774 530.963, 150.145 530.802, 149.572 527.881, 140.008 527.816, 139.797 524.705, 130.478 521.469, 121.645 518.110, 113.328 514.630, 105.560 511.031, 98.373 507.314, 91.801 503.484, 85.879 499.544, 80.642 495.497, 76.127 491.349, 72.369 487.105, 69.406 482.771, 67.275 478.355, 66.012 473.863, 65.653 472.448, 65.833 469.305, 66.234 464.691, 67.788 460.030, 70.347 455.334, 73.943 450.615, 78.604 445.886, 84.354 441.163, 91.216 436.458, 99.207 431.906, 108.111 431.789, 108.341 430.863, 110.404 427.172, 118.626 426.225, 121.009 422.624, 130.065 420.038, 137.367 418.164, 142.656 415.142, 152.189 413.810, 156.390 411.072, 166.008 409.580, 171.250 407.100, 180.937 405.754, 186.194 405.493, 187.213 403.249, 196.958 401.570, 204.249 399.543, 214.042 397.829, 222.320 396.003, 232.152 394.288, 241.381 392.650, 251.245 391.011, 261.110 390.967, 261.377 389.505, 271.269 388.042, 281.162 387.882, 282.248 386.587, 292.163 385.292, 302.079 385.050, 303.925 383.914, 313.860 382.778, 323.795 382.488, 326.334 381.504, 336.285 380.521, 346.237 380.209, 349.392 379.372, 359.357 378.536, 369.322 378.226, 373.012 377.532, 382.988 376.838, 392.963 376.550, 397.101 375.996, 407.085 375.441, 417.070 375.192, 421.561 374.774, 431.553 374.356, 441.544 374.158, 446.293 373.875, 456.289 373.592, 466.285 373.453, 471.193 373.305, 481.192 373.156, 491.191 373.082, 496.157 373.068, 506.157 373.053, 516.157 373.046, 521.079 373.166, 531.078 373.286, 541.077 373.343, 545.854 373.599, 555.851 373.855, 565.848 373.971, 570.381 374.365, 580.373 374.759, 590.365 374.925, 594.558 375.460, 604.544 375.996, 614.530 376.197, 618.290 376.878, 628.267 377.558, 638.244 377.779, 641.484 378.610, 651.449 379.440, 661.415 379.660, 664.053 380.647, 674.004 381.634, 683.955 381.828, 685.916 382.978, 695.849 384.128, 705.783 384.269, 706.999 385.592, 716.911 386.914, 726.823 386.969, 727.234 388.474, 737.120 389.911, 746.560 391.611, 756.415 392.101, 759.254 393.079, 764.926 394.989, 774.742 396.456, 782.285 396.940, 784.498 399.076, 794.267 400.024, 798.600 402.408, 808.312 403.765, 813.841 404.866, 817.839 407.521, 827.480 407.660, 827.983 410.439, 836.963 411.692, 841.012 414.985, 850.454 415.843, 852.916 419.514, 862.218 420.096, 863.693 424.195, 872.814 424.433, 873.345 428.839, 881.878 433.297, 889.306 437.792, 895.644 442.310, 900.913 446.837, 905.136 451.362, 908.340 455.871, 910.552 460.355, 911.804 462.473, 911.958 464.803, 912.127 " fill="none" stroke="rgb(0, 0, 0)" stroke-linecap="butt" stroke-linejoin="round" stroke-opacity="1.0" stroke-width="3.0" />
            <path d=" M 366.560, 369.624 366.269, 373.026 366.195, 374.071 365.488, 384.046 365.221, 387.813 364.564, 397.077 364.467, 398.805 363.903, 408.789 363.339, 418.773 363.185, 421.500 362.762, 431.491 362.371, 440.717 362.139, 446.193 361.854, 456.189 361.569, 466.185 361.469, 469.710 361.430, 471.053 361.283, 481.052 361.136, 491.051 361.063, 495.978 361.054, 505.978 361.044, 515.978 361.039, 520.800 361.039, 520.860 361.056, 522.197 " fill="none" stroke="rgb(0, 0, 0)" stroke-linecap="butt" stroke-linejoin="round" stroke-opacity="1.0" stroke-width="3.0" />
            <path d=" M 471.430, 65.753 466.843, 66.334 462.200, 67.889 457.509, 70.449 452.784, 74.045 448.036, 78.706 443.278, 84.455 438.526, 91.316 433.793, 99.305 429.218, 108.198 429.095, 108.437 424.979, 117.550 424.451, 118.719 423.344, 121.487 419.876, 130.156 416.519, 139.575 416.017, 140.981 415.714, 141.831 415.389, 142.743 412.350, 152.270 411.009, 156.472 408.256, 166.086 406.755, 171.327 404.261, 181.011 402.646, 187.285 400.389, 197.027 398.700, 204.316 397.187, 211.580 395.148, 221.370 394.938, 222.381 393.101, 232.211 391.378, 241.434 389.730, 251.297 388.082, 261.161 388.038, 261.423 386.568, 271.314 385.098, 281.206 384.937, 282.286 383.635, 292.201 382.332, 302.116 382.091, 303.955 380.949, 313.890 379.806, 323.824 379.515, 326.355 378.527, 336.306 377.538, 346.257 377.225, 349.405 376.384, 359.369 375.544, 369.334 375.233, 373.015 374.536, 382.991 373.839, 392.967 373.550, 397.095 372.994, 407.079 372.437, 417.064 372.187, 421.546 371.767, 431.537 371.348, 441.528 371.149, 446.268 370.866, 456.264 370.583, 466.260 370.444, 471.158 370.296, 481.157 370.148, 491.156 370.074, 496.112 370.061, 506.112 370.047, 516.112 370.041, 521.024 370.163, 531.023 370.285, 541.023 370.343, 545.790 370.602, 555.787 370.861, 565.783 370.978, 570.307 371.376, 580.299 371.774, 590.291 371.941, 594.475 372.481, 604.461 373.021, 614.446 373.224, 618.198 373.911, 628.175 374.597, 638.151 374.819, 641.383 375.657, 651.348 376.494, 661.313 376.715, 663.944 377.709, 673.894 378.704, 683.845 378.899, 685.799 380.058, 695.732 381.217, 705.665 381.358, 706.875 382.691, 716.786 384.023, 726.697 384.078, 727.103 384.709, 731.220 386.225, 741.105 387.041, 746.424 388.753, 756.276 390.231, 764.784 391.652, 772.035 393.575, 781.848 393.631, 782.138 393.801, 782.909 395.952, 792.675 397.224, 798.448 399.623, 808.156 400.990, 813.684 401.924, 817.053 404.597, 826.689 404.911, 827.823 407.887, 837.371 408.971, 840.849 412.283, 850.284 413.149, 852.751 416.842, 862.044 417.430, 863.526 421.552, 872.637 421.796, 873.176 426.230, 881.709 430.717, 889.136 435.241, 895.474 439.789, 900.744 444.346, 904.967 448.899, 908.172 453.438, 910.385 457.950, 911.639 462.426, 911.964 " fill="none" stroke="rgb(0, 0, 0)" stroke-linecap="butt" stroke-linejoin="round" stroke-opacity="1.0" stroke-width="3.0" />
            <path d=" M 473.863, 65.653 471.430, 65.753 " fill="none" stroke="rgb(0, 0, 0)" stroke-linecap="butt" stroke-linejoin="round" stroke-opacity="1.0" stroke-width="3.0" />
            <path d=" M 548.691, 211.856 548.176, 208.822 546.366, 198.987 545.890, 196.401 543.934, 186.594 543.473, 184.281 541.362, 174.507 540.925, 172.486 538.646, 162.749 538.246, 161.040 535.784, 151.348 535.435, 149.970 532.775, 140.330 532.491, 139.301 529.614, 129.724 529.416, 129.064 526.299, 119.562 526.209, 119.288 522.872, 110.003 519.404, 101.242 515.809, 93.038 512.086, 85.427 508.240, 78.443 504.271, 72.124 500.185, 66.507 495.984, 61.631 491.674, 57.535 487.260, 54.259 482.748, 51.843 478.146, 50.326 473.460, 49.747 468.619, 49.955 463.799, 50.356 458.914, 51.771 453.975, 54.236 448.994, 57.785 443.984, 62.451 438.958, 68.261 433.932, 75.241 428.923, 83.411 424.235, 92.245 423.946, 92.790 419.731, 101.858 419.020, 103.386 415.220, 112.636 414.164, 115.208 410.731, 124.600 409.397, 128.252 406.292, 137.758 404.739, 142.512 401.928, 152.109 400.211, 157.973 397.667, 167.644 395.833, 174.612 393.532, 184.343 391.928, 191.127 391.628, 192.398 389.550, 202.179 387.615, 211.291 385.744, 221.114 383.874, 230.938 383.815, 231.244 382.138, 241.103 380.461, 250.961 380.249, 252.202 378.754, 262.089 377.258, 271.977 376.937, 274.099 375.612, 284.011 374.288, 293.923 373.895, 296.862 372.735, 306.795 371.574, 316.727 371.143, 320.412 370.139, 330.362 369.135, 340.311 368.696, 344.661 368.639, 345.326 367.786, 355.290 366.933, 365.253 366.568, 369.513 366.560, 369.624 366.486, 370.668 365.779, 380.643 365.279, 387.705 364.771, 394.870 364.575, 398.348 364.011, 408.332 363.447, 418.316 363.317, 420.626 362.894, 430.617 362.470, 440.609 362.213, 446.673 361.928, 456.669 361.886, 458.159 361.601, 468.155 361.466, 472.899 361.319, 482.898 361.183, 492.134 361.079, 499.191 361.069, 509.191 361.059, 519.191 361.057, 521.448 361.056, 522.197 361.053, 525.434 361.182, 535.433 361.310, 545.433 361.388, 551.516 361.657, 561.513 361.925, 571.509 362.081, 577.327 362.491, 587.318 362.901, 597.310 363.124, 602.756 363.680, 612.741 364.235, 622.725 364.512, 627.701 365.216, 637.676 365.921, 647.651 366.232, 652.062 367.091, 662.025 367.950, 671.988 368.274, 675.747 368.909, 681.937 369.929, 691.884 370.624, 698.668 371.813, 708.597 373.001, 718.526 373.267, 720.746 374.633, 730.652 375.999, 740.559 376.186, 741.910 377.740, 751.789 379.295, 761.667 379.363, 762.096 381.119, 771.941 382.780, 781.249 384.753, 791.053 386.418, 799.322 388.627, 809.075 390.257, 816.277 392.723, 825.968 394.278, 832.081 397.026, 841.696 398.460, 846.715 401.522, 856.234 402.784, 860.161 406.196, 869.561 407.231, 872.412 411.037, 881.659 411.781, 883.466 416.034, 892.516 416.416, 893.329 421.118, 902.010 425.871, 909.524 430.658, 915.892 435.463, 921.137 440.274, 925.286 445.075, 928.368 449.856, 930.417 454.603, 931.465 459.385, 931.805 464.031, 931.885 468.624, 931.035 473.156, 929.294 477.619, 926.699 482.007, 923.288 486.312, 919.099 490.529, 914.168 494.652, 908.533 498.679, 902.228 502.604, 895.290 506.425, 887.752 510.138, 879.648 513.741, 871.009 517.233, 861.866 520.547, 852.431 520.611, 852.249 523.696, 842.737 523.874, 842.187 524.926, 838.686 " fill="none" stroke="rgb(0, 0, 0)" stroke-linecap="butt" stroke-linejoin="round" stroke-opacity="1.0" stroke-width="3.0" />
            <path d=" M 541.007, 773.881 542.928, 764.067 543.447, 761.415 545.242, 751.577 545.772, 748.673 547.449, 738.814 547.980, 735.690 549.544, 725.813 550.071, 722.484 551.528, 712.591 552.046, 709.073 553.399, 699.165 553.903, 695.472 555.158, 685.551 555.645, 681.697 556.804, 671.764 557.271, 667.761 558.338, 657.818 558.782, 653.680 559.759, 643.728 560.177, 639.467 561.068, 629.507 561.458, 625.134 562.263, 615.167 562.625, 610.695 563.347, 600.721 563.677, 596.161 564.318, 586.181 564.615, 581.543 565.176, 571.559 565.440, 566.853 565.921, 556.865 566.150, 552.103 566.553, 542.111 566.747, 537.302 566.984, 530.042 " fill="none" stroke="rgb(0, 0, 0)" stroke-linecap="butt" stroke-linejoin="round" stroke-opacity="1.0" stroke-width="3.0" />
            <path d=" M 473.460, 49.747 468.700, 50.145 463.875, 51.558 458.997, 54.022 454.076, 57.571 449.127, 62.237 444.162, 68.048 439.197, 75.030 434.247, 83.204 429.604, 92.061 429.329, 92.587 427.071, 97.504 424.461, 103.189 420.701, 112.455 419.661, 115.016 416.266, 124.422 414.949, 128.068 412.799, 134.733 410.345, 142.337 407.565, 151.943 406.473, 155.717 405.868, 157.807 404.198, 164.233 401.682, 173.911 401.540, 174.457 399.265, 184.195 397.381, 192.255 395.327, 202.041 393.412, 211.161 393.388, 211.293 391.538, 221.121 389.654, 231.129 387.995, 240.990 386.336, 250.852 386.126, 252.102 384.646, 261.992 384.102, 265.634 382.848, 274.015 381.538, 283.929 380.228, 293.843 379.838, 296.796 378.689, 306.730 377.541, 316.663 377.113, 320.364 376.119, 330.314 375.125, 340.265 374.689, 344.631 373.844, 354.595 372.999, 364.559 372.580, 369.503 371.880, 379.479 371.180, 389.454 370.799, 394.880 370.240, 404.865 369.681, 414.849 369.355, 420.657 368.935, 430.648 368.514, 440.639 368.258, 446.724 367.974, 456.720 367.690, 466.716 367.513, 472.971 367.365, 482.970 367.217, 492.969 367.124, 499.283 367.112, 509.283 367.099, 519.283 367.092, 525.548 367.216, 535.547 367.340, 545.546 367.416, 551.650 367.678, 561.647 367.940, 571.643 368.093, 577.480 368.495, 587.472 368.898, 597.464 369.118, 602.929 369.663, 612.915 370.209, 622.900 370.481, 627.893 371.174, 637.869 371.867, 647.845 372.175, 652.273 373.020, 662.237 373.866, 672.201 374.143, 675.477 374.186, 675.974 374.841, 682.465 375.845, 692.415 376.501, 698.912 377.672, 708.843 378.843, 718.774 379.106, 721.005 380.452, 730.914 381.799, 740.823 381.983, 742.183 382.037, 742.528 383.222, 750.167 384.755, 760.048 385.117, 762.383 386.849, 772.231 388.487, 781.547 390.434, 791.356 392.076, 799.631 392.683, 802.349 394.862, 812.108 395.864, 816.595 398.297, 826.294 399.831, 832.408 402.545, 842.033 403.958, 847.048 406.982, 856.580 407.526, 858.294 408.226, 860.500 411.597, 869.915 412.615, 872.756 416.377, 882.021 417.106, 883.814 421.313, 892.886 421.681, 893.679 426.323, 902.362 431.015, 909.877 435.741, 916.245 440.486, 921.489 445.235, 925.636 449.977, 928.716 454.697, 930.761 459.385, 931.805 " fill="none" stroke="rgb(0, 0, 0)" stroke-linecap="butt" stroke-linejoin="round" stroke-opacity="1.0" stroke-width="3.0" />
            <path d=" M 565.360, 519.244 565.386, 518.778 565.428, 518.039 565.450, 517.648 565.573, 516.114 565.728, 514.667 565.913, 513.332 566.123, 512.132 566.356, 511.087 566.607, 510.214 566.871, 509.529 567.146, 509.041 567.424, 508.760 567.572, 508.722 567.703, 508.688 " fill="none" stroke="rgb(0, 0, 0)" stroke-linecap="butt" stroke-linejoin="round" stroke-opacity="1.0" stroke-width="3.0" />
            <path d=" M 554.894, 519.060 555.659, 519.074 557.505, 519.106 557.546, 519.107 562.971, 519.202 564.757, 519.233 565.176, 519.240 565.360, 519.244 566.937, 520.709 " fill="none" stroke="rgb(0, 0, 0)" stroke-linecap="butt" stroke-linejoin="round" stroke-opacity="1.0" stroke-width="3.0" />
            <path d=" M 557.614, 521.491 562.899, 521.586 564.685, 521.617 565.078, 521.624 567.250, 521.663 567.978, 521.676 567.993, 521.162 567.994, 520.649 567.980, 520.150 567.952, 519.680 567.911, 519.251 567.857, 518.875 567.846, 518.820 567.792, 518.562 567.718, 518.320 567.637, 518.156 567.552, 518.075 " fill="none" stroke="rgb(0, 0, 0)" stroke-linecap="butt" stroke-linejoin="round" stroke-opacity="1.0" stroke-width="3.0" />
            <path d=" M 620.270, 921.074 622.445, 921.604 630.289, 923.423 638.146, 924.491 645.998, 924.824 653.829, 924.440 661.621, 923.357 669.360, 921.596 677.031, 919.177 684.620, 916.122 692.114, 912.451 699.502, 908.186 706.773, 903.351 713.916, 897.967 720.921, 892.056 727.780, 885.640 734.484, 878.743 741.027, 871.384 747.400, 863.587 753.422, 855.604 753.598, 855.372 759.324, 847.174 759.614, 846.760 765.056, 838.370 765.444, 837.771 770.610, 829.209 771.082, 828.427 775.982, 819.709 776.524, 818.745 781.168, 809.888 781.767, 808.746 786.162, 799.764 786.805, 798.449 790.960, 789.353 791.636, 787.871 795.558, 778.672 796.258, 777.031 799.953, 767.739 800.666, 765.946 804.141, 756.570 804.859, 754.634 808.119, 745.181 808.833, 743.111 811.885, 733.588 812.588, 731.393 815.435, 721.807 816.121, 719.497 818.767, 709.853 819.430, 707.437 821.879, 697.742 822.513, 695.230 824.768, 685.488 825.370, 682.891 827.434, 673.106 827.998, 670.433 829.873, 660.611 830.396, 657.872 832.084, 648.016 832.563, 645.223 834.066, 635.336 834.498, 632.498 835.817, 622.585 836.199, 619.713 837.334, 609.777 837.665, 606.880 838.618, 596.926 838.896, 594.015 839.665, 584.044 839.890, 581.130 840.476, 571.147 840.647, 568.239 841.048, 558.247 841.164, 555.356 841.380, 545.359 841.442, 542.495 841.471, 532.495 841.479, 529.670 841.319, 519.671 841.274, 516.895 840.923, 506.901 840.827, 504.183 840.282, 494.198 840.137, 491.549 839.394, 481.577 839.203, 479.008 838.258, 469.053 838.023, 466.574 836.873, 456.640 836.598, 454.262 835.238, 444.355 834.927, 442.088 833.351, 432.213 833.009, 430.067 831.212, 420.229 830.844, 418.214 828.819, 408.422 828.431, 406.547 826.171, 396.806 825.771, 395.082 823.267, 385.401 822.862, 383.836 820.107, 374.223 819.706, 372.826 816.690, 363.292 816.303, 362.071 813.015, 352.627 812.653, 351.589 809.082, 342.248 808.757, 341.398 804.892, 332.175 804.617, 331.518 800.444, 322.430 800.232, 321.969 795.739, 313.035 795.606, 312.771 790.741, 303.945 785.639, 295.512 780.302, 287.493 774.736, 279.910 768.943, 272.786 762.928, 266.143 756.697, 260.003 750.256, 254.390 743.612, 249.327 736.771, 244.836 729.743, 240.941 722.536, 237.663 715.161, 235.026 707.629, 233.052 699.951, 231.761 692.141, 231.174 684.213, 231.311 682.003, 231.457 " fill="none" stroke="rgb(0, 0, 0)" stroke-linecap="butt" stroke-linejoin="round" stroke-opacity="1.0" stroke-width="3.0" />
            <path d=" M 622.445, 921.604 622.190, 921.519 614.634, 919.018 606.874, 915.652 599.188, 911.495 591.595, 906.537 584.117, 900.771 576.779, 894.193 569.813, 887.018 569.602, 886.801 563.115, 879.190 562.609, 878.596 556.596, 870.606 555.826, 869.582 550.274, 861.264 549.275, 859.767 548.755, 858.890 543.651, 850.291 542.981, 849.162 540.142, 843.788 536.968, 837.782 532.711, 828.733 531.259, 825.645 529.731, 821.990 526.666, 814.661 525.878, 812.774 525.483, 811.710 522.009, 802.333 520.846, 799.195 519.584, 795.332 518.509, 792.044 516.186, 784.937 513.434, 775.323 511.919, 770.035 511.649, 768.948 510.356, 763.744 508.064, 754.526 505.980, 744.746 504.640, 738.453 502.874, 728.610 501.662, 721.860 500.204, 711.966 499.357, 706.215 499.147, 704.795 497.989, 694.862 497.108, 687.310 496.241, 677.348 495.555, 669.459 494.973, 659.476 494.497, 651.300 494.196, 641.305 493.942, 632.892 493.917, 622.892 493.894, 614.294 494.141, 604.297 494.356, 595.571 494.871, 585.584 495.326, 576.784 496.109, 566.815 496.201, 565.646 496.802, 557.998 497.853, 548.053 498.780, 539.277 499.933, 530.601 501.251, 520.683 501.411, 519.683 501.521, 518.996 503.107, 509.122 504.205, 502.279 506.060, 492.453 507.631, 484.128 509.758, 474.356 511.515, 466.287 513.918, 456.580 515.840, 448.815 518.523, 439.181 520.588, 431.766 522.811, 424.616 523.081, 423.746 525.740, 415.192 529.000, 405.739 531.274, 399.143 531.537, 398.454 535.096, 389.108 536.495, 385.434 537.168, 383.665 541.033, 374.442 541.622, 373.036 543.398, 368.798 547.579, 359.714 549.940, 354.582 552.442, 349.624 554.088, 346.363 556.769, 341.052 558.961, 337.087 560.586, 334.151 562.944, 329.887 563.857, 328.236 569.044, 319.686 569.185, 319.454 569.679, 318.639 571.180, 316.164 576.724, 307.841 578.712, 304.857 584.623, 296.791 586.425, 294.333 592.715, 286.559 594.293, 284.609 596.475, 282.177 602.292, 275.695 609.366, 268.627 610.395, 267.599 617.869, 260.956 618.578, 260.326 626.452, 254.162 626.816, 253.877 635.087, 248.250 643.369, 243.439 651.639, 239.439 659.877, 236.239 668.064, 233.827 676.182, 232.189 683.037, 231.439 684.213, 231.311 " fill="none" stroke="rgb(0, 0, 0)" stroke-linecap="butt" stroke-linejoin="round" stroke-opacity="1.0" stroke-width="3.0" />
            <path d=" M 682.003, 231.457 673.961, 232.336 665.833, 233.973 657.635, 236.384 649.386, 239.582 641.106, 243.580 632.814, 248.386 624.534, 254.009 616.653, 260.166 616.286, 260.453 608.805, 267.089 608.094, 267.719 601.012, 274.780 599.982, 275.807 595.268, 281.051 591.975, 284.713 585.677, 292.480 584.099, 294.427 578.180, 302.487 576.378, 304.940 570.828, 313.258 569.278, 315.579 568.840, 316.235 568.767, 316.356 563.573, 324.902 562.663, 326.400 561.511, 328.295 560.288, 330.502 558.685, 333.395 554.416, 341.097 553.786, 342.343 552.138, 345.603 547.582, 354.613 543.396, 363.694 541.321, 368.195 541.036, 368.813 537.164, 378.033 534.801, 383.663 531.237, 393.006 528.903, 399.125 525.638, 408.576 523.365, 415.155 520.988, 422.791 520.550, 424.197 518.211, 431.710 515.524, 441.342 513.460, 448.739 511.601, 456.238 509.195, 465.944 509.134, 466.192 507.004, 475.962 505.249, 484.012 504.680, 487.019 502.823, 496.845 501.822, 502.143 500.235, 512.016 499.382, 517.322 499.009, 519.640 498.867, 520.525 497.548, 530.438 497.524, 530.621 496.397, 539.098 495.346, 549.042 494.420, 557.798 493.637, 567.767 492.945, 576.562 492.430, 586.549 491.977, 595.328 491.732, 605.325 491.518, 614.030 491.546, 624.030 491.569, 632.606 491.873, 642.602 492.128, 650.995 492.262, 653.291 492.846, 663.274 493.189, 669.134 494.059, 679.096 494.747, 686.965 495.909, 696.897 496.791, 704.431 497.891, 711.869 499.312, 721.478 501.083, 731.320 502.295, 738.055 504.384, 747.834 505.726, 754.112 508.144, 763.815 509.105, 767.671 509.587, 769.605 510.374, 772.344 513.133, 781.956 513.861, 784.493 516.975, 793.995 517.453, 795.456 518.514, 798.692 518.529, 798.737 522.010, 808.111 523.568, 812.304 523.990, 813.312 524.607, 814.784 525.815, 817.667 528.890, 825.005 528.957, 825.165 533.222, 834.210 534.675, 837.291 537.675, 842.957 540.697, 848.662 545.809, 857.257 547.000, 859.259 552.559, 867.572 553.560, 869.068 559.580, 877.052 560.352, 878.076 566.846, 885.681 567.354, 886.276 574.327, 893.444 574.542, 893.665 581.890, 900.240 589.378, 906.005 596.981, 910.962 604.678, 915.119 612.448, 918.486 620.270, 921.074 " fill="none" stroke="rgb(0, 0, 0)" stroke-linecap="butt" stroke-linejoin="round" stroke-opacity="1.0" stroke-width="3.0" />
            <path d=" M 700.374, 330.392 692.212, 330.473 684.564, 331.305 683.932, 331.373 681.328, 331.911 675.559, 333.101 667.138, 335.653 667.117, 335.660 658.631, 339.041 650.125, 343.253 641.632, 348.316 633.445, 354.058 633.183, 354.242 625.417, 360.542 624.812, 361.033 617.472, 367.825 616.549, 368.678 609.632, 375.899 608.427, 377.157 601.919, 384.750 600.471, 386.440 594.363, 394.358 592.711, 396.499 587.001, 404.709 585.184, 407.322 579.871, 415.794 578.039, 418.716 577.930, 418.890 577.773, 419.167 574.861, 424.318 570.984, 431.175 567.789, 437.447 565.337, 442.260 564.381, 444.137 564.356, 444.191 563.596, 445.848 560.082, 453.509 558.353, 457.279 558.321, 457.349 558.148, 457.726 556.521, 461.672 552.708, 470.916 552.308, 471.887 549.069, 480.642 547.183, 485.739 546.880, 486.560 543.965, 495.404 541.892, 501.695 541.167, 504.193 538.380, 513.797 537.381, 517.242 534.937, 526.939 533.923, 530.960 533.373, 533.143 532.337, 537.962 530.235, 547.739 529.893, 549.330 529.134, 553.565 527.370, 563.409 526.953, 565.734 525.523, 575.631 524.562, 582.285 523.459, 592.224 522.717, 598.910 521.941, 608.880 521.422, 615.544 520.983, 625.534 520.693, 632.116 520.601, 642.116 520.541, 648.558 520.803, 658.554 520.956, 664.397 520.967, 664.798 521.591, 674.778 521.966, 680.768 522.957, 690.719 523.523, 696.406 524.553, 703.898 524.943, 706.736 525.619, 711.656 526.413, 716.158 526.451, 716.371 527.398, 721.740 528.241, 726.518 530.349, 736.293 531.334, 740.860 531.404, 741.130 532.491, 745.351 533.908, 750.852 534.880, 754.629 534.992, 754.997 537.315, 762.673 538.457, 766.446 538.578, 766.848 538.860, 767.778 541.007, 773.881 543.251, 780.261 547.010, 789.528 548.030, 792.041 552.250, 801.106 553.170, 803.082 557.875, 811.906 558.647, 813.353 563.858, 821.888 564.433, 822.831 570.169, 831.022 570.501, 831.495 576.822, 839.330 583.369, 846.322 590.114, 852.466 597.028, 857.759 604.085, 862.200 609.291, 864.809 611.257, 865.794 618.518, 868.549 625.842, 870.476 633.205, 871.586 640.584, 871.895 647.955, 871.422 655.297, 870.187 662.590, 868.209 669.814, 865.512 676.951, 862.121 683.984, 858.059 690.896, 853.352 697.673, 848.026 704.300, 842.109 710.765, 835.626 717.055, 828.605 723.160, 821.073 729.069, 813.057 734.653, 804.761 734.772, 804.583 740.020, 796.071 740.261, 795.679 745.186, 786.976 745.528, 786.371 750.142, 777.499 750.566, 776.685 754.880, 767.664 755.367, 766.647 759.393, 757.493 759.926, 756.282 763.673, 747.010 764.237, 745.615 767.714, 736.239 768.295, 734.672 771.509, 725.202 772.096, 723.474 775.054, 713.922 775.635, 712.049 778.344, 702.423 778.908, 700.418 781.372, 690.727 781.912, 688.605 784.136, 678.856 784.644, 676.633 786.632, 666.832 787.101, 664.524 788.856, 654.679 789.280, 652.301 790.803, 642.418 791.178, 639.986 792.473, 630.070 792.795, 627.601 793.861, 617.658 794.128, 615.168 794.965, 605.203 795.174, 602.709 795.782, 592.727 795.933, 590.245 796.311, 580.252 796.404, 577.798 796.550, 567.799 796.585, 565.390 796.496, 555.391 796.475, 553.043 796.148, 543.049 796.073, 540.779 796.067, 540.665 " fill="none" stroke="rgb(0, 0, 0)" stroke-linecap="butt" stroke-linejoin="round" stroke-opacity="1.0" stroke-width="3.0" />
            <path d=" M 791.485, 543.277 781.817, 544.834 776.301, 545.723 767.477, 547.144 766.762, 547.260 766.046, 547.376 765.329, 547.492 764.612, 547.609 763.762, 547.618 753.786, 546.922 752.258, 546.815 751.420, 546.567 750.617, 546.064 749.865, 545.318 749.181, 544.342 748.577, 543.153 748.063, 541.774 747.651, 540.231 747.349, 538.553 747.162, 536.773 747.094, 534.926 747.147, 533.046 747.320, 531.170 747.609, 529.335 748.009, 527.576 748.512, 525.927 749.107, 524.420 749.784, 523.083 750.528, 521.943 751.177, 521.074 751.826, 520.206 752.475, 519.339 753.122, 518.473 753.448, 518.040 757.192, 513.046 760.179, 509.063 766.178, 501.062 772.177, 493.061 775.515, 488.608 785.456, 489.697 786.363, 489.797 " fill="none" stroke="rgb(0, 0, 0)" stroke-linecap="butt" stroke-linejoin="round" stroke-opacity="1.0" stroke-width="3.0" />
            <path d=" M 822.643, 505.183 821.377, 495.608 819.766, 485.738 819.480, 483.982 817.558, 474.168 817.247, 472.581 815.003, 462.836 814.679, 461.430 812.103, 451.768 811.779, 450.554 808.864, 440.988 808.553, 439.971 805.292, 430.517 805.010, 429.698 801.387, 420.378 801.148, 419.764 797.140, 410.602 796.966, 410.204 792.551, 401.232 792.463, 401.053 787.643, 392.341 782.513, 384.093 777.082, 376.331 771.362, 369.070 765.362, 362.330 759.088, 356.151 752.545, 350.572 745.744, 345.625 738.699, 341.337 731.424, 337.729 723.938, 334.811 723.632, 334.723 716.256, 332.593 708.395, 331.108 700.374, 330.392 " fill="none" stroke="rgb(0, 0, 0)" stroke-linecap="butt" stroke-linejoin="round" stroke-opacity="1.0" stroke-width="3.0" />
            <path d=" M 667.138, 335.653 670.228, 337.479 676.141, 341.737 681.868, 346.634 687.397, 352.145 692.720, 358.235 697.830, 364.866 702.723, 372.002 707.392, 379.619 711.828, 387.706 716.022, 396.241 719.968, 405.199 723.664, 414.551 727.007, 423.976 727.109, 424.265 730.142, 433.794 730.305, 434.306 733.045, 443.923 733.251, 444.647 735.704, 454.341 735.940, 455.272 738.115, 465.033 738.367, 466.164 740.273, 475.981 740.529, 477.301 742.176, 487.164 742.426, 488.657 743.250, 494.492 743.262, 495.725 743.214, 496.966 743.107, 498.204 742.943, 499.425 742.722, 500.616 742.446, 501.766 742.120, 502.861 741.745, 503.891 741.327, 504.845 741.322, 504.854 740.868, 505.713 740.375, 506.486 739.852, 507.156 739.305, 507.717 738.739, 508.161 730.499, 513.828 724.487, 517.964 " fill="none" stroke="rgb(0, 0, 0)" stroke-linecap="butt" stroke-linejoin="round" stroke-opacity="1.0" stroke-width="3.0" />
            <path d=" M 800.413, 535.087 801.304, 535.144 802.459, 535.217 803.212, 535.266 811.191, 529.237 814.333, 526.862 816.226, 525.432 823.737, 519.756 824.178, 519.423 825.630, 518.488 830.232, 515.525 829.223, 505.576 828.957, 502.959 827.660, 493.043 827.336, 490.568 825.743, 480.696 825.369, 478.378 823.471, 468.560 823.056, 466.414 820.842, 456.662 820.397, 454.700 817.857, 445.028 817.615, 444.109 817.393, 443.264 814.515, 433.687 814.047, 432.130 812.099, 426.426 810.358, 421.326 806.760, 411.996 806.330, 410.880 802.350, 401.706 801.965, 400.818 797.588, 391.827 797.268, 391.169 792.476, 382.392 792.242, 381.963 790.963, 379.874 786.892, 373.226 786.013, 371.947 781.225, 364.988 775.248, 357.279 768.968, 350.128 762.394, 343.564 755.536, 337.616 748.406, 332.315 741.016, 327.688 733.381, 323.762 725.514, 320.566 717.434, 318.127 709.159, 316.469 700.707, 315.615 690.723, 315.055 680.739, 314.494 675.438, 314.197 " fill="none" stroke="rgb(0, 0, 0)" stroke-linecap="butt" stroke-linejoin="round" stroke-opacity="1.0" stroke-width="3.0" />
            <path d=" M 700.707, 315.615 692.101, 315.588 687.438, 316.026 683.364, 316.409 674.521, 318.093 669.826, 319.442 665.596, 320.657 656.619, 324.113 650.291, 327.177 648.546, 328.022 647.618, 328.471 638.987, 333.522 638.623, 333.735 630.389, 339.410 629.667, 339.907 621.847, 346.139 620.783, 346.987 613.383, 353.713 612.005, 354.966 605.027, 362.129 603.366, 363.833 596.808, 371.382 594.904, 373.574 588.759, 381.463 586.653, 384.167 580.914, 392.356 578.650, 395.587 577.049, 398.120 576.740, 398.609 571.397, 407.062 570.930, 407.801 567.287, 414.188 564.879, 418.409 563.529, 420.775 563.154, 421.505 558.578, 430.397 558.045, 431.433 556.483, 434.469 556.255, 434.962 552.049, 444.034 549.824, 448.834 545.980, 458.066 544.347, 461.987 543.584, 463.820 540.096, 473.192 537.796, 479.373 534.784, 488.488 532.888, 494.223 532.488, 495.432 529.755, 504.822 527.686, 511.933 526.314, 517.356 524.748, 523.543 523.461, 528.627 523.414, 528.810 523.069, 530.408 522.919, 531.101 521.074, 539.626 519.696, 545.993 517.917, 555.834 516.548, 563.410 515.105, 573.305 513.985, 580.986 512.879, 590.925 512.020, 598.646 511.254, 608.616 510.662, 616.313 510.238, 626.304 509.916, 633.913 509.839, 643.912 509.781, 651.369 509.885, 655.117 510.162, 665.113 510.259, 668.607 510.896, 678.587 511.342, 685.556 512.349, 695.505 513.021, 702.146 514.408, 712.049 515.285, 718.310 " fill="none" stroke="rgb(0, 0, 0)" stroke-linecap="butt" stroke-linejoin="round" stroke-opacity="1.0" stroke-width="3.0" />
            <path d=" M 755.820, 512.915 754.593, 502.991 754.366, 501.152 754.104, 498.515 754.084, 498.749 753.919, 499.975 753.699, 501.172 753.425, 502.328 753.100, 503.428 752.727, 504.464 752.311, 505.422 751.856, 506.295 751.366, 507.072 750.846, 507.745 750.303, 508.308 749.741, 508.755 741.538, 514.474 733.335, 520.194 733.000, 520.427 732.982, 520.404 732.322, 519.578 731.577, 518.930 730.778, 518.496 729.939, 518.283 724.487, 517.964 718.780, 517.629 717.908, 517.640 717.024, 517.876 716.143, 518.332 715.280, 519.002 714.450, 519.874 713.701, 520.938 713.048, 522.175 712.469, 523.562 711.975, 525.076 711.573, 526.691 711.272, 528.379 711.076, 530.112 710.988, 531.859 711.010, 533.590 711.142, 535.276 721.120, 535.938 722.339, 536.019 727.066, 532.758 727.030, 532.219 727.038, 531.665 727.089, 531.112 727.182, 530.574 727.225, 530.413 727.315, 530.066 727.484, 529.603 727.685, 529.196 727.910, 528.857 728.156, 528.596 728.414, 528.419 728.678, 528.331 728.941, 528.334 " fill="none" stroke="rgb(0, 0, 0)" stroke-linecap="butt" stroke-linejoin="round" stroke-opacity="1.0" stroke-width="3.0" />
            <path d=" M 796.602, 522.187 800.274, 519.400 801.475, 518.489 802.913, 517.398 806.703, 514.521 807.205, 514.097 807.692, 513.571 807.780, 513.453 808.160, 512.949 808.606, 512.239 809.027, 511.445 809.419, 510.576 809.779, 509.639 810.105, 508.641 810.394, 507.590 810.645, 506.495 810.855, 505.363 811.022, 504.204 811.144, 503.027 811.222, 501.840 820.819, 504.649 822.643, 505.183 822.543, 505.962 822.334, 507.099 822.085, 508.200 821.797, 509.256 821.473, 510.259 821.116, 511.201 820.727, 512.075 820.310, 512.872 819.867, 513.587 819.403, 514.212 818.920, 514.741 818.423, 515.168 810.503, 521.273 805.977, 524.762 805.443, 524.029 805.341, 523.890 804.640, 523.226 803.886, 522.782 803.091, 522.567 801.770, 522.489 800.518, 522.416 796.602, 522.187 794.845, 522.084 791.219, 521.871 790.507, 521.885 790.389, 521.887 790.178, 521.949 789.545, 522.134 788.702, 522.608 787.875, 523.303 787.076, 524.206 786.356, 525.306 785.730, 526.585 785.173, 528.019 784.696, 529.582 784.306, 531.250 784.010, 532.992 783.813, 534.780 783.719, 536.582 783.729, 538.367 783.844, 540.104 791.345, 540.603 791.401, 540.606 795.761, 540.896 796.067, 540.665 800.247, 537.506 800.217, 536.950 800.228, 536.379 800.280, 535.808 800.372, 535.253 800.413, 535.087 800.501, 534.729 800.663, 534.250 800.855, 533.829 801.071, 533.479 801.202, 533.326 801.304, 533.208 801.549, 533.024 801.799, 532.931 802.047, 532.933 " fill="none" stroke="rgb(0, 0, 0)" stroke-linecap="butt" stroke-linejoin="round" stroke-opacity="1.0" stroke-width="3.0" />
            <path d=" M 776.301, 545.723 776.476, 550.778 776.574, 560.778 776.596, 563.004 776.451, 573.003 776.418, 575.289 776.032, 585.282 775.943, 587.612 775.320, 597.592 775.172, 599.950 774.313, 609.913 774.108, 612.281 773.013, 622.221 772.752, 624.585 771.421, 634.496 771.106, 636.839 769.539, 646.715 769.173, 649.022 767.368, 658.858 766.954, 661.111 764.910, 670.900 764.453, 673.085 762.167, 682.820 761.673, 684.922 759.141, 694.596 758.617, 696.598 755.834, 706.203 755.287, 708.092 752.250, 717.619 751.689, 719.380 748.392, 728.820 747.826, 730.439 744.262, 739.782 743.703, 741.246 739.864, 750.479 739.325, 751.775 735.203, 760.886 734.697, 762.004 730.284, 770.977 729.826, 771.908 725.109, 780.726 724.717, 781.461 719.687, 790.104 719.377, 790.637 714.023, 799.083 713.814, 799.413 708.124, 807.636 708.038, 807.761 702.055, 815.654 695.876, 823.067 689.512, 829.975 682.974, 836.348 676.274, 842.160 669.426, 847.387 662.443, 852.002 655.341, 855.978 648.136, 859.291 640.845, 861.917 633.487, 863.833 626.081, 865.015 618.648, 865.445 611.209, 865.102 609.291, 864.809 " fill="none" stroke="rgb(0, 0, 0)" stroke-linecap="butt" stroke-linejoin="round" stroke-opacity="1.0" stroke-width="3.0" />
            <path d=" M 763.762, 547.618 762.931, 547.369 762.136, 546.865 761.392, 546.116 760.715, 545.136 760.116, 543.942 759.609, 542.556 759.202, 541.006 758.904, 539.321 758.721, 537.532 758.703, 537.024 758.656, 535.676 758.710, 533.787 758.883, 531.902 759.145, 530.230 759.172, 530.057 759.570, 528.289 760.070, 526.632 760.662, 525.117 761.334, 523.773 762.072, 522.627 762.716, 521.753 763.361, 520.880 764.004, 520.009 764.647, 519.139 764.970, 518.703 768.369, 514.110 774.318, 506.072 777.428, 501.870 783.377, 493.832 786.363, 489.797 787.777, 499.696 787.889, 500.482 788.461, 504.809 789.545, 514.750 789.697, 516.140 790.178, 521.949 " fill="none" stroke="rgb(0, 0, 0)" stroke-linecap="butt" stroke-linejoin="round" stroke-opacity="1.0" stroke-width="3.0" />
            <path d=" M 794.395, 516.587 800.091, 517.129 801.375, 517.251 802.913, 517.398 " fill="none" stroke="rgb(0, 0, 0)" stroke-linecap="butt" stroke-linejoin="round" stroke-opacity="1.0" stroke-width="3.0" />
            <path d=" M 764.764, 537.420 764.445, 537.357 764.147, 537.147 763.883, 536.799 763.664, 536.330 763.500, 535.759 763.399, 535.111 763.364, 534.415 763.398, 533.701 763.498, 533.000 763.660, 532.344 763.878, 531.761 764.141, 531.277 764.438, 530.912 764.756, 530.685 765.081, 530.602 " fill="none" stroke="rgb(0, 0, 0)" stroke-linecap="butt" stroke-linejoin="round" stroke-opacity="1.0" stroke-width="3.0" />
            <path d=" M 765.081, 530.602 765.399, 530.667 765.696, 530.879 765.959, 531.227 766.177, 531.696 766.339, 532.267 766.440, 532.913 766.475, 533.607 766.441, 534.319 766.342, 535.017 766.180, 535.671 765.964, 536.253 765.702, 536.737 765.405, 537.103 765.088, 537.334 764.764, 537.420 " fill="none" stroke="rgb(0, 0, 0)" stroke-linecap="butt" stroke-linejoin="round" stroke-opacity="1.0" stroke-width="3.0" />
            <path d=" M 727.225, 530.413 730.190, 530.602 738.420, 524.923 746.651, 519.243 754.881, 513.563 755.820, 512.915 757.192, 513.046 " fill="none" stroke="rgb(0, 0, 0)" stroke-linecap="butt" stroke-linejoin="round" stroke-opacity="1.0" stroke-width="3.0" />
            <path d=" M 801.304, 535.144 801.467, 538.053 801.787, 548.048 801.878, 550.895 801.960, 560.894 801.984, 563.820 801.833, 573.819 801.788, 576.807 801.405, 586.799 801.289, 589.833 800.678, 599.815 800.490, 602.878 799.650, 612.842 799.391, 615.918 798.323, 625.861 797.993, 628.932 796.698, 638.848 796.300, 641.898 794.776, 651.781 794.311, 654.793 792.557, 664.638 792.030, 667.595 790.043, 677.396 789.458, 680.282 787.236, 690.032 786.598, 692.831 784.137, 702.523 783.453, 705.217 780.748, 714.845 780.025, 717.418 777.072, 726.972 776.319, 729.410 773.112, 738.882 772.338, 741.169 768.869, 750.548 768.085, 752.668 764.348, 761.944 763.566, 763.884 759.551, 773.043 758.785, 774.791 754.484, 783.818 753.749, 785.362 749.150, 794.241 748.463, 795.569 743.555, 804.282 742.933, 805.388 737.706, 813.912 737.168, 814.790 731.607, 823.101 731.175, 823.746 725.266, 831.814 724.963, 832.229 718.694, 840.020 718.541, 840.210 711.922, 847.661 705.114, 854.552 698.132, 860.854 690.988, 866.540 683.698, 871.580 676.276, 875.944 668.739, 879.607 661.106, 882.542 653.395, 884.721 645.627, 886.120 637.823, 886.716 630.006, 886.488 622.201, 885.415 614.431, 883.478 606.723, 880.665 599.103, 876.963 591.602, 872.362 584.246, 866.856 577.064, 860.445 570.163, 853.208 570.088, 853.130 563.744, 845.400 563.347, 844.916 557.549, 836.769 556.871, 835.817 551.602, 827.317 550.691, 825.847 545.932, 817.053 544.836, 815.028 540.565, 805.985 539.336, 803.383 536.245, 795.869 534.219, 790.946 533.449, 788.788 532.273, 785.489 529.513, 777.753 526.895, 769.226 525.783, 765.604 525.243, 763.843 522.715, 754.168 521.434, 749.264 519.932, 742.403 518.420, 735.498 518.107, 734.068 516.344, 724.224 515.285, 718.310 511.831, 708.925 508.807, 700.707 " fill="none" stroke="rgb(0, 0, 0)" stroke-linecap="butt" stroke-linejoin="round" stroke-opacity="1.0" stroke-width="3.0" />
            <path d=" M 675.438, 314.197 667.623, 314.146 661.700, 314.739 659.696, 314.939 651.678, 316.591 643.593, 319.120 635.466, 322.539 627.324, 326.859 619.193, 332.086 611.227, 338.130 611.105, 338.223 603.594, 344.825 603.087, 345.269 596.032, 352.357 595.173, 353.220 588.567, 360.728 587.392, 362.064 581.226, 369.937 579.777, 371.787 575.694, 377.615 575.331, 378.134 572.363, 382.370 567.038, 390.834 566.525, 391.651 565.181, 393.787 564.123, 395.656 562.432, 398.644 558.264, 406.007 557.403, 407.696 555.650, 411.135 551.645, 418.995 547.477, 428.085 545.356, 432.710 544.118, 435.718 540.310, 444.965 539.428, 447.106 535.969, 456.489 533.889, 462.131 530.771, 471.633 528.770, 477.730 525.984, 487.335 524.097, 493.843 521.635, 503.535 520.767, 506.956 519.892, 510.402 517.750, 520.170 516.408, 526.294 516.178, 527.342 515.598, 530.470 513.773, 540.302 512.977, 544.591 511.465, 554.476 510.303, 562.074 509.102, 572.002 508.169, 579.716 507.280, 589.676 506.588, 597.440 506.012, 607.423 505.566, 615.168 505.306, 625.164 505.107, 632.823 505.167, 642.822 505.212, 650.328 505.597, 660.320 505.878, 667.607 506.375, 674.502 507.093, 684.476 507.101, 684.589 508.153, 694.534 508.807, 700.707 508.447, 710.700 508.128, 719.577 " fill="none" stroke="rgb(0, 0, 0)" stroke-linecap="butt" stroke-linejoin="round" stroke-opacity="1.0" stroke-width="3.0" />
            <path d=" M 511.068, 735.835 513.225, 745.599 514.333, 750.620 514.529, 751.506 515.823, 756.418 518.371, 766.088 518.489, 766.533 521.445, 776.086 522.305, 778.863 522.923, 780.861 523.430, 782.268 526.814, 791.678 527.809, 794.443 529.226, 797.859 530.446, 800.798 533.116, 807.235 533.395, 807.820 537.696, 816.848 538.817, 819.201 543.609, 827.978 544.882, 830.309 550.187, 838.785 551.280, 840.531 557.117, 848.650 557.979, 849.849 564.365, 857.544 564.948, 858.246 571.895, 865.440 572.157, 865.711 579.572, 872.239 587.162, 877.830 594.898, 882.487 602.750, 886.214 610.688, 889.025 618.685, 890.934 626.714, 891.955 634.750, 892.109 642.768, 891.418 650.745, 889.905 658.658, 887.594 666.488, 884.512 674.216, 880.688 681.823, 876.149 689.292, 870.923 696.607, 865.041 703.756, 858.533 710.723, 851.428 717.341, 843.932 717.496, 843.756 723.744, 835.948 724.065, 835.546 729.956, 827.465 730.419, 826.830 735.965, 818.508 736.548, 817.633 741.763, 809.101 742.444, 807.987 747.341, 799.268 748.099, 797.920 752.690, 789.036 753.505, 787.459 757.800, 778.429 758.655, 776.631 762.666, 767.471 763.545, 765.464 767.280, 756.188 768.168, 753.984 771.636, 744.605 772.519, 742.216 775.727, 732.745 776.593, 730.187 779.549, 720.634 780.388, 717.921 783.096, 708.294 783.898, 705.442 786.364, 695.751 787.121, 692.775 789.348, 683.026 790.053, 679.943 792.046, 670.143 792.691, 666.969 794.452, 657.126 795.033, 653.878 796.564, 643.995 797.076, 640.690 798.379, 630.775 798.818, 627.429 799.893, 617.487 800.258, 614.118 801.105, 604.154 801.392, 600.779 802.011, 590.798 802.220, 587.434 802.609, 577.441 802.739, 574.104 802.897, 564.106 802.949, 560.814 802.873, 550.814 802.848, 547.585 802.534, 537.590 802.459, 535.217 " fill="none" stroke="rgb(0, 0, 0)" stroke-linecap="butt" stroke-linejoin="round" stroke-opacity="1.0" stroke-width="3.0" />
            <path d=" M 508.128, 719.577 509.908, 729.418 511.068, 735.835 " fill="none" stroke="rgb(0, 0, 0)" stroke-linecap="butt" stroke-linejoin="round" stroke-opacity="1.0" stroke-width="3.0" />
            <path d=" M 817.615, 444.109 815.771, 434.356 813.678, 424.577 813.439, 423.460 811.105, 413.736 810.872, 412.763 808.290, 403.103 808.070, 402.283 805.230, 392.695 805.034, 392.035 801.923, 382.532 801.763, 382.042 798.370, 372.634 798.256, 372.318 794.573, 363.021 794.518, 362.881 790.550, 353.748 786.354, 344.935 781.933, 336.462 777.288, 328.349 772.422, 320.618 767.337, 313.291 762.038, 306.389 756.529, 299.930 750.817, 293.932 744.907, 288.412 738.805, 283.393 732.519, 278.893 726.055, 274.937 719.421, 271.547 712.627, 268.747 705.683, 266.554 698.600, 264.985 691.390, 264.054 684.066, 263.778 681.878, 263.894 676.640, 264.172 669.127, 265.253 661.543, 267.037 653.904, 269.541 646.228, 272.779 638.533, 276.756 630.838, 281.475 623.162, 286.940 615.525, 293.151 613.314, 295.181 607.948, 300.107 600.974, 307.274 600.453, 307.809 593.867, 315.334 593.064, 316.252 586.861, 324.096 585.804, 325.432 585.538, 325.803 579.710, 333.928 578.699, 335.338 576.643, 338.486 572.727, 344.484 572.289, 345.155 571.769, 345.950 566.651, 354.541 565.039, 357.248 564.832, 357.628 562.479, 361.950 560.826, 364.987 558.529, 369.208 555.913, 374.465 554.231, 377.846 552.262, 381.804 548.125, 390.908 546.262, 395.008 543.149, 402.522 540.552, 408.790 537.027, 418.148 535.155, 423.117 534.132, 426.115 530.903, 435.579 530.094, 437.952 527.155, 447.510 525.389, 453.252 522.732, 462.893 521.056, 468.972 518.675, 478.685 517.111, 485.063 515.001, 494.838 513.568, 501.476 511.726, 511.305 510.442, 518.160 508.866, 528.035 508.468, 530.529 507.745, 535.061 506.435, 544.975 505.490, 552.128 504.447, 562.073 503.688, 569.304 502.912, 579.274 502.346, 586.533 501.835, 596.520 501.465, 603.757 501.220, 613.754 501.045, 620.921 501.070, 630.921 501.087, 637.969 501.387, 647.964 501.593, 654.845 502.171, 664.828 502.557, 671.495 503.419, 681.458 503.873, 686.704 503.973, 687.867 505.125, 697.801 505.833, 703.911 507.283, 713.805 508.128, 719.577 509.884, 729.422 510.847, 734.820 511.068, 735.835 513.136, 745.618 513.977, 749.595 514.277, 750.812 515.734, 756.709 517.501, 763.863 520.238, 773.482 521.406, 777.587 522.082, 779.671 523.199, 783.111 525.673, 790.730 528.837, 799.327 530.001, 802.489 530.285, 803.262 532.946, 809.674 535.222, 815.158 539.449, 824.220 540.462, 826.392 545.100, 835.251 545.987, 836.944 551.056, 845.564 551.777, 846.790 557.293, 855.131 557.813, 855.917 563.786, 863.936 564.069, 864.315 570.523, 871.981 577.154, 878.908 583.941, 885.096 590.863, 890.542 597.901, 895.247 605.036, 899.211 612.248, 902.441 619.517, 904.950 624.879, 906.272 626.824, 906.752 634.151, 907.861 641.481, 908.293 648.799, 908.059 656.089, 907.176 663.337, 905.656 670.530, 903.513 677.654, 900.769 684.697, 897.446 691.646, 893.565 698.492, 889.149 705.224, 884.216 711.832, 878.787 718.309, 872.878 724.644, 866.506 730.831, 859.691 736.863, 852.453 742.733, 844.815 748.435, 836.800 753.965, 828.425 759.198, 819.904 759.317, 819.710 764.282, 811.030 764.487, 810.673 769.192, 801.849 769.469, 801.328 773.921, 792.374 774.259, 791.693 778.465, 782.620 778.853, 781.783 782.822, 772.605 783.248, 771.619 786.988, 762.344 787.442, 761.218 790.960, 751.857 791.432, 750.599 794.734, 741.159 795.217, 739.777 798.307, 730.266 798.794, 728.767 801.677, 719.191 802.160, 717.585 804.838, 707.950 805.312, 706.244 807.789, 696.555 808.248, 694.758 810.526, 685.021 810.965, 683.143 813.048, 673.362 813.463, 671.414 815.355, 661.594 815.742, 659.586 817.444, 649.732 817.800, 647.673 819.315, 637.788 819.637, 635.689 820.965, 625.778 821.250, 623.648 822.391, 613.713 822.638, 611.562 823.591, 601.608 823.798, 599.446 824.563, 589.476 824.729, 587.314 825.308, 577.330 825.432, 575.178 825.824, 565.185 825.907, 563.053 826.110, 553.055 826.152, 550.951 826.163, 540.951 826.166, 538.888 825.984, 528.890 825.947, 526.877 825.630, 518.488 " fill="none" stroke="rgb(0, 0, 0)" stroke-linecap="butt" stroke-linejoin="round" stroke-opacity="1.0" stroke-width="3.0" />
            <path d=" M 681.854, 263.893 674.418, 264.287 666.895, 265.368 659.300, 267.152 651.652, 269.654 643.966, 272.889 636.262, 276.863 628.558, 281.579 620.873, 287.039 613.227, 293.243 612.061, 294.312 605.641, 300.194 598.660, 307.353 598.139, 307.888 591.545, 315.406 590.742, 316.322 584.531, 324.160 583.475, 325.493 579.908, 330.456 576.363, 335.388 572.411, 341.428 571.966, 342.109 569.725, 345.534 569.427, 345.990 564.608, 354.064 562.690, 357.275 562.235, 358.111 560.602, 361.104 556.175, 369.222 555.672, 370.231 553.988, 373.610 549.903, 381.804 545.760, 390.906 543.899, 394.994 542.940, 397.305 539.106, 406.541 538.185, 408.761 534.654, 418.117 532.784, 423.071 529.550, 432.534 527.720, 437.889 524.776, 447.446 523.012, 453.173 522.990, 453.252 520.329, 462.891 518.677, 468.875 516.292, 478.586 514.730, 484.947 512.618, 494.722 511.187, 501.341 509.342, 511.170 508.060, 518.006 506.482, 527.880 506.056, 530.550 505.363, 534.888 504.052, 544.802 503.108, 551.935 502.064, 561.880 501.307, 569.091 500.531, 579.061 499.967, 586.300 499.456, 596.287 499.087, 603.505 498.843, 613.502 498.669, 620.650 498.696, 630.650 498.715, 637.679 499.016, 647.674 499.223, 654.536 499.804, 664.520 500.191, 671.168 501.056, 681.131 501.612, 687.523 502.329, 693.685 503.476, 703.549 504.930, 713.443 505.776, 719.199 507.538, 729.043 508.501, 734.426 510.578, 744.208 511.636, 749.187 513.069, 754.974 514.477, 760.656 515.167, 763.441 517.910, 773.057 519.077, 777.151 521.082, 783.309 522.175, 786.666 523.352, 790.282 526.813, 799.664 527.939, 802.716 527.971, 802.803 529.164, 805.669 532.133, 812.809 532.915, 814.688 537.150, 823.747 538.163, 825.913 542.810, 834.768 543.696, 836.457 548.774, 845.072 549.495, 846.295 555.019, 854.631 555.539, 855.415 561.520, 863.429 561.804, 863.809 568.267, 871.470 574.907, 878.394 581.704, 884.579 588.635, 890.023 595.683, 894.727 602.828, 898.691 610.049, 901.922 617.328, 904.432 624.645, 906.237 " fill="none" stroke="rgb(0, 0, 0)" stroke-linecap="butt" stroke-linejoin="round" stroke-opacity="1.0" stroke-width="3.0" />
            <path d=" M 684.066, 263.778 681.854, 263.893 " fill="none" stroke="rgb(0, 0, 0)" stroke-linecap="butt" stroke-linejoin="round" stroke-opacity="1.0" stroke-width="3.0" />
            <path d=" M 624.645, 906.237 626.824, 906.752 " fill="none" stroke="rgb(0, 0, 0)" stroke-linecap="butt" stroke-linejoin="round" stroke-opacity="1.0" stroke-width="3.0" />
            <path d=" M 490.516, 723.654 492.068, 732.177 493.683, 741.047 493.691, 741.088 495.803, 750.863 497.339, 757.968 498.494, 762.550 500.938, 772.247 501.442, 774.246 501.508, 774.475 503.790, 782.333 504.837, 785.940 505.979, 789.876 507.418, 794.217 508.464, 797.377 510.930, 804.820 512.732, 809.618 513.825, 812.528 516.272, 819.043 516.850, 820.407 518.024, 823.177 520.387, 828.751 521.543, 831.478 521.981, 832.511 522.456, 833.509 524.926, 838.686 528.032, 845.199 532.755, 854.013 534.401, 857.083 539.559, 865.650 541.062, 868.145 546.670, 876.424 547.989, 878.370 554.062, 886.314 555.156, 887.746 561.704, 895.305 562.539, 896.268 569.567, 903.381 570.110, 903.931 577.619, 910.535 577.846, 910.735 585.721, 916.683 593.712, 921.782 601.795, 926.039 609.948, 929.466 618.149, 932.076 622.475, 933.153 630.682, 934.954 638.895, 935.969 647.098, 936.215 655.271, 935.713 663.399, 934.483 671.464, 932.546 679.453, 929.926 687.352, 926.644 695.146, 922.725 702.824, 918.192 710.376, 913.069 717.790, 907.379 725.056, 901.146 732.166, 894.394 739.113, 887.146 745.708, 879.629 745.887, 879.425 752.168, 871.644 752.483, 871.254 758.460, 863.236 758.894, 862.654 764.577, 854.426 765.114, 853.649 770.514, 845.232 771.139, 844.258 776.265, 835.673 776.963, 834.504 781.826, 825.766 782.582, 824.407 787.190, 815.532 787.993, 813.985 792.355, 804.987 793.192, 803.260 797.315, 794.150 798.175, 792.249 802.067, 783.038 802.940, 780.972 806.608, 771.669 807.485, 769.446 810.934, 760.060 811.806, 757.689 815.043, 748.227 815.902, 745.717 818.932, 736.187 819.771, 733.548 822.597, 723.956 823.410, 721.198 826.038, 711.549 826.819, 708.682 829.252, 698.983 829.995, 696.017 832.236, 686.271 832.938, 683.216 834.990, 673.429 835.646, 670.296 837.510, 660.471 838.118, 657.270 839.797, 647.412 840.352, 644.154 841.847, 634.267 842.347, 630.961 843.660, 621.048 844.103, 617.706 845.235, 607.770 845.618, 604.402 846.568, 594.448 846.891, 591.064 847.660, 581.094 847.922, 577.705 848.509, 567.722 848.708, 564.338 849.113, 554.346 849.249, 550.978 849.471, 540.981 849.545, 537.639 849.581, 527.639 849.593, 524.334 849.443, 514.335 849.394, 511.078 849.055, 501.083 848.946, 497.883 848.415, 487.898 848.248, 484.766 847.522, 474.793 847.299, 471.741 846.374, 461.784 846.099, 458.822 844.971, 448.886 844.646, 446.024 843.311, 436.114 842.940, 433.363 841.392, 423.484 840.980, 420.855 839.214, 411.012 838.766, 408.516 836.774, 398.716 836.296, 396.362 834.073, 386.612 833.571, 384.411 831.108, 374.719 830.589, 372.679 827.878, 363.054 827.352, 361.186 824.384, 351.636 823.859, 349.948 820.623, 340.486 820.110, 338.986 816.597, 329.624 816.107, 328.318 812.303, 319.070 811.849, 317.965 807.742, 308.847 807.337, 307.947 802.916, 298.978 802.574, 298.285 797.823, 289.486 797.561, 289.001 792.466, 280.396 792.301, 280.116 786.796, 271.654 781.049, 263.637 775.064, 256.089 768.847, 249.033 762.401, 242.494 755.733, 236.497 748.849, 231.064 741.756, 226.222 734.464, 221.995 726.981, 218.407 719.316, 215.483 711.483, 213.246 703.492, 211.720 695.357, 210.927 687.092, 210.889 682.691, 211.220 674.289, 211.959 665.791, 213.490 657.213, 215.832 648.575, 219.001 639.897, 223.009 631.202, 227.869 622.849, 233.367 622.510, 233.589 614.550, 239.642 613.847, 240.177 606.288, 246.724 605.237, 247.634 598.081, 254.619 596.705, 255.962 589.948, 263.334 588.277, 265.157 584.298, 269.980 579.981, 275.212 574.000, 283.227 571.844, 286.116 566.185, 294.472 565.618, 295.309 563.894, 297.855 562.486, 300.139 560.654, 303.114 558.240, 307.031 557.467, 308.286 556.623, 309.656 556.160, 310.409 553.437, 315.260 551.853, 318.082 551.709, 318.338 550.074, 321.252 548.669, 323.755 544.115, 332.657 543.587, 333.690 541.971, 336.849 541.450, 337.866 539.329, 342.417 535.104, 351.480 534.531, 352.709 530.627, 361.916 529.538, 364.482 527.940, 368.250 524.346, 377.582 521.702, 384.448 518.411, 393.890 515.843, 401.257 512.847, 410.798 510.388, 418.630 507.682, 428.257 505.360, 436.515 502.938, 446.218 500.780, 454.857 498.637, 464.624 498.613, 464.735 496.668, 473.596 496.220, 475.957 494.352, 485.781 493.042, 492.671 491.447, 502.543 490.655, 507.443 489.916, 512.019 489.695, 513.673 489.289, 516.718 489.247, 517.029 489.129, 517.909 488.940, 519.330 488.815, 520.266 488.304, 524.087 487.304, 531.573 486.250, 541.518 485.217, 551.268 484.433, 561.237 483.663, 571.034 483.150, 581.021 482.647, 590.804 482.406, 600.801 482.179, 610.219 482.172, 610.508 482.177, 612.065 482.211, 622.065 482.228, 627.053 482.232, 628.328 482.238, 630.078 482.551, 640.074 482.659, 643.543 482.685, 644.387 482.844, 649.449 483.439, 659.431 483.456, 659.716 483.478, 660.093 483.983, 668.554 484.620, 675.738 484.620, 675.740 485.504, 685.701 485.648, 687.330 486.204, 692.016 486.209, 692.057 487.388, 701.988 487.830, 705.716 489.311, 715.606 490.516, 723.654 " fill="none" stroke="rgb(0, 0, 0)" stroke-linecap="butt" stroke-linejoin="round" stroke-opacity="1.0" stroke-width="3.0" />
            <path d=" M 687.092, 210.889 678.713, 211.626 670.236, 213.158 661.681, 215.502 653.065, 218.673 644.408, 222.687 635.733, 227.554 627.390, 233.067 627.062, 233.284 619.114, 239.352 618.419, 239.882 610.873, 246.444 609.827, 247.353 602.685, 254.352 601.313, 255.696 594.570, 263.081 592.902, 264.909 586.665, 272.498 584.623, 274.983 578.657, 283.009 576.501, 285.909 570.909, 294.199 568.566, 297.672 567.073, 300.104 566.525, 300.997 561.294, 309.519 561.240, 309.608 560.845, 310.252 558.859, 313.803 557.268, 316.650 553.367, 323.626 552.390, 325.543 550.761, 328.739 546.220, 337.649 546.159, 337.768 541.947, 346.837 540.039, 350.946 539.251, 352.644 535.358, 361.855 532.668, 368.219 529.085, 377.555 526.438, 384.452 523.157, 393.899 520.587, 401.300 517.600, 410.843 516.396, 414.691 515.138, 418.713 512.440, 428.342 510.115, 436.638 507.699, 446.342 505.538, 455.022 503.401, 464.791 501.429, 473.804 499.566, 483.629 497.803, 492.923 496.212, 502.796 495.394, 507.870 494.678, 512.316 494.661, 512.445 493.864, 518.418 493.714, 519.547 492.686, 527.255 492.065, 531.915 491.013, 541.860 489.976, 551.655 489.192, 561.625 488.834, 566.178 488.418, 571.467 487.904, 581.454 487.398, 591.281 487.379, 592.079 487.136, 602.076 486.918, 611.030 486.938, 617.505 486.968, 627.505 486.978, 630.645 487.286, 640.640 487.576, 650.059 488.165, 660.041 488.707, 669.206 489.583, 679.167 490.122, 685.289 490.363, 688.022 491.533, 697.954 492.534, 706.448 492.674, 707.385 494.125, 717.142 494.134, 717.202 494.563, 720.082 494.800, 721.679 494.940, 722.616 495.209, 724.423 496.990, 734.263 498.372, 741.894 500.473, 751.671 502.007, 758.808 504.439, 768.508 506.096, 775.117 506.279, 775.752 507.451, 779.809 510.225, 789.416 510.619, 790.778 513.750, 800.275 514.834, 803.564 515.554, 805.750 515.885, 806.635 519.386, 816.002 520.880, 819.998 522.156, 823.022 523.341, 825.830 525.424, 830.769 526.522, 833.371 526.572, 833.489 530.861, 842.523 532.605, 846.198 537.313, 855.021 538.956, 858.101 544.099, 866.677 545.598, 869.179 551.191, 877.468 552.506, 879.417 558.564, 887.374 559.654, 888.805 566.187, 896.376 567.016, 897.336 574.031, 904.463 574.567, 905.006 582.064, 911.624 582.281, 911.816 590.135, 917.767 598.104, 922.867 606.166, 927.123 614.297, 930.547 622.475, 933.153 " fill="none" stroke="rgb(0, 0, 0)" stroke-linecap="butt" stroke-linejoin="round" stroke-opacity="1.0" stroke-width="3.0" />
            <path d=" M 729.939, 518.283 729.073, 518.295 728.195, 518.532 727.319, 518.991 726.462, 519.664 726.128, 520.019 725.636, 520.542 724.891, 521.611 724.242, 522.854 723.667, 524.248 723.175, 525.770 722.775, 527.393 722.678, 527.940 722.474, 529.090 722.360, 530.102 722.278, 530.831 722.189, 532.586 722.210, 534.326 722.339, 536.019 " fill="none" stroke="rgb(0, 0, 0)" stroke-linecap="butt" stroke-linejoin="round" stroke-opacity="1.0" stroke-width="3.0" />
            <path d=" M 728.941, 528.334 729.195, 528.428 729.433, 528.611 729.649, 528.877 729.838, 529.220 729.993, 529.629 730.112, 530.094 730.190, 530.602 " fill="none" stroke="rgb(0, 0, 0)" stroke-linecap="butt" stroke-linejoin="round" stroke-opacity="1.0" stroke-width="3.0" />
            <path d=" M 803.091, 522.567 802.268, 522.583 801.431, 522.831 800.595, 523.309 799.773, 524.008 799.453, 524.374 798.980, 524.916 798.265, 526.022 797.643, 527.308 797.091, 528.749 796.616, 530.321 796.228, 531.997 796.133, 532.561 795.933, 533.748 795.819, 534.793 795.736, 535.545 795.641, 537.356 795.649, 539.150 795.761, 540.896 " fill="none" stroke="rgb(0, 0, 0)" stroke-linecap="butt" stroke-linejoin="round" stroke-opacity="1.0" stroke-width="3.0" />
            <path d=" M 802.047, 532.933 802.286, 533.029 802.510, 533.216 802.713, 533.490 802.889, 533.842 803.033, 534.263 803.142, 534.742 803.212, 535.266 " fill="none" stroke="rgb(0, 0, 0)" stroke-linecap="butt" stroke-linejoin="round" stroke-opacity="1.0" stroke-width="3.0" />
            <path d=" M 777.607, 477.367 777.727, 477.270 777.861, 477.193 778.008, 477.140 778.163, 477.109 778.324, 477.104 778.545, 477.135 778.763, 477.210 778.969, 477.326 779.155, 477.479 779.314, 477.663 779.441, 477.873 779.532, 478.103 779.580, 478.350 779.581, 478.580 779.539, 478.800 779.456, 479.001 779.335, 479.176 779.181, 479.319 778.997, 479.424 " fill="none" stroke="rgb(0, 0, 0)" stroke-linecap="butt" stroke-linejoin="round" stroke-opacity="1.0" stroke-width="3.0" />
            <path d=" M 777.498, 477.468 777.363, 477.650 777.333, 477.710 777.233, 477.925 777.180, 478.159 777.177, 478.406 777.190, 478.474 777.236, 478.702 777.327, 478.915 777.460, 479.105 777.510, 479.155 777.672, 479.308 777.863, 479.423 777.922, 479.452 778.120, 479.517 778.177, 479.533 778.248, 479.545 778.331, 479.551 778.442, 479.553 778.492, 479.553 778.543, 479.550 778.594, 479.545 778.642, 479.537 778.716, 479.521 778.804, 479.501 778.881, 479.478 778.946, 479.452 778.997, 479.424 " fill="none" stroke="rgb(0, 0, 0)" stroke-linecap="butt" stroke-linejoin="round" stroke-opacity="1.0" stroke-width="3.0" />
            <path d=" M 777.727, 477.270 777.669, 477.318 777.585, 477.392 777.498, 477.468 777.607, 477.367 " fill="none" stroke="rgb(0, 0, 0)" stroke-linecap="butt" stroke-linejoin="round" stroke-opacity="1.0" stroke-width="3.0" />
            <path d=" M 775.304, 475.191 775.891, 481.182 780.102, 481.358 781.580, 481.419 782.215, 480.828 781.145, 475.318 779.073, 475.161 775.731, 474.909 775.304, 475.191 " fill="none" stroke="rgb(0, 0, 0)" stroke-linecap="butt" stroke-linejoin="round" stroke-opacity="1.0" stroke-width="3.0" />
            <path d=" M 781.580, 481.419 781.000, 475.415 " fill="none" stroke="rgb(0, 0, 0)" stroke-linecap="butt" stroke-linejoin="round" stroke-opacity="1.0" stroke-width="3.0" />
            <path d=" M 781.145, 475.318 781.000, 475.415 775.304, 475.191 " fill="none" stroke="rgb(0, 0, 0)" stroke-linecap="butt" stroke-linejoin="round" stroke-opacity="1.0" stroke-width="3.0" />
            <path d=" M 741.322, 504.854 738.318, 504.914 728.328, 505.369 726.858, 505.435 716.881, 506.118 715.418, 506.218 705.457, 507.105 703.993, 507.236 694.050, 508.302 692.577, 508.460 682.652, 509.682 681.164, 509.865 671.257, 511.220 669.751, 511.426 659.859, 512.891 658.331, 513.117 648.452, 514.669 646.899, 514.913 637.031, 516.532 635.451, 516.791 625.590, 518.456 623.980, 518.728 614.124, 520.418 612.482, 520.699 602.627, 522.396 600.951, 522.684 591.094, 524.367 589.383, 524.660 579.520, 526.311 577.772, 526.604 578.169, 516.612 578.345, 512.171 578.626, 502.175 578.753, 497.674 578.919, 487.675 578.994, 483.131 579.045, 473.131 579.069, 468.561 579.005, 458.561 578.976, 453.982 578.799, 443.984 578.717, 439.414 578.424, 429.419 578.291, 424.876 578.039, 418.716 " fill="none" stroke="rgb(0, 0, 0)" stroke-linecap="butt" stroke-linejoin="round" stroke-opacity="1.0" stroke-width="3.0" />
            <path d=" M 584.298, 269.980 583.564, 269.200 577.175, 261.508 576.768, 261.018 570.840, 252.965 570.370, 252.325 565.154, 244.336 " fill="none" stroke="rgb(0, 0, 0)" stroke-linecap="butt" stroke-linejoin="round" stroke-opacity="1.0" stroke-width="3.0" />
            <path d=" M 565.955, 245.696 565.154, 244.336 560.443, 236.343 560.184, 235.904 560.141, 235.821 555.517, 226.954 554.858, 225.690 550.684, 216.603 549.997, 215.108 548.691, 211.856 545.618, 204.207 542.334, 194.762 541.733, 193.035 " fill="none" stroke="rgb(0, 0, 0)" stroke-linecap="butt" stroke-linejoin="round" stroke-opacity="1.0" stroke-width="3.0" />
            <path d=" M 541.733, 193.035 541.329, 191.965 540.828, 190.640 538.116, 183.465 536.674, 180.025 534.342, 174.457 530.414, 166.046 527.896, 161.243 526.338, 158.271 523.778, 153.964 522.118, 151.171 517.760, 144.789 516.797, 143.582 513.271, 139.164 512.447, 138.302 508.659, 134.337 503.932, 130.350 499.100, 127.246 498.247, 126.868 495.275, 125.551 494.174, 125.064 489.166, 123.841 484.088, 123.620 478.956, 124.437 473.784, 126.324 469.302, 128.901 468.637, 129.284 468.590, 129.311 463.510, 133.337 463.392, 133.430 458.209, 138.703 453.061, 145.148 452.980, 145.270 450.699, 148.688 447.971, 152.778 446.580, 155.229 442.960, 161.604 438.561, 170.584 438.052, 171.624 434.128, 180.822 433.271, 182.831 429.768, 192.198 428.641, 195.213 425.515, 204.712 424.187, 208.749 421.400, 218.353 419.934, 223.406 417.454, 233.093 415.906, 239.143 413.708, 248.899 412.127, 255.916 410.190, 265.726 408.622, 273.665 406.926, 283.520 405.412, 292.323 403.943, 302.214 402.517, 311.814 401.263, 321.735 400.009, 331.656 399.958, 332.056 398.908, 342.001 397.859, 351.946 397.751, 352.961 396.898, 362.924 396.044, 372.888 395.912, 374.428 395.248, 384.406 394.584, 394.384 394.453, 396.354 394.477, 396.457 396.795, 406.185 399.114, 415.912 400.435, 421.457 400.548, 421.931 402.961, 431.636 405.374, 441.340 406.706, 446.695 409.217, 456.375 411.728, 466.055 412.928, 470.682 415.540, 480.334 418.152, 489.987 419.217, 493.924 421.933, 503.549 424.648, 513.173 425.575, 516.457 428.397, 526.051 431.219, 535.644 432.003, 538.311 434.934, 547.872 437.865, 557.432 438.504, 559.515 441.547, 569.041 444.589, 578.567 445.079, 580.100 448.236, 589.589 451.394, 599.078 451.732, 600.093 455.005, 609.542 458.279, 618.991 458.463, 619.521 461.855, 628.928 465.275, 638.410 468.789, 647.772 472.171, 656.785 475.807, 666.100 479.152, 674.669 482.913, 683.935 486.209, 692.057 " fill="none" stroke="rgb(0, 0, 0)" stroke-linecap="butt" stroke-linejoin="round" stroke-opacity="1.0" stroke-width="3.0" />
            <path d=" M 482.179, 610.219 481.560, 607.963 482.177, 612.065 " fill="none" stroke="rgb(0, 0, 0)" stroke-linecap="butt" stroke-linejoin="round" stroke-opacity="1.0" stroke-width="3.0" />
            <path d=" M 482.228, 627.053 481.684, 625.176 482.232, 628.328 " fill="none" stroke="rgb(0, 0, 0)" stroke-linecap="butt" stroke-linejoin="round" stroke-opacity="1.0" stroke-width="3.0" />
            <path d=" M 482.659, 643.543 482.258, 642.247 482.685, 644.387 " fill="none" stroke="rgb(0, 0, 0)" stroke-linecap="butt" stroke-linejoin="round" stroke-opacity="1.0" stroke-width="3.0" />
            <path d=" M 476.641, 624.227 478.503, 634.052 480.366, 643.877 482.229, 653.702 483.255, 659.116 " fill="none" stroke="rgb(0, 0, 0)" stroke-linecap="butt" stroke-linejoin="round" stroke-opacity="1.0" stroke-width="3.0" />
            <path d=" M 483.456, 659.716 483.255, 659.116 483.478, 660.093 " fill="none" stroke="rgb(0, 0, 0)" stroke-linecap="butt" stroke-linejoin="round" stroke-opacity="1.0" stroke-width="3.0" />
            <path d=" M 477.262, 641.213 479.346, 650.994 481.430, 660.774 483.515, 670.555 484.619, 675.735 " fill="none" stroke="rgb(0, 0, 0)" stroke-linecap="butt" stroke-linejoin="round" stroke-opacity="1.0" stroke-width="3.0" />
            <path d=" M 484.620, 675.738 484.619, 675.735 484.620, 675.740 " fill="none" stroke="rgb(0, 0, 0)" stroke-linecap="butt" stroke-linejoin="round" stroke-opacity="1.0" stroke-width="3.0" />
            <path d=" M 478.150, 658.031 480.456, 667.762 482.762, 677.492 485.068, 687.223 486.204, 692.016 " fill="none" stroke="rgb(0, 0, 0)" stroke-linecap="butt" stroke-linejoin="round" stroke-opacity="1.0" stroke-width="3.0" />
            <path d=" M 365.164, 387.919 360.431, 396.729 357.926, 401.392 " fill="none" stroke="rgb(0, 0, 0)" stroke-linecap="butt" stroke-linejoin="round" stroke-opacity="1.0" stroke-width="3.0" />
            <path d=" M 469.302, 128.901 467.065, 129.060 " fill="none" stroke="rgb(0, 0, 0)" stroke-linecap="butt" stroke-linejoin="round" stroke-opacity="1.0" stroke-width="3.0" />
            <path d=" M 560.443, 236.343 560.141, 235.821 " fill="none" stroke="rgb(0, 0, 0)" stroke-linecap="butt" stroke-linejoin="round" stroke-opacity="1.0" stroke-width="3.0" />
            <path d=" M 791.345, 540.603 791.485, 543.277 " fill="none" stroke="rgb(0, 0, 0)" stroke-linecap="butt" stroke-linejoin="round" stroke-opacity="1.0" stroke-width="3.0" />
            <path d=" M 794.845, 522.084 794.395, 516.587 " fill="none" stroke="rgb(0, 0, 0)" stroke-linecap="butt" stroke-linejoin="round" stroke-opacity="1.0" stroke-width="3.0" />
            <path d=" M 800.274, 519.400 800.091, 517.129 " fill="none" stroke="rgb(0, 0, 0)" stroke-linecap="butt" stroke-linejoin="round" stroke-opacity="1.0" stroke-width="3.0" />
            <path d=" M 801.475, 518.489 801.375, 517.251 " fill="none" stroke="rgb(0, 0, 0)" stroke-linecap="butt" stroke-linejoin="round" stroke-opacity="1.0" stroke-width="3.0" />
        </g>
    </g>
</svg>
