<?xml version='1.0' encoding='ascii'?>
<svg xmlns="http://www.w3.org/2000/svg" height="1080" version="1.1" width="1080">
    <g id="View Layer_LineSet" inkscape:groupmode="lineset" inkscape:label="View Layer_LineSet" xmlns:inkscape="http://www.inkscape.org/namespaces/inkscape">
        <g id="strokes" inkscape:groupmode="layer" inkscape:label="strokes" xmlns:inkscape="http://www.inkscape.org/namespaces/inkscape">
            <path d=" M 358.397, 394.237 364.835, 391.965 " fill="none" stroke="rgb(0, 0, 0)" stroke-linecap="butt" stroke-linejoin="round" stroke-opacity="1.0" stroke-width="3.0" />
            <path d=" M 382.701, 391.987 392.518, 393.892 394.590, 394.294 " fill="none" stroke="rgb(0, 0, 0)" stroke-linecap="butt" stroke-linejoin="round" stroke-opacity="1.0" stroke-width="3.0" />
            <path d=" M 394.590, 394.294 390.897, 385.001 387.204, 375.707 386.760, 374.589 " fill="none" stroke="rgb(0, 0, 0)" stroke-linecap="butt" stroke-linejoin="round" stroke-opacity="1.0" stroke-width="3.0" />
            <path d=" M 463.525, 126.771 458.983, 128.053 454.401, 130.452 449.793, 134.003 445.177, 138.734 440.570, 144.666 439.045, 147.048 438.520, 147.868 435.991, 151.817 431.461, 160.201 427.254, 169.273 426.999, 169.823 423.264, 179.099 422.628, 180.678 419.304, 190.110 418.371, 192.758 415.408, 202.309 414.249, 206.044 411.607, 215.689 410.286, 220.508 407.931, 230.226 406.505, 236.109 404.411, 245.887 402.929, 252.803 401.073, 262.629 399.580, 270.533 397.944, 280.398 396.479, 289.230 395.047, 299.127 393.645, 308.819 392.407, 318.742 391.168, 328.665 391.100, 329.215 390.044, 339.159 388.988, 349.103 388.858, 350.326 387.976, 360.287 387.094, 370.248 386.934, 372.049 386.760, 374.589 384.488, 384.328 382.701, 391.987 " fill="none" stroke="rgb(0, 0, 0)" stroke-linecap="butt" stroke-linejoin="round" stroke-opacity="1.0" stroke-width="3.0" />
            <path d=" M 526.214, 715.222 527.677, 708.490 528.295, 705.647 530.248, 695.840 530.658, 693.779 532.453, 683.941 532.888, 681.555 534.536, 671.692 534.985, 669.002 536.494, 659.116 536.948, 656.147 538.328, 646.242 538.777, 643.016 540.034, 633.095 540.472, 629.632 541.612, 619.698 542.033, 616.020 542.759, 609.002 543.461, 602.202 544.382, 592.245 544.756, 588.201 545.573, 578.235 545.917, 574.038 546.633, 564.063 546.944, 559.732 547.563, 549.751 547.839, 545.306 548.363, 535.319 548.601, 530.778 555.266, 530.711 557.115, 530.693 557.254, 530.692 559.040, 530.674 562.614, 530.638 563.463, 530.630 564.402, 530.620 566.980, 530.595 576.980, 530.496 577.603, 530.489 578.015, 520.498 578.208, 515.822 578.502, 505.827 578.641, 501.086 578.818, 491.088 578.902, 486.300 578.963, 476.300 578.992, 471.484 578.935, 461.484 578.908, 456.658 578.736, 446.660 578.652, 441.842 578.363, 431.846 578.224, 427.055 578.008, 421.787 " fill="none" stroke="rgb(0, 0, 0)" stroke-linecap="butt" stroke-linejoin="round" stroke-opacity="1.0" stroke-width="3.0" />
            <path d=" M 575.095, 426.877 575.188, 429.123 575.480, 439.119 575.602, 443.292 575.777, 453.290 575.850, 457.491 575.907, 467.491 575.931, 471.701 575.870, 481.700 575.845, 485.901 575.667, 495.899 575.593, 500.073 575.297, 510.068 575.175, 514.196 575.130, 515.279 575.028, 515.894 574.919, 516.467 574.803, 516.993 574.682, 517.470 574.556, 517.895 574.425, 518.265 574.291, 518.580 574.154, 518.837 574.016, 519.034 573.875, 519.172 573.734, 519.248 573.594, 519.263 573.454, 519.215 573.317, 519.107 569.419, 515.128 569.294, 513.772 569.137, 512.538 568.953, 511.448 568.743, 510.519 568.511, 509.767 568.261, 509.206 567.997, 508.845 567.724, 508.691 567.601, 508.689 565.055, 508.648 564.090, 508.632 563.270, 508.619 559.702, 508.561 557.919, 508.532 557.838, 508.531 557.340, 508.523 557.051, 508.579 556.761, 508.845 556.476, 509.317 556.201, 509.987 555.940, 510.845 555.929, 510.892 555.698, 511.876 555.479, 513.064 555.286, 514.388 555.124, 515.825 554.994, 517.352 554.900, 518.941 555.662, 519.666 556.534, 520.495 557.480, 520.512 557.599, 520.514 557.630, 520.515 559.382, 520.546 562.951, 520.609 563.778, 520.623 564.737, 520.640 565.129, 520.647 566.938, 520.679 566.969, 520.178 567.013, 519.704 567.069, 519.271 567.090, 519.149 567.135, 518.891 567.211, 518.574 567.293, 518.328 567.356, 518.206 567.380, 518.161 567.468, 518.077 567.557, 518.078 " fill="none" stroke="rgb(0, 0, 0)" stroke-linecap="butt" stroke-linejoin="round" stroke-opacity="1.0" stroke-width="3.0" />
            <path d=" M 567.976, 521.706 574.592, 528.250 577.603, 530.489 " fill="none" stroke="rgb(0, 0, 0)" stroke-linecap="butt" stroke-linejoin="round" stroke-opacity="1.0" stroke-width="3.0" />
            <path d=" M 392.308, 188.049 390.426, 193.786 387.639, 203.390 386.617, 206.912 384.120, 216.595 382.928, 221.218 380.690, 230.964 379.380, 236.668 377.375, 246.465 375.993, 253.220 374.202, 263.058 372.788, 270.821 371.192, 280.693 369.784, 289.405 368.370, 299.304 366.999, 308.899 365.756, 318.822 364.513, 328.744 364.452, 329.225 363.371, 339.166 362.289, 349.107 362.160, 350.289 361.232, 360.246 360.304, 370.203 360.137, 371.995 359.357, 381.964 358.577, 391.934 358.397, 394.237 357.807, 404.220 357.217, 414.202 357.058, 416.898 356.630, 426.889 356.203, 436.880 356.076, 439.845 355.808, 449.842 355.539, 459.838 355.456, 462.959 355.346, 472.958 355.237, 482.958 355.202, 486.117 355.252, 496.117 355.301, 506.117 355.317, 509.199 355.527, 519.197 355.737, 529.195 355.798, 532.083 356.172, 542.076 356.546, 552.069 356.643, 554.652 357.185, 564.638 357.727, 574.623 357.845, 576.792 358.561, 586.766 359.278, 596.740 359.396, 598.393 360.293, 608.353 361.190, 618.312 361.284, 619.354 362.372, 629.295 363.459, 639.236 363.496, 639.580 364.785, 649.496 366.018, 658.981 367.522, 668.867 368.803, 677.291 " fill="none" stroke="rgb(0, 0, 0)" stroke-linecap="butt" stroke-linejoin="round" stroke-opacity="1.0" stroke-width="3.0" />
            <path d=" M 491.819, 731.096 489.814, 737.317 486.586, 746.417 483.228, 754.982 479.745, 762.978 476.140, 770.372 472.419, 777.128 468.586, 783.208 464.647, 788.577 460.609, 793.199 456.481, 797.036 456.428, 797.073 " fill="none" stroke="rgb(0, 0, 0)" stroke-linecap="butt" stroke-linejoin="round" stroke-opacity="1.0" stroke-width="3.0" />
            <path d=" M 394.938, 389.289 394.590, 394.294 394.037, 404.278 393.483, 414.263 393.337, 416.899 392.948, 426.891 392.558, 436.883 392.444, 439.789 392.215, 449.786 391.985, 459.784 391.915, 462.846 391.845, 472.846 391.775, 482.846 391.753, 485.950 391.842, 495.949 391.931, 505.949 391.958, 508.978 392.206, 518.975 392.454, 528.972 392.525, 531.812 392.934, 541.804 393.343, 551.796 393.447, 554.335 394.021, 564.319 394.595, 574.302 394.717, 576.433 395.459, 586.405 396.202, 596.378 396.322, 597.997 397.239, 607.955 398.155, 617.913 398.248, 618.926 399.346, 628.865 400.443, 638.805 400.479, 639.125 401.767, 649.041 402.997, 658.505 404.487, 668.393 405.783, 676.988 407.489, 686.842 408.817, 694.507 410.756, 704.317 412.076, 710.998 414.270, 720.755 415.541, 726.410 418.014, 736.100 419.188, 740.703 421.971, 750.308 422.996, 753.845 426.128, 763.342 426.942, 765.809 430.472, 775.166 431.005, 776.581 434.990, 785.753 435.164, 786.155 439.399, 794.530 443.690, 801.711 444.727, 803.148 445.042, 803.585 448.019, 807.712 452.367, 812.552 456.720, 816.253 461.061, 818.841 465.375, 820.348 469.650, 820.809 473.875, 820.256 478.037, 818.728 482.127, 816.266 486.137, 812.908 490.057, 808.693 490.586, 807.997 493.881, 803.664 497.603, 797.861 501.217, 791.324 504.353, 784.845 " fill="none" stroke="rgb(0, 0, 0)" stroke-linecap="butt" stroke-linejoin="round" stroke-opacity="1.0" stroke-width="3.0" />
            <path d=" M 469.351, 802.705 465.319, 802.063 465.151, 801.996 461.264, 800.431 457.200, 797.777 456.428, 797.073 453.141, 794.075 449.100, 789.303 445.094, 783.443 441.139, 776.480 437.251, 768.402 433.450, 759.208 430.073, 749.796 429.752, 748.902 426.762, 739.359 426.176, 737.490 423.528, 727.847 422.743, 724.989 420.397, 715.268 419.469, 711.425 417.395, 701.643 416.375, 696.830 414.549, 686.998 413.479, 681.242 411.880, 671.371 410.800, 664.710 409.409, 654.808 408.354, 647.294 407.158, 637.365 406.158, 629.056 405.146, 619.107 404.227, 610.069 403.390, 600.104 402.576, 590.415 401.906, 580.438 401.235, 570.460 401.216, 570.182 400.707, 560.195 400.197, 550.208 400.159, 549.462 399.805, 539.468 399.452, 529.474 399.412, 528.354 399.211, 518.356 399.010, 508.358 398.982, 506.963 398.931, 496.963 398.880, 486.963 398.872, 485.395 398.971, 475.396 399.070, 465.396 399.086, 463.760 399.334, 453.763 399.583, 443.766 399.622, 442.166 400.021, 432.174 400.419, 422.182 400.477, 420.725 400.808, 414.740 " fill="none" stroke="rgb(0, 0, 0)" stroke-linecap="butt" stroke-linejoin="round" stroke-opacity="1.0" stroke-width="3.0" />
            <path d=" M 501.083, 773.147 499.552, 776.182 496.056, 782.238 492.466, 787.584 488.789, 792.185 485.030, 796.002 481.198, 798.998 477.301, 801.137 473.349, 802.385 469.351, 802.705 " fill="none" stroke="rgb(0, 0, 0)" stroke-linecap="butt" stroke-linejoin="round" stroke-opacity="1.0" stroke-width="3.0" />
            <path d=" M 546.103, 528.564 545.573, 538.550 545.364, 542.482 544.733, 552.462 544.490, 556.297 543.755, 566.270 543.481, 569.992 542.640, 579.957 542.337, 583.546 541.385, 593.500 541.057, 596.936 539.993, 606.879 539.644, 610.144 538.462, 620.074 538.097, 623.146 536.792, 633.060 536.416, 635.920 534.983, 645.817 534.728, 647.582 534.603, 648.442 533.035, 658.318 532.658, 660.690 530.946, 670.542 530.582, 672.638 528.717, 682.462 528.376, 684.259 526.347, 694.051 526.041, 695.528 524.415, 702.720 " fill="none" stroke="rgb(0, 0, 0)" stroke-linecap="butt" stroke-linejoin="round" stroke-opacity="1.0" stroke-width="3.0" />
            <path d=" M 548.601, 530.778 546.103, 528.564 555.356, 528.463 557.204, 528.442 562.691, 528.382 564.480, 528.362 564.799, 528.359 564.490, 528.064 563.581, 527.199 562.759, 526.417 559.301, 523.127 557.613, 521.521 557.629, 521.008 557.630, 520.515 " fill="none" stroke="rgb(0, 0, 0)" stroke-linecap="butt" stroke-linejoin="round" stroke-opacity="1.0" stroke-width="3.0" />
            <path d=" M 382.701, 391.987 382.134, 401.971 381.568, 411.955 381.366, 415.516 380.960, 425.508 380.554, 435.500 380.398, 439.346 380.149, 449.343 379.901, 459.340 379.801, 463.351 379.710, 473.351 379.618, 483.351 379.581, 487.403 379.647, 497.403 379.712, 507.403 379.739, 511.373 379.962, 521.370 380.185, 531.368 380.270, 535.134 380.653, 545.127 381.037, 555.119 381.169, 558.562 381.717, 568.547 382.265, 578.532 382.430, 581.537 383.147, 591.511 383.864, 601.485 384.041, 603.943 384.934, 613.903 385.826, 623.863 385.989, 625.674 387.065, 635.616 388.141, 645.558 388.257, 646.631 389.528, 656.549 390.799, 666.468 390.831, 666.719 392.309, 676.609 393.690, 685.858 395.389, 695.712 396.814, 703.977 398.753, 713.787 400.181, 721.011 402.384, 730.766 403.771, 736.909 406.263, 746.593 407.559, 751.629 410.375, 761.225 411.524, 765.140 414.704, 774.621 415.642, 777.416 419.238, 786.747 419.891, 788.444 423.963, 797.577 424.249, 798.219 428.694, 806.744 433.207, 814.025 437.766, 820.080 442.354, 824.930 446.952, 828.599 451.545, 831.118 456.116, 832.520 460.652, 832.843 465.139, 832.124 469.565, 830.403 473.920, 827.723 478.194, 824.127 482.377, 819.654 486.461, 814.349 " fill="none" stroke="rgb(0, 0, 0)" stroke-linecap="butt" stroke-linejoin="round" stroke-opacity="1.0" stroke-width="3.0" />
            <path d=" M 486.461, 814.349 492.165, 806.135 493.881, 803.664 " fill="none" stroke="rgb(0, 0, 0)" stroke-linecap="butt" stroke-linejoin="round" stroke-opacity="1.0" stroke-width="3.0" />
            <path d=" M 538.787, 553.482 529.852, 553.961 " fill="none" stroke="rgb(0, 0, 0)" stroke-linecap="butt" stroke-linejoin="round" stroke-opacity="1.0" stroke-width="3.0" />
            <path d=" M 541.075, 508.129 540.746, 518.123 540.417, 528.118 540.401, 528.627 539.819, 538.610 539.589, 542.554 538.857, 552.527 538.787, 553.482 534.914, 544.262 532.887, 539.438 " fill="none" stroke="rgb(0, 0, 0)" stroke-linecap="butt" stroke-linejoin="round" stroke-opacity="1.0" stroke-width="3.0" />
            <path d=" M 366.692, 367.432 366.443, 370.236 365.705, 380.209 365.659, 380.832 364.921, 390.805 364.835, 391.965 364.241, 401.947 363.647, 411.929 363.522, 414.038 363.068, 424.028 362.615, 434.018 362.508, 436.371 362.194, 446.366 361.880, 456.362 361.800, 458.876 361.743, 462.114 " fill="none" stroke="rgb(0, 0, 0)" stroke-linecap="butt" stroke-linejoin="round" stroke-opacity="1.0" stroke-width="3.0" />
            <path d=" M 532.223, 745.227 532.673, 743.213 534.709, 733.423 534.975, 732.140 536.876, 722.322 537.171, 720.799 538.943, 710.958 539.258, 709.209 540.910, 699.346 541.239, 697.386 542.775, 687.505 543.111, 685.347 544.538, 675.449 544.875, 673.108 546.197, 663.196 546.532, 660.685 547.753, 650.760 548.081, 648.092 549.204, 638.155 549.522, 635.343 550.551, 625.396 550.856, 622.453 551.793, 612.497 552.081, 609.434 552.929, 599.470 553.199, 596.299 553.960, 586.328 554.210, 583.060 554.885, 573.083 555.112, 569.731 555.704, 559.748 555.907, 556.322 556.417, 546.335 556.595, 542.846 557.022, 532.855 557.115, 530.693 " fill="none" stroke="rgb(0, 0, 0)" stroke-linecap="butt" stroke-linejoin="round" stroke-opacity="1.0" stroke-width="3.0" />
            <path d=" M 459.644, 873.398 462.060, 873.551 466.169, 873.636 470.237, 872.909 474.256, 871.398 478.218, 869.133 482.118, 866.145 485.950, 862.462 489.708, 858.116 493.387, 853.136 496.983, 847.551 500.493, 841.390 503.913, 834.682 507.240, 827.455 510.471, 819.735 513.379, 812.139 " fill="none" stroke="rgb(0, 0, 0)" stroke-linecap="butt" stroke-linejoin="round" stroke-opacity="1.0" stroke-width="3.0" />
            <path d=" M 516.666, 141.126 513.556, 133.581 510.279, 126.421 506.893, 119.813 503.402, 113.787 499.809, 108.375 496.117, 103.607 492.331, 99.516 488.455, 96.134 484.495, 93.491 480.458, 91.621 476.349, 90.555 472.176, 90.324 471.063, 90.490 467.948, 90.956 463.673, 92.482 459.362, 94.927 455.024, 98.318 450.670, 102.677 446.314, 108.024 441.967, 114.376 437.643, 121.746 433.997, 128.891 433.357, 130.146 429.262, 139.269 429.123, 139.579 428.113, 142.115 424.956, 150.046 421.609, 159.470 420.872, 161.544 417.840, 171.073 416.888, 174.062 414.138, 183.677 413.020, 187.585 410.526, 197.269 409.285, 202.091 407.025, 211.832 405.699, 217.552 403.655, 227.341 402.278, 233.934 400.435, 243.763 399.040, 251.197 397.383, 261.059 396.000, 269.293 394.518, 279.183 393.172, 288.170 391.857, 298.083 390.572, 307.767 389.415, 317.700 388.259, 327.633 388.214, 328.021 387.208, 337.970 386.203, 347.919 386.108, 348.860 385.249, 358.823 384.390, 368.786 384.267, 370.208 383.550, 380.182 382.833, 390.157 382.701, 391.987 382.122, 401.970 381.543, 411.954 381.417, 414.113 380.974, 424.103 380.530, 434.093 380.423, 436.498 380.113, 446.494 379.803, 456.489 379.723, 459.056 379.546, 469.054 379.368, 479.053 379.321, 481.695 379.276, 491.694 379.231, 501.694 379.219, 504.324 379.306, 514.324 379.393, 524.323 379.415, 526.854 379.636, 536.851 379.856, 546.849 379.908, 549.194 380.264, 559.188 380.620, 569.182 380.694, 571.259 381.188, 581.246 381.682, 591.234 381.768, 592.962 382.403, 602.941 383.039, 612.921 383.122, 614.222 383.903, 624.192 384.685, 634.161 384.748, 634.963 385.681, 644.919 386.614, 654.876 386.636, 655.111 387.726, 665.051 388.774, 674.600 390.030, 684.520 391.151, 693.366 392.582, 703.263 393.752, 711.355 395.370, 721.224 396.565, 728.517 398.381, 738.350 399.574, 744.806 401.604, 754.598 402.764, 760.188 405.027, 769.928 406.119, 774.629 408.636, 784.307 409.624, 788.105 412.421, 797.705 413.263, 800.596 416.370, 810.101 417.021, 812.090 420.475, 821.475 420.881, 822.579 424.726, 831.810 424.829, 832.059 428.850, 840.532 432.930, 848.004 437.056, 854.487 441.212, 859.992 445.389, 864.538 449.572, 868.144 453.752, 870.832 457.918, 872.625 461.552, 873.438 462.060, 873.551 " fill="none" stroke="rgb(0, 0, 0)" stroke-linecap="butt" stroke-linejoin="round" stroke-opacity="1.0" stroke-width="3.0" />
            <path d=" M 469.718, 90.417 465.463, 91.050 461.161, 92.576 456.823, 95.022 452.457, 98.413 448.077, 102.771 443.693, 108.117 439.320, 114.468 434.970, 121.837 431.246, 129.088 430.657, 130.234 426.541, 139.348 426.397, 139.665 422.679, 148.948 422.206, 150.130 422.130, 150.340 418.765, 159.757 418.098, 161.624 415.048, 171.148 414.090, 174.138 411.324, 183.748 410.200, 187.657 407.692, 197.337 406.443, 202.158 404.170, 211.896 402.836, 217.614 400.780, 227.400 399.396, 233.990 397.542, 243.817 396.140, 251.247 394.474, 261.107 393.083, 269.336 391.593, 279.225 390.240, 288.206 388.918, 298.118 387.627, 307.796 386.464, 317.728 385.301, 327.660 385.256, 328.042 384.246, 337.991 383.235, 347.939 383.140, 348.873 382.277, 358.835 381.413, 368.798 381.291, 370.213 380.570, 380.187 379.849, 390.161 379.718, 391.983 379.136, 401.966 378.554, 411.950 378.429, 414.100 377.984, 424.090 377.538, 434.080 377.431, 436.477 377.121, 446.472 376.810, 456.468 376.730, 459.026 376.553, 469.024 376.376, 479.023 376.329, 481.656 376.285, 491.655 376.240, 501.655 376.229, 504.276 376.318, 514.276 376.407, 524.275 376.429, 526.797 376.653, 536.795 376.876, 546.792 376.928, 549.129 377.288, 559.123 377.648, 569.116 377.722, 571.185 378.221, 581.173 378.720, 591.160 378.806, 592.880 379.447, 602.859 380.088, 612.839 380.171, 614.133 380.959, 624.101 381.747, 634.070 381.810, 634.866 382.750, 644.821 383.691, 654.777 383.712, 655.007 384.811, 664.946 385.867, 674.488 387.133, 684.408 388.261, 693.249 389.703, 703.144 390.881, 711.232 392.510, 721.098 393.714, 728.388 395.543, 738.219 396.744, 744.673 398.788, 754.461 399.956, 760.049 402.234, 769.786 403.334, 774.486 405.868, 784.160 406.863, 787.958 409.678, 797.554 410.527, 800.447 412.300, 805.833 413.106, 808.281 414.310, 811.939 417.785, 821.315 418.196, 822.425 422.063, 831.647 422.170, 831.903 426.218, 840.375 430.325, 847.847 434.477, 854.328 438.661, 859.834 442.865, 864.380 447.076, 867.986 451.283, 870.675 455.475, 872.470 459.644, 873.398 " fill="none" stroke="rgb(0, 0, 0)" stroke-linecap="butt" stroke-linejoin="round" stroke-opacity="1.0" stroke-width="3.0" />
            <path d=" M 472.176, 90.324 469.718, 90.417 " fill="none" stroke="rgb(0, 0, 0)" stroke-linecap="butt" stroke-linejoin="round" stroke-opacity="1.0" stroke-width="3.0" />
            <path d=" M 538.206, 766.514 538.702, 764.216 540.676, 754.413 541.105, 752.282 542.477, 744.967 543.394, 740.081 545.116, 730.230 545.570, 727.633 547.176, 717.763 547.633, 714.956 549.128, 705.068 549.582, 702.066 550.971, 692.163 551.418, 688.980 552.706, 679.064 553.141, 675.714 554.332, 665.785 554.752, 662.281 555.848, 652.341 556.250, 648.696 557.255, 638.747 557.636, 634.974 558.552, 625.016 558.910, 621.126 559.740, 611.161 560.073, 607.166 560.818, 597.194 561.124, 593.107 561.786, 583.129 562.063, 578.959 562.644, 568.976 562.891, 564.734 563.392, 554.747 563.608, 550.445 564.030, 540.453 564.214, 536.101 564.402, 530.620 " fill="none" stroke="rgb(0, 0, 0)" stroke-linecap="butt" stroke-linejoin="round" stroke-opacity="1.0" stroke-width="3.0" />
            <path d=" M 461.572, 910.110 463.955, 910.273 468.365, 909.912 472.724, 908.682 477.022, 906.617 481.253, 903.753 485.410, 900.123 489.487, 895.764 493.480, 890.707 497.383, 884.989 501.192, 878.641 504.904, 871.696 508.516, 864.186 512.025, 856.141 515.429, 847.591 518.726, 838.564 521.167, 831.308 " fill="none" stroke="rgb(0, 0, 0)" stroke-linecap="butt" stroke-linejoin="round" stroke-opacity="1.0" stroke-width="3.0" />
            <path d=" M 541.126, 189.327 539.615, 182.302 537.345, 172.563 537.036, 171.238 536.800, 170.304 534.330, 160.541 531.680, 150.898 531.498, 150.237 528.630, 140.657 528.540, 140.355 525.457, 130.922 522.249, 121.967 518.918, 113.522 515.465, 105.617 511.892, 98.287 508.202, 91.563 504.397, 85.481 500.482, 80.077 496.459, 75.385 492.334, 71.443 488.112, 68.288 483.798, 65.955 479.401, 64.482 474.927, 63.906 472.936, 64.062 470.384, 64.261 465.783, 65.582 461.133, 67.901 456.446, 71.251 451.733, 75.659 447.008, 81.151 442.284, 87.751 437.576, 95.476 432.900, 104.341 431.329, 107.741 428.273, 114.356 426.683, 118.250 423.711, 125.526 420.353, 134.766 419.233, 137.849 416.142, 147.359 414.856, 151.317 412.057, 160.917 410.600, 165.915 408.065, 175.589 406.484, 181.624 406.252, 182.605 403.958, 192.338 402.526, 198.413 400.452, 208.195 398.746, 216.246 396.877, 226.070 395.163, 235.080 393.484, 244.938 391.794, 254.862 390.295, 264.749 388.795, 274.636 388.659, 275.534 387.329, 285.445 385.998, 295.356 385.773, 297.028 384.604, 306.960 383.434, 316.891 383.154, 319.272 382.138, 329.220 381.122, 339.168 380.814, 342.184 379.946, 352.147 379.079, 362.109 378.768, 365.679 378.044, 375.653 377.319, 385.626 377.026, 389.664 376.442, 399.647 375.858, 409.630 375.600, 414.044 375.153, 424.034 374.706, 434.024 374.496, 438.718 374.185, 448.714 373.874, 458.709 373.722, 463.584 373.544, 473.583 373.367, 483.581 373.279, 488.538 373.236, 498.538 373.193, 508.538 373.171, 513.474 373.262, 523.474 373.353, 533.473 373.397, 538.288 373.624, 548.285 373.850, 558.283 373.954, 562.876 374.319, 572.870 374.683, 582.863 374.838, 587.138 375.343, 597.126 375.847, 607.113 376.042, 610.976 376.691, 620.955 377.340, 630.934 377.558, 634.298 378.355, 644.266 379.153, 654.234 379.375, 657.014 380.327, 666.968 381.279, 676.923 381.482, 679.042 382.595, 688.980 383.709, 698.918 383.864, 700.308 385.148, 710.225 386.431, 720.142 386.508, 720.740 387.972, 730.633 389.399, 740.279 391.054, 750.141 391.824, 754.733 392.518, 758.868 394.379, 768.693 395.850, 776.461 396.804, 780.940 398.888, 790.721 399.377, 793.018 401.702, 802.744 403.080, 808.508 404.680, 814.472 406.942, 822.905 409.826, 832.480 410.224, 833.802 410.944, 836.192 414.156, 845.662 415.070, 848.357 418.648, 857.695 419.300, 859.396 423.294, 868.564 423.618, 869.309 428.008, 878.103 432.454, 885.788 436.940, 892.380 441.452, 897.899 445.977, 902.366 450.501, 905.809 455.013, 908.253 459.501, 909.731 462.199, 910.059 463.955, 910.273 " fill="none" stroke="rgb(0, 0, 0)" stroke-linecap="butt" stroke-linejoin="round" stroke-opacity="1.0" stroke-width="3.0" />
            <path d=" M 367.071, 362.873 366.820, 365.705 366.692, 367.432 365.954, 377.405 365.707, 380.743 365.048, 389.653 364.935, 391.552 364.341, 401.534 363.747, 411.517 363.600, 413.994 363.146, 423.984 362.769, 432.292 362.482, 438.630 362.167, 448.625 361.853, 458.620 361.743, 462.114 361.701, 463.457 361.524, 473.455 361.348, 483.453 361.261, 488.371 361.222, 498.371 361.183, 508.371 361.164, 513.268 361.178, 514.753 " fill="none" stroke="rgb(0, 0, 0)" stroke-linecap="butt" stroke-linejoin="round" stroke-opacity="1.0" stroke-width="3.0" />
            <path d=" M 472.500, 64.006 467.929, 64.362 463.299, 65.684 458.619, 68.004 453.903, 71.353 449.161, 75.761 444.406, 81.253 439.653, 87.851 434.917, 95.575 430.213, 104.438 425.997, 113.506 425.558, 114.451 423.808, 118.710 420.969, 125.618 417.535, 135.010 416.464, 137.937 416.439, 138.013 416.073, 139.134 412.965, 148.639 412.062, 151.401 409.247, 160.997 407.781, 165.995 405.232, 175.665 403.641, 181.698 401.333, 191.428 399.661, 198.481 397.741, 207.485 395.860, 216.309 393.980, 226.130 392.257, 235.135 390.569, 244.992 388.870, 254.911 387.362, 264.796 385.854, 274.682 385.718, 275.575 384.380, 285.485 383.042, 295.395 382.817, 297.061 381.641, 306.992 380.465, 316.922 380.184, 319.296 379.163, 329.244 378.142, 339.192 377.833, 342.200 376.961, 352.162 376.089, 362.124 375.777, 365.685 375.050, 375.659 374.322, 385.633 374.028, 389.661 373.442, 399.644 372.855, 409.627 372.596, 414.032 372.148, 424.022 371.700, 434.011 371.489, 438.696 371.177, 448.691 370.865, 458.686 370.713, 463.552 370.536, 473.551 370.359, 483.549 370.271, 488.496 370.229, 498.496 370.187, 508.496 370.166, 513.423 370.259, 523.422 370.352, 533.422 370.396, 538.227 370.626, 548.224 370.855, 558.221 370.960, 562.805 371.328, 572.799 371.696, 582.792 371.853, 587.058 372.362, 597.045 372.871, 607.032 373.068, 610.887 373.722, 620.866 374.376, 630.844 374.596, 634.200 375.400, 644.168 376.204, 654.135 376.427, 656.908 377.387, 666.862 378.346, 676.815 378.550, 678.929 379.672, 688.865 380.794, 698.802 380.950, 700.186 382.243, 710.103 383.536, 720.019 383.613, 720.612 384.476, 726.398 385.950, 736.289 386.524, 740.144 388.191, 750.004 389.666, 758.727 391.460, 768.135 393.021, 776.315 393.649, 779.244 395.747, 789.021 396.572, 792.868 398.913, 802.590 400.300, 808.353 401.735, 813.665 404.188, 822.747 407.091, 832.316 408.217, 836.031 411.448, 845.494 412.370, 848.193 415.970, 857.523 416.628, 859.230 420.645, 868.388 420.975, 869.142 425.394, 877.934 429.869, 885.619 434.384, 892.211 438.926, 897.730 443.479, 902.198 448.033, 905.641 452.573, 908.087 457.090, 909.566 461.572, 910.110 " fill="none" stroke="rgb(0, 0, 0)" stroke-linecap="butt" stroke-linejoin="round" stroke-opacity="1.0" stroke-width="3.0" />
            <path d=" M 474.927, 63.906 472.500, 64.006 " fill="none" stroke="rgb(0, 0, 0)" stroke-linecap="butt" stroke-linejoin="round" stroke-opacity="1.0" stroke-width="3.0" />
            <path d=" M 548.845, 211.038 548.709, 210.223 546.931, 200.382 546.452, 197.731 544.531, 187.917 544.064, 185.535 541.990, 175.752 541.545, 173.657 539.306, 163.911 538.895, 162.123 536.477, 152.420 536.113, 150.958 533.501, 141.305 533.199, 140.189 530.374, 130.596 530.153, 129.844 527.095, 120.324 526.976, 119.953 523.667, 110.546 520.229, 101.656 516.662, 93.315 512.967, 85.558 509.149, 78.420 505.208, 71.939 501.148, 66.151 496.973, 61.096 492.688, 56.811 488.297, 53.338 483.807, 50.714 479.225, 48.981 474.558, 48.178 469.815, 48.344 464.928, 48.555 460.058, 49.729 455.132, 51.945 450.161, 55.238 445.157, 59.640 440.136, 65.181 435.111, 71.887 430.099, 79.779 425.295, 88.549 425.116, 88.875 420.799, 97.895 420.180, 99.189 416.291, 108.401 415.309, 110.726 411.798, 120.089 410.524, 123.487 407.348, 132.969 405.843, 137.466 402.969, 147.045 401.287, 152.651 398.686, 162.307 396.878, 169.019 394.525, 178.738 392.636, 186.542 392.308, 188.049 390.183, 197.821 388.582, 205.183 386.667, 214.998 384.737, 224.895 383.018, 234.747 381.300, 244.598 381.121, 245.625 379.586, 255.507 378.052, 265.388 377.754, 267.310 376.393, 277.217 375.033, 287.124 374.654, 289.878 373.459, 299.807 372.264, 309.735 371.840, 313.252 370.803, 323.198 369.766, 333.144 369.328, 337.345 368.933, 341.786 368.048, 351.747 367.163, 361.708 367.131, 362.064 367.071, 362.873 366.944, 364.599 366.206, 374.571 365.756, 380.652 365.264, 387.311 365.036, 391.134 364.442, 401.116 363.848, 411.098 363.736, 412.981 363.283, 422.971 362.830, 432.961 362.557, 438.967 362.243, 448.962 362.207, 450.103 361.893, 460.098 361.734, 465.158 361.557, 475.156 361.389, 484.676 361.270, 491.440 361.230, 501.440 361.191, 511.440 361.178, 514.753 361.178, 514.868 361.167, 517.700 361.266, 527.699 361.364, 537.699 361.425, 543.824 361.663, 553.821 361.901, 563.818 362.041, 569.701 362.420, 579.694 362.799, 589.687 363.009, 595.223 363.533, 605.209 364.056, 615.195 364.323, 620.283 364.995, 630.260 365.667, 640.238 365.973, 644.782 366.797, 654.748 367.622, 664.714 367.946, 668.625 368.803, 677.291 369.787, 687.242 370.230, 691.724 371.381, 701.658 372.531, 711.592 372.810, 713.999 374.136, 723.910 375.462, 733.822 375.670, 735.375 377.182, 745.260 378.693, 755.145 378.792, 755.787 380.502, 765.640 382.158, 775.179 384.081, 784.992 385.748, 793.501 387.902, 803.267 389.544, 810.714 391.949, 820.420 393.526, 826.783 396.207, 836.417 397.673, 841.687 400.660, 851.230 401.967, 855.406 405.294, 864.836 406.387, 867.932 410.097, 877.219 410.914, 879.263 415.058, 888.364 415.530, 889.400 420.168, 898.260 420.217, 898.354 424.958, 906.138 429.737, 912.771 434.538, 918.276 439.346, 922.679 444.149, 926.010 448.933, 928.299 453.686, 929.580 458.480, 929.920 463.134, 930.225 467.737, 929.593 472.281, 928.061 476.758, 925.667 481.160, 922.449 485.481, 918.443 489.716, 913.688 493.859, 908.221 497.905, 902.076 501.850, 895.289 505.692, 887.896 509.427, 879.928 513.053, 871.418 516.567, 862.398 519.969, 852.896 523.104, 843.400 523.255, 842.942 524.531, 838.769 " fill="none" stroke="rgb(0, 0, 0)" stroke-linecap="butt" stroke-linejoin="round" stroke-opacity="1.0" stroke-width="3.0" />
            <path d=" M 540.717, 774.237 542.667, 764.429 542.996, 762.771 544.819, 752.938 545.346, 750.094 547.049, 740.240 547.579, 737.172 549.167, 727.299 549.694, 724.023 551.174, 714.133 551.693, 710.664 553.068, 700.759 553.575, 697.111 554.850, 687.193 555.341, 683.380 556.520, 673.450 556.991, 669.486 558.077, 659.545 558.526, 655.443 559.522, 645.492 559.945, 641.264 560.854, 631.305 561.250, 626.962 562.074, 616.996 562.441, 612.550 563.181, 602.577 563.517, 598.040 564.175, 588.062 564.480, 583.444 565.057, 573.461 565.328, 568.773 565.826, 558.786 566.063, 554.039 566.483, 544.047 566.684, 539.251 566.980, 530.595 " fill="none" stroke="rgb(0, 0, 0)" stroke-linecap="butt" stroke-linejoin="round" stroke-opacity="1.0" stroke-width="3.0" />
            <path d=" M 469.815, 48.344 465.005, 49.516 460.140, 51.730 455.229, 55.023 450.287, 59.426 445.327, 64.967 440.362, 71.675 435.410, 79.570 430.651, 88.365 430.486, 88.670 427.486, 95.016 425.608, 98.988 421.759, 108.218 420.794, 110.531 417.320, 119.909 416.064, 123.300 413.101, 132.257 411.437, 137.288 408.595, 146.875 406.933, 152.482 406.837, 152.843 404.754, 160.669 402.573, 168.860 400.247, 178.586 398.378, 186.395 396.277, 196.172 394.369, 205.049 393.955, 207.194 392.062, 217.013 390.566, 224.775 388.866, 234.630 387.167, 244.484 386.988, 245.520 385.471, 255.404 384.583, 261.187 383.657, 267.221 382.311, 277.130 380.965, 287.039 380.589, 289.807 379.407, 299.736 378.224, 309.666 377.803, 313.198 376.777, 323.146 375.750, 333.093 375.315, 337.310 374.439, 347.271 373.562, 357.233 373.139, 362.048 372.408, 372.022 371.677, 381.995 371.287, 387.315 370.698, 397.298 370.109, 407.280 369.771, 413.006 369.321, 422.996 368.871, 432.985 368.600, 439.012 368.287, 449.007 367.974, 459.002 367.780, 465.223 367.603, 475.222 367.426, 485.220 367.314, 491.526 367.273, 501.526 367.232, 511.526 367.206, 517.807 367.301, 527.806 367.396, 537.806 367.454, 543.952 367.686, 553.949 367.919, 563.946 368.056, 569.849 368.427, 579.842 368.799, 589.835 369.006, 595.390 369.520, 605.377 370.034, 615.364 370.297, 620.470 370.958, 630.448 371.618, 640.426 371.920, 644.987 372.732, 654.954 373.543, 664.921 373.863, 668.847 373.965, 669.896 374.683, 677.265 375.652, 687.218 376.113, 691.963 377.247, 701.899 378.380, 711.834 378.656, 714.253 379.963, 724.167 381.270, 734.081 381.476, 735.643 381.916, 738.568 382.991, 745.700 384.482, 755.588 384.554, 756.069 386.241, 765.926 387.874, 775.473 389.771, 785.291 391.416, 793.806 392.604, 799.268 394.729, 809.039 395.161, 811.028 397.535, 820.742 399.090, 827.107 401.737, 836.750 403.182, 842.017 406.132, 851.572 407.315, 855.405 407.420, 855.743 410.707, 865.187 411.782, 868.274 415.450, 877.577 416.250, 879.609 420.349, 888.730 420.807, 889.749 425.434, 898.704 430.115, 906.490 434.833, 913.123 439.573, 918.627 444.320, 923.028 449.062, 926.356 453.786, 928.642 458.480, 929.920 " fill="none" stroke="rgb(0, 0, 0)" stroke-linecap="butt" stroke-linejoin="round" stroke-opacity="1.0" stroke-width="3.0" />
            <path d=" M 565.365, 519.124 565.366, 519.119 565.428, 518.041 565.457, 517.533 565.583, 516.004 565.741, 514.564 565.927, 513.239 566.140, 512.049 566.374, 511.016 566.626, 510.157 566.891, 509.486 567.166, 509.013 567.445, 508.747 567.601, 508.716 567.724, 508.691 " fill="none" stroke="rgb(0, 0, 0)" stroke-linecap="butt" stroke-linejoin="round" stroke-opacity="1.0" stroke-width="3.0" />
            <path d=" M 554.900, 518.941 555.687, 518.955 557.530, 518.987 557.533, 518.987 562.991, 519.083 564.777, 519.114 565.195, 519.121 565.365, 519.124 566.938, 520.679 " fill="none" stroke="rgb(0, 0, 0)" stroke-linecap="butt" stroke-linejoin="round" stroke-opacity="1.0" stroke-width="3.0" />
            <path d=" M 557.613, 521.521 562.924, 521.616 564.710, 521.647 565.086, 521.654 567.264, 521.693 567.976, 521.706 567.992, 521.192 567.994, 520.678 567.981, 520.179 567.954, 519.707 567.913, 519.275 567.898, 519.163 567.860, 518.895 567.796, 518.578 567.723, 518.332 567.642, 518.164 567.557, 518.078 " fill="none" stroke="rgb(0, 0, 0)" stroke-linecap="butt" stroke-linejoin="round" stroke-opacity="1.0" stroke-width="3.0" />
            <path d=" M 622.127, 922.772 624.299, 923.302 632.143, 924.949 639.997, 925.847 647.842, 926.015 655.662, 925.470 663.441, 924.231 671.163, 922.318 678.814, 919.752 686.381, 916.554 693.850, 912.746 701.211, 908.350 708.452, 903.388 715.563, 897.882 722.535, 891.854 729.359, 885.327 736.027, 878.323 742.531, 870.863 748.789, 863.063 748.865, 862.969 754.819, 854.935 755.022, 854.662 760.683, 846.419 760.996, 845.963 766.375, 837.532 766.783, 836.892 771.889, 828.293 772.378, 827.469 777.220, 818.719 777.776, 817.714 782.363, 808.828 782.973, 807.646 787.314, 798.637 787.966, 797.284 792.068, 788.164 792.751, 786.646 796.622, 777.426 797.325, 775.750 800.971, 766.438 801.686, 764.613 805.113, 755.219 805.831, 753.252 809.045, 743.783 809.757, 741.685 812.763, 732.147 813.464, 729.926 816.266, 720.327 816.948, 717.993 819.550, 708.338 820.207, 705.901 822.614, 696.194 823.241, 693.664 825.455, 683.912 826.048, 681.298 828.071, 671.505 828.627, 668.818 830.461, 658.988 830.975, 656.238 832.623, 646.375 833.092, 643.572 834.555, 633.680 834.976, 630.835 836.256, 620.917 836.627, 618.040 837.723, 608.101 838.043, 605.202 838.956, 595.244 839.223, 592.334 839.953, 582.360 840.166, 579.449 840.712, 569.464 840.871, 566.562 841.233, 556.569 841.337, 553.687 841.514, 543.689 841.564, 540.837 841.553, 530.837 841.549, 528.025 841.349, 518.027 841.293, 515.267 840.901, 505.275 840.795, 502.576 840.207, 492.593 840.053, 489.966 839.267, 479.997 839.066, 477.452 838.079, 467.501 837.835, 465.049 836.641, 455.120 836.358, 452.771 834.953, 442.871 834.635, 440.635 833.013, 430.768 832.665, 428.656 830.820, 418.828 830.448, 416.849 828.373, 407.067 827.983, 405.231 825.671, 395.502 825.271, 393.819 822.714, 384.152 822.311, 382.630 819.500, 373.034 819.104, 371.682 816.029, 362.167 815.649, 360.993 812.300, 351.570 811.948, 350.580 808.314, 341.264 808.001, 340.464 804.070, 331.269 803.810, 330.663 799.568, 321.607 799.376, 321.197 794.810, 312.301 794.701, 312.087 789.786, 303.354 784.636, 295.018 779.252, 287.102 773.639, 279.626 767.801, 272.614 761.742, 266.088 755.469, 260.071 748.986, 254.586 742.302, 249.655 735.424, 245.301 728.360, 241.548 721.119, 238.418 713.713, 235.933 706.152, 234.115 698.448, 232.985 690.616, 232.564 682.668, 232.869 680.456, 233.015 " fill="none" stroke="rgb(0, 0, 0)" stroke-linecap="butt" stroke-linejoin="round" stroke-opacity="1.0" stroke-width="3.0" />
            <path d=" M 624.299, 923.302 623.543, 923.069 616.483, 920.892 608.714, 917.705 601.014, 913.730 593.403, 908.956 585.903, 903.375 578.537, 896.983 571.464, 889.914 571.327, 889.777 564.735, 882.258 564.297, 881.758 558.180, 873.847 557.471, 872.929 551.819, 864.680 550.872, 863.297 549.602, 861.213 544.525, 852.873 540.679, 845.778 538.453, 841.670 534.107, 832.664 532.680, 829.706 529.403, 822.067 527.230, 817.002 526.315, 814.598 525.165, 811.574 522.125, 803.584 519.224, 794.949 518.136, 791.711 517.387, 789.481 514.559, 779.889 513.037, 774.726 511.287, 767.904 510.008, 762.915 509.095, 759.355 506.941, 749.590 505.579, 743.411 503.746, 733.580 502.507, 726.936 500.984, 717.052 499.894, 709.978 499.259, 704.827 498.037, 694.902 497.753, 692.589 496.824, 682.632 496.096, 674.822 495.455, 664.843 494.933, 656.734 494.573, 646.740 494.271, 638.382 494.187, 628.383 494.115, 619.829 494.304, 609.830 494.468, 601.134 494.926, 591.145 495.329, 582.363 496.056, 572.389 496.166, 570.867 496.697, 563.578 497.691, 553.627 498.568, 544.843 499.828, 534.922 500.293, 531.259 500.933, 526.221 501.870, 520.158 501.932, 519.753 503.460, 509.870 503.784, 507.776 505.580, 497.939 507.109, 489.569 509.177, 479.785 510.894, 471.659 513.237, 461.937 515.124, 454.105 517.746, 444.455 519.781, 436.962 522.555, 427.829 522.562, 427.805 524.846, 420.282 528.042, 410.807 530.298, 404.117 531.386, 401.197 534.878, 391.827 536.002, 388.811 536.114, 388.511 539.911, 379.259 541.926, 374.350 542.271, 373.507 546.381, 364.391 548.745, 359.146 552.738, 351.070 554.383, 347.743 555.511, 345.462 559.237, 338.587 560.860, 335.592 562.543, 332.487 563.206, 331.371 568.314, 322.774 569.613, 320.587 569.814, 320.248 570.106, 319.801 575.568, 311.424 577.300, 308.769 583.127, 300.643 584.972, 298.070 591.176, 290.227 592.806, 288.166 596.777, 283.633 600.775, 279.070 607.759, 271.913 608.854, 270.791 616.237, 264.046 617.018, 263.332 624.801, 257.054 625.242, 256.697 633.421, 250.943 633.504, 250.885 641.781, 245.890 650.052, 241.706 658.295, 238.324 666.490, 235.734 674.621, 233.920 682.015, 232.954 682.668, 232.869 " fill="none" stroke="rgb(0, 0, 0)" stroke-linecap="butt" stroke-linejoin="round" stroke-opacity="1.0" stroke-width="3.0" />
            <path d=" M 680.456, 233.015 672.398, 234.066 664.257, 235.879 656.050, 238.468 647.797, 241.847 639.517, 246.028 631.230, 251.019 623.046, 256.765 622.958, 256.827 615.169, 263.098 614.724, 263.456 607.334, 270.193 606.551, 270.907 599.560, 278.058 598.464, 279.179 595.575, 282.470 590.487, 288.266 584.275, 296.103 582.645, 298.160 576.810, 306.281 574.966, 308.848 569.728, 316.864 569.222, 317.638 567.473, 320.315 562.935, 327.938 560.567, 331.918 560.195, 332.541 558.960, 334.816 554.189, 343.604 554.094, 343.779 553.158, 345.502 552.435, 346.961 547.996, 355.922 546.387, 359.172 542.271, 368.285 541.651, 369.657 539.908, 373.517 536.105, 382.766 533.746, 388.504 530.249, 397.872 527.926, 404.092 524.726, 413.566 522.471, 420.240 520.718, 426.006 520.032, 428.259 517.404, 436.900 514.778, 446.549 512.745, 454.024 511.299, 460.012 508.953, 469.733 508.513, 471.558 506.442, 481.341 504.726, 489.447 504.276, 491.910 502.477, 501.746 501.401, 507.633 499.872, 517.516 499.799, 517.982 499.469, 520.115 498.550, 526.057 497.885, 531.283 496.624, 541.203 496.185, 544.657 495.191, 554.608 494.316, 563.371 493.590, 573.345 492.950, 582.135 492.492, 592.124 492.090, 600.885 491.903, 610.883 491.740, 619.558 491.826, 629.558 491.899, 638.091 492.262, 648.084 492.565, 656.422 492.800, 660.060 493.445, 670.039 493.732, 674.491 494.664, 684.447 495.393, 692.239 496.619, 702.163 497.539, 709.609 497.718, 710.764 499.245, 720.646 500.158, 726.549 501.996, 736.379 503.236, 743.007 505.395, 752.771 506.758, 758.936 508.766, 766.743 509.956, 771.373 510.707, 774.291 513.541, 783.881 515.064, 789.032 517.094, 795.059 518.161, 798.227 519.809, 803.122 523.373, 812.466 524.244, 814.750 524.456, 815.305 524.922, 816.529 525.423, 817.693 528.569, 825.008 530.381, 829.221 534.734, 838.224 536.162, 841.176 538.215, 844.955 542.242, 852.370 547.451, 860.906 548.599, 862.787 554.259, 871.031 555.207, 872.412 561.331, 880.317 562.043, 881.236 568.642, 888.749 569.083, 889.251 576.162, 896.313 576.302, 896.453 583.679, 902.843 591.189, 908.422 598.810, 913.196 606.521, 917.172 614.300, 920.360 622.127, 922.772 " fill="none" stroke="rgb(0, 0, 0)" stroke-linecap="butt" stroke-linejoin="round" stroke-opacity="1.0" stroke-width="3.0" />
            <path d=" M 699.302, 332.378 691.124, 332.617 684.920, 333.411 682.833, 333.678 681.685, 333.937 674.453, 335.569 667.694, 337.748 666.008, 338.292 657.522, 341.840 649.022, 346.218 640.539, 351.447 632.433, 357.303 632.106, 357.539 624.422, 363.938 623.755, 364.494 616.497, 371.372 615.518, 372.300 608.682, 379.597 607.427, 380.937 600.999, 388.597 599.508, 390.373 593.476, 398.350 591.789, 400.581 586.154, 408.842 584.310, 411.546 579.069, 420.063 578.271, 421.359 578.008, 421.787 577.108, 423.251 575.095, 426.877 570.220, 435.664 567.900, 440.302 565.450, 445.204 564.460, 447.183 563.703, 448.698 563.679, 448.744 560.170, 456.542 558.446, 460.372 558.404, 460.467 557.514, 462.443 556.593, 464.720 552.843, 473.990 551.746, 476.703 549.093, 484.019 547.190, 489.269 546.394, 491.465 543.927, 499.110 541.486, 506.678 541.075, 508.129 538.346, 517.749 537.058, 522.290 534.671, 532.001 533.831, 535.418 533.137, 538.243 532.887, 539.438 530.841, 549.227 529.852, 553.961 529.746, 554.469 528.038, 564.322 526.897, 570.898 525.523, 580.803 524.599, 587.460 523.551, 597.405 522.848, 604.084 522.127, 614.058 521.647, 620.702 521.264, 630.694 521.013, 637.245 520.977, 647.245 520.954, 653.644 521.205, 661.485 521.472, 669.828 522.156, 679.805 522.562, 685.730 523.614, 695.674 524.208, 701.287 524.415, 702.720 524.834, 705.634 526.214, 715.222 526.305, 715.855 526.390, 716.444 527.260, 721.194 529.063, 731.030 529.095, 731.202 531.208, 740.674 532.223, 745.227 532.268, 745.430 533.694, 750.801 534.788, 754.920 535.891, 759.076 537.049, 762.797 538.206, 766.514 538.351, 766.980 539.942, 772.093 540.717, 774.237 544.115, 783.642 544.401, 784.435 548.244, 793.668 549.242, 796.068 553.551, 805.092 554.441, 806.956 559.238, 815.730 559.971, 817.070 565.279, 825.545 565.805, 826.386 571.643, 834.505 571.916, 834.885 578.275, 842.552 584.855, 849.375 591.627, 855.349 598.564, 860.473 605.638, 864.746 609.323, 866.503 612.823, 868.172 620.092, 870.762 627.420, 872.526 634.783, 873.476 642.157, 873.629 649.520, 873.004 656.850, 871.621 664.127, 869.499 671.332, 866.663 678.448, 863.138 685.456, 858.948 692.341, 854.116 699.088, 848.672 705.683, 842.642 712.114, 836.051 718.368, 828.928 724.435, 821.299 730.305, 813.192 735.822, 804.851 735.967, 804.632 741.151, 796.081 741.414, 795.647 746.278, 786.910 746.637, 786.264 751.193, 777.362 751.630, 776.509 755.889, 767.461 756.386, 766.405 760.358, 757.228 760.898, 755.980 764.594, 746.688 765.162, 745.259 768.589, 735.865 769.173, 734.266 772.338, 724.780 772.924, 723.024 775.836, 713.457 776.414, 711.559 779.077, 701.920 779.638, 699.893 782.057, 690.190 782.591, 688.049 784.772, 678.290 785.272, 676.051 787.218, 666.242 787.678, 663.921 789.391, 654.069 789.806, 651.682 791.288, 641.793 791.653, 639.355 792.906, 629.434 793.218, 626.963 794.242, 617.016 794.498, 614.527 795.294, 604.559 795.493, 602.069 796.059, 592.086 796.199, 589.612 796.536, 579.617 796.618, 577.176 796.721, 567.176 796.746, 564.783 796.614, 554.784 796.584, 552.456 796.213, 542.463 796.149, 540.730 " fill="none" stroke="rgb(0, 0, 0)" stroke-linecap="butt" stroke-linejoin="round" stroke-opacity="1.0" stroke-width="3.0" />
            <path d=" M 791.554, 542.705 781.917, 544.458 776.399, 545.462 767.537, 547.074 766.822, 547.204 766.106, 547.335 765.388, 547.466 764.671, 547.598 763.821, 547.626 753.845, 546.930 752.318, 546.823 751.477, 546.592 750.671, 546.107 749.916, 545.378 749.226, 544.417 748.616, 543.242 748.096, 541.875 747.676, 540.343 747.366, 538.674 747.171, 536.900 747.095, 535.056 747.140, 533.177 747.304, 531.299 747.586, 529.460 747.978, 527.695 748.474, 526.037 749.063, 524.519 749.735, 523.170 750.474, 522.015 751.120, 521.134 751.766, 520.253 752.411, 519.373 753.056, 518.495 753.380, 518.056 757.433, 512.544 760.441, 508.454 766.365, 500.398 772.290, 492.342 775.344, 488.188 785.284, 489.284 786.197, 489.385 " fill="none" stroke="rgb(0, 0, 0)" stroke-linecap="butt" stroke-linejoin="round" stroke-opacity="1.0" stroke-width="3.0" />
            <path d=" M 822.540, 504.753 821.232, 495.214 819.573, 485.352 819.284, 483.636 817.312, 473.832 817.001, 472.288 814.704, 462.555 814.383, 461.196 811.752, 451.548 811.434, 450.382 808.460, 440.835 808.159, 439.868 804.837, 430.436 804.566, 429.668 800.879, 420.373 800.657, 419.812 796.581, 410.680 796.427, 410.336 791.941, 401.398 791.878, 401.272 787.012, 392.654 781.837, 384.505 776.363, 376.848 770.601, 369.696 764.560, 363.071 758.246, 357.011 751.666, 351.556 744.830, 346.739 737.752, 342.586 730.447, 339.116 724.135, 336.786 722.932, 336.342 715.225, 334.272 707.342, 332.939 699.302, 332.378 " fill="none" stroke="rgb(0, 0, 0)" stroke-linecap="butt" stroke-linejoin="round" stroke-opacity="1.0" stroke-width="3.0" />
            <path d=" M 667.694, 337.748 669.223, 338.613 675.170, 342.739 680.932, 347.510 686.499, 352.899 691.862, 358.872 697.014, 365.392 701.951, 372.421 706.665, 379.937 711.147, 387.928 715.389, 396.372 719.384, 405.244 723.130, 414.516 726.540, 423.917 726.626, 424.154 729.723, 433.663 729.873, 434.124 732.674, 443.724 732.871, 444.400 735.383, 454.079 735.612, 454.964 737.844, 464.712 738.093, 465.800 740.053, 475.606 740.309, 476.886 742.008, 486.740 742.259, 488.196 743.111, 494.010 743.128, 495.241 743.086, 496.483 742.985, 497.722 742.825, 498.945 742.609, 500.140 742.339, 501.294 742.017, 502.395 741.647, 503.432 741.296, 504.244 741.232, 504.393 740.777, 505.270 740.287, 506.052 739.766, 506.732 739.221, 507.302 738.656, 507.758 730.499, 513.542 724.284, 517.949 " fill="none" stroke="rgb(0, 0, 0)" stroke-linecap="butt" stroke-linejoin="round" stroke-opacity="1.0" stroke-width="3.0" />
            <path d=" M 800.420, 535.056 801.381, 535.117 802.532, 535.191 803.209, 535.234 811.100, 529.092 814.398, 526.525 816.283, 525.057 823.777, 519.225 824.135, 518.946 825.663, 517.933 830.180, 514.937 829.125, 504.992 828.851, 502.410 827.508, 492.501 827.177, 490.065 825.537, 480.200 825.158, 477.924 823.210, 468.115 822.792, 466.014 820.526, 456.274 820.081, 454.360 817.831, 445.983 817.026, 442.988 814.090, 433.429 813.628, 431.924 812.275, 428.043 809.888, 421.196 806.226, 411.890 805.809, 410.830 801.762, 401.685 801.395, 400.854 796.947, 391.898 796.648, 391.296 791.782, 382.560 791.574, 382.187 791.192, 381.575 786.256, 373.678 786.177, 373.552 780.464, 365.422 774.442, 357.826 768.118, 350.794 761.503, 344.355 754.605, 338.537 747.437, 333.370 740.012, 328.884 732.343, 325.104 724.446, 322.058 716.338, 319.774 708.038, 318.276 699.565, 317.585 689.582, 317.004 679.599, 316.424 674.272, 316.115 " fill="none" stroke="rgb(0, 0, 0)" stroke-linecap="butt" stroke-linejoin="round" stroke-opacity="1.0" stroke-width="3.0" />
            <path d=" M 699.565, 317.585 690.942, 317.724 688.090, 318.047 682.191, 318.715 673.338, 320.572 670.244, 321.521 664.409, 323.310 655.432, 326.943 650.994, 329.180 649.298, 330.035 646.435, 331.478 637.882, 336.658 637.451, 336.919 629.297, 342.708 628.510, 343.267 620.772, 349.601 619.647, 350.521 612.329, 357.337 610.895, 358.673 603.998, 365.914 602.288, 367.709 595.809, 375.327 593.863, 377.615 587.796, 385.564 585.657, 388.367 579.993, 396.609 577.703, 399.940 577.330, 400.542 577.024, 401.035 571.754, 409.534 570.038, 412.301 567.449, 416.927 565.044, 421.224 563.310, 424.321 562.699, 425.413 558.204, 434.313 556.399, 437.887 555.719, 439.235 551.579, 448.338 549.131, 453.719 545.351, 462.977 544.432, 465.227 542.968, 468.812 539.542, 478.207 537.261, 484.461 535.791, 489.005 535.241, 490.706 535.228, 490.747 533.896, 494.864 532.039, 500.604 529.655, 508.984 527.326, 517.175 527.277, 517.374 525.750, 523.560 524.216, 529.777 523.908, 531.024 523.147, 534.109 522.605, 536.686 521.660, 541.180 519.601, 550.966 519.524, 551.335 517.801, 561.185 516.473, 568.779 515.086, 578.682 514.010, 586.368 512.960, 596.312 512.146, 604.025 511.436, 614.000 510.889, 621.676 510.522, 631.669 510.243, 639.244 510.224, 649.244 510.219, 651.694 510.210, 656.653 510.545, 666.648 510.786, 673.831 511.484, 683.807 511.966, 690.706 513.035, 700.649 513.740, 707.208 515.191, 717.103 516.096, 723.272 " fill="none" stroke="rgb(0, 0, 0)" stroke-linecap="butt" stroke-linejoin="round" stroke-opacity="1.0" stroke-width="3.0" />
            <path d=" M 755.764, 512.383 754.489, 502.465 754.256, 500.657 753.982, 498.030 753.963, 498.264 753.803, 499.493 753.588, 500.694 753.319, 501.853 752.998, 502.960 752.630, 504.002 752.217, 504.968 751.765, 505.849 751.278, 506.635 750.761, 507.318 750.220, 507.892 749.659, 508.350 741.539, 514.186 733.419, 520.023 732.953, 520.358 732.820, 520.195 732.270, 519.523 731.521, 518.891 730.720, 518.473 729.878, 518.276 724.284, 517.949 718.719, 517.623 717.846, 517.650 716.962, 517.902 716.082, 518.375 715.222, 519.060 714.395, 519.947 713.650, 521.024 713.002, 522.272 712.429, 523.670 711.942, 525.192 711.547, 526.814 711.254, 528.506 711.065, 530.241 710.986, 531.987 711.016, 533.716 711.156, 535.398 721.134, 536.061 722.353, 536.142 727.069, 532.789 727.031, 532.251 727.036, 531.698 727.085, 531.144 727.176, 530.604 727.233, 530.383 727.307, 530.095 727.474, 529.628 727.672, 529.218 727.897, 528.875 728.141, 528.609 728.399, 528.427 728.663, 528.333 728.925, 528.331 " fill="none" stroke="rgb(0, 0, 0)" stroke-linecap="butt" stroke-linejoin="round" stroke-opacity="1.0" stroke-width="3.0" />
            <path d=" M 796.412, 522.172 800.277, 519.149 801.488, 518.202 803.117, 516.928 806.634, 514.178 807.134, 513.743 807.620, 513.207 807.874, 512.863 808.086, 512.576 808.530, 511.856 808.948, 511.054 809.336, 510.178 809.693, 509.233 810.016, 508.229 810.301, 507.173 810.547, 506.073 810.752, 504.938 810.915, 503.777 811.033, 502.597 811.105, 501.410 820.703, 504.216 822.540, 504.753 822.442, 505.535 822.238, 506.676 821.993, 507.781 821.709, 508.843 821.389, 509.852 821.035, 510.801 820.649, 511.682 820.234, 512.488 819.794, 513.212 819.332, 513.846 818.850, 514.385 818.355, 514.823 810.524, 521.043 805.932, 524.691 805.292, 523.834 805.269, 523.813 804.588, 523.186 803.831, 522.759 803.034, 522.560 801.807, 522.488 800.556, 522.415 796.412, 522.172 794.865, 522.082 791.162, 521.865 790.546, 521.889 790.331, 521.897 790.198, 521.939 789.487, 522.161 788.645, 522.652 787.819, 523.363 787.023, 524.281 786.307, 525.395 785.686, 526.686 785.135, 528.130 784.664, 529.702 784.280, 531.376 783.992, 533.123 783.802, 534.913 783.716, 536.714 783.734, 538.497 783.856, 540.230 791.441, 540.734 791.509, 540.739 795.773, 541.022 796.149, 540.730 800.250, 537.537 800.218, 536.983 800.226, 536.412 800.276, 535.841 800.365, 535.284 800.420, 535.056 800.492, 534.758 800.653, 534.276 800.843, 533.852 801.057, 533.497 801.268, 533.248 801.290, 533.221 801.535, 533.032 801.785, 532.934 802.033, 532.931 " fill="none" stroke="rgb(0, 0, 0)" stroke-linecap="butt" stroke-linejoin="round" stroke-opacity="1.0" stroke-width="3.0" />
            <path d=" M 776.399, 545.462 776.583, 550.176 776.725, 560.175 776.756, 562.383 776.654, 572.382 776.631, 574.653 776.289, 584.647 776.209, 586.966 775.629, 596.949 775.492, 599.298 774.675, 609.264 774.481, 611.628 773.428, 621.572 773.178, 623.935 771.889, 633.851 771.585, 636.197 770.060, 646.080 769.704, 648.392 767.942, 658.235 767.537, 660.497 765.536, 670.295 765.088, 672.493 762.846, 682.238 762.359, 684.355 759.872, 694.041 759.354, 696.062 756.618, 705.681 756.074, 707.591 753.085, 717.134 752.526, 718.919 749.278, 728.377 748.713, 730.023 745.199, 739.385 744.639, 740.879 740.852, 750.134 740.308, 751.463 736.241, 760.598 735.728, 761.752 731.371, 770.753 730.903, 771.720 726.245, 780.569 725.838, 781.342 720.871, 790.021 720.543, 790.594 715.253, 799.080 715.023, 799.449 709.400, 807.718 709.288, 807.883 703.345, 815.867 697.204, 823.376 690.877, 830.385 684.373, 836.864 677.706, 842.789 670.887, 848.133 663.932, 852.870 656.855, 856.974 649.672, 860.419 642.400, 863.183 635.058, 865.241 627.664, 866.570 620.239, 867.149 612.804, 866.961 609.323, 866.503 " fill="none" stroke="rgb(0, 0, 0)" stroke-linecap="butt" stroke-linejoin="round" stroke-opacity="1.0" stroke-width="3.0" />
            <path d=" M 763.821, 547.626 762.988, 547.395 762.189, 546.909 761.441, 546.176 760.759, 545.211 760.155, 544.031 759.641, 542.658 759.227, 541.119 758.921, 539.442 758.730, 537.659 758.704, 537.022 758.656, 535.806 758.702, 533.918 758.867, 532.032 759.141, 530.231 759.148, 530.183 759.539, 528.409 760.032, 526.743 760.617, 525.217 761.285, 523.861 762.019, 522.700 762.660, 521.813 763.301, 520.928 763.942, 520.043 764.581, 519.161 764.902, 518.719 768.607, 513.616 774.481, 505.524 777.342, 501.582 783.217, 493.489 786.197, 489.385 787.659, 499.277 787.770, 500.029 788.362, 504.341 789.493, 514.277 789.647, 515.635 790.198, 521.939 " fill="none" stroke="rgb(0, 0, 0)" stroke-linecap="butt" stroke-linejoin="round" stroke-opacity="1.0" stroke-width="3.0" />
            <path d=" M 794.346, 516.086 800.062, 516.635 801.365, 516.760 803.117, 516.928 " fill="none" stroke="rgb(0, 0, 0)" stroke-linecap="butt" stroke-linejoin="round" stroke-opacity="1.0" stroke-width="3.0" />
            <path d=" M 764.779, 537.420 764.460, 537.363 764.160, 537.160 763.894, 536.818 763.673, 536.354 763.507, 535.787 763.402, 535.142 763.364, 534.447 763.394, 533.733 763.492, 533.031 763.651, 532.373 763.866, 531.786 764.128, 531.296 764.424, 530.926 764.741, 530.692 765.066, 530.602 " fill="none" stroke="rgb(0, 0, 0)" stroke-linecap="butt" stroke-linejoin="round" stroke-opacity="1.0" stroke-width="3.0" />
            <path d=" M 765.066, 530.602 765.385, 530.661 765.683, 530.867 765.948, 531.208 766.168, 531.672 766.333, 532.239 766.437, 532.882 766.474, 533.575 766.444, 534.286 766.348, 534.985 766.189, 535.642 765.975, 536.228 765.714, 536.717 765.420, 537.089 765.103, 537.327 764.779, 537.420 " fill="none" stroke="rgb(0, 0, 0)" stroke-linecap="butt" stroke-linejoin="round" stroke-opacity="1.0" stroke-width="3.0" />
            <path d=" M 727.233, 530.383 730.186, 530.572 738.336, 524.777 746.485, 518.982 754.635, 513.186 755.764, 512.383 757.433, 512.544 " fill="none" stroke="rgb(0, 0, 0)" stroke-linecap="butt" stroke-linejoin="round" stroke-opacity="1.0" stroke-width="3.0" />
            <path d=" M 801.381, 535.117 801.518, 537.379 801.881, 547.372 801.983, 550.195 802.108, 560.194 802.144, 563.100 802.035, 573.099 802.002, 576.071 801.661, 586.065 801.558, 589.087 800.988, 599.070 800.813, 602.124 800.015, 612.092 799.768, 615.163 798.742, 625.110 798.425, 628.179 797.171, 638.100 796.785, 641.152 795.303, 651.042 794.851, 654.059 793.138, 663.912 792.623, 666.878 790.678, 676.687 790.104, 679.586 787.925, 689.346 787.297, 692.160 784.880, 701.864 784.204, 704.578 781.545, 714.218 780.829, 716.814 777.922, 726.383 777.174, 728.847 774.015, 738.335 773.244, 740.651 769.825, 750.048 769.042, 752.201 765.355, 761.497 764.572, 763.472 760.611, 772.654 759.841, 774.440 755.595, 783.494 754.852, 785.077 750.311, 793.987 749.613, 795.357 744.766, 804.103 744.129, 805.252 738.965, 813.815 738.409, 814.737 732.913, 823.092 732.459, 823.782 726.619, 831.900 726.289, 832.359 720.092, 840.207 719.908, 840.440 713.327, 847.997 706.556, 855.000 699.608, 861.419 692.497, 867.228 685.236, 872.397 677.841, 876.896 670.328, 880.698 662.716, 883.779 655.022, 886.109 647.268, 887.663 639.474, 888.420 631.664, 888.356 623.859, 887.451 616.087, 885.687 608.371, 883.049 600.739, 879.524 593.220, 875.101 585.841, 869.776 578.632, 863.545 571.621, 856.410 565.172, 848.768 564.841, 848.375 558.941, 840.301 558.321, 839.452 552.954, 831.015 552.090, 829.657 547.237, 820.913 546.179, 819.006 541.820, 810.006 540.618, 807.526 536.729, 798.313 535.886, 796.315 535.435, 795.247 533.125, 788.943 531.934, 785.693 530.656, 782.204 527.646, 772.668 526.539, 769.164 526.310, 768.437 525.484, 765.372 522.884, 755.716 522.420, 753.991 520.212, 744.238 519.618, 741.615 519.008, 738.918 518.200, 734.574 516.370, 724.743 516.096, 723.272 512.584, 713.909 509.525, 705.756 " fill="none" stroke="rgb(0, 0, 0)" stroke-linecap="butt" stroke-linejoin="round" stroke-opacity="1.0" stroke-width="3.0" />
            <path d=" M 674.272, 316.115 666.441, 316.230 661.990, 316.770 658.501, 317.193 650.474, 319.017 642.385, 321.720 634.259, 325.316 626.122, 329.813 618.003, 335.217 610.126, 341.378 609.931, 341.531 602.510, 348.234 601.935, 348.753 594.969, 355.928 594.048, 356.877 587.530, 364.461 586.300, 365.891 580.219, 373.830 578.725, 375.780 576.032, 379.705 575.674, 380.228 571.355, 386.524 566.720, 394.045 564.321, 397.938 564.224, 398.096 562.628, 400.973 557.777, 409.717 557.604, 410.029 557.363, 410.463 555.847, 413.498 551.379, 422.444 550.806, 423.591 546.707, 432.713 544.584, 437.438 544.289, 438.169 540.548, 447.443 538.728, 451.954 535.334, 461.361 533.267, 467.089 530.212, 476.611 528.230, 482.786 525.505, 492.408 523.643, 498.984 521.752, 506.627 519.528, 515.616 519.183, 517.234 519.095, 517.647 517.012, 527.428 516.726, 528.770 516.230, 531.100 515.908, 532.614 514.140, 542.456 512.802, 549.906 511.347, 559.800 510.226, 567.419 509.082, 577.354 508.193, 585.076 507.361, 595.041 506.713, 602.799 506.194, 612.785 505.793, 620.511 505.590, 630.509 505.435, 638.135 505.553, 648.134 505.640, 655.595 506.085, 665.585 506.405, 672.789 506.407, 672.815 507.185, 682.785 507.727, 689.723 508.841, 699.661 509.525, 705.756 509.222, 715.752 508.955, 724.581 " fill="none" stroke="rgb(0, 0, 0)" stroke-linecap="butt" stroke-linejoin="round" stroke-opacity="1.0" stroke-width="3.0" />
            <path d=" M 511.987, 740.722 514.053, 749.768 515.412, 755.721 515.537, 756.266 518.157, 765.916 519.580, 771.154 521.959, 778.628 523.058, 782.079 524.094, 785.335 527.559, 794.716 528.834, 798.166 529.053, 798.760 530.047, 801.094 533.038, 808.119 534.430, 811.389 538.820, 820.374 540.193, 823.186 545.080, 831.911 546.316, 834.118 551.720, 842.532 552.766, 844.161 558.706, 852.205 559.511, 853.296 566.003, 860.902 566.520, 861.509 573.573, 868.598 573.763, 868.788 581.206, 875.130 588.820, 880.536 596.573, 885.008 604.437, 888.553 612.383, 891.184 620.382, 892.917 628.409, 893.765 636.438, 893.750 644.445, 892.895 652.406, 891.223 660.302, 888.758 668.110, 885.528 675.812, 881.561 683.391, 876.885 690.829, 871.527 698.111, 865.520 705.223, 858.893 712.152, 851.675 718.697, 844.113 718.886, 843.895 725.063, 836.030 725.414, 835.584 731.236, 827.453 731.724, 826.771 737.205, 818.407 737.809, 817.485 742.961, 808.915 743.658, 807.755 748.495, 799.003 749.266, 797.609 753.799, 788.696 754.623, 787.076 758.864, 778.019 759.725, 776.180 763.682, 766.997 764.564, 764.951 768.248, 755.654 769.136, 753.414 772.555, 744.017 773.436, 741.596 776.596, 732.108 777.458, 729.520 780.367, 719.952 781.200, 717.212 783.863, 707.573 784.657, 704.697 787.078, 694.995 787.826, 691.999 790.010, 682.240 790.704, 679.140 792.654, 669.332 793.288, 666.145 795.007, 656.294 795.575, 653.036 797.065, 643.148 797.563, 639.836 798.825, 629.916 799.250, 626.568 800.284, 616.622 800.635, 613.254 801.441, 603.286 801.714, 599.916 802.291, 589.933 802.485, 586.577 802.833, 576.583 802.949, 573.258 803.065, 563.259 803.103, 559.983 802.985, 549.984 802.946, 546.774 802.589, 536.780 802.532, 535.191 " fill="none" stroke="rgb(0, 0, 0)" stroke-linecap="butt" stroke-linejoin="round" stroke-opacity="1.0" stroke-width="3.0" />
            <path d=" M 508.955, 724.581 510.801, 734.409 511.987, 740.722 " fill="none" stroke="rgb(0, 0, 0)" stroke-linecap="butt" stroke-linejoin="round" stroke-opacity="1.0" stroke-width="3.0" />
            <path d=" M 817.831, 445.983 817.558, 444.384 815.650, 434.568 815.413, 433.350 813.269, 423.583 813.032, 422.504 810.645, 412.793 810.416, 411.862 807.778, 402.216 807.566, 401.439 804.667, 391.868 804.481, 391.253 801.310, 381.769 801.161, 381.324 797.706, 371.940 797.607, 371.671 793.821, 362.308 789.806, 353.253 785.563, 344.522 781.096, 336.136 776.406, 328.115 771.496, 320.479 766.367, 313.252 761.026, 306.455 755.476, 300.105 749.723, 294.221 743.775, 288.820 737.636, 283.923 731.314, 279.551 724.816, 275.727 718.151, 272.473 711.328, 269.813 704.357, 267.765 697.250, 266.344 690.018, 265.566 682.674, 265.445 681.021, 265.568 675.233, 265.998 667.707, 267.241 660.114, 269.190 652.470, 271.860 644.792, 275.266 637.100, 279.413 629.412, 284.303 621.747, 289.939 614.125, 296.320 613.559, 296.854 606.568, 303.446 599.684, 310.699 599.098, 311.316 592.600, 318.917 591.738, 319.925 585.586, 327.882 584.514, 329.268 578.768, 337.452 577.448, 339.333 576.612, 340.640 573.122, 346.098 572.690, 346.774 570.563, 350.100 565.522, 358.737 565.070, 359.511 563.881, 361.548 562.722, 363.721 561.068, 366.822 557.426, 373.651 556.171, 376.225 554.489, 379.676 551.218, 386.385 547.151, 395.520 545.282, 399.719 543.398, 404.362 539.640, 413.623 536.180, 423.005 534.315, 428.062 533.665, 430.012 530.500, 439.498 529.331, 443.001 526.454, 452.578 524.707, 458.395 522.110, 468.052 520.458, 474.197 518.136, 483.924 516.600, 490.360 514.549, 500.147 513.147, 506.832 511.363, 516.672 510.114, 523.564 508.945, 531.173 507.512, 540.501 506.259, 550.422 505.354, 557.590 504.367, 567.542 503.650, 574.776 502.930, 584.750 502.406, 592.002 501.952, 601.992 501.624, 609.211 501.436, 619.209 501.303, 626.347 501.386, 636.346 501.444, 643.354 501.802, 653.347 502.047, 660.177 502.685, 670.156 503.107, 676.762 503.879, 685.085 504.618, 693.057 505.832, 702.983 506.570, 709.013 508.084, 718.898 508.955, 724.581 510.778, 734.414 511.761, 739.715 511.987, 740.722 514.003, 749.937 514.973, 754.373 515.360, 755.888 517.829, 765.579 518.578, 768.516 521.389, 778.112 521.754, 779.359 522.558, 782.105 522.827, 782.909 525.993, 792.395 526.898, 795.107 528.509, 799.371 529.679, 802.467 531.578, 807.492 532.602, 809.896 536.520, 819.097 536.578, 819.234 540.894, 828.255 541.878, 830.311 546.608, 839.121 547.457, 840.701 552.623, 849.263 553.297, 850.381 558.913, 858.655 559.378, 859.339 565.455, 867.281 565.674, 867.568 572.164, 875.062 578.827, 881.817 585.640, 887.833 592.585, 893.107 599.641, 897.641 606.789, 901.437 614.011, 904.500 621.004, 906.754 621.285, 906.844 628.594, 908.485 635.919, 909.436 643.244, 909.712 650.553, 909.327 657.832, 908.296 665.065, 906.632 672.241, 904.350 679.345, 901.471 686.365, 898.017 693.290, 894.011 700.109, 889.474 706.812, 884.425 713.389, 878.883 719.833, 872.867 726.135, 866.393 732.287, 859.479 738.281, 852.148 744.113, 844.422 749.776, 836.322 755.266, 827.867 760.438, 819.308 760.577, 819.077 765.483, 810.363 765.705, 809.968 770.352, 801.113 770.645, 800.557 775.041, 791.575 775.391, 790.858 779.544, 781.761 779.941, 780.890 783.858, 771.689 784.292, 770.671 787.981, 761.376 788.440, 760.219 791.909, 750.840 792.385, 749.553 795.639, 740.097 796.124, 738.687 799.168, 729.162 799.655, 727.638 802.492, 718.049 802.974, 716.420 805.608, 706.773 806.079, 705.047 808.512, 695.347 808.967, 693.532 811.203, 683.785 811.637, 681.892 813.678, 672.103 814.087, 670.141 815.938, 660.314 816.318, 658.295 817.980, 648.434 818.328, 646.367 819.802, 636.476 820.116, 634.371 821.404, 624.454 821.681, 622.321 822.782, 612.382 823.020, 610.231 823.934, 600.273 824.132, 598.113 824.857, 588.140 825.014, 585.982 825.552, 575.997 825.668, 573.851 826.019, 563.857 826.093, 561.734 826.255, 551.735 826.289, 549.644 826.259, 539.644 826.253, 537.596 826.030, 527.598 825.985, 525.602 825.663, 517.933 " fill="none" stroke="rgb(0, 0, 0)" stroke-linecap="butt" stroke-linejoin="round" stroke-opacity="1.0" stroke-width="3.0" />
            <path d=" M 680.461, 265.559 673.009, 266.112 665.473, 267.355 657.870, 269.302 650.216, 271.971 642.529, 275.375 634.828, 279.518 627.130, 284.404 619.456, 290.034 612.321, 295.996 611.826, 296.409 604.544, 303.263 604.261, 303.529 597.369, 310.775 596.783, 311.391 590.277, 318.986 589.416, 319.992 583.291, 327.896 582.184, 329.325 579.911, 332.556 575.111, 339.379 572.806, 342.976 572.366, 343.663 569.962, 347.415 568.220, 350.135 564.850, 355.898 562.489, 359.935 561.533, 361.570 560.848, 362.852 556.135, 371.672 555.940, 372.035 555.071, 373.661 554.248, 375.347 549.859, 384.332 548.859, 386.380 544.786, 395.513 543.201, 399.066 542.918, 399.700 539.152, 408.963 537.272, 413.588 533.807, 422.968 531.944, 428.011 528.774, 437.495 526.957, 442.933 524.075, 452.509 522.690, 457.113 522.330, 458.309 519.729, 467.965 518.079, 474.094 515.754, 483.820 514.220, 490.238 512.166, 500.025 510.766, 506.691 508.980, 516.531 507.732, 523.404 506.534, 531.197 505.130, 540.322 503.876, 550.243 502.973, 557.391 501.985, 567.342 501.269, 574.558 500.550, 584.532 500.028, 591.764 499.574, 601.754 499.247, 608.953 499.061, 618.952 498.928, 626.070 499.013, 636.069 499.072, 643.058 499.433, 653.051 499.679, 659.862 500.320, 669.842 500.743, 676.429 501.670, 686.386 502.230, 692.413 502.258, 692.707 503.476, 702.633 504.215, 708.646 505.734, 718.530 506.604, 724.198 508.433, 734.030 509.416, 739.317 511.563, 749.084 512.634, 753.960 512.718, 754.286 514.114, 759.749 516.245, 768.089 519.063, 777.683 520.232, 781.665 520.710, 783.093 521.815, 786.395 524.579, 794.655 527.618, 802.679 528.793, 805.779 529.266, 807.029 531.804, 812.975 534.274, 818.761 538.598, 827.778 539.581, 829.828 544.320, 838.634 545.168, 840.210 550.342, 848.767 551.017, 849.883 556.641, 858.152 557.106, 858.836 563.191, 866.771 563.412, 867.059 569.911, 874.549 576.583, 881.301 583.405, 887.314 590.359, 892.587 597.425, 897.120 604.583, 900.916 611.815, 903.980 619.099, 906.326 " fill="none" stroke="rgb(0, 0, 0)" stroke-linecap="butt" stroke-linejoin="round" stroke-opacity="1.0" stroke-width="3.0" />
            <path d=" M 682.674, 265.445 680.461, 265.559 " fill="none" stroke="rgb(0, 0, 0)" stroke-linecap="butt" stroke-linejoin="round" stroke-opacity="1.0" stroke-width="3.0" />
            <path d=" M 619.099, 906.326 621.285, 906.844 " fill="none" stroke="rgb(0, 0, 0)" stroke-linecap="butt" stroke-linejoin="round" stroke-opacity="1.0" stroke-width="3.0" />
            <path d=" M 491.383, 728.790 491.819, 731.096 493.485, 739.897 494.659, 746.099 496.841, 755.858 498.150, 761.710 498.403, 762.843 500.920, 772.521 501.083, 773.147 502.598, 778.974 503.343, 781.466 504.353, 784.845 507.043, 793.844 507.224, 794.450 508.083, 796.974 511.307, 806.440 512.257, 809.231 512.275, 809.277 513.379, 812.139 516.505, 820.246 517.624, 823.148 517.676, 823.282 520.000, 828.626 521.167, 831.308 522.115, 833.487 523.457, 836.574 524.531, 838.769 528.925, 847.751 529.575, 849.080 534.392, 857.843 536.005, 860.778 541.261, 869.285 542.722, 871.649 548.432, 879.859 549.699, 881.681 555.876, 889.546 556.911, 890.864 563.565, 898.329 564.332, 899.190 571.467, 906.196 571.937, 906.657 579.552, 913.140 579.701, 913.267 587.599, 919.021 595.608, 923.928 603.704, 927.996 611.865, 931.236 620.070, 933.662 624.391, 934.740 632.597, 936.361 640.807, 937.200 649.001, 937.275 657.163, 936.606 665.275, 935.214 673.322, 933.120 681.289, 930.348 689.163, 926.920 696.931, 922.860 704.580, 918.191 712.100, 912.937 719.480, 907.122 726.711, 900.770 733.785, 893.904 740.692, 886.547 747.215, 878.967 747.427, 878.722 753.638, 870.885 753.981, 870.452 759.891, 862.385 760.349, 861.759 765.968, 853.487 766.526, 852.665 771.864, 844.208 772.506, 843.190 777.573, 834.569 778.285, 833.357 783.090, 824.587 783.858, 823.185 788.411, 814.281 789.222, 812.694 793.531, 803.669 794.374, 801.903 798.445, 792.769 799.309, 790.831 803.151, 781.599 804.026, 779.497 807.645, 770.175 808.521, 767.918 811.924, 758.515 812.793, 756.112 815.984, 746.635 816.840, 744.095 819.824, 734.551 820.658, 731.885 823.441, 722.280 824.248, 719.497 826.833, 709.837 827.606, 706.948 829.997, 697.238 830.732, 694.252 832.931, 684.497 833.624, 681.425 835.634, 671.629 836.280, 668.482 838.105, 658.649 838.701, 655.436 840.340, 645.572 840.883, 642.304 842.340, 632.411 842.827, 629.098 844.101, 619.180 844.531, 615.833 845.624, 605.893 845.994, 602.523 846.906, 592.565 847.215, 589.182 847.945, 579.208 848.193, 575.822 848.742, 565.837 848.927, 562.459 849.293, 552.466 849.416, 549.106 849.598, 539.108 849.659, 535.777 849.656, 525.777 849.655, 522.485 849.465, 512.487 849.403, 509.245 849.023, 499.252 848.902, 496.071 848.329, 486.087 848.151, 482.977 847.382, 473.007 847.149, 469.979 846.181, 460.025 845.895, 457.090 844.723, 447.159 844.389, 444.326 843.008, 434.422 842.629, 431.703 841.035, 421.831 840.616, 419.236 838.801, 409.402 838.348, 406.942 836.307, 397.152 835.824, 394.837 833.550, 385.099 833.045, 382.939 830.529, 373.260 830.010, 371.264 827.244, 361.655 826.720, 359.832 823.694, 350.301 823.173, 348.660 819.878, 339.219 819.372, 337.768 815.795, 328.429 815.315, 327.175 811.446, 317.953 811.004, 316.901 806.830, 307.814 806.441, 306.966 801.947, 298.033 801.626, 297.393 796.800, 288.635 796.562, 288.202 791.389, 279.644 791.251, 279.417 785.696, 271.058 779.900, 263.150 773.868, 255.716 767.603, 248.780 761.112, 242.366 754.399, 236.498 747.473, 231.201 740.340, 226.500 733.009, 222.419 725.489, 218.983 717.791, 216.215 709.926, 214.140 701.906, 212.781 693.745, 212.159 685.458, 212.296 681.054, 212.625 672.633, 213.543 664.120, 215.258 655.531, 217.786 646.886, 221.143 638.207, 225.343 629.514, 230.396 621.250, 236.026 620.831, 236.312 612.961, 242.482 612.181, 243.094 604.713, 249.745 603.589, 250.747 596.523, 257.823 595.080, 259.269 588.413, 266.721 586.682, 268.656 584.658, 271.166 578.422, 278.901 572.526, 286.978 570.326, 289.991 566.675, 295.499 566.117, 296.341 562.990, 301.057 562.424, 301.912 560.947, 304.359 558.556, 308.322 557.763, 309.636 556.940, 311.000 554.742, 314.643 553.735, 316.476 552.152, 319.354 552.052, 319.536 550.418, 322.508 547.311, 328.159 543.911, 334.943 542.296, 338.166 540.157, 342.434 539.693, 343.451 535.540, 352.547 533.309, 357.433 529.873, 365.705 526.794, 373.120 523.267, 382.477 520.638, 389.454 517.412, 398.919 514.866, 406.389 511.934, 415.949 509.503, 423.876 506.858, 433.520 504.571, 441.863 502.209, 451.580 500.092, 460.292 498.698, 466.832 496.615, 476.613 496.266, 478.248 496.084, 479.106 494.275, 488.941 492.564, 498.242 491.132, 507.454 490.546, 511.222 490.148, 513.783 489.867, 515.588 489.690, 516.727 489.557, 517.583 489.549, 517.636 489.528, 517.798 489.335, 519.307 489.208, 520.303 488.655, 524.636 487.389, 534.555 487.049, 537.221 486.053, 547.172 485.076, 556.931 484.350, 566.905 483.637, 576.698 483.181, 586.688 482.736, 596.452 482.553, 606.451 482.407, 614.476 482.383, 615.783 482.377, 616.126 482.470, 626.126 482.516, 631.156 482.525, 632.088 482.558, 635.652 482.930, 645.645 482.998, 647.465 483.015, 647.921 483.277, 654.962 483.829, 663.344 483.835, 663.440 484.491, 673.419 484.529, 673.993 484.937, 678.294 485.883, 688.249 486.304, 692.681 486.491, 694.177 486.651, 695.450 487.893, 705.373 488.593, 710.966 490.140, 720.845 491.383, 728.790 " fill="none" stroke="rgb(0, 0, 0)" stroke-linecap="butt" stroke-linejoin="round" stroke-opacity="1.0" stroke-width="3.0" />
            <path d=" M 685.458, 212.296 677.060, 213.213 668.569, 214.928 660.003, 217.459 651.380, 220.820 642.722, 225.025 634.049, 230.086 625.795, 235.731 625.386, 236.011 617.529, 242.196 616.755, 242.805 609.301, 249.471 608.182, 250.471 601.131, 257.562 599.691, 259.009 593.039, 266.475 591.310, 268.415 587.017, 273.760 583.066, 278.680 577.185, 286.768 574.985, 289.792 569.475, 298.137 567.530, 301.082 567.097, 301.738 566.982, 301.929 561.830, 310.500 561.532, 310.997 559.429, 314.495 559.152, 315.001 557.562, 317.905 552.717, 326.750 552.010, 328.041 551.080, 329.904 546.613, 338.851 544.868, 342.346 540.727, 351.448 540.400, 352.168 538.030, 357.378 534.206, 366.618 531.523, 373.100 528.007, 382.461 525.375, 389.470 522.159, 398.939 519.610, 406.443 516.687, 416.006 515.909, 418.552 514.253, 423.970 511.616, 433.616 509.325, 441.998 506.970, 451.717 504.849, 460.470 502.771, 470.252 500.843, 479.327 499.039, 489.163 497.325, 498.507 495.792, 508.389 495.289, 511.630 494.931, 513.939 494.377, 517.509 494.309, 517.945 494.045, 520.019 493.029, 527.998 491.809, 537.576 490.814, 547.526 489.833, 557.332 489.107, 567.305 488.827, 571.151 488.390, 577.143 487.934, 587.133 487.485, 596.943 487.470, 597.803 487.284, 607.801 487.121, 616.661 487.182, 623.595 487.272, 633.594 487.295, 636.230 487.663, 646.224 488.007, 655.584 488.657, 665.563 489.250, 674.656 490.189, 684.612 490.554, 688.485 491.016, 693.385 492.250, 703.308 493.294, 711.709 493.319, 711.870 494.295, 718.143 494.789, 721.320 495.517, 725.996 496.073, 729.570 497.922, 739.398 499.336, 746.915 501.507, 756.677 503.068, 763.693 505.572, 773.374 505.926, 774.743 506.980, 778.818 507.249, 779.855 510.099, 789.441 511.859, 795.360 514.472, 803.071 515.509, 806.132 516.877, 810.168 520.460, 819.504 521.780, 822.942 522.280, 824.245 522.943, 825.778 526.179, 833.253 526.201, 833.303 528.044, 837.559 532.422, 846.550 534.144, 850.085 538.945, 858.858 540.556, 861.801 545.796, 870.318 547.254, 872.688 552.948, 880.909 554.211, 882.734 560.373, 890.610 561.403, 891.927 568.043, 899.405 568.804, 900.262 575.927, 907.281 576.388, 907.736 583.992, 914.231 584.131, 914.350 592.008, 920.108 599.995, 925.015 608.069, 929.081 616.209, 932.318 624.391, 934.740 " fill="none" stroke="rgb(0, 0, 0)" stroke-linecap="butt" stroke-linejoin="round" stroke-opacity="1.0" stroke-width="3.0" />
            <path d=" M 729.878, 518.276 729.011, 518.305 728.134, 518.558 727.259, 519.034 726.404, 519.723 726.189, 519.956 725.582, 520.615 724.841, 521.697 724.197, 522.952 723.627, 524.357 723.142, 525.887 722.749, 527.516 722.677, 527.938 722.456, 529.217 722.364, 530.073 722.268, 530.960 722.187, 532.715 722.216, 534.453 722.353, 536.142 " fill="none" stroke="rgb(0, 0, 0)" stroke-linecap="butt" stroke-linejoin="round" stroke-opacity="1.0" stroke-width="3.0" />
            <path d=" M 728.925, 528.331 729.180, 528.420 729.420, 528.598 729.637, 528.860 729.828, 529.198 729.985, 529.604 730.106, 530.066 730.186, 530.572 " fill="none" stroke="rgb(0, 0, 0)" stroke-linecap="butt" stroke-linejoin="round" stroke-opacity="1.0" stroke-width="3.0" />
            <path d=" M 803.034, 522.560 802.210, 522.594 801.373, 522.859 800.538, 523.353 799.718, 524.068 799.511, 524.310 798.928, 524.991 798.217, 526.111 797.600, 527.409 797.053, 528.861 796.584, 530.442 796.203, 532.124 796.132, 532.559 795.915, 533.880 795.822, 534.763 795.726, 535.679 795.638, 537.489 795.654, 539.281 795.773, 541.022 " fill="none" stroke="rgb(0, 0, 0)" stroke-linecap="butt" stroke-linejoin="round" stroke-opacity="1.0" stroke-width="3.0" />
            <path d=" M 802.033, 532.931 802.273, 533.021 802.498, 533.203 802.702, 533.472 802.879, 533.820 803.026, 534.237 803.137, 534.713 803.209, 535.234 " fill="none" stroke="rgb(0, 0, 0)" stroke-linecap="butt" stroke-linejoin="round" stroke-opacity="1.0" stroke-width="3.0" />
            <path d=" M 777.383, 477.012 777.503, 476.915 777.637, 476.839 777.783, 476.785 777.938, 476.755 778.099, 476.750 778.321, 476.781 778.539, 476.856 778.745, 476.971 778.931, 477.124 779.091, 477.307 779.220, 477.517 779.311, 477.747 779.360, 477.992 779.362, 478.222 779.322, 478.441 779.240, 478.642 779.120, 478.817 778.966, 478.959 778.782, 479.064 " fill="none" stroke="rgb(0, 0, 0)" stroke-linecap="butt" stroke-linejoin="round" stroke-opacity="1.0" stroke-width="3.0" />
            <path d=" M 777.275, 477.115 777.140, 477.296 777.110, 477.358 777.012, 477.573 776.959, 477.807 776.958, 478.054 776.971, 478.123 777.018, 478.350 777.110, 478.562 777.244, 478.751 777.294, 478.803 777.457, 478.954 777.648, 479.068 777.708, 479.098 777.905, 479.161 777.963, 479.177 778.034, 479.189 778.116, 479.195 778.213, 479.196 778.278, 479.195 778.329, 479.192 778.379, 479.187 778.428, 479.178 778.502, 479.164 778.589, 479.143 778.667, 479.119 778.732, 479.092 778.782, 479.064 " fill="none" stroke="rgb(0, 0, 0)" stroke-linecap="butt" stroke-linejoin="round" stroke-opacity="1.0" stroke-width="3.0" />
            <path d=" M 777.503, 476.915 777.445, 476.965 777.355, 477.044 777.275, 477.115 777.383, 477.012 " fill="none" stroke="rgb(0, 0, 0)" stroke-linecap="butt" stroke-linejoin="round" stroke-opacity="1.0" stroke-width="3.0" />
            <path d=" M 775.071, 474.842 775.684, 480.817 779.933, 480.994 781.375, 481.054 782.007, 480.450 780.912, 474.965 778.873, 474.809 775.497, 474.551 775.071, 474.842 " fill="none" stroke="rgb(0, 0, 0)" stroke-linecap="butt" stroke-linejoin="round" stroke-opacity="1.0" stroke-width="3.0" />
            <path d=" M 781.375, 481.054 780.767, 475.065 " fill="none" stroke="rgb(0, 0, 0)" stroke-linecap="butt" stroke-linejoin="round" stroke-opacity="1.0" stroke-width="3.0" />
            <path d=" M 780.912, 474.965 780.767, 475.065 775.071, 474.842 " fill="none" stroke="rgb(0, 0, 0)" stroke-linecap="butt" stroke-linejoin="round" stroke-opacity="1.0" stroke-width="3.0" />
            <path d=" M 741.296, 504.244 738.237, 504.315 728.249, 504.811 726.781, 504.884 716.808, 505.617 715.346, 505.725 705.390, 506.668 703.925, 506.807 693.989, 507.936 692.513, 508.104 682.597, 509.393 681.106, 509.587 671.208, 511.013 669.698, 511.231 659.817, 512.769 658.283, 513.008 648.416, 514.637 646.856, 514.895 637.001, 516.592 635.412, 516.865 625.565, 518.609 623.946, 518.896 614.104, 520.665 612.452, 520.962 602.611, 522.737 600.926, 523.041 591.082, 524.801 589.361, 525.109 579.511, 526.836 577.753, 527.144 578.166, 517.153 578.349, 512.731 578.646, 502.736 578.779, 498.249 578.961, 488.251 579.043, 483.717 579.110, 473.717 579.140, 469.154 579.093, 459.154 579.071, 454.577 578.910, 444.579 578.836, 440.007 578.559, 430.011 578.433, 425.462 578.271, 421.359 " fill="none" stroke="rgb(0, 0, 0)" stroke-linecap="butt" stroke-linejoin="round" stroke-opacity="1.0" stroke-width="3.0" />
            <path d=" M 584.658, 271.166 583.250, 269.617 576.987, 261.821 576.568, 261.300 570.768, 253.154 570.288, 252.479 564.949, 244.024 564.437, 243.213 559.558, 234.484 559.252, 233.938 " fill="none" stroke="rgb(0, 0, 0)" stroke-linecap="butt" stroke-linejoin="round" stroke-opacity="1.0" stroke-width="3.0" />
            <path d=" M 560.238, 235.899 559.252, 233.938 557.977, 231.400 555.042, 225.561 554.543, 224.430 552.343, 219.452 550.317, 214.867 549.911, 213.814 548.952, 211.323 548.848, 211.053 546.158, 204.070 546.080, 203.867 " fill="none" stroke="rgb(0, 0, 0)" stroke-linecap="butt" stroke-linejoin="round" stroke-opacity="1.0" stroke-width="3.0" />
            <path d=" M 545.773, 202.812 542.586, 193.333 542.343, 192.610 541.126, 189.327 540.627, 187.979 538.753, 182.924 536.417, 177.229 535.006, 173.792 531.106, 165.249 527.566, 158.328 527.056, 157.332 523.490, 151.168 522.863, 150.084 518.531, 143.545 516.666, 141.126 514.067, 137.755 512.254, 135.778 509.479, 132.754 504.775, 128.585 499.965, 125.290 497.939, 124.307 495.059, 122.909 494.922, 122.870 490.069, 121.480 485.008, 121.045 479.890, 121.640 474.731, 123.299 469.547, 126.053 469.123, 126.370 468.680, 126.701 464.356, 129.933 463.496, 130.768 459.177, 134.963 454.030, 141.161 453.047, 142.585 450.502, 146.273 448.936, 148.543 446.597, 152.541 443.919, 157.119 439.423, 166.052 439.001, 166.891 434.993, 176.052 434.205, 177.851 430.629, 187.189 429.557, 189.989 426.367, 199.467 425.082, 203.287 422.237, 212.874 420.802, 217.713 418.271, 227.387 416.743, 233.228 414.500, 242.973 412.930, 249.789 410.951, 259.591 409.387, 267.339 407.652, 277.187 406.134, 285.811 404.629, 295.698 403.193, 305.133 401.905, 315.050 400.618, 324.967 400.585, 325.224 399.503, 335.165 398.422, 345.107 398.325, 345.995 397.442, 355.956 396.558, 365.917 396.431, 367.350 395.738, 377.326 395.045, 387.302 394.914, 389.185 394.938, 389.289 397.185, 399.033 399.433, 408.777 400.808, 414.740 401.043, 415.762 403.382, 425.484 405.721, 435.207 407.233, 441.491 409.667, 451.190 412.100, 460.890 413.486, 466.411 416.017, 476.086 418.548, 485.760 419.803, 490.557 422.434, 500.205 425.066, 509.853 426.187, 513.964 428.922, 523.583 431.656, 533.202 432.640, 536.664 435.481, 546.252 438.321, 555.840 439.164, 558.688 442.113, 568.244 445.062, 577.799 445.762, 580.068 448.821, 589.588 451.881, 599.108 452.434, 600.831 455.607, 610.314 458.780, 619.797 459.184, 621.006 462.473, 630.450 465.761, 639.894 466.014, 640.620 469.420, 650.022 472.826, 659.424 472.926, 659.699 476.451, 669.057 479.921, 678.268 483.568, 687.579 486.651, 695.450 " fill="none" stroke="rgb(0, 0, 0)" stroke-linecap="butt" stroke-linejoin="round" stroke-opacity="1.0" stroke-width="3.0" />
            <path d=" M 482.407, 614.476 481.895, 612.524 482.383, 615.783 " fill="none" stroke="rgb(0, 0, 0)" stroke-linecap="butt" stroke-linejoin="round" stroke-opacity="1.0" stroke-width="3.0" />
            <path d=" M 482.516, 631.156 482.112, 629.699 482.525, 632.088 " fill="none" stroke="rgb(0, 0, 0)" stroke-linecap="butt" stroke-linejoin="round" stroke-opacity="1.0" stroke-width="3.0" />
            <path d=" M 476.813, 610.934 478.457, 620.798 480.101, 630.662 481.744, 640.526 482.777, 646.720 " fill="none" stroke="rgb(0, 0, 0)" stroke-linecap="butt" stroke-linejoin="round" stroke-opacity="1.0" stroke-width="3.0" />
            <path d=" M 482.777, 646.720 483.015, 647.921 " fill="none" stroke="rgb(0, 0, 0)" stroke-linecap="butt" stroke-linejoin="round" stroke-opacity="1.0" stroke-width="3.0" />
            <path d=" M 482.998, 647.465 482.777, 646.720 479.906, 637.141 477.168, 628.005 479.020, 637.832 480.872, 647.659 482.724, 657.486 483.829, 663.344 " fill="none" stroke="rgb(0, 0, 0)" stroke-linecap="butt" stroke-linejoin="round" stroke-opacity="1.0" stroke-width="3.0" />
            <path d=" M 483.835, 663.440 480.767, 653.922 477.871, 644.939 479.943, 654.721 482.016, 664.504 484.088, 674.287 484.937, 678.294 " fill="none" stroke="rgb(0, 0, 0)" stroke-linecap="butt" stroke-linejoin="round" stroke-opacity="1.0" stroke-width="3.0" />
            <path d=" M 478.840, 661.696 481.133, 671.430 483.426, 681.163 485.719, 690.897 486.491, 694.177 " fill="none" stroke="rgb(0, 0, 0)" stroke-linecap="butt" stroke-linejoin="round" stroke-opacity="1.0" stroke-width="3.0" />
            <path d=" M 365.659, 380.832 360.896, 389.624 358.397, 394.237 " fill="none" stroke="rgb(0, 0, 0)" stroke-linecap="butt" stroke-linejoin="round" stroke-opacity="1.0" stroke-width="3.0" />
            <path d=" M 469.123, 126.370 463.525, 126.771 " fill="none" stroke="rgb(0, 0, 0)" stroke-linecap="butt" stroke-linejoin="round" stroke-opacity="1.0" stroke-width="3.0" />
            <path d=" M 548.952, 211.323 548.845, 211.038 545.773, 202.812 " fill="none" stroke="rgb(0, 0, 0)" stroke-linecap="butt" stroke-linejoin="round" stroke-opacity="1.0" stroke-width="3.0" />
            <path d=" M 552.343, 219.452 549.911, 213.814 " fill="none" stroke="rgb(0, 0, 0)" stroke-linecap="butt" stroke-linejoin="round" stroke-opacity="1.0" stroke-width="3.0" />
            <path d=" M 557.977, 231.400 554.543, 224.430 " fill="none" stroke="rgb(0, 0, 0)" stroke-linecap="butt" stroke-linejoin="round" stroke-opacity="1.0" stroke-width="3.0" />
            <path d=" M 791.441, 540.734 791.554, 542.705 " fill="none" stroke="rgb(0, 0, 0)" stroke-linecap="butt" stroke-linejoin="round" stroke-opacity="1.0" stroke-width="3.0" />
            <path d=" M 794.865, 522.082 794.346, 516.086 " fill="none" stroke="rgb(0, 0, 0)" stroke-linecap="butt" stroke-linejoin="round" stroke-opacity="1.0" stroke-width="3.0" />
            <path d=" M 800.277, 519.149 800.062, 516.635 " fill="none" stroke="rgb(0, 0, 0)" stroke-linecap="butt" stroke-linejoin="round" stroke-opacity="1.0" stroke-width="3.0" />
            <path d=" M 801.488, 518.202 801.365, 516.760 " fill="none" stroke="rgb(0, 0, 0)" stroke-linecap="butt" stroke-linejoin="round" stroke-opacity="1.0" stroke-width="3.0" />
        </g>
    </g>
</svg>
