<?xml version='1.0' encoding='ascii'?>
<svg xmlns="http://www.w3.org/2000/svg" height="1080" version="1.1" width="1080">
    <g id="View Layer_LineSet" inkscape:groupmode="lineset" inkscape:label="View Layer_LineSet" xmlns:inkscape="http://www.inkscape.org/namespaces/inkscape">
        <g id="strokes" inkscape:groupmode="layer" inkscape:label="strokes" xmlns:inkscape="http://www.inkscape.org/namespaces/inkscape">
            <path d=" M 358.610, 391.094 365.051, 388.761 " fill="none" stroke="rgb(0, 0, 0)" stroke-linecap="butt" stroke-linejoin="round" stroke-opacity="1.0" stroke-width="3.0" />
            <path d=" M 382.912, 388.776 392.720, 390.724 394.793, 391.135 " fill="none" stroke="rgb(0, 0, 0)" stroke-linecap="butt" stroke-linejoin="round" stroke-opacity="1.0" stroke-width="3.0" />
            <path d=" M 394.793, 391.135 391.104, 381.841 387.415, 372.546 386.989, 371.473 " fill="none" stroke="rgb(0, 0, 0)" stroke-linecap="butt" stroke-linejoin="round" stroke-opacity="1.0" stroke-width="3.0" />
            <path d=" M 463.949, 125.596 459.412, 126.777 454.834, 129.072 450.229, 132.517 445.615, 137.139 441.008, 142.961 439.035, 145.992 439.025, 146.008 439.023, 146.011 438.516, 146.790 436.428, 150.000 431.894, 158.273 427.643, 167.324 427.428, 167.782 423.654, 177.043 423.050, 178.526 419.693, 187.946 418.784, 190.496 415.792, 200.038 414.652, 203.674 411.984, 213.312 410.678, 218.032 408.299, 227.745 406.883, 233.532 404.767, 243.306 403.291, 250.130 401.416, 259.952 399.924, 267.768 398.270, 277.631 396.803, 286.380 395.356, 296.275 393.949, 305.891 392.696, 315.812 391.442, 325.733 391.381, 326.218 390.311, 336.160 389.240, 346.103 389.115, 347.266 388.220, 357.226 387.324, 367.186 387.167, 368.937 386.989, 371.473 384.695, 381.206 382.912, 388.776 " fill="none" stroke="rgb(0, 0, 0)" stroke-linecap="butt" stroke-linejoin="round" stroke-opacity="1.0" stroke-width="3.0" />
            <path d=" M 526.165, 714.638 527.837, 707.000 528.144, 705.600 530.111, 695.795 530.517, 693.770 532.325, 683.935 532.758, 681.581 534.417, 671.720 534.865, 669.060 536.385, 659.177 536.838, 656.235 538.228, 646.332 538.677, 643.132 539.944, 633.212 540.383, 629.774 541.533, 619.840 541.955, 616.184 542.839, 607.707 543.394, 602.387 544.323, 592.431 544.699, 588.405 545.525, 578.439 545.871, 574.257 546.596, 564.284 546.910, 559.966 547.537, 549.986 547.816, 545.552 548.348, 535.566 548.589, 531.034 555.262, 530.963 557.111, 530.943 557.251, 530.942 559.037, 530.923 562.611, 530.885 563.462, 530.876 564.399, 530.866 566.979, 530.838 576.979, 530.732 577.593, 530.725 578.012, 520.734 578.207, 516.067 578.508, 506.072 578.651, 501.338 578.834, 491.339 578.922, 486.557 578.989, 476.557 579.021, 471.744 578.972, 461.744 578.948, 456.919 578.783, 446.920 578.703, 442.101 578.420, 432.105 578.285, 427.311 578.110, 422.953 " fill="none" stroke="rgb(0, 0, 0)" stroke-linecap="butt" stroke-linejoin="round" stroke-opacity="1.0" stroke-width="3.0" />
            <path d=" M 575.196, 428.005 575.250, 429.322 575.535, 439.318 575.654, 443.494 575.821, 453.492 575.891, 457.694 575.941, 467.694 575.962, 471.903 575.895, 481.903 575.866, 486.101 575.681, 496.099 575.604, 500.267 575.302, 510.263 575.177, 514.383 575.131, 515.466 575.028, 516.079 574.919, 516.649 574.803, 517.172 574.682, 517.646 574.555, 518.068 574.424, 518.436 574.290, 518.748 574.153, 519.001 574.014, 519.195 573.874, 519.329 573.733, 519.402 573.593, 519.413 573.453, 519.363 573.316, 519.251 569.423, 515.174 569.298, 513.814 569.143, 512.576 568.959, 511.481 568.750, 510.546 568.519, 509.788 568.270, 509.221 568.006, 508.853 567.733, 508.692 567.612, 508.690 565.071, 508.649 564.100, 508.634 563.286, 508.621 559.718, 508.563 557.935, 508.534 557.853, 508.533 557.349, 508.525 557.060, 508.574 556.771, 508.833 556.486, 509.298 556.210, 509.962 555.948, 510.814 555.944, 510.834 555.706, 511.840 555.485, 513.023 555.292, 514.343 555.128, 515.777 554.998, 517.301 554.902, 518.889 555.674, 519.642 556.535, 520.482 557.491, 520.499 557.607, 520.501 557.630, 520.502 559.390, 520.533 562.959, 520.596 563.786, 520.611 564.744, 520.628 565.135, 520.634 566.939, 520.666 566.970, 520.165 567.014, 519.692 567.065, 519.299 567.070, 519.261 567.137, 518.882 567.213, 518.567 567.295, 518.323 567.367, 518.187 567.382, 518.158 567.471, 518.076 " fill="none" stroke="rgb(0, 0, 0)" stroke-linecap="butt" stroke-linejoin="round" stroke-opacity="1.0" stroke-width="3.0" />
            <path d=" M 567.976, 521.719 574.583, 528.429 577.593, 530.725 " fill="none" stroke="rgb(0, 0, 0)" stroke-linecap="butt" stroke-linejoin="round" stroke-opacity="1.0" stroke-width="3.0" />
            <path d=" M 392.516, 186.571 390.862, 191.553 388.046, 201.149 387.041, 204.571 384.518, 214.247 383.339, 218.771 381.078, 228.512 379.776, 234.119 377.750, 243.911 376.372, 250.573 374.561, 260.407 373.148, 268.081 371.534, 277.950 370.123, 286.578 368.693, 296.475 367.316, 305.993 366.057, 315.913 364.798, 325.833 364.746, 326.245 363.649, 336.185 362.552, 346.125 362.428, 347.246 361.486, 357.202 360.543, 367.157 360.379, 368.897 359.585, 378.865 358.790, 388.834 358.610, 391.094 358.007, 401.075 357.404, 411.057 357.243, 413.721 356.802, 423.711 356.361, 433.701 356.231, 436.645 355.950, 446.641 355.668, 456.637 355.581, 459.746 355.458, 469.746 355.336, 479.745 355.297, 482.903 355.333, 492.903 355.370, 502.903 355.381, 505.994 355.578, 515.992 355.775, 525.990 355.833, 528.898 356.193, 538.891 356.553, 548.885 356.648, 551.497 357.176, 561.483 357.704, 571.469 357.821, 573.677 358.522, 583.652 359.224, 593.627 359.343, 595.327 360.225, 605.288 361.107, 615.250 361.204, 616.347 362.275, 626.290 363.346, 636.232 363.390, 636.639 364.661, 646.558 365.887, 656.116 367.371, 666.005 368.677, 674.697 368.741, 675.064 " fill="none" stroke="rgb(0, 0, 0)" stroke-linecap="butt" stroke-linejoin="round" stroke-opacity="1.0" stroke-width="3.0" />
            <path d=" M 491.708, 730.626 489.617, 737.060 486.379, 746.110 483.013, 754.620 479.520, 762.559 475.907, 769.892 472.178, 776.585 468.337, 782.598 464.391, 787.897 460.347, 792.446 456.525, 795.922 " fill="none" stroke="rgb(0, 0, 0)" stroke-linecap="butt" stroke-linejoin="round" stroke-opacity="1.0" stroke-width="3.0" />
            <path d=" M 395.147, 386.140 394.793, 391.135 394.227, 401.119 393.662, 411.103 393.514, 413.707 393.112, 423.698 392.710, 433.690 392.594, 436.574 392.352, 446.571 392.111, 456.568 392.037, 459.619 391.955, 469.618 391.872, 479.618 391.847, 482.720 391.924, 492.720 392.000, 502.720 392.024, 505.758 392.259, 515.755 392.495, 525.752 392.563, 528.611 392.959, 538.604 393.356, 548.596 393.458, 551.164 394.018, 561.148 394.579, 571.133 394.701, 573.302 395.429, 583.275 396.158, 593.248 396.280, 594.915 397.182, 604.874 398.084, 614.833 398.180, 615.902 399.263, 625.844 400.345, 635.785 400.387, 636.168 401.659, 646.086 402.882, 655.622 404.355, 665.513 405.647, 674.187 407.334, 684.043 408.660, 691.792 410.578, 701.607 411.901, 708.376 414.071, 718.138 415.349, 723.885 417.796, 733.582 418.981, 738.279 421.734, 747.893 422.775, 751.524 425.874, 761.032 426.709, 763.595 430.200, 772.966 430.761, 774.474 434.701, 783.665 434.912, 784.156 439.139, 792.639 443.424, 799.927 444.875, 801.977 445.175, 802.401 447.748, 806.035 452.094, 810.980 456.444, 814.785 460.784, 817.474 465.099, 819.080 469.376, 819.637 473.603, 819.177 477.769, 817.739 481.863, 815.363 485.877, 812.088 489.803, 807.953 490.740, 806.742 493.634, 803.000 497.363, 797.269 500.984, 790.801 504.127, 784.382 " fill="none" stroke="rgb(0, 0, 0)" stroke-linecap="butt" stroke-linejoin="round" stroke-opacity="1.0" stroke-width="3.0" />
            <path d=" M 469.094, 801.521 465.282, 800.828 465.061, 800.788 461.006, 799.062 456.943, 796.314 456.525, 795.922 452.886, 792.514 448.849, 787.643 444.847, 781.683 440.898, 774.619 437.018, 766.440 433.226, 757.146 429.885, 747.720 429.538, 746.740 426.580, 737.187 425.974, 735.230 423.354, 725.579 422.554, 722.633 420.233, 712.906 419.295, 708.976 417.244, 699.189 416.217, 694.292 414.411, 684.456 413.339, 678.618 411.757, 668.744 410.678, 662.007 409.305, 652.102 408.253, 644.516 407.073, 634.586 406.078, 626.210 405.081, 616.260 404.170, 607.162 403.347, 597.196 402.542, 587.455 401.885, 577.477 401.228, 567.498 401.207, 567.177 400.710, 557.189 400.213, 547.201 400.174, 546.420 399.833, 536.426 399.492, 526.432 399.453, 525.286 399.264, 515.287 399.075, 505.289 399.048, 503.877 399.009, 493.877 398.971, 483.877 398.964, 482.301 399.075, 472.302 399.186, 462.302 399.204, 460.667 399.464, 450.670 399.724, 440.674 399.765, 439.085 400.176, 429.094 400.587, 419.102 400.646, 417.665 400.978, 411.777 " fill="none" stroke="rgb(0, 0, 0)" stroke-linecap="butt" stroke-linejoin="round" stroke-opacity="1.0" stroke-width="3.0" />
            <path d=" M 500.885, 772.578 499.332, 775.620 495.829, 781.609 492.233, 786.885 488.550, 791.413 484.786, 795.154 480.950, 798.070 477.049, 800.127 473.094, 801.290 469.094, 801.521 " fill="none" stroke="rgb(0, 0, 0)" stroke-linecap="butt" stroke-linejoin="round" stroke-opacity="1.0" stroke-width="3.0" />
            <path d=" M 546.093, 528.765 545.555, 538.750 545.344, 542.672 544.704, 552.651 544.459, 556.476 543.716, 566.448 543.439, 570.156 542.589, 580.120 542.284, 583.694 541.324, 593.647 540.995, 597.066 539.921, 607.008 539.571, 610.253 538.379, 620.181 538.013, 623.232 536.699, 633.146 536.323, 635.981 534.879, 645.877 534.807, 646.367 534.499, 648.477 532.919, 658.351 532.544, 660.695 530.820, 670.545 530.458, 672.610 528.580, 682.432 528.242, 684.197 526.199, 693.986 525.898, 695.428 524.376, 702.109 " fill="none" stroke="rgb(0, 0, 0)" stroke-linecap="butt" stroke-linejoin="round" stroke-opacity="1.0" stroke-width="3.0" />
            <path d=" M 548.589, 531.034 546.093, 528.765 555.353, 528.656 557.202, 528.634 562.693, 528.570 564.481, 528.549 564.791, 528.545 564.491, 528.252 563.585, 527.367 562.763, 526.565 559.310, 523.193 557.612, 521.534 557.629, 521.021 557.631, 520.508 557.630, 520.502 " fill="none" stroke="rgb(0, 0, 0)" stroke-linecap="butt" stroke-linejoin="round" stroke-opacity="1.0" stroke-width="3.0" />
            <path d=" M 382.912, 388.776 382.332, 398.759 381.753, 408.742 381.548, 412.270 381.130, 422.261 380.711, 432.252 380.551, 436.076 380.290, 446.073 380.029, 456.069 379.925, 460.068 379.821, 470.067 379.717, 480.067 379.675, 484.118 379.728, 494.118 379.781, 504.118 379.802, 508.098 380.013, 518.095 380.224, 528.093 380.303, 531.880 380.674, 541.873 381.045, 551.866 381.174, 555.339 381.708, 565.325 382.243, 575.311 382.406, 578.356 383.109, 588.332 383.812, 598.307 383.989, 600.815 384.867, 610.776 385.745, 620.738 385.909, 622.608 386.970, 632.552 388.031, 642.495 388.153, 643.635 389.407, 653.556 390.661, 663.477 390.702, 663.801 392.161, 673.694 393.538, 683.026 395.217, 692.884 396.640, 701.237 398.558, 711.051 399.988, 718.369 402.167, 728.129 403.560, 734.368 406.026, 744.059 407.332, 749.194 410.118, 758.798 411.282, 762.813 414.428, 772.306 415.387, 775.200 418.943, 784.547 419.626, 786.340 423.651, 795.494 423.974, 796.228 428.412, 804.865 432.918, 812.258 437.473, 818.424 442.058, 823.382 446.655, 827.159 451.247, 829.782 455.819, 831.286 460.357, 831.708 464.847, 831.084 469.278, 829.455 473.637, 826.864 477.916, 823.352 482.106, 818.960 486.197, 813.733 " fill="none" stroke="rgb(0, 0, 0)" stroke-linecap="butt" stroke-linejoin="round" stroke-opacity="1.0" stroke-width="3.0" />
            <path d=" M 486.197, 813.733 491.892, 805.513 493.634, 803.000 " fill="none" stroke="rgb(0, 0, 0)" stroke-linecap="butt" stroke-linejoin="round" stroke-opacity="1.0" stroke-width="3.0" />
            <path d=" M 538.758, 553.667 530.227, 554.130 " fill="none" stroke="rgb(0, 0, 0)" stroke-linecap="butt" stroke-linejoin="round" stroke-opacity="1.0" stroke-width="3.0" />
            <path d=" M 541.028, 509.899 540.692, 519.893 540.391, 528.832 539.801, 538.815 539.568, 542.748 538.828, 552.721 538.758, 553.667 534.923, 544.431 533.132, 540.118 " fill="none" stroke="rgb(0, 0, 0)" stroke-linecap="butt" stroke-linejoin="round" stroke-opacity="1.0" stroke-width="3.0" />
            <path d=" M 366.916, 364.526 366.686, 367.075 365.934, 377.047 365.883, 377.719 365.132, 387.691 365.051, 388.761 364.444, 398.742 363.836, 408.724 363.710, 410.801 363.243, 420.790 362.777, 430.779 362.668, 433.109 362.341, 443.104 362.013, 453.099 361.932, 455.598 361.872, 458.763 " fill="none" stroke="rgb(0, 0, 0)" stroke-linecap="butt" stroke-linejoin="round" stroke-opacity="1.0" stroke-width="3.0" />
            <path d=" M 532.141, 745.014 532.488, 743.469 534.538, 733.681 534.800, 732.428 536.714, 722.613 537.005, 721.118 538.790, 711.279 539.103, 709.556 540.766, 699.695 541.093, 697.760 542.641, 687.880 542.975, 685.746 544.412, 675.849 544.749, 673.530 546.081, 663.619 546.416, 661.128 547.646, 651.204 547.975, 648.555 549.107, 638.619 549.426, 635.824 550.464, 625.878 550.769, 622.950 551.715, 612.995 552.005, 609.946 552.861, 599.983 553.133, 596.824 553.902, 586.854 554.153, 583.598 554.836, 573.622 555.065, 570.279 555.665, 560.297 555.870, 556.880 556.388, 546.893 556.568, 543.412 557.003, 533.421 557.111, 530.943 " fill="none" stroke="rgb(0, 0, 0)" stroke-linecap="butt" stroke-linejoin="round" stroke-opacity="1.0" stroke-width="3.0" />
            <path d=" M 459.306, 872.383 461.725, 872.536 465.836, 872.710 469.907, 872.069 473.930, 870.641 477.897, 868.457 481.802, 865.546 485.640, 861.938 489.404, 857.663 493.090, 852.751 496.693, 847.232 500.211, 841.134 503.638, 834.485 506.973, 827.315 510.213, 819.648 513.172, 811.987 " fill="none" stroke="rgb(0, 0, 0)" stroke-linecap="butt" stroke-linejoin="round" stroke-opacity="1.0" stroke-width="3.0" />
            <path d=" M 516.535, 139.937 513.902, 133.480 510.636, 126.261 507.261, 119.592 503.780, 113.501 500.197, 108.021 496.515, 103.183 492.739, 99.017 488.872, 95.557 484.921, 92.834 480.891, 90.880 476.790, 89.727 472.624, 89.405 471.250, 89.581 468.402, 89.945 464.132, 91.375 459.824, 93.722 455.489, 97.012 451.138, 101.267 446.783, 106.509 442.435, 112.755 438.110, 120.018 434.101, 127.766 433.821, 128.309 429.682, 137.413 429.582, 137.634 428.304, 140.806 425.409, 147.993 422.029, 157.405 421.318, 159.384 418.255, 168.903 417.325, 171.796 414.548, 181.402 413.446, 185.214 410.928, 194.892 409.698, 199.618 407.417, 209.355 406.099, 214.981 404.034, 224.766 402.663, 231.269 400.800, 241.094 399.407, 248.441 397.733, 258.300 396.349, 266.452 394.851, 276.339 393.501, 285.250 392.171, 295.161 390.880, 304.774 389.709, 314.705 388.537, 324.636 388.499, 324.961 387.479, 334.909 386.460, 344.857 386.369, 345.742 385.497, 355.703 384.624, 365.665 384.504, 367.039 383.773, 377.013 383.043, 386.986 382.912, 388.776 382.319, 398.758 381.727, 408.741 381.601, 410.868 381.145, 420.857 380.689, 430.847 380.580, 433.229 380.257, 443.224 379.935, 453.218 379.852, 455.770 379.662, 465.769 379.472, 475.767 379.422, 478.403 379.364, 488.403 379.307, 498.402 379.291, 501.035 379.366, 511.035 379.440, 521.035 379.459, 523.577 379.667, 533.575 379.875, 543.573 379.924, 545.939 380.267, 555.933 380.611, 565.927 380.683, 568.034 381.164, 578.022 381.645, 588.011 381.729, 589.776 382.351, 599.756 382.973, 609.737 383.057, 611.083 383.824, 621.054 384.592, 631.024 384.657, 631.879 385.575, 641.837 386.493, 651.794 386.520, 652.089 387.595, 662.032 388.635, 671.647 389.875, 681.570 390.989, 690.489 392.403, 700.389 393.569, 708.560 395.168, 718.431 396.362, 725.807 398.158, 735.644 399.352, 742.188 401.360, 751.984 402.525, 757.663 404.763, 767.409 405.864, 772.202 408.354, 781.887 409.355, 785.778 412.122, 795.388 412.981, 798.372 416.054, 807.888 416.727, 809.970 420.143, 819.368 420.577, 820.563 424.379, 829.812 424.517, 830.148 428.531, 838.726 432.605, 846.302 436.725, 852.888 440.878, 858.496 445.052, 863.142 449.235, 866.846 453.414, 869.631 457.581, 871.519 461.474, 872.475 461.725, 872.536 " fill="none" stroke="rgb(0, 0, 0)" stroke-linecap="butt" stroke-linejoin="round" stroke-opacity="1.0" stroke-width="3.0" />
            <path d=" M 470.169, 89.498 465.920, 90.039 461.623, 91.469 457.288, 93.817 452.926, 97.106 448.547, 101.362 444.165, 106.603 439.791, 112.847 435.439, 120.109 431.336, 127.989 431.123, 128.398 426.964, 137.492 426.859, 137.721 423.103, 146.988 422.661, 148.077 422.367, 148.891 418.968, 158.296 418.546, 159.464 415.466, 168.978 414.529, 171.872 411.737, 181.475 410.628, 185.287 408.096, 194.961 406.859, 199.686 404.564, 209.419 403.238, 215.043 401.162, 224.826 399.783, 231.325 397.910, 241.148 396.509, 248.492 394.826, 258.349 393.434, 266.496 391.928, 276.382 390.571, 285.287 389.233, 295.197 387.936, 304.804 386.758, 314.734 385.580, 324.665 385.542, 324.984 384.518, 334.931 383.493, 344.878 383.403, 345.756 382.526, 355.717 381.649, 365.679 381.528, 367.045 380.794, 377.018 380.060, 386.991 379.929, 388.773 379.334, 398.756 378.740, 408.738 378.614, 410.857 378.156, 420.846 377.698, 430.836 377.589, 433.209 377.265, 443.204 376.942, 453.198 376.860, 455.742 376.670, 465.740 376.480, 475.738 376.430, 478.365 376.373, 488.365 376.316, 498.365 376.301, 500.989 376.378, 510.988 376.454, 520.988 376.473, 523.522 376.684, 533.520 376.895, 543.518 376.944, 545.875 377.291, 555.869 377.638, 565.863 377.711, 567.961 378.196, 577.950 378.681, 587.938 378.767, 589.695 379.394, 599.675 380.021, 609.656 380.105, 610.995 380.879, 620.965 381.653, 630.935 381.718, 631.783 382.644, 641.740 383.569, 651.697 383.596, 651.986 384.679, 661.927 385.726, 671.537 386.976, 681.459 388.098, 690.373 389.522, 700.271 390.697, 708.437 392.307, 718.307 393.509, 725.679 395.318, 735.514 396.520, 742.055 398.542, 751.848 399.715, 757.525 401.969, 767.268 403.077, 772.060 405.584, 781.741 406.592, 785.633 409.376, 795.237 410.242, 798.224 412.255, 804.413 413.044, 806.838 414.014, 809.819 417.451, 819.209 417.890, 820.409 421.714, 829.649 421.856, 829.993 425.896, 838.569 429.997, 846.145 434.144, 852.730 438.325, 858.338 442.526, 862.984 446.736, 866.689 450.942, 869.474 455.136, 871.364 459.306, 872.383 " fill="none" stroke="rgb(0, 0, 0)" stroke-linecap="butt" stroke-linejoin="round" stroke-opacity="1.0" stroke-width="3.0" />
            <path d=" M 472.624, 89.405 470.169, 89.498 " fill="none" stroke="rgb(0, 0, 0)" stroke-linecap="butt" stroke-linejoin="round" stroke-opacity="1.0" stroke-width="3.0" />
            <path d=" M 538.091, 766.567 538.501, 764.678 540.488, 754.878 540.914, 752.775 542.570, 744.012 543.214, 740.604 544.948, 730.756 545.400, 728.184 547.017, 718.316 547.473, 715.533 548.979, 705.647 549.432, 702.667 550.832, 692.765 551.279, 689.603 552.577, 679.688 553.013, 676.357 554.212, 666.429 554.634, 662.943 555.739, 653.004 556.142, 649.376 557.156, 639.427 557.539, 635.669 558.463, 625.712 558.823, 621.835 559.661, 611.871 559.996, 607.888 560.749, 597.917 561.057, 593.840 561.728, 583.863 562.007, 579.702 562.596, 569.720 562.846, 565.487 563.354, 555.500 563.573, 551.204 564.002, 541.214 564.189, 536.867 564.399, 530.866 " fill="none" stroke="rgb(0, 0, 0)" stroke-linecap="butt" stroke-linejoin="round" stroke-opacity="1.0" stroke-width="3.0" />
            <path d=" M 461.197, 909.277 463.582, 909.439 467.996, 909.172 472.359, 908.033 476.662, 906.055 480.899, 903.274 485.063, 899.725 489.147, 895.442 493.147, 890.459 497.058, 884.811 500.875, 878.529 504.596, 871.648 508.217, 864.198 511.735, 856.211 515.148, 847.715 518.455, 838.740 520.994, 831.254 " fill="none" stroke="rgb(0, 0, 0)" stroke-linecap="butt" stroke-linejoin="round" stroke-opacity="1.0" stroke-width="3.0" />
            <path d=" M 541.044, 188.169 539.884, 182.729 537.631, 172.986 537.317, 171.626 536.675, 169.067 534.623, 160.888 531.994, 151.240 531.804, 150.541 528.959, 140.954 528.858, 140.612 525.787, 131.129 522.591, 122.121 519.272, 113.620 515.831, 105.656 512.271, 98.262 508.592, 91.472 504.799, 85.321 500.894, 79.843 496.882, 75.074 492.767, 71.052 488.555, 67.812 484.251, 65.391 479.862, 63.827 475.395, 63.155 473.151, 63.282 470.860, 63.412 466.265, 64.630 461.620, 66.845 456.937, 70.086 452.227, 74.383 447.503, 79.762 442.779, 86.246 438.070, 93.854 433.392, 102.602 431.534, 106.570 428.760, 112.498 426.884, 117.038 424.192, 123.549 420.742, 132.935 420.493, 133.613 419.706, 135.753 416.585, 145.254 415.320, 149.104 412.494, 158.696 411.053, 163.587 408.493, 173.254 406.924, 179.183 406.502, 180.953 404.185, 190.681 402.951, 195.862 400.857, 205.640 399.154, 213.590 397.266, 223.410 395.553, 232.322 393.856, 242.177 392.164, 252.010 390.648, 261.894 389.132, 271.778 389.007, 272.592 387.661, 282.501 386.314, 292.410 386.098, 294.005 384.913, 303.935 383.728, 313.864 383.453, 316.175 382.422, 326.122 381.392, 336.068 381.087, 339.021 380.205, 348.982 379.324, 358.943 379.013, 362.459 378.275, 372.432 377.538, 382.405 377.243, 386.397 376.645, 396.379 376.048, 406.362 375.787, 410.740 375.327, 420.729 374.867, 430.718 374.652, 435.387 374.328, 445.381 374.004, 455.376 373.847, 460.236 373.657, 470.234 373.467, 480.232 373.373, 485.183 373.317, 495.183 373.261, 505.183 373.233, 510.124 373.312, 520.124 373.390, 530.123 373.428, 534.953 373.642, 544.950 373.855, 554.948 373.954, 559.566 374.305, 569.560 374.656, 579.554 374.807, 583.864 375.298, 593.852 375.789, 603.840 375.981, 607.747 376.616, 617.727 377.250, 627.707 377.467, 631.123 378.250, 641.092 379.033, 651.061 379.256, 653.902 380.193, 663.858 381.129, 673.814 381.335, 676.003 382.433, 685.942 383.530, 695.882 383.692, 697.347 384.958, 707.266 386.225, 717.186 386.311, 717.866 387.757, 727.761 389.178, 737.496 390.814, 747.361 391.704, 752.733 392.276, 756.183 394.116, 766.012 395.588, 773.878 396.744, 779.370 398.805, 789.155 399.096, 790.541 401.396, 800.273 402.783, 806.140 404.598, 812.985 406.630, 820.649 409.483, 830.234 410.129, 832.406 410.619, 834.050 413.795, 843.532 414.732, 846.330 418.271, 855.683 418.952, 857.484 422.901, 866.671 423.262, 867.512 427.645, 876.420 432.085, 884.219 436.567, 890.923 441.076, 896.552 445.599, 901.128 450.123, 904.676 454.636, 907.223 459.125, 908.801 462.079, 909.224 463.582, 909.439 " fill="none" stroke="rgb(0, 0, 0)" stroke-linecap="butt" stroke-linejoin="round" stroke-opacity="1.0" stroke-width="3.0" />
            <path d=" M 367.302, 359.915 367.069, 362.490 366.916, 364.526 366.164, 374.497 365.928, 377.638 365.268, 386.391 365.148, 388.366 364.540, 398.347 363.933, 408.329 363.789, 410.695 363.322, 420.684 362.955, 428.550 362.640, 435.303 362.313, 445.298 361.985, 455.292 361.872, 458.763 361.827, 460.113 361.638, 470.111 361.448, 480.110 361.355, 485.021 361.303, 495.021 361.251, 505.021 361.226, 509.923 361.239, 511.463 " fill="none" stroke="rgb(0, 0, 0)" stroke-linecap="butt" stroke-linejoin="round" stroke-opacity="1.0" stroke-width="3.0" />
            <path d=" M 472.971, 63.255 468.407, 63.513 463.783, 64.732 459.109, 66.947 454.396, 70.189 449.657, 74.486 444.904, 79.864 440.152, 86.347 435.414, 93.954 430.707, 102.699 426.447, 111.746 426.048, 112.593 424.011, 117.491 421.453, 123.641 417.984, 133.020 416.940, 135.842 416.725, 136.494 416.256, 137.914 413.117, 147.409 412.529, 149.189 409.687, 158.776 408.237, 163.668 405.662, 173.331 404.083, 179.258 401.753, 188.983 400.088, 195.932 397.968, 205.773 396.270, 213.653 394.371, 223.471 392.649, 232.379 390.943, 242.233 389.242, 252.059 387.717, 261.943 386.192, 271.826 386.067, 272.635 384.714, 282.543 383.360, 292.451 383.143, 294.039 381.952, 303.968 380.761, 313.897 380.485, 316.200 379.449, 326.147 378.413, 336.093 378.107, 339.038 377.221, 348.999 376.335, 358.960 376.023, 362.467 375.282, 372.440 374.541, 382.412 374.245, 386.396 373.646, 396.378 373.046, 406.360 372.784, 410.728 372.322, 420.718 371.861, 430.707 371.646, 435.366 371.321, 445.360 370.996, 455.355 370.838, 460.205 370.648, 470.203 370.459, 480.202 370.365, 485.143 370.310, 495.143 370.255, 505.143 370.228, 510.073 370.308, 520.073 370.388, 530.073 370.427, 534.893 370.643, 544.890 370.860, 554.888 370.959, 559.497 371.314, 569.490 371.669, 579.484 371.821, 583.785 372.317, 593.773 372.812, 603.760 373.005, 607.659 373.646, 617.639 374.286, 627.618 374.504, 631.026 375.293, 640.995 376.083, 650.964 376.307, 653.797 377.251, 663.753 378.195, 673.708 378.402, 675.890 379.508, 685.828 380.614, 695.767 380.776, 697.227 382.052, 707.145 383.328, 717.063 383.415, 717.738 384.375, 724.263 385.830, 734.157 386.302, 737.362 387.949, 747.226 389.422, 756.043 391.275, 765.870 391.377, 766.411 392.757, 773.733 393.582, 777.622 395.656, 787.405 396.289, 790.392 398.605, 800.120 400.001, 805.986 401.651, 812.169 403.874, 820.492 406.745, 830.071 407.889, 833.889 411.085, 843.364 412.030, 846.166 415.590, 855.511 416.278, 857.318 420.249, 866.496 420.617, 867.345 425.028, 876.252 429.497, 884.050 434.009, 890.754 438.547, 896.383 443.099, 900.959 447.652, 904.508 452.194, 907.057 456.712, 908.636 461.197, 909.277 " fill="none" stroke="rgb(0, 0, 0)" stroke-linecap="butt" stroke-linejoin="round" stroke-opacity="1.0" stroke-width="3.0" />
            <path d=" M 475.395, 63.155 472.971, 63.255 " fill="none" stroke="rgb(0, 0, 0)" stroke-linecap="butt" stroke-linejoin="round" stroke-opacity="1.0" stroke-width="3.0" />
            <path d=" M 548.869, 210.434 547.105, 200.591 546.698, 198.324 544.792, 188.508 544.323, 186.094 542.265, 176.309 541.817, 174.181 539.595, 164.431 539.180, 162.609 536.781, 152.901 536.411, 151.403 533.819, 141.745 533.510, 140.590 530.708, 130.991 530.477, 130.198 527.443, 120.669 527.312, 120.257 524.016, 110.797 520.591, 101.850 517.036, 93.449 513.355, 85.629 509.548, 78.424 505.619, 71.872 501.571, 66.010 497.408, 60.876 493.133, 56.509 488.753, 52.949 484.273, 50.235 479.700, 48.408 475.042, 47.506 470.306, 47.570 465.425, 47.781 460.562, 48.850 455.642, 50.957 450.675, 54.138 445.675, 58.424 440.656, 63.847 435.632, 70.432 430.619, 78.202 425.762, 86.943 425.633, 87.174 421.270, 96.172 420.693, 97.363 416.763, 106.558 415.816, 108.774 412.270, 118.124 411.023, 121.411 407.816, 130.883 406.332, 135.267 403.430, 144.836 401.765, 150.329 399.138, 159.978 397.342, 166.577 394.966, 176.291 393.084, 183.984 392.516, 186.571 390.369, 196.338 389.012, 202.513 387.078, 212.324 385.147, 222.118 383.411, 231.966 381.674, 241.814 381.510, 242.746 379.958, 252.625 378.407, 262.504 378.119, 264.336 376.743, 274.241 375.366, 284.146 374.995, 286.818 373.784, 296.744 372.573, 306.670 372.154, 310.112 371.102, 320.057 370.050, 330.001 369.612, 334.135 369.059, 340.264 368.160, 350.224 367.386, 358.794 367.302, 359.915 367.148, 361.949 366.397, 371.920 365.972, 377.555 365.487, 383.990 365.246, 387.965 364.638, 397.947 364.031, 407.928 363.928, 409.621 363.461, 419.610 362.995, 429.599 362.716, 435.578 362.389, 445.572 362.358, 446.516 362.030, 456.510 361.859, 461.751 361.669, 471.749 361.487, 481.370 361.361, 488.026 361.309, 498.026 361.257, 508.026 361.239, 511.463 361.236, 511.944 361.224, 514.292 361.310, 524.291 361.395, 534.291 361.448, 540.433 361.673, 550.430 361.897, 560.427 362.030, 566.338 362.396, 576.331 362.762, 586.324 362.966, 591.898 363.475, 601.885 363.985, 611.872 364.247, 617.007 364.904, 626.985 365.562, 636.964 365.865, 641.565 366.675, 651.532 367.485, 661.499 367.808, 665.477 368.741, 675.064 369.709, 685.017 370.063, 688.653 371.197, 698.588 372.331, 708.524 372.615, 711.012 373.923, 720.926 375.232, 730.840 375.448, 732.480 376.942, 742.368 378.435, 752.256 378.546, 752.991 380.236, 762.848 381.889, 772.487 383.790, 782.305 385.458, 790.919 387.588, 800.689 389.235, 808.244 391.614, 817.957 393.199, 824.430 395.851, 834.072 397.331, 839.452 400.285, 849.005 401.610, 853.291 404.901, 862.734 406.018, 865.939 409.687, 875.241 410.535, 877.391 414.632, 886.513 415.143, 887.649 419.727, 896.537 419.823, 896.723 424.559, 904.626 429.334, 911.376 434.132, 916.996 438.939, 921.512 443.742, 924.952 448.527, 927.347 453.283, 928.732 457.999, 929.141 462.739, 929.477 467.347, 928.941 471.896, 927.502 476.379, 925.197 480.787, 922.064 485.116, 918.141 489.358, 913.464 493.509, 908.070 497.563, 901.997 501.518, 895.278 505.369, 887.948 509.113, 880.041 512.749, 871.589 516.273, 862.622 519.685, 853.172 522.843, 843.684 522.982, 843.267 524.350, 838.824 " fill="none" stroke="rgb(0, 0, 0)" stroke-linecap="butt" stroke-linejoin="round" stroke-opacity="1.0" stroke-width="3.0" />
            <path d=" M 540.585, 774.414 542.548, 764.609 542.797, 763.363 544.632, 753.533 545.158, 750.715 546.872, 740.863 547.401, 737.820 549.000, 727.949 549.527, 724.696 551.017, 714.808 551.536, 711.361 552.922, 701.457 553.429, 697.830 554.714, 687.913 555.206, 684.119 556.394, 674.190 556.867, 670.243 557.962, 660.303 558.412, 656.217 559.417, 646.267 559.842, 642.053 560.759, 632.095 561.158, 627.765 561.989, 617.800 562.359, 613.366 563.107, 603.394 563.446, 598.867 564.112, 588.889 564.419, 584.281 565.004, 574.298 565.278, 569.618 565.784, 559.631 566.024, 554.891 566.451, 544.900 566.655, 540.109 566.979, 530.838 " fill="none" stroke="rgb(0, 0, 0)" stroke-linecap="butt" stroke-linejoin="round" stroke-opacity="1.0" stroke-width="3.0" />
            <path d=" M 470.306, 47.570 465.503, 48.636 460.643, 50.742 455.738, 53.922 450.799, 58.209 445.840, 63.633 440.877, 70.219 435.923, 77.992 431.112, 86.758 430.997, 86.968 427.667, 93.921 426.115, 97.161 422.226, 106.374 421.295, 108.579 417.786, 117.943 416.557, 121.223 413.386, 130.706 413.231, 131.167 411.921, 135.086 409.051, 144.666 407.405, 150.158 407.047, 151.489 404.998, 159.109 403.032, 166.417 400.683, 176.137 398.822, 183.836 396.699, 193.608 394.795, 202.377 394.205, 205.404 392.293, 215.219 390.972, 221.996 389.255, 231.847 387.537, 241.699 387.373, 242.639 385.839, 252.521 384.795, 259.246 384.019, 264.245 382.657, 274.152 381.295, 284.059 380.926, 286.743 379.728, 296.671 378.531, 306.599 378.113, 310.056 377.072, 320.002 376.031, 329.947 375.597, 334.097 374.707, 344.058 373.816, 354.018 373.391, 358.775 372.647, 368.748 371.902, 378.720 371.509, 383.992 370.907, 393.973 370.305, 403.955 369.962, 409.642 369.499, 419.632 369.036, 429.621 368.758, 435.620 368.432, 445.615 368.106, 455.609 367.904, 461.814 367.714, 471.812 367.525, 481.810 367.405, 488.110 367.351, 498.110 367.297, 508.110 367.263, 514.396 367.345, 524.396 367.427, 534.395 367.478, 540.558 367.697, 550.555 367.916, 560.553 368.046, 566.483 368.405, 576.476 368.763, 586.470 368.964, 592.063 369.464, 602.050 369.965, 612.038 370.223, 617.191 370.869, 627.170 371.515, 637.149 371.814, 641.767 372.611, 651.736 373.408, 661.704 373.728, 665.696 373.899, 667.483 374.615, 674.958 375.568, 684.913 375.949, 688.889 377.066, 698.827 378.183, 708.764 378.464, 711.264 379.754, 721.181 381.043, 731.097 381.258, 732.747 381.863, 736.815 382.891, 743.721 384.312, 753.271 385.978, 763.132 387.609, 772.779 389.484, 782.602 391.130, 791.222 392.566, 797.904 394.668, 807.680 394.856, 808.557 397.204, 818.277 398.767, 824.752 401.386, 834.403 402.845, 839.781 405.762, 849.346 407.068, 853.627 407.390, 854.564 410.642, 864.021 411.418, 866.280 415.045, 875.599 415.877, 877.735 419.929, 886.878 420.425, 887.997 424.962, 896.909 425.045, 897.073 429.720, 904.977 434.434, 911.728 439.172, 917.347 443.919, 921.861 448.661, 925.298 453.386, 927.691 458.082, 929.072 462.739, 929.477 " fill="none" stroke="rgb(0, 0, 0)" stroke-linecap="butt" stroke-linejoin="round" stroke-opacity="1.0" stroke-width="3.0" />
            <path d=" M 565.368, 519.072 565.428, 518.041 565.461, 517.482 565.588, 515.955 565.747, 514.519 565.934, 513.198 566.147, 512.013 566.382, 510.986 566.634, 510.132 566.900, 509.467 567.175, 509.002 567.454, 508.742 567.611, 508.714 567.733, 508.692 " fill="none" stroke="rgb(0, 0, 0)" stroke-linecap="butt" stroke-linejoin="round" stroke-opacity="1.0" stroke-width="3.0" />
            <path d=" M 554.902, 518.889 555.701, 518.903 557.522, 518.935 557.546, 518.935 563.001, 519.030 563.851, 519.045 564.787, 519.062 565.203, 519.069 565.368, 519.072 565.566, 519.273 566.939, 520.666 " fill="none" stroke="rgb(0, 0, 0)" stroke-linecap="butt" stroke-linejoin="round" stroke-opacity="1.0" stroke-width="3.0" />
            <path d=" M 557.612, 521.534 562.930, 521.629 564.716, 521.661 565.090, 521.667 567.271, 521.706 567.976, 521.719 567.992, 521.205 567.994, 520.691 567.982, 520.191 567.955, 519.718 567.917, 519.314 567.914, 519.285 567.862, 518.904 567.798, 518.585 567.725, 518.337 567.644, 518.167 567.559, 518.079 567.471, 518.076 " fill="none" stroke="rgb(0, 0, 0)" stroke-linecap="butt" stroke-linejoin="round" stroke-opacity="1.0" stroke-width="3.0" />
            <path d=" M 622.947, 923.504 625.118, 924.035 632.962, 925.606 640.814, 926.430 648.656, 926.526 656.471, 925.910 664.244, 924.602 671.958, 922.623 679.600, 919.993 687.157, 916.733 694.615, 912.865 701.964, 908.411 709.191, 903.393 716.289, 897.833 723.246, 891.755 730.054, 885.179 736.705, 878.128 743.192, 870.624 749.420, 862.799 749.509, 862.688 755.433, 854.632 755.648, 854.340 761.281, 846.078 761.604, 845.603 766.955, 837.155 767.372, 836.496 772.451, 827.882 772.948, 827.040 777.764, 818.276 778.326, 817.253 782.888, 808.354 783.503, 807.155 787.820, 798.135 788.476, 796.765 792.555, 787.635 793.240, 786.101 797.089, 776.871 797.794, 775.180 801.418, 765.860 802.134, 764.020 805.540, 754.618 806.257, 752.639 809.451, 743.163 810.163, 741.052 813.149, 731.508 813.847, 729.276 816.630, 719.671 817.310, 717.327 819.894, 707.666 820.548, 705.220 822.936, 695.509 823.560, 692.970 825.756, 683.214 826.345, 680.593 828.351, 670.796 828.902, 668.103 830.719, 658.270 831.228, 655.515 832.859, 645.649 833.323, 642.843 834.769, 632.948 835.185, 630.100 836.447, 620.180 836.813, 617.302 837.892, 607.360 838.207, 604.461 839.103, 594.501 839.365, 591.592 840.077, 581.617 840.285, 578.708 840.814, 568.722 840.968, 565.823 841.313, 555.829 841.412, 552.951 841.570, 542.952 841.616, 540.106 841.587, 530.106 841.579, 527.301 841.360, 517.303 841.300, 514.550 840.889, 504.558 840.779, 501.868 840.172, 491.886 840.014, 489.269 839.209, 479.301 839.005, 476.768 837.997, 466.818 837.750, 464.378 836.536, 454.452 836.251, 452.116 834.825, 442.219 834.505, 439.997 832.861, 430.133 832.512, 428.036 830.645, 418.212 830.272, 416.250 828.174, 406.472 827.784, 404.654 825.449, 394.931 825.049, 393.266 822.468, 383.605 822.067, 382.103 819.230, 372.514 818.836, 371.182 815.735, 361.675 815.359, 360.522 811.983, 351.109 811.636, 350.140 807.973, 340.835 807.667, 340.057 803.705, 330.875 803.453, 330.291 799.180, 321.250 798.997, 320.863 794.399, 311.983 794.300, 311.792 789.365, 303.100 784.193, 294.807 778.789, 286.936 773.155, 279.508 767.297, 272.546 761.219, 266.072 754.927, 260.109 748.426, 254.680 741.725, 249.808 734.830, 245.516 727.750, 241.826 720.495, 238.761 713.075, 236.343 705.502, 234.594 697.787, 233.536 689.944, 233.187 681.988, 233.567 679.775, 233.712 " fill="none" stroke="rgb(0, 0, 0)" stroke-linecap="butt" stroke-linejoin="round" stroke-opacity="1.0" stroke-width="3.0" />
            <path d=" M 625.118, 924.035 624.141, 923.744 617.300, 921.703 609.528, 918.595 601.822, 914.699 594.203, 910.005 586.694, 904.506 579.316, 898.196 572.195, 891.175 572.092, 891.073 565.453, 883.594 565.046, 883.135 558.883, 875.260 558.201, 874.388 552.504, 866.169 551.581, 864.837 549.976, 862.230 545.211, 854.492 540.913, 846.651 539.114, 843.367 534.728, 834.380 533.313, 831.480 529.333, 822.306 529.251, 822.118 527.833, 818.850 526.171, 814.533 525.018, 811.537 522.696, 805.504 519.477, 796.036 519.057, 794.802 517.964, 791.587 517.924, 791.469 515.063, 781.887 513.537, 776.779 511.117, 767.469 509.845, 762.577 509.557, 761.471 507.373, 751.712 506.002, 745.583 504.139, 735.758 502.888, 729.161 501.336, 719.282 500.232, 712.252 499.219, 704.212 498.047, 694.906 497.091, 684.952 496.345, 677.177 495.676, 667.199 495.135, 659.120 494.749, 649.128 494.426, 640.795 494.316, 630.796 494.223, 622.261 494.386, 612.263 494.527, 603.581 494.961, 593.591 495.341, 584.818 496.042, 574.842 496.159, 573.178 496.661, 566.034 497.629, 556.081 498.484, 547.294 499.719, 537.370 500.444, 531.549 500.803, 528.661 502.063, 520.367 502.105, 520.092 503.608, 510.199 505.379, 500.357 506.888, 491.968 508.930, 482.178 510.630, 474.029 512.947, 464.301 514.818, 456.439 517.413, 446.782 519.435, 439.256 522.336, 429.602 522.442, 429.249 524.461, 422.531 527.628, 413.046 529.876, 406.314 531.319, 402.406 534.782, 393.025 535.658, 390.653 535.819, 390.255 539.586, 380.991 541.782, 375.590 542.060, 374.969 546.139, 365.839 548.226, 361.166 552.626, 352.186 552.866, 351.696 554.512, 348.338 554.964, 347.415 559.357, 339.236 560.978, 336.216 561.970, 334.369 563.324, 332.071 568.397, 323.453 569.219, 322.058 569.807, 321.147 570.301, 320.383 575.727, 311.984 576.683, 310.504 582.474, 302.351 584.338, 299.727 590.503, 291.854 592.156, 289.745 596.893, 284.281 600.111, 280.569 607.055, 273.373 608.179, 272.208 615.522, 265.420 616.334, 264.669 624.077, 258.341 624.552, 257.952 632.691, 252.142 632.810, 252.057 641.085, 246.981 649.355, 242.717 657.599, 239.255 665.799, 236.586 673.934, 234.695 681.567, 233.626 681.988, 233.567 " fill="none" stroke="rgb(0, 0, 0)" stroke-linecap="butt" stroke-linejoin="round" stroke-opacity="1.0" stroke-width="3.0" />
            <path d=" M 679.775, 233.712 671.710, 234.839 663.564, 236.730 655.354, 239.398 647.099, 242.857 638.819, 247.118 630.535, 252.191 622.390, 257.993 622.267, 258.080 614.518, 264.401 614.040, 264.791 606.690, 271.572 605.876, 272.324 598.925, 279.513 597.800, 280.676 595.693, 283.102 589.836, 289.843 583.662, 297.710 582.010, 299.816 576.212, 307.963 574.349, 310.581 569.922, 317.419 569.420, 318.196 566.877, 322.123 563.054, 328.605 560.694, 332.606 559.623, 334.422 559.080, 335.430 554.341, 344.237 554.230, 344.443 552.611, 347.453 552.564, 347.547 548.158, 356.524 545.867, 361.189 541.791, 370.297 539.419, 375.598 535.646, 384.859 533.290, 390.644 529.821, 400.023 527.504, 406.287 524.332, 415.771 522.086, 422.486 520.598, 427.429 519.807, 430.057 517.057, 439.192 514.459, 448.848 512.439, 456.356 511.168, 461.683 508.849, 471.410 508.249, 473.925 506.204, 483.713 504.506, 491.843 504.105, 494.071 502.332, 503.913 501.225, 510.053 499.974, 518.278 499.663, 520.325 498.420, 528.494 498.037, 531.574 496.801, 541.498 496.102, 547.106 495.134, 557.059 494.280, 565.824 493.579, 575.800 492.962, 584.587 492.529, 594.577 492.150, 603.329 491.988, 613.328 491.848, 621.988 491.960, 631.988 492.055, 640.501 492.444, 650.493 492.768, 658.806 493.054, 663.055 493.725, 673.032 493.981, 676.843 494.941, 686.797 495.688, 694.553 496.942, 704.474 497.665, 710.193 497.878, 711.881 499.435, 721.759 500.540, 728.772 502.408, 738.596 503.659, 745.177 505.849, 754.935 507.221, 761.049 508.606, 766.362 509.789, 770.897 511.208, 776.343 514.076, 785.923 515.602, 791.019 516.927, 794.907 517.997, 798.045 520.381, 805.040 523.981, 814.370 524.100, 814.678 524.820, 816.545 525.258, 817.678 525.526, 818.375 528.421, 825.031 531.015, 830.994 535.408, 839.977 536.824, 842.872 538.449, 845.832 542.930, 853.988 548.181, 862.498 549.309, 864.325 555.013, 872.539 555.938, 873.870 562.108, 881.739 562.792, 882.612 569.438, 890.084 569.849, 890.545 576.975, 897.560 577.082, 897.665 584.471, 903.973 591.990, 909.471 599.619, 914.164 607.336, 918.060 615.118, 921.170 622.947, 923.504 " fill="none" stroke="rgb(0, 0, 0)" stroke-linecap="butt" stroke-linejoin="round" stroke-opacity="1.0" stroke-width="3.0" />
            <path d=" M 706.880, 333.753 698.832, 333.260 690.648, 333.570 685.051, 334.333 682.352, 334.701 681.850, 334.819 673.968, 336.665 667.948, 338.657 665.522, 339.461 657.037, 343.081 648.540, 347.532 640.062, 352.835 631.992, 358.740 631.636, 359.000 623.988, 365.442 623.294, 366.026 616.072, 372.943 615.070, 373.903 608.268, 381.234 606.992, 382.609 600.599, 390.298 599.090, 392.113 593.092, 400.115 591.390, 402.385 585.788, 410.669 583.931, 413.413 578.722, 421.949 578.372, 422.524 578.110, 422.953 576.753, 425.177 575.196, 428.005 570.375, 436.766 569.891, 437.646 567.948, 441.564 565.497, 446.505 564.504, 448.508 563.748, 450.032 563.378, 450.778 560.206, 457.885 558.484, 461.743 558.438, 461.848 557.243, 464.525 556.622, 466.072 552.900, 475.353 551.507, 478.828 549.101, 485.522 547.184, 490.856 546.188, 493.628 543.906, 500.768 541.316, 508.874 541.028, 509.899 538.325, 519.526 536.925, 524.515 534.563, 534.232 533.700, 537.781 533.132, 540.118 533.042, 540.489 531.021, 550.283 530.227, 554.130 529.690, 556.731 528.006, 566.589 526.882, 573.171 525.532, 583.080 524.624, 589.737 523.601, 599.685 522.915, 606.359 522.219, 616.335 521.756, 622.969 521.397, 632.963 521.163, 639.499 521.152, 649.499 521.145, 655.878 521.296, 660.236 521.641, 670.230 521.704, 672.037 522.414, 682.012 522.833, 687.907 523.913, 697.849 524.376, 702.109 524.519, 703.428 524.778, 705.194 526.165, 714.638 526.280, 715.425 526.738, 718.544 527.194, 720.989 529.026, 730.820 529.480, 733.256 531.117, 740.492 532.141, 745.014 532.688, 747.432 533.595, 750.804 534.696, 754.897 536.344, 761.023 536.927, 762.874 538.091, 766.567 538.247, 767.063 540.427, 773.981 540.585, 774.414 544.018, 783.807 544.915, 786.262 548.794, 795.479 549.784, 797.829 554.131, 806.834 555.007, 808.649 559.846, 817.401 560.560, 818.694 565.911, 827.141 566.415, 827.938 572.298, 836.025 572.545, 836.364 578.920, 843.957 585.514, 850.706 592.298, 856.606 599.244, 861.654 606.326, 865.853 609.336, 867.257 613.516, 869.206 620.789, 871.723 628.118, 873.416 635.480, 874.296 642.852, 874.380 650.211, 873.688 657.536, 872.240 664.806, 870.056 672.003, 867.159 679.108, 863.575 686.105, 859.328 692.978, 854.442 699.712, 848.946 706.293, 842.867 712.709, 836.229 718.947, 829.061 724.997, 821.390 730.849, 813.243 736.337, 804.883 736.493, 804.646 741.649, 796.077 741.921, 795.626 746.759, 786.874 747.126, 786.210 751.656, 777.295 752.099, 776.424 756.333, 767.364 756.834, 766.292 760.783, 757.105 761.326, 755.841 764.999, 746.540 765.570, 745.097 768.974, 735.694 769.558, 734.081 772.703, 724.589 773.289, 722.820 776.180, 713.247 776.757, 711.338 779.400, 701.693 779.958, 699.657 782.359, 689.949 782.890, 687.800 785.051, 678.037 785.548, 675.791 787.475, 665.979 787.932, 663.653 789.626, 653.797 790.037, 651.406 791.500, 641.514 791.861, 639.075 793.096, 629.151 793.403, 626.679 794.409, 616.730 794.661, 614.243 795.438, 604.273 795.632, 601.786 796.180, 591.801 796.316, 589.331 796.634, 579.337 796.711, 576.901 796.796, 566.901 796.817, 564.515 796.666, 554.516 796.631, 552.197 796.241, 542.204 796.184, 540.758 " fill="none" stroke="rgb(0, 0, 0)" stroke-linecap="butt" stroke-linejoin="round" stroke-opacity="1.0" stroke-width="3.0" />
            <path d=" M 791.583, 542.452 781.960, 544.291 776.442, 545.346 767.564, 547.042 766.849, 547.180 766.132, 547.317 765.415, 547.455 764.698, 547.593 763.847, 547.629 753.871, 546.933 752.344, 546.826 751.503, 546.603 750.695, 546.126 749.938, 545.404 749.246, 544.450 748.633, 543.281 748.110, 541.920 747.688, 540.392 747.374, 538.727 747.175, 536.955 747.096, 535.113 747.137, 533.235 747.298, 531.357 747.575, 529.516 747.964, 527.748 748.457, 526.086 749.044, 524.564 749.713, 523.209 750.451, 522.047 751.095, 521.160 751.740, 520.274 752.384, 519.389 753.027, 518.505 753.350, 518.063 757.535, 512.323 760.552, 508.186 766.444, 500.106 772.335, 492.026 775.268, 488.004 785.208, 489.103 786.123, 489.204 " fill="none" stroke="rgb(0, 0, 0)" stroke-linecap="butt" stroke-linejoin="round" stroke-opacity="1.0" stroke-width="3.0" />
            <path d=" M 822.493, 504.565 821.167, 495.041 819.487, 485.183 819.198, 483.485 817.203, 473.686 816.893, 472.161 814.572, 462.434 814.253, 461.094 811.597, 451.454 811.281, 450.309 808.282, 440.770 807.985, 439.825 804.636, 430.402 804.371, 429.658 800.655, 420.374 800.440, 419.836 796.334, 410.718 796.190, 410.397 791.672, 401.476 791.620, 401.373 786.734, 392.796 781.540, 384.692 776.046, 377.081 770.266, 369.977 764.207, 363.403 757.876, 357.396 751.280, 351.996 744.429, 347.236 737.336, 343.143 730.017, 339.735 724.313, 337.681 722.490, 337.024 714.773, 335.020 706.880, 333.753 " fill="none" stroke="rgb(0, 0, 0)" stroke-linecap="butt" stroke-linejoin="round" stroke-opacity="1.0" stroke-width="3.0" />
            <path d=" M 667.948, 338.657 668.782, 339.120 674.743, 343.188 680.521, 347.902 686.105, 353.237 691.485, 359.159 696.655, 365.629 701.611, 372.611 706.345, 380.082 710.847, 388.030 715.110, 396.434 719.127, 405.268 722.894, 414.504 726.334, 423.894 726.412, 424.109 729.537, 433.608 729.682, 434.047 732.510, 443.639 732.703, 444.293 735.241, 453.966 735.468, 454.831 737.724, 464.573 737.971, 465.642 739.955, 475.443 740.211, 476.704 741.933, 486.555 742.185, 487.994 743.049, 493.798 743.069, 495.029 743.029, 496.271 742.930, 497.510 742.773, 498.734 742.559, 499.930 742.291, 501.086 741.971, 502.190 741.603, 503.230 741.283, 503.975 741.190, 504.195 740.736, 505.075 740.247, 505.861 739.728, 506.545 739.183, 507.120 738.619, 507.581 730.498, 513.416 724.197, 517.943 " fill="none" stroke="rgb(0, 0, 0)" stroke-linecap="butt" stroke-linejoin="round" stroke-opacity="1.0" stroke-width="3.0" />
            <path d=" M 800.424, 535.043 801.416, 535.106 802.566, 535.179 803.208, 535.220 811.061, 529.029 814.428, 526.374 816.310, 524.891 823.794, 518.990 824.115, 518.736 825.678, 517.687 830.156, 514.678 829.081, 504.736 828.804, 502.170 827.440, 492.263 827.107, 489.844 825.445, 479.983 825.064, 477.725 823.094, 467.921 822.676, 465.840 820.387, 456.105 819.942, 454.212 817.895, 446.672 816.863, 442.869 813.902, 433.318 813.442, 431.836 812.360, 428.759 809.680, 421.141 805.990, 411.847 805.579, 410.812 801.503, 401.680 801.143, 400.874 796.664, 391.933 796.375, 391.357 791.476, 382.639 791.282, 382.294 791.280, 382.290 786.439, 374.616 785.862, 373.701 780.129, 365.619 774.087, 358.073 767.745, 351.094 761.111, 344.710 754.196, 338.949 747.011, 333.843 739.570, 329.418 731.887, 325.703 723.976, 322.724 715.857, 320.508 707.546, 319.080 699.064, 318.461 689.081, 317.872 679.099, 317.283 673.761, 316.968 " fill="none" stroke="rgb(0, 0, 0)" stroke-linecap="butt" stroke-linejoin="round" stroke-opacity="1.0" stroke-width="3.0" />
            <path d=" M 699.064, 318.461 690.434, 318.674 688.389, 318.923 681.677, 319.740 672.821, 321.673 670.436, 322.425 663.889, 324.489 654.912, 328.199 651.281, 330.061 649.639, 330.903 645.918, 332.812 637.399, 338.048 636.939, 338.330 628.821, 344.170 628.005, 344.756 620.303, 351.134 619.151, 352.087 611.870, 358.942 610.411, 360.315 603.550, 367.590 601.819, 369.425 595.375, 377.072 593.411, 379.402 587.378, 387.377 585.224, 390.225 579.593, 398.489 577.452, 401.631 577.293, 401.865 577.147, 402.102 571.909, 410.620 569.653, 414.289 567.519, 418.134 565.112, 422.469 563.378, 425.593 562.340, 427.462 558.268, 435.594 556.461, 439.201 555.390, 441.340 551.279, 450.455 548.834, 455.875 545.082, 465.144 544.466, 466.666 542.705, 471.015 539.306, 480.420 537.035, 486.705 536.224, 489.234 535.700, 490.871 535.694, 490.890 534.350, 495.081 531.850, 502.884 529.605, 510.857 527.768, 517.384 527.177, 519.485 526.181, 523.567 524.538, 530.299 524.295, 531.294 523.039, 536.443 522.453, 539.261 521.911, 541.873 519.878, 551.665 519.458, 553.686 517.760, 563.541 516.450, 571.142 515.088, 581.049 514.031, 588.735 513.005, 598.683 512.211, 606.391 511.526, 616.368 510.999, 624.033 510.657, 634.027 510.398, 641.586 510.403, 650.011 510.408, 658.974 510.769, 668.968 511.028, 676.125 511.752, 686.099 512.251, 692.966 513.347, 702.906 514.067, 709.429 515.546, 719.319 516.463, 725.448 " fill="none" stroke="rgb(0, 0, 0)" stroke-linecap="butt" stroke-linejoin="round" stroke-opacity="1.0" stroke-width="3.0" />
            <path d=" M 755.739, 512.150 754.442, 502.234 754.207, 500.440 753.927, 497.818 753.909, 498.052 753.752, 499.282 753.538, 500.484 753.271, 501.645 752.953, 502.754 752.586, 503.799 752.176, 504.768 751.725, 505.653 751.239, 506.443 750.724, 507.131 750.183, 507.709 749.623, 508.172 741.539, 514.059 733.456, 519.946 732.932, 520.327 732.748, 520.105 732.247, 519.499 731.496, 518.874 730.694, 518.463 729.852, 518.274 724.197, 517.943 718.692, 517.620 717.819, 517.655 716.935, 517.914 716.056, 518.394 715.196, 519.086 714.371, 519.979 713.628, 521.062 712.982, 522.316 712.412, 523.718 711.927, 525.244 711.536, 526.868 711.246, 528.562 711.061, 530.297 710.985, 532.044 711.019, 533.772 711.163, 535.451 721.141, 536.115 722.359, 536.196 727.071, 532.802 727.031, 532.265 727.035, 531.712 727.083, 531.158 727.173, 530.618 727.236, 530.370 727.303, 530.107 727.469, 529.640 727.667, 529.228 727.891, 528.883 728.135, 528.615 728.392, 528.430 728.656, 528.334 728.919, 528.330 " fill="none" stroke="rgb(0, 0, 0)" stroke-linecap="butt" stroke-linejoin="round" stroke-opacity="1.0" stroke-width="3.0" />
            <path d=" M 796.330, 522.166 800.278, 519.038 801.494, 518.075 803.203, 516.721 806.603, 514.028 807.103, 513.588 807.587, 513.047 807.913, 512.603 808.053, 512.412 808.496, 511.688 808.912, 510.883 809.300, 510.003 809.655, 509.055 809.975, 508.049 810.259, 506.990 810.503, 505.888 810.707, 504.752 810.867, 503.589 810.983, 502.409 811.053, 501.221 820.652, 504.027 822.493, 504.565 822.397, 505.348 822.195, 506.490 821.952, 507.597 821.670, 508.661 821.351, 509.673 820.998, 510.625 820.614, 511.510 820.201, 512.319 819.761, 513.047 819.300, 513.686 818.819, 514.229 818.324, 514.672 810.533, 520.941 805.913, 524.660 805.271, 523.809 805.181, 523.728 804.565, 523.169 803.806, 522.749 803.008, 522.557 801.824, 522.488 800.573, 522.415 796.330, 522.166 794.874, 522.081 791.136, 521.862 790.564, 521.890 790.305, 521.903 790.208, 521.934 789.461, 522.174 788.620, 522.672 787.795, 523.390 787.000, 524.314 786.286, 525.434 785.667, 526.731 785.118, 528.179 784.650, 529.755 784.269, 531.432 783.984, 533.181 783.798, 534.971 783.715, 536.773 783.736, 538.554 783.862, 540.285 791.485, 540.792 791.557, 540.797 795.779, 541.078 796.184, 540.758 800.252, 537.551 800.218, 536.997 800.225, 536.427 800.274, 535.855 800.363, 535.298 800.424, 535.043 800.489, 534.771 800.648, 534.288 800.838, 533.862 801.052, 533.505 801.284, 533.227 801.298, 533.217 801.528, 533.036 801.778, 532.936 802.027, 532.930 " fill="none" stroke="rgb(0, 0, 0)" stroke-linecap="butt" stroke-linejoin="round" stroke-opacity="1.0" stroke-width="3.0" />
            <path d=" M 776.442, 545.346 776.629, 549.911 776.791, 559.909 776.826, 562.108 776.743, 572.108 776.725, 574.372 776.401, 584.367 776.326, 586.679 775.764, 596.664 775.633, 599.009 774.834, 608.977 774.645, 611.338 773.610, 621.284 773.365, 623.646 772.095, 633.565 771.795, 635.911 770.289, 645.797 769.937, 648.111 768.194, 657.958 767.793, 660.224 765.812, 670.026 765.367, 672.228 763.144, 681.978 762.660, 684.102 760.194, 693.793 759.677, 695.822 756.962, 705.446 756.421, 707.365 753.453, 716.915 752.895, 718.711 749.668, 728.176 749.103, 729.834 745.612, 739.205 745.050, 740.712 741.287, 749.976 740.741, 751.319 736.698, 760.465 736.181, 761.634 731.849, 770.647 731.377, 771.630 726.745, 780.493 726.332, 781.283 721.392, 789.977 721.056, 790.567 715.795, 799.071 715.556, 799.458 709.961, 807.746 709.838, 807.928 703.913, 815.952 697.790, 823.503 691.479, 830.556 684.990, 837.082 678.337, 843.056 671.532, 848.451 664.589, 853.242 657.523, 857.402 650.350, 860.905 643.087, 863.729 635.751, 865.849 628.363, 867.242 620.942, 867.888 613.509, 867.767 609.336, 867.257 " fill="none" stroke="rgb(0, 0, 0)" stroke-linecap="butt" stroke-linejoin="round" stroke-opacity="1.0" stroke-width="3.0" />
            <path d=" M 763.847, 547.629 763.013, 547.406 762.213, 546.927 761.463, 546.202 760.779, 545.244 760.172, 544.070 759.655, 542.703 759.238, 541.168 758.929, 539.495 758.734, 537.715 758.705, 537.021 758.657, 535.864 758.699, 533.976 758.861, 532.089 759.138, 530.239 759.139, 530.232 759.525, 528.462 760.015, 526.792 760.598, 525.261 761.263, 523.899 761.995, 522.732 762.635, 521.840 763.275, 520.949 763.914, 520.059 764.552, 519.171 764.873, 518.726 768.707, 513.399 774.549, 505.283 777.305, 501.455 783.147, 493.339 786.123, 489.204 787.607, 499.094 787.717, 499.831 788.317, 504.135 789.469, 514.069 789.625, 515.414 790.208, 521.934 " fill="none" stroke="rgb(0, 0, 0)" stroke-linecap="butt" stroke-linejoin="round" stroke-opacity="1.0" stroke-width="3.0" />
            <path d=" M 794.324, 515.866 800.049, 516.418 801.361, 516.544 803.203, 516.721 " fill="none" stroke="rgb(0, 0, 0)" stroke-linecap="butt" stroke-linejoin="round" stroke-opacity="1.0" stroke-width="3.0" />
            <path d=" M 764.785, 537.419 764.466, 537.366 764.166, 537.165 763.899, 536.826 763.677, 536.364 763.509, 535.799 763.404, 535.156 763.364, 534.462 763.393, 533.748 763.489, 533.045 763.647, 532.385 763.862, 531.797 764.122, 531.305 764.418, 530.932 764.734, 530.695 765.059, 530.602 " fill="none" stroke="rgb(0, 0, 0)" stroke-linecap="butt" stroke-linejoin="round" stroke-opacity="1.0" stroke-width="3.0" />
            <path d=" M 765.059, 530.602 765.378, 530.658 765.677, 530.861 765.943, 531.200 766.164, 531.662 766.330, 532.227 766.435, 532.869 766.474, 533.560 766.445, 534.272 766.350, 534.972 766.193, 535.630 765.979, 536.217 765.720, 536.709 765.426, 537.083 765.110, 537.323 764.785, 537.419 " fill="none" stroke="rgb(0, 0, 0)" stroke-linecap="butt" stroke-linejoin="round" stroke-opacity="1.0" stroke-width="3.0" />
            <path d=" M 727.236, 530.370 730.185, 530.559 738.298, 524.713 746.412, 518.868 754.526, 513.023 755.739, 512.150 757.535, 512.323 " fill="none" stroke="rgb(0, 0, 0)" stroke-linecap="butt" stroke-linejoin="round" stroke-opacity="1.0" stroke-width="3.0" />
            <path d=" M 801.416, 535.106 801.539, 537.082 801.921, 547.074 802.028, 549.887 802.172, 559.886 802.214, 562.782 802.123, 572.782 802.096, 575.746 801.773, 585.741 801.676, 588.756 801.124, 598.741 800.955, 601.791 800.174, 611.760 799.934, 614.828 798.925, 624.777 798.614, 627.845 797.379, 637.769 796.998, 640.821 795.534, 650.713 795.087, 653.733 793.393, 663.588 792.883, 666.559 790.957, 676.371 790.388, 679.276 788.228, 689.040 787.604, 691.861 785.207, 701.569 784.534, 704.292 781.895, 713.937 781.182, 716.543 778.296, 726.118 777.550, 728.593 774.412, 738.088 773.642, 740.417 770.245, 749.822 769.462, 751.989 765.799, 761.294 765.015, 763.285 761.077, 772.477 760.305, 774.279 756.083, 783.344 755.338, 784.945 750.822, 793.867 750.119, 795.256 745.298, 804.017 744.656, 805.185 739.519, 813.765 738.955, 814.706 733.489, 823.079 733.025, 823.790 727.215, 831.929 726.873, 832.407 720.708, 840.280 720.510, 840.532 713.946, 848.136 707.192, 855.187 700.259, 861.657 693.162, 867.520 685.914, 872.745 678.531, 877.303 671.030, 881.167 663.426, 884.311 655.741, 886.707 647.993, 888.330 640.204, 889.156 632.396, 889.165 624.593, 888.334 616.819, 886.645 609.101, 884.084 601.464, 880.637 593.937, 876.293 586.548, 871.047 579.327, 864.896 572.302, 857.841 565.807, 850.237 565.505, 849.884 559.560, 841.844 558.965, 841.039 553.555, 832.629 552.713, 831.320 547.819, 822.599 546.778, 820.744 542.379, 811.764 541.190, 809.337 537.264, 800.140 535.978, 797.128 535.736, 796.475 532.977, 789.032 531.780, 785.804 531.168, 784.152 528.123, 774.626 526.788, 770.448 526.405, 769.046 525.363, 765.228 522.862, 756.062 520.624, 746.315 519.472, 741.297 519.414, 741.044 518.108, 734.145 516.463, 725.448 512.924, 716.095 509.851, 707.971 " fill="none" stroke="rgb(0, 0, 0)" stroke-linecap="butt" stroke-linejoin="round" stroke-opacity="1.0" stroke-width="3.0" />
            <path d=" M 673.761, 316.968 665.923, 317.157 662.125, 317.653 657.977, 318.194 649.947, 320.095 641.857, 322.875 633.731, 326.548 625.597, 331.124 617.483, 336.606 609.646, 342.817 609.418, 342.997 602.037, 349.744 601.433, 350.297 594.506, 357.509 593.558, 358.497 587.078, 366.113 585.825, 367.585 579.781, 375.552 578.267, 377.547 576.178, 380.621 575.822, 381.145 570.918, 388.362 566.805, 395.096 564.409, 399.018 563.809, 400.001 562.712, 401.995 557.894, 410.758 557.692, 411.125 556.973, 412.433 555.932, 414.536 551.495, 423.498 550.444, 425.622 546.375, 434.757 544.362, 439.277 544.252, 439.525 540.540, 448.811 538.428, 454.094 535.062, 463.511 533.002, 469.276 529.974, 478.807 528.001, 485.016 525.303, 494.645 523.452, 501.250 522.163, 506.521 519.787, 516.234 519.541, 517.241 519.377, 517.913 519.267, 518.435 517.210, 528.221 516.903, 529.678 516.546, 531.376 515.798, 534.936 514.056, 544.783 512.735, 552.247 511.305, 562.144 510.202, 569.772 509.083, 579.709 508.213, 587.434 507.406, 597.401 506.777, 605.156 506.284, 615.143 505.902, 622.860 505.724, 632.858 505.589, 640.469 505.732, 650.468 505.839, 657.908 506.309, 667.897 506.486, 671.645 506.649, 675.101 507.454, 685.069 508.012, 691.976 509.154, 701.910 509.851, 707.971 509.573, 717.968 509.328, 726.775 " fill="none" stroke="rgb(0, 0, 0)" stroke-linecap="butt" stroke-linejoin="round" stroke-opacity="1.0" stroke-width="3.0" />
            <path d=" M 512.401, 742.864 513.921, 749.423 515.275, 755.269 515.989, 758.351 518.642, 767.992 520.069, 773.178 521.799, 778.547 522.901, 781.966 524.618, 787.293 528.119, 796.660 528.687, 798.181 529.609, 800.649 529.865, 801.242 532.881, 808.247 535.015, 813.205 539.445, 822.170 540.807, 824.926 545.735, 833.628 546.954, 835.781 552.401, 844.167 553.426, 845.745 559.411, 853.756 560.191, 854.800 566.730, 862.366 567.218, 862.931 574.318, 869.973 574.475, 870.128 581.931, 876.388 589.554, 881.712 597.315, 886.103 605.184, 889.568 613.132, 892.121 621.132, 893.776 629.158, 894.548 637.184, 894.459 645.185, 893.532 653.140, 891.791 661.027, 889.258 668.825, 885.963 676.516, 881.933 684.082, 877.197 691.506, 871.783 698.774, 865.721 705.870, 859.041 712.783, 851.773 719.294, 844.184 719.499, 843.946 725.644, 836.058 726.007, 835.591 731.800, 827.440 732.299, 826.737 737.751, 818.354 738.363, 817.412 743.488, 808.825 744.193, 807.645 749.004, 798.878 749.779, 797.465 754.288, 788.539 755.116, 786.900 759.332, 777.832 760.195, 775.975 764.130, 766.781 765.012, 764.719 768.674, 755.413 769.562, 753.158 772.959, 743.752 773.839, 741.317 776.978, 731.822 777.838, 729.221 780.727, 719.647 781.557, 716.895 784.200, 707.251 784.990, 704.365 787.392, 694.658 788.136, 691.653 790.301, 681.890 790.990, 678.783 792.921, 668.971 793.550, 665.778 795.250, 655.924 795.813, 652.662 797.284, 642.771 797.777, 639.457 799.020, 629.535 799.440, 626.186 800.456, 616.238 800.800, 612.871 801.588, 602.902 801.854, 599.534 802.413, 589.550 802.601, 586.198 802.931, 576.203 803.041, 572.885 803.138, 562.885 803.170, 559.617 803.033, 549.618 802.989, 546.417 802.612, 536.424 802.566, 535.179 " fill="none" stroke="rgb(0, 0, 0)" stroke-linecap="butt" stroke-linejoin="round" stroke-opacity="1.0" stroke-width="3.0" />
            <path d=" M 509.328, 726.775 511.204, 736.597 512.401, 742.864 " fill="none" stroke="rgb(0, 0, 0)" stroke-linecap="butt" stroke-linejoin="round" stroke-opacity="1.0" stroke-width="3.0" />
            <path d=" M 817.895, 446.672 817.421, 443.923 815.491, 434.111 815.254, 432.909 813.087, 423.147 812.851, 422.086 810.441, 412.381 810.214, 411.467 807.551, 401.828 807.342, 401.070 804.418, 391.507 804.236, 390.911 801.038, 381.437 800.895, 381.012 797.412, 371.638 797.319, 371.390 793.513, 362.060 789.477, 353.039 785.214, 344.346 780.726, 335.998 776.017, 328.017 771.087, 320.424 765.939, 313.242 760.579, 306.491 755.011, 300.190 749.241, 294.356 743.276, 289.007 737.121, 284.165 730.783, 279.850 724.271, 276.084 717.592, 272.890 710.756, 270.292 703.774, 268.308 696.656, 266.953 689.415, 266.242 682.063, 266.190 680.645, 266.309 674.614, 266.813 667.084, 268.127 659.487, 270.149 651.841, 272.893 644.163, 276.373 636.472, 280.595 628.787, 285.560 621.127, 291.271 613.678, 297.587 613.513, 297.727 606.277, 304.630 605.965, 304.928 599.120, 312.218 598.506, 312.871 592.047, 320.505 591.160, 321.553 585.638, 328.764 583.951, 330.968 578.241, 339.177 576.903, 341.102 576.599, 341.581 573.293, 346.800 572.863, 347.478 570.038, 351.938 565.174, 360.346 563.378, 363.451 562.827, 364.493 561.173, 367.623 556.947, 375.617 556.283, 376.992 554.600, 380.475 550.766, 388.410 546.729, 397.559 544.858, 401.801 543.505, 405.166 539.775, 414.444 539.246, 415.758 535.815, 425.151 533.954, 430.246 533.462, 431.735 530.325, 441.230 529.004, 445.230 526.154, 454.815 524.415, 460.664 521.845, 470.328 520.203, 476.502 517.908, 486.235 516.384, 492.695 514.359, 502.488 512.972, 509.193 511.213, 519.037 509.979, 525.945 509.147, 531.456 507.654, 541.343 507.419, 542.897 506.191, 552.821 505.303, 559.995 504.342, 569.949 503.643, 577.185 502.948, 587.161 502.443, 594.408 502.014, 604.399 501.704, 611.609 501.542, 621.608 501.426, 628.732 501.535, 638.731 501.611, 645.720 501.995, 655.712 502.257, 662.518 502.921, 672.496 503.359, 679.074 503.868, 684.404 504.818, 694.358 504.911, 695.334 506.154, 705.257 506.904, 711.251 508.447, 721.131 509.328, 726.775 511.180, 736.602 512.172, 741.861 512.401, 742.864 513.884, 749.544 515.205, 755.491 515.421, 756.466 517.923, 766.148 519.061, 770.553 521.620, 779.182 522.680, 782.754 523.074, 784.083 526.275, 793.557 527.445, 797.022 528.359, 799.411 529.532, 802.479 532.155, 809.341 532.444, 810.013 536.400, 819.198 537.183, 821.016 541.538, 830.018 542.508, 832.022 547.280, 840.810 548.111, 842.341 553.319, 850.877 553.973, 851.948 559.633, 860.192 560.073, 860.832 566.195, 868.738 566.387, 868.985 572.892, 876.404 579.568, 883.084 586.393, 889.023 593.347, 894.222 600.410, 898.681 607.565, 902.402 614.790, 905.392 621.561, 907.506 622.067, 907.664 629.376, 909.234 636.700, 910.115 644.022, 910.323 651.328, 909.871 658.601, 908.776 665.828, 907.049 672.995, 904.706 680.090, 901.768 687.100, 898.257 694.014, 894.196 700.821, 889.606 707.511, 884.506 714.075, 878.915 720.505, 872.852 726.791, 866.333 732.927, 859.377 738.906, 852.005 744.720, 844.240 750.366, 836.103 755.838, 827.614 760.983, 819.038 761.131, 818.790 766.011, 810.062 766.241, 809.650 770.863, 800.783 771.161, 800.210 775.533, 791.216 775.889, 790.484 780.018, 781.376 780.419, 780.490 784.314, 771.279 784.750, 770.247 788.418, 760.944 788.879, 759.774 792.326, 750.387 792.804, 749.087 796.037, 739.624 796.522, 738.202 799.546, 728.670 800.032, 727.136 802.850, 717.541 803.331, 715.903 805.946, 706.250 806.416, 704.515 808.829, 694.811 809.283, 692.989 811.499, 683.237 811.931, 681.337 813.954, 671.544 814.361, 669.577 816.193, 659.747 816.570, 657.723 818.214, 647.859 818.559, 645.789 820.016, 635.895 820.326, 633.788 821.596, 623.869 821.869, 621.735 822.953, 611.794 823.187, 609.643 824.083, 599.683 824.277, 597.525 824.985, 587.550 825.137, 585.394 825.658, 575.408 825.770, 573.266 826.103, 563.271 826.174, 561.152 826.318, 551.153 826.348, 549.068 826.300, 539.068 826.290, 537.026 826.048, 527.029 826.000, 525.041 825.678, 517.687 " fill="none" stroke="rgb(0, 0, 0)" stroke-linecap="butt" stroke-linejoin="round" stroke-opacity="1.0" stroke-width="3.0" />
            <path d=" M 679.849, 266.303 672.390, 266.926 664.849, 268.240 657.242, 270.260 649.586, 273.003 641.899, 276.480 634.199, 280.699 626.505, 285.659 618.836, 291.365 612.448, 296.770 611.213, 297.815 603.971, 304.710 603.657, 305.009 596.805, 312.292 596.190, 312.945 589.723, 320.572 588.837, 321.618 582.749, 329.552 581.620, 331.023 579.913, 333.472 574.566, 341.147 572.977, 343.649 572.539, 344.338 570.068, 348.231 567.695, 351.970 564.955, 356.698 562.601, 360.760 561.029, 363.471 560.954, 363.613 556.274, 372.450 556.059, 372.856 554.593, 375.624 554.361, 376.103 550.004, 385.104 548.407, 388.403 544.364, 397.550 543.315, 399.923 542.494, 401.779 538.758, 411.055 536.879, 415.721 533.442, 425.112 531.583, 430.193 528.441, 439.687 526.630, 445.159 523.775, 454.743 522.566, 458.804 522.038, 460.576 519.465, 470.239 517.825, 476.396 515.526, 486.128 514.004, 492.571 511.976, 502.363 510.591, 509.050 508.830, 518.893 507.598, 525.782 506.736, 531.481 505.241, 541.369 505.038, 542.715 503.809, 552.639 502.923, 559.793 501.960, 569.747 501.263, 576.963 500.568, 586.939 500.065, 594.167 499.636, 604.158 499.327, 611.349 499.167, 621.348 499.052, 628.452 499.163, 638.451 499.240, 645.421 499.627, 655.414 499.889, 662.201 500.557, 672.179 500.996, 678.739 501.949, 688.693 502.233, 691.656 502.552, 694.982 503.799, 704.904 504.549, 710.882 506.097, 720.761 506.978, 726.390 508.836, 736.216 509.828, 741.460 512.005, 751.220 512.596, 753.868 513.083, 756.051 513.944, 759.375 516.452, 769.055 516.729, 770.124 519.579, 779.709 520.551, 782.975 520.749, 783.641 521.649, 786.298 524.857, 795.770 525.127, 796.568 527.471, 802.684 528.648, 805.756 529.844, 808.877 531.653, 813.068 534.879, 820.541 539.243, 829.539 540.212, 831.538 544.992, 840.322 545.823, 841.849 551.040, 850.380 551.694, 851.449 557.362, 859.687 557.802, 860.327 563.933, 868.227 564.125, 868.475 570.640, 875.889 577.325, 882.566 584.159, 888.503 591.123, 893.701 598.196, 898.160 605.360, 901.881 612.595, 904.871 619.882, 907.146 " fill="none" stroke="rgb(0, 0, 0)" stroke-linecap="butt" stroke-linejoin="round" stroke-opacity="1.0" stroke-width="3.0" />
            <path d=" M 682.063, 266.190 679.849, 266.303 " fill="none" stroke="rgb(0, 0, 0)" stroke-linecap="butt" stroke-linejoin="round" stroke-opacity="1.0" stroke-width="3.0" />
            <path d=" M 619.882, 907.146 622.067, 907.664 " fill="none" stroke="rgb(0, 0, 0)" stroke-linecap="butt" stroke-linejoin="round" stroke-opacity="1.0" stroke-width="3.0" />
            <path d=" M 491.775, 731.042 493.388, 739.424 495.094, 748.295 497.308, 758.047 498.032, 761.238 498.881, 764.978 500.885, 772.578 503.117, 781.044 503.135, 781.106 504.127, 784.382 506.911, 793.579 507.780, 796.451 507.907, 796.819 511.165, 806.273 512.111, 809.017 512.849, 811.159 513.172, 811.987 516.359, 820.155 517.481, 823.030 518.302, 825.135 519.821, 828.588 520.994, 831.254 521.967, 833.467 524.115, 838.349 524.350, 838.824 528.784, 847.788 530.262, 850.774 535.120, 859.514 536.718, 862.389 542.017, 870.870 543.459, 873.177 549.213, 881.355 550.458, 883.124 556.680, 890.952 557.689, 892.221 564.389, 899.644 565.127, 900.461 572.309, 907.419 572.746, 907.842 580.407, 914.269 580.522, 914.366 588.430, 920.035 596.446, 924.858 604.548, 928.842 612.712, 932.000 620.919, 934.346 625.237, 935.424 633.443, 936.966 641.650, 937.728 649.840, 937.728 657.996, 936.985 666.102, 935.522 674.140, 933.360 682.098, 930.521 689.961, 927.029 697.717, 922.907 705.353, 918.179 712.859, 912.868 720.224, 906.998 727.440, 900.594 734.497, 893.678 741.309, 886.357 741.387, 886.273 747.879, 878.666 748.104, 878.403 754.284, 870.542 754.640, 870.090 760.520, 862.001 760.989, 861.356 766.580, 853.064 767.147, 852.223 772.457, 843.750 773.107, 842.712 778.148, 834.076 778.866, 832.845 783.646, 824.061 784.419, 822.640 788.947, 813.724 789.762, 812.118 794.047, 803.083 794.893, 801.299 798.941, 792.155 799.807, 790.201 803.627, 780.959 804.502, 778.841 808.100, 769.511 808.976, 767.240 812.358, 757.829 813.226, 755.412 816.397, 745.928 817.251, 743.376 820.216, 733.826 821.047, 731.148 823.811, 721.538 824.614, 718.744 827.181, 709.079 827.950, 706.180 830.323, 696.466 831.054, 693.471 833.235, 683.712 833.923, 680.633 835.916, 670.834 836.558, 667.680 838.364, 657.844 838.955, 654.626 840.577, 644.758 841.115, 641.487 842.554, 631.591 843.036, 628.275 844.293, 618.355 844.718, 615.006 845.793, 605.064 846.158, 601.694 847.052, 591.734 847.356, 588.351 848.069, 578.376 848.311, 574.992 848.842, 565.006 849.022, 561.631 849.370, 551.637 849.487, 548.281 849.652, 538.282 849.707, 534.956 849.687, 524.956 849.680, 521.670 849.472, 511.673 849.404, 508.438 849.006, 498.446 848.880, 495.273 848.289, 485.290 848.105, 482.190 847.318, 472.221 847.080, 469.203 846.093, 459.252 845.803, 456.328 844.611, 446.399 844.273, 443.580 842.873, 433.678 842.490, 430.973 840.875, 421.104 840.453, 418.525 838.617, 408.695 838.161, 406.251 836.099, 396.466 835.614, 394.168 833.317, 384.436 832.812, 382.293 830.272, 372.621 829.753, 370.645 826.963, 361.042 826.439, 359.240 823.388, 349.716 822.869, 348.097 819.547, 338.665 819.044, 337.236 815.440, 327.908 814.964, 326.676 811.066, 317.467 810.630, 316.437 806.425, 307.364 806.044, 306.540 801.519, 297.622 801.206, 297.006 796.347, 288.266 796.120, 287.857 790.912, 279.320 790.786, 279.115 785.209, 270.802 779.392, 262.943 773.339, 255.559 767.054, 248.676 760.542, 242.317 753.811, 236.507 746.866, 231.271 739.715, 226.632 732.367, 222.616 724.832, 219.247 717.119, 216.549 709.240, 214.545 701.208, 213.259 693.036, 212.713 684.739, 212.928 680.333, 213.256 671.905, 214.253 663.385, 216.048 654.792, 218.659 646.145, 222.100 637.465, 226.384 628.774, 231.523 620.548, 237.210 620.094, 237.524 612.265, 243.745 611.450, 244.392 604.023, 251.088 602.866, 252.131 595.841, 259.247 594.369, 260.738 587.741, 268.226 585.985, 270.210 584.801, 271.693 578.562, 279.508 577.740, 280.538 571.881, 288.642 569.663, 291.710 566.886, 295.938 566.332, 296.783 563.220, 301.521 561.782, 303.711 561.073, 304.896 558.693, 308.877 557.891, 310.219 557.078, 311.579 554.125, 316.519 553.864, 316.997 552.282, 319.901 552.201, 320.050 550.567, 323.049 546.720, 330.110 544.052, 335.481 542.437, 338.733 539.854, 343.934 539.595, 344.456 535.473, 353.567 532.778, 359.523 530.018, 366.230 526.297, 375.274 522.800, 384.642 520.177, 391.667 516.980, 401.142 514.444, 408.656 511.540, 418.225 509.122, 426.193 506.505, 435.844 504.233, 444.223 501.898, 453.947 499.798, 462.691 498.734, 467.752 496.677, 477.538 496.281, 479.419 495.836, 481.537 494.053, 491.376 492.364, 500.698 491.331, 507.459 491.007, 509.575 490.357, 513.832 489.914, 516.731 489.752, 517.791 489.739, 517.875 489.521, 519.298 489.397, 520.111 489.371, 520.318 488.801, 524.881 487.560, 534.804 486.947, 539.709 485.976, 549.662 485.024, 559.425 484.323, 569.400 483.636, 579.190 483.206, 589.181 482.786, 598.937 482.629, 608.936 482.513, 616.320 482.495, 617.490 482.478, 618.596 482.596, 628.595 482.648, 632.927 482.657, 633.701 482.710, 638.101 483.108, 648.093 483.150, 649.148 483.161, 649.424 483.479, 657.384 483.970, 664.558 484.002, 665.029 484.685, 675.006 484.779, 676.381 485.065, 679.305 486.039, 689.257 486.600, 694.997 486.603, 695.029 486.840, 696.880 488.111, 706.799 488.939, 713.268 490.515, 723.143 491.708, 730.626 491.775, 731.042 " fill="none" stroke="rgb(0, 0, 0)" stroke-linecap="butt" stroke-linejoin="round" stroke-opacity="1.0" stroke-width="3.0" />
            <path d=" M 684.739, 212.928 676.334, 213.924 667.836, 215.720 659.265, 218.333 650.640, 221.778 641.981, 226.068 633.310, 231.215 625.095, 236.917 624.651, 237.225 616.833, 243.462 616.026, 244.106 608.612, 250.816 607.461, 251.858 600.450, 258.988 598.981, 260.482 592.368, 267.982 590.614, 269.972 587.155, 274.321 582.385, 280.320 576.542, 288.435 574.323, 291.515 568.849, 299.883 567.739, 301.579 567.192, 302.416 566.456, 303.540 561.658, 311.596 559.285, 315.582 558.812, 316.375 557.689, 318.444 552.919, 327.233 552.865, 327.332 551.419, 329.996 551.218, 330.403 546.783, 339.366 544.306, 344.372 540.556, 352.693 537.499, 359.472 533.706, 368.725 531.027, 375.258 527.540, 384.631 524.915, 391.688 521.727, 401.166 519.188, 408.716 516.293, 418.287 515.695, 420.264 513.872, 426.292 511.262, 435.946 508.987, 444.364 506.659, 454.089 504.555, 462.874 502.504, 472.661 500.595, 481.763 498.817, 491.604 497.125, 500.969 495.617, 510.854 495.116, 514.140 494.188, 520.227 494.157, 520.426 493.171, 528.329 491.933, 538.252 491.706, 540.069 490.736, 550.022 489.781, 559.831 489.080, 569.806 488.828, 573.386 488.389, 579.641 487.957, 589.632 487.534, 599.433 487.520, 600.329 487.361, 610.328 487.220, 619.137 487.303, 626.287 487.418, 636.287 487.446, 638.685 487.839, 648.677 488.207, 658.011 488.884, 667.988 489.499, 677.049 490.465, 687.003 490.743, 689.867 491.313, 695.738 492.575, 705.658 493.616, 713.835 493.624, 713.898 493.639, 714.016 494.057, 716.654 494.713, 720.789 496.279, 730.665 496.463, 731.827 498.342, 741.649 499.770, 749.115 501.972, 758.870 503.544, 765.832 505.767, 774.308 506.810, 778.289 507.765, 781.929 510.649, 791.505 512.413, 797.365 514.304, 802.876 515.344, 805.908 517.467, 812.100 521.087, 821.422 521.636, 822.835 522.768, 825.752 522.904, 826.101 526.053, 833.294 526.511, 834.339 528.699, 839.337 533.117, 848.308 534.829, 851.782 539.671, 860.532 541.267, 863.415 546.550, 871.906 547.989, 874.219 553.727, 882.408 554.968, 884.179 561.175, 892.019 562.179, 893.286 568.866, 900.722 569.597, 901.535 576.766, 908.506 577.195, 908.923 584.846, 915.363 584.950, 915.451 592.836, 921.122 600.831, 925.945 608.911, 929.928 617.053, 933.083 625.237, 935.424 " fill="none" stroke="rgb(0, 0, 0)" stroke-linecap="butt" stroke-linejoin="round" stroke-opacity="1.0" stroke-width="3.0" />
            <path d=" M 729.852, 518.274 728.984, 518.309 728.107, 518.570 727.233, 519.053 726.379, 519.749 726.214, 519.929 725.558, 520.647 724.819, 521.735 724.177, 522.996 723.610, 524.405 723.128, 525.939 722.738, 527.571 722.676, 527.937 722.448, 529.273 722.365, 530.059 722.263, 531.017 722.186, 532.772 722.219, 534.508 722.359, 536.196 " fill="none" stroke="rgb(0, 0, 0)" stroke-linecap="butt" stroke-linejoin="round" stroke-opacity="1.0" stroke-width="3.0" />
            <path d=" M 728.919, 528.330 729.174, 528.417 729.414, 528.592 729.632, 528.852 729.823, 529.189 729.982, 529.593 730.103, 530.054 730.185, 530.559 " fill="none" stroke="rgb(0, 0, 0)" stroke-linecap="butt" stroke-linejoin="round" stroke-opacity="1.0" stroke-width="3.0" />
            <path d=" M 803.008, 522.557 802.184, 522.599 801.348, 522.872 800.513, 523.373 799.694, 524.095 799.536, 524.281 798.905, 525.025 798.196, 526.151 797.581, 527.454 797.036, 528.911 796.571, 530.495 796.192, 532.180 796.131, 532.559 795.907, 533.938 795.823, 534.749 795.721, 535.737 795.637, 537.548 795.656, 539.338 795.779, 541.078 " fill="none" stroke="rgb(0, 0, 0)" stroke-linecap="butt" stroke-linejoin="round" stroke-opacity="1.0" stroke-width="3.0" />
            <path d=" M 802.027, 532.930 802.267, 533.018 802.492, 533.197 802.697, 533.464 802.875, 533.810 803.022, 534.226 803.134, 534.700 803.208, 535.220 " fill="none" stroke="rgb(0, 0, 0)" stroke-linecap="butt" stroke-linejoin="round" stroke-opacity="1.0" stroke-width="3.0" />
            <path d=" M 777.284, 476.857 777.403, 476.760 777.537, 476.684 777.683, 476.631 777.838, 476.601 777.999, 476.595 778.221, 476.626 778.439, 476.701 778.646, 476.817 778.833, 476.969 778.993, 477.152 779.122, 477.361 779.214, 477.591 779.263, 477.836 779.266, 478.066 779.226, 478.285 779.144, 478.485 779.024, 478.660 778.871, 478.802 " fill="none" stroke="rgb(0, 0, 0)" stroke-linecap="butt" stroke-linejoin="round" stroke-opacity="1.0" stroke-width="3.0" />
            <path d=" M 777.176, 476.961 777.042, 477.142 777.012, 477.205 776.914, 477.420 776.862, 477.653 776.861, 477.900 776.874, 477.970 776.921, 478.197 777.014, 478.409 777.148, 478.597 777.198, 478.649 777.361, 478.800 777.553, 478.913 777.612, 478.943 777.810, 479.005 777.868, 479.022 777.939, 479.034 778.021, 479.040 778.118, 479.041 778.183, 479.039 778.234, 479.036 778.285, 479.030 778.333, 479.022 778.407, 479.008 778.494, 478.987 778.572, 478.963 778.637, 478.936 778.799, 478.843 778.871, 478.802 " fill="none" stroke="rgb(0, 0, 0)" stroke-linecap="butt" stroke-linejoin="round" stroke-opacity="1.0" stroke-width="3.0" />
            <path d=" M 777.403, 476.760 777.345, 476.810 777.254, 476.892 777.176, 476.961 777.284, 476.857 " fill="none" stroke="rgb(0, 0, 0)" stroke-linecap="butt" stroke-linejoin="round" stroke-opacity="1.0" stroke-width="3.0" />
            <path d=" M 774.967, 474.690 775.592, 480.658 779.858, 480.835 781.284, 480.894 781.915, 480.284 780.809, 474.811 778.785, 474.656 775.393, 474.395 774.967, 474.690 " fill="none" stroke="rgb(0, 0, 0)" stroke-linecap="butt" stroke-linejoin="round" stroke-opacity="1.0" stroke-width="3.0" />
            <path d=" M 781.284, 480.894 780.665, 474.912 " fill="none" stroke="rgb(0, 0, 0)" stroke-linecap="butt" stroke-linejoin="round" stroke-opacity="1.0" stroke-width="3.0" />
            <path d=" M 780.809, 474.811 780.665, 474.912 774.967, 474.690 " fill="none" stroke="rgb(0, 0, 0)" stroke-linecap="butt" stroke-linejoin="round" stroke-opacity="1.0" stroke-width="3.0" />
            <path d=" M 741.283, 503.975 738.200, 504.052 728.213, 504.567 726.746, 504.642 716.775, 505.397 715.313, 505.508 705.360, 506.476 703.894, 506.619 693.961, 507.775 692.485, 507.947 682.573, 509.266 681.080, 509.465 671.187, 510.922 669.674, 511.145 659.798, 512.716 658.261, 512.961 648.400, 514.624 646.836, 514.887 636.987, 516.619 635.395, 516.898 625.554, 518.677 623.930, 518.970 614.095, 520.774 612.439, 521.078 602.604, 522.887 600.914, 523.198 591.076, 524.992 589.351, 525.307 579.507, 527.067 577.745, 527.382 578.165, 517.391 578.351, 512.978 578.654, 502.983 578.790, 498.503 578.979, 488.505 579.064, 483.976 579.138, 473.977 579.172, 469.416 579.131, 459.416 579.113, 454.841 578.958, 444.842 578.887, 440.270 578.618, 430.274 578.495, 425.722 578.372, 422.524 " fill="none" stroke="rgb(0, 0, 0)" stroke-linecap="butt" stroke-linejoin="round" stroke-opacity="1.0" stroke-width="3.0" />
            <path d=" M 584.801, 271.693 583.114, 269.809 576.907, 261.969 576.482, 261.432 570.738, 253.247 570.253, 252.556 564.970, 244.065 564.456, 243.238 559.633, 234.478 559.116, 233.538 554.753, 224.540 554.263, 223.532 " fill="none" stroke="rgb(0, 0, 0)" stroke-linecap="butt" stroke-linejoin="round" stroke-opacity="1.0" stroke-width="3.0" />
            <path d=" M 554.210, 223.408 550.307, 214.201 549.886, 213.209 548.869, 210.434 546.029, 202.683 " fill="none" stroke="rgb(0, 0, 0)" stroke-linecap="butt" stroke-linejoin="round" stroke-opacity="1.0" stroke-width="3.0" />
            <path d=" M 555.125, 225.514 554.263, 223.532 554.210, 223.408 550.459, 214.771 " fill="none" stroke="rgb(0, 0, 0)" stroke-linecap="butt" stroke-linejoin="round" stroke-opacity="1.0" stroke-width="3.0" />
            <path d=" M 546.029, 202.683 542.865, 193.197 542.611, 192.434 541.044, 188.169 540.545, 186.811 539.034, 182.698 536.311, 176.001 535.299, 173.511 531.411, 164.910 527.400, 156.986 527.373, 156.932 523.326, 149.854 523.191, 149.619 518.871, 143.012 516.535, 139.937 514.418, 137.149 512.176, 134.663 509.840, 132.072 505.147, 127.823 500.346, 124.446 497.810, 123.167 495.449, 121.977 494.833, 121.789 490.468, 120.458 485.414, 119.929 480.303, 120.427 475.149, 121.986 469.969, 124.637 469.174, 125.216 468.709, 125.554 464.782, 128.413 463.501, 129.631 459.605, 133.336 454.458, 139.425 453.059, 141.423 450.393, 145.228 450.393, 145.229 450.383, 145.242 449.364, 146.698 446.609, 151.343 444.344, 155.164 439.805, 164.074 439.422, 164.826 435.376, 173.970 434.621, 175.677 431.012, 185.003 429.965, 187.708 426.746, 197.176 425.479, 200.900 422.610, 210.480 421.188, 215.224 418.635, 224.892 417.117, 230.641 414.852, 240.381 413.289, 247.107 411.291, 256.906 409.728, 264.569 407.977, 274.414 406.457, 282.958 404.936, 292.842 403.496, 302.204 402.194, 312.119 400.866, 322.227 399.771, 332.167 398.676, 342.107 398.584, 342.939 397.687, 352.898 396.790, 362.858 396.665, 364.242 395.959, 374.217 395.254, 384.192 395.123, 386.035 395.147, 386.140 397.365, 395.891 399.583, 405.642 400.978, 411.777 401.268, 413.051 403.576, 422.781 405.884, 432.511 407.472, 439.204 409.873, 448.912 412.275, 458.619 413.738, 464.535 416.235, 474.218 418.733, 483.901 420.068, 489.077 422.664, 498.734 425.261, 508.391 426.464, 512.867 429.162, 522.497 431.860, 532.126 432.928, 535.939 435.731, 545.538 438.533, 555.137 439.463, 558.323 442.372, 567.890 445.282, 577.458 446.070, 580.051 449.089, 589.584 452.108, 599.118 452.752, 601.152 455.883, 610.650 459.013, 620.147 459.511, 621.655 462.755, 631.114 466.000, 640.573 466.348, 641.588 469.709, 651.006 473.070, 660.424 473.267, 660.976 476.746, 670.351 480.269, 679.845 483.868, 689.175 486.840, 696.880 " fill="none" stroke="rgb(0, 0, 0)" stroke-linecap="butt" stroke-linejoin="round" stroke-opacity="1.0" stroke-width="3.0" />
            <path d=" M 482.513, 616.320 482.052, 614.528 482.495, 617.490 " fill="none" stroke="rgb(0, 0, 0)" stroke-linecap="butt" stroke-linejoin="round" stroke-opacity="1.0" stroke-width="3.0" />
            <path d=" M 482.309, 631.685 482.657, 633.701 " fill="none" stroke="rgb(0, 0, 0)" stroke-linecap="butt" stroke-linejoin="round" stroke-opacity="1.0" stroke-width="3.0" />
            <path d=" M 482.648, 632.927 482.309, 631.685 479.636, 622.049 477.018, 612.614 478.658, 622.478 480.298, 632.343 481.938, 642.207 483.014, 648.683 " fill="none" stroke="rgb(0, 0, 0)" stroke-linecap="butt" stroke-linejoin="round" stroke-opacity="1.0" stroke-width="3.0" />
            <path d=" M 483.014, 648.683 483.161, 649.424 " fill="none" stroke="rgb(0, 0, 0)" stroke-linecap="butt" stroke-linejoin="round" stroke-opacity="1.0" stroke-width="3.0" />
            <path d=" M 483.150, 649.148 483.014, 648.683 480.187, 639.091 477.409, 629.664 479.257, 639.492 481.105, 649.320 482.953, 659.147 483.970, 664.558 " fill="none" stroke="rgb(0, 0, 0)" stroke-linecap="butt" stroke-linejoin="round" stroke-opacity="1.0" stroke-width="3.0" />
            <path d=" M 484.002, 665.029 480.979, 655.497 478.148, 646.573 480.216, 656.357 482.283, 666.141 484.351, 675.925 485.065, 679.305 " fill="none" stroke="rgb(0, 0, 0)" stroke-linecap="butt" stroke-linejoin="round" stroke-opacity="1.0" stroke-width="3.0" />
            <path d=" M 479.152, 663.304 481.440, 673.038 483.728, 682.773 486.015, 692.508 486.600, 694.997 " fill="none" stroke="rgb(0, 0, 0)" stroke-linecap="butt" stroke-linejoin="round" stroke-opacity="1.0" stroke-width="3.0" />
            <path d=" M 365.883, 377.719 361.106, 386.504 358.610, 391.094 " fill="none" stroke="rgb(0, 0, 0)" stroke-linecap="butt" stroke-linejoin="round" stroke-opacity="1.0" stroke-width="3.0" />
            <path d=" M 469.174, 125.216 463.949, 125.596 " fill="none" stroke="rgb(0, 0, 0)" stroke-linecap="butt" stroke-linejoin="round" stroke-opacity="1.0" stroke-width="3.0" />
            <path d=" M 791.485, 540.792 791.583, 542.452 " fill="none" stroke="rgb(0, 0, 0)" stroke-linecap="butt" stroke-linejoin="round" stroke-opacity="1.0" stroke-width="3.0" />
            <path d=" M 794.874, 522.081 794.324, 515.866 " fill="none" stroke="rgb(0, 0, 0)" stroke-linecap="butt" stroke-linejoin="round" stroke-opacity="1.0" stroke-width="3.0" />
            <path d=" M 800.278, 519.038 800.049, 516.418 " fill="none" stroke="rgb(0, 0, 0)" stroke-linecap="butt" stroke-linejoin="round" stroke-opacity="1.0" stroke-width="3.0" />
            <path d=" M 801.494, 518.075 801.361, 516.544 " fill="none" stroke="rgb(0, 0, 0)" stroke-linecap="butt" stroke-linejoin="round" stroke-opacity="1.0" stroke-width="3.0" />
        </g>
    </g>
</svg>
