<?xml version='1.0' encoding='ascii'?>
<svg xmlns="http://www.w3.org/2000/svg" height="1080" version="1.1" width="1080">
    <g id="View Layer_LineSet" inkscape:groupmode="lineset" inkscape:label="View Layer_LineSet" xmlns:inkscape="http://www.inkscape.org/namespaces/inkscape">
        <g id="strokes" inkscape:groupmode="layer" inkscape:label="strokes" xmlns:inkscape="http://www.inkscape.org/namespaces/inkscape">
            <path d=" M 358.475, 393.077 364.915, 390.782 " fill="none" stroke="rgb(0, 0, 0)" stroke-linecap="butt" stroke-linejoin="round" stroke-opacity="1.0" stroke-width="3.0" />
            <path d=" M 382.778, 390.802 392.592, 392.722 394.664, 393.128 " fill="none" stroke="rgb(0, 0, 0)" stroke-linecap="butt" stroke-linejoin="round" stroke-opacity="1.0" stroke-width="3.0" />
            <path d=" M 394.664, 393.128 390.973, 383.834 387.281, 374.540 386.844, 373.439 " fill="none" stroke="rgb(0, 0, 0)" stroke-linecap="butt" stroke-linejoin="round" stroke-opacity="1.0" stroke-width="3.0" />
            <path d=" M 463.681, 126.336 459.141, 127.581 454.560, 129.942 449.954, 133.453 445.338, 138.144 440.732, 144.035 439.039, 146.663 438.518, 147.471 436.152, 151.145 431.620, 159.488 427.397, 168.553 427.157, 169.069 423.408, 178.339 422.784, 179.883 419.447, 189.310 418.523, 191.922 415.549, 201.469 414.398, 205.169 411.746, 214.810 410.430, 219.593 408.067, 229.310 406.644, 235.157 404.542, 244.933 403.062, 251.815 401.199, 261.640 399.706, 269.512 398.064, 279.376 396.598, 288.177 395.161, 298.074 393.757, 307.737 392.513, 317.660 391.269, 327.582 391.203, 328.108 390.142, 338.052 389.080, 347.995 388.952, 349.196 388.065, 359.157 387.178, 369.117 387.020, 370.900 386.844, 373.439 384.564, 383.175 382.778, 390.802 " fill="none" stroke="rgb(0, 0, 0)" stroke-linecap="butt" stroke-linejoin="round" stroke-opacity="1.0" stroke-width="3.0" />
            <path d=" M 526.196, 715.003 527.736, 707.940 528.239, 705.630 530.197, 695.824 530.606, 693.776 532.406, 683.939 532.840, 681.565 534.492, 671.702 534.941, 669.024 536.454, 659.139 536.907, 656.180 538.291, 646.276 538.740, 643.059 540.001, 633.139 540.439, 629.685 541.582, 619.750 542.005, 616.081 542.788, 608.525 543.436, 602.271 544.360, 592.314 544.735, 588.277 545.555, 578.310 545.900, 574.119 546.619, 564.145 546.932, 559.819 547.554, 549.838 547.831, 545.397 548.357, 535.410 548.597, 530.872 555.264, 530.804 557.114, 530.785 557.253, 530.784 559.039, 530.766 562.613, 530.729 563.462, 530.721 564.401, 530.711 566.980, 530.685 576.979, 530.583 577.599, 530.576 578.014, 520.585 578.208, 515.913 578.504, 505.917 578.645, 501.179 578.824, 491.180 578.910, 486.395 578.972, 476.395 579.003, 471.580 578.949, 461.580 578.923, 456.754 578.753, 446.756 578.671, 441.937 578.384, 431.941 578.246, 427.150 578.046, 422.217 " fill="none" stroke="rgb(0, 0, 0)" stroke-linecap="butt" stroke-linejoin="round" stroke-opacity="1.0" stroke-width="3.0" />
            <path d=" M 575.133, 427.293 575.211, 429.196 575.500, 439.192 575.621, 443.366 575.793, 453.365 575.865, 457.566 575.919, 467.565 575.942, 471.775 575.879, 481.775 575.853, 485.975 575.672, 495.973 575.597, 500.144 575.299, 510.140 575.176, 514.265 575.130, 515.348 575.028, 515.963 574.919, 516.534 574.803, 517.059 574.682, 517.535 574.556, 517.959 574.425, 518.328 574.291, 518.642 574.154, 518.897 574.015, 519.094 573.875, 519.230 573.734, 519.305 573.593, 519.318 573.454, 519.270 573.316, 519.160 569.420, 515.145 569.295, 513.788 569.139, 512.552 568.955, 511.460 568.746, 510.529 568.514, 509.775 568.264, 509.211 568.000, 508.848 567.727, 508.691 567.605, 508.689 565.061, 508.648 564.093, 508.633 563.276, 508.619 559.708, 508.562 557.925, 508.533 557.844, 508.532 557.344, 508.524 557.054, 508.577 556.765, 508.841 556.480, 509.310 556.204, 509.978 555.943, 510.833 555.935, 510.870 555.701, 511.863 555.481, 513.049 555.288, 514.371 555.125, 515.807 554.996, 517.333 554.901, 518.922 555.667, 519.657 556.534, 520.491 557.484, 520.507 557.602, 520.509 557.630, 520.510 559.385, 520.541 562.954, 520.604 563.781, 520.619 564.739, 520.636 565.131, 520.643 566.939, 520.674 566.969, 520.173 567.013, 519.700 567.069, 519.267 567.080, 519.204 567.136, 518.888 567.211, 518.571 567.294, 518.326 567.360, 518.199 567.380, 518.160 567.469, 518.077 " fill="none" stroke="rgb(0, 0, 0)" stroke-linecap="butt" stroke-linejoin="round" stroke-opacity="1.0" stroke-width="3.0" />
            <path d=" M 567.976, 521.710 574.589, 528.316 577.599, 530.576 " fill="none" stroke="rgb(0, 0, 0)" stroke-linecap="butt" stroke-linejoin="round" stroke-opacity="1.0" stroke-width="3.0" />
            <path d=" M 392.384, 187.504 390.587, 192.961 387.789, 202.561 386.773, 206.047 384.267, 215.728 383.079, 220.314 380.832, 230.058 379.526, 235.726 377.513, 245.522 376.132, 252.242 374.334, 262.079 372.921, 269.809 371.318, 279.679 369.909, 288.361 368.488, 298.259 367.116, 307.826 365.867, 317.747 364.618, 327.669 364.560, 328.124 363.473, 338.065 362.386, 348.006 362.259, 349.166 361.325, 359.122 360.392, 369.078 360.226, 370.851 359.440, 380.820 358.655, 390.789 358.475, 393.077 357.880, 403.059 357.286, 413.041 357.126, 415.725 356.693, 425.716 356.261, 435.706 356.133, 438.664 355.859, 448.660 355.586, 458.657 355.501, 461.773 355.387, 471.773 355.273, 481.772 355.236, 484.931 355.281, 494.931 355.326, 504.931 355.340, 508.016 355.545, 518.014 355.751, 528.012 355.810, 530.908 356.179, 540.901 356.548, 550.894 356.644, 553.488 357.181, 563.474 357.718, 573.459 357.836, 575.643 358.546, 585.617 359.257, 595.592 359.376, 597.262 360.268, 607.222 361.159, 617.183 361.254, 618.245 362.335, 628.186 363.417, 638.128 363.457, 638.495 364.739, 648.413 365.969, 657.924 367.466, 667.812 368.774, 676.454 368.783, 676.507 " fill="none" stroke="rgb(0, 0, 0)" stroke-linecap="butt" stroke-linejoin="round" stroke-opacity="1.0" stroke-width="3.0" />
            <path d=" M 491.776, 730.930 489.741, 737.223 486.509, 746.304 483.149, 754.849 479.662, 762.824 476.054, 770.196 472.330, 776.928 468.494, 782.984 464.552, 788.327 460.513, 792.922 456.468, 796.651 " fill="none" stroke="rgb(0, 0, 0)" stroke-linecap="butt" stroke-linejoin="round" stroke-opacity="1.0" stroke-width="3.0" />
            <path d=" M 395.015, 388.126 394.664, 393.128 394.106, 403.112 393.549, 413.096 393.402, 415.720 393.008, 425.712 392.613, 435.705 392.499, 438.602 392.265, 448.600 392.031, 458.597 391.960, 461.655 391.885, 471.655 391.810, 481.654 391.787, 484.758 391.871, 494.758 391.956, 504.757 391.981, 507.790 392.225, 517.787 392.469, 527.784 392.538, 530.631 392.943, 540.623 393.347, 550.615 393.451, 553.165 394.019, 563.149 394.588, 573.133 394.711, 575.278 395.448, 585.250 396.185, 595.223 396.306, 596.860 397.217, 606.818 398.128, 616.777 398.223, 617.811 399.315, 627.751 400.407, 637.691 400.444, 638.034 401.727, 647.952 402.954, 657.442 404.438, 667.331 405.732, 675.955 407.432, 685.810 408.758, 693.506 410.690, 703.318 412.011, 710.032 414.196, 719.790 415.470, 725.480 417.933, 735.172 419.112, 739.810 421.884, 749.418 422.914, 752.990 426.034, 762.491 426.856, 764.993 430.371, 774.355 430.915, 775.805 434.883, 784.984 435.071, 785.418 439.303, 793.833 443.592, 801.054 444.781, 802.715 445.092, 803.149 447.919, 807.094 452.266, 811.973 456.618, 815.713 460.959, 818.338 465.273, 819.881 469.549, 820.377 473.774, 819.859 477.938, 818.364 482.030, 815.933 486.041, 812.606 489.963, 808.421 490.643, 807.533 493.790, 803.419 497.514, 797.643 501.131, 791.132 504.271, 784.673 " fill="none" stroke="rgb(0, 0, 0)" stroke-linecap="butt" stroke-linejoin="round" stroke-opacity="1.0" stroke-width="3.0" />
            <path d=" M 469.256, 802.269 465.223, 801.594 465.188, 801.579 461.169, 799.927 457.105, 797.238 456.468, 796.651 453.047, 793.500 449.007, 788.692 445.003, 782.795 441.050, 775.794 437.165, 767.679 433.367, 758.448 430.003, 749.031 429.673, 748.105 426.695, 738.559 426.102, 736.657 423.463, 727.011 422.673, 724.121 420.336, 714.398 419.405, 710.522 417.339, 700.738 416.316, 695.894 414.498, 686.061 413.427, 680.275 411.834, 670.402 410.755, 663.714 409.370, 653.810 408.316, 646.269 407.126, 636.340 406.128, 628.006 405.122, 618.057 404.206, 608.997 403.374, 599.032 402.563, 589.323 401.898, 579.346 401.232, 569.368 401.212, 569.073 400.707, 559.086 400.202, 549.099 400.164, 548.340 399.815, 538.346 399.466, 528.352 399.427, 527.222 399.230, 517.224 399.033, 507.226 399.006, 505.824 398.960, 495.824 398.913, 485.824 398.906, 484.253 399.009, 474.254 399.112, 464.254 399.129, 462.618 399.382, 452.621 399.634, 442.625 399.675, 441.029 400.078, 431.037 400.480, 421.045 400.539, 419.596 400.870, 413.647 " fill="none" stroke="rgb(0, 0, 0)" stroke-linecap="butt" stroke-linejoin="round" stroke-opacity="1.0" stroke-width="3.0" />
            <path d=" M 501.011, 772.936 499.471, 775.975 495.973, 782.006 492.380, 787.327 488.701, 791.901 484.940, 795.690 481.106, 798.656 477.208, 800.765 473.254, 801.982 469.256, 802.269 " fill="none" stroke="rgb(0, 0, 0)" stroke-linecap="butt" stroke-linejoin="round" stroke-opacity="1.0" stroke-width="3.0" />
            <path d=" M 546.099, 528.638 545.566, 538.624 545.357, 542.552 544.722, 552.532 544.479, 556.363 543.741, 566.336 543.466, 570.053 542.621, 580.017 542.317, 583.600 541.363, 593.555 541.034, 596.984 539.967, 606.927 539.617, 610.184 538.432, 620.113 538.066, 623.178 536.758, 633.092 536.382, 635.943 534.945, 645.839 534.757, 647.134 534.565, 648.455 532.992, 658.331 532.616, 660.692 530.900, 670.544 530.536, 672.628 528.666, 682.452 528.327, 684.236 526.292, 694.027 525.988, 695.491 524.389, 702.541 " fill="none" stroke="rgb(0, 0, 0)" stroke-linecap="butt" stroke-linejoin="round" stroke-opacity="1.0" stroke-width="3.0" />
            <path d=" M 548.597, 530.872 546.099, 528.638 555.355, 528.534 557.203, 528.513 562.692, 528.451 564.480, 528.431 564.796, 528.427 564.490, 528.133 563.582, 527.261 562.761, 526.472 559.305, 523.151 557.612, 521.526 557.629, 521.013 557.630, 520.510 " fill="none" stroke="rgb(0, 0, 0)" stroke-linecap="butt" stroke-linejoin="round" stroke-opacity="1.0" stroke-width="3.0" />
            <path d=" M 382.778, 390.802 382.207, 400.785 381.636, 410.769 381.433, 414.318 381.022, 424.309 380.611, 434.301 380.454, 438.139 380.201, 448.136 379.948, 458.133 379.846, 462.140 379.750, 472.139 379.654, 482.139 379.615, 486.191 379.676, 496.191 379.737, 506.190 379.762, 510.164 379.980, 520.162 380.199, 530.160 380.282, 533.933 380.660, 543.926 381.039, 553.919 381.170, 557.373 381.713, 567.359 382.256, 577.344 382.421, 580.363 383.132, 590.338 383.844, 600.313 384.021, 602.789 384.908, 612.750 385.796, 622.710 385.959, 624.544 387.029, 634.486 388.100, 644.429 388.218, 645.526 389.483, 655.445 390.748, 665.365 390.783, 665.643 392.254, 675.534 393.634, 684.814 395.325, 694.670 396.749, 702.966 398.681, 712.778 400.110, 720.037 402.303, 729.794 403.693, 735.973 406.175, 745.660 407.475, 750.732 410.280, 760.330 411.434, 764.283 414.602, 773.768 415.548, 776.600 419.129, 785.936 419.793, 787.669 423.848, 796.810 424.147, 797.486 428.590, 806.052 433.100, 813.375 437.658, 819.470 442.244, 824.360 446.842, 828.069 451.435, 830.626 456.006, 832.066 460.543, 832.425 465.031, 831.742 469.459, 830.054 473.816, 827.407 478.091, 823.842 482.277, 819.399 486.364, 814.122 " fill="none" stroke="rgb(0, 0, 0)" stroke-linecap="butt" stroke-linejoin="round" stroke-opacity="1.0" stroke-width="3.0" />
            <path d=" M 486.364, 814.122 492.064, 805.906 493.790, 803.419 " fill="none" stroke="rgb(0, 0, 0)" stroke-linecap="butt" stroke-linejoin="round" stroke-opacity="1.0" stroke-width="3.0" />
            <path d=" M 538.776, 553.550 529.991, 554.023 " fill="none" stroke="rgb(0, 0, 0)" stroke-linecap="butt" stroke-linejoin="round" stroke-opacity="1.0" stroke-width="3.0" />
            <path d=" M 541.058, 508.779 540.726, 518.774 540.397, 528.703 539.812, 538.686 539.581, 542.626 538.846, 552.599 538.776, 553.550 534.917, 544.325 532.975, 539.680 " fill="none" stroke="rgb(0, 0, 0)" stroke-linecap="butt" stroke-linejoin="round" stroke-opacity="1.0" stroke-width="3.0" />
            <path d=" M 366.774, 366.359 366.532, 369.069 365.789, 379.042 365.741, 379.683 364.999, 389.655 364.915, 390.782 364.315, 400.764 363.716, 410.746 363.590, 412.843 363.132, 422.833 362.674, 432.822 362.567, 435.167 362.248, 445.162 361.928, 455.157 361.848, 457.666 361.790, 460.877 " fill="none" stroke="rgb(0, 0, 0)" stroke-linecap="butt" stroke-linejoin="round" stroke-opacity="1.0" stroke-width="3.0" />
            <path d=" M 532.193, 745.146 532.605, 743.308 534.646, 733.518 534.911, 732.247 536.816, 722.430 537.110, 720.917 538.887, 711.076 539.201, 709.337 540.857, 699.475 541.185, 697.524 542.726, 687.643 543.061, 685.494 544.492, 675.597 544.829, 673.264 546.155, 663.352 546.489, 660.849 547.714, 650.924 548.042, 648.263 549.169, 638.327 549.487, 635.521 550.519, 625.574 550.824, 622.636 551.764, 612.681 552.053, 609.623 552.904, 599.659 553.175, 596.493 553.939, 586.522 554.189, 583.259 554.867, 573.282 555.095, 569.933 555.690, 559.951 555.894, 556.528 556.406, 546.541 556.585, 543.055 557.016, 533.064 557.114, 530.785 " fill="none" stroke="rgb(0, 0, 0)" stroke-linecap="butt" stroke-linejoin="round" stroke-opacity="1.0" stroke-width="3.0" />
            <path d=" M 459.519, 873.024 461.936, 873.178 466.047, 873.296 470.115, 872.600 474.136, 871.120 478.100, 868.885 482.002, 865.925 485.835, 862.270 489.595, 857.950 493.277, 852.995 496.876, 847.434 500.389, 841.296 503.811, 834.610 507.141, 827.404 510.376, 819.703 513.303, 812.081 " fill="none" stroke="rgb(0, 0, 0)" stroke-linecap="butt" stroke-linejoin="round" stroke-opacity="1.0" stroke-width="3.0" />
            <path d=" M 516.617, 140.688 513.684, 133.543 510.410, 126.361 507.029, 119.730 503.542, 113.681 499.952, 108.244 496.264, 103.450 492.481, 99.331 488.609, 95.920 484.652, 93.248 480.618, 91.347 476.512, 90.248 472.341, 89.983 471.131, 90.155 468.115, 90.582 463.843, 92.072 459.532, 94.481 455.195, 97.835 450.843, 102.155 446.487, 107.463 442.140, 113.776 437.815, 121.107 434.037, 128.474 433.528, 129.466 429.417, 138.582 429.292, 138.860 428.183, 141.632 425.123, 149.287 421.764, 158.706 421.036, 160.745 417.993, 170.271 417.049, 173.224 414.289, 182.836 413.177, 186.709 410.674, 196.391 409.437, 201.177 407.169, 210.917 405.846, 216.602 403.795, 226.389 402.420, 232.949 400.569, 242.777 399.175, 250.179 397.512, 260.039 396.128, 268.244 394.641, 278.132 393.293, 287.091 391.972, 297.003 390.685, 306.662 389.523, 316.594 388.361, 326.526 388.318, 326.891 387.308, 336.840 386.297, 346.789 386.204, 347.708 385.340, 357.671 384.476, 367.633 384.354, 369.038 383.632, 379.012 382.910, 388.986 382.778, 390.802 382.194, 400.785 381.610, 410.767 381.485, 412.915 381.036, 422.905 380.588, 432.895 380.480, 435.292 380.166, 445.287 379.851, 455.282 379.770, 457.843 379.588, 467.842 379.406, 477.840 379.358, 480.480 379.308, 490.480 379.258, 500.479 379.245, 503.110 379.327, 513.110 379.410, 523.110 379.431, 525.645 379.647, 535.643 379.863, 545.640 379.913, 547.993 380.265, 557.987 380.616, 567.981 380.689, 570.069 381.179, 580.057 381.668, 590.045 381.753, 591.786 382.384, 601.767 383.014, 611.747 383.098, 613.064 383.874, 623.034 384.650, 633.004 384.714, 633.825 385.641, 643.782 386.569, 653.739 386.593, 653.997 387.678, 663.938 388.722, 673.511 389.973, 683.432 391.091, 692.306 392.516, 702.204 393.685, 710.325 395.295, 720.194 396.490, 727.518 398.298, 737.353 399.492, 743.841 401.514, 753.635 402.675, 759.257 404.929, 769.000 406.025, 773.734 408.532, 783.415 409.524, 787.247 412.310, 796.851 413.159, 799.777 416.253, 809.286 416.912, 811.309 420.352, 820.699 420.769, 821.836 424.597, 831.074 424.714, 831.355 428.732, 839.867 432.810, 847.378 436.933, 853.898 441.089, 859.441 445.264, 864.024 449.448, 867.666 453.628, 870.390 457.794, 872.218 461.523, 873.082 461.936, 873.178 " fill="none" stroke="rgb(0, 0, 0)" stroke-linecap="butt" stroke-linejoin="round" stroke-opacity="1.0" stroke-width="3.0" />
            <path d=" M 469.885, 90.076 465.632, 90.676 461.332, 92.166 456.994, 94.576 452.630, 97.929 448.250, 102.250 443.867, 107.557 439.493, 113.868 435.143, 121.198 431.284, 128.673 430.829, 129.555 426.697, 138.661 426.568, 138.946 422.835, 148.223 422.373, 149.371 422.217, 149.805 418.840, 159.218 418.263, 160.825 415.202, 170.346 414.252, 173.301 411.476, 182.908 410.357, 186.781 407.840, 196.459 406.596, 201.244 404.315, 210.981 402.984, 216.664 400.921, 226.449 399.539, 233.005 397.677, 242.831 396.276, 250.229 394.603, 260.088 393.212, 268.287 391.716, 278.175 390.362, 287.128 389.034, 297.039 387.741, 306.691 386.572, 316.622 385.403, 326.554 385.361, 326.912 384.346, 336.861 383.330, 346.809 383.237, 347.722 382.368, 357.684 381.500, 367.646 381.378, 369.043 380.652, 379.017 379.927, 388.991 379.795, 390.798 379.209, 400.781 378.622, 410.764 378.497, 412.903 378.047, 422.893 377.597, 432.883 377.489, 435.271 377.174, 445.266 376.858, 455.261 376.778, 457.814 376.596, 467.812 376.414, 477.810 376.366, 480.441 376.317, 490.441 376.268, 500.441 376.255, 503.063 376.339, 513.063 376.424, 523.062 376.445, 525.589 376.664, 535.586 376.882, 545.584 376.934, 547.929 377.289, 557.923 377.644, 567.916 377.717, 569.996 378.211, 579.984 378.705, 589.972 378.791, 591.705 379.427, 601.685 380.063, 611.665 380.146, 612.975 380.929, 622.945 381.712, 632.914 381.776, 633.729 382.710, 643.685 383.645, 653.641 383.669, 653.893 384.762, 663.833 385.814, 673.400 387.074, 683.321 388.200, 692.189 389.636, 702.085 390.813, 710.202 392.435, 720.069 393.638, 727.389 395.459, 737.222 396.661, 743.708 398.697, 753.498 399.866, 759.119 402.136, 768.858 403.239, 773.592 405.763, 783.268 406.763, 787.101 409.566, 796.700 410.422, 799.628 412.283, 805.309 413.084, 807.751 414.200, 811.158 417.661, 820.540 418.083, 821.682 421.934, 830.911 422.054, 831.199 426.099, 839.710 430.204, 847.220 434.354, 853.740 438.537, 859.283 442.740, 863.866 446.950, 867.509 451.157, 870.233 455.350, 872.063 459.519, 873.024 " fill="none" stroke="rgb(0, 0, 0)" stroke-linecap="butt" stroke-linejoin="round" stroke-opacity="1.0" stroke-width="3.0" />
            <path d=" M 472.341, 89.983 469.885, 90.076 " fill="none" stroke="rgb(0, 0, 0)" stroke-linecap="butt" stroke-linejoin="round" stroke-opacity="1.0" stroke-width="3.0" />
            <path d=" M 538.164, 766.532 538.628, 764.387 540.607, 754.585 541.035, 752.464 542.511, 744.615 543.328, 740.274 545.054, 730.424 545.508, 727.837 547.117, 717.967 547.574, 715.169 549.073, 705.282 549.527, 702.288 550.920, 692.386 551.367, 689.210 552.658, 679.294 553.094, 675.951 554.288, 666.022 554.708, 662.525 555.808, 652.586 556.210, 648.947 557.218, 638.998 557.600, 635.230 558.520, 625.273 558.878, 621.388 559.711, 611.423 560.044, 607.433 560.793, 597.461 561.099, 593.377 561.765, 583.399 562.043, 579.233 562.627, 569.250 562.875, 565.012 563.378, 555.025 563.595, 550.725 564.020, 540.734 564.205, 536.384 564.401, 530.711 " fill="none" stroke="rgb(0, 0, 0)" stroke-linecap="butt" stroke-linejoin="round" stroke-opacity="1.0" stroke-width="3.0" />
            <path d=" M 461.434, 909.804 463.817, 909.966 468.229, 909.640 472.589, 908.443 476.889, 906.411 481.122, 903.577 485.282, 899.977 489.362, 895.646 493.357, 890.617 497.263, 884.924 501.075, 878.601 504.791, 871.679 508.406, 864.191 511.918, 856.168 515.326, 847.637 518.626, 838.630 521.104, 831.287 " fill="none" stroke="rgb(0, 0, 0)" stroke-linecap="butt" stroke-linejoin="round" stroke-opacity="1.0" stroke-width="3.0" />
            <path d=" M 541.095, 188.899 539.714, 182.459 537.451, 172.719 537.140, 171.380 536.753, 169.848 534.438, 160.668 531.796, 151.024 531.611, 150.349 528.752, 140.766 528.657, 140.449 525.579, 130.997 522.375, 122.023 519.049, 113.557 515.600, 105.631 512.032, 98.277 508.346, 91.529 504.545, 85.421 500.634, 79.989 496.615, 75.269 492.494, 71.298 488.275, 68.111 483.965, 65.746 479.571, 64.239 475.100, 63.628 473.015, 63.774 470.560, 63.946 465.961, 65.229 461.313, 67.510 456.627, 70.820 451.915, 75.187 447.190, 80.637 442.466, 87.194 437.758, 94.876 433.081, 103.698 431.405, 107.309 428.452, 113.669 426.757, 117.803 423.888, 124.795 420.460, 134.189 420.405, 134.341 419.407, 137.074 416.305, 146.581 415.027, 150.499 412.218, 160.096 410.767, 165.055 408.223, 174.726 406.646, 180.721 406.344, 181.995 404.041, 191.726 402.682, 197.470 400.601, 207.251 398.896, 215.264 397.020, 225.087 395.306, 234.061 393.621, 243.918 391.930, 253.808 390.425, 263.694 388.919, 273.580 388.787, 274.447 387.451, 284.358 386.114, 294.268 385.893, 295.912 384.717, 305.842 383.542, 315.773 383.263, 318.128 382.242, 328.076 381.221, 338.024 380.914, 341.016 380.041, 350.978 379.169, 360.940 378.858, 364.490 378.129, 374.464 377.400, 384.437 377.106, 388.458 376.517, 398.441 375.928, 408.423 375.668, 412.824 375.217, 422.814 374.765, 432.804 374.554, 437.489 374.237, 447.484 373.921, 457.479 373.767, 462.349 373.585, 472.347 373.404, 482.345 373.313, 487.300 373.265, 497.300 373.217, 507.300 373.194, 512.238 373.280, 522.238 373.366, 532.237 373.408, 537.057 373.630, 547.055 373.852, 557.052 373.954, 561.655 374.313, 571.649 374.672, 581.642 374.826, 585.930 375.326, 595.918 375.825, 605.905 376.019, 609.785 376.663, 619.765 377.306, 629.744 377.524, 633.127 378.316, 643.095 379.108, 653.064 379.331, 655.866 380.277, 665.822 381.223, 675.777 381.427, 677.922 382.535, 687.860 383.642, 697.799 383.800, 699.216 385.077, 709.134 386.354, 719.052 386.435, 719.681 387.892, 729.574 389.317, 739.253 390.965, 749.116 391.780, 753.996 392.429, 757.878 394.282, 767.705 395.753, 775.509 396.782, 780.361 398.857, 790.143 399.273, 792.106 401.589, 801.834 402.970, 807.636 404.650, 813.924 406.826, 822.074 409.699, 831.653 410.189, 833.287 410.824, 835.403 414.022, 844.878 414.945, 847.610 418.508, 856.954 419.171, 858.692 423.148, 867.867 423.487, 868.647 427.874, 877.483 432.318, 885.210 436.802, 891.844 441.313, 897.403 445.837, 901.911 450.361, 905.392 454.873, 907.875 459.362, 909.389 462.155, 909.751 463.817, 909.966 " fill="none" stroke="rgb(0, 0, 0)" stroke-linecap="butt" stroke-linejoin="round" stroke-opacity="1.0" stroke-width="3.0" />
            <path d=" M 367.156, 361.779 366.911, 364.518 366.774, 366.359 366.031, 376.331 365.788, 379.596 365.129, 388.449 365.013, 390.375 364.414, 400.358 363.815, 410.340 363.669, 412.776 363.211, 422.766 362.837, 430.911 362.540, 437.402 362.220, 447.397 361.901, 457.392 361.790, 460.877 361.747, 462.223 361.566, 472.221 361.384, 482.219 361.295, 487.135 361.251, 497.135 361.207, 507.135 361.186, 512.034 361.200, 513.538 " fill="none" stroke="rgb(0, 0, 0)" stroke-linecap="butt" stroke-linejoin="round" stroke-opacity="1.0" stroke-width="3.0" />
            <path d=" M 472.674, 63.728 468.105, 64.047 463.477, 65.331 458.800, 67.613 454.085, 70.922 449.344, 75.289 444.590, 80.739 439.837, 87.295 435.100, 94.975 430.395, 103.795 426.163, 112.855 425.738, 113.764 423.883, 118.260 421.147, 124.887 417.700, 134.274 416.640, 137.162 416.545, 137.452 416.140, 138.684 413.021, 148.185 412.234, 150.583 409.409, 160.176 407.949, 165.135 405.390, 174.802 403.804, 180.796 401.488, 190.524 399.818, 197.539 397.825, 206.852 396.011, 215.327 394.124, 225.148 392.401, 234.117 390.706, 243.973 389.007, 253.857 387.493, 263.742 385.979, 273.627 385.846, 274.489 384.503, 284.398 383.159, 294.307 382.937, 295.945 381.755, 305.875 380.574, 315.805 380.294, 318.153 379.268, 328.100 378.242, 338.047 377.934, 341.032 377.056, 350.994 376.179, 360.955 375.867, 364.497 375.135, 374.470 374.403, 384.443 374.108, 388.456 373.516, 398.438 372.925, 408.421 372.665, 412.812 372.212, 422.802 371.759, 432.792 371.546, 437.467 371.230, 447.462 370.913, 457.457 370.759, 462.317 370.577, 472.315 370.395, 482.314 370.305, 487.259 370.258, 497.259 370.211, 507.259 370.188, 512.187 370.276, 522.186 370.365, 532.186 370.407, 536.997 370.632, 546.994 370.856, 556.992 370.960, 561.585 371.322, 571.578 371.685, 581.572 371.841, 585.851 372.345, 595.838 372.849, 605.825 373.044, 609.697 373.693, 619.676 374.342, 629.655 374.562, 633.030 375.360, 642.998 376.158, 652.966 376.382, 655.761 377.336, 665.715 378.290, 675.670 378.495, 677.808 379.611, 687.746 380.727, 697.683 380.885, 699.095 382.172, 709.012 383.459, 718.929 383.540, 719.553 384.438, 725.611 385.906, 735.503 386.442, 739.119 388.102, 748.980 389.575, 757.738 391.429, 767.499 392.923, 775.364 393.624, 778.646 395.713, 788.425 396.467, 791.955 398.799, 801.680 400.189, 807.481 401.704, 813.113 404.072, 821.916 406.963, 831.489 408.096, 835.242 411.314, 844.710 412.244, 847.447 415.829, 856.782 416.499, 858.526 420.499, 867.691 420.843, 868.480 425.259, 877.315 429.732, 885.041 434.245, 891.675 438.786, 897.234 443.339, 901.742 447.892, 905.224 452.433, 907.708 456.950, 909.224 461.434, 909.804 " fill="none" stroke="rgb(0, 0, 0)" stroke-linecap="butt" stroke-linejoin="round" stroke-opacity="1.0" stroke-width="3.0" />
            <path d=" M 475.100, 63.628 472.674, 63.728 " fill="none" stroke="rgb(0, 0, 0)" stroke-linecap="butt" stroke-linejoin="round" stroke-opacity="1.0" stroke-width="3.0" />
            <path d=" M 548.858, 210.827 548.796, 210.453 547.023, 200.611 546.543, 197.949 544.627, 188.135 544.160, 185.741 542.091, 175.957 541.646, 173.850 539.413, 164.102 539.000, 162.302 536.589, 152.597 536.223, 151.122 533.619, 141.467 533.314, 140.336 530.498, 130.741 530.272, 129.974 527.223, 120.450 527.100, 120.065 523.796, 110.638 520.362, 101.727 516.800, 93.364 513.110, 85.583 509.296, 78.421 505.359, 71.913 501.304, 66.098 497.133, 61.013 492.852, 56.698 488.465, 53.193 483.979, 50.536 479.400, 48.768 474.737, 47.929 469.996, 48.057 465.112, 48.268 460.244, 49.403 455.320, 51.579 450.350, 54.830 445.348, 59.190 440.328, 64.687 435.303, 71.348 430.291, 79.195 425.467, 87.955 425.307, 88.246 420.973, 97.258 420.369, 98.513 416.465, 107.720 415.496, 110.004 411.972, 119.362 410.708, 122.719 407.521, 132.198 406.023, 136.653 403.139, 146.228 401.463, 151.792 398.853, 161.446 397.049, 168.117 394.687, 177.834 392.801, 185.597 392.384, 187.504 390.251, 197.274 388.740, 204.196 386.818, 214.010 384.888, 223.869 383.163, 233.719 381.438, 243.569 381.264, 244.562 379.723, 254.442 378.183, 264.323 377.888, 266.211 376.522, 276.118 375.155, 286.024 374.779, 288.748 373.579, 298.675 372.378, 308.603 371.955, 312.093 370.913, 322.038 369.870, 331.984 369.432, 336.160 368.980, 341.222 368.090, 351.182 367.225, 360.857 367.156, 361.779 367.019, 363.619 366.276, 373.591 365.836, 379.509 365.346, 386.085 365.113, 389.964 364.514, 399.946 363.915, 409.928 363.806, 411.741 363.348, 421.730 362.890, 431.720 362.615, 437.716 362.296, 447.711 362.262, 448.781 361.943, 458.776 361.779, 463.900 361.598, 473.899 361.425, 483.457 361.303, 490.180 361.259, 500.180 361.215, 510.180 361.200, 513.538 361.199, 513.790 361.187, 516.442 361.281, 526.442 361.375, 536.441 361.433, 542.573 361.666, 552.570 361.899, 562.567 362.036, 568.460 362.411, 578.453 362.785, 588.446 362.993, 593.996 363.511, 603.983 364.030, 613.969 364.294, 619.075 364.961, 629.053 365.627, 639.030 365.932, 643.596 366.752, 653.562 367.571, 663.529 367.894, 667.464 368.783, 676.507 369.762, 686.459 370.168, 690.592 371.312, 700.526 372.457, 710.461 372.738, 712.898 374.057, 722.810 375.377, 732.723 375.588, 734.308 377.093, 744.194 378.598, 754.080 378.701, 754.757 380.403, 764.611 382.058, 774.187 383.973, 784.002 385.641, 792.550 387.786, 802.317 389.430, 809.804 391.825, 819.513 393.405, 825.916 396.075, 835.553 397.547, 840.863 400.521, 850.411 401.835, 854.627 405.149, 864.062 406.250, 867.198 409.946, 876.490 410.774, 878.573 414.901, 887.682 415.387, 888.756 420.005, 897.625 420.072, 897.754 424.811, 905.582 429.588, 912.258 434.388, 917.805 439.196, 922.250 443.999, 925.621 448.783, 927.949 453.537, 929.268 458.251, 929.614 462.988, 929.950 467.593, 929.353 472.139, 927.856 476.618, 925.495 481.023, 922.308 485.347, 918.333 489.584, 913.607 493.729, 908.166 497.779, 902.047 501.728, 895.286 505.573, 887.916 509.311, 879.970 512.941, 871.482 516.459, 862.481 519.864, 852.999 523.008, 843.506 523.155, 843.063 524.465, 838.788 " fill="none" stroke="rgb(0, 0, 0)" stroke-linecap="butt" stroke-linejoin="round" stroke-opacity="1.0" stroke-width="3.0" />
            <path d=" M 540.669, 774.301 542.623, 764.494 542.923, 762.990 544.750, 753.158 545.277, 750.323 546.984, 740.470 547.513, 737.411 549.106, 727.539 549.633, 724.272 551.116, 714.382 551.635, 710.921 553.014, 701.017 553.521, 697.377 554.800, 687.459 555.291, 683.653 556.474, 673.723 556.945, 669.766 558.035, 659.825 558.484, 655.728 559.483, 645.778 559.907, 641.555 560.819, 631.597 561.216, 627.258 562.043, 617.293 562.411, 612.851 563.154, 602.879 563.491, 598.345 564.152, 588.367 564.457, 583.753 565.038, 573.770 565.310, 569.085 565.811, 559.098 566.049, 554.353 566.471, 544.362 566.674, 539.568 566.980, 530.685 " fill="none" stroke="rgb(0, 0, 0)" stroke-linecap="butt" stroke-linejoin="round" stroke-opacity="1.0" stroke-width="3.0" />
            <path d=" M 469.996, 48.057 465.189, 49.190 460.325, 51.364 455.417, 54.615 450.476, 58.975 445.516, 64.473 440.552, 71.136 435.599, 78.986 430.821, 87.771 430.674, 88.040 427.553, 94.612 425.795, 98.313 421.931, 107.536 420.979, 109.809 417.492, 119.182 416.246, 122.532 413.149, 131.855 411.615, 136.474 408.763, 146.058 407.107, 151.623 406.914, 152.344 404.844, 160.093 402.742, 167.957 400.407, 177.681 398.542, 185.449 396.432, 195.224 394.526, 204.061 394.047, 206.532 392.147, 216.350 390.715, 223.748 389.009, 233.602 387.303, 243.455 387.130, 244.456 385.606, 254.339 384.661, 260.470 383.790, 266.122 382.438, 276.030 381.086, 285.938 380.713, 288.675 379.525, 298.604 378.337, 308.533 377.917, 312.038 376.885, 321.984 375.853, 331.931 375.418, 336.124 374.537, 346.085 373.656, 356.046 373.231, 360.840 372.495, 370.813 371.760, 380.786 371.368, 386.088 370.775, 396.070 370.181, 406.053 369.841, 411.764 369.386, 421.754 368.932, 431.743 368.658, 437.760 368.340, 447.755 368.022, 457.750 367.825, 463.965 367.643, 473.963 367.462, 483.962 367.347, 490.266 367.301, 500.266 367.255, 510.266 367.226, 516.548 367.317, 526.548 367.407, 536.548 367.462, 542.700 367.690, 552.697 367.917, 562.694 368.052, 568.607 368.418, 578.601 368.785, 588.594 368.990, 594.163 369.499, 604.150 370.008, 614.137 370.269, 619.260 370.924, 629.239 371.580, 639.217 371.880, 643.800 372.687, 653.767 373.493, 663.734 373.813, 667.685 373.940, 669.007 374.657, 676.415 375.621, 686.368 376.052, 690.830 377.180, 700.766 378.307, 710.702 378.585, 713.151 379.885, 723.066 381.186, 732.981 381.395, 734.576 381.897, 737.922 382.954, 744.971 384.438, 754.860 384.464, 755.038 386.143, 764.896 387.776, 774.480 389.665, 784.300 391.310, 792.854 392.590, 798.765 394.706, 808.538 395.048, 810.118 397.412, 819.834 398.970, 826.239 401.607, 835.885 403.057, 841.193 405.995, 850.752 407.281, 854.935 407.290, 854.964 410.564, 864.412 411.647, 867.540 415.300, 876.849 416.112, 878.919 420.194, 888.048 420.666, 889.104 425.236, 897.998 425.290, 898.104 429.969, 905.933 434.686, 912.609 439.425, 918.156 444.172, 922.599 448.914, 925.967 453.638, 928.293 458.333, 929.609 462.988, 929.950 " fill="none" stroke="rgb(0, 0, 0)" stroke-linecap="butt" stroke-linejoin="round" stroke-opacity="1.0" stroke-width="3.0" />
            <path d=" M 565.366, 519.105 565.428, 518.041 565.459, 517.514 565.585, 515.986 565.743, 514.548 565.930, 513.223 566.142, 512.036 566.377, 511.005 566.629, 510.148 566.895, 509.479 567.169, 509.009 567.448, 508.745 567.605, 508.715 567.727, 508.691 " fill="none" stroke="rgb(0, 0, 0)" stroke-linecap="butt" stroke-linejoin="round" stroke-opacity="1.0" stroke-width="3.0" />
            <path d=" M 554.901, 518.922 555.692, 518.936 557.527, 518.968 557.538, 518.968 562.995, 519.063 563.691, 519.076 564.781, 519.095 565.198, 519.102 565.366, 519.105 565.437, 519.175 566.939, 520.674 " fill="none" stroke="rgb(0, 0, 0)" stroke-linecap="butt" stroke-linejoin="round" stroke-opacity="1.0" stroke-width="3.0" />
            <path d=" M 557.612, 521.526 562.926, 521.620 564.712, 521.652 565.088, 521.659 567.266, 521.698 567.976, 521.710 567.992, 521.197 567.994, 520.683 567.981, 520.183 567.954, 519.711 567.914, 519.279 567.905, 519.219 567.861, 518.899 567.797, 518.581 567.724, 518.334 567.643, 518.165 567.557, 518.078 567.469, 518.077 " fill="none" stroke="rgb(0, 0, 0)" stroke-linecap="butt" stroke-linejoin="round" stroke-opacity="1.0" stroke-width="3.0" />
            <path d=" M 622.429, 923.043 624.601, 923.573 632.445, 925.192 640.298, 926.063 648.143, 926.204 655.961, 925.633 663.737, 924.369 671.456, 922.432 679.104, 919.842 686.667, 916.621 694.132, 912.791 701.489, 908.373 708.725, 903.390 715.831, 897.865 722.797, 891.818 729.615, 885.273 736.277, 878.252 742.775, 870.775 749.022, 862.966 749.102, 862.866 755.046, 854.824 755.253, 854.544 760.904, 846.293 761.221, 845.830 766.589, 837.394 767.001, 836.746 772.096, 828.142 772.588, 827.311 777.421, 818.556 777.979, 817.544 782.557, 808.654 783.169, 807.465 787.501, 798.452 788.154, 797.093 792.248, 787.969 792.931, 786.445 796.794, 777.221 797.498, 775.540 801.136, 766.225 801.851, 764.395 805.271, 754.998 805.988, 753.026 809.195, 743.554 809.907, 741.452 812.906, 731.912 813.605, 729.687 816.401, 720.085 817.081, 717.747 819.677, 708.090 820.333, 705.650 822.733, 695.942 823.359, 693.408 825.566, 683.655 826.158, 681.038 828.175, 671.244 828.728, 668.554 830.557, 658.723 831.068, 655.971 832.710, 646.107 833.177, 643.303 834.634, 633.410 835.053, 630.564 836.326, 620.645 836.696, 617.768 837.786, 607.828 838.103, 604.929 839.010, 594.970 839.275, 592.060 839.999, 582.086 840.210, 579.176 840.750, 569.190 840.907, 566.290 841.263, 556.296 841.365, 553.415 841.535, 543.417 841.583, 540.567 841.565, 530.567 841.560, 527.758 841.353, 517.760 841.296, 515.002 840.897, 505.010 840.789, 502.314 840.195, 492.332 840.039, 489.709 839.246, 479.740 839.044, 477.199 838.049, 467.249 837.804, 464.801 836.603, 454.874 836.319, 452.530 834.906, 442.630 834.587, 440.400 832.957, 430.533 832.609, 428.427 830.755, 418.600 830.383, 416.628 828.300, 406.847 827.910, 405.018 825.589, 395.291 825.190, 393.615 822.623, 383.950 822.221, 382.436 819.401, 372.842 819.005, 371.497 815.921, 361.985 815.542, 360.819 812.183, 351.400 811.833, 350.418 808.188, 341.105 807.878, 340.313 803.935, 331.123 803.679, 330.525 799.425, 321.475 799.236, 321.073 794.659, 312.183 794.553, 311.978 789.631, 303.260 784.473, 294.940 779.081, 287.040 773.461, 279.582 767.615, 272.589 761.549, 266.082 755.269, 260.085 748.780, 254.620 742.089, 249.711 735.205, 245.380 728.135, 241.650 720.889, 238.544 713.478, 236.084 705.912, 234.291 698.204, 233.188 690.368, 232.793 682.417, 233.126 680.205, 233.271 " fill="none" stroke="rgb(0, 0, 0)" stroke-linecap="butt" stroke-linejoin="round" stroke-opacity="1.0" stroke-width="3.0" />
            <path d=" M 624.601, 923.573 623.764, 923.318 616.784, 921.192 609.014, 918.035 601.312, 914.088 593.698, 909.344 586.195, 903.794 578.824, 897.432 571.734, 890.380 571.609, 890.256 565.000, 882.752 564.573, 882.267 558.439, 874.369 557.740, 873.469 552.071, 865.230 551.133, 863.867 549.740, 861.588 544.777, 853.472 540.766, 846.101 538.696, 842.297 534.336, 833.298 532.913, 830.361 529.348, 822.085 527.452, 817.685 526.263, 814.572 525.111, 811.559 522.335, 804.293 519.163, 794.893 518.073, 791.664 517.584, 790.215 514.744, 780.627 513.221, 775.484 511.225, 767.742 509.948, 762.788 509.265, 760.137 507.100, 750.374 505.734, 744.213 503.890, 734.385 502.647, 727.758 501.113, 717.876 500.018, 710.818 499.245, 704.596 498.013, 694.672 497.861, 693.445 496.922, 683.489 496.187, 675.691 495.536, 665.713 495.007, 657.615 494.637, 647.622 494.328, 639.273 494.234, 629.273 494.154, 620.727 494.333, 610.728 494.489, 602.037 494.938, 592.048 495.333, 583.269 496.050, 573.294 496.163, 571.719 496.683, 564.484 497.667, 554.533 498.536, 545.747 499.787, 535.826 500.349, 531.366 500.884, 527.121 501.942, 520.235 501.997, 519.878 503.515, 509.994 503.718, 508.670 505.505, 498.831 507.027, 490.454 509.085, 480.668 510.796, 472.533 513.129, 462.809 515.011, 454.966 517.622, 445.313 519.653, 437.808 522.478, 428.468 522.513, 428.352 524.704, 421.112 527.889, 411.632 530.142, 404.927 531.361, 401.644 534.842, 392.269 535.922, 389.362 535.945, 389.300 539.731, 380.045 541.974, 374.559 542.090, 374.275 546.189, 365.154 548.553, 359.891 552.786, 351.302 554.431, 347.963 555.309, 346.182 559.281, 338.827 560.904, 335.823 562.331, 333.181 563.249, 331.630 568.345, 323.025 569.594, 320.915 569.683, 320.779 570.178, 320.017 575.627, 311.632 577.072, 309.408 582.886, 301.272 584.738, 298.681 590.927, 290.826 592.566, 288.748 596.821, 283.871 600.530, 279.622 607.499, 272.451 608.604, 271.313 615.973, 264.552 616.765, 263.825 624.533, 257.527 624.987, 257.159 633.151, 251.385 633.248, 251.316 641.524, 246.291 649.794, 242.078 658.038, 238.667 666.235, 236.047 674.367, 234.205 681.850, 233.202 682.417, 233.126 " fill="none" stroke="rgb(0, 0, 0)" stroke-linecap="butt" stroke-linejoin="round" stroke-opacity="1.0" stroke-width="3.0" />
            <path d=" M 680.205, 233.271 672.144, 234.350 664.001, 236.192 655.793, 238.810 647.539, 242.219 639.259, 246.429 630.973, 251.450 622.803, 257.217 622.703, 257.288 614.928, 263.578 614.471, 263.948 607.096, 270.701 606.302, 271.429 599.326, 278.594 598.218, 279.731 595.619, 282.703 590.246, 288.847 584.049, 296.695 582.411, 298.770 576.589, 306.901 574.738, 309.487 569.800, 317.070 569.295, 317.845 567.253, 320.981 562.979, 328.185 560.614, 332.172 559.984, 333.234 559.004, 335.044 554.245, 343.838 554.144, 344.024 552.956, 346.221 552.483, 347.178 548.056, 356.145 546.195, 359.915 542.090, 369.034 541.703, 369.894 539.727, 374.284 535.935, 383.537 533.577, 389.293 530.090, 398.665 527.770, 404.902 524.580, 414.379 522.329, 421.068 520.673, 426.533 519.949, 428.922 517.276, 437.745 514.660, 447.397 512.631, 454.884 511.251, 460.628 508.915, 470.351 508.415, 472.431 506.354, 482.216 504.644, 490.331 504.212, 492.707 502.423, 502.545 501.335, 508.526 499.865, 518.091 499.541, 520.193 498.501, 526.956 497.942, 531.391 496.690, 541.312 496.154, 545.561 495.169, 555.512 494.302, 564.276 493.585, 574.250 492.953, 583.040 492.505, 593.029 492.112, 601.787 491.934, 611.785 491.779, 620.455 491.875, 630.455 491.956, 638.981 492.329, 648.974 492.639, 657.302 492.893, 661.164 493.547, 671.143 493.823, 675.359 494.765, 685.315 495.501, 693.093 496.738, 703.017 497.664, 710.448 497.687, 710.596 499.225, 720.477 500.298, 727.370 502.148, 737.198 503.392, 743.809 505.562, 753.570 506.928, 759.716 508.708, 766.600 509.895, 771.195 510.891, 775.049 513.738, 784.635 515.262, 789.766 517.033, 795.002 518.101, 798.158 520.020, 803.831 523.597, 813.170 524.191, 814.722 524.590, 815.763 525.145, 817.211 525.358, 817.704 528.515, 825.015 530.614, 829.876 534.982, 838.872 536.406, 841.803 538.301, 845.279 542.496, 852.968 547.720, 861.495 548.860, 863.356 554.537, 871.589 555.476, 872.951 561.618, 880.843 562.319, 881.745 568.936, 889.243 569.365, 889.729 576.462, 896.774 576.590, 896.901 583.971, 903.261 591.484, 908.810 599.109, 913.554 606.822, 917.501 614.602, 920.660 622.429, 923.043 " fill="none" stroke="rgb(0, 0, 0)" stroke-linecap="butt" stroke-linejoin="round" stroke-opacity="1.0" stroke-width="3.0" />
            <path d=" M 699.128, 332.703 690.948, 332.968 684.968, 333.752 682.655, 334.055 681.745, 334.263 674.274, 335.973 667.788, 338.085 665.828, 338.723 657.343, 342.297 648.844, 346.702 640.363, 351.959 632.270, 357.832 631.932, 358.077 624.261, 364.493 623.585, 365.058 616.340, 371.951 615.353, 372.891 608.529, 380.201 607.266, 381.553 600.851, 389.224 599.353, 391.015 593.334, 399.000 591.642, 401.246 586.019, 409.515 584.170, 412.234 578.941, 420.758 578.309, 421.789 578.046, 422.217 576.976, 423.961 575.133, 427.293 570.292, 436.043 570.098, 436.394 567.918, 440.768 565.467, 445.683 564.476, 447.671 563.720, 449.190 563.568, 449.494 560.183, 457.037 558.460, 460.878 558.416, 460.976 557.413, 463.211 556.604, 465.218 552.865, 474.493 551.657, 477.487 549.096, 484.573 547.188, 489.854 546.317, 492.263 543.920, 499.720 541.423, 507.488 541.058, 508.779 538.339, 518.403 537.008, 523.111 534.631, 532.824 533.784, 536.284 533.101, 539.071 532.975, 539.680 530.938, 549.471 529.991, 554.023 529.725, 555.304 528.026, 565.158 526.891, 571.737 525.525, 581.643 524.608, 588.301 523.569, 598.247 522.872, 604.924 522.160, 614.898 521.687, 621.539 521.313, 631.532 521.067, 638.077 521.041, 648.077 521.024, 654.469 521.240, 661.014 521.557, 670.644 522.250, 680.620 522.661, 686.534 523.724, 696.477 524.322, 702.078 524.389, 702.541 524.814, 705.469 526.196, 715.003 526.297, 715.693 526.518, 717.220 527.236, 721.115 529.050, 730.950 529.236, 731.961 531.175, 740.604 532.193, 745.146 532.423, 746.170 533.658, 750.800 534.754, 754.909 536.057, 759.795 537.004, 762.823 538.164, 766.532 538.313, 767.009 540.121, 772.790 540.669, 774.301 544.079, 783.701 544.590, 785.110 548.446, 794.337 549.442, 796.719 553.764, 805.736 554.649, 807.582 559.462, 816.348 560.188, 817.670 565.512, 826.135 566.030, 826.959 571.884, 835.067 572.147, 835.431 578.512, 843.072 585.098, 849.867 591.874, 855.814 598.815, 860.910 605.891, 865.156 609.328, 866.781 613.078, 868.555 620.349, 871.118 627.677, 872.855 635.040, 873.780 642.413, 873.907 649.775, 873.258 657.103, 871.850 664.377, 869.705 671.580, 866.847 678.691, 863.300 685.695, 859.088 692.576, 854.237 699.318, 848.774 705.908, 842.725 712.333, 836.118 718.582, 828.977 724.643, 821.333 730.506, 813.211 736.012, 804.864 736.161, 804.638 741.335, 796.080 741.601, 795.640 746.455, 786.897 746.818, 786.245 751.364, 777.338 751.803, 776.478 756.053, 767.426 756.551, 766.364 760.515, 757.183 761.056, 755.929 764.744, 746.634 765.313, 745.200 768.732, 735.802 769.315, 734.198 772.473, 724.710 773.059, 722.949 775.963, 713.380 776.540, 711.477 779.196, 701.837 779.756, 699.806 782.169, 690.101 782.701, 687.958 784.875, 678.197 785.374, 675.956 787.313, 666.145 787.772, 663.822 789.478, 653.969 789.891, 651.581 791.366, 641.690 791.730, 639.252 792.976, 629.330 793.286, 626.858 794.304, 616.910 794.558, 614.422 795.347, 604.453 795.544, 601.965 796.104, 591.981 796.242, 589.508 796.572, 579.514 796.652, 577.074 796.749, 567.075 796.772, 564.684 796.633, 554.685 796.601, 552.360 796.223, 542.367 796.162, 540.740 " fill="none" stroke="rgb(0, 0, 0)" stroke-linecap="butt" stroke-linejoin="round" stroke-opacity="1.0" stroke-width="3.0" />
            <path d=" M 791.565, 542.612 781.933, 544.396 776.415, 545.419 767.547, 547.062 766.832, 547.195 766.116, 547.328 765.398, 547.462 764.681, 547.597 763.831, 547.627 753.855, 546.931 752.328, 546.824 751.487, 546.596 750.680, 546.114 749.924, 545.387 749.234, 544.429 748.622, 543.256 748.101, 541.892 747.681, 540.361 747.369, 538.693 747.173, 536.920 747.095, 535.077 747.139, 533.198 747.302, 531.321 747.582, 529.481 747.973, 527.714 748.467, 526.055 749.056, 524.536 749.727, 523.184 750.466, 522.027 751.111, 521.143 751.757, 520.261 752.401, 519.379 753.045, 518.499 753.369, 518.058 757.471, 512.462 760.482, 508.355 766.394, 500.290 772.307, 492.225 775.316, 488.120 785.256, 489.217 786.169, 489.318 " fill="none" stroke="rgb(0, 0, 0)" stroke-linecap="butt" stroke-linejoin="round" stroke-opacity="1.0" stroke-width="3.0" />
            <path d=" M 822.523, 504.684 821.208, 495.150 819.541, 485.290 819.252, 483.580 817.272, 473.778 816.961, 472.241 814.656, 462.510 814.335, 461.158 811.695, 451.513 811.378, 450.355 808.394, 440.810 808.095, 439.852 804.763, 430.423 804.494, 429.664 800.797, 420.373 800.577, 419.821 796.490, 410.694 796.340, 410.358 791.842, 401.427 791.783, 401.309 786.910, 392.706 781.728, 384.574 776.246, 376.933 770.477, 369.799 764.430, 363.193 758.110, 357.153 751.524, 351.718 744.682, 346.922 737.598, 342.791 730.288, 339.344 724.233, 337.129 722.769, 336.593 715.058, 334.548 707.172, 333.238 699.128, 332.703 " fill="none" stroke="rgb(0, 0, 0)" stroke-linecap="butt" stroke-linejoin="round" stroke-opacity="1.0" stroke-width="3.0" />
            <path d=" M 667.788, 338.085 669.061, 338.800 675.013, 342.904 680.781, 347.654 686.354, 353.023 691.723, 358.977 696.882, 365.479 701.826, 372.491 706.547, 379.990 711.036, 387.965 715.286, 396.394 719.289, 405.253 723.043, 414.511 726.464, 423.908 726.547, 424.137 729.654, 433.642 729.803, 434.096 732.613, 443.693 732.809, 444.360 735.330, 454.037 735.559, 454.915 737.800, 464.661 738.048, 465.741 740.017, 475.546 740.273, 476.819 741.981, 486.672 742.232, 488.121 743.088, 493.931 743.106, 495.163 743.065, 496.404 742.965, 497.643 742.806, 498.867 742.591, 500.062 742.321, 501.217 742.000, 502.319 741.630, 503.357 741.292, 504.145 741.216, 504.320 740.762, 505.198 740.272, 505.981 739.752, 506.663 739.207, 507.235 738.643, 507.692 730.499, 513.495 724.252, 517.946 " fill="none" stroke="rgb(0, 0, 0)" stroke-linecap="butt" stroke-linejoin="round" stroke-opacity="1.0" stroke-width="3.0" />
            <path d=" M 800.422, 535.051 801.394, 535.113 802.545, 535.187 803.209, 535.229 811.086, 529.069 814.409, 526.470 816.293, 524.996 823.783, 519.138 824.128, 518.869 825.668, 517.842 830.171, 514.841 829.109, 504.898 828.834, 502.321 827.483, 492.413 827.152, 489.983 825.503, 480.120 825.123, 477.851 823.167, 468.044 822.750, 465.949 820.475, 456.211 820.030, 454.305 817.854, 446.237 816.966, 442.944 814.021, 433.388 813.559, 431.891 812.306, 428.307 809.811, 421.175 806.139, 411.874 805.724, 410.823 801.667, 401.683 801.302, 400.861 796.843, 391.910 796.548, 391.318 791.669, 382.589 791.465, 382.224 791.224, 381.840 786.323, 374.024 786.061, 373.607 780.341, 365.494 774.311, 357.917 767.981, 350.905 761.358, 344.485 754.454, 338.688 747.280, 333.544 739.849, 329.081 732.174, 325.325 724.273, 322.303 716.160, 320.044 707.856, 318.572 699.380, 317.907 689.397, 317.324 679.414, 316.740 674.084, 316.429 " fill="none" stroke="rgb(0, 0, 0)" stroke-linecap="butt" stroke-linejoin="round" stroke-opacity="1.0" stroke-width="3.0" />
            <path d=" M 699.380, 317.907 690.754, 318.074 688.200, 318.371 682.002, 319.092 673.147, 320.978 670.314, 321.856 664.217, 323.744 655.240, 327.405 651.096, 329.508 649.423, 330.357 646.244, 331.969 637.703, 337.170 637.262, 337.439 629.121, 343.247 628.323, 343.816 620.598, 350.166 619.464, 351.098 612.159, 357.928 610.716, 359.278 603.832, 366.532 602.115, 368.342 595.649, 375.970 593.696, 378.273 587.642, 386.232 585.497, 389.052 579.845, 397.302 577.551, 400.650 577.375, 400.936 577.070, 401.429 571.812, 409.935 569.896, 413.034 567.475, 417.372 565.069, 421.683 563.335, 424.790 562.566, 426.168 558.228, 434.786 556.422, 438.372 555.597, 440.011 551.467, 449.119 549.021, 454.514 545.251, 463.776 544.445, 465.757 542.871, 469.625 539.455, 479.023 537.177, 485.289 535.952, 489.089 535.417, 490.750 535.408, 490.776 534.064, 494.944 531.969, 501.445 529.637, 509.673 527.454, 517.378 527.270, 518.028 525.910, 523.562 524.336, 529.969 524.052, 531.123 523.106, 534.970 522.550, 537.628 521.753, 541.436 519.704, 551.223 519.499, 552.202 517.785, 562.054 516.464, 569.651 515.086, 579.555 514.017, 587.241 512.976, 597.187 512.169, 604.898 511.468, 614.874 510.929, 622.546 510.571, 632.540 510.300, 640.108 510.290, 650.108 510.289, 651.060 510.282, 657.510 510.627, 667.504 510.875, 674.678 511.582, 684.653 512.071, 691.540 513.150, 701.482 513.860, 708.028 515.322, 717.921 516.231, 724.076 " fill="none" stroke="rgb(0, 0, 0)" stroke-linecap="butt" stroke-linejoin="round" stroke-opacity="1.0" stroke-width="3.0" />
            <path d=" M 755.755, 512.297 754.471, 502.380 754.238, 500.577 753.962, 497.952 753.943, 498.186 753.784, 499.415 753.570, 500.616 753.301, 501.776 752.981, 502.884 752.614, 503.927 752.202, 504.894 751.751, 505.776 751.264, 506.564 750.747, 507.249 750.206, 507.824 749.646, 508.284 741.539, 514.139 733.432, 519.994 732.945, 520.346 732.793, 520.162 732.261, 519.514 731.512, 518.885 730.710, 518.469 729.868, 518.275 724.252, 517.946 718.709, 517.622 717.836, 517.652 716.952, 517.907 716.073, 518.382 715.213, 519.069 714.386, 519.959 713.642, 521.038 712.995, 522.288 712.423, 523.687 711.936, 525.211 711.543, 526.834 711.251, 528.527 711.064, 530.262 710.985, 532.008 711.017, 533.737 711.159, 535.417 721.137, 536.081 722.356, 536.162 727.070, 532.793 727.031, 532.256 727.036, 531.703 727.084, 531.149 727.175, 530.609 727.234, 530.379 727.305, 530.099 727.472, 529.632 727.670, 529.222 727.894, 528.878 728.139, 528.611 728.396, 528.428 728.660, 528.334 728.923, 528.331 " fill="none" stroke="rgb(0, 0, 0)" stroke-linecap="butt" stroke-linejoin="round" stroke-opacity="1.0" stroke-width="3.0" />
            <path d=" M 796.381, 522.170 800.277, 519.109 801.490, 518.155 803.149, 516.852 806.622, 514.123 807.123, 513.686 807.608, 513.148 807.888, 512.767 808.074, 512.515 808.517, 511.794 808.935, 510.991 809.323, 510.113 809.679, 509.168 810.001, 508.162 810.286, 507.105 810.531, 506.005 810.735, 504.869 810.897, 503.707 811.014, 502.528 811.086, 501.340 820.684, 504.146 822.523, 504.684 822.425, 505.466 822.222, 506.607 821.978, 507.713 821.695, 508.776 821.375, 509.786 821.021, 510.736 820.636, 511.618 820.222, 512.426 819.782, 513.151 819.320, 513.787 818.839, 514.328 818.343, 514.767 810.528, 521.006 805.925, 524.679 805.284, 523.825 805.237, 523.781 804.579, 523.180 803.822, 522.755 803.024, 522.559 801.813, 522.488 800.562, 522.415 796.381, 522.170 794.868, 522.081 791.152, 521.864 790.553, 521.889 790.321, 521.899 790.202, 521.937 789.477, 522.166 788.636, 522.660 787.810, 523.373 787.015, 524.293 786.300, 525.409 785.679, 526.702 785.129, 528.148 784.659, 529.722 784.276, 531.397 783.989, 533.144 783.801, 534.934 783.716, 536.736 783.735, 538.518 783.858, 540.250 791.457, 540.756 791.526, 540.760 795.775, 541.043 796.162, 540.740 800.251, 537.542 800.218, 536.988 800.226, 536.418 800.275, 535.846 800.364, 535.290 800.422, 535.051 800.491, 534.763 800.651, 534.280 800.841, 533.856 801.055, 533.500 801.279, 533.235 801.288, 533.224 801.532, 533.033 801.782, 532.935 802.031, 532.930 " fill="none" stroke="rgb(0, 0, 0)" stroke-linecap="butt" stroke-linejoin="round" stroke-opacity="1.0" stroke-width="3.0" />
            <path d=" M 776.415, 545.419 776.600, 550.078 776.749, 560.077 776.782, 562.282 776.687, 572.281 776.666, 574.550 776.330, 584.544 776.253, 586.860 775.679, 596.844 775.544, 599.191 774.734, 609.158 774.542, 611.521 773.495, 621.466 773.247, 623.828 771.965, 633.746 771.662, 636.091 770.145, 645.976 769.790, 648.288 768.035, 658.133 767.632, 660.397 765.638, 670.196 765.191, 672.395 762.956, 682.142 762.470, 684.262 759.991, 693.950 759.473, 695.974 756.745, 705.594 756.202, 707.508 753.221, 717.053 752.662, 718.842 749.422, 728.303 748.857, 729.954 745.352, 739.319 744.791, 740.818 741.013, 750.076 740.468, 751.410 736.410, 760.550 735.895, 761.709 731.547, 770.714 731.078, 771.687 726.430, 780.542 726.021, 781.321 721.063, 790.005 720.732, 790.584 715.453, 799.077 715.220, 799.453 709.607, 807.729 709.491, 807.900 703.555, 815.899 697.420, 823.423 691.099, 830.448 684.601, 836.945 677.939, 842.888 671.125, 848.251 664.174, 853.008 657.101, 857.132 649.922, 860.599 642.653, 863.385 635.313, 865.467 627.922, 866.819 620.498, 867.423 613.064, 867.259 609.328, 866.781 " fill="none" stroke="rgb(0, 0, 0)" stroke-linecap="butt" stroke-linejoin="round" stroke-opacity="1.0" stroke-width="3.0" />
            <path d=" M 763.831, 547.627 762.997, 547.399 762.198, 546.915 761.449, 546.186 760.767, 545.223 760.162, 544.046 759.646, 542.675 759.231, 541.137 758.924, 539.461 758.731, 537.680 758.705, 537.022 758.656, 535.828 758.701, 533.940 758.865, 532.053 759.140, 530.232 759.144, 530.204 759.534, 528.429 760.026, 526.761 760.610, 525.233 761.277, 523.875 762.010, 522.711 762.650, 521.823 763.291, 520.935 763.931, 520.049 764.570, 519.164 764.892, 518.721 768.644, 513.536 774.506, 505.435 777.329, 501.535 783.191, 493.434 786.169, 489.318 787.640, 499.209 787.751, 499.956 788.345, 504.265 789.484, 514.200 789.639, 515.553 790.202, 521.937 " fill="none" stroke="rgb(0, 0, 0)" stroke-linecap="butt" stroke-linejoin="round" stroke-opacity="1.0" stroke-width="3.0" />
            <path d=" M 794.338, 516.005 800.057, 516.555 801.364, 516.680 803.149, 516.852 " fill="none" stroke="rgb(0, 0, 0)" stroke-linecap="butt" stroke-linejoin="round" stroke-opacity="1.0" stroke-width="3.0" />
            <path d=" M 764.781, 537.420 764.462, 537.364 764.162, 537.162 763.896, 536.821 763.675, 536.358 763.508, 535.791 763.403, 535.147 763.364, 534.453 763.394, 533.738 763.491, 533.036 763.650, 532.377 763.865, 531.790 764.126, 531.299 764.422, 530.928 764.738, 530.693 765.063, 530.602 " fill="none" stroke="rgb(0, 0, 0)" stroke-linecap="butt" stroke-linejoin="round" stroke-opacity="1.0" stroke-width="3.0" />
            <path d=" M 765.063, 530.602 765.382, 530.660 765.681, 530.864 765.946, 531.205 766.166, 531.669 766.332, 532.234 766.436, 532.877 766.474, 533.569 766.445, 534.281 766.349, 534.980 766.190, 535.638 765.976, 536.224 765.717, 536.714 765.422, 537.087 765.106, 537.325 764.781, 537.420 " fill="none" stroke="rgb(0, 0, 0)" stroke-linecap="butt" stroke-linejoin="round" stroke-opacity="1.0" stroke-width="3.0" />
            <path d=" M 727.234, 530.379 730.186, 530.567 738.322, 524.753 746.458, 518.940 754.595, 513.126 755.755, 512.297 757.471, 512.462 " fill="none" stroke="rgb(0, 0, 0)" stroke-linecap="butt" stroke-linejoin="round" stroke-opacity="1.0" stroke-width="3.0" />
            <path d=" M 801.394, 535.113 801.526, 537.269 801.896, 547.262 802.000, 550.081 802.132, 560.081 802.170, 562.983 802.067, 572.982 802.037, 575.951 801.703, 585.946 801.602, 588.965 801.038, 598.949 800.866, 602.001 800.073, 611.970 799.830, 615.039 798.810, 624.987 798.495, 628.056 797.248, 637.978 796.864, 641.030 795.388, 650.921 794.938, 653.939 793.232, 663.793 792.719, 666.760 790.781, 676.571 790.208, 679.472 788.037, 689.233 787.410, 692.050 785.001, 701.756 784.326, 704.472 781.674, 714.114 780.959, 716.715 778.060, 726.285 777.313, 728.754 774.161, 738.244 773.391, 740.565 769.980, 749.965 769.197, 752.123 765.519, 761.422 764.735, 763.404 760.783, 772.589 760.012, 774.381 755.775, 783.439 755.031, 785.029 750.500, 793.943 749.800, 795.320 744.962, 804.072 744.324, 805.228 739.169, 813.797 738.611, 814.726 733.126, 823.088 732.668, 823.786 726.839, 831.911 726.505, 832.377 720.319, 840.235 720.130, 840.475 713.555, 848.049 706.791, 855.070 699.849, 861.508 692.742, 867.336 685.486, 872.526 678.096, 877.047 670.587, 880.872 662.978, 883.976 655.287, 886.331 647.536, 887.910 639.744, 888.692 631.934, 888.656 624.130, 887.778 616.357, 886.041 608.640, 883.432 601.006, 879.936 593.484, 875.542 586.102, 870.246 578.888, 864.045 571.872, 856.939 565.406, 849.311 565.086, 848.933 559.169, 840.871 558.558, 840.039 553.175, 831.611 552.319, 830.271 547.452, 821.536 546.400, 819.648 542.026, 810.656 540.829, 808.195 536.926, 798.988 535.826, 796.393 535.634, 795.941 533.071, 788.974 531.878, 785.732 530.844, 782.924 527.821, 773.391 526.486, 769.180 526.480, 769.159 525.440, 765.317 522.828, 755.664 522.582, 754.756 520.364, 745.005 519.565, 741.495 519.157, 739.703 518.166, 734.413 516.326, 724.584 516.231, 724.076 512.709, 714.717 509.645, 706.574 " fill="none" stroke="rgb(0, 0, 0)" stroke-linecap="butt" stroke-linejoin="round" stroke-opacity="1.0" stroke-width="3.0" />
            <path d=" M 674.084, 316.429 666.250, 316.572 662.040, 317.096 658.308, 317.561 650.280, 319.414 642.190, 322.146 634.064, 325.770 625.929, 330.296 617.811, 335.729 609.949, 341.908 609.741, 342.071 602.335, 348.790 601.750, 349.322 594.798, 356.511 593.867, 357.474 587.362, 365.070 586.124, 366.516 580.057, 374.465 578.556, 376.431 576.086, 380.044 575.729, 380.566 571.193, 387.202 566.752, 394.433 564.354, 398.336 564.070, 398.798 562.659, 401.350 557.820, 410.102 557.636, 410.434 557.219, 411.190 555.879, 413.881 551.422, 422.833 550.672, 424.340 546.584, 433.466 544.461, 438.207 544.316, 438.568 540.586, 447.846 538.617, 452.743 535.233, 462.154 533.169, 467.896 530.123, 477.421 528.145, 483.608 525.430, 493.233 523.572, 499.820 521.905, 506.585 519.513, 516.295 519.471, 516.463 519.308, 517.236 519.167, 517.898 517.094, 527.681 516.792, 529.105 516.347, 531.202 515.867, 533.470 514.108, 543.315 512.777, 550.770 511.331, 560.665 510.217, 568.287 509.082, 578.223 508.200, 585.946 507.376, 595.912 506.736, 603.669 506.226, 613.656 505.832, 621.378 505.639, 631.376 505.491, 638.997 505.618, 648.996 505.713, 656.449 506.167, 666.438 506.436, 672.360 506.495, 673.659 507.284, 683.628 507.831, 690.555 508.956, 700.491 509.645, 706.574 509.351, 716.570 509.092, 725.391 " fill="none" stroke="rgb(0, 0, 0)" stroke-linecap="butt" stroke-linejoin="round" stroke-opacity="1.0" stroke-width="3.0" />
            <path d=" M 512.140, 741.513 514.005, 749.639 515.362, 755.552 515.703, 757.036 518.336, 766.683 519.760, 771.902 521.901, 778.596 523.000, 782.036 524.287, 786.058 527.765, 795.434 528.780, 798.170 529.258, 799.458 529.980, 801.147 532.980, 808.165 534.645, 812.060 539.050, 821.038 540.419, 823.829 545.321, 832.545 546.551, 834.732 551.971, 843.136 553.009, 844.746 558.966, 852.778 559.762, 853.852 566.271, 861.443 566.777, 862.035 573.848, 869.106 574.025, 869.283 581.473, 875.595 589.090, 880.971 596.846, 885.413 604.713, 888.928 612.659, 891.531 620.659, 893.235 628.685, 894.055 636.713, 894.013 644.718, 893.131 652.677, 891.434 660.569, 888.943 668.374, 885.689 676.072, 881.699 683.646, 877.001 691.079, 871.622 698.356, 865.595 705.462, 858.949 712.385, 851.712 718.917, 844.140 719.112, 843.914 725.277, 836.041 725.633, 835.587 731.444, 827.449 731.936, 826.759 737.406, 818.388 738.013, 817.459 743.156, 808.882 743.856, 807.715 748.683, 798.957 749.455, 797.557 753.979, 788.639 754.805, 787.011 759.036, 777.950 759.898, 776.105 763.847, 766.918 764.729, 764.866 768.406, 755.566 769.293, 753.320 772.704, 743.920 773.584, 741.493 776.737, 732.003 777.598, 729.410 780.500, 719.840 781.332, 717.096 783.987, 707.455 784.780, 704.575 787.194, 694.871 787.940, 691.871 790.117, 682.111 790.809, 679.008 792.753, 669.199 793.385, 666.010 795.097, 656.158 795.663, 652.898 797.146, 643.009 797.642, 639.697 798.897, 629.776 799.320, 626.427 800.348, 616.480 800.696, 613.113 801.495, 603.145 801.766, 599.775 802.336, 589.791 802.528, 586.437 802.870, 576.443 802.983, 573.121 803.092, 563.121 803.128, 559.848 803.003, 549.849 802.962, 546.642 802.598, 536.649 802.545, 535.187 " fill="none" stroke="rgb(0, 0, 0)" stroke-linecap="butt" stroke-linejoin="round" stroke-opacity="1.0" stroke-width="3.0" />
            <path d=" M 509.092, 725.391 510.949, 735.217 512.140, 741.513 " fill="none" stroke="rgb(0, 0, 0)" stroke-linecap="butt" stroke-linejoin="round" stroke-opacity="1.0" stroke-width="3.0" />
            <path d=" M 817.854, 446.237 817.508, 444.214 815.591, 434.399 815.355, 433.187 813.202, 423.422 812.966, 422.349 810.570, 412.641 810.342, 411.716 807.695, 402.072 807.483, 401.302 804.576, 391.734 804.391, 391.126 801.209, 381.646 801.063, 381.209 797.597, 371.828 797.501, 371.567 793.707, 362.216 789.685, 353.173 785.435, 344.457 780.960, 336.085 776.262, 328.078 771.345, 320.458 766.209, 313.248 760.861, 306.468 755.304, 300.136 749.545, 294.270 743.590, 288.888 737.446, 284.012 731.118, 279.661 724.615, 275.858 717.945, 272.626 711.117, 269.989 704.142, 267.965 697.031, 266.568 689.795, 265.815 682.449, 265.719 680.883, 265.841 675.004, 266.298 667.477, 267.567 659.883, 269.543 652.237, 272.240 644.560, 275.674 636.868, 279.848 629.181, 284.766 621.518, 290.429 613.899, 296.838 613.600, 297.121 606.345, 303.992 599.475, 311.259 598.879, 311.889 592.396, 319.502 591.525, 320.525 585.605, 328.208 584.306, 329.894 578.573, 338.088 577.246, 339.985 576.607, 340.988 573.185, 346.358 572.754, 347.034 570.369, 350.777 565.340, 359.421 565.109, 359.820 563.695, 362.249 562.761, 364.006 561.107, 367.118 557.249, 374.376 556.212, 376.508 554.530, 379.972 551.051, 387.131 546.995, 396.272 545.125, 400.487 543.438, 404.659 539.688, 413.930 539.494, 414.410 536.045, 423.796 534.182, 428.868 533.590, 430.647 530.435, 440.137 529.210, 443.823 526.343, 453.403 524.598, 459.232 522.012, 468.891 520.363, 475.047 518.051, 484.777 516.520, 491.221 514.478, 501.011 513.082, 507.703 511.307, 517.545 510.064, 524.442 509.020, 531.277 507.511, 541.163 507.477, 541.385 506.233, 551.307 505.335, 558.478 504.357, 568.430 503.646, 575.665 502.936, 585.640 502.419, 592.890 501.974, 602.880 501.653, 610.096 501.475, 620.095 501.348, 627.227 501.440, 637.227 501.505, 644.227 501.873, 654.220 502.124, 661.041 502.771, 671.020 503.200, 677.615 503.876, 684.836 504.726, 693.898 505.950, 703.823 506.693, 709.839 508.217, 719.723 509.092, 725.391 510.926, 735.222 511.912, 740.508 512.140, 741.513 513.960, 749.790 515.138, 755.146 515.296, 755.763 517.777, 765.450 518.756, 769.268 521.579, 778.861 521.705, 779.292 522.748, 782.836 522.764, 782.883 525.943, 792.365 527.100, 795.815 528.454, 799.384 529.625, 802.470 531.791, 808.175 532.544, 809.938 536.476, 819.132 536.801, 819.893 541.131, 828.906 542.110, 830.943 546.856, 839.745 547.698, 841.307 552.879, 849.860 553.546, 850.960 559.178, 859.223 559.634, 859.891 565.727, 867.820 565.937, 868.092 572.433, 875.558 579.100, 882.286 585.918, 888.273 592.866, 893.520 599.924, 898.026 607.075, 901.794 614.298, 904.830 621.209, 907.032 621.573, 907.148 628.882, 908.762 636.207, 909.687 643.531, 909.938 650.839, 909.529 658.115, 908.474 665.347, 906.787 672.519, 904.482 679.620, 901.581 686.636, 898.107 693.557, 894.080 700.371, 889.523 707.070, 884.455 713.642, 878.896 720.081, 872.862 726.377, 866.371 732.523, 859.442 738.512, 852.096 744.337, 844.355 749.994, 836.242 755.477, 827.774 760.639, 819.209 760.782, 818.972 765.678, 810.252 765.903, 809.851 770.541, 800.992 770.835, 800.429 775.223, 791.443 775.575, 790.721 779.719, 781.619 780.118, 780.743 784.026, 771.538 784.461, 770.515 788.142, 761.217 788.602, 760.055 792.063, 750.673 792.540, 749.381 795.786, 739.923 796.271, 738.509 799.307, 728.981 799.794, 727.453 802.624, 717.862 803.106, 716.229 805.733, 706.581 806.203, 704.851 808.629, 695.150 809.084, 693.332 811.312, 683.583 811.746, 681.688 813.780, 671.897 814.188, 669.933 816.032, 660.105 816.411, 658.084 818.066, 648.222 818.413, 646.154 819.881, 636.262 820.194, 634.156 821.475, 624.239 821.751, 622.105 822.845, 612.165 823.082, 610.014 823.989, 600.055 824.185, 597.896 824.904, 587.922 825.060, 585.765 825.592, 575.779 825.706, 573.635 826.050, 563.641 826.123, 561.519 826.279, 551.521 826.311, 549.432 826.275, 539.432 826.267, 537.386 826.037, 527.388 825.991, 525.395 825.668, 517.842 " fill="none" stroke="rgb(0, 0, 0)" stroke-linecap="butt" stroke-linejoin="round" stroke-opacity="1.0" stroke-width="3.0" />
            <path d=" M 680.235, 265.833 672.780, 266.412 665.243, 267.681 657.638, 269.655 649.983, 272.351 642.296, 275.782 634.595, 279.953 626.899, 284.866 619.227, 290.524 612.369, 296.281 611.599, 296.927 604.332, 303.796 604.038, 304.074 597.160, 311.334 596.564, 311.964 590.073, 319.570 589.202, 320.591 583.091, 328.506 581.975, 329.950 579.911, 332.895 574.909, 340.031 572.870, 343.225 572.430, 343.913 570.001, 347.717 568.026, 350.812 564.889, 356.194 562.530, 360.240 561.346, 362.271 560.887, 363.133 556.186, 371.960 555.984, 372.338 554.894, 374.385 554.290, 375.627 549.913, 384.618 548.692, 387.126 544.630, 396.264 543.243, 399.383 542.761, 400.466 539.006, 409.735 537.127, 414.374 533.672, 423.759 531.810, 428.816 528.651, 438.303 526.836, 443.754 523.964, 453.333 522.644, 457.736 522.222, 459.145 519.631, 468.804 517.985, 474.943 515.669, 484.671 514.140, 491.098 512.095, 500.887 510.701, 507.561 508.924, 517.402 507.682, 524.281 506.609, 531.302 505.096, 541.204 503.851, 551.127 502.953, 558.278 501.975, 568.230 501.266, 575.445 500.556, 585.420 500.041, 592.651 499.596, 602.641 499.276, 609.837 499.099, 619.836 498.973, 626.949 499.068, 636.949 499.134, 643.930 499.504, 653.923 499.756, 660.726 500.407, 670.705 500.836, 677.282 501.772, 687.238 502.232, 692.129 502.366, 693.547 503.595, 703.471 504.338, 709.472 505.867, 719.354 506.742, 725.007 508.581, 734.837 509.567, 740.108 511.725, 749.873 512.669, 754.144 512.799, 754.732 514.052, 759.609 516.423, 768.840 519.253, 778.431 520.422, 782.395 520.647, 783.064 521.754, 786.358 524.781, 795.362 527.564, 802.679 528.740, 805.769 529.479, 807.712 531.749, 813.008 534.497, 819.419 538.835, 828.429 539.814, 830.460 544.568, 839.258 545.409, 840.816 550.599, 849.363 551.267, 850.462 556.907, 858.720 557.363, 859.387 563.464, 867.310 563.674, 867.583 570.180, 875.044 576.856, 881.769 583.683, 887.754 590.641, 892.999 597.709, 897.505 604.870, 901.273 612.103, 904.310 619.388, 906.629 " fill="none" stroke="rgb(0, 0, 0)" stroke-linecap="butt" stroke-linejoin="round" stroke-opacity="1.0" stroke-width="3.0" />
            <path d=" M 682.449, 265.719 680.235, 265.833 " fill="none" stroke="rgb(0, 0, 0)" stroke-linecap="butt" stroke-linejoin="round" stroke-opacity="1.0" stroke-width="3.0" />
            <path d=" M 619.388, 906.629 621.573, 907.148 " fill="none" stroke="rgb(0, 0, 0)" stroke-linecap="butt" stroke-linejoin="round" stroke-opacity="1.0" stroke-width="3.0" />
            <path d=" M 491.527, 729.621 491.776, 730.930 493.450, 739.720 494.819, 746.910 497.013, 756.667 498.107, 761.533 498.579, 763.632 501.011, 772.936 502.789, 779.739 503.267, 781.331 504.271, 784.673 506.995, 793.745 507.428, 795.189 508.019, 796.915 511.255, 806.377 512.215, 809.181 512.475, 809.943 513.303, 812.081 516.452, 820.211 517.572, 823.102 517.907, 823.967 519.935, 828.610 521.104, 831.287 522.061, 833.478 523.699, 837.230 524.465, 838.788 528.874, 847.763 529.828, 849.706 534.660, 858.461 536.268, 861.373 541.540, 869.871 542.993, 872.214 548.720, 880.412 549.979, 882.215 556.172, 890.066 557.198, 891.365 563.869, 898.815 564.625, 899.660 571.778, 906.648 572.235, 907.096 579.867, 913.558 580.004, 913.673 587.905, 919.397 595.917, 924.272 604.015, 928.309 612.178, 931.519 620.383, 933.916 624.703, 934.993 632.909, 936.586 641.118, 937.396 649.311, 937.443 657.470, 936.747 665.580, 935.328 673.624, 933.209 681.588, 930.412 689.458, 926.961 697.221, 922.878 704.865, 918.187 712.380, 912.912 719.755, 907.077 726.980, 900.706 734.047, 893.821 740.949, 886.446 747.460, 878.857 747.677, 878.605 753.877, 870.759 754.224, 870.319 760.123, 862.244 760.586, 861.611 766.194, 853.331 766.755, 852.502 772.083, 844.040 772.728, 843.015 777.785, 834.387 778.500, 833.168 783.295, 824.393 784.065, 822.984 788.609, 814.076 789.422, 812.482 793.721, 803.453 794.565, 801.680 798.628, 792.543 799.493, 790.599 803.327, 781.363 804.202, 779.255 807.813, 769.930 808.689, 767.668 812.084, 758.262 812.953, 755.854 816.137, 746.374 816.991, 743.830 819.969, 734.284 820.802, 731.614 823.578, 722.007 824.383, 719.220 826.961, 709.558 827.733, 706.665 830.117, 696.953 830.851, 693.964 833.043, 684.208 833.734, 681.133 835.739, 671.336 836.383, 668.186 838.201, 658.352 838.795, 655.138 840.428, 645.272 840.969, 642.002 842.419, 632.108 842.905, 628.795 844.172, 618.875 844.600, 615.528 845.686, 605.587 846.055, 602.217 846.960, 592.258 847.267, 588.875 847.991, 578.901 848.237, 575.516 848.779, 565.531 848.962, 562.154 849.322, 552.160 849.443, 548.802 849.618, 538.803 849.677, 535.474 849.667, 525.474 849.664, 522.184 849.467, 512.186 849.404, 508.947 849.017, 498.955 848.894, 495.776 848.314, 485.793 848.134, 482.687 847.359, 472.717 847.123, 469.692 846.148, 459.740 845.861, 456.809 844.682, 446.878 844.346, 444.050 842.958, 434.147 842.578, 431.433 840.976, 421.562 840.556, 418.973 838.734, 409.141 838.279, 406.687 836.230, 396.899 835.747, 394.590 833.464, 384.854 832.959, 382.700 830.435, 373.024 829.916, 371.035 827.141, 361.428 826.616, 359.613 823.581, 350.085 823.061, 348.452 819.756, 339.014 819.251, 337.571 815.664, 328.236 815.186, 326.990 811.306, 317.773 810.866, 316.729 806.681, 307.647 806.294, 306.809 801.789, 297.881 801.471, 297.250 796.633, 288.498 796.399, 288.075 791.213, 279.524 791.080, 279.305 785.516, 270.963 779.713, 263.073 773.673, 255.658 767.401, 248.741 760.902, 242.347 754.182, 236.501 747.249, 231.226 740.109, 226.548 732.772, 222.491 725.247, 219.080 717.543, 216.338 709.673, 214.289 701.648, 212.956 693.484, 212.362 685.193, 212.529 680.788, 212.857 672.364, 213.804 663.848, 215.548 655.258, 218.107 646.613, 221.495 637.933, 225.726 629.241, 230.811 620.991, 236.462 620.559, 236.758 612.704, 242.947 611.911, 243.572 604.458, 250.240 603.322, 251.256 596.271, 258.348 594.818, 259.810 588.165, 267.276 586.425, 269.228 584.712, 271.360 578.449, 279.156 578.170, 279.504 572.288, 287.591 570.081, 290.625 566.753, 295.662 566.196, 296.505 563.075, 301.229 562.186, 302.575 560.994, 304.558 558.607, 308.528 557.810, 309.852 556.991, 311.214 554.514, 315.334 553.782, 316.669 552.200, 319.557 552.107, 319.727 550.473, 322.709 547.092, 328.878 543.964, 335.142 542.348, 338.376 539.949, 343.179 539.751, 343.614 535.610, 352.716 533.113, 358.203 529.927, 365.900 526.610, 373.914 523.094, 383.275 520.467, 390.270 517.252, 399.739 514.710, 407.225 511.788, 416.789 509.362, 424.730 506.727, 434.377 504.446, 442.733 502.094, 452.453 499.983, 461.177 498.712, 467.172 496.638, 476.955 496.272, 478.680 495.992, 480.003 494.192, 489.839 492.490, 499.148 491.206, 507.456 490.747, 510.427 490.226, 513.801 489.773, 516.729 489.765, 516.782 489.625, 517.691 489.611, 517.780 489.492, 518.549 489.397, 519.304 489.269, 520.308 488.710, 524.726 487.453, 534.647 487.011, 538.139 486.024, 548.090 485.056, 557.852 484.339, 567.826 483.636, 577.618 483.190, 587.608 482.754, 597.369 482.581, 607.368 482.446, 615.158 482.424, 616.415 482.413, 617.038 482.516, 627.037 482.565, 631.812 482.574, 632.686 482.613, 636.556 482.995, 646.548 483.054, 648.089 483.069, 648.479 483.351, 655.856 483.881, 663.798 483.897, 664.030 484.563, 674.008 484.621, 674.874 484.986, 678.675 485.941, 688.629 486.414, 693.548 486.532, 694.486 486.721, 695.982 487.974, 705.903 488.720, 711.816 490.277, 721.694 491.527, 729.621 " fill="none" stroke="rgb(0, 0, 0)" stroke-linecap="butt" stroke-linejoin="round" stroke-opacity="1.0" stroke-width="3.0" />
            <path d=" M 685.193, 212.529 676.792, 213.475 668.299, 215.219 659.730, 217.780 651.107, 221.173 642.448, 225.409 633.777, 230.502 625.537, 236.168 625.115, 236.458 617.272, 242.662 616.486, 243.284 609.047, 249.966 607.916, 250.982 600.879, 258.087 599.429, 259.552 592.791, 267.030 591.053, 268.988 587.069, 273.967 582.814, 279.284 576.947, 287.382 574.741, 290.427 569.244, 298.781 567.608, 301.266 567.059, 302.101 566.860, 302.402 561.722, 310.980 561.579, 311.219 559.201, 315.188 559.199, 315.192 557.609, 318.105 552.772, 326.965 551.792, 328.761 551.131, 330.089 546.676, 339.042 544.660, 343.093 540.531, 352.200 540.457, 352.362 537.834, 358.150 534.021, 367.395 531.340, 373.895 527.834, 383.261 525.205, 390.288 521.999, 399.760 519.454, 407.281 516.541, 416.847 515.829, 419.184 514.111, 424.826 511.485, 434.475 509.200, 442.870 506.855, 452.591 504.740, 461.357 502.672, 471.140 500.751, 480.226 498.957, 490.063 497.250, 499.415 495.727, 509.298 495.270, 512.262 495.000, 514.013 494.540, 516.995 494.253, 518.861 494.096, 520.096 493.082, 528.120 491.828, 538.041 491.770, 538.496 490.784, 548.447 489.813, 558.254 489.096, 568.228 488.827, 571.974 488.389, 578.065 487.942, 588.055 487.503, 597.862 487.488, 598.735 487.312, 608.733 487.157, 617.575 487.226, 624.588 487.325, 634.587 487.350, 637.136 487.727, 647.129 488.080, 656.480 488.740, 666.458 489.341, 675.540 490.290, 685.495 490.624, 688.995 491.125, 694.254 492.369, 704.176 493.421, 712.561 493.425, 712.589 494.209, 717.594 494.762, 721.121 495.635, 726.693 496.216, 730.403 498.076, 740.229 499.496, 747.728 501.678, 757.487 503.243, 764.483 505.759, 774.161 505.868, 774.581 506.919, 778.621 507.439, 780.621 510.301, 790.203 512.063, 796.101 514.410, 802.997 515.449, 806.048 517.094, 810.882 520.691, 820.213 521.727, 822.900 522.510, 824.931 522.877, 825.775 526.147, 833.298 526.302, 833.654 528.285, 838.216 532.678, 847.200 534.396, 850.713 539.212, 859.476 540.818, 862.398 546.073, 870.905 547.524, 873.254 553.235, 881.463 554.490, 883.268 560.669, 891.131 561.689, 892.430 568.346, 899.892 569.096, 900.733 576.236, 907.734 576.686, 908.175 584.307, 914.650 584.433, 914.757 592.313, 920.483 600.303, 925.359 608.380, 929.395 616.520, 932.601 624.703, 934.993 " fill="none" stroke="rgb(0, 0, 0)" stroke-linecap="butt" stroke-linejoin="round" stroke-opacity="1.0" stroke-width="3.0" />
            <path d=" M 729.868, 518.275 729.002, 518.306 728.124, 518.563 727.250, 519.041 726.395, 519.732 726.198, 519.946 725.573, 520.626 724.833, 521.711 724.190, 522.968 723.621, 524.374 723.137, 525.906 722.745, 527.536 722.676, 527.938 722.453, 529.238 722.364, 530.068 722.266, 530.981 722.187, 532.736 722.217, 534.473 722.356, 536.162 " fill="none" stroke="rgb(0, 0, 0)" stroke-linecap="butt" stroke-linejoin="round" stroke-opacity="1.0" stroke-width="3.0" />
            <path d=" M 728.923, 528.331 729.178, 528.419 729.417, 528.596 729.635, 528.857 729.826, 529.195 729.984, 529.600 730.105, 530.061 730.186, 530.567 " fill="none" stroke="rgb(0, 0, 0)" stroke-linecap="butt" stroke-linejoin="round" stroke-opacity="1.0" stroke-width="3.0" />
            <path d=" M 803.024, 522.559 802.200, 522.595 801.364, 522.864 800.529, 523.361 799.709, 524.078 799.521, 524.299 798.919, 525.004 798.209, 526.126 797.593, 527.426 797.047, 528.879 796.579, 530.461 796.199, 532.145 796.131, 532.559 795.912, 533.901 795.823, 534.758 795.724, 535.700 795.638, 537.511 795.655, 539.302 795.775, 541.043 " fill="none" stroke="rgb(0, 0, 0)" stroke-linecap="butt" stroke-linejoin="round" stroke-opacity="1.0" stroke-width="3.0" />
            <path d=" M 802.031, 532.930 802.271, 533.020 802.496, 533.201 802.700, 533.469 802.878, 533.816 803.024, 534.233 803.136, 534.708 803.209, 535.229 " fill="none" stroke="rgb(0, 0, 0)" stroke-linecap="butt" stroke-linejoin="round" stroke-opacity="1.0" stroke-width="3.0" />
            <path d=" M 777.347, 476.955 777.466, 476.858 777.600, 476.782 777.746, 476.728 777.901, 476.698 778.062, 476.693 778.284, 476.724 778.502, 476.798 778.708, 476.914 778.895, 477.066 779.055, 477.250 779.184, 477.459 779.275, 477.689 779.325, 477.935 779.327, 478.164 779.286, 478.383 779.205, 478.584 779.085, 478.759 778.931, 478.901 " fill="none" stroke="rgb(0, 0, 0)" stroke-linecap="butt" stroke-linejoin="round" stroke-opacity="1.0" stroke-width="3.0" />
            <path d=" M 777.238, 477.058 777.104, 477.239 777.074, 477.301 776.976, 477.517 776.923, 477.750 776.922, 477.997 776.935, 478.067 776.982, 478.294 777.074, 478.505 777.208, 478.694 777.258, 478.746 777.422, 478.897 777.613, 479.010 777.673, 479.041 777.870, 479.103 777.928, 479.120 777.999, 479.132 778.081, 479.138 778.178, 479.139 778.243, 479.137 778.294, 479.134 778.345, 479.129 778.393, 479.120 778.467, 479.106 778.554, 479.085 778.632, 479.061 778.697, 479.034 778.859, 478.942 778.931, 478.901 " fill="none" stroke="rgb(0, 0, 0)" stroke-linecap="butt" stroke-linejoin="round" stroke-opacity="1.0" stroke-width="3.0" />
            <path d=" M 777.466, 476.858 777.408, 476.908 777.318, 476.987 777.238, 477.058 777.347, 476.955 " fill="none" stroke="rgb(0, 0, 0)" stroke-linecap="butt" stroke-linejoin="round" stroke-opacity="1.0" stroke-width="3.0" />
            <path d=" M 775.032, 474.786 775.650, 480.758 779.906, 480.935 781.341, 480.995 781.974, 480.389 780.874, 474.908 778.841, 474.752 775.459, 474.493 775.032, 474.786 " fill="none" stroke="rgb(0, 0, 0)" stroke-linecap="butt" stroke-linejoin="round" stroke-opacity="1.0" stroke-width="3.0" />
            <path d=" M 781.341, 480.995 780.730, 475.009 " fill="none" stroke="rgb(0, 0, 0)" stroke-linecap="butt" stroke-linejoin="round" stroke-opacity="1.0" stroke-width="3.0" />
            <path d=" M 780.874, 474.908 780.730, 475.009 775.032, 474.786 " fill="none" stroke="rgb(0, 0, 0)" stroke-linecap="butt" stroke-linejoin="round" stroke-opacity="1.0" stroke-width="3.0" />
            <path d=" M 741.292, 504.145 738.223, 504.218 728.236, 504.721 726.768, 504.795 716.796, 505.536 715.334, 505.645 705.379, 506.597 703.914, 506.738 693.979, 507.877 692.503, 508.046 682.588, 509.346 681.097, 509.542 671.200, 510.979 669.689, 511.199 659.810, 512.750 658.275, 512.991 648.410, 514.632 646.849, 514.892 636.996, 516.602 635.405, 516.878 625.561, 518.634 623.940, 518.923 614.100, 520.705 612.447, 521.005 602.608, 522.792 600.922, 523.099 591.080, 524.872 589.358, 525.182 579.510, 526.921 577.750, 527.232 578.166, 517.241 578.350, 512.822 578.649, 502.827 578.783, 498.343 578.967, 488.345 579.051, 483.813 579.120, 473.813 579.152, 469.250 579.107, 459.250 579.087, 454.675 578.927, 444.676 578.855, 440.104 578.581, 430.108 578.456, 425.558 578.309, 421.789 " fill="none" stroke="rgb(0, 0, 0)" stroke-linecap="butt" stroke-linejoin="round" stroke-opacity="1.0" stroke-width="3.0" />
            <path d=" M 584.712, 271.360 583.200, 269.687 576.958, 261.875 576.537, 261.348 570.757, 253.187 570.275, 252.507 564.956, 244.038 564.444, 243.222 559.585, 234.481 559.114, 233.633 " fill="none" stroke="rgb(0, 0, 0)" stroke-linecap="butt" stroke-linejoin="round" stroke-opacity="1.0" stroke-width="3.0" />
            <path d=" M 560.247, 235.901 559.114, 233.633 558.836, 233.077 555.073, 225.544 554.439, 224.099 553.032, 220.896 550.369, 214.831 549.838, 213.443 549.514, 212.596 548.874, 210.922 546.319, 204.245 546.155, 203.815 " fill="none" stroke="rgb(0, 0, 0)" stroke-linecap="butt" stroke-linejoin="round" stroke-opacity="1.0" stroke-width="3.0" />
            <path d=" M 545.867, 202.764 542.689, 193.282 542.442, 192.545 541.095, 188.899 540.596, 187.548 538.857, 182.840 536.377, 176.776 535.114, 173.687 531.218, 165.123 527.504, 157.833 527.173, 157.184 523.446, 150.713 522.984, 149.911 518.656, 143.347 516.617, 140.688 514.196, 137.530 512.224, 135.367 509.612, 132.501 504.912, 128.303 500.105, 124.977 497.891, 123.887 495.203, 122.564 494.889, 122.472 490.216, 121.102 485.158, 120.632 480.042, 121.191 474.885, 122.813 469.702, 125.529 469.144, 125.942 468.690, 126.278 464.513, 129.371 463.497, 130.349 459.334, 134.361 454.188, 140.519 453.051, 142.157 450.463, 145.887 449.094, 147.860 446.601, 152.100 444.076, 156.396 439.564, 165.321 439.156, 166.127 435.134, 175.283 434.358, 177.047 430.770, 186.381 429.707, 189.146 426.507, 198.620 425.228, 202.405 422.375, 211.989 420.944, 216.793 418.405, 226.465 416.881, 232.272 414.630, 242.015 413.062, 248.798 411.076, 258.599 409.512, 266.316 407.772, 276.163 406.253, 284.758 404.742, 294.643 403.304, 304.051 402.011, 313.967 400.718, 323.883 400.688, 324.117 399.602, 334.058 398.515, 343.999 398.420, 344.867 397.532, 354.827 396.643, 364.787 396.517, 366.202 395.819, 376.178 395.121, 386.154 394.991, 388.022 395.015, 388.126 397.251, 397.873 399.487, 407.620 400.870, 413.647 401.126, 414.761 403.453, 424.486 405.781, 434.212 407.321, 440.647 409.742, 450.349 412.164, 460.052 413.578, 465.719 416.097, 475.396 418.616, 485.074 419.900, 490.011 422.519, 499.662 425.137, 509.313 426.289, 513.559 429.010, 523.182 431.731, 532.805 432.746, 536.396 435.572, 545.989 438.398, 555.581 439.274, 558.554 442.208, 568.113 445.142, 577.673 445.875, 580.061 448.919, 589.587 451.964, 599.112 452.551, 600.950 455.708, 610.438 458.865, 619.927 459.304, 621.246 462.576, 630.695 465.848, 640.145 466.137, 640.977 469.526, 650.386 472.915, 659.794 473.051, 660.171 476.559, 669.535 480.049, 678.850 483.678, 688.169 486.721, 695.982 " fill="none" stroke="rgb(0, 0, 0)" stroke-linecap="butt" stroke-linejoin="round" stroke-opacity="1.0" stroke-width="3.0" />
            <path d=" M 482.446, 615.158 481.952, 613.264 482.424, 616.415 " fill="none" stroke="rgb(0, 0, 0)" stroke-linecap="butt" stroke-linejoin="round" stroke-opacity="1.0" stroke-width="3.0" />
            <path d=" M 482.565, 631.812 482.184, 630.432 482.574, 632.686 " fill="none" stroke="rgb(0, 0, 0)" stroke-linecap="butt" stroke-linejoin="round" stroke-opacity="1.0" stroke-width="3.0" />
            <path d=" M 476.888, 611.554 478.530, 621.418 480.173, 631.283 481.815, 641.147 482.864, 647.445 " fill="none" stroke="rgb(0, 0, 0)" stroke-linecap="butt" stroke-linejoin="round" stroke-opacity="1.0" stroke-width="3.0" />
            <path d=" M 482.864, 647.445 483.069, 648.479 " fill="none" stroke="rgb(0, 0, 0)" stroke-linecap="butt" stroke-linejoin="round" stroke-opacity="1.0" stroke-width="3.0" />
            <path d=" M 483.054, 648.089 482.864, 647.445 480.009, 637.861 477.256, 628.618 479.107, 638.445 480.957, 648.272 482.808, 658.099 483.881, 663.798 " fill="none" stroke="rgb(0, 0, 0)" stroke-linecap="butt" stroke-linejoin="round" stroke-opacity="1.0" stroke-width="3.0" />
            <path d=" M 483.897, 664.030 480.845, 654.507 477.972, 645.542 480.043, 655.325 482.114, 665.109 484.185, 674.892 484.986, 678.675 " fill="none" stroke="rgb(0, 0, 0)" stroke-linecap="butt" stroke-linejoin="round" stroke-opacity="1.0" stroke-width="3.0" />
            <path d=" M 478.954, 662.290 481.245, 672.024 483.537, 681.758 485.828, 691.492 486.532, 694.486 " fill="none" stroke="rgb(0, 0, 0)" stroke-linecap="butt" stroke-linejoin="round" stroke-opacity="1.0" stroke-width="3.0" />
            <path d=" M 365.741, 379.683 360.973, 388.472 358.475, 393.077 " fill="none" stroke="rgb(0, 0, 0)" stroke-linecap="butt" stroke-linejoin="round" stroke-opacity="1.0" stroke-width="3.0" />
            <path d=" M 469.144, 125.942 463.681, 126.336 " fill="none" stroke="rgb(0, 0, 0)" stroke-linecap="butt" stroke-linejoin="round" stroke-opacity="1.0" stroke-width="3.0" />
            <path d=" M 549.514, 212.596 548.858, 210.827 545.867, 202.764 " fill="none" stroke="rgb(0, 0, 0)" stroke-linecap="butt" stroke-linejoin="round" stroke-opacity="1.0" stroke-width="3.0" />
            <path d=" M 553.032, 220.896 549.838, 213.443 " fill="none" stroke="rgb(0, 0, 0)" stroke-linecap="butt" stroke-linejoin="round" stroke-opacity="1.0" stroke-width="3.0" />
            <path d=" M 558.836, 233.077 554.439, 224.099 " fill="none" stroke="rgb(0, 0, 0)" stroke-linecap="butt" stroke-linejoin="round" stroke-opacity="1.0" stroke-width="3.0" />
            <path d=" M 791.457, 540.756 791.565, 542.612 " fill="none" stroke="rgb(0, 0, 0)" stroke-linecap="butt" stroke-linejoin="round" stroke-opacity="1.0" stroke-width="3.0" />
            <path d=" M 794.868, 522.081 794.338, 516.005 " fill="none" stroke="rgb(0, 0, 0)" stroke-linecap="butt" stroke-linejoin="round" stroke-opacity="1.0" stroke-width="3.0" />
            <path d=" M 800.277, 519.109 800.057, 516.555 " fill="none" stroke="rgb(0, 0, 0)" stroke-linecap="butt" stroke-linejoin="round" stroke-opacity="1.0" stroke-width="3.0" />
            <path d=" M 801.490, 518.155 801.364, 516.680 " fill="none" stroke="rgb(0, 0, 0)" stroke-linecap="butt" stroke-linejoin="round" stroke-opacity="1.0" stroke-width="3.0" />
        </g>
    </g>
</svg>
