<?xml version='1.0' encoding='ascii'?>
<svg xmlns="http://www.w3.org/2000/svg" height="1080" version="1.1" width="1080">
    <g id="View Layer_LineSet" inkscape:groupmode="lineset" inkscape:label="View Layer_LineSet" xmlns:inkscape="http://www.inkscape.org/namespaces/inkscape">
        <g id="strokes" inkscape:groupmode="layer" inkscape:label="strokes" xmlns:inkscape="http://www.inkscape.org/namespaces/inkscape">
            <path d=" M 358.293, 395.777 364.731, 393.534 " fill="none" stroke="rgb(0, 0, 0)" stroke-linecap="butt" stroke-linejoin="round" stroke-opacity="1.0" stroke-width="3.0" />
            <path d=" M 382.599, 393.560 392.420, 395.443 394.491, 395.841 " fill="none" stroke="rgb(0, 0, 0)" stroke-linecap="butt" stroke-linejoin="round" stroke-opacity="1.0" stroke-width="3.0" />
            <path d=" M 394.491, 395.841 390.797, 386.548 387.102, 377.256 386.649, 376.116 " fill="none" stroke="rgb(0, 0, 0)" stroke-linecap="butt" stroke-linejoin="round" stroke-opacity="1.0" stroke-width="3.0" />
            <path d=" M 463.317, 127.350 458.773, 128.682 454.189, 131.132 449.580, 134.735 444.963, 139.519 440.356, 145.504 439.050, 147.560 438.523, 148.391 435.778, 152.710 431.249, 161.149 427.064, 170.231 426.790, 170.826 423.074, 180.109 422.423, 181.736 419.114, 191.172 418.169, 193.869 415.220, 203.424 414.053, 207.208 411.422, 216.856 410.096, 221.722 407.751, 231.444 406.322, 237.373 404.237, 247.154 402.753, 254.114 400.906, 263.942 399.413, 271.889 397.785, 281.755 396.321, 290.627 394.897, 300.525 393.498, 310.254 392.267, 320.178 391.035, 330.102 390.963, 330.684 389.914, 340.629 388.865, 350.574 388.733, 351.825 387.858, 361.786 386.983, 371.748 386.822, 373.574 386.649, 376.116 384.387, 385.857 382.599, 393.560 " fill="none" stroke="rgb(0, 0, 0)" stroke-linecap="butt" stroke-linejoin="round" stroke-opacity="1.0" stroke-width="3.0" />
            <path d=" M 526.238, 715.508 527.538, 709.507 528.369, 705.669 530.315, 695.860 530.727, 693.782 532.516, 683.944 532.953, 681.541 534.594, 671.677 535.044, 668.972 536.548, 659.086 537.002, 656.103 538.376, 646.197 538.826, 642.958 540.077, 633.037 540.516, 629.562 541.650, 619.627 542.072, 615.939 542.617, 610.640 543.494, 602.111 544.410, 592.153 544.783, 588.101 545.596, 578.134 545.939, 573.930 546.651, 563.955 546.961, 559.617 547.576, 549.636 547.851, 545.185 548.371, 535.198 548.607, 530.652 555.268, 530.588 557.117, 530.570 557.255, 530.569 559.041, 530.552 562.615, 530.518 563.464, 530.509 564.403, 530.500 566.981, 530.476 576.980, 530.380 577.608, 530.374 578.017, 520.382 578.208, 515.703 578.499, 505.707 578.636, 500.963 578.810, 490.964 578.893, 486.175 578.950, 476.175 578.977, 471.357 578.917, 461.357 578.888, 456.531 578.712, 446.533 578.628, 441.715 578.334, 431.720 578.194, 426.930 577.958, 421.216 " fill="none" stroke="rgb(0, 0, 0)" stroke-linecap="butt" stroke-linejoin="round" stroke-opacity="1.0" stroke-width="3.0" />
            <path d=" M 575.046, 426.325 575.158, 429.026 575.454, 439.022 575.577, 443.193 575.755, 453.192 575.830, 457.392 575.890, 467.391 575.916, 471.602 575.859, 481.602 575.835, 485.803 575.660, 495.802 575.587, 499.977 575.295, 509.973 575.174, 514.104 575.130, 515.187 575.028, 515.804 574.919, 516.378 574.803, 516.905 574.682, 517.383 574.556, 517.809 574.426, 518.182 574.292, 518.498 574.155, 518.756 574.016, 518.956 573.876, 519.095 573.735, 519.172 573.594, 519.189 573.455, 519.143 573.317, 519.036 569.417, 515.106 569.291, 513.751 569.135, 512.520 568.950, 511.431 568.739, 510.505 568.507, 509.756 568.257, 509.198 567.993, 508.840 567.719, 508.690 567.597, 508.688 565.047, 508.647 564.085, 508.631 563.262, 508.618 559.694, 508.560 557.911, 508.531 557.831, 508.530 557.335, 508.522 557.046, 508.582 556.757, 508.851 556.472, 509.326 556.197, 509.999 555.936, 510.860 555.922, 510.919 555.694, 511.894 555.475, 513.084 555.283, 514.409 555.121, 515.849 554.992, 517.376 554.899, 518.967 555.657, 519.678 556.534, 520.502 557.475, 520.518 557.595, 520.520 557.630, 520.521 559.378, 520.552 562.947, 520.615 563.774, 520.630 564.733, 520.647 565.126, 520.654 566.938, 520.686 566.968, 520.184 567.012, 519.710 567.068, 519.276 567.103, 519.075 567.134, 518.895 567.210, 518.577 567.292, 518.331 567.351, 518.215 567.378, 518.163 567.467, 518.077 567.555, 518.077 " fill="none" stroke="rgb(0, 0, 0)" stroke-linecap="butt" stroke-linejoin="round" stroke-opacity="1.0" stroke-width="3.0" />
            <path d=" M 567.976, 521.699 574.596, 528.162 577.608, 530.374 " fill="none" stroke="rgb(0, 0, 0)" stroke-linecap="butt" stroke-linejoin="round" stroke-opacity="1.0" stroke-width="3.0" />
            <path d=" M 392.206, 188.773 390.214, 194.882 387.441, 204.490 386.410, 208.062 383.926, 217.748 382.728, 222.419 380.501, 232.168 379.187, 237.919 377.193, 247.718 375.809, 254.519 374.026, 264.359 372.613, 272.165 371.026, 282.038 369.619, 290.791 368.213, 300.692 366.845, 310.324 365.609, 320.248 364.374, 330.171 364.310, 330.685 363.236, 340.627 362.161, 350.569 362.030, 351.780 361.109, 361.738 360.188, 371.695 360.020, 373.513 359.247, 383.483 358.474, 393.453 358.293, 395.777 357.710, 405.760 357.127, 415.743 356.969, 418.454 356.548, 428.445 356.127, 438.436 356.001, 441.412 355.739, 451.408 355.478, 461.405 355.396, 464.531 355.293, 474.531 355.189, 484.530 355.157, 487.690 355.213, 497.690 355.269, 507.690 355.287, 510.767 355.503, 520.764 355.720, 530.762 355.783, 533.641 356.164, 543.634 356.544, 553.626 356.642, 556.195 357.191, 566.180 357.741, 576.165 357.859, 578.315 358.582, 588.288 359.305, 598.262 359.424, 599.891 360.328, 609.850 361.233, 619.809 361.325, 620.823 362.420, 630.763 363.516, 640.703 363.550, 641.016 364.847, 650.931 366.084, 660.381 367.597, 670.266 368.825, 678.295 " fill="none" stroke="rgb(0, 0, 0)" stroke-linecap="butt" stroke-linejoin="round" stroke-opacity="1.0" stroke-width="3.0" />
            <path d=" M 491.876, 731.320 489.910, 737.441 486.687, 746.566 483.334, 755.157 479.855, 763.181 476.255, 770.604 472.537, 777.391 468.708, 783.504 464.772, 788.907 460.738, 793.565 456.612, 797.439 456.360, 797.621 " fill="none" stroke="rgb(0, 0, 0)" stroke-linecap="butt" stroke-linejoin="round" stroke-opacity="1.0" stroke-width="3.0" />
            <path d=" M 394.837, 390.832 394.491, 395.841 393.944, 405.826 393.397, 415.811 393.252, 418.462 392.868, 428.454 392.484, 438.447 392.372, 441.363 392.149, 451.361 391.925, 461.358 391.857, 464.426 391.792, 474.426 391.728, 484.425 391.708, 487.530 391.803, 497.529 391.898, 507.529 391.927, 510.553 392.181, 520.550 392.435, 530.547 392.507, 533.378 392.923, 543.369 393.338, 553.360 393.443, 555.886 394.023, 565.869 394.604, 575.852 394.726, 577.963 395.475, 587.935 396.225, 597.907 396.344, 599.503 397.268, 609.460 398.191, 619.418 398.282, 620.403 399.388, 630.342 400.493, 640.281 400.525, 640.569 401.821, 650.485 403.054, 659.913 404.553, 669.800 405.851, 678.357 407.567, 688.208 408.894, 695.832 410.844, 705.640 412.163, 712.278 414.368, 722.032 415.636, 727.642 418.122, 737.329 419.291, 741.886 422.088, 751.487 423.105, 754.977 426.254, 764.468 427.057, 766.889 430.606, 776.239 431.126, 777.609 435.132, 786.771 435.289, 787.129 439.527, 795.452 443.821, 802.580 444.654, 803.724 444.972, 804.161 448.152, 808.528 452.502, 813.317 456.856, 816.968 461.197, 819.506 465.510, 820.965 469.785, 821.379 474.008, 820.781 478.169, 819.209 482.257, 816.704 486.264, 813.306 490.181, 809.053 490.451, 808.695 494.002, 803.986 497.721, 798.148 501.331, 791.577 504.461, 785.076 " fill="none" stroke="rgb(0, 0, 0)" stroke-linecap="butt" stroke-linejoin="round" stroke-opacity="1.0" stroke-width="3.0" />
            <path d=" M 469.477, 803.281 465.445, 802.684 465.103, 802.550 461.391, 801.097 457.326, 798.490 456.360, 797.621 453.266, 794.836 449.224, 790.112 445.215, 784.301 441.257, 777.387 437.366, 769.358 433.560, 760.214 430.165, 750.808 429.857, 749.956 426.852, 740.419 426.276, 738.593 423.614, 728.954 422.836, 726.139 420.478, 716.421 419.556, 712.620 417.471, 702.840 416.454, 698.069 414.617, 688.239 413.549, 682.523 411.940, 672.653 410.861, 666.031 409.461, 656.129 408.405, 648.651 407.201, 638.723 406.198, 630.446 405.179, 620.498 404.257, 611.490 403.413, 601.525 402.594, 591.862 401.917, 581.885 401.240, 571.908 401.223, 571.651 400.706, 561.664 400.190, 551.677 400.153, 550.949 399.793, 540.955 399.433, 530.962 399.394, 529.855 399.187, 519.857 398.979, 509.859 398.951, 508.473 398.894, 498.473 398.838, 488.473 398.829, 486.909 398.922, 476.910 399.015, 466.910 399.030, 465.273 399.272, 455.276 399.515, 445.279 399.553, 443.675 399.946, 433.682 400.339, 423.690 400.396, 422.224 400.726, 416.189 " fill="none" stroke="rgb(0, 0, 0)" stroke-linecap="butt" stroke-linejoin="round" stroke-opacity="1.0" stroke-width="3.0" />
            <path d=" M 501.177, 773.430 499.660, 776.454 496.167, 782.543 492.581, 787.923 488.906, 792.560 485.150, 796.415 481.320, 799.449 477.425, 801.629 473.474, 802.918 469.477, 803.281 " fill="none" stroke="rgb(0, 0, 0)" stroke-linecap="butt" stroke-linejoin="round" stroke-opacity="1.0" stroke-width="3.0" />
            <path d=" M 546.107, 528.466 545.581, 538.452 545.374, 542.388 544.747, 552.369 544.505, 556.210 543.775, 566.183 543.501, 569.912 542.664, 579.877 542.362, 583.473 541.415, 593.428 541.088, 596.872 540.028, 606.816 539.680, 610.090 538.503, 620.020 538.137, 623.103 536.838, 633.018 536.462, 635.889 535.034, 645.786 534.654, 648.424 534.633, 648.558 533.070, 658.435 532.714, 660.687 531.008, 670.540 530.643, 672.650 528.784, 682.476 528.441, 684.288 526.419, 694.081 526.111, 695.575 524.447, 702.962 " fill="none" stroke="rgb(0, 0, 0)" stroke-linecap="butt" stroke-linejoin="round" stroke-opacity="1.0" stroke-width="3.0" />
            <path d=" M 548.607, 530.652 546.107, 528.466 555.357, 528.368 557.206, 528.348 562.691, 528.290 564.479, 528.271 564.804, 528.267 564.489, 527.972 563.579, 527.117 562.757, 526.346 559.297, 523.096 557.613, 521.515 557.629, 521.001 557.630, 520.521 " fill="none" stroke="rgb(0, 0, 0)" stroke-linecap="butt" stroke-linejoin="round" stroke-opacity="1.0" stroke-width="3.0" />
            <path d=" M 382.599, 393.560 382.039, 403.544 381.479, 413.529 381.278, 417.106 380.878, 427.098 380.478, 437.090 380.324, 440.948 380.082, 450.945 379.840, 460.942 379.742, 464.958 379.657, 474.958 379.572, 484.958 379.537, 489.010 379.609, 499.010 379.680, 509.010 379.709, 512.975 379.938, 522.973 380.168, 532.970 380.254, 536.726 380.644, 546.718 381.035, 556.710 381.168, 560.138 381.723, 570.122 382.277, 580.107 382.443, 583.091 383.167, 593.065 383.891, 603.039 384.068, 605.472 384.968, 615.431 385.868, 625.391 386.029, 627.173 387.113, 637.114 388.197, 647.055 388.310, 648.094 389.589, 658.012 390.868, 667.930 390.896, 668.143 392.382, 678.032 393.766, 687.240 395.474, 697.093 396.900, 705.314 398.850, 715.122 400.277, 722.301 402.491, 732.053 403.875, 738.149 406.381, 747.830 407.672, 752.817 410.502, 762.408 411.643, 766.275 414.840, 775.750 415.767, 778.497 419.382, 787.820 420.022, 789.469 424.116, 798.593 424.384, 799.190 428.833, 807.660 433.348, 814.886 437.910, 820.886 442.499, 825.683 447.098, 829.300 451.691, 831.768 456.262, 833.120 460.796, 833.396 465.282, 832.630 469.706, 830.864 474.059, 828.141 478.329, 824.503 482.509, 819.990 486.590, 814.647 " fill="none" stroke="rgb(0, 0, 0)" stroke-linecap="butt" stroke-linejoin="round" stroke-opacity="1.0" stroke-width="3.0" />
            <path d=" M 486.590, 814.647 492.298, 806.437 494.002, 803.986 " fill="none" stroke="rgb(0, 0, 0)" stroke-linecap="butt" stroke-linejoin="round" stroke-opacity="1.0" stroke-width="3.0" />
            <path d=" M 538.802, 553.391 529.685, 553.877 " fill="none" stroke="rgb(0, 0, 0)" stroke-linecap="butt" stroke-linejoin="round" stroke-opacity="1.0" stroke-width="3.0" />
            <path d=" M 541.096, 507.271 540.771, 517.266 540.447, 527.260 540.406, 528.527 539.828, 538.510 539.599, 542.458 538.872, 552.432 538.802, 553.391 534.909, 544.180 532.770, 539.118 " fill="none" stroke="rgb(0, 0, 0)" stroke-linecap="butt" stroke-linejoin="round" stroke-opacity="1.0" stroke-width="3.0" />
            <path d=" M 366.584, 368.858 366.325, 371.785 365.594, 381.758 365.551, 382.357 364.819, 392.330 364.731, 393.534 364.144, 403.516 363.556, 413.499 363.431, 415.623 362.984, 425.613 362.537, 435.603 362.431, 437.968 362.123, 447.964 361.815, 457.959 361.738, 460.480 361.682, 463.753 " fill="none" stroke="rgb(0, 0, 0)" stroke-linecap="butt" stroke-linejoin="round" stroke-opacity="1.0" stroke-width="3.0" />
            <path d=" M 532.279, 745.261 532.763, 743.087 534.792, 733.295 535.061, 731.998 536.955, 722.179 537.251, 720.642 539.018, 710.800 539.334, 709.038 540.981, 699.174 541.310, 697.202 542.841, 687.320 543.177, 685.151 544.599, 675.253 544.937, 672.901 546.254, 662.988 546.589, 660.468 547.805, 650.542 548.133, 647.865 549.252, 637.928 549.569, 635.108 550.594, 625.160 550.898, 622.209 551.831, 612.253 552.119, 609.182 552.963, 599.218 553.232, 596.041 553.989, 586.070 554.237, 582.797 554.909, 572.819 555.135, 569.462 555.723, 559.479 555.925, 556.049 556.431, 546.062 556.608, 542.569 557.032, 532.578 557.117, 530.570 " fill="none" stroke="rgb(0, 0, 0)" stroke-linecap="butt" stroke-linejoin="round" stroke-opacity="1.0" stroke-width="3.0" />
            <path d=" M 459.810, 873.890 462.225, 874.044 466.333, 874.086 470.399, 873.317 474.415, 871.765 478.376, 869.461 482.273, 866.435 486.102, 862.716 489.856, 858.335 493.532, 853.321 497.125, 847.704 500.631, 841.513 504.047, 834.776 507.370, 827.521 510.597, 819.775 513.477, 812.217 " fill="none" stroke="rgb(0, 0, 0)" stroke-linecap="butt" stroke-linejoin="round" stroke-opacity="1.0" stroke-width="3.0" />
            <path d=" M 516.700, 141.666 516.559, 141.289 513.387, 133.634 510.104, 126.502 506.713, 119.924 503.217, 113.931 499.618, 108.551 495.922, 103.819 492.131, 99.764 488.251, 96.419 484.287, 93.817 480.245, 91.988 476.133, 90.964 471.957, 90.777 470.971, 90.935 467.726, 91.455 463.449, 93.028 459.135, 95.522 454.796, 98.962 450.442, 103.371 446.085, 108.769 441.738, 115.173 437.415, 122.597 433.943, 129.445 433.131, 131.049 429.056, 140.181 428.899, 140.535 428.019, 142.757 424.735, 151.055 421.404, 160.484 420.655, 162.606 417.637, 172.139 416.675, 175.176 413.938, 184.794 412.813, 188.749 410.331, 198.436 409.083, 203.305 406.834, 213.049 405.504, 218.814 403.470, 228.605 402.091, 235.242 400.256, 245.073 398.861, 252.549 397.213, 262.412 395.830, 270.686 394.357, 280.577 393.012, 289.602 391.705, 299.516 390.423, 309.235 389.273, 319.168 388.124, 329.102 388.075, 329.520 387.077, 339.470 386.079, 349.420 385.982, 350.387 385.129, 360.351 384.277, 370.315 384.153, 371.761 383.442, 381.735 382.731, 391.710 382.599, 393.560 382.026, 403.544 381.453, 413.527 381.329, 415.702 380.891, 425.692 380.454, 435.682 380.348, 438.099 380.044, 448.095 379.740, 458.090 379.662, 460.664 379.490, 470.662 379.319, 480.661 379.273, 483.305 379.234, 493.305 379.195, 503.305 379.185, 505.933 379.278, 515.932 379.371, 525.932 379.395, 528.456 379.621, 538.454 379.848, 548.451 379.901, 550.786 380.264, 560.780 380.626, 570.773 380.701, 572.835 381.202, 582.823 381.702, 592.810 381.788, 594.519 382.430, 604.498 383.073, 614.478 383.155, 615.756 383.944, 625.725 384.732, 635.694 384.793, 636.469 385.734, 646.425 386.674, 656.381 386.693, 656.587 387.792, 666.526 388.843, 676.041 390.108, 685.961 391.231, 694.771 392.671, 704.667 393.843, 712.720 395.470, 722.587 396.666, 729.839 398.492, 739.671 399.683, 746.084 401.725, 755.874 402.882, 761.419 405.157, 771.157 406.245, 775.812 408.775, 785.487 409.757, 789.239 412.568, 798.835 413.402, 801.680 416.526, 811.180 417.165, 813.124 420.638, 822.501 421.030, 823.561 424.896, 832.783 424.983, 832.990 429.008, 841.411 433.090, 848.833 437.218, 855.265 441.376, 860.720 445.554, 865.217 449.738, 868.774 453.918, 871.415 458.084, 873.163 461.590, 873.909 462.225, 874.044 " fill="none" stroke="rgb(0, 0, 0)" stroke-linecap="butt" stroke-linejoin="round" stroke-opacity="1.0" stroke-width="3.0" />
            <path d=" M 469.498, 90.870 465.240, 91.549 460.936, 93.122 456.595, 95.616 452.228, 99.056 447.847, 103.465 443.463, 108.862 439.090, 115.265 434.740, 122.687 431.192, 129.642 430.430, 131.137 426.334, 140.260 426.172, 140.621 422.472, 149.911 422.024, 151.037 421.983, 151.138 418.634, 160.561 417.879, 162.685 414.844, 172.213 413.876, 175.251 411.123, 184.865 409.991, 188.820 407.495, 198.504 406.240, 203.371 403.978, 213.112 402.640, 218.875 400.595, 228.664 399.208, 235.298 397.363, 245.126 395.960, 252.598 394.303, 262.460 392.912, 270.729 391.431, 280.619 390.080, 289.637 388.765, 299.550 387.477, 309.263 386.321, 319.196 385.165, 329.129 385.117, 329.541 384.113, 339.490 383.110, 349.440 383.013, 350.400 382.156, 360.363 381.300, 370.326 381.176, 371.765 380.462, 381.739 379.747, 391.714 379.615, 393.556 379.040, 403.539 378.465, 413.522 378.340, 415.689 377.901, 425.679 377.462, 435.669 377.356, 438.077 377.051, 448.073 376.747, 458.068 376.669, 460.633 376.497, 470.632 376.326, 480.630 376.281, 483.266 376.243, 493.266 376.204, 503.266 376.194, 505.885 376.290, 515.884 376.385, 525.884 376.409, 528.399 376.639, 538.397 376.868, 548.394 376.922, 550.720 377.288, 560.714 377.654, 570.707 377.729, 572.761 378.235, 582.748 378.740, 592.736 378.826, 594.437 379.474, 604.416 380.122, 614.395 380.204, 615.666 381.000, 625.634 381.795, 635.603 381.856, 636.372 382.804, 646.327 383.771, 656.482 384.878, 666.421 385.937, 675.930 387.211, 685.848 388.342, 694.653 389.793, 704.547 390.973, 712.596 392.611, 722.461 393.815, 729.709 395.654, 739.539 396.854, 745.950 398.910, 755.736 400.074, 761.280 402.365, 771.014 403.461, 775.669 406.008, 785.339 406.997, 789.092 409.827, 798.684 410.667, 801.531 412.321, 806.527 413.133, 808.979 414.455, 812.972 417.949, 822.341 418.346, 823.407 422.235, 832.620 422.325, 832.834 426.376, 841.254 430.486, 848.675 434.641, 855.106 438.826, 860.562 443.031, 865.059 447.242, 868.617 451.450, 871.259 455.642, 873.008 459.810, 873.890 " fill="none" stroke="rgb(0, 0, 0)" stroke-linecap="butt" stroke-linejoin="round" stroke-opacity="1.0" stroke-width="3.0" />
            <path d=" M 471.957, 90.777 469.498, 90.870 " fill="none" stroke="rgb(0, 0, 0)" stroke-linecap="butt" stroke-linejoin="round" stroke-opacity="1.0" stroke-width="3.0" />
            <path d=" M 538.261, 766.493 538.800, 763.989 540.768, 754.184 541.198, 752.039 542.433, 745.434 543.482, 739.824 545.199, 729.972 545.653, 727.362 547.253, 717.491 547.710, 714.673 549.201, 704.784 549.655, 701.771 551.039, 691.868 551.486, 688.675 552.769, 678.757 553.204, 675.398 554.390, 665.469 554.809, 661.956 555.901, 652.016 556.303, 648.363 557.303, 638.413 557.684, 634.633 558.596, 624.675 558.953, 620.779 559.779, 610.813 560.110, 606.813 560.852, 596.840 561.156, 592.747 561.815, 582.769 562.090, 578.594 562.668, 568.611 562.914, 564.366 563.411, 554.378 563.625, 550.073 564.044, 540.081 564.226, 535.726 564.403, 530.500 " fill="none" stroke="rgb(0, 0, 0)" stroke-linecap="butt" stroke-linejoin="round" stroke-opacity="1.0" stroke-width="3.0" />
            <path d=" M 461.756, 910.514 464.137, 910.677 468.546, 910.270 472.902, 908.996 477.198, 906.889 481.426, 903.984 485.580, 900.315 489.654, 895.918 493.643, 890.826 497.542, 885.073 501.347, 878.693 505.055, 871.717 508.663, 864.178 512.167, 856.105 515.566, 847.528 518.858, 838.477 521.250, 831.339 " fill="none" stroke="rgb(0, 0, 0)" stroke-linecap="butt" stroke-linejoin="round" stroke-opacity="1.0" stroke-width="3.0" />
            <path d=" M 541.168, 189.894 539.484, 182.095 537.205, 172.358 536.898, 171.049 536.862, 170.907 534.400, 161.215 534.186, 160.373 531.526, 150.733 531.348, 150.091 528.469, 140.515 528.384, 140.232 525.295, 130.823 522.081, 121.895 518.744, 113.477 515.285, 105.601 511.707, 98.301 508.011, 91.610 504.201, 85.563 500.280, 80.194 496.252, 75.540 492.122, 71.638 487.895, 68.524 483.577, 66.235 479.175, 64.807 474.697, 64.277 472.831, 64.443 470.152, 64.681 465.548, 66.052 460.895, 68.423 456.206, 71.825 451.492, 76.288 446.766, 81.836 442.042, 88.491 437.335, 96.274 432.660, 105.197 431.229, 108.314 428.035, 115.270 426.584, 118.844 423.476, 126.498 420.285, 135.329 419.002, 138.879 415.926, 148.394 414.630, 152.404 411.844, 162.008 410.379, 167.059 407.856, 176.736 406.269, 182.823 406.130, 183.416 403.846, 193.151 402.319, 199.665 400.255, 209.450 398.547, 217.550 396.687, 227.375 394.973, 236.432 393.303, 246.292 391.615, 256.261 390.123, 266.149 388.632, 276.038 388.490, 276.976 387.167, 286.888 385.844, 296.800 385.616, 298.510 384.454, 308.443 383.291, 318.375 383.008, 320.790 382.000, 330.739 380.991, 340.688 380.682, 343.734 379.821, 353.697 378.960, 363.660 378.649, 367.256 377.932, 377.231 377.214, 387.205 376.922, 391.265 376.344, 401.248 375.767, 411.231 375.510, 415.662 375.070, 425.653 374.629, 435.643 374.422, 440.349 374.116, 450.345 373.811, 460.340 373.662, 465.223 373.491, 475.222 373.320, 485.220 373.235, 490.180 373.198, 500.180 373.161, 510.180 373.142, 515.113 373.240, 525.113 373.337, 535.112 373.384, 539.919 373.617, 549.916 373.849, 559.914 373.956, 564.495 374.327, 574.488 374.697, 584.481 374.855, 588.739 375.366, 598.726 375.877, 608.713 376.074, 612.555 376.729, 622.533 377.385, 632.512 377.604, 635.849 378.408, 645.816 379.213, 655.784 379.435, 658.533 380.394, 668.487 381.354, 678.441 381.555, 680.527 382.676, 690.464 383.797, 700.401 383.950, 701.753 385.242, 711.669 386.533, 721.586 386.606, 722.144 388.078, 732.035 389.508, 741.637 391.172, 751.497 391.884, 755.710 392.638, 760.178 394.509, 770.001 395.980, 777.721 396.834, 781.707 398.928, 791.486 399.515, 794.226 401.853, 803.949 403.226, 809.662 404.720, 815.199 407.096, 824.005 409.995, 833.575 410.271, 834.484 411.105, 837.236 414.333, 846.700 415.235, 849.345 418.833, 858.675 419.471, 860.327 423.487, 869.485 423.793, 870.184 428.186, 878.921 432.635, 886.551 437.123, 893.089 441.637, 898.553 446.162, 902.968 450.686, 906.359 455.197, 908.753 459.684, 910.182 462.258, 910.468 464.137, 910.677 " fill="none" stroke="rgb(0, 0, 0)" stroke-linecap="butt" stroke-linejoin="round" stroke-opacity="1.0" stroke-width="3.0" />
            <path d=" M 366.960, 364.323 366.699, 367.280 366.584, 368.858 365.852, 378.831 365.601, 382.264 364.942, 391.251 364.833, 393.112 364.245, 403.095 363.657, 413.078 363.508, 415.610 363.062, 425.600 362.681, 434.113 362.406, 440.258 362.098, 450.253 361.790, 460.249 361.682, 463.753 361.641, 465.093 361.471, 475.091 361.300, 485.090 361.216, 490.010 361.184, 500.010 361.151, 510.010 361.135, 514.904 361.149, 516.230 361.150, 516.358 " fill="none" stroke="rgb(0, 0, 0)" stroke-linecap="butt" stroke-linejoin="round" stroke-opacity="1.0" stroke-width="3.0" />
            <path d=" M 472.269, 64.377 467.695, 64.782 463.061, 66.154 458.380, 68.525 453.661, 71.928 448.918, 76.390 444.163, 81.937 439.410, 88.592 434.674, 96.373 429.972, 105.294 425.777, 114.372 425.319, 115.365 423.708, 119.308 420.733, 126.590 417.315, 135.987 416.338, 138.675 416.232, 138.967 415.983, 139.730 412.890, 149.240 411.834, 152.488 409.033, 162.087 407.559, 167.138 405.022, 176.811 403.425, 182.896 401.129, 192.629 399.452, 199.733 397.630, 208.325 395.660, 217.612 393.789, 227.435 392.066, 236.488 390.387, 246.346 388.689, 256.309 387.190, 266.196 385.690, 276.083 385.548, 277.017 384.218, 286.928 382.888, 296.839 382.659, 298.543 381.490, 308.474 380.322, 318.406 380.038, 320.814 379.024, 330.762 378.010, 340.711 377.700, 343.749 376.835, 353.712 375.970, 363.674 375.658, 367.262 374.937, 377.236 374.216, 387.210 373.924, 391.261 373.343, 401.244 372.763, 411.227 372.506, 415.649 372.064, 425.639 371.622, 435.630 371.414, 440.327 371.108, 450.322 370.802, 460.317 370.653, 465.191 370.482, 475.189 370.311, 485.188 370.227, 490.137 370.191, 500.137 370.155, 510.137 370.137, 515.061 370.236, 525.060 370.336, 535.060 370.383, 539.857 370.619, 549.854 370.855, 559.852 370.962, 564.423 371.337, 574.416 371.711, 584.409 371.870, 588.658 372.386, 598.645 372.902, 608.632 373.100, 612.465 373.761, 622.443 374.422, 632.421 374.642, 635.750 375.453, 645.717 376.264, 655.684 376.487, 658.427 377.454, 668.380 378.421, 678.333 378.623, 680.412 379.753, 690.348 380.883, 700.284 381.036, 701.631 382.338, 711.546 383.639, 721.461 383.712, 722.015 384.525, 727.440 386.008, 737.330 386.634, 741.502 388.311, 751.360 389.786, 760.037 391.502, 768.977 393.151, 777.575 393.682, 780.035 395.791, 789.811 396.711, 794.075 399.064, 803.794 400.448, 809.507 401.776, 814.396 404.343, 823.846 407.261, 833.411 408.379, 837.074 411.627, 846.532 412.537, 849.181 416.156, 858.503 416.800, 860.161 420.839, 869.309 421.151, 870.016 425.574, 878.753 430.051, 886.382 434.568, 892.919 439.111, 898.384 443.666, 902.799 448.219, 906.191 452.759, 908.587 457.275, 910.017 461.756, 910.514 " fill="none" stroke="rgb(0, 0, 0)" stroke-linecap="butt" stroke-linejoin="round" stroke-opacity="1.0" stroke-width="3.0" />
            <path d=" M 474.697, 64.277 472.269, 64.377 " fill="none" stroke="rgb(0, 0, 0)" stroke-linecap="butt" stroke-linejoin="round" stroke-opacity="1.0" stroke-width="3.0" />
            <path d=" M 548.814, 211.227 548.595, 209.919 546.810, 200.080 546.331, 197.442 544.402, 187.630 543.937, 185.262 541.855, 175.481 541.412, 173.402 539.164, 163.658 538.755, 161.887 536.328, 152.186 535.967, 150.742 533.345, 141.092 533.047, 139.995 530.211, 130.406 529.995, 129.673 526.924, 120.157 526.811, 119.807 523.496, 110.426 520.051, 101.563 516.478, 93.252 512.778, 85.526 508.953, 78.421 505.006, 71.975 500.940, 66.224 496.760, 61.207 492.469, 56.963 488.074, 53.531 483.579, 50.953 478.992, 49.266 474.321, 48.511 469.491, 48.719 464.685, 48.938 459.811, 50.163 454.882, 52.433 449.909, 55.781 444.904, 60.240 439.882, 65.839 434.857, 72.603 429.845, 80.555 425.066, 89.340 424.863, 89.713 420.568, 98.743 419.929, 100.087 416.059, 109.308 415.062, 111.685 411.567, 121.055 410.280, 124.508 407.120, 133.995 405.604, 138.548 402.744, 148.130 401.054, 153.792 398.465, 163.451 396.652, 170.219 394.310, 179.941 392.417, 187.798 392.206, 188.773 390.091, 198.547 388.372, 206.494 386.467, 216.311 384.537, 226.258 382.827, 236.111 381.118, 245.964 380.931, 247.038 379.405, 256.921 377.879, 266.803 377.576, 268.768 376.223, 278.676 374.871, 288.584 374.489, 291.379 373.301, 301.309 372.114, 311.238 371.688, 314.791 370.658, 324.738 369.628, 334.685 369.190, 338.918 368.871, 342.539 367.992, 352.501 367.114, 362.462 367.008, 363.667 366.960, 364.323 366.844, 365.900 366.113, 375.873 365.652, 382.169 365.156, 388.938 364.935, 392.686 364.348, 402.669 363.760, 412.651 363.644, 414.627 363.197, 424.617 362.750, 434.607 362.481, 440.627 362.173, 450.622 362.135, 451.848 361.827, 461.843 361.674, 466.825 361.504, 476.824 361.343, 486.286 361.226, 493.110 361.194, 503.110 361.161, 513.110 361.150, 516.292 361.150, 516.358 361.140, 519.367 361.246, 529.366 361.351, 539.366 361.415, 545.482 361.659, 555.479 361.904, 565.477 362.047, 571.346 362.433, 581.338 362.819, 591.331 363.032, 596.848 363.563, 606.834 364.093, 616.820 364.362, 621.884 365.041, 631.861 365.719, 641.838 366.027, 646.354 366.859, 656.319 367.691, 666.284 368.015, 670.163 368.825, 678.295 369.817, 688.246 370.313, 693.224 371.472, 703.157 372.631, 713.090 372.907, 715.457 374.241, 725.367 375.576, 735.278 375.779, 736.787 377.300, 746.671 378.821, 756.555 378.913, 757.151 380.633, 767.002 382.290, 776.492 384.224, 786.303 385.891, 794.761 388.057, 804.523 389.697, 811.917 392.115, 821.621 393.687, 827.930 396.382, 837.560 397.842, 842.775 400.844, 852.314 402.142, 856.436 405.487, 865.860 406.568, 868.903 410.298, 878.181 411.100, 880.174 415.267, 889.264 415.720, 890.252 420.411, 899.147 425.154, 906.873 429.935, 913.449 434.737, 918.898 439.546, 923.246 444.348, 926.523 449.131, 928.760 453.884, 929.991 458.675, 930.331 463.327, 930.587 467.928, 929.908 472.469, 928.331 476.943, 925.894 481.343, 922.633 485.660, 918.588 489.891, 913.795 494.030, 908.291 498.072, 902.112 502.013, 895.293 505.850, 887.868 509.580, 879.870 513.201, 871.332 516.711, 862.285 520.069, 852.866 520.107, 852.759 523.232, 843.260 523.389, 842.782 524.618, 838.746 " fill="none" stroke="rgb(0, 0, 0)" stroke-linecap="butt" stroke-linejoin="round" stroke-opacity="1.0" stroke-width="3.0" />
            <path d=" M 540.781, 774.154 542.724, 764.345 543.094, 762.480 544.910, 752.646 545.438, 749.789 547.135, 739.934 547.666, 736.853 549.249, 726.980 549.776, 723.692 551.250, 713.802 551.769, 710.322 553.140, 700.416 553.646, 696.759 554.917, 686.840 555.407, 683.018 556.582, 673.087 557.052, 669.115 558.134, 659.174 558.581, 655.063 559.573, 645.113 559.996, 640.877 560.900, 630.918 561.295, 626.568 562.115, 616.602 562.481, 612.151 563.217, 602.178 563.552, 597.635 564.206, 587.657 564.509, 583.035 565.083, 573.051 565.353, 568.360 565.847, 558.372 566.082, 553.621 566.498, 543.630 566.698, 538.831 566.981, 530.476 " fill="none" stroke="rgb(0, 0, 0)" stroke-linecap="butt" stroke-linejoin="round" stroke-opacity="1.0" stroke-width="3.0" />
            <path d=" M 474.321, 48.511 469.575, 48.726 464.762, 49.950 459.893, 52.219 454.981, 55.566 450.037, 60.026 445.075, 65.625 440.111, 72.392 435.159, 80.347 430.425, 89.156 430.236, 89.508 427.397, 95.552 425.360, 99.887 421.530, 109.125 420.549, 111.492 417.092, 120.875 415.823, 124.321 413.036, 132.789 411.200, 138.370 408.372, 147.961 406.741, 153.493 406.702, 153.623 404.634, 161.434 402.349, 170.061 400.034, 179.789 398.162, 187.652 396.071, 197.431 394.161, 206.361 393.833, 208.074 391.949, 217.895 390.368, 226.139 388.677, 235.995 386.987, 245.851 386.801, 246.934 385.292, 256.819 384.479, 262.141 383.481, 268.680 382.143, 278.591 380.805, 288.501 380.426, 291.309 379.250, 301.239 378.075, 311.170 377.653, 314.739 376.633, 324.687 375.614, 334.635 375.178, 338.884 374.309, 348.846 373.439, 358.809 373.016, 363.652 372.292, 373.626 371.568, 383.600 371.180, 388.943 370.598, 398.926 370.015, 408.909 369.680, 414.653 369.236, 424.643 368.793, 434.633 368.524, 440.673 368.218, 450.668 367.911, 460.663 367.720, 466.892 367.549, 476.891 367.379, 486.889 367.271, 493.198 367.236, 503.198 367.201, 513.198 367.179, 519.475 367.280, 529.475 367.382, 539.474 367.444, 545.612 367.682, 555.609 367.921, 565.606 368.062, 571.495 368.440, 581.488 368.818, 591.481 369.028, 597.017 369.549, 607.003 370.070, 616.990 370.335, 622.072 371.002, 632.049 371.670, 642.027 371.973, 646.560 372.792, 656.526 373.611, 666.492 373.931, 670.386 373.998, 671.073 374.716, 678.389 375.693, 688.342 376.195, 693.464 377.337, 703.399 378.478, 713.333 378.752, 715.712 380.067, 725.625 381.382, 735.538 381.583, 737.057 381.942, 739.423 383.041, 746.665 384.540, 756.552 384.674, 757.434 386.370, 767.289 388.005, 776.787 389.912, 786.603 391.557, 795.066 392.621, 799.933 394.758, 809.702 395.311, 812.233 397.698, 821.944 399.248, 828.254 401.910, 837.894 403.349, 843.107 406.314, 852.657 407.361, 856.029 407.592, 856.773 410.898, 866.211 411.960, 869.245 415.648, 878.541 416.434, 880.520 420.556, 889.631 420.995, 890.601 425.625, 899.498 430.308, 907.225 435.028, 913.801 439.769, 919.249 444.517, 923.595 449.259, 926.870 453.982, 929.104 458.675, 930.331 " fill="none" stroke="rgb(0, 0, 0)" stroke-linecap="butt" stroke-linejoin="round" stroke-opacity="1.0" stroke-width="3.0" />
            <path d=" M 565.364, 519.150 565.370, 519.045 565.428, 518.040 565.456, 517.557 565.581, 516.027 565.738, 514.586 565.924, 513.258 566.136, 512.067 566.370, 511.031 566.622, 510.169 566.887, 509.495 567.161, 509.019 567.440, 508.750 567.596, 508.716 567.719, 508.690 " fill="none" stroke="rgb(0, 0, 0)" stroke-linecap="butt" stroke-linejoin="round" stroke-opacity="1.0" stroke-width="3.0" />
            <path d=" M 554.899, 518.967 555.681, 518.981 557.527, 519.013 557.534, 519.013 562.987, 519.108 564.772, 519.140 565.190, 519.147 565.364, 519.150 566.938, 520.686 " fill="none" stroke="rgb(0, 0, 0)" stroke-linecap="butt" stroke-linejoin="round" stroke-opacity="1.0" stroke-width="3.0" />
            <path d=" M 557.613, 521.515 562.919, 521.609 564.705, 521.641 565.084, 521.648 567.261, 521.686 567.976, 521.699 567.992, 521.185 567.994, 520.672 567.981, 520.173 567.953, 519.701 567.913, 519.270 567.887, 519.089 567.859, 518.891 567.795, 518.574 567.722, 518.329 567.641, 518.162 567.555, 518.077 " fill="none" stroke="rgb(0, 0, 0)" stroke-linecap="butt" stroke-linejoin="round" stroke-opacity="1.0" stroke-width="3.0" />
            <path d=" M 621.726, 922.410 623.899, 922.940 631.743, 924.624 639.597, 925.559 647.444, 925.762 655.267, 925.252 663.048, 924.046 670.774, 922.166 678.429, 919.632 686.001, 916.464 693.476, 912.686 700.843, 908.318 708.090, 903.383 715.208, 897.903 722.187, 891.900 729.019, 885.397 735.694, 878.416 742.207, 870.978 748.480, 863.190 748.549, 863.104 754.518, 855.081 754.715, 854.817 760.390, 846.584 760.699, 846.136 766.091, 837.715 766.495, 837.083 771.613, 828.492 772.099, 827.677 776.953, 818.934 777.507, 817.938 782.106, 809.058 782.713, 807.885 787.066, 798.882 787.716, 797.537 791.829, 788.422 792.511, 786.912 796.393, 777.696 797.095, 776.027 800.752, 766.720 801.466, 764.902 804.904, 755.511 805.622, 753.551 808.846, 744.086 809.559, 741.993 812.575, 732.459 813.275, 730.244 816.087, 720.647 816.770, 718.318 819.382, 708.665 820.040, 706.233 822.456, 696.529 823.085, 694.002 825.307, 684.253 825.903, 681.642 827.935, 671.851 828.491, 669.167 830.335, 659.338 830.851, 656.591 832.508, 646.729 832.978, 643.929 834.450, 634.037 834.873, 631.194 836.161, 621.277 836.535, 618.401 837.640, 608.462 837.962, 605.564 838.883, 595.607 839.153, 592.696 839.891, 582.724 840.107, 579.812 840.662, 569.827 840.823, 566.924 841.194, 556.931 841.301, 554.047 841.485, 544.049 841.538, 541.194 841.536, 531.194 841.535, 528.380 841.343, 518.382 841.290, 515.618 840.906, 505.625 840.802, 502.922 840.224, 492.939 840.071, 490.307 839.295, 480.337 839.096, 477.787 838.118, 467.835 837.876, 465.377 836.692, 455.448 836.411, 453.092 835.015, 443.190 834.699, 440.948 833.086, 431.079 832.740, 428.959 830.905, 419.129 830.534, 417.142 828.469, 407.358 828.080, 405.514 825.779, 395.782 825.379, 394.091 822.833, 384.420 822.430, 382.889 819.631, 373.289 819.234, 371.928 816.172, 362.408 815.791, 361.224 812.455, 351.797 812.101, 350.796 808.480, 341.475 808.165, 340.664 804.247, 331.463 803.984, 330.846 799.757, 321.783 799.561, 321.362 795.011, 312.457 794.896, 312.233 789.993, 303.480 784.852, 295.123 779.479, 287.184 773.876, 279.685 768.047, 272.649 761.998, 266.098 755.734, 260.054 749.260, 254.541 742.585, 249.581 735.714, 245.198 728.658, 241.415 721.425, 238.253 714.025, 235.735 706.470, 233.883 698.772, 232.718 690.944, 232.261 683.001, 232.530 680.789, 232.676 " fill="none" stroke="rgb(0, 0, 0)" stroke-linecap="butt" stroke-linejoin="round" stroke-opacity="1.0" stroke-width="3.0" />
            <path d=" M 623.899, 922.940 623.251, 922.737 616.083, 920.492 608.317, 917.267 600.620, 913.252 593.012, 908.438 585.517, 902.818 578.157, 896.386 571.107, 889.294 570.954, 889.140 564.385, 881.600 563.932, 881.081 557.838, 873.152 557.115, 872.212 551.484, 863.947 550.526, 862.541 549.420, 860.713 544.190, 852.077 540.564, 845.350 538.131, 840.836 533.805, 831.820 532.372, 828.835 529.475, 822.044 526.936, 816.095 526.384, 814.635 525.235, 811.598 521.847, 802.642 519.303, 795.025 518.219, 791.776 517.126, 788.505 514.314, 778.908 512.794, 773.718 511.368, 768.123 510.085, 763.087 508.870, 758.318 506.732, 748.549 505.374, 742.345 503.555, 732.512 502.322, 725.844 500.813, 715.959 499.730, 708.864 499.277, 705.139 498.069, 695.212 497.611, 691.454 496.696, 681.496 495.977, 673.668 495.348, 663.688 494.837, 655.564 494.489, 645.570 494.198, 637.200 494.126, 627.201 494.065, 618.637 494.266, 608.639 494.441, 599.936 494.912, 589.947 495.326, 581.161 496.064, 571.188 496.172, 569.739 496.717, 562.375 497.723, 552.426 498.610, 543.643 499.883, 533.724 500.217, 531.117 500.999, 525.027 501.773, 520.056 501.846, 519.588 503.386, 509.707 503.872, 506.591 505.681, 496.756 507.219, 488.395 509.299, 478.614 511.025, 470.500 513.381, 460.781 515.276, 452.963 517.911, 443.317 519.953, 435.840 522.610, 427.135 522.673, 426.928 525.037, 419.184 528.246, 409.713 530.506, 403.043 531.418, 400.606 534.925, 391.241 536.108, 388.081 536.339, 387.464 540.150, 378.219 541.861, 374.070 542.512, 372.490 546.637, 363.380 549.001, 358.160 552.675, 350.762 554.320, 347.448 555.780, 344.509 559.178, 338.266 560.801, 335.284 562.824, 331.568 563.148, 331.026 568.273, 322.439 569.522, 320.346 570.011, 319.525 570.107, 319.365 575.587, 311.000 577.602, 307.923 583.448, 299.809 585.284, 297.261 591.506, 289.433 593.125, 287.396 596.717, 283.318 601.101, 278.340 608.104, 271.201 609.185, 270.100 616.587, 263.376 617.353, 262.681 625.156, 256.427 625.581, 256.086 633.845, 250.313 642.123, 245.358 650.393, 241.214 658.635, 237.872 666.829, 235.319 674.957, 233.544 682.235, 232.627 683.001, 232.530 " fill="none" stroke="rgb(0, 0, 0)" stroke-linecap="butt" stroke-linejoin="round" stroke-opacity="1.0" stroke-width="3.0" />
            <path d=" M 680.789, 232.676 672.734, 233.690 664.596, 235.465 656.391, 238.016 648.139, 241.356 639.858, 245.497 631.570, 250.448 623.297, 256.216 615.488, 262.463 615.060, 262.805 607.650, 269.521 606.883, 270.217 599.872, 277.348 598.790, 278.449 595.513, 282.163 590.806, 287.497 584.576, 295.319 582.957, 297.352 577.104, 305.460 575.268, 308.003 569.781, 316.363 569.632, 316.590 569.125, 317.363 567.766, 319.433 562.877, 327.609 560.504, 331.578 560.477, 331.623 558.901, 334.513 554.113, 343.292 554.027, 343.451 553.427, 344.550 552.372, 346.671 547.917, 355.624 546.642, 358.186 542.511, 367.293 541.581, 369.343 540.149, 372.501 536.331, 381.744 533.971, 387.458 530.459, 396.821 528.135, 403.019 524.920, 412.489 522.662, 419.142 520.775, 425.313 520.143, 427.381 517.575, 435.780 514.937, 445.426 512.896, 452.883 511.364, 459.196 509.005, 468.914 508.644, 470.400 506.561, 480.181 504.836, 488.275 504.361, 490.853 502.550, 500.688 501.489, 506.449 499.947, 516.330 499.712, 517.838 499.372, 520.013 498.615, 524.865 497.810, 531.140 496.536, 541.059 496.228, 543.459 495.222, 553.408 494.336, 562.170 493.597, 572.143 492.946, 580.934 492.476, 590.923 492.063, 599.688 491.863, 609.686 491.690, 618.368 491.763, 628.367 491.826, 636.910 492.176, 646.904 492.468, 655.254 492.680, 658.598 493.311, 668.578 493.612, 673.338 494.531, 683.296 495.251, 691.104 496.464, 701.031 497.375, 708.496 497.758, 710.991 499.271, 720.876 499.973, 725.459 501.797, 735.291 503.031, 741.943 505.175, 751.710 506.533, 757.899 508.841, 766.936 510.036, 771.611 510.463, 773.284 513.281, 782.879 514.802, 788.057 517.173, 795.139 518.239, 798.321 519.531, 802.181 523.077, 811.531 524.277, 814.695 524.313, 814.790 524.628, 815.622 525.509, 817.682 528.640, 825.002 530.072, 828.351 534.406, 837.363 535.839, 840.342 538.099, 844.525 541.908, 851.575 547.095, 860.124 548.253, 862.031 553.891, 870.290 554.850, 871.695 560.952, 879.618 561.677, 880.559 568.253, 888.092 568.709, 888.614 575.765, 895.699 575.922, 895.856 583.292, 902.286 590.798, 907.905 598.415, 912.718 606.123, 916.733 613.900, 919.960 621.726, 922.410 " fill="none" stroke="rgb(0, 0, 0)" stroke-linecap="butt" stroke-linejoin="round" stroke-opacity="1.0" stroke-width="3.0" />
            <path d=" M 699.532, 331.947 691.358, 332.153 684.858, 332.957 683.069, 333.179 681.606, 333.503 674.690, 335.035 667.572, 337.300 666.246, 337.723 657.760, 341.234 649.259, 345.576 640.774, 350.770 632.650, 356.601 632.337, 356.826 624.635, 363.204 623.981, 363.745 616.706, 370.606 615.739, 371.517 608.885, 378.798 607.641, 380.120 601.196, 387.766 599.714, 389.524 593.666, 397.487 591.986, 399.699 586.335, 407.949 584.496, 410.634 579.240, 419.141 578.222, 420.789 577.958, 421.216 577.283, 422.309 575.046, 426.325 570.383, 434.695 567.877, 439.686 565.426, 444.568 564.438, 446.535 563.828, 447.750 563.680, 448.078 560.152, 455.886 558.427, 459.703 558.386, 459.792 557.648, 461.425 556.578, 464.060 552.815, 473.325 551.865, 475.664 549.089, 483.287 547.192, 488.497 546.496, 490.407 543.937, 498.304 541.571, 505.603 541.096, 507.271 538.355, 516.888 537.125, 521.202 534.726, 530.910 533.893, 534.281 533.185, 537.143 532.770, 539.118 530.712, 548.904 529.775, 553.361 529.685, 553.877 527.965, 563.727 526.907, 569.786 525.520, 579.689 524.588, 586.345 523.529, 596.289 522.817, 602.970 522.085, 612.943 521.596, 619.591 521.201, 629.583 520.941, 636.141 520.893, 646.141 520.862, 652.550 521.156, 662.101 521.361, 668.746 522.032, 678.723 522.431, 684.663 523.470, 694.608 524.058, 700.237 524.447, 702.962 524.860, 705.860 526.221, 715.415 526.238, 715.508 526.329, 716.006 527.292, 721.302 528.909, 730.195 531.071, 739.959 531.250, 740.769 532.065, 744.448 532.279, 745.261 533.741, 750.805 534.831, 754.937 535.671, 758.121 537.107, 762.764 538.261, 766.493 538.401, 766.945 539.707, 771.166 540.781, 774.154 544.151, 783.539 547.976, 792.779 548.979, 795.203 553.269, 804.236 554.165, 806.124 558.942, 814.909 559.684, 816.272 564.971, 824.761 565.508, 825.623 571.323, 833.758 571.609, 834.158 577.960, 841.861 584.533, 848.721 591.300, 854.731 598.232, 859.892 605.302, 864.201 609.316, 866.136 612.484, 867.663 619.752, 870.289 627.079, 872.088 634.442, 873.072 641.817, 873.259 649.182, 872.667 656.514, 871.315 663.795, 869.224 671.005, 866.418 678.125, 862.922 685.138, 858.759 692.029, 853.954 698.782, 848.535 705.385, 842.530 711.823, 835.962 718.085, 828.860 724.160, 821.252 730.038, 813.165 735.570, 804.834 735.709, 804.624 740.907, 796.081 741.165, 795.656 746.042, 786.926 746.398, 786.289 750.967, 777.394 751.401, 776.548 755.672, 767.506 756.166, 766.459 760.150, 757.287 760.689, 756.047 764.396, 746.759 764.963, 745.337 768.401, 735.947 768.984, 734.355 772.160, 724.872 772.746, 723.122 775.668, 713.559 776.246, 711.665 778.919, 702.029 779.480, 700.007 781.910, 690.307 782.445, 688.170 784.635, 678.413 785.137, 676.177 787.092, 666.370 787.554, 664.052 789.276, 654.201 789.693, 651.816 791.183, 641.928 791.551, 639.492 792.812, 629.572 793.127, 627.101 794.160, 617.155 794.419, 614.666 795.223, 604.698 795.424, 602.208 796.000, 592.224 796.142, 589.749 796.487, 579.754 796.572, 577.310 796.685, 567.311 796.712, 564.914 796.589, 554.915 796.560, 552.583 796.199, 542.589 796.131, 540.716 " fill="none" stroke="rgb(0, 0, 0)" stroke-linecap="butt" stroke-linejoin="round" stroke-opacity="1.0" stroke-width="3.0" />
            <path d=" M 791.539, 542.828 781.895, 544.539 776.378, 545.518 767.524, 547.089 766.809, 547.216 766.093, 547.344 765.375, 547.472 764.658, 547.601 763.808, 547.625 753.833, 546.928 752.305, 546.822 751.465, 546.587 750.659, 546.098 749.905, 545.365 749.217, 544.401 748.607, 543.223 748.089, 541.854 747.671, 540.319 747.362, 538.648 747.169, 536.872 747.095, 535.028 747.141, 533.148 747.308, 531.271 747.591, 529.433 747.985, 527.669 748.482, 526.013 749.073, 524.498 749.745, 523.151 750.486, 521.999 751.132, 521.120 751.779, 520.242 752.425, 519.366 753.070, 518.490 753.394, 518.052 757.382, 512.652 760.385, 508.585 766.326, 500.541 772.266, 492.496 775.381, 488.278 785.321, 489.373 786.233, 489.473 " fill="none" stroke="rgb(0, 0, 0)" stroke-linecap="butt" stroke-linejoin="round" stroke-opacity="1.0" stroke-width="3.0" />
            <path d=" M 822.562, 504.845 821.263, 495.298 819.615, 485.435 819.326, 483.710 817.365, 473.904 817.055, 472.350 814.769, 462.615 814.447, 461.245 811.828, 451.595 811.508, 450.418 808.547, 440.867 808.244, 439.889 804.935, 430.452 804.662, 429.674 800.989, 420.373 800.763, 419.801 796.702, 410.662 796.543, 410.306 792.072, 401.361 792.004, 401.224 787.148, 392.585 781.983, 384.415 776.518, 376.735 770.765, 369.560 764.733, 362.910 758.427, 356.824 751.855, 351.342 745.027, 346.497 737.956, 342.315 730.657, 338.815 724.008, 336.331 723.148, 336.010 715.447, 333.908 707.569, 332.542 699.532, 331.947 " fill="none" stroke="rgb(0, 0, 0)" stroke-linecap="butt" stroke-linejoin="round" stroke-opacity="1.0" stroke-width="3.0" />
            <path d=" M 667.572, 337.300 669.440, 338.367 675.379, 342.522 681.134, 347.320 686.693, 352.734 692.047, 358.733 697.190, 365.278 702.118, 372.329 706.822, 379.868 711.294, 387.879 715.525, 396.342 719.510, 405.234 723.245, 414.523 726.640, 423.929 726.730, 424.177 729.813, 433.690 729.966, 434.163 732.754, 443.766 732.953, 444.452 735.452, 454.135 735.683, 455.030 737.902, 464.781 738.152, 465.878 740.100, 475.686 740.356, 476.975 742.044, 486.831 742.295, 488.295 743.141, 494.113 743.157, 495.345 743.114, 496.587 743.011, 497.825 742.851, 499.048 742.634, 500.242 742.362, 501.395 742.039, 502.495 741.668, 503.530 741.302, 504.375 741.253, 504.490 740.797, 505.365 740.306, 506.145 739.785, 506.823 739.239, 507.391 738.674, 507.845 730.499, 513.604 724.327, 517.952 " fill="none" stroke="rgb(0, 0, 0)" stroke-linecap="butt" stroke-linejoin="round" stroke-opacity="1.0" stroke-width="3.0" />
            <path d=" M 800.419, 535.063 801.364, 535.123 802.516, 535.197 803.210, 535.241 811.120, 529.123 814.384, 526.598 816.271, 525.139 823.768, 519.340 824.144, 519.049 825.656, 518.052 830.191, 515.063 829.146, 505.118 828.874, 502.528 827.541, 492.617 827.212, 490.173 825.581, 480.307 825.204, 478.021 823.266, 468.211 822.849, 466.099 820.595, 456.357 820.149, 454.433 817.800, 445.647 817.105, 443.047 814.182, 433.484 813.718, 431.967 812.235, 427.694 809.989, 421.223 806.341, 411.912 805.921, 410.840 801.889, 401.689 801.518, 400.845 797.085, 391.881 796.782, 391.268 791.932, 382.523 791.718, 382.137 791.149, 381.224 786.331, 373.481 786.192, 373.282 780.628, 365.327 774.616, 357.706 768.301, 350.649 761.695, 344.183 754.806, 338.337 747.646, 333.141 740.228, 328.624 732.566, 324.813 724.676, 321.734 716.574, 319.417 708.279, 317.884 699.811, 317.158 689.827, 316.582 679.844, 316.006 674.523, 315.699 " fill="none" stroke="rgb(0, 0, 0)" stroke-linecap="butt" stroke-linejoin="round" stroke-opacity="1.0" stroke-width="3.0" />
            <path d=" M 699.811, 317.158 691.191, 317.261 687.947, 317.615 682.443, 318.215 673.592, 320.036 670.151, 321.076 664.664, 322.736 655.686, 326.330 650.853, 328.746 649.133, 329.606 646.689, 330.827 638.119, 335.980 637.702, 336.230 629.531, 341.995 628.758, 342.540 621.002, 348.852 619.890, 349.757 612.555, 356.554 611.132, 357.872 604.218, 365.096 602.519, 366.872 596.023, 374.474 594.086, 376.741 588.002, 384.678 585.870, 387.460 580.190, 395.690 577.905, 399.000 577.270, 400.020 576.964, 400.512 571.678, 409.001 570.229, 411.329 567.415, 416.336 565.010, 420.615 563.277, 423.698 562.876, 424.412 558.353, 433.331 558.173, 433.687 556.369, 437.245 555.881, 438.206 551.727, 447.303 549.278, 452.665 545.484, 461.917 544.415, 464.526 543.099, 467.735 539.659, 477.125 537.374, 483.364 535.577, 488.893 534.983, 490.720 534.965, 490.777 534.546, 492.066 534.543, 492.075 533.671, 494.757 532.133, 499.488 529.679, 508.077 527.401, 516.045 527.072, 517.370 525.537, 523.556 524.056, 529.525 523.717, 530.891 523.202, 532.967 522.676, 535.453 521.535, 540.843 519.558, 550.184 517.824, 560.032 516.487, 567.622 515.088, 577.524 514.002, 585.208 512.940, 595.152 512.116, 602.867 511.394, 612.841 510.838, 620.521 510.458, 630.514 510.170, 638.096 510.138, 648.096 510.124, 652.557 510.115, 655.516 510.437, 665.511 510.670, 672.707 511.355, 682.684 511.829, 689.598 512.885, 699.542 513.583, 706.120 515.020, 716.016 515.919, 722.205 " fill="none" stroke="rgb(0, 0, 0)" stroke-linecap="butt" stroke-linejoin="round" stroke-opacity="1.0" stroke-width="3.0" />
            <path d=" M 755.776, 512.498 754.511, 502.578 754.280, 500.764 754.008, 498.135 753.989, 498.368 753.828, 499.597 753.612, 500.797 753.342, 501.955 753.020, 503.060 752.651, 504.101 752.238, 505.066 751.785, 505.945 751.297, 506.729 750.780, 507.410 750.238, 507.981 749.677, 508.437 741.539, 514.248 733.401, 520.060 732.963, 520.372 732.855, 520.239 732.281, 519.535 731.533, 518.899 730.732, 518.478 729.891, 518.277 724.327, 517.952 718.732, 517.624 717.859, 517.648 716.975, 517.896 716.095, 518.365 715.234, 519.047 714.407, 519.931 713.661, 521.005 713.012, 522.251 712.438, 523.647 711.949, 525.167 711.553, 526.787 711.257, 528.479 711.067, 530.213 710.986, 531.960 711.015, 533.689 711.153, 535.371 721.131, 536.034 722.350, 536.115 727.068, 532.782 727.030, 532.244 727.036, 531.691 727.086, 531.137 727.177, 530.598 727.231, 530.390 727.309, 530.088 727.476, 529.623 727.675, 529.213 727.900, 528.871 728.144, 528.606 728.402, 528.425 728.666, 528.333 728.929, 528.331 " fill="none" stroke="rgb(0, 0, 0)" stroke-linecap="butt" stroke-linejoin="round" stroke-opacity="1.0" stroke-width="3.0" />
            <path d=" M 796.452, 522.175 800.276, 519.204 801.485, 518.264 803.074, 517.029 806.649, 514.252 807.149, 513.819 807.635, 513.285 807.854, 512.990 808.102, 512.656 808.546, 511.938 808.965, 511.138 809.354, 510.263 809.712, 509.320 810.035, 508.318 810.321, 507.263 810.568, 506.164 810.774, 505.030 810.938, 503.868 811.057, 502.690 811.131, 501.502 820.728, 504.309 822.562, 504.845 822.464, 505.627 822.259, 506.767 822.013, 507.871 821.728, 508.931 821.407, 509.939 821.052, 510.887 820.666, 511.767 820.250, 512.571 819.810, 513.292 819.347, 513.925 818.865, 514.462 818.369, 514.897 810.520, 521.093 805.942, 524.706 805.310, 523.856 805.303, 523.846 804.599, 523.195 803.843, 522.764 803.046, 522.561 801.798, 522.488 800.547, 522.415 796.452, 522.175 794.860, 522.082 791.174, 521.866 790.537, 521.888 790.343, 521.895 790.193, 521.941 789.500, 522.155 788.657, 522.643 787.831, 523.350 787.035, 524.265 786.318, 525.375 785.695, 526.664 785.143, 528.106 784.671, 529.676 784.286, 531.349 783.995, 533.095 783.805, 534.884 783.717, 536.686 783.733, 538.469 783.853, 540.203 791.420, 540.706 791.485, 540.710 795.771, 540.995 796.131, 540.716 800.250, 537.530 800.217, 536.976 800.227, 536.405 800.277, 535.834 800.367, 535.278 800.419, 535.063 800.494, 534.752 800.655, 534.270 800.846, 533.847 801.060, 533.493 801.253, 533.265 801.293, 533.218 801.538, 533.030 801.788, 532.934 802.036, 532.931 " fill="none" stroke="rgb(0, 0, 0)" stroke-linecap="butt" stroke-linejoin="round" stroke-opacity="1.0" stroke-width="3.0" />
            <path d=" M 776.378, 545.518 776.560, 550.306 776.693, 560.305 776.722, 562.517 776.611, 572.516 776.585, 574.791 776.234, 584.784 776.152, 587.105 775.562, 597.088 775.424, 599.438 774.597, 609.404 774.401, 611.769 773.339, 621.713 773.086, 624.075 771.789, 633.991 771.482, 636.336 769.948, 646.217 769.590, 648.528 767.818, 658.370 767.412, 660.631 765.401, 670.426 764.951, 672.621 762.700, 682.365 762.211, 684.478 759.715, 694.162 759.195, 696.179 756.449, 705.794 755.905, 707.700 752.905, 717.240 752.346, 719.019 749.087, 728.474 748.522, 730.114 744.997, 739.472 744.437, 740.959 740.639, 750.210 740.097, 751.532 736.018, 760.662 735.506, 761.808 731.137, 770.803 730.670, 771.762 726.000, 780.605 725.597, 781.370 720.616, 790.041 720.291, 790.605 714.988, 799.083 714.763, 799.444 709.125, 807.703 709.018, 807.859 703.067, 815.823 696.918, 823.312 690.583, 830.299 684.071, 836.756 677.397, 842.656 670.572, 847.975 663.611, 852.686 656.528, 856.762 649.340, 860.179 642.064, 862.914 634.719, 864.941 627.322, 866.238 619.895, 866.785 612.459, 866.564 609.316, 866.136 " fill="none" stroke="rgb(0, 0, 0)" stroke-linecap="butt" stroke-linejoin="round" stroke-opacity="1.0" stroke-width="3.0" />
            <path d=" M 763.808, 547.625 762.976, 547.390 762.178, 546.899 761.431, 546.163 760.750, 545.195 760.147, 544.012 759.634, 542.636 759.222, 541.094 758.917, 539.416 758.727, 537.632 758.704, 537.022 758.656, 535.778 758.704, 533.890 758.871, 532.004 759.142, 530.231 759.153, 530.156 759.545, 528.383 760.040, 526.719 760.627, 525.195 761.295, 523.842 762.030, 522.684 762.672, 521.800 763.314, 520.917 763.955, 520.036 764.595, 519.156 764.917, 518.715 768.556, 513.722 774.447, 505.641 777.361, 501.644 783.251, 493.563 786.233, 489.473 787.684, 499.367 787.796, 500.126 788.383, 504.441 789.504, 514.378 789.658, 515.744 790.193, 521.941 " fill="none" stroke="rgb(0, 0, 0)" stroke-linecap="butt" stroke-linejoin="round" stroke-opacity="1.0" stroke-width="3.0" />
            <path d=" M 794.357, 516.194 800.068, 516.741 801.367, 516.866 803.074, 517.029 " fill="none" stroke="rgb(0, 0, 0)" stroke-linecap="butt" stroke-linejoin="round" stroke-opacity="1.0" stroke-width="3.0" />
            <path d=" M 764.775, 537.420 764.456, 537.362 764.157, 537.157 763.892, 536.814 763.671, 536.349 763.505, 535.781 763.401, 535.135 763.364, 534.440 763.395, 533.726 763.493, 533.025 763.653, 532.366 763.869, 531.780 764.131, 531.292 764.427, 530.923 764.744, 530.690 765.069, 530.602 " fill="none" stroke="rgb(0, 0, 0)" stroke-linecap="butt" stroke-linejoin="round" stroke-opacity="1.0" stroke-width="3.0" />
            <path d=" M 765.069, 530.602 765.388, 530.662 765.686, 530.869 765.950, 531.212 766.170, 531.678 766.335, 532.245 766.438, 532.889 766.474, 533.582 766.443, 534.293 766.346, 534.992 766.187, 535.648 765.972, 536.233 765.712, 536.722 765.417, 537.092 765.100, 537.328 764.775, 537.420 " fill="none" stroke="rgb(0, 0, 0)" stroke-linecap="butt" stroke-linejoin="round" stroke-opacity="1.0" stroke-width="3.0" />
            <path d=" M 727.231, 530.390 730.187, 530.578 738.354, 524.808 746.521, 519.037 754.688, 513.267 755.776, 512.498 757.382, 512.652 " fill="none" stroke="rgb(0, 0, 0)" stroke-linecap="butt" stroke-linejoin="round" stroke-opacity="1.0" stroke-width="3.0" />
            <path d=" M 801.364, 535.123 801.507, 537.524 801.860, 547.518 801.961, 550.346 802.076, 560.345 802.110, 563.255 801.991, 573.255 801.956, 576.230 801.606, 586.224 801.500, 589.248 800.921, 599.231 800.744, 602.287 799.936, 612.254 799.687, 615.326 798.652, 625.272 798.332, 628.342 797.069, 638.262 796.681, 641.313 795.190, 651.202 794.735, 654.218 793.013, 664.069 792.495, 667.033 790.541, 676.841 789.965, 679.737 787.777, 689.495 787.146, 692.306 784.720, 702.007 784.042, 704.717 781.373, 714.354 780.656, 716.946 777.739, 726.511 776.990, 728.970 773.820, 738.454 773.049, 740.764 769.619, 750.157 768.835, 752.303 765.138, 761.595 764.355, 763.563 760.383, 772.740 759.613, 774.517 755.356, 783.566 754.615, 785.140 750.061, 794.043 749.365, 795.404 744.505, 804.144 743.871, 805.283 738.693, 813.838 738.141, 814.751 732.632, 823.096 732.182, 823.777 726.328, 831.884 726.003, 832.333 719.791, 840.169 719.614, 840.393 713.024, 847.928 706.245, 854.906 699.290, 861.300 692.171, 867.082 684.904, 872.224 677.503, 876.694 669.985, 880.466 662.368, 883.515 654.671, 885.813 646.914, 887.334 639.118, 888.056 631.306, 887.957 623.501, 887.016 615.729, 885.214 608.015, 882.539 600.386, 878.976 592.870, 874.515 585.496, 869.150 578.292, 862.881 571.289, 855.707 564.863, 848.045 564.518, 847.634 558.640, 839.544 558.007, 838.672 552.661, 830.221 551.787, 828.839 546.954, 820.084 545.888, 818.152 541.548, 809.143 540.340, 806.636 536.469, 797.416 535.965, 796.214 535.171, 794.323 533.196, 788.904 532.009, 785.643 530.407, 781.248 527.413, 771.707 526.618, 769.171 526.078, 767.450 525.542, 765.448 522.957, 755.788 522.205, 752.975 520.012, 743.219 519.688, 741.777 518.812, 737.876 518.242, 734.792 516.427, 724.958 515.919, 722.205 512.419, 712.838 509.368, 704.670 " fill="none" stroke="rgb(0, 0, 0)" stroke-linecap="butt" stroke-linejoin="round" stroke-opacity="1.0" stroke-width="3.0" />
            <path d=" M 674.523, 315.699 666.695, 315.779 661.926, 316.335 658.758, 316.704 650.733, 318.492 642.645, 321.157 634.518, 324.715 626.380, 329.174 618.259, 334.540 610.362, 340.676 610.182, 340.815 602.742, 347.497 602.182, 348.000 595.197, 355.156 594.289, 356.087 587.752, 363.654 586.534, 365.064 580.434, 372.989 578.950, 374.917 575.960, 379.256 575.601, 379.778 571.571, 385.627 566.679, 393.530 564.428, 397.165 564.278, 397.434 562.586, 400.472 557.719, 409.207 557.560, 409.492 557.555, 409.501 555.805, 412.989 551.321, 421.927 550.984, 422.599 546.871, 431.714 544.748, 436.417 544.253, 437.641 540.497, 446.909 538.877, 450.908 535.469, 460.310 533.399, 466.019 530.330, 475.537 528.344, 481.696 525.606, 491.313 523.738, 497.875 521.545, 506.688 519.604, 514.492 519.017, 517.230 518.982, 517.391 516.887, 527.169 516.650, 528.274 516.073, 530.965 515.964, 531.477 514.184, 541.318 512.837, 548.761 511.370, 558.653 510.240, 566.268 509.084, 576.200 508.185, 583.921 507.341, 593.885 506.683, 601.645 506.152, 611.631 505.741, 619.361 505.526, 629.358 505.362, 636.992 505.467, 646.991 505.545, 654.461 505.977, 664.452 506.290, 671.694 506.403, 673.159 507.168, 683.130 507.589, 688.619 508.690, 698.558 509.368, 704.670 509.053, 714.665 508.774, 723.505 " fill="none" stroke="rgb(0, 0, 0)" stroke-linecap="butt" stroke-linejoin="round" stroke-opacity="1.0" stroke-width="3.0" />
            <path d=" M 511.787, 739.672 513.998, 749.424 514.116, 749.944 515.317, 755.243 515.493, 755.896 518.098, 765.551 519.342, 770.161 522.035, 778.672 523.133, 782.140 523.840, 784.374 527.287, 793.761 528.783, 797.833 528.910, 798.132 530.134, 801.025 533.113, 808.061 534.145, 810.497 538.515, 819.492 539.895, 822.331 544.761, 831.067 546.005, 833.300 551.387, 841.728 552.444, 843.382 558.362, 851.443 559.179, 852.557 565.648, 860.183 566.180, 860.809 573.210, 867.921 573.415, 868.129 580.853, 874.511 588.461, 879.956 596.211, 884.468 604.073, 888.053 612.017, 890.723 620.016, 892.493 628.043, 893.379 636.074, 893.400 644.083, 892.580 652.048, 890.942 659.947, 888.510 667.760, 885.312 675.468, 881.376 683.052, 876.729 690.497, 871.400 697.787, 865.420 704.907, 858.818 711.844, 851.624 718.404, 844.077 718.587, 843.867 724.779, 836.015 725.123, 835.578 730.960, 827.458 731.443, 826.786 736.938, 818.431 737.537, 817.519 742.703, 808.957 743.397, 807.807 748.247, 799.062 749.014, 797.678 753.560, 788.771 754.382, 787.160 758.635, 778.109 759.494, 776.279 763.463, 767.100 764.344, 765.063 768.040, 755.771 768.927, 753.539 772.357, 744.145 773.238, 741.731 776.409, 732.247 777.272, 729.665 780.191, 720.100 781.025, 717.366 783.698, 707.730 784.494, 704.859 786.925, 695.159 787.674, 692.167 789.868, 682.410 790.564, 679.314 792.523, 669.508 793.159, 666.323 794.888, 656.474 795.459, 653.218 796.957, 643.331 797.459, 640.021 798.729, 630.102 799.158, 626.754 800.200, 616.809 800.554, 613.441 801.369, 603.474 801.645, 600.102 802.231, 590.120 802.428, 586.762 802.785, 576.768 802.904, 573.441 803.029, 563.442 803.070, 560.162 802.961, 550.163 802.925, 546.949 802.577, 536.955 802.516, 535.197 " fill="none" stroke="rgb(0, 0, 0)" stroke-linecap="butt" stroke-linejoin="round" stroke-opacity="1.0" stroke-width="3.0" />
            <path d=" M 508.774, 723.505 510.606, 733.336 511.787, 739.672 " fill="none" stroke="rgb(0, 0, 0)" stroke-linecap="butt" stroke-linejoin="round" stroke-opacity="1.0" stroke-width="3.0" />
            <path d=" M 817.800, 445.647 817.625, 444.610 815.728, 434.792 815.491, 433.566 813.357, 423.796 813.120, 422.709 810.745, 412.995 810.515, 412.055 807.889, 402.406 807.675, 401.620 804.789, 392.045 804.601, 391.420 801.442, 381.932 801.291, 381.478 797.850, 372.089 797.747, 371.809 794.013, 362.533 793.971, 362.430 789.966, 353.358 785.734, 344.610 781.277, 336.205 776.596, 328.164 771.695, 320.507 766.576, 313.259 761.244, 306.439 755.703, 300.066 749.959, 294.156 744.019, 288.730 737.888, 283.807 731.574, 279.407 725.083, 275.554 718.425, 272.271 711.608, 269.581 704.643, 267.502 697.541, 266.049 690.313, 265.237 682.974, 265.083 681.205, 265.206 675.535, 265.601 668.013, 266.809 660.421, 268.723 652.778, 271.357 645.101, 274.727 637.408, 278.837 629.718, 283.691 622.051, 289.289 614.426, 295.634 613.501, 296.501 606.864, 302.724 599.960, 309.958 599.389, 310.557 592.872, 318.142 592.023, 319.131 585.887, 327.027 585.560, 327.448 584.790, 328.438 579.027, 336.610 577.716, 338.469 576.618, 340.178 573.038, 345.753 572.604, 346.427 570.821, 349.203 565.764, 357.830 565.019, 359.101 564.129, 360.619 562.670, 363.341 561.016, 366.429 557.661, 372.691 556.116, 375.848 554.434, 379.284 551.441, 385.395 547.359, 394.524 545.491, 398.702 543.345, 403.967 539.834, 412.579 536.361, 421.956 534.494, 426.995 533.765, 429.170 530.586, 438.652 529.493, 441.911 526.603, 451.484 524.851, 457.285 522.242, 466.939 520.584, 473.070 518.250, 482.794 516.707, 489.218 514.644, 499.002 513.236, 505.677 511.439, 515.515 510.182, 522.399 508.844, 531.034 507.560, 539.329 506.294, 549.248 505.380, 556.413 504.382, 566.363 503.655, 573.597 502.923, 583.571 502.391, 590.824 501.924, 600.813 501.587, 608.037 501.387, 618.035 501.244, 625.179 501.315, 635.178 501.364, 642.195 501.710, 652.189 501.946, 659.029 502.571, 669.010 502.986, 675.629 503.880, 685.418 504.476, 691.941 505.677, 701.868 506.409, 707.916 507.909, 717.803 508.774, 723.505 510.583, 733.340 511.561, 738.663 511.787, 739.672 513.909, 749.444 514.059, 750.136 514.756, 753.346 515.443, 756.058 517.897, 765.752 518.344, 767.516 521.138, 777.118 521.818, 779.452 522.308, 781.135 522.909, 782.947 526.058, 792.438 526.632, 794.167 528.581, 799.356 529.750, 802.466 531.298, 806.584 532.678, 809.843 536.284, 818.359 540.581, 827.389 541.571, 829.470 546.281, 838.291 547.138, 839.895 552.283, 848.470 552.968, 849.611 558.562, 857.900 559.039, 858.606 565.093, 866.564 565.327, 866.871 571.809, 874.402 578.465, 881.194 585.273, 887.247 592.213, 892.558 599.265, 897.129 606.410, 900.961 613.630, 904.060 620.732, 906.384 620.903, 906.440 628.212, 908.115 635.537, 909.100 642.863, 909.409 650.174, 909.057 657.456, 908.058 664.693, 906.425 671.872, 904.173 678.980, 901.323 686.005, 897.897 692.935, 893.918 699.760, 889.407 706.469, 884.383 713.054, 878.865 719.505, 872.872 725.814, 866.420 731.973, 859.527 737.976, 852.216 743.816, 844.509 749.487, 836.427 754.986, 827.990 760.171, 819.439 760.306, 819.215 765.224, 810.509 765.443, 810.122 770.102, 801.274 770.392, 800.725 774.800, 791.749 775.148, 791.040 779.311, 781.948 779.707, 781.084 783.635, 771.888 784.067, 770.877 787.767, 761.586 788.225, 760.436 791.705, 751.061 792.180, 749.780 795.444, 740.327 795.929, 738.923 798.983, 729.401 799.470, 727.883 802.317, 718.296 802.799, 716.672 805.442, 707.028 805.914, 705.306 808.357, 695.609 808.813, 693.798 811.057, 684.053 811.492, 682.163 813.543, 672.375 813.953, 670.416 815.812, 660.591 816.194, 658.574 817.865, 648.714 818.215, 646.649 819.698, 636.759 820.013, 634.656 821.310, 624.740 821.588, 622.608 822.698, 612.670 822.938, 610.518 823.860, 600.561 824.060, 598.401 824.794, 588.428 824.953, 586.269 825.500, 576.284 825.618, 574.137 825.977, 564.144 826.054, 562.018 826.224, 552.020 826.260, 549.926 826.239, 539.926 826.235, 537.874 826.020, 527.877 825.977, 525.877 825.656, 518.052 " fill="none" stroke="rgb(0, 0, 0)" stroke-linecap="butt" stroke-linejoin="round" stroke-opacity="1.0" stroke-width="3.0" />
            <path d=" M 680.760, 265.197 673.312, 265.716 665.779, 266.923 658.178, 268.836 650.525, 271.469 642.838, 274.836 635.136, 278.943 627.437, 283.792 619.760, 289.386 612.254, 295.618 612.127, 295.724 604.825, 302.557 604.557, 302.807 597.646, 310.035 597.074, 310.633 590.549, 318.211 589.700, 319.198 583.557, 327.088 582.460, 328.496 579.909, 332.106 575.379, 338.516 572.722, 342.645 572.281, 343.331 569.911, 347.013 568.478, 349.239 564.798, 355.505 562.434, 359.530 561.780, 360.642 560.795, 362.477 556.066, 371.288 555.882, 371.631 555.307, 372.702 554.192, 374.975 549.788, 383.953 549.082, 385.392 544.994, 394.518 543.145, 398.645 543.128, 398.683 539.347, 407.941 537.467, 412.546 533.987, 421.921 532.123, 426.945 528.939, 436.424 527.119, 441.844 524.224, 451.416 522.751, 456.287 522.474, 457.201 519.861, 466.853 518.205, 472.968 515.868, 482.691 514.327, 489.097 512.260, 498.881 510.854, 505.538 509.056, 515.375 507.800, 522.240 506.433, 531.057 505.178, 539.150 503.911, 549.070 502.999, 556.216 502.000, 566.166 501.275, 573.380 500.543, 583.353 500.012, 590.587 499.546, 600.576 499.210, 607.780 499.011, 617.778 498.870, 624.903 498.942, 634.903 498.993, 641.900 499.340, 651.894 499.578, 658.716 500.206, 668.696 500.621, 675.297 501.535, 685.256 502.116, 691.592 502.250, 692.694 503.455, 702.621 504.053, 707.550 505.558, 717.436 506.423, 723.123 508.237, 732.958 509.216, 738.266 511.348, 748.036 512.417, 752.934 512.796, 754.427 514.195, 759.938 516.010, 767.090 518.812, 776.690 519.981, 780.696 520.792, 783.133 521.894, 786.448 524.312, 793.716 527.689, 802.681 528.862, 805.796 528.985, 806.122 531.876, 812.934 533.979, 817.887 538.284, 826.913 539.274, 828.988 543.993, 837.805 544.849, 839.405 550.003, 847.975 550.688, 849.114 556.290, 857.397 556.767, 858.102 562.829, 866.055 563.064, 866.362 569.555, 873.889 576.220, 880.678 583.037, 886.728 589.987, 892.038 597.049, 896.608 604.204, 900.440 611.433, 903.540 618.717, 905.922 " fill="none" stroke="rgb(0, 0, 0)" stroke-linecap="butt" stroke-linejoin="round" stroke-opacity="1.0" stroke-width="3.0" />
            <path d=" M 682.974, 265.083 680.760, 265.197 " fill="none" stroke="rgb(0, 0, 0)" stroke-linecap="butt" stroke-linejoin="round" stroke-opacity="1.0" stroke-width="3.0" />
            <path d=" M 618.717, 905.922 620.903, 906.440 " fill="none" stroke="rgb(0, 0, 0)" stroke-linecap="butt" stroke-linejoin="round" stroke-opacity="1.0" stroke-width="3.0" />
            <path d=" M 491.194, 727.686 491.876, 731.320 493.530, 740.136 494.448, 745.022 496.615, 754.785 498.172, 761.796 498.208, 761.938 500.710, 771.620 501.177, 773.430 502.347, 777.958 503.442, 781.647 504.461, 785.076 506.953, 793.468 507.116, 793.948 508.168, 797.055 511.374, 806.527 511.969, 808.284 512.376, 809.345 513.477, 812.217 516.575, 820.295 517.372, 822.372 517.710, 823.155 520.087, 828.650 521.250, 831.339 522.185, 833.502 523.137, 835.702 524.618, 838.746 528.993, 847.738 529.241, 848.247 534.038, 857.022 535.658, 859.985 540.893, 868.506 542.362, 870.898 548.050, 879.123 549.329, 880.972 555.483, 888.854 556.531, 890.196 563.162, 897.681 563.944, 898.564 571.056, 905.594 571.542, 906.074 579.134, 912.583 579.300, 912.725 587.193, 918.522 595.198, 923.470 603.292, 927.578 611.451, 930.859 619.656, 933.324 623.978, 934.402 632.184, 936.062 640.394, 936.939 648.590, 937.050 656.755, 936.417 664.870, 935.059 672.921, 933.000 680.893, 930.260 688.773, 926.864 696.546, 922.834 704.202, 918.194 711.728, 912.968 719.116, 907.180 726.355, 900.854 733.436, 894.012 740.352, 886.678 746.891, 879.112 747.095, 878.876 753.321, 871.051 753.658, 870.627 759.583, 862.571 760.036, 861.954 765.669, 853.691 766.222, 852.879 771.573, 844.431 772.212, 843.423 777.291, 834.809 778.001, 833.606 782.818, 824.843 783.584, 823.450 788.148, 814.552 788.958, 812.974 793.277, 803.955 794.119, 802.197 798.202, 793.068 799.065, 791.138 802.918, 781.910 803.792, 779.816 807.422, 770.498 808.298, 768.249 811.711, 758.849 812.581, 756.453 815.782, 746.979 816.638, 744.446 819.633, 734.905 820.467, 732.245 823.260, 722.643 824.068, 719.865 826.662, 710.207 827.437, 707.323 829.837, 697.615 830.574, 694.633 832.782, 684.880 833.476, 681.812 835.496, 672.018 836.144, 668.873 837.977, 659.043 838.576, 655.832 840.224, 645.969 840.769, 642.703 842.234, 632.811 842.724, 629.500 844.007, 619.583 844.439, 616.237 845.540, 606.298 845.914, 602.928 846.833, 592.971 847.146, 589.588 847.885, 579.615 848.135, 576.228 848.692, 566.244 848.881, 562.864 849.255, 552.871 849.381, 549.510 849.571, 539.511 849.635, 536.178 849.640, 526.178 849.642, 522.883 849.460, 512.885 849.401, 509.640 849.030, 499.647 848.912, 496.461 848.348, 486.477 848.172, 483.362 847.413, 473.391 847.182, 470.358 846.223, 460.404 845.940, 457.463 844.777, 447.530 844.445, 444.691 843.074, 434.786 842.697, 432.060 841.112, 422.186 840.695, 419.584 838.891, 409.748 838.438, 407.280 836.408, 397.489 835.926, 395.165 833.663, 385.424 833.159, 383.255 830.655, 373.574 830.136, 371.568 827.382, 361.955 826.857, 360.123 823.843, 350.587 823.322, 348.937 820.039, 339.491 819.531, 338.029 815.969, 328.685 815.486, 327.420 811.631, 318.193 811.187, 317.129 807.027, 308.035 806.634, 307.176 802.157, 298.235 801.831, 297.584 797.021, 288.816 796.778, 288.373 791.621, 279.805 791.477, 279.565 785.933, 271.185 780.148, 263.253 774.126, 255.794 767.871, 248.832 761.390, 242.391 754.687, 236.495 747.770, 231.169 740.645, 226.438 733.323, 222.325 725.811, 218.856 718.120, 216.055 710.261, 213.945 702.248, 212.549 694.092, 211.890 685.810, 211.990 681.406, 212.319 672.990, 213.198 664.479, 214.873 655.893, 217.361 647.250, 220.678 638.571, 224.837 629.877, 229.848 621.593, 235.450 621.192, 235.721 613.303, 241.867 612.539, 242.462 605.052, 249.091 603.943, 250.072 596.858, 257.130 595.429, 258.553 588.743, 265.988 587.025, 267.898 584.585, 270.909 578.756, 278.102 572.842, 286.166 570.652, 289.153 566.571, 295.281 566.010, 296.122 562.877, 300.827 562.739, 301.034 560.884, 304.094 558.489, 308.047 557.700, 309.349 556.873, 310.713 555.046, 313.727 553.671, 316.217 552.088, 319.083 551.979, 319.281 550.344, 322.241 547.602, 327.207 543.842, 334.676 542.227, 337.885 540.434, 341.446 539.615, 343.232 535.447, 352.321 533.571, 356.412 529.802, 365.445 527.039, 372.068 523.497, 381.420 520.865, 388.373 517.625, 397.833 515.074, 405.281 512.128, 414.837 509.691, 422.744 507.034, 432.384 504.739, 440.709 502.364, 450.423 500.237, 459.120 498.681, 466.381 496.584, 476.159 496.259, 477.677 496.207, 477.918 494.386, 487.750 492.665, 497.041 491.115, 506.920 491.032, 507.452 490.043, 513.759 489.625, 516.425 489.586, 516.725 489.491, 517.462 489.445, 517.822 489.253, 519.312 489.126, 520.295 488.582, 524.516 487.304, 534.434 487.101, 536.004 486.093, 545.953 485.103, 555.711 484.365, 565.684 483.639, 575.478 483.172, 585.467 482.714, 595.236 482.519, 605.234 482.356, 613.566 482.330, 614.916 482.330, 614.943 482.410, 624.942 482.453, 630.281 482.461, 631.290 482.486, 634.452 482.846, 644.445 482.924, 646.631 482.944, 647.172 483.181, 653.776 483.753, 662.651 483.756, 662.694 484.399, 672.673 484.408, 672.823 484.872, 677.772 485.804, 687.728 486.160, 691.530 486.434, 693.747 486.557, 694.736 487.785, 704.660 488.426, 709.837 489.958, 719.719 491.194, 727.686 " fill="none" stroke="rgb(0, 0, 0)" stroke-linecap="butt" stroke-linejoin="round" stroke-opacity="1.0" stroke-width="3.0" />
            <path d=" M 685.810, 211.990 677.416, 212.868 668.928, 214.543 660.364, 217.033 651.742, 220.354 643.085, 224.518 634.412, 229.537 626.138, 235.154 625.747, 235.420 617.869, 241.580 617.113, 242.172 609.639, 248.815 608.535, 249.796 601.464, 256.867 600.040, 258.292 593.368, 265.740 591.652, 267.656 586.945, 273.487 583.400, 277.880 577.501, 285.954 575.311, 288.952 569.782, 297.285 567.427, 300.835 567.412, 300.858 566.885, 301.732 561.716, 310.292 561.469, 310.701 559.733, 313.577 559.089, 314.747 557.499, 317.638 552.644, 326.461 552.301, 327.086 551.012, 329.657 546.529, 338.595 545.144, 341.356 540.988, 350.452 540.323, 351.908 538.291, 356.355 534.452, 365.589 531.768, 372.045 528.238, 381.401 525.602, 388.386 522.372, 397.850 519.818, 405.333 516.881, 414.892 516.013, 417.717 514.441, 422.835 511.791, 432.478 509.493, 440.841 507.125, 450.557 504.995, 459.295 502.904, 469.074 500.967, 478.136 499.150, 487.969 497.426, 497.303 495.880, 507.183 495.314, 510.802 494.838, 513.841 494.386, 516.732 494.245, 517.830 493.976, 519.917 492.957, 527.836 491.861, 536.356 490.854, 546.305 489.861, 556.108 489.122, 566.081 488.827, 570.065 488.394, 575.921 487.925, 585.910 487.464, 595.723 487.447, 596.569 487.250, 606.567 487.074, 615.449 487.126, 622.277 487.203, 632.277 487.224, 635.028 487.579, 645.022 487.911, 654.395 488.548, 664.374 489.130, 673.484 490.055, 683.441 490.461, 687.806 490.872, 692.231 492.093, 702.156 493.128, 710.577 493.179, 710.912 494.405, 718.863 494.825, 721.589 495.361, 725.069 495.884, 728.464 497.718, 738.294 499.126, 745.836 501.282, 755.601 502.837, 762.643 505.325, 772.328 506.002, 774.962 506.998, 778.837 507.066, 779.069 509.900, 788.659 511.589, 794.376 514.552, 803.171 515.588, 806.247 516.590, 809.220 520.155, 818.563 521.848, 822.999 521.976, 823.333 523.031, 825.784 526.017, 832.720 526.272, 833.312 527.725, 836.686 532.084, 845.686 533.811, 849.252 538.591, 858.035 540.209, 861.008 545.428, 869.538 546.895, 871.936 552.567, 880.172 553.842, 882.023 559.982, 889.917 561.025, 891.259 567.642, 898.757 568.418, 899.636 575.517, 906.678 575.995, 907.152 583.575, 913.674 583.731, 913.808 591.603, 919.607 599.587, 924.556 607.658, 928.663 615.796, 931.941 623.978, 934.402 " fill="none" stroke="rgb(0, 0, 0)" stroke-linecap="butt" stroke-linejoin="round" stroke-opacity="1.0" stroke-width="3.0" />
            <path d=" M 729.891, 518.277 729.025, 518.302 728.147, 518.552 727.272, 519.024 726.416, 519.710 726.176, 519.969 725.593, 520.599 724.852, 521.678 724.207, 522.931 723.636, 524.333 723.149, 525.862 722.755, 527.490 722.677, 527.938 722.460, 529.190 722.363, 530.079 722.270, 530.932 722.188, 532.687 722.214, 534.425 722.350, 536.115 " fill="none" stroke="rgb(0, 0, 0)" stroke-linecap="butt" stroke-linejoin="round" stroke-opacity="1.0" stroke-width="3.0" />
            <path d=" M 728.929, 528.331 729.183, 528.422 729.422, 528.601 729.640, 528.863 729.830, 529.203 729.987, 529.609 730.107, 530.072 730.187, 530.578 " fill="none" stroke="rgb(0, 0, 0)" stroke-linecap="butt" stroke-linejoin="round" stroke-opacity="1.0" stroke-width="3.0" />
            <path d=" M 803.046, 522.561 802.222, 522.591 801.386, 522.853 800.550, 523.344 799.730, 524.055 799.499, 524.323 798.939, 524.975 798.227, 526.092 797.609, 527.387 797.061, 528.837 796.591, 530.415 796.208, 532.097 796.132, 532.560 795.919, 533.852 795.821, 534.769 795.728, 535.650 795.639, 537.460 795.653, 539.252 795.771, 540.995 " fill="none" stroke="rgb(0, 0, 0)" stroke-linecap="butt" stroke-linejoin="round" stroke-opacity="1.0" stroke-width="3.0" />
            <path d=" M 802.036, 532.931 802.276, 533.023 802.500, 533.206 802.704, 533.476 802.881, 533.824 803.027, 534.243 803.138, 534.719 803.210, 535.241 " fill="none" stroke="rgb(0, 0, 0)" stroke-linecap="butt" stroke-linejoin="round" stroke-opacity="1.0" stroke-width="3.0" />
            <path d=" M 777.431, 477.088 777.551, 476.991 777.685, 476.915 777.831, 476.861 777.987, 476.831 778.147, 476.825 778.369, 476.857 778.587, 476.932 778.793, 477.047 778.980, 477.200 779.139, 477.383 779.268, 477.593 779.359, 477.823 779.408, 478.069 779.410, 478.299 779.369, 478.518 779.287, 478.719 779.166, 478.894 779.013, 479.036 778.828, 479.141 " fill="none" stroke="rgb(0, 0, 0)" stroke-linecap="butt" stroke-linejoin="round" stroke-opacity="1.0" stroke-width="3.0" />
            <path d=" M 777.323, 477.191 777.188, 477.372 777.158, 477.433 777.060, 477.649 777.007, 477.882 777.005, 478.129 777.018, 478.198 777.065, 478.426 777.157, 478.638 777.290, 478.827 777.340, 478.878 777.503, 479.030 777.695, 479.144 777.754, 479.174 777.952, 479.237 778.009, 479.254 778.080, 479.265 778.163, 479.272 778.259, 479.272 778.324, 479.272 778.375, 479.269 778.426, 479.263 778.474, 479.255 778.548, 479.240 778.635, 479.220 778.713, 479.196 778.778, 479.169 778.828, 479.141 " fill="none" stroke="rgb(0, 0, 0)" stroke-linecap="butt" stroke-linejoin="round" stroke-opacity="1.0" stroke-width="3.0" />
            <path d=" M 777.551, 476.991 777.493, 477.040 777.405, 477.118 777.323, 477.191 777.431, 477.088 " fill="none" stroke="rgb(0, 0, 0)" stroke-linecap="butt" stroke-linejoin="round" stroke-opacity="1.0" stroke-width="3.0" />
            <path d=" M 775.121, 474.917 775.729, 480.895 779.970, 481.072 781.419, 481.132 782.052, 480.531 780.963, 475.041 778.916, 474.885 775.547, 474.627 775.121, 474.917 " fill="none" stroke="rgb(0, 0, 0)" stroke-linecap="butt" stroke-linejoin="round" stroke-opacity="1.0" stroke-width="3.0" />
            <path d=" M 781.419, 481.132 780.818, 475.140 " fill="none" stroke="rgb(0, 0, 0)" stroke-linecap="butt" stroke-linejoin="round" stroke-opacity="1.0" stroke-width="3.0" />
            <path d=" M 780.963, 475.041 780.818, 475.140 775.121, 474.917 " fill="none" stroke="rgb(0, 0, 0)" stroke-linecap="butt" stroke-linejoin="round" stroke-opacity="1.0" stroke-width="3.0" />
            <path d=" M 741.302, 504.375 738.254, 504.444 728.266, 504.931 726.798, 505.003 716.824, 505.725 715.361, 505.831 705.405, 506.762 703.940, 506.899 694.002, 508.015 692.527, 508.180 682.609, 509.456 681.119, 509.647 671.219, 511.058 669.709, 511.273 659.826, 512.795 658.293, 513.032 648.424, 514.644 646.865, 514.899 637.007, 516.579 635.420, 516.849 625.571, 518.576 623.953, 518.859 614.108, 520.612 612.459, 520.905 602.614, 522.663 600.931, 522.964 591.085, 524.708 589.366, 525.012 579.513, 526.723 577.758, 527.028 578.167, 517.036 578.348, 512.611 578.642, 502.615 578.773, 498.125 578.952, 488.127 579.032, 483.590 579.096, 473.591 579.125, 469.025 579.074, 459.026 579.051, 454.449 578.886, 444.450 578.810, 439.879 578.530, 429.883 578.402, 425.335 578.222, 420.789 " fill="none" stroke="rgb(0, 0, 0)" stroke-linecap="butt" stroke-linejoin="round" stroke-opacity="1.0" stroke-width="3.0" />
            <path d=" M 584.585, 270.909 583.317, 269.525 577.027, 261.751 576.611, 261.237 570.783, 253.111 570.305, 252.443 564.938, 244.005 564.428, 243.203 559.521, 234.490 559.437, 234.340 " fill="none" stroke="rgb(0, 0, 0)" stroke-linecap="butt" stroke-linejoin="round" stroke-opacity="1.0" stroke-width="3.0" />
            <path d=" M 560.226, 235.898 559.437, 234.340 556.849, 229.232 555.003, 225.587 554.684, 224.872 551.429, 217.567 550.248, 214.917 550.010, 214.303 548.814, 211.227 548.205, 209.661 545.980, 203.938 " fill="none" stroke="rgb(0, 0, 0)" stroke-linecap="butt" stroke-linejoin="round" stroke-opacity="1.0" stroke-width="3.0" />
            <path d=" M 545.647, 202.877 542.449, 193.402 542.212, 192.699 541.168, 189.894 540.668, 188.552 538.616, 183.038 536.470, 177.832 534.863, 173.932 530.957, 165.417 527.649, 158.984 526.902, 157.531 523.550, 151.772 522.702, 150.315 518.365, 143.810 516.700, 141.666 513.896, 138.055 512.293, 136.323 509.302, 133.091 504.593, 128.961 499.779, 125.707 498.003, 124.862 494.980, 123.422 494.868, 123.369 489.874, 121.984 484.810, 121.595 479.688, 122.238 474.526, 123.946 469.340, 126.750 469.090, 126.939 468.667, 127.259 464.147, 130.682 463.494, 131.322 458.967, 135.764 453.820, 142.015 453.043, 143.150 450.551, 146.788 448.728, 149.450 446.592, 153.124 443.712, 158.080 439.237, 167.023 438.796, 167.905 434.806, 177.075 434.003, 178.919 430.443, 188.264 429.359, 191.110 426.183, 200.592 424.888, 204.459 422.056, 214.050 420.614, 218.935 418.094, 228.612 416.562, 234.498 414.328, 244.246 412.756, 251.105 410.786, 260.909 409.221, 268.698 407.495, 278.548 405.977, 287.211 404.480, 297.098 403.046, 306.569 401.766, 316.487 400.485, 326.405 400.448, 326.693 399.374, 336.635 398.299, 346.577 398.200, 347.494 397.323, 357.455 396.446, 367.416 396.317, 368.872 395.631, 378.849 394.944, 388.825 394.813, 390.728 394.837, 390.832 397.099, 400.573 399.361, 410.313 400.726, 416.189 400.935, 417.089 403.289, 426.808 405.644, 436.527 407.118, 442.611 409.567, 452.306 412.017, 462.002 413.364, 467.331 415.912, 477.000 418.460, 486.670 419.675, 491.282 422.324, 500.925 424.973, 510.568 426.053, 514.501 428.806, 524.115 431.559, 533.728 432.501, 537.019 435.360, 546.601 438.219, 556.184 439.020, 558.867 441.988, 568.416 444.957, 577.965 445.613, 580.075 448.692, 589.589 451.772, 599.103 452.281, 600.673 455.475, 610.149 458.669, 619.625 459.027, 620.687 462.337, 630.123 465.647, 639.560 465.853, 640.145 469.281, 649.539 472.761, 659.072 476.309, 668.422 479.753, 677.494 483.424, 686.796 486.557, 694.736 " fill="none" stroke="rgb(0, 0, 0)" stroke-linecap="butt" stroke-linejoin="round" stroke-opacity="1.0" stroke-width="3.0" />
            <path d=" M 482.356, 613.566 481.820, 611.542 482.330, 614.943 " fill="none" stroke="rgb(0, 0, 0)" stroke-linecap="butt" stroke-linejoin="round" stroke-opacity="1.0" stroke-width="3.0" />
            <path d=" M 482.453, 630.281 482.017, 628.726 482.461, 631.290 " fill="none" stroke="rgb(0, 0, 0)" stroke-linecap="butt" stroke-linejoin="round" stroke-opacity="1.0" stroke-width="3.0" />
            <path d=" M 476.715, 610.111 478.361, 619.975 480.006, 629.839 481.652, 639.702 482.662, 645.757 " fill="none" stroke="rgb(0, 0, 0)" stroke-linecap="butt" stroke-linejoin="round" stroke-opacity="1.0" stroke-width="3.0" />
            <path d=" M 482.662, 645.757 482.944, 647.172 " fill="none" stroke="rgb(0, 0, 0)" stroke-linecap="butt" stroke-linejoin="round" stroke-opacity="1.0" stroke-width="3.0" />
            <path d=" M 482.924, 646.631 482.662, 645.757 479.769, 636.185 477.052, 627.192 478.906, 637.019 480.760, 646.845 482.615, 656.672 483.730, 662.579 " fill="none" stroke="rgb(0, 0, 0)" stroke-linecap="butt" stroke-linejoin="round" stroke-opacity="1.0" stroke-width="3.0" />
            <path d=" M 483.730, 662.579 483.756, 662.694 " fill="none" stroke="rgb(0, 0, 0)" stroke-linecap="butt" stroke-linejoin="round" stroke-opacity="1.0" stroke-width="3.0" />
            <path d=" M 483.753, 662.651 483.730, 662.579 480.639, 653.069 477.737, 644.137 479.812, 653.920 481.887, 663.702 483.962, 673.484 484.872, 677.772 " fill="none" stroke="rgb(0, 0, 0)" stroke-linecap="butt" stroke-linejoin="round" stroke-opacity="1.0" stroke-width="3.0" />
            <path d=" M 478.689, 660.908 480.984, 670.641 483.280, 680.374 485.576, 690.107 486.434, 693.747 " fill="none" stroke="rgb(0, 0, 0)" stroke-linecap="butt" stroke-linejoin="round" stroke-opacity="1.0" stroke-width="3.0" />
            <path d=" M 365.551, 382.357 360.794, 391.153 358.293, 395.777 " fill="none" stroke="rgb(0, 0, 0)" stroke-linecap="butt" stroke-linejoin="round" stroke-opacity="1.0" stroke-width="3.0" />
            <path d=" M 469.090, 126.939 463.317, 127.350 " fill="none" stroke="rgb(0, 0, 0)" stroke-linecap="butt" stroke-linejoin="round" stroke-opacity="1.0" stroke-width="3.0" />
            <path d=" M 548.205, 209.661 545.647, 202.877 " fill="none" stroke="rgb(0, 0, 0)" stroke-linecap="butt" stroke-linejoin="round" stroke-opacity="1.0" stroke-width="3.0" />
            <path d=" M 551.429, 217.567 550.010, 214.303 " fill="none" stroke="rgb(0, 0, 0)" stroke-linecap="butt" stroke-linejoin="round" stroke-opacity="1.0" stroke-width="3.0" />
            <path d=" M 556.849, 229.232 554.684, 224.872 " fill="none" stroke="rgb(0, 0, 0)" stroke-linecap="butt" stroke-linejoin="round" stroke-opacity="1.0" stroke-width="3.0" />
            <path d=" M 791.420, 540.706 791.539, 542.828 " fill="none" stroke="rgb(0, 0, 0)" stroke-linecap="butt" stroke-linejoin="round" stroke-opacity="1.0" stroke-width="3.0" />
            <path d=" M 794.860, 522.082 794.357, 516.194 " fill="none" stroke="rgb(0, 0, 0)" stroke-linecap="butt" stroke-linejoin="round" stroke-opacity="1.0" stroke-width="3.0" />
            <path d=" M 800.276, 519.204 800.068, 516.741 " fill="none" stroke="rgb(0, 0, 0)" stroke-linecap="butt" stroke-linejoin="round" stroke-opacity="1.0" stroke-width="3.0" />
            <path d=" M 801.485, 518.264 801.367, 516.866 " fill="none" stroke="rgb(0, 0, 0)" stroke-linecap="butt" stroke-linejoin="round" stroke-opacity="1.0" stroke-width="3.0" />
        </g>
    </g>
</svg>
