<?xml version='1.0' encoding='ascii'?>
<svg xmlns="http://www.w3.org/2000/svg" height="1080" version="1.1" width="1080">
    <g id="View Layer_LineSet" inkscape:groupmode="lineset" inkscape:label="View Layer_LineSet" xmlns:inkscape="http://www.inkscape.org/namespaces/inkscape">
        <g id="strokes" inkscape:groupmode="layer" inkscape:label="strokes" xmlns:inkscape="http://www.inkscape.org/namespaces/inkscape">
            <path d=" M 357.813, 403.159 364.246, 401.058 " fill="none" stroke="rgb(0, 0, 0)" stroke-linecap="butt" stroke-linejoin="round" stroke-opacity="1.0" stroke-width="3.0" />
            <path d=" M 382.126, 401.102 391.966, 402.884 394.034, 403.258 " fill="none" stroke="rgb(0, 0, 0)" stroke-linecap="butt" stroke-linejoin="round" stroke-opacity="1.0" stroke-width="3.0" />
            <path d=" M 394.034, 403.258 390.330, 393.970 386.626, 384.681 386.131, 383.440 " fill="none" stroke="rgb(0, 0, 0)" stroke-linecap="butt" stroke-linejoin="round" stroke-opacity="1.0" stroke-width="3.0" />
            <path d=" M 466.831, 129.681 462.328, 130.158 457.772, 131.727 453.179, 134.421 448.564, 138.274 443.945, 143.312 439.339, 149.557 439.034, 150.054 438.447, 151.013 434.765, 157.023 430.244, 165.725 426.160, 174.853 425.797, 175.664 422.167, 184.981 421.446, 186.834 418.212, 196.297 417.212, 199.224 414.329, 208.799 413.121, 212.814 410.549, 222.478 409.193, 227.573 406.901, 237.307 405.452, 243.458 403.415, 253.249 401.921, 260.423 400.118, 270.259 398.623, 278.409 397.035, 288.282 395.577, 297.343 394.191, 307.246 392.804, 317.148 391.608, 327.076 390.411, 337.004 390.322, 337.739 389.306, 347.687 388.290, 357.635 388.149, 359.019 387.305, 368.984 386.461, 378.948 386.297, 380.887 386.131, 383.440 383.919, 393.193 382.126, 401.102 " fill="none" stroke="rgb(0, 0, 0)" stroke-linecap="butt" stroke-linejoin="round" stroke-opacity="1.0" stroke-width="3.0" />
            <path d=" M 526.465, 716.376 526.780, 714.894 528.723, 705.762 530.637, 695.947 531.058, 693.788 532.816, 683.944 533.259, 681.466 534.872, 671.597 535.326, 668.822 536.803, 658.932 537.259, 655.884 538.609, 645.975 539.058, 642.676 540.286, 632.752 540.723, 629.223 541.835, 619.285 542.090, 617.006 542.254, 615.547 543.256, 605.597 543.651, 601.672 544.546, 591.712 544.914, 587.620 545.707, 577.651 546.044, 573.411 546.737, 563.435 547.041, 559.066 547.637, 549.084 547.905, 544.607 548.406, 534.619 548.635, 530.051 555.277, 529.998 557.126, 529.984 557.263, 529.982 559.049, 529.968 562.623, 529.940 563.468, 529.933 564.411, 529.926 566.985, 529.906 576.984, 529.827 577.633, 529.821 578.025, 519.829 578.209, 515.130 578.483, 505.134 578.613, 500.376 578.771, 490.377 578.846, 485.577 578.887, 475.577 578.906, 470.754 578.830, 460.754 578.793, 455.927 578.601, 445.929 578.508, 441.115 578.198, 431.120 578.050, 426.338 577.715, 418.558 " fill="none" stroke="rgb(0, 0, 0)" stroke-linecap="butt" stroke-linejoin="round" stroke-opacity="1.0" stroke-width="3.0" />
            <path d=" M 574.802, 423.688 575.013, 428.569 575.326, 438.564 575.457, 442.727 575.651, 452.725 575.733, 456.922 575.810, 466.921 575.842, 471.132 575.801, 481.132 575.784, 485.340 575.626, 495.338 575.560, 499.523 575.284, 509.520 575.170, 513.664 575.127, 514.750 575.026, 515.372 574.918, 515.951 574.803, 516.485 574.683, 516.969 574.557, 517.403 574.428, 517.782 574.294, 518.106 574.157, 518.372 574.019, 518.579 573.878, 518.726 573.738, 518.812 573.597, 518.837 573.457, 518.799 573.319, 518.700 569.409, 514.999 569.280, 513.653 569.122, 512.432 568.935, 511.355 568.722, 510.442 568.489, 509.707 568.237, 509.164 567.972, 508.822 567.698, 508.687 567.564, 508.685 565.013, 508.644 564.052, 508.628 563.227, 508.615 559.659, 508.557 557.875, 508.528 557.799, 508.527 557.314, 508.519 557.024, 508.595 556.735, 508.880 556.451, 509.370 556.176, 510.058 555.917, 510.933 555.891, 511.046 555.677, 511.979 555.460, 513.180 555.270, 514.515 555.110, 515.962 554.984, 517.496 554.893, 519.090 555.631, 519.739 556.533, 520.532 557.452, 520.548 557.571, 520.551 557.630, 520.552 559.354, 520.582 562.923, 520.645 563.757, 520.660 564.709, 520.677 565.114, 520.684 566.937, 520.716 566.966, 520.213 567.009, 519.737 567.064, 519.301 567.130, 518.916 567.175, 518.725 567.205, 518.594 567.287, 518.344 567.330, 518.256 567.373, 518.171 567.462, 518.080 567.550, 518.075 " fill="none" stroke="rgb(0, 0, 0)" stroke-linecap="butt" stroke-linejoin="round" stroke-opacity="1.0" stroke-width="3.0" />
            <path d=" M 567.978, 521.669 574.614, 527.742 577.633, 529.821 " fill="none" stroke="rgb(0, 0, 0)" stroke-linecap="butt" stroke-linejoin="round" stroke-opacity="1.0" stroke-width="3.0" />
            <path d=" M 391.869, 191.775 389.206, 200.167 386.499, 209.794 385.429, 213.599 383.004, 223.301 381.779, 228.203 379.605, 237.964 378.274, 243.941 376.328, 253.750 374.936, 260.767 373.199, 270.615 371.786, 278.627 370.240, 288.507 368.840, 297.453 367.473, 307.359 366.120, 317.170 364.921, 327.098 363.722, 337.026 363.641, 337.696 362.602, 347.642 361.563, 357.587 361.422, 358.937 360.534, 368.897 359.647, 378.858 359.474, 380.793 358.734, 390.766 357.993, 400.738 357.813, 403.159 357.262, 413.144 356.710, 423.129 356.557, 425.909 356.166, 435.902 355.776, 445.894 355.658, 448.916 355.427, 458.914 355.196, 468.911 355.123, 472.059 355.051, 482.059 354.979, 492.059 354.956, 495.217 355.043, 505.217 355.130, 515.216 355.156, 518.267 355.405, 528.264 355.653, 538.261 355.723, 541.090 356.136, 551.082 356.549, 561.073 356.652, 563.569 357.235, 573.552 357.817, 583.535 357.937, 585.590 358.695, 595.561 359.453, 605.532 359.568, 607.046 360.509, 617.001 361.450, 626.957 361.533, 627.837 362.667, 637.772 363.819, 647.869 365.157, 657.779 366.410, 667.055 367.967, 676.933 368.935, 683.075 " fill="none" stroke="rgb(0, 0, 0)" stroke-linecap="butt" stroke-linejoin="round" stroke-opacity="1.0" stroke-width="3.0" />
            <path d=" M 492.124, 732.460 490.372, 738.019 487.171, 747.263 483.840, 755.979 480.383, 764.135 476.802, 771.698 473.104, 778.632 469.292, 784.900 465.374, 790.465 461.355, 795.292 457.242, 799.343 456.037, 800.273 " fill="none" stroke="rgb(0, 0, 0)" stroke-linecap="butt" stroke-linejoin="round" stroke-opacity="1.0" stroke-width="3.0" />
            <path d=" M 394.366, 398.228 394.034, 403.258 393.517, 413.245 392.999, 423.231 392.858, 425.952 392.502, 435.946 392.147, 445.940 392.042, 448.903 391.846, 458.901 391.651, 468.899 391.591, 471.990 391.555, 481.990 391.519, 491.990 391.508, 495.092 391.631, 505.092 391.755, 515.091 391.792, 518.090 392.075, 528.086 392.359, 538.082 392.438, 540.864 392.883, 550.854 393.328, 560.844 393.438, 563.297 394.049, 573.278 394.660, 583.259 394.784, 585.276 395.565, 595.246 396.346, 605.215 396.462, 606.696 397.420, 616.650 398.377, 626.604 398.459, 627.456 399.600, 637.390 400.757, 647.462 402.093, 657.372 403.340, 666.628 404.881, 676.509 406.186, 684.879 407.948, 694.722 409.276, 702.147 411.276, 711.945 412.588, 718.374 414.848, 728.115 416.100, 733.509 418.648, 743.179 419.790, 747.515 422.658, 757.095 423.636, 760.362 426.865, 769.826 427.615, 772.025 431.256, 781.339 431.708, 782.493 435.822, 791.607 435.891, 791.760 440.146, 799.829 444.314, 806.484 444.453, 806.705 444.594, 806.891 448.794, 812.405 453.150, 816.947 457.508, 820.357 461.850, 822.659 466.162, 823.888 470.432, 824.079 474.649, 823.265 478.801, 821.484 482.879, 818.778 486.873, 815.187 489.953, 811.686 490.777, 810.749 494.583, 805.506 498.285, 799.499 501.878, 792.768 504.949, 786.219 " fill="none" stroke="rgb(0, 0, 0)" stroke-linecap="butt" stroke-linejoin="round" stroke-opacity="1.0" stroke-width="3.0" />
            <path d=" M 470.083, 806.012 466.055, 805.626 464.871, 805.226 462.001, 804.256 457.935, 801.873 456.037, 800.273 453.869, 798.446 449.820, 793.953 445.801, 788.375 441.830, 781.697 437.922, 773.905 434.096, 764.996 430.612, 755.623 430.370, 754.973 427.287, 745.460 426.762, 743.840 424.032, 734.220 423.292, 731.612 420.873, 721.908 419.977, 718.313 417.839, 708.544 416.838, 703.973 414.953, 694.152 413.893, 688.628 412.240, 678.766 411.161, 672.326 409.721, 662.431 408.658, 655.124 407.417, 645.201 406.402, 637.082 405.348, 627.137 404.409, 618.271 403.531, 608.310 402.692, 598.772 401.983, 588.797 401.263, 578.670 400.717, 568.685 400.171, 558.700 400.135, 558.058 399.747, 548.065 399.358, 538.073 399.317, 537.032 399.082, 527.034 398.846, 517.037 398.814, 515.696 398.730, 505.696 398.645, 495.697 398.632, 494.156 398.697, 484.156 398.762, 474.156 398.773, 472.521 398.987, 462.523 399.202, 452.525 399.236, 450.900 399.601, 440.907 399.965, 430.914 400.020, 429.405 400.346, 423.110 " fill="none" stroke="rgb(0, 0, 0)" stroke-linecap="butt" stroke-linejoin="round" stroke-opacity="1.0" stroke-width="3.0" />
            <path d=" M 501.642, 774.742 500.177, 777.740 496.701, 783.983 493.129, 789.526 489.468, 794.332 485.724, 798.364 481.905, 801.583 478.019, 803.955 474.075, 805.443 470.083, 806.012 " fill="none" stroke="rgb(0, 0, 0)" stroke-linecap="butt" stroke-linejoin="round" stroke-opacity="1.0" stroke-width="3.0" />
            <path d=" M 546.129, 527.997 545.622, 537.984 545.421, 541.941 544.813, 551.923 544.578, 555.790 543.866, 565.765 543.598, 569.524 542.781, 579.490 542.484, 583.121 541.558, 593.078 541.234, 596.563 540.196, 606.509 539.850, 609.827 538.696, 619.760 538.332, 622.892 537.057, 632.810 536.681, 635.735 535.279, 645.636 534.897, 648.333 534.397, 651.549 532.980, 660.663 531.303, 670.521 530.932, 672.700 529.105, 682.532 528.754, 684.418 526.766, 694.218 526.447, 695.790 524.583, 704.209 " fill="none" stroke="rgb(0, 0, 0)" stroke-linecap="butt" stroke-linejoin="round" stroke-opacity="1.0" stroke-width="3.0" />
            <path d=" M 548.635, 530.051 546.129, 527.997 555.362, 527.915 557.211, 527.898 562.690, 527.849 564.478, 527.833 564.823, 527.830 564.488, 527.535 563.571, 526.728 562.750, 526.005 559.277, 522.948 557.614, 521.484 557.630, 520.971 557.630, 520.552 " fill="none" stroke="rgb(0, 0, 0)" stroke-linecap="butt" stroke-linejoin="round" stroke-opacity="1.0" stroke-width="3.0" />
            <path d=" M 382.126, 401.102 381.596, 411.087 381.065, 421.073 380.872, 424.724 380.501, 434.717 380.131, 444.711 379.986, 448.617 379.773, 458.615 379.560, 468.613 379.474, 472.653 379.417, 482.653 379.361, 492.653 379.338, 496.703 379.439, 506.703 379.541, 516.702 379.580, 520.640 379.840, 530.636 380.099, 540.633 380.196, 544.336 380.616, 554.327 381.037, 564.318 381.178, 567.669 381.764, 577.651 382.350, 587.634 382.520, 590.518 383.277, 600.489 384.034, 610.461 384.209, 612.771 385.144, 622.727 386.079, 632.684 386.233, 634.323 387.354, 644.260 388.475, 654.197 388.574, 655.076 389.892, 664.988 391.216, 674.938 392.745, 684.820 394.139, 693.831 395.894, 703.676 397.322, 711.687 399.323, 721.484 400.745, 728.443 403.016, 738.182 404.384, 744.050 406.954, 753.715 408.218, 758.470 411.120, 768.039 412.222, 771.672 415.502, 781.118 416.375, 783.633 420.086, 792.920 420.654, 794.344 424.860, 803.416 425.038, 803.800 429.503, 812.007 434.032, 818.971 438.603, 824.713 443.198, 829.255 447.800, 832.623 452.393, 834.847 456.961, 835.963 461.491, 836.009 465.969, 835.021 470.383, 833.041 474.724, 830.112 478.981, 826.277 483.146, 821.576 487.210, 816.053 " fill="none" stroke="rgb(0, 0, 0)" stroke-linecap="butt" stroke-linejoin="round" stroke-opacity="1.0" stroke-width="3.0" />
            <path d=" M 487.210, 816.053 492.939, 807.857 494.583, 805.506 " fill="none" stroke="rgb(0, 0, 0)" stroke-linecap="butt" stroke-linejoin="round" stroke-opacity="1.0" stroke-width="3.0" />
            <path d=" M 538.870, 552.955 528.957, 553.467 " fill="none" stroke="rgb(0, 0, 0)" stroke-linecap="butt" stroke-linejoin="round" stroke-opacity="1.0" stroke-width="3.0" />
            <path d=" M 541.187, 503.240 540.881, 513.235 540.576, 523.231 540.428, 528.048 539.870, 538.032 539.648, 542.001 538.940, 551.976 538.870, 552.955 534.884, 543.784 532.198, 537.602 " fill="none" stroke="rgb(0, 0, 0)" stroke-linecap="butt" stroke-linejoin="round" stroke-opacity="1.0" stroke-width="3.0" />
            <path d=" M 366.074, 375.715 365.777, 379.215 365.078, 389.190 365.044, 389.671 364.345, 399.646 364.246, 401.058 363.690, 411.042 363.133, 421.027 363.011, 423.221 362.595, 433.212 362.179, 443.204 362.078, 445.619 361.801, 455.615 361.523, 465.611 361.452, 468.162 361.404, 471.578 " fill="none" stroke="rgb(0, 0, 0)" stroke-linecap="butt" stroke-linejoin="round" stroke-opacity="1.0" stroke-width="3.0" />
            <path d=" M 532.555, 745.389 533.194, 742.471 535.191, 732.672 535.469, 731.307 537.333, 721.482 537.637, 719.881 539.375, 710.034 539.697, 708.212 541.316, 698.344 541.649, 696.314 543.155, 686.428 543.494, 684.206 544.892, 674.305 545.230, 671.904 546.524, 661.988 546.859, 659.421 548.053, 649.493 548.380, 646.774 549.478, 636.834 549.793, 633.975 550.797, 624.025 551.099, 621.038 552.012, 611.080 552.296, 607.978 553.121, 598.012 553.386, 594.806 554.124, 584.833 554.368, 581.534 555.021, 571.555 555.242, 568.175 555.812, 558.192 556.009, 554.741 556.497, 544.753 556.668, 541.243 557.074, 531.252 557.126, 529.984 " fill="none" stroke="rgb(0, 0, 0)" stroke-linecap="butt" stroke-linejoin="round" stroke-opacity="1.0" stroke-width="3.0" />
            <path d=" M 460.604, 876.217 463.014, 876.371 467.116, 876.206 471.174, 875.237 475.181, 873.492 479.129, 871.001 483.014, 867.795 486.829, 863.904 490.568, 859.357 494.228, 854.185 497.804, 848.417 501.292, 842.081 504.689, 835.206 507.993, 827.819 511.200, 819.948 513.930, 812.633 " fill="none" stroke="rgb(0, 0, 0)" stroke-linecap="butt" stroke-linejoin="round" stroke-opacity="1.0" stroke-width="3.0" />
            <path d=" M 516.830, 144.183 515.773, 141.436 512.575, 133.911 509.267, 126.918 505.851, 120.485 502.330, 114.644 498.708, 109.426 494.988, 104.861 491.175, 100.981 487.274, 97.820 483.290, 95.408 479.231, 93.777 475.101, 92.959 470.910, 92.984 470.535, 93.064 466.666, 93.882 462.378, 95.680 458.055, 98.406 453.709, 102.083 449.351, 106.734 444.993, 112.379 440.648, 119.032 436.330, 126.707 433.726, 132.007 432.053, 135.413 428.077, 144.588 427.832, 145.153 427.571, 145.831 423.977, 155.163 423.683, 155.926 420.429, 165.382 419.622, 167.727 416.671, 177.282 415.664, 180.545 412.988, 190.180 411.827, 194.361 409.400, 204.062 408.127, 209.152 405.929, 218.908 404.581, 224.890 402.594, 234.690 401.205, 241.537 399.414, 251.376 398.016, 259.052 396.408, 268.922 395.029, 277.386 393.593, 287.282 392.259, 296.484 390.987, 306.402 389.720, 316.284 388.604, 326.221 387.489, 336.159 387.426, 336.720 386.460, 346.673 385.495, 356.626 385.389, 357.720 384.568, 367.686 383.747, 377.653 383.619, 379.208 382.939, 389.184 382.258, 399.161 382.126, 401.102 381.583, 411.087 381.040, 421.072 380.918, 423.317 380.510, 433.309 380.102, 443.301 380.001, 445.768 379.727, 455.764 379.452, 465.760 379.380, 468.364 379.238, 478.363 379.096, 488.362 379.058, 491.015 379.048, 501.015 379.038, 511.015 379.035, 513.631 379.158, 523.630 379.280, 533.629 379.311, 536.120 379.568, 546.117 379.825, 556.114 379.883, 558.395 380.276, 568.388 380.669, 578.380 380.747, 580.369 381.279, 590.354 381.812, 600.340 381.898, 601.957 382.573, 611.934 383.247, 621.911 383.326, 623.079 384.149, 633.045 384.971, 643.011 385.025, 643.659 386.000, 653.612 386.982, 663.627 388.118, 673.562 389.187, 682.915 390.491, 692.830 391.627, 701.465 393.109, 711.355 394.288, 719.221 395.960, 729.080 397.157, 736.135 399.032, 745.958 400.218, 752.166 402.313, 761.944 403.455, 767.278 405.789, 777.001 406.855, 781.440 409.450, 791.098 410.400, 794.631 413.284, 804.206 414.075, 806.832 417.279, 816.305 417.864, 818.032 418.103, 818.660 418.160, 818.810 421.752, 828.224 425.724, 837.407 429.765, 845.583 433.861, 852.761 437.999, 858.951 442.165, 864.168 446.347, 868.431 450.534, 871.758 454.714, 874.174 458.877, 875.703 461.773, 876.171 463.014, 876.371 " fill="none" stroke="rgb(0, 0, 0)" stroke-linecap="butt" stroke-linejoin="round" stroke-opacity="1.0" stroke-width="3.0" />
            <path d=" M 468.445, 93.077 464.174, 93.975 459.858, 95.774 455.508, 98.500 451.135, 102.177 446.750, 106.827 442.365, 112.471 437.993, 119.123 433.648, 126.797 430.933, 132.288 429.346, 135.500 425.348, 144.666 425.099, 145.237 421.622, 154.209 420.926, 156.008 417.653, 165.457 416.840, 167.805 413.873, 177.355 412.859, 180.618 410.168, 190.249 409.000, 194.430 406.559, 204.128 405.279, 209.217 403.068, 218.969 401.712, 224.949 399.714, 234.747 398.318, 241.590 396.516, 251.427 395.111, 259.099 393.493, 268.968 392.107, 277.426 390.664, 287.321 389.322, 296.516 388.043, 306.434 386.770, 316.309 385.649, 326.246 384.527, 336.183 384.465, 336.738 383.494, 346.690 382.523, 356.643 382.417, 357.730 381.592, 367.696 380.767, 377.661 380.639, 379.209 379.956, 389.185 379.273, 399.162 379.140, 401.094 378.595, 411.079 378.050, 421.064 377.928, 423.301 377.518, 433.293 377.109, 443.284 377.008, 445.743 376.733, 455.739 376.458, 465.735 376.386, 468.330 376.245, 478.329 376.103, 488.328 376.065, 490.972 376.056, 500.972 376.047, 510.972 376.045, 513.579 376.170, 523.578 376.295, 533.578 376.326, 536.060 376.586, 546.057 376.845, 556.053 376.905, 558.327 377.302, 568.319 377.698, 578.311 377.777, 580.292 378.314, 590.277 378.851, 600.263 378.937, 601.871 379.618, 611.848 380.299, 621.825 380.378, 622.986 381.207, 632.951 382.036, 642.917 382.089, 643.559 383.073, 653.510 384.062, 663.519 385.206, 673.454 386.283, 682.801 387.597, 692.715 388.741, 701.345 390.234, 711.233 391.421, 719.095 393.105, 728.952 394.310, 736.004 396.199, 745.824 397.392, 752.030 399.502, 761.805 400.653, 767.137 403.002, 776.857 404.075, 781.296 406.688, 790.948 407.645, 794.483 410.547, 804.052 411.344, 806.681 412.424, 809.851 413.243, 812.254 415.159, 817.878 418.745, 827.214 419.073, 828.068 423.071, 837.250 427.139, 845.425 431.262, 852.602 435.427, 858.792 439.621, 864.009 443.830, 868.272 448.044, 871.600 452.251, 874.017 456.441, 875.548 460.604, 876.217 " fill="none" stroke="rgb(0, 0, 0)" stroke-linecap="butt" stroke-linejoin="round" stroke-opacity="1.0" stroke-width="3.0" />
            <path d=" M 470.910, 92.984 468.445, 93.077 " fill="none" stroke="rgb(0, 0, 0)" stroke-linecap="butt" stroke-linejoin="round" stroke-opacity="1.0" stroke-width="3.0" />
            <path d=" M 538.516, 766.440 539.268, 762.890 541.205, 753.080 541.642, 750.867 542.231, 747.667 543.902, 738.584 545.591, 728.728 546.048, 726.059 547.623, 716.184 548.081, 713.311 549.547, 703.419 550.001, 700.354 551.363, 690.447 551.808, 687.207 553.069, 677.287 553.502, 673.883 554.667, 663.951 555.083, 660.398 556.155, 650.456 556.552, 646.766 557.533, 636.814 557.909, 633.000 558.802, 623.040 559.154, 619.113 559.961, 609.145 560.287, 605.118 561.010, 595.144 561.309, 591.026 561.950, 581.047 562.219, 576.851 562.779, 566.866 563.018, 562.602 563.498, 552.614 563.705, 548.293 564.106, 538.301 564.281, 533.932 564.411, 529.926 " fill="none" stroke="rgb(0, 0, 0)" stroke-linecap="butt" stroke-linejoin="round" stroke-opacity="1.0" stroke-width="3.0" />
            <path d=" M 458.162, 912.141 460.566, 912.306 465.012, 912.576 469.412, 911.951 473.757, 910.467 478.041, 908.159 482.255, 905.060 486.393, 901.205 490.451, 896.630 494.422, 891.368 498.302, 885.453 502.088, 878.919 505.775, 871.796 509.362, 864.117 512.845, 855.912 516.222, 847.210 519.491, 838.039 521.632, 831.528 " fill="none" stroke="rgb(0, 0, 0)" stroke-linecap="butt" stroke-linejoin="round" stroke-opacity="1.0" stroke-width="3.0" />
            <path d=" M 541.376, 192.599 541.340, 192.426 539.191, 182.660 538.852, 181.122 537.696, 176.279 536.238, 170.168 533.730, 160.488 533.497, 159.590 530.786, 149.964 530.630, 149.412 527.695, 139.853 527.637, 139.664 524.519, 130.374 521.276, 121.571 517.911, 113.286 514.424, 105.552 510.818, 98.400 507.095, 91.866 503.259, 85.984 499.312, 80.789 495.259, 76.317 491.106, 72.606 486.856, 69.691 482.518, 67.610 478.096, 66.398 473.601, 66.093 472.328, 66.271 469.039, 66.730 464.422, 68.341 459.758, 70.960 455.060, 74.617 450.340, 79.340 445.611, 85.154 440.887, 92.081 436.183, 100.138 431.659, 109.056 431.516, 109.338 430.748, 111.062 426.902, 119.689 426.111, 121.691 422.438, 130.992 422.358, 131.195 419.961, 138.004 417.902, 143.852 414.896, 153.389 413.553, 157.651 410.830, 167.273 409.330, 172.575 406.863, 182.266 405.622, 187.145 405.251, 188.601 403.019, 198.348 401.337, 205.698 399.320, 215.492 397.605, 223.827 395.789, 233.661 394.075, 242.943 392.446, 252.809 390.817, 262.675 390.765, 262.991 389.312, 272.885 387.859, 282.779 387.693, 283.910 386.406, 293.827 385.120, 303.744 384.875, 305.632 383.747, 315.568 382.619, 325.504 382.327, 328.081 381.351, 338.033 380.375, 347.985 380.063, 351.174 379.234, 361.139 378.405, 371.105 378.095, 374.824 377.409, 384.800 376.723, 394.777 376.436, 398.938 375.889, 408.923 375.342, 418.908 375.094, 423.417 374.684, 433.409 374.273, 443.401 374.077, 448.163 373.802, 458.159 373.526, 468.155 373.391, 473.070 373.249, 483.069 373.108, 493.068 373.037, 498.035 373.030, 508.035 373.022, 518.035 373.018, 522.953 373.146, 532.952 373.273, 542.951 373.333, 547.718 373.596, 557.715 373.860, 567.711 373.979, 572.229 374.380, 582.221 374.782, 592.212 374.949, 596.384 375.492, 606.370 376.035, 616.355 376.238, 620.089 376.927, 630.065 377.615, 640.042 377.837, 643.251 378.675, 653.215 379.514, 663.180 379.733, 665.782 380.729, 675.733 381.724, 685.683 381.916, 687.604 383.076, 697.537 384.235, 707.469 384.372, 708.641 385.704, 718.552 387.036, 728.463 387.085, 728.827 388.600, 738.712 390.040, 748.101 391.751, 757.954 392.169, 760.363 393.220, 766.411 395.142, 776.225 396.608, 783.713 396.973, 785.373 399.123, 795.139 400.186, 799.968 402.584, 809.676 403.935, 815.146 404.911, 818.667 407.583, 828.303 407.839, 829.226 410.492, 837.741 411.878, 842.190 415.191, 851.625 416.036, 854.030 419.729, 863.323 420.294, 864.743 424.419, 873.852 424.635, 874.330 429.045, 882.799 433.505, 890.164 438.002, 896.440 442.522, 901.647 447.050, 905.810 451.575, 908.955 456.084, 911.110 460.472, 912.281 460.566, 912.306 " fill="none" stroke="rgb(0, 0, 0)" stroke-linecap="butt" stroke-linejoin="round" stroke-opacity="1.0" stroke-width="3.0" />
            <path d=" M 368.145, 351.164 368.139, 351.223 367.294, 361.187 366.448, 371.151 366.136, 374.836 366.074, 375.715 365.375, 385.690 365.104, 389.560 364.448, 398.912 364.354, 400.597 363.798, 410.582 363.242, 420.566 363.086, 423.353 362.670, 433.344 362.277, 442.782 362.057, 448.059 361.780, 458.055 361.502, 468.052 361.404, 471.578 361.367, 472.927 361.227, 482.926 361.087, 492.925 361.018, 497.853 361.016, 507.853 361.013, 517.853 361.012, 522.429 361.012, 522.732 361.030, 524.026 " fill="none" stroke="rgb(0, 0, 0)" stroke-linecap="butt" stroke-linejoin="round" stroke-opacity="1.0" stroke-width="3.0" />
            <path d=" M 471.166, 66.193 466.576, 66.830 461.929, 68.442 457.236, 71.062 452.509, 74.719 447.759, 79.442 443.001, 85.255 438.248, 92.180 433.516, 100.235 428.969, 109.142 428.821, 109.433 424.728, 118.557 424.179, 119.782 423.229, 122.173 419.608, 131.285 416.269, 140.711 415.916, 141.707 415.646, 142.470 415.126, 143.938 412.103, 153.470 410.752, 157.733 408.013, 167.351 406.504, 172.652 404.023, 182.340 402.402, 188.673 400.157, 198.417 398.465, 205.764 397.034, 212.674 395.007, 222.466 394.713, 223.887 392.886, 233.719 391.163, 242.996 389.525, 252.861 387.887, 262.726 387.836, 263.037 386.374, 272.929 384.913, 282.822 384.747, 283.948 383.453, 293.864 382.160, 303.780 381.914, 305.662 380.780, 315.597 379.646, 325.533 379.353, 328.102 378.372, 338.054 377.392, 348.005 377.078, 351.186 376.245, 361.151 375.412, 371.117 375.102, 374.827 374.412, 384.803 373.723, 394.779 373.436, 398.931 372.886, 408.916 372.337, 418.901 372.089, 423.401 371.677, 433.393 371.265, 443.384 371.069, 448.137 370.793, 458.133 370.517, 468.129 370.381, 473.035 370.240, 483.034 370.099, 493.033 370.029, 497.990 370.023, 507.990 370.016, 517.990 370.013, 522.897 370.143, 532.897 370.272, 542.896 370.333, 547.653 370.600, 557.649 370.866, 567.646 370.986, 572.154 371.391, 582.146 371.797, 592.138 371.966, 596.301 372.514, 606.286 373.062, 616.271 373.266, 619.996 373.960, 629.972 374.654, 639.948 374.877, 643.149 375.723, 653.114 376.568, 663.078 376.789, 665.673 377.792, 675.623 378.795, 685.572 378.988, 687.487 380.156, 697.419 381.324, 707.350 381.462, 708.517 382.804, 718.427 384.146, 728.336 384.195, 728.696 384.767, 732.404 386.294, 742.287 387.171, 747.964 388.894, 757.814 390.373, 766.268 391.699, 772.994 393.634, 782.805 393.784, 783.565 393.838, 783.810 396.003, 793.573 397.386, 799.815 399.801, 809.519 401.162, 814.990 401.970, 817.886 404.659, 827.518 405.091, 829.066 408.085, 838.607 409.158, 842.027 412.491, 851.455 413.343, 853.865 417.058, 863.149 417.629, 864.575 421.778, 873.674 422.000, 874.161 426.438, 882.630 430.927, 889.994 435.454, 896.269 440.002, 901.477 444.560, 905.641 449.113, 908.787 453.651, 910.943 458.162, 912.141 " fill="none" stroke="rgb(0, 0, 0)" stroke-linecap="butt" stroke-linejoin="round" stroke-opacity="1.0" stroke-width="3.0" />
            <path d=" M 473.601, 66.093 471.166, 66.193 " fill="none" stroke="rgb(0, 0, 0)" stroke-linecap="butt" stroke-linejoin="round" stroke-opacity="1.0" stroke-width="3.0" />
            <path d=" M 548.653, 212.054 548.044, 208.480 546.225, 198.647 545.750, 196.077 543.786, 186.272 543.327, 183.976 541.206, 174.203 540.772, 172.201 538.482, 162.467 538.085, 160.777 535.613, 151.088 535.267, 149.730 532.595, 140.094 532.316, 139.087 529.426, 129.514 529.234, 128.877 526.102, 119.380 526.020, 119.129 522.675, 109.875 519.201, 101.146 515.598, 92.976 511.868, 85.401 508.015, 78.455 504.040, 72.177 499.947, 66.602 495.740, 61.771 491.424, 57.722 487.004, 54.495 482.487, 52.130 477.879, 50.666 473.189, 50.143 468.345, 50.351 463.521, 50.809 458.632, 52.284 453.690, 54.811 448.706, 58.424 443.695, 63.154 438.668, 69.031 433.642, 76.078 428.634, 84.318 423.974, 93.166 423.658, 93.766 419.468, 102.845 418.735, 104.432 414.957, 113.691 413.883, 116.324 410.469, 125.723 409.120, 129.438 406.033, 138.949 404.468, 143.767 401.673, 153.368 399.947, 159.296 397.417, 168.970 395.578, 176.001 393.289, 185.735 391.869, 191.775 391.381, 193.851 389.315, 203.635 387.379, 212.806 385.519, 222.632 383.659, 232.457 383.591, 232.819 381.923, 242.679 380.256, 252.539 380.037, 253.832 378.551, 263.721 377.064, 273.610 376.738, 275.780 375.423, 285.693 374.107, 295.606 373.711, 298.591 372.559, 308.525 371.406, 318.458 370.974, 322.184 369.978, 332.134 368.982, 342.084 368.559, 346.311 368.543, 346.470 368.145, 351.164 367.300, 361.128 366.454, 371.092 366.432, 371.354 366.374, 372.176 365.675, 382.151 365.164, 389.448 364.653, 396.738 364.464, 400.131 363.908, 410.115 363.351, 420.100 363.217, 422.514 362.801, 432.506 362.385, 442.497 362.132, 448.575 361.854, 458.571 361.811, 460.126 361.533, 470.122 361.403, 474.809 361.263, 484.808 361.135, 493.962 361.035, 501.102 361.033, 511.102 361.030, 521.102 361.030, 523.057 361.030, 524.026 361.029, 527.340 361.165, 537.339 361.300, 547.338 361.383, 553.411 361.658, 563.407 361.934, 573.404 362.094, 579.204 362.512, 589.195 362.929, 599.186 363.156, 604.610 363.719, 614.594 364.282, 624.578 364.561, 629.525 365.274, 639.500 365.987, 649.475 366.299, 653.852 367.167, 663.814 368.034, 673.777 368.358, 677.497 368.935, 683.075 369.964, 693.022 370.724, 700.373 371.922, 710.301 373.120, 720.229 373.382, 722.402 374.758, 732.307 376.135, 742.212 376.315, 743.513 377.881, 753.390 379.447, 763.267 379.506, 763.643 381.274, 773.486 382.936, 782.737 384.922, 792.538 386.585, 800.748 388.808, 810.498 390.435, 817.638 392.916, 827.326 394.465, 833.378 397.230, 842.988 398.656, 847.944 401.736, 857.458 402.988, 861.323 406.421, 870.715 407.441, 873.506 411.271, 882.743 411.996, 884.492 416.277, 893.530 416.635, 894.287 421.341, 902.901 426.097, 910.349 430.885, 916.652 435.692, 921.833 440.503, 925.919 445.304, 928.941 450.083, 930.930 454.829, 931.921 459.609, 932.262 464.252, 932.286 468.843, 931.383 473.372, 929.590 477.832, 926.946 482.215, 923.488 486.516, 919.254 490.729, 914.280 494.848, 908.603 498.869, 902.260 502.789, 895.285 506.605, 887.712 510.313, 879.574 513.910, 870.903 517.396, 861.731 520.697, 852.291 520.769, 852.085 523.842, 842.569 524.027, 841.996 525.020, 838.675 " fill="none" stroke="rgb(0, 0, 0)" stroke-linecap="butt" stroke-linejoin="round" stroke-opacity="1.0" stroke-width="3.0" />
            <path d=" M 541.074, 773.797 541.120, 773.578 543.034, 763.763 543.557, 761.078 545.346, 751.239 545.877, 748.320 547.547, 738.461 548.079, 735.323 549.637, 725.445 550.164, 722.103 551.615, 712.209 552.132, 708.679 553.480, 698.770 553.984, 695.066 555.233, 685.145 555.720, 681.280 556.874, 671.347 557.340, 667.335 558.401, 657.391 558.844, 653.245 559.817, 643.292 560.234, 639.023 561.120, 629.063 561.509, 624.683 562.310, 614.715 562.669, 610.237 563.387, 600.263 563.716, 595.697 564.352, 585.717 564.648, 581.074 565.204, 571.089 565.467, 566.380 565.944, 556.391 566.171, 551.625 566.570, 541.633 566.762, 536.822 566.985, 529.906 " fill="none" stroke="rgb(0, 0, 0)" stroke-linecap="butt" stroke-linejoin="round" stroke-opacity="1.0" stroke-width="3.0" />
            <path d=" M 473.189, 50.143 468.425, 50.599 463.596, 52.072 458.715, 54.598 453.792, 58.210 448.841, 62.941 443.876, 68.819 438.910, 75.869 433.961, 84.111 429.347, 92.983 429.045, 93.563 426.968, 98.118 424.179, 104.235 420.441, 113.510 419.383, 116.133 416.007, 125.545 414.676, 129.255 412.723, 135.345 410.077, 143.592 407.313, 153.203 406.389, 156.413 405.608, 159.131 404.061, 165.116 401.558, 174.798 401.287, 175.847 399.024, 185.587 397.137, 193.709 395.094, 203.498 393.326, 211.974 393.179, 212.678 391.340, 222.507 389.500, 232.336 389.432, 232.704 387.783, 242.568 386.134, 252.431 385.916, 253.733 384.446, 263.624 383.983, 266.738 382.651, 275.698 381.350, 285.613 380.049, 295.528 379.655, 298.526 378.515, 308.461 377.375, 318.396 376.945, 322.137 375.960, 332.088 374.974, 342.039 374.537, 346.441 373.700, 356.406 372.863, 366.371 372.445, 371.346 371.753, 381.322 371.060, 391.298 370.681, 396.749 370.130, 406.734 369.578, 416.719 369.256, 422.546 368.843, 432.538 368.429, 442.529 368.177, 448.628 367.900, 458.624 367.624, 468.620 367.451, 474.882 367.310, 484.881 367.169, 494.880 367.080, 501.196 367.075, 511.196 367.070, 521.196 367.067, 527.455 367.198, 537.454 367.330, 547.453 367.410, 553.546 367.679, 563.543 367.949, 573.539 368.106, 579.359 368.515, 589.351 368.925, 599.342 369.148, 604.784 369.702, 614.769 370.255, 624.754 370.530, 629.719 371.231, 639.694 371.932, 649.670 372.240, 654.064 373.094, 664.027 373.948, 673.990 374.198, 676.901 374.268, 677.725 374.881, 683.739 375.894, 693.688 376.600, 700.618 377.780, 710.548 378.960, 720.478 379.219, 722.662 380.576, 732.570 381.932, 742.478 382.077, 743.540 382.111, 743.788 383.271, 751.213 384.815, 761.093 385.258, 763.931 387.001, 773.777 388.641, 783.036 390.600, 792.842 392.241, 801.058 392.701, 803.106 394.894, 812.863 396.039, 817.957 398.488, 827.653 400.016, 833.705 402.746, 843.325 404.152, 848.278 407.194, 857.804 407.578, 859.005 408.426, 861.663 411.819, 871.070 412.821, 873.851 416.608, 883.106 417.318, 884.841 421.552, 893.900 421.898, 894.638 426.543, 903.253 431.238, 910.702 435.966, 917.005 440.712, 922.185 445.462, 926.269 450.202, 929.288 454.922, 931.275 459.609, 932.262 " fill="none" stroke="rgb(0, 0, 0)" stroke-linecap="butt" stroke-linejoin="round" stroke-opacity="1.0" stroke-width="3.0" />
            <path d=" M 565.359, 519.273 565.391, 518.693 565.427, 518.038 565.448, 517.677 565.570, 516.141 565.725, 514.692 565.909, 513.355 566.119, 512.152 566.351, 511.104 566.602, 510.229 566.866, 509.539 567.140, 509.048 567.419, 508.763 567.563, 508.724 567.698, 508.687 " fill="none" stroke="rgb(0, 0, 0)" stroke-linecap="butt" stroke-linejoin="round" stroke-opacity="1.0" stroke-width="3.0" />
            <path d=" M 554.893, 519.090 555.652, 519.103 557.498, 519.135 557.549, 519.136 562.967, 519.231 564.753, 519.262 565.171, 519.270 565.359, 519.273 566.937, 520.716 " fill="none" stroke="rgb(0, 0, 0)" stroke-linecap="butt" stroke-linejoin="round" stroke-opacity="1.0" stroke-width="3.0" />
            <path d=" M 557.614, 521.484 562.893, 521.578 564.679, 521.610 565.076, 521.617 567.247, 521.656 567.978, 521.669 567.993, 521.155 567.994, 520.642 567.980, 520.143 567.951, 519.674 567.910, 519.246 567.856, 518.870 567.828, 518.736 567.791, 518.558 567.717, 518.317 567.636, 518.155 567.550, 518.075 " fill="none" stroke="rgb(0, 0, 0)" stroke-linecap="butt" stroke-linejoin="round" stroke-opacity="1.0" stroke-width="3.0" />
            <path d=" M 619.814, 920.648 621.989, 921.178 629.833, 923.040 637.690, 924.150 645.544, 924.524 653.377, 924.179 661.173, 923.135 668.916, 921.412 676.591, 919.029 684.186, 916.009 691.686, 912.372 699.081, 908.140 706.359, 903.336 713.509, 897.982 720.523, 892.100 727.390, 885.713 734.104, 878.842 740.655, 871.509 747.038, 863.735 753.078, 855.765 753.246, 855.543 758.989, 847.357 759.273, 846.952 764.730, 838.573 765.113, 837.984 770.294, 829.431 770.762, 828.659 775.677, 819.950 776.215, 818.996 780.872, 810.146 781.468, 809.014 785.877, 800.038 786.518, 798.733 790.686, 789.642 791.361, 788.170 795.295, 778.976 795.994, 777.344 799.701, 768.057 800.414, 766.272 803.901, 756.900 804.618, 754.972 807.890, 745.523 808.605, 743.460 811.667, 733.941 812.371, 731.752 815.229, 722.169 815.916, 719.865 818.573, 710.225 819.237, 707.814 821.697, 698.121 822.333, 695.615 824.598, 685.875 825.201, 683.282 827.276, 673.499 827.842, 670.830 829.727, 661.009 830.252, 658.274 831.951, 648.419 832.432, 645.628 833.945, 635.743 834.379, 632.907 835.707, 622.996 836.092, 620.124 837.237, 610.190 837.571, 607.293 838.533, 597.339 838.815, 594.428 839.594, 584.459 839.821, 581.543 840.417, 571.561 840.590, 568.652 841.001, 558.660 841.120, 555.767 841.346, 545.770 841.411, 542.904 841.450, 532.904 841.461, 530.076 841.310, 520.077 841.269, 517.296 840.927, 507.302 840.834, 504.579 840.299, 494.594 840.157, 491.940 839.424, 481.967 839.235, 479.392 838.301, 469.436 838.068, 466.951 836.930, 457.016 836.656, 454.630 835.307, 444.722 834.998, 442.447 833.434, 432.570 833.093, 430.416 831.307, 420.576 830.940, 418.552 828.927, 408.757 828.540, 406.873 826.293, 397.129 825.893, 395.395 823.402, 385.710 822.997, 384.135 820.255, 374.518 819.854, 373.110 816.851, 363.571 816.463, 362.339 813.190, 352.890 812.826, 351.839 809.271, 342.493 808.943, 341.630 805.094, 332.401 804.814, 331.731 800.659, 322.636 800.443, 322.162 795.967, 313.219 795.829, 312.943 790.976, 304.094 785.885, 295.637 780.561, 287.593 775.005, 279.984 769.224, 272.832 763.220, 266.160 757.000, 259.990 750.569, 254.346 743.934, 249.250 737.103, 244.726 730.084, 240.795 722.885, 237.482 715.518, 234.808 707.993, 232.795 700.322, 231.464 692.518, 230.837 684.595, 230.932 682.385, 231.079 " fill="none" stroke="rgb(0, 0, 0)" stroke-linecap="butt" stroke-linejoin="round" stroke-opacity="1.0" stroke-width="3.0" />
            <path d=" M 621.989, 921.178 621.857, 921.133 614.179, 918.549 606.422, 915.138 598.739, 910.936 591.150, 905.933 583.679, 900.122 576.347, 893.498 569.408, 886.298 569.179, 886.060 562.719, 878.426 562.196, 877.809 556.208, 869.799 555.423, 868.749 549.896, 860.415 548.884, 858.889 548.545, 858.315 543.465, 849.701 542.604, 848.240 540.008, 843.296 536.605, 836.816 532.371, 827.757 530.912, 824.637 529.808, 821.981 526.761, 814.646 525.559, 811.752 525.548, 811.725 522.093, 802.341 520.534, 798.106 519.668, 795.437 518.597, 792.137 515.894, 783.810 513.160, 774.191 511.740, 769.198 511.648, 768.872 510.437, 763.962 508.042, 754.253 507.815, 753.330 505.748, 743.546 504.413, 737.225 502.663, 727.380 501.459, 720.603 500.017, 710.708 499.400, 706.479 498.968, 703.512 497.825, 693.578 496.953, 686.004 496.102, 676.041 495.426, 668.134 494.859, 658.150 494.395, 649.958 494.108, 639.962 493.866, 631.535 493.855, 621.535 493.845, 612.928 494.105, 602.931 494.333, 594.198 494.863, 584.212 495.330, 575.408 496.128, 565.439 496.214, 564.364 496.833, 556.622 497.897, 546.679 498.837, 537.904 499.840, 530.438 501.171, 520.527 501.300, 519.567 501.334, 519.318 501.416, 518.812 503.015, 508.941 504.314, 500.925 506.183, 491.102 507.765, 482.788 509.907, 473.020 511.673, 464.964 514.091, 455.261 516.021, 447.513 518.719, 437.884 520.792, 430.488 522.874, 423.826 523.211, 422.749 525.965, 413.941 529.241, 404.492 531.519, 397.921 531.574, 397.778 535.149, 388.439 536.616, 384.605 537.432, 382.474 541.314, 373.258 541.547, 372.706 543.680, 367.641 547.878, 358.565 550.238, 353.462 552.368, 349.263 554.014, 346.018 557.082, 339.969 558.893, 336.712 560.517, 333.791 562.881, 329.538 564.184, 327.194 569.077, 319.169 569.573, 318.355 571.520, 315.162 577.084, 306.853 579.062, 303.897 584.995, 295.847 586.785, 293.418 593.097, 285.661 594.662, 283.738 596.392, 281.822 602.668, 274.869 609.765, 267.824 610.777, 266.819 618.274, 260.201 618.964, 259.591 626.861, 253.456 627.206, 253.188 635.479, 247.606 643.761, 242.841 652.031, 238.886 660.268, 235.730 668.453, 233.362 676.568, 231.768 683.289, 231.068 684.595, 230.932 " fill="none" stroke="rgb(0, 0, 0)" stroke-linecap="butt" stroke-linejoin="round" stroke-opacity="1.0" stroke-width="3.0" />
            <path d=" M 682.385, 231.079 674.347, 231.915 666.222, 233.509 658.026, 235.876 649.779, 239.030 641.499, 242.982 633.206, 247.744 624.924, 253.321 617.021, 259.448 616.672, 259.719 609.169, 266.329 608.476, 266.939 601.372, 273.978 600.358, 274.982 595.183, 280.704 592.345, 283.842 586.025, 291.592 584.460, 293.512 578.520, 301.557 576.729, 303.982 571.158, 312.286 569.180, 315.235 569.166, 315.258 568.659, 316.087 563.446, 324.621 562.594, 326.016 561.838, 327.254 560.219, 330.161 558.615, 333.039 554.729, 340.015 553.711, 342.019 552.063, 345.263 547.881, 353.493 543.676, 362.567 541.317, 367.658 541.238, 367.844 537.350, 377.058 535.065, 382.474 531.484, 391.811 529.148, 397.903 525.867, 407.350 523.590, 413.905 521.055, 422.001 520.679, 423.200 518.414, 430.433 515.712, 440.061 513.641, 447.439 511.677, 455.311 509.291, 464.871 507.147, 474.638 505.382, 482.673 504.784, 485.815 502.912, 495.639 501.930, 500.790 500.329, 510.661 499.275, 517.162 498.950, 519.162 498.901, 519.524 497.569, 529.435 497.431, 530.457 496.454, 537.727 495.388, 547.670 494.451, 556.423 493.653, 566.391 492.949, 575.187 492.420, 585.173 491.954, 593.956 491.695, 603.952 491.469, 612.665 491.482, 622.665 491.493, 631.252 491.782, 641.247 491.916, 645.893 491.929, 646.328 492.025, 649.653 492.137, 651.628 492.707, 661.612 493.060, 667.810 493.915, 677.773 494.592, 685.661 495.739, 695.595 496.612, 703.150 497.929, 712.161 499.108, 720.223 500.862, 730.068 502.067, 736.828 504.140, 746.611 505.475, 752.917 507.876, 762.624 509.184, 767.913 509.315, 768.444 510.487, 772.553 513.228, 782.170 513.569, 783.367 516.663, 792.876 517.538, 795.564 518.216, 797.649 518.620, 798.744 522.082, 808.126 523.237, 811.256 524.300, 813.808 524.701, 814.772 525.908, 817.670 528.610, 824.157 528.983, 824.954 533.226, 834.009 534.311, 836.326 537.540, 842.462 540.319, 847.741 545.407, 856.350 546.608, 858.382 552.143, 866.711 553.156, 868.235 559.152, 876.239 559.938, 877.289 566.406, 884.916 566.931, 885.535 573.877, 892.729 574.110, 892.970 581.451, 899.591 588.933, 905.401 596.532, 910.404 604.226, 914.606 611.993, 918.017 619.814, 920.648 " fill="none" stroke="rgb(0, 0, 0)" stroke-linecap="butt" stroke-linejoin="round" stroke-opacity="1.0" stroke-width="3.0" />
            <path d=" M 700.639, 329.906 692.481, 329.949 684.457, 330.783 684.204, 330.809 681.244, 331.406 675.833, 332.497 667.393, 335.015 667.042, 335.153 658.906, 338.355 650.399, 342.526 641.904, 347.548 633.697, 353.262 633.451, 353.433 625.665, 359.708 625.075, 360.184 617.714, 366.953 616.806, 367.789 609.868, 374.991 608.676, 376.229 602.149, 383.806 600.711, 385.474 594.584, 393.377 592.941, 395.496 587.213, 403.693 585.403, 406.283 580.072, 414.744 578.135, 417.818 577.981, 418.090 577.715, 418.558 574.802, 423.688 571.176, 430.071 567.760, 436.746 565.308, 441.537 564.557, 443.003 564.330, 443.497 563.569, 445.149 560.059, 452.765 558.329, 456.520 558.308, 456.565 558.299, 456.586 556.502, 460.925 552.673, 470.163 552.451, 470.701 549.061, 479.817 547.178, 484.883 547.003, 485.351 543.972, 494.502 541.996, 500.467 541.187, 503.240 538.386, 512.840 537.464, 515.999 535.006, 525.692 533.890, 530.092 533.436, 531.885 532.198, 537.602 530.082, 547.376 529.933, 548.062 528.957, 553.467 527.180, 563.308 526.971, 564.460 525.528, 574.356 524.557, 581.007 523.441, 590.945 522.689, 597.633 521.900, 607.602 521.371, 614.270 520.918, 624.260 520.619, 630.849 520.512, 640.849 520.443, 647.301 520.691, 657.298 520.847, 663.554 520.929, 664.907 521.539, 674.889 521.823, 679.541 522.799, 689.493 523.359, 695.199 524.583, 704.209 524.966, 707.030 525.433, 710.471 526.465, 716.376 526.487, 716.500 527.429, 721.892 528.034, 725.358 530.126, 735.137 531.108, 739.728 531.471, 741.150 532.555, 745.389 533.956, 750.869 534.635, 753.528 535.059, 754.936 537.378, 762.654 538.516, 766.440 538.597, 766.709 538.634, 766.816 541.074, 773.797 542.971, 779.226 546.710, 788.501 547.734, 791.042 551.933, 800.117 552.860, 802.120 557.542, 810.956 558.323, 812.431 563.510, 820.980 564.098, 821.948 569.809, 830.156 570.155, 830.653 576.466, 838.529 583.006, 845.562 589.744, 851.748 596.652, 857.083 603.704, 861.566 609.283, 864.395 610.873, 865.201 618.131, 867.997 625.454, 869.964 632.818, 871.113 640.197, 871.461 647.570, 871.026 654.915, 869.828 662.212, 867.885 669.440, 865.223 676.583, 861.865 683.621, 857.835 690.540, 853.158 697.324, 847.862 703.960, 841.973 710.433, 835.517 716.732, 828.521 722.846, 821.013 728.764, 813.020 734.364, 804.735 734.478, 804.567 739.741, 796.064 739.977, 795.683 744.917, 786.988 745.255, 786.394 749.883, 777.530 750.303, 776.726 754.632, 767.711 755.116, 766.703 759.155, 757.555 759.686, 756.353 763.446, 747.087 764.009, 745.700 767.498, 736.329 768.079, 734.769 771.305, 725.303 771.891, 723.583 774.862, 714.034 775.442, 712.167 778.163, 702.545 778.728, 700.546 781.203, 690.857 781.744, 688.740 783.980, 678.993 784.488, 676.774 786.487, 666.976 786.958, 664.671 788.723, 654.828 789.150, 652.452 790.684, 642.570 791.061, 640.140 792.365, 630.225 792.690, 627.757 793.766, 617.815 794.036, 615.325 794.883, 605.361 795.095, 602.865 795.713, 592.884 795.867, 590.400 796.255, 580.407 796.351, 577.951 796.507, 567.952 796.545, 565.539 796.466, 555.540 796.448, 553.188 796.131, 543.193 796.059, 540.918 796.044, 540.650 " fill="none" stroke="rgb(0, 0, 0)" stroke-linecap="butt" stroke-linejoin="round" stroke-opacity="1.0" stroke-width="3.0" />
            <path d=" M 791.468, 543.418 791.465, 543.418 781.793, 544.927 776.277, 545.787 767.462, 547.161 766.747, 547.273 766.031, 547.385 765.314, 547.498 764.597, 547.611 763.748, 547.616 753.772, 546.920 752.244, 546.813 751.406, 546.560 750.603, 546.054 749.853, 545.303 749.170, 544.323 748.567, 543.131 748.055, 541.749 747.645, 540.203 747.345, 538.523 747.160, 536.742 747.094, 534.893 747.149, 533.013 747.324, 531.138 747.615, 529.304 748.017, 527.546 748.521, 525.900 749.118, 524.395 749.797, 523.062 750.541, 521.925 751.191, 521.059 751.841, 520.194 752.490, 519.331 753.139, 518.468 753.464, 518.037 757.131, 513.170 760.112, 509.213 766.129, 501.226 772.147, 493.239 775.557, 488.713 785.498, 489.800 786.404, 489.899 " fill="none" stroke="rgb(0, 0, 0)" stroke-linecap="butt" stroke-linejoin="round" stroke-opacity="1.0" stroke-width="3.0" />
            <path d=" M 822.669, 505.289 821.412, 495.705 819.814, 485.834 819.528, 484.068 817.618, 474.252 817.308, 472.653 815.076, 462.906 814.752, 461.489 812.189, 451.823 811.864, 450.597 808.963, 441.027 808.650, 439.997 805.404, 430.539 805.119, 429.707 801.512, 420.380 801.269, 419.754 797.278, 410.585 797.099, 410.174 792.701, 401.193 792.607, 401.001 787.799, 392.266 782.680, 383.994 777.259, 376.206 771.550, 368.918 765.560, 362.151 759.295, 355.942 752.762, 350.332 745.970, 345.353 738.933, 341.032 731.666, 337.390 724.186, 334.437 723.570, 334.256 716.511, 332.183 708.656, 330.661 700.639, 329.906 " fill="none" stroke="rgb(0, 0, 0)" stroke-linecap="butt" stroke-linejoin="round" stroke-opacity="1.0" stroke-width="3.0" />
            <path d=" M 667.042, 335.153 670.476, 337.203 676.381, 341.493 682.099, 346.422 687.618, 351.961 692.931, 358.080 698.031, 364.739 702.914, 371.901 707.572, 379.543 711.995, 387.653 716.177, 396.210 720.112, 405.190 723.796, 414.562 727.122, 423.992 727.229, 424.294 730.246, 433.828 730.411, 434.352 733.136, 443.973 733.344, 444.709 735.783, 454.407 736.020, 455.349 738.182, 465.113 738.435, 466.255 740.327, 476.074 740.583, 477.404 742.218, 487.269 742.467, 488.772 743.284, 494.611 743.294, 495.844 743.245, 497.086 743.137, 498.323 742.971, 499.544 742.749, 500.734 742.472, 501.882 742.145, 502.977 741.769, 504.005 741.350, 504.957 741.324, 505.005 740.891, 505.823 740.397, 506.594 739.873, 507.261 739.325, 507.819 738.759, 508.261 730.499, 513.898 724.538, 517.967 " fill="none" stroke="rgb(0, 0, 0)" stroke-linecap="butt" stroke-linejoin="round" stroke-opacity="1.0" stroke-width="3.0" />
            <path d=" M 800.411, 535.094 801.286, 535.150 802.442, 535.224 803.213, 535.273 811.213, 529.273 814.317, 526.944 816.212, 525.523 823.727, 519.886 824.189, 519.540 825.622, 518.624 830.245, 515.670 829.246, 505.720 828.983, 503.094 827.697, 493.177 827.375, 490.693 825.793, 480.819 825.421, 478.491 823.535, 468.670 823.121, 466.513 820.920, 456.758 820.474, 454.785 817.948, 445.110 817.533, 443.523 817.484, 443.333 814.619, 433.752 814.150, 432.182 812.060, 426.029 810.474, 421.360 806.891, 412.023 806.458, 410.894 802.495, 401.713 802.105, 400.811 797.746, 391.812 797.420, 391.140 792.647, 382.353 792.406, 381.910 790.871, 379.390 787.068, 373.148 785.959, 371.528 781.413, 364.884 775.447, 357.146 769.177, 349.967 762.614, 343.372 755.766, 337.392 748.646, 332.058 741.265, 327.396 733.637, 323.435 725.779, 320.202 717.705, 317.725 709.436, 316.028 700.990, 315.134 691.005, 314.578 681.021, 314.023 675.726, 313.728 " fill="none" stroke="rgb(0, 0, 0)" stroke-linecap="butt" stroke-linejoin="round" stroke-opacity="1.0" stroke-width="3.0" />
            <path d=" M 700.990, 315.134 692.388, 315.065 687.283, 315.521 683.655, 315.845 674.813, 317.487 669.727, 318.923 665.890, 320.007 656.913, 323.420 650.097, 326.687 648.365, 327.517 647.911, 327.735 639.262, 332.753 638.914, 332.955 630.661, 338.600 629.955, 339.083 622.114, 345.290 621.066, 346.120 613.646, 352.823 612.281, 354.056 605.283, 361.200 603.635, 362.882 597.056, 370.413 595.163, 372.581 588.999, 380.456 586.902, 383.135 581.144, 391.311 578.887, 394.517 576.978, 397.522 576.668, 398.011 571.307, 406.452 571.153, 406.695 567.246, 413.513 564.836, 417.718 563.738, 419.635 563.115, 420.840 558.522, 429.723 558.004, 430.726 556.675, 433.296 556.218, 434.278 551.996, 443.343 549.998, 447.632 546.139, 456.857 544.325, 461.194 543.740, 462.591 540.237, 471.957 537.932, 478.120 534.779, 487.609 534.530, 488.360 532.682, 493.923 532.603, 494.158 529.777, 503.815 527.779, 510.641 526.070, 517.351 524.495, 523.539 523.485, 527.504 523.296, 528.371 522.990, 529.775 522.886, 530.255 520.926, 539.247 519.743, 544.676 517.950, 554.514 516.571, 562.086 515.114, 571.979 513.983, 579.658 512.864, 589.595 511.994, 597.318 511.214, 607.287 510.611, 614.989 510.173, 624.979 509.839, 632.596 509.748, 642.595 509.680, 650.063 509.831, 655.807 510.094, 665.803 510.133, 667.316 510.756, 677.297 511.192, 684.283 512.184, 694.233 512.848, 700.894 514.219, 710.799 515.089, 717.081 " fill="none" stroke="rgb(0, 0, 0)" stroke-linecap="butt" stroke-linejoin="round" stroke-opacity="1.0" stroke-width="3.0" />
            <path d=" M 755.834, 513.047 754.619, 503.121 754.393, 501.274 754.134, 498.635 754.114, 498.869 753.948, 500.095 753.726, 501.291 753.450, 502.445 753.124, 503.544 752.751, 504.578 752.334, 505.535 751.877, 506.405 751.387, 507.179 750.867, 507.850 750.323, 508.411 749.761, 508.855 741.537, 514.545 733.314, 520.235 733.012, 520.444 732.335, 519.591 731.591, 518.940 730.793, 518.502 729.954, 518.285 724.538, 517.967 718.795, 517.631 717.923, 517.638 717.039, 517.869 716.158, 518.322 715.294, 518.988 714.463, 519.857 713.713, 520.917 713.059, 522.151 712.479, 523.536 711.983, 525.048 711.580, 526.661 711.276, 528.348 711.078, 530.080 710.988, 531.827 711.009, 533.559 711.139, 535.246 721.117, 535.908 722.336, 535.989 727.065, 532.750 727.030, 532.211 727.038, 531.657 727.090, 531.104 727.184, 530.566 727.223, 530.420 727.318, 530.059 727.487, 529.596 727.688, 529.191 727.914, 528.853 728.159, 528.593 728.418, 528.417 728.682, 528.330 728.944, 528.334 " fill="none" stroke="rgb(0, 0, 0)" stroke-linecap="butt" stroke-linejoin="round" stroke-opacity="1.0" stroke-width="3.0" />
            <path d=" M 796.650, 522.190 800.274, 519.461 801.471, 518.559 802.860, 517.514 806.720, 514.606 807.222, 514.184 807.709, 513.661 807.756, 513.599 808.178, 513.042 808.625, 512.333 809.046, 511.542 809.439, 510.675 809.800, 509.739 810.127, 508.743 810.417, 507.693 810.669, 506.599 810.879, 505.468 811.048, 504.310 811.172, 503.133 811.250, 501.946 820.847, 504.756 822.669, 505.289 822.567, 506.068 822.358, 507.204 822.107, 508.304 821.819, 509.358 821.494, 510.360 821.135, 511.300 820.746, 512.172 820.328, 512.967 819.885, 513.680 819.420, 514.302 818.937, 514.828 818.439, 515.253 810.497, 521.330 805.988, 524.780 805.484, 524.085 805.353, 523.904 804.653, 523.236 803.900, 522.788 803.105, 522.568 801.761, 522.490 800.509, 522.416 796.650, 522.190 794.840, 522.084 791.234, 521.873 790.498, 521.883 790.404, 521.884 790.173, 521.951 789.560, 522.127 788.717, 522.597 787.888, 523.288 787.089, 524.188 786.368, 525.284 785.741, 526.560 785.183, 527.991 784.704, 529.553 784.312, 531.219 784.014, 532.960 783.816, 534.747 783.720, 536.549 783.728, 538.334 783.841, 540.073 791.321, 540.570 791.375, 540.574 795.758, 540.865 796.044, 540.650 800.247, 537.498 800.217, 536.942 800.228, 536.371 800.281, 535.800 800.373, 535.245 800.411, 535.094 800.503, 534.721 800.666, 534.243 800.858, 533.824 801.074, 533.474 801.186, 533.345 801.308, 533.205 801.553, 533.022 801.803, 532.931 802.051, 532.934 " fill="none" stroke="rgb(0, 0, 0)" stroke-linecap="butt" stroke-linejoin="round" stroke-opacity="1.0" stroke-width="3.0" />
            <path d=" M 776.277, 545.787 776.449, 550.926 776.536, 560.926 776.556, 563.157 776.400, 573.156 776.365, 575.445 775.969, 585.438 775.876, 587.770 775.243, 597.750 775.093, 600.109 774.223, 610.071 774.016, 612.441 772.910, 622.380 772.647, 624.744 771.305, 634.654 770.988, 636.996 769.410, 646.871 769.042, 649.176 767.226, 659.010 766.810, 661.261 764.755, 671.047 764.296, 673.229 761.999, 682.962 761.504, 685.059 758.960, 694.731 758.435, 696.728 755.641, 706.330 755.093, 708.213 752.044, 717.737 751.482, 719.491 748.173, 728.927 747.607, 730.539 744.030, 739.877 743.472, 741.333 739.620, 750.561 739.082, 751.849 734.947, 760.954 734.443, 762.063 730.015, 771.030 729.560, 771.951 724.829, 780.761 724.440, 781.486 719.395, 790.121 719.089, 790.644 713.720, 799.080 713.517, 799.400 707.810, 807.612 707.729, 807.727 701.737, 815.597 695.549, 822.987 689.176, 829.869 682.630, 836.216 675.922, 842.000 669.066, 847.198 662.077, 851.783 654.969, 855.727 647.758, 859.007 640.463, 861.599 633.101, 863.480 625.693, 864.626 618.257, 865.018 610.817, 864.637 609.283, 864.395 " fill="none" stroke="rgb(0, 0, 0)" stroke-linecap="butt" stroke-linejoin="round" stroke-opacity="1.0" stroke-width="3.0" />
            <path d=" M 763.748, 547.616 762.917, 547.363 762.122, 546.855 761.379, 546.101 760.704, 545.117 760.107, 543.919 759.601, 542.531 759.196, 540.978 758.900, 539.291 758.718, 537.501 758.702, 537.024 758.655, 535.643 758.712, 533.754 758.887, 531.869 759.146, 530.230 759.178, 530.026 759.578, 528.260 760.079, 526.605 760.672, 525.092 761.346, 523.752 762.085, 522.609 762.730, 521.738 763.375, 520.869 764.020, 520.000 764.663, 519.133 764.987, 518.699 768.309, 514.232 774.276, 506.207 777.449, 501.941 783.416, 493.917 786.404, 489.899 787.806, 499.800 787.918, 500.594 788.485, 504.925 789.558, 514.867 789.709, 516.264 790.173, 521.951 " fill="none" stroke="rgb(0, 0, 0)" stroke-linecap="butt" stroke-linejoin="round" stroke-opacity="1.0" stroke-width="3.0" />
            <path d=" M 794.407, 516.711 800.097, 517.251 801.377, 517.373 802.860, 517.514 " fill="none" stroke="rgb(0, 0, 0)" stroke-linecap="butt" stroke-linejoin="round" stroke-opacity="1.0" stroke-width="3.0" />
            <path d=" M 764.760, 537.421 764.442, 537.356 764.144, 537.144 763.880, 536.795 763.662, 536.324 763.499, 535.752 763.398, 535.103 763.364, 534.407 763.398, 533.693 763.499, 532.992 763.662, 532.337 763.880, 531.755 764.144, 531.272 764.442, 530.909 764.759, 530.683 765.084, 530.601 " fill="none" stroke="rgb(0, 0, 0)" stroke-linecap="butt" stroke-linejoin="round" stroke-opacity="1.0" stroke-width="3.0" />
            <path d=" M 765.084, 530.601 765.402, 530.669 765.699, 530.883 765.962, 531.232 766.179, 531.702 766.341, 532.274 766.441, 532.921 766.475, 533.615 766.440, 534.327 766.340, 535.024 766.178, 535.678 765.961, 536.259 765.698, 536.742 765.402, 537.106 765.085, 537.336 764.760, 537.421 " fill="none" stroke="rgb(0, 0, 0)" stroke-linecap="butt" stroke-linejoin="round" stroke-opacity="1.0" stroke-width="3.0" />
            <path d=" M 727.223, 530.420 730.190, 530.610 738.441, 524.959 746.691, 519.308 754.942, 513.658 755.834, 513.047 757.131, 513.170 " fill="none" stroke="rgb(0, 0, 0)" stroke-linecap="butt" stroke-linejoin="round" stroke-opacity="1.0" stroke-width="3.0" />
            <path d=" M 801.286, 535.150 801.454, 538.219 801.763, 548.215 801.851, 551.067 801.923, 561.066 801.945, 563.997 801.783, 573.995 801.734, 576.987 801.342, 586.980 801.222, 590.017 800.601, 599.997 800.410, 603.062 799.560, 613.026 799.297, 616.103 798.219, 626.045 797.886, 629.116 796.581, 639.030 796.179, 642.080 794.645, 651.962 794.178, 654.972 792.413, 664.815 791.883, 667.770 789.885, 677.569 789.298, 680.452 787.065, 690.199 786.425, 692.994 783.953, 702.683 783.267, 705.373 780.551, 714.997 779.827, 717.565 776.862, 727.115 776.108, 729.547 772.889, 739.014 772.114, 741.294 768.633, 750.669 767.849, 752.781 764.099, 762.051 763.318, 763.982 759.290, 773.136 758.525, 774.874 754.210, 783.895 753.477, 785.428 748.864, 794.301 748.179, 795.618 743.257, 804.323 742.638, 805.417 737.395, 813.932 736.862, 814.798 731.285, 823.099 730.858, 823.733 724.933, 831.788 724.636, 832.192 718.350, 839.969 718.205, 840.149 711.575, 847.574 704.759, 854.437 697.768, 860.710 690.617, 866.365 683.319, 871.373 675.890, 875.704 668.348, 879.332 660.709, 882.231 652.995, 884.373 645.223, 885.733 637.417, 886.289 629.599, 886.021 621.793, 884.906 614.024, 882.927 606.318, 880.071 598.702, 876.325 591.205, 871.679 583.855, 866.129 576.680, 859.673 569.805, 852.412 569.712, 852.314 563.394, 844.563 562.982, 844.056 557.208, 835.891 556.517, 834.913 551.272, 826.399 550.349, 824.902 545.613, 816.094 544.508, 814.040 540.260, 804.988 539.024, 802.355 536.331, 795.768 533.924, 789.880 533.527, 788.760 532.353, 785.449 529.234, 776.649 526.979, 769.252 525.869, 765.610 524.984, 762.705 522.474, 753.025 521.195, 748.093 520.005, 742.611 518.493, 735.649 517.890, 732.867 516.143, 723.021 515.089, 717.081 511.650, 707.691 508.634, 699.458 " fill="none" stroke="rgb(0, 0, 0)" stroke-linecap="butt" stroke-linejoin="round" stroke-opacity="1.0" stroke-width="3.0" />
            <path d=" M 675.726, 313.728 667.916, 313.637 661.632, 314.232 659.992, 314.388 651.976, 315.998 643.892, 318.483 635.765, 321.859 627.621, 326.136 619.489, 331.319 611.500, 337.333 611.396, 337.411 603.863, 343.988 603.374, 344.415 596.297, 351.480 595.452, 352.323 588.825, 359.812 587.664, 361.125 581.477, 368.981 580.040, 370.806 575.609, 377.097 575.245, 377.615 572.615, 381.350 567.271, 389.802 566.476, 391.059 565.420, 392.728 564.073, 395.096 562.382, 398.069 558.490, 404.911 557.352, 407.131 555.600, 410.552 551.855, 417.864 547.670, 426.947 545.550, 431.548 544.074, 435.114 540.250, 444.354 539.604, 445.914 536.129, 455.291 534.047, 460.911 530.913, 470.408 528.908, 476.486 526.107, 486.085 524.213, 492.576 521.737, 502.265 520.513, 507.057 519.986, 509.118 517.830, 518.883 516.348, 525.598 516.250, 526.043 515.451, 530.314 513.611, 540.143 513.025, 543.280 511.499, 553.163 510.326, 560.756 509.112, 570.682 508.168, 578.393 507.265, 588.353 506.562, 596.117 505.972, 606.100 505.515, 613.848 505.241, 623.845 505.031, 631.510 505.077, 641.510 505.111, 649.026 505.482, 659.019 505.753, 666.320 506.361, 674.950 506.951, 683.320 507.989, 693.266 508.634, 699.458 508.261, 709.451 507.929, 718.339 " fill="none" stroke="rgb(0, 0, 0)" stroke-linecap="butt" stroke-linejoin="round" stroke-opacity="1.0" stroke-width="3.0" />
            <path d=" M 510.846, 734.624 512.986, 744.393 514.285, 750.327 514.410, 750.804 515.923, 756.592 518.224, 765.387 521.161, 774.946 522.386, 778.932 522.639, 779.752 523.535, 782.261 526.900, 791.678 527.506, 793.372 529.323, 797.780 530.541, 800.735 532.796, 806.204 533.497, 807.686 537.776, 816.724 538.481, 818.212 543.250, 827.002 544.531, 829.363 549.813, 837.854 550.917, 839.629 556.729, 847.766 557.604, 848.992 563.965, 856.708 564.564, 857.434 571.484, 864.653 571.763, 864.945 579.171, 871.519 586.756, 877.156 594.487, 881.858 602.336, 885.630 610.272, 888.486 618.268, 890.438 626.298, 891.503 634.335, 891.698 642.356, 891.047 650.336, 889.574 658.254, 887.301 666.089, 884.255 673.823, 880.467 681.436, 875.962 688.913, 870.768 696.237, 864.918 703.394, 858.440 710.370, 851.363 717.007, 843.882 717.154, 843.717 723.419, 835.923 723.733, 835.533 729.640, 827.464 730.097, 826.840 735.660, 818.529 736.237, 817.666 741.468, 809.143 742.144, 808.041 747.057, 799.330 747.811, 797.993 752.416, 789.116 753.229, 787.550 757.538, 778.526 758.391, 776.739 762.415, 767.584 763.293, 765.587 767.041, 756.316 767.929, 754.121 771.409, 744.747 772.292, 742.367 775.512, 732.899 776.380, 730.349 779.347, 720.799 780.187, 718.093 782.907, 708.470 783.711, 705.624 786.187, 695.935 786.947, 692.964 789.185, 683.218 789.892, 680.139 791.895, 670.341 792.544, 667.171 794.315, 657.329 794.899, 654.083 796.440, 644.203 796.956, 640.899 798.268, 630.986 798.711, 627.641 799.797, 617.700 800.164, 614.330 801.022, 604.367 801.312, 600.991 801.941, 591.011 802.154, 587.644 802.553, 577.652 802.687, 574.312 802.855, 564.314 802.911, 561.018 802.845, 551.018 802.823, 547.784 802.520, 537.789 802.442, 535.224 " fill="none" stroke="rgb(0, 0, 0)" stroke-linecap="butt" stroke-linejoin="round" stroke-opacity="1.0" stroke-width="3.0" />
            <path d=" M 507.929, 718.339 509.692, 728.182 510.846, 734.624 " fill="none" stroke="rgb(0, 0, 0)" stroke-linecap="butt" stroke-linejoin="round" stroke-opacity="1.0" stroke-width="3.0" />
            <path d=" M 817.533, 443.523 815.858, 434.605 813.778, 424.823 813.538, 423.696 811.218, 413.969 810.984, 412.987 808.415, 403.323 808.194, 402.493 805.368, 392.901 805.170, 392.230 802.074, 382.722 801.910, 382.220 798.533, 372.808 798.416, 372.480 794.749, 363.176 794.689, 363.025 790.733, 353.872 786.549, 345.039 782.139, 336.545 777.505, 328.410 772.650, 320.655 767.576, 313.304 762.287, 306.377 756.788, 299.891 751.086, 293.864 745.186, 288.316 739.093, 283.266 732.816, 278.735 726.360, 274.747 719.734, 271.323 712.948, 268.488 706.011, 266.260 698.934, 264.654 691.729, 263.686 684.409, 263.371 676.987, 263.726 676.880, 263.741 669.478, 264.768 661.896, 266.511 654.259, 268.974 646.583, 272.171 638.888, 276.106 631.192, 280.784 623.513, 286.206 615.872, 292.375 613.248, 294.768 608.290, 299.290 601.294, 306.435 600.789, 306.950 594.182, 314.456 593.393, 315.352 587.169, 323.179 586.125, 324.491 585.581, 325.245 579.732, 333.356 579.010, 334.358 576.651, 337.951 572.627, 344.082 572.188, 344.751 572.070, 344.932 566.932, 353.511 565.327, 356.193 564.774, 357.203 562.418, 361.510 560.765, 364.531 558.804, 368.117 555.848, 374.027 554.167, 377.391 552.523, 380.678 548.369, 389.775 546.508, 393.850 543.087, 402.065 540.781, 407.602 537.239, 416.954 535.366, 421.900 534.249, 425.157 531.004, 434.616 530.286, 436.709 527.332, 446.263 525.561, 451.987 522.889, 461.623 521.208, 467.686 518.812, 477.395 517.241, 483.759 515.117, 493.531 513.677, 500.156 511.820, 509.983 510.528, 516.828 508.938, 526.701 508.347, 530.370 507.808, 533.720 506.484, 543.632 505.529, 550.781 504.471, 560.725 503.703, 567.954 502.912, 577.922 502.337, 585.183 501.811, 595.169 501.430, 602.411 501.171, 612.407 500.986, 619.581 500.997, 629.581 501.004, 636.639 501.289, 646.635 501.485, 653.527 502.049, 663.511 502.426, 670.193 503.273, 680.157 503.819, 686.584 503.876, 687.085 505.012, 697.020 505.656, 702.649 507.090, 712.545 507.929, 718.339 509.669, 728.186 510.627, 733.607 510.846, 734.624 512.897, 744.412 513.735, 748.411 514.362, 750.969 515.822, 756.924 517.240, 762.711 519.958, 772.334 521.125, 776.467 522.172, 779.714 523.288, 783.172 525.375, 789.645 528.809, 799.037 528.915, 799.326 529.970, 802.213 530.082, 802.485 533.026, 809.623 534.891, 814.146 539.096, 823.218 540.117, 825.419 544.732, 834.290 545.627, 836.011 550.673, 844.645 551.406, 845.898 556.897, 854.255 557.430, 855.065 563.378, 863.104 563.675, 863.506 570.121, 871.214 576.744, 878.184 583.524, 884.414 590.441, 889.902 597.474, 894.649 604.605, 898.655 611.815, 901.926 619.082, 904.476 624.573, 905.860 626.389, 906.318 633.716, 907.467 641.047, 907.936 648.367, 907.740 655.660, 906.893 662.912, 905.409 670.109, 903.301 677.238, 900.590 684.286, 897.299 691.241, 893.450 698.094, 889.063 704.832, 884.160 711.449, 878.758 717.933, 872.876 724.277, 866.530 730.473, 859.738 736.513, 852.524 742.392, 844.908 748.104, 836.913 753.644, 828.559 758.893, 820.047 759.006, 819.863 763.986, 811.191 764.186, 810.843 768.905, 802.026 769.179, 801.515 773.644, 792.567 773.980, 791.895 778.199, 782.829 778.584, 782.000 782.566, 772.827 782.990, 771.850 786.742, 762.580 787.195, 761.462 790.725, 752.105 791.197, 750.854 794.510, 741.419 794.993, 740.043 798.094, 730.536 798.581, 729.043 801.475, 719.471 801.959, 717.870 804.648, 708.238 805.123, 706.537 807.609, 696.851 808.070, 695.059 810.358, 685.324 810.799, 683.450 812.892, 673.671 813.308, 671.726 815.210, 661.909 815.599, 659.902 817.312, 650.050 817.669, 647.993 819.194, 638.110 819.518, 636.013 820.856, 626.103 821.143, 623.973 822.294, 614.040 822.543, 611.889 823.506, 601.936 823.715, 599.774 824.490, 589.804 824.658, 587.641 825.247, 577.658 825.374, 575.504 825.775, 565.512 825.860, 563.377 826.073, 553.379 826.118, 551.273 826.139, 541.273 826.143, 539.207 825.971, 529.208 825.937, 527.191 825.622, 518.624 " fill="none" stroke="rgb(0, 0, 0)" stroke-linecap="butt" stroke-linejoin="round" stroke-opacity="1.0" stroke-width="3.0" />
            <path d=" M 674.766, 263.842 667.246, 264.884 659.654, 266.627 652.007, 269.088 644.322, 272.282 636.617, 276.214 628.911, 280.888 621.224, 286.305 613.574, 292.468 611.994, 293.906 605.984, 299.377 598.980, 306.514 598.475, 307.029 591.860, 314.529 591.071, 315.423 584.839, 323.244 583.796, 324.553 579.909, 329.933 576.674, 334.409 572.312, 341.042 571.865, 341.722 569.728, 344.972 569.683, 345.047 564.547, 353.608 562.979, 356.221 562.173, 357.691 560.541, 360.669 556.450, 368.132 555.606, 369.816 553.922, 373.178 550.164, 380.680 546.004, 389.774 544.144, 393.838 542.873, 396.885 539.023, 406.114 538.413, 407.574 534.866, 416.924 532.995, 421.856 529.745, 431.313 527.912, 436.649 524.953, 446.201 523.185, 451.909 523.102, 452.205 520.426, 461.840 518.829, 467.590 516.430, 477.298 514.861, 483.644 512.733, 493.416 511.295, 500.023 509.436, 509.849 508.145, 516.675 506.554, 526.548 505.934, 530.390 505.425, 533.549 504.100, 543.460 503.147, 550.589 502.089, 560.533 501.321, 567.743 500.531, 577.711 499.957, 584.952 499.432, 594.938 499.052, 602.160 498.794, 612.157 498.610, 619.312 498.622, 629.312 498.631, 636.350 498.918, 646.346 499.116, 653.220 499.682, 663.204 500.060, 669.868 500.910, 679.832 501.457, 686.241 502.349, 694.016 503.299, 702.288 504.737, 712.184 505.577, 717.962 507.321, 727.809 508.279, 733.215 510.340, 743.000 511.394, 748.004 513.152, 755.156 514.561, 760.892 514.905, 762.289 517.630, 771.911 518.797, 776.032 521.170, 783.374 522.260, 786.744 523.053, 789.198 526.494, 798.587 527.656, 801.755 528.033, 802.668 529.258, 805.630 532.212, 812.777 532.584, 813.677 536.797, 822.746 537.817, 824.941 542.441, 833.808 543.336, 835.524 548.390, 844.153 549.123, 845.404 554.622, 853.756 555.155, 854.565 561.111, 862.598 561.410, 863.000 567.864, 870.703 574.497, 877.670 581.286, 883.897 588.212, 889.384 595.255, 894.129 602.396, 898.135 609.616, 901.407 616.893, 903.958 624.209, 905.803 " fill="none" stroke="rgb(0, 0, 0)" stroke-linecap="butt" stroke-linejoin="round" stroke-opacity="1.0" stroke-width="3.0" />
            <path d=" M 676.987, 263.726 674.766, 263.842 " fill="none" stroke="rgb(0, 0, 0)" stroke-linecap="butt" stroke-linejoin="round" stroke-opacity="1.0" stroke-width="3.0" />
            <path d=" M 624.209, 905.803 626.389, 906.318 " fill="none" stroke="rgb(0, 0, 0)" stroke-linecap="butt" stroke-linejoin="round" stroke-opacity="1.0" stroke-width="3.0" />
            <path d=" M 490.306, 722.382 492.082, 732.224 492.124, 732.460 493.457, 739.848 493.758, 741.252 495.853, 751.030 497.081, 756.761 498.580, 762.753 501.006, 772.454 501.161, 773.074 501.642, 774.742 503.894, 782.558 504.949, 786.219 505.677, 788.742 507.509, 794.311 508.554, 797.488 510.607, 803.726 512.840, 809.712 513.930, 812.633 515.929, 817.990 516.947, 820.408 518.120, 823.191 520.477, 828.788 521.620, 831.502 521.632, 831.528 522.553, 833.471 525.020, 838.675 527.655, 844.235 532.355, 853.061 534.008, 856.165 539.143, 864.746 540.655, 867.274 546.239, 875.569 547.570, 877.545 553.617, 885.510 554.726, 886.970 561.248, 894.551 562.099, 895.540 569.101, 902.679 569.662, 903.251 577.144, 909.885 577.390, 910.103 585.260, 916.099 593.246, 921.245 601.325, 925.549 609.476, 929.022 617.676, 931.677 622.004, 932.754 630.210, 934.600 638.425, 935.658 646.629, 935.947 654.806, 935.486 662.937, 934.296 671.007, 932.398 679.001, 929.815 686.905, 926.570 694.706, 922.686 702.391, 918.187 709.951, 913.096 717.372, 907.437 724.648, 901.234 731.767, 894.510 738.723, 887.289 745.336, 879.788 745.507, 879.594 751.805, 871.826 752.113, 871.447 758.106, 863.442 758.534, 862.871 764.233, 854.654 764.765, 853.888 770.181, 845.481 770.801, 844.518 775.942, 835.941 776.636, 834.783 781.513, 826.053 782.267, 824.704 786.889, 815.836 787.689, 814.300 792.064, 805.308 792.899, 803.591 797.036, 794.487 797.895, 792.596 801.799, 783.390 802.672, 781.333 806.352, 772.035 807.228, 769.820 810.690, 760.438 811.562, 758.075 814.810, 748.618 815.670, 746.115 818.710, 736.589 819.551, 733.956 822.388, 724.367 823.203, 721.615 825.841, 711.970 826.624, 709.108 829.067, 699.411 829.813, 696.450 832.064, 686.706 832.768, 683.656 834.830, 673.871 835.489, 670.742 837.363, 660.919 837.973, 657.721 839.662, 647.865 840.220, 644.609 841.725, 634.723 842.228, 631.420 843.551, 621.508 843.997, 618.167 845.138, 608.232 845.524, 604.865 846.484, 594.911 846.810, 591.527 847.589, 581.558 847.853, 578.168 848.450, 568.186 848.653, 564.801 849.067, 554.810 849.207, 551.440 849.438, 541.442 849.515, 538.098 849.562, 528.098 849.577, 524.790 849.437, 514.791 849.391, 511.529 849.061, 501.535 848.956, 498.331 848.435, 488.344 848.271, 485.208 847.555, 475.234 847.335, 472.176 846.421, 462.218 846.148, 459.249 845.031, 449.312 844.709, 446.443 843.384, 436.532 843.016, 433.774 841.479, 423.892 841.069, 421.255 839.314, 411.411 838.868, 408.905 836.888, 399.103 836.411, 396.739 834.200, 386.987 833.699, 384.775 831.249, 375.080 830.731, 373.030 828.034, 363.400 827.507, 361.521 824.553, 351.967 824.027, 350.268 820.806, 340.801 820.292, 339.288 816.793, 329.920 816.301, 328.602 812.513, 319.347 812.056, 318.230 807.966, 309.104 807.557, 308.191 803.153, 299.213 802.807, 298.508 798.074, 289.698 797.807, 289.201 792.731, 280.584 792.559, 280.292 787.126, 271.897 787.066, 271.804 781.331, 263.761 775.359, 256.185 769.152, 249.100 762.718, 242.530 756.061, 236.500 749.187, 231.035 742.105, 226.158 734.822, 221.895 727.348, 218.271 719.692, 215.308 711.866, 213.031 703.883, 211.464 695.754, 210.629 687.495, 210.548 683.095, 210.880 674.698, 211.574 666.203, 213.061 657.628, 215.357 648.992, 218.479 640.315, 222.440 631.619, 227.252 623.244, 232.717 622.926, 232.925 614.943, 238.948 614.260, 239.464 606.678, 245.985 605.645, 246.873 598.466, 253.835 597.107, 255.153 590.328, 262.505 588.672, 264.301 584.200, 269.690 580.368, 274.309 574.366, 282.308 572.221, 285.167 566.593, 293.433 566.062, 294.213 565.493, 295.049 564.259, 296.860 562.362, 299.923 560.581, 302.800 558.161, 306.707 557.393, 307.947 556.544, 309.319 556.512, 309.370 553.362, 314.954 551.778, 317.762 551.623, 318.037 549.987, 320.937 549.007, 322.674 544.435, 331.567 543.505, 333.375 541.889, 336.518 541.773, 336.744 539.238, 342.155 534.996, 351.210 534.836, 351.550 530.914, 360.748 529.454, 364.174 528.226, 367.054 524.616, 376.379 521.968, 383.217 518.661, 392.655 516.088, 399.995 513.077, 409.531 510.611, 417.340 507.889, 426.963 505.559, 435.200 503.122, 444.898 500.955, 453.519 498.797, 463.283 498.590, 464.217 496.817, 472.239 496.206, 475.429 494.324, 485.250 493.164, 491.299 491.555, 501.168 490.532, 507.441 490.012, 510.635 489.605, 513.646 489.191, 516.716 489.167, 516.894 489.026, 517.937 488.837, 519.335 488.712, 520.257 488.213, 523.953 487.372, 530.181 486.304, 540.124 485.257, 549.871 484.459, 559.839 483.674, 569.637 483.147, 579.623 482.630, 589.409 482.374, 599.406 482.126, 609.120 482.130, 611.142 482.150, 621.142 482.159, 626.025 482.162, 627.382 482.164, 628.702 482.462, 638.697 482.577, 642.556 482.605, 643.493 482.742, 648.087 483.322, 658.070 483.363, 658.776 483.391, 659.254 483.853, 667.209 484.518, 674.839 484.528, 674.950 485.396, 684.912 485.491, 686.007 486.097, 691.184 487.260, 701.116 487.647, 704.417 489.111, 714.309 490.306, 722.382 " fill="none" stroke="rgb(0, 0, 0)" stroke-linecap="butt" stroke-linejoin="round" stroke-opacity="1.0" stroke-width="3.0" />
            <path d=" M 687.495, 210.548 679.120, 211.241 670.648, 212.728 662.095, 215.025 653.481, 218.151 644.825, 222.117 636.150, 226.936 627.785, 232.416 627.477, 232.618 619.506, 238.656 618.830, 239.168 611.262, 245.704 610.234, 246.591 603.070, 253.567 601.715, 254.886 594.950, 262.251 593.297, 264.051 586.926, 271.758 586.571, 272.189 585.009, 274.078 579.022, 282.088 576.877, 284.958 571.264, 293.234 568.931, 296.675 566.960, 299.869 566.410, 300.760 561.197, 309.211 561.167, 309.264 558.786, 313.502 557.194, 316.334 553.704, 322.543 552.310, 325.265 550.681, 328.446 546.481, 336.644 542.252, 345.705 539.949, 350.638 539.556, 351.482 535.646, 360.685 532.954, 367.020 529.355, 376.350 526.705, 383.219 523.408, 392.660 520.832, 400.035 517.830, 409.574 516.517, 413.744 515.360, 417.419 512.647, 427.044 510.314, 435.320 507.883, 445.020 505.713, 453.681 503.561, 463.447 501.578, 472.444 499.700, 482.266 497.926, 491.548 496.321, 501.418 495.417, 506.974 494.774, 510.928 494.610, 512.143 493.752, 518.508 493.628, 519.431 492.598, 527.074 492.133, 530.520 491.067, 540.463 490.016, 550.255 489.218, 560.224 488.837, 564.983 488.430, 570.066 487.902, 580.052 487.382, 589.884 487.361, 590.671 487.104, 600.668 486.873, 609.640 486.883, 616.008 486.899, 626.008 486.905, 629.265 487.198, 639.261 487.474, 648.693 488.049, 658.677 488.578, 667.858 489.439, 677.821 490.016, 684.492 490.207, 686.696 491.361, 696.629 492.352, 705.146 492.516, 706.265 493.924, 715.833 493.937, 715.923 494.413, 719.158 494.627, 720.609 494.972, 722.955 495.000, 723.149 496.765, 732.992 498.138, 740.651 500.223, 750.431 501.750, 757.598 504.164, 767.302 505.816, 773.943 506.388, 775.937 507.567, 780.049 510.317, 789.642 513.429, 799.145 514.919, 803.696 515.232, 804.654 515.995, 806.708 519.476, 816.082 520.538, 818.943 522.252, 823.030 523.435, 825.853 525.237, 830.153 526.212, 832.479 526.617, 833.336 530.883, 842.380 532.229, 845.232 536.914, 854.067 538.565, 857.181 543.683, 865.772 545.193, 868.306 550.761, 876.612 552.088, 878.592 558.121, 886.568 559.225, 888.028 565.732, 895.621 566.577, 896.607 573.566, 903.759 574.120, 904.325 581.591, 910.973 581.827, 911.183 589.675, 917.182 597.640, 922.329 605.698, 926.633 613.826, 930.103 622.004, 932.754 " fill="none" stroke="rgb(0, 0, 0)" stroke-linecap="butt" stroke-linejoin="round" stroke-opacity="1.0" stroke-width="3.0" />
            <path d=" M 729.954, 518.285 729.088, 518.292 728.210, 518.525 727.334, 518.980 726.476, 519.650 726.113, 520.034 725.650, 520.524 724.904, 521.589 724.253, 522.830 723.676, 524.222 723.183, 525.741 722.781, 527.363 722.678, 527.940 722.479, 529.058 722.359, 530.110 722.281, 530.799 722.190, 532.554 722.209, 534.294 722.336, 535.989 " fill="none" stroke="rgb(0, 0, 0)" stroke-linecap="butt" stroke-linejoin="round" stroke-opacity="1.0" stroke-width="3.0" />
            <path d=" M 728.944, 528.334 729.198, 528.430 729.436, 528.614 729.652, 528.882 729.840, 529.225 729.995, 529.635 730.113, 530.101 730.190, 530.610 " fill="none" stroke="rgb(0, 0, 0)" stroke-linecap="butt" stroke-linejoin="round" stroke-opacity="1.0" stroke-width="3.0" />
            <path d=" M 803.105, 522.568 802.282, 522.580 801.445, 522.825 800.609, 523.298 799.786, 523.993 799.437, 524.390 798.992, 524.898 798.277, 526.000 797.654, 527.283 797.100, 528.721 796.624, 530.291 796.234, 531.966 796.133, 532.562 795.937, 533.716 795.818, 534.801 795.739, 535.512 795.642, 537.323 795.648, 539.117 795.758, 540.865 " fill="none" stroke="rgb(0, 0, 0)" stroke-linecap="butt" stroke-linejoin="round" stroke-opacity="1.0" stroke-width="3.0" />
            <path d=" M 802.051, 532.934 802.290, 533.031 802.513, 533.220 802.716, 533.494 802.891, 533.848 803.035, 534.270 803.143, 534.749 803.213, 535.273 " fill="none" stroke="rgb(0, 0, 0)" stroke-linecap="butt" stroke-linejoin="round" stroke-opacity="1.0" stroke-width="3.0" />
            <path d=" M 777.662, 477.455 777.782, 477.358 777.916, 477.281 778.063, 477.228 778.218, 477.198 778.379, 477.192 778.600, 477.223 778.818, 477.298 779.024, 477.414 779.209, 477.567 779.368, 477.751 779.496, 477.961 779.586, 478.192 779.633, 478.438 779.634, 478.669 779.592, 478.889 779.509, 479.090 779.388, 479.266 779.234, 479.408 779.049, 479.513 " fill="none" stroke="rgb(0, 0, 0)" stroke-linecap="butt" stroke-linejoin="round" stroke-opacity="1.0" stroke-width="3.0" />
            <path d=" M 777.553, 477.556 777.417, 477.738 777.387, 477.797 777.288, 478.012 777.234, 478.246 777.231, 478.494 777.244, 478.561 777.289, 478.789 777.380, 479.002 777.513, 479.192 777.563, 479.243 777.725, 479.396 777.916, 479.511 777.975, 479.540 778.172, 479.606 778.229, 479.622 778.301, 479.633 778.383, 479.639 778.495, 479.642 778.544, 479.642 778.595, 479.639 778.646, 479.634 778.695, 479.626 778.740, 479.616 778.856, 479.590 778.934, 479.567 778.999, 479.541 779.049, 479.513 " fill="none" stroke="rgb(0, 0, 0)" stroke-linecap="butt" stroke-linejoin="round" stroke-opacity="1.0" stroke-width="3.0" />
            <path d=" M 777.782, 477.358 777.724, 477.406 777.641, 477.478 777.553, 477.556 777.662, 477.455 " fill="none" stroke="rgb(0, 0, 0)" stroke-linecap="butt" stroke-linejoin="round" stroke-opacity="1.0" stroke-width="3.0" />
            <path d=" M 775.361, 475.278 775.941, 481.272 780.144, 481.448 781.631, 481.510 782.265, 480.922 781.202, 475.406 779.122, 475.249 775.789, 474.998 775.361, 475.278 " fill="none" stroke="rgb(0, 0, 0)" stroke-linecap="butt" stroke-linejoin="round" stroke-opacity="1.0" stroke-width="3.0" />
            <path d=" M 781.631, 481.510 781.057, 475.502 " fill="none" stroke="rgb(0, 0, 0)" stroke-linecap="butt" stroke-linejoin="round" stroke-opacity="1.0" stroke-width="3.0" />
            <path d=" M 781.202, 475.406 781.057, 475.502 775.361, 475.278 " fill="none" stroke="rgb(0, 0, 0)" stroke-linecap="butt" stroke-linejoin="round" stroke-opacity="1.0" stroke-width="3.0" />
            <path d=" M 741.324, 505.005 738.337, 505.062 728.347, 505.506 726.876, 505.571 716.899, 506.242 715.435, 506.340 705.474, 507.213 704.009, 507.342 694.064, 508.393 692.592, 508.548 682.665, 509.754 681.178, 509.934 671.268, 511.271 669.764, 511.474 659.869, 512.920 658.343, 513.144 648.461, 514.677 646.910, 514.918 637.039, 516.517 635.460, 516.773 625.596, 518.418 623.988, 518.686 614.129, 520.357 612.489, 520.635 602.630, 522.312 600.957, 522.596 591.097, 524.260 589.388, 524.549 579.522, 526.182 577.776, 526.471 578.169, 516.478 578.344, 512.033 578.621, 502.037 578.746, 497.532 578.908, 487.534 578.982, 482.987 579.029, 472.987 579.051, 468.415 578.983, 458.415 578.953, 453.836 578.771, 443.838 578.688, 439.269 578.391, 429.274 578.256, 424.732 577.981, 418.090 " fill="none" stroke="rgb(0, 0, 0)" stroke-linecap="butt" stroke-linejoin="round" stroke-opacity="1.0" stroke-width="3.0" />
            <path d=" M 584.200, 269.690 583.642, 269.101 577.222, 261.435 576.818, 260.953 570.859, 252.922 570.626, 252.609 " fill="none" stroke="rgb(0, 0, 0)" stroke-linecap="butt" stroke-linejoin="round" stroke-opacity="1.0" stroke-width="3.0" />
            <path d=" M 572.194, 254.947 570.626, 252.609 569.151, 250.408 565.973, 245.668 565.439, 244.769 560.329, 236.174 560.171, 235.909 555.515, 227.060 554.813, 225.727 550.606, 216.655 549.919, 215.172 548.653, 212.054 545.504, 204.296 542.187, 194.862 541.583, 193.145 " fill="none" stroke="rgb(0, 0, 0)" stroke-linecap="butt" stroke-linejoin="round" stroke-opacity="1.0" stroke-width="3.0" />
            <path d=" M 541.583, 193.145 541.376, 192.599 540.881, 191.297 537.959, 183.604 536.742, 180.714 534.178, 174.627 530.244, 166.249 527.954, 161.909 526.161, 158.508 523.853, 154.651 521.934, 151.446 517.570, 145.103 516.830, 144.183 513.075, 139.519 512.498, 138.921 508.457, 134.735 503.725, 130.793 498.888, 127.737 498.310, 127.487 495.370, 126.215 493.956, 125.603 488.943, 124.432 483.862, 124.264 478.726, 125.135 473.551, 127.078 469.420, 129.499 468.695, 129.924 468.355, 130.124 463.549, 133.985 463.155, 134.302 457.971, 139.635 452.970, 145.956 452.824, 146.140 450.737, 149.293 447.734, 153.832 446.577, 155.884 442.725, 162.719 438.350, 171.711 437.820, 172.801 433.916, 182.007 433.042, 184.069 429.557, 193.442 428.416, 196.510 425.306, 206.015 423.968, 210.105 421.195, 219.712 419.722, 224.818 417.255, 234.509 415.701, 240.610 413.515, 250.368 411.932, 257.434 410.004, 267.247 408.436, 275.232 406.750, 285.089 405.236, 293.935 403.776, 303.828 402.353, 313.467 401.107, 323.389 399.861, 333.311 399.806, 333.747 398.764, 343.692 397.722, 353.638 397.613, 354.683 396.766, 364.647 395.920, 374.611 395.787, 376.177 395.130, 386.156 394.473, 396.134 394.342, 398.126 394.366, 398.228 396.703, 407.951 399.040, 417.674 400.346, 423.110 400.429, 423.456 402.861, 433.155 405.294, 442.855 406.579, 447.981 409.110, 457.655 411.641, 467.329 412.794, 471.736 415.427, 481.383 418.060, 491.030 419.077, 494.756 421.814, 504.374 424.551, 513.992 425.428, 517.072 428.272, 526.659 431.117, 536.246 431.850, 538.717 434.804, 548.270 437.759, 557.824 438.345, 559.719 441.412, 569.237 444.479, 578.755 444.915, 580.107 448.097, 589.588 451.279, 599.068 451.562, 599.910 454.862, 609.350 458.162, 618.790 458.289, 619.153 461.708, 628.550 465.097, 637.863 468.638, 647.215 471.989, 656.063 475.654, 665.367 478.966, 673.778 482.756, 683.032 486.032, 691.031 486.097, 691.184 " fill="none" stroke="rgb(0, 0, 0)" stroke-linecap="butt" stroke-linejoin="round" stroke-opacity="1.0" stroke-width="3.0" />
            <path d=" M 481.482, 606.837 482.130, 611.142 " fill="none" stroke="rgb(0, 0, 0)" stroke-linecap="butt" stroke-linejoin="round" stroke-opacity="1.0" stroke-width="3.0" />
            <path d=" M 482.159, 626.025 481.583, 624.059 482.162, 627.382 " fill="none" stroke="rgb(0, 0, 0)" stroke-linecap="butt" stroke-linejoin="round" stroke-opacity="1.0" stroke-width="3.0" />
            <path d=" M 482.577, 642.556 482.135, 641.141 482.605, 643.493 " fill="none" stroke="rgb(0, 0, 0)" stroke-linecap="butt" stroke-linejoin="round" stroke-opacity="1.0" stroke-width="3.0" />
            <path d=" M 476.515, 623.293 478.381, 633.117 480.246, 642.942 482.111, 652.766 483.109, 658.025 " fill="none" stroke="rgb(0, 0, 0)" stroke-linecap="butt" stroke-linejoin="round" stroke-opacity="1.0" stroke-width="3.0" />
            <path d=" M 483.363, 658.776 483.109, 658.025 483.391, 659.254 " fill="none" stroke="rgb(0, 0, 0)" stroke-linecap="butt" stroke-linejoin="round" stroke-opacity="1.0" stroke-width="3.0" />
            <path d=" M 477.116, 640.292 479.203, 650.072 481.291, 659.852 483.378, 669.631 484.452, 674.661 " fill="none" stroke="rgb(0, 0, 0)" stroke-linecap="butt" stroke-linejoin="round" stroke-opacity="1.0" stroke-width="3.0" />
            <path d=" M 484.518, 674.839 484.452, 674.661 484.528, 674.950 " fill="none" stroke="rgb(0, 0, 0)" stroke-linecap="butt" stroke-linejoin="round" stroke-opacity="1.0" stroke-width="3.0" />
            <path d=" M 477.984, 657.125 480.294, 666.854 482.603, 676.584 484.913, 686.314 486.032, 691.031 " fill="none" stroke="rgb(0, 0, 0)" stroke-linecap="butt" stroke-linejoin="round" stroke-opacity="1.0" stroke-width="3.0" />
            <path d=" M 365.044, 389.671 360.319, 398.484 357.813, 403.159 " fill="none" stroke="rgb(0, 0, 0)" stroke-linecap="butt" stroke-linejoin="round" stroke-opacity="1.0" stroke-width="3.0" />
            <path d=" M 469.420, 129.499 466.831, 129.681 " fill="none" stroke="rgb(0, 0, 0)" stroke-linecap="butt" stroke-linejoin="round" stroke-opacity="1.0" stroke-width="3.0" />
            <path d=" M 569.151, 250.408 565.439, 244.769 " fill="none" stroke="rgb(0, 0, 0)" stroke-linecap="butt" stroke-linejoin="round" stroke-opacity="1.0" stroke-width="3.0" />
            <path d=" M 791.321, 540.570 791.468, 543.418 " fill="none" stroke="rgb(0, 0, 0)" stroke-linecap="butt" stroke-linejoin="round" stroke-opacity="1.0" stroke-width="3.0" />
            <path d=" M 794.840, 522.084 794.407, 516.711 " fill="none" stroke="rgb(0, 0, 0)" stroke-linecap="butt" stroke-linejoin="round" stroke-opacity="1.0" stroke-width="3.0" />
            <path d=" M 800.274, 519.461 800.097, 517.251 " fill="none" stroke="rgb(0, 0, 0)" stroke-linecap="butt" stroke-linejoin="round" stroke-opacity="1.0" stroke-width="3.0" />
            <path d=" M 801.471, 518.559 801.377, 517.373 " fill="none" stroke="rgb(0, 0, 0)" stroke-linecap="butt" stroke-linejoin="round" stroke-opacity="1.0" stroke-width="3.0" />
        </g>
    </g>
</svg>
