<?xml version='1.0' encoding='ascii'?>
<svg xmlns="http://www.w3.org/2000/svg" height="1080" version="1.1" width="1080">
    <g id="View Layer_LineSet" inkscape:groupmode="lineset" inkscape:label="View Layer_LineSet" xmlns:inkscape="http://www.inkscape.org/namespaces/inkscape">
        <g id="strokes" inkscape:groupmode="layer" inkscape:label="strokes" xmlns:inkscape="http://www.inkscape.org/namespaces/inkscape">
            <path d=" M 356.549, 424.657 362.969, 422.969 " fill="none" stroke="rgb(0, 0, 0)" stroke-linecap="butt" stroke-linejoin="round" stroke-opacity="1.0" stroke-width="3.0" />
            <path d=" M 380.877, 423.065 390.766, 424.550 392.827, 424.859 " fill="none" stroke="rgb(0, 0, 0)" stroke-linecap="butt" stroke-linejoin="round" stroke-opacity="1.0" stroke-width="3.0" />
            <path d=" M 392.827, 424.859 389.092, 415.583 385.357, 406.307 384.749, 404.796 " fill="none" stroke="rgb(0, 0, 0)" stroke-linecap="butt" stroke-linejoin="round" stroke-opacity="1.0" stroke-width="3.0" />
            <path d=" M 464.027, 137.477 459.486, 138.629 454.901, 140.893 450.286, 144.300 445.658, 148.881 441.035, 154.661 439.100, 157.603 439.099, 157.605 439.097, 157.609 438.461, 158.576 436.436, 161.656 431.879, 169.879 427.589, 178.912 427.387, 179.339 423.577, 188.585 422.980, 190.034 419.587, 199.440 418.681, 201.952 415.654, 211.483 414.512, 215.078 411.811, 224.707 410.497, 229.387 408.087, 239.093 406.660, 244.841 404.513, 254.608 403.021, 261.393 401.115, 271.209 399.605, 278.989 397.922, 288.846 396.433, 297.565 394.956, 307.456 393.525, 317.045 392.242, 326.962 390.960, 336.880 390.900, 337.345 389.802, 347.284 388.704, 357.224 388.577, 358.374 387.655, 368.331 386.732, 378.289 386.571, 380.033 385.817, 390.004 385.063, 399.976 384.894, 402.214 384.749, 404.796 382.676, 414.579 380.877, 423.065 " fill="none" stroke="rgb(0, 0, 0)" stroke-linecap="butt" stroke-linejoin="round" stroke-opacity="1.0" stroke-width="3.0" />
            <path d=" M 527.130, 718.782 527.350, 717.785 529.332, 707.984 529.748, 705.926 531.571, 696.094 532.013, 693.709 533.687, 683.850 534.143, 681.162 535.678, 671.280 536.139, 668.310 537.543, 658.409 538.000, 655.180 539.280, 645.262 539.727, 641.797 540.889, 631.865 540.925, 631.556 541.319, 628.184 542.368, 618.239 542.777, 614.365 543.717, 604.409 544.100, 600.361 544.937, 590.396 545.289, 586.194 546.025, 576.221 546.345, 571.885 546.982, 561.906 547.267, 557.454 547.808, 547.469 548.055, 542.922 548.503, 532.932 548.710, 528.308 555.305, 528.288 557.154, 528.282 557.293, 528.282 559.078, 528.276 562.651, 528.265 563.488, 528.263 564.438, 528.260 567.004, 528.252 577.004, 528.222 577.697, 528.220 578.042, 518.226 578.206, 513.479 578.433, 503.481 578.541, 498.688 578.652, 488.688 578.705, 483.866 578.698, 473.866 578.695, 469.034 578.572, 459.035 578.513, 454.211 578.272, 444.214 578.156, 439.417 577.797, 429.424 577.626, 424.673 577.147, 414.684 576.979, 411.187 " fill="none" stroke="rgb(0, 0, 0)" stroke-linecap="butt" stroke-linejoin="round" stroke-opacity="1.0" stroke-width="3.0" />
            <path d=" M 574.046, 416.070 574.530, 426.058 574.589, 427.292 574.952, 437.286 575.102, 441.418 575.345, 451.415 575.447, 455.594 575.572, 465.593 575.624, 469.800 575.631, 479.800 575.634, 484.016 575.523, 494.015 575.477, 498.222 575.249, 508.219 575.154, 512.398 575.116, 513.488 575.017, 514.125 574.912, 514.721 574.799, 515.272 574.681, 515.776 574.557, 516.229 574.429, 516.629 574.297, 516.974 574.161, 517.262 574.023, 517.492 573.883, 517.662 573.742, 517.771 573.601, 517.819 573.461, 517.805 573.322, 517.730 569.383, 514.693 569.248, 513.373 569.083, 512.181 568.890, 511.139 568.673, 510.264 568.435, 509.571 568.180, 509.071 567.913, 508.774 567.637, 508.686 567.480, 508.683 564.930, 508.642 563.966, 508.626 563.144, 508.613 559.574, 508.555 557.790, 508.527 557.720, 508.526 557.250, 508.518 556.960, 508.640 556.672, 508.970 556.389, 509.505 556.118, 510.235 555.862, 511.149 555.807, 511.403 555.627, 512.231 555.416, 513.463 555.232, 514.825 555.080, 516.293 554.961, 517.842 554.878, 519.446 555.572, 519.940 556.529, 520.621 557.400, 520.636 557.503, 520.638 557.630, 520.640 559.287, 520.670 562.857, 520.733 563.693, 520.748 564.643, 520.764 565.082, 520.772 566.933, 520.805 566.960, 520.299 567.001, 519.817 567.054, 519.373 567.118, 518.979 567.192, 518.645 567.272, 518.381 567.273, 518.380 567.358, 518.195 567.446, 518.090 567.535, 518.070 " fill="none" stroke="rgb(0, 0, 0)" stroke-linecap="butt" stroke-linejoin="round" stroke-opacity="1.0" stroke-width="3.0" />
            <path d=" M 567.981, 521.580 574.664, 526.525 577.697, 528.220 " fill="none" stroke="rgb(0, 0, 0)" stroke-linecap="butt" stroke-linejoin="round" stroke-opacity="1.0" stroke-width="3.0" />
            <path d=" M 390.902, 200.643 390.171, 202.846 387.352, 212.441 386.361, 215.816 383.837, 225.493 382.669, 229.971 380.408, 239.712 379.117, 245.276 377.091, 255.069 375.723, 261.687 373.913, 271.522 372.508, 279.155 370.896, 289.024 369.492, 297.616 368.063, 307.514 366.694, 317.000 365.437, 326.920 364.180, 336.841 364.131, 337.225 363.036, 347.165 361.942, 357.105 361.821, 358.204 360.881, 368.159 359.941, 378.115 359.779, 379.839 358.987, 389.808 358.196, 399.776 358.017, 402.027 357.369, 412.006 356.722, 421.985 356.549, 424.657 356.088, 434.647 355.627, 444.636 355.491, 447.589 355.190, 457.585 354.889, 467.580 354.795, 470.706 354.652, 480.705 354.510, 490.704 354.465, 493.886 354.482, 503.886 354.498, 513.886 354.503, 517.008 354.680, 527.006 354.858, 537.005 354.910, 539.950 355.250, 549.944 355.590, 559.938 355.680, 562.594 356.187, 572.581 356.694, 582.568 356.809, 584.824 357.489, 594.801 358.169, 604.778 358.288, 606.531 359.148, 616.494 360.008, 626.457 360.108, 627.611 361.156, 637.556 362.204, 647.501 362.254, 647.968 363.501, 657.890 364.712, 667.512 366.172, 677.404 367.466, 686.162 369.155, 696.018 369.336, 697.073 " fill="none" stroke="rgb(0, 0, 0)" stroke-linecap="butt" stroke-linejoin="round" stroke-opacity="1.0" stroke-width="3.0" />
            <path d=" M 492.880, 735.651 491.714, 739.557 488.580, 749.133 485.313, 758.203 481.917, 766.733 478.397, 774.691 474.755, 782.041 470.998, 788.747 467.130, 794.772 463.157, 800.082 459.088, 804.637 455.184, 808.168 " fill="none" stroke="rgb(0, 0, 0)" stroke-linecap="butt" stroke-linejoin="round" stroke-opacity="1.0" stroke-width="3.0" />
            <path d=" M 393.120, 419.772 392.827, 424.859 392.393, 434.850 391.959, 444.840 391.833, 447.735 391.560, 457.731 391.288, 467.727 391.204, 470.795 391.091, 480.795 390.977, 490.794 390.942, 493.920 390.988, 503.920 391.035, 513.919 391.049, 516.987 391.256, 526.985 391.462, 536.983 391.522, 539.878 391.891, 549.871 392.259, 559.864 392.355, 562.474 392.888, 572.459 393.421, 582.445 393.540, 584.660 394.242, 594.636 394.944, 604.611 395.065, 606.328 395.942, 616.290 396.819, 626.251 396.917, 627.373 397.976, 637.317 399.034, 647.261 399.081, 647.701 400.329, 657.622 401.537, 667.221 402.988, 677.115 404.270, 685.852 405.936, 695.712 407.256, 703.525 409.154, 713.343 410.476, 720.177 412.627, 729.943 413.907, 735.755 416.336, 745.455 417.527, 750.214 420.264, 759.832 421.315, 763.522 424.398, 773.035 425.246, 775.654 428.723, 785.031 429.301, 786.592 433.228, 795.789 433.458, 796.327 437.695, 804.860 441.994, 812.195 443.405, 814.194 443.699, 814.611 446.334, 818.344 450.699, 823.324 455.071, 827.159 459.435, 829.875 463.776, 831.501 468.080, 832.072 472.334, 831.624 476.530, 830.193 480.654, 827.817 484.699, 824.540 488.656, 820.400 488.870, 820.126 492.518, 815.437 496.278, 809.693 499.931, 803.209 503.471, 796.024 506.473, 789.142 " fill="none" stroke="rgb(0, 0, 0)" stroke-linecap="butt" stroke-linejoin="round" stroke-opacity="1.0" stroke-width="3.0" />
            <path d=" M 467.852, 813.881 463.928, 813.158 463.804, 813.135 459.735, 811.390 455.661, 808.617 455.184, 808.168 451.594, 804.789 447.549, 799.887 443.543, 793.889 439.591, 786.782 435.712, 778.559 431.922, 769.216 428.602, 759.783 428.241, 758.757 425.304, 749.198 424.687, 747.190 422.087, 737.534 421.280, 734.536 418.979, 724.805 418.037, 720.820 416.007, 711.029 414.979, 706.073 413.194, 696.234 412.124, 690.338 410.564, 680.460 409.490, 673.666 408.137, 663.758 407.094, 656.114 405.936, 646.182 404.952, 637.749 403.977, 627.796 403.081, 618.645 402.279, 608.677 401.491, 598.885 400.856, 588.905 400.221, 578.925 400.197, 578.557 399.723, 568.568 399.248, 558.579 399.209, 557.755 398.890, 547.760 398.571, 537.766 398.533, 536.581 398.367, 526.583 398.200, 516.584 398.176, 515.139 398.160, 505.139 398.144, 495.139 398.142, 493.535 398.276, 483.536 398.409, 473.537 398.432, 471.880 398.715, 461.884 398.998, 451.888 399.044, 450.283 399.361, 442.980 " fill="none" stroke="rgb(0, 0, 0)" stroke-linecap="butt" stroke-linejoin="round" stroke-opacity="1.0" stroke-width="3.0" />
            <path d=" M 503.131, 778.091 501.686, 781.276 498.258, 787.958 494.732, 793.961 491.112, 799.250 487.406, 803.786 483.621, 807.531 479.763, 810.449 475.843, 812.505 471.869, 813.660 467.852, 813.881 " fill="none" stroke="rgb(0, 0, 0)" stroke-linecap="butt" stroke-linejoin="round" stroke-opacity="1.0" stroke-width="3.0" />
            <path d=" M 546.188, 526.635 545.735, 536.625 545.553, 540.638 545.000, 550.622 544.782, 554.558 544.127, 564.536 543.875, 568.377 543.116, 578.348 542.832, 582.073 541.966, 592.036 541.654, 595.628 540.678, 605.580 540.341, 609.019 539.252, 618.960 538.894, 622.227 537.687, 632.154 537.313, 635.228 535.982, 645.139 535.598, 647.999 534.138, 657.892 533.808, 660.126 533.777, 660.340 533.750, 660.518 533.749, 660.529 532.153, 670.400 531.771, 672.760 530.030, 682.608 529.660, 684.700 527.765, 694.519 527.419, 696.312 525.359, 706.097 525.083, 707.412 " fill="none" stroke="rgb(0, 0, 0)" stroke-linecap="butt" stroke-linejoin="round" stroke-opacity="1.0" stroke-width="3.0" />
            <path d=" M 548.710, 528.308 546.188, 526.635 555.366, 526.600 557.214, 526.593 562.697, 526.572 564.484, 526.565 564.876, 526.564 564.492, 526.290 563.560, 525.627 562.739, 525.042 559.235, 522.547 557.618, 521.396 557.631, 520.882 557.630, 520.640 " fill="none" stroke="rgb(0, 0, 0)" stroke-linecap="butt" stroke-linejoin="round" stroke-opacity="1.0" stroke-width="3.0" />
            <path d=" M 380.877, 423.065 380.433, 433.055 379.989, 443.045 379.818, 446.878 379.533, 456.874 379.247, 466.870 379.132, 470.886 379.003, 480.886 378.874, 490.885 378.822, 494.961 378.850, 504.961 378.878, 514.961 378.890, 518.973 379.076, 528.971 379.263, 538.969 379.334, 542.794 379.681, 552.788 380.028, 562.782 380.150, 566.301 380.660, 576.288 381.171, 586.275 381.329, 589.372 382.009, 599.349 382.688, 609.325 382.863, 611.890 383.717, 621.853 384.572, 631.817 384.737, 633.747 385.775, 643.693 386.813, 653.639 386.938, 654.841 388.169, 664.765 389.400, 674.689 389.448, 675.080 390.885, 684.976 392.249, 694.378 393.906, 704.240 395.321, 712.662 397.216, 722.481 398.642, 729.870 400.798, 739.634 402.191, 745.944 404.634, 755.641 405.945, 760.842 408.708, 770.453 409.880, 774.530 413.003, 784.030 413.975, 786.985 417.508, 796.340 418.206, 798.189 422.210, 807.353 422.552, 808.135 426.990, 816.827 431.500, 824.271 436.062, 830.481 440.657, 835.477 445.266, 839.288 449.873, 841.940 454.462, 843.467 459.018, 843.905 463.529, 843.295 467.982, 841.674 472.365, 839.085 476.669, 835.571 480.884, 831.176 485.002, 825.940 " fill="none" stroke="rgb(0, 0, 0)" stroke-linecap="butt" stroke-linejoin="round" stroke-opacity="1.0" stroke-width="3.0" />
            <path d=" M 485.002, 825.940 490.822, 817.808 492.518, 815.437 " fill="none" stroke="rgb(0, 0, 0)" stroke-linecap="butt" stroke-linejoin="round" stroke-opacity="1.0" stroke-width="3.0" />
            <path d=" M 539.064, 551.679 529.075, 552.146 527.613, 552.215 527.010, 550.993 " fill="none" stroke="rgb(0, 0, 0)" stroke-linecap="butt" stroke-linejoin="round" stroke-opacity="1.0" stroke-width="3.0" />
            <path d=" M 541.124, 501.415 540.873, 511.411 540.621, 521.408 540.489, 526.657 539.986, 536.645 539.783, 540.668 539.131, 550.647 539.064, 551.679 534.790, 542.638 530.821, 534.241 530.570, 533.709 530.427, 533.407 " fill="none" stroke="rgb(0, 0, 0)" stroke-linecap="butt" stroke-linejoin="round" stroke-opacity="1.0" stroke-width="3.0" />
            <path d=" M 366.040, 378.175 365.952, 379.144 365.201, 389.116 364.449, 399.088 364.314, 400.883 363.706, 410.865 363.698, 410.995 363.090, 420.977 362.969, 422.969 362.502, 432.959 362.035, 442.948 361.924, 445.316 361.596, 455.311 361.268, 465.306 361.185, 467.836 360.995, 477.834 360.806, 487.833 360.756, 490.439 360.737, 494.081 " fill="none" stroke="rgb(0, 0, 0)" stroke-linecap="butt" stroke-linejoin="round" stroke-opacity="1.0" stroke-width="3.0" />
            <path d=" M 533.359, 745.719 534.431, 740.581 536.338, 730.764 536.640, 729.208 538.419, 719.368 538.742, 717.587 540.400, 707.725 540.735, 705.734 542.279, 695.854 542.621, 693.667 544.055, 683.770 544.399, 681.401 545.728, 671.489 546.069, 668.952 547.297, 659.027 547.630, 656.334 548.761, 646.398 549.084, 643.562 550.121, 633.616 550.430, 630.650 551.375, 620.695 551.668, 617.611 552.523, 607.647 552.798, 604.457 553.566, 594.487 553.820, 591.202 554.503, 581.225 554.734, 577.857 555.334, 567.875 555.541, 564.434 556.058, 554.447 556.239, 550.945 556.675, 540.955 556.830, 537.402 557.154, 528.282 " fill="none" stroke="rgb(0, 0, 0)" stroke-linecap="butt" stroke-linejoin="round" stroke-opacity="1.0" stroke-width="3.0" />
            <path d=" M 458.779, 882.589 461.199, 882.746 465.321, 882.806 469.401, 882.051 473.433, 880.511 477.409, 878.216 481.323, 875.195 485.168, 871.479 488.940, 867.098 492.634, 862.083 496.246, 856.462 499.770, 850.264 503.205, 843.519 506.547, 836.254 509.794, 828.497 512.943, 820.273 515.265, 813.674 " fill="none" stroke="rgb(0, 0, 0)" stroke-linecap="butt" stroke-linejoin="round" stroke-opacity="1.0" stroke-width="3.0" />
            <path d=" M 517.533, 152.102 516.652, 149.746 513.490, 142.089 510.217, 134.954 506.835, 128.371 503.347, 122.370 499.757, 116.982 496.067, 112.238 492.283, 108.170 488.408, 104.809 484.448, 102.188 480.410, 100.339 476.299, 99.292 472.124, 99.078 471.073, 99.239 467.892, 99.727 463.613, 101.268 459.296, 103.728 454.950, 107.132 450.589, 111.502 446.223, 116.859 441.866, 123.219 437.530, 130.598 433.230, 139.004 433.026, 139.458 428.981, 148.442 426.516, 154.613 424.798, 158.915 421.440, 168.334 420.697, 170.416 417.652, 179.941 416.694, 182.938 413.931, 192.548 412.805, 196.464 410.299, 206.144 409.048, 210.972 406.775, 220.710 405.439, 226.436 403.382, 236.222 401.995, 242.821 400.137, 252.647 398.731, 260.087 397.060, 269.946 395.664, 278.187 394.169, 288.075 392.809, 297.068 391.480, 306.980 390.181, 316.672 389.011, 326.603 387.840, 336.534 387.793, 336.932 386.774, 346.880 385.756, 356.828 385.658, 357.779 384.786, 367.741 383.913, 377.703 383.788, 379.137 383.057, 389.110 382.326, 399.084 382.191, 400.927 381.599, 410.909 381.006, 420.892 380.877, 423.065 380.420, 433.055 379.964, 443.044 379.853, 445.465 379.530, 455.459 379.207, 465.454 379.123, 468.038 378.933, 478.036 378.743, 488.034 378.692, 490.693 378.634, 500.693 378.576, 510.693 378.561, 513.341 378.635, 523.341 378.710, 533.340 378.729, 535.890 378.938, 545.888 379.146, 555.886 379.195, 558.251 379.540, 568.246 379.884, 578.240 379.956, 580.337 380.438, 590.325 380.921, 600.314 381.005, 602.062 381.629, 612.042 382.254, 622.023 382.336, 623.344 383.107, 633.315 383.877, 643.285 383.941, 644.107 384.863, 654.065 385.785, 664.022 385.809, 664.278 386.889, 674.219 387.929, 683.787 389.175, 693.710 390.289, 702.575 391.711, 712.473 392.876, 720.583 394.485, 730.453 395.676, 737.763 397.484, 747.598 398.674, 754.069 400.697, 763.862 401.855, 769.465 404.111, 779.207 405.203, 783.918 407.714, 793.598 408.702, 797.405 411.495, 807.007 412.338, 809.904 415.442, 819.410 416.093, 821.404 419.546, 830.789 419.953, 831.895 423.799, 841.126 423.902, 841.375 427.926, 849.845 432.010, 857.312 436.140, 863.786 440.304, 869.280 444.488, 873.812 448.680, 877.402 452.870, 880.071 457.046, 881.844 460.602, 882.616 461.199, 882.746 " fill="none" stroke="rgb(0, 0, 0)" stroke-linecap="butt" stroke-linejoin="round" stroke-opacity="1.0" stroke-width="3.0" />
            <path d=" M 469.667, 99.168 465.408, 99.818 461.102, 101.360 456.757, 103.820 452.385, 107.223 447.996, 111.593 443.603, 116.949 439.219, 123.309 434.857, 130.685 430.531, 139.089 430.246, 139.719 426.256, 148.525 422.527, 157.804 422.048, 158.995 420.453, 163.441 417.923, 170.493 414.860, 180.012 413.896, 183.010 411.117, 192.617 409.985, 196.532 407.463, 206.209 406.206, 211.036 403.920, 220.771 402.576, 226.494 400.507, 236.278 399.112, 242.873 397.244, 252.697 395.830, 260.133 394.150, 269.991 392.746, 278.227 391.243, 288.113 389.876, 297.101 388.540, 307.011 387.234, 316.697 386.057, 326.627 384.881, 336.558 384.834, 336.949 383.810, 346.897 382.786, 356.844 382.689, 357.788 381.812, 367.750 380.935, 377.711 380.809, 379.138 380.075, 389.111 379.341, 399.084 379.206, 400.920 378.611, 410.902 378.016, 420.884 377.887, 423.049 377.428, 433.039 376.970, 443.028 376.859, 445.440 376.535, 455.435 376.211, 465.430 376.128, 468.004 375.938, 478.002 375.747, 488.000 375.697, 490.651 375.640, 500.651 375.583, 510.650 375.568, 513.290 375.644, 523.289 375.721, 533.289 375.740, 535.830 375.951, 545.828 376.163, 555.826 376.212, 558.183 376.560, 568.177 376.908, 578.171 376.981, 580.260 377.468, 590.248 377.954, 600.236 378.039, 601.977 378.669, 611.957 379.299, 621.937 379.382, 623.251 380.159, 633.221 380.935, 643.191 380.999, 644.007 381.928, 653.963 382.858, 663.920 382.881, 664.170 383.970, 674.110 385.017, 683.673 386.273, 693.594 387.395, 702.454 388.828, 712.351 390.001, 720.456 391.621, 730.324 392.820, 737.630 394.641, 747.463 395.839, 753.931 397.877, 763.722 399.042, 769.323 401.314, 779.061 402.413, 783.772 404.942, 793.447 405.937, 797.255 408.747, 806.852 409.597, 809.751 412.720, 819.251 412.873, 819.714 413.340, 821.136 413.377, 821.248 416.851, 830.625 417.263, 831.737 421.131, 840.959 421.239, 841.215 425.289, 849.685 429.400, 857.151 433.558, 863.624 437.748, 869.119 441.959, 873.651 446.179, 877.241 450.396, 879.911 454.599, 881.685 458.779, 882.589 " fill="none" stroke="rgb(0, 0, 0)" stroke-linecap="butt" stroke-linejoin="round" stroke-opacity="1.0" stroke-width="3.0" />
            <path d=" M 472.124, 99.078 469.667, 99.168 " fill="none" stroke="rgb(0, 0, 0)" stroke-linecap="butt" stroke-linejoin="round" stroke-opacity="1.0" stroke-width="3.0" />
            <path d=" M 539.399, 765.590 540.548, 759.902 540.608, 759.606 542.459, 749.779 542.911, 747.380 544.640, 737.530 545.101, 734.907 546.714, 725.038 547.177, 722.205 548.680, 712.319 549.140, 709.292 550.537, 699.390 550.989, 696.184 552.285, 686.268 552.726, 682.895 553.924, 672.968 554.349, 669.442 555.453, 659.504 555.860, 655.839 556.873, 645.890 557.259, 642.098 558.183, 632.141 558.546, 628.234 559.383, 618.269 559.720, 614.258 560.473, 604.287 560.783, 600.184 561.453, 590.207 561.734, 586.023 562.323, 576.041 562.574, 571.787 563.083, 561.800 563.303, 557.487 563.732, 547.496 563.920, 543.134 564.271, 533.141 564.425, 528.740 564.438, 528.260 " fill="none" stroke="rgb(0, 0, 0)" stroke-linecap="butt" stroke-linejoin="round" stroke-opacity="1.0" stroke-width="3.0" />
            <path d=" M 460.749, 917.966 463.135, 918.131 467.558, 917.759 471.929, 916.515 476.241, 914.435 480.486, 911.553 484.657, 907.904 488.749, 903.522 492.756, 898.443 496.674, 892.701 500.499, 886.327 504.227, 879.357 507.854, 871.819 511.378, 863.747 514.798, 855.169 518.110, 846.113 521.313, 836.609 522.872, 831.605 " fill="none" stroke="rgb(0, 0, 0)" stroke-linecap="butt" stroke-linejoin="round" stroke-opacity="1.0" stroke-width="3.0" />
            <path d=" M 541.730, 199.548 539.631, 189.771 539.576, 189.517 539.033, 187.182 537.005, 178.470 534.556, 168.775 534.307, 167.791 531.659, 158.148 531.483, 157.505 528.618, 147.925 528.533, 147.640 525.456, 138.224 522.255, 129.287 518.931, 120.858 515.484, 112.969 511.917, 105.653 508.232, 98.944 504.432, 92.875 500.521, 87.482 496.501, 82.802 492.379, 78.869 488.159, 75.721 483.847, 73.395 479.450, 71.928 474.975, 71.354 473.000, 71.509 470.431, 71.710 465.827, 73.031 461.173, 75.348 456.481, 78.694 451.761, 83.096 447.028, 88.581 442.295, 95.171 437.577, 102.885 432.888, 111.738 429.756, 118.488 428.247, 121.741 424.960, 129.752 423.670, 132.896 420.239, 142.289 419.174, 145.204 418.981, 145.796 415.875, 155.302 414.779, 158.657 411.965, 168.253 410.502, 173.240 407.952, 182.909 406.364, 188.933 404.054, 198.663 404.022, 198.800 402.382, 205.707 400.294, 215.487 398.577, 223.526 396.693, 233.347 394.967, 242.347 393.274, 252.203 391.571, 262.118 390.057, 272.003 388.543, 281.888 388.407, 282.780 387.062, 292.690 385.717, 302.599 385.491, 304.267 384.307, 314.197 383.123, 324.127 382.840, 326.506 381.810, 336.453 380.780, 346.399 380.468, 349.416 379.586, 359.377 378.705, 369.338 378.389, 372.911 377.651, 382.883 376.914, 392.856 376.615, 396.899 376.017, 406.882 375.420, 416.864 375.155, 421.286 374.695, 431.275 374.235, 441.265 374.018, 445.970 373.694, 455.964 373.369, 465.959 373.210, 470.849 373.020, 480.847 372.830, 490.845 372.735, 495.818 372.679, 505.818 372.623, 515.818 372.595, 520.774 372.674, 530.773 372.752, 540.773 372.790, 545.609 373.004, 555.607 373.218, 565.605 373.317, 570.222 373.669, 580.216 374.020, 590.210 374.172, 594.511 374.664, 604.499 375.156, 614.487 375.348, 618.379 375.985, 628.358 376.621, 638.338 376.838, 641.731 377.623, 651.700 378.409, 661.669 378.630, 664.479 379.571, 674.435 380.511, 684.390 380.714, 686.541 381.816, 696.480 382.919, 706.419 383.076, 707.840 384.348, 717.759 385.621, 727.678 385.701, 728.307 387.154, 738.201 388.575, 747.879 390.219, 757.743 391.680, 766.501 392.937, 773.176 394.787, 783.004 394.999, 784.126 397.072, 793.909 397.563, 796.225 398.515, 800.715 400.831, 810.443 402.209, 816.234 404.791, 825.894 405.388, 828.128 406.065, 830.658 408.941, 840.235 410.062, 843.970 410.841, 846.273 414.045, 855.746 414.184, 856.157 417.756, 865.498 418.414, 867.216 422.402, 876.386 422.733, 877.146 427.125, 885.954 431.574, 893.650 436.066, 900.251 440.584, 905.774 445.116, 910.244 449.649, 913.686 454.171, 916.127 458.669, 917.598 461.337, 917.917 463.135, 918.131 " fill="none" stroke="rgb(0, 0, 0)" stroke-linecap="butt" stroke-linejoin="round" stroke-opacity="1.0" stroke-width="3.0" />
            <path d=" M 366.608, 371.011 366.436, 372.926 366.040, 378.175 365.288, 388.147 364.630, 396.877 364.022, 406.858 363.780, 410.838 363.172, 420.820 363.147, 421.224 363.092, 422.406 362.625, 432.395 362.158, 442.384 361.996, 445.869 361.668, 455.864 361.340, 465.859 361.292, 467.308 361.181, 470.709 360.991, 480.707 360.801, 490.706 360.737, 494.081 360.707, 495.640 360.655, 505.639 360.603, 515.639 360.577, 520.555 360.663, 530.555 360.749, 540.555 360.760, 541.825 360.790, 545.353 360.805, 546.002 " fill="none" stroke="rgb(0, 0, 0)" stroke-linecap="butt" stroke-linejoin="round" stroke-opacity="1.0" stroke-width="3.0" />
            <path d=" M 472.550, 71.452 467.977, 71.809 463.344, 73.130 458.661, 75.448 453.939, 78.794 449.190, 83.195 444.428, 88.680 439.666, 95.269 434.919, 102.982 430.202, 111.833 425.971, 120.894 425.533, 121.833 422.074, 130.211 420.928, 132.985 417.479, 142.371 416.406, 145.290 414.778, 150.244 414.674, 150.559 411.985, 158.738 409.155, 168.329 407.684, 173.317 405.119, 182.982 403.521, 189.005 401.199, 198.731 399.517, 205.773 397.417, 215.550 395.691, 223.586 395.205, 226.106 393.310, 235.924 392.061, 242.400 390.359, 252.254 388.646, 262.164 387.124, 272.048 385.602, 281.931 385.465, 282.819 384.113, 292.727 382.761, 302.635 382.534, 304.298 381.344, 314.226 380.153, 324.155 379.869, 326.528 378.834, 336.474 377.799, 346.420 377.486, 349.429 376.600, 359.389 375.714, 369.350 375.397, 372.914 374.656, 382.887 373.915, 392.859 373.615, 396.894 373.015, 406.876 372.415, 416.858 372.150, 421.270 371.688, 431.260 371.226, 441.249 371.009, 445.945 370.684, 455.939 370.358, 465.934 370.199, 470.814 370.009, 480.812 369.819, 490.810 369.725, 495.774 369.670, 505.773 369.614, 515.773 369.587, 520.719 369.667, 530.719 369.748, 540.718 369.786, 545.545 370.003, 555.543 370.220, 565.540 370.320, 570.148 370.675, 580.142 371.031, 590.136 371.183, 594.428 371.680, 604.416 372.177, 614.404 372.370, 618.287 373.012, 628.266 373.654, 638.245 373.872, 641.630 374.664, 651.599 375.456, 661.567 375.679, 664.370 376.627, 674.325 377.574, 684.280 377.779, 686.424 378.889, 696.362 380.000, 706.300 380.158, 707.716 381.440, 717.633 382.722, 727.551 382.802, 728.176 384.266, 738.068 385.553, 746.774 385.696, 747.741 387.353, 757.603 388.823, 766.358 390.687, 776.183 392.116, 783.717 392.165, 783.978 394.253, 793.757 394.785, 796.251 395.705, 800.561 398.037, 810.286 399.425, 816.076 402.024, 825.732 402.452, 827.323 403.306, 830.497 406.201, 840.068 407.331, 843.805 410.554, 853.271 411.480, 855.990 415.074, 865.322 415.738, 867.047 419.749, 876.207 420.085, 876.975 424.506, 885.782 428.985, 893.478 433.505, 900.078 438.053, 905.602 442.615, 910.073 447.177, 913.515 451.727, 915.958 456.255, 917.431 460.749, 917.966 " fill="none" stroke="rgb(0, 0, 0)" stroke-linecap="butt" stroke-linejoin="round" stroke-opacity="1.0" stroke-width="3.0" />
            <path d=" M 474.975, 71.354 472.550, 71.452 " fill="none" stroke="rgb(0, 0, 0)" stroke-linecap="butt" stroke-linejoin="round" stroke-opacity="1.0" stroke-width="3.0" />
            <path d=" M 548.232, 214.474 546.459, 204.633 546.426, 204.449 544.509, 194.635 544.047, 192.267 541.977, 182.484 541.537, 180.405 539.302, 170.658 538.896, 168.885 536.482, 159.181 536.123, 157.735 533.515, 148.081 533.217, 146.981 530.396, 137.387 530.180, 136.650 527.124, 127.128 527.010, 126.772 523.710, 117.378 520.279, 108.500 516.719, 100.171 513.031, 92.424 509.219, 85.296 505.283, 78.823 501.229, 73.042 497.058, 67.991 492.777, 63.710 488.389, 60.238 483.902, 57.615 479.321, 55.880 474.655, 55.073 469.911, 55.233 465.027, 55.439 460.155, 56.605 455.226, 58.811 450.251, 62.092 445.242, 66.480 440.213, 72.004 435.180, 78.691 430.157, 86.563 425.335, 95.324 425.162, 95.638 420.827, 104.650 420.212, 105.929 416.306, 115.134 415.326, 117.442 411.798, 126.799 410.523, 130.179 407.331, 139.656 405.823, 144.133 402.933, 153.707 401.247, 159.293 398.629, 168.944 396.815, 175.636 394.446, 185.352 392.548, 193.135 390.902, 200.643 388.762, 210.412 388.468, 211.753 386.538, 221.565 384.595, 231.444 382.861, 241.292 381.128, 251.141 380.949, 252.154 379.400, 262.033 377.851, 271.913 377.552, 273.821 376.176, 283.726 374.801, 293.631 374.420, 296.375 373.210, 306.302 372.001, 316.228 371.573, 319.738 370.521, 329.682 369.470, 339.627 369.026, 343.822 368.127, 353.782 367.923, 356.043 367.024, 366.003 366.795, 368.537 366.608, 371.011 366.213, 376.259 365.461, 386.230 364.892, 393.783 364.284, 403.765 363.863, 410.679 363.329, 419.457 363.217, 421.836 362.751, 431.825 362.284, 441.814 362.114, 445.450 361.786, 455.445 361.458, 465.439 361.255, 471.652 361.065, 481.650 361.033, 483.338 360.843, 493.336 360.755, 497.950 360.703, 507.950 360.662, 515.812 360.618, 524.229 360.704, 534.229 360.771, 542.139 360.805, 546.002 360.842, 550.377 361.067, 560.375 361.292, 570.372 361.425, 576.282 361.792, 586.275 362.158, 596.268 362.362, 601.833 362.873, 611.820 363.384, 621.807 363.646, 626.927 364.305, 636.905 364.965, 646.884 365.267, 651.462 366.080, 661.429 366.892, 671.396 367.214, 675.343 368.186, 685.296 369.158, 695.248 369.336, 697.073 369.473, 698.482 370.612, 708.417 371.751, 718.352 372.031, 720.797 373.345, 730.710 374.659, 740.623 374.870, 742.214 376.370, 752.101 377.870, 761.988 377.974, 762.668 379.672, 772.523 381.323, 782.101 383.235, 791.917 384.900, 800.464 387.043, 810.232 388.684, 817.716 391.079, 827.425 392.657, 833.824 395.327, 843.461 396.797, 848.763 399.773, 858.310 401.085, 862.516 404.402, 871.950 405.501, 875.074 409.203, 884.364 410.027, 886.433 414.163, 895.538 414.644, 896.596 419.274, 905.460 419.333, 905.573 424.078, 913.377 428.862, 920.026 433.670, 925.545 438.486, 929.958 443.298, 933.295 448.092, 935.588 452.857, 936.870 457.659, 937.215 462.324, 937.518 466.940, 936.881 471.497, 935.342 475.988, 932.938 480.405, 929.708 484.741, 925.689 488.990, 920.918 493.148, 915.432 497.210, 909.268 501.171, 902.461 505.028, 895.046 508.779, 887.056 512.421, 878.522 515.951, 869.478 519.327, 860.065 519.368, 859.952 522.510, 850.458 522.670, 849.973 525.599, 840.411 525.857, 839.569 526.189, 838.403 " fill="none" stroke="rgb(0, 0, 0)" stroke-linecap="butt" stroke-linejoin="round" stroke-opacity="1.0" stroke-width="3.0" />
            <path d=" M 541.938, 772.524 542.517, 769.627 544.347, 759.796 544.881, 756.926 546.591, 747.074 547.128, 743.982 548.724, 734.110 549.257, 730.811 550.744, 720.922 551.269, 717.430 552.652, 707.527 553.165, 703.857 554.448, 693.940 554.944, 690.107 556.131, 680.178 556.607, 676.194 557.701, 666.254 558.155, 662.133 559.159, 652.184 559.587, 647.938 560.504, 637.980 560.905, 633.620 561.736, 623.655 562.108, 619.194 562.855, 609.222 563.196, 604.671 563.862, 594.694 564.171, 590.063 564.756, 580.081 565.031, 575.382 565.537, 565.395 565.778, 560.637 566.205, 550.647 566.410, 545.841 566.760, 535.848 566.929, 531.004 567.004, 528.252 " fill="none" stroke="rgb(0, 0, 0)" stroke-linecap="butt" stroke-linejoin="round" stroke-opacity="1.0" stroke-width="3.0" />
            <path d=" M 469.911, 55.233 465.100, 56.396 460.231, 58.601 455.316, 61.881 450.369, 66.269 445.401, 71.795 440.428, 78.484 435.465, 86.359 430.689, 95.145 430.529, 95.438 426.238, 104.471 425.772, 105.450 425.638, 105.734 421.772, 114.956 420.809, 117.253 417.318, 126.624 416.061, 129.997 412.904, 139.485 411.415, 143.960 411.338, 144.219 408.480, 153.802 406.891, 159.128 405.382, 164.760 402.794, 174.419 402.509, 175.483 402.393, 175.963 400.051, 185.685 398.290, 192.993 396.173, 202.767 394.255, 211.624 392.346, 221.440 392.050, 222.963 390.424, 231.329 388.710, 241.181 386.995, 251.033 386.818, 252.054 385.285, 261.936 383.753, 271.818 383.455, 273.738 382.546, 280.364 381.185, 290.271 380.356, 296.308 379.159, 306.237 377.962, 316.165 377.537, 319.689 376.497, 329.634 375.456, 339.580 375.015, 343.792 374.125, 353.752 373.235, 363.713 372.805, 368.526 372.060, 378.498 371.315, 388.471 370.918, 393.792 370.316, 403.774 369.713, 413.756 369.367, 419.486 368.904, 429.475 368.440, 439.465 368.160, 445.500 367.834, 455.495 367.508, 465.490 367.305, 471.723 367.115, 481.721 366.925, 491.719 366.804, 498.042 366.750, 508.041 366.696, 518.041 366.662, 524.342 366.744, 534.341 366.826, 544.341 366.876, 550.510 367.096, 560.508 367.316, 570.505 367.446, 576.435 367.805, 586.428 368.164, 596.422 368.365, 602.006 368.867, 611.994 369.368, 621.981 369.627, 627.119 370.275, 637.098 370.923, 647.077 371.221, 651.672 372.021, 661.640 372.820, 671.608 373.138, 675.571 374.095, 685.525 374.875, 693.633 375.216, 697.186 375.364, 698.726 376.486, 708.663 377.608, 718.600 377.885, 721.057 379.180, 730.972 380.475, 740.888 380.684, 742.488 382.163, 752.378 382.741, 756.248 383.638, 762.244 383.744, 762.956 385.419, 772.815 387.048, 782.401 388.934, 792.222 390.576, 800.775 392.690, 810.549 393.457, 814.092 394.310, 818.036 396.673, 827.753 398.229, 834.153 400.866, 843.799 402.315, 849.099 405.254, 858.657 406.546, 862.859 408.182, 867.574 410.906, 875.422 414.564, 884.728 415.373, 886.785 419.463, 895.910 419.930, 896.951 424.513, 905.839 424.559, 905.929 429.243, 913.734 433.967, 920.383 438.713, 925.901 443.469, 930.312 448.220, 933.647 452.954, 935.937 457.659, 937.215 " fill="none" stroke="rgb(0, 0, 0)" stroke-linecap="butt" stroke-linejoin="round" stroke-opacity="1.0" stroke-width="3.0" />
            <path d=" M 565.344, 519.630 565.425, 518.033 565.425, 518.024 565.451, 517.678 565.541, 516.473 565.689, 515.003 565.866, 513.639 566.071, 512.405 566.298, 511.321 566.545, 510.406 566.807, 509.675 567.080, 509.139 567.358, 508.808 567.478, 508.755 567.637, 508.686 " fill="none" stroke="rgb(0, 0, 0)" stroke-linecap="butt" stroke-linejoin="round" stroke-opacity="1.0" stroke-width="3.0" />
            <path d=" M 554.878, 519.446 555.585, 519.459 557.431, 519.491 557.584, 519.494 562.888, 519.587 564.674, 519.618 565.123, 519.626 565.344, 519.630 566.933, 520.805 " fill="none" stroke="rgb(0, 0, 0)" stroke-linecap="butt" stroke-linejoin="round" stroke-opacity="1.0" stroke-width="3.0" />
            <path d=" M 557.618, 521.396 562.836, 521.489 564.622, 521.521 565.055, 521.528 567.186, 521.566 567.981, 521.580 567.994, 521.065 567.992, 520.554 567.976, 520.060 567.945, 519.597 567.901, 519.177 567.845, 518.811 567.779, 518.511 567.704, 518.283 567.622, 518.135 567.535, 518.070 " fill="none" stroke="rgb(0, 0, 0)" stroke-linecap="butt" stroke-linejoin="round" stroke-opacity="1.0" stroke-width="3.0" />
            <path d=" M 622.172, 917.655 624.344, 918.180 632.206, 919.800 640.074, 920.673 647.933, 920.816 655.764, 920.246 663.552, 918.982 671.282, 917.046 678.939, 914.457 686.510, 911.237 693.983, 907.407 701.345, 902.990 708.586, 898.008 715.696, 892.482 722.666, 886.436 729.486, 879.891 736.149, 872.869 742.647, 865.392 748.893, 857.583 748.974, 857.482 754.916, 849.439 755.123, 849.159 760.772, 840.907 761.089, 840.444 766.455, 832.006 766.867, 831.359 771.959, 822.752 772.451, 821.921 777.280, 813.165 777.838, 812.153 782.411, 803.260 783.023, 802.071 787.350, 793.056 788.003, 791.696 792.091, 782.570 792.774, 781.044 796.631, 771.818 797.334, 770.135 800.966, 760.818 801.681, 758.986 805.094, 749.586 805.810, 747.613 809.010, 738.138 809.721, 736.033 812.712, 726.490 813.411, 724.262 816.198, 714.658 816.878, 712.316 819.465, 702.657 820.120, 700.211 822.511, 690.501 823.136, 687.962 825.334, 678.207 825.925, 675.584 827.932, 665.788 828.484, 663.092 830.302, 653.258 830.813, 650.499 832.444, 640.633 832.910, 637.821 834.356, 627.926 834.774, 625.071 836.036, 615.151 836.403, 612.264 837.482, 602.322 837.798, 599.413 838.694, 589.453 838.956, 586.531 839.669, 576.557 839.878, 573.634 840.406, 563.648 840.560, 560.734 840.904, 550.740 841.003, 547.845 841.161, 537.846 841.207, 534.981 841.177, 524.981 841.168, 522.156 840.949, 512.158 840.888, 509.384 840.476, 499.392 840.365, 496.679 839.758, 486.697 839.597, 484.055 838.792, 474.088 838.585, 471.528 837.578, 461.579 837.328, 459.111 836.114, 449.185 835.825, 446.820 834.399, 436.922 834.075, 434.670 832.432, 424.806 832.078, 422.677 830.212, 412.853 829.833, 410.857 827.737, 401.079 827.340, 399.226 825.007, 389.502 824.599, 387.802 822.021, 378.140 821.611, 376.601 818.779, 367.010 818.374, 365.640 815.278, 356.132 814.890, 354.939 811.520, 345.524 811.159, 344.516 807.504, 335.208 807.182, 334.389 803.229, 325.203 802.960, 324.578 798.698, 315.532 798.496, 315.104 793.909, 306.218 793.789, 305.986 788.844, 297.245 783.662, 288.903 778.247, 280.982 772.603, 273.503 766.733, 266.488 760.643, 259.961 754.338, 253.945 747.825, 248.461 741.110, 243.534 734.201, 239.187 727.107, 235.441 719.837, 232.320 712.402, 229.847 704.813, 228.043 697.082, 226.929 689.224, 226.525 681.251, 226.851 679.036, 227.002 " fill="none" stroke="rgb(0, 0, 0)" stroke-linecap="butt" stroke-linejoin="round" stroke-opacity="1.0" stroke-width="3.0" />
            <path d=" M 624.344, 918.180 623.553, 917.939 616.509, 915.797 608.720, 912.637 600.997, 908.688 593.361, 903.941 585.834, 898.387 578.438, 892.022 571.337, 884.981 571.197, 884.842 564.575, 877.348 564.133, 876.848 557.986, 868.961 557.271, 868.044 551.588, 859.816 550.635, 858.435 547.162, 852.779 544.248, 848.033 539.451, 839.259 538.134, 836.851 537.582, 835.717 533.205, 826.726 532.318, 824.905 530.846, 821.507 527.858, 814.608 526.823, 812.219 526.626, 811.706 523.039, 802.372 521.672, 798.816 520.813, 796.288 519.712, 793.047 516.886, 784.725 514.027, 775.143 513.004, 771.714 512.487, 769.980 511.515, 766.242 509.000, 756.563 508.494, 754.618 506.310, 744.859 504.927, 738.678 503.064, 728.853 501.803, 722.205 500.251, 712.326 499.863, 709.859 499.138, 705.246 497.887, 695.325 496.945, 687.853 495.988, 677.898 495.236, 670.078 494.566, 660.100 494.021, 651.978 493.632, 641.986 493.307, 633.612 493.196, 623.613 493.100, 615.040 493.262, 605.042 493.403, 596.325 493.835, 586.335 494.216, 577.529 494.916, 567.554 495.537, 558.716 496.481, 549.007 497.361, 539.951 498.596, 530.027 498.791, 528.461 499.683, 521.296 500.156, 518.186 500.348, 516.923 501.851, 507.036 502.493, 502.815 504.265, 492.973 505.779, 484.569 507.823, 474.780 509.527, 466.618 511.847, 456.891 513.723, 449.021 516.322, 439.365 518.349, 431.834 521.233, 422.258 523.386, 415.108 523.555, 414.603 524.255, 412.512 527.428, 403.029 528.812, 398.895 532.283, 389.517 532.717, 388.345 534.605, 383.241 538.093, 374.688 540.591, 368.562 540.743, 368.190 544.833, 359.064 547.201, 353.780 551.467, 345.103 553.094, 341.794 553.953, 340.047 558.060, 332.429 559.668, 329.446 560.975, 327.023 562.082, 325.151 567.171, 316.543 567.723, 315.609 568.232, 314.749 568.239, 314.736 573.683, 306.348 575.720, 303.210 581.530, 295.071 583.391, 292.465 589.578, 284.609 591.226, 282.517 595.350, 277.788 599.198, 273.377 606.167, 266.205 607.284, 265.056 614.652, 258.295 615.457, 257.557 623.226, 251.262 623.693, 250.884 631.859, 245.113 631.968, 245.036 640.261, 240.007 648.548, 235.791 656.811, 232.380 665.027, 229.762 673.180, 227.924 680.591, 226.938 681.251, 226.851 " fill="none" stroke="rgb(0, 0, 0)" stroke-linecap="butt" stroke-linejoin="round" stroke-opacity="1.0" stroke-width="3.0" />
            <path d=" M 679.036, 227.002 670.954, 228.076 662.791, 229.914 654.563, 232.530 646.291, 235.939 637.993, 240.151 629.690, 245.176 621.519, 250.940 621.405, 251.020 613.629, 257.308 613.160, 257.687 605.785, 264.440 604.978, 265.179 598.003, 272.344 596.885, 273.492 594.081, 276.700 588.904, 282.623 582.709, 290.473 581.061, 292.561 575.243, 300.695 573.383, 303.296 567.931, 311.679 567.828, 311.838 567.300, 312.649 565.895, 314.810 561.786, 321.747 559.354, 325.851 558.625, 327.083 557.759, 328.686 553.007, 337.484 552.776, 337.911 551.597, 340.093 551.132, 341.038 546.713, 350.009 544.840, 353.811 540.744, 362.934 540.249, 364.035 538.377, 368.205 534.595, 377.463 532.235, 383.240 528.759, 392.617 526.438, 398.877 523.259, 408.358 521.871, 412.499 521.513, 413.566 521.008, 415.071 518.121, 424.645 515.969, 431.778 513.367, 441.433 512.178, 445.842 511.341, 448.946 509.019, 458.672 507.144, 466.522 505.810, 472.898 503.763, 482.686 503.394, 484.452 501.619, 494.294 500.108, 502.677 498.603, 512.563 498.150, 515.542 497.754, 518.144 497.298, 521.137 496.422, 528.169 495.186, 538.093 494.977, 539.771 494.009, 549.724 493.153, 558.515 492.453, 568.490 491.834, 577.306 491.403, 587.297 491.023, 596.081 490.863, 606.080 490.723, 614.775 490.837, 624.774 490.870, 627.680 490.934, 633.326 491.324, 643.318 491.651, 651.672 492.324, 661.649 492.870, 669.751 493.831, 679.705 494.584, 687.507 495.839, 697.428 496.782, 704.882 498.339, 714.760 498.455, 715.496 499.453, 721.823 501.321, 731.647 502.583, 738.279 504.772, 748.037 506.156, 754.203 508.677, 763.880 510.155, 769.551 510.326, 770.123 511.815, 775.100 514.561, 784.282 517.785, 793.748 518.694, 796.417 519.355, 798.359 519.825, 799.579 522.022, 805.282 524.514, 811.750 525.809, 814.733 527.039, 817.566 530.018, 824.426 530.055, 824.502 534.441, 833.489 535.198, 835.042 535.842, 836.361 540.647, 845.131 541.964, 847.535 547.205, 856.052 548.360, 857.930 554.052, 866.152 555.006, 867.532 561.161, 875.413 561.878, 876.331 568.507, 883.818 568.951, 884.320 576.059, 891.354 576.203, 891.497 583.608, 897.860 591.146, 903.412 598.792, 908.159 606.526, 912.108 614.326, 915.269 622.172, 917.655 " fill="none" stroke="rgb(0, 0, 0)" stroke-linecap="butt" stroke-linejoin="round" stroke-opacity="1.0" stroke-width="3.0" />
            <path d=" M 703.882, 324.156 695.775, 323.730 687.539, 324.113 683.659, 324.672 680.222, 325.168 679.196, 325.316 670.771, 327.343 665.817, 329.005 662.288, 330.189 653.771, 333.862 645.252, 338.386 636.760, 343.776 628.731, 349.737 628.329, 350.034 620.724, 356.528 619.991, 357.154 612.810, 364.114 611.775, 365.118 605.009, 372.482 603.708, 373.898 597.348, 381.615 595.821, 383.468 589.867, 391.502 588.149, 393.820 582.600, 402.139 580.732, 404.939 577.254, 410.728 576.979, 411.187 574.046, 416.070 573.608, 416.798 568.848, 425.593 567.385, 428.297 566.809, 429.361 564.933, 433.210 563.984, 435.157 563.207, 436.751 560.364, 442.582 559.751, 443.980 558.009, 447.948 558.003, 447.963 556.203, 452.065 554.298, 456.405 550.628, 465.708 548.923, 470.030 548.629, 470.775 547.064, 475.216 543.995, 483.924 543.388, 485.644 540.412, 495.190 538.612, 500.963 538.516, 501.312 537.913, 503.526 535.283, 513.174 534.329, 516.676 533.477, 520.306 531.192, 530.042 530.564, 532.718 530.427, 533.407 528.483, 543.216 528.076, 545.265 527.332, 549.022 527.010, 550.993 525.401, 560.862 524.643, 565.515 523.361, 575.433 522.496, 582.128 521.591, 591.558 520.897, 598.791 520.879, 599.073 520.260, 609.054 519.863, 615.439 519.588, 625.435 519.407, 631.999 519.483, 641.999 519.532, 648.401 519.966, 658.391 520.235, 664.575 520.721, 670.660 521.503, 680.458 522.663, 690.390 523.316, 695.989 524.845, 705.872 525.083, 707.412 525.437, 709.706 525.664, 711.172 526.957, 717.886 527.130, 718.782 527.950, 723.041 528.494, 725.869 530.761, 735.608 531.789, 740.025 532.228, 741.617 533.359, 745.719 534.667, 750.459 535.530, 753.590 535.813, 754.467 538.211, 761.907 539.399, 765.590 539.448, 765.743 539.697, 766.515 541.938, 772.524 544.265, 778.760 548.208, 787.950 549.211, 790.287 553.623, 799.261 554.509, 801.062 559.412, 809.777 560.133, 811.058 565.548, 819.465 566.055, 820.251 572.001, 828.291 572.247, 828.624 578.681, 836.160 585.330, 842.850 592.164, 848.691 599.157, 853.680 606.280, 857.816 609.266, 859.176 613.508, 861.108 620.813, 863.565 628.172, 865.195 635.559, 866.014 642.952, 866.039 650.327, 865.289 657.665, 863.782 664.945, 861.541 672.148, 858.590 679.256, 854.953 686.252, 850.653 693.121, 845.717 699.849, 840.173 706.420, 834.046 712.824, 827.363 719.048, 820.152 725.082, 812.439 730.915, 804.251 736.371, 795.871 736.538, 795.615 741.663, 787.028 741.944, 786.558 746.750, 777.789 747.123, 777.107 751.622, 768.176 752.070, 767.285 756.273, 758.211 756.778, 757.121 760.695, 747.920 761.240, 746.639 764.881, 737.325 765.452, 735.863 768.825, 726.449 769.409, 724.818 772.521, 715.314 773.106, 713.529 775.964, 703.946 776.539, 702.019 779.149, 692.365 779.705, 690.311 782.072, 680.595 782.599, 678.428 784.728, 668.657 785.220, 666.395 787.113, 656.576 787.565, 654.232 789.225, 644.371 789.630, 641.962 791.059, 632.065 791.414, 629.608 792.613, 619.680 792.914, 617.191 793.885, 607.238 794.129, 604.733 794.871, 594.761 795.057, 592.256 795.570, 582.269 795.697, 579.782 795.979, 569.786 796.048, 567.332 796.096, 557.332 796.108, 554.928 795.920, 544.930 795.876, 542.592 795.784, 540.445 " fill="none" stroke="rgb(0, 0, 0)" stroke-linecap="butt" stroke-linejoin="round" stroke-opacity="1.0" stroke-width="3.0" />
            <path d=" M 791.247, 545.119 791.180, 545.125 781.495, 546.032 775.988, 546.548 767.280, 547.363 766.566, 547.430 765.851, 547.497 765.135, 547.565 764.419, 547.633 763.573, 547.585 753.597, 546.888 752.067, 546.782 751.236, 546.476 750.443, 545.918 749.705, 545.118 749.038, 544.092 748.453, 542.859 747.961, 541.440 747.573, 539.864 747.297, 538.161 747.136, 536.363 747.096, 534.505 747.176, 532.622 747.375, 530.753 747.690, 528.932 748.114, 527.194 748.638, 525.575 749.253, 524.103 749.947, 522.809 750.704, 521.716 751.362, 520.888 752.022, 520.062 752.680, 519.236 753.337, 518.412 753.667, 518.000 756.325, 514.674 759.232, 511.037 765.475, 503.226 771.719, 495.414 776.053, 489.991 785.996, 491.057 786.888, 491.153 " fill="none" stroke="rgb(0, 0, 0)" stroke-linecap="butt" stroke-linejoin="round" stroke-opacity="1.0" stroke-width="3.0" />
            <path d=" M 822.965, 506.586 821.832, 496.904 820.376, 487.011 820.099, 485.129 818.338, 475.285 818.029, 473.563 815.953, 463.781 815.624, 462.232 813.223, 452.525 812.885, 451.159 810.153, 441.539 809.819, 440.363 806.751, 430.846 806.434, 429.862 803.014, 420.465 802.729, 419.683 798.935, 410.431 798.701, 409.863 794.512, 400.782 794.351, 400.433 789.748, 391.555 789.680, 391.425 784.697, 382.865 779.408, 374.774 773.827, 367.166 767.962, 360.064 761.816, 353.506 755.397, 347.530 748.714, 342.171 741.779, 337.455 734.608, 333.403 727.216, 330.028 722.939, 328.513 719.621, 327.339 711.837, 325.369 703.882, 324.156 " fill="none" stroke="rgb(0, 0, 0)" stroke-linecap="butt" stroke-linejoin="round" stroke-opacity="1.0" stroke-width="3.0" />
            <path d=" M 665.817, 329.005 667.508, 329.933 673.493, 333.965 679.295, 338.642 684.903, 343.942 690.306, 349.839 695.496, 356.298 700.468, 363.283 705.219, 370.755 709.740, 378.693 714.023, 387.084 718.061, 395.905 721.848, 405.133 725.301, 414.518 725.382, 414.738 728.512, 424.235 728.661, 424.688 731.492, 434.279 731.689, 434.950 734.235, 444.620 734.466, 445.496 736.733, 455.235 736.984, 456.311 738.980, 466.110 739.238, 467.377 740.972, 477.226 741.227, 478.672 742.707, 488.562 742.948, 490.171 743.684, 496.070 743.677, 497.306 743.612, 498.547 743.487, 499.780 743.306, 500.993 743.068, 502.172 742.777, 503.306 742.436, 504.383 742.048, 505.391 741.617, 506.320 741.329, 506.836 741.148, 507.161 740.646, 507.904 740.115, 508.541 739.562, 509.067 738.992, 509.476 730.492, 514.744 725.200, 518.024 " fill="none" stroke="rgb(0, 0, 0)" stroke-linecap="butt" stroke-linejoin="round" stroke-opacity="1.0" stroke-width="3.0" />
            <path d=" M 800.387, 535.186 801.075, 535.230 802.206, 535.302 803.221, 535.367 811.479, 529.728 814.132, 527.917 816.019, 526.628 823.614, 521.442 824.304, 520.971 825.527, 520.259 830.385, 517.435 829.518, 507.472 829.281, 504.748 828.131, 494.814 827.831, 492.221 826.391, 482.325 826.035, 479.878 824.296, 470.030 823.892, 467.745 821.844, 457.957 821.403, 455.847 819.036, 446.131 818.568, 444.209 817.150, 439.145 815.388, 432.857 812.348, 423.330 811.865, 421.818 811.390, 420.501 808.002, 411.120 804.234, 401.857 803.800, 400.789 799.646, 391.692 799.263, 390.853 794.706, 381.951 794.394, 381.341 789.907, 373.517 789.199, 372.282 784.882, 365.567 783.684, 363.703 777.854, 355.635 771.716, 348.108 765.280, 341.150 758.555, 334.790 751.551, 329.058 744.281, 323.985 736.757, 319.596 728.994, 315.920 721.008, 312.987 712.817, 310.820 704.439, 309.443 695.895, 308.881 685.909, 308.360 675.922, 307.838 671.491, 307.607 " fill="none" stroke="rgb(0, 0, 0)" stroke-linecap="butt" stroke-linejoin="round" stroke-opacity="1.0" stroke-width="3.0" />
            <path d=" M 695.895, 308.881 687.208, 309.156 685.632, 309.359 678.400, 310.286 669.498, 312.287 668.474, 312.617 660.528, 315.175 651.519, 318.962 647.916, 320.836 646.679, 321.479 642.500, 323.653 634.010, 328.937 633.503, 329.253 625.419, 335.139 624.560, 335.764 616.894, 342.186 615.704, 343.182 608.461, 350.077 606.970, 351.497 600.151, 358.812 598.393, 360.698 591.995, 368.383 590.009, 370.768 584.024, 378.778 581.854, 381.682 576.273, 389.980 576.039, 390.327 575.708, 390.820 573.963, 393.413 568.778, 401.964 566.720, 405.358 566.373, 405.929 564.300, 409.721 562.608, 412.815 559.120, 419.193 557.478, 422.524 555.723, 426.085 552.236, 433.159 548.184, 442.302 545.756, 447.781 543.981, 452.253 540.291, 461.547 539.712, 463.006 536.377, 472.434 534.133, 478.777 531.147, 488.321 529.048, 495.032 526.937, 502.737 524.481, 511.707 523.160, 517.298 521.696, 523.490 520.538, 528.394 520.458, 528.733 519.182, 535.110 517.221, 544.916 516.996, 546.039 515.372, 555.906 514.114, 563.552 512.828, 573.469 511.825, 581.197 510.878, 591.152 510.141, 598.898 509.535, 608.879 509.067, 616.579 508.806, 626.575 508.607, 634.164 508.696, 644.164 508.762, 651.578 509.208, 661.568 509.298, 663.597 509.528, 668.748 510.338, 678.715 510.897, 685.601 512.080, 695.531 512.859, 702.070 " fill="none" stroke="rgb(0, 0, 0)" stroke-linecap="butt" stroke-linejoin="round" stroke-opacity="1.0" stroke-width="3.0" />
            <path d=" M 755.984, 514.643 754.913, 504.700 754.705, 502.766 754.483, 500.099 754.459, 500.332 754.278, 501.550 754.041, 502.735 753.751, 503.875 753.412, 504.957 753.026, 505.970 752.598, 506.904 752.132, 507.748 751.633, 508.495 751.106, 509.136 750.557, 509.665 749.991, 510.076 741.523, 515.397 733.151, 520.657 732.488, 519.762 731.756, 519.065 730.967, 518.579 730.134, 518.313 725.200, 518.024 718.976, 517.659 718.107, 517.617 717.223, 517.799 716.339, 518.203 715.469, 518.822 714.628, 519.647 713.866, 520.667 713.197, 521.865 712.599, 523.219 712.084, 524.705 711.660, 526.298 711.334, 527.972 711.112, 529.696 710.999, 531.442 710.995, 533.180 711.101, 534.879 721.079, 535.540 722.299, 535.621 727.056, 532.659 727.028, 532.116 727.044, 531.561 727.103, 531.009 727.198, 530.509 727.204, 530.476 727.344, 529.976 727.520, 529.522 727.725, 529.127 727.955, 528.802 728.203, 528.556 728.463, 528.395 728.727, 528.324 " fill="none" stroke="rgb(0, 0, 0)" stroke-linecap="butt" stroke-linejoin="round" stroke-opacity="1.0" stroke-width="3.0" />
            <path d=" M 797.271, 522.245 800.269, 520.193 801.436, 519.394 802.133, 518.917 806.916, 515.642 807.284, 515.357 807.421, 515.251 807.913, 514.758 808.388, 514.168 808.841, 513.487 809.271, 512.721 809.672, 511.877 810.044, 510.963 810.381, 509.985 810.684, 508.953 810.948, 507.872 811.172, 506.753 811.353, 505.603 811.491, 504.431 811.584, 503.247 821.180, 506.063 822.965, 506.586 822.855, 507.358 822.632, 508.483 822.370, 509.569 822.069, 510.607 821.734, 511.589 821.365, 512.508 820.967, 513.357 820.541, 514.126 820.091, 514.811 819.620, 515.405 819.133, 515.901 818.633, 516.293 810.423, 522.004 806.118, 524.999 805.976, 524.789 805.497, 524.079 804.808, 523.365 804.063, 522.867 803.274, 522.596 801.641, 522.501 800.417, 522.429 797.271, 522.245 794.798, 522.100 791.405, 521.901 790.578, 521.861 790.383, 521.906 790.126, 521.964 789.734, 522.053 788.888, 522.474 788.054, 523.116 787.246, 523.971 786.514, 525.026 785.873, 526.265 785.299, 527.664 784.802, 529.199 784.390, 530.844 784.071, 532.572 783.850, 534.351 783.732, 536.152 783.717, 537.944 783.807, 539.696 791.058, 540.176 791.087, 540.178 795.725, 540.486 795.784, 540.445 800.239, 537.404 800.216, 536.844 800.235, 536.272 800.294, 535.702 800.387, 535.186 800.393, 535.152 800.529, 534.635 800.697, 534.166 800.894, 533.758 801.006, 533.586 801.113, 533.422 801.349, 533.167 801.596, 532.999 801.846, 532.924 " fill="none" stroke="rgb(0, 0, 0)" stroke-linecap="butt" stroke-linejoin="round" stroke-opacity="1.0" stroke-width="3.0" />
            <path d=" M 775.988, 546.548 776.113, 552.711 776.070, 562.711 776.061, 564.992 775.777, 574.988 775.710, 577.318 775.187, 587.304 775.063, 589.667 774.303, 599.638 774.122, 602.016 773.125, 611.967 772.887, 614.345 771.654, 624.269 771.360, 626.632 769.891, 636.524 769.545, 638.855 767.838, 648.708 767.443, 650.991 765.497, 660.800 765.056, 663.020 762.869, 672.777 762.389, 674.918 759.956, 684.618 759.443, 686.664 756.762, 696.298 756.223, 698.235 753.288, 707.794 752.731, 709.607 749.537, 719.084 748.972, 720.759 745.514, 730.142 744.952, 731.667 741.220, 740.944 740.672, 742.305 736.660, 751.465 736.141, 752.651 731.839, 761.679 731.362, 762.680 726.762, 771.559 726.343, 772.368 721.433, 781.079 721.090, 781.688 715.858, 790.210 715.610, 790.614 710.046, 798.923 709.912, 799.123 704.003, 807.188 697.894, 814.780 691.595, 821.875 685.116, 828.447 678.470, 834.468 671.669, 839.910 664.728, 844.751 657.660, 848.962 650.482, 852.519 643.211, 855.396 635.864, 857.572 628.461, 859.023 621.021, 859.727 613.566, 859.664 609.266, 859.176 " fill="none" stroke="rgb(0, 0, 0)" stroke-linecap="butt" stroke-linejoin="round" stroke-opacity="1.0" stroke-width="3.0" />
            <path d=" M 763.573, 547.585 762.749, 547.278 761.963, 546.718 761.233, 545.916 760.573, 544.886 759.994, 543.646 759.508, 542.222 759.125, 540.639 758.853, 538.927 758.696, 537.120 758.694, 537.026 758.657, 535.253 758.739, 533.362 758.938, 531.483 759.153, 530.228 759.252, 529.652 759.674, 527.906 760.195, 526.278 760.806, 524.799 761.495, 523.498 762.246, 522.399 762.900, 521.567 763.554, 520.736 764.208, 519.906 764.860, 519.077 765.188, 518.662 767.516, 515.711 773.709, 507.859 777.698, 502.802 783.892, 494.951 786.888, 491.153 788.146, 501.073 788.258, 501.961 788.768, 506.336 789.702, 516.293 789.841, 517.778 790.126, 521.964 " fill="none" stroke="rgb(0, 0, 0)" stroke-linecap="butt" stroke-linejoin="round" stroke-opacity="1.0" stroke-width="3.0" />
            <path d=" M 794.537, 518.213 800.172, 518.735 801.400, 518.849 802.133, 518.917 " fill="none" stroke="rgb(0, 0, 0)" stroke-linecap="butt" stroke-linejoin="round" stroke-opacity="1.0" stroke-width="3.0" />
            <path d=" M 764.716, 537.421 764.400, 537.336 764.106, 537.104 763.847, 536.737 763.636, 536.252 763.481, 535.668 763.390, 535.011 763.365, 534.310 763.408, 533.596 763.518, 532.900 763.689, 532.253 763.914, 531.683 764.183, 531.215 764.484, 530.870 764.804, 530.663 765.129, 530.602 " fill="none" stroke="rgb(0, 0, 0)" stroke-linecap="butt" stroke-linejoin="round" stroke-opacity="1.0" stroke-width="3.0" />
            <path d=" M 765.129, 530.602 765.444, 530.690 765.737, 530.923 765.994, 531.290 766.204, 531.775 766.358, 532.358 766.449, 533.014 766.474, 533.712 766.431, 534.423 766.321, 535.117 766.151, 535.762 765.927, 536.331 765.660, 536.799 765.359, 537.146 765.040, 537.356 764.716, 537.421 " fill="none" stroke="rgb(0, 0, 0)" stroke-linecap="butt" stroke-linejoin="round" stroke-opacity="1.0" stroke-width="3.0" />
            <path d=" M 727.198, 530.509 730.199, 530.701 738.688, 525.414 747.176, 520.128 755.665, 514.842 755.984, 514.643 756.325, 514.674 " fill="none" stroke="rgb(0, 0, 0)" stroke-linecap="butt" stroke-linejoin="round" stroke-opacity="1.0" stroke-width="3.0" />
            <path d=" M 801.075, 535.230 801.285, 540.228 801.466, 550.226 801.519, 553.143 801.465, 563.142 801.449, 566.126 801.163, 576.122 801.076, 579.157 800.560, 589.144 800.401, 592.212 799.657, 602.185 799.426, 605.271 798.454, 615.224 798.152, 618.311 796.951, 628.238 796.580, 631.309 795.151, 641.206 794.712, 644.245 793.053, 654.106 792.550, 657.095 790.659, 666.914 790.096, 669.837 787.971, 679.608 787.353, 682.448 784.990, 692.165 784.323, 694.905 781.718, 704.560 781.010, 707.185 778.157, 716.770 777.415, 719.264 774.310, 728.770 773.543, 731.117 770.179, 740.535 769.398, 742.721 765.767, 752.039 764.984, 754.049 761.078, 763.255 760.305, 765.077 756.116, 774.157 755.368, 775.778 750.886, 784.717 750.179, 786.127 745.390, 794.906 744.742, 796.094 739.637, 804.693 739.066, 805.655 733.632, 814.049 733.158, 814.781 727.381, 822.943 727.027, 823.443 720.893, 831.340 720.682, 831.612 714.133, 839.262 707.391, 846.363 700.469, 852.885 693.379, 858.799 686.135, 864.079 678.753, 868.694 671.248, 872.616 663.639, 875.818 655.943, 878.275 648.181, 879.961 640.374, 880.850 632.544, 880.922 624.714, 880.157 616.909, 878.534 609.156, 876.038 601.479, 872.656 593.908, 868.379 586.470, 863.196 579.196, 857.108 572.113, 850.114 565.555, 842.565 565.254, 842.219 559.245, 834.225 558.647, 833.430 553.173, 825.062 552.325, 823.765 547.365, 815.081 546.315, 813.241 541.851, 804.292 540.648, 801.881 537.393, 794.400 535.354, 789.715 534.612, 787.753 533.395, 784.537 530.459, 776.777 528.039, 769.373 526.874, 765.808 525.991, 763.108 523.298, 753.478 521.975, 748.750 521.008, 744.654 519.332, 737.558 518.434, 733.754 516.516, 723.940 515.389, 718.174 513.837, 708.296 512.859, 702.070 509.594, 692.618 506.688, 684.205 " fill="none" stroke="rgb(0, 0, 0)" stroke-linecap="butt" stroke-linejoin="round" stroke-opacity="1.0" stroke-width="3.0" />
            <path d=" M 671.491, 307.607 663.611, 307.855 660.694, 308.257 655.627, 308.954 647.561, 310.920 639.439, 313.771 631.285, 317.520 623.128, 322.172 614.994, 327.735 607.192, 333.990 606.915, 334.211 599.569, 340.997 598.919, 341.598 592.029, 348.845 591.040, 349.886 584.597, 357.534 583.308, 359.065 577.303, 367.062 575.757, 369.120 574.551, 370.912 574.176, 371.471 568.594, 379.768 568.420, 380.027 565.870, 384.244 563.444, 388.258 561.756, 391.051 561.329, 391.758 556.703, 400.262 554.966, 403.456 554.517, 404.282 550.122, 413.264 548.018, 417.561 543.991, 426.715 543.508, 427.813 541.863, 431.553 538.193, 440.855 536.081, 446.207 532.758, 455.638 530.703, 461.472 527.718, 471.016 525.756, 477.289 523.101, 486.930 521.266, 493.596 518.935, 503.321 517.255, 510.327 515.244, 520.123 513.747, 527.413 513.574, 528.415 511.878, 538.270 510.758, 544.780 509.374, 554.684 508.303, 562.354 507.232, 572.297 506.396, 580.059 505.638, 590.030 505.047, 597.816 504.603, 607.806 504.259, 615.549 504.133, 625.548 504.037, 633.180 504.233, 643.178 504.380, 650.633 504.905, 660.619 505.284, 667.833 506.138, 677.797 506.323, 679.949 506.688, 684.205 506.146, 694.190 505.657, 703.201 " fill="none" stroke="rgb(0, 0, 0)" stroke-linecap="butt" stroke-linejoin="round" stroke-opacity="1.0" stroke-width="3.0" />
            <path d=" M 508.294, 719.818 510.229, 729.629 511.463, 735.886 513.779, 745.614 515.144, 751.345 515.472, 752.507 517.164, 758.506 519.316, 766.139 522.447, 775.636 523.563, 779.023 523.955, 780.213 524.757, 782.315 528.321, 791.659 529.033, 793.524 530.481, 796.824 531.745, 799.705 534.521, 806.031 534.659, 806.304 539.154, 815.237 540.392, 817.697 545.386, 826.361 546.615, 828.493 552.128, 836.837 553.158, 838.396 559.208, 846.359 559.990, 847.387 566.593, 854.897 567.079, 855.451 574.241, 862.431 574.394, 862.580 581.902, 868.772 589.574, 874.026 597.379, 878.345 605.287, 881.741 613.269, 884.225 621.299, 885.810 629.351, 886.514 637.398, 886.359 645.417, 885.367 653.385, 883.561 661.281, 880.966 669.085, 877.612 676.778, 873.524 684.343, 868.731 691.763, 863.263 699.024, 857.150 706.110, 850.420 713.009, 843.103 719.491, 835.488 719.710, 835.231 725.825, 827.318 726.201, 826.832 731.962, 818.658 732.473, 817.934 737.894, 809.531 738.515, 808.568 743.610, 799.963 744.320, 798.763 749.100, 789.979 749.881, 788.546 754.357, 779.604 755.189, 777.943 759.374, 768.861 760.239, 766.985 764.142, 757.778 765.025, 755.696 768.655, 746.378 769.541, 744.102 772.906, 734.685 773.783, 732.230 776.891, 722.725 777.747, 720.105 780.603, 710.521 781.429, 707.751 784.039, 698.098 784.824, 695.193 787.193, 685.477 787.930, 682.454 790.061, 672.684 790.743, 669.558 792.641, 659.740 793.261, 656.529 794.927, 646.668 795.481, 643.388 796.917, 633.492 797.401, 630.160 798.609, 620.233 799.019, 616.866 799.999, 606.914 800.332, 603.529 801.083, 593.557 801.339, 590.170 801.862, 580.184 802.038, 576.814 802.331, 566.818 802.428, 563.480 802.488, 553.481 802.508, 550.193 802.332, 540.195 802.275, 536.975 802.206, 535.302 " fill="none" stroke="rgb(0, 0, 0)" stroke-linecap="butt" stroke-linejoin="round" stroke-opacity="1.0" stroke-width="3.0" />
            <path d=" M 505.657, 703.201 507.224, 713.078 508.294, 719.818 " fill="none" stroke="rgb(0, 0, 0)" stroke-linecap="butt" stroke-linejoin="round" stroke-opacity="1.0" stroke-width="3.0" />
            <path d=" M 817.150, 439.145 816.892, 437.653 814.963, 427.841 814.720, 426.603 812.556, 416.840 812.312, 415.739 809.905, 406.033 809.669, 405.080 807.011, 395.439 806.791, 394.640 803.870, 385.076 803.676, 384.441 800.482, 374.964 800.325, 374.499 796.850, 365.122 796.742, 364.830 792.974, 355.567 792.927, 355.451 788.883, 346.380 784.611, 337.634 780.114, 329.233 775.393, 321.200 770.451, 313.557 765.291, 306.324 759.918, 299.519 754.337, 293.159 748.555, 287.265 742.576, 281.855 736.407, 276.951 730.055, 272.575 723.527, 268.752 716.833, 265.504 709.980, 262.851 702.981, 260.807 695.846, 259.390 688.587, 258.616 681.218, 258.501 679.510, 258.629 673.752, 259.063 666.203, 260.320 658.587, 262.288 650.923, 264.984 643.227, 268.414 635.517, 272.583 627.812, 277.495 620.132, 283.153 612.498, 289.560 612.144, 289.895 612.111, 289.926 612.109, 289.927 604.931, 296.715 598.058, 303.979 597.453, 304.617 590.970, 312.231 590.090, 313.265 585.822, 318.808 582.865, 322.649 577.135, 330.844 576.776, 331.358 575.800, 332.753 571.434, 339.608 570.983, 340.315 568.917, 343.558 564.058, 351.916 562.240, 355.042 561.658, 356.139 560.024, 359.215 555.790, 367.183 555.041, 368.728 553.377, 372.156 549.592, 379.955 545.543, 389.098 543.669, 393.329 542.307, 396.706 538.567, 405.980 538.044, 407.276 535.708, 413.659 532.742, 421.760 529.600, 431.254 527.783, 436.742 524.927, 446.326 523.184, 452.177 520.608, 461.840 518.961, 468.019 516.661, 477.751 515.132, 484.219 513.102, 494.011 511.710, 500.728 509.948, 510.572 508.710, 517.495 507.216, 527.383 507.057, 528.435 506.145, 534.467 504.918, 544.391 504.029, 551.589 503.069, 561.543 502.369, 568.806 501.674, 578.782 501.167, 586.060 500.738, 596.051 500.427, 603.295 500.266, 613.294 500.150, 620.455 500.261, 630.454 500.339, 637.483 500.725, 647.475 500.990, 654.324 501.656, 664.302 502.098, 670.925 503.049, 680.880 503.656, 687.235 504.118, 690.918 505.361, 700.840 505.657, 703.201 507.201, 713.082 508.091, 718.777 508.294, 719.818 510.142, 729.645 510.946, 733.917 513.117, 743.679 514.206, 748.579 515.342, 752.979 516.956, 759.227 517.858, 762.723 520.700, 772.310 521.886, 776.311 523.231, 780.297 524.385, 783.716 526.272, 789.309 529.837, 798.652 529.948, 798.944 530.996, 801.690 531.156, 802.064 534.047, 808.792 536.038, 813.428 540.384, 822.434 541.379, 824.497 546.143, 833.289 547.001, 834.872 552.199, 843.415 552.883, 844.538 558.528, 852.792 559.000, 853.484 565.104, 861.405 565.332, 861.701 571.854, 869.183 578.547, 875.927 585.390, 881.928 592.364, 887.185 599.447, 891.698 606.622, 895.471 613.866, 898.515 620.885, 900.757 621.161, 900.845 628.488, 902.472 635.829, 903.410 643.169, 903.672 650.492, 903.272 657.782, 902.222 665.027, 900.537 672.211, 898.235 679.322, 895.341 686.348, 891.874 693.277, 887.857 700.098, 883.309 706.803, 878.249 713.381, 872.694 719.823, 866.662 726.122, 860.170 732.270, 853.242 738.260, 845.899 744.087, 838.163 749.745, 830.054 755.228, 821.591 760.389, 813.026 760.531, 812.791 765.425, 804.070 765.650, 803.670 770.284, 794.809 770.579, 794.245 774.960, 785.256 775.313, 784.533 779.452, 775.429 779.851, 774.552 783.756, 765.346 784.190, 764.323 787.867, 755.023 788.326, 753.862 791.783, 744.478 792.259, 743.186 795.500, 733.726 795.985, 732.311 799.015, 722.781 799.501, 721.251 802.323, 711.657 802.804, 710.021 805.422, 700.369 805.892, 698.634 808.308, 688.930 808.762, 687.107 810.981, 677.356 811.414, 675.454 813.440, 665.661 813.848, 663.691 815.683, 653.861 816.061, 651.833 817.707, 641.969 818.054, 639.893 819.512, 629.999 819.824, 627.884 821.094, 617.965 821.369, 615.821 822.451, 605.880 822.686, 603.717 823.580, 593.757 823.775, 591.585 824.483, 581.610 824.637, 579.439 825.158, 569.453 825.270, 567.294 825.603, 557.299 825.674, 555.162 825.817, 545.163 825.847, 543.057 825.798, 533.057 825.788, 530.994 825.545, 520.996 825.527, 520.259 " fill="none" stroke="rgb(0, 0, 0)" stroke-linecap="butt" stroke-linejoin="round" stroke-opacity="1.0" stroke-width="3.0" />
            <path d=" M 679.001, 258.622 671.524, 259.184 663.965, 260.440 656.340, 262.408 648.666, 265.102 640.960, 268.529 633.241, 272.695 625.527, 277.603 617.839, 283.256 610.813, 289.140 610.813, 289.140 610.811, 289.142 610.196, 289.657 602.922, 296.519 602.620, 296.805 595.740, 304.062 595.135, 304.700 588.644, 312.307 587.764, 313.339 581.656, 321.256 580.532, 322.713 580.045, 323.408 574.307, 331.598 573.460, 332.807 571.076, 336.543 570.620, 337.256 570.112, 338.053 566.571, 343.600 563.811, 348.339 561.401, 352.475 559.888, 355.072 559.769, 355.295 555.071, 364.123 554.784, 364.663 553.433, 367.200 553.104, 367.878 548.731, 376.871 547.230, 379.958 543.174, 389.098 542.032, 391.672 541.302, 393.317 537.556, 402.589 535.674, 407.248 532.231, 416.637 530.368, 421.716 527.221, 431.208 525.406, 436.681 524.523, 439.640 521.663, 449.223 520.805, 452.099 518.225, 461.760 516.580, 467.922 514.276, 477.653 512.749, 484.104 510.717, 493.895 509.326, 500.594 507.563, 510.437 506.326, 517.341 504.830, 527.229 504.646, 528.443 503.761, 534.294 502.533, 544.218 501.645, 551.397 500.685, 561.350 499.987, 568.594 499.292, 578.570 498.786, 585.828 498.358, 595.819 498.048, 603.044 497.888, 613.043 497.774, 620.184 497.886, 630.183 497.965, 637.193 498.354, 647.186 498.620, 654.016 499.289, 663.994 499.732, 670.599 500.686, 680.553 501.294, 686.891 502.542, 696.813 502.663, 697.775 503.300, 702.841 504.849, 712.720 505.739, 718.400 507.597, 728.226 508.599, 733.525 510.776, 743.285 511.866, 748.172 514.194, 757.167 515.524, 762.302 515.769, 763.126 518.618, 772.712 519.558, 775.876 522.275, 783.909 523.403, 787.242 523.951, 788.863 527.523, 798.203 528.682, 801.233 529.119, 802.246 530.380, 805.175 533.279, 811.909 533.732, 812.960 538.086, 821.963 539.081, 824.020 543.853, 832.808 544.711, 834.388 549.918, 842.925 550.601, 844.046 556.254, 852.295 556.728, 852.985 562.839, 860.901 563.068, 861.197 569.600, 868.676 576.302, 875.416 583.154, 881.415 590.137, 886.671 597.231, 891.182 604.415, 894.955 611.669, 898.001 618.974, 900.332 " fill="none" stroke="rgb(0, 0, 0)" stroke-linecap="butt" stroke-linejoin="round" stroke-opacity="1.0" stroke-width="3.0" />
            <path d=" M 681.218, 258.501 679.001, 258.622 " fill="none" stroke="rgb(0, 0, 0)" stroke-linecap="butt" stroke-linejoin="round" stroke-opacity="1.0" stroke-width="3.0" />
            <path d=" M 618.974, 900.332 621.161, 900.845 " fill="none" stroke="rgb(0, 0, 0)" stroke-linecap="butt" stroke-linejoin="round" stroke-opacity="1.0" stroke-width="3.0" />
            <path d=" M 487.921, 706.842 489.497, 716.717 490.765, 724.663 492.655, 734.483 492.880, 735.651 494.095, 741.966 494.562, 744.024 496.776, 753.776 497.893, 758.699 499.608, 765.206 502.141, 774.817 503.131, 778.091 505.227, 785.020 506.473, 789.142 506.817, 790.277 508.600, 795.455 509.692, 798.627 511.900, 805.039 514.143, 810.796 515.265, 813.674 517.367, 819.069 518.048, 820.621 519.261, 823.383 521.675, 828.879 522.872, 831.605 523.194, 832.337 523.647, 833.255 526.189, 838.403 529.356, 844.817 534.206, 853.562 535.828, 856.487 541.117, 864.974 542.585, 867.330 548.327, 875.517 549.600, 877.331 555.809, 885.171 556.848, 886.482 563.532, 893.920 564.303, 894.777 571.467, 901.753 571.939, 902.211 579.581, 908.661 579.732, 908.787 587.656, 914.509 595.689, 919.382 603.808, 923.417 611.989, 926.624 620.212, 929.018 624.534, 930.086 632.756, 931.676 640.979, 932.483 649.185, 932.527 657.356, 931.828 665.476, 930.407 673.529, 928.285 681.501, 925.485 689.378, 922.031 697.147, 917.945 704.796, 913.251 712.315, 907.974 719.692, 902.136 726.919, 895.762 733.987, 888.874 740.819, 881.572 740.889, 881.497 747.398, 873.906 747.616, 873.653 753.813, 865.805 754.162, 865.364 760.058, 857.287 760.521, 856.653 766.126, 848.371 766.687, 847.541 772.011, 839.076 772.656, 838.050 777.709, 829.421 778.423, 828.201 783.214, 819.423 783.984, 818.013 788.522, 809.102 789.335, 807.507 793.628, 798.475 794.472, 796.701 798.529, 787.561 799.393, 785.615 803.220, 776.377 804.094, 774.267 807.699, 764.939 808.574, 762.674 811.961, 753.266 812.829, 750.855 816.005, 741.373 816.859, 738.825 819.828, 729.276 820.660, 726.602 823.427, 716.993 824.231, 714.201 826.801, 704.537 827.571, 701.639 829.946, 691.925 830.678, 688.931 832.861, 679.172 833.551, 676.091 835.545, 666.292 836.188, 663.135 837.995, 653.300 838.588, 650.078 840.211, 640.211 840.750, 636.933 842.189, 627.037 842.672, 623.715 843.929, 613.794 844.355, 610.438 845.430, 600.495 845.796, 597.115 846.690, 587.155 846.995, 583.761 847.707, 573.786 847.950, 570.389 848.480, 560.403 848.661, 557.014 849.009, 547.020 849.126, 543.648 849.290, 533.649 849.345, 530.306 849.323, 520.306 849.316, 517.002 849.107, 507.004 849.039, 503.749 848.640, 493.757 848.513, 490.562 847.921, 480.580 847.736, 477.456 846.948, 467.487 846.708, 464.445 845.721, 454.494 845.428, 451.544 844.237, 441.615 843.895, 438.768 842.495, 428.866 842.108, 426.133 840.494, 416.264 840.067, 413.654 838.232, 403.824 837.771, 401.349 835.709, 391.563 835.219, 389.233 832.924, 379.499 832.411, 377.323 829.874, 367.651 829.347, 365.639 826.560, 356.035 826.026, 354.196 822.980, 344.672 822.450, 343.015 819.133, 333.581 818.618, 332.114 815.020, 322.784 814.530, 321.513 810.640, 312.301 810.189, 311.232 805.993, 302.155 805.594, 301.292 801.080, 292.369 800.748, 291.713 795.901, 282.966 795.652, 282.518 790.458, 273.973 790.309, 273.729 784.723, 265.369 778.895, 257.460 772.831, 250.027 766.534, 243.094 760.011, 236.684 753.267, 230.822 746.310, 225.533 739.146, 220.842 731.784, 216.773 724.234, 213.350 716.507, 210.599 708.613, 208.542 700.566, 207.203 692.379, 206.604 684.066, 206.767 679.656, 207.107 671.212, 208.052 662.675, 209.797 654.065, 212.358 645.402, 215.751 636.705, 219.988 627.997, 225.081 619.746, 230.732 619.300, 231.038 611.446, 237.228 610.639, 237.864 603.188, 244.534 602.038, 245.563 594.990, 252.657 593.524, 254.132 586.875, 261.601 585.123, 263.569 583.101, 266.089 576.862, 273.864 570.985, 281.955 568.769, 285.007 564.577, 291.362 563.992, 292.248 560.872, 296.980 560.786, 297.122 559.677, 298.970 557.216, 303.071 556.522, 304.228 555.615, 305.739 553.199, 309.764 552.436, 311.161 550.870, 314.025 550.580, 314.555 548.962, 317.514 545.779, 323.335 542.528, 329.860 540.932, 333.064 538.641, 337.663 538.094, 338.869 533.962, 347.976 531.811, 352.716 528.445, 360.874 525.317, 368.456 521.812, 377.822 519.185, 384.842 515.982, 394.315 513.442, 401.828 510.533, 411.396 508.109, 419.365 505.488, 429.015 503.212, 437.399 500.874, 447.122 498.769, 455.874 498.285, 458.173 496.226, 467.959 495.992, 469.067 494.800, 474.731 493.016, 484.570 491.323, 493.907 489.812, 503.792 489.257, 507.420 488.354, 513.323 488.352, 513.338 488.101, 515.349 487.933, 516.689 487.736, 518.268 487.594, 519.401 487.501, 520.148 487.199, 522.557 485.959, 532.480 485.899, 532.958 484.929, 542.910 483.975, 552.698 483.275, 562.674 482.585, 572.492 482.157, 582.483 481.737, 592.270 481.581, 602.268 481.430, 611.963 481.551, 621.962 481.666, 631.504 481.690, 632.117 482.091, 642.109 482.277, 646.769 482.341, 648.366 482.440, 650.826 483.124, 660.803 483.294, 663.273 483.384, 664.590 483.746, 669.865 484.727, 679.886 485.577, 688.557 486.848, 698.476 487.921, 706.842 " fill="none" stroke="rgb(0, 0, 0)" stroke-linecap="butt" stroke-linejoin="round" stroke-opacity="1.0" stroke-width="3.0" />
            <path d=" M 684.066, 206.767 675.645, 207.711 667.131, 209.456 658.543, 212.019 649.901, 215.416 641.225, 219.659 632.538, 224.759 624.298, 230.425 623.861, 230.726 616.019, 236.931 615.219, 237.564 607.781, 244.248 606.637, 245.276 599.603, 252.384 598.141, 253.862 591.506, 261.344 589.756, 263.316 585.515, 268.622 581.511, 273.632 575.649, 281.734 573.433, 284.797 567.942, 293.154 565.550, 296.795 565.514, 296.855 564.964, 297.776 560.317, 305.548 557.891, 309.606 557.864, 309.655 556.290, 312.545 551.507, 321.327 551.307, 321.695 550.484, 323.205 549.688, 324.809 545.242, 333.766 543.356, 337.564 539.237, 346.677 538.878, 347.471 536.536, 352.650 532.734, 361.899 530.051, 368.425 526.557, 377.795 523.927, 384.848 520.734, 394.324 518.190, 401.872 517.036, 405.681 514.136, 415.251 512.864, 419.449 510.250, 429.101 507.970, 437.524 505.639, 447.249 503.531, 456.042 501.477, 465.829 499.564, 474.942 497.784, 484.782 496.088, 494.162 495.572, 497.543 494.064, 507.428 493.829, 508.970 493.116, 513.638 491.878, 523.561 491.681, 525.141 490.662, 533.303 489.693, 543.256 488.918, 551.211 488.735, 553.089 488.035, 563.065 487.343, 572.928 487.310, 573.688 486.880, 583.678 486.489, 592.751 486.405, 598.122 486.246, 608.121 486.177, 612.489 486.294, 622.488 486.344, 626.754 486.388, 630.517 486.406, 632.074 486.584, 636.560 486.979, 646.552 487.118, 650.069 487.172, 651.439 487.577, 657.389 488.128, 665.498 488.470, 670.520 489.438, 680.473 489.471, 680.819 490.291, 689.252 490.679, 692.303 491.639, 699.840 491.700, 700.318 492.608, 707.447 492.625, 707.577 492.782, 708.572 494.349, 718.448 495.458, 725.435 495.609, 726.227 497.488, 736.049 498.775, 742.773 500.977, 752.528 502.560, 759.540 505.095, 769.214 506.793, 775.690 507.605, 778.388 508.958, 782.884 511.454, 791.178 514.696, 800.639 516.111, 804.770 516.521, 805.968 517.230, 807.794 520.846, 817.117 521.972, 820.023 523.372, 823.225 524.282, 825.306 524.596, 826.025 527.693, 833.110 527.782, 833.313 532.194, 842.288 533.927, 845.814 538.761, 854.568 540.381, 857.502 545.653, 865.999 547.118, 868.360 552.845, 876.558 554.114, 878.375 560.308, 886.226 561.342, 887.537 568.013, 894.987 568.776, 895.840 575.929, 902.829 576.392, 903.282 584.023, 909.744 584.163, 909.862 592.067, 915.586 600.078, 920.460 608.174, 924.493 616.334, 927.697 624.534, 930.086 " fill="none" stroke="rgb(0, 0, 0)" stroke-linecap="butt" stroke-linejoin="round" stroke-opacity="1.0" stroke-width="3.0" />
            <path d=" M 730.134, 518.313 729.271, 518.270 728.392, 518.454 727.514, 518.860 726.649, 519.484 725.902, 520.226 725.813, 520.313 725.055, 521.339 724.390, 522.543 723.797, 523.903 723.284, 525.397 722.862, 526.998 722.679, 527.943 722.537, 528.680 722.342, 530.199 722.315, 530.413 722.201, 532.168 722.195, 533.914 722.299, 535.621 " fill="none" stroke="rgb(0, 0, 0)" stroke-linecap="butt" stroke-linejoin="round" stroke-opacity="1.0" stroke-width="3.0" />
            <path d=" M 728.727, 528.324 728.989, 528.344 729.240, 528.455 729.475, 528.654 729.687, 528.936 729.869, 529.292 730.018, 529.712 730.129, 530.186 730.199, 530.701 " fill="none" stroke="rgb(0, 0, 0)" stroke-linecap="butt" stroke-linejoin="round" stroke-opacity="1.0" stroke-width="3.0" />
            <path d=" M 803.274, 522.596 802.455, 522.557 801.618, 522.750 800.779, 523.174 799.951, 523.820 799.233, 524.589 799.149, 524.680 798.422, 525.741 797.786, 526.986 797.216, 528.393 796.722, 529.936 796.312, 531.589 796.134, 532.565 795.994, 533.326 795.801, 534.893 795.774, 535.114 795.654, 536.924 795.638, 538.725 795.725, 540.486 " fill="none" stroke="rgb(0, 0, 0)" stroke-linecap="butt" stroke-linejoin="round" stroke-opacity="1.0" stroke-width="3.0" />
            <path d=" M 801.846, 532.924 802.093, 532.944 802.330, 533.057 802.550, 533.261 802.748, 533.550 802.918, 533.916 803.056, 534.349 803.158, 534.837 803.221, 535.367 " fill="none" stroke="rgb(0, 0, 0)" stroke-linecap="butt" stroke-linejoin="round" stroke-opacity="1.0" stroke-width="3.0" />
            <path d=" M 778.437, 478.447 778.573, 478.370 778.720, 478.316 778.876, 478.286 779.037, 478.280 779.258, 478.312 779.474, 478.387 779.678, 478.504 779.862, 478.658 780.018, 478.843 780.143, 479.055 780.230, 479.288 780.274, 479.536 780.272, 479.768 780.227, 479.990 780.142, 480.193 780.018, 480.369 779.862, 480.513 779.676, 480.619 " fill="none" stroke="rgb(0, 0, 0)" stroke-linecap="butt" stroke-linejoin="round" stroke-opacity="1.0" stroke-width="3.0" />
            <path d=" M 778.316, 478.545 778.329, 478.534 " fill="none" stroke="rgb(0, 0, 0)" stroke-linecap="butt" stroke-linejoin="round" stroke-opacity="1.0" stroke-width="3.0" />
            <path d=" M 778.206, 478.642 778.068, 478.824 778.038, 478.878 777.936, 479.093 777.879, 479.328 777.872, 479.577 777.915, 479.808 777.927, 479.868 778.015, 480.084 778.145, 480.278 778.312, 480.442 778.355, 480.481 778.544, 480.601 778.603, 480.628 778.799, 480.699 778.856, 480.714 778.927, 480.725 779.077, 480.737 779.120, 480.740 779.170, 480.741 779.221, 480.738 779.272, 480.734 779.320, 480.727 779.366, 480.718 779.482, 480.687 779.560, 480.667 779.625, 480.643 779.676, 480.619 " fill="none" stroke="rgb(0, 0, 0)" stroke-linecap="butt" stroke-linejoin="round" stroke-opacity="1.0" stroke-width="3.0" />
            <path d=" M 778.437, 478.447 778.379, 478.491 778.329, 478.534 778.313, 478.549 778.206, 478.642 778.316, 478.545 " fill="none" stroke="rgb(0, 0, 0)" stroke-linecap="butt" stroke-linejoin="round" stroke-opacity="1.0" stroke-width="3.0" />
            <path d=" M 776.045, 476.352 776.544, 482.390 780.643, 482.563 782.231, 482.630 782.870, 482.081 781.883, 476.491 779.712, 476.334 776.474, 476.098 776.045, 476.352 " fill="none" stroke="rgb(0, 0, 0)" stroke-linecap="butt" stroke-linejoin="round" stroke-opacity="1.0" stroke-width="3.0" />
            <path d=" M 782.231, 482.630 781.737, 476.578 " fill="none" stroke="rgb(0, 0, 0)" stroke-linecap="butt" stroke-linejoin="round" stroke-opacity="1.0" stroke-width="3.0" />
            <path d=" M 781.883, 476.491 781.737, 476.578 776.045, 476.352 " fill="none" stroke="rgb(0, 0, 0)" stroke-linecap="butt" stroke-linejoin="round" stroke-opacity="1.0" stroke-width="3.0" />
            <path d=" M 741.329, 506.836 738.559, 506.862 728.564, 507.180 727.087, 507.227 717.101, 507.748 715.634, 507.824 705.659, 508.527 704.195, 508.630 694.233, 509.494 692.765, 509.621 682.816, 510.624 681.339, 510.773 671.402, 511.896 669.910, 512.064 659.985, 513.287 658.476, 513.473 648.561, 514.775 647.029, 514.976 637.123, 516.340 635.566, 516.555 625.666, 517.962 624.082, 518.187 614.185, 519.619 612.570, 519.853 602.675, 521.293 601.027, 521.533 591.130, 522.964 589.447, 523.207 579.547, 524.612 577.826, 524.857 578.171, 514.863 578.327, 510.368 578.556, 500.371 578.661, 495.829 578.776, 485.830 578.829, 481.259 578.829, 471.259 578.829, 466.676 578.715, 456.676 578.662, 452.099 578.433, 442.101 578.328, 437.546 577.982, 427.552 577.826, 423.037 577.362, 413.048 577.254, 410.728 " fill="none" stroke="rgb(0, 0, 0)" stroke-linecap="butt" stroke-linejoin="round" stroke-opacity="1.0" stroke-width="3.0" />
            <path d=" M 583.101, 266.089 579.771, 262.595 573.336, 254.940 572.806, 254.310 566.833, 246.290 566.219, 245.466 560.705, 237.125 560.039, 236.117 554.978, 227.492 554.286, 226.313 549.674, 217.440 548.978, 216.102 548.232, 214.474 544.132, 205.530 541.730, 199.548 541.413, 198.759 539.759, 194.640 " fill="none" stroke="rgb(0, 0, 0)" stroke-linecap="butt" stroke-linejoin="round" stroke-opacity="1.0" stroke-width="3.0" />
            <path d=" M 539.759, 194.640 537.404, 188.806 536.053, 185.460 532.191, 176.866 528.753, 170.038 528.177, 168.895 524.721, 162.825 524.016, 161.586 519.712, 154.979 517.533, 152.102 515.273, 149.117 513.278, 146.900 510.705, 144.040 506.017, 139.787 501.219, 136.401 499.241, 135.402 496.319, 133.925 496.198, 133.888 491.331, 132.395 486.265, 131.852 481.137, 132.333 475.961, 133.873 470.754, 136.504 469.925, 137.100 469.271, 137.569 465.533, 140.254 463.981, 141.711 460.317, 145.151 455.126, 151.214 453.007, 154.198 451.097, 156.887 451.088, 156.899 451.085, 156.903 449.981, 158.458 446.699, 163.911 444.905, 166.892 440.308, 175.773 439.921, 176.522 435.817, 185.641 435.051, 187.343 431.384, 196.646 430.321, 199.342 427.043, 208.790 425.756, 212.502 422.828, 222.064 421.380, 226.796 418.769, 236.450 417.218, 242.186 414.897, 251.913 413.294, 258.626 411.240, 268.413 409.634, 276.064 407.827, 285.899 406.259, 294.435 404.684, 304.311 403.191, 313.668 401.834, 323.575 400.450, 333.679 399.301, 343.613 398.152, 353.547 398.055, 354.385 397.105, 364.339 396.155, 374.294 396.022, 375.688 395.264, 385.659 394.506, 395.631 394.364, 397.488 393.793, 407.472 393.221, 417.455 393.094, 419.677 393.120, 419.772 395.712, 429.430 398.305, 439.088 399.086, 441.997 399.361, 442.980 402.061, 452.609 404.760, 462.237 405.146, 463.613 407.955, 473.210 410.764, 482.808 411.276, 484.556 414.198, 494.119 417.120, 503.683 417.479, 504.855 420.516, 514.382 423.554, 523.910 423.755, 524.538 426.911, 534.027 430.107, 543.633 433.385, 553.081 436.537, 562.166 439.938, 571.569 443.046, 580.161 446.574, 589.518 449.637, 597.642 453.293, 606.950 456.312, 614.634 460.098, 623.889 463.072, 631.157 466.990, 640.357 469.920, 647.234 473.972, 656.376 476.857, 662.886 481.044, 671.967 483.887, 678.132 484.727, 679.886 " fill="none" stroke="rgb(0, 0, 0)" stroke-linecap="butt" stroke-linejoin="round" stroke-opacity="1.0" stroke-width="3.0" />
            <path d=" M 480.786, 627.671 481.690, 632.117 " fill="none" stroke="rgb(0, 0, 0)" stroke-linecap="butt" stroke-linejoin="round" stroke-opacity="1.0" stroke-width="3.0" />
            <path d=" M 482.277, 646.769 481.490, 644.717 482.341, 648.366 " fill="none" stroke="rgb(0, 0, 0)" stroke-linecap="butt" stroke-linejoin="round" stroke-opacity="1.0" stroke-width="3.0" />
            <path d=" M 483.294, 663.273 482.567, 661.546 483.384, 664.590 " fill="none" stroke="rgb(0, 0, 0)" stroke-linecap="butt" stroke-linejoin="round" stroke-opacity="1.0" stroke-width="3.0" />
            <path d=" M 363.698, 410.995 359.061, 419.855 356.549, 424.657 " fill="none" stroke="rgb(0, 0, 0)" stroke-linecap="butt" stroke-linejoin="round" stroke-opacity="1.0" stroke-width="3.0" />
            <path d=" M 469.925, 137.100 464.027, 137.477 " fill="none" stroke="rgb(0, 0, 0)" stroke-linecap="butt" stroke-linejoin="round" stroke-opacity="1.0" stroke-width="3.0" />
            <path d=" M 538.516, 501.312 541.124, 501.415 537.913, 503.526 " fill="none" stroke="rgb(0, 0, 0)" stroke-linecap="butt" stroke-linejoin="round" stroke-opacity="1.0" stroke-width="3.0" />
            <path d=" M 791.058, 540.176 791.247, 545.119 " fill="none" stroke="rgb(0, 0, 0)" stroke-linecap="butt" stroke-linejoin="round" stroke-opacity="1.0" stroke-width="3.0" />
            <path d=" M 794.798, 522.100 794.537, 518.213 " fill="none" stroke="rgb(0, 0, 0)" stroke-linecap="butt" stroke-linejoin="round" stroke-opacity="1.0" stroke-width="3.0" />
            <path d=" M 800.269, 520.193 800.172, 518.735 " fill="none" stroke="rgb(0, 0, 0)" stroke-linecap="butt" stroke-linejoin="round" stroke-opacity="1.0" stroke-width="3.0" />
            <path d=" M 801.436, 519.394 801.400, 518.849 " fill="none" stroke="rgb(0, 0, 0)" stroke-linecap="butt" stroke-linejoin="round" stroke-opacity="1.0" stroke-width="3.0" />
        </g>
    </g>
</svg>
