<?xml version='1.0' encoding='ascii'?>
<svg xmlns="http://www.w3.org/2000/svg" height="1080" version="1.1" width="1080">
    <g id="View Layer_LineSet" inkscape:groupmode="lineset" inkscape:label="View Layer_LineSet" xmlns:inkscape="http://www.inkscape.org/namespaces/inkscape">
        <g id="strokes" inkscape:groupmode="layer" inkscape:label="strokes" xmlns:inkscape="http://www.inkscape.org/namespaces/inkscape">
            <path d=" M 565.439, 508.489 565.427, 508.655 " fill="none" stroke="rgb(0, 0, 0)" stroke-linecap="butt" stroke-linejoin="round" stroke-opacity="1.0" stroke-width="3.0" />
            <path d=" M 355.858, 438.078 362.271, 436.650 " fill="none" stroke="rgb(0, 0, 0)" stroke-linecap="butt" stroke-linejoin="round" stroke-opacity="1.0" stroke-width="3.0" />
            <path d=" M 380.194, 436.777 390.109, 438.075 392.166, 438.344 " fill="none" stroke="rgb(0, 0, 0)" stroke-linecap="butt" stroke-linejoin="round" stroke-opacity="1.0" stroke-width="3.0" />
            <path d=" M 392.166, 438.344 388.409, 429.077 384.652, 419.809 383.979, 418.149 " fill="none" stroke="rgb(0, 0, 0)" stroke-linecap="butt" stroke-linejoin="round" stroke-opacity="1.0" stroke-width="3.0" />
            <path d=" M 466.811, 142.076 462.303, 142.562 457.742, 144.139 453.141, 146.840 448.515, 150.694 443.883, 155.731 439.261, 161.973 439.161, 162.136 438.385, 163.397 434.669, 169.435 430.127, 178.128 426.021, 187.246 425.656, 188.057 422.004, 197.367 421.278, 199.218 418.022, 208.673 417.015, 211.597 414.108, 221.165 412.891, 225.174 410.295, 234.831 408.928, 239.920 406.613, 249.649 405.150, 255.796 403.088, 265.581 401.578, 272.749 399.751, 282.581 398.237, 290.725 396.626, 300.594 395.147, 309.653 393.738, 319.553 392.328, 329.454 391.109, 339.380 389.889, 349.305 389.799, 350.043 388.760, 359.989 387.722, 369.935 387.577, 371.325 386.711, 381.287 385.846, 391.250 385.677, 393.198 384.978, 403.173 384.279, 413.149 384.111, 415.552 383.979, 418.149 381.988, 427.949 380.194, 436.777 " fill="none" stroke="rgb(0, 0, 0)" stroke-linecap="butt" stroke-linejoin="round" stroke-opacity="1.0" stroke-width="3.0" />
            <path d=" M 527.606, 719.937 528.028, 717.966 529.951, 708.152 530.383, 705.951 532.151, 696.108 532.604, 693.589 534.227, 683.722 534.690, 680.908 536.177, 671.020 536.642, 667.933 538.000, 658.026 538.458, 654.691 539.695, 644.768 539.877, 643.307 540.139, 641.205 541.261, 631.268 541.686, 627.500 542.696, 617.551 543.098, 613.596 544.001, 603.637 544.375, 599.518 545.176, 589.550 545.518, 585.286 546.219, 575.311 546.527, 570.921 547.130, 560.939 547.402, 556.442 547.910, 546.455 548.144, 541.870 548.558, 531.879 548.752, 527.224 555.324, 527.224 557.173, 527.224 557.301, 527.224 559.086, 527.224 562.659, 527.224 563.507, 527.224 564.447, 527.224 567.023, 527.224 577.023, 527.224 577.734, 527.224 578.049, 517.229 578.200, 512.458 578.397, 502.460 578.493, 497.649 578.574, 487.650 578.613, 482.819 578.577, 472.819 578.560, 467.987 578.407, 457.988 578.334, 453.172 578.063, 443.176 577.933, 438.395 577.543, 428.402 577.359, 423.675 576.848, 413.689 576.610, 409.035 576.458, 406.655 " fill="none" stroke="rgb(0, 0, 0)" stroke-linecap="butt" stroke-linejoin="round" stroke-opacity="1.0" stroke-width="3.0" />
            <path d=" M 573.542, 411.639 573.598, 412.516 574.114, 422.503 574.323, 426.537 574.716, 436.529 574.878, 440.637 575.152, 450.633 575.266, 454.796 575.421, 464.795 575.486, 468.993 575.522, 478.993 575.537, 483.209 575.456, 493.209 575.422, 497.423 575.223, 507.421 575.140, 511.617 575.106, 512.708 575.009, 513.355 574.905, 513.961 574.794, 514.523 574.677, 515.038 574.554, 515.503 574.427, 515.916 574.295, 516.274 574.160, 516.576 574.023, 516.820 573.883, 517.004 573.742, 517.127 573.601, 517.190 573.461, 517.190 573.321, 517.130 569.367, 514.506 569.227, 513.202 569.058, 512.030 568.862, 511.010 568.641, 510.159 568.401, 509.491 568.144, 509.018 567.875, 508.750 567.599, 508.690 567.442, 508.688 565.435, 508.655 565.427, 508.655 564.891, 508.646 563.928, 508.631 563.105, 508.617 559.535, 508.560 557.751, 508.531 557.674, 508.530 557.211, 508.522 556.921, 508.673 556.633, 509.032 556.351, 509.594 556.082, 510.349 555.829, 511.287 555.751, 511.658 555.596, 512.391 555.389, 513.642 555.209, 515.020 555.061, 516.501 554.947, 518.059 554.870, 519.668 555.546, 520.079 556.527, 520.676 557.378, 520.691 557.474, 520.693 557.630, 520.696 559.258, 520.724 562.829, 520.788 563.662, 520.802 564.615, 520.819 565.067, 520.827 566.931, 520.860 566.956, 520.352 566.996, 519.867 567.048, 519.418 567.111, 519.018 567.183, 518.678 567.233, 518.508 567.263, 518.406 567.349, 518.211 567.437, 518.097 567.526, 518.068 " fill="none" stroke="rgb(0, 0, 0)" stroke-linecap="butt" stroke-linejoin="round" stroke-opacity="1.0" stroke-width="3.0" />
            <path d=" M 567.983, 521.526 574.691, 525.769 577.734, 527.224 " fill="none" stroke="rgb(0, 0, 0)" stroke-linecap="butt" stroke-linejoin="round" stroke-opacity="1.0" stroke-width="3.0" />
            <path d=" M 390.117, 206.974 388.414, 212.358 385.716, 221.987 384.653, 225.781 382.236, 235.485 381.018, 240.377 378.854, 250.140 377.530, 256.108 375.593, 265.918 374.209, 272.926 372.480, 282.775 371.075, 290.778 369.537, 300.659 368.147, 309.598 366.788, 319.506 365.443, 329.312 364.252, 339.240 363.061, 349.169 362.982, 349.834 361.950, 359.781 360.919, 369.727 360.779, 371.075 359.900, 381.036 359.020, 390.997 358.849, 392.935 358.117, 402.908 357.384, 412.881 357.205, 415.306 356.615, 425.289 356.024, 435.271 355.858, 438.078 355.453, 448.070 355.048, 458.062 354.925, 461.099 354.679, 471.096 354.434, 481.093 354.356, 484.261 354.269, 494.260 354.181, 504.260 354.154, 507.440 354.226, 517.440 354.298, 527.440 354.320, 530.516 354.553, 540.513 354.787, 550.511 354.853, 553.367 355.251, 563.359 355.649, 573.352 355.749, 575.877 356.316, 585.861 356.882, 595.845 357.000, 597.932 357.742, 607.905 358.484, 617.877 358.599, 619.424 359.523, 629.381 360.448, 639.338 360.533, 640.250 361.650, 650.188 362.788, 660.319 364.109, 670.232 365.350, 679.544 366.890, 689.424 368.202, 697.846 369.738, 706.362 " fill="none" stroke="rgb(0, 0, 0)" stroke-linecap="butt" stroke-linejoin="round" stroke-opacity="1.0" stroke-width="3.0" />
            <path d=" M 493.402, 737.457 492.549, 740.410 489.533, 749.944 489.457, 750.185 486.231, 759.467 482.875, 768.222 479.393, 776.418 475.788, 784.020 472.065, 790.990 468.230, 797.294 464.288, 802.895 460.247, 807.756 456.113, 811.837 454.686, 812.942 " fill="none" stroke="rgb(0, 0, 0)" stroke-linecap="butt" stroke-linejoin="round" stroke-opacity="1.0" stroke-width="3.0" />
            <path d=" M 392.433, 433.226 392.166, 438.344 391.784, 448.337 391.401, 458.329 391.287, 461.309 391.065, 471.307 390.843, 481.304 390.774, 484.414 390.712, 494.414 390.649, 504.414 390.630, 507.538 390.727, 517.538 390.825, 527.537 390.854, 530.561 391.113, 540.557 391.372, 550.554 391.445, 553.361 391.867, 563.352 392.289, 573.343 392.393, 575.824 392.982, 585.807 393.570, 595.789 393.690, 597.836 394.450, 607.807 395.210, 617.778 395.325, 619.289 396.263, 629.245 397.200, 639.201 397.283, 640.082 398.406, 650.019 399.547, 660.123 400.865, 670.036 402.100, 679.325 403.625, 689.208 404.922, 697.609 406.669, 707.455 407.992, 714.909 409.979, 724.710 411.289, 731.167 413.539, 740.911 414.790, 746.332 417.330, 756.005 418.475, 760.364 421.337, 769.945 422.319, 773.232 425.544, 782.698 426.301, 784.917 429.941, 794.230 430.399, 795.401 434.517, 804.513 434.591, 804.679 438.859, 812.755 442.842, 819.098 443.110, 819.524 443.181, 819.636 447.539, 825.334 451.915, 829.871 456.294, 833.271 460.659, 835.562 464.996, 836.773 469.292, 836.941 473.535, 836.104 477.715, 834.296 481.820, 831.559 485.843, 827.934 488.157, 825.301 489.775, 823.461 493.609, 818.180 497.339, 812.132 500.960, 805.360 504.466, 797.901 507.496, 790.651 " fill="none" stroke="rgb(0, 0, 0)" stroke-linecap="butt" stroke-linejoin="round" stroke-opacity="1.0" stroke-width="3.0" />
            <path d=" M 468.991, 818.806 464.948, 818.442 463.540, 817.973 460.881, 817.090 456.804, 814.718 454.686, 812.942 452.729, 811.300 448.671, 806.814 444.646, 801.238 440.670, 794.556 436.761, 786.759 432.935, 777.841 429.458, 768.466 429.212, 767.804 426.138, 758.288 425.610, 756.652 422.890, 747.030 422.148, 744.405 419.741, 734.699 418.844, 731.084 416.719, 721.313 415.719, 716.718 413.848, 706.894 412.791, 701.345 411.152, 691.480 410.078, 685.015 408.654, 675.117 407.598, 667.782 406.373, 657.857 405.367, 649.708 404.329, 639.762 403.401, 630.866 402.540, 620.903 401.714, 611.336 401.022, 601.360 400.318, 591.204 399.790, 581.218 399.261, 571.232 399.226, 570.562 398.854, 560.569 398.483, 550.576 398.443, 549.509 398.226, 539.512 398.008, 529.514 397.978, 528.148 397.912, 518.149 397.846, 508.149 397.836, 506.586 397.919, 496.586 398.003, 486.587 398.017, 484.931 398.250, 474.933 398.483, 464.936 398.522, 463.293 398.833, 455.187 " fill="none" stroke="rgb(0, 0, 0)" stroke-linecap="butt" stroke-linejoin="round" stroke-opacity="1.0" stroke-width="3.0" />
            <path d=" M 504.080, 779.994 502.630, 783.333 499.234, 790.280 495.737, 796.562 492.145, 802.143 488.464, 806.984 484.701, 811.048 480.863, 814.300 476.959, 816.701 472.999, 818.215 468.991, 818.806 " fill="none" stroke="rgb(0, 0, 0)" stroke-linecap="butt" stroke-linejoin="round" stroke-opacity="1.0" stroke-width="3.0" />
            <path d=" M 546.220, 525.789 545.801, 535.780 545.631, 539.822 545.112, 549.809 544.906, 553.781 544.285, 563.762 544.044, 567.648 543.320, 577.621 543.046, 581.400 542.216, 591.366 541.912, 595.020 540.974, 604.976 540.644, 608.485 539.594, 618.430 539.240, 621.775 538.074, 631.707 537.703, 634.868 536.415, 644.785 536.032, 647.741 534.617, 657.640 534.227, 660.371 533.337, 666.054 532.291, 672.735 530.602, 682.591 530.222, 684.806 528.383, 694.635 528.023, 696.560 526.024, 706.358 525.695, 707.970 525.502, 708.838 " fill="none" stroke="rgb(0, 0, 0)" stroke-linecap="butt" stroke-linejoin="round" stroke-opacity="1.0" stroke-width="3.0" />
            <path d=" M 548.752, 527.224 546.220, 525.789 555.371, 525.783 557.219, 525.782 562.705, 525.778 564.493, 525.777 564.905, 525.776 564.501, 525.530 563.562, 524.958 562.740, 524.458 559.220, 522.315 557.620, 521.341 557.631, 520.827 557.630, 520.696 " fill="none" stroke="rgb(0, 0, 0)" stroke-linecap="butt" stroke-linejoin="round" stroke-opacity="1.0" stroke-width="3.0" />
            <path d=" M 380.194, 436.777 379.803, 446.770 379.411, 456.762 379.258, 460.685 379.024, 470.682 378.791, 480.679 378.696, 484.739 378.620, 494.739 378.543, 504.739 378.512, 508.812 378.593, 518.812 378.674, 528.812 378.706, 532.775 378.946, 542.772 379.186, 552.770 379.275, 556.501 379.677, 566.493 380.079, 576.485 380.214, 579.866 380.781, 589.850 381.348, 599.834 381.514, 602.752 382.253, 612.725 382.991, 622.697 383.165, 625.043 384.081, 635.001 384.998, 644.959 385.152, 646.633 386.256, 656.572 387.359, 666.511 387.460, 667.425 388.762, 677.340 390.072, 687.328 391.585, 697.213 392.969, 706.260 394.708, 716.107 396.130, 724.152 398.115, 733.953 399.532, 740.945 401.789, 750.687 403.155, 756.587 405.712, 766.254 406.976, 771.036 409.868, 780.609 410.971, 784.264 414.241, 793.714 415.118, 796.250 418.820, 805.540 419.394, 806.981 423.595, 816.056 423.778, 816.451 428.246, 824.668 432.780, 831.640 437.359, 837.383 441.965, 841.921 446.579, 845.282 451.186, 847.495 455.770, 848.594 460.317, 848.619 464.813, 847.608 469.248, 845.602 473.610, 842.642 477.888, 838.773 482.075, 834.038 486.163, 828.478 " fill="none" stroke="rgb(0, 0, 0)" stroke-linecap="butt" stroke-linejoin="round" stroke-opacity="1.0" stroke-width="3.0" />
            <path d=" M 486.163, 828.478 492.022, 820.374 493.609, 818.180 " fill="none" stroke="rgb(0, 0, 0)" stroke-linecap="butt" stroke-linejoin="round" stroke-opacity="1.0" stroke-width="3.0" />
            <path d=" M 539.181, 550.876 529.190, 551.314 527.737, 551.377 526.142, 548.313 " fill="none" stroke="rgb(0, 0, 0)" stroke-linecap="butt" stroke-linejoin="round" stroke-opacity="1.0" stroke-width="3.0" />
            <path d=" M 541.074, 500.517 540.856, 510.514 540.638, 520.512 540.522, 525.793 540.053, 535.782 539.863, 539.835 539.246, 549.816 539.181, 550.876 534.714, 541.929 530.868, 534.225 530.615, 533.717 530.361, 533.209 530.107, 532.700 529.854, 532.190 529.563, 531.473 529.440, 531.047 " fill="none" stroke="rgb(0, 0, 0)" stroke-linecap="butt" stroke-linejoin="round" stroke-opacity="1.0" stroke-width="3.0" />
            <path d=" M 531.481, 521.583 531.427, 522.105 531.343, 522.630 531.241, 523.064 531.126, 523.389 531.002, 523.590 531.001, 523.590 " fill="none" stroke="rgb(0, 0, 0)" stroke-linecap="butt" stroke-linejoin="round" stroke-opacity="1.0" stroke-width="3.0" />
            <path d=" M 365.192, 390.534 365.024, 392.530 364.329, 402.506 363.635, 412.482 363.499, 414.435 362.952, 424.325 362.400, 434.310 362.271, 436.650 361.859, 446.641 361.447, 456.633 361.346, 459.088 361.073, 469.084 360.799, 479.080 360.729, 481.660 360.593, 491.659 360.458, 501.658 360.422, 504.276 360.423, 507.915 " fill="none" stroke="rgb(0, 0, 0)" stroke-linecap="butt" stroke-linejoin="round" stroke-opacity="1.0" stroke-width="3.0" />
            <path d=" M 533.886, 745.774 535.191, 739.329 537.044, 729.502 537.359, 727.832 539.088, 717.983 539.419, 716.095 541.030, 706.226 541.372, 704.134 542.870, 694.247 543.216, 691.967 544.607, 682.064 544.952, 679.608 546.240, 669.691 546.580, 667.073 547.768, 657.144 548.100, 654.376 549.192, 644.436 549.512, 641.532 550.511, 631.582 550.815, 628.554 551.725, 618.595 552.011, 615.455 552.832, 605.489 553.099, 602.248 553.834, 592.275 554.079, 588.946 554.730, 578.967 554.952, 575.559 555.519, 565.576 555.716, 562.101 556.201, 552.113 556.372, 548.583 556.776, 538.591 556.920, 535.015 557.173, 527.224 " fill="none" stroke="rgb(0, 0, 0)" stroke-linecap="butt" stroke-linejoin="round" stroke-opacity="1.0" stroke-width="3.0" />
            <path d=" M 460.247, 886.727 462.658, 886.885 466.767, 886.574 470.831, 885.460 474.845, 883.573 478.800, 880.943 482.690, 877.601 486.510, 873.577 490.255, 868.900 493.919, 863.601 497.499, 857.709 500.991, 851.253 504.392, 844.261 507.699, 836.761 510.909, 828.781 514.021, 820.345 516.109, 814.198 " fill="none" stroke="rgb(0, 0, 0)" stroke-linecap="butt" stroke-linejoin="round" stroke-opacity="1.0" stroke-width="3.0" />
            <path d=" M 517.913, 156.844 515.274, 150.087 512.066, 142.667 508.747, 135.782 505.321, 129.462 501.790, 123.736 498.157, 118.637 494.426, 114.196 490.603, 110.444 486.691, 107.413 482.697, 105.135 478.626, 103.642 474.486, 102.964 472.092, 103.060 470.284, 103.132 466.030, 104.176 461.731, 106.122 457.398, 108.997 453.042, 112.827 448.674, 117.631 444.307, 123.429 439.953, 130.237 435.626, 138.067 432.679, 144.160 431.341, 146.926 427.411, 156.121 427.113, 156.819 425.744, 160.417 422.957, 167.743 419.735, 177.210 418.890, 179.694 415.966, 189.257 414.927, 192.657 412.273, 202.299 411.085, 206.616 408.678, 216.322 407.382, 221.546 405.199, 231.305 403.833, 237.418 401.859, 247.221 400.455, 254.194 398.675, 264.034 397.264, 271.831 395.666, 281.702 394.277, 290.280 392.850, 300.178 391.508, 309.485 390.244, 319.405 388.971, 329.385 387.862, 339.323 386.753, 349.262 386.680, 349.913 385.720, 359.866 384.760, 369.820 384.647, 370.995 383.831, 380.961 383.015, 390.928 382.882, 392.554 382.206, 402.531 381.531, 412.509 381.395, 414.510 380.856, 424.496 380.318, 434.481 380.194, 436.777 379.790, 446.769 379.386, 456.761 379.285, 459.268 379.014, 469.265 378.744, 479.261 378.673, 481.894 378.535, 491.893 378.397, 501.892 378.360, 504.563 378.354, 514.563 378.348, 524.563 378.347, 527.185 378.474, 537.184 378.602, 547.183 378.634, 549.670 378.896, 559.666 379.158, 569.663 379.217, 571.928 379.616, 581.920 380.015, 591.912 380.094, 593.874 380.632, 603.859 381.171, 613.845 381.256, 615.423 381.939, 625.400 382.621, 635.376 382.698, 636.495 383.529, 646.461 384.360, 656.426 384.409, 657.016 385.395, 666.967 386.380, 676.913 387.528, 686.847 388.599, 696.122 389.916, 706.035 391.052, 714.583 392.550, 724.470 393.728, 732.242 395.418, 742.098 396.610, 749.051 398.507, 758.869 399.685, 764.969 401.804, 774.742 402.936, 779.961 405.298, 789.678 406.349, 793.999 408.977, 803.647 409.907, 807.059 412.830, 816.622 413.595, 819.125 416.845, 828.582 417.396, 830.185 421.015, 839.508 421.297, 840.234 425.281, 849.271 429.333, 857.300 433.440, 864.328 437.588, 870.367 441.765, 875.433 445.957, 879.544 450.152, 882.720 454.341, 884.985 458.513, 886.365 460.971, 886.673 462.658, 886.885 " fill="none" stroke="rgb(0, 0, 0)" stroke-linecap="butt" stroke-linejoin="round" stroke-opacity="1.0" stroke-width="3.0" />
            <path d=" M 472.045, 103.052 467.816, 103.221 463.534, 104.265 459.208, 106.212 454.848, 109.088 450.465, 112.917 446.070, 117.720 441.675, 123.517 437.295, 130.324 432.942, 138.152 429.873, 144.456 428.631, 147.009 424.680, 156.195 424.377, 156.899 420.802, 166.238 420.197, 167.821 419.619, 169.506 416.379, 178.967 416.105, 179.767 413.165, 189.325 412.119, 192.727 409.450, 202.364 408.255, 206.681 405.834, 216.383 404.530, 221.606 402.335, 231.362 400.961, 237.472 398.976, 247.273 397.564, 254.242 395.774, 264.080 394.356, 271.873 392.749, 281.743 391.353, 290.315 389.918, 300.212 388.569, 309.513 387.297, 319.432 386.019, 329.406 384.904, 339.343 383.788, 349.281 383.716, 349.925 382.751, 359.878 381.786, 369.832 381.673, 370.999 380.853, 380.965 380.033, 390.932 379.900, 392.550 379.221, 402.527 378.542, 412.504 378.407, 414.498 377.866, 424.483 377.325, 434.468 377.201, 436.756 376.796, 446.748 376.391, 456.740 376.289, 459.238 376.018, 469.234 375.747, 479.231 375.676, 481.855 375.539, 491.854 375.401, 501.853 375.364, 504.515 375.360, 514.515 375.356, 524.515 375.354, 527.128 375.484, 537.127 375.614, 547.126 375.646, 549.604 375.911, 559.601 376.177, 569.597 376.236, 571.854 376.639, 581.846 377.042, 591.838 377.121, 593.791 377.665, 603.777 378.208, 613.762 378.294, 615.332 378.982, 625.309 379.671, 635.285 379.747, 636.397 380.585, 646.362 381.423, 656.327 381.472, 656.910 382.466, 666.861 383.458, 676.801 384.614, 686.734 385.693, 696.003 387.021, 705.915 388.165, 714.458 389.674, 724.343 390.859, 732.111 392.561, 741.965 393.762, 748.914 395.672, 758.730 396.858, 764.828 398.992, 774.597 400.132, 779.816 402.510, 789.529 403.568, 793.849 406.214, 803.493 407.150, 806.906 410.092, 816.464 410.863, 818.969 413.317, 826.059 413.715, 827.211 414.690, 830.027 418.330, 839.341 418.617, 840.074 422.627, 849.110 426.706, 857.137 430.840, 864.165 435.016, 870.204 439.219, 875.270 443.438, 879.381 447.661, 882.558 451.877, 884.825 456.076, 886.206 460.247, 886.727 " fill="none" stroke="rgb(0, 0, 0)" stroke-linecap="butt" stroke-linejoin="round" stroke-opacity="1.0" stroke-width="3.0" />
            <path d=" M 474.486, 102.964 472.045, 103.052 " fill="none" stroke="rgb(0, 0, 0)" stroke-linecap="butt" stroke-linejoin="round" stroke-opacity="1.0" stroke-width="3.0" />
            <path d=" M 540.004, 764.744 540.125, 764.128 541.428, 757.493 543.228, 747.656 543.687, 745.145 545.368, 735.288 545.833, 732.560 547.401, 722.684 547.866, 719.754 549.325, 709.861 549.784, 706.744 551.140, 696.836 551.590, 693.546 552.846, 683.625 553.283, 680.176 554.443, 670.243 554.863, 666.647 555.930, 656.704 556.330, 652.974 557.307, 643.022 557.685, 639.171 558.574, 629.210 558.928, 625.250 559.732, 615.282 560.059, 611.224 560.779, 601.249 561.078, 597.105 561.716, 587.125 561.986, 582.904 562.543, 572.920 562.782, 568.635 563.259, 558.646 563.467, 554.306 563.865, 544.314 564.040, 539.931 564.360, 529.936 564.447, 527.224 " fill="none" stroke="rgb(0, 0, 0)" stroke-linecap="butt" stroke-linejoin="round" stroke-opacity="1.0" stroke-width="3.0" />
            <path d=" M 457.883, 921.208 460.288, 921.376 464.740, 921.505 469.146, 920.742 473.498, 919.122 477.786, 916.680 482.006, 913.451 486.149, 909.468 490.210, 904.769 494.185, 899.386 498.069, 893.353 501.858, 886.704 505.548, 879.470 509.138, 871.684 512.623, 863.375 516.002, 854.573 519.273, 845.306 522.371, 835.798 522.435, 835.601 523.686, 831.453 " fill="none" stroke="rgb(0, 0, 0)" stroke-linecap="butt" stroke-linejoin="round" stroke-opacity="1.0" stroke-width="3.0" />
            <path d=" M 541.755, 202.924 540.964, 199.065 540.051, 194.958 538.468, 187.830 536.124, 178.109 535.845, 176.949 533.312, 167.276 533.095, 166.448 530.356, 156.830 530.220, 156.351 527.253, 146.801 527.218, 146.687 524.090, 137.485 520.838, 128.774 517.463, 120.585 513.967, 112.950 510.351, 105.902 506.618, 99.476 502.771, 93.704 498.814, 88.624 494.751, 84.271 490.587, 80.682 486.327, 77.893 481.978, 75.941 477.547, 74.862 473.041, 74.692 472.133, 74.846 468.469, 75.466 463.841, 77.219 459.168, 79.981 454.460, 83.783 449.731, 88.653 444.993, 94.615 440.260, 101.690 435.549, 109.896 431.077, 118.840 430.874, 119.245 429.126, 123.218 426.253, 129.745 424.173, 135.072 421.703, 141.398 418.435, 150.776 417.241, 154.201 414.261, 163.746 412.888, 168.143 410.186, 177.771 408.661, 183.207 406.212, 192.902 404.579, 199.369 403.033, 206.169 400.816, 215.920 400.662, 216.598 398.659, 226.395 396.929, 234.854 395.124, 244.689 393.399, 254.090 391.780, 263.958 390.160, 273.826 390.090, 274.252 388.645, 284.147 387.200, 294.042 387.020, 295.279 385.740, 305.196 384.461, 315.114 384.205, 317.099 383.083, 327.036 381.962, 336.973 381.661, 339.638 380.690, 349.591 379.720, 359.544 379.402, 362.812 378.578, 372.779 377.754, 382.745 377.440, 386.534 376.759, 396.511 376.077, 406.487 375.788, 410.709 375.245, 420.694 374.702, 430.679 374.454, 435.239 374.048, 445.231 373.642, 455.223 373.446, 460.024 373.175, 470.021 372.903, 480.017 372.769, 484.960 372.632, 494.959 372.495, 504.958 372.426, 509.942 372.423, 519.942 372.420, 529.942 372.419, 534.865 372.551, 544.864 372.683, 554.863 372.746, 559.624 373.014, 569.621 373.283, 579.617 373.403, 584.117 373.811, 594.109 374.218, 604.101 374.387, 608.244 374.937, 618.229 375.486, 628.214 375.689, 631.909 376.385, 641.884 377.081, 651.860 377.301, 655.019 378.149, 664.984 378.996, 674.948 379.212, 677.490 380.217, 687.440 381.222, 697.389 381.409, 699.241 382.579, 709.172 383.750, 719.103 383.879, 720.198 385.224, 730.107 386.568, 740.016 386.606, 740.294 388.136, 750.176 389.575, 759.470 391.303, 769.320 392.769, 777.675 393.359, 780.657 395.301, 790.467 396.171, 794.864 397.882, 802.554 399.762, 811.001 402.187, 820.702 403.525, 826.055 405.809, 834.191 407.441, 840.006 410.453, 849.542 411.083, 851.538 411.493, 852.837 414.849, 862.257 415.663, 864.540 419.408, 873.812 419.933, 875.112 424.118, 884.194 424.285, 884.557 428.705, 892.883 433.176, 900.102 437.683, 906.232 442.211, 911.294 446.748, 915.311 451.281, 918.311 455.798, 920.322 459.812, 921.265 460.288, 921.376 " fill="none" stroke="rgb(0, 0, 0)" stroke-linecap="butt" stroke-linejoin="round" stroke-opacity="1.0" stroke-width="3.0" />
            <path d=" M 365.721, 383.565 365.471, 386.527 365.192, 390.534 364.497, 400.510 363.791, 410.664 363.239, 420.649 363.046, 424.144 362.494, 434.129 362.437, 435.156 362.401, 436.032 361.989, 446.023 361.577, 456.015 361.417, 459.902 361.144, 469.898 360.870, 479.894 360.811, 482.082 360.736, 484.798 360.601, 494.798 360.465, 504.797 360.423, 507.915 360.398, 509.741 360.401, 519.741 360.403, 529.741 360.404, 534.625 360.545, 544.624 360.670, 553.547 360.752, 559.346 360.755, 559.462 " fill="none" stroke="rgb(0, 0, 0)" stroke-linecap="butt" stroke-linejoin="round" stroke-opacity="1.0" stroke-width="3.0" />
            <path d=" M 470.603, 74.789 466.003, 75.564 461.346, 77.317 456.643, 80.080 451.906, 83.882 447.147, 88.751 442.380, 94.712 437.619, 101.786 432.879, 109.991 428.384, 118.924 428.176, 119.337 424.127, 128.481 423.527, 129.835 421.276, 135.565 418.950, 141.485 415.641, 150.921 414.463, 154.284 414.086, 155.481 413.753, 156.540 410.756, 166.081 410.083, 168.221 407.366, 177.845 405.832, 183.280 403.369, 192.972 401.727, 199.437 399.497, 209.185 397.788, 216.660 395.773, 226.455 394.109, 234.546 394.034, 234.909 392.219, 244.743 390.485, 254.139 388.856, 264.005 387.228, 273.872 387.158, 274.294 385.705, 284.188 384.252, 294.082 384.071, 295.312 382.785, 305.229 381.498, 315.146 381.242, 317.125 380.114, 327.061 378.986, 336.997 378.685, 339.655 377.709, 349.607 376.734, 359.559 376.415, 362.820 375.587, 372.786 374.759, 382.751 374.444, 386.532 373.759, 396.509 373.075, 406.485 372.785, 410.698 372.240, 420.683 371.695, 430.668 371.447, 435.219 371.039, 445.210 370.631, 455.202 370.435, 459.994 370.164, 469.990 369.892, 479.986 369.757, 484.920 369.621, 494.919 369.484, 504.918 369.416, 509.892 369.414, 519.892 369.412, 529.892 369.412, 534.805 369.546, 544.804 369.680, 554.803 369.744, 559.555 370.015, 569.551 370.287, 579.547 370.409, 584.038 370.820, 594.030 371.232, 604.021 371.402, 608.156 371.956, 618.140 372.511, 628.125 372.715, 631.811 373.417, 641.787 374.119, 651.762 374.340, 654.914 375.194, 664.877 376.048, 674.841 376.266, 677.376 377.279, 687.325 378.291, 697.274 378.479, 699.119 379.659, 709.050 380.838, 718.980 380.967, 720.069 382.322, 729.977 383.677, 739.885 383.714, 740.159 385.255, 750.039 386.115, 755.549 386.704, 759.329 388.445, 769.176 389.921, 777.528 391.876, 787.335 392.544, 790.688 393.346, 794.712 395.164, 802.824 396.962, 810.844 399.403, 820.542 400.750, 825.895 402.879, 833.425 404.693, 839.842 407.723, 849.371 408.772, 852.670 412.148, 862.083 412.969, 864.371 416.736, 873.634 417.267, 874.941 421.476, 884.012 421.649, 884.385 426.097, 892.710 430.597, 899.928 435.133, 906.059 439.691, 911.121 444.258, 915.139 448.819, 918.140 453.365, 920.153 457.883, 921.208 " fill="none" stroke="rgb(0, 0, 0)" stroke-linecap="butt" stroke-linejoin="round" stroke-opacity="1.0" stroke-width="3.0" />
            <path d=" M 473.041, 74.692 470.603, 74.789 " fill="none" stroke="rgb(0, 0, 0)" stroke-linecap="butt" stroke-linejoin="round" stroke-opacity="1.0" stroke-width="3.0" />
            <path d=" M 547.973, 215.946 547.706, 214.395 545.874, 204.564 545.405, 202.051 543.425, 192.249 542.974, 190.013 540.835, 180.244 540.411, 178.304 538.102, 168.575 537.716, 166.950 535.221, 157.266 534.889, 155.977 532.192, 146.347 531.930, 145.411 529.011, 135.846 528.838, 135.281 525.674, 125.795 525.615, 125.618 522.261, 116.452 518.777, 107.816 515.165, 99.742 511.426, 92.267 507.562, 85.425 503.577, 79.254 499.474, 73.791 495.257, 69.075 490.931, 65.145 486.500, 62.040 481.973, 59.800 477.354, 58.466 472.654, 58.075 467.805, 58.278 462.971, 58.872 458.072, 60.484 453.120, 63.152 448.127, 66.907 443.106, 71.782 438.070, 77.804 433.036, 84.999 428.019, 93.386 423.411, 102.261 423.037, 102.982 418.889, 112.081 418.107, 113.796 414.364, 123.069 413.248, 125.833 409.865, 135.243 408.481, 139.092 405.418, 148.612 403.824, 153.564 401.050, 163.171 399.299, 169.233 396.786, 178.912 394.927, 186.074 392.654, 195.812 390.729, 204.055 390.117, 206.974 388.064, 216.760 386.726, 223.138 384.877, 232.965 383.028, 242.793 382.938, 243.271 381.280, 253.132 379.622, 262.994 379.386, 264.398 377.907, 274.288 376.429, 284.179 376.089, 286.454 374.781, 296.368 373.472, 306.282 373.066, 309.364 371.920, 319.298 370.774, 329.232 370.333, 333.047 369.343, 342.998 368.353, 352.949 367.908, 357.415 367.474, 362.559 366.634, 372.523 365.804, 382.371 365.721, 383.565 365.442, 387.570 364.747, 397.546 364.053, 407.522 364.033, 407.816 363.481, 417.800 363.140, 423.960 362.605, 433.643 362.533, 435.406 362.121, 445.397 361.709, 455.389 361.530, 459.743 361.256, 469.740 360.983, 479.736 360.812, 486.005 360.676, 496.004 360.660, 497.164 360.525, 507.164 360.455, 512.315 360.457, 522.315 360.459, 529.083 360.461, 538.558 360.602, 548.557 360.673, 553.603 360.755, 559.462 360.828, 564.622 361.109, 574.618 361.390, 584.614 361.552, 590.396 361.976, 600.388 362.399, 610.379 362.628, 615.773 363.198, 625.756 363.767, 635.740 364.047, 640.647 364.767, 650.622 365.488, 660.596 365.800, 664.922 366.676, 674.884 367.552, 684.845 367.873, 688.505 368.912, 698.451 369.738, 706.362 370.254, 711.309 371.463, 721.236 372.672, 731.162 372.927, 733.257 374.316, 743.160 375.704, 753.063 375.875, 754.277 377.455, 764.152 379.035, 774.026 379.080, 774.309 380.865, 784.148 382.524, 793.296 384.530, 803.093 386.188, 811.194 388.433, 820.939 390.051, 827.965 392.558, 837.646 394.095, 843.580 396.891, 853.182 398.299, 858.017 401.415, 867.519 402.643, 871.263 406.118, 880.639 407.108, 883.309 410.988, 892.525 411.674, 894.156 416.015, 903.165 416.325, 903.809 421.041, 912.280 425.807, 919.585 430.605, 925.743 435.420, 930.780 440.240, 934.723 445.049, 937.602 449.835, 939.450 454.588, 940.301 459.368, 940.647 464.017, 940.533 468.614, 939.495 473.149, 937.570 477.613, 934.796 482.001, 931.211 486.306, 926.852 490.522, 921.757 494.645, 915.963 498.670, 909.506 502.592, 902.420 506.410, 894.740 510.120, 886.498 513.719, 877.728 517.207, 868.459 520.480, 859.010 520.580, 858.721 523.630, 849.197 523.839, 848.543 526.684, 838.956 526.906, 838.208 " fill="none" stroke="rgb(0, 0, 0)" stroke-linecap="butt" stroke-linejoin="round" stroke-opacity="1.0" stroke-width="3.0" />
            <path d=" M 542.490, 771.639 543.370, 767.101 545.150, 757.261 545.689, 754.282 547.352, 744.421 547.890, 741.227 549.441, 731.348 549.974, 727.953 551.419, 718.058 551.941, 714.478 553.284, 704.568 553.792, 700.817 555.036, 690.895 555.526, 686.986 556.675, 677.052 557.144, 672.999 558.202, 663.055 558.647, 658.871 559.616, 648.918 560.034, 644.614 560.917, 634.653 561.307, 630.242 562.105, 620.274 562.465, 615.766 563.180, 605.792 563.509, 601.200 564.143, 591.220 564.439, 586.554 564.993, 576.569 565.255, 571.839 565.729, 561.851 565.957, 557.068 566.353, 547.076 566.544, 542.250 566.863, 532.255 567.018, 527.396 567.023, 527.224 " fill="none" stroke="rgb(0, 0, 0)" stroke-linecap="butt" stroke-linejoin="round" stroke-opacity="1.0" stroke-width="3.0" />
            <path d=" M 472.654, 58.075 467.879, 58.666 463.041, 60.277 458.150, 62.943 453.218, 66.699 448.257, 71.574 443.283, 77.598 438.309, 84.795 433.352, 93.186 428.788, 102.084 428.428, 102.785 425.629, 109.002 423.556, 113.605 419.853, 122.894 418.754, 125.649 415.407, 135.072 414.042, 138.916 411.012, 148.446 410.762, 149.233 409.438, 153.397 406.695, 163.013 404.965, 169.075 404.697, 170.120 402.212, 179.806 401.770, 181.528 400.642, 185.927 398.394, 195.671 396.490, 203.921 394.460, 213.713 392.531, 223.017 391.087, 230.782 389.258, 240.613 388.784, 243.164 387.144, 253.029 385.505, 262.894 385.270, 264.307 383.807, 274.200 382.345, 284.093 382.007, 286.380 381.577, 289.678 380.282, 299.594 379.015, 309.307 377.881, 319.243 376.747, 329.178 376.310, 333.009 375.329, 342.960 374.349, 352.912 373.907, 357.395 373.075, 367.360 372.243, 377.326 371.822, 382.371 371.134, 392.347 370.446, 402.324 370.066, 407.836 369.518, 417.821 368.971, 427.806 368.649, 433.684 368.240, 443.675 367.831, 453.667 367.579, 459.805 367.307, 469.801 367.035, 479.798 366.863, 486.088 366.727, 496.087 366.591, 506.086 366.504, 512.418 366.504, 522.418 366.503, 532.418 366.503, 538.682 366.639, 548.681 366.776, 558.680 366.859, 564.767 367.133, 574.763 367.408, 584.759 367.568, 590.561 367.983, 600.552 368.399, 610.543 368.624, 615.956 369.184, 625.941 369.743, 635.925 370.019, 640.850 370.728, 650.825 371.436, 660.800 371.744, 665.143 372.606, 675.105 373.468, 685.068 373.786, 688.742 374.809, 698.690 375.290, 703.367 375.627, 706.644 376.132, 711.562 377.323, 721.491 378.514, 731.420 378.767, 733.525 380.135, 743.431 381.504, 753.337 381.673, 754.560 383.162, 764.001 384.161, 770.335 384.834, 774.604 386.594, 784.448 388.231, 793.603 390.210, 803.405 391.845, 811.512 393.690, 819.630 395.657, 828.292 398.132, 837.981 399.647, 843.915 402.408, 853.526 403.796, 858.359 406.874, 867.873 407.977, 871.282 408.083, 871.610 411.518, 881.002 412.490, 883.661 416.327, 892.895 416.998, 894.511 421.292, 903.542 421.588, 904.167 426.244, 912.639 430.949, 919.944 435.686, 926.102 440.441, 931.138 445.199, 935.079 449.948, 937.955 454.674, 939.800 459.368, 940.647 " fill="none" stroke="rgb(0, 0, 0)" stroke-linecap="butt" stroke-linejoin="round" stroke-opacity="1.0" stroke-width="3.0" />
            <path d=" M 565.336, 519.852 565.412, 518.241 565.427, 518.031 565.496, 517.053 565.523, 516.680 565.666, 515.198 565.840, 513.818 566.041, 512.565 566.266, 511.459 566.511, 510.520 566.771, 509.763 567.042, 509.200 567.320, 508.841 567.440, 508.776 567.599, 508.690 " fill="none" stroke="rgb(0, 0, 0)" stroke-linecap="butt" stroke-linejoin="round" stroke-opacity="1.0" stroke-width="3.0" />
            <path d=" M 554.870, 519.668 555.555, 519.680 557.402, 519.712 557.600, 519.716 562.852, 519.808 564.639, 519.840 565.099, 519.848 565.336, 519.852 566.931, 520.860 " fill="none" stroke="rgb(0, 0, 0)" stroke-linecap="butt" stroke-linejoin="round" stroke-opacity="1.0" stroke-width="3.0" />
            <path d=" M 557.620, 521.341 562.813, 521.434 564.599, 521.465 565.046, 521.473 567.161, 521.511 567.983, 521.526 567.995, 521.010 567.991, 520.500 567.973, 520.009 567.941, 519.549 567.896, 519.135 567.839, 518.776 567.771, 518.483 567.695, 518.263 567.612, 518.124 567.526, 518.068 " fill="none" stroke="rgb(0, 0, 0)" stroke-linecap="butt" stroke-linejoin="round" stroke-opacity="1.0" stroke-width="3.0" />
            <path d=" M 626.665, 916.377 628.832, 916.898 636.706, 918.085 644.576, 918.533 652.426, 918.262 660.239, 917.289 667.999, 915.634 675.692, 913.318 683.304, 910.362 690.822, 906.787 698.234, 902.615 705.529, 897.868 712.697, 892.569 719.728, 886.740 726.612, 880.403 733.342, 873.579 739.911, 866.292 746.310, 858.562 752.378, 850.614 752.534, 850.410 758.304, 842.243 758.577, 841.858 764.059, 833.495 764.432, 832.926 769.638, 824.387 770.097, 823.634 775.034, 814.938 775.565, 814.002 780.244, 805.164 780.833, 804.050 785.261, 795.083 785.898, 793.795 790.084, 784.713 790.755, 783.257 794.706, 774.070 795.401, 772.453 799.125, 763.172 799.835, 761.401 803.336, 752.034 804.052, 750.119 807.338, 740.674 808.052, 738.622 811.127, 729.107 811.831, 726.928 814.701, 717.348 815.388, 715.052 818.056, 705.414 818.721, 703.010 821.191, 693.319 821.829, 690.817 824.103, 681.079 824.709, 678.488 826.792, 668.708 827.360, 666.039 829.253, 656.220 829.781, 653.483 831.487, 643.630 831.971, 640.836 833.491, 630.952 833.928, 628.111 835.263, 618.200 835.651, 615.321 836.802, 605.388 837.139, 602.482 838.107, 592.529 838.392, 589.607 839.176, 579.638 839.407, 576.710 840.008, 566.728 840.184, 563.804 840.601, 553.812 840.722, 550.903 840.953, 540.906 841.020, 538.021 841.064, 528.021 841.077, 525.172 840.933, 515.173 840.892, 512.369 840.557, 502.375 840.464, 499.627 839.935, 489.641 839.793, 486.961 839.067, 476.987 838.877, 474.384 837.950, 464.427 837.716, 461.911 836.584, 451.975 836.309, 449.557 834.968, 439.648 834.655, 437.338 833.099, 427.460 832.754, 425.269 830.978, 415.428 830.606, 413.366 828.603, 403.568 828.210, 401.645 825.973, 391.898 825.565, 390.122 823.087, 380.435 822.673, 378.816 819.944, 369.196 819.532, 367.743 816.543, 358.200 816.143, 356.922 812.885, 347.467 812.507, 346.370 808.969, 337.017 808.625, 336.106 804.795, 326.869 804.497, 326.151 800.362, 317.046 800.125, 316.523 795.673, 307.569 795.511, 307.244 790.727, 298.462 790.657, 298.332 785.565, 289.811 780.238, 281.701 774.680, 274.024 768.895, 266.802 762.887, 260.059 756.662, 253.816 750.226, 248.098 743.585, 242.926 736.747, 238.324 729.721, 234.316 722.514, 230.923 715.138, 228.169 707.603, 226.075 699.921, 224.663 692.105, 223.953 684.170, 223.966 681.959, 224.120 " fill="none" stroke="rgb(0, 0, 0)" stroke-linecap="butt" stroke-linejoin="round" stroke-opacity="1.0" stroke-width="3.0" />
            <path d=" M 628.832, 916.898 626.803, 916.397 620.973, 914.958 613.147, 912.248 605.376, 908.756 597.678, 904.471 590.076, 899.384 582.592, 893.487 575.249, 886.777 568.345, 879.542 568.069, 879.253 561.643, 871.591 561.076, 870.915 555.120, 862.882 554.294, 861.768 548.796, 853.415 547.747, 851.822 545.697, 848.321 541.460, 841.086 536.835, 832.220 536.190, 830.984 535.456, 829.577 531.515, 821.093 529.759, 817.313 528.569, 814.432 527.339, 811.454 524.392, 804.317 521.569, 796.606 520.416, 793.456 519.377, 790.616 516.305, 781.100 514.737, 776.241 513.835, 773.052 512.241, 767.413 510.492, 761.226 508.110, 751.514 506.662, 745.609 504.606, 735.823 503.264, 729.433 501.525, 719.585 500.316, 712.742 500.184, 711.824 498.751, 701.927 497.833, 695.586 496.699, 685.651 495.828, 678.017 494.985, 668.053 494.311, 660.090 493.752, 650.106 493.291, 641.862 493.013, 631.866 492.776, 623.392 492.773, 613.392 492.770, 604.743 493.039, 594.746 493.274, 585.975 493.812, 575.990 494.288, 567.154 495.094, 557.186 495.810, 548.342 496.750, 539.637 497.833, 529.604 498.155, 527.226 499.494, 517.332 499.687, 515.908 500.350, 511.003 501.960, 501.133 503.352, 492.601 505.232, 482.780 506.825, 474.461 508.979, 464.695 510.755, 456.640 513.186, 446.940 515.127, 439.197 517.839, 429.572 519.921, 422.187 522.920, 412.647 524.085, 408.943 524.867, 406.456 525.118, 405.660 528.411, 396.218 530.696, 389.666 533.112, 383.393 536.633, 374.250 539.012, 368.638 539.994, 366.320 542.905, 359.453 547.126, 350.387 549.488, 345.314 550.892, 342.565 552.520, 339.377 556.355, 331.867 557.528, 329.772 559.137, 326.898 561.576, 322.544 563.481, 319.142 566.878, 313.614 567.399, 312.764 570.840, 307.165 576.435, 298.876 578.405, 295.958 584.371, 287.932 586.150, 285.540 592.498, 277.813 594.049, 275.925 594.704, 275.206 601.442, 267.818 602.075, 267.124 609.212, 260.119 610.205, 259.144 617.742, 252.573 618.411, 251.990 626.350, 245.908 626.672, 245.661 634.964, 240.156 643.263, 235.470 651.549, 231.594 659.802, 228.519 668.002, 226.233 676.130, 224.720 682.541, 224.119 684.170, 223.966 " fill="none" stroke="rgb(0, 0, 0)" stroke-linecap="butt" stroke-linejoin="round" stroke-opacity="1.0" stroke-width="3.0" />
            <path d=" M 681.959, 224.120 673.908, 224.875 665.768, 226.387 657.558, 228.673 649.295, 231.746 640.998, 235.619 632.689, 240.302 624.388, 245.802 616.444, 251.876 616.118, 252.125 608.573, 258.689 607.902, 259.273 600.758, 266.271 599.764, 267.245 593.460, 274.143 591.729, 276.037 585.374, 283.758 583.823, 285.643 577.849, 293.663 576.070, 296.051 570.468, 304.334 568.498, 307.246 566.956, 309.751 566.433, 310.600 561.261, 319.003 561.133, 319.211 558.816, 323.339 557.227, 326.172 554.000, 331.922 552.185, 335.471 550.554, 338.659 547.128, 345.355 542.901, 354.418 540.540, 359.478 539.610, 361.670 535.701, 370.874 534.264, 374.258 530.664, 383.588 528.323, 389.657 525.024, 399.098 522.741, 405.634 522.336, 406.919 522.199, 407.355 519.194, 416.893 517.541, 422.142 514.824, 431.766 512.744, 439.133 512.468, 440.235 510.033, 449.934 508.371, 456.556 506.483, 465.107 504.440, 474.356 502.557, 484.177 500.966, 492.476 499.354, 502.345 497.964, 510.856 497.444, 514.694 497.093, 517.290 495.836, 526.569 495.447, 529.435 494.373, 539.378 493.425, 548.152 492.619, 558.120 491.905, 566.942 491.368, 576.928 490.893, 585.743 490.625, 595.739 490.391, 604.489 490.396, 614.489 490.397, 616.552 490.401, 623.118 490.682, 633.114 490.919, 641.567 491.480, 651.551 491.943, 659.775 492.789, 669.739 493.464, 677.682 494.602, 687.617 495.474, 695.232 496.911, 705.129 497.963, 712.370 498.846, 717.353 500.590, 727.200 500.917, 729.043 502.977, 738.829 504.320, 745.204 506.708, 754.914 508.157, 760.805 510.884, 770.426 511.106, 771.208 512.409, 775.806 512.651, 776.553 515.730, 786.067 517.056, 790.167 519.461, 796.721 520.615, 799.867 520.619, 799.877 522.079, 803.856 525.904, 813.095 526.520, 814.583 527.454, 816.840 527.736, 817.446 530.776, 823.975 533.160, 829.094 533.714, 830.154 538.347, 839.016 539.173, 840.594 544.234, 849.218 545.469, 851.321 550.975, 859.669 552.025, 861.261 557.989, 869.288 558.816, 870.402 565.249, 878.058 565.818, 878.735 572.729, 885.963 573.008, 886.256 580.362, 892.963 587.856, 898.858 595.469, 903.944 603.177, 908.229 610.959, 911.722 618.795, 914.433 626.665, 916.377 " fill="none" stroke="rgb(0, 0, 0)" stroke-linecap="butt" stroke-linejoin="round" stroke-opacity="1.0" stroke-width="3.0" />
            <path d=" M 697.850, 319.993 689.642, 320.081 683.102, 320.792 681.321, 320.986 679.614, 321.336 672.910, 322.710 664.947, 325.095 664.433, 325.249 655.915, 328.614 647.385, 332.829 638.874, 337.909 630.695, 343.663 630.414, 343.861 622.658, 350.172 622.037, 350.677 614.705, 357.477 613.773, 358.341 606.858, 365.565 605.648, 366.828 599.142, 374.422 597.693, 376.113 591.596, 384.039 589.943, 386.189 584.256, 394.414 582.439, 397.043 577.156, 405.533 576.751, 406.184 576.458, 406.655 575.217, 408.650 573.542, 411.639 568.654, 420.363 568.310, 420.976 567.129, 423.317 564.673, 428.183 563.742, 430.028 562.953, 431.591 561.749, 433.976 559.531, 438.854 557.798, 442.666 557.767, 442.735 555.975, 446.676 555.557, 447.596 551.771, 456.852 549.754, 461.781 548.776, 464.452 546.952, 469.437 544.372, 476.485 543.902, 477.932 540.815, 487.444 539.447, 491.662 536.976, 500.343 535.804, 504.459 535.009, 507.254 533.192, 514.635 531.481, 521.583 531.083, 523.201 531.001, 523.590 529.440, 531.047 528.720, 534.490 527.685, 539.433 526.142, 548.313 524.827, 555.881 524.153, 560.705 522.768, 570.609 522.508, 572.472 521.450, 582.416 520.735, 589.140 520.012, 599.113 519.526, 605.816 519.147, 615.809 519.051, 618.346 518.895, 622.431 518.866, 632.431 518.847, 638.913 519.174, 648.908 519.379, 655.192 520.064, 665.168 520.479, 671.202 520.727, 673.560 521.773, 683.505 522.128, 686.884 523.539, 696.784 524.316, 702.240 525.502, 708.838 525.851, 710.784 526.992, 717.130 527.286, 718.476 527.606, 719.937 528.355, 723.354 530.139, 731.499 532.664, 741.175 532.760, 741.543 533.739, 745.293 533.886, 745.774 535.161, 749.935 536.349, 753.816 537.773, 758.464 538.762, 761.250 540.004, 764.744 540.010, 764.760 542.216, 770.969 542.490, 771.639 546.278, 780.893 547.045, 782.769 551.295, 791.821 552.237, 793.828 556.968, 802.637 557.762, 804.116 562.998, 812.636 563.596, 813.609 569.354, 821.785 569.708, 822.288 576.009, 830.054 576.074, 830.134 582.662, 837.137 589.446, 843.292 596.397, 848.594 603.488, 853.043 609.309, 855.953 610.692, 856.645 617.982, 859.407 625.333, 861.339 632.722, 862.453 640.122, 862.768 647.514, 862.300 654.874, 861.067 662.182, 859.091 669.419, 856.398 676.567, 853.008 683.609, 848.947 690.529, 844.241 697.311, 838.916 703.942, 832.998 710.408, 826.514 716.699, 819.492 722.802, 811.959 728.708, 803.940 734.287, 795.641 734.406, 795.463 739.649, 786.948 739.890, 786.556 744.808, 777.849 745.149, 777.244 749.755, 768.368 750.178, 767.553 754.484, 758.527 754.970, 757.508 758.986, 748.350 759.519, 747.137 763.255, 737.861 763.818, 736.463 767.282, 727.082 767.863, 725.510 771.065, 716.036 771.650, 714.304 774.595, 704.748 775.174, 702.868 777.869, 693.238 778.432, 691.226 780.881, 681.530 781.419, 679.400 783.628, 669.647 784.134, 667.414 786.106, 657.611 786.573, 655.291 788.311, 645.443 788.733, 643.052 790.239, 633.166 790.612, 630.720 791.889, 620.802 792.208, 618.317 793.256, 608.372 793.520, 605.865 794.338, 595.899 794.545, 593.386 795.134, 583.403 795.281, 580.900 795.641, 570.907 795.729, 568.431 795.856, 558.432 795.886, 555.999 795.778, 546.000 795.752, 543.627 795.635, 540.244 " fill="none" stroke="rgb(0, 0, 0)" stroke-linecap="butt" stroke-linejoin="round" stroke-opacity="1.0" stroke-width="3.0" />
            <path d=" M 791.100, 546.169 790.997, 546.175 781.311, 546.706 775.811, 547.008 767.166, 547.483 766.453, 547.522 765.739, 547.562 765.024, 547.601 764.309, 547.642 754.333, 546.945 752.810, 546.839 751.959, 546.757 751.131, 546.418 750.344, 545.828 749.615, 544.999 748.957, 543.945 748.384, 542.686 747.905, 541.246 747.531, 539.652 747.269, 537.934 747.124, 536.126 747.099, 534.263 747.195, 532.381 747.409, 530.515 747.739, 528.703 748.176, 526.979 748.712, 525.377 749.338, 523.926 750.041, 522.656 750.805, 521.591 751.469, 520.787 752.134, 519.985 752.797, 519.184 753.460, 518.384 753.793, 517.983 755.429, 516.011 756.032, 515.285 758.615, 512.172 765.001, 504.477 771.387, 496.782 776.351, 490.800 786.295, 491.853 787.179, 491.946 " fill="none" stroke="rgb(0, 0, 0)" stroke-linecap="butt" stroke-linejoin="round" stroke-opacity="1.0" stroke-width="3.0" />
            <path d=" M 823.141, 507.402 822.825, 504.490 822.084, 497.662 820.714, 487.756 820.445, 485.807 818.774, 475.948 818.469, 474.152 816.487, 464.350 816.157, 462.722 813.854, 452.991 813.511, 451.541 810.882, 441.893 810.538, 440.629 807.577, 431.077 807.244, 430.002 803.937, 420.564 803.630, 419.688 799.955, 410.388 799.692, 409.723 795.629, 400.585 795.430, 400.139 790.960, 391.193 790.847, 390.967 785.948, 382.233 780.743, 373.958 775.243, 366.157 769.456, 358.852 763.387, 352.081 757.041, 345.884 750.428, 340.293 743.559, 335.336 736.449, 331.035 729.114, 327.400 722.245, 324.709 721.571, 324.445 713.835, 322.201 705.921, 320.707 697.850, 319.993 " fill="none" stroke="rgb(0, 0, 0)" stroke-linecap="butt" stroke-linejoin="round" stroke-opacity="1.0" stroke-width="3.0" />
            <path d=" M 664.947, 325.095 669.455, 327.778 675.378, 332.055 681.113, 336.967 686.650, 342.493 691.979, 348.607 697.091, 355.274 701.982, 362.456 706.648, 370.116 711.083, 378.233 715.278, 386.792 719.225, 395.772 722.920, 405.150 726.248, 414.580 726.359, 414.895 729.371, 424.430 729.543, 424.976 732.260, 434.600 732.474, 435.359 734.912, 445.057 735.153, 446.018 737.316, 455.781 737.572, 456.937 739.468, 466.755 739.727, 468.097 741.364, 477.962 741.615, 479.478 743.002, 489.381 743.236, 491.054 743.921, 496.987 743.904, 498.224 743.828, 499.464 743.694, 500.695 743.502, 501.902 743.255, 503.075 742.956, 504.199 742.607, 505.265 742.211, 506.260 741.773, 507.175 741.311, 507.978 741.298, 507.999 740.791, 508.724 740.256, 509.343 739.700, 509.849 739.128, 510.238 730.482, 515.263 725.692, 518.046 " fill="none" stroke="rgb(0, 0, 0)" stroke-linecap="butt" stroke-linejoin="round" stroke-opacity="1.0" stroke-width="3.0" />
            <path d=" M 800.378, 535.244 800.957, 535.281 802.065, 535.352 803.225, 535.426 811.642, 530.026 813.999, 528.514 815.899, 527.295 823.547, 522.389 824.367, 521.863 825.471, 521.260 830.461, 518.536 829.675, 508.566 829.456, 505.784 828.389, 495.841 828.104, 493.184 826.750, 483.276 826.406, 480.759 824.756, 470.896 824.361, 468.535 822.406, 458.728 821.969, 456.536 819.699, 446.797 819.231, 444.788 816.783, 435.679 816.148, 433.316 813.215, 423.756 812.721, 422.148 811.189, 417.742 808.953, 411.311 805.303, 402.000 804.845, 400.831 800.816, 391.678 800.401, 390.735 795.976, 381.768 795.624, 381.055 790.787, 372.302 790.519, 371.816 789.273, 369.804 785.091, 363.047 784.216, 361.787 779.348, 354.779 773.294, 347.042 766.939, 339.863 760.292, 333.272 753.363, 327.299 746.163, 321.975 738.706, 317.325 731.005, 313.379 723.076, 310.166 714.937, 307.711 706.605, 306.039 698.100, 305.174 688.112, 304.690 678.124, 304.206 673.738, 303.994 " fill="none" stroke="rgb(0, 0, 0)" stroke-linecap="butt" stroke-linejoin="round" stroke-opacity="1.0" stroke-width="3.0" />
            <path d=" M 698.100, 305.174 689.446, 305.139 684.622, 305.586 680.663, 305.953 671.779, 307.633 667.871, 308.751 662.818, 310.197 653.809, 313.656 646.670, 317.105 645.482, 317.679 644.781, 318.018 636.148, 323.065 635.765, 323.289 627.532, 328.964 626.794, 329.473 618.976, 335.708 617.899, 336.566 610.504, 343.298 609.116, 344.561 602.146, 351.733 600.479, 353.448 593.933, 361.008 592.025, 363.212 585.895, 371.114 583.788, 373.831 578.068, 382.033 575.805, 385.277 575.408, 385.909 575.071, 386.446 569.751, 394.913 568.112, 397.522 566.376, 400.588 563.941, 404.886 562.252, 407.868 560.745, 410.530 557.123, 417.626 555.372, 421.056 553.738, 424.258 549.564, 433.346 547.124, 438.660 543.698, 446.981 540.937, 453.686 537.488, 463.072 535.208, 469.279 532.111, 478.787 529.963, 485.380 527.213, 494.994 525.231, 501.924 524.835, 503.520 522.428, 513.227 521.427, 517.267 521.035, 518.846 520.061, 523.461 519.266, 527.226 518.082, 532.827 517.397, 536.075 515.668, 545.924 514.333, 553.537 512.943, 563.440 511.859, 571.159 510.809, 581.103 509.989, 588.864 509.278, 598.839 508.727, 606.578 508.361, 616.571 508.080, 624.223 508.062, 634.223 508.049, 641.723 508.386, 651.718 508.631, 659.006 509.199, 667.115 509.820, 675.998 510.888, 685.940 511.607, 692.629 " fill="none" stroke="rgb(0, 0, 0)" stroke-linecap="butt" stroke-linejoin="round" stroke-opacity="1.0" stroke-width="3.0" />
            <path d=" M 756.032, 515.285 755.049, 505.333 754.888, 503.701 754.688, 501.018 754.663, 501.251 754.472, 502.464 754.226, 503.642 753.928, 504.772 753.580, 505.843 753.187, 506.843 752.752, 507.762 752.280, 508.590 751.776, 509.319 751.245, 509.942 750.693, 510.451 750.125, 510.842 741.509, 515.918 733.236, 520.794 732.582, 519.873 731.857, 519.148 731.073, 518.633 730.245, 518.336 729.384, 518.263 725.692, 518.046 718.221, 517.609 717.337, 517.760 716.451, 518.134 715.578, 518.725 714.732, 519.522 713.962, 520.517 713.284, 521.692 712.676, 523.026 712.149, 524.495 711.712, 526.075 711.373, 527.740 711.136, 529.459 711.008, 531.204 710.989, 532.944 711.080, 534.651 721.058, 535.311 722.278, 535.391 727.050, 532.602 727.027, 532.057 727.048, 531.501 727.112, 530.951 727.189, 530.565 727.218, 530.420 727.362, 529.924 727.540, 529.476 727.748, 529.089 727.981, 528.772 728.231, 528.534 728.491, 528.383 728.756, 528.322 " fill="none" stroke="rgb(0, 0, 0)" stroke-linecap="butt" stroke-linejoin="round" stroke-opacity="1.0" stroke-width="3.0" />
            <path d=" M 797.733, 522.265 800.268, 520.637 801.417, 519.898 801.591, 519.787 806.800, 516.440 807.031, 516.291 807.538, 515.920 808.032, 515.446 808.510, 514.874 808.968, 514.210 809.402, 513.461 809.809, 512.632 810.186, 511.731 810.531, 510.766 810.840, 509.743 811.112, 508.672 811.344, 507.560 811.534, 506.416 811.681, 505.248 811.783, 504.066 821.377, 506.884 822.986, 507.357 823.141, 507.402 823.030, 508.135 823.025, 508.169 822.794, 509.287 822.524, 510.363 822.217, 511.391 821.874, 512.361 821.500, 513.267 821.096, 514.100 820.665, 514.853 820.211, 515.521 819.737, 516.096 819.247, 516.573 818.745, 516.946 813.229, 520.548 812.826, 520.811 806.197, 525.139 805.585, 524.193 804.903, 523.449 804.164, 522.922 803.379, 522.619 802.562, 522.548 801.567, 522.490 800.372, 522.420 797.733, 522.265 794.781, 522.093 790.686, 521.853 790.307, 521.925 790.107, 521.963 789.843, 522.013 788.995, 522.402 788.158, 523.015 787.345, 523.842 786.606, 524.871 785.957, 526.086 785.373, 527.464 784.865, 528.982 784.441, 530.614 784.109, 532.332 783.875, 534.106 783.742, 535.906 783.713, 537.701 783.789, 539.460 790.912, 539.932 790.930, 539.933 795.635, 540.244 795.707, 540.249 800.234, 537.345 800.216, 536.783 800.239, 536.210 800.303, 535.642 800.378, 535.244 800.406, 535.095 800.545, 534.582 800.717, 534.119 800.905, 533.741 800.916, 533.718 801.138, 533.390 801.375, 533.144 801.622, 532.987 801.873, 532.922 " fill="none" stroke="rgb(0, 0, 0)" stroke-linecap="butt" stroke-linejoin="round" stroke-opacity="1.0" stroke-width="3.0" />
            <path d=" M 775.811, 547.008 775.893, 553.810 775.771, 563.809 775.743, 566.118 775.379, 576.111 775.294, 578.463 774.692, 588.444 774.548, 590.822 773.710, 600.786 773.509, 603.173 772.433, 613.115 772.176, 615.496 770.864, 625.410 770.552, 627.768 769.003, 637.647 768.640, 639.968 766.853, 649.807 766.441, 652.073 764.414, 661.865 763.959, 664.062 761.688, 673.801 761.196, 675.912 758.679, 685.590 758.156, 687.601 755.389, 697.210 754.843, 699.106 751.819, 708.638 751.259, 710.405 747.974, 719.850 747.409, 721.473 743.856, 730.821 743.298, 732.288 739.469, 741.526 738.931, 742.826 734.818, 751.941 734.312, 753.061 729.906, 762.038 729.448, 762.971 724.739, 771.792 724.346, 772.529 719.322, 781.175 719.011, 781.710 713.661, 790.158 713.453, 790.488 707.765, 798.713 707.678, 798.839 701.696, 806.735 695.516, 814.150 689.150, 821.057 682.608, 827.432 675.902, 833.245 669.046, 838.470 662.053, 843.084 654.940, 847.060 647.721, 850.371 640.415, 852.994 633.040, 854.907 625.614, 856.088 618.159, 856.513 610.696, 856.165 609.309, 855.953 " fill="none" stroke="rgb(0, 0, 0)" stroke-linecap="butt" stroke-linejoin="round" stroke-opacity="1.0" stroke-width="3.0" />
            <path d=" M 764.309, 547.642 763.465, 547.560 762.645, 547.221 761.866, 546.629 761.144, 545.796 760.493, 544.738 759.926, 543.473 759.453, 542.027 759.084, 540.425 758.826, 538.699 758.695, 537.027 758.684, 536.883 758.661, 535.011 758.758, 533.119 758.972, 531.244 759.155, 530.228 759.300, 529.423 759.736, 527.690 760.269, 526.079 760.891, 524.622 761.589, 523.345 762.347, 522.273 763.006, 521.466 763.666, 520.659 764.324, 519.853 764.982, 519.049 765.312, 518.646 766.962, 516.631 773.298, 508.895 777.850, 503.336 784.186, 495.600 787.179, 491.946 788.349, 501.877 788.460, 502.821 788.933, 507.222 789.783, 517.186 789.914, 518.723 790.107, 521.963 " fill="none" stroke="rgb(0, 0, 0)" stroke-linecap="butt" stroke-linejoin="round" stroke-opacity="1.0" stroke-width="3.0" />
            <path d=" M 794.608, 519.151 800.211, 519.661 801.410, 519.770 801.591, 519.787 " fill="none" stroke="rgb(0, 0, 0)" stroke-linecap="butt" stroke-linejoin="round" stroke-opacity="1.0" stroke-width="3.0" />
            <path d=" M 764.689, 537.419 764.374, 537.322 764.082, 537.078 763.828, 536.701 763.621, 536.206 763.471, 535.615 763.385, 534.953 763.366, 534.250 763.415, 533.536 763.530, 532.843 763.706, 532.201 763.935, 531.639 764.207, 531.181 764.511, 530.847 764.831, 530.652 765.156, 530.604 " fill="none" stroke="rgb(0, 0, 0)" stroke-linecap="butt" stroke-linejoin="round" stroke-opacity="1.0" stroke-width="3.0" />
            <path d=" M 765.156, 530.604 765.470, 530.704 765.760, 530.949 766.014, 531.327 766.220, 531.821 766.369, 532.412 766.454, 533.072 766.473, 533.772 766.424, 534.483 766.309, 535.174 766.134, 535.814 765.906, 536.375 765.635, 536.834 765.333, 537.169 765.013, 537.368 764.689, 537.419 " fill="none" stroke="rgb(0, 0, 0)" stroke-linecap="butt" stroke-linejoin="round" stroke-opacity="1.0" stroke-width="3.0" />
            <path d=" M 800.957, 535.281 801.167, 541.471 801.270, 551.470 801.300, 554.423 801.168, 564.422 801.129, 567.435 800.766, 577.428 800.655, 580.486 800.062, 590.468 799.879, 593.553 799.059, 603.519 798.804, 606.615 797.755, 616.559 797.429, 619.649 796.152, 629.567 795.757, 632.634 794.251, 642.520 793.790, 645.547 792.054, 655.395 791.530, 658.366 789.560, 668.170 788.977, 671.068 786.772, 680.822 786.136, 683.631 783.691, 693.327 783.010, 696.031 780.320, 705.663 779.600, 708.245 776.661, 717.803 775.909, 720.248 772.716, 729.724 771.943, 732.017 768.488, 741.401 767.706, 743.527 763.980, 752.807 763.200, 754.751 759.196, 763.915 758.431, 765.665 754.140, 774.698 753.406, 776.244 748.816, 785.128 748.129, 786.459 743.229, 795.176 742.607, 796.283 737.386, 804.812 736.849, 805.690 731.293, 814.005 730.861, 814.652 724.957, 822.723 724.653, 823.139 718.386, 830.933 718.233, 831.124 711.613, 838.578 704.804, 845.472 697.818, 851.777 690.668, 857.463 683.370, 862.504 675.938, 866.871 668.389, 870.533 660.741, 873.466 653.013, 875.645 645.226, 877.043 637.400, 877.635 629.559, 877.403 621.726, 876.326 613.927, 874.385 606.187, 871.565 598.534, 867.855 590.995, 863.246 583.599, 857.731 576.377, 851.307 569.458, 844.087 569.356, 843.980 562.992, 836.267 562.569, 835.754 556.749, 827.622 556.045, 826.639 550.753, 818.154 549.815, 816.652 545.029, 807.871 543.908, 805.814 539.610, 796.785 538.355, 794.150 538.052, 793.421 535.332, 786.867 534.063, 783.810 533.184, 781.691 529.794, 772.283 528.719, 769.299 528.422, 768.474 527.550, 765.665 524.584, 756.115 524.095, 754.539 521.715, 745.547 520.229, 739.934 519.906, 738.483 517.737, 728.721 516.846, 724.708 515.051, 714.871 513.965, 708.920 512.532, 699.023 511.607, 692.629 508.448, 683.141 507.081, 679.034 505.613, 674.627 " fill="none" stroke="rgb(0, 0, 0)" stroke-linecap="butt" stroke-linejoin="round" stroke-opacity="1.0" stroke-width="3.0" />
            <path d=" M 673.738, 303.994 665.890, 303.934 660.305, 304.483 657.929, 304.717 649.880, 306.363 641.765, 308.889 633.610, 312.310 625.442, 316.633 617.288, 321.866 609.319, 327.907 609.178, 328.014 601.666, 334.615 601.142, 335.074 594.087, 342.161 593.211, 343.041 586.608, 350.550 585.418, 351.904 579.257, 359.780 577.794, 361.650 573.873, 367.255 573.488, 367.806 570.374, 372.258 565.474, 380.062 563.188, 383.701 563.027, 383.987 561.353, 386.952 556.437, 395.660 556.272, 395.951 556.260, 395.976 554.554, 399.335 550.025, 408.250 549.658, 408.972 545.503, 418.068 543.377, 422.721 543.115, 423.361 539.321, 432.613 537.460, 437.152 534.018, 446.541 531.939, 452.214 528.838, 461.721 526.840, 467.850 524.072, 477.460 522.189, 483.999 519.748, 493.697 518.011, 500.597 515.892, 510.370 514.329, 517.575 512.561, 527.226 511.162, 534.862 509.673, 544.750 508.525, 552.382 507.349, 562.313 506.432, 570.060 505.570, 580.023 504.895, 587.820 504.347, 597.805 503.919, 605.583 503.687, 615.580 503.509, 623.272 503.598, 633.272 503.665, 640.810 504.081, 650.802 504.385, 658.123 505.127, 668.095 505.613, 674.627 504.968, 684.606 504.459, 692.467 504.381, 693.681 " fill="none" stroke="rgb(0, 0, 0)" stroke-linecap="butt" stroke-linejoin="round" stroke-opacity="1.0" stroke-width="3.0" />
            <path d=" M 506.839, 710.491 508.650, 720.325 509.837, 726.775 512.024, 736.533 513.356, 742.472 515.934, 752.134 516.216, 753.191 517.372, 757.523 517.977, 759.455 520.965, 768.998 521.865, 771.872 524.361, 778.744 525.568, 782.065 526.806, 785.473 530.667, 794.697 531.230, 796.044 532.168, 798.283 532.499, 798.973 535.435, 805.086 537.922, 810.264 542.742, 819.026 544.039, 821.385 549.369, 829.846 550.487, 831.620 556.347, 839.723 557.234, 840.949 563.641, 848.626 564.249, 849.355 571.213, 856.531 571.501, 856.828 578.957, 863.364 586.586, 868.962 594.359, 873.622 602.244, 877.355 610.214, 880.171 618.240, 882.083 626.296, 883.106 634.355, 883.263 642.394, 882.575 650.390, 881.063 658.320, 878.753 666.165, 875.673 673.905, 871.850 681.521, 867.310 688.998, 862.085 696.320, 856.204 703.473, 849.695 710.442, 842.588 717.060, 835.091 717.216, 834.914 723.463, 827.105 723.784, 826.704 729.672, 818.620 730.135, 817.983 735.677, 809.659 736.260, 808.784 741.471, 800.248 742.151, 799.134 747.041, 790.412 747.798, 789.062 752.381, 780.175 753.195, 778.595 757.482, 769.561 758.336, 767.762 762.337, 758.597 763.215, 756.588 766.939, 747.307 767.825, 745.100 771.281, 735.716 772.162, 733.323 775.358, 723.847 776.223, 721.284 779.165, 711.726 780.002, 709.007 782.695, 699.377 783.495, 696.516 785.945, 686.821 786.700, 683.836 788.911, 674.083 789.613, 670.990 791.589, 661.187 792.232, 658.001 793.975, 648.154 794.552, 644.893 796.066, 635.008 796.574, 631.688 797.858, 621.770 798.294, 618.408 799.350, 608.464 799.709, 605.077 800.537, 595.112 800.819, 591.717 801.418, 581.735 801.621, 578.349 801.991, 568.356 802.115, 564.996 802.252, 554.997 802.297, 551.681 802.200, 541.682 802.168, 538.426 802.065, 535.352 " fill="none" stroke="rgb(0, 0, 0)" stroke-linecap="butt" stroke-linejoin="round" stroke-opacity="1.0" stroke-width="3.0" />
            <path d=" M 504.381, 693.681 505.828, 703.575 506.839, 710.491 " fill="none" stroke="rgb(0, 0, 0)" stroke-linecap="butt" stroke-linejoin="round" stroke-opacity="1.0" stroke-width="3.0" />
            <path d=" M 816.783, 435.679 815.431, 428.441 813.362, 418.657 813.114, 417.486 810.806, 407.756 810.562, 406.728 808.007, 397.060 807.775, 396.183 804.961, 386.587 804.751, 385.871 801.668, 376.358 801.490, 375.809 798.131, 366.390 797.996, 366.012 794.349, 356.701 794.270, 356.498 790.313, 347.282 786.128, 338.385 781.717, 329.825 777.080, 321.624 772.221, 313.804 767.142, 306.387 761.848, 299.388 756.345, 292.827 750.637, 286.722 744.731, 281.094 738.632, 275.963 732.346, 271.352 725.882, 267.285 719.246, 263.785 712.449, 260.872 705.501, 258.561 698.412, 256.869 691.195, 255.813 683.862, 255.410 676.426, 255.678 675.943, 255.739 668.901, 256.635 661.304, 258.298 653.650, 260.685 645.958, 263.803 638.245, 267.657 630.529, 272.253 622.829, 277.594 615.167, 283.683 611.579, 286.911 607.564, 290.523 600.524, 297.626 600.041, 298.113 593.395, 305.585 592.624, 306.452 586.365, 314.251 585.692, 315.089 585.336, 315.533 579.452, 323.619 578.198, 325.341 576.717, 327.577 571.234, 335.857 570.651, 336.823 570.199, 337.571 565.029, 346.131 564.467, 347.062 563.596, 348.640 561.181, 353.018 559.548, 355.979 557.917, 358.934 554.531, 365.655 552.867, 368.957 551.611, 371.450 547.432, 380.535 545.570, 384.581 541.790, 393.601 539.820, 398.300 536.654, 406.612 534.384, 412.573 531.124, 422.026 529.284, 427.361 526.313, 436.909 524.536, 442.621 521.848, 452.252 520.158, 458.306 517.747, 468.011 516.167, 474.371 514.029, 484.140 512.579, 490.767 510.710, 500.591 509.407, 507.442 507.807, 517.314 506.667, 524.346 506.280, 527.226 504.948, 537.137 504.372, 541.423 503.307, 551.367 502.531, 558.619 501.731, 568.587 501.146, 575.876 500.612, 585.862 500.222, 593.137 499.955, 603.134 499.762, 610.347 499.766, 620.347 499.768, 627.448 500.045, 637.444 500.238, 644.385 500.793, 654.370 501.168, 661.105 502.006, 671.069 502.551, 677.554 503.678, 687.490 504.320, 693.150 504.381, 693.681 505.805, 703.579 506.648, 709.437 506.839, 710.491 508.565, 720.341 509.341, 724.775 511.385, 734.564 512.447, 739.652 514.814, 749.368 515.950, 754.028 515.973, 754.109 517.727, 760.353 519.836, 767.862 522.889, 777.384 523.905, 780.552 524.088, 781.121 525.089, 783.876 528.503, 793.274 528.685, 793.773 530.628, 798.516 531.873, 801.557 533.608, 805.793 534.700, 808.164 538.839, 817.154 543.432, 826.036 544.359, 827.829 549.380, 836.477 550.148, 837.800 555.608, 846.178 556.181, 847.056 562.094, 855.121 562.436, 855.588 568.812, 863.292 568.892, 863.388 575.526, 870.450 582.318, 876.770 589.249, 882.344 596.299, 887.173 603.448, 891.258 610.673, 894.613 617.957, 897.247 623.784, 898.780 625.279, 899.174 632.623, 900.406 639.972, 900.956 647.309, 900.838 654.620, 900.062 661.891, 898.643 669.107, 896.600 676.254, 893.956 683.321, 890.732 690.295, 886.949 697.165, 882.627 703.922, 877.783 710.556, 872.437 717.058, 866.605 723.419, 860.304 729.632, 853.558 735.690, 846.389 741.587, 838.819 747.316, 830.867 752.873, 822.553 758.149, 814.059 758.251, 813.895 763.256, 805.237 763.447, 804.907 768.188, 796.103 768.454, 795.608 772.939, 786.670 773.269, 786.013 777.507, 776.955 777.888, 776.142 781.888, 766.977 782.308, 766.016 786.079, 756.754 786.528, 755.650 790.075, 746.300 790.545, 745.063 793.874, 735.633 794.355, 734.269 797.471, 724.767 797.957, 723.284 800.863, 713.715 801.346, 712.122 804.045, 702.493 804.521, 700.796 807.017, 691.113 807.478, 689.323 809.776, 679.591 810.218, 677.718 812.322, 667.942 812.740, 665.997 814.651, 656.182 815.042, 654.174 816.764, 644.324 817.124, 642.263 818.657, 632.382 818.983, 630.278 820.328, 620.369 820.618, 618.232 821.774, 608.299 822.026, 606.138 822.994, 596.185 823.205, 594.011 823.987, 584.042 824.157, 581.864 824.752, 571.882 824.881, 569.711 825.289, 559.719 825.376, 557.565 825.594, 547.568 825.641, 545.441 825.667, 535.441 825.673, 533.351 825.507, 523.353 825.473, 521.310 825.471, 521.260 " fill="none" stroke="rgb(0, 0, 0)" stroke-linecap="butt" stroke-linejoin="round" stroke-opacity="1.0" stroke-width="3.0" />
            <path d=" M 674.202, 255.802 666.667, 256.759 659.059, 258.422 651.396, 260.807 643.694, 263.923 635.971, 267.774 628.246, 272.366 620.538, 277.702 612.867, 283.786 610.286, 286.103 605.255, 290.619 598.209, 297.715 597.725, 298.202 591.071, 305.667 590.300, 306.533 584.033, 314.325 583.005, 315.604 580.123, 319.555 575.860, 325.402 570.332, 333.734 570.267, 333.832 569.977, 334.268 569.799, 334.537 568.890, 335.907 563.712, 344.462 563.337, 345.082 562.116, 347.100 560.906, 349.289 559.289, 352.215 555.561, 358.960 554.255, 361.547 552.589, 364.847 549.250, 371.462 545.064, 380.544 543.205, 384.579 541.494, 388.653 537.622, 397.873 537.450, 398.282 533.885, 407.625 532.011, 412.539 528.745, 421.990 526.907, 427.310 525.463, 431.943 522.488, 441.490 522.157, 442.553 519.464, 452.183 517.777, 458.221 515.362, 467.925 513.784, 474.267 511.643, 484.035 510.194, 490.644 508.323, 500.467 507.022, 507.300 505.420, 517.171 504.282, 524.184 503.873, 527.226 502.539, 537.137 501.987, 541.242 500.922, 551.185 500.147, 558.418 499.347, 568.386 498.764, 575.655 498.230, 585.641 497.842, 592.897 497.575, 602.894 497.384, 610.087 497.389, 620.087 497.392, 627.169 497.672, 637.165 497.865, 644.088 498.423, 654.072 498.799, 660.789 499.640, 670.754 500.186, 677.220 501.317, 687.156 502.021, 693.330 502.940, 699.699 504.293, 709.069 506.027, 718.918 506.991, 724.392 509.040, 734.180 510.103, 739.254 512.476, 748.968 513.612, 753.615 514.895, 758.170 516.592, 764.195 517.505, 767.436 520.565, 776.956 521.763, 780.682 522.991, 784.053 524.168, 787.286 526.367, 793.324 529.835, 801.768 531.077, 804.794 531.298, 805.333 533.985, 811.155 536.537, 816.684 541.138, 825.562 542.065, 827.350 547.094, 835.994 547.862, 837.314 553.331, 845.686 553.904, 846.564 559.824, 854.622 560.168, 855.090 566.551, 862.787 566.632, 862.885 573.276, 869.943 580.078, 876.260 587.018, 881.833 594.078, 886.660 601.236, 890.745 608.471, 894.100 615.765, 896.736 623.097, 898.665 " fill="none" stroke="rgb(0, 0, 0)" stroke-linecap="butt" stroke-linejoin="round" stroke-opacity="1.0" stroke-width="3.0" />
            <path d=" M 676.426, 255.678 674.202, 255.802 " fill="none" stroke="rgb(0, 0, 0)" stroke-linecap="butt" stroke-linejoin="round" stroke-opacity="1.0" stroke-width="3.0" />
            <path d=" M 623.097, 898.665 625.279, 899.174 " fill="none" stroke="rgb(0, 0, 0)" stroke-linecap="butt" stroke-linejoin="round" stroke-opacity="1.0" stroke-width="3.0" />
            <path d=" M 486.579, 697.067 488.034, 706.960 489.230, 715.096 490.995, 724.939 492.373, 732.629 493.402, 737.457 495.123, 745.534 495.992, 749.613 498.406, 759.317 500.068, 765.999 500.257, 766.659 503.013, 776.272 504.080, 779.994 504.581, 781.745 506.091, 786.358 507.496, 790.651 509.282, 796.110 509.511, 796.808 510.414, 799.241 513.892, 808.616 514.834, 811.152 514.944, 811.417 516.109, 814.198 518.776, 820.567 519.978, 823.438 520.526, 824.747 522.442, 828.813 523.686, 831.453 524.375, 832.917 526.564, 837.563 526.906, 838.208 531.583, 847.046 532.922, 849.578 538.031, 858.174 539.575, 860.771 545.131, 869.086 546.497, 871.129 552.514, 879.116 553.662, 880.639 560.151, 888.248 561.043, 889.295 568.011, 896.467 568.617, 897.091 576.064, 903.765 576.357, 904.028 584.238, 910.108 592.237, 915.336 600.330, 919.722 608.495, 923.275 616.710, 926.008 621.043, 927.075 629.264, 928.998 637.494, 930.132 645.715, 930.494 653.907, 930.104 662.055, 928.983 670.142, 927.153 678.153, 924.635 686.074, 921.452 693.892, 917.628 701.594, 913.187 709.170, 908.152 716.609, 902.546 723.901, 896.395 731.037, 889.720 738.009, 882.545 744.652, 875.071 744.809, 874.894 751.136, 867.150 751.431, 866.789 757.452, 858.804 757.869, 858.252 763.593, 850.053 764.115, 849.306 769.555, 840.915 770.166, 839.971 775.330, 831.408 776.017, 830.269 780.915, 821.551 781.662, 820.220 786.304, 811.363 787.099, 809.844 791.492, 800.861 792.324, 799.161 796.477, 790.064 797.333, 788.190 801.253, 778.990 802.124, 776.948 805.818, 767.656 806.693, 765.455 810.169, 756.078 811.040, 753.727 814.301, 744.273 815.161, 741.781 818.213, 732.259 819.054, 729.636 821.903, 720.050 822.718, 717.305 825.367, 707.663 826.151, 704.807 828.604, 695.112 829.352, 692.155 831.612, 682.414 832.318, 679.366 834.388, 669.583 835.050, 666.454 836.932, 656.633 837.545, 653.434 839.241, 643.579 839.802, 640.321 841.314, 630.436 841.820, 627.128 843.149, 617.217 843.598, 613.870 844.745, 603.936 845.135, 600.560 846.101, 590.607 846.430, 587.213 847.214, 577.244 847.482, 573.842 848.085, 563.860 848.290, 560.461 848.710, 550.470 848.852, 547.085 849.089, 537.087 849.169, 533.725 849.220, 523.725 849.238, 520.398 849.103, 510.398 849.059, 507.115 848.735, 497.121 848.630, 493.893 848.115, 483.906 847.952, 480.745 847.242, 470.770 847.023, 467.685 846.115, 457.726 845.841, 454.729 844.731, 444.791 844.408, 441.891 843.091, 431.978 842.720, 429.188 841.191, 419.305 840.778, 416.634 839.032, 406.787 838.581, 404.246 836.611, 394.441 836.129, 392.040 833.928, 382.285 833.420, 380.034 830.982, 370.336 830.456, 368.244 827.771, 358.612 827.235, 356.690 824.294, 347.132 823.758, 345.388 820.551, 335.916 820.024, 334.359 816.542, 324.984 816.035, 323.620 812.265, 314.358 811.791, 313.194 807.722, 304.059 807.294, 303.099 802.911, 294.111 802.544, 293.357 797.835, 284.536 797.544, 283.990 792.494, 275.359 792.295, 275.020 786.890, 266.607 786.801, 266.468 781.065, 258.359 775.089, 250.716 768.880, 243.562 762.442, 236.922 755.781, 230.820 748.902, 225.280 741.815, 220.329 734.525, 215.989 727.044, 212.287 719.381, 209.246 711.546, 206.890 703.553, 205.243 695.414, 204.327 687.143, 204.165 678.757, 204.777 674.332, 205.123 665.824, 206.529 657.235, 208.745 648.584, 211.787 639.892, 215.669 631.179, 220.403 622.766, 225.809 622.469, 225.999 614.448, 231.971 613.785, 232.464 606.165, 238.939 605.151, 239.800 597.935, 246.723 596.594, 248.010 589.779, 255.328 588.138, 257.089 582.375, 263.972 579.813, 267.032 573.779, 275.006 571.644, 277.828 565.986, 286.073 563.660, 289.462 563.608, 289.547 563.018, 290.492 559.810, 295.633 559.119, 296.742 556.609, 300.764 555.957, 301.810 555.890, 301.918 555.017, 303.455 551.865, 309.002 550.297, 311.764 549.916, 312.434 548.362, 315.170 548.297, 315.296 543.700, 324.177 541.901, 327.653 541.103, 329.194 540.315, 330.866 537.374, 337.105 534.143, 343.958 530.201, 353.148 527.791, 358.767 527.508, 359.425 523.879, 368.743 521.226, 375.556 517.902, 384.987 515.322, 392.308 512.295, 401.839 509.820, 409.631 507.084, 419.249 504.745, 427.475 502.294, 437.170 500.116, 445.784 498.064, 455.014 495.956, 464.500 495.807, 465.268 493.914, 475.087 492.280, 483.561 490.660, 493.429 489.105, 502.905 488.492, 507.413 487.715, 513.127 487.517, 514.581 487.232, 516.675 486.987, 518.475 486.856, 519.443 486.769, 520.081 486.533, 521.815 486.445, 522.465 485.367, 532.407 484.309, 542.174 483.502, 552.142 482.707, 561.965 482.171, 571.951 481.644, 581.768 481.381, 591.765 481.124, 601.515 481.135, 611.515 481.146, 621.138 481.436, 631.134 481.709, 640.569 481.740, 641.121 482.312, 651.105 482.681, 657.543 482.807, 659.743 483.667, 669.706 483.894, 672.341 484.434, 678.596 485.587, 688.529 486.579, 697.067 " fill="none" stroke="rgb(0, 0, 0)" stroke-linecap="butt" stroke-linejoin="round" stroke-opacity="1.0" stroke-width="3.0" />
            <path d=" M 678.757, 204.777 670.272, 206.183 661.705, 208.400 653.076, 211.445 644.405, 215.332 635.714, 220.073 627.310, 225.493 627.024, 225.678 619.013, 231.664 618.359, 232.153 610.751, 238.643 609.744, 239.502 602.542, 246.439 601.205, 247.727 594.404, 255.058 592.767, 256.823 586.362, 264.503 584.813, 266.359 584.458, 266.785 578.439, 274.771 576.304, 277.603 570.661, 285.858 568.335, 289.261 564.612, 295.252 564.046, 296.163 560.579, 301.742 559.770, 303.171 557.303, 307.530 555.727, 310.316 553.063, 315.023 550.681, 319.642 549.072, 322.762 545.816, 329.077 541.564, 338.128 538.866, 343.872 538.185, 345.466 534.255, 354.661 532.241, 359.374 528.623, 368.696 525.967, 375.541 522.653, 384.976 520.070, 392.330 518.088, 398.590 515.070, 408.124 514.574, 409.693 511.846, 419.314 509.503, 427.578 507.059, 437.274 504.879, 445.929 502.714, 455.692 500.720, 464.688 498.832, 474.508 497.046, 483.793 495.560, 492.869 493.944, 502.738 493.872, 503.181 493.233, 507.882 492.028, 516.758 491.858, 518.016 491.755, 518.772 491.653, 519.527 491.210, 522.787 491.073, 524.055 489.997, 533.997 489.073, 542.542 489.051, 542.812 488.244, 552.779 487.467, 562.378 487.422, 563.227 486.885, 573.213 486.400, 582.226 486.268, 587.229 486.002, 597.226 485.875, 602.018 485.883, 612.080 485.891, 621.685 486.176, 631.681 486.446, 641.160 487.012, 651.144 487.453, 658.917 487.536, 660.376 488.389, 670.339 488.754, 674.598 489.154, 679.270 489.622, 683.334 490.368, 689.796 490.453, 690.533 491.288, 697.780 492.734, 707.675 493.148, 710.508 493.496, 712.886 493.929, 715.848 495.683, 725.692 496.089, 727.968 497.060, 733.417 499.132, 743.199 500.665, 750.435 503.067, 760.142 504.728, 766.854 507.470, 776.471 508.398, 779.724 509.226, 782.630 509.837, 784.504 512.933, 794.012 514.140, 797.721 516.906, 805.210 518.038, 808.275 519.447, 812.092 522.985, 820.579 524.090, 823.230 525.123, 825.710 525.303, 826.093 528.419, 832.737 531.143, 838.547 535.805, 847.394 537.484, 850.581 542.576, 859.187 544.118, 861.791 549.658, 870.116 551.020, 872.163 557.022, 880.162 558.165, 881.686 564.640, 889.307 565.527, 890.351 572.481, 897.536 573.079, 898.155 580.515, 904.842 580.798, 905.097 588.658, 911.180 596.636, 916.410 604.707, 920.795 612.850, 924.346 621.043, 927.075 " fill="none" stroke="rgb(0, 0, 0)" stroke-linecap="butt" stroke-linejoin="round" stroke-opacity="1.0" stroke-width="3.0" />
            <path d=" M 729.384, 518.263 728.506, 518.415 727.625, 518.791 726.757, 519.385 725.916, 520.188 725.792, 520.351 725.151, 521.188 724.477, 522.369 723.873, 523.709 723.349, 525.186 722.914, 526.774 722.678, 527.939 722.575, 528.447 722.339, 530.175 722.333, 530.255 722.210, 531.928 722.189, 533.677 722.278, 535.391 " fill="none" stroke="rgb(0, 0, 0)" stroke-linecap="butt" stroke-linejoin="round" stroke-opacity="1.0" stroke-width="3.0" />
            <path d=" M 728.756, 528.322 729.016, 528.352 729.266, 528.473 729.499, 528.681 729.708, 528.970 729.887, 529.334 730.032, 529.761 730.139, 530.240 730.204, 530.758 " fill="none" stroke="rgb(0, 0, 0)" stroke-linecap="butt" stroke-linejoin="round" stroke-opacity="1.0" stroke-width="3.0" />
            <path d=" M 727.189, 530.565 730.204, 530.758 738.837, 525.711 747.470, 520.664 755.429, 516.011 " fill="none" stroke="rgb(0, 0, 0)" stroke-linecap="butt" stroke-linejoin="round" stroke-opacity="1.0" stroke-width="3.0" />
            <path d=" M 802.562, 522.548 801.726, 522.710 800.885, 523.102 800.054, 523.719 799.246, 524.550 799.127, 524.718 798.513, 525.585 797.869, 526.806 797.289, 528.192 796.784, 529.718 796.363, 531.358 796.133, 532.561 796.032, 533.085 795.798, 534.868 795.792, 534.951 795.665, 536.677 795.634, 538.481 795.707, 540.249 " fill="none" stroke="rgb(0, 0, 0)" stroke-linecap="butt" stroke-linejoin="round" stroke-opacity="1.0" stroke-width="3.0" />
            <path d=" M 801.873, 532.922 802.119, 532.952 802.354, 533.075 802.572, 533.288 802.768, 533.586 802.935, 533.959 803.069, 534.399 803.167, 534.892 803.225, 535.426 " fill="none" stroke="rgb(0, 0, 0)" stroke-linecap="butt" stroke-linejoin="round" stroke-opacity="1.0" stroke-width="3.0" />
            <path d=" M 778.835, 479.144 778.971, 479.067 779.119, 479.012 779.275, 478.982 779.436, 478.976 779.657, 479.008 779.873, 479.084 780.076, 479.201 780.258, 479.356 780.413, 479.542 780.536, 479.754 780.621, 479.988 780.663, 480.237 780.659, 480.470 780.612, 480.693 780.525, 480.896 780.400, 481.073 780.243, 481.218 780.056, 481.324 " fill="none" stroke="rgb(0, 0, 0)" stroke-linecap="butt" stroke-linejoin="round" stroke-opacity="1.0" stroke-width="3.0" />
            <path d=" M 778.835, 479.144 778.777, 479.185 778.603, 479.336 778.463, 479.518 778.433, 479.569 778.329, 479.784 778.270, 480.019 778.262, 480.269 778.302, 480.502 778.314, 480.558 778.401, 480.776 778.529, 480.971 778.694, 481.137 778.737, 481.174 778.924, 481.297 778.983, 481.323 779.178, 481.397 779.235, 481.412 779.306, 481.422 779.457, 481.438 779.499, 481.441 779.549, 481.442 779.600, 481.440 779.651, 481.436 779.699, 481.429 779.745, 481.421 779.785, 481.411 779.940, 481.369 780.005, 481.347 780.056, 481.324 " fill="none" stroke="rgb(0, 0, 0)" stroke-linecap="butt" stroke-linejoin="round" stroke-opacity="1.0" stroke-width="3.0" />
            <path d=" M 776.460, 477.040 776.910, 483.102 780.948, 483.274 782.594, 483.344 783.236, 482.819 782.296, 477.187 780.068, 477.028 776.890, 476.803 776.460, 477.040 " fill="none" stroke="rgb(0, 0, 0)" stroke-linecap="butt" stroke-linejoin="round" stroke-opacity="1.0" stroke-width="3.0" />
            <path d=" M 782.594, 483.344 782.150, 477.268 " fill="none" stroke="rgb(0, 0, 0)" stroke-linecap="butt" stroke-linejoin="round" stroke-opacity="1.0" stroke-width="3.0" />
            <path d=" M 782.296, 477.187 782.150, 477.268 776.460, 477.040 " fill="none" stroke="rgb(0, 0, 0)" stroke-linecap="butt" stroke-linejoin="round" stroke-opacity="1.0" stroke-width="3.0" />
            <path d=" M 741.311, 507.978 738.684, 507.986 728.687, 508.225 727.206, 508.260 717.215, 508.688 715.746, 508.751 705.764, 509.348 704.301, 509.436 694.328, 510.182 692.863, 510.292 682.902, 511.169 681.429, 511.298 671.478, 512.287 669.993, 512.435 660.052, 513.517 658.551, 513.681 648.618, 514.839 647.097, 515.016 637.171, 516.232 635.627, 516.422 625.706, 517.680 624.135, 517.879 614.217, 519.162 612.616, 519.369 602.700, 520.661 601.066, 520.873 591.149, 522.158 589.480, 522.375 579.560, 523.637 577.852, 523.855 578.168, 513.860 578.311, 509.340 578.512, 499.342 578.604, 494.783 578.690, 484.783 578.729, 480.202 578.701, 470.202 578.687, 465.617 578.543, 455.618 578.478, 451.046 578.218, 441.050 578.100, 436.508 577.723, 426.515 577.554, 422.022 577.059, 412.034 576.839, 407.608 576.751, 406.184 " fill="none" stroke="rgb(0, 0, 0)" stroke-linecap="butt" stroke-linejoin="round" stroke-opacity="1.0" stroke-width="3.0" />
            <path d=" M 582.375, 263.972 580.396, 262.033 573.712, 254.595 573.210, 254.036 566.985, 246.210 566.394, 245.468 560.626, 237.299 559.975, 236.377 554.659, 227.907 553.973, 226.813 549.105, 218.078 548.405, 216.821 547.973, 215.946 543.548, 206.978 543.285, 206.444 541.755, 202.924 541.608, 202.587 538.624, 195.722 " fill="none" stroke="rgb(0, 0, 0)" stroke-linecap="butt" stroke-linejoin="round" stroke-opacity="1.0" stroke-width="3.0" />
            <path d=" M 538.624, 195.722 537.760, 193.664 534.869, 186.773 530.957, 178.425 529.295, 175.271 526.894, 170.715 525.327, 168.096 522.685, 163.682 518.335, 157.366 517.913, 156.844 513.850, 151.811 513.690, 151.646 509.239, 147.056 504.509, 143.140 499.671, 140.108 499.661, 140.103 496.819, 138.889 494.735, 137.999 489.712, 136.852 484.617, 136.704 479.462, 137.594 474.264, 139.556 470.330, 141.862 469.401, 142.407 469.039, 142.619 464.129, 146.551 463.805, 146.810 458.583, 152.156 453.391, 158.675 452.942, 159.348 451.544, 161.442 448.252, 166.377 446.797, 168.931 443.187, 175.272 438.771, 184.244 438.221, 185.362 434.275, 194.550 433.378, 196.638 429.848, 205.994 428.682, 209.087 425.525, 218.575 424.157, 222.686 421.337, 232.280 419.830, 237.406 417.315, 247.085 415.725, 253.206 413.490, 262.953 411.865, 270.037 409.889, 279.839 408.276, 287.842 406.541, 297.690 404.980, 306.555 403.471, 316.441 401.997, 326.099 400.702, 336.015 399.407, 345.931 399.347, 346.391 398.257, 356.331 397.167, 366.272 397.050, 367.341 396.156, 377.301 395.261, 387.261 395.119, 388.852 394.414, 398.827 393.710, 408.803 393.567, 410.820 393.048, 420.807 392.529, 430.793 392.407, 433.136 392.433, 433.226 395.223, 442.829 398.012, 452.433 398.343, 453.573 398.833, 455.187 401.737, 464.756 404.351, 473.369 407.373, 482.902 410.432, 492.552 413.575, 502.045 416.589, 511.148 419.855, 520.599 422.822, 529.183 426.215, 538.590 429.134, 546.682 432.656, 556.041 435.526, 563.668 439.180, 572.976 442.001, 580.163 445.788, 589.419 448.560, 596.191 452.483, 605.389 455.204, 611.772 459.265, 620.910 461.937, 626.926 466.137, 636.001 468.760, 641.672 473.100, 650.682 475.676, 656.031 480.155, 664.972 482.685, 670.020 483.894, 672.341 " fill="none" stroke="rgb(0, 0, 0)" stroke-linecap="butt" stroke-linejoin="round" stroke-opacity="1.0" stroke-width="3.0" />
            <path d=" M 480.619, 636.375 481.740, 641.121 " fill="none" stroke="rgb(0, 0, 0)" stroke-linecap="butt" stroke-linejoin="round" stroke-opacity="1.0" stroke-width="3.0" />
            <path d=" M 481.529, 653.311 482.681, 657.543 " fill="none" stroke="rgb(0, 0, 0)" stroke-linecap="butt" stroke-linejoin="round" stroke-opacity="1.0" stroke-width="3.0" />
            <path d=" M 362.952, 424.325 358.368, 433.213 355.858, 438.078 " fill="none" stroke="rgb(0, 0, 0)" stroke-linecap="butt" stroke-linejoin="round" stroke-opacity="1.0" stroke-width="3.0" />
            <path d=" M 470.330, 141.862 466.811, 142.076 " fill="none" stroke="rgb(0, 0, 0)" stroke-linecap="butt" stroke-linejoin="round" stroke-opacity="1.0" stroke-width="3.0" />
            <path d=" M 536.976, 500.343 541.074, 500.517 535.804, 504.459 " fill="none" stroke="rgb(0, 0, 0)" stroke-linecap="butt" stroke-linejoin="round" stroke-opacity="1.0" stroke-width="3.0" />
            <path d=" M 790.912, 539.932 791.100, 546.169 " fill="none" stroke="rgb(0, 0, 0)" stroke-linecap="butt" stroke-linejoin="round" stroke-opacity="1.0" stroke-width="3.0" />
            <path d=" M 794.781, 522.093 794.608, 519.151 " fill="none" stroke="rgb(0, 0, 0)" stroke-linecap="butt" stroke-linejoin="round" stroke-opacity="1.0" stroke-width="3.0" />
            <path d=" M 800.268, 520.637 800.211, 519.661 " fill="none" stroke="rgb(0, 0, 0)" stroke-linecap="butt" stroke-linejoin="round" stroke-opacity="1.0" stroke-width="3.0" />
            <path d=" M 801.417, 519.898 801.410, 519.770 " fill="none" stroke="rgb(0, 0, 0)" stroke-linecap="butt" stroke-linejoin="round" stroke-opacity="1.0" stroke-width="3.0" />
        </g>
    </g>
</svg>
