<?xml version='1.0' encoding='ascii'?>
<svg xmlns="http://www.w3.org/2000/svg" height="1080" version="1.1" width="1080">
    <g id="View Layer_LineSet" inkscape:groupmode="lineset" inkscape:label="View Layer_LineSet" xmlns:inkscape="http://www.inkscape.org/namespaces/inkscape">
        <g id="strokes" inkscape:groupmode="layer" inkscape:label="strokes" xmlns:inkscape="http://www.inkscape.org/namespaces/inkscape">
            <path d=" M 565.426, 508.053 565.383, 508.658 " fill="none" stroke="rgb(0, 0, 0)" stroke-linecap="butt" stroke-linejoin="round" stroke-opacity="1.0" stroke-width="3.0" />
            <path d=" M 355.518, 445.299 361.927, 444.010 " fill="none" stroke="rgb(0, 0, 0)" stroke-linecap="butt" stroke-linejoin="round" stroke-opacity="1.0" stroke-width="3.0" />
            <path d=" M 379.857, 444.155 389.785, 445.352 391.839, 445.599 " fill="none" stroke="rgb(0, 0, 0)" stroke-linecap="butt" stroke-linejoin="round" stroke-opacity="1.0" stroke-width="3.0" />
            <path d=" M 391.839, 445.599 388.070, 436.337 384.300, 427.075 383.593, 425.340 " fill="none" stroke="rgb(0, 0, 0)" stroke-linecap="butt" stroke-linejoin="round" stroke-opacity="1.0" stroke-width="3.0" />
            <path d=" M 465.905, 144.660 461.384, 145.368 456.812, 147.175 452.204, 150.111 447.574, 154.206 442.939, 159.489 439.273, 164.640 438.350, 165.936 438.319, 165.980 433.733, 173.693 429.199, 182.637 425.188, 191.797 424.741, 192.818 421.171, 202.159 420.380, 204.227 417.195, 213.707 416.138, 216.851 413.293, 226.438 412.038, 230.668 409.498, 240.340 408.105, 245.647 405.839, 255.387 404.360, 261.745 402.343, 271.540 400.826, 278.911 399.039, 288.750 397.526, 297.085 395.953, 306.960 394.481, 316.197 393.107, 326.102 391.711, 336.166 390.525, 346.095 389.339, 356.024 389.234, 356.903 388.227, 366.852 387.220, 376.802 387.067, 378.314 386.232, 388.279 385.396, 398.244 385.225, 400.295 384.555, 410.273 383.886, 420.250 383.719, 422.736 383.593, 425.340 381.645, 435.148 379.857, 444.155 " fill="none" stroke="rgb(0, 0, 0)" stroke-linecap="butt" stroke-linejoin="round" stroke-opacity="1.0" stroke-width="3.0" />
            <path d=" M 527.906, 720.344 528.392, 718.036 530.284, 708.217 530.723, 705.939 532.463, 696.092 532.921, 693.503 534.518, 683.631 534.983, 680.752 536.445, 670.860 536.910, 667.713 538.246, 657.803 538.702, 654.412 539.335, 649.242 540.359, 640.873 541.459, 630.934 541.882, 627.120 542.871, 617.169 543.269, 613.173 544.153, 603.212 544.521, 599.057 545.303, 589.088 545.640, 584.792 546.322, 574.815 546.624, 570.397 547.209, 560.415 547.474, 555.895 547.964, 545.907 548.190, 541.303 548.587, 531.311 548.773, 526.643 555.335, 526.653 557.183, 526.656 557.305, 526.657 559.090, 526.660 562.663, 526.665 563.509, 526.667 564.451, 526.668 567.025, 526.672 577.025, 526.689 577.752, 526.690 578.052, 516.694 578.195, 511.911 578.377, 501.913 578.465, 497.095 578.531, 487.096 578.562, 482.262 578.511, 472.262 578.486, 467.431 578.318, 457.433 578.236, 452.623 577.949, 442.627 577.812, 437.856 577.406, 427.864 577.214, 423.152 576.686, 413.166 576.441, 408.531 576.159, 404.232 " fill="none" stroke="rgb(0, 0, 0)" stroke-linecap="butt" stroke-linejoin="round" stroke-opacity="1.0" stroke-width="3.0" />
            <path d=" M 573.245, 409.329 573.430, 412.142 573.964, 422.128 574.178, 426.143 574.589, 436.134 574.757, 440.227 575.047, 450.223 575.168, 454.376 575.338, 464.374 575.410, 468.567 575.463, 478.567 575.485, 482.781 575.419, 492.781 575.392, 496.998 575.209, 506.996 575.132, 511.199 575.099, 512.291 575.003, 512.943 574.900, 513.554 574.790, 514.122 574.674, 514.643 574.552, 515.115 574.425, 515.534 574.294, 515.900 574.159, 516.209 574.022, 516.460 573.882, 516.651 573.742, 516.783 573.601, 516.853 573.460, 516.861 573.320, 516.808 569.358, 514.406 569.216, 513.112 569.044, 511.950 568.846, 510.942 568.625, 510.103 568.383, 509.450 568.125, 508.992 567.855, 508.738 567.578, 508.694 567.426, 508.691 565.413, 508.659 565.383, 508.658 564.875, 508.650 563.911, 508.635 563.088, 508.621 559.518, 508.564 557.734, 508.535 557.646, 508.534 557.189, 508.526 556.899, 508.692 556.612, 509.066 556.331, 509.642 556.063, 510.412 555.811, 511.362 555.725, 511.779 555.580, 512.478 555.375, 513.739 555.197, 515.125 555.052, 516.612 554.940, 518.175 554.865, 519.787 555.535, 520.157 556.526, 520.706 557.365, 520.720 557.463, 520.722 557.631, 520.725 559.247, 520.754 562.818, 520.817 563.651, 520.832 564.604, 520.849 565.059, 520.857 566.930, 520.890 566.955, 520.381 566.993, 519.894 567.044, 519.443 567.107, 519.040 567.179, 518.696 567.217, 518.562 567.259, 518.420 567.344, 518.220 567.432, 518.101 567.521, 518.067 " fill="none" stroke="rgb(0, 0, 0)" stroke-linecap="butt" stroke-linejoin="round" stroke-opacity="1.0" stroke-width="3.0" />
            <path d=" M 567.984, 521.496 574.706, 525.363 577.752, 526.690 " fill="none" stroke="rgb(0, 0, 0)" stroke-linecap="butt" stroke-linejoin="round" stroke-opacity="1.0" stroke-width="3.0" />
            <path d=" M 389.697, 210.376 387.488, 217.540 384.853, 227.187 383.755, 231.205 381.394, 240.922 380.152, 246.035 378.038, 255.809 376.701, 261.991 374.809, 271.810 373.420, 279.023 371.733, 288.880 370.330, 297.077 368.832, 306.964 367.450, 316.086 366.128, 325.998 364.798, 335.970 363.642, 345.903 362.487, 355.836 362.392, 356.646 361.394, 366.596 360.396, 376.546 360.248, 378.022 359.401, 387.986 358.554, 397.950 358.380, 399.995 357.678, 409.970 356.976, 419.945 356.800, 422.458 356.240, 432.442 355.679, 442.427 355.518, 445.299 355.143, 455.292 354.768, 465.285 354.652, 468.361 354.436, 478.358 354.220, 488.356 354.151, 491.538 354.094, 501.538 354.036, 511.538 354.018, 514.710 354.120, 524.709 354.221, 534.709 354.252, 537.754 354.516, 547.750 354.780, 557.747 354.854, 560.549 355.282, 570.540 355.711, 580.531 355.816, 582.980 356.415, 592.962 357.013, 602.944 357.133, 604.934 357.908, 614.904 358.683, 624.874 358.794, 626.303 359.754, 636.257 360.714, 646.211 360.789, 646.988 361.943, 656.922 363.102, 666.897 364.463, 676.804 365.719, 685.945 367.302, 695.819 368.622, 704.056 369.961, 711.282 " fill="none" stroke="rgb(0, 0, 0)" stroke-linecap="butt" stroke-linejoin="round" stroke-opacity="1.0" stroke-width="3.0" />
            <path d=" M 493.707, 738.338 492.998, 740.835 490.031, 750.385 489.928, 750.716 486.725, 760.109 483.390, 768.983 479.929, 777.304 476.344, 785.038 472.640, 792.148 468.823, 798.599 464.898, 804.355 460.873, 809.377 456.753, 813.627 454.402, 815.551 " fill="none" stroke="rgb(0, 0, 0)" stroke-linecap="butt" stroke-linejoin="round" stroke-opacity="1.0" stroke-width="3.0" />
            <path d=" M 392.093, 440.467 391.839, 445.599 391.484, 455.593 391.129, 465.587 391.022, 468.605 390.827, 478.603 390.633, 488.601 390.572, 491.727 390.537, 501.726 390.502, 511.726 390.491, 514.843 390.616, 524.842 390.741, 534.841 390.779, 537.833 391.066, 547.829 391.353, 557.825 391.432, 560.578 391.882, 570.568 392.333, 580.558 392.442, 582.963 393.060, 592.944 393.678, 602.924 393.799, 604.874 394.590, 614.843 395.381, 624.811 395.492, 626.206 396.462, 636.159 397.433, 646.111 397.506, 646.858 398.664, 656.791 399.823, 666.739 401.179, 676.647 402.426, 685.765 403.992, 695.642 405.295, 703.859 407.087, 713.697 408.409, 720.955 410.446, 730.746 411.746, 736.998 414.051, 746.729 415.285, 751.939 417.886, 761.595 419.002, 765.739 421.934, 775.299 422.875, 778.369 426.181, 787.807 426.883, 789.812 430.615, 799.089 431.003, 800.052 435.214, 809.085 439.496, 816.915 442.572, 821.626 442.875, 822.091 443.829, 823.553 448.196, 829.011 452.578, 833.311 456.959, 836.479 461.324, 838.543 465.659, 839.533 469.950, 839.487 474.185, 838.443 478.356, 836.436 482.451, 833.507 486.461, 829.697 487.840, 828.060 490.379, 825.048 494.198, 819.599 497.911, 813.391 501.514, 806.467 505.002, 798.863 508.005, 791.514 " fill="none" stroke="rgb(0, 0, 0)" stroke-linecap="butt" stroke-linejoin="round" stroke-opacity="1.0" stroke-width="3.0" />
            <path d=" M 469.610, 821.386 465.570, 821.224 463.262, 820.575 461.505, 820.081 457.426, 817.923 454.402, 815.551 453.348, 814.724 449.284, 810.461 445.250, 805.111 441.262, 798.657 437.338, 791.088 433.494, 782.399 429.928, 773.057 429.749, 772.589 426.599, 763.098 426.123, 761.662 423.335, 752.058 422.632, 749.635 420.166, 739.944 419.297, 736.528 417.119, 726.768 416.137, 722.368 414.219, 712.554 413.171, 707.194 411.489, 697.336 410.416, 691.051 408.952, 681.159 407.891, 673.993 406.630, 664.072 405.614, 656.080 404.542, 646.137 403.598, 637.384 402.705, 627.424 401.859, 617.983 401.137, 608.009 400.409, 597.962 399.851, 587.978 399.293, 577.993 399.261, 577.412 398.861, 567.420 398.462, 557.428 398.422, 556.430 398.176, 546.433 397.931, 536.436 397.899, 535.120 397.806, 525.120 397.712, 515.121 397.698, 513.586 397.755, 503.586 397.812, 493.587 397.821, 491.938 398.028, 481.940 398.234, 471.942 398.268, 470.285 398.575, 461.693 " fill="none" stroke="rgb(0, 0, 0)" stroke-linecap="butt" stroke-linejoin="round" stroke-opacity="1.0" stroke-width="3.0" />
            <path d=" M 504.624, 780.893 503.138, 784.393 499.759, 791.480 496.279, 797.909 492.702, 803.644 489.035, 808.648 485.285, 812.881 481.458, 816.309 477.564, 818.894 473.611, 820.598 469.610, 821.386 " fill="none" stroke="rgb(0, 0, 0)" stroke-linecap="butt" stroke-linejoin="round" stroke-opacity="1.0" stroke-width="3.0" />
            <path d=" M 546.237, 525.335 545.835, 535.327 545.672, 539.382 545.171, 549.370 544.971, 553.361 544.369, 563.343 544.133, 567.251 543.428, 577.226 543.159, 581.032 542.349, 590.999 542.050, 594.685 541.132, 604.642 540.805, 608.188 539.776, 618.134 539.426, 621.520 538.281, 631.455 537.912, 634.661 536.647, 644.580 536.264, 647.586 534.874, 657.489 534.483, 660.274 533.139, 669.000 532.569, 672.701 530.907, 682.562 530.523, 684.841 528.714, 694.676 528.347, 696.669 526.379, 706.474 526.041, 708.160 525.734, 709.565 " fill="none" stroke="rgb(0, 0, 0)" stroke-linecap="butt" stroke-linejoin="round" stroke-opacity="1.0" stroke-width="3.0" />
            <path d=" M 548.773, 526.643 546.237, 525.335 555.375, 525.344 557.223, 525.346 562.703, 525.351 564.491, 525.353 564.920, 525.354 564.498, 525.120 563.565, 524.603 562.740, 524.146 559.215, 522.194 557.621, 521.312 557.631, 520.797 557.631, 520.725 " fill="none" stroke="rgb(0, 0, 0)" stroke-linecap="butt" stroke-linejoin="round" stroke-opacity="1.0" stroke-width="3.0" />
            <path d=" M 379.857, 444.155 379.494, 454.149 379.130, 464.142 378.986, 468.105 378.781, 478.103 378.576, 488.101 378.492, 492.177 378.444, 502.177 378.395, 512.176 378.375, 516.241 378.485, 526.241 378.594, 536.240 378.637, 540.170 378.906, 550.167 379.175, 560.163 379.273, 563.837 379.705, 573.828 380.136, 583.819 380.278, 587.119 380.876, 597.101 381.474, 607.083 381.642, 609.898 382.413, 619.868 383.183, 629.838 383.355, 632.060 384.305, 642.015 385.256, 651.970 385.402, 653.501 386.541, 663.436 387.681, 673.371 387.767, 674.124 389.106, 684.034 390.432, 693.842 391.986, 703.720 393.379, 712.573 395.164, 722.413 396.586, 730.251 398.622, 740.042 400.032, 746.818 402.344, 756.547 403.694, 762.224 406.313, 771.875 407.549, 776.431 410.512, 785.982 411.575, 789.410 414.926, 798.832 415.749, 801.144 419.545, 810.395 420.047, 811.620 424.358, 820.643 424.450, 820.835 428.933, 828.796 433.479, 835.516 438.066, 841.010 442.676, 845.303 447.293, 848.423 451.899, 850.403 456.479, 851.275 461.020, 851.079 465.508, 849.857 469.932, 847.646 474.282, 844.490 478.546, 840.433 482.718, 835.518 " fill="none" stroke="rgb(0, 0, 0)" stroke-linecap="butt" stroke-linejoin="round" stroke-opacity="1.0" stroke-width="3.0" />
            <path d=" M 482.718, 835.518 488.623, 827.448 490.379, 825.048 " fill="none" stroke="rgb(0, 0, 0)" stroke-linecap="butt" stroke-linejoin="round" stroke-opacity="1.0" stroke-width="3.0" />
            <path d=" M 539.242, 550.442 529.251, 550.863 527.802, 550.925 525.649, 546.910 " fill="none" stroke="rgb(0, 0, 0)" stroke-linecap="butt" stroke-linejoin="round" stroke-opacity="1.0" stroke-width="3.0" />
            <path d=" M 541.046, 500.038 540.846, 510.036 540.645, 520.034 540.539, 525.329 540.089, 535.319 539.905, 539.385 539.307, 549.367 539.242, 550.442 534.668, 541.550 530.894, 534.215 530.639, 533.720 530.385, 533.224 530.129, 532.728 529.875, 532.231 529.583, 531.529 529.314, 530.616 529.073, 529.509 529.019, 529.167 " fill="none" stroke="rgb(0, 0, 0)" stroke-linecap="butt" stroke-linejoin="round" stroke-opacity="1.0" stroke-width="3.0" />
            <path d=" M 530.880, 523.657 530.756, 523.596 530.638, 523.401 530.533, 523.080 530.445, 522.648 530.437, 522.581 " fill="none" stroke="rgb(0, 0, 0)" stroke-linecap="butt" stroke-linejoin="round" stroke-opacity="1.0" stroke-width="3.0" />
            <path d=" M 531.370, 518.244 531.412, 518.451 531.479, 518.973 531.521, 519.564 531.537, 520.199 531.527, 520.848 531.491, 521.484 531.430, 522.079 531.347, 522.608 531.246, 523.047 531.131, 523.377 531.008, 523.583 530.880, 523.657 " fill="none" stroke="rgb(0, 0, 0)" stroke-linecap="butt" stroke-linejoin="round" stroke-opacity="1.0" stroke-width="3.0" />
            <path d=" M 364.758, 397.236 364.555, 399.747 363.891, 409.725 363.227, 419.703 363.091, 421.733 362.581, 431.503 362.059, 441.490 361.927, 444.010 361.544, 454.003 361.162, 463.995 361.066, 466.490 360.822, 476.487 360.578, 486.484 360.515, 489.082 360.408, 499.082 360.302, 509.081 360.274, 511.698 360.286, 515.294 " fill="none" stroke="rgb(0, 0, 0)" stroke-linecap="butt" stroke-linejoin="round" stroke-opacity="1.0" stroke-width="3.0" />
            <path d=" M 534.223, 745.526 535.597, 738.633 537.422, 728.801 537.742, 727.072 539.445, 717.218 539.780, 715.274 541.366, 705.400 541.710, 703.257 543.185, 693.366 543.532, 691.037 544.900, 681.131 545.246, 678.630 546.512, 668.710 546.851, 666.050 548.019, 656.118 548.349, 653.313 549.421, 643.370 549.738, 640.431 550.718, 630.479 551.019, 627.419 551.910, 617.459 552.193, 614.290 552.995, 604.322 553.258, 601.056 553.975, 591.082 554.216, 587.729 554.848, 577.749 555.065, 574.322 555.615, 564.338 555.807, 560.847 556.275, 550.857 556.440, 547.313 556.827, 537.321 556.966, 533.734 557.183, 526.656 " fill="none" stroke="rgb(0, 0, 0)" stroke-linecap="butt" stroke-linejoin="round" stroke-opacity="1.0" stroke-width="3.0" />
            <path d=" M 461.039, 888.874 463.445, 889.032 467.547, 888.524 471.603, 887.220 475.606, 885.150 479.549, 882.343 483.426, 878.830 487.232, 874.643 490.961, 869.809 494.609, 864.360 498.172, 858.325 501.646, 851.733 505.028, 844.612 508.316, 836.989 511.506, 828.890 514.598, 820.343 516.586, 814.381 " fill="none" stroke="rgb(0, 0, 0)" stroke-linecap="butt" stroke-linejoin="round" stroke-opacity="1.0" stroke-width="3.0" />
            <path d=" M 518.144, 159.479 517.653, 158.127 514.533, 150.323 511.300, 143.033 507.957, 136.284 504.507, 130.107 500.953, 124.532 497.298, 119.590 493.546, 115.314 489.702, 111.734 485.771, 108.882 481.758, 106.791 477.671, 105.491 473.516, 105.013 471.709, 105.174 469.301, 105.389 465.034, 106.645 460.726, 108.811 456.385, 111.911 452.024, 115.970 447.654, 121.008 443.287, 127.044 438.936, 134.092 434.615, 142.165 432.520, 146.625 430.339, 151.267 426.499, 160.501 426.124, 161.403 425.330, 163.543 421.984, 172.570 418.832, 182.060 417.935, 184.759 415.075, 194.341 413.995, 197.958 411.399, 207.615 410.180, 212.147 407.824, 221.865 406.506, 227.301 404.371, 237.070 402.991, 243.387 401.061, 253.199 399.650, 260.369 397.911, 270.217 396.500, 278.201 394.940, 288.079 393.557, 296.833 392.165, 306.736 390.835, 316.207 389.604, 326.131 388.373, 336.055 388.348, 336.260 387.271, 346.202 386.194, 356.144 386.110, 356.925 385.181, 366.882 384.252, 376.839 384.132, 378.127 383.346, 388.096 382.560, 398.065 382.424, 399.788 381.778, 409.767 381.131, 419.746 380.997, 421.826 380.487, 431.813 379.977, 441.800 379.857, 444.155 379.481, 454.148 379.106, 464.141 379.010, 466.688 378.767, 476.685 378.525, 486.682 378.461, 489.334 378.351, 499.333 378.241, 509.333 378.211, 512.003 378.234, 522.003 378.256, 532.003 378.262, 534.604 378.418, 544.602 378.574, 554.601 378.612, 557.047 378.903, 567.042 379.194, 577.038 379.259, 579.243 379.687, 589.234 380.116, 599.224 380.197, 601.106 380.766, 611.090 381.335, 621.074 381.420, 622.555 382.134, 632.529 382.848, 642.504 382.920, 643.508 383.784, 653.471 384.648, 663.433 384.688, 663.893 385.708, 673.841 386.713, 683.638 387.897, 693.568 388.984, 702.681 390.340, 712.588 391.487, 720.961 393.026, 730.842 394.208, 738.428 395.943, 748.277 397.134, 755.035 399.079, 764.844 400.248, 770.742 402.421, 780.503 403.537, 785.515 405.957, 795.217 406.983, 799.327 409.676, 808.957 410.571, 812.157 413.567, 821.697 414.286, 823.988 417.618, 833.417 418.111, 834.812 421.822, 844.098 422.032, 844.624 426.033, 853.423 430.100, 861.215 434.219, 868.008 438.375, 873.815 442.558, 878.652 446.753, 882.538 450.950, 885.494 455.137, 887.545 459.305, 888.715 461.172, 888.858 463.445, 889.032 " fill="none" stroke="rgb(0, 0, 0)" stroke-linecap="butt" stroke-linejoin="round" stroke-opacity="1.0" stroke-width="3.0" />
            <path d=" M 471.068, 105.101 466.826, 105.477 462.533, 106.734 458.197, 108.900 453.830, 112.001 449.441, 116.059 445.044, 121.097 440.649, 127.132 436.272, 134.178 431.925, 142.249 429.676, 147.006 427.623, 151.349 423.762, 160.574 423.382, 161.482 419.887, 170.851 419.218, 172.645 419.109, 172.969 415.940, 182.454 415.145, 184.831 412.269, 194.408 411.182, 198.025 408.571, 207.678 407.345, 212.210 404.975, 221.925 403.650, 227.358 401.503, 237.125 400.115, 243.440 398.173, 253.249 396.755, 260.415 395.006, 270.261 393.588, 278.241 392.019, 288.117 390.629, 296.866 389.230, 306.767 387.892, 316.232 386.655, 326.155 385.392, 336.278 384.310, 346.220 383.227, 356.161 383.143, 356.935 382.209, 366.891 381.275, 376.848 381.155, 378.129 380.366, 388.097 379.576, 398.066 379.440, 399.781 378.791, 409.760 378.141, 419.739 378.007, 421.810 377.495, 431.797 376.983, 441.784 376.862, 444.131 376.486, 454.124 376.109, 464.117 376.013, 466.655 375.771, 476.652 375.528, 486.649 375.464, 489.292 375.354, 499.291 375.245, 509.291 375.216, 511.952 375.240, 521.952 375.264, 531.952 375.270, 534.544 375.428, 544.543 375.587, 554.542 375.625, 556.978 375.920, 566.974 376.214, 576.970 376.279, 579.166 376.712, 589.157 377.144, 599.147 377.226, 601.021 377.800, 611.005 378.374, 620.988 378.459, 622.462 379.179, 632.436 379.900, 642.410 379.972, 643.407 380.843, 653.369 381.714, 663.331 381.753, 663.785 382.782, 673.732 383.794, 683.523 384.987, 693.452 386.081, 702.559 387.448, 712.465 388.602, 720.834 390.153, 730.713 391.343, 738.295 393.091, 748.141 394.289, 754.897 396.248, 764.703 397.426, 770.599 399.613, 780.356 400.737, 785.368 403.174, 795.066 404.207, 799.176 406.918, 808.801 407.819, 812.002 410.834, 821.537 411.559, 823.831 413.558, 829.448 413.867, 830.317 415.410, 834.653 419.143, 843.930 419.357, 844.463 423.385, 853.260 427.479, 861.051 431.624, 867.844 435.808, 873.651 440.018, 878.488 444.240, 882.375 448.464, 885.332 452.679, 887.384 456.874, 888.556 461.039, 888.874 " fill="none" stroke="rgb(0, 0, 0)" stroke-linecap="butt" stroke-linejoin="round" stroke-opacity="1.0" stroke-width="3.0" />
            <path d=" M 473.516, 105.013 471.068, 105.101 " fill="none" stroke="rgb(0, 0, 0)" stroke-linecap="butt" stroke-linejoin="round" stroke-opacity="1.0" stroke-width="3.0" />
            <path d=" M 540.318, 764.333 541.864, 756.335 543.637, 746.494 544.100, 743.925 545.755, 734.063 546.222, 731.281 547.766, 721.401 548.231, 718.421 549.667, 708.524 550.126, 705.360 551.460, 695.450 551.909, 692.116 553.143, 682.192 553.578, 678.703 554.717, 668.768 555.134, 665.135 556.182, 655.190 556.578, 651.426 557.536, 641.472 557.909, 637.590 558.780, 627.628 559.129, 623.640 559.915, 613.671 560.237, 609.588 560.939, 599.613 561.232, 595.447 561.853, 585.466 562.117, 581.227 562.657, 571.241 562.889, 566.940 563.350, 556.951 563.550, 552.598 563.932, 542.605 564.100, 538.211 564.404, 528.216 564.451, 526.668 " fill="none" stroke="rgb(0, 0, 0)" stroke-linecap="butt" stroke-linejoin="round" stroke-opacity="1.0" stroke-width="3.0" />
            <path d=" M 458.761, 923.157 461.160, 923.325 465.604, 923.239 470.001, 922.270 474.341, 920.451 478.617, 917.817 482.822, 914.404 486.949, 910.246 490.994, 905.378 494.951, 899.834 498.816, 893.648 502.586, 886.854 506.256, 879.482 509.824, 871.564 513.288, 863.131 516.645, 854.211 519.894, 844.833 522.942, 835.308 523.033, 835.023 524.098, 831.431 " fill="none" stroke="rgb(0, 0, 0)" stroke-linecap="butt" stroke-linejoin="round" stroke-opacity="1.0" stroke-width="3.0" />
            <path d=" M 541.741, 204.573 540.392, 198.112 540.293, 197.677 538.086, 187.924 537.868, 186.963 535.483, 177.252 535.218, 176.174 532.639, 166.512 532.441, 165.769 529.651, 156.166 529.538, 155.776 526.508, 146.223 523.354, 137.137 520.074, 128.550 516.673, 120.493 513.149, 112.997 509.507, 106.096 505.749, 99.823 501.878, 94.214 497.897, 89.304 493.811, 85.130 489.625, 81.727 485.344, 79.133 480.975, 77.384 476.526, 76.517 472.004, 76.566 471.668, 76.639 467.418, 77.567 462.779, 79.553 458.095, 82.556 453.381, 86.605 448.647, 91.727 443.907, 97.946 439.177, 105.283 434.470, 113.753 430.104, 122.750 429.804, 123.369 428.689, 125.972 425.195, 134.135 423.747, 137.940 420.660, 146.055 418.165, 153.394 416.219, 159.122 413.303, 168.687 411.889, 173.324 409.245, 182.969 407.689, 188.644 405.294, 198.353 403.640, 205.055 402.504, 210.166 400.336, 219.928 399.759, 222.524 397.800, 232.330 396.066, 241.011 394.303, 250.854 392.581, 260.466 391.000, 270.340 389.419, 280.214 389.320, 280.833 387.911, 290.733 386.502, 300.633 386.301, 302.049 385.056, 311.971 383.811, 321.893 383.541, 324.042 382.452, 333.983 381.363, 343.923 381.055, 346.736 380.117, 356.691 379.178, 366.647 378.858, 370.045 378.064, 380.013 377.271, 389.982 376.960, 393.880 376.308, 403.859 375.656, 413.838 375.374, 418.147 374.861, 428.134 374.347, 438.121 374.109, 442.747 373.731, 452.740 373.353, 462.733 373.170, 467.578 372.927, 477.575 372.684, 487.572 372.563, 492.536 372.455, 502.536 372.346, 512.535 372.291, 517.517 372.317, 527.517 372.342, 537.517 372.355, 542.414 372.516, 552.413 372.677, 562.411 372.752, 567.124 373.050, 577.120 373.348, 587.115 373.480, 591.545 373.917, 601.535 374.355, 611.526 374.532, 615.577 375.113, 625.560 375.693, 635.543 375.902, 639.125 376.630, 649.099 377.357, 659.072 377.578, 662.100 378.459, 672.061 379.340, 682.022 379.552, 684.415 380.592, 694.361 381.632, 704.307 381.808, 705.993 383.016, 715.920 384.224, 725.846 384.335, 726.760 385.719, 736.664 387.116, 746.653 388.689, 756.529 390.135, 765.613 391.909, 775.454 393.376, 783.590 393.588, 784.634 395.579, 794.433 396.820, 800.542 398.052, 805.934 400.279, 815.683 400.451, 816.433 402.936, 826.120 404.249, 831.237 406.033, 837.424 408.197, 844.931 411.284, 854.443 411.331, 854.588 412.277, 857.503 415.718, 866.893 416.470, 868.946 420.312, 878.179 420.761, 879.257 425.057, 888.288 425.130, 888.442 429.564, 896.510 434.045, 903.474 438.559, 909.353 443.092, 914.168 447.630, 917.945 452.162, 920.709 456.675, 922.492 460.118, 923.131 461.160, 923.325 " fill="none" stroke="rgb(0, 0, 0)" stroke-linecap="butt" stroke-linejoin="round" stroke-opacity="1.0" stroke-width="3.0" />
            <path d=" M 365.266, 390.373 364.983, 393.862 364.758, 397.236 364.094, 407.214 363.430, 417.192 363.371, 418.091 362.848, 428.078 362.679, 431.310 362.157, 441.297 362.087, 442.652 362.059, 443.366 361.677, 453.359 361.294, 463.351 361.138, 467.444 360.894, 477.441 360.650, 487.438 360.590, 489.864 360.529, 492.363 360.423, 502.362 360.317, 512.362 360.286, 515.294 360.264, 517.304 360.296, 527.304 360.327, 537.304 360.342, 542.162 360.408, 546.019 " fill="none" stroke="rgb(0, 0, 0)" stroke-linecap="butt" stroke-linejoin="round" stroke-opacity="1.0" stroke-width="3.0" />
            <path d=" M 469.561, 76.663 464.946, 77.665 460.277, 79.651 455.564, 82.654 450.820, 86.703 446.057, 91.825 441.288, 98.043 436.529, 105.378 431.794, 113.847 427.406, 122.832 427.099, 123.460 423.143, 132.644 422.463, 134.224 420.845, 138.451 417.902, 146.140 414.666, 155.602 413.778, 158.196 413.434, 159.203 413.145, 160.144 410.213, 169.705 409.079, 173.401 406.420, 183.041 404.855, 188.716 402.446, 198.421 400.783, 205.121 398.602, 214.880 396.880, 222.584 394.910, 232.388 393.632, 238.747 393.167, 241.064 391.393, 250.906 389.662, 260.512 388.072, 270.385 386.482, 280.258 386.383, 280.872 384.967, 290.771 383.550, 300.670 383.349, 302.080 382.097, 312.001 380.845, 321.922 380.575, 324.065 379.480, 334.005 378.385, 343.945 378.076, 346.749 377.133, 356.705 376.189, 366.660 375.868, 370.050 375.071, 380.018 374.274, 389.986 373.962, 393.876 373.307, 403.854 372.652, 413.833 372.370, 418.133 371.854, 428.120 371.338, 438.107 371.100, 442.724 370.721, 452.716 370.342, 462.709 370.158, 467.545 369.915, 477.542 369.672, 487.539 369.551, 492.493 369.443, 502.492 369.335, 512.492 369.281, 517.463 369.308, 527.463 369.335, 537.463 369.348, 542.351 369.511, 552.350 369.675, 562.348 369.751, 567.051 370.053, 577.047 370.354, 587.042 370.487, 591.463 370.929, 601.453 371.370, 611.443 371.549, 615.486 372.135, 625.469 372.720, 635.451 372.930, 639.026 373.664, 648.999 374.398, 658.972 374.620, 661.991 375.508, 671.952 376.396, 681.913 376.608, 684.299 377.657, 694.244 378.705, 704.189 378.882, 705.869 380.099, 715.795 381.316, 725.720 381.427, 726.629 382.822, 736.532 384.228, 746.515 385.812, 756.389 386.407, 760.095 387.269, 765.469 389.055, 775.309 390.532, 783.441 392.537, 793.238 392.775, 794.400 394.000, 800.388 395.364, 806.317 397.607, 816.063 397.655, 816.275 400.157, 825.957 401.479, 831.074 403.106, 836.678 405.454, 844.766 408.560, 854.271 409.561, 857.335 413.023, 866.717 413.782, 868.775 417.646, 877.999 418.101, 879.085 422.421, 888.104 422.500, 888.269 426.962, 896.336 431.472, 903.300 436.016, 909.179 440.578, 913.995 445.146, 917.772 449.706, 920.538 454.249, 922.322 458.761, 923.157 " fill="none" stroke="rgb(0, 0, 0)" stroke-linecap="butt" stroke-linejoin="round" stroke-opacity="1.0" stroke-width="3.0" />
            <path d=" M 472.004, 76.566 469.561, 76.663 " fill="none" stroke="rgb(0, 0, 0)" stroke-linecap="butt" stroke-linejoin="round" stroke-opacity="1.0" stroke-width="3.0" />
            <path d=" M 547.818, 216.702 547.182, 213.068 545.317, 203.243 544.853, 200.797 542.838, 191.002 542.393, 188.838 540.217, 179.078 539.801, 177.215 537.451, 167.495 537.078, 165.951 534.538, 156.279 534.222, 155.075 531.476, 145.460 531.234, 144.613 528.261, 135.065 528.114, 134.594 524.862, 125.048 521.480, 116.007 517.968, 107.502 514.327, 99.569 510.560, 92.242 506.670, 85.556 502.658, 79.550 498.530, 74.261 494.288, 69.727 489.938, 65.988 485.485, 63.083 480.936, 61.052 476.299, 59.935 471.580, 59.770 466.719, 59.973 461.868, 60.800 456.956, 62.655 451.993, 65.572 446.991, 69.584 441.965, 74.722 436.927, 81.013 431.893, 88.481 426.881, 97.146 422.382, 106.076 421.907, 107.021 417.854, 116.163 416.989, 118.116 413.330, 127.422 412.146, 130.434 408.837, 139.871 407.399, 143.972 404.402, 153.513 402.767, 158.720 400.053, 168.344 398.271, 174.659 395.813, 184.352 393.933, 191.764 391.709, 201.514 389.773, 210.002 389.697, 210.376 387.689, 220.172 385.813, 229.329 384.006, 239.165 382.200, 249.000 382.072, 249.695 380.453, 259.563 378.835, 269.432 378.571, 271.041 377.130, 280.937 375.689, 290.832 375.330, 293.299 374.057, 303.218 372.784, 313.137 372.366, 316.394 371.254, 326.332 370.141, 336.270 369.697, 340.242 368.738, 350.196 367.780, 360.150 367.337, 364.754 367.219, 366.216 366.410, 376.183 365.601, 386.151 365.302, 389.832 365.266, 390.373 365.042, 393.745 364.378, 403.723 363.714, 413.701 363.602, 415.375 363.080, 425.362 362.780, 431.115 362.258, 441.101 362.248, 441.276 362.193, 442.713 361.811, 452.706 361.429, 462.699 361.248, 467.426 361.004, 477.423 360.760, 487.420 360.606, 493.711 360.500, 503.710 360.493, 504.398 360.386, 514.397 360.326, 520.018 360.358, 530.018 360.377, 536.108 360.408, 546.019 360.409, 546.233 360.579, 556.232 360.637, 559.632 360.807, 569.631 360.852, 572.244 361.163, 582.239 361.474, 592.234 361.652, 597.939 362.106, 607.929 362.561, 617.919 362.802, 623.213 363.403, 633.195 364.005, 643.177 364.293, 647.963 365.046, 657.935 365.799, 667.906 366.115, 672.091 367.026, 682.049 367.936, 692.008 368.256, 695.506 369.330, 705.448 369.961, 711.282 370.701, 718.125 371.948, 728.047 373.195, 737.969 373.434, 739.870 374.864, 749.767 376.293, 759.664 376.439, 760.673 378.063, 770.540 379.697, 780.473 381.530, 790.303 383.191, 799.217 385.248, 809.003 386.900, 816.863 389.201, 826.594 390.804, 833.374 393.374, 843.038 394.885, 848.722 397.750, 858.303 399.121, 862.888 402.316, 872.364 403.494, 875.860 407.057, 885.203 407.983, 887.631 411.964, 896.805 412.571, 898.204 417.026, 907.157 417.238, 907.584 421.968, 915.785 426.743, 922.822 431.547, 928.719 436.366, 933.499 441.186, 937.192 445.992, 939.828 450.774, 941.440 455.520, 942.062 460.288, 942.408 464.928, 942.074 469.513, 940.823 474.035, 938.694 478.485, 935.724 482.858, 931.951 487.145, 927.413 491.343, 922.147 495.446, 916.190 499.451, 909.578 503.352, 902.345 507.148, 894.526 510.836, 886.153 514.413, 877.257 517.877, 867.871 521.098, 858.403 521.228, 858.022 524.228, 848.483 524.462, 847.739 527.263, 838.139 527.326, 837.923 " fill="none" stroke="rgb(0, 0, 0)" stroke-linecap="butt" stroke-linejoin="round" stroke-opacity="1.0" stroke-width="3.0" />
            <path d=" M 542.827, 770.940 543.824, 765.723 545.577, 755.878 546.118, 752.842 547.756, 742.977 548.295, 739.729 549.822, 729.846 550.355, 726.402 551.776, 716.504 552.297, 712.878 553.618, 702.965 554.124, 699.171 555.347, 689.246 555.833, 685.298 556.963, 675.362 557.428, 671.273 558.466, 661.328 558.906, 657.110 559.856, 647.155 560.270, 642.822 561.134, 632.859 561.519, 628.421 562.298, 618.452 562.653, 613.921 563.350, 603.945 563.673, 599.332 564.289, 589.351 564.578, 584.667 565.115, 574.681 565.370, 569.936 565.828, 559.946 566.048, 555.151 566.428, 545.158 566.612, 540.322 566.914, 530.327 567.025, 526.672 " fill="none" stroke="rgb(0, 0, 0)" stroke-linecap="butt" stroke-linejoin="round" stroke-opacity="1.0" stroke-width="3.0" />
            <path d=" M 471.580, 59.770 466.790, 60.596 461.939, 62.449 457.036, 65.365 452.096, 69.377 447.130, 74.516 442.153, 80.809 437.180, 88.279 432.227, 96.947 427.772, 105.900 427.311, 106.827 425.239, 111.560 422.451, 117.928 418.831, 127.249 417.664, 130.253 414.391, 139.702 412.972, 143.799 410.485, 151.812 408.393, 158.556 405.709, 168.189 404.340, 173.098 403.948, 174.505 401.517, 184.205 401.390, 184.712 399.659, 191.622 397.460, 201.377 395.545, 209.872 393.560, 219.673 391.627, 229.213 390.570, 235.038 388.783, 244.878 387.927, 249.594 386.326, 259.465 384.726, 269.336 384.463, 270.955 383.038, 280.853 381.612, 290.751 381.255, 293.230 381.032, 294.993 379.772, 304.914 378.513, 314.834 378.322, 316.343 377.221, 326.282 376.120, 336.221 375.678, 340.209 374.730, 350.164 373.782, 360.119 373.341, 364.740 372.540, 374.708 371.739, 384.676 371.324, 389.838 370.666, 399.816 370.008, 409.795 369.639, 415.401 369.121, 425.388 368.603, 435.375 368.294, 441.323 367.914, 451.316 367.534, 461.309 367.299, 467.493 367.056, 477.490 366.812, 487.487 366.658, 493.799 366.551, 503.799 366.443, 513.798 366.375, 520.127 366.403, 530.127 366.432, 540.127 366.450, 546.363 366.615, 556.362 366.781, 566.360 366.881, 572.394 367.185, 582.389 367.490, 592.385 367.664, 598.110 368.110, 608.100 368.556, 618.090 368.793, 623.403 369.384, 633.385 369.976, 643.368 370.260, 648.171 371.001, 658.143 371.742, 668.116 372.054, 672.317 372.950, 682.276 373.846, 692.236 374.162, 695.749 375.221, 705.693 375.522, 708.521 375.854, 711.645 376.571, 718.383 377.800, 728.307 379.029, 738.232 379.266, 740.143 380.675, 750.043 382.084, 759.943 382.229, 760.960 383.390, 768.121 384.444, 774.620 385.442, 780.772 387.249, 790.607 388.888, 799.528 390.917, 809.320 392.547, 817.184 393.804, 822.574 396.075, 832.312 396.400, 833.704 398.936, 843.377 400.426, 849.060 403.256, 858.651 404.607, 863.233 407.763, 872.722 408.213, 874.076 408.923, 876.210 412.444, 885.569 413.354, 887.985 417.290, 897.178 417.882, 898.561 422.290, 907.537 422.489, 907.944 427.159, 916.145 431.873, 923.183 436.616, 929.079 441.374, 933.858 446.133, 937.549 450.879, 940.181 455.601, 941.790 460.288, 942.408 " fill="none" stroke="rgb(0, 0, 0)" stroke-linecap="butt" stroke-linejoin="round" stroke-opacity="1.0" stroke-width="3.0" />
            <path d=" M 565.331, 519.971 565.405, 518.357 565.428, 518.031 565.514, 516.792 565.520, 516.725 565.655, 515.303 565.827, 513.915 566.026, 512.652 566.249, 511.535 566.492, 510.583 566.751, 509.812 567.022, 509.235 567.299, 508.860 567.424, 508.786 567.578, 508.694 " fill="none" stroke="rgb(0, 0, 0)" stroke-linecap="butt" stroke-linejoin="round" stroke-opacity="1.0" stroke-width="3.0" />
            <path d=" M 554.865, 519.787 555.543, 519.799 557.390, 519.831 557.608, 519.835 562.838, 519.927 564.625, 519.959 565.087, 519.967 565.331, 519.971 566.930, 520.890 " fill="none" stroke="rgb(0, 0, 0)" stroke-linecap="butt" stroke-linejoin="round" stroke-opacity="1.0" stroke-width="3.0" />
            <path d=" M 557.621, 521.312 562.805, 521.404 564.591, 521.436 565.041, 521.444 567.152, 521.481 567.984, 521.496 567.995, 520.981 567.990, 520.471 567.972, 519.981 567.939, 519.524 567.893, 519.112 567.835, 518.757 567.767, 518.468 567.691, 518.253 567.608, 518.118 567.521, 518.067 " fill="none" stroke="rgb(0, 0, 0)" stroke-linecap="butt" stroke-linejoin="round" stroke-opacity="1.0" stroke-width="3.0" />
            <path d=" M 624.862, 914.756 627.032, 915.277 634.908, 916.633 642.783, 917.247 650.642, 917.137 658.466, 916.322 666.242, 914.819 673.953, 912.651 681.586, 909.838 689.127, 906.401 696.565, 902.363 703.889, 897.745 711.087, 892.569 718.150, 886.858 725.068, 880.633 731.834, 873.918 738.439, 866.734 744.877, 859.102 751.014, 851.206 751.140, 851.044 756.977, 842.924 757.224, 842.580 762.770, 834.259 763.122, 833.732 768.388, 825.232 768.829, 824.520 773.825, 815.858 774.341, 814.963 779.076, 806.155 779.653, 805.081 784.136, 796.142 784.762, 794.893 789.001, 785.835 789.665, 784.417 793.667, 775.252 794.358, 773.671 798.130, 764.410 798.838, 762.673 802.387, 753.324 803.102, 751.440 806.435, 742.012 807.149, 739.990 810.270, 730.489 810.976, 728.338 813.890, 718.772 814.582, 716.500 817.292, 706.875 817.963, 704.493 820.475, 694.814 821.119, 692.332 823.436, 682.604 824.048, 680.031 826.172, 670.260 826.749, 667.607 828.682, 657.795 829.219, 655.072 830.965, 645.226 831.458, 642.442 833.018, 632.564 833.465, 629.731 834.840, 619.826 835.239, 616.953 836.429, 607.024 836.777, 604.122 837.784, 594.173 838.080, 591.251 838.903, 581.285 839.146, 578.355 839.786, 568.375 839.973, 565.447 840.429, 555.457 840.562, 552.541 840.833, 542.544 840.911, 539.650 840.995, 529.650 841.019, 526.789 840.915, 516.790 840.885, 513.971 840.590, 503.976 840.509, 501.211 840.021, 491.223 839.889, 488.523 839.205, 478.546 839.024, 475.920 838.140, 465.959 837.915, 463.419 836.827, 453.478 836.559, 451.033 835.263, 441.117 834.957, 438.778 833.448, 428.892 833.108, 426.669 831.380, 416.820 831.012, 414.723 829.058, 404.915 828.667, 402.955 826.481, 393.196 826.074, 391.381 823.648, 381.680 823.233, 380.020 820.559, 370.384 820.144, 368.888 817.213, 359.328 816.807, 358.004 813.608, 348.529 813.222, 347.384 809.746, 338.008 809.391, 337.049 805.625, 327.785 805.313, 327.018 801.246, 317.882 800.991, 317.309 796.610, 308.320 796.427, 307.944 791.718, 299.123 791.622, 298.943 786.578, 290.327 781.299, 282.117 775.788, 274.336 770.048, 267.005 764.085, 260.147 757.904, 253.785 751.510, 247.942 744.909, 242.641 738.110, 237.904 731.120, 233.756 723.948, 230.219 716.605, 227.316 709.099, 225.068 701.445, 223.497 693.654, 222.625 685.740, 222.472 683.530, 222.627 " fill="none" stroke="rgb(0, 0, 0)" stroke-linecap="butt" stroke-linejoin="round" stroke-opacity="1.0" stroke-width="3.0" />
            <path d=" M 627.032, 915.277 625.508, 914.867 619.175, 913.164 611.357, 910.278 603.596, 906.607 595.914, 902.141 588.332, 896.871 580.872, 890.790 573.558, 883.895 566.761, 876.561 566.413, 876.186 560.091, 868.438 559.460, 867.664 553.605, 859.557 552.723, 858.335 547.323, 849.918 546.226, 848.207 544.911, 845.905 539.994, 837.294 535.716, 828.886 534.050, 825.611 531.883, 820.826 528.944, 814.338 528.418, 813.177 527.699, 811.391 523.965, 802.114 523.121, 800.018 521.968, 796.782 520.821, 793.565 518.182, 786.160 515.186, 776.619 514.282, 773.738 513.621, 771.634 512.630, 768.023 509.983, 758.380 509.461, 756.477 507.149, 746.748 505.719, 740.727 503.731, 730.926 502.413, 724.426 500.740, 714.568 500.414, 712.648 499.561, 707.623 498.192, 697.717 497.177, 690.365 496.105, 680.423 495.273, 672.706 494.490, 662.737 493.859, 654.702 493.361, 644.714 492.946, 636.409 492.725, 626.411 492.538, 617.888 492.592, 607.888 492.639, 599.201 492.965, 589.206 493.251, 580.411 493.846, 570.428 494.373, 561.580 495.236, 551.617 496.002, 542.773 496.925, 534.662 497.846, 526.562 498.131, 524.055 499.145, 516.874 499.351, 515.420 500.753, 505.487 502.420, 495.627 503.856, 487.133 505.795, 477.323 507.429, 469.054 509.642, 459.302 511.456, 451.308 513.947, 441.623 515.920, 433.952 518.694, 424.344 520.803, 417.040 523.866, 407.520 524.409, 405.832 525.482, 402.497 526.085, 400.623 529.443, 391.204 531.743, 384.750 533.322, 380.737 536.983, 371.431 537.756, 369.465 539.505, 365.423 539.655, 365.076 543.627, 355.898 544.099, 354.808 548.390, 345.776 550.574, 341.179 550.746, 340.818 552.201, 338.026 556.823, 329.158 557.239, 328.360 557.673, 327.526 558.843, 325.479 561.303, 321.175 564.854, 314.963 566.405, 312.490 566.935, 311.646 572.261, 303.154 577.938, 294.921 579.870, 292.120 585.920, 284.158 587.653, 281.879 594.087, 274.224 594.361, 273.898 595.584, 272.444 602.411, 265.137 603.638, 263.825 610.864, 256.913 611.788, 256.029 619.417, 249.564 620.012, 249.060 628.040, 243.098 628.284, 242.916 636.583, 237.596 644.884, 233.093 653.168, 229.399 661.414, 226.504 669.604, 224.394 677.718, 223.055 683.592, 222.628 685.740, 222.472 " fill="none" stroke="rgb(0, 0, 0)" stroke-linecap="butt" stroke-linejoin="round" stroke-opacity="1.0" stroke-width="3.0" />
            <path d=" M 683.530, 222.627 675.497, 223.211 667.372, 224.550 659.172, 226.659 650.916, 229.552 642.621, 233.244 634.310, 237.744 626.002, 243.060 617.968, 249.014 617.720, 249.198 610.085, 255.656 609.487, 256.161 602.253, 263.066 601.328, 263.950 594.493, 271.249 593.266, 272.560 593.048, 272.818 586.606, 280.467 585.326, 281.986 579.268, 289.942 577.536, 292.217 571.852, 300.444 569.920, 303.240 566.482, 308.710 565.951, 309.555 562.506, 315.036 560.989, 317.686 558.522, 321.993 556.931, 324.772 555.319, 327.586 551.865, 334.202 550.233, 337.328 548.387, 340.863 544.089, 349.892 541.734, 354.839 539.269, 360.525 535.387, 369.479 531.721, 378.783 529.370, 384.747 526.007, 394.165 523.708, 400.603 522.949, 402.958 522.539, 404.230 519.472, 413.748 518.423, 417.001 515.645, 426.607 513.538, 433.893 512.850, 436.562 510.356, 446.246 509.072, 451.229 506.855, 460.986 505.044, 468.955 503.103, 478.765 501.470, 487.014 499.801, 496.874 498.367, 505.347 497.100, 514.307 496.743, 516.832 495.745, 523.893 495.531, 525.773 494.400, 535.708 493.617, 542.590 492.754, 552.553 491.990, 561.375 491.395, 571.357 490.869, 580.184 490.544, 590.179 490.259, 598.953 490.207, 608.953 490.198, 610.643 490.161, 617.620 490.383, 627.617 490.572, 636.120 491.074, 646.107 491.490, 654.392 492.276, 664.361 492.907, 672.377 493.983, 682.319 494.816, 690.017 496.189, 699.922 497.206, 707.256 498.884, 717.114 499.079, 718.258 500.064, 724.043 502.057, 733.842 503.375, 740.326 505.693, 750.054 507.124, 756.060 509.777, 765.702 511.292, 771.203 511.496, 771.854 513.157, 777.129 515.859, 785.715 519.224, 795.132 519.859, 796.911 519.863, 796.921 520.806, 799.561 521.022, 800.094 524.763, 809.368 526.111, 812.709 526.903, 814.453 528.154, 817.207 531.137, 823.779 531.752, 825.131 533.238, 828.047 537.704, 836.805 542.671, 845.484 543.945, 847.710 549.353, 856.122 550.451, 857.830 556.313, 865.931 557.197, 867.153 563.527, 874.895 564.160, 875.670 570.965, 882.998 571.315, 883.376 578.640, 890.267 586.109, 896.346 593.701, 901.615 601.394, 906.081 609.166, 909.753 616.995, 912.640 624.862, 914.756 " fill="none" stroke="rgb(0, 0, 0)" stroke-linecap="butt" stroke-linejoin="round" stroke-opacity="1.0" stroke-width="3.0" />
            <path d=" M 698.972, 318.026 690.781, 317.958 682.777, 318.676 682.473, 318.703 679.373, 319.279 674.071, 320.265 665.598, 322.640 664.623, 323.006 657.081, 325.839 648.547, 329.888 640.027, 334.803 631.768, 340.442 631.553, 340.589 623.715, 346.799 623.157, 347.241 615.743, 353.952 614.868, 354.744 607.872, 361.890 606.714, 363.073 600.128, 370.598 598.724, 372.203 592.550, 380.070 590.934, 382.129 585.172, 390.302 583.384, 392.839 578.029, 401.284 576.457, 403.763 576.159, 404.232 576.111, 404.309 573.245, 409.329 569.148, 416.505 566.980, 420.722 564.524, 425.497 563.603, 427.288 562.807, 428.836 562.525, 429.384 559.397, 436.137 557.676, 439.852 557.630, 439.951 556.267, 442.892 555.844, 443.907 551.995, 453.136 550.394, 456.975 548.683, 461.556 546.880, 466.386 544.937, 471.587 543.838, 474.904 540.691, 484.396 539.933, 486.683 537.138, 496.284 536.108, 499.821 535.413, 502.208 534.681, 505.109 533.027, 511.660 531.401, 518.099 531.370, 518.244 530.437, 522.581 530.208, 523.645 529.019, 529.167 528.965, 529.415 527.916, 534.289 526.148, 544.132 525.649, 546.910 524.967, 550.708 524.687, 552.634 523.248, 562.530 522.556, 567.284 521.444, 577.222 520.690, 583.949 519.912, 593.919 519.388, 600.637 518.953, 610.628 518.663, 617.278 518.610, 623.498 518.524, 633.498 518.522, 633.798 518.790, 643.795 518.961, 650.130 519.587, 660.110 519.970, 666.205 520.800, 674.590 521.531, 681.964 522.879, 691.873 523.632, 697.409 525.336, 707.263 525.734, 709.565 526.059, 711.445 526.224, 712.400 527.517, 718.507 527.906, 720.344 528.576, 723.507 529.290, 726.880 531.745, 736.574 532.814, 740.795 533.036, 741.541 534.223, 745.526 535.436, 749.598 536.617, 753.565 536.775, 754.095 539.083, 760.763 540.300, 764.282 540.318, 764.333 541.150, 766.738 542.827, 770.940 545.916, 778.682 550.079, 787.774 551.048, 789.891 555.689, 798.749 556.520, 800.334 561.660, 808.912 562.304, 809.988 567.963, 818.233 568.373, 818.830 574.570, 826.678 574.699, 826.842 581.254, 834.012 588.009, 840.336 594.936, 845.806 602.009, 850.423 609.198, 854.191 609.326, 854.242 616.479, 857.118 623.825, 859.212 631.213, 860.486 638.617, 860.957 646.015, 860.641 653.386, 859.556 660.709, 857.725 667.964, 855.171 675.132, 851.916 682.197, 847.984 689.143, 843.402 695.954, 838.197 702.616, 832.393 709.115, 826.018 715.441, 819.099 721.581, 811.663 727.525, 803.737 733.171, 795.483 733.264, 795.347 738.570, 786.871 738.788, 786.522 743.767, 777.849 744.091, 777.286 748.755, 768.441 749.163, 767.666 753.525, 758.667 754.000, 757.688 758.070, 748.554 758.594, 747.378 762.382, 738.123 762.940, 736.759 766.454, 727.397 767.032, 725.858 770.282, 716.401 770.867, 714.698 773.859, 705.156 774.440, 703.304 777.180, 693.686 777.747, 691.698 780.240, 682.014 780.784, 679.904 783.036, 670.161 783.549, 667.945 785.563, 658.151 786.038, 655.845 787.818, 646.004 788.248, 643.624 789.797, 633.744 790.179, 631.305 791.497, 621.393 791.827, 618.912 792.915, 608.971 793.190, 606.464 794.049, 596.501 794.266, 593.984 794.897, 584.004 795.055, 581.494 795.456, 571.502 795.555, 569.016 795.723, 559.017 795.765, 556.571 795.698, 546.571 795.682, 544.181 795.559, 540.112 " fill="none" stroke="rgb(0, 0, 0)" stroke-linecap="butt" stroke-linejoin="round" stroke-opacity="1.0" stroke-width="3.0" />
            <path d=" M 791.018, 546.731 790.897, 546.735 781.212, 547.065 775.717, 547.252 767.104, 547.545 766.393, 547.570 765.679, 547.594 764.965, 547.619 764.250, 547.644 754.275, 546.948 752.751, 546.841 751.901, 546.741 751.075, 546.385 750.292, 545.778 749.567, 544.933 748.915, 543.864 748.348, 542.592 747.876, 541.140 747.510, 539.537 747.255, 537.812 747.119, 535.999 747.102, 534.134 747.206, 532.251 747.429, 530.388 747.765, 528.581 748.210, 526.864 748.753, 525.271 749.384, 523.833 750.092, 522.576 750.860, 521.525 751.527, 520.735 752.194, 519.945 752.861, 519.157 753.526, 518.370 753.860, 517.976 754.726, 516.953 756.035, 515.408 758.259, 512.782 764.723, 505.152 771.186, 497.521 776.508, 491.239 786.453, 492.284 787.332, 492.377 " fill="none" stroke="rgb(0, 0, 0)" stroke-linecap="butt" stroke-linejoin="round" stroke-opacity="1.0" stroke-width="3.0" />
            <path d=" M 823.232, 507.843 822.737, 503.086 822.216, 498.073 820.893, 488.161 820.628, 486.176 819.005, 476.309 818.703, 474.475 816.770, 464.663 816.441, 462.994 814.190, 453.250 813.845, 451.757 811.271, 442.094 810.921, 440.783 808.018, 431.214 807.677, 430.090 804.430, 420.632 804.112, 419.706 800.500, 410.381 800.223, 409.664 796.226, 400.498 796.008, 399.999 791.608, 391.019 791.471, 390.741 786.619, 381.915 781.459, 373.543 776.003, 365.640 770.259, 358.228 764.231, 351.345 757.925, 345.029 751.350, 339.316 744.517, 334.231 737.441, 329.797 730.138, 326.026 722.624, 322.928 721.946, 322.718 714.914, 320.538 707.024, 318.894 698.972, 318.026 " fill="none" stroke="rgb(0, 0, 0)" stroke-linecap="butt" stroke-linejoin="round" stroke-opacity="1.0" stroke-width="3.0" />
            <path d=" M 664.623, 323.006 670.503, 326.654 676.392, 331.061 682.091, 336.098 687.590, 341.745 692.878, 347.973 697.947, 354.749 702.794, 362.036 707.415, 369.796 711.804, 378.007 715.950, 386.655 719.849, 395.719 723.445, 405.050 723.493, 405.175 726.755, 414.628 726.882, 414.994 729.831, 424.549 730.014, 425.143 732.671, 434.784 732.893, 435.590 735.273, 445.303 735.519, 446.308 737.627, 456.083 737.885, 457.281 739.728, 467.110 739.987, 468.491 741.572, 478.364 741.821, 479.916 743.157, 489.826 743.387, 491.532 744.044, 497.483 744.022, 498.721 743.941, 499.960 743.801, 501.189 743.605, 502.393 743.353, 503.562 743.049, 504.681 742.695, 505.741 742.295, 506.729 741.854, 507.636 741.376, 508.451 741.276, 508.592 740.866, 509.167 740.329, 509.776 739.771, 510.271 739.198, 510.649 730.475, 515.539 725.982, 518.057 " fill="none" stroke="rgb(0, 0, 0)" stroke-linecap="butt" stroke-linejoin="round" stroke-opacity="1.0" stroke-width="3.0" />
            <path d=" M 800.372, 535.275 800.898, 535.308 801.995, 535.378 803.227, 535.457 811.728, 530.191 813.932, 528.826 815.838, 527.645 823.513, 522.891 824.398, 522.343 825.429, 521.800 830.498, 519.128 829.755, 509.156 829.546, 506.344 828.523, 496.396 828.247, 493.706 826.939, 483.792 826.602, 481.238 824.999, 471.368 824.609, 468.966 822.704, 459.150 822.270, 456.915 820.052, 447.164 819.584, 445.109 817.043, 435.438 816.565, 433.621 816.553, 433.575 813.676, 423.998 813.178, 422.340 810.944, 415.783 809.460, 411.429 805.874, 402.095 805.403, 400.871 801.440, 391.689 801.009, 390.692 796.654, 381.690 796.282, 380.922 791.519, 372.129 791.226, 371.589 789.014, 367.943 785.846, 362.720 783.906, 359.869 780.149, 354.346 774.141, 346.497 767.830, 339.201 761.225, 332.488 754.336, 326.388 747.175, 320.930 739.755, 316.142 732.088, 312.053 724.191, 308.691 716.080, 306.083 707.774, 304.253 699.292, 303.226 689.303, 302.763 679.314, 302.299 674.953, 302.097 " fill="none" stroke="rgb(0, 0, 0)" stroke-linecap="butt" stroke-linejoin="round" stroke-opacity="1.0" stroke-width="3.0" />
            <path d=" M 699.292, 303.226 690.656, 303.026 684.130, 303.506 681.889, 303.671 673.015, 305.180 667.568, 306.633 664.060, 307.570 655.053, 310.853 646.022, 315.039 645.848, 315.137 644.975, 315.630 636.998, 320.134 628.685, 325.692 628.012, 326.141 620.113, 332.273 619.099, 333.060 611.622, 339.700 610.291, 340.882 603.240, 347.974 601.624, 349.599 594.998, 357.089 593.133, 359.198 586.926, 367.038 584.854, 369.656 579.058, 377.805 576.823, 380.948 575.068, 383.689 574.726, 384.222 569.333, 392.644 569.077, 393.045 566.184, 398.057 563.740, 402.292 562.052, 405.216 561.650, 405.913 557.036, 414.785 556.922, 415.004 555.173, 418.365 554.578, 419.510 550.339, 428.567 547.894, 433.790 544.024, 443.011 543.533, 444.179 541.633, 448.706 538.122, 458.069 535.823, 464.200 532.666, 473.689 530.495, 480.215 527.686, 489.812 525.674, 496.686 523.812, 504.009 521.387, 513.548 520.582, 517.253 519.237, 523.446 518.553, 526.595 517.654, 530.730 517.492, 531.627 515.707, 541.467 514.494, 548.160 513.048, 558.055 511.922, 565.765 510.815, 575.704 509.951, 583.469 509.185, 593.440 508.589, 601.195 508.166, 611.186 507.841, 618.868 507.766, 628.868 507.710, 636.411 507.989, 646.407 508.193, 653.750 508.832, 663.729 509.166, 668.953 509.285, 670.812 510.292, 680.761 510.977, 687.527 " fill="none" stroke="rgb(0, 0, 0)" stroke-linecap="butt" stroke-linejoin="round" stroke-opacity="1.0" stroke-width="3.0" />
            <path d=" M 756.035, 515.408 755.100, 505.452 754.983, 504.206 754.796, 501.515 754.769, 501.747 754.573, 502.957 754.322, 504.131 754.019, 505.256 753.667, 506.321 753.270, 507.314 752.832, 508.225 752.357, 509.045 751.850, 509.764 751.317, 510.376 750.763, 510.875 750.194, 511.254 741.500, 516.196 733.281, 520.869 732.631, 519.933 731.911, 519.194 731.131, 518.663 730.304, 518.350 729.444, 518.260 725.982, 518.057 718.282, 517.606 717.398, 517.741 716.512, 518.099 715.636, 518.674 714.788, 519.457 714.014, 520.438 713.331, 521.600 712.718, 522.923 712.185, 524.383 711.741, 525.957 711.394, 527.615 711.150, 529.332 711.013, 531.076 710.987, 532.818 711.070, 534.528 721.048, 535.187 722.268, 535.268 727.048, 532.571 727.027, 532.025 727.051, 531.469 727.117, 530.920 727.183, 530.595 727.225, 530.391 727.371, 529.897 727.551, 529.452 727.761, 529.068 727.995, 528.756 728.246, 528.523 728.507, 528.377 728.771, 528.321 " fill="none" stroke="rgb(0, 0, 0)" stroke-linecap="butt" stroke-linejoin="round" stroke-opacity="1.0" stroke-width="3.0" />
            <path d=" M 798.005, 522.275 800.269, 520.872 801.266, 520.253 801.408, 520.165 806.484, 517.018 807.090, 516.642 807.598, 516.282 808.093, 515.818 808.573, 515.256 809.033, 514.601 809.470, 513.860 809.880, 513.039 810.260, 512.146 810.609, 511.187 810.922, 510.170 811.197, 509.104 811.434, 507.996 811.628, 506.855 811.780, 505.689 811.886, 504.509 821.480, 507.328 822.981, 507.769 823.232, 507.843 823.113, 508.607 823.042, 508.943 822.878, 509.721 822.604, 510.792 822.293, 511.814 821.947, 512.778 821.570, 513.676 821.163, 514.501 820.729, 515.246 820.273, 515.904 819.798, 516.469 819.307, 516.936 818.804, 517.298 813.244, 520.802 812.504, 521.268 806.239, 525.216 805.631, 524.255 804.954, 523.496 804.218, 522.953 803.435, 522.634 802.619, 522.545 801.532, 522.482 800.351, 522.412 798.005, 522.275 794.775, 522.086 790.744, 521.850 790.271, 521.930 790.100, 521.959 789.901, 521.993 789.053, 522.366 788.214, 522.963 787.398, 523.774 786.656, 524.789 786.002, 525.991 785.413, 527.358 784.899, 528.867 784.469, 530.492 784.130, 532.204 783.888, 533.975 783.748, 535.774 783.712, 537.571 783.780, 539.333 790.839, 539.800 790.852, 539.801 795.559, 540.112 795.698, 540.121 800.232, 537.313 800.216, 536.750 800.242, 536.177 800.308, 535.610 800.372, 535.275 800.413, 535.064 800.554, 534.554 800.728, 534.094 800.855, 533.843 800.928, 533.697 801.151, 533.374 801.389, 533.133 801.637, 532.980 801.887, 532.921 " fill="none" stroke="rgb(0, 0, 0)" stroke-linecap="butt" stroke-linejoin="round" stroke-opacity="1.0" stroke-width="3.0" />
            <path d=" M 775.717, 547.252 775.772, 554.396 775.607, 564.395 775.569, 566.718 775.163, 576.710 775.067, 579.071 774.423, 589.050 774.269, 591.434 773.388, 601.395 773.177, 603.785 772.059, 613.723 771.791, 616.103 770.437, 626.011 770.115, 628.366 768.524, 638.239 768.151, 640.552 766.321, 650.383 765.901, 652.639 763.830, 662.422 763.368, 664.605 761.052, 674.333 760.554, 676.428 757.992, 686.094 757.464, 688.085 754.650, 697.681 754.100, 699.554 751.029, 709.070 750.467, 710.811 747.133, 720.238 746.569, 721.833 742.965, 731.161 742.410, 732.597 738.528, 741.813 737.995, 743.079 733.827, 752.169 733.330, 753.253 728.867, 762.202 728.421, 763.097 723.653, 771.887 723.274, 772.584 718.189, 781.195 717.897, 781.689 712.483, 790.097 712.296, 790.386 706.542, 798.564 706.481, 798.651 700.460, 806.455 694.243, 813.773 687.841, 820.578 681.266, 826.845 674.529, 832.545 667.644, 837.652 660.625, 842.143 653.488, 845.990 646.248, 849.168 638.925, 851.654 631.535, 853.425 624.098, 854.459 616.636, 854.734 609.326, 854.242 " fill="none" stroke="rgb(0, 0, 0)" stroke-linecap="butt" stroke-linejoin="round" stroke-opacity="1.0" stroke-width="3.0" />
            <path d=" M 764.250, 547.644 763.407, 547.545 762.590, 547.188 761.814, 546.579 761.096, 545.730 760.451, 544.657 759.890, 543.379 759.424, 541.921 759.062, 540.310 758.812, 538.577 758.698, 537.027 758.679, 536.755 758.664, 534.880 758.769, 532.989 758.992, 531.116 759.156, 530.229 759.327, 529.300 759.769, 527.575 760.309, 525.974 760.937, 524.528 761.639, 523.264 762.402, 522.208 763.063, 521.413 763.726, 520.619 764.387, 519.826 765.047, 519.035 765.379, 518.639 766.643, 517.126 773.057, 509.453 777.931, 503.623 784.344, 495.950 787.332, 492.377 788.455, 502.313 788.565, 503.286 789.019, 507.700 789.823, 517.668 789.949, 519.231 790.100, 521.959 " fill="none" stroke="rgb(0, 0, 0)" stroke-linecap="butt" stroke-linejoin="round" stroke-opacity="1.0" stroke-width="3.0" />
            <path d=" M 794.643, 519.655 800.230, 520.160 801.266, 520.253 " fill="none" stroke="rgb(0, 0, 0)" stroke-linecap="butt" stroke-linejoin="round" stroke-opacity="1.0" stroke-width="3.0" />
            <path d=" M 764.674, 537.418 764.360, 537.314 764.070, 537.064 763.817, 536.681 763.613, 536.181 763.466, 535.586 763.382, 534.922 763.366, 534.217 763.419, 533.504 763.537, 532.813 763.715, 532.174 763.947, 531.616 764.221, 531.163 764.525, 530.835 764.846, 530.647 765.171, 530.605 " fill="none" stroke="rgb(0, 0, 0)" stroke-linecap="butt" stroke-linejoin="round" stroke-opacity="1.0" stroke-width="3.0" />
            <path d=" M 765.171, 530.605 765.484, 530.712 765.773, 530.963 766.025, 531.347 766.228, 531.846 766.374, 532.440 766.456, 533.103 766.472, 533.805 766.420, 534.515 766.303, 535.204 766.125, 535.841 765.895, 536.398 765.622, 536.852 765.319, 537.181 764.998, 537.373 764.674, 537.418 " fill="none" stroke="rgb(0, 0, 0)" stroke-linecap="butt" stroke-linejoin="round" stroke-opacity="1.0" stroke-width="3.0" />
            <path d=" M 800.898, 535.308 801.101, 542.136 801.161, 552.136 801.179, 555.106 801.006, 565.105 800.953, 568.133 800.549, 578.124 800.425, 581.193 799.792, 591.173 799.596, 594.265 798.734, 604.228 798.466, 607.327 797.377, 617.267 797.038, 620.357 795.720, 630.269 795.313, 633.332 793.765, 643.212 793.292, 646.232 791.514, 656.073 790.979, 659.033 788.966, 668.829 788.374, 671.713 786.125, 681.456 785.481, 684.248 782.991, 693.933 782.302, 696.616 779.568, 706.235 778.841, 708.792 775.856, 718.337 775.100, 720.754 771.858, 730.214 771.083, 732.475 767.579, 741.841 766.796, 743.933 763.019, 753.193 762.241, 755.101 758.184, 764.241 757.424, 765.952 753.078, 774.958 752.352, 776.463 747.705, 785.317 747.029, 786.605 742.069, 795.288 741.462, 796.350 736.178, 804.840 735.660, 805.673 730.038, 813.944 729.629, 814.545 723.657, 822.566 723.380, 822.938 717.042, 830.673 716.921, 830.821 710.264, 838.168 703.419, 844.950 696.400, 851.137 689.219, 856.699 681.892, 861.610 674.434, 865.841 666.863, 869.363 659.195, 872.150 651.451, 874.178 643.651, 875.420 635.817, 875.852 627.971, 875.456 620.138, 874.211 612.343, 872.098 604.612, 869.103 596.972, 865.217 589.452, 860.430 582.081, 854.735 574.888, 848.133 568.075, 840.812 567.902, 840.627 561.641, 832.829 561.155, 832.224 555.436, 824.021 554.678, 822.934 549.481, 814.390 548.499, 812.776 543.805, 803.946 542.649, 801.771 538.443, 792.713 537.158, 789.946 535.716, 786.382 534.454, 783.261 532.055, 777.331 529.136, 769.014 527.919, 765.543 527.365, 763.966 524.474, 754.393 523.115, 749.892 522.105, 745.959 520.260, 738.776 519.331, 735.156 517.230, 725.380 516.033, 719.811 514.304, 709.962 513.242, 703.915 511.873, 694.009 510.977, 687.527 507.874, 678.020 507.682, 677.430 505.080, 669.456 " fill="none" stroke="rgb(0, 0, 0)" stroke-linecap="butt" stroke-linejoin="round" stroke-opacity="1.0" stroke-width="3.0" />
            <path d=" M 674.953, 302.097 667.122, 301.872 659.853, 302.434 659.176, 302.487 651.136, 303.961 643.027, 306.314 634.872, 309.559 626.700, 313.706 618.537, 318.762 610.412, 324.733 602.810, 331.229 602.356, 331.617 595.212, 338.614 594.400, 339.410 587.709, 346.842 586.575, 348.102 580.329, 355.912 578.914, 357.682 573.496, 365.265 573.105, 365.812 571.451, 368.127 566.055, 376.547 565.253, 377.798 564.217, 379.415 562.803, 381.868 561.130, 384.772 557.246, 391.515 556.022, 393.876 554.319, 397.163 550.572, 404.394 546.347, 413.458 544.225, 418.010 542.887, 421.208 539.026, 430.433 538.237, 432.318 534.731, 441.683 532.640, 447.268 529.477, 456.754 527.460, 462.803 524.632, 472.395 522.724, 478.864 520.224, 488.547 518.458, 495.386 516.280, 505.146 514.684, 512.303 512.824, 522.128 511.981, 526.584 511.422, 529.541 509.877, 539.421 508.687, 547.028 507.456, 556.952 506.495, 564.689 505.577, 574.646 504.858, 582.445 504.253, 592.427 503.781, 600.220 503.493, 610.216 503.270, 617.936 503.302, 627.936 503.326, 635.515 503.683, 645.509 503.946, 652.883 504.629, 662.860 505.080, 669.456 504.378, 679.431 503.738, 688.535 " fill="none" stroke="rgb(0, 0, 0)" stroke-linecap="butt" stroke-linejoin="round" stroke-opacity="1.0" stroke-width="3.0" />
            <path d=" M 506.101, 705.445 507.845, 715.292 509.006, 721.842 511.124, 731.616 512.435, 737.664 514.942, 747.344 516.368, 752.849 516.597, 753.604 518.466, 759.742 520.780, 767.343 524.115, 776.770 524.774, 778.631 525.646, 781.097 525.992, 781.945 529.770, 791.204 530.938, 794.068 531.641, 795.569 532.950, 798.363 535.828, 804.508 536.628, 806.217 541.356, 815.029 542.687, 817.510 547.920, 826.031 549.082, 827.922 554.841, 836.097 555.782, 837.432 562.086, 845.194 562.756, 846.020 569.614, 853.298 569.972, 853.678 577.398, 860.399 585.003, 866.181 592.757, 871.025 600.629, 874.939 608.590, 877.934 616.612, 880.022 624.669, 881.218 632.734, 881.544 640.783, 881.019 648.792, 879.666 656.740, 877.511 664.605, 874.580 672.369, 870.900 680.013, 866.498 687.519, 861.405 694.874, 855.650 702.061, 849.261 709.067, 842.269 715.759, 834.838 715.880, 834.704 722.198, 826.952 722.489, 826.596 728.444, 818.563 728.882, 817.972 734.489, 809.693 735.050, 808.864 740.323, 800.367 740.986, 799.300 745.937, 790.611 746.680, 789.308 751.320, 780.450 752.124, 778.915 756.466, 769.907 757.313, 768.150 761.368, 759.008 762.241, 757.039 766.017, 747.779 766.902, 745.609 770.407, 736.244 771.290, 733.885 774.534, 724.426 775.402, 721.894 778.390, 712.351 779.233, 709.660 781.971, 700.042 782.779, 697.207 785.273, 687.523 786.036, 684.560 788.291, 674.817 789.003, 671.742 791.022, 661.948 791.675, 658.777 793.461, 648.937 794.050, 645.687 795.605, 635.808 796.126, 632.496 797.451, 622.584 797.901, 619.226 798.997, 609.286 799.371, 605.900 800.239, 595.937 800.536, 592.539 801.176, 582.560 801.393, 579.167 801.804, 569.176 801.942, 565.805 802.121, 555.807 802.180, 552.477 802.125, 542.477 802.107, 539.203 801.995, 535.378 " fill="none" stroke="rgb(0, 0, 0)" stroke-linecap="butt" stroke-linejoin="round" stroke-opacity="1.0" stroke-width="3.0" />
            <path d=" M 503.738, 688.535 504.503, 694.009 505.887, 703.913 506.101, 705.445 " fill="none" stroke="rgb(0, 0, 0)" stroke-linecap="butt" stroke-linejoin="round" stroke-opacity="1.0" stroke-width="3.0" />
            <path d=" M 816.565, 433.621 815.805, 429.438 813.787, 419.643 813.538, 418.436 811.282, 408.693 811.035, 407.626 808.534, 397.944 808.297, 397.026 805.539, 387.414 805.321, 386.655 802.297, 377.123 802.109, 376.530 798.811, 367.089 798.663, 366.666 795.080, 357.329 794.984, 357.080 791.075, 347.789 786.937, 338.811 782.572, 330.167 777.981, 321.878 773.166, 313.965 768.131, 306.450 762.880, 299.350 757.419, 292.682 751.752, 286.466 745.885, 280.722 739.824, 275.470 733.575, 270.735 727.145, 266.538 720.542, 262.905 713.775, 259.854 706.855, 257.401 699.792, 255.563 692.598, 254.357 685.285, 253.800 677.867, 253.911 676.853, 254.018 670.356, 254.707 662.770, 256.208 655.124, 258.430 647.435, 261.381 639.721, 265.066 632.000, 269.492 624.292, 274.663 616.617, 280.582 611.215, 285.309 608.995, 287.252 601.866, 294.265 601.450, 294.674 594.716, 302.067 594.006, 302.846 587.661, 310.576 586.685, 311.764 585.846, 312.892 579.879, 320.916 579.511, 321.411 576.795, 325.426 572.505, 331.771 570.225, 335.468 569.767, 336.212 565.690, 342.824 563.350, 346.981 560.916, 351.304 559.284, 354.204 559.089, 354.550 554.516, 363.443 554.247, 363.968 552.726, 366.925 552.585, 367.226 548.335, 376.279 546.624, 379.924 542.691, 389.118 541.497, 391.907 540.808, 393.517 537.183, 402.837 537.104, 403.041 535.302, 407.674 531.977, 417.105 530.127, 422.355 527.094, 431.883 525.301, 437.517 522.552, 447.131 520.841, 453.115 518.370, 462.805 516.764, 469.104 514.568, 478.860 513.087, 485.435 511.161, 495.247 509.824, 502.057 508.167, 511.919 506.991, 518.920 505.917, 526.575 504.600, 535.969 503.479, 545.906 502.663, 553.149 501.807, 563.112 501.180, 570.403 500.589, 580.385 500.158, 587.674 499.834, 597.668 499.599, 604.906 499.545, 614.905 499.506, 622.042 499.726, 632.039 499.879, 639.027 500.375, 649.014 500.712, 655.806 501.490, 665.775 502.001, 672.326 503.067, 682.269 503.738, 688.535 504.495, 694.047 505.856, 703.954 505.916, 704.384 506.101, 705.445 507.761, 715.306 508.521, 719.825 510.497, 729.628 511.542, 734.816 513.840, 744.548 514.964, 749.312 516.371, 754.470 518.137, 760.943 518.773, 763.276 521.751, 772.823 522.951, 776.672 524.308, 780.506 525.491, 783.849 527.479, 789.468 530.993, 798.270 532.232, 801.374 532.338, 801.637 535.071, 807.727 537.508, 813.153 542.011, 822.082 542.972, 823.987 547.898, 832.689 548.709, 834.121 554.071, 842.562 554.695, 843.544 560.507, 851.682 560.908, 852.244 567.180, 860.032 567.326, 860.213 573.927, 867.445 580.691, 873.936 587.598, 879.682 594.628, 884.680 601.761, 888.934 608.975, 892.454 616.251, 895.253 622.590, 897.062 623.570, 897.342 630.914, 898.733 638.266, 899.439 645.610, 899.472 652.931, 898.845 660.215, 897.570 667.447, 895.668 674.613, 893.160 681.700, 890.067 688.698, 886.411 695.594, 882.211 702.378, 877.486 709.042, 872.253 715.575, 866.529 721.969, 860.333 728.216, 853.686 734.309, 846.612 740.243, 839.133 746.010, 831.267 751.606, 823.035 756.945, 814.579 757.025, 814.453 762.090, 805.831 762.262, 805.539 767.060, 796.766 767.311, 796.308 771.851, 787.398 772.168, 786.778 776.460, 777.746 776.830, 776.968 780.883, 767.826 781.294, 766.898 785.115, 757.656 785.559, 756.585 789.155, 747.254 789.620, 746.046 792.996, 736.634 793.476, 735.298 796.637, 725.811 797.123, 724.354 800.074, 714.799 800.559, 713.229 803.302, 703.613 803.779, 701.938 806.319, 692.266 806.784, 690.495 809.124, 680.773 809.570, 678.918 811.716, 669.151 812.139, 667.220 814.092, 657.413 814.489, 655.418 816.251, 645.574 816.618, 643.524 818.192, 633.648 818.526, 631.552 819.910, 621.648 820.208, 619.516 821.404, 609.588 821.664, 607.429 822.672, 597.480 822.892, 595.306 823.713, 585.339 823.893, 583.159 824.527, 573.179 824.666, 571.003 825.113, 561.013 825.210, 558.852 825.467, 548.855 825.523, 546.718 825.590, 536.718 825.604, 534.615 825.479, 524.616 825.453, 522.558 825.429, 521.800 " fill="none" stroke="rgb(0, 0, 0)" stroke-linecap="butt" stroke-linejoin="round" stroke-opacity="1.0" stroke-width="3.0" />
            <path d=" M 675.644, 254.036 668.124, 254.833 660.527, 256.334 652.871, 258.554 645.172, 261.503 637.449, 265.185 629.719, 269.608 622.002, 274.774 614.318, 280.688 609.915, 284.533 606.688, 287.352 599.552, 294.357 599.135, 294.766 592.394, 302.152 591.683, 302.931 585.330, 310.654 584.355, 311.839 580.175, 317.449 577.174, 321.476 571.564, 329.755 570.161, 331.825 569.875, 332.289 569.821, 332.375 569.354, 333.133 564.098, 341.640 563.340, 342.867 563.077, 343.333 560.640, 347.654 559.022, 350.523 556.734, 354.581 553.970, 359.946 552.303, 363.181 550.365, 366.942 546.110, 375.992 544.259, 379.927 541.198, 387.068 538.439, 393.505 534.808, 402.823 532.929, 407.645 529.599, 417.075 527.750, 422.310 525.985, 427.846 522.921, 437.455 520.168, 447.068 518.459, 453.036 515.985, 462.725 514.381, 469.006 512.181, 478.761 510.702, 485.318 508.774, 495.130 507.439, 501.921 505.780, 511.782 504.605, 518.764 503.509, 526.571 502.215, 535.794 501.093, 545.731 500.278, 552.954 499.422, 562.917 498.797, 570.188 498.206, 580.171 497.776, 587.440 497.453, 597.434 497.220, 604.652 497.167, 614.652 497.129, 621.769 497.351, 631.767 497.505, 638.735 498.004, 648.723 498.342, 655.496 499.123, 665.465 499.635, 671.998 500.704, 681.940 501.377, 688.190 502.742, 698.096 503.101, 700.698 503.559, 704.022 505.228, 713.882 506.170, 719.447 508.151, 729.249 509.196, 734.422 511.500, 744.153 512.625, 748.905 515.285, 758.633 516.440, 762.855 517.031, 764.746 520.016, 774.290 520.625, 776.238 523.393, 784.042 524.564, 787.344 525.160, 789.023 528.875, 798.307 530.025, 801.181 530.201, 801.571 531.485, 804.424 534.350, 810.792 535.203, 812.687 539.715, 821.611 540.675, 823.512 545.610, 832.210 546.421, 833.638 551.791, 842.074 552.415, 843.054 558.235, 851.186 558.637, 851.748 564.917, 859.530 565.064, 859.712 571.674, 866.941 578.448, 873.428 585.364, 879.172 592.404, 884.168 599.546, 888.422 606.771, 891.943 614.057, 894.743 621.385, 896.834 " fill="none" stroke="rgb(0, 0, 0)" stroke-linecap="butt" stroke-linejoin="round" stroke-opacity="1.0" stroke-width="3.0" />
            <path d=" M 677.867, 253.911 675.644, 254.036 " fill="none" stroke="rgb(0, 0, 0)" stroke-linecap="butt" stroke-linejoin="round" stroke-opacity="1.0" stroke-width="3.0" />
            <path d=" M 621.385, 896.834 623.570, 897.342 " fill="none" stroke="rgb(0, 0, 0)" stroke-linecap="butt" stroke-linejoin="round" stroke-opacity="1.0" stroke-width="3.0" />
            <path d=" M 485.903, 691.783 487.294, 701.685 488.450, 709.920 490.148, 719.774 491.492, 727.572 493.507, 737.367 493.707, 738.338 495.013, 744.687 495.417, 746.363 497.759, 756.085 498.996, 761.215 500.667, 767.220 503.349, 776.854 503.420, 777.110 504.624, 780.893 506.569, 787.004 508.005, 791.514 508.265, 792.332 509.696, 796.291 510.834, 799.441 513.509, 806.843 515.427, 811.542 516.586, 814.381 519.128, 820.611 519.137, 820.630 520.390, 823.357 522.860, 828.736 524.098, 831.431 524.738, 832.824 525.097, 833.605 527.326, 837.923 531.393, 845.804 536.407, 854.456 537.988, 857.185 543.446, 865.564 544.858, 867.732 550.773, 875.795 551.976, 877.435 558.361, 885.131 559.317, 886.283 566.179, 893.557 566.855, 894.274 574.196, 901.064 574.565, 901.404 582.421, 907.677 590.400, 913.097 598.478, 917.671 606.633, 921.411 614.842, 924.327 623.084, 926.436 627.400, 927.496 635.633, 928.806 643.860, 929.340 652.062, 929.118 660.224, 928.160 668.327, 926.487 676.358, 924.122 684.302, 921.087 692.145, 917.406 699.875, 913.102 707.482, 908.198 714.953, 902.719 722.279, 896.688 729.450, 890.129 736.460, 883.065 743.176, 875.655 743.299, 875.519 749.696, 867.833 749.962, 867.514 756.050, 859.581 756.440, 859.073 762.230, 850.919 762.729, 850.217 768.232, 841.866 768.824, 840.967 774.048, 832.441 774.719, 831.346 779.675, 822.661 780.410, 821.373 785.107, 812.545 785.892, 811.069 790.340, 802.112 791.164, 800.453 795.369, 791.380 796.220, 789.544 800.191, 780.367 801.058, 778.361 804.802, 769.089 805.676, 766.922 809.199, 757.563 810.071, 755.245 813.379, 745.808 814.241, 743.346 817.339, 733.838 818.184, 731.243 821.076, 721.671 821.898, 718.952 824.589, 709.321 825.381, 706.489 827.875, 696.805 828.631, 693.870 830.932, 684.138 831.648, 681.109 833.758, 671.334 834.430, 668.222 836.352, 658.408 836.976, 655.223 838.711, 645.375 839.284, 642.128 840.835, 632.249 841.353, 628.949 842.721, 619.043 843.182, 615.703 844.368, 605.773 844.771, 602.401 845.775, 592.452 846.118, 589.059 846.940, 579.093 847.221, 575.690 847.862, 565.710 848.081, 562.307 848.540, 552.318 848.695, 548.926 848.971, 538.930 849.064, 535.558 849.155, 525.559 849.185, 522.219 849.090, 512.220 849.059, 508.923 848.775, 498.927 848.683, 495.682 848.209, 485.693 848.058, 482.513 847.389, 472.535 847.181, 469.428 846.316, 459.466 846.053, 456.444 844.986, 446.501 844.672, 443.574 843.400, 433.655 843.038, 430.835 841.555, 420.946 841.149, 418.242 839.450, 408.387 839.006, 405.811 837.084, 395.997 836.607, 393.559 834.456, 383.793 833.952, 381.502 831.565, 371.791 831.041, 369.658 828.409, 360.010 827.873, 358.044 824.988, 348.469 824.449, 346.679 821.301, 337.188 820.769, 335.582 817.347, 326.186 816.833, 324.772 813.127, 315.485 812.642, 314.269 808.638, 305.106 808.196, 304.094 803.883, 295.072 803.498, 294.266 798.862, 285.406 798.549, 284.808 793.576, 276.133 793.352, 275.742 788.026, 267.278 787.908, 267.090 782.220, 258.875 776.294, 251.120 770.132, 243.850 763.740, 237.088 757.123, 230.859 750.288, 225.187 743.242, 220.097 735.992, 215.615 728.548, 211.764 720.920, 208.569 713.118, 206.054 705.155, 204.243 697.043, 203.159 688.796, 202.824 680.430, 203.259 676.009, 203.607 667.517, 204.833 658.941, 206.864 650.299, 209.719 641.611, 213.412 632.897, 217.954 624.398, 223.223 624.182, 223.357 616.071, 229.206 615.487, 229.627 607.776, 235.994 606.837, 236.769 599.530, 243.596 598.258, 244.785 591.354, 252.019 589.776, 253.672 583.268, 261.264 581.899, 262.863 581.417, 263.424 575.298, 271.333 573.210, 274.033 567.470, 282.221 565.182, 285.484 563.105, 288.744 562.506, 289.685 559.262, 294.777 558.809, 295.489 557.361, 297.761 556.288, 299.612 555.667, 300.682 554.703, 302.344 551.549, 307.785 549.978, 310.493 549.776, 310.841 549.551, 311.268 547.953, 314.293 543.282, 323.135 542.456, 324.699 541.566, 326.548 539.991, 329.820 536.972, 336.094 535.427, 339.304 531.416, 348.465 528.719, 354.622 527.448, 357.818 523.751, 367.110 522.358, 370.614 518.968, 380.022 516.369, 387.235 513.278, 396.746 510.778, 404.441 507.980, 414.041 505.608, 422.178 503.097, 431.858 500.882, 440.394 498.652, 450.142 497.938, 453.265 496.619, 459.029 495.699, 463.652 493.747, 473.460 492.838, 478.025 491.160, 487.883 489.555, 497.317 488.150, 507.217 488.122, 507.411 487.326, 513.022 487.160, 514.188 486.808, 516.667 486.784, 516.840 486.584, 518.586 486.484, 519.465 486.418, 520.046 486.252, 521.497 485.117, 531.432 484.536, 536.527 483.671, 546.490 482.820, 556.311 482.226, 566.294 481.642, 576.123 481.321, 586.118 481.006, 595.894 480.960, 605.894 480.914, 615.556 481.145, 625.553 481.363, 635.040 481.875, 645.027 482.315, 653.605 482.349, 654.282 483.148, 664.250 483.461, 668.159 483.866, 673.217 484.957, 683.157 485.903, 691.783 " fill="none" stroke="rgb(0, 0, 0)" stroke-linecap="butt" stroke-linejoin="round" stroke-opacity="1.0" stroke-width="3.0" />
            <path d=" M 680.430, 203.259 671.962, 204.484 663.408, 206.516 654.787, 209.374 646.120, 213.071 637.428, 217.619 628.938, 222.903 628.733, 223.030 620.633, 228.895 620.058, 229.311 612.359, 235.693 611.427, 236.465 604.134, 243.307 602.866, 244.495 595.976, 251.743 594.402, 253.399 587.909, 261.004 586.060, 263.170 584.445, 265.266 578.341, 273.187 577.868, 273.800 572.143, 281.999 569.855, 285.275 564.497, 293.718 564.106, 294.334 563.530, 295.241 562.048, 297.577 559.484, 302.015 556.992, 306.329 555.413, 309.062 554.476, 310.685 550.340, 318.543 548.730, 321.602 547.167, 324.572 542.844, 333.589 540.149, 339.209 537.820, 344.546 533.821, 353.712 533.450, 354.561 529.765, 363.857 527.097, 370.587 523.718, 379.999 521.116, 387.247 518.659, 394.834 515.578, 404.348 515.531, 404.491 512.742, 414.094 510.367, 422.269 507.863, 431.950 505.644, 440.526 503.421, 450.276 501.384, 459.205 499.437, 469.013 497.605, 478.244 495.931, 488.103 495.540, 490.409 494.322, 497.580 492.920, 507.482 492.904, 507.595 491.607, 516.750 491.550, 517.149 491.276, 519.550 490.820, 523.550 489.688, 533.485 489.300, 536.882 489.230, 537.694 488.366, 547.657 487.581, 556.711 487.526, 557.644 486.932, 567.627 486.400, 576.568 486.242, 581.454 485.919, 591.449 485.759, 596.384 485.719, 604.469 485.669, 614.469 485.661, 616.090 485.887, 626.087 486.103, 635.618 486.610, 645.606 487.081, 654.903 487.873, 664.872 488.132, 668.137 488.373, 671.163 488.589, 673.879 489.086, 678.445 489.732, 684.375 489.828, 685.254 490.616, 692.485 491.998, 702.389 492.600, 706.709 492.851, 708.508 493.151, 710.660 494.840, 720.517 496.181, 728.350 496.317, 729.014 498.322, 738.811 499.690, 745.499 502.021, 755.224 503.659, 762.060 506.328, 771.697 508.069, 777.986 508.831, 780.392 510.356, 785.208 512.899, 793.237 516.283, 802.647 517.309, 805.499 518.127, 807.775 518.451, 808.573 522.215, 817.838 522.284, 818.008 523.729, 821.566 524.479, 823.206 525.727, 825.936 528.782, 832.617 529.681, 834.583 534.251, 843.478 535.959, 846.801 540.956, 855.462 542.535, 858.199 547.977, 866.589 549.386, 868.761 555.286, 876.836 556.484, 878.476 562.855, 886.185 563.805, 887.335 570.654, 894.622 571.323, 895.334 578.652, 902.137 579.011, 902.470 586.847, 908.747 594.804, 914.168 602.861, 918.743 610.993, 922.480 619.180, 925.393 627.400, 927.496 " fill="none" stroke="rgb(0, 0, 0)" stroke-linecap="butt" stroke-linejoin="round" stroke-opacity="1.0" stroke-width="3.0" />
            <path d=" M 729.444, 518.260 728.567, 518.396 727.685, 518.756 726.815, 519.334 725.972, 520.122 725.740, 520.419 725.203, 521.108 724.524, 522.277 723.915, 523.606 723.384, 525.074 722.942, 526.655 722.676, 527.937 722.596, 528.322 722.353, 530.047 722.334, 530.285 722.216, 531.799 722.187, 533.550 722.268, 535.268 " fill="none" stroke="rgb(0, 0, 0)" stroke-linecap="butt" stroke-linejoin="round" stroke-opacity="1.0" stroke-width="3.0" />
            <path d=" M 728.771, 528.321 729.031, 528.356 729.280, 528.482 729.512, 528.695 729.719, 528.989 729.896, 529.356 730.039, 529.787 730.144, 530.268 730.207, 530.788 " fill="none" stroke="rgb(0, 0, 0)" stroke-linecap="butt" stroke-linejoin="round" stroke-opacity="1.0" stroke-width="3.0" />
            <path d=" M 727.183, 530.595 730.207, 530.788 738.916, 525.874 747.625, 520.960 754.726, 516.953 " fill="none" stroke="rgb(0, 0, 0)" stroke-linecap="butt" stroke-linejoin="round" stroke-opacity="1.0" stroke-width="3.0" />
            <path d=" M 802.619, 522.545 801.783, 522.690 800.942, 523.065 800.109, 523.666 799.299, 524.482 799.077, 524.789 798.562, 525.502 797.914, 526.711 797.329, 528.086 796.818, 529.602 796.391, 531.235 796.131, 532.559 796.053, 532.956 795.812, 534.736 795.793, 534.982 795.671, 536.545 795.633, 538.350 795.698, 540.121 " fill="none" stroke="rgb(0, 0, 0)" stroke-linecap="butt" stroke-linejoin="round" stroke-opacity="1.0" stroke-width="3.0" />
            <path d=" M 801.887, 532.921 802.133, 532.956 802.367, 533.085 802.584, 533.303 802.778, 533.605 802.943, 533.983 803.076, 534.426 803.171, 534.922 803.227, 535.457 " fill="none" stroke="rgb(0, 0, 0)" stroke-linecap="butt" stroke-linejoin="round" stroke-opacity="1.0" stroke-width="3.0" />
            <path d=" M 779.046, 479.524 779.182, 479.446 779.330, 479.392 779.486, 479.362 779.647, 479.356 779.868, 479.388 780.083, 479.464 780.286, 479.581 780.468, 479.736 780.622, 479.923 780.744, 480.136 780.828, 480.370 780.869, 480.619 780.864, 480.853 780.816, 481.076 780.728, 481.280 780.602, 481.458 780.444, 481.602 780.257, 481.709 " fill="none" stroke="rgb(0, 0, 0)" stroke-linecap="butt" stroke-linejoin="round" stroke-opacity="1.0" stroke-width="3.0" />
            <path d=" M 779.046, 479.524 778.987, 479.564 778.812, 479.714 778.672, 479.897 778.642, 479.946 778.537, 480.161 778.477, 480.396 778.468, 480.647 778.507, 480.880 778.519, 480.934 778.604, 481.153 778.732, 481.349 778.896, 481.517 778.939, 481.552 779.126, 481.677 779.185, 481.702 779.379, 481.778 779.436, 481.792 779.507, 481.802 779.657, 481.821 779.700, 481.824 779.750, 481.824 779.801, 481.823 779.851, 481.819 779.900, 481.812 779.945, 481.804 779.986, 481.795 780.141, 481.752 780.206, 481.731 780.257, 481.709 " fill="none" stroke="rgb(0, 0, 0)" stroke-linecap="butt" stroke-linejoin="round" stroke-opacity="1.0" stroke-width="3.0" />
            <path d=" M 776.680, 477.416 777.103, 483.490 781.110, 483.661 782.786, 483.733 783.429, 483.221 782.515, 477.566 780.256, 477.408 777.110, 477.187 776.680, 477.416 " fill="none" stroke="rgb(0, 0, 0)" stroke-linecap="butt" stroke-linejoin="round" stroke-opacity="1.0" stroke-width="3.0" />
            <path d=" M 782.786, 483.733 782.368, 477.644 " fill="none" stroke="rgb(0, 0, 0)" stroke-linecap="butt" stroke-linejoin="round" stroke-opacity="1.0" stroke-width="3.0" />
            <path d=" M 782.515, 477.566 782.368, 477.644 776.680, 477.416 " fill="none" stroke="rgb(0, 0, 0)" stroke-linecap="butt" stroke-linejoin="round" stroke-opacity="1.0" stroke-width="3.0" />
            <path d=" M 741.276, 508.592 738.747, 508.591 728.749, 508.788 727.266, 508.817 717.273, 509.195 715.803, 509.251 705.818, 509.791 704.354, 509.870 694.377, 510.553 692.913, 510.654 682.945, 511.462 681.475, 511.582 671.517, 512.499 670.035, 512.635 660.086, 513.642 658.589, 513.793 648.648, 514.873 647.131, 515.038 637.196, 516.175 635.657, 516.351 625.727, 517.529 624.161, 517.714 614.234, 518.917 612.639, 519.110 602.713, 520.322 601.086, 520.520 591.159, 521.726 589.496, 521.928 579.567, 523.114 577.866, 523.317 578.166, 513.322 578.302, 508.790 578.487, 498.792 578.572, 494.225 578.643, 484.225 578.675, 479.640 578.630, 469.641 578.610, 465.056 578.450, 455.057 578.377, 450.490 578.101, 440.494 577.976, 435.961 577.583, 425.969 577.407, 421.489 576.895, 411.503 576.668, 407.094 576.457, 403.763 " fill="none" stroke="rgb(0, 0, 0)" stroke-linecap="butt" stroke-linejoin="round" stroke-opacity="1.0" stroke-width="3.0" />
            <path d=" M 581.899, 262.863 580.740, 261.769 573.923, 254.453 573.434, 253.928 567.075, 246.211 566.495, 245.508 560.591, 237.438 559.947, 236.558 554.494, 228.176 553.810, 227.124 548.803, 218.468 548.100, 217.251 547.818, 216.702 543.254, 207.804 542.832, 206.981 541.741, 204.573 541.624, 204.316 538.015, 196.352 " fill="none" stroke="rgb(0, 0, 0)" stroke-linecap="butt" stroke-linejoin="round" stroke-opacity="1.0" stroke-width="3.0" />
            <path d=" M 538.015, 196.352 537.965, 196.236 534.233, 187.529 530.295, 179.316 529.550, 177.935 526.206, 171.748 525.566, 170.707 521.972, 164.865 518.144, 159.479 517.597, 158.709 513.954, 154.356 513.088, 153.321 508.454, 148.741 503.702, 145.009 500.069, 142.885 498.843, 142.168 497.129, 141.507 493.888, 140.259 488.848, 139.319 483.737, 139.385 478.569, 140.497 473.360, 142.687 470.672, 144.379 469.746, 144.962 468.126, 145.982 464.363, 149.164 462.887, 150.412 457.662, 156.000 452.969, 162.114 452.470, 162.763 451.690, 163.970 447.335, 170.711 446.849, 171.590 442.278, 179.853 437.956, 188.870 437.324, 190.188 433.458, 199.411 432.496, 201.709 429.037, 211.091 427.818, 214.396 424.724, 223.905 423.317, 228.229 420.553, 237.839 419.018, 243.175 416.553, 252.867 414.944, 259.192 412.754, 268.949 411.120, 276.228 409.185, 286.039 407.570, 294.226 405.873, 304.081 404.317, 313.118 402.843, 323.008 401.381, 332.824 400.119, 342.744 398.857, 352.664 398.781, 353.260 397.722, 363.204 396.663, 373.148 396.536, 374.335 395.672, 384.298 394.808, 394.260 394.661, 395.951 393.985, 405.928 393.309, 415.905 393.167, 418.002 392.676, 427.990 392.184, 437.978 392.066, 440.379 392.093, 440.467 395.003, 450.034 397.913, 459.601 397.974, 459.802 398.575, 461.693 401.604, 471.223 403.955, 478.618 407.107, 488.108 410.011, 496.852 413.289, 506.300 416.144, 514.531 419.550, 523.933 422.355, 531.677 425.892, 541.031 428.646, 548.315 432.316, 557.618 435.019, 564.468 438.825, 573.715 441.476, 580.155 445.420, 589.345 448.019, 595.399 452.102, 604.527 454.649, 610.219 458.873, 619.283 461.368, 624.635 465.735, 633.631 468.178, 638.664 472.689, 647.589 475.082, 652.325 479.736, 661.176 482.081, 665.636 483.461, 668.159 " fill="none" stroke="rgb(0, 0, 0)" stroke-linecap="butt" stroke-linejoin="round" stroke-opacity="1.0" stroke-width="3.0" />
            <path d=" M 481.014, 648.865 482.315, 653.605 " fill="none" stroke="rgb(0, 0, 0)" stroke-linecap="butt" stroke-linejoin="round" stroke-opacity="1.0" stroke-width="3.0" />
            <path d=" M 362.581, 431.503 358.024, 440.405 355.518, 445.299 " fill="none" stroke="rgb(0, 0, 0)" stroke-linecap="butt" stroke-linejoin="round" stroke-opacity="1.0" stroke-width="3.0" />
            <path d=" M 470.672, 144.379 465.905, 144.660 " fill="none" stroke="rgb(0, 0, 0)" stroke-linecap="butt" stroke-linejoin="round" stroke-opacity="1.0" stroke-width="3.0" />
            <path d=" M 536.108, 499.821 541.046, 500.038 534.681, 505.109 " fill="none" stroke="rgb(0, 0, 0)" stroke-linecap="butt" stroke-linejoin="round" stroke-opacity="1.0" stroke-width="3.0" />
            <path d=" M 790.839, 539.800 791.018, 546.731 " fill="none" stroke="rgb(0, 0, 0)" stroke-linecap="butt" stroke-linejoin="round" stroke-opacity="1.0" stroke-width="3.0" />
            <path d=" M 794.775, 522.086 794.643, 519.655 " fill="none" stroke="rgb(0, 0, 0)" stroke-linecap="butt" stroke-linejoin="round" stroke-opacity="1.0" stroke-width="3.0" />
            <path d=" M 800.269, 520.872 800.230, 520.160 " fill="none" stroke="rgb(0, 0, 0)" stroke-linecap="butt" stroke-linejoin="round" stroke-opacity="1.0" stroke-width="3.0" />
        </g>
    </g>
</svg>
