<?xml version='1.0' encoding='ascii'?>
<svg xmlns="http://www.w3.org/2000/svg" height="1080" version="1.1" width="1080">
    <g id="View Layer_LineSet" inkscape:groupmode="lineset" inkscape:label="View Layer_LineSet" xmlns:inkscape="http://www.inkscape.org/namespaces/inkscape">
        <g id="strokes" inkscape:groupmode="layer" inkscape:label="strokes" xmlns:inkscape="http://www.inkscape.org/namespaces/inkscape">
            <path d=" M 565.411, 507.603 565.338, 508.663 " fill="none" stroke="rgb(0, 0, 0)" stroke-linecap="butt" stroke-linejoin="round" stroke-opacity="1.0" stroke-width="3.0" />
            <path d=" M 355.188, 452.798 361.592, 451.654 " fill="none" stroke="rgb(0, 0, 0)" stroke-linecap="butt" stroke-linejoin="round" stroke-opacity="1.0" stroke-width="3.0" />
            <path d=" M 379.529, 451.817 389.469, 452.909 391.521, 453.134 " fill="none" stroke="rgb(0, 0, 0)" stroke-linecap="butt" stroke-linejoin="round" stroke-opacity="1.0" stroke-width="3.0" />
            <path d=" M 391.521, 453.134 387.738, 443.877 383.954, 434.621 383.215, 432.812 " fill="none" stroke="rgb(0, 0, 0)" stroke-linecap="butt" stroke-linejoin="round" stroke-opacity="1.0" stroke-width="3.0" />
            <path d=" M 464.968, 147.393 460.436, 148.335 455.854, 150.381 451.238, 153.562 446.604, 157.908 441.969, 163.446 439.335, 167.295 438.473, 168.556 437.351, 170.195 432.771, 178.168 428.361, 187.143 428.248, 187.373 424.331, 196.574 423.804, 197.813 420.315, 207.185 419.461, 209.480 416.347, 218.983 415.241, 222.357 412.459, 231.963 411.168, 236.420 408.684, 246.107 407.266, 251.638 405.050, 261.390 403.556, 267.965 401.585, 277.769 400.062, 285.347 398.317, 295.194 396.806, 303.724 395.271, 313.605 393.809, 323.023 392.471, 332.933 391.133, 342.843 391.090, 343.161 389.938, 353.094 388.785, 363.028 388.667, 364.049 387.693, 374.001 386.718, 383.953 386.558, 385.589 385.754, 395.557 384.950, 405.524 384.776, 407.677 384.137, 417.657 383.497, 427.636 383.333, 430.202 383.215, 432.812 381.311, 442.629 379.529, 451.817 " fill="none" stroke="rgb(0, 0, 0)" stroke-linecap="butt" stroke-linejoin="round" stroke-opacity="1.0" stroke-width="3.0" />
            <path d=" M 528.195, 720.865 528.768, 718.089 530.630, 708.264 531.076, 705.910 532.787, 696.057 533.249, 693.397 534.818, 683.520 535.286, 680.575 536.723, 670.679 537.188, 667.472 538.500, 657.558 538.602, 656.785 538.955, 654.111 540.147, 644.182 540.587, 640.519 541.665, 630.577 542.084, 626.716 543.052, 616.764 543.445, 612.727 544.309, 602.764 544.672, 598.572 545.434, 588.601 545.765, 584.274 546.427, 574.296 546.723, 569.851 547.289, 559.867 547.547, 555.325 548.018, 545.336 548.237, 540.715 548.616, 530.722 548.793, 526.040 555.346, 526.061 557.194, 526.067 557.311, 526.068 559.096, 526.074 562.668, 526.085 563.512, 526.088 564.456, 526.091 567.028, 526.100 577.028, 526.133 577.770, 526.135 578.054, 516.139 578.190, 511.346 578.356, 501.347 578.436, 496.523 578.485, 486.523 578.509, 481.688 578.441, 471.688 578.409, 466.860 578.224, 456.862 578.134, 452.059 577.831, 442.064 577.686, 437.305 577.262, 427.314 577.063, 422.618 576.517, 412.633 576.264, 408.020 575.853, 401.904 " fill="none" stroke="rgb(0, 0, 0)" stroke-linecap="butt" stroke-linejoin="round" stroke-opacity="1.0" stroke-width="3.0" />
            <path d=" M 572.927, 406.930 573.256, 411.764 573.807, 421.749 574.028, 425.742 574.456, 435.733 574.631, 439.810 574.938, 449.805 575.065, 453.946 575.253, 463.944 575.331, 468.129 575.400, 478.129 575.429, 482.341 575.380, 492.340 575.359, 496.559 575.193, 506.558 575.123, 510.766 575.092, 511.860 574.997, 512.516 574.895, 513.133 574.785, 513.707 574.670, 514.234 574.549, 514.713 574.422, 515.139 574.292, 515.512 574.157, 515.828 574.020, 516.087 573.881, 516.286 573.740, 516.426 573.599, 516.504 573.458, 516.520 573.319, 516.475 569.348, 514.304 569.204, 513.018 569.030, 511.868 568.830, 510.872 568.607, 510.047 568.364, 509.408 568.105, 508.965 567.835, 508.727 567.557, 508.699 567.411, 508.697 565.390, 508.664 565.338, 508.663 564.852, 508.655 563.897, 508.640 563.065, 508.627 559.495, 508.569 557.711, 508.540 557.619, 508.539 557.167, 508.531 556.877, 508.713 556.590, 509.103 556.310, 509.694 556.043, 510.478 555.793, 511.441 555.701, 511.893 555.564, 512.568 555.360, 513.840 555.185, 515.235 555.042, 516.728 554.933, 518.296 554.861, 519.910 555.515, 520.235 556.525, 520.736 557.348, 520.751 557.455, 520.753 557.631, 520.756 559.239, 520.784 562.810, 520.847 563.642, 520.862 564.597, 520.879 565.053, 520.887 566.929, 520.920 566.953, 520.410 566.990, 519.922 567.041, 519.468 567.103, 519.062 567.174, 518.714 567.205, 518.608 567.254, 518.434 567.338, 518.230 567.426, 518.106 567.515, 518.067 " fill="none" stroke="rgb(0, 0, 0)" stroke-linecap="butt" stroke-linejoin="round" stroke-opacity="1.0" stroke-width="3.0" />
            <path d=" M 567.986, 521.465 574.719, 524.941 577.770, 526.135 " fill="none" stroke="rgb(0, 0, 0)" stroke-linecap="butt" stroke-linejoin="round" stroke-opacity="1.0" stroke-width="3.0" />
            <path d=" M 389.466, 213.228 386.592, 222.807 386.542, 222.971 383.970, 232.634 382.839, 236.883 380.534, 246.614 379.270, 251.954 377.207, 261.739 375.857, 268.141 374.012, 277.969 372.618, 285.393 370.974, 295.257 369.575, 303.653 368.117, 313.546 366.746, 322.852 365.462, 332.770 364.178, 342.687 364.149, 342.911 363.029, 352.848 361.909, 362.785 361.801, 363.742 360.838, 373.695 359.874, 383.649 359.719, 385.252 358.904, 395.219 358.090, 405.185 357.915, 407.338 357.245, 417.315 356.575, 427.293 356.401, 429.891 355.872, 439.877 355.343, 449.863 355.188, 452.798 354.844, 462.792 354.499, 472.786 354.392, 475.896 354.206, 485.894 354.021, 495.893 353.962, 499.085 353.935, 509.085 353.908, 519.085 353.899, 522.243 354.032, 532.242 354.165, 542.241 354.205, 545.248 354.500, 555.244 354.795, 565.239 354.876, 567.980 355.337, 577.970 355.799, 587.959 355.908, 590.324 356.540, 600.304 357.172, 610.284 357.291, 612.169 358.102, 622.136 358.912, 632.103 359.018, 633.407 360.015, 643.357 361.012, 653.307 361.075, 653.940 362.269, 663.869 363.448, 673.679 364.851, 683.581 366.120, 692.541 367.749, 702.407 369.076, 710.450 370.198, 716.339 " fill="none" stroke="rgb(0, 0, 0)" stroke-linecap="butt" stroke-linejoin="round" stroke-opacity="1.0" stroke-width="3.0" />
            <path d=" M 493.991, 739.359 493.463, 741.253 490.547, 750.818 490.418, 751.241 487.237, 760.748 483.925, 769.743 480.486, 778.192 476.922, 786.062 473.238, 793.315 469.440, 799.917 465.534, 805.831 461.524, 811.019 457.420, 815.443 454.109, 818.305 " fill="none" stroke="rgb(0, 0, 0)" stroke-linecap="butt" stroke-linejoin="round" stroke-opacity="1.0" stroke-width="3.0" />
            <path d=" M 391.761, 447.987 391.521, 453.134 391.195, 463.129 390.868, 473.123 390.768, 476.176 390.602, 486.175 390.435, 496.173 390.383, 499.309 390.376, 509.309 390.370, 519.309 390.368, 522.412 390.522, 532.411 390.675, 542.410 390.721, 545.364 391.037, 555.359 391.353, 565.354 391.439, 568.046 391.919, 578.035 392.400, 588.023 392.512, 590.344 393.162, 600.323 393.811, 610.302 393.931, 612.146 394.755, 622.112 395.579, 632.078 395.684, 633.347 396.689, 643.297 397.695, 653.246 397.755, 653.849 398.950, 663.777 400.128, 673.561 401.523, 683.463 402.782, 692.401 404.391, 702.271 405.699, 710.294 407.539, 720.123 408.858, 727.176 410.947, 736.955 412.236, 742.994 414.599, 752.711 415.812, 757.700 418.478, 767.338 419.562, 771.258 422.568, 780.795 423.465, 783.641 426.856, 793.049 427.498, 794.832 431.330, 804.069 431.640, 804.818 435.870, 813.596 440.166, 821.173 442.290, 824.294 442.569, 824.705 444.511, 827.559 448.886, 832.768 453.272, 836.823 457.655, 839.751 462.020, 841.581 466.351, 842.344 470.636, 842.078 474.864, 840.820 479.024, 838.608 483.107, 835.482 487.104, 831.483 487.516, 830.973 491.007, 826.654 494.810, 821.032 498.506, 814.660 502.090, 807.579 505.559, 799.828 508.602, 792.206 " fill="none" stroke="rgb(0, 0, 0)" stroke-linecap="butt" stroke-linejoin="round" stroke-opacity="1.0" stroke-width="3.0" />
            <path d=" M 470.256, 824.014 466.221, 824.062 462.943, 823.313 462.157, 823.134 458.078, 821.197 454.109, 818.305 453.997, 818.224 449.927, 814.191 445.885, 809.075 441.886, 802.856 437.947, 795.524 434.085, 787.073 430.424, 777.767 430.318, 777.498 427.086, 768.035 426.666, 766.805 423.808, 757.222 423.147, 755.007 420.619, 745.332 419.780, 742.124 417.546, 732.377 416.585, 728.181 414.616, 718.377 413.580, 713.214 411.852, 703.364 410.783, 697.268 409.277, 687.382 408.213, 680.394 406.913, 670.479 405.887, 662.651 404.779, 652.713 403.820, 644.111 402.894, 634.154 402.028, 624.848 401.274, 614.876 400.523, 604.946 399.934, 594.963 399.345, 584.981 399.317, 584.495 398.888, 574.504 398.459, 564.513 398.419, 563.593 398.145, 553.596 397.871, 543.600 397.837, 542.339 397.715, 532.340 397.594, 522.341 397.576, 520.841 397.605, 510.841 397.634, 500.841 397.638, 499.205 397.817, 489.206 397.996, 479.208 398.025, 477.541 398.326, 468.403 " fill="none" stroke="rgb(0, 0, 0)" stroke-linecap="butt" stroke-linejoin="round" stroke-opacity="1.0" stroke-width="3.0" />
            <path d=" M 505.189, 781.790 503.667, 785.461 500.306, 792.691 496.843, 799.271 493.282, 805.164 489.630, 810.334 485.893, 814.741 482.079, 818.350 478.195, 821.123 474.250, 823.023 470.256, 824.014 " fill="none" stroke="rgb(0, 0, 0)" stroke-linecap="butt" stroke-linejoin="round" stroke-opacity="1.0" stroke-width="3.0" />
            <path d=" M 546.253, 524.863 545.870, 534.856 545.714, 538.925 545.231, 548.914 545.038, 552.923 544.455, 562.906 544.225, 566.836 543.540, 576.812 543.276, 580.646 542.486, 590.614 542.192, 594.331 541.294, 604.290 540.972, 607.872 539.964, 617.821 539.617, 621.247 538.495, 631.184 538.128, 634.435 536.886, 644.358 536.504, 647.414 535.139, 657.320 534.747, 660.161 533.251, 670.048 532.950, 672.038 532.857, 672.652 531.224, 682.517 530.836, 684.861 529.056, 694.702 528.683, 696.765 526.747, 706.576 526.400, 708.338 526.007, 710.163 " fill="none" stroke="rgb(0, 0, 0)" stroke-linecap="butt" stroke-linejoin="round" stroke-opacity="1.0" stroke-width="3.0" />
            <path d=" M 548.793, 526.040 546.253, 524.863 555.380, 524.889 557.228, 524.894 562.702, 524.909 564.490, 524.914 564.935, 524.915 564.496, 524.697 563.565, 524.234 562.733, 523.821 559.211, 522.071 557.622, 521.281 557.632, 520.766 557.631, 520.756 " fill="none" stroke="rgb(0, 0, 0)" stroke-linecap="butt" stroke-linejoin="round" stroke-opacity="1.0" stroke-width="3.0" />
            <path d=" M 379.529, 451.817 379.195, 461.812 378.861, 471.806 378.727, 475.806 378.551, 485.804 378.375, 495.802 378.303, 499.889 378.283, 509.889 378.264, 519.889 378.256, 523.939 378.395, 533.938 378.533, 543.937 378.587, 547.827 378.886, 557.823 379.185, 567.818 379.293, 571.427 379.755, 581.416 380.217, 591.406 380.366, 594.617 380.995, 604.597 381.625, 614.578 381.796, 617.280 382.600, 627.248 383.404, 637.216 383.572, 639.305 384.558, 649.256 385.544, 659.207 385.681, 660.586 386.858, 670.517 388.035, 680.447 388.104, 681.031 389.484, 690.935 390.824, 700.552 392.422, 710.424 393.822, 719.072 395.655, 728.903 397.077, 736.525 399.166, 746.304 400.565, 752.855 402.937, 762.570 404.266, 768.016 406.953, 777.648 408.157, 781.968 411.196, 791.495 412.214, 794.689 415.652, 804.079 416.414, 806.160 420.312, 815.369 420.736, 816.371 425.157, 825.321 429.655, 833.019 434.212, 839.477 438.807, 844.713 443.422, 848.753 448.039, 851.626 452.643, 853.365 457.219, 854.003 461.753, 853.581 466.232, 852.139 470.645, 849.718 474.981, 846.360 479.231, 842.110 483.386, 837.011 " fill="none" stroke="rgb(0, 0, 0)" stroke-linecap="butt" stroke-linejoin="round" stroke-opacity="1.0" stroke-width="3.0" />
            <path d=" M 483.386, 837.011 489.313, 828.956 491.007, 826.654 " fill="none" stroke="rgb(0, 0, 0)" stroke-linecap="butt" stroke-linejoin="round" stroke-opacity="1.0" stroke-width="3.0" />
            <path d=" M 539.305, 549.990 529.314, 550.394 527.869, 550.453 525.121, 545.489 " fill="none" stroke="rgb(0, 0, 0)" stroke-linecap="butt" stroke-linejoin="round" stroke-opacity="1.0" stroke-width="3.0" />
            <path d=" M 541.016, 499.543 540.834, 509.541 540.653, 519.540 540.556, 524.848 540.124, 534.839 539.948, 538.918 539.368, 548.901 539.305, 549.990 534.615, 541.158 530.920, 534.203 530.665, 533.721 530.409, 533.239 530.152, 532.756 529.897, 532.273 529.603, 531.586 529.332, 530.688 529.089, 529.594 528.988, 528.976 528.882, 528.326 528.715, 526.908 528.694, 526.658 " fill="none" stroke="rgb(0, 0, 0)" stroke-linecap="butt" stroke-linejoin="round" stroke-opacity="1.0" stroke-width="3.0" />
            <path d=" M 530.886, 523.657 530.761, 523.602 530.644, 523.413 530.538, 523.098 530.449, 522.670 530.381, 522.150 530.337, 521.559 530.319, 520.924 530.328, 520.272 530.364, 519.632 530.424, 519.033 530.506, 518.499 530.607, 518.056 530.721, 517.722 530.845, 517.511 530.972, 517.434 " fill="none" stroke="rgb(0, 0, 0)" stroke-linecap="butt" stroke-linejoin="round" stroke-opacity="1.0" stroke-width="3.0" />
            <path d=" M 530.972, 517.434 531.097, 517.493 531.215, 517.685 531.320, 518.001 531.408, 518.428 531.476, 518.947 531.519, 519.535 531.537, 520.168 531.528, 520.817 531.493, 521.455 531.433, 522.052 531.352, 522.585 531.251, 523.028 531.137, 523.364 531.014, 523.576 530.886, 523.657 " fill="none" stroke="rgb(0, 0, 0)" stroke-linecap="butt" stroke-linejoin="round" stroke-opacity="1.0" stroke-width="3.0" />
            <path d=" M 364.325, 404.233 364.090, 407.253 363.457, 417.233 362.825, 427.213 362.691, 429.319 362.217, 438.962 361.725, 448.950 361.592, 451.654 361.240, 461.648 360.888, 471.642 360.799, 474.171 360.586, 484.169 360.372, 494.167 360.316, 496.780 360.240, 506.780 360.163, 516.780 360.144, 519.390 360.165, 522.903 " fill="none" stroke="rgb(0, 0, 0)" stroke-linecap="butt" stroke-linejoin="round" stroke-opacity="1.0" stroke-width="3.0" />
            <path d=" M 534.555, 745.341 536.015, 737.894 537.811, 728.057 538.138, 726.267 539.813, 716.408 540.153, 714.407 541.713, 704.530 542.060, 702.333 543.510, 692.439 543.858, 690.060 545.203, 680.151 545.549, 677.604 546.792, 667.682 547.131, 664.979 548.277, 655.045 548.605, 652.201 549.656, 642.256 549.971, 639.282 550.931, 629.328 551.229, 626.236 552.099, 616.274 552.379, 613.076 553.162, 603.107 553.421, 599.815 554.119, 589.839 554.355, 586.464 554.969, 576.483 555.181, 573.037 555.712, 563.051 555.899, 559.543 556.349, 549.554 556.509, 545.996 556.878, 536.003 557.011, 532.406 557.194, 526.067 " fill="none" stroke="rgb(0, 0, 0)" stroke-linecap="butt" stroke-linejoin="round" stroke-opacity="1.0" stroke-width="3.0" />
            <path d=" M 457.705, 890.937 460.131, 891.097 464.264, 891.205 468.358, 890.494 472.405, 888.995 476.396, 886.735 480.327, 883.747 484.190, 880.060 487.981, 875.705 491.694, 870.711 495.324, 865.109 498.869, 858.927 502.325, 852.195 505.687, 844.941 508.955, 837.191 512.125, 828.973 515.195, 820.312 517.051, 814.637 " fill="none" stroke="rgb(0, 0, 0)" stroke-linecap="butt" stroke-linejoin="round" stroke-opacity="1.0" stroke-width="3.0" />
            <path d=" M 518.389, 162.265 516.909, 158.282 513.762, 150.607 510.504, 143.452 507.137, 136.847 503.662, 130.820 500.084, 125.403 496.407, 120.626 492.633, 116.522 488.768, 113.122 484.817, 110.458 480.786, 108.562 476.682, 107.464 472.512, 107.196 471.315, 107.363 468.283, 107.787 464.005, 109.267 459.687, 111.661 455.340, 114.995 450.974, 119.293 446.602, 124.575 442.235, 130.858 437.888, 138.156 433.575, 146.479 432.314, 149.244 429.310, 155.834 425.559, 165.104 425.108, 166.221 424.901, 166.794 421.504, 176.199 420.985, 177.638 417.904, 187.151 416.957, 190.074 414.160, 199.675 413.042, 203.516 410.503, 213.188 409.255, 217.941 406.951, 227.672 405.613, 233.325 403.526, 243.105 402.133, 249.632 400.247, 259.453 398.832, 266.825 397.134, 276.679 395.725, 284.855 394.203, 294.739 392.828, 303.673 391.473, 313.581 390.155, 323.218 388.959, 333.146 387.763, 343.074 387.721, 343.426 386.677, 353.372 385.634, 363.317 385.538, 364.229 384.641, 374.188 383.744, 384.148 383.618, 385.550 382.863, 395.522 382.108, 405.493 381.970, 407.311 381.354, 417.292 380.738, 427.273 380.605, 429.429 380.125, 439.417 379.644, 449.406 379.529, 451.817 379.182, 461.811 378.836, 471.805 378.747, 474.388 378.533, 484.385 378.320, 494.383 378.263, 497.050 378.182, 507.049 378.101, 517.049 378.079, 519.713 378.131, 529.713 378.183, 539.713 378.196, 542.286 378.382, 552.285 378.567, 562.283 378.612, 564.680 378.933, 574.675 379.254, 584.670 379.323, 586.807 379.783, 596.796 380.242, 606.786 380.325, 608.581 380.926, 618.563 381.527, 628.544 381.610, 629.919 382.357, 639.892 383.104, 649.864 383.170, 650.745 384.069, 660.705 384.968, 670.664 384.997, 670.984 386.053, 680.928 387.078, 690.568 388.300, 700.493 389.401, 709.434 390.799, 719.336 391.954, 727.525 393.538, 737.399 394.723, 744.790 396.505, 754.630 397.693, 761.185 399.689, 770.984 400.848, 776.670 403.077, 786.418 404.174, 791.214 406.657, 800.901 407.654, 804.791 410.416, 814.402 411.273, 817.380 414.345, 826.897 415.014, 828.969 418.434, 838.366 418.863, 839.547 422.673, 848.793 422.805, 849.112 426.823, 857.665 430.904, 865.211 435.034, 871.761 439.198, 877.328 443.386, 881.929 447.584, 885.583 451.781, 888.313 455.967, 890.142 459.658, 890.989 460.131, 891.097 " fill="none" stroke="rgb(0, 0, 0)" stroke-linecap="butt" stroke-linejoin="round" stroke-opacity="1.0" stroke-width="3.0" />
            <path d=" M 470.058, 107.284 465.803, 107.876 461.498, 109.355 457.152, 111.750 452.778, 115.084 448.385, 119.382 443.985, 124.662 439.592, 130.944 435.218, 138.241 430.879, 146.562 429.479, 149.613 426.588, 155.914 422.817, 165.176 422.360, 166.299 418.945, 175.697 418.690, 176.399 418.213, 177.712 415.115, 187.220 414.162, 190.144 411.349, 199.740 410.223, 203.581 407.670, 213.250 406.415, 218.002 404.098, 227.730 402.752, 233.380 400.653, 243.158 399.253, 249.682 397.356, 259.501 395.933, 266.868 394.225, 276.721 392.809, 284.893 391.278, 294.775 389.896, 303.703 388.534, 313.610 387.209, 323.240 386.007, 333.168 384.804, 343.095 384.762, 343.441 383.713, 353.386 382.664, 363.331 382.568, 364.236 381.667, 374.195 380.765, 384.154 380.639, 385.549 379.881, 395.520 379.122, 405.491 378.984, 407.301 378.366, 417.282 377.747, 427.263 377.614, 429.411 377.131, 439.399 376.649, 449.387 376.533, 451.790 376.186, 461.784 375.839, 471.778 375.750, 474.352 375.536, 484.349 375.322, 494.347 375.266, 497.005 375.186, 507.004 375.105, 517.004 375.084, 519.659 375.138, 529.659 375.191, 539.659 375.205, 542.224 375.393, 552.222 375.581, 562.220 375.626, 564.609 375.951, 574.604 376.276, 584.599 376.345, 586.727 376.809, 596.716 377.272, 606.706 377.355, 608.493 377.962, 618.474 378.569, 628.456 378.652, 629.824 379.405, 639.795 380.159, 649.767 380.225, 650.642 381.131, 660.601 382.036, 670.559 382.065, 670.874 383.130, 680.817 384.162, 690.451 385.393, 700.375 386.503, 709.310 387.910, 719.211 389.074, 727.395 390.669, 737.267 391.862, 744.655 393.657, 754.493 394.853, 761.044 396.863, 770.840 398.030, 776.525 400.274, 786.270 401.379, 791.065 403.878, 800.747 404.883, 804.638 407.663, 814.244 408.526, 817.225 411.618, 826.735 412.293, 828.810 413.739, 832.756 413.980, 833.415 416.168, 839.386 420.000, 848.623 420.135, 848.950 424.180, 857.501 428.288, 865.047 432.445, 871.596 436.637, 877.163 440.852, 881.764 445.077, 885.419 449.301, 888.150 453.514, 889.981 457.705, 890.937 " fill="none" stroke="rgb(0, 0, 0)" stroke-linecap="butt" stroke-linejoin="round" stroke-opacity="1.0" stroke-width="3.0" />
            <path d=" M 472.512, 107.196 470.058, 107.284 " fill="none" stroke="rgb(0, 0, 0)" stroke-linecap="butt" stroke-linejoin="round" stroke-opacity="1.0" stroke-width="3.0" />
            <path d=" M 540.658, 763.824 542.313, 755.119 544.059, 745.272 544.525, 742.644 546.154, 732.778 546.623, 729.941 548.142, 720.057 548.607, 717.025 550.020, 707.125 550.478, 703.914 551.789, 694.000 552.236, 690.622 553.449, 680.696 553.881, 677.166 554.999, 667.228 555.413, 663.558 556.440, 653.611 556.832, 649.814 557.771, 639.858 558.139, 635.945 558.991, 625.982 559.335, 621.966 560.102, 611.996 560.418, 607.888 561.102, 597.912 561.389, 593.724 561.992, 583.742 562.249, 579.484 562.772, 569.498 562.998, 565.181 563.441, 555.191 563.634, 550.826 563.999, 540.832 564.160, 536.429 564.446, 526.433 564.456, 526.091 " fill="none" stroke="rgb(0, 0, 0)" stroke-linecap="butt" stroke-linejoin="round" stroke-opacity="1.0" stroke-width="3.0" />
            <path d=" M 459.674, 925.120 462.066, 925.288 466.502, 924.982 470.889, 923.800 475.216, 921.776 479.478, 918.946 483.668, 915.344 487.779, 911.006 491.806, 905.965 495.744, 900.257 499.590, 893.915 503.339, 886.971 506.988, 879.458 510.534, 871.406 513.976, 862.845 517.310, 853.805 520.536, 844.313 523.534, 834.773 523.652, 834.397 524.544, 831.333 " fill="none" stroke="rgb(0, 0, 0)" stroke-linecap="butt" stroke-linejoin="round" stroke-opacity="1.0" stroke-width="3.0" />
            <path d=" M 541.727, 206.227 541.090, 203.234 539.796, 197.151 537.547, 187.407 537.244, 186.092 534.814, 176.392 534.565, 175.399 531.937, 165.750 531.760, 165.097 528.916, 155.510 528.828, 155.213 525.770, 145.776 522.587, 136.814 519.280, 128.357 515.850, 120.438 512.300, 113.087 508.631, 106.340 504.847, 100.229 500.950, 94.791 496.944, 90.059 492.835, 86.072 488.626, 82.865 484.324, 80.475 479.936, 78.939 475.469, 78.292 473.307, 78.424 470.931, 78.570 466.331, 79.808 461.679, 82.038 456.987, 85.292 452.265, 89.598 447.527, 94.983 442.787, 101.470 438.059, 109.078 433.358, 117.822 429.099, 126.870 428.702, 127.714 428.236, 128.834 424.393, 138.066 424.106, 138.757 423.303, 140.924 419.830, 150.302 419.589, 150.952 417.890, 156.080 415.169, 164.292 412.318, 173.877 410.865, 178.763 408.280, 188.423 406.695, 194.346 404.353, 204.068 402.680, 211.013 401.958, 214.344 399.838, 224.117 398.838, 228.729 396.924, 238.544 395.188, 247.451 393.466, 257.302 391.749, 267.129 390.207, 277.009 388.666, 286.890 388.538, 287.705 387.167, 297.610 385.795, 307.516 385.574, 309.113 384.364, 319.040 383.154, 328.966 382.872, 331.281 381.817, 341.225 380.762, 351.169 380.448, 354.130 379.542, 364.089 378.635, 374.048 378.314, 377.574 377.552, 387.545 376.790, 397.516 376.484, 401.522 375.863, 411.503 375.241, 421.483 374.967, 425.879 374.483, 435.867 374.000, 445.855 373.772, 450.545 373.424, 460.539 373.076, 470.533 372.906, 475.417 372.693, 485.415 372.479, 495.413 372.373, 500.393 372.293, 510.392 372.214, 520.392 372.174, 525.365 372.229, 535.365 372.285, 545.365 372.311, 550.230 372.502, 560.228 372.693, 570.226 372.782, 574.883 373.110, 584.877 373.439, 594.872 373.582, 599.223 374.051, 609.212 374.519, 619.201 374.705, 623.151 375.318, 633.132 375.930, 643.114 376.143, 646.574 376.904, 656.545 377.666, 666.516 377.886, 669.402 378.802, 679.360 379.718, 689.318 379.924, 691.552 381.001, 701.494 382.078, 711.435 382.242, 712.946 383.489, 722.868 384.736, 732.790 384.826, 733.513 386.253, 743.411 387.662, 753.191 389.280, 763.060 390.733, 771.924 392.555, 781.756 393.875, 788.879 394.021, 789.662 396.065, 799.451 397.509, 806.366 398.227, 809.427 400.512, 819.163 401.179, 822.001 403.728, 831.671 405.013, 836.543 406.263, 840.761 408.992, 849.971 411.586, 857.739 413.100, 862.274 416.632, 871.630 417.318, 873.446 421.262, 882.635 421.628, 883.487 426.015, 892.403 430.461, 900.203 434.952, 906.904 439.473, 912.524 444.010, 917.085 448.549, 920.613 453.079, 923.136 457.588, 924.683 460.436, 925.068 462.066, 925.288 " fill="none" stroke="rgb(0, 0, 0)" stroke-linecap="butt" stroke-linejoin="round" stroke-opacity="1.0" stroke-width="3.0" />
            <path d=" M 366.371, 377.479 366.362, 377.581 365.585, 387.551 364.808, 397.521 364.499, 401.492 364.325, 404.233 363.693, 414.213 363.060, 424.193 362.957, 425.810 362.466, 435.798 362.321, 438.758 361.829, 448.745 361.746, 450.437 361.727, 450.985 361.375, 460.979 361.023, 470.973 360.872, 475.271 360.658, 485.268 360.444, 495.266 360.389, 497.812 360.338, 500.206 360.262, 510.206 360.186, 520.206 360.165, 522.903 360.148, 525.140 360.210, 535.139 360.272, 545.139 360.302, 549.965 360.375, 553.588 " fill="none" stroke="rgb(0, 0, 0)" stroke-linecap="butt" stroke-linejoin="round" stroke-opacity="1.0" stroke-width="3.0" />
            <path d=" M 473.048, 78.387 468.481, 78.666 463.852, 79.905 459.171, 82.135 454.449, 85.389 449.698, 89.695 444.931, 95.080 440.162, 101.565 435.405, 109.172 430.676, 117.914 426.395, 126.952 425.991, 127.803 422.129, 137.027 421.368, 138.844 420.395, 141.454 416.903, 150.825 416.825, 151.035 413.662, 160.522 413.541, 160.883 412.594, 163.725 412.379, 164.371 409.512, 173.951 408.049, 178.838 405.450, 188.494 403.856, 194.416 401.500, 204.134 399.818, 211.077 397.686, 220.847 395.954, 228.787 394.030, 238.600 393.139, 243.139 392.284, 247.502 390.552, 257.351 388.826, 267.173 387.276, 277.052 385.725, 286.931 385.598, 287.741 384.219, 297.646 382.840, 307.550 382.618, 309.141 381.402, 319.067 380.186, 328.993 379.903, 331.301 378.842, 341.245 377.781, 351.188 377.466, 354.141 376.555, 364.099 375.644, 374.058 375.323, 377.576 374.557, 387.546 373.791, 397.517 373.484, 401.514 372.860, 411.495 372.236, 421.475 371.961, 425.862 371.476, 435.850 370.990, 445.838 370.762, 450.518 370.413, 460.512 370.064, 470.506 369.894, 475.381 369.680, 485.378 369.467, 495.376 369.360, 500.346 369.282, 510.346 369.203, 520.345 369.164, 525.308 369.221, 535.308 369.278, 545.308 369.306, 550.163 369.499, 560.162 369.692, 570.160 369.782, 574.807 370.114, 584.801 370.446, 594.796 370.590, 599.138 371.063, 609.126 371.537, 619.115 371.723, 623.057 372.342, 633.038 372.960, 643.019 373.174, 646.471 373.941, 656.442 374.709, 666.412 374.931, 669.291 375.854, 679.248 376.777, 689.206 376.984, 691.433 378.069, 701.374 379.155, 711.315 379.319, 712.819 380.575, 722.740 381.832, 732.661 381.923, 733.380 383.359, 743.276 384.779, 753.051 386.408, 762.918 386.714, 764.770 387.871, 771.778 389.706, 781.608 391.182, 789.511 393.015, 798.229 394.694, 806.210 395.570, 809.917 397.870, 819.648 398.389, 821.841 400.955, 831.506 402.249, 836.379 403.340, 840.036 406.200, 849.619 406.255, 849.804 409.442, 859.283 410.390, 862.105 413.943, 871.452 414.636, 873.275 418.603, 882.454 418.975, 883.314 423.390, 892.229 427.866, 900.029 432.386, 906.729 436.936, 912.349 441.502, 916.911 446.071, 920.440 450.630, 922.964 455.168, 924.513 459.674, 925.120 " fill="none" stroke="rgb(0, 0, 0)" stroke-linecap="butt" stroke-linejoin="round" stroke-opacity="1.0" stroke-width="3.0" />
            <path d=" M 475.469, 78.292 473.048, 78.387 " fill="none" stroke="rgb(0, 0, 0)" stroke-linecap="butt" stroke-linejoin="round" stroke-opacity="1.0" stroke-width="3.0" />
            <path d=" M 547.666, 217.492 546.635, 211.715 544.736, 201.897 544.277, 199.522 542.225, 189.735 541.787, 187.647 539.571, 177.895 539.166, 176.113 536.772, 166.403 536.413, 164.945 533.826, 155.286 533.527, 154.171 530.729, 144.571 530.510, 143.818 527.479, 134.288 527.360, 133.915 524.079, 124.493 520.667, 115.583 517.125, 107.218 513.456, 99.432 509.661, 92.260 505.742, 85.739 501.704, 79.905 497.549, 74.798 493.282, 70.455 488.908, 66.916 484.432, 64.220 479.862, 62.408 475.204, 61.518 470.468, 61.590 465.593, 61.792 460.727, 62.864 455.801, 64.972 450.827, 68.149 445.817, 72.429 440.786, 77.841 435.746, 84.412 430.714, 92.164 425.833, 100.891 425.707, 101.116 421.319, 110.101 420.742, 111.281 416.786, 120.465 415.838, 122.667 412.264, 132.007 411.013, 135.276 407.780, 144.738 406.288, 149.102 403.359, 158.664 401.683, 164.135 399.029, 173.776 397.219, 180.353 394.816, 190.060 392.917, 197.730 390.743, 207.491 389.466, 213.228 388.798, 216.230 386.837, 226.036 384.882, 235.808 383.119, 245.651 381.356, 255.495 381.191, 256.412 379.614, 266.287 378.036, 276.161 377.745, 277.980 376.342, 287.882 374.939, 297.783 374.562, 300.444 373.325, 310.367 372.089, 320.291 371.661, 323.725 370.583, 333.667 369.505, 343.609 369.057, 347.740 368.132, 357.697 367.208, 367.654 366.997, 369.917 366.767, 372.395 366.371, 377.479 365.594, 387.449 364.804, 397.594 364.637, 400.225 364.005, 410.205 363.372, 420.185 363.179, 423.233 362.688, 433.221 362.426, 438.550 361.935, 448.538 361.902, 449.204 361.863, 450.307 361.511, 460.301 361.159, 470.295 360.979, 475.398 360.766, 485.396 360.552, 495.393 360.417, 501.701 360.340, 511.754 360.264, 521.754 360.217, 527.998 360.278, 537.998 360.311, 543.322 360.373, 553.321 360.375, 553.588 360.379, 554.178 360.580, 564.176 360.612, 565.796 360.813, 575.794 360.901, 580.127 361.243, 590.121 361.586, 600.115 361.778, 605.735 362.265, 615.724 362.752, 625.712 363.004, 630.897 363.639, 640.877 364.274, 650.857 364.570, 655.512 365.357, 665.481 366.145, 675.450 366.464, 679.482 367.410, 689.437 368.357, 699.392 368.673, 702.719 369.786, 712.657 370.198, 716.339 371.183, 725.141 372.471, 735.058 373.758, 744.974 373.979, 746.672 375.451, 756.563 376.924, 766.454 377.042, 767.245 378.712, 777.104 380.355, 786.802 382.237, 796.623 383.898, 805.292 386.010, 815.067 387.653, 822.674 390.014, 832.391 391.599, 838.913 394.235, 848.559 395.717, 853.984 398.656, 863.542 399.986, 867.868 403.263, 877.316 404.387, 880.556 408.045, 889.863 408.901, 892.042 412.989, 901.169 413.509, 902.330 418.087, 911.221 418.193, 911.428 422.935, 919.349 427.720, 926.111 432.530, 931.737 437.352, 936.253 442.171, 939.688 446.974, 942.073 451.750, 943.442 456.488, 943.830 461.243, 944.176 465.873, 943.615 470.447, 942.145 474.955, 939.806 479.390, 936.635 483.745, 932.670 488.014, 927.949 492.193, 922.508 496.276, 916.385 500.259, 909.614 504.139, 902.231 507.912, 894.269 511.576, 885.761 515.130, 876.738 518.532, 867.335 518.570, 867.231 521.736, 857.745 521.896, 857.268 524.848, 847.714 525.106, 846.878 527.740, 837.689 " fill="none" stroke="rgb(0, 0, 0)" stroke-linecap="butt" stroke-linejoin="round" stroke-opacity="1.0" stroke-width="3.0" />
            <path d=" M 543.164, 770.274 544.291, 764.278 546.017, 754.428 546.560, 751.334 548.172, 741.464 548.711, 738.162 550.215, 728.276 550.746, 724.781 552.145, 714.880 552.663, 711.207 553.962, 701.291 554.464, 697.454 555.666, 687.527 556.149, 683.539 557.258, 673.601 557.718, 669.476 558.737, 659.528 559.172, 655.277 560.103, 645.321 560.511, 640.957 561.356, 630.993 561.734, 626.528 562.496, 616.557 562.844, 612.003 563.523, 602.026 563.839, 597.392 564.438, 587.410 564.720, 582.707 565.239, 572.721 565.487, 567.961 565.927, 557.970 566.139, 553.162 566.502, 543.169 566.678, 538.323 566.964, 528.327 567.028, 526.100 " fill="none" stroke="rgb(0, 0, 0)" stroke-linecap="butt" stroke-linejoin="round" stroke-opacity="1.0" stroke-width="3.0" />
            <path d=" M 470.468, 61.590 465.662, 62.660 460.797, 64.766 455.884, 67.943 450.936, 72.223 445.965, 77.636 440.986, 84.209 436.014, 91.964 431.178, 100.717 431.066, 100.920 426.721, 109.926 426.160, 111.089 424.830, 114.216 421.313, 122.482 417.777, 131.836 416.544, 135.097 413.346, 144.572 411.873, 148.932 410.190, 154.496 407.321, 163.974 404.697, 173.624 404.037, 176.049 402.907, 180.203 400.857, 188.584 398.653, 197.592 396.504, 207.358 394.579, 216.104 392.640, 225.914 390.707, 235.696 390.033, 239.498 388.290, 249.345 387.055, 256.315 385.495, 266.193 383.934, 276.070 383.645, 277.900 382.258, 287.803 380.870, 297.706 380.495, 300.380 380.474, 300.556 379.250, 310.481 378.027, 320.406 377.623, 323.680 376.556, 333.622 375.490, 343.565 375.045, 347.712 374.129, 357.670 373.214, 367.628 372.776, 372.387 372.007, 382.358 371.238, 392.328 370.830, 397.606 370.203, 407.586 369.576, 417.566 369.218, 423.265 368.731, 433.253 368.243, 443.241 367.950, 449.257 367.600, 459.251 367.250, 469.245 367.032, 475.472 366.818, 485.469 366.604, 495.467 366.469, 501.795 366.391, 511.795 366.314, 521.795 366.264, 528.114 366.323, 538.114 366.381, 548.114 366.418, 554.314 366.614, 564.312 366.810, 574.310 366.927, 580.283 367.262, 590.278 367.598, 600.272 367.787, 605.911 368.265, 615.900 368.742, 625.889 368.991, 631.093 369.615, 641.073 370.239, 651.054 370.531, 655.725 371.306, 665.695 372.081, 675.665 372.396, 679.713 373.328, 689.670 374.260, 699.626 374.573, 702.967 375.669, 712.907 375.769, 713.816 376.095, 716.774 377.046, 725.404 378.315, 735.324 379.584, 745.243 379.802, 746.950 381.254, 756.844 382.706, 766.738 382.823, 767.536 383.629, 772.363 384.740, 779.023 386.090, 787.106 387.946, 796.932 389.585, 805.607 391.669, 815.388 393.290, 822.998 393.915, 825.607 396.245, 835.332 397.183, 839.246 399.785, 848.902 401.247, 854.324 404.149, 863.894 405.460, 868.215 408.454, 876.963 409.804, 880.908 413.419, 890.231 414.259, 892.398 418.302, 901.545 418.808, 902.689 423.338, 911.604 423.432, 911.789 428.113, 919.711 432.836, 926.473 437.586, 932.099 442.347, 936.613 447.105, 940.045 451.848, 942.427 456.565, 943.792 461.243, 944.176 " fill="none" stroke="rgb(0, 0, 0)" stroke-linecap="butt" stroke-linejoin="round" stroke-opacity="1.0" stroke-width="3.0" />
            <path d=" M 565.327, 520.095 565.398, 518.478 565.428, 518.031 565.504, 516.908 565.553, 516.385 565.643, 515.412 565.813, 514.016 566.010, 512.742 566.231, 511.614 566.473, 510.649 566.731, 509.864 567.001, 509.271 567.278, 508.881 567.409, 508.796 567.557, 508.699 " fill="none" stroke="rgb(0, 0, 0)" stroke-linecap="butt" stroke-linejoin="round" stroke-opacity="1.0" stroke-width="3.0" />
            <path d=" M 554.861, 519.910 555.524, 519.922 557.371, 519.954 557.613, 519.959 562.827, 520.051 564.613, 520.082 565.076, 520.090 565.327, 520.095 566.929, 520.920 " fill="none" stroke="rgb(0, 0, 0)" stroke-linecap="butt" stroke-linejoin="round" stroke-opacity="1.0" stroke-width="3.0" />
            <path d=" M 557.622, 521.281 562.799, 521.373 564.586, 521.405 565.037, 521.413 567.145, 521.450 567.986, 521.465 567.995, 520.950 567.990, 520.441 567.970, 519.953 567.936, 519.498 567.890, 519.090 567.831, 518.738 567.763, 518.453 567.686, 518.243 567.603, 518.113 567.515, 518.067 " fill="none" stroke="rgb(0, 0, 0)" stroke-linecap="butt" stroke-linejoin="round" stroke-opacity="1.0" stroke-width="3.0" />
            <path d=" M 537.884, 490.652 537.901, 490.137 " fill="none" stroke="rgb(0, 0, 0)" stroke-linecap="butt" stroke-linejoin="round" stroke-opacity="1.0" stroke-width="3.0" />
            <path d=" M 537.748, 490.650 537.884, 490.652 538.086, 490.767 " fill="none" stroke="rgb(0, 0, 0)" stroke-linecap="butt" stroke-linejoin="round" stroke-opacity="1.0" stroke-width="3.0" />
            <path d=" M 537.713, 490.769 538.086, 490.767 538.097, 489.480 " fill="none" stroke="rgb(0, 0, 0)" stroke-linecap="butt" stroke-linejoin="round" stroke-opacity="1.0" stroke-width="3.0" />
            <path d=" M 623.002, 913.029 625.174, 913.549 633.050, 915.082 640.930, 915.869 648.797, 915.927 656.633, 915.275 664.424, 913.932 672.153, 911.919 679.807, 909.255 687.372, 905.963 694.836, 902.064 702.188, 897.580 709.417, 892.533 716.513, 886.945 723.466, 880.840 730.268, 874.238 736.911, 867.161 743.389, 859.633 749.597, 851.793 749.693, 851.673 755.598, 843.603 755.818, 843.302 761.431, 835.026 761.759, 834.543 767.089, 826.082 767.510, 825.414 772.567, 816.787 773.067, 815.936 777.861, 807.160 778.425, 806.128 782.965, 797.218 783.580, 796.010 787.874, 786.978 788.530, 785.599 792.585, 776.458 793.270, 774.914 797.095, 765.675 797.799, 763.974 801.398, 754.644 802.112, 752.794 805.493, 743.383 806.208, 741.392 809.376, 731.907 810.085, 729.785 813.044, 720.233 813.740, 717.988 816.496, 708.376 817.171, 706.019 819.727, 696.351 820.378, 693.891 822.737, 684.173 823.357, 681.620 825.524, 671.858 826.109, 669.221 828.085, 659.419 828.631, 656.710 830.418, 646.871 830.921, 644.099 832.522, 634.228 832.980, 631.404 834.395, 621.504 834.805, 618.638 836.036, 608.714 836.395, 605.815 837.443, 595.870 837.750, 592.950 838.614, 582.988 838.868, 580.056 839.548, 570.079 839.748, 567.147 840.244, 557.159 840.390, 554.236 840.701, 544.241 840.791, 541.338 840.916, 531.339 840.952, 528.465 840.889, 518.465 840.871, 515.633 840.619, 505.636 840.548, 502.854 840.103, 492.864 839.981, 490.144 839.340, 480.165 839.170, 477.517 838.331, 467.552 838.114, 464.986 837.072, 455.041 836.812, 452.568 835.563, 442.646 835.264, 440.276 833.802, 430.384 833.469, 428.128 831.789, 418.270 831.426, 416.137 829.522, 406.320 829.135, 404.321 827.001, 394.552 826.596, 392.696 824.224, 382.982 823.808, 381.279 821.190, 371.628 820.772, 370.087 817.899, 360.509 817.488, 359.138 814.351, 349.643 813.957, 348.450 810.544, 339.051 810.178, 338.042 806.479, 328.751 806.153, 327.933 802.156, 318.766 801.884, 318.142 797.575, 309.118 797.371, 308.690 792.737, 299.828 792.616, 299.596 787.623, 290.883 782.394, 282.572 776.931, 274.683 771.240, 267.240 765.324, 260.265 759.188, 253.780 752.837, 247.809 746.279, 242.375 739.521, 237.500 732.570, 233.209 725.434, 229.523 718.125, 226.466 710.651, 224.060 703.026, 222.326 695.261, 221.287 687.369, 220.961 679.367, 221.369 677.148, 221.526 " fill="none" stroke="rgb(0, 0, 0)" stroke-linecap="butt" stroke-linejoin="round" stroke-opacity="1.0" stroke-width="3.0" />
            <path d=" M 625.174, 913.549 624.170, 913.256 617.321, 911.256 609.510, 908.187 601.761, 904.330 594.096, 899.676 586.536, 894.216 579.104, 887.944 571.937, 880.970 571.821, 880.857 565.133, 873.423 564.713, 872.956 558.499, 865.122 557.802, 864.244 552.052, 856.062 551.113, 854.726 545.815, 846.245 544.670, 844.411 544.097, 843.382 539.235, 834.644 538.496, 833.315 535.215, 826.697 532.616, 821.453 532.245, 820.614 529.363, 814.080 528.098, 811.215 527.053, 808.845 523.404, 799.535 522.385, 796.935 521.830, 795.517 521.217, 793.749 517.941, 784.301 516.969, 781.497 514.780, 774.318 513.041, 768.616 512.492, 766.818 509.921, 757.155 508.420, 751.515 506.181, 741.769 504.770, 735.629 502.853, 725.815 501.562, 719.204 500.642, 713.553 499.037, 703.682 498.809, 702.285 497.506, 692.371 496.528, 684.925 495.520, 674.976 494.730, 667.176 494.010, 657.202 493.425, 649.094 492.987, 639.104 492.621, 630.738 492.461, 620.739 492.324, 612.168 492.438, 602.168 492.537, 593.445 492.922, 583.453 493.261, 574.634 493.915, 564.655 494.495, 555.798 495.417, 545.840 496.235, 537.000 497.128, 529.543 497.567, 525.872 498.474, 518.305 498.754, 516.400 498.970, 514.934 500.428, 505.041 501.203, 499.776 502.930, 489.926 504.412, 481.475 506.411, 471.677 508.087, 463.462 510.361, 453.724 512.213, 445.796 514.766, 436.127 516.772, 428.533 519.610, 418.944 521.747, 411.726 524.744, 402.625 526.128, 398.423 527.115, 395.427 530.540, 386.031 532.856, 379.681 533.536, 377.990 537.266, 368.711 538.945, 364.534 539.294, 363.745 540.016, 362.112 544.059, 352.966 545.359, 350.025 549.725, 341.028 550.257, 339.932 551.865, 336.619 552.073, 336.190 556.772, 327.362 556.947, 327.034 558.538, 324.044 559.061, 323.062 561.014, 319.717 565.908, 311.335 566.297, 310.668 566.438, 310.448 571.835, 302.029 573.754, 299.035 579.516, 290.862 581.406, 288.181 587.544, 280.287 589.227, 278.124 593.980, 272.604 597.190, 268.876 604.110, 261.658 605.270, 260.447 612.591, 253.635 613.443, 252.843 621.165, 246.490 621.682, 246.065 629.803, 240.230 629.965, 240.113 638.269, 234.984 646.572, 230.671 654.853, 227.165 663.091, 224.455 671.268, 222.528 678.889, 221.437 679.367, 221.369 " fill="none" stroke="rgb(0, 0, 0)" stroke-linecap="butt" stroke-linejoin="round" stroke-opacity="1.0" stroke-width="3.0" />
            <path d=" M 677.148, 221.526 669.039, 222.685 660.851, 224.612 652.602, 227.320 644.311, 230.824 635.998, 235.134 627.684, 240.259 619.558, 246.087 619.391, 246.206 611.662, 252.551 611.143, 252.978 603.815, 259.783 602.962, 260.575 596.034, 267.787 594.873, 268.996 592.659, 271.562 586.901, 278.235 580.755, 286.123 579.073, 288.282 573.303, 296.450 571.414, 299.125 565.975, 307.593 565.435, 308.433 563.950, 310.746 560.702, 316.299 558.211, 320.558 556.708, 323.126 556.618, 323.296 551.912, 332.119 551.525, 332.846 549.891, 335.909 549.715, 336.240 545.342, 345.234 542.996, 350.060 538.906, 359.295 536.577, 364.554 532.841, 373.830 530.483, 379.684 527.052, 389.077 524.739, 395.412 523.594, 398.881 522.891, 401.010 519.758, 410.507 519.367, 411.693 516.525, 421.280 514.390, 428.480 513.252, 432.782 510.695, 442.450 509.829, 445.724 507.551, 455.461 507.248, 456.758 505.701, 463.370 503.699, 473.167 502.025, 481.362 500.296, 491.211 498.816, 499.642 497.357, 509.535 496.710, 513.924 496.351, 516.358 496.087, 518.150 495.264, 525.012 494.074, 534.941 493.849, 536.823 492.927, 546.781 492.111, 555.599 491.457, 565.578 490.878, 574.414 490.494, 584.407 490.156, 593.204 490.044, 603.203 490.028, 604.562 489.946, 611.905 490.108, 621.904 490.246, 630.455 490.686, 640.445 491.054, 648.791 491.777, 658.764 492.363, 666.853 493.375, 676.801 494.166, 684.583 495.473, 694.497 496.453, 701.925 498.063, 711.794 499.210, 718.825 499.301, 719.288 501.224, 729.101 502.425, 735.234 504.670, 744.979 506.081, 751.104 508.659, 760.766 510.161, 766.392 511.966, 772.298 513.648, 777.799 514.645, 781.057 517.927, 790.503 519.086, 793.836 519.513, 795.064 520.288, 797.038 521.494, 800.109 524.744, 808.380 527.322, 814.210 528.566, 817.023 530.315, 820.977 531.542, 823.447 532.736, 825.850 536.204, 832.829 541.074, 841.563 542.386, 843.917 547.693, 852.393 548.839, 854.224 554.597, 862.400 555.537, 863.736 561.759, 871.564 562.458, 872.443 569.153, 879.871 569.576, 880.340 576.749, 887.307 576.868, 887.423 584.311, 893.693 591.881, 899.152 599.557, 903.806 607.316, 907.663 615.138, 910.733 623.002, 913.029 " fill="none" stroke="rgb(0, 0, 0)" stroke-linecap="butt" stroke-linejoin="round" stroke-opacity="1.0" stroke-width="3.0" />
            <path d=" M 700.142, 316.017 691.969, 315.787 683.675, 316.366 682.569, 316.550 679.122, 317.122 675.283, 317.760 666.816, 319.966 664.197, 320.897 658.300, 322.994 649.763, 326.870 641.235, 331.613 632.895, 337.130 632.748, 337.227 624.826, 343.329 624.333, 343.709 616.835, 350.325 616.020, 351.044 608.940, 358.107 607.836, 359.207 601.168, 366.660 599.811, 368.176 593.557, 375.979 591.981, 377.946 586.141, 386.063 584.385, 388.505 578.954, 396.902 577.060, 399.831 576.152, 401.391 575.853, 401.904 572.927, 406.930 570.040, 411.891 566.819, 418.035 564.364, 422.718 563.453, 424.455 563.355, 424.642 562.653, 426.128 559.251, 433.330 557.542, 436.948 557.480, 437.078 557.029, 438.032 555.702, 441.151 551.787, 450.353 551.084, 452.007 548.578, 458.579 546.789, 463.273 545.551, 466.521 543.761, 471.804 540.552, 481.276 540.466, 481.531 538.097, 489.480 537.901, 490.137 537.748, 490.650 537.713, 490.769 535.861, 496.983 535.266, 499.280 533.563, 505.856 532.847, 508.620 531.761, 512.814 530.739, 517.429 529.365, 523.629 529.177, 524.479 528.694, 526.658 528.185, 528.957 526.360, 538.789 525.143, 545.343 525.121, 545.489 525.083, 545.740 523.586, 555.628 522.637, 561.900 521.467, 571.831 520.675, 578.561 519.839, 588.526 519.275, 595.258 518.782, 605.246 518.453, 611.921 518.309, 621.920 518.217, 628.303 518.215, 628.480 518.424, 638.477 518.558, 644.862 519.124, 654.846 519.473, 661.002 520.396, 670.960 520.850, 675.859 520.941, 676.839 522.224, 686.756 522.951, 692.374 524.589, 702.239 525.456, 707.466 526.007, 710.163 526.338, 711.783 527.739, 718.637 528.195, 720.865 528.439, 722.059 528.817, 723.603 531.200, 733.315 531.882, 736.097 533.376, 741.264 534.555, 745.341 535.707, 749.322 535.767, 749.530 536.945, 753.029 539.400, 760.323 540.070, 762.313 540.614, 763.713 540.658, 763.824 543.164, 770.274 544.769, 774.405 548.843, 783.538 549.839, 785.769 554.387, 794.675 555.254, 796.373 560.296, 805.009 560.986, 806.191 566.543, 814.505 567.008, 815.202 573.099, 823.133 573.293, 823.385 579.812, 830.729 586.536, 837.227 593.437, 842.872 600.489, 847.663 607.663, 851.604 609.408, 852.347 614.933, 854.702 622.273, 856.965 629.659, 858.405 637.065, 859.038 644.470, 858.881 651.851, 857.951 659.188, 856.270 666.460, 853.862 673.650, 850.747 680.739, 846.951 687.711, 842.499 694.551, 837.419 701.244, 831.734 707.777, 825.472 714.139, 818.662 720.317, 811.329 726.300, 803.499 732.015, 795.293 732.080, 795.201 737.452, 786.767 737.647, 786.462 742.690, 777.826 742.993, 777.307 747.718, 768.493 748.111, 767.762 752.531, 758.792 752.993, 757.853 757.120, 748.744 757.635, 747.607 761.477, 738.375 762.029, 737.048 765.595, 727.706 766.170, 726.201 769.470, 716.761 770.054, 715.090 773.095, 705.564 773.677, 703.740 776.465, 694.136 777.035, 692.173 779.575, 682.501 780.123, 680.413 782.421, 670.681 782.940, 668.484 784.999, 658.698 785.481, 656.408 787.305, 646.576 787.745, 644.207 789.336, 634.334 789.728, 631.903 791.089, 621.997 791.429, 619.520 792.560, 609.584 792.846, 607.078 793.748, 597.119 793.976, 594.599 794.649, 584.622 794.819, 582.106 795.262, 572.116 795.373, 569.619 795.584, 559.622 795.636, 557.162 795.613, 547.162 795.608, 544.754 795.484, 539.975 " fill="none" stroke="rgb(0, 0, 0)" stroke-linecap="butt" stroke-linejoin="round" stroke-opacity="1.0" stroke-width="3.0" />
            <path d=" M 790.931, 547.312 790.792, 547.313 781.109, 547.434 775.619, 547.502 767.041, 547.608 766.329, 547.617 765.617, 547.627 764.903, 547.636 764.189, 547.646 754.214, 546.949 752.689, 546.842 751.840, 546.724 751.018, 546.350 750.238, 545.726 749.518, 544.864 748.871, 543.780 748.311, 542.494 747.846, 541.031 747.488, 539.417 747.242, 537.685 747.113, 535.867 747.106, 533.999 747.218, 532.117 747.449, 530.256 747.794, 528.455 748.246, 526.746 748.795, 525.163 749.433, 523.737 750.145, 522.494 750.917, 521.458 751.587, 520.682 752.257, 519.906 752.926, 519.131 753.594, 518.358 753.930, 517.970 753.987, 517.904 756.040, 515.532 757.872, 513.415 764.416, 505.854 770.960, 498.292 776.668, 491.697 786.614, 492.735 787.488, 492.826 " fill="none" stroke="rgb(0, 0, 0)" stroke-linecap="butt" stroke-linejoin="round" stroke-opacity="1.0" stroke-width="3.0" />
            <path d=" M 823.324, 508.302 822.667, 501.685 822.351, 498.502 821.076, 488.584 820.816, 486.564 819.242, 476.688 818.943, 474.815 817.061, 464.994 816.733, 463.282 814.536, 453.526 814.190, 451.988 811.671, 442.310 811.317, 440.952 808.473, 431.365 808.125, 430.192 804.939, 420.713 804.610, 419.735 801.063, 410.385 800.771, 409.616 796.842, 400.420 796.607, 399.868 792.278, 390.853 792.119, 390.521 787.377, 381.717 787.314, 381.601 782.201, 373.130 776.791, 365.122 771.092, 357.600 765.108, 350.601 758.843, 344.165 752.308, 338.326 745.513, 333.110 738.472, 328.539 731.202, 324.626 723.719, 321.383 721.800, 320.748 716.037, 318.842 708.172, 317.043 700.142, 316.017 " fill="none" stroke="rgb(0, 0, 0)" stroke-linecap="butt" stroke-linejoin="round" stroke-opacity="1.0" stroke-width="3.0" />
            <path d=" M 664.197, 320.897 665.560, 321.611 671.593, 325.513 677.446, 330.054 683.107, 335.220 688.565, 340.989 693.810, 347.335 698.836, 354.224 703.637, 361.619 708.210, 369.480 712.550, 377.787 716.646, 386.527 720.493, 395.677 724.018, 405.035 724.086, 405.214 727.281, 414.690 727.421, 415.107 730.306, 424.682 730.500, 425.327 733.095, 434.984 733.325, 435.838 735.645, 445.565 735.896, 446.616 737.947, 456.403 738.207, 457.644 739.995, 467.483 740.253, 468.904 741.785, 478.786 742.031, 480.375 743.316, 490.292 743.542, 492.031 744.170, 497.999 744.142, 499.238 744.055, 500.476 743.910, 501.703 743.708, 502.904 743.451, 504.069 743.142, 505.183 742.784, 506.236 742.380, 507.217 741.935, 508.115 741.454, 508.921 741.231, 509.229 740.941, 509.627 740.402, 510.226 739.843, 510.710 739.268, 511.076 730.467, 515.823 726.299, 518.071 " fill="none" stroke="rgb(0, 0, 0)" stroke-linecap="butt" stroke-linejoin="round" stroke-opacity="1.0" stroke-width="3.0" />
            <path d=" M 800.366, 535.307 800.840, 535.337 801.925, 535.407 803.229, 535.490 811.817, 530.366 813.865, 529.144 815.777, 528.003 823.473, 523.411 824.427, 522.842 825.386, 522.356 830.534, 519.743 829.836, 509.767 829.636, 506.926 828.660, 496.974 828.393, 494.250 827.131, 484.330 826.802, 481.740 825.248, 471.861 824.864, 469.419 823.009, 459.593 822.579, 457.315 820.414, 447.552 819.948, 445.451 817.462, 435.765 816.971, 433.853 816.502, 432.255 813.682, 422.660 813.650, 422.548 810.697, 413.697 809.985, 411.564 806.462, 402.205 805.981, 400.925 802.085, 391.715 801.639, 390.661 797.355, 381.625 796.963, 380.799 792.275, 371.967 791.958, 371.369 788.776, 366.013 786.628, 362.398 783.616, 357.875 780.979, 353.916 775.018, 345.953 768.753, 338.537 762.193, 331.698 755.348, 325.467 748.227, 319.872 740.845, 314.942 733.215, 310.704 725.351, 307.190 717.271, 304.424 708.992, 302.431 700.534, 301.237 690.544, 300.795 687.793, 300.673 " fill="none" stroke="rgb(0, 0, 0)" stroke-linecap="butt" stroke-linejoin="round" stroke-opacity="1.0" stroke-width="3.0" />
            <path d=" M 700.534, 301.237 691.918, 300.867 683.536, 301.318 683.167, 301.338 674.305, 302.669 667.081, 304.453 665.358, 304.879 656.353, 307.981 647.320, 311.984 645.187, 313.144 644.350, 313.599 638.288, 316.895 629.894, 322.329 629.290, 322.720 621.306, 328.742 620.358, 329.457 612.796, 336.000 611.526, 337.100 604.391, 344.106 602.828, 345.640 596.119, 353.056 594.301, 355.066 588.013, 362.841 585.980, 365.356 580.106, 373.448 577.901, 376.486 574.706, 381.377 574.359, 381.908 570.100, 388.428 565.979, 395.431 563.524, 399.601 562.613, 401.150 561.843, 402.601 557.158, 411.435 556.706, 412.288 555.475, 414.609 554.963, 415.681 550.655, 424.706 548.720, 428.761 544.782, 437.954 543.353, 441.291 542.381, 443.560 538.806, 452.899 536.490, 458.949 533.270, 468.417 531.075, 474.871 528.205, 484.450 526.164, 491.263 523.640, 500.939 522.662, 504.688 521.783, 508.059 519.731, 517.238 519.328, 519.039 517.953, 525.191 517.813, 525.938 517.020, 530.169 515.177, 539.998 514.692, 542.585 513.189, 552.472 512.018, 560.169 510.854, 570.102 509.944, 577.868 509.120, 587.834 508.478, 595.604 507.997, 605.593 507.626, 613.302 507.492, 623.301 507.391, 630.886 507.609, 640.883 507.771, 648.280 508.348, 658.263 508.761, 665.412 509.228, 670.330 510.172, 680.286 510.354, 682.211 " fill="none" stroke="rgb(0, 0, 0)" stroke-linecap="butt" stroke-linejoin="round" stroke-opacity="1.0" stroke-width="3.0" />
            <path d=" M 756.040, 515.532 755.153, 505.571 755.078, 504.732 754.904, 502.032 754.877, 502.263 754.675, 503.471 754.419, 504.640 754.111, 505.760 753.755, 506.818 753.354, 507.804 752.912, 508.707 752.433, 509.517 751.924, 510.227 751.389, 510.828 750.833, 511.315 750.263, 511.684 741.490, 516.482 733.327, 520.947 732.683, 519.997 731.966, 519.243 731.189, 518.695 730.365, 518.365 729.507, 518.259 726.299, 518.071 718.346, 517.605 717.462, 517.723 716.574, 518.064 715.697, 518.622 714.846, 519.390 714.068, 520.357 713.381, 521.506 712.762, 522.818 712.222, 524.268 711.771, 525.834 711.417, 527.487 711.165, 529.200 711.020, 530.943 710.985, 532.686 711.059, 534.400 721.038, 535.059 722.258, 535.139 727.046, 532.539 727.028, 531.992 727.053, 531.436 727.122, 530.887 727.177, 530.626 727.232, 530.360 727.381, 529.869 727.563, 529.428 727.775, 529.048 728.009, 528.740 728.261, 528.512 728.522, 528.371 728.787, 528.320 " fill="none" stroke="rgb(0, 0, 0)" stroke-linecap="butt" stroke-linejoin="round" stroke-opacity="1.0" stroke-width="3.0" />
            <path d=" M 798.303, 522.287 800.270, 521.113 800.902, 520.736 801.400, 520.439 806.128, 517.617 807.150, 517.007 807.659, 516.658 808.155, 516.204 808.637, 515.652 809.099, 515.007 809.538, 514.275 809.951, 513.463 810.335, 512.577 810.687, 511.625 811.004, 510.615 811.284, 509.554 811.524, 508.450 811.724, 507.312 811.880, 506.149 811.991, 504.970 821.585, 507.791 822.978, 508.200 823.324, 508.302 823.203, 509.064 823.052, 509.759 822.963, 510.173 822.685, 511.239 822.370, 512.255 822.021, 513.211 821.640, 514.102 821.230, 514.918 820.794, 515.654 820.336, 516.303 819.859, 516.858 819.366, 517.314 818.863, 517.665 813.260, 521.063 812.142, 521.742 806.282, 525.297 805.679, 524.321 805.006, 523.546 804.273, 522.986 803.493, 522.649 802.678, 522.544 801.499, 522.475 800.333, 522.406 798.303, 522.287 794.772, 522.081 790.804, 521.848 790.237, 521.933 790.095, 521.954 789.961, 521.974 789.113, 522.329 788.272, 522.909 787.454, 523.705 786.708, 524.705 786.050, 525.894 785.455, 527.250 784.935, 528.748 784.498, 530.365 784.152, 532.072 783.903, 533.839 783.755, 535.638 783.711, 537.435 783.771, 539.202 790.767, 539.664 790.776, 539.664 795.484, 539.975 795.690, 539.989 800.230, 537.280 800.216, 536.716 800.244, 536.143 800.313, 535.577 800.366, 535.307 800.420, 535.032 800.564, 534.525 800.739, 534.069 800.804, 533.942 800.941, 533.676 801.165, 533.357 801.404, 533.121 801.652, 532.974 801.863, 532.929 801.902, 532.920 " fill="none" stroke="rgb(0, 0, 0)" stroke-linecap="butt" stroke-linejoin="round" stroke-opacity="1.0" stroke-width="3.0" />
            <path d=" M 775.619, 547.502 775.644, 555.003 775.435, 565.000 775.386, 567.336 774.936, 577.326 774.829, 579.697 774.141, 589.674 773.977, 592.064 773.052, 602.021 772.830, 604.414 771.669, 614.346 771.390, 616.726 769.992, 626.627 769.660, 628.978 768.025, 638.843 767.642, 641.148 765.767, 650.971 765.339, 653.215 763.222, 662.989 762.753, 665.157 760.391, 674.874 759.886, 676.950 757.277, 686.603 756.744, 688.573 753.881, 698.154 753.329, 700.002 750.208, 709.503 749.645, 711.215 746.259, 720.625 745.696, 722.189 742.039, 731.496 741.488, 732.899 737.551, 742.092 737.025, 743.322 732.800, 752.385 732.312, 753.432 727.789, 762.351 727.356, 763.206 722.526, 771.962 722.164, 772.619 717.014, 781.191 716.742, 781.643 711.260, 790.007 711.098, 790.255 705.241, 798.429 699.180, 806.137 692.925, 813.353 686.487, 820.051 679.878, 826.205 673.109, 831.787 666.194, 836.771 659.148, 841.133 651.987, 844.846 644.727, 847.885 637.386, 850.227 629.982, 851.850 622.535, 852.731 615.066, 852.849 609.408, 852.347 " fill="none" stroke="rgb(0, 0, 0)" stroke-linecap="butt" stroke-linejoin="round" stroke-opacity="1.0" stroke-width="3.0" />
            <path d=" M 764.189, 547.646 763.348, 547.528 762.533, 547.153 761.761, 546.526 761.048, 545.661 760.408, 544.572 759.854, 543.281 759.395, 541.810 759.041, 540.190 758.799, 538.449 758.701, 537.026 758.673, 536.623 758.668, 534.746 758.781, 532.854 759.012, 530.984 759.155, 530.229 759.355, 529.173 759.805, 527.456 760.352, 525.865 760.985, 524.431 761.692, 523.182 762.458, 522.141 763.123, 521.359 763.788, 520.579 764.452, 519.800 765.115, 519.023 765.448, 518.633 766.297, 517.639 772.791, 510.035 778.014, 503.920 784.508, 496.316 787.488, 492.826 788.563, 502.768 788.671, 503.770 789.106, 508.198 789.863, 518.169 789.984, 519.759 790.095, 521.954 " fill="none" stroke="rgb(0, 0, 0)" stroke-linecap="butt" stroke-linejoin="round" stroke-opacity="1.0" stroke-width="3.0" />
            <path d=" M 794.676, 520.179 800.248, 520.677 800.902, 520.736 " fill="none" stroke="rgb(0, 0, 0)" stroke-linecap="butt" stroke-linejoin="round" stroke-opacity="1.0" stroke-width="3.0" />
            <path d=" M 764.659, 537.417 764.346, 537.305 764.057, 537.049 763.806, 536.660 763.605, 536.155 763.460, 535.556 763.380, 534.889 763.367, 534.184 763.423, 533.471 763.544, 532.781 763.725, 532.146 763.959, 531.592 764.234, 531.145 764.540, 530.823 764.861, 530.642 765.186, 530.607 " fill="none" stroke="rgb(0, 0, 0)" stroke-linecap="butt" stroke-linejoin="round" stroke-opacity="1.0" stroke-width="3.0" />
            <path d=" M 765.186, 530.607 765.498, 530.721 765.786, 530.979 766.035, 531.368 766.236, 531.872 766.379, 532.470 766.459, 533.135 766.471, 533.838 766.416, 534.549 766.296, 535.236 766.115, 535.869 765.883, 536.422 765.608, 536.870 765.304, 537.193 764.983, 537.379 764.659, 537.417 " fill="none" stroke="rgb(0, 0, 0)" stroke-linecap="butt" stroke-linejoin="round" stroke-opacity="1.0" stroke-width="3.0" />
            <path d=" M 800.840, 535.337 801.029, 542.825 801.045, 552.825 801.050, 555.813 800.834, 565.811 800.769, 568.853 800.322, 578.843 800.184, 581.921 799.509, 591.899 799.299, 594.997 798.395, 604.956 798.114, 608.058 796.982, 617.994 796.630, 621.083 795.269, 630.990 794.849, 634.048 793.259, 643.921 792.773, 646.933 790.951, 656.766 790.405, 659.714 788.349, 669.500 787.746, 672.369 785.452, 682.102 784.798, 684.874 782.263, 694.548 781.566, 697.208 778.785, 706.813 778.052, 709.345 775.018, 718.874 774.258, 721.261 770.967, 730.704 770.190, 732.933 766.634, 742.279 765.851, 744.336 762.021, 753.573 761.246, 755.442 757.133, 764.558 756.380, 766.228 751.975, 775.206 751.258, 776.667 746.551, 785.490 745.888, 786.732 740.865, 795.379 740.275, 796.395 734.925, 804.844 734.427, 805.629 728.737, 813.853 728.353, 814.407 722.309, 822.374 722.062, 822.700 715.649, 830.373 715.563, 830.477 708.867, 837.712 701.986, 844.376 694.932, 850.438 687.720, 855.871 680.364, 860.646 672.880, 864.736 665.286, 868.111 657.599, 870.746 649.839, 872.616 642.026, 873.696 634.184, 873.961 626.335, 873.393 618.502, 871.973 610.712, 869.681 602.992, 866.506 595.368, 862.436 587.868, 857.464 580.523, 851.583 573.362, 844.795 566.658, 837.375 566.414, 837.105 560.260, 829.223 559.710, 828.518 554.093, 820.245 553.281, 819.048 548.183, 810.445 547.157, 808.713 542.557, 799.834 541.367, 797.537 538.847, 791.967 536.105, 785.906 535.942, 785.545 534.841, 782.752 531.176, 773.448 530.909, 772.771 529.549, 768.786 528.338, 765.238 526.296, 759.255 523.482, 749.659 522.513, 746.353 522.127, 745.038 520.634, 739.037 518.428, 730.170 516.398, 720.378 515.221, 714.703 513.559, 704.842 512.523, 698.696 511.219, 688.781 510.354, 682.211 508.293, 675.762 505.250, 666.236 504.558, 664.071 " fill="none" stroke="rgb(0, 0, 0)" stroke-linecap="butt" stroke-linejoin="round" stroke-opacity="1.0" stroke-width="3.0" />
            <path d=" M 668.407, 299.765 660.476, 300.206 659.556, 300.355 652.448, 301.504 644.345, 303.677 636.192, 306.740 628.017, 310.704 619.845, 315.576 611.707, 321.363 604.011, 327.750 603.631, 328.065 596.394, 334.967 595.649, 335.677 588.868, 343.027 587.793, 344.192 581.459, 351.930 580.095, 353.597 574.196, 361.672 573.082, 363.197 572.682, 363.745 572.588, 363.873 567.110, 372.240 565.304, 374.997 565.020, 375.481 562.565, 379.653 560.893, 382.497 558.278, 386.941 555.769, 391.684 554.066, 394.902 551.543, 399.672 547.245, 408.701 545.129, 413.148 542.642, 418.967 539.069, 427.326 535.495, 436.665 533.394, 442.157 530.166, 451.621 528.131, 457.585 525.240, 467.158 523.309, 473.551 520.747, 483.217 518.951, 489.992 516.713, 499.739 515.083, 506.841 513.164, 516.656 511.722, 524.028 511.415, 525.917 509.811, 535.788 508.887, 541.477 507.597, 551.394 506.593, 559.115 505.617, 569.067 504.852, 576.865 504.189, 586.843 503.670, 594.649 503.323, 604.643 503.054, 612.389 503.027, 622.389 503.006, 630.008 503.302, 640.004 503.523, 647.431 504.144, 657.412 504.558, 664.071 503.799, 674.042 503.103, 683.174 " fill="none" stroke="rgb(0, 0, 0)" stroke-linecap="butt" stroke-linejoin="round" stroke-opacity="1.0" stroke-width="3.0" />
            <path d=" M 691.918, 300.867 687.793, 300.673 677.804, 300.205 668.407, 299.765 " fill="none" stroke="rgb(0, 0, 0)" stroke-linecap="butt" stroke-linejoin="round" stroke-opacity="1.0" stroke-width="3.0" />
            <path d=" M 505.366, 700.185 507.042, 710.043 508.174, 716.696 510.221, 726.484 511.510, 732.644 513.943, 742.344 515.354, 747.967 517.062, 753.745 518.945, 760.114 519.682, 762.608 522.936, 772.064 524.470, 776.520 525.221, 778.412 526.484, 781.589 529.688, 789.656 532.096, 794.933 533.399, 797.787 535.311, 801.977 536.260, 803.792 540.892, 812.654 541.308, 813.448 546.442, 822.029 547.646, 824.043 553.302, 832.290 554.296, 833.739 560.493, 841.588 561.227, 842.517 567.976, 849.896 568.405, 850.365 575.710, 857.194 575.799, 857.278 583.378, 863.251 591.111, 868.285 598.967, 872.388 606.918, 875.570 614.936, 877.840 622.993, 879.216 631.062, 879.718 639.120, 879.364 647.142, 878.177 655.107, 876.183 662.993, 873.408 670.781, 869.878 678.452, 865.620 685.989, 860.665 693.376, 855.042 700.599, 848.779 707.642, 841.907 714.412, 834.546 714.495, 834.456 720.888, 826.765 721.146, 826.455 727.173, 818.476 727.582, 817.933 733.258, 809.700 733.796, 808.921 739.135, 800.465 739.778, 799.446 744.791, 790.794 745.519, 789.538 750.220, 780.712 751.013, 779.223 755.413, 770.243 756.252, 768.531 760.362, 759.414 761.231, 757.487 765.060, 748.249 765.943, 746.119 769.500, 736.773 770.384, 734.451 773.677, 725.009 774.548, 722.510 777.585, 712.983 778.433, 710.322 781.219, 700.718 782.033, 697.909 784.574, 688.237 785.346, 685.297 787.646, 675.565 788.368, 672.510 790.431, 662.725 791.096, 659.570 792.924, 649.738 793.527, 646.500 795.124, 636.629 795.659, 633.325 797.027, 623.419 797.490, 620.066 798.629, 610.131 799.017, 606.746 799.928, 596.787 800.239, 593.387 800.921, 583.410 801.153, 580.011 801.606, 570.021 801.760, 566.641 801.981, 556.644 802.055, 553.300 802.043, 543.300 802.039, 540.009 801.925, 535.407 " fill="none" stroke="rgb(0, 0, 0)" stroke-linecap="butt" stroke-linejoin="round" stroke-opacity="1.0" stroke-width="3.0" />
            <path d=" M 503.103, 683.174 504.422, 693.086 504.675, 694.995 505.366, 700.185 " fill="none" stroke="rgb(0, 0, 0)" stroke-linecap="butt" stroke-linejoin="round" stroke-opacity="1.0" stroke-width="3.0" />
            <path d=" M 816.502, 432.255 816.188, 430.479 814.222, 420.674 813.972, 419.429 811.770, 409.674 811.520, 408.567 809.074, 398.871 808.832, 397.911 806.132, 388.282 805.907, 387.479 802.944, 377.928 802.745, 377.289 799.510, 367.827 799.349, 367.357 795.832, 357.996 795.720, 357.698 791.911, 348.452 791.860, 348.330 787.771, 339.271 783.454, 330.541 778.910, 322.160 774.142, 314.153 769.153, 306.537 763.947, 299.332 758.529, 292.555 752.905, 286.225 747.079, 280.362 741.058, 274.987 734.847, 270.123 728.453, 265.794 721.885, 262.023 715.151, 258.830 708.260, 256.231 701.225, 254.242 694.056, 252.881 686.765, 252.166 679.365, 252.115 677.802, 252.247 671.870, 252.746 664.296, 254.079 656.658, 256.130 648.974, 258.908 641.260, 262.419 633.536, 266.669 625.820, 271.663 618.132, 277.406 610.745, 283.686 610.671, 283.748 610.657, 283.760 610.493, 283.900 603.271, 290.816 602.926, 291.146 596.100, 298.454 595.455, 299.146 589.020, 306.800 588.102, 307.892 586.089, 310.539 580.890, 317.372 576.881, 323.171 573.842, 327.568 569.771, 334.031 569.306, 334.770 566.979, 338.463 563.089, 345.231 560.635, 349.499 560.326, 350.036 559.017, 352.529 554.368, 361.383 553.945, 362.189 553.905, 362.265 552.300, 365.615 547.977, 374.632 547.741, 375.124 543.737, 384.287 541.858, 388.585 541.194, 390.257 537.500, 399.550 537.443, 399.692 536.280, 402.618 532.889, 412.026 531.029, 417.186 527.930, 426.694 526.122, 432.244 523.310, 441.840 521.578, 447.750 519.045, 457.424 517.414, 463.656 515.156, 473.398 513.645, 479.917 511.659, 489.717 510.289, 496.481 508.572, 506.333 507.359, 513.298 505.911, 523.193 505.516, 525.898 504.870, 530.315 503.690, 540.245 502.832, 547.475 501.917, 557.433 501.248, 564.723 500.599, 574.702 500.124, 582.001 499.741, 591.993 499.463, 599.253 499.349, 609.252 499.268, 616.422 499.427, 626.421 499.540, 633.453 499.975, 643.444 500.273, 650.291 500.988, 660.265 501.463, 666.882 502.465, 676.831 503.103, 683.174 504.399, 693.089 504.659, 695.079 505.187, 699.116 505.366, 700.185 506.958, 710.057 507.701, 714.662 509.607, 724.479 510.634, 729.767 512.859, 739.516 513.971, 744.388 516.528, 754.055 516.759, 754.928 517.699, 758.484 518.591, 761.428 521.490, 770.999 521.800, 772.020 524.714, 780.488 525.886, 783.892 526.255, 784.963 529.878, 794.284 531.045, 797.286 531.367, 798.023 532.654, 800.965 535.440, 807.335 536.151, 808.961 540.561, 817.936 541.555, 819.959 546.385, 828.715 547.238, 830.261 552.500, 838.765 553.174, 839.855 558.882, 848.066 559.342, 848.729 565.507, 856.602 565.720, 856.873 572.286, 864.282 579.019, 870.950 585.900, 876.873 592.908, 882.047 600.024, 886.476 607.226, 890.170 614.493, 893.140 621.358, 895.258 621.807, 895.397 629.150, 896.953 636.505, 897.821 643.855, 898.013 651.186, 897.540 658.483, 896.416 665.730, 894.660 672.915, 892.294 680.023, 889.339 687.044, 885.816 693.966, 881.744 700.779, 877.142 707.472, 872.028 714.037, 866.418 720.465, 860.331 726.747, 853.789 732.877, 846.814 738.848, 839.429 744.655, 831.654 750.291, 823.508 755.695, 815.094 755.751, 815.007 760.879, 806.422 761.030, 806.170 765.889, 797.430 766.122, 797.011 770.721, 788.132 771.023, 787.549 775.372, 778.544 775.730, 777.803 779.837, 768.685 780.239, 767.792 784.113, 758.573 784.549, 757.535 788.197, 748.224 788.657, 747.048 792.083, 737.654 792.560, 736.348 795.770, 726.877 796.254, 725.448 799.252, 715.908 799.737, 714.363 802.526, 704.760 803.006, 703.108 805.591, 693.448 806.059, 691.698 808.443, 681.987 808.894, 680.150 811.083, 670.392 811.512, 668.477 813.507, 658.678 813.911, 656.697 815.715, 646.861 816.090, 644.821 817.705, 634.952 818.046, 632.864 819.472, 622.967 819.779, 620.840 821.016, 610.917 821.285, 608.761 822.333, 598.817 822.563, 596.642 823.425, 586.680 823.614, 584.497 824.289, 574.520 824.437, 572.339 824.925, 562.351 825.031, 560.182 825.331, 550.187 825.395, 548.039 825.504, 538.040 825.527, 535.925 825.444, 525.925 825.427, 523.852 825.386, 522.356 " fill="none" stroke="rgb(0, 0, 0)" stroke-linecap="butt" stroke-linejoin="round" stroke-opacity="1.0" stroke-width="3.0" />
            <path d=" M 677.144, 252.242 669.639, 252.874 662.055, 254.206 654.407, 256.256 646.713, 259.032 638.990, 262.541 631.257, 266.787 623.531, 271.777 615.834, 277.515 609.437, 282.942 609.318, 283.043 609.311, 283.049 608.187, 284.003 600.958, 290.912 600.612, 291.242 593.779, 298.544 593.133, 299.234 586.690, 306.882 585.773, 307.972 580.235, 315.236 578.554, 317.442 572.860, 325.662 571.499, 327.628 570.069, 329.894 569.369, 331.003 568.894, 331.756 564.630, 338.511 562.815, 341.663 560.358, 345.929 558.739, 348.739 557.971, 350.072 553.666, 358.256 551.999, 361.424 551.545, 362.287 547.216, 371.301 545.376, 375.132 541.365, 384.292 540.882, 385.395 539.489, 388.578 535.789, 397.869 533.907, 402.596 530.510, 412.001 528.652, 417.146 526.539, 423.621 523.743, 432.188 520.926, 441.783 519.196, 447.676 516.660, 457.349 515.030, 463.564 512.769, 473.305 511.260, 479.806 509.271, 489.606 507.903, 496.351 506.184, 506.203 504.972, 513.149 503.523, 523.044 503.107, 525.890 502.483, 530.146 501.303, 540.076 500.446, 547.287 499.532, 557.245 498.864, 564.515 498.215, 574.494 497.741, 581.773 497.359, 591.766 497.082, 599.006 496.970, 609.005 496.890, 616.156 497.051, 626.155 497.165, 633.168 497.602, 643.158 497.901, 649.987 498.620, 659.961 499.095, 666.560 500.101, 676.509 500.740, 682.834 502.040, 692.749 502.828, 698.760 503.293, 701.625 504.894, 711.496 505.348, 714.290 507.259, 724.105 508.286, 729.379 510.517, 739.127 511.629, 743.985 514.192, 753.651 515.363, 758.067 515.684, 759.121 517.522, 765.174 519.471, 771.590 522.733, 781.043 523.788, 784.100 523.933, 784.522 525.005, 787.272 528.635, 796.589 528.730, 796.834 530.627, 801.160 531.898, 804.060 533.844, 808.498 534.746, 810.331 539.165, 819.301 539.257, 819.487 544.095, 828.239 544.947, 829.782 550.218, 838.280 550.892, 839.368 556.608, 847.574 557.069, 848.236 563.242, 856.103 563.456, 856.375 570.031, 863.780 576.773, 870.445 583.663, 876.365 590.681, 881.537 597.807, 885.966 605.018, 889.660 612.296, 892.631 619.620, 894.890 " fill="none" stroke="rgb(0, 0, 0)" stroke-linecap="butt" stroke-linejoin="round" stroke-opacity="1.0" stroke-width="3.0" />
            <path d=" M 679.365, 252.115 677.144, 252.242 " fill="none" stroke="rgb(0, 0, 0)" stroke-linecap="butt" stroke-linejoin="round" stroke-opacity="1.0" stroke-width="3.0" />
            <path d=" M 619.620, 894.890 621.807, 895.397 " fill="none" stroke="rgb(0, 0, 0)" stroke-linecap="butt" stroke-linejoin="round" stroke-opacity="1.0" stroke-width="3.0" />
            <path d=" M 485.236, 686.277 486.560, 696.189 487.673, 704.523 489.302, 714.389 490.609, 722.296 492.553, 732.105 493.991, 739.359 494.028, 739.544 495.774, 747.036 497.913, 756.215 500.518, 765.870 501.063, 767.887 502.244, 772.265 505.189, 781.790 507.001, 787.649 507.034, 787.743 508.602, 792.206 510.113, 796.504 511.245, 799.723 512.162, 802.331 515.854, 811.624 515.899, 811.736 517.051, 814.637 517.703, 816.276 519.575, 820.460 520.821, 823.245 523.271, 828.721 523.600, 829.455 524.544, 831.333 525.159, 832.556 527.740, 837.689 529.828, 841.842 534.745, 850.550 536.363, 853.416 541.719, 861.861 543.177, 864.161 548.988, 872.299 550.246, 874.062 556.524, 881.846 557.543, 883.111 564.297, 890.486 565.043, 891.302 572.275, 898.208 572.720, 898.633 580.428, 905.005 580.550, 905.106 588.507, 910.724 596.569, 915.495 604.711, 919.428 612.913, 922.536 621.153, 924.832 625.474, 925.891 633.709, 927.385 641.941, 928.098 650.154, 928.051 658.328, 927.262 666.449, 925.754 674.499, 923.549 682.466, 920.668 690.335, 917.136 698.094, 912.975 705.730, 908.209 713.234, 902.862 720.595, 896.958 727.803, 890.520 734.851, 883.572 741.643, 876.232 741.731, 876.137 748.201, 868.512 748.434, 868.237 754.593, 860.359 754.955, 859.896 760.814, 851.791 761.289, 851.134 766.856, 842.828 767.428, 841.975 772.715, 833.487 773.368, 832.438 778.385, 823.788 779.106, 822.546 783.862, 813.749 784.636, 812.317 789.140, 803.388 789.956, 801.771 794.215, 792.724 795.061, 790.929 799.084, 781.774 799.948, 779.808 803.743, 770.556 804.616, 768.426 808.188, 759.086 809.061, 756.803 812.417, 747.382 813.282, 744.953 816.426, 735.460 817.276, 732.896 820.213, 723.337 821.040, 720.646 823.777, 711.028 824.575, 708.220 827.113, 698.548 827.878, 695.635 830.221, 685.913 830.947, 682.904 833.099, 673.138 833.781, 670.044 835.744, 660.238 836.379, 657.068 838.156, 647.227 838.740, 643.992 840.331, 634.120 840.862, 630.830 842.270, 620.930 842.745, 617.596 843.970, 607.672 844.386, 604.304 845.430, 594.359 845.786, 590.968 846.649, 581.005 846.944, 577.601 847.624, 567.624 847.857, 564.218 848.356, 554.231 848.525, 550.832 848.841, 540.837 848.948, 537.458 849.080, 527.458 849.124, 524.108 849.069, 514.108 849.052, 510.797 848.809, 500.799 848.730, 497.538 848.298, 487.548 848.160, 484.347 847.534, 474.367 847.338, 471.238 846.516, 461.272 846.265, 458.225 845.243, 448.278 844.939, 445.324 843.712, 435.399 843.360, 432.549 841.924, 422.653 841.527, 419.916 839.876, 410.054 839.438, 407.442 837.567, 397.619 837.095, 395.142 834.996, 385.365 834.495, 383.034 832.162, 373.310 831.640, 371.134 829.064, 361.471 828.527, 359.460 825.700, 349.868 825.159, 348.031 822.071, 338.520 821.534, 336.866 818.175, 327.447 817.652, 325.982 814.011, 316.669 813.516, 315.401 809.581, 306.208 809.125, 305.143 804.883, 296.087 804.481, 295.227 799.919, 286.328 799.585, 285.677 794.690, 276.957 794.440, 276.512 789.197, 267.997 789.049, 267.757 783.413, 259.433 777.537, 251.565 771.424, 244.175 765.080, 237.288 758.510, 230.928 751.720, 225.121 744.717, 219.889 737.509, 215.260 730.105, 211.256 722.514, 207.903 714.746, 205.225 706.815, 203.246 698.732, 201.988 690.510, 201.475 682.167, 201.727 677.749, 202.078 669.276, 203.116 660.714, 204.958 652.081, 207.619 643.398, 211.115 634.686, 215.459 626.098, 220.583 625.966, 220.662 617.762, 226.381 617.261, 226.731 609.456, 232.983 608.596, 233.671 601.195, 240.396 599.996, 241.486 592.999, 248.630 591.487, 250.173 584.889, 257.687 583.096, 259.727 581.435, 261.825 575.227, 269.665 574.850, 270.141 569.024, 278.268 566.778, 281.401 562.567, 287.869 561.958, 288.805 558.906, 293.492 558.680, 293.873 558.486, 294.202 555.956, 298.471 555.360, 299.477 554.370, 301.148 551.264, 306.392 551.213, 306.487 549.664, 309.357 549.187, 310.241 547.587, 313.206 543.880, 320.076 541.223, 325.482 539.647, 328.688 536.783, 334.515 536.549, 335.038 532.465, 344.166 529.999, 349.676 527.088, 356.837 523.557, 365.520 520.099, 374.903 517.482, 382.004 514.325, 391.493 511.800, 399.084 508.937, 408.665 506.534, 416.708 503.959, 426.371 501.707, 434.824 499.415, 444.558 497.792, 451.451 497.339, 453.373 495.580, 461.929 493.567, 471.724 493.449, 472.297 491.711, 482.144 490.055, 491.531 488.589, 501.423 487.703, 507.409 487.169, 511.012 486.940, 512.914 486.830, 513.832 486.490, 516.661 486.244, 518.702 486.149, 519.490 486.087, 520.009 485.945, 521.188 484.804, 530.673 483.881, 540.631 482.971, 550.447 482.318, 560.425 481.674, 570.264 481.293, 580.257 480.919, 590.056 480.812, 600.055 480.708, 609.754 480.878, 619.753 481.039, 629.291 481.489, 639.281 481.909, 648.600 482.644, 658.573 483.024, 663.735 483.310, 667.616 484.337, 677.563 485.236, 686.277 " fill="none" stroke="rgb(0, 0, 0)" stroke-linecap="butt" stroke-linejoin="round" stroke-opacity="1.0" stroke-width="3.0" />
            <path d=" M 682.167, 201.727 673.716, 202.765 665.176, 204.607 656.566, 207.270 647.905, 210.770 639.213, 215.120 630.634, 220.258 630.513, 220.331 622.321, 226.065 621.828, 226.409 614.036, 232.676 613.183, 233.362 605.795, 240.101 604.602, 241.190 597.618, 248.348 596.110, 249.893 589.526, 257.420 587.736, 259.466 584.023, 264.174 579.506, 269.900 573.694, 278.038 571.448, 281.183 566.007, 289.573 563.590, 293.299 563.564, 293.344 562.991, 294.314 559.181, 300.771 556.661, 305.041 555.962, 306.226 555.094, 307.840 550.359, 316.648 549.977, 317.359 548.590, 319.939 548.370, 320.388 543.972, 329.369 541.503, 334.409 537.432, 343.542 534.730, 349.603 530.974, 358.871 528.296, 365.482 524.849, 374.869 522.229, 382.004 519.253, 390.977 516.553, 399.122 513.699, 408.706 511.292, 416.787 508.725, 426.451 506.469, 434.943 504.184, 444.679 502.104, 453.535 500.096, 463.332 498.217, 472.502 496.483, 482.351 495.509, 487.885 494.823, 491.781 493.360, 501.674 492.501, 507.492 491.937, 511.308 491.284, 516.744 490.944, 519.575 490.528, 523.038 489.570, 531.014 489.438, 532.447 488.515, 542.404 487.734, 550.833 487.666, 551.876 487.013, 561.855 486.434, 570.696 486.249, 575.520 485.867, 585.513 485.674, 590.533 485.606, 596.780 485.496, 606.779 485.457, 610.275 485.623, 620.274 485.781, 629.856 486.226, 639.846 486.643, 649.208 487.372, 659.181 487.760, 664.496 487.981, 667.511 488.036, 668.266 488.554, 673.323 489.108, 678.733 489.213, 679.760 489.951, 686.967 491.267, 696.880 492.042, 702.722 492.202, 703.928 492.378, 705.252 493.998, 715.120 495.302, 723.063 496.631, 729.805 498.565, 739.616 498.709, 740.346 500.966, 750.088 502.580, 757.051 505.173, 766.709 506.897, 773.132 509.309, 780.972 510.859, 786.009 511.639, 788.545 514.941, 797.985 516.784, 803.254 517.752, 805.702 518.934, 808.691 521.554, 815.317 522.308, 817.224 524.910, 823.066 526.145, 825.837 528.188, 830.425 529.181, 832.407 533.657, 841.350 534.399, 842.832 539.299, 851.550 540.915, 854.424 546.255, 862.879 547.711, 865.184 553.505, 873.334 554.760, 875.098 561.022, 882.895 562.037, 884.158 568.776, 891.546 569.516, 892.358 576.736, 899.277 577.173, 899.695 584.869, 906.080 584.981, 906.172 592.917, 911.793 600.956, 916.564 609.077, 920.496 617.257, 923.600 625.474, 925.891 " fill="none" stroke="rgb(0, 0, 0)" stroke-linecap="butt" stroke-linejoin="round" stroke-opacity="1.0" stroke-width="3.0" />
            <path d=" M 729.507, 518.259 728.630, 518.378 727.748, 518.721 726.876, 519.283 726.029, 520.055 725.682, 520.491 725.257, 521.026 724.573, 522.182 723.958, 523.500 723.421, 524.958 722.972, 526.532 722.674, 527.936 722.619, 528.193 722.368, 529.915 722.334, 530.316 722.222, 531.666 722.185, 533.418 722.258, 535.139 " fill="none" stroke="rgb(0, 0, 0)" stroke-linecap="butt" stroke-linejoin="round" stroke-opacity="1.0" stroke-width="3.0" />
            <path d=" M 728.787, 528.320 729.046, 528.361 729.295, 528.492 729.525, 528.710 729.730, 529.009 729.906, 529.380 730.047, 529.814 730.149, 530.298 730.209, 530.820 " fill="none" stroke="rgb(0, 0, 0)" stroke-linecap="butt" stroke-linejoin="round" stroke-opacity="1.0" stroke-width="3.0" />
            <path d=" M 727.177, 530.626 730.209, 530.820 738.997, 526.047 747.784, 521.273 753.987, 517.904 " fill="none" stroke="rgb(0, 0, 0)" stroke-linecap="butt" stroke-linejoin="round" stroke-opacity="1.0" stroke-width="3.0" />
            <path d=" M 802.678, 522.544 801.843, 522.670 801.001, 523.028 800.167, 523.612 799.354, 524.412 799.022, 524.864 798.614, 525.418 797.961, 526.613 797.371, 527.976 796.854, 529.483 796.420, 531.108 796.129, 532.557 796.075, 532.823 795.827, 534.600 795.793, 535.014 795.678, 536.407 795.632, 538.214 795.690, 539.989 " fill="none" stroke="rgb(0, 0, 0)" stroke-linecap="butt" stroke-linejoin="round" stroke-opacity="1.0" stroke-width="3.0" />
            <path d=" M 801.902, 532.920 802.147, 532.961 802.381, 533.095 802.597, 533.319 802.789, 533.625 802.952, 534.007 803.082, 534.454 803.176, 534.952 803.229, 535.490 " fill="none" stroke="rgb(0, 0, 0)" stroke-linecap="butt" stroke-linejoin="round" stroke-opacity="1.0" stroke-width="3.0" />
            <path d=" M 779.262, 479.922 779.399, 479.845 779.547, 479.790 779.703, 479.760 779.864, 479.754 780.085, 479.786 780.300, 479.862 780.502, 479.980 780.683, 480.135 780.836, 480.322 780.957, 480.536 781.040, 480.770 781.080, 481.020 781.074, 481.254 781.025, 481.478 780.936, 481.682 780.810, 481.860 780.651, 482.005 780.463, 482.112 " fill="none" stroke="rgb(0, 0, 0)" stroke-linecap="butt" stroke-linejoin="round" stroke-opacity="1.0" stroke-width="3.0" />
            <path d=" M 779.262, 479.922 779.203, 479.962 779.028, 480.112 778.887, 480.294 778.856, 480.341 778.750, 480.557 778.690, 480.792 778.679, 481.043 778.718, 481.276 778.729, 481.329 778.814, 481.548 778.940, 481.745 779.104, 481.914 779.146, 481.949 779.333, 482.075 779.391, 482.099 779.585, 482.177 779.643, 482.191 779.826, 482.216 779.863, 482.221 779.906, 482.224 779.956, 482.225 780.007, 482.224 780.057, 482.220 780.106, 482.214 780.151, 482.206 780.192, 482.197 780.347, 482.153 780.412, 482.133 780.463, 482.112 " fill="none" stroke="rgb(0, 0, 0)" stroke-linecap="butt" stroke-linejoin="round" stroke-opacity="1.0" stroke-width="3.0" />
            <path d=" M 776.906, 477.810 777.301, 483.896 781.277, 484.067 782.983, 484.140 783.628, 483.642 782.739, 477.964 780.450, 477.806 777.336, 477.590 776.906, 477.810 " fill="none" stroke="rgb(0, 0, 0)" stroke-linecap="butt" stroke-linejoin="round" stroke-opacity="1.0" stroke-width="3.0" />
            <path d=" M 782.983, 484.140 782.593, 478.040 " fill="none" stroke="rgb(0, 0, 0)" stroke-linecap="butt" stroke-linejoin="round" stroke-opacity="1.0" stroke-width="3.0" />
            <path d=" M 782.739, 477.964 782.593, 478.040 776.906, 477.810 " fill="none" stroke="rgb(0, 0, 0)" stroke-linecap="butt" stroke-linejoin="round" stroke-opacity="1.0" stroke-width="3.0" />
            <path d=" M 741.231, 509.229 738.810, 509.220 728.811, 509.373 727.325, 509.396 717.331, 509.722 715.859, 509.770 705.871, 510.250 704.406, 510.321 694.425, 510.939 692.962, 511.030 682.989, 511.768 681.520, 511.877 671.556, 512.718 670.077, 512.843 660.120, 513.772 658.627, 513.911 648.677, 514.910 647.165, 515.062 637.221, 516.116 635.687, 516.279 625.747, 517.373 624.187, 517.544 614.250, 518.663 612.662, 518.842 602.725, 519.970 601.105, 520.154 591.168, 521.278 589.512, 521.466 579.573, 522.572 577.878, 522.760 578.163, 512.764 578.292, 508.221 578.461, 498.223 578.538, 493.649 578.592, 483.649 578.617, 479.062 578.557, 469.062 578.529, 464.479 578.352, 454.481 578.272, 449.920 577.979, 439.924 577.847, 435.402 577.437, 425.411 577.253, 420.946 576.723, 410.960 576.490, 406.571 576.152, 401.391 " fill="none" stroke="rgb(0, 0, 0)" stroke-linecap="butt" stroke-linejoin="round" stroke-opacity="1.0" stroke-width="3.0" />
            <path d=" M 581.435, 261.825 581.103, 261.524 574.149, 254.337 573.673, 253.845 567.174, 246.245 566.605, 245.580 560.559, 237.615 559.922, 236.776 554.326, 228.489 553.706, 227.571 " fill="none" stroke="rgb(0, 0, 0)" stroke-linecap="butt" stroke-linejoin="round" stroke-opacity="1.0" stroke-width="3.0" />
            <path d=" M 547.474, 217.144 542.764, 208.323 542.363, 207.572 541.727, 206.227 541.643, 206.049 538.091, 198.537 537.383, 197.041 " fill="none" stroke="rgb(0, 0, 0)" stroke-linecap="butt" stroke-linejoin="round" stroke-opacity="1.0" stroke-width="3.0" />
            <path d=" M 555.485, 230.439 553.706, 227.571 553.489, 227.221 549.375, 220.590 547.916, 217.945 547.666, 217.492 547.474, 217.144 543.678, 210.267 " fill="none" stroke="rgb(0, 0, 0)" stroke-linecap="butt" stroke-linejoin="round" stroke-opacity="1.0" stroke-width="3.0" />
            <path d=" M 537.383, 197.041 533.574, 188.351 529.777, 180.621 529.609, 180.279 525.879, 173.556 525.493, 172.861 521.232, 166.136 518.389, 162.265 516.832, 160.146 514.282, 157.214 512.299, 154.933 507.641, 150.537 502.867, 146.997 500.373, 145.647 497.988, 144.356 497.449, 144.172 493.013, 142.656 487.956, 141.932 482.829, 142.223 477.647, 143.565 472.427, 145.992 470.844, 147.061 469.961, 147.656 467.186, 149.531 464.561, 151.871 461.941, 154.207 456.714, 160.047 453.047, 165.004 451.831, 166.648 451.524, 167.063 446.893, 174.469 446.393, 175.267 441.661, 184.077 441.345, 184.665 437.116, 193.726 436.403, 195.254 432.620, 204.511 431.592, 207.026 428.204, 216.435 426.935, 219.960 423.905, 229.489 422.459, 234.033 419.751, 243.659 418.189, 249.211 415.775, 258.915 414.149, 265.450 412.005, 275.217 410.363, 282.697 408.469, 292.516 406.854, 300.891 405.196, 310.753 403.647, 319.964 402.209, 329.860 400.760, 339.834 399.532, 349.759 398.303, 359.683 398.213, 360.416 397.186, 370.363 396.158, 380.310 396.023, 381.616 395.190, 391.581 394.356, 401.546 394.206, 403.335 393.560, 413.315 392.913, 423.294 392.773, 425.468 392.310, 435.457 391.847, 445.446 391.733, 447.902 391.761, 447.987 394.809, 457.511 397.613, 466.272 398.326, 468.403 401.499, 477.886 403.567, 484.068 406.867, 493.508 409.598, 501.317 413.029, 510.709 415.707, 518.041 419.271, 527.384 421.896, 534.264 425.596, 543.554 428.166, 550.008 432.005, 559.241 434.520, 565.293 438.499, 574.467 440.960, 580.140 445.081, 589.251 447.486, 594.569 451.751, 603.613 454.101, 608.597 458.511, 617.573 460.806, 622.245 465.362, 631.147 467.605, 635.528 472.307, 644.353 474.497, 648.464 479.347, 657.209 481.487, 661.069 483.024, 663.735 " fill="none" stroke="rgb(0, 0, 0)" stroke-linecap="butt" stroke-linejoin="round" stroke-opacity="1.0" stroke-width="3.0" />
            <path d=" M 362.217, 438.962 357.688, 447.877 355.188, 452.798 " fill="none" stroke="rgb(0, 0, 0)" stroke-linecap="butt" stroke-linejoin="round" stroke-opacity="1.0" stroke-width="3.0" />
            <path d=" M 470.844, 147.061 464.968, 147.393 " fill="none" stroke="rgb(0, 0, 0)" stroke-linecap="butt" stroke-linejoin="round" stroke-opacity="1.0" stroke-width="3.0" />
            <path d=" M 535.266, 499.280 541.016, 499.543 533.563, 505.856 " fill="none" stroke="rgb(0, 0, 0)" stroke-linecap="butt" stroke-linejoin="round" stroke-opacity="1.0" stroke-width="3.0" />
            <path d=" M 553.489, 227.221 548.339, 218.650 547.916, 217.945 " fill="none" stroke="rgb(0, 0, 0)" stroke-linecap="butt" stroke-linejoin="round" stroke-opacity="1.0" stroke-width="3.0" />
            <path d=" M 790.767, 539.664 790.931, 547.312 " fill="none" stroke="rgb(0, 0, 0)" stroke-linecap="butt" stroke-linejoin="round" stroke-opacity="1.0" stroke-width="3.0" />
            <path d=" M 794.772, 522.081 794.676, 520.179 " fill="none" stroke="rgb(0, 0, 0)" stroke-linecap="butt" stroke-linejoin="round" stroke-opacity="1.0" stroke-width="3.0" />
            <path d=" M 800.270, 521.113 800.248, 520.677 " fill="none" stroke="rgb(0, 0, 0)" stroke-linecap="butt" stroke-linejoin="round" stroke-opacity="1.0" stroke-width="3.0" />
        </g>
    </g>
</svg>
