<?xml version='1.0' encoding='ascii'?>
<svg xmlns="http://www.w3.org/2000/svg" height="1080" version="1.1" width="1080">
    <g id="View Layer_LineSet" inkscape:groupmode="lineset" inkscape:label="View Layer_LineSet" xmlns:inkscape="http://www.inkscape.org/namespaces/inkscape">
        <g id="strokes" inkscape:groupmode="layer" inkscape:label="strokes" xmlns:inkscape="http://www.inkscape.org/namespaces/inkscape">
            <path d=" M 565.379, 506.671 565.306, 507.784 565.232, 508.668 " fill="none" stroke="rgb(0, 0, 0)" stroke-linecap="butt" stroke-linejoin="round" stroke-opacity="1.0" stroke-width="3.0" />
            <path d=" M 354.574, 468.438 360.971, 467.598 " fill="none" stroke="rgb(0, 0, 0)" stroke-linecap="butt" stroke-linejoin="round" stroke-opacity="1.0" stroke-width="3.0" />
            <path d=" M 378.917, 467.799 388.879, 468.670 390.927, 468.849 " fill="none" stroke="rgb(0, 0, 0)" stroke-linecap="butt" stroke-linejoin="round" stroke-opacity="1.0" stroke-width="3.0" />
            <path d=" M 390.927, 468.849 387.113, 459.605 383.300, 450.361 382.496, 448.413 " fill="none" stroke="rgb(0, 0, 0)" stroke-linecap="butt" stroke-linejoin="round" stroke-opacity="1.0" stroke-width="3.0" />
            <path d=" M 467.532, 152.917 463.033, 153.265 458.476, 154.694 453.876, 157.242 449.248, 160.938 444.607, 165.808 439.973, 171.878 439.454, 172.699 438.499, 174.208 435.364, 179.165 430.799, 187.680 426.608, 196.759 426.300, 197.426 422.571, 206.705 421.888, 208.405 418.562, 217.836 417.586, 220.604 414.615, 230.152 413.416, 234.002 410.760, 243.643 409.402, 248.573 407.031, 258.287 405.568, 264.280 403.453, 274.053 401.935, 281.073 400.056, 290.895 398.526, 298.897 396.866, 308.758 395.363, 317.684 393.907, 327.577 392.468, 337.359 391.204, 347.279 389.939, 357.199 389.858, 357.836 388.776, 367.777 387.693, 377.718 387.552, 379.021 386.644, 388.980 385.736, 398.938 385.565, 400.815 384.824, 410.787 384.084, 420.760 383.910, 423.109 383.333, 433.092 382.756, 443.075 382.599, 445.791 382.496, 448.413 380.680, 458.247 378.917, 467.799 " fill="none" stroke="rgb(0, 0, 0)" stroke-linecap="butt" stroke-linejoin="round" stroke-opacity="1.0" stroke-width="3.0" />
            <path d=" M 528.914, 721.338 529.552, 718.138 531.350, 708.301 531.808, 705.791 533.460, 695.929 533.930, 693.123 535.444, 683.238 535.915, 680.159 537.173, 671.160 537.765, 666.925 539.027, 657.005 539.479, 653.446 540.624, 643.512 541.058, 639.747 542.091, 629.800 542.502, 625.848 543.427, 615.891 543.810, 611.773 544.632, 601.807 544.983, 597.543 545.704, 587.569 546.022, 583.179 546.645, 573.199 546.926, 568.702 547.453, 558.716 547.695, 554.130 548.129, 544.140 548.331, 539.485 548.672, 529.490 548.833, 524.784 555.370, 524.828 557.218, 524.841 557.326, 524.842 559.111, 524.854 562.683, 524.878 563.522, 524.884 564.470, 524.891 567.038, 524.908 577.038, 524.976 577.805, 524.981 578.055, 514.984 578.175, 510.172 578.308, 500.173 578.372, 495.341 578.387, 485.341 578.395, 480.506 578.293, 470.506 578.244, 465.688 578.024, 455.690 577.919, 450.906 577.580, 440.912 577.420, 436.182 576.959, 426.193 576.745, 421.535 576.161, 411.552 575.894, 406.987 575.188, 397.057 " fill="none" stroke="rgb(0, 0, 0)" stroke-linecap="butt" stroke-linejoin="round" stroke-opacity="1.0" stroke-width="3.0" />
            <path d=" M 572.237, 401.925 572.890, 411.010 573.479, 420.992 573.712, 424.938 574.177, 434.927 574.365, 438.966 574.708, 448.960 574.849, 453.072 575.072, 463.069 575.164, 467.235 575.268, 477.235 575.311, 481.436 575.296, 491.436 575.290, 495.654 575.157, 505.654 575.102, 509.870 575.074, 510.966 574.982, 511.632 574.881, 512.260 574.774, 512.846 574.660, 513.387 574.540, 513.878 574.415, 514.319 574.285, 514.707 574.151, 515.039 574.015, 515.313 573.876, 515.529 573.736, 515.685 573.595, 515.780 573.454, 515.813 573.313, 515.785 569.327, 514.093 569.178, 512.828 569.000, 511.700 568.797, 510.730 568.570, 509.934 568.324, 509.325 568.063, 508.914 567.791, 508.709 567.363, 508.702 565.346, 508.669 565.232, 508.668 564.803, 508.661 563.848, 508.645 563.016, 508.632 559.445, 508.574 557.661, 508.545 557.570, 508.544 557.410, 508.541 557.122, 508.546 556.832, 508.761 556.545, 509.183 556.267, 509.805 556.003, 510.618 555.755, 511.609 555.661, 512.089 555.530, 512.760 555.331, 514.052 555.160, 515.464 555.023, 516.971 554.920, 518.548 554.853, 520.167 555.482, 520.406 556.523, 520.800 557.320, 520.814 557.428, 520.816 557.630, 520.820 559.212, 520.848 562.783, 520.911 563.622, 520.926 564.570, 520.943 565.041, 520.951 566.927, 520.984 566.949, 520.473 566.985, 519.981 567.034, 519.522 567.095, 519.109 567.165, 518.754 567.190, 518.663 567.244, 518.465 567.328, 518.251 567.416, 518.117 567.504, 518.067 " fill="none" stroke="rgb(0, 0, 0)" stroke-linecap="butt" stroke-linejoin="round" stroke-opacity="1.0" stroke-width="3.0" />
            <path d=" M 567.987, 521.402 574.746, 524.064 577.805, 524.981 " fill="none" stroke="rgb(0, 0, 0)" stroke-linecap="butt" stroke-linejoin="round" stroke-opacity="1.0" stroke-width="3.0" />
            <path d=" M 388.882, 219.646 388.381, 221.209 385.648, 230.828 384.618, 234.457 382.171, 244.153 380.979, 248.880 378.788, 258.637 377.484, 264.444 375.524, 274.250 374.154, 281.103 372.404, 290.949 371.007, 298.802 369.451, 308.681 368.065, 317.480 366.689, 327.385 365.344, 337.065 364.138, 346.991 362.931, 356.918 362.864, 357.471 361.817, 367.416 360.771, 377.361 360.639, 378.610 359.746, 388.570 358.852, 398.530 358.686, 400.384 357.940, 410.356 357.194, 420.328 357.017, 422.688 356.414, 432.670 355.810, 442.652 355.643, 445.411 355.179, 455.400 354.716, 465.390 354.574, 468.438 354.294, 478.434 354.013, 488.430 353.924, 491.594 353.802, 501.593 353.680, 511.593 353.642, 514.789 353.679, 524.789 353.716, 534.789 353.727, 537.900 353.925, 547.898 354.122, 557.897 354.180, 560.807 354.541, 570.801 354.903, 580.794 354.997, 583.391 355.526, 593.377 356.055, 603.363 356.170, 605.537 356.873, 615.512 357.576, 625.488 357.692, 627.138 358.577, 637.098 359.461, 647.059 359.552, 648.088 360.627, 658.030 361.702, 667.972 361.737, 668.293 363.014, 678.211 364.231, 687.666 365.724, 697.554 367.018, 706.128 368.743, 715.978 370.080, 723.608 370.708, 726.721 " fill="none" stroke="rgb(0, 0, 0)" stroke-linecap="butt" stroke-linejoin="round" stroke-opacity="1.0" stroke-width="3.0" />
            <path d=" M 521.563, 561.012 521.281, 565.912 520.594, 575.889 520.324, 579.809 519.523, 589.777 519.217, 593.591 518.301, 603.549 517.961, 607.239 517.939, 607.446 " fill="none" stroke="rgb(0, 0, 0)" stroke-linecap="butt" stroke-linejoin="round" stroke-opacity="1.0" stroke-width="3.0" />
            <path d=" M 494.728, 740.948 494.433, 742.046 491.617, 751.641 491.438, 752.252 488.377, 761.772 488.306, 761.991 485.042, 771.232 481.649, 779.944 478.130, 788.090 474.489, 795.636 470.732, 802.545 466.863, 808.783 462.889, 814.311 458.817, 819.091 454.655, 823.087 453.649, 823.839 " fill="none" stroke="rgb(0, 0, 0)" stroke-linecap="butt" stroke-linejoin="round" stroke-opacity="1.0" stroke-width="3.0" />
            <path d=" M 391.137, 463.675 390.927, 468.849 390.660, 478.845 390.392, 488.842 390.309, 491.949 390.201, 501.948 390.094, 511.948 390.060, 515.088 390.112, 525.088 390.165, 535.088 390.181, 538.145 390.395, 548.143 390.608, 558.140 390.670, 560.999 391.047, 570.992 391.425, 580.985 391.521, 583.534 392.065, 593.519 392.610, 603.504 392.726, 605.635 393.441, 615.609 394.157, 625.583 394.272, 627.194 395.166, 637.154 396.059, 647.114 396.148, 648.108 397.227, 658.050 398.306, 667.991 398.337, 668.282 399.610, 678.201 400.821, 687.630 402.301, 697.519 403.580, 706.071 405.281, 715.925 406.595, 723.536 408.536, 733.346 409.845, 739.964 412.045, 749.719 413.305, 755.305 415.793, 764.991 416.956, 769.517 419.763, 779.115 420.773, 782.566 423.940, 792.051 424.734, 794.430 428.310, 803.769 428.818, 805.095 432.865, 814.240 433.003, 814.552 437.267, 822.800 441.592, 829.849 441.698, 829.992 441.981, 830.372 445.957, 835.712 450.346, 840.406 454.740, 843.954 459.125, 846.388 463.486, 847.735 467.808, 848.030 472.079, 847.310 476.289, 845.614 480.427, 842.981 484.484, 839.449 486.687, 837.014 488.452, 835.063 492.323, 829.863 496.090, 823.889 499.749, 817.181 503.294, 809.781 506.721, 801.728 509.782, 793.699 " fill="none" stroke="rgb(0, 0, 0)" stroke-linecap="butt" stroke-linejoin="round" stroke-opacity="1.0" stroke-width="3.0" />
            <path d=" M 467.592, 829.811 463.535, 829.327 462.457, 828.936 459.457, 827.846 455.372, 825.340 453.649, 823.839 451.293, 821.784 447.235, 817.152 443.213, 811.423 439.246, 804.584 435.348, 796.628 431.540, 787.546 428.130, 778.145 427.838, 777.341 424.825, 767.806 424.262, 766.024 421.598, 756.386 420.831, 753.612 418.477, 743.893 417.565, 740.125 415.488, 730.343 414.481, 725.596 412.656, 715.764 411.599, 710.068 410.004, 700.196 408.937, 693.588 407.555, 683.684 406.512, 676.211 405.328, 666.281 404.342, 658.004 403.344, 648.054 402.439, 639.041 401.618, 629.075 400.820, 619.401 400.167, 609.422 399.514, 599.444 399.497, 599.172 399.005, 589.184 398.514, 579.196 398.478, 578.449 398.143, 568.454 397.809, 558.460 397.772, 557.331 397.591, 547.332 397.411, 537.334 397.385, 535.921 397.356, 525.921 397.327, 515.921 397.323, 514.326 397.443, 504.327 397.564, 494.328 397.584, 492.658 397.855, 482.661 397.866, 482.247 " fill="none" stroke="rgb(0, 0, 0)" stroke-linecap="butt" stroke-linejoin="round" stroke-opacity="1.0" stroke-width="3.0" />
            <path d=" M 506.372, 783.535 504.773, 787.579 501.451, 795.102 498.024, 801.990 494.498, 808.208 490.877, 813.717 487.170, 818.480 483.381, 822.461 479.520, 825.622 475.595, 827.924 471.616, 829.331 467.592, 829.811 " fill="none" stroke="rgb(0, 0, 0)" stroke-linecap="butt" stroke-linejoin="round" stroke-opacity="1.0" stroke-width="3.0" />
            <path d=" M 546.284, 523.882 545.939, 533.876 545.798, 537.970 545.354, 547.960 545.174, 552.002 544.630, 561.987 544.414, 565.960 543.769, 575.939 543.518, 579.824 542.769, 589.796 542.485, 593.574 541.630, 603.537 541.317, 607.189 540.353, 617.143 540.013, 620.650 538.937, 630.592 538.575, 633.934 537.382, 643.862 537.003, 647.018 535.688, 656.932 535.296, 659.883 533.854, 669.778 533.457, 672.502 532.422, 678.984 531.485, 684.853 529.766, 694.704 529.381, 696.909 527.511, 706.733 527.147, 708.646 526.619, 711.194 " fill="none" stroke="rgb(0, 0, 0)" stroke-linecap="butt" stroke-linejoin="round" stroke-opacity="1.0" stroke-width="3.0" />
            <path d=" M 548.833, 524.784 546.284, 523.882 555.393, 523.941 557.240, 523.953 562.706, 523.988 564.493, 523.999 564.963, 524.002 564.497, 523.826 563.558, 523.469 562.726, 523.154 559.188, 521.811 557.624, 521.218 557.630, 520.820 " fill="none" stroke="rgb(0, 0, 0)" stroke-linecap="butt" stroke-linejoin="round" stroke-opacity="1.0" stroke-width="3.0" />
            <path d=" M 378.917, 467.799 378.644, 477.795 378.370, 487.791 378.259, 491.848 378.144, 501.847 378.028, 511.846 377.980, 515.937 378.022, 525.937 378.063, 535.937 378.080, 539.938 378.280, 549.935 378.480, 559.933 378.556, 563.722 378.918, 573.715 379.280, 583.709 379.405, 587.165 379.932, 597.151 380.459, 607.137 380.617, 610.147 381.315, 620.122 382.012, 630.098 382.184, 632.553 383.059, 642.514 383.933, 652.476 384.091, 654.273 385.152, 664.217 386.213, 674.161 386.325, 675.209 387.582, 685.130 388.839, 695.050 388.867, 695.269 390.333, 705.161 391.699, 714.371 393.391, 724.227 394.801, 732.440 396.737, 742.250 398.151, 749.415 400.355, 759.169 401.727, 765.245 404.227, 774.928 405.507, 779.888 408.338, 789.479 409.468, 793.308 412.671, 802.781 413.586, 805.486 417.214, 814.804 417.839, 816.408 421.958, 825.521 422.205, 826.067 426.662, 834.466 431.188, 841.615 435.765, 847.532 440.374, 852.234 444.995, 855.750 449.613, 858.113 454.212, 859.354 458.776, 859.510 463.294, 858.622 467.752, 856.731 472.140, 853.879 476.447, 850.107 480.664, 845.461 484.784, 839.985 " fill="none" stroke="rgb(0, 0, 0)" stroke-linecap="butt" stroke-linejoin="round" stroke-opacity="1.0" stroke-width="3.0" />
            <path d=" M 484.784, 839.985 488.452, 835.063 " fill="none" stroke="rgb(0, 0, 0)" stroke-linecap="butt" stroke-linejoin="round" stroke-opacity="1.0" stroke-width="3.0" />
            <path d=" M 539.434, 549.040 529.441, 549.410 528.005, 549.463 525.193, 544.721 524.165, 542.989 " fill="none" stroke="rgb(0, 0, 0)" stroke-linecap="butt" stroke-linejoin="round" stroke-opacity="1.0" stroke-width="3.0" />
            <path d=" M 540.950, 498.520 540.807, 508.519 540.664, 518.518 540.588, 523.846 540.195, 533.838 540.033, 537.941 539.494, 547.927 539.434, 549.040 534.489, 540.349 530.975, 534.174 530.717, 533.720 530.459, 533.266 530.200, 532.811 529.943, 532.356 529.645, 531.702 529.370, 530.834 529.123, 529.768 528.995, 529.022 528.910, 528.525 528.737, 527.127 528.605, 525.603 528.518, 523.980 528.509, 523.611 528.477, 522.290 528.482, 520.567 528.514, 519.528 " fill="none" stroke="rgb(0, 0, 0)" stroke-linecap="butt" stroke-linejoin="round" stroke-opacity="1.0" stroke-width="3.0" />
            <path d=" M 530.899, 523.655 530.773, 523.613 530.655, 523.437 530.547, 523.134 530.457, 522.717 530.386, 522.204 530.340, 521.619 530.320, 520.987 530.326, 520.336 530.359, 519.694 530.417, 519.089 530.497, 518.548 530.596, 518.095 530.710, 517.749 530.833, 517.526 530.960, 517.435 " fill="none" stroke="rgb(0, 0, 0)" stroke-linecap="butt" stroke-linejoin="round" stroke-opacity="1.0" stroke-width="3.0" />
            <path d=" M 530.960, 517.435 531.085, 517.481 531.204, 517.660 531.310, 517.965 531.401, 518.382 531.470, 518.893 531.516, 519.475 531.536, 520.105 531.530, 520.754 531.497, 521.394 531.440, 521.996 531.360, 522.536 531.262, 522.989 531.149, 523.336 531.026, 523.561 530.899, 523.655 " fill="none" stroke="rgb(0, 0, 0)" stroke-linecap="butt" stroke-linejoin="round" stroke-opacity="1.0" stroke-width="3.0" />
            <path d=" M 533.608, 498.159 540.950, 498.520 533.708, 505.416 531.928, 507.111 531.786, 507.245 531.507, 507.511 531.227, 507.778 531.206, 507.797 " fill="none" stroke="rgb(0, 0, 0)" stroke-linecap="butt" stroke-linejoin="round" stroke-opacity="1.0" stroke-width="3.0" />
            <path d=" M 363.478, 418.956 363.194, 422.943 362.627, 432.926 362.059, 442.910 361.931, 445.157 361.530, 454.532 361.102, 464.523 360.971, 467.598 360.682, 477.594 360.393, 487.590 360.318, 490.176 360.167, 500.174 360.016, 510.173 359.976, 512.800 359.963, 522.800 359.950, 532.800 359.947, 535.380 359.987, 538.622 " fill="none" stroke="rgb(0, 0, 0)" stroke-linecap="butt" stroke-linejoin="round" stroke-opacity="1.0" stroke-width="3.0" />
            <path d=" M 535.283, 744.730 536.881, 736.299 538.618, 726.451 538.955, 724.538 540.575, 714.670 540.922, 712.555 542.429, 702.669 542.780, 700.366 544.180, 690.465 544.530, 687.987 545.827, 678.071 546.172, 675.432 547.369, 665.504 547.706, 662.718 548.807, 652.778 549.131, 649.857 550.140, 639.908 550.448, 636.863 551.367, 626.905 551.658, 623.749 552.488, 613.784 552.759, 610.529 553.503, 600.557 553.752, 597.215 554.411, 587.237 554.637, 583.818 555.213, 573.835 555.414, 570.351 555.908, 560.363 556.083, 556.825 556.496, 546.833 556.644, 543.251 556.977, 533.256 557.097, 529.641 557.218, 524.841 " fill="none" stroke="rgb(0, 0, 0)" stroke-linecap="butt" stroke-linejoin="round" stroke-opacity="1.0" stroke-width="3.0" />
            <path d=" M 459.447, 895.713 461.862, 895.874 465.980, 895.552 470.056, 894.426 474.081, 892.524 478.048, 889.878 481.951, 886.517 485.784, 882.473 489.542, 877.774 493.220, 872.453 496.814, 866.537 500.320, 860.057 503.736, 853.040 507.057, 845.514 510.283, 837.507 513.409, 829.045 516.435, 820.152 518.101, 814.856 " fill="none" stroke="rgb(0, 0, 0)" stroke-linecap="butt" stroke-linejoin="round" stroke-opacity="1.0" stroke-width="3.0" />
            <path d=" M 518.893, 167.906 518.442, 166.633 515.355, 158.727 512.155, 151.327 508.845, 144.461 505.426, 138.158 501.902, 132.450 498.276, 127.367 494.551, 122.940 490.733, 119.201 486.826, 116.182 482.835, 113.914 478.768, 112.429 474.630, 111.757 472.264, 111.855 470.429, 111.930 466.174, 112.976 461.874, 114.923 457.539, 117.796 453.179, 121.622 448.806, 126.420 444.432, 132.211 440.070, 139.009 435.734, 146.828 431.851, 154.822 431.437, 155.674 427.492, 164.863 427.196, 165.553 424.281, 173.178 423.026, 176.462 419.788, 185.923 418.942, 188.395 416.003, 197.953 414.961, 201.341 412.291, 210.978 411.099, 215.282 408.676, 224.984 407.374, 230.195 405.176, 239.950 403.802, 246.048 401.812, 255.848 400.399, 262.807 398.603, 272.644 397.183, 280.427 395.568, 290.296 394.167, 298.861 392.725, 308.756 391.369, 318.052 390.089, 327.970 388.802, 337.940 387.677, 347.876 386.552, 357.813 386.479, 358.457 385.504, 368.409 384.528, 378.362 384.414, 379.531 383.582, 389.496 382.751, 399.462 382.616, 401.085 381.925, 411.061 381.234, 421.037 381.095, 423.038 380.541, 433.023 379.987, 443.007 379.860, 445.305 379.441, 455.296 379.022, 465.287 378.917, 467.799 378.631, 477.795 378.346, 487.791 378.270, 490.430 378.117, 500.428 377.964, 510.427 377.923, 513.107 377.903, 523.107 377.882, 533.107 377.877, 535.741 377.990, 545.740 378.103, 555.740 378.131, 558.240 378.379, 568.236 378.626, 578.233 378.683, 580.515 379.067, 590.507 379.452, 600.500 379.528, 602.479 380.052, 612.466 380.577, 622.452 380.661, 624.050 381.329, 634.027 381.997, 644.005 382.074, 645.145 382.891, 655.112 383.708, 665.078 383.758, 665.690 384.730, 675.643 385.704, 685.613 386.837, 695.548 387.898, 704.848 389.203, 714.763 390.330, 723.336 391.815, 733.225 392.985, 741.022 394.663, 750.880 395.850, 757.857 397.734, 767.678 398.908, 773.802 401.016, 783.577 402.146, 788.819 404.496, 798.539 405.546, 802.881 408.164, 812.532 409.094, 815.963 412.006, 825.530 412.773, 828.050 416.014, 837.510 416.569, 839.129 420.178, 848.455 420.464, 849.194 424.445, 858.246 428.497, 866.286 432.604, 873.323 436.754, 879.369 440.934, 884.439 445.131, 888.552 449.332, 891.727 453.528, 893.989 457.708, 895.362 460.130, 895.661 461.862, 895.874 " fill="none" stroke="rgb(0, 0, 0)" stroke-linecap="butt" stroke-linejoin="round" stroke-opacity="1.0" stroke-width="3.0" />
            <path d=" M 472.191, 111.843 467.963, 112.016 463.681, 113.063 459.354, 115.010 454.991, 117.884 450.604, 121.709 446.204, 126.507 441.803, 132.296 437.414, 139.093 433.051, 146.910 429.086, 155.023 428.729, 155.754 424.763, 164.934 424.462, 165.630 420.872, 174.963 420.267, 176.536 417.882, 183.461 416.159, 188.465 413.203, 198.019 412.154, 201.407 409.470, 211.040 408.270, 215.344 405.833, 225.042 404.524, 230.251 402.313, 240.004 400.931, 246.099 398.930, 255.897 397.509, 262.852 395.703, 272.687 394.275, 280.466 392.652, 290.333 391.243, 298.893 389.792, 308.787 388.430, 318.077 387.143, 327.994 385.850, 337.957 384.719, 347.893 383.588, 357.829 383.515, 358.466 382.534, 368.418 381.554, 378.370 381.439, 379.532 380.604, 389.497 379.768, 399.462 379.633, 401.078 378.939, 411.054 378.244, 421.029 378.106, 423.022 377.550, 433.007 376.993, 442.991 376.866, 445.280 376.446, 455.271 376.025, 465.263 375.920, 467.765 375.634, 477.761 375.348, 487.757 375.272, 490.387 375.120, 500.386 374.967, 510.385 374.926, 513.056 374.907, 523.056 374.888, 533.056 374.883, 535.681 374.998, 545.680 375.113, 555.679 375.141, 558.171 375.392, 568.168 375.642, 578.164 375.699, 580.437 376.088, 590.430 376.476, 600.422 376.553, 602.394 377.082, 612.380 377.611, 622.366 377.696, 623.956 378.370, 633.933 379.044, 643.910 379.120, 645.044 379.944, 655.010 380.768, 664.976 380.818, 665.581 381.798, 675.533 382.778, 685.497 383.921, 695.431 384.990, 704.726 386.304, 714.639 387.439, 723.207 388.935, 733.095 390.113, 740.887 391.803, 750.743 392.998, 757.717 394.895, 767.536 396.078, 773.657 398.200, 783.429 399.338, 788.670 401.704, 798.386 402.761, 802.728 405.396, 812.374 406.333, 815.807 409.264, 825.368 410.038, 827.891 413.299, 837.344 413.859, 838.967 413.986, 839.295 414.263, 840.004 417.780, 849.031 421.788, 858.081 425.866, 866.120 430.000, 873.157 434.178, 879.203 438.384, 884.273 442.608, 888.386 446.837, 891.562 451.060, 893.825 455.267, 895.200 459.447, 895.713 " fill="none" stroke="rgb(0, 0, 0)" stroke-linecap="butt" stroke-linejoin="round" stroke-opacity="1.0" stroke-width="3.0" />
            <path d=" M 474.630, 111.757 472.191, 111.843 " fill="none" stroke="rgb(0, 0, 0)" stroke-linecap="butt" stroke-linejoin="round" stroke-opacity="1.0" stroke-width="3.0" />
            <path d=" M 541.405, 762.507 543.214, 752.672 543.240, 752.532 544.930, 742.676 545.401, 739.929 546.977, 730.054 547.448, 727.105 548.916, 717.214 549.381, 714.078 550.745, 704.172 551.201, 700.864 552.466, 690.945 552.908, 687.479 554.077, 677.547 554.502, 673.935 555.578, 663.993 555.983, 660.249 556.969, 650.298 557.352, 646.433 558.250, 636.473 558.608, 632.500 559.421, 622.533 559.753, 618.464 560.482, 608.490 560.785, 604.335 561.432, 594.356 561.706, 590.126 562.272, 580.142 562.516, 575.849 563.002, 565.861 563.213, 561.515 563.621, 551.523 563.800, 547.134 564.128, 537.140 564.274, 532.718 564.470, 524.891 " fill="none" stroke="rgb(0, 0, 0)" stroke-linecap="butt" stroke-linejoin="round" stroke-opacity="1.0" stroke-width="3.0" />
            <path d=" M 457.090, 928.881 459.498, 929.051 463.961, 929.187 468.378, 928.429 472.740, 926.811 477.041, 924.368 481.273, 921.135 485.430, 917.147 489.505, 912.440 493.494, 907.048 497.393, 901.004 501.196, 894.342 504.902, 887.094 508.506, 879.293 512.007, 870.967 515.401, 862.148 518.688, 852.863 521.794, 843.358 521.865, 843.140 524.761, 833.569 524.932, 833.006 525.491, 831.015 " fill="none" stroke="rgb(0, 0, 0)" stroke-linecap="butt" stroke-linejoin="round" stroke-opacity="1.0" stroke-width="3.0" />
            <path d=" M 541.504, 208.784 541.030, 206.460 538.868, 196.696 538.545, 195.240 536.209, 185.516 535.934, 184.373 533.408, 174.697 533.196, 173.885 530.463, 164.266 530.331, 163.802 527.371, 154.250 527.341, 154.151 524.224, 144.961 520.983, 136.261 517.618, 128.082 514.131, 120.455 510.525, 113.415 506.801, 106.994 502.963, 101.226 499.014, 96.148 494.958, 91.796 490.800, 88.204 486.546, 85.411 482.202, 83.452 477.775, 82.364 473.272, 82.182 472.343, 82.337 468.702, 82.943 464.074, 84.678 459.400, 87.421 454.690, 91.201 449.957, 96.047 445.214, 101.982 440.475, 109.028 435.755, 117.203 431.262, 126.136 431.069, 126.519 427.608, 134.338 426.436, 136.984 422.779, 146.291 422.554, 146.863 421.871, 148.601 418.562, 158.038 417.394, 161.367 417.235, 161.874 414.235, 171.413 413.022, 175.271 410.302, 184.894 408.774, 190.297 406.308, 199.988 404.671, 206.422 402.436, 216.169 400.861, 223.040 400.730, 223.614 398.709, 233.408 396.971, 241.834 395.149, 251.667 393.412, 261.036 391.776, 270.902 390.140, 280.767 390.074, 281.167 388.612, 291.060 387.151, 300.952 386.972, 302.164 385.676, 312.079 384.380, 321.995 384.124, 323.958 382.986, 333.893 381.848, 343.828 381.545, 346.474 380.559, 356.425 379.573, 366.377 379.251, 369.629 378.411, 379.594 377.571, 389.559 377.253, 393.336 376.556, 403.311 375.858, 413.287 375.564, 417.500 375.005, 427.485 374.447, 437.469 374.192, 442.025 373.771, 452.016 373.349, 462.007 373.146, 466.809 372.859, 476.805 372.573, 486.800 372.431, 491.748 372.279, 501.747 372.126, 511.746 372.050, 516.739 372.032, 526.739 372.014, 536.739 372.005, 541.675 372.122, 551.674 372.239, 561.674 372.295, 566.452 372.549, 576.449 372.802, 586.446 372.917, 590.968 373.310, 600.960 373.702, 610.952 373.866, 615.121 374.401, 625.107 374.935, 635.092 375.135, 638.816 375.816, 648.793 376.497, 658.770 376.715, 661.961 377.547, 671.926 378.380, 681.891 378.595, 684.468 379.585, 694.419 380.576, 704.370 380.763, 706.258 381.919, 716.191 383.075, 726.124 383.207, 727.256 384.537, 737.167 385.867, 747.078 385.910, 747.395 387.425, 757.280 388.856, 766.616 390.570, 776.468 392.030, 784.865 393.957, 794.678 394.599, 797.951 395.414, 802.098 397.572, 811.863 398.663, 816.802 398.989, 818.279 401.400, 827.984 402.739, 833.376 405.427, 843.008 406.613, 847.257 406.644, 847.369 409.640, 856.909 410.687, 860.240 411.936, 863.765 414.849, 871.981 418.579, 881.260 419.114, 882.590 423.285, 891.679 423.463, 892.068 427.882, 900.425 432.353, 907.672 436.862, 913.827 441.394, 918.911 445.936, 922.947 450.476, 925.963 455.000, 927.987 459.029, 928.940 459.498, 929.051 " fill="none" stroke="rgb(0, 0, 0)" stroke-linecap="butt" stroke-linejoin="round" stroke-opacity="1.0" stroke-width="3.0" />
            <path d=" M 365.397, 391.985 365.283, 393.319 364.572, 403.293 363.862, 413.268 363.564, 417.445 363.478, 418.956 362.911, 428.940 362.343, 438.924 362.172, 441.931 361.744, 451.922 361.642, 454.307 361.215, 464.298 361.113, 466.675 361.107, 466.885 360.818, 476.881 360.529, 486.877 360.393, 491.576 360.242, 501.575 360.091, 511.573 360.055, 513.994 360.016, 516.527 360.003, 526.527 359.990, 536.527 359.987, 538.622 359.984, 541.424 360.109, 551.423 360.234, 561.422 360.294, 566.163 360.374, 569.196 " fill="none" stroke="rgb(0, 0, 0)" stroke-linecap="butt" stroke-linejoin="round" stroke-opacity="1.0" stroke-width="3.0" />
            <path d=" M 470.837, 82.277 466.238, 83.038 461.581, 84.774 456.878, 87.517 452.139, 91.298 447.376, 96.142 442.604, 102.077 437.836, 109.122 433.087, 117.295 428.572, 126.217 428.374, 126.608 424.304, 135.743 423.712, 137.071 420.036, 146.371 419.638, 147.377 419.121, 148.685 415.793, 158.115 414.617, 161.447 412.975, 166.637 411.776, 170.426 410.219, 175.347 407.484, 184.965 405.947, 190.368 403.467, 200.056 401.820, 206.487 399.573, 216.232 397.857, 223.673 395.825, 233.465 394.077, 241.887 392.245, 251.718 392.117, 252.404 390.499, 261.083 388.854, 270.946 387.208, 280.810 387.142, 281.206 385.673, 291.097 384.203, 300.989 384.024, 302.195 382.721, 312.109 381.418, 322.024 381.161, 323.981 380.017, 333.915 378.873, 343.849 378.569, 346.488 377.578, 356.439 376.587, 366.389 376.264, 369.634 375.420, 379.599 374.576, 389.563 374.257, 393.331 373.556, 403.307 372.856, 413.282 372.560, 417.486 372.000, 427.471 371.439, 437.455 371.184, 442.001 370.760, 451.992 370.337, 461.983 370.134, 466.775 369.847, 476.771 369.560, 486.767 369.418, 491.705 369.266, 501.704 369.114, 511.703 369.038, 516.686 369.021, 526.686 369.004, 536.686 368.996, 541.612 369.115, 551.611 369.234, 561.611 369.291, 566.380 369.548, 576.376 369.804, 586.373 369.920, 590.886 370.317, 600.878 370.713, 610.870 370.878, 615.030 371.418, 625.015 371.957, 635.001 372.158, 638.716 372.845, 648.692 373.532, 658.669 373.751, 661.852 374.590, 671.817 375.429, 681.782 375.646, 684.352 376.644, 694.302 377.642, 704.252 377.831, 706.134 378.995, 716.066 380.160, 725.998 380.292, 727.125 381.632, 737.034 382.972, 746.944 383.014, 747.257 384.541, 757.140 385.982, 766.471 387.367, 774.375 389.092, 784.225 389.178, 784.715 391.118, 794.525 392.585, 801.943 393.518, 806.137 395.691, 815.898 396.063, 817.571 396.185, 818.119 398.611, 827.820 399.960, 833.213 402.666, 842.840 403.692, 846.491 403.891, 847.202 406.907, 856.736 407.961, 860.070 411.323, 869.488 412.151, 871.809 415.903, 881.079 416.444, 882.416 420.638, 891.494 420.823, 891.893 425.270, 900.249 429.770, 907.496 434.309, 913.651 438.870, 918.735 443.441, 922.772 448.010, 925.789 452.563, 927.815 457.090, 928.881 " fill="none" stroke="rgb(0, 0, 0)" stroke-linecap="butt" stroke-linejoin="round" stroke-opacity="1.0" stroke-width="3.0" />
            <path d=" M 473.272, 82.182 470.837, 82.277 " fill="none" stroke="rgb(0, 0, 0)" stroke-linecap="butt" stroke-linejoin="round" stroke-opacity="1.0" stroke-width="3.0" />
            <path d=" M 547.294, 218.728 545.484, 208.976 543.512, 199.173 543.065, 196.950 540.934, 187.180 540.514, 185.253 538.213, 175.522 537.832, 173.911 535.345, 164.225 535.017, 162.948 532.328, 153.316 532.070, 152.392 529.159, 142.825 528.990, 142.272 525.834, 132.783 525.779, 132.617 522.437, 123.458 518.964, 114.827 515.362, 106.757 511.633, 99.284 507.780, 92.443 503.804, 86.270 499.710, 80.804 495.502, 76.082 491.183, 72.143 486.760, 69.028 482.238, 66.774 477.625, 65.423 472.928, 65.013 468.085, 65.212 463.253, 65.783 458.356, 67.371 453.404, 70.010 448.410, 73.734 443.386, 78.575 438.346, 84.561 433.306, 91.717 428.281, 100.062 423.648, 108.925 423.288, 109.614 419.117, 118.703 418.346, 120.383 414.581, 129.648 413.473, 132.374 410.068, 141.777 408.689, 145.586 405.605, 155.098 404.013, 160.009 401.219, 169.611 399.468, 175.629 396.936, 185.303 395.072, 192.422 392.780, 202.156 390.849, 210.357 388.882, 219.646 386.818, 229.393 384.951, 239.218 383.085, 249.042 383.001, 249.483 381.325, 259.342 379.650, 269.200 379.417, 270.570 377.922, 280.457 376.426, 290.345 376.087, 292.587 374.762, 302.499 373.437, 312.411 373.029, 315.464 371.866, 325.396 370.703, 335.328 370.260, 339.117 369.253, 349.066 368.246, 359.015 367.796, 363.459 366.940, 373.422 366.611, 377.243 365.755, 387.206 365.653, 388.395 365.397, 391.985 364.687, 401.960 363.976, 411.935 363.842, 413.825 363.834, 413.960 363.266, 423.944 362.699, 433.928 362.374, 439.644 361.946, 449.634 361.756, 454.080 361.329, 464.071 361.257, 465.741 361.245, 466.164 360.956, 476.160 360.667, 486.155 360.498, 492.005 360.347, 502.004 360.196, 512.003 360.101, 518.324 360.090, 526.607 360.076, 536.607 360.066, 544.581 360.191, 554.581 360.235, 558.095 360.361, 568.095 360.374, 569.196 360.393, 570.666 360.595, 578.283 360.861, 588.279 361.078, 596.466 361.487, 606.458 361.895, 616.449 362.117, 621.873 362.671, 631.858 363.225, 641.842 363.500, 646.783 364.204, 656.758 364.909, 666.734 365.218, 671.098 366.078, 681.061 366.939, 691.024 367.258, 694.724 368.281, 704.672 369.305, 714.619 369.608, 717.575 370.708, 726.721 371.901, 736.650 372.253, 739.573 373.626, 749.478 374.999, 759.383 375.174, 760.645 376.738, 770.522 378.303, 780.399 378.355, 780.729 380.124, 790.572 381.778, 799.771 383.767, 809.571 385.422, 817.723 387.651, 827.472 389.269, 834.549 391.759, 844.234 393.298, 850.217 396.077, 859.823 397.490, 864.706 400.589, 874.214 401.824, 878.002 405.282, 887.385 406.281, 890.097 410.144, 899.321 410.843, 900.990 415.165, 910.008 415.490, 910.687 420.205, 919.198 424.971, 926.540 429.772, 932.733 434.592, 937.801 439.416, 941.771 444.232, 944.675 449.027, 946.544 453.789, 947.413 458.577, 947.764 463.237, 947.665 467.845, 946.638 472.391, 944.721 476.869, 941.953 481.271, 938.370 485.589, 934.012 489.820, 928.915 493.957, 923.117 497.997, 916.654 501.935, 909.560 505.768, 901.870 509.494, 893.618 513.110, 884.836 516.613, 875.553 519.896, 866.108 520.003, 865.801 523.061, 856.281 523.277, 855.608 526.131, 846.024 526.436, 845.001 528.615, 837.122 " fill="none" stroke="rgb(0, 0, 0)" stroke-linecap="butt" stroke-linejoin="round" stroke-opacity="1.0" stroke-width="3.0" />
            <path d=" M 543.883, 768.745 545.252, 761.217 546.924, 751.358 547.469, 748.146 549.029, 738.269 549.568, 734.857 551.021, 724.963 551.549, 721.367 552.901, 711.459 553.414, 707.692 554.667, 697.771 555.163, 693.847 556.321, 683.915 556.796, 679.848 557.862, 669.905 558.313, 665.707 559.290, 655.755 559.714, 651.439 560.605, 641.479 561.001, 637.056 561.807, 627.089 562.173, 622.571 562.897, 612.598 563.230, 607.996 563.873, 598.017 564.174, 593.342 564.736, 583.358 565.003, 578.621 565.486, 568.633 565.718, 563.844 566.123, 553.852 566.319, 549.021 566.647, 539.027 566.806, 534.164 567.038, 524.908 " fill="none" stroke="rgb(0, 0, 0)" stroke-linecap="butt" stroke-linejoin="round" stroke-opacity="1.0" stroke-width="3.0" />
            <path d=" M 472.928, 65.013 468.156, 65.582 463.320, 67.168 458.429, 69.806 453.496, 73.531 448.533, 78.372 443.554, 84.360 438.573, 91.518 433.608, 99.867 429.021, 108.753 428.675, 109.423 424.546, 118.531 424.152, 119.401 423.791, 120.198 420.065, 129.478 418.974, 132.195 415.606, 141.611 414.245, 145.414 411.196, 154.938 409.624, 159.846 409.318, 160.911 406.554, 170.521 405.130, 175.476 403.411, 182.123 400.907, 191.805 400.784, 192.280 399.744, 196.747 397.478, 206.487 396.607, 210.227 394.559, 220.015 392.621, 229.277 390.775, 239.105 389.006, 248.521 388.844, 249.382 387.187, 259.243 385.531, 269.105 385.299, 270.484 383.820, 280.374 382.341, 290.263 382.004, 292.518 380.693, 302.432 379.539, 311.159 378.976, 315.411 377.826, 325.345 376.676, 335.279 376.235, 339.083 375.239, 349.033 374.242, 358.983 373.795, 363.444 372.947, 373.408 372.099, 383.372 371.671, 388.400 370.967, 398.375 370.264, 408.351 369.876, 413.850 369.313, 423.834 368.750, 433.819 368.419, 439.689 367.994, 449.680 367.569, 459.671 367.309, 465.807 367.021, 475.803 366.733, 485.799 366.552, 492.093 366.400, 502.091 366.249, 512.090 366.152, 518.432 366.137, 528.432 366.121, 538.432 366.111, 544.710 366.232, 554.710 366.353, 564.709 366.427, 570.815 366.687, 580.812 366.947, 590.808 367.098, 596.635 367.498, 606.627 367.899, 616.619 368.117, 622.062 368.662, 632.047 369.206, 642.032 369.477, 646.991 370.170, 656.967 370.863, 666.943 371.167, 671.323 372.014, 681.288 372.862, 691.252 373.177, 694.967 374.185, 704.916 375.192, 714.865 375.493, 717.834 376.303, 724.677 376.611, 727.276 377.786, 737.207 378.099, 739.846 379.452, 749.754 380.806, 759.662 380.979, 760.933 382.522, 770.813 384.053, 780.623 384.116, 781.030 385.362, 788.061 387.107, 797.907 387.492, 800.083 389.455, 809.889 391.087, 818.046 393.287, 827.801 394.525, 833.295 394.883, 834.881 397.341, 844.574 398.858, 850.557 401.602, 860.173 402.995, 865.053 406.056, 874.573 407.273, 878.354 408.942, 882.946 411.672, 890.454 415.491, 899.696 416.175, 901.350 420.450, 910.390 420.762, 911.050 425.417, 919.563 430.122, 926.905 434.862, 933.097 439.620, 938.164 444.384, 942.132 449.140, 945.033 453.874, 946.899 458.577, 947.764 " fill="none" stroke="rgb(0, 0, 0)" stroke-linecap="butt" stroke-linejoin="round" stroke-opacity="1.0" stroke-width="3.0" />
            <path d=" M 565.319, 520.352 565.385, 518.731 565.429, 518.031 565.485, 517.152 565.616, 515.680 565.619, 515.642 565.784, 514.228 565.977, 512.934 566.195, 511.781 566.434, 510.790 566.690, 509.975 566.958, 509.352 567.234, 508.929 567.360, 508.832 567.513, 508.714 567.791, 508.709 " fill="none" stroke="rgb(0, 0, 0)" stroke-linecap="butt" stroke-linejoin="round" stroke-opacity="1.0" stroke-width="3.0" />
            <path d=" M 554.853, 520.167 555.488, 520.178 557.335, 520.211 557.624, 520.216 562.798, 520.307 564.585, 520.339 565.057, 520.347 565.319, 520.352 566.927, 520.984 " fill="none" stroke="rgb(0, 0, 0)" stroke-linecap="butt" stroke-linejoin="round" stroke-opacity="1.0" stroke-width="3.0" />
            <path d=" M 557.624, 521.218 562.773, 521.309 564.560, 521.341 565.031, 521.349 567.126, 521.386 567.987, 521.402 567.995, 520.886 567.988, 520.379 567.967, 519.895 567.931, 519.445 567.883, 519.043 567.823, 518.699 567.754, 518.423 567.676, 518.222 567.592, 518.103 567.504, 518.067 " fill="none" stroke="rgb(0, 0, 0)" stroke-linecap="butt" stroke-linejoin="round" stroke-opacity="1.0" stroke-width="3.0" />
            <path d=" M 535.905, 489.737 537.985, 489.733 538.011, 484.039 537.951, 484.010 537.553, 484.005 " fill="none" stroke="rgb(0, 0, 0)" stroke-linecap="butt" stroke-linejoin="round" stroke-opacity="1.0" stroke-width="3.0" />
            <path d=" M 537.782, 489.639 537.951, 484.010 " fill="none" stroke="rgb(0, 0, 0)" stroke-linecap="butt" stroke-linejoin="round" stroke-opacity="1.0" stroke-width="3.0" />
            <path d=" M 535.938, 489.614 537.782, 489.639 537.985, 489.733 " fill="none" stroke="rgb(0, 0, 0)" stroke-linecap="butt" stroke-linejoin="round" stroke-opacity="1.0" stroke-width="3.0" />
            <path d=" M 627.041, 911.185 629.208, 911.702 637.094, 912.851 644.975, 913.263 652.833, 912.955 660.652, 911.948 668.416, 910.259 676.111, 907.911 683.724, 904.923 691.241, 901.317 698.651, 897.117 705.942, 892.342 713.104, 887.016 720.128, 881.161 727.004, 874.799 733.725, 867.952 740.283, 860.642 746.671, 852.890 752.722, 844.928 752.882, 844.717 758.635, 836.538 758.911, 836.145 764.377, 827.771 764.753, 827.194 769.941, 818.645 770.402, 817.884 775.322, 809.178 775.855, 808.234 780.515, 799.387 781.106, 798.265 785.516, 789.290 786.153, 787.994 790.321, 778.904 790.992, 777.440 794.925, 768.246 795.620, 766.621 799.325, 757.332 800.034, 755.554 803.517, 746.181 804.232, 744.257 807.499, 734.806 808.211, 732.747 811.267, 723.225 811.969, 721.039 814.820, 711.454 815.505, 709.150 818.153, 699.507 818.816, 697.095 821.266, 687.400 821.901, 684.889 824.156, 675.147 824.758, 672.548 826.821, 662.763 827.386, 660.087 829.260, 650.264 829.783, 647.519 831.469, 637.662 831.949, 634.859 833.449, 624.972 833.881, 622.122 835.197, 612.209 835.580, 609.321 836.711, 599.385 837.043, 596.470 837.990, 586.515 838.270, 583.584 839.034, 573.613 839.259, 570.675 839.839, 560.692 840.009, 557.757 840.405, 547.765 840.521, 544.845 840.731, 534.847 840.792, 531.952 840.814, 521.952 840.821, 519.091 840.655, 509.093 840.608, 506.278 840.251, 496.284 840.152, 493.525 839.601, 483.541 839.452, 480.848 838.703, 470.876 838.507, 468.261 837.558, 458.306 837.317, 455.778 836.162, 445.845 835.880, 443.414 834.516, 433.508 834.196, 431.185 832.617, 421.311 832.265, 419.107 830.465, 409.270 830.086, 407.195 828.059, 397.402 827.658, 395.466 825.398, 385.724 824.982, 383.936 822.480, 374.254 822.058, 372.622 819.305, 363.008 818.885, 361.542 815.873, 352.007 815.464, 350.715 812.182, 341.269 811.796, 340.158 808.233, 330.814 807.881, 329.891 804.026, 320.664 803.720, 319.932 799.561, 310.838 799.315, 310.302 794.838, 301.360 794.668, 301.021 789.859, 292.253 789.781, 292.110 784.655, 283.590 779.295, 275.483 773.704, 267.810 767.886, 260.595 761.846, 253.859 755.588, 247.626 749.120, 241.919 742.447, 236.761 735.578, 232.175 728.521, 228.184 721.285, 224.811 713.880, 222.079 706.317, 220.009 698.608, 218.624 690.767, 217.944 682.808, 217.988 680.593, 218.148 " fill="none" stroke="rgb(0, 0, 0)" stroke-linecap="butt" stroke-linejoin="round" stroke-opacity="1.0" stroke-width="3.0" />
            <path d=" M 629.208, 911.702 627.113, 911.195 621.334, 909.799 613.492, 907.129 605.701, 903.676 597.981, 899.431 590.355, 894.384 582.844, 888.528 575.471, 881.858 568.533, 874.656 568.260, 874.373 561.798, 866.741 561.233, 866.074 555.240, 858.069 554.414, 856.966 548.879, 848.637 547.828, 847.056 543.262, 839.337 541.499, 836.356 536.836, 827.510 535.451, 824.882 533.985, 821.759 533.078, 819.828 530.188, 813.673 529.708, 812.650 528.933, 810.795 525.079, 801.568 524.292, 799.685 523.304, 797.019 522.117, 793.812 519.227, 786.012 516.119, 776.507 515.794, 775.514 514.534, 771.662 513.946, 769.610 511.190, 759.997 510.235, 756.669 507.818, 746.965 506.350, 741.071 504.260, 731.292 502.896, 724.910 501.159, 715.271 499.890, 708.231 498.424, 698.339 497.348, 691.084 496.181, 681.152 495.284, 673.519 494.408, 663.558 493.707, 655.592 493.117, 645.610 492.628, 637.360 492.318, 627.365 492.054, 618.882 492.019, 608.882 491.989, 600.220 492.227, 590.222 492.436, 581.435 492.943, 571.448 493.393, 562.593 494.169, 552.623 494.859, 543.756 495.903, 533.810 496.829, 524.988 496.906, 524.405 497.618, 519.018 498.095, 515.417 498.273, 514.073 499.294, 506.354 500.875, 496.480 502.246, 487.916 504.098, 478.089 505.672, 469.735 507.797, 459.964 509.557, 451.871 511.960, 442.164 513.887, 434.382 516.572, 424.749 518.642, 417.322 521.614, 407.774 523.803, 400.744 525.443, 395.999 527.501, 390.042 529.348, 384.697 532.915, 375.355 534.380, 371.518 535.256, 369.226 538.557, 361.374 541.214, 355.057 541.501, 354.373 545.696, 345.296 548.061, 340.178 549.571, 337.199 551.181, 334.024 554.908, 326.673 556.316, 324.142 557.909, 321.277 560.410, 316.781 562.018, 313.890 564.876, 309.207 565.412, 308.329 569.364, 301.855 574.934, 293.550 576.919, 290.591 582.861, 282.547 584.657, 280.115 590.982, 272.369 592.553, 270.445 593.013, 269.937 599.728, 262.528 600.579, 261.589 607.693, 254.561 608.711, 253.556 616.227, 246.961 616.923, 246.350 624.841, 240.242 625.191, 239.972 633.493, 234.419 641.806, 229.687 650.107, 225.767 658.377, 222.651 666.596, 220.326 674.745, 218.776 681.208, 218.145 682.808, 217.988 " fill="none" stroke="rgb(0, 0, 0)" stroke-linecap="butt" stroke-linejoin="round" stroke-opacity="1.0" stroke-width="3.0" />
            <path d=" M 680.593, 218.148 672.520, 218.937 664.360, 220.486 656.130, 222.810 647.850, 225.925 639.538, 229.842 631.216, 234.570 622.904, 240.119 614.980, 246.219 614.626, 246.492 607.103, 253.080 606.405, 253.691 599.284, 260.712 598.265, 261.716 591.713, 268.931 590.230, 270.564 583.899, 278.304 582.327, 280.225 576.378, 288.263 574.581, 290.689 569.004, 298.989 567.019, 301.942 564.910, 305.390 564.363, 306.286 560.082, 313.286 559.667, 313.964 557.565, 317.737 555.985, 320.571 552.551, 326.734 550.813, 330.155 549.200, 333.330 545.698, 340.224 541.497, 349.299 539.134, 354.404 538.134, 356.778 534.252, 365.994 532.884, 369.241 529.311, 378.581 526.972, 384.694 524.965, 390.494 523.629, 394.354 521.424, 400.724 518.447, 410.270 516.260, 417.283 514.103, 425.007 511.503, 434.323 509.096, 444.029 508.086, 448.104 507.171, 451.792 505.043, 461.563 503.285, 469.635 501.431, 479.462 499.858, 487.795 498.276, 497.669 496.906, 506.212 495.971, 513.273 495.693, 515.376 494.615, 523.515 494.441, 524.825 493.397, 534.770 492.473, 543.571 491.697, 553.541 491.008, 562.386 490.501, 572.373 490.053, 581.208 489.816, 591.205 489.796, 592.067 489.609, 599.971 489.646, 609.971 489.677, 618.612 489.990, 628.607 490.255, 637.069 490.848, 647.052 491.338, 655.281 492.217, 665.243 492.919, 673.189 494.090, 683.120 494.988, 690.735 496.459, 700.626 497.535, 707.864 499.314, 717.705 499.886, 720.867 500.547, 724.526 502.643, 734.303 504.007, 740.670 506.431, 750.372 507.900, 756.252 510.662, 765.863 512.206, 771.231 512.892, 773.325 514.729, 778.929 516.905, 785.568 518.239, 789.159 521.207, 797.152 521.978, 799.228 522.421, 800.285 526.283, 809.509 527.402, 812.182 528.158, 813.790 529.444, 816.521 531.593, 821.087 532.376, 822.750 533.154, 824.403 537.825, 833.246 539.211, 835.869 544.310, 844.471 545.549, 846.561 551.092, 854.884 552.144, 856.464 558.145, 864.463 558.972, 865.566 565.442, 873.191 566.009, 873.860 572.954, 881.055 573.231, 881.341 580.614, 888.008 588.135, 893.863 595.771, 898.909 603.501, 903.154 611.303, 906.608 619.156, 909.280 627.041, 911.185 " fill="none" stroke="rgb(0, 0, 0)" stroke-linecap="butt" stroke-linejoin="round" stroke-opacity="1.0" stroke-width="3.0" />
            <path d=" M 694.465, 311.364 686.203, 311.601 682.128, 312.111 678.362, 312.582 677.835, 312.648 669.384, 314.501 663.350, 316.396 660.874, 317.173 652.333, 320.692 643.792, 325.075 635.280, 330.331 627.184, 336.201 626.830, 336.458 619.156, 342.869 618.471, 343.441 611.215, 350.323 610.229, 351.258 603.388, 358.552 602.135, 359.888 595.712, 367.553 594.224, 369.328 588.221, 377.325 586.536, 379.569 580.947, 387.861 579.107, 390.591 575.495, 396.550 575.188, 397.057 572.237, 401.925 571.972, 402.362 567.181, 411.139 566.464, 412.453 565.161, 414.841 564.013, 417.174 563.131, 418.966 562.315, 420.626 558.924, 427.517 558.698, 427.977 557.243, 431.259 557.128, 431.518 555.383, 435.454 552.606, 441.719 548.909, 451.011 548.333, 452.459 546.916, 456.023 546.558, 457.033 543.566, 465.481 541.665, 470.846 538.682, 480.390 537.553, 484.005 537.542, 484.040 536.887, 486.136 535.938, 489.614 535.905, 489.737 533.608, 498.159 532.606, 501.833 532.450, 502.498 531.206, 507.797 529.312, 515.870 528.953, 517.400 528.843, 517.870 528.514, 519.528 527.707, 523.597 525.761, 533.406 525.637, 534.029 525.608, 534.178 524.165, 542.989 522.905, 550.685 521.617, 560.602 521.563, 561.012 520.743, 567.325 519.789, 577.280 519.142, 584.031 518.530, 594.013 518.117, 600.734 517.939, 607.446 517.677, 617.360 517.763, 627.360 517.819, 633.840 517.843, 634.370 518.283, 644.361 518.536, 650.106 519.331, 660.074 519.811, 666.094 520.962, 676.028 521.129, 677.470 521.631, 681.808 523.131, 691.695 523.952, 697.105 525.812, 706.931 526.619, 711.194 526.757, 711.925 526.895, 712.526 528.270, 718.526 528.914, 721.338 529.388, 723.407 530.031, 726.213 532.653, 735.863 533.754, 739.915 534.047, 740.838 535.283, 744.730 536.373, 748.162 537.601, 752.028 537.906, 752.986 540.127, 759.029 541.301, 762.224 541.405, 762.507 542.461, 765.381 543.883, 768.745 547.399, 777.063 551.756, 786.064 552.691, 787.997 557.532, 796.747 558.312, 798.155 563.659, 806.606 564.233, 807.514 570.106, 815.608 570.429, 816.052 576.869, 823.756 583.525, 830.615 590.369, 836.624 597.375, 841.777 604.513, 846.079 609.577, 848.495 611.757, 849.535 619.081, 852.151 626.460, 853.938 633.868, 854.912 641.284, 855.088 648.684, 854.483 656.047, 853.118 663.353, 851.015 670.583, 848.197 677.719, 844.686 684.745, 840.508 691.643, 835.691 698.400, 830.259 705.002, 824.238 711.437, 817.656 717.691, 810.540 723.756, 802.917 729.620, 794.813 735.133, 786.470 735.274, 786.256 740.451, 777.701 740.710, 777.273 745.564, 768.530 745.921, 767.888 750.464, 758.980 750.898, 758.129 755.143, 749.074 755.637, 748.021 759.593, 738.836 760.130, 737.589 763.806, 728.289 764.372, 726.858 767.778, 717.456 768.359, 715.853 771.503, 706.359 772.086, 704.597 774.973, 695.023 775.549, 693.116 778.186, 683.470 778.743, 681.431 781.136, 671.721 781.667, 669.566 783.820, 659.800 784.317, 657.544 786.233, 647.730 786.690, 645.388 788.371, 635.531 788.783, 633.120 790.233, 623.225 790.594, 620.761 791.815, 610.836 792.122, 608.335 793.113, 598.384 793.364, 595.862 794.125, 585.891 794.318, 583.364 794.851, 573.379 794.985, 570.864 795.286, 560.869 795.361, 558.383 795.429, 548.383 795.445, 545.943 795.341, 539.690 " fill="none" stroke="rgb(0, 0, 0)" stroke-linecap="butt" stroke-linejoin="round" stroke-opacity="1.0" stroke-width="3.0" />
            <path d=" M 790.741, 548.516 790.570, 548.510 780.896, 548.194 775.419, 548.014 766.908, 547.736 766.198, 547.713 765.487, 547.690 764.775, 547.667 764.063, 547.645 754.087, 546.947 752.562, 546.841 751.716, 546.684 750.899, 546.273 750.127, 545.612 749.417, 544.716 748.782, 543.601 748.235, 542.287 747.786, 540.799 747.444, 539.166 747.215, 537.419 747.105, 535.592 747.115, 533.719 747.245, 531.838 747.493, 529.984 747.854, 528.194 748.321, 526.502 748.885, 524.940 749.534, 523.540 750.257, 522.326 751.037, 521.323 751.712, 520.575 752.388, 519.828 752.422, 519.790 753.062, 519.081 753.736, 518.336 754.074, 517.963 756.054, 515.777 757.001, 514.733 763.715, 507.321 770.428, 499.910 776.994, 492.662 786.942, 493.684 787.806, 493.773 " fill="none" stroke="rgb(0, 0, 0)" stroke-linecap="butt" stroke-linejoin="round" stroke-opacity="1.0" stroke-width="3.0" />
            <path d=" M 823.510, 509.265 822.626, 499.406 822.462, 498.024 821.284, 488.094 821.200, 487.384 819.727, 477.493 819.437, 475.541 817.660, 465.700 817.336, 463.903 815.249, 454.123 814.901, 452.493 812.497, 442.787 812.137, 441.332 809.412, 431.710 809.051, 430.436 805.991, 420.915 805.643, 419.832 802.228, 410.433 801.909, 409.555 798.120, 400.301 797.849, 399.638 793.668, 390.555 793.464, 390.111 788.876, 381.226 788.760, 381.000 783.745, 372.325 778.432, 364.104 772.827, 356.356 766.934, 349.121 760.758, 342.437 754.307, 336.338 747.592, 330.852 740.628, 326.001 733.430, 321.796 726.013, 318.252 721.518, 316.571 718.391, 315.401 710.581, 313.283 702.598, 311.929 694.465, 311.364 " fill="none" stroke="rgb(0, 0, 0)" stroke-linecap="butt" stroke-linejoin="round" stroke-opacity="1.0" stroke-width="3.0" />
            <path d=" M 663.350, 316.396 667.908, 319.031 673.869, 323.218 679.646, 328.033 685.226, 333.463 690.598, 339.486 695.753, 346.074 700.685, 353.193 705.389, 360.807 709.863, 368.877 714.100, 377.382 718.091, 386.307 721.831, 395.632 725.211, 405.044 725.314, 405.332 728.371, 414.854 728.539, 415.379 731.292, 424.992 731.506, 425.740 733.974, 435.430 734.217, 436.383 736.416, 446.138 736.674, 447.282 738.607, 457.093 738.869, 458.421 740.544, 468.280 740.799, 469.782 742.222, 479.680 742.461, 481.343 743.640, 491.273 743.854, 493.080 744.423, 499.083 744.384, 500.322 744.285, 501.559 744.128, 502.781 743.915, 503.976 743.648, 505.130 743.329, 506.233 742.961, 507.273 742.549, 508.238 742.097, 509.119 741.609, 509.906 741.117, 510.557 741.091, 510.591 740.548, 511.167 739.985, 511.629 739.408, 511.971 730.447, 516.409 727.021, 518.107 " fill="none" stroke="rgb(0, 0, 0)" stroke-linecap="butt" stroke-linejoin="round" stroke-opacity="1.0" stroke-width="3.0" />
            <path d=" M 800.352, 535.374 800.727, 535.398 801.791, 535.466 803.233, 535.558 811.997, 530.743 813.735, 529.788 815.659, 528.731 823.375, 524.491 824.482, 523.883 825.299, 523.502 830.601, 521.027 829.994, 511.045 829.817, 508.145 828.935, 498.184 828.687, 495.394 827.523, 485.462 827.211, 482.797 825.758, 472.904 825.387, 470.381 823.636, 460.536 823.216, 458.170 821.159, 448.383 820.698, 446.188 818.325, 436.473 817.834, 434.461 816.214, 428.686 814.624, 423.017 811.585, 413.490 811.071, 411.881 810.403, 410.028 807.177, 401.080 803.420, 391.813 802.945, 390.641 798.806, 381.538 798.377, 380.595 793.842, 371.682 793.478, 370.967 788.531, 362.276 788.252, 361.786 787.932, 361.283 782.723, 353.109 782.706, 353.083 776.845, 344.886 770.677, 337.225 764.211, 330.128 757.456, 323.627 750.422, 317.751 743.122, 312.528 735.569, 307.987 727.777, 304.158 719.762, 301.066 711.543, 298.738 703.137, 297.200 694.566, 296.476 684.575, 296.053 674.584, 295.630 671.103, 295.483 " fill="none" stroke="rgb(0, 0, 0)" stroke-linecap="butt" stroke-linejoin="round" stroke-opacity="1.0" stroke-width="3.0" />
            <path d=" M 694.566, 296.476 685.852, 296.586 682.437, 296.959 677.018, 297.550 668.090, 299.388 666.366, 299.910 659.095, 302.113 650.061, 305.735 643.899, 308.821 643.150, 309.197 641.017, 310.265 632.455, 315.431 631.996, 315.708 623.838, 321.492 623.029, 322.066 615.290, 328.399 614.150, 329.333 606.838, 336.154 605.393, 337.503 598.510, 344.757 596.795, 346.565 590.337, 354.200 588.390, 356.502 582.350, 364.472 580.214, 367.291 574.585, 375.556 573.912, 376.544 573.547, 377.080 572.304, 378.906 567.077, 387.431 565.531, 389.953 564.695, 391.316 563.065, 394.268 561.393, 397.295 557.424, 404.481 556.235, 406.872 554.509, 410.343 550.523, 418.361 546.446, 427.492 544.028, 432.908 542.947, 435.614 539.237, 444.900 537.970, 448.070 534.619, 457.492 532.378, 463.790 529.380, 473.330 527.282, 480.007 524.632, 489.650 522.707, 496.658 520.419, 506.317 518.676, 513.674 516.712, 523.479 516.495, 524.564 516.328, 525.395 515.209, 530.983 513.585, 540.850 512.324, 548.513 511.040, 558.431 510.036, 566.190 509.092, 576.146 508.353, 583.937 507.752, 593.919 507.284, 601.677 507.028, 611.674 506.832, 619.335 506.927, 629.335 506.997, 636.835 507.448, 646.824 507.776, 654.102 508.590, 664.069 509.161, 671.065 " fill="none" stroke="rgb(0, 0, 0)" stroke-linecap="butt" stroke-linejoin="round" stroke-opacity="1.0" stroke-width="3.0" />
            <path d=" M 756.054, 515.777 755.269, 505.832 755.122, 503.116 755.092, 503.346 754.880, 504.547 754.613, 505.707 754.296, 506.815 753.930, 507.860 753.521, 508.830 753.071, 509.715 752.586, 510.506 752.072, 511.195 751.532, 511.774 750.974, 512.238 750.401, 512.582 741.466, 517.072 733.421, 521.113 732.788, 520.134 732.081, 519.348 731.311, 518.767 730.492, 518.402 729.637, 518.260 727.021, 518.107 718.477, 517.606 717.594, 517.689 716.705, 517.994 715.825, 518.519 714.968, 519.255 714.182, 520.191 713.485, 521.314 712.855, 522.601 712.302, 524.031 711.836, 525.580 711.466, 527.222 711.198, 528.927 711.036, 530.667 710.983, 532.413 711.040, 534.133 721.019, 534.790 722.240, 534.871 727.041, 532.472 727.029, 531.923 727.060, 531.367 727.134, 530.820 727.162, 530.691 727.249, 530.297 727.402, 529.811 727.588, 529.377 727.803, 529.005 728.040, 528.707 728.293, 528.490 728.555, 528.360 728.819, 528.320 " fill="none" stroke="rgb(0, 0, 0)" stroke-linecap="butt" stroke-linejoin="round" stroke-opacity="1.0" stroke-width="3.0" />
            <path d=" M 798.980, 522.320 800.042, 521.737 800.275, 521.610 801.386, 521.000 805.283, 518.861 807.269, 517.771 807.779, 517.445 808.279, 517.014 808.764, 516.483 809.230, 515.858 809.675, 515.146 810.094, 514.351 810.485, 513.482 810.844, 512.544 811.169, 511.547 811.457, 510.497 811.707, 509.403 811.916, 508.272 812.082, 507.114 812.203, 505.938 821.797, 508.761 822.978, 509.109 823.510, 509.265 823.382, 510.020 823.134, 511.120 823.066, 511.371 822.847, 512.175 822.524, 513.178 822.168, 514.120 821.780, 514.994 821.364, 515.793 820.923, 516.509 820.461, 517.137 819.980, 517.671 819.485, 518.104 818.980, 518.433 813.293, 521.605 811.287, 522.724 806.370, 525.467 805.778, 524.462 805.113, 523.654 804.388, 523.059 803.613, 522.687 802.801, 522.544 801.444, 522.465 800.306, 522.398 798.980, 522.320 794.772, 522.074 790.928, 521.849 790.177, 521.928 790.093, 521.937 790.087, 521.938 789.237, 522.257 788.393, 522.802 787.570, 523.565 786.817, 524.534 786.149, 525.695 785.544, 527.026 785.012, 528.503 784.562, 530.103 784.201, 531.798 783.936, 533.558 783.772, 535.353 783.711, 537.153 783.754, 538.926 790.604, 539.378 790.630, 539.380 795.341, 539.690 795.674, 539.712 800.226, 537.211 800.218, 536.645 800.251, 536.072 800.324, 535.508 800.352, 535.374 800.436, 534.967 800.584, 534.466 800.707, 534.156 800.763, 534.016 800.968, 533.632 801.194, 533.323 801.434, 533.098 801.683, 532.962 801.751, 532.951 801.932, 532.920 " fill="none" stroke="rgb(0, 0, 0)" stroke-linecap="butt" stroke-linejoin="round" stroke-opacity="1.0" stroke-width="3.0" />
            <path d=" M 775.419, 548.014 775.370, 556.257 775.068, 566.252 774.997, 568.613 774.456, 578.598 774.327, 580.987 773.548, 590.956 773.360, 593.356 772.345, 603.305 772.101, 605.700 770.848, 615.621 770.549, 617.996 769.059, 627.884 768.706, 630.222 766.978, 640.072 766.577, 642.358 764.608, 652.162 764.163, 654.380 761.951, 664.132 761.467, 666.266 759.008, 675.959 758.491, 677.994 755.782, 687.620 755.241, 689.543 752.277, 699.093 751.720, 700.887 748.493, 710.353 747.930, 712.005 744.436, 721.375 743.877, 722.873 740.109, 732.136 739.567, 733.467 735.514, 742.609 735.003, 743.763 730.658, 752.770 730.191, 753.736 725.544, 762.591 725.139, 763.362 720.179, 772.045 719.853, 772.615 714.567, 781.104 714.340, 781.470 708.717, 789.739 708.607, 789.900 702.665, 797.881 696.523, 805.385 690.190, 812.385 683.678, 818.856 676.999, 824.772 670.166, 830.104 663.192, 834.828 656.093, 838.918 648.884, 842.349 641.583, 845.096 634.207, 847.135 626.777, 848.446 619.311, 849.007 611.832, 848.796 609.577, 848.495 " fill="none" stroke="rgb(0, 0, 0)" stroke-linecap="butt" stroke-linejoin="round" stroke-opacity="1.0" stroke-width="3.0" />
            <path d=" M 764.063, 547.645 763.225, 547.488 762.415, 547.075 761.651, 546.413 760.948, 545.513 760.320, 544.393 759.779, 543.073 759.335, 541.579 758.998, 539.938 758.773, 538.183 758.705, 537.024 758.665, 536.346 758.677, 534.465 758.808, 532.574 759.056, 530.711 759.152, 530.232 759.416, 528.912 759.880, 527.211 760.441, 525.641 761.086, 524.233 761.803, 523.013 762.577, 522.005 763.247, 521.253 763.917, 520.501 764.587, 519.750 765.255, 519.001 765.518, 518.708 765.591, 518.626 772.255, 511.170 778.184, 504.538 784.848, 497.082 787.806, 493.773 788.782, 503.725 788.886, 504.785 789.278, 509.239 789.939, 519.217 790.048, 520.860 790.093, 521.937 " fill="none" stroke="rgb(0, 0, 0)" stroke-linecap="butt" stroke-linejoin="round" stroke-opacity="1.0" stroke-width="3.0" />
            <path d=" M 794.740, 521.272 800.042, 521.737 " fill="none" stroke="rgb(0, 0, 0)" stroke-linecap="butt" stroke-linejoin="round" stroke-opacity="1.0" stroke-width="3.0" />
            <path d=" M 764.628, 537.412 764.316, 537.287 764.031, 537.017 763.784, 536.615 763.588, 536.100 763.450, 535.494 763.376, 534.822 763.370, 534.114 763.432, 533.402 763.559, 532.716 763.746, 532.088 763.984, 531.544 764.263, 531.108 764.571, 530.799 764.893, 530.632 765.217, 530.612 " fill="none" stroke="rgb(0, 0, 0)" stroke-linecap="butt" stroke-linejoin="round" stroke-opacity="1.0" stroke-width="3.0" />
            <path d=" M 765.217, 530.612 765.528, 530.740 765.812, 531.011 766.057, 531.412 766.253, 531.927 766.390, 532.533 766.463, 533.203 766.469, 533.908 766.407, 534.617 766.281, 535.300 766.095, 535.927 765.858, 536.471 765.580, 536.908 765.273, 537.218 764.951, 537.389 764.628, 537.412 " fill="none" stroke="rgb(0, 0, 0)" stroke-linecap="butt" stroke-linejoin="round" stroke-opacity="1.0" stroke-width="3.0" />
            <path d=" M 800.727, 535.398 800.869, 544.255 800.796, 554.255 800.774, 557.277 800.469, 567.273 800.375, 570.341 799.840, 580.327 799.674, 583.424 798.911, 593.395 798.672, 596.504 797.681, 606.455 797.371, 609.560 796.151, 619.485 795.772, 622.569 794.322, 632.463 793.876, 635.510 792.196, 645.367 791.686, 648.359 789.773, 658.175 789.204, 661.095 787.055, 670.862 786.432, 673.695 784.044, 683.406 783.372, 686.135 780.741, 695.783 780.029, 698.393 777.149, 707.969 776.404, 710.443 773.269, 719.939 772.502, 722.263 769.106, 731.668 768.326, 733.827 764.661, 743.131 763.882, 745.111 759.939, 754.301 759.172, 756.088 754.942, 765.149 754.203, 766.732 749.677, 775.649 748.981, 777.019 744.147, 785.772 743.513, 786.920 738.357, 795.488 737.804, 796.406 732.315, 804.765 731.864, 805.452 726.029, 813.573 725.701, 814.030 719.505, 821.879 719.323, 822.109 712.741, 829.662 705.967, 836.660 699.012, 843.074 691.890, 848.875 684.614, 854.033 677.200, 858.522 669.664, 862.314 662.024, 865.379 654.299, 867.694 646.508, 869.233 638.674, 869.971 630.818, 869.886 622.963, 868.958 615.135, 867.171 607.360, 864.506 599.665, 860.952 592.076, 856.499 584.624, 851.142 577.337, 844.875 570.245, 837.701 563.767, 830.083 563.379, 829.627 557.444, 821.578 556.769, 820.661 551.364, 812.248 550.445, 810.818 545.550, 802.098 544.439, 800.119 540.032, 791.142 539.676, 790.417 538.778, 788.588 537.004, 784.448 535.700, 781.405 533.493, 776.255 530.446, 768.076 529.181, 764.681 528.612, 763.155 525.547, 753.636 524.160, 749.329 523.449, 746.746 521.434, 739.435 520.163, 734.822 517.900, 725.082 516.646, 719.685 514.759, 709.864 513.627, 703.972 512.104, 694.089 511.127, 687.744 509.956, 677.813 509.394, 673.044 509.161, 671.065 506.238, 661.502 503.576, 652.792 " fill="none" stroke="rgb(0, 0, 0)" stroke-linecap="butt" stroke-linejoin="round" stroke-opacity="1.0" stroke-width="3.0" />
            <path d=" M 671.103, 295.483 663.207, 295.564 659.249, 296.025 655.205, 296.495 647.119, 298.295 638.974, 300.982 630.796, 304.564 622.610, 309.054 614.446, 314.459 606.558, 320.605 606.334, 320.780 598.904, 327.473 598.303, 328.014 591.332, 335.183 590.386, 336.156 583.867, 343.739 582.614, 345.196 576.536, 353.136 575.021, 355.116 572.207, 359.225 571.799, 359.820 567.639, 365.895 564.528, 370.956 562.049, 374.991 560.502, 377.508 560.378, 377.732 555.542, 386.485 555.217, 387.073 553.643, 389.923 553.517, 390.176 549.067, 399.131 547.093, 403.102 543.016, 412.233 542.104, 414.276 540.886, 417.002 537.170, 426.286 535.053, 431.578 531.688, 440.994 529.622, 446.775 526.597, 456.306 524.621, 462.535 521.929, 472.166 520.076, 478.798 517.712, 488.514 516.013, 495.497 513.969, 505.286 512.450, 512.564 510.724, 522.414 510.355, 524.523 509.408, 529.925 507.997, 539.825 506.902, 547.506 505.804, 557.446 504.945, 565.232 504.161, 575.201 503.546, 583.023 503.077, 593.012 502.712, 600.804 502.561, 610.803 502.446, 618.496 502.618, 628.495 502.747, 636.023 503.241, 646.011 503.576, 652.792 502.697, 662.754 501.886, 671.933 " fill="none" stroke="rgb(0, 0, 0)" stroke-linecap="butt" stroke-linejoin="round" stroke-opacity="1.0" stroke-width="3.0" />
            <path d=" M 503.937, 689.145 505.111, 696.692 506.541, 705.886 508.444, 715.703 509.681, 722.088 511.963, 731.825 513.337, 737.690 516.014, 747.325 517.488, 752.633 517.981, 754.151 520.029, 760.462 522.108, 766.865 525.625, 776.226 526.190, 777.731 527.170, 780.340 527.450, 780.986 531.417, 790.165 532.648, 793.014 533.001, 793.727 534.350, 796.449 537.177, 802.156 538.512, 804.852 543.443, 813.552 544.730, 815.824 550.174, 824.213 551.272, 825.906 557.249, 833.923 558.107, 835.075 564.630, 842.655 565.202, 843.319 572.279, 850.384 572.525, 850.630 580.045, 857.002 587.731, 862.433 595.552, 866.930 603.479, 870.501 611.483, 873.155 619.537, 874.907 627.613, 875.776 635.686, 875.782 643.733, 874.944 651.731, 873.288 659.657, 870.840 667.493, 867.626 675.218, 863.672 682.816, 859.008 690.269, 853.665 697.563, 847.668 704.684, 841.050 711.618, 833.840 718.167, 826.283 718.354, 826.068 724.532, 818.204 724.879, 817.762 730.700, 809.630 731.185, 808.952 736.662, 800.586 737.262, 799.669 742.409, 791.095 743.102, 789.940 747.930, 781.182 748.696, 779.792 753.218, 770.873 754.039, 769.254 758.266, 760.191 759.122, 758.354 763.064, 749.164 763.942, 747.117 767.607, 737.813 768.491, 735.570 771.889, 726.165 772.766, 723.739 775.904, 714.244 776.762, 711.649 779.646, 702.074 780.475, 699.324 783.111, 689.678 783.901, 686.789 786.295, 677.080 787.037, 674.068 789.192, 664.303 789.881, 661.185 791.800, 651.371 792.428, 648.162 794.115, 638.305 794.677, 635.023 796.133, 625.129 796.625, 621.790 797.852, 611.866 798.270, 608.486 799.269, 598.536 799.610, 595.133 800.381, 585.163 800.644, 581.754 801.185, 571.768 801.370, 568.370 801.680, 558.375 801.785, 555.005 801.862, 545.006 801.888, 541.681 801.791, 535.466 " fill="none" stroke="rgb(0, 0, 0)" stroke-linecap="butt" stroke-linejoin="round" stroke-opacity="1.0" stroke-width="3.0" />
            <path d=" M 501.886, 671.933 503.069, 681.863 503.937, 689.145 " fill="none" stroke="rgb(0, 0, 0)" stroke-linecap="butt" stroke-linejoin="round" stroke-opacity="1.0" stroke-width="3.0" />
            <path d=" M 816.214, 428.686 814.858, 421.523 812.767, 411.744 812.513, 410.556 810.181, 400.832 809.931, 399.786 807.349, 390.125 807.111, 389.233 804.271, 379.644 804.054, 378.912 800.948, 369.407 800.762, 368.840 797.380, 359.430 797.237, 359.033 793.568, 349.731 793.480, 349.508 789.493, 340.283 785.276, 331.377 780.832, 322.812 776.162, 314.610 771.269, 306.790 766.158, 299.371 760.832, 292.370 755.298, 285.806 749.559, 279.700 743.622, 274.071 737.492, 268.944 731.175, 264.341 724.680, 260.288 718.015, 256.802 711.189, 253.902 704.213, 251.603 697.098, 249.923 689.855, 248.881 682.497, 248.496 675.037, 248.786 674.552, 248.849 667.491, 249.770 659.874, 251.468 652.202, 253.887 644.493, 257.036 636.765, 260.921 629.035, 265.548 621.324, 270.923 613.653, 277.049 609.936, 280.410 606.044, 283.930 599.026, 291.054 598.520, 291.567 591.897, 299.060 591.105, 299.956 586.247, 306.042 583.820, 309.085 577.956, 317.185 577.080, 318.395 576.687, 318.938 571.186, 327.288 569.730, 329.498 568.799, 331.047 568.326, 331.835 563.176, 340.407 562.971, 340.748 562.529, 341.554 560.060, 346.056 558.445, 349.000 556.435, 352.665 553.328, 358.871 551.682, 362.158 550.145, 365.228 545.991, 374.324 544.125, 378.408 540.552, 387.004 538.401, 392.178 538.241, 392.602 534.710, 401.958 532.995, 406.501 529.760, 415.963 527.924, 421.335 524.979, 430.892 523.207, 436.639 520.545, 446.278 518.863, 452.366 516.478, 462.077 514.907, 468.471 512.796, 478.245 511.357, 484.904 509.517, 494.734 508.228, 501.617 506.659, 511.493 505.536, 518.555 504.758, 524.485 503.457, 534.400 503.291, 535.665 502.255, 545.611 501.497, 552.889 500.727, 562.859 500.161, 570.171 499.657, 580.158 499.288, 587.455 499.052, 597.452 498.881, 604.683 498.916, 614.683 498.941, 621.800 499.250, 631.795 499.465, 638.750 500.052, 648.733 500.448, 655.479 501.319, 665.441 501.886, 671.933 503.047, 681.866 503.772, 688.062 503.937, 689.145 505.075, 696.885 506.093, 703.817 507.856, 713.661 508.840, 719.152 510.917, 728.934 511.998, 734.023 514.401, 743.730 515.554, 748.388 517.616, 755.627 519.491, 762.210 519.538, 762.355 522.626, 771.866 523.791, 775.455 525.580, 780.321 526.789, 783.612 528.435, 788.093 532.208, 797.205 533.404, 800.095 533.484, 800.266 536.264, 806.235 538.682, 811.430 543.314, 820.293 544.247, 822.079 549.303, 830.707 550.076, 832.027 555.570, 840.382 556.147, 841.260 562.092, 849.301 562.437, 849.768 568.844, 857.446 568.926, 857.544 575.591, 864.580 582.414, 870.870 589.374, 876.412 596.451, 881.206 603.622, 885.262 610.869, 888.589 618.170, 891.199 623.990, 892.708 625.508, 893.102 632.865, 894.310 640.226, 894.834 647.574, 894.686 654.895, 893.879 662.172, 892.430 669.393, 890.363 676.544, 887.698 683.611, 884.455 690.585, 880.653 697.454, 876.312 704.208, 871.448 710.838, 866.079 717.334, 860.223 723.688, 853.901 729.893, 847.138 735.942, 839.954 741.829, 832.371 747.548, 824.406 753.093, 816.079 758.354, 807.574 758.459, 807.405 763.446, 798.737 763.640, 798.400 768.362, 789.585 768.631, 789.083 773.099, 780.136 773.430, 779.473 777.652, 770.408 778.033, 769.590 782.018, 760.419 782.438, 759.452 786.192, 750.184 786.641, 749.076 790.172, 739.720 790.641, 738.478 793.952, 729.042 794.433, 727.673 797.530, 718.164 798.015, 716.675 800.900, 707.100 801.383, 705.499 804.062, 695.864 804.536, 694.160 807.013, 684.471 807.472, 682.674 809.751, 672.937 810.191, 671.058 812.276, 661.278 812.692, 659.326 814.585, 649.507 814.973, 647.492 816.675, 637.638 817.033, 635.569 818.545, 625.684 818.869, 623.572 820.192, 613.660 820.478, 611.513 821.613, 601.578 821.860, 599.407 822.808, 589.452 823.016, 587.267 823.777, 577.296 823.944, 575.108 824.518, 565.125 824.643, 562.943 825.029, 552.950 825.112, 550.785 825.308, 540.787 825.350, 538.648 825.355, 528.648 825.356, 526.545 825.299, 523.502 " fill="none" stroke="rgb(0, 0, 0)" stroke-linecap="butt" stroke-linejoin="round" stroke-opacity="1.0" stroke-width="3.0" />
            <path d=" M 672.810, 248.917 665.254, 249.902 657.626, 251.598 649.945, 254.016 642.226, 257.163 634.488, 261.045 626.750, 265.668 619.030, 271.038 611.350, 277.159 608.581, 279.659 603.733, 284.034 596.708, 291.150 596.201, 291.663 589.570, 299.149 588.778, 300.044 582.532, 307.854 581.485, 309.163 580.566, 310.430 574.695, 318.525 574.346, 319.006 570.490, 324.847 568.383, 328.039 567.893, 328.783 567.383, 329.555 562.248, 338.086 560.618, 340.793 559.757, 342.361 558.155, 345.276 554.076, 352.698 553.021, 354.802 551.372, 358.088 547.781, 365.246 543.620, 374.340 541.757, 378.413 540.217, 382.110 536.373, 391.342 536.029, 392.167 532.492, 401.521 530.618, 406.474 527.732, 414.904 525.545, 421.292 522.595, 430.847 520.826, 436.577 518.159, 446.215 516.479, 452.287 514.090, 461.997 512.522, 468.373 510.407, 478.147 508.971, 484.788 507.128, 494.617 505.841, 501.481 504.270, 511.357 503.149, 518.400 502.352, 524.468 501.049, 534.383 500.904, 535.490 499.868, 545.436 499.111, 552.695 498.341, 562.665 497.777, 569.957 497.273, 579.944 496.905, 587.221 496.670, 597.218 496.500, 604.430 496.537, 614.430 496.563, 621.527 496.874, 631.523 497.090, 638.459 497.680, 648.441 498.078, 655.169 498.952, 665.131 499.520, 671.606 500.685, 681.538 501.410, 687.718 502.872, 697.610 503.730, 703.411 503.737, 703.456 505.505, 713.299 506.489, 718.775 508.572, 728.556 509.653, 733.631 512.062, 743.337 513.215, 747.982 515.961, 757.597 516.587, 759.789 517.159, 761.790 518.533, 766.014 521.466, 775.023 524.702, 783.809 525.913, 787.095 526.117, 787.649 529.950, 796.885 531.093, 799.640 531.467, 800.441 532.766, 803.225 535.585, 809.266 536.379, 810.966 541.019, 819.824 541.952, 821.606 547.016, 830.229 547.790, 831.546 553.292, 839.897 553.869, 840.773 559.822, 848.808 560.168, 849.276 566.582, 856.947 566.665, 857.047 573.340, 864.079 580.172, 870.366 587.142, 875.906 594.228, 880.699 601.410, 884.755 608.666, 888.082 615.977, 890.693 623.325, 892.599 " fill="none" stroke="rgb(0, 0, 0)" stroke-linecap="butt" stroke-linejoin="round" stroke-opacity="1.0" stroke-width="3.0" />
            <path d=" M 675.037, 248.786 672.810, 248.917 " fill="none" stroke="rgb(0, 0, 0)" stroke-linecap="butt" stroke-linejoin="round" stroke-opacity="1.0" stroke-width="3.0" />
            <path d=" M 623.325, 892.599 625.508, 893.102 " fill="none" stroke="rgb(0, 0, 0)" stroke-linecap="butt" stroke-linejoin="round" stroke-opacity="1.0" stroke-width="3.0" />
            <path d=" M 483.954, 674.732 485.141, 684.662 486.161, 693.194 487.650, 703.083 488.874, 711.211 490.673, 721.047 492.078, 728.726 494.197, 738.499 494.728, 740.948 495.756, 745.689 496.478, 748.548 498.928, 758.243 499.890, 762.050 501.932, 769.074 504.459, 777.767 506.372, 783.535 508.127, 788.827 509.443, 792.798 509.782, 793.699 510.984, 796.899 512.164, 800.041 514.818, 807.107 516.899, 812.020 518.101, 814.856 520.416, 820.322 520.561, 820.664 521.686, 823.027 524.216, 828.339 525.491, 831.015 526.002, 832.088 526.646, 833.441 528.615, 837.122 533.050, 845.414 538.198, 853.987 539.745, 856.564 545.340, 864.852 546.707, 866.877 552.762, 874.835 553.909, 876.341 560.436, 883.918 561.325, 884.950 568.329, 892.087 568.930, 892.699 576.412, 899.334 576.699, 899.589 584.607, 905.621 592.629, 910.802 600.744, 915.141 608.927, 918.648 617.158, 921.336 621.491, 922.393 629.726, 924.272 637.967, 925.361 646.197, 925.681 654.396, 925.250 662.548, 924.089 670.638, 922.219 678.650, 919.664 686.570, 916.445 694.385, 912.587 702.083, 908.112 709.654, 903.045 717.085, 897.409 724.369, 891.227 731.495, 884.524 738.456, 877.323 745.080, 869.832 745.244, 869.646 751.552, 861.887 751.853, 861.516 757.855, 853.518 758.276, 852.956 763.983, 844.744 764.508, 843.988 769.929, 835.584 770.543, 834.632 775.688, 826.057 776.377, 824.909 781.256, 816.180 782.005, 814.841 786.628, 805.973 787.424, 804.446 791.799, 795.454 792.630, 793.745 796.764, 784.640 797.620, 782.756 801.521, 773.549 802.390, 771.498 806.066, 762.198 806.940, 759.989 810.396, 750.605 811.265, 748.246 814.508, 738.786 815.364, 736.286 818.398, 726.757 819.236, 724.125 822.065, 714.534 822.877, 711.781 825.507, 702.133 826.288, 699.269 828.721, 689.570 829.465, 686.605 831.705, 676.859 832.408, 673.803 834.458, 664.015 835.115, 660.878 836.977, 651.053 837.585, 647.846 839.261, 637.987 839.817, 634.720 841.309, 624.832 841.810, 621.516 843.119, 611.602 843.562, 608.246 844.690, 598.309 845.074, 594.925 846.019, 584.969 846.342, 581.566 847.106, 571.596 847.367, 568.184 847.949, 558.201 848.148, 554.793 848.547, 544.801 848.683, 541.405 848.898, 531.408 848.971, 528.036 849.002, 518.036 849.012, 514.698 848.856, 504.699 848.804, 501.405 848.459, 491.411 848.347, 488.173 847.810, 478.188 847.640, 475.015 846.908, 465.042 846.681, 461.946 845.750, 451.990 845.469, 448.981 844.337, 439.046 844.005, 436.135 842.666, 426.225 842.287, 423.423 840.735, 413.544 840.314, 410.862 838.545, 401.019 838.086, 398.466 836.092, 388.667 835.602, 386.254 833.377, 376.505 832.861, 374.242 830.399, 364.550 829.864, 362.447 827.155, 352.821 826.611, 350.888 823.645, 341.338 823.100, 339.583 819.870, 330.119 819.334, 328.551 815.827, 319.186 815.312, 317.811 811.516, 308.559 811.034, 307.384 806.939, 298.261 806.503, 297.290 802.094, 288.314 801.719, 287.550 796.984, 278.742 796.685, 278.186 791.608, 269.570 791.402, 269.220 785.970, 260.823 785.874, 260.674 780.104, 252.573 774.095, 244.939 767.852, 237.796 761.381, 231.170 754.686, 225.083 747.775, 219.561 740.655, 214.629 733.335, 210.312 725.823, 206.634 718.130, 203.620 710.267, 201.294 702.246, 199.679 694.081, 198.798 685.785, 198.673 677.376, 199.325 672.945, 199.682 664.415, 201.131 655.807, 203.392 647.138, 206.481 638.430, 210.414 629.705, 215.201 621.312, 220.638 620.984, 220.851 612.985, 226.852 612.292, 227.372 604.695, 233.875 603.653, 234.767 596.461, 241.715 595.094, 243.037 588.303, 250.378 586.639, 252.177 580.497, 259.562 578.318, 262.183 572.310, 270.177 570.156, 273.042 564.525, 281.306 562.184, 284.741 561.405, 285.997 560.788, 286.994 557.830, 291.769 557.471, 292.348 555.240, 295.950 554.697, 296.826 554.428, 297.260 553.661, 298.620 550.542, 304.150 548.985, 306.910 548.398, 307.951 546.917, 310.577 546.796, 310.813 542.227, 319.708 540.479, 323.111 539.680, 324.665 538.913, 326.305 535.688, 333.200 532.745, 339.491 528.831, 348.693 526.305, 354.630 526.139, 355.020 522.538, 364.349 519.889, 371.211 516.592, 380.652 514.020, 388.021 511.021, 397.560 508.557, 405.400 505.850, 415.026 503.523, 423.296 501.101, 432.999 498.940, 441.655 497.476, 448.337 495.334, 458.105 495.312, 458.210 494.828, 460.417 492.963, 470.242 491.203, 479.521 489.613, 489.394 488.081, 498.904 486.951, 507.403 486.247, 512.695 486.180, 513.201 485.722, 516.648 485.476, 518.498 485.429, 518.942 485.366, 519.539 485.325, 519.933 485.252, 520.621 484.205, 530.566 483.398, 538.237 482.621, 548.207 481.855, 558.053 481.349, 568.040 480.852, 577.876 480.620, 587.874 480.393, 597.639 480.436, 607.639 480.478, 617.272 480.799, 627.267 481.103, 636.709 481.708, 646.690 482.168, 654.285 482.264, 655.884 483.157, 665.844 483.954, 674.732 " fill="none" stroke="rgb(0, 0, 0)" stroke-linecap="butt" stroke-linejoin="round" stroke-opacity="1.0" stroke-width="3.0" />
            <path d=" M 677.376, 199.325 668.869, 200.773 660.283, 203.036 651.636, 206.128 642.950, 210.065 634.245, 214.859 625.862, 220.312 625.544, 220.518 617.556, 226.535 616.872, 227.050 609.288, 233.568 608.252, 234.458 601.073, 241.420 599.710, 242.743 592.934, 250.097 591.273, 251.901 584.893, 259.601 583.022, 261.860 582.968, 261.925 576.975, 269.931 574.822, 272.806 569.205, 281.080 566.864, 284.529 562.471, 291.646 561.879, 292.606 559.121, 297.074 558.533, 298.121 555.991, 302.646 554.430, 305.423 551.623, 310.420 549.228, 315.099 547.640, 318.202 544.398, 324.538 540.173, 333.601 537.473, 339.396 536.604, 341.446 532.701, 350.653 530.876, 354.959 527.285, 364.292 524.633, 371.186 521.347, 380.631 520.501, 383.064 518.772, 388.034 515.782, 397.576 513.315, 405.452 510.615, 415.081 508.286, 423.390 505.871, 433.094 503.706, 441.791 501.571, 451.560 499.596, 460.596 497.736, 470.422 495.972, 479.744 495.408, 483.252 493.822, 493.126 492.851, 499.171 491.748, 507.481 490.520, 516.732 490.244, 518.811 490.159, 519.624 489.941, 521.696 489.903, 522.058 488.857, 532.003 488.164, 538.595 488.059, 539.948 487.283, 549.918 486.618, 558.457 486.370, 563.349 485.864, 573.337 485.611, 578.325 485.537, 581.466 485.303, 591.463 485.147, 598.133 485.186, 608.133 485.225, 617.810 485.542, 627.805 485.843, 637.291 486.442, 647.273 486.996, 656.508 487.882, 666.469 488.041, 668.266 488.676, 675.398 489.855, 685.328 490.873, 693.900 491.214, 696.180 492.694, 706.070 492.904, 707.474 493.574, 711.954 495.364, 721.793 496.766, 729.506 497.227, 731.645 499.335, 741.420 500.431, 746.503 502.868, 756.201 504.551, 762.897 507.330, 772.503 509.106, 778.643 510.273, 782.181 511.984, 787.366 514.074, 793.703 517.576, 803.070 518.684, 806.035 519.433, 808.038 519.875, 809.086 521.202, 812.235 525.087, 821.449 525.159, 821.619 525.758, 822.883 527.025, 825.554 530.025, 831.881 531.227, 834.417 535.927, 843.243 537.612, 846.408 542.744, 854.991 544.289, 857.575 549.868, 865.874 551.231, 867.902 557.271, 875.872 558.413, 877.379 564.925, 884.967 565.809, 885.997 572.800, 893.147 573.393, 893.754 580.864, 900.402 581.141, 900.648 589.027, 906.684 597.029, 911.867 605.121, 916.205 613.282, 919.709 621.491, 922.393 " fill="none" stroke="rgb(0, 0, 0)" stroke-linecap="butt" stroke-linejoin="round" stroke-opacity="1.0" stroke-width="3.0" />
            <path d=" M 729.637, 518.260 728.761, 518.343 727.878, 518.651 727.002, 519.179 726.150, 519.919 725.550, 520.643 725.370, 520.860 724.677, 521.988 724.050, 523.282 723.500, 524.720 723.037, 526.277 722.668, 527.926 722.667, 527.933 722.400, 529.640 722.331, 530.382 722.238, 531.389 722.184, 533.143 722.240, 534.871 " fill="none" stroke="rgb(0, 0, 0)" stroke-linecap="butt" stroke-linejoin="round" stroke-opacity="1.0" stroke-width="3.0" />
            <path d=" M 728.819, 528.320 729.078, 528.372 729.324, 528.515 729.552, 528.743 729.754, 529.051 729.925, 529.431 730.061, 529.871 730.159, 530.361 730.214, 530.886 " fill="none" stroke="rgb(0, 0, 0)" stroke-linecap="butt" stroke-linejoin="round" stroke-opacity="1.0" stroke-width="3.0" />
            <path d=" M 727.162, 530.691 730.214, 530.886 739.159, 526.417 748.105, 521.947 752.422, 519.790 " fill="none" stroke="rgb(0, 0, 0)" stroke-linecap="butt" stroke-linejoin="round" stroke-opacity="1.0" stroke-width="3.0" />
            <path d=" M 802.801, 522.544 801.967, 522.634 801.124, 522.956 800.287, 523.505 799.469, 524.271 798.894, 525.021 798.722, 525.246 798.060, 526.413 797.459, 527.751 796.931, 529.236 796.483, 530.845 796.124, 532.548 796.123, 532.555 795.859, 534.317 795.790, 535.082 795.695, 536.121 795.633, 537.930 795.674, 539.712 " fill="none" stroke="rgb(0, 0, 0)" stroke-linecap="butt" stroke-linejoin="round" stroke-opacity="1.0" stroke-width="3.0" />
            <path d=" M 801.932, 532.920 802.177, 532.972 802.409, 533.118 802.622, 533.352 802.811, 533.669 802.970, 534.059 803.096, 534.513 803.184, 535.017 803.233, 535.558 " fill="none" stroke="rgb(0, 0, 0)" stroke-linecap="butt" stroke-linejoin="round" stroke-opacity="1.0" stroke-width="3.0" />
            <path d=" M 779.705, 480.767 779.842, 480.689 779.991, 480.634 780.147, 480.604 780.308, 480.598 780.529, 480.630 780.743, 480.707 780.944, 480.825 781.124, 480.981 781.275, 481.168 781.394, 481.383 781.475, 481.618 781.512, 481.869 781.504, 482.104 781.453, 482.328 781.362, 482.534 781.234, 482.712 781.074, 482.857 780.885, 482.965 " fill="none" stroke="rgb(0, 0, 0)" stroke-linecap="butt" stroke-linejoin="round" stroke-opacity="1.0" stroke-width="3.0" />
            <path d=" M 779.705, 480.767 779.646, 480.803 779.469, 480.953 779.327, 481.135 779.296, 481.178 779.188, 481.394 779.125, 481.630 779.112, 481.881 779.148, 482.116 779.160, 482.164 779.242, 482.385 779.366, 482.585 779.529, 482.756 779.571, 482.788 779.756, 482.917 779.967, 483.006 780.008, 483.022 780.065, 483.034 780.248, 483.065 780.285, 483.070 780.327, 483.073 780.377, 483.073 780.428, 483.072 780.479, 483.069 780.527, 483.064 780.573, 483.057 780.613, 483.048 780.647, 483.039 780.834, 482.984 780.885, 482.965 " fill="none" stroke="rgb(0, 0, 0)" stroke-linecap="butt" stroke-linejoin="round" stroke-opacity="1.0" stroke-width="3.0" />
            <path d=" M 777.369, 478.646 777.706, 484.756 781.620, 484.925 783.386, 485.001 784.033, 484.532 783.200, 478.809 780.849, 478.650 777.800, 478.445 777.369, 478.646 " fill="none" stroke="rgb(0, 0, 0)" stroke-linecap="butt" stroke-linejoin="round" stroke-opacity="1.0" stroke-width="3.0" />
            <path d=" M 783.386, 485.001 783.053, 478.877 " fill="none" stroke="rgb(0, 0, 0)" stroke-linecap="butt" stroke-linejoin="round" stroke-opacity="1.0" stroke-width="3.0" />
            <path d=" M 783.200, 478.809 783.053, 478.877 777.369, 478.646 " fill="none" stroke="rgb(0, 0, 0)" stroke-linecap="butt" stroke-linejoin="round" stroke-opacity="1.0" stroke-width="3.0" />
            <path d=" M 741.117, 510.557 738.930, 510.533 728.930, 510.595 727.440, 510.604 717.442, 510.822 715.967, 510.854 705.974, 511.211 704.508, 511.263 694.519, 511.745 693.056, 511.816 683.074, 512.407 681.608, 512.494 671.631, 513.179 670.157, 513.280 660.186, 514.045 658.700, 514.159 648.734, 514.989 647.230, 515.114 637.269, 515.995 635.745, 516.130 625.787, 517.049 624.238, 517.192 614.282, 518.135 612.705, 518.285 602.751, 519.239 601.141, 519.394 591.187, 520.346 589.542, 520.504 579.586, 521.442 577.902, 521.601 578.152, 511.604 578.267, 507.042 578.402, 497.043 578.464, 492.459 578.485, 482.459 578.495, 477.870 578.400, 467.870 578.357, 463.295 578.146, 453.298 578.050, 448.753 577.722, 438.759 577.575, 434.263 577.128, 424.273 576.930, 419.844 576.363, 409.860 576.116, 405.515 575.495, 396.550 " fill="none" stroke="rgb(0, 0, 0)" stroke-linecap="butt" stroke-linejoin="round" stroke-opacity="1.0" stroke-width="3.0" />
            <path d=" M 580.497, 259.562 576.894, 256.284 569.953, 249.086 569.386, 248.498 562.900, 240.887 562.223, 240.092 556.189, 232.118 555.425, 231.108 549.838, 222.815 549.011, 221.588 547.294, 218.728 542.996, 211.571 541.576, 208.917 541.504, 208.784 538.162, 202.537 537.389, 201.093 533.094, 192.062 532.201, 190.186 " fill="none" stroke="rgb(0, 0, 0)" stroke-linecap="butt" stroke-linejoin="round" stroke-opacity="1.0" stroke-width="3.0" />
            <path d=" M 532.201, 190.186 530.429, 186.760 528.181, 182.414 526.527, 179.597 524.011, 175.313 519.697, 168.923 518.893, 167.906 515.244, 163.286 514.746, 162.759 510.661, 158.443 505.955, 154.435 501.136, 151.301 501.002, 151.240 498.131, 149.947 496.214, 149.083 491.201, 147.822 486.108, 147.554 480.951, 148.315 475.744, 150.141 471.107, 152.728 470.503, 153.065 470.159, 153.330 465.247, 157.112 464.791, 157.562 459.994, 162.306 454.765, 168.669 453.089, 171.108 452.426, 172.073 449.580, 176.215 447.138, 180.384 444.462, 184.951 439.945, 193.872 439.435, 194.878 435.393, 204.025 434.523, 205.994 430.902, 215.316 429.749, 218.285 426.505, 227.744 425.139, 231.727 422.235, 241.297 420.718, 246.294 418.123, 255.952 416.512, 261.948 414.199, 271.677 412.544, 278.641 410.493, 288.428 408.839, 296.315 407.031, 306.150 405.421, 314.907 403.841, 324.782 402.310, 334.344 400.946, 344.251 399.581, 354.157 399.528, 354.542 398.369, 364.475 397.209, 374.407 397.092, 375.411 396.130, 385.365 395.169, 395.319 395.020, 396.856 394.249, 406.827 393.478, 416.797 393.325, 418.775 392.740, 428.758 392.154, 438.741 392.018, 441.060 391.615, 451.052 391.212, 461.044 391.109, 463.598 391.137, 463.675 394.525, 473.084 396.932, 479.766 397.866, 482.247 401.391, 491.606 402.832, 495.434 406.496, 504.739 408.813, 510.623 412.619, 519.871 414.876, 525.355 418.826, 534.541 421.022, 539.648 425.118, 548.770 427.252, 553.522 431.497, 562.576 433.568, 566.995 437.963, 575.977 439.973, 580.085 444.519, 588.992 446.468, 592.809 451.166, 601.637 453.054, 605.184 457.905, 613.928 459.733, 617.224 464.737, 625.882 466.508, 628.947 471.664, 637.515 473.379, 640.365 478.687, 648.840 480.350, 651.495 482.168, 654.285 " fill="none" stroke="rgb(0, 0, 0)" stroke-linecap="butt" stroke-linejoin="round" stroke-opacity="1.0" stroke-width="3.0" />
            <path d=" M 361.530, 454.532 357.056, 463.476 354.574, 468.438 " fill="none" stroke="rgb(0, 0, 0)" stroke-linecap="butt" stroke-linejoin="round" stroke-opacity="1.0" stroke-width="3.0" />
            <path d=" M 471.107, 152.728 467.532, 152.917 " fill="none" stroke="rgb(0, 0, 0)" stroke-linecap="butt" stroke-linejoin="round" stroke-opacity="1.0" stroke-width="3.0" />
            <path d=" M 790.630, 539.380 790.741, 548.516 " fill="none" stroke="rgb(0, 0, 0)" stroke-linecap="butt" stroke-linejoin="round" stroke-opacity="1.0" stroke-width="3.0" />
            <path d=" M 794.772, 522.074 794.740, 521.272 " fill="none" stroke="rgb(0, 0, 0)" stroke-linecap="butt" stroke-linejoin="round" stroke-opacity="1.0" stroke-width="3.0" />
        </g>
    </g>
</svg>
