<?xml version='1.0' encoding='ascii'?>
<svg xmlns="http://www.w3.org/2000/svg" height="1080" version="1.1" width="1080">
    <g id="View Layer_LineSet" inkscape:groupmode="lineset" inkscape:label="View Layer_LineSet" xmlns:inkscape="http://www.inkscape.org/namespaces/inkscape">
        <g id="strokes" inkscape:groupmode="layer" inkscape:label="strokes" xmlns:inkscape="http://www.inkscape.org/namespaces/inkscape">
            <path d=" M 565.321, 505.238 565.255, 506.360 565.170, 507.450 565.068, 508.496 565.050, 508.648 " fill="none" stroke="rgb(0, 0, 0)" stroke-linecap="butt" stroke-linejoin="round" stroke-opacity="1.0" stroke-width="3.0" />
            <path d=" M 353.818, 492.767 360.203, 492.400 " fill="none" stroke="rgb(0, 0, 0)" stroke-linecap="butt" stroke-linejoin="round" stroke-opacity="1.0" stroke-width="3.0" />
            <path d=" M 378.158, 492.660 388.144, 493.186 390.188, 493.294 " fill="none" stroke="rgb(0, 0, 0)" stroke-linecap="butt" stroke-linejoin="round" stroke-opacity="1.0" stroke-width="3.0" />
            <path d=" M 390.188, 493.294 386.322, 484.072 382.456, 474.849 381.565, 472.724 " fill="none" stroke="rgb(0, 0, 0)" stroke-linecap="butt" stroke-linejoin="round" stroke-opacity="1.0" stroke-width="3.0" />
            <path d=" M 464.607, 161.765 460.068, 162.859 455.480, 165.057 450.856, 168.393 446.215, 172.894 441.571, 178.583 439.762, 181.281 438.667, 182.914 436.945, 185.482 432.356, 193.606 427.995, 202.605 427.823, 202.959 423.943, 212.175 423.369, 213.541 419.909, 222.923 419.015, 225.347 415.923, 234.857 414.785, 238.360 412.019, 247.970 410.700, 252.553 408.228, 262.242 406.785, 267.893 404.578, 277.646 403.064, 284.338 401.099, 294.143 399.558, 301.831 397.816, 311.678 396.289, 320.310 394.755, 330.191 393.279, 339.702 391.941, 349.612 390.602, 359.522 390.548, 359.926 389.394, 369.860 388.241, 379.793 388.114, 380.890 387.137, 390.843 386.160, 400.795 385.993, 402.496 385.186, 412.464 384.379, 422.431 384.200, 424.640 383.557, 434.619 382.915, 444.598 382.747, 447.209 382.265, 457.197 381.783, 467.186 381.643, 470.088 381.565, 472.724 379.880, 482.582 378.196, 492.439 378.158, 492.660 " fill="none" stroke="rgb(0, 0, 0)" stroke-linecap="butt" stroke-linejoin="round" stroke-opacity="1.0" stroke-width="3.0" />
            <path d=" M 530.098, 721.584 530.764, 718.048 532.468, 708.194 532.941, 705.454 534.514, 695.517 534.982, 692.559 536.413, 682.662 536.886, 679.388 538.192, 669.473 538.654, 665.964 539.841, 656.035 540.286, 652.313 541.360, 642.371 541.783, 638.459 542.747, 628.505 543.143, 624.422 544.003, 614.459 544.368, 610.226 545.126, 600.254 545.458, 595.890 546.117, 585.912 546.412, 581.437 546.975, 571.453 547.232, 566.885 547.700, 556.896 547.917, 552.254 548.292, 542.261 548.468, 537.565 548.751, 527.569 548.884, 522.835 555.410, 522.915 557.257, 522.938 557.359, 522.939 559.143, 522.961 562.715, 523.005 563.551, 523.015 564.502, 523.027 567.066, 523.058 577.066, 523.181 577.852, 523.190 578.049, 513.192 578.145, 508.362 578.225, 498.363 578.264, 493.527 578.227, 483.527 578.209, 478.703 578.055, 468.704 577.981, 463.911 577.707, 453.915 577.577, 449.172 577.182, 439.180 576.997, 434.505 576.480, 424.519 576.243, 419.932 575.600, 409.952 575.311, 405.473 574.540, 395.503 574.203, 391.151 574.069, 389.673 " fill="none" stroke="rgb(0, 0, 0)" stroke-linecap="butt" stroke-linejoin="round" stroke-opacity="1.0" stroke-width="3.0" />
            <path d=" M 571.110, 394.765 571.243, 396.225 572.023, 406.194 572.315, 409.927 572.965, 419.906 573.216, 423.766 573.738, 433.752 573.946, 437.721 574.345, 447.713 574.507, 451.769 574.784, 461.765 574.899, 465.890 575.056, 475.889 575.121, 480.065 575.160, 490.065 575.176, 494.271 575.096, 504.271 575.062, 508.491 575.041, 509.588 574.951, 510.270 574.854, 510.915 574.749, 511.519 574.638, 512.079 574.520, 512.591 574.397, 513.054 574.269, 513.465 574.137, 513.820 574.001, 514.119 573.863, 514.360 573.724, 514.541 573.583, 514.662 573.441, 514.721 573.301, 514.719 569.294, 513.772 569.137, 512.539 568.953, 511.448 568.743, 510.519 568.511, 509.767 568.261, 509.206 567.997, 508.845 567.724, 508.691 567.317, 508.684 565.281, 508.651 565.050, 508.648 564.754, 508.643 563.801, 508.627 562.967, 508.614 559.395, 508.556 557.610, 508.527 557.514, 508.526 557.340, 508.523 557.051, 508.579 556.761, 508.845 556.477, 509.317 556.201, 509.987 555.940, 510.844 555.698, 511.876 555.618, 512.309 555.479, 513.063 555.286, 514.387 555.124, 515.825 554.994, 517.351 554.900, 518.941 554.842, 520.566 555.454, 520.687 556.520, 520.899 557.297, 520.913 557.398, 520.915 557.629, 520.919 559.183, 520.946 562.754, 521.010 563.590, 521.024 564.541, 521.041 565.031, 521.050 566.924, 521.084 566.944, 520.570 566.977, 520.073 567.024, 519.607 567.082, 519.185 567.149, 518.825 567.151, 518.817 567.228, 518.515 567.311, 518.286 567.398, 518.136 567.487, 518.070 " fill="none" stroke="rgb(0, 0, 0)" stroke-linecap="butt" stroke-linejoin="round" stroke-opacity="1.0" stroke-width="3.0" />
            <path d=" M 567.990, 521.303 574.781, 522.703 577.852, 523.190 " fill="none" stroke="rgb(0, 0, 0)" stroke-linecap="butt" stroke-linejoin="round" stroke-opacity="1.0" stroke-width="3.0" />
            <path d=" M 387.638, 231.176 385.422, 238.710 382.895, 248.386 381.754, 252.757 379.491, 262.498 378.224, 267.955 376.199, 277.748 374.852, 284.263 373.044, 294.099 371.659, 301.631 370.048, 311.500 368.662, 319.996 367.237, 329.894 365.883, 339.291 364.630, 349.212 363.377, 359.134 363.338, 359.438 362.248, 369.378 361.157, 379.318 361.044, 380.347 360.109, 390.303 359.173, 400.259 359.017, 401.923 358.230, 411.892 357.444, 421.861 357.270, 424.065 356.628, 434.044 355.985, 444.023 355.815, 446.663 355.313, 456.650 354.811, 466.637 354.662, 469.602 354.298, 479.596 353.934, 489.589 353.818, 492.767 353.636, 502.765 353.454, 512.763 353.396, 515.965 353.373, 525.965 353.350, 535.965 353.343, 539.121 353.480, 549.120 353.617, 559.119 353.657, 562.113 353.957, 572.108 354.256, 582.104 354.337, 584.820 354.803, 594.809 355.268, 604.799 355.376, 607.128 356.013, 617.108 356.650, 627.087 356.767, 628.924 357.583, 638.891 358.398, 648.858 358.500, 650.105 359.502, 660.055 360.505, 670.005 360.562, 670.571 361.762, 680.498 362.939, 690.230 364.350, 700.130 365.614, 709.004 367.252, 718.869 368.571, 726.817 370.454, 736.638 371.464, 741.902 " fill="none" stroke="rgb(0, 0, 0)" stroke-linecap="butt" stroke-linejoin="round" stroke-opacity="1.0" stroke-width="3.0" />
            <path d=" M 522.739, 539.679 522.337, 549.671 522.310, 550.341 521.800, 560.328 521.593, 564.390 520.972, 574.371 520.724, 578.360 519.992, 588.333 519.705, 592.231 518.859, 602.195 518.537, 605.983 517.573, 615.937 517.219, 619.596 517.054, 621.107 " fill="none" stroke="rgb(0, 0, 0)" stroke-linecap="butt" stroke-linejoin="round" stroke-opacity="1.0" stroke-width="3.0" />
            <path d=" M 495.895, 743.239 493.226, 752.876 493.024, 753.605 490.126, 763.176 489.970, 763.690 486.821, 773.181 486.782, 773.300 483.462, 782.402 480.014, 790.964 476.442, 798.948 472.751, 806.320 468.944, 813.046 465.029, 819.086 461.011, 824.403 456.899, 828.961 452.889, 832.550 " fill="none" stroke="rgb(0, 0, 0)" stroke-linecap="butt" stroke-linejoin="round" stroke-opacity="1.0" stroke-width="3.0" />
            <path d=" M 390.351, 488.088 390.188, 493.294 390.011, 503.293 389.835, 513.291 389.779, 516.436 389.763, 526.436 389.747, 536.436 389.742, 539.536 389.887, 549.535 390.031, 559.534 390.074, 562.474 390.382, 572.469 390.689, 582.465 390.772, 585.130 391.246, 595.119 391.720, 605.108 391.828, 607.390 392.473, 617.369 393.117, 627.348 393.233, 629.142 394.054, 639.109 394.874, 649.075 394.974, 650.284 395.978, 660.233 396.982, 670.182 397.036, 670.715 398.232, 680.643 399.402, 690.345 400.802, 700.247 402.052, 709.094 403.670, 718.963 404.968, 726.889 406.820, 736.716 408.129, 743.664 410.235, 753.439 411.511, 759.365 413.896, 769.077 415.093, 773.949 417.788, 783.579 418.851, 787.380 421.895, 796.905 422.765, 799.628 426.202, 809.019 426.810, 810.679 430.698, 819.892 430.964, 820.522 435.208, 829.155 439.520, 836.581 440.880, 838.524 441.166, 838.933 443.881, 842.814 448.273, 847.872 452.677, 851.772 457.077, 854.545 461.459, 856.220 465.809, 856.831 470.112, 856.411 474.357, 855.001 478.534, 852.641 482.634, 849.368 485.550, 846.357 486.647, 845.224 490.565, 840.253 494.383, 834.495 498.093, 827.988 501.691, 820.776 505.172, 812.898 508.532, 804.393 511.714, 795.448 " fill="none" stroke="rgb(0, 0, 0)" stroke-linecap="butt" stroke-linejoin="round" stroke-opacity="1.0" stroke-width="3.0" />
            <path d=" M 465.722, 838.508 461.651, 837.725 461.604, 837.705 457.565, 835.935 453.476, 833.110 452.889, 832.550 449.400, 829.223 445.351, 824.251 441.345, 818.176 437.400, 810.987 433.532, 802.673 429.822, 793.386 429.761, 793.231 426.489, 783.782 426.103, 782.670 423.213, 773.096 422.580, 770.998 420.027, 761.330 419.209, 758.234 416.956, 748.491 416.010, 744.404 414.026, 734.603 413.002, 729.545 411.263, 719.698 410.203, 713.700 408.689, 703.815 407.632, 696.916 406.325, 687.002 405.305, 679.258 404.192, 669.320 403.237, 660.792 402.308, 650.836 401.445, 641.594 400.690, 631.623 399.942, 621.747 399.353, 611.764 398.764, 601.782 398.738, 601.342 398.309, 591.351 397.880, 581.360 397.842, 580.474 397.570, 570.478 397.297, 560.482 397.263, 559.245 397.144, 549.245 397.024, 539.246 397.006, 537.759 397.037, 527.759 397.068, 517.759 397.073, 516.125 397.254, 506.127 397.303, 503.388 " fill="none" stroke="rgb(0, 0, 0)" stroke-linecap="butt" stroke-linejoin="round" stroke-opacity="1.0" stroke-width="3.0" />
            <path d=" M 508.266, 785.800 506.499, 790.591 503.239, 798.553 499.872, 805.904 496.402, 812.610 492.834, 818.633 489.175, 823.933 485.431, 828.476 481.609, 832.223 477.718, 835.137 473.766, 837.178 469.764, 838.314 465.722, 838.508 " fill="none" stroke="rgb(0, 0, 0)" stroke-linecap="butt" stroke-linejoin="round" stroke-opacity="1.0" stroke-width="3.0" />
            <path d=" M 546.325, 522.360 546.038, 532.356 545.921, 536.476 545.536, 546.468 545.379, 550.552 544.896, 560.540 544.701, 564.568 544.117, 574.551 543.885, 578.506 543.199, 588.482 542.934, 592.345 542.144, 602.314 541.846, 606.065 540.950, 616.025 540.623, 619.646 539.616, 629.595 539.265, 633.067 538.144, 643.004 537.772, 646.305 536.533, 656.228 536.145, 659.339 534.783, 669.246 534.384, 672.147 532.892, 682.035 532.490, 684.702 531.679, 689.616 530.464, 696.983 528.691, 706.825 528.306, 708.963 527.724, 711.927 " fill="none" stroke="rgb(0, 0, 0)" stroke-linecap="butt" stroke-linejoin="round" stroke-opacity="1.0" stroke-width="3.0" />
            <path d=" M 548.884, 522.835 546.325, 522.360 555.419, 522.470 557.266, 522.492 562.724, 522.558 564.511, 522.580 565.000, 522.586 564.513, 522.489 563.565, 522.300 562.732, 522.134 559.174, 521.427 557.627, 521.119 557.629, 520.919 " fill="none" stroke="rgb(0, 0, 0)" stroke-linecap="butt" stroke-linejoin="round" stroke-opacity="1.0" stroke-width="3.0" />
            <path d=" M 378.158, 492.660 377.978, 502.658 377.799, 512.656 377.725, 516.753 377.703, 526.753 377.681, 536.753 377.672, 540.800 377.808, 550.799 377.944, 560.798 377.997, 564.674 378.294, 574.669 378.591, 584.665 378.697, 588.248 379.158, 598.237 379.619, 608.227 379.765, 611.400 380.395, 621.380 381.025, 631.360 381.192, 634.013 381.996, 643.980 382.801, 653.948 382.965, 655.977 383.953, 665.928 384.941, 675.879 385.071, 677.187 386.252, 687.117 387.434, 697.047 387.493, 697.549 388.880, 707.453 390.213, 716.979 391.820, 726.849 393.211, 735.399 395.056, 745.228 396.467, 752.743 398.572, 762.519 399.958, 768.955 402.350, 778.665 403.662, 783.991 406.374, 793.617 407.556, 797.814 410.628, 807.331 411.617, 810.398 415.098, 819.772 415.823, 821.726 419.772, 830.913 420.149, 831.792 424.576, 840.593 429.082, 848.137 433.645, 854.441 438.247, 859.522 442.869, 863.404 447.494, 866.119 452.107, 867.700 456.691, 868.182 461.233, 867.604 465.720, 866.008 470.142, 863.437 474.486, 859.930 478.744, 855.533 482.908, 850.290 " fill="none" stroke="rgb(0, 0, 0)" stroke-linecap="butt" stroke-linejoin="round" stroke-opacity="1.0" stroke-width="3.0" />
            <path d=" M 482.908, 850.290 488.973, 842.340 490.565, 840.253 " fill="none" stroke="rgb(0, 0, 0)" stroke-linecap="butt" stroke-linejoin="round" stroke-opacity="1.0" stroke-width="3.0" />
            <path d=" M 539.626, 547.548 529.631, 547.863 528.208, 547.908 525.338, 543.590 522.739, 539.679 522.653, 539.549 " fill="none" stroke="rgb(0, 0, 0)" stroke-linecap="butt" stroke-linejoin="round" stroke-opacity="1.0" stroke-width="3.0" />
            <path d=" M 531.215, 496.426 540.841, 496.951 540.757, 506.951 540.674, 516.951 540.630, 522.291 540.297, 532.286 540.159, 536.415 539.681, 546.403 539.626, 547.548 534.249, 539.117 531.060, 534.117 530.799, 533.708 530.537, 533.297 530.275, 532.886 530.014, 532.475 529.712, 531.872 529.431, 531.052 529.177, 530.030 529.014, 529.140 528.956, 528.826 528.773, 527.461 528.632, 525.964 528.534, 524.361 528.511, 523.606 528.482, 522.684 528.477, 520.965 528.518, 519.238 528.606, 517.537 528.617, 517.400 528.738, 515.893 528.912, 514.340 529.124, 512.907 529.324, 511.862 529.370, 511.622 529.645, 510.509 529.945, 509.588 530.263, 508.878 530.590, 508.391 530.869, 508.079 531.148, 507.767 531.427, 507.456 531.705, 507.145 531.846, 506.989 538.520, 499.541 540.841, 496.951 " fill="none" stroke="rgb(0, 0, 0)" stroke-linecap="butt" stroke-linejoin="round" stroke-opacity="1.0" stroke-width="3.0" />
            <path d=" M 530.918, 523.649 530.792, 523.628 530.672, 523.472 530.563, 523.187 530.469, 522.786 530.396, 522.287 530.346, 521.711 530.321, 521.085 530.324, 520.435 530.353, 519.789 530.407, 519.177 530.484, 518.625 530.580, 518.157 530.692, 517.794 530.814, 517.552 530.941, 517.440 " fill="none" stroke="rgb(0, 0, 0)" stroke-linecap="butt" stroke-linejoin="round" stroke-opacity="1.0" stroke-width="3.0" />
            <path d=" M 530.941, 517.440 531.066, 517.466 531.186, 517.625 531.295, 517.911 531.388, 518.312 531.461, 518.810 531.511, 519.383 531.535, 520.008 531.533, 520.655 531.504, 521.298 531.450, 521.909 531.374, 522.460 531.278, 522.927 531.167, 523.291 531.045, 523.535 530.918, 523.649 " fill="none" stroke="rgb(0, 0, 0)" stroke-linecap="butt" stroke-linejoin="round" stroke-opacity="1.0" stroke-width="3.0" />
            <path d=" M 363.361, 425.137 363.349, 425.291 362.740, 435.272 362.131, 445.254 361.997, 447.444 361.529, 457.433 361.060, 467.422 360.947, 469.843 360.652, 478.790 360.323, 488.784 360.203, 492.400 360.012, 502.398 359.821, 512.396 359.770, 515.024 359.717, 525.024 359.663, 535.024 359.649, 537.625 359.734, 547.625 359.819, 557.625 359.840, 560.113 359.897, 562.655 " fill="none" stroke="rgb(0, 0, 0)" stroke-linecap="butt" stroke-linejoin="round" stroke-opacity="1.0" stroke-width="3.0" />
            <path d=" M 536.480, 743.282 538.207, 733.673 539.856, 723.810 540.206, 721.717 541.742, 711.836 542.097, 709.553 543.525, 699.655 543.880, 697.196 545.204, 687.284 545.555, 684.661 546.779, 674.737 547.121, 671.965 548.249, 662.028 548.579, 659.120 549.613, 649.173 549.929, 646.141 550.872, 636.185 551.170, 633.040 552.025, 623.077 552.304, 619.831 553.072, 609.861 553.329, 606.527 554.013, 596.550 554.246, 593.138 554.846, 583.156 555.056, 579.678 555.573, 569.692 555.757, 566.158 556.193, 556.168 556.349, 552.589 556.705, 542.596 556.834, 538.983 557.110, 528.987 557.210, 525.350 557.257, 522.938 " fill="none" stroke="rgb(0, 0, 0)" stroke-linecap="butt" stroke-linejoin="round" stroke-opacity="1.0" stroke-width="3.0" />
            <path d=" M 458.021, 902.808 460.444, 902.971 464.577, 902.809 468.669, 901.834 472.712, 900.077 476.700, 897.567 480.625, 894.336 484.481, 890.413 488.265, 885.830 491.969, 880.616 495.591, 874.801 499.125, 868.415 502.570, 861.485 505.922, 854.042 509.177, 846.111 512.335, 837.719 515.393, 828.892 518.349, 819.654 519.727, 815.005 " fill="none" stroke="rgb(0, 0, 0)" stroke-linecap="butt" stroke-linejoin="round" stroke-opacity="1.0" stroke-width="3.0" />
            <path d=" M 519.705, 176.808 519.155, 175.226 516.099, 167.239 512.930, 159.751 509.650, 152.791 506.260, 146.388 502.764, 140.572 499.165, 135.374 495.466, 130.824 491.672, 126.955 487.788, 123.798 483.818, 121.385 479.770, 119.746 475.649, 118.914 471.463, 118.917 471.064, 118.999 467.220, 119.786 462.929, 121.549 458.600, 124.233 454.243, 127.861 449.869, 132.456 445.491, 138.038 441.121, 144.623 436.772, 152.225 432.460, 160.852 431.384, 163.290 428.198, 170.509 424.543, 179.817 424.002, 181.196 423.048, 183.911 419.888, 192.908 416.878, 202.444 415.872, 205.634 413.138, 215.253 411.971, 219.359 409.487, 229.046 408.201, 234.060 405.946, 243.803 404.579, 249.709 402.536, 259.498 401.123, 266.270 399.276, 276.098 397.848, 283.703 396.185, 293.564 394.770, 301.961 393.280, 311.849 391.904, 320.988 390.579, 330.900 389.266, 340.727 388.098, 350.658 386.930, 360.590 386.869, 361.109 385.851, 371.057 384.833, 381.005 384.725, 382.066 383.853, 392.027 382.980, 401.989 382.846, 403.520 382.115, 413.493 381.384, 423.466 381.242, 425.392 380.649, 435.374 380.055, 445.356 379.922, 447.597 379.464, 457.587 379.006, 467.576 378.892, 470.049 378.568, 480.044 378.243, 490.039 378.158, 492.660 377.966, 502.658 377.774, 512.656 377.723, 515.337 377.664, 525.337 377.604, 535.337 377.589, 537.991 377.662, 547.991 377.736, 557.990 377.755, 560.531 377.963, 570.529 378.172, 580.527 378.220, 582.867 378.565, 592.861 378.910, 602.855 378.981, 604.912 379.465, 614.901 379.949, 624.889 380.031, 626.582 380.658, 636.562 381.286, 646.542 381.364, 647.794 382.139, 657.764 382.914, 667.734 382.972, 668.472 383.900, 678.429 384.844, 688.543 385.932, 698.484 386.969, 707.941 388.226, 717.862 389.334, 726.603 390.770, 736.500 391.928, 744.474 393.554, 754.341 394.735, 761.505 396.565, 771.336 397.740, 777.652 399.790, 787.439 400.930, 792.878 403.219, 802.612 404.287, 807.153 406.838, 816.822 407.796, 820.452 410.636, 830.040 411.441, 832.757 414.604, 842.244 415.207, 844.055 418.730, 853.414 419.078, 854.340 423.039, 863.608 427.074, 871.862 431.170, 879.109 435.312, 885.361 439.488, 890.631 443.683, 894.938 447.888, 898.302 452.090, 900.745 456.278, 902.293 459.169, 902.764 460.444, 902.971 " fill="none" stroke="rgb(0, 0, 0)" stroke-linecap="butt" stroke-linejoin="round" stroke-opacity="1.0" stroke-width="3.0" />
            <path d=" M 469.004, 119.001 464.734, 119.871 460.416, 121.634 456.060, 124.318 451.675, 127.946 447.274, 132.540 442.869, 138.121 438.472, 144.705 434.097, 152.305 429.758, 160.930 428.569, 163.607 425.471, 170.584 421.796, 179.884 421.249, 181.268 417.917, 190.696 417.111, 192.976 416.623, 194.513 413.597, 204.044 413.072, 205.699 410.322, 215.313 409.148, 219.419 406.650, 229.102 405.356, 234.115 403.089, 243.855 401.714, 249.758 399.659, 259.545 398.238, 266.314 396.381, 276.140 394.945, 283.741 393.273, 293.600 391.850, 301.992 390.352, 311.879 388.969, 321.012 387.637, 330.923 386.317, 340.742 385.142, 350.673 383.968, 360.604 383.907, 361.117 382.884, 371.065 381.861, 381.012 381.753, 382.066 380.876, 392.027 379.999, 401.989 379.865, 403.512 379.130, 413.484 378.396, 423.457 378.254, 425.375 377.658, 435.357 377.062, 445.339 376.929, 447.572 376.469, 457.561 376.009, 467.550 375.895, 470.015 375.570, 480.010 375.245, 490.004 375.160, 492.616 374.968, 502.614 374.776, 512.613 374.725, 515.285 374.667, 525.285 374.608, 535.284 374.593, 537.930 374.669, 547.930 374.744, 557.929 374.763, 560.461 374.974, 570.459 375.185, 580.457 375.235, 582.789 375.583, 592.783 375.931, 602.777 376.003, 604.826 376.492, 614.814 376.980, 624.802 377.063, 626.487 377.695, 636.467 378.328, 646.447 378.407, 647.691 379.188, 657.661 379.970, 667.630 380.027, 668.362 380.963, 678.318 381.913, 688.426 383.011, 698.366 384.054, 707.817 385.321, 717.736 386.437, 726.473 387.884, 736.368 389.050, 744.338 390.688, 754.203 391.876, 761.363 393.719, 771.192 394.903, 777.505 396.967, 787.290 398.114, 792.727 400.419, 802.458 401.495, 806.998 404.063, 816.663 405.028, 820.294 407.886, 829.877 408.698, 832.596 411.880, 842.076 412.489, 843.892 414.844, 850.106 414.912, 850.286 416.386, 854.174 420.373, 863.440 424.435, 871.694 428.558, 878.940 432.727, 885.192 436.930, 890.462 441.153, 894.770 445.385, 898.134 449.614, 900.578 453.829, 902.128 458.021, 902.808 " fill="none" stroke="rgb(0, 0, 0)" stroke-linecap="butt" stroke-linejoin="round" stroke-opacity="1.0" stroke-width="3.0" />
            <path d=" M 471.463, 118.917 469.004, 119.001 " fill="none" stroke="rgb(0, 0, 0)" stroke-linecap="butt" stroke-linejoin="round" stroke-opacity="1.0" stroke-width="3.0" />
            <path d=" M 542.607, 760.095 544.327, 750.244 544.653, 748.376 546.259, 738.506 546.735, 735.583 548.231, 725.696 548.702, 722.584 550.094, 712.682 550.556, 709.395 551.848, 699.479 552.297, 696.032 553.492, 686.104 553.925, 682.509 555.027, 672.570 555.440, 668.841 556.451, 658.892 556.842, 655.041 557.765, 645.084 558.132, 641.123 558.969, 631.158 559.310, 627.099 560.063, 617.127 560.376, 612.982 561.047, 603.004 561.330, 598.783 561.919, 588.800 562.173, 584.514 562.682, 574.527 562.903, 570.186 563.333, 560.195 563.522, 555.811 563.874, 545.817 564.030, 541.399 564.303, 531.402 564.425, 526.961 564.502, 523.027 " fill="none" stroke="rgb(0, 0, 0)" stroke-linecap="butt" stroke-linejoin="round" stroke-opacity="1.0" stroke-width="3.0" />
            <path d=" M 460.096, 935.150 462.484, 935.321 466.918, 934.746 471.300, 933.303 475.623, 931.025 479.878, 927.948 484.060, 924.108 488.162, 919.540 492.179, 914.278 496.107, 908.356 499.941, 901.808 503.678, 894.667 507.314, 886.965 510.848, 878.732 514.275, 869.998 517.595, 860.793 520.753, 851.304 520.807, 851.143 523.750, 841.587 523.908, 841.077 526.656, 831.462 526.897, 830.618 526.981, 830.302 " fill="none" stroke="rgb(0, 0, 0)" stroke-linecap="butt" stroke-linejoin="round" stroke-opacity="1.0" stroke-width="3.0" />
            <path d=" M 541.129, 212.538 539.153, 203.440 536.859, 193.706 536.578, 192.513 534.097, 182.825 533.875, 181.958 531.191, 172.325 531.046, 171.803 528.139, 162.235 528.090, 162.074 525.008, 152.799 521.802, 144.007 518.471, 135.730 515.018, 127.997 511.444, 120.843 507.752, 114.299 503.945, 108.401 500.025, 103.184 495.998, 98.683 491.867, 94.934 487.638, 91.974 483.317, 89.839 478.911, 88.565 474.426, 88.189 472.994, 88.364 469.872, 88.746 465.258, 90.268 460.593, 92.790 455.890, 96.340 451.159, 100.949 446.415, 106.640 441.670, 113.436 436.939, 121.356 432.333, 130.232 432.239, 130.413 428.090, 139.511 427.586, 140.617 426.495, 143.316 422.996, 151.971 421.240, 156.842 418.489, 164.473 416.445, 170.798 414.081, 178.116 411.292, 187.719 409.792, 192.885 407.262, 202.559 405.642, 208.757 403.348, 218.490 401.649, 225.703 399.573, 235.485 399.366, 236.456 397.832, 243.687 395.958, 253.510 394.211, 262.664 392.525, 272.521 390.839, 282.378 390.804, 282.582 389.295, 292.467 387.786, 302.353 387.629, 303.381 386.287, 313.291 384.946, 323.200 384.703, 324.994 383.521, 334.924 382.339, 344.854 382.042, 347.348 381.013, 357.295 379.984, 367.242 379.661, 370.361 378.780, 380.322 377.899, 390.283 377.574, 393.946 376.836, 403.919 376.098, 413.892 375.793, 418.012 375.194, 427.994 374.595, 437.976 374.326, 442.462 373.865, 452.451 373.403, 462.441 373.184, 467.196 372.857, 477.190 372.531, 487.185 372.370, 492.110 372.179, 502.108 371.987, 512.106 371.891, 517.101 371.834, 527.100 371.777, 537.100 371.748, 542.062 371.826, 552.062 371.903, 562.061 371.940, 566.889 372.154, 576.887 372.368, 586.884 372.466, 591.479 372.818, 601.473 373.170, 611.466 373.320, 615.730 373.814, 625.718 374.308, 635.706 374.497, 639.545 375.136, 649.525 375.775, 659.505 375.988, 662.832 376.778, 672.800 377.567, 682.769 377.783, 685.500 378.729, 695.456 379.675, 705.411 379.870, 707.470 380.980, 717.408 382.089, 727.346 382.236, 728.664 383.518, 738.581 384.800, 748.499 384.867, 749.013 386.331, 758.905 387.746, 768.457 389.406, 778.318 390.857, 786.940 392.727, 796.763 394.184, 804.416 395.755, 811.743 397.707, 820.846 399.506, 828.302 401.410, 836.198 404.027, 845.850 405.274, 850.448 407.491, 857.712 409.281, 863.579 412.523, 872.994 413.413, 875.580 417.048, 884.896 417.653, 886.447 421.717, 895.584 421.982, 896.181 426.385, 904.789 430.845, 912.282 435.348, 918.678 439.877, 923.996 444.421, 928.259 448.965, 931.493 453.498, 933.727 458.008, 934.993 460.117, 935.148 462.484, 935.321 " fill="none" stroke="rgb(0, 0, 0)" stroke-linecap="butt" stroke-linejoin="round" stroke-opacity="1.0" stroke-width="3.0" />
            <path d=" M 364.027, 414.936 363.799, 417.956 363.361, 425.137 362.752, 435.118 362.309, 442.367 361.841, 452.356 361.373, 462.345 361.151, 467.062 360.822, 477.057 360.773, 478.542 360.444, 488.537 360.342, 491.616 360.332, 491.937 360.140, 501.935 359.949, 511.933 359.854, 516.888 359.800, 526.888 359.747, 536.888 359.740, 538.062 359.720, 541.810 359.805, 551.810 359.890, 561.809 359.897, 562.655 359.931, 566.599 360.155, 576.596 360.380, 586.594 360.482, 591.150 360.550, 593.004 " fill="none" stroke="rgb(0, 0, 0)" stroke-linecap="butt" stroke-linejoin="round" stroke-opacity="1.0" stroke-width="3.0" />
            <path d=" M 471.999, 88.282 467.417, 88.839 462.773, 90.362 458.079, 92.884 453.346, 96.435 448.587, 101.043 443.813, 106.733 439.039, 113.528 434.280, 121.446 429.651, 130.310 429.551, 130.501 425.381, 139.590 424.870, 140.702 421.103, 149.965 420.253, 152.053 418.315, 157.396 415.719, 164.552 412.628, 174.062 412.017, 175.939 411.286, 178.190 410.410, 181.187 407.606, 190.785 406.972, 192.954 404.428, 202.625 402.798, 208.821 400.491, 218.551 398.782, 225.762 396.694, 235.541 394.944, 243.739 393.059, 253.560 391.302, 262.709 390.499, 267.382 388.803, 277.237 387.877, 282.620 386.359, 292.504 384.842, 302.388 384.685, 303.411 383.336, 313.320 381.987, 323.229 381.744, 325.017 380.555, 334.946 379.367, 344.875 379.069, 347.362 378.035, 357.308 377.001, 367.254 376.677, 370.365 375.791, 380.326 374.905, 390.287 374.580, 393.942 373.838, 403.914 373.096, 413.886 372.791, 417.998 372.189, 427.980 371.588, 437.962 371.318, 442.438 370.855, 452.428 370.392, 462.417 370.172, 467.162 369.845, 477.157 369.518, 487.152 369.357, 492.067 369.166, 502.065 368.974, 512.063 368.878, 517.047 368.822, 527.047 368.765, 537.047 368.738, 541.999 368.817, 551.998 368.896, 561.998 368.934, 566.816 369.151, 576.814 369.367, 586.812 369.467, 591.397 369.822, 601.390 370.178, 611.384 370.330, 615.639 370.828, 625.626 371.326, 635.614 371.517, 639.445 372.161, 649.424 372.806, 659.403 373.020, 662.723 373.816, 672.691 374.612, 682.659 374.829, 685.383 375.783, 695.338 376.736, 705.292 376.932, 707.345 378.050, 717.282 379.168, 727.219 379.316, 728.531 380.607, 738.448 381.899, 748.364 381.965, 748.874 383.441, 758.765 384.865, 768.311 386.537, 778.170 387.998, 786.789 388.415, 788.962 390.298, 798.783 391.347, 804.259 393.459, 814.034 394.275, 817.814 394.895, 820.685 397.209, 830.209 398.623, 836.033 401.258, 845.680 402.514, 850.280 404.583, 857.013 406.547, 863.408 409.823, 872.856 410.707, 875.406 414.363, 884.714 414.974, 886.271 419.061, 895.398 419.332, 896.003 423.764, 904.610 428.254, 912.104 432.785, 918.500 437.344, 923.817 441.917, 928.081 446.491, 931.317 451.052, 933.552 455.591, 934.820 460.096, 935.150 " fill="none" stroke="rgb(0, 0, 0)" stroke-linecap="butt" stroke-linejoin="round" stroke-opacity="1.0" stroke-width="3.0" />
            <path d=" M 474.426, 88.189 471.999, 88.282 " fill="none" stroke="rgb(0, 0, 0)" stroke-linecap="butt" stroke-linejoin="round" stroke-opacity="1.0" stroke-width="3.0" />
            <path d=" M 546.757, 220.906 546.049, 217.015 544.114, 207.204 543.667, 204.936 541.576, 195.157 541.153, 193.181 538.894, 183.440 538.508, 181.775 536.067, 172.078 535.731, 170.743 533.090, 161.098 532.821, 160.112 529.963, 150.529 529.778, 149.910 526.681, 140.402 526.604, 140.166 523.298, 130.911 519.861, 122.176 516.295, 113.995 512.601, 106.402 508.782, 99.432 504.840, 93.121 500.778, 87.507 496.600, 82.628 492.311, 78.522 487.915, 75.229 483.419, 72.789 478.829, 71.240 474.153, 70.622 469.327, 70.816 464.514, 71.170 459.632, 72.529 454.692, 74.931 449.706, 78.409 444.687, 82.994 439.647, 88.717 434.602, 95.603 429.568, 103.673 424.816, 112.471 424.561, 112.944 420.284, 121.983 419.600, 123.429 415.739, 132.654 414.702, 135.134 411.211, 144.504 409.887, 148.059 406.725, 157.546 405.174, 162.197 402.308, 171.778 400.586, 177.536 397.988, 187.192 396.142, 194.053 393.788, 203.772 391.863, 211.719 389.734, 221.490 387.771, 230.496 387.638, 231.176 385.717, 240.990 383.887, 250.339 382.160, 260.188 380.433, 270.038 380.231, 271.192 378.686, 281.072 377.141, 290.952 376.822, 292.992 375.450, 302.898 374.078, 312.803 373.681, 315.670 372.473, 325.596 371.264, 335.523 370.824, 339.144 369.773, 349.089 368.722, 359.033 368.268, 363.329 367.368, 373.288 366.469, 383.248 366.028, 388.132 365.916, 389.610 365.164, 399.581 364.412, 409.553 364.117, 413.453 364.027, 414.936 363.589, 422.111 362.980, 432.092 362.547, 439.189 362.079, 449.178 361.610, 459.167 361.326, 465.231 360.997, 475.225 360.896, 478.292 360.566, 488.286 360.483, 490.821 360.461, 491.468 360.270, 501.466 360.079, 511.464 359.958, 517.786 359.904, 527.785 359.850, 537.785 359.817, 544.071 359.853, 548.414 359.938, 558.413 360.021, 568.156 360.038, 570.211 360.263, 580.209 360.487, 590.206 360.550, 593.004 360.568, 593.794 360.620, 596.093 360.986, 606.086 361.353, 616.080 361.556, 621.608 362.068, 631.595 362.580, 641.582 362.840, 646.651 363.502, 656.629 364.163, 666.608 364.462, 671.122 365.278, 681.089 366.094, 691.055 366.411, 694.926 367.388, 704.878 368.365, 714.830 368.674, 717.974 369.819, 727.909 370.965, 737.843 371.235, 740.187 371.464, 741.902 372.787, 751.814 374.079, 761.490 375.591, 771.376 377.103, 781.261 377.188, 781.820 378.901, 791.672 380.544, 801.117 382.474, 810.929 384.128, 819.335 386.293, 829.098 387.920, 836.433 390.341, 846.136 391.900, 852.380 394.604, 862.007 396.049, 867.150 399.066, 876.684 400.346, 880.728 403.713, 890.144 404.772, 893.105 408.534, 902.371 409.308, 904.278 413.516, 913.350 413.935, 914.252 418.635, 923.036 423.390, 930.644 428.185, 937.096 433.004, 942.416 437.831, 946.630 442.654, 949.767 447.459, 951.862 452.235, 952.946 457.041, 953.302 461.717, 953.408 466.343, 952.577 470.911, 950.846 475.412, 948.254 479.839, 944.837 484.185, 940.635 488.445, 935.686 492.612, 930.025 496.683, 923.691 500.654, 916.717 504.520, 909.140 508.279, 900.992 511.929, 892.307 515.468, 883.114 518.806, 873.688 518.892, 873.445 522.002, 863.941 522.203, 863.329 525.104, 853.759 525.397, 852.793 528.107, 843.167 528.474, 841.863 530.004, 836.026 " fill="none" stroke="rgb(0, 0, 0)" stroke-linecap="butt" stroke-linejoin="round" stroke-opacity="1.0" stroke-width="3.0" />
            <path d=" M 545.049, 765.980 546.716, 756.330 548.306, 746.457 548.850, 743.073 550.332, 733.183 550.867, 729.611 552.246, 719.707 552.768, 715.962 554.047, 706.045 554.551, 702.141 555.736, 692.212 556.219, 688.163 557.311, 678.222 557.770, 674.041 558.773, 664.091 559.206, 659.790 560.122, 649.832 560.527, 645.422 561.357, 635.456 561.733, 630.950 562.480, 620.978 562.824, 616.386 563.490, 606.408 563.802, 601.742 564.387, 591.759 564.664, 587.030 565.171, 577.042 565.413, 572.259 565.841, 562.268 566.048, 557.442 566.398, 547.448 566.569, 542.589 566.842, 532.593 566.975, 527.710 567.066, 523.058 " fill="none" stroke="rgb(0, 0, 0)" stroke-linecap="butt" stroke-linejoin="round" stroke-opacity="1.0" stroke-width="3.0" />
            <path d=" M 474.153, 70.622 469.400, 70.973 464.579, 72.331 459.700, 74.731 454.775, 78.209 449.816, 82.795 444.837, 88.519 439.853, 95.407 434.879, 103.480 430.173, 112.303 429.932, 112.756 425.697, 121.815 425.028, 123.246 423.388, 127.214 420.187, 134.957 416.734, 144.341 415.428, 147.889 412.301, 157.388 410.770, 162.036 408.166, 170.846 406.234, 177.385 403.664, 187.049 402.339, 192.034 401.840, 193.913 399.512, 203.638 398.253, 208.900 397.609, 211.591 395.503, 221.366 393.562, 230.381 391.662, 240.199 389.763, 250.017 389.720, 250.238 388.012, 260.091 387.663, 262.103 386.103, 271.106 384.575, 280.989 383.047, 290.872 382.730, 292.923 381.373, 302.831 380.015, 312.738 379.621, 315.618 378.425, 325.546 378.132, 327.982 376.937, 337.910 376.792, 339.110 375.752, 349.056 374.712, 359.002 374.261, 363.314 373.371, 373.274 372.480, 383.235 372.042, 388.136 371.297, 398.109 370.551, 408.081 370.148, 413.478 369.544, 423.460 368.940, 433.441 368.590, 439.234 368.125, 449.223 367.660, 459.213 367.377, 465.297 367.049, 475.291 366.721, 485.286 366.516, 491.554 366.324, 501.552 366.133, 511.551 366.011, 517.893 365.956, 527.893 365.900, 537.893 365.865, 544.200 365.946, 554.199 366.027, 564.199 366.077, 570.360 366.296, 580.358 366.515, 590.355 366.645, 596.262 367.004, 606.256 367.364, 616.249 367.563, 621.797 368.066, 631.784 368.569, 641.772 368.825, 646.859 369.476, 656.838 370.126, 666.817 370.421, 671.348 371.224, 681.315 372.027, 691.283 372.340, 695.169 373.302, 705.122 374.264, 715.076 374.569, 718.234 375.698, 728.170 376.826, 738.106 377.094, 740.462 377.180, 741.117 377.349, 742.406 378.653, 752.321 379.897, 761.779 381.388, 771.668 382.878, 781.556 382.963, 782.122 384.653, 791.978 384.969, 793.822 386.004, 799.862 386.273, 801.431 388.177, 811.249 389.808, 819.660 391.945, 829.429 393.550, 836.768 395.143, 843.240 397.477, 852.722 400.147, 862.359 401.571, 867.500 404.551, 877.045 405.812, 881.084 409.171, 890.605 410.181, 893.466 413.899, 902.749 414.658, 904.643 418.821, 913.735 419.225, 914.619 423.865, 923.404 428.560, 931.013 433.294, 937.465 438.051, 942.783 442.818, 946.995 447.580, 950.130 452.325, 952.221 457.041, 953.302 " fill="none" stroke="rgb(0, 0, 0)" stroke-linecap="butt" stroke-linejoin="round" stroke-opacity="1.0" stroke-width="3.0" />
            <path d=" M 565.309, 520.751 565.365, 519.124 565.428, 518.034 565.458, 517.532 565.583, 516.003 565.738, 514.591 565.741, 514.564 565.927, 513.238 566.140, 512.049 566.374, 511.016 566.626, 510.157 566.891, 509.486 567.166, 509.013 567.314, 508.872 567.445, 508.747 567.724, 508.691 " fill="none" stroke="rgb(0, 0, 0)" stroke-linecap="butt" stroke-linejoin="round" stroke-opacity="1.0" stroke-width="3.0" />
            <path d=" M 554.842, 520.566 555.456, 520.577 557.303, 520.610 557.631, 520.615 562.760, 520.706 564.547, 520.738 565.037, 520.747 565.309, 520.751 566.924, 521.084 " fill="none" stroke="rgb(0, 0, 0)" stroke-linecap="butt" stroke-linejoin="round" stroke-opacity="1.0" stroke-width="3.0" />
            <path d=" M 557.627, 521.119 562.750, 521.210 564.537, 521.242 565.027, 521.250 567.101, 521.287 567.990, 521.303 567.995, 520.788 567.985, 520.284 567.961, 519.805 567.923, 519.364 567.873, 518.972 567.811, 518.641 567.739, 518.378 567.660, 518.193 567.575, 518.089 567.487, 518.070 " fill="none" stroke="rgb(0, 0, 0)" stroke-linecap="butt" stroke-linejoin="round" stroke-opacity="1.0" stroke-width="3.0" />
            <path d=" M 533.333, 488.139 537.821, 488.155 537.812, 482.467 537.752, 482.447 534.892, 482.411 " fill="none" stroke="rgb(0, 0, 0)" stroke-linecap="butt" stroke-linejoin="round" stroke-opacity="1.0" stroke-width="3.0" />
            <path d=" M 537.617, 488.094 537.752, 482.447 " fill="none" stroke="rgb(0, 0, 0)" stroke-linecap="butt" stroke-linejoin="round" stroke-opacity="1.0" stroke-width="3.0" />
            <path d=" M 535.150, 484.129 535.128, 484.126 535.127, 484.126 534.938, 484.105 534.776, 484.115 534.771, 484.116 534.744, 484.117 534.723, 484.119 534.711, 484.121 534.499, 484.181 534.347, 484.260 " fill="none" stroke="rgb(0, 0, 0)" stroke-linecap="butt" stroke-linejoin="round" stroke-opacity="1.0" stroke-width="3.0" />
            <path d=" M 533.933, 485.791 533.964, 485.851 534.101, 486.021 534.164, 486.078 534.268, 486.163 534.289, 486.176 " fill="none" stroke="rgb(0, 0, 0)" stroke-linecap="butt" stroke-linejoin="round" stroke-opacity="1.0" stroke-width="3.0" />
            <path d=" M 534.426, 486.255 534.459, 486.269 534.473, 486.273 534.652, 486.332 534.667, 486.337 " fill="none" stroke="rgb(0, 0, 0)" stroke-linecap="butt" stroke-linejoin="round" stroke-opacity="1.0" stroke-width="3.0" />
            <path d=" M 535.095, 484.119 534.938, 484.105 534.780, 484.115 " fill="none" stroke="rgb(0, 0, 0)" stroke-linecap="butt" stroke-linejoin="round" stroke-opacity="1.0" stroke-width="3.0" />
            <path d=" M 535.249, 484.155 535.150, 484.129 535.095, 484.119 " fill="none" stroke="rgb(0, 0, 0)" stroke-linecap="butt" stroke-linejoin="round" stroke-opacity="1.0" stroke-width="3.0" />
            <path d=" M 534.726, 486.349 534.884, 486.363 535.042, 486.354 535.197, 486.322 535.347, 486.267 535.488, 486.192 535.617, 486.097 535.731, 485.985 535.829, 485.857 535.909, 485.716 535.967, 485.566 536.005, 485.409 536.020, 485.249 536.013, 485.088 535.983, 484.930 535.931, 484.778 535.858, 484.636 535.767, 484.506 535.658, 484.390 535.533, 484.292 535.396, 484.213 535.249, 484.155 " fill="none" stroke="rgb(0, 0, 0)" stroke-linecap="butt" stroke-linejoin="round" stroke-opacity="1.0" stroke-width="3.0" />
            <path d=" M 534.780, 484.115 534.771, 484.116 " fill="none" stroke="rgb(0, 0, 0)" stroke-linecap="butt" stroke-linejoin="round" stroke-opacity="1.0" stroke-width="3.0" />
            <path d=" M 534.573, 486.313 534.667, 486.337 534.726, 486.349 " fill="none" stroke="rgb(0, 0, 0)" stroke-linecap="butt" stroke-linejoin="round" stroke-opacity="1.0" stroke-width="3.0" />
            <path d=" M 534.289, 486.176 534.426, 486.255 " fill="none" stroke="rgb(0, 0, 0)" stroke-linecap="butt" stroke-linejoin="round" stroke-opacity="1.0" stroke-width="3.0" />
            <path d=" M 533.359, 488.036 537.617, 488.094 537.821, 488.155 " fill="none" stroke="rgb(0, 0, 0)" stroke-linecap="butt" stroke-linejoin="round" stroke-opacity="1.0" stroke-width="3.0" />
            <path d=" M 621.138, 905.536 623.314, 906.051 631.201, 907.769 639.096, 908.738 646.980, 908.974 654.836, 908.495 662.648, 907.320 670.401, 905.470 678.081, 902.965 685.674, 899.826 693.167, 896.075 700.550, 891.734 707.811, 886.824 714.940, 881.369 721.928, 875.390 728.765, 868.909 735.445, 861.948 741.959, 854.529 748.301, 846.674 754.277, 838.656 754.465, 838.404 760.144, 830.173 760.444, 829.738 765.838, 821.318 766.235, 820.699 771.353, 812.107 771.831, 811.304 776.683, 802.560 777.229, 801.575 781.824, 792.693 782.425, 791.531 786.771, 782.524 787.415, 781.189 791.520, 772.070 792.196, 770.568 796.068, 761.348 796.765, 759.686 800.410, 750.374 801.119, 748.561 804.543, 739.166 805.256, 737.209 808.465, 727.738 809.174, 725.647 812.173, 716.107 812.870, 713.891 815.664, 704.289 816.342, 701.957 818.935, 692.299 819.589, 689.861 821.984, 680.152 822.610, 677.618 824.810, 667.863 825.402, 665.242 827.411, 655.446 827.964, 652.749 829.784, 642.916 830.295, 640.152 831.927, 630.287 832.394, 627.467 833.840, 617.572 834.259, 614.707 835.521, 604.787 835.890, 601.887 836.967, 591.945 837.284, 589.019 838.178, 579.059 838.442, 576.118 839.152, 566.144 839.362, 563.198 839.888, 553.212 840.043, 550.272 840.384, 540.278 840.484, 537.355 840.639, 527.356 840.684, 524.459 840.652, 514.459 840.643, 511.599 840.421, 501.601 840.358, 498.789 839.944, 488.797 839.830, 486.042 839.221, 476.061 839.058, 473.374 838.251, 463.407 838.040, 460.799 837.031, 450.850 836.776, 448.332 835.562, 438.406 835.266, 435.987 833.840, 426.089 833.508, 423.781 831.866, 413.917 831.502, 411.729 829.639, 401.904 829.249, 399.846 827.156, 390.067 826.746, 388.150 824.418, 378.424 823.995, 376.657 821.424, 366.993 820.996, 365.384 818.172, 355.791 817.747, 354.350 814.662, 344.838 814.251, 343.572 810.893, 334.152 810.507, 333.069 806.866, 323.755 806.516, 322.860 802.581, 313.667 802.280, 312.965 798.038, 303.909 797.800, 303.403 793.237, 294.505 793.078, 294.195 788.181, 285.477 788.117, 285.363 782.918, 276.927 777.485, 268.909 771.822, 261.332 765.933, 254.218 759.823, 247.589 753.497, 241.470 746.963, 235.882 740.225, 230.849 733.294, 226.395 726.177, 222.542 718.883, 219.314 711.423, 216.733 703.809, 214.821 696.053, 213.599 688.168, 213.089 680.169, 213.308 677.950, 213.473 " fill="none" stroke="rgb(0, 0, 0)" stroke-linecap="butt" stroke-linejoin="round" stroke-opacity="1.0" stroke-width="3.0" />
            <path d=" M 623.314, 906.051 622.899, 905.920 615.452, 903.568 607.635, 900.306 599.884, 896.254 592.220, 891.402 584.665, 885.743 577.241, 879.270 570.179, 872.190 569.971, 871.982 563.385, 864.458 562.880, 863.880 556.764, 855.968 555.989, 854.967 550.333, 846.720 549.325, 845.250 544.116, 836.714 542.911, 834.739 540.969, 831.170 536.770, 823.448 534.373, 818.503 531.540, 812.658 531.219, 811.996 530.927, 811.395 530.254, 809.835 526.292, 800.653 525.406, 798.602 524.754, 796.901 523.528, 793.702 520.230, 785.094 517.447, 776.882 515.420, 770.901 515.396, 770.819 512.541, 761.236 510.998, 756.055 508.485, 746.376 506.983, 740.594 504.800, 730.835 503.396, 724.558 502.059, 717.508 500.253, 707.992 498.698, 698.114 497.570, 690.945 496.316, 681.024 495.361, 673.466 494.400, 663.512 493.637, 655.611 492.964, 645.633 492.410, 637.435 492.017, 627.443 491.686, 618.998 491.570, 608.999 491.470, 600.361 491.628, 590.362 491.766, 581.585 492.195, 571.594 492.574, 562.735 493.272, 552.759 493.893, 543.874 494.858, 533.921 495.717, 525.067 496.097, 522.007 497.103, 513.914 497.215, 513.015 498.040, 506.377 498.547, 503.040 500.050, 493.154 500.854, 487.867 502.627, 478.025 504.145, 469.599 506.192, 459.811 507.902, 451.634 510.225, 441.908 512.107, 434.030 514.712, 424.375 516.745, 416.842 519.636, 407.269 521.794, 400.123 524.978, 390.644 526.671, 385.605 527.235, 383.924 529.701, 377.290 533.046, 368.291 535.668, 361.891 537.368, 357.743 539.202, 353.266 543.133, 344.541 545.679, 338.890 548.489, 333.210 550.078, 329.996 552.452, 325.198 555.328, 319.900 556.904, 316.996 559.451, 312.304 559.495, 312.221 563.183, 306.030 563.738, 305.100 566.783, 299.988 572.259, 291.620 574.288, 288.520 580.134, 280.407 581.984, 277.839 588.210, 270.014 589.844, 267.960 591.616, 265.952 597.843, 258.895 604.858, 251.768 605.955, 250.653 613.372, 243.946 614.155, 243.238 621.975, 237.005 622.419, 236.652 630.636, 230.953 630.722, 230.894 639.042, 225.959 647.357, 221.840 655.647, 218.529 663.891, 216.012 672.071, 214.277 679.041, 213.443 680.169, 213.308 " fill="none" stroke="rgb(0, 0, 0)" stroke-linecap="butt" stroke-linejoin="round" stroke-opacity="1.0" stroke-width="3.0" />
            <path d=" M 677.950, 213.473 669.841, 214.443 661.651, 216.177 653.396, 218.693 645.096, 222.002 636.770, 226.118 628.440, 231.049 620.218, 236.740 620.127, 236.803 612.301, 243.028 611.855, 243.383 604.431, 250.083 603.646, 250.791 596.624, 257.911 595.525, 259.026 590.233, 265.011 587.518, 268.082 581.284, 275.901 579.650, 277.951 573.797, 286.059 571.947, 288.622 566.463, 296.984 564.435, 300.077 563.203, 302.141 562.637, 303.090 559.125, 308.974 557.141, 312.298 556.534, 313.414 554.968, 316.295 550.190, 325.080 550.092, 325.261 549.678, 326.096 548.086, 329.310 543.645, 338.270 543.313, 338.938 539.199, 348.053 536.907, 353.132 536.831, 353.299 533.034, 362.550 530.671, 368.306 527.161, 377.733 524.857, 383.922 524.706, 384.373 521.517, 393.851 519.413, 400.103 516.517, 409.675 515.214, 413.984 514.361, 416.803 511.752, 426.457 509.721, 433.971 509.603, 434.464 507.276, 444.190 505.514, 451.555 503.465, 461.343 501.757, 469.500 499.981, 479.341 498.464, 487.746 496.960, 497.633 495.651, 506.235 494.865, 512.557 494.701, 513.874 493.744, 521.568 493.329, 524.903 492.363, 534.857 491.505, 543.689 490.808, 553.665 490.189, 562.529 489.761, 572.519 489.735, 573.125 489.383, 581.357 489.226, 591.356 489.089, 600.111 489.207, 610.111 489.308, 618.728 489.703, 628.720 490.036, 637.144 490.713, 647.121 491.268, 655.300 492.232, 665.253 492.996, 673.136 494.254, 683.057 495.210, 690.596 496.770, 700.474 497.899, 707.626 499.768, 717.449 500.833, 723.047 501.048, 724.174 503.237, 733.932 504.641, 740.194 507.161, 749.871 508.662, 755.640 511.524, 765.221 513.092, 770.471 514.426, 774.399 515.973, 778.952 516.438, 780.322 517.909, 784.652 521.495, 793.986 522.669, 797.040 523.094, 798.147 523.936, 800.094 527.906, 809.272 528.623, 810.929 528.729, 811.148 529.521, 812.778 530.839, 815.490 533.685, 821.348 534.474, 822.972 539.260, 831.752 540.623, 834.254 545.841, 842.785 547.047, 844.757 552.711, 852.998 553.721, 854.467 559.845, 862.373 560.621, 863.375 567.214, 870.893 567.722, 871.473 574.791, 878.546 575.002, 878.757 582.436, 885.227 590.002, 890.885 597.676, 895.737 605.438, 899.789 613.265, 903.051 621.138, 905.536 " fill="none" stroke="rgb(0, 0, 0)" stroke-linecap="butt" stroke-linejoin="round" stroke-opacity="1.0" stroke-width="3.0" />
            <path d=" M 790.426, 550.371 780.449, 549.683 779.717, 549.632 775.106, 549.159 765.158, 548.139 755.222, 547.120 754.509, 547.046 753.795, 546.973 753.080, 546.900 752.364, 546.827 751.524, 546.612 750.717, 546.142 749.958, 545.426 749.263, 544.478 748.648, 543.315 748.123, 541.959 747.697, 540.435 747.381, 538.773 747.179, 537.004 747.096, 535.163 747.134, 533.285 747.292, 531.407 747.567, 529.565 747.953, 527.794 748.443, 526.129 749.028, 524.602 749.695, 523.243 750.285, 522.310 750.432, 522.076 751.224, 521.124 751.907, 520.421 752.591, 519.718 753.274, 519.016 753.955, 518.316 754.298, 517.965 755.454, 516.779 756.087, 516.129 763.068, 508.969 770.049, 501.809 777.031, 494.649 777.479, 494.189 " fill="none" stroke="rgb(0, 0, 0)" stroke-linecap="butt" stroke-linejoin="round" stroke-opacity="1.0" stroke-width="3.0" />
            <path d=" M 698.396, 304.762 690.191, 304.474 681.868, 304.986 681.413, 305.057 677.605, 305.649 673.449, 306.295 664.958, 308.418 662.122, 309.402 656.421, 311.382 647.868, 315.208 639.328, 319.906 630.966, 325.390 630.833, 325.478 622.886, 331.548 622.412, 331.911 614.883, 338.492 614.091, 339.185 606.979, 346.214 605.900, 347.281 599.211, 354.715 597.875, 356.200 591.612, 363.996 590.053, 365.936 584.213, 374.054 582.473, 376.472 577.047, 384.872 575.169, 387.780 574.396, 389.111 574.069, 389.673 571.110, 394.765 568.171, 399.821 565.876, 404.202 563.403, 408.923 562.580, 410.494 561.733, 412.111 561.505, 412.547 558.380, 419.161 556.709, 422.698 556.523, 423.092 555.193, 425.908 554.799, 426.836 550.891, 436.041 549.268, 439.864 547.891, 443.498 546.141, 448.116 543.768, 454.376 543.112, 456.331 539.929, 465.811 538.727, 469.392 535.901, 478.985 534.892, 482.411 534.877, 482.460 534.347, 484.260 534.344, 484.271 534.171, 484.857 533.936, 485.778 533.933, 485.791 533.359, 488.036 533.333, 488.139 532.207, 492.546 531.215, 496.426 530.122, 500.704 529.381, 504.098 527.247, 513.868 526.593, 516.865 526.502, 517.363 525.565, 522.475 525.552, 522.549 525.369, 523.549 523.588, 533.270 522.778, 538.709 522.653, 539.549 521.180, 549.440 521.118, 549.852 519.980, 559.787 519.206, 566.546 518.408, 576.514 517.867, 583.282 517.416, 593.272 517.112, 599.989 517.010, 609.989 516.942, 616.595 517.054, 621.107 517.302, 631.103 517.350, 633.030 517.772, 640.074 518.320, 649.231 519.268, 659.186 519.841, 665.200 521.132, 675.117 521.680, 679.329 521.871, 680.792 523.514, 690.656 524.395, 695.945 526.403, 705.742 527.399, 710.601 527.724, 711.927 527.922, 712.732 529.176, 717.834 530.098, 721.584 530.340, 722.569 530.864, 724.704 533.644, 734.309 534.771, 738.204 535.199, 739.476 536.480, 743.282 537.434, 746.117 538.691, 749.849 539.097, 751.057 541.289, 756.703 542.403, 759.572 542.607, 760.095 543.820, 763.219 545.049, 765.980 548.913, 774.655 553.452, 783.565 554.352, 785.332 559.381, 793.975 560.107, 795.224 565.649, 803.548 566.154, 804.307 572.225, 812.254 572.462, 812.564 579.003, 819.983 585.750, 826.554 592.674, 832.271 599.747, 837.134 606.942, 841.148 609.953, 842.456 614.232, 844.315 621.592, 846.646 628.996, 848.154 636.420, 848.854 643.842, 848.760 651.240, 847.892 658.592, 846.273 665.879, 843.923 673.082, 840.864 680.184, 837.122 687.168, 832.723 694.019, 827.692 700.723, 822.054 707.266, 815.838 713.636, 809.071 719.822, 801.777 725.813, 793.985 731.600, 785.722 736.991, 777.300 737.173, 777.015 742.232, 768.389 742.525, 767.889 747.264, 759.084 747.647, 758.371 752.080, 749.407 752.534, 748.488 756.670, 739.383 757.179, 738.263 761.029, 729.034 761.576, 727.723 765.149, 718.383 765.720, 716.892 769.025, 707.454 769.607, 705.794 772.651, 696.269 773.231, 694.454 776.021, 684.851 776.589, 682.895 779.131, 673.223 779.679, 671.140 781.977, 661.408 782.495, 659.213 784.554, 649.427 785.036, 647.135 786.859, 637.303 787.299, 634.930 788.889, 625.057 789.281, 622.620 790.640, 612.713 790.980, 610.227 792.109, 600.291 792.395, 597.772 793.294, 587.812 793.523, 585.278 794.193, 575.300 794.363, 572.766 794.802, 562.776 794.913, 560.258 795.121, 550.260 795.173, 547.776 795.151, 539.248 " fill="none" stroke="rgb(0, 0, 0)" stroke-linecap="butt" stroke-linejoin="round" stroke-opacity="1.0" stroke-width="3.0" />
            <path d=" M 777.479, 494.189 787.430, 495.186 788.280, 495.271 " fill="none" stroke="rgb(0, 0, 0)" stroke-linecap="butt" stroke-linejoin="round" stroke-opacity="1.0" stroke-width="3.0" />
            <path d=" M 823.780, 510.778 823.034, 500.835 822.328, 494.009 821.779, 488.692 820.460, 478.779 820.186, 476.713 818.569, 466.844 818.255, 464.922 816.334, 455.109 815.988, 453.344 813.758, 443.596 813.393, 441.997 810.850, 432.326 810.475, 430.900 807.605, 421.321 807.233, 420.079 804.018, 410.610 803.665, 409.568 800.086, 400.230 799.767, 399.399 795.808, 390.216 795.543, 389.602 791.189, 380.600 790.998, 380.203 786.239, 371.408 786.139, 371.224 780.978, 362.680 775.523, 354.593 769.775, 347.001 763.739, 339.943 757.423, 333.452 750.838, 327.556 743.996, 322.278 736.913, 317.631 729.604, 313.628 722.083, 310.304 720.627, 309.812 714.362, 307.698 706.460, 305.842 698.396, 304.762 " fill="none" stroke="rgb(0, 0, 0)" stroke-linecap="butt" stroke-linejoin="round" stroke-opacity="1.0" stroke-width="3.0" />
            <path d=" M 662.122, 309.402 665.551, 311.249 671.578, 315.245 677.423, 319.866 683.077, 325.099 688.526, 330.930 693.761, 337.336 698.773, 344.289 703.555, 351.757 708.106, 359.701 712.421, 368.084 716.497, 376.885 720.323, 386.089 723.814, 395.460 723.895, 395.676 727.055, 405.163 727.207, 405.620 730.054, 415.206 730.258, 415.893 732.810, 425.562 733.049, 426.465 735.326, 436.202 735.583, 437.302 737.597, 447.097 737.861, 448.380 739.617, 458.225 739.876, 459.682 741.379, 469.568 741.626, 471.189 742.881, 481.110 743.106, 482.881 744.122, 492.829 744.317, 494.733 744.794, 500.786 744.735, 502.025 744.619, 503.258 744.445, 504.472 744.215, 505.656 743.931, 506.796 743.597, 507.880 743.216, 508.898 742.791, 509.838 742.328, 510.691 741.830, 511.447 741.304, 512.100 740.777, 512.619 740.754, 512.642 740.187, 513.067 739.608, 513.372 730.413, 517.303 728.348, 518.186 " fill="none" stroke="rgb(0, 0, 0)" stroke-linecap="butt" stroke-linejoin="round" stroke-opacity="1.0" stroke-width="3.0" />
            <path d=" M 800.332, 535.479 800.576, 535.495 801.611, 535.561 803.238, 535.665 812.265, 531.362 813.560, 530.744 815.498, 529.820 823.232, 526.133 824.549, 525.505 825.171, 525.254 830.681, 523.028 830.214, 513.039 830.075, 510.054 829.336, 500.082 829.123, 497.196 828.107, 487.248 827.823, 484.477 826.523, 474.562 826.177, 471.922 824.585, 462.049 824.182, 459.555 822.291, 449.735 821.841, 447.400 819.640, 437.645 819.153, 435.484 816.633, 425.807 816.119, 423.834 815.740, 422.562 812.889, 412.977 812.740, 412.474 809.850, 403.898 809.018, 401.431 805.469, 392.082 804.957, 390.733 801.038, 381.534 800.559, 380.409 796.254, 371.383 795.826, 370.486 791.123, 361.661 790.766, 360.991 786.995, 354.663 785.381, 351.955 781.733, 346.487 779.678, 343.407 773.664, 335.375 767.347, 327.889 760.736, 320.981 753.841, 314.679 746.673, 309.011 739.244, 304.008 731.569, 299.699 723.663, 296.112 715.542, 293.272 707.225, 291.206 698.731, 289.941 690.082, 289.498 680.089, 289.120 670.096, 288.741 667.508, 288.643 " fill="none" stroke="rgb(0, 0, 0)" stroke-linecap="butt" stroke-linejoin="round" stroke-opacity="1.0" stroke-width="3.0" />
            <path d=" M 690.082, 289.498 681.300, 289.897 680.606, 289.995 672.410, 291.159 665.272, 292.864 663.438, 293.302 654.411, 296.336 645.359, 300.274 641.687, 302.243 641.264, 302.470 636.312, 305.125 627.889, 310.514 627.302, 310.890 619.291, 316.875 618.361, 317.569 610.775, 324.084 609.524, 325.158 602.369, 332.144 600.826, 333.650 594.100, 341.051 592.301, 343.030 586.000, 350.795 583.986, 353.277 578.104, 361.364 575.918, 364.370 572.572, 369.489 572.193, 370.069 568.132, 376.281 564.804, 381.938 562.303, 386.187 560.663, 388.975 560.634, 389.029 555.954, 397.866 555.427, 398.861 553.728, 402.069 553.547, 402.411 549.249, 411.440 546.819, 416.548 542.895, 425.746 542.196, 427.384 540.510, 431.335 536.952, 440.680 534.653, 446.719 531.453, 456.193 529.275, 462.641 526.429, 472.227 524.407, 479.039 521.909, 488.722 520.070, 495.848 517.917, 505.614 516.288, 512.998 514.553, 522.415 513.079, 530.417 511.609, 540.308 510.461, 548.032 509.331, 557.968 508.444, 565.766 507.655, 575.735 507.038, 583.544 506.593, 593.534 506.249, 601.289 506.152, 611.288 506.079, 618.924 506.335, 628.921 506.525, 636.375 507.140, 646.356 507.584, 653.569 " fill="none" stroke="rgb(0, 0, 0)" stroke-linecap="butt" stroke-linejoin="round" stroke-opacity="1.0" stroke-width="3.0" />
            <path d=" M 756.087, 516.129 755.544, 507.556 755.437, 504.816 755.404, 505.045 755.175, 506.234 754.892, 507.380 754.560, 508.469 754.181, 509.492 753.759, 510.437 753.298, 511.294 752.804, 512.055 752.281, 512.710 751.736, 513.255 751.172, 513.683 750.598, 513.990 741.424, 517.969 733.564, 521.379 732.948, 520.356 732.255, 519.521 731.498, 518.889 730.688, 518.470 729.838, 518.273 728.348, 518.186 718.679, 517.620 717.799, 517.647 716.909, 517.898 716.023, 518.370 715.158, 519.055 714.362, 519.944 713.650, 521.023 713.002, 522.272 712.429, 523.670 711.941, 525.192 711.547, 526.814 711.253, 528.506 711.065, 530.241 710.986, 531.987 711.016, 533.716 720.995, 534.372 722.216, 534.453 727.035, 532.368 727.031, 531.816 727.071, 531.261 727.141, 530.793 727.153, 530.718 727.275, 530.200 727.435, 529.723 727.627, 529.300 727.846, 528.942 728.087, 528.658 728.343, 528.458 728.606, 528.345 728.869, 528.323 " fill="none" stroke="rgb(0, 0, 0)" stroke-linecap="butt" stroke-linejoin="round" stroke-opacity="1.0" stroke-width="3.0" />
            <path d=" M 800.225, 522.395 800.288, 522.365 801.372, 521.850 803.627, 520.780 807.440, 518.970 807.952, 518.679 808.455, 518.283 808.945, 517.786 809.418, 517.193 809.870, 516.510 810.298, 515.743 810.699, 514.900 811.069, 513.986 811.407, 513.009 811.708, 511.978 811.972, 510.898 812.195, 509.780 812.376, 508.632 812.513, 507.461 822.106, 510.285 822.993, 510.546 823.780, 510.778 823.643, 511.523 823.380, 512.608 823.081, 513.645 823.071, 513.674 822.746, 514.626 822.378, 515.545 821.981, 516.393 821.556, 517.163 821.108, 517.850 820.639, 518.446 820.153, 518.946 819.655, 519.344 819.147, 519.637 813.344, 522.439 809.622, 524.235 806.503, 525.741 805.927, 524.689 805.304, 523.868 805.277, 523.832 804.563, 523.184 803.797, 522.756 802.991, 522.557 801.388, 522.463 800.289, 522.399 800.225, 522.395 796.559, 522.180 791.119, 521.862 790.281, 521.894 790.115, 521.945 790.095, 521.951 789.430, 522.157 788.582, 522.648 787.751, 523.358 786.988, 524.278 786.307, 525.395 785.686, 526.686 785.135, 528.130 784.664, 529.702 784.280, 531.376 783.991, 533.123 783.802, 534.913 783.716, 536.714 783.734, 538.497 790.352, 538.932 790.449, 538.939 795.151, 539.248 795.654, 539.281 800.221, 537.104 800.221, 536.535 800.262, 535.963 800.332, 535.479 800.343, 535.401 800.462, 534.867 800.574, 534.510 800.616, 534.375 800.800, 533.937 801.010, 533.567 801.239, 533.273 801.482, 533.065 801.606, 533.006 801.731, 532.947 801.980, 532.923 " fill="none" stroke="rgb(0, 0, 0)" stroke-linecap="butt" stroke-linejoin="round" stroke-opacity="1.0" stroke-width="3.0" />
            <path d=" M 775.106, 549.159 774.923, 558.183 774.479, 568.173 774.373, 570.565 773.691, 580.541 773.526, 582.949 772.607, 592.907 772.384, 595.315 771.228, 605.247 770.949, 607.639 769.555, 617.542 769.223, 619.901 767.590, 629.767 767.208, 632.079 765.335, 641.902 764.906, 644.150 762.791, 653.924 762.321, 656.093 759.960, 665.810 759.456, 667.884 756.844, 677.537 756.313, 679.503 753.447, 689.083 752.897, 690.925 749.771, 700.424 749.211, 702.128 745.819, 711.536 745.259, 713.089 741.595, 722.393 741.047, 723.783 737.102, 732.972 736.580, 734.188 732.344, 743.246 731.862, 744.277 727.326, 753.189 726.900, 754.027 722.054, 762.774 721.701, 763.412 716.534, 771.974 716.271, 772.409 710.770, 780.759 710.619, 780.988 704.753, 789.127 698.683, 796.798 692.417, 803.975 685.967, 810.630 679.345, 816.739 672.563, 822.275 665.635, 827.211 658.574, 831.520 651.398, 835.179 644.121, 838.164 636.763, 840.448 629.341, 842.010 621.876, 842.830 614.388, 842.886 609.953, 842.456 " fill="none" stroke="rgb(0, 0, 0)" stroke-linecap="butt" stroke-linejoin="round" stroke-opacity="1.0" stroke-width="3.0" />
            <path d=" M 790.449, 538.939 790.429, 548.939 790.426, 550.371 780.479, 549.344 779.717, 549.266 775.113, 548.791 766.699, 547.923 765.993, 547.850 765.285, 547.777 764.576, 547.704 763.867, 547.632 763.035, 547.416 762.235, 546.945 761.483, 546.226 760.796, 545.274 760.187, 544.106 759.668, 542.744 759.248, 541.213 758.936, 539.543 758.737, 537.766 758.705, 537.018 758.657, 535.916 758.697, 534.029 758.855, 532.141 759.129, 530.290 759.141, 530.238 759.514, 528.510 760.002, 526.837 760.582, 525.302 761.245, 523.935 761.977, 522.762 762.763, 521.805 763.441, 521.097 764.119, 520.391 764.142, 520.367 764.797, 519.685 765.473, 518.981 765.813, 518.628 772.745, 511.421 778.439, 505.502 785.372, 498.295 788.280, 495.271 789.103, 505.237 789.198, 506.381 789.526, 510.873 790.039, 520.859 790.095, 521.951 " fill="none" stroke="rgb(0, 0, 0)" stroke-linecap="butt" stroke-linejoin="round" stroke-opacity="1.0" stroke-width="3.0" />
            <path d=" M 764.579, 537.403 764.271, 537.255 763.991, 536.964 763.751, 536.544 763.563, 536.014 763.434, 535.395 763.371, 534.716 763.375, 534.006 763.447, 533.296 763.584, 532.617 763.779, 531.999 764.024, 531.470 764.308, 531.052 764.619, 530.764 764.943, 530.620 765.265, 530.622 " fill="none" stroke="rgb(0, 0, 0)" stroke-linecap="butt" stroke-linejoin="round" stroke-opacity="1.0" stroke-width="3.0" />
            <path d=" M 765.265, 530.622 765.573, 530.772 765.852, 531.064 766.090, 531.484 766.277, 532.014 766.405, 532.631 766.468, 533.308 766.464, 534.016 766.392, 534.723 766.256, 535.400 766.062, 536.016 765.818, 536.545 765.535, 536.963 765.225, 537.253 764.902, 537.402 764.579, 537.403 " fill="none" stroke="rgb(0, 0, 0)" stroke-linecap="butt" stroke-linejoin="round" stroke-opacity="1.0" stroke-width="3.0" />
            <path d=" M 800.576, 535.495 800.596, 545.495 800.598, 546.464 800.386, 556.461 800.321, 559.529 799.878, 569.519 799.741, 572.620 799.069, 582.598 798.859, 585.716 797.959, 595.675 797.677, 598.794 796.549, 608.730 796.196, 611.832 794.839, 621.739 794.418, 624.808 792.830, 634.681 792.345, 637.700 790.524, 647.533 789.978, 650.485 787.923, 660.272 787.320, 663.142 785.027, 672.875 784.374, 675.646 781.838, 685.319 781.142, 687.975 778.359, 697.580 777.627, 700.105 774.591, 709.633 773.833, 712.012 770.538, 721.453 769.764, 723.671 766.202, 733.015 765.423, 735.057 761.586, 744.292 760.816, 746.147 756.694, 755.258 755.946, 756.912 751.531, 765.884 750.821, 767.326 746.101, 776.142 745.446, 777.365 740.409, 786.004 739.828, 787.000 734.461, 795.437 733.974, 796.202 728.264, 804.412 727.893, 804.945 721.827, 812.895 721.594, 813.201 715.158, 820.854 715.087, 820.939 708.381, 828.132 701.490, 834.751 694.425, 840.767 687.200, 846.150 679.831, 850.873 672.333, 854.908 664.723, 858.227 657.019, 860.802 649.242, 862.610 641.411, 863.626 633.550, 863.826 625.680, 863.190 617.827, 861.698 610.015, 859.336 602.272, 856.088 594.625, 851.942 587.102, 846.893 579.732, 840.937 572.545, 834.071 565.867, 826.628 565.573, 826.300 559.439, 818.402 558.844, 817.635 553.243, 809.350 552.389, 808.086 547.305, 799.475 546.240, 797.672 541.650, 788.787 541.022, 787.570 540.425, 786.416 538.408, 781.948 537.066, 778.978 534.975, 774.348 531.892, 766.516 530.584, 763.193 529.917, 761.498 526.689, 752.033 525.280, 747.906 524.968, 746.839 522.785, 739.398 521.089, 733.616 518.671, 723.913 517.366, 718.678 515.331, 708.887 514.137, 703.143 512.470, 693.283 511.419, 687.070 510.107, 677.157 509.904, 675.622 509.230, 670.524 508.264, 660.571 507.584, 653.569 504.846, 643.951 502.331, 635.117 " fill="none" stroke="rgb(0, 0, 0)" stroke-linecap="butt" stroke-linejoin="round" stroke-opacity="1.0" stroke-width="3.0" />
            <path d=" M 667.508, 288.643 659.555, 289.010 658.339, 289.195 651.505, 290.236 643.380, 292.340 635.206, 295.334 627.009, 299.230 618.816, 304.040 610.657, 309.767 602.927, 316.111 602.561, 316.411 595.292, 323.277 594.560, 323.968 587.749, 331.290 586.685, 332.433 580.324, 340.149 578.969, 341.792 573.046, 349.848 571.445, 352.024 570.767, 353.055 570.343, 353.698 564.844, 362.050 564.146, 363.110 563.713, 363.843 561.203, 368.090 559.559, 370.872 557.106, 375.021 554.322, 380.260 552.640, 383.427 550.357, 387.722 546.047, 396.745 543.932, 401.173 541.222, 407.494 537.862, 415.332 534.281, 424.668 532.179, 430.148 528.944, 439.610 526.909, 445.566 524.014, 455.137 522.081, 461.527 519.518, 471.193 517.722, 477.969 515.484, 487.715 513.852, 494.823 511.934, 504.637 510.492, 512.019 508.892, 521.890 508.818, 522.345 507.661, 529.484 506.375, 539.401 505.372, 547.143 504.401, 557.096 503.638, 564.919 502.981, 574.897 502.465, 582.734 502.125, 592.728 501.861, 600.510 501.841, 610.510 501.825, 618.171 502.124, 628.167 502.331, 635.117 501.265, 645.060 500.276, 654.286 " fill="none" stroke="rgb(0, 0, 0)" stroke-linecap="butt" stroke-linejoin="round" stroke-opacity="1.0" stroke-width="3.0" />
            <path d=" M 501.994, 671.784 503.319, 681.696 504.276, 688.856 505.924, 698.516 507.104, 705.432 509.156, 715.219 510.461, 721.446 512.898, 731.144 514.328, 736.837 517.163, 746.426 518.679, 751.550 519.535, 754.040 521.762, 760.515 523.489, 765.534 527.178, 774.829 527.741, 776.248 528.732, 778.744 529.044, 779.428 533.190, 788.528 534.380, 791.140 534.482, 791.335 535.865, 793.989 538.631, 799.294 540.400, 802.688 545.522, 811.277 546.764, 813.360 552.405, 821.618 553.439, 823.132 559.616, 830.997 560.394, 831.987 567.119, 839.388 567.597, 839.914 574.875, 846.771 575.015, 846.903 582.618, 852.951 590.374, 858.062 598.253, 862.240 606.227, 865.494 614.266, 867.836 622.343, 869.284 630.432, 869.854 638.510, 869.567 646.550, 868.445 654.533, 866.515 662.436, 863.801 670.239, 860.328 677.925, 856.128 685.476, 851.228 692.877, 845.657 700.112, 839.443 707.167, 832.618 714.031, 825.212 720.448, 817.543 720.691, 817.252 726.741, 809.290 727.136, 808.770 732.833, 800.551 733.358, 799.794 738.715, 791.350 739.348, 790.353 744.377, 781.710 745.096, 780.475 749.810, 771.656 750.595, 770.189 755.007, 761.215 755.840, 759.522 759.959, 750.410 760.823, 748.500 764.660, 739.265 765.538, 737.150 769.102, 727.807 769.982, 725.499 773.281, 716.059 774.150, 713.573 777.189, 704.046 778.036, 701.394 780.823, 691.791 781.637, 688.989 784.178, 679.317 784.950, 676.382 787.249, 666.650 787.971, 663.596 790.033, 653.811 790.697, 650.655 792.524, 640.823 793.127, 637.581 794.722, 627.709 795.257, 624.398 796.621, 614.492 797.085, 611.129 798.220, 601.194 798.608, 597.796 799.515, 587.837 799.826, 584.420 800.503, 574.443 800.736, 571.025 801.183, 561.035 801.336, 557.633 801.552, 547.636 801.625, 544.267 801.611, 535.561 " fill="none" stroke="rgb(0, 0, 0)" stroke-linecap="butt" stroke-linejoin="round" stroke-opacity="1.0" stroke-width="3.0" />
            <path d=" M 500.276, 654.286 501.254, 664.238 501.994, 671.784 " fill="none" stroke="rgb(0, 0, 0)" stroke-linecap="butt" stroke-linejoin="round" stroke-opacity="1.0" stroke-width="3.0" />
            <path d=" M 815.740, 422.562 814.008, 413.725 811.850, 403.960 811.591, 402.787 809.189, 393.080 808.935, 392.054 806.282, 382.412 806.042, 381.540 803.130, 371.973 802.913, 371.261 799.733, 361.780 799.550, 361.234 796.093, 351.850 795.954, 351.474 792.208, 342.202 792.126, 342.001 788.068, 332.832 783.780, 323.990 779.264, 315.496 774.522, 307.369 769.560, 299.628 764.380, 292.290 758.987, 285.373 753.387, 278.899 747.584, 272.887 741.584, 267.361 735.391, 262.344 729.014, 257.862 722.461, 253.932 715.740, 250.573 708.862, 247.801 701.836, 245.635 694.674, 244.094 687.388, 243.196 679.991, 242.963 672.496, 243.414 672.467, 243.418 664.918, 244.568 657.275, 246.435 649.581, 249.025 641.855, 252.345 634.115, 256.403 626.379, 261.207 618.668, 266.762 611.003, 273.073 608.498, 275.406 608.425, 275.474 608.424, 275.474 603.408, 280.144 596.489, 287.363 595.906, 287.972 589.379, 295.548 588.517, 296.548 586.679, 298.909 581.265, 305.859 577.421, 311.296 574.172, 315.891 568.759, 324.299 567.260, 326.627 567.245, 326.654 566.755, 327.488 561.653, 336.179 560.555, 338.049 559.129, 340.710 557.532, 343.691 554.080, 350.135 552.324, 353.728 550.697, 357.056 547.859, 362.864 543.792, 371.999 541.918, 376.207 540.217, 380.408 539.513, 382.145 536.280, 390.130 532.830, 399.516 530.963, 404.596 527.808, 414.085 525.987, 419.563 523.120, 429.143 521.370, 434.988 518.785, 444.648 517.131, 450.827 514.823, 460.557 513.287, 467.032 511.253, 476.823 509.855, 483.555 508.094, 493.399 506.851, 500.346 505.361, 510.234 504.288, 517.349 503.680, 522.282 502.456, 532.207 502.172, 534.509 501.213, 544.463 500.509, 551.770 499.815, 561.746 499.306, 569.074 498.880, 579.065 498.569, 586.366 498.412, 596.365 498.300, 603.589 498.415, 613.589 498.496, 620.687 498.886, 630.679 499.157, 637.604 499.826, 647.581 500.276, 654.286 501.232, 664.240 501.850, 670.681 501.994, 671.784 503.238, 681.707 503.868, 686.737 505.413, 696.617 505.805, 699.122 506.319, 702.408 508.172, 712.235 509.192, 717.648 511.362, 727.409 512.474, 732.411 514.972, 742.094 516.150, 746.659 519.004, 756.312 520.200, 760.356 521.127, 763.112 524.314, 772.590 524.609, 773.468 526.965, 779.671 528.207, 782.941 529.356, 785.965 533.291, 795.159 533.532, 795.722 534.427, 797.814 534.836, 798.664 537.560, 804.331 539.801, 808.991 544.545, 817.794 545.453, 819.480 550.623, 828.040 551.363, 829.265 556.972, 837.544 557.507, 838.334 563.570, 846.287 563.865, 846.675 570.416, 854.281 577.139, 861.142 584.015, 867.254 591.021, 872.616 598.137, 877.236 605.341, 881.122 612.614, 884.283 619.936, 886.730 625.309, 888.003 627.290, 888.472 634.659, 889.519 642.026, 889.883 649.377, 889.575 656.695, 888.613 663.966, 887.018 671.175, 884.811 678.310, 882.012 685.359, 878.640 692.311, 874.713 699.155, 870.248 705.880, 865.263 712.478, 859.774 718.940, 853.806 725.257, 847.380 731.424, 840.518 737.432, 833.242 743.276, 825.570 748.950, 817.520 754.449, 809.109 759.639, 800.562 759.765, 800.354 764.683, 791.647 764.895, 791.271 769.551, 782.421 769.834, 781.882 774.238, 772.904 774.581, 772.206 778.741, 763.113 779.131, 762.262 783.055, 753.065 783.481, 752.067 787.177, 742.775 787.629, 741.637 791.101, 732.259 791.572, 730.987 794.825, 721.531 795.306, 720.132 798.343, 710.605 798.827, 709.087 801.654, 699.495 802.134, 697.866 804.756, 688.216 805.226, 686.487 807.648, 676.785 808.102, 674.966 810.327, 665.217 810.760, 663.318 812.791, 653.526 813.199, 651.556 815.038, 641.726 815.418, 639.694 817.065, 629.831 817.414, 627.747 818.871, 617.853 819.184, 615.727 820.451, 605.807 820.727, 603.648 821.807, 593.706 822.044, 591.525 822.937, 581.565 823.134, 579.372 823.841, 569.397 823.996, 567.201 824.515, 557.215 824.628, 555.027 824.958, 545.033 825.030, 542.863 825.169, 532.864 825.199, 530.723 825.171, 525.254 " fill="none" stroke="rgb(0, 0, 0)" stroke-linecap="butt" stroke-linejoin="round" stroke-opacity="1.0" stroke-width="3.0" />
            <path d=" M 670.264, 243.551 662.677, 244.704 655.023, 246.571 647.320, 249.159 639.584, 252.477 631.834, 256.532 624.089, 261.332 616.369, 266.882 608.696, 273.187 606.985, 274.778 606.974, 274.788 606.973, 274.788 601.093, 280.251 594.167, 287.464 593.583, 288.072 587.048, 295.642 586.187, 296.640 580.900, 303.414 578.927, 305.942 573.146, 314.101 571.827, 315.963 570.621, 317.832 566.816, 323.732 566.308, 324.520 564.910, 326.688 561.350, 332.739 558.804, 337.067 558.198, 338.097 557.212, 339.935 552.482, 348.746 551.979, 349.684 551.718, 350.171 550.356, 352.951 545.958, 361.932 545.492, 362.885 541.418, 372.018 539.547, 376.213 539.141, 377.215 535.381, 386.481 533.904, 390.122 530.449, 399.506 529.084, 403.215 528.584, 404.571 525.424, 414.059 523.605, 419.521 520.734, 429.100 518.986, 434.928 516.397, 444.587 514.745, 450.749 512.434, 460.478 510.900, 466.936 508.863, 476.726 507.467, 483.440 505.703, 493.284 504.462, 500.211 502.970, 510.099 501.899, 517.195 501.275, 522.252 500.050, 532.177 499.783, 534.336 498.824, 544.289 498.121, 551.576 497.428, 561.552 496.920, 568.861 496.495, 578.852 496.185, 586.134 496.030, 596.132 495.918, 603.337 496.035, 613.337 496.118, 620.416 496.511, 630.408 496.782, 637.314 497.455, 647.291 497.906, 653.978 498.865, 663.932 499.483, 670.355 500.734, 680.276 501.506, 686.394 503.056, 696.273 503.962, 702.049 504.587, 705.350 506.445, 715.176 506.841, 717.272 509.017, 727.033 510.129, 732.021 512.633, 741.702 513.811, 746.255 516.654, 755.842 517.868, 759.938 518.038, 760.443 520.180, 766.798 522.283, 773.038 525.842, 782.384 526.132, 783.145 527.038, 785.524 527.394, 786.353 531.337, 795.543 532.117, 797.362 532.829, 798.839 534.159, 801.599 536.918, 807.326 537.498, 808.530 542.251, 817.329 543.159, 819.011 548.337, 827.566 549.077, 828.789 554.695, 837.062 555.230, 837.851 561.300, 845.798 561.597, 846.187 568.157, 853.787 574.889, 860.645 581.774, 866.754 588.791, 872.115 595.916, 876.734 603.130, 880.620 610.413, 883.782 617.745, 886.230 625.109, 887.974 " fill="none" stroke="rgb(0, 0, 0)" stroke-linecap="butt" stroke-linejoin="round" stroke-opacity="1.0" stroke-width="3.0" />
            <path d=" M 672.496, 243.414 670.264, 243.551 " fill="none" stroke="rgb(0, 0, 0)" stroke-linecap="butt" stroke-linejoin="round" stroke-opacity="1.0" stroke-width="3.0" />
            <path d=" M 625.109, 887.974 627.290, 888.472 " fill="none" stroke="rgb(0, 0, 0)" stroke-linecap="butt" stroke-linejoin="round" stroke-opacity="1.0" stroke-width="3.0" />
            <path d=" M 482.256, 656.605 483.234, 666.557 484.101, 675.375 485.376, 685.293 486.461, 693.742 488.040, 703.616 489.323, 711.648 491.214, 721.467 492.672, 729.039 494.886, 738.791 495.895, 743.239 496.491, 745.864 497.685, 750.401 500.232, 760.071 500.760, 762.076 503.333, 770.595 505.459, 777.632 508.266, 785.800 509.814, 790.305 510.566, 792.492 511.714, 795.448 512.391, 797.188 513.600, 800.300 516.057, 806.622 518.486, 812.171 519.727, 815.005 521.791, 819.719 521.910, 819.992 523.075, 822.361 525.673, 827.643 526.981, 830.302 527.353, 831.058 528.098, 832.574 530.004, 836.026 534.597, 844.347 539.865, 852.847 541.381, 855.293 547.098, 863.497 548.423, 865.398 554.603, 873.259 555.698, 874.652 562.351, 882.118 563.180, 883.048 570.310, 890.060 570.844, 890.585 578.449, 897.079 578.664, 897.263 586.616, 903.084 594.676, 908.056 602.821, 912.188 611.029, 915.491 619.277, 917.978 623.605, 919.027 631.852, 920.709 640.100, 921.607 648.330, 921.739 656.524, 921.126 664.667, 919.788 672.742, 917.747 680.736, 915.027 688.633, 911.648 696.422, 907.636 704.090, 903.014 711.627, 897.805 719.022, 892.032 726.266, 885.721 733.350, 878.894 740.267, 871.574 746.811, 864.012 747.009, 863.784 753.239, 855.961 753.569, 855.547 759.495, 847.491 759.941, 846.884 765.573, 838.621 766.120, 837.819 771.469, 829.369 772.101, 828.371 777.177, 819.754 777.879, 818.561 782.691, 809.795 783.450, 808.410 788.007, 799.509 788.811, 797.938 793.121, 788.915 793.957, 787.164 798.029, 778.031 798.887, 776.107 802.727, 766.873 803.596, 764.784 807.212, 755.460 808.083, 753.214 811.480, 743.809 812.345, 741.414 815.529, 731.934 816.380, 729.401 819.357, 719.854 820.187, 717.192 822.960, 707.584 823.763, 704.802 826.337, 695.139 827.107, 692.248 829.486, 682.535 830.218, 679.545 832.404, 669.787 833.094, 666.707 835.090, 656.909 835.733, 653.751 837.542, 643.916 838.135, 640.689 839.758, 630.822 840.298, 627.538 841.738, 617.642 842.222, 614.310 843.478, 604.389 843.905, 601.020 844.979, 591.078 845.346, 587.682 846.238, 577.722 846.544, 574.310 847.254, 564.335 847.498, 560.917 848.026, 550.931 848.207, 547.517 848.552, 537.523 848.670, 534.124 848.831, 524.126 848.886, 520.752 848.861, 510.752 848.853, 507.415 848.642, 497.417 848.572, 494.127 848.171, 484.135 848.041, 480.901 847.448, 470.919 847.260, 467.754 846.470, 457.785 846.226, 454.698 845.237, 444.747 844.940, 441.749 843.747, 431.821 843.400, 428.923 841.999, 419.022 841.605, 416.235 839.992, 406.366 839.556, 403.700 837.724, 393.870 837.251, 391.336 835.193, 381.550 834.690, 379.158 832.399, 369.424 831.872, 367.185 829.341, 357.510 828.798, 355.433 826.018, 345.827 825.467, 343.921 822.429, 334.394 821.879, 332.668 818.573, 323.230 818.034, 321.692 814.449, 312.356 813.934, 311.013 810.059, 301.794 809.578, 300.652 805.400, 291.567 804.969, 290.629 800.475, 281.696 800.108, 280.966 795.284, 272.206 794.997, 271.684 789.829, 263.123 789.638, 262.806 784.112, 254.472 784.034, 254.355 778.189, 246.354 772.106, 238.826 765.790, 231.796 759.248, 225.288 752.483, 219.328 745.505, 213.938 738.319, 209.146 730.935, 204.975 723.363, 201.450 715.612, 198.596 707.694, 196.436 699.623, 194.995 691.410, 194.294 683.073, 194.356 678.655, 194.720 670.185, 195.567 661.623, 197.213 652.986, 199.677 644.296, 202.975 635.573, 207.120 626.838, 212.124 618.541, 217.707 618.115, 217.994 610.215, 224.126 609.427, 224.737 601.932, 231.357 600.800, 232.356 593.710, 239.408 592.260, 240.851 585.572, 248.284 583.834, 250.216 578.820, 256.406 575.548, 260.445 569.639, 268.512 567.431, 271.526 561.896, 279.855 559.551, 283.384 559.511, 283.443 558.924, 284.415 556.782, 287.960 555.505, 290.073 554.130, 292.348 553.683, 293.088 552.557, 294.951 551.816, 296.177 549.464, 300.452 547.917, 303.266 547.160, 304.640 545.576, 307.520 544.375, 309.703 539.896, 318.644 539.324, 319.785 537.767, 322.894 537.217, 323.992 534.302, 330.385 530.368, 339.013 526.540, 348.251 525.095, 351.739 523.857, 354.727 520.341, 364.089 517.709, 371.094 514.497, 380.563 511.951, 388.067 509.035, 397.632 506.607, 405.598 503.980, 415.247 501.698, 423.633 499.356, 433.355 497.246, 442.115 496.941, 443.564 494.880, 453.350 494.854, 453.471 493.271, 460.986 491.486, 470.826 489.789, 480.184 488.278, 490.069 486.814, 499.642 485.850, 507.369 485.226, 512.360 485.212, 512.475 484.693, 516.634 484.360, 519.296 484.358, 519.319 484.329, 519.619 484.310, 519.817 484.290, 520.021 483.322, 529.974 482.437, 539.077 481.740, 549.053 481.051, 558.917 480.626, 568.908 480.207, 578.747 480.056, 588.746 479.908, 598.499 480.032, 608.498 480.152, 618.103 480.556, 628.095 480.937, 637.494 481.051, 639.145 481.739, 649.121 482.256, 656.605 " fill="none" stroke="rgb(0, 0, 0)" stroke-linecap="butt" stroke-linejoin="round" stroke-opacity="1.0" stroke-width="3.0" />
            <path d=" M 683.073, 194.356 674.625, 195.200 666.085, 196.846 657.471, 199.312 648.803, 202.614 640.100, 206.764 631.386, 211.775 623.100, 217.373 622.683, 217.654 614.795, 223.801 614.015, 224.409 606.532, 231.043 605.407, 232.041 598.330, 239.107 596.884, 240.551 590.210, 247.998 588.475, 249.934 582.195, 257.717 581.526, 258.547 580.205, 260.183 574.311, 268.261 572.103, 271.287 566.583, 279.625 564.197, 283.228 560.697, 289.043 560.084, 290.061 557.534, 294.297 556.516, 295.988 554.918, 298.903 553.375, 301.719 549.087, 309.543 548.034, 311.653 546.469, 314.789 542.003, 323.736 541.940, 323.863 537.803, 332.968 535.297, 338.485 535.101, 338.917 531.285, 348.160 528.599, 354.665 525.093, 364.031 522.459, 371.068 521.483, 373.956 518.280, 383.429 516.707, 388.080 513.800, 397.648 511.368, 405.651 508.750, 415.302 506.464, 423.727 504.129, 433.450 502.016, 442.252 499.960, 452.039 498.042, 461.167 496.262, 471.007 495.160, 477.096 494.561, 480.408 493.053, 490.294 491.586, 499.912 490.890, 505.499 490.647, 507.446 489.492, 516.717 489.131, 519.611 489.122, 519.704 489.016, 520.794 488.932, 521.658 487.965, 531.611 487.205, 539.438 486.819, 544.957 486.122, 554.933 485.815, 559.323 485.733, 561.262 485.306, 571.253 484.967, 579.199 484.813, 589.198 484.662, 598.995 484.783, 608.994 484.900, 618.644 485.299, 628.636 485.677, 638.078 486.359, 648.054 486.512, 650.282 486.987, 657.231 487.958, 667.184 488.822, 676.042 490.089, 685.961 490.610, 690.049 490.941, 692.635 491.172, 694.448 492.741, 704.324 494.023, 712.392 495.903, 722.213 497.359, 729.819 498.275, 733.877 500.477, 743.631 501.164, 746.678 503.698, 756.352 505.419, 762.922 508.297, 772.499 510.103, 778.508 511.848, 783.611 513.746, 789.159 515.194, 793.396 518.802, 802.722 519.047, 803.356 520.171, 806.262 520.670, 807.551 521.414, 809.259 525.408, 818.426 526.505, 820.943 527.125, 822.211 528.426, 824.866 531.358, 830.856 532.676, 833.546 537.492, 842.310 539.156, 845.338 544.408, 853.848 545.921, 856.300 551.622, 864.515 552.944, 866.419 559.109, 874.292 560.199, 875.684 566.837, 883.163 567.661, 884.090 574.778, 891.115 575.303, 891.634 582.897, 898.140 583.102, 898.316 591.033, 904.140 599.071, 909.113 607.194, 913.244 615.379, 916.544 623.605, 919.027 " fill="none" stroke="rgb(0, 0, 0)" stroke-linecap="butt" stroke-linejoin="round" stroke-opacity="1.0" stroke-width="3.0" />
            <path d=" M 729.838, 518.273 728.964, 518.301 728.079, 518.554 727.200, 519.029 726.339, 519.718 725.548, 520.612 725.367, 520.889 724.841, 521.697 724.197, 522.952 723.627, 524.357 723.142, 525.887 722.749, 527.516 722.677, 527.933 722.456, 529.217 722.319, 530.484 722.268, 530.960 722.187, 532.715 722.216, 534.453 " fill="none" stroke="rgb(0, 0, 0)" stroke-linecap="butt" stroke-linejoin="round" stroke-opacity="1.0" stroke-width="3.0" />
            <path d=" M 728.869, 528.323 729.126, 528.393 729.370, 528.552 729.593, 528.796 729.789, 529.119 729.954, 529.511 730.083, 529.962 730.172, 530.459 730.220, 530.990 " fill="none" stroke="rgb(0, 0, 0)" stroke-linecap="butt" stroke-linejoin="round" stroke-opacity="1.0" stroke-width="3.0" />
            <path d=" M 727.141, 530.793 730.220, 530.990 739.398, 527.019 748.576, 523.049 750.285, 522.310 " fill="none" stroke="rgb(0, 0, 0)" stroke-linecap="butt" stroke-linejoin="round" stroke-opacity="1.0" stroke-width="3.0" />
            <path d=" M 802.991, 522.557 802.159, 522.590 801.316, 522.855 800.474, 523.349 800.360, 523.447 799.649, 524.063 798.891, 524.989 798.719, 525.276 798.216, 526.111 797.600, 527.409 797.053, 528.861 796.584, 530.442 796.203, 532.124 796.132, 532.555 795.915, 533.880 795.777, 535.188 795.726, 535.679 795.638, 537.489 795.654, 539.281 " fill="none" stroke="rgb(0, 0, 0)" stroke-linecap="butt" stroke-linejoin="round" stroke-opacity="1.0" stroke-width="3.0" />
            <path d=" M 801.980, 532.923 802.222, 532.993 802.451, 533.156 802.660, 533.406 802.844, 533.738 802.997, 534.141 803.116, 534.606 803.197, 535.118 803.238, 535.665 " fill="none" stroke="rgb(0, 0, 0)" stroke-linecap="butt" stroke-linejoin="round" stroke-opacity="1.0" stroke-width="3.0" />
            <path d=" M 780.511, 482.038 780.661, 481.983 780.817, 481.952 780.979, 481.947 781.198, 481.979 781.412, 482.056 781.611, 482.175 781.788, 482.332 781.937, 482.520 782.053, 482.736 782.130, 482.972 782.164, 483.225 782.152, 483.461 782.098, 483.686 782.004, 483.893 781.873, 484.072 781.711, 484.218 781.521, 484.326 " fill="none" stroke="rgb(0, 0, 0)" stroke-linecap="butt" stroke-linejoin="round" stroke-opacity="1.0" stroke-width="3.0" />
            <path d=" M 780.511, 482.038 780.313, 482.148 780.135, 482.297 780.108, 482.329 779.958, 482.517 779.847, 482.732 779.781, 482.968 779.765, 483.220 779.798, 483.456 779.809, 483.499 779.888, 483.722 780.009, 483.925 780.169, 484.099 780.360, 484.239 780.393, 484.262 780.603, 484.356 780.643, 484.370 780.853, 484.413 780.883, 484.419 780.919, 484.423 780.962, 484.426 781.012, 484.427 781.063, 484.426 781.113, 484.424 781.162, 484.419 781.207, 484.414 781.248, 484.407 781.282, 484.399 781.470, 484.342 781.521, 484.326 " fill="none" stroke="rgb(0, 0, 0)" stroke-linecap="butt" stroke-linejoin="round" stroke-opacity="1.0" stroke-width="3.0" />
            <path d=" M 778.068, 479.984 778.316, 486.125 782.141, 486.293 783.992, 486.374 784.643, 485.949 783.895, 480.159 781.457, 480.003 778.500, 479.813 778.068, 479.984 " fill="none" stroke="rgb(0, 0, 0)" stroke-linecap="butt" stroke-linejoin="round" stroke-opacity="1.0" stroke-width="3.0" />
            <path d=" M 783.992, 486.374 783.749, 480.218 " fill="none" stroke="rgb(0, 0, 0)" stroke-linecap="butt" stroke-linejoin="round" stroke-opacity="1.0" stroke-width="3.0" />
            <path d=" M 783.895, 480.159 783.749, 480.218 778.068, 479.984 " fill="none" stroke="rgb(0, 0, 0)" stroke-linecap="butt" stroke-linejoin="round" stroke-opacity="1.0" stroke-width="3.0" />
            <path d=" M 740.777, 512.619 739.091, 512.582 729.091, 512.502 727.592, 512.490 717.592, 512.539 716.112, 512.546 706.113, 512.712 704.644, 512.736 694.647, 513.006 693.183, 513.045 683.190, 513.406 681.725, 513.459 671.735, 513.901 670.265, 513.965 660.278, 514.475 658.798, 514.550 648.814, 515.117 647.318, 515.201 637.337, 515.813 635.823, 515.906 625.843, 516.551 624.305, 516.651 614.328, 517.320 612.762, 517.425 602.786, 518.107 601.189, 518.217 591.212, 518.902 589.580, 519.014 579.603, 519.691 577.931, 519.805 578.129, 509.807 578.220, 505.225 578.303, 495.225 578.342, 490.635 578.310, 480.635 578.295, 476.055 578.148, 466.056 578.081, 461.504 577.816, 451.507 577.696, 447.000 577.313, 437.007 577.143, 432.562 576.640, 422.575 576.420, 418.211 575.794, 408.231 575.526, 403.966 574.774, 393.995 574.461, 389.849 574.396, 389.111 " fill="none" stroke="rgb(0, 0, 0)" stroke-linecap="butt" stroke-linejoin="round" stroke-opacity="1.0" stroke-width="3.0" />
            <path d=" M 578.820, 256.406 578.150, 255.876 570.744, 249.157 570.225, 248.687 563.261, 241.510 562.627, 240.857 556.106, 233.275 555.374, 232.425 549.293, 224.486 548.482, 223.427 546.757, 220.906 541.962, 213.898 541.334, 212.873 541.129, 212.538 538.031, 207.476 535.823, 203.869 531.212, 195.447 530.073, 193.368 " fill="none" stroke="rgb(0, 0, 0)" stroke-linecap="butt" stroke-linejoin="round" stroke-opacity="1.0" stroke-width="3.0" />
            <path d=" M 530.073, 193.368 527.498, 188.795 525.968, 186.077 521.715, 179.485 519.705, 176.808 517.320, 173.631 515.658, 171.769 512.790, 168.557 508.132, 164.305 503.355, 160.914 502.107, 160.278 499.173, 158.783 498.470, 158.424 493.486, 156.877 488.416, 156.311 483.274, 156.762 478.075, 158.265 472.832, 160.853 472.019, 161.425 470.964, 162.167 467.566, 164.557 465.472, 166.479 462.293, 169.399 457.033, 175.400 453.268, 180.574 453.164, 180.716 451.808, 182.580 447.436, 189.657 446.639, 190.948 441.938, 199.774 441.548, 200.505 437.338, 209.575 436.561, 211.250 432.787, 220.510 431.701, 223.175 428.316, 232.584 426.994, 236.259 423.958, 245.787 422.464, 250.476 419.745, 260.099 418.137, 265.791 415.708, 275.491 414.038, 282.161 411.875, 291.925 410.191, 299.532 408.276, 309.347 406.619, 317.841 404.937, 327.698 403.346, 337.019 401.883, 346.912 400.393, 356.987 399.139, 366.908 397.884, 376.829 397.779, 377.656 396.724, 387.600 395.669, 397.544 395.522, 398.931 394.659, 408.894 393.797, 418.856 393.636, 420.713 392.961, 430.690 392.286, 440.668 392.135, 442.898 391.643, 452.885 391.151, 462.873 391.027, 465.372 390.716, 475.367 390.405, 485.363 390.322, 488.024 390.351, 488.088 394.461, 497.204 396.065, 500.763 397.303, 503.388 401.570, 512.433 401.891, 513.113 406.316, 522.080 407.802, 525.091 412.388, 533.977 413.800, 536.713 418.547, 545.514 419.885, 547.994 424.795, 556.705 426.059, 558.949 431.132, 567.567 432.324, 569.592 437.560, 578.112 438.682, 579.938 444.079, 588.356 445.133, 589.999 450.692, 598.311 451.680, 599.788 457.399, 607.991 458.324, 609.318 464.201, 617.408 465.067, 618.600 471.100, 626.575 471.911, 627.646 478.098, 635.502 478.857, 636.467 481.051, 639.145 " fill="none" stroke="rgb(0, 0, 0)" stroke-linecap="butt" stroke-linejoin="round" stroke-opacity="1.0" stroke-width="3.0" />
            <path d=" M 360.652, 478.790 356.259, 487.773 353.818, 492.767 " fill="none" stroke="rgb(0, 0, 0)" stroke-linecap="butt" stroke-linejoin="round" stroke-opacity="1.0" stroke-width="3.0" />
            <path d=" M 472.019, 161.425 464.607, 161.765 " fill="none" stroke="rgb(0, 0, 0)" stroke-linecap="butt" stroke-linejoin="round" stroke-opacity="1.0" stroke-width="3.0" />
            <path d=" M 534.473, 486.273 534.573, 486.313 " fill="none" stroke="rgb(0, 0, 0)" stroke-linecap="butt" stroke-linejoin="round" stroke-opacity="1.0" stroke-width="3.0" />
        </g>
    </g>
</svg>
