<?xml version='1.0' encoding='ascii'?>
<svg xmlns="http://www.w3.org/2000/svg" height="1080" version="1.1" width="1080">
    <g id="View Layer_LineSet" inkscape:groupmode="lineset" inkscape:label="View Layer_LineSet" xmlns:inkscape="http://www.inkscape.org/namespaces/inkscape">
        <g id="strokes" inkscape:groupmode="layer" inkscape:label="strokes" xmlns:inkscape="http://www.inkscape.org/namespaces/inkscape">
            <path d=" M 565.300, 504.762 565.236, 505.888 565.153, 506.982 565.053, 508.033 564.980, 508.643 " fill="none" stroke="rgb(0, 0, 0)" stroke-linecap="butt" stroke-linejoin="round" stroke-opacity="1.0" stroke-width="3.0" />
            <path d=" M 353.619, 500.908 360.001, 500.700 " fill="none" stroke="rgb(0, 0, 0)" stroke-linecap="butt" stroke-linejoin="round" stroke-opacity="1.0" stroke-width="3.0" />
            <path d=" M 377.956, 500.979 387.948, 501.390 389.990, 501.474 " fill="none" stroke="rgb(0, 0, 0)" stroke-linecap="butt" stroke-linejoin="round" stroke-opacity="1.0" stroke-width="3.0" />
            <path d=" M 389.990, 501.474 386.105, 492.260 382.220, 483.045 381.304, 480.871 " fill="none" stroke="rgb(0, 0, 0)" stroke-linecap="butt" stroke-linejoin="round" stroke-opacity="1.0" stroke-width="3.0" />
            <path d=" M 468.130, 164.578 463.639, 164.850 459.088, 166.197 454.490, 168.654 449.861, 172.256 445.217, 177.028 440.574, 182.992 439.894, 184.049 438.736, 185.846 435.953, 190.169 431.372, 198.572 427.124, 207.625 426.852, 208.204 423.070, 217.461 422.415, 219.064 419.039, 228.477 418.083, 231.145 415.065, 240.678 413.878, 244.426 411.178, 254.055 409.825, 258.881 407.410, 268.585 405.945, 274.473 403.791, 284.238 402.264, 291.157 400.346, 300.972 398.802, 308.878 397.104, 318.733 395.582, 327.567 394.089, 337.455 392.625, 347.153 391.325, 357.068 390.025, 366.983 389.950, 367.551 388.833, 377.488 387.716, 387.426 387.576, 388.667 386.634, 398.623 385.691, 408.578 385.519, 410.402 384.745, 420.372 383.971, 430.342 383.792, 432.650 383.182, 442.632 382.572, 452.613 382.408, 455.299 381.957, 465.289 381.507, 475.279 381.374, 478.232 381.304, 480.871 379.661, 490.735 378.019, 500.600 377.956, 500.979 " fill="none" stroke="rgb(0, 0, 0)" stroke-linecap="butt" stroke-linejoin="round" stroke-opacity="1.0" stroke-width="3.0" />
            <path d=" M 530.514, 721.511 531.169, 717.973 532.841, 708.114 533.283, 705.512 533.318, 705.301 534.853, 695.419 535.332, 692.334 536.736, 682.433 537.209, 679.096 538.489, 669.178 538.950, 665.612 540.112, 655.680 540.554, 651.907 541.605, 641.962 542.023, 638.004 542.965, 628.049 543.355, 623.925 544.193, 613.960 544.552, 609.691 545.289, 599.718 545.614, 595.323 546.252, 585.344 546.540, 580.843 547.083, 570.857 547.332, 566.269 547.780, 556.279 547.989, 551.622 548.344, 541.628 548.511, 536.920 548.774, 526.924 548.899, 522.183 555.424, 522.275 557.271, 522.301 557.372, 522.303 559.157, 522.328 562.728, 522.378 563.564, 522.390 564.515, 522.404 567.079, 522.440 577.078, 522.581 577.865, 522.592 578.045, 512.593 578.132, 507.760 578.195, 497.760 578.226, 492.926 578.171, 482.926 578.145, 478.109 577.973, 468.111 577.890, 463.330 577.598, 453.334 577.460, 448.607 577.047, 438.616 576.854, 433.963 576.318, 423.977 576.073, 419.417 575.410, 409.439 575.114, 404.991 574.321, 395.022 573.978, 390.707 573.669, 387.381 " fill="none" stroke="rgb(0, 0, 0)" stroke-linecap="butt" stroke-linejoin="round" stroke-opacity="1.0" stroke-width="3.0" />
            <path d=" M 570.691, 392.397 571.023, 395.924 571.824, 405.892 572.121, 409.588 572.791, 419.566 573.048, 423.395 573.590, 433.380 573.804, 437.322 574.222, 447.313 574.391, 451.348 574.687, 461.344 574.808, 465.453 574.983, 475.451 575.056, 479.615 575.112, 489.615 575.136, 493.815 575.074, 503.815 575.048, 508.032 575.028, 509.130 574.940, 509.817 574.843, 510.467 574.740, 511.077 574.629, 511.644 574.512, 512.163 574.390, 512.633 574.262, 513.051 574.131, 513.415 573.996, 513.722 573.858, 513.971 573.718, 514.161 573.577, 514.290 573.436, 514.358 573.295, 514.365 569.282, 513.667 569.123, 512.444 568.937, 511.366 568.725, 510.451 568.491, 509.714 568.240, 509.169 567.975, 508.824 567.701, 508.687 567.309, 508.681 565.258, 508.648 564.980, 508.643 564.745, 508.640 563.793, 508.624 562.958, 508.611 559.386, 508.553 557.601, 508.524 557.501, 508.523 557.317, 508.520 557.027, 508.593 556.738, 508.876 556.454, 509.364 556.179, 510.050 555.920, 510.922 555.679, 511.967 555.599, 512.412 555.462, 513.167 555.272, 514.500 555.112, 515.946 554.985, 517.479 554.894, 519.073 554.839, 520.699 555.450, 520.784 556.519, 520.932 557.295, 520.946 557.396, 520.948 557.628, 520.952 559.181, 520.979 562.752, 521.043 563.588, 521.058 564.539, 521.074 565.030, 521.083 566.923, 521.117 566.942, 520.602 566.975, 520.104 567.020, 519.636 567.078, 519.210 567.143, 518.856 567.146, 518.839 567.223, 518.532 567.306, 518.298 567.393, 518.143 567.482, 518.072 " fill="none" stroke="rgb(0, 0, 0)" stroke-linecap="butt" stroke-linejoin="round" stroke-opacity="1.0" stroke-width="3.0" />
            <path d=" M 567.991, 521.270 574.792, 522.248 577.865, 522.592 " fill="none" stroke="rgb(0, 0, 0)" stroke-linecap="butt" stroke-linejoin="round" stroke-opacity="1.0" stroke-width="3.0" />
            <path d=" M 387.421, 234.351 384.672, 243.965 384.465, 244.690 382.003, 254.382 380.831, 259.000 378.627, 268.754 377.339, 274.451 375.368, 284.255 374.011, 291.003 372.251, 300.847 370.865, 308.600 369.301, 318.477 367.922, 327.180 366.538, 337.084 365.199, 346.672 363.985, 356.598 362.772, 366.524 362.714, 366.997 361.662, 376.941 360.609, 386.886 360.485, 388.063 359.586, 398.023 358.686, 407.982 358.525, 409.774 357.773, 419.746 357.022, 429.718 356.848, 432.027 356.240, 442.009 355.631, 451.990 355.466, 454.711 354.997, 464.700 354.528, 474.689 354.387, 477.710 354.056, 487.705 353.725, 497.699 353.619, 500.908 353.470, 510.907 353.321, 520.906 353.273, 524.107 353.284, 534.107 353.294, 544.107 353.297, 547.237 353.467, 557.236 353.637, 567.234 353.688, 570.176 354.021, 580.170 354.354, 590.165 354.442, 592.805 354.943, 602.792 355.444, 612.779 355.555, 615.008 356.229, 624.985 356.902, 634.962 357.018, 636.676 357.871, 646.640 358.725, 656.603 358.819, 657.706 359.862, 667.651 360.905, 677.597 360.947, 677.999 362.191, 687.922 363.387, 697.467 364.844, 707.361 366.121, 716.032 367.809, 725.888 369.133, 733.621 371.072, 743.431 371.712, 746.672 " fill="none" stroke="rgb(0, 0, 0)" stroke-linecap="butt" stroke-linejoin="round" stroke-opacity="1.0" stroke-width="3.0" />
            <path d=" M 522.777, 539.440 522.397, 549.433 522.383, 549.806 521.894, 559.794 521.695, 563.872 521.096, 573.854 520.856, 577.864 520.146, 587.839 519.867, 591.762 519.043, 601.728 518.727, 605.546 517.788, 615.502 517.439, 619.196 516.960, 623.691 " fill="none" stroke="rgb(0, 0, 0)" stroke-linecap="butt" stroke-linejoin="round" stroke-opacity="1.0" stroke-width="3.0" />
            <path d=" M 496.312, 743.852 493.690, 753.502 493.555, 753.999 490.709, 763.586 490.527, 764.196 487.436, 773.706 487.365, 773.925 484.070, 783.154 480.647, 791.851 477.099, 799.977 473.430, 807.500 469.645, 814.385 465.750, 820.593 461.751, 826.085 457.656, 830.827 453.471, 834.779 452.657, 835.376 " fill="none" stroke="rgb(0, 0, 0)" stroke-linecap="butt" stroke-linejoin="round" stroke-opacity="1.0" stroke-width="3.0" />
            <path d=" M 390.138, 496.260 389.990, 501.474 389.844, 511.473 389.698, 521.472 389.652, 524.618 389.667, 534.618 389.681, 544.618 389.685, 547.692 389.861, 557.690 390.037, 567.689 390.088, 570.576 390.427, 580.571 390.767, 590.565 390.855, 593.154 391.362, 603.141 391.869, 613.128 391.979, 615.309 392.658, 625.286 393.337, 635.263 393.450, 636.934 394.307, 646.897 395.163, 656.861 395.254, 657.925 396.296, 667.870 397.338, 677.816 397.377, 678.184 398.614, 688.108 399.801, 697.624 401.244, 707.519 402.506, 716.165 404.171, 726.026 405.472, 733.736 407.376, 743.553 408.679, 750.274 410.843, 760.037 412.104, 765.727 414.554, 775.422 415.724, 780.053 418.493, 789.663 419.517, 793.219 422.644, 802.717 423.460, 805.197 426.994, 814.552 427.531, 815.974 431.532, 825.139 431.708, 825.542 435.969, 833.899 440.296, 841.051 440.610, 841.479 440.893, 841.865 444.667, 847.013 449.065, 851.802 453.473, 855.440 457.874, 857.955 462.253, 859.381 466.597, 859.749 470.893, 859.094 475.128, 857.457 479.293, 854.878 483.379, 851.396 485.236, 849.377 487.376, 847.052 491.277, 841.889 495.076, 835.949 498.767, 829.269 502.343, 821.892 505.802, 813.859 509.140, 805.207 512.352, 795.972 512.375, 795.899 " fill="none" stroke="rgb(0, 0, 0)" stroke-linecap="butt" stroke-linejoin="round" stroke-opacity="1.0" stroke-width="3.0" />
            <path d=" M 466.465, 841.461 462.399, 840.908 461.439, 840.543 458.314, 839.355 454.223, 836.772 452.657, 835.376 450.142, 833.133 446.086, 828.411 442.069, 822.591 438.109, 815.658 434.224, 807.601 430.431, 798.416 427.066, 788.999 426.748, 788.109 423.778, 778.560 423.195, 776.688 420.572, 767.038 419.792, 764.169 417.476, 754.441 416.556, 750.577 414.516, 740.787 413.508, 735.947 411.718, 726.109 410.664, 720.319 409.104, 710.442 408.046, 703.742 406.697, 693.833 405.668, 686.274 404.516, 676.341 403.547, 667.983 402.581, 658.030 401.698, 648.942 400.908, 638.974 400.136, 629.233 399.513, 619.252 398.891, 609.272 398.870, 608.944 398.409, 598.955 397.949, 588.966 397.912, 588.172 397.608, 578.176 397.305, 568.181 397.269, 567.014 397.119, 557.015 396.969, 547.016 396.947, 545.576 396.948, 535.576 396.949, 525.576 396.949, 523.966 397.100, 513.967 397.154, 510.361 " fill="none" stroke="rgb(0, 0, 0)" stroke-linecap="butt" stroke-linejoin="round" stroke-opacity="1.0" stroke-width="3.0" />
            <path d=" M 508.880, 786.527 507.079, 791.524 503.841, 799.628 500.494, 807.131 497.043, 813.996 493.494, 820.185 489.851, 825.661 486.123, 830.388 482.315, 834.328 478.436, 837.441 474.495, 839.691 470.501, 841.043 466.465, 841.461 " fill="none" stroke="rgb(0, 0, 0)" stroke-linecap="butt" stroke-linejoin="round" stroke-opacity="1.0" stroke-width="3.0" />
            <path d=" M 546.336, 521.851 546.070, 531.847 545.960, 535.973 545.595, 545.967 545.446, 550.061 544.982, 560.050 544.795, 564.094 544.231, 574.078 544.007, 578.054 543.341, 588.032 543.082, 591.919 542.313, 601.890 542.022, 605.672 541.147, 615.633 540.826, 619.290 539.842, 629.241 539.494, 632.753 538.397, 642.693 538.028, 646.039 536.814, 655.965 536.427, 659.127 535.091, 669.038 534.693, 671.994 533.229, 681.887 532.825, 684.616 531.450, 693.111 530.825, 696.967 529.084, 706.815 528.693, 709.025 528.143, 711.879 " fill="none" stroke="rgb(0, 0, 0)" stroke-linecap="butt" stroke-linejoin="round" stroke-opacity="1.0" stroke-width="3.0" />
            <path d=" M 548.899, 522.183 546.336, 521.851 555.429, 521.978 557.276, 522.004 562.734, 522.080 564.521, 522.105 565.011, 522.112 564.522, 522.044 563.573, 521.912 562.739, 521.796 559.175, 521.301 557.628, 521.086 557.628, 520.952 " fill="none" stroke="rgb(0, 0, 0)" stroke-linecap="butt" stroke-linejoin="round" stroke-opacity="1.0" stroke-width="3.0" />
            <path d=" M 377.956, 500.979 377.808, 510.978 377.660, 520.977 377.599, 525.073 377.608, 535.073 377.618, 545.073 377.621, 549.093 377.789, 559.091 377.957, 569.090 378.021, 572.910 378.351, 582.905 378.680, 592.900 378.795, 596.401 379.290, 606.389 379.784, 616.377 379.936, 619.443 380.601, 629.421 381.265, 639.399 381.433, 641.921 382.274, 651.886 383.116, 661.850 383.274, 663.726 384.301, 673.673 385.328, 683.620 385.445, 684.755 386.668, 694.680 387.890, 704.605 387.929, 704.916 389.360, 714.813 390.706, 724.126 392.361, 733.989 393.758, 742.312 395.656, 752.130 397.063, 759.406 399.228, 769.169 400.600, 775.357 403.057, 785.051 404.344, 790.124 407.130, 799.728 408.274, 803.670 411.431, 813.158 412.367, 815.970 415.945, 825.308 416.599, 827.013 420.663, 836.150 420.948, 836.792 425.393, 845.307 429.913, 852.566 434.486, 858.587 439.094, 863.392 443.720, 867.002 448.345, 869.452 452.953, 870.775 457.531, 871.008 462.064, 870.188 466.540, 868.360 470.948, 865.564 475.277, 861.844 479.518, 857.242 " fill="none" stroke="rgb(0, 0, 0)" stroke-linecap="butt" stroke-linejoin="round" stroke-opacity="1.0" stroke-width="3.0" />
            <path d=" M 479.518, 857.242 485.625, 849.323 487.376, 847.052 " fill="none" stroke="rgb(0, 0, 0)" stroke-linecap="butt" stroke-linejoin="round" stroke-opacity="1.0" stroke-width="3.0" />
            <path d=" M 539.688, 547.045 529.692, 547.341 528.274, 547.383 525.386, 543.210 522.777, 539.440 522.164, 538.553 " fill="none" stroke="rgb(0, 0, 0)" stroke-linecap="butt" stroke-linejoin="round" stroke-opacity="1.0" stroke-width="3.0" />
            <path d=" M 530.424, 495.847 540.409, 496.410 540.802, 496.432 540.738, 506.432 540.675, 516.432 540.641, 521.771 540.329, 531.766 540.199, 535.901 539.741, 545.891 539.688, 547.045 534.156, 538.714 531.089, 534.096 530.826, 533.701 530.564, 533.305 530.300, 532.909 530.038, 532.512 529.735, 531.926 529.452, 531.122 529.195, 530.115 529.022, 529.192 528.971, 528.924 528.786, 527.571 528.641, 526.083 528.540, 524.487 528.511, 523.603 528.484, 522.814 528.476, 521.098 528.513, 519.370 528.598, 517.666 528.618, 517.402 528.726, 516.017 528.897, 514.456 529.106, 513.013 529.312, 511.918 529.350, 511.715 529.623, 510.588 529.921, 509.652 530.238, 508.925 530.565, 508.421 530.843, 508.094 531.122, 507.767 531.400, 507.440 531.678, 507.115 531.819, 506.951 538.313, 499.347 540.802, 496.432 " fill="none" stroke="rgb(0, 0, 0)" stroke-linecap="butt" stroke-linejoin="round" stroke-opacity="1.0" stroke-width="3.0" />
            <path d=" M 530.925, 523.647 530.798, 523.632 530.678, 523.483 530.568, 523.205 530.473, 522.809 530.399, 522.314 530.348, 521.742 530.322, 521.117 530.323, 520.468 530.350, 519.821 530.403, 519.207 530.479, 518.651 530.575, 518.178 530.686, 517.809 530.807, 517.561 530.934, 517.442 " fill="none" stroke="rgb(0, 0, 0)" stroke-linecap="butt" stroke-linejoin="round" stroke-opacity="1.0" stroke-width="3.0" />
            <path d=" M 530.934, 517.442 531.060, 517.461 531.180, 517.613 531.290, 517.894 531.384, 518.289 531.458, 518.783 531.509, 519.353 531.534, 519.975 531.533, 520.622 531.506, 521.266 531.453, 521.879 531.378, 522.433 531.283, 522.906 531.172, 523.275 531.051, 523.526 530.925, 523.647 " fill="none" stroke="rgb(0, 0, 0)" stroke-linecap="butt" stroke-linejoin="round" stroke-opacity="1.0" stroke-width="3.0" />
            <path d=" M 362.977, 432.808 362.931, 433.443 362.356, 443.427 361.780, 453.410 361.650, 455.668 361.214, 465.659 360.779, 475.650 360.671, 478.117 360.410, 486.917 360.113, 496.913 360.001, 500.700 359.842, 510.699 359.683, 520.697 359.641, 523.327 359.620, 533.327 359.599, 543.327 359.594, 545.907 359.712, 555.906 359.829, 565.906 359.858, 568.351 359.916, 570.586 " fill="none" stroke="rgb(0, 0, 0)" stroke-linecap="butt" stroke-linejoin="round" stroke-opacity="1.0" stroke-width="3.0" />
            <path d=" M 536.892, 742.692 538.646, 732.755 540.266, 722.887 540.620, 720.737 542.129, 710.851 542.486, 708.515 543.888, 698.613 544.243, 696.104 545.543, 686.189 545.892, 683.521 547.093, 673.593 547.433, 670.779 548.538, 660.841 548.866, 657.894 549.878, 647.945 550.190, 644.877 551.112, 634.920 551.406, 631.744 552.241, 621.779 552.515, 618.505 553.263, 608.533 553.515, 605.175 554.178, 595.197 554.406, 591.764 554.987, 581.781 555.190, 578.286 555.689, 568.298 555.866, 564.750 556.283, 554.759 556.433, 551.169 556.770, 541.175 556.892, 537.554 557.149, 527.557 557.243, 523.916 557.271, 522.301 " fill="none" stroke="rgb(0, 0, 0)" stroke-linecap="butt" stroke-linejoin="round" stroke-opacity="1.0" stroke-width="3.0" />
            <path d=" M 458.951, 905.219 461.367, 905.383 465.492, 904.999 469.574, 903.810 473.605, 901.846 477.579, 899.137 481.489, 895.714 485.330, 891.608 489.095, 886.849 492.781, 881.466 496.383, 875.491 499.898, 868.951 503.321, 861.876 506.651, 854.294 509.884, 846.231 513.019, 837.715 516.053, 828.770 518.986, 819.420 520.250, 815.073 " fill="none" stroke="rgb(0, 0, 0)" stroke-linecap="butt" stroke-linejoin="round" stroke-opacity="1.0" stroke-width="3.0" />
            <path d=" M 519.923, 179.664 518.396, 175.379 515.313, 167.528 512.117, 160.184 508.809, 153.375 505.394, 147.131 501.873, 141.482 498.249, 136.459 494.527, 132.092 490.710, 128.414 486.805, 125.455 482.815, 123.248 478.748, 121.824 474.610, 121.213 472.434, 121.334 470.409, 121.446 466.154, 122.552 461.852, 124.558 457.514, 127.490 453.152, 131.373 448.775, 136.227 444.397, 142.073 440.030, 148.925 435.688, 156.795 431.385, 165.692 431.155, 166.230 427.220, 175.424 427.136, 175.619 423.573, 184.963 422.958, 186.575 422.609, 187.597 419.375, 197.060 418.865, 198.553 415.927, 208.112 414.874, 211.542 412.205, 221.179 411.001, 225.523 408.576, 235.225 407.265, 240.474 405.064, 250.229 403.680, 256.363 401.687, 266.163 400.264, 273.155 398.464, 282.992 397.034, 290.807 395.414, 300.675 394.004, 309.269 392.555, 319.163 391.190, 328.486 389.904, 338.403 388.607, 348.397 387.476, 358.333 386.344, 368.269 386.268, 368.935 385.286, 378.887 384.303, 388.839 384.186, 390.028 383.347, 399.992 382.509, 409.957 382.371, 411.597 381.673, 421.573 380.974, 431.549 380.833, 433.564 380.272, 443.548 379.711, 453.532 379.581, 455.841 379.154, 465.832 378.728, 475.823 378.620, 478.343 378.327, 488.338 378.034, 498.334 377.956, 500.979 377.796, 510.978 377.635, 520.976 377.592, 523.659 377.564, 533.659 377.536, 543.659 377.529, 546.292 377.634, 556.292 377.740, 566.291 377.766, 568.788 378.007, 578.785 378.247, 588.782 378.302, 591.057 378.679, 601.050 379.057, 611.043 379.132, 613.014 379.649, 623.000 380.167, 632.987 380.250, 634.573 380.912, 644.551 381.574, 654.529 381.649, 655.654 382.460, 665.621 383.271, 675.588 383.320, 676.182 384.286, 686.135 385.253, 696.085 386.382, 706.021 387.436, 715.298 388.737, 725.213 389.857, 733.761 391.339, 743.650 392.503, 751.418 394.178, 761.277 395.359, 768.223 397.242, 778.044 398.410, 784.134 400.518, 793.909 401.641, 799.115 403.994, 808.834 405.036, 813.138 407.658, 822.788 408.579, 826.179 411.499, 835.743 412.255, 838.222 415.506, 847.679 416.048, 849.255 419.672, 858.575 419.942, 859.272 423.923, 868.273 427.974, 876.261 432.083, 883.245 436.235, 889.235 440.417, 894.249 444.617, 898.303 448.823, 901.419 453.023, 903.620 457.208, 904.933 459.439, 905.174 461.367, 905.383 " fill="none" stroke="rgb(0, 0, 0)" stroke-linecap="butt" stroke-linejoin="round" stroke-opacity="1.0" stroke-width="3.0" />
            <path d=" M 472.172, 121.296 467.944, 121.529 463.661, 122.635 459.333, 124.642 454.968, 127.574 450.578, 131.456 446.174, 136.310 441.769, 142.155 437.375, 149.005 433.006, 156.874 428.677, 165.769 428.413, 166.382 424.458, 175.566 424.403, 175.693 420.820, 185.029 420.200, 186.645 416.948, 196.102 416.144, 198.442 416.082, 198.620 413.129, 208.174 412.068, 211.604 409.384, 221.237 408.173, 225.581 405.734, 235.279 404.415, 240.527 402.202, 250.279 400.810, 256.411 398.805, 266.208 397.375, 273.196 395.564, 283.031 394.126, 290.841 392.498, 300.708 391.080, 309.297 389.623, 319.190 388.251, 328.507 386.958, 338.423 385.655, 348.411 384.517, 358.346 383.380, 368.281 383.304, 368.940 382.317, 378.892 381.329, 388.843 381.212, 390.025 380.369, 399.989 379.526, 409.954 379.388, 411.586 378.686, 421.561 377.985, 431.537 377.844, 433.543 377.280, 443.528 376.716, 453.512 376.586, 455.812 376.158, 465.803 375.730, 475.794 375.623, 478.305 375.329, 488.301 375.035, 498.296 374.958, 500.932 374.797, 510.931 374.637, 520.930 374.594, 523.603 374.568, 533.603 374.541, 543.603 374.534, 546.228 374.641, 556.227 374.749, 566.227 374.776, 568.715 375.019, 578.712 375.262, 588.709 375.318, 590.976 375.699, 600.969 376.081, 610.961 376.155, 612.924 376.678, 622.910 377.201, 632.896 377.283, 634.475 377.951, 644.452 378.619, 654.430 378.694, 655.548 379.512, 665.515 380.330, 675.481 380.378, 676.069 381.353, 686.021 382.326, 695.965 383.464, 705.900 384.526, 715.172 385.836, 725.085 386.965, 733.628 388.457, 743.516 389.629, 751.280 391.317, 761.136 392.505, 768.079 394.402, 777.898 395.578, 783.985 397.700, 793.757 398.831, 798.962 401.200, 808.677 402.249, 812.981 404.889, 822.626 405.817, 826.019 408.755, 835.578 409.518, 838.059 412.789, 847.509 413.336, 849.090 416.981, 858.402 417.256, 859.105 421.263, 868.105 425.341, 876.092 429.477, 883.075 433.656, 889.066 437.866, 894.079 442.093, 898.133 446.326, 901.250 450.553, 903.453 454.765, 904.767 458.951, 905.219 " fill="none" stroke="rgb(0, 0, 0)" stroke-linecap="butt" stroke-linejoin="round" stroke-opacity="1.0" stroke-width="3.0" />
            <path d=" M 474.610, 121.213 472.172, 121.296 " fill="none" stroke="rgb(0, 0, 0)" stroke-linecap="butt" stroke-linejoin="round" stroke-opacity="1.0" stroke-width="3.0" />
            <path d=" M 543.007, 759.256 544.698, 749.400 545.119, 746.949 546.698, 737.074 547.174, 734.096 548.644, 724.204 549.115, 721.041 550.482, 711.135 550.942, 707.800 552.210, 697.881 552.657, 694.390 553.829, 684.459 554.258, 680.824 555.338, 670.882 555.747, 667.116 556.736, 657.165 557.123, 653.281 558.025, 643.322 558.386, 639.331 559.203, 629.364 559.538, 625.279 560.271, 615.306 560.577, 611.137 561.229, 601.158 561.505, 596.916 562.076, 586.932 562.321, 582.629 562.812, 572.641 563.026, 568.287 563.437, 558.295 563.618, 553.900 563.952, 543.905 564.099, 539.480 564.355, 529.483 564.468, 525.037 564.515, 522.404 " fill="none" stroke="rgb(0, 0, 0)" stroke-linecap="butt" stroke-linejoin="round" stroke-opacity="1.0" stroke-width="3.0" />
            <path d=" M 456.610, 937.021 459.020, 937.194 463.488, 937.281 467.911, 936.473 472.281, 934.805 476.589, 932.311 480.828, 929.027 484.992, 924.989 489.075, 920.231 493.072, 914.788 496.979, 908.694 500.791, 901.983 504.504, 894.686 508.117, 886.836 511.626, 878.463 515.029, 869.598 518.324, 860.267 521.425, 850.760 521.510, 850.500 524.402, 840.927 524.585, 840.322 527.286, 830.694 527.480, 830.002 " fill="none" stroke="rgb(0, 0, 0)" stroke-linecap="butt" stroke-linejoin="round" stroke-opacity="1.0" stroke-width="3.0" />
            <path d=" M 541.030, 213.831 540.998, 213.673 538.833, 203.910 538.518, 202.492 536.178, 192.770 535.913, 191.667 533.382, 181.992 533.180, 181.221 530.440, 171.603 530.320, 171.181 527.334, 161.574 524.222, 152.428 520.986, 143.774 517.625, 135.642 514.143, 128.064 510.540, 121.071 506.820, 114.698 502.986, 108.980 499.040, 103.951 494.987, 99.647 490.832, 96.105 486.580, 93.360 482.238, 91.450 477.811, 90.410 473.309, 90.276 472.516, 90.416 468.739, 91.083 464.111, 92.864 459.436, 95.652 454.724, 99.476 449.988, 104.364 445.242, 110.340 440.498, 117.426 435.773, 125.639 431.289, 134.577 431.082, 134.991 427.039, 144.138 426.441, 145.491 426.037, 146.521 422.383, 155.830 421.869, 157.142 420.795, 160.203 417.487, 169.640 417.382, 169.938 416.199, 173.699 413.199, 183.238 413.000, 183.872 410.278, 193.494 408.742, 198.925 406.272, 208.616 404.626, 215.076 402.388, 224.822 400.672, 232.291 398.822, 241.236 396.899, 250.533 395.072, 260.365 393.327, 269.756 391.684, 279.620 390.042, 289.484 389.972, 289.904 388.504, 299.796 387.037, 309.688 386.854, 310.918 385.552, 320.832 384.249, 330.747 383.989, 332.727 382.844, 342.661 381.699, 352.595 381.393, 355.256 380.399, 365.207 379.406, 375.157 379.080, 378.423 378.233, 388.387 377.386, 398.351 377.064, 402.139 376.359, 412.115 375.654, 422.090 375.355, 426.312 374.789, 436.296 374.223, 446.280 373.965, 450.844 373.535, 460.835 373.106, 470.825 372.899, 475.633 372.605, 485.629 372.310, 495.625 372.165, 500.577 372.005, 510.576 371.845, 520.574 371.765, 525.570 371.739, 535.570 371.713, 545.570 371.701, 550.507 371.810, 560.507 371.920, 570.506 371.972, 575.284 372.218, 585.281 372.465, 595.278 372.576, 599.797 372.962, 609.790 373.347, 619.782 373.508, 623.947 374.035, 633.933 374.563, 643.919 374.760, 647.636 375.434, 657.613 376.109, 667.591 376.324, 670.773 377.150, 680.739 377.976, 690.705 378.189, 693.272 379.174, 703.223 380.158, 713.175 380.344, 715.050 381.494, 724.984 382.644, 734.918 382.774, 736.035 384.099, 745.947 385.425, 755.859 385.465, 756.159 386.976, 766.044 388.401, 775.362 390.111, 785.215 391.565, 793.592 393.489, 803.405 394.940, 810.804 396.149, 816.279 398.306, 826.043 398.508, 826.960 399.730, 831.880 402.141, 841.585 402.252, 842.032 404.942, 851.663 406.152, 855.996 407.780, 861.172 410.191, 868.837 412.835, 876.280 414.350, 880.546 418.089, 889.820 418.613, 891.119 422.797, 900.202 422.962, 900.561 427.381, 908.879 431.853, 916.086 436.364, 922.199 440.899, 927.240 445.444, 931.231 449.987, 934.201 454.516, 936.178 458.410, 937.056 459.020, 937.194 " fill="none" stroke="rgb(0, 0, 0)" stroke-linecap="butt" stroke-linejoin="round" stroke-opacity="1.0" stroke-width="3.0" />
            <path d=" M 363.609, 422.725 363.355, 426.243 362.977, 432.808 362.401, 442.791 361.943, 450.736 361.508, 460.727 361.072, 470.717 360.865, 475.486 360.568, 485.482 360.533, 486.664 360.236, 496.660 360.140, 499.892 360.125, 500.390 359.966, 510.389 359.807, 520.388 359.729, 525.344 359.708, 535.344 359.687, 545.344 359.686, 545.824 359.676, 550.242 359.794, 560.241 359.912, 570.241 359.916, 570.586 359.968, 574.980 360.226, 584.977 360.484, 594.974 360.597, 599.360 360.600, 599.456 360.655, 600.845 " fill="none" stroke="rgb(0, 0, 0)" stroke-linecap="butt" stroke-linejoin="round" stroke-opacity="1.0" stroke-width="3.0" />
            <path d=" M 470.876, 90.368 466.277, 91.176 461.620, 92.958 456.915, 95.746 452.174, 99.570 447.409, 104.457 442.633, 110.432 437.861, 117.517 433.107, 125.728 428.601, 134.655 428.387, 135.078 424.324, 144.215 423.719, 145.575 420.046, 154.876 419.119, 157.222 417.865, 160.778 414.606, 170.015 411.815, 178.836 410.199, 183.944 409.775, 185.432 407.038, 195.050 405.916, 198.993 403.432, 208.680 401.776, 215.138 399.525, 224.881 397.800, 232.347 395.763, 242.138 394.006, 250.583 392.169, 260.413 390.414, 269.798 389.898, 272.878 388.247, 282.741 387.041, 289.940 385.565, 299.830 384.089, 309.721 383.907, 310.945 382.597, 320.859 381.287, 330.773 381.027, 332.746 379.876, 342.680 378.725, 352.613 378.417, 355.267 377.419, 365.217 376.420, 375.167 376.093, 378.424 375.242, 388.388 374.391, 398.352 374.068, 402.132 373.359, 412.106 372.651, 422.081 372.352, 426.295 371.783, 436.279 371.215, 446.263 370.956, 450.817 370.525, 460.808 370.094, 470.798 369.887, 475.596 369.592, 485.592 369.297, 495.588 369.151, 500.530 368.991, 510.529 368.832, 520.528 368.752, 525.513 368.728, 535.513 368.703, 545.513 368.691, 550.441 368.803, 560.440 368.914, 570.440 368.967, 575.208 369.217, 585.205 369.466, 595.202 369.578, 599.712 369.968, 609.704 370.357, 619.696 370.519, 623.852 371.052, 633.838 371.584, 643.824 371.782, 647.533 372.462, 657.509 373.142, 667.486 373.359, 670.661 374.192, 680.627 375.025, 690.592 375.239, 693.152 376.231, 703.102 377.223, 713.053 377.410, 714.923 378.569, 724.855 379.728, 734.788 379.858, 735.900 381.193, 745.811 382.528, 755.721 382.568, 756.018 384.090, 765.901 385.525, 775.214 387.247, 785.065 388.711, 793.439 388.774, 793.755 390.711, 803.565 392.110, 810.645 394.281, 820.407 394.577, 821.739 395.702, 826.797 397.481, 833.909 399.471, 841.865 402.178, 851.492 403.397, 855.826 404.876, 860.495 407.463, 868.664 410.831, 878.080 411.650, 880.370 415.411, 889.636 415.941, 890.942 420.148, 900.015 420.319, 900.383 424.767, 908.700 429.268, 915.907 433.808, 922.020 438.372, 927.061 442.947, 931.053 447.520, 934.024 452.078, 936.003 456.610, 937.021 " fill="none" stroke="rgb(0, 0, 0)" stroke-linecap="butt" stroke-linejoin="round" stroke-opacity="1.0" stroke-width="3.0" />
            <path d=" M 473.309, 90.276 470.876, 90.368 " fill="none" stroke="rgb(0, 0, 0)" stroke-linecap="butt" stroke-linejoin="round" stroke-opacity="1.0" stroke-width="3.0" />
            <path d=" M 546.592, 221.711 545.464, 215.634 543.491, 205.830 543.051, 203.643 540.919, 193.873 540.506, 191.982 538.202, 182.251 537.829, 180.677 535.339, 170.992 535.020, 169.753 532.326, 160.123 532.078, 159.237 529.161, 149.672 529.004, 149.157 525.841, 139.671 525.798, 139.543 522.461, 130.426 518.993, 121.838 515.396, 113.812 511.672, 106.382 507.823, 99.585 503.852, 93.456 499.761, 88.034 495.556, 83.356 491.240, 79.461 486.820, 76.389 482.300, 74.179 477.689, 72.870 472.993, 72.502 468.153, 72.696 463.322, 73.308 458.425, 74.935 453.473, 77.612 448.477, 81.374 443.451, 86.251 438.408, 92.271 433.363, 99.460 428.333, 107.837 423.708, 116.703 423.335, 117.418 419.168, 126.509 418.386, 128.215 414.623, 137.480 413.505, 140.232 410.100, 149.635 408.712, 153.468 405.626, 162.980 404.026, 167.914 401.229, 177.515 399.469, 183.555 396.933, 193.228 395.062, 200.367 392.765, 210.100 390.825, 218.320 388.748, 228.102 387.421, 234.351 386.780, 237.372 384.907, 247.195 383.034, 257.018 382.947, 257.476 381.265, 267.334 379.583, 277.191 379.347, 278.576 377.844, 288.462 376.342, 298.349 375.999, 300.605 374.667, 310.516 373.335, 320.427 372.923, 323.492 371.753, 333.423 370.583, 343.354 370.135, 347.154 369.121, 357.103 368.106, 367.051 367.652, 371.504 366.788, 381.467 365.924, 391.430 365.734, 393.615 365.489, 396.448 364.771, 406.422 364.052, 416.396 363.657, 421.884 363.609, 422.725 363.231, 429.285 362.655, 439.268 362.169, 447.707 361.733, 457.698 361.298, 467.688 361.031, 473.809 360.734, 483.805 360.657, 486.408 360.360, 496.404 360.281, 499.074 360.251, 500.077 360.092, 510.076 359.933, 520.074 359.833, 526.398 359.812, 536.398 359.791, 546.398 359.778, 552.657 359.810, 555.364 359.927, 565.363 360.045, 575.363 360.050, 575.769 360.085, 578.742 360.343, 588.739 360.601, 598.736 360.636, 600.099 360.655, 600.845 360.751, 604.542 361.152, 614.534 361.553, 624.526 361.770, 629.948 362.317, 639.933 362.865, 649.918 363.135, 654.855 363.833, 664.831 364.531, 674.807 364.836, 679.166 365.690, 689.130 366.544, 699.093 366.860, 702.787 367.877, 712.735 368.894, 722.683 369.195, 725.632 370.383, 735.561 371.570, 745.490 371.712, 746.672 371.825, 747.620 373.193, 757.526 374.561, 767.432 374.734, 768.683 376.294, 778.561 377.853, 788.438 377.903, 788.755 379.668, 798.598 381.315, 807.783 383.302, 817.584 384.951, 825.720 387.177, 835.469 388.789, 842.528 391.279, 852.213 392.812, 858.176 395.591, 867.782 396.998, 872.644 400.100, 882.151 401.328, 885.915 404.791, 895.297 405.783, 897.984 409.652, 907.205 410.342, 908.850 414.674, 917.863 414.989, 918.516 419.704, 926.996 424.471, 934.304 429.274, 940.462 434.096, 945.493 438.924, 949.425 443.745, 952.288 448.545, 954.116 453.312, 954.943 458.104, 955.299 462.770, 955.156 467.384, 954.085 471.938, 952.124 476.423, 949.310 480.832, 945.683 485.158, 941.279 489.397, 936.136 493.543, 930.292 497.591, 923.783 501.537, 916.644 505.379, 908.910 509.114, 900.614 512.738, 891.788 516.250, 882.463 519.528, 873.015 519.648, 872.669 522.703, 863.147 522.931, 862.435 525.783, 852.850 526.099, 851.788 528.763, 842.150 529.149, 840.755 530.478, 835.588 " fill="none" stroke="rgb(0, 0, 0)" stroke-linecap="butt" stroke-linejoin="round" stroke-opacity="1.0" stroke-width="3.0" />
            <path d=" M 545.457, 764.912 547.131, 755.053 547.198, 754.660 548.761, 744.782 549.305, 741.343 550.761, 731.450 551.294, 727.827 552.649, 717.919 553.167, 714.127 554.424, 704.207 554.923, 700.260 556.085, 690.327 556.564, 686.239 557.634, 676.296 558.088, 672.079 559.069, 662.127 559.497, 657.793 560.392, 647.833 560.791, 643.394 561.601, 633.427 561.970, 628.894 562.698, 618.921 563.034, 614.307 563.681, 604.328 563.985, 599.642 564.551, 589.658 564.821, 584.912 565.308, 574.924 565.543, 570.127 565.952, 560.135 566.150, 555.299 566.482, 545.304 566.644, 540.437 566.899, 530.440 567.024, 525.553 567.079, 522.440 " fill="none" stroke="rgb(0, 0, 0)" stroke-linecap="butt" stroke-linejoin="round" stroke-opacity="1.0" stroke-width="3.0" />
            <path d=" M 472.993, 72.502 468.223, 73.112 463.386, 74.737 458.494, 77.414 453.560, 81.176 448.594, 86.053 443.612, 92.075 438.628, 99.266 433.658, 107.647 429.078, 116.536 428.719, 117.233 424.594, 126.343 423.828, 128.035 422.970, 130.173 419.246, 139.454 419.004, 140.059 415.635, 149.474 414.266, 153.302 411.215, 162.825 409.634, 167.757 407.872, 173.879 405.129, 183.408 402.621, 193.089 402.063, 195.244 400.771, 200.232 398.500, 209.970 397.940, 212.371 396.581, 218.196 394.528, 227.983 392.580, 237.262 390.729, 247.089 388.877, 256.916 388.789, 257.381 387.144, 267.136 385.480, 276.997 385.227, 278.496 383.741, 288.385 382.256, 298.274 381.915, 300.542 380.597, 310.455 379.279, 320.367 378.870, 323.446 377.712, 333.379 377.671, 333.736 376.513, 343.669 376.110, 347.127 375.106, 357.076 374.102, 367.026 373.651, 371.496 372.795, 381.459 371.940, 391.422 371.507, 396.459 370.795, 406.434 370.084, 416.408 369.691, 421.915 369.120, 431.899 368.550, 441.883 368.214, 447.759 367.781, 457.750 367.349, 467.740 367.083, 473.882 366.788, 483.877 366.492, 493.873 366.306, 500.170 366.147, 510.169 365.987, 520.168 365.886, 526.512 365.863, 536.512 365.839, 546.512 365.824, 552.792 365.938, 562.792 366.052, 572.791 366.121, 578.898 366.373, 588.895 366.625, 598.892 366.772, 604.718 367.165, 614.710 367.558, 624.702 367.773, 630.143 368.310, 640.128 368.848, 650.114 369.114, 655.069 369.801, 665.046 370.487, 675.022 370.788, 679.398 371.629, 689.363 372.469, 699.327 372.782, 703.036 373.783, 712.986 374.785, 722.935 375.083, 725.896 376.252, 735.828 377.422, 745.759 377.542, 746.771 377.546, 746.807 377.675, 747.901 379.023, 757.809 380.371, 767.718 380.542, 768.977 382.080, 778.858 383.618, 788.739 383.668, 789.062 385.277, 798.165 386.382, 804.414 387.033, 808.102 388.993, 817.908 390.620, 826.049 392.817, 835.805 394.407, 842.866 395.296, 846.371 397.753, 856.064 398.376, 858.522 401.121, 868.138 402.507, 872.997 405.571, 882.516 406.781, 886.274 409.458, 893.626 411.177, 898.347 415.003, 907.587 415.678, 909.216 419.964, 918.251 420.265, 918.885 424.920, 927.366 429.626, 934.675 434.368, 940.832 439.129, 945.861 443.897, 949.791 448.656, 952.652 453.396, 954.476 458.104, 955.299 " fill="none" stroke="rgb(0, 0, 0)" stroke-linecap="butt" stroke-linejoin="round" stroke-opacity="1.0" stroke-width="3.0" />
            <path d=" M 565.306, 520.885 565.359, 519.256 565.428, 518.036 565.449, 517.660 565.572, 516.125 565.727, 514.677 565.788, 514.238 565.911, 513.342 566.121, 512.140 566.354, 511.094 566.605, 510.220 566.869, 509.533 567.143, 509.044 567.307, 508.878 567.422, 508.761 567.701, 508.687 " fill="none" stroke="rgb(0, 0, 0)" stroke-linecap="butt" stroke-linejoin="round" stroke-opacity="1.0" stroke-width="3.0" />
            <path d=" M 554.839, 520.699 555.452, 520.710 557.299, 520.743 557.630, 520.749 562.756, 520.840 564.542, 520.871 565.033, 520.880 565.306, 520.885 566.923, 521.117 " fill="none" stroke="rgb(0, 0, 0)" stroke-linecap="butt" stroke-linejoin="round" stroke-opacity="1.0" stroke-width="3.0" />
            <path d=" M 557.628, 521.086 562.750, 521.177 564.536, 521.208 565.027, 521.217 567.100, 521.254 567.991, 521.270 567.995, 520.755 567.984, 520.253 567.959, 519.776 567.920, 519.337 567.869, 518.949 567.806, 518.621 567.734, 518.364 567.655, 518.184 567.570, 518.085 567.482, 518.072 " fill="none" stroke="rgb(0, 0, 0)" stroke-linecap="butt" stroke-linejoin="round" stroke-opacity="1.0" stroke-width="3.0" />
            <path d=" M 532.556, 487.606 537.764, 487.635 537.743, 481.949 537.683, 481.933 534.058, 481.887 " fill="none" stroke="rgb(0, 0, 0)" stroke-linecap="butt" stroke-linejoin="round" stroke-opacity="1.0" stroke-width="3.0" />
            <path d=" M 537.560, 487.585 537.683, 481.933 " fill="none" stroke="rgb(0, 0, 0)" stroke-linecap="butt" stroke-linejoin="round" stroke-opacity="1.0" stroke-width="3.0" />
            <path d=" M 534.872, 483.593 534.701, 483.605 534.683, 483.606 534.657, 483.608 534.644, 483.609 534.563, 483.633 534.559, 483.634 534.558, 483.634 534.554, 483.635 534.432, 483.671 534.424, 483.674 534.228, 483.777 534.057, 483.914 533.916, 484.081 533.810, 484.272 533.743, 484.480 533.717, 484.698 533.736, 484.929 533.799, 485.145 533.901, 485.341 534.038, 485.512 534.102, 485.567 534.206, 485.653 534.227, 485.665 " fill="none" stroke="rgb(0, 0, 0)" stroke-linecap="butt" stroke-linejoin="round" stroke-opacity="1.0" stroke-width="3.0" />
            <path d=" M 534.364, 485.744 534.397, 485.759 534.422, 485.767 534.586, 485.820 534.605, 485.826 " fill="none" stroke="rgb(0, 0, 0)" stroke-linecap="butt" stroke-linejoin="round" stroke-opacity="1.0" stroke-width="3.0" />
            <path d=" M 535.029, 483.606 534.872, 483.593 534.714, 483.602 " fill="none" stroke="rgb(0, 0, 0)" stroke-linecap="butt" stroke-linejoin="round" stroke-opacity="1.0" stroke-width="3.0" />
            <path d=" M 535.183, 483.642 535.084, 483.617 535.029, 483.606 " fill="none" stroke="rgb(0, 0, 0)" stroke-linecap="butt" stroke-linejoin="round" stroke-opacity="1.0" stroke-width="3.0" />
            <path d=" M 534.665, 485.839 534.822, 485.852 534.981, 485.843 535.136, 485.811 535.285, 485.756 535.426, 485.681 535.555, 485.586 535.669, 485.473 535.767, 485.346 535.846, 485.205 535.905, 485.055 535.942, 484.898 535.956, 484.737 535.949, 484.576 535.919, 484.418 535.866, 484.266 535.794, 484.124 535.702, 483.993 535.592, 483.878 535.468, 483.780 535.330, 483.701 535.183, 483.642 " fill="none" stroke="rgb(0, 0, 0)" stroke-linecap="butt" stroke-linejoin="round" stroke-opacity="1.0" stroke-width="3.0" />
            <path d=" M 534.714, 483.602 534.683, 483.606 " fill="none" stroke="rgb(0, 0, 0)" stroke-linecap="butt" stroke-linejoin="round" stroke-opacity="1.0" stroke-width="3.0" />
            <path d=" M 534.563, 483.633 534.558, 483.634 534.554, 483.635 " fill="none" stroke="rgb(0, 0, 0)" stroke-linecap="butt" stroke-linejoin="round" stroke-opacity="1.0" stroke-width="3.0" />
            <path d=" M 534.511, 485.802 534.605, 485.826 534.665, 485.839 " fill="none" stroke="rgb(0, 0, 0)" stroke-linecap="butt" stroke-linejoin="round" stroke-opacity="1.0" stroke-width="3.0" />
            <path d=" M 534.227, 485.665 534.364, 485.744 " fill="none" stroke="rgb(0, 0, 0)" stroke-linecap="butt" stroke-linejoin="round" stroke-opacity="1.0" stroke-width="3.0" />
            <path d=" M 532.580, 487.517 537.560, 487.585 537.764, 487.635 " fill="none" stroke="rgb(0, 0, 0)" stroke-linecap="butt" stroke-linejoin="round" stroke-opacity="1.0" stroke-width="3.0" />
            <path d=" M 627.080, 905.450 629.249, 905.962 637.146, 907.118 645.036, 907.538 652.902, 907.239 660.728, 906.239 668.499, 904.558 676.199, 902.217 683.816, 899.237 691.337, 895.639 698.749, 891.445 706.041, 886.678 713.204, 881.359 720.228, 875.510 727.103, 869.155 733.823, 862.314 740.378, 855.010 746.763, 847.263 752.814, 839.302 752.971, 839.096 758.723, 830.916 758.996, 830.529 764.460, 822.154 764.833, 821.582 770.018, 813.032 770.477, 812.276 775.393, 803.569 775.923, 802.630 780.580, 793.781 781.168, 792.664 785.575, 783.687 786.209, 782.395 790.372, 773.303 791.040, 771.844 794.968, 762.647 795.661, 761.026 799.360, 751.736 800.067, 749.961 803.544, 740.585 804.256, 738.664 807.517, 729.210 808.226, 727.153 811.276, 717.629 811.976, 715.444 814.819, 705.857 815.502, 703.553 818.142, 693.908 818.803, 691.496 821.245, 681.798 821.878, 679.287 824.125, 669.543 824.724, 666.942 826.779, 657.156 827.341, 654.476 829.206, 644.651 829.728, 641.903 831.405, 632.044 831.882, 629.237 833.372, 619.349 833.803, 616.493 835.108, 606.579 835.489, 603.685 836.610, 593.748 836.940, 590.825 837.877, 580.869 838.154, 577.929 838.908, 567.958 839.130, 565.010 839.700, 555.027 839.868, 552.082 840.253, 542.090 840.366, 539.158 840.565, 529.160 840.623, 526.253 840.635, 516.253 840.638, 513.379 840.461, 503.381 840.411, 500.552 840.043, 490.559 839.941, 487.785 839.378, 477.801 839.226, 475.092 838.466, 465.121 838.266, 462.489 837.305, 452.535 837.060, 449.989 835.895, 440.057 835.607, 437.608 834.232, 427.703 833.907, 425.361 832.318, 415.488 831.960, 413.264 830.150, 403.429 829.764, 401.332 827.728, 391.542 827.320, 389.583 825.049, 379.844 824.627, 378.033 822.115, 368.353 821.685, 366.698 818.923, 357.087 818.495, 355.597 815.474, 346.065 815.056, 344.748 811.766, 335.305 811.370, 334.169 807.799, 324.828 807.436, 323.879 803.574, 314.655 803.257, 313.898 799.091, 304.807 798.834, 304.245 794.351, 295.306 794.167, 294.941 789.354, 286.176 789.261, 286.007 784.116, 277.464 778.737, 269.334 773.126, 261.639 767.289, 254.401 761.229, 247.643 754.952, 241.388 748.464, 235.660 741.773, 230.481 734.884, 225.875 727.808, 221.865 720.553, 218.474 713.130, 215.724 705.549, 213.638 697.823, 212.238 689.964, 211.544 681.989, 211.576 679.772, 211.742 " fill="none" stroke="rgb(0, 0, 0)" stroke-linecap="butt" stroke-linejoin="round" stroke-opacity="1.0" stroke-width="3.0" />
            <path d=" M 629.249, 905.962 627.226, 905.472 621.363, 904.051 613.507, 901.373 605.702, 897.912 597.967, 893.659 590.324, 888.603 582.796, 882.738 575.403, 876.059 568.459, 868.863 568.171, 868.565 561.702, 860.940 561.122, 860.257 555.120, 852.258 554.281, 851.139 548.736, 842.817 547.671, 841.219 542.568, 832.619 541.317, 830.509 540.158, 828.319 535.483, 819.479 535.242, 819.023 534.791, 818.066 532.017, 812.181 530.749, 809.490 530.710, 809.408 529.471, 806.780 525.603, 797.559 525.259, 796.738 524.027, 793.803 523.984, 793.687 520.496, 784.315 518.933, 780.117 517.999, 777.274 515.929, 770.980 514.211, 765.754 511.439, 756.146 509.882, 750.747 507.449, 741.048 505.965, 735.135 503.859, 725.359 502.480, 718.958 502.356, 718.275 500.566, 708.436 499.443, 702.263 497.960, 692.374 496.869, 685.099 495.685, 675.169 494.773, 667.517 493.880, 657.557 493.165, 649.571 492.558, 639.590 492.055, 631.320 491.728, 621.325 491.450, 612.823 491.399, 602.823 491.355, 594.140 491.577, 584.142 491.772, 575.335 492.264, 565.347 492.701, 556.471 493.462, 546.500 494.140, 537.612 495.169, 527.665 495.829, 521.279 496.083, 518.823 496.790, 513.420 496.880, 512.735 498.177, 502.819 498.524, 500.167 498.900, 497.794 500.467, 487.918 501.452, 481.707 503.290, 471.877 504.856, 463.504 506.968, 453.730 508.721, 445.619 511.111, 435.909 513.032, 428.109 515.705, 418.473 517.770, 411.029 520.731, 401.477 522.915, 394.431 526.171, 384.976 527.107, 382.257 528.448, 378.364 530.454, 373.094 534.011, 363.748 534.344, 362.875 535.964, 359.012 536.965, 356.625 540.580, 348.006 543.772, 341.081 547.131, 333.794 548.114, 331.853 549.705, 328.708 553.973, 320.275 554.985, 318.451 556.563, 315.610 559.139, 310.972 561.079, 307.478 562.597, 304.988 563.162, 304.061 568.367, 295.522 568.422, 295.432 573.989, 287.124 575.977, 284.157 581.917, 276.112 583.717, 273.674 590.040, 265.926 590.976, 264.778 590.996, 264.754 591.010, 264.737 591.615, 263.996 598.330, 256.586 599.646, 255.135 606.761, 248.108 607.783, 247.099 615.302, 240.506 616.003, 239.891 623.924, 233.787 624.280, 233.513 632.592, 227.962 640.916, 223.233 649.229, 219.319 657.513, 216.209 665.746, 213.892 673.910, 212.353 680.280, 211.740 681.989, 211.576 " fill="none" stroke="rgb(0, 0, 0)" stroke-linecap="butt" stroke-linejoin="round" stroke-opacity="1.0" stroke-width="3.0" />
            <path d=" M 679.772, 211.742 671.683, 212.520 663.507, 214.059 655.264, 216.375 646.970, 219.483 638.646, 223.394 630.312, 228.120 621.991, 233.666 614.064, 239.762 613.704, 240.039 606.179, 246.625 605.476, 247.241 598.353, 254.260 597.329, 255.269 590.607, 262.672 589.574, 263.809 589.549, 263.837 589.539, 263.848 589.290, 264.122 582.960, 271.863 581.384, 273.790 575.437, 281.829 573.637, 284.263 568.063, 292.565 566.076, 295.526 562.629, 301.168 562.052, 302.113 558.787, 307.460 558.726, 307.560 556.196, 312.107 554.625, 314.930 551.614, 320.343 549.304, 324.898 547.710, 328.043 544.767, 333.847 540.574, 342.926 538.210, 348.044 536.502, 352.110 532.628, 361.329 531.970, 362.897 528.407, 372.241 527.766, 373.922 526.070, 378.369 525.164, 380.995 521.903, 390.448 520.534, 394.417 517.569, 403.967 515.386, 410.996 515.315, 411.250 512.638, 420.885 510.646, 428.057 510.338, 429.305 507.944, 439.014 506.333, 445.547 504.218, 455.321 502.467, 463.412 500.626, 473.241 499.062, 481.593 497.494, 491.470 496.134, 500.032 494.836, 509.948 494.575, 511.941 494.386, 513.380 493.694, 518.667 493.455, 520.977 492.426, 530.924 491.752, 537.434 490.991, 547.405 490.315, 556.271 489.823, 566.259 489.791, 566.919 489.388, 575.114 489.167, 585.111 488.973, 593.898 489.026, 603.897 489.072, 612.559 489.401, 622.554 489.680, 631.036 490.290, 641.018 490.794, 649.267 491.690, 659.227 492.406, 667.193 493.594, 677.122 494.508, 684.757 495.995, 694.645 497.087, 701.903 498.882, 711.740 500.130, 718.580 501.202, 723.542 503.314, 733.317 503.621, 734.740 506.061, 744.438 507.544, 750.337 510.323, 759.943 511.881, 765.330 514.953, 774.651 515.222, 775.467 516.611, 779.679 517.005, 780.735 520.500, 790.104 521.712, 793.353 523.184, 796.852 524.461, 799.890 527.164, 806.319 528.258, 808.633 529.998, 812.317 531.309, 815.092 532.944, 818.551 534.135, 820.799 538.818, 829.635 539.027, 830.028 544.138, 838.623 545.390, 840.730 550.944, 849.046 552.010, 850.643 558.019, 858.635 558.861, 859.755 565.338, 867.374 565.919, 868.058 572.870, 875.247 573.161, 875.548 580.564, 882.224 588.103, 888.087 595.756, 893.142 603.502, 897.396 611.318, 900.857 619.184, 903.537 627.080, 905.450 " fill="none" stroke="rgb(0, 0, 0)" stroke-linecap="butt" stroke-linejoin="round" stroke-opacity="1.0" stroke-width="3.0" />
            <path d=" M 790.315, 550.987 780.338, 550.308 779.605, 550.258 774.997, 549.678 765.075, 548.428 755.151, 547.178 754.440, 547.089 753.727, 546.999 753.013, 546.909 752.299, 546.820 751.461, 546.585 750.656, 546.096 749.902, 545.361 749.213, 544.396 748.604, 543.217 748.086, 541.847 747.669, 540.312 747.361, 538.640 747.168, 536.865 747.095, 535.020 747.142, 533.141 747.309, 531.264 747.593, 529.426 747.987, 527.662 748.485, 526.007 749.076, 524.492 749.750, 523.146 749.867, 522.964 750.492, 521.995 751.287, 521.060 751.973, 520.372 752.659, 519.684 753.344, 518.997 754.028, 518.312 754.372, 517.969 754.878, 517.462 756.102, 516.239 763.173, 509.168 770.245, 502.098 777.316, 495.027 777.636, 494.707 " fill="none" stroke="rgb(0, 0, 0)" stroke-linecap="butt" stroke-linejoin="round" stroke-opacity="1.0" stroke-width="3.0" />
            <path d=" M 691.542, 302.165 683.236, 302.498 681.198, 302.772 677.308, 303.294 674.830, 303.627 666.347, 305.566 661.796, 307.048 657.813, 308.345 649.259, 311.985 640.713, 316.497 632.205, 321.882 624.168, 327.832 623.766, 328.130 616.145, 334.606 615.421, 335.221 608.218, 342.157 607.200, 343.137 600.422, 350.489 599.139, 351.880 592.789, 359.605 591.277, 361.445 585.352, 369.500 583.649, 371.815 578.141, 380.161 576.291, 382.964 574.001, 386.821 573.669, 387.381 570.691, 392.397 569.232, 394.854 565.669, 401.517 563.184, 406.162 562.501, 407.439 562.383, 407.684 561.526, 409.458 558.183, 416.387 556.515, 419.845 556.303, 420.284 556.118, 420.668 554.591, 424.187 550.612, 433.361 550.117, 434.502 547.717, 440.695 545.983, 445.169 544.536, 448.903 542.943, 453.537 539.693, 462.994 539.409, 463.823 536.517, 473.396 534.763, 479.203 534.058, 481.887 534.046, 481.934 532.580, 487.517 532.556, 487.606 532.148, 489.161 530.620, 494.980 530.424, 495.847 529.372, 500.523 527.175, 510.278 526.993, 511.086 525.804, 517.353 524.973, 521.732 524.951, 521.847 524.632, 523.532 523.888, 527.449 522.986, 533.256 522.164, 538.553 521.317, 544.005 520.117, 553.933 519.300, 560.687 518.441, 570.650 517.857, 577.428 517.344, 587.415 516.997, 594.154 516.832, 604.153 516.722, 610.795 516.906, 620.793 516.960, 623.691 517.026, 627.281 517.558, 637.266 517.790, 641.605 517.893, 643.546 518.775, 653.507 519.313, 659.594 520.535, 669.519 521.245, 675.278 521.925, 679.556 523.497, 689.432 523.673, 690.537 525.607, 700.348 526.585, 705.310 528.143, 711.879 528.304, 712.556 529.487, 717.540 529.962, 719.542 530.514, 721.511 530.682, 722.110 533.381, 731.739 533.785, 733.182 535.618, 738.792 536.892, 742.692 537.786, 745.428 538.032, 746.184 539.078, 748.954 541.683, 755.859 542.681, 758.503 542.765, 758.697 543.007, 759.256 545.457, 764.912 547.706, 770.103 552.145, 779.064 553.080, 780.951 558.005, 789.654 558.778, 791.020 564.210, 799.415 564.772, 800.283 570.730, 808.314 571.034, 808.724 577.534, 816.329 584.245, 823.088 591.139, 828.992 598.188, 834.044 605.364, 838.244 610.102, 840.427 612.641, 841.597 619.992, 844.111 627.392, 845.799 634.817, 846.675 642.245, 846.754 649.652, 846.055 657.017, 844.599 664.321, 842.408 671.545, 839.503 678.671, 835.909 685.682, 831.653 692.564, 826.758 699.300, 821.251 705.878, 815.161 712.286, 808.512 718.512, 801.331 724.544, 793.647 730.374, 785.485 735.838, 777.110 735.992, 776.873 741.120, 768.288 741.390, 767.837 746.196, 759.067 746.561, 758.402 751.057, 749.470 751.497, 748.597 755.694, 739.520 756.192, 738.444 760.100, 729.240 760.639, 727.970 764.270, 718.652 764.836, 717.200 768.196, 707.781 768.775, 706.158 771.873, 696.650 772.453, 694.867 775.295, 685.280 775.866, 683.353 778.458, 673.694 779.010, 671.637 781.358, 661.917 781.882, 659.744 783.989, 649.969 784.479, 647.696 786.349, 637.872 786.798, 635.514 788.435, 625.649 788.837, 623.223 790.242, 613.322 790.594, 610.843 791.768, 600.913 792.066, 598.397 793.011, 588.442 793.251, 585.907 793.967, 575.932 794.150, 573.393 794.635, 563.405 794.758, 560.879 795.012, 550.882 795.076, 548.385 795.096, 539.100 " fill="none" stroke="rgb(0, 0, 0)" stroke-linecap="butt" stroke-linejoin="round" stroke-opacity="1.0" stroke-width="3.0" />
            <path d=" M 777.636, 494.707 787.587, 495.696 788.433, 495.780 " fill="none" stroke="rgb(0, 0, 0)" stroke-linecap="butt" stroke-linejoin="round" stroke-opacity="1.0" stroke-width="3.0" />
            <path d=" M 823.865, 511.289 823.165, 501.319 822.204, 491.545 821.967, 489.139 820.700, 479.220 820.431, 477.117 818.868, 467.240 818.557, 465.278 816.691, 455.454 816.348, 453.646 814.175, 443.885 813.809, 442.240 811.325, 432.554 810.947, 431.078 808.140, 421.480 807.761, 420.187 804.612, 410.696 804.248, 409.600 800.738, 400.237 800.406, 399.350 796.519, 390.136 796.236, 389.466 791.958, 380.427 791.744, 379.974 787.065, 371.136 786.938, 370.896 781.829, 362.247 776.424, 354.049 770.726, 346.341 764.738, 339.160 758.468, 332.540 751.927, 326.510 745.128, 321.092 738.085, 316.299 730.813, 312.146 723.327, 308.665 720.599, 307.684 715.638, 305.898 707.764, 303.877 699.725, 302.627 691.542, 302.165 " fill="none" stroke="rgb(0, 0, 0)" stroke-linecap="butt" stroke-linejoin="round" stroke-opacity="1.0" stroke-width="3.0" />
            <path d=" M 661.796, 307.048 666.822, 309.895 672.811, 314.039 678.617, 318.803 684.228, 324.173 689.632, 330.135 694.820, 336.667 699.783, 343.739 704.515, 351.320 709.013, 359.372 713.275, 367.857 717.296, 376.755 721.066, 386.050 724.482, 395.448 724.581, 395.721 727.669, 405.232 727.835, 405.744 730.614, 415.350 730.828, 416.091 733.315, 425.776 733.560, 426.730 735.774, 436.482 736.034, 437.629 737.988, 447.437 738.252, 448.764 739.949, 458.619 740.208, 460.118 741.654, 470.013 741.896, 471.672 743.097, 481.600 743.315, 483.405 744.278, 493.358 744.465, 495.293 744.911, 501.361 744.847, 502.600 744.724, 503.831 744.544, 505.043 744.309, 506.222 744.020, 507.357 743.681, 508.435 743.295, 509.445 742.866, 510.376 742.399, 511.220 741.898, 511.966 741.370, 512.608 740.818, 513.138 740.585, 513.307 740.249, 513.551 739.669, 513.843 730.401, 517.598 728.865, 518.220 " fill="none" stroke="rgb(0, 0, 0)" stroke-linecap="butt" stroke-linejoin="round" stroke-opacity="1.0" stroke-width="3.0" />
            <path d=" M 800.327, 535.515 800.531, 535.528 801.558, 535.593 803.239, 535.701 812.350, 531.578 813.508, 531.054 815.451, 530.175 823.187, 526.674 824.566, 526.049 825.131, 525.833 830.702, 523.699 830.282, 513.708 830.155, 510.698 829.464, 500.722 829.262, 497.807 828.295, 487.853 828.022, 485.049 826.773, 475.127 826.435, 472.450 824.895, 462.569 824.500, 460.033 822.662, 450.203 822.218, 447.824 820.073, 438.057 819.589, 435.848 817.127, 426.155 816.613, 424.131 815.617, 420.700 813.293, 412.699 810.164, 403.201 809.630, 401.578 809.566, 401.407 806.085, 392.032 805.626, 390.797 801.778, 381.567 801.284, 380.383 797.056, 371.321 796.609, 370.363 791.984, 361.497 791.603, 360.766 786.640, 352.251 786.273, 351.622 781.316, 344.020 780.624, 342.959 774.662, 334.807 768.396, 327.194 761.835, 320.152 754.987, 313.710 747.864, 307.897 740.479, 302.742 732.844, 298.276 724.976, 294.525 716.889, 291.516 708.604, 289.276 700.137, 287.832 691.512, 287.205 681.518, 286.851 671.524, 286.497 668.962, 286.406 " fill="none" stroke="rgb(0, 0, 0)" stroke-linecap="butt" stroke-linejoin="round" stroke-opacity="1.0" stroke-width="3.0" />
            <path d=" M 691.512, 287.205 682.749, 287.417 680.230, 287.721 673.875, 288.489 664.918, 290.436 664.913, 290.437 655.891, 293.276 646.839, 297.016 641.077, 299.977 640.672, 300.185 637.786, 301.668 629.276, 306.919 628.764, 307.235 620.663, 313.097 619.806, 313.716 612.128, 320.123 610.945, 321.110 603.698, 328.001 602.216, 329.409 595.400, 336.727 593.655, 338.600 587.265, 346.293 585.296, 348.663 579.328, 356.687 577.178, 359.579 572.105, 367.173 571.719, 367.751 569.335, 371.320 564.548, 379.284 562.032, 383.470 561.803, 383.850 560.376, 386.488 555.619, 395.284 555.138, 396.173 554.618, 397.134 553.452, 399.531 549.080, 408.525 547.814, 411.128 543.818, 420.295 541.923, 424.641 541.425, 425.784 537.796, 435.103 535.480, 441.049 532.212, 450.500 530.011, 456.866 527.099, 466.432 525.046, 473.174 522.483, 482.840 520.609, 489.906 518.392, 499.657 516.723, 506.995 514.848, 516.818 513.918, 521.692 513.407, 524.369 511.874, 534.251 510.679, 541.956 509.487, 551.884 508.551, 559.678 507.700, 569.642 507.032, 577.461 506.526, 587.448 506.131, 595.227 505.971, 605.225 505.848, 612.900 506.040, 622.898 506.184, 630.405 506.732, 640.390 507.133, 647.668 " fill="none" stroke="rgb(0, 0, 0)" stroke-linecap="butt" stroke-linejoin="round" stroke-opacity="1.0" stroke-width="3.0" />
            <path d=" M 756.102, 516.239 755.629, 508.137 755.536, 505.390 755.503, 505.618 755.268, 506.803 754.980, 507.943 754.643, 509.027 754.259, 510.042 753.833, 510.978 753.368, 511.826 752.871, 512.576 752.346, 513.221 751.798, 513.754 751.234, 514.169 750.658, 514.463 741.409, 518.265 733.610, 521.471 733.000, 520.433 732.313, 519.582 731.560, 518.932 730.753, 518.496 729.905, 518.280 728.865, 518.220 718.882, 517.635 718.747, 517.627 717.867, 517.636 716.977, 517.869 716.090, 518.323 715.222, 518.991 714.422, 519.864 713.706, 520.929 713.052, 522.164 712.473, 523.551 711.978, 525.064 711.576, 526.678 711.274, 528.366 711.076, 530.098 710.988, 531.845 711.010, 533.576 720.988, 534.232 722.209, 534.312 727.034, 532.333 727.032, 531.781 727.075, 531.226 727.137, 530.827 727.159, 530.683 727.284, 530.168 727.446, 529.695 727.640, 529.275 727.861, 528.921 728.103, 528.643 728.359, 528.448 728.623, 528.341 728.886, 528.325 " fill="none" stroke="rgb(0, 0, 0)" stroke-linecap="butt" stroke-linejoin="round" stroke-opacity="1.0" stroke-width="3.0" />
            <path d=" M 800.709, 522.427 801.370, 522.129 802.955, 521.416 807.493, 519.373 808.006, 519.095 808.510, 518.710 809.001, 518.224 809.476, 517.642 809.931, 516.970 810.362, 516.213 810.766, 515.378 811.140, 514.472 811.481, 513.503 811.787, 512.477 812.055, 511.403 812.283, 510.289 812.469, 509.144 812.612, 507.976 822.205, 510.800 823.003, 511.035 823.865, 511.289 823.725, 512.030 823.458, 513.110 823.154, 514.140 823.070, 514.382 822.815, 515.115 822.444, 516.025 822.043, 516.864 821.616, 517.625 821.165, 518.302 820.694, 518.887 820.207, 519.375 819.707, 519.762 819.199, 520.042 813.360, 522.716 808.950, 524.735 806.546, 525.835 805.976, 524.768 805.753, 524.466 805.331, 523.894 804.621, 523.228 803.858, 522.782 803.054, 522.564 801.377, 522.466 800.709, 522.427 800.290, 522.402 797.813, 522.257 791.183, 521.869 790.345, 521.882 790.103, 521.952 790.093, 521.955 789.495, 522.127 788.646, 522.599 787.812, 523.291 787.045, 524.195 786.361, 525.297 785.734, 526.574 785.177, 528.007 784.699, 529.570 784.308, 531.237 784.011, 532.979 783.814, 534.766 783.719, 536.568 783.729, 538.353 790.279, 538.783 790.397, 538.791 795.096, 539.100 795.649, 539.136 800.220, 537.067 800.222, 536.498 800.266, 535.926 800.327, 535.515 800.350, 535.366 800.471, 534.834 800.534, 534.637 800.627, 534.345 800.813, 533.911 801.024, 533.545 801.254, 533.257 801.497, 533.054 801.566, 533.024 801.747, 532.942 801.996, 532.924 " fill="none" stroke="rgb(0, 0, 0)" stroke-linecap="butt" stroke-linejoin="round" stroke-opacity="1.0" stroke-width="3.0" />
            <path d=" M 774.997, 549.678 774.767, 558.821 774.277, 568.809 774.159, 571.209 773.430, 581.182 773.253, 583.594 772.286, 593.548 772.053, 595.956 770.849, 605.883 770.559, 608.272 769.118, 618.167 768.775, 620.520 767.094, 630.378 766.702, 632.678 764.780, 642.492 764.343, 644.726 762.178, 654.489 761.701, 656.639 759.290, 666.344 758.779, 668.397 756.117, 678.036 755.581, 679.976 752.663, 689.541 752.109, 691.354 748.930, 700.835 748.369, 702.507 744.922, 711.894 744.364, 713.412 740.641, 722.694 740.099, 724.046 736.094, 733.209 735.580, 734.384 731.282, 743.414 730.811, 744.402 726.211, 753.281 725.800, 754.074 720.886, 762.784 720.552, 763.377 715.315, 771.896 715.076, 772.285 709.501, 780.587 709.378, 780.770 703.468, 788.807 697.355, 796.372 691.050, 803.437 684.562, 809.975 677.904, 815.960 671.089, 821.366 664.130, 826.166 657.043, 830.335 649.842, 833.848 642.545, 836.681 635.169, 838.808 627.734, 840.209 620.259, 840.862 612.766, 840.748 610.102, 840.427 " fill="none" stroke="rgb(0, 0, 0)" stroke-linecap="butt" stroke-linejoin="round" stroke-opacity="1.0" stroke-width="3.0" />
            <path d=" M 790.397, 538.791 790.330, 548.791 790.315, 550.987 780.394, 549.728 779.609, 549.629 775.013, 549.045 766.629, 547.982 765.924, 547.892 765.217, 547.803 764.510, 547.713 763.802, 547.624 762.972, 547.389 762.175, 546.898 761.428, 546.161 760.746, 545.192 760.144, 544.008 759.632, 542.632 759.220, 541.089 758.916, 539.410 758.727, 537.626 758.704, 537.015 758.656, 535.772 758.705, 533.883 758.872, 531.997 759.141, 530.241 759.155, 530.150 759.548, 528.378 760.043, 526.714 760.631, 525.191 761.299, 523.838 762.036, 522.680 762.825, 521.741 763.506, 521.049 763.631, 520.922 764.187, 520.357 764.867, 519.667 765.545, 518.977 765.886, 518.632 772.910, 511.513 778.522, 505.825 785.545, 498.706 788.433, 495.780 789.206, 505.750 789.297, 506.920 789.603, 511.423 790.068, 521.412 790.093, 521.955 " fill="none" stroke="rgb(0, 0, 0)" stroke-linecap="butt" stroke-linejoin="round" stroke-opacity="1.0" stroke-width="3.0" />
            <path d=" M 764.563, 537.399 764.256, 537.244 763.977, 536.946 763.740, 536.520 763.555, 535.985 763.429, 535.362 763.369, 534.681 763.377, 533.970 763.453, 533.260 763.592, 532.584 763.790, 531.970 764.038, 531.446 764.324, 531.035 764.636, 530.754 764.959, 530.616 765.281, 530.626 " fill="none" stroke="rgb(0, 0, 0)" stroke-linecap="butt" stroke-linejoin="round" stroke-opacity="1.0" stroke-width="3.0" />
            <path d=" M 765.281, 530.626 765.588, 530.784 765.865, 531.083 766.101, 531.508 766.285, 532.043 766.410, 532.664 766.470, 533.344 766.462, 534.052 766.387, 534.759 766.247, 535.433 766.051, 536.045 765.805, 536.569 765.520, 536.981 765.208, 537.264 764.885, 537.406 764.563, 537.399 " fill="none" stroke="rgb(0, 0, 0)" stroke-linecap="butt" stroke-linejoin="round" stroke-opacity="1.0" stroke-width="3.0" />
            <path d=" M 800.531, 535.528 800.505, 545.528 800.501, 547.199 800.242, 557.195 800.163, 560.276 799.674, 570.264 799.522, 573.374 798.805, 583.348 798.580, 586.471 797.634, 596.426 797.338, 599.546 796.164, 609.476 795.797, 612.575 794.394, 622.476 793.960, 625.537 792.325, 635.403 791.827, 638.411 789.960, 648.235 789.402, 651.172 787.299, 660.949 786.686, 663.800 784.343, 673.521 783.681, 676.269 781.095, 685.929 780.392, 688.558 777.558, 698.148 776.820, 700.643 773.732, 710.154 772.970, 712.499 769.620, 721.921 768.845, 724.101 765.227, 733.424 764.450, 735.426 760.555, 744.636 759.789, 746.447 755.607, 755.531 754.867, 757.138 750.388, 766.079 749.689, 767.473 744.903, 776.254 744.264, 777.426 739.158, 786.025 738.597, 786.969 733.157, 795.361 732.695, 796.074 726.910, 804.230 726.568, 804.712 720.424, 812.602 720.225, 812.857 713.675, 820.479 706.929, 827.548 699.999, 834.037 692.899, 839.917 685.642, 845.158 678.243, 849.732 670.718, 853.612 663.085, 856.771 655.362, 859.180 647.570, 860.816 639.728, 861.655 631.859, 861.674 623.987, 860.850 616.137, 859.169 608.333, 856.614 600.603, 853.169 592.974, 848.825 585.476, 843.576 578.136, 837.419 570.987, 830.353 564.425, 822.807 564.056, 822.384 558.037, 814.399 557.376, 813.522 551.885, 805.164 550.976, 803.781 545.997, 795.109 544.888, 793.177 541.499, 786.432 539.141, 781.738 538.866, 781.113 537.531, 778.074 533.763, 769.493 532.385, 765.891 531.084, 762.490 528.784, 756.474 525.641, 746.981 525.518, 746.609 524.231, 742.722 523.250, 739.268 520.517, 729.649 520.128, 728.282 517.789, 718.560 516.500, 713.204 514.540, 703.399 513.369, 697.542 511.774, 687.671 510.753, 681.356 510.116, 676.265 508.874, 666.343 508.670, 664.709 507.771, 654.750 507.133, 647.668 504.455, 638.033 501.991, 629.164 " fill="none" stroke="rgb(0, 0, 0)" stroke-linecap="butt" stroke-linejoin="round" stroke-opacity="1.0" stroke-width="3.0" />
            <path d=" M 668.962, 286.406 661.028, 286.586 658.279, 286.940 652.992, 287.621 644.876, 289.531 636.706, 292.329 628.508, 296.028 620.308, 300.639 612.136, 306.166 604.306, 312.386 604.022, 312.611 596.652, 319.370 595.995, 319.972 589.086, 327.201 588.089, 328.243 581.631, 335.879 580.335, 337.411 574.318, 345.399 572.766, 347.459 570.281, 351.147 569.850, 351.787 565.416, 358.365 563.440, 361.634 560.909, 365.819 559.269, 368.532 558.319, 370.104 554.010, 378.031 552.328, 381.127 551.506, 382.640 547.116, 391.625 545.010, 395.936 540.994, 405.094 540.911, 405.283 538.864, 409.950 535.209, 419.258 533.099, 424.633 529.793, 434.071 527.742, 439.930 524.778, 449.481 522.821, 455.784 520.191, 465.432 518.365, 472.133 516.061, 481.864 514.394, 488.909 512.412, 498.711 510.929, 506.043 509.265, 515.903 508.302, 521.613 507.990, 523.462 506.642, 533.370 505.592, 541.091 504.558, 551.037 503.745, 558.853 503.026, 568.827 502.460, 576.672 502.057, 586.664 501.742, 594.469 501.658, 604.469 501.594, 612.167 501.828, 622.165 501.991, 629.164 500.863, 639.101 499.815, 648.335 " fill="none" stroke="rgb(0, 0, 0)" stroke-linecap="butt" stroke-linejoin="round" stroke-opacity="1.0" stroke-width="3.0" />
            <path d=" M 501.420, 665.922 502.674, 675.843 503.592, 683.098 505.201, 692.967 506.200, 699.092 506.314, 699.792 508.290, 709.594 509.569, 715.938 511.927, 725.656 513.338, 731.473 516.092, 741.087 517.597, 746.342 520.087, 753.800 522.321, 760.493 522.327, 760.510 525.926, 769.840 527.483, 773.878 528.268, 775.651 529.613, 778.687 533.055, 786.457 535.012, 790.315 536.389, 793.030 539.007, 798.195 539.102, 798.358 544.117, 807.009 545.308, 809.063 550.839, 817.394 551.927, 819.034 557.990, 826.987 558.833, 828.092 565.441, 835.598 565.992, 836.224 573.152, 843.204 573.373, 843.419 580.945, 849.674 588.677, 854.990 596.537, 859.373 604.498, 862.828 612.530, 865.369 620.605, 867.011 628.698, 867.773 636.783, 867.671 644.836, 866.731 652.835, 864.976 660.758, 862.432 668.586, 859.123 676.300, 855.081 683.882, 850.332 691.317, 844.906 698.588, 838.830 705.683, 832.137 712.589, 824.856 719.087, 817.256 719.292, 817.016 725.421, 809.113 725.784, 808.645 731.556, 800.479 732.054, 799.775 737.482, 791.377 738.092, 790.434 743.190, 781.831 743.890, 780.649 748.671, 771.866 749.442, 770.450 753.917, 761.507 754.739, 759.863 758.920, 750.779 759.777, 748.917 763.672, 739.707 764.547, 737.636 768.167, 728.314 769.047, 726.048 772.400, 716.627 773.271, 714.179 776.364, 704.669 777.215, 702.052 780.054, 692.463 780.874, 689.693 783.465, 680.034 784.246, 677.126 786.594, 667.406 787.326, 664.376 789.436, 654.601 790.113, 651.464 791.987, 641.641 792.602, 638.415 794.244, 628.551 794.792, 625.252 796.203, 615.352 796.681, 611.997 797.862, 602.067 798.266, 598.672 799.218, 588.718 799.545, 585.301 800.268, 575.327 800.516, 571.905 801.010, 561.917 801.178, 558.507 801.441, 548.510 801.530, 545.128 801.558, 535.593 " fill="none" stroke="rgb(0, 0, 0)" stroke-linecap="butt" stroke-linejoin="round" stroke-opacity="1.0" stroke-width="3.0" />
            <path d=" M 499.815, 648.335 500.724, 658.294 501.420, 665.922 " fill="none" stroke="rgb(0, 0, 0)" stroke-linecap="butt" stroke-linejoin="round" stroke-opacity="1.0" stroke-width="3.0" />
            <path d=" M 815.617, 420.700 814.495, 414.806 812.394, 405.029 812.133, 403.815 809.791, 394.093 809.533, 393.023 806.941, 383.365 806.695, 382.447 803.846, 372.862 803.621, 372.102 800.507, 362.599 800.312, 362.003 796.924, 352.595 796.770, 352.168 793.096, 342.867 792.996, 342.614 788.991, 333.361 784.755, 324.429 780.291, 315.839 775.601, 307.613 770.689, 299.767 765.558, 292.318 760.215, 285.287 754.661, 278.692 748.904, 272.555 742.948, 266.898 736.798, 261.746 730.462, 257.122 723.947, 253.047 717.263, 249.537 710.419, 246.610 703.425, 244.283 696.292, 242.577 689.031, 241.510 681.656, 241.104 674.180, 241.378 673.563, 241.457 666.619, 242.351 658.987, 244.036 651.301, 246.439 643.578, 249.572 635.836, 253.440 628.094, 258.053 620.372, 263.417 612.693, 269.537 607.980, 273.794 605.077, 276.417 598.057, 283.540 597.548, 284.057 590.923, 291.548 590.128, 292.447 587.010, 296.351 582.838, 301.575 577.570, 308.848 575.702, 311.427 570.200, 319.777 568.743, 321.988 566.726, 325.345 566.228, 326.174 561.984, 333.241 561.351, 334.395 558.816, 339.021 557.218, 341.937 555.449, 345.164 551.983, 352.098 550.356, 355.354 549.164, 357.737 545.019, 366.837 543.154, 370.932 540.894, 376.383 539.155, 380.580 537.440, 384.718 533.917, 394.077 532.043, 399.055 528.818, 408.520 526.983, 413.903 524.047, 423.462 522.278, 429.221 519.625, 438.863 517.946, 444.964 515.571, 454.678 514.005, 461.086 511.906, 470.864 510.473, 477.540 508.648, 487.372 507.367, 494.273 505.813, 504.152 504.698, 511.234 503.411, 521.151 503.360, 521.543 502.475, 528.365 501.453, 538.312 500.703, 545.610 499.947, 555.582 499.390, 562.914 498.901, 572.902 498.543, 580.220 498.323, 590.218 498.164, 597.471 498.214, 607.471 498.251, 614.611 498.575, 624.606 498.802, 631.584 499.405, 641.565 499.815, 648.335 500.702, 658.296 501.283, 664.812 501.420, 665.922 502.594, 675.853 503.197, 680.963 504.671, 690.854 505.548, 696.740 506.083, 699.698 507.862, 709.539 508.324, 712.097 510.418, 721.876 511.513, 726.989 513.932, 736.692 515.099, 741.374 517.852, 750.988 519.064, 755.218 519.473, 756.472 521.676, 763.225 523.391, 768.485 526.853, 777.866 527.425, 779.416 528.062, 781.143 528.687, 782.645 532.528, 791.878 533.062, 793.161 533.986, 795.137 535.313, 797.976 537.986, 803.696 538.368, 804.512 543.010, 813.369 543.959, 815.180 549.023, 823.803 549.812, 825.147 555.311, 833.500 555.905, 834.402 561.854, 842.440 562.217, 842.931 568.627, 850.607 568.727, 850.726 575.414, 857.778 582.258, 864.081 589.239, 869.634 596.333, 874.443 603.521, 878.516 610.782, 881.863 618.096, 884.493 624.044, 886.048 625.447, 886.414 632.816, 887.639 640.188, 888.176 647.547, 888.037 654.877, 887.239 662.162, 885.805 669.390, 883.754 676.546, 881.106 683.619, 877.880 690.596, 874.094 697.469, 869.765 704.225, 864.911 710.856, 859.548 717.352, 853.700 723.707, 847.389 729.911, 840.638 735.959, 833.467 741.845, 825.896 747.561, 817.941 753.103, 809.621 758.362, 801.116 758.464, 800.952 763.448, 792.282 763.639, 791.950 768.360, 783.134 768.626, 782.637 773.091, 773.690 773.419, 773.033 777.640, 763.968 778.017, 763.157 782.000, 753.984 782.417, 753.024 786.168, 743.755 786.614, 742.653 790.140, 733.295 790.607, 732.057 793.912, 722.619 794.391, 721.252 797.480, 711.741 797.963, 710.253 800.840, 700.676 801.321, 699.074 803.993, 689.437 804.465, 687.733 806.935, 678.043 807.393, 676.246 809.665, 666.508 810.103, 664.628 812.180, 654.846 812.595, 652.892 814.480, 643.071 814.867, 641.053 816.560, 631.197 816.916, 629.125 818.418, 619.238 818.739, 617.120 820.051, 607.206 820.336, 605.052 821.460, 595.116 821.707, 592.937 822.645, 582.981 822.851, 580.788 823.602, 570.816 823.768, 568.618 824.331, 558.633 824.454, 556.440 824.829, 546.447 824.910, 544.269 825.095, 534.271 825.135, 532.119 825.131, 525.833 " fill="none" stroke="rgb(0, 0, 0)" stroke-linecap="butt" stroke-linejoin="round" stroke-opacity="1.0" stroke-width="3.0" />
            <path d=" M 671.951, 241.516 664.379, 242.490 656.737, 244.174 649.041, 246.576 641.308, 249.706 633.557, 253.572 625.806, 258.181 618.076, 263.540 610.387, 269.655 606.538, 273.125 602.763, 276.529 595.736, 283.644 595.226, 284.161 588.594, 291.645 587.798, 292.543 581.550, 300.351 581.031, 301.000 580.502, 301.661 574.628, 309.755 573.359, 311.503 570.890, 315.243 566.393, 322.054 566.266, 322.265 565.758, 323.109 561.040, 330.948 559.628, 333.294 558.483, 335.380 556.896, 338.269 553.088, 345.205 551.630, 348.117 550.013, 351.345 546.798, 357.764 542.646, 366.862 540.783, 370.945 538.770, 375.793 535.065, 384.715 531.537, 394.072 529.665, 399.036 529.579, 399.289 526.348, 408.753 524.602, 413.868 521.661, 423.425 519.894, 429.168 517.237, 438.809 515.560, 444.893 513.182, 454.606 511.617, 460.997 509.516, 470.774 508.084, 477.431 506.257, 487.263 504.977, 494.146 503.422, 504.024 502.309, 511.087 501.999, 513.473 501.995, 513.508 500.955, 521.509 500.086, 528.198 499.063, 538.146 498.315, 545.424 497.559, 555.395 497.004, 562.708 496.515, 572.696 496.159, 579.995 495.940, 589.992 495.781, 597.226 495.834, 607.226 495.871, 614.346 496.198, 624.341 496.426, 631.300 497.032, 641.282 497.442, 648.033 498.333, 657.993 498.914, 664.492 500.096, 674.422 500.834, 680.626 502.312, 690.516 503.190, 696.387 504.904, 705.839 505.971, 711.728 508.071, 721.505 509.166, 726.604 511.591, 736.305 512.758, 740.975 515.518, 750.587 516.730, 754.805 518.566, 760.422 520.723, 767.018 521.064, 768.060 524.533, 777.438 525.742, 780.707 526.623, 782.820 527.919, 785.927 530.749, 792.713 533.306, 798.170 534.629, 800.993 536.063, 804.055 537.375, 806.552 541.662, 814.714 546.734, 823.332 547.524, 824.674 553.031, 833.021 553.626, 833.922 559.582, 841.954 559.946, 842.446 566.364, 850.115 566.465, 850.236 573.161, 857.284 580.015, 863.584 587.005, 869.134 594.110, 873.942 601.307, 878.016 608.578, 881.363 615.902, 883.994 623.263, 885.918 " fill="none" stroke="rgb(0, 0, 0)" stroke-linecap="butt" stroke-linejoin="round" stroke-opacity="1.0" stroke-width="3.0" />
            <path d=" M 674.180, 241.378 671.951, 241.516 " fill="none" stroke="rgb(0, 0, 0)" stroke-linecap="butt" stroke-linejoin="round" stroke-opacity="1.0" stroke-width="3.0" />
            <path d=" M 623.263, 885.918 625.447, 886.414 " fill="none" stroke="rgb(0, 0, 0)" stroke-linecap="butt" stroke-linejoin="round" stroke-opacity="1.0" stroke-width="3.0" />
            <path d=" M 481.768, 650.492 482.677, 660.451 483.490, 669.357 484.694, 679.284 485.731, 687.833 487.237, 697.719 488.477, 705.863 490.293, 715.697 491.714, 723.391 493.850, 733.160 495.425, 740.365 496.312, 743.852 498.109, 750.916 499.591, 756.738 502.399, 766.335 503.793, 771.101 504.192, 772.464 507.354, 781.950 508.880, 786.527 509.206, 787.504 510.399, 790.665 512.375, 795.899 512.871, 797.212 514.067, 800.381 514.611, 801.822 518.526, 811.023 519.016, 812.174 520.250, 815.073 520.382, 815.386 522.277, 819.347 523.560, 822.030 526.144, 827.433 526.496, 828.169 527.480, 830.002 527.811, 830.619 530.478, 835.588 532.926, 840.147 538.086, 848.713 539.647, 851.303 545.253, 859.584 546.633, 861.621 552.699, 869.571 553.857, 871.090 560.394, 878.658 561.296, 879.703 568.308, 886.832 568.921, 887.456 576.409, 894.084 576.709, 894.349 584.634, 900.385 592.673, 905.570 600.803, 909.912 609.000, 913.422 617.243, 916.114 621.577, 917.161 629.823, 919.043 638.074, 920.137 646.312, 920.460 654.519, 920.032 662.678, 918.875 670.773, 917.009 678.789, 914.457 686.712, 911.243 694.529, 907.388 702.229, 902.917 709.800, 897.854 717.231, 892.222 724.513, 886.044 731.638, 879.345 738.596, 872.147 745.220, 864.656 745.381, 864.474 751.689, 856.714 751.986, 856.347 757.987, 848.348 758.405, 847.790 764.109, 839.577 764.631, 838.825 770.049, 830.420 770.661, 829.471 775.803, 820.894 776.489, 819.751 781.364, 811.020 782.110, 809.684 786.729, 800.815 787.522, 799.292 791.892, 790.297 792.720, 788.592 796.849, 779.484 797.702, 777.604 801.598, 768.394 802.464, 766.346 806.134, 757.043 807.005, 754.836 810.455, 745.450 811.321, 743.092 814.557, 733.630 815.411, 731.131 818.437, 721.600 819.273, 718.969 822.094, 709.375 822.904, 706.622 825.526, 696.972 826.304, 694.107 828.729, 684.406 829.470, 681.439 831.702, 671.691 832.402, 668.633 834.443, 658.844 835.098, 655.704 836.951, 645.877 837.556, 642.666 839.224, 632.806 839.777, 629.535 841.259, 619.645 841.757, 616.323 843.057, 606.408 843.497, 603.046 844.615, 593.108 844.996, 589.716 845.931, 579.760 846.251, 576.349 847.005, 566.378 847.263, 562.958 847.835, 552.974 848.030, 549.556 848.419, 539.564 848.551, 536.158 848.756, 526.160 848.826, 522.776 848.846, 512.776 848.852, 509.426 848.685, 499.428 848.630, 496.121 848.274, 486.128 848.158, 482.875 847.610, 472.890 847.435, 469.703 846.693, 459.731 846.461, 456.620 845.520, 446.664 845.234, 443.639 844.091, 433.705 843.754, 430.777 842.403, 420.868 842.019, 418.048 840.457, 408.171 840.030, 405.470 838.250, 395.629 837.785, 393.057 835.781, 383.260 835.284, 380.826 833.049, 371.079 832.526, 368.796 830.053, 359.106 829.511, 356.982 826.792, 347.359 826.240, 345.404 823.265, 335.856 822.712, 334.079 819.472, 324.618 818.927, 323.027 815.411, 313.665 814.886, 312.267 811.083, 303.018 810.590, 301.819 806.487, 292.700 806.039, 291.705 801.624, 282.732 801.237, 281.945 796.495, 273.140 796.183, 272.560 791.101, 263.948 790.881, 263.574 785.445, 255.181 785.333, 255.009 779.543, 246.888 773.515, 239.234 767.252, 232.073 760.761, 225.428 754.047, 219.323 747.117, 213.784 739.977, 208.836 732.638, 204.503 725.107, 200.811 717.395, 197.783 709.514, 195.444 701.475, 193.818 693.293, 192.927 684.981, 192.793 676.555, 193.438 672.120, 193.807 663.575, 195.250 654.953, 197.507 646.271, 200.594 637.551, 204.526 628.814, 209.314 620.420, 214.749 620.083, 214.967 612.083, 220.967 611.383, 221.492 603.786, 227.995 602.737, 228.893 595.546, 235.842 594.172, 237.171 587.383, 244.514 585.713, 246.321 579.322, 254.012 578.146, 255.427 577.389, 256.337 571.385, 264.334 569.227, 267.209 563.601, 275.476 561.256, 278.922 558.930, 282.683 558.292, 283.715 556.429, 286.727 554.820, 289.327 553.742, 291.071 553.503, 291.457 553.328, 291.768 552.188, 293.794 549.103, 299.274 547.550, 302.033 546.730, 303.490 545.997, 304.791 545.158, 306.428 540.597, 315.328 538.919, 318.600 538.767, 318.897 537.386, 321.857 533.828, 329.482 531.841, 333.742 527.936, 342.948 525.245, 349.291 524.677, 350.769 521.086, 360.102 519.008, 365.504 515.723, 374.949 513.154, 382.335 510.167, 391.878 507.708, 399.736 505.013, 409.366 502.693, 417.655 500.284, 427.361 498.130, 436.037 496.760, 442.328 494.688, 451.844 494.039, 454.822 492.189, 464.649 490.438, 473.949 488.862, 483.824 487.342, 493.354 486.038, 503.268 485.501, 507.360 484.858, 512.250 484.853, 512.289 484.763, 512.970 484.384, 516.630 484.091, 519.446 484.070, 519.647 484.057, 519.780 484.045, 519.892 483.013, 529.839 482.713, 532.731 481.952, 542.702 481.199, 552.568 480.710, 562.556 480.227, 572.412 480.011, 582.409 479.799, 592.194 479.859, 602.194 479.916, 611.846 480.254, 621.840 480.574, 631.300 480.740, 633.972 481.361, 643.952 481.768, 650.492 " fill="none" stroke="rgb(0, 0, 0)" stroke-linecap="butt" stroke-linejoin="round" stroke-opacity="1.0" stroke-width="3.0" />
            <path d=" M 676.555, 193.438 668.033, 194.881 659.433, 197.139 650.773, 200.229 642.074, 204.165 633.358, 208.960 624.974, 214.410 624.648, 214.622 616.659, 220.636 615.967, 221.158 608.383, 227.675 607.340, 228.572 600.162, 235.535 598.792, 236.864 592.018, 244.220 590.351, 246.031 583.974, 253.734 582.043, 256.067 580.921, 257.568 574.932, 265.577 573.897, 266.961 568.285, 275.238 565.940, 278.697 560.694, 287.211 560.084, 288.201 559.459, 289.215 558.200, 291.258 557.196, 293.049 554.562, 297.745 553.014, 300.506 550.707, 304.621 547.639, 310.629 546.072, 313.697 543.488, 318.757 539.273, 327.825 536.572, 333.634 534.866, 337.670 530.973, 346.882 529.986, 349.218 526.406, 358.555 523.757, 365.466 522.216, 369.909 518.941, 379.358 517.909, 382.335 514.932, 391.881 512.469, 399.776 509.782, 409.408 507.458, 417.736 505.056, 427.443 502.899, 436.160 500.777, 445.932 498.811, 454.988 496.965, 464.816 495.211, 474.159 495.055, 475.136 493.483, 485.012 492.115, 493.609 491.249, 500.208 490.300, 507.438 489.535, 513.271 489.293, 515.607 489.178, 516.713 488.865, 519.732 488.792, 520.439 487.762, 530.386 487.483, 533.077 487.035, 538.946 486.274, 548.917 485.966, 552.960 485.861, 555.100 485.370, 565.088 484.989, 572.849 484.771, 582.846 484.556, 592.676 484.612, 602.676 484.666, 612.372 484.999, 622.367 485.316, 631.871 485.932, 641.852 486.078, 644.234 486.502, 651.105 487.404, 661.064 488.215, 670.010 489.411, 679.939 490.093, 685.604 490.331, 687.577 490.445, 688.527 491.942, 698.414 493.180, 706.595 494.986, 716.431 496.405, 724.159 498.529, 733.931 498.653, 734.500 500.102, 741.168 502.556, 750.862 504.254, 757.573 507.049, 767.174 508.840, 773.329 511.989, 782.821 512.383, 784.007 513.839, 788.398 514.330, 789.703 517.846, 799.064 518.320, 800.325 519.228, 802.741 520.693, 806.201 521.953, 809.177 524.982, 816.329 527.610, 821.849 528.904, 824.565 531.078, 829.133 531.795, 830.474 536.508, 839.294 537.490, 841.131 542.634, 849.707 544.192, 852.304 549.783, 860.595 551.159, 862.636 557.209, 870.598 558.364, 872.117 564.885, 879.698 565.781, 880.739 572.780, 887.882 573.386, 888.500 580.863, 895.141 581.153, 895.399 589.057, 901.438 597.074, 906.625 605.181, 910.966 613.356, 914.474 621.577, 917.161 " fill="none" stroke="rgb(0, 0, 0)" stroke-linecap="butt" stroke-linejoin="round" stroke-opacity="1.0" stroke-width="3.0" />
            <path d=" M 729.905, 518.280 729.032, 518.290 728.147, 518.525 727.266, 518.982 726.403, 519.653 725.608, 520.531 725.313, 520.974 724.896, 521.601 724.247, 522.844 723.671, 524.237 723.178, 525.758 722.778, 527.380 722.679, 527.934 722.476, 529.076 722.313, 530.518 722.279, 530.817 722.190, 532.572 722.209, 534.312 " fill="none" stroke="rgb(0, 0, 0)" stroke-linecap="butt" stroke-linejoin="round" stroke-opacity="1.0" stroke-width="3.0" />
            <path d=" M 728.886, 528.325 729.142, 528.400 729.385, 528.565 729.606, 528.814 729.801, 529.142 729.964, 529.538 730.090, 529.992 730.177, 530.492 730.221, 531.025 " fill="none" stroke="rgb(0, 0, 0)" stroke-linecap="butt" stroke-linejoin="round" stroke-opacity="1.0" stroke-width="3.0" />
            <path d=" M 727.137, 530.827 730.221, 531.025 739.473, 527.229 748.724, 523.433 749.867, 522.964 " fill="none" stroke="rgb(0, 0, 0)" stroke-linecap="butt" stroke-linejoin="round" stroke-opacity="1.0" stroke-width="3.0" />
            <path d=" M 803.054, 522.564 802.223, 522.578 801.380, 522.825 800.537, 523.300 799.752, 523.961 799.710, 523.996 798.949, 524.905 798.668, 525.364 798.269, 526.013 797.648, 527.297 797.094, 528.737 796.619, 530.308 796.230, 531.984 796.134, 532.556 795.935, 533.735 795.771, 535.223 795.737, 535.531 795.641, 537.342 795.649, 539.136 " fill="none" stroke="rgb(0, 0, 0)" stroke-linecap="butt" stroke-linejoin="round" stroke-opacity="1.0" stroke-width="3.0" />
            <path d=" M 801.996, 532.924 802.237, 533.001 802.465, 533.169 802.673, 533.425 802.855, 533.762 803.006, 534.169 803.122, 534.637 803.201, 535.152 803.239, 535.701 " fill="none" stroke="rgb(0, 0, 0)" stroke-linecap="butt" stroke-linejoin="round" stroke-opacity="1.0" stroke-width="3.0" />
            <path d=" M 780.730, 482.499 780.879, 482.444 781.036, 482.414 781.197, 482.408 781.417, 482.440 781.630, 482.517 781.829, 482.637 782.005, 482.794 782.153, 482.982 782.268, 483.198 782.344, 483.435 782.377, 483.688 782.364, 483.925 782.309, 484.150 782.214, 484.357 782.082, 484.537 781.919, 484.683 781.728, 484.791 " fill="none" stroke="rgb(0, 0, 0)" stroke-linecap="butt" stroke-linejoin="round" stroke-opacity="1.0" stroke-width="3.0" />
            <path d=" M 780.730, 482.499 780.531, 482.608 780.352, 482.757 780.325, 482.787 780.175, 482.975 780.063, 483.190 779.995, 483.426 779.978, 483.678 780.010, 483.915 780.021, 483.955 780.098, 484.179 780.219, 484.383 780.377, 484.558 780.568, 484.700 780.601, 484.721 780.810, 484.817 780.851, 484.830 781.060, 484.876 781.090, 484.881 781.126, 484.886 781.169, 484.888 781.219, 484.889 781.270, 484.889 781.320, 484.886 781.369, 484.882 781.414, 484.877 781.455, 484.871 781.489, 484.863 781.677, 484.806 781.728, 484.791 " fill="none" stroke="rgb(0, 0, 0)" stroke-linecap="butt" stroke-linejoin="round" stroke-opacity="1.0" stroke-width="3.0" />
            <path d=" M 778.296, 480.442 778.514, 486.593 782.312, 486.760 784.190, 486.842 784.841, 486.432 784.122, 480.622 781.657, 480.466 778.728, 480.281 778.296, 480.442 " fill="none" stroke="rgb(0, 0, 0)" stroke-linecap="butt" stroke-linejoin="round" stroke-opacity="1.0" stroke-width="3.0" />
            <path d=" M 784.190, 486.842 783.976, 480.677 " fill="none" stroke="rgb(0, 0, 0)" stroke-linecap="butt" stroke-linejoin="round" stroke-opacity="1.0" stroke-width="3.0" />
            <path d=" M 784.122, 480.622 783.976, 480.677 778.296, 480.442 " fill="none" stroke="rgb(0, 0, 0)" stroke-linecap="butt" stroke-linejoin="round" stroke-opacity="1.0" stroke-width="3.0" />
            <path d=" M 740.585, 513.307 739.137, 513.270 729.138, 513.143 727.637, 513.123 717.637, 513.116 716.154, 513.115 706.155, 513.216 704.684, 513.231 694.685, 513.429 693.220, 513.458 683.224, 513.743 681.760, 513.784 671.766, 514.144 670.296, 514.197 660.305, 514.620 658.826, 514.683 648.838, 515.161 647.344, 515.232 637.357, 515.753 635.845, 515.832 625.860, 516.386 624.325, 516.471 614.342, 517.049 612.779, 517.139 602.796, 517.730 601.202, 517.824 591.220, 518.419 589.590, 518.517 579.608, 519.107 577.938, 519.205 578.119, 509.207 578.202, 504.621 578.268, 494.621 578.298, 490.032 578.249, 480.032 578.227, 475.458 578.061, 465.459 577.986, 460.917 577.703, 450.921 577.576, 446.429 577.174, 436.437 576.996, 432.012 576.474, 422.026 576.247, 417.687 575.601, 407.707 575.326, 403.473 574.553, 393.503 574.234, 389.392 574.001, 386.821 " fill="none" stroke="rgb(0, 0, 0)" stroke-linecap="butt" stroke-linejoin="round" stroke-opacity="1.0" stroke-width="3.0" />
            <path d=" M 578.146, 255.427 570.520, 248.819 563.399, 241.799 562.775, 241.185 556.093, 233.746 555.369, 232.940 549.122, 225.131 548.314, 224.120 546.592, 221.711 541.623, 214.759 541.282, 214.226 541.030, 213.831 537.975, 209.058 535.304, 204.884 531.404, 198.083 529.362, 194.523 " fill="none" stroke="rgb(0, 0, 0)" stroke-linecap="butt" stroke-linejoin="round" stroke-opacity="1.0" stroke-width="3.0" />
            <path d=" M 529.362, 194.523 527.867, 191.945 525.230, 187.397 520.949, 180.980 519.923, 179.664 516.528, 175.309 515.954, 174.694 511.973, 170.427 507.290, 166.377 502.491, 163.197 502.364, 163.138 499.573, 161.847 497.584, 160.926 492.581, 159.607 487.494, 159.277 482.337, 159.972 477.124, 161.725 472.190, 164.398 471.871, 164.571 471.162, 165.104 466.598, 168.537 465.662, 169.444 461.320, 173.647 456.060, 179.919 453.548, 183.506 453.368, 183.762 450.839, 187.372 447.585, 192.819 445.677, 196.014 441.086, 204.898 440.598, 205.845 436.484, 214.960 435.626, 216.861 431.936, 226.156 430.786, 229.054 427.475, 238.490 426.103, 242.401 423.133, 251.949 421.601, 256.872 418.941, 266.511 417.308, 272.431 414.932, 282.145 413.246, 289.035 411.132, 298.809 409.442, 306.625 407.571, 316.449 405.917, 325.138 404.275, 335.003 402.695, 344.503 401.270, 354.401 399.845, 364.299 399.796, 364.639 398.577, 374.564 397.358, 384.489 397.240, 385.454 396.219, 395.402 395.197, 405.349 395.043, 406.854 394.213, 416.819 393.383, 426.785 393.221, 428.737 392.577, 438.717 391.934, 448.696 391.785, 450.998 391.324, 460.987 390.863, 470.977 390.745, 473.524 390.465, 483.520 390.184, 493.516 390.108, 496.201 390.138, 496.260 394.562, 505.228 395.827, 507.790 397.154, 510.361 401.630, 519.028 406.384, 527.826 407.520, 529.929 412.440, 538.635 413.498, 540.508 418.584, 549.118 419.565, 550.779 424.817, 559.288 425.722, 560.755 431.141, 569.159 431.972, 570.448 437.556, 578.744 438.315, 579.872 444.063, 588.055 444.754, 589.039 450.664, 597.105 451.289, 597.959 457.359, 605.906 457.923, 606.645 464.150, 614.470 464.657, 615.107 471.038, 622.806 471.493, 623.355 478.025, 630.927 478.433, 631.400 480.740, 633.972 " fill="none" stroke="rgb(0, 0, 0)" stroke-linecap="butt" stroke-linejoin="round" stroke-opacity="1.0" stroke-width="3.0" />
            <path d=" M 360.410, 486.917 356.043, 495.913 353.619, 500.908 " fill="none" stroke="rgb(0, 0, 0)" stroke-linecap="butt" stroke-linejoin="round" stroke-opacity="1.0" stroke-width="3.0" />
            <path d=" M 472.190, 164.398 468.130, 164.578 " fill="none" stroke="rgb(0, 0, 0)" stroke-linecap="butt" stroke-linejoin="round" stroke-opacity="1.0" stroke-width="3.0" />
            <path d=" M 534.422, 485.767 534.511, 485.802 " fill="none" stroke="rgb(0, 0, 0)" stroke-linecap="butt" stroke-linejoin="round" stroke-opacity="1.0" stroke-width="3.0" />
        </g>
    </g>
</svg>
