<?xml version='1.0' encoding='ascii'?>
<svg xmlns="http://www.w3.org/2000/svg" height="1080" version="1.1" width="1080">
    <g id="View Layer_LineSet" inkscape:groupmode="lineset" inkscape:label="View Layer_LineSet" xmlns:inkscape="http://www.inkscape.org/namespaces/inkscape">
        <g id="strokes" inkscape:groupmode="layer" inkscape:label="strokes" xmlns:inkscape="http://www.inkscape.org/namespaces/inkscape">
            <path d=" M 565.233, 503.381 565.175, 504.515 565.098, 505.620 565.003, 506.686 564.890, 507.701 564.763, 508.640 " fill="none" stroke="rgb(0, 0, 0)" stroke-linecap="butt" stroke-linejoin="round" stroke-opacity="1.0" stroke-width="3.0" />
            <path d=" M 353.190, 524.720 359.563, 524.976 " fill="none" stroke="rgb(0, 0, 0)" stroke-linecap="butt" stroke-linejoin="round" stroke-opacity="1.0" stroke-width="3.0" />
            <path d=" M 377.515, 525.312 387.515, 525.385 389.556, 525.400 " fill="none" stroke="rgb(0, 0, 0)" stroke-linecap="butt" stroke-linejoin="round" stroke-opacity="1.0" stroke-width="3.0" />
            <path d=" M 389.556, 525.400 385.612, 516.211 381.667, 507.022 380.685, 504.733 " fill="none" stroke="rgb(0, 0, 0)" stroke-linecap="butt" stroke-linejoin="round" stroke-opacity="1.0" stroke-width="3.0" />
            <path d=" M 465.366, 173.243 460.837, 174.241 456.255, 176.335 451.635, 179.559 446.994, 183.944 442.346, 189.512 440.293, 192.511 440.283, 192.526 440.281, 192.529 438.965, 194.453 437.712, 196.283 433.109, 204.274 428.684, 213.241 428.560, 213.493 424.620, 222.684 424.083, 223.938 420.567, 233.300 419.702, 235.604 416.558, 245.097 415.439, 248.478 412.625, 258.074 411.318, 262.534 408.799, 272.212 407.360, 277.739 405.108, 287.483 403.590, 294.051 401.583, 303.848 400.032, 311.420 398.249, 321.260 396.706, 329.781 395.132, 339.656 393.634, 349.063 392.257, 358.968 390.880, 368.873 390.836, 369.187 389.646, 379.115 388.455, 389.044 388.333, 390.063 387.319, 400.011 386.306, 409.960 386.139, 411.592 385.296, 421.557 384.453, 431.521 384.271, 433.672 383.593, 443.649 382.915, 453.626 382.740, 456.192 382.223, 466.179 381.707, 476.165 381.558, 479.037 381.200, 489.031 380.841, 499.025 380.731, 502.089 380.685, 504.733 379.163, 514.616 377.641, 524.500 377.515, 525.312 " fill="none" stroke="rgb(0, 0, 0)" stroke-linecap="butt" stroke-linejoin="round" stroke-opacity="1.0" stroke-width="3.0" />
            <path d=" M 566.923, 521.154 567.105, 521.158 567.993, 521.173 574.817, 520.918 577.899, 520.841 578.028, 510.842 578.090, 506.008 578.102, 496.008 578.108, 491.188 578.002, 481.188 577.951, 476.399 577.726, 466.402 577.619, 461.663 577.273, 451.669 577.112, 446.999 576.643, 437.010 576.428, 432.428 575.834, 422.445 575.568, 417.971 574.846, 407.997 574.531, 403.651 573.675, 393.687 573.315, 389.489 572.430, 380.606 " fill="none" stroke="rgb(0, 0, 0)" stroke-linecap="butt" stroke-linejoin="round" stroke-opacity="1.0" stroke-width="3.0" />
            <path d=" M 569.440, 385.861 570.374, 395.125 571.238, 405.087 571.549, 408.668 572.279, 418.641 572.552, 422.369 573.152, 432.351 573.384, 436.207 573.858, 446.196 574.046, 450.160 574.396, 460.154 574.538, 464.206 574.767, 474.203 574.861, 478.325 574.969, 488.325 575.014, 492.497 575.004, 502.497 575.000, 506.701 574.986, 507.798 574.901, 508.500 574.807, 509.166 574.707, 509.793 574.599, 510.378 574.484, 510.917 574.364, 511.408 574.238, 511.848 574.108, 512.234 573.974, 512.565 573.837, 512.838 573.698, 513.052 573.558, 513.207 573.416, 513.300 573.275, 513.332 569.247, 513.363 569.081, 512.173 568.888, 511.132 568.671, 510.258 568.433, 509.566 568.178, 509.068 567.911, 508.773 567.635, 508.686 567.276, 508.680 565.194, 508.646 564.763, 508.640 564.709, 508.639 563.760, 508.623 562.922, 508.610 559.349, 508.552 557.564, 508.523 557.459, 508.522 557.248, 508.518 556.958, 508.642 556.669, 508.974 556.387, 509.510 556.116, 510.242 555.860, 511.157 555.625, 512.240 555.561, 512.614 555.414, 513.474 555.231, 514.836 555.078, 516.305 554.960, 517.855 554.877, 519.459 554.851, 520.394 554.848, 520.528 554.832, 521.090 555.447, 521.100 557.294, 521.133 557.395, 521.135 559.180, 521.167 562.751, 521.230 563.587, 521.245 564.538, 521.262 565.298, 521.275 566.922, 521.214 566.923, 521.154 566.937, 520.698 566.942, 520.628 566.967, 520.196 567.011, 519.721 567.066, 519.286 567.133, 518.904 567.149, 518.836 567.208, 518.584 567.290, 518.336 567.376, 518.166 567.465, 518.079 567.553, 518.076 " fill="none" stroke="rgb(0, 0, 0)" stroke-linecap="butt" stroke-linejoin="round" stroke-opacity="1.0" stroke-width="3.0" />
            <path d=" M 386.562, 244.795 385.424, 248.628 382.878, 258.298 381.761, 262.542 379.480, 272.278 378.233, 277.607 376.192, 287.396 374.861, 293.784 373.039, 303.617 371.666, 311.027 370.044, 320.895 368.666, 329.274 367.230, 339.171 365.881, 348.458 364.618, 358.377 363.355, 368.297 363.329, 368.500 362.230, 378.440 361.130, 388.379 361.027, 389.317 360.083, 399.273 359.139, 409.228 358.989, 410.813 358.194, 420.781 357.400, 430.749 357.230, 432.885 356.580, 442.864 355.930, 452.843 355.762, 455.427 355.253, 465.414 354.743, 475.401 354.594, 478.326 354.223, 488.319 353.852, 498.312 353.735, 501.463 353.501, 511.461 353.267, 521.458 353.190, 524.720 353.138, 534.720 353.085, 544.720 353.069, 547.885 353.176, 557.885 353.284, 567.884 353.316, 570.902 353.585, 580.898 353.854, 590.894 353.928, 593.649 354.363, 603.640 354.798, 613.631 354.901, 616.012 355.506, 625.993 356.112, 635.975 356.227, 637.876 357.009, 647.846 357.792, 657.815 357.895, 659.137 358.863, 669.090 359.831, 679.043 359.895, 679.696 361.059, 689.628 362.211, 699.458 363.584, 709.363 364.829, 718.341 366.426, 728.213 367.730, 736.273 369.571, 746.102 370.897, 753.186 372.691, 761.513 " fill="none" stroke="rgb(0, 0, 0)" stroke-linecap="butt" stroke-linejoin="round" stroke-opacity="1.0" stroke-width="3.0" />
            <path d=" M 522.890, 538.739 522.588, 548.228 522.162, 558.219 521.987, 562.334 521.452, 572.320 521.235, 576.381 520.590, 586.361 520.332, 590.349 519.575, 600.320 519.279, 604.218 518.408, 614.180 518.077, 617.968 517.088, 627.919 516.995, 628.853 " fill="none" stroke="rgb(0, 0, 0)" stroke-linecap="butt" stroke-linejoin="round" stroke-opacity="1.0" stroke-width="3.0" />
            <path d=" M 497.574, 745.401 495.109, 754.988 492.408, 764.617 492.160, 765.502 489.229, 775.063 489.074, 775.568 485.892, 785.048 485.855, 785.157 482.505, 794.235 479.027, 802.767 475.426, 810.720 471.706, 818.057 467.873, 824.742 463.932, 830.736 459.890, 836.004 455.755, 840.507 451.975, 843.821 " fill="none" stroke="rgb(0, 0, 0)" stroke-linecap="butt" stroke-linejoin="round" stroke-opacity="1.0" stroke-width="3.0" />
            <path d=" M 389.657, 520.168 389.556, 525.400 389.499, 535.400 389.442, 545.400 389.424, 548.509 389.528, 558.508 389.633, 568.508 389.663, 571.470 389.931, 581.466 390.198, 591.463 390.270, 594.164 390.703, 604.155 391.137, 614.145 391.238, 616.476 391.842, 626.458 392.447, 636.440 392.559, 638.294 393.339, 648.263 394.120, 658.233 394.220, 659.513 395.183, 669.466 396.147, 679.420 396.206, 680.033 397.362, 689.966 398.502, 699.763 399.862, 709.671 401.090, 718.620 402.666, 728.495 403.949, 736.529 405.758, 746.364 407.058, 753.427 409.121, 763.211 410.396, 769.254 412.737, 778.976 413.939, 783.966 416.589, 793.609 417.666, 797.528 420.661, 807.069 421.553, 809.910 424.940, 819.318 425.578, 821.091 429.413, 830.326 429.719, 831.063 433.953, 839.824 438.262, 847.375 439.900, 849.761 440.168, 850.152 442.623, 853.727 447.020, 858.899 451.433, 862.911 455.846, 865.788 460.244, 867.560 464.612, 868.263 468.937, 867.931 473.206, 866.599 477.409, 864.310 481.535, 861.105 484.208, 858.407 485.577, 857.023 489.526, 852.106 493.375, 846.396 497.117, 839.935 500.747, 832.761 504.260, 824.917 507.653, 816.441 510.922, 807.371 514.025, 797.865 514.064, 797.744 514.283, 797.008 " fill="none" stroke="rgb(0, 0, 0)" stroke-linecap="butt" stroke-linejoin="round" stroke-opacity="1.0" stroke-width="3.0" />
            <path d=" M 464.623, 849.875 460.708, 849.040 460.546, 849.006 456.455, 847.125 452.365, 844.203 451.975, 843.821 448.291, 840.212 444.247, 835.133 440.250, 828.949 436.317, 821.644 432.466, 813.212 428.813, 803.903 428.715, 803.652 425.495, 794.185 425.082, 792.970 422.241, 783.383 421.588, 781.177 419.080, 771.496 418.250, 768.292 416.039, 758.539 415.088, 754.345 413.145, 744.536 412.121, 739.372 410.421, 729.517 409.368, 723.414 407.891, 713.523 406.846, 706.526 405.576, 696.607 404.572, 688.770 403.495, 678.828 402.562, 670.213 401.667, 660.254 400.830, 650.934 400.108, 640.960 399.388, 631.016 398.832, 621.032 398.276, 611.047 398.249, 610.552 397.853, 600.560 397.457, 590.567 397.420, 589.636 397.180, 579.639 396.940, 569.642 396.910, 568.372 396.823, 558.372 396.735, 548.373 396.722, 546.865 396.785, 536.865 396.826, 530.497 " fill="none" stroke="rgb(0, 0, 0)" stroke-linecap="butt" stroke-linejoin="round" stroke-opacity="1.0" stroke-width="3.0" />
            <path d=" M 510.793, 788.091 508.783, 794.042 505.608, 802.553 502.323, 810.484 498.931, 817.803 495.437, 824.470 491.847, 830.448 488.167, 835.701 484.403, 840.192 480.563, 843.880 476.655, 846.728 472.689, 848.702 468.675, 849.763 464.623, 849.875 " fill="none" stroke="rgb(0, 0, 0)" stroke-linecap="butt" stroke-linejoin="round" stroke-opacity="1.0" stroke-width="3.0" />
            <path d=" M 554.848, 520.528 548.932, 520.413 548.079, 520.396 546.364, 520.362 546.155, 530.360 546.069, 534.497 545.762, 544.492 545.635, 548.610 545.230, 558.602 545.064, 562.684 544.560, 572.671 544.356, 576.698 543.751, 586.680 543.512, 590.634 542.804, 600.609 542.531, 604.471 541.719, 614.438 541.414, 618.190 540.495, 628.147 540.161, 631.769 539.132, 641.716 538.773, 645.187 537.630, 655.121 537.251, 658.423 535.990, 668.343 535.594, 671.454 534.209, 681.358 533.804, 684.257 532.289, 694.142 531.880, 696.809 530.710, 703.797 529.825, 709.084 529.374, 711.553 " fill="none" stroke="rgb(0, 0, 0)" stroke-linecap="butt" stroke-linejoin="round" stroke-opacity="1.0" stroke-width="3.0" />
            <path d=" M 531.810, 720.702 532.349, 717.628 533.935, 707.755 534.419, 704.736 535.872, 694.842 536.353, 691.567 537.680, 681.656 538.149, 678.146 539.357, 668.219 539.809, 664.496 540.902, 654.556 541.333, 650.642 542.316, 640.690 542.720, 636.606 543.597, 626.645 543.971, 622.410 544.746, 612.440 545.086, 608.075 545.762, 598.098 546.065, 593.622 546.644, 583.639 546.909, 579.072 547.393, 569.083 547.618, 564.443 548.008, 554.450 548.192, 549.755 548.490, 539.759 548.631, 535.027 548.837, 525.029 548.932, 520.413 " fill="none" stroke="rgb(0, 0, 0)" stroke-linecap="butt" stroke-linejoin="round" stroke-opacity="1.0" stroke-width="3.0" />
            <path d=" M 377.515, 525.312 377.459, 535.312 377.402, 545.312 377.379, 549.369 377.481, 559.369 377.582, 569.368 377.622, 573.269 377.884, 583.266 378.146, 593.262 378.241, 596.886 378.666, 606.877 379.092, 616.868 379.229, 620.096 379.823, 630.078 380.418, 640.060 380.579, 642.781 381.348, 652.751 382.117, 662.721 382.279, 664.829 383.230, 674.784 384.181, 684.739 384.315, 686.138 385.458, 696.073 386.601, 706.007 386.671, 706.609 388.018, 716.518 389.329, 726.156 390.895, 736.032 392.270, 744.701 394.072, 754.537 395.473, 762.178 397.534, 771.963 398.916, 778.526 401.262, 788.247 402.578, 793.701 405.240, 803.340 406.435, 807.666 409.453, 817.200 410.464, 820.392 413.887, 829.788 414.642, 831.861 418.529, 841.075 418.947, 842.065 423.356, 851.003 427.848, 858.680 432.404, 865.109 437.001, 870.312 441.624, 874.312 446.252, 877.136 450.872, 878.819 455.466, 879.399 460.021, 878.912 464.524, 877.398 468.964, 874.901 473.328, 871.465 477.609, 867.132 481.796, 861.945 " fill="none" stroke="rgb(0, 0, 0)" stroke-linecap="butt" stroke-linejoin="round" stroke-opacity="1.0" stroke-width="3.0" />
            <path d=" M 481.796, 861.945 487.974, 854.081 489.526, 852.106 " fill="none" stroke="rgb(0, 0, 0)" stroke-linecap="butt" stroke-linejoin="round" stroke-opacity="1.0" stroke-width="3.0" />
            <path d=" M 539.864, 545.556 529.867, 545.798 528.460, 545.833 525.527, 542.097 522.890, 538.739 520.822, 536.106 " fill="none" stroke="rgb(0, 0, 0)" stroke-linecap="butt" stroke-linejoin="round" stroke-opacity="1.0" stroke-width="3.0" />
            <path d=" M 528.034, 495.808 529.269, 494.225 539.250, 494.841 540.682, 494.929 540.677, 504.929 540.673, 514.929 540.670, 520.252 540.416, 530.248 540.310, 534.393 539.911, 544.385 539.864, 545.556 533.845, 537.571 531.171, 534.023 530.906, 533.672 530.641, 533.319 530.374, 532.966 530.109, 532.612 529.802, 532.077 529.513, 531.322 529.250, 530.359 529.053, 529.378 529.018, 529.207 528.824, 527.888 528.670, 526.428 528.559, 524.853 528.509, 523.601 528.493, 523.195 528.474, 521.486 528.501, 519.758 528.575, 518.045 528.620, 517.408 528.694, 516.381 528.855, 514.798 529.056, 513.325 529.284, 512.040 529.292, 511.993 529.560, 510.825 529.852, 509.845 530.165, 509.069 530.490, 508.514 530.767, 508.144 531.044, 507.773 531.321, 507.403 531.598, 507.034 531.738, 506.849 537.740, 498.850 540.682, 494.929 " fill="none" stroke="rgb(0, 0, 0)" stroke-linecap="butt" stroke-linejoin="round" stroke-opacity="1.0" stroke-width="3.0" />
            <path d=" M 530.817, 523.643 530.695, 523.514 530.583, 523.254 530.486, 522.874 530.408, 522.393 530.354, 521.831 530.324, 521.212 530.321, 520.564 530.345, 519.915 530.394, 519.294 530.467, 518.728 530.560, 518.242 530.669, 517.857 530.789, 517.589 530.915, 517.452 531.041, 517.450 " fill="none" stroke="rgb(0, 0, 0)" stroke-linecap="butt" stroke-linejoin="round" stroke-opacity="1.0" stroke-width="3.0" />
            <path d=" M 531.041, 517.450 531.163, 517.583 531.275, 517.845 531.371, 518.224 531.449, 518.704 531.503, 519.265 531.532, 519.881 531.535, 520.526 531.512, 521.173 531.463, 521.791 531.391, 522.356 531.298, 522.842 531.190, 523.228 531.070, 523.497 530.944, 523.637 530.817, 523.643 " fill="none" stroke="rgb(0, 0, 0)" stroke-linecap="butt" stroke-linejoin="round" stroke-opacity="1.0" stroke-width="3.0" />
            <path d=" M 361.974, 455.551 361.859, 457.399 361.380, 467.387 360.902, 477.376 360.786, 479.798 360.446, 489.792 360.107, 499.787 360.019, 502.354 359.851, 510.718 359.649, 520.716 359.563, 524.976 359.499, 534.976 359.436, 544.975 359.419, 547.573 359.494, 557.573 359.569, 567.573 359.587, 570.057 359.802, 580.054 360.017, 590.052 360.066, 592.336 360.106, 593.471 " fill="none" stroke="rgb(0, 0, 0)" stroke-linecap="butt" stroke-linejoin="round" stroke-opacity="1.0" stroke-width="3.0" />
            <path d=" M 538.148, 740.509 539.801, 730.647 539.916, 729.957 541.456, 720.077 541.816, 717.765 543.248, 707.868 543.608, 705.382 544.936, 695.471 545.291, 692.824 546.520, 682.900 546.866, 680.105 547.998, 670.169 548.332, 667.239 549.372, 657.293 549.691, 654.241 550.639, 644.286 550.941, 641.124 551.801, 631.161 552.083, 627.900 552.857, 617.930 553.116, 614.583 553.806, 604.607 554.042, 601.184 554.648, 591.202 554.859, 587.714 555.383, 577.728 555.569, 574.187 556.011, 564.197 556.170, 560.613 556.531, 550.620 556.662, 547.004 556.944, 537.008 557.047, 533.370 557.248, 523.372 557.294, 521.133 " fill="none" stroke="rgb(0, 0, 0)" stroke-linecap="butt" stroke-linejoin="round" stroke-opacity="1.0" stroke-width="3.0" />
            <path d=" M 457.528, 912.100 459.953, 912.267 464.090, 912.059 468.188, 911.038 472.237, 909.234 476.231, 906.677 480.163, 903.398 484.027, 899.428 487.817, 894.797 491.529, 889.535 495.159, 883.673 498.702, 877.240 502.155, 870.265 505.515, 862.776 508.780, 854.799 511.946, 846.364 515.013, 837.493 517.978, 828.214 520.840, 818.549 521.879, 814.769 " fill="none" stroke="rgb(0, 0, 0)" stroke-linecap="butt" stroke-linejoin="round" stroke-opacity="1.0" stroke-width="3.0" />
            <path d=" M 520.737, 188.375 519.214, 184.009 516.165, 176.069 513.003, 168.629 509.729, 161.717 506.345, 155.363 502.855, 149.596 499.262, 144.446 495.568, 139.946 491.779, 136.125 487.900, 133.017 483.934, 130.651 479.889, 129.059 475.771, 128.273 471.587, 128.322 471.333, 128.376 467.346, 129.235 463.056, 131.041 458.728, 133.766 454.370, 137.434 449.995, 142.067 445.615, 147.686 441.241, 154.306 436.889, 161.940 432.571, 170.598 430.836, 174.536 428.303, 180.284 424.650, 189.593 424.099, 190.998 421.693, 197.848 419.977, 202.735 416.966, 212.271 415.951, 215.484 413.214, 225.102 412.039, 229.229 409.551, 238.915 408.258, 243.949 405.997, 253.690 404.623, 259.614 402.574, 269.402 401.152, 276.190 399.299, 286.017 397.861, 293.636 396.191, 303.496 394.767, 311.905 393.270, 321.792 391.884, 330.941 390.551, 340.852 389.228, 350.687 388.051, 360.618 386.874, 370.548 386.811, 371.076 385.784, 381.023 384.757, 390.970 384.647, 392.037 383.766, 401.998 382.884, 411.959 382.748, 413.495 382.007, 423.467 381.266, 433.440 381.123, 435.369 380.520, 445.351 379.916, 455.333 379.781, 457.576 379.313, 467.565 378.845, 477.554 378.729, 480.028 378.395, 490.022 378.060, 500.017 377.973, 502.637 377.771, 512.635 377.569, 522.633 377.515, 525.312 377.446, 535.312 377.377, 545.312 377.359, 547.963 377.423, 557.962 377.487, 567.962 377.504, 570.498 377.702, 580.496 377.901, 590.494 377.948, 592.829 378.283, 602.824 378.618, 612.818 378.687, 614.868 379.162, 624.857 379.637, 634.845 379.717, 636.530 380.335, 646.511 380.953, 656.491 381.030, 657.733 381.796, 667.704 382.563, 677.674 382.619, 678.401 383.539, 688.359 384.472, 698.461 385.553, 708.403 386.580, 717.846 387.831, 727.767 388.930, 736.494 390.359, 746.391 391.509, 754.349 393.129, 764.217 394.302, 771.362 396.127, 781.194 397.295, 787.490 399.341, 797.278 400.473, 802.695 402.759, 812.430 403.820, 816.947 406.370, 826.616 407.320, 830.221 410.161, 839.809 410.958, 842.500 414.123, 851.986 414.718, 853.770 418.245, 863.127 418.584, 864.024 422.540, 873.260 426.573, 881.480 430.666, 888.692 434.808, 894.907 438.983, 900.139 443.180, 904.406 447.387, 907.728 451.591, 910.128 455.783, 911.633 458.531, 912.050 459.953, 912.267 " fill="none" stroke="rgb(0, 0, 0)" stroke-linecap="butt" stroke-linejoin="round" stroke-opacity="1.0" stroke-width="3.0" />
            <path d=" M 469.131, 128.402 464.863, 129.316 460.546, 131.123 456.190, 133.847 451.805, 137.515 447.403, 142.148 442.995, 147.766 438.595, 154.384 434.216, 162.017 429.872, 170.673 427.992, 174.912 425.578, 180.356 421.906, 189.657 421.349, 191.066 418.017, 200.495 417.202, 202.799 414.982, 209.788 413.153, 215.545 410.400, 225.158 409.218, 229.286 406.716, 238.967 405.415, 244.000 403.141, 253.738 401.759, 259.660 399.698, 269.445 398.269, 276.230 396.405, 286.055 394.960, 293.670 393.280, 303.528 391.848, 311.931 390.343, 321.817 388.950, 330.961 387.609, 340.871 386.279, 350.699 385.096, 360.629 383.913, 370.559 383.851, 371.080 382.818, 381.027 381.786, 390.974 381.676, 392.033 380.790, 401.994 379.904, 411.955 379.768, 413.483 379.023, 423.455 378.279, 433.427 378.135, 435.348 377.530, 445.330 376.924, 455.311 376.788, 457.546 376.318, 467.535 375.849, 477.524 375.733, 479.989 375.397, 489.984 375.062, 499.978 374.975, 502.589 374.773, 512.587 374.571, 522.585 374.518, 525.256 374.449, 535.256 374.381, 545.255 374.363, 547.898 374.429, 557.897 374.495, 567.897 374.512, 570.424 374.713, 580.422 374.915, 590.420 374.961, 592.747 375.300, 602.741 375.639, 612.735 375.708, 614.777 376.188, 624.766 376.667, 634.754 376.748, 636.431 377.371, 646.411 377.995, 656.392 378.072, 657.626 378.845, 667.597 379.617, 677.567 379.673, 678.287 380.601, 688.244 381.541, 698.340 382.631, 708.280 383.665, 717.718 384.925, 727.638 386.032, 736.360 387.472, 746.255 388.629, 754.209 390.261, 764.075 391.442, 771.217 393.280, 781.046 394.456, 787.339 396.516, 797.125 397.656, 802.540 399.958, 812.272 401.026, 816.788 403.593, 826.453 404.551, 830.060 407.409, 839.642 408.213, 842.335 411.397, 851.815 411.998, 853.603 415.547, 862.952 415.799, 863.616 415.854, 863.761 415.889, 863.855 419.872, 873.089 423.931, 881.309 428.052, 888.520 432.221, 894.735 436.423, 899.967 440.648, 904.234 444.881, 907.557 449.113, 909.959 453.332, 911.464 457.528, 912.100 " fill="none" stroke="rgb(0, 0, 0)" stroke-linecap="butt" stroke-linejoin="round" stroke-opacity="1.0" stroke-width="3.0" />
            <path d=" M 471.587, 128.322 469.131, 128.402 " fill="none" stroke="rgb(0, 0, 0)" stroke-linecap="butt" stroke-linejoin="round" stroke-opacity="1.0" stroke-width="3.0" />
            <path d=" M 544.233, 756.280 544.372, 755.486 545.982, 745.616 546.463, 742.669 547.964, 732.782 548.440, 729.647 549.836, 719.745 550.303, 716.436 551.599, 706.520 552.052, 703.053 553.252, 693.125 553.689, 689.511 554.796, 679.572 555.213, 675.826 556.229, 665.877 556.624, 662.010 557.552, 652.054 557.923, 648.078 558.765, 638.114 559.110, 634.042 559.868, 624.071 560.184, 619.913 560.860, 609.936 561.147, 605.705 561.742, 595.723 561.998, 591.429 562.513, 581.442 562.737, 577.095 563.173, 567.105 563.364, 562.716 563.722, 552.722 563.880, 548.301 564.159, 538.305 564.284, 533.863 564.485, 523.865 564.538, 521.262 " fill="none" stroke="rgb(0, 0, 0)" stroke-linecap="butt" stroke-linejoin="round" stroke-opacity="1.0" stroke-width="3.0" />
            <path d=" M 455.098, 942.760 457.517, 942.936 461.999, 943.233 466.438, 942.626 470.826, 941.150 475.155, 938.838 479.417, 935.727 483.606, 931.851 487.716, 927.247 491.742, 921.948 495.678, 915.990 499.521, 909.406 503.266, 902.228 506.912, 894.489 510.454, 886.220 513.891, 877.450 517.220, 868.210 520.376, 858.721 520.441, 858.525 523.384, 848.968 523.551, 848.425 526.300, 838.810 526.550, 837.933 528.948, 828.913 " fill="none" stroke="rgb(0, 0, 0)" stroke-linecap="butt" stroke-linejoin="round" stroke-opacity="1.0" stroke-width="3.0" />
            <path d=" M 540.657, 217.465 539.209, 210.796 536.914, 201.062 536.641, 199.904 534.160, 190.216 533.947, 189.385 531.261, 179.753 531.126, 179.267 528.216, 169.699 528.178, 169.574 525.104, 160.337 521.905, 151.583 518.582, 143.344 515.136, 135.649 511.569, 128.533 507.885, 122.028 504.084, 116.167 500.171, 110.987 496.150, 106.523 492.025, 102.810 487.801, 99.885 483.485, 97.784 479.082, 96.543 474.601, 96.199 473.263, 96.371 470.050, 96.785 465.438, 98.336 460.775, 100.885 456.072, 104.461 451.341, 109.092 446.595, 114.805 441.848, 121.621 437.114, 129.558 432.510, 138.435 432.409, 138.630 428.260, 147.729 427.750, 148.847 425.270, 154.978 423.153, 160.212 419.758, 169.618 419.686, 169.818 418.637, 172.724 415.558, 182.238 415.402, 182.719 414.219, 186.375 411.425, 195.976 409.920, 201.149 407.383, 210.822 405.757, 217.025 403.456, 226.756 401.749, 233.973 399.666, 243.754 397.918, 251.959 397.249, 255.448 395.366, 265.269 394.280, 270.935 392.585, 280.791 390.891, 290.646 390.855, 290.852 389.337, 300.736 387.819, 310.621 387.661, 311.650 386.311, 321.558 384.960, 331.466 384.715, 333.261 383.524, 343.189 382.333, 353.118 382.034, 355.611 380.995, 365.557 379.957, 375.503 379.631, 378.621 378.740, 388.581 377.849, 398.541 377.521, 402.202 376.773, 412.174 376.025, 422.146 375.716, 426.265 375.107, 436.246 374.499, 446.228 374.226, 450.712 373.754, 460.701 373.283, 470.689 373.058, 475.442 372.722, 485.437 372.386, 495.431 372.221, 500.354 372.019, 510.352 371.817, 520.350 371.717, 525.342 371.649, 535.342 371.582, 545.342 371.549, 550.301 371.616, 560.301 371.684, 570.301 371.717, 575.127 371.921, 585.125 372.125, 595.123 372.218, 599.715 372.561, 609.709 372.903, 619.704 373.049, 623.966 373.533, 633.954 374.017, 643.942 374.203, 647.780 374.833, 657.760 375.462, 667.740 375.672, 671.065 376.452, 681.035 377.232, 691.004 377.446, 693.733 378.383, 703.689 379.320, 713.645 379.513, 715.701 380.614, 725.640 381.715, 735.579 381.860, 736.893 383.134, 746.812 384.407, 756.730 384.473, 757.240 385.929, 767.134 387.335, 776.681 388.988, 786.543 390.432, 795.160 392.294, 804.985 393.744, 812.630 395.835, 822.409 397.108, 828.366 397.256, 829.054 399.595, 838.776 400.483, 842.468 400.948, 844.398 403.560, 854.051 404.802, 858.639 407.718, 868.205 408.513, 870.813 408.801, 871.759 412.055, 881.215 412.926, 883.747 413.373, 884.892 417.007, 894.208 417.160, 894.599 421.227, 903.735 421.485, 904.317 425.885, 912.907 430.344, 920.380 434.846, 926.754 439.376, 932.048 443.921, 936.286 448.467, 939.494 453.003, 941.700 457.445, 942.916 457.517, 942.936 " fill="none" stroke="rgb(0, 0, 0)" stroke-linecap="butt" stroke-linejoin="round" stroke-opacity="1.0" stroke-width="3.0" />
            <path d=" M 363.788, 425.366 363.725, 426.196 363.106, 436.177 362.486, 446.158 362.211, 450.604 361.974, 455.551 361.495, 465.540 361.028, 475.295 360.688, 485.290 360.348, 495.284 360.183, 500.168 359.981, 510.166 359.975, 510.457 359.773, 520.455 359.700, 524.120 359.679, 525.116 359.616, 535.116 359.552, 545.116 359.521, 550.036 359.595, 560.036 359.652, 567.691 359.706, 574.823 359.920, 584.821 360.106, 593.471 360.233, 599.374 360.377, 603.409 " fill="none" stroke="rgb(0, 0, 0)" stroke-linecap="butt" stroke-linejoin="round" stroke-opacity="1.0" stroke-width="3.0" />
            <path d=" M 472.177, 96.288 467.597, 96.876 462.956, 98.428 458.263, 100.976 453.531, 104.552 448.771, 109.183 443.995, 114.895 439.219, 121.710 434.456, 129.645 429.830, 138.510 429.723, 138.715 425.553, 147.804 425.036, 148.929 421.267, 158.192 420.412, 160.292 416.998, 169.691 416.750, 170.374 415.869, 172.800 412.773, 182.308 411.426, 186.446 410.952, 188.066 408.408, 196.751 407.101, 201.215 404.550, 210.884 402.914, 217.086 400.600, 226.815 398.884, 234.029 396.789, 243.807 395.031, 252.008 393.138, 261.827 391.373, 270.978 389.669, 280.831 388.291, 288.800 387.930, 290.887 386.403, 300.770 384.877, 310.653 384.719, 311.677 383.361, 321.584 382.003, 331.492 381.757, 333.280 380.560, 343.208 379.362, 353.136 379.062, 355.621 378.018, 365.567 376.974, 375.512 376.648, 378.622 375.752, 388.582 374.856, 398.542 374.528, 402.195 373.776, 412.166 373.024, 422.138 372.715, 426.248 372.103, 436.229 371.492, 446.210 371.218, 450.685 370.745, 460.673 370.272, 470.662 370.047, 475.405 369.710, 485.400 369.373, 495.394 369.208, 500.307 369.006, 510.305 368.804, 520.303 368.704, 525.286 368.637, 535.285 368.571, 545.285 368.538, 550.235 368.608, 560.235 368.677, 570.234 368.710, 575.051 368.917, 585.049 369.124, 595.047 369.218, 599.630 369.564, 609.624 369.910, 619.618 370.058, 623.871 370.546, 633.859 371.035, 643.847 371.222, 647.676 371.857, 657.656 372.492, 667.636 372.703, 670.953 373.490, 680.922 374.276, 690.891 374.491, 693.613 375.435, 703.568 376.379, 713.523 376.574, 715.573 377.683, 725.511 378.792, 735.449 378.938, 736.758 380.221, 746.675 381.504, 756.592 381.570, 757.098 383.037, 766.990 384.453, 776.532 386.117, 786.392 387.571, 795.005 389.447, 804.828 390.131, 808.412 390.906, 812.471 393.012, 822.247 394.442, 828.890 395.462, 833.101 397.817, 842.820 398.159, 844.230 398.258, 844.595 400.888, 854.243 402.040, 858.467 404.974, 868.027 405.615, 870.118 406.065, 871.584 409.339, 881.033 410.218, 883.570 413.874, 892.878 414.480, 894.420 418.569, 903.546 418.834, 904.136 423.263, 912.725 427.750, 920.199 432.281, 926.573 436.841, 931.867 441.415, 936.106 445.991, 939.315 450.556, 941.522 455.098, 942.760 " fill="none" stroke="rgb(0, 0, 0)" stroke-linecap="butt" stroke-linejoin="round" stroke-opacity="1.0" stroke-width="3.0" />
            <path d=" M 474.601, 96.199 472.177, 96.288 " fill="none" stroke="rgb(0, 0, 0)" stroke-linecap="butt" stroke-linejoin="round" stroke-opacity="1.0" stroke-width="3.0" />
            <path d=" M 546.192, 224.293 546.103, 223.801 544.170, 213.990 543.729, 211.753 541.640, 201.974 541.225, 200.029 538.966, 190.288 538.588, 188.655 536.147, 178.958 535.819, 177.656 533.178, 168.011 532.918, 167.058 530.059, 157.475 529.884, 156.889 526.784, 147.381 526.718, 147.179 523.420, 137.957 519.991, 129.257 516.433, 121.109 512.747, 113.550 508.936, 106.613 505.001, 100.335 500.946, 94.753 496.775, 89.905 492.492, 85.830 488.102, 82.567 483.611, 80.154 479.026, 78.632 474.355, 78.039 469.533, 78.229 464.724, 78.606 459.845, 79.987 454.907, 82.409 449.922, 85.905 444.903, 90.507 439.862, 96.243 434.815, 103.141 429.778, 111.220 425.026, 120.019 424.767, 120.499 420.487, 129.537 419.799, 130.989 415.935, 140.213 414.894, 142.698 411.398, 152.067 410.070, 155.624 406.902, 165.109 405.348, 169.763 402.475, 179.341 400.748, 185.099 398.142, 194.754 396.291, 201.613 393.929, 211.330 391.998, 219.274 389.860, 229.043 387.890, 238.045 386.562, 244.795 384.632, 254.607 383.989, 257.881 382.252, 267.729 380.516, 277.577 380.313, 278.727 378.759, 288.605 377.205, 298.484 376.885, 300.519 375.503, 310.423 374.121, 320.328 373.722, 323.188 372.504, 333.114 371.286, 343.039 370.842, 346.655 369.782, 356.598 368.721, 366.542 368.263, 370.832 367.354, 380.791 366.444, 390.749 365.999, 395.628 365.249, 405.436 364.486, 415.407 364.063, 420.943 363.788, 425.366 363.169, 435.347 362.550, 445.328 362.466, 446.673 362.270, 450.769 361.792, 460.758 361.313, 470.747 361.219, 472.710 360.880, 482.704 360.540, 492.698 360.328, 498.943 360.126, 508.941 360.101, 510.192 359.899, 520.190 359.838, 523.253 359.797, 525.259 359.733, 535.259 359.670, 545.258 359.630, 551.543 359.704, 561.543 359.779, 571.543 359.818, 576.739 359.825, 577.683 360.039, 587.680 360.250, 597.512 360.377, 603.409 360.380, 603.565 360.737, 613.559 360.891, 617.873 361.248, 627.867 361.291, 629.082 361.793, 639.070 362.296, 649.057 362.551, 654.128 363.202, 664.107 363.854, 674.086 364.149, 678.602 364.955, 688.570 365.762, 698.537 366.075, 702.410 367.043, 712.363 368.010, 722.316 368.316, 725.462 369.452, 735.398 370.589, 745.333 370.857, 747.679 372.171, 757.592 372.691, 761.513 373.682, 768.986 375.185, 778.873 376.688, 788.759 376.773, 789.319 378.478, 799.173 380.113, 808.620 382.035, 818.433 383.682, 826.840 385.840, 836.604 387.461, 843.939 389.876, 853.643 391.430, 859.885 394.128, 869.514 395.568, 874.653 398.581, 884.189 399.857, 888.228 403.221, 897.646 404.276, 900.600 408.036, 909.867 408.806, 911.767 413.015, 920.838 413.429, 921.732 418.126, 930.505 422.880, 938.101 427.674, 944.539 432.494, 949.842 437.323, 954.038 442.148, 957.157 446.957, 959.230 451.737, 960.291 456.547, 960.652 461.228, 960.734 465.861, 959.877 470.435, 958.118 474.943, 955.497 479.378, 952.052 483.732, 947.820 487.999, 942.839 492.175, 937.148 496.255, 930.781 500.234, 923.776 504.110, 916.166 507.879, 907.986 511.538, 899.269 515.086, 890.044 518.424, 880.618 518.521, 880.344 521.630, 870.840 521.841, 870.196 524.742, 860.627 525.045, 859.630 527.756, 850.004 528.132, 848.670 530.668, 838.997 531.102, 837.343 531.874, 834.184 " fill="none" stroke="rgb(0, 0, 0)" stroke-linecap="butt" stroke-linejoin="round" stroke-opacity="1.0" stroke-width="3.0" />
            <path d=" M 546.657, 761.616 548.251, 751.744 548.585, 749.671 550.072, 739.782 550.612, 736.188 551.995, 726.285 552.521, 722.520 553.806, 712.602 554.314, 708.680 555.503, 698.751 555.990, 694.684 557.087, 684.744 557.551, 680.547 558.559, 670.598 558.996, 666.281 559.917, 656.323 560.326, 651.900 561.161, 641.935 561.540, 637.417 562.293, 627.445 562.641, 622.843 563.312, 612.866 563.626, 608.191 564.218, 598.208 564.498, 593.471 565.010, 583.485 565.255, 578.696 565.689, 568.705 565.899, 563.875 566.255, 553.881 566.428, 549.019 566.707, 539.023 566.843, 534.140 567.045, 524.142 567.105, 521.158 " fill="none" stroke="rgb(0, 0, 0)" stroke-linecap="butt" stroke-linejoin="round" stroke-opacity="1.0" stroke-width="3.0" />
            <path d=" M 474.355, 78.039 469.605, 78.414 464.787, 79.794 459.910, 82.214 454.986, 85.710 450.027, 90.312 445.048, 96.051 440.062, 102.950 435.084, 111.033 430.378, 119.856 430.132, 120.316 425.895, 129.374 425.223, 130.812 422.443, 137.529 420.375, 142.527 416.916, 151.909 415.607, 155.461 412.474, 164.957 410.940, 169.607 408.098, 179.195 406.464, 184.710 406.392, 184.954 403.815, 194.616 401.985, 201.478 401.232, 204.614 398.896, 214.337 397.740, 219.151 396.431, 225.205 394.317, 234.979 393.677, 237.936 391.769, 247.752 389.860, 257.568 389.818, 257.786 388.101, 267.638 386.384, 277.489 386.182, 278.647 385.632, 282.182 384.095, 292.064 382.790, 300.456 381.423, 310.362 380.056, 320.268 379.659, 323.142 378.454, 333.069 377.249, 342.997 376.809, 346.627 376.352, 350.957 375.302, 360.902 374.254, 370.823 373.354, 380.782 372.454, 390.742 372.011, 395.638 371.256, 405.610 370.500, 415.581 370.092, 420.973 369.478, 430.954 368.864, 440.935 368.508, 446.724 368.033, 456.713 367.558, 466.701 367.269, 472.782 366.932, 482.776 366.594, 492.770 366.382, 499.036 366.180, 509.034 365.979, 519.032 365.851, 525.372 365.785, 535.372 365.720, 545.372 365.678, 551.677 365.750, 561.677 365.821, 571.677 365.864, 577.838 366.074, 587.835 366.283, 597.833 366.406, 603.741 366.756, 613.734 367.106, 623.728 367.300, 629.277 367.793, 639.265 368.286, 649.253 368.537, 654.342 369.178, 664.321 369.819, 674.301 370.110, 678.834 370.903, 688.802 371.697, 698.771 372.006, 702.659 372.959, 712.613 373.911, 722.568 374.214, 725.728 375.333, 735.665 376.452, 745.602 376.718, 747.960 378.013, 757.876 378.543, 761.935 378.753, 763.542 379.503, 769.281 380.985, 779.171 382.467, 789.061 382.551, 789.627 384.233, 799.485 385.845, 808.940 386.184, 810.690 387.492, 817.468 389.366, 827.170 391.495, 836.941 393.094, 844.279 395.478, 853.991 396.271, 857.219 397.010, 860.233 399.675, 869.872 401.095, 875.009 404.070, 884.556 405.327, 888.590 408.651, 898.021 409.689, 900.966 409.697, 900.986 413.413, 910.270 414.160, 912.137 418.323, 921.229 418.724, 922.104 423.360, 930.879 428.054, 938.475 432.787, 944.913 437.545, 950.215 442.314, 954.409 447.078, 957.525 451.827, 959.594 456.547, 960.652 " fill="none" stroke="rgb(0, 0, 0)" stroke-linecap="butt" stroke-linejoin="round" stroke-opacity="1.0" stroke-width="3.0" />
            <path d=" M 565.298, 521.275 565.303, 521.126 565.343, 519.643 565.424, 518.039 565.424, 518.036 565.540, 516.484 565.687, 515.014 565.865, 513.649 565.921, 513.307 566.069, 512.414 566.297, 511.329 566.543, 510.412 566.805, 509.680 567.077, 509.143 567.273, 508.909 567.356, 508.810 567.635, 508.686 " fill="none" stroke="rgb(0, 0, 0)" stroke-linecap="butt" stroke-linejoin="round" stroke-opacity="1.0" stroke-width="3.0" />
            <path d=" M 567.993, 521.173 567.994, 520.660 567.980, 520.161 567.953, 519.690 567.911, 519.260 567.858, 518.883 567.794, 518.568 567.720, 518.324 567.639, 518.159 567.553, 518.076 " fill="none" stroke="rgb(0, 0, 0)" stroke-linecap="butt" stroke-linejoin="round" stroke-opacity="1.0" stroke-width="3.0" />
            <path d=" M 531.925, 480.383 531.919, 480.769 531.836, 486.041 531.975, 486.052 532.235, 486.075 537.591, 486.132 537.536, 480.459 537.475, 480.453 531.925, 480.383 " fill="none" stroke="rgb(0, 0, 0)" stroke-linecap="butt" stroke-linejoin="round" stroke-opacity="1.0" stroke-width="3.0" />
            <path d=" M 537.385, 486.115 537.475, 480.453 " fill="none" stroke="rgb(0, 0, 0)" stroke-linecap="butt" stroke-linejoin="round" stroke-opacity="1.0" stroke-width="3.0" />
            <path d=" M 531.836, 486.041 537.385, 486.115 537.591, 486.132 " fill="none" stroke="rgb(0, 0, 0)" stroke-linecap="butt" stroke-linejoin="round" stroke-opacity="1.0" stroke-width="3.0" />
            <path d=" M 534.672, 482.116 534.480, 482.132 534.445, 482.135 534.445, 482.135 534.441, 482.136 534.359, 482.158 534.225, 482.201 534.029, 482.304 533.859, 482.443 533.719, 482.611 533.614, 482.803 533.548, 483.012 533.523, 483.230 533.543, 483.462 533.608, 483.678 533.711, 483.873 533.850, 484.043 534.018, 484.184 534.152, 484.257 534.180, 484.273 534.181, 484.273 534.210, 484.289 " fill="none" stroke="rgb(0, 0, 0)" stroke-linecap="butt" stroke-linejoin="round" stroke-opacity="1.0" stroke-width="3.0" />
            <path d=" M 534.177, 484.271 534.210, 484.289 534.265, 484.306 534.382, 484.344 534.419, 484.355 " fill="none" stroke="rgb(0, 0, 0)" stroke-linecap="butt" stroke-linejoin="round" stroke-opacity="1.0" stroke-width="3.0" />
            <path d=" M 534.830, 482.129 534.672, 482.116 534.514, 482.125 " fill="none" stroke="rgb(0, 0, 0)" stroke-linecap="butt" stroke-linejoin="round" stroke-opacity="1.0" stroke-width="3.0" />
            <path d=" M 534.984, 482.166 534.885, 482.142 534.830, 482.129 " fill="none" stroke="rgb(0, 0, 0)" stroke-linecap="butt" stroke-linejoin="round" stroke-opacity="1.0" stroke-width="3.0" />
            <path d=" M 534.479, 484.366 534.636, 484.380 534.795, 484.370 534.950, 484.338 535.099, 484.284 535.239, 484.208 535.368, 484.113 535.482, 484.000 535.579, 483.872 535.657, 483.731 535.714, 483.581 535.751, 483.423 535.765, 483.262 535.756, 483.101 535.725, 482.943 535.672, 482.791 535.598, 482.648 535.505, 482.517 535.395, 482.402 535.270, 482.303 535.132, 482.224 534.984, 482.166 " fill="none" stroke="rgb(0, 0, 0)" stroke-linecap="butt" stroke-linejoin="round" stroke-opacity="1.0" stroke-width="3.0" />
            <path d=" M 534.514, 482.125 534.445, 482.135 " fill="none" stroke="rgb(0, 0, 0)" stroke-linecap="butt" stroke-linejoin="round" stroke-opacity="1.0" stroke-width="3.0" />
            <path d=" M 534.324, 484.330 534.419, 484.355 534.479, 484.366 " fill="none" stroke="rgb(0, 0, 0)" stroke-linecap="butt" stroke-linejoin="round" stroke-opacity="1.0" stroke-width="3.0" />
            <path d=" M 621.413, 899.853 623.589, 900.362 631.487, 902.075 639.390, 903.039 647.281, 903.270 655.142, 902.787 662.959, 901.609 670.715, 899.756 678.396, 897.248 685.990, 894.106 693.483, 890.352 700.865, 886.009 708.123, 881.097 715.249, 875.640 722.232, 869.659 729.065, 863.177 735.738, 856.215 742.246, 848.796 748.581, 840.940 754.551, 832.917 754.736, 832.668 760.410, 824.433 760.707, 824.002 766.095, 815.577 766.488, 814.961 771.599, 806.366 772.075, 805.566 776.919, 796.817 777.463, 795.835 782.049, 786.949 782.648, 785.789 786.985, 776.779 787.627, 775.446 791.723, 766.323 792.396, 764.823 796.258, 755.599 796.953, 753.940 800.588, 744.624 801.295, 742.812 804.709, 733.413 805.419, 731.457 808.617, 721.983 809.323, 719.892 812.311, 710.349 813.005, 708.133 815.788, 698.528 816.464, 696.196 819.045, 686.534 819.697, 684.095 822.080, 674.383 822.703, 671.847 824.891, 662.090 825.480, 659.466 827.477, 649.668 828.027, 646.967 829.834, 637.132 830.342, 634.365 831.962, 624.497 832.426, 621.673 833.859, 611.776 834.275, 608.906 835.523, 598.984 835.889, 596.078 836.953, 586.134 837.267, 583.202 838.148, 573.241 838.408, 570.292 839.105, 560.317 839.311, 557.363 839.823, 547.376 839.975, 544.427 840.302, 534.433 840.398, 531.499 840.539, 521.500 840.581, 518.592 840.534, 508.592 840.521, 505.721 840.285, 495.724 840.218, 492.899 839.790, 482.908 839.671, 480.140 839.049, 470.159 838.880, 467.459 838.059, 457.493 837.843, 454.871 836.821, 444.923 836.560, 442.390 835.331, 432.466 835.030, 430.031 833.591, 420.135 833.253, 417.810 831.597, 407.948 831.227, 405.743 829.350, 395.920 828.953, 393.845 826.847, 384.069 826.430, 382.133 824.089, 372.411 823.658, 370.624 821.073, 360.964 820.638, 359.336 817.801, 349.747 817.368, 348.286 814.270, 338.778 813.851, 337.492 810.480, 328.077 810.085, 326.973 806.432, 317.664 806.073, 316.748 802.126, 307.560 801.815, 306.836 797.561, 297.786 797.313, 297.259 792.739, 288.366 792.569, 288.036 787.661, 279.323 787.585, 279.188 782.364, 270.738 776.909, 262.706 771.224, 255.115 765.313, 247.987 759.181, 241.346 752.834, 235.215 746.278, 229.617 739.520, 224.574 732.568, 220.112 725.430, 216.251 718.116, 213.017 710.637, 210.431 703.004, 208.515 695.230, 207.291 687.328, 206.780 679.313, 207.001 677.092, 207.172 " fill="none" stroke="rgb(0, 0, 0)" stroke-linecap="butt" stroke-linejoin="round" stroke-opacity="1.0" stroke-width="3.0" />
            <path d=" M 623.589, 900.362 623.212, 900.243 615.716, 897.884 607.887, 894.628 600.121, 890.582 592.441, 885.736 584.868, 880.082 577.425, 873.615 570.349, 866.548 570.134, 866.333 563.533, 858.821 563.019, 858.236 556.888, 850.337 556.105, 849.328 550.432, 841.093 549.414, 839.616 544.187, 831.091 542.972, 829.109 538.728, 821.344 536.803, 817.822 536.081, 816.342 533.381, 810.803 532.044, 808.059 530.930, 805.772 529.264, 801.937 526.736, 796.113 525.425, 793.094 525.377, 792.982 521.778, 783.652 520.167, 779.475 519.671, 778.022 517.440, 771.485 515.322, 765.281 512.447, 755.704 510.864, 750.434 508.330, 740.761 506.814, 734.971 504.609, 725.217 503.377, 719.762 503.189, 718.932 501.304, 709.111 500.008, 702.361 498.432, 692.486 497.286, 685.306 496.011, 675.388 495.038, 667.820 494.056, 657.868 493.276, 649.954 492.581, 639.979 492.009, 631.767 491.595, 621.776 491.246, 613.317 491.109, 603.318 490.991, 594.665 491.129, 584.666 491.249, 575.873 491.658, 565.882 492.020, 557.005 492.698, 547.028 493.302, 538.125 494.248, 528.170 495.044, 519.790 495.091, 519.297 496.305, 509.371 497.380, 500.585 498.864, 490.696 500.099, 482.466 500.161, 482.052 501.916, 472.207 503.421, 463.760 505.450, 453.968 507.148, 445.771 509.454, 436.040 511.327, 428.140 513.914, 418.481 515.938, 410.926 518.813, 401.348 520.964, 394.181 524.132, 384.696 526.383, 377.955 528.379, 372.560 531.724, 363.512 532.174, 362.295 535.762, 353.499 537.291, 349.750 538.313, 347.244 542.407, 338.121 544.775, 332.842 545.632, 331.103 547.025, 328.276 548.595, 325.091 551.536, 319.124 553.997, 314.574 555.556, 311.692 558.181, 306.839 558.568, 306.123 560.869, 302.249 561.453, 301.265 565.847, 293.865 571.313, 285.491 573.346, 282.375 579.182, 274.255 581.038, 271.672 587.255, 263.840 588.896, 261.773 589.389, 261.214 595.997, 253.709 596.896, 252.689 603.903, 245.555 605.010, 244.429 612.421, 237.715 613.213, 236.998 621.029, 230.760 621.482, 230.398 629.696, 224.694 629.792, 224.627 638.122, 219.681 646.447, 215.553 654.749, 212.234 663.006, 209.711 671.200, 207.972 678.118, 207.144 679.313, 207.001 " fill="none" stroke="rgb(0, 0, 0)" stroke-linecap="butt" stroke-linejoin="round" stroke-opacity="1.0" stroke-width="3.0" />
            <path d=" M 677.092, 207.172 668.968, 208.144 660.763, 209.883 652.495, 212.404 644.183, 215.721 635.847, 219.846 627.509, 224.789 619.290, 230.485 619.189, 230.555 611.367, 236.786 610.911, 237.150 603.492, 243.856 602.698, 244.574 595.683, 251.701 594.575, 252.826 587.934, 260.353 586.568, 261.901 580.343, 269.728 578.702, 271.791 572.859, 279.906 571.003, 282.483 565.530, 290.853 563.497, 293.961 560.886, 298.350 560.290, 299.353 557.822, 303.501 556.212, 306.206 555.164, 308.141 553.606, 311.016 549.174, 319.194 548.161, 321.245 546.588, 324.431 542.408, 332.897 538.308, 342.018 535.941, 347.283 535.259, 348.952 531.477, 358.209 529.798, 362.317 529.186, 363.969 526.503, 371.211 524.003, 377.960 520.831, 387.443 518.581, 394.167 516.875, 399.844 513.995, 409.420 513.552, 410.894 512.607, 414.418 510.015, 424.077 508.939, 428.088 506.629, 437.818 504.759, 445.698 502.728, 455.490 501.031, 463.667 499.274, 473.512 497.770, 481.938 496.285, 491.827 494.990, 500.450 494.964, 500.656 493.916, 509.215 493.846, 509.788 493.564, 512.096 492.701, 519.140 492.635, 519.836 491.689, 529.791 490.913, 537.947 490.236, 547.924 490.153, 549.149 489.633, 556.805 489.226, 566.797 488.865, 575.652 488.729, 585.651 488.609, 594.422 488.747, 604.421 488.867, 613.053 489.283, 623.045 489.634, 631.483 490.332, 641.458 490.905, 649.650 491.890, 659.601 492.672, 667.496 493.951, 677.414 494.925, 684.964 496.506, 694.838 497.652, 702.000 499.543, 711.820 500.839, 718.554 502.283, 724.922 504.471, 734.577 507.011, 744.249 508.528, 750.025 511.411, 759.601 512.993, 764.858 513.426, 766.123 516.514, 775.149 517.845, 779.038 518.757, 781.396 522.363, 790.723 523.063, 792.533 524.673, 796.232 525.976, 799.225 526.822, 801.170 528.624, 805.312 531.374, 810.941 532.715, 813.687 534.506, 817.352 535.456, 819.086 540.260, 827.856 540.684, 828.630 545.920, 837.150 547.136, 839.129 552.817, 847.359 553.835, 848.835 559.975, 856.728 560.760, 857.737 567.368, 865.243 567.884, 865.829 574.966, 872.889 575.185, 873.108 582.639, 879.572 590.222, 885.224 597.913, 890.070 605.688, 894.116 613.529, 897.373 621.413, 899.853 " fill="none" stroke="rgb(0, 0, 0)" stroke-linecap="butt" stroke-linejoin="round" stroke-opacity="1.0" stroke-width="3.0" />
            <path d=" M 789.975, 552.778 779.996, 552.126 779.260, 552.078 774.667, 551.183 764.852, 549.271 754.944, 547.341 754.236, 547.203 753.528, 547.065 752.817, 546.927 752.107, 546.789 751.276, 546.496 750.482, 545.951 749.740, 545.164 749.068, 544.149 748.479, 542.925 747.983, 541.515 747.590, 539.947 747.307, 538.249 747.141, 536.455 747.095, 534.599 747.169, 532.717 747.363, 530.846 747.672, 529.021 748.091, 527.279 748.610, 525.653 749.032, 524.631 749.221, 524.173 749.911, 522.869 750.667, 521.765 751.472, 520.882 752.165, 520.238 752.858, 519.595 753.003, 519.461 753.550, 518.952 754.242, 518.311 754.589, 517.990 756.153, 516.542 763.491, 509.748 770.830, 502.954 778.078, 496.243 " fill="none" stroke="rgb(0, 0, 0)" stroke-linecap="butt" stroke-linejoin="round" stroke-opacity="1.0" stroke-width="3.0" />
            <path d=" M 695.538, 295.618 687.288, 295.436 680.695, 295.912 678.926, 296.040 676.624, 296.423 670.474, 297.446 661.958, 299.686 660.641, 300.162 653.406, 302.781 644.847, 306.748 636.311, 311.586 628.012, 317.166 627.826, 317.291 619.939, 323.438 619.420, 323.842 611.949, 330.489 611.121, 331.226 604.077, 338.324 602.964, 339.446 596.354, 346.950 594.987, 348.502 588.810, 356.366 587.227, 358.379 581.475, 366.559 579.719, 369.055 574.379, 377.509 572.778, 380.043 572.494, 380.493 572.430, 380.606 569.440, 385.861 565.578, 392.650 565.025, 393.727 562.525, 398.599 561.780, 400.050 560.877, 401.810 558.994, 405.478 557.576, 408.549 555.928, 412.118 555.638, 412.746 553.935, 416.435 552.777, 418.942 548.958, 428.184 547.158, 432.539 546.965, 433.005 545.475, 437.059 542.382, 445.474 541.592, 447.622 538.506, 457.134 536.688, 462.738 533.958, 472.359 532.274, 478.292 531.908, 479.783 529.525, 489.495 528.367, 494.214 528.034, 495.808 525.986, 505.596 524.974, 510.438 523.773, 517.324 523.345, 519.782 523.322, 519.914 522.698, 523.496 522.106, 526.895 520.822, 536.106 519.788, 543.524 518.748, 553.470 518.039, 560.256 517.345, 570.232 516.872, 577.020 516.524, 587.014 516.290, 593.743 516.289, 603.743 516.288, 610.355 516.632, 620.349 516.853, 626.789 516.995, 628.853 517.684, 638.829 517.975, 643.050 518.098, 644.246 519.121, 654.194 519.614, 658.988 520.980, 668.894 521.759, 674.538 522.690, 679.871 524.396, 689.640 526.484, 699.420 527.511, 704.235 529.374, 711.553 529.440, 711.811 530.497, 715.965 531.083, 718.269 531.726, 720.421 531.810, 720.702 534.672, 730.284 535.093, 731.694 536.831, 736.709 538.148, 740.509 538.907, 742.700 539.518, 744.462 540.212, 746.203 542.892, 752.919 543.915, 755.483 544.233, 756.280 544.334, 756.534 546.657, 761.616 549.516, 767.873 554.143, 776.738 555.037, 778.450 560.157, 787.040 560.870, 788.236 566.503, 796.499 566.988, 797.210 573.149, 805.087 573.361, 805.357 579.961, 812.662 586.761, 819.117 593.732, 824.718 600.845, 829.467 608.075, 833.364 610.649, 834.437 615.394, 836.416 622.776, 838.635 630.198, 840.032 637.634, 840.621 645.063, 840.421 652.463, 839.450 659.812, 837.730 667.091, 835.281 674.283, 832.128 681.370, 828.296 688.334, 823.809 695.163, 818.693 701.840, 812.976 708.354, 806.684 714.693, 799.842 720.844, 792.479 726.797, 784.621 732.479, 776.392 732.545, 776.296 737.880, 767.839 738.076, 767.529 743.081, 758.872 743.384, 758.347 748.071, 749.513 748.461, 748.777 752.841, 739.787 753.301, 738.843 757.385, 729.715 757.897, 728.571 761.696, 719.321 762.244, 717.987 765.767, 708.628 766.336, 707.115 769.591, 697.659 770.170, 695.978 773.165, 686.437 773.741, 684.602 776.482, 674.985 777.045, 673.009 779.537, 663.325 780.078, 661.223 782.327, 651.479 782.838, 649.267 784.848, 639.471 785.322, 637.163 787.096, 627.321 787.526, 624.933 789.067, 615.053 789.450, 612.601 790.759, 602.687 791.089, 600.187 792.169, 590.246 792.443, 587.714 793.294, 577.751 793.511, 575.204 794.131, 565.224 794.289, 562.678 794.679, 552.686 794.778, 550.159 794.936, 540.160 794.960, 538.667 " fill="none" stroke="rgb(0, 0, 0)" stroke-linecap="butt" stroke-linejoin="round" stroke-opacity="1.0" stroke-width="3.0" />
            <path d=" M 778.078, 496.243 788.032, 497.207 788.865, 497.288 " fill="none" stroke="rgb(0, 0, 0)" stroke-linecap="butt" stroke-linejoin="round" stroke-opacity="1.0" stroke-width="3.0" />
            <path d=" M 824.100, 512.796 823.536, 502.756 822.699, 492.791 822.505, 490.474 822.120, 487.064 821.136, 478.334 819.725, 468.434 819.429, 466.361 817.721, 456.508 817.386, 454.579 815.377, 444.783 815.013, 443.008 812.700, 433.279 812.317, 431.665 809.688, 422.017 809.296, 420.577 806.333, 411.026 805.946, 409.777 802.633, 400.342 802.266, 399.297 798.586, 389.998 798.256, 389.165 794.197, 380.026 793.922, 379.408 789.473, 370.453 789.272, 370.048 784.427, 361.301 784.316, 361.101 779.062, 352.587 773.510, 344.545 767.665, 337.014 761.533, 330.027 755.124, 323.611 748.452, 317.791 741.529, 312.579 734.372, 307.991 726.991, 304.061 719.789, 300.994 719.400, 300.829 711.615, 298.328 703.654, 296.585 695.538, 295.618 " fill="none" stroke="rgb(0, 0, 0)" stroke-linecap="butt" stroke-linejoin="round" stroke-opacity="1.0" stroke-width="3.0" />
            <path d=" M 660.641, 300.162 664.504, 302.179 670.560, 306.111 676.436, 310.682 682.121, 315.856 687.604, 321.620 692.874, 327.959 697.921, 334.850 702.738, 342.264 707.320, 350.170 711.663, 358.529 715.766, 367.305 719.625, 376.477 723.156, 385.832 723.231, 386.029 726.430, 395.503 726.578, 395.940 729.460, 405.515 729.662, 406.186 732.244, 415.847 732.482, 416.739 734.781, 426.471 735.040, 427.569 737.073, 437.360 737.340, 438.643 739.119, 448.483 739.381, 449.937 740.910, 459.820 741.160, 461.435 742.442, 471.352 742.670, 473.118 743.712, 483.063 743.911, 484.964 744.719, 494.931 744.882, 496.949 745.238, 503.059 745.156, 504.296 745.016, 505.522 744.819, 506.725 744.567, 507.892 744.263, 509.010 743.909, 510.069 743.510, 511.057 743.070, 511.963 742.592, 512.778 742.083, 513.494 741.547, 514.103 740.990, 514.599 740.417, 514.976 739.835, 515.232 739.625, 515.303 730.443, 518.420 " fill="none" stroke="rgb(0, 0, 0)" stroke-linecap="butt" stroke-linejoin="round" stroke-opacity="1.0" stroke-width="3.0" />
            <path d=" M 800.311, 535.618 800.405, 535.624 801.426, 535.690 803.242, 535.806 812.584, 532.237 813.349, 531.945 815.284, 531.206 823.064, 528.234 824.602, 527.646 825.019, 527.512 830.745, 525.667 830.460, 515.671 830.372, 512.592 829.818, 502.608 829.652, 499.612 828.827, 489.646 828.587, 486.750 827.482, 476.811 827.173, 474.030 825.784, 464.127 825.412, 461.477 823.730, 451.620 823.303, 449.116 821.321, 439.314 820.847, 436.971 818.555, 427.237 818.045, 425.068 815.432, 415.415 815.201, 414.562 814.896, 413.434 811.953, 403.877 811.404, 402.094 809.249, 395.899 807.570, 391.076 803.927, 381.763 803.397, 380.407 799.384, 371.248 798.888, 370.116 794.490, 361.134 794.047, 360.228 789.250, 351.454 788.879, 350.775 785.742, 345.641 783.388, 341.786 780.306, 337.276 777.582, 333.289 771.467, 325.312 765.052, 317.889 758.346, 311.047 751.359, 304.815 744.104, 299.224 736.592, 294.303 728.838, 290.082 720.858, 286.585 712.669, 283.843 704.289, 281.881 695.739, 280.724 687.040, 280.392 677.044, 280.082 667.049, 279.773 665.385, 279.721 " fill="none" stroke="rgb(0, 0, 0)" stroke-linecap="butt" stroke-linejoin="round" stroke-opacity="1.0" stroke-width="3.0" />
            <path d=" M 687.040, 280.392 678.527, 280.890 678.215, 280.909 669.290, 282.294 664.073, 283.608 660.291, 284.561 651.245, 287.724 642.183, 291.795 639.004, 293.547 638.928, 293.589 633.135, 296.781 624.772, 302.263 624.133, 302.682 616.187, 308.754 615.210, 309.500 607.694, 316.096 606.401, 317.231 599.318, 324.290 597.740, 325.863 591.089, 333.331 589.263, 335.381 583.041, 343.209 581.007, 345.767 575.205, 353.912 573.007, 356.998 570.692, 360.616 570.286, 361.250 565.300, 369.042 563.766, 371.706 561.224, 376.123 559.576, 378.987 557.920, 381.865 554.276, 388.908 552.598, 392.152 550.903, 395.427 546.692, 404.497 544.284, 409.684 541.094, 417.362 538.093, 424.585 534.623, 433.964 532.362, 440.075 529.253, 449.580 527.121, 456.097 524.366, 465.710 522.395, 472.586 519.989, 482.293 518.208, 489.477 516.148, 499.262 514.583, 506.698 512.866, 516.550 512.318, 519.699 511.537, 524.179 510.163, 534.084 509.086, 541.844 508.052, 551.791 507.239, 559.619 506.550, 569.595 506.008, 577.426 505.664, 587.420 505.396, 595.188 505.400, 605.188 505.404, 612.830 505.762, 622.824 506.029, 630.277 " fill="none" stroke="rgb(0, 0, 0)" stroke-linecap="butt" stroke-linejoin="round" stroke-opacity="1.0" stroke-width="3.0" />
            <path d=" M 756.153, 516.542 755.862, 509.848 755.810, 507.081 755.773, 507.308 755.522, 508.481 755.219, 509.605 754.868, 510.669 754.471, 511.661 754.033, 512.572 753.559, 513.391 753.053, 514.111 752.520, 514.723 751.967, 515.221 751.399, 515.601 750.822, 515.858 741.367, 519.116 733.743, 521.744 733.151, 520.664 732.479, 519.766 731.738, 519.068 730.941, 518.580 730.443, 518.420 730.100, 518.311 720.117, 517.726 718.943, 517.657 718.067, 517.612 717.176, 517.792 716.286, 518.194 715.411, 518.811 714.601, 519.637 713.871, 520.658 713.202, 521.855 712.604, 523.207 712.088, 524.693 711.663, 526.285 711.336, 527.958 711.114, 529.682 710.999, 531.428 710.994, 533.166 720.973, 533.820 722.195, 533.900 727.030, 532.230 727.037, 531.676 727.087, 531.123 727.121, 530.928 727.180, 530.584 727.312, 530.076 727.480, 529.611 727.680, 529.203 727.905, 528.863 728.150, 528.600 728.408, 528.421 728.672, 528.330 728.935, 528.332 " fill="none" stroke="rgb(0, 0, 0)" stroke-linecap="butt" stroke-linejoin="round" stroke-opacity="1.0" stroke-width="3.0" />
            <path d=" M 802.398, 522.545 807.637, 520.563 808.151, 520.320 808.658, 519.970 809.154, 519.517 809.634, 518.967 810.096, 518.324 810.535, 517.596 810.949, 516.787 811.333, 515.905 811.686, 514.957 812.004, 513.951 812.285, 512.893 812.527, 511.792 812.728, 510.657 812.885, 509.496 822.479, 512.319 823.040, 512.484 824.100, 512.796 823.951, 513.527 823.671, 514.590 823.355, 515.602 823.066, 516.388 823.005, 516.555 822.623, 517.441 822.213, 518.254 821.778, 518.986 821.320, 519.632 820.844, 520.186 820.352, 520.641 819.850, 520.993 819.341, 521.238 813.409, 523.522 806.670, 526.116 806.117, 525.005 805.487, 524.084 805.029, 523.613 804.789, 523.367 804.035, 522.868 803.238, 522.594 802.398, 522.545 801.368, 522.485 800.151, 522.414 791.369, 521.899 790.534, 521.857 790.101, 521.954 790.089, 521.956 789.684, 522.047 788.832, 522.465 787.992, 523.105 787.216, 523.961 786.519, 525.017 785.878, 526.255 785.303, 527.652 784.805, 529.186 784.393, 530.831 784.073, 532.558 783.852, 534.337 783.732, 536.138 783.717, 537.930 790.099, 538.348 790.271, 538.360 794.960, 538.667 795.638, 538.711 800.217, 536.962 800.227, 536.391 800.279, 535.820 800.311, 535.618 800.369, 535.264 800.401, 535.133 800.498, 534.739 800.659, 534.259 800.851, 533.837 801.066, 533.485 801.299, 533.212 801.441, 533.104 801.544, 533.026 801.794, 532.932 802.042, 532.931 " fill="none" stroke="rgb(0, 0, 0)" stroke-linecap="butt" stroke-linejoin="round" stroke-opacity="1.0" stroke-width="3.0" />
            <path d=" M 774.667, 551.183 774.297, 560.671 773.669, 570.651 773.516, 573.070 772.649, 583.032 772.439, 585.451 771.334, 595.390 771.067, 597.794 769.725, 607.704 769.404, 610.077 767.822, 619.951 767.450, 622.277 765.628, 632.110 765.209, 634.373 763.144, 644.158 762.683, 646.343 760.373, 656.073 759.876, 658.165 757.316, 667.831 756.790, 669.815 753.976, 679.410 753.430, 681.271 750.355, 690.787 749.798, 692.511 746.458, 701.937 745.900, 703.511 742.286, 712.835 741.739, 714.247 737.845, 723.457 737.322, 724.695 733.138, 733.778 732.652, 734.832 728.169, 743.771 727.737, 744.632 722.943, 753.409 722.582, 754.070 717.468, 762.664 717.195, 763.122 711.748, 771.509 711.583, 771.762 705.755, 779.963 699.720, 787.699 693.487, 794.945 687.067, 801.674 680.472, 807.859 673.714, 813.474 666.806, 818.493 659.763, 822.890 652.599, 826.639 645.332, 829.716 637.978, 832.099 630.557, 833.761 623.088, 834.682 615.591, 834.844 610.649, 834.437 " fill="none" stroke="rgb(0, 0, 0)" stroke-linecap="butt" stroke-linejoin="round" stroke-opacity="1.0" stroke-width="3.0" />
            <path d=" M 790.271, 538.360 790.066, 548.357 789.975, 552.778 780.163, 550.848 779.289, 550.676 774.722, 549.778 766.424, 548.146 765.722, 548.008 765.020, 547.870 764.316, 547.732 763.612, 547.594 762.789, 547.301 762.002, 546.754 761.268, 545.963 760.603, 544.944 760.020, 543.715 759.530, 542.299 759.142, 540.723 758.863, 539.017 758.701, 537.214 758.696, 537.011 758.656, 535.349 758.732, 533.458 758.926, 531.578 759.151, 530.241 759.234, 529.744 759.651, 527.993 760.168, 526.358 760.775, 524.871 761.460, 523.560 762.138, 522.556 762.210, 522.450 763.009, 521.562 763.696, 520.914 764.384, 520.267 765.071, 519.621 765.757, 518.977 766.101, 518.654 773.393, 511.810 778.761, 506.771 786.053, 499.928 788.865, 497.288 789.493, 507.268 789.571, 508.510 789.813, 513.045 790.101, 521.954 " fill="none" stroke="rgb(0, 0, 0)" stroke-linecap="butt" stroke-linejoin="round" stroke-opacity="1.0" stroke-width="3.0" />
            <path d=" M 764.837, 537.414 764.516, 537.386 764.213, 537.209 763.939, 536.891 763.709, 536.448 763.532, 535.898 763.416, 535.265 763.366, 534.577 763.384, 533.864 763.469, 533.158 763.618, 532.489 763.824, 531.887 764.078, 531.378 764.369, 530.985 764.683, 530.724 765.007, 530.608 " fill="none" stroke="rgb(0, 0, 0)" stroke-linecap="butt" stroke-linejoin="round" stroke-opacity="1.0" stroke-width="3.0" />
            <path d=" M 765.007, 530.608 765.328, 530.640 765.631, 530.820 765.903, 531.138 766.132, 531.581 766.308, 532.130 766.423, 532.762 766.473, 533.447 766.455, 534.158 766.370, 534.861 766.222, 535.528 766.017, 536.129 765.764, 536.638 765.475, 537.032 765.161, 537.294 764.837, 537.414 " fill="none" stroke="rgb(0, 0, 0)" stroke-linecap="butt" stroke-linejoin="round" stroke-opacity="1.0" stroke-width="3.0" />
            <path d=" M 800.405, 535.624 800.409, 536.264 800.247, 546.262 800.197, 549.340 799.804, 559.333 799.682, 562.445 799.060, 572.425 798.865, 575.555 798.014, 585.519 797.746, 588.649 796.667, 598.591 796.329, 601.706 795.021, 611.620 794.614, 614.703 793.075, 624.584 792.603, 627.618 790.831, 637.460 790.297, 640.428 788.292, 650.225 787.700, 653.112 785.457, 662.857 784.815, 665.646 782.328, 675.332 781.642, 678.007 778.908, 687.626 778.185, 690.172 775.200, 699.715 774.449, 702.116 771.204, 711.575 770.435, 713.815 766.924, 723.178 766.149, 725.244 762.364, 734.500 761.596, 736.379 757.527, 745.514 756.779, 747.194 752.416, 756.192 751.704, 757.661 747.037, 766.505 746.378, 767.754 741.395, 776.424 740.806, 777.448 735.495, 785.921 734.998, 786.714 729.344, 794.962 728.959, 795.523 722.950, 803.516 722.700, 803.848 716.322, 811.549 716.230, 811.661 709.559, 818.932 702.699, 825.631 695.662, 831.732 688.462, 837.206 681.114, 842.022 673.632, 846.153 666.034, 849.573 658.339, 852.255 650.565, 854.170 642.732, 855.296 634.863, 855.611 626.981, 855.092 619.110, 853.719 611.274, 851.477 603.500, 848.352 595.816, 844.330 588.250, 839.404 580.831, 833.570 573.589, 826.828 566.819, 819.468 566.554, 819.179 560.329, 811.352 559.756, 810.631 554.064, 802.410 553.226, 801.199 548.050, 792.643 546.995, 790.899 542.865, 783.097 541.093, 779.750 540.300, 778.037 538.930, 775.080 535.550, 767.784 533.873, 763.638 532.532, 760.321 530.393, 755.031 527.122, 745.720 525.651, 741.530 524.687, 738.344 521.790, 728.773 521.350, 727.322 518.852, 717.639 517.515, 712.457 515.400, 702.683 514.167, 696.987 512.422, 687.141 511.329, 680.970 510.843, 677.504 509.456, 667.601 509.017, 664.468 507.976, 654.523 507.246, 647.547 506.543, 637.572 506.029, 630.277 503.529, 620.594 501.217, 611.642 " fill="none" stroke="rgb(0, 0, 0)" stroke-linecap="butt" stroke-linejoin="round" stroke-opacity="1.0" stroke-width="3.0" />
            <path d=" M 665.385, 279.721 657.424, 280.201 657.397, 280.203 649.316, 281.549 641.165, 283.775 632.970, 286.896 624.758, 290.925 616.557, 295.869 608.395, 301.732 600.731, 308.155 600.304, 308.514 593.103, 315.453 592.314, 316.213 585.571, 323.598 584.457, 324.818 578.164, 332.590 576.767, 334.316 570.912, 342.423 569.276, 344.688 568.755, 345.494 568.305, 346.189 562.875, 354.587 562.594, 355.022 562.018, 355.912 560.023, 359.349 558.406, 362.135 555.027, 367.956 553.065, 371.716 551.404, 374.899 548.333, 380.785 544.091, 389.841 541.972, 394.362 539.924, 399.238 536.050, 408.458 535.974, 408.640 532.458, 418.001 530.368, 423.567 527.200, 433.052 525.184, 439.088 522.355, 448.680 520.449, 455.146 517.952, 464.829 516.187, 471.673 514.015, 481.434 512.420, 488.603 510.570, 498.430 509.170, 505.865 507.637, 515.746 507.040, 519.597 506.452, 523.384 505.235, 533.310 504.281, 541.086 503.378, 551.045 502.666, 558.893 502.080, 568.876 501.618, 576.729 501.349, 586.725 501.139, 594.514 501.184, 604.514 501.217, 611.642 499.906, 621.556 498.685, 630.792 " fill="none" stroke="rgb(0, 0, 0)" stroke-linecap="butt" stroke-linejoin="round" stroke-opacity="1.0" stroke-width="3.0" />
            <path d=" M 499.958, 648.618 501.010, 658.562 501.805, 666.078 503.205, 675.979 504.212, 683.100 505.972, 692.944 507.164, 699.614 507.194, 699.754 509.326, 709.524 510.643, 715.556 513.160, 725.234 514.625, 730.867 517.544, 740.431 519.087, 745.490 521.701, 752.869 524.005, 759.376 524.119, 759.656 527.896, 768.916 529.350, 772.480 529.845, 773.541 531.231, 776.505 535.092, 784.765 536.506, 787.412 537.916, 790.051 540.571, 795.018 541.201, 796.197 546.415, 804.730 547.648, 806.748 553.381, 814.941 554.399, 816.395 560.668, 824.186 561.423, 825.124 568.240, 832.440 568.688, 832.921 576.056, 839.682 576.162, 839.779 583.814, 845.698 591.612, 850.679 599.528, 854.728 607.531, 857.853 615.593, 860.071 623.688, 861.396 631.789, 861.845 639.873, 861.441 647.914, 860.207 655.893, 858.167 663.787, 855.346 671.577, 851.773 679.246, 847.475 686.776, 842.481 694.151, 836.819 701.357, 830.521 708.381, 823.615 715.121, 816.228 715.210, 816.131 721.571, 808.415 721.832, 808.098 727.828, 800.094 728.238, 799.546 733.881, 791.290 734.418, 790.505 739.720, 782.026 740.362, 781.001 745.339, 772.327 746.063, 771.064 750.726, 762.218 751.514, 760.723 755.874, 751.724 756.708, 750.004 760.776, 740.869 761.638, 738.933 765.425, 729.677 766.301, 727.537 769.814, 718.175 770.689, 715.844 773.938, 706.386 774.800, 703.876 777.790, 694.334 778.628, 691.660 781.367, 682.042 782.170, 679.220 784.663, 669.536 785.423, 666.581 787.673, 656.837 788.383, 653.764 790.396, 643.969 791.048, 640.795 792.826, 630.954 793.414, 627.696 794.960, 617.816 795.480, 614.490 796.795, 604.577 797.243, 601.199 798.328, 591.258 798.701, 587.847 799.558, 577.884 799.853, 574.454 800.480, 564.474 800.695, 561.045 801.092, 551.053 801.228, 547.640 801.393, 537.642 801.426, 535.690 " fill="none" stroke="rgb(0, 0, 0)" stroke-linecap="butt" stroke-linejoin="round" stroke-opacity="1.0" stroke-width="3.0" />
            <path d=" M 498.685, 630.792 499.397, 640.767 499.958, 648.618 " fill="none" stroke="rgb(0, 0, 0)" stroke-linecap="butt" stroke-linejoin="round" stroke-opacity="1.0" stroke-width="3.0" />
            <path d=" M 815.201, 414.562 813.686, 406.889 811.513, 397.128 811.247, 395.935 808.831, 386.231 808.571, 385.184 805.905, 375.546 805.657, 374.651 802.733, 365.088 802.508, 364.351 799.318, 354.874 799.125, 354.302 795.658, 344.922 795.509, 344.520 791.753, 335.253 791.661, 335.026 787.581, 325.838 783.270, 316.978 778.732, 308.468 773.968, 300.322 768.984, 292.560 763.784, 285.199 758.371, 278.260 752.750, 271.764 746.926, 265.734 740.904, 260.192 734.690, 255.164 728.292, 250.669 721.718, 246.725 714.978, 243.350 708.081, 240.561 701.036, 238.379 693.857, 236.824 686.553, 235.917 679.139, 235.679 671.628, 236.130 671.518, 236.146 664.036, 237.282 656.379, 239.145 648.672, 241.730 640.934, 245.046 633.183, 249.101 625.437, 253.905 617.719, 259.465 610.050, 265.787 606.393, 269.198 602.453, 272.872 595.538, 280.096 594.948, 280.712 588.425, 288.292 587.559, 289.298 587.214, 289.741 581.073, 297.633 580.307, 298.619 578.133, 301.697 573.215, 308.661 567.808, 317.073 566.307, 319.409 565.132, 321.415 564.617, 322.295 560.462, 329.388 559.608, 330.846 557.872, 334.097 556.292, 337.055 553.142, 342.952 550.960, 347.436 549.352, 350.738 546.935, 355.703 542.923, 364.754 541.010, 369.069 538.088, 376.317 535.387, 383.014 531.951, 392.405 530.087, 397.500 526.945, 406.994 525.128, 412.486 522.275, 422.071 520.530, 427.932 517.960, 437.596 516.313, 443.792 514.022, 453.526 512.493, 460.019 510.479, 469.814 509.091, 476.566 507.350, 486.414 506.118, 493.380 504.645, 503.271 503.583, 510.405 502.467, 519.591 501.496, 527.586 500.555, 537.541 499.863, 544.866 499.190, 554.844 498.694, 562.191 498.289, 572.183 497.992, 579.503 497.856, 589.502 497.757, 596.744 497.892, 606.743 497.989, 613.859 498.399, 623.850 498.685, 630.792 499.376, 640.769 499.841, 647.490 499.958, 648.618 500.930, 658.570 501.451, 663.899 502.718, 673.818 503.504, 679.969 505.071, 689.846 505.991, 695.653 506.989, 700.882 508.863, 710.705 508.901, 710.903 511.092, 720.660 512.219, 725.677 514.736, 735.355 515.927, 739.936 518.782, 749.520 520.010, 753.643 520.937, 756.380 523.286, 763.323 524.451, 766.764 528.024, 776.104 528.839, 778.235 529.233, 779.264 530.147, 781.386 534.102, 790.571 534.337, 791.116 535.330, 793.172 536.678, 795.963 539.303, 801.396 539.740, 802.300 544.499, 811.095 545.420, 812.796 550.603, 821.348 551.355, 822.589 556.976, 830.859 557.523, 831.665 563.597, 839.609 563.905, 840.012 570.479, 847.620 577.225, 854.480 584.122, 860.590 591.148, 865.954 598.280, 870.579 605.499, 874.472 612.784, 877.640 620.118, 880.093 625.575, 881.387 627.483, 881.839 634.862, 882.888 642.239, 883.249 649.597, 882.940 656.922, 881.981 664.197, 880.392 671.409, 878.193 678.547, 875.402 685.597, 872.036 692.549, 868.113 699.392, 863.649 706.116, 858.662 712.711, 853.175 719.169, 847.210 725.483, 840.790 731.645, 833.936 737.648, 826.665 743.486, 818.998 749.153, 810.951 754.643, 802.540 759.826, 793.988 759.950, 793.783 764.861, 785.072 765.070, 784.701 769.721, 775.847 770.001, 775.314 774.399, 766.333 774.738, 765.641 778.893, 756.545 779.279, 755.700 783.197, 746.499 783.619, 745.507 787.307, 736.211 787.757, 735.077 791.219, 725.695 791.687, 724.426 794.928, 714.965 795.407, 713.567 798.433, 704.036 798.915, 702.518 801.731, 692.922 802.209, 691.294 804.821, 681.641 805.288, 679.913 807.699, 670.208 808.151, 668.389 810.365, 658.637 810.797, 656.737 812.816, 646.943 813.223, 644.970 815.049, 635.138 815.427, 633.103 817.060, 623.237 817.406, 621.148 818.849, 611.253 819.159, 609.120 820.414, 599.199 820.688, 597.034 821.755, 587.091 821.990, 584.902 822.870, 574.941 823.065, 572.740 823.757, 562.764 823.910, 560.559 824.414, 550.572 824.525, 548.374 824.841, 538.379 824.910, 536.199 825.019, 527.512 " fill="none" stroke="rgb(0, 0, 0)" stroke-linecap="butt" stroke-linejoin="round" stroke-opacity="1.0" stroke-width="3.0" />
            <path d=" M 669.394, 236.274 661.792, 237.426 654.125, 239.289 646.408, 241.872 638.660, 245.185 630.900, 249.238 623.145, 254.038 615.418, 259.593 607.741, 265.909 604.775, 268.669 600.135, 272.987 593.213, 280.205 592.623, 280.820 586.092, 288.393 585.226, 289.398 581.731, 293.880 577.967, 298.709 572.190, 306.872 571.360, 308.046 570.868, 308.741 565.454, 317.148 564.613, 318.454 564.080, 319.282 563.954, 319.478 560.132, 325.990 557.512, 330.454 557.249, 330.903 555.940, 333.349 551.222, 342.166 550.778, 342.995 550.563, 343.437 548.977, 346.688 544.566, 355.732 540.507, 364.872 538.637, 369.084 537.634, 371.567 533.888, 380.839 533.010, 383.013 531.703, 386.579 528.261, 395.968 527.706, 397.483 524.560, 406.975 522.744, 412.452 519.887, 422.035 518.144, 427.880 515.570, 437.543 513.925, 443.722 511.630, 453.455 510.104, 459.931 508.087, 469.726 506.700, 476.459 504.957, 486.306 503.727, 493.253 502.253, 503.144 501.193, 510.259 500.050, 519.656 499.106, 527.420 498.165, 537.375 497.475, 544.681 496.801, 554.658 496.307, 561.986 495.902, 571.977 495.607, 579.277 495.472, 589.276 495.374, 596.499 495.511, 606.498 495.609, 613.595 496.022, 623.587 496.308, 630.510 497.002, 640.486 497.469, 647.189 498.449, 657.141 499.083, 663.580 500.355, 673.499 501.141, 679.634 502.712, 689.509 503.633, 695.301 505.513, 705.123 505.874, 707.012 506.548, 710.535 508.745, 720.291 509.872, 725.294 512.396, 734.970 513.587, 739.539 516.449, 749.120 517.677, 753.232 520.080, 760.316 522.124, 766.341 522.408, 767.081 525.989, 776.418 526.914, 778.830 528.095, 781.566 529.423, 784.644 532.025, 790.672 534.683, 796.159 536.034, 798.951 537.436, 801.846 538.708, 804.191 543.124, 812.333 548.316, 820.880 549.068, 822.119 554.697, 830.384 555.245, 831.188 561.327, 839.126 561.636, 839.530 568.219, 847.133 574.974, 853.990 581.881, 860.097 588.916, 865.460 596.058, 870.084 603.287, 873.976 610.582, 877.145 617.926, 879.600 625.301, 881.348 " fill="none" stroke="rgb(0, 0, 0)" stroke-linecap="butt" stroke-linejoin="round" stroke-opacity="1.0" stroke-width="3.0" />
            <path d=" M 671.628, 236.130 669.394, 236.274 " fill="none" stroke="rgb(0, 0, 0)" stroke-linecap="butt" stroke-linejoin="round" stroke-opacity="1.0" stroke-width="3.0" />
            <path d=" M 625.301, 881.348 627.483, 881.839 " fill="none" stroke="rgb(0, 0, 0)" stroke-linecap="butt" stroke-linejoin="round" stroke-opacity="1.0" stroke-width="3.0" />
            <path d=" M 480.571, 632.469 481.281, 642.444 481.932, 651.589 482.931, 661.539 483.818, 670.366 485.114, 680.281 486.219, 688.737 487.819, 698.608 489.122, 706.646 491.035, 716.462 492.511, 724.038 494.746, 733.785 496.368, 740.863 497.574, 745.401 499.382, 752.206 500.676, 757.072 503.589, 766.639 505.240, 772.061 505.411, 772.624 508.683, 782.074 510.554, 787.479 510.793, 788.091 512.123, 791.488 514.283, 797.008 514.304, 797.063 515.524, 800.180 516.080, 801.603 520.111, 810.754 520.608, 811.883 521.879, 814.769 521.966, 814.964 523.646, 818.362 524.962, 821.021 527.610, 826.375 528.185, 827.538 528.948, 828.913 529.148, 829.273 531.874, 834.184 534.714, 839.302 540.001, 847.790 541.525, 850.237 547.262, 858.429 548.594, 860.332 554.792, 868.179 555.894, 869.575 562.563, 877.026 563.399, 877.960 570.544, 884.957 571.083, 885.485 578.702, 891.963 578.923, 892.151 586.892, 897.961 594.968, 902.921 603.127, 907.042 611.346, 910.334 619.606, 912.811 623.935, 913.850 632.191, 915.522 640.446, 916.410 648.682, 916.533 656.881, 915.911 665.027, 914.565 673.104, 912.517 681.098, 909.788 688.995, 906.404 696.783, 902.385 704.448, 897.757 711.982, 892.542 719.372, 886.765 726.611, 880.449 733.689, 873.618 740.599, 866.294 747.137, 858.727 747.333, 858.500 753.556, 850.673 753.884, 850.259 759.803, 842.199 760.248, 841.594 765.872, 833.326 766.417, 832.525 771.758, 824.071 772.388, 823.074 777.455, 814.453 778.155, 813.261 782.958, 804.490 783.715, 803.108 788.263, 794.202 789.064, 792.633 793.365, 783.605 794.198, 781.855 798.260, 772.717 799.115, 770.795 802.945, 761.557 803.811, 759.469 807.417, 750.141 808.285, 747.895 811.672, 738.486 812.533, 736.091 815.707, 726.608 816.555, 724.075 819.520, 714.524 820.347, 711.861 823.109, 702.250 823.909, 699.467 826.471, 689.801 827.238, 686.908 829.604, 677.192 830.333, 674.200 832.507, 664.439 833.193, 661.357 835.177, 651.556 835.817, 648.394 837.613, 638.557 838.203, 635.327 839.814, 625.457 840.350, 622.168 841.776, 612.271 842.257, 608.934 843.500, 599.011 843.923, 595.636 844.984, 585.693 845.347, 582.290 846.226, 572.329 846.528, 568.910 847.225, 558.934 847.464, 555.508 847.979, 545.521 848.155, 542.099 848.487, 532.104 848.600, 528.696 848.748, 518.697 848.798, 515.314 848.760, 505.314 848.747, 501.966 848.522, 491.969 848.448, 488.667 848.033, 478.675 847.898, 475.430 847.290, 465.448 847.097, 462.270 846.293, 452.302 846.043, 449.202 845.041, 439.253 844.737, 436.241 843.531, 426.314 843.177, 423.402 841.763, 413.503 841.363, 410.701 839.735, 400.834 839.293, 398.153 837.447, 388.325 836.968, 385.775 834.896, 375.992 834.386, 373.584 832.081, 363.853 831.547, 361.597 829.002, 351.926 828.451, 349.831 825.658, 340.229 825.098, 338.305 822.047, 328.782 821.488, 327.038 818.169, 317.605 817.622, 316.048 814.024, 306.718 813.499, 305.356 809.612, 296.142 809.122, 294.981 804.932, 285.901 804.490, 284.945 799.985, 276.018 799.607, 275.269 794.772, 266.516 794.473, 265.975 789.294, 257.421 789.091, 257.086 783.555, 248.758 783.465, 248.623 777.597, 240.611 771.492, 233.073 765.154, 226.035 758.589, 219.519 751.803, 213.551 744.802, 208.156 737.596, 203.358 730.191, 199.184 722.598, 195.657 714.827, 192.802 706.891, 190.643 698.800, 189.204 690.571, 188.507 682.216, 188.574 677.794, 188.950 669.309, 189.804 660.732, 191.459 652.082, 193.935 643.380, 197.245 634.646, 201.404 625.902, 206.424 617.612, 212.016 617.172, 212.312 609.279, 218.453 608.479, 219.075 600.992, 225.704 599.849, 226.715 592.767, 233.776 591.307, 235.232 584.628, 242.675 582.881, 244.622 576.597, 252.401 576.321, 252.743 574.598, 254.877 568.700, 262.952 566.485, 265.984 560.963, 274.321 558.572, 277.929 557.008, 280.526 556.346, 281.626 555.388, 283.218 552.810, 287.498 552.635, 287.788 552.319, 288.313 551.078, 290.374 550.887, 290.691 548.028, 295.909 546.487, 298.720 545.488, 300.542 543.923, 303.399 543.458, 304.247 538.993, 313.195 537.767, 315.653 536.313, 318.566 536.232, 318.745 532.433, 327.113 529.481, 333.617 525.669, 342.862 523.449, 348.244 522.988, 349.361 519.488, 358.729 516.862, 365.758 513.666, 375.234 511.127, 382.761 508.228, 392.332 505.808, 400.321 503.200, 409.975 500.927, 418.385 498.604, 428.112 496.505, 436.896 496.193, 438.394 494.177, 448.053 492.561, 455.794 490.795, 465.637 489.112, 475.016 487.621, 484.905 486.173, 494.499 484.954, 504.424 484.595, 507.345 484.202, 510.539 483.756, 514.175 483.523, 516.619 483.234, 519.655 483.232, 519.669 483.227, 519.728 483.218, 519.818 482.270, 529.773 481.870, 533.977 481.193, 543.954 480.523, 553.836 480.118, 563.828 479.719, 573.683 479.588, 583.683 479.460, 593.450 479.605, 603.449 479.745, 613.067 479.978, 618.526 480.403, 628.517 480.571, 632.469 " fill="none" stroke="rgb(0, 0, 0)" stroke-linecap="butt" stroke-linejoin="round" stroke-opacity="1.0" stroke-width="3.0" />
            <path d=" M 682.216, 188.574 673.753, 189.425 665.199, 191.081 656.571, 193.558 647.891, 196.872 639.178, 201.036 630.455, 206.063 622.174, 211.669 621.745, 211.960 613.863, 218.116 613.071, 218.735 605.596, 225.378 604.459, 226.388 597.392, 233.463 595.935, 234.921 589.271, 242.376 587.526, 244.328 581.257, 252.119 579.259, 254.602 579.169, 254.726 573.286, 262.812 571.162, 265.732 565.654, 274.079 563.263, 277.702 558.276, 286.015 557.630, 287.092 556.186, 289.498 555.591, 290.490 553.494, 294.330 551.956, 297.147 548.173, 304.074 546.443, 307.556 544.899, 310.661 541.040, 318.425 536.919, 327.536 534.218, 333.508 533.548, 335.137 529.747, 344.387 527.734, 349.287 524.375, 358.309 521.615, 365.721 518.429, 375.200 515.887, 382.762 512.997, 392.336 510.573, 400.362 507.972, 410.018 505.696, 418.468 503.379, 428.196 501.277, 437.021 499.240, 446.811 497.336, 455.962 495.574, 465.806 494.724, 470.555 493.887, 475.229 492.399, 485.118 491.634, 490.200 490.948, 494.757 490.538, 498.096 489.395, 507.422 488.841, 511.932 488.831, 512.017 488.529, 514.479 488.318, 516.702 488.027, 519.755 488.013, 519.903 487.835, 521.772 486.888, 531.727 486.641, 534.327 486.430, 537.425 485.753, 547.402 485.290, 554.231 484.884, 564.223 484.481, 574.124 484.348, 584.123 484.217, 593.935 484.358, 603.934 484.495, 613.597 484.915, 623.588 485.036, 626.456 485.313, 633.041 486.017, 643.017 486.665, 652.204 487.657, 662.155 488.542, 671.021 489.569, 678.931 490.448, 685.706 490.932, 689.432 492.523, 699.305 493.823, 707.379 495.725, 717.197 497.200, 724.807 499.423, 734.557 499.786, 736.148 501.044, 741.666 503.599, 751.334 505.337, 757.908 508.236, 767.478 510.058, 773.489 513.315, 782.944 513.981, 784.880 515.185, 788.372 516.127, 790.793 517.319, 793.854 520.694, 802.521 522.201, 805.958 523.492, 808.903 526.562, 815.906 528.990, 820.836 530.315, 823.527 532.764, 828.500 533.110, 829.126 537.946, 837.879 539.274, 840.282 544.545, 848.780 546.067, 851.234 551.787, 859.436 553.116, 861.342 559.299, 869.202 560.396, 870.596 567.051, 878.060 567.880, 878.991 575.012, 886.001 575.544, 886.523 583.151, 893.014 583.362, 893.194 591.310, 899.007 599.364, 903.968 607.501, 908.088 615.698, 911.377 623.935, 913.850 " fill="none" stroke="rgb(0, 0, 0)" stroke-linecap="butt" stroke-linejoin="round" stroke-opacity="1.0" stroke-width="3.0" />
            <path d=" M 730.100, 518.311 729.230, 518.266 728.345, 518.447 727.460, 518.852 726.591, 519.473 726.222, 519.853 725.785, 520.303 725.133, 521.227 725.061, 521.330 724.395, 522.532 723.801, 523.892 723.287, 525.385 722.864, 526.985 722.680, 527.938 722.539, 528.666 722.316, 530.399 722.302, 530.619 722.201, 532.154 722.195, 533.900 " fill="none" stroke="rgb(0, 0, 0)" stroke-linecap="butt" stroke-linejoin="round" stroke-opacity="1.0" stroke-width="3.0" />
            <path d=" M 728.935, 528.332 729.189, 528.424 729.428, 528.605 729.645, 528.870 729.834, 529.211 729.990, 529.619 730.109, 530.083 730.188, 530.590 730.225, 531.127 " fill="none" stroke="rgb(0, 0, 0)" stroke-linecap="butt" stroke-linejoin="round" stroke-opacity="1.0" stroke-width="3.0" />
            <path d=" M 727.121, 530.928 730.225, 531.127 739.677, 527.862 749.032, 524.631 " fill="none" stroke="rgb(0, 0, 0)" stroke-linecap="butt" stroke-linejoin="round" stroke-opacity="1.0" stroke-width="3.0" />
            <path d=" M 803.238, 522.594 802.411, 522.553 802.331, 522.571 801.567, 522.744 800.722, 523.165 800.684, 523.194 799.888, 523.809 799.118, 524.669 798.562, 525.524 798.495, 525.626 798.427, 525.732 797.790, 526.976 797.220, 528.381 796.725, 529.923 796.315, 531.576 796.134, 532.560 795.996, 533.312 795.775, 535.100 795.760, 535.327 795.655, 536.910 795.638, 538.711 " fill="none" stroke="rgb(0, 0, 0)" stroke-linecap="butt" stroke-linejoin="round" stroke-opacity="1.0" stroke-width="3.0" />
            <path d=" M 802.042, 532.931 802.281, 533.025 802.506, 533.211 802.709, 533.482 802.885, 533.833 803.030, 534.253 803.140, 534.730 803.211, 535.253 803.242, 535.806 " fill="none" stroke="rgb(0, 0, 0)" stroke-linecap="butt" stroke-linejoin="round" stroke-opacity="1.0" stroke-width="3.0" />
            <path d=" M 781.504, 483.823 781.661, 483.792 781.822, 483.787 782.041, 483.819 782.253, 483.897 782.450, 484.017 782.625, 484.174 782.770, 484.364 782.881, 484.580 782.954, 484.818 782.984, 485.072 782.967, 485.310 782.909, 485.536 782.811, 485.743 782.677, 485.924 782.512, 486.070 782.319, 486.179 782.106, 486.243 " fill="none" stroke="rgb(0, 0, 0)" stroke-linecap="butt" stroke-linejoin="round" stroke-opacity="1.0" stroke-width="3.0" />
            <path d=" M 781.504, 483.823 781.361, 483.874 781.154, 483.983 780.972, 484.132 780.946, 484.157 780.792, 484.343 780.678, 484.557 780.607, 484.793 780.586, 485.046 780.614, 485.284 780.660, 485.423 " fill="none" stroke="rgb(0, 0, 0)" stroke-linecap="butt" stroke-linejoin="round" stroke-opacity="1.0" stroke-width="3.0" />
            <path d=" M 780.625, 485.318 780.660, 485.423 780.700, 485.544 780.817, 485.750 780.973, 485.930 781.162, 486.075 781.195, 486.093 781.402, 486.194 781.442, 486.206 781.651, 486.257 781.680, 486.262 781.717, 486.266 781.759, 486.269 781.809, 486.270 781.860, 486.270 781.911, 486.268 781.959, 486.265 782.005, 486.261 782.045, 486.256 782.079, 486.250 782.106, 486.243 " fill="none" stroke="rgb(0, 0, 0)" stroke-linecap="butt" stroke-linejoin="round" stroke-opacity="1.0" stroke-width="3.0" />
            <path d=" M 778.949, 481.812 779.080, 487.986 782.802, 488.152 784.752, 488.239 785.406, 487.873 784.772, 482.005 782.232, 481.852 779.381, 481.680 778.949, 481.812 " fill="none" stroke="rgb(0, 0, 0)" stroke-linecap="butt" stroke-linejoin="round" stroke-opacity="1.0" stroke-width="3.0" />
            <path d=" M 784.752, 488.239 784.625, 482.050 " fill="none" stroke="rgb(0, 0, 0)" stroke-linecap="butt" stroke-linejoin="round" stroke-opacity="1.0" stroke-width="3.0" />
            <path d=" M 784.772, 482.005 784.625, 482.050 778.949, 481.812 " fill="none" stroke="rgb(0, 0, 0)" stroke-linecap="butt" stroke-linejoin="round" stroke-opacity="1.0" stroke-width="3.0" />
            <path d=" M 739.625, 515.303 739.253, 515.289 729.257, 515.023 727.748, 514.983 717.749, 514.811 716.259, 514.785 706.260, 514.698 704.783, 514.685 694.783, 514.675 693.313, 514.673 683.314, 514.732 681.846, 514.741 671.847, 514.861 670.376, 514.879 660.377, 515.051 658.898, 515.077 648.901, 515.295 647.408, 515.327 637.412, 515.582 635.902, 515.621 625.906, 515.906 624.374, 515.950 614.378, 516.258 612.819, 516.306 602.825, 516.629 601.235, 516.680 591.240, 517.011 589.614, 517.065 579.620, 517.398 577.955, 517.453 578.085, 507.454 578.144, 502.866 578.159, 492.866 578.166, 488.288 578.065, 478.288 578.019, 473.739 577.801, 463.741 577.703, 459.237 577.367, 449.243 577.217, 444.803 576.760, 434.814 576.561, 430.456 575.981, 420.473 575.734, 416.214 575.029, 406.239 574.736, 402.101 573.901, 392.136 573.566, 388.135 572.778, 380.043 " fill="none" stroke="rgb(0, 0, 0)" stroke-linecap="butt" stroke-linejoin="round" stroke-opacity="1.0" stroke-width="3.0" />
            <path d=" M 539.912, 216.494 537.825, 213.629 533.798, 208.103 531.823, 205.090 528.629, 200.215 527.286, 198.165 " fill="none" stroke="rgb(0, 0, 0)" stroke-linecap="butt" stroke-linejoin="round" stroke-opacity="1.0" stroke-width="3.0" />
            <path d=" M 576.321, 252.743 574.794, 251.680 567.003, 245.410 566.473, 244.983 559.109, 238.218 558.444, 237.606 551.548, 230.439 550.721, 229.581 549.972, 228.706 546.192, 224.293 545.614, 223.618 543.316, 220.935 541.335, 218.350 541.058, 217.989 540.657, 217.465 539.912, 216.494 537.868, 213.826 536.237, 211.698 " fill="none" stroke="rgb(0, 0, 0)" stroke-linecap="butt" stroke-linejoin="round" stroke-opacity="1.0" stroke-width="3.0" />
            <path d=" M 527.286, 198.165 523.074, 191.536 520.737, 188.375 518.716, 185.640 516.868, 183.536 514.220, 180.519 509.592, 176.212 504.842, 172.764 503.464, 172.040 500.603, 170.539 499.978, 170.211 495.012, 168.593 489.955, 167.950 484.821, 168.321 479.622, 169.737 474.376, 172.232 473.332, 172.945 472.010, 173.848 469.099, 175.837 466.405, 178.250 463.809, 180.577 458.525, 186.473 454.379, 192.047 454.377, 192.050 454.370, 192.060 453.603, 193.091 453.269, 193.540 448.062, 201.792 447.979, 201.945 443.201, 210.730 442.927, 211.234 438.641, 220.269 437.886, 221.862 434.039, 231.092 432.966, 233.666 429.509, 243.050 428.190, 246.632 425.085, 256.138 423.584, 260.733 420.797, 270.337 419.173, 275.934 416.678, 285.617 414.983, 292.192 412.756, 301.941 411.039, 309.458 409.061, 319.260 407.364, 327.669 405.618, 337.515 403.980, 346.754 402.455, 356.637 400.911, 366.638 399.595, 376.551 398.279, 386.464 398.176, 387.234 397.060, 397.172 395.944, 407.109 395.793, 408.448 394.870, 418.405 393.946, 428.362 393.778, 430.179 393.042, 440.152 392.307, 450.125 392.145, 452.323 391.593, 462.308 391.041, 472.293 390.903, 474.772 390.532, 484.765 390.161, 494.758 390.062, 497.411 389.871, 507.409 389.679, 517.407 389.627, 520.125 389.657, 520.168 395.280, 528.350 396.826, 530.497 401.023, 536.330 406.857, 544.076 412.783, 551.597 418.802, 558.905 424.916, 566.007 431.125, 572.913 437.432, 579.632 443.838, 586.172 450.345, 592.542 456.953, 598.748 463.664, 604.800 470.482, 610.704 477.406, 616.467 479.978, 618.526 " fill="none" stroke="rgb(0, 0, 0)" stroke-linecap="butt" stroke-linejoin="round" stroke-opacity="1.0" stroke-width="3.0" />
            <path d=" M 359.851, 510.718 355.555, 519.748 353.190, 524.720 " fill="none" stroke="rgb(0, 0, 0)" stroke-linecap="butt" stroke-linejoin="round" stroke-opacity="1.0" stroke-width="3.0" />
            <path d=" M 473.332, 172.945 465.366, 173.243 " fill="none" stroke="rgb(0, 0, 0)" stroke-linecap="butt" stroke-linejoin="round" stroke-opacity="1.0" stroke-width="3.0" />
            <path d=" M 534.152, 484.257 534.177, 484.271 " fill="none" stroke="rgb(0, 0, 0)" stroke-linecap="butt" stroke-linejoin="round" stroke-opacity="1.0" stroke-width="3.0" />
            <path d=" M 534.265, 484.306 534.324, 484.330 " fill="none" stroke="rgb(0, 0, 0)" stroke-linecap="butt" stroke-linejoin="round" stroke-opacity="1.0" stroke-width="3.0" />
            <path d=" M 545.614, 223.618 541.335, 218.350 " fill="none" stroke="rgb(0, 0, 0)" stroke-linecap="butt" stroke-linejoin="round" stroke-opacity="1.0" stroke-width="3.0" />
            <path d=" M 551.548, 230.439 549.972, 228.706 " fill="none" stroke="rgb(0, 0, 0)" stroke-linecap="butt" stroke-linejoin="round" stroke-opacity="1.0" stroke-width="3.0" />
        </g>
    </g>
</svg>
