<?xml version='1.0' encoding='ascii'?>
<svg xmlns="http://www.w3.org/2000/svg" height="1080" version="1.1" width="1080">
    <g id="View Layer_LineSet" inkscape:groupmode="lineset" inkscape:label="View Layer_LineSet" xmlns:inkscape="http://www.inkscape.org/namespaces/inkscape">
        <g id="strokes" inkscape:groupmode="layer" inkscape:label="strokes" xmlns:inkscape="http://www.inkscape.org/namespaces/inkscape">
            <path d=" M 565.211, 502.946 565.154, 504.082 565.079, 505.191 564.986, 506.260 564.875, 507.281 564.747, 508.241 564.700, 508.534 564.683, 508.641 " fill="none" stroke="rgb(0, 0, 0)" stroke-linecap="butt" stroke-linejoin="round" stroke-opacity="1.0" stroke-width="3.0" />
            <path d=" M 353.102, 532.286 359.473, 532.689 " fill="none" stroke="rgb(0, 0, 0)" stroke-linecap="butt" stroke-linejoin="round" stroke-opacity="1.0" stroke-width="3.0" />
            <path d=" M 377.422, 533.044 387.422, 533.009 389.462, 533.003 " fill="none" stroke="rgb(0, 0, 0)" stroke-linecap="butt" stroke-linejoin="round" stroke-opacity="1.0" stroke-width="3.0" />
            <path d=" M 389.462, 533.003 385.498, 523.822 381.534, 514.641 380.534, 512.325 " fill="none" stroke="rgb(0, 0, 0)" stroke-linecap="butt" stroke-linejoin="round" stroke-opacity="1.0" stroke-width="3.0" />
            <path d=" M 468.972, 175.947 464.496, 176.110 459.956, 177.342 455.366, 179.676 450.740, 183.145 446.096, 187.780 441.449, 193.603 440.459, 195.106 439.088, 197.188 436.819, 200.632 432.225, 208.881 427.906, 217.900 427.686, 218.359 423.839, 227.589 423.226, 229.061 419.789, 238.452 418.864, 240.981 415.790, 250.497 414.625, 254.104 411.873, 263.718 410.532, 268.403 408.068, 278.095 406.607, 283.842 404.405, 293.597 402.874, 300.378 400.912, 310.183 399.357, 317.957 397.616, 327.805 396.076, 336.515 394.541, 346.397 393.052, 355.977 391.711, 365.887 390.371, 375.797 390.307, 376.263 389.151, 386.196 387.994, 396.129 387.860, 397.282 386.878, 407.233 385.897, 417.185 385.725, 418.933 384.912, 428.900 384.100, 438.867 383.917, 441.111 383.269, 451.090 382.621, 461.069 382.450, 463.707 381.963, 473.695 381.475, 483.683 381.333, 486.603 381.004, 496.598 380.674, 506.592 380.572, 509.681 380.534, 512.325 379.048, 522.214 377.563, 532.103 377.422, 533.044 " fill="none" stroke="rgb(0, 0, 0)" stroke-linecap="butt" stroke-linejoin="round" stroke-opacity="1.0" stroke-width="3.0" />
            <path d=" M 566.925, 521.124 567.103, 521.127 567.993, 521.143 574.824, 520.495 577.907, 520.285 578.020, 510.285 578.075, 505.454 578.070, 495.454 578.068, 490.640 577.946, 480.641 577.887, 475.863 577.645, 465.866 577.531, 461.143 577.168, 451.150 576.999, 446.501 576.513, 436.513 576.291, 431.956 575.678, 421.975 575.406, 417.531 574.664, 407.558 574.343, 403.246 573.468, 393.285 573.102, 389.126 572.089, 379.178 572.034, 378.643 " fill="none" stroke="rgb(0, 0, 0)" stroke-linecap="butt" stroke-linejoin="round" stroke-opacity="1.0" stroke-width="3.0" />
            <path d=" M 569.026, 383.828 570.050, 393.775 570.166, 394.895 571.051, 404.856 571.365, 408.396 572.115, 418.368 572.393, 422.062 573.012, 432.043 573.249, 435.869 573.741, 445.857 573.935, 449.796 574.303, 459.789 574.451, 463.820 574.696, 473.817 574.797, 477.923 574.922, 487.922 574.974, 492.083 574.980, 502.083 574.983, 506.280 574.971, 507.378 574.887, 508.084 574.795, 508.755 574.695, 509.387 574.588, 509.978 574.474, 510.523 574.354, 511.021 574.229, 511.467 574.100, 511.860 573.966, 512.198 573.830, 512.479 573.691, 512.702 573.550, 512.864 573.409, 512.966 573.268, 513.006 569.235, 513.268 569.068, 512.089 568.873, 511.060 568.654, 510.199 568.414, 509.521 568.158, 509.038 567.890, 508.759 567.614, 508.688 567.267, 508.682 565.175, 508.648 564.699, 508.641 564.683, 508.641 563.751, 508.625 562.912, 508.612 559.339, 508.554 557.554, 508.525 557.446, 508.524 557.226, 508.520 556.936, 508.659 556.648, 509.007 556.366, 509.559 556.096, 510.305 555.842, 511.233 555.608, 512.329 555.555, 512.647 555.399, 513.573 555.218, 514.944 555.068, 516.420 554.953, 517.975 554.873, 519.582 554.867, 519.798 554.860, 520.070 554.830, 521.213 555.443, 521.224 557.290, 521.257 557.391, 521.259 559.175, 521.291 562.746, 521.354 563.582, 521.369 564.533, 521.386 565.297, 521.400 566.921, 521.245 566.925, 521.124 566.936, 520.728 566.965, 520.225 566.981, 520.054 567.008, 519.748 567.063, 519.311 567.129, 518.925 567.145, 518.854 567.203, 518.601 567.285, 518.349 567.371, 518.174 567.460, 518.082 567.548, 518.074 " fill="none" stroke="rgb(0, 0, 0)" stroke-linecap="butt" stroke-linejoin="round" stroke-opacity="1.0" stroke-width="3.0" />
            <path d=" M 386.228, 248.414 384.564, 254.171 382.079, 263.857 380.931, 268.328 378.706, 278.077 377.439, 283.629 375.449, 293.429 374.107, 300.032 372.331, 309.873 370.957, 317.488 369.377, 327.363 368.005, 335.935 366.608, 345.837 365.273, 355.302 364.047, 365.227 362.821, 375.151 362.776, 375.511 361.712, 385.455 360.649, 395.398 360.533, 396.475 359.624, 406.434 358.714, 416.393 358.558, 418.097 357.796, 428.068 357.034, 438.039 356.864, 440.274 356.246, 450.255 355.628, 460.235 355.463, 462.897 354.985, 472.886 354.507, 482.874 354.365, 485.853 354.025, 495.847 353.684, 505.841 353.576, 509.022 353.372, 519.020 353.169, 529.018 353.102, 532.286 353.081, 542.286 353.059, 552.286 353.052, 555.429 353.191, 565.428 353.329, 575.427 353.370, 578.398 353.671, 588.393 353.972, 598.389 354.052, 601.073 354.520, 611.063 354.987, 621.052 355.094, 623.340 355.733, 633.320 356.372, 643.300 356.486, 645.087 357.304, 655.053 358.122, 665.020 358.219, 666.209 359.224, 676.158 360.229, 686.107 360.280, 686.608 361.484, 696.535 362.655, 706.193 364.071, 716.092 365.328, 724.883 366.971, 734.747 368.281, 742.606 370.171, 752.426 371.495, 759.299 373.009, 766.141 " fill="none" stroke="rgb(0, 0, 0)" stroke-linecap="butt" stroke-linejoin="round" stroke-opacity="1.0" stroke-width="3.0" />
            <path d=" M 522.926, 538.515 522.651, 547.721 522.246, 557.713 522.078, 561.838 521.564, 571.825 521.354, 575.900 520.729, 585.880 520.478, 589.887 519.742, 599.860 519.453, 603.780 518.603, 613.744 518.278, 617.560 517.312, 627.513 517.104, 629.646 " fill="none" stroke="rgb(0, 0, 0)" stroke-linecap="butt" stroke-linejoin="round" stroke-opacity="1.0" stroke-width="3.0" />
            <path d=" M 497.995, 745.789 495.604, 755.252 492.947, 764.893 492.680, 765.862 489.798, 775.438 489.619, 776.032 486.490, 785.530 486.424, 785.732 483.097, 794.929 479.642, 803.586 476.063, 811.671 472.365, 819.149 468.552, 825.982 464.630, 832.132 460.607, 837.563 456.488, 842.238 452.282, 846.117 451.823, 846.443 " fill="none" stroke="rgb(0, 0, 0)" stroke-linecap="butt" stroke-linejoin="round" stroke-opacity="1.0" stroke-width="3.0" />
            <path d=" M 389.549, 527.767 389.462, 533.003 389.434, 543.003 389.405, 553.002 389.396, 556.088 389.529, 566.088 389.662, 576.087 389.701, 579.002 389.997, 588.997 390.294, 598.993 390.372, 601.624 390.836, 611.614 391.299, 621.603 391.403, 623.841 392.039, 633.821 392.675, 643.801 392.786, 645.541 393.599, 655.508 394.412, 665.475 394.506, 666.621 395.504, 676.571 396.503, 686.521 396.549, 686.983 397.742, 696.912 398.899, 706.537 400.299, 716.438 401.538, 725.200 403.158, 735.068 404.444, 742.902 406.301, 752.728 407.596, 759.579 409.713, 769.353 410.974, 775.176 413.375, 784.883 414.554, 789.648 417.270, 799.272 418.312, 802.964 421.384, 812.480 422.227, 815.094 425.702, 824.470 426.277, 826.020 430.214, 835.212 430.438, 835.736 434.689, 844.240 439.011, 851.535 439.683, 852.473 439.969, 852.872 443.382, 857.634 447.785, 862.556 452.201, 866.323 456.615, 868.959 461.010, 870.498 465.373, 870.974 469.691, 870.423 473.951, 868.879 478.142, 866.387 482.255, 862.987 483.941, 861.200 486.282, 858.718 490.215, 853.622 494.046, 847.742 497.769, 841.119 501.379, 833.793 504.872, 825.803 508.244, 817.191 511.490, 807.992 513.633, 801.296 514.609, 798.244 514.867, 797.361 " fill="none" stroke="rgb(0, 0, 0)" stroke-linecap="butt" stroke-linejoin="round" stroke-opacity="1.0" stroke-width="3.0" />
            <path d=" M 465.342, 852.619 461.268, 851.965 460.559, 851.677 457.179, 850.305 453.087, 847.609 451.823, 846.443 449.008, 843.849 444.957, 839.004 440.950, 833.057 437.004, 825.992 433.136, 817.799 429.365, 808.478 426.061, 799.040 425.708, 798.033 422.794, 788.468 422.187, 786.473 419.615, 776.809 418.818, 773.816 416.550, 764.077 415.622, 760.091 413.628, 750.292 412.617, 745.330 410.871, 735.483 409.823, 729.574 408.304, 719.690 407.257, 712.877 405.948, 702.963 404.935, 695.298 403.822, 685.360 402.874, 676.904 401.946, 666.947 401.090, 657.769 400.336, 647.797 399.593, 637.978 399.007, 627.996 398.420, 618.013 398.397, 617.621 397.972, 607.630 397.546, 597.639 397.510, 596.793 397.241, 586.796 396.973, 576.800 396.940, 575.594 396.825, 565.595 396.709, 555.595 396.692, 554.130 396.727, 544.130 396.753, 536.824 " fill="none" stroke="rgb(0, 0, 0)" stroke-linecap="butt" stroke-linejoin="round" stroke-opacity="1.0" stroke-width="3.0" />
            <path d=" M 511.440, 788.395 509.326, 794.778 506.173, 803.414 502.908, 811.478 499.535, 818.937 496.059, 825.752 492.487, 831.886 488.822, 837.303 485.073, 841.965 481.246, 845.833 477.351, 848.868 473.395, 851.036 469.388, 852.299 465.342, 852.619 " fill="none" stroke="rgb(0, 0, 0)" stroke-linecap="butt" stroke-linejoin="round" stroke-opacity="1.0" stroke-width="3.0" />
            <path d=" M 554.860, 520.070 548.939, 519.944 548.085, 519.926 546.372, 519.889 546.181, 529.888 546.102, 534.025 545.813, 544.020 545.694, 548.144 545.307, 558.136 545.148, 562.228 544.663, 572.216 544.466, 576.257 543.880, 586.240 543.647, 590.212 542.959, 600.189 542.691, 604.074 541.899, 614.043 541.599, 617.822 540.701, 627.781 540.372, 631.435 539.364, 641.384 539.009, 644.892 537.889, 654.829 537.512, 658.172 536.274, 668.095 535.880, 671.253 534.519, 681.160 534.114, 684.111 532.625, 694.000 532.215, 696.723 530.591, 706.590 530.502, 707.136 530.184, 709.064 529.769, 711.379 " fill="none" stroke="rgb(0, 0, 0)" stroke-linecap="butt" stroke-linejoin="round" stroke-opacity="1.0" stroke-width="3.0" />
            <path d=" M 532.248, 720.238 532.723, 717.480 534.282, 707.602 534.768, 704.521 536.195, 694.623 536.676, 691.291 537.979, 681.376 538.447, 677.814 539.631, 667.884 540.081, 664.114 541.152, 654.172 541.578, 650.216 542.541, 640.262 542.940, 636.141 543.797, 626.177 544.164, 621.910 544.920, 611.939 545.253, 607.546 545.910, 597.568 546.206, 593.069 546.767, 583.084 547.024, 578.498 547.490, 568.509 547.707, 563.854 548.079, 553.861 548.254, 549.156 548.534, 539.160 548.667, 534.423 548.855, 524.424 548.939, 519.944 " fill="none" stroke="rgb(0, 0, 0)" stroke-linecap="butt" stroke-linejoin="round" stroke-opacity="1.0" stroke-width="3.0" />
            <path d=" M 377.422, 533.044 377.395, 543.043 377.367, 553.043 377.356, 557.077 377.487, 567.076 377.618, 577.075 377.669, 580.927 377.961, 590.922 378.253, 600.918 378.356, 604.467 378.813, 614.457 379.269, 624.446 379.412, 627.577 380.039, 637.557 380.665, 647.537 380.828, 650.137 381.631, 660.105 382.433, 670.073 382.591, 672.040 383.578, 681.991 384.565, 691.942 384.687, 693.181 385.869, 703.111 387.050, 713.041 387.101, 713.466 388.489, 723.369 389.813, 732.809 391.424, 742.678 392.804, 751.136 394.656, 760.963 396.053, 768.382 398.169, 778.155 399.539, 784.488 401.945, 794.194 403.239, 799.411 405.969, 809.032 407.129, 813.119 410.225, 822.627 411.187, 825.582 414.701, 834.945 415.391, 836.785 419.383, 845.953 419.717, 846.721 424.143, 855.392 428.649, 862.803 433.214, 868.969 437.818, 873.913 442.443, 877.660 447.071, 880.237 451.687, 881.679 456.275, 882.025 460.822, 881.313 465.315, 879.582 469.741, 876.876 474.091, 873.241 478.355, 868.717 " fill="none" stroke="rgb(0, 0, 0)" stroke-linecap="butt" stroke-linejoin="round" stroke-opacity="1.0" stroke-width="3.0" />
            <path d=" M 478.355, 868.717 484.568, 860.880 486.282, 858.718 " fill="none" stroke="rgb(0, 0, 0)" stroke-linecap="butt" stroke-linejoin="round" stroke-opacity="1.0" stroke-width="3.0" />
            <path d=" M 539.918, 545.079 529.921, 545.304 528.517, 545.335 525.571, 541.741 522.926, 538.515 520.392, 535.424 " fill="none" stroke="rgb(0, 0, 0)" stroke-linecap="butt" stroke-linejoin="round" stroke-opacity="1.0" stroke-width="3.0" />
            <path d=" M 527.252, 496.362 529.226, 493.733 539.206, 494.365 540.642, 494.456 540.656, 504.456 540.670, 514.456 540.677, 519.768 540.442, 529.766 540.344, 533.911 539.963, 543.903 539.918, 545.079 533.734, 537.221 531.198, 533.998 530.932, 533.660 530.665, 533.321 530.398, 532.982 530.132, 532.642 529.823, 532.123 529.533, 531.383 529.268, 530.434 529.065, 529.446 529.034, 529.295 528.837, 527.987 528.680, 526.536 528.565, 524.969 528.508, 523.604 528.496, 523.316 528.473, 521.609 528.497, 519.881 528.568, 518.166 528.621, 517.405 528.684, 516.498 528.842, 514.907 529.041, 513.426 529.275, 512.083 529.277, 512.070 529.540, 510.903 529.831, 509.908 530.142, 509.118 530.466, 508.546 530.742, 508.162 531.020, 507.778 531.296, 507.394 531.573, 507.012 531.713, 506.820 537.567, 498.713 540.642, 494.456 " fill="none" stroke="rgb(0, 0, 0)" stroke-linecap="butt" stroke-linejoin="round" stroke-opacity="1.0" stroke-width="3.0" />
            <path d=" M 530.823, 523.646 530.701, 523.523 530.588, 523.269 530.490, 522.894 530.412, 522.417 530.356, 521.859 530.325, 521.242 530.321, 520.595 530.343, 519.946 530.391, 519.323 530.463, 518.753 530.555, 518.263 530.663, 517.872 530.783, 517.599 530.909, 517.455 531.036, 517.447 " fill="none" stroke="rgb(0, 0, 0)" stroke-linecap="butt" stroke-linejoin="round" stroke-opacity="1.0" stroke-width="3.0" />
            <path d=" M 531.036, 517.447 531.158, 517.573 531.270, 517.830 531.367, 518.204 531.445, 518.680 531.501, 519.237 531.532, 519.851 531.536, 520.496 531.513, 521.143 531.466, 521.763 531.394, 522.331 531.303, 522.821 531.195, 523.212 531.076, 523.487 530.950, 523.634 530.823, 523.646 " fill="none" stroke="rgb(0, 0, 0)" stroke-linecap="butt" stroke-linejoin="round" stroke-opacity="1.0" stroke-width="3.0" />
            <path d=" M 361.693, 462.872 361.565, 465.045 361.117, 475.035 360.669, 485.025 360.559, 487.488 360.250, 497.483 359.940, 507.478 359.860, 510.066 359.719, 518.290 359.548, 528.288 359.473, 532.689 359.439, 542.689 359.406, 552.689 359.397, 555.266 359.502, 565.266 359.608, 575.265 359.633, 577.707 359.879, 587.704 360.125, 597.701 360.179, 599.923 360.208, 600.646 " fill="none" stroke="rgb(0, 0, 0)" stroke-linecap="butt" stroke-linejoin="round" stroke-opacity="1.0" stroke-width="3.0" />
            <path d=" M 538.536, 739.833 540.162, 729.967 540.316, 729.033 541.831, 719.148 542.192, 716.788 543.600, 706.888 543.960, 704.356 545.266, 694.442 545.620, 691.753 546.827, 681.826 547.171, 678.993 548.282, 669.055 548.614, 666.091 549.633, 656.143 549.949, 653.059 550.877, 643.103 551.175, 639.912 552.016, 629.948 552.293, 626.662 553.048, 616.691 553.303, 613.322 553.974, 603.344 554.205, 599.903 554.793, 589.920 554.999, 586.417 555.504, 576.430 555.684, 572.876 556.109, 562.885 556.262, 559.292 556.606, 549.298 556.731, 545.676 556.995, 535.679 557.091, 532.038 557.275, 522.040 557.290, 521.257 " fill="none" stroke="rgb(0, 0, 0)" stroke-linecap="butt" stroke-linejoin="round" stroke-opacity="1.0" stroke-width="3.0" />
            <path d=" M 458.415, 914.312 460.833, 914.478 464.963, 914.065 469.051, 912.845 473.089, 910.849 477.070, 908.107 480.987, 904.651 484.836, 900.511 488.610, 895.716 492.304, 890.299 495.915, 884.288 499.439, 877.714 502.872, 870.603 506.212, 862.986 509.455, 854.888 512.600, 846.337 515.645, 837.358 518.587, 827.975 521.380, 818.373 521.426, 818.213 522.427, 814.510 " fill="none" stroke="rgb(0, 0, 0)" stroke-linecap="butt" stroke-linejoin="round" stroke-opacity="1.0" stroke-width="3.0" />
            <path d=" M 521.012, 191.138 518.527, 184.178 515.453, 176.365 512.265, 169.059 508.967, 162.289 505.560, 156.082 502.047, 150.471 498.431, 145.484 494.716, 141.153 490.906, 137.510 487.007, 134.586 483.023, 132.412 478.961, 131.020 474.828, 130.440 472.753, 130.569 470.631, 130.701 466.378, 131.834 462.079, 133.866 457.743, 136.822 453.380, 140.726 449.003, 145.600 444.623, 151.463 440.253, 158.330 435.906, 166.214 431.598, 175.122 430.664, 177.301 427.342, 185.058 423.774, 194.400 423.155, 196.021 421.428, 201.064 419.052, 208.004 416.108, 217.560 415.050, 220.995 412.373, 230.630 411.165, 234.978 408.732, 244.677 407.414, 249.928 405.204, 259.681 403.814, 265.816 401.811, 275.613 400.381, 282.605 398.571, 292.439 397.132, 300.252 395.502, 310.118 394.083, 318.709 392.623, 328.602 391.248, 337.921 389.951, 347.837 388.643, 357.826 387.500, 367.761 386.357, 377.695 386.281, 378.358 385.287, 388.308 384.293, 398.259 384.174, 399.444 383.324, 409.408 382.474, 419.371 382.334, 421.007 381.624, 430.982 380.914, 440.957 380.771, 442.967 380.197, 452.951 379.624, 462.935 379.492, 465.239 379.053, 475.230 378.615, 485.220 378.504, 487.736 378.199, 497.731 377.894, 507.726 377.813, 510.367 377.641, 520.366 377.468, 530.364 377.422, 533.044 377.382, 543.043 377.342, 553.043 377.332, 555.673 377.425, 565.673 377.519, 575.672 377.542, 578.166 377.771, 588.164 377.999, 598.161 378.051, 600.434 378.417, 610.427 378.783, 620.420 378.855, 622.388 379.361, 632.375 379.868, 642.363 379.948, 643.946 380.598, 653.925 381.249, 663.904 381.322, 665.026 382.122, 674.994 382.922, 684.962 382.970, 685.553 383.926, 695.508 384.881, 705.456 385.999, 715.393 387.043, 724.668 388.333, 734.584 389.444, 743.128 390.916, 753.020 392.071, 760.784 393.737, 770.644 394.909, 777.586 396.784, 787.409 397.944, 793.493 400.044, 803.270 401.161, 808.470 403.507, 818.191 404.543, 822.486 407.159, 832.138 408.075, 835.520 410.989, 845.086 411.741, 847.554 414.988, 857.012 415.525, 858.577 419.147, 867.898 419.413, 868.582 423.387, 877.569 427.434, 885.542 431.540, 892.508 435.690, 898.480 439.872, 903.472 444.072, 907.504 448.279, 910.596 452.482, 912.771 456.670, 914.057 458.805, 914.273 460.833, 914.478 " fill="none" stroke="rgb(0, 0, 0)" stroke-linecap="butt" stroke-linejoin="round" stroke-opacity="1.0" stroke-width="3.0" />
            <path d=" M 472.393, 130.519 468.169, 130.782 463.889, 131.915 459.562, 133.947 455.199, 136.903 450.809, 140.806 446.405, 145.680 441.997, 151.542 437.600, 158.407 433.228, 166.289 428.893, 175.195 427.886, 177.532 424.612, 185.128 421.024, 194.462 420.400, 196.087 417.142, 205.542 416.273, 208.067 414.613, 213.422 412.247, 221.054 409.555, 230.685 408.339, 235.032 405.892, 244.728 404.567, 249.977 402.344, 259.727 400.946, 265.859 398.931, 275.654 397.494, 282.642 395.673, 292.475 394.227, 300.283 392.588, 310.148 391.161, 318.734 389.693, 328.625 388.311, 337.938 387.006, 347.853 385.693, 357.836 384.543, 367.769 383.394, 377.703 383.318, 378.359 382.319, 388.309 381.320, 398.259 381.201, 399.437 380.347, 409.401 379.492, 419.364 379.353, 420.992 378.639, 430.967 377.925, 440.941 377.782, 442.944 377.206, 452.927 376.631, 462.911 376.498, 465.207 376.058, 475.197 375.618, 485.187 375.508, 487.694 375.202, 497.690 374.896, 507.685 374.815, 510.317 374.643, 520.316 374.471, 530.314 374.425, 532.984 374.386, 542.984 374.347, 552.984 374.337, 555.605 374.432, 565.605 374.528, 575.604 374.552, 578.090 374.783, 588.087 375.014, 598.084 375.067, 600.348 375.437, 610.342 375.806, 620.335 375.879, 622.295 376.389, 632.282 376.900, 642.268 376.981, 643.844 377.637, 653.823 378.294, 663.801 378.367, 664.917 379.174, 674.884 379.980, 684.852 380.028, 685.437 380.991, 695.390 381.953, 705.332 383.080, 715.268 384.131, 724.537 385.431, 734.452 386.550, 742.992 388.032, 752.881 389.196, 760.642 390.873, 770.500 392.054, 777.439 393.942, 787.259 395.111, 793.341 397.225, 803.115 398.349, 808.313 400.711, 818.030 401.755, 822.326 404.387, 831.973 405.311, 835.357 408.243, 844.917 409.001, 847.388 412.269, 856.839 412.811, 858.408 416.100, 866.816 416.112, 866.847 416.724, 868.412 420.725, 877.398 424.799, 885.369 428.932, 892.335 433.109, 898.307 437.318, 903.299 441.545, 907.331 445.780, 910.424 450.010, 912.601 454.225, 913.888 458.415, 914.312 " fill="none" stroke="rgb(0, 0, 0)" stroke-linecap="butt" stroke-linejoin="round" stroke-opacity="1.0" stroke-width="3.0" />
            <path d=" M 474.828, 130.440 472.393, 130.519 " fill="none" stroke="rgb(0, 0, 0)" stroke-linecap="butt" stroke-linejoin="round" stroke-opacity="1.0" stroke-width="3.0" />
            <path d=" M 544.648, 755.137 544.818, 754.147 546.403, 744.274 546.884, 741.275 548.361, 731.384 548.836, 728.201 550.210, 718.296 550.674, 714.944 551.949, 705.025 552.399, 701.517 553.578, 691.587 554.011, 687.936 555.098, 677.996 555.511, 674.215 556.507, 664.265 556.897, 660.368 557.806, 650.409 558.171, 646.407 558.995, 636.441 559.333, 632.345 560.073, 622.372 560.383, 618.195 561.041, 608.216 561.321, 603.967 561.899, 593.984 562.148, 589.675 562.645, 579.687 562.862, 575.328 563.281, 565.337 563.465, 560.939 563.806, 550.945 563.957, 546.518 564.219, 536.521 564.336, 532.075 564.521, 522.077 564.533, 521.386 " fill="none" stroke="rgb(0, 0, 0)" stroke-linecap="butt" stroke-linejoin="round" stroke-opacity="1.0" stroke-width="3.0" />
            <path d=" M 456.065, 944.781 458.478, 944.957 462.951, 945.030 467.380, 944.207 471.756, 942.521 476.071, 940.009 480.318, 936.706 484.490, 932.646 488.582, 927.866 492.589, 922.400 496.505, 916.282 500.327, 909.546 504.051, 902.224 507.674, 894.348 511.193, 885.950 514.607, 877.058 517.913, 867.702 521.016, 858.195 521.110, 857.909 524.005, 848.337 524.196, 847.705 526.900, 838.078 527.170, 837.117 529.438, 828.443 " fill="none" stroke="rgb(0, 0, 0)" stroke-linecap="butt" stroke-linejoin="round" stroke-opacity="1.0" stroke-width="3.0" />
            <path d=" M 540.535, 218.527 538.633, 209.935 536.296, 200.212 536.038, 199.138 533.509, 189.463 533.315, 188.721 530.578, 179.103 530.466, 178.709 527.491, 169.132 524.389, 160.015 521.163, 151.390 517.812, 143.286 514.340, 135.735 510.747, 128.769 507.036, 122.423 503.210, 116.730 499.273, 111.725 495.228, 107.444 491.081, 103.923 486.836, 101.198 482.500, 99.306 478.080, 98.282 473.583, 98.163 472.839, 98.296 469.017, 98.982 464.393, 100.773 459.720, 103.569 455.009, 107.398 450.274, 112.289 445.526, 118.266 440.780, 125.350 436.051, 133.559 431.561, 142.494 431.355, 142.905 427.305, 152.048 426.708, 153.396 424.905, 157.978 422.127, 165.036 419.310, 173.045 417.631, 177.820 415.214, 185.477 413.238, 191.740 410.505, 201.359 408.966, 206.778 406.486, 216.466 404.835, 222.911 402.586, 232.655 400.865, 240.109 398.828, 249.900 397.074, 258.333 396.754, 260.042 394.916, 269.872 393.482, 277.537 391.828, 287.399 390.174, 297.262 390.106, 297.667 388.626, 307.557 387.147, 317.447 386.965, 318.662 385.650, 328.576 384.336, 338.489 384.075, 340.454 382.919, 350.387 381.762, 360.320 381.454, 362.966 380.448, 372.916 379.443, 382.865 379.114, 386.118 378.255, 396.081 377.396, 406.044 377.070, 409.820 376.353, 419.795 375.636, 429.769 375.333, 433.981 374.755, 443.964 374.177, 453.948 373.913, 458.502 373.471, 468.493 373.030, 478.483 372.818, 483.284 372.511, 493.279 372.205, 503.274 372.053, 508.221 371.881, 518.220 371.709, 528.218 371.623, 533.211 371.585, 543.211 371.547, 553.211 371.528, 558.146 371.626, 568.146 371.723, 578.145 371.770, 582.924 372.004, 592.921 372.238, 602.918 372.344, 607.440 372.717, 617.433 373.091, 627.426 373.247, 631.595 373.762, 641.581 374.278, 651.568 374.470, 655.291 375.133, 665.269 375.795, 675.247 376.007, 678.437 376.822, 688.403 377.636, 698.370 377.846, 700.945 378.819, 710.897 379.792, 720.850 379.976, 722.735 381.115, 732.670 382.254, 742.605 382.383, 743.732 383.697, 753.645 385.011, 763.558 385.052, 763.868 386.552, 773.755 387.967, 783.084 389.666, 792.938 391.112, 801.327 393.026, 811.142 394.470, 818.551 396.616, 828.318 397.515, 832.406 398.023, 834.719 400.423, 844.427 400.796, 845.936 401.752, 849.802 404.433, 859.436 405.640, 863.776 408.631, 873.318 408.822, 873.927 409.668, 876.625 413.008, 886.051 413.572, 887.645 413.819, 888.341 417.551, 897.619 418.075, 898.921 422.252, 908.006 422.418, 908.366 426.832, 916.686 431.302, 923.893 435.811, 930.004 440.346, 935.040 444.892, 939.025 449.438, 941.987 453.970, 943.954 457.819, 944.811 458.478, 944.957 " fill="none" stroke="rgb(0, 0, 0)" stroke-linecap="butt" stroke-linejoin="round" stroke-opacity="1.0" stroke-width="3.0" />
            <path d=" M 363.432, 432.602 363.337, 433.900 362.749, 443.883 362.161, 453.865 361.894, 458.382 361.693, 462.872 361.245, 472.861 360.797, 482.851 360.785, 483.124 360.476, 493.120 360.167, 503.115 360.015, 508.023 359.843, 518.028 359.672, 528.026 359.607, 531.825 359.587, 532.973 359.554, 542.973 359.520, 552.973 359.504, 557.869 359.609, 567.869 359.678, 574.388 359.764, 582.608 360.010, 592.605 360.208, 600.646 360.366, 607.087 360.506, 610.695 " fill="none" stroke="rgb(0, 0, 0)" stroke-linecap="butt" stroke-linejoin="round" stroke-opacity="1.0" stroke-width="3.0" />
            <path d=" M 471.152, 98.252 466.558, 99.072 461.904, 100.864 457.202, 103.660 452.462, 107.489 447.697, 112.379 442.920, 118.355 438.146, 125.438 433.388, 133.645 428.876, 142.569 428.663, 142.989 424.592, 152.123 423.988, 153.478 420.307, 162.775 419.380, 165.114 416.370, 173.621 414.858, 177.894 411.831, 187.425 410.711, 190.953 410.439, 191.809 408.044, 200.189 406.142, 206.843 403.648, 216.527 401.988, 222.971 399.726, 232.711 397.995, 240.163 395.947, 249.951 394.183, 258.380 392.334, 268.208 390.571, 277.577 388.908, 287.438 387.854, 293.683 387.177, 297.699 385.689, 307.588 384.201, 317.477 384.019, 318.687 382.697, 328.599 381.376, 338.511 381.115, 340.470 379.952, 350.402 378.789, 360.334 378.480, 362.974 377.469, 372.923 376.458, 382.871 376.129, 386.116 375.265, 396.079 374.402, 406.042 374.075, 409.810 373.355, 419.784 372.634, 429.758 372.330, 433.961 371.750, 443.944 371.169, 453.927 370.905, 458.472 370.462, 468.463 370.018, 478.453 369.806, 483.244 369.499, 493.239 369.192, 503.234 369.040, 508.172 368.868, 518.170 368.696, 528.169 368.610, 533.151 368.573, 543.151 368.537, 553.151 368.519, 558.077 368.618, 568.077 368.717, 578.076 368.765, 582.845 369.002, 592.842 369.239, 602.839 369.346, 607.352 369.723, 617.344 370.100, 627.337 370.257, 631.497 370.778, 641.483 371.298, 651.470 371.492, 655.184 372.160, 665.162 372.828, 675.140 373.041, 678.322 373.862, 688.288 374.683, 698.254 374.895, 700.822 375.875, 710.774 376.856, 720.725 377.041, 722.604 378.188, 732.538 379.336, 742.472 379.465, 743.594 380.789, 753.506 382.113, 763.418 382.153, 763.723 383.664, 773.609 385.089, 782.933 386.801, 792.786 388.257, 801.170 390.184, 810.983 390.570, 812.949 391.638, 818.389 393.798, 828.153 395.215, 834.553 395.744, 836.680 398.161, 846.383 398.674, 848.447 398.969, 849.632 401.667, 859.261 402.884, 863.603 405.894, 873.139 405.929, 873.252 406.939, 876.449 410.298, 885.868 411.117, 888.163 414.871, 897.432 415.401, 898.741 419.602, 907.816 419.773, 908.185 424.216, 916.504 428.714, 923.711 433.253, 929.822 437.817, 934.858 442.393, 938.845 446.967, 941.807 451.529, 943.776 456.065, 944.781 " fill="none" stroke="rgb(0, 0, 0)" stroke-linecap="butt" stroke-linejoin="round" stroke-opacity="1.0" stroke-width="3.0" />
            <path d=" M 473.583, 98.163 471.152, 98.252 " fill="none" stroke="rgb(0, 0, 0)" stroke-linecap="butt" stroke-linejoin="round" stroke-opacity="1.0" stroke-width="3.0" />
            <path d=" M 546.032, 225.016 545.572, 222.535 543.604, 212.731 543.170, 210.569 541.042, 200.798 540.636, 198.934 538.336, 189.202 537.971, 187.654 535.484, 177.968 535.172, 176.755 532.482, 167.124 532.242, 166.264 529.328, 156.698 529.179, 156.209 526.017, 146.722 525.984, 146.621 522.657, 137.528 519.200, 128.964 515.613, 120.961 511.900, 113.554 508.060, 106.778 504.099, 100.669 500.018, 95.265 495.822, 90.605 491.514, 86.726 487.102, 83.667 482.590, 81.469 477.985, 80.170 473.295, 79.809 468.461, 79.998 463.635, 80.615 458.742, 82.245 453.793, 84.923 448.799, 88.682 443.774, 93.554 438.730, 99.566 433.684, 106.745 428.651, 115.109 424.016, 123.970 423.647, 124.675 419.470, 133.761 418.692, 135.455 414.918, 144.715 413.803, 147.452 410.387, 156.851 409.000, 160.667 405.903, 170.175 404.302, 175.090 401.493, 184.687 399.732, 190.706 397.184, 200.376 395.309, 207.493 393.000, 217.223 391.055, 225.419 388.965, 235.198 386.990, 244.445 386.228, 248.414 384.343, 258.235 383.136, 264.523 381.442, 274.378 379.748, 284.234 379.514, 285.597 377.999, 295.481 376.484, 305.366 376.142, 307.601 374.797, 317.510 373.452, 327.419 373.039, 330.463 371.857, 340.393 370.674, 350.323 370.224, 354.104 369.197, 364.051 368.171, 373.998 367.713, 378.433 366.836, 388.395 365.959, 398.356 365.519, 403.359 365.073, 409.447 364.342, 419.421 363.657, 428.779 363.432, 432.602 362.844, 442.584 362.256, 452.567 362.136, 454.590 361.995, 457.754 361.547, 467.744 361.099, 477.734 360.967, 480.682 360.658, 490.677 360.348, 500.672 360.154, 506.943 359.983, 516.941 359.969, 517.762 359.797, 527.761 359.743, 530.950 359.703, 533.260 359.670, 543.260 359.636, 553.260 359.615, 559.519 359.720, 569.518 359.826, 579.518 359.873, 584.002 359.890, 585.607 360.135, 595.604 360.348, 604.261 360.506, 610.695 360.524, 611.412 360.912, 621.405 360.987, 623.318 361.375, 633.311 361.512, 636.827 362.047, 646.812 362.581, 656.798 362.846, 661.746 363.532, 671.722 364.217, 681.699 364.518, 686.070 365.359, 696.035 366.201, 705.999 366.514, 709.707 367.519, 719.656 368.523, 729.605 368.822, 732.569 369.998, 742.499 371.173, 752.430 371.427, 754.577 372.783, 764.484 373.009, 766.141 374.312, 775.659 375.859, 785.539 377.407, 795.418 377.459, 795.752 379.212, 805.597 380.851, 814.801 382.826, 824.604 384.468, 832.759 386.683, 842.511 388.290, 849.587 390.769, 859.276 392.298, 865.256 395.067, 874.865 396.472, 879.742 399.563, 889.253 400.791, 893.032 404.243, 902.417 405.236, 905.117 409.096, 914.342 409.788, 915.997 414.111, 925.014 414.429, 925.676 419.140, 934.166 423.904, 941.483 428.706, 947.646 433.528, 952.681 438.358, 956.615 443.181, 959.478 447.985, 961.303 452.757, 962.125 457.554, 962.486 462.225, 962.336 466.846, 961.256 471.407, 959.284 475.899, 956.458 480.317, 952.816 484.653, 948.396 488.901, 943.237 493.056, 937.375 497.114, 930.847 501.071, 923.688 504.924, 915.933 508.669, 907.615 512.305, 898.767 515.828, 889.420 519.109, 879.974 519.238, 879.604 522.296, 870.084 522.532, 869.348 525.387, 859.764 525.711, 858.679 528.380, 849.042 528.773, 847.623 531.270, 837.940 531.717, 836.207 532.307, 833.750 " fill="none" stroke="rgb(0, 0, 0)" stroke-linecap="butt" stroke-linejoin="round" stroke-opacity="1.0" stroke-width="3.0" />
            <path d=" M 547.041, 760.510 548.610, 750.634 549.020, 748.053 550.482, 738.160 551.020, 734.520 552.381, 724.613 552.904, 720.805 554.167, 710.885 554.671, 706.923 555.840, 696.991 556.323, 692.889 557.399, 682.947 557.858, 678.716 558.846, 668.765 559.278, 664.419 560.179, 654.460 560.582, 650.010 561.399, 640.044 561.772, 635.502 562.507, 625.529 562.847, 620.907 563.501, 610.928 563.808, 606.236 564.381, 596.253 564.654, 591.501 565.149, 581.513 565.387, 576.713 565.803, 566.721 566.005, 561.882 566.344, 551.888 566.509, 547.020 566.771, 537.023 566.899, 532.136 567.084, 522.138 567.103, 521.127 " fill="none" stroke="rgb(0, 0, 0)" stroke-linecap="butt" stroke-linejoin="round" stroke-opacity="1.0" stroke-width="3.0" />
            <path d=" M 473.295, 79.809 468.530, 80.424 463.697, 82.052 458.809, 84.729 453.876, 88.488 448.912, 93.361 443.929, 99.375 438.943, 106.556 433.970, 114.924 429.380, 123.809 429.026, 124.495 424.891, 133.600 424.128, 135.280 422.086, 140.353 419.296, 147.284 415.917, 156.696 414.549, 160.506 411.486, 170.025 409.905, 174.938 407.127, 184.544 406.236, 187.628 405.387, 190.565 402.867, 200.242 401.013, 207.363 400.878, 207.938 398.595, 217.673 396.806, 225.301 395.938, 229.412 393.873, 239.197 392.787, 244.341 390.923, 254.165 389.059, 263.990 388.974, 264.433 387.299, 274.292 385.624, 284.150 385.390, 285.522 385.156, 287.072 383.657, 296.959 382.159, 306.846 382.054, 307.543 380.724, 317.454 379.393, 327.365 378.983, 330.423 377.813, 340.354 376.643, 350.286 376.196, 354.081 375.943, 356.556 374.927, 366.504 373.911, 376.453 373.709, 378.430 372.841, 388.393 371.973, 398.355 371.535, 403.375 370.811, 413.349 370.088, 423.323 369.689, 428.816 369.106, 438.799 368.523, 448.782 368.180, 454.647 367.736, 464.637 367.291, 474.627 367.018, 480.760 366.710, 490.755 366.402, 500.750 366.208, 507.042 366.037, 517.040 365.865, 527.039 365.756, 533.380 365.720, 543.380 365.685, 553.380 365.662, 559.660 365.763, 569.659 365.865, 579.659 365.927, 585.768 366.166, 595.765 366.406, 605.762 366.546, 611.593 366.927, 621.586 367.308, 631.579 367.516, 637.027 368.041, 647.013 368.566, 656.999 368.827, 661.965 369.502, 671.942 370.176, 681.919 370.472, 686.307 371.300, 696.273 372.129, 706.239 372.438, 709.961 373.427, 719.912 374.416, 729.863 374.712, 732.839 375.870, 742.772 377.028, 752.705 377.279, 754.862 378.616, 764.773 378.868, 766.648 379.153, 768.762 380.124, 775.959 381.649, 785.841 383.175, 795.724 383.228, 796.065 384.956, 805.914 386.486, 814.626 386.573, 815.125 387.847, 821.542 389.795, 831.350 390.141, 833.093 392.327, 842.852 393.912, 849.931 396.358, 859.627 396.460, 860.031 397.867, 865.608 400.600, 875.227 401.986, 880.101 405.039, 889.623 406.248, 893.396 409.660, 902.796 409.992, 903.713 410.636, 905.485 414.452, 914.728 415.129, 916.368 419.406, 925.407 419.710, 926.050 424.361, 934.541 429.064, 941.858 433.805, 948.021 438.567, 953.055 443.335, 956.986 448.098, 959.846 452.841, 961.668 457.554, 962.486 " fill="none" stroke="rgb(0, 0, 0)" stroke-linecap="butt" stroke-linejoin="round" stroke-opacity="1.0" stroke-width="3.0" />
            <path d=" M 565.297, 521.400 565.304, 521.095 565.339, 519.766 565.417, 518.156 565.426, 518.037 565.530, 516.600 565.675, 515.122 565.850, 513.748 565.937, 513.213 566.053, 512.502 566.279, 511.405 566.524, 510.476 566.785, 509.728 567.056, 509.176 567.265, 508.915 567.334, 508.828 567.614, 508.688 " fill="none" stroke="rgb(0, 0, 0)" stroke-linecap="butt" stroke-linejoin="round" stroke-opacity="1.0" stroke-width="3.0" />
            <path d=" M 567.993, 521.143 567.993, 520.630 567.979, 520.132 567.951, 519.663 567.909, 519.236 567.854, 518.862 567.789, 518.551 567.715, 518.312 567.634, 518.152 567.548, 518.074 " fill="none" stroke="rgb(0, 0, 0)" stroke-linecap="butt" stroke-linejoin="round" stroke-opacity="1.0" stroke-width="3.0" />
            <path d=" M 531.856, 479.920 531.853, 480.140 531.777, 485.580 531.921, 485.585 532.177, 485.594 537.534, 485.661 537.468, 479.993 537.408, 479.990 531.856, 479.920 " fill="none" stroke="rgb(0, 0, 0)" stroke-linecap="butt" stroke-linejoin="round" stroke-opacity="1.0" stroke-width="3.0" />
            <path d=" M 537.328, 485.653 537.408, 479.990 " fill="none" stroke="rgb(0, 0, 0)" stroke-linecap="butt" stroke-linejoin="round" stroke-opacity="1.0" stroke-width="3.0" />
            <path d=" M 531.777, 485.580 537.328, 485.653 537.534, 485.661 " fill="none" stroke="rgb(0, 0, 0)" stroke-linecap="butt" stroke-linejoin="round" stroke-opacity="1.0" stroke-width="3.0" />
            <path d=" M 534.449, 481.663 534.375, 481.674 534.293, 481.695 534.159, 481.739 533.964, 481.843 533.794, 481.982 533.654, 482.150 533.549, 482.343 533.484, 482.552 533.460, 482.770 533.480, 483.002 533.545, 483.218 533.649, 483.413 533.788, 483.583 533.956, 483.723 534.149, 483.828 534.212, 483.848 534.315, 483.881 534.358, 483.894 " fill="none" stroke="rgb(0, 0, 0)" stroke-linecap="butt" stroke-linejoin="round" stroke-opacity="1.0" stroke-width="3.0" />
            <path d=" M 534.765, 481.667 534.607, 481.654 534.449, 481.663 " fill="none" stroke="rgb(0, 0, 0)" stroke-linecap="butt" stroke-linejoin="round" stroke-opacity="1.0" stroke-width="3.0" />
            <path d=" M 534.919, 481.703 534.820, 481.680 534.765, 481.667 " fill="none" stroke="rgb(0, 0, 0)" stroke-linecap="butt" stroke-linejoin="round" stroke-opacity="1.0" stroke-width="3.0" />
            <path d=" M 534.417, 483.905 534.575, 483.918 534.733, 483.909 534.889, 483.876 535.038, 483.822 535.178, 483.746 535.306, 483.651 535.420, 483.538 535.517, 483.410 535.595, 483.269 535.652, 483.119 535.688, 482.961 535.702, 482.800 535.693, 482.639 535.661, 482.481 535.608, 482.328 535.534, 482.186 535.441, 482.055 535.330, 481.939 535.205, 481.841 535.067, 481.762 534.919, 481.703 " fill="none" stroke="rgb(0, 0, 0)" stroke-linecap="butt" stroke-linejoin="round" stroke-opacity="1.0" stroke-width="3.0" />
            <path d=" M 534.263, 483.868 534.358, 483.894 534.417, 483.905 " fill="none" stroke="rgb(0, 0, 0)" stroke-linecap="butt" stroke-linejoin="round" stroke-opacity="1.0" stroke-width="3.0" />
            <path d=" M 627.534, 899.869 629.703, 900.374 637.608, 901.513 645.504, 901.916 653.375, 901.600 661.205, 900.584 668.977, 898.888 676.677, 896.532 684.293, 893.538 691.811, 889.927 699.219, 885.720 706.507, 880.941 713.664, 875.611 720.681, 869.752 727.548, 863.387 734.259, 856.536 740.804, 849.223 747.179, 841.468 753.219, 833.499 753.375, 833.293 759.117, 825.106 759.388, 824.719 764.841, 816.336 765.212, 815.765 770.386, 807.207 770.843, 806.452 775.748, 797.737 776.276, 796.799 780.920, 787.943 781.506, 786.826 785.900, 777.843 786.531, 776.551 790.682, 767.453 791.348, 765.993 795.262, 756.791 795.952, 755.169 799.638, 745.873 800.342, 744.097 803.805, 734.716 804.515, 732.795 807.761, 723.336 808.468, 721.277 811.503, 711.749 812.200, 709.562 815.028, 699.970 815.708, 697.665 818.334, 688.016 818.991, 685.601 821.418, 675.900 822.047, 673.385 824.279, 663.637 824.875, 661.034 826.914, 651.244 827.473, 648.560 829.322, 638.733 829.840, 635.980 831.501, 626.119 831.974, 623.307 833.449, 613.416 833.875, 610.555 835.164, 600.638 835.542, 597.738 836.646, 587.799 836.972, 584.870 837.892, 574.913 838.165, 571.966 838.902, 561.993 839.120, 559.038 839.673, 549.053 839.837, 546.100 840.205, 536.107 840.313, 533.167 840.495, 523.168 840.548, 520.251 840.543, 510.251 840.542, 507.368 840.347, 497.370 840.292, 494.530 839.906, 484.537 839.799, 481.752 839.219, 471.769 839.061, 469.049 838.284, 459.079 838.078, 456.434 837.100, 446.482 836.849, 443.923 835.666, 433.993 835.373, 431.531 833.981, 421.628 833.649, 419.273 832.042, 409.403 831.678, 407.164 829.850, 397.333 829.458, 395.221 827.404, 385.435 826.989, 383.461 824.701, 373.726 824.272, 371.899 821.742, 362.224 821.305, 360.553 818.526, 350.947 818.090, 349.441 815.051, 339.914 814.626, 338.581 811.318, 329.144 810.914, 327.991 807.326, 318.657 806.955, 317.691 803.076, 308.474 802.751, 307.700 798.568, 298.617 798.301, 298.038 793.802, 289.108 793.609, 288.726 788.779, 279.970 788.677, 279.784 783.507, 271.234 778.102, 263.098 772.466, 255.397 766.603, 248.155 760.518, 241.394 754.216, 235.137 747.704, 229.408 740.989, 224.229 734.077, 219.625 726.977, 215.618 719.700, 212.232 712.255, 209.489 704.653, 207.412 696.907, 206.022 689.031, 205.340 681.037, 205.385 678.818, 205.558 " fill="none" stroke="rgb(0, 0, 0)" stroke-linecap="butt" stroke-linejoin="round" stroke-opacity="1.0" stroke-width="3.0" />
            <path d=" M 629.703, 900.374 627.678, 899.889 621.807, 898.483 613.940, 895.823 606.121, 892.382 598.371, 888.149 590.710, 883.113 583.162, 877.269 575.748, 870.610 568.783, 863.435 568.492, 863.137 562.000, 855.531 561.418, 854.849 555.392, 846.868 554.549, 845.750 548.979, 837.445 547.909, 835.850 542.781, 827.265 541.523, 825.158 538.038, 818.615 536.501, 815.728 535.415, 813.690 533.817, 810.324 532.486, 807.522 529.608, 801.464 528.436, 798.692 527.219, 795.813 525.915, 792.729 524.127, 788.501 520.612, 779.139 520.226, 778.109 518.994, 774.830 517.920, 771.594 514.771, 762.103 514.231, 760.478 511.433, 750.878 509.860, 745.482 507.400, 735.789 505.900, 729.878 503.767, 720.108 503.744, 720.003 502.370, 713.708 500.554, 703.874 499.288, 697.017 497.779, 687.132 496.668, 679.854 495.458, 669.928 494.524, 662.271 493.606, 652.314 492.869, 644.323 492.237, 634.343 491.712, 626.065 491.360, 616.072 491.060, 607.559 490.984, 597.559 490.918, 588.865 491.114, 578.867 491.288, 570.046 491.755, 560.057 492.171, 551.165 492.908, 541.193 493.565, 532.287 494.570, 522.338 494.838, 519.683 495.465, 513.476 496.738, 503.558 497.863, 494.796 499.407, 484.916 500.587, 477.361 500.751, 476.310 502.566, 466.476 504.116, 458.079 506.205, 448.300 507.944, 440.163 510.312, 430.448 512.220, 422.621 514.871, 412.979 516.925, 405.507 519.865, 395.949 522.041, 388.875 525.275, 379.412 527.545, 372.773 528.782, 369.500 532.319, 360.147 532.505, 359.655 533.415, 357.247 535.372, 352.554 537.888, 346.517 539.629, 342.341 543.795, 333.250 546.160, 328.092 546.221, 327.971 546.664, 327.091 548.236, 323.969 552.732, 315.037 552.984, 314.535 553.669, 313.295 555.230, 310.470 557.885, 305.666 560.075, 301.702 560.290, 301.347 560.885, 300.367 566.072, 291.817 567.406, 289.619 572.956, 281.300 574.951, 278.308 580.874, 270.251 582.684, 267.790 588.728, 260.353 588.747, 260.330 588.821, 260.238 590.577, 258.078 597.278, 250.655 598.605, 249.184 605.707, 242.144 606.743, 241.116 614.249, 234.509 614.965, 233.879 622.875, 227.760 623.247, 227.472 631.565, 221.894 639.897, 217.140 648.221, 213.202 656.516, 210.071 664.763, 207.735 672.942, 206.178 679.302, 205.555 681.037, 205.385 " fill="none" stroke="rgb(0, 0, 0)" stroke-linecap="butt" stroke-linejoin="round" stroke-opacity="1.0" stroke-width="3.0" />
            <path d=" M 678.818, 205.558 670.712, 206.351 662.522, 207.908 654.265, 210.244 645.959, 213.373 637.625, 217.308 629.283, 222.058 620.955, 227.632 613.040, 233.743 612.664, 234.033 605.152, 240.633 604.433, 241.265 597.325, 248.298 596.287, 249.325 589.579, 256.742 588.250, 258.210 587.295, 259.384 580.980, 267.138 580.349, 267.913 574.419, 275.964 572.609, 278.421 567.052, 286.735 565.057, 289.720 560.320, 297.512 559.713, 298.512 557.720, 301.790 557.502, 302.183 554.840, 306.991 553.278, 309.813 550.623, 314.610 547.800, 320.208 546.226, 323.329 543.793, 328.152 539.620, 337.240 537.257, 342.385 534.868, 348.107 531.040, 357.275 529.966, 360.109 526.931, 368.123 525.165, 372.784 521.926, 382.244 519.658, 388.867 517.378, 396.269 514.540, 405.481 513.296, 409.997 510.641, 419.638 509.832, 422.575 507.461, 432.290 505.555, 440.098 503.462, 449.876 501.725, 457.992 499.908, 467.826 498.360, 476.202 496.815, 486.082 495.472, 494.667 494.929, 498.893 493.678, 508.633 493.472, 510.234 493.245, 511.997 493.074, 513.326 492.420, 519.802 491.415, 529.751 491.176, 532.115 490.440, 542.088 490.326, 543.620 489.784, 550.972 489.317, 560.961 488.902, 569.831 488.707, 579.829 488.535, 588.629 488.612, 598.628 488.680, 607.302 489.034, 617.295 489.336, 625.787 489.971, 635.767 490.497, 644.024 491.419, 653.982 492.157, 661.953 493.371, 671.880 494.305, 679.518 495.819, 689.402 496.930, 696.662 498.752, 706.495 500.019, 713.336 502.157, 723.104 502.637, 725.295 503.555, 729.489 506.021, 739.180 507.522, 745.078 510.327, 754.676 511.900, 760.060 512.990, 763.335 516.147, 772.823 516.671, 774.397 517.004, 775.282 519.332, 781.468 521.812, 788.057 525.156, 795.947 526.032, 798.014 526.449, 798.998 527.301, 801.007 531.599, 810.037 531.809, 810.479 533.116, 813.224 533.145, 813.279 535.895, 818.429 539.233, 824.683 544.369, 833.263 545.628, 835.366 551.206, 843.666 552.277, 845.260 558.310, 853.235 559.156, 854.352 565.655, 861.951 566.240, 862.635 573.213, 869.803 573.506, 870.105 580.930, 876.760 588.489, 882.603 596.159, 887.638 603.920, 891.871 611.750, 895.313 619.628, 897.974 627.534, 899.869 " fill="none" stroke="rgb(0, 0, 0)" stroke-linecap="butt" stroke-linejoin="round" stroke-opacity="1.0" stroke-width="3.0" />
            <path d=" M 789.862, 553.344 779.883, 552.700 779.146, 552.652 774.559, 551.658 764.786, 549.539 754.878, 547.390 754.172, 547.237 753.464, 547.083 752.755, 546.930 752.047, 546.776 751.218, 546.466 750.427, 545.903 749.690, 545.099 749.023, 544.068 748.440, 542.830 747.951, 541.408 747.566, 539.829 747.292, 538.123 747.134, 536.324 747.096, 534.465 747.179, 532.582 747.381, 530.713 747.698, 528.894 748.125, 527.159 748.651, 525.542 748.830, 525.117 749.268, 524.074 749.963, 522.783 750.723, 521.694 751.531, 520.827 752.226, 520.198 752.340, 520.095 752.922, 519.569 753.616, 518.941 754.309, 518.314 754.657, 518.000 756.173, 516.632 763.597, 509.932 771.020, 503.232 778.214, 496.739 " fill="none" stroke="rgb(0, 0, 0)" stroke-linecap="butt" stroke-linejoin="round" stroke-opacity="1.0" stroke-width="3.0" />
            <path d=" M 688.592, 293.258 680.439, 293.686 680.246, 293.696 676.422, 294.256 671.806, 294.933 663.298, 297.001 660.426, 297.984 654.749, 299.925 646.189, 303.717 637.645, 308.382 629.264, 313.837 629.149, 313.913 621.177, 319.950 620.725, 320.292 613.169, 326.841 612.403, 327.505 605.275, 334.518 604.218, 335.557 597.525, 342.987 596.208, 344.449 589.949, 352.248 588.409, 354.167 582.577, 362.290 580.855, 364.689 575.439, 373.094 573.579, 375.980 572.384, 378.040 572.034, 378.643 569.026, 383.828 566.607, 387.997 564.817, 391.417 562.303, 396.220 561.574, 397.614 560.657, 399.366 559.962, 400.694 557.375, 406.184 555.729, 409.679 555.412, 410.353 553.710, 413.966 553.678, 414.035 549.792, 423.249 547.794, 427.986 546.973, 430.174 545.295, 434.643 542.345, 442.501 542.171, 443.025 539.023, 452.516 537.360, 457.528 534.569, 467.131 532.862, 473.004 531.815, 477.162 529.372, 486.859 528.867, 488.863 527.252, 496.362 525.383, 505.035 523.608, 514.877 523.169, 517.311 522.842, 519.123 522.794, 519.389 522.422, 521.456 522.126, 523.488 520.688, 533.384 520.392, 535.424 520.008, 538.061 518.912, 548.001 518.163, 554.784 517.411, 564.756 516.899, 571.553 516.493, 581.545 516.219, 588.296 516.159, 598.296 516.119, 604.942 516.403, 614.938 516.588, 621.424 517.104, 629.646 517.614, 637.746 518.267, 644.521 519.159, 653.759 520.461, 663.674 521.212, 669.397 522.866, 679.259 522.956, 679.796 523.762, 684.598 525.779, 694.393 526.791, 699.304 529.185, 709.013 529.769, 711.379 529.803, 711.518 530.282, 713.459 530.831, 715.351 532.086, 719.677 532.248, 720.238 534.214, 727.014 537.226, 735.947 538.536, 739.833 538.566, 739.922 539.270, 741.734 540.596, 745.148 543.265, 752.014 543.314, 752.140 544.294, 754.341 544.648, 755.137 547.041, 760.510 548.432, 763.634 552.966, 772.546 553.894, 774.370 558.917, 783.017 559.674, 784.320 565.205, 792.651 565.744, 793.462 571.799, 801.420 572.073, 801.780 578.636, 809.258 585.404, 815.887 592.347, 821.664 599.439, 826.587 606.651, 830.658 610.844, 832.508 613.958, 833.882 621.333, 836.271 628.751, 837.835 636.189, 838.588 643.623, 838.548 651.031, 837.733 658.393, 836.165 665.689, 833.863 672.900, 830.852 680.009, 827.158 686.999, 822.803 693.855, 817.814 700.563, 812.218 707.110, 806.041 713.483, 799.310 719.671, 792.051 725.663, 784.293 731.450, 776.062 736.854, 767.647 737.023, 767.383 742.093, 758.763 742.375, 758.284 747.123, 749.483 747.496, 748.791 751.935, 739.830 752.381, 738.929 756.522, 729.827 757.024, 728.724 760.877, 719.497 761.418, 718.202 764.994, 708.863 765.559, 707.386 768.865, 697.948 769.442, 696.301 772.486, 686.775 773.062, 684.970 775.851, 675.367 776.417, 673.419 778.956, 663.747 779.501, 661.670 781.796, 651.937 782.313, 649.745 784.367, 639.958 784.848, 637.668 786.666, 627.834 787.105, 625.460 788.690, 615.587 789.081, 613.145 790.434, 603.237 790.774, 600.744 791.896, 590.807 792.182, 588.279 793.075, 578.319 793.303, 575.772 793.966, 565.794 794.136, 563.245 794.569, 553.254 794.678, 550.719 794.880, 540.721 794.924, 538.529 " fill="none" stroke="rgb(0, 0, 0)" stroke-linecap="butt" stroke-linejoin="round" stroke-opacity="1.0" stroke-width="3.0" />
            <path d=" M 778.214, 496.739 788.168, 497.695 788.997, 497.774 " fill="none" stroke="rgb(0, 0, 0)" stroke-linecap="butt" stroke-linejoin="round" stroke-opacity="1.0" stroke-width="3.0" />
            <path d=" M 824.171, 513.279 823.649, 503.219 822.858, 493.251 822.672, 490.906 822.056, 485.204 821.356, 478.731 819.992, 468.825 819.702, 466.719 818.043, 456.857 817.712, 454.892 815.755, 445.085 815.392, 443.270 813.133, 433.529 812.749, 431.872 810.176, 422.209 809.781, 420.724 806.877, 411.155 806.483, 409.859 803.231, 400.402 802.854, 399.307 799.239, 389.984 798.896, 389.100 794.905, 379.931 794.613, 379.261 790.236, 370.270 790.013, 369.814 785.243, 361.025 785.107, 360.774 779.901, 352.162 774.396, 344.017 768.597, 336.377 762.510, 329.275 756.144, 322.739 749.513, 316.793 742.630, 311.451 735.510, 306.727 728.165, 302.655 720.606, 299.277 719.753, 298.986 712.851, 296.626 704.916, 294.729 696.823, 293.603 688.592, 293.258 " fill="none" stroke="rgb(0, 0, 0)" stroke-linecap="butt" stroke-linejoin="round" stroke-opacity="1.0" stroke-width="3.0" />
            <path d=" M 660.426, 297.984 665.734, 300.893 671.755, 304.963 677.594, 309.667 683.239, 314.970 688.680, 320.857 693.907, 327.313 698.909, 334.316 703.678, 341.837 708.211, 349.843 712.504, 358.298 716.557, 367.164 720.363, 376.420 723.824, 385.802 723.916, 386.051 727.048, 395.548 727.209, 396.036 730.027, 405.631 730.239, 406.351 732.760, 416.028 733.004, 416.967 735.244, 426.713 735.507, 427.855 737.483, 437.658 737.750, 438.983 739.474, 448.833 739.736, 450.325 741.211, 460.216 741.457, 461.867 742.688, 471.791 742.911, 473.588 743.903, 483.539 744.095, 485.467 744.854, 495.439 745.009, 497.482 745.336, 503.604 745.248, 504.840 745.103, 506.065 744.901, 507.264 744.644, 508.427 744.335, 509.540 743.977, 510.592 743.574, 511.573 743.130, 512.471 742.649, 513.277 742.137, 513.983 741.598, 514.581 741.040, 515.066 740.466, 515.432 739.884, 515.676 739.093, 515.928 730.846, 518.556 " fill="none" stroke="rgb(0, 0, 0)" stroke-linecap="butt" stroke-linejoin="round" stroke-opacity="1.0" stroke-width="3.0" />
            <path d=" M 800.305, 535.651 800.360, 535.655 801.390, 535.721 803.243, 535.840 812.653, 532.455 813.294, 532.224 815.233, 531.527 823.028, 528.724 824.610, 528.155 824.986, 528.041 830.753, 526.295 830.510, 516.297 830.435, 513.199 829.925, 503.212 829.771, 500.193 828.990, 490.223 828.761, 487.300 827.702, 477.356 827.403, 474.544 826.061, 464.635 825.697, 461.950 824.064, 452.085 823.643, 449.543 821.712, 439.731 821.243, 437.346 819.004, 427.600 818.495, 425.387 815.938, 415.720 815.402, 413.691 815.077, 412.613 812.192, 403.038 811.964, 402.284 808.961, 393.471 808.185, 391.193 804.606, 381.856 804.066, 380.446 800.120, 371.258 799.610, 370.071 795.283, 361.055 794.822, 360.094 790.099, 351.280 789.705, 350.546 785.479, 343.483 784.266, 341.455 780.012, 335.097 778.509, 332.851 772.510, 324.850 772.444, 324.761 766.076, 317.219 759.416, 310.252 752.474, 303.890 745.261, 298.162 737.789, 293.100 730.073, 288.731 722.128, 285.082 713.971, 282.181 705.621, 280.057 697.096, 278.732 688.419, 278.229 678.423, 277.942 668.427, 277.656 666.786, 277.609 " fill="none" stroke="rgb(0, 0, 0)" stroke-linecap="butt" stroke-linejoin="round" stroke-opacity="1.0" stroke-width="3.0" />
            <path d=" M 688.419, 278.229 679.613, 278.571 678.185, 278.764 670.701, 279.777 663.835, 281.371 661.711, 281.863 652.670, 284.844 643.608, 288.731 638.517, 291.430 638.281, 291.555 634.554, 293.531 626.109, 298.887 625.540, 299.248 617.510, 305.207 616.600, 305.882 608.998, 312.379 607.768, 313.430 600.600, 320.403 599.078, 321.883 592.344, 329.275 590.567, 331.225 584.262, 338.987 582.269, 341.440 576.388, 349.528 574.222, 352.506 570.210, 358.651 569.796, 359.284 566.461, 364.392 563.509, 369.420 560.949, 373.781 559.306, 376.580 559.022, 377.064 554.355, 385.908 553.987, 386.606 552.309, 389.786 551.940, 390.485 547.660, 399.522 545.250, 404.610 541.346, 413.816 540.797, 415.112 538.983, 419.389 535.448, 428.744 533.170, 434.770 529.998, 444.254 527.843, 450.695 525.027, 460.290 523.027, 467.101 520.561, 476.792 518.747, 483.921 516.627, 493.694 515.024, 501.088 513.249, 510.929 511.878, 518.528 511.788, 519.155 510.355, 529.052 509.325, 536.169 508.233, 546.109 507.375, 553.933 506.627, 563.905 506.039, 571.746 505.636, 581.738 505.322, 589.530 505.267, 599.530 505.225, 607.209 505.523, 617.204 505.746, 624.707 " fill="none" stroke="rgb(0, 0, 0)" stroke-linecap="butt" stroke-linejoin="round" stroke-opacity="1.0" stroke-width="3.0" />
            <path d=" M 756.173, 516.632 755.931, 510.396 755.892, 507.624 755.854, 507.850 755.598, 509.018 755.290, 510.137 754.934, 511.194 754.533, 512.179 754.092, 513.082 753.614, 513.892 753.106, 514.602 752.571, 515.203 752.016, 515.691 751.447, 516.059 750.870, 516.304 750.810, 516.323 750.602, 516.391 741.088, 519.469 733.785, 521.832 733.198, 520.739 732.531, 519.827 731.795, 519.113 731.000, 518.609 730.846, 518.556 730.162, 518.323 729.293, 518.261 719.310, 517.677 718.130, 517.608 717.240, 517.770 716.348, 518.155 715.472, 518.757 714.658, 519.567 713.925, 520.574 713.250, 521.758 712.646, 523.100 712.124, 524.576 711.692, 526.161 711.357, 527.829 711.127, 529.550 711.004, 531.296 710.991, 533.035 720.970, 533.688 722.191, 533.768 727.029, 532.197 727.039, 531.643 727.092, 531.090 727.115, 530.960 727.187, 530.553 727.321, 530.047 727.491, 529.585 727.693, 529.181 727.919, 528.845 728.165, 528.587 728.424, 528.413 728.688, 528.328 728.950, 528.334 " fill="none" stroke="rgb(0, 0, 0)" stroke-linecap="butt" stroke-linejoin="round" stroke-opacity="1.0" stroke-width="3.0" />
            <path d=" M 803.053, 522.589 807.679, 520.944 808.194, 520.712 808.701, 520.373 809.199, 519.931 809.681, 519.391 810.145, 518.758 810.586, 518.039 811.003, 517.238 811.390, 516.364 811.747, 515.423 812.069, 514.423 812.354, 513.370 812.600, 512.274 812.806, 511.143 812.968, 509.984 822.562, 512.806 823.052, 512.950 824.171, 513.279 824.018, 514.007 823.735, 515.064 823.415, 516.070 823.065, 517.005 823.061, 517.016 822.676, 517.894 822.263, 518.699 821.825, 519.422 821.365, 520.058 820.887, 520.602 820.395, 521.046 819.892, 521.387 819.382, 521.621 813.424, 523.777 806.709, 526.207 806.161, 525.083 805.644, 524.309 805.536, 524.147 804.842, 523.414 804.091, 522.897 803.296, 522.607 803.053, 522.589 802.470, 522.547 801.372, 522.483 800.036, 522.405 790.594, 521.852 790.108, 521.950 790.092, 521.953 789.744, 522.024 788.891, 522.425 788.050, 523.049 787.271, 523.888 786.570, 524.930 785.924, 526.155 785.344, 527.541 784.840, 529.066 784.421, 530.703 784.094, 532.424 783.865, 534.201 783.738, 536.001 783.714, 537.795 790.051, 538.210 790.238, 538.222 794.924, 538.529 795.635, 538.576 800.217, 536.928 800.229, 536.357 800.283, 535.786 800.305, 535.651 800.359, 535.332 800.376, 535.232 800.506, 534.709 800.670, 534.232 800.863, 533.814 801.079, 533.466 801.313, 533.198 801.399, 533.135 801.559, 533.018 801.809, 532.929 802.056, 532.934 " fill="none" stroke="rgb(0, 0, 0)" stroke-linecap="butt" stroke-linejoin="round" stroke-opacity="1.0" stroke-width="3.0" />
            <path d=" M 774.559, 551.658 774.143, 561.254 773.470, 571.231 773.307, 573.654 772.396, 583.612 772.175, 586.032 771.026, 595.966 770.749, 598.367 769.363, 608.270 769.032, 610.637 767.406, 620.504 767.024, 622.820 765.157, 632.644 764.730, 634.893 762.620, 644.668 762.152, 646.836 759.795, 656.555 759.292, 658.626 756.684, 668.280 756.155, 670.240 753.291, 679.821 752.743, 681.655 749.618, 691.154 749.061, 692.848 745.669, 702.256 745.113, 703.797 741.446, 713.100 740.903, 714.477 736.953, 723.664 736.437, 724.864 732.196, 733.920 731.721, 734.935 727.177, 743.843 726.759, 744.663 721.903, 753.405 721.559, 754.024 716.380, 762.578 716.129, 762.994 710.614, 771.336 710.475, 771.546 704.606, 779.654 698.532, 787.291 692.262, 794.434 685.807, 801.054 679.178, 807.123 672.389, 812.618 665.453, 817.512 658.384, 821.779 651.198, 825.392 643.911, 828.329 636.541, 830.566 629.107, 832.078 621.629, 832.845 614.127, 832.849 610.844, 832.508 " fill="none" stroke="rgb(0, 0, 0)" stroke-linecap="butt" stroke-linejoin="round" stroke-opacity="1.0" stroke-width="3.0" />
            <path d=" M 790.238, 538.222 789.990, 548.219 789.862, 553.344 780.094, 551.204 779.187, 551.006 774.631, 550.008 766.358, 548.195 765.658, 548.042 764.957, 547.889 764.255, 547.735 763.552, 547.581 762.731, 547.270 761.948, 546.705 761.218, 545.898 760.558, 544.863 759.982, 543.619 759.499, 542.191 759.118, 540.605 758.848, 538.891 758.694, 537.083 758.692, 537.014 758.658, 535.215 758.742, 533.323 758.944, 531.445 759.153, 530.238 759.261, 529.616 759.685, 527.872 760.208, 526.247 760.821, 524.771 761.512, 523.474 761.777, 523.089 762.266, 522.379 763.068, 521.507 763.757, 520.874 764.447, 520.241 765.136, 519.610 765.824, 518.979 766.169, 518.664 773.547, 511.913 778.836, 507.073 786.214, 500.322 788.997, 497.774 789.579, 507.757 789.653, 509.020 789.875, 513.564 790.108, 521.950 " fill="none" stroke="rgb(0, 0, 0)" stroke-linecap="butt" stroke-linejoin="round" stroke-opacity="1.0" stroke-width="3.0" />
            <path d=" M 764.822, 537.416 764.501, 537.381 764.199, 537.197 763.928, 536.873 763.700, 536.424 763.526, 535.870 763.412, 535.234 763.365, 534.544 763.387, 533.831 763.475, 533.125 763.627, 532.459 763.835, 531.861 764.091, 531.357 764.383, 530.969 764.698, 530.715 765.023, 530.607 " fill="none" stroke="rgb(0, 0, 0)" stroke-linecap="butt" stroke-linejoin="round" stroke-opacity="1.0" stroke-width="3.0" />
            <path d=" M 765.023, 530.607 765.343, 530.646 765.645, 530.832 765.915, 531.156 766.141, 531.605 766.315, 532.158 766.427, 532.793 766.473, 533.480 766.452, 534.191 766.364, 534.894 766.213, 535.558 766.006, 536.155 765.752, 536.659 765.461, 537.047 765.146, 537.303 764.822, 537.416 " fill="none" stroke="rgb(0, 0, 0)" stroke-linecap="butt" stroke-linejoin="round" stroke-opacity="1.0" stroke-width="3.0" />
            <path d=" M 800.360, 535.655 800.364, 536.931 800.158, 546.929 800.095, 550.018 799.659, 560.009 799.523, 563.129 798.859, 573.107 798.650, 576.241 797.757, 586.201 797.476, 589.332 796.354, 599.269 796.003, 602.381 794.652, 612.289 794.232, 615.365 792.650, 625.239 792.166, 628.263 790.351, 638.096 789.806, 641.051 787.756, 650.838 787.155, 653.707 784.866, 663.442 784.215, 666.209 781.683, 675.883 780.989, 678.533 778.208, 688.139 777.480, 690.656 774.445, 700.184 773.691, 702.553 770.396, 711.994 769.626, 714.200 766.063, 723.543 765.290, 725.571 761.450, 734.805 760.686, 736.643 756.561, 745.753 755.820, 747.389 751.399, 756.359 750.697, 757.783 745.969, 766.594 745.324, 767.797 740.277, 776.430 739.707, 777.405 734.329, 785.836 733.854, 786.580 728.131, 794.780 727.773, 795.293 721.691, 803.230 721.473, 803.515 714.963, 811.220 708.255, 818.377 701.359, 824.956 694.290, 830.931 687.059, 836.273 679.683, 840.952 672.177, 844.939 664.558, 848.211 656.844, 850.738 649.055, 852.493 641.212, 853.455 633.337, 853.602 625.452, 852.910 617.583, 851.361 609.754, 848.939 601.992, 845.632 594.325, 841.426 586.781, 836.314 579.390, 830.295 572.181, 823.367 565.520, 815.908 565.185, 815.532 559.066, 807.623 558.432, 806.802 552.842, 798.510 551.952, 797.190 546.875, 788.575 545.777, 786.714 543.310, 781.931 540.758, 776.986 539.937, 775.394 539.365, 774.126 535.251, 765.012 534.461, 763.262 534.332, 762.935 532.997, 759.546 529.376, 750.352 527.647, 745.291 525.147, 737.973 524.712, 736.701 521.892, 727.107 520.494, 722.352 518.069, 712.650 516.746, 707.356 514.701, 697.568 513.489, 691.768 511.812, 681.909 511.100, 677.731 510.745, 675.643 509.423, 665.731 508.531, 659.046 507.553, 649.094 506.860, 642.044 506.219, 632.065 505.746, 624.707 503.302, 615.010 501.040, 606.038 " fill="none" stroke="rgb(0, 0, 0)" stroke-linecap="butt" stroke-linejoin="round" stroke-opacity="1.0" stroke-width="3.0" />
            <path d=" M 666.786, 277.609 658.815, 277.916 657.442, 278.114 650.746, 279.084 642.604, 281.128 634.413, 284.066 626.199, 287.910 617.991, 292.669 609.817, 298.346 602.060, 304.656 601.707, 304.943 594.413, 311.784 593.694, 312.459 586.860, 319.759 585.807, 320.883 579.425, 328.582 578.081, 330.204 572.140, 338.248 570.548, 340.404 568.257, 343.871 567.799, 344.564 563.242, 351.461 562.321, 353.014 559.735, 357.375 558.118, 360.104 556.196, 363.344 552.751, 369.811 551.097, 372.917 549.443, 376.022 545.127, 385.042 543.015, 389.455 539.599, 397.416 536.945, 403.599 533.362, 412.935 531.263, 418.403 528.029, 427.866 525.996, 433.813 523.104, 443.386 521.175, 449.772 518.616, 459.439 516.822, 466.214 514.589, 475.962 512.961, 483.073 511.050, 492.888 509.612, 500.278 508.020, 510.150 506.794, 517.756 506.628, 519.045 505.352, 528.964 504.520, 535.432 503.559, 545.385 502.802, 553.228 502.156, 563.207 501.648, 571.069 501.320, 581.063 501.064, 588.875 501.050, 598.875 501.040, 606.038 499.671, 615.944 498.395, 625.174 " fill="none" stroke="rgb(0, 0, 0)" stroke-linecap="butt" stroke-linejoin="round" stroke-opacity="1.0" stroke-width="3.0" />
            <path d=" M 499.561, 643.069 500.550, 653.020 501.304, 660.613 502.639, 670.524 503.610, 677.733 505.301, 687.589 506.463, 694.360 507.570, 699.613 509.631, 709.398 509.848, 710.426 512.291, 720.122 513.740, 725.871 516.582, 735.459 518.117, 740.641 521.374, 750.096 522.210, 752.521 522.955, 754.683 524.725, 759.139 528.225, 767.951 530.374, 772.670 531.753, 775.698 533.897, 780.407 536.996, 786.357 538.400, 789.052 539.943, 792.016 541.045, 793.867 546.161, 802.459 546.333, 802.748 551.963, 811.012 553.032, 812.581 559.195, 820.457 560.011, 821.499 566.719, 828.915 567.236, 829.487 574.495, 836.365 574.677, 836.537 582.300, 842.647 590.076, 847.820 597.975, 852.058 605.967, 855.371 614.023, 857.772 622.116, 859.278 630.220, 859.905 638.311, 859.673 646.365, 858.607 654.359, 856.729 662.272, 854.066 670.086, 850.644 677.780, 846.493 685.339, 841.639 692.746, 836.111 699.987, 829.941 707.047, 823.157 713.915, 815.789 720.351, 808.135 720.578, 807.866 726.645, 799.917 727.026, 799.418 732.738, 791.210 733.250, 790.475 738.619, 782.038 739.239, 781.063 744.279, 772.426 744.987, 771.213 749.711, 762.399 750.486, 760.952 754.905, 751.981 755.729, 750.308 759.854, 741.198 760.710, 739.306 764.551, 730.073 765.424, 727.975 768.989, 718.632 769.864, 716.339 773.163, 706.899 774.027, 704.425 777.066, 694.898 777.909, 692.257 780.695, 682.653 781.505, 679.860 784.044, 670.187 784.813, 667.258 787.108, 657.525 787.828, 654.474 789.884, 644.688 790.547, 641.532 792.369, 631.700 792.970, 628.456 794.559, 618.583 795.092, 615.268 796.450, 605.361 796.911, 601.991 798.039, 592.055 798.426, 588.646 799.325, 578.687 799.635, 575.258 800.305, 565.280 800.535, 561.847 800.975, 551.857 801.125, 548.436 801.333, 538.439 801.390, 535.721 " fill="none" stroke="rgb(0, 0, 0)" stroke-linecap="butt" stroke-linejoin="round" stroke-opacity="1.0" stroke-width="3.0" />
            <path d=" M 498.395, 625.174 499.045, 635.153 499.561, 643.069 " fill="none" stroke="rgb(0, 0, 0)" stroke-linecap="butt" stroke-linejoin="round" stroke-opacity="1.0" stroke-width="3.0" />
            <path d=" M 815.077, 412.613 814.169, 407.887 812.049, 398.115 811.782, 396.884 809.421, 387.167 809.157, 386.080 806.548, 376.426 806.294, 375.489 803.430, 365.908 803.197, 365.128 800.068, 355.630 799.865, 355.013 796.461, 345.609 796.299, 345.161 792.610, 335.866 792.501, 335.592 788.513, 326.421 788.471, 326.325 784.209, 317.382 779.719, 308.783 775.004, 300.545 770.067, 292.685 764.913, 285.222 759.545, 278.177 753.968, 271.569 748.187, 265.422 742.207, 259.759 736.033, 254.605 729.673, 249.979 723.135, 245.899 716.429, 242.383 709.564, 239.450 702.550, 237.119 695.397, 235.410 688.117, 234.346 680.724, 233.946 673.232, 234.232 672.572, 234.318 665.655, 235.216 658.008, 236.909 650.309, 239.321 642.574, 242.461 634.822, 246.340 627.072, 250.967 619.344, 256.348 611.660, 262.492 605.791, 267.814 604.044, 269.399 597.036, 276.533 596.515, 277.063 589.901, 284.563 589.096, 285.476 587.570, 287.392 581.810, 294.625 578.309, 299.472 574.678, 304.500 569.189, 312.858 567.726, 315.085 564.608, 320.296 564.088, 321.165 560.977, 326.364 560.173, 327.837 557.570, 332.611 555.988, 335.509 554.456, 338.318 550.629, 346.017 549.020, 349.253 548.190, 350.924 544.065, 360.033 543.582, 361.100 542.200, 364.152 538.390, 373.398 537.734, 374.989 536.507, 377.968 533.003, 387.334 531.132, 392.333 527.925, 401.805 526.095, 407.209 523.178, 416.774 521.415, 422.554 518.782, 432.201 517.111, 438.325 514.758, 448.044 513.202, 454.475 511.127, 464.257 509.706, 470.956 507.905, 480.793 506.638, 487.717 505.106, 497.599 504.005, 504.701 502.740, 514.621 502.163, 519.150 501.818, 521.854 500.819, 531.804 500.084, 539.121 499.353, 549.094 498.813, 556.445 498.349, 566.434 498.008, 573.769 497.813, 583.767 497.671, 591.036 497.746, 601.035 497.800, 608.189 498.150, 618.183 498.395, 625.174 499.024, 635.155 499.452, 641.936 499.561, 643.069 500.471, 653.028 500.963, 658.421 502.166, 668.348 502.921, 674.579 504.420, 684.466 505.314, 690.361 507.120, 700.197 507.295, 701.152 508.134, 705.720 510.253, 715.493 511.364, 720.613 513.808, 730.310 514.989, 734.999 517.768, 744.606 518.993, 748.842 521.419, 756.217 523.357, 762.107 523.798, 763.290 527.288, 772.662 528.069, 774.758 529.310, 777.717 530.628, 780.858 533.106, 786.766 535.771, 792.429 537.113, 795.279 538.447, 798.111 539.731, 800.547 544.069, 808.773 549.153, 817.384 549.951, 818.736 555.470, 827.075 556.072, 827.984 562.040, 836.008 562.410, 836.506 568.840, 844.164 568.946, 844.290 575.658, 851.327 582.527, 857.615 589.528, 863.156 596.640, 867.957 603.843, 872.024 611.117, 875.365 618.444, 877.988 624.433, 879.544 625.805, 879.901 633.185, 881.114 640.566, 881.636 647.932, 881.484 655.266, 880.679 662.555, 879.239 669.784, 877.185 676.941, 874.534 684.013, 871.304 690.989, 867.513 697.858, 863.176 704.610, 858.311 711.236, 852.940 717.726, 847.088 724.074, 840.776 730.271, 834.024 736.311, 826.852 742.187, 819.279 747.893, 811.321 753.423, 802.994 758.670, 794.481 758.771, 794.317 763.745, 785.641 763.934, 785.311 768.644, 776.489 768.908, 775.995 773.364, 767.043 773.689, 766.390 777.899, 757.319 778.274, 756.511 782.245, 747.334 782.660, 746.377 786.399, 737.103 786.843, 736.002 790.355, 726.639 790.819, 725.402 794.109, 715.959 794.586, 714.590 797.660, 705.074 798.141, 703.584 801.004, 694.003 801.483, 692.400 804.140, 682.760 804.610, 681.054 807.066, 671.361 807.521, 669.563 809.779, 659.821 810.215, 657.939 812.278, 648.154 812.690, 646.197 814.558, 636.373 814.943, 634.351 816.619, 624.493 816.972, 622.415 818.456, 612.526 818.775, 610.401 820.071, 600.486 820.353, 598.326 821.461, 588.387 821.705, 586.202 822.627, 576.245 822.830, 574.044 823.564, 564.071 823.726, 561.864 824.272, 551.879 824.392, 549.676 824.749, 539.683 824.827, 537.495 824.986, 528.041 " fill="none" stroke="rgb(0, 0, 0)" stroke-linecap="butt" stroke-linejoin="round" stroke-opacity="1.0" stroke-width="3.0" />
            <path d=" M 671.000, 234.378 663.412, 235.362 655.756, 237.055 648.047, 239.465 640.302, 242.603 632.541, 246.479 624.781, 251.102 617.044, 256.479 609.352, 262.617 604.255, 267.231 601.727, 269.518 594.712, 276.645 594.191, 277.175 587.569, 284.669 586.764, 285.579 581.894, 291.683 579.471, 294.719 573.608, 302.821 572.333, 304.584 571.514, 305.827 566.017, 314.181 565.374, 315.158 564.076, 317.323 563.545, 318.209 559.833, 324.400 558.619, 326.425 557.206, 329.010 555.636, 331.883 552.093, 338.366 550.228, 342.110 548.644, 345.291 545.821, 350.958 541.690, 360.065 539.827, 364.172 537.272, 370.362 534.130, 377.973 532.399, 382.590 528.890, 391.954 528.752, 392.322 525.539, 401.792 523.711, 407.181 520.790, 416.745 519.029, 422.509 516.392, 432.155 514.723, 438.261 512.367, 447.980 510.812, 454.393 508.734, 464.174 507.315, 470.855 505.512, 480.691 504.247, 487.596 502.713, 497.478 501.614, 504.561 500.348, 514.481 499.729, 519.327 499.427, 521.695 498.428, 531.645 497.695, 538.942 496.963, 548.915 496.425, 556.246 495.961, 566.235 495.622, 573.550 495.428, 583.548 495.287, 590.797 495.364, 600.797 495.419, 607.932 495.772, 617.926 496.017, 624.898 496.650, 634.878 497.078, 641.641 497.995, 651.599 498.594, 658.108 499.800, 668.035 500.556, 674.249 502.060, 684.135 502.955, 690.014 504.765, 699.849 505.779, 705.358 506.199, 707.285 508.324, 717.056 509.016, 720.235 511.465, 729.930 512.647, 734.607 515.432, 744.211 516.657, 748.437 519.790, 757.933 520.555, 760.254 521.029, 761.689 522.975, 766.901 525.747, 774.328 528.576, 781.056 529.898, 784.199 530.792, 786.326 535.060, 795.369 535.118, 795.493 536.141, 797.661 536.474, 798.292 539.145, 803.345 541.771, 808.314 546.864, 816.920 547.662, 818.269 553.189, 826.603 553.791, 827.511 559.767, 835.529 560.139, 836.027 566.576, 843.679 566.683, 843.806 573.405, 850.840 580.283, 857.124 587.294, 862.663 594.416, 867.463 601.629, 871.530 608.913, 874.871 616.249, 877.495 623.621, 879.411 " fill="none" stroke="rgb(0, 0, 0)" stroke-linecap="butt" stroke-linejoin="round" stroke-opacity="1.0" stroke-width="3.0" />
            <path d=" M 673.232, 234.232 671.000, 234.378 " fill="none" stroke="rgb(0, 0, 0)" stroke-linecap="butt" stroke-linejoin="round" stroke-opacity="1.0" stroke-width="3.0" />
            <path d=" M 623.621, 879.411 625.805, 879.901 " fill="none" stroke="rgb(0, 0, 0)" stroke-linecap="butt" stroke-linejoin="round" stroke-opacity="1.0" stroke-width="3.0" />
            <path d=" M 480.263, 626.696 480.910, 636.675 481.507, 645.891 482.443, 655.847 483.280, 664.756 484.510, 674.680 485.570, 683.229 487.102, 693.111 488.365, 701.253 490.208, 711.082 491.649, 718.773 493.812, 728.536 495.407, 735.736 497.900, 745.420 497.995, 745.789 499.618, 752.094 499.777, 752.632 502.612, 762.221 504.263, 767.804 505.736, 772.180 508.926, 781.658 509.320, 782.826 511.440, 788.395 512.681, 791.652 514.739, 797.057 514.765, 797.124 514.867, 797.361 516.004, 800.012 519.947, 809.202 520.575, 810.667 521.107, 811.771 522.427, 814.510 524.095, 817.969 525.403, 820.685 526.725, 823.427 528.089, 825.949 529.438, 828.443 529.594, 828.733 532.307, 833.750 533.190, 835.382 538.377, 843.931 539.943, 846.513 545.576, 854.775 546.959, 856.805 553.051, 864.735 554.212, 866.247 560.773, 873.794 561.676, 874.833 568.711, 881.940 569.325, 882.560 576.835, 889.163 577.134, 889.426 585.079, 895.435 593.135, 900.594 601.279, 904.910 609.489, 908.394 617.743, 911.060 622.078, 912.098 630.333, 913.956 638.591, 915.026 646.835, 915.326 655.045, 914.877 663.206, 913.698 671.301, 911.813 679.316, 909.242 687.237, 906.009 695.051, 902.137 702.745, 897.650 710.310, 892.571 717.734, 886.924 725.008, 880.733 732.123, 874.020 739.072, 866.810 745.684, 859.308 745.846, 859.125 752.141, 851.355 752.439, 850.987 758.427, 842.979 758.845, 842.420 764.537, 834.198 765.058, 833.444 770.464, 825.031 771.074, 824.081 776.203, 815.497 776.887, 814.352 781.750, 805.614 782.494, 804.277 787.099, 795.400 787.890, 793.875 792.246, 784.874 793.072, 783.167 797.188, 774.053 798.038, 772.171 801.920, 762.956 802.783, 760.906 806.439, 751.598 807.307, 749.389 810.742, 739.998 811.605, 737.638 814.826, 728.171 815.677, 725.669 818.689, 716.133 819.520, 713.500 822.327, 703.902 823.133, 701.146 825.740, 691.492 826.514, 688.624 828.924, 678.919 829.661, 675.949 831.878, 666.197 832.573, 663.135 834.599, 653.343 835.250, 650.199 837.087, 640.369 837.688, 637.153 839.339, 627.291 839.888, 624.014 841.355, 614.122 841.848, 610.794 843.131, 600.877 843.567, 597.509 844.668, 587.570 845.044, 584.172 845.963, 574.214 846.279, 570.796 847.016, 560.823 847.269, 557.396 847.824, 547.411 848.014, 543.985 848.386, 533.992 848.513, 530.578 848.701, 520.580 848.765, 517.187 848.768, 507.187 848.769, 503.828 848.585, 493.830 848.524, 490.513 848.151, 480.520 848.029, 477.258 847.464, 467.274 847.283, 464.076 846.523, 454.105 846.285, 450.982 845.326, 441.028 845.034, 437.992 843.873, 428.060 843.530, 425.120 842.162, 415.214 841.771, 412.381 840.191, 402.507 839.757, 399.793 837.960, 389.956 837.487, 387.370 835.466, 377.576 834.961, 375.130 832.709, 365.387 832.178, 363.090 829.688, 353.405 829.138, 351.267 826.402, 341.649 825.841, 339.679 822.849, 330.138 822.287, 328.346 819.030, 318.891 818.477, 317.286 814.943, 307.931 814.409, 306.518 810.589, 297.277 810.087, 296.063 805.967, 286.952 805.511, 285.942 801.078, 276.978 800.681, 276.176 795.923, 267.381 795.602, 266.787 790.503, 258.184 790.273, 257.797 784.820, 249.414 784.699, 249.228 778.883, 241.105 772.828, 233.450 766.540, 226.289 760.023, 219.645 753.284, 213.544 746.329, 208.009 739.165, 203.067 731.802, 198.742 724.248, 195.059 716.514, 192.042 708.611, 189.716 700.552, 188.105 692.350, 187.231 684.020, 187.117 675.578, 187.782 671.138, 188.163 662.578, 189.629 653.941, 191.911 645.247, 195.026 636.516, 198.986 627.771, 203.805 619.389, 209.259 619.034, 209.491 611.047, 215.509 610.328, 216.050 602.747, 222.571 601.680, 223.488 594.505, 230.453 593.115, 231.802 586.344, 239.161 584.660, 240.991 578.286, 248.697 576.341, 251.048 575.624, 252.007 569.639, 260.018 568.187, 261.961 562.579, 270.241 560.226, 273.715 556.394, 279.942 555.718, 281.041 555.052, 282.122 552.486, 286.293 552.267, 286.684 552.140, 286.911 551.984, 287.191 550.735, 289.421 547.680, 294.877 546.138, 297.632 545.073, 299.534 544.997, 299.669 543.533, 302.541 538.992, 311.450 537.786, 313.817 537.386, 314.679 535.878, 317.930 531.974, 326.349 530.881, 328.705 526.998, 337.920 524.310, 344.295 523.058, 347.573 519.489, 356.914 518.100, 360.548 514.837, 370.001 512.276, 377.419 509.311, 386.970 506.862, 394.859 504.190, 404.495 501.882, 412.815 499.496, 422.526 497.357, 431.231 496.015, 437.466 494.001, 446.821 493.306, 450.049 491.479, 459.881 489.746, 469.206 488.194, 479.085 486.694, 488.639 485.414, 498.556 484.281, 507.342 484.160, 508.280 484.008, 509.779 483.316, 516.613 483.011, 519.625 483.010, 519.635 482.998, 519.755 482.980, 519.936 482.156, 528.063 481.420, 538.036 480.691, 547.919 480.226, 557.908 479.767, 567.779 479.576, 577.777 479.389, 587.574 479.473, 597.573 479.555, 607.235 479.784, 613.531 480.148, 623.525 480.263, 626.696 " fill="none" stroke="rgb(0, 0, 0)" stroke-linecap="butt" stroke-linejoin="round" stroke-opacity="1.0" stroke-width="3.0" />
            <path d=" M 675.578, 187.782 667.040, 189.248 658.426, 191.531 649.753, 194.648 641.044, 198.614 632.319, 203.439 623.948, 208.908 623.602, 209.133 615.627, 215.167 614.917, 215.704 607.347, 222.239 606.287, 223.154 599.126, 230.133 597.740, 231.484 590.983, 238.856 589.302, 240.690 582.943, 248.408 580.999, 250.766 578.607, 253.979 572.861, 261.701 567.268, 269.990 564.914, 273.479 559.688, 282.004 557.671, 285.295 557.188, 286.082 557.017, 286.389 555.867, 288.450 553.156, 293.311 551.612, 296.078 549.711, 299.487 546.064, 306.668 544.519, 309.711 542.511, 313.665 538.316, 322.743 535.616, 328.585 533.131, 334.503 529.259, 343.723 529.055, 344.210 525.496, 353.556 525.064, 354.692 522.852, 360.500 519.599, 369.956 517.035, 377.408 514.079, 386.961 511.627, 394.887 508.962, 404.526 506.651, 412.884 504.272, 422.597 502.129, 431.343 500.031, 441.120 498.081, 450.204 496.258, 460.037 494.605, 468.959 494.522, 469.406 492.974, 479.285 491.694, 487.446 491.469, 488.883 490.992, 492.590 489.715, 502.508 489.083, 507.420 488.935, 508.570 488.623, 511.650 488.596, 511.919 488.139, 516.439 488.113, 516.696 487.807, 519.720 487.776, 520.021 486.929, 528.399 486.669, 531.916 485.933, 541.889 485.459, 548.300 484.994, 558.289 484.531, 568.206 484.338, 578.204 484.147, 588.046 484.228, 598.045 484.307, 607.752 484.666, 617.745 484.775, 620.777 485.008, 627.256 485.649, 637.236 486.243, 646.493 487.172, 656.450 488.006, 665.399 489.229, 675.324 489.331, 676.157 489.926, 680.987 490.286, 683.913 491.809, 693.796 493.069, 701.975 494.902, 711.806 496.342, 719.531 498.493, 729.297 500.086, 736.528 500.133, 736.711 502.613, 746.399 504.283, 752.919 507.105, 762.513 508.913, 768.660 512.089, 778.142 513.954, 783.710 514.487, 785.115 516.709, 790.978 516.719, 791.004 519.383, 798.034 522.693, 805.786 523.974, 808.786 525.176, 811.600 529.432, 820.470 530.751, 823.219 531.309, 824.382 533.556, 828.557 537.755, 836.356 542.926, 844.915 544.489, 847.503 550.106, 855.777 551.486, 857.809 557.562, 865.752 558.719, 867.264 565.265, 874.824 566.162, 875.860 573.185, 882.979 573.791, 883.594 581.289, 890.210 581.579, 890.465 589.502, 896.478 597.536, 901.638 605.659, 905.954 613.846, 909.436 622.078, 912.098 " fill="none" stroke="rgb(0, 0, 0)" stroke-linecap="butt" stroke-linejoin="round" stroke-opacity="1.0" stroke-width="3.0" />
            <path d=" M 729.293, 518.261 728.408, 518.425 727.522, 518.813 726.651, 519.418 725.962, 520.112 725.843, 520.233 725.114, 521.245 725.077, 521.310 724.443, 522.435 723.843, 523.784 723.323, 525.267 722.893, 526.861 722.679, 527.940 722.560, 528.537 722.330, 530.267 722.302, 530.651 722.206, 532.021 722.191, 533.768 " fill="none" stroke="rgb(0, 0, 0)" stroke-linecap="butt" stroke-linejoin="round" stroke-opacity="1.0" stroke-width="3.0" />
            <path d=" M 728.950, 528.334 729.204, 528.432 729.442, 528.618 729.657, 528.888 729.844, 529.233 729.998, 529.645 730.115, 530.112 730.192, 530.621 730.226, 531.159 " fill="none" stroke="rgb(0, 0, 0)" stroke-linecap="butt" stroke-linejoin="round" stroke-opacity="1.0" stroke-width="3.0" />
            <path d=" M 727.115, 530.960 730.226, 531.159 739.737, 528.070 748.830, 525.117 " fill="none" stroke="rgb(0, 0, 0)" stroke-linecap="butt" stroke-linejoin="round" stroke-opacity="1.0" stroke-width="3.0" />
            <path d=" M 802.470, 522.547 801.627, 522.721 800.781, 523.124 800.256, 523.519 800.092, 523.643 799.946, 523.752 799.588, 524.143 799.173, 524.597 798.477, 525.644 798.442, 525.711 798.276, 526.031 797.836, 526.875 797.260, 528.269 796.760, 529.802 796.343, 531.447 796.133, 532.562 796.017, 533.178 795.789, 534.963 795.760, 535.360 795.660, 536.773 795.635, 538.576 " fill="none" stroke="rgb(0, 0, 0)" stroke-linecap="butt" stroke-linejoin="round" stroke-opacity="1.0" stroke-width="3.0" />
            <path d=" M 802.056, 532.934 802.295, 533.034 802.518, 533.224 802.720, 533.501 802.895, 533.856 803.038, 534.280 803.145, 534.760 803.214, 535.285 803.243, 535.840 " fill="none" stroke="rgb(0, 0, 0)" stroke-linecap="butt" stroke-linejoin="round" stroke-opacity="1.0" stroke-width="3.0" />
            <path d=" M 781.698, 484.271 781.855, 484.240 782.016, 484.234 782.235, 484.267 782.447, 484.344 782.643, 484.464 782.817, 484.622 782.961, 484.812 783.072, 485.029 783.144, 485.267 783.172, 485.521 783.154, 485.759 783.095, 485.985 782.996, 486.193 782.861, 486.374 782.696, 486.520 782.503, 486.628 782.289, 486.693 " fill="none" stroke="rgb(0, 0, 0)" stroke-linecap="butt" stroke-linejoin="round" stroke-opacity="1.0" stroke-width="3.0" />
            <path d=" M 781.698, 484.271 781.555, 484.320 781.347, 484.429 781.165, 484.578 781.138, 484.601 780.984, 484.787 780.869, 485.001 780.797, 485.237 780.774, 485.490 780.802, 485.728 780.876, 485.957 780.886, 485.987 781.003, 486.194 781.158, 486.374 781.346, 486.521 781.379, 486.538 781.585, 486.641 781.626, 486.652 781.834, 486.705 781.863, 486.710 781.900, 486.714 781.943, 486.716 781.992, 486.718 782.043, 486.717 782.094, 486.716 782.142, 486.713 782.188, 486.710 782.228, 486.705 782.262, 486.699 782.289, 486.693 " fill="none" stroke="rgb(0, 0, 0)" stroke-linecap="butt" stroke-linejoin="round" stroke-opacity="1.0" stroke-width="3.0" />
            <path d=" M 779.152, 482.257 779.255, 488.438 782.955, 488.603 784.926, 488.691 785.581, 488.339 784.973, 482.454 782.411, 482.302 779.584, 482.134 779.152, 482.257 " fill="none" stroke="rgb(0, 0, 0)" stroke-linecap="butt" stroke-linejoin="round" stroke-opacity="1.0" stroke-width="3.0" />
            <path d=" M 784.926, 488.691 784.827, 482.497 " fill="none" stroke="rgb(0, 0, 0)" stroke-linecap="butt" stroke-linejoin="round" stroke-opacity="1.0" stroke-width="3.0" />
            <path d=" M 784.973, 482.454 784.827, 482.497 779.152, 482.257 " fill="none" stroke="rgb(0, 0, 0)" stroke-linecap="butt" stroke-linejoin="round" stroke-opacity="1.0" stroke-width="3.0" />
            <path d=" M 739.093, 515.928 729.098, 515.618 727.777, 515.577 717.780, 515.352 716.287, 515.318 706.288, 515.171 704.809, 515.149 694.810, 515.073 693.338, 515.062 683.338, 515.049 681.869, 515.047 671.869, 515.091 670.397, 515.097 660.398, 515.190 658.918, 515.204 648.918, 515.339 647.426, 515.359 637.427, 515.530 635.917, 515.555 625.919, 515.755 624.386, 515.785 614.389, 516.007 612.830, 516.042 602.833, 516.279 601.243, 516.317 591.246, 516.564 589.620, 516.605 579.623, 516.855 577.958, 516.897 578.072, 506.898 578.124, 502.311 578.122, 492.311 578.122, 487.739 578.004, 477.740 577.951, 473.201 577.716, 463.203 577.611, 458.715 577.257, 448.721 577.101, 444.300 576.626, 434.312 576.420, 429.978 575.822, 419.995 575.569, 415.766 574.844, 405.792 574.546, 401.686 573.691, 391.723 573.351, 387.761 572.384, 378.040 " fill="none" stroke="rgb(0, 0, 0)" stroke-linecap="butt" stroke-linejoin="round" stroke-opacity="1.0" stroke-width="3.0" />
            <path d=" M 575.624, 252.007 575.229, 251.745 567.294, 245.660 566.773, 245.260 559.256, 238.665 558.602, 238.090 551.509, 231.041 550.730, 230.266 546.032, 225.016 543.585, 222.282 543.167, 221.815 542.769, 221.318 540.979, 219.081 540.535, 218.527 537.954, 215.303 537.772, 215.076 535.920, 212.763 534.046, 210.157 532.591, 208.133 531.948, 207.240 528.993, 203.131 " fill="none" stroke="rgb(0, 0, 0)" stroke-linecap="butt" stroke-linejoin="round" stroke-opacity="1.0" stroke-width="3.0" />
            <path d=" M 526.626, 199.406 522.389, 192.938 521.012, 191.138 518.008, 187.213 517.093, 186.212 513.488, 182.270 508.839, 178.150 504.068, 174.896 503.771, 174.753 500.963, 173.402 499.185, 172.547 494.201, 171.140 489.128, 170.715 483.979, 171.311 478.769, 172.960 473.513, 175.693 473.382, 175.788 472.270, 176.598 468.229, 179.541 466.638, 181.040 462.936, 184.529 457.652, 190.675 454.798, 194.653 453.759, 196.100 452.399, 197.996 448.135, 204.969 447.198, 206.502 442.525, 215.343 442.073, 216.198 437.879, 225.275 437.046, 227.076 433.279, 236.339 432.144, 239.129 428.758, 248.538 427.391, 252.338 424.348, 261.864 422.812, 266.675 420.080, 276.295 418.431, 282.103 415.986, 291.799 414.276, 298.578 412.095, 308.337 410.371, 316.048 408.434, 325.859 406.738, 334.448 405.031, 344.302 403.402, 353.708 401.912, 363.596 400.422, 373.485 400.383, 373.748 399.100, 383.666 397.817, 393.583 397.701, 394.482 396.617, 404.423 395.532, 414.364 395.374, 415.812 394.482, 425.772 393.589, 435.732 393.418, 437.638 392.712, 447.613 392.006, 457.588 391.846, 459.854 391.322, 469.841 390.799, 479.827 390.667, 482.351 390.324, 492.345 389.981, 502.340 389.889, 505.015 389.726, 515.014 389.563, 525.012 389.518, 527.729 389.549, 527.767 395.153, 534.884 396.753, 536.824 400.879, 541.827 406.697, 548.569 412.608, 555.117 418.614, 561.480 424.715, 567.667 430.914, 573.685 437.211, 579.541 443.608, 585.243 450.106, 590.798 456.708, 596.214 463.414, 601.496 470.226, 606.651 477.147, 611.686 479.784, 613.531 " fill="none" stroke="rgb(0, 0, 0)" stroke-linecap="butt" stroke-linejoin="round" stroke-opacity="1.0" stroke-width="3.0" />
            <path d=" M 359.719, 518.290 355.445, 527.330 353.102, 532.286 " fill="none" stroke="rgb(0, 0, 0)" stroke-linecap="butt" stroke-linejoin="round" stroke-opacity="1.0" stroke-width="3.0" />
            <path d=" M 473.382, 175.788 468.972, 175.947 " fill="none" stroke="rgb(0, 0, 0)" stroke-linecap="butt" stroke-linejoin="round" stroke-opacity="1.0" stroke-width="3.0" />
            <path d=" M 532.591, 208.133 531.930, 207.167 528.778, 202.555 526.626, 199.406 " fill="none" stroke="rgb(0, 0, 0)" stroke-linecap="butt" stroke-linejoin="round" stroke-opacity="1.0" stroke-width="3.0" />
            <path d=" M 534.212, 483.848 534.263, 483.868 " fill="none" stroke="rgb(0, 0, 0)" stroke-linecap="butt" stroke-linejoin="round" stroke-opacity="1.0" stroke-width="3.0" />
            <path d=" M 537.954, 215.303 537.768, 215.058 534.046, 210.157 " fill="none" stroke="rgb(0, 0, 0)" stroke-linecap="butt" stroke-linejoin="round" stroke-opacity="1.0" stroke-width="3.0" />
            <path d=" M 543.585, 222.282 542.769, 221.318 " fill="none" stroke="rgb(0, 0, 0)" stroke-linecap="butt" stroke-linejoin="round" stroke-opacity="1.0" stroke-width="3.0" />
        </g>
    </g>
</svg>
