<?xml version='1.0' encoding='ascii'?>
<svg xmlns="http://www.w3.org/2000/svg" height="1080" version="1.1" width="1080">
    <g id="View Layer_LineSet" inkscape:groupmode="lineset" inkscape:label="View Layer_LineSet" xmlns:inkscape="http://www.inkscape.org/namespaces/inkscape">
        <g id="strokes" inkscape:groupmode="layer" inkscape:label="strokes" xmlns:inkscape="http://www.inkscape.org/namespaces/inkscape">
            <path d=" M 565.103, 501.070 565.054, 502.215 564.987, 503.337 564.901, 504.425 564.798, 505.468 564.699, 506.272 564.677, 506.455 564.540, 507.376 564.389, 508.223 564.296, 508.656 " fill="none" stroke="rgb(0, 0, 0)" stroke-linecap="butt" stroke-linejoin="round" stroke-opacity="1.0" stroke-width="3.0" />
            <path d=" M 352.989, 565.124 359.350, 566.166 " fill="none" stroke="rgb(0, 0, 0)" stroke-linecap="butt" stroke-linejoin="round" stroke-opacity="1.0" stroke-width="3.0" />
            <path d=" M 377.278, 566.598 387.266, 566.099 389.307, 565.997 " fill="none" stroke="rgb(0, 0, 0)" stroke-linecap="butt" stroke-linejoin="round" stroke-opacity="1.0" stroke-width="3.0" />
            <path d=" M 389.307, 565.997 385.248, 556.857 381.190, 547.718 380.131, 545.333 " fill="none" stroke="rgb(0, 0, 0)" stroke-linecap="butt" stroke-linejoin="round" stroke-opacity="1.0" stroke-width="3.0" />
            <path d=" M 465.290, 188.044 460.762, 189.209 456.182, 191.471 451.563, 194.861 446.922, 199.410 442.276, 205.143 441.189, 206.769 439.591, 209.161 437.642, 212.077 433.039, 220.226 428.672, 229.222 428.489, 229.598 424.597, 238.810 424.012, 240.195 420.534, 249.571 419.630, 252.006 416.516, 261.509 415.366, 265.017 412.575, 274.620 411.243, 279.205 408.742, 288.887 407.283, 294.535 405.045, 304.282 403.511, 310.963 401.513, 320.762 399.949, 328.437 398.173, 338.278 396.619, 346.896 395.051, 356.772 393.543, 366.266 392.170, 376.171 390.796, 386.076 390.742, 386.465 389.552, 396.394 388.363, 406.323 388.233, 407.405 387.220, 417.353 386.207, 427.302 386.035, 428.988 385.191, 438.952 384.347, 448.917 384.161, 451.109 383.482, 461.085 382.802, 471.062 382.626, 473.656 382.107, 483.643 381.588, 493.629 381.439, 496.516 381.078, 506.510 380.718, 516.503 380.607, 519.570 380.404, 529.568 380.200, 539.566 380.136, 542.696 380.131, 545.333 378.801, 555.244 377.472, 565.155 377.278, 566.598 " fill="none" stroke="rgb(0, 0, 0)" stroke-linecap="butt" stroke-linejoin="round" stroke-opacity="1.0" stroke-width="3.0" />
            <path d=" M 566.928, 520.990 567.131, 520.994 567.995, 521.009 574.844, 518.656 577.935, 517.866 577.977, 507.866 577.998, 503.060 577.922, 493.060 577.886, 488.291 577.691, 478.293 577.599, 473.580 577.283, 463.585 577.136, 458.946 576.697, 448.956 576.497, 444.412 575.932, 434.428 575.681, 429.996 574.987, 420.021 574.688, 415.722 573.860, 405.757 573.516, 401.612 572.550, 391.659 572.165, 387.690 571.056, 377.751 570.634, 373.977 570.151, 370.170 " fill="none" stroke="rgb(0, 0, 0)" stroke-linecap="butt" stroke-linejoin="round" stroke-opacity="1.0" stroke-width="3.0" />
            <path d=" M 567.083, 375.552 567.774, 380.936 568.896, 390.873 569.252, 394.032 570.229, 403.984 570.558, 407.338 571.395, 417.303 571.691, 420.831 572.393, 430.806 572.653, 434.488 573.224, 444.471 573.443, 448.286 573.888, 458.276 574.062, 462.203 574.383, 472.198 574.512, 476.220 574.710, 486.218 574.791, 490.314 574.870, 500.314 574.902, 504.466 574.898, 505.562 574.818, 506.287 574.731, 506.978 574.635, 507.633 574.532, 508.248 574.421, 508.820 574.305, 509.345 574.183, 509.821 574.055, 510.245 573.924, 510.615 573.789, 510.929 573.651, 511.185 573.511, 511.382 573.370, 511.518 573.228, 511.594 569.183, 512.863 569.006, 511.732 568.803, 510.757 568.577, 509.955 568.331, 509.340 568.071, 508.923 567.799, 508.712 567.268, 508.704 565.102, 508.669 564.691, 508.662 564.296, 508.656 563.752, 508.647 562.904, 508.633 559.331, 508.575 557.546, 508.547 557.419, 508.544 557.416, 508.544 557.130, 508.543 556.840, 508.751 556.554, 509.167 556.275, 509.784 556.010, 510.591 555.762, 511.577 555.556, 512.623 555.536, 512.723 555.336, 514.012 555.165, 515.421 555.026, 516.925 555.007, 517.213 554.950, 518.081 554.922, 518.500 554.854, 520.119 554.825, 521.752 555.458, 521.763 557.305, 521.796 557.412, 521.798 559.196, 521.830 562.767, 521.894 563.606, 521.909 564.554, 521.926 565.291, 521.939 566.920, 521.379 566.928, 520.990 566.931, 520.861 566.956, 520.353 566.996, 519.868 567.047, 519.419 567.111, 519.019 567.156, 518.808 567.183, 518.679 567.263, 518.407 567.348, 518.211 567.437, 518.097 567.525, 518.068 " fill="none" stroke="rgb(0, 0, 0)" stroke-linecap="butt" stroke-linejoin="round" stroke-opacity="1.0" stroke-width="3.0" />
            <path d=" M 464.478, 864.223 460.401, 863.509 459.775, 863.245 456.311, 861.785 452.221, 859.018 451.071, 857.937 448.147, 855.186 444.104, 850.266 440.108, 844.238 436.176, 837.088 432.326, 828.811 428.623, 819.522 428.576, 819.404 425.317, 809.950 424.945, 808.869 422.072, 799.291 421.452, 797.220 418.919, 787.546 418.115, 784.477 415.885, 774.728 414.955, 770.665 412.997, 760.859 411.990, 755.819 410.279, 745.967 409.239, 739.984 407.753, 730.095 406.719, 723.212 405.442, 713.294 404.447, 705.563 403.365, 695.621 402.439, 687.104 401.541, 677.144 400.708, 667.914 399.985, 657.940 399.269, 648.076 398.712, 638.091 398.156, 628.107 398.132, 627.680 397.736, 617.687 397.340, 607.695 397.306, 606.822 397.066, 596.825 396.826, 586.828 396.797, 585.605 396.710, 575.605 396.624, 565.605 396.611, 564.133 396.612, 564.005 " fill="none" stroke="rgb(0, 0, 0)" stroke-linecap="butt" stroke-linejoin="round" stroke-opacity="1.0" stroke-width="3.0" />
            <path d=" M 385.253, 262.643 384.611, 264.852 382.113, 274.535 380.987, 278.902 378.751, 288.648 377.502, 294.096 375.502, 303.894 374.176, 310.393 372.392, 320.233 371.030, 327.745 369.443, 337.618 368.082, 346.092 366.679, 355.993 365.351, 365.365 364.120, 375.289 362.889, 385.213 362.855, 385.485 361.787, 395.428 360.718, 405.371 360.611, 406.367 359.697, 416.326 358.784, 426.284 358.634, 427.917 357.869, 437.887 357.103, 447.858 356.937, 450.030 356.315, 460.010 355.694, 469.991 355.531, 472.599 355.050, 482.588 354.569, 492.576 354.428, 495.512 354.085, 505.506 353.742, 515.501 353.633, 518.651 353.427, 528.649 353.220, 538.647 353.153, 541.895 353.082, 551.895 353.012, 561.895 352.989, 565.124 353.102, 575.124 353.215, 585.123 353.248, 588.104 353.523, 598.100 353.798, 608.096 353.873, 610.802 354.313, 620.792 354.754, 630.783 354.856, 633.103 355.467, 643.085 356.079, 653.066 356.191, 654.896 356.980, 664.865 357.770, 674.834 357.868, 676.073 358.843, 686.025 359.819, 695.978 359.874, 696.537 361.046, 706.468 362.195, 716.196 363.578, 726.100 364.816, 734.967 366.424, 744.837 367.719, 752.776 369.572, 762.603 370.885, 769.560 373.007, 779.332 374.294, 785.263 374.429, 785.805 " fill="none" stroke="rgb(0, 0, 0)" stroke-linecap="butt" stroke-linejoin="round" stroke-opacity="1.0" stroke-width="3.0" />
            <path d=" M 523.084, 537.533 522.915, 545.489 522.595, 555.484 522.463, 559.636 522.035, 569.627 521.859, 573.749 521.323, 583.734 521.104, 587.807 520.458, 597.786 520.199, 601.791 519.441, 611.762 519.144, 615.682 518.272, 625.644 517.938, 629.459 517.677, 632.094 " fill="none" stroke="rgb(0, 0, 0)" stroke-linecap="butt" stroke-linejoin="round" stroke-opacity="1.0" stroke-width="3.0" />
            <path d=" M 499.848, 747.194 497.757, 756.115 495.283, 765.804 494.944, 767.129 492.263, 776.763 491.993, 777.732 489.086, 787.301 488.906, 787.895 485.751, 797.384 485.684, 797.585 482.332, 806.767 478.853, 815.409 475.250, 823.477 471.529, 830.934 467.694, 837.741 463.753, 843.864 459.710, 849.265 455.574, 853.903 451.353, 857.740 451.071, 857.937 " fill="none" stroke="rgb(0, 0, 0)" stroke-linecap="butt" stroke-linejoin="round" stroke-opacity="1.0" stroke-width="3.0" />
            <path d=" M 389.328, 560.761 389.307, 565.997 389.402, 575.996 389.498, 585.996 389.526, 588.919 389.785, 598.916 390.044, 608.912 390.113, 611.562 390.539, 621.553 390.965, 631.544 391.061, 633.811 391.659, 643.793 392.257, 653.775 392.364, 655.554 393.140, 665.524 393.915, 675.494 394.008, 676.686 394.969, 686.640 395.930, 696.594 395.980, 697.109 397.136, 707.042 398.263, 716.734 399.625, 726.640 400.840, 735.474 402.422, 745.348 403.690, 753.259 405.509, 763.092 406.792, 770.023 408.870, 779.805 410.125, 785.713 412.487, 795.430 413.666, 800.280 416.343, 809.915 417.392, 813.691 420.422, 823.220 421.280, 825.918 424.711, 835.311 425.307, 836.942 429.199, 846.154 429.451, 846.752 433.691, 855.348 438.006, 862.735 438.844, 863.923 439.126, 864.322 442.374, 868.922 446.779, 873.926 451.200, 877.771 455.623, 880.484 460.030, 882.092 464.407, 882.631 468.742, 882.139 473.022, 880.652 477.235, 878.208 481.371, 874.851 482.715, 873.448 485.422, 870.623 489.380, 865.562 493.237, 859.712 496.987, 853.115 500.625, 845.813 504.146, 837.842 507.546, 829.244 509.926, 822.569 510.821, 820.059 513.897, 810.543 513.969, 810.321 516.792, 800.728 516.986, 800.067 517.581, 797.857 " fill="none" stroke="rgb(0, 0, 0)" stroke-linecap="butt" stroke-linejoin="round" stroke-opacity="1.0" stroke-width="3.0" />
            <path d=" M 514.131, 789.636 511.702, 797.615 508.642, 806.777 505.467, 815.399 502.181, 823.448 498.788, 830.888 495.294, 837.679 491.704, 843.788 488.023, 849.176 484.259, 853.803 480.419, 857.632 476.511, 860.626 472.545, 862.748 468.530, 863.958 464.478, 864.223 " fill="none" stroke="rgb(0, 0, 0)" stroke-linecap="butt" stroke-linejoin="round" stroke-opacity="1.0" stroke-width="3.0" />
            <path d=" M 554.950, 518.081 548.962, 517.907 548.118, 517.883 546.393, 517.833 546.281, 527.832 546.235, 531.958 546.025, 541.956 545.939, 546.088 545.631, 556.083 545.505, 560.202 545.099, 570.194 544.934, 574.282 544.429, 584.269 544.225, 588.308 543.620, 598.289 543.380, 602.260 542.674, 612.235 542.399, 616.120 541.588, 626.087 541.281, 629.866 540.364, 639.824 540.028, 643.478 539.002, 653.425 538.640, 656.935 537.501, 666.870 537.117, 670.215 535.860, 680.136 535.460, 683.296 534.080, 693.200 533.669, 696.154 532.161, 706.039 531.745, 708.766 531.640, 709.397 " fill="none" stroke="rgb(0, 0, 0)" stroke-linecap="butt" stroke-linejoin="round" stroke-opacity="1.0" stroke-width="3.0" />
            <path d=" M 534.153, 717.826 534.346, 716.616 535.791, 706.721 536.279, 703.384 537.599, 693.471 538.075, 689.905 539.276, 679.978 539.733, 676.204 540.821, 666.264 541.254, 662.304 542.233, 652.352 542.638, 648.228 543.511, 638.266 543.886, 633.997 544.657, 624.027 544.997, 619.633 545.668, 609.656 545.971, 605.157 546.546, 595.173 546.810, 590.588 547.290, 580.600 547.513, 575.947 547.899, 565.954 548.081, 561.252 548.374, 551.257 548.513, 546.524 548.714, 536.526 548.810, 531.780 548.920, 521.781 548.962, 517.907 " fill="none" stroke="rgb(0, 0, 0)" stroke-linecap="butt" stroke-linejoin="round" stroke-opacity="1.0" stroke-width="3.0" />
            <path d=" M 377.278, 566.598 377.378, 576.598 377.478, 586.597 377.517, 590.459 377.777, 600.456 378.038, 610.452 378.131, 614.024 378.556, 624.015 378.981, 634.006 379.115, 637.170 379.710, 647.152 380.304, 657.134 380.461, 659.779 381.231, 669.750 382.001, 679.720 382.157, 681.740 383.110, 691.695 384.064, 701.649 384.188, 702.950 385.335, 712.884 386.483, 722.818 386.540, 723.314 387.893, 733.222 389.194, 742.743 390.769, 752.618 392.132, 761.161 393.946, 770.996 395.331, 778.504 397.407, 788.286 398.771, 794.712 401.136, 804.429 402.429, 809.740 405.117, 819.372 406.283, 823.550 409.334, 833.074 410.309, 836.120 413.773, 845.501 414.485, 847.428 418.424, 856.620 418.788, 857.467 423.195, 866.238 427.686, 873.747 432.239, 880.008 436.836, 885.040 441.457, 888.870 446.085, 891.527 450.704, 893.043 455.298, 893.457 459.853, 892.807 464.356, 891.135 468.796, 888.480 473.161, 884.890 477.442, 880.408 " fill="none" stroke="rgb(0, 0, 0)" stroke-linecap="butt" stroke-linejoin="round" stroke-opacity="1.0" stroke-width="3.0" />
            <path d=" M 477.442, 880.408 483.762, 872.658 485.422, 870.623 " fill="none" stroke="rgb(0, 0, 0)" stroke-linecap="butt" stroke-linejoin="round" stroke-opacity="1.0" stroke-width="3.0" />
            <path d=" M 540.144, 542.977 530.145, 543.126 528.755, 543.146 525.762, 540.183 523.084, 537.533 519.146, 533.634 518.866, 533.357 518.833, 533.325 " fill="none" stroke="rgb(0, 0, 0)" stroke-linecap="butt" stroke-linejoin="round" stroke-opacity="1.0" stroke-width="3.0" />
            <path d=" M 523.845, 499.657 529.029, 491.619 539.005, 492.322 540.457, 492.424 540.553, 502.424 540.648, 512.423 540.698, 517.668 540.543, 527.667 540.479, 531.800 540.180, 541.796 540.144, 542.977 533.182, 535.799 531.311, 533.871 531.042, 533.593 530.772, 533.314 530.501, 533.036 530.232, 532.757 529.918, 532.309 529.621, 531.636 529.347, 530.750 529.131, 529.794 529.102, 529.668 528.894, 528.410 528.724, 527.001 528.596, 525.467 528.513, 523.837 528.508, 523.612 528.476, 522.143 528.485, 520.418 528.541, 518.696 528.620, 517.396 528.643, 517.009 528.789, 515.391 528.975, 513.873 529.198, 512.484 529.261, 512.181 529.454, 511.250 529.738, 510.196 530.044, 509.340 530.364, 508.700 530.638, 508.256 530.913, 507.812 531.187, 507.370 531.461, 506.928 531.600, 506.706 536.870, 498.208 540.457, 492.424 " fill="none" stroke="rgb(0, 0, 0)" stroke-linecap="butt" stroke-linejoin="round" stroke-opacity="1.0" stroke-width="3.0" />
            <path d=" M 530.849, 523.655 530.725, 523.559 530.610, 523.331 530.509, 522.980 530.426, 522.522 530.365, 521.978 530.329, 521.371 530.319, 520.728 530.336, 520.077 530.379, 519.446 530.446, 518.864 530.535, 518.356 530.640, 517.943 530.758, 517.645 530.883, 517.474 531.010, 517.438 " fill="none" stroke="rgb(0, 0, 0)" stroke-linecap="butt" stroke-linejoin="round" stroke-opacity="1.0" stroke-width="3.0" />
            <path d=" M 531.010, 517.438 531.133, 517.537 531.248, 517.767 531.349, 518.118 531.431, 518.575 531.492, 519.117 531.527, 519.722 531.537, 520.363 531.520, 521.012 531.477, 521.640 531.411, 522.221 531.323, 522.728 531.218, 523.141 531.101, 523.441 530.976, 523.615 530.849, 523.655 " fill="none" stroke="rgb(0, 0, 0)" stroke-linecap="butt" stroke-linejoin="round" stroke-opacity="1.0" stroke-width="3.0" />
            <path d=" M 360.700, 495.205 360.554, 498.420 360.239, 508.415 359.923, 518.410 359.842, 520.991 359.664, 530.990 359.486, 540.988 359.440, 543.603 359.410, 551.202 359.370, 561.202 359.350, 566.166 359.449, 576.165 359.548, 586.165 359.572, 588.588 359.812, 598.585 360.051, 608.582 360.104, 610.782 360.259, 614.833 " fill="none" stroke="rgb(0, 0, 0)" stroke-linecap="butt" stroke-linejoin="round" stroke-opacity="1.0" stroke-width="3.0" />
            <path d=" M 540.375, 735.634 541.890, 725.749 542.032, 724.818 543.441, 714.918 543.805, 712.358 545.112, 702.443 545.470, 699.728 546.678, 689.802 547.026, 686.944 548.139, 677.007 548.474, 674.020 549.495, 664.072 549.813, 660.969 550.745, 651.013 551.045, 647.805 551.888, 637.841 552.168, 634.540 552.926, 624.569 553.183, 621.187 553.856, 611.210 554.090, 607.758 554.680, 597.776 554.888, 594.265 555.397, 584.278 555.579, 580.719 556.007, 570.728 556.161, 567.132 556.509, 557.138 556.635, 553.515 556.902, 543.518 557.000, 539.879 557.188, 529.881 557.257, 526.235 557.305, 521.796 " fill="none" stroke="rgb(0, 0, 0)" stroke-linecap="butt" stroke-linejoin="round" stroke-opacity="1.0" stroke-width="3.0" />
            <path d=" M 458.154, 923.747 460.573, 923.917 464.704, 923.433 468.793, 922.144 472.833, 920.079 476.816, 917.269 480.737, 913.745 484.588, 909.538 488.365, 904.678 492.063, 899.196 495.678, 893.122 499.205, 886.486 502.642, 879.315 505.986, 871.639 509.234, 863.485 512.383, 854.878 515.432, 845.845 518.379, 836.411 521.163, 826.806 521.223, 826.599 523.825, 816.943 523.962, 816.433 524.719, 813.416 " fill="none" stroke="rgb(0, 0, 0)" stroke-linecap="butt" stroke-linejoin="round" stroke-opacity="1.0" stroke-width="3.0" />
            <path d=" M 522.058, 202.877 521.542, 201.298 518.587, 193.072 515.519, 185.326 512.337, 178.088 509.043, 171.386 505.641, 165.250 502.133, 159.710 498.522, 154.795 494.812, 150.537 491.007, 146.968 487.112, 144.117 483.133, 142.017 479.075, 140.699 474.945, 140.192 473.099, 140.340 470.752, 140.527 466.502, 141.733 462.205, 143.836 457.871, 146.863 453.510, 150.837 449.134, 155.780 444.755, 161.709 440.385, 168.641 436.038, 176.588 431.728, 185.556 430.274, 188.971 427.471, 195.550 423.917, 204.897 423.281, 206.568 420.053, 216.033 419.930, 216.392 419.175, 218.604 416.239, 228.163 415.169, 231.645 412.497, 241.281 411.279, 245.674 408.849, 255.374 407.523, 260.667 405.315, 270.420 403.917, 276.594 401.913, 286.391 400.477, 293.418 398.665, 303.253 397.220, 311.098 395.588, 320.964 394.162, 329.583 392.699, 339.476 391.318, 348.819 390.017, 358.734 388.703, 368.745 387.555, 378.679 386.408, 388.613 386.330, 389.293 385.331, 399.243 384.332, 409.193 384.212, 410.392 383.356, 420.355 382.501, 430.318 382.360, 431.964 381.644, 441.938 380.928, 451.912 380.784, 453.928 380.205, 463.911 379.626, 473.895 379.492, 476.201 379.048, 486.191 378.603, 496.181 378.491, 498.694 378.180, 508.689 377.869, 518.684 377.787, 521.318 377.608, 531.316 377.430, 541.315 377.382, 543.983 377.336, 553.983 377.290, 563.983 377.278, 566.598 377.366, 576.598 377.453, 586.597 377.475, 589.073 377.697, 599.070 377.920, 609.068 377.970, 611.318 378.330, 621.311 378.690, 631.305 378.760, 633.247 379.261, 643.234 379.761, 653.222 379.839, 654.775 380.485, 664.754 381.130, 674.734 381.201, 675.823 381.996, 685.792 382.791, 695.760 382.836, 696.315 383.787, 706.269 384.734, 716.178 385.848, 726.116 386.884, 735.348 388.171, 745.265 389.274, 753.765 390.744, 763.656 391.890, 771.373 393.555, 781.233 394.718, 788.125 396.593, 797.948 397.744, 803.979 399.846, 813.756 400.952, 818.901 403.301, 828.621 404.326, 832.861 406.947, 842.511 407.850, 845.836 410.773, 855.399 411.510, 857.809 414.769, 867.263 415.288, 868.769 418.925, 878.084 419.170, 878.710 423.140, 887.632 427.183, 895.538 431.286, 902.436 435.433, 908.339 439.613, 913.262 443.812, 917.224 448.018, 920.245 452.221, 922.351 456.409, 923.566 458.326, 923.727 460.573, 923.917 " fill="none" stroke="rgb(0, 0, 0)" stroke-linecap="butt" stroke-linejoin="round" stroke-opacity="1.0" stroke-width="3.0" />
            <path d=" M 472.512, 140.268 468.292, 140.604 464.015, 141.810 459.691, 143.914 455.329, 146.941 450.941, 150.914 446.538, 155.856 442.132, 161.785 437.735, 168.715 433.361, 176.659 429.026, 185.625 427.468, 189.259 424.743, 195.617 421.169, 204.956 420.528, 206.631 417.281, 216.089 416.398, 218.663 413.445, 228.217 413.154, 229.156 412.368, 231.700 409.681, 241.332 408.456, 245.724 406.011, 255.421 404.678, 260.712 402.456, 270.462 401.051, 276.633 399.036, 286.428 397.591, 293.452 395.769, 303.284 394.316, 311.125 392.675, 320.989 391.242, 329.604 389.771, 339.495 388.383, 348.832 387.074, 358.746 385.754, 368.750 384.600, 378.683 383.447, 388.617 383.369, 389.290 382.365, 399.240 381.360, 409.189 381.240, 410.381 380.381, 420.344 379.521, 430.307 379.380, 431.944 378.660, 441.918 377.941, 451.892 377.797, 453.900 377.215, 463.883 376.634, 473.866 376.500, 476.164 376.054, 486.154 375.608, 496.144 375.496, 498.648 375.184, 508.643 374.872, 518.638 374.790, 521.264 374.612, 531.262 374.433, 541.260 374.386, 543.920 374.341, 553.920 374.296, 563.919 374.284, 566.526 374.374, 576.526 374.463, 586.525 374.485, 588.992 374.711, 598.989 374.936, 608.987 374.986, 611.228 375.350, 621.222 375.714, 631.215 375.784, 633.149 376.290, 643.136 376.795, 653.123 376.873, 654.670 377.524, 664.648 378.175, 674.627 378.246, 675.710 379.048, 685.678 379.850, 695.645 379.894, 696.194 380.853, 706.148 381.807, 716.051 382.930, 725.987 383.973, 735.214 385.270, 745.130 386.380, 753.624 387.861, 763.514 389.015, 771.227 390.692, 781.085 391.864, 787.974 393.751, 797.794 394.910, 803.823 397.026, 813.597 398.140, 818.741 400.505, 828.457 401.537, 832.697 404.176, 842.342 405.086, 845.668 408.027, 855.226 408.770, 857.639 412.049, 867.086 412.574, 868.597 416.233, 877.903 416.481, 878.536 420.478, 887.457 424.548, 895.362 428.677, 902.260 432.852, 908.162 437.059, 913.086 441.285, 917.048 445.519, 920.071 449.748, 922.178 453.964, 923.394 458.154, 923.747 " fill="none" stroke="rgb(0, 0, 0)" stroke-linecap="butt" stroke-linejoin="round" stroke-opacity="1.0" stroke-width="3.0" />
            <path d=" M 474.945, 140.192 472.512, 140.268 " fill="none" stroke="rgb(0, 0, 0)" stroke-linecap="butt" stroke-linejoin="round" stroke-opacity="1.0" stroke-width="3.0" />
            <path d=" M 546.417, 750.061 546.727, 748.129 548.204, 738.239 548.684, 735.029 550.059, 725.124 550.527, 721.747 551.803, 711.829 552.258, 708.298 553.438, 698.368 553.875, 694.697 554.963, 684.756 555.379, 680.957 556.378, 671.007 556.771, 667.093 557.682, 657.135 558.050, 653.118 558.877, 643.152 559.217, 639.043 559.960, 629.071 560.272, 624.882 560.934, 614.904 561.216, 610.646 561.796, 600.663 562.047, 596.347 562.548, 586.360 562.767, 581.997 563.189, 572.005 563.375, 567.605 563.719, 557.611 563.871, 553.183 564.137, 543.187 564.255, 538.742 564.444, 528.744 564.528, 524.293 564.554, 521.926 " fill="none" stroke="rgb(0, 0, 0)" stroke-linecap="butt" stroke-linejoin="round" stroke-opacity="1.0" stroke-width="3.0" />
            <path d=" M 455.799, 952.854 458.212, 953.032 462.687, 953.047 467.117, 952.166 471.495, 950.422 475.813, 947.853 480.063, 944.492 484.238, 940.376 488.334, 935.540 492.344, 930.019 496.264, 923.847 500.090, 917.058 503.818, 909.684 507.446, 901.757 510.970, 893.309 514.389, 884.369 517.699, 874.965 520.794, 865.456 520.901, 865.127 523.789, 855.553 523.992, 854.879 526.691, 845.250 526.971, 844.249 529.496, 834.573 529.839, 833.259 531.265, 827.394 531.504, 826.411 " fill="none" stroke="rgb(0, 0, 0)" stroke-linecap="butt" stroke-linejoin="round" stroke-opacity="1.0" stroke-width="3.0" />
            <path d=" M 540.062, 223.468 538.682, 217.248 536.340, 207.526 536.093, 206.501 533.558, 196.827 533.376, 196.135 530.631, 186.519 530.533, 186.177 527.563, 176.654 524.467, 167.593 521.247, 159.025 517.902, 150.979 514.435, 143.487 510.848, 136.582 507.143, 130.296 503.322, 124.664 499.391, 119.721 495.351, 115.502 491.209, 112.044 486.969, 109.381 482.637, 107.551 478.221, 106.590 473.728, 106.531 473.157, 106.641 469.165, 107.411 464.544, 109.262 459.874, 112.116 455.166, 116.003 450.432, 120.950 445.685, 126.981 440.940, 134.117 436.210, 142.377 431.738, 151.321 431.513, 151.771 427.477, 160.920 426.864, 162.308 423.525, 170.821 422.281, 173.991 418.970, 183.427 417.781, 186.817 417.652, 187.226 414.647, 196.764 414.306, 197.847 413.384, 200.774 410.654, 210.394 409.107, 215.847 406.628, 225.535 404.971, 232.013 402.721, 241.757 400.993, 249.240 398.956, 259.030 397.195, 267.490 395.354, 277.319 395.036, 279.015 393.594, 286.717 391.937, 296.578 390.280, 306.440 390.208, 306.867 388.725, 316.756 387.242, 326.645 387.057, 327.878 385.738, 337.791 384.420, 347.704 384.156, 349.683 382.995, 359.616 381.834, 369.548 381.523, 372.206 380.512, 382.155 379.502, 392.104 379.171, 395.365 378.306, 405.327 377.442, 415.290 377.113, 419.071 376.391, 429.045 375.668, 439.019 375.363, 443.233 374.779, 453.216 374.194, 463.199 373.928, 467.752 373.480, 477.742 373.033, 487.732 372.818, 492.529 372.505, 502.524 372.193, 512.519 372.038, 517.459 371.860, 527.457 371.681, 537.455 371.593, 542.437 371.549, 552.437 371.505, 562.437 371.483, 567.360 371.574, 577.359 371.665, 587.359 371.709, 592.121 371.937, 602.119 372.165, 612.116 372.268, 616.619 372.635, 626.612 373.003, 636.605 373.155, 640.752 373.665, 650.739 374.175, 660.726 374.364, 664.425 375.021, 674.403 375.678, 684.382 375.887, 687.545 376.696, 697.512 377.505, 707.479 377.712, 710.024 378.680, 719.977 379.647, 729.931 379.828, 731.784 380.962, 741.719 382.097, 751.654 382.221, 752.747 383.532, 762.661 384.842, 772.575 384.878, 772.849 386.375, 782.736 387.782, 792.027 389.479, 801.882 390.916, 810.230 392.828, 820.046 394.264, 827.413 396.410, 837.180 397.807, 843.539 399.312, 849.621 401.528, 858.576 402.009, 860.303 404.693, 869.936 405.408, 872.503 408.405, 882.044 409.429, 885.305 410.146, 887.320 413.493, 896.743 413.574, 896.971 414.775, 899.945 417.824, 907.499 422.018, 916.577 422.163, 916.892 426.574, 925.158 431.040, 932.310 435.547, 938.366 440.081, 943.345 444.626, 947.274 449.171, 950.178 453.704, 952.087 457.390, 952.860 458.212, 953.032 " fill="none" stroke="rgb(0, 0, 0)" stroke-linecap="butt" stroke-linejoin="round" stroke-opacity="1.0" stroke-width="3.0" />
            <path d=" M 362.092, 464.634 361.915, 467.618 361.461, 477.607 361.007, 487.597 360.790, 492.355 360.700, 495.205 360.385, 505.200 360.069, 515.195 360.005, 517.245 359.827, 527.244 359.649, 537.242 359.561, 542.185 359.526, 550.949 359.487, 560.949 359.469, 565.306 359.462, 567.068 359.561, 577.068 359.660, 587.067 359.707, 591.791 359.946, 601.788 359.953, 602.060 360.192, 612.057 360.259, 614.833 360.293, 616.251 360.675, 626.244 361.057, 636.237 361.215, 640.348 361.290, 641.769 " fill="none" stroke="rgb(0, 0, 0)" stroke-linecap="butt" stroke-linejoin="round" stroke-opacity="1.0" stroke-width="3.0" />
            <path d=" M 471.299, 106.618 466.708, 107.499 462.058, 109.350 457.358, 112.204 452.620, 116.091 447.857, 121.037 443.081, 127.067 438.307, 134.202 433.549, 142.460 429.054, 151.393 428.824, 151.852 424.766, 160.991 424.147, 162.386 420.475, 171.688 419.536, 174.066 416.208, 183.495 415.010, 186.887 414.692, 187.892 411.670, 197.425 410.587, 200.840 409.844, 203.442 407.099, 213.058 406.286, 215.909 406.083, 216.695 403.590, 226.379 402.125, 232.069 399.863, 241.809 398.126, 249.290 396.076, 259.078 394.306, 267.533 392.454, 277.360 390.685, 286.753 389.019, 296.613 387.352, 306.473 387.281, 306.895 385.996, 315.413 384.505, 325.301 384.113, 327.899 382.787, 337.811 381.461, 347.723 381.197, 349.696 380.030, 359.627 378.862, 369.559 378.550, 372.210 377.535, 382.158 376.519, 392.106 376.187, 395.359 375.318, 405.322 374.449, 415.284 374.120, 419.057 373.394, 429.030 372.667, 439.004 372.361, 443.209 371.775, 453.192 371.188, 463.175 370.921, 467.719 370.472, 477.709 370.023, 487.698 369.807, 492.485 369.494, 502.480 369.181, 512.475 369.026, 517.405 368.848, 527.404 368.670, 537.402 368.581, 542.374 368.538, 552.374 368.495, 562.374 368.474, 567.287 368.567, 577.286 368.661, 587.286 368.705, 592.039 368.936, 602.036 369.167, 612.033 369.271, 616.527 369.642, 626.520 370.013, 636.513 370.167, 640.651 370.681, 650.638 371.196, 660.625 371.386, 664.315 372.049, 674.293 372.712, 684.271 372.921, 687.426 373.737, 697.393 374.553, 707.359 374.761, 709.898 375.736, 719.850 376.712, 729.802 376.893, 731.649 378.036, 741.584 379.179, 751.518 379.304, 752.606 380.624, 762.518 381.944, 772.431 381.980, 772.701 383.488, 782.586 384.904, 791.873 386.613, 801.726 388.060, 810.071 389.986, 819.884 391.431, 827.249 392.249, 830.945 394.410, 840.709 394.999, 843.369 397.102, 851.808 398.745, 858.403 400.218, 863.656 402.651, 872.327 405.667, 881.861 406.699, 885.126 407.274, 886.731 410.642, 896.147 410.872, 896.789 414.637, 906.053 415.150, 907.316 419.367, 916.383 419.517, 916.708 423.957, 924.973 428.452, 932.125 432.989, 938.181 437.551, 943.161 442.126, 947.090 446.700, 949.996 451.262, 951.906 455.799, 952.854 " fill="none" stroke="rgb(0, 0, 0)" stroke-linecap="butt" stroke-linejoin="round" stroke-opacity="1.0" stroke-width="3.0" />
            <path d=" M 473.728, 106.531 471.299, 106.618 " fill="none" stroke="rgb(0, 0, 0)" stroke-linecap="butt" stroke-linejoin="round" stroke-opacity="1.0" stroke-width="3.0" />
            <path d=" M 545.527, 228.766 543.557, 218.963 543.221, 217.295 541.091, 207.525 540.694, 205.705 538.390, 195.974 538.034, 194.472 535.542, 184.788 535.242, 183.622 532.545, 173.992 532.317, 173.180 529.395, 163.617 529.260, 163.177 526.071, 153.639 522.751, 144.600 519.300, 136.089 515.719, 128.141 512.011, 120.790 508.178, 114.070 504.222, 108.018 500.147, 102.672 495.956, 98.068 491.655, 94.246 487.247, 91.245 482.740, 89.104 478.140, 87.861 473.454, 87.556 468.624, 87.741 463.802, 88.413 458.912, 90.097 453.966, 92.827 448.975, 96.638 443.951, 101.560 438.909, 107.621 433.864, 114.846 428.830, 123.255 424.211, 132.124 423.826, 132.864 419.661, 141.955 418.869, 143.683 415.103, 152.947 413.977, 155.718 410.567, 165.119 409.171, 168.968 406.078, 178.477 404.469, 183.423 401.662, 193.021 399.893, 199.070 397.346, 208.740 395.464, 215.883 393.154, 225.613 391.203, 233.834 389.112, 243.613 387.130, 252.881 385.253, 262.643 383.366, 272.463 383.267, 272.977 381.569, 282.832 379.871, 292.687 379.634, 294.066 378.115, 303.950 376.596, 313.834 376.251, 316.083 374.902, 325.992 373.553, 335.900 373.137, 338.955 371.949, 348.885 370.762, 358.814 370.309, 362.602 369.276, 372.549 368.244, 382.496 367.783, 386.937 366.901, 396.898 366.019, 406.859 365.576, 411.864 364.839, 421.837 364.506, 426.348 363.769, 436.321 363.698, 437.283 363.104, 447.266 362.510, 457.248 362.162, 463.091 362.092, 464.634 361.638, 474.623 361.584, 475.809 361.130, 485.799 360.977, 489.177 360.661, 499.172 360.346, 509.167 360.148, 515.430 359.970, 525.428 359.793, 535.426 359.680, 541.736 359.645, 550.692 359.605, 560.692 359.590, 564.436 359.576, 567.983 359.675, 577.982 359.774, 587.982 359.834, 594.056 360.073, 604.053 360.312, 614.050 360.333, 614.906 360.451, 619.844 360.834, 629.837 360.943, 632.704 361.290, 641.769 361.388, 644.332 361.423, 645.240 361.952, 655.226 362.481, 665.212 362.741, 670.138 363.421, 680.115 364.101, 690.092 364.397, 694.440 365.233, 704.405 366.069, 714.370 366.378, 718.051 367.378, 728.001 368.377, 737.951 368.672, 740.887 369.843, 750.818 371.013, 760.749 371.263, 762.866 372.614, 772.774 373.966, 782.682 374.134, 783.918 374.429, 785.805 375.973, 795.685 377.270, 803.979 379.020, 813.824 380.650, 822.994 382.622, 832.797 384.256, 840.916 386.470, 850.667 388.068, 857.706 390.547, 867.394 392.067, 873.336 394.838, 882.944 396.233, 887.781 399.328, 897.290 400.545, 901.029 404.004, 910.411 404.984, 913.070 408.853, 922.291 409.531, 923.904 413.867, 932.915 414.167, 933.538 418.874, 941.980 423.636, 949.248 428.435, 955.362 433.256, 960.347 438.085, 964.230 442.908, 967.041 447.712, 968.814 452.486, 969.584 457.284, 969.949 461.957, 969.747 466.580, 968.615 471.143, 966.590 475.638, 963.711 480.059, 960.017 484.398, 955.546 488.650, 950.336 492.810, 944.423 496.872, 937.845 500.834, 930.637 504.691, 922.835 508.441, 914.470 512.081, 905.576 515.609, 896.185 518.882, 886.736 519.024, 886.325 522.076, 876.802 522.324, 876.027 525.174, 866.442 525.508, 865.317 528.172, 855.679 528.575, 854.222 531.069, 844.538 531.524, 842.768 533.860, 833.044 534.272, 831.326 " fill="none" stroke="rgb(0, 0, 0)" stroke-linecap="butt" stroke-linejoin="round" stroke-opacity="1.0" stroke-width="3.0" />
            <path d=" M 548.742, 755.170 548.865, 754.395 550.329, 744.502 550.871, 740.837 552.233, 730.931 552.760, 727.100 554.025, 717.180 554.533, 713.197 555.703, 703.265 556.189, 699.143 557.269, 689.202 557.730, 684.954 558.721, 675.003 559.155, 670.641 560.059, 660.682 560.465, 656.219 561.285, 646.252 561.660, 641.699 562.397, 631.726 562.740, 627.094 563.397, 617.116 563.706, 612.415 564.283, 602.432 564.558, 597.674 565.056, 587.687 565.295, 582.882 565.715, 572.891 565.919, 568.049 566.261, 558.055 566.428, 553.186 566.694, 543.190 566.823, 538.304 567.012, 528.306 567.104, 523.414 567.131, 520.994 " fill="none" stroke="rgb(0, 0, 0)" stroke-linecap="butt" stroke-linejoin="round" stroke-opacity="1.0" stroke-width="3.0" />
            <path d=" M 473.454, 87.556 468.692, 88.227 463.863, 89.909 458.978, 92.639 454.047, 96.450 449.085, 101.373 444.104, 107.436 439.118, 114.663 434.145, 123.076 429.571, 131.968 429.200, 132.689 425.077, 141.800 424.301, 143.514 421.184, 151.277 419.466, 155.556 416.093, 164.970 414.715, 168.814 411.656, 178.334 410.068, 183.278 407.292, 192.885 405.544, 198.934 405.072, 200.745 402.553, 210.423 401.164, 215.759 399.940, 220.979 397.656, 230.714 396.950, 233.722 394.883, 243.506 394.328, 246.131 392.922, 252.783 391.056, 262.607 389.189, 272.431 389.101, 272.893 387.422, 282.751 385.743, 292.610 385.507, 293.998 384.005, 303.885 383.546, 306.904 382.159, 316.032 380.825, 325.942 379.490, 335.853 379.077, 338.922 377.902, 348.852 376.727, 358.783 376.277, 362.587 375.256, 372.535 374.314, 381.703 373.776, 386.940 372.903, 396.902 372.029, 406.864 371.589, 411.887 370.859, 421.860 370.130, 431.834 369.728, 437.327 369.139, 447.309 368.550, 457.292 368.204, 463.155 367.753, 473.144 367.302, 483.134 367.026, 489.261 366.712, 499.256 366.398, 509.252 366.200, 515.535 366.022, 525.534 365.844, 535.532 365.731, 541.863 365.689, 551.863 365.647, 561.863 365.621, 568.130 365.716, 578.130 365.811, 588.129 365.869, 594.224 366.103, 604.221 366.336, 614.218 366.472, 620.032 366.847, 630.025 367.222, 640.018 367.425, 645.447 367.945, 655.433 368.464, 665.420 368.722, 670.364 369.390, 680.341 370.058, 690.319 370.351, 694.683 371.174, 704.649 371.997, 714.616 372.302, 718.312 373.286, 728.264 374.270, 738.215 374.561, 741.163 375.715, 751.097 376.868, 761.030 377.115, 763.158 378.447, 773.069 379.779, 782.980 379.946, 784.224 380.175, 785.711 380.706, 789.157 382.228, 799.040 383.038, 804.297 384.764, 814.147 386.372, 823.324 387.924, 831.145 389.107, 837.110 389.929, 841.256 392.114, 851.015 393.691, 858.056 396.138, 867.752 397.423, 872.848 397.637, 873.693 400.373, 883.312 401.747, 888.146 404.805, 897.667 406.003, 901.398 409.421, 910.796 410.384, 913.444 410.932, 914.766 414.758, 924.006 414.872, 924.282 419.163, 933.315 419.449, 933.917 424.096, 942.361 428.797, 949.629 433.535, 955.743 438.296, 960.726 443.064, 964.606 447.826, 967.415 452.570, 969.184 457.284, 969.949 " fill="none" stroke="rgb(0, 0, 0)" stroke-linecap="butt" stroke-linejoin="round" stroke-opacity="1.0" stroke-width="3.0" />
            <path d=" M 565.291, 521.939 565.309, 520.961 565.321, 520.303 565.387, 518.683 565.429, 518.031 565.489, 517.106 565.624, 515.599 565.789, 514.188 565.983, 512.898 566.000, 512.810 566.202, 511.749 566.441, 510.763 566.697, 509.954 566.966, 509.336 567.242, 508.920 567.266, 508.902 567.522, 508.711 567.799, 508.712 " fill="none" stroke="rgb(0, 0, 0)" stroke-linecap="butt" stroke-linejoin="round" stroke-opacity="1.0" stroke-width="3.0" />
            <path d=" M 567.995, 521.009 567.991, 520.499 567.973, 520.008 567.941, 519.548 567.896, 519.134 567.839, 518.775 567.771, 518.482 567.695, 518.263 567.612, 518.124 567.525, 518.068 " fill="none" stroke="rgb(0, 0, 0)" stroke-linecap="butt" stroke-linejoin="round" stroke-opacity="1.0" stroke-width="3.0" />
            <path d=" M 531.543, 477.948 531.512, 483.612 531.680, 483.614 537.068, 483.684 537.275, 483.647 537.162, 478.007 531.795, 477.908 531.560, 477.946 531.543, 477.948 " fill="none" stroke="rgb(0, 0, 0)" stroke-linecap="butt" stroke-linejoin="round" stroke-opacity="1.0" stroke-width="3.0" />
            <path d=" M 537.101, 478.016 531.543, 477.948 " fill="none" stroke="rgb(0, 0, 0)" stroke-linecap="butt" stroke-linejoin="round" stroke-opacity="1.0" stroke-width="3.0" />
            <path d=" M 537.068, 483.684 537.101, 478.016 537.162, 478.007 " fill="none" stroke="rgb(0, 0, 0)" stroke-linecap="butt" stroke-linejoin="round" stroke-opacity="1.0" stroke-width="3.0" />
            <path d=" M 533.709, 479.855 533.669, 479.877 533.500, 480.017 533.362, 480.187 533.259, 480.381 533.194, 480.591 533.172, 480.809 533.195, 481.041 533.261, 481.256 533.367, 481.451 533.507, 481.620 533.677, 481.759 533.871, 481.862 533.879, 481.865 533.972, 481.893 534.003, 481.903 534.063, 481.921 534.084, 481.928 534.096, 481.929 534.108, 481.930 534.128, 481.932 534.299, 481.949 " fill="none" stroke="rgb(0, 0, 0)" stroke-linecap="butt" stroke-linejoin="round" stroke-opacity="1.0" stroke-width="3.0" />
            <path d=" M 534.612, 481.907 534.761, 481.852 534.900, 481.776 535.028, 481.681 535.141, 481.568 535.237, 481.440 535.313, 481.299 535.370, 481.148 535.404, 480.991 535.417, 480.830 535.406, 480.668 535.373, 480.510 535.319, 480.358 535.244, 480.215 535.149, 480.084 535.038, 479.968 534.911, 479.870 534.773, 479.791 534.624, 479.732 534.469, 479.696 534.311, 479.682 534.153, 479.692 " fill="none" stroke="rgb(0, 0, 0)" stroke-linecap="butt" stroke-linejoin="round" stroke-opacity="1.0" stroke-width="3.0" />
            <path d=" M 534.140, 481.935 534.299, 481.949 534.457, 481.939 " fill="none" stroke="rgb(0, 0, 0)" stroke-linecap="butt" stroke-linejoin="round" stroke-opacity="1.0" stroke-width="3.0" />
            <path d=" M 534.457, 481.939 534.500, 481.932 534.612, 481.907 " fill="none" stroke="rgb(0, 0, 0)" stroke-linecap="butt" stroke-linejoin="round" stroke-opacity="1.0" stroke-width="3.0" />
            <path d=" M 534.153, 479.692 534.080, 479.705 533.998, 479.724 533.864, 479.772 533.849, 479.779 " fill="none" stroke="rgb(0, 0, 0)" stroke-linecap="butt" stroke-linejoin="round" stroke-opacity="1.0" stroke-width="3.0" />
            <path d=" M 533.849, 479.779 533.709, 479.855 " fill="none" stroke="rgb(0, 0, 0)" stroke-linecap="butt" stroke-linejoin="round" stroke-opacity="1.0" stroke-width="3.0" />
            <path d=" M 533.986, 481.899 534.063, 481.921 " fill="none" stroke="rgb(0, 0, 0)" stroke-linecap="butt" stroke-linejoin="round" stroke-opacity="1.0" stroke-width="3.0" />
            <path d=" M 627.764, 893.840 629.933, 894.341 637.844, 895.498 645.746, 895.919 653.621, 895.621 661.454, 894.623 669.229, 892.944 676.931, 890.606 684.548, 887.630 692.066, 884.036 699.474, 879.846 706.761, 875.084 713.916, 869.770 720.931, 863.927 727.796, 857.576 734.503, 850.741 741.045, 843.442 747.415, 835.701 753.459, 827.734 753.607, 827.539 759.351, 819.354 759.615, 818.977 765.069, 810.596 765.434, 810.035 770.608, 801.478 771.059, 800.734 775.963, 792.019 776.485, 791.091 781.129, 782.235 781.710, 781.128 786.102, 772.144 786.728, 770.863 790.876, 761.763 791.537, 760.313 795.449, 751.110 796.135, 749.497 799.817, 740.199 800.517, 738.432 803.976, 729.049 804.682, 727.135 807.924, 717.675 808.627, 715.623 811.657, 706.093 812.350, 703.912 815.173, 694.318 815.850, 692.018 818.470, 682.367 819.125, 679.956 821.545, 670.253 822.172, 667.742 824.397, 657.993 824.991, 655.391 827.023, 645.599 827.579, 642.917 829.421, 633.088 829.937, 630.335 831.590, 620.473 832.062, 617.660 833.528, 607.768 833.953, 604.904 835.234, 594.987 835.609, 592.083 836.706, 582.143 837.029, 579.210 837.942, 569.252 838.212, 566.299 838.941, 556.326 839.157, 553.364 839.701, 543.379 839.863, 540.418 840.222, 530.425 840.328, 527.476 840.502, 517.477 840.552, 514.550 840.539, 504.550 840.534, 501.655 840.332, 491.657 840.274, 488.805 839.880, 478.813 839.769, 476.014 839.181, 466.032 839.020, 463.297 838.234, 453.328 838.025, 450.667 837.039, 440.716 836.784, 438.140 835.593, 428.211 835.296, 425.731 833.896, 415.830 833.560, 413.455 831.945, 403.586 831.576, 401.328 829.741, 391.498 829.343, 389.366 827.282, 379.580 826.862, 377.585 824.567, 367.852 824.131, 366.002 821.596, 356.329 821.152, 354.634 818.367, 345.030 817.923, 343.500 814.880, 333.974 814.446, 332.617 811.134, 323.181 810.721, 322.004 807.130, 312.671 806.748, 311.679 802.867, 302.464 802.530, 301.664 798.346, 292.581 798.067, 291.977 793.567, 283.046 793.361, 282.638 788.531, 273.882 788.415, 273.671 783.231, 265.094 777.812, 256.931 772.162, 249.204 766.285, 241.935 760.186, 235.147 753.871, 228.863 747.345, 223.107 740.615, 217.902 733.690, 213.272 726.578, 209.239 719.288, 205.828 711.830, 203.060 704.216, 200.959 696.458, 199.545 688.570, 198.840 680.566, 198.865 678.345, 199.044 " fill="none" stroke="rgb(0, 0, 0)" stroke-linecap="butt" stroke-linejoin="round" stroke-opacity="1.0" stroke-width="3.0" />
            <path d=" M 629.933, 894.341 628.018, 893.878 622.031, 892.430 614.156, 889.752 606.328, 886.293 598.568, 882.041 590.896, 876.987 583.336, 871.124 575.909, 864.447 568.946, 857.270 568.640, 856.955 562.148, 849.349 561.550, 848.649 555.523, 840.669 554.665, 839.532 549.092, 831.229 548.008, 829.613 542.876, 821.031 541.604, 818.904 538.343, 812.791 535.739, 807.908 535.477, 807.417 535.049, 806.518 534.378, 805.108 530.082, 796.078 529.651, 795.172 529.296, 794.335 527.968, 791.202 525.680, 785.803 524.149, 782.192 522.625, 778.146 520.091, 771.414 518.994, 768.502 515.835, 759.015 514.209, 754.133 511.401, 744.536 509.815, 739.119 507.345, 729.429 505.832, 723.497 505.305, 721.097 503.161, 711.330 502.278, 707.309 500.450, 697.477 499.171, 690.600 497.650, 680.717 496.527, 673.420 495.305, 663.495 494.360, 655.819 493.429, 645.862 492.680, 637.853 492.035, 627.874 491.498, 619.578 491.133, 609.585 490.821, 601.055 490.733, 591.056 490.655, 582.344 490.839, 572.346 491.002, 563.509 491.457, 553.519 491.862, 544.612 492.587, 534.639 493.234, 525.719 493.858, 519.463 494.851, 509.512 495.112, 506.893 496.374, 496.973 497.490, 488.198 499.021, 478.316 500.357, 469.698 502.161, 459.863 502.962, 455.498 503.703, 451.455 505.783, 441.673 507.514, 433.527 509.872, 423.809 511.773, 415.974 514.415, 406.329 516.464, 398.850 519.395, 389.289 521.565, 382.209 524.792, 372.744 527.057, 366.099 530.586, 356.743 531.025, 355.581 532.916, 350.568 533.643, 348.819 535.977, 343.210 539.120, 335.656 539.584, 334.642 543.745, 325.549 545.107, 322.573 545.643, 321.404 546.648, 319.403 549.301, 314.128 552.259, 308.245 552.460, 307.845 553.799, 305.419 556.547, 300.442 557.791, 298.189 558.405, 297.077 559.545, 295.011 564.730, 286.460 566.872, 282.928 572.421, 274.609 574.414, 271.620 580.338, 263.564 582.145, 261.106 585.960, 256.415 585.977, 256.394 586.084, 256.263 590.039, 251.400 596.743, 243.980 598.068, 242.513 605.174, 235.477 606.208, 234.454 613.720, 227.853 614.433, 227.226 622.350, 221.117 622.720, 220.831 631.043, 215.267 639.382, 210.527 647.713, 206.606 656.016, 203.492 664.272, 201.174 672.461, 199.636 678.695, 199.043 680.566, 198.865 " fill="none" stroke="rgb(0, 0, 0)" stroke-linecap="butt" stroke-linejoin="round" stroke-opacity="1.0" stroke-width="3.0" />
            <path d=" M 678.345, 199.044 670.229, 199.816 662.029, 201.354 653.763, 203.671 645.449, 206.783 637.108, 210.702 628.759, 215.438 620.426, 220.998 612.504, 227.101 612.130, 227.388 604.612, 233.982 603.896, 234.609 596.783, 241.638 595.748, 242.661 589.036, 250.075 587.710, 251.539 584.460, 255.528 579.809, 261.236 573.878, 269.287 572.071, 271.740 566.514, 280.055 564.522, 283.037 559.329, 291.583 557.730, 294.215 557.188, 295.106 557.096, 295.274 556.133, 297.014 553.380, 301.992 551.832, 304.789 550.097, 307.927 546.173, 315.717 544.624, 318.792 543.274, 321.471 539.107, 330.561 536.747, 335.708 533.437, 343.650 533.068, 344.534 530.539, 350.603 528.977, 354.734 525.442, 364.089 524.676, 366.117 521.444, 375.581 519.181, 382.209 519.166, 382.256 516.231, 391.815 515.725, 393.463 514.076, 398.832 511.431, 408.475 509.384, 415.936 507.023, 425.653 505.123, 433.469 503.041, 443.250 501.311, 451.376 499.505, 461.211 497.965, 469.598 496.431, 479.480 495.097, 488.077 494.701, 491.191 493.438, 501.111 492.720, 506.750 492.645, 507.498 492.451, 509.446 492.238, 511.580 491.722, 516.753 491.432, 519.652 491.385, 520.122 491.372, 520.261 490.843, 525.554 490.119, 535.528 489.473, 544.426 489.019, 554.416 488.615, 563.301 488.432, 573.299 488.271, 582.115 488.362, 592.115 488.440, 600.805 488.808, 610.798 489.121, 619.307 489.769, 629.286 490.307, 637.562 491.241, 647.518 491.991, 655.508 493.217, 665.433 494.164, 673.090 495.689, 682.973 496.813, 690.252 498.647, 700.083 499.926, 706.943 502.076, 716.710 503.486, 723.115 504.287, 726.248 506.764, 735.937 507.476, 738.721 510.292, 748.317 510.353, 748.526 511.877, 753.721 515.044, 763.207 516.670, 768.077 519.273, 774.972 521.775, 781.602 521.832, 781.754 523.176, 784.916 527.086, 794.120 527.245, 794.494 527.342, 794.723 528.601, 797.362 532.905, 806.388 533.177, 806.957 533.754, 808.036 535.152, 810.652 537.767, 815.543 539.313, 818.435 544.453, 827.012 545.726, 829.136 551.307, 837.434 552.392, 839.048 558.427, 847.022 559.287, 848.158 565.786, 855.758 566.386, 856.460 573.357, 863.630 573.666, 863.948 581.103, 870.622 588.674, 876.483 596.355, 881.536 604.126, 885.788 611.965, 889.248 619.851, 891.928 627.764, 893.840 " fill="none" stroke="rgb(0, 0, 0)" stroke-linecap="butt" stroke-linejoin="round" stroke-opacity="1.0" stroke-width="3.0" />
            <path d=" M 789.344, 555.785 779.362, 555.178 778.620, 555.132 774.072, 553.704 764.531, 550.709 754.990, 547.714 754.588, 547.587 753.889, 547.368 753.188, 547.147 752.486, 546.927 751.785, 546.707 750.966, 546.317 750.191, 545.678 749.475, 544.802 748.832, 543.704 748.278, 542.406 747.820, 540.933 747.468, 539.311 747.230, 537.573 747.109, 535.750 747.109, 533.880 747.229, 531.998 747.468, 530.141 747.820, 528.344 748.160, 527.080 748.278, 526.642 748.834, 525.068 749.477, 523.652 749.661, 523.336 750.193, 522.422 750.890, 521.506 750.970, 521.400 751.791, 520.606 752.494, 520.039 753.198, 519.473 753.901, 518.907 754.602, 518.343 754.954, 518.060 756.278, 516.997 764.075, 510.736 771.872, 504.474 778.776, 498.930 " fill="none" stroke="rgb(0, 0, 0)" stroke-linecap="butt" stroke-linejoin="round" stroke-opacity="1.0" stroke-width="3.0" />
            <path d=" M 686.084, 283.881 679.951, 284.254 677.707, 284.390 675.637, 284.715 669.243, 285.719 660.720, 287.894 659.155, 288.450 652.164, 290.932 643.604, 294.839 635.068, 299.611 626.733, 305.136 626.583, 305.235 618.656, 311.331 618.177, 311.699 610.676, 318.313 609.883, 319.013 602.823, 326.094 601.740, 327.179 595.121, 334.675 593.784, 336.190 587.602, 344.051 586.048, 346.027 580.292, 354.205 578.564, 356.660 573.218, 365.112 571.360, 368.050 570.528, 369.508 570.151, 370.170 567.083, 375.552 564.460, 380.151 563.844, 381.351 561.293, 386.321 560.641, 387.592 559.667, 389.489 557.899, 392.935 556.441, 396.102 554.819, 399.627 554.342, 400.662 552.694, 404.243 551.715, 406.370 547.916, 415.620 546.094, 420.055 545.945, 420.416 544.448, 424.524 541.203, 433.424 540.620, 435.023 537.560, 444.544 535.764, 450.133 533.058, 459.759 531.394, 465.679 531.246, 466.289 528.882, 476.005 527.521, 481.596 525.492, 491.388 524.160, 497.818 523.845, 499.657 522.155, 509.513 521.337, 514.286 521.070, 516.247 520.955, 517.098 520.932, 517.263 520.090, 523.460 519.074, 530.933 518.833, 533.325 517.831, 543.274 517.387, 547.689 516.730, 557.668 516.281, 564.483 515.968, 574.478 515.756, 581.242 515.783, 591.241 515.801, 597.896 516.167, 607.890 516.407, 614.453 517.099, 624.429 517.539, 630.759 517.677, 632.094 518.703, 642.041 519.051, 645.416 519.188, 646.746 520.557, 656.652 521.344, 662.351 523.067, 672.201 523.995, 677.510 524.214, 678.541 526.301, 688.321 527.121, 692.167 529.585, 701.859 530.706, 706.267 531.531, 709.033 531.640, 709.397 532.369, 711.842 533.654, 716.153 534.153, 717.826 534.729, 719.759 537.996, 729.210 538.983, 732.064 539.168, 732.598 540.375, 735.634 540.900, 736.953 542.255, 740.361 543.997, 744.743 545.014, 746.979 545.952, 749.040 546.417, 750.061 548.742, 755.170 549.192, 756.159 553.802, 765.033 554.727, 766.812 559.826, 775.414 560.574, 776.676 566.180, 784.957 566.704, 785.731 572.836, 793.630 573.090, 793.958 579.703, 801.343 586.516, 807.880 593.498, 813.563 600.623, 818.392 607.864, 822.369 611.862, 824.078 615.193, 825.502 622.586, 827.801 630.017, 829.275 637.463, 829.940 644.901, 829.816 652.308, 828.919 659.665, 827.269 666.952, 824.890 674.151, 821.805 681.243, 818.039 688.214, 813.614 695.048, 808.560 701.731, 802.902 708.249, 796.665 714.591, 789.876 720.746, 782.564 726.704, 774.755 732.454, 766.475 737.811, 758.030 737.988, 757.750 743.012, 749.103 743.299, 748.608 748.001, 739.783 748.379, 739.074 752.772, 730.091 753.220, 729.174 757.316, 720.051 757.818, 718.933 761.627, 709.687 762.167, 708.377 765.698, 699.021 766.261, 697.528 769.522, 688.075 770.096, 686.413 773.096, 676.874 773.668, 675.056 776.413, 665.440 776.972, 663.478 779.468, 653.794 780.006, 651.704 782.258, 641.961 782.767, 639.756 784.778, 629.961 785.251, 627.658 787.026, 617.817 787.456, 615.431 788.997, 605.551 789.379, 603.098 790.688, 593.184 791.019, 590.681 792.098, 580.739 792.373, 578.201 793.222, 568.237 793.440, 565.680 794.059, 555.699 794.218, 553.141 794.607, 543.148 794.706, 540.604 794.749, 537.926 " fill="none" stroke="rgb(0, 0, 0)" stroke-linecap="butt" stroke-linejoin="round" stroke-opacity="1.0" stroke-width="3.0" />
            <path d=" M 778.776, 498.930 788.734, 499.851 789.547, 499.927 " fill="none" stroke="rgb(0, 0, 0)" stroke-linecap="butt" stroke-linejoin="round" stroke-opacity="1.0" stroke-width="3.0" />
            <path d=" M 824.451, 515.405 824.123, 505.411 824.118, 505.267 823.519, 495.285 823.372, 492.836 822.496, 482.875 822.289, 480.521 821.951, 477.627 820.867, 468.347 819.419, 458.453 819.109, 456.337 817.370, 446.489 817.020, 444.511 814.988, 434.719 814.608, 432.887 812.272, 423.163 811.870, 421.491 809.214, 411.850 808.801, 410.354 805.809, 400.813 805.400, 399.509 802.058, 390.084 801.668, 388.984 797.964, 379.695 797.608, 378.804 793.533, 369.672 793.229, 368.992 788.776, 360.038 788.540, 359.563 783.699, 350.813 783.547, 350.539 778.253, 341.958 772.659, 333.858 766.771, 326.271 760.598, 319.226 754.152, 312.746 747.446, 306.848 740.495, 301.544 733.309, 296.871 725.900, 292.870 719.255, 289.996 718.281, 289.574 710.470, 287.012 702.487, 285.203 694.351, 284.159 686.084, 283.881 " fill="none" stroke="rgb(0, 0, 0)" stroke-linecap="butt" stroke-linejoin="round" stroke-opacity="1.0" stroke-width="3.0" />
            <path d=" M 659.155, 288.450 665.075, 291.609 671.123, 295.618 676.987, 300.279 682.656, 305.551 688.123, 311.399 693.377, 317.808 698.408, 324.762 703.207, 332.238 707.766, 340.209 712.083, 348.640 716.155, 357.496 719.982, 366.740 723.471, 376.112 723.560, 376.351 726.721, 385.838 726.879, 386.314 729.726, 395.900 729.936, 396.607 732.482, 406.278 732.727, 407.207 734.987, 416.948 735.251, 418.085 737.241, 427.885 737.510, 429.212 739.245, 439.061 739.509, 440.558 740.999, 450.447 741.248, 452.098 742.497, 462.020 742.723, 463.816 743.734, 473.765 743.930, 475.692 744.706, 485.662 744.865, 487.706 745.414, 497.691 745.531, 499.833 745.733, 506.001 745.621, 507.233 745.451, 508.448 745.226, 509.633 744.948, 510.776 744.618, 511.865 744.241, 512.889 743.821, 513.836 743.361, 514.698 742.867, 515.463 742.344, 516.126 741.796, 516.679 741.231, 517.115 740.654, 517.431 740.070, 517.624 735.904, 518.575 732.137, 519.436 " fill="none" stroke="rgb(0, 0, 0)" stroke-linecap="butt" stroke-linejoin="round" stroke-opacity="1.0" stroke-width="3.0" />
            <path d=" M 800.286, 535.796 801.211, 535.856 803.243, 535.986 812.916, 533.448 813.096, 533.400 815.044, 532.889 822.886, 530.831 824.615, 530.377 824.841, 530.328 830.759, 529.034 830.699, 519.034 830.681, 515.860 830.358, 505.865 830.257, 502.755 829.667, 492.772 829.488, 489.741 828.625, 479.778 828.371, 476.843 827.231, 466.908 826.907, 464.085 825.483, 454.187 825.095, 451.491 823.380, 441.639 822.936, 439.086 820.922, 429.290 820.429, 426.895 818.107, 417.168 817.576, 414.944 814.936, 405.299 814.640, 404.218 814.378, 403.259 811.410, 393.710 810.837, 391.866 808.345, 384.760 806.954, 380.793 803.292, 371.488 802.732, 370.067 798.704, 360.914 798.176, 359.715 793.767, 350.739 793.289, 349.766 788.484, 340.996 788.075, 340.250 784.090, 333.728 782.541, 331.194 778.510, 325.291 776.692, 322.628 770.616, 314.686 770.536, 314.583 764.082, 307.088 757.337, 300.172 750.315, 293.865 743.025, 288.199 735.480, 283.201 727.696, 278.900 719.688, 275.325 711.473, 272.504 703.070, 270.461 694.499, 269.221 685.782, 268.809 675.784, 268.598 665.786, 268.387 665.074, 268.372 " fill="none" stroke="rgb(0, 0, 0)" stroke-linecap="butt" stroke-linejoin="round" stroke-opacity="1.0" stroke-width="3.0" />
            <path d=" M 685.782, 268.809 676.942, 269.247 676.222, 269.352 668.004, 270.551 662.838, 271.805 658.995, 272.738 649.943, 275.824 640.878, 279.819 636.059, 282.434 635.910, 282.514 631.829, 284.729 623.435, 290.165 622.829, 290.558 614.855, 296.593 613.912, 297.307 606.370, 303.874 605.112, 304.969 598.007, 312.007 596.463, 313.536 589.795, 320.989 588.001, 322.994 581.767, 330.813 579.764, 333.325 573.954, 341.464 571.786, 344.502 568.016, 350.388 567.575, 351.076 564.103, 356.498 562.328, 359.582 559.711, 364.133 558.099, 366.935 556.752, 369.278 552.664, 377.192 551.022, 380.372 549.766, 382.803 545.565, 391.878 543.180, 397.028 539.446, 406.054 537.027, 411.902 533.575, 421.287 531.337, 427.373 528.248, 436.884 526.138, 443.380 523.406, 453.000 521.457, 459.862 519.077, 469.574 517.318, 476.751 515.287, 486.542 513.744, 493.978 512.057, 503.835 510.750, 511.471 510.030, 516.782 508.686, 526.691 508.352, 529.155 507.352, 539.105 506.562, 546.955 505.906, 556.933 505.389, 564.793 505.078, 574.788 504.835, 582.593 504.874, 592.593 504.903, 600.279 " fill="none" stroke="rgb(0, 0, 0)" stroke-linecap="butt" stroke-linejoin="round" stroke-opacity="1.0" stroke-width="3.0" />
            <path d=" M 756.278, 516.997 756.200, 512.801 756.217, 510.006 756.175, 510.230 755.897, 511.378 755.569, 512.473 755.194, 513.501 754.776, 514.453 754.319, 515.319 753.828, 516.089 753.309, 516.755 752.765, 517.310 752.204, 517.749 751.631, 518.067 751.052, 518.261 750.903, 518.296 747.094, 519.180 737.354, 521.441 733.959, 522.229 733.399, 521.080 732.754, 520.106 732.137, 519.436 732.036, 519.325 731.257, 518.750 730.428, 518.392 729.571, 518.256 729.565, 518.256 719.583, 517.671 718.405, 517.602 717.516, 517.691 717.490, 517.699 716.621, 518.003 715.737, 518.533 714.911, 519.277 714.161, 520.221 713.465, 521.349 712.837, 522.641 712.286, 524.075 711.824, 525.628 711.456, 527.271 711.191, 528.978 711.032, 530.719 710.983, 532.464 720.962, 533.115 722.184, 533.194 727.027, 532.054 727.048, 531.499 727.095, 531.100 727.112, 530.949 727.218, 530.418 727.362, 529.922 727.541, 529.474 727.749, 529.087 727.981, 528.770 728.231, 528.533 728.417, 528.425 728.492, 528.382 728.756, 528.320 " fill="none" stroke="rgb(0, 0, 0)" stroke-linecap="butt" stroke-linejoin="round" stroke-opacity="1.0" stroke-width="3.0" />
            <path d=" M 804.782, 523.402 807.843, 522.616 808.358, 522.434 808.869, 522.143 809.371, 521.747 809.861, 521.252 810.333, 520.662 810.785, 519.983 811.214, 519.221 811.615, 518.381 811.987, 517.471 812.325, 516.499 812.628, 515.471 812.893, 514.395 813.118, 513.279 813.301, 512.133 822.896, 514.949 823.065, 514.998 824.451, 515.405 824.287, 516.117 823.986, 517.150 823.650, 518.128 823.281, 519.042 823.065, 519.501 822.883, 519.886 822.458, 520.652 822.010, 521.335 821.541, 521.929 821.057, 522.426 820.559, 522.824 820.053, 523.117 819.542, 523.301 813.490, 524.884 806.871, 526.616 806.348, 525.434 805.744, 524.433 805.069, 523.631 804.782, 523.402 804.332, 523.042 803.548, 522.676 802.728, 522.540 800.786, 522.426 799.569, 522.355 790.855, 521.845 790.168, 521.922 790.006, 521.940 789.614, 522.089 789.151, 522.266 788.302, 522.817 787.512, 523.588 786.796, 524.565 786.130, 525.732 785.527, 527.067 784.997, 528.549 784.549, 530.152 784.191, 531.849 783.929, 533.611 783.768, 535.407 783.711, 537.206 789.898, 537.610 790.065, 537.621 794.749, 537.926 795.632, 537.984 800.180, 536.790 800.216, 536.781 800.239, 536.208 800.286, 535.796 800.303, 535.640 800.406, 535.092 800.546, 534.580 800.717, 534.117 800.917, 533.717 801.138, 533.389 801.253, 533.270 801.376, 533.143 801.623, 532.986 801.873, 532.921 " fill="none" stroke="rgb(0, 0, 0)" stroke-linecap="butt" stroke-linejoin="round" stroke-opacity="1.0" stroke-width="3.0" />
            <path d=" M 774.072, 553.704 773.442, 563.761 772.579, 573.723 772.369, 576.153 771.267, 586.092 771.000, 588.503 769.660, 598.413 769.339, 600.790 767.760, 610.664 767.387, 612.991 765.567, 622.824 765.148, 625.085 763.083, 634.870 762.623, 637.050 760.312, 646.779 759.817, 648.863 757.254, 658.529 756.732, 660.502 753.913, 670.096 753.370, 671.944 750.291, 681.458 749.738, 683.166 746.391, 692.589 745.838, 694.145 742.217, 703.466 741.676, 704.857 737.771, 714.063 737.256, 715.279 733.059, 724.356 732.583, 725.385 728.086, 734.317 727.665, 735.153 722.855, 743.920 722.506, 744.556 717.372, 753.137 717.115, 753.568 711.646, 761.940 711.498, 762.166 705.665, 770.323 699.624, 778.012 693.384, 785.208 686.958, 791.884 680.356, 798.014 673.590, 803.571 666.673, 808.530 659.621, 812.866 652.449, 816.551 645.172, 819.561 637.809, 821.874 630.377, 823.467 622.897, 824.316 615.389, 824.403 611.862, 824.078 " fill="none" stroke="rgb(0, 0, 0)" stroke-linecap="butt" stroke-linejoin="round" stroke-opacity="1.0" stroke-width="3.0" />
            <path d=" M 790.065, 537.621 790.025, 540.214 789.588, 550.205 789.344, 555.785 779.813, 552.758 778.739, 552.418 774.233, 550.987 766.070, 548.394 765.377, 548.174 764.683, 547.954 763.988, 547.733 763.293, 547.512 762.482, 547.121 761.714, 546.480 761.005, 545.600 760.370, 544.498 759.821, 543.194 759.369, 541.714 759.022, 540.085 758.787, 538.338 758.703, 537.024 758.670, 536.507 758.671, 534.628 758.792, 532.737 759.031, 530.870 759.155, 530.230 759.381, 529.064 759.837, 527.353 760.390, 525.771 760.535, 525.449 761.028, 524.348 761.740, 523.111 762.511, 522.083 763.325, 521.285 764.023, 520.715 764.721, 520.145 765.418, 519.576 766.114, 519.009 766.463, 518.724 774.218, 512.410 779.156, 508.388 786.910, 502.074 789.547, 499.927 789.931, 509.919 789.983, 511.264 790.117, 515.843 790.168, 521.922 " fill="none" stroke="rgb(0, 0, 0)" stroke-linecap="butt" stroke-linejoin="round" stroke-opacity="1.0" stroke-width="3.0" />
            <path d=" M 764.755, 537.421 764.438, 537.355 764.140, 537.142 763.877, 536.791 763.659, 536.319 763.497, 535.746 763.397, 535.096 763.364, 534.399 763.399, 533.685 763.501, 532.985 763.665, 532.330 763.884, 531.750 764.148, 531.268 764.446, 530.906 764.765, 530.681 765.089, 530.603 " fill="none" stroke="rgb(0, 0, 0)" stroke-linecap="butt" stroke-linejoin="round" stroke-opacity="1.0" stroke-width="3.0" />
            <path d=" M 765.089, 530.603 765.407, 530.672 765.703, 530.887 765.965, 531.239 766.182, 531.711 766.343, 532.283 766.442, 532.930 766.475, 533.625 766.440, 534.337 766.338, 535.034 766.175, 535.687 765.958, 536.267 765.695, 536.749 765.398, 537.111 765.080, 537.339 764.755, 537.421 " fill="none" stroke="rgb(0, 0, 0)" stroke-linecap="butt" stroke-linejoin="round" stroke-opacity="1.0" stroke-width="3.0" />
            <path d=" M 800.180, 536.790 800.131, 539.828 799.740, 549.821 799.617, 552.951 798.996, 562.931 798.801, 566.076 797.952, 576.039 797.684, 579.181 796.606, 589.123 796.267, 592.245 794.960, 602.160 794.553, 605.247 793.015, 615.128 792.542, 618.163 790.771, 628.005 790.238, 630.971 788.231, 640.767 787.641, 643.649 785.396, 653.393 784.756, 656.174 782.267, 665.859 781.583, 668.523 778.847, 678.141 778.127, 680.672 775.137, 690.214 774.390, 692.597 771.140, 702.054 770.377, 704.275 766.859, 713.636 766.090, 715.680 762.296, 724.932 761.535, 726.787 757.456, 735.917 756.717, 737.571 752.343, 746.563 751.641, 748.005 746.960, 756.841 746.313, 758.062 741.313, 766.722 740.740, 767.716 735.409, 776.176 734.928, 776.939 729.253, 785.173 728.887, 785.704 722.853, 793.678 722.624, 793.981 716.219, 801.660 716.150, 801.742 709.475, 808.960 702.610, 815.605 695.567, 821.647 688.361, 827.058 681.006, 831.812 673.517, 835.877 665.912, 839.227 658.208, 841.838 650.424, 843.681 642.582, 844.732 634.703, 844.969 626.809, 844.371 618.926, 842.919 611.078, 840.594 603.292, 837.385 595.594, 833.279 588.015, 828.268 580.582, 822.348 573.326, 815.519 566.589, 808.129 566.276, 807.785 560.082, 799.934 559.464, 799.151 553.799, 790.911 552.920, 789.633 547.766, 781.063 546.674, 779.248 545.245, 776.535 542.788, 771.873 541.351, 769.144 540.757, 768.018 536.568, 758.937 536.471, 758.726 535.199, 755.969 535.057, 755.616 531.320, 746.340 530.029, 743.137 529.943, 742.892 527.279, 735.288 525.272, 729.559 522.380, 719.986 520.958, 715.277 518.463, 705.594 517.110, 700.341 514.996, 690.567 513.750, 684.805 512.415, 677.273 510.899, 668.725 509.509, 658.822 508.575, 652.165 507.531, 642.220 506.794, 635.190 506.087, 625.215 505.566, 617.871 505.190, 607.878 504.903, 600.279 502.699, 590.525 500.659, 581.499 " fill="none" stroke="rgb(0, 0, 0)" stroke-linecap="butt" stroke-linejoin="round" stroke-opacity="1.0" stroke-width="3.0" />
            <path d=" M 665.074, 268.372 657.073, 268.771 656.745, 268.822 648.979, 270.033 640.816, 272.177 632.609, 275.219 624.384, 279.170 616.170, 284.037 607.996, 289.825 600.295, 296.204 599.893, 296.537 592.656, 303.438 591.892, 304.167 585.116, 311.521 584.024, 312.706 577.701, 320.453 576.323, 322.142 570.442, 330.230 568.823, 332.457 565.966, 336.847 565.479, 337.595 561.555, 343.626 561.085, 344.432 558.432, 348.975 556.832, 351.717 554.554, 355.619 551.327, 361.777 549.711, 364.861 547.854, 368.404 543.597, 377.453 541.485, 381.940 538.125, 389.910 535.480, 396.181 531.955, 405.539 529.869, 411.077 526.695, 420.560 524.682, 426.574 521.848, 436.164 519.944, 442.611 517.443, 452.293 515.680, 459.124 513.507, 468.885 511.913, 476.045 510.063, 485.872 508.663, 493.304 507.132, 503.186 505.947, 510.828 505.235, 516.643 504.020, 526.569 503.779, 528.539 502.880, 538.499 502.170, 546.363 501.587, 556.346 501.127, 564.221 500.856, 574.218 500.659, 581.499 499.035, 591.367 497.526, 600.533 " fill="none" stroke="rgb(0, 0, 0)" stroke-linecap="butt" stroke-linejoin="round" stroke-opacity="1.0" stroke-width="3.0" />
            <path d=" M 498.224, 618.691 498.940, 628.666 499.507, 636.565 500.561, 646.509 501.363, 654.078 502.765, 663.979 503.781, 671.157 505.541, 681.001 506.745, 687.733 508.875, 697.504 509.180, 698.902 510.235, 703.741 512.749, 713.420 514.230, 719.121 517.143, 728.687 518.706, 733.816 522.036, 743.245 523.637, 747.776 524.545, 750.010 527.276, 756.730 528.995, 760.959 532.619, 768.746 534.026, 771.768 534.750, 773.324 539.109, 781.517 540.536, 784.200 540.874, 784.836 543.110, 788.516 547.335, 795.470 553.042, 803.681 554.100, 805.202 560.340, 813.016 561.138, 814.016 567.922, 821.362 568.417, 821.897 575.749, 828.697 575.905, 828.842 583.569, 834.847 591.381, 839.913 599.310, 844.046 607.325, 847.257 615.399, 849.559 623.505, 850.964 631.618, 851.494 639.712, 851.170 647.764, 850.013 655.752, 848.047 663.655, 845.300 671.454, 841.798 679.131, 837.569 686.669, 832.641 694.052, 827.043 701.265, 820.807 708.295, 813.959 715.129, 806.530 721.519, 798.837 721.757, 798.550 727.778, 790.566 728.168, 790.049 733.833, 781.808 734.352, 781.053 739.675, 772.588 740.300, 771.594 745.295, 762.931 746.005, 761.699 750.683, 752.861 751.459, 751.395 755.832, 742.402 756.655, 740.710 760.735, 731.580 761.588, 729.671 765.384, 720.420 766.252, 718.304 769.774, 708.945 770.642, 706.635 773.897, 697.180 774.754, 694.690 777.749, 685.149 778.583, 682.493 781.325, 672.876 782.126, 670.068 784.620, 660.384 785.379, 657.440 787.630, 647.697 788.338, 644.633 790.351, 634.838 791.003, 631.670 792.780, 621.829 793.368, 618.573 794.912, 608.693 795.432, 605.366 796.746, 595.452 797.194, 592.071 798.277, 582.130 798.650, 578.711 799.504, 568.747 799.799, 565.308 800.423, 555.327 800.639, 551.884 801.033, 541.892 801.169, 538.462 801.211, 535.856 " fill="none" stroke="rgb(0, 0, 0)" stroke-linecap="butt" stroke-linejoin="round" stroke-opacity="1.0" stroke-width="3.0" />
            <path d=" M 497.526, 600.533 497.910, 610.526 498.224, 618.691 " fill="none" stroke="rgb(0, 0, 0)" stroke-linecap="butt" stroke-linejoin="round" stroke-opacity="1.0" stroke-width="3.0" />
            <path d=" M 814.640, 404.218 814.047, 401.142 811.919, 391.371 811.646, 390.117 809.279, 380.402 809.008, 379.289 806.395, 369.636 806.134, 368.672 803.266, 359.092 803.024, 358.283 799.893, 348.786 799.680, 348.139 796.275, 338.737 796.102, 338.259 792.411, 328.965 792.290, 328.662 788.299, 319.493 788.245, 319.369 783.969, 310.401 779.465, 301.772 774.736, 293.502 769.787, 285.609 764.620, 278.111 759.239, 271.031 753.649, 264.391 747.854, 258.213 741.859, 252.523 735.671, 247.341 729.298, 242.683 722.747, 238.569 716.029, 235.018 709.151, 232.049 702.125, 229.685 694.960, 227.946 687.669, 226.855 680.265, 226.433 672.762, 226.695 671.935, 226.799 665.175, 227.651 657.519, 229.315 649.810, 231.697 642.067, 234.810 634.306, 238.664 626.550, 243.270 618.817, 248.636 611.131, 254.768 603.715, 261.477 603.511, 261.661 603.098, 262.080 596.082, 269.205 595.979, 269.309 589.356, 276.802 588.558, 277.705 588.417, 277.881 582.180, 285.698 581.270, 286.839 579.361, 289.479 574.138, 296.701 568.645, 305.058 567.187, 307.277 562.219, 315.580 561.667, 316.503 560.442, 318.551 558.898, 321.383 556.219, 326.300 554.654, 329.173 553.928, 330.504 549.482, 339.461 549.146, 340.137 547.670, 343.111 547.565, 343.342 546.306, 346.127 542.185, 355.239 541.687, 356.339 537.882, 365.587 536.137, 369.826 536.002, 370.154 532.502, 379.522 530.635, 384.520 527.433, 393.994 525.607, 399.398 522.697, 408.965 520.938, 414.747 518.314, 424.397 516.647, 430.525 514.306, 440.247 512.755, 446.685 510.693, 456.470 509.279, 463.178 507.488, 473.017 506.226, 479.950 504.704, 489.833 503.609, 496.946 502.355, 506.867 501.440, 514.113 501.105, 517.487 500.118, 527.439 499.726, 531.395 499.007, 541.369 498.476, 548.734 498.024, 558.724 497.692, 566.075 497.508, 576.074 497.375, 583.360 497.463, 593.360 497.526, 600.533 497.889, 610.526 498.144, 617.537 498.224, 618.691 498.862, 628.671 499.224, 634.319 500.149, 644.276 500.757, 650.825 501.972, 660.751 502.737, 667.005 504.249, 676.890 505.155, 682.809 506.972, 692.642 507.997, 698.190 508.736, 701.582 510.866, 711.353 511.249, 713.107 513.701, 722.801 514.894, 727.518 517.681, 737.122 518.918, 741.386 522.055, 750.881 523.307, 754.671 523.510, 755.214 526.135, 762.240 528.041, 767.343 531.348, 775.212 532.688, 778.401 533.098, 779.376 537.361, 788.422 537.666, 789.069 538.457, 790.748 539.046, 791.864 541.583, 796.673 544.096, 801.438 549.180, 810.049 549.995, 811.429 555.512, 819.769 556.131, 820.704 562.098, 828.729 562.486, 829.251 568.916, 836.910 569.039, 837.056 575.768, 844.114 582.650, 850.425 589.663, 855.994 596.786, 860.824 603.998, 864.921 611.281, 868.291 618.616, 870.941 624.746, 872.551 625.986, 872.877 633.373, 874.109 640.761, 874.652 648.132, 874.524 655.471, 873.746 662.763, 872.334 669.995, 870.307 677.154, 867.682 684.227, 864.476 691.204, 860.703 698.073, 856.382 704.825, 851.536 711.449, 846.186 717.939, 840.357 724.284, 834.067 730.479, 827.337 736.517, 820.185 742.389, 812.628 748.091, 804.683 753.615, 796.368 758.865, 787.857 758.959, 787.704 763.934, 779.030 764.117, 778.712 768.829, 769.892 769.085, 769.412 773.543, 760.460 773.861, 759.820 778.072, 750.750 778.441, 749.955 782.412, 740.777 782.821, 739.831 786.557, 730.556 786.997, 729.465 790.504, 720.100 790.965, 718.870 794.250, 709.425 794.723, 708.063 797.792, 698.546 798.270, 697.062 801.129, 687.479 801.605, 685.883 804.257, 676.242 804.725, 674.543 807.176, 664.848 807.629, 663.054 809.881, 653.311 810.315, 651.432 812.371, 641.646 812.781, 639.691 814.642, 629.865 815.024, 627.843 816.691, 617.983 817.042, 615.904 818.519, 606.013 818.837, 603.887 820.125, 593.970 820.406, 591.807 821.507, 581.868 821.749, 579.678 822.662, 569.720 822.865, 567.513 823.589, 557.539 823.750, 555.325 824.287, 545.340 824.406, 543.129 824.755, 533.135 824.831, 530.937 824.841, 530.328 " fill="none" stroke="rgb(0, 0, 0)" stroke-linecap="butt" stroke-linejoin="round" stroke-opacity="1.0" stroke-width="3.0" />
            <path d=" M 670.528, 226.848 662.930, 227.805 655.264, 229.468 647.546, 231.849 639.793, 234.960 632.023, 238.812 624.257, 243.414 616.516, 248.776 608.821, 254.902 601.407, 261.595 601.193, 261.789 594.169, 268.907 593.653, 269.429 587.023, 276.915 586.224, 277.817 583.033, 281.809 578.929, 286.942 573.061, 295.040 572.742, 295.480 571.790, 296.794 566.290, 305.146 564.833, 307.359 561.656, 312.659 561.091, 313.600 558.526, 317.879 558.082, 318.621 555.825, 322.755 554.272, 325.600 551.563, 330.562 548.704, 336.309 547.140, 339.454 545.299, 343.155 541.172, 352.263 539.312, 356.368 535.634, 365.292 535.540, 365.519 533.623, 370.168 530.118, 379.533 528.253, 384.517 525.046, 393.989 523.222, 399.379 520.307, 408.944 518.550, 414.711 515.922, 424.359 514.257, 430.470 511.913, 440.192 510.364, 446.612 508.298, 456.396 506.886, 463.086 505.093, 472.924 503.833, 479.838 502.310, 489.722 501.217, 496.815 499.962, 506.736 499.047, 513.962 498.631, 518.162 497.644, 528.113 497.335, 531.224 496.616, 541.198 496.086, 548.544 495.635, 558.534 495.304, 565.865 495.122, 575.864 494.990, 583.131 495.080, 593.130 495.144, 600.284 495.509, 610.277 495.765, 617.270 496.410, 627.249 496.848, 634.033 497.777, 643.989 498.386, 650.521 499.605, 660.446 500.371, 666.683 501.888, 676.568 502.794, 682.470 504.616, 692.303 505.641, 697.836 507.755, 707.504 508.899, 712.737 511.358, 722.430 512.551, 727.134 515.344, 736.736 516.582, 740.988 519.726, 750.481 520.977, 754.261 522.755, 759.008 525.362, 765.970 525.719, 766.921 529.601, 776.137 530.649, 778.625 530.784, 778.944 532.038, 781.599 536.150, 790.306 537.073, 792.051 538.482, 794.716 541.025, 799.526 541.797, 800.987 546.890, 809.593 547.704, 810.970 553.230, 819.304 553.850, 820.239 559.825, 828.257 560.213, 828.779 566.651, 836.431 566.775, 836.579 573.514, 843.633 580.405, 849.942 587.428, 855.509 594.560, 860.338 601.782, 864.434 609.075, 867.804 616.420, 870.455 623.800, 872.393 " fill="none" stroke="rgb(0, 0, 0)" stroke-linecap="butt" stroke-linejoin="round" stroke-opacity="1.0" stroke-width="3.0" />
            <path d=" M 672.762, 226.695 670.528, 226.848 " fill="none" stroke="rgb(0, 0, 0)" stroke-linecap="butt" stroke-linejoin="round" stroke-opacity="1.0" stroke-width="3.0" />
            <path d=" M 623.800, 872.393 625.986, 872.877 " fill="none" stroke="rgb(0, 0, 0)" stroke-linecap="butt" stroke-linejoin="round" stroke-opacity="1.0" stroke-width="3.0" />
            <path d=" M 479.332, 601.376 479.709, 611.369 480.066, 620.852 480.726, 630.830 481.337, 640.062 482.285, 650.017 483.135, 658.942 484.378, 668.865 485.451, 677.431 486.996, 687.311 488.271, 695.470 490.126, 705.296 491.581, 713.004 493.756, 722.764 495.363, 729.981 497.868, 739.663 499.599, 746.354 499.848, 747.194 501.698, 753.422 504.267, 762.079 507.468, 771.553 507.836, 772.641 509.347, 777.115 512.916, 786.456 514.131, 789.636 514.815, 791.427 515.092, 792.071 516.800, 796.043 517.581, 797.857 518.092, 799.047 520.646, 804.983 523.374, 810.631 524.719, 813.416 526.031, 816.131 526.816, 817.757 527.382, 818.802 530.135, 823.883 531.493, 826.390 531.504, 826.411 533.300, 829.726 534.272, 831.326 539.465, 839.872 540.072, 840.870 545.709, 849.130 547.105, 851.176 553.200, 859.104 554.374, 860.632 560.936, 868.178 561.853, 869.232 568.889, 876.339 569.516, 876.972 577.025, 883.577 577.338, 883.852 585.294, 889.876 593.361, 895.048 601.515, 899.378 609.733, 902.877 617.995, 905.557 622.331, 906.584 630.592, 908.456 638.856, 909.540 647.104, 909.855 655.318, 909.420 663.481, 908.256 671.579, 906.384 679.595, 903.827 687.516, 900.609 695.329, 896.751 703.023, 892.277 710.586, 887.211 718.007, 881.578 725.279, 875.399 732.390, 868.699 739.335, 861.501 745.951, 854.002 746.105, 853.828 752.403, 846.060 752.693, 845.702 758.683, 837.695 759.094, 837.145 764.787, 828.924 765.302, 828.180 770.707, 819.767 771.311, 818.827 776.440, 810.242 777.118, 809.107 781.980, 800.368 782.718, 799.041 787.321, 790.163 788.107, 788.648 792.461, 779.645 793.282, 777.948 797.395, 768.832 798.240, 766.958 802.119, 757.741 802.978, 755.699 806.629, 746.390 807.493, 744.188 810.924, 734.795 811.784, 732.441 814.999, 722.972 815.847, 720.477 818.853, 710.939 819.681, 708.311 822.482, 698.711 823.285, 695.960 825.885, 686.304 826.657, 683.439 829.060, 673.732 829.795, 670.765 832.004, 661.012 832.698, 657.951 834.716, 648.157 835.364, 645.014 837.194, 635.183 837.793, 631.967 839.436, 622.103 839.983, 618.825 841.441, 608.932 841.933, 605.602 843.208, 595.684 843.641, 592.312 844.734, 582.372 845.108, 578.970 846.019, 569.011 846.332, 565.588 847.060, 555.615 847.311, 552.181 847.857, 542.196 848.045, 538.763 848.409, 528.769 848.533, 525.347 848.713, 515.348 848.774, 511.947 848.768, 501.947 848.767, 498.577 848.574, 488.578 848.510, 485.251 848.128, 475.258 848.003, 471.983 847.430, 462.000 847.245, 458.788 846.477, 448.818 846.235, 445.681 845.268, 435.727 844.972, 432.675 843.803, 422.744 843.455, 419.788 842.080, 409.883 841.684, 407.033 840.097, 397.160 839.657, 394.427 837.853, 384.592 837.375, 381.987 835.346, 372.195 834.836, 369.729 832.577, 359.987 832.040, 357.669 829.543, 347.986 828.986, 345.826 826.244, 336.210 825.676, 334.219 822.678, 324.678 822.108, 322.864 818.846, 313.411 818.284, 311.782 814.746, 302.429 814.203, 300.993 810.379, 291.753 809.867, 290.516 805.744, 281.405 805.276, 280.372 800.842, 271.409 800.433, 270.583 795.673, 261.788 795.339, 261.170 790.240, 252.567 789.996, 252.156 784.544, 243.773 784.408, 243.564 778.578, 235.417 772.509, 227.738 766.206, 220.553 759.676, 213.886 752.922, 207.761 745.953, 202.203 738.776, 197.238 731.399, 192.891 723.832, 189.186 716.085, 186.148 708.170, 183.802 700.099, 182.171 691.885, 181.278 683.544, 181.146 675.091, 181.795 670.648, 182.188 662.078, 183.638 653.432, 185.906 644.730, 189.007 635.992, 192.956 627.240, 197.764 618.853, 203.210 618.497, 203.440 610.506, 209.452 609.788, 209.993 602.202, 216.508 601.137, 217.424 593.959, 224.386 592.569, 225.734 585.796, 233.091 584.113, 234.919 577.739, 242.625 575.795, 244.974 572.544, 249.326 567.643, 255.887 562.037, 264.168 559.685, 267.643 554.447, 276.161 553.597, 277.545 553.584, 277.566 552.876, 278.718 551.950, 280.223 550.699, 282.460 550.542, 282.741 549.197, 285.146 549.185, 285.167 546.152, 290.590 544.627, 293.317 544.467, 293.603 543.306, 295.884 541.789, 298.865 537.264, 307.757 535.752, 311.022 534.267, 314.228 530.368, 322.651 529.972, 323.593 526.095, 332.810 523.808, 338.249 521.309, 344.807 517.747, 354.151 517.610, 354.511 514.355, 363.967 511.800, 371.392 508.844, 380.945 506.401, 388.843 503.738, 398.482 501.437, 406.810 499.061, 416.524 496.930, 425.239 495.198, 433.328 493.229, 442.525 492.898, 444.070 491.082, 453.904 489.358, 463.241 487.818, 473.122 486.327, 482.688 485.059, 492.607 483.815, 502.344 483.315, 507.348 483.254, 507.956 482.390, 516.591 482.383, 516.660 482.062, 519.871 482.004, 520.453 481.835, 522.142 481.111, 532.116 480.393, 542.013 479.941, 552.003 479.494, 561.888 479.316, 571.887 479.141, 581.699 479.236, 591.452 479.332, 601.376 " fill="none" stroke="rgb(0, 0, 0)" stroke-linecap="butt" stroke-linejoin="round" stroke-opacity="1.0" stroke-width="3.0" />
            <path d=" M 675.091, 181.795 666.544, 183.244 657.920, 185.513 649.240, 188.617 640.523, 192.570 631.792, 197.385 623.415, 202.846 623.070, 203.071 615.089, 209.097 614.380, 209.633 606.806, 216.164 605.747, 217.077 598.583, 224.054 597.198, 225.402 590.439, 232.772 588.758, 234.605 582.399, 242.322 580.456, 244.679 575.709, 251.058 572.320, 255.613 566.729, 263.904 564.376, 267.393 559.153, 275.920 556.655, 279.999 555.007, 282.956 554.453, 283.950 554.339, 284.154 551.647, 288.987 550.113, 291.740 549.184, 293.407 544.661, 302.326 544.371, 302.899 542.848, 305.903 541.992, 307.591 537.803, 316.672 535.106, 322.518 531.240, 331.745 528.555, 338.150 527.149, 341.853 523.598, 351.201 522.365, 354.449 519.120, 363.908 516.561, 371.367 513.615, 380.923 511.168, 388.858 508.513, 398.499 506.209, 406.866 503.840, 416.582 501.705, 425.338 499.617, 435.117 497.675, 444.212 495.864, 454.047 494.137, 463.427 494.069, 463.862 493.475, 467.678 493.271, 468.993 491.734, 478.875 491.105, 482.919 489.840, 492.839 489.696, 493.970 488.592, 502.621 488.112, 507.425 487.944, 509.112 487.793, 510.619 487.705, 511.505 487.188, 516.674 486.899, 519.572 486.802, 520.538 486.610, 522.464 485.886, 532.438 485.164, 542.381 484.711, 552.371 484.261, 562.302 484.080, 572.300 483.902, 582.157 483.996, 592.157 484.031, 595.956 484.087, 601.879 484.459, 611.872 484.813, 621.399 485.467, 631.377 486.075, 640.651 487.016, 650.607 487.665, 657.472 487.864, 659.573 489.098, 669.496 489.510, 672.807 490.169, 678.101 491.704, 687.983 492.978, 696.179 494.822, 706.007 496.275, 713.749 498.438, 723.512 500.044, 730.761 501.890, 737.933 504.266, 747.167 507.099, 756.757 508.919, 762.922 512.106, 772.401 513.983, 777.986 514.968, 780.575 516.800, 785.395 519.220, 791.759 519.435, 792.324 523.370, 801.517 524.810, 804.880 525.249, 805.905 526.139, 807.756 530.473, 816.768 531.368, 818.631 531.401, 818.700 532.756, 821.212 535.433, 826.175 537.867, 830.688 543.043, 839.244 544.620, 841.849 550.241, 850.120 551.633, 852.169 557.712, 860.109 558.883, 861.638 565.430, 869.196 566.341, 870.247 573.363, 877.367 573.983, 877.995 581.480, 884.613 581.784, 884.881 589.719, 890.908 597.764, 896.081 605.896, 900.411 614.092, 903.907 622.331, 906.584 " fill="none" stroke="rgb(0, 0, 0)" stroke-linecap="butt" stroke-linejoin="round" stroke-opacity="1.0" stroke-width="3.0" />
            <path d=" M 729.565, 518.256 729.562, 518.256 728.682, 518.345 727.793, 518.659 726.914, 519.193 726.094, 519.941 725.348, 520.891 725.280, 521.002 724.865, 521.682 724.657, 522.024 724.033, 523.323 723.485, 524.764 723.025, 526.324 722.667, 527.937 722.659, 527.976 722.394, 529.692 722.294, 530.792 722.235, 531.441 722.184, 533.194 " fill="none" stroke="rgb(0, 0, 0)" stroke-linecap="butt" stroke-linejoin="round" stroke-opacity="1.0" stroke-width="3.0" />
            <path d=" M 728.756, 528.320 729.017, 528.351 729.267, 528.472 729.500, 528.680 729.708, 528.970 729.888, 529.333 730.032, 529.761 730.139, 530.240 730.205, 530.758 730.227, 531.301 " fill="none" stroke="rgb(0, 0, 0)" stroke-linecap="butt" stroke-linejoin="round" stroke-opacity="1.0" stroke-width="3.0" />
            <path d=" M 727.095, 531.100 730.227, 531.301 739.961, 529.010 748.160, 527.080 " fill="none" stroke="rgb(0, 0, 0)" stroke-linecap="butt" stroke-linejoin="round" stroke-opacity="1.0" stroke-width="3.0" />
            <path d=" M 802.728, 522.540 801.886, 522.637 801.038, 522.965 800.196, 523.519 799.838, 523.873 799.412, 524.294 798.979, 524.893 798.701, 525.278 798.240, 526.097 798.041, 526.450 797.611, 527.414 797.442, 527.793 797.272, 528.274 796.916, 529.282 796.471, 530.894 796.123, 532.559 796.114, 532.599 795.853, 534.370 795.751, 535.505 795.691, 536.175 795.632, 537.984 " fill="none" stroke="rgb(0, 0, 0)" stroke-linecap="butt" stroke-linejoin="round" stroke-opacity="1.0" stroke-width="3.0" />
            <path d=" M 801.873, 532.921 802.119, 532.951 802.355, 533.074 802.573, 533.288 802.768, 533.586 802.935, 533.959 803.069, 534.399 803.167, 534.892 803.225, 535.426 803.243, 535.986 " fill="none" stroke="rgb(0, 0, 0)" stroke-linecap="butt" stroke-linejoin="round" stroke-opacity="1.0" stroke-width="3.0" />
            <path d=" M 782.672, 486.237 782.833, 486.232 783.052, 486.265 783.262, 486.343 783.456, 486.463 783.626, 486.622 783.767, 486.812 783.874, 487.030 783.941, 487.269 783.964, 487.524 783.942, 487.762 783.878, 487.990 783.775, 488.198 783.637, 488.379 783.468, 488.526 783.273, 488.635 783.058, 488.699 " fill="none" stroke="rgb(0, 0, 0)" stroke-linecap="butt" stroke-linejoin="round" stroke-opacity="1.0" stroke-width="3.0" />
            <path d=" M 782.672, 486.237 782.598, 486.250 782.514, 486.268 782.371, 486.314 782.161, 486.422 782.140, 486.435 781.949, 486.585 781.792, 486.769 781.672, 486.982 781.596, 487.217 781.569, 487.471 781.592, 487.710 781.661, 487.940 781.672, 487.962 781.784, 488.173 781.935, 488.358 782.120, 488.509 782.334, 488.623 782.357, 488.632 782.583, 488.698 782.604, 488.702 782.633, 488.706 782.670, 488.709 782.712, 488.711 782.762, 488.713 782.826, 488.715 782.912, 488.712 782.957, 488.710 782.998, 488.707 783.032, 488.703 783.058, 488.699 " fill="none" stroke="rgb(0, 0, 0)" stroke-linecap="butt" stroke-linejoin="round" stroke-opacity="1.0" stroke-width="3.0" />
            <path d=" M 780.007, 484.247 779.991, 490.448 783.602, 490.612 785.657, 490.706 786.314, 490.414 785.824, 484.462 783.173, 484.315 780.439, 484.164 780.007, 484.247 " fill="none" stroke="rgb(0, 0, 0)" stroke-linecap="butt" stroke-linejoin="round" stroke-opacity="1.0" stroke-width="3.0" />
            <path d=" M 785.657, 490.706 785.677, 484.491 " fill="none" stroke="rgb(0, 0, 0)" stroke-linecap="butt" stroke-linejoin="round" stroke-opacity="1.0" stroke-width="3.0" />
            <path d=" M 785.824, 484.462 785.677, 484.491 780.007, 484.247 " fill="none" stroke="rgb(0, 0, 0)" stroke-linecap="butt" stroke-linejoin="round" stroke-opacity="1.0" stroke-width="3.0" />
            <path d=" M 717.490, 517.699 716.378, 517.649 706.386, 517.241 704.895, 517.181 694.902, 516.816 693.419, 516.762 683.424, 516.437 681.945, 516.389 671.949, 516.100 670.467, 516.058 660.470, 515.802 658.981, 515.764 648.983, 515.539 647.482, 515.505 637.484, 515.308 635.965, 515.278 625.967, 515.104 624.427, 515.077 614.428, 514.924 612.862, 514.901 602.863, 514.766 601.266, 514.745 591.266, 514.626 589.633, 514.607 579.634, 514.501 577.961, 514.483 578.005, 504.483 578.025, 499.918 577.952, 489.918 577.919, 485.387 577.729, 475.389 577.644, 470.909 577.336, 460.914 577.199, 456.504 576.770, 446.514 576.584, 442.192 576.031, 432.207 575.798, 427.992 575.118, 418.015 574.840, 413.924 574.030, 403.957 573.709, 400.010 572.764, 390.055 572.405, 386.273 571.320, 376.332 570.928, 372.734 570.528, 369.508 " fill="none" stroke="rgb(0, 0, 0)" stroke-linecap="butt" stroke-linejoin="round" stroke-opacity="1.0" stroke-width="3.0" />
            <path d=" M 558.498, 239.870 550.835, 233.642 545.527, 228.766 542.575, 226.055 540.690, 224.114 540.062, 223.468 537.470, 220.800 534.587, 217.832 532.109, 214.992 529.303, 211.776 526.870, 208.987 522.058, 202.877 519.424, 199.533 " fill="none" stroke="rgb(0, 0, 0)" stroke-linecap="butt" stroke-linejoin="round" stroke-opacity="1.0" stroke-width="3.0" />
            <path d=" M 572.544, 249.326 571.983, 249.019 564.058, 243.913 563.074, 243.279 561.110, 241.816 558.498, 239.870 554.411, 236.825 " fill="none" stroke="rgb(0, 0, 0)" stroke-linecap="butt" stroke-linejoin="round" stroke-opacity="1.0" stroke-width="3.0" />
            <path d=" M 519.424, 199.533 518.318, 198.308 514.942, 194.569 510.325, 190.423 505.584, 187.136 505.270, 186.982 502.536, 185.639 500.727, 184.751 495.764, 183.304 490.708, 182.833 485.571, 183.376 480.368, 184.968 475.115, 187.641 474.906, 187.789 473.568, 188.746 469.826, 191.421 467.796, 193.302 464.522, 196.336 459.221, 202.408 456.296, 206.423 454.276, 209.194 453.945, 209.649 448.859, 217.837 448.714, 218.070 443.981, 226.880 443.551, 227.679 439.299, 236.729 438.481, 238.470 434.655, 247.709 433.527, 250.432 430.082, 259.820 428.714, 263.548 425.614, 273.056 424.069, 277.794 421.281, 287.398 419.615, 293.133 417.113, 302.815 415.380, 309.520 413.141, 319.266 411.386, 326.904 409.393, 336.703 407.660, 345.223 405.897, 355.066 404.224, 364.407 402.678, 374.287 401.132, 384.166 401.099, 384.376 399.760, 394.286 398.422, 404.196 398.307, 405.045 397.167, 414.980 396.027, 424.915 395.865, 426.320 394.917, 436.275 393.968, 446.230 393.790, 448.100 393.028, 458.071 392.265, 468.042 392.094, 470.278 391.515, 480.261 390.936, 490.245 390.791, 492.746 390.392, 502.738 389.994, 512.730 389.887, 515.390 389.668, 525.388 389.448, 535.386 389.389, 538.096 389.349, 548.096 389.308, 558.096 389.298, 560.747 389.328, 560.761 394.864, 563.252 396.612, 564.005 400.526, 565.690 406.286, 568.062 412.144, 570.373 418.101, 572.626 424.159, 574.822 430.318, 576.966 436.581, 579.061 442.948, 581.107 449.421, 583.109 456.001, 585.069 462.691, 586.989 469.490, 588.872 476.401, 590.719 479.236, 591.452 " fill="none" stroke="rgb(0, 0, 0)" stroke-linecap="butt" stroke-linejoin="round" stroke-opacity="1.0" stroke-width="3.0" />
            <path d=" M 359.410, 551.202 355.222, 560.283 352.989, 565.124 " fill="none" stroke="rgb(0, 0, 0)" stroke-linecap="butt" stroke-linejoin="round" stroke-opacity="1.0" stroke-width="3.0" />
            <path d=" M 474.906, 187.789 465.290, 188.044 " fill="none" stroke="rgb(0, 0, 0)" stroke-linecap="butt" stroke-linejoin="round" stroke-opacity="1.0" stroke-width="3.0" />
            <path d=" M 533.972, 481.893 533.986, 481.899 " fill="none" stroke="rgb(0, 0, 0)" stroke-linecap="butt" stroke-linejoin="round" stroke-opacity="1.0" stroke-width="3.0" />
            <path d=" M 534.108, 481.930 534.140, 481.935 " fill="none" stroke="rgb(0, 0, 0)" stroke-linecap="butt" stroke-linejoin="round" stroke-opacity="1.0" stroke-width="3.0" />
            <path d=" M 564.058, 243.913 561.110, 241.816 " fill="none" stroke="rgb(0, 0, 0)" stroke-linecap="butt" stroke-linejoin="round" stroke-opacity="1.0" stroke-width="3.0" />
            <path d=" M 735.904, 518.575 729.571, 518.256 " fill="none" stroke="rgb(0, 0, 0)" stroke-linecap="butt" stroke-linejoin="round" stroke-opacity="1.0" stroke-width="3.0" />
        </g>
    </g>
</svg>
