<?xml version='1.0' encoding='ascii'?>
<svg xmlns="http://www.w3.org/2000/svg" height="1080" version="1.1" width="1080">
    <g id="View Layer_LineSet" inkscape:groupmode="lineset" inkscape:label="View Layer_LineSet" xmlns:inkscape="http://www.inkscape.org/namespaces/inkscape">
        <g id="strokes" inkscape:groupmode="layer" inkscape:label="strokes" xmlns:inkscape="http://www.inkscape.org/namespaces/inkscape">
            <path d=" M 565.084, 500.772 565.037, 501.919 564.971, 503.043 564.887, 504.134 564.784, 505.180 564.702, 505.865 564.665, 506.171 564.529, 507.097 564.379, 507.949 564.230, 508.649 " fill="none" stroke="rgb(0, 0, 0)" stroke-linecap="butt" stroke-linejoin="round" stroke-opacity="1.0" stroke-width="3.0" />
            <path d=" M 353.012, 570.361 359.372, 571.504 " fill="none" stroke="rgb(0, 0, 0)" stroke-linecap="butt" stroke-linejoin="round" stroke-opacity="1.0" stroke-width="3.0" />
            <path d=" M 377.295, 571.949 387.278, 571.375 389.320, 571.258 " fill="none" stroke="rgb(0, 0, 0)" stroke-linecap="butt" stroke-linejoin="round" stroke-opacity="1.0" stroke-width="3.0" />
            <path d=" M 389.320, 571.258 385.245, 562.126 381.171, 552.993 380.105, 550.605 " fill="none" stroke="rgb(0, 0, 0)" stroke-linecap="butt" stroke-linejoin="round" stroke-opacity="1.0" stroke-width="3.0" />
            <path d=" M 469.178, 189.813 464.708, 190.071 460.173, 191.399 455.587, 193.828 450.965, 197.389 446.323, 202.112 441.678, 208.021 441.298, 208.604 439.675, 211.098 437.047, 215.134 432.451, 223.462 428.157, 232.493 427.909, 233.013 424.081, 242.251 423.444, 243.787 420.020, 253.183 419.076, 255.774 416.010, 265.293 414.829, 268.957 412.081, 278.572 410.726, 283.312 408.263, 293.004 406.790, 298.803 404.586, 308.558 403.043, 315.385 401.077, 325.190 399.510, 333.004 397.763, 342.850 396.212, 351.597 394.670, 361.477 393.171, 371.090 391.822, 380.998 390.473, 390.907 390.406, 391.399 389.240, 401.331 388.074, 411.263 387.936, 412.436 386.945, 422.387 385.954, 432.337 385.779, 434.101 384.957, 444.067 384.134, 454.033 383.948, 456.288 383.290, 466.266 382.631, 476.244 382.457, 478.885 381.958, 488.873 381.460, 498.860 381.315, 501.778 380.975, 511.772 380.634, 521.766 380.530, 524.847 380.346, 534.845 380.163, 544.843 380.105, 547.971 380.105, 550.605 378.800, 560.520 377.494, 570.434 377.295, 571.949 " fill="none" stroke="rgb(0, 0, 0)" stroke-linecap="butt" stroke-linejoin="round" stroke-opacity="1.0" stroke-width="3.0" />
            <path d=" M 566.928, 520.969 567.141, 520.973 567.995, 520.988 574.846, 518.362 577.938, 517.479 577.969, 507.479 577.984, 502.679 577.896, 492.680 577.855, 487.920 577.648, 477.922 577.551, 473.222 577.223, 463.227 577.072, 458.604 576.620, 448.614 576.415, 444.089 575.838, 434.106 575.582, 429.697 574.875, 419.722 574.571, 415.450 573.730, 405.485 573.382, 401.370 572.401, 391.418 572.013, 387.481 570.888, 377.545 570.465, 373.806 569.837, 368.926 " fill="none" stroke="rgb(0, 0, 0)" stroke-linecap="butt" stroke-linejoin="round" stroke-opacity="1.0" stroke-width="3.0" />
            <path d=" M 566.751, 374.263 567.610, 380.857 568.747, 390.792 569.105, 393.915 570.097, 403.866 570.428, 407.187 571.279, 417.151 571.578, 420.650 572.294, 430.625 572.556, 434.280 573.141, 444.263 573.363, 448.055 573.820, 458.045 573.999, 461.954 574.331, 471.948 574.465, 475.954 574.675, 485.952 574.761, 490.036 574.851, 500.036 574.888, 504.179 574.885, 505.274 574.806, 506.001 574.719, 506.696 574.624, 507.355 574.522, 507.974 574.412, 508.549 574.296, 509.079 574.174, 509.560 574.047, 509.989 573.916, 510.364 573.781, 510.683 573.644, 510.944 573.504, 511.146 573.363, 511.288 573.221, 511.369 569.175, 512.800 568.996, 511.676 568.792, 510.710 568.564, 509.918 568.318, 509.313 568.057, 508.907 567.785, 508.707 567.264, 508.698 565.092, 508.663 564.695, 508.657 564.230, 508.649 563.748, 508.642 562.908, 508.628 559.335, 508.570 557.550, 508.542 557.415, 508.539 557.404, 508.539 557.115, 508.549 556.825, 508.768 556.539, 509.195 556.261, 509.822 555.997, 510.639 555.750, 511.633 555.553, 512.646 555.525, 512.788 555.326, 514.083 555.157, 515.498 555.039, 516.800 555.020, 517.007 554.971, 517.763 554.918, 518.585 554.852, 520.205 554.824, 521.838 555.465, 521.850 557.312, 521.883 557.422, 521.885 559.206, 521.917 562.777, 521.980 563.616, 521.995 564.563, 522.012 565.290, 522.025 566.920, 521.400 566.928, 520.969 566.930, 520.883 566.955, 520.374 566.994, 519.888 567.045, 519.437 567.108, 519.035 567.164, 518.770 567.180, 518.691 567.260, 518.417 567.345, 518.218 567.433, 518.100 567.522, 518.067 " fill="none" stroke="rgb(0, 0, 0)" stroke-linecap="butt" stroke-linejoin="round" stroke-opacity="1.0" stroke-width="3.0" />
            <path d=" M 465.002, 866.091 460.927, 865.527 459.708, 865.058 456.838, 863.956 452.748, 861.346 450.947, 859.724 448.672, 857.675 444.624, 852.918 440.621, 847.055 436.680, 840.072 432.819, 831.962 429.055, 822.722 425.737, 813.289 425.408, 812.353 422.484, 802.790 421.897, 800.867 419.319, 791.205 418.539, 788.284 416.269, 778.545 415.356, 774.627 413.362, 764.828 412.365, 759.931 410.621, 750.084 409.585, 744.238 408.070, 734.354 407.034, 727.601 405.730, 717.686 404.730, 710.076 403.623, 700.138 402.687, 691.732 401.765, 681.775 400.920, 672.645 400.174, 662.673 399.443, 652.898 398.865, 642.915 398.287, 632.931 398.266, 632.579 397.850, 622.588 397.433, 612.596 397.399, 611.784 397.140, 601.788 396.880, 591.791 396.849, 590.615 396.743, 580.616 396.637, 570.616 396.622, 569.176 396.624, 568.314 " fill="none" stroke="rgb(0, 0, 0)" stroke-linecap="butt" stroke-linejoin="round" stroke-opacity="1.0" stroke-width="3.0" />
            <path d=" M 385.056, 265.178 384.042, 268.731 381.586, 278.425 380.440, 282.949 378.243, 292.704 376.981, 298.305 375.016, 308.110 373.683, 314.757 371.931, 324.603 370.568, 332.255 369.011, 342.133 367.655, 350.739 366.279, 360.644 364.961, 370.138 363.755, 380.065 362.550, 389.992 362.504, 390.371 361.460, 400.317 360.416, 410.262 360.301, 411.353 359.411, 421.313 358.521, 431.273 358.368, 432.987 357.625, 442.959 356.883, 452.932 356.716, 455.170 356.117, 465.152 355.517, 475.134 355.358, 477.793 354.898, 487.783 354.439, 497.772 354.302, 500.743 353.981, 510.738 353.659, 520.732 353.557, 523.901 353.372, 533.899 353.186, 543.898 353.126, 547.147 353.077, 557.147 353.028, 567.147 353.012, 570.361 353.146, 580.360 353.281, 590.359 353.320, 593.304 353.617, 603.300 353.914, 613.296 353.993, 615.950 354.456, 625.939 354.920, 635.929 355.024, 638.182 355.659, 648.162 356.294, 658.142 356.405, 659.890 357.219, 669.857 358.033, 679.824 358.127, 680.968 359.128, 690.918 360.130, 700.868 360.175, 701.319 361.375, 711.247 362.537, 720.853 363.949, 730.753 365.195, 739.487 366.836, 749.351 368.134, 757.149 370.023, 766.969 371.332, 773.778 373.493, 783.542 374.624, 788.652 " fill="none" stroke="rgb(0, 0, 0)" stroke-linecap="butt" stroke-linejoin="round" stroke-opacity="1.0" stroke-width="3.0" />
            <path d=" M 523.110, 537.374 522.956, 545.128 522.650, 555.123 522.523, 559.278 522.109, 569.269 521.938, 573.396 521.416, 583.382 521.203, 587.463 520.571, 597.443 520.317, 601.460 519.574, 611.433 519.281, 615.367 518.424, 625.330 518.094, 629.163 517.820, 631.966 " fill="none" stroke="rgb(0, 0, 0)" stroke-linecap="butt" stroke-linejoin="round" stroke-opacity="1.0" stroke-width="3.0" />
            <path d=" M 500.180, 747.239 498.101, 756.211 495.655, 765.907 495.307, 767.287 492.656, 776.929 492.374, 777.956 489.500, 787.535 489.304, 788.190 486.186, 797.692 486.099, 797.956 482.764, 807.219 479.301, 815.947 475.714, 824.107 472.008, 831.660 468.188, 838.569 464.260, 844.800 460.230, 850.313 456.106, 855.070 451.896, 859.031 450.947, 859.724 " fill="none" stroke="rgb(0, 0, 0)" stroke-linecap="butt" stroke-linejoin="round" stroke-opacity="1.0" stroke-width="3.0" />
            <path d=" M 389.331, 566.024 389.320, 571.258 389.435, 581.257 389.551, 591.257 389.584, 594.144 389.864, 604.140 390.143, 614.137 390.216, 616.735 390.663, 626.725 391.110, 636.715 391.208, 638.914 391.828, 648.895 392.448, 658.876 392.553, 660.573 393.352, 670.541 394.151, 680.509 394.239, 681.606 395.224, 691.558 396.210, 701.509 396.250, 701.917 397.432, 711.847 398.570, 721.416 399.960, 731.319 401.182, 740.020 402.795, 749.890 404.065, 757.659 405.918, 767.485 407.197, 774.268 409.312, 784.042 410.557, 789.796 412.961, 799.503 414.122, 804.195 416.847, 813.817 417.870, 817.433 420.954, 826.945 421.777, 829.484 425.271, 838.854 425.821, 840.330 429.785, 849.510 429.979, 849.960 434.230, 858.377 438.553, 865.586 438.700, 865.787 438.978, 866.169 442.928, 871.596 447.336, 876.426 451.760, 880.101 456.182, 882.647 460.587, 884.093 464.960, 884.475 469.289, 883.830 473.562, 882.197 477.767, 879.612 481.893, 876.120 482.552, 875.409 485.933, 871.762 489.879, 866.578 493.724, 860.611 497.461, 853.903 501.085, 846.495 504.591, 838.424 507.975, 829.733 509.477, 825.460 511.235, 820.459 514.273, 810.931 514.366, 810.638 517.155, 801.035 517.367, 800.306 518.006, 797.900 " fill="none" stroke="rgb(0, 0, 0)" stroke-linecap="butt" stroke-linejoin="round" stroke-opacity="1.0" stroke-width="3.0" />
            <path d=" M 514.565, 789.754 512.084, 798.015 509.039, 807.257 505.878, 815.966 502.607, 824.107 499.228, 831.643 495.747, 838.536 492.169, 844.752 488.500, 850.253 484.746, 854.999 480.916, 858.952 477.016, 862.076 473.058, 864.332 469.049, 865.682 465.002, 866.091 " fill="none" stroke="rgb(0, 0, 0)" stroke-linecap="butt" stroke-linejoin="round" stroke-opacity="1.0" stroke-width="3.0" />
            <path d=" M 554.971, 517.763 548.965, 517.582 548.125, 517.557 546.394, 517.504 546.295, 527.504 546.255, 531.626 546.058, 541.624 545.976, 545.755 545.682, 555.750 545.560, 559.872 545.168, 569.864 545.007, 573.957 544.515, 583.945 544.316, 587.992 543.725, 597.975 543.489, 601.957 542.796, 611.933 542.525, 615.833 541.729, 625.801 541.426, 629.598 540.523, 639.557 540.190, 643.232 539.179, 653.181 538.819, 656.715 537.696, 666.652 537.314, 670.025 536.073, 679.947 535.674, 683.138 534.312, 693.045 533.901, 696.033 532.411, 705.921 531.994, 708.686 531.955, 708.921 " fill="none" stroke="rgb(0, 0, 0)" stroke-linecap="butt" stroke-linejoin="round" stroke-opacity="1.0" stroke-width="3.0" />
            <path d=" M 534.461, 717.354 534.604, 716.445 536.032, 706.548 536.519, 703.172 537.824, 693.257 538.297, 689.656 539.483, 679.727 539.938, 675.922 541.010, 665.980 541.440, 661.992 542.404, 652.039 542.806, 647.890 543.665, 637.927 544.035, 633.637 544.793, 623.666 545.128, 619.254 545.786, 609.276 546.084, 604.762 546.646, 594.778 546.905, 590.181 547.372, 580.192 547.589, 575.530 547.963, 565.537 548.139, 560.830 548.419, 550.834 548.552, 546.099 548.741, 536.101 548.831, 531.356 548.928, 521.356 548.965, 517.582 " fill="none" stroke="rgb(0, 0, 0)" stroke-linecap="butt" stroke-linejoin="round" stroke-opacity="1.0" stroke-width="3.0" />
            <path d=" M 377.295, 571.949 377.415, 581.948 377.536, 591.947 377.582, 595.772 377.863, 605.768 378.145, 615.764 378.244, 619.281 378.691, 629.271 379.137, 639.261 379.275, 642.354 379.892, 652.335 380.508, 662.316 380.666, 664.875 381.460, 674.843 382.253, 684.811 382.406, 686.731 383.384, 696.683 384.363, 706.635 384.479, 707.822 385.653, 717.753 386.827, 727.684 386.870, 728.054 388.253, 737.958 389.562, 747.340 391.168, 757.210 392.534, 765.605 394.382, 775.432 395.765, 782.784 397.879, 792.558 399.234, 798.823 401.642, 808.528 402.918, 813.674 405.654, 823.292 406.795, 827.304 409.901, 836.809 410.841, 839.689 414.369, 849.046 415.034, 850.812 419.048, 859.971 419.351, 860.664 423.770, 869.247 428.269, 876.572 432.829, 882.650 437.430, 887.501 442.052, 891.155 446.679, 893.641 451.295, 894.990 455.885, 895.241 460.433, 894.435 464.929, 892.612 469.359, 889.814 473.713, 886.085 477.983, 881.471 " fill="none" stroke="rgb(0, 0, 0)" stroke-linecap="butt" stroke-linejoin="round" stroke-opacity="1.0" stroke-width="3.0" />
            <path d=" M 477.983, 881.471 484.318, 873.734 485.933, 871.762 " fill="none" stroke="rgb(0, 0, 0)" stroke-linecap="butt" stroke-linejoin="round" stroke-opacity="1.0" stroke-width="3.0" />
            <path d=" M 540.179, 542.637 530.180, 542.773 528.792, 542.792 525.792, 539.932 523.110, 537.374 519.165, 533.612 518.884, 533.344 518.647, 533.117 " fill="none" stroke="rgb(0, 0, 0)" stroke-linecap="butt" stroke-linejoin="round" stroke-opacity="1.0" stroke-width="3.0" />
            <path d=" M 523.425, 500.119 528.760, 491.660 528.996, 491.285 538.971, 491.999 540.426, 492.103 540.535, 502.103 540.643, 512.102 540.700, 517.333 540.558, 527.332 540.500, 531.461 540.213, 541.457 540.179, 542.637 533.084, 535.590 531.330, 533.848 531.060, 533.580 530.789, 533.311 530.518, 533.042 530.248, 532.773 529.933, 532.336 529.635, 531.674 529.360, 530.799 529.144, 529.856 529.114, 529.726 528.904, 528.477 528.732, 527.074 528.602, 525.545 528.516, 523.920 528.509, 523.613 528.476, 522.228 528.484, 520.504 528.538, 518.781 528.619, 517.395 528.637, 517.092 528.781, 515.470 528.965, 513.946 529.186, 512.549 529.260, 512.188 529.441, 511.308 529.723, 510.244 530.028, 509.378 530.348, 508.726 530.621, 508.273 530.895, 507.820 531.169, 507.368 531.443, 506.916 531.581, 506.690 536.766, 498.139 540.426, 492.103 " fill="none" stroke="rgb(0, 0, 0)" stroke-linecap="butt" stroke-linejoin="round" stroke-opacity="1.0" stroke-width="3.0" />
            <path d=" M 530.853, 523.656 530.729, 523.564 530.614, 523.340 530.512, 522.993 530.428, 522.539 530.367, 521.997 530.330, 521.392 530.319, 520.750 530.335, 520.098 530.378, 519.466 530.444, 518.882 530.531, 518.371 530.636, 517.955 530.754, 517.653 530.879, 517.477 531.006, 517.437 " fill="none" stroke="rgb(0, 0, 0)" stroke-linecap="butt" stroke-linejoin="round" stroke-opacity="1.0" stroke-width="3.0" />
            <path d=" M 531.006, 517.437 531.129, 517.531 531.244, 517.758 531.346, 518.105 531.429, 518.559 531.490, 519.098 531.527, 519.702 531.537, 520.342 531.521, 520.990 531.479, 521.620 531.413, 522.203 531.326, 522.713 531.222, 523.130 531.105, 523.433 530.980, 523.611 530.853, 523.656 " fill="none" stroke="rgb(0, 0, 0)" stroke-linecap="butt" stroke-linejoin="round" stroke-opacity="1.0" stroke-width="3.0" />
            <path d=" M 360.577, 500.446 360.433, 503.772 360.139, 513.767 359.844, 523.763 359.768, 526.353 359.611, 536.352 359.454, 546.351 359.414, 548.961 359.400, 556.458 359.381, 566.458 359.372, 571.504 359.492, 581.503 359.612, 591.502 359.641, 593.892 359.902, 603.888 360.163, 613.885 360.220, 616.037 360.371, 619.779 " fill="none" stroke="rgb(0, 0, 0)" stroke-linecap="butt" stroke-linejoin="round" stroke-opacity="1.0" stroke-width="3.0" />
            <path d=" M 540.677, 734.856 542.174, 724.969 542.304, 724.115 543.696, 714.212 544.060, 711.622 545.351, 701.706 545.708, 698.963 546.901, 689.035 547.247, 686.152 548.346, 676.213 548.678, 673.204 549.685, 663.255 550.001, 660.131 550.919, 650.173 551.216, 646.948 552.046, 636.982 552.323, 633.666 553.068, 623.694 553.321, 620.298 553.982, 610.320 554.211, 606.857 554.790, 596.873 554.994, 593.353 555.490, 583.366 555.667, 579.799 556.083, 569.808 556.233, 566.207 556.569, 556.212 556.690, 552.586 556.946, 542.589 557.039, 538.949 557.215, 528.950 557.279, 525.306 557.312, 521.883 " fill="none" stroke="rgb(0, 0, 0)" stroke-linecap="butt" stroke-linejoin="round" stroke-opacity="1.0" stroke-width="3.0" />
            <path d=" M 454.604, 925.015 457.045, 925.187 461.204, 925.391 465.329, 924.766 469.411, 923.339 473.442, 921.142 477.416, 918.205 481.326, 914.559 485.166, 910.235 488.931, 905.264 492.616, 899.675 496.218, 893.500 499.732, 886.766 503.154, 879.504 506.483, 871.740 509.716, 863.502 512.850, 854.817 515.883, 845.710 518.815, 836.206 521.567, 826.592 521.642, 826.328 524.215, 816.665 524.366, 816.100 525.074, 813.244 " fill="none" stroke="rgb(0, 0, 0)" stroke-linecap="butt" stroke-linejoin="round" stroke-opacity="1.0" stroke-width="3.0" />
            <path d=" M 522.175, 204.629 521.092, 201.369 518.121, 193.229 515.035, 185.573 511.836, 178.430 508.526, 171.828 505.108, 165.797 501.584, 160.366 497.958, 155.566 494.233, 151.428 490.415, 147.983 486.507, 145.263 482.515, 143.298 478.446, 142.119 474.306, 141.757 472.884, 141.921 470.104, 142.241 465.846, 143.600 461.544, 145.861 457.205, 149.049 452.842, 153.188 448.465, 158.298 444.086, 164.398 439.719, 171.502 435.378, 179.621 431.119, 188.669 431.075, 188.763 430.201, 190.855 426.828, 198.930 423.330, 208.299 422.650, 210.120 419.759, 218.746 418.559, 222.326 415.668, 231.898 414.570, 235.534 411.939, 245.181 410.700, 249.725 408.306, 259.435 406.965, 264.876 404.791, 274.637 403.384, 280.955 401.412, 290.759 399.971, 297.925 398.189, 307.765 396.744, 315.742 395.139, 325.612 393.718, 334.355 392.281, 344.251 390.908, 353.709 389.631, 363.627 388.329, 373.741 387.206, 383.678 386.082, 393.614 385.995, 394.384 385.018, 404.336 384.042, 414.289 383.917, 415.565 383.083, 425.530 382.250, 435.495 382.107, 437.206 381.412, 447.182 380.718, 457.158 380.574, 459.226 380.015, 469.210 379.457, 479.194 379.326, 481.539 378.902, 491.530 378.478, 501.521 378.371, 504.057 378.080, 514.053 377.789, 524.049 377.712, 526.693 377.553, 536.691 377.395, 546.690 377.353, 549.353 377.327, 559.353 377.301, 569.353 377.295, 571.949 377.403, 581.948 377.511, 591.948 377.537, 594.389 377.780, 604.386 378.024, 614.383 378.077, 616.585 378.459, 626.578 378.840, 636.570 378.912, 638.450 379.435, 648.437 379.957, 658.423 380.035, 659.902 380.703, 669.880 381.371, 679.857 381.438, 680.860 382.257, 690.827 383.076, 700.793 383.114, 701.250 384.090, 711.202 385.051, 721.000 386.192, 730.934 387.238, 740.046 388.553, 749.959 389.664, 758.328 391.163, 768.215 392.313, 775.795 394.010, 785.650 395.172, 792.397 397.082, 802.213 398.226, 808.096 400.366, 817.864 401.460, 822.856 403.851, 832.566 404.857, 836.650 407.526, 846.288 408.403, 849.456 411.379, 859.003 412.081, 861.258 415.400, 870.691 415.876, 872.045 419.581, 881.334 419.772, 881.813 423.754, 890.561 427.807, 898.294 431.917, 905.022 436.070, 910.755 440.253, 915.512 444.453, 919.311 448.659, 922.173 452.860, 924.123 456.794, 925.123 457.045, 925.187 " fill="none" stroke="rgb(0, 0, 0)" stroke-linecap="butt" stroke-linejoin="round" stroke-opacity="1.0" stroke-width="3.0" />
            <path d=" M 471.869, 141.833 467.640, 142.318 463.355, 143.677 459.025, 145.938 454.660, 149.126 450.269, 153.265 445.865, 158.374 441.459, 164.472 437.065, 171.575 432.697, 179.692 428.417, 188.730 428.369, 188.831 427.426, 191.075 424.096, 198.995 420.579, 208.357 419.893, 210.182 416.697, 219.657 415.778, 222.383 412.915, 231.804 411.765, 235.587 409.119, 245.231 407.873, 249.774 405.466, 259.480 404.117, 264.920 401.930, 274.678 400.515, 280.993 398.532, 290.795 397.083, 297.957 395.291, 307.795 393.838, 315.767 392.224, 325.636 390.795, 334.373 389.351, 344.268 387.971, 353.720 386.687, 363.637 385.379, 373.744 384.249, 383.680 383.119, 393.616 383.032, 394.380 382.051, 404.331 381.069, 414.283 380.944, 415.552 380.106, 425.517 379.269, 435.482 379.126, 437.185 378.428, 447.160 377.730, 457.136 377.586, 459.196 377.025, 469.180 376.465, 479.164 376.334, 481.500 375.908, 491.491 375.483, 501.482 375.375, 504.010 375.084, 514.005 374.792, 524.001 374.715, 526.636 374.557, 536.635 374.399, 546.633 374.357, 549.288 374.332, 559.288 374.308, 569.288 374.302, 571.874 374.412, 581.874 374.522, 591.873 374.549, 594.306 374.795, 604.303 375.041, 614.300 375.095, 616.493 375.481, 626.486 375.866, 636.478 375.938, 638.351 376.465, 648.337 376.993, 658.323 377.071, 659.794 377.745, 669.772 378.419, 679.749 378.486, 680.745 379.312, 690.711 380.137, 700.677 380.175, 701.127 381.158, 711.078 382.127, 720.870 383.276, 730.804 384.330, 739.910 385.655, 749.822 386.773, 758.186 388.284, 768.072 389.441, 775.647 391.150, 785.500 392.320, 792.245 394.243, 802.058 395.396, 807.939 397.551, 817.704 398.652, 822.695 401.060, 832.401 402.073, 836.485 404.759, 846.118 405.643, 849.288 408.637, 858.829 409.346, 861.087 412.685, 870.513 413.166, 871.872 416.893, 881.152 417.088, 881.638 421.096, 890.385 425.176, 898.118 429.313, 904.844 433.493, 910.579 437.703, 915.336 441.931, 919.135 446.164, 921.999 450.392, 923.950 454.604, 925.015 " fill="none" stroke="rgb(0, 0, 0)" stroke-linecap="butt" stroke-linejoin="round" stroke-opacity="1.0" stroke-width="3.0" />
            <path d=" M 474.306, 141.757 471.869, 141.833 " fill="none" stroke="rgb(0, 0, 0)" stroke-linecap="butt" stroke-linejoin="round" stroke-opacity="1.0" stroke-width="3.0" />
            <path d=" M 546.701, 749.194 547.027, 747.137 548.488, 737.245 548.967, 734.003 550.326, 724.096 550.793, 720.690 552.054, 710.770 552.506, 707.212 553.672, 697.280 554.106, 693.585 555.180, 683.642 555.593, 679.822 556.578, 669.870 556.967, 665.936 557.866, 655.977 558.229, 651.942 559.043, 641.975 559.379, 637.851 560.110, 627.878 560.417, 623.676 561.066, 613.697 561.344, 609.428 561.912, 599.444 562.158, 595.119 562.647, 585.131 562.861, 580.761 563.271, 570.769 563.452, 566.363 563.784, 556.369 563.931, 551.938 564.185, 541.941 564.298, 537.496 564.474, 527.497 564.553, 523.047 564.563, 522.012 " fill="none" stroke="rgb(0, 0, 0)" stroke-linecap="butt" stroke-linejoin="round" stroke-opacity="1.0" stroke-width="3.0" />
            <path d=" M 456.488, 954.198 458.896, 954.376 463.364, 954.236 467.787, 953.205 472.156, 951.319 476.464, 948.611 480.702, 945.118 484.866, 940.876 488.948, 935.919 492.945, 930.283 496.851, 924.001 500.662, 917.108 504.375, 909.636 507.987, 901.616 511.495, 893.079 514.896, 884.055 518.191, 874.573 521.249, 865.052 521.375, 864.660 524.231, 855.077 524.449, 854.343 527.118, 844.706 527.411, 843.647 529.909, 833.964 530.261, 832.596 531.054, 829.299 531.822, 826.103 " fill="none" stroke="rgb(0, 0, 0)" stroke-linecap="butt" stroke-linejoin="round" stroke-opacity="1.0" stroke-width="3.0" />
            <path d=" M 540.008, 224.322 538.290, 216.678 535.917, 206.964 535.681, 205.999 533.112, 196.334 532.945, 195.705 530.163, 186.100 530.083, 185.824 527.094, 176.381 523.979, 167.407 520.739, 158.929 517.376, 150.979 513.891, 143.589 510.286, 136.790 506.563, 130.616 502.725, 125.102 498.777, 120.283 494.722, 116.193 490.564, 112.870 486.310, 110.348 481.965, 108.665 477.537, 107.855 473.033, 107.955 472.875, 107.991 468.462, 108.997 463.832, 111.016 459.156, 114.043 454.443, 118.107 449.707, 123.235 444.960, 129.450 440.216, 136.773 435.491, 145.221 431.095, 154.203 430.801, 154.805 426.831, 163.984 426.161, 165.533 423.404, 172.693 421.590, 177.406 418.331, 186.860 417.540, 189.156 417.105, 190.419 414.206, 199.781 412.725, 204.563 410.037, 214.195 408.469, 219.818 406.028, 229.515 404.356, 236.160 402.141, 245.912 400.405, 253.558 398.399, 263.354 396.635, 271.971 394.824, 281.805 394.724, 282.347 393.066, 291.352 391.437, 301.219 389.809, 311.085 389.716, 311.647 388.259, 321.540 386.802, 331.434 386.602, 332.792 385.308, 342.708 384.015, 352.624 383.741, 354.719 382.604, 364.654 381.466, 374.589 381.150, 377.350 380.162, 387.301 379.175, 397.253 378.842, 400.603 378.000, 410.568 377.157, 420.532 376.831, 424.389 376.130, 434.364 375.429, 444.340 375.128, 448.614 374.565, 458.598 374.002, 468.582 373.743, 473.180 373.316, 483.171 372.889, 493.162 372.683, 497.987 372.391, 507.982 372.099, 517.978 371.954, 522.930 371.796, 532.928 371.638, 542.927 371.560, 547.904 371.536, 557.904 371.513, 567.904 371.501, 572.805 371.613, 582.804 371.726, 592.804 371.778, 597.528 372.028, 607.525 372.277, 617.522 372.388, 621.970 372.777, 631.962 373.166, 641.955 373.325, 646.032 373.857, 656.018 374.389, 666.004 374.582, 669.618 375.262, 679.595 375.942, 689.572 376.151, 692.636 376.984, 702.601 377.818, 712.567 378.021, 715.001 379.014, 724.951 380.008, 734.902 380.180, 736.632 381.341, 746.564 382.503, 756.497 382.615, 757.456 383.953, 767.366 385.310, 777.408 386.837, 787.290 388.250, 796.427 389.979, 806.277 391.417, 814.463 393.366, 824.272 394.796, 831.473 396.981, 841.231 398.367, 847.418 399.604, 852.324 402.049, 862.020 402.113, 862.272 402.171, 862.477 404.904, 872.097 406.016, 876.012 409.067, 885.535 410.057, 888.624 410.297, 889.286 413.706, 898.687 414.218, 900.100 414.870, 901.680 418.483, 910.438 422.756, 919.479 422.833, 919.642 427.253, 927.720 431.726, 934.687 436.238, 940.559 440.774, 945.360 445.320, 949.114 449.863, 951.847 454.392, 953.591 457.666, 954.162 458.896, 954.376 " fill="none" stroke="rgb(0, 0, 0)" stroke-linecap="butt" stroke-linejoin="round" stroke-opacity="1.0" stroke-width="3.0" />
            <path d=" M 361.911, 469.838 361.728, 473.037 361.295, 483.028 360.862, 493.018 360.655, 497.804 360.577, 500.446 360.283, 510.442 359.988, 520.438 359.921, 522.708 359.765, 532.707 359.608, 542.705 359.531, 547.643 359.515, 556.208 359.496, 566.208 359.488, 570.651 359.484, 572.505 359.604, 582.504 359.725, 592.503 359.781, 597.189 360.018, 606.262 360.279, 616.259 360.371, 619.779 360.418, 621.594 360.823, 631.586 361.228, 641.578 361.391, 645.620 361.448, 646.645 " fill="none" stroke="rgb(0, 0, 0)" stroke-linecap="butt" stroke-linejoin="round" stroke-opacity="1.0" stroke-width="3.0" />
            <path d=" M 470.600, 108.041 466.000, 109.085 461.342, 111.104 456.636, 114.131 451.894, 118.194 447.128, 123.321 442.352, 129.535 437.579, 136.857 432.826, 145.303 428.408, 154.274 428.107, 154.885 424.116, 164.055 423.439, 165.610 419.827, 174.935 418.841, 177.479 415.565, 186.928 414.470, 190.085 414.330, 190.489 411.355, 200.036 409.924, 204.627 409.677, 205.510 406.974, 215.138 405.744, 219.519 405.644, 219.878 403.189, 229.572 401.507, 236.214 399.280, 245.963 397.534, 253.606 395.517, 263.400 393.743, 272.013 391.922, 281.845 390.155, 291.387 388.517, 301.252 386.879, 311.117 386.786, 311.674 385.706, 318.966 384.241, 328.858 383.656, 332.812 382.355, 342.727 381.054, 352.642 380.780, 354.730 379.637, 364.664 378.493, 374.599 378.176, 377.352 377.183, 387.303 376.190, 397.253 375.857, 400.596 375.010, 410.560 374.164, 420.524 373.837, 424.372 373.132, 434.348 372.427, 444.323 372.126, 448.588 371.561, 458.572 370.995, 468.556 370.736, 473.144 370.307, 483.135 369.879, 493.126 369.672, 497.941 369.380, 507.937 369.087, 517.932 368.942, 522.874 368.785, 532.873 368.627, 542.872 368.549, 547.839 368.527, 557.839 368.504, 567.839 368.494, 572.730 368.608, 582.729 368.722, 592.728 368.776, 597.443 369.028, 607.440 369.280, 617.437 369.392, 621.876 369.785, 631.868 370.178, 641.861 370.338, 645.929 370.875, 655.914 371.412, 665.900 371.606, 669.506 372.292, 679.482 372.978, 689.459 373.188, 692.516 374.028, 702.480 374.868, 712.445 375.073, 714.872 376.074, 724.822 377.075, 734.772 377.248, 736.496 378.418, 746.427 379.588, 756.359 379.700, 757.313 381.049, 767.222 382.415, 777.258 383.954, 787.139 385.376, 796.272 387.118, 806.119 388.565, 814.302 390.527, 824.108 391.967, 831.306 392.522, 833.766 394.722, 843.521 395.563, 847.248 397.322, 854.175 399.334, 862.098 400.419, 865.889 403.168, 875.504 403.263, 875.835 406.333, 885.352 407.331, 888.444 407.331, 888.445 410.761, 897.839 411.520, 899.918 415.356, 909.153 415.813, 910.254 420.110, 919.284 420.192, 919.457 424.641, 927.535 429.143, 934.501 433.684, 940.374 438.249, 945.176 442.824, 948.930 447.397, 951.665 451.955, 953.410 456.488, 954.198 " fill="none" stroke="rgb(0, 0, 0)" stroke-linecap="butt" stroke-linejoin="round" stroke-opacity="1.0" stroke-width="3.0" />
            <path d=" M 473.033, 107.955 470.600, 108.041 " fill="none" stroke="rgb(0, 0, 0)" stroke-linecap="butt" stroke-linejoin="round" stroke-opacity="1.0" stroke-width="3.0" />
            <path d=" M 545.456, 229.435 545.255, 228.362 543.259, 218.563 542.839, 216.498 540.681, 206.734 540.291, 204.971 537.957, 195.247 537.611, 193.805 535.087, 184.129 534.799, 183.026 532.066, 173.407 531.854, 172.661 528.892, 163.110 528.777, 162.738 525.568, 153.287 522.228, 144.339 518.757, 135.925 515.157, 128.079 511.430, 120.835 507.578, 114.229 503.604, 108.297 499.511, 103.076 495.303, 98.604 490.985, 94.920 486.562, 92.064 482.041, 90.073 477.427, 88.987 472.730, 88.844 467.891, 89.028 463.058, 89.868 458.160, 91.726 453.206, 94.636 448.209, 98.631 443.182, 103.741 438.139, 109.995 433.094, 117.415 428.065, 126.022 423.525, 134.932 423.067, 135.830 418.971, 144.953 418.119, 146.850 414.414, 156.139 413.239, 159.086 409.883, 168.506 408.448, 172.534 405.403, 182.059 403.764, 187.186 401.001, 196.797 399.210, 203.026 396.702, 212.706 394.805, 220.027 392.532, 229.766 390.572, 238.159 388.514, 247.945 386.530, 257.381 385.056, 265.178 383.200, 275.005 382.701, 277.642 381.032, 287.502 379.363, 297.362 379.105, 298.886 377.614, 308.774 376.122, 318.662 375.763, 321.047 374.439, 330.959 373.116, 340.871 372.691, 344.050 371.528, 353.982 370.365, 363.914 369.909, 367.813 368.900, 377.762 367.891, 387.711 367.431, 392.249 366.572, 402.212 365.712, 412.175 365.273, 417.261 364.559, 427.236 364.421, 429.154 363.707, 439.129 363.448, 442.749 362.875, 452.733 362.303, 462.716 361.965, 468.607 361.911, 469.838 361.479, 479.829 361.440, 480.717 361.007, 490.707 360.833, 494.726 360.539, 504.721 360.244, 514.717 360.060, 520.993 359.903, 530.992 359.746, 540.991 359.647, 547.296 359.631, 555.955 359.612, 565.955 359.605, 569.788 359.598, 573.519 359.718, 583.519 359.838, 593.518 359.911, 599.551 360.172, 609.548 360.438, 619.743 360.563, 624.526 360.583, 625.281 360.987, 635.272 361.392, 645.264 361.448, 646.645 361.499, 647.903 361.608, 650.600 362.160, 660.584 362.711, 670.569 362.978, 675.405 363.682, 685.380 364.385, 695.355 364.685, 699.598 365.545, 709.561 366.406, 719.524 366.714, 723.087 367.740, 733.034 368.765, 742.981 369.054, 745.785 370.252, 755.713 371.450, 765.641 371.688, 767.616 373.069, 777.520 374.450, 787.424 374.601, 788.508 374.624, 788.652 376.200, 798.527 377.775, 808.399 379.559, 818.239 381.190, 827.237 383.200, 837.033 384.829, 844.974 387.084, 854.716 388.671, 861.574 391.194, 871.251 392.696, 877.009 395.517, 886.603 396.885, 891.257 400.036, 900.747 401.217, 904.305 404.740, 913.664 405.674, 916.146 409.615, 925.336 410.235, 926.780 414.654, 935.750 414.883, 936.214 419.599, 944.460 424.367, 951.534 429.170, 957.458 433.993, 962.256 438.822, 965.957 443.642, 968.592 448.442, 970.194 453.210, 970.799 457.999, 971.164 462.665, 970.802 467.278, 969.516 471.831, 967.344 476.316, 964.324 480.724, 960.495 485.050, 955.895 489.288, 950.561 493.433, 944.532 497.480, 937.843 501.426, 930.531 505.267, 922.628 509.000, 914.170 512.623, 905.187 516.097, 895.810 516.134, 895.712 519.368, 886.249 519.531, 885.774 522.548, 876.240 522.813, 875.401 525.631, 865.806 525.979, 864.622 528.615, 854.975 529.028, 853.462 531.495, 843.771 531.960, 841.946 534.270, 832.217 534.596, 830.843 " fill="none" stroke="rgb(0, 0, 0)" stroke-linecap="butt" stroke-linejoin="round" stroke-opacity="1.0" stroke-width="3.0" />
            <path d=" M 549.019, 754.231 549.173, 753.248 550.621, 743.353 551.162, 739.657 552.508, 729.748 553.033, 725.888 554.283, 715.967 554.788, 711.957 555.944, 702.024 556.426, 697.878 557.492, 687.935 557.949, 683.666 558.926, 673.714 559.357, 669.333 560.248, 659.372 560.649, 654.892 561.456, 644.925 561.826, 640.356 562.552, 630.382 562.889, 625.737 563.534, 615.758 563.838, 611.047 564.402, 601.063 564.672, 596.296 565.158, 586.308 565.392, 581.496 565.800, 571.504 565.998, 566.657 566.329, 556.663 566.490, 551.791 566.744, 541.794 566.868, 536.908 567.045, 526.909 567.131, 522.018 567.141, 520.973 " fill="none" stroke="rgb(0, 0, 0)" stroke-linecap="butt" stroke-linejoin="round" stroke-opacity="1.0" stroke-width="3.0" />
            <path d=" M 472.730, 88.844 467.957, 89.683 463.119, 91.539 458.227, 94.449 453.291, 98.444 448.325, 103.555 443.342, 109.810 438.358, 117.234 433.388, 125.844 428.893, 134.777 428.449, 135.658 424.395, 144.799 423.559, 146.683 420.955, 153.294 418.737, 158.926 415.417, 168.359 414.000, 172.382 410.989, 181.918 409.371, 187.044 406.638, 196.663 404.868, 202.893 404.654, 203.728 402.174, 213.415 400.513, 219.906 399.750, 223.212 397.502, 232.956 396.326, 238.051 394.291, 247.842 394.031, 249.096 392.329, 257.286 390.492, 267.116 388.656, 276.946 388.541, 277.562 386.891, 287.425 385.240, 297.288 384.984, 298.822 383.508, 308.713 383.256, 310.405 381.781, 320.296 381.676, 320.999 380.366, 330.913 379.057, 340.827 378.636, 344.020 377.485, 353.953 376.334, 363.887 375.881, 367.802 374.882, 377.752 374.079, 385.758 373.427, 392.257 372.576, 402.220 371.725, 412.184 371.289, 417.289 370.581, 427.264 369.873, 437.239 369.478, 442.797 368.911, 452.781 368.343, 462.765 368.007, 468.676 367.577, 478.666 367.147, 488.657 366.882, 494.815 366.589, 504.811 366.296, 514.807 366.111, 521.103 365.954, 531.102 365.797, 541.101 365.697, 547.427 365.676, 557.427 365.655, 567.427 365.642, 573.671 365.758, 583.670 365.874, 593.670 365.944, 599.723 366.199, 609.720 366.454, 619.717 366.601, 625.473 366.998, 635.465 367.394, 645.457 367.607, 650.811 368.149, 660.796 368.691, 670.782 368.954, 675.635 369.646, 685.611 370.338, 695.587 370.633, 699.846 371.481, 709.810 372.328, 719.774 372.632, 723.351 373.642, 733.300 374.652, 743.249 374.938, 746.066 376.118, 755.996 377.298, 765.926 377.534, 767.911 378.895, 777.818 380.256, 787.725 380.317, 788.165 380.406, 788.817 380.955, 792.308 382.508, 802.187 383.536, 808.721 385.295, 818.565 386.905, 827.569 388.154, 833.743 389.388, 839.844 390.494, 845.317 392.719, 855.066 394.285, 861.926 396.776, 871.611 397.799, 875.587 398.257, 877.369 401.042, 886.973 402.391, 891.623 405.504, 901.126 406.666, 904.676 410.147, 914.050 410.875, 916.009 411.065, 916.521 414.963, 925.730 415.567, 927.159 419.940, 936.152 420.155, 936.595 424.812, 944.842 429.519, 951.916 434.261, 957.839 439.023, 962.635 443.791, 966.334 448.551, 968.966 453.291, 970.564 457.999, 971.164 " fill="none" stroke="rgb(0, 0, 0)" stroke-linecap="butt" stroke-linejoin="round" stroke-opacity="1.0" stroke-width="3.0" />
            <path d=" M 565.290, 522.025 565.309, 520.940 565.318, 520.389 565.383, 518.767 565.429, 518.031 565.483, 517.187 565.616, 515.676 565.780, 514.260 565.972, 512.962 566.013, 512.747 566.190, 511.806 566.428, 510.810 566.684, 509.992 566.952, 509.364 567.228, 508.937 567.262, 508.909 567.507, 508.716 567.785, 508.707 " fill="none" stroke="rgb(0, 0, 0)" stroke-linecap="butt" stroke-linejoin="round" stroke-opacity="1.0" stroke-width="3.0" />
            <path d=" M 567.995, 520.988 567.991, 520.478 567.972, 519.988 567.939, 519.530 567.894, 519.118 567.836, 518.762 567.768, 518.472 567.692, 518.256 567.609, 518.120 567.522, 518.067 " fill="none" stroke="rgb(0, 0, 0)" stroke-linecap="butt" stroke-linejoin="round" stroke-opacity="1.0" stroke-width="3.0" />
            <path d=" M 531.491, 477.639 531.467, 483.302 531.640, 483.305 537.025, 483.375 537.232, 483.330 537.112, 477.695 531.744, 477.591 531.512, 477.635 531.491, 477.639 " fill="none" stroke="rgb(0, 0, 0)" stroke-linecap="butt" stroke-linejoin="round" stroke-opacity="1.0" stroke-width="3.0" />
            <path d=" M 537.051, 477.707 531.491, 477.639 " fill="none" stroke="rgb(0, 0, 0)" stroke-linecap="butt" stroke-linejoin="round" stroke-opacity="1.0" stroke-width="3.0" />
            <path d=" M 537.025, 483.375 537.051, 477.707 537.112, 477.695 " fill="none" stroke="rgb(0, 0, 0)" stroke-linecap="butt" stroke-linejoin="round" stroke-opacity="1.0" stroke-width="3.0" />
            <path d=" M 533.452, 479.709 533.313, 479.880 533.210, 480.073 533.147, 480.283 533.124, 480.501 533.147, 480.733 533.214, 480.948 533.320, 481.143 533.461, 481.312 533.631, 481.450 533.825, 481.553 533.833, 481.557 533.935, 481.588 533.945, 481.591 533.979, 481.601 534.038, 481.619 534.051, 481.621 534.073, 481.623 534.087, 481.624 534.253, 481.639 " fill="none" stroke="rgb(0, 0, 0)" stroke-linecap="butt" stroke-linejoin="round" stroke-opacity="1.0" stroke-width="3.0" />
            <path d=" M 533.661, 479.546 533.620, 479.569 533.542, 479.634 533.529, 479.645 533.452, 479.709 533.533, 479.641 " fill="none" stroke="rgb(0, 0, 0)" stroke-linecap="butt" stroke-linejoin="round" stroke-opacity="1.0" stroke-width="3.0" />
            <path d=" M 534.566, 481.597 534.715, 481.543 534.854, 481.467 534.982, 481.372 535.095, 481.259 535.190, 481.131 535.267, 480.990 535.323, 480.839 535.357, 480.681 535.369, 480.520 535.359, 480.359 535.326, 480.201 535.271, 480.048 535.196, 479.905 535.101, 479.775 534.989, 479.659 534.863, 479.561 534.724, 479.481 534.576, 479.423 534.421, 479.387 534.263, 479.373 534.104, 479.383 " fill="none" stroke="rgb(0, 0, 0)" stroke-linecap="butt" stroke-linejoin="round" stroke-opacity="1.0" stroke-width="3.0" />
            <path d=" M 534.094, 481.626 534.253, 481.639 534.411, 481.630 " fill="none" stroke="rgb(0, 0, 0)" stroke-linecap="butt" stroke-linejoin="round" stroke-opacity="1.0" stroke-width="3.0" />
            <path d=" M 534.411, 481.630 534.454, 481.622 534.566, 481.597 " fill="none" stroke="rgb(0, 0, 0)" stroke-linecap="butt" stroke-linejoin="round" stroke-opacity="1.0" stroke-width="3.0" />
            <path d=" M 534.104, 479.383 534.031, 479.396 533.949, 479.415 533.815, 479.463 533.800, 479.470 " fill="none" stroke="rgb(0, 0, 0)" stroke-linecap="butt" stroke-linejoin="round" stroke-opacity="1.0" stroke-width="3.0" />
            <path d=" M 533.800, 479.470 533.661, 479.546 " fill="none" stroke="rgb(0, 0, 0)" stroke-linecap="butt" stroke-linejoin="round" stroke-opacity="1.0" stroke-width="3.0" />
            <path d=" M 533.940, 481.589 533.979, 481.601 " fill="none" stroke="rgb(0, 0, 0)" stroke-linecap="butt" stroke-linejoin="round" stroke-opacity="1.0" stroke-width="3.0" />
            <path d=" M 626.547, 892.612 628.718, 893.112 636.630, 894.391 644.535, 894.932 652.416, 894.750 660.257, 893.866 668.042, 892.298 675.757, 890.068 683.388, 887.194 690.923, 883.701 698.349, 879.608 705.656, 874.938 712.832, 869.714 719.870, 863.956 726.758, 857.688 733.491, 850.932 740.059, 843.708 746.456, 836.039 752.549, 828.110 752.676, 827.945 758.468, 819.793 758.713, 819.448 764.213, 811.096 764.561, 810.567 769.780, 802.037 770.217, 801.324 775.164, 792.633 775.674, 791.737 780.359, 782.902 780.930, 781.825 785.361, 772.861 785.980, 771.609 790.166, 762.527 790.822, 761.105 794.771, 751.917 795.452, 750.331 799.170, 741.048 799.868, 739.306 803.361, 729.936 804.066, 728.046 807.342, 718.598 808.045, 716.569 811.108, 707.049 811.803, 704.889 814.658, 695.305 815.337, 693.024 817.988, 683.382 818.646, 680.989 821.098, 671.294 821.729, 668.798 823.984, 659.056 824.582, 656.468 826.644, 646.683 827.207, 644.013 829.077, 634.190 829.600, 631.448 831.282, 621.590 831.760, 618.786 833.255, 608.898 833.687, 606.042 834.997, 596.128 835.379, 593.230 836.504, 583.293 836.836, 580.364 837.776, 570.408 838.055, 567.457 838.812, 557.486 839.036, 554.524 839.609, 544.540 839.779, 541.578 840.166, 531.585 840.281, 528.632 840.483, 518.634 840.542, 515.701 840.557, 505.701 840.561, 502.799 840.387, 492.801 840.338, 489.939 839.973, 479.946 839.870, 477.136 839.312, 467.152 839.158, 464.404 838.403, 454.432 838.201, 451.757 837.246, 441.802 836.997, 439.210 835.838, 429.277 835.547, 426.778 834.179, 416.872 833.849, 414.477 832.268, 404.603 831.903, 402.323 830.102, 392.486 829.708, 390.330 827.682, 380.537 827.264, 378.516 825.007, 368.774 824.572, 366.897 822.074, 357.214 821.630, 355.490 818.885, 345.874 818.439, 344.314 815.437, 334.775 815.000, 333.386 811.731, 323.935 811.312, 322.725 807.766, 313.374 807.377, 312.349 803.542, 303.113 803.196, 302.279 799.060, 293.174 798.770, 292.534 794.321, 283.578 794.101, 283.134 789.325, 274.348 789.190, 274.102 784.042, 265.457 778.659, 257.222 773.043, 249.419 767.200, 242.071 761.134, 235.201 754.851, 228.831 748.357, 222.984 741.657, 217.685 734.761, 212.957 727.676, 208.824 720.411, 205.307 712.978, 202.431 705.387, 200.218 697.649, 198.689 689.779, 197.866 681.791, 197.768 673.700, 198.416 671.469, 198.597 " fill="none" stroke="rgb(0, 0, 0)" stroke-linecap="butt" stroke-linejoin="round" stroke-opacity="1.0" stroke-width="3.0" />
            <path d=" M 628.718, 893.112 627.171, 892.713 620.818, 891.077 612.948, 888.271 605.128, 884.683 597.379, 880.300 589.723, 875.114 582.181, 869.118 574.776, 862.308 567.888, 855.058 567.531, 854.683 561.114, 847.013 560.470, 846.243 554.517, 838.209 553.618, 836.995 548.116, 828.645 546.997, 826.946 541.934, 818.323 540.633, 816.108 538.637, 812.298 536.067, 807.392 534.673, 804.731 534.594, 804.581 534.550, 804.496 530.316, 795.436 529.642, 793.993 528.771, 792.129 528.286, 790.964 525.408, 784.049 523.320, 779.031 522.994, 778.148 520.452, 771.270 518.220, 765.228 515.116, 755.722 513.493, 750.750 510.737, 741.137 509.159, 735.633 506.740, 725.930 505.562, 721.204 505.240, 719.915 503.145, 710.137 501.753, 703.638 499.973, 693.798 498.716, 686.848 497.241, 676.957 496.143, 669.594 494.966, 659.664 494.049, 651.929 493.162, 641.968 492.444, 633.907 491.842, 623.925 491.339, 615.586 491.016, 605.591 490.740, 597.026 490.693, 587.026 490.652, 578.289 490.877, 568.291 491.077, 559.437 491.573, 549.449 492.016, 540.534 492.781, 530.563 493.465, 521.645 493.691, 519.467 494.514, 511.556 494.514, 511.553 495.420, 502.834 496.723, 492.919 497.873, 484.164 499.447, 474.289 500.815, 465.699 502.661, 455.871 503.378, 452.054 504.234, 447.500 506.355, 437.728 508.114, 429.627 510.516, 419.920 512.441, 412.138 515.127, 402.505 517.196, 395.086 520.172, 385.539 522.359, 378.526 525.632, 369.076 527.909, 362.505 531.350, 353.523 533.362, 348.272 533.823, 347.068 536.543, 340.629 539.897, 332.686 540.078, 332.259 544.291, 323.190 544.863, 321.957 546.386, 318.679 546.648, 318.115 549.764, 312.008 552.040, 307.548 553.508, 304.670 553.559, 304.580 556.330, 299.634 557.385, 297.752 557.998, 296.658 560.633, 291.955 565.875, 283.439 567.995, 279.996 573.603, 271.716 575.569, 268.814 581.554, 260.803 583.327, 258.429 585.485, 255.820 585.489, 255.814 585.551, 255.739 591.244, 248.854 598.013, 241.493 599.293, 240.101 606.464, 233.132 607.448, 232.176 615.026, 225.651 615.685, 225.083 623.667, 219.059 623.979, 218.823 632.308, 213.393 640.647, 208.788 648.976, 204.999 657.274, 202.016 665.522, 199.827 673.673, 198.421 673.700, 198.416 " fill="none" stroke="rgb(0, 0, 0)" stroke-linecap="butt" stroke-linejoin="round" stroke-opacity="1.0" stroke-width="3.0" />
            <path d=" M 671.469, 198.597 663.280, 200.008 655.022, 202.196 646.714, 205.178 638.375, 208.964 630.025, 213.567 621.687, 218.992 613.700, 225.009 613.383, 225.247 605.799, 231.765 605.137, 232.334 597.959, 239.295 596.973, 240.251 590.198, 247.606 588.916, 248.996 583.914, 255.034 580.992, 258.562 575.000, 266.567 573.226, 268.937 567.611, 277.211 565.646, 280.107 560.396, 288.618 558.277, 292.054 557.310, 293.777 556.681, 294.896 555.917, 296.258 553.140, 301.205 551.591, 303.963 551.146, 304.756 546.594, 313.660 545.904, 315.010 544.355, 318.040 544.280, 318.186 540.061, 327.253 537.705, 332.315 534.003, 341.066 532.770, 343.978 531.446, 347.108 529.321, 352.644 525.738, 361.980 525.528, 362.527 522.250, 371.974 519.975, 378.530 519.569, 379.830 516.588, 389.375 516.115, 390.890 514.809, 395.072 512.119, 404.703 510.052, 412.104 507.647, 421.810 505.723, 429.573 503.599, 439.345 501.842, 447.426 499.993, 457.253 498.423, 465.604 496.847, 475.479 495.481, 484.047 494.657, 490.308 493.353, 500.223 493.028, 502.695 492.529, 507.491 492.354, 509.172 492.111, 511.516 491.578, 516.633 491.566, 516.750 491.267, 519.628 491.207, 520.205 491.074, 521.485 490.309, 531.456 489.626, 540.352 489.131, 550.340 488.690, 559.234 488.465, 569.231 488.267, 578.064 488.315, 588.064 488.358, 596.780 488.683, 606.775 488.961, 615.319 489.566, 625.301 490.070, 633.620 490.960, 643.580 491.679, 651.622 492.860, 661.552 493.778, 669.269 495.258, 679.159 496.356, 686.504 498.142, 696.343 499.400, 703.277 501.500, 713.053 502.893, 719.537 504.574, 726.260 506.819, 735.239 509.581, 744.850 509.940, 746.098 511.159, 750.342 514.270, 759.845 515.894, 764.805 519.367, 774.183 519.630, 774.893 521.002, 778.596 522.193, 781.451 522.904, 783.156 526.461, 791.683 527.602, 794.118 528.956, 797.009 532.248, 804.039 534.082, 807.532 535.473, 810.181 538.057, 815.101 538.341, 815.641 543.412, 824.260 544.714, 826.471 550.223, 834.816 551.343, 836.513 557.305, 844.542 558.206, 845.755 564.630, 853.418 565.276, 854.189 572.171, 861.432 572.531, 861.811 579.946, 868.618 587.499, 874.612 595.165, 879.796 602.925, 884.179 610.755, 887.768 618.636, 890.575 626.547, 892.612 " fill="none" stroke="rgb(0, 0, 0)" stroke-linecap="butt" stroke-linejoin="round" stroke-opacity="1.0" stroke-width="3.0" />
            <path d=" M 789.257, 556.172 779.275, 555.571 778.532, 555.526 773.991, 554.029 764.494, 550.898 754.997, 547.767 754.541, 547.616 753.843, 547.386 753.144, 547.155 752.443, 546.924 751.743, 546.693 750.926, 546.291 750.154, 545.640 749.441, 544.752 748.803, 543.644 748.252, 542.337 747.800, 540.855 747.453, 539.227 747.221, 537.484 747.106, 535.658 747.112, 533.787 747.238, 531.905 747.483, 530.050 747.840, 528.257 748.081, 527.376 748.304, 526.560 748.864, 524.994 749.380, 523.872 749.511, 523.587 750.231, 522.366 750.890, 521.511 751.010, 521.355 751.833, 520.572 752.537, 520.016 753.242, 519.460 753.946, 518.904 754.649, 518.350 755.002, 518.072 756.298, 517.052 764.155, 510.865 772.012, 504.679 778.862, 499.286 " fill="none" stroke="rgb(0, 0, 0)" stroke-linecap="butt" stroke-linejoin="round" stroke-opacity="1.0" stroke-width="3.0" />
            <path d=" M 687.032, 282.370 679.821, 282.709 678.666, 282.763 675.572, 283.206 670.212, 283.974 661.694, 286.030 658.972, 286.958 653.140, 288.947 644.579, 292.732 636.039, 297.383 627.647, 302.821 627.547, 302.886 619.561, 308.904 619.129, 309.230 611.569, 315.775 610.820, 316.423 603.700, 323.445 602.658, 324.472 595.981, 331.916 594.678, 333.368 588.440, 341.184 586.915, 343.094 581.104, 351.232 579.400, 353.619 574.001, 362.036 572.161, 364.905 570.219, 368.266 569.837, 368.926 566.751, 374.263 565.223, 376.908 563.686, 379.861 561.124, 384.784 560.483, 386.016 559.498, 387.910 558.619, 389.599 556.286, 394.597 554.665, 398.071 554.161, 399.151 552.513, 402.682 552.389, 402.948 548.543, 412.178 546.570, 416.915 545.948, 418.594 544.306, 423.033 541.192, 431.450 541.036, 431.929 537.932, 441.435 536.280, 446.496 533.531, 456.111 531.851, 461.987 531.145, 464.836 528.739, 474.542 527.917, 477.858 525.847, 487.641 524.493, 494.043 523.425, 500.119 521.695, 509.968 521.605, 510.483 520.862, 515.787 520.730, 516.731 520.656, 517.257 519.788, 523.455 519.276, 527.113 518.647, 533.117 517.605, 543.063 517.521, 543.862 516.824, 553.838 516.348, 560.658 515.994, 570.652 515.755, 577.430 515.741, 587.430 515.732, 594.107 516.056, 604.101 516.269, 610.695 516.919, 620.674 517.334, 627.043 517.820, 631.966 518.803, 641.918 518.918, 643.082 519.209, 645.257 520.533, 655.169 521.011, 658.747 522.686, 668.605 523.599, 673.974 524.447, 678.049 526.485, 687.840 526.666, 688.707 529.079, 698.412 530.193, 702.891 531.824, 708.472 531.955, 708.921 532.620, 711.195 533.901, 715.578 534.162, 716.473 534.461, 717.354 537.673, 726.824 538.550, 729.408 539.281, 731.282 540.677, 734.856 541.166, 736.110 542.517, 739.571 543.331, 741.655 545.303, 746.067 546.222, 748.123 546.701, 749.194 548.481, 753.177 549.019, 754.231 553.565, 763.138 553.975, 763.941 559.006, 772.583 559.784, 773.919 565.320, 782.247 565.880, 783.091 571.939, 791.046 572.236, 791.437 578.823, 798.942 585.612, 805.600 592.575, 811.406 599.684, 816.356 606.913, 820.454 612.036, 822.731 614.233, 823.707 621.620, 826.123 629.049, 827.714 636.495, 828.494 643.936, 828.481 651.349, 827.693 658.714, 826.149 666.012, 823.873 673.224, 820.888 680.331, 817.218 687.319, 812.886 694.172, 807.920 700.876, 802.347 707.416, 796.191 713.783, 789.480 719.963, 782.242 725.947, 774.503 731.725, 766.288 737.128, 757.873 737.288, 757.625 742.356, 749.005 742.628, 748.542 747.373, 739.739 747.738, 739.062 752.173, 730.099 752.611, 729.213 756.747, 720.108 757.241, 719.019 761.088, 709.789 761.623, 708.506 765.190, 699.164 765.750, 697.698 769.047, 688.257 769.619, 686.620 772.653, 677.091 773.225, 675.295 776.004, 665.689 776.565, 663.747 779.093, 654.072 779.635, 651.999 781.917, 642.263 782.431, 640.074 784.473, 630.285 784.951, 627.995 786.756, 618.160 787.192, 615.785 788.763, 605.909 789.152, 603.464 790.491, 593.554 790.829, 591.056 791.938, 581.118 792.221, 578.583 793.099, 568.621 793.325, 566.065 793.974, 556.086 794.140, 553.525 794.559, 543.534 794.666, 540.985 794.726, 537.829 " fill="none" stroke="rgb(0, 0, 0)" stroke-linecap="butt" stroke-linejoin="round" stroke-opacity="1.0" stroke-width="3.0" />
            <path d=" M 778.862, 499.286 788.820, 500.202 789.630, 500.276 " fill="none" stroke="rgb(0, 0, 0)" stroke-linecap="butt" stroke-linejoin="round" stroke-opacity="1.0" stroke-width="3.0" />
            <path d=" M 824.493, 515.749 824.194, 505.753 824.189, 505.600 823.621, 495.616 823.480, 493.152 822.635, 483.188 822.434, 480.817 821.954, 476.589 821.050, 468.619 819.635, 458.719 819.329, 456.581 817.624, 446.727 817.277, 444.724 815.281, 434.926 814.902, 433.066 812.603, 423.334 812.201, 421.632 809.583, 411.981 809.170, 410.455 806.218, 400.900 805.805, 399.565 802.505, 390.125 802.109, 388.991 798.450, 379.684 798.086, 378.758 794.057, 369.606 793.742, 368.890 789.338, 359.911 789.088, 359.401 784.299, 350.622 784.130, 350.314 778.934, 341.770 778.870, 341.665 773.309, 333.493 767.453, 325.830 761.312, 318.706 754.896, 312.143 748.220, 306.157 741.297, 300.763 734.138, 295.996 726.753, 291.896 719.158, 288.499 719.157, 288.499 711.368, 285.832 703.404, 283.916 695.285, 282.760 687.032, 282.370 " fill="none" stroke="rgb(0, 0, 0)" stroke-linecap="butt" stroke-linejoin="round" stroke-opacity="1.0" stroke-width="3.0" />
            <path d=" M 658.972, 286.958 659.767, 287.296 665.967, 290.718 671.991, 294.822 677.828, 299.576 683.469, 304.937 688.906, 310.870 694.130, 317.361 699.129, 324.393 703.894, 331.943 708.420, 339.983 712.702, 348.481 716.738, 357.399 720.529, 366.701 723.968, 376.091 724.069, 376.367 727.183, 385.870 727.351, 386.381 730.153, 395.980 730.369, 396.721 732.873, 406.403 733.122, 407.364 735.341, 417.115 735.607, 418.282 737.557, 428.090 737.827, 429.446 739.523, 439.301 739.786, 440.825 741.240, 450.719 741.486, 452.395 742.699, 462.321 742.921, 464.139 743.897, 474.091 744.088, 476.038 744.830, 486.010 744.984, 488.071 745.499, 498.057 745.610, 500.214 745.792, 506.388 745.676, 507.620 745.503, 508.833 745.274, 510.016 744.992, 511.155 744.659, 512.241 744.279, 513.259 743.856, 514.201 743.394, 515.056 742.897, 515.816 742.372, 516.471 741.824, 517.016 741.258, 517.445 740.680, 517.753 740.096, 517.938 735.224, 518.980 732.296, 519.607 " fill="none" stroke="rgb(0, 0, 0)" stroke-linecap="butt" stroke-linejoin="round" stroke-opacity="1.0" stroke-width="3.0" />
            <path d=" M 800.283, 535.820 801.185, 535.878 803.243, 536.010 812.952, 533.613 813.070, 533.583 815.019, 533.102 822.855, 531.167 824.612, 530.733 824.811, 530.693 830.755, 529.473 830.725, 519.473 830.715, 516.289 830.422, 506.293 830.330, 503.170 829.770, 493.185 829.599, 490.139 828.768, 480.173 828.522, 477.220 827.413, 467.282 827.096, 464.438 825.705, 454.535 825.323, 451.816 823.642, 441.958 823.202, 439.379 821.224, 429.577 820.734, 427.154 818.449, 417.418 817.920, 415.164 815.318, 405.509 814.760, 403.437 814.607, 402.936 811.679, 393.374 811.258, 391.998 808.235, 383.253 807.413, 380.875 803.795, 371.552 803.229, 370.095 799.248, 360.922 798.711, 359.685 794.351, 350.685 793.861, 349.674 789.107, 340.876 788.683, 340.092 783.812, 332.008 783.185, 330.966 778.189, 323.540 777.372, 322.326 771.354, 314.340 771.250, 314.203 764.829, 306.625 758.118, 299.623 751.126, 293.226 743.866, 287.465 736.350, 282.369 728.593, 277.965 720.610, 274.284 712.418, 271.353 704.036, 269.197 695.483, 267.841 686.782, 267.310 676.784, 267.115 666.786, 266.920 666.089, 266.906 " fill="none" stroke="rgb(0, 0, 0)" stroke-linecap="butt" stroke-linejoin="round" stroke-opacity="1.0" stroke-width="3.0" />
            <path d=" M 686.782, 267.310 677.955, 267.625 676.149, 267.864 669.028, 268.805 662.599, 270.276 660.026, 270.866 650.977, 273.824 641.912, 277.690 635.704, 280.969 635.544, 281.053 632.859, 282.471 624.409, 287.818 623.852, 288.170 615.819, 294.126 614.924, 294.791 607.322, 301.288 606.108, 302.326 598.943, 309.302 597.439, 310.767 590.713, 318.166 588.954, 320.101 582.662, 327.874 580.688, 330.312 574.823, 338.411 572.678, 341.374 567.650, 349.113 567.204, 349.800 564.958, 353.258 562.136, 358.097 559.503, 362.612 557.891, 365.375 557.566, 365.933 552.927, 374.792 552.438, 375.725 550.802, 378.850 550.536, 379.358 546.286, 388.410 543.901, 393.489 540.031, 402.710 539.218, 404.648 537.694, 408.278 534.197, 417.646 531.948, 423.671 528.815, 433.168 526.689, 439.610 523.914, 449.217 521.946, 456.032 519.523, 465.734 517.742, 472.871 515.669, 482.654 514.099, 490.059 512.372, 499.908 511.036, 507.522 509.795, 516.402 508.567, 525.187 507.526, 535.133 506.705, 542.979 506.008, 552.954 505.459, 560.820 505.107, 570.814 504.832, 578.634 504.829, 588.634 504.827, 596.344 " fill="none" stroke="rgb(0, 0, 0)" stroke-linecap="butt" stroke-linejoin="round" stroke-opacity="1.0" stroke-width="3.0" />
            <path d=" M 756.298, 517.052 756.238, 513.189 756.264, 510.391 756.221, 510.614 755.940, 511.759 755.609, 512.849 755.231, 513.873 754.810, 514.820 754.351, 515.679 753.858, 516.443 753.337, 517.102 752.792, 517.649 752.230, 518.081 751.657, 518.391 751.077, 518.576 750.916, 518.611 746.341, 519.607 736.569, 521.733 733.986, 522.295 733.430, 521.136 732.789, 520.153 732.296, 519.607 732.074, 519.361 731.297, 518.775 731.284, 518.770 730.471, 518.405 729.609, 518.257 719.626, 517.672 718.449, 517.603 717.560, 517.680 716.665, 517.980 716.576, 518.033 715.780, 518.500 714.952, 519.232 714.199, 520.167 713.500, 521.285 712.868, 522.569 712.313, 523.997 711.846, 525.543 711.473, 527.183 711.202, 528.887 711.038, 530.627 710.983, 532.372 720.962, 533.023 722.184, 533.102 727.027, 532.031 727.050, 531.476 727.092, 531.123 727.116, 530.926 727.223, 530.397 727.369, 529.903 727.549, 529.457 727.758, 529.072 727.991, 528.759 728.112, 528.646 728.242, 528.525 728.503, 528.377 728.767, 528.320 " fill="none" stroke="rgb(0, 0, 0)" stroke-linecap="butt" stroke-linejoin="round" stroke-opacity="1.0" stroke-width="3.0" />
            <path d=" M 804.994, 523.578 807.866, 522.886 808.382, 522.711 808.893, 522.428 809.396, 522.040 809.886, 521.552 810.360, 520.969 810.814, 520.297 811.244, 519.540 811.647, 518.707 812.021, 517.802 812.362, 516.834 812.668, 515.810 812.936, 514.737 813.164, 513.625 813.350, 512.481 822.946, 515.295 823.070, 515.331 824.493, 515.749 824.326, 516.458 824.023, 517.487 823.684, 518.460 823.313, 519.369 823.066, 519.887 822.913, 520.207 822.486, 520.968 822.036, 521.644 821.566, 522.230 821.080, 522.721 820.582, 523.111 820.076, 523.396 819.565, 523.572 813.501, 525.061 806.896, 526.683 806.377, 525.492 805.777, 524.481 805.104, 523.668 804.994, 523.578 804.370, 523.068 803.587, 522.690 802.769, 522.541 800.671, 522.418 799.500, 522.350 790.896, 521.846 790.182, 521.916 790.048, 521.929 789.504, 522.128 789.192, 522.243 788.343, 522.782 787.551, 523.542 786.832, 524.509 786.164, 525.666 785.557, 526.993 785.023, 528.468 784.571, 530.065 784.208, 531.758 783.941, 533.517 783.774, 535.312 783.711, 537.112 789.868, 537.513 790.042, 537.524 794.726, 537.829 795.633, 537.889 800.156, 536.772 800.216, 536.757 800.241, 536.184 800.283, 535.820 800.307, 535.617 800.411, 535.070 800.552, 534.560 800.725, 534.099 800.925, 533.702 801.148, 533.377 801.235, 533.288 801.386, 533.135 801.634, 532.981 801.884, 532.920 " fill="none" stroke="rgb(0, 0, 0)" stroke-linecap="butt" stroke-linejoin="round" stroke-opacity="1.0" stroke-width="3.0" />
            <path d=" M 773.991, 554.029 773.336, 564.007 773.326, 564.157 772.432, 574.117 772.214, 576.546 771.082, 586.482 770.808, 588.890 769.437, 598.795 769.109, 601.167 767.499, 611.036 767.121, 613.356 765.268, 623.183 764.844, 625.433 762.748, 635.211 762.283, 637.378 759.939, 647.100 759.440, 649.169 756.844, 658.826 756.319, 660.782 753.466, 670.366 752.922, 672.194 749.807, 681.697 749.255, 683.383 745.872, 692.794 745.321, 694.326 741.662, 703.633 741.125, 704.999 737.181, 714.188 736.671, 715.377 732.434, 724.435 731.966, 725.436 727.427, 734.347 727.016, 735.154 722.162, 743.897 721.826, 744.502 716.647, 753.056 716.404, 753.457 710.888, 761.798 710.759, 761.993 704.897, 770.085 698.829, 777.704 692.565, 784.827 686.114, 791.427 679.489, 797.477 672.702, 802.949 665.766, 807.820 658.697, 812.064 651.509, 815.655 644.219, 818.566 636.845, 820.778 629.405, 822.266 621.919, 823.008 614.408, 822.985 612.036, 822.731 " fill="none" stroke="rgb(0, 0, 0)" stroke-linecap="butt" stroke-linejoin="round" stroke-opacity="1.0" stroke-width="3.0" />
            <path d=" M 790.042, 537.524 789.985, 540.598 789.518, 550.587 789.257, 556.172 779.770, 553.009 778.667, 552.641 774.166, 551.139 766.024, 548.424 765.332, 548.193 764.640, 547.962 763.945, 547.730 763.252, 547.499 762.443, 547.095 761.677, 546.442 760.972, 545.550 760.340, 544.438 759.796, 543.125 759.349, 541.636 759.007, 540.000 758.778, 538.249 758.704, 537.025 758.667, 536.415 758.674, 534.534 758.802, 532.643 759.045, 530.778 759.154, 530.229 759.402, 528.976 759.863, 527.271 760.372, 525.831 760.420, 525.696 761.062, 524.282 761.777, 523.055 762.551, 522.038 763.367, 521.251 764.066, 520.691 764.765, 520.132 765.463, 519.573 766.160, 519.016 766.510, 518.737 774.325, 512.497 779.206, 508.599 787.021, 502.360 789.630, 500.276 789.984, 510.270 790.032, 511.627 790.151, 516.210 790.182, 521.916 " fill="none" stroke="rgb(0, 0, 0)" stroke-linecap="butt" stroke-linejoin="round" stroke-opacity="1.0" stroke-width="3.0" />
            <path d=" M 764.744, 537.422 764.427, 537.351 764.131, 537.133 763.869, 536.778 763.653, 536.302 763.493, 535.725 763.395, 535.074 763.364, 534.376 763.401, 533.662 763.505, 532.963 763.671, 532.310 763.892, 531.732 764.157, 531.254 764.456, 530.897 764.775, 530.676 765.100, 530.603 " fill="none" stroke="rgb(0, 0, 0)" stroke-linecap="butt" stroke-linejoin="round" stroke-opacity="1.0" stroke-width="3.0" />
            <path d=" M 765.100, 530.603 765.417, 530.677 765.712, 530.897 765.973, 531.253 766.188, 531.728 766.347, 532.303 766.444, 532.953 766.474, 533.648 766.437, 534.360 766.334, 535.056 766.169, 535.707 765.950, 536.284 765.685, 536.762 765.387, 537.121 765.069, 537.344 764.744, 537.422 " fill="none" stroke="rgb(0, 0, 0)" stroke-linecap="butt" stroke-linejoin="round" stroke-opacity="1.0" stroke-width="3.0" />
            <path d=" M 800.156, 536.772 800.089, 540.291 799.668, 550.282 799.536, 553.417 798.885, 563.396 798.680, 566.542 797.802, 576.504 797.524, 579.645 796.417, 589.583 796.069, 592.703 794.732, 602.613 794.316, 605.694 792.748, 615.571 792.268, 618.598 790.466, 628.434 789.925, 631.389 787.888, 641.180 787.291, 644.048 785.014, 653.785 784.368, 656.550 781.848, 666.227 781.159, 668.872 778.389, 678.481 777.666, 680.991 774.641, 690.523 773.893, 692.883 770.607, 702.328 769.844, 704.524 766.289, 713.871 765.522, 715.888 761.690, 725.125 760.933, 726.950 756.814, 736.063 756.081, 737.685 751.666, 746.658 750.972, 748.068 746.248, 756.881 745.611, 758.069 740.567, 766.703 740.006, 767.662 734.629, 776.094 734.165, 776.822 728.441, 785.022 728.094, 785.519 722.009, 793.454 721.803, 793.723 715.302, 801.409 708.601, 808.547 701.711, 815.107 694.646, 821.061 687.420, 826.380 680.046, 831.037 672.540, 835.002 664.920, 838.248 657.203, 840.751 649.410, 842.483 641.561, 843.419 633.678, 843.538 625.783, 842.820 617.902, 841.245 610.059, 838.795 602.282, 835.458 594.597, 831.225 587.033, 826.085 579.621, 820.035 572.388, 813.077 565.727, 805.618 565.365, 805.214 559.245, 797.306 558.585, 796.453 552.991, 788.165 552.077, 786.810 546.991, 778.200 545.870, 776.303 545.546, 775.676 543.116, 770.982 541.682, 768.211 539.997, 764.954 536.821, 757.945 535.406, 754.821 534.486, 752.791 530.808, 743.492 530.336, 742.299 529.366, 739.849 527.623, 734.777 524.665, 726.168 521.826, 716.579 520.408, 711.789 517.964, 702.093 516.621, 696.763 514.556, 686.979 513.325, 681.144 512.632, 677.125 510.933, 667.270 510.540, 664.991 509.195, 655.082 508.284, 648.366 507.285, 638.416 506.573, 631.335 505.909, 621.357 505.417, 613.970 505.083, 603.976 504.827, 596.344 502.661, 586.581 500.657, 577.553 " fill="none" stroke="rgb(0, 0, 0)" stroke-linecap="butt" stroke-linejoin="round" stroke-opacity="1.0" stroke-width="3.0" />
            <path d=" M 666.089, 266.906 658.100, 267.184 656.748, 267.374 650.016, 268.322 641.859, 270.339 633.654, 273.253 625.429, 277.075 617.211, 281.812 609.029, 287.470 601.263, 293.770 600.914, 294.053 593.612, 300.885 592.896, 301.555 586.056, 308.849 585.008, 309.967 578.623, 317.663 577.283, 319.279 571.342, 327.323 569.753, 329.473 565.588, 335.779 565.094, 336.526 562.453, 340.525 560.887, 343.167 558.217, 347.674 556.616, 350.377 555.414, 352.405 551.091, 360.535 549.474, 363.576 548.672, 365.083 544.364, 374.108 542.259, 378.518 538.324, 387.712 537.878, 388.753 536.204, 392.665 532.631, 402.005 530.540, 407.474 527.319, 416.942 525.295, 422.893 522.417, 432.469 520.497, 438.860 517.953, 448.531 516.170, 455.312 513.954, 465.063 512.337, 472.182 510.445, 482.002 509.020, 489.401 507.447, 499.276 506.234, 506.894 505.048, 516.259 503.994, 524.586 503.054, 534.542 502.312, 542.401 501.689, 552.382 501.197, 560.262 500.885, 570.257 500.657, 577.553 498.992, 587.413 497.447, 596.563 " fill="none" stroke="rgb(0, 0, 0)" stroke-linecap="butt" stroke-linejoin="round" stroke-opacity="1.0" stroke-width="3.0" />
            <path d=" M 498.069, 614.758 498.742, 624.735 499.277, 632.679 500.287, 642.628 501.061, 650.249 502.417, 660.157 503.408, 667.396 505.121, 677.248 506.303, 684.049 508.384, 693.830 509.435, 698.770 509.727, 700.142 512.190, 709.834 513.659, 715.616 516.519, 725.198 518.075, 730.412 521.349, 739.860 522.950, 744.480 524.935, 749.455 527.673, 756.316 528.255, 757.776 532.413, 766.870 532.971, 768.092 533.962, 770.259 534.389, 771.076 539.020, 779.939 539.437, 780.737 540.042, 781.895 540.888, 783.312 543.443, 787.594 546.462, 792.654 552.098, 800.915 553.190, 802.516 559.356, 810.389 560.196, 811.461 566.905, 818.876 567.447, 819.475 574.703, 826.356 574.911, 826.553 582.556, 832.692 590.352, 837.891 598.268, 842.156 606.274, 845.497 614.344, 847.927 622.449, 849.459 630.563, 850.112 638.662, 849.908 646.721, 848.869 654.720, 847.017 662.636, 844.379 670.451, 840.984 678.145, 836.857 685.703, 832.026 693.107, 826.523 700.343, 820.376 707.398, 813.614 714.260, 806.266 720.702, 798.618 720.915, 798.364 726.987, 790.418 727.355, 789.936 733.069, 781.728 733.569, 781.009 738.939, 772.573 739.549, 771.614 744.588, 762.977 745.286, 761.780 750.007, 752.965 750.773, 751.533 755.188, 742.560 756.004, 740.901 760.123, 731.789 760.972, 729.911 764.806, 720.675 765.671, 718.590 769.229, 709.244 770.097, 706.962 773.387, 697.519 774.245, 695.054 777.275, 685.524 778.111, 682.891 780.887, 673.284 781.692, 670.497 784.218, 660.822 784.982, 657.896 787.265, 648.160 787.980, 645.112 790.024, 635.324 790.683, 632.169 792.491, 622.334 793.087, 619.089 794.661, 609.214 795.190, 605.895 796.533, 595.986 796.991, 592.610 798.104, 582.672 798.487, 579.257 799.370, 569.296 799.675, 565.857 800.329, 555.878 800.555, 552.433 800.979, 542.442 801.125, 539.007 801.185, 535.878 " fill="none" stroke="rgb(0, 0, 0)" stroke-linecap="butt" stroke-linejoin="round" stroke-opacity="1.0" stroke-width="3.0" />
            <path d=" M 497.447, 596.563 497.789, 606.558 498.069, 614.758 " fill="none" stroke="rgb(0, 0, 0)" stroke-linecap="butt" stroke-linejoin="round" stroke-opacity="1.0" stroke-width="3.0" />
            <path d=" M 814.607, 402.936 814.400, 401.843 812.309, 392.064 812.035, 390.784 809.706, 381.060 809.433, 379.920 806.859, 370.257 806.595, 369.264 803.768, 359.672 803.521, 358.833 800.432, 349.322 800.213, 348.644 796.852, 339.226 796.670, 338.716 793.025, 329.404 792.893, 329.068 788.951, 319.878 788.883, 319.722 784.642, 310.696 780.172, 302.007 775.477, 293.674 770.561, 285.713 765.426, 278.146 760.078, 270.992 754.519, 264.274 748.754, 258.017 742.788, 252.243 736.629, 246.973 730.283, 242.226 723.758, 238.018 717.064, 234.370 710.210, 231.301 703.205, 228.833 696.059, 226.987 688.786, 225.787 681.398, 225.254 673.908, 225.401 672.696, 225.535 666.332, 226.241 658.685, 227.786 650.982, 230.048 643.242, 233.039 635.482, 236.769 627.723, 241.251 619.984, 246.493 612.289, 252.500 604.807, 259.135 604.656, 259.269 602.709, 261.211 602.674, 261.245 602.603, 261.316 597.109, 266.794 590.422, 274.230 589.668, 275.068 588.704, 276.257 582.357, 284.082 579.513, 287.953 575.199, 293.826 569.648, 302.144 568.218, 304.287 563.027, 312.834 561.817, 314.827 561.439, 315.449 561.261, 315.771 558.694, 320.414 555.996, 325.293 554.888, 327.296 554.436, 328.194 549.937, 337.124 548.896, 339.189 548.589, 339.800 547.337, 342.528 546.806, 343.683 542.635, 352.771 542.562, 352.930 538.707, 362.157 536.829, 366.653 535.885, 369.141 532.338, 378.491 531.411, 380.933 528.163, 390.391 526.329, 395.732 523.374, 405.285 521.603, 411.009 518.935, 420.647 517.253, 426.722 514.869, 436.434 513.299, 442.826 511.194, 452.602 509.758, 459.271 507.926, 469.101 506.639, 476.003 505.077, 485.880 503.955, 492.968 502.660, 502.884 501.716, 510.113 500.979, 517.248 499.952, 527.195 499.932, 527.382 499.172, 537.353 498.611, 544.719 498.118, 554.707 497.755, 562.066 497.531, 572.064 497.367, 579.366 497.413, 589.366 497.447, 596.563 497.768, 606.558 497.994, 613.601 498.069, 614.758 498.665, 624.740 499.004, 630.425 499.885, 640.386 500.469, 646.982 501.638, 656.913 502.381, 663.221 503.847, 673.113 504.733, 679.091 506.503, 688.933 507.512, 694.546 508.990, 701.493 510.702, 709.544 513.104, 719.251 514.289, 724.042 517.023, 733.661 518.257, 738.003 521.339, 747.516 522.592, 751.387 523.870, 754.872 526.500, 762.047 527.276, 764.162 531.090, 773.406 531.667, 774.802 532.286, 776.303 533.029, 777.908 537.229, 786.984 537.600, 787.786 537.969, 788.497 539.370, 791.202 541.876, 796.038 543.199, 798.591 548.214, 807.242 549.059, 808.699 554.506, 817.085 555.161, 818.094 561.056, 826.173 561.485, 826.762 567.840, 834.483 568.010, 834.689 574.715, 841.870 581.576, 848.305 588.571, 853.997 595.679, 858.950 602.880, 863.168 610.154, 866.659 617.483, 869.427 623.979, 871.238 624.849, 871.480 632.236, 872.827 639.626, 873.483 647.001, 873.465 654.347, 872.794 661.648, 871.487 668.890, 869.562 676.062, 867.036 683.150, 863.925 690.143, 860.245 697.030, 856.013 703.801, 851.252 710.446, 845.986 716.957, 840.235 723.326, 834.022 729.545, 827.365 735.607, 820.282 741.505, 812.792 747.234, 804.910 752.786, 796.654 758.081, 788.171 758.158, 788.047 763.177, 779.398 763.345, 779.109 768.099, 770.312 768.343, 769.859 772.841, 760.928 773.149, 760.316 777.399, 751.264 777.760, 750.495 781.768, 741.334 782.171, 740.414 785.944, 731.153 786.378, 730.087 789.921, 720.735 790.378, 719.528 793.698, 710.095 794.169, 708.755 797.271, 699.249 797.749, 697.785 800.640, 688.212 801.116, 686.635 803.801, 677.002 804.269, 675.320 806.752, 665.633 807.207, 663.855 809.490, 654.119 809.927, 652.254 812.013, 642.474 812.427, 640.531 814.317, 630.711 814.704, 628.699 816.400, 618.844 816.756, 616.773 818.262, 606.887 818.585, 604.767 819.903, 594.855 820.189, 592.697 821.319, 582.761 821.567, 580.574 822.509, 570.618 822.717, 568.412 823.471, 558.441 823.638, 556.226 824.204, 546.242 824.329, 544.029 824.707, 534.036 824.790, 531.834 824.811, 530.693 " fill="none" stroke="rgb(0, 0, 0)" stroke-linecap="butt" stroke-linejoin="round" stroke-opacity="1.0" stroke-width="3.0" />
            <path d=" M 671.675, 225.556 664.089, 226.396 656.432, 227.941 648.719, 230.201 640.969, 233.190 633.200, 236.919 625.431, 241.397 617.684, 246.634 609.980, 252.636 602.492, 259.264 602.339, 259.399 600.945, 260.786 600.866, 260.865 600.804, 260.926 594.784, 266.917 588.090, 274.346 587.336, 275.182 583.179, 280.297 580.017, 284.188 574.089, 292.241 572.852, 293.922 572.705, 294.141 567.147, 302.454 565.864, 304.372 561.254, 311.949 560.682, 312.889 559.080, 315.523 558.317, 316.899 555.601, 321.801 554.047, 324.607 552.523, 327.356 548.454, 335.417 546.889, 338.519 546.219, 339.847 542.041, 348.932 540.188, 352.963 536.327, 362.188 536.059, 362.829 535.361, 364.496 534.451, 366.671 530.898, 376.018 529.029, 380.934 525.776, 390.391 523.944, 395.717 520.984, 405.268 519.215, 410.977 516.543, 420.613 514.863, 426.672 512.475, 436.383 510.908, 442.757 508.800, 452.532 507.366, 459.183 505.531, 469.013 504.246, 475.896 502.682, 485.772 501.562, 492.842 500.266, 502.757 499.323, 509.967 498.493, 518.005 497.541, 527.216 496.781, 537.188 496.221, 544.533 495.728, 554.521 495.367, 561.860 495.144, 571.858 494.981, 579.141 495.029, 589.141 495.064, 596.319 495.387, 606.314 495.614, 613.338 496.216, 623.320 496.627, 630.143 497.512, 640.104 498.097, 646.682 499.271, 656.613 500.014, 662.903 501.485, 672.794 502.371, 678.756 504.146, 688.598 505.155, 694.196 507.242, 703.975 508.001, 707.534 508.351, 709.177 510.759, 718.883 511.944, 723.661 514.685, 733.279 515.919, 737.609 519.008, 747.120 520.261, 750.980 523.111, 758.734 524.952, 763.743 525.756, 765.686 529.578, 774.927 529.969, 775.873 531.000, 778.095 532.389, 781.089 535.292, 787.347 537.397, 791.401 538.802, 794.106 540.898, 798.142 541.326, 798.879 546.350, 807.525 546.767, 808.242 552.223, 816.623 552.878, 817.630 558.780, 825.703 559.211, 826.292 565.574, 834.007 565.745, 834.214 572.459, 841.391 579.330, 847.823 586.334, 853.513 593.452, 858.464 600.662, 862.682 607.946, 866.173 615.286, 868.942 622.662, 870.998 " fill="none" stroke="rgb(0, 0, 0)" stroke-linecap="butt" stroke-linejoin="round" stroke-opacity="1.0" stroke-width="3.0" />
            <path d=" M 673.908, 225.401 671.675, 225.556 " fill="none" stroke="rgb(0, 0, 0)" stroke-linecap="butt" stroke-linejoin="round" stroke-opacity="1.0" stroke-width="3.0" />
            <path d=" M 622.662, 870.998 624.849, 871.480 " fill="none" stroke="rgb(0, 0, 0)" stroke-linecap="butt" stroke-linejoin="round" stroke-opacity="1.0" stroke-width="3.0" />
            <path d=" M 479.246, 597.296 479.579, 607.291 479.897, 616.811 480.513, 626.792 481.086, 636.071 481.990, 646.030 482.805, 655.010 484.002, 664.938 485.043, 673.567 486.541, 683.454 487.788, 691.684 489.594, 701.520 491.024, 709.305 493.149, 719.076 494.736, 726.377 497.189, 736.071 498.904, 742.852 500.180, 747.239 502.005, 753.516 503.508, 758.685 506.653, 768.177 508.159, 772.724 508.527, 773.835 512.038, 783.199 513.938, 788.268 514.565, 789.754 515.505, 791.978 517.133, 795.834 518.006, 797.900 518.420, 798.882 519.716, 801.949 523.733, 810.418 525.074, 813.244 525.837, 814.852 526.342, 815.803 527.718, 818.388 530.458, 823.538 531.787, 826.035 531.822, 826.103 532.275, 826.953 534.596, 830.843 539.005, 838.232 544.571, 846.540 546.001, 848.675 552.022, 856.660 553.236, 858.270 559.723, 865.881 560.686, 867.010 567.645, 874.190 568.323, 874.890 575.756, 881.579 576.123, 881.909 584.061, 888.072 592.113, 893.382 600.256, 897.848 608.467, 901.481 616.724, 904.294 625.006, 906.301 629.323, 907.322 637.589, 908.533 645.841, 908.972 654.062, 908.658 662.235, 907.611 670.344, 905.854 678.374, 903.408 686.311, 900.295 694.142, 896.540 701.855, 892.166 709.439, 887.196 716.884, 881.654 724.179, 875.563 731.316, 868.947 738.287, 861.829 744.955, 854.377 745.085, 854.233 751.433, 846.506 751.702, 846.180 757.740, 838.209 758.132, 837.692 763.872, 829.504 764.370, 828.793 769.821, 820.409 770.410, 819.502 775.583, 810.944 776.249, 809.841 781.152, 801.126 781.881, 799.830 786.525, 790.974 787.303, 789.490 791.696, 780.506 792.511, 778.839 796.661, 769.741 797.503, 767.896 801.418, 758.694 802.274, 756.680 805.961, 747.384 806.824, 745.209 810.289, 735.828 811.149, 733.500 814.398, 724.042 815.247, 721.570 818.286, 712.042 819.117, 709.436 821.950, 699.845 822.757, 697.114 825.388, 687.466 826.164, 684.620 828.597, 674.920 829.338, 671.969 831.577, 662.223 832.277, 659.177 834.325, 649.389 834.980, 646.258 836.839, 636.432 837.445, 633.228 839.117, 623.368 839.671, 620.100 841.158, 610.211 841.658, 606.888 842.961, 596.974 843.404, 593.608 844.524, 583.671 844.908, 580.272 845.846, 570.316 846.169, 566.895 846.925, 556.924 847.185, 553.490 847.760, 543.507 847.957, 540.072 848.349, 530.079 848.483, 526.653 848.691, 516.655 848.761, 513.248 848.784, 503.248 848.792, 499.871 848.628, 489.872 848.573, 486.535 848.221, 476.541 848.105, 473.255 847.561, 463.270 847.385, 460.046 846.647, 450.073 846.414, 446.921 845.478, 436.965 845.189, 433.897 844.052, 423.962 843.711, 420.987 842.368, 411.077 841.979, 408.207 840.424, 398.329 839.991, 395.574 838.220, 385.732 837.747, 383.103 835.754, 373.304 835.247, 370.812 833.025, 361.062 832.490, 358.716 830.031, 349.023 829.476, 346.835 826.773, 337.207 826.205, 335.185 823.248, 325.632 822.676, 323.786 819.456, 314.318 818.891, 312.655 815.397, 303.286 814.849, 301.814 811.071, 292.555 810.551, 291.282 806.477, 282.150 805.999, 281.080 801.615, 272.093 801.194, 271.229 796.487, 262.406 796.138, 261.751 791.094, 253.116 790.833, 252.668 785.438, 244.248 785.281, 244.003 779.487, 235.780 773.454, 228.021 767.187, 220.752 760.690, 213.996 753.970, 207.779 747.032, 202.125 739.886, 197.060 732.539, 192.609 724.999, 188.796 717.279, 185.646 709.388, 183.185 701.339, 181.435 693.145, 180.419 684.822, 180.161 676.385, 180.681 671.944, 181.075 663.387, 182.394 654.750, 184.527 646.055, 187.492 637.320, 191.302 628.568, 195.970 620.118, 201.318 619.822, 201.506 611.766, 207.431 611.105, 207.917 603.453, 214.355 602.442, 215.206 595.199, 222.100 593.860, 223.374 587.022, 230.672 585.384, 232.420 578.946, 240.072 577.042, 242.336 571.995, 248.985 568.862, 253.112 563.197, 261.352 560.872, 264.734 555.577, 273.217 553.338, 276.804 553.120, 277.152 553.101, 277.184 552.409, 278.402 550.451, 281.851 550.315, 282.092 548.935, 284.522 548.705, 284.927 545.897, 289.874 545.576, 290.438 544.393, 292.728 543.026, 295.376 541.507, 298.316 538.328, 304.471 535.492, 310.505 534.006, 313.667 531.383, 319.249 529.660, 323.285 525.733, 332.481 524.769, 334.739 521.159, 344.065 521.025, 344.411 518.513, 350.899 515.212, 360.338 512.641, 367.685 509.640, 377.224 507.178, 385.049 504.470, 394.676 502.146, 402.940 499.726, 412.643 497.567, 421.301 495.430, 431.070 495.065, 432.741 493.461, 440.073 493.104, 441.959 491.246, 451.785 489.845, 459.196 488.262, 469.070 486.734, 478.605 485.425, 488.519 484.143, 498.234 483.193, 507.341 483.143, 507.821 482.229, 516.595 482.081, 518.016 481.937, 519.890 481.887, 520.536 481.122, 530.506 480.556, 537.883 480.062, 547.870 479.574, 557.764 479.353, 567.761 479.137, 577.591 479.192, 587.591 479.194, 587.877 479.246, 597.296 " fill="none" stroke="rgb(0, 0, 0)" stroke-linecap="butt" stroke-linejoin="round" stroke-opacity="1.0" stroke-width="3.0" />
            <path d=" M 676.385, 180.681 667.850, 181.998 659.236, 184.133 650.562, 187.100 641.849, 190.914 633.118, 195.589 624.677, 200.951 624.391, 201.133 616.346, 207.072 615.694, 207.553 608.055, 214.006 607.050, 214.855 599.820, 221.763 598.486, 223.038 591.662, 230.348 590.027, 232.100 583.604, 239.765 581.702, 242.035 575.670, 250.011 575.168, 250.676 573.537, 252.832 567.887, 261.083 565.562, 264.478 560.281, 272.970 557.804, 276.953 554.575, 282.662 554.228, 283.276 553.897, 283.860 551.396, 288.284 550.292, 290.236 549.868, 291.059 545.292, 299.951 544.090, 302.287 543.055, 304.298 542.575, 305.321 538.335, 314.378 536.120, 319.109 532.205, 328.311 530.927, 331.315 529.515, 334.632 527.682, 339.385 524.083, 348.715 523.268, 350.828 519.976, 360.271 517.403, 367.652 514.411, 377.194 511.945, 385.056 509.245, 394.685 506.918, 402.987 504.505, 412.692 502.342, 421.390 500.211, 431.160 498.238, 440.206 496.385, 450.033 494.623, 459.373 493.985, 463.363 493.811, 464.454 493.680, 465.273 492.101, 475.147 491.513, 478.827 490.207, 488.741 489.977, 490.485 488.920, 498.501 488.110, 506.282 487.992, 507.418 487.673, 510.479 487.573, 511.440 487.029, 516.671 486.856, 518.329 486.762, 519.548 486.680, 520.621 485.915, 530.592 485.328, 538.241 484.833, 548.229 484.341, 558.168 484.119, 568.165 483.899, 578.041 483.951, 588.041 483.972, 591.970 484.002, 597.790 484.331, 607.785 484.646, 617.349 485.256, 627.331 485.826, 636.651 486.723, 646.611 487.424, 654.392 487.535, 655.632 488.725, 665.561 489.194, 669.480 489.763, 674.229 491.252, 684.118 492.496, 692.385 494.293, 702.222 495.721, 710.042 497.834, 719.816 499.419, 727.149 501.860, 736.847 502.173, 738.092 503.574, 743.657 506.353, 753.263 508.163, 759.521 511.294, 769.018 513.167, 774.701 514.588, 778.511 517.164, 785.415 518.561, 789.159 519.643, 791.734 523.518, 800.952 524.322, 802.865 525.161, 804.642 526.502, 807.483 530.425, 815.790 531.702, 818.201 533.087, 820.816 535.726, 825.798 536.845, 827.910 541.952, 836.507 543.556, 839.207 549.106, 847.525 550.533, 849.664 556.538, 857.660 557.748, 859.272 564.220, 866.895 565.177, 868.021 572.123, 875.215 572.794, 875.909 580.215, 882.612 580.573, 882.935 588.489, 889.101 596.520, 894.413 604.640, 898.879 612.829, 902.511 621.063, 905.320 629.323, 907.322 " fill="none" stroke="rgb(0, 0, 0)" stroke-linecap="butt" stroke-linejoin="round" stroke-opacity="1.0" stroke-width="3.0" />
            <path d=" M 729.609, 518.257 728.726, 518.335 727.968, 518.592 727.837, 518.637 726.957, 519.159 726.134, 519.896 725.386, 520.836 725.209, 521.123 724.826, 521.743 724.692, 521.960 724.064, 523.250 723.512, 524.685 723.046, 526.240 722.675, 527.887 722.668, 527.936 722.405, 529.600 722.291, 530.815 722.240, 531.348 722.184, 533.102 " fill="none" stroke="rgb(0, 0, 0)" stroke-linecap="butt" stroke-linejoin="round" stroke-opacity="1.0" stroke-width="3.0" />
            <path d=" M 728.767, 528.320 729.028, 528.354 729.277, 528.479 729.509, 528.691 729.716, 528.984 729.894, 529.350 730.038, 529.779 730.143, 530.261 730.206, 530.780 730.227, 531.324 " fill="none" stroke="rgb(0, 0, 0)" stroke-linecap="butt" stroke-linejoin="round" stroke-opacity="1.0" stroke-width="3.0" />
            <path d=" M 727.092, 531.123 730.227, 531.324 739.991, 529.165 748.081, 527.376 " fill="none" stroke="rgb(0, 0, 0)" stroke-linecap="butt" stroke-linejoin="round" stroke-opacity="1.0" stroke-width="3.0" />
            <path d=" M 802.769, 522.541 801.928, 522.625 801.079, 522.941 800.236, 523.484 799.775, 523.932 799.450, 524.248 798.857, 525.057 798.737, 525.221 798.202, 526.160 798.074, 526.384 797.472, 527.718 797.416, 527.874 797.143, 528.637 796.942, 529.201 796.492, 530.806 796.131, 532.508 796.123, 532.558 795.864, 534.276 795.748, 535.529 795.697, 536.079 795.633, 537.889 " fill="none" stroke="rgb(0, 0, 0)" stroke-linecap="butt" stroke-linejoin="round" stroke-opacity="1.0" stroke-width="3.0" />
            <path d=" M 801.884, 532.920 802.129, 532.954 802.364, 533.081 802.581, 533.299 802.776, 533.600 802.941, 533.976 803.074, 534.418 803.170, 534.914 803.227, 535.449 803.243, 536.010 " fill="none" stroke="rgb(0, 0, 0)" stroke-linecap="butt" stroke-linejoin="round" stroke-opacity="1.0" stroke-width="3.0" />
            <path d=" M 782.799, 486.565 782.960, 486.559 783.178, 486.592 783.388, 486.670 783.582, 486.791 783.752, 486.949 783.892, 487.140 783.998, 487.357 784.064, 487.596 784.087, 487.852 784.064, 488.090 784.000, 488.318 783.896, 488.526 783.757, 488.707 783.588, 488.854 783.393, 488.963 783.177, 489.027 " fill="none" stroke="rgb(0, 0, 0)" stroke-linecap="butt" stroke-linejoin="round" stroke-opacity="1.0" stroke-width="3.0" />
            <path d=" M 782.799, 486.565 782.724, 486.577 782.640, 486.595 782.497, 486.641 782.287, 486.748 782.266, 486.760 782.075, 486.910 781.917, 487.093 781.797, 487.306 781.720, 487.541 781.692, 487.795 781.714, 488.034 781.783, 488.265 781.793, 488.286 781.905, 488.497 782.055, 488.682 782.240, 488.834 782.453, 488.949 782.476, 488.957 782.702, 489.025 782.723, 489.029 782.752, 489.032 782.789, 489.035 782.831, 489.038 782.945, 489.043 783.076, 489.037 783.117, 489.034 783.151, 489.031 783.177, 489.027 " fill="none" stroke="rgb(0, 0, 0)" stroke-linecap="butt" stroke-linejoin="round" stroke-opacity="1.0" stroke-width="3.0" />
            <path d=" M 780.140, 484.573 780.104, 490.776 783.703, 490.941 785.770, 491.035 786.427, 490.753 785.956, 484.791 783.292, 484.645 780.571, 484.496 780.140, 484.573 " fill="none" stroke="rgb(0, 0, 0)" stroke-linecap="butt" stroke-linejoin="round" stroke-opacity="1.0" stroke-width="3.0" />
            <path d=" M 785.770, 491.035 785.809, 484.817 " fill="none" stroke="rgb(0, 0, 0)" stroke-linecap="butt" stroke-linejoin="round" stroke-opacity="1.0" stroke-width="3.0" />
            <path d=" M 785.956, 484.791 785.809, 484.817 780.140, 484.573 " fill="none" stroke="rgb(0, 0, 0)" stroke-linecap="butt" stroke-linejoin="round" stroke-opacity="1.0" stroke-width="3.0" />
            <path d=" M 716.576, 518.033 716.387, 518.023 706.398, 517.574 704.904, 517.507 694.913, 517.096 693.428, 517.035 683.435, 516.661 681.953, 516.605 671.959, 516.263 670.474, 516.213 660.479, 515.902 658.988, 515.855 648.992, 515.573 647.488, 515.530 637.491, 515.273 635.971, 515.234 625.973, 515.001 624.431, 514.965 614.434, 514.753 612.865, 514.719 602.867, 514.525 601.267, 514.494 591.269, 514.317 589.634, 514.288 579.635, 514.125 577.960, 514.097 577.992, 504.097 578.007, 499.538 577.923, 489.538 577.885, 485.016 577.683, 475.018 577.593, 470.550 577.273, 460.555 577.132, 456.161 576.690, 446.170 576.500, 441.867 575.934, 431.883 575.696, 427.689 575.003, 417.713 574.721, 413.646 573.897, 403.680 573.573, 399.761 572.614, 389.807 572.252, 386.056 571.152, 376.117 570.757, 372.553 570.219, 368.266 " fill="none" stroke="rgb(0, 0, 0)" stroke-linecap="butt" stroke-linejoin="round" stroke-opacity="1.0" stroke-width="3.0" />
            <path d=" M 557.221, 239.240 550.862, 234.241 545.456, 229.435 542.489, 226.796 540.663, 224.974 540.008, 224.322 537.430, 221.750 534.380, 218.709 532.153, 216.234 529.367, 213.140 526.535, 209.994 522.175, 204.629 518.952, 200.663 " fill="none" stroke="rgb(0, 0, 0)" stroke-linecap="butt" stroke-linejoin="round" stroke-opacity="1.0" stroke-width="3.0" />
            <path d=" M 571.995, 248.985 563.492, 243.721 563.309, 243.608 557.221, 239.240 554.542, 237.317 " fill="none" stroke="rgb(0, 0, 0)" stroke-linecap="butt" stroke-linejoin="round" stroke-opacity="1.0" stroke-width="3.0" />
            <path d=" M 518.952, 200.663 518.514, 200.192 514.453, 195.823 509.822, 191.808 505.495, 188.941 505.067, 188.658 502.751, 187.591 500.197, 186.414 495.222, 185.115 490.156, 184.796 485.010, 185.496 479.799, 187.251 475.344, 189.654 474.539, 190.088 473.769, 190.663 469.247, 194.038 468.008, 195.226 463.941, 199.125 458.640, 205.371 456.574, 208.276 454.379, 211.364 453.366, 212.788 449.031, 219.919 448.140, 221.385 443.479, 230.232 442.985, 231.169 438.795, 240.248 437.925, 242.134 434.154, 251.395 432.984, 254.267 429.588, 263.673 428.187, 267.551 425.130, 277.073 423.561, 281.960 420.811, 291.574 419.130, 297.455 416.662, 307.145 414.918, 313.990 412.711, 323.744 410.953, 331.514 408.989, 341.319 407.257, 349.963 405.520, 359.811 403.853, 369.265 402.332, 379.149 400.811, 389.032 400.764, 389.341 399.448, 399.254 398.133, 409.167 398.009, 410.102 396.891, 420.040 395.773, 429.977 395.606, 431.456 394.679, 441.413 393.752, 451.370 393.572, 453.298 392.830, 463.271 392.089, 473.243 391.919, 475.523 391.360, 485.508 390.801, 495.492 390.659, 498.022 390.281, 508.015 389.902, 518.007 389.800, 520.680 389.600, 530.678 389.400, 540.676 389.346, 543.384 389.326, 553.384 389.306, 563.383 389.300, 566.015 389.331, 566.024 394.857, 567.778 396.624, 568.314 400.511, 569.495 406.263, 571.170 412.114, 572.803 418.065, 574.398 424.117, 575.956 430.272, 577.480 436.531, 578.971 442.895, 580.432 449.365, 581.864 455.943, 583.269 462.630, 584.650 469.429, 586.007 476.340, 587.343 479.194, 587.877 " fill="none" stroke="rgb(0, 0, 0)" stroke-linecap="butt" stroke-linejoin="round" stroke-opacity="1.0" stroke-width="3.0" />
            <path d=" M 359.400, 556.458 355.225, 565.545 353.012, 570.361 " fill="none" stroke="rgb(0, 0, 0)" stroke-linecap="butt" stroke-linejoin="round" stroke-opacity="1.0" stroke-width="3.0" />
            <path d=" M 475.344, 189.654 469.178, 189.813 " fill="none" stroke="rgb(0, 0, 0)" stroke-linecap="butt" stroke-linejoin="round" stroke-opacity="1.0" stroke-width="3.0" />
            <path d=" M 533.542, 479.634 533.533, 479.641 " fill="none" stroke="rgb(0, 0, 0)" stroke-linecap="butt" stroke-linejoin="round" stroke-opacity="1.0" stroke-width="3.0" />
            <path d=" M 533.935, 481.588 533.940, 481.589 " fill="none" stroke="rgb(0, 0, 0)" stroke-linecap="butt" stroke-linejoin="round" stroke-opacity="1.0" stroke-width="3.0" />
            <path d=" M 534.073, 481.623 534.094, 481.626 " fill="none" stroke="rgb(0, 0, 0)" stroke-linecap="butt" stroke-linejoin="round" stroke-opacity="1.0" stroke-width="3.0" />
            <path d=" M 735.224, 518.980 731.284, 518.770 " fill="none" stroke="rgb(0, 0, 0)" stroke-linecap="butt" stroke-linejoin="round" stroke-opacity="1.0" stroke-width="3.0" />
        </g>
    </g>
</svg>
