<?xml version="1.0" encoding="UTF-8" standalone="no"?><!DOCTYPE svg PUBLIC "-//W3C//DTD SVG 1.1//EN" "http://www.w3.org/Graphics/SVG/1.1/DTD/svg11.dtd"><svg width="100%" height="100%" viewBox="0 0 2363 2130" version="1.1" xmlns="http://www.w3.org/2000/svg" xmlns:xlink="http://www.w3.org/1999/xlink" xml:space="preserve" xmlns:serif="http://www.serif.com/" style="fill-rule:evenodd;clip-rule:evenodd;stroke-linecap:round;"><rect id="Artboard8" x="0.413" y="0.327" width="2362.2" height="2129.02" style="fill:none;"/><clipPath id="_clip1"><rect x="0.413" y="0.327" width="2362.2" height="2129.02"/></clipPath><g clip-path="url(#_clip1)"><path d="M1165.63,818.181l0.035,-206.212l0,-595.41" style="fill:none;fill-rule:nonzero;stroke:#4d4d4d;stroke-width:8.33px;"/><path d="M1166.63,817.331c0.986,-37.076 -15.841,-81.68 -46.556,-112.395c-30.715,-30.715 -75.318,-47.541 -112.394,-46.555c-37.077,-0.986 -81.681,15.84 -112.396,46.555c-30.715,30.715 -47.541,75.319 -46.555,112.395c-0.986,37.077 15.84,81.68 46.555,112.395c30.715,30.715 75.319,47.541 112.396,46.556c37.076,0.985 81.679,-15.841 112.394,-46.556c30.715,-30.715 47.542,-75.318 46.556,-112.395Z" style="fill:none;fill-rule:nonzero;stroke:#4d4d4d;stroke-width:8.33px;stroke-linecap:butt;"/><path d="M1199.43,1514.81c-44.092,2.757 -98.24,-0.711 -130.172,-5.596c-71.365,-10.92 -140.365,-37.297 -199.165,-74.07c-58.801,-36.773 -107.401,-83.941 -143.811,-133.638c-36.537,-49.605 -67.014,-110.086 -84.522,-177.192c-17.508,-67.105 -22.047,-140.836 -11.128,-212.201c10.92,-71.366 37.298,-140.366 74.07,-199.166c36.773,-58.8 83.941,-107.401 133.638,-143.811c3.087,-2.273 33.766,-25.765 39.395,-26.872" style="fill:none;stroke:#4d4d4d;stroke-width:8.33px;"/><path d="M1165.67,593.304c32.665,-2.893 98.193,0.279 130.101,5.162c71.365,10.919 140.365,37.297 199.166,74.069c58.8,36.773 107.4,83.941 143.811,133.639c36.536,49.604 67.014,110.085 84.522,177.191c17.508,67.106 22.046,140.836 11.127,212.201c-10.92,71.366 -37.297,140.366 -74.07,199.166c-36.773,58.801 -79.327,110.545 -133.026,145.035c-4.491,2.884 -14.655,9.412 -40.007,18.94" style="fill:none;fill-rule:nonzero;stroke:#4d4d4d;stroke-width:8.33px;"/><path d="M1487.29,1633.18c385.592,-202.139 459.594,-577.139 369.248,-905.093c-65.533,-237.884 -226.816,-451.015 -437.211,-589.796c-78.521,-51.794 -163.883,-93.232 -253.661,-121.737" style="fill:none;fill-rule:nonzero;stroke:#4d4d4d;stroke-width:8.33px;"/><path d="M1487.29,1374.46l0,258.728" style="fill:none;fill-rule:nonzero;stroke:#4d4d4d;stroke-width:8.33px;"/><path d="M877.737,476.489c-385.591,202.139 -459.594,577.139 -369.248,905.094c89.991,326.663 360.692,606.651 691.027,711.532" style="fill:none;fill-rule:nonzero;stroke:#4d4d4d;stroke-width:8.33px;"/><path d="M1199.52,1280.97l0,812.144" style="fill:none;fill-rule:nonzero;stroke:#4d4d4d;stroke-width:8.33px;"/><path d="M1517.46,1280.97c0.986,-37.076 -15.84,-81.68 -46.555,-112.395c-30.715,-30.715 -75.319,-47.541 -112.395,-46.556c-37.077,-0.985 -81.681,15.841 -112.396,46.556c-30.715,30.715 -47.541,75.319 -46.555,112.395c-0.986,37.076 15.84,81.68 46.555,112.395c30.715,30.715 75.319,47.541 112.396,46.556c37.076,0.985 81.68,-15.841 112.395,-46.556c30.715,-30.715 47.541,-75.319 46.555,-112.395Z" style="fill:none;fill-rule:nonzero;stroke:#4d4d4d;stroke-width:8.33px;stroke-linecap:butt;"/><path d="M877.737,724.991l0,-248.502" style="fill:none;fill-rule:nonzero;stroke:#4d4d4d;stroke-width:8.33px;"/></g></svg>