<?xml version="1.0" encoding="UTF-8" standalone="no"?><!DOCTYPE svg PUBLIC "-//W3C//DTD SVG 1.1//EN" "http://www.w3.org/Graphics/SVG/1.1/DTD/svg11.dtd"><svg width="100%" height="100%" viewBox="0 0 2363 2130" version="1.1" xmlns="http://www.w3.org/2000/svg" xmlns:xlink="http://www.w3.org/1999/xlink" xml:space="preserve" xmlns:serif="http://www.serif.com/" style="fill-rule:evenodd;clip-rule:evenodd;stroke-linecap:round;"><rect id="Artboard8" x="0.433" y="0.327" width="2362.2" height="2129.02" style="fill:none;"/><clipPath id="_clip1"><rect x="0.433" y="0.327" width="2362.2" height="2129.02"/></clipPath><g clip-path="url(#_clip1)"><path d="M1165.65,818.181l0.035,-206.212l0,-595.41" style="fill:none;fill-rule:nonzero;stroke:#4d4d4d;stroke-width:8.33px;"/><path d="M1166.65,817.331c0.986,-37.076 -15.84,-81.68 -46.555,-112.395c-30.715,-30.715 -75.319,-47.541 -112.395,-46.555c-37.077,-0.986 -81.68,15.84 -112.395,46.555c-30.715,30.715 -47.542,75.319 -46.556,112.395c-0.986,37.077 15.841,81.68 46.556,112.395c30.715,30.715 75.318,47.541 112.395,46.556c37.076,0.985 81.68,-15.841 112.395,-46.556c30.715,-30.715 47.541,-75.318 46.555,-112.395Z" style="fill:none;fill-rule:nonzero;stroke:#4d4d4d;stroke-width:8.33px;stroke-linecap:butt;"/><path d="M1199.45,1514.81c-44.091,2.757 -98.24,-0.711 -130.171,-5.596c-71.366,-10.92 -140.366,-37.297 -199.166,-74.07c-58.8,-36.773 -107.401,-83.941 -143.811,-133.638c-36.537,-49.605 -67.014,-110.086 -84.522,-177.192c-17.508,-67.105 -22.047,-140.836 -11.127,-212.201c10.919,-71.366 37.297,-140.366 74.07,-199.166c36.772,-58.8 83.94,-107.401 133.638,-143.811c3.086,-2.273 33.765,-25.765 39.394,-26.872" style="fill:none;stroke:#4d4d4d;stroke-width:8.33px;"/><path d="M1165.69,593.304c32.665,-2.893 98.193,0.279 130.101,5.162c71.366,10.919 140.366,37.297 199.166,74.069c58.8,36.773 107.401,83.941 143.811,133.639c36.536,49.604 67.014,110.085 84.522,177.191c17.508,67.106 22.047,140.836 11.127,212.201c-10.919,71.366 -37.297,140.366 -74.07,199.166c-36.772,58.801 -79.327,110.545 -133.026,145.035c-4.491,2.884 -14.655,9.412 -40.006,18.94" style="fill:none;fill-rule:nonzero;stroke:#4d4d4d;stroke-width:8.33px;"/><path d="M1487.31,1633.18c385.591,-202.139 459.594,-577.139 369.247,-905.093c-65.533,-237.884 -226.816,-451.015 -437.211,-589.796c-78.521,-51.794 -163.883,-93.232 -253.661,-121.737" style="fill:none;fill-rule:nonzero;stroke:#4d4d4d;stroke-width:8.33px;"/><path d="M1487.31,1374.46l-0,258.728" style="fill:none;fill-rule:nonzero;stroke:#4d4d4d;stroke-width:8.26px;"/><path d="M877.756,476.489c-385.591,202.139 -459.594,577.139 -369.247,905.094c89.991,326.663 360.691,606.651 691.026,711.532" style="fill:none;fill-rule:nonzero;stroke:#4d4d4d;stroke-width:8.33px;"/><path d="M1199.54,1448.48l0,644.635" style="fill:none;fill-rule:nonzero;stroke:#4d4d4d;stroke-width:8.22px;"/><path d="M1517.48,1280.97c0.985,-37.076 -15.841,-81.68 -46.556,-112.395c-30.715,-30.715 -75.319,-47.541 -112.395,-46.556c-37.076,-0.985 -81.68,15.841 -112.395,46.556c-30.715,30.715 -47.542,75.319 -46.556,112.395c-0.986,37.076 15.841,81.68 46.556,112.395c30.715,30.715 75.319,47.541 112.395,46.556c37.076,0.985 81.68,-15.841 112.395,-46.556c30.715,-30.715 47.541,-75.319 46.556,-112.395Z" style="fill:none;fill-rule:nonzero;stroke:#4d4d4d;stroke-width:8.33px;stroke-linecap:butt;"/><path d="M877.756,724.991l0,-248.502" style="fill:none;fill-rule:nonzero;stroke:#4d4d4d;stroke-width:8.42px;"/><path d="M720.035,752.359c20.843,19.134 41.686,38.268 62.53,57.401" style="fill:none;stroke:#4d4d4d;stroke-width:8.33px;stroke-linejoin:round;stroke-miterlimit:1.5;"/><path d="M1199.54,1274.04l0,179.893" style="fill:none;fill-rule:nonzero;stroke:#4d4d4d;stroke-width:8.33px;"/><path d="M1199.54,1455.75c-20.267,2.625 -40.93,3.979 -61.908,3.979c-263.849,0 -478.061,-214.212 -478.061,-478.061c0,-83.068 21.233,-161.217 58.563,-229.31" style="fill:none;stroke:#4d4d4d;stroke-width:8.33px;stroke-linejoin:round;stroke-miterlimit:1.5;"/><path d="M1197.07,1274.65c-25.956,6.026 -50.534,8.931 -78.312,8.931c-196.621,0 -356.253,-159.632 -356.253,-356.253c-0,-41.367 7.066,-80.622 20.056,-117.573" style="fill:none;stroke:#4d4d4d;stroke-width:8.33px;stroke-linejoin:round;stroke-miterlimit:1.5;"/><circle cx="1244.43" cy="1178.24" r="356.253" style="fill:none;stroke:#000;stroke-width:12.5px;stroke-linejoin:round;stroke-miterlimit:1.5;"/><circle cx="1225.8" cy="1119.44" r="478.061" style="fill:none;stroke:#000;stroke-width:12.5px;stroke-linejoin:round;stroke-miterlimit:1.5;"/></g></svg>