<?xml version="1.0" encoding="UTF-8" standalone="no"?><!DOCTYPE svg PUBLIC "-//W3C//DTD SVG 1.1//EN" "http://www.w3.org/Graphics/SVG/1.1/DTD/svg11.dtd"><svg width="100%" height="100%" viewBox="0 0 2363 2130" version="1.1" xmlns="http://www.w3.org/2000/svg" xmlns:xlink="http://www.w3.org/1999/xlink" xml:space="preserve" xmlns:serif="http://www.serif.com/" style="fill-rule:evenodd;clip-rule:evenodd;stroke-linecap:round;"><rect id="Artboard8" x="0.297" y="0.926" width="2362.2" height="2129.02" style="fill:none;"/><clipPath id="_clip1"><rect x="0.297" y="0.926" width="2362.2" height="2129.02"/></clipPath><g clip-path="url(#_clip1)"><path d="M1165.52,818.779l0.035,-206.211l0,-595.41" style="fill:none;fill-rule:nonzero;stroke:#4d4d4d;stroke-width:8.33px;"/><path d="M1166.51,817.93c0.986,-37.077 -15.84,-81.68 -46.555,-112.395c-30.715,-30.715 -75.319,-47.542 -112.395,-46.556c-37.077,-0.986 -81.68,15.841 -112.395,46.556c-30.715,30.715 -47.542,75.318 -46.556,112.395c-0.986,37.076 15.841,81.68 46.556,112.395c30.715,30.715 75.318,47.541 112.395,46.555c37.076,0.986 81.68,-15.84 112.395,-46.555c30.715,-30.715 47.541,-75.319 46.555,-112.395Z" style="fill:none;fill-rule:nonzero;stroke:#4d4d4d;stroke-width:8.33px;stroke-linecap:butt;"/><path d="M1199.32,1515.4c-44.091,2.758 -98.24,-0.71 -130.171,-5.596c-71.366,-10.919 -140.366,-37.297 -199.166,-74.069c-58.8,-36.773 -107.401,-83.941 -143.811,-133.639c-36.537,-49.604 -67.014,-110.085 -84.522,-177.191c-17.508,-67.106 -22.047,-140.836 -11.127,-212.202c10.919,-71.365 37.297,-140.365 74.07,-199.166c36.772,-58.8 83.94,-107.4 133.638,-143.81c3.086,-2.274 33.765,-25.765 39.394,-26.872" style="fill:none;stroke:#4d4d4d;stroke-width:8.33px;"/><path d="M1165.55,593.902c32.665,-2.893 98.193,0.28 130.101,5.162c71.365,10.919 140.366,37.297 199.166,74.07c58.8,36.773 107.401,83.94 143.811,133.638c36.536,49.605 67.014,110.086 84.522,177.192c17.508,67.105 22.047,140.836 11.127,212.201c-10.919,71.365 -37.297,140.365 -74.07,199.166c-36.773,58.8 -79.327,110.545 -133.026,145.035c-4.491,2.884 -14.655,9.412 -40.007,18.94" style="fill:none;fill-rule:nonzero;stroke:#4d4d4d;stroke-width:8.33px;"/><path d="M1487.18,1633.78c385.592,-202.139 459.595,-577.139 369.248,-905.094c-65.533,-237.883 -226.816,-451.014 -437.211,-589.795c-78.521,-51.794 -163.883,-93.233 -253.661,-121.737" style="fill:none;fill-rule:nonzero;stroke:#4d4d4d;stroke-width:8.33px;"/><path d="M1487.18,1375.06l0,258.729" style="fill:none;fill-rule:nonzero;stroke:#4d4d4d;stroke-width:8.26px;"/><path d="M877.62,477.088c-385.591,202.139 -459.594,577.139 -369.247,905.093c89.99,326.664 360.691,606.652 691.026,711.533" style="fill:none;fill-rule:nonzero;stroke:#4d4d4d;stroke-width:8.33px;"/><path d="M1199.4,1281.57l0,812.144" style="fill:none;fill-rule:nonzero;stroke:#4d4d4d;stroke-width:9.52px;"/><path d="M1517.34,1281.57c0.985,-37.076 -15.841,-81.679 -46.556,-112.394c-30.715,-30.716 -75.319,-47.542 -112.395,-46.556c-37.076,-0.986 -81.68,15.84 -112.395,46.556c-30.715,30.715 -47.542,75.318 -46.556,112.394c-0.986,37.077 15.841,81.681 46.556,112.396c30.715,30.715 75.319,47.541 112.395,46.555c37.076,0.986 81.68,-15.84 112.395,-46.555c30.715,-30.715 47.541,-75.319 46.556,-112.396Z" style="fill:none;fill-rule:nonzero;stroke:#4d4d4d;stroke-width:8.33px;stroke-linecap:butt;"/><path d="M877.62,725.59l0,-248.502" style="fill:none;fill-rule:nonzero;stroke:#4d4d4d;stroke-width:8.42px;"/><path d="M1636.78,1361.72c-20.495,-18.84 -40.99,-37.681 -61.485,-56.521" style="fill:none;stroke:#000;stroke-width:12.5px;stroke-linejoin:round;stroke-miterlimit:1.5;"/><path d="M1165.28,828.285l0.244,-181.404" style="fill:none;fill-rule:nonzero;stroke:#000;stroke-width:12.5px;"/><path d="M1165.52,645.731c19.699,-2.477 39.77,-3.753 60.136,-3.753c263.849,-0 478.061,214.211 478.061,478.06c0,88.145 -23.907,170.75 -65.585,241.679" style="fill:none;stroke:#000;stroke-width:12.5px;stroke-linejoin:round;stroke-miterlimit:1.5;"/><path d="M1165.52,831.337c25.345,-5.73 51.71,-8.755 78.776,-8.755c196.621,-0 356.253,159.632 356.253,356.253c0,45.444 -9.722,85.581 -25.262,125.559" style="fill:none;stroke:#000;stroke-width:12.5px;stroke-linejoin:round;stroke-miterlimit:1.5;"/><path d="M719.899,752.958c20.843,19.133 41.686,38.267 62.529,57.401" style="fill:none;stroke:#4d4d4d;stroke-width:8.33px;stroke-linejoin:round;stroke-miterlimit:1.5;"/><path d="M1199.4,1456.35c-20.267,2.625 -40.93,3.979 -61.908,3.979c-263.849,-0 -478.061,-214.212 -478.061,-478.061c0,-83.069 21.233,-161.218 58.563,-229.31" style="fill:none;stroke:#4d4d4d;stroke-width:8.33px;stroke-linejoin:round;stroke-miterlimit:1.5;"/><path d="M1196.94,1275.25c-25.956,6.026 -50.534,8.932 -78.312,8.932c-196.621,-0 -356.253,-159.632 -356.253,-356.254c-0,-41.367 7.066,-80.622 20.055,-117.572" style="fill:none;stroke:#4d4d4d;stroke-width:8.33px;stroke-linejoin:round;stroke-miterlimit:1.5;"/></g></svg>