# Rhino

mtllib Frangisole51.mtl
usemtl diffuse_Black
v 1.3877956395990192 3 -0.11464261881625021
v 1.3877956395990192 0 -0.11464261881625022
v 1.3777956395990194 3 -0.09732211074056174
v 1.3777956395990194 0 -0.097322110740561754
v 1.3638787231301963 3 0.28098842668665935
v 1.3638787231301963 0 0.28098842668665935
v 1.3494040423680951 3 0.29479000691630142
v 1.3494040423680951 0 0.29479000691630142
v 1.2992816068859967 3 -0.50098600114857628
v 1.2992816068859967 0 -0.50098600114857628
v 1.2945664281758082 3 -0.48154976978210567
v 1.2945664281758082 0 -0.48154976978210567
v 1.2294684638124527 3 0.65385546096193647
v 1.2294684638124527 0 0.65385546096193636
v 1.2116917548393547 3 0.66301999139648449
v 1.2116917548393547 0 0.66301999139648449
v 1.1190432673496906 3 0.024212390703838516
v 1.1190432673496906 0 0.024212390703838543
v 1.1064591438247906 3 -0.82676513036265664
v 1.1064591438247906 0 -0.82676513036265664
v 1.1055075055083157 3 -0.84674247714631656
v 1.1055075055083157 0 -0.84674247714631656
v 1.1045685865875894 3 0.038013970933480606
v 1.1045685865875894 0 0.038013970933480551
v 1.0805355709328741 3 -0.29203930217187196
v 1.0805355709328741 0 -0.29203930217187196
v 1.0705355709328743 3 -0.27471879409618349
v 1.0705355709328743 0 -0.27471879409618349
v 1.0668927334524014 3 0.33850253968135779
v 1.0668927334524014 0 0.33850253968135774
v 1.0491160244793034 3 0.34766707011590581
v 1.0491160244793034 0 0.34766707011590581
v 0.99545398148711983 3 0.97375101441823408
v 0.99545398148711983 0 0.97375101441823408
v 0.97581540754186613 3 0.97753603930544219
v 0.97581540754186613 0 0.97753603930544219
v 0.95448930875155358 3 -0.58463170761022487
v 0.95448930875155358 0 -0.58463170761022487
v 0.94977413004136513 3 -0.56519547624375432
v 0.94977413004136513 0 -0.56519547624375432
v 0.9283088953461972 3 0.62536922604601297
v 0.9283088953461972 0 0.62536922604601297
v 0.9086703214009435 3 0.62915425093322108
v 0.9086703214009435 0 0.62915425093322108
v 0.8287131200069896 3 -1.1050008970427805
v 0.8287131200069896 0 -1.1050008970427805
v 0.82217176074064136 3 -1.1239009134170734
v 0.82217176074064136 0 -1.1239009134170734
v 0.75206763765814966 3 -0.80988338225298007
v 0.75206763765814955 0 -0.80988338225298007
v 0.75111599934167472 3 -0.82986072903663999
v 0.75111599934167461 0 -0.82986072903663999
v 0.71451899140462283 3 0.86157221693041297
v 0.71451899140462283 0 0.86157221693041297
v 0.69460955295316151 3 0.85967109606432945
v 0.69460955295316151 0 0.85967109606432945
v 0.6807937377744826 3 1.2147590518066318
v 0.6807937377744826 0 1.2147590518066318
v 0.66088429932302128 3 1.2128579309405483
v 0.66088429932302128 0 1.2128579309405483
v 0.4934330979903308 3 -0.98895935319400285
v 0.49343309799033086 0 -0.98895935319400285
v 0.48689173872398256 3 -1.007859369568296
v 0.48689173872398261 0 -1.007859369568296
v 0.48382968775291846 3 -1.2937160627378723
v 0.48382968775291846 0 -1.2937160627378723
v 0.47222854956149463 3 -1.3100075817788788
v 0.47222854956149468 0 -1.3100075817788788
v 0.44284300818750827 3 1.0279757507663811
v 0.44284300818750827 0 1.0279757507663811
v 0.4242756495271871 3 1.0205425016531746
v 0.4242756495271871 0 1.0205425016531746
v 0.31097963426361253 3 1.3573545352679119
v 0.31097963426361253 0 1.3573545352679119
v 0.29241227560329136 3 1.3499212861547054
v 0.29241227560329136 0 1.3499212861547054
v 0.1948235432829635 3 -1.0879157189069877
v 0.19482354328296347 0 -1.0879157189069877
v 0.18322240509153973 3 -1.1042072379479941
v 0.1832224050915397 0 -1.1042072379479941
v 0.1352905181358208 3 1.1110988028824476
v 0.13529051813582077 0 1.1110988028824473
v 0.11956945624096528 3 1.0987356231580356
v 0.11956945624096524 0 1.0987356231580354
v 0.099749251643053524 3 -1.3776220470556211
v 0.099749251643053566 0 -1.3776220470556211
v 0.084028189748198007 3 -1.389985226780033
v 0.084028189748198062 0 -1.389985226780033
v -0.084028189748196674 3 1.3899852267800332
v -0.084028189748196647 0 1.3899852267800332
v -0.099749251643052192 3 1.3776220470556213
v -0.099749251643052178 0 1.3776220470556213
v -0.11956945624096418 3 -1.0987356231580356
v -0.11956945624096423 0 -1.0987356231580356
v -0.13529051813581972 3 -1.1110988028824476
v -0.13529051813581974 0 -1.1110988028824476
v -0.18322240509153853 3 1.1042072379479941
v -0.18322240509153856 0 1.1042072379479941
v -0.1948235432829622 3 1.0879157189069879
v -0.19482354328296228 0 1.0879157189069879
v -0.29241227560329031 3 -1.3499212861547056
v -0.29241227560329036 0 -1.3499212861547056
v -0.31097963426361153 3 -1.3573545352679122
v -0.31097963426361153 0 -1.3573545352679122
v -0.42427564952718627 3 -1.0205425016531751
v -0.42427564952718627 0 -1.0205425016531751
v -0.44284300818750749 3 -1.0279757507663816
v -0.44284300818750744 0 -1.0279757507663816
v -0.47222854956149352 3 1.3100075817788792
v -0.47222854956149346 0 1.3100075817788792
v -0.48382968775291713 3 1.293716062737873
v -0.48382968775291718 0 1.293716062737873
v -0.48689173872398139 3 1.0078593695682967
v -0.4868917387239815 0 1.0078593695682967
v -0.49343309799032986 3 0.98895935319400352
v -0.49343309799032986 0 0.98895935319400352
v -0.66088429932301929 3 -1.2128579309405496
v -0.66088429932301929 0 -1.2128579309405496
v -0.6807937377744806 3 -1.2147590518066331
v -0.6807937377744806 0 -1.2147590518066331
v -0.69460955295316018 3 -0.85967109606433068
v -0.69460955295316018 0 -0.85967109606433068
v -0.7145189914046215 3 -0.86157221693041419
v -0.7145189914046215 0 -0.86157221693041419
v -0.75111599934167383 3 0.82986072903664077
v -0.75111599934167383 0 0.82986072903664077
v -0.75206763765814877 3 0.80988338225298095
v -0.75206763765814877 0 0.80988338225298095
v -0.82217176074064025 3 1.1239009134170748
v -0.82217176074064025 0 1.1239009134170748
v -0.82871312000698871 3 1.1050008970427816
v -0.8287131200069886 0 1.1050008970427816
v -0.90867032140094262 3 -0.62915425093322219
v -0.90867032140094262 0 -0.62915425093322219
v -0.92830889534619643 3 -0.62536922604601408
v -0.92830889534619643 0 -0.62536922604601408
v -0.94977413004136468 3 0.56519547624375499
v -0.94977413004136479 0 0.56519547624375499
v -0.95448930875155313 3 0.58463170761022554
v -0.95448930875155324 0 0.58463170761022554
v -0.97581540754186469 3 -0.97753603930544308
v -0.9758154075418648 0 -0.97753603930544319
v -0.9954539814871185 3 -0.97375101441823497
v -0.99545398148711861 0 -0.97375101441823508
v -1.0491160244793027 3 -0.34766707011590769
v -1.0491160244793027 0 -0.34766707011590769
v -1.066892733452401 3 -0.33850253968135957
v -1.066892733452401 0 -0.33850253968135957
v -1.0705355709328743 3 0.27471879409618349
v -1.0705355709328743 0 0.27471879409618349
v -1.0805355709328741 3 0.29203930217187196
v -1.0805355709328741 0 0.29203930217187196
v -1.1045685865875894 3 -0.038013970933482438
v -1.1045685865875894 0 -0.038013970933482438
v -1.1055075055083148 3 0.84674247714631756
v -1.1055075055083148 0 0.84674247714631756
v -1.1064591438247897 3 0.82676513036265775
v -1.1064591438247897 0 0.82676513036265775
v -1.1190432673496904 3 -0.024212390703840514
v -1.1190432673496904 0 -0.024212390703840431
v -1.2116917548393535 3 -0.66301999139648649
v -1.2116917548393535 0 -0.66301999139648649
v -1.2294684638124518 3 -0.65385546096193836
v -1.2294684638124518 0 -0.65385546096193836
v -1.294566428175808 3 0.48154976978210651
v -1.294566428175808 0 0.48154976978210651
v -1.2992816068859965 3 0.50098600114857705
v -1.2992816068859965 0 0.50098600114857705
v -1.3494040423680946 3 -0.29479000691630353
v -1.3494040423680946 0 -0.29479000691630364
v -1.3638787231301956 3 -0.28098842668666163
v -1.3638787231301956 0 -0.28098842668666169
v -1.3777956395990194 3 0.09732211074056174
v -1.3777956395990194 0 0.097322110740561754
v -1.3877956395990192 3 0.11464261881625021
v -1.3877956395990192 0 0.11464261881625022
vn 0.96592581272125244 0 -0.25881901383399963
vn 0.96592581272125244 0 -0.25881901383399963
vn 0.25881901383399963 0 0.96592581272125244
vn 0.25881901383399963 0 0.96592581272125244
vn 0.99971681833267212 0 0.023797668516635895
vn 0.99971681833267212 0 0.023797668516635895
vn -0.023797668516635895 0 0.99971681833267212
vn -0.023797668516635895 0 0.99971681833267212
vn 0.85388129949569702 0 -0.52046781778335571
vn 0.85388129949569702 0 -0.52046781778335571
vn 0.52046781778335571 0 0.85388129949569702
vn 0.52046781778335571 0 0.85388129949569702
vn 0.95251667499542236 0 0.304486483335495
vn 0.95251667499542236 0 0.304486483335495
vn -0.304486483335495 0 0.95251667499542236
vn -0.304486483335495 0 0.95251667499542236
vn 0.023797668516635895 0 -0.99971681833267212
vn 0.023797668516635895 0 -0.99971681833267212
vn 0.73995137214660645 0 0.67266035079956055
vn 0.73995137214660645 0 0.67266035079956055
vn 0.67266035079956055 0 -0.73995137214660645
vn 0.67266035079956055 0 -0.73995137214660645
vn -0.99971681833267212 0 -0.023797668516635895
vn -0.99971681833267212 0 -0.023797668516635895
vn -0.25881901383399963 0 -0.96592581272125244
vn -0.25881901383399963 0 -0.96592581272125244
vn -0.96592581272125244 0 0.25881901383399963
vn -0.96592581272125244 0 0.25881901383399963
vn 0.304486483335495 0 -0.95251667499542236
vn 0.304486483335495 0 -0.95251667499542236
vn -0.95251667499542236 0 -0.304486483335495
vn -0.95251667499542236 0 -0.304486483335495
vn 0.82814931869506836 0 0.56050759553909302
vn 0.82814931869506836 0 0.56050759553909302
vn -0.56050759553909302 0 0.82814931869506836
vn -0.56050759553909302 0 0.82814931869506836
vn -0.52046781778335571 0 -0.85388129949569702
vn -0.52046781778335571 0 -0.85388129949569702
vn -0.85388129949569702 0 0.52046781778335571
vn -0.85388129949569702 0 0.52046781778335571
vn 0.56050759553909302 0 -0.82814931869506836
vn 0.56050759553909302 0 -0.82814931869506836
vn -0.82814931869506836 0 -0.56050759553909302
vn -0.82814931869506836 0 -0.56050759553909302
vn 0.89948844909667969 0 0.43694451451301575
vn 0.89948844909667969 0 0.43694451451301575
vn 0.43694451451301575 0 -0.89948844909667969
vn 0.43694451451301575 0 -0.89948844909667969
vn -0.67266035079956055 0 0.73995137214660645
vn -0.67266035079956055 0 0.73995137214660645
vn -0.73995137214660645 0 -0.67266035079956055
vn -0.73995137214660645 0 -0.67266035079956055
vn 0.77111971378326416 0 -0.63669019937515259
vn 0.77111971378326416 0 -0.63669019937515259
vn -0.63669019937515259 0 -0.77111971378326416
vn -0.63669019937515259 0 -0.77111971378326416
vn 0.63669019937515259 0 0.77111971378326416
vn 0.63669019937515259 0 0.77111971378326416
vn -0.77111971378326416 0 0.63669019937515259
vn -0.77111971378326416 0 0.63669019937515259
vn -0.43694451451301575 0 0.89948844909667969
vn -0.43694451451301575 0 0.89948844909667969
vn -0.89948844909667969 0 -0.43694451451301575
vn -0.89948844909667969 0 -0.43694451451301575
vn 0.98615437746047974 0 0.16583003103733063
vn 0.98615437746047974 0 0.16583003103733063
vn 0.16583003103733063 0 -0.98615437746047974
vn 0.16583003103733063 0 -0.98615437746047974
vn 0.91926032304763794 0 -0.39365023374557495
vn 0.91926032304763794 0 -0.39365023374557495
vn -0.39365023374557495 0 -0.91926032304763794
vn -0.39365023374557495 0 -0.91926032304763794
vn 0.39365023374557495 0 0.91926032304763794
vn 0.39365023374557495 0 0.91926032304763794
vn -0.91926032304763794 0 0.39365023374557495
vn -0.91926032304763794 0 0.39365023374557495
vn -0.16583003103733063 0 0.98615437746047974
vn -0.16583003103733063 0 0.98615437746047974
vn -0.98615437746047974 0 -0.16583003103733063
vn -0.98615437746047974 0 -0.16583003103733063
vn 0.9929279088973999 0 -0.11871907114982605
vn 0.9929279088973999 0 -0.11871907114982605
vn -0.11871907114982605 0 -0.9929279088973999
vn -0.11871907114982605 0 -0.9929279088973999
vn 0.9929279088973999 0 -0.11871907114982605
vn 0.9929279088973999 0 -0.11871907114982605
vn -0.11871907114982605 0 -0.9929279088973999
vn -0.11871907114982605 0 -0.9929279088973999
vn 0.11871907114982605 0 0.9929279088973999
vn 0.11871907114982605 0 0.9929279088973999
vn -0.9929279088973999 0 0.11871907114982605
vn -0.9929279088973999 0 0.11871907114982605
vn 0.11871907114982605 0 0.9929279088973999
vn 0.11871907114982605 0 0.9929279088973999
vn -0.9929279088973999 0 0.11871907114982605
vn -0.9929279088973999 0 0.11871907114982605
vn 0.98615437746047974 0 0.16583003103733063
vn 0.98615437746047974 0 0.16583003103733063
vn 0.16583003103733063 0 -0.98615437746047974
vn 0.16583003103733063 0 -0.98615437746047974
vn 0.91926032304763794 0 -0.39365023374557495
vn 0.91926032304763794 0 -0.39365023374557495
vn -0.39365023374557495 0 -0.91926032304763794
vn -0.39365023374557495 0 -0.91926032304763794
vn 0.39365023374557495 0 0.91926032304763794
vn 0.39365023374557495 0 0.91926032304763794
vn -0.91926032304763794 0 0.39365023374557495
vn -0.91926032304763794 0 0.39365023374557495
vn -0.16583003103733063 0 0.98615437746047974
vn -0.16583003103733063 0 0.98615437746047974
vn -0.98615437746047974 0 -0.16583003103733063
vn -0.98615437746047974 0 -0.16583003103733063
vn 0.89948844909667969 0 0.43694451451301575
vn 0.89948844909667969 0 0.43694451451301575
vn 0.43694451451301575 0 -0.89948844909667969
vn 0.43694451451301575 0 -0.89948844909667969
vn 0.77111971378326416 0 -0.63669019937515259
vn 0.77111971378326416 0 -0.63669019937515259
vn -0.63669019937515259 0 -0.77111971378326416
vn -0.63669019937515259 0 -0.77111971378326416
vn 0.63669019937515259 0 0.77111971378326416
vn 0.63669019937515259 0 0.77111971378326416
vn -0.77111971378326416 0 0.63669019937515259
vn -0.77111971378326416 0 0.63669019937515259
vn 0.73995137214660645 0 0.67266035079956055
vn 0.73995137214660645 0 0.67266035079956055
vn 0.67266035079956055 0 -0.73995137214660645
vn 0.67266035079956055 0 -0.73995137214660645
vn -0.43694451451301575 0 0.89948844909667969
vn -0.43694451451301575 0 0.89948844909667969
vn -0.89948844909667969 0 -0.43694451451301575
vn -0.89948844909667969 0 -0.43694451451301575
vn 0.82814931869506836 0 0.56050759553909302
vn 0.82814931869506836 0 0.56050759553909302
vn -0.56050759553909302 0 0.82814931869506836
vn -0.56050759553909302 0 0.82814931869506836
vn 0.85388129949569702 0 -0.52046781778335571
vn 0.85388129949569702 0 -0.52046781778335571
vn 0.52046781778335571 0 0.85388129949569702
vn 0.52046781778335571 0 0.85388129949569702
vn 0.56050759553909302 0 -0.82814931869506836
vn 0.56050759553909302 0 -0.82814931869506836
vn -0.82814931869506836 0 -0.56050759553909302
vn -0.82814931869506836 0 -0.56050759553909302
vn 0.95251667499542236 0 0.304486483335495
vn 0.95251667499542236 0 0.304486483335495
vn -0.304486483335495 0 0.95251667499542236
vn -0.304486483335495 0 0.95251667499542236
vn 0.96592581272125244 0 -0.25881901383399963
vn 0.96592581272125244 0 -0.25881901383399963
vn 0.25881901383399963 0 0.96592581272125244
vn 0.25881901383399963 0 0.96592581272125244
vn 0.99971681833267212 0 0.023797668516635895
vn 0.99971681833267212 0 0.023797668516635895
vn -0.67266035079956055 0 0.73995137214660645
vn -0.67266035079956055 0 0.73995137214660645
vn -0.73995137214660645 0 -0.67266035079956055
vn -0.73995137214660645 0 -0.67266035079956055
vn -0.023797668516635895 0 0.99971681833267212
vn -0.023797668516635895 0 0.99971681833267212
vn 0.304486483335495 0 -0.95251667499542236
vn 0.304486483335495 0 -0.95251667499542236
vn -0.95251667499542236 0 -0.304486483335495
vn -0.95251667499542236 0 -0.304486483335495
vn -0.52046781778335571 0 -0.85388129949569702
vn -0.52046781778335571 0 -0.85388129949569702
vn -0.85388129949569702 0 0.52046781778335571
vn -0.85388129949569702 0 0.52046781778335571
vn 0.023797668516635895 0 -0.99971681833267212
vn 0.023797668516635895 0 -0.99971681833267212
vn -0.99971681833267212 0 -0.023797668516635895
vn -0.99971681833267212 0 -0.023797668516635895
vn -0.25881901383399963 0 -0.96592581272125244
vn -0.25881901383399963 0 -0.96592581272125244
vn -0.96592581272125244 0 0.25881901383399963
vn -0.96592581272125244 0 0.25881901383399963
f 2//2 1//1 3//3 4//4
f 4//4 3//3 27//27 28//28
f 28//28 27//27 25//25 26//26
f 26//26 25//25 1//1 2//2
f 10//10 9//9 11//11 12//12
f 12//12 11//11 39//39 40//40
f 40//40 39//39 37//37 38//38
f 38//38 37//37 9//9 10//10
f 22//22 21//21 19//19 20//20
f 20//20 19//19 49//49 50//50
f 50//50 49//49 51//51 52//52
f 52//52 51//51 21//21 22//22
f 48//48 47//47 45//45 46//46
f 46//46 45//45 61//61 62//62
f 62//62 61//61 63//63 64//64
f 64//64 63//63 47//47 48//48
f 68//68 67//67 65//65 66//66
f 66//66 65//65 77//77 78//78
f 78//78 77//77 79//79 80//80
f 80//80 79//79 67//67 68//68
f 88//88 87//87 85//85 86//86
f 86//86 85//85 93//93 94//94
f 94//94 93//93 95//95 96//96
f 96//96 95//95 87//87 88//88
f 104//104 103//103 101//101 102//102
f 102//102 101//101 105//105 106//106
f 106//106 105//105 107//107 108//108
f 108//108 107//107 103//103 104//104
f 120//120 119//119 117//117 118//118
f 118//118 117//117 121//121 122//122
f 122//122 121//121 123//123 124//124
f 124//124 123//123 119//119 120//120
f 144//144 143//143 141//141 142//142
f 142//142 141//141 133//133 134//134
f 134//134 133//133 135//135 136//136
f 136//136 135//135 143//143 144//144
f 164//164 163//163 161//161 162//162
f 162//162 161//161 145//145 146//146
f 146//146 145//145 147//147 148//148
f 148//148 147//147 163//163 164//164
f 172//172 171//171 169//169 170//170
f 170//170 169//169 153//153 154//154
f 154//154 153//153 159//159 160//160
f 160//160 159//159 171//171 172//172
f 176//176 175//175 173//173 174//174
f 174//174 173//173 149//149 150//150
f 150//150 149//149 151//151 152//152
f 152//152 151//151 175//175 176//176
f 168//168 167//167 165//165 166//166
f 166//166 165//165 137//137 138//138
f 138//138 137//137 139//139 140//140
f 140//140 139//139 167//167 168//168
f 156//156 155//155 157//157 158//158
f 158//158 157//157 127//127 128//128
f 128//128 127//127 125//125 126//126
f 126//126 125//125 155//155 156//156
f 130//130 129//129 131//131 132//132
f 132//132 131//131 115//115 116//116
f 116//116 115//115 113//113 114//114
f 114//114 113//113 129//129 130//130
f 110//110 109//109 111//111 112//112
f 112//112 111//111 99//99 100//100
f 100//100 99//99 97//97 98//98
f 98//98 97//97 109//109 110//110
f 90//90 89//89 91//91 92//92
f 92//92 91//91 83//83 84//84
f 84//84 83//83 81//81 82//82
f 82//82 81//81 89//89 90//90
f 74//74 73//73 75//75 76//76
f 76//76 75//75 71//71 72//72
f 72//72 71//71 69//69 70//70
f 70//70 69//69 73//73 74//74
f 58//58 57//57 59//59 60//60
f 60//60 59//59 55//55 56//56
f 56//56 55//55 53//53 54//54
f 54//54 53//53 57//57 58//58
f 34//34 33//33 35//35 36//36
f 36//36 35//35 43//43 44//44
f 44//44 43//43 41//41 42//42
f 42//42 41//41 33//33 34//34
f 14//14 13//13 15//15 16//16
f 16//16 15//15 31//31 32//32
f 32//32 31//31 29//29 30//30
f 30//30 29//29 13//13 14//14
f 6//6 5//5 7//7 8//8
f 8//8 7//7 23//23 24//24
f 24//24 23//23 17//17 18//18
f 18//18 17//17 5//5 6//6
