# Rhino

mtllib Frangisole72.mtl
usemtl diffuse_Black
v 1.4059425857269445 3 -0.17680663460152027
v 1.4059425857269445 0 -0.17680663460152024
v 1.4028138964261399 3 -0.15705286778961783
v 1.4028138964261399 0 -0.15705286778961783
v 1.3988042175432165 3 0.22645507586051608
v 1.3988042175432165 0 0.22645507586051608
v 1.390236982911305 3 0.2445272226826776
v 1.390236982911305 0 0.2445272226826776
v 1.3017431709080085 3 -0.54590946894296988
v 1.3017431709080085 0 -0.54590946894296988
v 1.2991798470775866 3 -0.56574452303768763
v 1.2991798470775866 0 -0.56574452303768763
v 1.2783430506631379 3 0.6113707428565287
v 1.2783430506631379 0 0.61137074285652881
v 1.2650313370986908 3 0.62629717183261335
v 1.2650313370986908 0 0.62629717183261346
v 1.0952129554476402 3 -0.8905397315711846
v 1.09521295544764 0 -0.8905397315711846
v 1.0871652837380588 3 -0.90884915482957251
v 1.0871652837380588 0 -0.90884915482957251
v 1.0782103268064811 3 0.074475174937462155
v 1.0782103268064811 0 0.074475174937462155
v 1.0696430921745697 3 0.092547321759623671
v 1.0696430921745697 0 0.092547321759623671
v 1.0555173141057539 3 -0.23230854512281618
v 1.0555173141057539 0 -0.23230854512281618
v 1.0543181324171877 3 0.94675678822811493
v 1.0543181324171877 0 0.94675678822811493
v 1.0523886248049492 3 -0.21255477831091374
v 1.0523886248049492 0 -0.21255477831091374
v 1.0373403757853876 3 0.95732824885337164
v 1.0373403757853876 0 0.95732824885337164
v 1.0135531511930655 3 0.37522535924522871
v 1.0135531511930655 0 0.37522535924522865
v 1.0002414376286184 3 0.39015178822131341
v 1.0002414376286184 0 0.39015178822131336
v 0.94987588984977545 3 -0.5004369543546433
v 0.94987588984977545 0 -0.5004369543546433
v 0.94731256601935354 3 -0.52027200844936106
v 0.94731256601935354 0 -0.52027200844936106
v 0.86678392710267604 3 0.64557701649808363
v 0.86678392710267604 0 0.64557701649808363
v 0.84980617047087603 3 0.65614847712334023
v 0.84980617047087603 0 0.65614847712334023
v 0.79995509981914781 3 -1.1630237613912149
v 0.79995509981914781 0 -1.1630237613912149
v 0.78707505473097084 3 -1.1783242332312109
v 0.78707505473097084 0 -1.1783242332312109
v 0.77040985942840645 3 -0.74777670456972467
v 0.77040985942840634 0 -0.74777670456972456
v 0.76236218771882514 3 -0.76608612782811258
v 0.76236218771882514 0 -0.76608612782811258
v 0.74487862935416416 3 1.2054422291968803
v 0.74487862935416416 0 1.2054422291968803
v 0.72561026652671301 3 1.2108022846023478
v 0.72561026652671301 0 1.2108022846023476
v 0.64979302420093155 3 0.86362786326861418
v 0.64979302420093155 0 0.86362786326861407
v 0.6305246613734804 3 0.86898791867408176
v 0.6305246613734804 0 0.86898791867408165
v 0.52852980400000138 3 -0.93453603337986602
v 0.52852980400000149 0 -0.93453603337986602
v 0.51564975891182452 3 -0.94983650521986207
v 0.51564975891182452 0 -0.94983650521986207
v 0.43988963951947258 3 -1.3412865228319641
v 0.43988963951947252 0 -1.3412865228319641
v 0.42322068570516647 3 -1.352338490020502
v 0.42322068570516641 0 -1.352338490020502
v 0.38015975494634091 3 1.0117127167497906
v 0.38015975494634091 0 1.0117127167497906
v 0.37509348970464729 3 1.3664699097970918
v 0.37509348970464729 0 1.3664699097970918
v 0.36016179408615256 3 1.011427127123995
v 0.36016179408615256 0 1.011427127123995
v 0.35509552884445894 3 1.3661843201712962
v 0.35509552884445894 0 1.3661843201712962
v 0.24383140713929158 3 -1.0455848106653649
v 0.24383140713929161 0 -1.0455848106653649
v 0.22716245332498547 3 -1.0566367778539028
v 0.2271624533249855 0 -1.0566367778539028
v 0.079728203243115761 3 1.0778346228071023
v 0.079728203243115789 0 1.0778346228071023
v 0.060620760206630153 3 1.0719265249230585
v 0.060620760206630146 0 1.0719265249230585
v 0.044186936750348287 3 -1.4108862271309663
v 0.044186936750348335 0 -1.4108862271309663
v 0.025079493713862727 3 -1.4167943250150101
v 0.025079493713862727 0 -1.4167943250150101
v -0.025079493713861346 3 1.4167943250150101
v -0.025079493713861346 0 1.4167943250150101
v -0.044186936750346961 3 1.4108862271309663
v -0.044186936750346989 0 1.4108862271309663
v -0.060620760206629126 3 -1.0719265249230587
v -0.060620760206629126 0 -1.0719265249230587
v -0.079728203243114693 3 -1.0778346228071025
v -0.07972820324311472 0 -1.0778346228071025
v -0.22716245332498455 3 1.0566367778539032
v -0.22716245332498453 0 1.0566367778539032
v -0.24383140713929066 3 1.0455848106653653
v -0.24383140713929063 0 1.0455848106653653
v -0.35509552884445783 3 -1.3661843201712964
v -0.35509552884445783 0 -1.3661843201712964
v -0.36016179408615179 3 -1.0114271271239952
v -0.36016179408615179 0 -1.0114271271239952
v -0.37509348970464618 3 -1.366469909797092
v -0.37509348970464618 0 -1.366469909797092
v -0.38015975494634013 3 -1.0117127167497908
v -0.38015975494634013 0 -1.0117127167497908
v -0.42322068570516502 3 1.3523384900205024
v -0.42322068570516502 0 1.3523384900205022
v -0.43988963951947113 3 1.3412865228319646
v -0.43988963951947113 0 1.3412865228319644
v -0.51564975891182363 3 0.94983650521986274
v -0.51564975891182363 0 0.94983650521986274
v -0.52852980400000038 3 0.93453603337986668
v -0.5285298040000006 0 0.93453603337986668
v -0.63052466137347885 3 -0.86898791867408243
v -0.63052466137347885 0 -0.86898791867408243
v -0.6497930242009301 3 -0.86362786326861507
v -0.6497930242009301 0 -0.86362786326861507
v -0.72561026652671101 3 -1.210802284602349
v -0.72561026652671101 0 -1.210802284602349
v -0.74487862935416227 3 -1.2054422291968816
v -0.74487862935416227 0 -1.2054422291968816
v -0.76236218771882436 3 0.76608612782811314
v -0.76236218771882425 0 0.76608612782811314
v -0.77040985942840567 3 0.74777670456972523
v -0.77040985942840567 0 0.74777670456972534
v -0.7870750547309695 3 1.1783242332312118
v -0.7870750547309695 0 1.1783242332312118
v -0.79995509981914648 3 1.1630237613912158
v -0.79995509981914648 0 1.1630237613912158
v -0.84980617047087503 3 -0.65614847712334134
v -0.84980617047087503 0 -0.65614847712334134
v -0.86678392710267527 3 -0.64557701649808463
v -0.86678392710267527 0 -0.64557701649808463
v -0.94731256601935321 3 0.52027200844936161
v -0.94731256601935321 0 0.52027200844936161
v -0.94987588984977511 3 0.50043695435464386
v -0.94987588984977511 0 0.50043695435464386
v -1.0002414376286177 3 -0.39015178822131497
v -1.0002414376286177 0 -0.39015178822131502
v -1.0135531511930649 3 -0.37522535924523026
v -1.0135531511930649 0 -0.37522535924523026
v -1.0373403757853863 3 -0.95732824885337275
v -1.0373403757853863 0 -0.95732824885337275
v -1.0523886248049492 3 0.21255477831091374
v -1.0523886248049492 0 0.21255477831091374
v -1.0543181324171864 3 -0.94675678822811604
v -1.0543181324171864 0 -0.94675678822811604
v -1.0555173141057539 3 0.23230854512281618
v -1.0555173141057539 0 0.23230854512281618
v -1.0696430921745694 3 -0.092547321759625475
v -1.0696430921745694 0 -0.092547321759625475
v -1.0782103268064809 3 -0.074475174937463987
v -1.0782103268064809 0 -0.074475174937463959
v -1.0871652837380579 3 0.9088491548295734
v -1.0871652837380579 0 0.9088491548295734
v -1.0952129554476393 3 0.8905397315711856
v -1.0952129554476393 0 0.8905397315711856
v -1.2650313370986899 3 -0.62629717183261557
v -1.2650313370986899 0 -0.62629717183261568
v -1.278343050663137 3 -0.61137074285653092
v -1.278343050663137 0 -0.61137074285653092
v -1.2991798470775862 3 0.56574452303768841
v -1.2991798470775862 0 0.56574452303768841
v -1.3017431709080081 3 0.54590946894297065
v -1.3017431709080081 0 0.54590946894297065
v -1.3902369829113046 3 -0.24452722268267993
v -1.3902369829113046 0 -0.24452722268267996
v -1.398804217543216 3 -0.22645507586051844
v -1.398804217543216 0 -0.22645507586051844
v -1.4028138964261399 3 0.15705286778961783
v -1.4028138964261399 0 0.15705286778961783
v -1.4059425857269445 3 0.17680663460152027
v -1.4059425857269445 0 0.17680663460152024
vn 0.80901700258255005 0 -0.58778524398803711
vn 0.80901700258255005 0 -0.58778524398803711
vn 0.58778524398803711 0 0.80901700258255005
vn 0.58778524398803711 0 0.80901700258255005
vn 0.94184434413909912 0 -0.33604937791824341
vn 0.94184434413909912 0 -0.33604937791824341
vn 0.33604937791824341 0 0.94184434413909912
vn 0.33604937791824341 0 0.94184434413909912
vn 0.79190224409103394 0 0.61064791679382324
vn 0.79190224409103394 0 0.61064791679382324
vn 0.61064791679382324 0 -0.79190224409103394
vn 0.61064791679382324 0 -0.79190224409103394
vn 0.99836909770965576 0 -0.057088788598775864
vn 0.99836909770965576 0 -0.057088788598775864
vn 0.057088788598775864 0 0.99836909770965576
vn 0.057088788598775864 0 0.99836909770965576
vn 0.93186402320861816 0 0.36280766129493713
vn 0.93186402320861816 0 0.36280766129493713
vn 0.36280766129493713 0 -0.93186402320861816
vn 0.36280766129493713 0 -0.93186402320861816
vn -0.33604937791824341 0 -0.94184434413909912
vn -0.33604937791824341 0 -0.94184434413909912
vn -0.94184434413909912 0 0.33604937791824341
vn -0.94184434413909912 0 0.33604937791824341
vn -0.58778524398803711 0 -0.80901700258255005
vn -0.58778524398803711 0 -0.80901700258255005
vn 0.97401189804077148 0 0.22649677097797394
vn 0.97401189804077148 0 0.22649677097797394
vn -0.80901700258255005 0 0.58778524398803711
vn -0.80901700258255005 0 0.58778524398803711
vn -0.22649677097797394 0 0.97401189804077148
vn -0.22649677097797394 0 0.97401189804077148
vn -0.057088788598775864 0 -0.99836909770965576
vn -0.057088788598775864 0 -0.99836909770965576
vn -0.99836909770965576 0 0.057088788598775864
vn -0.99836909770965576 0 0.057088788598775864
vn -0.61064791679382324 0 0.79190224409103394
vn -0.61064791679382324 0 0.79190224409103394
vn -0.79190224409103394 0 -0.61064791679382324
vn -0.79190224409103394 0 -0.61064791679382324
vn 0.22649677097797394 0 -0.97401189804077148
vn 0.22649677097797394 0 -0.97401189804077148
vn -0.97401189804077148 0 -0.22649677097797394
vn -0.97401189804077148 0 -0.22649677097797394
vn 0.99633175134658813 0 0.085574999451637268
vn 0.99633175134658813 0 0.085574999451637268
vn 0.085574999451637268 0 -0.99633175134658813
vn 0.085574999451637268 0 -0.99633175134658813
vn -0.36280766129493713 0 0.93186402320861816
vn -0.36280766129493713 0 0.93186402320861816
vn -0.93186402320861816 0 -0.36280766129493713
vn -0.93186402320861816 0 -0.36280766129493713
vn 0.87074607610702515 0 0.49173292517662048
vn 0.87074607610702515 0 0.49173292517662048
vn -0.49173292517662048 0 0.87074607610702515
vn -0.49173292517662048 0 0.87074607610702515
vn 0.49173292517662048 0 -0.87074607610702515
vn 0.49173292517662048 0 -0.87074607610702515
vn -0.87074607610702515 0 -0.49173292517662048
vn -0.87074607610702515 0 -0.49173292517662048
vn -0.085574999451637268 0 0.99633175134658813
vn -0.085574999451637268 0 0.99633175134658813
vn -0.99633175134658813 0 -0.085574999451637268
vn -0.99633175134658813 0 -0.085574999451637268
vn 0.98008257150650024 0 -0.1985904723405838
vn 0.98008257150650024 0 -0.1985904723405838
vn -0.1985904723405838 0 -0.98008257150650024
vn -0.1985904723405838 0 -0.98008257150650024
vn 0.71713179349899292 0 -0.69693756103515625
vn 0.71713179349899292 0 -0.69693756103515625
vn 0.69693756103515625 0 0.71713179349899292
vn 0.69693756103515625 0 0.71713179349899292
vn -0.69693756103515625 0 -0.71713179349899292
vn -0.69693756103515625 0 -0.71713179349899292
vn -0.71713179349899292 0 0.69693756103515625
vn -0.71713179349899292 0 0.69693756103515625
vn 0.1985904723405838 0 0.98008257150650024
vn 0.1985904723405838 0 0.98008257150650024
vn -0.98008257150650024 0 0.1985904723405838
vn -0.98008257150650024 0 0.1985904723405838
vn 0.88443291187286377 0 -0.46666735410690308
vn 0.88443291187286377 0 -0.46666735410690308
vn -0.46666735410690308 0 -0.88443291187286377
vn -0.46666735410690308 0 -0.88443291187286377
vn 0.88443291187286377 0 -0.46666735410690308
vn 0.88443291187286377 0 -0.46666735410690308
vn -0.46666735410690308 0 -0.88443291187286377
vn -0.46666735410690308 0 -0.88443291187286377
vn 0.46666735410690308 0 0.88443291187286377
vn 0.46666735410690308 0 0.88443291187286377
vn -0.88443291187286377 0 0.46666735410690308
vn -0.88443291187286377 0 0.46666735410690308
vn 0.46666735410690308 0 0.88443291187286377
vn 0.46666735410690308 0 0.88443291187286377
vn -0.88443291187286377 0 0.46666735410690308
vn -0.88443291187286377 0 0.46666735410690308
vn 0.98008257150650024 0 -0.1985904723405838
vn 0.98008257150650024 0 -0.1985904723405838
vn -0.1985904723405838 0 -0.98008257150650024
vn -0.1985904723405838 0 -0.98008257150650024
vn 0.71713179349899292 0 -0.69693756103515625
vn 0.71713179349899292 0 -0.69693756103515625
vn 0.69693756103515625 0 0.71713179349899292
vn 0.69693756103515625 0 0.71713179349899292
vn -0.69693756103515625 0 -0.71713179349899292
vn -0.69693756103515625 0 -0.71713179349899292
vn -0.71713179349899292 0 0.69693756103515625
vn -0.71713179349899292 0 0.69693756103515625
vn 0.1985904723405838 0 0.98008257150650024
vn 0.1985904723405838 0 0.98008257150650024
vn -0.98008257150650024 0 0.1985904723405838
vn -0.98008257150650024 0 0.1985904723405838
vn 0.99633175134658813 0 0.085574999451637268
vn 0.99633175134658813 0 0.085574999451637268
vn 0.085574999451637268 0 -0.99633175134658813
vn 0.085574999451637268 0 -0.99633175134658813
vn 0.87074607610702515 0 0.49173292517662048
vn 0.87074607610702515 0 0.49173292517662048
vn -0.49173292517662048 0 0.87074607610702515
vn -0.49173292517662048 0 0.87074607610702515
vn 0.49173292517662048 0 -0.87074607610702515
vn 0.49173292517662048 0 -0.87074607610702515
vn -0.87074607610702515 0 -0.49173292517662048
vn -0.87074607610702515 0 -0.49173292517662048
vn 0.93186402320861816 0 0.36280766129493713
vn 0.93186402320861816 0 0.36280766129493713
vn 0.36280766129493713 0 -0.93186402320861816
vn 0.36280766129493713 0 -0.93186402320861816
vn -0.085574999451637268 0 0.99633175134658813
vn -0.085574999451637268 0 0.99633175134658813
vn -0.99633175134658813 0 -0.085574999451637268
vn -0.99633175134658813 0 -0.085574999451637268
vn 0.97401189804077148 0 0.22649677097797394
vn 0.97401189804077148 0 0.22649677097797394
vn -0.22649677097797394 0 0.97401189804077148
vn -0.22649677097797394 0 0.97401189804077148
vn 0.79190224409103394 0 0.61064791679382324
vn 0.79190224409103394 0 0.61064791679382324
vn 0.61064791679382324 0 -0.79190224409103394
vn 0.61064791679382324 0 -0.79190224409103394
vn 0.99836909770965576 0 -0.057088788598775864
vn 0.99836909770965576 0 -0.057088788598775864
vn 0.057088788598775864 0 0.99836909770965576
vn 0.057088788598775864 0 0.99836909770965576
vn 0.22649677097797394 0 -0.97401189804077148
vn 0.22649677097797394 0 -0.97401189804077148
vn 0.80901700258255005 0 -0.58778524398803711
vn 0.80901700258255005 0 -0.58778524398803711
vn -0.97401189804077148 0 -0.22649677097797394
vn -0.97401189804077148 0 -0.22649677097797394
vn 0.58778524398803711 0 0.80901700258255005
vn 0.58778524398803711 0 0.80901700258255005
vn 0.94184434413909912 0 -0.33604937791824341
vn 0.94184434413909912 0 -0.33604937791824341
vn 0.33604937791824341 0 0.94184434413909912
vn 0.33604937791824341 0 0.94184434413909912
vn -0.36280766129493713 0 0.93186402320861816
vn -0.36280766129493713 0 0.93186402320861816
vn -0.93186402320861816 0 -0.36280766129493713
vn -0.93186402320861816 0 -0.36280766129493713
vn -0.057088788598775864 0 -0.99836909770965576
vn -0.057088788598775864 0 -0.99836909770965576
vn -0.99836909770965576 0 0.057088788598775864
vn -0.99836909770965576 0 0.057088788598775864
vn -0.61064791679382324 0 0.79190224409103394
vn -0.61064791679382324 0 0.79190224409103394
vn -0.79190224409103394 0 -0.61064791679382324
vn -0.79190224409103394 0 -0.61064791679382324
vn -0.33604937791824341 0 -0.94184434413909912
vn -0.33604937791824341 0 -0.94184434413909912
vn -0.94184434413909912 0 0.33604937791824341
vn -0.94184434413909912 0 0.33604937791824341
vn -0.58778524398803711 0 -0.80901700258255005
vn -0.58778524398803711 0 -0.80901700258255005
vn -0.80901700258255005 0 0.58778524398803711
vn -0.80901700258255005 0 0.58778524398803711
f 2//2 1//1 3//3 4//4
f 4//4 3//3 29//29 30//30
f 30//30 29//29 25//25 26//26
f 26//26 25//25 1//1 2//2
f 12//12 11//11 9//9 10//10
f 10//10 9//9 37//37 38//38
f 38//38 37//37 39//39 40//40
f 40//40 39//39 11//11 12//12
f 20//20 19//19 17//17 18//18
f 18//18 17//17 49//49 50//50
f 50//50 49//49 51//51 52//52
f 52//52 51//51 19//19 20//20
f 48//48 47//47 45//45 46//46
f 46//46 45//45 61//61 62//62
f 62//62 61//61 63//63 64//64
f 64//64 63//63 47//47 48//48
f 68//68 67//67 65//65 66//66
f 66//66 65//65 77//77 78//78
f 78//78 77//77 79//79 80//80
f 80//80 79//79 67//67 68//68
f 88//88 87//87 85//85 86//86
f 86//86 85//85 93//93 94//94
f 94//94 93//93 95//95 96//96
f 96//96 95//95 87//87 88//88
f 106//106 105//105 101//101 102//102
f 102//102 101//101 103//103 104//104
f 104//104 103//103 107//107 108//108
f 108//108 107//107 105//105 106//106
f 124//124 123//123 121//121 122//122
f 122//122 121//121 117//117 118//118
f 118//118 117//117 119//119 120//120
f 120//120 119//119 123//123 124//124
f 150//150 149//149 145//145 146//146
f 146//146 145//145 133//133 134//134
f 134//134 133//133 135//135 136//136
f 136//136 135//135 149//149 150//150
f 164//164 163//163 161//161 162//162
f 162//162 161//161 141//141 142//142
f 142//142 141//141 143//143 144//144
f 144//144 143//143 163//163 164//164
f 172//172 171//171 169//169 170//170
f 170//170 169//169 153//153 154//154
f 154//154 153//153 155//155 156//156
f 156//156 155//155 171//171 172//172
f 176//176 175//175 173//173 174//174
f 174//174 173//173 147//147 148//148
f 148//148 147//147 151//151 152//152
f 152//152 151//151 175//175 176//176
f 166//166 165//165 167//167 168//168
f 168//168 167//167 139//139 140//140
f 140//140 139//139 137//137 138//138
f 138//138 137//137 165//165 166//166
f 158//158 157//157 159//159 160//160
f 160//160 159//159 127//127 128//128
f 128//128 127//127 125//125 126//126
f 126//126 125//125 157//157 158//158
f 130//130 129//129 131//131 132//132
f 132//132 131//131 115//115 116//116
f 116//116 115//115 113//113 114//114
f 114//114 113//113 129//129 130//130
f 110//110 109//109 111//111 112//112
f 112//112 111//111 99//99 100//100
f 100//100 99//99 97//97 98//98
f 98//98 97//97 109//109 110//110
f 90//90 89//89 91//91 92//92
f 92//92 91//91 83//83 84//84
f 84//84 83//83 81//81 82//82
f 82//82 81//81 89//89 90//90
f 72//72 71//71 75//75 76//76
f 76//76 75//75 73//73 74//74
f 74//74 73//73 69//69 70//70
f 70//70 69//69 71//71 72//72
f 54//54 53//53 55//55 56//56
f 56//56 55//55 59//59 60//60
f 60//60 59//59 57//57 58//58
f 58//58 57//57 53//53 54//54
f 28//28 27//27 31//31 32//32
f 32//32 31//31 43//43 44//44
f 44//44 43//43 41//41 42//42
f 42//42 41//41 27//27 28//28
f 14//14 13//13 15//15 16//16
f 16//16 15//15 35//35 36//36
f 36//36 35//35 33//33 34//34
f 34//34 33//33 13//13 14//14
f 6//6 5//5 7//7 8//8
f 8//8 7//7 23//23 24//24
f 24//24 23//23 21//21 22//22
f 22//22 21//21 5//5 6//6
