# Rhino

mtllib Frangisole34.mtl
usemtl diffuse_Black
v 1.3574633894111989 3 -0.071760969029743771
v 1.3574633894111989 0 -0.071760969029743799
v 1.3428363153788156 3 -0.058121001828493918
v 1.3428363153788156 0 -0.058121001828493973
v 1.3226939853651345 3 0.31358748595364133
v 1.3226939853651345 0 0.31358748595364139
v 1.3048165877716824 3 0.32255401567732056
v 1.3048165877716824 0 0.32255401567732056
v 1.2822591827927972 3 -0.45129577708125712
v 1.2822591827927972 0 -0.45129577708125712
v 1.2720674308690276 3 -0.4340874014250734
v 1.2720674308690276 0 -0.43408740142507352
v 1.1807677809888082 3 0.67353094780165357
v 1.1807677809888082 0 0.67353094780165357
v 1.1636307219461033 3 -0.0035516180571806832
v 1.1636307219461033 0 -0.003551618057180711
v 1.1610883802663314 3 0.67709762513555516
v 1.1610883802663314 0 0.67709762513555516
v 1.1457533243526512 3 0.0054149116664985175
v 1.1457533243526512 0 0.0054149116664985175
v 1.1174961080254247 3 0.32442490594228712
v 1.1174961080254247 0 0.32442490594228712
v 1.1154948951530779 3 -0.33124041108393976
v 1.1154948951530779 0 -0.33124041108393976
v 1.103173963073514 3 -0.79426928523297757
v 1.103173963073514 0 -0.79426928523297757
v 1.1008678211206946 3 -0.31760044388268993
v 1.1008678211206946 0 -0.31760044388268993
v 1.0982432083865397 3 -0.77488662137537356
v 1.0982432083865397 0 -0.77488662137537356
v 1.0978167073029479 3 0.32799158327618871
v 1.0978167073029479 0 0.32799158327618871
v 0.98082860543778116 3 0.62611845349151862
v 0.98082860543778116 0 0.62611845349151873
v 0.97698830605833409 3 -0.63209407596725697
v 0.97698830605833409 0 -0.63209407596725686
v 0.96679655413456456 3 -0.61488570031107326
v 0.96679655413456456 0 -0.61488570031107326
v 0.96094150959491209 3 0.62399632744989686
v 0.96094150959491209 0 0.62399632744989697
v 0.94318279329315124 3 0.97890893790155831
v 0.94318279329315124 0 0.97890893790155831
v 0.92329569745028217 3 0.97678681185993654
v 0.92329569745028217 0 0.97678681185993654
v 0.83544585266442595 3 -1.0529091356900231
v 0.83544585266442595 0 -1.0529091356900231
v 0.83471614969419394 3 -1.0728958195964451
v 0.83471614969419394 0 -1.0728958195964451
v 0.76470020244989012 3 0.87708760760868754
v 0.76470020244989012 0 0.87708760760868754
v 0.75933193477992544 3 -0.88173923802392318
v 0.75933193477992544 0 -0.88173923802392318
v 0.7544011800929511 3 -0.86235657416631906
v 0.7544011800929511 0 -0.86235657416631906
v 0.74621654571870488 3 0.8694486002226649
v 0.74621654571870499 0 0.8694486002226649
v 0.62918674500893945 3 1.2049815476482968
v 0.62918674500893934 0 1.2049815476482968
v 0.61070308827775421 3 1.1973425402622742
v 0.61070308827775421 0 1.1973425402622742
v 0.5049656425472393 3 -1.2456312137228078
v 0.5049656425472393 0 -1.2456312137228078
v 0.49863459811473831 3 -1.2646027154133355
v 0.49863459811473826 0 -1.2646027154133355
v 0.48662033690672424 3 1.0570003399982519
v 0.48662033690672418 0 1.0570003399982519
v 0.48088870903677838 3 -1.0399644470146312
v 0.48088870903677838 0 -1.0399644470146312
v 0.48015900606654638 3 -1.0599511309210532
v 0.48015900606654638 0 -1.0599511309210532
v 0.47103755522904445 3 1.0444633182153178
v 0.47103755522904445 0 1.0444633182153178
v 0.26421772856175518 3 1.3334337187057685
v 0.26421772856175513 0 1.3334337187057685
v 0.24863494688407536 3 1.3208966969228344
v 0.24863494688407539 0 1.3208966969228344
v 0.16911738570995347 3 1.1512811910642264
v 0.16911738570995347 0 1.1512811910642264
v 0.16841749472971992 3 -1.133320585272531
v 0.1684174947297199 0 -1.133320585272531
v 0.16208645029721888 3 -1.1522920869630586
v 0.16208645029721885 0 -1.1522920869630586
v 0.15769790338293374 3 1.134861829828695
v 0.15769790338293374 0 1.134861829828695
v 0.13357611921718635 3 -1.3374396588738418
v 0.13357611921718632 0 -1.3374396588738418
v 0.12215663689016662 3 -1.3538590201093732
v 0.12215663689016654 0 -1.3538590201093732
v -0.1221566368901652 3 1.353859020109373
v -0.12215663689016518 0 1.353859020109373
v -0.13357611921718493 3 1.3374396588738415
v -0.1335761192171849 0 1.3374396588738415
v -0.15769790338293274 3 -1.1348618298286954
v -0.15769790338293269 0 -1.1348618298286954
v -0.16208645029721772 3 1.1522920869630586
v -0.16208645029721772 0 1.1522920869630586
v -0.1684174947297187 3 1.1333205852725312
v -0.16841749472971876 0 1.1333205852725312
v -0.16911738570995247 3 -1.1512811910642269
v -0.16911738570995247 0 -1.1512811910642269
v -0.24863494688407434 3 -1.3208966969228348
v -0.24863494688407442 0 -1.3208966969228348
v -0.26421772856175402 3 -1.3334337187057688
v -0.26421772856175407 0 -1.3334337187057688
v -0.47103755522904373 3 -1.0444633182153182
v -0.47103755522904373 0 -1.0444633182153182
v -0.48015900606654527 3 1.0599511309210539
v -0.48015900606654527 0 1.0599511309210539
v -0.48088870903677727 3 1.0399644470146319
v -0.48088870903677727 0 1.0399644470146319
v -0.48662033690672341 3 -1.0570003399982522
v -0.48662033690672335 0 -1.0570003399982522
v -0.49863459811473709 3 1.2646027154133357
v -0.49863459811473704 0 1.2646027154133357
v -0.50496564254723808 3 1.2456312137228083
v -0.50496564254723808 0 1.2456312137228083
v -0.61070308827775222 3 -1.197342540262275
v -0.61070308827775222 0 -1.197342540262275
v -0.62918674500893723 3 -1.2049815476482977
v -0.62918674500893734 0 -1.2049815476482977
v -0.74621654571870333 3 -0.86944860022266623
v -0.74621654571870333 0 -0.86944860022266623
v -0.75440118009295021 3 0.86235657416631994
v -0.75440118009295021 0 0.86235657416631983
v -0.75933193477992456 3 0.88173923802392395
v -0.75933193477992456 0 0.88173923802392384
v -0.76470020244988857 3 -0.87708760760868887
v -0.76470020244988846 0 -0.87708760760868887
v -0.83471614969419283 3 1.0728958195964462
v -0.83471614969419283 0 1.0728958195964462
v -0.83544585266442484 3 1.0529091356900242
v -0.83544585266442484 0 1.0529091356900242
v -0.92329569745028084 3 -0.97678681185993765
v -0.92329569745028084 0 -0.97678681185993765
v -0.94318279329314991 3 -0.97890893790155942
v -0.94318279329314991 0 -0.97890893790155942
v -0.9609415095949112 3 -0.62399632744989808
v -0.9609415095949112 0 -0.62399632744989808
v -0.96679655413456445 3 0.61488570031107403
v -0.96679655413456445 0 0.61488570031107392
v -0.97698830605833376 3 0.63209407596725764
v -0.97698830605833376 0 0.63209407596725764
v -0.98082860543778028 3 -0.62611845349151984
v -0.98082860543778028 0 -0.62611845349151984
v -1.0978167073029472 3 -0.32799158327619043
v -1.0978167073029472 0 -0.32799158327619049
v -1.098243208386539 3 0.77488662137537467
v -1.098243208386539 0 0.77488662137537467
v -1.1008678211206946 3 0.31760044388268993
v -1.1008678211206946 0 0.31760044388268993
v -1.1031739630735133 3 0.79426928523297868
v -1.1031739630735133 0 0.79426928523297868
v -1.1154948951530779 3 0.33124041108393976
v -1.1154948951530779 0 0.33124041108393976
v -1.1174961080254242 3 -0.32442490594228879
v -1.1174961080254242 0 -0.3244249059422889
v -1.145753324352651 3 -0.0054149116665005992
v -1.145753324352651 0 -0.0054149116665005992
v -1.1610883802663303 3 -0.67709762513555727
v -1.1610883802663303 0 -0.67709762513555727
v -1.1636307219461033 3 0.0035516180571786571
v -1.1636307219461033 0 0.0035516180571786571
v -1.1807677809888073 3 -0.67353094780165568
v -1.1807677809888073 0 -0.67353094780165557
v -1.2720674308690276 3 0.4340874014250744
v -1.2720674308690276 0 0.43408740142507429
v -1.2822591827927969 3 0.45129577708125801
v -1.2822591827927969 0 0.45129577708125801
v -1.3048165877716817 3 -0.32255401567732278
v -1.3048165877716817 0 -0.32255401567732273
v -1.3226939853651341 3 -0.3135874859536435
v -1.3226939853651341 0 -0.3135874859536435
v -1.3428363153788156 3 0.058121001828493918
v -1.3428363153788156 0 0.058121001828493973
v -1.3574633894111989 3 0.071760969029743771
v -1.3574633894111989 0 0.071760969029743799
vn 0.99939084053039551 0 0.034899488091468811
vn 0.99939084053039551 0 0.034899488091468811
vn -0.034899488091468811 0 0.99939084053039551
vn -0.034899488091468811 0 0.99939084053039551
vn 0.94907617568969727 0 0.3150467574596405
vn 0.94907617568969727 0 0.3150467574596405
vn -0.3150467574596405 0 0.94907617568969727
vn -0.3150467574596405 0 0.94907617568969727
vn 0.96874082088470459 0 -0.24807514250278473
vn 0.96874082088470459 0 -0.24807514250278473
vn 0.24807514250278473 0 0.96874082088470459
vn 0.24807514250278473 0 0.96874082088470459
vn 0.82187294960021973 0 0.56967079639434814
vn 0.82187294960021973 0 0.56967079639434814
vn 0.3150467574596405 0 -0.94907617568969727
vn 0.3150467574596405 0 -0.94907617568969727
vn -0.56967079639434814 0 0.82187294960021973
vn -0.56967079639434814 0 0.82187294960021973
vn -0.94907617568969727 0 -0.3150467574596405
vn -0.94907617568969727 0 -0.3150467574596405
vn 0.56967079639434814 0 -0.82187294960021973
vn 0.56967079639434814 0 -0.82187294960021973
vn 0.034899488091468811 0 -0.99939084053039551
vn 0.034899488091468811 0 -0.99939084053039551
vn 0.85960918664932251 0 -0.51095211505889893
vn 0.85960918664932251 0 -0.51095211505889893
vn -0.99939084053039551 0 -0.034899488091468811
vn -0.99939084053039551 0 -0.034899488091468811
vn 0.51095211505889893 0 0.85960918664932251
vn 0.51095211505889893 0 0.85960918664932251
vn -0.82187294960021973 0 -0.56967079639434814
vn -0.82187294960021973 0 -0.56967079639434814
vn 0.77814352512359619 0 -0.62808650732040405
vn 0.77814352512359619 0 -0.62808650732040405
vn -0.24807514250278473 0 -0.96874082088470459
vn -0.24807514250278473 0 -0.96874082088470459
vn -0.96874082088470459 0 0.24807514250278473
vn -0.96874082088470459 0 0.24807514250278473
vn -0.62808650732040405 0 -0.77814352512359619
vn -0.62808650732040405 0 -0.77814352512359619
vn 0.62808650732040405 0 0.77814352512359619
vn 0.62808650732040405 0 0.77814352512359619
vn -0.77814352512359619 0 0.62808650732040405
vn -0.77814352512359619 0 0.62808650732040405
vn 0.73243486881256104 0 0.68083709478378296
vn 0.73243486881256104 0 0.68083709478378296
vn 0.68083709478378296 0 -0.73243486881256104
vn 0.68083709478378296 0 -0.73243486881256104
vn 0.92357563972473145 0 -0.38341623544692993
vn 0.92357563972473145 0 -0.38341623544692993
vn -0.51095211505889893 0 -0.85960918664932251
vn -0.51095211505889893 0 -0.85960918664932251
vn -0.85960918664932251 0 0.51095211505889893
vn -0.85960918664932251 0 0.51095211505889893
vn -0.38341623544692993 0 -0.92357563972473145
vn -0.38341623544692993 0 -0.92357563972473145
vn 0.38341623544692993 0 0.92357563972473145
vn 0.38341623544692993 0 0.92357563972473145
vn -0.92357563972473145 0 0.38341623544692993
vn -0.92357563972473145 0 0.38341623544692993
vn 0.89458012580871582 0 0.446907639503479
vn 0.89458012580871582 0 0.446907639503479
vn 0.446907639503479 0 -0.89458012580871582
vn 0.446907639503479 0 -0.89458012580871582
vn 0.99418520927429199 0 -0.10768389701843262
vn 0.99418520927429199 0 -0.10768389701843262
vn -0.68083709478378296 0 0.73243486881256104
vn -0.68083709478378296 0 0.73243486881256104
vn -0.73243486881256104 0 -0.68083709478378296
vn -0.73243486881256104 0 -0.68083709478378296
vn -0.10768389701843262 0 -0.99418520927429199
vn -0.10768389701843262 0 -0.99418520927429199
vn 0.10768389701843262 0 0.99418520927429199
vn 0.10768389701843262 0 0.99418520927429199
vn -0.99418520927429199 0 0.10768389701843262
vn -0.99418520927429199 0 0.10768389701843262
vn 0.98425173759460449 0 0.17677243053913116
vn 0.98425173759460449 0 0.17677243053913116
vn -0.446907639503479 0 0.89458012580871582
vn -0.446907639503479 0 0.89458012580871582
vn -0.89458012580871582 0 -0.446907639503479
vn -0.89458012580871582 0 -0.446907639503479
vn 0.17677243053913116 0 -0.98425173759460449
vn 0.17677243053913116 0 -0.98425173759460449
vn 0.98425173759460449 0 0.17677243053913116
vn 0.98425173759460449 0 0.17677243053913116
vn 0.17677243053913116 0 -0.98425173759460449
vn 0.17677243053913116 0 -0.98425173759460449
vn -0.17677243053913116 0 0.98425173759460449
vn -0.17677243053913116 0 0.98425173759460449
vn -0.98425173759460449 0 -0.17677243053913116
vn -0.98425173759460449 0 -0.17677243053913116
vn -0.17677243053913116 0 0.98425173759460449
vn -0.17677243053913116 0 0.98425173759460449
vn 0.89458012580871582 0 0.446907639503479
vn 0.89458012580871582 0 0.446907639503479
vn 0.446907639503479 0 -0.89458012580871582
vn 0.446907639503479 0 -0.89458012580871582
vn -0.98425173759460449 0 -0.17677243053913116
vn -0.98425173759460449 0 -0.17677243053913116
vn 0.99418520927429199 0 -0.10768389701843262
vn 0.99418520927429199 0 -0.10768389701843262
vn -0.10768389701843262 0 -0.99418520927429199
vn -0.10768389701843262 0 -0.99418520927429199
vn 0.10768389701843262 0 0.99418520927429199
vn 0.10768389701843262 0 0.99418520927429199
vn 0.73243486881256104 0 0.68083709478378296
vn 0.73243486881256104 0 0.68083709478378296
vn 0.68083709478378296 0 -0.73243486881256104
vn 0.68083709478378296 0 -0.73243486881256104
vn -0.99418520927429199 0 0.10768389701843262
vn -0.99418520927429199 0 0.10768389701843262
vn -0.446907639503479 0 0.89458012580871582
vn -0.446907639503479 0 0.89458012580871582
vn -0.89458012580871582 0 -0.446907639503479
vn -0.89458012580871582 0 -0.446907639503479
vn 0.92357563972473145 0 -0.38341623544692993
vn 0.92357563972473145 0 -0.38341623544692993
vn -0.38341623544692993 0 -0.92357563972473145
vn -0.38341623544692993 0 -0.92357563972473145
vn 0.38341623544692993 0 0.92357563972473145
vn 0.38341623544692993 0 0.92357563972473145
vn 0.85960918664932251 0 -0.51095211505889893
vn 0.85960918664932251 0 -0.51095211505889893
vn 0.51095211505889893 0 0.85960918664932251
vn 0.51095211505889893 0 0.85960918664932251
vn -0.92357563972473145 0 0.38341623544692993
vn -0.92357563972473145 0 0.38341623544692993
vn -0.68083709478378296 0 0.73243486881256104
vn -0.68083709478378296 0 0.73243486881256104
vn -0.73243486881256104 0 -0.68083709478378296
vn -0.73243486881256104 0 -0.68083709478378296
vn 0.77814352512359619 0 -0.62808650732040405
vn 0.77814352512359619 0 -0.62808650732040405
vn -0.62808650732040405 0 -0.77814352512359619
vn -0.62808650732040405 0 -0.77814352512359619
vn 0.62808650732040405 0 0.77814352512359619
vn 0.62808650732040405 0 0.77814352512359619
vn 0.96874082088470459 0 -0.24807514250278473
vn 0.96874082088470459 0 -0.24807514250278473
vn 0.24807514250278473 0 0.96874082088470459
vn 0.24807514250278473 0 0.96874082088470459
vn -0.77814352512359619 0 0.62808650732040405
vn -0.77814352512359619 0 0.62808650732040405
vn 0.82187294960021973 0 0.56967079639434814
vn 0.82187294960021973 0 0.56967079639434814
vn -0.51095211505889893 0 -0.85960918664932251
vn -0.51095211505889893 0 -0.85960918664932251
vn 0.99939084053039551 0 0.034899488091468811
vn 0.99939084053039551 0 0.034899488091468811
vn -0.85960918664932251 0 0.51095211505889893
vn -0.85960918664932251 0 0.51095211505889893
vn -0.034899488091468811 0 0.99939084053039551
vn -0.034899488091468811 0 0.99939084053039551
vn -0.56967079639434814 0 0.82187294960021973
vn -0.56967079639434814 0 0.82187294960021973
vn 0.94907617568969727 0 0.3150467574596405
vn 0.94907617568969727 0 0.3150467574596405
vn 0.56967079639434814 0 -0.82187294960021973
vn 0.56967079639434814 0 -0.82187294960021973
vn -0.3150467574596405 0 0.94907617568969727
vn -0.3150467574596405 0 0.94907617568969727
vn -0.82187294960021973 0 -0.56967079639434814
vn -0.82187294960021973 0 -0.56967079639434814
vn -0.24807514250278473 0 -0.96874082088470459
vn -0.24807514250278473 0 -0.96874082088470459
vn -0.96874082088470459 0 0.24807514250278473
vn -0.96874082088470459 0 0.24807514250278473
vn 0.3150467574596405 0 -0.94907617568969727
vn 0.3150467574596405 0 -0.94907617568969727
vn -0.94907617568969727 0 -0.3150467574596405
vn -0.94907617568969727 0 -0.3150467574596405
vn 0.034899488091468811 0 -0.99939084053039551
vn 0.034899488091468811 0 -0.99939084053039551
vn -0.99939084053039551 0 -0.034899488091468811
vn -0.99939084053039551 0 -0.034899488091468811
f 2//2 1//1 3//3 4//4
f 4//4 3//3 27//27 28//28
f 28//28 27//27 23//23 24//24
f 24//24 23//23 1//1 2//2
f 10//10 9//9 11//11 12//12
f 12//12 11//11 37//37 38//38
f 38//38 37//37 35//35 36//36
f 36//36 35//35 9//9 10//10
f 26//26 25//25 29//29 30//30
f 30//30 29//29 53//53 54//54
f 54//54 53//53 51//51 52//52
f 52//52 51//51 25//25 26//26
f 48//48 47//47 45//45 46//46
f 46//46 45//45 67//67 68//68
f 68//68 67//67 69//69 70//70
f 70//70 69//69 47//47 48//48
f 64//64 63//63 61//61 62//62
f 62//62 61//61 79//79 80//80
f 80//80 79//79 81//81 82//82
f 82//82 81//81 63//63 64//64
f 88//88 87//87 85//85 86//86
f 86//86 85//85 93//93 94//94
f 94//94 93//93 99//99 100//100
f 100//100 99//99 87//87 88//88
f 104//104 103//103 101//101 102//102
f 102//102 101//101 105//105 106//106
f 106//106 105//105 111//111 112//112
f 112//112 111//111 103//103 104//104
f 120//120 119//119 117//117 118//118
f 118//118 117//117 121//121 122//122
f 122//122 121//121 127//127 128//128
f 128//128 127//127 119//119 120//120
f 136//136 135//135 133//133 134//134
f 134//134 133//133 137//137 138//138
f 138//138 137//137 143//143 144//144
f 144//144 143//143 135//135 136//136
f 164//164 163//163 159//159 160//160
f 160//160 159//159 145//145 146//146
f 146//146 145//145 155//155 156//156
f 156//156 155//155 163//163 164//164
f 172//172 171//171 169//169 170//170
f 170//170 169//169 157//157 158//158
f 158//158 157//157 161//161 162//162
f 162//162 161//161 171//171 172//172
f 176//176 175//175 173//173 174//174
f 174//174 173//173 149//149 150//150
f 150//150 149//149 153//153 154//154
f 154//154 153//153 175//175 176//176
f 168//168 167//167 165//165 166//166
f 166//166 165//165 139//139 140//140
f 140//140 139//139 141//141 142//142
f 142//142 141//141 167//167 168//168
f 152//152 151//151 147//147 148//148
f 148//148 147//147 123//123 124//124
f 124//124 123//123 125//125 126//126
f 126//126 125//125 151//151 152//152
f 130//130 129//129 131//131 132//132
f 132//132 131//131 109//109 110//110
f 110//110 109//109 107//107 108//108
f 108//108 107//107 129//129 130//130
f 114//114 113//113 115//115 116//116
f 116//116 115//115 97//97 98//98
f 98//98 97//97 95//95 96//96
f 96//96 95//95 113//113 114//114
f 90//90 89//89 91//91 92//92
f 92//92 91//91 83//83 84//84
f 84//84 83//83 77//77 78//78
f 78//78 77//77 89//89 90//90
f 74//74 73//73 75//75 76//76
f 76//76 75//75 71//71 72//72
f 72//72 71//71 65//65 66//66
f 66//66 65//65 73//73 74//74
f 58//58 57//57 59//59 60//60
f 60//60 59//59 55//55 56//56
f 56//56 55//55 49//49 50//50
f 50//50 49//49 57//57 58//58
f 42//42 41//41 43//43 44//44
f 44//44 43//43 39//39 40//40
f 40//40 39//39 33//33 34//34
f 34//34 33//33 41//41 42//42
f 14//14 13//13 17//17 18//18
f 18//18 17//17 31//31 32//32
f 32//32 31//31 21//21 22//22
f 22//22 21//21 13//13 14//14
f 6//6 5//5 7//7 8//8
f 8//8 7//7 19//19 20//20
f 20//20 19//19 15//15 16//16
f 16//16 15//15 5//5 6//6
