# Rhino

mtllib Frangisole69.mtl
usemtl diffuse_Black
v 1.4047648623765605 3 -0.1675793380816247
v 1.4047648623765605 0 -0.16757933808162473
v 1.4006066285602055 3 -0.14801638606694884
v 1.4006066285602055 0 -0.14801638606694884
v 1.3950745704223773 3 0.23497679902605781
v 1.3950745704223773 0 0.23497679902605784
v 1.3855732538024774 3 0.25257580418227077
v 1.3855732538024774 0 0.25257580418227071
v 1.3021711840003376 3 -0.5366171690043694
v 1.3021711840003376 0 -0.5366171690043694
v 1.3006494596393159 3 -0.55655919385063479
v 1.3006494596393159 0 -0.55655919385063479
v 1.2723636336005084 3 0.61849651333748379
v 1.2723636336005084 0 0.61849651333748368
v 1.2582889743431025 3 0.63270580490279105
v 1.2582889743431025 0 0.63270580490279105
v 1.0982415744229843 3 -0.8817444202942426
v 1.0982415744229843 0 -0.8817444202942426
v 1.0911631729422722 3 -0.90044993371884141
v 1.0911631729422722 0 -0.90044993371884141
v 1.0828740559153087 3 0.066426593437869497
v 1.0828740559153087 0 0.066426593437869497
v 1.0733727392954089 3 0.084025598594082429
v 1.0733727392954089 0 0.084025598594082401
v 1.0577245819716883 3 -0.24134502684548476
v 1.0577245819716883 0 -0.24134502684548473
v 1.0535663481553332 3 -0.22178207483080886
v 1.0535663481553332 0 -0.22178207483080883
v 1.0465733622222191 3 0.95190931847870464
v 1.0465733622222191 0 0.95190931847870475
v 1.0290656055151206 3 0.96157774415639585
v 1.0290656055151206 0 0.96157774415639596
v 1.0202955139486538 3 0.36881672617505151
v 1.0202955139486538 0 0.36881672617505157
v 1.0062208546912479 3 0.38302601774035883
v 1.0062208546912479 0 0.38302601774035888
v 0.94840627728804627 3 -0.50962228354169559
v 0.94840627728804627 0 -0.50962228354169559
v 0.94688455292702456 3 -0.52956430838796098
v 0.94688455292702456 0 -0.52956430838796098
v 0.87505869737294262 3 0.64132752119505965
v 0.87505869737294262 0 0.64132752119505954
v 0.85755094066584414 3 0.65099594687275086
v 0.85755094066584414 0 0.65099594687275086
v 0.80533896398001503 3 -1.1554379825878587
v 0.80533896398001514 0 -1.1554379825878587
v 0.79327733537070544 3 -1.1713915751391015
v 0.79327733537070544 0 -1.1713915751391015
v 0.76641197022419327 3 -0.75617592568045533
v 0.76641197022419327 0 -0.75617592568045533
v 0.75933356874348112 3 -0.77488143910505414
v 0.75933356874348112 0 -0.77488143910505414
v 0.73599594124813139 3 1.2082040918594794
v 0.73599594124813139 0 1.2082040918594794
v 0.7164734614171111 3 1.2125483733014897
v 0.7164734614171111 0 1.2125483733014897
v 0.65892982931053301 3 0.86188177456947201
v 0.65892982931053301 0 0.86188177456947201
v 0.63940734947951272 3 0.86622605601148228
v 0.63940734947951272 0 0.86622605601148228
v 0.52232752336026711 3 -0.94146869147197498
v 0.52232752336026711 0 -0.94146869147197498
v 0.51026589475095752 3 -0.95742228402321783
v 0.51026589475095741 0 -0.95742228402321783
v 0.44719258021062286 3 -1.335524831186478
v 0.4471925802106228 0 -1.335524831186478
v 0.43112488588937442 3 -1.3474340376755318
v 0.43112488588937448 0 -1.3474340376755318
v 0.38941838528396971 3 1.0126114923765464
v 0.38941838528396971 0 1.0126114923765464
v 0.36946277754027862 3 1.0112796817368803
v 0.36946277754027862 0 1.0112796817368803
v 0.36579250625052079 3 1.3666173551842065
v 0.36579250625052079 0 1.3666173551842065
v 0.34583689850682969 3 1.3652855445445404
v 0.34583689850682969 0 1.3652855445445404
v 0.23592720695508401 3 -1.0504892630103344
v 0.23592720695508398 0 -1.0504892630103344
v 0.21985951263383557 3 -1.0623984694993882
v 0.21985951263383566 0 -1.0623984694993882
v 0.08835857964201195 3 1.0813054493037
v 0.088358579642011992 0 1.0813054493037
v 0.069586528644475107 3 1.0744054419598008
v 0.069586528644475093 0 1.0744054419598008
v 0.052817313149244975 3 -1.4074154006343684
v 0.052817313149244996 0 -1.4074154006343684
v 0.034045262151708153 3 -1.4143154079782676
v 0.034045262151708118 0 -1.4143154079782676
v -0.034045262151706737 3 1.4143154079782676
v -0.034045262151706723 0 1.4143154079782676
v -0.05281731314924358 3 1.4074154006343684
v -0.052817313149243622 0 1.4074154006343684
v -0.06958652864447408 3 -1.0744054419598008
v -0.069586528644474052 0 -1.0744054419598008
v -0.088358579642010895 3 -1.0813054493037
v -0.088358579642010923 0 -1.0813054493037
v -0.21985951263383474 3 1.0623984694993887
v -0.21985951263383469 0 1.0623984694993887
v -0.23592720695508301 3 1.0504892630103351
v -0.23592720695508301 0 1.0504892630103351
v -0.34583689850682864 3 -1.3652855445445407
v -0.34583689850682864 0 -1.3652855445445407
v -0.36579250625051973 3 -1.3666173551842067
v -0.36579250625051973 0 -1.3666173551842067
v -0.36946277754027784 3 -1.0112796817368805
v -0.36946277754027784 0 -1.0112796817368805
v -0.38941838528396894 3 -1.0126114923765466
v -0.38941838528396894 0 -1.0126114923765466
v -0.43112488588937309 3 1.3474340376755323
v -0.43112488588937309 0 1.3474340376755323
v -0.44719258021062136 3 1.3355248311864787
v -0.44719258021062142 0 1.3355248311864787
v -0.51026589475095663 3 0.9574222840232185
v -0.51026589475095641 0 0.9574222840232185
v -0.52232752336026622 3 0.94146869147197565
v -0.52232752336026622 0 0.94146869147197565
v -0.63940734947951128 3 -0.86622605601148339
v -0.63940734947951128 0 -0.86622605601148339
v -0.65892982931053157 3 -0.86188177456947312
v -0.65892982931053157 0 -0.86188177456947312
v -0.7164734614171091 3 -1.212548373301491
v -0.7164734614171091 0 -1.212548373301491
v -0.73599594124812939 3 -1.2082040918594807
v -0.73599594124812939 0 -1.2082040918594807
v -0.75933356874348035 3 0.77488143910505469
v -0.75933356874348035 0 0.77488143910505469
v -0.7664119702241925 3 0.756175925680456
v -0.7664119702241925 0 0.75617592568045611
v -0.79327733537070422 3 1.1713915751391024
v -0.79327733537070422 0 1.1713915751391024
v -0.80533896398001392 3 1.1554379825878596
v -0.80533896398001403 0 1.1554379825878596
v -0.85755094066584314 3 -0.65099594687275153
v -0.85755094066584314 0 -0.65099594687275164
v -0.87505869737294162 3 -0.64132752119506042
v -0.87505869737294162 0 -0.64132752119506053
v -0.94688455292702434 3 0.52956430838796154
v -0.94688455292702434 0 0.52956430838796154
v -0.94840627728804605 3 0.50962228354169625
v -0.94840627728804605 0 0.50962228354169625
v -1.0062208546912474 3 -0.38302601774036055
v -1.0062208546912474 0 -0.38302601774036049
v -1.0202955139486534 3 -0.36881672617505334
v -1.0202955139486534 0 -0.36881672617505334
v -1.0290656055151195 3 -0.9615777441563973
v -1.0290656055151195 0 -0.96157774415639719
v -1.046573362222218 3 -0.95190931847870619
v -1.046573362222218 0 -0.95190931847870608
v -1.0535663481553332 3 0.22178207483080886
v -1.0535663481553332 0 0.22178207483080886
v -1.0577245819716883 3 0.24134502684548476
v -1.0577245819716883 0 0.24134502684548476
v -1.0733727392954084 3 -0.084025598594084164
v -1.0733727392954084 0 -0.08402559859408415
v -1.0828740559153083 3 -0.066426593437871259
v -1.0828740559153083 0 -0.066426593437871301
v -1.0911631729422713 3 0.90044993371884241
v -1.0911631729422713 0 0.90044993371884241
v -1.0982415744229834 3 0.88174442029424371
v -1.0982415744229834 0 0.88174442029424371
v -1.2582889743431014 3 -0.63270580490279305
v -1.2582889743431014 0 -0.63270580490279305
v -1.2723636336005073 3 -0.61849651333748579
v -1.2723636336005073 0 -0.6184965133374859
v -1.3006494596393154 3 0.55655919385063557
v -1.3006494596393154 0 0.55655919385063557
v -1.3021711840003372 3 0.53661716900437029
v -1.3021711840003372 0 0.53661716900437029
v -1.385573253802477 3 -0.25257580418227316
v -1.385573253802477 0 -0.2525758041822731
v -1.3950745704223768 3 -0.23497679902606022
v -1.3950745704223768 0 -0.23497679902606022
v -1.4006066285602055 3 0.14801638606694884
v -1.4006066285602055 0 0.14801638606694881
v -1.4047648623765605 3 0.1675793380816247
v -1.4047648623765605 0 0.1675793380816247
vn 0.83867055177688599 0 -0.54463905096054077
vn 0.83867055177688599 0 -0.54463905096054077
vn 0.54463905096054077 0 0.83867055177688599
vn 0.54463905096054077 0 0.83867055177688599
vn 0.95814108848571777 0 -0.286296546459198
vn 0.95814108848571777 0 -0.286296546459198
vn 0.286296546459198 0 0.95814108848571777
vn 0.286296546459198 0 0.95814108848571777
vn 0.75885814428329468 0 0.65125596523284912
vn 0.75885814428329468 0 0.65125596523284912
vn 0.65125596523284912 0 -0.75885814428329468
vn 0.65125596523284912 0 -0.75885814428329468
vn 0.99998867511749268 0 -0.0047599808312952518
vn 0.99998867511749268 0 -0.0047599808312952518
vn 0.0047599808312952518 0 0.99998867511749268
vn 0.0047599808312952518 0 0.99998867511749268
vn 0.91159904003143311 0 0.41108044981956482
vn 0.91159904003143311 0 0.41108044981956482
vn 0.41108044981956482 0 -0.91159904003143311
vn 0.41108044981956482 0 -0.91159904003143311
vn -0.286296546459198 0 -0.95814108848571777
vn -0.286296546459198 0 -0.95814108848571777
vn -0.95814108848571777 0 0.286296546459198
vn -0.95814108848571777 0 0.286296546459198
vn -0.54463905096054077 0 -0.83867055177688599
vn -0.54463905096054077 0 -0.83867055177688599
vn -0.83867055177688599 0 0.54463905096054077
vn -0.83867055177688599 0 0.54463905096054077
vn 0.96082311868667603 0 0.27716219425201416
vn 0.96082311868667603 0 0.27716219425201416
vn -0.27716219425201416 0 0.96082311868667603
vn -0.27716219425201416 0 0.96082311868667603
vn -0.0047599808312952518 0 -0.99998867511749268
vn -0.0047599808312952518 0 -0.99998867511749268
vn -0.99998867511749268 0 0.0047599808312952518
vn -0.99998867511749268 0 0.0047599808312952518
vn -0.65125596523284912 0 0.75885814428329468
vn -0.65125596523284912 0 0.75885814428329468
vn -0.75885814428329468 0 -0.65125596523284912
vn -0.75885814428329468 0 -0.65125596523284912
vn 0.27716219425201416 0 -0.96082311868667603
vn 0.27716219425201416 0 -0.96082311868667603
vn -0.96082311868667603 0 -0.27716219425201416
vn -0.96082311868667603 0 -0.27716219425201416
vn 0.99048763513565063 0 0.13760170340538025
vn 0.99048763513565063 0 0.13760170340538025
vn 0.13760170340538025 0 -0.99048763513565063
vn 0.13760170340538025 0 -0.99048763513565063
vn -0.41108044981956482 0 0.91159904003143311
vn -0.41108044981956482 0 0.91159904003143311
vn -0.91159904003143311 0 -0.41108044981956482
vn -0.91159904003143311 0 -0.41108044981956482
vn 0.84381741285324097 0 0.53663039207458496
vn 0.84381741285324097 0 0.53663039207458496
vn -0.53663039207458496 0 0.84381741285324097
vn -0.53663039207458496 0 0.84381741285324097
vn 0.53663039207458496 0 -0.84381741285324097
vn 0.53663039207458496 0 -0.84381741285324097
vn -0.84381741285324097 0 -0.53663039207458496
vn -0.84381741285324097 0 -0.53663039207458496
vn -0.13760170340538025 0 0.99048763513565063
vn -0.13760170340538025 0 0.99048763513565063
vn -0.99048763513565063 0 -0.13760170340538025
vn -0.99048763513565063 0 -0.13760170340538025
vn 0.98913282155990601 0 -0.14702478051185608
vn 0.98913282155990601 0 -0.14702478051185608
vn -0.14702478051185608 0 -0.98913282155990601
vn -0.14702478051185608 0 -0.98913282155990601
vn 0.75262391567230225 0 -0.6584506630897522
vn 0.75262391567230225 0 -0.6584506630897522
vn -0.6584506630897522 0 -0.75262391567230225
vn -0.6584506630897522 0 -0.75262391567230225
vn 0.6584506630897522 0 0.75262391567230225
vn 0.6584506630897522 0 0.75262391567230225
vn -0.75262391567230225 0 0.6584506630897522
vn -0.75262391567230225 0 0.6584506630897522
vn 0.14702478051185608 0 0.98913282155990601
vn 0.14702478051185608 0 0.98913282155990601
vn -0.98913282155990601 0 0.14702478051185608
vn -0.98913282155990601 0 0.14702478051185608
vn 0.90764433145523071 0 -0.41974011063575745
vn 0.90764433145523071 0 -0.41974011063575745
vn -0.41974011063575745 0 -0.90764433145523071
vn -0.41974011063575745 0 -0.90764433145523071
vn 0.90764433145523071 0 -0.41974011063575745
vn 0.90764433145523071 0 -0.41974011063575745
vn -0.41974011063575745 0 -0.90764433145523071
vn -0.41974011063575745 0 -0.90764433145523071
vn 0.41974011063575745 0 0.90764433145523071
vn 0.41974011063575745 0 0.90764433145523071
vn -0.90764433145523071 0 0.41974011063575745
vn -0.90764433145523071 0 0.41974011063575745
vn 0.41974011063575745 0 0.90764433145523071
vn 0.41974011063575745 0 0.90764433145523071
vn -0.90764433145523071 0 0.41974011063575745
vn -0.90764433145523071 0 0.41974011063575745
vn 0.98913282155990601 0 -0.14702478051185608
vn 0.98913282155990601 0 -0.14702478051185608
vn -0.14702478051185608 0 -0.98913282155990601
vn -0.14702478051185608 0 -0.98913282155990601
vn 0.75262391567230225 0 -0.6584506630897522
vn 0.75262391567230225 0 -0.6584506630897522
vn -0.6584506630897522 0 -0.75262391567230225
vn -0.6584506630897522 0 -0.75262391567230225
vn 0.6584506630897522 0 0.75262391567230225
vn 0.6584506630897522 0 0.75262391567230225
vn -0.75262391567230225 0 0.6584506630897522
vn -0.75262391567230225 0 0.6584506630897522
vn 0.14702478051185608 0 0.98913282155990601
vn 0.14702478051185608 0 0.98913282155990601
vn -0.98913282155990601 0 0.14702478051185608
vn -0.98913282155990601 0 0.14702478051185608
vn 0.99048763513565063 0 0.13760170340538025
vn 0.99048763513565063 0 0.13760170340538025
vn 0.13760170340538025 0 -0.99048763513565063
vn 0.13760170340538025 0 -0.99048763513565063
vn 0.84381741285324097 0 0.53663039207458496
vn 0.84381741285324097 0 0.53663039207458496
vn -0.53663039207458496 0 0.84381741285324097
vn -0.53663039207458496 0 0.84381741285324097
vn 0.53663039207458496 0 -0.84381741285324097
vn 0.53663039207458496 0 -0.84381741285324097
vn -0.84381741285324097 0 -0.53663039207458496
vn -0.84381741285324097 0 -0.53663039207458496
vn 0.91159904003143311 0 0.41108044981956482
vn 0.91159904003143311 0 0.41108044981956482
vn 0.41108044981956482 0 -0.91159904003143311
vn 0.41108044981956482 0 -0.91159904003143311
vn -0.13760170340538025 0 0.99048763513565063
vn -0.13760170340538025 0 0.99048763513565063
vn -0.99048763513565063 0 -0.13760170340538025
vn -0.99048763513565063 0 -0.13760170340538025
vn 0.96082311868667603 0 0.27716219425201416
vn 0.96082311868667603 0 0.27716219425201416
vn -0.27716219425201416 0 0.96082311868667603
vn -0.27716219425201416 0 0.96082311868667603
vn 0.75885814428329468 0 0.65125596523284912
vn 0.75885814428329468 0 0.65125596523284912
vn 0.65125596523284912 0 -0.75885814428329468
vn 0.65125596523284912 0 -0.75885814428329468
vn 0.99998867511749268 0 -0.0047599808312952518
vn 0.99998867511749268 0 -0.0047599808312952518
vn 0.0047599808312952518 0 0.99998867511749268
vn 0.0047599808312952518 0 0.99998867511749268
vn 0.27716219425201416 0 -0.96082311868667603
vn 0.27716219425201416 0 -0.96082311868667603
vn -0.96082311868667603 0 -0.27716219425201416
vn -0.96082311868667603 0 -0.27716219425201416
vn 0.83867055177688599 0 -0.54463905096054077
vn 0.83867055177688599 0 -0.54463905096054077
vn 0.54463905096054077 0 0.83867055177688599
vn 0.54463905096054077 0 0.83867055177688599
vn 0.95814108848571777 0 -0.286296546459198
vn 0.95814108848571777 0 -0.286296546459198
vn 0.286296546459198 0 0.95814108848571777
vn 0.286296546459198 0 0.95814108848571777
vn -0.41108044981956482 0 0.91159904003143311
vn -0.41108044981956482 0 0.91159904003143311
vn -0.91159904003143311 0 -0.41108044981956482
vn -0.91159904003143311 0 -0.41108044981956482
vn -0.0047599808312952518 0 -0.99998867511749268
vn -0.0047599808312952518 0 -0.99998867511749268
vn -0.99998867511749268 0 0.0047599808312952518
vn -0.99998867511749268 0 0.0047599808312952518
vn -0.65125596523284912 0 0.75885814428329468
vn -0.65125596523284912 0 0.75885814428329468
vn -0.75885814428329468 0 -0.65125596523284912
vn -0.75885814428329468 0 -0.65125596523284912
vn -0.286296546459198 0 -0.95814108848571777
vn -0.286296546459198 0 -0.95814108848571777
vn -0.95814108848571777 0 0.286296546459198
vn -0.95814108848571777 0 0.286296546459198
vn -0.54463905096054077 0 -0.83867055177688599
vn -0.54463905096054077 0 -0.83867055177688599
vn -0.83867055177688599 0 0.54463905096054077
vn -0.83867055177688599 0 0.54463905096054077
f 2//2 1//1 3//3 4//4
f 4//4 3//3 27//27 28//28
f 28//28 27//27 25//25 26//26
f 26//26 25//25 1//1 2//2
f 12//12 11//11 9//9 10//10
f 10//10 9//9 37//37 38//38
f 38//38 37//37 39//39 40//40
f 40//40 39//39 11//11 12//12
f 20//20 19//19 17//17 18//18
f 18//18 17//17 49//49 50//50
f 50//50 49//49 51//51 52//52
f 52//52 51//51 19//19 20//20
f 48//48 47//47 45//45 46//46
f 46//46 45//45 61//61 62//62
f 62//62 61//61 63//63 64//64
f 64//64 63//63 47//47 48//48
f 68//68 67//67 65//65 66//66
f 66//66 65//65 77//77 78//78
f 78//78 77//77 79//79 80//80
f 80//80 79//79 67//67 68//68
f 88//88 87//87 85//85 86//86
f 86//86 85//85 93//93 94//94
f 94//94 93//93 95//95 96//96
f 96//96 95//95 87//87 88//88
f 104//104 103//103 101//101 102//102
f 102//102 101//101 105//105 106//106
f 106//106 105//105 107//107 108//108
f 108//108 107//107 103//103 104//104
f 124//124 123//123 121//121 122//122
f 122//122 121//121 117//117 118//118
f 118//118 117//117 119//119 120//120
f 120//120 119//119 123//123 124//124
f 148//148 147//147 145//145 146//146
f 146//146 145//145 133//133 134//134
f 134//134 133//133 135//135 136//136
f 136//136 135//135 147//147 148//148
f 164//164 163//163 161//161 162//162
f 162//162 161//161 141//141 142//142
f 142//142 141//141 143//143 144//144
f 144//144 143//143 163//163 164//164
f 172//172 171//171 169//169 170//170
f 170//170 169//169 153//153 154//154
f 154//154 153//153 155//155 156//156
f 156//156 155//155 171//171 172//172
f 176//176 175//175 173//173 174//174
f 174//174 173//173 149//149 150//150
f 150//150 149//149 151//151 152//152
f 152//152 151//151 175//175 176//176
f 166//166 165//165 167//167 168//168
f 168//168 167//167 139//139 140//140
f 140//140 139//139 137//137 138//138
f 138//138 137//137 165//165 166//166
f 158//158 157//157 159//159 160//160
f 160//160 159//159 127//127 128//128
f 128//128 127//127 125//125 126//126
f 126//126 125//125 157//157 158//158
f 130//130 129//129 131//131 132//132
f 132//132 131//131 115//115 116//116
f 116//116 115//115 113//113 114//114
f 114//114 113//113 129//129 130//130
f 110//110 109//109 111//111 112//112
f 112//112 111//111 99//99 100//100
f 100//100 99//99 97//97 98//98
f 98//98 97//97 109//109 110//110
f 90//90 89//89 91//91 92//92
f 92//92 91//91 83//83 84//84
f 84//84 83//83 81//81 82//82
f 82//82 81//81 89//89 90//90
f 74//74 73//73 75//75 76//76
f 76//76 75//75 71//71 72//72
f 72//72 71//71 69//69 70//70
f 70//70 69//69 73//73 74//74
f 54//54 53//53 55//55 56//56
f 56//56 55//55 59//59 60//60
f 60//60 59//59 57//57 58//58
f 58//58 57//57 53//53 54//54
f 30//30 29//29 31//31 32//32
f 32//32 31//31 43//43 44//44
f 44//44 43//43 41//41 42//42
f 42//42 41//41 29//29 30//30
f 14//14 13//13 15//15 16//16
f 16//16 15//15 35//35 36//36
f 36//36 35//35 33//33 34//34
f 34//34 33//33 13//13 14//14
f 6//6 5//5 7//7 8//8
f 8//8 7//7 23//23 24//24
f 24//24 23//23 21//21 22//22
f 22//22 21//21 5//5 6//6
