# Rhino

mtllib Frangisole15.mtl
usemtl diffuse_Black
v 1.310454791323219 3 -0.036688138606583737
v 1.310454791323219 0 -0.036688138606583737
v 1.2921838821703673 3 -0.028553405745067872
v 1.2921838821703673 0 -0.028553405745067872
v 1.2677084076094671 3 0.33399576777657858
v 1.2677084076094671 0 0.33399576777657863
v 1.2478857795674603 3 0.33665347684798363
v 1.2478857795674603 0 0.33665347684798369
v 1.2470359214186955 3 -0.40439979019260464
v 1.2470359214186955 0 -0.40439979019260464
v 1.2317969315532824 3 -0.39144706121829886
v 1.2317969315532824 0 -0.39144706121829875
v 1.2205615301503256 3 -0.017651079227843675
v 1.2205615301503256 0 -0.01765107922784373
v 1.2007389021083188 3 -0.014993370156438618
v 1.2007389021083188 0 -0.014993370156438673
v 1.176093095725268 3 0.32693583417570987
v 1.176093095725268 0 0.32693583417570993
v 1.1661473283615265 3 -0.36080800716736594
v 1.1661473283615265 0 -0.36080800716736594
v 1.1563246602283612 3 0.32390120767404335
v 1.1563246602283612 0 0.3239012076740434
v 1.1478764192086748 3 -0.35267327430585005
v 1.1478764192086748 0 -0.35267327430585005
v 1.1222598280633953 3 0.67762132340379888
v 1.1222598280633953 0 0.67762132340379888
v 1.1024913925664885 3 0.67458669690213235
v 1.1024913925664885 0 0.67458669690213235
v 1.0825896175690186 3 -0.7393493758353783
v 1.0825896175690186 0 -0.7393493758353783
v 1.0716171193201773 3 -0.72262800381693537
v 1.0716171193201773 0 -0.72262800381693537
v 1.0363445931795083 3 0.6450363506566209
v 1.0363445931795083 0 0.6450363506566209
v 1.018231871304248 3 0.636555235973429
v 1.018231871304248 0 0.636555235973429
v 1.0172588053740799 3 -0.67473441617403196
v 1.0172588053740799 0 -0.67473441617403196
v 1.0020198155086668 3 -0.66178168719972619
v 1.0020198155086668 0 -0.66178168719972608
v 0.88589243158381548 3 0.96635002937802639
v 0.88589243158381548 0 0.96635002937802628
v 0.86777970970855511 3 0.95786891469483448
v 0.86777970970855511 0 0.95786891469483437
v 0.83043834131226268 3 -1.0144012721280149
v 0.83043834131226268 0 -1.0144012721280149
v 0.82462126123215485 3 -0.99526592318054086
v 0.82462126123215485 0 -0.99526592318054086
v 0.81263761507295829 3 0.91087985818621875
v 0.81263761507295829 0 0.91087985818621875
v 0.79764799182517354 3 0.89763934479400276
v 0.79764799182517343 0 0.89763934479400276
v 0.78595802384628799 3 -0.93399785558236159
v 0.78595802384628799 0 -0.93399785558236159
v 0.77498552559744671 3 -0.91727648356391867
v 0.77498552559744671 0 -0.91727648356391867
v 0.57775529890247079 3 1.1767908030769589
v 0.57775529890247079 0 1.1767908030769589
v 0.56276567565468605 3 1.1635502896847429
v 0.56276567565468594 0 1.1635502896847429
v 0.52309557033518284 3 1.1029292968166733
v 0.52309557033518272 0 1.1029292968166733
v 0.51244341584368702 3 1.0860020523661051
v 0.51244341584368702 0 1.0860020523661051
v 0.51100988944936954 3 -1.2072724102294976
v 0.51100988944936954 0 -1.2072724102294976
v 0.51081949277057803 3 -1.1872733165224145
v 0.51081949277057803 0 -1.1872733165224145
v 0.49098359749881759 3 -1.1175943434305358
v 0.49098359749881759 0 -1.1175943434305358
v 0.48516651741870964 3 -1.0984589944830618
v 0.48516651741870964 0 -1.0984589944830618
v 0.22281186794711261 3 1.2918949845549814
v 0.22281186794711261 0 1.2918949845549814
v 0.21215971345561679 3 1.2749677401044133
v 0.21215971345561685 0 1.2749677401044133
v 0.19117543345799481 3 1.2056259631921336
v 0.19117543345799481 0 1.2056259631921336
v 0.18572372192888692 3 1.1863833323583992
v 0.18572372192888692 0 1.1863833323583992
v 0.15623260007388021 3 -1.2106499841634522
v 0.15623260007388021 0 -1.2106499841634522
v 0.1560422033950887 3 -1.1906508904563691
v 0.1560422033950887 0 -1.1906508904563691
v 0.15563416696522731 3 -1.2830948867459349
v 0.15563416696522736 0 -1.2830948867459349
v 0.15018245543611947 3 -1.302337517579669
v 0.15018245543611952 0 -1.302337517579669
v -0.1501824554361183 3 1.3023375175796694
v -0.1501824554361183 0 1.3023375175796694
v -0.15563416696522619 3 1.2830948867459351
v -0.15563416696522619 0 1.2830948867459351
v -0.15604220339508745 3 1.1906508904563691
v -0.15604220339508748 0 1.1906508904563691
v -0.15623260007387896 3 1.2106499841634522
v -0.15623260007387899 0 1.2106499841634522
v -0.18572372192888564 3 -1.1863833323583994
v -0.1857237219288857 0 -1.1863833323583994
v -0.19117543345799348 3 -1.2056259631921336
v -0.19117543345799354 0 -1.2056259631921336
v -0.21215971345561568 3 -1.2749677401044135
v -0.21215971345561582 0 -1.2749677401044135
v -0.22281186794711166 3 -1.2918949845549819
v -0.22281186794711164 0 -1.2918949845549819
v -0.48516651741870842 3 1.0984589944830625
v -0.48516651741870842 0 1.0984589944830625
v -0.49098359749881637 3 1.1175943434305367
v -0.49098359749881637 0 1.1175943434305367
v -0.51081949277057681 3 1.187273316522415
v -0.51081949277057681 0 1.187273316522415
v -0.51100988944936832 3 1.207272410229498
v -0.51100988944936832 0 1.207272410229498
v -0.51244341584368613 3 -1.0860020523661054
v -0.51244341584368613 0 -1.0860020523661054
v -0.52309557033518206 3 -1.1029292968166737
v -0.52309557033518206 0 -1.102929296816674
v -0.56276567565468427 3 -1.1635502896847436
v -0.56276567565468427 0 -1.1635502896847436
v -0.57775529890246913 3 -1.1767908030769598
v -0.57775529890246913 0 -1.1767908030769598
v -0.7749855255974456 3 0.91727648356391944
v -0.77498552559744571 0 0.91727648356391944
v -0.78595802384628688 3 0.93399785558236226
v -0.78595802384628688 0 0.93399785558236226
v -0.79764799182517199 3 -0.89763934479400409
v -0.79764799182517199 0 -0.89763934479400409
v -0.81263761507295684 3 -0.9108798581862203
v -0.81263761507295684 0 -0.9108798581862203
v -0.82462126123215385 3 0.99526592318054175
v -0.82462126123215385 0 0.99526592318054175
v -0.8304383413122618 3 1.0144012721280158
v -0.8304383413122618 0 1.0144012721280158
v -0.86777970970855389 3 -0.95786891469483537
v -0.86777970970855389 0 -0.95786891469483537
v -0.88589243158381414 3 -0.96635002937802728
v -0.88589243158381414 0 -0.96635002937802728
v -1.0020198155086664 3 0.66178168719972674
v -1.0020198155086664 0 0.66178168719972674
v -1.0172588053740794 3 0.6747344161740324
v -1.0172588053740794 0 0.6747344161740324
v -1.0182318713042471 3 -0.63655523597343022
v -1.0182318713042471 0 -0.63655523597343022
v -1.0363445931795074 3 -0.64503635065662213
v -1.0363445931795074 0 -0.64503635065662213
v -1.0716171193201767 3 0.72262800381693637
v -1.0716171193201767 0 0.72262800381693637
v -1.0825896175690179 3 0.73934937583537919
v -1.0825896175690179 0 0.73934937583537919
v -1.1024913925664874 3 -0.67458669690213435
v -1.1024913925664874 0 -0.67458669690213435
v -1.122259828063394 3 -0.67762132340380088
v -1.1222598280633942 0 -0.67762132340380088
v -1.1478764192086748 3 0.35267327430585005
v -1.1478764192086748 0 0.35267327430585005
v -1.1563246602283608 3 -0.32390120767404529
v -1.1563246602283606 0 -0.32390120767404529
v -1.1661473283615265 3 0.36080800716736594
v -1.1661473283615265 0 0.36080800716736594
v -1.1760930957252675 3 -0.32693583417571181
v -1.1760930957252673 0 -0.32693583417571181
v -1.2007389021083186 3 0.014993370156436564
v -1.2007389021083186 0 0.01499337015643662
v -1.2205615301503254 3 0.017651079227841593
v -1.2205615301503254 0 0.017651079227841621
v -1.2317969315532822 3 0.39144706121829959
v -1.2317969315532822 0 0.39144706121829964
v -1.2470359214186952 3 0.40439979019260525
v -1.2470359214186952 0 0.4043997901926053
v -1.2478857795674596 3 -0.33665347684798574
v -1.2478857795674596 0 -0.33665347684798574
v -1.2677084076094665 3 -0.33399576777658069
v -1.2677084076094665 0 -0.33399576777658074
v -1.2921838821703673 3 0.028553405745067872
v -1.2921838821703673 0 0.028553405745067872
v -1.310454791323219 3 0.036688138606583737
v -1.310454791323219 0 0.036688138606583737
vn 0.93358045816421509 0 0.358367919921875
vn 0.93358045816421509 0 0.358367919921875
vn -0.358367919921875 0 0.93358045816421509
vn -0.358367919921875 0 0.93358045816421509
vn 0.79479992389678955 0 0.60687154531478882
vn 0.79479992389678955 0 0.60687154531478882
vn -0.60687154531478882 0 0.79479992389678955
vn -0.60687154531478882 0 0.79479992389678955
vn 0.99672776460647583 0 0.08083149790763855
vn 0.99672776460647583 0 0.08083149790763855
vn -0.08083149790763855 0 0.99672776460647583
vn -0.08083149790763855 0 0.99672776460647583
vn 0.60687154531478882 0 -0.79479992389678955
vn 0.60687154531478882 0 -0.79479992389678955
vn -0.79479992389678955 0 -0.60687154531478882
vn -0.79479992389678955 0 -0.60687154531478882
vn 0.8062099814414978 0 -0.5916295051574707
vn 0.8062099814414978 0 -0.5916295051574707
vn 0.358367919921875 0 -0.93358045816421509
vn 0.358367919921875 0 -0.93358045816421509
vn -0.5916295051574707 0 -0.8062099814414978
vn -0.5916295051574707 0 -0.8062099814414978
vn -0.93358045816421509 0 -0.358367919921875
vn -0.93358045816421509 0 -0.358367919921875
vn 0.5916295051574707 0 0.8062099814414978
vn 0.5916295051574707 0 0.8062099814414978
vn -0.8062099814414978 0 0.5916295051574707
vn -0.8062099814414978 0 0.5916295051574707
vn 0.97912615537643433 0 -0.203253373503685
vn 0.97912615537643433 0 -0.203253373503685
vn 0.203253373503685 0 0.97912615537643433
vn 0.203253373503685 0 0.97912615537643433
vn 0.94023412466049194 0 -0.34052875638008118
vn 0.94023412466049194 0 -0.34052875638008118
vn -0.34052875638008118 0 -0.94023412466049194
vn -0.34052875638008118 0 -0.94023412466049194
vn 0.08083149790763855 0 -0.99672776460647583
vn 0.08083149790763855 0 -0.99672776460647583
vn -0.99672776460647583 0 -0.08083149790763855
vn -0.99672776460647583 0 -0.08083149790763855
vn 0.34052875638008118 0 0.94023412466049194
vn 0.34052875638008118 0 0.94023412466049194
vn -0.94023412466049194 0 0.34052875638008118
vn -0.94023412466049194 0 0.34052875638008118
vn 0.88220155239105225 0 -0.47087192535400391
vn 0.88220155239105225 0 -0.47087192535400391
vn 0.47087192535400391 0 0.88220155239105225
vn 0.47087192535400391 0 0.88220155239105225
vn 0.99808603525161743 0 -0.061840340495109558
vn 0.99808603525161743 0 -0.061840340495109558
vn -0.061840340495109558 0 -0.99808603525161743
vn -0.061840340495109558 0 -0.99808603525161743
vn -0.203253373503685 0 -0.97912615537643433
vn -0.203253373503685 0 -0.97912615537643433
vn -0.97912615537643433 0 0.203253373503685
vn -0.97912615537643433 0 0.203253373503685
vn 0.061840340495109558 0 0.99808603525161743
vn 0.061840340495109558 0 0.99808603525161743
vn -0.99808603525161743 0 0.061840340495109558
vn -0.99808603525161743 0 0.061840340495109558
vn 0.9750789999961853 0 0.22185793519020081
vn 0.9750789999961853 0 0.22185793519020081
vn 0.22185793519020081 0 -0.9750789999961853
vn 0.22185793519020081 0 -0.9750789999961853
vn 0.71380627155303955 0 -0.70034319162368774
vn 0.71380627155303955 0 -0.70034319162368774
vn 0.70034319162368774 0 0.71380627155303955
vn 0.70034319162368774 0 0.71380627155303955
vn -0.47087192535400391 0 -0.88220155239105225
vn -0.47087192535400391 0 -0.88220155239105225
vn -0.88220155239105225 0 0.47087192535400391
vn -0.88220155239105225 0 0.47087192535400391
vn -0.22185793519020081 0 0.9750789999961853
vn -0.22185793519020081 0 0.9750789999961853
vn -0.9750789999961853 0 -0.22185793519020081
vn -0.9750789999961853 0 -0.22185793519020081
vn 0.87307685613632202 0 0.48758262395858765
vn 0.87307685613632202 0 0.48758262395858765
vn 0.48758262395858765 0 -0.87307685613632202
vn 0.48758262395858765 0 -0.87307685613632202
vn -0.70034319162368774 0 -0.71380627155303955
vn -0.70034319162368774 0 -0.71380627155303955
vn -0.71380627155303955 0 0.70034319162368774
vn -0.71380627155303955 0 0.70034319162368774
vn 0.87307685613632202 0 0.48758262395858765
vn 0.87307685613632202 0 0.48758262395858765
vn 0.48758262395858765 0 -0.87307685613632202
vn 0.48758262395858765 0 -0.87307685613632202
vn -0.48758262395858765 0 0.87307685613632202
vn -0.48758262395858765 0 0.87307685613632202
vn -0.87307685613632202 0 -0.48758262395858765
vn -0.87307685613632202 0 -0.48758262395858765
vn 0.71380627155303955 0 -0.70034319162368774
vn 0.71380627155303955 0 -0.70034319162368774
vn 0.70034319162368774 0 0.71380627155303955
vn 0.70034319162368774 0 0.71380627155303955
vn -0.48758262395858765 0 0.87307685613632202
vn -0.48758262395858765 0 0.87307685613632202
vn -0.87307685613632202 0 -0.48758262395858765
vn -0.87307685613632202 0 -0.48758262395858765
vn 0.9750789999961853 0 0.22185793519020081
vn 0.9750789999961853 0 0.22185793519020081
vn 0.22185793519020081 0 -0.9750789999961853
vn 0.22185793519020081 0 -0.9750789999961853
vn 0.88220155239105225 0 -0.47087192535400391
vn 0.88220155239105225 0 -0.47087192535400391
vn 0.47087192535400391 0 0.88220155239105225
vn 0.47087192535400391 0 0.88220155239105225
vn -0.70034319162368774 0 -0.71380627155303955
vn -0.70034319162368774 0 -0.71380627155303955
vn -0.71380627155303955 0 0.70034319162368774
vn -0.71380627155303955 0 0.70034319162368774
vn -0.22185793519020081 0 0.9750789999961853
vn -0.22185793519020081 0 0.9750789999961853
vn -0.9750789999961853 0 -0.22185793519020081
vn -0.9750789999961853 0 -0.22185793519020081
vn 0.99808603525161743 0 -0.061840340495109558
vn 0.99808603525161743 0 -0.061840340495109558
vn -0.061840340495109558 0 -0.99808603525161743
vn -0.061840340495109558 0 -0.99808603525161743
vn 0.97912615537643433 0 -0.203253373503685
vn 0.97912615537643433 0 -0.203253373503685
vn 0.203253373503685 0 0.97912615537643433
vn 0.203253373503685 0 0.97912615537643433
vn 0.061840340495109558 0 0.99808603525161743
vn 0.061840340495109558 0 0.99808603525161743
vn -0.99808603525161743 0 0.061840340495109558
vn -0.99808603525161743 0 0.061840340495109558
vn -0.47087192535400391 0 -0.88220155239105225
vn -0.47087192535400391 0 -0.88220155239105225
vn -0.88220155239105225 0 0.47087192535400391
vn -0.88220155239105225 0 0.47087192535400391
vn 0.94023412466049194 0 -0.34052875638008118
vn 0.94023412466049194 0 -0.34052875638008118
vn -0.34052875638008118 0 -0.94023412466049194
vn -0.34052875638008118 0 -0.94023412466049194
vn 0.99672776460647583 0 0.08083149790763855
vn 0.99672776460647583 0 0.08083149790763855
vn -0.08083149790763855 0 0.99672776460647583
vn -0.08083149790763855 0 0.99672776460647583
vn 0.34052875638008118 0 0.94023412466049194
vn 0.34052875638008118 0 0.94023412466049194
vn -0.94023412466049194 0 0.34052875638008118
vn -0.94023412466049194 0 0.34052875638008118
vn -0.203253373503685 0 -0.97912615537643433
vn -0.203253373503685 0 -0.97912615537643433
vn -0.97912615537643433 0 0.203253373503685
vn -0.97912615537643433 0 0.203253373503685
vn 0.8062099814414978 0 -0.5916295051574707
vn 0.8062099814414978 0 -0.5916295051574707
vn -0.5916295051574707 0 -0.8062099814414978
vn -0.5916295051574707 0 -0.8062099814414978
vn 0.93358045816421509 0 0.358367919921875
vn 0.93358045816421509 0 0.358367919921875
vn 0.5916295051574707 0 0.8062099814414978
vn 0.5916295051574707 0 0.8062099814414978
vn -0.358367919921875 0 0.93358045816421509
vn -0.358367919921875 0 0.93358045816421509
vn -0.8062099814414978 0 0.5916295051574707
vn -0.8062099814414978 0 0.5916295051574707
vn 0.79479992389678955 0 0.60687154531478882
vn 0.79479992389678955 0 0.60687154531478882
vn -0.60687154531478882 0 0.79479992389678955
vn -0.60687154531478882 0 0.79479992389678955
vn 0.08083149790763855 0 -0.99672776460647583
vn 0.08083149790763855 0 -0.99672776460647583
vn -0.99672776460647583 0 -0.08083149790763855
vn -0.99672776460647583 0 -0.08083149790763855
vn 0.60687154531478882 0 -0.79479992389678955
vn 0.60687154531478882 0 -0.79479992389678955
vn -0.79479992389678955 0 -0.60687154531478882
vn -0.79479992389678955 0 -0.60687154531478882
vn 0.358367919921875 0 -0.93358045816421509
vn 0.358367919921875 0 -0.93358045816421509
vn -0.93358045816421509 0 -0.358367919921875
vn -0.93358045816421509 0 -0.358367919921875
f 2//2 1//1 3//3 4//4
f 4//4 3//3 23//23 24//24
f 24//24 23//23 19//19 20//20
f 20//20 19//19 1//1 2//2
f 10//10 9//9 11//11 12//12
f 12//12 11//11 39//39 40//40
f 40//40 39//39 37//37 38//38
f 38//38 37//37 9//9 10//10
f 30//30 29//29 31//31 32//32
f 32//32 31//31 55//55 56//56
f 56//56 55//55 53//53 54//54
f 54//54 53//53 29//29 30//30
f 46//46 45//45 47//47 48//48
f 48//48 47//47 71//71 72//72
f 72//72 71//71 69//69 70//70
f 70//70 69//69 45//45 46//46
f 66//66 65//65 67//67 68//68
f 68//68 67//67 83//83 84//84
f 84//84 83//83 81//81 82//82
f 82//82 81//81 65//65 66//66
f 88//88 87//87 85//85 86//86
f 86//86 85//85 97//97 98//98
f 98//98 97//97 99//99 100//100
f 100//100 99//99 87//87 88//88
f 104//104 103//103 101//101 102//102
f 102//102 101//101 113//113 114//114
f 114//114 113//113 115//115 116//116
f 116//116 115//115 103//103 104//104
f 120//120 119//119 117//117 118//118
f 118//118 117//117 125//125 126//126
f 126//126 125//125 127//127 128//128
f 128//128 127//127 119//119 120//120
f 136//136 135//135 133//133 134//134
f 134//134 133//133 141//141 142//142
f 142//142 141//141 143//143 144//144
f 144//144 143//143 135//135 136//136
f 152//152 151//151 149//149 150//150
f 150//150 149//149 155//155 156//156
f 156//156 155//155 159//159 160//160
f 160//160 159//159 151//151 152//152
f 172//172 171//171 169//169 170//170
f 170//170 169//169 161//161 162//162
f 162//162 161//161 163//163 164//164
f 164//164 163//163 171//171 172//172
f 176//176 175//175 173//173 174//174
f 174//174 173//173 153//153 154//154
f 154//154 153//153 157//157 158//158
f 158//158 157//157 175//175 176//176
f 168//168 167//167 165//165 166//166
f 166//166 165//165 137//137 138//138
f 138//138 137//137 139//139 140//140
f 140//140 139//139 167//167 168//168
f 148//148 147//147 145//145 146//146
f 146//146 145//145 121//121 122//122
f 122//122 121//121 123//123 124//124
f 124//124 123//123 147//147 148//148
f 132//132 131//131 129//129 130//130
f 130//130 129//129 105//105 106//106
f 106//106 105//105 107//107 108//108
f 108//108 107//107 131//131 132//132
f 112//112 111//111 109//109 110//110
f 110//110 109//109 93//93 94//94
f 94//94 93//93 95//95 96//96
f 96//96 95//95 111//111 112//112
f 90//90 89//89 91//91 92//92
f 92//92 91//91 79//79 80//80
f 80//80 79//79 77//77 78//78
f 78//78 77//77 89//89 90//90
f 74//74 73//73 75//75 76//76
f 76//76 75//75 63//63 64//64
f 64//64 63//63 61//61 62//62
f 62//62 61//61 73//73 74//74
f 58//58 57//57 59//59 60//60
f 60//60 59//59 51//51 52//52
f 52//52 51//51 49//49 50//50
f 50//50 49//49 57//57 58//58
f 42//42 41//41 43//43 44//44
f 44//44 43//43 35//35 36//36
f 36//36 35//35 33//33 34//34
f 34//34 33//33 41//41 42//42
f 26//26 25//25 27//27 28//28
f 28//28 27//27 21//21 22//22
f 22//22 21//21 17//17 18//18
f 18//18 17//17 25//25 26//26
f 6//6 5//5 7//7 8//8
f 8//8 7//7 15//15 16//16
f 16//16 15//15 13//13 14//14
f 14//14 13//13 5//5 6//6
