# Rhino

mtllib Frangisole5.mtl
usemtl diffuse_Black
v 1.2817847044391926 3 -0.024972681696717403
v 1.2817847044391926 0 -0.024972681696717403
v 1.2623787899136729 3 -0.020134243784724115
v 1.2623787899136729 0 -0.020134243784724115
v 1.2515312587741052 3 -0.017332141124142886
v 1.2515312587741052 0 -0.017332141124142886
v 1.2368990350615445 3 0.33715936948157615
v 1.2368990350615445 0 0.33715936948157615
v 1.2315482746562412 3 -0.018156971861436194
v 1.2315482746562412 0 -0.018156971861436194
v 1.2228278001303372 3 -0.38508159472220171
v 1.2228278001303372 0 -0.38508159472220171
v 1.2169160509436805 3 0.33633453874428287
v 1.2169160509436805 0 0.33633453874428287
v 1.2057184774871026 3 0.33596703387509141
v 1.2057184774871026 0 0.33596703387509147
v 1.2055711069806019 3 -0.3749718696252532
v 1.2055711069806019 0 -0.3749718696252532
v 1.1959524206182206 3 -0.36922716912770959
v 1.1959524206182206 0 -0.36922716912770959
v 1.1867773263067409 3 0.32954575736938974
v 1.1867773263067409 0 0.32954575736938974
v 1.1765465060927009 3 -0.3643887312157163
v 1.1765465060927009 0 -0.3643887312157163
v 1.0918071619850152 3 0.67197677370845255
v 1.0918071619850152 0 0.67197677370845255
v 1.0728660108046535 3 0.66555549720275087
v 1.0728660108046535 0 0.66555549720275076
v 1.0648046598918706 3 -0.71399348711171873
v 1.0648046598918706 0 -0.71399348711171873
v 1.0622255558379832 3 0.66204815786265203
v 1.0622255558379832 0 0.66204815786265203
v 1.0510952227674055 3 -0.69943150463231962
v 1.0510952227674053 0 -0.69943150463231962
v 1.0458607370163935 3 0.65055064922223205
v 1.0458607370163935 0 0.65055064922223205
v 1.0434846299467599 3 -0.69120960776707729
v 1.0434846299467599 0 -0.69120960776707729
v 1.0262279367970246 3 -0.68109988267012878
v 1.0262279367970246 0 -0.68109988267012878
v 0.85826356587166974 3 0.95235461612922312
v 0.85826356587166974 0 0.95235461612922312
v 0.84189874705007994 3 0.94085710748880325
v 0.84189874705007994 0 0.94085710748880313
v 0.83267743695349561 3 0.93449407745217994
v 0.83267743695349561 0 0.93449407745217994
v 0.8205173787461113 3 -0.98506187345821306
v 0.8205173787461113 0 -0.98506187345821306
v 0.82021473078627793 3 0.91885179644877168
v 0.82021473078627793 0 0.91885179644877168
v 0.81146585470957844 3 -0.96722735881339972
v 0.81146585470957844 0 -0.96722735881339972
v 0.8064799203990598 3 -0.95719435476697712
v 0.8064799203990598 0 -0.95719435476697712
v 0.79277048327459465 3 -0.94263237228757801
v 0.79277048327459465 0 -0.94263237228757801
v 0.55518855994136629 3 1.1555783514221898
v 0.55518855994136629 0 1.1555783514221898
v 0.54272585377414861 3 1.1399360704187815
v 0.54272585377414861 0 1.1399360704187815
v 0.53567074425043115 3 1.1312328445368056
v 0.53567074425043115 0 1.1312328445368056
v 0.52811980507268608 3 1.1127130357490784
v 0.52811980507268608 0 1.1127130357490784
v 0.5097566593790881 3 -1.1763264052056583
v 0.5097566593790881 0 -1.1763264052056583
v 0.50609634907644119 3 -1.1566642047060109
v 0.50609634907644119 0 -1.1566642047060109
v 0.50413900402139378 3 -1.1456329077976768
v 0.50413900402139378 0 -1.1456329077976768
v 0.49508747998486097 3 -1.1277983931528635
v 0.49508747998486097 0 -1.1277983931528635
v 0.2071354787181135 3 1.2651840011720084
v 0.20713547871811352 0 1.2651840011720084
v 0.19958453954036842 3 1.2466641923842812
v 0.19958453954036845 0 1.2466641923842809
v 0.19526719360477951 3 1.2363258542578315
v 0.19526719360477951 0 1.2363258542578315
v 0.19323975360152346 3 1.2164288824522229
v 0.19323975360152346 0 1.2164288824522229
v 0.16095574376801691 3 -1.2412590959798555
v 0.16095574376801691 0 -1.2412590959798555
v 0.15972592711201222 3 -1.2523949956802369
v 0.15972592711201219 0 -1.2523949956802369
v 0.1576984871087562 3 -1.2722919674858455
v 0.15769848710875617 0 -1.2722919674858455
v 0.15729543346537 3 -1.2215968954802081
v 0.15729543346537006 0 -1.2215968954802081
v -0.15729543346536901 3 1.2215968954802083
v -0.15729543346536898 0 1.2215968954802083
v -0.15769848710875489 3 1.2722919674858455
v -0.15769848710875489 0 1.2722919674858455
v -0.15972592711201095 3 1.2523949956802367
v -0.15972592711201095 0 1.2523949956802367
v -0.1609557437680158 3 1.2412590959798553
v -0.16095574376801577 0 1.2412590959798553
v -0.19323975360152232 3 -1.2164288824522231
v -0.19323975360152229 0 -1.2164288824522231
v -0.19526719360477834 3 -1.2363258542578317
v -0.19526719360477832 0 -1.2363258542578317
v -0.19958453954036739 3 -1.2466641923842809
v -0.19958453954036742 0 -1.2466641923842809
v -0.20713547871811247 3 -1.2651840011720084
v -0.2071354787181125 0 -1.2651840011720084
v -0.49508747998485991 3 1.1277983931528643
v -0.49508747998485986 0 1.1277983931528643
v -0.50413900402139267 3 1.1456329077976775
v -0.50413900402139267 0 1.1456329077976775
v -0.50609634907643997 3 1.1566642047060116
v -0.50609634907643997 0 1.1566642047060116
v -0.50975665937908676 3 1.1763264052056586
v -0.50975665937908676 0 1.1763264052056586
v -0.52811980507268519 3 -1.1127130357490786
v -0.52811980507268519 0 -1.1127130357490786
v -0.53567074425043026 3 -1.1312328445368061
v -0.53567074425043026 0 -1.1312328445368061
v -0.54272585377414662 3 -1.1399360704187824
v -0.54272585377414673 0 -1.1399360704187824
v -0.5551885599413644 3 -1.1555783514221907
v -0.5551885599413644 0 -1.1555783514221907
v -0.79277048327459365 3 0.94263237228757879
v -0.79277048327459365 0 0.94263237228757879
v -0.8064799203990588 3 0.9571943547669779
v -0.8064799203990588 0 0.9571943547669779
v -0.81146585470957744 3 0.96722735881340083
v -0.81146585470957755 0 0.96722735881340083
v -0.82021473078627638 3 -0.91885179644877302
v -0.82021473078627638 0 -0.91885179644877302
v -0.82051737874611019 3 0.98506187345821394
v -0.8205173787461103 0 0.98506187345821394
v -0.83267743695349417 3 -0.93449407745218127
v -0.83267743695349405 0 -0.93449407745218127
v -0.84189874705007883 3 -0.94085710748880413
v -0.84189874705007872 0 -0.94085710748880413
v -0.85826356587166863 3 -0.95235461612922423
v -0.85826356587166863 0 -0.95235461612922423
v -1.0262279367970244 3 0.68109988267012944
v -1.0262279367970244 0 0.68109988267012944
v -1.0434846299467597 3 0.69120960776707796
v -1.0434846299467597 0 0.69120960776707796
v -1.0458607370163926 3 -0.65055064922223316
v -1.0458607370163926 0 -0.65055064922223316
v -1.0510952227674046 3 0.69943150463232051
v -1.0510952227674046 0 0.69943150463232062
v -1.0622255558379825 3 -0.66204815786265325
v -1.0622255558379825 0 -0.66204815786265325
v -1.0648046598918699 3 0.71399348711171973
v -1.0648046598918699 0 0.71399348711171973
v -1.0728660108046526 3 -0.66555549720275253
v -1.0728660108046526 0 -0.66555549720275253
v -1.091807161985014 3 -0.67197677370845421
v -1.091807161985014 0 -0.67197677370845421
v -1.1765465060927009 3 0.3643887312157163
v -1.1765465060927009 0 0.3643887312157163
v -1.1867773263067405 3 -0.32954575736939185
v -1.1867773263067405 0 -0.32954575736939185
v -1.1959524206182206 3 0.36922716912770959
v -1.1959524206182206 0 0.36922716912770959
v -1.2055711069806017 3 0.37497186962525408
v -1.2055711069806017 0 0.37497186962525408
v -1.2057184774871019 3 -0.33596703387509352
v -1.2057184774871019 0 -0.33596703387509352
v -1.21691605094368 3 -0.33633453874428487
v -1.21691605094368 0 -0.33633453874428487
v -1.222827800130337 3 0.3850815947222026
v -1.222827800130337 0 0.3850815947222026
v -1.2315482746562412 3 0.01815697186143414
v -1.2315482746562412 0 0.018156971861434112
v -1.2368990350615439 3 -0.33715936948157821
v -1.2368990350615439 0 -0.33715936948157821
v -1.251531258774105 3 0.017332141124140804
v -1.251531258774105 0 0.017332141124140776
v -1.2623787899136729 3 0.020134243784724115
v -1.2623787899136729 0 0.020134243784724115
v -1.2817847044391926 3 0.024972681696717403
v -1.2817847044391926 0 0.024972681696717403
vn 0.85716730356216431 0 0.51503807306289673
vn 0.85716730356216431 0 0.51503807306289673
vn -0.51503807306289673 0 0.85716730356216431
vn -0.51503807306289673 0 0.85716730356216431
vn 0.73566734790802002 0 -0.67734301090240479
vn 0.73566734790802002 0 -0.67734301090240479
vn 0.67734301090240479 0 0.73566734790802002
vn 0.67734301090240479 0 0.73566734790802002
vn -0.67734301090240479 0 -0.73566734790802002
vn -0.67734301090240479 0 -0.73566734790802002
vn 0.96754902601242065 0 0.25268346071243286
vn 0.96754902601242065 0 0.25268346071243286
vn -0.73566734790802002 0 0.67734301090240479
vn -0.73566734790802002 0 0.67734301090240479
vn 0.89669722318649292 0 -0.44264441728591919
vn 0.89669722318649292 0 -0.44264441728591919
vn -0.25268346071243286 0 0.96754902601242065
vn -0.25268346071243286 0 0.96754902601242065
vn 0.51503807306289673 0 -0.85716730356216431
vn 0.51503807306289673 0 -0.85716730356216431
vn -0.44264441728591919 0 -0.89669722318649292
vn -0.44264441728591919 0 -0.89669722318649292
vn -0.85716730356216431 0 -0.51503807306289673
vn -0.85716730356216431 0 -0.51503807306289673
vn 0.44264441728591919 0 0.89669722318649292
vn 0.44264441728591919 0 0.89669722318649292
vn -0.89669722318649292 0 0.44264441728591919
vn -0.89669722318649292 0 0.44264441728591919
vn 0.9995456337928772 0 -0.030142037197947502
vn 0.9995456337928772 0 -0.030142037197947502
vn 0.98508203029632568 0 -0.17208541929721832
vn 0.98508203029632568 0 -0.17208541929721832
vn 0.030142037197947502 0 0.9995456337928772
vn 0.030142037197947502 0 0.9995456337928772
vn -0.17208541929721832 0 -0.98508203029632568
vn -0.17208541929721832 0 -0.98508203029632568
vn 0.25268346071243286 0 -0.96754902601242065
vn 0.25268346071243286 0 -0.96754902601242065
vn -0.96754902601242065 0 -0.25268346071243286
vn -0.96754902601242065 0 -0.25268346071243286
vn 0.17208541929721832 0 0.98508203029632568
vn 0.17208541929721832 0 0.98508203029632568
vn -0.98508203029632568 0 0.17208541929721832
vn -0.98508203029632568 0 0.17208541929721832
vn 0.99366134405136108 0 0.11241491883993149
vn 0.99366134405136108 0 0.11241491883993149
vn 0.95056504011154175 0 -0.31052559614181519
vn 0.95056504011154175 0 -0.31052559614181519
vn 0.11241491883993149 0 -0.99366134405136108
vn 0.11241491883993149 0 -0.99366134405136108
vn 0.31052559614181519 0 0.95056504011154175
vn 0.31052559614181519 0 0.95056504011154175
vn -0.030142037197947502 0 -0.9995456337928772
vn -0.030142037197947502 0 -0.9995456337928772
vn -0.9995456337928772 0 0.030142037197947502
vn -0.9995456337928772 0 0.030142037197947502
vn -0.11241491883993149 0 0.99366134405136108
vn -0.11241491883993149 0 0.99366134405136108
vn -0.99366134405136108 0 -0.11241491883993149
vn -0.99366134405136108 0 -0.11241491883993149
vn 0.92174011468887329 0 0.38780811429023743
vn 0.92174011468887329 0 0.38780811429023743
vn 0.38780811429023743 0 -0.92174011468887329
vn 0.38780811429023743 0 -0.92174011468887329
vn 0.82457530498504639 0 -0.56575226783752441
vn 0.82457530498504639 0 -0.56575226783752441
vn 0.56575226783752441 0 0.82457530498504639
vn 0.56575226783752441 0 0.82457530498504639
vn -0.31052559614181519 0 -0.95056504011154175
vn -0.31052559614181519 0 -0.95056504011154175
vn -0.95056504011154175 0 0.31052559614181519
vn -0.95056504011154175 0 0.31052559614181519
vn -0.38780811429023743 0 0.92174011468887329
vn -0.38780811429023743 0 0.92174011468887329
vn -0.92174011468887329 0 -0.38780811429023743
vn -0.92174011468887329 0 -0.38780811429023743
vn 0.77514499425888062 0 0.63178336620330811
vn 0.77514499425888062 0 0.63178336620330811
vn 0.63178336620330811 0 -0.77514499425888062
vn 0.63178336620330811 0 -0.77514499425888062
vn -0.56575226783752441 0 -0.82457530498504639
vn -0.56575226783752441 0 -0.82457530498504639
vn 0.77514499425888062 0 0.63178336620330811
vn 0.77514499425888062 0 0.63178336620330811
vn 0.63178336620330811 0 -0.77514499425888062
vn 0.63178336620330811 0 -0.77514499425888062
vn -0.82457530498504639 0 0.56575226783752441
vn -0.82457530498504639 0 0.56575226783752441
vn 0.82457530498504639 0 -0.56575226783752441
vn 0.82457530498504639 0 -0.56575226783752441
vn -0.63178336620330811 0 0.77514499425888062
vn -0.63178336620330811 0 0.77514499425888062
vn -0.77514499425888062 0 -0.63178336620330811
vn -0.77514499425888062 0 -0.63178336620330811
vn 0.56575226783752441 0 0.82457530498504639
vn 0.56575226783752441 0 0.82457530498504639
vn -0.63178336620330811 0 0.77514499425888062
vn -0.63178336620330811 0 0.77514499425888062
vn -0.77514499425888062 0 -0.63178336620330811
vn -0.77514499425888062 0 -0.63178336620330811
vn 0.92174011468887329 0 0.38780811429023743
vn 0.92174011468887329 0 0.38780811429023743
vn 0.38780811429023743 0 -0.92174011468887329
vn 0.38780811429023743 0 -0.92174011468887329
vn 0.95056504011154175 0 -0.31052559614181519
vn 0.95056504011154175 0 -0.31052559614181519
vn 0.31052559614181519 0 0.95056504011154175
vn 0.31052559614181519 0 0.95056504011154175
vn -0.56575226783752441 0 -0.82457530498504639
vn -0.56575226783752441 0 -0.82457530498504639
vn -0.82457530498504639 0 0.56575226783752441
vn -0.82457530498504639 0 0.56575226783752441
vn -0.38780811429023743 0 0.92174011468887329
vn -0.38780811429023743 0 0.92174011468887329
vn -0.92174011468887329 0 -0.38780811429023743
vn -0.92174011468887329 0 -0.38780811429023743
vn 0.99366134405136108 0 0.11241491883993149
vn 0.99366134405136108 0 0.11241491883993149
vn 0.11241491883993149 0 -0.99366134405136108
vn 0.11241491883993149 0 -0.99366134405136108
vn 0.9995456337928772 0 -0.030142037197947502
vn 0.9995456337928772 0 -0.030142037197947502
vn 0.030142037197947502 0 0.9995456337928772
vn 0.030142037197947502 0 0.9995456337928772
vn -0.31052559614181519 0 -0.95056504011154175
vn -0.31052559614181519 0 -0.95056504011154175
vn -0.11241491883993149 0 0.99366134405136108
vn -0.11241491883993149 0 0.99366134405136108
vn -0.95056504011154175 0 0.31052559614181519
vn -0.95056504011154175 0 0.31052559614181519
vn -0.99366134405136108 0 -0.11241491883993149
vn -0.99366134405136108 0 -0.11241491883993149
vn 0.98508203029632568 0 -0.17208541929721832
vn 0.98508203029632568 0 -0.17208541929721832
vn -0.17208541929721832 0 -0.98508203029632568
vn -0.17208541929721832 0 -0.98508203029632568
vn 0.96754902601242065 0 0.25268346071243286
vn 0.96754902601242065 0 0.25268346071243286
vn -0.25268346071243286 0 0.96754902601242065
vn -0.25268346071243286 0 0.96754902601242065
vn 0.17208541929721832 0 0.98508203029632568
vn 0.17208541929721832 0 0.98508203029632568
vn -0.030142037197947502 0 -0.9995456337928772
vn -0.030142037197947502 0 -0.9995456337928772
vn -0.98508203029632568 0 0.17208541929721832
vn -0.98508203029632568 0 0.17208541929721832
vn -0.9995456337928772 0 0.030142037197947502
vn -0.9995456337928772 0 0.030142037197947502
vn 0.89669722318649292 0 -0.44264441728591919
vn 0.89669722318649292 0 -0.44264441728591919
vn -0.44264441728591919 0 -0.89669722318649292
vn -0.44264441728591919 0 -0.89669722318649292
vn 0.85716730356216431 0 0.51503807306289673
vn 0.85716730356216431 0 0.51503807306289673
vn 0.44264441728591919 0 0.89669722318649292
vn 0.44264441728591919 0 0.89669722318649292
vn -0.51503807306289673 0 0.85716730356216431
vn -0.51503807306289673 0 0.85716730356216431
vn 0.25268346071243286 0 -0.96754902601242065
vn 0.25268346071243286 0 -0.96754902601242065
vn -0.89669722318649292 0 0.44264441728591919
vn -0.89669722318649292 0 0.44264441728591919
vn 0.73566734790802002 0 -0.67734301090240479
vn 0.73566734790802002 0 -0.67734301090240479
vn -0.96754902601242065 0 -0.25268346071243286
vn -0.96754902601242065 0 -0.25268346071243286
vn 0.67734301090240479 0 0.73566734790802002
vn 0.67734301090240479 0 0.73566734790802002
vn -0.67734301090240479 0 -0.73566734790802002
vn -0.67734301090240479 0 -0.73566734790802002
vn -0.73566734790802002 0 0.67734301090240479
vn -0.73566734790802002 0 0.67734301090240479
vn 0.51503807306289673 0 -0.85716730356216431
vn 0.51503807306289673 0 -0.85716730356216431
vn -0.85716730356216431 0 -0.51503807306289673
vn -0.85716730356216431 0 -0.51503807306289673
f 2//2 1//1 3//3 4//4
f 4//4 3//3 23//23 24//24
f 24//24 23//23 19//19 20//20
f 20//20 19//19 1//1 2//2
f 12//12 11//11 17//17 18//18
f 18//18 17//17 39//39 40//40
f 40//40 39//39 37//37 38//38
f 38//38 37//37 11//11 12//12
f 30//30 29//29 33//33 34//34
f 34//34 33//33 55//55 56//56
f 56//56 55//55 53//53 54//54
f 54//54 53//53 29//29 30//30
f 48//48 47//47 51//51 52//52
f 52//52 51//51 71//71 72//72
f 72//72 71//71 69//69 70//70
f 70//70 69//69 47//47 48//48
f 66//66 65//65 67//67 68//68
f 68//68 67//67 87//87 88//88
f 88//88 87//87 81//81 82//82
f 82//82 81//81 65//65 66//66
f 86//86 85//85 83//83 84//84
f 84//84 83//83 97//97 98//98
f 98//98 97//97 99//99 100//100
f 100//100 99//99 85//85 86//86
f 104//104 103//103 101//101 102//102
f 102//102 101//101 113//113 114//114
f 114//114 113//113 115//115 116//116
f 116//116 115//115 103//103 104//104
f 120//120 119//119 117//117 118//118
f 118//118 117//117 127//127 128//128
f 128//128 127//127 131//131 132//132
f 132//132 131//131 119//119 120//120
f 136//136 135//135 133//133 134//134
f 134//134 133//133 141//141 142//142
f 142//142 141//141 145//145 146//146
f 146//146 145//145 135//135 136//136
f 152//152 151//151 149//149 150//150
f 150//150 149//149 155//155 156//156
f 156//156 155//155 161//161 162//162
f 162//162 161//161 151//151 152//152
f 170//170 169//169 163//163 164//164
f 164//164 163//163 167//167 168//168
f 168//168 167//167 171//171 172//172
f 172//172 171//171 169//169 170//170
f 176//176 175//175 173//173 174//174
f 174//174 173//173 153//153 154//154
f 154//154 153//153 157//157 158//158
f 158//158 157//157 175//175 176//176
f 166//166 165//165 159//159 160//160
f 160//160 159//159 137//137 138//138
f 138//138 137//137 139//139 140//140
f 140//140 139//139 165//165 166//166
f 148//148 147//147 143//143 144//144
f 144//144 143//143 121//121 122//122
f 122//122 121//121 123//123 124//124
f 124//124 123//123 147//147 148//148
f 130//130 129//129 125//125 126//126
f 126//126 125//125 105//105 106//106
f 106//106 105//105 107//107 108//108
f 108//108 107//107 129//129 130//130
f 112//112 111//111 109//109 110//110
f 110//110 109//109 89//89 90//90
f 90//90 89//89 95//95 96//96
f 96//96 95//95 111//111 112//112
f 92//92 91//91 93//93 94//94
f 94//94 93//93 79//79 80//80
f 80//80 79//79 77//77 78//78
f 78//78 77//77 91//91 92//92
f 74//74 73//73 75//75 76//76
f 76//76 75//75 63//63 64//64
f 64//64 63//63 61//61 62//62
f 62//62 61//61 73//73 74//74
f 58//58 57//57 59//59 60//60
f 60//60 59//59 49//49 50//50
f 50//50 49//49 45//45 46//46
f 46//46 45//45 57//57 58//58
f 42//42 41//41 43//43 44//44
f 44//44 43//43 35//35 36//36
f 36//36 35//35 31//31 32//32
f 32//32 31//31 41//41 42//42
f 26//26 25//25 27//27 28//28
f 28//28 27//27 21//21 22//22
f 22//22 21//21 15//15 16//16
f 16//16 15//15 25//25 26//26
f 8//8 7//7 13//13 14//14
f 14//14 13//13 9//9 10//10
f 10//10 9//9 5//5 6//6
f 6//6 5//5 7//7 8//8
