# Rhino

mtllib Frangisole31.mtl
usemtl diffuse_Black
v 1.3508544397576163 3 -0.065214839040771189
v 1.3508544397576163 0 -0.065214839040771216
v 1.3355335508952368 3 -0.052359086847040437
v 1.3355335508952368 0 -0.052359086847040465
v 1.3145084866703409 3 0.31800649539848769
v 1.3145084866703409 0 0.31800649539848769
v 1.2961863175216992 3 0.32602510610662006
v 1.2961863175216992 0 0.32602510610662006
v 1.2777621999764224 3 -0.44315285506853075
v 1.2777621999764224 0 -0.44315285506853064
v 1.2666837986991002 3 -0.42650145797583539
v 1.2666837986991002 0 -0.42650145797583527
v 1.1722609921960863 3 -0.0070227084864799838
v 1.1722609921960863 0 -0.0070227084864799283
v 1.1716688736760199 3 0.67546483483801323
v 1.1716688736760199 0 0.67546483483801323
v 1.1539388230474448 3 0.0009959022216524116
v 1.1539388230474448 0 0.00099590222165238385
v 1.151829777419404 3 0.6779966839094882
v 1.151829777419404 0 0.6779966839094882
v 1.1267547108723521 3 0.32352584716835409
v 1.1267547108723521 0 0.32352584716835409
v 1.1227976596366565 3 -0.33700232606539304
v 1.1227976596366565 0 -0.33700232606539304
v 1.107476770774277 3 -0.32414657387166229
v 1.107476770774277 0 -0.32414657387166229
v 1.1069156146157362 3 0.32605769623982905
v 1.1069156146157362 0 0.32605769623982905
v 1.1011532658975429 3 -0.78518926231014663
v 1.1011532658975431 0 -0.78518926231014663
v 1.0952148583909775 3 -0.76609121748126519
v 1.0952148583909775 0 -0.76609121748126519
v 0.98996546394202567 3 0.62786426276790774
v 0.98996546394202567 0 0.62786426276790774
v 0.98237193822826141 3 -0.63968001941649499
v 0.98237193822826141 0 -0.63968001941649499
v 0.97129353695093923 3 -0.62302862232379963
v 0.97129353695093923 0 -0.62302862232379963
v 0.97021668616849788 3 0.62470423484844073
v 0.97021668616849788 0 0.62470423484844073
v 0.93390761671956501 3 0.97820103050301455
v 0.93390761671956501 0 0.97820103050301455
v 0.91415883894603722 3 0.97504100258354753
v 0.91415883894603722 0 0.97504100258354753
v 0.83533544302627516 3 -1.0636143052197418
v 0.83533544302627516 0 -1.0636143052197418
v 0.83501812374957907 3 -1.0436168226662641
v 0.83501812374957907 0 -1.0436168226662641
v 0.77297510267442804 3 0.88133684985055283
v 0.77297510267442804 0 0.88133684985055294
v 0.76236028477548745 3 -0.89053464191803133
v 0.76236028477548745 0 -0.89053464191803133
v 0.75642187726892196 3 -0.87143659708914989
v 0.75642187726892196 0 -0.87143659708914989
v 0.75491657190869565 3 0.8727409516087693
v 0.75491657190869565 0 0.87274095160876941
v 0.62048671881894835 3 1.2016891962621918
v 0.62048671881894835 0 1.2016891962621918
v 0.60242818805321596 3 1.1930932980204083
v 0.60242818805321596 0 1.1930932980204083
v 0.50717318676598644 3 -1.2365947995070694
v 0.50717318676598655 0 -1.2365947995070694
v 0.50184371049218579 3 -1.2558716426782683
v 0.50184371049218579 0 -1.2558716426782683
v 0.49336289564809005 3 1.0634087668703744
v 0.49336289564808999 0 1.0634087668703744
v 0.4805867349813932 3 -1.0692434439448122
v 0.48058673498139326 0 -1.0692434439448122
v 0.48026941570469711 3 -1.0492459613913345
v 0.48026941570469717 0 -1.0492459613913345
v 0.47845760665457499 3 1.0500733868600487
v 0.47845760665457493 0 1.0500733868600487
v 0.25679767713622437 3 1.3278236500610376
v 0.25679767713622437 0 1.3278236500610376
v 0.24189238814270927 3 1.3144882700507119
v 0.24189238814270927 0 1.3144882700507119
v 0.17378136095846269 3 1.1593296299338089
v 0.17378136095846269 0 1.1593296299338092
v 0.16520838235227259 3 -1.1420516580075974
v 0.16520838235227253 0 -1.1420516580075974
v 0.16323685160625262 3 1.1423351213348187
v 0.16323685160625265 0 1.1423351213348187
v 0.15987890607847188 3 -1.1613285011787964
v 0.15987890607847183 0 -1.1613285011787964
v 0.13824009446569557 3 -1.3293912200042586
v 0.13824009446569552 0 -1.3293912200042586
v 0.12769558511348553 3 -1.346385728603249
v 0.12769558511348553 0 -1.346385728603249
v -0.12769558511348425 3 1.346385728603249
v -0.12769558511348425 0 1.346385728603249
v -0.13824009446569432 3 1.3293912200042588
v -0.1382400944656943 0 1.3293912200042588
v -0.15987890607847066 3 1.1613285011787966
v -0.15987890607847066 0 1.1613285011787966
v -0.16323685160625145 3 -1.142335121334819
v -0.16323685160625148 0 -1.142335121334819
v -0.16520838235227137 3 1.1420516580075977
v -0.16520838235227137 0 1.1420516580075977
v -0.1737813609584615 3 -1.1593296299338092
v -0.17378136095846147 0 -1.1593296299338092
v -0.24189238814270814 3 -1.3144882700507121
v -0.24189238814270819 0 -1.3144882700507121
v -0.2567976771362232 3 -1.3278236500610379
v -0.25679767713622326 0 -1.3278236500610379
v -0.47845760665457432 3 -1.0500733868600489
v -0.47845760665457426 0 -1.0500733868600489
v -0.48026941570469606 3 1.0492459613913352
v -0.48026941570469611 0 1.0492459613913352
v -0.48058673498139215 3 1.0692434439448124
v -0.48058673498139221 0 1.0692434439448124
v -0.49336289564808938 3 -1.0634087668703747
v -0.49336289564808933 0 -1.0634087668703747
v -0.50184371049218457 3 1.255871642678269
v -0.50184371049218457 0 1.255871642678269
v -0.50717318676598533 3 1.2365947995070701
v -0.50717318676598533 0 1.2365947995070701
v -0.60242818805321396 3 -1.1930932980204096
v -0.60242818805321396 0 -1.1930932980204096
v -0.62048671881894624 3 -1.2016891962621929
v -0.62048671881894624 0 -1.2016891962621929
v -0.75491657190869421 3 -0.87274095160877097
v -0.75491657190869421 0 -0.87274095160877097
v -0.75642187726892107 3 0.87143659708915044
v -0.75642187726892107 0 0.87143659708915044
v -0.76236028477548645 3 0.890534641918032
v -0.76236028477548645 0 0.890534641918032
v -0.77297510267442648 3 -0.88133684985055427
v -0.77297510267442648 0 -0.88133684985055427
v -0.83501812374957796 3 1.0436168226662652
v -0.83501812374957796 0 1.0436168226662652
v -0.83533544302627405 3 1.0636143052197424
v -0.83533544302627405 0 1.0636143052197424
v -0.91415883894603589 3 -0.97504100258354853
v -0.91415883894603589 0 -0.97504100258354853
v -0.93390761671956379 3 -0.97820103050301555
v -0.93390761671956379 0 -0.97820103050301555
v -0.97021668616849699 3 -0.62470423484844195
v -0.97021668616849699 0 -0.62470423484844195
v -0.97129353695093879 3 0.62302862232380019
v -0.97129353695093879 0 0.62302862232380019
v -0.98237193822826097 3 0.63968001941649555
v -0.98237193822826097 0 0.63968001941649566
v -0.98996546394202489 3 -0.62786426276790896
v -0.98996546394202489 0 -0.62786426276790896
v -1.0952148583909769 3 0.76609121748126607
v -1.0952148583909769 0 0.76609121748126607
v -1.1011532658975423 3 0.78518926231014752
v -1.1011532658975423 0 0.78518926231014752
v -1.1069156146157355 3 -0.326057696239831
v -1.1069156146157355 0 -0.326057696239831
v -1.107476770774277 3 0.32414657387166235
v -1.107476770774277 0 0.32414657387166235
v -1.1227976596366565 3 0.33700232606539304
v -1.1227976596366565 0 0.33700232606539304
v -1.1267547108723512 3 -0.32352584716835608
v -1.1267547108723512 0 -0.32352584716835603
v -1.1518297774194028 3 -0.67799668390949019
v -1.1518297774194028 0 -0.67799668390949019
v -1.1539388230474448 3 -0.00099590222165446551
v -1.1539388230474448 0 -0.00099590222165443776
v -1.1716688736760186 3 -0.67546483483801523
v -1.1716688736760186 0 -0.67546483483801523
v -1.1722609921960863 3 0.0070227084864778466
v -1.1722609921960863 0 0.0070227084864778466
v -1.2666837986991 3 0.42650145797583605
v -1.2666837986991002 0 0.42650145797583605
v -1.2777621999764222 3 0.44315285506853141
v -1.2777621999764222 0 0.44315285506853153
v -1.2961863175216985 3 -0.32602510610662216
v -1.2961863175216985 0 -0.32602510610662216
v -1.31450848667034 3 -0.3180064953984898
v -1.31450848667034 0 -0.31800649539848985
v -1.3355335508952368 3 0.052359086847040465
v -1.3355335508952368 0 0.052359086847040437
v -1.3508544397576163 3 0.065214839040771189
v -1.3508544397576163 0 0.065214839040771189
vn 0.99619472026824951 0 0.087155722081661224
vn 0.99619472026824951 0 0.087155722081661224
vn -0.087155722081661224 0 0.99619472026824951
vn -0.087155722081661224 0 0.99619472026824951
vn 0.93128722906112671 0 0.36428579688072205
vn 0.93128722906112671 0 0.36428579688072205
vn -0.36428579688072205 0 0.93128722906112671
vn -0.36428579688072205 0 0.93128722906112671
vn 0.98039644956588745 0 -0.19703513383865356
vn 0.98039644956588745 0 -0.19703513383865356
vn 0.19703513383865356 0 0.98039644956588745
vn 0.19703513383865356 0 0.98039644956588745
vn 0.36428579688072205 0 -0.93128722906112671
vn 0.36428579688072205 0 -0.93128722906112671
vn 0.79093235731124878 0 0.6119036078453064
vn 0.79093235731124878 0 0.6119036078453064
vn -0.93128722906112671 0 -0.36428579688072205
vn -0.93128722906112671 0 -0.36428579688072205
vn -0.6119036078453064 0 0.79093235731124878
vn -0.6119036078453064 0 0.79093235731124878
vn 0.6119036078453064 0 -0.79093235731124878
vn 0.6119036078453064 0 -0.79093235731124878
vn 0.087155722081661224 0 -0.99619472026824951
vn 0.087155722081661224 0 -0.99619472026824951
vn -0.99619472026824951 0 -0.087155722081661224
vn -0.99619472026824951 0 -0.087155722081661224
vn -0.79093235731124878 0 -0.6119036078453064
vn -0.79093235731124878 0 -0.6119036078453064
vn 0.88517224788665771 0 -0.46526345610618591
vn 0.88517224788665771 0 -0.46526345610618591
vn 0.46526345610618591 0 0.88517224788665771
vn 0.46526345610618591 0 0.88517224788665771
vn 0.8099486231803894 0 -0.58650088310241699
vn 0.8099486231803894 0 -0.58650088310241699
vn -0.19703513383865356 0 -0.98039644956588745
vn -0.19703513383865356 0 -0.98039644956588745
vn -0.98039644956588745 0 0.19703513383865356
vn -0.98039644956588745 0 0.19703513383865356
vn -0.58650088310241699 0 -0.8099486231803894
vn -0.58650088310241699 0 -0.8099486231803894
vn 0.58650088310241699 0 0.8099486231803894
vn 0.58650088310241699 0 0.8099486231803894
vn -0.8099486231803894 0 0.58650088310241699
vn -0.8099486231803894 0 0.58650088310241699
vn 0.71823668479919434 0 -0.69579887390136719
vn 0.71823668479919434 0 -0.69579887390136719
vn 0.69579887390136719 0 0.71823668479919434
vn 0.69579887390136719 0 0.71823668479919434
vn 0.94237637519836426 0 -0.33455458283424377
vn 0.94237637519836426 0 -0.33455458283424377
vn -0.46526345610618591 0 -0.88517224788665771
vn -0.46526345610618591 0 -0.88517224788665771
vn -0.88517224788665771 0 0.46526345610618591
vn -0.88517224788665771 0 0.46526345610618591
vn -0.33455458283424377 0 -0.94237637519836426
vn -0.33455458283424377 0 -0.94237637519836426
vn 0.33455458283424377 0 0.94237637519836426
vn 0.33455458283424377 0 0.94237637519836426
vn -0.94237637519836426 0 0.33455458283424377
vn -0.94237637519836426 0 0.33455458283424377
vn 0.86996471881866455 0 0.4931139349937439
vn 0.86996471881866455 0 0.4931139349937439
vn 0.4931139349937439 0 -0.86996471881866455
vn 0.4931139349937439 0 -0.86996471881866455
vn 0.99845844507217407 0 -0.055504657328128815
vn 0.99845844507217407 0 -0.055504657328128815
vn -0.69579887390136719 0 -0.71823668479919434
vn -0.69579887390136719 0 -0.71823668479919434
vn -0.71823668479919434 0 0.69579887390136719
vn -0.71823668479919434 0 0.69579887390136719
vn -0.055504657328128815 0 -0.99845844507217407
vn -0.055504657328128815 0 -0.99845844507217407
vn 0.055504657328128815 0 0.99845844507217407
vn 0.055504657328128815 0 0.99845844507217407
vn -0.99845844507217407 0 0.055504657328128815
vn -0.99845844507217407 0 0.055504657328128815
vn 0.97365134954452515 0 0.228041872382164
vn 0.97365134954452515 0 0.228041872382164
vn -0.4931139349937439 0 0.86996471881866455
vn -0.4931139349937439 0 0.86996471881866455
vn 0.228041872382164 0 -0.97365134954452515
vn 0.228041872382164 0 -0.97365134954452515
vn -0.86996471881866455 0 -0.4931139349937439
vn -0.86996471881866455 0 -0.4931139349937439
vn 0.97365134954452515 0 0.228041872382164
vn 0.97365134954452515 0 0.228041872382164
vn 0.228041872382164 0 -0.97365134954452515
vn 0.228041872382164 0 -0.97365134954452515
vn -0.228041872382164 0 0.97365134954452515
vn -0.228041872382164 0 0.97365134954452515
vn -0.97365134954452515 0 -0.228041872382164
vn -0.97365134954452515 0 -0.228041872382164
vn 0.86996471881866455 0 0.4931139349937439
vn 0.86996471881866455 0 0.4931139349937439
vn -0.228041872382164 0 0.97365134954452515
vn -0.228041872382164 0 0.97365134954452515
vn 0.4931139349937439 0 -0.86996471881866455
vn 0.4931139349937439 0 -0.86996471881866455
vn -0.97365134954452515 0 -0.228041872382164
vn -0.97365134954452515 0 -0.228041872382164
vn 0.99845844507217407 0 -0.055504657328128815
vn 0.99845844507217407 0 -0.055504657328128815
vn -0.055504657328128815 0 -0.99845844507217407
vn -0.055504657328128815 0 -0.99845844507217407
vn 0.055504657328128815 0 0.99845844507217407
vn 0.055504657328128815 0 0.99845844507217407
vn 0.71823668479919434 0 -0.69579887390136719
vn 0.71823668479919434 0 -0.69579887390136719
vn 0.69579887390136719 0 0.71823668479919434
vn 0.69579887390136719 0 0.71823668479919434
vn -0.99845844507217407 0 0.055504657328128815
vn -0.99845844507217407 0 0.055504657328128815
vn -0.4931139349937439 0 0.86996471881866455
vn -0.4931139349937439 0 0.86996471881866455
vn -0.86996471881866455 0 -0.4931139349937439
vn -0.86996471881866455 0 -0.4931139349937439
vn 0.94237637519836426 0 -0.33455458283424377
vn 0.94237637519836426 0 -0.33455458283424377
vn -0.33455458283424377 0 -0.94237637519836426
vn -0.33455458283424377 0 -0.94237637519836426
vn 0.33455458283424377 0 0.94237637519836426
vn 0.33455458283424377 0 0.94237637519836426
vn 0.88517224788665771 0 -0.46526345610618591
vn 0.88517224788665771 0 -0.46526345610618591
vn 0.46526345610618591 0 0.88517224788665771
vn 0.46526345610618591 0 0.88517224788665771
vn -0.94237637519836426 0 0.33455458283424377
vn -0.94237637519836426 0 0.33455458283424377
vn -0.69579887390136719 0 -0.71823668479919434
vn -0.69579887390136719 0 -0.71823668479919434
vn -0.71823668479919434 0 0.69579887390136719
vn -0.71823668479919434 0 0.69579887390136719
vn 0.8099486231803894 0 -0.58650088310241699
vn 0.8099486231803894 0 -0.58650088310241699
vn -0.58650088310241699 0 -0.8099486231803894
vn -0.58650088310241699 0 -0.8099486231803894
vn 0.58650088310241699 0 0.8099486231803894
vn 0.58650088310241699 0 0.8099486231803894
vn 0.98039644956588745 0 -0.19703513383865356
vn 0.98039644956588745 0 -0.19703513383865356
vn 0.19703513383865356 0 0.98039644956588745
vn 0.19703513383865356 0 0.98039644956588745
vn -0.8099486231803894 0 0.58650088310241699
vn -0.8099486231803894 0 0.58650088310241699
vn -0.46526345610618591 0 -0.88517224788665771
vn -0.46526345610618591 0 -0.88517224788665771
vn -0.88517224788665771 0 0.46526345610618591
vn -0.88517224788665771 0 0.46526345610618591
vn 0.79093235731124878 0 0.6119036078453064
vn 0.79093235731124878 0 0.6119036078453064
vn 0.99619472026824951 0 0.087155722081661224
vn 0.99619472026824951 0 0.087155722081661224
vn -0.087155722081661224 0 0.99619472026824951
vn -0.087155722081661224 0 0.99619472026824951
vn -0.6119036078453064 0 0.79093235731124878
vn -0.6119036078453064 0 0.79093235731124878
vn 0.6119036078453064 0 -0.79093235731124878
vn 0.6119036078453064 0 -0.79093235731124878
vn 0.93128722906112671 0 0.36428579688072205
vn 0.93128722906112671 0 0.36428579688072205
vn -0.79093235731124878 0 -0.6119036078453064
vn -0.79093235731124878 0 -0.6119036078453064
vn -0.36428579688072205 0 0.93128722906112671
vn -0.36428579688072205 0 0.93128722906112671
vn -0.19703513383865356 0 -0.98039644956588745
vn -0.19703513383865356 0 -0.98039644956588745
vn -0.98039644956588745 0 0.19703513383865356
vn -0.98039644956588745 0 0.19703513383865356
vn 0.36428579688072205 0 -0.93128722906112671
vn 0.36428579688072205 0 -0.93128722906112671
vn -0.93128722906112671 0 -0.36428579688072205
vn -0.93128722906112671 0 -0.36428579688072205
vn 0.087155722081661224 0 -0.99619472026824951
vn 0.087155722081661224 0 -0.99619472026824951
vn -0.99619472026824951 0 -0.087155722081661224
vn -0.99619472026824951 0 -0.087155722081661224
f 2//2 1//1 3//3 4//4
f 4//4 3//3 25//25 26//26
f 26//26 25//25 23//23 24//24
f 24//24 23//23 1//1 2//2
f 10//10 9//9 11//11 12//12
f 12//12 11//11 37//37 38//38
f 38//38 37//37 35//35 36//36
f 36//36 35//35 9//9 10//10
f 30//30 29//29 31//31 32//32
f 32//32 31//31 53//53 54//54
f 54//54 53//53 51//51 52//52
f 52//52 51//51 29//29 30//30
f 46//46 45//45 47//47 48//48
f 48//48 47//47 69//69 70//70
f 70//70 69//69 67//67 68//68
f 68//68 67//67 45//45 46//46
f 64//64 63//63 61//61 62//62
f 62//62 61//61 79//79 80//80
f 80//80 79//79 83//83 84//84
f 84//84 83//83 63//63 64//64
f 88//88 87//87 85//85 86//86
f 86//86 85//85 95//95 96//96
f 96//96 95//95 99//99 100//100
f 100//100 99//99 87//87 88//88
f 104//104 103//103 101//101 102//102
f 102//102 101//101 105//105 106//106
f 106//106 105//105 111//111 112//112
f 112//112 111//111 103//103 104//104
f 120//120 119//119 117//117 118//118
f 118//118 117//117 121//121 122//122
f 122//122 121//121 127//127 128//128
f 128//128 127//127 119//119 120//120
f 136//136 135//135 133//133 134//134
f 134//134 133//133 137//137 138//138
f 138//138 137//137 143//143 144//144
f 144//144 143//143 135//135 136//136
f 162//162 161//161 157//157 158//158
f 158//158 157//157 149//149 150//150
f 150//150 149//149 155//155 156//156
f 156//156 155//155 161//161 162//162
f 172//172 171//171 169//169 170//170
f 170//170 169//169 159//159 160//160
f 160//160 159//159 163//163 164//164
f 164//164 163//163 171//171 172//172
f 176//176 175//175 173//173 174//174
f 174//174 173//173 151//151 152//152
f 152//152 151//151 153//153 154//154
f 154//154 153//153 175//175 176//176
f 168//168 167//167 165//165 166//166
f 166//166 165//165 139//139 140//140
f 140//140 139//139 141//141 142//142
f 142//142 141//141 167//167 168//168
f 148//148 147//147 145//145 146//146
f 146//146 145//145 123//123 124//124
f 124//124 123//123 125//125 126//126
f 126//126 125//125 147//147 148//148
f 132//132 131//131 129//129 130//130
f 130//130 129//129 107//107 108//108
f 108//108 107//107 109//109 110//110
f 110//110 109//109 131//131 132//132
f 114//114 113//113 115//115 116//116
f 116//116 115//115 97//97 98//98
f 98//98 97//97 93//93 94//94
f 94//94 93//93 113//113 114//114
f 90//90 89//89 91//91 92//92
f 92//92 91//91 81//81 82//82
f 82//82 81//81 77//77 78//78
f 78//78 77//77 89//89 90//90
f 74//74 73//73 75//75 76//76
f 76//76 75//75 71//71 72//72
f 72//72 71//71 65//65 66//66
f 66//66 65//65 73//73 74//74
f 58//58 57//57 59//59 60//60
f 60//60 59//59 55//55 56//56
f 56//56 55//55 49//49 50//50
f 50//50 49//49 57//57 58//58
f 42//42 41//41 43//43 44//44
f 44//44 43//43 39//39 40//40
f 40//40 39//39 33//33 34//34
f 34//34 33//33 41//41 42//42
f 16//16 15//15 19//19 20//20
f 20//20 19//19 27//27 28//28
f 28//28 27//27 21//21 22//22
f 22//22 21//21 15//15 16//16
f 6//6 5//5 7//7 8//8
f 8//8 7//7 17//17 18//18
f 18//18 17//17 13//13 14//14
f 14//14 13//13 5//5 6//6
