# Rhino

mtllib Frangisole41.mtl
usemtl diffuse_Black
v 1.3714872248751229 3 -0.088312760826926406
v 1.3714872248751229 0 -0.08831276082692642
v 1.3586314726813922 3 -0.072991871964547012
v 1.3586314726813922 0 -0.072991871964547025
v 1.3408129355792227 3 0.30165712904548947
v 1.3408129355792227 0 0.30165712904548941
v 1.3241615384865275 3 0.31273553032281154
v 1.3241615384865275 0 0.31273553032281154
v 1.2910517757602307 3 -0.47112807603335877
v 1.2910517757602307 0 -0.47112807603335871
v 1.2830331650520985 3 -0.45280590688471761
v 1.2830331650520985 0 -0.45280590688471756
v 1.2015139563642612 3 0.66718855234666619
v 1.2015139563642612 0 0.66718855234666619
v 1.1824159115353798 3 0.67312695985323157
v 1.1824159115353798 0 0.67312695985323157
v 1.1442857712312577 3 0.0062668672973284212
v 1.1442857712312577 0 0.0062668672973284212
v 1.1276343741385626 3 0.017345268574650491
v 1.1276343741385626 0 0.017345268574650546
v 1.1060229899537997 3 -0.8157753964261224
v 1.1060229899537997 0 -0.8157753964261224
v 1.1034911408823247 3 -0.79593630016950667
v 1.1034911408823247 0 -0.79593630016950667
v 1.0996997378505009 3 -0.31636954094788661
v 1.0996997378505009 0 -0.31636954094788655
v 1.0961685767563758 3 0.32839557122461044
v 1.0961685767563758 0 0.32839557122461049
v 1.0868439856567702 3 -0.30104865208550718
v 1.0868439856567702 0 -0.30104865208550718
v 1.0770705319274945 3 0.33433397873117587
v 1.0770705319274945 0 0.33433397873117587
v 0.96602257187526286 3 -0.61337557050761271
v 0.96602257187526286 0 -0.61337557050761271
v 0.96487546208330544 3 0.97866832705982043
v 0.96487546208330544 0 0.97866832705982043
v 0.95924632335823479 3 0.62391961901493853
v 0.95924632335823479 0 0.62391961901493853
v 0.95800396116713071 3 -0.59505340135897145
v 0.95800396116713071 0 -0.59505340135897145
v 0.9448779795298281 3 0.97898564633651652
v 0.9448779795298281 0 0.97898564633651652
v 0.93924884080475746 3 0.62423693829163462
v 0.93924884080475746 0 0.62423693829163462
v 0.83455082719277296 3 -1.0745846680300046
v 0.83455082719277296 0 -1.0745846680300046
v 0.83139079927330606 3 -1.0943334458035323
v 0.83139079927330606 0 -1.0943334458035323
v 0.75408400228414019 3 -0.86068955922978974
v 0.75408400228414019 0 -0.86068955922978974
v 0.75155215321266522 3 -0.84085046297317401
v 0.75155215321266522 0 -0.84085046297317401
v 0.74461163769915717 3 0.86889740986552366
v 0.74461163769915717 0 0.86889740986552366
v 0.72533479452795846 3 0.86356793359172312
v 0.72533479452795846 0 0.86356793359172312
v 0.65006849619968532 3 1.210862214279238
v 0.65006849619968532 0 1.210862214279238
v 0.63079165302848661 3 1.2055327380054375
v 0.63079165302848661 0 1.2055327380054375
v 0.49800016874894026 3 -1.266176576887807
v 0.49800016874894026 0 -1.266176576887807
v 0.48940427050715696 3 -1.2842351076535392
v 0.48940427050715696 0 -1.2842351076535392
v 0.48421405945766616 3 -1.0185268208075435
v 0.4842140594576661 0 -1.0185268208075435
v 0.48105403153819926 3 -1.0382755985810712
v 0.4810540315381992 0 -1.0382755985810712
v 0.46965294552961462 3 1.0434823001006743
v 0.46965294552961462 0 1.0434823001006743
v 0.45265843693062457 3 1.0329377907484645
v 0.45265843693062446 0 1.0329377907484645
v 0.28259684686017478 3 1.3449592461726216
v 0.28259684686017483 0 1.3449592461726216
v 0.26560233826118473 3 1.334414736820412
v 0.26560233826118468 0 1.334414736820412
v 0.17764782233730117 3 -1.1136881930323268
v 0.17764782233730117 0 -1.1136881930323268
v 0.16905192409551786 3 -1.131746723798059
v 0.16905192409551786 0 -1.131746723798059
v 0.15664576484687853 3 1.1335304602098584
v 0.15664576484687859 0 1.1335304602098584
v 0.1433103848365529 3 1.1186251712163435
v 0.14331038483655292 0 1.1186251712163435
v 0.12110449835411145 3 -1.3551903897282094
v 0.12110449835411143 0 -1.3551903897282094
v 0.10776911834378566 3 -1.3700956787217244
v 0.10776911834378569 0 -1.3700956787217244
v -0.10776911834378437 3 1.3700956787217244
v -0.10776911834378437 0 1.3700956787217244
v -0.12110449835411002 3 1.3551903897282096
v -0.12110449835411002 0 1.3551903897282096
v -0.14331038483655176 3 -1.1186251712163435
v -0.14331038483655179 0 -1.1186251712163435
v -0.15664576484687753 3 -1.1335304602098586
v -0.15664576484687753 0 -1.1335304602098586
v -0.16905192409551678 3 1.1317467237980592
v -0.16905192409551675 0 1.1317467237980592
v -0.17764782233730014 3 1.113688193032327
v -0.17764782233730012 0 1.113688193032327
v -0.26560233826118373 3 -1.334414736820412
v -0.26560233826118379 0 -1.334414736820412
v -0.28259684686017383 3 -1.3449592461726219
v -0.28259684686017389 0 -1.3449592461726219
v -0.45265843693062369 3 -1.0329377907484649
v -0.45265843693062369 0 -1.0329377907484649
v -0.46965294552961379 3 -1.0434823001006748
v -0.46965294552961379 0 -1.0434823001006748
v -0.48105403153819792 3 1.0382755985810719
v -0.48105403153819798 0 1.0382755985810719
v -0.48421405945766494 3 1.0185268208075442
v -0.48421405945766499 0 1.0185268208075442
v -0.48940427050715563 3 1.2842351076535397
v -0.48940427050715563 0 1.2842351076535397
v -0.49800016874893904 3 1.2661765768878075
v -0.49800016874893904 0 1.2661765768878075
v -0.63079165302848472 3 -1.2055327380054386
v -0.63079165302848472 0 -1.2055327380054386
v -0.65006849619968321 3 -1.2108622142792391
v -0.65006849619968332 0 -1.2108622142792391
v -0.72533479452795713 3 -0.86356793359172435
v -0.72533479452795713 0 -0.86356793359172435
v -0.74461163769915562 3 -0.86889740986552488
v -0.74461163769915573 0 -0.86889740986552488
v -0.75155215321266433 3 0.84085046297317478
v -0.75155215321266433 0 0.84085046297317478
v -0.7540840022841393 3 0.8606895592297904
v -0.7540840022841393 0 0.8606895592297904
v -0.83139079927330495 3 1.0943334458035334
v -0.83139079927330495 0 1.0943334458035334
v -0.83455082719277196 3 1.0745846680300057
v -0.83455082719277196 0 1.0745846680300057
v -0.93924884080475668 3 -0.62423693829163551
v -0.93924884080475668 0 -0.62423693829163551
v -0.94487797952982688 3 -0.97898564633651763
v -0.94487797952982688 0 -0.97898564633651763
v -0.95800396116713027 3 0.59505340135897211
v -0.95800396116713027 0 0.59505340135897211
v -0.95924632335823401 3 -0.62391961901493942
v -0.95924632335823401 0 -0.62391961901493942
v -0.96487546208330421 3 -0.97866832705982154
v -0.96487546208330421 0 -0.97866832705982154
v -0.96602257187526241 3 0.61337557050761338
v -0.96602257187526241 0 0.61337557050761338
v -1.077070531927494 3 -0.33433397873117787
v -1.077070531927494 0 -0.33433397873117787
v -1.0868439856567702 3 0.30104865208550713
v -1.0868439856567702 0 0.30104865208550718
v -1.0961685767563754 3 -0.32839557122461238
v -1.0961685767563754 0 -0.32839557122461238
v -1.0996997378505009 3 0.31636954094788661
v -1.0996997378505009 0 0.31636954094788661
v -1.1034911408823238 3 0.79593630016950767
v -1.1034911408823238 0 0.79593630016950767
v -1.1060229899537988 3 0.81577539642612329
v -1.1060229899537988 0 0.81577539642612329
v -1.1276343741385626 3 -0.017345268574652573
v -1.1276343741385626 0 -0.017345268574652517
v -1.144285771231258 3 -0.0062668672973304196
v -1.144285771231258 0 -0.0062668672973304196
v -1.1824159115353787 3 -0.67312695985323356
v -1.1824159115353787 0 -0.67312695985323368
v -1.2015139563642601 3 -0.66718855234666807
v -1.2015139563642601 0 -0.66718855234666807
v -1.2830331650520983 3 0.45280590688471828
v -1.2830331650520983 0 0.45280590688471822
v -1.2910517757602304 3 0.47112807603335954
v -1.2910517757602304 0 0.4711280760333596
v -1.3241615384865268 3 -0.31273553032281376
v -1.3241615384865268 0 -0.3127355303228137
v -1.3408129355792222 3 -0.30165712904549158
v -1.3408129355792222 0 -0.30165712904549158
v -1.3586314726813922 3 0.072991871964547039
v -1.3586314726813922 0 0.072991871964547012
v -1.3714872248751229 3 0.088312760826926462
v -1.3714872248751229 0 0.088312760826926406
vn 0.99619472026824951 0 -0.087155722081661224
vn 0.99619472026824951 0 -0.087155722081661224
vn 0.087155722081661224 0 0.99619472026824951
vn 0.087155722081661224 0 0.99619472026824951
vn 0.98039644956588745 0 0.19703513383865356
vn 0.98039644956588745 0 0.19703513383865356
vn -0.19703513383865356 0 0.98039644956588745
vn -0.19703513383865356 0 0.98039644956588745
vn 0.93128722906112671 0 -0.36428579688072205
vn 0.93128722906112671 0 -0.36428579688072205
vn 0.36428579688072205 0 0.93128722906112671
vn 0.36428579688072205 0 0.93128722906112671
vn 0.88517224788665771 0 0.46526345610618591
vn 0.88517224788665771 0 0.46526345610618591
vn -0.46526345610618591 0 0.88517224788665771
vn -0.46526345610618591 0 0.88517224788665771
vn 0.19703513383865356 0 -0.98039644956588745
vn 0.19703513383865356 0 -0.98039644956588745
vn -0.98039644956588745 0 -0.19703513383865356
vn -0.98039644956588745 0 -0.19703513383865356
vn 0.79093235731124878 0 -0.6119036078453064
vn 0.79093235731124878 0 -0.6119036078453064
vn 0.6119036078453064 0 0.79093235731124878
vn 0.6119036078453064 0 0.79093235731124878
vn -0.087155722081661224 0 -0.99619472026824951
vn -0.087155722081661224 0 -0.99619472026824951
vn 0.46526345610618591 0 -0.88517224788665771
vn 0.46526345610618591 0 -0.88517224788665771
vn -0.99619472026824951 0 0.087155722081661224
vn -0.99619472026824951 0 0.087155722081661224
vn -0.88517224788665771 0 -0.46526345610618591
vn -0.88517224788665771 0 -0.46526345610618591
vn -0.36428579688072205 0 -0.93128722906112671
vn -0.36428579688072205 0 -0.93128722906112671
vn 0.71823668479919434 0 0.69579887390136719
vn 0.71823668479919434 0 0.69579887390136719
vn 0.69579887390136719 0 -0.71823668479919434
vn 0.69579887390136719 0 -0.71823668479919434
vn -0.93128722906112671 0 0.36428579688072205
vn -0.93128722906112671 0 0.36428579688072205
vn -0.69579887390136719 0 0.71823668479919434
vn -0.69579887390136719 0 0.71823668479919434
vn -0.71823668479919434 0 -0.69579887390136719
vn -0.71823668479919434 0 -0.69579887390136719
vn 0.8099486231803894 0 0.58650088310241699
vn 0.8099486231803894 0 0.58650088310241699
vn 0.58650088310241699 0 -0.8099486231803894
vn 0.58650088310241699 0 -0.8099486231803894
vn -0.6119036078453064 0 -0.79093235731124878
vn -0.6119036078453064 0 -0.79093235731124878
vn -0.79093235731124878 0 0.6119036078453064
vn -0.79093235731124878 0 0.6119036078453064
vn 0.86996471881866455 0 -0.4931139349937439
vn 0.86996471881866455 0 -0.4931139349937439
vn -0.4931139349937439 0 -0.86996471881866455
vn -0.4931139349937439 0 -0.86996471881866455
vn 0.4931139349937439 0 0.86996471881866455
vn 0.4931139349937439 0 0.86996471881866455
vn -0.86996471881866455 0 0.4931139349937439
vn -0.86996471881866455 0 0.4931139349937439
vn 0.94237637519836426 0 0.33455458283424377
vn 0.94237637519836426 0 0.33455458283424377
vn 0.33455458283424377 0 -0.94237637519836426
vn 0.33455458283424377 0 -0.94237637519836426
vn -0.58650088310241699 0 0.8099486231803894
vn -0.58650088310241699 0 0.8099486231803894
vn -0.8099486231803894 0 -0.58650088310241699
vn -0.8099486231803894 0 -0.58650088310241699
vn 0.97365134954452515 0 -0.228041872382164
vn 0.97365134954452515 0 -0.228041872382164
vn -0.228041872382164 0 -0.97365134954452515
vn -0.228041872382164 0 -0.97365134954452515
vn 0.228041872382164 0 0.97365134954452515
vn 0.228041872382164 0 0.97365134954452515
vn -0.97365134954452515 0 0.228041872382164
vn -0.97365134954452515 0 0.228041872382164
vn -0.33455458283424377 0 0.94237637519836426
vn -0.33455458283424377 0 0.94237637519836426
vn -0.94237637519836426 0 -0.33455458283424377
vn -0.94237637519836426 0 -0.33455458283424377
vn 0.99845844507217407 0 0.055504657328128815
vn 0.99845844507217407 0 0.055504657328128815
vn 0.055504657328128815 0 -0.99845844507217407
vn 0.055504657328128815 0 -0.99845844507217407
vn 0.99845844507217407 0 0.055504657328128815
vn 0.99845844507217407 0 0.055504657328128815
vn 0.055504657328128815 0 -0.99845844507217407
vn 0.055504657328128815 0 -0.99845844507217407
vn -0.055504657328128815 0 0.99845844507217407
vn -0.055504657328128815 0 0.99845844507217407
vn -0.99845844507217407 0 -0.055504657328128815
vn -0.99845844507217407 0 -0.055504657328128815
vn -0.055504657328128815 0 0.99845844507217407
vn -0.055504657328128815 0 0.99845844507217407
vn -0.99845844507217407 0 -0.055504657328128815
vn -0.99845844507217407 0 -0.055504657328128815
vn 0.94237637519836426 0 0.33455458283424377
vn 0.94237637519836426 0 0.33455458283424377
vn 0.33455458283424377 0 -0.94237637519836426
vn 0.33455458283424377 0 -0.94237637519836426
vn 0.97365134954452515 0 -0.228041872382164
vn 0.97365134954452515 0 -0.228041872382164
vn -0.228041872382164 0 -0.97365134954452515
vn -0.228041872382164 0 -0.97365134954452515
vn 0.228041872382164 0 0.97365134954452515
vn 0.228041872382164 0 0.97365134954452515
vn -0.97365134954452515 0 0.228041872382164
vn -0.97365134954452515 0 0.228041872382164
vn 0.8099486231803894 0 0.58650088310241699
vn 0.8099486231803894 0 0.58650088310241699
vn 0.58650088310241699 0 -0.8099486231803894
vn 0.58650088310241699 0 -0.8099486231803894
vn -0.33455458283424377 0 0.94237637519836426
vn -0.33455458283424377 0 0.94237637519836426
vn -0.94237637519836426 0 -0.33455458283424377
vn -0.94237637519836426 0 -0.33455458283424377
vn 0.86996471881866455 0 -0.4931139349937439
vn 0.86996471881866455 0 -0.4931139349937439
vn -0.4931139349937439 0 -0.86996471881866455
vn -0.4931139349937439 0 -0.86996471881866455
vn 0.4931139349937439 0 0.86996471881866455
vn 0.4931139349937439 0 0.86996471881866455
vn -0.86996471881866455 0 0.4931139349937439
vn -0.86996471881866455 0 0.4931139349937439
vn 0.79093235731124878 0 -0.6119036078453064
vn 0.79093235731124878 0 -0.6119036078453064
vn 0.6119036078453064 0 0.79093235731124878
vn 0.6119036078453064 0 0.79093235731124878
vn -0.58650088310241699 0 0.8099486231803894
vn -0.58650088310241699 0 0.8099486231803894
vn -0.8099486231803894 0 -0.58650088310241699
vn -0.8099486231803894 0 -0.58650088310241699
vn 0.71823668479919434 0 0.69579887390136719
vn 0.71823668479919434 0 0.69579887390136719
vn 0.69579887390136719 0 -0.71823668479919434
vn 0.69579887390136719 0 -0.71823668479919434
vn 0.93128722906112671 0 -0.36428579688072205
vn 0.93128722906112671 0 -0.36428579688072205
vn -0.69579887390136719 0 0.71823668479919434
vn -0.69579887390136719 0 0.71823668479919434
vn -0.71823668479919434 0 -0.69579887390136719
vn -0.71823668479919434 0 -0.69579887390136719
vn 0.36428579688072205 0 0.93128722906112671
vn 0.36428579688072205 0 0.93128722906112671
vn 0.88517224788665771 0 0.46526345610618591
vn 0.88517224788665771 0 0.46526345610618591
vn 0.99619472026824951 0 -0.087155722081661224
vn 0.99619472026824951 0 -0.087155722081661224
vn -0.46526345610618591 0 0.88517224788665771
vn -0.46526345610618591 0 0.88517224788665771
vn 0.087155722081661224 0 0.99619472026824951
vn 0.087155722081661224 0 0.99619472026824951
vn -0.6119036078453064 0 -0.79093235731124878
vn -0.6119036078453064 0 -0.79093235731124878
vn -0.79093235731124878 0 0.6119036078453064
vn -0.79093235731124878 0 0.6119036078453064
vn 0.98039644956588745 0 0.19703513383865356
vn 0.98039644956588745 0 0.19703513383865356
vn -0.19703513383865356 0 0.98039644956588745
vn -0.19703513383865356 0 0.98039644956588745
vn 0.46526345610618591 0 -0.88517224788665771
vn 0.46526345610618591 0 -0.88517224788665771
vn -0.88517224788665771 0 -0.46526345610618591
vn -0.88517224788665771 0 -0.46526345610618591
vn -0.36428579688072205 0 -0.93128722906112671
vn -0.36428579688072205 0 -0.93128722906112671
vn -0.93128722906112671 0 0.36428579688072205
vn -0.93128722906112671 0 0.36428579688072205
vn 0.19703513383865356 0 -0.98039644956588745
vn 0.19703513383865356 0 -0.98039644956588745
vn -0.98039644956588745 0 -0.19703513383865356
vn -0.98039644956588745 0 -0.19703513383865356
vn -0.087155722081661224 0 -0.99619472026824951
vn -0.087155722081661224 0 -0.99619472026824951
vn -0.99619472026824951 0 0.087155722081661224
vn -0.99619472026824951 0 0.087155722081661224
f 2//2 1//1 3//3 4//4
f 4//4 3//3 29//29 30//30
f 30//30 29//29 25//25 26//26
f 26//26 25//25 1//1 2//2
f 10//10 9//9 11//11 12//12
f 12//12 11//11 39//39 40//40
f 40//40 39//39 33//33 34//34
f 34//34 33//33 9//9 10//10
f 22//22 21//21 23//23 24//24
f 24//24 23//23 51//51 52//52
f 52//52 51//51 49//49 50//50
f 50//50 49//49 21//21 22//22
f 48//48 47//47 45//45 46//46
f 46//46 45//45 65//65 66//66
f 66//66 65//65 67//67 68//68
f 68//68 67//67 47//47 48//48
f 64//64 63//63 61//61 62//62
f 62//62 61//61 77//77 78//78
f 78//78 77//77 79//79 80//80
f 80//80 79//79 63//63 64//64
f 88//88 87//87 85//85 86//86
f 86//86 85//85 93//93 94//94
f 94//94 93//93 95//95 96//96
f 96//96 95//95 87//87 88//88
f 104//104 103//103 101//101 102//102
f 102//102 101//101 105//105 106//106
f 106//106 105//105 107//107 108//108
f 108//108 107//107 103//103 104//104
f 120//120 119//119 117//117 118//118
f 118//118 117//117 121//121 122//122
f 122//122 121//121 123//123 124//124
f 124//124 123//123 119//119 120//120
f 142//142 141//141 135//135 136//136
f 136//136 135//135 133//133 134//134
f 134//134 133//133 139//139 140//140
f 140//140 139//139 141//141 142//142
f 164//164 163//163 161//161 162//162
f 162//162 161//161 145//145 146//146
f 146//146 145//145 149//149 150//150
f 150//150 149//149 163//163 164//164
f 172//172 171//171 169//169 170//170
f 170//170 169//169 157//157 158//158
f 158//158 157//157 159//159 160//160
f 160//160 159//159 171//171 172//172
f 176//176 175//175 173//173 174//174
f 174//174 173//173 147//147 148//148
f 148//148 147//147 151//151 152//152
f 152//152 151//151 175//175 176//176
f 168//168 167//167 165//165 166//166
f 166//166 165//165 137//137 138//138
f 138//138 137//137 143//143 144//144
f 144//144 143//143 167//167 168//168
f 156//156 155//155 153//153 154//154
f 154//154 153//153 125//125 126//126
f 126//126 125//125 127//127 128//128
f 128//128 127//127 155//155 156//156
f 130//130 129//129 131//131 132//132
f 132//132 131//131 111//111 112//112
f 112//112 111//111 109//109 110//110
f 110//110 109//109 129//129 130//130
f 114//114 113//113 115//115 116//116
f 116//116 115//115 99//99 100//100
f 100//100 99//99 97//97 98//98
f 98//98 97//97 113//113 114//114
f 90//90 89//89 91//91 92//92
f 92//92 91//91 83//83 84//84
f 84//84 83//83 81//81 82//82
f 82//82 81//81 89//89 90//90
f 74//74 73//73 75//75 76//76
f 76//76 75//75 71//71 72//72
f 72//72 71//71 69//69 70//70
f 70//70 69//69 73//73 74//74
f 58//58 57//57 59//59 60//60
f 60//60 59//59 55//55 56//56
f 56//56 55//55 53//53 54//54
f 54//54 53//53 57//57 58//58
f 36//36 35//35 41//41 42//42
f 42//42 41//41 43//43 44//44
f 44//44 43//43 37//37 38//38
f 38//38 37//37 35//35 36//36
f 14//14 13//13 15//15 16//16
f 16//16 15//15 31//31 32//32
f 32//32 31//31 27//27 28//28
f 28//28 27//27 13//13 14//14
f 6//6 5//5 7//7 8//8
f 8//8 7//7 19//19 20//20
f 20//20 19//19 17//17 18//18
f 18//18 17//17 5//5 6//6
