# Rhino

mtllib Frangisole61.mtl
usemtl diffuse_Black
v 1.3992841610003757 3 -0.14340439359728793
v 1.3992841610003757 0 -0.1434043935972879
v 1.3924437581338622 3 -0.12461054118156981
v 1.3924437581338622 0 -0.12461054118156983
v 1.3830050070403768 3 0.25662839638430268
v 1.3830050070403768 0 0.25662839638430268
v 1.3711468484592839 3 0.27273380153492377
v 1.3711468484592839 0 0.27273380153492371
v 1.3022016340994589 3 -0.53181941246839604
v 1.3022016340994589 0 -0.53181941246839604
v 1.3009331557063275 3 -0.51185967893895845
v 1.3009331557063275 0 -0.51185967893895845
v 1.2546830124574444 3 0.63587067991867907
v 1.2546830124574444 0 0.63587067991867907
v 1.2387677756468278 3 0.64798287366143237
v 1.2387677756468278 0 0.64798287366143237
v 1.1040286859508501 3 -0.85764098965543667
v 1.1040286859508501 0 -0.85764098965543667
v 1.0996224752951194 3 -0.87714958539314469
v 1.0996224752951194 0 -0.87714958539314458
v 1.097300461258502 3 0.04626859608521601
v 1.097300461258502 0 0.046268596085216079
v 1.0854423026774092 3 0.062374001235837126
v 1.0854423026774092 0 0.062374001235837112
v 1.0658874523980313 3 -0.26475087173086409
v 1.0658874523980313 0 -0.26475087173086403
v 1.0590470495315178 3 -0.24595701931514594
v 1.0590470495315178 0 -0.24595701931514596
v 1.0398167126449283 3 0.3535396574164098
v 1.0398167126449283 0 0.3535396574164098
v 1.0247140620924005 3 0.96359850263458968
v 1.0247140620924005 0 0.96359850263458968
v 1.0239014758343117 3 0.36565185115916315
v 1.0239014758343117 0 0.3656518511591631
v 1.0060311048870985 3 0.97073622706642704
v 1.0060311048870985 0 0.97073622706642704
v 0.94812258122103443 3 -0.55432179845337204
v 0.94812258122103443 0 -0.55432179845337204
v 0.94685410282790305 3 -0.53436206492393445
v 0.94685410282790305 0 -0.53436206492393445
v 0.89809319800096499 3 0.63216903828502813
v 0.89809319800096499 0 0.63216903828502813
v 0.87941024079566288 3 0.63930676271686548
v 0.87941024079566288 0 0.63930676271686548
v 0.8176823779710467 3 -1.1339413279773922
v 0.8176823779710467 0 -1.1339413279773922
v 0.80795844324903743 3 -1.1514183155187878
v 0.80795844324903743 0 -1.1514183155187878
v 0.75795266787134574 3 -0.77947627400615216
v 0.75795266787134574 0 -0.77947627400615216
v 0.75354645721561497 3 -0.79898486974386018
v 0.75354645721561497 0 -0.79898486974386018
v 0.71172887262581219 3 1.2132613054079986
v 0.71172887262581219 0 1.2132613054079986
v 0.69179177710677342 3 1.2148463045451345
v 0.69179177710677342 0 1.2148463045451345
v 0.68361151362087091 3 0.85958384332582671
v 0.68361151362087091 0 0.85958384332582671
v 0.66367441810183214 3 0.86116884246296266
v 0.66367441810183214 0 0.86116884246296266
v 0.50764641548193468 3 -0.96144195109228892
v 0.50764641548193468 0 -0.96144195109228892
v 0.4979224807599254 3 -0.97891893863368451
v 0.4979224807599254 0 -0.97891893863368451
v 0.46509230667237628 3 -1.3183764837153635
v 0.46509230667237628 0 -1.3183764837153635
v 0.45083842324479922 3 -1.3324059814694897
v 0.45083842324479922 0 -1.3324059814694897
v 0.41374769000142803 3 1.0173602775223241
v 0.41374769000142803 0 1.0173602775223241
v 0.3941716410771326 3 1.0132641441610202
v 0.3941716410771326 0 1.0132641441610202
v 0.34108364271366703 3 1.3646328927600664
v 0.34108364271366703 0 1.3646328927600664
v 0.3215075937893716 3 1.3605367593987625
v 0.3215075937893716 0 1.3605367593987625
v 0.2162136695996589 3 -1.0655173192163767
v 0.2162136695996589 0 -1.0655173192163767
v 0.20195978617208185 3 -1.0795468169705029
v 0.20195978617208185 0 -1.0795468169705029
v 0.11036448919032886 3 1.0927162325085022
v 0.11036448919032885 0 1.0927162325085022
v 0.092735421921377334 3 1.0832708110130487
v 0.092735421921377334 0 1.0832708110130487
v 0.074823222697561503 3 -1.3960046174295659
v 0.074823222697561503 0 -1.3960046174295659
v 0.05719415542860995 3 -1.4054500389250195
v 0.057194155428609929 0 -1.4054500389250195
v -0.05719415542860859 3 1.4054500389250195
v -0.057194155428608597 0 1.4054500389250195
v -0.074823222697560116 3 1.3960046174295659
v -0.074823222697560102 0 1.3960046174295659
v -0.092735421921376224 3 -1.0832708110130489
v -0.09273542192137621 0 -1.0832708110130489
v -0.11036448919032778 3 -1.0927162325085025
v -0.11036448919032776 0 -1.0927162325085025
v -0.20195978617208071 3 1.0795468169705034
v -0.20195978617208069 0 1.0795468169705034
v -0.21621366959965788 3 1.0655173192163769
v -0.2162136695996579 0 1.0655173192163769
v -0.32150759378937066 3 -1.3605367593987627
v -0.32150759378937066 0 -1.3605367593987627
v -0.34108364271366609 3 -1.3646328927600666
v -0.34108364271366609 0 -1.3646328927600666
v -0.39417164107713187 3 -1.0132641441610204
v -0.39417164107713187 0 -1.0132641441610204
v -0.4137476900014273 3 -1.0173602775223243
v -0.4137476900014273 0 -1.0173602775223243
v -0.45083842324479778 3 1.3324059814694904
v -0.45083842324479773 0 1.3324059814694902
v -0.46509230667237494 3 1.318376483715364
v -0.46509230667237494 0 1.318376483715364
v -0.49792248075992451 3 0.97891893863368495
v -0.49792248075992451 0 0.97891893863368495
v -0.50764641548193379 3 0.96144195109228936
v -0.50764641548193379 0 0.96144195109228936
v -0.66367441810183081 3 -0.86116884246296399
v -0.66367441810183081 0 -0.86116884246296388
v -0.68361151362086947 3 -0.85958384332582805
v -0.68361151362086947 0 -0.85958384332582793
v -0.69179177710677142 3 -1.2148463045451359
v -0.69179177710677142 0 -1.2148463045451359
v -0.71172887262581008 3 -1.2132613054079999
v -0.71172887262581008 0 -1.2132613054079999
v -0.7535464572156142 3 0.79898486974386085
v -0.7535464572156142 0 0.79898486974386085
v -0.75795266787134497 3 0.77947627400615294
v -0.75795266787134497 0 0.77947627400615294
v -0.80795844324903632 3 1.1514183155187887
v -0.80795844324903632 0 1.1514183155187887
v -0.81768237797104559 3 1.1339413279773931
v -0.81768237797104559 0 1.1339413279773931
v -0.87941024079566199 3 -0.63930676271686659
v -0.87941024079566199 0 -0.63930676271686659
v -0.8980931980009641 3 -0.63216903828502924
v -0.8980931980009641 0 -0.63216903828502924
v -0.94685410282790272 3 0.53436206492393523
v -0.94685410282790272 0 0.53436206492393523
v -0.9481225812210341 3 0.5543217984533727
v -0.9481225812210341 0 0.5543217984533727
v -1.0060311048870971 3 -0.97073622706642815
v -1.0060311048870971 0 -0.97073622706642815
v -1.0239014758343115 3 -0.36565185115916482
v -1.0239014758343115 0 -0.36565185115916482
v -1.0247140620923991 3 -0.96359850263459079
v -1.0247140620923991 0 -0.96359850263459079
v -1.0398167126449278 3 -0.35353965741641158
v -1.0398167126449278 0 -0.35353965741641158
v -1.0590470495315178 3 0.24595701931514594
v -1.0590470495315178 0 0.24595701931514596
v -1.0658874523980313 3 0.26475087173086409
v -1.0658874523980313 0 0.26475087173086403
v -1.0854423026774089 3 -0.062374001235838999
v -1.0854423026774089 0 -0.062374001235838972
v -1.0973004612585018 3 -0.046268596085217856
v -1.0973004612585018 0 -0.046268596085217883
v -1.0996224752951183 3 0.87714958539314569
v -1.0996224752951183 0 0.87714958539314569
v -1.104028685950849 3 0.85764098965543778
v -1.104028685950849 0 0.85764098965543778
v -1.2387677756468272 3 -0.64798287366143448
v -1.2387677756468269 0 -0.64798287366143448
v -1.2546830124574435 3 -0.63587067991868118
v -1.2546830124574435 0 -0.63587067991868118
v -1.3009331557063273 3 0.51185967893895945
v -1.3009331557063273 0 0.51185967893895945
v -1.3022016340994587 3 0.53181941246839692
v -1.3022016340994587 0 0.53181941246839692
v -1.3711468484592833 3 -0.2727338015349261
v -1.3711468484592833 0 -0.27273380153492605
v -1.3830050070403761 3 -0.2566283963843049
v -1.3830050070403761 0 -0.25662839638430496
v -1.3924437581338622 3 0.12461054118156981
v -1.3924437581338622 0 0.12461054118156983
v -1.3992841610003757 3 0.14340439359728793
v -1.3992841610003757 0 0.1434043935972879
vn 0.90630781650543213 0 -0.42261824011802673
vn 0.90630781650543213 0 -0.42261824011802673
vn 0.42261824011802673 0 0.90630781650543213
vn 0.42261824011802673 0 0.90630781650543213
vn 0.98866128921508789 0 -0.15016286075115204
vn 0.98866128921508789 0 -0.15016286075115204
vn 0.15016286075115204 0 0.98866128921508789
vn 0.15016286075115204 0 0.98866128921508789
vn 0.75053060054779053 0 -0.66083568334579468
vn 0.75053060054779053 0 -0.66083568334579468
vn 0.66083568334579468 0 0.75053060054779053
vn 0.66083568334579468 0 0.75053060054779053
vn 0.99091929197311401 0 0.13445785641670227
vn 0.99091929197311401 0 0.13445785641670227
vn -0.13445785641670227 0 0.99091929197311401
vn -0.13445785641670227 0 0.99091929197311401
vn 0.84551608562469482 0 0.53394991159439087
vn 0.84551608562469482 0 0.53394991159439087
vn 0.53394991159439087 0 -0.84551608562469482
vn 0.53394991159439087 0 -0.84551608562469482
vn -0.15016286075115204 0 -0.98866128921508789
vn -0.15016286075115204 0 -0.98866128921508789
vn -0.98866128921508789 0 0.15016286075115204
vn -0.98866128921508789 0 0.15016286075115204
vn -0.42261824011802673 0 -0.90630781650543213
vn -0.42261824011802673 0 -0.90630781650543213
vn -0.90630781650543213 0 0.42261824011802673
vn -0.90630781650543213 0 0.42261824011802673
vn 0.13445785641670227 0 -0.99091929197311401
vn 0.13445785641670227 0 -0.99091929197311401
vn 0.9128989577293396 0 0.40818563103675842
vn 0.9128989577293396 0 0.40818563103675842
vn -0.99091929197311401 0 -0.13445785641670227
vn -0.99091929197311401 0 -0.13445785641670227
vn -0.40818563103675842 0 0.9128989577293396
vn -0.40818563103675842 0 0.9128989577293396
vn -0.66083568334579468 0 -0.75053060054779053
vn -0.66083568334579468 0 -0.75053060054779053
vn -0.75053060054779053 0 0.66083568334579468
vn -0.75053060054779053 0 0.66083568334579468
vn 0.40818563103675842 0 -0.9128989577293396
vn 0.40818563103675842 0 -0.9128989577293396
vn -0.9128989577293396 0 -0.40818563103675842
vn -0.9128989577293396 0 -0.40818563103675842
vn 0.96169781684875488 0 0.27411180734634399
vn 0.96169781684875488 0 0.27411180734634399
vn 0.27411180734634399 0 -0.96169781684875488
vn 0.27411180734634399 0 -0.96169781684875488
vn -0.53394991159439087 0 0.84551608562469482
vn -0.53394991159439087 0 0.84551608562469482
vn -0.84551608562469482 0 -0.53394991159439087
vn -0.84551608562469482 0 -0.53394991159439087
vn 0.7609209418296814 0 0.64884459972381592
vn 0.7609209418296814 0 0.64884459972381592
vn -0.64884459972381592 0 0.7609209418296814
vn -0.64884459972381592 0 0.7609209418296814
vn 0.64884459972381592 0 -0.7609209418296814
vn 0.64884459972381592 0 -0.7609209418296814
vn -0.7609209418296814 0 -0.64884459972381592
vn -0.7609209418296814 0 -0.64884459972381592
vn -0.27411180734634399 0 0.96169781684875488
vn -0.27411180734634399 0 0.96169781684875488
vn -0.96169781684875488 0 -0.27411180734634399
vn -0.96169781684875488 0 -0.27411180734634399
vn 0.99996852874755859 0 -0.0079332171007990837
vn 0.99996852874755859 0 -0.0079332171007990837
vn -0.0079332171007990837 0 -0.99996852874755859
vn -0.0079332171007990837 0 -0.99996852874755859
vn 0.83693802356719971 0 -0.54729765653610229
vn 0.83693802356719971 0 -0.54729765653610229
vn -0.54729765653610229 0 -0.83693802356719971
vn -0.54729765653610229 0 -0.83693802356719971
vn 0.54729765653610229 0 0.83693802356719971
vn 0.54729765653610229 0 0.83693802356719971
vn -0.83693802356719971 0 0.54729765653610229
vn -0.83693802356719971 0 0.54729765653610229
vn 0.0079332171007990837 0 0.99996852874755859
vn 0.0079332171007990837 0 0.99996852874755859
vn -0.99996852874755859 0 0.0079332171007990837
vn -0.99996852874755859 0 0.0079332171007990837
vn 0.95722776651382446 0 -0.28933554887771606
vn 0.95722776651382446 0 -0.28933554887771606
vn -0.28933554887771606 0 -0.95722776651382446
vn -0.28933554887771606 0 -0.95722776651382446
vn 0.95722776651382446 0 -0.28933554887771606
vn 0.95722776651382446 0 -0.28933554887771606
vn -0.28933554887771606 0 -0.95722776651382446
vn -0.28933554887771606 0 -0.95722776651382446
vn 0.28933554887771606 0 0.95722776651382446
vn 0.28933554887771606 0 0.95722776651382446
vn -0.95722776651382446 0 0.28933554887771606
vn -0.95722776651382446 0 0.28933554887771606
vn 0.28933554887771606 0 0.95722776651382446
vn 0.28933554887771606 0 0.95722776651382446
vn -0.95722776651382446 0 0.28933554887771606
vn -0.95722776651382446 0 0.28933554887771606
vn 0.99996852874755859 0 -0.0079332171007990837
vn 0.99996852874755859 0 -0.0079332171007990837
vn -0.0079332171007990837 0 -0.99996852874755859
vn -0.0079332171007990837 0 -0.99996852874755859
vn 0.83693802356719971 0 -0.54729765653610229
vn 0.83693802356719971 0 -0.54729765653610229
vn -0.54729765653610229 0 -0.83693802356719971
vn -0.54729765653610229 0 -0.83693802356719971
vn 0.54729765653610229 0 0.83693802356719971
vn 0.54729765653610229 0 0.83693802356719971
vn -0.83693802356719971 0 0.54729765653610229
vn -0.83693802356719971 0 0.54729765653610229
vn 0.0079332171007990837 0 0.99996852874755859
vn 0.0079332171007990837 0 0.99996852874755859
vn -0.99996852874755859 0 0.0079332171007990837
vn -0.99996852874755859 0 0.0079332171007990837
vn 0.96169781684875488 0 0.27411180734634399
vn 0.96169781684875488 0 0.27411180734634399
vn 0.27411180734634399 0 -0.96169781684875488
vn 0.27411180734634399 0 -0.96169781684875488
vn 0.7609209418296814 0 0.64884459972381592
vn 0.7609209418296814 0 0.64884459972381592
vn -0.64884459972381592 0 0.7609209418296814
vn -0.64884459972381592 0 0.7609209418296814
vn 0.64884459972381592 0 -0.7609209418296814
vn 0.64884459972381592 0 -0.7609209418296814
vn -0.7609209418296814 0 -0.64884459972381592
vn -0.7609209418296814 0 -0.64884459972381592
vn 0.84551608562469482 0 0.53394991159439087
vn 0.84551608562469482 0 0.53394991159439087
vn 0.53394991159439087 0 -0.84551608562469482
vn 0.53394991159439087 0 -0.84551608562469482
vn -0.27411180734634399 0 0.96169781684875488
vn -0.27411180734634399 0 0.96169781684875488
vn -0.96169781684875488 0 -0.27411180734634399
vn -0.96169781684875488 0 -0.27411180734634399
vn 0.9128989577293396 0 0.40818563103675842
vn 0.9128989577293396 0 0.40818563103675842
vn -0.40818563103675842 0 0.9128989577293396
vn -0.40818563103675842 0 0.9128989577293396
vn 0.75053060054779053 0 -0.66083568334579468
vn 0.75053060054779053 0 -0.66083568334579468
vn 0.66083568334579468 0 0.75053060054779053
vn 0.66083568334579468 0 0.75053060054779053
vn 0.40818563103675842 0 -0.9128989577293396
vn 0.40818563103675842 0 -0.9128989577293396
vn 0.99091929197311401 0 0.13445785641670227
vn 0.99091929197311401 0 0.13445785641670227
vn -0.9128989577293396 0 -0.40818563103675842
vn -0.9128989577293396 0 -0.40818563103675842
vn -0.13445785641670227 0 0.99091929197311401
vn -0.13445785641670227 0 0.99091929197311401
vn 0.90630781650543213 0 -0.42261824011802673
vn 0.90630781650543213 0 -0.42261824011802673
vn 0.42261824011802673 0 0.90630781650543213
vn 0.42261824011802673 0 0.90630781650543213
vn 0.98866128921508789 0 -0.15016286075115204
vn 0.98866128921508789 0 -0.15016286075115204
vn 0.15016286075115204 0 0.98866128921508789
vn 0.15016286075115204 0 0.98866128921508789
vn -0.53394991159439087 0 0.84551608562469482
vn -0.53394991159439087 0 0.84551608562469482
vn -0.84551608562469482 0 -0.53394991159439087
vn -0.84551608562469482 0 -0.53394991159439087
vn 0.13445785641670227 0 -0.99091929197311401
vn 0.13445785641670227 0 -0.99091929197311401
vn -0.99091929197311401 0 -0.13445785641670227
vn -0.99091929197311401 0 -0.13445785641670227
vn -0.66083568334579468 0 -0.75053060054779053
vn -0.66083568334579468 0 -0.75053060054779053
vn -0.75053060054779053 0 0.66083568334579468
vn -0.75053060054779053 0 0.66083568334579468
vn -0.15016286075115204 0 -0.98866128921508789
vn -0.15016286075115204 0 -0.98866128921508789
vn -0.98866128921508789 0 0.15016286075115204
vn -0.98866128921508789 0 0.15016286075115204
vn -0.42261824011802673 0 -0.90630781650543213
vn -0.42261824011802673 0 -0.90630781650543213
vn -0.90630781650543213 0 0.42261824011802673
vn -0.90630781650543213 0 0.42261824011802673
f 2//2 1//1 3//3 4//4
f 4//4 3//3 27//27 28//28
f 28//28 27//27 25//25 26//26
f 26//26 25//25 1//1 2//2
f 10//10 9//9 11//11 12//12
f 12//12 11//11 39//39 40//40
f 40//40 39//39 37//37 38//38
f 38//38 37//37 9//9 10//10
f 20//20 19//19 17//17 18//18
f 18//18 17//17 49//49 50//50
f 50//50 49//49 51//51 52//52
f 52//52 51//51 19//19 20//20
f 48//48 47//47 45//45 46//46
f 46//46 45//45 61//61 62//62
f 62//62 61//61 63//63 64//64
f 64//64 63//63 47//47 48//48
f 68//68 67//67 65//65 66//66
f 66//66 65//65 77//77 78//78
f 78//78 77//77 79//79 80//80
f 80//80 79//79 67//67 68//68
f 88//88 87//87 85//85 86//86
f 86//86 85//85 93//93 94//94
f 94//94 93//93 95//95 96//96
f 96//96 95//95 87//87 88//88
f 104//104 103//103 101//101 102//102
f 102//102 101//101 105//105 106//106
f 106//106 105//105 107//107 108//108
f 108//108 107//107 103//103 104//104
f 124//124 123//123 121//121 122//122
f 122//122 121//121 117//117 118//118
f 118//118 117//117 119//119 120//120
f 120//120 119//119 123//123 124//124
f 146//146 145//145 141//141 142//142
f 142//142 141//141 133//133 134//134
f 134//134 133//133 135//135 136//136
f 136//136 135//135 145//145 146//146
f 164//164 163//163 161//161 162//162
f 162//162 161//161 143//143 144//144
f 144//144 143//143 147//147 148//148
f 148//148 147//147 163//163 164//164
f 172//172 171//171 169//169 170//170
f 170//170 169//169 153//153 154//154
f 154//154 153//153 155//155 156//156
f 156//156 155//155 171//171 172//172
f 176//176 175//175 173//173 174//174
f 174//174 173//173 149//149 150//150
f 150//150 149//149 151//151 152//152
f 152//152 151//151 175//175 176//176
f 168//168 167//167 165//165 166//166
f 166//166 165//165 137//137 138//138
f 138//138 137//137 139//139 140//140
f 140//140 139//139 167//167 168//168
f 158//158 157//157 159//159 160//160
f 160//160 159//159 127//127 128//128
f 128//128 127//127 125//125 126//126
f 126//126 125//125 157//157 158//158
f 130//130 129//129 131//131 132//132
f 132//132 131//131 115//115 116//116
f 116//116 115//115 113//113 114//114
f 114//114 113//113 129//129 130//130
f 110//110 109//109 111//111 112//112
f 112//112 111//111 99//99 100//100
f 100//100 99//99 97//97 98//98
f 98//98 97//97 109//109 110//110
f 90//90 89//89 91//91 92//92
f 92//92 91//91 83//83 84//84
f 84//84 83//83 81//81 82//82
f 82//82 81//81 89//89 90//90
f 74//74 73//73 75//75 76//76
f 76//76 75//75 71//71 72//72
f 72//72 71//71 69//69 70//70
f 70//70 69//69 73//73 74//74
f 54//54 53//53 55//55 56//56
f 56//56 55//55 59//59 60//60
f 60//60 59//59 57//57 58//58
f 58//58 57//57 53//53 54//54
f 32//32 31//31 35//35 36//36
f 36//36 35//35 43//43 44//44
f 44//44 43//43 41//41 42//42
f 42//42 41//41 31//31 32//32
f 14//14 13//13 15//15 16//16
f 16//16 15//15 33//33 34//34
f 34//34 33//33 29//29 30//30
f 30//30 29//29 13//13 14//14
f 6//6 5//5 7//7 8//8
f 8//8 7//7 23//23 24//24
f 24//24 23//23 21//21 22//22
f 22//22 21//21 5//5 6//6
