# Rhino

mtllib Frangisole32.mtl
usemtl diffuse_Black
v 1.3530953968965997 3 -0.067358320317888548
v 1.3530953968965997 0 -0.067358320317888548
v 1.3380012052921444 3 -0.054237139738078505
v 1.3380012052921444 0 -0.054237139738078505
v 1.3172625577601107 3 0.31658119075855728
v 1.3172625577601107 0 0.31658119075855728
v 1.2990831232197169 3 0.32491834613623444
v 1.2990831232197169 0 0.32491834613623438
v 1.2793084941447046 3 -0.44584086087753688
v 1.2793084941447046 0 -0.44584086087753694
v 1.2685223871113667 3 -0.42899865511150442
v 1.2685223871113667 0 -0.42899865511150448
v 1.1747129402559746 3 0.67487317654058376
v 1.1747129402559746 0 0.67487317654058376
v 1.1693641864980686 3 -0.0059159485160945879
v 1.1693641864980686 0 -0.0059159485160945047
v 1.1549210524488447 3 0.67775087997040073
v 1.1549210524488447 0 0.67775087997040073
v 1.1511847519576748 3 0.0024212068615825644
v 1.1511847519576748 0 0.0024212068615825921
v 1.1236634358429114 3 0.32377165110744133
v 1.1236634358429114 0 0.32377165110744133
v 1.1203300052397485 3 -0.33512427317435511
v 1.1203300052397485 0 -0.33512427317435511
v 1.1052358136352931 3 -0.32200309259454507
v 1.1052358136352931 0 -0.32200309259454507
v 1.1038715480357815 3 0.32664935453725841
v 1.1038715480357815 0 0.3266493545372583
v 1.1018796255377747 3 -0.78820402640658216
v 1.1018796255377747 0 -0.78820402640658205
v 1.096275429319947 3 -0.76900525080103677
v 1.096275429319947 0 -0.76900525080103677
v 0.98693015629952663 3 0.62722919710240421
v 0.98693015629952663 0 0.62722919710240421
v 0.98053334981599494 3 -0.63718282228082579
v 0.98053334981599494 0 -0.63718282228082579
v 0.969747242782657 3 -0.62034061651479333
v 0.969747242782657 0 -0.62034061651479333
v 0.96712923626890535 3 0.62441431416683846
v 0.96712923626890535 0 0.62441431416683857
v 0.93699506661915744 3 0.97849095118461649
v 0.93699506661915744 0 0.97849095118461638
v 0.91719414658853615 3 0.97567606824905062
v 0.91719414658853615 0 0.97567606824905073
v 0.83521475604604434 3 -1.046711614520994
v 0.83521475604604445 0 -1.046711614520994
v 0.83518302280023193 3 -1.0667115893460057
v 0.83518302280023204 0 -1.0667115893460057
v 0.77024166499239599 3 0.87987236382379719
v 0.7702416649923961 0 0.87987236382379708
v 0.76129971384651796 3 -0.88762060859825964
v 0.76129971384651796 0 -0.88762060859825964
v 0.75569551762869014 3 -0.86842183299271436
v 0.75569551762869014 0 -0.86842183299271436
v 0.75203586551855861 3 0.87159293959753492
v 0.75203586551855872 0 0.87159293959753481
v 0.62336742520908517 3 1.2028372082734262
v 0.62336742520908517 0 1.2028372082734262
v 0.60516162573524779 3 1.194557784047164
v 0.60516162573524779 0 1.194557784047164
v 0.50648995045070588 3 -1.2396196282661229
v 0.50648995045070577 0 -1.2396196282661229
v 0.50082485858010406 3 -1.258800523294709
v 0.50082485858010406 0 -1.258800523294709
v 0.49115277479114405 3 1.0612335044306198
v 0.49115277479114405 0 1.0612335044306198
v 0.48042183593074012 3 -1.0461486772650705
v 0.48042183593074006 0 -1.0461486772650705
v 0.48039010268492771 3 -1.0661486520900822
v 0.48039010268492766 0 -1.0661486520900822
v 0.4760170214734023 3 1.0481602886248411
v 0.4760170214734023 0 1.0481602886248411
v 0.25923826231739711 3 1.3297367482962448
v 0.25923826231739716 0 1.3297367482962448
v 0.24410250899965544 3 1.3166635324904661
v 0.24410250899965541 0 1.3166635324904661
v 0.17227360777433737 3 1.1566198179071412
v 0.17227360777433723 0 1.1566198179071412
v 0.1662272342643541 3 -1.1391227773911567
v 0.16622723426435407 0 -1.1391227773911567
v 0.16143410933070362 3 1.1398119247170218
v 0.1614341093307036 0 1.1398119247170218
v 0.16056214239375227 3 -1.1583036724197429
v 0.1605621423937523 0 -1.1583036724197429
v 0.13673234128156997 3 -1.3321010320309266
v 0.13673234128156991 0 -1.3321010320309266
v 0.12589284283793636 3 -1.3489089252210458
v 0.12589284283793631 0 -1.3489089252210458
v -0.12589284283793509 3 1.3489089252210462
v -0.12589284283793506 0 1.3489089252210462
v -0.13673234128156883 3 1.3321010320309268
v -0.13673234128156869 0 1.3321010320309268
v -0.16056214239375119 3 1.1583036724197431
v -0.16056214239375113 0 1.1583036724197431
v -0.16143410933070251 3 -1.139811924717022
v -0.16143410933070249 0 -1.139811924717022
v -0.16622723426435296 3 1.1391227773911572
v -0.16622723426435296 0 1.1391227773911572
v -0.17227360777433612 3 -1.1566198179071412
v -0.17227360777433609 0 -1.1566198179071412
v -0.24410250899965441 3 -1.3166635324904665
v -0.24410250899965444 0 -1.3166635324904665
v -0.25923826231739611 3 -1.3297367482962452
v -0.25923826231739622 0 -1.3297367482962452
v -0.47601702147340152 3 -1.0481602886248416
v -0.47601702147340147 0 -1.0481602886248416
v -0.4803901026849266 3 1.0661486520900827
v -0.48039010268492655 0 1.0661486520900827
v -0.48042183593073901 3 1.046148677265071
v -0.48042183593073895 0 1.046148677265071
v -0.49115277479114328 3 -1.0612335044306203
v -0.49115277479114322 0 -1.0612335044306203
v -0.50082485858010273 3 1.2588005232947095
v -0.50082485858010273 0 1.2588005232947095
v -0.50648995045070444 3 1.2396196282661236
v -0.50648995045070455 0 1.2396196282661236
v -0.60516162573524568 3 -1.1945577840471653
v -0.60516162573524568 0 -1.1945577840471653
v -0.62336742520908306 3 -1.2028372082734275
v -0.62336742520908306 0 -1.2028372082734275
v -0.75203586551855728 3 -0.87159293959753603
v -0.75203586551855728 0 -0.87159293959753603
v -0.75569551762868914 3 0.86842183299271503
v -0.75569551762868914 0 0.86842183299271503
v -0.76129971384651696 3 0.88762060859826031
v -0.76129971384651696 0 0.88762060859826031
v -0.77024166499239466 3 -0.8798723638237983
v -0.77024166499239466 0 -0.8798723638237983
v -0.83518302280023082 3 1.0667115893460066
v -0.83518302280023093 0 1.0667115893460066
v -0.83521475604604323 3 1.0467116145209949
v -0.83521475604604334 0 1.0467116145209949
v -0.91719414658853504 3 -0.97567606824905184
v -0.91719414658853504 0 -0.97567606824905173
v -0.93699506661915621 3 -0.97849095118461749
v -0.93699506661915621 0 -0.97849095118461749
v -0.96712923626890468 3 -0.62441431416683968
v -0.96712923626890468 0 -0.62441431416683968
v -0.96974724278265667 3 0.62034061651479422
v -0.96974724278265667 0 0.62034061651479411
v -0.9805333498159946 3 0.63718282228082646
v -0.9805333498159946 0 0.63718282228082646
v -0.98693015629952585 3 -0.62722919710240532
v -0.98693015629952585 0 -0.62722919710240543
v -1.0962754293199461 3 0.76900525080103777
v -1.0962754293199461 0 0.76900525080103777
v -1.1018796255377739 3 0.78820402640658305
v -1.1018796255377739 0 0.78820402640658305
v -1.1038715480357808 3 -0.32664935453726035
v -1.1038715480357808 0 -0.32664935453726029
v -1.1052358136352931 3 0.32200309259454513
v -1.1052358136352931 0 0.32200309259454518
v -1.1203300052397485 3 0.33512427317435523
v -1.1203300052397485 0 0.33512427317435523
v -1.1236634358429105 3 -0.32377165110744338
v -1.1236634358429105 0 -0.32377165110744333
v -1.1511847519576746 3 -0.0024212068615844795
v -1.1511847519576746 0 -0.002421206861584535
v -1.1549210524488436 3 -0.67775087997040262
v -1.1549210524488436 0 -0.67775087997040262
v -1.1693641864980686 3 0.0059159485160927006
v -1.1693641864980686 0 0.0059159485160925895
v -1.1747129402559733 3 -0.67487317654058565
v -1.1747129402559733 0 -0.67487317654058565
v -1.2685223871113664 3 0.42899865511150526
v -1.2685223871113664 0 0.42899865511150526
v -1.2793084941447044 3 0.4458408608775376
v -1.2793084941447044 0 0.4458408608775376
v -1.2990831232197162 3 -0.32491834613623671
v -1.2990831232197162 0 -0.3249183461362366
v -1.3172625577601103 3 -0.31658119075855951
v -1.3172625577601103 0 -0.31658119075855951
v -1.3380012052921446 3 0.054237139738078477
v -1.3380012052921446 0 0.054237139738078449
v -1.3530953968966 3 0.067358320317888548
v -1.3530953968966 0 0.067358320317888493
vn 0.99756407737731934 0 0.069756492972373962
vn 0.99756407737731934 0 0.069756492972373962
vn -0.069756492972373962 0 0.99756407737731934
vn -0.069756492972373962 0 0.99756407737731934
vn 0.93750303983688354 0 0.34797710180282593
vn 0.93750303983688354 0 0.34797710180282593
vn -0.34797710180282593 0 0.93750303983688354
vn -0.34797710180282593 0 0.93750303983688354
vn 0.97680836915969849 0 -0.2141154408454895
vn 0.97680836915969849 0 -0.2141154408454895
vn 0.2141154408454895 0 0.97680836915969849
vn 0.2141154408454895 0 0.97680836915969849
vn 0.80149108171463013 0 0.5980067253112793
vn 0.80149108171463013 0 0.5980067253112793
vn 0.34797710180282593 0 -0.93750303983688354
vn 0.34797710180282593 0 -0.93750303983688354
vn -0.5980067253112793 0 0.80149108171463013
vn -0.5980067253112793 0 0.80149108171463013
vn -0.93750303983688354 0 -0.34797710180282593
vn -0.93750303983688354 0 -0.34797710180282593
vn 0.5980067253112793 0 -0.80149108171463013
vn 0.5980067253112793 0 -0.80149108171463013
vn 0.069756492972373962 0 -0.99756407737731934
vn 0.069756492972373962 0 -0.99756407737731934
vn -0.99756407737731934 0 -0.069756492972373962
vn -0.99756407737731934 0 -0.069756492972373962
vn -0.80149108171463013 0 -0.5980067253112793
vn -0.80149108171463013 0 -0.5980067253112793
vn 0.87691748142242432 0 -0.48064097762107849
vn 0.87691748142242432 0 -0.48064097762107849
vn 0.48064097762107849 0 0.87691748142242432
vn 0.48064097762107849 0 0.87691748142242432
vn 0.79958939552307129 0 -0.60054707527160645
vn 0.79958939552307129 0 -0.60054707527160645
vn -0.2141154408454895 0 -0.97680836915969849
vn -0.2141154408454895 0 -0.97680836915969849
vn -0.97680836915969849 0 0.2141154408454895
vn -0.97680836915969849 0 0.2141154408454895
vn -0.60054707527160645 0 -0.79958939552307129
vn -0.60054707527160645 0 -0.79958939552307129
vn 0.60054707527160645 0 0.79958939552307129
vn 0.60054707527160645 0 0.79958939552307129
vn -0.79958939552307129 0 0.60054707527160645
vn -0.79958939552307129 0 0.60054707527160645
vn 0.70822781324386597 0 0.70598393678665161
vn 0.70822781324386597 0 0.70598393678665161
vn 0.70598393678665161 0 -0.70822781324386597
vn 0.70598393678665161 0 -0.70822781324386597
vn 0.93639403581619263 0 -0.35095039010047913
vn 0.93639403581619263 0 -0.35095039010047913
vn -0.48064097762107849 0 -0.87691748142242432
vn -0.48064097762107849 0 -0.87691748142242432
vn -0.87691748142242432 0 0.48064097762107849
vn -0.87691748142242432 0 0.48064097762107849
vn -0.35095039010047913 0 -0.93639403581619263
vn -0.35095039010047913 0 -0.93639403581619263
vn 0.35095039010047913 0 0.93639403581619263
vn 0.35095039010047913 0 0.93639403581619263
vn -0.93639403581619263 0 0.35095039010047913
vn -0.93639403581619263 0 0.35095039010047913
vn 0.87843829393386841 0 0.47785583138465881
vn 0.87843829393386841 0 0.47785583138465881
vn 0.47785583138465881 0 -0.87843829393386841
vn 0.47785583138465881 0 -0.87843829393386841
vn 0.99733763933181763 0 -0.072921723127365112
vn 0.99733763933181763 0 -0.072921723127365112
vn -0.70598393678665161 0 0.70822781324386597
vn -0.70598393678665161 0 0.70822781324386597
vn -0.70822781324386597 0 -0.70598393678665161
vn -0.70822781324386597 0 -0.70598393678665161
vn -0.072921723127365112 0 -0.99733763933181763
vn -0.072921723127365112 0 -0.99733763933181763
vn 0.072921723127365112 0 0.99733763933181763
vn 0.072921723127365112 0 0.99733763933181763
vn -0.99733763933181763 0 0.072921723127365112
vn -0.99733763933181763 0 0.072921723127365112
vn 0.97748291492462158 0 0.21101465821266174
vn 0.97748291492462158 0 0.21101465821266174
vn -0.47785583138465881 0 0.87843829393386841
vn -0.47785583138465881 0 0.87843829393386841
vn 0.21101465821266174 0 -0.97748291492462158
vn 0.21101465821266174 0 -0.97748291492462158
vn -0.87843829393386841 0 -0.47785583138465881
vn -0.87843829393386841 0 -0.47785583138465881
vn 0.97748291492462158 0 0.21101465821266174
vn 0.97748291492462158 0 0.21101465821266174
vn 0.21101465821266174 0 -0.97748291492462158
vn 0.21101465821266174 0 -0.97748291492462158
vn -0.21101465821266174 0 0.97748291492462158
vn -0.21101465821266174 0 0.97748291492462158
vn -0.97748291492462158 0 -0.21101465821266174
vn -0.97748291492462158 0 -0.21101465821266174
vn 0.87843829393386841 0 0.47785583138465881
vn 0.87843829393386841 0 0.47785583138465881
vn -0.21101465821266174 0 0.97748291492462158
vn -0.21101465821266174 0 0.97748291492462158
vn 0.47785583138465881 0 -0.87843829393386841
vn 0.47785583138465881 0 -0.87843829393386841
vn -0.97748291492462158 0 -0.21101465821266174
vn -0.97748291492462158 0 -0.21101465821266174
vn 0.99733763933181763 0 -0.072921723127365112
vn 0.99733763933181763 0 -0.072921723127365112
vn -0.072921723127365112 0 -0.99733763933181763
vn -0.072921723127365112 0 -0.99733763933181763
vn 0.072921723127365112 0 0.99733763933181763
vn 0.072921723127365112 0 0.99733763933181763
vn 0.70822781324386597 0 0.70598393678665161
vn 0.70822781324386597 0 0.70598393678665161
vn 0.70598393678665161 0 -0.70822781324386597
vn 0.70598393678665161 0 -0.70822781324386597
vn -0.99733763933181763 0 0.072921723127365112
vn -0.99733763933181763 0 0.072921723127365112
vn -0.47785583138465881 0 0.87843829393386841
vn -0.47785583138465881 0 0.87843829393386841
vn -0.87843829393386841 0 -0.47785583138465881
vn -0.87843829393386841 0 -0.47785583138465881
vn 0.93639403581619263 0 -0.35095039010047913
vn 0.93639403581619263 0 -0.35095039010047913
vn -0.35095039010047913 0 -0.93639403581619263
vn -0.35095039010047913 0 -0.93639403581619263
vn 0.35095039010047913 0 0.93639403581619263
vn 0.35095039010047913 0 0.93639403581619263
vn 0.87691748142242432 0 -0.48064097762107849
vn 0.87691748142242432 0 -0.48064097762107849
vn 0.48064097762107849 0 0.87691748142242432
vn 0.48064097762107849 0 0.87691748142242432
vn -0.93639403581619263 0 0.35095039010047913
vn -0.93639403581619263 0 0.35095039010047913
vn -0.70598393678665161 0 0.70822781324386597
vn -0.70598393678665161 0 0.70822781324386597
vn -0.70822781324386597 0 -0.70598393678665161
vn -0.70822781324386597 0 -0.70598393678665161
vn 0.79958939552307129 0 -0.60054707527160645
vn 0.79958939552307129 0 -0.60054707527160645
vn -0.60054707527160645 0 -0.79958939552307129
vn -0.60054707527160645 0 -0.79958939552307129
vn 0.60054707527160645 0 0.79958939552307129
vn 0.60054707527160645 0 0.79958939552307129
vn 0.97680836915969849 0 -0.2141154408454895
vn 0.97680836915969849 0 -0.2141154408454895
vn 0.2141154408454895 0 0.97680836915969849
vn 0.2141154408454895 0 0.97680836915969849
vn -0.79958939552307129 0 0.60054707527160645
vn -0.79958939552307129 0 0.60054707527160645
vn -0.48064097762107849 0 -0.87691748142242432
vn -0.48064097762107849 0 -0.87691748142242432
vn -0.87691748142242432 0 0.48064097762107849
vn -0.87691748142242432 0 0.48064097762107849
vn 0.80149108171463013 0 0.5980067253112793
vn 0.80149108171463013 0 0.5980067253112793
vn 0.99756407737731934 0 0.069756492972373962
vn 0.99756407737731934 0 0.069756492972373962
vn -0.069756492972373962 0 0.99756407737731934
vn -0.069756492972373962 0 0.99756407737731934
vn -0.5980067253112793 0 0.80149108171463013
vn -0.5980067253112793 0 0.80149108171463013
vn 0.93750303983688354 0 0.34797710180282593
vn 0.93750303983688354 0 0.34797710180282593
vn 0.5980067253112793 0 -0.80149108171463013
vn 0.5980067253112793 0 -0.80149108171463013
vn -0.34797710180282593 0 0.93750303983688354
vn -0.34797710180282593 0 0.93750303983688354
vn -0.80149108171463013 0 -0.5980067253112793
vn -0.80149108171463013 0 -0.5980067253112793
vn -0.2141154408454895 0 -0.97680836915969849
vn -0.2141154408454895 0 -0.97680836915969849
vn -0.97680836915969849 0 0.2141154408454895
vn -0.97680836915969849 0 0.2141154408454895
vn 0.34797710180282593 0 -0.93750303983688354
vn 0.34797710180282593 0 -0.93750303983688354
vn -0.93750303983688354 0 -0.34797710180282593
vn -0.93750303983688354 0 -0.34797710180282593
vn 0.069756492972373962 0 -0.99756407737731934
vn 0.069756492972373962 0 -0.99756407737731934
vn -0.99756407737731934 0 -0.069756492972373962
vn -0.99756407737731934 0 -0.069756492972373962
f 2//2 1//1 3//3 4//4
f 4//4 3//3 25//25 26//26
f 26//26 25//25 23//23 24//24
f 24//24 23//23 1//1 2//2
f 10//10 9//9 11//11 12//12
f 12//12 11//11 37//37 38//38
f 38//38 37//37 35//35 36//36
f 36//36 35//35 9//9 10//10
f 30//30 29//29 31//31 32//32
f 32//32 31//31 53//53 54//54
f 54//54 53//53 51//51 52//52
f 52//52 51//51 29//29 30//30
f 48//48 47//47 45//45 46//46
f 46//46 45//45 67//67 68//68
f 68//68 67//67 69//69 70//70
f 70//70 69//69 47//47 48//48
f 64//64 63//63 61//61 62//62
f 62//62 61//61 79//79 80//80
f 80//80 79//79 83//83 84//84
f 84//84 83//83 63//63 64//64
f 88//88 87//87 85//85 86//86
f 86//86 85//85 95//95 96//96
f 96//96 95//95 99//99 100//100
f 100//100 99//99 87//87 88//88
f 104//104 103//103 101//101 102//102
f 102//102 101//101 105//105 106//106
f 106//106 105//105 111//111 112//112
f 112//112 111//111 103//103 104//104
f 120//120 119//119 117//117 118//118
f 118//118 117//117 121//121 122//122
f 122//122 121//121 127//127 128//128
f 128//128 127//127 119//119 120//120
f 136//136 135//135 133//133 134//134
f 134//134 133//133 137//137 138//138
f 138//138 137//137 143//143 144//144
f 144//144 143//143 135//135 136//136
f 164//164 163//163 159//159 160//160
f 160//160 159//159 149//149 150//150
f 150//150 149//149 155//155 156//156
f 156//156 155//155 163//163 164//164
f 172//172 171//171 169//169 170//170
f 170//170 169//169 157//157 158//158
f 158//158 157//157 161//161 162//162
f 162//162 161//161 171//171 172//172
f 176//176 175//175 173//173 174//174
f 174//174 173//173 151//151 152//152
f 152//152 151//151 153//153 154//154
f 154//154 153//153 175//175 176//176
f 168//168 167//167 165//165 166//166
f 166//166 165//165 139//139 140//140
f 140//140 139//139 141//141 142//142
f 142//142 141//141 167//167 168//168
f 148//148 147//147 145//145 146//146
f 146//146 145//145 123//123 124//124
f 124//124 123//123 125//125 126//126
f 126//126 125//125 147//147 148//148
f 130//130 129//129 131//131 132//132
f 132//132 131//131 109//109 110//110
f 110//110 109//109 107//107 108//108
f 108//108 107//107 129//129 130//130
f 114//114 113//113 115//115 116//116
f 116//116 115//115 97//97 98//98
f 98//98 97//97 93//93 94//94
f 94//94 93//93 113//113 114//114
f 90//90 89//89 91//91 92//92
f 92//92 91//91 81//81 82//82
f 82//82 81//81 77//77 78//78
f 78//78 77//77 89//89 90//90
f 74//74 73//73 75//75 76//76
f 76//76 75//75 71//71 72//72
f 72//72 71//71 65//65 66//66
f 66//66 65//65 73//73 74//74
f 58//58 57//57 59//59 60//60
f 60//60 59//59 55//55 56//56
f 56//56 55//55 49//49 50//50
f 50//50 49//49 57//57 58//58
f 42//42 41//41 43//43 44//44
f 44//44 43//43 39//39 40//40
f 40//40 39//39 33//33 34//34
f 34//34 33//33 41//41 42//42
f 14//14 13//13 17//17 18//18
f 18//18 17//17 27//27 28//28
f 28//28 27//27 21//21 22//22
f 22//22 21//21 13//13 14//14
f 6//6 5//5 7//7 8//8
f 8//8 7//7 19//19 20//20
f 20//20 19//19 15//15 16//16
f 16//16 15//15 5//5 6//6
