# Rhino

mtllib Frangisole39.mtl
usemtl diffuse_Black
v 1.3676883386221173 3 -0.083410604411193107
v 1.3676883386221173 0 -0.083410604411193134
v 1.3543057264949403 3 -0.068547707901645438
v 1.3543057264949403 0 -0.06854770790164541
v 1.3357868338508621 3 0.30529044374473563
v 1.3357868338508621 0 0.30529044374473557
v 1.3187589497105232 3 0.31578097098139934
v 1.3187589497105232 0 0.31578097098139934
v 1.2887878681539524 3 -0.46535422145969441
v 1.2887878681539524 0 -0.46535422145969441
v 1.2801347076850225 3 -0.44732305915941728
v 1.2801347076850225 0 -0.44732305915941728
v 1.1956678240311993 3 0.66925867578064724
v 1.1956678240311991 0 0.66925867578064713
v 1.1763741657820226 3 0.67452695361728021
v 1.1763741657820224 0 0.67452695361728021
v 1.1496883600072627 3 0.0032214266387405599
v 1.1496883600072627 0 0.0032214266387405599
v 1.1326604758669239 3 0.013711953875404304
v 1.1326604758669239 0 0.013711953875404331
v 1.1054774693245322 3 -0.80959760705364991
v 1.1054774693245322 0 -0.80959760705364991
v 1.1040254840369532 3 -0.32081370501078826
v 1.1040254840369532 0 -0.32081370501078826
v 1.1022547881127149 3 -0.78985895649676052
v 1.1022547881127149 0 -0.78985895649676052
v 1.1022103225097337 3 0.32699557746056196
v 1.1022103225097337 0 0.32699557746056201
v 1.0906428719097763 3 -0.30595080850124057
v 1.0906428719097763 0 -0.30595080850124057
v 1.082916664260557 3 0.33226385529719504
v 1.082916664260557 0 0.3322638552971951
v 0.96892102924233936 3 -0.61885841823291321
v 0.96892102924233936 0 -0.61885841823291321
v 0.9654377597796544 3 0.62427849131410917
v 0.9654377597796544 0 0.62427849131410917
v 0.96026786877340942 3 -0.60082725593263608
v 0.96026786877340942 0 -0.60082725593263608
v 0.95868291801887917 3 0.97900755013941287
v 0.95868291801887917 0 0.97900755013941287
v 0.94544138486918405 3 0.62389771521204229
v 0.94544138486918405 0 0.62389771521204229
v 0.93868654310840882 3 0.97862677403734599
v 0.93868654310840882 0 0.97862677403734599
v 0.8350767409691503 3 -1.0684051786508242
v 0.83507674096915041 0 -1.0684051786508242
v 0.83260786045809643 3 -1.0882522093864815
v 0.83260786045809643 0 -1.0882522093864815
v 0.75532035505375017 3 -0.86676690290253622
v 0.75532035505375017 0 -0.86676690290253622
v 0.75209767384193293 3 -0.84702825234564683
v 0.75209767384193293 0 -0.84702825234564683
v 0.75045117143166518 3 0.87098607452853061
v 0.75045117143166518 0 0.87098607452853061
v 0.73137206723212722 3 0.86498709270299068
v 0.73137206723212722 0 0.86498709270299068
v 0.644031223495517 3 1.2094430551679707
v 0.644031223495517 0 1.2094430551679707
v 0.62495211929597905 3 1.2034440733424308
v 0.62495211929597905 0 1.2034440733424308
v 0.50024574266487254 3 -1.2603955672808547
v 0.50024574266487254 0 -1.2603955672808547
v 0.49228531444695534 3 -1.2787430897999139
v 0.49228531444695534 0 -1.2787430897999139
v 0.48299699827287573 3 -1.024608057224595
v 0.48299699827287573 0 -1.024608057224595
v 0.48052811776182186 3 -1.0444550879602523
v 0.48052811776182186 0 -1.0444550879602523
v 0.47466749227924754 3 1.0471315459382877
v 0.47466749227924754 0 1.0471315459382877
v 0.45805133434508677 3 1.036000360219461
v 0.45805133434508682 0 1.036000360219461
v 0.27720394944571281 3 1.3418966767016254
v 0.27720394944571281 0 1.3418966767016254
v 0.26058779151155204 3 1.3307654909827986
v 0.26058779151155204 0 1.3307654909827986
v 0.17476677839750288 3 -1.1191802108859525
v 0.17476677839750288 0 -1.1191802108859525
v 0.16680635017958567 3 -1.1375277334050118
v 0.16680635017958573 0 -1.1375277334050118
v 0.16042907585863928 3 1.1384446470272152
v 0.16042907585863919 0 1.1384446470272152
v 0.14762200648558491 3 1.1230830398823306
v 0.14762200648558485 0 1.1230830398823306
v 0.12488780936587185 3 -1.350276202910853
v 0.12488780936587188 0 -1.350276202910853
v 0.11208073999281767 3 -1.3656378100557374
v 0.1120807399928177 0 -1.3656378100557374
v -0.11208073999281631 3 1.3656378100557376
v -0.11208073999281626 0 1.3656378100557376
v -0.1248878093658707 3 1.350276202910853
v -0.1248878093658706 0 1.350276202910853
v -0.14762200648558382 3 -1.123083039882331
v -0.14762200648558382 0 -1.123083039882331
v -0.160429075858638 3 -1.1384446470272154
v -0.160429075858638 0 -1.1384446470272154
v -0.16680635017958459 3 1.1375277334050118
v -0.16680635017958459 0 1.1375277334050118
v -0.17476677839750174 3 1.1191802108859528
v -0.17476677839750174 0 1.1191802108859528
v -0.26058779151155098 3 -1.3307654909827988
v -0.26058779151155093 0 -1.3307654909827988
v -0.27720394944571192 3 -1.3418966767016256
v -0.27720394944571186 0 -1.3418966767016256
v -0.45805133434508583 3 -1.0360003602194614
v -0.45805133434508588 0 -1.0360003602194614
v -0.47466749227924676 3 -1.0471315459382882
v -0.47466749227924682 0 -1.0471315459382882
v -0.48052811776182069 3 1.044455087960253
v -0.48052811776182069 0 1.044455087960253
v -0.48299699827287468 3 1.0246080572245955
v -0.48299699827287468 0 1.0246080572245955
v -0.49228531444695406 3 1.2787430897999141
v -0.49228531444695411 0 1.2787430897999141
v -0.50024574266487121 3 1.2603955672808551
v -0.50024574266487121 0 1.2603955672808551
v -0.62495211929597683 3 -1.2034440733424323
v -0.62495211929597683 0 -1.2034440733424321
v -0.644031223495515 3 -1.2094430551679725
v -0.644031223495515 0 -1.2094430551679722
v -0.73137206723212578 3 -0.8649870927029919
v -0.73137206723212578 0 -0.8649870927029919
v -0.75045117143166395 3 -0.87098607452853205
v -0.75045117143166384 0 -0.87098607452853205
v -0.75209767384193216 3 0.84702825234564749
v -0.75209767384193216 0 0.84702825234564749
v -0.75532035505374939 3 0.86676690290253688
v -0.75532035505374939 0 0.86676690290253688
v -0.83260786045809543 3 1.0882522093864826
v -0.83260786045809543 0 1.0882522093864826
v -0.83507674096914941 3 1.0684051786508251
v -0.83507674096914941 0 1.0684051786508251
v -0.9386865431084076 3 -0.97862677403734721
v -0.9386865431084076 0 -0.97862677403734721
v -0.94544138486918328 3 -0.62389771521204351
v -0.94544138486918328 0 -0.62389771521204351
v -0.95868291801887773 3 -0.9790075501394141
v -0.95868291801887773 0 -0.9790075501394141
v -0.96026786877340908 3 0.60082725593263664
v -0.96026786877340908 0 0.60082725593263664
v -0.9654377597796534 3 -0.6242784913141104
v -0.9654377597796534 0 -0.6242784913141104
v -0.96892102924233903 3 0.61885841823291377
v -0.96892102924233903 0 0.61885841823291377
v -1.0829166642605565 3 -0.33226385529719715
v -1.0829166642605565 0 -0.3322638552971971
v -1.0906428719097763 3 0.30595080850124057
v -1.0906428719097763 0 0.30595080850124057
v -1.1022103225097333 3 -0.32699557746056407
v -1.1022103225097333 0 -0.32699557746056401
v -1.102254788112714 3 0.78985895649676163
v -1.102254788112714 0 0.78985895649676163
v -1.1040254840369532 3 0.32081370501078826
v -1.1040254840369532 0 0.32081370501078826
v -1.1054774693245313 3 0.80959760705365102
v -1.1054774693245313 0 0.80959760705365102
v -1.1326604758669236 3 -0.013711953875406108
v -1.1326604758669236 0 -0.013711953875406135
v -1.1496883600072625 3 -0.0032214266387423918
v -1.1496883600072625 0 -0.0032214266387424195
v -1.1763741657820213 3 -0.67452695361728221
v -1.1763741657820213 0 -0.67452695361728221
v -1.195667824031198 3 -0.66925867578064913
v -1.195667824031198 0 -0.66925867578064913
v -1.2801347076850222 3 0.44732305915941806
v -1.2801347076850222 0 0.44732305915941811
v -1.2887878681539522 3 0.46535422145969518
v -1.2887878681539522 0 0.46535422145969524
v -1.3187589497105225 3 -0.31578097098140179
v -1.3187589497105225 0 -0.31578097098140173
v -1.3357868338508614 3 -0.30529044374473802
v -1.3357868338508614 0 -0.30529044374473802
v -1.3543057264949403 3 0.068547707901645438
v -1.3543057264949403 0 0.06854770790164541
v -1.3676883386221173 3 0.083410604411193107
v -1.3676883386221173 0 0.083410604411193134
vn 0.99862951040267944 0 -0.052335932850837708
vn 0.99862951040267944 0 -0.052335932850837708
vn 0.052335932850837708 0 0.99862951040267944
vn 0.052335932850837708 0 0.99862951040267944
vn 0.97292274236679077 0 0.23113049566745758
vn 0.97292274236679077 0 0.23113049566745758
vn -0.23113049566745758 0 0.97292274236679077
vn -0.23113049566745758 0 0.97292274236679077
vn 0.94343328475952148 0 -0.33156242966651917
vn 0.94343328475952148 0 -0.33156242966651917
vn 0.33156242966651917 0 0.94343328475952148
vn 0.33156242966651917 0 0.94343328475952148
vn 0.86839556694030762 0 0.49587208032608032
vn 0.86839556694030762 0 0.49587208032608032
vn -0.49587208032608032 0 0.86839556694030762
vn -0.49587208032608032 0 0.86839556694030762
vn 0.23113049566745758 0 -0.97292274236679077
vn 0.23113049566745758 0 -0.97292274236679077
vn -0.97292274236679077 0 -0.23113049566745758
vn -0.97292274236679077 0 -0.23113049566745758
vn 0.81180566549301147 0 -0.5839276909828186
vn 0.81180566549301147 0 -0.5839276909828186
vn -0.052335932850837708 0 -0.99862951040267944
vn -0.052335932850837708 0 -0.99862951040267944
vn 0.5839276909828186 0 0.81180566549301147
vn 0.5839276909828186 0 0.81180566549301147
vn 0.49587208032608032 0 -0.86839556694030762
vn 0.49587208032608032 0 -0.86839556694030762
vn -0.99862951040267944 0 0.052335932850837708
vn -0.99862951040267944 0 0.052335932850837708
vn -0.86839556694030762 0 -0.49587208032608032
vn -0.86839556694030762 0 -0.49587208032608032
vn -0.33156242966651917 0 -0.94343328475952148
vn -0.33156242966651917 0 -0.94343328475952148
vn 0.72044110298156738 0 -0.69351613521575928
vn 0.72044110298156738 0 -0.69351613521575928
vn -0.94343328475952148 0 0.33156242966651917
vn -0.94343328475952148 0 0.33156242966651917
vn 0.69351613521575928 0 0.72044110298156738
vn 0.69351613521575928 0 0.72044110298156738
vn -0.69351613521575928 0 -0.72044110298156738
vn -0.69351613521575928 0 -0.72044110298156738
vn -0.72044110298156738 0 0.69351613521575928
vn -0.72044110298156738 0 0.69351613521575928
vn 0.78898662328720093 0 0.614410400390625
vn 0.78898662328720093 0 0.614410400390625
vn 0.614410400390625 0 -0.78898662328720093
vn 0.614410400390625 0 -0.78898662328720093
vn -0.5839276909828186 0 -0.81180566549301147
vn -0.5839276909828186 0 -0.81180566549301147
vn -0.81180566549301147 0 0.5839276909828186
vn -0.81180566549301147 0 0.5839276909828186
vn 0.88664424419403076 0 -0.46245214343070984
vn 0.88664424419403076 0 -0.46245214343070984
vn -0.46245214343070984 0 -0.88664424419403076
vn -0.46245214343070984 0 -0.88664424419403076
vn 0.46245214343070984 0 0.88664424419403076
vn 0.46245214343070984 0 0.88664424419403076
vn -0.88664424419403076 0 0.46245214343070984
vn -0.88664424419403076 0 0.46245214343070984
vn 0.93012654781341553 0 0.36723923683166504
vn 0.93012654781341553 0 0.36723923683166504
vn 0.36723923683166504 0 -0.93012654781341553
vn 0.36723923683166504 0 -0.93012654781341553
vn -0.614410400390625 0 0.78898662328720093
vn -0.614410400390625 0 0.78898662328720093
vn -0.78898662328720093 0 -0.614410400390625
vn -0.78898662328720093 0 -0.614410400390625
vn 0.98101675510406494 0 -0.19392307102680206
vn 0.98101675510406494 0 -0.19392307102680206
vn -0.19392307102680206 0 -0.98101675510406494
vn -0.19392307102680206 0 -0.98101675510406494
vn 0.19392307102680206 0 0.98101675510406494
vn 0.19392307102680206 0 0.98101675510406494
vn -0.98101675510406494 0 0.19392307102680206
vn -0.98101675510406494 0 0.19392307102680206
vn -0.36723923683166504 0 0.93012654781341553
vn -0.36723923683166504 0 0.93012654781341553
vn -0.93012654781341553 0 -0.36723923683166504
vn -0.93012654781341553 0 -0.36723923683166504
vn 0.99591308832168579 0 0.090316571295261383
vn 0.99591308832168579 0 0.090316571295261383
vn 0.090316571295261383 0 -0.99591308832168579
vn 0.090316571295261383 0 -0.99591308832168579
vn 0.99591308832168579 0 0.090316571295261383
vn 0.99591308832168579 0 0.090316571295261383
vn 0.090316571295261383 0 -0.99591308832168579
vn 0.090316571295261383 0 -0.99591308832168579
vn -0.090316571295261383 0 0.99591308832168579
vn -0.090316571295261383 0 0.99591308832168579
vn -0.99591308832168579 0 -0.090316571295261383
vn -0.99591308832168579 0 -0.090316571295261383
vn -0.090316571295261383 0 0.99591308832168579
vn -0.090316571295261383 0 0.99591308832168579
vn -0.99591308832168579 0 -0.090316571295261383
vn -0.99591308832168579 0 -0.090316571295261383
vn 0.93012654781341553 0 0.36723923683166504
vn 0.93012654781341553 0 0.36723923683166504
vn 0.36723923683166504 0 -0.93012654781341553
vn 0.36723923683166504 0 -0.93012654781341553
vn 0.98101675510406494 0 -0.19392307102680206
vn 0.98101675510406494 0 -0.19392307102680206
vn -0.19392307102680206 0 -0.98101675510406494
vn -0.19392307102680206 0 -0.98101675510406494
vn 0.19392307102680206 0 0.98101675510406494
vn 0.19392307102680206 0 0.98101675510406494
vn -0.98101675510406494 0 0.19392307102680206
vn -0.98101675510406494 0 0.19392307102680206
vn 0.78898662328720093 0 0.614410400390625
vn 0.78898662328720093 0 0.614410400390625
vn 0.614410400390625 0 -0.78898662328720093
vn 0.614410400390625 0 -0.78898662328720093
vn -0.36723923683166504 0 0.93012654781341553
vn -0.36723923683166504 0 0.93012654781341553
vn -0.93012654781341553 0 -0.36723923683166504
vn -0.93012654781341553 0 -0.36723923683166504
vn 0.88664424419403076 0 -0.46245214343070984
vn 0.88664424419403076 0 -0.46245214343070984
vn -0.46245214343070984 0 -0.88664424419403076
vn -0.46245214343070984 0 -0.88664424419403076
vn 0.46245214343070984 0 0.88664424419403076
vn 0.46245214343070984 0 0.88664424419403076
vn -0.88664424419403076 0 0.46245214343070984
vn -0.88664424419403076 0 0.46245214343070984
vn 0.81180566549301147 0 -0.5839276909828186
vn 0.81180566549301147 0 -0.5839276909828186
vn 0.5839276909828186 0 0.81180566549301147
vn 0.5839276909828186 0 0.81180566549301147
vn -0.614410400390625 0 0.78898662328720093
vn -0.614410400390625 0 0.78898662328720093
vn -0.78898662328720093 0 -0.614410400390625
vn -0.78898662328720093 0 -0.614410400390625
vn 0.72044110298156738 0 -0.69351613521575928
vn 0.72044110298156738 0 -0.69351613521575928
vn 0.69351613521575928 0 0.72044110298156738
vn 0.69351613521575928 0 0.72044110298156738
vn -0.69351613521575928 0 -0.72044110298156738
vn -0.69351613521575928 0 -0.72044110298156738
vn 0.94343328475952148 0 -0.33156242966651917
vn 0.94343328475952148 0 -0.33156242966651917
vn -0.72044110298156738 0 0.69351613521575928
vn -0.72044110298156738 0 0.69351613521575928
vn 0.33156242966651917 0 0.94343328475952148
vn 0.33156242966651917 0 0.94343328475952148
vn 0.86839556694030762 0 0.49587208032608032
vn 0.86839556694030762 0 0.49587208032608032
vn 0.99862951040267944 0 -0.052335932850837708
vn 0.99862951040267944 0 -0.052335932850837708
vn -0.49587208032608032 0 0.86839556694030762
vn -0.49587208032608032 0 0.86839556694030762
vn -0.5839276909828186 0 -0.81180566549301147
vn -0.5839276909828186 0 -0.81180566549301147
vn 0.052335932850837708 0 0.99862951040267944
vn 0.052335932850837708 0 0.99862951040267944
vn -0.81180566549301147 0 0.5839276909828186
vn -0.81180566549301147 0 0.5839276909828186
vn 0.97292274236679077 0 0.23113049566745758
vn 0.97292274236679077 0 0.23113049566745758
vn -0.23113049566745758 0 0.97292274236679077
vn -0.23113049566745758 0 0.97292274236679077
vn 0.49587208032608032 0 -0.86839556694030762
vn 0.49587208032608032 0 -0.86839556694030762
vn -0.86839556694030762 0 -0.49587208032608032
vn -0.86839556694030762 0 -0.49587208032608032
vn -0.33156242966651917 0 -0.94343328475952148
vn -0.33156242966651917 0 -0.94343328475952148
vn -0.94343328475952148 0 0.33156242966651917
vn -0.94343328475952148 0 0.33156242966651917
vn 0.23113049566745758 0 -0.97292274236679077
vn 0.23113049566745758 0 -0.97292274236679077
vn -0.97292274236679077 0 -0.23113049566745758
vn -0.97292274236679077 0 -0.23113049566745758
vn -0.052335932850837708 0 -0.99862951040267944
vn -0.052335932850837708 0 -0.99862951040267944
vn -0.99862951040267944 0 0.052335932850837708
vn -0.99862951040267944 0 0.052335932850837708
f 2//2 1//1 3//3 4//4
f 4//4 3//3 29//29 30//30
f 30//30 29//29 23//23 24//24
f 24//24 23//23 1//1 2//2
f 10//10 9//9 11//11 12//12
f 12//12 11//11 37//37 38//38
f 38//38 37//37 33//33 34//34
f 34//34 33//33 9//9 10//10
f 22//22 21//21 25//25 26//26
f 26//26 25//25 51//51 52//52
f 52//52 51//51 49//49 50//50
f 50//50 49//49 21//21 22//22
f 48//48 47//47 45//45 46//46
f 46//46 45//45 65//65 66//66
f 66//66 65//65 67//67 68//68
f 68//68 67//67 47//47 48//48
f 64//64 63//63 61//61 62//62
f 62//62 61//61 77//77 78//78
f 78//78 77//77 79//79 80//80
f 80//80 79//79 63//63 64//64
f 88//88 87//87 85//85 86//86
f 86//86 85//85 93//93 94//94
f 94//94 93//93 95//95 96//96
f 96//96 95//95 87//87 88//88
f 104//104 103//103 101//101 102//102
f 102//102 101//101 105//105 106//106
f 106//106 105//105 107//107 108//108
f 108//108 107//107 103//103 104//104
f 120//120 119//119 117//117 118//118
f 118//118 117//117 121//121 122//122
f 122//122 121//121 123//123 124//124
f 124//124 123//123 119//119 120//120
f 138//138 137//137 133//133 134//134
f 134//134 133//133 135//135 136//136
f 136//136 135//135 141//141 142//142
f 142//142 141//141 137//137 138//138
f 164//164 163//163 161//161 162//162
f 162//162 161//161 145//145 146//146
f 146//146 145//145 149//149 150//150
f 150//150 149//149 163//163 164//164
f 172//172 171//171 169//169 170//170
f 170//170 169//169 157//157 158//158
f 158//158 157//157 159//159 160//160
f 160//160 159//159 171//171 172//172
f 176//176 175//175 173//173 174//174
f 174//174 173//173 147//147 148//148
f 148//148 147//147 153//153 154//154
f 154//154 153//153 175//175 176//176
f 168//168 167//167 165//165 166//166
f 166//166 165//165 139//139 140//140
f 140//140 139//139 143//143 144//144
f 144//144 143//143 167//167 168//168
f 156//156 155//155 151//151 152//152
f 152//152 151//151 125//125 126//126
f 126//126 125//125 127//127 128//128
f 128//128 127//127 155//155 156//156
f 130//130 129//129 131//131 132//132
f 132//132 131//131 111//111 112//112
f 112//112 111//111 109//109 110//110
f 110//110 109//109 129//129 130//130
f 114//114 113//113 115//115 116//116
f 116//116 115//115 99//99 100//100
f 100//100 99//99 97//97 98//98
f 98//98 97//97 113//113 114//114
f 90//90 89//89 91//91 92//92
f 92//92 91//91 83//83 84//84
f 84//84 83//83 81//81 82//82
f 82//82 81//81 89//89 90//90
f 74//74 73//73 75//75 76//76
f 76//76 75//75 71//71 72//72
f 72//72 71//71 69//69 70//70
f 70//70 69//69 73//73 74//74
f 58//58 57//57 59//59 60//60
f 60//60 59//59 55//55 56//56
f 56//56 55//55 53//53 54//54
f 54//54 53//53 57//57 58//58
f 40//40 39//39 43//43 44//44
f 44//44 43//43 41//41 42//42
f 42//42 41//41 35//35 36//36
f 36//36 35//35 39//39 40//40
f 14//14 13//13 15//15 16//16
f 16//16 15//15 31//31 32//32
f 32//32 31//31 27//27 28//28
f 28//28 27//27 13//13 14//14
f 6//6 5//5 7//7 8//8
f 8//8 7//7 19//19 20//20
f 20//20 19//19 17//17 18//18
f 18//18 17//17 5//5 6//6
