# Rhino

mtllib Frangisole83.mtl
usemtl diffuse_Black
v 1.4085558110734973 3 0.19382149273569826
v 1.4085558110734973 0 0.19382149273569826
v 1.4068032183221912 3 -0.1908778531518302
v 1.4068032183221912 0 -0.1908778531518302
v 1.4061052283881412 3 -0.21086566969221193
v 1.4061052283881412 0 -0.21086566969221193
v 1.4035943088512728 3 0.21319630875285966
v 1.4035943088512728 0 0.21319630875285966
v 1.2968935789496394 3 0.58280639052296579
v 1.2968935789496394 0 0.58280639052296579
v 1.296041297625536 3 -0.57948822658846388
v 1.296041297625536 0 -0.57948822658846388
v 1.2897403625285622 3 -0.5984697496280863
v 1.2897403625285622 0 -0.5984697496280863
v 1.2866745359739951 3 0.59999857364966402
v 1.2866745359739951 0 0.59999857364966391
v 1.0802818188496439 3 -0.92115191025608356
v 1.0802818188496439 0 -0.92115191025608356
v 1.0801647419823768 3 0.92457578063312762
v 1.0801647419823768 0 0.92457578063312762
v 1.0688884028781993 3 -0.93758936968574058
v 1.0688884028781993 0 -0.93758936968574058
v 1.0655160443402107 3 0.93819252243828755
v 1.0655160443402107 0 0.93819252243828755
v 1.0648530008665131 3 0.10580608886728016
v 1.0648530008665131 0 0.10580608886728016
v 1.0598914986442887 3 0.12518090488444156
v 1.0598914986442887 0 0.12518090488444156
v 1.0522259821437523 3 -0.17849574322022194
v 1.0522259821437523 0 -0.17849574322022194
v 1.0515279922097023 3 -0.19848355976060367
v 1.0515279922097023 0 -0.19848355976060367
v 0.99190995231776125 3 0.40152395742817804
v 0.99190995231776125 0 0.40152395742817809
v 0.98169090934211689 3 0.41871614055487621
v 0.98169090934211689 0 0.41871614055487621
v 0.95931537439879944 3 -0.46771172776424447
v 0.95931537439879944 0 -0.46771172776424447
v 0.95301443930182561 3 -0.48669325080386688
v 0.95301443930182561 0 -0.48669325080386688
v 0.83860825854785259 3 0.66471274291316751
v 0.83860825854785259 0 0.66471274291316751
v 0.82395956090568656 3 0.67832948471832744
v 0.82395956090568656 0 0.67832948471832744
v 0.78868674028826569 3 -0.71903648971355638
v 0.7886867402882658 0 -0.71903648971355638
v 0.77729332431682108 3 -0.7354739491432134
v 0.77729332431682108 0 -0.7354739491432134
v 0.77700433179390882 3 -1.1881893444561045
v 0.77700433179390882 0 -1.1881893444561045
v 0.77592738160677532 3 1.1914415396602831
v 0.77592738160677532 0 1.1914415396602831
v 0.7614414617507459 3 -1.2007510750701409
v 0.7614414617507459 0 -1.2007510750701409
v 0.75803577966189639 3 1.2003796927047323
v 0.75803577966189639 0 1.2003796927047323
v 0.61736751106574794 3 0.87405045516622948
v 0.61736751106574794 0 0.87405045516622937
v 0.59947590912086901 3 0.8829886082106787
v 0.59947590912086901 0 0.88298860821067859
v 0.55416339698022632 3 -0.91210919154093584
v 0.55416339698022621 0 -0.91210919154093584
v 0.53860052693706328 3 -0.92467092215497226
v 0.53860052693706328 0 -0.92467092215497226
v 0.41077857479892277 3 -1.3589667444024125
v 0.41077857479892277 0 -1.3589667444024125
v 0.40882899939121353 3 1.3617837909198329
v 0.40882899939121353 0 1.3617837909198329
v 0.39230706185898667 3 -1.3666350694939673
v 0.39230706185898667 0 -1.3666350694939673
v 0.38914396432774206 3 1.3653192392011533
v 0.38914396432774201 0 1.3653192392011533
v 0.34611131946305757 3 1.0125777977199331
v 0.34611131946305762 0 1.0125777977199331
v 0.3264262843995861 3 1.0161132460012534
v 0.32642628439958615 0 1.0161132460012534
v 0.27474503098547143 3 -1.0312882311918989
v 0.27474503098547143 0 -1.0312882311918989
v 0.25627351804553528 3 -1.0389565562834537
v 0.25627351804553533 0 -1.0389565562834537
v 0.046815247160745851 3 1.069072109134406
v 0.046815247160745831 0 1.069072109134406
v 0.026931543448112917 3 1.066918431658965
v 0.026931543448112921 0 1.066918431658965
v 0.011273980667978484 3 -1.4196487408036624
v 0.011273980667978478 0 -1.4196487408036624
v 0.0086097230446558273 3 1.4218024182791034
v 0.0086097230446558169 0 1.4218024182791034
v -0.0086097230446544395 3 -1.4218024182791034
v -0.0086097230446544291 0 -1.4218024182791034
v -0.011273980667977104 3 1.4196487408036624
v -0.011273980667977093 0 1.4196487408036624
v -0.026931543448111866 3 -1.066918431658965
v -0.026931543448111873 0 -1.066918431658965
v -0.04681524716074479 3 -1.069072109134406
v -0.046815247160744783 0 -1.069072109134406
v -0.25627351804553433 3 1.0389565562834542
v -0.25627351804553433 0 1.0389565562834542
v -0.27474503098547032 3 1.0312882311918996
v -0.27474503098547032 0 1.0312882311918994
v -0.32642628439958543 3 -1.0161132460012539
v -0.32642628439958543 0 -1.0161132460012539
v -0.3461113194630569 3 -1.0125777977199335
v -0.3461113194630569 0 -1.0125777977199335
v -0.38914396432774101 3 -1.3653192392011535
v -0.38914396432774101 0 -1.3653192392011535
v -0.39230706185898534 3 1.3666350694939677
v -0.39230706185898534 0 1.3666350694939677
v -0.40882899939121248 3 -1.3617837909198331
v -0.40882899939121248 0 -1.3617837909198331
v -0.41077857479892133 3 1.3589667444024132
v -0.41077857479892133 0 1.3589667444024132
v -0.53860052693706251 3 0.9246709221549726
v -0.5386005269370624 0 0.9246709221549726
v -0.55416339698022532 3 0.91210919154093661
v -0.55416339698022532 0 0.91210919154093661
v -0.59947590912086757 3 -0.8829886082106797
v -0.59947590912086757 0 -0.8829886082106797
v -0.61736751106574661 3 -0.87405045516623026
v -0.6173675110657465 0 -0.87405045516623026
v -0.75803577966189439 3 -1.2003796927047334
v -0.75803577966189439 0 -1.2003796927047334
v -0.7614414617507449 3 1.2007510750701416
v -0.76144146175074479 0 1.2007510750701416
v -0.77592738160677333 3 -1.191441539660284
v -0.77592738160677333 0 -1.1914415396602842
v -0.77700433179390771 3 1.1881893444561056
v -0.77700433179390771 0 1.1881893444561056
v -0.77729332431682019 3 0.73547394914321407
v -0.7772933243168203 0 0.73547394914321407
v -0.78868674028826491 3 0.71903648971355694
v -0.78868674028826502 0 0.71903648971355694
v -0.82395956090568567 3 -0.67832948471832855
v -0.82395956090568567 0 -0.67832948471832855
v -0.83860825854785181 3 -0.66471274291316862
v -0.83860825854785181 0 -0.66471274291316862
v -0.95301443930182561 3 0.48669325080386738
v -0.95301443930182561 0 0.48669325080386738
v -0.95931537439879921 3 0.46771172776424497
v -0.95931537439879921 0 0.46771172776424497
v -0.98169090934211645 3 -0.4187161405548781
v -0.98169090934211645 0 -0.41871614055487805
v -0.9919099523177608 3 -0.40152395742817981
v -0.9919099523177608 0 -0.40152395742817981
v -1.0515279922097023 3 0.19848355976060367
v -1.0515279922097023 0 0.19848355976060367
v -1.0522259821437523 3 0.17849574322022194
v -1.0522259821437523 0 0.17849574322022194
v -1.0598914986442884 3 -0.12518090488444333
v -1.0598914986442884 0 -0.12518090488444336
v -1.0648530008665129 3 -0.10580608886728195
v -1.0648530008665129 0 -0.10580608886728193
v -1.0655160443402094 3 -0.93819252243828877
v -1.0655160443402094 0 -0.93819252243828877
v -1.0688884028781984 3 0.93758936968574169
v -1.0688884028781984 0 0.93758936968574169
v -1.0801647419823754 3 -0.92457578063312884
v -1.0801647419823754 0 -0.92457578063312895
v -1.080281818849643 3 0.92115191025608456
v -1.080281818849643 0 0.92115191025608456
v -1.2866745359739939 3 -0.59999857364966624
v -1.2866745359739939 0 -0.59999857364966624
v -1.2897403625285622 3 0.59846974962808708
v -1.2897403625285622 0 0.59846974962808708
v -1.2960412976255358 3 0.57948822658846466
v -1.2960412976255358 0 0.57948822658846466
v -1.2968935789496383 3 -0.5828063905229679
v -1.2968935789496383 0 -0.5828063905229679
v -1.4035943088512723 3 -0.21319630875286202
v -1.4035943088512723 0 -0.21319630875286205
v -1.4061052283881412 3 0.21086566969221193
v -1.4061052283881412 0 0.21086566969221193
v -1.4068032183221912 3 0.1908778531518302
v -1.4068032183221912 0 0.1908778531518302
v -1.4085558110734968 3 -0.19382149273570062
v -1.4085558110734968 0 -0.19382149273570062
vn 0.86041879653930664 0 -0.50958758592605591
vn 0.86041879653930664 0 -0.50958758592605591
vn 0.73135370016098022 0 0.68199837207794189
vn 0.73135370016098022 0 0.68199837207794189
vn 0.68199837207794189 0 -0.73135370016098022
vn 0.68199837207794189 0 -0.73135370016098022
vn 0.50958758592605591 0 0.86041879653930664
vn 0.50958758592605591 0 0.86041879653930664
vn 0.96913319826126099 0 -0.24653768539428711
vn 0.96913319826126099 0 -0.24653768539428711
vn 0.89386987686157227 0 0.4483264684677124
vn 0.89386987686157227 0 0.4483264684677124
vn 0.4483264684677124 0 -0.89386987686157227
vn 0.4483264684677124 0 -0.89386987686157227
vn 0.24653768539428711 0 0.96913319826126099
vn 0.24653768539428711 0 0.96913319826126099
vn 0.983970046043396 0 0.17833386361598969
vn 0.983970046043396 0 0.17833386361598969
vn 0.99933421611785889 0 0.036485139280557632
vn 0.99933421611785889 0 0.036485139280557632
vn 0.17833386361598969 0 -0.983970046043396
vn 0.17833386361598969 0 -0.983970046043396
vn -0.036485139280557632 0 0.99933421611785889
vn -0.036485139280557632 0 0.99933421611785889
vn -0.50958758592605591 0 -0.86041879653930664
vn -0.50958758592605591 0 -0.86041879653930664
vn -0.86041879653930664 0 0.50958758592605591
vn -0.86041879653930664 0 0.50958758592605591
vn -0.68199837207794189 0 0.73135370016098022
vn -0.68199837207794189 0 0.73135370016098022
vn -0.73135370016098022 0 -0.68199837207794189
vn -0.73135370016098022 0 -0.68199837207794189
vn -0.24653768539428711 0 -0.96913319826126099
vn -0.24653768539428711 0 -0.96913319826126099
vn -0.96913319826126099 0 0.24653768539428711
vn -0.96913319826126099 0 0.24653768539428711
vn -0.4483264684677124 0 0.89386987686157227
vn -0.4483264684677124 0 0.89386987686157227
vn -0.89386987686157227 0 -0.4483264684677124
vn -0.89386987686157227 0 -0.4483264684677124
vn 0.036485139280557632 0 -0.99933421611785889
vn 0.036485139280557632 0 -0.99933421611785889
vn -0.99933421611785889 0 -0.036485139280557632
vn -0.99933421611785889 0 -0.036485139280557632
vn -0.17833386361598969 0 0.983970046043396
vn -0.17833386361598969 0 0.983970046043396
vn -0.983970046043396 0 -0.17833386361598969
vn -0.983970046043396 0 -0.17833386361598969
vn 0.99435478448867798 0 -0.10610634088516235
vn 0.99435478448867798 0 -0.10610634088516235
vn 0.94857507944107056 0 0.31655225157737732
vn 0.94857507944107056 0 0.31655225157737732
vn -0.10610634088516235 0 -0.99435478448867798
vn -0.10610634088516235 0 -0.99435478448867798
vn -0.31655225157737732 0 0.94857507944107056
vn -0.31655225157737732 0 0.94857507944107056
vn 0.31655225157737732 0 -0.94857507944107056
vn 0.31655225157737732 0 -0.94857507944107056
vn -0.94857507944107056 0 -0.31655225157737732
vn -0.94857507944107056 0 -0.31655225157737732
vn 0.10610634088516235 0 0.99435478448867798
vn 0.10610634088516235 0 0.99435478448867798
vn -0.99435478448867798 0 0.10610634088516235
vn -0.99435478448867798 0 0.10610634088516235
vn 0.92418283224105835 0 -0.38195031881332397
vn 0.92418283224105835 0 -0.38195031881332397
vn 0.82096803188323975 0 0.57097411155700684
vn 0.82096803188323975 0 0.57097411155700684
vn -0.38195031881332397 0 -0.92418283224105835
vn -0.38195031881332397 0 -0.92418283224105835
vn -0.57097411155700684 0 0.82096803188323975
vn -0.57097411155700684 0 0.82096803188323975
vn 0.57097411155700684 0 -0.82096803188323975
vn 0.57097411155700684 0 -0.82096803188323975
vn -0.82096803188323975 0 -0.57097411155700684
vn -0.82096803188323975 0 -0.57097411155700684
vn 0.38195031881332397 0 0.92418283224105835
vn 0.38195031881332397 0 0.92418283224105835
vn -0.92418283224105835 0 0.38195031881332397
vn -0.92418283224105835 0 0.38195031881332397
vn 0.77913910150527954 0 -0.62685108184814453
vn 0.77913910150527954 0 -0.62685108184814453
vn -0.62685108184814453 0 -0.77913910150527954
vn -0.62685108184814453 0 -0.77913910150527954
vn 0.77913910150527954 0 -0.62685108184814453
vn 0.77913910150527954 0 -0.62685108184814453
vn 0.62685108184814453 0 0.77913910150527954
vn 0.62685108184814453 0 0.77913910150527954
vn -0.62685108184814453 0 -0.77913910150527954
vn -0.62685108184814453 0 -0.77913910150527954
vn -0.77913910150527954 0 0.62685108184814453
vn -0.77913910150527954 0 0.62685108184814453
vn 0.62685108184814453 0 0.77913910150527954
vn 0.62685108184814453 0 0.77913910150527954
vn -0.77913910150527954 0 0.62685108184814453
vn -0.77913910150527954 0 0.62685108184814453
vn 0.92418283224105835 0 -0.38195031881332397
vn 0.92418283224105835 0 -0.38195031881332397
vn -0.38195031881332397 0 -0.92418283224105835
vn -0.38195031881332397 0 -0.92418283224105835
vn 0.82096803188323975 0 0.57097411155700684
vn 0.82096803188323975 0 0.57097411155700684
vn -0.57097411155700684 0 0.82096803188323975
vn -0.57097411155700684 0 0.82096803188323975
vn 0.57097411155700684 0 -0.82096803188323975
vn 0.57097411155700684 0 -0.82096803188323975
vn 0.38195031881332397 0 0.92418283224105835
vn 0.38195031881332397 0 0.92418283224105835
vn -0.82096803188323975 0 -0.57097411155700684
vn -0.82096803188323975 0 -0.57097411155700684
vn -0.92418283224105835 0 0.38195031881332397
vn -0.92418283224105835 0 0.38195031881332397
vn 0.99435478448867798 0 -0.10610634088516235
vn 0.99435478448867798 0 -0.10610634088516235
vn -0.10610634088516235 0 -0.99435478448867798
vn -0.10610634088516235 0 -0.99435478448867798
vn 0.94857507944107056 0 0.31655225157737732
vn 0.94857507944107056 0 0.31655225157737732
vn -0.31655225157737732 0 0.94857507944107056
vn -0.31655225157737732 0 0.94857507944107056
vn 0.31655225157737732 0 -0.94857507944107056
vn 0.31655225157737732 0 -0.94857507944107056
vn 0.10610634088516235 0 0.99435478448867798
vn 0.10610634088516235 0 0.99435478448867798
vn -0.94857507944107056 0 -0.31655225157737732
vn -0.94857507944107056 0 -0.31655225157737732
vn -0.99435478448867798 0 0.10610634088516235
vn -0.99435478448867798 0 0.10610634088516235
vn 0.983970046043396 0 0.17833386361598969
vn 0.983970046043396 0 0.17833386361598969
vn 0.17833386361598969 0 -0.983970046043396
vn 0.17833386361598969 0 -0.983970046043396
vn 0.99933421611785889 0 0.036485139280557632
vn 0.99933421611785889 0 0.036485139280557632
vn -0.036485139280557632 0 0.99933421611785889
vn -0.036485139280557632 0 0.99933421611785889
vn 0.89386987686157227 0 0.4483264684677124
vn 0.89386987686157227 0 0.4483264684677124
vn 0.4483264684677124 0 -0.89386987686157227
vn 0.4483264684677124 0 -0.89386987686157227
vn 0.96913319826126099 0 -0.24653768539428711
vn 0.96913319826126099 0 -0.24653768539428711
vn 0.24653768539428711 0 0.96913319826126099
vn 0.24653768539428711 0 0.96913319826126099
vn 0.73135370016098022 0 0.68199837207794189
vn 0.73135370016098022 0 0.68199837207794189
vn 0.68199837207794189 0 -0.73135370016098022
vn 0.68199837207794189 0 -0.73135370016098022
vn 0.86041879653930664 0 -0.50958758592605591
vn 0.86041879653930664 0 -0.50958758592605591
vn 0.50958758592605591 0 0.86041879653930664
vn 0.50958758592605591 0 0.86041879653930664
vn 0.036485139280557632 0 -0.99933421611785889
vn 0.036485139280557632 0 -0.99933421611785889
vn -0.17833386361598969 0 0.983970046043396
vn -0.17833386361598969 0 0.983970046043396
vn -0.99933421611785889 0 -0.036485139280557632
vn -0.99933421611785889 0 -0.036485139280557632
vn -0.983970046043396 0 -0.17833386361598969
vn -0.983970046043396 0 -0.17833386361598969
vn -0.24653768539428711 0 -0.96913319826126099
vn -0.24653768539428711 0 -0.96913319826126099
vn -0.4483264684677124 0 0.89386987686157227
vn -0.4483264684677124 0 0.89386987686157227
vn -0.89386987686157227 0 -0.4483264684677124
vn -0.89386987686157227 0 -0.4483264684677124
vn -0.96913319826126099 0 0.24653768539428711
vn -0.96913319826126099 0 0.24653768539428711
vn -0.50958758592605591 0 -0.86041879653930664
vn -0.50958758592605591 0 -0.86041879653930664
vn -0.68199837207794189 0 0.73135370016098022
vn -0.68199837207794189 0 0.73135370016098022
vn -0.73135370016098022 0 -0.68199837207794189
vn -0.73135370016098022 0 -0.68199837207794189
vn -0.86041879653930664 0 0.50958758592605591
vn -0.86041879653930664 0 0.50958758592605591
f 6//6 5//5 3//3 4//4
f 4//4 3//3 29//29 30//30
f 30//30 29//29 31//31 32//32
f 32//32 31//31 5//5 6//6
f 14//14 13//13 11//11 12//12
f 12//12 11//11 37//37 38//38
f 38//38 37//37 39//39 40//40
f 40//40 39//39 13//13 14//14
f 22//22 21//21 17//17 18//18
f 18//18 17//17 45//45 46//46
f 46//46 45//45 47//47 48//48
f 48//48 47//47 21//21 22//22
f 54//54 53//53 49//49 50//50
f 50//50 49//49 61//61 62//62
f 62//62 61//61 63//63 64//64
f 64//64 63//63 53//53 54//54
f 70//70 69//69 65//65 66//66
f 66//66 65//65 77//77 78//78
f 78//78 77//77 79//79 80//80
f 80//80 79//79 69//69 70//70
f 90//90 89//89 85//85 86//86
f 86//86 85//85 93//93 94//94
f 94//94 93//93 95//95 96//96
f 96//96 95//95 89//89 90//90
f 110//110 109//109 105//105 106//106
f 106//106 105//105 101//101 102//102
f 102//102 101//101 103//103 104//104
f 104//104 103//103 109//109 110//110
f 126//126 125//125 121//121 122//122
f 122//122 121//121 117//117 118//118
f 118//118 117//117 119//119 120//120
f 120//120 119//119 125//125 126//126
f 158//158 157//157 153//153 154//154
f 154//154 153//153 133//133 134//134
f 134//134 133//133 135//135 136//136
f 136//136 135//135 157//157 158//158
f 168//168 167//167 161//161 162//162
f 162//162 161//161 141//141 142//142
f 142//142 141//141 143//143 144//144
f 144//144 143//143 167//167 168//168
f 176//176 175//175 169//169 170//170
f 170//170 169//169 149//149 150//150
f 150//150 149//149 151//151 152//152
f 152//152 151//151 175//175 176//176
f 172//172 171//171 173//173 174//174
f 174//174 173//173 147//147 148//148
f 148//148 147//147 145//145 146//146
f 146//146 145//145 171//171 172//172
f 164//164 163//163 165//165 166//166
f 166//166 165//165 139//139 140//140
f 140//140 139//139 137//137 138//138
f 138//138 137//137 163//163 164//164
f 156//156 155//155 159//159 160//160
f 160//160 159//159 131//131 132//132
f 132//132 131//131 129//129 130//130
f 130//130 129//129 155//155 156//156
f 124//124 123//123 127//127 128//128
f 128//128 127//127 115//115 116//116
f 116//116 115//115 113//113 114//114
f 114//114 113//113 123//123 124//124
f 108//108 107//107 111//111 112//112
f 112//112 111//111 99//99 100//100
f 100//100 99//99 97//97 98//98
f 98//98 97//97 107//107 108//108
f 88//88 87//87 91//91 92//92
f 92//92 91//91 83//83 84//84
f 84//84 83//83 81//81 82//82
f 82//82 81//81 87//87 88//88
f 68//68 67//67 71//71 72//72
f 72//72 71//71 75//75 76//76
f 76//76 75//75 73//73 74//74
f 74//74 73//73 67//67 68//68
f 52//52 51//51 55//55 56//56
f 56//56 55//55 59//59 60//60
f 60//60 59//59 57//57 58//58
f 58//58 57//57 51//51 52//52
f 20//20 19//19 23//23 24//24
f 24//24 23//23 43//43 44//44
f 44//44 43//43 41//41 42//42
f 42//42 41//41 19//19 20//20
f 10//10 9//9 15//15 16//16
f 16//16 15//15 35//35 36//36
f 36//36 35//35 33//33 34//34
f 34//34 33//33 9//9 10//10
f 2//2 1//1 7//7 8//8
f 8//8 7//7 27//27 28//28
f 28//28 27//27 25//25 26//26
f 26//26 25//25 1//1 2//2
