# Rhino

mtllib Frangisole38.mtl
usemtl diffuse_Black
v 1.3657253098936695 3 -0.081009996343348004
v 1.3657253098936695 0 -0.081009996343348031
v 1.3520853426924198 3 -0.066382922310964834
v 1.3520853426924198 0 -0.066382922310964834
v 1.3332269921299849 3 0.30704076121541646
v 1.3332269921299849 0 0.30704076121541646
v 1.3160186164738013 3 0.31723251313918593
v 1.3160186164738013 0 0.31723251313918599
v 1.2875806853309317 3 -0.46249780578337579
v 1.2875806853309317 0 -0.46249780578337585
v 1.2786141556072526 3 -0.44462040818992382
v 1.2786141556072526 0 -0.44462040818992388
v 1.1927185524701531 3 0.67021690234222797
v 1.1927185524701531 0 0.67021690234222797
v 1.1733358886125491 3 0.67514765702920232
v 1.1733358886125491 0 0.67514765702920232
v 1.1524286932439844 3 0.0017698844809539427
v 1.1524286932439844 0 0.0017698844809538872
v 1.1352203175878008 3 0.011961636404723419
v 1.1352203175878008 0 0.011961636404723364
v 1.1062458678394735 3 -0.32297849060146888
v 1.1062458678394735 0 -0.32297849060146888
v 1.105248599679207 3 0.32637487404863974
v 1.105248599679207 0 0.32637487404863974
v 1.1051239311798666 3 -0.80651679357919537
v 1.1051239311798666 0 -0.80651679357919537
v 1.101557253845965 3 -0.7868373928567185
v 1.101557253845965 0 -0.7868373928567185
v 1.0926059006382238 3 -0.30835141656908571
v 1.0926059006382238 0 -0.30835141656908571
v 1.085865935821603 3 0.33130562873561409
v 1.085865935821603 0 0.33130562873561409
v 0.97044158132010927 3 -0.6215610692024065
v 0.97044158132010927 0 -0.6215610692024065
v 0.96852783773493811 3 0.62453891234701975
v 0.96852783773493811 0 0.62453891234701975
v 0.9614750515964301 3 -0.60368367160895453
v 0.9614750515964301 0 -0.60368367160895453
v 0.95558314905954667 3 0.9790960559746672
v 0.95558314905954667 0 0.9790960559746672
v 0.94854115382851634 3 0.62380920937678774
v 0.94854115382851634 0 0.62380920937678774
v 0.93559646515312489 3 0.9783663530044352
v 0.93559646515312489 0 0.9783663530044352
v 0.83525873459131672 3 -1.065309491456419
v 0.83525873459131672 0 -1.065309491456419
v 0.83313660854969496 3 -1.0851965872992881
v 0.83313660854969496 0 -1.0851965872992881
v 0.75601788932049996 3 -0.86978846654257802
v 0.75601788932049996 0 -0.86978846654257802
v 0.75334271043422385 3 0.87210652224297136
v 0.75334271043422385 0 0.87210652224297136
v 0.75245121198659837 3 -0.85010906582010115
v 0.75245121198659837 0 -0.85010906582010115
v 0.73437120874369644 3 0.86577547781047026
v 0.73437120874369644 0 0.86577547781047026
v 0.64103208198394757 3 1.208654670060491
v 0.64103208198394757 0 1.208654670060491
v 0.62206058029342015 3 1.2023236256279899
v 0.62206058029342015 0 1.2023236256279899
v 0.50129252013504466 3 -1.2574765506978161
v 0.50129252013504466 0 -1.2574765506978161
v 0.49365351274902214 3 -1.2759602074290011
v 0.49365351274902214 0 -1.2759602074290011
v 0.48246825018127726 3 -1.0276636793117884
v 0.48246825018127726 0 -1.0276636793117884
v 0.48034612413965549 3 -1.0475507751546576
v 0.48034612413965549 0 -1.0475507751546576
v 0.47712623703573853 3 1.0490212483239936
v 0.47712623703573853 0 1.0490212483239936
v 0.46070687580020708 3 1.0376017659969738
v 0.46070687580020714 0 1.0376017659969738
v 0.27454840799059244 3 1.3402952709241127
v 0.27454840799059244 0 1.3402952709241127
v 0.25812904675506099 3 1.328875788597093
v 0.25812904675506104 0 1.328875788597093
v 0.17339858009543585 3 -1.1219630932568649
v 0.17339858009543585 0 -1.1219630932568649
v 0.16575957270941333 3 -1.14044674998805
v 0.16575957270941333 0 -1.14044674998805
v 0.16225583349160938 3 1.1409505116353891
v 0.16225583349160935 0 1.1409505116353891
v 0.14971881170867549 3 1.1253677299577094
v 0.14971881170867551 0 1.1253677299577094
v 0.12671456699884215 3 -1.3477703383026789
v 0.12671456699884215 0 -1.3477703383026789
v 0.11417754521590824 3 -1.3633531199803586
v 0.11417754521590823 0 -1.3633531199803586
v -0.11417754521590685 3 1.3633531199803586
v -0.11417754521590692 0 1.3633531199803586
v -0.12671456699884076 3 1.3477703383026789
v -0.12671456699884076 0 1.3477703383026789
v -0.14971881170867443 3 -1.1253677299577096
v -0.1497188117086744 0 -1.1253677299577096
v -0.16225583349160833 3 -1.1409505116353893
v -0.16225583349160833 0 -1.1409505116353893
v -0.1657595727094123 3 1.1404467499880504
v -0.1657595727094123 0 1.1404467499880504
v -0.17339858009543482 3 1.1219630932568654
v -0.17339858009543482 0 1.1219630932568654
v -0.25812904675505999 3 -1.3288757885970932
v -0.25812904675505999 0 -1.3288757885970932
v -0.27454840799059138 3 -1.3402952709241129
v -0.27454840799059138 0 -1.3402952709241129
v -0.46070687580020631 3 -1.0376017659969743
v -0.46070687580020631 0 -1.0376017659969743
v -0.47712623703573764 3 -1.049021248323994
v -0.47712623703573764 0 -1.049021248323994
v -0.48034612413965438 3 1.047550775154658
v -0.48034612413965438 0 1.047550775154658
v -0.48246825018127615 3 1.027663679311789
v -0.48246825018127615 0 1.027663679311789
v -0.49365351274902092 3 1.2759602074290017
v -0.49365351274902092 0 1.2759602074290017
v -0.50129252013504344 3 1.2574765506978167
v -0.50129252013504344 0 1.2574765506978167
v -0.62206058029341815 3 -1.202323625627991
v -0.62206058029341815 0 -1.202323625627991
v -0.64103208198394568 3 -1.2086546700604921
v -0.64103208198394568 0 -1.2086546700604921
v -0.7343712087436951 3 -0.86577547781047159
v -0.73437120874369499 0 -0.86577547781047159
v -0.75245121198659748 3 0.85010906582010193
v -0.75245121198659748 0 0.85010906582010193
v -0.75334271043422263 3 -0.87210652224297269
v -0.75334271043422252 0 -0.87210652224297269
v -0.75601788932049907 3 0.8697884665425788
v -0.75601788932049907 0 0.8697884665425788
v -0.83313660854969385 3 1.085196587299289
v -0.83313660854969385 0 1.085196587299289
v -0.83525873459131561 3 1.0653094914564201
v -0.83525873459131561 0 1.0653094914564201
v -0.93559646515312356 3 -0.97836635300443642
v -0.93559646515312356 0 -0.97836635300443642
v -0.94854115382851545 3 -0.62380920937678885
v -0.94854115382851545 0 -0.62380920937678885
v -0.95558314905954544 3 -0.97909605597466842
v -0.95558314905954544 0 -0.97909605597466842
v -0.96147505159642976 3 0.6036836716089552
v -0.96147505159642976 0 0.6036836716089552
v -0.96852783773493734 3 -0.62453891234702086
v -0.96852783773493734 0 -0.62453891234702086
v -0.97044158132010894 3 0.62156106920240717
v -0.97044158132010894 0 0.62156106920240717
v -1.0858659358216025 3 -0.33130562873561598
v -1.0858659358216025 0 -0.33130562873561598
v -1.0926059006382238 3 0.30835141656908571
v -1.0926059006382238 0 0.30835141656908571
v -1.1015572538459641 3 0.7868373928567195
v -1.1015572538459641 0 0.7868373928567195
v -1.1051239311798657 3 0.80651679357919637
v -1.1051239311798657 0 0.80651679357919637
v -1.1052485996792063 3 -0.32637487404864163
v -1.1052485996792063 0 -0.32637487404864163
v -1.1062458678394735 3 0.32297849060146888
v -1.1062458678394735 0 0.32297849060146888
v -1.1352203175878006 3 -0.011961636404725196
v -1.1352203175878006 0 -0.011961636404725251
v -1.152428693243984 3 -0.0017698844809558301
v -1.152428693243984 0 -0.0017698844809558301
v -1.1733358886125482 3 -0.67514765702920432
v -1.1733358886125482 0 -0.67514765702920432
v -1.192718552470152 3 -0.67021690234222997
v -1.192718552470152 0 -0.67021690234222997
v -1.2786141556072521 3 0.44462040818992471
v -1.2786141556072521 0 0.44462040818992471
v -1.2875806853309313 3 0.46249780578337668
v -1.2875806853309313 0 0.46249780578337668
v -1.3160186164738006 3 -0.31723251313918821
v -1.3160186164738006 0 -0.31723251313918821
v -1.333226992129984 3 -0.30704076121541884
v -1.333226992129984 0 -0.30704076121541879
v -1.3520853426924198 3 0.066382922310964834
v -1.3520853426924198 0 0.066382922310964834
v -1.3657253098936695 3 0.081009996343348004
v -1.3657253098936695 0 0.081009996343348031
vn 0.99939084053039551 0 -0.034899488091468811
vn 0.99939084053039551 0 -0.034899488091468811
vn 0.034899488091468811 0 0.99939084053039551
vn 0.034899488091468811 0 0.99939084053039551
vn 0.96874082088470459 0 0.24807514250278473
vn 0.96874082088470459 0 0.24807514250278473
vn -0.24807514250278473 0 0.96874082088470459
vn -0.24807514250278473 0 0.96874082088470459
vn 0.94907617568969727 0 -0.3150467574596405
vn 0.94907617568969727 0 -0.3150467574596405
vn 0.3150467574596405 0 0.94907617568969727
vn 0.3150467574596405 0 0.94907617568969727
vn 0.85960918664932251 0 0.51095211505889893
vn 0.85960918664932251 0 0.51095211505889893
vn -0.51095211505889893 0 0.85960918664932251
vn -0.51095211505889893 0 0.85960918664932251
vn 0.24807514250278473 0 -0.96874082088470459
vn 0.24807514250278473 0 -0.96874082088470459
vn -0.96874082088470459 0 -0.24807514250278473
vn -0.96874082088470459 0 -0.24807514250278473
vn -0.034899488091468811 0 -0.99939084053039551
vn -0.034899488091468811 0 -0.99939084053039551
vn 0.51095211505889893 0 -0.85960918664932251
vn 0.51095211505889893 0 -0.85960918664932251
vn 0.82187294960021973 0 -0.56967079639434814
vn 0.82187294960021973 0 -0.56967079639434814
vn 0.56967079639434814 0 0.82187294960021973
vn 0.56967079639434814 0 0.82187294960021973
vn -0.99939084053039551 0 0.034899488091468811
vn -0.99939084053039551 0 0.034899488091468811
vn -0.85960918664932251 0 -0.51095211505889893
vn -0.85960918664932251 0 -0.51095211505889893
vn -0.3150467574596405 0 -0.94907617568969727
vn -0.3150467574596405 0 -0.94907617568969727
vn 0.73243486881256104 0 -0.68083709478378296
vn 0.73243486881256104 0 -0.68083709478378296
vn -0.94907617568969727 0 0.3150467574596405
vn -0.94907617568969727 0 0.3150467574596405
vn 0.68083709478378296 0 0.73243486881256104
vn 0.68083709478378296 0 0.73243486881256104
vn -0.68083709478378296 0 -0.73243486881256104
vn -0.68083709478378296 0 -0.73243486881256104
vn -0.73243486881256104 0 0.68083709478378296
vn -0.73243486881256104 0 0.68083709478378296
vn 0.77814352512359619 0 0.62808650732040405
vn 0.77814352512359619 0 0.62808650732040405
vn 0.62808650732040405 0 -0.77814352512359619
vn 0.62808650732040405 0 -0.77814352512359619
vn -0.56967079639434814 0 -0.82187294960021973
vn -0.56967079639434814 0 -0.82187294960021973
vn 0.89458012580871582 0 -0.446907639503479
vn 0.89458012580871582 0 -0.446907639503479
vn -0.82187294960021973 0 0.56967079639434814
vn -0.82187294960021973 0 0.56967079639434814
vn -0.446907639503479 0 -0.89458012580871582
vn -0.446907639503479 0 -0.89458012580871582
vn 0.446907639503479 0 0.89458012580871582
vn 0.446907639503479 0 0.89458012580871582
vn -0.89458012580871582 0 0.446907639503479
vn -0.89458012580871582 0 0.446907639503479
vn 0.92357563972473145 0 0.38341623544692993
vn 0.92357563972473145 0 0.38341623544692993
vn 0.38341623544692993 0 -0.92357563972473145
vn 0.38341623544692993 0 -0.92357563972473145
vn -0.62808650732040405 0 0.77814352512359619
vn -0.62808650732040405 0 0.77814352512359619
vn -0.77814352512359619 0 -0.62808650732040405
vn -0.77814352512359619 0 -0.62808650732040405
vn 0.98425173759460449 0 -0.17677243053913116
vn 0.98425173759460449 0 -0.17677243053913116
vn -0.17677243053913116 0 -0.98425173759460449
vn -0.17677243053913116 0 -0.98425173759460449
vn 0.17677243053913116 0 0.98425173759460449
vn 0.17677243053913116 0 0.98425173759460449
vn -0.98425173759460449 0 0.17677243053913116
vn -0.98425173759460449 0 0.17677243053913116
vn -0.38341623544692993 0 0.92357563972473145
vn -0.38341623544692993 0 0.92357563972473145
vn -0.92357563972473145 0 -0.38341623544692993
vn -0.92357563972473145 0 -0.38341623544692993
vn 0.99418520927429199 0 0.10768389701843262
vn 0.99418520927429199 0 0.10768389701843262
vn 0.10768389701843262 0 -0.99418520927429199
vn 0.10768389701843262 0 -0.99418520927429199
vn 0.99418520927429199 0 0.10768389701843262
vn 0.99418520927429199 0 0.10768389701843262
vn 0.10768389701843262 0 -0.99418520927429199
vn 0.10768389701843262 0 -0.99418520927429199
vn -0.10768389701843262 0 0.99418520927429199
vn -0.10768389701843262 0 0.99418520927429199
vn -0.99418520927429199 0 -0.10768389701843262
vn -0.99418520927429199 0 -0.10768389701843262
vn -0.10768389701843262 0 0.99418520927429199
vn -0.10768389701843262 0 0.99418520927429199
vn -0.99418520927429199 0 -0.10768389701843262
vn -0.99418520927429199 0 -0.10768389701843262
vn 0.92357563972473145 0 0.38341623544692993
vn 0.92357563972473145 0 0.38341623544692993
vn 0.38341623544692993 0 -0.92357563972473145
vn 0.38341623544692993 0 -0.92357563972473145
vn 0.98425173759460449 0 -0.17677243053913116
vn 0.98425173759460449 0 -0.17677243053913116
vn -0.17677243053913116 0 -0.98425173759460449
vn -0.17677243053913116 0 -0.98425173759460449
vn 0.17677243053913116 0 0.98425173759460449
vn 0.17677243053913116 0 0.98425173759460449
vn -0.98425173759460449 0 0.17677243053913116
vn -0.98425173759460449 0 0.17677243053913116
vn 0.77814352512359619 0 0.62808650732040405
vn 0.77814352512359619 0 0.62808650732040405
vn 0.62808650732040405 0 -0.77814352512359619
vn 0.62808650732040405 0 -0.77814352512359619
vn -0.38341623544692993 0 0.92357563972473145
vn -0.38341623544692993 0 0.92357563972473145
vn -0.92357563972473145 0 -0.38341623544692993
vn -0.92357563972473145 0 -0.38341623544692993
vn 0.89458012580871582 0 -0.446907639503479
vn 0.89458012580871582 0 -0.446907639503479
vn -0.446907639503479 0 -0.89458012580871582
vn -0.446907639503479 0 -0.89458012580871582
vn 0.446907639503479 0 0.89458012580871582
vn 0.446907639503479 0 0.89458012580871582
vn 0.82187294960021973 0 -0.56967079639434814
vn 0.82187294960021973 0 -0.56967079639434814
vn -0.89458012580871582 0 0.446907639503479
vn -0.89458012580871582 0 0.446907639503479
vn 0.56967079639434814 0 0.82187294960021973
vn 0.56967079639434814 0 0.82187294960021973
vn -0.62808650732040405 0 0.77814352512359619
vn -0.62808650732040405 0 0.77814352512359619
vn -0.77814352512359619 0 -0.62808650732040405
vn -0.77814352512359619 0 -0.62808650732040405
vn 0.73243486881256104 0 -0.68083709478378296
vn 0.73243486881256104 0 -0.68083709478378296
vn 0.68083709478378296 0 0.73243486881256104
vn 0.68083709478378296 0 0.73243486881256104
vn -0.68083709478378296 0 -0.73243486881256104
vn -0.68083709478378296 0 -0.73243486881256104
vn 0.94907617568969727 0 -0.3150467574596405
vn 0.94907617568969727 0 -0.3150467574596405
vn -0.73243486881256104 0 0.68083709478378296
vn -0.73243486881256104 0 0.68083709478378296
vn 0.3150467574596405 0 0.94907617568969727
vn 0.3150467574596405 0 0.94907617568969727
vn 0.85960918664932251 0 0.51095211505889893
vn 0.85960918664932251 0 0.51095211505889893
vn 0.99939084053039551 0 -0.034899488091468811
vn 0.99939084053039551 0 -0.034899488091468811
vn -0.56967079639434814 0 -0.82187294960021973
vn -0.56967079639434814 0 -0.82187294960021973
vn -0.82187294960021973 0 0.56967079639434814
vn -0.82187294960021973 0 0.56967079639434814
vn -0.51095211505889893 0 0.85960918664932251
vn -0.51095211505889893 0 0.85960918664932251
vn 0.034899488091468811 0 0.99939084053039551
vn 0.034899488091468811 0 0.99939084053039551
vn 0.96874082088470459 0 0.24807514250278473
vn 0.96874082088470459 0 0.24807514250278473
vn -0.24807514250278473 0 0.96874082088470459
vn -0.24807514250278473 0 0.96874082088470459
vn 0.51095211505889893 0 -0.85960918664932251
vn 0.51095211505889893 0 -0.85960918664932251
vn -0.85960918664932251 0 -0.51095211505889893
vn -0.85960918664932251 0 -0.51095211505889893
vn -0.3150467574596405 0 -0.94907617568969727
vn -0.3150467574596405 0 -0.94907617568969727
vn -0.94907617568969727 0 0.3150467574596405
vn -0.94907617568969727 0 0.3150467574596405
vn 0.24807514250278473 0 -0.96874082088470459
vn 0.24807514250278473 0 -0.96874082088470459
vn -0.96874082088470459 0 -0.24807514250278473
vn -0.96874082088470459 0 -0.24807514250278473
vn -0.034899488091468811 0 -0.99939084053039551
vn -0.034899488091468811 0 -0.99939084053039551
vn -0.99939084053039551 0 0.034899488091468811
vn -0.99939084053039551 0 0.034899488091468811
f 2//2 1//1 3//3 4//4
f 4//4 3//3 29//29 30//30
f 30//30 29//29 21//21 22//22
f 22//22 21//21 1//1 2//2
f 10//10 9//9 11//11 12//12
f 12//12 11//11 37//37 38//38
f 38//38 37//37 33//33 34//34
f 34//34 33//33 9//9 10//10
f 26//26 25//25 27//27 28//28
f 28//28 27//27 53//53 54//54
f 54//54 53//53 49//49 50//50
f 50//50 49//49 25//25 26//26
f 48//48 47//47 45//45 46//46
f 46//46 45//45 65//65 66//66
f 66//66 65//65 67//67 68//68
f 68//68 67//67 47//47 48//48
f 64//64 63//63 61//61 62//62
f 62//62 61//61 77//77 78//78
f 78//78 77//77 79//79 80//80
f 80//80 79//79 63//63 64//64
f 88//88 87//87 85//85 86//86
f 86//86 85//85 93//93 94//94
f 94//94 93//93 95//95 96//96
f 96//96 95//95 87//87 88//88
f 104//104 103//103 101//101 102//102
f 102//102 101//101 105//105 106//106
f 106//106 105//105 107//107 108//108
f 108//108 107//107 103//103 104//104
f 120//120 119//119 117//117 118//118
f 118//118 117//117 121//121 122//122
f 122//122 121//121 125//125 126//126
f 126//126 125//125 119//119 120//120
f 138//138 137//137 133//133 134//134
f 134//134 133//133 135//135 136//136
f 136//136 135//135 141//141 142//142
f 142//142 141//141 137//137 138//138
f 164//164 163//163 161//161 162//162
f 162//162 161//161 145//145 146//146
f 146//146 145//145 153//153 154//154
f 154//154 153//153 163//163 164//164
f 172//172 171//171 169//169 170//170
f 170//170 169//169 157//157 158//158
f 158//158 157//157 159//159 160//160
f 160//160 159//159 171//171 172//172
f 176//176 175//175 173//173 174//174
f 174//174 173//173 147//147 148//148
f 148//148 147//147 155//155 156//156
f 156//156 155//155 175//175 176//176
f 168//168 167//167 165//165 166//166
f 166//166 165//165 139//139 140//140
f 140//140 139//139 143//143 144//144
f 144//144 143//143 167//167 168//168
f 152//152 151//151 149//149 150//150
f 150//150 149//149 123//123 124//124
f 124//124 123//123 127//127 128//128
f 128//128 127//127 151//151 152//152
f 130//130 129//129 131//131 132//132
f 132//132 131//131 111//111 112//112
f 112//112 111//111 109//109 110//110
f 110//110 109//109 129//129 130//130
f 114//114 113//113 115//115 116//116
f 116//116 115//115 99//99 100//100
f 100//100 99//99 97//97 98//98
f 98//98 97//97 113//113 114//114
f 90//90 89//89 91//91 92//92
f 92//92 91//91 83//83 84//84
f 84//84 83//83 81//81 82//82
f 82//82 81//81 89//89 90//90
f 74//74 73//73 75//75 76//76
f 76//76 75//75 71//71 72//72
f 72//72 71//71 69//69 70//70
f 70//70 69//69 73//73 74//74
f 58//58 57//57 59//59 60//60
f 60//60 59//59 55//55 56//56
f 56//56 55//55 51//51 52//52
f 52//52 51//51 57//57 58//58
f 40//40 39//39 43//43 44//44
f 44//44 43//43 41//41 42//42
f 42//42 41//41 35//35 36//36
f 36//36 35//35 39//39 40//40
f 14//14 13//13 15//15 16//16
f 16//16 15//15 31//31 32//32
f 32//32 31//31 23//23 24//24
f 24//24 23//23 13//13 14//14
f 6//6 5//5 7//7 8//8
f 8//8 7//7 19//19 20//20
f 20//20 19//19 17//17 18//18
f 18//18 17//17 5//5 6//6
