# Rhino

mtllib Frangisole7.mtl
usemtl diffuse_Black
v 1.2876753749561789 3 -0.026912443318128837
v 1.2876753749561789 0 -0.026912443318128837
v 1.2684501410374127 3 -0.021399696201788915
v 1.2684501410374127 0 -0.021399696201788915
v 1.2453493208855098 3 -0.017828445697099016
v 1.2453493208855098 0 -0.01782844569709896
v 1.2430975860337341 3 0.33695777550160588
v 1.2430975860337341 0 0.33695777550160583
v 1.2279333631000005 3 -0.38860237603469405
v 1.2279333631000005 0 -0.38860237603469405
v 1.2253497236840516 3 -0.017955377881465839
v 1.2253497236840516 0 -0.017955377881465784
v 1.2230979888322759 3 0.33683084331723906
v 1.2230979888322759 0 0.336830843317239
v 1.2110400065791558 3 -0.37789655960344359
v 1.2110400065791558 0 -0.37789655960344359
v 1.1999267766759847 3 0.33374917995697839
v 1.1999267766759847 0 0.33374917995697839
v 1.1898810694944808 3 -0.3679617167106447
v 1.1898810694944808 0 -0.3679617167106447
v 1.1807730646149128 3 0.32799285176258741
v 1.1807730646149128 0 0.32799285176258741
v 1.1706558355757146 3 -0.36244896959430473
v 1.1706558355757146 0 -0.36244896959430473
v 1.0978114236768433 3 0.67352967931525487
v 1.0978114236768433 0 0.67352967931525487
v 1.0786577116157714 3 0.667773351120864
v 1.0786577116157714 0 0.66777335112086389
v 1.0687114929663608 3 -0.71881005535224651
v 1.0687114929663608 0 -0.71881005535224651
v 1.0572933012594892 3 0.65828843193374231
v 1.0572933012594892 0 0.65828843193374231
v 1.0555186131200969 3 -0.70377849118340385
v 1.0555186131200969 0 -0.70377849118340385
v 1.0405371941784796 3 0.64736905120543486
v 1.0405371941784796 0 0.64736905120543486
v 1.038015730348206 3 -0.68828491778888679
v 1.038015730348206 0 -0.68828491778888679
v 1.0211223738273614 3 -0.67757910135763633
v 1.0211223738273614 0 -0.67757910135763633
v 0.86358710870958366 3 0.95553621414602041
v 0.86358710870958355 0 0.95553621414602041
v 0.84683100162857405 3 0.94461683341771296
v 0.84683100162857405 0 0.94461683341771296
v 0.82900421054032725 3 0.929497070147283
v 0.82900421054032725 0 0.929497070147283
v 0.82290897354456427 3 -0.99078401891316292
v 0.82290897354456438 0 -0.99078401891316292
v 0.8160031885826774 3 0.91429926017160879
v 0.8160031885826774 0 0.91429926017160879
v 0.81448537903694795 3 -0.97264447493953332
v 0.81448537903694795 0 -0.97264447493953332
v 0.80205653004636823 3 -0.95284736821589289
v 0.80205653004636823 0 -0.95284736821589289
v 0.78886365020010429 3 -0.93781580404705023
v 0.78886365020010429 0 -0.93781580404705023
v 0.5594001021449666 3 1.1601308876993528
v 0.5594001021449666 0 1.1601308876993528
v 0.54639908018731675 3 1.1449330777236786
v 0.54639908018731675 0 1.1449330777236786
v 0.53355412896106491 3 1.1254033836694173
v 0.53355412896106491 0 1.1254033836694173
v 0.52536145760572905 3 1.1071583806257492
v 0.52536145760572905 0 1.1071583806257492
v 0.51043926311429511 3 -1.1824905536811796
v 0.51043926311429511 0 -1.1824905536811796
v 0.50746738347528786 3 -1.1627125878754847
v 0.50746738347528775 0 -1.1627125878754847
v 0.50111947969402459 3 -1.1402157916715432
v 0.50111947969402459 0 -1.1402157916715432
v 0.49269588518640817 3 -1.1220762476979136
v 0.49269588518640811 0 -1.1220762476979136
v 0.20989382618507041 3 1.2707386562953371
v 0.20989382618507041 0 1.2707386562953371
v 0.20170115482973455 3 1.2524936532516691
v 0.20170115482973455 0 1.2524936532516691
v 0.19487866502196396 3 1.2301362080782887
v 0.19487866502196396 0 1.2301362080782887
v 0.1921580657784587 3 1.210322113606014
v 0.1921580657784587 0 1.210322113606014
v 0.15958470936917044 3 -1.2352107128103818
v 0.15958470936917049 0 -1.2352107128103818
v 0.15933739852919676 3 -1.2585846418597793
v 0.15933739852919676 0 -1.2585846418597793
v 0.15661679928569147 3 -1.2783987363320541
v 0.15661679928569147 0 -1.2783987363320541
v 0.15661282973016308 3 -1.2154327470046868
v 0.15661282973016313 0 -1.2154327470046868
v -0.15661282973016202 3 1.2154327470046868
v -0.15661282973016202 0 1.2154327470046868
v -0.15661679928569025 3 1.2783987363320541
v -0.15661679928569025 0 1.2783987363320541
v -0.15933739852919551 3 1.2585846418597795
v -0.15933739852919551 0 1.2585846418597795
v -0.15958470936916938 3 1.2352107128103818
v -0.15958470936916938 0 1.2352107128103818
v -0.19215806577845757 3 -1.2103221136060143
v -0.19215806577845757 0 -1.2103221136060143
v -0.19487866502196285 3 -1.2301362080782892
v -0.19487866502196283 0 -1.2301362080782892
v -0.20170115482973355 3 -1.2524936532516695
v -0.20170115482973358 0 -1.2524936532516695
v -0.20989382618506935 3 -1.2707386562953373
v -0.20989382618506938 0 -1.2707386562953373
v -0.49269588518640689 3 1.122076247697914
v -0.49269588518640683 0 1.122076247697914
v -0.50111947969402326 3 1.1402157916715436
v -0.50111947969402326 0 1.1402157916715436
v -0.50746738347528653 3 1.1627125878754851
v -0.50746738347528653 0 1.1627125878754851
v -0.51043926311429377 3 1.1824905536811801
v -0.51043926311429377 0 1.1824905536811801
v -0.52536145760572828 3 -1.1071583806257497
v -0.52536145760572828 0 -1.1071583806257499
v -0.53355412896106413 3 -1.1254033836694175
v -0.53355412896106402 0 -1.1254033836694177
v -0.54639908018731498 3 -1.1449330777236799
v -0.54639908018731498 0 -1.1449330777236799
v -0.5594001021449645 3 -1.1601308876993539
v -0.55940010214496461 0 -1.1601308876993539
v -0.78886365020010341 3 0.93781580404705089
v -0.78886365020010341 0 0.93781580404705089
v -0.80205653004636723 3 0.95284736821589355
v -0.80205653004636723 0 0.95284736821589355
v -0.81448537903694684 3 0.97264447493953421
v -0.81448537903694684 0 0.97264447493953421
v -0.81600318858267629 3 -0.91429926017161023
v -0.81600318858267618 0 -0.91429926017161023
v -0.82290897354456327 3 0.99078401891316381
v -0.82290897354456327 0 0.99078401891316381
v -0.8290042105403258 3 -0.92949707014728422
v -0.8290042105403258 0 -0.92949707014728422
v -0.84683100162857272 3 -0.94461683341771385
v -0.84683100162857272 0 -0.94461683341771385
v -0.86358710870958233 3 -0.9555362141460213
v -0.86358710870958233 0 -0.95553621414602141
v -1.0211223738273612 3 0.6775791013576371
v -1.0211223738273612 0 0.6775791013576371
v -1.0380157303482056 3 0.68828491778888734
v -1.0380157303482056 0 0.68828491778888734
v -1.0405371941784787 3 -0.6473690512054362
v -1.0405371941784787 0 -0.6473690512054362
v -1.0555186131200962 3 0.70377849118340463
v -1.0555186131200962 0 0.70377849118340463
v -1.0572933012594883 3 -0.65828843193374365
v -1.0572933012594883 0 -0.65828843193374376
v -1.0687114929663601 3 0.7188100553522474
v -1.0687114929663601 0 0.7188100553522474
v -1.0786577116157705 3 -0.66777335112086578
v -1.0786577116157705 0 -0.66777335112086578
v -1.0978114236768424 3 -0.67352967931525665
v -1.0978114236768421 0 -0.67352967931525665
v -1.1706558355757146 3 0.36244896959430473
v -1.1706558355757146 0 0.36244896959430473
v -1.1807730646149124 3 -0.32799285176258963
v -1.1807730646149124 0 -0.32799285176258963
v -1.1898810694944808 3 0.3679617167106447
v -1.1898810694944808 0 0.3679617167106447
v -1.1999267766759842 3 -0.3337491799569805
v -1.1999267766759842 0 -0.3337491799569805
v -1.2110400065791558 3 0.37789655960344459
v -1.2110400065791558 0 0.37789655960344459
v -1.2230979888322755 3 -0.33683084331724111
v -1.2230979888322755 0 -0.33683084331724106
v -1.2253497236840516 3 0.01795537788146373
v -1.2253497236840516 0 0.017955377881463674
v -1.2279333631000002 3 0.38860237603469483
v -1.2279333631000002 0 0.38860237603469483
v -1.2430975860337334 3 -0.33695777550160794
v -1.2430975860337334 0 -0.33695777550160788
v -1.2453493208855095 3 0.017828445697096906
v -1.2453493208855095 0 0.017828445697096851
v -1.2684501410374127 3 0.021399696201788915
v -1.2684501410374127 0 0.021399696201788915
v -1.2876753749561789 3 0.026912443318128837
v -1.2876753749561789 0 0.026912443318128837
vn 0.87461972236633301 0 0.48480963706970215
vn 0.87461972236633301 0 0.48480963706970215
vn -0.48480963706970215 0 0.87461972236633301
vn -0.48480963706970215 0 0.87461972236633301
vn 0.71158027648925781 0 -0.70260483026504517
vn 0.71158027648925781 0 -0.70260483026504517
vn 0.70260483026504517 0 0.71158027648925781
vn 0.70260483026504517 0 0.71158027648925781
vn 0.97577810287475586 0 0.2187625914812088
vn 0.97577810287475586 0 0.2187625914812088
vn -0.70260483026504517 0 -0.71158027648925781
vn -0.70260483026504517 0 -0.71158027648925781
vn -0.71158027648925781 0 0.70260483026504517
vn -0.71158027648925781 0 0.70260483026504517
vn -0.2187625914812088 0 0.97577810287475586
vn -0.2187625914812088 0 0.97577810287475586
vn 0.8807029128074646 0 -0.47366905212402344
vn 0.8807029128074646 0 -0.47366905212402344
vn 0.48480963706970215 0 -0.87461972236633301
vn 0.48480963706970215 0 -0.87461972236633301
vn -0.47366905212402344 0 -0.8807029128074646
vn -0.47366905212402344 0 -0.8807029128074646
vn -0.87461972236633301 0 -0.48480963706970215
vn -0.87461972236633301 0 -0.48480963706970215
vn 0.47366905212402344 0 0.8807029128074646
vn 0.47366905212402344 0 0.8807029128074646
vn -0.8807029128074646 0 0.47366905212402344
vn -0.8807029128074646 0 0.47366905212402344
vn 0.99788480997085571 0 -0.065007299184799194
vn 0.99788480997085571 0 -0.065007299184799194
vn 0.97847622632980347 0 -0.20635946094989777
vn 0.97847622632980347 0 -0.20635946094989777
vn 0.065007299184799194 0 0.99788480997085571
vn 0.065007299184799194 0 0.99788480997085571
vn -0.20635946094989777 0 -0.97847622632980347
vn -0.20635946094989777 0 -0.97847622632980347
vn 0.2187625914812088 0 -0.97577810287475586
vn 0.2187625914812088 0 -0.97577810287475586
vn -0.97577810287475586 0 -0.2187625914812088
vn -0.97577810287475586 0 -0.2187625914812088
vn 0.20635946094989777 0 0.97847622632980347
vn 0.20635946094989777 0 0.97847622632980347
vn -0.97847622632980347 0 0.20635946094989777
vn -0.97847622632980347 0 0.20635946094989777
vn 0.9969792366027832 0 0.077668167650699615
vn 0.9969792366027832 0 0.077668167650699615
vn 0.93914878368377686 0 -0.34351068735122681
vn 0.93914878368377686 0 -0.34351068735122681
vn 0.077668167650699615 0 -0.9969792366027832
vn 0.077668167650699615 0 -0.9969792366027832
vn 0.34351068735122681 0 0.93914878368377686
vn 0.34351068735122681 0 0.93914878368377686
vn -0.065007299184799194 0 -0.99788480997085571
vn -0.065007299184799194 0 -0.99788480997085571
vn -0.99788480997085571 0 0.065007299184799194
vn -0.99788480997085571 0 0.065007299184799194
vn -0.077668167650699615 0 0.9969792366027832
vn -0.077668167650699615 0 0.9969792366027832
vn -0.9969792366027832 0 -0.077668167650699615
vn -0.9969792366027832 0 -0.077668167650699615
vn 0.93471294641494751 0 0.3554036021232605
vn 0.93471294641494751 0 0.3554036021232605
vn 0.3554036021232605 0 -0.93471294641494751
vn 0.3554036021232605 0 -0.93471294641494751
vn 0.80432850122451782 0 -0.59418487548828125
vn 0.80432850122451782 0 -0.59418487548828125
vn 0.59418487548828125 0 0.80432850122451782
vn 0.59418487548828125 0 0.80432850122451782
vn -0.34351068735122681 0 -0.93914878368377686
vn -0.34351068735122681 0 -0.93914878368377686
vn -0.93914878368377686 0 0.34351068735122681
vn -0.93914878368377686 0 0.34351068735122681
vn -0.3554036021232605 0 0.93471294641494751
vn -0.3554036021232605 0 0.93471294641494751
vn -0.93471294641494751 0 -0.3554036021232605
vn -0.93471294641494751 0 -0.3554036021232605
vn 0.79672175645828247 0 0.60434627532958984
vn 0.79672175645828247 0 0.60434627532958984
vn 0.60434627532958984 0 -0.79672175645828247
vn 0.60434627532958984 0 -0.79672175645828247
vn -0.59418487548828125 0 -0.80432850122451782
vn -0.59418487548828125 0 -0.80432850122451782
vn 0.79672175645828247 0 0.60434627532958984
vn 0.79672175645828247 0 0.60434627532958984
vn 0.60434627532958984 0 -0.79672175645828247
vn 0.60434627532958984 0 -0.79672175645828247
vn -0.80432850122451782 0 0.59418487548828125
vn -0.80432850122451782 0 0.59418487548828125
vn 0.80432850122451782 0 -0.59418487548828125
vn 0.80432850122451782 0 -0.59418487548828125
vn -0.60434627532958984 0 0.79672175645828247
vn -0.60434627532958984 0 0.79672175645828247
vn -0.79672175645828247 0 -0.60434627532958984
vn -0.79672175645828247 0 -0.60434627532958984
vn 0.59418487548828125 0 0.80432850122451782
vn 0.59418487548828125 0 0.80432850122451782
vn -0.60434627532958984 0 0.79672175645828247
vn -0.60434627532958984 0 0.79672175645828247
vn -0.79672175645828247 0 -0.60434627532958984
vn -0.79672175645828247 0 -0.60434627532958984
vn 0.93471294641494751 0 0.3554036021232605
vn 0.93471294641494751 0 0.3554036021232605
vn 0.3554036021232605 0 -0.93471294641494751
vn 0.3554036021232605 0 -0.93471294641494751
vn 0.93914878368377686 0 -0.34351068735122681
vn 0.93914878368377686 0 -0.34351068735122681
vn 0.34351068735122681 0 0.93914878368377686
vn 0.34351068735122681 0 0.93914878368377686
vn -0.59418487548828125 0 -0.80432850122451782
vn -0.59418487548828125 0 -0.80432850122451782
vn -0.80432850122451782 0 0.59418487548828125
vn -0.80432850122451782 0 0.59418487548828125
vn -0.3554036021232605 0 0.93471294641494751
vn -0.3554036021232605 0 0.93471294641494751
vn -0.93471294641494751 0 -0.3554036021232605
vn -0.93471294641494751 0 -0.3554036021232605
vn 0.9969792366027832 0 0.077668167650699615
vn 0.9969792366027832 0 0.077668167650699615
vn 0.077668167650699615 0 -0.9969792366027832
vn 0.077668167650699615 0 -0.9969792366027832
vn 0.99788480997085571 0 -0.065007299184799194
vn 0.99788480997085571 0 -0.065007299184799194
vn 0.065007299184799194 0 0.99788480997085571
vn 0.065007299184799194 0 0.99788480997085571
vn -0.34351068735122681 0 -0.93914878368377686
vn -0.34351068735122681 0 -0.93914878368377686
vn -0.077668167650699615 0 0.9969792366027832
vn -0.077668167650699615 0 0.9969792366027832
vn -0.93914878368377686 0 0.34351068735122681
vn -0.93914878368377686 0 0.34351068735122681
vn -0.9969792366027832 0 -0.077668167650699615
vn -0.9969792366027832 0 -0.077668167650699615
vn 0.97847622632980347 0 -0.20635946094989777
vn 0.97847622632980347 0 -0.20635946094989777
vn -0.20635946094989777 0 -0.97847622632980347
vn -0.20635946094989777 0 -0.97847622632980347
vn 0.97577810287475586 0 0.2187625914812088
vn 0.97577810287475586 0 0.2187625914812088
vn -0.2187625914812088 0 0.97577810287475586
vn -0.2187625914812088 0 0.97577810287475586
vn 0.20635946094989777 0 0.97847622632980347
vn 0.20635946094989777 0 0.97847622632980347
vn -0.065007299184799194 0 -0.99788480997085571
vn -0.065007299184799194 0 -0.99788480997085571
vn -0.97847622632980347 0 0.20635946094989777
vn -0.97847622632980347 0 0.20635946094989777
vn -0.99788480997085571 0 0.065007299184799194
vn -0.99788480997085571 0 0.065007299184799194
vn 0.8807029128074646 0 -0.47366905212402344
vn 0.8807029128074646 0 -0.47366905212402344
vn -0.47366905212402344 0 -0.8807029128074646
vn -0.47366905212402344 0 -0.8807029128074646
vn 0.87461972236633301 0 0.48480963706970215
vn 0.87461972236633301 0 0.48480963706970215
vn 0.47366905212402344 0 0.8807029128074646
vn 0.47366905212402344 0 0.8807029128074646
vn -0.48480963706970215 0 0.87461972236633301
vn -0.48480963706970215 0 0.87461972236633301
vn -0.8807029128074646 0 0.47366905212402344
vn -0.8807029128074646 0 0.47366905212402344
vn 0.2187625914812088 0 -0.97577810287475586
vn 0.2187625914812088 0 -0.97577810287475586
vn 0.71158027648925781 0 -0.70260483026504517
vn 0.71158027648925781 0 -0.70260483026504517
vn 0.70260483026504517 0 0.71158027648925781
vn 0.70260483026504517 0 0.71158027648925781
vn -0.97577810287475586 0 -0.2187625914812088
vn -0.97577810287475586 0 -0.2187625914812088
vn -0.70260483026504517 0 -0.71158027648925781
vn -0.70260483026504517 0 -0.71158027648925781
vn -0.71158027648925781 0 0.70260483026504517
vn -0.71158027648925781 0 0.70260483026504517
vn 0.48480963706970215 0 -0.87461972236633301
vn 0.48480963706970215 0 -0.87461972236633301
vn -0.87461972236633301 0 -0.48480963706970215
vn -0.87461972236633301 0 -0.48480963706970215
f 2//2 1//1 3//3 4//4
f 4//4 3//3 23//23 24//24
f 24//24 23//23 19//19 20//20
f 20//20 19//19 1//1 2//2
f 10//10 9//9 15//15 16//16
f 16//16 15//15 39//39 40//40
f 40//40 39//39 37//37 38//38
f 38//38 37//37 9//9 10//10
f 30//30 29//29 33//33 34//34
f 34//34 33//33 55//55 56//56
f 56//56 55//55 53//53 54//54
f 54//54 53//53 29//29 30//30
f 48//48 47//47 51//51 52//52
f 52//52 51//51 71//71 72//72
f 72//72 71//71 69//69 70//70
f 70//70 69//69 47//47 48//48
f 66//66 65//65 67//67 68//68
f 68//68 67//67 87//87 88//88
f 88//88 87//87 81//81 82//82
f 82//82 81//81 65//65 66//66
f 86//86 85//85 83//83 84//84
f 84//84 83//83 97//97 98//98
f 98//98 97//97 99//99 100//100
f 100//100 99//99 85//85 86//86
f 104//104 103//103 101//101 102//102
f 102//102 101//101 113//113 114//114
f 114//114 113//113 115//115 116//116
f 116//116 115//115 103//103 104//104
f 120//120 119//119 117//117 118//118
f 118//118 117//117 127//127 128//128
f 128//128 127//127 131//131 132//132
f 132//132 131//131 119//119 120//120
f 136//136 135//135 133//133 134//134
f 134//134 133//133 141//141 142//142
f 142//142 141//141 145//145 146//146
f 146//146 145//145 135//135 136//136
f 152//152 151//151 149//149 150//150
f 150//150 149//149 155//155 156//156
f 156//156 155//155 159//159 160//160
f 160//160 159//159 151//151 152//152
f 170//170 169//169 163//163 164//164
f 164//164 163//163 165//165 166//166
f 166//166 165//165 171//171 172//172
f 172//172 171//171 169//169 170//170
f 176//176 175//175 173//173 174//174
f 174//174 173//173 153//153 154//154
f 154//154 153//153 157//157 158//158
f 158//158 157//157 175//175 176//176
f 168//168 167//167 161//161 162//162
f 162//162 161//161 137//137 138//138
f 138//138 137//137 139//139 140//140
f 140//140 139//139 167//167 168//168
f 148//148 147//147 143//143 144//144
f 144//144 143//143 121//121 122//122
f 122//122 121//121 123//123 124//124
f 124//124 123//123 147//147 148//148
f 130//130 129//129 125//125 126//126
f 126//126 125//125 105//105 106//106
f 106//106 105//105 107//107 108//108
f 108//108 107//107 129//129 130//130
f 112//112 111//111 109//109 110//110
f 110//110 109//109 89//89 90//90
f 90//90 89//89 95//95 96//96
f 96//96 95//95 111//111 112//112
f 92//92 91//91 93//93 94//94
f 94//94 93//93 79//79 80//80
f 80//80 79//79 77//77 78//78
f 78//78 77//77 91//91 92//92
f 74//74 73//73 75//75 76//76
f 76//76 75//75 63//63 64//64
f 64//64 63//63 61//61 62//62
f 62//62 61//61 73//73 74//74
f 58//58 57//57 59//59 60//60
f 60//60 59//59 49//49 50//50
f 50//50 49//49 45//45 46//46
f 46//46 45//45 57//57 58//58
f 42//42 41//41 43//43 44//44
f 44//44 43//43 35//35 36//36
f 36//36 35//35 31//31 32//32
f 32//32 31//31 41//41 42//42
f 26//26 25//25 27//27 28//28
f 28//28 27//27 21//21 22//22
f 22//22 21//21 17//17 18//18
f 18//18 17//17 25//25 26//26
f 8//8 7//7 13//13 14//14
f 14//14 13//13 11//11 12//12
f 12//12 11//11 5//5 6//6
f 6//6 5//5 7//7 8//8
