# Rhino

mtllib Frangisole24.mtl
usemtl diffuse_Black
v 1.334169469383073 3 -0.051349719624873252
v 1.334169469383073 0 -0.051349719624873197
v 1.3173960580241646 3 -0.04045693892457275
v 1.3173960580241646 0 -0.040456938924572694
v 1.2945931192870477 3 0.32660928069192424
v 1.2945931192870477 0 0.32660928069192424
v 1.2754302979868206 3 0.33233521116788789
v 1.2754302979868206 0 0.33233521116788783
v 1.2656593436810348 3 -0.42514867104620696
v 1.2656593436810348 0 -0.42514867104620696
v 1.2526342242964252 3 -0.40997150843204661
v 1.2526342242964252 0 -0.40997150843204661
v 1.1930170117309649 3 -0.013332813547747846
v 1.1930170117309649 0 -0.013332813547747818
v 1.173854190430738 3 -0.0076068830717842262
v 1.173854190430738 0 -0.0076068830717842262
v 1.1501365339081211 3 0.67810833950724803
v 1.1501365339081211 0 0.67810833950724803
v 1.1484477278091223 3 0.32331899215271021
v 1.1484477278091223 0 0.32331899215271021
v 1.1409351525077289 3 -0.34890447398786084
v 1.1409351525077287 0 -0.34890447398786084
v 1.1301367604826336 3 0.67820353892513197
v 1.1301367604826336 0 0.67820353892513197
v 1.1284479543836348 3 0.32341419157059415
v 1.1284479543836348 0 0.32341419157059415
v 1.1241617411488205 3 -0.33801169328756031
v 1.1241617411488203 0 -0.33801169328756037
v 1.0946130251199055 3 -0.76450460559588063
v 1.0946130251199055 0 -0.76450460559588063
v 1.0863914154187682 3 -0.74627262452079823
v 1.0863914154187682 0 -0.74627262452079834
v 1.0108380390618099 3 0.63377741596104142
v 1.0108380390618099 0 0.63377741596104131
v 0.9964215126309367 3 -0.65620996896028361
v 0.99642151263093659 0 -0.65620996896028361
v 0.99162157621076263 3 0.62823417183018138
v 0.99162157621076263 0 0.62823417183018126
v 0.98339639324632711 3 -0.64103280634612325
v 0.98339639324632699 0 -0.64103280634612325
v 0.91250272667730026 3 0.97467109352127379
v 0.91250272667730026 0 0.97467109352127379
v 0.89328626382625298 3 0.96912784939041374
v 0.89328626382625298 0 0.96912784939041374
v 0.83488766917788226 3 -1.041924923684133
v 0.83488766917788226 0 -1.041924923684133
v 0.83213563508240773 3 -1.0221151708250653
v 0.83213563508240773 0 -1.0221151708250653
v 0.79133626407500524 3 0.89289096274763224
v 0.79133626407500524 0 0.89289096274763236
v 0.7744599153338847 3 0.88215835574056833
v 0.7744599153338847 0 0.88215835574056845
v 0.77118372774769695 3 -0.91035323487849817
v 0.77118372774769695 0 -0.91035323487849817
v 0.76296211804655956 3 -0.89212125380341589
v 0.76296211804655956 0 -0.89212125380341589
v 0.6009433753937593 3 1.1922717921303929
v 0.6009433753937593 0 1.1922717921303929
v 0.58406702665263877 3 1.181539185123329
v 0.58406702665263877 0 1.181539185123329
v 0.51046517449284745 3 -1.2151520247420657
v 0.51046517449284734 0 -1.2151520247420657
v 0.50772513123081686 3 1.0796677939594335
v 0.50772513123081686 0 1.0796677939594335
v 0.5075246795472208 3 -1.2349346810216137
v 0.5075246795472208 0 -1.2349346810216137
v 0.49455611800711829 3 1.0646153160666063
v 0.49455611800711824 0 1.0646153160666063
v 0.48346922364856448 3 -1.0907450957860108
v 0.48346922364856448 0 -1.0907450957860108
v 0.48071718955308995 3 -1.070935342926943
v 0.48071718955308995 0 -1.070935342926943
v 0.24069916578368111 3 1.3132817208544798
v 0.24069916578368111 0 1.3132817208544798
v 0.22753015255998249 3 1.2982292429616527
v 0.22753015255998255 0 1.2982292429616527
v 0.18298112781193054 3 1.1789763615362496
v 0.18298112781193049 0 1.1789763615362496
v 0.17458632523790057 3 1.1608234749960031
v 0.17458632523790057 0 1.1608234749960031
v 0.15952741329723744 3 -1.1629886196642525
v 0.15952741329723744 0 -1.1629886196642525
v 0.15658691835161084 3 -1.1827712759438005
v 0.15658691835161084 0 -1.1827712759438005
v 0.14743986131916328 3 -1.3097444884018183
v 0.14743986131916326 0 -1.3097444884018183
v 0.13904505874513343 3 -1.3278973749420646
v 0.1390450587451334 0 -1.3278973749420646
v -0.13904505874513204 3 1.3278973749420646
v -0.13904505874513204 0 1.3278973749420646
v -0.14743986131916198 3 1.3097444884018181
v -0.14743986131916195 0 1.3097444884018181
v -0.15658691835160976 3 1.1827712759438009
v -0.15658691835160971 0 1.1827712759438009
v -0.15952741329723641 3 1.1629886196642527
v -0.15952741329723635 0 1.1629886196642527
v -0.17458632523789941 3 -1.1608234749960036
v -0.17458632523789941 0 -1.1608234749960036
v -0.18298112781192927 3 -1.1789763615362499
v -0.18298112781192927 0 -1.1789763615362499
v -0.22753015255998152 3 -1.2982292429616531
v -0.22753015255998155 0 -1.2982292429616531
v -0.24069916578367997 3 -1.31328172085448
v -0.24069916578368006 0 -1.31328172085448
v -0.48071718955308901 3 1.0709353429269437
v -0.48071718955308895 0 1.0709353429269437
v -0.48346922364856354 3 1.0907450957860114
v -0.48346922364856348 0 1.0907450957860114
v -0.49455611800711752 3 -1.064615316066607
v -0.49455611800711752 0 -1.064615316066607
v -0.50752467954721947 3 1.2349346810216142
v -0.50752467954721947 0 1.2349346810216142
v -0.50772513123081597 3 -1.0796677939594339
v -0.50772513123081597 0 -1.0796677939594339
v -0.51046517449284612 3 1.215152024742066
v -0.51046517449284612 0 1.215152024742066
v -0.58406702665263677 3 -1.1815391851233301
v -0.58406702665263677 0 -1.1815391851233301
v -0.6009433753937572 3 -1.192271792130394
v -0.6009433753937572 0 -1.192271792130394
v -0.76296211804655867 3 0.89212125380341667
v -0.76296211804655867 0 0.89212125380341667
v -0.77118372774769606 3 0.91035323487849906
v -0.77118372774769606 0 0.91035323487849895
v -0.77445991533388336 3 -0.88215835574056967
v -0.77445991533388325 0 -0.88215835574056967
v -0.79133626407500379 3 -0.89289096274763358
v -0.79133626407500368 0 -0.89289096274763358
v -0.83213563508240662 3 1.0221151708250664
v -0.83213563508240662 0 1.0221151708250664
v -0.83488766917788115 3 1.0419249236841341
v -0.83488766917788115 0 1.0419249236841341
v -0.89328626382625176 3 -0.96912784939041496
v -0.89328626382625176 0 -0.96912784939041496
v -0.91250272667729893 3 -0.97467109352127501
v -0.91250272667729893 0 -0.97467109352127501
v -0.98339639324632655 3 0.64103280634612392
v -0.98339639324632655 0 0.64103280634612392
v -0.99162157621076186 3 -0.62823417183018238
v -0.99162157621076186 0 -0.62823417183018238
v -0.99642151263093615 3 0.65620996896028427
v -0.99642151263093615 0 0.65620996896028427
v -1.010838039061809 3 -0.63377741596104242
v -1.010838039061809 0 -0.63377741596104242
v -1.0863914154187675 3 0.74627262452079923
v -1.0863914154187675 0 0.74627262452079934
v -1.0946130251199049 3 0.76450460559588163
v -1.0946130251199049 0 0.76450460559588163
v -1.1241617411488205 3 0.33801169328756031
v -1.1241617411488203 0 0.33801169328756037
v -1.1284479543836343 3 -0.32341419157059614
v -1.1284479543836343 0 -0.32341419157059614
v -1.1301367604826327 3 -0.67820353892513396
v -1.1301367604826327 0 -0.67820353892513396
v -1.1409351525077289 3 0.34890447398786084
v -1.1409351525077287 0 0.34890447398786084
v -1.1484477278091219 3 -0.3233189921527122
v -1.1484477278091219 0 -0.3233189921527122
v -1.1501365339081202 3 -0.67810833950725002
v -1.1501365339081202 0 -0.67810833950725002
v -1.173854190430738 3 0.0076068830717821445
v -1.173854190430738 0 0.0076068830717822
v -1.1930170117309651 3 0.013332813547745792
v -1.1930170117309651 0 0.013332813547745848
v -1.252634224296425 3 0.40997150843204738
v -1.252634224296425 0 0.40997150843204738
v -1.2656593436810346 3 0.42514867104620774
v -1.2656593436810346 0 0.42514867104620774
v -1.2754302979868199 3 -0.33233521116788994
v -1.2754302979868199 0 -0.33233521116789
v -1.294593119287047 3 -0.3266092806919263
v -1.294593119287047 0 -0.32660928069192635
v -1.3173960580241646 3 0.04045693892457275
v -1.3173960580241646 0 0.040456938924572694
v -1.334169469383073 3 0.051349719624873252
v -1.334169469383073 0 0.051349719624873197
vn 0.97814762592315674 0 0.20791167020797729
vn 0.97814762592315674 0 0.20791167020797729
vn -0.20791167020797729 0 0.97814762592315674
vn -0.20791167020797729 0 0.97814762592315674
vn 0.87995022535324097 0 0.47506585717201233
vn 0.87995022535324097 0 0.47506585717201233
vn -0.47506585717201233 0 0.87995022535324097
vn -0.47506585717201233 0 0.87995022535324097
vn 0.99710124731063843 0 -0.076086230576038361
vn 0.99710124731063843 0 -0.076086230576038361
vn 0.076086230576038361 0 0.99710124731063843
vn 0.076086230576038361 0 0.99710124731063843
vn 0.47506585717201233 0 -0.87995022535324097
vn 0.47506585717201233 0 -0.87995022535324097
vn -0.87995022535324097 0 -0.47506585717201233
vn -0.87995022535324097 0 -0.47506585717201233
vn 0.71046459674835205 0 0.70373296737670898
vn 0.71046459674835205 0 0.70373296737670898
vn 0.70373296737670898 0 -0.71046459674835205
vn 0.70373296737670898 0 -0.71046459674835205
vn 0.20791167020797729 0 -0.97814762592315674
vn 0.20791167020797729 0 -0.97814762592315674
vn -0.70373296737670898 0 0.71046459674835205
vn -0.70373296737670898 0 0.71046459674835205
vn -0.71046459674835205 0 -0.70373296737670898
vn -0.71046459674835205 0 -0.70373296737670898
vn -0.97814762592315674 0 -0.20791167020797729
vn -0.97814762592315674 0 -0.20791167020797729
vn 0.93527567386627197 0 -0.35392007231712341
vn 0.93527567386627197 0 -0.35392007231712341
vn 0.35392007231712341 0 0.93527567386627197
vn 0.35392007231712341 0 0.93527567386627197
vn 0.87538784742355347 0 -0.48342126607894897
vn 0.87538784742355347 0 -0.48342126607894897
vn -0.076086230576038361 0 -0.99710124731063843
vn -0.076086230576038361 0 -0.99710124731063843
vn -0.48342126607894897 0 -0.87538784742355347
vn -0.48342126607894897 0 -0.87538784742355347
vn -0.99710124731063843 0 0.076086230576038361
vn -0.99710124731063843 0 0.076086230576038361
vn 0.48342126607894897 0 0.87538784742355347
vn 0.48342126607894897 0 0.87538784742355347
vn -0.87538784742355347 0 0.48342126607894897
vn -0.87538784742355347 0 0.48342126607894897
vn 0.797679603099823 0 -0.60308146476745605
vn 0.797679603099823 0 -0.60308146476745605
vn 0.60308146476745605 0 0.797679603099823
vn 0.60308146476745605 0 0.797679603099823
vn 0.97612398862838745 0 -0.21721407771110535
vn 0.97612398862838745 0 -0.21721407771110535
vn -0.21721407771110535 0 -0.97612398862838745
vn -0.21721407771110535 0 -0.97612398862838745
vn -0.35392007231712341 0 -0.93527567386627197
vn -0.35392007231712341 0 -0.93527567386627197
vn -0.93527567386627197 0 0.35392007231712341
vn -0.93527567386627197 0 0.35392007231712341
vn 0.21721407771110535 0 0.97612398862838745
vn 0.21721407771110535 0 0.97612398862838745
vn -0.97612398862838745 0 0.21721407771110535
vn -0.97612398862838745 0 0.21721407771110535
vn 0.80338472127914429 0 0.59546035528182983
vn 0.80338472127914429 0 0.59546035528182983
vn 0.99778038263320923 0 0.066590540111064911
vn 0.99778038263320923 0 0.066590540111064911
vn 0.59546035528182983 0 -0.80338472127914429
vn 0.59546035528182983 0 -0.80338472127914429
vn 0.066590540111064911 0 -0.99778038263320923
vn 0.066590540111064911 0 -0.99778038263320923
vn -0.60308146476745605 0 -0.797679603099823
vn -0.60308146476745605 0 -0.797679603099823
vn -0.797679603099823 0 0.60308146476745605
vn -0.797679603099823 0 0.60308146476745605
vn -0.066590540111064911 0 0.99778038263320923
vn -0.066590540111064911 0 0.99778038263320923
vn -0.99778038263320923 0 -0.066590540111064911
vn -0.99778038263320923 0 -0.066590540111064911
vn 0.93860256671905518 0 0.34500035643577576
vn 0.93860256671905518 0 0.34500035643577576
vn 0.34500035643577576 0 -0.93860256671905518
vn 0.34500035643577576 0 -0.93860256671905518
vn -0.59546035528182983 0 0.80338472127914429
vn -0.59546035528182983 0 0.80338472127914429
vn -0.80338472127914429 0 -0.59546035528182983
vn -0.80338472127914429 0 -0.59546035528182983
vn 0.93860256671905518 0 0.34500035643577576
vn 0.93860256671905518 0 0.34500035643577576
vn 0.34500035643577576 0 -0.93860256671905518
vn 0.34500035643577576 0 -0.93860256671905518
vn -0.34500035643577576 0 0.93860256671905518
vn -0.34500035643577576 0 0.93860256671905518
vn -0.93860256671905518 0 -0.34500035643577576
vn -0.93860256671905518 0 -0.34500035643577576
vn 0.80338472127914429 0 0.59546035528182983
vn 0.80338472127914429 0 0.59546035528182983
vn 0.59546035528182983 0 -0.80338472127914429
vn 0.59546035528182983 0 -0.80338472127914429
vn -0.34500035643577576 0 0.93860256671905518
vn -0.34500035643577576 0 0.93860256671905518
vn -0.93860256671905518 0 -0.34500035643577576
vn -0.93860256671905518 0 -0.34500035643577576
vn 0.99778038263320923 0 0.066590540111064911
vn 0.99778038263320923 0 0.066590540111064911
vn 0.066590540111064911 0 -0.99778038263320923
vn 0.066590540111064911 0 -0.99778038263320923
vn 0.797679603099823 0 -0.60308146476745605
vn 0.797679603099823 0 -0.60308146476745605
vn 0.60308146476745605 0 0.797679603099823
vn 0.60308146476745605 0 0.797679603099823
vn -0.066590540111064911 0 0.99778038263320923
vn -0.066590540111064911 0 0.99778038263320923
vn -0.59546035528182983 0 0.80338472127914429
vn -0.59546035528182983 0 0.80338472127914429
vn -0.99778038263320923 0 -0.066590540111064911
vn -0.99778038263320923 0 -0.066590540111064911
vn -0.80338472127914429 0 -0.59546035528182983
vn -0.80338472127914429 0 -0.59546035528182983
vn 0.97612398862838745 0 -0.21721407771110535
vn 0.97612398862838745 0 -0.21721407771110535
vn -0.21721407771110535 0 -0.97612398862838745
vn -0.21721407771110535 0 -0.97612398862838745
vn 0.93527567386627197 0 -0.35392007231712341
vn 0.93527567386627197 0 -0.35392007231712341
vn 0.35392007231712341 0 0.93527567386627197
vn 0.35392007231712341 0 0.93527567386627197
vn 0.21721407771110535 0 0.97612398862838745
vn 0.21721407771110535 0 0.97612398862838745
vn -0.97612398862838745 0 0.21721407771110535
vn -0.97612398862838745 0 0.21721407771110535
vn -0.60308146476745605 0 -0.797679603099823
vn -0.60308146476745605 0 -0.797679603099823
vn -0.797679603099823 0 0.60308146476745605
vn -0.797679603099823 0 0.60308146476745605
vn 0.87538784742355347 0 -0.48342126607894897
vn 0.87538784742355347 0 -0.48342126607894897
vn -0.48342126607894897 0 -0.87538784742355347
vn -0.48342126607894897 0 -0.87538784742355347
vn 0.99710124731063843 0 -0.076086230576038361
vn 0.99710124731063843 0 -0.076086230576038361
vn 0.48342126607894897 0 0.87538784742355347
vn 0.48342126607894897 0 0.87538784742355347
vn 0.076086230576038361 0 0.99710124731063843
vn 0.076086230576038361 0 0.99710124731063843
vn -0.87538784742355347 0 0.48342126607894897
vn -0.87538784742355347 0 0.48342126607894897
vn -0.35392007231712341 0 -0.93527567386627197
vn -0.35392007231712341 0 -0.93527567386627197
vn -0.93527567386627197 0 0.35392007231712341
vn -0.93527567386627197 0 0.35392007231712341
vn 0.97814762592315674 0 0.20791167020797729
vn 0.97814762592315674 0 0.20791167020797729
vn 0.71046459674835205 0 0.70373296737670898
vn 0.71046459674835205 0 0.70373296737670898
vn 0.70373296737670898 0 -0.71046459674835205
vn 0.70373296737670898 0 -0.71046459674835205
vn -0.20791167020797729 0 0.97814762592315674
vn -0.20791167020797729 0 0.97814762592315674
vn -0.70373296737670898 0 0.71046459674835205
vn -0.70373296737670898 0 0.71046459674835205
vn -0.71046459674835205 0 -0.70373296737670898
vn -0.71046459674835205 0 -0.70373296737670898
vn 0.87995022535324097 0 0.47506585717201233
vn 0.87995022535324097 0 0.47506585717201233
vn -0.47506585717201233 0 0.87995022535324097
vn -0.47506585717201233 0 0.87995022535324097
vn -0.076086230576038361 0 -0.99710124731063843
vn -0.076086230576038361 0 -0.99710124731063843
vn -0.99710124731063843 0 0.076086230576038361
vn -0.99710124731063843 0 0.076086230576038361
vn 0.47506585717201233 0 -0.87995022535324097
vn 0.47506585717201233 0 -0.87995022535324097
vn -0.87995022535324097 0 -0.47506585717201233
vn -0.87995022535324097 0 -0.47506585717201233
vn 0.20791167020797729 0 -0.97814762592315674
vn 0.20791167020797729 0 -0.97814762592315674
vn -0.97814762592315674 0 -0.20791167020797729
vn -0.97814762592315674 0 -0.20791167020797729
f 2//2 1//1 3//3 4//4
f 4//4 3//3 27//27 28//28
f 28//28 27//27 21//21 22//22
f 22//22 21//21 1//1 2//2
f 10//10 9//9 11//11 12//12
f 12//12 11//11 39//39 40//40
f 40//40 39//39 35//35 36//36
f 36//36 35//35 9//9 10//10
f 30//30 29//29 31//31 32//32
f 32//32 31//31 55//55 56//56
f 56//56 55//55 53//53 54//54
f 54//54 53//53 29//29 30//30
f 46//46 45//45 47//47 48//48
f 48//48 47//47 71//71 72//72
f 72//72 71//71 69//69 70//70
f 70//70 69//69 45//45 46//46
f 66//66 65//65 61//61 62//62
f 62//62 61//61 81//81 82//82
f 82//82 81//81 83//83 84//84
f 84//84 83//83 65//65 66//66
f 88//88 87//87 85//85 86//86
f 86//86 85//85 97//97 98//98
f 98//98 97//97 99//99 100//100
f 100//100 99//99 87//87 88//88
f 104//104 103//103 101//101 102//102
f 102//102 101//101 109//109 110//110
f 110//110 109//109 113//113 114//114
f 114//114 113//113 103//103 104//104
f 120//120 119//119 117//117 118//118
f 118//118 117//117 125//125 126//126
f 126//126 125//125 127//127 128//128
f 128//128 127//127 119//119 120//120
f 136//136 135//135 133//133 134//134
f 134//134 133//133 139//139 140//140
f 140//140 139//139 143//143 144//144
f 144//144 143//143 135//135 136//136
f 160//160 159//159 153//153 154//154
f 154//154 153//153 151//151 152//152
f 152//152 151//151 157//157 158//158
f 158//158 157//157 159//159 160//160
f 172//172 171//171 169//169 170//170
f 170//170 169//169 161//161 162//162
f 162//162 161//161 163//163 164//164
f 164//164 163//163 171//171 172//172
f 176//176 175//175 173//173 174//174
f 174//174 173//173 149//149 150//150
f 150//150 149//149 155//155 156//156
f 156//156 155//155 175//175 176//176
f 168//168 167//167 165//165 166//166
f 166//166 165//165 137//137 138//138
f 138//138 137//137 141//141 142//142
f 142//142 141//141 167//167 168//168
f 148//148 147//147 145//145 146//146
f 146//146 145//145 121//121 122//122
f 122//122 121//121 123//123 124//124
f 124//124 123//123 147//147 148//148
f 132//132 131//131 129//129 130//130
f 130//130 129//129 105//105 106//106
f 106//106 105//105 107//107 108//108
f 108//108 107//107 131//131 132//132
f 112//112 111//111 115//115 116//116
f 116//116 115//115 95//95 96//96
f 96//96 95//95 93//93 94//94
f 94//94 93//93 111//111 112//112
f 90//90 89//89 91//91 92//92
f 92//92 91//91 79//79 80//80
f 80//80 79//79 77//77 78//78
f 78//78 77//77 89//89 90//90
f 74//74 73//73 75//75 76//76
f 76//76 75//75 67//67 68//68
f 68//68 67//67 63//63 64//64
f 64//64 63//63 73//73 74//74
f 58//58 57//57 59//59 60//60
f 60//60 59//59 51//51 52//52
f 52//52 51//51 49//49 50//50
f 50//50 49//49 57//57 58//58
f 42//42 41//41 43//43 44//44
f 44//44 43//43 37//37 38//38
f 38//38 37//37 33//33 34//34
f 34//34 33//33 41//41 42//42
f 18//18 17//17 23//23 24//24
f 24//24 23//23 25//25 26//26
f 26//26 25//25 19//19 20//20
f 20//20 19//19 17//17 18//18
f 6//6 5//5 7//7 8//8
f 8//8 7//7 15//15 16//16
f 16//16 15//15 13//13 14//14
f 14//14 13//13 5//5 6//6
