# Rhino

mtllib Frangisole55.mtl
usemtl diffuse_Black
v 1.392992399567089 3 -0.12590305940002569
v 1.392992399567089 0 -0.12590305940002569
v 1.3842249766313075 3 -0.10792717847404262
v 1.3842249766313075 0 -0.10792717847404262
v 1.3720374105219486 3 0.27164820953981883
v 1.3720374105219486 0 0.27164820953981877
v 1.3585607389236054 3 0.28642587250222262
v 1.3585607389236054 0 0.28642587250222257
v 1.3010954288440926 3 -0.51325441124160776
v 1.3010954288440926 0 -0.51325441124160776
v 1.297747539035258 3 -0.49353661131798821
v 1.297747539035258 0 -0.49353661131798821
v 1.2399281102969897 3 0.64719215609685743
v 1.2399281102969897 0 0.64719215609685743
v 1.2228339898201306 3 0.65757440272861345
v 1.2228339898201306 0 0.65757440272861345
v 1.1098865707941807 3 0.032576525117917268
v 1.1098865707941807 0 0.032576525117917324
v 1.1061343138283641 3 -0.83916264308819533
v 1.1061343138283641 0 -0.83916264308819533
v 1.1037914443886074 3 -0.85902494312591104
v 1.1037914443886074 0 -0.85902494312591104
v 1.0964098991958375 3 0.047354188080321089
v 1.0964098991958375 0 0.047354188080321089
v 1.0741062339005862 3 -0.28143423443839122
v 1.0741062339005862 0 -0.28143423443839122
v 1.0653388109648048 3 -0.26345835351240821
v 1.0653388109648048 0 -0.26345835351240821
v 1.0557504984716259 3 0.34394812834922889
v 1.0557504984716259 0 0.34394812834922883
v 1.0386563779947668 3 0.35433037498098496
v 1.0386563779947668 0 0.35433037498098496
v 1.0073672087121772 3 0.97030444316688547
v 1.0073672087121772 0 0.97030444316688547
v 0.98804050333518811 3 0.97545016559148734
v 0.98804050333518811 0 0.97545016559148734
v 0.9513081978921043 3 -0.5726448660743424
v 0.95130819789210419 0 -0.5726448660743424
v 0.9479603080832697 3 -0.55292706615072285
v 0.94796030808326959 0 -0.55292706615072285
v 0.91608379955287544 3 0.62745509975996805
v 0.91608379955287544 0 0.62745509975996794
v 0.89675709417588634 3 0.63260082218456981
v 0.89675709417588634 0 0.63260082218456981
v 0.82490866494915926 3 -1.1168047082077992
v 0.82490866494915926 0 -1.1168047082077992
v 0.81706484160923931 3 -1.1352023829362019
v 0.8170648416092392 0 -1.1352023829362019
v 0.75378369877785778 3 -0.79760091627338603
v 0.75378369877785778 0 -0.79760091627338603
v 0.75144082933810108 3 -0.81746321631110175
v 0.75144082933810108 0 -0.81746321631110175
v 0.70220143935448553 3 0.86012939060731608
v 0.70220143935448553 0 0.86012939060731608
v 0.6931954069209767 3 1.2148084348742501
v 0.6931954069209767 0 1.2148084348742501
v 0.68220788380666764 3 0.85962171299671175
v 0.68220788380666764 0 0.85962171299671175
v 0.6732018513731588 3 1.2143007572636457
v 0.6732018513731588 0 1.2143007572636457
v 0.49854001712173301 3 -0.97765788367487483
v 0.49854001712173301 0 -0.97765788367487483
v 0.49069619378181306 3 -0.99605555840327753
v 0.49069619378181306 0 -0.99605555840327753
v 0.47685382195650405 3 -1.3039698977617491
v 0.47685382195650405 0 -1.3039698977617491
v 0.46414450463440748 3 -1.3194124769895286
v 0.46414450463440748 0 -1.3194124769895286
v 0.43143089469235485 3 1.023121113614111
v 0.43143089469235485 0 1.023121113614111
v 0.4123902479379391 3 1.0170011649890369
v 0.4123902479379391 0 1.0170011649890369
v 0.32286503585286058 3 1.3608958719320499
v 0.32286503585286058 0 1.3608958719320499
v 0.30382438909844484 3 1.3547759233069758
v 0.30382438909844484 0 1.3547759233069758
v 0.20290758821005062 3 -1.0785108236963377
v 0.20290758821005067 0 -1.0785108236963379
v 0.19019827088795405 3 -1.0939534029241171
v 0.1901982708879541 0 -1.0939534029241174
v 0.12570838476057633 3 1.103225648731442
v 0.12570838476057636 0 1.103225648731442
v 0.10916320676051908 3 1.0919892309327659
v 0.10916320676051905 0 1.0919892309327659
v 0.090167118267809154 3 -1.3854952012066266
v 0.09016711826780914 0 -1.3854952012066266
v 0.073621940267751901 3 -1.396731619005303
v 0.073621940267751901 0 -1.396731619005303
v -0.07362194026775036 3 1.3967316190053027
v -0.07362194026775036 0 1.3967316190053027
v -0.090167118267807614 3 1.3854952012066266
v -0.090167118267807669 0 1.3854952012066266
v -0.10916320676051813 3 -1.0919892309327659
v -0.10916320676051812 0 -1.0919892309327659
v -0.12570838476057539 3 -1.103225648731442
v -0.12570838476057536 0 -1.103225648731442
v -0.19019827088795307 3 1.0939534029241176
v -0.19019827088795313 0 1.0939534029241176
v -0.20290758821004964 3 1.0785108236963381
v -0.20290758821004964 0 1.0785108236963381
v -0.30382438909844389 3 -1.3547759233069758
v -0.30382438909844389 0 -1.3547759233069758
v -0.32286503585285964 3 -1.3608958719320499
v -0.32286503585285964 0 -1.3608958719320499
v -0.41239024793793827 3 -1.0170011649890374
v -0.41239024793793827 0 -1.0170011649890374
v -0.43143089469235402 3 -1.0231211136141114
v -0.43143089469235402 0 -1.0231211136141114
v -0.46414450463440621 3 1.319412476989529
v -0.46414450463440621 0 1.319412476989529
v -0.47685382195650278 3 1.3039698977617495
v -0.47685382195650272 0 1.3039698977617495
v -0.49069619378181206 3 0.99605555840327831
v -0.49069619378181212 0 0.99605555840327831
v -0.49854001712173202 3 0.97765788367487538
v -0.49854001712173207 0 0.97765788367487538
v -0.6732018513731568 3 -1.2143007572636468
v -0.6732018513731568 0 -1.2143007572636468
v -0.6822078838066663 3 -0.85962171299671297
v -0.6822078838066663 0 -0.85962171299671297
v -0.6931954069209747 3 -1.2148084348742512
v -0.6931954069209747 0 -1.2148084348742512
v -0.7022014393544842 3 -0.8601293906073173
v -0.7022014393544842 0 -0.8601293906073173
v -0.7514408293381003 3 0.8174632163111023
v -0.7514408293381003 0 0.8174632163111023
v -0.753783698777857 3 0.7976009162733867
v -0.753783698777857 0 0.7976009162733867
v -0.8170648416092382 3 1.135202382936203
v -0.8170648416092382 0 1.135202382936203
v -0.82490866494915815 3 1.1168047082078001
v -0.82490866494915815 0 1.1168047082078001
v -0.89675709417588545 3 -0.63260082218457081
v -0.89675709417588545 0 -0.63260082218457081
v -0.91608379955287456 3 -0.62745509975996905
v -0.91608379955287456 0 -0.62745509975996905
v -0.94796030808326925 3 0.55292706615072351
v -0.94796030808326925 0 0.55292706615072351
v -0.95130819789210364 3 0.57264486607434306
v -0.95130819789210364 0 0.57264486607434306
v -0.98804050333518678 3 -0.97545016559148845
v -0.98804050333518678 0 -0.97545016559148845
v -1.0073672087121759 3 -0.9703044431668868
v -1.0073672087121759 0 -0.9703044431668868
v -1.0386563779947662 3 -0.35433037498098663
v -1.0386563779947662 0 -0.35433037498098663
v -1.0557504984716253 3 -0.3439481283492305
v -1.0557504984716253 0 -0.3439481283492305
v -1.0653388109648048 3 0.26345835351240821
v -1.0653388109648048 0 0.26345835351240821
v -1.0741062339005862 3 0.28143423443839122
v -1.0741062339005862 0 0.28143423443839122
v -1.0964098991958375 3 -0.04735418808032299
v -1.0964098991958375 0 -0.047354188080323018
v -1.1037914443886065 3 0.85902494312591193
v -1.1037914443886065 0 0.85902494312591193
v -1.1061343138283632 3 0.83916264308819633
v -1.1061343138283632 0 0.83916264308819633
v -1.1098865707941807 3 -0.032576525117919225
v -1.1098865707941807 0 -0.032576525117919253
v -1.2228339898201295 3 -0.65757440272861567
v -1.2228339898201295 0 -0.65757440272861567
v -1.2399281102969886 3 -0.64719215609685965
v -1.2399281102969886 0 -0.64719215609685954
v -1.2977475390352577 3 0.49353661131798909
v -1.2977475390352577 0 0.49353661131798904
v -1.3010954288440921 3 0.51325441124160864
v -1.3010954288440921 0 0.51325441124160864
v -1.3585607389236047 3 -0.28642587250222484
v -1.3585607389236047 0 -0.28642587250222484
v -1.3720374105219479 3 -0.27164820953982111
v -1.3720374105219479 0 -0.27164820953982111
v -1.3842249766313075 3 0.10792717847404262
v -1.3842249766313075 0 0.10792717847404262
v -1.392992399567089 3 0.12590305940002569
v -1.392992399567089 0 0.12590305940002569
vn 0.94551855325698853 0 -0.32556813955307007
vn 0.94551855325698853 0 -0.32556813955307007
vn 0.32556813955307007 0 0.94551855325698853
vn 0.32556813955307007 0 0.94551855325698853
vn 0.99894160032272339 0 -0.045996963977813721
vn 0.99894160032272339 0 -0.045996963977813721
vn 0.045996963977813721 0 0.99894160032272339
vn 0.045996963977813721 0 0.99894160032272339
vn 0.81549525260925293 0 -0.57876372337341309
vn 0.81549525260925293 0 -0.57876372337341309
vn 0.57876372337341309 0 0.81549525260925293
vn 0.57876372337341309 0 0.81549525260925293
vn 0.9714362621307373 0 0.2373005747795105
vn 0.9714362621307373 0 0.2373005747795105
vn -0.2373005747795105 0 0.9714362621307373
vn -0.2373005747795105 0 0.9714362621307373
vn -0.045996963977813721 0 -0.99894160032272339
vn -0.045996963977813721 0 -0.99894160032272339
vn 0.78507125377655029 0 0.61940544843673706
vn 0.78507125377655029 0 0.61940544843673706
vn 0.61940544843673706 0 -0.78507125377655029
vn 0.61940544843673706 0 -0.78507125377655029
vn -0.99894160032272339 0 0.045996963977813721
vn -0.99894160032272339 0 0.045996963977813721
vn -0.32556813955307007 0 -0.94551855325698853
vn -0.32556813955307007 0 -0.94551855325698853
vn -0.94551855325698853 0 0.32556813955307007
vn -0.94551855325698853 0 0.32556813955307007
vn 0.2373005747795105 0 -0.9714362621307373
vn 0.2373005747795105 0 -0.9714362621307373
vn -0.9714362621307373 0 -0.2373005747795105
vn -0.9714362621307373 0 -0.2373005747795105
vn 0.8652309775352478 0 0.50137346982955933
vn 0.8652309775352478 0 0.50137346982955933
vn -0.50137346982955933 0 0.8652309775352478
vn -0.50137346982955933 0 0.8652309775352478
vn -0.57876372337341309 0 -0.81549525260925293
vn -0.57876372337341309 0 -0.81549525260925293
vn -0.81549525260925293 0 0.57876372337341309
vn -0.81549525260925293 0 0.57876372337341309
vn 0.50137346982955933 0 -0.8652309775352478
vn 0.50137346982955933 0 -0.8652309775352478
vn -0.8652309775352478 0 -0.50137346982955933
vn -0.8652309775352478 0 -0.50137346982955933
vn 0.92777705192565918 0 0.37313500046730042
vn 0.92777705192565918 0 0.37313500046730042
vn 0.37313500046730042 0 -0.92777705192565918
vn 0.37313500046730042 0 -0.92777705192565918
vn -0.61940544843673706 0 0.78507125377655029
vn -0.61940544843673706 0 0.78507125377655029
vn -0.78507125377655029 0 -0.61940544843673706
vn -0.78507125377655029 0 -0.61940544843673706
vn 0.72482806444168091 0 -0.68892985582351685
vn 0.72482806444168091 0 -0.68892985582351685
vn 0.68892985582351685 0 0.72482806444168091
vn 0.68892985582351685 0 0.72482806444168091
vn -0.68892985582351685 0 -0.72482806444168091
vn -0.68892985582351685 0 -0.72482806444168091
vn -0.72482806444168091 0 0.68892985582351685
vn -0.72482806444168091 0 0.68892985582351685
vn -0.37313500046730042 0 0.92777705192565918
vn -0.37313500046730042 0 0.92777705192565918
vn -0.92777705192565918 0 -0.37313500046730042
vn -0.92777705192565918 0 -0.37313500046730042
vn 0.99531984329223633 0 0.096635393798351288
vn 0.99531984329223633 0 0.096635393798351288
vn 0.096635393798351288 0 -0.99531984329223633
vn 0.096635393798351288 0 -0.99531984329223633
vn 0.88956135511398315 0 -0.4568156898021698
vn 0.88956135511398315 0 -0.4568156898021698
vn -0.4568156898021698 0 -0.88956135511398315
vn -0.4568156898021698 0 -0.88956135511398315
vn 0.4568156898021698 0 0.88956135511398315
vn 0.4568156898021698 0 0.88956135511398315
vn -0.88956135511398315 0 0.4568156898021698
vn -0.88956135511398315 0 0.4568156898021698
vn -0.096635393798351288 0 0.99531984329223633
vn -0.096635393798351288 0 0.99531984329223633
vn -0.99531984329223633 0 -0.096635393798351288
vn -0.99531984329223633 0 -0.096635393798351288
vn 0.98222774267196655 0 -0.18769301474094391
vn 0.98222774267196655 0 -0.18769301474094391
vn -0.18769301474094391 0 -0.98222774267196655
vn -0.18769301474094391 0 -0.98222774267196655
vn 0.98222774267196655 0 -0.18769301474094391
vn 0.98222774267196655 0 -0.18769301474094391
vn -0.18769301474094391 0 -0.98222774267196655
vn -0.18769301474094391 0 -0.98222774267196655
vn 0.18769301474094391 0 0.98222774267196655
vn 0.18769301474094391 0 0.98222774267196655
vn -0.98222774267196655 0 0.18769301474094391
vn -0.98222774267196655 0 0.18769301474094391
vn 0.18769301474094391 0 0.98222774267196655
vn 0.18769301474094391 0 0.98222774267196655
vn -0.98222774267196655 0 0.18769301474094391
vn -0.98222774267196655 0 0.18769301474094391
vn 0.99531984329223633 0 0.096635393798351288
vn 0.99531984329223633 0 0.096635393798351288
vn 0.096635393798351288 0 -0.99531984329223633
vn 0.096635393798351288 0 -0.99531984329223633
vn 0.88956135511398315 0 -0.4568156898021698
vn 0.88956135511398315 0 -0.4568156898021698
vn -0.4568156898021698 0 -0.88956135511398315
vn -0.4568156898021698 0 -0.88956135511398315
vn 0.4568156898021698 0 0.88956135511398315
vn 0.4568156898021698 0 0.88956135511398315
vn -0.88956135511398315 0 0.4568156898021698
vn -0.88956135511398315 0 0.4568156898021698
vn -0.096635393798351288 0 0.99531984329223633
vn -0.096635393798351288 0 0.99531984329223633
vn -0.99531984329223633 0 -0.096635393798351288
vn -0.99531984329223633 0 -0.096635393798351288
vn 0.92777705192565918 0 0.37313500046730042
vn 0.92777705192565918 0 0.37313500046730042
vn 0.37313500046730042 0 -0.92777705192565918
vn 0.37313500046730042 0 -0.92777705192565918
vn 0.72482806444168091 0 -0.68892985582351685
vn 0.72482806444168091 0 -0.68892985582351685
vn 0.68892985582351685 0 0.72482806444168091
vn 0.68892985582351685 0 0.72482806444168091
vn -0.68892985582351685 0 -0.72482806444168091
vn -0.68892985582351685 0 -0.72482806444168091
vn -0.72482806444168091 0 0.68892985582351685
vn -0.72482806444168091 0 0.68892985582351685
vn 0.78507125377655029 0 0.61940544843673706
vn 0.78507125377655029 0 0.61940544843673706
vn 0.61940544843673706 0 -0.78507125377655029
vn 0.61940544843673706 0 -0.78507125377655029
vn -0.37313500046730042 0 0.92777705192565918
vn -0.37313500046730042 0 0.92777705192565918
vn -0.92777705192565918 0 -0.37313500046730042
vn -0.92777705192565918 0 -0.37313500046730042
vn 0.8652309775352478 0 0.50137346982955933
vn 0.8652309775352478 0 0.50137346982955933
vn -0.50137346982955933 0 0.8652309775352478
vn -0.50137346982955933 0 0.8652309775352478
vn 0.81549525260925293 0 -0.57876372337341309
vn 0.81549525260925293 0 -0.57876372337341309
vn 0.57876372337341309 0 0.81549525260925293
vn 0.57876372337341309 0 0.81549525260925293
vn 0.50137346982955933 0 -0.8652309775352478
vn 0.50137346982955933 0 -0.8652309775352478
vn -0.8652309775352478 0 -0.50137346982955933
vn -0.8652309775352478 0 -0.50137346982955933
vn 0.9714362621307373 0 0.2373005747795105
vn 0.9714362621307373 0 0.2373005747795105
vn -0.2373005747795105 0 0.9714362621307373
vn -0.2373005747795105 0 0.9714362621307373
vn 0.94551855325698853 0 -0.32556813955307007
vn 0.94551855325698853 0 -0.32556813955307007
vn 0.32556813955307007 0 0.94551855325698853
vn 0.32556813955307007 0 0.94551855325698853
vn 0.99894160032272339 0 -0.045996963977813721
vn 0.99894160032272339 0 -0.045996963977813721
vn -0.61940544843673706 0 0.78507125377655029
vn -0.61940544843673706 0 0.78507125377655029
vn -0.78507125377655029 0 -0.61940544843673706
vn -0.78507125377655029 0 -0.61940544843673706
vn 0.045996963977813721 0 0.99894160032272339
vn 0.045996963977813721 0 0.99894160032272339
vn 0.2373005747795105 0 -0.9714362621307373
vn 0.2373005747795105 0 -0.9714362621307373
vn -0.9714362621307373 0 -0.2373005747795105
vn -0.9714362621307373 0 -0.2373005747795105
vn -0.57876372337341309 0 -0.81549525260925293
vn -0.57876372337341309 0 -0.81549525260925293
vn -0.81549525260925293 0 0.57876372337341309
vn -0.81549525260925293 0 0.57876372337341309
vn -0.045996963977813721 0 -0.99894160032272339
vn -0.045996963977813721 0 -0.99894160032272339
vn -0.99894160032272339 0 0.045996963977813721
vn -0.99894160032272339 0 0.045996963977813721
vn -0.32556813955307007 0 -0.94551855325698853
vn -0.32556813955307007 0 -0.94551855325698853
vn -0.94551855325698853 0 0.32556813955307007
vn -0.94551855325698853 0 0.32556813955307007
f 2//2 1//1 3//3 4//4
f 4//4 3//3 27//27 28//28
f 28//28 27//27 25//25 26//26
f 26//26 25//25 1//1 2//2
f 10//10 9//9 11//11 12//12
f 12//12 11//11 39//39 40//40
f 40//40 39//39 37//37 38//38
f 38//38 37//37 9//9 10//10
f 22//22 21//21 19//19 20//20
f 20//20 19//19 49//49 50//50
f 50//50 49//49 51//51 52//52
f 52//52 51//51 21//21 22//22
f 48//48 47//47 45//45 46//46
f 46//46 45//45 61//61 62//62
f 62//62 61//61 63//63 64//64
f 64//64 63//63 47//47 48//48
f 68//68 67//67 65//65 66//66
f 66//66 65//65 77//77 78//78
f 78//78 77//77 79//79 80//80
f 80//80 79//79 67//67 68//68
f 88//88 87//87 85//85 86//86
f 86//86 85//85 93//93 94//94
f 94//94 93//93 95//95 96//96
f 96//96 95//95 87//87 88//88
f 104//104 103//103 101//101 102//102
f 102//102 101//101 105//105 106//106
f 106//106 105//105 107//107 108//108
f 108//108 107//107 103//103 104//104
f 122//122 121//121 117//117 118//118
f 118//118 117//117 119//119 120//120
f 120//120 119//119 123//123 124//124
f 124//124 123//123 121//121 122//122
f 144//144 143//143 141//141 142//142
f 142//142 141//141 133//133 134//134
f 134//134 133//133 135//135 136//136
f 136//136 135//135 143//143 144//144
f 164//164 163//163 161//161 162//162
f 162//162 161//161 145//145 146//146
f 146//146 145//145 147//147 148//148
f 148//148 147//147 163//163 164//164
f 172//172 171//171 169//169 170//170
f 170//170 169//169 153//153 154//154
f 154//154 153//153 159//159 160//160
f 160//160 159//159 171//171 172//172
f 176//176 175//175 173//173 174//174
f 174//174 173//173 149//149 150//150
f 150//150 149//149 151//151 152//152
f 152//152 151//151 175//175 176//176
f 168//168 167//167 165//165 166//166
f 166//166 165//165 137//137 138//138
f 138//138 137//137 139//139 140//140
f 140//140 139//139 167//167 168//168
f 156//156 155//155 157//157 158//158
f 158//158 157//157 127//127 128//128
f 128//128 127//127 125//125 126//126
f 126//126 125//125 155//155 156//156
f 130//130 129//129 131//131 132//132
f 132//132 131//131 115//115 116//116
f 116//116 115//115 113//113 114//114
f 114//114 113//113 129//129 130//130
f 110//110 109//109 111//111 112//112
f 112//112 111//111 99//99 100//100
f 100//100 99//99 97//97 98//98
f 98//98 97//97 109//109 110//110
f 90//90 89//89 91//91 92//92
f 92//92 91//91 83//83 84//84
f 84//84 83//83 81//81 82//82
f 82//82 81//81 89//89 90//90
f 74//74 73//73 75//75 76//76
f 76//76 75//75 71//71 72//72
f 72//72 71//71 69//69 70//70
f 70//70 69//69 73//73 74//74
f 56//56 55//55 59//59 60//60
f 60//60 59//59 57//57 58//58
f 58//58 57//57 53//53 54//54
f 54//54 53//53 55//55 56//56
f 34//34 33//33 35//35 36//36
f 36//36 35//35 43//43 44//44
f 44//44 43//43 41//41 42//42
f 42//42 41//41 33//33 34//34
f 14//14 13//13 15//15 16//16
f 16//16 15//15 31//31 32//32
f 32//32 31//31 29//29 30//30
f 30//30 29//29 13//13 14//14
f 6//6 5//5 7//7 8//8
f 8//8 7//7 23//23 24//24
f 24//24 23//23 17//17 18//18
f 18//18 17//17 5//5 6//6
