# Rhino

mtllib Frangisole6.mtl
usemtl diffuse_Black
v 1.2847385037192938 3 -0.025916858956022693
v 1.2847385037192938 0 -0.025916858956022748
v 1.2654199871935126 3 -0.020740478053972333
v 1.2654199871935126 0 -0.020740478053972389
v 1.2484424554220037 3 -0.017607267887943145
v 1.2484424554220037 0 -0.017607267887943118
v 1.2399991901896448 3 0.33708561945900534
v 1.2399991901896448 0 0.33708561945900534
v 1.2284481195281414 3 -0.018083221838865238
v 1.2284481195281414 0 -0.01808322183886521
v 1.2253959443116862 3 -0.38681970759193107
v 1.2253959443116862 0 -0.38681970759193096
v 1.2200048542957824 3 0.33660966550808324
v 1.2200048542957824 0 0.33660966550808324
v 1.2083183184712631 3 -0.37641035143246959
v 1.2083183184712631 0 -0.37641035143246959
v 1.2028323045405049 3 0.3348328352124037
v 1.2028323045405049 0 0.33483283521240381
v 1.1929112233383812 3 -0.36862093485846131
v 1.1929112233383812 0 -0.36862093485846126
v 1.1837819714617881 3 0.32874310536700579
v 1.1837819714617881 0 0.32874310536700579
v 1.1735927068126 3 -0.36344455395641095
v 1.1735927068126 0 -0.3634445539564109
v 1.0948025168299682 3 0.6727794257108366
v 1.0948025168299682 0 0.6727794257108366
v 1.0757521837512514 3 0.66668969586543858
v 1.0757521837512514 0 0.66668969586543858
v 1.0667790932062358 3 -0.7163847240241219
v 1.0667790932062358 0 -0.7163847240241219
v 1.0597758338642917 3 0.66014677333138894
v 1.0597758338642917 0 0.66014677333138883
v 1.053325885732211 3 -0.70158569673646431
v 1.053325885732211 0 -0.70158569673646431
v 1.0432128482900644 3 0.64893662128657126
v 1.0432128482900644 0 0.64893662128657126
v 1.0407374184560987 3 -0.68977112595986101
v 1.0407374184560989 0 -0.6897711259598609
v 1.0236597926156756 3 -0.67936176980039953
v 1.0236597926156759 0 -0.67936176980039953
v 0.86091145459799878 3 0.95396864406488424
v 0.86091145459799878 0 0.95396864406488424
v 0.84434846902377159 3 0.94275849202006656
v 0.84434846902377159 0 0.94275849202006656
v 0.83086262785796117 3 0.93197954591909471
v 0.83086262785796117 0 0.93197954591909471
v 0.82173814434877046 3 -0.98791251061988039
v 0.82173814434877035 0 -0.98791251061988039
v 0.81812882437557954 3 0.91655715152418726
v 0.81812882437557954 0 0.91655715152418726
v 0.81299925410138341 3 -0.96992274138166856
v 0.8129992541013833 0 -0.96992274138166856
v 0.80424925743425435 3 -0.95504016266283254
v 0.80424925743425435 0 -0.95504016266283254
v 0.79079604996022934 3 -0.94024113537517495
v 0.79079604996022934 0 -0.94024113537517495
v 0.55727446635206468 3 1.1578729963467744
v 0.55727446635206468 0 1.1578729963467744
v 0.54454066286968306 3 1.142450601951867
v 0.54454066286968306 0 1.142450601951867
v 0.53463787307288846 3 1.1283088783922144
v 0.53463787307288846 0 1.1283088783922144
v 0.52676486870964978 3 1.1099236723205814
v 0.52676486870964978 0 1.1099236723205814
v 0.51012485810108588 3 -1.1794055009471438
v 0.51012485810108588 0 -1.1794055009471438
v 0.50680825799599838 3 -1.1596824138727801
v 0.50680825799599838 0 -1.1596824138727801
v 0.50260560462958925 3 -1.1429375252294081
v 0.50260560462958925 0 -1.1429375252294081
v 0.4938667143822022 3 -1.1249477559911962
v 0.4938667143822022 0 -1.1249477559911962
v 0.2084904150811496 3 1.2679733646005054
v 0.2084904150811496 0 1.2679733646005054
v 0.20061741071791092 3 1.2495881585288724
v 0.20061741071791092 0 1.2495881585288724
v 0.19509993742531184 3 1.2332293358492727
v 0.1950999374253119 0 1.2332293358492727
v 0.19272555617216575 3 1.2133707781558072
v 0.1927255561721658 0 1.2133707781558072
v 0.16024383484845997 3 -1.2382408868130863
v 0.16024383484845997 0 -1.2382408868130863
v 0.1595586709325448 3 -1.2554915140887957
v 0.15955867093254475 0 -1.2554915140887957
v 0.15718428967939874 3 -1.2753500717822612
v 0.15718428967939868 0 -1.2753500717822612
v 0.15692723474337247 3 -1.2185177997387227
v 0.15692723474337247 0 -1.2185177997387227
v -0.15692723474337139 3 1.2185177997387229
v -0.15692723474337131 0 1.2185177997387229
v -0.15718428967939732 3 1.2753500717822612
v -0.15718428967939735 0 1.2753500717822612
v -0.15955867093254339 3 1.2554915140887957
v -0.15955867093254344 0 1.2554915140887957
v -0.16024383484845883 3 1.2382408868130863
v -0.16024383484845875 0 1.2382408868130863
v -0.19272555617216472 3 -1.2133707781558072
v -0.19272555617216466 0 -1.2133707781558072
v -0.19509993742531079 3 -1.2332293358492727
v -0.19509993742531073 0 -1.2332293358492727
v -0.20061741071790995 3 -1.2495881585288724
v -0.20061741071790998 0 -1.2495881585288724
v -0.20849041508114874 3 -1.2679733646005056
v -0.20849041508114871 0 -1.2679733646005056
v -0.49386671438220103 3 1.1249477559911967
v -0.49386671438220098 0 1.1249477559911967
v -0.50260560462958814 3 1.1429375252294087
v -0.50260560462958814 0 1.1429375252294087
v -0.50680825799599716 3 1.1596824138727808
v -0.50680825799599727 0 1.1596824138727808
v -0.51012485810108466 3 1.1794055009471442
v -0.51012485810108466 0 1.1794055009471442
v -0.526764868709649 3 -1.1099236723205816
v -0.526764868709649 0 -1.1099236723205816
v -0.53463787307288779 3 -1.1283088783922148
v -0.53463787307288779 0 -1.1283088783922151
v -0.54454066286968128 3 -1.1424506019518679
v -0.54454066286968117 0 -1.1424506019518679
v -0.55727446635206279 3 -1.1578729963467753
v -0.55727446635206279 0 -1.1578729963467753
v -0.79079604996022845 3 0.94024113537517573
v -0.79079604996022845 0 0.94024113537517573
v -0.80424925743425335 3 0.95504016266283331
v -0.80424925743425335 0 0.95504016266283331
v -0.8129992541013823 3 0.96992274138166934
v -0.8129992541013823 0 0.96992274138166934
v -0.8181288243755781 3 -0.91655715152418871
v -0.81812882437557799 0 -0.91655715152418871
v -0.82173814434876946 3 0.98791251061988139
v -0.82173814434876946 0 0.98791251061988139
v -0.83086262785795961 3 -0.93197954591909615
v -0.83086262785795961 0 -0.93197954591909615
v -0.84434846902377025 3 -0.94275849202006767
v -0.84434846902377025 0 -0.94275849202006767
v -0.86091145459799756 3 -0.95396864406488546
v -0.86091145459799756 0 -0.95396864406488546
v -1.0236597926156756 3 0.67936176980040008
v -1.0236597926156756 0 0.67936176980040008
v -1.0407374184560985 3 0.68977112595986145
v -1.0407374184560985 0 0.68977112595986145
v -1.0432128482900636 3 -0.64893662128657237
v -1.0432128482900636 0 -0.64893662128657237
v -1.0533258857322103 3 0.70158569673646531
v -1.0533258857322103 0 0.70158569673646531
v -1.0597758338642909 3 -0.66014677333139016
v -1.0597758338642909 0 -0.66014677333139016
v -1.0667790932062351 3 0.71638472402412279
v -1.0667790932062351 0 0.71638472402412279
v -1.0757521837512503 3 -0.66668969586544058
v -1.0757521837512503 0 -0.66668969586544047
v -1.0948025168299673 3 -0.67277942571083871
v -1.0948025168299673 0 -0.6727794257108386
v -1.1735927068126 3 0.36344455395641095
v -1.1735927068126 0 0.3634445539564109
v -1.1837819714617877 3 -0.32874310536700774
v -1.1837819714617877 0 -0.32874310536700779
v -1.1929112233383812 3 0.36862093485846131
v -1.1929112233383812 0 0.36862093485846126
v -1.2028323045405047 3 -0.33483283521240587
v -1.2028323045405047 0 -0.33483283521240587
v -1.2083183184712631 3 0.37641035143247048
v -1.2083183184712631 0 0.37641035143247048
v -1.2200048542957818 3 -0.33660966550808535
v -1.2200048542957818 0 -0.3366096655080853
v -1.225395944311686 3 0.38681970759193185
v -1.225395944311686 0 0.38681970759193185
v -1.2284481195281411 3 0.018083221838863212
v -1.2284481195281411 0 0.018083221838863156
v -1.2399991901896443 3 -0.3370856194590075
v -1.2399991901896443 0 -0.33708561945900745
v -1.2484424554220037 3 0.017607267887941064
v -1.2484424554220037 0 0.017607267887941008
v -1.2654199871935126 3 0.020740478053972333
v -1.2654199871935126 0 0.020740478053972389
v -1.2847385037192938 3 0.025916858956022693
v -1.2847385037192938 0 0.025916858956022748
vn 0.86602538824081421 0 0.5
vn 0.86602538824081421 0 0.5
vn -0.5 0 0.86602538824081421
vn -0.5 0 0.86602538824081421
vn 0.72373402118682861 0 -0.69007903337478638
vn 0.72373402118682861 0 -0.69007903337478638
vn 0.69007903337478638 0 0.72373402118682861
vn 0.69007903337478638 0 0.72373402118682861
vn -0.69007903337478638 0 -0.72373402118682861
vn -0.69007903337478638 0 -0.72373402118682861
vn 0.97181159257888794 0 0.23575893044471741
vn 0.97181159257888794 0 0.23575893044471741
vn -0.72373402118682861 0 0.69007903337478638
vn -0.72373402118682861 0 0.69007903337478638
vn -0.23575893044471741 0 0.97181159257888794
vn -0.23575893044471741 0 0.97181159257888794
vn 0.88883543014526367 0 -0.45822650194168091
vn 0.88883543014526367 0 -0.45822650194168091
vn 0.5 0 -0.86602538824081421
vn 0.5 0 -0.86602538824081421
vn -0.45822650194168091 0 -0.88883543014526367
vn -0.45822650194168091 0 -0.88883543014526367
vn -0.86602538824081421 0 -0.5
vn -0.86602538824081421 0 -0.5
vn 0.45822650194168091 0 0.88883543014526367
vn 0.45822650194168091 0 0.88883543014526367
vn -0.88883543014526367 0 0.45822650194168091
vn -0.88883543014526367 0 0.45822650194168091
vn 0.99886733293533325 0 -0.047581937164068222
vn 0.99886733293533325 0 -0.047581937164068222
vn 0.98192870616912842 0 -0.18925124406814575
vn 0.98192870616912842 0 -0.18925124406814575
vn 0.047581937164068222 0 0.99886733293533325
vn 0.047581937164068222 0 0.99886733293533325
vn -0.18925124406814575 0 -0.98192870616912842
vn -0.18925124406814575 0 -0.98192870616912842
vn 0.23575893044471741 0 -0.97181159257888794
vn 0.23575893044471741 0 -0.97181159257888794
vn -0.97181159257888794 0 -0.23575893044471741
vn -0.97181159257888794 0 -0.23575893044471741
vn 0.18925124406814575 0 0.98192870616912842
vn 0.18925124406814575 0 0.98192870616912842
vn -0.98192870616912842 0 0.18925124406814575
vn -0.98192870616912842 0 0.18925124406814575
vn 0.99547195434570313 0 0.095056019723415375
vn 0.99547195434570313 0 0.095056019723415375
vn 0.94500082731246948 0 -0.32706797122955322
vn 0.94500082731246948 0 -0.32706797122955322
vn 0.095056019723415375 0 -0.99547195434570313
vn 0.095056019723415375 0 -0.99547195434570313
vn 0.32706797122955322 0 0.94500082731246948
vn 0.32706797122955322 0 0.94500082731246948
vn -0.047581937164068222 0 -0.99886733293533325
vn -0.047581937164068222 0 -0.99886733293533325
vn -0.99886733293533325 0 0.047581937164068222
vn -0.99886733293533325 0 0.047581937164068222
vn -0.095056019723415375 0 0.99547195434570313
vn -0.095056019723415375 0 0.99547195434570313
vn -0.99547195434570313 0 -0.095056019723415375
vn -0.99547195434570313 0 -0.095056019723415375
vn 0.92836791276931763 0 0.371662437915802
vn 0.92836791276931763 0 0.371662437915802
vn 0.371662437915802 0 -0.92836791276931763
vn 0.371662437915802 0 -0.92836791276931763
vn 0.81457597017288208 0 -0.58005690574645996
vn 0.81457597017288208 0 -0.58005690574645996
vn 0.58005690574645996 0 0.81457597017288208
vn 0.58005690574645996 0 0.81457597017288208
vn -0.32706797122955322 0 -0.94500082731246948
vn -0.32706797122955322 0 -0.94500082731246948
vn -0.94500082731246948 0 0.32706797122955322
vn -0.94500082731246948 0 0.32706797122955322
vn -0.371662437915802 0 0.92836791276931763
vn -0.371662437915802 0 0.92836791276931763
vn -0.92836791276931763 0 -0.371662437915802
vn -0.92836791276931763 0 -0.371662437915802
vn 0.7860531210899353 0 0.61815899610519409
vn 0.7860531210899353 0 0.61815899610519409
vn 0.61815899610519409 0 -0.7860531210899353
vn 0.61815899610519409 0 -0.7860531210899353
vn -0.58005690574645996 0 -0.81457597017288208
vn -0.58005690574645996 0 -0.81457597017288208
vn 0.7860531210899353 0 0.61815899610519409
vn 0.7860531210899353 0 0.61815899610519409
vn 0.61815899610519409 0 -0.7860531210899353
vn 0.61815899610519409 0 -0.7860531210899353
vn -0.81457597017288208 0 0.58005690574645996
vn -0.81457597017288208 0 0.58005690574645996
vn 0.81457597017288208 0 -0.58005690574645996
vn 0.81457597017288208 0 -0.58005690574645996
vn -0.61815899610519409 0 0.7860531210899353
vn -0.61815899610519409 0 0.7860531210899353
vn -0.7860531210899353 0 -0.61815899610519409
vn -0.7860531210899353 0 -0.61815899610519409
vn 0.58005690574645996 0 0.81457597017288208
vn 0.58005690574645996 0 0.81457597017288208
vn -0.61815899610519409 0 0.7860531210899353
vn -0.61815899610519409 0 0.7860531210899353
vn -0.7860531210899353 0 -0.61815899610519409
vn -0.7860531210899353 0 -0.61815899610519409
vn 0.92836791276931763 0 0.371662437915802
vn 0.92836791276931763 0 0.371662437915802
vn 0.371662437915802 0 -0.92836791276931763
vn 0.371662437915802 0 -0.92836791276931763
vn 0.94500082731246948 0 -0.32706797122955322
vn 0.94500082731246948 0 -0.32706797122955322
vn 0.32706797122955322 0 0.94500082731246948
vn 0.32706797122955322 0 0.94500082731246948
vn -0.58005690574645996 0 -0.81457597017288208
vn -0.58005690574645996 0 -0.81457597017288208
vn -0.81457597017288208 0 0.58005690574645996
vn -0.81457597017288208 0 0.58005690574645996
vn -0.371662437915802 0 0.92836791276931763
vn -0.371662437915802 0 0.92836791276931763
vn -0.92836791276931763 0 -0.371662437915802
vn -0.92836791276931763 0 -0.371662437915802
vn 0.99547195434570313 0 0.095056019723415375
vn 0.99547195434570313 0 0.095056019723415375
vn 0.095056019723415375 0 -0.99547195434570313
vn 0.095056019723415375 0 -0.99547195434570313
vn 0.99886733293533325 0 -0.047581937164068222
vn 0.99886733293533325 0 -0.047581937164068222
vn 0.047581937164068222 0 0.99886733293533325
vn 0.047581937164068222 0 0.99886733293533325
vn -0.32706797122955322 0 -0.94500082731246948
vn -0.32706797122955322 0 -0.94500082731246948
vn -0.095056019723415375 0 0.99547195434570313
vn -0.095056019723415375 0 0.99547195434570313
vn -0.94500082731246948 0 0.32706797122955322
vn -0.94500082731246948 0 0.32706797122955322
vn -0.99547195434570313 0 -0.095056019723415375
vn -0.99547195434570313 0 -0.095056019723415375
vn 0.98192870616912842 0 -0.18925124406814575
vn 0.98192870616912842 0 -0.18925124406814575
vn -0.18925124406814575 0 -0.98192870616912842
vn -0.18925124406814575 0 -0.98192870616912842
vn 0.97181159257888794 0 0.23575893044471741
vn 0.97181159257888794 0 0.23575893044471741
vn -0.23575893044471741 0 0.97181159257888794
vn -0.23575893044471741 0 0.97181159257888794
vn 0.18925124406814575 0 0.98192870616912842
vn 0.18925124406814575 0 0.98192870616912842
vn -0.047581937164068222 0 -0.99886733293533325
vn -0.047581937164068222 0 -0.99886733293533325
vn -0.98192870616912842 0 0.18925124406814575
vn -0.98192870616912842 0 0.18925124406814575
vn -0.99886733293533325 0 0.047581937164068222
vn -0.99886733293533325 0 0.047581937164068222
vn 0.88883543014526367 0 -0.45822650194168091
vn 0.88883543014526367 0 -0.45822650194168091
vn -0.45822650194168091 0 -0.88883543014526367
vn -0.45822650194168091 0 -0.88883543014526367
vn 0.86602538824081421 0 0.5
vn 0.86602538824081421 0 0.5
vn 0.45822650194168091 0 0.88883543014526367
vn 0.45822650194168091 0 0.88883543014526367
vn -0.5 0 0.86602538824081421
vn -0.5 0 0.86602538824081421
vn -0.88883543014526367 0 0.45822650194168091
vn -0.88883543014526367 0 0.45822650194168091
vn 0.23575893044471741 0 -0.97181159257888794
vn 0.23575893044471741 0 -0.97181159257888794
vn 0.72373402118682861 0 -0.69007903337478638
vn 0.72373402118682861 0 -0.69007903337478638
vn -0.97181159257888794 0 -0.23575893044471741
vn -0.97181159257888794 0 -0.23575893044471741
vn 0.69007903337478638 0 0.72373402118682861
vn 0.69007903337478638 0 0.72373402118682861
vn -0.69007903337478638 0 -0.72373402118682861
vn -0.69007903337478638 0 -0.72373402118682861
vn -0.72373402118682861 0 0.69007903337478638
vn -0.72373402118682861 0 0.69007903337478638
vn 0.5 0 -0.86602538824081421
vn 0.5 0 -0.86602538824081421
vn -0.86602538824081421 0 -0.5
vn -0.86602538824081421 0 -0.5
f 2//2 1//1 3//3 4//4
f 4//4 3//3 23//23 24//24
f 24//24 23//23 19//19 20//20
f 20//20 19//19 1//1 2//2
f 12//12 11//11 15//15 16//16
f 16//16 15//15 39//39 40//40
f 40//40 39//39 37//37 38//38
f 38//38 37//37 11//11 12//12
f 30//30 29//29 33//33 34//34
f 34//34 33//33 55//55 56//56
f 56//56 55//55 53//53 54//54
f 54//54 53//53 29//29 30//30
f 48//48 47//47 51//51 52//52
f 52//52 51//51 71//71 72//72
f 72//72 71//71 69//69 70//70
f 70//70 69//69 47//47 48//48
f 66//66 65//65 67//67 68//68
f 68//68 67//67 87//87 88//88
f 88//88 87//87 81//81 82//82
f 82//82 81//81 65//65 66//66
f 86//86 85//85 83//83 84//84
f 84//84 83//83 97//97 98//98
f 98//98 97//97 99//99 100//100
f 100//100 99//99 85//85 86//86
f 104//104 103//103 101//101 102//102
f 102//102 101//101 113//113 114//114
f 114//114 113//113 115//115 116//116
f 116//116 115//115 103//103 104//104
f 120//120 119//119 117//117 118//118
f 118//118 117//117 127//127 128//128
f 128//128 127//127 131//131 132//132
f 132//132 131//131 119//119 120//120
f 136//136 135//135 133//133 134//134
f 134//134 133//133 141//141 142//142
f 142//142 141//141 145//145 146//146
f 146//146 145//145 135//135 136//136
f 152//152 151//151 149//149 150//150
f 150//150 149//149 155//155 156//156
f 156//156 155//155 159//159 160//160
f 160//160 159//159 151//151 152//152
f 170//170 169//169 163//163 164//164
f 164//164 163//163 167//167 168//168
f 168//168 167//167 171//171 172//172
f 172//172 171//171 169//169 170//170
f 176//176 175//175 173//173 174//174
f 174//174 173//173 153//153 154//154
f 154//154 153//153 157//157 158//158
f 158//158 157//157 175//175 176//176
f 166//166 165//165 161//161 162//162
f 162//162 161//161 137//137 138//138
f 138//138 137//137 139//139 140//140
f 140//140 139//139 165//165 166//166
f 148//148 147//147 143//143 144//144
f 144//144 143//143 121//121 122//122
f 122//122 121//121 123//123 124//124
f 124//124 123//123 147//147 148//148
f 130//130 129//129 125//125 126//126
f 126//126 125//125 105//105 106//106
f 106//106 105//105 107//107 108//108
f 108//108 107//107 129//129 130//130
f 112//112 111//111 109//109 110//110
f 110//110 109//109 89//89 90//90
f 90//90 89//89 95//95 96//96
f 96//96 95//95 111//111 112//112
f 92//92 91//91 93//93 94//94
f 94//94 93//93 79//79 80//80
f 80//80 79//79 77//77 78//78
f 78//78 77//77 91//91 92//92
f 74//74 73//73 75//75 76//76
f 76//76 75//75 63//63 64//64
f 64//64 63//63 61//61 62//62
f 62//62 61//61 73//73 74//74
f 58//58 57//57 59//59 60//60
f 60//60 59//59 49//49 50//50
f 50//50 49//49 45//45 46//46
f 46//46 45//45 57//57 58//58
f 42//42 41//41 43//43 44//44
f 44//44 43//43 35//35 36//36
f 36//36 35//35 31//31 32//32
f 32//32 31//31 41//41 42//42
f 26//26 25//25 27//27 28//28
f 28//28 27//27 21//21 22//22
f 22//22 21//21 17//17 18//18
f 18//18 17//17 25//25 26//26
f 8//8 7//7 13//13 14//14
f 14//14 13//13 9//9 10//10
f 10//10 9//9 5//5 6//6
f 6//6 5//5 7//7 8//8
