# Rhino

mtllib Frangisole45.mtl
usemtl diffuse_Black
v 1.3785603893693206 3 -0.098499722117934049
v 1.3785603893693206 0 -0.098499722117934077
v 1.3668046843234714 3 -0.082319382230435403
v 1.3668046843234714 0 -0.082319382230435431
v 1.3504695858635851 3 0.293875551982195
v 1.3504695858635851 0 0.29387555198219506
v 1.3346315409451399 3 0.30608850957490352
v 1.3346315409451399 0 0.30608850957490358
v 1.2949684287426726 3 -0.48289513453247379
v 1.2949684287426728 0 -0.48289513453247379
v 1.2882474408783642 3 -0.4640582472596837
v 1.2882474408783644 0 -0.4640582472596837
v 1.2129717680630598 3 0.66244277660593265
v 1.2129717680630598 0 0.66244277660593265
v 1.1943344874788315 3 0.66969893071294528
v 1.1943344874788313 0 0.66969893071294528
v 1.1338157687726456 3 0.012913888045236438
v 1.1338157687726456 0 0.012913888045236438
v 1.1179777238542004 3 0.025126845637944983
v 1.1179777238542004 0 0.025126845637944983
v 1.1064658274930808 3 -0.82816925503513794
v 1.1064658274930808 0 -0.82816925503513794
v 1.1053240512758253 3 -0.80820187295661561
v 1.1053240512758253 0 -0.80820187295661561
v 1.0915265262084219 3 -0.3070420306819982
v 1.0915265262084219 0 -0.3070420306819982
v 1.0842500008129246 3 0.33182360036489711
v 1.0842500008129246 0 0.33182360036489711
v 1.0797708211625727 3 -0.29086169079449953
v 1.0797708211625727 0 -0.29086169079449953
v 1.065612720228696 3 0.33907975447190974
v 1.065612720228696 0 0.33907975447190974
v 0.9772061914349337 3 0.97734282716794652
v 0.9772061914349337 0 0.97734282716794652
v 0.9608082960489972 3 -0.60212323013264668
v 0.9608082960489972 0 -0.60212323013264668
v 0.9572795568176804 3 0.97905432733752318
v 0.9572795568176804 0 0.97905432733752329
v 0.95408730818468879 3 -0.5832863428598567
v 0.95408730818468879 0 -0.58328634285985659
v 0.9468447460703826 3 0.62385093801393199
v 0.9468447460703826 0 0.62385093801393188
v 0.9269181114531293 3 0.62556243818350865
v 0.9269181114531293 0 0.62556243818350876
v 0.8328538806541651 3 -1.0868697894682153
v 0.8328538806541651 0 -1.0868697894682153
v 0.82832394530565001 3 -1.1063500278070615
v 0.8283239453056499 0 -1.1063500278070615
v 0.75225109189063966 3 -0.84842398644268091
v 0.75225109189063966 0 -0.84842398644268091
v 0.75110931567338424 3 -0.82845660436415858
v 0.75110931567338424 0 -0.82845660436415858
v 0.73273176110374605 3 0.86533758284946394
v 0.73273176110374605 0 0.86533758284946394
v 0.71313010988189851 3 0.86136577351654908
v 0.71313010988189851 0 0.86136577351654908
v 0.66227318084574549 3 1.2130643743544123
v 0.66227318084574549 0 1.2130643743544123
v 0.64267152962389795 3 1.2090925650214974
v 0.64267152962389795 0 1.2090925650214974
v 0.49291084179465189 3 -1.2774859795006253
v 0.49291084179465189 0 -1.2774859795006253
v 0.48728091342532243 3 -1.0065102388040148
v 0.48728091342532254 0 -1.0065102388040148
v 0.48307618330173996 3 -1.2949009010430206
v 0.48307618330173996 0 -1.2949009010430206
v 0.48275097807680734 3 -1.025990477142861
v 0.48275097807680734 0 -1.025990477142861
v 0.45925720657605795 3 1.0367197230832963
v 0.45925720657605795 0 1.0367197230832963
v 0.44156854795610206 3 1.027386376618783
v 0.44156854795610206 0 1.027386376618783
v 0.2936867358346974 3 1.3505106603023036
v 0.2936867358346974 0 1.3505106603023036
v 0.27599807721474151 3 1.3411773138377903
v 0.27599807721474151 0 1.3411773138377903
v 0.18397590954271817 3 -1.1030223996428454
v 0.18397590954271817 0 -1.1030223996428454
v 0.17414125104980624 3 -1.1204373211852408
v 0.17414125104980624 0 -1.1204373211852408
v 0.1485763644793536 3 1.1241129969625154
v 0.1485763644793536 0 1.1241129969625154
v 0.13423372838417463 3 1.1101742455894099
v 0.13423372838417463 0 1.1101742455894099
v 0.11303509798658637 3 -1.3646078529755525
v 0.11303509798658636 0 -1.3646078529755525
v 0.098692461891407443 3 -1.3785466043486581
v 0.098692461891407401 0 -1.3785466043486581
v -0.098692461891406125 3 1.3785466043486583
v -0.098692461891406125 0 1.3785466043486583
v -0.11303509798658509 3 1.3646078529755528
v -0.11303509798658509 0 1.3646078529755528
v -0.1342337283841735 3 -1.1101742455894101
v -0.13423372838417347 0 -1.1101742455894101
v -0.14857636447935244 3 -1.1241129969625157
v -0.14857636447935241 0 -1.1241129969625157
v -0.17414125104980516 3 1.120437321185241
v -0.17414125104980518 0 1.120437321185241
v -0.18397590954271709 3 1.1030223996428457
v -0.18397590954271706 0 1.1030223996428457
v -0.2759980772147404 3 -1.3411773138377905
v -0.2759980772147404 0 -1.3411773138377905
v -0.29368673583469634 3 -1.3505106603023038
v -0.29368673583469634 0 -1.3505106603023038
v -0.44156854795610123 3 -1.0273863766187832
v -0.44156854795610129 0 -1.0273863766187832
v -0.45925720657605718 3 -1.0367197230832965
v -0.45925720657605723 0 -1.0367197230832965
v -0.48275097807680623 3 1.0259904771428616
v -0.48275097807680617 0 1.0259904771428616
v -0.48307618330173874 3 1.2949009010430212
v -0.48307618330173874 0 1.2949009010430212
v -0.48728091342532143 3 1.0065102388040155
v -0.48728091342532148 0 1.0065102388040155
v -0.49291084179465061 3 1.2774859795006259
v -0.49291084179465061 0 1.2774859795006259
v -0.64267152962389595 3 -1.2090925650214985
v -0.64267152962389595 0 -1.2090925650214985
v -0.66227318084574338 3 -1.2130643743544134
v -0.66227318084574338 0 -1.2130643743544134
v -0.71313010988189707 3 -0.86136577351655041
v -0.71313010988189707 0 -0.86136577351655041
v -0.73273176110374449 3 -0.86533758284946527
v -0.73273176110374449 0 -0.86533758284946527
v -0.75110931567338346 3 0.82845660436415924
v -0.75110931567338346 0 0.82845660436415924
v -0.75225109189063888 3 0.84842398644268158
v -0.75225109189063888 0 0.84842398644268158
v -0.82832394530564868 3 1.1063500278070624
v -0.82832394530564857 0 1.1063500278070624
v -0.83285388065416388 3 1.0868697894682162
v -0.83285388065416388 0 1.0868697894682162
v -0.92691811145312841 3 -0.62556243818350943
v -0.92691811145312841 0 -0.62556243818350954
v -0.94684474607038183 3 -0.62385093801393277
v -0.94684474607038183 0 -0.62385093801393288
v -0.95408730818468834 3 0.58328634285985725
v -0.95408730818468845 0 0.58328634285985725
v -0.95727955681767907 3 -0.97905432733752451
v -0.95727955681767907 0 -0.9790543273375244
v -0.96080829604899676 3 0.60212323013264735
v -0.96080829604899687 0 0.60212323013264735
v -0.97720619143493248 3 -0.97734282716794785
v -0.97720619143493248 0 -0.97734282716794774
v -1.0656127202286956 3 -0.33907975447191163
v -1.0656127202286956 0 -0.33907975447191163
v -1.0797708211625727 3 0.29086169079449958
v -1.0797708211625727 0 0.29086169079449958
v -1.0842500008129243 3 -0.33182360036489889
v -1.0842500008129243 0 -0.33182360036489889
v -1.0915265262084219 3 0.3070420306819982
v -1.0915265262084219 0 0.3070420306819982
v -1.1053240512758244 3 0.80820187295661672
v -1.1053240512758244 0 0.80820187295661672
v -1.1064658274930799 3 0.82816925503513905
v -1.1064658274930799 0 0.82816925503513905
v -1.1179777238542001 3 -0.025126845637946815
v -1.1179777238542001 0 -0.025126845637946843
v -1.1338157687726453 3 -0.012913888045238298
v -1.1338157687726453 0 -0.012913888045238353
v -1.1943344874788302 3 -0.66969893071294717
v -1.1943344874788302 0 -0.66969893071294728
v -1.212971768063059 3 -0.66244277660593442
v -1.212971768063059 0 -0.66244277660593442
v -1.2882474408783642 3 0.46405824725968448
v -1.2882474408783642 0 0.46405824725968448
v -1.2949684287426724 3 0.48289513453247457
v -1.2949684287426726 0 0.48289513453247457
v -1.3346315409451395 3 -0.30608850957490585
v -1.3346315409451395 0 -0.30608850957490585
v -1.3504695858635847 3 -0.29387555198219739
v -1.3504695858635847 0 -0.29387555198219739
v -1.3668046843234714 3 0.082319382230435376
v -1.3668046843234714 0 0.082319382230435376
v -1.3785603893693206 3 0.098499722117933994
v -1.3785603893693206 0 0.098499722117933994
vn 0.98768836259841919 0 -0.15643447637557983
vn 0.98768836259841919 0 -0.15643447637557983
vn 0.15643447637557983 0 0.98768836259841919
vn 0.15643447637557983 0 0.98768836259841919
vn 0.99175268411636353 0 0.12816621363162994
vn 0.99175268411636353 0 0.12816621363162994
vn -0.12816621363162994 0 0.99175268411636353
vn -0.12816621363162994 0 0.99175268411636353
vn 0.90360736846923828 0 -0.4283616840839386
vn 0.90360736846923828 0 -0.4283616840839386
vn 0.4283616840839386 0 0.90360736846923828
vn 0.4283616840839386 0 0.90360736846923828
vn 0.91547113656997681 0 0.40238356590270996
vn 0.91547113656997681 0 0.40238356590270996
vn -0.40238356590270996 0 0.91547113656997681
vn -0.40238356590270996 0 0.91547113656997681
vn 0.12816621363162994 0 -0.99175268411636353
vn 0.12816621363162994 0 -0.99175268411636353
vn -0.99175268411636353 0 -0.12816621363162994
vn -0.99175268411636353 0 -0.12816621363162994
vn 0.74632143974304199 0 -0.66558569669723511
vn 0.74632143974304199 0 -0.66558569669723511
vn 0.66558569669723511 0 0.74632143974304199
vn 0.66558569669723511 0 0.74632143974304199
vn -0.15643447637557983 0 -0.98768836259841919
vn -0.15643447637557983 0 -0.98768836259841919
vn 0.40238356590270996 0 -0.91547113656997681
vn 0.40238356590270996 0 -0.91547113656997681
vn -0.98768836259841919 0 0.15643447637557983
vn -0.98768836259841919 0 0.15643447637557983
vn -0.91547113656997681 0 -0.40238356590270996
vn -0.91547113656997681 0 -0.40238356590270996
vn 0.76502358913421631 0 0.64400225877761841
vn 0.76502358913421631 0 0.64400225877761841
vn -0.4283616840839386 0 -0.90360736846923828
vn -0.4283616840839386 0 -0.90360736846923828
vn -0.64400225877761841 0 0.76502358913421631
vn -0.64400225877761841 0 0.76502358913421631
vn -0.90360736846923828 0 0.4283616840839386
vn -0.90360736846923828 0 0.4283616840839386
vn 0.64400225877761841 0 -0.76502358913421631
vn 0.64400225877761841 0 -0.76502358913421631
vn -0.76502358913421631 0 -0.64400225877761841
vn -0.76502358913421631 0 -0.64400225877761841
vn 0.8488878607749939 0 0.52857303619384766
vn 0.8488878607749939 0 0.52857303619384766
vn 0.52857303619384766 0 -0.8488878607749939
vn 0.52857303619384766 0 -0.8488878607749939
vn -0.66558569669723511 0 -0.74632143974304199
vn -0.66558569669723511 0 -0.74632143974304199
vn -0.74632143974304199 0 0.66558569669723511
vn -0.74632143974304199 0 0.66558569669723511
vn 0.83344769477844238 0 -0.55259835720062256
vn 0.83344769477844238 0 -0.55259835720062256
vn -0.55259835720062256 0 -0.83344769477844238
vn -0.55259835720062256 0 -0.83344769477844238
vn 0.55259835720062256 0 0.83344769477844238
vn 0.55259835720062256 0 0.83344769477844238
vn -0.83344769477844238 0 0.55259835720062256
vn -0.83344769477844238 0 0.55259835720062256
vn 0.96341812610626221 0 0.26800277829170227
vn 0.96341812610626221 0 0.26800277829170227
vn -0.52857303619384766 0 0.8488878607749939
vn -0.52857303619384766 0 0.8488878607749939
vn 0.26800277829170227 0 -0.96341812610626221
vn 0.26800277829170227 0 -0.96341812610626221
vn -0.8488878607749939 0 -0.52857303619384766
vn -0.8488878607749939 0 -0.52857303619384766
vn 0.955372154712677 0 -0.29540488123893738
vn 0.955372154712677 0 -0.29540488123893738
vn -0.29540488123893738 0 -0.955372154712677
vn -0.29540488123893738 0 -0.955372154712677
vn 0.29540488123893738 0 0.955372154712677
vn 0.29540488123893738 0 0.955372154712677
vn -0.955372154712677 0 0.29540488123893738
vn -0.955372154712677 0 0.29540488123893738
vn -0.26800277829170227 0 0.96341812610626221
vn -0.26800277829170227 0 0.96341812610626221
vn -0.96341812610626221 0 -0.26800277829170227
vn -0.96341812610626221 0 -0.26800277829170227
vn 0.99989801645278931 0 -0.01427947822958231
vn 0.99989801645278931 0 -0.01427947822958231
vn -0.01427947822958231 0 -0.99989801645278931
vn -0.01427947822958231 0 -0.99989801645278931
vn 0.99989801645278931 0 -0.01427947822958231
vn 0.99989801645278931 0 -0.01427947822958231
vn -0.01427947822958231 0 -0.99989801645278931
vn -0.01427947822958231 0 -0.99989801645278931
vn 0.01427947822958231 0 0.99989801645278931
vn 0.01427947822958231 0 0.99989801645278931
vn -0.99989801645278931 0 0.01427947822958231
vn -0.99989801645278931 0 0.01427947822958231
vn 0.01427947822958231 0 0.99989801645278931
vn 0.01427947822958231 0 0.99989801645278931
vn -0.99989801645278931 0 0.01427947822958231
vn -0.99989801645278931 0 0.01427947822958231
vn 0.96341812610626221 0 0.26800277829170227
vn 0.96341812610626221 0 0.26800277829170227
vn 0.26800277829170227 0 -0.96341812610626221
vn 0.26800277829170227 0 -0.96341812610626221
vn 0.955372154712677 0 -0.29540488123893738
vn 0.955372154712677 0 -0.29540488123893738
vn -0.29540488123893738 0 -0.955372154712677
vn -0.29540488123893738 0 -0.955372154712677
vn 0.29540488123893738 0 0.955372154712677
vn 0.29540488123893738 0 0.955372154712677
vn -0.955372154712677 0 0.29540488123893738
vn -0.955372154712677 0 0.29540488123893738
vn 0.8488878607749939 0 0.52857303619384766
vn 0.8488878607749939 0 0.52857303619384766
vn -0.26800277829170227 0 0.96341812610626221
vn -0.26800277829170227 0 0.96341812610626221
vn 0.52857303619384766 0 -0.8488878607749939
vn 0.52857303619384766 0 -0.8488878607749939
vn -0.96341812610626221 0 -0.26800277829170227
vn -0.96341812610626221 0 -0.26800277829170227
vn 0.83344769477844238 0 -0.55259835720062256
vn 0.83344769477844238 0 -0.55259835720062256
vn -0.55259835720062256 0 -0.83344769477844238
vn -0.55259835720062256 0 -0.83344769477844238
vn 0.55259835720062256 0 0.83344769477844238
vn 0.55259835720062256 0 0.83344769477844238
vn -0.83344769477844238 0 0.55259835720062256
vn -0.83344769477844238 0 0.55259835720062256
vn 0.74632143974304199 0 -0.66558569669723511
vn 0.74632143974304199 0 -0.66558569669723511
vn 0.66558569669723511 0 0.74632143974304199
vn 0.66558569669723511 0 0.74632143974304199
vn -0.52857303619384766 0 0.8488878607749939
vn -0.52857303619384766 0 0.8488878607749939
vn -0.8488878607749939 0 -0.52857303619384766
vn -0.8488878607749939 0 -0.52857303619384766
vn 0.76502358913421631 0 0.64400225877761841
vn 0.76502358913421631 0 0.64400225877761841
vn -0.64400225877761841 0 0.76502358913421631
vn -0.64400225877761841 0 0.76502358913421631
vn 0.90360736846923828 0 -0.4283616840839386
vn 0.90360736846923828 0 -0.4283616840839386
vn 0.64400225877761841 0 -0.76502358913421631
vn 0.64400225877761841 0 -0.76502358913421631
vn 0.4283616840839386 0 0.90360736846923828
vn 0.4283616840839386 0 0.90360736846923828
vn -0.76502358913421631 0 -0.64400225877761841
vn -0.76502358913421631 0 -0.64400225877761841
vn 0.91547113656997681 0 0.40238356590270996
vn 0.91547113656997681 0 0.40238356590270996
vn 0.98768836259841919 0 -0.15643447637557983
vn 0.98768836259841919 0 -0.15643447637557983
vn -0.40238356590270996 0 0.91547113656997681
vn -0.40238356590270996 0 0.91547113656997681
vn 0.15643447637557983 0 0.98768836259841919
vn 0.15643447637557983 0 0.98768836259841919
vn -0.66558569669723511 0 -0.74632143974304199
vn -0.66558569669723511 0 -0.74632143974304199
vn -0.74632143974304199 0 0.66558569669723511
vn -0.74632143974304199 0 0.66558569669723511
vn 0.99175268411636353 0 0.12816621363162994
vn 0.99175268411636353 0 0.12816621363162994
vn -0.12816621363162994 0 0.99175268411636353
vn -0.12816621363162994 0 0.99175268411636353
vn 0.40238356590270996 0 -0.91547113656997681
vn 0.40238356590270996 0 -0.91547113656997681
vn -0.91547113656997681 0 -0.40238356590270996
vn -0.91547113656997681 0 -0.40238356590270996
vn -0.4283616840839386 0 -0.90360736846923828
vn -0.4283616840839386 0 -0.90360736846923828
vn -0.90360736846923828 0 0.4283616840839386
vn -0.90360736846923828 0 0.4283616840839386
vn 0.12816621363162994 0 -0.99175268411636353
vn 0.12816621363162994 0 -0.99175268411636353
vn -0.99175268411636353 0 -0.12816621363162994
vn -0.99175268411636353 0 -0.12816621363162994
vn -0.15643447637557983 0 -0.98768836259841919
vn -0.15643447637557983 0 -0.98768836259841919
vn -0.98768836259841919 0 0.15643447637557983
vn -0.98768836259841919 0 0.15643447637557983
f 2//2 1//1 3//3 4//4
f 4//4 3//3 29//29 30//30
f 30//30 29//29 25//25 26//26
f 26//26 25//25 1//1 2//2
f 10//10 9//9 11//11 12//12
f 12//12 11//11 39//39 40//40
f 40//40 39//39 35//35 36//36
f 36//36 35//35 9//9 10//10
f 22//22 21//21 23//23 24//24
f 24//24 23//23 51//51 52//52
f 52//52 51//51 49//49 50//50
f 50//50 49//49 21//21 22//22
f 48//48 47//47 45//45 46//46
f 46//46 45//45 63//63 64//64
f 64//64 63//63 67//67 68//68
f 68//68 67//67 47//47 48//48
f 66//66 65//65 61//61 62//62
f 62//62 61//61 77//77 78//78
f 78//78 77//77 79//79 80//80
f 80//80 79//79 65//65 66//66
f 88//88 87//87 85//85 86//86
f 86//86 85//85 93//93 94//94
f 94//94 93//93 95//95 96//96
f 96//96 95//95 87//87 88//88
f 104//104 103//103 101//101 102//102
f 102//102 101//101 105//105 106//106
f 106//106 105//105 107//107 108//108
f 108//108 107//107 103//103 104//104
f 120//120 119//119 117//117 118//118
f 118//118 117//117 121//121 122//122
f 122//122 121//121 123//123 124//124
f 124//124 123//123 119//119 120//120
f 144//144 143//143 139//139 140//140
f 140//140 139//139 133//133 134//134
f 134//134 133//133 135//135 136//136
f 136//136 135//135 143//143 144//144
f 164//164 163//163 161//161 162//162
f 162//162 161//161 145//145 146//146
f 146//146 145//145 149//149 150//150
f 150//150 149//149 163//163 164//164
f 172//172 171//171 169//169 170//170
f 170//170 169//169 157//157 158//158
f 158//158 157//157 159//159 160//160
f 160//160 159//159 171//171 172//172
f 176//176 175//175 173//173 174//174
f 174//174 173//173 147//147 148//148
f 148//148 147//147 151//151 152//152
f 152//152 151//151 175//175 176//176
f 168//168 167//167 165//165 166//166
f 166//166 165//165 137//137 138//138
f 138//138 137//137 141//141 142//142
f 142//142 141//141 167//167 168//168
f 156//156 155//155 153//153 154//154
f 154//154 153//153 125//125 126//126
f 126//126 125//125 127//127 128//128
f 128//128 127//127 155//155 156//156
f 130//130 129//129 131//131 132//132
f 132//132 131//131 113//113 114//114
f 114//114 113//113 109//109 110//110
f 110//110 109//109 129//129 130//130
f 112//112 111//111 115//115 116//116
f 116//116 115//115 99//99 100//100
f 100//100 99//99 97//97 98//98
f 98//98 97//97 111//111 112//112
f 90//90 89//89 91//91 92//92
f 92//92 91//91 83//83 84//84
f 84//84 83//83 81//81 82//82
f 82//82 81//81 89//89 90//90
f 74//74 73//73 75//75 76//76
f 76//76 75//75 71//71 72//72
f 72//72 71//71 69//69 70//70
f 70//70 69//69 73//73 74//74
f 58//58 57//57 59//59 60//60
f 60//60 59//59 55//55 56//56
f 56//56 55//55 53//53 54//54
f 54//54 53//53 57//57 58//58
f 34//34 33//33 37//37 38//38
f 38//38 37//37 43//43 44//44
f 44//44 43//43 41//41 42//42
f 42//42 41//41 33//33 34//34
f 14//14 13//13 15//15 16//16
f 16//16 15//15 31//31 32//32
f 32//32 31//31 27//27 28//28
f 28//28 27//27 13//13 14//14
f 6//6 5//5 7//7 8//8
f 8//8 7//7 19//19 20//20
f 20//20 19//19 17//17 18//18
f 18//18 17//17 5//5 6//6
