<?xml version="1.0" encoding="UTF-8" standalone="no"?><!DOCTYPE svg PUBLIC "-//W3C//DTD SVG 1.1//EN" "http://www.w3.org/Graphics/SVG/1.1/DTD/svg11.dtd"><svg width="100%" height="100%" viewBox="0 0 2363 2130" version="1.1" xmlns="http://www.w3.org/2000/svg" xmlns:xlink="http://www.w3.org/1999/xlink" xml:space="preserve" xmlns:serif="http://www.serif.com/" style="fill-rule:evenodd;clip-rule:evenodd;"><rect id="Artboard3" x="0.727" y="0.368" width="2362.2" height="2129.02" style="fill:none;"/><path d="M1181.04,1299.38c-1.095,41.199 17.602,90.762 51.733,124.893c34.13,34.13 83.694,52.827 124.893,51.732c41.199,1.095 90.763,-17.602 124.893,-51.732c34.13,-34.131 52.828,-83.694 51.732,-124.893c1.096,-41.199 -17.602,-90.763 -51.732,-124.894c-34.13,-34.13 -83.694,-52.827 -124.893,-51.732c-14.817,-0.394 -30.716,1.772 -46.589,6.296c-28.264,8.054 -56.448,23.581 -78.304,45.436c-34.131,34.131 -52.828,83.695 -51.733,124.894Z" style="fill-opacity:0;fill-rule:nonzero;stroke:#000;stroke-width:12.5px;"/><path d="M1182.62,830.373c1.095,-41.2 -17.602,-90.763 -51.732,-124.893c-34.131,-34.131 -83.694,-52.828 -124.893,-51.733c-41.2,-1.095 -90.763,17.602 -124.894,51.733c-34.13,34.13 -52.827,83.693 -51.732,124.893c-1.095,41.199 17.602,90.762 51.732,124.893c34.131,34.13 83.694,52.827 124.894,51.732c41.199,1.095 90.762,-17.602 124.893,-51.732c34.13,-34.131 52.827,-83.694 51.732,-124.893Z" style="fill-opacity:0;fill-rule:nonzero;stroke:#000;stroke-width:12.5px;"/><path d="M1516.77,1300.01c0.986,-37.076 -15.84,-81.68 -46.555,-112.395c-30.715,-30.715 -75.319,-47.541 -112.395,-46.555c-37.077,-0.986 -81.68,15.84 -112.395,46.555c-30.715,30.715 -47.542,75.319 -46.556,112.395c-0.986,37.077 15.841,81.681 46.556,112.396c30.715,30.714 75.318,47.541 112.395,46.555c37.076,0.986 81.68,-15.841 112.395,-46.555c30.715,-30.715 47.541,-75.319 46.555,-112.396Z" style="fill:#4d4d4d;fill-opacity:0;fill-rule:nonzero;stroke:#787878;stroke-width:8.33px;"/><path d="M1164.94,830.373c0.986,-37.077 -15.84,-81.681 -46.555,-112.396c-30.715,-30.714 -75.319,-47.541 -112.395,-46.555c-37.077,-0.986 -81.681,15.841 -112.396,46.555c-30.715,30.715 -47.541,75.319 -46.555,112.396c-0.986,37.076 15.84,81.68 46.555,112.395c30.715,30.715 75.319,47.541 112.396,46.555c37.076,0.986 81.68,-15.84 112.395,-46.555c30.715,-30.715 47.541,-75.319 46.555,-112.395Z" style="fill:#4d4d4d;fill-opacity:0;fill-rule:nonzero;stroke:#787878;stroke-width:8.33px;"/></svg>