<?xml version="1.0" encoding="UTF-8" standalone="no"?><!DOCTYPE svg PUBLIC "-//W3C//DTD SVG 1.1//EN" "http://www.w3.org/Graphics/SVG/1.1/DTD/svg11.dtd"><svg width="100%" height="100%" viewBox="0 0 2364 2130" version="1.1" xmlns="http://www.w3.org/2000/svg" xmlns:xlink="http://www.w3.org/1999/xlink" xml:space="preserve" xmlns:serif="http://www.serif.com/" style="fill-rule:evenodd;clip-rule:evenodd;stroke-linecap:round;stroke-linejoin:round;"><rect id="Artboard5" x="0.914" y="0.776" width="2362.2" height="2129.02" style="fill:none;"/><path d="M847.228,754.343c-12.132,25.15 -18.318,52.237 -17.675,76.438c-1.095,41.199 17.602,90.762 51.733,124.893c34.13,34.13 83.694,52.827 124.893,51.732c41.199,1.095 90.762,-17.602 124.893,-51.732c13.788,-13.788 25.057,-30.094 33.52,-47.35c0.194,-0.396 0.387,-0.793 0.579,-1.191" style="fill-opacity:0;fill-rule:nonzero;stroke:#000;stroke-width:12.5px;"/><path d="M1516.96,1300.42c0.985,-37.076 -15.841,-81.68 -46.556,-112.395c-30.715,-30.715 -75.319,-47.541 -112.395,-46.555c-37.076,-0.986 -81.68,15.84 -112.395,46.555c-30.715,30.715 -47.541,75.319 -46.556,112.395c-0.985,37.077 15.841,81.681 46.556,112.396c30.715,30.714 75.319,47.541 112.395,46.555c37.076,0.986 81.68,-15.841 112.395,-46.555c30.715,-30.715 47.541,-75.319 46.556,-112.396Z" style="fill-opacity:0;fill-rule:nonzero;stroke:#4d4d4d;stroke-width:8.33px;stroke-linecap:butt;stroke-linejoin:miter;"/><path d="M1165.13,830.781c0.985,-37.077 -15.841,-81.681 -46.556,-112.396c-30.715,-30.714 -75.319,-47.541 -112.395,-46.555c-37.076,-0.986 -81.68,15.841 -112.395,46.555c-30.715,30.715 -47.542,75.319 -46.556,112.396c-0.986,37.076 15.841,81.68 46.556,112.395c30.715,30.715 75.319,47.541 112.395,46.555c37.076,0.986 81.68,-15.84 112.395,-46.555c30.715,-30.715 47.541,-75.319 46.556,-112.395Z" style="fill-opacity:0;fill-rule:nonzero;stroke:#4d4d4d;stroke-width:8.33px;stroke-linecap:butt;stroke-linejoin:miter;"/><path d="M1165.17,1525.25c-32.074,1.081 -64.479,-0.71 -96.41,-5.596c-71.366,-10.919 -140.366,-37.297 -199.166,-74.07c-58.8,-36.772 -107.401,-83.94 -143.811,-133.638c-36.536,-49.605 -67.014,-110.085 -84.522,-177.191c-17.508,-67.106 -22.047,-140.836 -11.127,-212.202c10.919,-71.365 37.297,-140.365 74.07,-199.166c36.772,-58.8 83.94,-107.4 133.638,-143.811c3.086,-2.273 6.215,-4.523 9.385,-6.748" style="fill-opacity:0;stroke:#000;stroke-width:12.5px;"/><path d="M847.228,754.343l0,-181.511" style="fill:none;fill-rule:nonzero;stroke:#000;stroke-width:12.5px;"/><path d="M1165.17,907.133l-0.041,617.188" style="fill:none;fill-rule:nonzero;stroke:#000;stroke-width:12.5px;"/><path d="M1516.8,1376.23c12.132,-25.149 18.318,-52.236 17.675,-76.437c1.095,-41.199 -17.602,-90.763 -51.733,-124.894c-34.13,-34.13 -83.694,-52.827 -124.893,-51.732c-41.199,-1.095 -90.762,17.602 -124.893,51.732c-13.361,13.362 -24.357,29.088 -32.727,45.752" style="fill:#03b5aa;fill-opacity:0;fill-rule:nonzero;stroke:#000;stroke-width:12.5px;stroke-linejoin:miter;"/><path d="M1198.93,605.316c32.05,-1.075 64.431,0.717 96.339,5.599c71.366,10.919 140.366,37.297 199.166,74.07c58.8,36.772 107.401,83.94 143.811,133.638c36.537,49.605 67.014,110.086 84.522,177.191c17.508,67.106 22.047,140.837 11.127,212.202c-10.919,71.365 -37.297,140.365 -74.07,199.166c-36.772,58.8 -83.94,107.401 -133.638,143.811c-3.086,2.273 -6.215,4.523 -9.385,6.748" style="fill:#03b5aa;fill-opacity:0;fill-rule:nonzero;stroke:#000;stroke-width:12.5px;stroke-linejoin:miter;"/><path d="M1516.8,1376.23l0,181.511" style="fill:none;fill-rule:nonzero;stroke:#000;stroke-width:12.5px;stroke-linejoin:miter;"/><path d="M1198.9,1223.36l-0,-618.34" style="fill:none;fill-rule:nonzero;stroke:#000;stroke-width:12.5px;stroke-linejoin:miter;"/></svg>