<?xml version="1.0" encoding="UTF-8" standalone="no"?><!DOCTYPE svg PUBLIC "-//W3C//DTD SVG 1.1//EN" "http://www.w3.org/Graphics/SVG/1.1/DTD/svg11.dtd"><svg width="100%" height="100%" viewBox="0 0 2363 2130" version="1.1" xmlns="http://www.w3.org/2000/svg" xmlns:xlink="http://www.w3.org/1999/xlink" xml:space="preserve" xmlns:serif="http://www.serif.com/" style="fill-rule:evenodd;clip-rule:evenodd;stroke-linecap:round;"><rect id="Artboard8" x="0.436" y="0.776" width="2362.2" height="2129.02" style="fill:none;"/><path d="M1164.69,839.26l0,-812.251" style="fill-opacity:0;fill-rule:nonzero;stroke:#000;stroke-width:12.5px;"/><path d="M1164.65,830.781c0.986,-37.077 -15.84,-81.681 -46.555,-112.396c-30.715,-30.714 -75.319,-47.541 -112.395,-46.555c-37.077,-0.986 -81.68,15.841 -112.395,46.555c-30.715,30.715 -47.542,75.319 -46.556,112.396c-0.986,37.076 15.841,81.68 46.556,112.395c30.715,30.715 75.318,47.541 112.395,46.555c37.076,0.986 81.68,-15.84 112.395,-46.555c30.715,-30.715 47.541,-75.319 46.555,-112.395Z" style="fill-opacity:0;fill-rule:nonzero;stroke:#000;stroke-width:12.5px;stroke-linecap:butt;"/><path d="M656.493,1184.46l351.737,-177.01" style="fill:none;fill-rule:nonzero;stroke:#000;stroke-width:12.5px;stroke-linecap:butt;"/><path d="M774.525,1369.67l306.747,-379.522" style="fill:none;fill-rule:nonzero;stroke:#000;stroke-width:12.5px;stroke-linecap:butt;"/><path d="M846.751,755.448l-0,-182.616" style="fill:none;fill-rule:nonzero;stroke:#000;stroke-width:12.5px;stroke-linecap:butt;"/><path d="M1164.65,907.218l0,617.103" style="fill:none;fill-rule:nonzero;stroke:#000;stroke-width:12.5px;stroke-linecap:butt;"/><path d="M956.248,1489.35l176.354,-535.72" style="fill:none;fill-rule:nonzero;stroke:#000;stroke-width:12.5px;stroke-linecap:butt;"/><path d="M625.061,963.839l292.165,20.164" style="fill:none;fill-rule:nonzero;stroke:#000;stroke-width:12.5px;stroke-linecap:butt;"/><path d="M691.322,744.318l147.462,145.184" style="fill:none;fill-rule:nonzero;stroke:#000;stroke-width:12.5px;stroke-linecap:butt;"/><path d="M1706.58,946.111l-351.737,177.011" style="fill:none;fill-rule:nonzero;stroke:#000;stroke-width:12.5px;stroke-linecap:butt;"/><path d="M1588.55,760.904l-306.747,379.522" style="fill:none;fill-rule:nonzero;stroke:#000;stroke-width:12.5px;stroke-linecap:butt;"/><path d="M1516.33,1374.56l-0,183.182" style="fill:none;fill-rule:nonzero;stroke:#000;stroke-width:12.5px;stroke-linecap:butt;"/><path d="M1198.42,1221.27l0,-615.014" style="fill:none;fill-rule:nonzero;stroke:#000;stroke-width:12.5px;"/><path d="M1406.83,641.223l-176.355,535.72" style="fill:none;fill-rule:nonzero;stroke:#000;stroke-width:12.5px;stroke-linecap:butt;"/><path d="M1738.02,1166.73l-293.413,-20.25" style="fill:none;fill-rule:nonzero;stroke:#000;stroke-width:12.5px;stroke-linecap:butt;"/><path d="M1671.76,1386.26l-148.256,-145.965" style="fill:none;fill-rule:nonzero;stroke:#000;stroke-width:12.5px;stroke-linecap:butt;"/><path d="M846.751,754.343c-12.132,25.15 -18.318,52.237 -17.675,76.438c-1.095,41.199 17.602,90.762 51.732,124.893c34.131,34.13 83.694,52.827 124.894,51.732c41.199,1.095 90.762,-17.602 124.893,-51.732c13.787,-13.788 25.056,-30.094 33.52,-47.35c0.194,-0.396 0.387,-0.793 0.578,-1.191" style="fill-opacity:0;fill-rule:nonzero;stroke:#000;stroke-width:12.5px;"/><path d="M1164.69,1525.25c-32.073,1.081 -64.478,-0.71 -96.41,-5.596c-71.365,-10.919 -140.365,-37.297 -199.165,-74.07c-58.8,-36.772 -107.401,-83.94 -143.811,-133.638c-36.537,-49.605 -67.014,-110.085 -84.522,-177.191c-17.508,-67.106 -22.047,-140.836 -11.127,-212.202c10.919,-71.365 37.297,-140.365 74.07,-199.166c36.772,-58.8 83.94,-107.4 133.638,-143.811c3.086,-2.273 6.215,-4.523 9.385,-6.748" style="fill-opacity:0;stroke:#000;stroke-width:12.5px;"/><path d="M1516.33,1376.23c12.132,-25.149 18.318,-52.236 17.675,-76.437c1.095,-41.199 -17.602,-90.763 -51.733,-124.894c-34.13,-34.13 -83.694,-52.827 -124.893,-51.732c-41.199,-1.095 -90.763,17.602 -124.893,51.732c-13.361,13.362 -25.659,29.088 -34.028,45.752" style="fill-opacity:0;fill-rule:nonzero;stroke:#000;stroke-width:12.5px;stroke-linecap:butt;"/><path d="M1198.45,605.316c32.05,-1.075 64.431,0.717 96.339,5.599c71.365,10.919 140.366,37.297 199.166,74.07c58.8,36.772 107.401,83.94 143.811,133.638c36.536,49.605 67.014,110.086 84.522,177.191c17.508,67.106 22.047,140.837 11.127,212.202c-10.919,71.365 -37.297,140.365 -74.07,199.166c-36.773,58.8 -83.94,107.401 -133.638,143.811c-3.087,2.273 -6.215,4.523 -9.385,6.748" style="fill-opacity:0;fill-rule:nonzero;stroke:#000;stroke-width:12.5px;"/><path d="M1486.32,1643.63c385.592,-202.14 459.595,-577.139 369.248,-905.094c-65.533,-237.883 -226.816,-451.014 -437.211,-589.795c-78.521,-51.794 -163.883,-93.233 -253.661,-121.737" style="fill-opacity:0;fill-rule:nonzero;stroke:#000;stroke-width:12.5px;"/><path d="M1486.32,1393.45l0,250.182" style="fill-opacity:0;fill-rule:nonzero;stroke:#000;stroke-width:12.5px;"/><path d="M876.76,486.939c-385.591,202.139 -459.594,577.139 -369.247,905.093c89.99,326.664 360.691,606.651 691.026,711.532" style="fill-opacity:0;fill-rule:nonzero;stroke:#000;stroke-width:12.5px;"/><path d="M1198.54,1300.42l0,803.144" style="fill-opacity:0;fill-rule:nonzero;stroke:#000;stroke-width:12.5px;"/><path d="M1516.48,1300.42c0.986,-37.076 -15.84,-81.68 -46.555,-112.395c-30.715,-30.715 -75.319,-47.541 -112.395,-46.555c-37.076,-0.986 -81.68,15.84 -112.395,46.555c-30.715,30.715 -47.542,75.319 -46.556,112.395c-0.986,37.077 15.841,81.681 46.556,112.396c30.715,30.714 75.319,47.541 112.395,46.555c37.076,0.986 81.68,-15.841 112.395,-46.555c30.715,-30.715 47.541,-75.319 46.555,-112.396Z" style="fill-opacity:0;fill-rule:nonzero;stroke:#000;stroke-width:12.5px;stroke-linecap:butt;"/><path d="M876.76,736.48l0,-249.541" style="fill-opacity:0;fill-rule:nonzero;stroke:#000;stroke-width:12.5px;"/></svg>