# Blender v2.83.0 OBJ File: 'RadialFill.blend'
# www.blender.org
mtllib RadialFill_000049.mtl
o Cube_Cube.001
v -1.002928 0.000000 0.427752
v -1.922673 0.000000 0.820266
v -0.000000 -0.000000 1.091693
v 0.000000 0.000000 2.091693
v 0.419168 0.000000 -1.007459
v 0.321545 0.000000 -1.039963
v 0.221973 0.000000 -1.065096
v 0.120473 0.000000 -1.082885
v 0.016814 0.000000 -1.090107
v -0.086778 0.000000 -1.084751
v -0.189172 0.000000 -1.071749
v -0.290111 0.000000 -1.051347
v -0.387379 0.000000 -1.017756
v -0.481138 0.000000 -0.975754
v -0.571644 0.000000 -0.926853
v -0.657893 0.000000 -0.869936
v -0.735916 0.000000 -0.802022
v -0.808372 0.000000 -0.728531
v -0.875135 0.000000 -0.649670
v -0.932400 0.000000 -0.563658
v -0.980059 0.000000 -0.472453
v -1.020732 0.000000 -0.378166
v -1.054352 -0.000000 -0.280924
v -1.073765 0.000000 -0.179687
v -1.085378 0.000000 -0.077024
v -1.089241 0.000000 0.026557
v -1.082430 0.000000 0.130243
v -1.063255 0.000000 0.231492
v -1.036750 0.000000 0.330678
v -1.989719 0.000000 0.633748
v -2.040744 -0.000000 0.442479
v -2.075522 -0.000000 0.247582
v -2.088953 0.000000 0.050562
v -2.082957 0.000000 -0.146564
v -2.060385 -0.000000 -0.342723
v -2.021014 0.000000 -0.536980
v -1.958580 -0.000000 -0.725213
v -1.880628 -0.000000 -0.907166
v -1.787641 0.000000 -1.081888
v -1.677563 0.000000 -1.246417
v -1.551001 0.000000 -1.398234
v -1.412182 0.000000 -1.538679
v -1.261766 0.000000 -1.667017
v -1.097472 0.000000 -1.777444
v -0.923899 0.000000 -1.872394
v -0.742838 0.000000 -1.952447
v -0.554837 0.000000 -2.015671
v -0.361039 0.000000 -2.056870
v -0.165103 0.000000 -2.081679
v 0.032012 0.000000 -2.089992
v 0.229060 0.000000 -2.076972
v 0.103619 0.000000 1.083761
v 0.424198 0.000000 -2.044434
v 0.205561 -0.000000 1.068364
v 0.616042 0.000000 -1.995615
v 0.803431 0.000000 -1.930682
v 0.981516 0.000000 -1.843700
v 1.151101 0.000000 -1.741991
v 1.311502 0.000000 -1.626459
v 1.460118 0.000000 -1.495927
v 1.593306 0.000000 -1.349890
v 1.713716 -0.000000 -1.193264
v 1.820744 0.000000 -1.026854
v 1.908768 0.000000 -0.849279
v 1.979454 -0.000000 -0.664272
v 2.034284 -0.000000 -0.474005
v 2.072212 0.000000 -0.279463
v 0.305811 0.000000 1.045597
v 0.403313 -0.000000 1.012708
v 2.087070 0.000000 -0.082566
v 0.496171 0.000000 0.968410
v 2.085071 -0.000000 0.114571
v 0.585478 0.000000 0.917359
v 2.066357 0.000000 0.311104
v 2.027707 -0.000000 0.505509
v 0.671071 0.000000 0.859610
v 0.748723 -0.000000 0.791130
v 0.819400 0.000000 0.715848
v 0.884182 0.000000 0.635531
v 0.942054 0.000000 0.549920
v 0.987574 0.000000 0.457503
v 1.025958 0.000000 0.362297
v 1.057204 0.000000 0.264419
v 1.077336 0.000000 0.163331
v 1.086550 0.000000 0.060197
v 1.087838 0.000000 -0.043373
v 1.081026 0.000000 -0.146989
v 1.060172 0.000000 -0.247940
v 1.969073 -0.000000 0.694765
v 1.031297 0.000000 -0.346467
v 1.894752 -0.000000 0.878249
v 0.995197 0.000000 -0.442601
v 1.805158 -0.000000 1.054946
v 1.695686 0.000000 1.219877
v 0.949952 0.000000 -0.535203
v 0.893325 0.000000 -0.621461
v 1.572196 -0.000000 1.374102
v 1.436188 0.000000 1.517348
v 1.287096 -0.000000 1.647336
v 0.830518 0.000000 -0.703241
v 1.124316 0.000000 1.759768
v 0.761613 0.000000 -0.780322
v 0.952732 -0.000000 1.858102
v 0.773220 0.000000 1.941777
v 0.585454 0.000000 2.005701
v 0.392628 0.000000 2.050711
v 0.683486 0.000000 -0.848258
v 0.599378 0.000000 -0.907963
v 0.511260 0.000000 -0.961170
v 0.197086 -0.000000 2.079383
vt 0.541667 0.500000
vt 0.550926 0.500000
vt 0.550926 0.750000
vt 0.541667 0.750000
vt 0.662037 0.500000
vt 0.671296 0.500000
vt 0.671296 0.750000
vt 0.662037 0.750000
vt 0.736111 0.500000
vt 0.745370 0.500000
vt 0.745371 0.750000
vt 0.736111 0.750000
vt 0.560185 0.500000
vt 0.560185 0.750000
vt 0.449074 0.500000
vt 0.458333 0.500000
vt 0.458333 0.750000
vt 0.449074 0.750000
vt 0.726852 0.500000
vt 0.726852 0.750000
vt 0.532408 0.500000
vt 0.532407 0.750000
vt 0.523148 0.500000
vt 0.523148 0.750000
vt 0.513889 0.500000
vt 0.513889 0.750000
vt 0.504630 0.500000
vt 0.504630 0.750000
vt 0.495370 0.500000
vt 0.495370 0.750000
vt 0.569445 0.500000
vt 0.569445 0.750000
vt 0.587963 0.500000
vt 0.597222 0.500000
vt 0.597222 0.750000
vt 0.587963 0.750000
vt 0.578704 0.500000
vt 0.578704 0.750000
vt 0.606482 0.500000
vt 0.615741 0.500000
vt 0.615741 0.750000
vt 0.606482 0.750000
vt 0.625000 0.500000
vt 0.625000 0.750000
vt 0.467593 0.500000
vt 0.467593 0.750000
vt 0.476852 0.500000
vt 0.476852 0.750000
vt 0.717593 0.500000
vt 0.717593 0.750000
vt 0.439815 0.500000
vt 0.439815 0.750000
vt 0.689815 0.500000
vt 0.699074 0.500000
vt 0.699074 0.750000
vt 0.689815 0.750000
vt 0.708333 0.500000
vt 0.708333 0.750000
vt 0.634259 0.500000
vt 0.643519 0.500000
vt 0.643519 0.750000
vt 0.634259 0.750000
vt 0.421296 0.500000
vt 0.430556 0.500000
vt 0.430556 0.750000
vt 0.421296 0.750000
vt 0.412037 0.500000
vt 0.412037 0.750000
vt 0.652778 0.500000
vt 0.652778 0.750000
vt 0.402778 0.500000
vt 0.402778 0.750000
vt 0.384259 0.500000
vt 0.393519 0.500000
vt 0.393519 0.750000
vt 0.384259 0.750000
vt 0.865741 0.500000
vt 0.875000 0.500000
vt 0.875000 0.750000
vt 0.865741 0.750000
vt 0.680556 0.500000
vt 0.680556 0.750000
vt 0.375000 0.500000
vt 0.375000 0.750000
vt 0.486111 0.500000
vt 0.486111 0.750000
vt 0.856481 0.500000
vt 0.856481 0.750000
vt 0.847222 0.500000
vt 0.847222 0.750000
vt 0.837963 0.500000
vt 0.837963 0.750000
vt 0.828704 0.500000
vt 0.828704 0.750000
vt 0.819444 0.500000
vt 0.819445 0.750000
vt 0.810185 0.500000
vt 0.810185 0.750000
vt 0.800926 0.500000
vt 0.800926 0.750000
vt 0.791667 0.500000
vt 0.791667 0.750000
vt 0.782407 0.500000
vt 0.782408 0.750000
vt 0.773148 0.500000
vt 0.773148 0.750000
vt 0.763889 0.500000
vt 0.763889 0.750000
vt 0.754630 0.500000
vt 0.754630 0.750000
vn 0.0000 1.0000 -0.0000
usemtl None
s off
f 67/1/1 66/2/1 88/3/1 87/4/1
f 53/5/1 51/6/1 8/7/1 7/8/1
f 44/9/1 43/10/1 16/11/1 15/12/1
f 66/2/1 65/13/1 90/14/1 88/3/1
f 98/15/1 97/16/1 78/17/1 77/18/1
f 45/19/1 44/9/1 15/12/1 14/20/1
f 70/21/1 67/1/1 87/4/1 86/22/1
f 72/23/1 70/21/1 86/22/1 85/24/1
f 74/25/1 72/23/1 85/24/1 84/26/1
f 75/27/1 74/25/1 84/26/1 83/28/1
f 89/29/1 75/27/1 83/28/1 82/30/1
f 65/13/1 64/31/1 92/32/1 90/14/1
f 62/33/1 61/34/1 100/35/1 96/36/1
f 63/37/1 62/33/1 96/36/1 95/38/1
f 60/39/1 59/40/1 107/41/1 102/42/1
f 61/34/1 60/39/1 102/42/1 100/35/1
f 59/40/1 58/43/1 108/44/1 107/41/1
f 97/16/1 94/45/1 79/46/1 78/17/1
f 94/45/1 93/47/1 80/48/1 79/46/1
f 46/49/1 45/19/1 14/20/1 13/50/1
f 99/51/1 98/15/1 77/18/1 76/52/1
f 49/53/1 48/54/1 11/55/1 10/56/1
f 47/57/1 46/49/1 13/50/1 12/58/1
f 57/59/1 56/60/1 5/61/1 109/62/1
f 103/63/1 101/64/1 73/65/1 71/66/1
f 104/67/1 103/63/1 71/66/1 69/68/1
f 58/43/1 57/59/1 109/62/1 108/44/1
f 56/60/1 55/69/1 6/70/1 5/61/1
f 105/71/1 104/67/1 69/68/1 68/72/1
f 55/69/1 53/5/1 7/8/1 6/70/1
f 110/73/1 106/74/1 54/75/1 52/76/1
f 48/54/1 47/57/1 12/58/1 11/55/1
f 30/77/1 2/78/1 1/79/1 29/80/1
f 51/6/1 50/81/1 9/82/1 8/7/1
f 106/74/1 105/71/1 68/72/1 54/75/1
f 50/81/1 49/53/1 10/56/1 9/82/1
f 4/83/1 110/73/1 52/76/1 3/84/1
f 101/64/1 99/51/1 76/52/1 73/65/1
f 93/47/1 91/85/1 81/86/1 80/48/1
f 91/85/1 89/29/1 82/30/1 81/86/1
f 31/87/1 30/77/1 29/80/1 28/88/1
f 32/89/1 31/87/1 28/88/1 27/90/1
f 33/91/1 32/89/1 27/90/1 26/92/1
f 34/93/1 33/91/1 26/92/1 25/94/1
f 35/95/1 34/93/1 25/94/1 24/96/1
f 36/97/1 35/95/1 24/96/1 23/98/1
f 37/99/1 36/97/1 23/98/1 22/100/1
f 38/101/1 37/99/1 22/100/1 21/102/1
f 39/103/1 38/101/1 21/102/1 20/104/1
f 40/105/1 39/103/1 20/104/1 19/106/1
f 41/107/1 40/105/1 19/106/1 18/108/1
f 42/109/1 41/107/1 18/108/1 17/110/1
f 43/10/1 42/109/1 17/110/1 16/11/1
f 64/31/1 63/37/1 95/38/1 92/32/1
