# Blender v2.83.0 OBJ File: 'RadialFill.blend'
# www.blender.org
mtllib RadialFill_000055.mtl
o Cube_Cube.001
v -0.550075 -0.000000 0.941944
v -1.055251 0.000000 1.804960
v -0.000000 -0.000000 1.091693
v 0.000000 0.000000 2.091693
v 0.056118 0.000000 -1.086852
v -0.060386 0.000000 -1.086536
v -0.176090 0.000000 -1.074539
v -0.289637 0.000000 -1.051523
v -0.399145 0.000000 -1.014016
v -0.503822 0.000000 -0.964722
v -0.603231 0.000000 -0.905383
v -0.696540 0.000000 -0.836492
v -0.782853 0.000000 -0.758578
v -0.859652 0.000000 -0.671026
v -0.924686 0.000000 -0.574784
v -0.979777 0.000000 -0.473020
v -1.024541 0.000000 -0.366561
v -1.058673 0.000000 -0.256178
v -1.081911 0.000000 -0.142579
v -1.089297 0.000000 -0.025922
v -1.084516 0.000000 0.090604
v -1.068377 -0.000000 0.205498
v -1.041276 0.000000 0.317846
v -1.003282 -0.000000 0.427077
v -0.951897 0.000000 0.531001
v -0.888811 -0.000000 0.628381
v -0.816510 -0.000000 0.719155
v -0.735530 0.000000 0.802353
v -0.646556 0.000000 0.877115
v -1.240591 0.000000 1.681554
v -1.411453 -0.000000 1.539325
v -1.566666 0.000000 1.380415
v -1.704849 0.000000 1.206379
v -1.824780 0.000000 1.018932
v -1.923302 -0.000000 0.818948
v -1.997995 0.000000 0.608861
v -2.050734 0.000000 0.392511
v -2.081167 -0.000000 0.172375
v -2.089022 0.000000 -0.049348
v -2.073639 0.000000 -0.270941
v -2.031010 0.000000 -0.489761
v -1.966262 -0.000000 -0.702956
v -1.880091 -0.000000 -0.908260
v -1.773435 0.000000 -1.103580
v -1.647414 0.000000 -1.287005
v -1.500966 0.000000 -1.454505
v -1.336931 0.000000 -1.604541
v -1.158492 0.000000 -1.737060
v -0.967348 0.000000 -1.850806
v -0.765285 0.000000 -1.944576
v -0.553909 0.000000 -2.015971
v 0.116576 0.000000 1.083077
v -0.335777 0.000000 -2.061707
v 0.230807 -0.000000 1.063386
v -0.114932 0.000000 -2.085048
v 0.106813 0.000000 -2.085566
v 0.327755 0.000000 -2.063228
v 0.546136 0.000000 -2.018481
v 0.757579 0.000000 -1.947286
v 0.960046 0.000000 -1.854455
v 1.151709 0.000000 -1.741585
v 1.330767 0.000000 -1.609870
v 1.495524 0.000000 -1.460567
v 1.642127 0.000000 -1.293203
v 1.768954 -0.000000 -1.110392
v 1.876490 -0.000000 -0.915587
v 1.963603 -0.000000 -0.710683
v 0.342158 0.000000 1.032773
v 0.449989 -0.000000 0.991401
v 2.029337 -0.000000 -0.497753
v 0.553555 -0.000000 0.939485
v 2.072300 -0.000000 -0.278984
v 0.650151 -0.000000 0.874829
v 2.088556 -0.000000 -0.057470
v 2.081738 -0.000000 0.164258
v 0.738771 -0.000000 0.799580
v 0.819317 0.000000 0.715944
v 0.891134 0.000000 0.624814
v 0.953689 0.000000 0.527149
v 1.005263 0.000000 0.423317
v 1.042702 0.000000 0.313853
v 1.069225 0.000000 0.201339
v 1.084779 0.000000 0.086334
v 1.088928 0.000000 -0.030187
v 1.081082 0.000000 -0.146742
v 1.057924 0.000000 -0.260358
v 1.023213 0.000000 -0.370584
v 0.977889 0.000000 -0.476820
v 2.052309 -0.000000 0.384496
v 0.922273 0.000000 -0.578291
v 2.000558 -0.000000 0.601100
v 0.856764 0.000000 -0.674167
v 1.926814 -0.000000 0.811575
v 1.828480 -0.000000 1.011650
v 0.780120 0.000000 -0.761856
v 0.693365 0.000000 -0.839339
v 1.709421 0.000000 1.199624
v 1.572036 -0.000000 1.374285
v 1.417553 0.000000 1.533920
v 0.599694 0.000000 -0.907751
v 1.247319 0.000000 1.676945
v 0.499996 0.000000 -0.966562
v 1.062093 0.000000 1.800525
v 0.863660 -0.000000 1.901827
v 0.655952 -0.000000 1.982264
v 0.441164 0.000000 2.041011
v 0.395101 0.000000 -1.015294
v 0.285659 0.000000 -1.053001
v 0.171940 0.000000 -1.075441
v 0.221671 0.000000 2.077539
vt 0.541667 0.500000
vt 0.550926 0.500000
vt 0.550926 0.750000
vt 0.541667 0.750000
vt 0.662037 0.500000
vt 0.671296 0.500000
vt 0.671296 0.750000
vt 0.662037 0.750000
vt 0.736111 0.500000
vt 0.745370 0.500000
vt 0.745371 0.750000
vt 0.736111 0.750000
vt 0.560185 0.500000
vt 0.560185 0.750000
vt 0.449074 0.500000
vt 0.458333 0.500000
vt 0.458333 0.750000
vt 0.449074 0.750000
vt 0.726852 0.500000
vt 0.726852 0.750000
vt 0.532408 0.500000
vt 0.532407 0.750000
vt 0.523148 0.500000
vt 0.523148 0.750000
vt 0.513889 0.500000
vt 0.513889 0.750000
vt 0.504630 0.500000
vt 0.504630 0.750000
vt 0.495370 0.500000
vt 0.495370 0.750000
vt 0.569445 0.500000
vt 0.569445 0.750000
vt 0.587963 0.500000
vt 0.597222 0.500000
vt 0.597222 0.750000
vt 0.587963 0.750000
vt 0.578704 0.500000
vt 0.578704 0.750000
vt 0.606482 0.500000
vt 0.615741 0.500000
vt 0.615741 0.750000
vt 0.606482 0.750000
vt 0.625000 0.500000
vt 0.625000 0.750000
vt 0.467593 0.500000
vt 0.467593 0.750000
vt 0.476852 0.500000
vt 0.476852 0.750000
vt 0.717593 0.500000
vt 0.717593 0.750000
vt 0.439815 0.500000
vt 0.439815 0.750000
vt 0.689815 0.500000
vt 0.699074 0.500000
vt 0.699074 0.750000
vt 0.689815 0.750000
vt 0.708333 0.500000
vt 0.708333 0.750000
vt 0.634259 0.500000
vt 0.643519 0.500000
vt 0.643519 0.750000
vt 0.634259 0.750000
vt 0.421296 0.500000
vt 0.430556 0.500000
vt 0.430556 0.750000
vt 0.421296 0.750000
vt 0.412037 0.500000
vt 0.412037 0.750000
vt 0.652778 0.500000
vt 0.652778 0.750000
vt 0.402778 0.500000
vt 0.402778 0.750000
vt 0.384259 0.500000
vt 0.393519 0.500000
vt 0.393519 0.750000
vt 0.384259 0.750000
vt 0.865741 0.500000
vt 0.875000 0.500000
vt 0.875000 0.750000
vt 0.865741 0.750000
vt 0.680556 0.500000
vt 0.680556 0.750000
vt 0.375000 0.500000
vt 0.375000 0.750000
vt 0.486111 0.500000
vt 0.486111 0.750000
vt 0.856481 0.500000
vt 0.856481 0.750000
vt 0.847222 0.500000
vt 0.847222 0.750000
vt 0.837963 0.500000
vt 0.837963 0.750000
vt 0.828704 0.500000
vt 0.828704 0.750000
vt 0.819444 0.500000
vt 0.819445 0.750000
vt 0.810185 0.500000
vt 0.810185 0.750000
vt 0.800926 0.500000
vt 0.800926 0.750000
vt 0.791667 0.500000
vt 0.791667 0.750000
vt 0.782407 0.500000
vt 0.782408 0.750000
vt 0.773148 0.500000
vt 0.773148 0.750000
vt 0.763889 0.500000
vt 0.763889 0.750000
vt 0.754630 0.500000
vt 0.754630 0.750000
vn 0.0000 1.0000 0.0000
usemtl None
s off
f 67/1/1 66/2/1 88/3/1 87/4/1
f 53/5/1 51/6/1 8/7/1 7/8/1
f 44/9/1 43/10/1 16/11/1 15/12/1
f 66/2/1 65/13/1 90/14/1 88/3/1
f 98/15/1 97/16/1 78/17/1 77/18/1
f 45/19/1 44/9/1 15/12/1 14/20/1
f 70/21/1 67/1/1 87/4/1 86/22/1
f 72/23/1 70/21/1 86/22/1 85/24/1
f 74/25/1 72/23/1 85/24/1 84/26/1
f 75/27/1 74/25/1 84/26/1 83/28/1
f 89/29/1 75/27/1 83/28/1 82/30/1
f 65/13/1 64/31/1 92/32/1 90/14/1
f 62/33/1 61/34/1 100/35/1 96/36/1
f 63/37/1 62/33/1 96/36/1 95/38/1
f 60/39/1 59/40/1 107/41/1 102/42/1
f 61/34/1 60/39/1 102/42/1 100/35/1
f 59/40/1 58/43/1 108/44/1 107/41/1
f 97/16/1 94/45/1 79/46/1 78/17/1
f 94/45/1 93/47/1 80/48/1 79/46/1
f 46/49/1 45/19/1 14/20/1 13/50/1
f 99/51/1 98/15/1 77/18/1 76/52/1
f 49/53/1 48/54/1 11/55/1 10/56/1
f 47/57/1 46/49/1 13/50/1 12/58/1
f 57/59/1 56/60/1 5/61/1 109/62/1
f 103/63/1 101/64/1 73/65/1 71/66/1
f 104/67/1 103/63/1 71/66/1 69/68/1
f 58/43/1 57/59/1 109/62/1 108/44/1
f 56/60/1 55/69/1 6/70/1 5/61/1
f 105/71/1 104/67/1 69/68/1 68/72/1
f 55/69/1 53/5/1 7/8/1 6/70/1
f 110/73/1 106/74/1 54/75/1 52/76/1
f 48/54/1 47/57/1 12/58/1 11/55/1
f 30/77/1 2/78/1 1/79/1 29/80/1
f 51/6/1 50/81/1 9/82/1 8/7/1
f 106/74/1 105/71/1 68/72/1 54/75/1
f 50/81/1 49/53/1 10/56/1 9/82/1
f 4/83/1 110/73/1 52/76/1 3/84/1
f 101/64/1 99/51/1 76/52/1 73/65/1
f 93/47/1 91/85/1 81/86/1 80/48/1
f 91/85/1 89/29/1 82/30/1 81/86/1
f 31/87/1 30/77/1 29/80/1 28/88/1
f 32/89/1 31/87/1 28/88/1 27/90/1
f 33/91/1 32/89/1 27/90/1 26/92/1
f 34/93/1 33/91/1 26/92/1 25/94/1
f 35/95/1 34/93/1 25/94/1 24/96/1
f 36/97/1 35/95/1 24/96/1 23/98/1
f 37/99/1 36/97/1 23/98/1 22/100/1
f 38/101/1 37/99/1 22/100/1 21/102/1
f 39/103/1 38/101/1 21/102/1 20/104/1
f 40/105/1 39/103/1 20/104/1 19/106/1
f 41/107/1 40/105/1 19/106/1 18/108/1
f 42/109/1 41/107/1 18/108/1 17/110/1
f 43/10/1 42/109/1 17/110/1 16/11/1
f 64/31/1 63/37/1 95/38/1 92/32/1
