# Blender v2.83.0 OBJ File: 'RadialFill.blend'
# www.blender.org
mtllib RadialFill_000021.mtl
o Cube_Cube.001
v 0.919832 0.000000 -0.581853
v 1.764402 0.000000 -1.117299
v -0.000000 -0.000000 1.091693
v 0.000000 0.000000 2.091693
v 0.992449 0.000000 0.447942
v 1.010880 0.000000 0.409182
v 1.023978 0.000000 0.368264
v 1.037823 0.000000 0.327615
v 1.052426 -0.000000 0.287204
v 1.060708 0.000000 0.245035
v 1.068924 0.000000 0.202811
v 1.077915 0.000000 0.160732
v 1.083009 0.000000 0.117943
v 1.085536 0.000000 0.074647
v 1.088825 0.000000 0.031403
v 1.090566 0.000000 -0.011820
v 1.086931 0.000000 -0.055051
v 1.084060 0.000000 -0.098320
v 1.081948 0.000000 -0.141656
v 1.072900 0.000000 -0.183732
v 1.064334 0.000000 -0.225887
v 1.056539 0.000000 -0.268204
v 1.044344 0.000000 -0.309280
v 1.030156 0.000000 -0.349818
v 1.016722 0.000000 -0.390610
v 1.001418 0.000000 -0.430631
v 0.981816 0.000000 -0.468932
v 0.962927 0.000000 -0.507573
v 0.944510 0.000000 -0.546456
v 1.809570 0.000000 -1.048124
v 1.847224 -0.000000 -0.974497
v 1.883959 0.000000 -0.900371
v 1.919982 -0.000000 -0.825903
v 1.950289 -0.000000 -0.749012
v 1.977263 -0.000000 -0.670738
v 2.003485 -0.000000 -0.592208
v 2.026181 0.000000 -0.512735
v 2.042921 0.000000 -0.431718
v 2.058890 -0.000000 -0.350539
v 2.073781 0.000000 -0.269199
v 2.080118 -0.000000 -0.187026
v 2.085694 0.000000 -0.104785
v 2.090509 -0.000000 -0.022506
v 2.088422 0.000000 0.059781
v 2.083263 -0.000000 0.142047
v 2.077341 -0.000000 0.224262
v 2.067296 -0.000000 0.306077
v 2.051752 -0.000000 0.387332
v 2.035433 -0.000000 0.468441
v 2.017507 0.000000 0.549157
v 1.991701 -0.000000 0.627812
v 0.043225 0.000000 1.087850
v 1.965137 -0.000000 0.706230
v 0.086481 -0.000000 1.084770
v 1.937825 -0.000000 0.784379
v 1.903752 -0.000000 0.859679
v 1.867405 -0.000000 0.933995
v 1.830352 -0.000000 1.007958
v 1.789192 -0.000000 1.079512
v 1.743722 -0.000000 1.148501
v 1.697601 -0.000000 1.217061
v 1.649725 -0.000000 1.284292
v 1.595907 0.000000 1.346894
v 1.541497 -0.000000 1.408997
v 1.486516 0.000000 1.470577
v 1.425890 -0.000000 1.526518
v 1.363929 -0.000000 1.581086
v 0.129796 0.000000 1.082450
v 0.172227 -0.000000 1.075378
v 1.301461 0.000000 1.635067
v 0.214343 0.000000 1.066600
v 1.235732 0.000000 1.684877
v 0.256613 -0.000000 1.058595
v 1.167295 -0.000000 1.731173
v 1.098420 0.000000 1.776822
v 0.298234 -0.000000 1.048356
v 0.338707 -0.000000 1.033962
v 0.379427 0.000000 1.020322
v 0.420212 0.000000 1.006905
v 0.458424 0.000000 0.987106
v 0.496969 -0.000000 0.968023
v 0.535874 -0.000000 0.949642
v 0.572131 -0.000000 0.926516
v 0.607829 0.000000 0.902319
v 0.643964 0.000000 0.878769
v 0.678365 0.000000 0.852921
v 0.710536 0.000000 0.824066
v 0.743214 0.000000 0.795796
v 1.028120 -0.000000 1.820098
v 0.775614 0.000000 0.767286
v 0.954258 -0.000000 1.857341
v 0.803470 0.000000 0.734226
v 0.880036 0.000000 1.893883
v 0.805481 -0.000000 1.929709
v 0.831898 0.000000 0.701689
v 0.860918 0.000000 0.669652
v 0.727630 -0.000000 1.957741
v 0.649284 -0.000000 1.984510
v 0.570690 0.000000 2.010524
v 0.885146 0.000000 0.634037
v 0.490595 0.000000 2.030836
v 0.908872 0.000000 0.598024
v 0.409530 -0.000000 2.047365
v 0.328312 -0.000000 2.063122
v 0.246733 -0.000000 2.075589
v 0.164538 0.000000 2.081719
v 0.933249 0.000000 0.562441
v 0.954600 0.000000 0.525197
v 0.973172 0.000000 0.486393
v 0.082284 -0.000000 2.087087
vt 0.541667 0.500000
vt 0.550926 0.500000
vt 0.550926 0.750000
vt 0.541667 0.750000
vt 0.662037 0.500000
vt 0.671296 0.500000
vt 0.671296 0.750000
vt 0.662037 0.750000
vt 0.736111 0.500000
vt 0.745370 0.500000
vt 0.745371 0.750000
vt 0.736111 0.750000
vt 0.560185 0.500000
vt 0.560185 0.750000
vt 0.449074 0.500000
vt 0.458333 0.500000
vt 0.458333 0.750000
vt 0.449074 0.750000
vt 0.726852 0.500000
vt 0.726852 0.750000
vt 0.532408 0.500000
vt 0.532407 0.750000
vt 0.523148 0.500000
vt 0.523148 0.750000
vt 0.513889 0.500000
vt 0.513889 0.750000
vt 0.504630 0.500000
vt 0.504630 0.750000
vt 0.495370 0.500000
vt 0.495370 0.750000
vt 0.569445 0.500000
vt 0.569445 0.750000
vt 0.587963 0.500000
vt 0.597222 0.500000
vt 0.597222 0.750000
vt 0.587963 0.750000
vt 0.578704 0.500000
vt 0.578704 0.750000
vt 0.606482 0.500000
vt 0.615741 0.500000
vt 0.615741 0.750000
vt 0.606482 0.750000
vt 0.625000 0.500000
vt 0.625000 0.750000
vt 0.467593 0.500000
vt 0.467593 0.750000
vt 0.476852 0.500000
vt 0.476852 0.750000
vt 0.717593 0.500000
vt 0.717593 0.750000
vt 0.439815 0.500000
vt 0.439815 0.750000
vt 0.689815 0.500000
vt 0.699074 0.500000
vt 0.699074 0.750000
vt 0.689815 0.750000
vt 0.708333 0.500000
vt 0.708333 0.750000
vt 0.634259 0.500000
vt 0.643519 0.500000
vt 0.643519 0.750000
vt 0.634259 0.750000
vt 0.421296 0.500000
vt 0.430556 0.500000
vt 0.430556 0.750000
vt 0.421296 0.750000
vt 0.412037 0.500000
vt 0.412037 0.750000
vt 0.652778 0.500000
vt 0.652778 0.750000
vt 0.402778 0.500000
vt 0.402778 0.750000
vt 0.384259 0.500000
vt 0.393519 0.500000
vt 0.393519 0.750000
vt 0.384259 0.750000
vt 0.865741 0.500000
vt 0.875000 0.500000
vt 0.875000 0.750000
vt 0.865741 0.750000
vt 0.680556 0.500000
vt 0.680556 0.750000
vt 0.375000 0.500000
vt 0.375000 0.750000
vt 0.486111 0.500000
vt 0.486111 0.750000
vt 0.856481 0.500000
vt 0.856481 0.750000
vt 0.847222 0.500000
vt 0.847222 0.750000
vt 0.837963 0.500000
vt 0.837963 0.750000
vt 0.828704 0.500000
vt 0.828704 0.750000
vt 0.819444 0.500000
vt 0.819445 0.750000
vt 0.810185 0.500000
vt 0.810185 0.750000
vt 0.800926 0.500000
vt 0.800926 0.750000
vt 0.791667 0.500000
vt 0.791667 0.750000
vt 0.782407 0.500000
vt 0.782408 0.750000
vt 0.773148 0.500000
vt 0.773148 0.750000
vt 0.763889 0.500000
vt 0.763889 0.750000
vt 0.754630 0.500000
vt 0.754630 0.750000
vn 0.0000 1.0000 0.0000
usemtl None
s off
f 67/1/1 66/2/1 88/3/1 87/4/1
f 53/5/1 51/6/1 8/7/1 7/8/1
f 44/9/1 43/10/1 16/11/1 15/12/1
f 66/2/1 65/13/1 90/14/1 88/3/1
f 98/15/1 97/16/1 78/17/1 77/18/1
f 45/19/1 44/9/1 15/12/1 14/20/1
f 70/21/1 67/1/1 87/4/1 86/22/1
f 72/23/1 70/21/1 86/22/1 85/24/1
f 74/25/1 72/23/1 85/24/1 84/26/1
f 75/27/1 74/25/1 84/26/1 83/28/1
f 89/29/1 75/27/1 83/28/1 82/30/1
f 65/13/1 64/31/1 92/32/1 90/14/1
f 62/33/1 61/34/1 100/35/1 96/36/1
f 63/37/1 62/33/1 96/36/1 95/38/1
f 60/39/1 59/40/1 107/41/1 102/42/1
f 61/34/1 60/39/1 102/42/1 100/35/1
f 59/40/1 58/43/1 108/44/1 107/41/1
f 97/16/1 94/45/1 79/46/1 78/17/1
f 94/45/1 93/47/1 80/48/1 79/46/1
f 46/49/1 45/19/1 14/20/1 13/50/1
f 99/51/1 98/15/1 77/18/1 76/52/1
f 49/53/1 48/54/1 11/55/1 10/56/1
f 47/57/1 46/49/1 13/50/1 12/58/1
f 57/59/1 56/60/1 5/61/1 109/62/1
f 103/63/1 101/64/1 73/65/1 71/66/1
f 104/67/1 103/63/1 71/66/1 69/68/1
f 58/43/1 57/59/1 109/62/1 108/44/1
f 56/60/1 55/69/1 6/70/1 5/61/1
f 105/71/1 104/67/1 69/68/1 68/72/1
f 55/69/1 53/5/1 7/8/1 6/70/1
f 110/73/1 106/74/1 54/75/1 52/76/1
f 48/54/1 47/57/1 12/58/1 11/55/1
f 30/77/1 2/78/1 1/79/1 29/80/1
f 51/6/1 50/81/1 9/82/1 8/7/1
f 106/74/1 105/71/1 68/72/1 54/75/1
f 50/81/1 49/53/1 10/56/1 9/82/1
f 4/83/1 110/73/1 52/76/1 3/84/1
f 101/64/1 99/51/1 76/52/1 73/65/1
f 93/47/1 91/85/1 81/86/1 80/48/1
f 91/85/1 89/29/1 82/30/1 81/86/1
f 31/87/1 30/77/1 29/80/1 28/88/1
f 32/89/1 31/87/1 28/88/1 27/90/1
f 33/91/1 32/89/1 27/90/1 26/92/1
f 34/93/1 33/91/1 26/92/1 25/94/1
f 35/95/1 34/93/1 25/94/1 24/96/1
f 36/97/1 35/95/1 24/96/1 23/98/1
f 37/99/1 36/97/1 23/98/1 22/100/1
f 38/101/1 37/99/1 22/100/1 21/102/1
f 39/103/1 38/101/1 21/102/1 20/104/1
f 40/105/1 39/103/1 20/104/1 19/106/1
f 41/107/1 40/105/1 19/106/1 18/108/1
f 42/109/1 41/107/1 18/108/1 17/110/1
f 43/10/1 42/109/1 17/110/1 16/11/1
f 64/31/1 63/37/1 95/38/1 92/32/1
