# Blender v2.83.0 OBJ File: 'RadialFill.blend'
# www.blender.org
mtllib RadialFill_000001.mtl
o Cube_Cube.001
v 0.006871 0.000000 1.091031
v 0.013083 -0.000000 2.091012
v -0.000000 -0.000000 1.091693
v 0.000000 0.000000 2.091693
v 0.003690 -0.000000 1.091335
v 0.003817 -0.000000 1.091323
v 0.003945 0.000000 1.091311
v 0.004072 0.000000 1.091298
v 0.004199 0.000000 1.091286
v 0.004326 -0.000000 1.091274
v 0.004454 0.000000 1.091262
v 0.004581 -0.000000 1.091249
v 0.004708 0.000000 1.091237
v 0.004835 -0.000000 1.091225
v 0.004963 -0.000000 1.091213
v 0.005090 0.000000 1.091200
v 0.005217 0.000000 1.091188
v 0.005344 0.000000 1.091176
v 0.005472 -0.000000 1.091164
v 0.005599 0.000000 1.091152
v 0.005726 0.000000 1.091140
v 0.005853 0.000000 1.091128
v 0.005981 -0.000000 1.091115
v 0.006108 -0.000000 1.091103
v 0.006235 0.000000 1.091091
v 0.006362 -0.000000 1.091079
v 0.006490 0.000000 1.091067
v 0.006617 -0.000000 1.091055
v 0.006744 0.000000 1.091043
v 0.012841 -0.000000 2.091024
v 0.012599 0.000000 2.091037
v 0.012356 -0.000000 2.091050
v 0.012114 0.000000 2.091063
v 0.011872 -0.000000 2.091075
v 0.011630 0.000000 2.091088
v 0.011387 0.000000 2.091101
v 0.011145 -0.000000 2.091114
v 0.010903 -0.000000 2.091126
v 0.010661 -0.000000 2.091139
v 0.010418 0.000000 2.091152
v 0.010176 -0.000000 2.091165
v 0.009934 -0.000000 2.091177
v 0.009691 -0.000000 2.091190
v 0.009449 0.000000 2.091202
v 0.009207 0.000000 2.091216
v 0.008965 -0.000000 2.091228
v 0.008722 0.000000 2.091241
v 0.008480 -0.000000 2.091254
v 0.008238 0.000000 2.091266
v 0.007995 -0.000000 2.091279
v 0.007753 -0.000000 2.091291
v 0.000127 -0.000000 1.091680
v 0.007511 -0.000000 2.091304
v 0.000254 -0.000000 1.091668
v 0.007269 0.000000 2.091317
v 0.007026 0.000000 2.091329
v 0.006784 0.000000 2.091342
v 0.006542 0.000000 2.091355
v 0.006299 -0.000000 2.091367
v 0.006057 -0.000000 2.091380
v 0.005815 0.000000 2.091392
v 0.005573 0.000000 2.091405
v 0.005330 -0.000000 2.091418
v 0.005088 0.000000 2.091430
v 0.004846 -0.000000 2.091443
v 0.004604 -0.000000 2.091455
v 0.004361 0.000000 2.091468
v 0.000382 -0.000000 1.091655
v 0.000509 0.000000 1.091643
v 0.004119 0.000000 2.091480
v 0.000636 0.000000 1.091631
v 0.003877 -0.000000 2.091493
v 0.000763 -0.000000 1.091618
v 0.003634 -0.000000 2.091506
v 0.003392 -0.000000 2.091518
v 0.000891 0.000000 1.091606
v 0.001018 -0.000000 1.091594
v 0.001145 0.000000 1.091581
v 0.001272 -0.000000 1.091569
v 0.001400 -0.000000 1.091556
v 0.001527 -0.000000 1.091544
v 0.001654 0.000000 1.091532
v 0.001781 0.000000 1.091519
v 0.001909 0.000000 1.091507
v 0.002036 0.000000 1.091495
v 0.002163 -0.000000 1.091482
v 0.002290 -0.000000 1.091470
v 0.002418 0.000000 1.091458
v 0.003150 -0.000000 2.091531
v 0.002545 0.000000 1.091445
v 0.002908 0.000000 2.091543
v 0.002672 -0.000000 1.091433
v 0.002665 0.000000 2.091556
v 0.002423 0.000000 2.091568
v 0.002799 0.000000 1.091421
v 0.002927 -0.000000 1.091408
v 0.002181 -0.000000 2.091581
v 0.001938 0.000000 2.091593
v 0.001696 -0.000000 2.091606
v 0.003054 -0.000000 1.091396
v 0.001454 0.000000 2.091618
v 0.003181 0.000000 1.091384
v 0.001212 -0.000000 2.091631
v 0.000969 -0.000000 2.091643
v 0.000727 0.000000 2.091655
v 0.000485 0.000000 2.091668
v 0.003308 0.000000 1.091372
v 0.003436 -0.000000 1.091359
v 0.003563 -0.000000 1.091347
v 0.000243 0.000000 2.091680
vt 0.541667 0.500000
vt 0.550926 0.500000
vt 0.550926 0.750000
vt 0.541667 0.750000
vt 0.662037 0.500000
vt 0.671296 0.500000
vt 0.671296 0.750000
vt 0.662037 0.750000
vt 0.736111 0.500000
vt 0.745370 0.500000
vt 0.745371 0.750000
vt 0.736111 0.750000
vt 0.560185 0.500000
vt 0.560185 0.750000
vt 0.449074 0.500000
vt 0.458333 0.500000
vt 0.458333 0.750000
vt 0.449074 0.750000
vt 0.726852 0.500000
vt 0.726852 0.750000
vt 0.532408 0.500000
vt 0.532407 0.750000
vt 0.523148 0.500000
vt 0.523148 0.750000
vt 0.513889 0.500000
vt 0.513889 0.750000
vt 0.504630 0.500000
vt 0.504630 0.750000
vt 0.495370 0.500000
vt 0.495370 0.750000
vt 0.569445 0.500000
vt 0.569445 0.750000
vt 0.587963 0.500000
vt 0.597222 0.500000
vt 0.597222 0.750000
vt 0.587963 0.750000
vt 0.578704 0.500000
vt 0.578704 0.750000
vt 0.606482 0.500000
vt 0.615741 0.500000
vt 0.615741 0.750000
vt 0.606482 0.750000
vt 0.625000 0.500000
vt 0.625000 0.750000
vt 0.467593 0.500000
vt 0.467593 0.750000
vt 0.476852 0.500000
vt 0.476852 0.750000
vt 0.717593 0.500000
vt 0.717593 0.750000
vt 0.439815 0.500000
vt 0.439815 0.750000
vt 0.689815 0.500000
vt 0.699074 0.500000
vt 0.699074 0.750000
vt 0.689815 0.750000
vt 0.708333 0.500000
vt 0.708333 0.750000
vt 0.634259 0.500000
vt 0.643519 0.500000
vt 0.643519 0.750000
vt 0.634259 0.750000
vt 0.421296 0.500000
vt 0.430556 0.500000
vt 0.430556 0.750000
vt 0.421296 0.750000
vt 0.412037 0.500000
vt 0.412037 0.750000
vt 0.652778 0.500000
vt 0.652778 0.750000
vt 0.402778 0.500000
vt 0.402778 0.750000
vt 0.384259 0.500000
vt 0.393519 0.500000
vt 0.393519 0.750000
vt 0.384259 0.750000
vt 0.865741 0.500000
vt 0.875000 0.500000
vt 0.875000 0.750000
vt 0.865741 0.750000
vt 0.680556 0.500000
vt 0.680556 0.750000
vt 0.375000 0.500000
vt 0.375000 0.750000
vt 0.486111 0.500000
vt 0.486111 0.750000
vt 0.856481 0.500000
vt 0.856481 0.750000
vt 0.847222 0.500000
vt 0.847222 0.750000
vt 0.837963 0.500000
vt 0.837963 0.750000
vt 0.828704 0.500000
vt 0.828704 0.750000
vt 0.819444 0.500000
vt 0.819445 0.750000
vt 0.810185 0.500000
vt 0.810185 0.750000
vt 0.800926 0.500000
vt 0.800926 0.750000
vt 0.791667 0.500000
vt 0.791667 0.750000
vt 0.782407 0.500000
vt 0.782408 0.750000
vt 0.773148 0.500000
vt 0.773148 0.750000
vt 0.763889 0.500000
vt 0.763889 0.750000
vt 0.754630 0.500000
vt 0.754630 0.750000
vn 0.0000 1.0000 0.0000
usemtl None
s off
f 67/1/1 66/2/1 88/3/1 87/4/1
f 53/5/1 51/6/1 8/7/1 7/8/1
f 44/9/1 43/10/1 16/11/1 15/12/1
f 66/2/1 65/13/1 90/14/1 88/3/1
f 98/15/1 97/16/1 78/17/1 77/18/1
f 45/19/1 44/9/1 15/12/1 14/20/1
f 70/21/1 67/1/1 87/4/1 86/22/1
f 72/23/1 70/21/1 86/22/1 85/24/1
f 74/25/1 72/23/1 85/24/1 84/26/1
f 75/27/1 74/25/1 84/26/1 83/28/1
f 89/29/1 75/27/1 83/28/1 82/30/1
f 65/13/1 64/31/1 92/32/1 90/14/1
f 62/33/1 61/34/1 100/35/1 96/36/1
f 63/37/1 62/33/1 96/36/1 95/38/1
f 60/39/1 59/40/1 107/41/1 102/42/1
f 61/34/1 60/39/1 102/42/1 100/35/1
f 59/40/1 58/43/1 108/44/1 107/41/1
f 97/16/1 94/45/1 79/46/1 78/17/1
f 94/45/1 93/47/1 80/48/1 79/46/1
f 46/49/1 45/19/1 14/20/1 13/50/1
f 99/51/1 98/15/1 77/18/1 76/52/1
f 49/53/1 48/54/1 11/55/1 10/56/1
f 47/57/1 46/49/1 13/50/1 12/58/1
f 57/59/1 56/60/1 5/61/1 109/62/1
f 103/63/1 101/64/1 73/65/1 71/66/1
f 104/67/1 103/63/1 71/66/1 69/68/1
f 58/43/1 57/59/1 109/62/1 108/44/1
f 56/60/1 55/69/1 6/70/1 5/61/1
f 105/71/1 104/67/1 69/68/1 68/72/1
f 55/69/1 53/5/1 7/8/1 6/70/1
f 110/73/1 106/74/1 54/75/1 52/76/1
f 48/54/1 47/57/1 12/58/1 11/55/1
f 30/77/1 2/78/1 1/79/1 29/80/1
f 51/6/1 50/81/1 9/82/1 8/7/1
f 106/74/1 105/71/1 68/72/1 54/75/1
f 50/81/1 49/53/1 10/56/1 9/82/1
f 4/83/1 110/73/1 52/76/1 3/84/1
f 101/64/1 99/51/1 76/52/1 73/65/1
f 93/47/1 91/85/1 81/86/1 80/48/1
f 91/85/1 89/29/1 82/30/1 81/86/1
f 31/87/1 30/77/1 29/80/1 28/88/1
f 32/89/1 31/87/1 28/88/1 27/90/1
f 33/91/1 32/89/1 27/90/1 26/92/1
f 34/93/1 33/91/1 26/92/1 25/94/1
f 35/95/1 34/93/1 25/94/1 24/96/1
f 36/97/1 35/95/1 24/96/1 23/98/1
f 37/99/1 36/97/1 23/98/1 22/100/1
f 38/101/1 37/99/1 22/100/1 21/102/1
f 39/103/1 38/101/1 21/102/1 20/104/1
f 40/105/1 39/103/1 20/104/1 19/106/1
f 41/107/1 40/105/1 19/106/1 18/108/1
f 42/109/1 41/107/1 18/108/1 17/110/1
f 43/10/1 42/109/1 17/110/1 16/11/1
f 64/31/1 63/37/1 95/38/1 92/32/1
