# Blender v2.83.0 OBJ File: 'RadialFill.blend'
# www.blender.org
mtllib RadialFill_000043.mtl
o Cube_Cube.001
v -1.058943 -0.000000 -0.254680
v -2.031607 0.000000 -0.486899
v -0.000000 -0.000000 1.091693
v 0.000000 0.000000 2.091693
v 0.731618 0.000000 -0.805711
v 0.664040 0.000000 -0.866081
v 0.588265 0.000000 -0.915463
v 0.510802 0.000000 -0.961388
v 0.430113 0.000000 -1.001690
v 0.345332 0.000000 -1.031686
v 0.259424 0.000000 -1.058091
v 0.170950 0.000000 -1.075657
v 0.080978 0.000000 -1.085119
v -0.009679 0.000000 -1.090766
v -0.100364 0.000000 -1.083943
v -0.189792 0.000000 -1.071619
v -0.278419 0.000000 -1.054777
v -0.363555 0.000000 -1.025539
v -0.447223 0.000000 -0.992818
v -0.528239 0.000000 -0.953181
v -0.604286 0.000000 -0.904678
v -0.678303 0.000000 -0.852978
v -0.746339 -0.000000 -0.793146
v -0.808871 0.000000 -0.727953
v -0.868649 0.000000 -0.659942
v -0.918181 0.000000 -0.584272
v -0.963462 0.000000 -0.506453
v -1.003931 0.000000 -0.425844
v -1.033246 0.000000 -0.340783
v -1.983160 0.000000 -0.653294
v -1.924456 -0.000000 -0.816527
v -1.848294 0.000000 -0.972363
v -1.761311 0.000000 -1.121982
v -1.664392 0.000000 -1.265576
v -1.551967 -0.000000 -1.397138
v -1.431739 0.000000 -1.521313
v -1.301340 0.000000 -1.635170
v -1.160516 0.000000 -1.735707
v -1.013713 0.000000 -1.827432
v -0.858282 0.000000 -1.904427
v -0.697185 0.000000 -1.968243
v -0.532211 0.000000 -2.022036
v -0.362235 0.000000 -2.056638
v -0.190907 0.000000 -2.079835
v -0.018427 0.000000 -2.090728
v 0.154081 0.000000 -2.082444
v 0.325841 0.000000 -2.063589
v 0.495968 0.000000 -2.029712
v 0.662082 0.000000 -1.980195
v 0.824888 0.000000 -1.920468
v 0.980645 0.000000 -1.844138
v 0.090669 0.000000 1.084512
v 1.129702 0.000000 -1.756205
v 0.180367 0.000000 1.073619
v 1.273191 0.000000 -1.659136
v 1.404074 0.000000 -1.545848
v 1.527460 0.000000 -1.424830
v 1.641180 -0.000000 -1.294312
v 1.740846 -0.000000 -1.152817
v 1.831623 -0.000000 -1.005450
v 1.908452 -0.000000 -0.849937
v 1.971246 0.000000 -0.688412
v 2.023970 -0.000000 -0.523152
v 2.058391 -0.000000 -0.353137
v 2.080502 -0.000000 -0.181700
v 2.091215 -0.000000 -0.009213
v 2.081806 -0.000000 0.163289
v 0.268916 0.000000 1.056415
v 0.354437 0.000000 1.028594
v 2.061866 -0.000000 0.334942
v 0.438659 -0.000000 0.997236
v 2.027807 -0.000000 0.505032
v 0.519510 0.000000 0.957267
v 1.977221 0.000000 0.670862
v 1.916471 -0.000000 0.833242
v 0.596264 0.000000 0.910055
v 0.671165 0.000000 0.859523
v 0.738965 0.000000 0.799415
v 0.802559 0.000000 0.735289
v 0.862807 -0.000000 0.667606
v 0.912755 0.000000 0.592262
v 0.959323 0.000000 0.515154
v 0.999458 0.000000 0.434384
v 1.030135 0.000000 0.349883
v 1.057248 0.000000 0.264169
v 1.074633 0.000000 0.175658
v 1.084811 0.000000 0.085824
v 1.091224 0.000000 -0.004839
v 1.839975 -0.000000 0.988918
v 1.084223 0.000000 -0.095516
v 1.751093 -0.000000 1.137413
v 1.072614 0.000000 -0.185078
v 1.653169 -0.000000 1.280246
v 1.539726 -0.000000 1.411000
v 1.055591 0.000000 -0.273666
v 1.027061 0.000000 -0.358994
v 1.417917 -0.000000 1.533597
v 1.287281 0.000000 1.647179
v 1.145117 0.000000 1.745974
v 0.995022 0.000000 -0.442939
v 0.997186 0.000000 1.835804
v 0.955220 0.000000 -0.523872
v 0.841591 0.000000 1.912466
v 0.679638 0.000000 1.974238
v 0.514093 0.000000 2.025893
v 0.344040 -0.000000 2.060133
v 0.907363 0.000000 -0.600272
v 0.856247 0.000000 -0.674730
v 0.796277 0.000000 -0.742648
v 0.172495 -0.000000 2.081159
vt 0.541667 0.500000
vt 0.550926 0.500000
vt 0.550926 0.750000
vt 0.541667 0.750000
vt 0.662037 0.500000
vt 0.671296 0.500000
vt 0.671296 0.750000
vt 0.662037 0.750000
vt 0.736111 0.500000
vt 0.745370 0.500000
vt 0.745371 0.750000
vt 0.736111 0.750000
vt 0.560185 0.500000
vt 0.560185 0.750000
vt 0.449074 0.500000
vt 0.458333 0.500000
vt 0.458333 0.750000
vt 0.449074 0.750000
vt 0.726852 0.500000
vt 0.726852 0.750000
vt 0.532408 0.500000
vt 0.532407 0.750000
vt 0.523148 0.500000
vt 0.523148 0.750000
vt 0.513889 0.500000
vt 0.513889 0.750000
vt 0.504630 0.500000
vt 0.504630 0.750000
vt 0.495370 0.500000
vt 0.495370 0.750000
vt 0.569445 0.500000
vt 0.569445 0.750000
vt 0.587963 0.500000
vt 0.597222 0.500000
vt 0.597222 0.750000
vt 0.587963 0.750000
vt 0.578704 0.500000
vt 0.578704 0.750000
vt 0.606482 0.500000
vt 0.615741 0.500000
vt 0.615741 0.750000
vt 0.606482 0.750000
vt 0.625000 0.500000
vt 0.625000 0.750000
vt 0.467593 0.500000
vt 0.467593 0.750000
vt 0.476852 0.500000
vt 0.476852 0.750000
vt 0.717593 0.500000
vt 0.717593 0.750000
vt 0.439815 0.500000
vt 0.439815 0.750000
vt 0.689815 0.500000
vt 0.699074 0.500000
vt 0.699074 0.750000
vt 0.689815 0.750000
vt 0.708333 0.500000
vt 0.708333 0.750000
vt 0.634259 0.500000
vt 0.643519 0.500000
vt 0.643519 0.750000
vt 0.634259 0.750000
vt 0.421296 0.500000
vt 0.430556 0.500000
vt 0.430556 0.750000
vt 0.421296 0.750000
vt 0.412037 0.500000
vt 0.412037 0.750000
vt 0.652778 0.500000
vt 0.652778 0.750000
vt 0.402778 0.500000
vt 0.402778 0.750000
vt 0.384259 0.500000
vt 0.393519 0.500000
vt 0.393519 0.750000
vt 0.384259 0.750000
vt 0.865741 0.500000
vt 0.875000 0.500000
vt 0.875000 0.750000
vt 0.865741 0.750000
vt 0.680556 0.500000
vt 0.680556 0.750000
vt 0.375000 0.500000
vt 0.375000 0.750000
vt 0.486111 0.500000
vt 0.486111 0.750000
vt 0.856481 0.500000
vt 0.856481 0.750000
vt 0.847222 0.500000
vt 0.847222 0.750000
vt 0.837963 0.500000
vt 0.837963 0.750000
vt 0.828704 0.500000
vt 0.828704 0.750000
vt 0.819444 0.500000
vt 0.819445 0.750000
vt 0.810185 0.500000
vt 0.810185 0.750000
vt 0.800926 0.500000
vt 0.800926 0.750000
vt 0.791667 0.500000
vt 0.791667 0.750000
vt 0.782407 0.500000
vt 0.782408 0.750000
vt 0.773148 0.500000
vt 0.773148 0.750000
vt 0.763889 0.500000
vt 0.763889 0.750000
vt 0.754630 0.500000
vt 0.754630 0.750000
vn 0.0000 1.0000 -0.0000
usemtl None
s off
f 67/1/1 66/2/1 88/3/1 87/4/1
f 53/5/1 51/6/1 8/7/1 7/8/1
f 44/9/1 43/10/1 16/11/1 15/12/1
f 66/2/1 65/13/1 90/14/1 88/3/1
f 98/15/1 97/16/1 78/17/1 77/18/1
f 45/19/1 44/9/1 15/12/1 14/20/1
f 70/21/1 67/1/1 87/4/1 86/22/1
f 72/23/1 70/21/1 86/22/1 85/24/1
f 74/25/1 72/23/1 85/24/1 84/26/1
f 75/27/1 74/25/1 84/26/1 83/28/1
f 89/29/1 75/27/1 83/28/1 82/30/1
f 65/13/1 64/31/1 92/32/1 90/14/1
f 62/33/1 61/34/1 100/35/1 96/36/1
f 63/37/1 62/33/1 96/36/1 95/38/1
f 60/39/1 59/40/1 107/41/1 102/42/1
f 61/34/1 60/39/1 102/42/1 100/35/1
f 59/40/1 58/43/1 108/44/1 107/41/1
f 97/16/1 94/45/1 79/46/1 78/17/1
f 94/45/1 93/47/1 80/48/1 79/46/1
f 46/49/1 45/19/1 14/20/1 13/50/1
f 99/51/1 98/15/1 77/18/1 76/52/1
f 49/53/1 48/54/1 11/55/1 10/56/1
f 47/57/1 46/49/1 13/50/1 12/58/1
f 57/59/1 56/60/1 5/61/1 109/62/1
f 103/63/1 101/64/1 73/65/1 71/66/1
f 104/67/1 103/63/1 71/66/1 69/68/1
f 58/43/1 57/59/1 109/62/1 108/44/1
f 56/60/1 55/69/1 6/70/1 5/61/1
f 105/71/1 104/67/1 69/68/1 68/72/1
f 55/69/1 53/5/1 7/8/1 6/70/1
f 110/73/1 106/74/1 54/75/1 52/76/1
f 48/54/1 47/57/1 12/58/1 11/55/1
f 30/77/1 2/78/1 1/79/1 29/80/1
f 51/6/1 50/81/1 9/82/1 8/7/1
f 106/74/1 105/71/1 68/72/1 54/75/1
f 50/81/1 49/53/1 10/56/1 9/82/1
f 4/83/1 110/73/1 52/76/1 3/84/1
f 101/64/1 99/51/1 76/52/1 73/65/1
f 93/47/1 91/85/1 81/86/1 80/48/1
f 91/85/1 89/29/1 82/30/1 81/86/1
f 31/87/1 30/77/1 29/80/1 28/88/1
f 32/89/1 31/87/1 28/88/1 27/90/1
f 33/91/1 32/89/1 27/90/1 26/92/1
f 34/93/1 33/91/1 26/92/1 25/94/1
f 35/95/1 34/93/1 25/94/1 24/96/1
f 36/97/1 35/95/1 24/96/1 23/98/1
f 37/99/1 36/97/1 23/98/1 22/100/1
f 38/101/1 37/99/1 22/100/1 21/102/1
f 39/103/1 38/101/1 21/102/1 20/104/1
f 40/105/1 39/103/1 20/104/1 19/106/1
f 41/107/1 40/105/1 19/106/1 18/108/1
f 42/109/1 41/107/1 18/108/1 17/110/1
f 43/10/1 42/109/1 17/110/1 16/11/1
f 64/31/1 63/37/1 95/38/1 92/32/1
