# Blender v2.83.0 OBJ File: 'RadialFill.blend'
# www.blender.org
mtllib RadialFill_000031.mtl
o Cube_Cube.001
v -0.063443 0.000000 -1.086315
v -0.120745 0.000000 -2.084672
v -0.000000 -0.000000 1.091693
v 0.000000 0.000000 2.091693
v 1.077874 0.000000 -0.160912
v 1.064696 0.000000 -0.224022
v 1.052405 0.000000 -0.287258
v 1.030808 0.000000 -0.347903
v 1.010900 0.000000 -0.409117
v 0.982781 0.000000 -0.467007
v 0.954683 0.000000 -0.525020
v 0.921124 0.000000 -0.579966
v 0.885321 0.000000 -0.633766
v 0.846593 0.000000 -0.685322
v 0.803764 0.000000 -0.733884
v 0.760146 -0.000000 -0.781544
v 0.710971 0.000000 -0.823683
v 0.662747 0.000000 -0.866890
v 0.608417 0.000000 -0.901929
v 0.555067 -0.000000 -0.938420
v 0.497716 0.000000 -0.967663
v 0.440071 0.000000 -0.996505
v 0.380335 0.000000 -1.020028
v 0.319400 0.000000 -1.040724
v 0.257678 0.000000 -1.058404
v 0.194389 0.000000 -1.070659
v 0.131014 0.000000 -1.082396
v 0.066126 0.000000 -1.086124
v 0.001341 0.000000 -1.091562
v 0.002552 0.000000 -2.091561
v 0.125847 0.000000 -2.084339
v 0.249040 0.000000 -2.075406
v 0.371100 0.000000 -2.054922
v 0.492630 0.000000 -2.030410
v 0.611876 0.000000 -1.996996
v 0.729367 0.000000 -1.957138
v 0.844344 0.000000 -1.911144
v 0.955685 0.000000 -1.856630
v 1.065061 0.000000 -1.798598
v 1.168416 0.000000 -1.730422
v 1.270790 0.000000 -1.660794
v 1.364762 0.000000 -1.580359
v 1.457406 -0.000000 -1.498363
v 1.542068 0.000000 -1.408351
v 1.623374 0.000000 -1.315093
v 1.697949 0.000000 -1.216549
v 1.766813 -0.000000 -1.113643
v 1.830522 0.000000 -1.007622
v 1.885779 0.000000 -0.896651
v 1.937869 -0.000000 -0.784254
v 1.978515 -0.000000 -0.667043
v 0.064784 -0.000000 1.086219
v 2.017472 -0.000000 -0.549262
v 0.129668 0.000000 1.082456
v 2.043643 -0.000000 -0.428135
v 2.067230 -0.000000 -0.306426
v 2.080363 -0.000000 -0.183637
v 2.088387 -0.000000 -0.060377
v 2.088239 -0.000000 0.062931
v 2.080178 -0.000000 0.186189
v 2.066760 -0.000000 0.308950
v 2.043136 -0.000000 0.430653
v 2.016683 -0.000000 0.551708
v 1.977691 0.000000 0.669477
v 1.937010 -0.000000 0.786675
v 1.884651 -0.000000 0.898957
v 1.829361 -0.000000 1.009913
v 0.193082 0.000000 1.070931
v 0.256363 -0.000000 1.058640
v 1.765401 -0.000000 1.115785
v 0.318144 -0.000000 1.041170
v 1.696507 -0.000000 1.218670
v 0.379066 -0.000000 1.020439
v 1.621703 0.000000 1.317037
v 1.540370 0.000000 1.410272
v 0.438884 0.000000 0.997120
v 0.496513 -0.000000 0.968244
v 0.553971 -0.000000 0.939192
v 0.607301 0.000000 0.902671
v 0.661610 -0.000000 0.867602
v 0.709964 -0.000000 0.824570
v 0.759115 -0.000000 0.782405
v 0.802890 0.000000 0.734902
v 0.845692 0.000000 0.686317
v 0.884595 0.000000 0.634891
v 0.920368 0.000000 0.581072
v 0.954118 -0.000000 0.526230
v 0.982183 0.000000 0.468201
v 1.455498 -0.000000 1.500075
v 1.010506 -0.000000 0.410391
v 1.362829 -0.000000 1.582044
v 1.030379 0.000000 0.349165
v 1.268679 0.000000 1.662252
v 1.166284 -0.000000 1.731850
v 1.051941 0.000000 0.288510
v 1.064442 0.000000 0.225333
v 1.062909 -0.000000 1.799995
v 0.953386 -0.000000 1.857776
v 0.842030 -0.000000 1.912255
v 1.077584 0.000000 0.162217
v 0.726939 0.000000 1.957981
v 1.084085 0.000000 0.097880
v 0.609437 0.000000 1.997804
v 0.490118 0.000000 2.030935
v 0.368579 -0.000000 2.055410
v 0.246491 -0.000000 2.075608
v 1.088685 0.000000 0.033057
v 1.088799 0.000000 -0.031715
v 1.084163 0.000000 -0.096536
v 0.123296 0.000000 2.084506
vt 0.541667 0.500000
vt 0.550926 0.500000
vt 0.550926 0.750000
vt 0.541667 0.750000
vt 0.662037 0.500000
vt 0.671296 0.500000
vt 0.671296 0.750000
vt 0.662037 0.750000
vt 0.736111 0.500000
vt 0.745370 0.500000
vt 0.745371 0.750000
vt 0.736111 0.750000
vt 0.560185 0.500000
vt 0.560185 0.750000
vt 0.449074 0.500000
vt 0.458333 0.500000
vt 0.458333 0.750000
vt 0.449074 0.750000
vt 0.726852 0.500000
vt 0.726852 0.750000
vt 0.532408 0.500000
vt 0.532407 0.750000
vt 0.523148 0.500000
vt 0.523148 0.750000
vt 0.513889 0.500000
vt 0.513889 0.750000
vt 0.504630 0.500000
vt 0.504630 0.750000
vt 0.495370 0.500000
vt 0.495370 0.750000
vt 0.569445 0.500000
vt 0.569445 0.750000
vt 0.587963 0.500000
vt 0.597222 0.500000
vt 0.597222 0.750000
vt 0.587963 0.750000
vt 0.578704 0.500000
vt 0.578704 0.750000
vt 0.606482 0.500000
vt 0.615741 0.500000
vt 0.615741 0.750000
vt 0.606482 0.750000
vt 0.625000 0.500000
vt 0.625000 0.750000
vt 0.467593 0.500000
vt 0.467593 0.750000
vt 0.476852 0.500000
vt 0.476852 0.750000
vt 0.717593 0.500000
vt 0.717593 0.750000
vt 0.439815 0.500000
vt 0.439815 0.750000
vt 0.689815 0.500000
vt 0.699074 0.500000
vt 0.699074 0.750000
vt 0.689815 0.750000
vt 0.708333 0.500000
vt 0.708333 0.750000
vt 0.634259 0.500000
vt 0.643519 0.500000
vt 0.643519 0.750000
vt 0.634259 0.750000
vt 0.421296 0.500000
vt 0.430556 0.500000
vt 0.430556 0.750000
vt 0.421296 0.750000
vt 0.412037 0.500000
vt 0.412037 0.750000
vt 0.652778 0.500000
vt 0.652778 0.750000
vt 0.402778 0.500000
vt 0.402778 0.750000
vt 0.384259 0.500000
vt 0.393519 0.500000
vt 0.393519 0.750000
vt 0.384259 0.750000
vt 0.865741 0.500000
vt 0.875000 0.500000
vt 0.875000 0.750000
vt 0.865741 0.750000
vt 0.680556 0.500000
vt 0.680556 0.750000
vt 0.375000 0.500000
vt 0.375000 0.750000
vt 0.486111 0.500000
vt 0.486111 0.750000
vt 0.856481 0.500000
vt 0.856481 0.750000
vt 0.847222 0.500000
vt 0.847222 0.750000
vt 0.837963 0.500000
vt 0.837963 0.750000
vt 0.828704 0.500000
vt 0.828704 0.750000
vt 0.819444 0.500000
vt 0.819445 0.750000
vt 0.810185 0.500000
vt 0.810185 0.750000
vt 0.800926 0.500000
vt 0.800926 0.750000
vt 0.791667 0.500000
vt 0.791667 0.750000
vt 0.782407 0.500000
vt 0.782408 0.750000
vt 0.773148 0.500000
vt 0.773148 0.750000
vt 0.763889 0.500000
vt 0.763889 0.750000
vt 0.754630 0.500000
vt 0.754630 0.750000
vn -0.0000 1.0000 0.0000
usemtl None
s off
f 67/1/1 66/2/1 88/3/1 87/4/1
f 53/5/1 51/6/1 8/7/1 7/8/1
f 44/9/1 43/10/1 16/11/1 15/12/1
f 66/2/1 65/13/1 90/14/1 88/3/1
f 98/15/1 97/16/1 78/17/1 77/18/1
f 45/19/1 44/9/1 15/12/1 14/20/1
f 70/21/1 67/1/1 87/4/1 86/22/1
f 72/23/1 70/21/1 86/22/1 85/24/1
f 74/25/1 72/23/1 85/24/1 84/26/1
f 75/27/1 74/25/1 84/26/1 83/28/1
f 89/29/1 75/27/1 83/28/1 82/30/1
f 65/13/1 64/31/1 92/32/1 90/14/1
f 62/33/1 61/34/1 100/35/1 96/36/1
f 63/37/1 62/33/1 96/36/1 95/38/1
f 60/39/1 59/40/1 107/41/1 102/42/1
f 61/34/1 60/39/1 102/42/1 100/35/1
f 59/40/1 58/43/1 108/44/1 107/41/1
f 97/16/1 94/45/1 79/46/1 78/17/1
f 94/45/1 93/47/1 80/48/1 79/46/1
f 46/49/1 45/19/1 14/20/1 13/50/1
f 99/51/1 98/15/1 77/18/1 76/52/1
f 49/53/1 48/54/1 11/55/1 10/56/1
f 47/57/1 46/49/1 13/50/1 12/58/1
f 57/59/1 56/60/1 5/61/1 109/62/1
f 103/63/1 101/64/1 73/65/1 71/66/1
f 104/67/1 103/63/1 71/66/1 69/68/1
f 58/43/1 57/59/1 109/62/1 108/44/1
f 56/60/1 55/69/1 6/70/1 5/61/1
f 105/71/1 104/67/1 69/68/1 68/72/1
f 55/69/1 53/5/1 7/8/1 6/70/1
f 110/73/1 106/74/1 54/75/1 52/76/1
f 48/54/1 47/57/1 12/58/1 11/55/1
f 30/77/1 2/78/1 1/79/1 29/80/1
f 51/6/1 50/81/1 9/82/1 8/7/1
f 106/74/1 105/71/1 68/72/1 54/75/1
f 50/81/1 49/53/1 10/56/1 9/82/1
f 4/83/1 110/73/1 52/76/1 3/84/1
f 101/64/1 99/51/1 76/52/1 73/65/1
f 93/47/1 91/85/1 81/86/1 80/48/1
f 91/85/1 89/29/1 82/30/1 81/86/1
f 31/87/1 30/77/1 29/80/1 28/88/1
f 32/89/1 31/87/1 28/88/1 27/90/1
f 33/91/1 32/89/1 27/90/1 26/92/1
f 34/93/1 33/91/1 26/92/1 25/94/1
f 35/95/1 34/93/1 25/94/1 24/96/1
f 36/97/1 35/95/1 24/96/1 23/98/1
f 37/99/1 36/97/1 23/98/1 22/100/1
f 38/101/1 37/99/1 22/100/1 21/102/1
f 39/103/1 38/101/1 21/102/1 20/104/1
f 40/105/1 39/103/1 20/104/1 19/106/1
f 41/107/1 40/105/1 19/106/1 18/108/1
f 42/109/1 41/107/1 18/108/1 17/110/1
f 43/10/1 42/109/1 17/110/1 16/11/1
f 64/31/1 63/37/1 95/38/1 92/32/1
