# Blender v2.83.0 OBJ File: 'RadialFill.blend'
# www.blender.org
mtllib RadialFill_000018.mtl
o Cube_Cube.001
v 1.057106 0.000000 -0.264975
v 2.027483 -0.000000 -0.506571
v -0.000000 -0.000000 1.091693
v 0.000000 0.000000 2.091693
v 0.900800 0.000000 0.610118
v 0.921301 0.000000 0.579710
v 0.942279 0.000000 0.549602
v 0.958519 0.000000 0.516856
v 0.974396 0.000000 0.483900
v 0.990783 0.000000 0.451197
v 1.007691 0.000000 0.418730
v 1.018859 0.000000 0.383948
v 1.030341 -0.000000 0.349277
v 1.042367 0.000000 0.314789
v 1.054453 0.000000 0.280332
v 1.060846 0.000000 0.244288
v 1.067796 0.000000 0.208371
v 1.075306 0.000000 0.172563
v 1.082154 0.000000 0.136627
v 1.083977 0.000000 0.099775
v 1.086349 0.000000 0.062973
v 1.089272 0.000000 0.026202
v 1.090684 0.000000 -0.010556
v 1.087526 0.000000 -0.047319
v 1.084919 0.000000 -0.084106
v 1.082863 0.000000 -0.120935
v 1.078672 0.000000 -0.157350
v 1.070923 0.000000 -0.193119
v 1.063735 0.000000 -0.228987
v 2.041718 -0.000000 -0.437671
v 2.055396 -0.000000 -0.368651
v 2.068513 -0.000000 -0.299531
v 2.076904 -0.000000 -0.229937
v 2.082033 -0.000000 -0.160027
v 2.086611 -0.000000 -0.090075
v 2.090638 0.000000 -0.020099
v 2.088992 -0.000000 0.049882
v 2.084730 0.000000 0.119850
v 2.079917 -0.000000 0.189786
v 2.074555 -0.000000 0.259673
v 2.063000 -0.000000 0.328959
v 2.049644 -0.000000 0.398039
v 2.035728 -0.000000 0.467010
v 2.021256 -0.000000 0.535855
v 1.999958 -0.000000 0.602920
v 1.977618 0.000000 0.669693
v 1.954734 -0.000000 0.736280
v 1.931090 -0.000000 0.802572
v 1.900691 0.000000 0.866008
v 1.869774 -0.000000 0.929206
v 1.838345 -0.000000 0.992151
v 0.036760 0.000000 1.088376
v 1.805563 -0.000000 1.054320
v 0.073537 0.000000 1.085611
v 1.767142 0.000000 1.113145
v 1.728243 -0.000000 1.171668
v 1.688876 -0.000000 1.229875
v 1.647687 0.000000 1.286685
v 1.601937 -0.000000 1.339940
v 1.555757 0.000000 1.392835
v 1.509159 0.000000 1.445357
v 1.460369 0.000000 1.495702
v 1.407957 -0.000000 1.542417
v 1.355168 0.000000 1.588718
v 1.302015 0.000000 1.634593
v 1.246530 0.000000 1.677486
v 1.188418 0.000000 1.716984
v 0.110352 0.000000 1.083397
v 0.147093 0.000000 1.081002
v 1.129983 -0.000000 1.756018
v 0.182836 0.000000 1.073091
v 1.071243 0.000000 1.794579
v 0.218674 0.000000 1.065742
v 1.010179 0.000000 1.829226
v 0.947310 -0.000000 1.860800
v 0.254626 -0.000000 1.058953
v 0.290309 0.000000 1.051274
v 0.324676 0.000000 1.038856
v 0.359214 0.000000 1.026988
v 0.393941 -0.000000 1.015661
v 0.428031 0.000000 1.002781
v 0.460563 -0.000000 0.986024
v 0.493338 0.000000 0.969784
v 0.526371 -0.000000 0.954052
v 0.558218 -0.000000 0.936205
v 0.588411 0.000000 0.915364
v 0.618909 -0.000000 0.894998
v 0.649729 -0.000000 0.875097
v 0.884182 -0.000000 1.891865
v 0.678647 -0.000000 0.852664
v 0.820813 0.000000 1.922413
v 0.705979 0.000000 0.828090
v 0.755367 -0.000000 1.948062
v 0.688836 -0.000000 1.971101
v 0.733675 0.000000 0.803943
v 0.761748 -0.000000 0.780209
v 0.622115 -0.000000 1.993598
v 0.555223 -0.000000 2.015546
v 0.486796 0.000000 2.031628
v 0.786984 -0.000000 0.753647
v 0.417859 -0.000000 2.045704
v 0.810835 -0.000000 0.725683
v 0.348808 -0.000000 2.059221
v 0.279663 0.000000 2.072176
v 0.209864 0.000000 2.078433
v 0.139940 -0.000000 2.083404
v 0.835104 0.000000 0.698093
v 0.859802 -0.000000 0.670863
v 0.880766 0.000000 0.640844
v 0.069979 -0.000000 2.087824
vt 0.541667 0.500000
vt 0.550926 0.500000
vt 0.550926 0.750000
vt 0.541667 0.750000
vt 0.662037 0.500000
vt 0.671296 0.500000
vt 0.671296 0.750000
vt 0.662037 0.750000
vt 0.736111 0.500000
vt 0.745370 0.500000
vt 0.745371 0.750000
vt 0.736111 0.750000
vt 0.560185 0.500000
vt 0.560185 0.750000
vt 0.449074 0.500000
vt 0.458333 0.500000
vt 0.458333 0.750000
vt 0.449074 0.750000
vt 0.726852 0.500000
vt 0.726852 0.750000
vt 0.532408 0.500000
vt 0.532407 0.750000
vt 0.523148 0.500000
vt 0.523148 0.750000
vt 0.513889 0.500000
vt 0.513889 0.750000
vt 0.504630 0.500000
vt 0.504630 0.750000
vt 0.495370 0.500000
vt 0.495370 0.750000
vt 0.569445 0.500000
vt 0.569445 0.750000
vt 0.587963 0.500000
vt 0.597222 0.500000
vt 0.597222 0.750000
vt 0.587963 0.750000
vt 0.578704 0.500000
vt 0.578704 0.750000
vt 0.606482 0.500000
vt 0.615741 0.500000
vt 0.615741 0.750000
vt 0.606482 0.750000
vt 0.625000 0.500000
vt 0.625000 0.750000
vt 0.467593 0.500000
vt 0.467593 0.750000
vt 0.476852 0.500000
vt 0.476852 0.750000
vt 0.717593 0.500000
vt 0.717593 0.750000
vt 0.439815 0.500000
vt 0.439815 0.750000
vt 0.689815 0.500000
vt 0.699074 0.500000
vt 0.699074 0.750000
vt 0.689815 0.750000
vt 0.708333 0.500000
vt 0.708333 0.750000
vt 0.634259 0.500000
vt 0.643519 0.500000
vt 0.643519 0.750000
vt 0.634259 0.750000
vt 0.421296 0.500000
vt 0.430556 0.500000
vt 0.430556 0.750000
vt 0.421296 0.750000
vt 0.412037 0.500000
vt 0.412037 0.750000
vt 0.652778 0.500000
vt 0.652778 0.750000
vt 0.402778 0.500000
vt 0.402778 0.750000
vt 0.384259 0.500000
vt 0.393519 0.500000
vt 0.393519 0.750000
vt 0.384259 0.750000
vt 0.865741 0.500000
vt 0.875000 0.500000
vt 0.875000 0.750000
vt 0.865741 0.750000
vt 0.680556 0.500000
vt 0.680556 0.750000
vt 0.375000 0.500000
vt 0.375000 0.750000
vt 0.486111 0.500000
vt 0.486111 0.750000
vt 0.856481 0.500000
vt 0.856481 0.750000
vt 0.847222 0.500000
vt 0.847222 0.750000
vt 0.837963 0.500000
vt 0.837963 0.750000
vt 0.828704 0.500000
vt 0.828704 0.750000
vt 0.819444 0.500000
vt 0.819445 0.750000
vt 0.810185 0.500000
vt 0.810185 0.750000
vt 0.800926 0.500000
vt 0.800926 0.750000
vt 0.791667 0.500000
vt 0.791667 0.750000
vt 0.782407 0.500000
vt 0.782408 0.750000
vt 0.773148 0.500000
vt 0.773148 0.750000
vt 0.763889 0.500000
vt 0.763889 0.750000
vt 0.754630 0.500000
vt 0.754630 0.750000
vn 0.0000 1.0000 -0.0000
usemtl None
s off
f 67/1/1 66/2/1 88/3/1 87/4/1
f 53/5/1 51/6/1 8/7/1 7/8/1
f 44/9/1 43/10/1 16/11/1 15/12/1
f 66/2/1 65/13/1 90/14/1 88/3/1
f 98/15/1 97/16/1 78/17/1 77/18/1
f 45/19/1 44/9/1 15/12/1 14/20/1
f 70/21/1 67/1/1 87/4/1 86/22/1
f 72/23/1 70/21/1 86/22/1 85/24/1
f 74/25/1 72/23/1 85/24/1 84/26/1
f 75/27/1 74/25/1 84/26/1 83/28/1
f 89/29/1 75/27/1 83/28/1 82/30/1
f 65/13/1 64/31/1 92/32/1 90/14/1
f 62/33/1 61/34/1 100/35/1 96/36/1
f 63/37/1 62/33/1 96/36/1 95/38/1
f 60/39/1 59/40/1 107/41/1 102/42/1
f 61/34/1 60/39/1 102/42/1 100/35/1
f 59/40/1 58/43/1 108/44/1 107/41/1
f 97/16/1 94/45/1 79/46/1 78/17/1
f 94/45/1 93/47/1 80/48/1 79/46/1
f 46/49/1 45/19/1 14/20/1 13/50/1
f 99/51/1 98/15/1 77/18/1 76/52/1
f 49/53/1 48/54/1 11/55/1 10/56/1
f 47/57/1 46/49/1 13/50/1 12/58/1
f 57/59/1 56/60/1 5/61/1 109/62/1
f 103/63/1 101/64/1 73/65/1 71/66/1
f 104/67/1 103/63/1 71/66/1 69/68/1
f 58/43/1 57/59/1 109/62/1 108/44/1
f 56/60/1 55/69/1 6/70/1 5/61/1
f 105/71/1 104/67/1 69/68/1 68/72/1
f 55/69/1 53/5/1 7/8/1 6/70/1
f 110/73/1 106/74/1 54/75/1 52/76/1
f 48/54/1 47/57/1 12/58/1 11/55/1
f 30/77/1 2/78/1 1/79/1 29/80/1
f 51/6/1 50/81/1 9/82/1 8/7/1
f 106/74/1 105/71/1 68/72/1 54/75/1
f 50/81/1 49/53/1 10/56/1 9/82/1
f 4/83/1 110/73/1 52/76/1 3/84/1
f 101/64/1 99/51/1 76/52/1 73/65/1
f 93/47/1 91/85/1 81/86/1 80/48/1
f 91/85/1 89/29/1 82/30/1 81/86/1
f 31/87/1 30/77/1 29/80/1 28/88/1
f 32/89/1 31/87/1 28/88/1 27/90/1
f 33/91/1 32/89/1 27/90/1 26/92/1
f 34/93/1 33/91/1 26/92/1 25/94/1
f 35/95/1 34/93/1 25/94/1 24/96/1
f 36/97/1 35/95/1 24/96/1 23/98/1
f 37/99/1 36/97/1 23/98/1 22/100/1
f 38/101/1 37/99/1 22/100/1 21/102/1
f 39/103/1 38/101/1 21/102/1 20/104/1
f 40/105/1 39/103/1 20/104/1 19/106/1
f 41/107/1 40/105/1 19/106/1 18/108/1
f 42/109/1 41/107/1 18/108/1 17/110/1
f 43/10/1 42/109/1 17/110/1 16/11/1
f 64/31/1 63/37/1 95/38/1 92/32/1
