# Blender v2.83.0 OBJ File: 'RadialFill.blend'
# www.blender.org
mtllib RadialFill_000045.mtl
o Cube_Cube.001
v -1.089408 0.000000 -0.024646
v -2.089160 -0.000000 -0.046922
v -0.000000 -0.000000 1.091693
v 0.000000 0.000000 2.091693
v 0.635087 0.000000 -0.884468
v 0.556521 0.000000 -0.937397
v 0.472358 0.000000 -0.980106
v 0.386215 0.000000 -1.018129
v 0.297007 0.000000 -1.048806
v 0.204776 0.000000 -1.068523
v 0.111450 0.000000 -1.083339
v 0.016432 0.000000 -1.090142
v -0.078531 0.000000 -1.085278
v -0.172764 0.000000 -1.075261
v -0.265479 0.000000 -1.057017
v -0.355196 0.000000 -1.028337
v -0.443184 0.000000 -0.994896
v -0.528010 0.000000 -0.953288
v -0.607654 0.000000 -0.902436
v -0.684490 0.000000 -0.847347
v -0.756035 0.000000 -0.784980
v -0.820015 0.000000 -0.715146
v -0.880035 0.000000 -0.641985
v -0.932691 0.000000 -0.563239
v -0.976474 0.000000 -0.479681
v -1.015645 0.000000 -0.393994
v -1.046007 -0.000000 -0.304680
v -1.066909 0.000000 -0.212789
v -1.082923 0.000000 -0.119684
v -2.077087 0.000000 -0.227565
v -2.047960 0.000000 -0.406542
v -2.006423 0.000000 -0.583252
v -1.948028 -0.000000 -0.755465
v -1.873779 -0.000000 -0.921093
v -1.788175 -0.000000 -1.081071
v -1.687415 0.000000 -1.232016
v -1.573373 0.000000 -1.372758
v -1.449794 0.000000 -1.505188
v -1.313469 0.000000 -1.624770
v -1.166960 0.000000 -1.731397
v -1.013279 0.000000 -1.827652
v -0.850416 0.000000 -1.908221
v -0.681102 0.000000 -1.973740
v -0.507535 0.000000 -2.027280
v -0.329350 0.000000 -2.062926
v -0.149432 0.000000 -2.082762
v 0.031284 0.000000 -2.090032
v 0.211945 0.000000 -2.078277
v 0.391117 0.000000 -2.051009
v 0.568297 0.000000 -2.011304
v 0.740615 0.000000 -1.953223
v 0.094985 0.000000 1.084254
v 0.906985 0.000000 -1.880717
v 0.188759 0.000000 1.071836
v 1.067916 0.000000 -1.796743
v 1.219040 0.000000 -1.696256
v 1.360938 0.000000 -1.583693
v 1.494711 0.000000 -1.461472
v 1.614535 0.000000 -1.325360
v 1.722647 -0.000000 -1.180002
v 1.820522 0.000000 -1.027289
v 1.901385 -0.000000 -0.864573
v 1.968652 0.000000 -0.695993
v 2.024020 -0.000000 -0.522914
v 2.059989 0.000000 -0.344797
v 2.081682 -0.000000 -0.165063
v 2.090876 -0.000000 0.015643
v 0.281611 -0.000000 1.054236
v 0.370685 0.000000 1.023180
v 2.079440 -0.000000 0.196321
v 0.457746 0.000000 0.987450
v 2.054030 -0.000000 0.375682
v 0.542871 0.000000 0.946428
v 2.016158 -0.000000 0.553330
v 1.958393 -0.000000 0.725751
v 0.621337 0.000000 0.893406
v 0.696698 -0.000000 0.836351
v 0.768675 0.000000 0.774465
v 0.830884 0.000000 0.702830
v 0.888926 0.000000 0.628204
v 0.942127 0.000000 0.549816
v 0.983765 -0.000000 0.465046
v 1.020641 -0.000000 0.378445
v 1.051633 0.000000 0.289340
v 1.070166 0.000000 0.196766
v 1.083783 0.000000 0.103217
v 1.090903 0.000000 0.008217
v 1.084752 0.000000 -0.086757
v 1.887632 -0.000000 0.892860
v 1.073534 0.000000 -0.180759
v 1.805291 -0.000000 1.054741
v 1.055613 0.000000 -0.273541
v 1.705076 -0.000000 1.206043
v 1.593995 0.000000 1.349097
v 1.025745 0.000000 -0.362935
v 0.991160 0.000000 -0.450459
v 1.473131 -0.000000 1.484213
v 1.337236 -0.000000 1.604277
v 1.193030 0.000000 1.713874
v 0.949845 0.000000 -0.535433
v 1.041287 -0.000000 1.813366
v 0.897909 0.000000 -0.614488
v 0.878722 -0.000000 1.894522
v 0.710876 -0.000000 1.963536
v 0.538290 -0.000000 2.020733
v 0.360242 -0.000000 2.057024
v 0.841838 0.000000 -0.690585
v 0.779712 0.000000 -0.762346
v 0.708979 0.000000 -0.825439
v 0.180693 -0.000000 2.080575
vt 0.541667 0.500000
vt 0.550926 0.500000
vt 0.550926 0.750000
vt 0.541667 0.750000
vt 0.662037 0.500000
vt 0.671296 0.500000
vt 0.671296 0.750000
vt 0.662037 0.750000
vt 0.736111 0.500000
vt 0.745370 0.500000
vt 0.745371 0.750000
vt 0.736111 0.750000
vt 0.560185 0.500000
vt 0.560185 0.750000
vt 0.449074 0.500000
vt 0.458333 0.500000
vt 0.458333 0.750000
vt 0.449074 0.750000
vt 0.726852 0.500000
vt 0.726852 0.750000
vt 0.532408 0.500000
vt 0.532407 0.750000
vt 0.523148 0.500000
vt 0.523148 0.750000
vt 0.513889 0.500000
vt 0.513889 0.750000
vt 0.504630 0.500000
vt 0.504630 0.750000
vt 0.495370 0.500000
vt 0.495370 0.750000
vt 0.569445 0.500000
vt 0.569445 0.750000
vt 0.587963 0.500000
vt 0.597222 0.500000
vt 0.597222 0.750000
vt 0.587963 0.750000
vt 0.578704 0.500000
vt 0.578704 0.750000
vt 0.606482 0.500000
vt 0.615741 0.500000
vt 0.615741 0.750000
vt 0.606482 0.750000
vt 0.625000 0.500000
vt 0.625000 0.750000
vt 0.467593 0.500000
vt 0.467593 0.750000
vt 0.476852 0.500000
vt 0.476852 0.750000
vt 0.717593 0.500000
vt 0.717593 0.750000
vt 0.439815 0.500000
vt 0.439815 0.750000
vt 0.689815 0.500000
vt 0.699074 0.500000
vt 0.699074 0.750000
vt 0.689815 0.750000
vt 0.708333 0.500000
vt 0.708333 0.750000
vt 0.634259 0.500000
vt 0.643519 0.500000
vt 0.643519 0.750000
vt 0.634259 0.750000
vt 0.421296 0.500000
vt 0.430556 0.500000
vt 0.430556 0.750000
vt 0.421296 0.750000
vt 0.412037 0.500000
vt 0.412037 0.750000
vt 0.652778 0.500000
vt 0.652778 0.750000
vt 0.402778 0.500000
vt 0.402778 0.750000
vt 0.384259 0.500000
vt 0.393519 0.500000
vt 0.393519 0.750000
vt 0.384259 0.750000
vt 0.865741 0.500000
vt 0.875000 0.500000
vt 0.875000 0.750000
vt 0.865741 0.750000
vt 0.680556 0.500000
vt 0.680556 0.750000
vt 0.375000 0.500000
vt 0.375000 0.750000
vt 0.486111 0.500000
vt 0.486111 0.750000
vt 0.856481 0.500000
vt 0.856481 0.750000
vt 0.847222 0.500000
vt 0.847222 0.750000
vt 0.837963 0.500000
vt 0.837963 0.750000
vt 0.828704 0.500000
vt 0.828704 0.750000
vt 0.819444 0.500000
vt 0.819445 0.750000
vt 0.810185 0.500000
vt 0.810185 0.750000
vt 0.800926 0.500000
vt 0.800926 0.750000
vt 0.791667 0.500000
vt 0.791667 0.750000
vt 0.782407 0.500000
vt 0.782408 0.750000
vt 0.773148 0.500000
vt 0.773148 0.750000
vt 0.763889 0.500000
vt 0.763889 0.750000
vt 0.754630 0.500000
vt 0.754630 0.750000
vn 0.0000 1.0000 -0.0000
usemtl None
s off
f 67/1/1 66/2/1 88/3/1 87/4/1
f 53/5/1 51/6/1 8/7/1 7/8/1
f 44/9/1 43/10/1 16/11/1 15/12/1
f 66/2/1 65/13/1 90/14/1 88/3/1
f 98/15/1 97/16/1 78/17/1 77/18/1
f 45/19/1 44/9/1 15/12/1 14/20/1
f 70/21/1 67/1/1 87/4/1 86/22/1
f 72/23/1 70/21/1 86/22/1 85/24/1
f 74/25/1 72/23/1 85/24/1 84/26/1
f 75/27/1 74/25/1 84/26/1 83/28/1
f 89/29/1 75/27/1 83/28/1 82/30/1
f 65/13/1 64/31/1 92/32/1 90/14/1
f 62/33/1 61/34/1 100/35/1 96/36/1
f 63/37/1 62/33/1 96/36/1 95/38/1
f 60/39/1 59/40/1 107/41/1 102/42/1
f 61/34/1 60/39/1 102/42/1 100/35/1
f 59/40/1 58/43/1 108/44/1 107/41/1
f 97/16/1 94/45/1 79/46/1 78/17/1
f 94/45/1 93/47/1 80/48/1 79/46/1
f 46/49/1 45/19/1 14/20/1 13/50/1
f 99/51/1 98/15/1 77/18/1 76/52/1
f 49/53/1 48/54/1 11/55/1 10/56/1
f 47/57/1 46/49/1 13/50/1 12/58/1
f 57/59/1 56/60/1 5/61/1 109/62/1
f 103/63/1 101/64/1 73/65/1 71/66/1
f 104/67/1 103/63/1 71/66/1 69/68/1
f 58/43/1 57/59/1 109/62/1 108/44/1
f 56/60/1 55/69/1 6/70/1 5/61/1
f 105/71/1 104/67/1 69/68/1 68/72/1
f 55/69/1 53/5/1 7/8/1 6/70/1
f 110/73/1 106/74/1 54/75/1 52/76/1
f 48/54/1 47/57/1 12/58/1 11/55/1
f 30/77/1 2/78/1 1/79/1 29/80/1
f 51/6/1 50/81/1 9/82/1 8/7/1
f 106/74/1 105/71/1 68/72/1 54/75/1
f 50/81/1 49/53/1 10/56/1 9/82/1
f 4/83/1 110/73/1 52/76/1 3/84/1
f 101/64/1 99/51/1 76/52/1 73/65/1
f 93/47/1 91/85/1 81/86/1 80/48/1
f 91/85/1 89/29/1 82/30/1 81/86/1
f 31/87/1 30/77/1 29/80/1 28/88/1
f 32/89/1 31/87/1 28/88/1 27/90/1
f 33/91/1 32/89/1 27/90/1 26/92/1
f 34/93/1 33/91/1 26/92/1 25/94/1
f 35/95/1 34/93/1 25/94/1 24/96/1
f 36/97/1 35/95/1 24/96/1 23/98/1
f 37/99/1 36/97/1 23/98/1 22/100/1
f 38/101/1 37/99/1 22/100/1 21/102/1
f 39/103/1 38/101/1 21/102/1 20/104/1
f 40/105/1 39/103/1 20/104/1 19/106/1
f 41/107/1 40/105/1 19/106/1 18/108/1
f 42/109/1 41/107/1 18/108/1 17/110/1
f 43/10/1 42/109/1 17/110/1 16/11/1
f 64/31/1 63/37/1 95/38/1 92/32/1
