# Blender v2.83.0 OBJ File: 'RadialFill.blend'
# www.blender.org
mtllib RadialFill_000011.mtl
o Cube_Cube.001
v 0.956051 0.000000 0.522099
v 1.833323 0.000000 1.002092
v -0.000000 -0.000000 1.091693
v 0.000000 0.000000 2.091693
v 0.591452 -0.000000 0.913303
v 0.609416 -0.000000 0.901265
v 0.627490 0.000000 0.889390
v 0.645678 0.000000 0.877675
v 0.663981 -0.000000 0.866118
v 0.679964 -0.000000 0.851463
v 0.696047 -0.000000 0.836933
v 0.712255 0.000000 0.822553
v 0.728591 -0.000000 0.808320
v 0.745058 -0.000000 0.794232
v 0.761657 -0.000000 0.780285
v 0.777238 -0.000000 0.765324
v 0.791154 0.000000 0.748695
v 0.805211 0.000000 0.732200
v 0.819412 0.000000 0.715835
v 0.833760 0.000000 0.699599
v 0.848256 0.000000 0.683488
v 0.862905 0.000000 0.667500
v 0.875121 0.000000 0.649691
v 0.886802 0.000000 0.631478
v 0.898642 -0.000000 0.613379
v 0.910644 -0.000000 0.595391
v 0.922810 -0.000000 0.577511
v 0.935142 -0.000000 0.559734
v 0.946972 0.000000 0.541684
v 1.814509 -0.000000 1.039056
v 1.792645 -0.000000 1.074214
v 1.769951 -0.000000 1.108878
v 1.747092 -0.000000 1.143437
v 1.724067 -0.000000 1.177889
v 1.700881 -0.000000 1.212231
v 1.677535 -0.000000 1.246458
v 1.653348 -0.000000 1.280035
v 1.626456 -0.000000 1.311506
v 1.599411 -0.000000 1.342854
v 1.572218 -0.000000 1.374077
v 1.544878 -0.000000 1.405172
v 1.517394 0.000000 1.436136
v 1.489769 -0.000000 1.466965
v 1.460200 0.000000 1.495854
v 1.429341 0.000000 1.523448
v 1.398348 0.000000 1.550901
v 1.367225 -0.000000 1.578208
v 1.335974 0.000000 1.605368
v 1.304599 0.000000 1.632379
v 1.273081 0.000000 1.659211
v 1.238945 -0.000000 1.682680
v 0.021674 -0.000000 1.089670
v 1.204692 -0.000000 1.705991
v 0.043353 -0.000000 1.087840
v 1.170326 0.000000 1.729142
v 1.135850 0.000000 1.752130
v 1.101267 -0.000000 1.774953
v 1.066581 0.000000 1.797610
v 1.030940 0.000000 1.818659
v 0.993954 -0.000000 1.837436
v 0.956874 -0.000000 1.856037
v 0.919703 0.000000 1.874463
v 0.882445 -0.000000 1.892711
v 0.845103 -0.000000 1.910778
v 0.807680 0.000000 1.928665
v 0.768885 0.000000 1.943307
v 0.729703 -0.000000 1.957021
v 0.065038 0.000000 1.086201
v 0.086736 0.000000 1.084754
v 0.690450 0.000000 1.970549
v 0.108448 0.000000 1.083498
v 0.651132 0.000000 1.983888
v 0.130179 -0.000000 1.082433
v 0.611751 0.000000 1.997038
v 0.572312 -0.000000 2.009996
v 0.151650 0.000000 1.079961
v 0.172722 0.000000 1.075270
v 0.193826 -0.000000 1.070776
v 0.214964 -0.000000 1.066476
v 0.236141 0.000000 1.062371
v 0.257361 0.000000 1.058460
v 0.278627 -0.000000 1.054742
v 0.299066 0.000000 1.048052
v 0.319336 -0.000000 1.040746
v 0.339664 -0.000000 1.033632
v 0.360054 -0.000000 1.026707
v 0.380509 0.000000 1.019971
v 0.401035 -0.000000 1.013422
v 0.532608 -0.000000 2.021951
v 0.421332 0.000000 1.006311
v 0.492025 -0.000000 2.030537
v 0.440460 0.000000 0.996304
v 0.451396 0.000000 2.038929
v 0.410725 0.000000 2.047128
v 0.459667 -0.000000 0.986477
v 0.478958 -0.000000 0.976830
v 0.370014 0.000000 2.055132
v 0.329269 -0.000000 2.062941
v 0.288492 -0.000000 2.070554
v 0.498337 0.000000 0.967362
v 0.247459 0.000000 2.075532
v 0.517807 0.000000 0.958070
v 0.206250 -0.000000 2.078704
v 0.165023 0.000000 2.081685
v 0.123780 -0.000000 2.084474
v 0.082526 0.000000 2.087072
v 0.537371 -0.000000 0.948952
v 0.555841 -0.000000 0.937875
v 0.573595 0.000000 0.925506
v 0.041265 0.000000 2.089478
vt 0.541667 0.500000
vt 0.550926 0.500000
vt 0.550926 0.750000
vt 0.541667 0.750000
vt 0.662037 0.500000
vt 0.671296 0.500000
vt 0.671296 0.750000
vt 0.662037 0.750000
vt 0.736111 0.500000
vt 0.745370 0.500000
vt 0.745371 0.750000
vt 0.736111 0.750000
vt 0.560185 0.500000
vt 0.560185 0.750000
vt 0.449074 0.500000
vt 0.458333 0.500000
vt 0.458333 0.750000
vt 0.449074 0.750000
vt 0.726852 0.500000
vt 0.726852 0.750000
vt 0.532408 0.500000
vt 0.532407 0.750000
vt 0.523148 0.500000
vt 0.523148 0.750000
vt 0.513889 0.500000
vt 0.513889 0.750000
vt 0.504630 0.500000
vt 0.504630 0.750000
vt 0.495370 0.500000
vt 0.495370 0.750000
vt 0.569445 0.500000
vt 0.569445 0.750000
vt 0.587963 0.500000
vt 0.597222 0.500000
vt 0.597222 0.750000
vt 0.587963 0.750000
vt 0.578704 0.500000
vt 0.578704 0.750000
vt 0.606482 0.500000
vt 0.615741 0.500000
vt 0.615741 0.750000
vt 0.606482 0.750000
vt 0.625000 0.500000
vt 0.625000 0.750000
vt 0.467593 0.500000
vt 0.467593 0.750000
vt 0.476852 0.500000
vt 0.476852 0.750000
vt 0.717593 0.500000
vt 0.717593 0.750000
vt 0.439815 0.500000
vt 0.439815 0.750000
vt 0.689815 0.500000
vt 0.699074 0.500000
vt 0.699074 0.750000
vt 0.689815 0.750000
vt 0.708333 0.500000
vt 0.708333 0.750000
vt 0.634259 0.500000
vt 0.643519 0.500000
vt 0.643519 0.750000
vt 0.634259 0.750000
vt 0.421296 0.500000
vt 0.430556 0.500000
vt 0.430556 0.750000
vt 0.421296 0.750000
vt 0.412037 0.500000
vt 0.412037 0.750000
vt 0.652778 0.500000
vt 0.652778 0.750000
vt 0.402778 0.500000
vt 0.402778 0.750000
vt 0.384259 0.500000
vt 0.393519 0.500000
vt 0.393519 0.750000
vt 0.384259 0.750000
vt 0.865741 0.500000
vt 0.875000 0.500000
vt 0.875000 0.750000
vt 0.865741 0.750000
vt 0.680556 0.500000
vt 0.680556 0.750000
vt 0.375000 0.500000
vt 0.375000 0.750000
vt 0.486111 0.500000
vt 0.486111 0.750000
vt 0.856481 0.500000
vt 0.856481 0.750000
vt 0.847222 0.500000
vt 0.847222 0.750000
vt 0.837963 0.500000
vt 0.837963 0.750000
vt 0.828704 0.500000
vt 0.828704 0.750000
vt 0.819444 0.500000
vt 0.819445 0.750000
vt 0.810185 0.500000
vt 0.810185 0.750000
vt 0.800926 0.500000
vt 0.800926 0.750000
vt 0.791667 0.500000
vt 0.791667 0.750000
vt 0.782407 0.500000
vt 0.782408 0.750000
vt 0.773148 0.500000
vt 0.773148 0.750000
vt 0.763889 0.500000
vt 0.763889 0.750000
vt 0.754630 0.500000
vt 0.754630 0.750000
vn 0.0000 1.0000 0.0000
usemtl None
s off
f 67/1/1 66/2/1 88/3/1 87/4/1
f 53/5/1 51/6/1 8/7/1 7/8/1
f 44/9/1 43/10/1 16/11/1 15/12/1
f 66/2/1 65/13/1 90/14/1 88/3/1
f 98/15/1 97/16/1 78/17/1 77/18/1
f 45/19/1 44/9/1 15/12/1 14/20/1
f 70/21/1 67/1/1 87/4/1 86/22/1
f 72/23/1 70/21/1 86/22/1 85/24/1
f 74/25/1 72/23/1 85/24/1 84/26/1
f 75/27/1 74/25/1 84/26/1 83/28/1
f 89/29/1 75/27/1 83/28/1 82/30/1
f 65/13/1 64/31/1 92/32/1 90/14/1
f 62/33/1 61/34/1 100/35/1 96/36/1
f 63/37/1 62/33/1 96/36/1 95/38/1
f 60/39/1 59/40/1 107/41/1 102/42/1
f 61/34/1 60/39/1 102/42/1 100/35/1
f 59/40/1 58/43/1 108/44/1 107/41/1
f 97/16/1 94/45/1 79/46/1 78/17/1
f 94/45/1 93/47/1 80/48/1 79/46/1
f 46/49/1 45/19/1 14/20/1 13/50/1
f 99/51/1 98/15/1 77/18/1 76/52/1
f 49/53/1 48/54/1 11/55/1 10/56/1
f 47/57/1 46/49/1 13/50/1 12/58/1
f 57/59/1 56/60/1 5/61/1 109/62/1
f 103/63/1 101/64/1 73/65/1 71/66/1
f 104/67/1 103/63/1 71/66/1 69/68/1
f 58/43/1 57/59/1 109/62/1 108/44/1
f 56/60/1 55/69/1 6/70/1 5/61/1
f 105/71/1 104/67/1 69/68/1 68/72/1
f 55/69/1 53/5/1 7/8/1 6/70/1
f 110/73/1 106/74/1 54/75/1 52/76/1
f 48/54/1 47/57/1 12/58/1 11/55/1
f 30/77/1 2/78/1 1/79/1 29/80/1
f 51/6/1 50/81/1 9/82/1 8/7/1
f 106/74/1 105/71/1 68/72/1 54/75/1
f 50/81/1 49/53/1 10/56/1 9/82/1
f 4/83/1 110/73/1 52/76/1 3/84/1
f 101/64/1 99/51/1 76/52/1 73/65/1
f 93/47/1 91/85/1 81/86/1 80/48/1
f 91/85/1 89/29/1 82/30/1 81/86/1
f 31/87/1 30/77/1 29/80/1 28/88/1
f 32/89/1 31/87/1 28/88/1 27/90/1
f 33/91/1 32/89/1 27/90/1 26/92/1
f 34/93/1 33/91/1 26/92/1 25/94/1
f 35/95/1 34/93/1 25/94/1 24/96/1
f 36/97/1 35/95/1 24/96/1 23/98/1
f 37/99/1 36/97/1 23/98/1 22/100/1
f 38/101/1 37/99/1 22/100/1 21/102/1
f 39/103/1 38/101/1 21/102/1 20/104/1
f 40/105/1 39/103/1 20/104/1 19/106/1
f 41/107/1 40/105/1 19/106/1 18/108/1
f 42/109/1 41/107/1 18/108/1 17/110/1
f 43/10/1 42/109/1 17/110/1 16/11/1
f 64/31/1 63/37/1 95/38/1 92/32/1
