# Blender v2.83.0 OBJ File: 'RadialFill.blend'
# www.blender.org
mtllib RadialFill_000013.mtl
o Cube_Cube.001
v 1.044498 0.000000 0.308853
v 2.003759 -0.000000 0.591376
v -0.000000 -0.000000 1.091693
v 0.000000 0.000000 2.091693
v 0.692272 -0.000000 0.840320
v 0.711682 0.000000 0.823057
v 0.731276 0.000000 0.806005
v 0.751058 0.000000 0.789161
v 0.771033 -0.000000 0.772519
v 0.787803 0.000000 0.752672
v 0.804630 0.000000 0.732875
v 0.821665 -0.000000 0.713266
v 0.838911 -0.000000 0.693841
v 0.856373 0.000000 0.674594
v 0.872275 0.000000 0.654185
v 0.886249 0.000000 0.632331
v 0.900454 0.000000 0.610640
v 0.914891 0.000000 0.589109
v 0.929566 0.000000 0.567730
v 0.944480 0.000000 0.546498
v 0.955567 0.000000 0.523131
v 0.966671 0.000000 0.499771
v 0.978027 0.000000 0.476542
v 0.989640 0.000000 0.453438
v 1.001512 0.000000 0.430453
v 1.011631 0.000000 0.406765
v 1.019442 0.000000 0.382142
v 1.027522 0.000000 0.357620
v 1.035874 0.000000 0.333193
v 1.988090 -0.000000 0.638616
v 1.972149 -0.000000 0.685769
v 1.955935 -0.000000 0.732827
v 1.939454 -0.000000 0.779785
v 1.920150 -0.000000 0.825553
v 1.898582 -0.000000 0.870361
v 1.876754 -0.000000 0.915050
v 1.854671 -0.000000 0.959614
v 1.832334 -0.000000 1.004047
v 1.809518 -0.000000 1.048207
v 1.782442 -0.000000 1.089842
v 1.755127 0.000000 1.131330
v 1.727574 -0.000000 1.172665
v 1.699788 -0.000000 1.213841
v 1.671773 -0.000000 1.254853
v 1.641410 0.000000 1.294043
v 1.609071 -0.000000 1.331691
v 1.576517 0.000000 1.369161
v 1.543752 0.000000 1.406447
v 1.510779 -0.000000 1.443545
v 1.477461 0.000000 1.480305
v 1.440541 -0.000000 1.513463
v 0.025984 0.000000 1.089291
v 1.403428 -0.000000 1.546419
v 0.051975 0.000000 1.087165
v 1.366127 0.000000 1.579167
v 1.328642 0.000000 1.611704
v 1.290980 -0.000000 1.644024
v 1.251531 0.000000 1.674055
v 1.210505 0.000000 1.702052
v 1.169316 -0.000000 1.729819
v 1.127968 -0.000000 1.757352
v 1.086468 0.000000 1.784649
v 1.044753 -0.000000 1.811589
v 1.000446 0.000000 1.834156
v 0.956002 -0.000000 1.856472
v 0.911428 0.000000 1.878535
v 0.866729 -0.000000 1.900342
v 0.077979 -0.000000 1.085315
v 0.104002 -0.000000 1.083740
v 0.821912 0.000000 1.921889
v 0.130051 0.000000 1.082439
v 0.775978 -0.000000 1.940802
v 0.155714 -0.000000 1.079041
v 0.729012 0.000000 1.957262
v 0.681946 -0.000000 1.973452
v 0.180986 -0.000000 1.073486
v 0.206306 -0.000000 1.068213
v 0.231678 0.000000 1.063219
v 0.257111 0.000000 1.058505
v 0.282611 -0.000000 1.054067
v 0.306882 -0.000000 1.045210
v 0.331215 -0.000000 1.036563
v 0.355635 -0.000000 1.028190
v 0.380149 0.000000 1.020088
v 0.404763 -0.000000 1.012255
v 0.428592 -0.000000 1.002487
v 0.451568 0.000000 0.990593
v 0.474662 -0.000000 0.978960
v 0.634786 0.000000 1.989372
v 0.497881 -0.000000 0.967583
v 0.587539 0.000000 2.005018
v 0.521230 -0.000000 0.956459
v 0.540195 0.000000 2.020324
v 0.491549 -0.000000 2.030636
v 0.544716 -0.000000 0.945585
v 0.566001 -0.000000 0.930767
v 0.442836 -0.000000 2.040672
v 0.394063 -0.000000 2.050428
v 0.345236 0.000000 2.059905
v 0.587368 0.000000 0.916073
v 0.296363 -0.000000 2.069100
v 0.608887 0.000000 0.901616
v 0.247217 0.000000 2.075551
v 0.197812 0.000000 2.079329
v 0.148382 0.000000 2.082833
v 0.098932 -0.000000 2.086062
v 0.630564 -0.000000 0.887393
v 0.652405 -0.000000 0.873400
v 0.673039 0.000000 0.857800
v 0.049469 -0.000000 2.089015
vt 0.541667 0.500000
vt 0.550926 0.500000
vt 0.550926 0.750000
vt 0.541667 0.750000
vt 0.662037 0.500000
vt 0.671296 0.500000
vt 0.671296 0.750000
vt 0.662037 0.750000
vt 0.736111 0.500000
vt 0.745370 0.500000
vt 0.745371 0.750000
vt 0.736111 0.750000
vt 0.560185 0.500000
vt 0.560185 0.750000
vt 0.449074 0.500000
vt 0.458333 0.500000
vt 0.458333 0.750000
vt 0.449074 0.750000
vt 0.726852 0.500000
vt 0.726852 0.750000
vt 0.532408 0.500000
vt 0.532407 0.750000
vt 0.523148 0.500000
vt 0.523148 0.750000
vt 0.513889 0.500000
vt 0.513889 0.750000
vt 0.504630 0.500000
vt 0.504630 0.750000
vt 0.495370 0.500000
vt 0.495370 0.750000
vt 0.569445 0.500000
vt 0.569445 0.750000
vt 0.587963 0.500000
vt 0.597222 0.500000
vt 0.597222 0.750000
vt 0.587963 0.750000
vt 0.578704 0.500000
vt 0.578704 0.750000
vt 0.606482 0.500000
vt 0.615741 0.500000
vt 0.615741 0.750000
vt 0.606482 0.750000
vt 0.625000 0.500000
vt 0.625000 0.750000
vt 0.467593 0.500000
vt 0.467593 0.750000
vt 0.476852 0.500000
vt 0.476852 0.750000
vt 0.717593 0.500000
vt 0.717593 0.750000
vt 0.439815 0.500000
vt 0.439815 0.750000
vt 0.689815 0.500000
vt 0.699074 0.500000
vt 0.699074 0.750000
vt 0.689815 0.750000
vt 0.708333 0.500000
vt 0.708333 0.750000
vt 0.634259 0.500000
vt 0.643519 0.500000
vt 0.643519 0.750000
vt 0.634259 0.750000
vt 0.421296 0.500000
vt 0.430556 0.500000
vt 0.430556 0.750000
vt 0.421296 0.750000
vt 0.412037 0.500000
vt 0.412037 0.750000
vt 0.652778 0.500000
vt 0.652778 0.750000
vt 0.402778 0.500000
vt 0.402778 0.750000
vt 0.384259 0.500000
vt 0.393519 0.500000
vt 0.393519 0.750000
vt 0.384259 0.750000
vt 0.865741 0.500000
vt 0.875000 0.500000
vt 0.875000 0.750000
vt 0.865741 0.750000
vt 0.680556 0.500000
vt 0.680556 0.750000
vt 0.375000 0.500000
vt 0.375000 0.750000
vt 0.486111 0.500000
vt 0.486111 0.750000
vt 0.856481 0.500000
vt 0.856481 0.750000
vt 0.847222 0.500000
vt 0.847222 0.750000
vt 0.837963 0.500000
vt 0.837963 0.750000
vt 0.828704 0.500000
vt 0.828704 0.750000
vt 0.819444 0.500000
vt 0.819445 0.750000
vt 0.810185 0.500000
vt 0.810185 0.750000
vt 0.800926 0.500000
vt 0.800926 0.750000
vt 0.791667 0.500000
vt 0.791667 0.750000
vt 0.782407 0.500000
vt 0.782408 0.750000
vt 0.773148 0.500000
vt 0.773148 0.750000
vt 0.763889 0.500000
vt 0.763889 0.750000
vt 0.754630 0.500000
vt 0.754630 0.750000
vn 0.0000 1.0000 -0.0000
usemtl None
s off
f 67/1/1 66/2/1 88/3/1 87/4/1
f 53/5/1 51/6/1 8/7/1 7/8/1
f 44/9/1 43/10/1 16/11/1 15/12/1
f 66/2/1 65/13/1 90/14/1 88/3/1
f 98/15/1 97/16/1 78/17/1 77/18/1
f 45/19/1 44/9/1 15/12/1 14/20/1
f 70/21/1 67/1/1 87/4/1 86/22/1
f 72/23/1 70/21/1 86/22/1 85/24/1
f 74/25/1 72/23/1 85/24/1 84/26/1
f 75/27/1 74/25/1 84/26/1 83/28/1
f 89/29/1 75/27/1 83/28/1 82/30/1
f 65/13/1 64/31/1 92/32/1 90/14/1
f 62/33/1 61/34/1 100/35/1 96/36/1
f 63/37/1 62/33/1 96/36/1 95/38/1
f 60/39/1 59/40/1 107/41/1 102/42/1
f 61/34/1 60/39/1 102/42/1 100/35/1
f 59/40/1 58/43/1 108/44/1 107/41/1
f 97/16/1 94/45/1 79/46/1 78/17/1
f 94/45/1 93/47/1 80/48/1 79/46/1
f 46/49/1 45/19/1 14/20/1 13/50/1
f 99/51/1 98/15/1 77/18/1 76/52/1
f 49/53/1 48/54/1 11/55/1 10/56/1
f 47/57/1 46/49/1 13/50/1 12/58/1
f 57/59/1 56/60/1 5/61/1 109/62/1
f 103/63/1 101/64/1 73/65/1 71/66/1
f 104/67/1 103/63/1 71/66/1 69/68/1
f 58/43/1 57/59/1 109/62/1 108/44/1
f 56/60/1 55/69/1 6/70/1 5/61/1
f 105/71/1 104/67/1 69/68/1 68/72/1
f 55/69/1 53/5/1 7/8/1 6/70/1
f 110/73/1 106/74/1 54/75/1 52/76/1
f 48/54/1 47/57/1 12/58/1 11/55/1
f 30/77/1 2/78/1 1/79/1 29/80/1
f 51/6/1 50/81/1 9/82/1 8/7/1
f 106/74/1 105/71/1 68/72/1 54/75/1
f 50/81/1 49/53/1 10/56/1 9/82/1
f 4/83/1 110/73/1 52/76/1 3/84/1
f 101/64/1 99/51/1 76/52/1 73/65/1
f 93/47/1 91/85/1 81/86/1 80/48/1
f 91/85/1 89/29/1 82/30/1 81/86/1
f 31/87/1 30/77/1 29/80/1 28/88/1
f 32/89/1 31/87/1 28/88/1 27/90/1
f 33/91/1 32/89/1 27/90/1 26/92/1
f 34/93/1 33/91/1 26/92/1 25/94/1
f 35/95/1 34/93/1 25/94/1 24/96/1
f 36/97/1 35/95/1 24/96/1 23/98/1
f 37/99/1 36/97/1 23/98/1 22/100/1
f 38/101/1 37/99/1 22/100/1 21/102/1
f 39/103/1 38/101/1 21/102/1 20/104/1
f 40/105/1 39/103/1 20/104/1 19/106/1
f 41/107/1 40/105/1 19/106/1 18/108/1
f 42/109/1 41/107/1 18/108/1 17/110/1
f 43/10/1 42/109/1 17/110/1 16/11/1
f 64/31/1 63/37/1 95/38/1 92/32/1
