# Blender v2.83.0 OBJ File: 'RadialFill.blend'
# www.blender.org
mtllib RadialFill_000020.mtl
o Cube_Cube.001
v 0.975924 0.000000 -0.480793
v 1.872722 -0.000000 -0.923235
v -0.000000 -0.000000 1.091693
v 0.000000 0.000000 2.091693
v 0.964808 -0.000000 0.503644
v 0.982807 0.000000 0.466955
v 1.001449 0.000000 0.430572
v 1.016092 0.000000 0.392588
v 1.028805 0.000000 0.353810
v 1.042197 0.000000 0.315266
v 1.055088 0.000000 0.276599
v 1.062332 0.000000 0.236353
v 1.070270 -0.000000 0.196261
v 1.078910 -0.000000 0.156296
v 1.083130 0.000000 0.115528
v 1.085554 0.000000 0.074392
v 1.088665 0.000000 0.033303
v 1.090946 0.000000 -0.007765
v 1.087407 0.000000 -0.048838
v 1.084556 0.000000 -0.089942
v 1.082392 0.000000 -0.131102
v 1.075559 0.000000 -0.171397
v 1.067185 0.000000 -0.211407
v 1.059510 -0.000000 -0.251555
v 1.050868 0.000000 -0.291404
v 1.037051 0.000000 -0.329818
v 1.023917 0.000000 -0.368447
v 1.011458 0.000000 -0.407320
v 0.994322 0.000000 -0.444298
v 1.907175 -0.000000 -0.852586
v 1.939080 0.000000 -0.780840
v 1.965015 0.000000 -0.706581
v 1.990276 -0.000000 -0.632081
v 2.014852 0.000000 -0.557364
v 2.032850 -0.000000 -0.480922
v 2.048487 -0.000000 -0.403884
v 2.063425 -0.000000 -0.326708
v 2.075393 -0.000000 -0.249208
v 2.081256 -0.000000 -0.171115
v 2.086433 -0.000000 -0.092965
v 2.090921 -0.000000 -0.014786
v 2.088212 -0.000000 0.063399
v 2.083295 -0.000000 0.141563
v 2.077692 0.000000 0.219681
v 2.068892 0.000000 0.297490
v 2.054219 0.000000 0.374710
v 2.038846 -0.000000 0.451803
v 2.022778 -0.000000 0.528743
v 1.999652 -0.000000 0.603846
v 1.974649 -0.000000 0.678432
v 1.948968 -0.000000 0.752785
v 0.041070 0.000000 1.088023
v 1.920038 -0.000000 0.825788
v 0.082166 0.000000 1.085043
v 1.885828 -0.000000 0.896551
v 1.850976 0.000000 0.967008
v 1.815492 -0.000000 1.037135
v 1.773533 -0.000000 1.103431
v 1.730129 -0.000000 1.168853
v 1.686143 0.000000 1.233880
v 1.639199 0.000000 1.296630
v 1.587967 -0.000000 1.356031
v 1.536202 0.000000 1.414979
v 1.483923 0.000000 1.473452
v 1.426072 -0.000000 1.526356
v 1.367213 0.000000 1.578219
v 1.307896 -0.000000 1.629553
v 0.123313 0.000000 1.082749
v 0.163844 0.000000 1.077222
v 1.246129 -0.000000 1.677761
v 0.203832 0.000000 1.068715
v 1.181179 -0.000000 1.721856
v 0.243951 -0.000000 1.060908
v 1.115830 0.000000 1.765371
v 1.050105 -0.000000 1.808290
v 0.284163 0.000000 1.053559
v 0.322538 0.000000 1.039611
v 0.361125 0.000000 1.026349
v 0.399949 -0.000000 1.013763
v 0.437430 -0.000000 0.997874
v 0.473869 -0.000000 0.979354
v 0.510618 -0.000000 0.961476
v 0.547461 0.000000 0.943796
v 0.581095 -0.000000 0.920351
v 0.615105 0.000000 0.897502
v 0.649515 0.000000 0.875233
v 0.681645 0.000000 0.849932
v 0.712249 0.000000 0.822559
v 0.980294 -0.000000 1.844314
v 0.743311 -0.000000 0.795714
v 0.909897 -0.000000 1.879287
v 0.774321 0.000000 0.768850
v 0.839191 0.000000 1.913619
v 0.766817 -0.000000 1.944036
v 0.800750 0.000000 0.737402
v 0.827694 0.000000 0.706428
v 0.692510 0.000000 1.969844
v 0.617967 -0.000000 1.994976
v 0.543211 -0.000000 2.019423
v 0.855169 0.000000 0.675908
v 0.466365 0.000000 2.035861
v 0.879400 0.000000 0.642977
v 0.389299 -0.000000 2.051366
v 0.312100 -0.000000 2.066171
v 0.234445 -0.000000 2.076555
v 0.156339 -0.000000 2.082288
v 0.901778 0.000000 0.608644
v 0.924739 0.000000 0.574707
v 0.947440 0.000000 0.540662
v 0.078183 -0.000000 2.087335
vt 0.541667 0.500000
vt 0.550926 0.500000
vt 0.550926 0.750000
vt 0.541667 0.750000
vt 0.662037 0.500000
vt 0.671296 0.500000
vt 0.671296 0.750000
vt 0.662037 0.750000
vt 0.736111 0.500000
vt 0.745370 0.500000
vt 0.745371 0.750000
vt 0.736111 0.750000
vt 0.560185 0.500000
vt 0.560185 0.750000
vt 0.449074 0.500000
vt 0.458333 0.500000
vt 0.458333 0.750000
vt 0.449074 0.750000
vt 0.726852 0.500000
vt 0.726852 0.750000
vt 0.532408 0.500000
vt 0.532407 0.750000
vt 0.523148 0.500000
vt 0.523148 0.750000
vt 0.513889 0.500000
vt 0.513889 0.750000
vt 0.504630 0.500000
vt 0.504630 0.750000
vt 0.495370 0.500000
vt 0.495370 0.750000
vt 0.569445 0.500000
vt 0.569445 0.750000
vt 0.587963 0.500000
vt 0.597222 0.500000
vt 0.597222 0.750000
vt 0.587963 0.750000
vt 0.578704 0.500000
vt 0.578704 0.750000
vt 0.606482 0.500000
vt 0.615741 0.500000
vt 0.615741 0.750000
vt 0.606482 0.750000
vt 0.625000 0.500000
vt 0.625000 0.750000
vt 0.467593 0.500000
vt 0.467593 0.750000
vt 0.476852 0.500000
vt 0.476852 0.750000
vt 0.717593 0.500000
vt 0.717593 0.750000
vt 0.439815 0.500000
vt 0.439815 0.750000
vt 0.689815 0.500000
vt 0.699074 0.500000
vt 0.699074 0.750000
vt 0.689815 0.750000
vt 0.708333 0.500000
vt 0.708333 0.750000
vt 0.634259 0.500000
vt 0.643519 0.500000
vt 0.643519 0.750000
vt 0.634259 0.750000
vt 0.421296 0.500000
vt 0.430556 0.500000
vt 0.430556 0.750000
vt 0.421296 0.750000
vt 0.412037 0.500000
vt 0.412037 0.750000
vt 0.652778 0.500000
vt 0.652778 0.750000
vt 0.402778 0.500000
vt 0.402778 0.750000
vt 0.384259 0.500000
vt 0.393519 0.500000
vt 0.393519 0.750000
vt 0.384259 0.750000
vt 0.865741 0.500000
vt 0.875000 0.500000
vt 0.875000 0.750000
vt 0.865741 0.750000
vt 0.680556 0.500000
vt 0.680556 0.750000
vt 0.375000 0.500000
vt 0.375000 0.750000
vt 0.486111 0.500000
vt 0.486111 0.750000
vt 0.856481 0.500000
vt 0.856481 0.750000
vt 0.847222 0.500000
vt 0.847222 0.750000
vt 0.837963 0.500000
vt 0.837963 0.750000
vt 0.828704 0.500000
vt 0.828704 0.750000
vt 0.819444 0.500000
vt 0.819445 0.750000
vt 0.810185 0.500000
vt 0.810185 0.750000
vt 0.800926 0.500000
vt 0.800926 0.750000
vt 0.791667 0.500000
vt 0.791667 0.750000
vt 0.782407 0.500000
vt 0.782408 0.750000
vt 0.773148 0.500000
vt 0.773148 0.750000
vt 0.763889 0.500000
vt 0.763889 0.750000
vt 0.754630 0.500000
vt 0.754630 0.750000
vn -0.0000 1.0000 0.0000
usemtl None
s off
f 67/1/1 66/2/1 88/3/1 87/4/1
f 53/5/1 51/6/1 8/7/1 7/8/1
f 44/9/1 43/10/1 16/11/1 15/12/1
f 66/2/1 65/13/1 90/14/1 88/3/1
f 98/15/1 97/16/1 78/17/1 77/18/1
f 45/19/1 44/9/1 15/12/1 14/20/1
f 70/21/1 67/1/1 87/4/1 86/22/1
f 72/23/1 70/21/1 86/22/1 85/24/1
f 74/25/1 72/23/1 85/24/1 84/26/1
f 75/27/1 74/25/1 84/26/1 83/28/1
f 89/29/1 75/27/1 83/28/1 82/30/1
f 65/13/1 64/31/1 92/32/1 90/14/1
f 62/33/1 61/34/1 100/35/1 96/36/1
f 63/37/1 62/33/1 96/36/1 95/38/1
f 60/39/1 59/40/1 107/41/1 102/42/1
f 61/34/1 60/39/1 102/42/1 100/35/1
f 59/40/1 58/43/1 108/44/1 107/41/1
f 97/16/1 94/45/1 79/46/1 78/17/1
f 94/45/1 93/47/1 80/48/1 79/46/1
f 46/49/1 45/19/1 14/20/1 13/50/1
f 99/51/1 98/15/1 77/18/1 76/52/1
f 49/53/1 48/54/1 11/55/1 10/56/1
f 47/57/1 46/49/1 13/50/1 12/58/1
f 57/59/1 56/60/1 5/61/1 109/62/1
f 103/63/1 101/64/1 73/65/1 71/66/1
f 104/67/1 103/63/1 71/66/1 69/68/1
f 58/43/1 57/59/1 109/62/1 108/44/1
f 56/60/1 55/69/1 6/70/1 5/61/1
f 105/71/1 104/67/1 69/68/1 68/72/1
f 55/69/1 53/5/1 7/8/1 6/70/1
f 110/73/1 106/74/1 54/75/1 52/76/1
f 48/54/1 47/57/1 12/58/1 11/55/1
f 30/77/1 2/78/1 1/79/1 29/80/1
f 51/6/1 50/81/1 9/82/1 8/7/1
f 106/74/1 105/71/1 68/72/1 54/75/1
f 50/81/1 49/53/1 10/56/1 9/82/1
f 4/83/1 110/73/1 52/76/1 3/84/1
f 101/64/1 99/51/1 76/52/1 73/65/1
f 93/47/1 91/85/1 81/86/1 80/48/1
f 91/85/1 89/29/1 82/30/1 81/86/1
f 31/87/1 30/77/1 29/80/1 28/88/1
f 32/89/1 31/87/1 28/88/1 27/90/1
f 33/91/1 32/89/1 27/90/1 26/92/1
f 34/93/1 33/91/1 26/92/1 25/94/1
f 35/95/1 34/93/1 25/94/1 24/96/1
f 36/97/1 35/95/1 24/96/1 23/98/1
f 37/99/1 36/97/1 23/98/1 22/100/1
f 38/101/1 37/99/1 22/100/1 21/102/1
f 39/103/1 38/101/1 21/102/1 20/104/1
f 40/105/1 39/103/1 20/104/1 19/106/1
f 41/107/1 40/105/1 19/106/1 18/108/1
f 42/109/1 41/107/1 18/108/1 17/110/1
f 43/10/1 42/109/1 17/110/1 16/11/1
f 64/31/1 63/37/1 95/38/1 92/32/1
