# Blender v2.83.0 OBJ File: 'RadialFill.blend'
# www.blender.org
mtllib RadialFill_000016.mtl
o Cube_Cube.001
v 1.088510 0.000000 -0.035151
v 2.088005 0.000000 -0.066918
v -0.000000 -0.000000 1.091693
v 0.000000 0.000000 2.091693
v 0.825346 0.000000 0.709084
v 0.846974 -0.000000 0.684902
v 0.868293 0.000000 0.660509
v 0.885698 0.000000 0.633184
v 0.903460 0.000000 0.606114
v 0.921588 0.000000 0.579291
v 0.940088 0.000000 0.552701
v 0.955083 0.000000 0.524164
v 0.968974 0.000000 0.495005
v 0.983261 0.000000 0.466050
v 0.997950 0.000000 0.437285
v 1.011255 0.000000 0.407973
v 1.021035 -0.000000 0.377235
v 1.031235 0.000000 0.346652
v 1.041859 0.000000 0.316211
v 1.052911 0.000000 0.285900
v 1.059028 0.000000 0.254215
v 1.064998 0.000000 0.222474
v 1.071403 0.000000 0.190822
v 1.078247 -0.000000 0.159248
v 1.082567 0.000000 0.127215
v 1.084271 0.000000 0.094693
v 1.086404 0.000000 0.062208
v 1.088966 0.000000 0.029748
v 1.091430 0.000000 -0.002701
v 2.091427 -0.000000 -0.005143
v 2.088605 -0.000000 0.056632
v 2.084824 -0.000000 0.118397
v 2.080614 -0.000000 0.180137
v 2.075976 -0.000000 0.241840
v 2.067831 0.000000 0.303203
v 2.056255 0.000000 0.364221
v 2.044241 -0.000000 0.425160
v 2.031792 -0.000000 0.486010
v 2.018330 -0.000000 0.546606
v 1.999046 -0.000000 0.605682
v 1.979333 -0.000000 0.664629
v 1.959197 -0.000000 0.723433
v 1.938640 0.000000 0.782082
v 1.913755 -0.000000 0.838907
v 1.886684 0.000000 0.894800
v 1.859212 -0.000000 0.950503
v 1.831343 -0.000000 1.006003
v 1.801613 -0.000000 1.060415
v 1.767677 -0.000000 1.112332
v 1.733368 0.000000 1.164014
v 1.698695 0.000000 1.215451
v 0.032449 0.000000 1.088737
v 1.663663 -0.000000 1.266632
v 0.064911 0.000000 1.086210
v 1.624080 0.000000 1.314272
v 1.583518 -0.000000 1.361140
v 1.542625 0.000000 1.407722
v 1.501409 0.000000 1.454011
v 1.457849 -0.000000 1.497965
v 1.411586 0.000000 1.539207
v 1.365028 -0.000000 1.580127
v 1.318183 0.000000 1.620716
v 1.270880 0.000000 1.660732
v 1.219721 -0.000000 1.695792
v 1.168305 0.000000 1.730496
v 1.116643 0.000000 1.764835
v 1.064745 0.000000 1.798803
v 0.097398 0.000000 1.084113
v 0.129923 -0.000000 1.082444
v 1.010613 -0.000000 1.829006
v 0.161873 0.000000 1.077660
v 0.955130 0.000000 1.856907
v 0.193454 0.000000 1.070853
v 0.899444 -0.000000 1.884413
v 0.843566 0.000000 1.911517
v 0.225112 -0.000000 1.064484
v 0.256862 0.000000 1.058550
v 0.288418 -0.000000 1.051975
v 0.318740 0.000000 1.040958
v 0.349192 0.000000 1.030369
v 0.379788 0.000000 1.020205
v 0.410539 0.000000 1.010460
v 0.439672 -0.000000 0.996711
v 0.468453 0.000000 0.982057
v 0.497425 -0.000000 0.967803
v 0.526601 0.000000 0.953945
v 0.554906 -0.000000 0.938533
v 0.581514 0.000000 0.920064
v 0.786957 -0.000000 1.936910
v 0.608358 -0.000000 0.901968
v 0.728321 -0.000000 1.957501
v 0.635448 0.000000 0.884235
v 0.669529 0.000000 1.977673
v 0.610594 0.000000 1.997421
v 0.662796 0.000000 0.866860
v 0.686904 -0.000000 0.845160
v 0.551529 0.000000 2.016740
v 0.491072 -0.000000 2.030736
v 0.430230 -0.000000 2.043221
v 0.711109 0.000000 0.823561
v 0.369297 -0.000000 2.055271
v 0.735600 -0.000000 0.802292
v 0.308286 -0.000000 2.066884
v 0.246975 -0.000000 2.075570
v 0.185275 -0.000000 2.080245
v 0.123538 -0.000000 2.084490
v 0.760386 0.000000 0.781345
v 0.783076 -0.000000 0.758311
v 0.804050 -0.000000 0.733550
v 0.061775 -0.000000 2.088306
vt 0.541667 0.500000
vt 0.550926 0.500000
vt 0.550926 0.750000
vt 0.541667 0.750000
vt 0.662037 0.500000
vt 0.671296 0.500000
vt 0.671296 0.750000
vt 0.662037 0.750000
vt 0.736111 0.500000
vt 0.745370 0.500000
vt 0.745371 0.750000
vt 0.736111 0.750000
vt 0.560185 0.500000
vt 0.560185 0.750000
vt 0.449074 0.500000
vt 0.458333 0.500000
vt 0.458333 0.750000
vt 0.449074 0.750000
vt 0.726852 0.500000
vt 0.726852 0.750000
vt 0.532408 0.500000
vt 0.532407 0.750000
vt 0.523148 0.500000
vt 0.523148 0.750000
vt 0.513889 0.500000
vt 0.513889 0.750000
vt 0.504630 0.500000
vt 0.504630 0.750000
vt 0.495370 0.500000
vt 0.495370 0.750000
vt 0.569445 0.500000
vt 0.569445 0.750000
vt 0.587963 0.500000
vt 0.597222 0.500000
vt 0.597222 0.750000
vt 0.587963 0.750000
vt 0.578704 0.500000
vt 0.578704 0.750000
vt 0.606482 0.500000
vt 0.615741 0.500000
vt 0.615741 0.750000
vt 0.606482 0.750000
vt 0.625000 0.500000
vt 0.625000 0.750000
vt 0.467593 0.500000
vt 0.467593 0.750000
vt 0.476852 0.500000
vt 0.476852 0.750000
vt 0.717593 0.500000
vt 0.717593 0.750000
vt 0.439815 0.500000
vt 0.439815 0.750000
vt 0.689815 0.500000
vt 0.699074 0.500000
vt 0.699074 0.750000
vt 0.689815 0.750000
vt 0.708333 0.500000
vt 0.708333 0.750000
vt 0.634259 0.500000
vt 0.643519 0.500000
vt 0.643519 0.750000
vt 0.634259 0.750000
vt 0.421296 0.500000
vt 0.430556 0.500000
vt 0.430556 0.750000
vt 0.421296 0.750000
vt 0.412037 0.500000
vt 0.412037 0.750000
vt 0.652778 0.500000
vt 0.652778 0.750000
vt 0.402778 0.500000
vt 0.402778 0.750000
vt 0.384259 0.500000
vt 0.393519 0.500000
vt 0.393519 0.750000
vt 0.384259 0.750000
vt 0.865741 0.500000
vt 0.875000 0.500000
vt 0.875000 0.750000
vt 0.865741 0.750000
vt 0.680556 0.500000
vt 0.680556 0.750000
vt 0.375000 0.500000
vt 0.375000 0.750000
vt 0.486111 0.500000
vt 0.486111 0.750000
vt 0.856481 0.500000
vt 0.856481 0.750000
vt 0.847222 0.500000
vt 0.847222 0.750000
vt 0.837963 0.500000
vt 0.837963 0.750000
vt 0.828704 0.500000
vt 0.828704 0.750000
vt 0.819444 0.500000
vt 0.819445 0.750000
vt 0.810185 0.500000
vt 0.810185 0.750000
vt 0.800926 0.500000
vt 0.800926 0.750000
vt 0.791667 0.500000
vt 0.791667 0.750000
vt 0.782407 0.500000
vt 0.782408 0.750000
vt 0.773148 0.500000
vt 0.773148 0.750000
vt 0.763889 0.500000
vt 0.763889 0.750000
vt 0.754630 0.500000
vt 0.754630 0.750000
vn -0.0000 1.0000 0.0000
usemtl None
s off
f 67/1/1 66/2/1 88/3/1 87/4/1
f 53/5/1 51/6/1 8/7/1 7/8/1
f 44/9/1 43/10/1 16/11/1 15/12/1
f 66/2/1 65/13/1 90/14/1 88/3/1
f 98/15/1 97/16/1 78/17/1 77/18/1
f 45/19/1 44/9/1 15/12/1 14/20/1
f 70/21/1 67/1/1 87/4/1 86/22/1
f 72/23/1 70/21/1 86/22/1 85/24/1
f 74/25/1 72/23/1 85/24/1 84/26/1
f 75/27/1 74/25/1 84/26/1 83/28/1
f 89/29/1 75/27/1 83/28/1 82/30/1
f 65/13/1 64/31/1 92/32/1 90/14/1
f 62/33/1 61/34/1 100/35/1 96/36/1
f 63/37/1 62/33/1 96/36/1 95/38/1
f 60/39/1 59/40/1 107/41/1 102/42/1
f 61/34/1 60/39/1 102/42/1 100/35/1
f 59/40/1 58/43/1 108/44/1 107/41/1
f 97/16/1 94/45/1 79/46/1 78/17/1
f 94/45/1 93/47/1 80/48/1 79/46/1
f 46/49/1 45/19/1 14/20/1 13/50/1
f 99/51/1 98/15/1 77/18/1 76/52/1
f 49/53/1 48/54/1 11/55/1 10/56/1
f 47/57/1 46/49/1 13/50/1 12/58/1
f 57/59/1 56/60/1 5/61/1 109/62/1
f 103/63/1 101/64/1 73/65/1 71/66/1
f 104/67/1 103/63/1 71/66/1 69/68/1
f 58/43/1 57/59/1 109/62/1 108/44/1
f 56/60/1 55/69/1 6/70/1 5/61/1
f 105/71/1 104/67/1 69/68/1 68/72/1
f 55/69/1 53/5/1 7/8/1 6/70/1
f 110/73/1 106/74/1 54/75/1 52/76/1
f 48/54/1 47/57/1 12/58/1 11/55/1
f 30/77/1 2/78/1 1/79/1 29/80/1
f 51/6/1 50/81/1 9/82/1 8/7/1
f 106/74/1 105/71/1 68/72/1 54/75/1
f 50/81/1 49/53/1 10/56/1 9/82/1
f 4/83/1 110/73/1 52/76/1 3/84/1
f 101/64/1 99/51/1 76/52/1 73/65/1
f 93/47/1 91/85/1 81/86/1 80/48/1
f 91/85/1 89/29/1 82/30/1 81/86/1
f 31/87/1 30/77/1 29/80/1 28/88/1
f 32/89/1 31/87/1 28/88/1 27/90/1
f 33/91/1 32/89/1 27/90/1 26/92/1
f 34/93/1 33/91/1 26/92/1 25/94/1
f 35/95/1 34/93/1 25/94/1 24/96/1
f 36/97/1 35/95/1 24/96/1 23/98/1
f 37/99/1 36/97/1 23/98/1 22/100/1
f 38/101/1 37/99/1 22/100/1 21/102/1
f 39/103/1 38/101/1 21/102/1 20/104/1
f 40/105/1 39/103/1 20/104/1 19/106/1
f 41/107/1 40/105/1 19/106/1 18/108/1
f 42/109/1 41/107/1 18/108/1 17/110/1
f 43/10/1 42/109/1 17/110/1 16/11/1
f 64/31/1 63/37/1 95/38/1 92/32/1
