# Blender v2.83.0 OBJ File: 'RadialFill.blend'
# www.blender.org
mtllib RadialFill_000058.mtl
o Cube_Cube.001
v -0.227010 -0.000000 1.064117
v -0.433875 0.000000 2.042486
v -0.000000 -0.000000 1.091693
v 0.000000 0.000000 2.091693
v -0.131489 0.000000 -1.082375
v -0.251684 0.000000 -1.059487
v -0.368333 0.000000 -1.023955
v -0.480458 0.000000 -0.976090
v -0.586977 0.000000 -0.916339
v -0.686742 0.000000 -0.845308
v -0.778551 0.000000 -0.763743
v -0.859480 0.000000 -0.671212
v -0.928209 0.000000 -0.569685
v -0.985428 0.000000 -0.461744
v -1.030593 0.000000 -0.348535
v -1.063326 0.000000 -0.231120
v -1.083394 0.000000 -0.110417
v -1.090493 0.000000 0.012609
v -1.082193 0.000000 0.135706
v -1.058741 0.000000 0.255801
v -1.022649 0.000000 0.372299
v -0.974243 0.000000 0.484210
v -0.913984 -0.000000 0.590446
v -0.842491 -0.000000 0.689861
v -0.760510 -0.000000 0.781242
v -0.668120 -0.000000 0.862332
v -0.566238 0.000000 0.930602
v -0.458010 0.000000 0.987316
v -0.344581 0.000000 1.031942
v -0.660632 -0.000000 1.980685
v -0.879233 0.000000 1.894274
v -1.086929 -0.000000 1.784348
v -1.281262 0.000000 1.652305
v -1.458078 0.000000 1.497760
v -1.615749 0.000000 1.323952
v -1.753414 -0.000000 1.133915
v -1.869478 -0.000000 0.929805
v -1.962467 0.000000 0.713975
v -2.031159 -0.000000 0.489048
v -2.074695 0.000000 0.257932
v -2.090428 -0.000000 0.024009
v -2.078424 -0.000000 -0.209984
v -2.040890 0.000000 -0.441761
v -1.978103 -0.000000 -0.668260
v -1.890751 -0.000000 -0.886468
v -1.779946 0.000000 -1.093655
v -1.647099 0.000000 -1.287375
v -1.492392 0.000000 -1.464050
v -1.317866 0.000000 -1.620990
v -1.127212 0.000000 -1.757853
v -0.922589 0.000000 -1.873041
v 0.123057 0.000000 1.082761
v -0.706360 0.000000 -1.965091
v 0.243453 -0.000000 1.061001
v -0.481169 0.000000 -2.032799
v -0.249942 0.000000 -2.075335
v -0.016005 0.000000 -2.090857
v 0.217980 0.000000 -2.077821
v 0.449649 0.000000 -2.039286
v 0.675887 0.000000 -1.975515
v 0.893700 0.000000 -1.887222
v 1.100376 0.000000 -1.775539
v 1.293484 0.000000 -1.641888
v 1.470017 0.000000 -1.487020
v 1.626224 0.000000 -1.311775
v 1.762285 -0.000000 -1.120506
v 1.876597 -0.000000 -0.915369
v 0.360405 0.000000 1.026589
v 0.472961 0.000000 0.979806
v 1.967708 -0.000000 -0.698743
v 0.580047 -0.000000 0.921069
v 2.034432 -0.000000 -0.473290
v 0.680515 0.000000 0.850960
v 2.075967 -0.000000 -0.241951
v 2.091278 -0.000000 -0.008002
v 0.773185 -0.000000 0.770225
v 0.853794 -0.000000 0.677411
v 0.923442 0.000000 0.576590
v 0.981673 -0.000000 0.469220
v 1.027917 0.000000 0.356447
v 1.061769 0.000000 0.239341
v 1.082965 0.000000 0.118844
v 1.091286 0.000000 -0.004202
v 1.082564 0.000000 -0.127272
v 1.060240 0.000000 -0.247567
v 1.025269 0.000000 -0.364366
v 0.977945 -0.000000 -0.476707
v 0.918701 0.000000 -0.583509
v 2.077210 -0.000000 0.225972
v 0.848132 0.000000 -0.683625
v 2.037675 -0.000000 0.457531
v 0.766982 -0.000000 -0.775865
v 1.972920 -0.000000 0.683508
v 1.883687 0.000000 0.900926
v 0.674310 0.000000 -0.856633
v 0.573136 0.000000 -0.925822
v 1.771127 -0.000000 1.107090
v 1.636672 -0.000000 1.299585
v 1.481644 -0.000000 1.475978
v 0.465481 0.000000 -0.983547
v 1.305681 0.000000 1.631452
v 0.352490 0.000000 -1.029251
v 1.113799 -0.000000 1.766710
v 0.908148 0.000000 1.880146
v 0.691127 -0.000000 1.970318
v 0.465411 0.000000 2.036057
v 0.235230 0.000000 -1.062544
v 0.114630 0.000000 -1.083176
v -0.008406 0.000000 -1.090885
v 0.233961 0.000000 2.076592
vt 0.541667 0.500000
vt 0.550926 0.500000
vt 0.550926 0.750000
vt 0.541667 0.750000
vt 0.662037 0.500000
vt 0.671296 0.500000
vt 0.671296 0.750000
vt 0.662037 0.750000
vt 0.736111 0.500000
vt 0.745370 0.500000
vt 0.745371 0.750000
vt 0.736111 0.750000
vt 0.560185 0.500000
vt 0.560185 0.750000
vt 0.449074 0.500000
vt 0.458333 0.500000
vt 0.458333 0.750000
vt 0.449074 0.750000
vt 0.726852 0.500000
vt 0.726852 0.750000
vt 0.532408 0.500000
vt 0.532407 0.750000
vt 0.523148 0.500000
vt 0.523148 0.750000
vt 0.513889 0.500000
vt 0.513889 0.750000
vt 0.504630 0.500000
vt 0.504630 0.750000
vt 0.495370 0.500000
vt 0.495370 0.750000
vt 0.569445 0.500000
vt 0.569445 0.750000
vt 0.587963 0.500000
vt 0.597222 0.500000
vt 0.597222 0.750000
vt 0.587963 0.750000
vt 0.578704 0.500000
vt 0.578704 0.750000
vt 0.606482 0.500000
vt 0.615741 0.500000
vt 0.615741 0.750000
vt 0.606482 0.750000
vt 0.625000 0.500000
vt 0.625000 0.750000
vt 0.467593 0.500000
vt 0.467593 0.750000
vt 0.476852 0.500000
vt 0.476852 0.750000
vt 0.717593 0.500000
vt 0.717593 0.750000
vt 0.439815 0.500000
vt 0.439815 0.750000
vt 0.689815 0.500000
vt 0.699074 0.500000
vt 0.699074 0.750000
vt 0.689815 0.750000
vt 0.708333 0.500000
vt 0.708333 0.750000
vt 0.634259 0.500000
vt 0.643519 0.500000
vt 0.643519 0.750000
vt 0.634259 0.750000
vt 0.421296 0.500000
vt 0.430556 0.500000
vt 0.430556 0.750000
vt 0.421296 0.750000
vt 0.412037 0.500000
vt 0.412037 0.750000
vt 0.652778 0.500000
vt 0.652778 0.750000
vt 0.402778 0.500000
vt 0.402778 0.750000
vt 0.384259 0.500000
vt 0.393519 0.500000
vt 0.393519 0.750000
vt 0.384259 0.750000
vt 0.865741 0.500000
vt 0.875000 0.500000
vt 0.875000 0.750000
vt 0.865741 0.750000
vt 0.680556 0.500000
vt 0.680556 0.750000
vt 0.375000 0.500000
vt 0.375000 0.750000
vt 0.486111 0.500000
vt 0.486111 0.750000
vt 0.856481 0.500000
vt 0.856481 0.750000
vt 0.847222 0.500000
vt 0.847222 0.750000
vt 0.837963 0.500000
vt 0.837963 0.750000
vt 0.828704 0.500000
vt 0.828704 0.750000
vt 0.819444 0.500000
vt 0.819445 0.750000
vt 0.810185 0.500000
vt 0.810185 0.750000
vt 0.800926 0.500000
vt 0.800926 0.750000
vt 0.791667 0.500000
vt 0.791667 0.750000
vt 0.782407 0.500000
vt 0.782408 0.750000
vt 0.773148 0.500000
vt 0.773148 0.750000
vt 0.763889 0.500000
vt 0.763889 0.750000
vt 0.754630 0.500000
vt 0.754630 0.750000
vn 0.0000 1.0000 0.0000
usemtl None
s off
f 67/1/1 66/2/1 88/3/1 87/4/1
f 53/5/1 51/6/1 8/7/1 7/8/1
f 44/9/1 43/10/1 16/11/1 15/12/1
f 66/2/1 65/13/1 90/14/1 88/3/1
f 98/15/1 97/16/1 78/17/1 77/18/1
f 45/19/1 44/9/1 15/12/1 14/20/1
f 70/21/1 67/1/1 87/4/1 86/22/1
f 72/23/1 70/21/1 86/22/1 85/24/1
f 74/25/1 72/23/1 85/24/1 84/26/1
f 75/27/1 74/25/1 84/26/1 83/28/1
f 89/29/1 75/27/1 83/28/1 82/30/1
f 65/13/1 64/31/1 92/32/1 90/14/1
f 62/33/1 61/34/1 100/35/1 96/36/1
f 63/37/1 62/33/1 96/36/1 95/38/1
f 60/39/1 59/40/1 107/41/1 102/42/1
f 61/34/1 60/39/1 102/42/1 100/35/1
f 59/40/1 58/43/1 108/44/1 107/41/1
f 97/16/1 94/45/1 79/46/1 78/17/1
f 94/45/1 93/47/1 80/48/1 79/46/1
f 46/49/1 45/19/1 14/20/1 13/50/1
f 99/51/1 98/15/1 77/18/1 76/52/1
f 49/53/1 48/54/1 11/55/1 10/56/1
f 47/57/1 46/49/1 13/50/1 12/58/1
f 57/59/1 56/60/1 5/61/1 109/62/1
f 103/63/1 101/64/1 73/65/1 71/66/1
f 104/67/1 103/63/1 71/66/1 69/68/1
f 58/43/1 57/59/1 109/62/1 108/44/1
f 56/60/1 55/69/1 6/70/1 5/61/1
f 105/71/1 104/67/1 69/68/1 68/72/1
f 55/69/1 53/5/1 7/8/1 6/70/1
f 110/73/1 106/74/1 54/75/1 52/76/1
f 48/54/1 47/57/1 12/58/1 11/55/1
f 30/77/1 2/78/1 1/79/1 29/80/1
f 51/6/1 50/81/1 9/82/1 8/7/1
f 106/74/1 105/71/1 68/72/1 54/75/1
f 50/81/1 49/53/1 10/56/1 9/82/1
f 4/83/1 110/73/1 52/76/1 3/84/1
f 101/64/1 99/51/1 76/52/1 73/65/1
f 93/47/1 91/85/1 81/86/1 80/48/1
f 91/85/1 89/29/1 82/30/1 81/86/1
f 31/87/1 30/77/1 29/80/1 28/88/1
f 32/89/1 31/87/1 28/88/1 27/90/1
f 33/91/1 32/89/1 27/90/1 26/92/1
f 34/93/1 33/91/1 26/92/1 25/94/1
f 35/95/1 34/93/1 25/94/1 24/96/1
f 36/97/1 35/95/1 24/96/1 23/98/1
f 37/99/1 36/97/1 23/98/1 22/100/1
f 38/101/1 37/99/1 22/100/1 21/102/1
f 39/103/1 38/101/1 21/102/1 20/104/1
f 40/105/1 39/103/1 20/104/1 19/106/1
f 41/107/1 40/105/1 19/106/1 18/108/1
f 42/109/1 41/107/1 18/108/1 17/110/1
f 43/10/1 42/109/1 17/110/1 16/11/1
f 64/31/1 63/37/1 95/38/1 92/32/1
