# Blender v2.83.0 OBJ File: 'RadialFill.blend'
# www.blender.org
mtllib RadialFill_000048.mtl
o Cube_Cube.001
v -1.040979 -0.000000 0.318681
v -1.997458 0.000000 0.610480
v -0.000000 -0.000000 1.091693
v 0.000000 0.000000 2.091693
v 0.474505 0.000000 -0.979038
v 0.382379 0.000000 -1.019365
v 0.287193 0.000000 -1.052430
v 0.188223 0.000000 -1.071949
v 0.087960 0.000000 -1.084678
v -0.013479 0.000000 -1.090412
v -0.114969 0.000000 -1.083158
v -0.214509 0.000000 -1.066566
v -0.312372 0.000000 -1.043232
v -0.407929 0.000000 -1.011269
v -0.498596 0.000000 -0.967237
v -0.585934 0.000000 -0.917049
v -0.669892 0.000000 -0.860696
v -0.745854 0.000000 -0.793557
v -0.815512 0.000000 -0.720299
v -0.879829 0.000000 -0.642306
v -0.936173 0.000000 -0.558264
v -0.982032 0.000000 -0.468502
v -1.021435 0.000000 -0.376009
v -1.054374 0.000000 -0.280798
v -1.073342 -0.000000 -0.181660
v -1.085104 0.000000 -0.081210
v -1.089800 0.000000 0.020221
v -1.082824 0.000000 0.121727
v -1.065268 0.000000 0.221090
v -2.044774 -0.000000 0.422504
v -2.076788 0.000000 0.231441
v -2.089633 0.000000 0.038498
v -2.082413 -0.000000 -0.154520
v -2.059657 -0.000000 -0.346533
v -2.021066 -0.000000 -0.536740
v -1.960011 0.000000 -0.721081
v -1.884366 -0.000000 -0.899539
v -1.794521 -0.000000 -1.071331
v -1.687003 0.000000 -1.232619
v -1.564754 0.000000 -1.382596
v -1.430831 0.000000 -1.522121
v -1.284768 0.000000 -1.649320
v -1.125198 0.000000 -1.759185
v -0.957370 0.000000 -1.855790
v -0.781997 0.000000 -1.938670
v -0.598221 0.000000 -2.001507
v -0.409850 0.000000 -2.047302
v -0.218624 0.000000 -2.077772
v -0.025663 0.000000 -2.090338
v 0.167348 0.000000 -2.081522
v 0.359207 0.000000 -2.057223
v 0.101461 0.000000 1.083881
v 0.549135 0.000000 -2.017514
v 0.201358 -0.000000 1.069220
v 0.733282 0.000000 -1.955778
v 0.911125 0.000000 -1.878684
v 1.082127 0.000000 -1.787485
v 1.243257 0.000000 -1.679729
v 1.392270 0.000000 -1.556253
v 1.530678 0.000000 -1.421208
v 1.657660 -0.000000 -1.274960
v 1.766286 0.000000 -1.114442
v 1.861540 0.000000 -0.945819
v 1.942974 -0.000000 -0.769827
v 2.005537 0.000000 -0.585956
v 2.049811 -0.000000 -0.397192
v 2.078737 -0.000000 -0.205806
v 0.299771 -0.000000 1.047794
v 0.395139 -0.000000 1.015281
v 2.091025 -0.000000 -0.012831
v 0.486532 -0.000000 0.973104
v 2.080612 -0.000000 0.180170
v 0.574835 -0.000000 0.924650
v 2.054771 -0.000000 0.371873
v 2.013540 0.000000 0.561414
v 0.659356 0.000000 0.869016
v 0.735593 -0.000000 0.802298
v 0.806688 -0.000000 0.730483
v 0.872605 0.000000 0.653662
v 0.928474 0.000000 0.569302
v 0.976062 0.000000 0.480515
v 1.017314 0.000000 0.388756
v 1.050103 0.000000 0.293480
v 1.070575 0.000000 0.194790
v 1.084270 0.000000 0.094710
v 1.091043 0.000000 -0.006739
v 1.083510 0.000000 -0.108214
v 1.067884 0.000000 -0.207931
v 1.951528 -0.000000 0.745470
v 1.045504 0.000000 -0.306068
v 1.872987 -0.000000 0.922698
v 1.013266 0.000000 -0.401530
v 1.780435 -0.000000 1.092909
v 1.672443 -0.000000 1.253878
v 0.970162 0.000000 -0.492559
v 0.920841 0.000000 -0.580379
v 1.547742 0.000000 1.401929
v 1.411574 0.000000 1.539217
v 1.264488 -0.000000 1.665142
v 0.865276 0.000000 -0.664938
v 1.103680 -0.000000 1.773369
v 0.797921 0.000000 -0.740717
v 0.934262 -0.000000 1.867272
v 0.757651 -0.000000 1.947260
v 0.573687 0.000000 2.009547
v 0.384534 0.000000 2.052300
v 0.725385 0.000000 -0.811093
v 0.647979 0.000000 -0.876209
v 0.563779 0.000000 -0.932315
v 0.192988 -0.000000 2.079684
vt 0.541667 0.500000
vt 0.550926 0.500000
vt 0.550926 0.750000
vt 0.541667 0.750000
vt 0.662037 0.500000
vt 0.671296 0.500000
vt 0.671296 0.750000
vt 0.662037 0.750000
vt 0.736111 0.500000
vt 0.745370 0.500000
vt 0.745371 0.750000
vt 0.736111 0.750000
vt 0.560185 0.500000
vt 0.560185 0.750000
vt 0.449074 0.500000
vt 0.458333 0.500000
vt 0.458333 0.750000
vt 0.449074 0.750000
vt 0.726852 0.500000
vt 0.726852 0.750000
vt 0.532408 0.500000
vt 0.532407 0.750000
vt 0.523148 0.500000
vt 0.523148 0.750000
vt 0.513889 0.500000
vt 0.513889 0.750000
vt 0.504630 0.500000
vt 0.504630 0.750000
vt 0.495370 0.500000
vt 0.495370 0.750000
vt 0.569445 0.500000
vt 0.569445 0.750000
vt 0.587963 0.500000
vt 0.597222 0.500000
vt 0.597222 0.750000
vt 0.587963 0.750000
vt 0.578704 0.500000
vt 0.578704 0.750000
vt 0.606482 0.500000
vt 0.615741 0.500000
vt 0.615741 0.750000
vt 0.606482 0.750000
vt 0.625000 0.500000
vt 0.625000 0.750000
vt 0.467593 0.500000
vt 0.467593 0.750000
vt 0.476852 0.500000
vt 0.476852 0.750000
vt 0.717593 0.500000
vt 0.717593 0.750000
vt 0.439815 0.500000
vt 0.439815 0.750000
vt 0.689815 0.500000
vt 0.699074 0.500000
vt 0.699074 0.750000
vt 0.689815 0.750000
vt 0.708333 0.500000
vt 0.708333 0.750000
vt 0.634259 0.500000
vt 0.643519 0.500000
vt 0.643519 0.750000
vt 0.634259 0.750000
vt 0.421296 0.500000
vt 0.430556 0.500000
vt 0.430556 0.750000
vt 0.421296 0.750000
vt 0.412037 0.500000
vt 0.412037 0.750000
vt 0.652778 0.500000
vt 0.652778 0.750000
vt 0.402778 0.500000
vt 0.402778 0.750000
vt 0.384259 0.500000
vt 0.393519 0.500000
vt 0.393519 0.750000
vt 0.384259 0.750000
vt 0.865741 0.500000
vt 0.875000 0.500000
vt 0.875000 0.750000
vt 0.865741 0.750000
vt 0.680556 0.500000
vt 0.680556 0.750000
vt 0.375000 0.500000
vt 0.375000 0.750000
vt 0.486111 0.500000
vt 0.486111 0.750000
vt 0.856481 0.500000
vt 0.856481 0.750000
vt 0.847222 0.500000
vt 0.847222 0.750000
vt 0.837963 0.500000
vt 0.837963 0.750000
vt 0.828704 0.500000
vt 0.828704 0.750000
vt 0.819444 0.500000
vt 0.819445 0.750000
vt 0.810185 0.500000
vt 0.810185 0.750000
vt 0.800926 0.500000
vt 0.800926 0.750000
vt 0.791667 0.500000
vt 0.791667 0.750000
vt 0.782407 0.500000
vt 0.782408 0.750000
vt 0.773148 0.500000
vt 0.773148 0.750000
vt 0.763889 0.500000
vt 0.763889 0.750000
vt 0.754630 0.500000
vt 0.754630 0.750000
vn 0.0000 1.0000 -0.0000
usemtl None
s off
f 67/1/1 66/2/1 88/3/1 87/4/1
f 53/5/1 51/6/1 8/7/1 7/8/1
f 44/9/1 43/10/1 16/11/1 15/12/1
f 66/2/1 65/13/1 90/14/1 88/3/1
f 98/15/1 97/16/1 78/17/1 77/18/1
f 45/19/1 44/9/1 15/12/1 14/20/1
f 70/21/1 67/1/1 87/4/1 86/22/1
f 72/23/1 70/21/1 86/22/1 85/24/1
f 74/25/1 72/23/1 85/24/1 84/26/1
f 75/27/1 74/25/1 84/26/1 83/28/1
f 89/29/1 75/27/1 83/28/1 82/30/1
f 65/13/1 64/31/1 92/32/1 90/14/1
f 62/33/1 61/34/1 100/35/1 96/36/1
f 63/37/1 62/33/1 96/36/1 95/38/1
f 60/39/1 59/40/1 107/41/1 102/42/1
f 61/34/1 60/39/1 102/42/1 100/35/1
f 59/40/1 58/43/1 108/44/1 107/41/1
f 97/16/1 94/45/1 79/46/1 78/17/1
f 94/45/1 93/47/1 80/48/1 79/46/1
f 46/49/1 45/19/1 14/20/1 13/50/1
f 99/51/1 98/15/1 77/18/1 76/52/1
f 49/53/1 48/54/1 11/55/1 10/56/1
f 47/57/1 46/49/1 13/50/1 12/58/1
f 57/59/1 56/60/1 5/61/1 109/62/1
f 103/63/1 101/64/1 73/65/1 71/66/1
f 104/67/1 103/63/1 71/66/1 69/68/1
f 58/43/1 57/59/1 109/62/1 108/44/1
f 56/60/1 55/69/1 6/70/1 5/61/1
f 105/71/1 104/67/1 69/68/1 68/72/1
f 55/69/1 53/5/1 7/8/1 6/70/1
f 110/73/1 106/74/1 54/75/1 52/76/1
f 48/54/1 47/57/1 12/58/1 11/55/1
f 30/77/1 2/78/1 1/79/1 29/80/1
f 51/6/1 50/81/1 9/82/1 8/7/1
f 106/74/1 105/71/1 68/72/1 54/75/1
f 50/81/1 49/53/1 10/56/1 9/82/1
f 4/83/1 110/73/1 52/76/1 3/84/1
f 101/64/1 99/51/1 76/52/1 73/65/1
f 93/47/1 91/85/1 81/86/1 80/48/1
f 91/85/1 89/29/1 82/30/1 81/86/1
f 31/87/1 30/77/1 29/80/1 28/88/1
f 32/89/1 31/87/1 28/88/1 27/90/1
f 33/91/1 32/89/1 27/90/1 26/92/1
f 34/93/1 33/91/1 26/92/1 25/94/1
f 35/95/1 34/93/1 25/94/1 24/96/1
f 36/97/1 35/95/1 24/96/1 23/98/1
f 37/99/1 36/97/1 23/98/1 22/100/1
f 38/101/1 37/99/1 22/100/1 21/102/1
f 39/103/1 38/101/1 21/102/1 20/104/1
f 40/105/1 39/103/1 20/104/1 19/106/1
f 41/107/1 40/105/1 19/106/1 18/108/1
f 42/109/1 41/107/1 18/108/1 17/110/1
f 43/10/1 42/109/1 17/110/1 16/11/1
f 64/31/1 63/37/1 95/38/1 92/32/1
