# Blender v2.83.0 OBJ File: 'RadialFill.blend'
# www.blender.org
mtllib RadialFill_000023.mtl
o Cube_Cube.001
v 0.777515 0.000000 -0.764990
v 1.490323 0.000000 -1.466350
v -0.000000 -0.000000 1.091693
v 0.000000 0.000000 2.091693
v 1.036284 0.000000 0.332015
v 1.052294 0.000000 0.287560
v 1.061422 0.000000 0.241191
v 1.070577 0.000000 0.194781
v 1.080671 0.000000 0.148540
v 1.083904 0.000000 0.101049
v 1.087052 0.000000 0.053465
v 1.091121 0.000000 0.005926
v 1.087980 0.000000 -0.041608
v 1.084603 0.000000 -0.089178
v 1.082146 0.000000 -0.136821
v 1.073006 0.000000 -0.183236
v 1.063617 0.000000 -0.229600
v 1.055162 0.000000 -0.276164
v 1.040190 0.000000 -0.320904
v 1.024868 0.000000 -0.365574
v 1.010451 0.000000 -0.410567
v 0.989835 0.000000 -0.453053
v 0.968779 -0.000000 -0.495407
v 0.948572 0.000000 -0.538196
v 0.922623 0.000000 -0.577782
v 0.896163 0.000000 -0.617138
v 0.870480 0.000000 -0.657029
v 0.839625 0.000000 -0.693045
v 0.808223 0.000000 -0.728704
v 1.550713 0.000000 -1.398561
v 1.610406 0.000000 -1.330145
v 1.668126 -0.000000 -1.260156
v 1.719253 -0.000000 -1.185049
v 1.769603 -0.000000 -1.109406
v 1.817865 -0.000000 -1.032495
v 1.858828 0.000000 -0.951272
v 1.898943 0.000000 -0.869615
v 1.936891 -0.000000 -0.787010
v 1.966912 -0.000000 -0.701065
v 1.996028 0.000000 -0.614797
v 2.022954 -0.000000 -0.527916
v 2.041480 0.000000 -0.438849
v 2.059073 -0.000000 -0.349582
v 2.074525 -0.000000 -0.260043
v 2.081359 -0.000000 -0.169662
v 2.087273 -0.000000 -0.079207
v 2.091106 -0.000000 0.011282
v 2.085885 -0.000000 0.101767
v 2.079741 -0.000000 0.192207
v 2.071662 0.000000 0.282467
v 2.054775 -0.000000 0.371857
v 0.047536 -0.000000 1.087509
v 2.036948 -0.000000 0.461078
v 0.095113 0.000000 1.084247
v 2.017282 -0.000000 0.549852
v 1.988854 0.000000 0.636336
v 1.959510 -0.000000 0.722527
v 1.928487 -0.000000 0.808056
v 1.889022 0.000000 0.890015
v 1.848693 -0.000000 0.971566
v 1.806876 0.000000 1.052292
v 1.757124 -0.000000 1.128315
v 1.706577 0.000000 1.203828
v 1.654744 0.000000 1.278394
v 1.595589 -0.000000 1.347262
v 1.535719 0.000000 1.415524
v 1.474755 0.000000 1.482748
v 0.142768 0.000000 1.081904
v 0.189007 -0.000000 1.071784
v 1.407047 0.000000 1.543222
v 0.235394 -0.000000 1.062513
v 1.338707 0.000000 1.603004
v 0.281986 -0.000000 1.054173
v 1.269480 0.000000 1.661699
v 1.194441 -0.000000 1.712922
v 0.326457 -0.000000 1.038230
v 0.371166 0.000000 1.023021
v 0.416201 0.000000 1.008716
v 0.458311 0.000000 0.987164
v 0.500717 -0.000000 0.966214
v 0.543563 0.000000 0.946112
v 0.582660 0.000000 0.919281
v 0.622081 0.000000 0.892920
v 0.662041 0.000000 0.867332
v 0.697457 -0.000000 0.835672
v 0.733192 0.000000 0.804357
v 0.769559 -0.000000 0.773735
v 0.800502 0.000000 0.737692
v 1.118863 -0.000000 1.763371
v 0.831729 0.000000 0.701879
v 1.042587 -0.000000 1.812700
v 0.863672 0.000000 0.666671
v 0.961422 -0.000000 1.853768
v 0.879817 0.000000 1.893989
v 0.889688 0.000000 0.627033
v 0.915951 0.000000 0.587547
v 0.797700 0.000000 1.933086
v 0.711798 -0.000000 1.963218
v 0.625568 0.000000 1.992448
v 0.943009 0.000000 0.548571
v 0.539004 0.000000 2.020580
v 0.963662 0.000000 0.506034
v 0.449964 0.000000 2.039221
v 0.360720 0.000000 2.056931
v 0.271303 -0.000000 2.073609
v 0.180935 -0.000000 2.080557
v 0.984505 0.000000 0.463576
v 1.006211 0.000000 0.421524
v 1.021189 0.000000 0.376762
v 0.090487 0.000000 2.086586
vt 0.541667 0.500000
vt 0.550926 0.500000
vt 0.550926 0.750000
vt 0.541667 0.750000
vt 0.662037 0.500000
vt 0.671296 0.500000
vt 0.671296 0.750000
vt 0.662037 0.750000
vt 0.736111 0.500000
vt 0.745370 0.500000
vt 0.745371 0.750000
vt 0.736111 0.750000
vt 0.560185 0.500000
vt 0.560185 0.750000
vt 0.449074 0.500000
vt 0.458333 0.500000
vt 0.458333 0.750000
vt 0.449074 0.750000
vt 0.726852 0.500000
vt 0.726852 0.750000
vt 0.532408 0.500000
vt 0.532407 0.750000
vt 0.523148 0.500000
vt 0.523148 0.750000
vt 0.513889 0.500000
vt 0.513889 0.750000
vt 0.504630 0.500000
vt 0.504630 0.750000
vt 0.495370 0.500000
vt 0.495370 0.750000
vt 0.569445 0.500000
vt 0.569445 0.750000
vt 0.587963 0.500000
vt 0.597222 0.500000
vt 0.597222 0.750000
vt 0.587963 0.750000
vt 0.578704 0.500000
vt 0.578704 0.750000
vt 0.606482 0.500000
vt 0.615741 0.500000
vt 0.615741 0.750000
vt 0.606482 0.750000
vt 0.625000 0.500000
vt 0.625000 0.750000
vt 0.467593 0.500000
vt 0.467593 0.750000
vt 0.476852 0.500000
vt 0.476852 0.750000
vt 0.717593 0.500000
vt 0.717593 0.750000
vt 0.439815 0.500000
vt 0.439815 0.750000
vt 0.689815 0.500000
vt 0.699074 0.500000
vt 0.699074 0.750000
vt 0.689815 0.750000
vt 0.708333 0.500000
vt 0.708333 0.750000
vt 0.634259 0.500000
vt 0.643519 0.500000
vt 0.643519 0.750000
vt 0.634259 0.750000
vt 0.421296 0.500000
vt 0.430556 0.500000
vt 0.430556 0.750000
vt 0.421296 0.750000
vt 0.412037 0.500000
vt 0.412037 0.750000
vt 0.652778 0.500000
vt 0.652778 0.750000
vt 0.402778 0.500000
vt 0.402778 0.750000
vt 0.384259 0.500000
vt 0.393519 0.500000
vt 0.393519 0.750000
vt 0.384259 0.750000
vt 0.865741 0.500000
vt 0.875000 0.500000
vt 0.875000 0.750000
vt 0.865741 0.750000
vt 0.680556 0.500000
vt 0.680556 0.750000
vt 0.375000 0.500000
vt 0.375000 0.750000
vt 0.486111 0.500000
vt 0.486111 0.750000
vt 0.856481 0.500000
vt 0.856481 0.750000
vt 0.847222 0.500000
vt 0.847222 0.750000
vt 0.837963 0.500000
vt 0.837963 0.750000
vt 0.828704 0.500000
vt 0.828704 0.750000
vt 0.819444 0.500000
vt 0.819445 0.750000
vt 0.810185 0.500000
vt 0.810185 0.750000
vt 0.800926 0.500000
vt 0.800926 0.750000
vt 0.791667 0.500000
vt 0.791667 0.750000
vt 0.782407 0.500000
vt 0.782408 0.750000
vt 0.773148 0.500000
vt 0.773148 0.750000
vt 0.763889 0.500000
vt 0.763889 0.750000
vt 0.754630 0.500000
vt 0.754630 0.750000
vn -0.0000 1.0000 0.0000
usemtl None
s off
f 67/1/1 66/2/1 88/3/1 87/4/1
f 53/5/1 51/6/1 8/7/1 7/8/1
f 44/9/1 43/10/1 16/11/1 15/12/1
f 66/2/1 65/13/1 90/14/1 88/3/1
f 98/15/1 97/16/1 78/17/1 77/18/1
f 45/19/1 44/9/1 15/12/1 14/20/1
f 70/21/1 67/1/1 87/4/1 86/22/1
f 72/23/1 70/21/1 86/22/1 85/24/1
f 74/25/1 72/23/1 85/24/1 84/26/1
f 75/27/1 74/25/1 84/26/1 83/28/1
f 89/29/1 75/27/1 83/28/1 82/30/1
f 65/13/1 64/31/1 92/32/1 90/14/1
f 62/33/1 61/34/1 100/35/1 96/36/1
f 63/37/1 62/33/1 96/36/1 95/38/1
f 60/39/1 59/40/1 107/41/1 102/42/1
f 61/34/1 60/39/1 102/42/1 100/35/1
f 59/40/1 58/43/1 108/44/1 107/41/1
f 97/16/1 94/45/1 79/46/1 78/17/1
f 94/45/1 93/47/1 80/48/1 79/46/1
f 46/49/1 45/19/1 14/20/1 13/50/1
f 99/51/1 98/15/1 77/18/1 76/52/1
f 49/53/1 48/54/1 11/55/1 10/56/1
f 47/57/1 46/49/1 13/50/1 12/58/1
f 57/59/1 56/60/1 5/61/1 109/62/1
f 103/63/1 101/64/1 73/65/1 71/66/1
f 104/67/1 103/63/1 71/66/1 69/68/1
f 58/43/1 57/59/1 109/62/1 108/44/1
f 56/60/1 55/69/1 6/70/1 5/61/1
f 105/71/1 104/67/1 69/68/1 68/72/1
f 55/69/1 53/5/1 7/8/1 6/70/1
f 110/73/1 106/74/1 54/75/1 52/76/1
f 48/54/1 47/57/1 12/58/1 11/55/1
f 30/77/1 2/78/1 1/79/1 29/80/1
f 51/6/1 50/81/1 9/82/1 8/7/1
f 106/74/1 105/71/1 68/72/1 54/75/1
f 50/81/1 49/53/1 10/56/1 9/82/1
f 4/83/1 110/73/1 52/76/1 3/84/1
f 101/64/1 99/51/1 76/52/1 73/65/1
f 93/47/1 91/85/1 81/86/1 80/48/1
f 91/85/1 89/29/1 82/30/1 81/86/1
f 31/87/1 30/77/1 29/80/1 28/88/1
f 32/89/1 31/87/1 28/88/1 27/90/1
f 33/91/1 32/89/1 27/90/1 26/92/1
f 34/93/1 33/91/1 26/92/1 25/94/1
f 35/95/1 34/93/1 25/94/1 24/96/1
f 36/97/1 35/95/1 24/96/1 23/98/1
f 37/99/1 36/97/1 23/98/1 22/100/1
f 38/101/1 37/99/1 22/100/1 21/102/1
f 39/103/1 38/101/1 21/102/1 20/104/1
f 40/105/1 39/103/1 20/104/1 19/106/1
f 41/107/1 40/105/1 19/106/1 18/108/1
f 42/109/1 41/107/1 18/108/1 17/110/1
f 43/10/1 42/109/1 17/110/1 16/11/1
f 64/31/1 63/37/1 95/38/1 92/32/1
