# Blender v2.83.0 OBJ File: 'RadialFill.blend'
# www.blender.org
mtllib RadialFill_000046.mtl
o Cube_Cube.001
v -1.084446 0.000000 0.091754
v -2.081012 0.000000 0.174556
v -0.000000 -0.000000 1.091693
v 0.000000 0.000000 2.091693
v 0.583144 0.000000 -0.918951
v 0.499425 0.000000 -0.966837
v 0.412903 0.000000 -1.009730
v 0.321307 0.000000 -1.040048
v 0.228039 0.000000 -1.063918
v 0.133184 0.000000 -1.082301
v 0.035954 0.000000 -1.088443
v -0.061150 0.000000 -1.086481
v -0.157973 0.000000 -1.078532
v -0.252682 0.000000 -1.059305
v -0.344940 -0.000000 -1.031819
v -0.435451 0.000000 -0.998902
v -0.522064 0.000000 -0.956067
v -0.603970 0.000000 -0.904890
v -0.682800 0.000000 -0.848882
v -0.755938 0.000000 -0.785062
v -0.821352 0.000000 -0.713623
v -0.882289 0.000000 -0.638472
v -0.936319 0.000000 -0.558056
v -0.980229 0.000000 -0.472112
v -1.018870 0.000000 -0.383915
v -1.050380 0.000000 -0.292727
v -1.069869 0.000000 -0.198203
v -1.083821 0.000000 -0.102535
v -1.091173 0.000000 -0.005382
v -2.091161 -0.000000 -0.010245
v -2.079535 -0.000000 -0.195027
v -2.053490 0.000000 -0.378452
v -2.014017 0.000000 -0.559944
v -1.954756 0.000000 -0.736217
v -1.880951 0.000000 -0.906508
v -1.794788 0.000000 -1.070922
v -1.691919 0.000000 -1.225412
v -1.575922 0.000000 -1.369842
v -1.449613 -0.000000 -1.505350
v -1.310161 0.000000 -1.627610
v -1.159909 0.000000 -1.736113
v -1.002027 0.000000 -1.833356
v -0.835329 0.000000 -1.915471
v -0.661326 -0.000000 -1.980450
v -0.483078 0.000000 -2.032402
v -0.300737 0.000000 -2.068289
v -0.116386 0.000000 -2.084954
v 0.068445 0.000000 -2.087915
v 0.253152 0.000000 -2.075079
v 0.435851 0.000000 -2.042087
v 0.615578 0.000000 -1.995770
v 0.097143 -0.000000 1.084128
v 0.791444 0.000000 -1.935315
v 0.192958 0.000000 1.070956
v 0.958955 0.000000 -1.855000
v 1.119799 0.000000 -1.762753
v 1.273574 0.000000 -1.658838
v 1.413687 0.000000 -1.537346
v 1.544161 0.000000 -1.405984
v 1.664705 0.000000 -1.265122
v 1.768419 0.000000 -1.111205
v 1.859596 -0.000000 -0.949730
v 1.938765 0.000000 -0.781728
v 1.999010 -0.000000 -0.605788
v 2.044123 0.000000 -0.425748
v 2.075891 -0.000000 -0.242919
v 2.088514 -0.000000 -0.058197
v 0.287706 -0.000000 1.052239
v 0.378825 0.000000 1.020517
v 2.084288 -0.000000 0.126631
v 0.467320 -0.000000 0.982624
v 2.066402 0.000000 0.310865
v 0.553659 0.000000 0.939412
v 2.030299 -0.000000 0.493163
v 1.977143 -0.000000 0.671093
v 0.633954 -0.000000 0.885199
v 0.709582 0.000000 0.824907
v 0.781608 -0.000000 0.760070
v 0.845265 0.000000 0.686789
v 0.901913 0.000000 0.608440
v 0.953796 0.000000 0.526919
v 0.996434 0.000000 0.440209
v 1.030094 0.000000 0.350003
v 1.058354 0.000000 0.257956
v 1.077364 0.000000 0.163206
v 1.086095 0.000000 0.066538
v 1.088896 0.000000 -0.030569
v 1.082541 0.000000 -0.127783
v 1.911013 -0.000000 0.844614
v 1.064938 0.000000 -0.222779
v 1.828700 -0.000000 1.011215
v 1.041839 0.000000 -0.316265
v 1.730391 -0.000000 1.168462
v 1.620910 -0.000000 1.317958
v 1.011313 0.000000 -0.407787
v 0.969170 0.000000 -0.494602
v 1.498488 -0.000000 1.457267
v 1.362097 0.000000 1.582683
v 1.216905 0.000000 1.697707
v 0.921985 0.000000 -0.578710
v 1.062297 0.000000 1.800392
v 0.868802 0.000000 -0.659697
v 0.897256 -0.000000 1.885483
v 0.726479 -0.000000 1.958140
v 0.550137 0.000000 2.017190
v 0.368340 -0.000000 2.055457
v 0.804841 0.000000 -0.732629
v 0.736715 0.000000 -0.801337
v 0.664239 0.000000 -0.865925
v 0.184791 0.000000 2.080279
vt 0.541667 0.500000
vt 0.550926 0.500000
vt 0.550926 0.750000
vt 0.541667 0.750000
vt 0.662037 0.500000
vt 0.671296 0.500000
vt 0.671296 0.750000
vt 0.662037 0.750000
vt 0.736111 0.500000
vt 0.745370 0.500000
vt 0.745371 0.750000
vt 0.736111 0.750000
vt 0.560185 0.500000
vt 0.560185 0.750000
vt 0.449074 0.500000
vt 0.458333 0.500000
vt 0.458333 0.750000
vt 0.449074 0.750000
vt 0.726852 0.500000
vt 0.726852 0.750000
vt 0.532408 0.500000
vt 0.532407 0.750000
vt 0.523148 0.500000
vt 0.523148 0.750000
vt 0.513889 0.500000
vt 0.513889 0.750000
vt 0.504630 0.500000
vt 0.504630 0.750000
vt 0.495370 0.500000
vt 0.495370 0.750000
vt 0.569445 0.500000
vt 0.569445 0.750000
vt 0.587963 0.500000
vt 0.597222 0.500000
vt 0.597222 0.750000
vt 0.587963 0.750000
vt 0.578704 0.500000
vt 0.578704 0.750000
vt 0.606482 0.500000
vt 0.615741 0.500000
vt 0.615741 0.750000
vt 0.606482 0.750000
vt 0.625000 0.500000
vt 0.625000 0.750000
vt 0.467593 0.500000
vt 0.467593 0.750000
vt 0.476852 0.500000
vt 0.476852 0.750000
vt 0.717593 0.500000
vt 0.717593 0.750000
vt 0.439815 0.500000
vt 0.439815 0.750000
vt 0.689815 0.500000
vt 0.699074 0.500000
vt 0.699074 0.750000
vt 0.689815 0.750000
vt 0.708333 0.500000
vt 0.708333 0.750000
vt 0.634259 0.500000
vt 0.643519 0.500000
vt 0.643519 0.750000
vt 0.634259 0.750000
vt 0.421296 0.500000
vt 0.430556 0.500000
vt 0.430556 0.750000
vt 0.421296 0.750000
vt 0.412037 0.500000
vt 0.412037 0.750000
vt 0.652778 0.500000
vt 0.652778 0.750000
vt 0.402778 0.500000
vt 0.402778 0.750000
vt 0.384259 0.500000
vt 0.393519 0.500000
vt 0.393519 0.750000
vt 0.384259 0.750000
vt 0.865741 0.500000
vt 0.875000 0.500000
vt 0.875000 0.750000
vt 0.865741 0.750000
vt 0.680556 0.500000
vt 0.680556 0.750000
vt 0.375000 0.500000
vt 0.375000 0.750000
vt 0.486111 0.500000
vt 0.486111 0.750000
vt 0.856481 0.500000
vt 0.856481 0.750000
vt 0.847222 0.500000
vt 0.847222 0.750000
vt 0.837963 0.500000
vt 0.837963 0.750000
vt 0.828704 0.500000
vt 0.828704 0.750000
vt 0.819444 0.500000
vt 0.819445 0.750000
vt 0.810185 0.500000
vt 0.810185 0.750000
vt 0.800926 0.500000
vt 0.800926 0.750000
vt 0.791667 0.500000
vt 0.791667 0.750000
vt 0.782407 0.500000
vt 0.782408 0.750000
vt 0.773148 0.500000
vt 0.773148 0.750000
vt 0.763889 0.500000
vt 0.763889 0.750000
vt 0.754630 0.500000
vt 0.754630 0.750000
vn 0.0000 1.0000 -0.0000
usemtl None
s off
f 67/1/1 66/2/1 88/3/1 87/4/1
f 53/5/1 51/6/1 8/7/1 7/8/1
f 44/9/1 43/10/1 16/11/1 15/12/1
f 66/2/1 65/13/1 90/14/1 88/3/1
f 98/15/1 97/16/1 78/17/1 77/18/1
f 45/19/1 44/9/1 15/12/1 14/20/1
f 70/21/1 67/1/1 87/4/1 86/22/1
f 72/23/1 70/21/1 86/22/1 85/24/1
f 74/25/1 72/23/1 85/24/1 84/26/1
f 75/27/1 74/25/1 84/26/1 83/28/1
f 89/29/1 75/27/1 83/28/1 82/30/1
f 65/13/1 64/31/1 92/32/1 90/14/1
f 62/33/1 61/34/1 100/35/1 96/36/1
f 63/37/1 62/33/1 96/36/1 95/38/1
f 60/39/1 59/40/1 107/41/1 102/42/1
f 61/34/1 60/39/1 102/42/1 100/35/1
f 59/40/1 58/43/1 108/44/1 107/41/1
f 97/16/1 94/45/1 79/46/1 78/17/1
f 94/45/1 93/47/1 80/48/1 79/46/1
f 46/49/1 45/19/1 14/20/1 13/50/1
f 99/51/1 98/15/1 77/18/1 76/52/1
f 49/53/1 48/54/1 11/55/1 10/56/1
f 47/57/1 46/49/1 13/50/1 12/58/1
f 57/59/1 56/60/1 5/61/1 109/62/1
f 103/63/1 101/64/1 73/65/1 71/66/1
f 104/67/1 103/63/1 71/66/1 69/68/1
f 58/43/1 57/59/1 109/62/1 108/44/1
f 56/60/1 55/69/1 6/70/1 5/61/1
f 105/71/1 104/67/1 69/68/1 68/72/1
f 55/69/1 53/5/1 7/8/1 6/70/1
f 110/73/1 106/74/1 54/75/1 52/76/1
f 48/54/1 47/57/1 12/58/1 11/55/1
f 30/77/1 2/78/1 1/79/1 29/80/1
f 51/6/1 50/81/1 9/82/1 8/7/1
f 106/74/1 105/71/1 68/72/1 54/75/1
f 50/81/1 49/53/1 10/56/1 9/82/1
f 4/83/1 110/73/1 52/76/1 3/84/1
f 101/64/1 99/51/1 76/52/1 73/65/1
f 93/47/1 91/85/1 81/86/1 80/48/1
f 91/85/1 89/29/1 82/30/1 81/86/1
f 31/87/1 30/77/1 29/80/1 28/88/1
f 32/89/1 31/87/1 28/88/1 27/90/1
f 33/91/1 32/89/1 27/90/1 26/92/1
f 34/93/1 33/91/1 26/92/1 25/94/1
f 35/95/1 34/93/1 25/94/1 24/96/1
f 36/97/1 35/95/1 24/96/1 23/98/1
f 37/99/1 36/97/1 23/98/1 22/100/1
f 38/101/1 37/99/1 22/100/1 21/102/1
f 39/103/1 38/101/1 21/102/1 20/104/1
f 40/105/1 39/103/1 20/104/1 19/106/1
f 41/107/1 40/105/1 19/106/1 18/108/1
f 42/109/1 41/107/1 18/108/1 17/110/1
f 43/10/1 42/109/1 17/110/1 16/11/1
f 64/31/1 63/37/1 95/38/1 92/32/1
