# Blender v2.83.0 OBJ File: 'RadialFill.blend'
# www.blender.org
mtllib RadialFill_000050.mtl
o Cube_Cube.001
v -0.951630 -0.000000 0.531577
v -1.824228 0.000000 1.020016
v -0.000000 -0.000000 1.091693
v 0.000000 0.000000 2.091693
v 0.360127 0.000000 -1.026683
v 0.260047 0.000000 -1.057980
v 0.156902 0.000000 -1.078773
v 0.051424 0.000000 -1.087208
v -0.054301 0.000000 -1.086988
v -0.159696 0.000000 -1.078146
v -0.262867 0.000000 -1.057478
v -0.362836 0.000000 -1.025778
v -0.459923 0.000000 -0.986348
v -0.553902 0.000000 -0.939240
v -0.641439 0.000000 -0.880384
v -0.722771 0.000000 -0.813361
v -0.798470 0.000000 -0.740072
v -0.868175 0.000000 -0.660696
v -0.926195 -0.000000 -0.572596
v -0.976193 0.000000 -0.480250
v -1.018714 0.000000 -0.384397
v -1.053185 0.000000 -0.285164
v -1.073289 0.000000 -0.181908
v -1.085369 0.000000 -0.077152
v -1.089066 0.000000 0.028585
v -1.082247 0.000000 0.134439
v -1.062079 0.000000 0.237689
v -1.033982 0.000000 0.338649
v -0.998019 0.000000 0.437150
v -1.913880 0.000000 0.838646
v -1.984548 0.000000 0.649171
v -2.038323 0.000000 0.454366
v -2.074888 0.000000 0.255532
v -2.088732 -0.000000 0.054423
v -2.082941 -0.000000 -0.146805
v -2.059566 -0.000000 -0.347012
v -2.018794 0.000000 -0.545166
v -1.954435 0.000000 -0.737138
v -1.873239 0.000000 -0.922187
v -1.776230 0.000000 -1.099323
v -1.663425 0.000000 -1.266978
v -1.531752 0.000000 -1.419996
v -1.387304 0.000000 -1.560620
v -1.230994 0.000000 -1.688113
v -1.062774 0.000000 -1.800082
v -0.882943 0.000000 -1.892468
v -0.695802 0.000000 -1.968717
v -0.502546 0.000000 -2.028330
v -0.304072 0.000000 -2.067669
v -0.103356 0.000000 -2.085784
v 0.097883 0.000000 -2.086128
v 0.105778 -0.000000 1.083642
v 0.298663 0.000000 -2.068674
v 0.209765 0.000000 1.067515
v 0.497161 0.000000 -2.029462
v 0.690591 0.000000 -1.970501
v 0.877994 0.000000 -1.894876
v 1.058165 0.000000 -1.803072
v 1.226454 0.000000 -1.691209
v 1.383177 0.000000 -1.564245
v 1.528106 0.000000 -1.424103
v 1.660304 0.000000 -1.271500
v 1.773213 0.000000 -1.103917
v 1.870803 -0.000000 -0.927122
v 1.952622 -0.000000 -0.742339
v 2.017102 -0.000000 -0.550407
v 2.058529 -0.000000 -0.352420
v 0.311856 -0.000000 1.043417
v 0.411499 -0.000000 1.010163
v 2.082567 -0.000000 -0.152279
v 0.505832 0.000000 0.963759
v 2.089045 -0.000000 0.048945
v 0.596159 -0.000000 0.910126
v 2.075325 -0.000000 0.250065
v 2.039424 -0.000000 0.448971
v 0.682203 0.000000 0.849424
v 0.761938 -0.000000 0.780052
v 0.832231 0.000000 0.701316
v 0.895916 0.000000 0.617513
v 0.952836 0.000000 0.528979
v 0.999341 0.000000 0.434609
v 1.034917 0.000000 0.335948
v 1.062611 0.000000 0.234877
v 1.082372 0.000000 0.131554
v 1.089315 0.000000 0.025710
v 1.085181 0.000000 -0.080029
v 1.072693 0.000000 -0.184706
v 1.052188 0.000000 -0.287844
v 1.986303 0.000000 0.643948
v 1.017840 0.000000 -0.387117
v 1.916261 -0.000000 0.833681
v 0.974929 0.000000 -0.482815
v 1.826723 -0.000000 1.015110
v 1.718773 -0.000000 1.185763
v 0.924566 0.000000 -0.574957
v 0.866651 0.000000 -0.663130
v 1.596534 0.000000 1.346172
v 1.460718 0.000000 1.495388
v 1.308990 0.000000 1.628615
v 0.796607 0.000000 -0.742261
v 1.144915 0.000000 1.746109
v 0.720603 0.000000 -0.815247
v 0.971180 0.000000 1.848887
v 0.788778 -0.000000 1.936263
v 0.597217 0.000000 2.001837
v 0.400722 -0.000000 2.049114
v 0.639024 0.000000 -0.881934
v 0.551556 0.000000 -0.940896
v 0.457371 0.000000 -0.987641
v 0.201184 0.000000 2.079081
vt 0.541667 0.500000
vt 0.550926 0.500000
vt 0.550926 0.750000
vt 0.541667 0.750000
vt 0.662037 0.500000
vt 0.671296 0.500000
vt 0.671296 0.750000
vt 0.662037 0.750000
vt 0.736111 0.500000
vt 0.745370 0.500000
vt 0.745371 0.750000
vt 0.736111 0.750000
vt 0.560185 0.500000
vt 0.560185 0.750000
vt 0.449074 0.500000
vt 0.458333 0.500000
vt 0.458333 0.750000
vt 0.449074 0.750000
vt 0.726852 0.500000
vt 0.726852 0.750000
vt 0.532408 0.500000
vt 0.532407 0.750000
vt 0.523148 0.500000
vt 0.523148 0.750000
vt 0.513889 0.500000
vt 0.513889 0.750000
vt 0.504630 0.500000
vt 0.504630 0.750000
vt 0.495370 0.500000
vt 0.495370 0.750000
vt 0.569445 0.500000
vt 0.569445 0.750000
vt 0.587963 0.500000
vt 0.597222 0.500000
vt 0.597222 0.750000
vt 0.587963 0.750000
vt 0.578704 0.500000
vt 0.578704 0.750000
vt 0.606482 0.500000
vt 0.615741 0.500000
vt 0.615741 0.750000
vt 0.606482 0.750000
vt 0.625000 0.500000
vt 0.625000 0.750000
vt 0.467593 0.500000
vt 0.467593 0.750000
vt 0.476852 0.500000
vt 0.476852 0.750000
vt 0.717593 0.500000
vt 0.717593 0.750000
vt 0.439815 0.500000
vt 0.439815 0.750000
vt 0.689815 0.500000
vt 0.699074 0.500000
vt 0.699074 0.750000
vt 0.689815 0.750000
vt 0.708333 0.500000
vt 0.708333 0.750000
vt 0.634259 0.500000
vt 0.643519 0.500000
vt 0.643519 0.750000
vt 0.634259 0.750000
vt 0.421296 0.500000
vt 0.430556 0.500000
vt 0.430556 0.750000
vt 0.421296 0.750000
vt 0.412037 0.500000
vt 0.412037 0.750000
vt 0.652778 0.500000
vt 0.652778 0.750000
vt 0.402778 0.500000
vt 0.402778 0.750000
vt 0.384259 0.500000
vt 0.393519 0.500000
vt 0.393519 0.750000
vt 0.384259 0.750000
vt 0.865741 0.500000
vt 0.875000 0.500000
vt 0.875000 0.750000
vt 0.865741 0.750000
vt 0.680556 0.500000
vt 0.680556 0.750000
vt 0.375000 0.500000
vt 0.375000 0.750000
vt 0.486111 0.500000
vt 0.486111 0.750000
vt 0.856481 0.500000
vt 0.856481 0.750000
vt 0.847222 0.500000
vt 0.847222 0.750000
vt 0.837963 0.500000
vt 0.837963 0.750000
vt 0.828704 0.500000
vt 0.828704 0.750000
vt 0.819444 0.500000
vt 0.819445 0.750000
vt 0.810185 0.500000
vt 0.810185 0.750000
vt 0.800926 0.500000
vt 0.800926 0.750000
vt 0.791667 0.500000
vt 0.791667 0.750000
vt 0.782407 0.500000
vt 0.782408 0.750000
vt 0.773148 0.500000
vt 0.773148 0.750000
vt 0.763889 0.500000
vt 0.763889 0.750000
vt 0.754630 0.500000
vt 0.754630 0.750000
vn 0.0000 1.0000 0.0000
usemtl None
s off
f 67/1/1 66/2/1 88/3/1 87/4/1
f 53/5/1 51/6/1 8/7/1 7/8/1
f 44/9/1 43/10/1 16/11/1 15/12/1
f 66/2/1 65/13/1 90/14/1 88/3/1
f 98/15/1 97/16/1 78/17/1 77/18/1
f 45/19/1 44/9/1 15/12/1 14/20/1
f 70/21/1 67/1/1 87/4/1 86/22/1
f 72/23/1 70/21/1 86/22/1 85/24/1
f 74/25/1 72/23/1 85/24/1 84/26/1
f 75/27/1 74/25/1 84/26/1 83/28/1
f 89/29/1 75/27/1 83/28/1 82/30/1
f 65/13/1 64/31/1 92/32/1 90/14/1
f 62/33/1 61/34/1 100/35/1 96/36/1
f 63/37/1 62/33/1 96/36/1 95/38/1
f 60/39/1 59/40/1 107/41/1 102/42/1
f 61/34/1 60/39/1 102/42/1 100/35/1
f 59/40/1 58/43/1 108/44/1 107/41/1
f 97/16/1 94/45/1 79/46/1 78/17/1
f 94/45/1 93/47/1 80/48/1 79/46/1
f 46/49/1 45/19/1 14/20/1 13/50/1
f 99/51/1 98/15/1 77/18/1 76/52/1
f 49/53/1 48/54/1 11/55/1 10/56/1
f 47/57/1 46/49/1 13/50/1 12/58/1
f 57/59/1 56/60/1 5/61/1 109/62/1
f 103/63/1 101/64/1 73/65/1 71/66/1
f 104/67/1 103/63/1 71/66/1 69/68/1
f 58/43/1 57/59/1 109/62/1 108/44/1
f 56/60/1 55/69/1 6/70/1 5/61/1
f 105/71/1 104/67/1 69/68/1 68/72/1
f 55/69/1 53/5/1 7/8/1 6/70/1
f 110/73/1 106/74/1 54/75/1 52/76/1
f 48/54/1 47/57/1 12/58/1 11/55/1
f 30/77/1 2/78/1 1/79/1 29/80/1
f 51/6/1 50/81/1 9/82/1 8/7/1
f 106/74/1 105/71/1 68/72/1 54/75/1
f 50/81/1 49/53/1 10/56/1 9/82/1
f 4/83/1 110/73/1 52/76/1 3/84/1
f 101/64/1 99/51/1 76/52/1 73/65/1
f 93/47/1 91/85/1 81/86/1 80/48/1
f 91/85/1 89/29/1 82/30/1 81/86/1
f 31/87/1 30/77/1 29/80/1 28/88/1
f 32/89/1 31/87/1 28/88/1 27/90/1
f 33/91/1 32/89/1 27/90/1 26/92/1
f 34/93/1 33/91/1 26/92/1 25/94/1
f 35/95/1 34/93/1 25/94/1 24/96/1
f 36/97/1 35/95/1 24/96/1 23/98/1
f 37/99/1 36/97/1 23/98/1 22/100/1
f 38/101/1 37/99/1 22/100/1 21/102/1
f 39/103/1 38/101/1 21/102/1 20/104/1
f 40/105/1 39/103/1 20/104/1 19/106/1
f 41/107/1 40/105/1 19/106/1 18/108/1
f 42/109/1 41/107/1 18/108/1 17/110/1
f 43/10/1 42/109/1 17/110/1 16/11/1
f 64/31/1 63/37/1 95/38/1 92/32/1
