# Blender v2.83.0 OBJ File: 'RadialFill.blend'
# www.blender.org
mtllib RadialFill_000027.mtl
o Cube_Cube.001
v 0.391724 0.000000 -1.016367
v 0.751136 0.000000 -1.949546
v -0.000000 -0.000000 1.091693
v 0.000000 0.000000 2.091693
v 1.084630 0.000000 0.088737
v 1.088728 0.000000 0.032547
v 1.089499 0.000000 -0.023605
v 1.085196 0.000000 -0.079784
v 1.082178 0.000000 -0.136056
v 1.071389 0.000000 -0.190887
v 1.060582 0.000000 -0.245715
v 1.047740 0.000000 -0.299918
v 1.029228 0.000000 -0.352556
v 1.011984 0.000000 -0.405628
v 0.988292 0.000000 -0.456086
v 0.963582 0.000000 -0.506201
v 0.937935 -0.000000 -0.555754
v 0.906232 -0.000000 -0.601960
v 0.875626 -0.000000 -0.648896
v 0.840306 0.000000 -0.692287
v 0.803266 0.000000 -0.734463
v 0.766190 0.000000 -0.776521
v 0.723367 0.000000 -0.812843
v 0.681413 0.000000 -0.850142
v 0.636566 0.000000 -0.883514
v 0.589827 0.000000 -0.914404
v 0.543625 0.000000 -0.946083
v 0.493057 0.000000 -0.969920
v 0.443094 0.000000 -0.994943
v 0.850238 0.000000 -1.908307
v 0.946773 0.000000 -1.861067
v 1.042704 0.000000 -1.812640
v 1.132715 0.000000 -1.754209
v 1.221827 0.000000 -1.694360
v 1.307442 0.000000 -1.629943
v 1.388435 0.000000 -1.559627
v 1.468559 0.000000 -1.488333
v 1.541101 -0.000000 -1.409446
v 1.611677 -0.000000 -1.328673
v 1.678553 -0.000000 -1.244974
v 1.738685 -0.000000 -1.156057
v 1.797720 -0.000000 -1.066411
v 1.848533 0.000000 -0.971885
v 1.896086 -0.000000 -0.875502
v 1.940219 0.000000 -0.777625
v 1.975471 -0.000000 -0.676015
v 2.009454 -0.000000 -0.573973
v 2.035164 -0.000000 -0.469745
v 2.056230 -0.000000 -0.364347
v 2.074642 -0.000000 -0.258593
v 2.082599 -0.000000 -0.151812
v 0.056159 0.000000 1.086849
v 2.089272 -0.000000 -0.044939
v 0.112384 -0.000000 1.083291
v 2.088295 -0.000000 0.061961
v 2.081418 0.000000 0.168824
v 2.072928 -0.000000 0.275552
v 2.052963 -0.000000 0.381148
v 2.031689 -0.000000 0.486503
v 2.004129 -0.000000 0.590249
v 1.969941 -0.000000 0.692227
v 1.934490 -0.000000 0.793761
v 1.888594 -0.000000 0.890890
v 1.840852 0.000000 0.987177
v 1.788395 0.000000 1.080733
v 1.729182 -0.000000 1.170267
v 1.668879 0.000000 1.259062
v 0.167911 0.000000 1.076323
v 0.222634 -0.000000 1.064966
v 1.600504 -0.000000 1.341593
v 0.277627 -0.000000 1.054912
v 1.529772 0.000000 1.422228
v 0.330379 0.000000 1.036855
v 1.455860 0.000000 1.499750
v 1.375594 -0.000000 1.570890
v 0.383261 0.000000 1.019080
v 0.435189 0.000000 0.999039
v 0.485062 0.000000 0.973824
v 0.535529 0.000000 0.949801
v 0.582451 -0.000000 0.919424
v 0.629073 0.000000 0.888361
v 0.674809 0.000000 0.856175
v 0.716629 -0.000000 0.818717
v 0.759310 -0.000000 0.782242
v 0.797458 0.000000 0.741260
v 0.834341 0.000000 0.698947
v 0.870850 0.000000 0.656442
v 0.901286 -0.000000 0.609385
v 1.294467 0.000000 1.641047
v 0.932812 0.000000 0.563066
v 1.207687 0.000000 1.703963
v 0.959757 0.000000 0.514238
v 1.118457 -0.000000 1.763638
v 1.027470 0.000000 1.820430
v 0.984277 0.000000 0.464028
v 1.009354 0.000000 0.414124
v 0.931439 0.000000 1.868670
v 0.834814 -0.000000 1.915718
v 0.734967 0.000000 1.955191
v 1.026398 0.000000 0.360977
v 0.633168 0.000000 1.989913
v 1.044707 0.000000 0.308274
v 0.530703 -0.000000 2.022359
v 0.425470 0.000000 2.044179
v 0.319967 -0.000000 2.064695
v 0.213719 0.000000 2.078143
v 1.058981 0.000000 0.254472
v 1.069581 0.000000 0.199601
v 1.081490 0.000000 0.144972
v 0.106892 -0.000000 2.085561
vt 0.541667 0.500000
vt 0.550926 0.500000
vt 0.550926 0.750000
vt 0.541667 0.750000
vt 0.662037 0.500000
vt 0.671296 0.500000
vt 0.671296 0.750000
vt 0.662037 0.750000
vt 0.736111 0.500000
vt 0.745370 0.500000
vt 0.745371 0.750000
vt 0.736111 0.750000
vt 0.560185 0.500000
vt 0.560185 0.750000
vt 0.449074 0.500000
vt 0.458333 0.500000
vt 0.458333 0.750000
vt 0.449074 0.750000
vt 0.726852 0.500000
vt 0.726852 0.750000
vt 0.532408 0.500000
vt 0.532407 0.750000
vt 0.523148 0.500000
vt 0.523148 0.750000
vt 0.513889 0.500000
vt 0.513889 0.750000
vt 0.504630 0.500000
vt 0.504630 0.750000
vt 0.495370 0.500000
vt 0.495370 0.750000
vt 0.569445 0.500000
vt 0.569445 0.750000
vt 0.587963 0.500000
vt 0.597222 0.500000
vt 0.597222 0.750000
vt 0.587963 0.750000
vt 0.578704 0.500000
vt 0.578704 0.750000
vt 0.606482 0.500000
vt 0.615741 0.500000
vt 0.615741 0.750000
vt 0.606482 0.750000
vt 0.625000 0.500000
vt 0.625000 0.750000
vt 0.467593 0.500000
vt 0.467593 0.750000
vt 0.476852 0.500000
vt 0.476852 0.750000
vt 0.717593 0.500000
vt 0.717593 0.750000
vt 0.439815 0.500000
vt 0.439815 0.750000
vt 0.689815 0.500000
vt 0.699074 0.500000
vt 0.699074 0.750000
vt 0.689815 0.750000
vt 0.708333 0.500000
vt 0.708333 0.750000
vt 0.634259 0.500000
vt 0.643519 0.500000
vt 0.643519 0.750000
vt 0.634259 0.750000
vt 0.421296 0.500000
vt 0.430556 0.500000
vt 0.430556 0.750000
vt 0.421296 0.750000
vt 0.412037 0.500000
vt 0.412037 0.750000
vt 0.652778 0.500000
vt 0.652778 0.750000
vt 0.402778 0.500000
vt 0.402778 0.750000
vt 0.384259 0.500000
vt 0.393519 0.500000
vt 0.393519 0.750000
vt 0.384259 0.750000
vt 0.865741 0.500000
vt 0.875000 0.500000
vt 0.875000 0.750000
vt 0.865741 0.750000
vt 0.680556 0.500000
vt 0.680556 0.750000
vt 0.375000 0.500000
vt 0.375000 0.750000
vt 0.486111 0.500000
vt 0.486111 0.750000
vt 0.856481 0.500000
vt 0.856481 0.750000
vt 0.847222 0.500000
vt 0.847222 0.750000
vt 0.837963 0.500000
vt 0.837963 0.750000
vt 0.828704 0.500000
vt 0.828704 0.750000
vt 0.819444 0.500000
vt 0.819445 0.750000
vt 0.810185 0.500000
vt 0.810185 0.750000
vt 0.800926 0.500000
vt 0.800926 0.750000
vt 0.791667 0.500000
vt 0.791667 0.750000
vt 0.782407 0.500000
vt 0.782408 0.750000
vt 0.773148 0.500000
vt 0.773148 0.750000
vt 0.763889 0.500000
vt 0.763889 0.750000
vt 0.754630 0.500000
vt 0.754630 0.750000
vn 0.0000 1.0000 -0.0000
usemtl None
s off
f 67/1/1 66/2/1 88/3/1 87/4/1
f 53/5/1 51/6/1 8/7/1 7/8/1
f 44/9/1 43/10/1 16/11/1 15/12/1
f 66/2/1 65/13/1 90/14/1 88/3/1
f 98/15/1 97/16/1 78/17/1 77/18/1
f 45/19/1 44/9/1 15/12/1 14/20/1
f 70/21/1 67/1/1 87/4/1 86/22/1
f 72/23/1 70/21/1 86/22/1 85/24/1
f 74/25/1 72/23/1 85/24/1 84/26/1
f 75/27/1 74/25/1 84/26/1 83/28/1
f 89/29/1 75/27/1 83/28/1 82/30/1
f 65/13/1 64/31/1 92/32/1 90/14/1
f 62/33/1 61/34/1 100/35/1 96/36/1
f 63/37/1 62/33/1 96/36/1 95/38/1
f 60/39/1 59/40/1 107/41/1 102/42/1
f 61/34/1 60/39/1 102/42/1 100/35/1
f 59/40/1 58/43/1 108/44/1 107/41/1
f 97/16/1 94/45/1 79/46/1 78/17/1
f 94/45/1 93/47/1 80/48/1 79/46/1
f 46/49/1 45/19/1 14/20/1 13/50/1
f 99/51/1 98/15/1 77/18/1 76/52/1
f 49/53/1 48/54/1 11/55/1 10/56/1
f 47/57/1 46/49/1 13/50/1 12/58/1
f 57/59/1 56/60/1 5/61/1 109/62/1
f 103/63/1 101/64/1 73/65/1 71/66/1
f 104/67/1 103/63/1 71/66/1 69/68/1
f 58/43/1 57/59/1 109/62/1 108/44/1
f 56/60/1 55/69/1 6/70/1 5/61/1
f 105/71/1 104/67/1 69/68/1 68/72/1
f 55/69/1 53/5/1 7/8/1 6/70/1
f 110/73/1 106/74/1 54/75/1 52/76/1
f 48/54/1 47/57/1 12/58/1 11/55/1
f 30/77/1 2/78/1 1/79/1 29/80/1
f 51/6/1 50/81/1 9/82/1 8/7/1
f 106/74/1 105/71/1 68/72/1 54/75/1
f 50/81/1 49/53/1 10/56/1 9/82/1
f 4/83/1 110/73/1 52/76/1 3/84/1
f 101/64/1 99/51/1 76/52/1 73/65/1
f 93/47/1 91/85/1 81/86/1 80/48/1
f 91/85/1 89/29/1 82/30/1 81/86/1
f 31/87/1 30/77/1 29/80/1 28/88/1
f 32/89/1 31/87/1 28/88/1 27/90/1
f 33/91/1 32/89/1 27/90/1 26/92/1
f 34/93/1 33/91/1 26/92/1 25/94/1
f 35/95/1 34/93/1 25/94/1 24/96/1
f 36/97/1 35/95/1 24/96/1 23/98/1
f 37/99/1 36/97/1 23/98/1 22/100/1
f 38/101/1 37/99/1 22/100/1 21/102/1
f 39/103/1 38/101/1 21/102/1 20/104/1
f 40/105/1 39/103/1 20/104/1 19/106/1
f 41/107/1 40/105/1 19/106/1 18/108/1
f 42/109/1 41/107/1 18/108/1 17/110/1
f 43/10/1 42/109/1 17/110/1 16/11/1
f 64/31/1 63/37/1 95/38/1 92/32/1
