# Blender v2.83.0 OBJ File: 'RadialFill.blend'
# www.blender.org
mtllib RadialFill_000003.mtl
o Cube_Cube.001
v 0.237278 -0.000000 1.062157
v 0.453577 0.000000 2.038484
v -0.000000 -0.000000 1.091693
v 0.000000 0.000000 2.091693
v 0.128792 -0.000000 1.082495
v 0.133243 0.000000 1.082298
v 0.137694 0.000000 1.082109
v 0.142147 0.000000 1.081928
v 0.146492 -0.000000 1.081140
v 0.150801 0.000000 1.080154
v 0.155112 0.000000 1.079176
v 0.159424 -0.000000 1.078207
v 0.163738 0.000000 1.077245
v 0.168052 0.000000 1.076292
v 0.172368 0.000000 1.075348
v 0.176685 0.000000 1.074411
v 0.181003 0.000000 1.073482
v 0.185323 -0.000000 1.072562
v 0.189644 0.000000 1.071650
v 0.193966 0.000000 1.070746
v 0.198290 0.000000 1.069851
v 0.202616 -0.000000 1.068963
v 0.206943 0.000000 1.068084
v 0.211272 -0.000000 1.067213
v 0.215602 0.000000 1.066350
v 0.219934 -0.000000 1.065495
v 0.224267 0.000000 1.064648
v 0.228602 0.000000 1.063809
v 0.232939 0.000000 1.062979
v 0.445255 -0.000000 2.040180
v 0.436932 -0.000000 2.041868
v 0.428607 -0.000000 2.043548
v 0.420280 0.000000 2.045220
v 0.411952 -0.000000 2.046883
v 0.403622 0.000000 2.048539
v 0.395290 -0.000000 2.050186
v 0.386957 0.000000 2.051826
v 0.378622 -0.000000 2.053457
v 0.370286 -0.000000 2.055079
v 0.361948 0.000000 2.056694
v 0.353609 0.000000 2.058300
v 0.345268 -0.000000 2.059899
v 0.336927 0.000000 2.061489
v 0.328583 -0.000000 2.063071
v 0.320239 -0.000000 2.064644
v 0.311893 -0.000000 2.066210
v 0.303546 -0.000000 2.067767
v 0.295198 -0.000000 2.069316
v 0.286848 -0.000000 2.070857
v 0.278498 0.000000 2.072389
v 0.270127 -0.000000 2.073705
v 0.004436 -0.000000 1.091263
v 0.261696 -0.000000 2.074391
v 0.008873 0.000000 1.090842
v 0.253264 -0.000000 2.075070
v 0.244831 0.000000 2.075740
v 0.236397 -0.000000 2.076402
v 0.227962 0.000000 2.077057
v 0.219526 -0.000000 2.077703
v 0.211090 -0.000000 2.078341
v 0.202653 -0.000000 2.078972
v 0.194215 -0.000000 2.079594
v 0.185776 -0.000000 2.080208
v 0.177336 -0.000000 2.080814
v 0.168896 0.000000 2.081413
v 0.160455 0.000000 2.082003
v 0.152014 -0.000000 2.082585
v 0.013310 -0.000000 1.090428
v 0.017746 -0.000000 1.090023
v 0.143572 0.000000 2.083159
v 0.022183 0.000000 1.089625
v 0.135129 -0.000000 2.083726
v 0.026620 0.000000 1.089236
v 0.126686 -0.000000 2.084284
v 0.118243 -0.000000 2.084834
v 0.031058 0.000000 1.088855
v 0.035495 -0.000000 1.088481
v 0.039933 0.000000 1.088116
v 0.044371 0.000000 1.087759
v 0.048809 -0.000000 1.087409
v 0.053248 0.000000 1.087068
v 0.057687 0.000000 1.086735
v 0.062127 0.000000 1.086410
v 0.066567 0.000000 1.086093
v 0.071007 0.000000 1.085784
v 0.075448 -0.000000 1.085483
v 0.079890 0.000000 1.085190
v 0.084332 0.000000 1.084905
v 0.109799 -0.000000 2.085376
v 0.088775 -0.000000 1.084628
v 0.101354 -0.000000 2.085910
v 0.093218 0.000000 1.084359
v 0.092909 0.000000 2.086437
v 0.084464 -0.000000 2.086955
v 0.097662 0.000000 1.084098
v 0.102107 0.000000 1.083845
v 0.076019 -0.000000 2.087465
v 0.067573 0.000000 2.087966
v 0.059127 -0.000000 2.088460
v 0.106552 0.000000 1.083600
v 0.050681 -0.000000 2.088946
v 0.110998 0.000000 1.083363
v 0.042234 -0.000000 2.089424
v 0.033788 0.000000 2.089894
v 0.025341 0.000000 2.090356
v 0.016894 -0.000000 2.090809
v 0.115446 0.000000 1.083134
v 0.119893 -0.000000 1.082913
v 0.124342 0.000000 1.082700
v 0.008447 0.000000 2.091255
vt 0.541667 0.500000
vt 0.550926 0.500000
vt 0.550926 0.750000
vt 0.541667 0.750000
vt 0.662037 0.500000
vt 0.671296 0.500000
vt 0.671296 0.750000
vt 0.662037 0.750000
vt 0.736111 0.500000
vt 0.745370 0.500000
vt 0.745371 0.750000
vt 0.736111 0.750000
vt 0.560185 0.500000
vt 0.560185 0.750000
vt 0.449074 0.500000
vt 0.458333 0.500000
vt 0.458333 0.750000
vt 0.449074 0.750000
vt 0.726852 0.500000
vt 0.726852 0.750000
vt 0.532408 0.500000
vt 0.532407 0.750000
vt 0.523148 0.500000
vt 0.523148 0.750000
vt 0.513889 0.500000
vt 0.513889 0.750000
vt 0.504630 0.500000
vt 0.504630 0.750000
vt 0.495370 0.500000
vt 0.495370 0.750000
vt 0.569445 0.500000
vt 0.569445 0.750000
vt 0.587963 0.500000
vt 0.597222 0.500000
vt 0.597222 0.750000
vt 0.587963 0.750000
vt 0.578704 0.500000
vt 0.578704 0.750000
vt 0.606482 0.500000
vt 0.615741 0.500000
vt 0.615741 0.750000
vt 0.606482 0.750000
vt 0.625000 0.500000
vt 0.625000 0.750000
vt 0.467593 0.500000
vt 0.467593 0.750000
vt 0.476852 0.500000
vt 0.476852 0.750000
vt 0.717593 0.500000
vt 0.717593 0.750000
vt 0.439815 0.500000
vt 0.439815 0.750000
vt 0.689815 0.500000
vt 0.699074 0.500000
vt 0.699074 0.750000
vt 0.689815 0.750000
vt 0.708333 0.500000
vt 0.708333 0.750000
vt 0.634259 0.500000
vt 0.643519 0.500000
vt 0.643519 0.750000
vt 0.634259 0.750000
vt 0.421296 0.500000
vt 0.430556 0.500000
vt 0.430556 0.750000
vt 0.421296 0.750000
vt 0.412037 0.500000
vt 0.412037 0.750000
vt 0.652778 0.500000
vt 0.652778 0.750000
vt 0.402778 0.500000
vt 0.402778 0.750000
vt 0.384259 0.500000
vt 0.393519 0.500000
vt 0.393519 0.750000
vt 0.384259 0.750000
vt 0.865741 0.500000
vt 0.875000 0.500000
vt 0.875000 0.750000
vt 0.865741 0.750000
vt 0.680556 0.500000
vt 0.680556 0.750000
vt 0.375000 0.500000
vt 0.375000 0.750000
vt 0.486111 0.500000
vt 0.486111 0.750000
vt 0.856481 0.500000
vt 0.856481 0.750000
vt 0.847222 0.500000
vt 0.847222 0.750000
vt 0.837963 0.500000
vt 0.837963 0.750000
vt 0.828704 0.500000
vt 0.828704 0.750000
vt 0.819444 0.500000
vt 0.819445 0.750000
vt 0.810185 0.500000
vt 0.810185 0.750000
vt 0.800926 0.500000
vt 0.800926 0.750000
vt 0.791667 0.500000
vt 0.791667 0.750000
vt 0.782407 0.500000
vt 0.782408 0.750000
vt 0.773148 0.500000
vt 0.773148 0.750000
vt 0.763889 0.500000
vt 0.763889 0.750000
vt 0.754630 0.500000
vt 0.754630 0.750000
vn -0.0000 1.0000 0.0000
usemtl None
s off
f 67/1/1 66/2/1 88/3/1 87/4/1
f 53/5/1 51/6/1 8/7/1 7/8/1
f 44/9/1 43/10/1 16/11/1 15/12/1
f 66/2/1 65/13/1 90/14/1 88/3/1
f 98/15/1 97/16/1 78/17/1 77/18/1
f 45/19/1 44/9/1 15/12/1 14/20/1
f 70/21/1 67/1/1 87/4/1 86/22/1
f 72/23/1 70/21/1 86/22/1 85/24/1
f 74/25/1 72/23/1 85/24/1 84/26/1
f 75/27/1 74/25/1 84/26/1 83/28/1
f 89/29/1 75/27/1 83/28/1 82/30/1
f 65/13/1 64/31/1 92/32/1 90/14/1
f 62/33/1 61/34/1 100/35/1 96/36/1
f 63/37/1 62/33/1 96/36/1 95/38/1
f 60/39/1 59/40/1 107/41/1 102/42/1
f 61/34/1 60/39/1 102/42/1 100/35/1
f 59/40/1 58/43/1 108/44/1 107/41/1
f 97/16/1 94/45/1 79/46/1 78/17/1
f 94/45/1 93/47/1 80/48/1 79/46/1
f 46/49/1 45/19/1 14/20/1 13/50/1
f 99/51/1 98/15/1 77/18/1 76/52/1
f 49/53/1 48/54/1 11/55/1 10/56/1
f 47/57/1 46/49/1 13/50/1 12/58/1
f 57/59/1 56/60/1 5/61/1 109/62/1
f 103/63/1 101/64/1 73/65/1 71/66/1
f 104/67/1 103/63/1 71/66/1 69/68/1
f 58/43/1 57/59/1 109/62/1 108/44/1
f 56/60/1 55/69/1 6/70/1 5/61/1
f 105/71/1 104/67/1 69/68/1 68/72/1
f 55/69/1 53/5/1 7/8/1 6/70/1
f 110/73/1 106/74/1 54/75/1 52/76/1
f 48/54/1 47/57/1 12/58/1 11/55/1
f 30/77/1 2/78/1 1/79/1 29/80/1
f 51/6/1 50/81/1 9/82/1 8/7/1
f 106/74/1 105/71/1 68/72/1 54/75/1
f 50/81/1 49/53/1 10/56/1 9/82/1
f 4/83/1 110/73/1 52/76/1 3/84/1
f 101/64/1 99/51/1 76/52/1 73/65/1
f 93/47/1 91/85/1 81/86/1 80/48/1
f 91/85/1 89/29/1 82/30/1 81/86/1
f 31/87/1 30/77/1 29/80/1 28/88/1
f 32/89/1 31/87/1 28/88/1 27/90/1
f 33/91/1 32/89/1 27/90/1 26/92/1
f 34/93/1 33/91/1 26/92/1 25/94/1
f 35/95/1 34/93/1 25/94/1 24/96/1
f 36/97/1 35/95/1 24/96/1 23/98/1
f 37/99/1 36/97/1 23/98/1 22/100/1
f 38/101/1 37/99/1 22/100/1 21/102/1
f 39/103/1 38/101/1 21/102/1 20/104/1
f 40/105/1 39/103/1 20/104/1 19/106/1
f 41/107/1 40/105/1 19/106/1 18/108/1
f 42/109/1 41/107/1 18/108/1 17/110/1
f 43/10/1 42/109/1 17/110/1 16/11/1
f 64/31/1 63/37/1 95/38/1 92/32/1
