# Blender v2.83.0 OBJ File: 'RadialFill.blend'
# www.blender.org
mtllib RadialFill_000002.mtl
o Cube_Cube.001
v 0.123339 0.000000 1.082747
v 0.234494 -0.000000 2.076550
v -0.000000 -0.000000 1.091693
v 0.000000 0.000000 2.091693
v 0.066193 0.000000 1.086119
v 0.068477 -0.000000 1.085959
v 0.070761 0.000000 1.085801
v 0.073045 0.000000 1.085644
v 0.075329 0.000000 1.085491
v 0.077614 0.000000 1.085339
v 0.079898 -0.000000 1.085189
v 0.082183 0.000000 1.085042
v 0.084468 -0.000000 1.084896
v 0.086753 0.000000 1.084753
v 0.089038 0.000000 1.084611
v 0.091323 0.000000 1.084472
v 0.093609 0.000000 1.084335
v 0.095895 -0.000000 1.084201
v 0.098181 0.000000 1.084068
v 0.100467 -0.000000 1.083937
v 0.102753 -0.000000 1.083809
v 0.105039 0.000000 1.083682
v 0.107326 -0.000000 1.083558
v 0.109613 0.000000 1.083436
v 0.111900 -0.000000 1.083316
v 0.114187 0.000000 1.083198
v 0.116475 0.000000 1.083082
v 0.118763 -0.000000 1.082968
v 0.121050 -0.000000 1.082857
v 0.230156 0.000000 2.076887
v 0.225817 -0.000000 2.077222
v 0.221479 -0.000000 2.077554
v 0.217140 -0.000000 2.077884
v 0.212800 0.000000 2.078212
v 0.208461 -0.000000 2.078539
v 0.204121 0.000000 2.078863
v 0.199781 -0.000000 2.079184
v 0.195441 0.000000 2.079504
v 0.191101 0.000000 2.079822
v 0.186760 -0.000000 2.080137
v 0.182420 0.000000 2.080450
v 0.178079 -0.000000 2.080761
v 0.173738 -0.000000 2.081071
v 0.169397 -0.000000 2.081378
v 0.165055 -0.000000 2.081682
v 0.160714 0.000000 2.081985
v 0.156372 -0.000000 2.082286
v 0.152030 0.000000 2.082584
v 0.147688 -0.000000 2.082880
v 0.143346 -0.000000 2.083175
v 0.139004 -0.000000 2.083467
v 0.002282 -0.000000 1.091471
v 0.134661 -0.000000 2.083757
v 0.004564 0.000000 1.091251
v 0.130319 0.000000 2.084045
v 0.125976 -0.000000 2.084331
v 0.121633 -0.000000 2.084614
v 0.117290 0.000000 2.084896
v 0.112947 -0.000000 2.085175
v 0.108604 -0.000000 2.085452
v 0.104261 -0.000000 2.085727
v 0.099917 -0.000000 2.086000
v 0.095574 -0.000000 2.086272
v 0.091230 -0.000000 2.086540
v 0.086887 0.000000 2.086807
v 0.082543 -0.000000 2.087071
v 0.078199 0.000000 2.087334
v 0.006846 0.000000 1.091033
v 0.009127 -0.000000 1.090818
v 0.073855 -0.000000 2.087594
v 0.011409 -0.000000 1.090604
v 0.069511 -0.000000 2.087852
v 0.013691 0.000000 1.090393
v 0.065167 0.000000 2.088108
v 0.060823 0.000000 2.088362
v 0.015973 -0.000000 1.090184
v 0.018256 0.000000 1.089977
v 0.020538 -0.000000 1.089772
v 0.022820 -0.000000 1.089569
v 0.025102 0.000000 1.089368
v 0.027384 -0.000000 1.089170
v 0.029666 0.000000 1.088973
v 0.031949 -0.000000 1.088779
v 0.034231 -0.000000 1.088587
v 0.036514 0.000000 1.088396
v 0.038796 0.000000 1.088209
v 0.041079 -0.000000 1.088023
v 0.043361 0.000000 1.087839
v 0.056479 -0.000000 2.088614
v 0.045644 -0.000000 1.087657
v 0.052134 0.000000 2.088863
v 0.047927 0.000000 1.087478
v 0.047790 -0.000000 2.089111
v 0.043446 0.000000 2.089356
v 0.050210 0.000000 1.087301
v 0.052493 0.000000 1.087126
v 0.039101 0.000000 2.089599
v 0.034757 -0.000000 2.089841
v 0.030412 0.000000 2.090080
v 0.054776 0.000000 1.086953
v 0.026068 -0.000000 2.090316
v 0.057059 0.000000 1.086782
v 0.021723 0.000000 2.090551
v 0.017379 0.000000 2.090784
v 0.013034 -0.000000 2.091014
v 0.008689 -0.000000 2.091243
v 0.059343 0.000000 1.086613
v 0.061626 -0.000000 1.086446
v 0.063910 0.000000 1.086282
v 0.004345 0.000000 2.091469
vt 0.541667 0.500000
vt 0.550926 0.500000
vt 0.550926 0.750000
vt 0.541667 0.750000
vt 0.662037 0.500000
vt 0.671296 0.500000
vt 0.671296 0.750000
vt 0.662037 0.750000
vt 0.736111 0.500000
vt 0.745370 0.500000
vt 0.745371 0.750000
vt 0.736111 0.750000
vt 0.560185 0.500000
vt 0.560185 0.750000
vt 0.449074 0.500000
vt 0.458333 0.500000
vt 0.458333 0.750000
vt 0.449074 0.750000
vt 0.726852 0.500000
vt 0.726852 0.750000
vt 0.532408 0.500000
vt 0.532407 0.750000
vt 0.523148 0.500000
vt 0.523148 0.750000
vt 0.513889 0.500000
vt 0.513889 0.750000
vt 0.504630 0.500000
vt 0.504630 0.750000
vt 0.495370 0.500000
vt 0.495370 0.750000
vt 0.569445 0.500000
vt 0.569445 0.750000
vt 0.587963 0.500000
vt 0.597222 0.500000
vt 0.597222 0.750000
vt 0.587963 0.750000
vt 0.578704 0.500000
vt 0.578704 0.750000
vt 0.606482 0.500000
vt 0.615741 0.500000
vt 0.615741 0.750000
vt 0.606482 0.750000
vt 0.625000 0.500000
vt 0.625000 0.750000
vt 0.467593 0.500000
vt 0.467593 0.750000
vt 0.476852 0.500000
vt 0.476852 0.750000
vt 0.717593 0.500000
vt 0.717593 0.750000
vt 0.439815 0.500000
vt 0.439815 0.750000
vt 0.689815 0.500000
vt 0.699074 0.500000
vt 0.699074 0.750000
vt 0.689815 0.750000
vt 0.708333 0.500000
vt 0.708333 0.750000
vt 0.634259 0.500000
vt 0.643519 0.500000
vt 0.643519 0.750000
vt 0.634259 0.750000
vt 0.421296 0.500000
vt 0.430556 0.500000
vt 0.430556 0.750000
vt 0.421296 0.750000
vt 0.412037 0.500000
vt 0.412037 0.750000
vt 0.652778 0.500000
vt 0.652778 0.750000
vt 0.402778 0.500000
vt 0.402778 0.750000
vt 0.384259 0.500000
vt 0.393519 0.500000
vt 0.393519 0.750000
vt 0.384259 0.750000
vt 0.865741 0.500000
vt 0.875000 0.500000
vt 0.875000 0.750000
vt 0.865741 0.750000
vt 0.680556 0.500000
vt 0.680556 0.750000
vt 0.375000 0.500000
vt 0.375000 0.750000
vt 0.486111 0.500000
vt 0.486111 0.750000
vt 0.856481 0.500000
vt 0.856481 0.750000
vt 0.847222 0.500000
vt 0.847222 0.750000
vt 0.837963 0.500000
vt 0.837963 0.750000
vt 0.828704 0.500000
vt 0.828704 0.750000
vt 0.819444 0.500000
vt 0.819445 0.750000
vt 0.810185 0.500000
vt 0.810185 0.750000
vt 0.800926 0.500000
vt 0.800926 0.750000
vt 0.791667 0.500000
vt 0.791667 0.750000
vt 0.782407 0.500000
vt 0.782408 0.750000
vt 0.773148 0.500000
vt 0.773148 0.750000
vt 0.763889 0.500000
vt 0.763889 0.750000
vt 0.754630 0.500000
vt 0.754630 0.750000
vn -0.0000 1.0000 -0.0000
usemtl None
s off
f 67/1/1 66/2/1 88/3/1 87/4/1
f 53/5/1 51/6/1 8/7/1 7/8/1
f 44/9/1 43/10/1 16/11/1 15/12/1
f 66/2/1 65/13/1 90/14/1 88/3/1
f 98/15/1 97/16/1 78/17/1 77/18/1
f 45/19/1 44/9/1 15/12/1 14/20/1
f 70/21/1 67/1/1 87/4/1 86/22/1
f 72/23/1 70/21/1 86/22/1 85/24/1
f 74/25/1 72/23/1 85/24/1 84/26/1
f 75/27/1 74/25/1 84/26/1 83/28/1
f 89/29/1 75/27/1 83/28/1 82/30/1
f 65/13/1 64/31/1 92/32/1 90/14/1
f 62/33/1 61/34/1 100/35/1 96/36/1
f 63/37/1 62/33/1 96/36/1 95/38/1
f 60/39/1 59/40/1 107/41/1 102/42/1
f 61/34/1 60/39/1 102/42/1 100/35/1
f 59/40/1 58/43/1 108/44/1 107/41/1
f 97/16/1 94/45/1 79/46/1 78/17/1
f 94/45/1 93/47/1 80/48/1 79/46/1
f 46/49/1 45/19/1 14/20/1 13/50/1
f 99/51/1 98/15/1 77/18/1 76/52/1
f 49/53/1 48/54/1 11/55/1 10/56/1
f 47/57/1 46/49/1 13/50/1 12/58/1
f 57/59/1 56/60/1 5/61/1 109/62/1
f 103/63/1 101/64/1 73/65/1 71/66/1
f 104/67/1 103/63/1 71/66/1 69/68/1
f 58/43/1 57/59/1 109/62/1 108/44/1
f 56/60/1 55/69/1 6/70/1 5/61/1
f 105/71/1 104/67/1 69/68/1 68/72/1
f 55/69/1 53/5/1 7/8/1 6/70/1
f 110/73/1 106/74/1 54/75/1 52/76/1
f 48/54/1 47/57/1 12/58/1 11/55/1
f 30/77/1 2/78/1 1/79/1 29/80/1
f 51/6/1 50/81/1 9/82/1 8/7/1
f 106/74/1 105/71/1 68/72/1 54/75/1
f 50/81/1 49/53/1 10/56/1 9/82/1
f 4/83/1 110/73/1 52/76/1 3/84/1
f 101/64/1 99/51/1 76/52/1 73/65/1
f 93/47/1 91/85/1 81/86/1 80/48/1
f 91/85/1 89/29/1 82/30/1 81/86/1
f 31/87/1 30/77/1 29/80/1 28/88/1
f 32/89/1 31/87/1 28/88/1 27/90/1
f 33/91/1 32/89/1 27/90/1 26/92/1
f 34/93/1 33/91/1 26/92/1 25/94/1
f 35/95/1 34/93/1 25/94/1 24/96/1
f 36/97/1 35/95/1 24/96/1 23/98/1
f 37/99/1 36/97/1 23/98/1 22/100/1
f 38/101/1 37/99/1 22/100/1 21/102/1
f 39/103/1 38/101/1 21/102/1 20/104/1
f 40/105/1 39/103/1 20/104/1 19/106/1
f 41/107/1 40/105/1 19/106/1 18/108/1
f 42/109/1 41/107/1 18/108/1 17/110/1
f 43/10/1 42/109/1 17/110/1 16/11/1
f 64/31/1 63/37/1 95/38/1 92/32/1
