# Blender v2.83.0 OBJ File: 'RadialFill.blend'
# www.blender.org
mtllib RadialFill_000014.mtl
o Cube_Cube.001
v 1.070272 0.000000 0.196253
v 2.054223 -0.000000 0.374694
v -0.000000 -0.000000 1.091693
v 0.000000 0.000000 2.091693
v 0.739262 0.000000 0.799161
v 0.760777 -0.000000 0.781019
v 0.780640 0.000000 0.761231
v 0.798778 0.000000 0.739711
v 0.817157 -0.000000 0.718414
v 0.835782 0.000000 0.697334
v 0.854659 0.000000 0.676464
v 0.872071 0.000000 0.654507
v 0.887211 0.000000 0.630845
v 0.902621 0.000000 0.607375
v 0.918305 0.000000 0.584090
v 0.934268 0.000000 0.560983
v 0.949024 0.000000 0.537214
v 0.960897 0.000000 0.511835
v 0.973064 0.000000 0.486613
v 0.985531 0.000000 0.461540
v 0.998300 0.000000 0.436610
v 1.010212 0.000000 0.411342
v 1.018629 0.000000 0.384662
v 1.027361 0.000000 0.358100
v 1.036412 0.000000 0.331649
v 1.045783 0.000000 0.305300
v 1.054707 0.000000 0.278832
v 1.059569 0.000000 0.251231
v 1.064757 0.000000 0.223708
v 2.043765 0.000000 0.427532
v 2.032979 -0.000000 0.480303
v 2.021868 -0.000000 0.532997
v 2.006028 -0.000000 0.584459
v 1.989091 -0.000000 0.635626
v 1.971834 -0.000000 0.686691
v 1.954259 -0.000000 0.737645
v 1.936369 -0.000000 0.788481
v 1.914388 0.000000 0.837589
v 1.890943 -0.000000 0.886074
v 1.867197 -0.000000 0.934416
v 1.843150 -0.000000 0.982609
v 1.818810 -0.000000 1.030644
v 1.791052 0.000000 1.076659
v 1.761542 -0.000000 1.121632
v 1.731754 -0.000000 1.166426
v 1.701692 -0.000000 1.211037
v 1.671360 0.000000 1.255455
v 1.638263 -0.000000 1.297726
v 1.603210 -0.000000 1.338469
v 1.567905 0.000000 1.379003
v 1.532354 -0.000000 1.419319
v 0.028139 0.000000 1.089104
v 1.496561 -0.000000 1.459412
v 0.056287 -0.000000 1.086839
v 1.458573 0.000000 1.497315
v 1.418475 -0.000000 1.533102
v 1.378154 0.000000 1.568648
v 1.337617 -0.000000 1.603948
v 1.296869 0.000000 1.638995
v 1.254525 0.000000 1.671999
v 1.210103 0.000000 1.702325
v 1.165489 0.000000 1.732382
v 1.120690 -0.000000 1.762164
v 1.075714 0.000000 1.791667
v 1.029639 0.000000 1.819323
v 0.981600 0.000000 1.843658
v 0.933404 -0.000000 1.867697
v 0.084451 -0.000000 1.084897
v 0.112639 0.000000 1.083277
v 0.885058 0.000000 1.891438
v 0.140861 0.000000 1.081980
v 0.836571 0.000000 1.914876
v 0.168283 -0.000000 1.076242
v 0.787416 -0.000000 1.936747
v 0.736578 0.000000 1.954630
v 0.195677 0.000000 1.070391
v 0.223131 -0.000000 1.064869
v 0.250654 -0.000000 1.059674
v 0.278252 -0.000000 1.054805
v 0.304749 -0.000000 1.045982
v 0.331095 -0.000000 1.036605
v 0.357544 -0.000000 1.027548
v 0.384103 0.000000 1.018809
v 0.410781 0.000000 1.010385
v 0.436088 -0.000000 0.998571
v 0.461016 0.000000 0.985795
v 0.486085 0.000000 0.973323
v 0.511304 -0.000000 0.961149
v 0.685622 -0.000000 1.972198
v 0.536680 -0.000000 0.949270
v 0.634555 -0.000000 1.989449
v 0.560501 -0.000000 0.934605
v 0.583386 -0.000000 2.006379
v 0.531893 0.000000 2.022104
v 0.583604 0.000000 0.918636
v 0.606885 -0.000000 0.902947
v 0.479197 0.000000 2.033208
v 0.426425 0.000000 2.043987
v 0.373585 0.000000 2.054438
v 0.630351 0.000000 0.887531
v 0.320685 -0.000000 2.064560
v 0.654009 -0.000000 0.872386
v 0.267692 -0.000000 2.073904
v 0.214203 0.000000 2.078106
v 0.160681 0.000000 2.081987
v 0.107134 0.000000 2.085546
v 0.676029 -0.000000 0.855057
v 0.696894 0.000000 0.836175
v 0.717970 -0.000000 0.817545
v 0.053571 -0.000000 2.088781
vt 0.541667 0.500000
vt 0.550926 0.500000
vt 0.550926 0.750000
vt 0.541667 0.750000
vt 0.662037 0.500000
vt 0.671296 0.500000
vt 0.671296 0.750000
vt 0.662037 0.750000
vt 0.736111 0.500000
vt 0.745370 0.500000
vt 0.745371 0.750000
vt 0.736111 0.750000
vt 0.560185 0.500000
vt 0.560185 0.750000
vt 0.449074 0.500000
vt 0.458333 0.500000
vt 0.458333 0.750000
vt 0.449074 0.750000
vt 0.726852 0.500000
vt 0.726852 0.750000
vt 0.532408 0.500000
vt 0.532407 0.750000
vt 0.523148 0.500000
vt 0.523148 0.750000
vt 0.513889 0.500000
vt 0.513889 0.750000
vt 0.504630 0.500000
vt 0.504630 0.750000
vt 0.495370 0.500000
vt 0.495370 0.750000
vt 0.569445 0.500000
vt 0.569445 0.750000
vt 0.587963 0.500000
vt 0.597222 0.500000
vt 0.597222 0.750000
vt 0.587963 0.750000
vt 0.578704 0.500000
vt 0.578704 0.750000
vt 0.606482 0.500000
vt 0.615741 0.500000
vt 0.615741 0.750000
vt 0.606482 0.750000
vt 0.625000 0.500000
vt 0.625000 0.750000
vt 0.467593 0.500000
vt 0.467593 0.750000
vt 0.476852 0.500000
vt 0.476852 0.750000
vt 0.717593 0.500000
vt 0.717593 0.750000
vt 0.439815 0.500000
vt 0.439815 0.750000
vt 0.689815 0.500000
vt 0.699074 0.500000
vt 0.699074 0.750000
vt 0.689815 0.750000
vt 0.708333 0.500000
vt 0.708333 0.750000
vt 0.634259 0.500000
vt 0.643519 0.500000
vt 0.643519 0.750000
vt 0.634259 0.750000
vt 0.421296 0.500000
vt 0.430556 0.500000
vt 0.430556 0.750000
vt 0.421296 0.750000
vt 0.412037 0.500000
vt 0.412037 0.750000
vt 0.652778 0.500000
vt 0.652778 0.750000
vt 0.402778 0.500000
vt 0.402778 0.750000
vt 0.384259 0.500000
vt 0.393519 0.500000
vt 0.393519 0.750000
vt 0.384259 0.750000
vt 0.865741 0.500000
vt 0.875000 0.500000
vt 0.875000 0.750000
vt 0.865741 0.750000
vt 0.680556 0.500000
vt 0.680556 0.750000
vt 0.375000 0.500000
vt 0.375000 0.750000
vt 0.486111 0.500000
vt 0.486111 0.750000
vt 0.856481 0.500000
vt 0.856481 0.750000
vt 0.847222 0.500000
vt 0.847222 0.750000
vt 0.837963 0.500000
vt 0.837963 0.750000
vt 0.828704 0.500000
vt 0.828704 0.750000
vt 0.819444 0.500000
vt 0.819445 0.750000
vt 0.810185 0.500000
vt 0.810185 0.750000
vt 0.800926 0.500000
vt 0.800926 0.750000
vt 0.791667 0.500000
vt 0.791667 0.750000
vt 0.782407 0.500000
vt 0.782408 0.750000
vt 0.773148 0.500000
vt 0.773148 0.750000
vt 0.763889 0.500000
vt 0.763889 0.750000
vt 0.754630 0.500000
vt 0.754630 0.750000
vn -0.0000 1.0000 -0.0000
usemtl None
s off
f 67/1/1 66/2/1 88/3/1 87/4/1
f 53/5/1 51/6/1 8/7/1 7/8/1
f 44/9/1 43/10/1 16/11/1 15/12/1
f 66/2/1 65/13/1 90/14/1 88/3/1
f 98/15/1 97/16/1 78/17/1 77/18/1
f 45/19/1 44/9/1 15/12/1 14/20/1
f 70/21/1 67/1/1 87/4/1 86/22/1
f 72/23/1 70/21/1 86/22/1 85/24/1
f 74/25/1 72/23/1 85/24/1 84/26/1
f 75/27/1 74/25/1 84/26/1 83/28/1
f 89/29/1 75/27/1 83/28/1 82/30/1
f 65/13/1 64/31/1 92/32/1 90/14/1
f 62/33/1 61/34/1 100/35/1 96/36/1
f 63/37/1 62/33/1 96/36/1 95/38/1
f 60/39/1 59/40/1 107/41/1 102/42/1
f 61/34/1 60/39/1 102/42/1 100/35/1
f 59/40/1 58/43/1 108/44/1 107/41/1
f 97/16/1 94/45/1 79/46/1 78/17/1
f 94/45/1 93/47/1 80/48/1 79/46/1
f 46/49/1 45/19/1 14/20/1 13/50/1
f 99/51/1 98/15/1 77/18/1 76/52/1
f 49/53/1 48/54/1 11/55/1 10/56/1
f 47/57/1 46/49/1 13/50/1 12/58/1
f 57/59/1 56/60/1 5/61/1 109/62/1
f 103/63/1 101/64/1 73/65/1 71/66/1
f 104/67/1 103/63/1 71/66/1 69/68/1
f 58/43/1 57/59/1 109/62/1 108/44/1
f 56/60/1 55/69/1 6/70/1 5/61/1
f 105/71/1 104/67/1 69/68/1 68/72/1
f 55/69/1 53/5/1 7/8/1 6/70/1
f 110/73/1 106/74/1 54/75/1 52/76/1
f 48/54/1 47/57/1 12/58/1 11/55/1
f 30/77/1 2/78/1 1/79/1 29/80/1
f 51/6/1 50/81/1 9/82/1 8/7/1
f 106/74/1 105/71/1 68/72/1 54/75/1
f 50/81/1 49/53/1 10/56/1 9/82/1
f 4/83/1 110/73/1 52/76/1 3/84/1
f 101/64/1 99/51/1 76/52/1 73/65/1
f 93/47/1 91/85/1 81/86/1 80/48/1
f 91/85/1 89/29/1 82/30/1 81/86/1
f 31/87/1 30/77/1 29/80/1 28/88/1
f 32/89/1 31/87/1 28/88/1 27/90/1
f 33/91/1 32/89/1 27/90/1 26/92/1
f 34/93/1 33/91/1 26/92/1 25/94/1
f 35/95/1 34/93/1 25/94/1 24/96/1
f 36/97/1 35/95/1 24/96/1 23/98/1
f 37/99/1 36/97/1 23/98/1 22/100/1
f 38/101/1 37/99/1 22/100/1 21/102/1
f 39/103/1 38/101/1 21/102/1 20/104/1
f 40/105/1 39/103/1 20/104/1 19/106/1
f 41/107/1 40/105/1 19/106/1 18/108/1
f 42/109/1 41/107/1 18/108/1 17/110/1
f 43/10/1 42/109/1 17/110/1 16/11/1
f 64/31/1 63/37/1 95/38/1 92/32/1
