# Blender v2.83.0 OBJ File: 'RadialFill.blend'
# www.blender.org
mtllib RadialFill_000040.mtl
o Cube_Cube.001
v -0.925768 0.000000 -0.573214
v -1.775439 0.000000 -1.100527
v -0.000000 -0.000000 1.091693
v 0.000000 0.000000 2.091693
v 0.860452 0.000000 -0.670157
v 0.804509 0.000000 -0.733016
v 0.746172 0.000000 -0.793288
v 0.682920 0.000000 -0.848773
v 0.614852 0.000000 -0.897669
v 0.545563 0.000000 -0.945146
v 0.469986 0.000000 -0.981290
v 0.393894 0.000000 -1.015676
v 0.314659 0.000000 -1.042413
v 0.233736 0.000000 -1.062828
v 0.151726 0.000000 -1.079944
v 0.067654 0.000000 -1.086016
v -0.016524 0.000000 -1.090133
v -0.100746 0.000000 -1.083921
v -0.183869 0.000000 -1.072871
v -0.266103 0.000000 -1.056907
v -0.345658 0.000000 -1.031574
v -0.424718 0.000000 -1.004524
v -0.499509 0.000000 -0.966797
v -0.572585 0.000000 -0.926202
v -0.642510 0.000000 -0.879699
v -0.707530 0.000000 -0.826719
v -0.771552 0.000000 -0.772092
v -0.826211 0.000000 -0.708104
v -0.879287 0.000000 -0.643154
v -1.685916 0.000000 -1.234212
v -1.585159 0.000000 -1.359256
v -1.478413 0.000000 -1.479445
v -1.358153 0.000000 -1.586119
v -1.233005 0.000000 -1.686740
v -1.099305 0.000000 -1.776241
v -0.959115 0.000000 -1.854920
v -0.814324 0.000000 -1.925505
v -0.662714 0.000000 -1.979981
v -0.508726 0.000000 -2.027028
v -0.350804 0.000000 -2.058839
v -0.191634 0.000000 -2.079783
v -0.031463 0.000000 -2.090022
v 0.128752 0.000000 -2.084148
v 0.288637 0.000000 -2.070528
v 0.446784 0.000000 -2.039870
v 0.602666 0.000000 -2.000042
v 0.755277 0.000000 -1.948094
v 0.902406 0.000000 -1.882962
v 1.046363 0.000000 -1.810709
v 1.180697 0.000000 -1.722181
v 1.310394 0.000000 -1.627410
v 0.084196 0.000000 1.084913
v 1.431424 0.000000 -1.521593
v 0.167788 0.000000 1.076350
v 1.543517 0.000000 -1.406713
v 1.648875 0.000000 -1.285290
v 1.740576 -0.000000 -1.153223
v 1.825804 -0.000000 -1.016917
v 1.897470 -0.000000 -0.872653
v 1.959000 -0.000000 -0.723999
v 2.010361 -0.000000 -0.571191
v 2.046409 -0.000000 -0.414331
v 2.074856 -0.000000 -0.255931
v 2.086255 -0.000000 -0.095840
v 2.088154 -0.000000 0.064384
v 2.077322 0.000000 0.224519
v 2.052542 -0.000000 0.383300
v 0.249906 0.000000 1.059811
v 0.330140 -0.000000 1.036938
v 2.020108 -0.000000 0.541086
v 0.409572 0.000000 1.010759
v 1.969310 0.000000 0.694072
v 0.484721 -0.000000 0.973992
v 1.911224 -0.000000 0.844175
v 1.840085 -0.000000 0.988701
v 0.559044 0.000000 0.935626
v 0.628647 -0.000000 0.888638
v 0.695188 0.000000 0.837703
v 0.758821 0.000000 0.782650
v 0.815317 0.000000 0.720523
v 0.870444 -0.000000 0.657087
v 0.916446 0.000000 0.586819
v 0.959377 0.000000 0.515040
v 0.996550 0.000000 0.439984
v 1.026078 0.000000 0.361937
v 1.053965 -0.000000 0.283076
v 1.069352 0.000000 0.200718
v 1.083002 0.000000 0.118079
v 1.758054 0.000000 1.126908
v 1.088621 0.000000 0.033821
v 1.668051 -0.000000 1.260264
v 1.087290 0.000000 -0.050349
v 1.564379 -0.000000 1.383024
v 1.454956 -0.000000 1.500562
v 1.082237 0.000000 -0.134651
v 1.066104 0.000000 -0.216839
v 1.334307 0.000000 1.606810
v 1.206881 -0.000000 1.704509
v 1.072860 -0.000000 1.793526
v 1.048262 0.000000 -0.298491
v 0.930784 0.000000 1.868994
v 1.020938 0.000000 -0.377531
v 0.785120 -0.000000 1.937562
v 0.632705 -0.000000 1.990067
v 0.477766 -0.000000 2.033505
v 0.319728 -0.000000 2.064740
v 0.989038 0.000000 -0.454618
v 0.952391 0.000000 -0.529936
v 0.907221 0.000000 -0.600483
v 0.160197 -0.000000 2.082021
vt 0.541667 0.500000
vt 0.550926 0.500000
vt 0.550926 0.750000
vt 0.541667 0.750000
vt 0.662037 0.500000
vt 0.671296 0.500000
vt 0.671296 0.750000
vt 0.662037 0.750000
vt 0.736111 0.500000
vt 0.745370 0.500000
vt 0.745371 0.750000
vt 0.736111 0.750000
vt 0.560185 0.500000
vt 0.560185 0.750000
vt 0.449074 0.500000
vt 0.458333 0.500000
vt 0.458333 0.750000
vt 0.449074 0.750000
vt 0.726852 0.500000
vt 0.726852 0.750000
vt 0.532408 0.500000
vt 0.532407 0.750000
vt 0.523148 0.500000
vt 0.523148 0.750000
vt 0.513889 0.500000
vt 0.513889 0.750000
vt 0.504630 0.500000
vt 0.504630 0.750000
vt 0.495370 0.500000
vt 0.495370 0.750000
vt 0.569445 0.500000
vt 0.569445 0.750000
vt 0.587963 0.500000
vt 0.597222 0.500000
vt 0.597222 0.750000
vt 0.587963 0.750000
vt 0.578704 0.500000
vt 0.578704 0.750000
vt 0.606482 0.500000
vt 0.615741 0.500000
vt 0.615741 0.750000
vt 0.606482 0.750000
vt 0.625000 0.500000
vt 0.625000 0.750000
vt 0.467593 0.500000
vt 0.467593 0.750000
vt 0.476852 0.500000
vt 0.476852 0.750000
vt 0.717593 0.500000
vt 0.717593 0.750000
vt 0.439815 0.500000
vt 0.439815 0.750000
vt 0.689815 0.500000
vt 0.699074 0.500000
vt 0.699074 0.750000
vt 0.689815 0.750000
vt 0.708333 0.500000
vt 0.708333 0.750000
vt 0.634259 0.500000
vt 0.643519 0.500000
vt 0.643519 0.750000
vt 0.634259 0.750000
vt 0.421296 0.500000
vt 0.430556 0.500000
vt 0.430556 0.750000
vt 0.421296 0.750000
vt 0.412037 0.500000
vt 0.412037 0.750000
vt 0.652778 0.500000
vt 0.652778 0.750000
vt 0.402778 0.500000
vt 0.402778 0.750000
vt 0.384259 0.500000
vt 0.393519 0.500000
vt 0.393519 0.750000
vt 0.384259 0.750000
vt 0.865741 0.500000
vt 0.875000 0.500000
vt 0.875000 0.750000
vt 0.865741 0.750000
vt 0.680556 0.500000
vt 0.680556 0.750000
vt 0.375000 0.500000
vt 0.375000 0.750000
vt 0.486111 0.500000
vt 0.486111 0.750000
vt 0.856481 0.500000
vt 0.856481 0.750000
vt 0.847222 0.500000
vt 0.847222 0.750000
vt 0.837963 0.500000
vt 0.837963 0.750000
vt 0.828704 0.500000
vt 0.828704 0.750000
vt 0.819444 0.500000
vt 0.819445 0.750000
vt 0.810185 0.500000
vt 0.810185 0.750000
vt 0.800926 0.500000
vt 0.800926 0.750000
vt 0.791667 0.500000
vt 0.791667 0.750000
vt 0.782407 0.500000
vt 0.782408 0.750000
vt 0.773148 0.500000
vt 0.773148 0.750000
vt 0.763889 0.500000
vt 0.763889 0.750000
vt 0.754630 0.500000
vt 0.754630 0.750000
vn 0.0000 1.0000 0.0000
usemtl None
s off
f 67/1/1 66/2/1 88/3/1 87/4/1
f 53/5/1 51/6/1 8/7/1 7/8/1
f 44/9/1 43/10/1 16/11/1 15/12/1
f 66/2/1 65/13/1 90/14/1 88/3/1
f 98/15/1 97/16/1 78/17/1 77/18/1
f 45/19/1 44/9/1 15/12/1 14/20/1
f 70/21/1 67/1/1 87/4/1 86/22/1
f 72/23/1 70/21/1 86/22/1 85/24/1
f 74/25/1 72/23/1 85/24/1 84/26/1
f 75/27/1 74/25/1 84/26/1 83/28/1
f 89/29/1 75/27/1 83/28/1 82/30/1
f 65/13/1 64/31/1 92/32/1 90/14/1
f 62/33/1 61/34/1 100/35/1 96/36/1
f 63/37/1 62/33/1 96/36/1 95/38/1
f 60/39/1 59/40/1 107/41/1 102/42/1
f 61/34/1 60/39/1 102/42/1 100/35/1
f 59/40/1 58/43/1 108/44/1 107/41/1
f 97/16/1 94/45/1 79/46/1 78/17/1
f 94/45/1 93/47/1 80/48/1 79/46/1
f 46/49/1 45/19/1 14/20/1 13/50/1
f 99/51/1 98/15/1 77/18/1 76/52/1
f 49/53/1 48/54/1 11/55/1 10/56/1
f 47/57/1 46/49/1 13/50/1 12/58/1
f 57/59/1 56/60/1 5/61/1 109/62/1
f 103/63/1 101/64/1 73/65/1 71/66/1
f 104/67/1 103/63/1 71/66/1 69/68/1
f 58/43/1 57/59/1 109/62/1 108/44/1
f 56/60/1 55/69/1 6/70/1 5/61/1
f 105/71/1 104/67/1 69/68/1 68/72/1
f 55/69/1 53/5/1 7/8/1 6/70/1
f 110/73/1 106/74/1 54/75/1 52/76/1
f 48/54/1 47/57/1 12/58/1 11/55/1
f 30/77/1 2/78/1 1/79/1 29/80/1
f 51/6/1 50/81/1 9/82/1 8/7/1
f 106/74/1 105/71/1 68/72/1 54/75/1
f 50/81/1 49/53/1 10/56/1 9/82/1
f 4/83/1 110/73/1 52/76/1 3/84/1
f 101/64/1 99/51/1 76/52/1 73/65/1
f 93/47/1 91/85/1 81/86/1 80/48/1
f 91/85/1 89/29/1 82/30/1 81/86/1
f 31/87/1 30/77/1 29/80/1 28/88/1
f 32/89/1 31/87/1 28/88/1 27/90/1
f 33/91/1 32/89/1 27/90/1 26/92/1
f 34/93/1 33/91/1 26/92/1 25/94/1
f 35/95/1 34/93/1 25/94/1 24/96/1
f 36/97/1 35/95/1 24/96/1 23/98/1
f 37/99/1 36/97/1 23/98/1 22/100/1
f 38/101/1 37/99/1 22/100/1 21/102/1
f 39/103/1 38/101/1 21/102/1 20/104/1
f 40/105/1 39/103/1 20/104/1 19/106/1
f 41/107/1 40/105/1 19/106/1 18/108/1
f 42/109/1 41/107/1 18/108/1 17/110/1
f 43/10/1 42/109/1 17/110/1 16/11/1
f 64/31/1 63/37/1 95/38/1 92/32/1
