# Blender v2.83.0 OBJ File: 'RadialFill.blend'
# www.blender.org
mtllib RadialFill_000019.mtl
o Cube_Cube.001
v 1.021794 0.000000 -0.374910
v 1.960739 -0.000000 -0.718978
v -0.000000 -0.000000 1.091693
v 0.000000 0.000000 2.091693
v 0.935934 0.000000 0.558604
v 0.954761 -0.000000 0.524852
v 0.971456 0.000000 0.489904
v 0.988721 0.000000 0.455244
v 1.006566 0.000000 0.420851
v 1.018782 0.000000 0.384188
v 1.030949 0.000000 0.347489
v 1.043727 0.000000 0.310995
v 1.055494 0.000000 0.274233
v 1.062379 0.000000 0.236104
v 1.069888 0.000000 0.198114
v 1.078025 0.000000 0.160238
v 1.082823 0.000000 0.121753
v 1.085004 0.000000 0.082766
v 1.087802 0.000000 0.043825
v 1.091218 0.000000 0.004909
v 1.088606 0.000000 -0.034005
v 1.085652 0.000000 -0.072938
v 1.083315 0.000000 -0.111912
v 1.080178 0.000000 -0.150698
v 1.071881 0.000000 -0.188548
v 1.064213 0.000000 -0.226508
v 1.057172 0.000000 -0.264600
v 1.047047 0.000000 -0.301819
v 1.034114 0.000000 -0.338265
v 1.984798 -0.000000 -0.648428
v 2.008245 -0.000000 -0.577679
v 2.027633 -0.000000 -0.505856
v 2.042681 -0.000000 -0.432912
v 2.057102 -0.000000 -0.359835
v 2.070893 -0.000000 -0.286649
v 2.078211 -0.000000 -0.212824
v 2.083480 0.000000 -0.138801
v 2.088133 -0.000000 -0.064738
v 2.091208 -0.000000 0.009344
v 2.087018 0.000000 0.083423
v 2.082210 -0.000000 0.157479
v 2.076784 -0.000000 0.231487
v 2.067475 0.000000 0.305119
v 2.053524 -0.000000 0.378280
v 2.038944 -0.000000 0.451326
v 2.023740 -0.000000 0.524234
v 2.002389 0.000000 0.595544
v 1.978786 -0.000000 0.666245
v 1.954574 -0.000000 0.736741
v 1.929114 -0.000000 0.806737
v 1.896881 -0.000000 0.873867
v 0.038915 0.000000 1.088199
v 1.864067 0.000000 0.940731
v 0.077851 0.000000 1.085323
v 1.830683 -0.000000 1.007306
v 1.794087 -0.000000 1.071999
v 1.753245 -0.000000 1.134169
v 1.711873 -0.000000 1.195995
v 1.669982 -0.000000 1.257459
v 1.623288 -0.000000 1.315194
v 1.574597 0.000000 1.371358
v 1.525434 -0.000000 1.427109
v 1.475477 0.000000 1.482096
v 1.420099 0.000000 1.531661
v 1.364295 -0.000000 1.580766
v 1.308080 -0.000000 1.629395
v 1.249726 -0.000000 1.675294
v 0.116831 -0.000000 1.083064
v 0.155466 0.000000 1.079096
v 1.188216 0.000000 1.717120
v 0.193330 0.000000 1.070879
v 1.126345 -0.000000 1.758426
v 0.231305 0.000000 1.063291
v 1.064133 0.000000 1.799200
v 0.998925 -0.000000 1.834925
v 0.269415 -0.000000 1.056328
v 0.306406 -0.000000 1.045382
v 0.342875 0.000000 1.032527
v 0.379547 0.000000 1.020283
v 0.416443 0.000000 1.008642
v 0.450891 -0.000000 0.990939
v 0.485517 0.000000 0.973602
v 0.520428 0.000000 0.956836
v 0.554594 0.000000 0.938753
v 0.586528 -0.000000 0.916644
v 0.618803 -0.000000 0.895068
v 0.651439 0.000000 0.874012
v 0.681739 0.000000 0.849846
v 0.932312 0.000000 1.868238
v 0.710728 -0.000000 0.823897
v 0.865414 -0.000000 1.900978
v 0.740126 0.000000 0.798424
v 0.798159 0.000000 1.932922
v 0.727861 0.000000 1.957661
v 0.769952 0.000000 0.773411
v 0.795244 0.000000 0.743865
v 0.657338 -0.000000 1.981797
v 0.586613 -0.000000 2.005322
v 0.515046 -0.000000 2.025691
v 0.820659 0.000000 0.714413
v 0.442119 -0.000000 2.040817
v 0.846547 0.000000 0.685374
v 0.369058 -0.000000 2.055318
v 0.295884 0.000000 2.069189
v 0.222155 0.000000 2.077502
v 0.148140 -0.000000 2.082850
v 0.871393 0.000000 0.655582
v 0.892384 0.000000 0.622900
v 0.913894 0.000000 0.590580
v 0.074081 -0.000000 2.087580
vt 0.541667 0.500000
vt 0.550926 0.500000
vt 0.550926 0.750000
vt 0.541667 0.750000
vt 0.662037 0.500000
vt 0.671296 0.500000
vt 0.671296 0.750000
vt 0.662037 0.750000
vt 0.736111 0.500000
vt 0.745370 0.500000
vt 0.745371 0.750000
vt 0.736111 0.750000
vt 0.560185 0.500000
vt 0.560185 0.750000
vt 0.449074 0.500000
vt 0.458333 0.500000
vt 0.458333 0.750000
vt 0.449074 0.750000
vt 0.726852 0.500000
vt 0.726852 0.750000
vt 0.532408 0.500000
vt 0.532407 0.750000
vt 0.523148 0.500000
vt 0.523148 0.750000
vt 0.513889 0.500000
vt 0.513889 0.750000
vt 0.504630 0.500000
vt 0.504630 0.750000
vt 0.495370 0.500000
vt 0.495370 0.750000
vt 0.569445 0.500000
vt 0.569445 0.750000
vt 0.587963 0.500000
vt 0.597222 0.500000
vt 0.597222 0.750000
vt 0.587963 0.750000
vt 0.578704 0.500000
vt 0.578704 0.750000
vt 0.606482 0.500000
vt 0.615741 0.500000
vt 0.615741 0.750000
vt 0.606482 0.750000
vt 0.625000 0.500000
vt 0.625000 0.750000
vt 0.467593 0.500000
vt 0.467593 0.750000
vt 0.476852 0.500000
vt 0.476852 0.750000
vt 0.717593 0.500000
vt 0.717593 0.750000
vt 0.439815 0.500000
vt 0.439815 0.750000
vt 0.689815 0.500000
vt 0.699074 0.500000
vt 0.699074 0.750000
vt 0.689815 0.750000
vt 0.708333 0.500000
vt 0.708333 0.750000
vt 0.634259 0.500000
vt 0.643519 0.500000
vt 0.643519 0.750000
vt 0.634259 0.750000
vt 0.421296 0.500000
vt 0.430556 0.500000
vt 0.430556 0.750000
vt 0.421296 0.750000
vt 0.412037 0.500000
vt 0.412037 0.750000
vt 0.652778 0.500000
vt 0.652778 0.750000
vt 0.402778 0.500000
vt 0.402778 0.750000
vt 0.384259 0.500000
vt 0.393519 0.500000
vt 0.393519 0.750000
vt 0.384259 0.750000
vt 0.865741 0.500000
vt 0.875000 0.500000
vt 0.875000 0.750000
vt 0.865741 0.750000
vt 0.680556 0.500000
vt 0.680556 0.750000
vt 0.375000 0.500000
vt 0.375000 0.750000
vt 0.486111 0.500000
vt 0.486111 0.750000
vt 0.856481 0.500000
vt 0.856481 0.750000
vt 0.847222 0.500000
vt 0.847222 0.750000
vt 0.837963 0.500000
vt 0.837963 0.750000
vt 0.828704 0.500000
vt 0.828704 0.750000
vt 0.819444 0.500000
vt 0.819445 0.750000
vt 0.810185 0.500000
vt 0.810185 0.750000
vt 0.800926 0.500000
vt 0.800926 0.750000
vt 0.791667 0.500000
vt 0.791667 0.750000
vt 0.782407 0.500000
vt 0.782408 0.750000
vt 0.773148 0.500000
vt 0.773148 0.750000
vt 0.763889 0.500000
vt 0.763889 0.750000
vt 0.754630 0.500000
vt 0.754630 0.750000
vn 0.0000 1.0000 -0.0000
usemtl None
s off
f 67/1/1 66/2/1 88/3/1 87/4/1
f 53/5/1 51/6/1 8/7/1 7/8/1
f 44/9/1 43/10/1 16/11/1 15/12/1
f 66/2/1 65/13/1 90/14/1 88/3/1
f 98/15/1 97/16/1 78/17/1 77/18/1
f 45/19/1 44/9/1 15/12/1 14/20/1
f 70/21/1 67/1/1 87/4/1 86/22/1
f 72/23/1 70/21/1 86/22/1 85/24/1
f 74/25/1 72/23/1 85/24/1 84/26/1
f 75/27/1 74/25/1 84/26/1 83/28/1
f 89/29/1 75/27/1 83/28/1 82/30/1
f 65/13/1 64/31/1 92/32/1 90/14/1
f 62/33/1 61/34/1 100/35/1 96/36/1
f 63/37/1 62/33/1 96/36/1 95/38/1
f 60/39/1 59/40/1 107/41/1 102/42/1
f 61/34/1 60/39/1 102/42/1 100/35/1
f 59/40/1 58/43/1 108/44/1 107/41/1
f 97/16/1 94/45/1 79/46/1 78/17/1
f 94/45/1 93/47/1 80/48/1 79/46/1
f 46/49/1 45/19/1 14/20/1 13/50/1
f 99/51/1 98/15/1 77/18/1 76/52/1
f 49/53/1 48/54/1 11/55/1 10/56/1
f 47/57/1 46/49/1 13/50/1 12/58/1
f 57/59/1 56/60/1 5/61/1 109/62/1
f 103/63/1 101/64/1 73/65/1 71/66/1
f 104/67/1 103/63/1 71/66/1 69/68/1
f 58/43/1 57/59/1 109/62/1 108/44/1
f 56/60/1 55/69/1 6/70/1 5/61/1
f 105/71/1 104/67/1 69/68/1 68/72/1
f 55/69/1 53/5/1 7/8/1 6/70/1
f 110/73/1 106/74/1 54/75/1 52/76/1
f 48/54/1 47/57/1 12/58/1 11/55/1
f 30/77/1 2/78/1 1/79/1 29/80/1
f 51/6/1 50/81/1 9/82/1 8/7/1
f 106/74/1 105/71/1 68/72/1 54/75/1
f 50/81/1 49/53/1 10/56/1 9/82/1
f 4/83/1 110/73/1 52/76/1 3/84/1
f 101/64/1 99/51/1 76/52/1 73/65/1
f 93/47/1 91/85/1 81/86/1 80/48/1
f 91/85/1 89/29/1 82/30/1 81/86/1
f 31/87/1 30/77/1 29/80/1 28/88/1
f 32/89/1 31/87/1 28/88/1 27/90/1
f 33/91/1 32/89/1 27/90/1 26/92/1
f 34/93/1 33/91/1 26/92/1 25/94/1
f 35/95/1 34/93/1 25/94/1 24/96/1
f 36/97/1 35/95/1 24/96/1 23/98/1
f 37/99/1 36/97/1 23/98/1 22/100/1
f 38/101/1 37/99/1 22/100/1 21/102/1
f 39/103/1 38/101/1 21/102/1 20/104/1
f 40/105/1 39/103/1 20/104/1 19/106/1
f 41/107/1 40/105/1 19/106/1 18/108/1
f 42/109/1 41/107/1 18/108/1 17/110/1
f 43/10/1 42/109/1 17/110/1 16/11/1
f 64/31/1 63/37/1 95/38/1 92/32/1
