# Blender v2.83.0 OBJ File: 'RadialFill.blend'
# www.blender.org
mtllib RadialFill_000036.mtl
o Cube_Cube.001
v -0.605237 0.000000 -0.904044
v -1.162335 0.000000 -1.734491
v -0.000000 -0.000000 1.091693
v 0.000000 0.000000 2.091693
v 0.987895 0.000000 -0.456869
v 0.954951 0.000000 -0.524446
v 0.915424 0.000000 -0.588323
v 0.874069 0.000000 -0.651349
v 0.825476 0.000000 -0.708937
v 0.776389 0.000000 -0.766349
v 0.719645 0.000000 -0.816083
v 0.663394 0.000000 -0.866485
v 0.600109 0.000000 -0.907472
v 0.537319 0.000000 -0.948976
v 0.469534 0.000000 -0.981516
v 0.401585 0.000000 -1.013250
v 0.330333 0.000000 -1.036871
v 0.258552 0.000000 -1.058247
v 0.184763 0.000000 -1.072681
v 0.110303 0.000000 -1.083400
v 0.034683 0.000000 -1.088549
v -0.040865 0.000000 -1.088040
v -0.116499 0.000000 -1.083081
v -0.190783 0.000000 -1.071411
v -0.264613 0.000000 -1.057170
v -0.336134 0.000000 -1.034852
v -0.407453 0.000000 -1.011417
v -0.475041 0.000000 -0.978772
v -0.542918 0.000000 -0.946406
v -1.041375 0.000000 -1.813321
v -0.912158 0.000000 -1.878176
v -0.781094 0.000000 -1.938990
v -0.644310 0.000000 -1.986181
v -0.505882 0.000000 -2.027628
v -0.364150 0.000000 -2.056268
v -0.221527 0.000000 -2.077550
v -0.077795 0.000000 -2.087358
v 0.066023 0.000000 -2.088058
v 0.209768 0.000000 -2.078441
v 0.352527 0.000000 -2.058509
v 0.494301 0.000000 -2.030061
v 0.633078 0.000000 -1.989943
v 0.769930 0.000000 -1.942938
v 0.901533 0.000000 -1.883390
v 1.030842 0.000000 -1.818709
v 1.152505 0.000000 -1.741054
v 1.271991 0.000000 -1.659965
v 1.381350 0.000000 -1.565847
v 1.488070 0.000000 -1.468853
v 1.583764 0.000000 -1.360856
v 1.675409 -0.000000 -1.249559
v 0.075567 0.000000 1.085475
v 1.756131 0.000000 -1.129813
v 0.151032 0.000000 1.080102
v 1.831073 -0.000000 -1.006536
v 1.895349 0.000000 -0.877020
v 1.951979 -0.000000 -0.744179
v 1.998552 -0.000000 -0.607176
v 2.035607 -0.000000 -0.467596
v 2.063609 -0.000000 -0.325734
v 2.080432 -0.000000 -0.182668
v 2.089611 -0.000000 -0.038898
v 2.085686 -0.000000 0.104916
v 2.075440 -0.000000 0.248614
v 2.051048 0.000000 0.390918
v 2.021963 -0.000000 0.532554
v 1.977456 -0.000000 0.670170
v 0.224615 -0.000000 1.064580
v 0.297878 -0.000000 1.048487
v 1.929211 -0.000000 0.806531
v 0.368772 -0.000000 1.023810
v 1.866108 -0.000000 0.936614
v 0.438772 -0.000000 0.997178
v 1.798965 -0.000000 1.064495
v 1.719316 -0.000000 1.184956
v 0.506060 -0.000000 0.963650
v 0.571504 -0.000000 0.926949
v 0.634168 -0.000000 0.885062
v 0.693679 0.000000 0.839056
v 0.750662 -0.000000 0.789495
v 0.802724 -0.000000 0.735095
v 0.852769 0.000000 0.678532
v 0.896195 0.000000 0.617089
v 0.938623 0.000000 0.554779
v 0.972504 0.000000 0.487758
v 1.006622 0.000000 0.420747
v 1.030257 0.000000 0.349524
v 1.054747 0.000000 0.278599
v 1.634786 0.000000 1.301789
v 1.068544 0.000000 0.204673
v 1.540048 0.000000 1.410636
v 1.082406 0.000000 0.130789
v 1.439803 -0.000000 1.514122
v 1.331377 -0.000000 1.609343
v 1.086927 0.000000 0.055121
v 1.089781 0.000000 -0.020431
v 1.217307 -0.000000 1.697434
v 1.097199 -0.000000 1.777623
v 0.971615 0.000000 1.848669
v 1.084193 0.000000 -0.096026
v 0.841810 -0.000000 1.912361
v 1.075669 0.000000 -0.170894
v 0.707204 -0.000000 1.964801
v 0.569995 0.000000 2.010751
v 0.429275 0.000000 2.043414
v 0.287295 0.000000 2.070774
v 1.060789 0.000000 -0.244594
v 1.041584 0.000000 -0.316980
v 1.017531 0.000000 -0.388080
v 0.143798 -0.000000 2.083144
vt 0.541667 0.500000
vt 0.550926 0.500000
vt 0.550926 0.750000
vt 0.541667 0.750000
vt 0.662037 0.500000
vt 0.671296 0.500000
vt 0.671296 0.750000
vt 0.662037 0.750000
vt 0.736111 0.500000
vt 0.745370 0.500000
vt 0.745371 0.750000
vt 0.736111 0.750000
vt 0.560185 0.500000
vt 0.560185 0.750000
vt 0.449074 0.500000
vt 0.458333 0.500000
vt 0.458333 0.750000
vt 0.449074 0.750000
vt 0.726852 0.500000
vt 0.726852 0.750000
vt 0.532408 0.500000
vt 0.532407 0.750000
vt 0.523148 0.500000
vt 0.523148 0.750000
vt 0.513889 0.500000
vt 0.513889 0.750000
vt 0.504630 0.500000
vt 0.504630 0.750000
vt 0.495370 0.500000
vt 0.495370 0.750000
vt 0.569445 0.500000
vt 0.569445 0.750000
vt 0.587963 0.500000
vt 0.597222 0.500000
vt 0.597222 0.750000
vt 0.587963 0.750000
vt 0.578704 0.500000
vt 0.578704 0.750000
vt 0.606482 0.500000
vt 0.615741 0.500000
vt 0.615741 0.750000
vt 0.606482 0.750000
vt 0.625000 0.500000
vt 0.625000 0.750000
vt 0.467593 0.500000
vt 0.467593 0.750000
vt 0.476852 0.500000
vt 0.476852 0.750000
vt 0.717593 0.500000
vt 0.717593 0.750000
vt 0.439815 0.500000
vt 0.439815 0.750000
vt 0.689815 0.500000
vt 0.699074 0.500000
vt 0.699074 0.750000
vt 0.689815 0.750000
vt 0.708333 0.500000
vt 0.708333 0.750000
vt 0.634259 0.500000
vt 0.643519 0.500000
vt 0.643519 0.750000
vt 0.634259 0.750000
vt 0.421296 0.500000
vt 0.430556 0.500000
vt 0.430556 0.750000
vt 0.421296 0.750000
vt 0.412037 0.500000
vt 0.412037 0.750000
vt 0.652778 0.500000
vt 0.652778 0.750000
vt 0.402778 0.500000
vt 0.402778 0.750000
vt 0.384259 0.500000
vt 0.393519 0.500000
vt 0.393519 0.750000
vt 0.384259 0.750000
vt 0.865741 0.500000
vt 0.875000 0.500000
vt 0.875000 0.750000
vt 0.865741 0.750000
vt 0.680556 0.500000
vt 0.680556 0.750000
vt 0.375000 0.500000
vt 0.375000 0.750000
vt 0.486111 0.500000
vt 0.486111 0.750000
vt 0.856481 0.500000
vt 0.856481 0.750000
vt 0.847222 0.500000
vt 0.847222 0.750000
vt 0.837963 0.500000
vt 0.837963 0.750000
vt 0.828704 0.500000
vt 0.828704 0.750000
vt 0.819444 0.500000
vt 0.819445 0.750000
vt 0.810185 0.500000
vt 0.810185 0.750000
vt 0.800926 0.500000
vt 0.800926 0.750000
vt 0.791667 0.500000
vt 0.791667 0.750000
vt 0.782407 0.500000
vt 0.782408 0.750000
vt 0.773148 0.500000
vt 0.773148 0.750000
vt 0.763889 0.500000
vt 0.763889 0.750000
vt 0.754630 0.500000
vt 0.754630 0.750000
vn 0.0000 1.0000 -0.0000
usemtl None
s off
f 67/1/1 66/2/1 88/3/1 87/4/1
f 53/5/1 51/6/1 8/7/1 7/8/1
f 44/9/1 43/10/1 16/11/1 15/12/1
f 66/2/1 65/13/1 90/14/1 88/3/1
f 98/15/1 97/16/1 78/17/1 77/18/1
f 45/19/1 44/9/1 15/12/1 14/20/1
f 70/21/1 67/1/1 87/4/1 86/22/1
f 72/23/1 70/21/1 86/22/1 85/24/1
f 74/25/1 72/23/1 85/24/1 84/26/1
f 75/27/1 74/25/1 84/26/1 83/28/1
f 89/29/1 75/27/1 83/28/1 82/30/1
f 65/13/1 64/31/1 92/32/1 90/14/1
f 62/33/1 61/34/1 100/35/1 96/36/1
f 63/37/1 62/33/1 96/36/1 95/38/1
f 60/39/1 59/40/1 107/41/1 102/42/1
f 61/34/1 60/39/1 102/42/1 100/35/1
f 59/40/1 58/43/1 108/44/1 107/41/1
f 97/16/1 94/45/1 79/46/1 78/17/1
f 94/45/1 93/47/1 80/48/1 79/46/1
f 46/49/1 45/19/1 14/20/1 13/50/1
f 99/51/1 98/15/1 77/18/1 76/52/1
f 49/53/1 48/54/1 11/55/1 10/56/1
f 47/57/1 46/49/1 13/50/1 12/58/1
f 57/59/1 56/60/1 5/61/1 109/62/1
f 103/63/1 101/64/1 73/65/1 71/66/1
f 104/67/1 103/63/1 71/66/1 69/68/1
f 58/43/1 57/59/1 109/62/1 108/44/1
f 56/60/1 55/69/1 6/70/1 5/61/1
f 105/71/1 104/67/1 69/68/1 68/72/1
f 55/69/1 53/5/1 7/8/1 6/70/1
f 110/73/1 106/74/1 54/75/1 52/76/1
f 48/54/1 47/57/1 12/58/1 11/55/1
f 30/77/1 2/78/1 1/79/1 29/80/1
f 51/6/1 50/81/1 9/82/1 8/7/1
f 106/74/1 105/71/1 68/72/1 54/75/1
f 50/81/1 49/53/1 10/56/1 9/82/1
f 4/83/1 110/73/1 52/76/1 3/84/1
f 101/64/1 99/51/1 76/52/1 73/65/1
f 93/47/1 91/85/1 81/86/1 80/48/1
f 91/85/1 89/29/1 82/30/1 81/86/1
f 31/87/1 30/77/1 29/80/1 28/88/1
f 32/89/1 31/87/1 28/88/1 27/90/1
f 33/91/1 32/89/1 27/90/1 26/92/1
f 34/93/1 33/91/1 26/92/1 25/94/1
f 35/95/1 34/93/1 25/94/1 24/96/1
f 36/97/1 35/95/1 24/96/1 23/98/1
f 37/99/1 36/97/1 23/98/1 22/100/1
f 38/101/1 37/99/1 22/100/1 21/102/1
f 39/103/1 38/101/1 21/102/1 20/104/1
f 40/105/1 39/103/1 20/104/1 19/106/1
f 41/107/1 40/105/1 19/106/1 18/108/1
f 42/109/1 41/107/1 18/108/1 17/110/1
f 43/10/1 42/109/1 17/110/1 16/11/1
f 64/31/1 63/37/1 95/38/1 92/32/1
