# Blender v2.83.0 OBJ File: 'RadialFill.blend'
# www.blender.org
mtllib RadialFill_000026.mtl
o Cube_Cube.001
v 0.496689 0.000000 -0.968159
v 0.953723 0.000000 -1.857608
v -0.000000 -0.000000 1.091693
v 0.000000 0.000000 2.091693
v 1.080080 0.000000 0.151128
v 1.084122 0.000000 0.097242
v 1.087852 0.000000 0.043197
v 1.090661 0.000000 -0.010802
v 1.086217 0.000000 -0.064813
v 1.082962 0.000000 -0.118894
v 1.075399 0.000000 -0.172132
v 1.064551 0.000000 -0.224768
v 1.054907 0.000000 -0.277656
v 1.037552 -0.000000 -0.328386
v 1.020391 0.000000 -0.379214
v 1.002006 0.000000 -0.429508
v 0.977604 0.000000 -0.477395
v 0.954308 0.000000 -0.525823
v 0.926716 0.000000 -0.571842
v 0.896582 0.000000 -0.616501
v 0.867451 0.000000 -0.661851
v 0.831521 0.000000 -0.702112
v 0.796107 0.000000 -0.742849
v 0.759363 0.000000 -0.782197
v 0.718303 0.000000 -0.817254
v 0.678041 0.000000 -0.853218
v 0.634546 0.000000 -0.884817
v 0.589617 0.000000 -0.914546
v 0.545348 0.000000 -0.945297
v 1.045940 0.000000 -1.810981
v 1.132311 0.000000 -1.754477
v 1.218021 0.000000 -1.696949
v 1.300823 0.000000 -1.635613
v 1.378790 0.000000 -1.568092
v 1.455958 0.000000 -1.499662
v 1.527126 0.000000 -1.425206
v 1.595197 0.000000 -1.347713
v 1.661943 -0.000000 -1.269126
v 1.720069 0.000000 -1.183837
v 1.777191 -0.000000 -1.097857
v 1.829751 0.000000 -1.009143
v 1.875944 -0.000000 -0.916695
v 1.921032 0.000000 -0.823706
v 1.957882 -0.000000 -0.727223
v 1.991202 -0.000000 -0.629306
v 2.022347 0.000000 -0.530757
v 2.043354 0.000000 -0.429568
v 2.063157 0.000000 -0.328128
v 2.077203 -0.000000 -0.226066
v 2.084502 -0.000000 -0.123351
v 2.090613 -0.000000 -0.020567
v 0.054003 0.000000 1.087011
v 2.087090 -0.000000 0.082229
v 0.108065 0.000000 1.083518
v 2.080266 0.000000 0.184979
v 2.070740 -0.000000 0.287480
v 2.051424 -0.000000 0.389005
v 2.030897 -0.000000 0.490302
v 2.004205 -0.000000 0.590018
v 1.971356 -0.000000 0.688091
v 1.937336 -0.000000 0.785757
v 1.894120 0.000000 0.879549
v 1.848366 -0.000000 0.972220
v 1.799760 -0.000000 1.063271
v 1.743048 -0.000000 1.149513
v 1.685320 0.000000 1.235085
v 1.622178 -0.000000 1.316484
v 0.161626 0.000000 1.077715
v 0.214219 0.000000 1.066624
v 1.554472 -0.000000 1.394295
v 0.267052 0.000000 1.056741
v 1.485865 -0.000000 1.471299
v 0.318263 0.000000 1.041127
v 1.409766 0.000000 1.540817
v 1.332113 0.000000 1.608707
v 0.369012 -0.000000 1.023731
v 0.419988 0.000000 1.007024
v 0.467773 -0.000000 0.982397
v 0.516088 0.000000 0.958881
v 0.562986 0.000000 0.932868
v 0.607512 -0.000000 0.902530
v 0.652720 -0.000000 0.873201
v 0.694057 0.000000 0.838716
v 0.734634 0.000000 0.803120
v 0.775289 0.000000 0.767678
v 0.810169 -0.000000 0.726452
v 0.845948 -0.000000 0.686034
v 0.878989 -0.000000 0.643619
v 1.252119 0.000000 1.673651
v 0.908518 0.000000 0.598551
v 1.166688 0.000000 1.731579
v 0.939062 -0.000000 0.554155
v 1.080576 0.000000 1.788497
v 0.990692 0.000000 1.839081
v 0.963498 0.000000 0.506377
v 0.987234 -0.000000 0.458173
v 0.898132 0.000000 1.885055
v 0.805041 0.000000 1.929918
v 0.707665 0.000000 1.964642
v 1.010655 0.000000 0.409907
v 0.609669 -0.000000 1.997727
v 1.027118 0.000000 0.358827
v 0.510536 0.000000 2.026646
v 0.409291 -0.000000 2.047413
v 0.307807 -0.000000 2.066973
v 0.205524 -0.000000 2.078758
v 1.044750 0.000000 0.308155
v 1.058623 0.000000 0.256459
v 1.068747 0.000000 0.203679
v 0.102791 -0.000000 2.085820
vt 0.541667 0.500000
vt 0.550926 0.500000
vt 0.550926 0.750000
vt 0.541667 0.750000
vt 0.662037 0.500000
vt 0.671296 0.500000
vt 0.671296 0.750000
vt 0.662037 0.750000
vt 0.736111 0.500000
vt 0.745370 0.500000
vt 0.745371 0.750000
vt 0.736111 0.750000
vt 0.560185 0.500000
vt 0.560185 0.750000
vt 0.449074 0.500000
vt 0.458333 0.500000
vt 0.458333 0.750000
vt 0.449074 0.750000
vt 0.726852 0.500000
vt 0.726852 0.750000
vt 0.532408 0.500000
vt 0.532407 0.750000
vt 0.523148 0.500000
vt 0.523148 0.750000
vt 0.513889 0.500000
vt 0.513889 0.750000
vt 0.504630 0.500000
vt 0.504630 0.750000
vt 0.495370 0.500000
vt 0.495370 0.750000
vt 0.569445 0.500000
vt 0.569445 0.750000
vt 0.587963 0.500000
vt 0.597222 0.500000
vt 0.597222 0.750000
vt 0.587963 0.750000
vt 0.578704 0.500000
vt 0.578704 0.750000
vt 0.606482 0.500000
vt 0.615741 0.500000
vt 0.615741 0.750000
vt 0.606482 0.750000
vt 0.625000 0.500000
vt 0.625000 0.750000
vt 0.467593 0.500000
vt 0.467593 0.750000
vt 0.476852 0.500000
vt 0.476852 0.750000
vt 0.717593 0.500000
vt 0.717593 0.750000
vt 0.439815 0.500000
vt 0.439815 0.750000
vt 0.689815 0.500000
vt 0.699074 0.500000
vt 0.699074 0.750000
vt 0.689815 0.750000
vt 0.708333 0.500000
vt 0.708333 0.750000
vt 0.634259 0.500000
vt 0.643519 0.500000
vt 0.643519 0.750000
vt 0.634259 0.750000
vt 0.421296 0.500000
vt 0.430556 0.500000
vt 0.430556 0.750000
vt 0.421296 0.750000
vt 0.412037 0.500000
vt 0.412037 0.750000
vt 0.652778 0.500000
vt 0.652778 0.750000
vt 0.402778 0.500000
vt 0.402778 0.750000
vt 0.384259 0.500000
vt 0.393519 0.500000
vt 0.393519 0.750000
vt 0.384259 0.750000
vt 0.865741 0.500000
vt 0.875000 0.500000
vt 0.875000 0.750000
vt 0.865741 0.750000
vt 0.680556 0.500000
vt 0.680556 0.750000
vt 0.375000 0.500000
vt 0.375000 0.750000
vt 0.486111 0.500000
vt 0.486111 0.750000
vt 0.856481 0.500000
vt 0.856481 0.750000
vt 0.847222 0.500000
vt 0.847222 0.750000
vt 0.837963 0.500000
vt 0.837963 0.750000
vt 0.828704 0.500000
vt 0.828704 0.750000
vt 0.819444 0.500000
vt 0.819445 0.750000
vt 0.810185 0.500000
vt 0.810185 0.750000
vt 0.800926 0.500000
vt 0.800926 0.750000
vt 0.791667 0.500000
vt 0.791667 0.750000
vt 0.782407 0.500000
vt 0.782408 0.750000
vt 0.773148 0.500000
vt 0.773148 0.750000
vt 0.763889 0.500000
vt 0.763889 0.750000
vt 0.754630 0.500000
vt 0.754630 0.750000
vn -0.0000 1.0000 0.0000
usemtl None
s off
f 67/1/1 66/2/1 88/3/1 87/4/1
f 53/5/1 51/6/1 8/7/1 7/8/1
f 44/9/1 43/10/1 16/11/1 15/12/1
f 66/2/1 65/13/1 90/14/1 88/3/1
f 98/15/1 97/16/1 78/17/1 77/18/1
f 45/19/1 44/9/1 15/12/1 14/20/1
f 70/21/1 67/1/1 87/4/1 86/22/1
f 72/23/1 70/21/1 86/22/1 85/24/1
f 74/25/1 72/23/1 85/24/1 84/26/1
f 75/27/1 74/25/1 84/26/1 83/28/1
f 89/29/1 75/27/1 83/28/1 82/30/1
f 65/13/1 64/31/1 92/32/1 90/14/1
f 62/33/1 61/34/1 100/35/1 96/36/1
f 63/37/1 62/33/1 96/36/1 95/38/1
f 60/39/1 59/40/1 107/41/1 102/42/1
f 61/34/1 60/39/1 102/42/1 100/35/1
f 59/40/1 58/43/1 108/44/1 107/41/1
f 97/16/1 94/45/1 79/46/1 78/17/1
f 94/45/1 93/47/1 80/48/1 79/46/1
f 46/49/1 45/19/1 14/20/1 13/50/1
f 99/51/1 98/15/1 77/18/1 76/52/1
f 49/53/1 48/54/1 11/55/1 10/56/1
f 47/57/1 46/49/1 13/50/1 12/58/1
f 57/59/1 56/60/1 5/61/1 109/62/1
f 103/63/1 101/64/1 73/65/1 71/66/1
f 104/67/1 103/63/1 71/66/1 69/68/1
f 58/43/1 57/59/1 109/62/1 108/44/1
f 56/60/1 55/69/1 6/70/1 5/61/1
f 105/71/1 104/67/1 69/68/1 68/72/1
f 55/69/1 53/5/1 7/8/1 6/70/1
f 110/73/1 106/74/1 54/75/1 52/76/1
f 48/54/1 47/57/1 12/58/1 11/55/1
f 30/77/1 2/78/1 1/79/1 29/80/1
f 51/6/1 50/81/1 9/82/1 8/7/1
f 106/74/1 105/71/1 68/72/1 54/75/1
f 50/81/1 49/53/1 10/56/1 9/82/1
f 4/83/1 110/73/1 52/76/1 3/84/1
f 101/64/1 99/51/1 76/52/1 73/65/1
f 93/47/1 91/85/1 81/86/1 80/48/1
f 91/85/1 89/29/1 82/30/1 81/86/1
f 31/87/1 30/77/1 29/80/1 28/88/1
f 32/89/1 31/87/1 28/88/1 27/90/1
f 33/91/1 32/89/1 27/90/1 26/92/1
f 34/93/1 33/91/1 26/92/1 25/94/1
f 35/95/1 34/93/1 25/94/1 24/96/1
f 36/97/1 35/95/1 24/96/1 23/98/1
f 37/99/1 36/97/1 23/98/1 22/100/1
f 38/101/1 37/99/1 22/100/1 21/102/1
f 39/103/1 38/101/1 21/102/1 20/104/1
f 40/105/1 39/103/1 20/104/1 19/106/1
f 41/107/1 40/105/1 19/106/1 18/108/1
f 42/109/1 41/107/1 18/108/1 17/110/1
f 43/10/1 42/109/1 17/110/1 16/11/1
f 64/31/1 63/37/1 95/38/1 92/32/1
