# Blender v2.83.0 OBJ File: 'RadialFill.blend'
# www.blender.org
mtllib RadialFill_000017.mtl
o Cube_Cube.001
v 1.080009 0.000000 -0.151440
v 2.070629 0.000000 -0.288086
v -0.000000 -0.000000 1.091693
v 0.000000 0.000000 2.091693
v 0.867014 0.000000 0.662548
v 0.885560 0.000000 0.633397
v 0.904512 0.000000 0.604537
v 0.923879 0.000000 0.575955
v 0.943671 0.000000 0.547638
v 0.958627 -0.000000 0.516627
v 0.973562 0.000000 0.485597
v 0.988950 0.000000 0.454792
v 1.004798 0.000000 0.424199
v 1.016322 0.000000 0.391865
v 1.027000 0.000000 0.359179
v 1.038158 0.000000 0.326661
v 1.049803 0.000000 0.294295
v 1.057823 0.000000 0.260925
v 1.064108 0.000000 0.227057
v 1.070887 0.000000 0.193294
v 1.078164 0.000000 0.159619
v 1.082649 -0.000000 0.125436
v 1.084507 0.000000 0.090759
v 1.086852 0.000000 0.056122
v 1.089685 0.000000 0.021510
v 1.090448 0.000000 -0.013093
v 1.087496 0.000000 -0.047702
v 1.085032 0.000000 -0.082331
v 1.083056 0.000000 -0.116998
v 2.077478 -0.000000 -0.222470
v 2.082266 -0.000000 -0.156654
v 2.086566 0.000000 -0.090802
v 2.090378 -0.000000 -0.024929
v 2.089496 -0.000000 0.040950
v 2.085566 -0.000000 0.106820
v 2.081147 0.000000 0.172665
v 2.076241 -0.000000 0.238470
v 2.067697 -0.000000 0.303922
v 2.055332 -0.000000 0.368987
v 2.042468 -0.000000 0.433964
v 2.029110 -0.000000 0.498835
v 2.013024 0.000000 0.563005
v 1.992317 -0.000000 0.625962
v 1.971124 -0.000000 0.688767
v 1.949451 -0.000000 0.751405
v 1.925991 -0.000000 0.813304
v 1.897306 -0.000000 0.872991
v 1.868162 -0.000000 0.932466
v 1.838565 0.000000 0.991716
v 1.808065 -0.000000 1.050454
v 1.771939 -0.000000 1.105856
v 0.034604 0.000000 1.088555
v 1.735388 -0.000000 1.160994
v 0.069224 -0.000000 1.085907
v 1.698422 -0.000000 1.215854
v 1.661049 -0.000000 1.270422
v 1.618395 -0.000000 1.320881
v 1.575077 0.000000 1.370808
v 1.531385 -0.000000 1.420410
v 1.487329 0.000000 1.469674
v 1.439090 0.000000 1.514758
v 1.389615 0.000000 1.558589
v 1.339810 0.000000 1.602049
v 1.289685 0.000000 1.645129
v 1.236536 -0.000000 1.684328
v 1.181785 0.000000 1.721449
v 1.126751 -0.000000 1.758158
v 0.103874 -0.000000 1.083747
v 0.138571 -0.000000 1.082073
v 1.071447 0.000000 1.794446
v 0.172351 0.000000 1.075351
v 1.014073 0.000000 1.827250
v 0.206057 -0.000000 1.068263
v 0.954912 0.000000 1.857015
v 0.895521 -0.000000 1.886332
v 0.239858 0.000000 1.061671
v 0.273770 -0.000000 1.055573
v 0.306525 0.000000 1.045339
v 0.338946 0.000000 1.033879
v 0.371526 0.000000 1.022903
v 0.404279 0.000000 1.012406
v 0.435751 0.000000 0.998747
v 0.466422 0.000000 0.983074
v 0.497311 -0.000000 0.967858
v 0.528431 0.000000 0.953092
v 0.558322 0.000000 0.936131
v 0.586738 0.000000 0.916501
v 0.615424 -0.000000 0.897292
v 0.835912 -0.000000 1.915192
v 0.644393 -0.000000 0.878495
v 0.775059 -0.000000 1.941127
v 0.672383 0.000000 0.858403
v 0.712489 0.000000 1.962980
v 0.649746 -0.000000 1.984355
v 0.698026 0.000000 0.835163
v 0.723988 0.000000 0.812305
v 0.586844 -0.000000 2.005246
v 0.523352 0.000000 2.023927
v 0.458524 -0.000000 2.037472
v 0.750280 0.000000 0.789817
v 0.393585 0.000000 2.050523
v 0.776020 -0.000000 0.766795
v 0.328551 -0.000000 2.063076
v 0.263356 -0.000000 2.074257
v 0.197570 0.000000 2.079347
v 0.131739 0.000000 2.083951
v 0.798283 0.000000 0.740292
v 0.820910 -0.000000 0.714126
v 0.843911 0.000000 0.688286
v 0.065877 -0.000000 2.088066
vt 0.541667 0.500000
vt 0.550926 0.500000
vt 0.550926 0.750000
vt 0.541667 0.750000
vt 0.662037 0.500000
vt 0.671296 0.500000
vt 0.671296 0.750000
vt 0.662037 0.750000
vt 0.736111 0.500000
vt 0.745370 0.500000
vt 0.745371 0.750000
vt 0.736111 0.750000
vt 0.560185 0.500000
vt 0.560185 0.750000
vt 0.449074 0.500000
vt 0.458333 0.500000
vt 0.458333 0.750000
vt 0.449074 0.750000
vt 0.726852 0.500000
vt 0.726852 0.750000
vt 0.532408 0.500000
vt 0.532407 0.750000
vt 0.523148 0.500000
vt 0.523148 0.750000
vt 0.513889 0.500000
vt 0.513889 0.750000
vt 0.504630 0.500000
vt 0.504630 0.750000
vt 0.495370 0.500000
vt 0.495370 0.750000
vt 0.569445 0.500000
vt 0.569445 0.750000
vt 0.587963 0.500000
vt 0.597222 0.500000
vt 0.597222 0.750000
vt 0.587963 0.750000
vt 0.578704 0.500000
vt 0.578704 0.750000
vt 0.606482 0.500000
vt 0.615741 0.500000
vt 0.615741 0.750000
vt 0.606482 0.750000
vt 0.625000 0.500000
vt 0.625000 0.750000
vt 0.467593 0.500000
vt 0.467593 0.750000
vt 0.476852 0.500000
vt 0.476852 0.750000
vt 0.717593 0.500000
vt 0.717593 0.750000
vt 0.439815 0.500000
vt 0.439815 0.750000
vt 0.689815 0.500000
vt 0.699074 0.500000
vt 0.699074 0.750000
vt 0.689815 0.750000
vt 0.708333 0.500000
vt 0.708333 0.750000
vt 0.634259 0.500000
vt 0.643519 0.500000
vt 0.643519 0.750000
vt 0.634259 0.750000
vt 0.421296 0.500000
vt 0.430556 0.500000
vt 0.430556 0.750000
vt 0.421296 0.750000
vt 0.412037 0.500000
vt 0.412037 0.750000
vt 0.652778 0.500000
vt 0.652778 0.750000
vt 0.402778 0.500000
vt 0.402778 0.750000
vt 0.384259 0.500000
vt 0.393519 0.500000
vt 0.393519 0.750000
vt 0.384259 0.750000
vt 0.865741 0.500000
vt 0.875000 0.500000
vt 0.875000 0.750000
vt 0.865741 0.750000
vt 0.680556 0.500000
vt 0.680556 0.750000
vt 0.375000 0.500000
vt 0.375000 0.750000
vt 0.486111 0.500000
vt 0.486111 0.750000
vt 0.856481 0.500000
vt 0.856481 0.750000
vt 0.847222 0.500000
vt 0.847222 0.750000
vt 0.837963 0.500000
vt 0.837963 0.750000
vt 0.828704 0.500000
vt 0.828704 0.750000
vt 0.819444 0.500000
vt 0.819445 0.750000
vt 0.810185 0.500000
vt 0.810185 0.750000
vt 0.800926 0.500000
vt 0.800926 0.750000
vt 0.791667 0.500000
vt 0.791667 0.750000
vt 0.782407 0.500000
vt 0.782408 0.750000
vt 0.773148 0.500000
vt 0.773148 0.750000
vt 0.763889 0.500000
vt 0.763889 0.750000
vt 0.754630 0.500000
vt 0.754630 0.750000
vn 0.0000 1.0000 -0.0000
usemtl None
s off
f 67/1/1 66/2/1 88/3/1 87/4/1
f 53/5/1 51/6/1 8/7/1 7/8/1
f 44/9/1 43/10/1 16/11/1 15/12/1
f 66/2/1 65/13/1 90/14/1 88/3/1
f 98/15/1 97/16/1 78/17/1 77/18/1
f 45/19/1 44/9/1 15/12/1 14/20/1
f 70/21/1 67/1/1 87/4/1 86/22/1
f 72/23/1 70/21/1 86/22/1 85/24/1
f 74/25/1 72/23/1 85/24/1 84/26/1
f 75/27/1 74/25/1 84/26/1 83/28/1
f 89/29/1 75/27/1 83/28/1 82/30/1
f 65/13/1 64/31/1 92/32/1 90/14/1
f 62/33/1 61/34/1 100/35/1 96/36/1
f 63/37/1 62/33/1 96/36/1 95/38/1
f 60/39/1 59/40/1 107/41/1 102/42/1
f 61/34/1 60/39/1 102/42/1 100/35/1
f 59/40/1 58/43/1 108/44/1 107/41/1
f 97/16/1 94/45/1 79/46/1 78/17/1
f 94/45/1 93/47/1 80/48/1 79/46/1
f 46/49/1 45/19/1 14/20/1 13/50/1
f 99/51/1 98/15/1 77/18/1 76/52/1
f 49/53/1 48/54/1 11/55/1 10/56/1
f 47/57/1 46/49/1 13/50/1 12/58/1
f 57/59/1 56/60/1 5/61/1 109/62/1
f 103/63/1 101/64/1 73/65/1 71/66/1
f 104/67/1 103/63/1 71/66/1 69/68/1
f 58/43/1 57/59/1 109/62/1 108/44/1
f 56/60/1 55/69/1 6/70/1 5/61/1
f 105/71/1 104/67/1 69/68/1 68/72/1
f 55/69/1 53/5/1 7/8/1 6/70/1
f 110/73/1 106/74/1 54/75/1 52/76/1
f 48/54/1 47/57/1 12/58/1 11/55/1
f 30/77/1 2/78/1 1/79/1 29/80/1
f 51/6/1 50/81/1 9/82/1 8/7/1
f 106/74/1 105/71/1 68/72/1 54/75/1
f 50/81/1 49/53/1 10/56/1 9/82/1
f 4/83/1 110/73/1 52/76/1 3/84/1
f 101/64/1 99/51/1 76/52/1 73/65/1
f 93/47/1 91/85/1 81/86/1 80/48/1
f 91/85/1 89/29/1 82/30/1 81/86/1
f 31/87/1 30/77/1 29/80/1 28/88/1
f 32/89/1 31/87/1 28/88/1 27/90/1
f 33/91/1 32/89/1 27/90/1 26/92/1
f 34/93/1 33/91/1 26/92/1 25/94/1
f 35/95/1 34/93/1 25/94/1 24/96/1
f 36/97/1 35/95/1 24/96/1 23/98/1
f 37/99/1 36/97/1 23/98/1 22/100/1
f 38/101/1 37/99/1 22/100/1 21/102/1
f 39/103/1 38/101/1 21/102/1 20/104/1
f 40/105/1 39/103/1 20/104/1 19/106/1
f 41/107/1 40/105/1 19/106/1 18/108/1
f 42/109/1 41/107/1 18/108/1 17/110/1
f 43/10/1 42/109/1 17/110/1 16/11/1
f 64/31/1 63/37/1 95/38/1 92/32/1
