# Blender v2.83.0 OBJ File: 'RadialFill.blend'
# www.blender.org
mtllib RadialFill_000044.mtl
o Cube_Cube.001
v -1.081968 0.000000 -0.141171
v -2.073856 0.000000 -0.268279
v -0.000000 -0.000000 1.091693
v 0.000000 0.000000 2.091693
v 0.684799 0.000000 -0.847067
v 0.609791 -0.000000 -0.901017
v 0.532279 0.000000 -0.951305
v 0.449276 0.000000 -0.991766
v 0.363709 0.000000 -1.025488
v 0.276462 0.000000 -1.055112
v 0.185753 0.000000 -1.072471
v 0.094052 0.000000 -1.084309
v 0.001223 0.000000 -1.091574
v -0.091603 0.000000 -1.084456
v -0.183373 0.000000 -1.072976
v -0.274061 0.000000 -1.055523
v -0.361404 0.000000 -1.026255
v -0.447111 0.000000 -0.992876
v -0.530070 0.000000 -0.952329
v -0.607759 0.000000 -0.902366
v -0.682988 -0.000000 -0.848711
v -0.752831 0.000000 -0.787669
v -0.815847 0.000000 -0.719916
v -0.875475 0.000000 -0.649133
v -0.926629 0.000000 -0.571969
v -0.970864 0.000000 -0.491118
v -1.011190 0.000000 -0.408183
v -1.040265 0.000000 -0.320690
v -1.063233 0.000000 -0.231607
v -2.040699 -0.000000 -0.442699
v -1.996166 0.000000 -0.614382
v -1.938499 -0.000000 -0.782479
v -1.862913 0.000000 -0.943057
v -1.777031 0.000000 -1.098101
v -1.678251 0.000000 -1.245414
v -1.565396 0.000000 -1.381865
v -1.443841 0.000000 -1.510514
v -1.310529 0.000000 -1.627294
v -1.167162 0.000000 -1.731262
v -1.017172 0.000000 -1.825674
v -0.858063 0.000000 -1.904533
v -0.693050 0.000000 -1.969660
v -0.523909 0.000000 -2.023809
v -0.349846 0.000000 -2.059022
v -0.174270 0.000000 -2.081033
v 0.002327 0.000000 -2.091573
v 0.178919 0.000000 -2.080702
v 0.354439 0.000000 -2.058141
v 0.528482 0.000000 -2.022833
v 0.697479 0.000000 -1.968143
v 0.862274 0.000000 -1.902498
v 0.092827 0.000000 1.084382
v 1.021340 0.000000 -1.823554
v 0.184562 -0.000000 1.072724
v 1.171043 0.000000 -1.728662
v 1.314070 0.000000 -1.624253
v 1.447320 0.000000 -1.507403
v 1.568472 0.000000 -1.378355
v 1.680891 -0.000000 -1.241560
v 1.779592 0.000000 -1.094195
v 1.864992 -0.000000 -0.938867
v 1.940062 0.000000 -0.778068
v 1.997638 -0.000000 -0.609938
v 2.041628 0.000000 -0.438116
v 2.074234 -0.000000 -0.263638
v 2.086791 -0.000000 -0.087152
v 2.086648 -0.000000 0.089479
v 0.275261 -0.000000 1.055317
v 0.362556 -0.000000 1.025872
v 2.074045 -0.000000 0.265961
v 0.448193 -0.000000 0.992321
v 2.041164 -0.000000 0.440410
v 0.531173 0.000000 0.951817
v 1.996902 -0.000000 0.612161
v 1.939280 -0.000000 0.780276
v 0.608774 0.000000 0.901691
v 0.683893 0.000000 0.847889
v 0.753766 -0.000000 0.786884
v 0.816649 0.000000 0.718996
v 0.876130 -0.000000 0.648104
v 0.927322 0.000000 0.570966
v 0.971396 0.000000 0.490026
v 1.011550 0.000000 0.407023
v 1.040671 0.000000 0.319547
v 1.063462 0.000000 0.230415
v 1.082017 0.000000 0.139947
v 1.087550 0.000000 0.047007
v 1.087646 0.000000 -0.045783
v 1.863951 -0.000000 0.940964
v 1.082067 0.000000 -0.138719
v 1.778311 0.000000 1.096151
v 1.063691 0.000000 -0.229219
v 1.679570 -0.000000 1.243490
v 1.566933 -0.000000 1.380112
v 1.041078 -0.000000 -0.318401
v 1.011912 0.000000 -0.405862
v 1.445578 -0.000000 1.508961
v 1.312298 -0.000000 1.625776
v 1.169100 -0.000000 1.729964
v 0.971930 0.000000 -0.488932
v 1.019253 0.000000 1.824616
v 0.928017 0.000000 -0.569962
v 0.860166 -0.000000 1.903516
v 0.695262 0.000000 1.968902
v 0.526194 -0.000000 2.023322
v 0.352141 0.000000 2.058582
v 0.876785 0.000000 -0.647074
v 0.817453 0.000000 -0.718075
v 0.754703 0.000000 -0.786097
v 0.176594 -0.000000 2.080868
vt 0.541667 0.500000
vt 0.550926 0.500000
vt 0.550926 0.750000
vt 0.541667 0.750000
vt 0.662037 0.500000
vt 0.671296 0.500000
vt 0.671296 0.750000
vt 0.662037 0.750000
vt 0.736111 0.500000
vt 0.745370 0.500000
vt 0.745371 0.750000
vt 0.736111 0.750000
vt 0.560185 0.500000
vt 0.560185 0.750000
vt 0.449074 0.500000
vt 0.458333 0.500000
vt 0.458333 0.750000
vt 0.449074 0.750000
vt 0.726852 0.500000
vt 0.726852 0.750000
vt 0.532408 0.500000
vt 0.532407 0.750000
vt 0.523148 0.500000
vt 0.523148 0.750000
vt 0.513889 0.500000
vt 0.513889 0.750000
vt 0.504630 0.500000
vt 0.504630 0.750000
vt 0.495370 0.500000
vt 0.495370 0.750000
vt 0.569445 0.500000
vt 0.569445 0.750000
vt 0.587963 0.500000
vt 0.597222 0.500000
vt 0.597222 0.750000
vt 0.587963 0.750000
vt 0.578704 0.500000
vt 0.578704 0.750000
vt 0.606482 0.500000
vt 0.615741 0.500000
vt 0.615741 0.750000
vt 0.606482 0.750000
vt 0.625000 0.500000
vt 0.625000 0.750000
vt 0.467593 0.500000
vt 0.467593 0.750000
vt 0.476852 0.500000
vt 0.476852 0.750000
vt 0.717593 0.500000
vt 0.717593 0.750000
vt 0.439815 0.500000
vt 0.439815 0.750000
vt 0.689815 0.500000
vt 0.699074 0.500000
vt 0.699074 0.750000
vt 0.689815 0.750000
vt 0.708333 0.500000
vt 0.708333 0.750000
vt 0.634259 0.500000
vt 0.643519 0.500000
vt 0.643519 0.750000
vt 0.634259 0.750000
vt 0.421296 0.500000
vt 0.430556 0.500000
vt 0.430556 0.750000
vt 0.421296 0.750000
vt 0.412037 0.500000
vt 0.412037 0.750000
vt 0.652778 0.500000
vt 0.652778 0.750000
vt 0.402778 0.500000
vt 0.402778 0.750000
vt 0.384259 0.500000
vt 0.393519 0.500000
vt 0.393519 0.750000
vt 0.384259 0.750000
vt 0.865741 0.500000
vt 0.875000 0.500000
vt 0.875000 0.750000
vt 0.865741 0.750000
vt 0.680556 0.500000
vt 0.680556 0.750000
vt 0.375000 0.500000
vt 0.375000 0.750000
vt 0.486111 0.500000
vt 0.486111 0.750000
vt 0.856481 0.500000
vt 0.856481 0.750000
vt 0.847222 0.500000
vt 0.847222 0.750000
vt 0.837963 0.500000
vt 0.837963 0.750000
vt 0.828704 0.500000
vt 0.828704 0.750000
vt 0.819444 0.500000
vt 0.819445 0.750000
vt 0.810185 0.500000
vt 0.810185 0.750000
vt 0.800926 0.500000
vt 0.800926 0.750000
vt 0.791667 0.500000
vt 0.791667 0.750000
vt 0.782407 0.500000
vt 0.782408 0.750000
vt 0.773148 0.500000
vt 0.773148 0.750000
vt 0.763889 0.500000
vt 0.763889 0.750000
vt 0.754630 0.500000
vt 0.754630 0.750000
vn 0.0000 1.0000 0.0000
usemtl None
s off
f 67/1/1 66/2/1 88/3/1 87/4/1
f 53/5/1 51/6/1 8/7/1 7/8/1
f 44/9/1 43/10/1 16/11/1 15/12/1
f 66/2/1 65/13/1 90/14/1 88/3/1
f 98/15/1 97/16/1 78/17/1 77/18/1
f 45/19/1 44/9/1 15/12/1 14/20/1
f 70/21/1 67/1/1 87/4/1 86/22/1
f 72/23/1 70/21/1 86/22/1 85/24/1
f 74/25/1 72/23/1 85/24/1 84/26/1
f 75/27/1 74/25/1 84/26/1 83/28/1
f 89/29/1 75/27/1 83/28/1 82/30/1
f 65/13/1 64/31/1 92/32/1 90/14/1
f 62/33/1 61/34/1 100/35/1 96/36/1
f 63/37/1 62/33/1 96/36/1 95/38/1
f 60/39/1 59/40/1 107/41/1 102/42/1
f 61/34/1 60/39/1 102/42/1 100/35/1
f 59/40/1 58/43/1 108/44/1 107/41/1
f 97/16/1 94/45/1 79/46/1 78/17/1
f 94/45/1 93/47/1 80/48/1 79/46/1
f 46/49/1 45/19/1 14/20/1 13/50/1
f 99/51/1 98/15/1 77/18/1 76/52/1
f 49/53/1 48/54/1 11/55/1 10/56/1
f 47/57/1 46/49/1 13/50/1 12/58/1
f 57/59/1 56/60/1 5/61/1 109/62/1
f 103/63/1 101/64/1 73/65/1 71/66/1
f 104/67/1 103/63/1 71/66/1 69/68/1
f 58/43/1 57/59/1 109/62/1 108/44/1
f 56/60/1 55/69/1 6/70/1 5/61/1
f 105/71/1 104/67/1 69/68/1 68/72/1
f 55/69/1 53/5/1 7/8/1 6/70/1
f 110/73/1 106/74/1 54/75/1 52/76/1
f 48/54/1 47/57/1 12/58/1 11/55/1
f 30/77/1 2/78/1 1/79/1 29/80/1
f 51/6/1 50/81/1 9/82/1 8/7/1
f 106/74/1 105/71/1 68/72/1 54/75/1
f 50/81/1 49/53/1 10/56/1 9/82/1
f 4/83/1 110/73/1 52/76/1 3/84/1
f 101/64/1 99/51/1 76/52/1 73/65/1
f 93/47/1 91/85/1 81/86/1 80/48/1
f 91/85/1 89/29/1 82/30/1 81/86/1
f 31/87/1 30/77/1 29/80/1 28/88/1
f 32/89/1 31/87/1 28/88/1 27/90/1
f 33/91/1 32/89/1 27/90/1 26/92/1
f 34/93/1 33/91/1 26/92/1 25/94/1
f 35/95/1 34/93/1 25/94/1 24/96/1
f 36/97/1 35/95/1 24/96/1 23/98/1
f 37/99/1 36/97/1 23/98/1 22/100/1
f 38/101/1 37/99/1 22/100/1 21/102/1
f 39/103/1 38/101/1 21/102/1 20/104/1
f 40/105/1 39/103/1 20/104/1 19/106/1
f 41/107/1 40/105/1 19/106/1 18/108/1
f 42/109/1 41/107/1 18/108/1 17/110/1
f 43/10/1 42/109/1 17/110/1 16/11/1
f 64/31/1 63/37/1 95/38/1 92/32/1
