# Blender v2.83.0 OBJ File: 'RadialFill.blend'
# www.blender.org
mtllib RadialFill_000007.mtl
o Cube_Cube.001
v 0.655306 -0.000000 0.871567
v 1.256944 0.000000 1.670336
v -0.000000 -0.000000 1.091693
v 0.000000 0.000000 2.091693
v 0.369621 -0.000000 1.023530
v 0.381953 0.000000 1.019503
v 0.394312 -0.000000 1.015544
v 0.406696 -0.000000 1.011652
v 0.418995 0.000000 1.007550
v 0.430501 -0.000000 1.001486
v 0.442035 0.000000 0.995489
v 0.453599 0.000000 0.989558
v 0.465193 0.000000 0.983691
v 0.476817 -0.000000 0.977890
v 0.488474 0.000000 0.972154
v 0.500162 0.000000 0.966482
v 0.511884 0.000000 0.960873
v 0.523639 -0.000000 0.955329
v 0.535429 -0.000000 0.949847
v 0.547061 0.000000 0.944081
v 0.557712 0.000000 0.936559
v 0.568401 -0.000000 0.929099
v 0.579126 0.000000 0.921700
v 0.589889 0.000000 0.914361
v 0.600691 0.000000 0.907082
v 0.611533 -0.000000 0.899862
v 0.622414 0.000000 0.892701
v 0.633336 0.000000 0.885599
v 0.644300 0.000000 0.878554
v 1.236362 -0.000000 1.684446
v 1.215739 -0.000000 1.698500
v 1.195073 -0.000000 1.712495
v 1.174368 0.000000 1.726432
v 1.153622 -0.000000 1.740309
v 1.132836 -0.000000 1.754128
v 1.112013 0.000000 1.767887
v 1.091150 -0.000000 1.781586
v 1.070251 -0.000000 1.795223
v 1.049316 0.000000 1.808800
v 1.027282 -0.000000 1.820526
v 1.005010 0.000000 1.831846
v 0.982703 -0.000000 1.843103
v 0.960362 -0.000000 1.854297
v 0.937988 0.000000 1.865427
v 0.915581 0.000000 1.876493
v 0.893143 -0.000000 1.887494
v 0.870674 -0.000000 1.898429
v 0.848175 -0.000000 1.909300
v 0.825647 0.000000 1.920105
v 0.803091 -0.000000 1.930843
v 0.779654 0.000000 1.939501
v 0.013055 -0.000000 1.090451
v 0.756073 0.000000 1.947815
v 0.026111 0.000000 1.089280
v 0.732466 -0.000000 1.956061
v 0.708833 0.000000 1.964240
v 0.685176 -0.000000 1.972351
v 0.661495 0.000000 1.980393
v 0.637791 0.000000 1.988366
v 0.614065 0.000000 1.996271
v 0.590318 0.000000 2.004106
v 0.566550 -0.000000 2.011871
v 0.542763 -0.000000 2.019567
v 0.518382 -0.000000 2.024984
v 0.493933 -0.000000 2.030138
v 0.469466 -0.000000 2.035221
v 0.444984 0.000000 2.040235
v 0.039169 0.000000 1.088178
v 0.052230 0.000000 1.087146
v 0.420487 0.000000 2.045178
v 0.065293 0.000000 1.086183
v 0.395975 -0.000000 2.050051
v 0.078361 0.000000 1.085289
v 0.371449 0.000000 2.054853
v 0.346911 -0.000000 2.059584
v 0.091434 0.000000 1.084466
v 0.104512 -0.000000 1.083711
v 0.117597 -0.000000 1.083026
v 0.130689 0.000000 1.082410
v 0.143773 0.000000 1.081766
v 0.156456 0.000000 1.078873
v 0.169149 0.000000 1.076051
v 0.181853 0.000000 1.073300
v 0.194570 -0.000000 1.070621
v 0.207299 0.000000 1.068012
v 0.220041 -0.000000 1.065473
v 0.232798 0.000000 1.063006
v 0.245570 0.000000 1.060608
v 0.322360 0.000000 2.064245
v 0.258359 -0.000000 1.058281
v 0.297799 -0.000000 2.068834
v 0.271164 0.000000 1.056024
v 0.273228 -0.000000 2.073352
v 0.248426 0.000000 2.075455
v 0.283934 0.000000 1.053644
v 0.296112 0.000000 1.049134
v 0.223607 -0.000000 2.077391
v 0.198780 0.000000 2.079258
v 0.173947 -0.000000 2.081056
v 0.308309 -0.000000 1.044694
v 0.149108 -0.000000 2.082784
v 0.320528 -0.000000 1.040323
v 0.124264 -0.000000 2.084443
v 0.099417 -0.000000 2.086032
v 0.074565 -0.000000 2.087551
v 0.049712 -0.000000 2.089001
v 0.332767 -0.000000 1.036022
v 0.345028 -0.000000 1.031789
v 0.357313 0.000000 1.027625
v 0.024856 0.000000 2.090382
vt 0.541667 0.500000
vt 0.550926 0.500000
vt 0.550926 0.750000
vt 0.541667 0.750000
vt 0.662037 0.500000
vt 0.671296 0.500000
vt 0.671296 0.750000
vt 0.662037 0.750000
vt 0.736111 0.500000
vt 0.745370 0.500000
vt 0.745371 0.750000
vt 0.736111 0.750000
vt 0.560185 0.500000
vt 0.560185 0.750000
vt 0.449074 0.500000
vt 0.458333 0.500000
vt 0.458333 0.750000
vt 0.449074 0.750000
vt 0.726852 0.500000
vt 0.726852 0.750000
vt 0.532408 0.500000
vt 0.532407 0.750000
vt 0.523148 0.500000
vt 0.523148 0.750000
vt 0.513889 0.500000
vt 0.513889 0.750000
vt 0.504630 0.500000
vt 0.504630 0.750000
vt 0.495370 0.500000
vt 0.495370 0.750000
vt 0.569445 0.500000
vt 0.569445 0.750000
vt 0.587963 0.500000
vt 0.597222 0.500000
vt 0.597222 0.750000
vt 0.587963 0.750000
vt 0.578704 0.500000
vt 0.578704 0.750000
vt 0.606482 0.500000
vt 0.615741 0.500000
vt 0.615741 0.750000
vt 0.606482 0.750000
vt 0.625000 0.500000
vt 0.625000 0.750000
vt 0.467593 0.500000
vt 0.467593 0.750000
vt 0.476852 0.500000
vt 0.476852 0.750000
vt 0.717593 0.500000
vt 0.717593 0.750000
vt 0.439815 0.500000
vt 0.439815 0.750000
vt 0.689815 0.500000
vt 0.699074 0.500000
vt 0.699074 0.750000
vt 0.689815 0.750000
vt 0.708333 0.500000
vt 0.708333 0.750000
vt 0.634259 0.500000
vt 0.643519 0.500000
vt 0.643519 0.750000
vt 0.634259 0.750000
vt 0.421296 0.500000
vt 0.430556 0.500000
vt 0.430556 0.750000
vt 0.421296 0.750000
vt 0.412037 0.500000
vt 0.412037 0.750000
vt 0.652778 0.500000
vt 0.652778 0.750000
vt 0.402778 0.500000
vt 0.402778 0.750000
vt 0.384259 0.500000
vt 0.393519 0.500000
vt 0.393519 0.750000
vt 0.384259 0.750000
vt 0.865741 0.500000
vt 0.875000 0.500000
vt 0.875000 0.750000
vt 0.865741 0.750000
vt 0.680556 0.500000
vt 0.680556 0.750000
vt 0.375000 0.500000
vt 0.375000 0.750000
vt 0.486111 0.500000
vt 0.486111 0.750000
vt 0.856481 0.500000
vt 0.856481 0.750000
vt 0.847222 0.500000
vt 0.847222 0.750000
vt 0.837963 0.500000
vt 0.837963 0.750000
vt 0.828704 0.500000
vt 0.828704 0.750000
vt 0.819444 0.500000
vt 0.819445 0.750000
vt 0.810185 0.500000
vt 0.810185 0.750000
vt 0.800926 0.500000
vt 0.800926 0.750000
vt 0.791667 0.500000
vt 0.791667 0.750000
vt 0.782407 0.500000
vt 0.782408 0.750000
vt 0.773148 0.500000
vt 0.773148 0.750000
vt 0.763889 0.500000
vt 0.763889 0.750000
vt 0.754630 0.500000
vt 0.754630 0.750000
vn 0.0000 1.0000 -0.0000
usemtl None
s off
f 67/1/1 66/2/1 88/3/1 87/4/1
f 53/5/1 51/6/1 8/7/1 7/8/1
f 44/9/1 43/10/1 16/11/1 15/12/1
f 66/2/1 65/13/1 90/14/1 88/3/1
f 98/15/1 97/16/1 78/17/1 77/18/1
f 45/19/1 44/9/1 15/12/1 14/20/1
f 70/21/1 67/1/1 87/4/1 86/22/1
f 72/23/1 70/21/1 86/22/1 85/24/1
f 74/25/1 72/23/1 85/24/1 84/26/1
f 75/27/1 74/25/1 84/26/1 83/28/1
f 89/29/1 75/27/1 83/28/1 82/30/1
f 65/13/1 64/31/1 92/32/1 90/14/1
f 62/33/1 61/34/1 100/35/1 96/36/1
f 63/37/1 62/33/1 96/36/1 95/38/1
f 60/39/1 59/40/1 107/41/1 102/42/1
f 61/34/1 60/39/1 102/42/1 100/35/1
f 59/40/1 58/43/1 108/44/1 107/41/1
f 97/16/1 94/45/1 79/46/1 78/17/1
f 94/45/1 93/47/1 80/48/1 79/46/1
f 46/49/1 45/19/1 14/20/1 13/50/1
f 99/51/1 98/15/1 77/18/1 76/52/1
f 49/53/1 48/54/1 11/55/1 10/56/1
f 47/57/1 46/49/1 13/50/1 12/58/1
f 57/59/1 56/60/1 5/61/1 109/62/1
f 103/63/1 101/64/1 73/65/1 71/66/1
f 104/67/1 103/63/1 71/66/1 69/68/1
f 58/43/1 57/59/1 109/62/1 108/44/1
f 56/60/1 55/69/1 6/70/1 5/61/1
f 105/71/1 104/67/1 69/68/1 68/72/1
f 55/69/1 53/5/1 7/8/1 6/70/1
f 110/73/1 106/74/1 54/75/1 52/76/1
f 48/54/1 47/57/1 12/58/1 11/55/1
f 30/77/1 2/78/1 1/79/1 29/80/1
f 51/6/1 50/81/1 9/82/1 8/7/1
f 106/74/1 105/71/1 68/72/1 54/75/1
f 50/81/1 49/53/1 10/56/1 9/82/1
f 4/83/1 110/73/1 52/76/1 3/84/1
f 101/64/1 99/51/1 76/52/1 73/65/1
f 93/47/1 91/85/1 81/86/1 80/48/1
f 91/85/1 89/29/1 82/30/1 81/86/1
f 31/87/1 30/77/1 29/80/1 28/88/1
f 32/89/1 31/87/1 28/88/1 27/90/1
f 33/91/1 32/89/1 27/90/1 26/92/1
f 34/93/1 33/91/1 26/92/1 25/94/1
f 35/95/1 34/93/1 25/94/1 24/96/1
f 36/97/1 35/95/1 24/96/1 23/98/1
f 37/99/1 36/97/1 23/98/1 22/100/1
f 38/101/1 37/99/1 22/100/1 21/102/1
f 39/103/1 38/101/1 21/102/1 20/104/1
f 40/105/1 39/103/1 20/104/1 19/106/1
f 41/107/1 40/105/1 19/106/1 18/108/1
f 42/109/1 41/107/1 18/108/1 17/110/1
f 43/10/1 42/109/1 17/110/1 16/11/1
f 64/31/1 63/37/1 95/38/1 92/32/1
