# Blender v2.83.0 OBJ File: 'RadialFill.blend'
# www.blender.org
mtllib RadialFill_000038.mtl
o Cube_Cube.001
v -0.784242 0.000000 -0.756917
v -1.503724 0.000000 -1.451428
v -0.000000 -0.000000 1.091693
v 0.000000 0.000000 2.091693
v 0.930179 -0.000000 -0.566846
v 0.885804 0.000000 -0.633019
v 0.837094 0.000000 -0.695867
v 0.784831 0.000000 -0.756214
v 0.726341 0.000000 -0.810266
v 0.666843 0.000000 -0.863513
v 0.600320 0.000000 -0.907331
v 0.533651 0.000000 -0.950669
v 0.462095 0.000000 -0.985251
v 0.389572 0.000000 -1.017053
v 0.314421 0.000000 -1.042498
v 0.237703 0.000000 -1.062077
v 0.159855 0.000000 -1.078111
v 0.080342 0.000000 -1.085160
v 0.000460 0.000000 -1.091648
v -0.079422 0.000000 -1.085220
v -0.158962 0.000000 -1.078310
v -0.236804 0.000000 -1.062246
v -0.313562 0.000000 -1.042805
v -0.388703 0.000000 -1.017331
v -0.461280 0.000000 -0.985662
v -0.532822 0.000000 -0.951053
v -0.599560 0.000000 -0.907841
v -0.666169 0.000000 -0.864136
v -0.725648 0.000000 -0.810865
v -1.392768 0.000000 -1.555816
v -1.277401 0.000000 -1.655588
v -1.151450 0.000000 -1.741757
v -1.022367 0.000000 -1.823031
v -0.885572 0.000000 -1.891188
v -0.745371 0.000000 -1.951563
v -0.600536 0.000000 -2.000744
v -0.452670 0.000000 -2.038669
v -0.302652 0.000000 -2.067933
v -0.151127 0.000000 -2.082646
v 0.000873 0.000000 -2.091648
v 0.152870 0.000000 -2.082527
v 0.304378 0.000000 -2.067612
v 0.454389 0.000000 -2.038318
v 0.602204 0.000000 -2.000194
v 0.747028 0.000000 -1.950984
v 0.887149 0.000000 -1.890419
v 1.023930 0.000000 -1.822235
v 1.152910 0.000000 -1.740785
v 1.278735 0.000000 -1.654454
v 1.394083 0.000000 -1.554658
v 1.504893 0.000000 -1.450123
v 0.079881 0.000000 1.085190
v 1.605671 0.000000 -1.335624
v 0.159407 -0.000000 1.078210
v 1.698906 0.000000 -1.215140
v 1.783570 0.000000 -1.088117
v 1.857215 -0.000000 -0.954512
v 1.924170 0.000000 -0.817127
v 1.976334 -0.000000 -0.673475
v 2.022958 0.000000 -0.527899
v 2.053549 0.000000 -0.378150
v 2.077092 -0.000000 -0.227501
v 2.087491 -0.000000 -0.075574
v 2.087439 0.000000 0.076448
v 2.077025 -0.000000 0.228375
v 2.053380 -0.000000 0.379014
v 2.022774 0.000000 0.528759
v 0.237253 0.000000 1.062161
v 0.313991 0.000000 1.042652
v 1.976051 -0.000000 0.674309
v 0.389137 0.000000 1.017193
v 1.923792 -0.000000 0.817921
v 0.461686 0.000000 0.985457
v 1.856823 -0.000000 0.955299
v 1.783090 -0.000000 1.088852
v 0.533235 0.000000 0.950861
v 0.599938 -0.000000 0.907587
v 0.666505 0.000000 0.863825
v 0.725993 0.000000 0.810567
v 0.784535 0.000000 0.756567
v 0.836788 0.000000 0.696209
v 0.885555 0.000000 0.633404
v 0.929918 0.000000 0.567222
v 0.967760 0.000000 0.497513
v 1.003557 0.000000 0.426555
v 1.029529 0.000000 0.351671
v 1.055087 0.000000 0.276607
v 1.069809 0.000000 0.198494
v 1.698412 -0.000000 1.215867
v 1.082903 0.000000 0.120111
v 1.605097 -0.000000 1.336289
v 1.088098 -0.000000 0.040159
v 1.504307 0.000000 1.450777
v 1.393423 -0.000000 1.555239
v 1.088135 0.000000 -0.039699
v 1.082925 0.000000 -0.119651
v 1.278065 0.000000 1.655023
v 1.152177 0.000000 1.741273
v 1.023145 0.000000 1.822635
v 1.069901 0.000000 -0.198046
v 0.886357 -0.000000 1.890805
v 1.055164 -0.000000 -0.276156
v 0.746197 0.000000 1.951274
v 0.601368 0.000000 2.000469
v 0.453528 0.000000 2.038494
v 0.303513 0.000000 2.067773
v 1.029675 0.000000 -0.351238
v 1.003770 0.000000 -0.426149
v 0.967959 0.000000 -0.497101
v 0.151998 -0.000000 2.082586
vt 0.541667 0.500000
vt 0.550926 0.500000
vt 0.550926 0.750000
vt 0.541667 0.750000
vt 0.662037 0.500000
vt 0.671296 0.500000
vt 0.671296 0.750000
vt 0.662037 0.750000
vt 0.736111 0.500000
vt 0.745370 0.500000
vt 0.745371 0.750000
vt 0.736111 0.750000
vt 0.560185 0.500000
vt 0.560185 0.750000
vt 0.449074 0.500000
vt 0.458333 0.500000
vt 0.458333 0.750000
vt 0.449074 0.750000
vt 0.726852 0.500000
vt 0.726852 0.750000
vt 0.532408 0.500000
vt 0.532407 0.750000
vt 0.523148 0.500000
vt 0.523148 0.750000
vt 0.513889 0.500000
vt 0.513889 0.750000
vt 0.504630 0.500000
vt 0.504630 0.750000
vt 0.495370 0.500000
vt 0.495370 0.750000
vt 0.569445 0.500000
vt 0.569445 0.750000
vt 0.587963 0.500000
vt 0.597222 0.500000
vt 0.597222 0.750000
vt 0.587963 0.750000
vt 0.578704 0.500000
vt 0.578704 0.750000
vt 0.606482 0.500000
vt 0.615741 0.500000
vt 0.615741 0.750000
vt 0.606482 0.750000
vt 0.625000 0.500000
vt 0.625000 0.750000
vt 0.467593 0.500000
vt 0.467593 0.750000
vt 0.476852 0.500000
vt 0.476852 0.750000
vt 0.717593 0.500000
vt 0.717593 0.750000
vt 0.439815 0.500000
vt 0.439815 0.750000
vt 0.689815 0.500000
vt 0.699074 0.500000
vt 0.699074 0.750000
vt 0.689815 0.750000
vt 0.708333 0.500000
vt 0.708333 0.750000
vt 0.634259 0.500000
vt 0.643519 0.500000
vt 0.643519 0.750000
vt 0.634259 0.750000
vt 0.421296 0.500000
vt 0.430556 0.500000
vt 0.430556 0.750000
vt 0.421296 0.750000
vt 0.412037 0.500000
vt 0.412037 0.750000
vt 0.652778 0.500000
vt 0.652778 0.750000
vt 0.402778 0.500000
vt 0.402778 0.750000
vt 0.384259 0.500000
vt 0.393519 0.500000
vt 0.393519 0.750000
vt 0.384259 0.750000
vt 0.865741 0.500000
vt 0.875000 0.500000
vt 0.875000 0.750000
vt 0.865741 0.750000
vt 0.680556 0.500000
vt 0.680556 0.750000
vt 0.375000 0.500000
vt 0.375000 0.750000
vt 0.486111 0.500000
vt 0.486111 0.750000
vt 0.856481 0.500000
vt 0.856481 0.750000
vt 0.847222 0.500000
vt 0.847222 0.750000
vt 0.837963 0.500000
vt 0.837963 0.750000
vt 0.828704 0.500000
vt 0.828704 0.750000
vt 0.819444 0.500000
vt 0.819445 0.750000
vt 0.810185 0.500000
vt 0.810185 0.750000
vt 0.800926 0.500000
vt 0.800926 0.750000
vt 0.791667 0.500000
vt 0.791667 0.750000
vt 0.782407 0.500000
vt 0.782408 0.750000
vt 0.773148 0.500000
vt 0.773148 0.750000
vt 0.763889 0.500000
vt 0.763889 0.750000
vt 0.754630 0.500000
vt 0.754630 0.750000
vn 0.0000 1.0000 0.0000
usemtl None
s off
f 67/1/1 66/2/1 88/3/1 87/4/1
f 53/5/1 51/6/1 8/7/1 7/8/1
f 44/9/1 43/10/1 16/11/1 15/12/1
f 66/2/1 65/13/1 90/14/1 88/3/1
f 98/15/1 97/16/1 78/17/1 77/18/1
f 45/19/1 44/9/1 15/12/1 14/20/1
f 70/21/1 67/1/1 87/4/1 86/22/1
f 72/23/1 70/21/1 86/22/1 85/24/1
f 74/25/1 72/23/1 85/24/1 84/26/1
f 75/27/1 74/25/1 84/26/1 83/28/1
f 89/29/1 75/27/1 83/28/1 82/30/1
f 65/13/1 64/31/1 92/32/1 90/14/1
f 62/33/1 61/34/1 100/35/1 96/36/1
f 63/37/1 62/33/1 96/36/1 95/38/1
f 60/39/1 59/40/1 107/41/1 102/42/1
f 61/34/1 60/39/1 102/42/1 100/35/1
f 59/40/1 58/43/1 108/44/1 107/41/1
f 97/16/1 94/45/1 79/46/1 78/17/1
f 94/45/1 93/47/1 80/48/1 79/46/1
f 46/49/1 45/19/1 14/20/1 13/50/1
f 99/51/1 98/15/1 77/18/1 76/52/1
f 49/53/1 48/54/1 11/55/1 10/56/1
f 47/57/1 46/49/1 13/50/1 12/58/1
f 57/59/1 56/60/1 5/61/1 109/62/1
f 103/63/1 101/64/1 73/65/1 71/66/1
f 104/67/1 103/63/1 71/66/1 69/68/1
f 58/43/1 57/59/1 109/62/1 108/44/1
f 56/60/1 55/69/1 6/70/1 5/61/1
f 105/71/1 104/67/1 69/68/1 68/72/1
f 55/69/1 53/5/1 7/8/1 6/70/1
f 110/73/1 106/74/1 54/75/1 52/76/1
f 48/54/1 47/57/1 12/58/1 11/55/1
f 30/77/1 2/78/1 1/79/1 29/80/1
f 51/6/1 50/81/1 9/82/1 8/7/1
f 106/74/1 105/71/1 68/72/1 54/75/1
f 50/81/1 49/53/1 10/56/1 9/82/1
f 4/83/1 110/73/1 52/76/1 3/84/1
f 101/64/1 99/51/1 76/52/1 73/65/1
f 93/47/1 91/85/1 81/86/1 80/48/1
f 91/85/1 89/29/1 82/30/1 81/86/1
f 31/87/1 30/77/1 29/80/1 28/88/1
f 32/89/1 31/87/1 28/88/1 27/90/1
f 33/91/1 32/89/1 27/90/1 26/92/1
f 34/93/1 33/91/1 26/92/1 25/94/1
f 35/95/1 34/93/1 25/94/1 24/96/1
f 36/97/1 35/95/1 24/96/1 23/98/1
f 37/99/1 36/97/1 23/98/1 22/100/1
f 38/101/1 37/99/1 22/100/1 21/102/1
f 39/103/1 38/101/1 21/102/1 20/104/1
f 40/105/1 39/103/1 20/104/1 19/106/1
f 41/107/1 40/105/1 19/106/1 18/108/1
f 42/109/1 41/107/1 18/108/1 17/110/1
f 43/10/1 42/109/1 17/110/1 16/11/1
f 64/31/1 63/37/1 95/38/1 92/32/1
