# Blender v2.83.0 OBJ File: 'RadialFill.blend'
# www.blender.org
mtllib RadialFill_000041.mtl
o Cube_Cube.001
v -0.980568 0.000000 -0.471432
v -1.881594 -0.000000 -0.905199
v -0.000000 -0.000000 1.091693
v 0.000000 0.000000 2.091693
v 0.818703 0.000000 -0.716644
v 0.761123 0.000000 -0.780730
v 0.695815 0.000000 -0.837141
v 0.627548 0.000000 -0.889352
v 0.556210 0.000000 -0.937616
v 0.479702 0.000000 -0.976464
v 0.402188 0.000000 -1.013060
v 0.320831 0.000000 -1.040216
v 0.238076 0.000000 -1.062006
v 0.153944 0.000000 -1.079441
v 0.067783 0.000000 -1.086007
v -0.018551 0.000000 -1.089950
v -0.104936 0.000000 -1.083688
v -0.190039 0.000000 -1.071567
v -0.274436 0.000000 -1.055459
v -0.355674 0.000000 -1.028177
v -0.436012 0.000000 -0.998611
v -0.512936 0.000000 -0.960374
v -0.586667 0.000000 -0.916549
v -0.658754 0.000000 -0.869395
v -0.723635 0.000000 -0.812611
v -0.786684 0.000000 -0.754004
v -0.843343 0.000000 -0.688916
v -0.894415 -0.000000 -0.619799
v -0.942960 -0.000000 -0.548641
v -1.806789 0.000000 -1.052427
v -1.715846 0.000000 -1.190107
v -1.617337 0.000000 -1.322109
v -1.508566 0.000000 -1.446020
v -1.388947 0.000000 -1.559177
v -1.263368 0.000000 -1.665913
v -1.126618 0.000000 -1.758246
v -0.984705 0.000000 -1.842096
v -0.836426 0.000000 -1.914945
v -0.682023 0.000000 -1.973426
v -0.524621 0.000000 -2.023657
v -0.362712 0.000000 -2.056546
v -0.199586 0.000000 -2.079199
v -0.035320 0.000000 -2.089809
v 0.128996 0.000000 -2.084132
v 0.292934 0.000000 -2.069735
v 0.455107 0.000000 -2.038172
v 0.614654 0.000000 -1.996076
v 0.771080 0.000000 -1.942532
v 0.921135 0.000000 -1.873758
v 1.067305 0.000000 -1.797140
v 1.204803 0.000000 -1.705916
v 0.086353 0.000000 1.084778
v 1.335524 0.000000 -1.605758
v 0.171979 -0.000000 1.075432
v 1.459215 0.000000 -1.496738
v 1.570865 0.000000 -1.375624
v 1.675960 0.000000 -1.248756
v 1.768017 -0.000000 -1.111814
v 1.850062 -0.000000 -0.968834
v 1.922606 -0.000000 -0.820409
v 1.979141 -0.000000 -0.665195
v 2.027339 -0.000000 -0.507254
v 2.059897 -0.000000 -0.345275
v 2.080485 0.000000 -0.181942
v 2.090769 -0.000000 -0.017659
v 2.082952 -0.000000 0.146649
v 2.066492 -0.000000 0.310387
v 0.256238 0.000000 1.058662
v 0.338229 0.000000 1.034127
v 2.034596 -0.000000 0.472497
v 0.419652 0.000000 1.007202
v 1.990466 -0.000000 0.631512
v 0.496285 0.000000 0.968354
v 1.936602 -0.000000 0.787824
v 1.865892 -0.000000 0.937051
v 0.571400 -0.000000 0.927022
v 0.643108 0.000000 0.879316
v 0.709678 0.000000 0.824823
v 0.774802 0.000000 0.768267
v 0.830968 0.000000 0.702735
v 0.884319 0.000000 0.635318
v 0.932303 0.000000 0.563796
v 0.972393 0.000000 0.487985
v 1.010319 0.000000 0.410996
v 1.037154 0.000000 0.329525
v 1.060317 0.000000 0.247153
v 1.077419 0.000000 0.162959
v 1.085375 0.000000 0.077067
v 1.787463 -0.000000 1.082160
v 1.090804 0.000000 -0.009275
v 1.695960 0.000000 1.219475
v 1.084215 0.000000 -0.095643
v 1.594154 -0.000000 1.348914
v 1.484889 0.000000 1.472382
v 1.073482 0.000000 -0.181006
v 1.057043 0.000000 -0.265332
v 1.362280 -0.000000 1.582524
v 1.234125 -0.000000 1.685975
v 1.096996 0.000000 1.777756
v 1.031134 0.000000 -0.346946
v 0.952950 0.000000 1.857993
v 1.002889 0.000000 -0.427825
v 0.804381 0.000000 1.930231
v 0.648359 -0.000000 1.984821
v 0.489879 -0.000000 2.030985
v 0.327833 0.000000 2.063212
v 0.964348 0.000000 -0.504601
v 0.921770 0.000000 -0.579024
v 0.874341 0.000000 -0.650920
v 0.164296 -0.000000 2.081735
vt 0.541667 0.500000
vt 0.550926 0.500000
vt 0.550926 0.750000
vt 0.541667 0.750000
vt 0.662037 0.500000
vt 0.671296 0.500000
vt 0.671296 0.750000
vt 0.662037 0.750000
vt 0.736111 0.500000
vt 0.745370 0.500000
vt 0.745371 0.750000
vt 0.736111 0.750000
vt 0.560185 0.500000
vt 0.560185 0.750000
vt 0.449074 0.500000
vt 0.458333 0.500000
vt 0.458333 0.750000
vt 0.449074 0.750000
vt 0.726852 0.500000
vt 0.726852 0.750000
vt 0.532408 0.500000
vt 0.532407 0.750000
vt 0.523148 0.500000
vt 0.523148 0.750000
vt 0.513889 0.500000
vt 0.513889 0.750000
vt 0.504630 0.500000
vt 0.504630 0.750000
vt 0.495370 0.500000
vt 0.495370 0.750000
vt 0.569445 0.500000
vt 0.569445 0.750000
vt 0.587963 0.500000
vt 0.597222 0.500000
vt 0.597222 0.750000
vt 0.587963 0.750000
vt 0.578704 0.500000
vt 0.578704 0.750000
vt 0.606482 0.500000
vt 0.615741 0.500000
vt 0.615741 0.750000
vt 0.606482 0.750000
vt 0.625000 0.500000
vt 0.625000 0.750000
vt 0.467593 0.500000
vt 0.467593 0.750000
vt 0.476852 0.500000
vt 0.476852 0.750000
vt 0.717593 0.500000
vt 0.717593 0.750000
vt 0.439815 0.500000
vt 0.439815 0.750000
vt 0.689815 0.500000
vt 0.699074 0.500000
vt 0.699074 0.750000
vt 0.689815 0.750000
vt 0.708333 0.500000
vt 0.708333 0.750000
vt 0.634259 0.500000
vt 0.643519 0.500000
vt 0.643519 0.750000
vt 0.634259 0.750000
vt 0.421296 0.500000
vt 0.430556 0.500000
vt 0.430556 0.750000
vt 0.421296 0.750000
vt 0.412037 0.500000
vt 0.412037 0.750000
vt 0.652778 0.500000
vt 0.652778 0.750000
vt 0.402778 0.500000
vt 0.402778 0.750000
vt 0.384259 0.500000
vt 0.393519 0.500000
vt 0.393519 0.750000
vt 0.384259 0.750000
vt 0.865741 0.500000
vt 0.875000 0.500000
vt 0.875000 0.750000
vt 0.865741 0.750000
vt 0.680556 0.500000
vt 0.680556 0.750000
vt 0.375000 0.500000
vt 0.375000 0.750000
vt 0.486111 0.500000
vt 0.486111 0.750000
vt 0.856481 0.500000
vt 0.856481 0.750000
vt 0.847222 0.500000
vt 0.847222 0.750000
vt 0.837963 0.500000
vt 0.837963 0.750000
vt 0.828704 0.500000
vt 0.828704 0.750000
vt 0.819444 0.500000
vt 0.819445 0.750000
vt 0.810185 0.500000
vt 0.810185 0.750000
vt 0.800926 0.500000
vt 0.800926 0.750000
vt 0.791667 0.500000
vt 0.791667 0.750000
vt 0.782407 0.500000
vt 0.782408 0.750000
vt 0.773148 0.500000
vt 0.773148 0.750000
vt 0.763889 0.500000
vt 0.763889 0.750000
vt 0.754630 0.500000
vt 0.754630 0.750000
vn 0.0000 1.0000 0.0000
usemtl None
s off
f 67/1/1 66/2/1 88/3/1 87/4/1
f 53/5/1 51/6/1 8/7/1 7/8/1
f 44/9/1 43/10/1 16/11/1 15/12/1
f 66/2/1 65/13/1 90/14/1 88/3/1
f 98/15/1 97/16/1 78/17/1 77/18/1
f 45/19/1 44/9/1 15/12/1 14/20/1
f 70/21/1 67/1/1 87/4/1 86/22/1
f 72/23/1 70/21/1 86/22/1 85/24/1
f 74/25/1 72/23/1 85/24/1 84/26/1
f 75/27/1 74/25/1 84/26/1 83/28/1
f 89/29/1 75/27/1 83/28/1 82/30/1
f 65/13/1 64/31/1 92/32/1 90/14/1
f 62/33/1 61/34/1 100/35/1 96/36/1
f 63/37/1 62/33/1 96/36/1 95/38/1
f 60/39/1 59/40/1 107/41/1 102/42/1
f 61/34/1 60/39/1 102/42/1 100/35/1
f 59/40/1 58/43/1 108/44/1 107/41/1
f 97/16/1 94/45/1 79/46/1 78/17/1
f 94/45/1 93/47/1 80/48/1 79/46/1
f 46/49/1 45/19/1 14/20/1 13/50/1
f 99/51/1 98/15/1 77/18/1 76/52/1
f 49/53/1 48/54/1 11/55/1 10/56/1
f 47/57/1 46/49/1 13/50/1 12/58/1
f 57/59/1 56/60/1 5/61/1 109/62/1
f 103/63/1 101/64/1 73/65/1 71/66/1
f 104/67/1 103/63/1 71/66/1 69/68/1
f 58/43/1 57/59/1 109/62/1 108/44/1
f 56/60/1 55/69/1 6/70/1 5/61/1
f 105/71/1 104/67/1 69/68/1 68/72/1
f 55/69/1 53/5/1 7/8/1 6/70/1
f 110/73/1 106/74/1 54/75/1 52/76/1
f 48/54/1 47/57/1 12/58/1 11/55/1
f 30/77/1 2/78/1 1/79/1 29/80/1
f 51/6/1 50/81/1 9/82/1 8/7/1
f 106/74/1 105/71/1 68/72/1 54/75/1
f 50/81/1 49/53/1 10/56/1 9/82/1
f 4/83/1 110/73/1 52/76/1 3/84/1
f 101/64/1 99/51/1 76/52/1 73/65/1
f 93/47/1 91/85/1 81/86/1 80/48/1
f 91/85/1 89/29/1 82/30/1 81/86/1
f 31/87/1 30/77/1 29/80/1 28/88/1
f 32/89/1 31/87/1 28/88/1 27/90/1
f 33/91/1 32/89/1 27/90/1 26/92/1
f 34/93/1 33/91/1 26/92/1 25/94/1
f 35/95/1 34/93/1 25/94/1 24/96/1
f 36/97/1 35/95/1 24/96/1 23/98/1
f 37/99/1 36/97/1 23/98/1 22/100/1
f 38/101/1 37/99/1 22/100/1 21/102/1
f 39/103/1 38/101/1 21/102/1 20/104/1
f 40/105/1 39/103/1 20/104/1 19/106/1
f 41/107/1 40/105/1 19/106/1 18/108/1
f 42/109/1 41/107/1 18/108/1 17/110/1
f 43/10/1 42/109/1 17/110/1 16/11/1
f 64/31/1 63/37/1 95/38/1 92/32/1
