# Blender v2.83.0 OBJ File: 'RadialFill.blend'
# www.blender.org
mtllib RadialFill_000033.mtl
o Cube_Cube.001
v -0.292249 0.000000 -1.050556
v -0.559011 0.000000 -2.014319
v -0.000000 -0.000000 1.091693
v 0.000000 0.000000 2.091693
v 1.053992 0.000000 -0.283004
v 1.030889 0.000000 -0.347664
v 1.009709 0.000000 -0.412970
v 0.979063 0.000000 -0.474454
v 0.949368 0.000000 -0.536469
v 0.911595 0.000000 -0.593980
v 0.873865 0.000000 -0.651671
v 0.829505 0.000000 -0.704383
v 0.784422 0.000000 -0.756702
v 0.734017 0.000000 -0.803649
v 0.682261 0.000000 -0.849372
v 0.626697 0.000000 -0.889906
v 0.569487 0.000000 -0.928346
v 0.509659 0.000000 -0.961932
v 0.448037 0.000000 -0.992401
v 0.384771 0.000000 -1.018594
v 0.319758 0.000000 -1.040597
v 0.253829 0.000000 -1.059097
v 0.186365 0.000000 -1.072342
v 0.118432 0.000000 -1.082985
v 0.049260 0.000000 -1.087374
v -0.019825 0.000000 -1.089835
v -0.088944 0.000000 -1.084617
v -0.157734 0.000000 -1.078586
v -0.225038 0.000000 -1.064498
v -0.430089 0.000000 -2.043250
v -0.300276 0.000000 -2.068375
v -0.169219 0.000000 -2.081390
v -0.037745 0.000000 -2.089675
v 0.093764 0.000000 -2.086383
v 0.225188 0.000000 -2.077270
v 0.355618 0.000000 -2.057914
v 0.485271 0.000000 -2.031946
v 0.612570 0.000000 -1.996767
v 0.737854 0.000000 -1.954186
v 0.859862 0.000000 -1.903664
v 0.978468 0.000000 -1.845232
v 1.093269 0.000000 -1.780199
v 1.203191 0.000000 -1.707008
v 1.309103 0.000000 -1.628518
v 1.408602 0.000000 -1.541846
v 1.504082 0.000000 -1.451028
v 1.591392 0.000000 -1.352092
v 1.674996 0.000000 -1.250161
v 1.748897 -0.000000 -1.140720
v 1.819527 -0.000000 -1.029240
v 1.878732 -0.000000 -0.911027
v 0.069097 0.000000 1.085916
v 1.935269 0.000000 -0.791572
v 0.138315 0.000000 1.082084
v 1.978672 -0.000000 -0.666582
v 2.020152 -0.000000 -0.540945
v 2.046977 -0.000000 -0.411481
v 2.071817 -0.000000 -0.281619
v 2.082699 -0.000000 -0.150358
v 2.090704 -0.000000 -0.018871
v 2.085195 -0.000000 0.112633
v 2.075803 -0.000000 0.244034
v 2.054309 -0.000000 0.374248
v 2.028058 -0.000000 0.503841
v 1.990775 -0.000000 0.630587
v 1.947919 -0.000000 0.755775
v 1.895391 -0.000000 0.876935
v 0.205685 0.000000 1.068338
v 0.273271 -0.000000 1.055660
v 1.836700 0.000000 0.995412
v 0.338349 -0.000000 1.034085
v 1.769800 -0.000000 1.109108
v 0.403555 -0.000000 1.012632
v 1.696370 0.000000 1.218871
v 1.616174 -0.000000 1.323459
v 0.465630 0.000000 0.983472
v 0.527512 0.000000 0.953520
v 0.585793 -0.000000 0.917144
v 0.643322 0.000000 0.879179
v 0.696982 -0.000000 0.836096
v 0.749112 -0.000000 0.790802
v 0.797210 0.000000 0.741551
v 0.842718 0.000000 0.689609
v 0.884526 0.000000 0.634997
v 0.922728 0.000000 0.577629
v 0.957708 0.000000 0.518575
v 0.987918 -0.000000 0.456825
v 1.015594 0.000000 0.394155
v 1.529287 0.000000 1.422773
v 1.037321 0.000000 0.329047
v 1.436914 -0.000000 1.516700
v 1.057359 0.000000 0.263545
v 1.337788 0.000000 1.603799
v 1.234527 0.000000 1.685700
v 1.070320 0.000000 0.196021
v 1.082515 0.000000 0.128372
v 1.124925 -0.000000 1.759366
v 1.012336 0.000000 1.828132
v 0.893989 -0.000000 1.887081
v 1.086625 0.000000 0.059178
v 0.773680 0.000000 1.941614
v 1.090744 0.000000 -0.009912
v 0.648590 -0.000000 1.984743
v 0.522399 0.000000 2.024130
v 0.392868 -0.000000 2.050664
v 0.262872 0.000000 2.074296
v 1.085246 0.000000 -0.079019
v 1.080770 0.000000 -0.148102
v 1.066398 0.000000 -0.215357
v 0.131497 -0.000000 2.083967
vt 0.541667 0.500000
vt 0.550926 0.500000
vt 0.550926 0.750000
vt 0.541667 0.750000
vt 0.662037 0.500000
vt 0.671296 0.500000
vt 0.671296 0.750000
vt 0.662037 0.750000
vt 0.736111 0.500000
vt 0.745370 0.500000
vt 0.745371 0.750000
vt 0.736111 0.750000
vt 0.560185 0.500000
vt 0.560185 0.750000
vt 0.449074 0.500000
vt 0.458333 0.500000
vt 0.458333 0.750000
vt 0.449074 0.750000
vt 0.726852 0.500000
vt 0.726852 0.750000
vt 0.532408 0.500000
vt 0.532407 0.750000
vt 0.523148 0.500000
vt 0.523148 0.750000
vt 0.513889 0.500000
vt 0.513889 0.750000
vt 0.504630 0.500000
vt 0.504630 0.750000
vt 0.495370 0.500000
vt 0.495370 0.750000
vt 0.569445 0.500000
vt 0.569445 0.750000
vt 0.587963 0.500000
vt 0.597222 0.500000
vt 0.597222 0.750000
vt 0.587963 0.750000
vt 0.578704 0.500000
vt 0.578704 0.750000
vt 0.606482 0.500000
vt 0.615741 0.500000
vt 0.615741 0.750000
vt 0.606482 0.750000
vt 0.625000 0.500000
vt 0.625000 0.750000
vt 0.467593 0.500000
vt 0.467593 0.750000
vt 0.476852 0.500000
vt 0.476852 0.750000
vt 0.717593 0.500000
vt 0.717593 0.750000
vt 0.439815 0.500000
vt 0.439815 0.750000
vt 0.689815 0.500000
vt 0.699074 0.500000
vt 0.699074 0.750000
vt 0.689815 0.750000
vt 0.708333 0.500000
vt 0.708333 0.750000
vt 0.634259 0.500000
vt 0.643519 0.500000
vt 0.643519 0.750000
vt 0.634259 0.750000
vt 0.421296 0.500000
vt 0.430556 0.500000
vt 0.430556 0.750000
vt 0.421296 0.750000
vt 0.412037 0.500000
vt 0.412037 0.750000
vt 0.652778 0.500000
vt 0.652778 0.750000
vt 0.402778 0.500000
vt 0.402778 0.750000
vt 0.384259 0.500000
vt 0.393519 0.500000
vt 0.393519 0.750000
vt 0.384259 0.750000
vt 0.865741 0.500000
vt 0.875000 0.500000
vt 0.875000 0.750000
vt 0.865741 0.750000
vt 0.680556 0.500000
vt 0.680556 0.750000
vt 0.375000 0.500000
vt 0.375000 0.750000
vt 0.486111 0.500000
vt 0.486111 0.750000
vt 0.856481 0.500000
vt 0.856481 0.750000
vt 0.847222 0.500000
vt 0.847222 0.750000
vt 0.837963 0.500000
vt 0.837963 0.750000
vt 0.828704 0.500000
vt 0.828704 0.750000
vt 0.819444 0.500000
vt 0.819445 0.750000
vt 0.810185 0.500000
vt 0.810185 0.750000
vt 0.800926 0.500000
vt 0.800926 0.750000
vt 0.791667 0.500000
vt 0.791667 0.750000
vt 0.782407 0.500000
vt 0.782408 0.750000
vt 0.773148 0.500000
vt 0.773148 0.750000
vt 0.763889 0.500000
vt 0.763889 0.750000
vt 0.754630 0.500000
vt 0.754630 0.750000
vn -0.0000 1.0000 0.0000
usemtl None
s off
f 67/1/1 66/2/1 88/3/1 87/4/1
f 53/5/1 51/6/1 8/7/1 7/8/1
f 44/9/1 43/10/1 16/11/1 15/12/1
f 66/2/1 65/13/1 90/14/1 88/3/1
f 98/15/1 97/16/1 78/17/1 77/18/1
f 45/19/1 44/9/1 15/12/1 14/20/1
f 70/21/1 67/1/1 87/4/1 86/22/1
f 72/23/1 70/21/1 86/22/1 85/24/1
f 74/25/1 72/23/1 85/24/1 84/26/1
f 75/27/1 74/25/1 84/26/1 83/28/1
f 89/29/1 75/27/1 83/28/1 82/30/1
f 65/13/1 64/31/1 92/32/1 90/14/1
f 62/33/1 61/34/1 100/35/1 96/36/1
f 63/37/1 62/33/1 96/36/1 95/38/1
f 60/39/1 59/40/1 107/41/1 102/42/1
f 61/34/1 60/39/1 102/42/1 100/35/1
f 59/40/1 58/43/1 108/44/1 107/41/1
f 97/16/1 94/45/1 79/46/1 78/17/1
f 94/45/1 93/47/1 80/48/1 79/46/1
f 46/49/1 45/19/1 14/20/1 13/50/1
f 99/51/1 98/15/1 77/18/1 76/52/1
f 49/53/1 48/54/1 11/55/1 10/56/1
f 47/57/1 46/49/1 13/50/1 12/58/1
f 57/59/1 56/60/1 5/61/1 109/62/1
f 103/63/1 101/64/1 73/65/1 71/66/1
f 104/67/1 103/63/1 71/66/1 69/68/1
f 58/43/1 57/59/1 109/62/1 108/44/1
f 56/60/1 55/69/1 6/70/1 5/61/1
f 105/71/1 104/67/1 69/68/1 68/72/1
f 55/69/1 53/5/1 7/8/1 6/70/1
f 110/73/1 106/74/1 54/75/1 52/76/1
f 48/54/1 47/57/1 12/58/1 11/55/1
f 30/77/1 2/78/1 1/79/1 29/80/1
f 51/6/1 50/81/1 9/82/1 8/7/1
f 106/74/1 105/71/1 68/72/1 54/75/1
f 50/81/1 49/53/1 10/56/1 9/82/1
f 4/83/1 110/73/1 52/76/1 3/84/1
f 101/64/1 99/51/1 76/52/1 73/65/1
f 93/47/1 91/85/1 81/86/1 80/48/1
f 91/85/1 89/29/1 82/30/1 81/86/1
f 31/87/1 30/77/1 29/80/1 28/88/1
f 32/89/1 31/87/1 28/88/1 27/90/1
f 33/91/1 32/89/1 27/90/1 26/92/1
f 34/93/1 33/91/1 26/92/1 25/94/1
f 35/95/1 34/93/1 25/94/1 24/96/1
f 36/97/1 35/95/1 24/96/1 23/98/1
f 37/99/1 36/97/1 23/98/1 22/100/1
f 38/101/1 37/99/1 22/100/1 21/102/1
f 39/103/1 38/101/1 21/102/1 20/104/1
f 40/105/1 39/103/1 20/104/1 19/106/1
f 41/107/1 40/105/1 19/106/1 18/108/1
f 42/109/1 41/107/1 18/108/1 17/110/1
f 43/10/1 42/109/1 17/110/1 16/11/1
f 64/31/1 63/37/1 95/38/1 92/32/1
