# Blender v2.83.0 OBJ File: 'RadialFill.blend'
# www.blender.org
mtllib RadialFill_000010.mtl
o Cube_Cube.001
v 0.894262 0.000000 0.620032
v 1.715547 -0.000000 1.190551
v -0.000000 -0.000000 1.091693
v 0.000000 0.000000 2.091693
v 0.539667 0.000000 0.947896
v 0.556153 0.000000 0.937655
v 0.572139 0.000000 0.926511
v 0.588208 0.000000 0.915502
v 0.604364 -0.000000 0.904627
v 0.620608 -0.000000 0.893884
v 0.636943 0.000000 0.883272
v 0.653372 0.000000 0.872789
v 0.669124 0.000000 0.861405
v 0.683529 -0.000000 0.848220
v 0.698032 0.000000 0.835158
v 0.712638 -0.000000 0.822217
v 0.727346 -0.000000 0.809396
v 0.742161 0.000000 0.796692
v 0.757083 0.000000 0.784103
v 0.772068 0.000000 0.771581
v 0.784546 -0.000000 0.756553
v 0.797139 -0.000000 0.741635
v 0.809847 0.000000 0.726824
v 0.822673 -0.000000 0.712119
v 0.835618 0.000000 0.697518
v 0.848684 0.000000 0.683017
v 0.861874 0.000000 0.668616
v 0.873158 0.000000 0.652789
v 0.883646 0.000000 0.636364
v 1.694620 -0.000000 1.221445
v 1.673563 0.000000 1.252247
v 1.651469 0.000000 1.282244
v 1.627247 0.000000 1.310584
v 1.602902 -0.000000 1.338825
v 1.578436 -0.000000 1.366964
v 1.553851 -0.000000 1.395000
v 1.529148 -0.000000 1.422930
v 1.504329 0.000000 1.450753
v 1.479397 0.000000 1.478466
v 1.451735 -0.000000 1.503449
v 1.423916 -0.000000 1.528272
v 1.395990 0.000000 1.552979
v 1.367958 0.000000 1.577568
v 1.339822 0.000000 1.602039
v 1.311585 -0.000000 1.626388
v 1.283249 0.000000 1.650614
v 1.253336 -0.000000 1.672816
v 1.222537 -0.000000 1.693877
v 1.191645 0.000000 1.714808
v 1.160662 0.000000 1.735610
v 1.129591 -0.000000 1.756278
v 0.019520 -0.000000 1.089863
v 1.098434 -0.000000 1.776813
v 0.039042 -0.000000 1.088189
v 1.067192 -0.000000 1.797213
v 1.035262 -0.000000 1.816450
v 1.001967 0.000000 1.833386
v 0.968596 -0.000000 1.850181
v 0.935150 -0.000000 1.866833
v 0.901632 -0.000000 1.883341
v 0.868044 0.000000 1.899705
v 0.834390 -0.000000 1.915921
v 0.800671 -0.000000 1.931991
v 0.765453 -0.000000 1.944517
v 0.730163 -0.000000 1.956861
v 0.694817 -0.000000 1.969055
v 0.659416 -0.000000 1.981095
v 0.058570 -0.000000 1.086670
v 0.078106 -0.000000 1.085306
v 0.623965 -0.000000 1.992982
v 0.097653 -0.000000 1.084098
v 0.588465 0.000000 2.004714
v 0.117214 0.000000 1.083045
v 0.552920 0.000000 2.016291
v 0.516714 -0.000000 2.025338
v 0.136792 0.000000 1.082147
v 0.155961 0.000000 1.078985
v 0.174943 0.000000 1.074788
v 0.193950 0.000000 1.070750
v 0.212985 0.000000 1.066870
v 0.232052 0.000000 1.063148
v 0.251152 -0.000000 1.059584
v 0.270290 0.000000 1.056176
v 0.289130 0.000000 1.051710
v 0.307357 0.000000 1.045038
v 0.325630 0.000000 1.038520
v 0.343952 0.000000 1.032158
v 0.362324 0.000000 1.025949
v 0.480151 0.000000 2.033010
v 0.380750 -0.000000 1.019893
v 0.443552 -0.000000 2.040526
v 0.399233 -0.000000 1.013988
v 0.406918 -0.000000 2.047885
v 0.370253 0.000000 2.055085
v 0.417763 0.000000 1.008204
v 0.434972 0.000000 0.999152
v 0.333560 -0.000000 2.062128
v 0.296841 -0.000000 2.069011
v 0.259986 -0.000000 2.074530
v 0.452245 -0.000000 0.990248
v 0.222881 -0.000000 2.077447
v 0.469585 0.000000 0.981490
v 0.185759 0.000000 2.080209
v 0.148624 0.000000 2.082817
v 0.111478 0.000000 2.085269
v 0.074323 0.000000 2.087566
v 0.486995 0.000000 0.972877
v 0.504477 0.000000 0.964408
v 0.522033 -0.000000 0.956082
v 0.037163 0.000000 2.089707
vt 0.541667 0.500000
vt 0.550926 0.500000
vt 0.550926 0.750000
vt 0.541667 0.750000
vt 0.662037 0.500000
vt 0.671296 0.500000
vt 0.671296 0.750000
vt 0.662037 0.750000
vt 0.736111 0.500000
vt 0.745370 0.500000
vt 0.745371 0.750000
vt 0.736111 0.750000
vt 0.560185 0.500000
vt 0.560185 0.750000
vt 0.449074 0.500000
vt 0.458333 0.500000
vt 0.458333 0.750000
vt 0.449074 0.750000
vt 0.726852 0.500000
vt 0.726852 0.750000
vt 0.532408 0.500000
vt 0.532407 0.750000
vt 0.523148 0.500000
vt 0.523148 0.750000
vt 0.513889 0.500000
vt 0.513889 0.750000
vt 0.504630 0.500000
vt 0.504630 0.750000
vt 0.495370 0.500000
vt 0.495370 0.750000
vt 0.569445 0.500000
vt 0.569445 0.750000
vt 0.587963 0.500000
vt 0.597222 0.500000
vt 0.597222 0.750000
vt 0.587963 0.750000
vt 0.578704 0.500000
vt 0.578704 0.750000
vt 0.606482 0.500000
vt 0.615741 0.500000
vt 0.615741 0.750000
vt 0.606482 0.750000
vt 0.625000 0.500000
vt 0.625000 0.750000
vt 0.467593 0.500000
vt 0.467593 0.750000
vt 0.476852 0.500000
vt 0.476852 0.750000
vt 0.717593 0.500000
vt 0.717593 0.750000
vt 0.439815 0.500000
vt 0.439815 0.750000
vt 0.689815 0.500000
vt 0.699074 0.500000
vt 0.699074 0.750000
vt 0.689815 0.750000
vt 0.708333 0.500000
vt 0.708333 0.750000
vt 0.634259 0.500000
vt 0.643519 0.500000
vt 0.643519 0.750000
vt 0.634259 0.750000
vt 0.421296 0.500000
vt 0.430556 0.500000
vt 0.430556 0.750000
vt 0.421296 0.750000
vt 0.412037 0.500000
vt 0.412037 0.750000
vt 0.652778 0.500000
vt 0.652778 0.750000
vt 0.402778 0.500000
vt 0.402778 0.750000
vt 0.384259 0.500000
vt 0.393519 0.500000
vt 0.393519 0.750000
vt 0.384259 0.750000
vt 0.865741 0.500000
vt 0.875000 0.500000
vt 0.875000 0.750000
vt 0.865741 0.750000
vt 0.680556 0.500000
vt 0.680556 0.750000
vt 0.375000 0.500000
vt 0.375000 0.750000
vt 0.486111 0.500000
vt 0.486111 0.750000
vt 0.856481 0.500000
vt 0.856481 0.750000
vt 0.847222 0.500000
vt 0.847222 0.750000
vt 0.837963 0.500000
vt 0.837963 0.750000
vt 0.828704 0.500000
vt 0.828704 0.750000
vt 0.819444 0.500000
vt 0.819445 0.750000
vt 0.810185 0.500000
vt 0.810185 0.750000
vt 0.800926 0.500000
vt 0.800926 0.750000
vt 0.791667 0.500000
vt 0.791667 0.750000
vt 0.782407 0.500000
vt 0.782408 0.750000
vt 0.773148 0.500000
vt 0.773148 0.750000
vt 0.763889 0.500000
vt 0.763889 0.750000
vt 0.754630 0.500000
vt 0.754630 0.750000
vn 0.0000 1.0000 0.0000
usemtl None
s off
f 67/1/1 66/2/1 88/3/1 87/4/1
f 53/5/1 51/6/1 8/7/1 7/8/1
f 44/9/1 43/10/1 16/11/1 15/12/1
f 66/2/1 65/13/1 90/14/1 88/3/1
f 98/15/1 97/16/1 78/17/1 77/18/1
f 45/19/1 44/9/1 15/12/1 14/20/1
f 70/21/1 67/1/1 87/4/1 86/22/1
f 72/23/1 70/21/1 86/22/1 85/24/1
f 74/25/1 72/23/1 85/24/1 84/26/1
f 75/27/1 74/25/1 84/26/1 83/28/1
f 89/29/1 75/27/1 83/28/1 82/30/1
f 65/13/1 64/31/1 92/32/1 90/14/1
f 62/33/1 61/34/1 100/35/1 96/36/1
f 63/37/1 62/33/1 96/36/1 95/38/1
f 60/39/1 59/40/1 107/41/1 102/42/1
f 61/34/1 60/39/1 102/42/1 100/35/1
f 59/40/1 58/43/1 108/44/1 107/41/1
f 97/16/1 94/45/1 79/46/1 78/17/1
f 94/45/1 93/47/1 80/48/1 79/46/1
f 46/49/1 45/19/1 14/20/1 13/50/1
f 99/51/1 98/15/1 77/18/1 76/52/1
f 49/53/1 48/54/1 11/55/1 10/56/1
f 47/57/1 46/49/1 13/50/1 12/58/1
f 57/59/1 56/60/1 5/61/1 109/62/1
f 103/63/1 101/64/1 73/65/1 71/66/1
f 104/67/1 103/63/1 71/66/1 69/68/1
f 58/43/1 57/59/1 109/62/1 108/44/1
f 56/60/1 55/69/1 6/70/1 5/61/1
f 105/71/1 104/67/1 69/68/1 68/72/1
f 55/69/1 53/5/1 7/8/1 6/70/1
f 110/73/1 106/74/1 54/75/1 52/76/1
f 48/54/1 47/57/1 12/58/1 11/55/1
f 30/77/1 2/78/1 1/79/1 29/80/1
f 51/6/1 50/81/1 9/82/1 8/7/1
f 106/74/1 105/71/1 68/72/1 54/75/1
f 50/81/1 49/53/1 10/56/1 9/82/1
f 4/83/1 110/73/1 52/76/1 3/84/1
f 101/64/1 99/51/1 76/52/1 73/65/1
f 93/47/1 91/85/1 81/86/1 80/48/1
f 91/85/1 89/29/1 82/30/1 81/86/1
f 31/87/1 30/77/1 29/80/1 28/88/1
f 32/89/1 31/87/1 28/88/1 27/90/1
f 33/91/1 32/89/1 27/90/1 26/92/1
f 34/93/1 33/91/1 26/92/1 25/94/1
f 35/95/1 34/93/1 25/94/1 24/96/1
f 36/97/1 35/95/1 24/96/1 23/98/1
f 37/99/1 36/97/1 23/98/1 22/100/1
f 38/101/1 37/99/1 22/100/1 21/102/1
f 39/103/1 38/101/1 21/102/1 20/104/1
f 40/105/1 39/103/1 20/104/1 19/106/1
f 41/107/1 40/105/1 19/106/1 18/108/1
f 42/109/1 41/107/1 18/108/1 17/110/1
f 43/10/1 42/109/1 17/110/1 16/11/1
f 64/31/1 63/37/1 95/38/1 92/32/1
