# Blender v2.83.0 OBJ File: 'RadialFill.blend'
# www.blender.org
mtllib RadialFill_000051.mtl
o Cube_Cube.001
v -0.888533 0.000000 0.628808
v -1.704302 -0.000000 1.207186
v -0.000000 -0.000000 1.091693
v 0.000000 0.000000 2.091693
v 0.301508 0.000000 -1.047161
v 0.196869 0.000000 -1.070144
v 0.090372 0.000000 -1.084530
v -0.017534 0.000000 -1.090042
v -0.125516 0.000000 -1.082645
v -0.231098 0.000000 -1.063331
v -0.334343 0.000000 -1.035473
v -0.435002 0.000000 -0.999136
v -0.531327 0.000000 -0.951745
v -0.621480 0.000000 -0.893313
v -0.706481 0.000000 -0.827646
v -0.785866 0.000000 -0.754979
v -0.856992 0.000000 -0.673919
v -0.917608 0.000000 -0.585112
v -0.970475 0.000000 -0.491916
v -1.015415 0.000000 -0.394719
v -1.050161 0.000000 -0.293321
v -1.071927 0.000000 -0.188326
v -1.085080 0.000000 -0.081593
v -1.089263 0.000000 0.026303
v -1.082252 0.000000 0.134311
v -1.061706 0.000000 0.239673
v -1.032629 0.000000 0.342578
v -0.995118 0.000000 0.442753
v -0.948084 -0.000000 0.539258
v -1.816843 -0.000000 1.034493
v -1.908626 -0.000000 0.849576
v -1.981990 -0.000000 0.656764
v -2.037544 0.000000 0.458169
v -2.074907 0.000000 0.255291
v -2.088981 0.000000 0.050078
v -2.082364 0.000000 -0.155247
v -2.057185 0.000000 -0.359403
v -2.013641 0.000000 -0.561102
v -1.947543 0.000000 -0.756846
v -1.862154 -0.000000 -0.944584
v -1.760237 -0.000000 -1.123607
v -1.642547 0.000000 -1.292711
v -1.506946 0.000000 -1.447830
v -1.356136 0.000000 -1.587876
v -1.193300 0.000000 -1.713692
v -1.019544 0.000000 -1.824468
v -0.834450 0.000000 -1.915892
v -0.640843 0.000000 -1.987344
v -0.441722 0.000000 -2.040898
v -0.238623 0.000000 -2.076228
v -0.033383 0.000000 -2.089916
v 0.107938 0.000000 1.083525
v 0.171931 0.000000 -2.081199
v 0.213970 -0.000000 1.066674
v 0.375882 0.000000 -2.053991
v 0.577072 0.000000 -2.008444
v 0.772687 0.000000 -1.941965
v 0.959609 0.000000 -1.854674
v 1.137583 0.000000 -1.750980
v 1.305438 0.000000 -1.631661
v 1.460299 0.000000 -1.495764
v 1.598861 -0.000000 -1.343489
v 1.723055 -0.000000 -1.179396
v 1.832063 0.000000 -1.004582
v 1.923129 -0.000000 -0.819311
v 1.992666 -0.000000 -0.624912
v 2.044219 0.000000 -0.425270
v 0.317906 -0.000000 1.041255
v 0.419539 -0.000000 1.007261
v 2.077518 -0.000000 -0.221953
v 0.515516 0.000000 0.959152
v 2.090820 -0.000000 -0.016691
v 0.606878 0.000000 0.902952
v 2.080003 -0.000000 0.188609
v 2.050766 -0.000000 0.392351
v 0.693395 0.000000 0.839311
v 0.774640 -0.000000 0.768464
v 0.845180 0.000000 0.686883
v 0.907810 0.000000 0.599606
v 0.962898 0.000000 0.507635
v 1.010207 0.000000 0.411359
v 1.044192 0.000000 0.309702
v 1.068393 0.000000 0.205417
v 1.084012 0.000000 0.099154
v 1.090851 0.000000 -0.008766
v 1.083070 0.000000 -0.116725
v 1.064986 0.000000 -0.222530
v 1.038348 0.000000 -0.326119
v 2.003216 0.000000 0.593028
v 1.003184 0.000000 -0.427264
v 1.936357 0.000000 0.788512
v 0.955435 0.000000 -0.523413
v 1.847165 -0.000000 0.974615
v 1.741699 -0.000000 1.151538
v 0.898119 0.000000 -0.614169
v 0.833467 0.000000 -0.699927
v 1.620752 -0.000000 1.318142
v 1.484563 0.000000 1.472742
v 1.330825 -0.000000 1.609819
v 0.761710 0.000000 -0.780241
v 1.165475 0.000000 1.732391
v 0.680391 0.000000 -0.851074
v 0.989605 -0.000000 1.839629
v 0.804161 0.000000 1.930335
v 0.608975 0.000000 1.997957
v 0.408813 -0.000000 2.047508
v 0.592351 0.000000 -0.912695
v 0.499768 0.000000 -0.966672
v 0.403032 0.000000 -1.012796
v 0.205282 -0.000000 2.078776
vt 0.541667 0.500000
vt 0.550926 0.500000
vt 0.550926 0.750000
vt 0.541667 0.750000
vt 0.662037 0.500000
vt 0.671296 0.500000
vt 0.671296 0.750000
vt 0.662037 0.750000
vt 0.736111 0.500000
vt 0.745370 0.500000
vt 0.745371 0.750000
vt 0.736111 0.750000
vt 0.560185 0.500000
vt 0.560185 0.750000
vt 0.449074 0.500000
vt 0.458333 0.500000
vt 0.458333 0.750000
vt 0.449074 0.750000
vt 0.726852 0.500000
vt 0.726852 0.750000
vt 0.532408 0.500000
vt 0.532407 0.750000
vt 0.523148 0.500000
vt 0.523148 0.750000
vt 0.513889 0.500000
vt 0.513889 0.750000
vt 0.504630 0.500000
vt 0.504630 0.750000
vt 0.495370 0.500000
vt 0.495370 0.750000
vt 0.569445 0.500000
vt 0.569445 0.750000
vt 0.587963 0.500000
vt 0.597222 0.500000
vt 0.597222 0.750000
vt 0.587963 0.750000
vt 0.578704 0.500000
vt 0.578704 0.750000
vt 0.606482 0.500000
vt 0.615741 0.500000
vt 0.615741 0.750000
vt 0.606482 0.750000
vt 0.625000 0.500000
vt 0.625000 0.750000
vt 0.467593 0.500000
vt 0.467593 0.750000
vt 0.476852 0.500000
vt 0.476852 0.750000
vt 0.717593 0.500000
vt 0.717593 0.750000
vt 0.439815 0.500000
vt 0.439815 0.750000
vt 0.689815 0.500000
vt 0.699074 0.500000
vt 0.699074 0.750000
vt 0.689815 0.750000
vt 0.708333 0.500000
vt 0.708333 0.750000
vt 0.634259 0.500000
vt 0.643519 0.500000
vt 0.643519 0.750000
vt 0.634259 0.750000
vt 0.421296 0.500000
vt 0.430556 0.500000
vt 0.430556 0.750000
vt 0.421296 0.750000
vt 0.412037 0.500000
vt 0.412037 0.750000
vt 0.652778 0.500000
vt 0.652778 0.750000
vt 0.402778 0.500000
vt 0.402778 0.750000
vt 0.384259 0.500000
vt 0.393519 0.500000
vt 0.393519 0.750000
vt 0.384259 0.750000
vt 0.865741 0.500000
vt 0.875000 0.500000
vt 0.875000 0.750000
vt 0.865741 0.750000
vt 0.680556 0.500000
vt 0.680556 0.750000
vt 0.375000 0.500000
vt 0.375000 0.750000
vt 0.486111 0.500000
vt 0.486111 0.750000
vt 0.856481 0.500000
vt 0.856481 0.750000
vt 0.847222 0.500000
vt 0.847222 0.750000
vt 0.837963 0.500000
vt 0.837963 0.750000
vt 0.828704 0.500000
vt 0.828704 0.750000
vt 0.819444 0.500000
vt 0.819445 0.750000
vt 0.810185 0.500000
vt 0.810185 0.750000
vt 0.800926 0.500000
vt 0.800926 0.750000
vt 0.791667 0.500000
vt 0.791667 0.750000
vt 0.782407 0.500000
vt 0.782408 0.750000
vt 0.773148 0.500000
vt 0.773148 0.750000
vt 0.763889 0.500000
vt 0.763889 0.750000
vt 0.754630 0.500000
vt 0.754630 0.750000
vn 0.0000 1.0000 -0.0000
usemtl None
s off
f 67/1/1 66/2/1 88/3/1 87/4/1
f 53/5/1 51/6/1 8/7/1 7/8/1
f 44/9/1 43/10/1 16/11/1 15/12/1
f 66/2/1 65/13/1 90/14/1 88/3/1
f 98/15/1 97/16/1 78/17/1 77/18/1
f 45/19/1 44/9/1 15/12/1 14/20/1
f 70/21/1 67/1/1 87/4/1 86/22/1
f 72/23/1 70/21/1 86/22/1 85/24/1
f 74/25/1 72/23/1 85/24/1 84/26/1
f 75/27/1 74/25/1 84/26/1 83/28/1
f 89/29/1 75/27/1 83/28/1 82/30/1
f 65/13/1 64/31/1 92/32/1 90/14/1
f 62/33/1 61/34/1 100/35/1 96/36/1
f 63/37/1 62/33/1 96/36/1 95/38/1
f 60/39/1 59/40/1 107/41/1 102/42/1
f 61/34/1 60/39/1 102/42/1 100/35/1
f 59/40/1 58/43/1 108/44/1 107/41/1
f 97/16/1 94/45/1 79/46/1 78/17/1
f 94/45/1 93/47/1 80/48/1 79/46/1
f 46/49/1 45/19/1 14/20/1 13/50/1
f 99/51/1 98/15/1 77/18/1 76/52/1
f 49/53/1 48/54/1 11/55/1 10/56/1
f 47/57/1 46/49/1 13/50/1 12/58/1
f 57/59/1 56/60/1 5/61/1 109/62/1
f 103/63/1 101/64/1 73/65/1 71/66/1
f 104/67/1 103/63/1 71/66/1 69/68/1
f 58/43/1 57/59/1 109/62/1 108/44/1
f 56/60/1 55/69/1 6/70/1 5/61/1
f 105/71/1 104/67/1 69/68/1 68/72/1
f 55/69/1 53/5/1 7/8/1 6/70/1
f 110/73/1 106/74/1 54/75/1 52/76/1
f 48/54/1 47/57/1 12/58/1 11/55/1
f 30/77/1 2/78/1 1/79/1 29/80/1
f 51/6/1 50/81/1 9/82/1 8/7/1
f 106/74/1 105/71/1 68/72/1 54/75/1
f 50/81/1 49/53/1 10/56/1 9/82/1
f 4/83/1 110/73/1 52/76/1 3/84/1
f 101/64/1 99/51/1 76/52/1 73/65/1
f 93/47/1 91/85/1 81/86/1 80/48/1
f 91/85/1 89/29/1 82/30/1 81/86/1
f 31/87/1 30/77/1 29/80/1 28/88/1
f 32/89/1 31/87/1 28/88/1 27/90/1
f 33/91/1 32/89/1 27/90/1 26/92/1
f 34/93/1 33/91/1 26/92/1 25/94/1
f 35/95/1 34/93/1 25/94/1 24/96/1
f 36/97/1 35/95/1 24/96/1 23/98/1
f 37/99/1 36/97/1 23/98/1 22/100/1
f 38/101/1 37/99/1 22/100/1 21/102/1
f 39/103/1 38/101/1 21/102/1 20/104/1
f 40/105/1 39/103/1 20/104/1 19/106/1
f 41/107/1 40/105/1 19/106/1 18/108/1
f 42/109/1 41/107/1 18/108/1 17/110/1
f 43/10/1 42/109/1 17/110/1 16/11/1
f 64/31/1 63/37/1 95/38/1 92/32/1
