# Blender v2.83.0 OBJ File: 'RadialFill.blend'
# www.blender.org
mtllib RadialFill_000004.mtl
o Cube_Cube.001
v 0.348259 0.000000 1.030687
v 0.667729 -0.000000 1.978283
v -0.000000 -0.000000 1.091693
v 0.000000 0.000000 2.091693
v 0.190007 0.000000 1.071574
v 0.196430 0.000000 1.070235
v 0.202856 -0.000000 1.068914
v 0.209285 -0.000000 1.067611
v 0.215718 0.000000 1.066326
v 0.222154 0.000000 1.065060
v 0.228594 -0.000000 1.063811
v 0.235038 0.000000 1.062580
v 0.241486 0.000000 1.061367
v 0.247937 -0.000000 1.060172
v 0.254393 0.000000 1.058995
v 0.260854 -0.000000 1.057836
v 0.267318 0.000000 1.056694
v 0.273787 0.000000 1.055570
v 0.280261 -0.000000 1.054465
v 0.286544 0.000000 1.052671
v 0.292692 -0.000000 1.050393
v 0.298845 -0.000000 1.048133
v 0.305003 -0.000000 1.045890
v 0.311166 -0.000000 1.043665
v 0.317334 0.000000 1.041458
v 0.323508 -0.000000 1.039269
v 0.329687 -0.000000 1.037097
v 0.335872 -0.000000 1.034942
v 0.342063 0.000000 1.032806
v 0.655768 -0.000000 1.982326
v 0.643800 0.000000 1.986352
v 0.631827 0.000000 1.990361
v 0.619849 0.000000 1.994351
v 0.607865 -0.000000 1.998324
v 0.595875 -0.000000 2.002279
v 0.583880 0.000000 2.006217
v 0.571880 -0.000000 2.010137
v 0.559875 -0.000000 2.014039
v 0.547866 -0.000000 2.017923
v 0.535719 -0.000000 2.021285
v 0.523384 -0.000000 2.023921
v 0.511044 -0.000000 2.026538
v 0.498700 0.000000 2.029139
v 0.486352 -0.000000 2.031721
v 0.473999 0.000000 2.034285
v 0.461642 0.000000 2.036832
v 0.449281 -0.000000 2.039361
v 0.436916 0.000000 2.041871
v 0.424547 -0.000000 2.044364
v 0.412174 -0.000000 2.046839
v 0.399798 0.000000 2.049296
v 0.006591 0.000000 1.091057
v 0.387419 0.000000 2.051735
v 0.013182 -0.000000 1.090440
v 0.375036 -0.000000 2.054156
v 0.362649 -0.000000 2.056558
v 0.350260 0.000000 2.058943
v 0.337867 0.000000 2.061310
v 0.325472 0.000000 2.063658
v 0.313074 0.000000 2.065989
v 0.300673 -0.000000 2.068301
v 0.288269 -0.000000 2.070595
v 0.275863 -0.000000 2.072871
v 0.263372 0.000000 2.074256
v 0.250845 -0.000000 2.075263
v 0.238316 -0.000000 2.076252
v 0.225785 -0.000000 2.077224
v 0.019774 0.000000 1.089840
v 0.026366 0.000000 1.089258
v 0.213251 -0.000000 2.078179
v 0.032958 -0.000000 1.088693
v 0.200717 -0.000000 2.079115
v 0.039551 -0.000000 1.088147
v 0.188180 -0.000000 2.080034
v 0.175642 -0.000000 2.080935
v 0.046145 0.000000 1.087618
v 0.052739 0.000000 1.087107
v 0.059334 -0.000000 1.086613
v 0.065930 0.000000 1.086138
v 0.072527 0.000000 1.085680
v 0.079125 -0.000000 1.085239
v 0.085725 0.000000 1.084817
v 0.092326 0.000000 1.084412
v 0.098928 0.000000 1.084025
v 0.105532 0.000000 1.083655
v 0.112138 0.000000 1.083304
v 0.118745 0.000000 1.082969
v 0.125354 0.000000 1.082653
v 0.163102 -0.000000 2.081819
v 0.131966 0.000000 1.082354
v 0.150561 -0.000000 2.082685
v 0.138579 0.000000 1.082073
v 0.138019 -0.000000 2.083533
v 0.125475 -0.000000 2.084363
v 0.145132 0.000000 1.081453
v 0.151535 0.000000 1.079987
v 0.112931 0.000000 2.085176
v 0.100385 -0.000000 2.085971
v 0.087839 -0.000000 2.086749
v 0.157940 0.000000 1.078539
v 0.075292 0.000000 2.087508
v 0.164348 -0.000000 1.077110
v 0.062744 0.000000 2.088250
v 0.050196 -0.000000 2.088974
v 0.037648 -0.000000 2.089680
v 0.025099 0.000000 2.090369
v 0.170758 -0.000000 1.075699
v 0.177172 -0.000000 1.074306
v 0.183588 -0.000000 1.072931
v 0.012549 -0.000000 2.091040
vt 0.541667 0.500000
vt 0.550926 0.500000
vt 0.550926 0.750000
vt 0.541667 0.750000
vt 0.662037 0.500000
vt 0.671296 0.500000
vt 0.671296 0.750000
vt 0.662037 0.750000
vt 0.736111 0.500000
vt 0.745370 0.500000
vt 0.745371 0.750000
vt 0.736111 0.750000
vt 0.560185 0.500000
vt 0.560185 0.750000
vt 0.449074 0.500000
vt 0.458333 0.500000
vt 0.458333 0.750000
vt 0.449074 0.750000
vt 0.726852 0.500000
vt 0.726852 0.750000
vt 0.532408 0.500000
vt 0.532407 0.750000
vt 0.523148 0.500000
vt 0.523148 0.750000
vt 0.513889 0.500000
vt 0.513889 0.750000
vt 0.504630 0.500000
vt 0.504630 0.750000
vt 0.495370 0.500000
vt 0.495370 0.750000
vt 0.569445 0.500000
vt 0.569445 0.750000
vt 0.587963 0.500000
vt 0.597222 0.500000
vt 0.597222 0.750000
vt 0.587963 0.750000
vt 0.578704 0.500000
vt 0.578704 0.750000
vt 0.606482 0.500000
vt 0.615741 0.500000
vt 0.615741 0.750000
vt 0.606482 0.750000
vt 0.625000 0.500000
vt 0.625000 0.750000
vt 0.467593 0.500000
vt 0.467593 0.750000
vt 0.476852 0.500000
vt 0.476852 0.750000
vt 0.717593 0.500000
vt 0.717593 0.750000
vt 0.439815 0.500000
vt 0.439815 0.750000
vt 0.689815 0.500000
vt 0.699074 0.500000
vt 0.699074 0.750000
vt 0.689815 0.750000
vt 0.708333 0.500000
vt 0.708333 0.750000
vt 0.634259 0.500000
vt 0.643519 0.500000
vt 0.643519 0.750000
vt 0.634259 0.750000
vt 0.421296 0.500000
vt 0.430556 0.500000
vt 0.430556 0.750000
vt 0.421296 0.750000
vt 0.412037 0.500000
vt 0.412037 0.750000
vt 0.652778 0.500000
vt 0.652778 0.750000
vt 0.402778 0.500000
vt 0.402778 0.750000
vt 0.384259 0.500000
vt 0.393519 0.500000
vt 0.393519 0.750000
vt 0.384259 0.750000
vt 0.865741 0.500000
vt 0.875000 0.500000
vt 0.875000 0.750000
vt 0.865741 0.750000
vt 0.680556 0.500000
vt 0.680556 0.750000
vt 0.375000 0.500000
vt 0.375000 0.750000
vt 0.486111 0.500000
vt 0.486111 0.750000
vt 0.856481 0.500000
vt 0.856481 0.750000
vt 0.847222 0.500000
vt 0.847222 0.750000
vt 0.837963 0.500000
vt 0.837963 0.750000
vt 0.828704 0.500000
vt 0.828704 0.750000
vt 0.819444 0.500000
vt 0.819445 0.750000
vt 0.810185 0.500000
vt 0.810185 0.750000
vt 0.800926 0.500000
vt 0.800926 0.750000
vt 0.791667 0.500000
vt 0.791667 0.750000
vt 0.782407 0.500000
vt 0.782408 0.750000
vt 0.773148 0.500000
vt 0.773148 0.750000
vt 0.763889 0.500000
vt 0.763889 0.750000
vt 0.754630 0.500000
vt 0.754630 0.750000
vn -0.0000 1.0000 0.0000
usemtl None
s off
f 67/1/1 66/2/1 88/3/1 87/4/1
f 53/5/1 51/6/1 8/7/1 7/8/1
f 44/9/1 43/10/1 16/11/1 15/12/1
f 66/2/1 65/13/1 90/14/1 88/3/1
f 98/15/1 97/16/1 78/17/1 77/18/1
f 45/19/1 44/9/1 15/12/1 14/20/1
f 70/21/1 67/1/1 87/4/1 86/22/1
f 72/23/1 70/21/1 86/22/1 85/24/1
f 74/25/1 72/23/1 85/24/1 84/26/1
f 75/27/1 74/25/1 84/26/1 83/28/1
f 89/29/1 75/27/1 83/28/1 82/30/1
f 65/13/1 64/31/1 92/32/1 90/14/1
f 62/33/1 61/34/1 100/35/1 96/36/1
f 63/37/1 62/33/1 96/36/1 95/38/1
f 60/39/1 59/40/1 107/41/1 102/42/1
f 61/34/1 60/39/1 102/42/1 100/35/1
f 59/40/1 58/43/1 108/44/1 107/41/1
f 97/16/1 94/45/1 79/46/1 78/17/1
f 94/45/1 93/47/1 80/48/1 79/46/1
f 46/49/1 45/19/1 14/20/1 13/50/1
f 99/51/1 98/15/1 77/18/1 76/52/1
f 49/53/1 48/54/1 11/55/1 10/56/1
f 47/57/1 46/49/1 13/50/1 12/58/1
f 57/59/1 56/60/1 5/61/1 109/62/1
f 103/63/1 101/64/1 73/65/1 71/66/1
f 104/67/1 103/63/1 71/66/1 69/68/1
f 58/43/1 57/59/1 109/62/1 108/44/1
f 56/60/1 55/69/1 6/70/1 5/61/1
f 105/71/1 104/67/1 69/68/1 68/72/1
f 55/69/1 53/5/1 7/8/1 6/70/1
f 110/73/1 106/74/1 54/75/1 52/76/1
f 48/54/1 47/57/1 12/58/1 11/55/1
f 30/77/1 2/78/1 1/79/1 29/80/1
f 51/6/1 50/81/1 9/82/1 8/7/1
f 106/74/1 105/71/1 68/72/1 54/75/1
f 50/81/1 49/53/1 10/56/1 9/82/1
f 4/83/1 110/73/1 52/76/1 3/84/1
f 101/64/1 99/51/1 76/52/1 73/65/1
f 93/47/1 91/85/1 81/86/1 80/48/1
f 91/85/1 89/29/1 82/30/1 81/86/1
f 31/87/1 30/77/1 29/80/1 28/88/1
f 32/89/1 31/87/1 28/88/1 27/90/1
f 33/91/1 32/89/1 27/90/1 26/92/1
f 34/93/1 33/91/1 26/92/1 25/94/1
f 35/95/1 34/93/1 25/94/1 24/96/1
f 36/97/1 35/95/1 24/96/1 23/98/1
f 37/99/1 36/97/1 23/98/1 22/100/1
f 38/101/1 37/99/1 22/100/1 21/102/1
f 39/103/1 38/101/1 21/102/1 20/104/1
f 40/105/1 39/103/1 20/104/1 19/106/1
f 41/107/1 40/105/1 19/106/1 18/108/1
f 42/109/1 41/107/1 18/108/1 17/110/1
f 43/10/1 42/109/1 17/110/1 16/11/1
f 64/31/1 63/37/1 95/38/1 92/32/1
