# Rhino

mtllib Pannelli143.mtl
usemtl diffuse_Black
v 1.275779563888334 3 -0.31277279256233753
v 1.275779563888334 0 -0.31277279256233748
v 1.2757795638883369 3 0.31277279256232593
v 1.2757795638883369 0 0.31277279256232593
v 1.2571686242426332 3 -0.32009624294477845
v 1.2571686242426332 0 -0.32009624294477845
v 1.2571686242426361 3 0.32009624294476713
v 1.2571686242426361 0 0.32009624294476713
v 1.2531894123038447 3 -0.39364528739957666
v 1.2531894123038447 0 -0.39364528739957666
v 1.241067726956089 3 -0.37773727858860345
v 1.241067726956089 0 -0.37773727858860345
v 1.1664550071618185 3 -0.03494845829655116
v 1.1664550071618185 0 -0.03494845829655116
v 1.1664550071618187 3 0.034948458296540516
v 1.1664550071618187 0 0.034948458296540516
v 1.1478440675161177 3 -0.042271908678992116
v 1.1478440675161177 0 -0.042271908678992123
v 1.1478440675161179 3 0.042271908678981694
v 1.1478440675161179 0 0.042271908678981694
v 1.0157144625409598 3 -0.57459795427351879
v 1.0157144625409598 0 -0.57459795427351879
v 1.0035927771932043 3 -0.55868994546254558
v 1.0035927771932043 0 -0.55868994546254558
v 0.979492057683513 3 -0.634376849676201
v 0.979492057683513 0 -0.634376849676201
v 0.95977996641698093 3 -0.63099551001566478
v 0.95977996641698093 0 -0.63099551001566478
v 0.92901537794574629 3 -0.92863918878252871
v 0.92901537794574629 0 -0.92863918878252871
v 0.90930328667921423 3 -0.92525784912199249
v 0.90930328667921423 0 -0.92525784912199249
v 0.86778505811001883 3 -0.98609807236569635
v 0.86778505811001883 0 -0.98609807236569635
v 0.8656620084518386 3 -0.96621107510243665
v 0.8656620084518386 0 -0.96621107510243665
v 0.57091172014898139 3 -1.0177909835848982
v 0.57091172014898139 0 -1.0177909835848982
v 0.56878867049080117 3 -0.99790398632163857
v 0.56878867049080117 0 -0.99790398632163857
v 0.55245626641968748 3 1.1737660023280179
v 0.55245626641968748 0 1.1737660023280179
v 0.54879105325173727 3 1.1934272894790028
v 0.54879105325173727 0 1.1934272894790028
v 0.50895375528445042 3 -1.0501451106642548
v 0.5089537552844503 0 -1.0501451106642548
v 0.49384741241109353 3 -1.0370379216066197
v 0.49384741241109353 0 -1.0370379216066197
v 0.31328947699668641 3 -1.275652781522266
v 0.31328947699668641 0 -1.275652781522266
v 0.29818313412332953 3 -1.2625455924646309
v 0.29818313412332959 0 -1.2625455924646309
v 0.25895233177055116 3 1.1190516554055514
v 0.25895233177055116 0 1.1190516554055514
v 0.25528711860260095 3 1.1387129425565363
v 0.25528711860260089 0 1.1387129425565363
v 0.23963617758304273 3 -1.2749545313150841
v 0.23963617758304273 0 -1.2749545313150841
v 0.23114594179378162 3 -1.2930629795159307
v 0.23114594179378162 0 -1.2930629795159307
v 0.18665585425825787 3 1.1519541095639632
v 0.18665585425825787 0 1.1519541095639632
v 0.17593938412432503 3 1.1350675093179539
v 0.17593938412432503 0 1.1350675093179539
v -0.030686958258668545 3 -1.1482121877894091
v -0.030686958258668545 0 -1.1482121877894091
v -0.039177194047929707 3 -1.1663206359902558
v -0.039177194047929707 0 -1.1663206359902558
v -0.065427520395194172 3 1.3119297065686437
v -0.065427520395194172 0 1.3119297065686437
v -0.07614399052912707 3 1.2950431063226344
v -0.07614399052912707 0 1.2950431063226344
v -0.10893310358628386 3 -1.1618830652923917
v -0.10893310358628382 0 -1.1618830652923917
v -0.11506022052976625 3 -1.1428447240316386
v -0.11506022052976619 0 -1.1428447240316386
v -0.13579142603139138 3 1.2901531859216713
v -0.13579142603139141 0 1.2901531859216713
v -0.14911506809157588 3 1.3050689682428265
v -0.14911506809157585 0 1.3050689682428265
v -0.35845440663944156 3 1.0912576945690124
v -0.35845440663944156 0 1.0912576945690124
v -0.37177804869962605 3 1.1061734768901677
v -0.37177804869962605 0 1.1061734768901677
v -0.39313769438003043 3 -1.2533487418352105
v -0.39313769438003049 0 -1.2533487418352105
v -0.39926481132351282 3 -1.2343104005744574
v -0.39926481132351282 0 -1.2343104005744574
v -0.43733642105814741 3 1.0819313902860175
v -0.43733642105814741 0 1.0819313902860175
v -0.43775053770100364 3 1.0619356780604901
v -0.43775053770100364 0 1.0619356780604901
v -0.45576736094313308 3 -1.2145825073770862
v -0.45576736094313308 0 -1.2145825073770862
v -0.47241285141640688 3 -1.2256697814741826
v -0.47241285141640688 0 -1.2256697814741826
v -0.62127832403734207 3 -0.96609842235491827
v -0.62127832403734207 0 -0.96609842235491827
v -0.63792381451061575 3 -0.97718569645201481
v -0.63792381451061575 0 -0.97718569645201481
v -0.69065646274732173 3 -0.91778350827451016
v -0.69065646274732173 0 -0.91778350827451016
v -0.69528244966973696 3 -0.93724116088199705
v -0.69528244966973696 0 -0.93724116088199705
v -0.73583265730329916 3 1.0881133285868325
v -0.73583265730329916 0 1.0881133285868325
v -0.73624677394615545 3 1.0681176163613051
v -0.73624677394615545 0 1.0681176163613051
v -0.78472578127018744 3 1.033024686412368
v -0.78472578127018744 0 1.033024686412368
v -0.80385048914368307 3 1.0388766560597134
v -0.80385048914368307 0 1.0388766560597134
v -0.87208405561679658 3 0.74753081376908503
v -0.87208405561679658 0 0.74753081376908503
v -0.89120876349029221 3 0.75338278341643039
v -0.89120876349029221 0 0.7533827834164305
v -0.92470613611242747 3 0.68136002189102285
v -0.92470613611242747 0 0.68136002189102285
v -0.9347142649722544 3 0.69867583422325541
v -0.9347142649722544 0 0.69867583422325541
v -0.98112053844479541 3 -0.84872671901459096
v -0.98112053844479541 0 -0.84872671901459096
v -0.98574652536721064 3 -0.86818437162207784
v -0.98574652536721064 0 -0.86818437162207784
v -1.0192204775997611 3 -0.80257346864246182
v -1.0192204775997611 0 -0.80257346864246182
v -1.032001748448969 3 -0.50428693101604494
v -1.032001748448969 0 -0.50428693101604494
v -1.0392021425016538 3 -0.80342966239884595
v -1.0392021425016538 0 -0.80342966239884595
v -1.0519834133508617 3 -0.50514312477242918
v -1.0519834133508617 0 -0.50514312477242918
v -1.0662989139828822 3 -0.42701234599743892
v -1.0662989139828822 0 -0.42701234599743898
v -1.0803387229834149 3 -0.44125607315112164
v -1.0803387229834149 0 -0.4412560731511217
v -1.1332343282600912 3 0.18738429722954514
v -1.1332343282600912 0 0.18738429722954514
v -1.1439475995912738 3 0.10352201207797737
v -1.1439475995912738 0 0.10352201207797737
v -1.1526232568625603 3 0.18247823489317427
v -1.1526232568625603 0 0.18247823489317425
v -1.1614804939270302 3 0.11314477759581054
v -1.1614804939270302 0 0.11314477759581054
v -1.1831967940295884 3 0.53195855207485998
v -1.1831967940295884 0 0.53195855207485998
v -1.1932049228894153 3 0.54927436440709254
v -1.1932049228894153 0 0.54927436440709254
v -1.2064720867191885 3 0.4768224601410096
v -1.2064720867191885 0 0.4768224601410096
v -1.2258610153216576 3 0.47191639780463868
v -1.2258610153216576 0 0.47191639780463873
v -1.2789294468452839 3 -0.21742590581504659
v -1.2789294468452839 0 -0.21742590581504648
v -1.2875963607329672 3 -0.15820924863830257
v -1.2875963607329672 0 -0.15820924863830257
v -1.2929692558458166 3 -0.23166963296872925
v -1.2929692558458166 0 -0.23166963296872925
v -1.3051292550687237 3 -0.14858648312046938
v -1.3051292550687237 0 -0.14858648312046938
vn 0.91691917181015015 0 -0.39907297492027283
vn 0.91691917181015015 0 -0.39907297492027283
vn 0.91691917181015015 0 0.39907297492027283
vn 0.91691917181015015 0 0.39907297492027283
vn -0.39907297492027283 0 -0.91691917181015015
vn -0.39907297492027283 0 -0.91691917181015015
vn -0.39907297492027283 0 0.91691917181015015
vn -0.39907297492027283 0 0.91691917181015015
vn 0.99099934101104736 0 -0.13386672735214233
vn 0.99099934101104736 0 -0.13386672735214233
vn 0.13386672735214233 0 0.99099934101104736
vn 0.13386672735214233 0 0.99099934101104736
vn 0.39907297492027283 0 0.91691917181015015
vn 0.39907297492027283 0 0.91691917181015015
vn 0.39907297492027283 0 -0.91691917181015015
vn 0.39907297492027283 0 -0.91691917181015015
vn -0.91691917181015015 0 0.39907297492027283
vn -0.91691917181015015 0 0.39907297492027283
vn -0.91691917181015015 0 -0.39907297492027283
vn -0.91691917181015015 0 -0.39907297492027283
vn -0.13386672735214233 0 -0.99099934101104736
vn -0.13386672735214233 0 -0.99099934101104736
vn -0.99099934101104736 0 0.13386672735214233
vn -0.99099934101104736 0 0.13386672735214233
vn 0.81647604703903198 0 0.57737928628921509
vn 0.81647604703903198 0 0.57737928628921509
vn -0.57737928628921509 0 0.81647604703903198
vn -0.57737928628921509 0 0.81647604703903198
vn 0.57737928628921509 0 -0.81647604703903198
vn 0.57737928628921509 0 -0.81647604703903198
vn -0.81647604703903198 0 -0.57737928628921509
vn -0.81647604703903198 0 -0.57737928628921509
vn 0.77817267179489136 0 -0.62805038690567017
vn 0.77817267179489136 0 -0.62805038690567017
vn 0.62805038690567017 0 0.77817267179489136
vn 0.62805038690567017 0 0.77817267179489136
vn -0.62805038690567017 0 -0.77817267179489136
vn -0.62805038690567017 0 -0.77817267179489136
vn -0.77817267179489136 0 0.62805038690567017
vn -0.77817267179489136 0 0.62805038690567017
vn 0.82471632957458496 0 -0.56554663181304932
vn 0.82471632957458496 0 -0.56554663181304932
vn 0.56554663181304932 0 0.82471632957458496
vn 0.56554663181304932 0 0.82471632957458496
vn 0.99749898910522461 0 0.070680767297744751
vn 0.99749898910522461 0 0.070680767297744751
vn -0.070680767297744751 0 0.99749898910522461
vn -0.070680767297744751 0 0.99749898910522461
vn 0.070680767297744751 0 -0.99749898910522461
vn 0.070680767297744751 0 -0.99749898910522461
vn -0.99749898910522461 0 -0.070680767297744751
vn -0.99749898910522461 0 -0.070680767297744751
vn -0.56554663181304932 0 -0.82471632957458496
vn -0.56554663181304932 0 -0.82471632957458496
vn -0.82471632957458496 0 0.56554663181304932
vn -0.82471632957458496 0 0.56554663181304932
vn 0.94040548801422119 0 0.34005516767501831
vn 0.94040548801422119 0 0.34005516767501831
vn 0.34005516767501831 0 -0.94040548801422119
vn 0.34005516767501831 0 -0.94040548801422119
vn 0.97591590881347656 0 0.21814702451229095
vn 0.97591590881347656 0 0.21814702451229095
vn 0.21814702451229095 0 -0.97591590881347656
vn 0.21814702451229095 0 -0.97591590881347656
vn -0.34005516767501831 0 0.94040548801422119
vn -0.34005516767501831 0 0.94040548801422119
vn -0.94040548801422119 0 -0.34005516767501831
vn -0.94040548801422119 0 -0.34005516767501831
vn -0.21814702451229095 0 0.97591590881347656
vn -0.21814702451229095 0 0.97591590881347656
vn -0.97591590881347656 0 -0.21814702451229095
vn -0.97591590881347656 0 -0.21814702451229095
vn 0.88973331451416016 0 -0.4564807116985321
vn 0.88973331451416016 0 -0.4564807116985321
vn 0.4564807116985321 0 0.88973331451416016
vn 0.4564807116985321 0 0.88973331451416016
vn 0.99841439723968506 0 -0.056290656328201294
vn 0.99841439723968506 0 -0.056290656328201294
vn 0.056290656328201294 0 0.99841439723968506
vn 0.056290656328201294 0 0.99841439723968506
vn -0.056290656328201294 0 -0.99841439723968506
vn -0.056290656328201294 0 -0.99841439723968506
vn -0.99841439723968506 0 0.056290656328201294
vn -0.99841439723968506 0 0.056290656328201294
vn -0.4564807116985321 0 -0.88973331451416016
vn -0.4564807116985321 0 -0.88973331451416016
vn -0.88973331451416016 0 0.4564807116985321
vn -0.88973331451416016 0 0.4564807116985321
vn 0.72159641981124878 0 0.69231396913528442
vn 0.72159641981124878 0 0.69231396913528442
vn 0.69231396913528442 0 -0.72159641981124878
vn 0.69231396913528442 0 -0.72159641981124878
vn 0.98050129413604736 0 -0.19651259481906891
vn 0.98050129413604736 0 -0.19651259481906891
vn -0.19651259481906891 0 -0.98050129413604736
vn -0.19651259481906891 0 -0.98050129413604736
vn 0.19651259481906891 0 0.98050129413604736
vn 0.19651259481906891 0 0.98050129413604736
vn -0.98050129413604736 0 0.19651259481906891
vn -0.98050129413604736 0 0.19651259481906891
vn 0.85148525238037109 0 0.52437859773635864
vn 0.85148525238037109 0 0.52437859773635864
vn 0.52437859773635864 0 -0.85148525238037109
vn 0.52437859773635864 0 -0.85148525238037109
vn -0.69231396913528442 0 0.72159641981124878
vn -0.69231396913528442 0 0.72159641981124878
vn -0.72159641981124878 0 -0.69231396913528442
vn -0.72159641981124878 0 -0.69231396913528442
vn 0.88305890560150146 0 0.46926215291023254
vn 0.88305890560150146 0 0.46926215291023254
vn -0.46926215291023254 0 0.88305890560150146
vn -0.46926215291023254 0 0.88305890560150146
vn 0.46926215291023254 0 -0.88305890560150146
vn 0.46926215291023254 0 -0.88305890560150146
vn -0.88305890560150146 0 -0.46926215291023254
vn -0.88305890560150146 0 -0.46926215291023254
vn 0.96604722738265991 0 -0.25836560130119324
vn 0.96604722738265991 0 -0.25836560130119324
vn 0.25836560130119324 0 0.96604722738265991
vn 0.25836560130119324 0 0.96604722738265991
vn -0.52437859773635864 0 0.85148525238037109
vn -0.52437859773635864 0 0.85148525238037109
vn -0.85148525238037109 0 -0.52437859773635864
vn -0.85148525238037109 0 -0.52437859773635864
vn 0.73672956228256226 0 -0.67618751525878906
vn 0.73672956228256226 0 -0.67618751525878906
vn 0.67618751525878906 0 0.73672956228256226
vn 0.67618751525878906 0 0.73672956228256226
vn -0.67618751525878906 0 -0.73672956228256226
vn -0.67618751525878906 0 -0.73672956228256226
vn -0.73672956228256226 0 0.67618751525878906
vn -0.73672956228256226 0 0.67618751525878906
vn 0.99997401237487793 0 0.0072095980867743492
vn 0.99997401237487793 0 0.0072095980867743492
vn 0.0072095980867743492 0 -0.99997401237487793
vn 0.0072095980867743492 0 -0.99997401237487793
vn 0.85895764827728271 0 -0.51204663515090942
vn 0.85895764827728271 0 -0.51204663515090942
vn 0.9600975513458252 0 0.2796652615070343
vn 0.9600975513458252 0 0.2796652615070343
vn -0.51204663515090942 0 -0.85895764827728271
vn -0.51204663515090942 0 -0.85895764827728271
vn -0.2796652615070343 0 0.9600975513458252
vn -0.2796652615070343 0 0.9600975513458252
vn -0.25836560130119324 0 -0.96604722738265991
vn -0.25836560130119324 0 -0.96604722738265991
vn -0.96604722738265991 0 0.25836560130119324
vn -0.96604722738265991 0 0.25836560130119324
vn 0.51204663515090942 0 0.85895764827728271
vn 0.51204663515090942 0 0.85895764827728271
vn -0.85895764827728271 0 0.51204663515090942
vn -0.85895764827728271 0 0.51204663515090942
vn -0.0072095980867743492 0 0.99997401237487793
vn -0.0072095980867743492 0 0.99997401237487793
vn 0.2796652615070343 0 -0.9600975513458252
vn 0.2796652615070343 0 -0.9600975513458252
vn -0.99997401237487793 0 -0.0072095980867743492
vn -0.99997401237487793 0 -0.0072095980867743492
vn -0.9600975513458252 0 -0.2796652615070343
vn -0.9600975513458252 0 -0.2796652615070343
f 6//6 18//18 17//17 5//5
f 18//18 14//14 13//13 17//17
f 14//14 2//2 1//1 13//13
f 2//2 6//6 5//5 1//1
f 32//32 28//28 27//27 31//31
f 28//28 26//26 25//25 27//27
f 26//26 30//30 29//29 25//25
f 30//30 32//32 31//31 29//29
f 52//52 48//48 47//47 51//51
f 48//48 46//46 45//45 47//47
f 46//46 50//50 49//49 45//45
f 50//50 52//52 51//51 49//49
f 88//88 76//76 75//75 87//87
f 76//76 74//74 73//73 75//75
f 74//74 86//86 85//85 73//73
f 86//86 88//88 87//87 85//85
f 122//122 102//102 101//101 121//121
f 102//102 104//104 103//103 101//101
f 104//104 124//124 123//123 103//103
f 124//124 122//122 121//121 123//123
f 154//154 134//134 133//133 153//153
f 134//134 136//136 135//135 133//133
f 136//136 158//158 157//157 135//135
f 158//158 154//154 153//153 157//157
f 150//150 138//138 137//137 149//149
f 138//138 142//142 141//141 137//137
f 142//142 152//152 151//151 141//141
f 152//152 150//150 149//149 151//151
f 110//110 114//114 113//113 109//109
f 114//114 116//116 115//115 113//113
f 116//116 112//112 111//111 115//115
f 112//112 110//110 109//109 111//111
f 78//78 82//82 81//81 77//77
f 82//82 84//84 83//83 81//81
f 84//84 80//80 79//79 83//83
f 80//80 78//78 77//77 79//79
f 42//42 54//54 53//53 41//41
f 54//54 56//56 55//55 53//53
f 56//56 44//44 43//43 55//55
f 44//44 42//42 41//41 43//43
f 8//8 4//4 3//3 7//7
f 4//4 16//16 15//15 3//3
f 16//16 20//20 19//19 15//15
f 20//20 8//8 7//7 19//19
f 12//12 10//10 9//9 11//11
f 10//10 22//22 21//21 9//9
f 22//22 24//24 23//23 21//21
f 24//24 12//12 11//11 23//23
f 36//36 34//34 33//33 35//35
f 34//34 38//38 37//37 33//33
f 38//38 40//40 39//39 37//37
f 40//40 36//36 35//35 39//39
f 58//58 60//60 59//59 57//57
f 60//60 68//68 67//67 59//59
f 68//68 66//66 65//65 67//67
f 66//66 58//58 57//57 65//65
f 94//94 96//96 95//95 93//93
f 96//96 100//100 99//99 95//95
f 100//100 98//98 97//97 99//99
f 98//98 94//94 93//93 97//97
f 126//126 130//130 129//129 125//125
f 130//130 132//132 131//131 129//129
f 132//132 128//128 127//127 131//131
f 128//128 126//126 125//125 127//127
f 156//156 160//160 159//159 155//155
f 160//160 144//144 143//143 159//159
f 144//144 140//140 139//139 143//143
f 140//140 156//156 155//155 139//139
f 146//146 148//148 147//147 145//145
f 148//148 120//120 119//119 147//147
f 120//120 118//118 117//117 119//119
f 118//118 146//146 145//145 117//117
f 108//108 106//106 105//105 107//107
f 106//106 90//90 89//89 105//105
f 90//90 92//92 91//91 89//89
f 92//92 108//108 107//107 91//91
f 72//72 70//70 69//69 71//71
f 70//70 62//62 61//61 69//69
f 62//62 64//64 63//63 61//61
f 64//64 72//72 71//71 63//63
