# Rhino

mtllib Pannelli105.mtl
usemtl diffuse_Black
v 1.3755661460811492 3 -0.2553121501845742
v 1.3755661460811492 0 -0.2553121501845742
v 1.375566146081149 3 0.25531215018457626
v 1.375566146081149 0 0.25531215018457626
v 1.3607156762647064 3 -0.2687085506798908
v 1.3607156762647064 0 -0.2687085506798908
v 1.3607156762647061 3 0.26870855067989291
v 1.3607156762647061 0 0.26870855067989291
v 1.3588149740885858 3 -0.3331491895068226
v 1.3588149740885858 0 -0.3331491895068226
v 1.35079000232126 3 -0.31482980556156859
v 1.35079000232126 0 -0.31482980556156859
v 1.1706477224288689 3 -0.028151513538549808
v 1.1706477224288689 0 -0.028151513538549781
v 1.1706477224288687 3 0.02815151353855145
v 1.1706477224288687 0 0.02815151353855145
v 1.1557972526124261 3 -0.041547914033866436
v 1.1557972526124261 0 -0.041547914033866387
v 1.1557972526124258 3 0.041547914033868101
v 1.1557972526124258 0 0.041547914033868101
v 1.1487623629156669 3 -0.79856843778403241
v 1.1487623629156669 0 -0.79856843778403241
v 1.1297157891512366 3 -0.80466991529657916
v 1.1297157891512366 0 -0.80466991529657916
v 1.1016961870415676 3 -0.84262503422286006
v 1.1016961870415676 0 -0.84262503422286006
v 1.1014747755159044 3 -0.86262380860871446
v 1.1014747755159044 0 -0.86262380860871446
v 1.078591993172576 3 -0.45590339986275463
v 1.078591993172576 0 -0.45590339986275463
v 1.0705670214052505 3 -0.43758401591750062
v 1.0705670214052505 0 -0.43758401591750062
v 1.0554309374885149 3 -0.50722197698298088
v 1.0554309374885149 0 -0.50722197698298088
v 1.0363843637240846 3 -0.51332345449552763
v 1.0363843637240846 0 -0.51332345449552763
v 0.79578436217789805 3 -0.8392382064825894
v 0.79578436217789805 0 -0.8392382064825894
v 0.79556295065223503 3 -0.8592369808684438
v 0.79556295065223503 0 -0.8592369808684438
v 0.75334168888310538 3 -0.89648474472974693
v 0.75334168888310538 0 -0.89648474472974693
v 0.73347135893624282 3 -0.89421098401172572
v 0.73347135893624282 0 -0.89421098401172572
v 0.71856104297286461 3 -1.2004318155556215
v 0.71856104297286461 0 -1.2004318155556215
v 0.69869071302600205 3 -1.1981580548376003
v 0.69869071302600205 0 -1.1981580548376003
v 0.65753827673661824 3 -1.2212267813421238
v 0.65753827673661824 0 -1.2212267813421238
v 0.64910968459415774 3 -1.2393640036899933
v 0.64910968459415774 0 -1.2393640036899933
v 0.38010173590942703 3 -1.0922985803641958
v 0.38010173590942703 0 -1.0922985803641958
v 0.37167314376696653 3 -1.1104358027120653
v 0.37167314376696653 0 -1.1104358027120653
v 0.31786728698839123 3 -1.1270177397029064
v 0.31786728698839128 0 -1.1270177397029064
v 0.30069140122552096 3 -1.1167713282207912
v 0.30069140122552096 0 -1.1167713282207912
v 0.16113276044585009 3 -1.3897491679391343
v 0.16113276044585012 0 -1.3897491679391343
v 0.1439568746829798 3 -1.379502756457019
v 0.1439568746829798 0 -1.379502756457019
v 0.096957971215322236 3 -1.3836005885582783
v 0.096957971215322236 0 -1.3836005885582783
v 0.081814547905889518 3 -1.3966649190222296
v 0.081814547905889518 0 -1.3966649190222296
v -0.10288093369658544 3 -1.1519587804208604
v -0.10288093369658544 0 -1.1519587804208604
v -0.11802435700601813 3 -1.1650231108848119
v -0.11802435700601813 0 -1.1650231108848119
v -0.17388805279449615 3 -1.1580032568338259
v -0.17388805279449615 0 -1.1580032568338259
v -0.18532836683567402 3 -1.1415984034471227
v -0.18532836683567402 0 -1.1415984034471227
v -0.42482536221766748 3 -1.3330003480468577
v -0.42482536221766748 0 -1.3330003480468577
v -0.43626567625884533 3 -1.3165954946601546
v -0.43626567625884533 0 -1.3165954946601546
v -0.48078951626871558 3 -1.3009968785078234
v -0.48078951626871558 0 -1.3009968785078234
v -0.49996650689199684 3 -1.3066751732020594
v -0.49996650689199684 0 -1.3066751732020594
v -0.56764771360185506 3 -1.0076554924921433
v -0.56764771360185506 0 -1.0076554924921433
v -0.58682470422513622 3 -1.0133337871863795
v -0.58682470422513622 0 -1.0133337871863795
v -0.63485512621771922 3 -0.98395506323078241
v -0.63485512621771922 0 -0.98395506323078241
v -0.63853426970923766 3 -0.96429637804665036
v -0.63853426970923766 0 -0.96429637804665036
v -0.87715962528244718 3 0.75378014704644125
v -0.87715962528244718 0 0.75378014704644125
v -0.89550617338754868 3 1.0591601060584723
v -0.89550617338754868 0 1.0591601060584723
v -0.89712362930538658 3 0.75258075412831305
v -0.89712362930538658 0 0.75258075412831305
v -0.91547017741048808 3 1.0579607131403443
v -0.91547017741048808 0 1.0579607131403443
v -0.92901853604923978 3 0.68885272590294999
v -0.92901853604923978 0 0.68885272590294999
v -0.931907939296164 3 -0.68493876440436241
v -0.931907939296164 0 -0.68493876440436241
v -0.9322615384518198 3 0.70858804792760566
v -0.9322615384518198 0 0.70858804792760566
v -0.93556476687209777 3 -1.0402331869652945
v -0.93556476687209777 0 -1.0402331869652945
v -0.93924391036361621 3 -1.0205745017811625
v -0.93924391036361621 0 -1.0205745017811625
v -0.95172305812291291 3 -0.68222563597359753
v -0.95172305812291291 0 -0.68222563597359753
v -0.97340938600140925 3 -0.98804129675098329
v -0.97340938600140925 0 -0.98804129675098329
v -0.97868258835178112 3 -0.61625798945251486
v -0.97868258835178112 0 -0.61625798945251486
v -0.98341603710320058 3 -0.63568977946058369
v -0.98341603710320058 0 -0.63568977946058369
v -0.99322450482815805 3 -0.98532816832021852
v -0.99322450482815805 0 -0.98532816832021852
v -1.109583819543809 3 0.32621659325296321
v -1.109583819543809 0 0.32621659325296321
v -1.12728704307655 3 0.31691090270632427
v -1.12728704307655 0 0.31691090270632433
v -1.1301428899015105 3 0.24570422607692305
v -1.1301428899015105 0 0.24570422607692305
v -1.1311664331484079 3 -0.24094816626259208
v -1.1311664331484079 0 -0.24094816626259208
v -1.1412171996433291 3 0.26235834459884622
v -1.1412171996433291 0 0.26235834459884622
v -1.1455473505480924 3 -0.15910620968159445
v -1.1455473505480924 0 -0.1591062096815945
v -1.1481112553812789 3 -0.23032399573043286
v -1.1481112553812789 0 -0.23032399573043286
v -1.1578552966956996 3 -0.17487055114032982
v -1.1578552966956996 0 -0.17487055114032982
v -1.2309004543284374 3 0.63924604682004216
v -1.2309004543284374 0 0.63924604682004216
v -1.2341434567310174 3 0.65898136884469793
v -1.2341434567310174 0 0.65898136884469793
v -1.2519285813684373 3 0.59701445878120663
v -1.2519285813684373 0 0.59701445878120651
v -1.2696318049011783 3 0.58770876823456764
v -1.2696318049011783 0 0.58770876823456764
v -1.2759215204505701 3 -0.54385265513014625
v -1.2759215204505701 0 -0.54385265513014625
v -1.2806549692019895 3 -0.56328444513821507
v -1.2806549692019895 0 -0.56328444513821507
v -1.293679361813401 3 -0.50014512459792748
v -1.293679361813401 0 -0.50014512459792748
v -1.3106241840462722 3 -0.48952095406576823
v -1.3106241840462722 0 -0.48952095406576823
v -1.384893090600857 3 0.076305730106015712
v -1.384893090600857 0 0.076305730106015712
v -1.3866870509302727 3 0.029162640883641004
v -1.3866870509302727 0 0.02916264088364097
v -1.3959674003426754 3 0.092959848627938824
v -1.3959674003426754 0 0.092959848627938824
v -1.3989949970778799 3 0.013398299424905625
v -1.3989949970778799 0 0.013398299424905658
vn 0.99867767095565796 0 -0.051409125328063965
vn 0.99867767095565796 0 -0.051409125328063965
vn 0.99867767095565796 0 0.051409125328063965
vn 0.99867767095565796 0 0.051409125328063965
vn -0.051409125328063965 0 -0.99867767095565796
vn -0.051409125328063965 0 -0.99867767095565796
vn -0.051409125328063965 0 0.99867767095565796
vn -0.051409125328063965 0 0.99867767095565796
vn 0.93141365051269531 0 -0.36396244168281555
vn 0.93141365051269531 0 -0.36396244168281555
vn 0.36396244168281555 0 0.93141365051269531
vn 0.36396244168281555 0 0.93141365051269531
vn 0.051409125328063965 0 0.99867767095565796
vn 0.051409125328063965 0 0.99867767095565796
vn 0.051409125328063965 0 -0.99867767095565796
vn 0.051409125328063965 0 -0.99867767095565796
vn -0.99867767095565796 0 0.051409125328063965
vn -0.99867767095565796 0 0.051409125328063965
vn -0.99867767095565796 0 -0.051409125328063965
vn -0.99867767095565796 0 -0.051409125328063965
vn 0.88911789655685425 0 -0.45767828822135925
vn 0.88911789655685425 0 -0.45767828822135925
vn -0.45767828822135925 0 -0.88911789655685425
vn -0.45767828822135925 0 -0.88911789655685425
vn 0.71489155292510986 0 0.69923537969589233
vn 0.71489155292510986 0 0.69923537969589233
vn 0.69923537969589233 0 -0.71489155292510986
vn 0.69923537969589233 0 -0.71489155292510986
vn -0.36396244168281555 0 -0.93141365051269531
vn -0.36396244168281555 0 -0.93141365051269531
vn -0.93141365051269531 0 0.36396244168281555
vn -0.93141365051269531 0 0.36396244168281555
vn 0.45767828822135925 0 0.88911789655685425
vn 0.45767828822135925 0 0.88911789655685425
vn -0.88911789655685425 0 0.45767828822135925
vn -0.88911789655685425 0 0.45767828822135925
vn -0.69923537969589233 0 0.71489155292510986
vn -0.69923537969589233 0 0.71489155292510986
vn -0.71489155292510986 0 -0.69923537969589233
vn -0.71489155292510986 0 -0.69923537969589233
vn 0.78291183710098267 0 0.62213265895843506
vn 0.78291183710098267 0 0.62213265895843506
vn -0.62213265895843506 0 0.78291183710098267
vn -0.62213265895843506 0 0.78291183710098267
vn 0.62213265895843506 0 -0.78291183710098267
vn 0.62213265895843506 0 -0.78291183710098267
vn -0.78291183710098267 0 -0.62213265895843506
vn -0.78291183710098267 0 -0.62213265895843506
vn 0.9392433762550354 0 0.34325191378593445
vn 0.9392433762550354 0 0.34325191378593445
vn 0.34325191378593445 0 -0.9392433762550354
vn 0.34325191378593445 0 -0.9392433762550354
vn -0.34325191378593445 0 0.9392433762550354
vn -0.34325191378593445 0 0.9392433762550354
vn -0.9392433762550354 0 -0.34325191378593445
vn -0.9392433762550354 0 -0.34325191378593445
vn 0.96952462196350098 0 0.2449938952922821
vn 0.96952462196350098 0 0.2449938952922821
vn -0.2449938952922821 0 0.96952462196350098
vn -0.2449938952922821 0 0.96952462196350098
vn 0.2449938952922821 0 -0.96952462196350098
vn 0.2449938952922821 0 -0.96952462196350098
vn -0.96952462196350098 0 -0.2449938952922821
vn -0.96952462196350098 0 -0.2449938952922821
vn 0.99729472398757935 0 -0.073507010936737061
vn 0.99729472398757935 0 -0.073507010936737061
vn -0.073507010936737061 0 -0.99729472398757935
vn -0.073507010936737061 0 -0.99729472398757935
vn 0.073507010936737061 0 0.99729472398757935
vn 0.073507010936737061 0 0.99729472398757935
vn -0.99729472398757935 0 0.073507010936737061
vn -0.99729472398757935 0 0.073507010936737061
vn 0.98447531461715698 0 -0.17552295327186584
vn 0.98447531461715698 0 -0.17552295327186584
vn 0.17552295327186584 0 0.98447531461715698
vn 0.17552295327186584 0 0.98447531461715698
vn -0.17552295327186584 0 -0.98447531461715698
vn -0.17552295327186584 0 -0.98447531461715698
vn -0.98447531461715698 0 0.17552295327186584
vn -0.98447531461715698 0 0.17552295327186584
vn 0.87876701354980469 0 -0.47725099325180054
vn 0.87876701354980469 0 -0.47725099325180054
vn -0.47725099325180054 0 -0.87876701354980469
vn -0.47725099325180054 0 -0.87876701354980469
vn 0.47725099325180054 0 0.87876701354980469
vn 0.47725099325180054 0 0.87876701354980469
vn -0.87876701354980469 0 0.47725099325180054
vn -0.87876701354980469 0 0.47725099325180054
vn 0.82511687278747559 0 -0.56496208906173706
vn 0.82511687278747559 0 -0.56496208906173706
vn 0.56496208906173706 0 0.82511687278747559
vn 0.56496208906173706 0 0.82511687278747559
vn 0.74823909997940063 0 -0.66342920064926147
vn 0.74823909997940063 0 -0.66342920064926147
vn 0.66342920064926147 0 0.74823909997940063
vn 0.66342920064926147 0 0.74823909997940063
vn -0.66342920064926147 0 -0.74823909997940063
vn -0.66342920064926147 0 -0.74823909997940063
vn -0.74823909997940063 0 0.66342920064926147
vn -0.74823909997940063 0 0.66342920064926147
vn 0.81240648031234741 0 -0.58309155702590942
vn 0.81240648031234741 0 -0.58309155702590942
vn 0.79649382829666138 0 0.60464662313461304
vn 0.79649382829666138 0 0.60464662313461304
vn 0.58309155702590942 0 0.81240648031234741
vn 0.58309155702590942 0 0.81240648031234741
vn -0.56496208906173706 0 -0.82511687278747559
vn -0.56496208906173706 0 -0.82511687278747559
vn -0.82511687278747559 0 0.56496208906173706
vn -0.82511687278747559 0 0.56496208906173706
vn -0.60464662313461304 0 0.79649382829666138
vn -0.60464662313461304 0 0.79649382829666138
vn 0.60464662313461304 0 -0.79649382829666138
vn 0.60464662313461304 0 -0.79649382829666138
vn 0.85437023639678955 0 0.51966482400894165
vn 0.85437023639678955 0 0.51966482400894165
vn 0.51966482400894165 0 -0.85437023639678955
vn 0.51966482400894165 0 -0.85437023639678955
vn -0.79649382829666138 0 -0.60464662313461304
vn -0.79649382829666138 0 -0.60464662313461304
vn 0.95490932464599609 0 -0.29689761996269226
vn 0.95490932464599609 0 -0.29689761996269226
vn -0.29689761996269226 0 -0.95490932464599609
vn -0.29689761996269226 0 -0.95490932464599609
vn 0.98034799098968506 0 -0.19727602601051331
vn 0.98034799098968506 0 -0.19727602601051331
vn 0.97471106052398682 0 0.22346878051757813
vn 0.97471106052398682 0 0.22346878051757813
vn 0.19727602601051331 0 0.98034799098968506
vn 0.19727602601051331 0 0.98034799098968506
vn 0.99250525236129761 0 0.12220200151205063
vn 0.99250525236129761 0 0.12220200151205063
vn -0.22346878051757813 0 0.97471106052398682
vn -0.22346878051757813 0 0.97471106052398682
vn 0.12220200151205063 0 -0.99250525236129761
vn 0.12220200151205063 0 -0.99250525236129761
vn -0.58309155702590942 0 -0.81240648031234741
vn -0.58309155702590942 0 -0.81240648031234741
vn -0.81240648031234741 0 0.58309155702590942
vn -0.81240648031234741 0 0.58309155702590942
vn 0.29689761996269226 0 0.95490932464599609
vn 0.29689761996269226 0 0.95490932464599609
vn -0.95490932464599609 0 0.29689761996269226
vn -0.95490932464599609 0 0.29689761996269226
vn -0.51966482400894165 0 0.85437023639678955
vn -0.51966482400894165 0 0.85437023639678955
vn -0.85437023639678955 0 -0.51966482400894165
vn -0.85437023639678955 0 -0.51966482400894165
vn 0.22346878051757813 0 -0.97471106052398682
vn 0.22346878051757813 0 -0.97471106052398682
vn -0.97471106052398682 0 -0.22346878051757813
vn -0.97471106052398682 0 -0.22346878051757813
vn -0.19727602601051331 0 -0.98034799098968506
vn -0.19727602601051331 0 -0.98034799098968506
vn -0.12220200151205063 0 0.99250525236129761
vn -0.12220200151205063 0 0.99250525236129761
vn -0.98034799098968506 0 0.19727602601051331
vn -0.98034799098968506 0 0.19727602601051331
vn -0.99250525236129761 0 -0.12220200151205063
vn -0.99250525236129761 0 -0.12220200151205063
f 6//6 18//18 17//17 5//5
f 18//18 14//14 13//13 17//17
f 14//14 2//2 1//1 13//13
f 2//2 6//6 5//5 1//1
f 24//24 36//36 35//35 23//23
f 36//36 34//34 33//33 35//35
f 34//34 22//22 21//21 33//33
f 22//22 24//24 23//23 21//21
f 48//48 44//44 43//43 47//47
f 44//44 42//42 41//41 43//43
f 42//42 46//46 45//45 41//41
f 46//46 48//48 47//47 45//45
f 64//64 60//60 59//59 63//63
f 60//60 58//58 57//57 59//59
f 58//58 62//62 61//61 57//57
f 62//62 64//64 63//63 61//61
f 80//80 76//76 75//75 79//79
f 76//76 74//74 73//73 75//75
f 74//74 78//78 77//77 73//73
f 78//78 80//80 79//79 77//77
f 110//110 92//92 91//91 109//109
f 92//92 90//90 89//89 91//91
f 90//90 108//108 107//107 89//89
f 108//108 110//110 109//109 107//107
f 146//146 116//116 115//115 145//145
f 116//116 118//118 117//117 115//115
f 118//118 148//148 147//147 117//117
f 148//148 146//146 145//145 147//147
f 156//156 132//132 131//131 155//155
f 132//132 136//136 135//135 131//131
f 136//136 160//160 159//159 135//135
f 160//160 156//156 155//155 159//159
f 142//142 122//122 121//121 141//141
f 122//122 124//124 123//123 121//121
f 124//124 144//144 143//143 123//123
f 144//144 142//142 141//141 143//143
f 96//96 94//94 93//93 95//95
f 94//94 98//98 97//97 93//93
f 98//98 100//100 99//99 97//97
f 100//100 96//96 95//95 99//99
f 8//8 4//4 3//3 7//7
f 4//4 16//16 15//15 3//3
f 16//16 20//20 19//19 15//15
f 20//20 8//8 7//7 19//19
f 12//12 10//10 9//9 11//11
f 10//10 30//30 29//29 9//9
f 30//30 32//32 31//31 29//29
f 32//32 12//12 11//11 31//31
f 26//26 28//28 27//27 25//25
f 28//28 40//40 39//39 27//27
f 40//40 38//38 37//37 39//39
f 38//38 26//26 25//25 37//37
f 50//50 52//52 51//51 49//49
f 52//52 56//56 55//55 51//51
f 56//56 54//54 53//53 55//55
f 54//54 50//50 49//49 53//53
f 66//66 68//68 67//67 65//65
f 68//68 72//72 71//71 67//67
f 72//72 70//70 69//69 71//71
f 70//70 66//66 65//65 69//69
f 82//82 84//84 83//83 81//81
f 84//84 88//88 87//87 83//83
f 88//88 86//86 85//85 87//87
f 86//86 82//82 81//81 85//85
f 114//114 120//120 119//119 113//113
f 120//120 112//112 111//111 119//119
f 112//112 104//104 103//103 111//111
f 104//104 114//114 113//113 103//103
f 150//150 152//152 151//151 149//149
f 152//152 134//134 133//133 151//151
f 134//134 128//128 127//127 133//133
f 128//128 150//150 149//149 127//127
f 154//154 158//158 157//157 153//153
f 158//158 130//130 129//129 157//157
f 130//130 126//126 125//125 129//129
f 126//126 154//154 153//153 125//125
f 138//138 140//140 139//139 137//137
f 140//140 106//106 105//105 139//139
f 106//106 102//102 101//101 105//105
f 102//102 138//138 137//137 101//101
