# Rhino

mtllib Pannelli79.mtl
usemtl diffuse_Black
v 1.4305157773204979 3 -0.19841548569481121
v 1.4305157773204979 0 -0.19841548569481124
v 1.4305157773204993 3 0.19841548569479889
v 1.4305157773204993 0 0.19841548569479889
v 1.4192843820673176 3 -0.21496407357012093
v 1.4192843820673176 0 -0.21496407357012087
v 1.4192843820673191 3 0.21496407357010872
v 1.4192843820673191 0 0.21496407357010872
v 1.41830068627812 3 -0.27233666192672135
v 1.41830068627812 0 -0.27233666192672135
v 1.4129901199857098 3 -0.25305460068695956
v 1.4129901199857098 0 -0.25305460068695956
v 1.2906381011239729 3 -0.64807205313412652
v 1.2906381011239729 0 -0.64807205313412641
v 1.2746800014426509 3 -0.66012771796693415
v 1.2746800014426509 0 -0.66012771796693404
v 1.2564664225934372 3 -0.69416845145923822
v 1.2564664225934372 0 -0.69416845145923822
v 1.255291539292559 3 -0.7141339128671127
v 1.255291539292559 0 -0.7141339128671127
v 1.171990372494232 3 -0.022956345224923888
v 1.171990372494232 0 -0.022956345224923944
v 1.171990372494232 3 0.022956345224913782
v 1.171990372494232 0 0.022956345224913782
v 1.1607589772410516 3 -0.039504933100233584
v 1.1607589772410516 0 -0.039504933100233577
v 1.1607589772410518 3 0.039504933100223592
v 1.1607589772410518 0 0.039504933100223592
v 1.1170724047199276 3 -0.35529940841280883
v 1.1170724047199276 0 -0.35529940841280883
v 1.1117618384275176 3 -0.33601734717304693
v 1.1117618384275176 0 -0.33601734717304693
v 1.1023020536717643 3 -0.3987713749459279
v 1.1023020536717643 0 -0.3987713749459279
v 1.0863439539904423 3 -0.41082703977873547
v 1.0863439539904423 0 -0.41082703977873553
v 1.0135394844694623 3 -1.0288254504762959
v 1.0135394844694623 0 -1.0288254504762959
v 0.99455134919713106 3 -1.0351064312022384
v 0.99455134919713106 0 -1.0351064312022384
v 0.9663549254825583 3 -1.0614781524372823
v 0.9663549254825583 0 -1.0614781524372823
v 0.95881950645180103 3 -1.0800042815535038
v 0.95881950645180103 0 -1.0800042815535038
v 0.94456192464440358 3 -0.67581418562871698
v 0.94456192464440358 0 -0.67581418562871698
v 0.94338704134352536 3 -0.69577964703659145
v 0.94338704134352536 0 -0.69577964703659145
v 0.91541672637582738 3 -0.73218894014907021
v 0.91541672637582738 0 -0.73218894014907021
v 0.89642859110349615 3 -0.73846992087501273
v 0.89642859110349615 0 -0.73846992087501273
v 0.67693596927175814 3 -0.94375830406468542
v 0.67693596927175814 0 -0.94375830406468542
v 0.66940055024100098 3 -0.96228443318090695
v 0.66940055024100098 0 -0.96228443318090695
v 0.63120408168947062 3 -0.98776000843514966
v 0.63120408168947062 0 -0.98776000843514966
v 0.62868111616258493 3 -1.3001938887361928
v 0.62868111616258493 0 -1.3001938887361928
v 0.61120473374585016 3 -0.98759850973541408
v 0.61120473374585016 0 -0.98759850973541408
v 0.60868176821896447 3 -1.3000323900364572
v 0.60868176821896447 0 -1.3000323900364572
v 0.57350034990882981 3 -1.3159312515327375
v 0.57350034990882981 0 -1.3159312515327375
v 0.56040556263677554 3 -1.3310483460386158
v 0.56040556263677554 0 -1.3310483460386158
v 0.33733802558386444 3 -1.1113618220364267
v 0.33733802558386444 0 -1.1113618220364267
v 0.32424323831181012 3 -1.1264789165423048
v 0.32424323831181012 0 -1.1264789165423048
v 0.27988167351874244 3 -1.1383122049040864
v 0.27988167351874238 0 -1.1383122049040864
v 0.26099744818789133 3 -1.1317253973576609
v 0.26099744818789128 0 -1.1317253973576609
v 0.17698122664780425 3 -1.4333254129961612
v 0.17698122664780427 0 -1.433325412996161
v 0.15809700131695315 3 -1.4267386054497357
v 0.15809700131695317 0 -1.4267386054497355
v 0.11967108491679009 3 -1.43047423658761
v 0.11967108491679009 0 -1.43047423658761
v 0.10240917020510386 3 -1.4405750435101523
v 0.10240917020510386 0 -1.4405750435101523
v -0.038125774754739897 3 -1.1608050948735094
v -0.038125774754739897 0 -1.1608050948735094
v -0.055387689466426075 3 -1.1709059017960517
v -0.055387689466426075 0 -1.1709059017960517
v -0.10119781870502169 3 -1.1678387853186758
v -0.10119781870502169 0 -1.1678387853186758
v -0.11695914623231753 3 -1.1555269798224332
v -0.11695914623231761 0 -1.1555269798224332
v -0.29353534768580375 3 -1.4140654489044526
v -0.29353534768580364 0 -1.4140654489044526
v -0.30929667521309956 3 -1.4017536434082101
v -0.30929667521309956 0 -1.4017536434082101
v -0.34688163741283229 3 -1.3929288710238794
v -0.34688163741283229 0 -1.3929288710238794
v -0.36647538881240493 3 -1.3969394702424196
v -0.36647538881240493 0 -1.3969394702424196
v -0.4095360339318222 3 -1.0868313024091361
v -0.4095360339318222 0 -1.0868313024091361
v -0.42912978533139479 3 -1.0908419016276762
v -0.42912978533139479 0 -1.0908419016276762
v -0.47151793551370497 3 -1.0732004768421175
v -0.47151793551370502 0 -1.0732004768421175
v -0.4824806172610932 3 -1.0564726673948082
v -0.48248061726109331 0 -1.0564726673948082
v -0.73284317618118622 3 -1.244461720283532
v -0.73284317618118622 0 -1.244461720283532
v -0.73740432756595464 3 -0.89730535531219702
v -0.73740432756595464 0 -0.89730535531219702
v -0.74380585792857457 3 -1.2277339108362226
v -0.74380585792857457 0 -1.2277339108362226
v -0.75724670348742562 3 -0.89479933899320752
v -0.75724670348742562 0 -0.89479933899320752
v -0.77655382408188323 3 -1.2072869867640712
v -0.77655382408188323 0 -1.2072869867640712
v -0.79170615671381184 3 -0.86445924624975812
v -0.79170615671381184 0 -0.86445924624975812
v -0.7963962000033542 3 -1.2047809704450818
v -0.7963962000033542 0 -1.2047809704450818
v -0.79670463783054968 3 -0.84509393740828542
v -0.79670463783054968 0 -0.84509393740828542
v -0.98687162309049459 3 -0.61237769597175784
v -0.98687162309049459 0 -0.61237769597175784
v -1.0048529775513888 3 -0.6036215043480162
v -1.0048529775513888 0 -0.6036215043480162
v -1.0262228376318607 3 -0.54386462516673939
v -1.0262228376318607 0 -0.54386462516673939
v -1.0277199968104653 3 -0.56380850930183024
v -1.0277199968104653 0 -0.56380850930183024
v -1.0942349492337422 3 -0.94254653466118354
v -1.0942349492337422 0 -0.94254653466118354
v -1.0992334303504803 3 -0.92318122581971085
v -1.0992334303504803 0 -0.92318122581971085
v -1.1236626291461589 3 -0.89328607174096764
v -1.1236626291461589 0 -0.89328607174096764
v -1.1314145001325457 3 -0.26234189881673003
v -1.1314145001325457 0 -0.26234189881673003
v -1.1416439836070533 3 -0.88452988011722578
v -1.1416439836070533 0 -0.88452988011722578
v -1.145623051381121 3 -0.24826649220034352
v -1.145623051381121 0 -0.24826649220034352
v -1.1466327887485317 3 -0.18481150059374479
v -1.1466327887485317 0 -0.18481150059374479
v -1.154466409913451 3 -0.20321352166330492
v -1.154466409913451 0 -0.20321352166330495
v -1.337790251037883 3 -0.52047570004186161
v -1.337790251037883 0 -0.52047570004186161
v -1.3392874102164876 3 -0.54041958417695246
v -1.3392874102164876 0 -0.54041958417695246
v -1.3513033644280146 3 -0.48431077563027147
v -1.3513033644280146 0 -0.48431077563027147
v -1.36551191567659 3 -0.47023536901388496
v -1.36551191567659 0 -0.47023536901388496
v -1.4341129038178955 3 -0.062433077843974005
v -1.4341129038178955 0 -0.062433077843973943
v -1.4419465249828147 3 -0.080835098913534117
v -1.4419465249828147 0 -0.080835098913534117
vn 0.9821707010269165 0 0.18799115717411041
vn 0.9821707010269165 0 0.18799115717411041
vn 0.9821707010269165 0 -0.18799115717411041
vn 0.9821707010269165 0 -0.18799115717411041
vn 0.18799115717411041 0 -0.9821707010269165
vn 0.18799115717411041 0 -0.9821707010269165
vn 0.18799115717411041 0 0.9821707010269165
vn 0.18799115717411041 0 0.9821707010269165
vn 0.86948072910308838 0 -0.49396690726280212
vn 0.86948072910308838 0 -0.49396690726280212
vn 0.49396690726280212 0 0.86948072910308838
vn 0.49396690726280212 0 0.86948072910308838
vn 0.9904361367225647 0 -0.13797189295291901
vn 0.9904361367225647 0 -0.13797189295291901
vn -0.13797189295291901 0 -0.9904361367225647
vn -0.13797189295291901 0 -0.9904361367225647
vn 0.74742406606674194 0 0.66434723138809204
vn 0.74742406606674194 0 0.66434723138809204
vn 0.66434723138809204 0 -0.74742406606674194
vn 0.66434723138809204 0 -0.74742406606674194
vn -0.18799115717411041 0 0.9821707010269165
vn -0.18799115717411041 0 0.9821707010269165
vn -0.18799115717411041 0 -0.9821707010269165
vn -0.18799115717411041 0 -0.9821707010269165
vn -0.9821707010269165 0 -0.18799115717411041
vn -0.9821707010269165 0 -0.18799115717411041
vn -0.9821707010269165 0 0.18799115717411041
vn -0.9821707010269165 0 0.18799115717411041
vn -0.49396690726280212 0 -0.86948072910308838
vn -0.49396690726280212 0 -0.86948072910308838
vn -0.86948072910308838 0 0.49396690726280212
vn -0.86948072910308838 0 0.49396690726280212
vn 0.13797189295291901 0 0.9904361367225647
vn 0.13797189295291901 0 0.9904361367225647
vn -0.9904361367225647 0 0.13797189295291901
vn -0.9904361367225647 0 0.13797189295291901
vn 0.89339816570281982 0 -0.44926577806472778
vn 0.89339816570281982 0 -0.44926577806472778
vn -0.44926577806472778 0 -0.89339816570281982
vn -0.44926577806472778 0 -0.89339816570281982
vn 0.92141485214233398 0 0.38858029246330261
vn 0.92141485214233398 0 0.38858029246330261
vn 0.38858029246330261 0 -0.92141485214233398
vn 0.38858029246330261 0 -0.92141485214233398
vn -0.66434723138809204 0 0.74742406606674194
vn -0.66434723138809204 0 0.74742406606674194
vn -0.74742406606674194 0 -0.66434723138809204
vn -0.74742406606674194 0 -0.66434723138809204
vn 0.44926577806472778 0 0.89339816570281982
vn 0.44926577806472778 0 0.89339816570281982
vn -0.89339816570281982 0 0.44926577806472778
vn -0.89339816570281982 0 0.44926577806472778
vn -0.38858029246330261 0 0.92141485214233398
vn -0.38858029246330261 0 0.92141485214233398
vn -0.92141485214233398 0 -0.38858029246330261
vn -0.92141485214233398 0 -0.38858029246330261
vn 0.71279358863830566 0 0.7013738751411438
vn 0.71279358863830566 0 0.7013738751411438
vn 0.7013738751411438 0 -0.71279358863830566
vn 0.7013738751411438 0 -0.71279358863830566
vn -0.7013738751411438 0 0.71279358863830566
vn -0.7013738751411438 0 0.71279358863830566
vn -0.71279358863830566 0 -0.7013738751411438
vn -0.71279358863830566 0 -0.7013738751411438
vn 0.9974406361579895 0 0.071499347686767578
vn 0.9974406361579895 0 0.071499347686767578
vn 0.071499347686767578 0 -0.9974406361579895
vn 0.071499347686767578 0 -0.9974406361579895
vn -0.071499347686767578 0 0.9974406361579895
vn -0.071499347686767578 0 0.9974406361579895
vn -0.9974406361579895 0 -0.071499347686767578
vn -0.9974406361579895 0 -0.071499347686767578
vn 0.90053701400756836 0 0.43477940559387207
vn 0.90053701400756836 0 0.43477940559387207
vn -0.43477940559387207 0 0.90053701400756836
vn -0.43477940559387207 0 0.90053701400756836
vn 0.43477940559387207 0 -0.90053701400756836
vn 0.43477940559387207 0 -0.90053701400756836
vn -0.90053701400756836 0 -0.43477940559387207
vn -0.90053701400756836 0 -0.43477940559387207
vn 0.96741831302642822 0 -0.25318339467048645
vn 0.96741831302642822 0 -0.25318339467048645
vn -0.25318339467048645 0 -0.96741831302642822
vn -0.25318339467048645 0 -0.96741831302642822
vn 0.25318339467048645 0 0.96741831302642822
vn 0.25318339467048645 0 0.96741831302642822
vn -0.96741831302642822 0 0.25318339467048645
vn -0.96741831302642822 0 0.25318339467048645
vn 0.99253511428833008 0 0.12195902317762375
vn 0.99253511428833008 0 0.12195902317762375
vn -0.12195902317762375 0 0.99253511428833008
vn -0.12195902317762375 0 0.99253511428833008
vn 0.12195902317762375 0 -0.99253511428833008
vn 0.12195902317762375 0 -0.99253511428833008
vn -0.99253511428833008 0 -0.12195902317762375
vn -0.99253511428833008 0 -0.12195902317762375
vn 0.83453983068466187 0 -0.55094766616821289
vn 0.83453983068466187 0 -0.55094766616821289
vn -0.55094766616821289 0 -0.83453983068466187
vn -0.55094766616821289 0 -0.83453983068466187
vn 0.55094766616821289 0 0.83453983068466187
vn 0.55094766616821289 0 0.83453983068466187
vn -0.83453983068466187 0 0.55094766616821289
vn -0.83453983068466187 0 0.55094766616821289
vn 0.97900670766830444 0 -0.20382805168628693
vn 0.97900670766830444 0 -0.20382805168628693
vn 0.20382805168628693 0 0.97900670766830444
vn 0.20382805168628693 0 0.97900670766830444
vn -0.20382805168628693 0 -0.97900670766830444
vn -0.20382805168628693 0 -0.97900670766830444
vn 0.7901349663734436 0 0.61293286085128784
vn 0.7901349663734436 0 0.61293286085128784
vn -0.97900670766830444 0 0.20382805168628693
vn -0.97900670766830444 0 0.20382805168628693
vn -0.61293286085128784 0 0.7901349663734436
vn -0.61293286085128784 0 0.7901349663734436
vn 0.61293286085128784 0 -0.7901349663734436
vn 0.61293286085128784 0 -0.7901349663734436
vn 0.86139005422592163 0 -0.50794404745101929
vn 0.86139005422592163 0 -0.50794404745101929
vn -0.7901349663734436 0 -0.61293286085128784
vn -0.7901349663734436 0 -0.61293286085128784
vn 0.50794404745101929 0 0.86139005422592163
vn 0.50794404745101929 0 0.86139005422592163
vn 0.94531500339508057 0 0.32615873217582703
vn 0.94531500339508057 0 0.32615873217582703
vn -0.32615873217582703 0 0.94531500339508057
vn -0.32615873217582703 0 0.94531500339508057
vn 0.75805538892745972 0 0.65219020843505859
vn 0.75805538892745972 0 0.65219020843505859
vn 0.65219020843505859 0 -0.75805538892745972
vn 0.65219020843505859 0 -0.75805538892745972
vn -0.50794404745101929 0 -0.86139005422592163
vn -0.50794404745101929 0 -0.86139005422592163
vn -0.86139005422592163 0 0.50794404745101929
vn -0.86139005422592163 0 0.50794404745101929
vn 0.32615873217582703 0 -0.94531500339508057
vn 0.32615873217582703 0 -0.94531500339508057
vn 0.99998891353607178 0 0.0047073815949261189
vn 0.99998891353607178 0 0.0047073815949261189
vn -0.94531500339508057 0 -0.32615873217582703
vn -0.94531500339508057 0 -0.32615873217582703
vn -0.0047073815949261189 0 0.99998891353607178
vn -0.0047073815949261189 0 0.99998891353607178
vn 0.92757004499435425 0 0.37364935874938965
vn 0.92757004499435425 0 0.37364935874938965
vn 0.37364935874938965 0 -0.92757004499435425
vn 0.37364935874938965 0 -0.92757004499435425
vn -0.65219020843505859 0 0.75805538892745972
vn -0.65219020843505859 0 0.75805538892745972
vn -0.75805538892745972 0 -0.65219020843505859
vn -0.75805538892745972 0 -0.65219020843505859
vn 0.0047073815949261189 0 -0.99998891353607178
vn 0.0047073815949261189 0 -0.99998891353607178
vn -0.99998891353607178 0 -0.0047073815949261189
vn -0.99998891353607178 0 -0.0047073815949261189
vn -0.37364935874938965 0 0.92757004499435425
vn -0.37364935874938965 0 0.92757004499435425
vn -0.92757004499435425 0 -0.37364935874938965
vn -0.92757004499435425 0 -0.37364935874938965
f 6//6 26//26 25//25 5//5
f 26//26 22//22 21//21 25//25
f 22//22 2//2 1//1 21//21
f 2//2 6//6 5//5 1//1
f 16//16 36//36 35//35 15//15
f 36//36 34//34 33//33 35//35
f 34//34 14//14 13//13 33//33
f 14//14 16//16 15//15 13//13
f 40//40 52//52 51//51 39//39
f 52//52 50//50 49//49 51//51
f 50//50 38//38 37//37 49//49
f 38//38 40//40 39//39 37//37
f 64//64 62//62 61//61 63//63
f 62//62 58//58 57//57 61//61
f 58//58 60//60 59//59 57//57
f 60//60 64//64 63//63 59//59
f 80//80 76//76 75//75 79//79
f 76//76 74//74 73//73 75//75
f 74//74 78//78 77//77 73//73
f 78//78 80//80 79//79 77//77
f 96//96 92//92 91//91 95//95
f 92//92 90//90 89//89 91//91
f 90//90 94//94 93//93 89//89
f 94//94 96//96 95//95 93//93
f 114//114 108//108 107//107 113//113
f 108//108 106//106 105//105 107//107
f 106//106 110//110 109//109 105//105
f 110//110 114//114 113//113 109//109
f 136//136 124//124 123//123 135//135
f 124//124 120//120 119//119 123//123
f 120//120 134//134 133//133 119//119
f 134//134 136//136 135//135 133//133
f 150//150 130//130 129//129 149//149
f 130//130 132//132 131//131 129//129
f 132//132 152//152 151//151 131//131
f 152//152 150//150 149//149 151//151
f 158//158 146//146 145//145 157//157
f 146//146 148//148 147//147 145//145
f 148//148 160//160 159//159 147//147
f 160//160 158//158 157//157 159//159
f 8//8 4//4 3//3 7//7
f 4//4 24//24 23//23 3//3
f 24//24 28//28 27//27 23//23
f 28//28 8//8 7//7 27//27
f 12//12 10//10 9//9 11//11
f 10//10 30//30 29//29 9//9
f 30//30 32//32 31//31 29//29
f 32//32 12//12 11//11 31//31
f 18//18 20//20 19//19 17//17
f 20//20 48//48 47//47 19//19
f 48//48 46//46 45//45 47//47
f 46//46 18//18 17//17 45//45
f 42//42 44//44 43//43 41//41
f 44//44 56//56 55//55 43//43
f 56//56 54//54 53//53 55//55
f 54//54 42//42 41//41 53//53
f 66//66 68//68 67//67 65//65
f 68//68 72//72 71//71 67//67
f 72//72 70//70 69//69 71//71
f 70//70 66//66 65//65 69//69
f 82//82 84//84 83//83 81//81
f 84//84 88//88 87//87 83//83
f 88//88 86//86 85//85 87//87
f 86//86 82//82 81//81 85//85
f 98//98 100//100 99//99 97//97
f 100//100 104//104 103//103 99//99
f 104//104 102//102 101//101 103//103
f 102//102 98//98 97//97 101//101
f 118//118 122//122 121//121 117//117
f 122//122 116//116 115//115 121//121
f 116//116 112//112 111//111 115//115
f 112//112 118//118 117//117 111//111
f 138//138 142//142 141//141 137//137
f 142//142 128//128 127//127 141//141
f 128//128 126//126 125//125 127//127
f 126//126 138//138 137//137 125//125
f 154//154 156//156 155//155 153//153
f 156//156 144//144 143//143 155//155
f 144//144 140//140 139//139 143//143
f 140//140 154//154 153//153 139//139
