# Rhino

mtllib Pannelli45.mtl
usemtl diffuse_Black
v 1.4806594414276764 3 -0.10779237222353324
v 1.4806594414276764 0 -0.10779237222353322
v 1.4806594414276764 3 0.10779237222353459
v 1.4806594414276764 0 0.10779237222353459
v 1.4749670272977329 3 -0.1269651764360947
v 1.4749670272977329 0 -0.12696517643609473
v 1.4749670272977327 3 0.12696517643609612
v 1.4749670272977327 0 0.12696517643609612
v 1.4742516438534361 3 -0.17479607430928523
v 1.4742516438534361 0 -0.17479607430928523
v 1.4722962985120205 3 -0.15489188820194078
v 1.4722962985120205 0 -0.15489188820194078
v 1.4333911036137335 3 -0.3864731828723682
v 1.4333911036137335 0 -0.38647318287236815
v 1.4241679792831823 3 -0.40421956215331423
v 1.4241679792831823 0 -0.40421956215331417
v 1.416252610868022 3 -0.43113388854562362
v 1.416252610868022 0 -0.43113388854562362
v 1.4144000032065249 3 -0.4510478998153945
v 1.4144000032065249 0 -0.4510478998153945
v 1.334160178867847 3 -0.65114375841423122
v 1.334160178867847 0 -0.65114375841423122
v 1.3217406964884506 3 -0.66682037977943176
v 1.3217406964884506 0 -0.66682037977943176
v 1.3088676324735173 3 -0.69174663591963281
v 1.3088676324735173 0 -0.69174663591963281
v 1.3032742316278187 3 -0.71094855944253377
v 1.3032742316278187 0 -0.71094855944253377
v 1.1865639377049835 3 -0.89220939175539937
v 1.1865639377049835 0 -0.89220939175539948
v 1.1718450982345459 3 -0.016105255866807729
v 1.1718450982345459 0 -0.016105255866807701
v 1.1718450982345461 3 0.016105255866808815
v 1.1718450982345461 0 0.016105255866808815
v 1.1713983222231381 3 -0.90524795406329239
v 1.1713983222231381 0 -0.9052479540632925
v 1.1661526841046024 3 -0.035278060079369192
v 1.1661526841046024 0 -0.035278060079369206
v 1.1661526841046024 3 0.03527806007937033
v 1.1661526841046024 0 0.03527806007937033
v 1.1540342305724438 3 -0.92728252561451119
v 1.1540342305724438 0 -0.92728252561451119
v 1.1536570093186373 3 -0.20629061629857459
v 1.1536570093186373 0 -0.20629061629857459
v 1.151701663977222 3 -0.18638643019123013
v 1.151701663977222 0 -0.18638643019123013
v 1.1475520369366234 3 -0.23791728824420136
v 1.1475520369366234 0 -0.23791728824420141
v 1.1449028057497461 3 -0.94507626273484147
v 1.1449028057497461 0 -0.94507626273484147
v 1.1383289126060723 3 -0.25566366752514735
v 1.1383289126060723 0 -0.25566366752514741
v 1.0954997234742345 3 -0.40129413157334848
v 1.0954997234742345 0 -0.40129413157334848
v 1.093647115812737 3 -0.4212081428431193
v 1.093647115812737 0 -0.4212081428431193
v 1.0816584854947933 3 -0.4511044604966552
v 1.0816584854947933 0 -0.45110446049665526
v 1.0692390031153969 3 -0.46678108186185574
v 1.0692390031153969 0 -0.4667810818618558
v 0.99958426760796903 3 -0.60165431613009501
v 0.99958426760796903 0 -0.60165431613009501
v 0.99595296622332496 3 -1.1009310905181378
v 0.99595296622332508 0 -1.1009310905181378
v 0.99399086676227055 3 -0.62085623965299608
v 0.99399086676227055 0 -0.62085623965299608
v 0.97859099404748262 3 -1.1108589262422657
v 0.97859099404748273 0 -1.1108589262422657
v 0.9765531844184796 3 -0.64793841646023376
v 0.9765531844184796 0 -0.64793841646023376
v 0.96138756893663424 3 -0.66097697876812678
v 0.96138756893663424 0 -0.66097697876812678
v 0.95736534924263894 3 -1.1292030267903461
v 0.95736534924263894 0 -1.1292030267903461
v 0.9450269283493975 3 -1.1449435277309525
v 0.9450269283493975 0 -1.1449435277309525
v 0.86743237615170066 3 -0.78020362532555998
v 0.86743237615170066 0 -0.78020362532555998
v 0.85830095132900264 3 -0.79799736244589003
v 0.85830095132900264 0 -0.79799736244589003
v 0.83604635921446613 3 -0.82128362869784766
v 0.83604635921446613 0 -0.82128362869784766
v 0.81868438703862378 3 -0.83121146442197558
v 0.81868438703862378 0 -0.83121146442197558
v 0.76923719929746903 3 -1.2697423786798179
v 0.76923719929746903 0 -1.2697423786798179
v 0.75030826807508444 3 -1.2761995888187425
v 0.75030826807508444 0 -1.2761995888187425
v 0.72599053171702987 3 -1.2901882170831447
v 0.72599053171702987 0 -1.2901882170831447
v 0.71089240109864771 3 -1.303304864971621
v 0.71089240109864771 0 -1.303304864971621
v 0.70383475425959463 3 -0.93046937771410199
v 0.70383475425959463 0 -0.93046937771410199
v 0.6914963333663533 3 -0.94620987865470807
v 0.6914963333663533 0 -0.94620987865470807
v 0.66523159397211173 3 -0.96485607211863056
v 0.66523159397211173 0 -0.96485607211863056
v 0.64630266274972714 3 -0.97131328225755509
v 0.64630266274972714 0 -0.97131328225755509
v 0.51472206218759664 3 -1.0470042133939483
v 0.51472206218759664 0 -1.0470042133939483
v 0.51463542502929926 3 -1.3925235927277528
v 0.51463542502929926 0 -1.3925235927277528
v 0.49962393156921442 3 -1.0601208612824244
v 0.49962393156921442 0 -1.0601208612824244
v 0.49482573703391258 3 -1.3952760936860509
v 0.49482573703391258 0 -1.3952760936860509
v 0.47030118126654641 3 -1.0734510293544643
v 0.47030118126654641 0 -1.0734510293544643
v 0.46829746370067415 3 -1.4044021408181047
v 0.46829746370067415 0 -1.4044021408181047
v 0.45098695333763555 3 -1.4144194374080601
v 0.45098695333763555 0 -1.4144194374080601
v 0.45049149327115973 3 -1.0762035303127624
v 0.45049149327115973 0 -1.0762035303127624
v 0.30694991992452236 3 -1.1255835690101652
v 0.30694991992452236 0 -1.1255835690101652
v 0.28963940956148371 3 -1.1356008656001206
v 0.28963940956148371 0 -1.1356008656001206
v 0.25832164222403958 3 -1.1431317696055618
v 0.25832164222403958 0 -1.1431317696055618
v 0.24137734129756175 3 -1.4648237286809003
v 0.24137734129756178 0 -1.4648237286809003
v 0.23834932848908605 3 -1.1420797790768096
v 0.23834932848908605 0 -1.1420797790768096
v 0.22140502756260821 3 -1.463771738152148
v 0.22140502756260821 0 -1.463771738152148
v 0.19362790712777128 3 -1.4677043711947848
v 0.19362790712777128 0 -1.4677043711947848
v 0.17473254909928898 3 -1.4742591743936206
v 0.17473254909928898 0 -1.4742591743936206
v 0.088050380639365405 3 -1.1633588245406468
v 0.088050380639365405 0 -1.1633588245406468
v 0.069155022610883132 3 -1.1699136277394826
v 0.069155022610883132 0 -1.1699136277394826
v 0.036977554485347813 3 -1.171372261062704
v 0.036977554485347792 0 -1.171372261062704
v 0.017566641472320135 3 -1.1665539152884083
v 0.017566641472320149 0 -1.1665539152884083
v -0.040631034694923497 3 -1.4840217976896821
v -0.040631034694923518 0 -1.4840217976896821
v -0.060041947707951175 3 -1.4792034519153865
v -0.060041947707951161 0 -1.4792034519153865
v -0.088060952781960744 3 -1.4778001069962381
v -0.088060952781960744 0 -1.4778001069962381
v -0.1078561732812041 3 -1.4806547953130837
v -0.1078561732812041 0 -1.4806547953130837
v -0.13404111759323359 3 -1.1589605700634034
v -0.13404111759323359 0 -1.1589605700634034
v -0.15383633809247693 3 -1.1618152583802492
v -0.15383633809247693 0 -1.1618152583802492
v -0.18570702531069755 3 -1.1571487433658303
v -0.18570702531069763 0 -1.1571487433658303
v -0.20385286276223544 3 -1.1487387146392225
v -0.20385286276223546 0 -1.1487387146392225
v -0.32116647446843344 3 -1.4494218408303408
v -0.32116647446843338 0 -1.4494218408303408
v -0.33931231191997135 3 -1.441011812103733
v -0.33931231191997124 0 -1.441011812103733
vn 0.87911820411682129 0 0.47660377621650696
vn 0.87911820411682129 0 0.47660377621650696
vn 0.87911820411682129 0 -0.47660377621650696
vn 0.87911820411682129 0 -0.47660377621650696
vn 0.47660377621650696 0 -0.87911820411682129
vn 0.47660377621650696 0 -0.87911820411682129
vn 0.47660377621650696 0 0.87911820411682129
vn 0.47660377621650696 0 0.87911820411682129
vn 0.77285116910934448 0 -0.63458734750747681
vn 0.77285116910934448 0 -0.63458734750747681
vn 0.63458734750747681 0 0.77285116910934448
vn 0.63458734750747681 0 0.77285116910934448
vn 0.95351594686508179 0 0.30134257674217224
vn 0.95351594686508179 0 0.30134257674217224
vn 0.30134257674217224 0 -0.95351594686508179
vn 0.30134257674217224 0 -0.95351594686508179
vn 0.76956623792648315 0 0.63856703042984009
vn 0.76956623792648315 0 0.63856703042984009
vn 0.63856703042984009 0 -0.76956623792648315
vn 0.63856703042984009 0 -0.76956623792648315
vn 0.99334728717803955 0 0.11515724658966064
vn 0.99334728717803955 0 0.11515724658966064
vn 0.11515724658966064 0 -0.99334728717803955
vn 0.11515724658966064 0 -0.99334728717803955
vn 0.87664711475372314 0 0.48113390803337097
vn 0.87664711475372314 0 0.48113390803337097
vn 0.48113390803337097 0 -0.87664711475372314
vn 0.48113390803337097 0 -0.87664711475372314
vn 0.99716824293136597 0 -0.075202658772468567
vn 0.99716824293136597 0 -0.075202658772468567
vn -0.47660377621650696 0 0.87911820411682129
vn -0.47660377621650696 0 0.87911820411682129
vn -0.47660377621650696 0 -0.87911820411682129
vn -0.47660377621650696 0 -0.87911820411682129
vn -0.075202658772468567 0 -0.99716824293136597
vn -0.075202658772468567 0 -0.99716824293136597
vn -0.87911820411682129 0 -0.47660377621650696
vn -0.87911820411682129 0 -0.47660377621650696
vn -0.87911820411682129 0 0.47660377621650696
vn -0.87911820411682129 0 0.47660377621650696
vn 0.95194822549819946 0 0.30625897645950317
vn 0.95194822549819946 0 0.30625897645950317
vn -0.63458734750747681 0 -0.77285116910934448
vn -0.63458734750747681 0 -0.77285116910934448
vn -0.77285116910934448 0 0.63458734750747681
vn -0.77285116910934448 0 0.63458734750747681
vn -0.30134257674217224 0 0.95351594686508179
vn -0.30134257674217224 0 0.95351594686508179
vn 0.30625897645950317 0 -0.95194822549819946
vn 0.30625897645950317 0 -0.95194822549819946
vn -0.95351594686508179 0 -0.30134257674217224
vn -0.95351594686508179 0 -0.30134257674217224
vn -0.63856703042984009 0 0.76956623792648315
vn -0.63856703042984009 0 0.76956623792648315
vn -0.76956623792648315 0 -0.63856703042984009
vn -0.76956623792648315 0 -0.63856703042984009
vn -0.11515724658966064 0 0.99334728717803955
vn -0.11515724658966064 0 0.99334728717803955
vn -0.99334728717803955 0 -0.11515724658966064
vn -0.99334728717803955 0 -0.11515724658966064
vn -0.48113390803337097 0 0.87664711475372314
vn -0.48113390803337097 0 0.87664711475372314
vn 0.96484041213989258 0 -0.26283642649650574
vn 0.96484041213989258 0 -0.26283642649650574
vn -0.87664711475372314 0 -0.48113390803337097
vn -0.87664711475372314 0 -0.48113390803337097
vn -0.26283642649650574 0 -0.96484041213989258
vn -0.26283642649650574 0 -0.96484041213989258
vn 0.075202658772468567 0 0.99716824293136597
vn 0.075202658772468567 0 0.99716824293136597
vn -0.99716824293136597 0 0.075202658772468567
vn -0.99716824293136597 0 0.075202658772468567
vn 0.99273979663848877 0 0.12028166651725769
vn 0.99273979663848877 0 0.12028166651725769
vn 0.12028166651725769 0 -0.99273979663848877
vn 0.12028166651725769 0 -0.99273979663848877
vn -0.30625897645950317 0 0.95194822549819946
vn -0.30625897645950317 0 0.95194822549819946
vn -0.95194822549819946 0 -0.30625897645950317
vn -0.95194822549819946 0 -0.30625897645950317
vn 0.26283642649650574 0 0.96484041213989258
vn 0.26283642649650574 0 0.96484041213989258
vn -0.96484041213989258 0 0.26283642649650574
vn -0.96484041213989258 0 0.26283642649650574
vn 0.89753562211990356 0 -0.44094192981719971
vn 0.89753562211990356 0 -0.44094192981719971
vn -0.44094192981719971 0 -0.89753562211990356
vn -0.44094192981719971 0 -0.89753562211990356
vn 0.99754303693771362 0 -0.07005598396062851
vn 0.99754303693771362 0 -0.07005598396062851
vn -0.07005598396062851 0 -0.99754303693771362
vn -0.07005598396062851 0 -0.99754303693771362
vn -0.12028166651725769 0 0.99273979663848877
vn -0.12028166651725769 0 0.99273979663848877
vn -0.99273979663848877 0 -0.12028166651725769
vn -0.99273979663848877 0 -0.12028166651725769
vn 0.44094192981719971 0 0.89753562211990356
vn 0.44094192981719971 0 0.89753562211990356
vn -0.89753562211990356 0 0.44094192981719971
vn -0.89753562211990356 0 0.44094192981719971
vn 0.07005598396062851 0 0.99754303693771362
vn 0.07005598396062851 0 0.99754303693771362
vn 0.79769384860992432 0 -0.60306262969970703
vn 0.79769384860992432 0 -0.60306262969970703
vn -0.99754303693771362 0 0.07005598396062851
vn -0.99754303693771362 0 0.07005598396062851
vn -0.60306262969970703 0 -0.79769384860992432
vn -0.60306262969970703 0 -0.79769384860992432
vn 0.60306262969970703 0 0.79769384860992432
vn 0.60306262969970703 0 0.79769384860992432
vn 0.96618390083312988 0 -0.25785407423973083
vn 0.96618390083312988 0 -0.25785407423973083
vn -0.25785407423973083 0 -0.96618390083312988
vn -0.25785407423973083 0 -0.96618390083312988
vn -0.79769384860992432 0 0.60306262969970703
vn -0.79769384860992432 0 0.60306262969970703
vn 0.25785407423973083 0 0.96618390083312988
vn 0.25785407423973083 0 0.96618390083312988
vn -0.96618390083312988 0 0.25785407423973083
vn -0.96618390083312988 0 0.25785407423973083
vn 0.74332141876220703 0 0.66893446445465088
vn 0.74332141876220703 0 0.66893446445465088
vn 0.66893446445465088 0 -0.74332141876220703
vn 0.66893446445465088 0 -0.74332141876220703
vn -0.66893446445465088 0 0.74332141876220703
vn -0.66893446445465088 0 0.74332141876220703
vn -0.74332141876220703 0 -0.66893446445465088
vn -0.74332141876220703 0 -0.66893446445465088
vn 0.89979904890060425 0 -0.43630450963973999
vn 0.89979904890060425 0 -0.43630450963973999
vn -0.43630450963973999 0 -0.89979904890060425
vn -0.43630450963973999 0 -0.89979904890060425
vn 0.43630450963973999 0 0.89979904890060425
vn 0.43630450963973999 0 0.89979904890060425
vn -0.89979904890060425 0 0.43630450963973999
vn -0.89979904890060425 0 0.43630450963973999
vn 0.85663366317749023 0 0.51592510938644409
vn 0.85663366317749023 0 0.51592510938644409
vn -0.51592510938644409 0 0.85663366317749023
vn -0.51592510938644409 0 0.85663366317749023
vn 0.51592510938644409 0 -0.85663366317749023
vn 0.51592510938644409 0 -0.85663366317749023
vn -0.85663366317749023 0 -0.51592510938644409
vn -0.85663366317749023 0 -0.51592510938644409
vn 0.80079519748687744 0 -0.5989382266998291
vn 0.80079519748687744 0 -0.5989382266998291
vn -0.5989382266998291 0 -0.80079519748687744
vn -0.5989382266998291 0 -0.80079519748687744
vn 0.5989382266998291 0 0.80079519748687744
vn 0.5989382266998291 0 0.80079519748687744
vn -0.80079519748687744 0 0.5989382266998291
vn -0.80079519748687744 0 0.5989382266998291
vn 0.93889164924621582 0 0.34421280026435852
vn 0.93889164924621582 0 0.34421280026435852
vn -0.34421280026435852 0 0.93889164924621582
vn -0.34421280026435852 0 0.93889164924621582
vn 0.34421280026435852 0 -0.93889164924621582
vn 0.34421280026435852 0 -0.93889164924621582
vn -0.93889164924621582 0 -0.34421280026435852
vn -0.93889164924621582 0 -0.34421280026435852
f 6//6 38//38 37//37 5//5
f 38//38 32//32 31//31 37//37
f 32//32 2//2 1//1 31//31
f 2//2 6//6 5//5 1//1
f 16//16 52//52 51//51 15//15
f 52//52 48//48 47//47 51//51
f 48//48 14//14 13//13 47//47
f 14//14 16//16 15//15 13//13
f 24//24 60//60 59//59 23//23
f 60//60 58//58 57//57 59//59
f 58//58 22//22 21//21 57//57
f 22//22 24//24 23//23 21//21
f 36//36 72//72 71//71 35//35
f 72//72 70//70 69//69 71//71
f 70//70 30//30 29//29 69//69
f 30//30 36//36 35//35 29//29
f 68//68 84//84 83//83 67//67
f 84//84 82//82 81//81 83//83
f 82//82 64//64 63//63 81//81
f 64//64 68//68 67//67 63//63
f 88//88 100//100 99//99 87//87
f 100//100 98//98 97//97 99//99
f 98//98 86//86 85//85 97//97
f 86//86 88//88 87//87 85//85
f 108//108 116//116 115//115 107//107
f 116//116 110//110 109//109 115//115
f 110//110 104//104 103//103 109//109
f 104//104 108//108 107//107 103//103
f 128//128 126//126 125//125 127//127
f 126//126 122//122 121//121 125//125
f 122//122 124//124 123//123 121//121
f 124//124 128//128 127//127 123//123
f 144//144 140//140 139//139 143//143
f 140//140 138//138 137//137 139//139
f 138//138 142//142 141//141 137//137
f 142//142 144//144 143//143 141//141
f 160//160 156//156 155//155 159//159
f 156//156 154//154 153//153 155//155
f 154//154 158//158 157//157 153//153
f 158//158 160//160 159//159 157//157
f 8//8 4//4 3//3 7//7
f 4//4 34//34 33//33 3//3
f 34//34 40//40 39//39 33//33
f 40//40 8//8 7//7 39//39
f 12//12 10//10 9//9 11//11
f 10//10 44//44 43//43 9//9
f 44//44 46//46 45//45 43//43
f 46//46 12//12 11//11 45//45
f 18//18 20//20 19//19 17//17
f 20//20 56//56 55//55 19//19
f 56//56 54//54 53//53 55//55
f 54//54 18//18 17//17 53//53
f 26//26 28//28 27//27 25//25
f 28//28 66//66 65//65 27//27
f 66//66 62//62 61//61 65//65
f 62//62 26//26 25//25 61//61
f 42//42 50//50 49//49 41//41
f 50//50 80//80 79//79 49//49
f 80//80 78//78 77//77 79//79
f 78//78 42//42 41//41 77//77
f 74//74 76//76 75//75 73//73
f 76//76 96//96 95//95 75//75
f 96//96 94//94 93//93 95//95
f 94//94 74//74 73//73 93//93
f 90//90 92//92 91//91 89//89
f 92//92 106//106 105//105 91//91
f 106//106 102//102 101//101 105//105
f 102//102 90//90 89//89 101//101
f 112//112 114//114 113//113 111//111
f 114//114 120//120 119//119 113//113
f 120//120 118//118 117//117 119//119
f 118//118 112//112 111//111 117//117
f 130//130 132//132 131//131 129//129
f 132//132 136//136 135//135 131//131
f 136//136 134//134 133//133 135//135
f 134//134 130//130 129//129 133//133
f 146//146 148//148 147//147 145//145
f 148//148 152//152 151//151 147//147
f 152//152 150//150 149//149 151//151
f 150//150 146//146 145//145 149//149
