# Rhino

mtllib Pannelli163.mtl
usemtl diffuse_Black
v 1.2171365954652786 3 -0.32890080758816864
v 1.2171365954652786 0 -0.32890080758816864
v 1.2171365954652775 3 0.32890080758817297
v 1.2171365954652775 0 0.32890080758817297
v 1.1974702360722747 3 -0.33253870646323364
v 1.1974702360722747 0 -0.33253870646323364
v 1.1974702360722733 3 0.33253870646323791
v 1.1974702360722733 0 0.33253870646323791
v 1.1923024666979309 3 -0.40989274348174087
v 1.1923024666979309 0 -0.40989274348174087
v 1.1780555310001084 3 -0.39585619037130404
v 1.1780555310001084 0 -0.39585619037130404
v 1.1632971655281541 3 -0.037846653797535046
v 1.1632971655281541 0 -0.037846653797535046
v 1.1632971655281539 3 0.03784665379753923
v 1.1632971655281539 0 0.03784665379753923
v 1.1436308061351501 3 -0.041484552672600074
v 1.1436308061351501 0 -0.041484552672600074
v 1.1436308061351497 3 0.041484552672604202
v 1.1436308061351497 0 0.041484552672604202
v 0.99303808894784495 3 0.7768349806437469
v 0.99303808894784495 0 0.7768349806437469
v 0.98456716571747849 3 -0.6207416215468069
v 0.98456716571747849 0 -0.6207416215468069
v 0.98415700256036132 3 0.75891498330618989
v 0.98415700256036132 0 0.75891498330618989
v 0.97032023001965584 3 -0.60670506843637007
v 0.97032023001965584 0 -0.60670506843637007
v 0.94213747388366209 3 -0.68342493723423625
v 0.94213747388366209 0 -0.68342493723423625
v 0.92381210818731663 3 -0.67541363446282643
v 0.92381210818731663 0 -0.67541363446282643
v 0.82357343758710599 3 -0.95463292744065542
v 0.82357343758710599 0 -0.95463292744065553
v 0.80524807189076053 3 -0.9466216246692456
v 0.80524807189076053 0 -0.94662162466924571
v 0.75760791734527 3 -1.0077834473877421
v 0.75760791734527 0 -1.0077834473877421
v 0.75367786653243374 3 -0.98817338107963049
v 0.75367786653243374 0 -0.98817338107963049
v 0.72782938627009086 3 0.90827146218033894
v 0.72782938627009086 0 0.90827146218033894
v 0.71894829988260722 3 0.89035146484278194
v 0.71894829988260722 0 0.89035146484278194
v 0.66725342991961023 3 0.95365901914155027
v 0.66725342991961023 0 0.95365901914155027
v 0.65254965694423739 3 0.94010176793458733
v 0.65254965694423739 0 0.94010176793458733
v 0.46738687841134641 3 -1.0659466076771413
v 0.46738687841134641 0 -1.0659466076771413
v 0.46661160298476206 3 1.1712689038871262
v 0.46661160298476206 0 1.1712689038871262
v 0.46345682759851015 3 -1.0463365413690298
v 0.46345682759851015 0 -1.0463365413690298
v 0.45190783000938933 3 1.1577116526801632
v 0.45190783000938933 0 1.1577116526801632
v 0.39711293076019311 3 -1.0940722027145
v 0.39711293076019316 0 -1.0940722027145
v 0.38959448522839668 3 1.1801411333628069
v 0.38959448522839668 0 1.1801411333628069
v 0.38690410176529327 3 1.1999593531824944
v 0.38690410176529327 0 1.1999593531824944
v 0.38642800231737884 3 -1.077165626947304
v 0.38642800231737884 0 -1.077165626947304
v 0.1469024568699972 3 -1.2522048160818251
v 0.14690245686999723 0 -1.2522048160818251
v 0.1362175284271829 3 -1.2352982403146291
v 0.13621752842718293 0 -1.2352982403146291
v 0.096292858629024577 3 1.1403245477620967
v 0.096292858629024536 0 1.1403245477620967
v 0.09360247516592117 3 1.1601427675817841
v 0.093602475165921115 0 1.1601427675817841
v 0.070219359752716592 3 -1.2408006282602972
v 0.070219359752716592 0 -1.2408006282602972
v 0.062481549460973784 3 -1.259243141426593
v 0.062481549460973784 0 -1.259243141426593
v 0.017996295019137347 3 1.1637735165809076
v 0.017996295019137347 0 1.1637735165809076
v 0.013419255603184424 3 1.1443042918869242
v 0.013419255603184424 0 1.1443042918869242
v -0.20272236556215545 3 -1.1262841698934876
v -0.20272236556215545 0 -1.1262841698934876
v -0.21046017585389828 3 -1.1447266830597835
v -0.21046017585389828 0 -1.1447266830597835
v -0.27014034506905427 3 1.2315118461545271
v -0.27014034506905427 0 1.2315118461545271
v -0.2747173844850071 3 1.2120426214605435
v -0.2747173844850071 0 1.2120426214605435
v -0.28379281905007847 3 -1.108636110140468
v -0.28379281905007847 0 -1.108636110140468
v -0.28442132979429346 3 -1.1286262320571652
v -0.28442132979429346 0 -1.1286262320571652
v -0.33889324322525588 3 1.1956873869333478
v -0.33889324322525588 0 1.1956873869333478
v -0.35223026267461893 3 1.210591209000432
v -0.35223026267461899 0 1.210591209000432
v -0.55946377350471865 3 0.99830490081319323
v -0.55946377350471865 0 0.99830490081319334
v -0.57280079295408171 3 1.0132087228802775
v -0.57280079295408171 0 1.0132087228802775
v -0.57963852706177699 3 -1.0993344056841314
v -0.57963852706177699 0 -1.0993344056841314
v -0.58026703780599198 3 -1.1193245276008286
v -0.58026703780599198 0 -1.1193245276008286
v -0.63032408741926527 3 0.95514602740672527
v -0.63032408741926527 0 0.95514602740672527
v -0.63737743166981109 3 -1.0668959495532939
v -0.63737743166981109 0 -1.0668959495532939
v -0.63744716361339038 3 0.97383457431472997
v -0.63744716361339038 0 0.97383457431472997
v -0.6541231889343051 3 -1.0778311959446034
v -0.6541231889343051 0 -1.0778311959446034
v -0.79921464929163788 3 -0.81906552436872992
v -0.79921464929163788 0 -0.81906552436872992
v -0.81596040655613189 3 -0.83000077076003942
v -0.81596040655613189 0 -0.83000077076003942
v -0.85645832419220591 3 -0.75900693526057916
v -0.85645832419220602 0 -0.75900693526057916
v -0.8681842201563057 3 -0.77520889081659494
v -0.8681842201563057 0 -0.77520889081659494
v -0.90690701246337846 3 0.8497273847064003
v -0.90690701246337846 0 0.8497273847064003
v -0.91403008865750368 3 0.868415931614405
v -0.91403008865750368 0 0.868415931614405
v -0.95088458667477127 3 0.80020963528289191
v -0.95088458667477127 0 0.80020963528289191
v -0.97028356955158479 3 0.80507579016586595
v -0.97028356955158479 0 0.80507579016586595
v -1.0229017080633902 3 0.51311254563962649
v -1.0229017080633902 0 0.51311254563962649
v -1.0423006909402037 3 0.51797870052260053
v -1.0423006909402037 0 0.51797870052260053
v -1.0573901167645923 3 0.4376511508271631
v -1.0573901167645923 0 0.4376511508271631
v -1.0737647126073437 3 0.44913473088681993
v -1.0737647126073437 0 0.44913473088681993
v -1.0962407043406699 3 -0.58546842418861622
v -1.0962407043406699 0 -0.58546842418861611
v -1.1079666003047697 3 -0.601670379744632
v -1.1079666003047697 0 -0.60167037974463189
v -1.1209725753846667 3 -0.23028867555146104
v -1.1209725753846667 0 -0.23028867555146104
v -1.1258722841864621 3 -0.52624001869488035
v -1.1258722841864621 0 -0.52624001869488035
v -1.1347116488920834 3 -0.14846502187514679
v -1.1347116488920834 0 -0.14846502187514676
v -1.1409698350055948 3 -0.2299576050858374
v -1.1409698350055948 0 -0.2299576050858374
v -1.14586954380739 3 -0.52590894822925671
v -1.14586954380739 0 -0.52590894822925671
v -1.1535040899278497 3 -0.15530930123219006
v -1.1535040899278497 0 -0.15530930123219006
v -1.227342450593057 3 0.195313764357402
v -1.227342450593057 0 0.195313764357402
v -1.2360042113212821 3 0.12965549418086658
v -1.2360042113212821 0 0.12965549418086661
v -1.2437170464358087 3 0.20679734441705871
v -1.2437170464358087 0 0.20679734441705871
v -1.2547966523570484 3 0.12281121482382332
v -1.2547966523570484 0 0.1228112148238233
vn 0.82392996549606323 0 -0.56669163703918457
vn 0.82392996549606323 0 -0.56669163703918457
vn 0.82392996549606323 0 0.56669163703918457
vn 0.82392996549606323 0 0.56669163703918457
vn -0.56669163703918457 0 -0.82392996549606323
vn -0.56669163703918457 0 -0.82392996549606323
vn -0.56669163703918457 0 0.82392996549606323
vn -0.56669163703918457 0 0.82392996549606323
vn 0.99997234344482422 0 0.0074381600134074688
vn 0.99997234344482422 0 0.0074381600134074688
vn -0.0074381600134074688 0 0.99997234344482422
vn -0.0074381600134074688 0 0.99997234344482422
vn 0.56669163703918457 0 0.82392996549606323
vn 0.56669163703918457 0 0.82392996549606323
vn 0.56669163703918457 0 -0.82392996549606323
vn 0.56669163703918457 0 -0.82392996549606323
vn -0.82392996549606323 0 0.56669163703918457
vn -0.82392996549606323 0 0.56669163703918457
vn -0.82392996549606323 0 -0.56669163703918457
vn -0.82392996549606323 0 -0.56669163703918457
vn 0.94756138324737549 0 0.31957376003265381
vn 0.94756138324737549 0 0.31957376003265381
vn 0.0074381600134074688 0 -0.99997234344482422
vn 0.0074381600134074688 0 -0.99997234344482422
vn 0.31957376003265381 0 -0.94756138324737549
vn 0.31957376003265381 0 -0.94756138324737549
vn -0.99997234344482422 0 -0.0074381600134074688
vn -0.99997234344482422 0 -0.0074381600134074688
vn 0.93114185333251953 0 0.36465716361999512
vn 0.93114185333251953 0 0.36465716361999512
vn -0.36465716361999512 0 0.93114185333251953
vn -0.36465716361999512 0 0.93114185333251953
vn 0.36465716361999512 0 -0.93114185333251953
vn 0.36465716361999512 0 -0.93114185333251953
vn -0.93114185333251953 0 -0.36465716361999512
vn -0.93114185333251953 0 -0.36465716361999512
vn 0.83226883411407471 0 -0.55437225103378296
vn 0.83226883411407471 0 -0.55437225103378296
vn 0.55437225103378296 0 0.83226883411407471
vn 0.55437225103378296 0 0.83226883411407471
vn -0.31957376003265381 0 0.94756138324737549
vn -0.31957376003265381 0 0.94756138324737549
vn -0.94756138324737549 0 -0.31957376003265381
vn -0.94756138324737549 0 -0.31957376003265381
vn 0.99917811155319214 0 -0.040535658597946167
vn 0.99917811155319214 0 -0.040535658597946167
vn -0.040535658597946167 0 -0.99917811155319214
vn -0.040535658597946167 0 -0.99917811155319214
vn -0.55437225103378296 0 -0.83226883411407471
vn -0.55437225103378296 0 -0.83226883411407471
vn 0.040535658597946167 0 0.99917811155319214
vn 0.040535658597946167 0 0.99917811155319214
vn -0.83226883411407471 0 0.55437225103378296
vn -0.83226883411407471 0 0.55437225103378296
vn -0.99917811155319214 0 0.040535658597946167
vn -0.99917811155319214 0 0.040535658597946167
vn 0.97550696134567261 0 -0.21996843814849854
vn 0.97550696134567261 0 -0.21996843814849854
vn 0.79579931497573853 0 -0.60556048154830933
vn 0.79579931497573853 0 -0.60556048154830933
vn 0.60556048154830933 0 0.79579931497573853
vn 0.60556048154830933 0 0.79579931497573853
vn 0.21996843814849854 0 0.97550696134567261
vn 0.21996843814849854 0 0.97550696134567261
vn -0.21996843814849854 0 -0.97550696134567261
vn -0.21996843814849854 0 -0.97550696134567261
vn -0.97550696134567261 0 0.21996843814849854
vn -0.97550696134567261 0 0.21996843814849854
vn -0.60556048154830933 0 -0.79579931497573853
vn -0.60556048154830933 0 -0.79579931497573853
vn -0.79579931497573853 0 0.60556048154830933
vn -0.79579931497573853 0 0.60556048154830933
vn 0.92561417818069458 0 0.37846842408180237
vn 0.92561417818069458 0 0.37846842408180237
vn 0.37846842408180237 0 -0.92561417818069458
vn 0.37846842408180237 0 -0.92561417818069458
vn 0.85016381740570068 0 0.52651822566986084
vn 0.85016381740570068 0 0.52651822566986084
vn 0.52651822566986084 0 -0.85016381740570068
vn 0.52651822566986084 0 -0.85016381740570068
vn -0.37846842408180237 0 0.92561417818069458
vn -0.37846842408180237 0 0.92561417818069458
vn -0.92561417818069458 0 -0.37846842408180237
vn -0.92561417818069458 0 -0.37846842408180237
vn -0.52651822566986084 0 0.85016381740570068
vn -0.52651822566986084 0 0.85016381740570068
vn -0.85016381740570068 0 -0.52651822566986084
vn -0.85016381740570068 0 -0.52651822566986084
vn 0.72897875308990479 0 0.68453633785247803
vn 0.72897875308990479 0 0.68453633785247803
vn 0.68453633785247803 0 -0.72897875308990479
vn 0.68453633785247803 0 -0.72897875308990479
vn 0.99846452474594116 0 -0.055394824594259262
vn 0.99846452474594116 0 -0.055394824594259262
vn 0.055394824594259262 0 0.99846452474594116
vn 0.055394824594259262 0 0.99846452474594116
vn -0.055394824594259262 0 -0.99846452474594116
vn -0.055394824594259262 0 -0.99846452474594116
vn -0.99846452474594116 0 0.055394824594259262
vn -0.99846452474594116 0 0.055394824594259262
vn -0.68453633785247803 0 0.72897875308990479
vn -0.68453633785247803 0 0.72897875308990479
vn -0.72897875308990479 0 -0.68453633785247803
vn -0.72897875308990479 0 -0.68453633785247803
vn 0.91257870197296143 0 -0.4089011549949646
vn 0.91257870197296143 0 -0.4089011549949646
vn 0.97867125272750854 0 -0.20543256402015686
vn 0.97867125272750854 0 -0.20543256402015686
vn 0.4089011549949646 0 0.91257870197296143
vn 0.4089011549949646 0 0.91257870197296143
vn -0.20543256402015686 0 -0.97867125272750854
vn -0.20543256402015686 0 -0.97867125272750854
vn 0.20543256402015686 0 0.97867125272750854
vn 0.20543256402015686 0 0.97867125272750854
vn -0.97867125272750854 0 0.20543256402015686
vn -0.97867125272750854 0 0.20543256402015686
vn 0.98739868402481079 0 0.15825261175632477
vn 0.98739868402481079 0 0.15825261175632477
vn 0.15825261175632477 0 -0.98739868402481079
vn 0.15825261175632477 0 -0.98739868402481079
vn -0.4089011549949646 0 -0.91257870197296143
vn -0.4089011549949646 0 -0.91257870197296143
vn -0.91257870197296143 0 0.4089011549949646
vn -0.91257870197296143 0 0.4089011549949646
vn 0.8579021692276001 0 0.5138130784034729
vn 0.8579021692276001 0 0.5138130784034729
vn -0.5138130784034729 0 0.8579021692276001
vn -0.5138130784034729 0 0.8579021692276001
vn 0.5138130784034729 0 -0.8579021692276001
vn 0.5138130784034729 0 -0.8579021692276001
vn -0.8579021692276001 0 -0.5138130784034729
vn -0.8579021692276001 0 -0.5138130784034729
vn 0.9849352240562439 0 0.17292355000972748
vn 0.9849352240562439 0 0.17292355000972748
vn -0.17292355000972748 0 0.9849352240562439
vn -0.17292355000972748 0 0.9849352240562439
vn -0.15825261175632477 0 0.98739868402481079
vn -0.15825261175632477 0 0.98739868402481079
vn -0.98739868402481079 0 -0.15825261175632477
vn -0.98739868402481079 0 -0.15825261175632477
vn 0.71871501207351685 0 0.6953047513961792
vn 0.71871501207351685 0 0.6953047513961792
vn 0.6953047513961792 0 -0.71871501207351685
vn 0.6953047513961792 0 -0.71871501207351685
vn 0.90639495849609375 0 -0.42243129014968872
vn 0.90639495849609375 0 -0.42243129014968872
vn -0.6953047513961792 0 0.71871501207351685
vn -0.6953047513961792 0 0.71871501207351685
vn -0.71871501207351685 0 -0.6953047513961792
vn -0.71871501207351685 0 -0.6953047513961792
vn -0.42243129014968872 0 -0.90639495849609375
vn -0.42243129014968872 0 -0.90639495849609375
vn 0.17292355000972748 0 -0.9849352240562439
vn 0.17292355000972748 0 -0.9849352240562439
vn 0.42243129014968872 0 0.90639495849609375
vn 0.42243129014968872 0 0.90639495849609375
vn -0.9849352240562439 0 -0.17292355000972748
vn -0.9849352240562439 0 -0.17292355000972748
vn -0.90639495849609375 0 0.42243129014968872
vn -0.90639495849609375 0 0.42243129014968872
f 6//6 18//18 17//17 5//5
f 18//18 14//14 13//13 17//17
f 14//14 2//2 1//1 13//13
f 2//2 6//6 5//5 1//1
f 36//36 32//32 31//31 35//35
f 32//32 30//30 29//29 31//31
f 30//30 34//34 33//33 29//29
f 34//34 36//36 35//35 33//33
f 68//68 64//64 63//63 67//67
f 64//64 58//58 57//57 63//63
f 58//58 66//66 65//65 57//57
f 66//66 68//68 67//67 65//65
f 102//102 90//90 89//89 101//101
f 90//90 92//92 91//91 89//89
f 92//92 104//104 103//103 91//91
f 104//104 102//102 101//101 103//103
f 138//138 118//118 117//117 137//137
f 118//118 120//120 119//119 117//117
f 120//120 140//140 139//139 119//119
f 140//140 138//138 137//137 139//139
f 156//156 146//146 145//145 155//155
f 146//146 152//152 151//151 145//145
f 152//152 160//160 159//159 151//151
f 160//160 156//156 155//155 159//159
f 126//126 130//130 129//129 125//125
f 130//130 132//132 131//131 129//129
f 132//132 128//128 127//127 131//131
f 128//128 126//126 125//125 127//127
f 94//94 98//98 97//97 93//93
f 98//98 100//100 99//99 97//97
f 100//100 96//96 95//95 99//99
f 96//96 94//94 93//93 95//95
f 60//60 70//70 69//69 59//59
f 70//70 72//72 71//71 69//69
f 72//72 62//62 61//61 71//71
f 62//62 60//60 59//59 61//61
f 26//26 44//44 43//43 25//25
f 44//44 42//42 41//41 43//43
f 42//42 22//22 21//21 41//41
f 22//22 26//26 25//25 21//21
f 8//8 4//4 3//3 7//7
f 4//4 16//16 15//15 3//3
f 16//16 20//20 19//19 15//15
f 20//20 8//8 7//7 19//19
f 12//12 10//10 9//9 11//11
f 10//10 24//24 23//23 9//9
f 24//24 28//28 27//27 23//23
f 28//28 12//12 11//11 27//27
f 40//40 38//38 37//37 39//39
f 38//38 50//50 49//49 37//37
f 50//50 54//54 53//53 49//49
f 54//54 40//40 39//39 53//53
f 74//74 76//76 75//75 73//73
f 76//76 84//84 83//83 75//75
f 84//84 82//82 81//81 83//83
f 82//82 74//74 73//73 81//81
f 108//108 112//112 111//111 107//107
f 112//112 116//116 115//115 111//111
f 116//116 114//114 113//113 115//115
f 114//114 108//108 107//107 113//113
f 144//144 150//150 149//149 143//143
f 150//150 148//148 147//147 149//149
f 148//148 142//142 141//141 147//147
f 142//142 144//144 143//143 141//141
f 154//154 158//158 157//157 153//153
f 158//158 136//136 135//135 157//157
f 136//136 134//134 133//133 135//135
f 134//134 154//154 153//153 133//133
f 122//122 124//124 123//123 121//121
f 124//124 110//110 109//109 123//123
f 110//110 106//106 105//105 109//109
f 106//106 122//122 121//121 105//105
f 88//88 86//86 85//85 87//87
f 86//86 78//78 77//77 85//85
f 78//78 80//80 79//79 77//77
f 80//80 88//88 87//87 79//79
f 56//56 52//52 51//51 55//55
f 52//52 46//46 45//45 51//51
f 46//46 48//48 47//47 45//45
f 48//48 56//56 55//55 47//47
