# Rhino

mtllib Pannelli71.mtl
usemtl diffuse_Black
v 1.4446890599274906 3 -0.17852841719183271
v 1.4446890599274906 0 -0.17852841719183263
v 1.4446890599274915 3 0.17852841719182641
v 1.4446890599274915 0 0.17852841719182641
v 1.4346963692004995 3 -0.19585314322241398
v 1.4346963692004995 0 -0.19585314322241396
v 1.4346963692005004 3 0.19585314322240779
v 1.4346963692005004 0 0.19585314322240779
v 1.4338772117960699 3 -0.25098808161170977
v 1.4338772117960699 0 -0.25098808161170977
v 1.4293772998347363 3 -0.23150088601202834
v 1.4293772998347363 0 -0.23150088601202834
v 1.3296435945919238 3 -0.59249201427518472
v 1.3296435945919238 0 -0.59249201427518461
v 1.3150286606657788 3 -0.60614498854214993
v 1.3150286606657788 0 -0.60614498854214993
v 1.2995348351738458 3 -0.63868719861672585
v 1.2995348351738458 0 -0.63868719861672585
v 1.2981499484906427 3 -0.65863919322565367
v 1.2981499484906427 0 -0.65863919322565367
v 1.1721471583662826 3 -0.021329571585853163
v 1.1721471583662826 0 -0.021329571585853194
v 1.172147158366283 3 0.021329571585848146
v 1.172147158366283 0 0.021329571585848146
v 1.1621544676392914 3 -0.038654297616434435
v 1.1621544676392914 0 -0.038654297616434526
v 1.1621544676392919 3 0.038654297616429516
v 1.1621544676392919 0 0.038654297616429516
v 1.1273166730921762 3 -0.32177792040252812
v 1.1273166730921762 0 -0.32177792040252812
v 1.1228167611308422 3 -0.30229072480284663
v 1.1228167611308422 0 -0.30229072480284663
v 1.1148634265178836 3 -0.36257889031628837
v 1.1148634265178836 0 -0.36257889031628843
v 1.1002484925917386 3 -0.37623186458325369
v 1.1002484925917386 0 -0.37623186458325375
v 1.0987632584002531 3 -0.95483934649178337
v 1.0987632584002531 0 -0.95483934649178337
v 1.0807992938792879 3 -0.96363115965457846
v 1.0807992938792879 0 -0.96363115965457846
v 1.0564804914668495 3 -0.99023284971624714
v 1.0564804914668495 0 -0.99023284971624714
v 1.0493314536349883 3 -1.0089114807709745
v 1.0493314536349883 0 -1.0089114807709745
v 0.98566236521053863 3 -0.61690101571139622
v 0.98566236521053863 0 -0.61690101571139622
v 0.98427747852733549 3 -0.63685301032032415
v 0.98427747852733549 0 -0.63685301032032415
v 0.9604558777623482 3 -0.67224133937295494
v 0.9604558777623482 0 -0.67224133937295494
v 0.94249191324138293 3 -0.68103315253575003
v 0.94249191324138293 0 -0.68103315253575003
v 0.77216170739892043 3 -1.234003716868787
v 0.77216170739892043 0 -1.234003716868787
v 0.76263979134671211 3 -0.87776859708742638
v 0.76263979134671211 0 -0.87776859708742638
v 0.75549075351485107 3 -0.89644722814215361
v 0.75549075351485107 0 -0.89644722814215361
v 0.75241368316616908 3 -1.2371684504914899
v 0.75241368316616908 0 -1.2371684504914899
v 0.72237607050378772 3 -0.9233399830255884
v 0.72237607050378772 0 -0.9233399830255884
v 0.72138849060961963 3 -1.2555121549085735
v 0.72138849060961963 0 -1.2555121549085735
v 0.70909810602372747 3 -1.2712901917551163
v 0.70909810602372747 0 -1.2712901917551163
v 0.70262804627103637 3 -0.92650471664829137
v 0.70262804627103637 0 -0.92650471664829137
v 0.47317814907411826 3 -1.0621674070583116
v 0.47317814907411826 0 -1.0621674070583116
v 0.46088776448822599 3 -1.0779454439048544
v 0.46088776448822599 0 -1.0779454439048544
v 0.42136485878715774 3 -1.0939998022255149
v 0.42136485878715774 0 -1.0939998022255149
v 0.40155316807127811 3 -1.0912617534716886
v 0.40155316807127811 0 -1.0912617534716886
v 0.37829156500935707 3 -1.4056650979027572
v 0.37829156500935707 0 -1.4056650979027572
v 0.35847987429347744 3 -1.402927049148931
v 0.35847987429347744 0 -1.402927049148931
v 0.32345112052208091 3 -1.4114147151493801
v 0.32345112052208091 0 -1.4114147151493801
v 0.30709009347996263 3 -1.4229176188752692
v 0.30709009347996263 0 -1.4229176188752692
v 0.1424945357313353 3 -1.1540331315282488
v 0.1424945357313353 0 -1.1540331315282488
v 0.12613350868921702 3 -1.165536035254138
v 0.12613350868921702 0 -1.165536035254138
v 0.083645506483507728 3 -1.1693533857373077
v 0.083645506483507728 0 -1.1693533857373077
v 0.065496088961003396 3 -1.1609510858382437
v 0.065496088961003382 0 -1.1609510858382437
v -0.048534291796489964 3 -1.4548688250625932
v -0.048534291796489964 0 -1.4548688250625932
v -0.066683709318994297 3 -1.4464665251635291
v -0.066683709318994311 0 -1.4464665251635291
v -0.1026644162007328 3 -1.4443587307706345
v -0.1026644162007328 0 -1.4443587307706345
v -0.12167075829389487 3 -1.4505844002316399
v -0.12167075829389487 0 -1.4505844002316399
v -0.20060280728402619 3 -1.1453626827725589
v -0.20060280728402619 0 -1.1453626827725589
v -0.2196091493771882 3 -1.1515883522335644
v -0.2196091493771882 0 -1.1515883522335644
v -0.26136081089906921 3 -1.1428361378677034
v -0.26136081089906926 0 -1.1428361378677034
v -0.27626682819281562 3 -1.1295015719415649
v -0.27626682819281562 0 -1.1295015719415649
v -0.47113197539471557 3 -1.3773284057841364
v -0.47113197539471563 0 -1.3773284057841364
v -0.48603799268846198 3 -1.3639938398579978
v -0.48603799268846198 0 -1.3639938398579978
v -0.51983611305510502 3 -1.3514742102870314
v -0.51983611305510502 0 -1.3514742102870314
v -0.52622418879389221 3 -1.0369114062958298
v -0.52622418879389221 0 -1.0369114062958298
v -0.53983199026643036 3 -1.3518802823860487
v -0.53983199026643036 0 -1.3518802823860487
v -0.54622006600521755 3 -1.0373174783948469
v -0.54622006600521755 0 -1.0373174783948469
v -0.58359809761773251 3 -1.0167581678782576
v -0.58359809761773251 0 -1.0167581678782576
v -0.59396214370082567 3 -0.99965300641197707
v -0.59396214370082556 0 -0.99965300641197707
v -0.80600237503081296 3 -0.83812727722158886
v -0.80600237503081296 0 -0.83812727722158886
v -0.8252458018659562 3 -0.83267837608094686
v -0.8252458018659562 0 -0.83267837608094686
v -0.85268594491196859 3 -1.1797989468416985
v -0.85268594491196859 0 -1.1797989468416985
v -0.85499393287949987 3 -0.80210303965851704
v -0.85499393287949987 0 -0.80210303965851715
v -0.85991312073434745 3 -0.78271743698930085
v -0.85991312073434745 0 -0.78271743698930096
v -0.86304999099506174 3 -1.162693785375418
v -0.86304999099506163 0 -1.162693785375418
v -0.89172112611918131 3 -1.1408529961129674
v -0.89172112611918131 0 -1.1408529961129674
v -0.91096455295432444 3 -1.1354040949723254
v -0.91096455295432444 0 -1.1354040949723254
v -1.0155638645520544 3 -0.56632781884195127
v -1.0155638645520544 0 -0.56632781884195127
v -1.0323784069114237 3 -0.55549863765199181
v -1.0323784069114237 0 -0.55549863765199181
v -1.0509508460567578 3 -0.49759369022403249
v -1.0509508460567578 0 -0.49759369022403249
v -1.0519050624647477 3 -0.51757091403132671
v -1.0519050624647477 0 -0.51757091403132671
v -1.1599562742782636 3 -0.87948866813716664
v -1.1599562742782636 0 -0.87948866813716664
v -1.1648754621331112 3 -0.86010306546795046
v -1.1648754621331112 0 -0.86010306546795046
v -1.1859218620553134 3 -0.83084382564140991
v -1.1859218620553134 0 -0.83084382564140991
v -1.2027364044146829 3 -0.82001464445145034
v -1.2027364044146829 0 -0.82001464445145034
v -1.3652202062038108 3 -0.48258254638975412
v -1.3652202062038108 0 -0.48258254638975412
v -1.3661744226118007 3 -0.50255977019704834
v -1.3661744226118007 0 -0.50255977019704834
vn 0.96581649780273438 0 0.25922662019729614
vn 0.96581649780273438 0 0.25922662019729614
vn 0.96581649780273438 0 -0.25922662019729614
vn 0.96581649780273438 0 -0.25922662019729614
vn 0.25922662019729614 0 -0.96581649780273438
vn 0.25922662019729614 0 -0.96581649780273438
vn 0.25922662019729614 0 0.96581649780273438
vn 0.25922662019729614 0 0.96581649780273438
vn 0.848072350025177 0 -0.52988046407699585
vn 0.848072350025177 0 -0.52988046407699585
vn 0.52988046407699585 0 0.848072350025177
vn 0.52988046407699585 0 0.848072350025177
vn 0.99942147731781006 0 -0.034010399132966995
vn 0.99942147731781006 0 -0.034010399132966995
vn -0.034010399132966995 0 -0.99942147731781006
vn -0.034010399132966995 0 -0.99942147731781006
vn 0.75437265634536743 0 0.65644639730453491
vn 0.75437265634536743 0 0.65644639730453491
vn 0.65644639730453491 0 -0.75437265634536743
vn 0.65644639730453491 0 -0.75437265634536743
vn -0.25922662019729614 0 0.96581649780273438
vn -0.25922662019729614 0 0.96581649780273438
vn -0.25922662019729614 0 -0.96581649780273438
vn -0.25922662019729614 0 -0.96581649780273438
vn -0.96581649780273438 0 -0.25922662019729614
vn -0.96581649780273438 0 -0.25922662019729614
vn -0.96581649780273438 0 0.25922662019729614
vn -0.96581649780273438 0 0.25922662019729614
vn -0.52988046407699585 0 -0.848072350025177
vn -0.52988046407699585 0 -0.848072350025177
vn -0.848072350025177 0 0.52988046407699585
vn -0.848072350025177 0 0.52988046407699585
vn 0.034010399132966995 0 0.99942147731781006
vn 0.034010399132966995 0 0.99942147731781006
vn -0.99942147731781006 0 0.034010399132966995
vn -0.99942147731781006 0 0.034010399132966995
vn 0.94595956802368164 0 -0.32428452372550964
vn 0.94595956802368164 0 -0.32428452372550964
vn -0.32428452372550964 0 -0.94595956802368164
vn -0.32428452372550964 0 -0.94595956802368164
vn 0.91314595937728882 0 0.40763270854949951
vn 0.91314595937728882 0 0.40763270854949951
vn 0.40763270854949951 0 -0.91314595937728882
vn 0.40763270854949951 0 -0.91314595937728882
vn -0.65644639730453491 0 0.75437265634536743
vn -0.65644639730453491 0 0.75437265634536743
vn -0.75437265634536743 0 -0.65644639730453491
vn -0.75437265634536743 0 -0.65644639730453491
vn 0.32428452372550964 0 0.94595956802368164
vn 0.32428452372550964 0 0.94595956802368164
vn -0.94595956802368164 0 0.32428452372550964
vn -0.94595956802368164 0 0.32428452372550964
vn 0.81008833646774292 0 -0.58630788326263428
vn 0.81008833646774292 0 -0.58630788326263428
vn -0.40763270854949951 0 0.91314595937728882
vn -0.40763270854949951 0 0.91314595937728882
vn -0.91314595937728882 0 -0.40763270854949951
vn -0.91314595937728882 0 -0.40763270854949951
vn -0.58630788326263428 0 -0.81008833646774292
vn -0.58630788326263428 0 -0.81008833646774292
vn 0.58630788326263428 0 0.81008833646774292
vn 0.58630788326263428 0 0.81008833646774292
vn 0.99236857891082764 0 0.12330713123083115
vn 0.99236857891082764 0 0.12330713123083115
vn 0.12330713123083115 0 -0.99236857891082764
vn 0.12330713123083115 0 -0.99236857891082764
vn -0.81008833646774292 0 0.58630788326263428
vn -0.81008833646774292 0 0.58630788326263428
vn -0.12330713123083115 0 0.99236857891082764
vn -0.12330713123083115 0 0.99236857891082764
vn -0.99236857891082764 0 -0.12330713123083115
vn -0.99236857891082764 0 -0.12330713123083115
vn 0.79725366830825806 0 0.60364443063735962
vn 0.79725366830825806 0 0.60364443063735962
vn -0.60364443063735962 0 0.79725366830825806
vn -0.60364443063735962 0 0.79725366830825806
vn 0.60364443063735962 0 -0.79725366830825806
vn 0.60364443063735962 0 -0.79725366830825806
vn -0.79725366830825806 0 -0.60364443063735962
vn -0.79725366830825806 0 -0.60364443063735962
vn 0.98513871431350708 0 -0.17176058888435364
vn 0.98513871431350708 0 -0.17176058888435364
vn -0.17176058888435364 0 -0.98513871431350708
vn -0.17176058888435364 0 -0.98513871431350708
vn 0.17176058888435364 0 0.98513871431350708
vn 0.17176058888435364 0 0.98513871431350708
vn -0.98513871431350708 0 0.17176058888435364
vn -0.98513871431350708 0 0.17176058888435364
vn 0.93874496221542358 0 0.34461262822151184
vn 0.93874496221542358 0 0.34461262822151184
vn -0.34461262822151184 0 0.93874496221542358
vn -0.34461262822151184 0 0.93874496221542358
vn 0.34461262822151184 0 -0.93874496221542358
vn 0.34461262822151184 0 -0.93874496221542358
vn -0.93874496221542358 0 -0.34461262822151184
vn -0.93874496221542358 0 -0.34461262822151184
vn 0.89208632707595825 0 -0.45186501741409302
vn 0.89208632707595825 0 -0.45186501741409302
vn -0.45186501741409302 0 -0.89208632707595825
vn -0.45186501741409302 0 -0.89208632707595825
vn 0.45186501741409302 0 0.89208632707595825
vn 0.45186501741409302 0 0.89208632707595825
vn -0.89208632707595825 0 0.45186501741409302
vn -0.89208632707595825 0 0.45186501741409302
vn 0.99845540523529053 0 0.055559195578098297
vn 0.99845540523529053 0 0.055559195578098297
vn -0.055559195578098297 0 0.99845540523529053
vn -0.055559195578098297 0 0.99845540523529053
vn 0.055559195578098297 0 -0.99845540523529053
vn 0.055559195578098297 0 -0.99845540523529053
vn -0.99845540523529053 0 -0.055559195578098297
vn -0.99845540523529053 0 -0.055559195578098297
vn 0.7213178277015686 0 -0.6926041841506958
vn 0.7213178277015686 0 -0.6926041841506958
vn 0.6926041841506958 0 0.7213178277015686
vn 0.6926041841506958 0 0.7213178277015686
vn -0.6926041841506958 0 -0.7213178277015686
vn -0.6926041841506958 0 -0.7213178277015686
vn -0.7213178277015686 0 0.6926041841506958
vn -0.7213178277015686 0 0.6926041841506958
vn 0.97118312120437622 0 -0.23833441734313965
vn 0.97118312120437622 0 -0.23833441734313965
vn 0.23833441734313965 0 0.97118312120437622
vn 0.23833441734313965 0 0.97118312120437622
vn 0.87300562858581543 0 0.48771011829376221
vn 0.87300562858581543 0 0.48771011829376221
vn -0.48771011829376221 0 0.87300562858581543
vn -0.48771011829376221 0 0.87300562858581543
vn -0.23833441734313965 0 -0.97118312120437622
vn -0.23833441734313965 0 -0.97118312120437622
vn 0.85930413007736206 0 -0.51146501302719116
vn 0.85930413007736206 0 -0.51146501302719116
vn 0.51146501302719116 0 0.85930413007736206
vn 0.51146501302719116 0 0.85930413007736206
vn -0.97118312120437622 0 0.23833441734313965
vn -0.97118312120437622 0 0.23833441734313965
vn 0.48771011829376221 0 -0.87300562858581543
vn 0.48771011829376221 0 -0.87300562858581543
vn -0.87300562858581543 0 -0.48771011829376221
vn -0.87300562858581543 0 -0.48771011829376221
vn 0.97735321521759033 0 0.21161444485187531
vn 0.97735321521759033 0 0.21161444485187531
vn -0.21161444485187531 0 0.97735321521759033
vn -0.21161444485187531 0 0.97735321521759033
vn 0.74003815650939941 0 0.67256486415863037
vn 0.74003815650939941 0 0.67256486415863037
vn 0.67256486415863037 0 -0.74003815650939941
vn 0.67256486415863037 0 -0.74003815650939941
vn -0.51146501302719116 0 -0.85930413007736206
vn -0.51146501302719116 0 -0.85930413007736206
vn -0.85930413007736206 0 0.51146501302719116
vn -0.85930413007736206 0 0.51146501302719116
vn 0.21161444485187531 0 -0.97735321521759033
vn 0.21161444485187531 0 -0.97735321521759033
vn -0.97735321521759033 0 -0.21161444485187531
vn -0.97735321521759033 0 -0.21161444485187531
vn -0.67256486415863037 0 0.74003815650939941
vn -0.67256486415863037 0 0.74003815650939941
vn -0.74003815650939941 0 -0.67256486415863037
vn -0.74003815650939941 0 -0.67256486415863037
f 6//6 26//26 25//25 5//5
f 26//26 22//22 21//21 25//25
f 22//22 2//2 1//1 21//21
f 2//2 6//6 5//5 1//1
f 16//16 36//36 35//35 15//15
f 36//36 34//34 33//33 35//35
f 34//34 14//14 13//13 33//33
f 14//14 16//16 15//15 13//13
f 40//40 52//52 51//51 39//39
f 52//52 50//50 49//49 51//51
f 50//50 38//38 37//37 49//49
f 38//38 40//40 39//39 37//37
f 60//60 68//68 67//67 59//59
f 68//68 62//62 61//61 67//67
f 62//62 54//54 53//53 61//61
f 54//54 60//60 59//59 53//53
f 80//80 76//76 75//75 79//79
f 76//76 74//74 73//73 75//75
f 74//74 78//78 77//77 73//73
f 78//78 80//80 79//79 77//77
f 96//96 92//92 91//91 95//95
f 92//92 90//90 89//89 91//91
f 90//90 94//94 93//93 89//89
f 94//94 96//96 95//95 93//93
f 112//112 108//108 107//107 111//111
f 108//108 106//106 105//105 107//107
f 106//106 110//110 109//109 105//105
f 110//110 112//112 111//111 109//109
f 136//136 124//124 123//123 135//135
f 124//124 122//122 121//121 123//123
f 122//122 130//130 129//129 121//121
f 130//130 136//136 135//135 129//129
f 152//152 134//134 133//133 151//151
f 134//134 132//132 131//131 133//133
f 132//132 150//150 149//149 131//131
f 150//150 152//152 151//151 149//149
f 158//158 146//146 145//145 157//157
f 146//146 148//148 147//147 145//145
f 148//148 160//160 159//159 147//147
f 160//160 158//158 157//157 159//159
f 8//8 4//4 3//3 7//7
f 4//4 24//24 23//23 3//3
f 24//24 28//28 27//27 23//23
f 28//28 8//8 7//7 27//27
f 12//12 10//10 9//9 11//11
f 10//10 30//30 29//29 9//9
f 30//30 32//32 31//31 29//29
f 32//32 12//12 11//11 31//31
f 18//18 20//20 19//19 17//17
f 20//20 48//48 47//47 19//19
f 48//48 46//46 45//45 47//47
f 46//46 18//18 17//17 45//45
f 42//42 44//44 43//43 41//41
f 44//44 58//58 57//57 43//43
f 58//58 56//56 55//55 57//57
f 56//56 42//42 41//41 55//55
f 64//64 66//66 65//65 63//63
f 66//66 72//72 71//71 65//65
f 72//72 70//70 69//69 71//71
f 70//70 64//64 63//63 69//69
f 82//82 84//84 83//83 81//81
f 84//84 88//88 87//87 83//83
f 88//88 86//86 85//85 87//87
f 86//86 82//82 81//81 85//85
f 98//98 100//100 99//99 97//97
f 100//100 104//104 103//103 99//99
f 104//104 102//102 101//101 103//103
f 102//102 98//98 97//97 101//101
f 114//114 118//118 117//117 113//113
f 118//118 120//120 119//119 117//117
f 120//120 116//116 115//115 119//119
f 116//116 114//114 113//113 115//115
f 138//138 140//140 139//139 137//137
f 140//140 128//128 127//127 139//139
f 128//128 126//126 125//125 127//127
f 126//126 138//138 137//137 125//125
f 154//154 156//156 155//155 153//153
f 156//156 144//144 143//143 155//155
f 144//144 142//142 141//141 143//143
f 142//142 154//154 153//153 141//141
