# Rhino

mtllib Pannelli126.mtl
usemtl diffuse_Black
v 1.3227582409457279 3 -0.29120232641008398
v 1.3227582409457279 0 -0.29120232641008398
v 1.3227582409457299 3 0.29120232641007487
v 1.3227582409457299 0 0.29120232641007487
v 1.3055686733049359 3 -0.30142576831203854
v 1.3055686733049359 0 -0.30142576831203854
v 1.3055686733049381 3 0.30142576831202955
v 1.3055686733049381 0 0.30142576831202955
v 1.3025890202668531 3 -0.37114687547751452
v 1.3025890202668531 0 -0.37114687547751452
v 1.2923066001298487 3 -0.35399252220710153
v 1.2923066001298487 0 -0.35399252220710153
v 1.1686443126788721 3 -0.03207709053186085
v 1.1686443126788721 0 -0.03207709053186085
v 1.1686443126788724 3 0.032077090531852766
v 1.1686443126788724 0 0.032077090531852766
v 1.1514547450380801 3 -0.042300532433815416
v 1.1514547450380801 0 -0.042300532433815409
v 1.1514547450380805 3 0.042300532433807471
v 1.1514547450380805 0 0.042300532433807471
v 1.0439946256652377 3 -0.52614987491755905
v 1.0439946256652377 0 -0.52614987491755905
v 1.0337122055282333 3 -0.50899552164714601
v 1.0337122055282333 0 -0.50899552164714601
v 1.0263047109497878 3 -0.88384772397667799
v 1.0263047109497878 0 -0.88384772397667799
v 1.0135608138487251 3 -0.5826259056409806
v 1.0135608138487251 0 -0.5826259056409806
v 1.0063225860764036 3 -0.88469311474104551
v 1.0063225860764036 0 -0.88469311474104551
v 0.99357868897534074 3 -0.58347129640534812
v 0.99357868897534074 0 -0.58347129640534812
v 0.97062486546545124 3 -0.94465630227964725
v 0.97062486546545124 0 -0.94465630227964725
v 0.96971084995889156 3 -0.92467719880492216
v 0.96971084995889156 0 -0.92467719880492216
v 0.66944859339692153 3 -0.95843468744226179
v 0.66944859339692153 0 -0.95843468744226179
v 0.66853457789036186 3 -0.9384555839675367
v 0.66853457789036186 0 -0.9384555839675367
v 0.61586577579464519 3 -0.99371415180549905
v 0.61586577579464519 0 -0.99371415180549905
v 0.59787412595102285 3 -0.98497913400903814
v 0.59787412595102285 0 -0.98497913400903814
v 0.48418919182187264 3 -1.2649304271063144
v 0.48418919182187264 0 -1.2649304271063144
v 0.46619754197825031 3 -1.2561954093098535
v 0.46619754197825031 0 -1.2561954093098535
v 0.41499973118234823 3 -1.2740260113656598
v 0.41499973118234823 0 -1.2740260113656598
v 0.4063265582362286 3 -1.2920475560010871
v 0.4063265582362286 0 -1.2920475560010871
v 0.14333280493207903 3 -1.1432817115414717
v 0.14333280493207903 0 -1.1432817115414717
v 0.13465963198595937 3 -1.1613032561768992
v 0.13465963198595937 0 -1.1613032561768992
v 0.070753689074770185 3 -1.1669414658739199
v 0.070753689074770185 0 -1.1669414658739199
v 0.059059095377798645 3 -1.1507169018346999
v 0.059059095377798632 0 -1.1507169018346999
v -0.049693137553746915 3 1.3389912795077412
v -0.049693137553746922 0 1.3389912795077412
v -0.064047843944417759 3 1.3529176000712508
v -0.064047843944417759 0 1.3529176000712508
v -0.17382453834424993 3 -1.3432323658868146
v -0.17382453834424991 0 -1.3432323658868146
v -0.18551913204122147 3 -1.3270078018475946
v -0.18551913204122145 0 -1.3270078018475946
v -0.23904802549887932 3 -1.3184168900703603
v -0.23904802549887932 0 -1.3184168900703603
v -0.25523232810607666 3 -1.3301671389663907
v -0.25523232810607666 0 -1.3301671389663907
v -0.25962634683189156 3 1.1226003407026122
v -0.25962634683189156 0 1.1226003407026122
v -0.27398105322256244 3 1.1365266612661218
v -0.27398105322256244 0 1.1365266612661218
v -0.33591260243765059 3 1.1197862263919967
v -0.33591260243765059 0 1.1197862263919967
v -0.34129639429605541 3 1.1005244823062348
v -0.34129639429605541 0 1.1005244823062348
v -0.41617790336656069 3 -1.0744455861812214
v -0.41617790336656069 0 -1.0744455861812214
v -0.43236220597375813 3 -1.0861958350772518
v -0.43236220597375813 0 -1.0861958350772518
v -0.49129439317458795 3 -1.0608431969564946
v -0.4912943931745879 0 -1.0608431969564946
v -0.49389264790077608 3 -1.0410126883301924
v -0.49389264790077603 0 -1.0410126883301924
v -0.62627499455532798 3 1.2009445408057797
v -0.62627499455532798 0 1.2009445408057797
v -0.63165878641373274 3 1.1816827967200181
v -0.63165878641373274 0 1.1816827967200181
v -0.67894374248905709 3 1.1551633863019837
v -0.67894374248905709 0 1.1551633863019837
v -0.6981868820319882 3 1.1606133019464027
v -0.6981868820319882 0 1.1606133019464027
v -0.76109884414066831 3 0.86508144955410571
v -0.76109884414066831 0 0.86508144955410582
v -0.78034198368359942 3 0.87053136519852481
v -0.78034198368359942 0 0.87053136519852492
v -0.79023066270480458 3 -1.1000107538645278
v -0.79023066270480469 0 -1.1000107538645278
v -0.79282891743099271 3 -1.0801802452382256
v -0.79282891743099271 0 -1.0801802452382256
v -0.8225219271620634 3 0.80690460666208852
v -0.8225219271620634 0 0.80690460666208852
v -0.82691997411211182 3 0.82641504445894931
v -0.82691997411211182 0 0.82641504445894931
v -0.83587592065596028 3 -1.0472241879298168
v -0.83587592065596028 0 -1.0472241879298168
v -0.85569738846828103 3 -1.0498905363251185
v -0.85569738846828103 0 -1.0498905363251185
v -0.8760699599304852 3 -0.74842420472770155
v -0.8760699599304852 0 -0.74842420472770155
v -0.89589142774280606 3 -0.75109055312300332
v -0.89589142774280606 0 -0.75109055312300332
v -0.92862350706328922 3 -0.68212590263408968
v -0.92862350706328922 0 -0.68212590263408968
v -0.93574352397320004 3 -0.70081561529112602
v -0.93574352397320015 0 -0.70081561529112602
v -1.0803904998506466 3 0.40049186352204935
v -1.0803904998506466 0 0.4004918635220493
v -1.0999159279117694 3 0.39616085220482528
v -1.0999159279117694 0 0.39616085220482528
v -1.1068640485271144 3 0.32013956799036958
v -1.1068640485271144 0 0.32013956799036958
v -1.1166332685201532 3 0.74060596686207769
v -1.1166332685201532 0 0.74060596686207769
v -1.1199911933690856 3 0.33522857287133878
v -1.1199911933690856 0 0.33522857287133878
v -1.1210313154702014 3 0.76011640465893837
v -1.1210313154702014 0 0.76011640465893837
v -1.1262610508074051 3 -0.24325585367899025
v -1.1262610508074051 0 -0.24325585367899025
v -1.1410738919514916 3 -0.15996167672780268
v -1.1410738919514916 0 -0.15996167672780262
v -1.1449751073278909 3 -0.23620006962985279
v -1.1449751073278909 0 -0.23620006962985279
v -1.1456786067198217 3 0.69482917657669008
v -1.1456786067198217 0 0.69482917657669008
v -1.1562078937510016 3 -0.17303692011109859
v -1.1562078937510016 0 -0.17303692011109859
v -1.1652040347809445 3 0.69049816525946595
v -1.1652040347809445 0 0.69049816525946595
v -1.2103627748537169 3 -0.57479475273015856
v -1.2103627748537169 0 -0.57479475273015856
v -1.2174827917636277 3 -0.5934844653871949
v -1.2174827917636277 0 -0.5934844653871949
v -1.2326239183468877 3 -0.52536209459465111
v -1.2326239183468877 0 -0.52536209459465111
v -1.2513379748673734 3 -0.51830631054551368
v -1.2513379748673734 0 -0.51830631054551368
v -1.3343242168486404 3 0.12225358419684923
v -1.3343242168486404 0 0.12225358419684923
v -1.3381774838895166 3 0.068176800517739777
v -1.3381774838895166 0 0.068176800517739777
v -1.3474513616906114 3 0.13734258907781832
v -1.3474513616906114 0 0.13734258907781832
v -1.3533114856890267 3 0.055101557134443868
v -1.3533114856890267 0 0.05510155713444382
vn 0.96919625997543335 0 -0.2462897002696991
vn 0.96919625997543335 0 -0.2462897002696991
vn 0.96919625997543335 0 0.2462897002696991
vn 0.96919625997543335 0 0.2462897002696991
vn -0.2462897002696991 0 -0.96919625997543335
vn -0.2462897002696991 0 -0.96919625997543335
vn -0.2462897002696991 0 0.96919625997543335
vn -0.2462897002696991 0 0.96919625997543335
vn 0.97003644704818726 0 -0.24295954406261444
vn 0.97003644704818726 0 -0.24295954406261444
vn 0.24295954406261444 0 0.97003644704818726
vn 0.24295954406261444 0 0.97003644704818726
vn 0.2462897002696991 0 0.96919625997543335
vn 0.2462897002696991 0 0.96919625997543335
vn 0.2462897002696991 0 -0.96919625997543335
vn 0.2462897002696991 0 -0.96919625997543335
vn -0.96919625997543335 0 0.2462897002696991
vn -0.96919625997543335 0 0.2462897002696991
vn -0.96919625997543335 0 -0.2462897002696991
vn -0.96919625997543335 0 -0.2462897002696991
vn -0.24295954406261444 0 -0.97003644704818726
vn -0.24295954406261444 0 -0.97003644704818726
vn -0.97003644704818726 0 0.24295954406261444
vn -0.97003644704818726 0 0.24295954406261444
vn 0.73636388778686523 0 -0.67658573389053345
vn 0.73636388778686523 0 -0.67658573389053345
vn 0.67658573389053345 0 0.73636388778686523
vn 0.67658573389053345 0 0.73636388778686523
vn -0.67658573389053345 0 -0.73636388778686523
vn -0.67658573389053345 0 -0.73636388778686523
vn -0.73636388778686523 0 0.67658573389053345
vn -0.73636388778686523 0 0.67658573389053345
vn 0.73868328332901001 0 -0.6740526556968689
vn 0.73868328332901001 0 -0.6740526556968689
vn 0.6740526556968689 0 0.73868328332901001
vn 0.6740526556968689 0 0.73868328332901001
vn -0.6740526556968689 0 -0.73868328332901001
vn -0.6740526556968689 0 -0.73868328332901001
vn -0.73868328332901001 0 0.6740526556968689
vn -0.73868328332901001 0 0.6740526556968689
vn 0.94493037462234497 0 0.32727137207984924
vn 0.94493037462234497 0 0.32727137207984924
vn -0.32727137207984924 0 0.94493037462234497
vn -0.32727137207984924 0 0.94493037462234497
vn 0.32727137207984924 0 -0.94493037462234497
vn 0.32727137207984924 0 -0.94493037462234497
vn -0.94493037462234497 0 -0.32727137207984924
vn -0.94493037462234497 0 -0.32727137207984924
vn 0.94380080699920654 0 0.3305148184299469
vn 0.94380080699920654 0 0.3305148184299469
vn 0.3305148184299469 0 -0.94380080699920654
vn 0.3305148184299469 0 -0.94380080699920654
vn -0.3305148184299469 0 0.94380080699920654
vn -0.3305148184299469 0 0.94380080699920654
vn -0.94380080699920654 0 -0.3305148184299469
vn -0.94380080699920654 0 -0.3305148184299469
vn 0.9870913028717041 0 -0.16015864908695221
vn 0.9870913028717041 0 -0.16015864908695221
vn 0.16015864908695221 0 0.9870913028717041
vn 0.16015864908695221 0 0.9870913028717041
vn 0.99988532066345215 0 0.015145723707973957
vn 0.99988532066345215 0 0.015145723707973957
vn -0.015145723707973957 0 0.99988532066345215
vn -0.015145723707973957 0 0.99988532066345215
vn -0.16015864908695221 0 -0.9870913028717041
vn -0.16015864908695221 0 -0.9870913028717041
vn -0.9870913028717041 0 0.16015864908695221
vn -0.9870913028717041 0 0.16015864908695221
vn 0.98763555288314819 0 -0.15676748752593994
vn 0.98763555288314819 0 -0.15676748752593994
vn -0.15676748752593994 0 -0.98763555288314819
vn -0.15676748752593994 0 -0.98763555288314819
vn 0.015145723707973957 0 -0.99988532066345215
vn 0.015145723707973957 0 -0.99988532066345215
vn -0.99988532066345215 0 -0.015145723707973957
vn -0.99988532066345215 0 -0.015145723707973957
vn 0.87135130167007446 0 0.49065971374511719
vn 0.87135130167007446 0 0.49065971374511719
vn 0.49065971374511719 0 -0.87135130167007446
vn 0.49065971374511719 0 -0.87135130167007446
vn 0.15676748752593994 0 0.98763555288314819
vn 0.15676748752593994 0 0.98763555288314819
vn -0.98763555288314819 0 0.15676748752593994
vn -0.98763555288314819 0 0.15676748752593994
vn 0.79297655820846558 0 -0.60925215482711792
vn 0.79297655820846558 0 -0.60925215482711792
vn 0.60925215482711792 0 0.79297655820846558
vn 0.60925215482711792 0 0.79297655820846558
vn -0.49065971374511719 0 0.87135130167007446
vn -0.49065971374511719 0 0.87135130167007446
vn -0.87135130167007446 0 -0.49065971374511719
vn -0.87135130167007446 0 -0.49065971374511719
vn 0.8730313777923584 0 0.48766407370567322
vn 0.8730313777923584 0 0.48766407370567322
vn -0.48766407370567322 0 0.8730313777923584
vn -0.48766407370567322 0 0.8730313777923584
vn 0.48766407370567322 0 -0.8730313777923584
vn 0.48766407370567322 0 -0.8730313777923584
vn -0.8730313777923584 0 -0.48766407370567322
vn -0.8730313777923584 0 -0.48766407370567322
vn -0.60925215482711792 0 -0.79297655820846558
vn -0.60925215482711792 0 -0.79297655820846558
vn -0.79297655820846558 0 0.60925215482711792
vn -0.79297655820846558 0 0.60925215482711792
vn 0.84529256820678711 0 -0.53430372476577759
vn 0.84529256820678711 0 -0.53430372476577759
vn 0.53430372476577759 0 0.84529256820678711
vn 0.53430372476577759 0 0.84529256820678711
vn 0.79506438970565796 0 -0.60652506351470947
vn 0.79506438970565796 0 -0.60652506351470947
vn -0.60652506351470947 0 -0.79506438970565796
vn -0.60652506351470947 0 -0.79506438970565796
vn 0.60652506351470947 0 0.79506438970565796
vn 0.60652506351470947 0 0.79506438970565796
vn -0.79506438970565796 0 0.60652506351470947
vn -0.79506438970565796 0 0.60652506351470947
vn 0.91251176595687866 0 0.40905052423477173
vn 0.91251176595687866 0 0.40905052423477173
vn 0.40905052423477173 0 -0.91251176595687866
vn 0.40905052423477173 0 -0.91251176595687866
vn 0.84345251321792603 0 -0.53720372915267944
vn 0.84345251321792603 0 -0.53720372915267944
vn -0.53720372915267944 0 -0.84345251321792603
vn -0.53720372915267944 0 -0.84345251321792603
vn 0.99759155511856079 0 -0.069362245500087738
vn 0.99759155511856079 0 -0.069362245500087738
vn -0.53430372476577759 0 -0.84529256820678711
vn -0.53430372476577759 0 -0.84529256820678711
vn 0.069362245500087738 0 0.99759155511856079
vn 0.069362245500087738 0 0.99759155511856079
vn -0.84529256820678711 0 0.53430372476577759
vn -0.84529256820678711 0 0.53430372476577759
vn 0.91110146045684814 0 0.41218221187591553
vn 0.91110146045684814 0 0.41218221187591553
vn 0.99734741449356079 0 -0.072788111865520477
vn 0.99734741449356079 0 -0.072788111865520477
vn -0.41218221187591553 0 0.91110146045684814
vn -0.41218221187591553 0 0.91110146045684814
vn 0.53720372915267944 0 0.84345251321792603
vn 0.53720372915267944 0 0.84345251321792603
vn -0.072788111865520477 0 -0.99734741449356079
vn -0.072788111865520477 0 -0.99734741449356079
vn -0.84345251321792603 0 0.53720372915267944
vn -0.84345251321792603 0 0.53720372915267944
vn -0.40905052423477173 0 0.91251176595687866
vn -0.40905052423477173 0 0.91251176595687866
vn -0.91251176595687866 0 -0.40905052423477173
vn -0.91251176595687866 0 -0.40905052423477173
vn 0.41218221187591553 0 -0.91110146045684814
vn 0.41218221187591553 0 -0.91110146045684814
vn -0.91110146045684814 0 -0.41218221187591553
vn -0.91110146045684814 0 -0.41218221187591553
vn -0.069362245500087738 0 -0.99759155511856079
vn -0.069362245500087738 0 -0.99759155511856079
vn 0.072788111865520477 0 0.99734741449356079
vn 0.072788111865520477 0 0.99734741449356079
vn -0.99759155511856079 0 0.069362245500087738
vn -0.99759155511856079 0 0.069362245500087738
vn -0.99734741449356079 0 0.072788111865520477
vn -0.99734741449356079 0 0.072788111865520477
f 6//6 18//18 17//17 5//5
f 18//18 14//14 13//13 17//17
f 14//14 2//2 1//1 13//13
f 2//2 6//6 5//5 1//1
f 30//30 32//32 31//31 29//29
f 32//32 28//28 27//27 31//31
f 28//28 26//26 25//25 27//27
f 26//26 30//30 29//29 25//25
f 48//48 44//44 43//43 47//47
f 44//44 42//42 41//41 43//43
f 42//42 46//46 45//45 41//41
f 46//46 48//48 47//47 45//45
f 68//68 60//60 59//59 67//67
f 60//60 58//58 57//57 59//59
f 58//58 66//66 65//65 57//57
f 66//66 68//68 67//67 65//65
f 104//104 88//88 87//87 103//103
f 88//88 86//86 85//85 87//87
f 86//86 102//102 101//101 85//85
f 102//102 104//104 103//103 101//101
f 146//146 118//118 117//117 145//145
f 118//118 120//120 119//119 117//117
f 120//120 148//148 147//147 119//119
f 148//148 146//146 145//145 147//147
f 156//156 136//136 135//135 155//155
f 136//136 142//142 141//141 135//135
f 142//142 160//160 159//159 141//141
f 160//160 156//156 155//155 159//159
f 140//140 122//122 121//121 139//139
f 122//122 124//124 123//123 121//121
f 124//124 144//144 143//143 123//123
f 144//144 140//140 139//139 143//143
f 94//94 98//98 97//97 93//93
f 98//98 100//100 99//99 97//97
f 100//100 96//96 95//95 99//99
f 96//96 94//94 93//93 95//95
f 62//62 74//74 73//73 61//61
f 74//74 76//76 75//75 73//73
f 76//76 64//64 63//63 75//75
f 64//64 62//62 61//61 63//63
f 8//8 4//4 3//3 7//7
f 4//4 16//16 15//15 3//3
f 16//16 20//20 19//19 15//15
f 20//20 8//8 7//7 19//19
f 12//12 10//10 9//9 11//11
f 10//10 22//22 21//21 9//9
f 22//22 24//24 23//23 21//21
f 24//24 12//12 11//11 23//23
f 36//36 34//34 33//33 35//35
f 34//34 38//38 37//37 33//33
f 38//38 40//40 39//39 37//37
f 40//40 36//36 35//35 39//39
f 50//50 52//52 51//51 49//49
f 52//52 56//56 55//55 51//51
f 56//56 54//54 53//53 55//55
f 54//54 50//50 49//49 53//53
f 70//70 72//72 71//71 69//69
f 72//72 84//84 83//83 71//71
f 84//84 82//82 81//81 83//83
f 82//82 70//70 69//69 81//81
f 110//110 112//112 111//111 109//109
f 112//112 116//116 115//115 111//111
f 116//116 114//114 113//113 115//115
f 114//114 110//110 109//109 113//113
f 150//150 152//152 151//151 149//149
f 152//152 138//138 137//137 151//151
f 138//138 134//134 133//133 137//137
f 134//134 150//150 149//149 133//133
f 154//154 158//158 157//157 153//153
f 158//158 130//130 129//129 157//157
f 130//130 126//126 125//125 129//129
f 126//126 154//154 153//153 125//125
f 128//128 132//132 131//131 127//127
f 132//132 108//108 107//107 131//131
f 108//108 106//106 105//105 107//107
f 106//106 128//128 127//127 105//105
f 92//92 90//90 89//89 91//91
f 90//90 78//78 77//77 89//89
f 78//78 80//80 79//79 77//77
f 80//80 92//92 91//91 79//79
