# Rhino

mtllib Pannelli133.mtl
usemtl diffuse_Black
v 1.3038070451357469 3 -0.30093039968042623
v 1.3038070451357469 0 -0.30093039968042617
v 1.3038070451357493 3 0.30093039968041507
v 1.3038070451357493 0 0.30093039968041507
v 1.285977226139511 3 -0.30999116976698432
v 1.285977226139511 0 -0.30999116976698426
v 1.2859772261395135 3 0.30999116976697338
v 1.2859772261395135 0 0.30999116976697338
v 1.282594144790741 3 -0.38134521912033431
v 1.282594144790741 0 -0.38134521912033431
v 1.2715536654365447 3 -0.36466865425734257
v 1.2715536654365447 0 -0.36466865425734257
v 1.1678017665411984 3 -0.033298677795008405
v 1.1678017665411984 0 -0.033298677795008357
v 1.1678017665411986 3 0.03329867779499842
v 1.1678017665411986 0 0.03329867779499842
v 1.1499719475449626 3 -0.042359447881566481
v 1.1499719475449626 0 -0.042359447881566446
v 1.1499719475449628 3 0.042359447881556683
v 1.1499719475449628 0 0.042359447881556683
v 1.0322731645071752 3 -0.54706661542995094
v 1.0322731645071752 0 -0.54706661542995094
v 1.0212326851529789 3 -0.5303900505669592
v 1.0212326851529789 0 -0.5303900505669592
v 0.99942320505731008 3 -0.60499836782640459
v 0.99942320505731008 0 -0.60499836782640459
v 0.98571895089890071 3 -0.90489229537895788
v 0.98571895089890071 0 -0.90489229537895788
v 0.97944405457147354 3 -0.60408538049664595
v 0.97944405457147354 0 -0.60408538049664595
v 0.96573980041306418 3 -0.90397930804919924
v 0.96573980041306418 0 -0.90397930804919924
v 0.92760066656348605 3 -0.96438007019452887
v 0.92760066656348605 0 -0.96438007019452887
v 0.92622268637252925 3 -0.94442759740057836
v 0.92622268637252925 0 -0.94442759740057836
v 0.6281071803511904 3 -0.98506402729513809
v 0.6281071803511904 0 -0.98506402729513809
v 0.62672920016023359 3 -0.96511155450118757
v 0.62672920016023359 0 -0.96511155450118757
v 0.5709560907854454 3 -1.0192540950492381
v 0.5709560907854454 0 -1.0192540950492381
v 0.55402695610302666 3 -1.0086049448998355
v 0.55402695610302666 0 -1.0086049448998355
v 0.41110868057322131 3 -1.2733662352814188
v 0.41110868057322131 0 -1.2733662352814188
v 0.39417954589080267 3 -1.2627170851320162
v 0.39417954589080267 0 -1.2627170851320162
v 0.33985275920423325 3 -1.2784099708404355
v 0.33985275920423325 0 -1.2784099708404355
v 0.33120963651750518 3 -1.2964459468390381
v 0.33120963651750518 0 -1.2964459468390381
v 0.2194629312077826 3 1.3044799627854247
v 0.2194629312077826 0 1.3044799627854247
v 0.20917959477949105 3 1.3216337667921916
v 0.20917959477949108 0 1.3216337667921916
v 0.069126549734068385 3 -1.1486737235120548
v 0.069126549734068385 0 -1.1486737235120548
v 0.06048342704734043 3 -1.1667096995106574
v 0.06048342704734043 0 -1.1667096995106574
v -0.006095869832218972 3 -1.1682605053029176
v -0.0060958698322189659 0 -1.1682605053029176
v -0.015569373435106325 3 -1.1506465128683194
v -0.015569373435106292 0 -1.1506465128683194
v -0.038021572935821493 3 1.1501235424756209
v -0.038021572935821486 0 1.1501235424756209
v -0.048304909364113038 3 1.1672773464823878
v -0.04830490936411299 0 1.1672773464823878
v -0.11473979531693862 3 1.1626282928134282
v -0.11473979531693862 0 1.1626282928134282
v -0.12253379009834431 3 1.1442094533997349
v -0.12253379009834431 0 1.1442094533997349
v -0.27048796071903214 3 -1.3104610560804499
v -0.27048796071903214 0 -1.3104610560804499
v -0.27996146432191948 3 -1.2928470636458518
v -0.27996146432191943 0 -1.2928470636458518
v -0.33495999364106044 3 -1.2797006502080692
v -0.33495999364106044 0 -1.2797006502080692
v -0.35137494456407536 3 -1.2911264712374313
v -0.35137494456407536 0 -1.2911264712374313
v -0.39121291646631262 3 1.279618837930792
v -0.39121291646631262 0 1.279618837930792
v -0.39900691124771837 3 1.2611999985170987
v -0.39900691124771837 0 1.2611999985170987
v -0.45254412014905471 3 1.2429946785089196
v -0.45254412014905465 0 1.2429946785089196
v -0.46995071918795694 3 1.2528440597026236
v -0.46995071918795689 0 1.2528440597026236
v -0.50646550116687294 3 -1.0333065852364307
v -0.50646550116687294 0 -1.0333065852364307
v -0.52288045208988787 3 -1.044732406265793
v -0.52288045208988787 0 -1.044732406265793
v -0.58111395013814249 3 -0.99324537749743869
v -0.58111395013814249 0 -0.99324537749743869
v -0.58156144947071164 3 -1.0132403704793667
v -0.58156144947071164 0 -1.0132403704793667
v -0.60038672297824303 3 0.98171563389641092
v -0.60038672297824303 0 0.98171563389641092
v -0.61779332201714532 3 0.99156501509011474
v -0.61779332201714532 0 0.99156501509011474
v -0.67098507048251477 3 0.93488439828395875
v -0.67098507048251477 0 0.93488439828395875
v -0.67329054268388833 3 0.95475107384703906
v -0.67329054268388833 0 0.95475107384703906
v -0.88124567901155249 3 -0.98652825844293102
v -0.88124567901155249 0 -0.98652825844293102
v -0.88169317834412164 3 -1.006523251424859
v -0.88169317834412164 0 -1.006523251424859
v -0.92260320754916525 3 -0.94796375083806117
v -0.92260320754916525 0 -0.94796375083806117
v -0.94251818192341852 3 -0.9498059765769018
v -0.94251818192341852 0 -0.9498059765769018
v -0.95025565016182867 3 -0.64903312881601438
v -0.95025565016182867 0 -0.64903312881601438
v -0.96919071071972795 3 0.90027846677434342
v -0.96919071071972795 0 0.90027846677434342
v -0.97017062453608172 3 -0.65087535455485512
v -0.97017062453608172 0 -0.65087535455485512
v -0.97149618292110151 3 0.92014514233742384
v -0.97149618292110151 0 0.92014514233742384
v -0.99543021281812505 3 -0.57736339888673893
v -0.99543021281812505 0 -0.57736339888673893
v -1.0056822584607765 3 -0.59453592229307006
v -1.0056822584607765 0 -0.59453592229307006
v -1.0065080384745448 3 0.55782736706915825
v -1.0065080384745448 0 0.55782736706915825
v -1.0067816973865409 3 0.85803412827838632
v -1.0067816973865409 0 0.85803412827838632
v -1.0265080301649858 3 0.55780913571439505
v -1.0265080301649858 0 0.55780913571439505
v -1.0267816890769819 3 0.85801589692362312
v -1.0267816890769819 0 0.85801589692362312
v -1.0448200971705059 3 0.48226628278763106
v -1.0448200971705059 0 0.48226628278763106
v -1.0566250633649246 3 0.49841071752993893
v -1.0566250633649246 0 0.49841071752993893
v -1.1467525448291394 3 -0.095856162520089799
v -1.1467525448291394 0 -0.095856162520089799
v -1.1506970536483843 3 -0.011229144674145155
v -1.1506970536483843 0 -0.011229144674145148
v -1.1649848964667104 3 -0.087635374616004222
v -1.1649848964667104 0 -0.087635374616004222
v -1.1680856670102462 3 -0.021110244074094286
v -1.1680856670102462 0 -0.021110244074094286
v -1.2531957015942199 3 -0.42347666404271372
v -1.2531957015942199 0 -0.42347666404271372
v -1.2634477472368715 3 -0.44064918744904485
v -1.2634477472368715 0 -0.4406491874490448
v -1.2701494016614896 3 -0.36953003794270084
v -1.2701494016614896 0 -0.36953003794270084
v -1.2871536211318424 3 0.30506967579580763
v -1.2871536211318424 0 0.30506967579580763
v -1.2883817532990607 3 -0.36130925003861525
v -1.2883817532990607 0 -0.36130925003861525
v -1.2989585873262608 3 0.32121411053811555
v -1.2989585873262608 0 0.32121411053811555
v -1.2990157576737953 3 0.24977992873357555
v -1.2990157576737953 0 0.24977992873357557
v -1.3164043710356572 3 0.23989882933362641
v -1.3164043710356572 0 0.23989882933362644
vn 0.95072591304779053 0 -0.31003269553184509
vn 0.95072591304779053 0 -0.31003269553184509
vn 0.95072591304779053 0 0.31003269553184509
vn 0.95072591304779053 0 0.31003269553184509
vn -0.31003269553184509 0 -0.95072591304779053
vn -0.31003269553184509 0 -0.95072591304779053
vn -0.31003269553184509 0 0.95072591304779053
vn -0.31003269553184509 0 0.95072591304779053
vn 0.97994548082351685 0 -0.1992657482624054
vn 0.97994548082351685 0 -0.1992657482624054
vn 0.1992657482624054 0 0.97994548082351685
vn 0.1992657482624054 0 0.97994548082351685
vn 0.31003269553184509 0 0.95072591304779053
vn 0.31003269553184509 0 0.95072591304779053
vn 0.31003269553184509 0 -0.95072591304779053
vn 0.31003269553184509 0 -0.95072591304779053
vn -0.95072591304779053 0 0.31003269553184509
vn -0.95072591304779053 0 0.31003269553184509
vn -0.95072591304779053 0 -0.31003269553184509
vn -0.95072591304779053 0 -0.31003269553184509
vn -0.1992657482624054 0 -0.97994548082351685
vn -0.1992657482624054 0 -0.97994548082351685
vn -0.97994548082351685 0 0.1992657482624054
vn -0.97994548082351685 0 0.1992657482624054
vn 0.73864859342575073 0 0.6740906834602356
vn 0.73864859342575073 0 0.6740906834602356
vn 0.6740906834602356 0 -0.73864859342575073
vn 0.6740906834602356 0 -0.73864859342575073
vn -0.6740906834602356 0 0.73864859342575073
vn -0.6740906834602356 0 0.73864859342575073
vn -0.73864859342575073 0 -0.6740906834602356
vn -0.73864859342575073 0 -0.6740906834602356
vn 0.75414538383483887 0 -0.65670746564865112
vn 0.75414538383483887 0 -0.65670746564865112
vn 0.65670746564865112 0 0.75414538383483887
vn 0.65670746564865112 0 0.75414538383483887
vn -0.65670746564865112 0 -0.75414538383483887
vn -0.65670746564865112 0 -0.75414538383483887
vn -0.75414538383483887 0 0.65670746564865112
vn -0.75414538383483887 0 0.65670746564865112
vn 0.97503960132598877 0 0.22203095257282257
vn 0.97503960132598877 0 0.22203095257282257
vn -0.22203095257282257 0 0.97503960132598877
vn -0.22203095257282257 0 0.97503960132598877
vn 0.22203095257282257 0 -0.97503960132598877
vn 0.22203095257282257 0 -0.97503960132598877
vn -0.97503960132598877 0 -0.22203095257282257
vn -0.97503960132598877 0 -0.22203095257282257
vn 0.94324856996536255 0 0.33208748698234558
vn 0.94324856996536255 0 0.33208748698234558
vn 0.33208748698234558 0 -0.94324856996536255
vn 0.33208748698234558 0 -0.94324856996536255
vn 0.97004938125610352 0 -0.24290770292282104
vn 0.97004938125610352 0 -0.24290770292282104
vn 0.24290770292282104 0 0.97004938125610352
vn 0.24290770292282104 0 0.97004938125610352
vn -0.33208748698234558 0 0.94324856996536255
vn -0.33208748698234558 0 0.94324856996536255
vn -0.94324856996536255 0 -0.33208748698234558
vn -0.94324856996536255 0 -0.33208748698234558
vn 0.9576876163482666 0 -0.28780972957611084
vn 0.9576876163482666 0 -0.28780972957611084
vn 0.28780972957611084 0 0.9576876163482666
vn 0.28780972957611084 0 0.9576876163482666
vn -0.24290770292282104 0 -0.97004938125610352
vn -0.24290770292282104 0 -0.97004938125610352
vn -0.97004938125610352 0 0.24290770292282104
vn -0.97004938125610352 0 0.24290770292282104
vn 0.92676365375518799 0 0.37564501166343689
vn 0.92676365375518799 0 0.37564501166343689
vn 0.37564501166343689 0 -0.92676365375518799
vn 0.37564501166343689 0 -0.92676365375518799
vn -0.28780972957611084 0 -0.9576876163482666
vn -0.28780972957611084 0 -0.9576876163482666
vn -0.9576876163482666 0 0.28780972957611084
vn -0.9576876163482666 0 0.28780972957611084
vn 0.98431992530822754 0 -0.17639240622520447
vn 0.98431992530822754 0 -0.17639240622520447
vn -0.17639240622520447 0 -0.98431992530822754
vn -0.17639240622520447 0 -0.98431992530822754
vn -0.37564501166343689 0 0.92676365375518799
vn -0.37564501166343689 0 0.92676365375518799
vn -0.92676365375518799 0 -0.37564501166343689
vn -0.92676365375518799 0 -0.37564501166343689
vn 0.96364444494247437 0 0.26718801259994507
vn 0.96364444494247437 0 0.26718801259994507
vn -0.26718801259994507 0 0.96364444494247437
vn -0.26718801259994507 0 0.96364444494247437
vn 0.17639240622520447 0 0.98431992530822754
vn 0.17639240622520447 0 0.98431992530822754
vn -0.98431992530822754 0 0.17639240622520447
vn -0.98431992530822754 0 0.17639240622520447
vn 0.72275125980377197 0 0.69110822677612305
vn 0.72275125980377197 0 0.69110822677612305
vn 0.69110822677612305 0 -0.72275125980377197
vn 0.69110822677612305 0 -0.72275125980377197
vn 0.26718801259994507 0 -0.96364444494247437
vn 0.26718801259994507 0 -0.96364444494247437
vn -0.96364444494247437 0 -0.26718801259994507
vn -0.96364444494247437 0 -0.26718801259994507
vn 0.78390383720397949 0 -0.62088227272033691
vn 0.78390383720397949 0 -0.62088227272033691
vn 0.62088227272033691 0 0.78390383720397949
vn 0.62088227272033691 0 0.78390383720397949
vn -0.69110822677612305 0 0.72275125980377197
vn -0.69110822677612305 0 0.72275125980377197
vn -0.72275125980377197 0 -0.69110822677612305
vn -0.72275125980377197 0 -0.69110822677612305
vn 0.76923316717147827 0 -0.63896816968917847
vn 0.76923316717147827 0 -0.63896816968917847
vn -0.63896816968917847 0 -0.76923316717147827
vn -0.63896816968917847 0 -0.76923316717147827
vn 0.63896816968917847 0 0.76923316717147827
vn 0.63896816968917847 0 0.76923316717147827
vn -0.62088227272033691 0 -0.78390383720397949
vn -0.62088227272033691 0 -0.78390383720397949
vn -0.76923316717147827 0 0.63896816968917847
vn -0.76923316717147827 0 0.63896816968917847
vn -0.78390383720397949 0 0.62088227272033691
vn -0.78390383720397949 0 0.62088227272033691
vn 0.96960490942001343 0 0.24467585980892181
vn 0.96960490942001343 0 0.24467585980892181
vn 0.24467585980892181 0 -0.96960490942001343
vn 0.24467585980892181 0 -0.96960490942001343
vn 0.70775103569030762 0 -0.70646190643310547
vn 0.70775103569030762 0 -0.70646190643310547
vn 0.70646190643310547 0 0.70775103569030762
vn 0.70646190643310547 0 0.70775103569030762
vn -0.70646190643310547 0 -0.70775103569030762
vn -0.70646190643310547 0 -0.70775103569030762
vn -0.70775103569030762 0 0.70646190643310547
vn -0.70775103569030762 0 0.70646190643310547
vn 0.98816055059432983 0 -0.15342338383197784
vn 0.98816055059432983 0 -0.15342338383197784
vn 0.15342338383197784 0 0.98816055059432983
vn 0.15342338383197784 0 0.98816055059432983
vn 0.93525969982147217 0 0.35396221280097961
vn 0.93525969982147217 0 0.35396221280097961
vn 0.96412992477416992 0 -0.26543071866035461
vn 0.96412992477416992 0 -0.26543071866035461
vn -0.35396221280097961 0 0.93525969982147217
vn -0.35396221280097961 0 0.93525969982147217
vn -0.26543071866035461 0 -0.96412992477416992
vn -0.26543071866035461 0 -0.96412992477416992
vn -0.24467585980892181 0 0.96960490942001343
vn -0.24467585980892181 0 0.96960490942001343
vn -0.96960490942001343 0 -0.24467585980892181
vn -0.96960490942001343 0 -0.24467585980892181
vn 0.35396221280097961 0 -0.93525969982147217
vn 0.35396221280097961 0 -0.93525969982147217
vn -0.15342338383197784 0 -0.98816055059432983
vn -0.15342338383197784 0 -0.98816055059432983
vn -0.93525969982147217 0 -0.35396221280097961
vn -0.93525969982147217 0 -0.35396221280097961
vn -0.98816055059432983 0 0.15342338383197784
vn -0.98816055059432983 0 0.15342338383197784
vn 0.26543071866035461 0 0.96412992477416992
vn 0.26543071866035461 0 0.96412992477416992
vn -0.96412992477416992 0 0.26543071866035461
vn -0.96412992477416992 0 0.26543071866035461
f 6//6 18//18 17//17 5//5
f 18//18 14//14 13//13 17//17
f 14//14 2//2 1//1 13//13
f 2//2 6//6 5//5 1//1
f 32//32 30//30 29//29 31//31
f 30//30 26//26 25//25 29//29
f 26//26 28//28 27//27 25//25
f 28//28 32//32 31//31 27//27
f 48//48 44//44 43//43 47//47
f 44//44 42//42 41//41 43//43
f 42//42 46//46 45//45 41//41
f 46//46 48//48 47//47 45//45
f 76//76 64//64 63//63 75//75
f 64//64 62//62 61//61 63//63
f 62//62 74//74 73//73 61//61
f 74//74 76//76 75//75 73//73
f 106//106 94//94 93//93 105//105
f 94//94 96//96 95//95 93//93
f 96//96 108//108 107//107 95//95
f 108//108 106//106 105//105 107//107
f 146//146 122//122 121//121 145//145
f 122//122 124//124 123//123 121//121
f 124//124 148//148 147//147 123//123
f 148//148 146//146 145//145 147//147
f 158//158 140//140 139//139 157//157
f 140//140 144//144 143//143 139//139
f 144//144 160//160 159//159 143//143
f 160//160 158//158 157//157 159//159
f 128//128 126//126 125//125 127//127
f 126//126 130//130 129//129 125//125
f 130//130 132//132 131//131 129//129
f 132//132 128//128 127//127 131//131
f 86//86 98//98 97//97 85//85
f 98//98 100//100 99//99 97//97
f 100//100 88//88 87//87 99//99
f 88//88 86//86 85//85 87//87
f 54//54 66//66 65//65 53//53
f 66//66 68//68 67//67 65//65
f 68//68 56//56 55//55 67//67
f 56//56 54//54 53//53 55//55
f 8//8 4//4 3//3 7//7
f 4//4 16//16 15//15 3//3
f 16//16 20//20 19//19 15//15
f 20//20 8//8 7//7 19//19
f 12//12 10//10 9//9 11//11
f 10//10 22//22 21//21 9//9
f 22//22 24//24 23//23 21//21
f 24//24 12//12 11//11 23//23
f 36//36 34//34 33//33 35//35
f 34//34 38//38 37//37 33//33
f 38//38 40//40 39//39 37//37
f 40//40 36//36 35//35 39//39
f 50//50 52//52 51//51 49//49
f 52//52 60//60 59//59 51//51
f 60//60 58//58 57//57 59//59
f 58//58 50//50 49//49 57//57
f 78//78 80//80 79//79 77//77
f 80//80 92//92 91//91 79//79
f 92//92 90//90 89//89 91//91
f 90//90 78//78 77//77 89//89
f 110//110 112//112 111//111 109//109
f 112//112 118//118 117//117 111//111
f 118//118 114//114 113//113 117//117
f 114//114 110//110 109//109 113//113
f 150//150 154//154 153//153 149//149
f 154//154 142//142 141//141 153//153
f 142//142 138//138 137//137 141//141
f 138//138 150//150 149//149 137//137
f 152//152 156//156 155//155 151//151
f 156//156 136//136 135//135 155//155
f 136//136 134//134 133//133 135//135
f 134//134 152//152 151//151 133//133
f 116//116 120//120 119//119 115//115
f 120//120 104//104 103//103 119//119
f 104//104 102//102 101//101 103//103
f 102//102 116//116 115//115 101//101
f 84//84 82//82 81//81 83//83
f 82//82 70//70 69//69 81//81
f 70//70 72//72 71//71 69//69
f 72//72 84//84 83//83 71//71
