# Rhino

mtllib Pannelli80.mtl
usemtl diffuse_Black
v 1.4286480210335888 3 -0.20082913182732245
v 1.4286480210335888 0 -0.20082913182732245
v 1.4286480210335886 3 0.20082913182732287
v 1.4286480210335886 0 0.20082913182732287
v 1.4172653712278678 3 -0.21727404847047743
v 1.4172653712278678 0 -0.21727404847047743
v 1.4172653712278676 3 0.21727404847047779
v 1.4172653712278676 0 0.21727404847047779
v 1.4162569437877517 3 -0.27492503954111236
v 1.4162569437877517 0 -0.27492503954111236
v 1.4108441691728733 3 -0.25567141985627062
v 1.4108441691728733 0 -0.25567141985627062
v 1.2855728256928627 3 -0.65472896532364766
v 1.2855728256928627 0 -0.65472896532364766
v 1.269458966981766 3 -0.66657563394561947
v 1.269458966981766 0 -0.66657563394561947
v 1.2508941195973349 3 -0.70079458201189393
v 1.2508941195973349 0 -0.70079458201189393
v 1.249747997875968 3 -0.72076171513109277
v 1.249747997875968 0 -0.72076171513109277
v 1.1719623285420302 3 -0.023159435399486332
v 1.1719623285420302 0 -0.023159435399486328
v 1.17196232854203 3 0.023159435399486748
v 1.17196232854203 0 0.023159435399486748
v 1.1605796787363092 3 -0.039604352042641289
v 1.1605796787363092 0 -0.03960435204264131
v 1.160579678736309 3 0.039604352042641656
v 1.160579678736309 0 0.039604352042641656
v 1.1157307198479172 3 -0.35941204731801729
v 1.1157307198479172 0 -0.35941204731801729
v 1.1103179452330387 3 -0.34015842763317566
v 1.1103179452330387 0 -0.34015842763317566
v 1.1006603445332455 3 -0.40321069547029359
v 1.1006603445332455 0 -0.40321069547029365
v 1.0845464858221487 3 -0.41505736409226551
v 1.0845464858221487 0 -0.41505736409226551
v 1.0026008801333883 3 -1.0373808285048751
v 1.0026008801333883 0 -1.0373808285048751
v 0.98350933158803644 3 -1.0433400880344199
v 0.98350933158803644 0 -1.0433400880344199
v 0.95482107589651632 3 -1.0696568878122723
v 0.95482107589651632 0 -1.0696568878122723
v 0.94724077944235596 3 -1.088164699829554
v 0.94724077944235596 0 -1.088164699829554
v 0.93923079511912666 3 -0.68290497794077076
v 0.93923079511912666 0 -0.68290497794077076
v 0.93808467339775981 3 -0.70287211105996961
v 0.93808467339775981 0 -0.70287211105996961
v 0.90958388939571588 3 -0.7393843433028876
v 0.90958388939571588 0 -0.73938434330288771
v 0.89049234085036411 3 -0.74534360283243251
v 0.89049234085036411 0 -0.74534360283243262
v 0.66593602726740131 3 -0.95133742856239112
v 0.66593602726740131 0 -0.95133742856239112
v 0.65835573081324084 3 -0.96984524057967292
v 0.65835573081324084 0 -0.96984524057967292
v 0.61952600929751989 3 -0.99509777548418321
v 0.61952600929751989 0 -0.99509777548418321
v 0.61052534892405075 3 -1.3071443327019674
v 0.61052534892405075 0 -1.3071443327019674
v 0.59953432385366257 3 -0.99452113598340586
v 0.59953432385366257 0 -0.99452113598340586
v 0.59053366348019343 3 -1.30656769320119
v 0.59053366348019343 0 -1.30656769320119
v 0.55484387142884273 3 -1.3221185358954282
v 0.55484387142884273 0 -1.3221185358954282
v 0.54165429231990869 3 -1.3371529964088342
v 0.54165429231990869 0 -1.3371529964088342
v 0.32017373038395175 3 -1.1162448108584497
v 0.32017373038395175 0 -1.1162448108584497
v 0.30698415127501777 3 -1.131279271371856
v 0.30698415127501777 0 -1.131279271371856
v 0.26205096414684848 3 -1.1425241140384685
v 0.26205096414684842 0 -1.1425241140384685
v 0.24333464813839065 3 -1.135474325738701
v 0.24333464813839059 0 -1.135474325738701
v 0.15201210953228511 3 -1.4346636632846217
v 0.15201210953228514 0 -1.4346636632846217
v 0.13329579352382728 3 -1.4276138749848541
v 0.13329579352382731 0 -1.4276138749848541
v 0.09448824814242178 3 -1.4307065092405895
v 0.09448824814242178 0 -1.4307065092405895
v 0.077124683716380413 3 -1.4406315598914783
v 0.077124683716380413 0 -1.4406315598914783
v -0.060430049993043307 3 -1.1596818117286438
v -0.060430049993043307 0 -1.1596818117286438
v -0.077793614419084667 3 -1.1696068623795326
v -0.077793614419084667 0 -1.1696068623795326
v -0.12394061273439674 3 -1.1656203427723379
v -0.12394061273439673 0 -1.1656203427723379
v -0.13934483938515954 3 -1.1528645675590503
v -0.1393448393851596 0 -1.1528645675590503
v -0.32304317220235723 3 -1.406062095743692
v -0.32304317220235718 0 -1.406062095743692
v -0.33844739885312003 3 -1.3933063205304044
v -0.33844739885312003 0 -1.3933063205304044
v -0.37614963888262731 3 -1.3836042041671042
v -0.37614963888262731 0 -1.3836042041671042
v -0.39579767588338599 3 -1.387339795421084
v -0.39579767588338599 0 -1.387339795421084
v -0.43445779870491119 3 -1.0769215925687785
v -0.43445779870491119 0 -1.0769215925687785
v -0.45410583570566992 3 -1.0806571838227583
v -0.45410583570566992 0 -1.0806571838227583
v -0.49644490317403783 3 -1.0618731172236169
v -0.49644490317403772 0 -1.0618731172236169
v -0.50686074395164893 3 -1.0447994456531711
v -0.50686074395164882 0 -1.0447994456531711
v -0.76120760801785725 3 -0.87697016647781345
v -0.76120760801785725 0 -0.87697016647781345
v -0.76294471618814186 3 -1.2244520685736544
v -0.76294471618814197 0 -1.2244520685736544
v -0.77336055696575301 3 -1.2073783970032086
v -0.77336055696575301 0 -1.2073783970032086
v -0.78100200727422131 3 -0.8741097892160441
v -0.78100200727422131 0 -0.8741097892160441
v -0.80585471290482369 3 -1.185937319722042
v -0.80585471290482369 0 -1.185937319722042
v -0.81492578301515506 3 -0.8425722682042277
v -0.81492578301515506 0 -0.8425722682042277
v -0.81921978033054443 3 -0.82303866671716375
v -0.81921978033054443 0 -0.82303866671716375
v -0.82564911216118775 3 -1.1830769424602727
v -0.82564911216118775 0 -1.1830769424602727
v -1.0051223818701771 3 -0.58158635890124954
v -1.0051223818701771 0 -0.58158635890124954
v -1.0229091058409401 3 -0.57244128096894686
v -1.0229091058409401 0 -0.57244128096894686
v -1.0424308643782352 3 -0.51171436210842991
v -1.0424308643782352 0 -0.51171436210842991
v -1.0447259857022222 3 -0.53158223612927513
v -1.0447259857022222 0 -0.53158223612927513
v -1.119822191635637 3 -0.90959648598379306
v -1.119822191635637 0 -0.90959648598379306
v -1.1241161889510265 3 -0.8900628844967291
v -1.1241161889510265 0 -0.8900628844967291
v -1.1396591788506063 3 -0.22291400013896123
v -1.1396591788506063 0 -0.22291400013896123
v -1.1478662286697596 3 -0.8592160762578176
v -1.1478662286697596 0 -0.8592160762578176
v -1.1522040417280783 3 -0.14470501588360019
v -1.1522040417280783 0 -0.14470501588360016
v -1.153502666336264 3 -0.20847939400528234
v -1.153502666336264 0 -0.20847939400528234
v -1.1608385253118991 3 -0.16274512933226576
v -1.1608385253118991 0 -0.16274512933226579
v -1.1656529526405224 3 -0.85007099832551469
v -1.1656529526405224 0 -0.85007099832551469
v -1.3525448717665574 3 -0.4758902336446964
v -1.3525448717665574 0 -0.4758902336446964
v -1.3548399930905444 3 -0.49575810766554163
v -1.3548399930905444 0 -0.49575810766554163
v -1.3649663027276082 3 -0.43899446128458119
v -1.3649663027276082 0 -0.43899446128458119
v -1.3788097902132659 3 -0.42455985515090222
v -1.3788097902132659 0 -0.42455985515090222
v -1.4337888690445766 3 -0.0099309427694875847
v -1.4337888690445766 0 -0.009930942769487569
v -1.4424233526283974 3 -0.027971056218153177
v -1.4424233526283974 0 -0.027971056218153205
vn 0.9838530421257019 0 0.17897814512252808
vn 0.9838530421257019 0 0.17897814512252808
vn 0.9838530421257019 0 -0.17897814512252808
vn 0.9838530421257019 0 -0.17897814512252808
vn 0.17897814512252808 0 -0.9838530421257019
vn 0.17897814512252808 0 -0.9838530421257019
vn 0.17897814512252808 0 0.9838530421257019
vn 0.17897814512252808 0 0.9838530421257019
vn 0.8720887303352356 0 -0.48934775590896606
vn 0.8720887303352356 0 -0.48934775590896606
vn 0.48934775590896606 0 0.8720887303352356
vn 0.48934775590896606 0 0.8720887303352356
vn 0.98855394124984741 0 -0.15086793899536133
vn 0.98855394124984741 0 -0.15086793899536133
vn -0.15086793899536133 0 -0.98855394124984741
vn -0.15086793899536133 0 -0.98855394124984741
vn 0.74646627902984619 0 0.66542321443557739
vn 0.74646627902984619 0 0.66542321443557739
vn 0.66542321443557739 0 -0.74646627902984619
vn 0.66542321443557739 0 -0.74646627902984619
vn -0.17897814512252808 0 0.9838530421257019
vn -0.17897814512252808 0 0.9838530421257019
vn -0.17897814512252808 0 -0.9838530421257019
vn -0.17897814512252808 0 -0.9838530421257019
vn -0.9838530421257019 0 -0.17897814512252808
vn -0.9838530421257019 0 -0.17897814512252808
vn -0.9838530421257019 0 0.17897814512252808
vn -0.9838530421257019 0 0.17897814512252808
vn -0.48934775590896606 0 -0.8720887303352356
vn -0.48934775590896606 0 -0.8720887303352356
vn -0.8720887303352356 0 0.48934775590896606
vn -0.8720887303352356 0 0.48934775590896606
vn 0.15086793899536133 0 0.98855394124984741
vn 0.15086793899536133 0 0.98855394124984741
vn -0.98855394124984741 0 0.15086793899536133
vn -0.98855394124984741 0 0.15086793899536133
vn 0.88567978143692017 0 -0.46429654955863953
vn 0.88567978143692017 0 -0.46429654955863953
vn -0.46429654955863953 0 -0.88567978143692017
vn -0.46429654955863953 0 -0.88567978143692017
vn 0.92235392332077026 0 0.38634598255157471
vn 0.92235392332077026 0 0.38634598255157471
vn 0.38634598255157471 0 -0.92235392332077026
vn 0.38634598255157471 0 -0.92235392332077026
vn -0.66542321443557739 0 0.74646627902984619
vn -0.66542321443557739 0 0.74646627902984619
vn -0.74646627902984619 0 -0.66542321443557739
vn -0.74646627902984619 0 -0.66542321443557739
vn 0.46429654955863953 0 0.88567978143692017
vn 0.46429654955863953 0 0.88567978143692017
vn -0.88567978143692017 0 0.46429654955863953
vn -0.88567978143692017 0 0.46429654955863953
vn -0.38634598255157471 0 0.92235392332077026
vn -0.38634598255157471 0 0.92235392332077026
vn -0.92235392332077026 0 -0.38634598255157471
vn -0.92235392332077026 0 -0.38634598255157471
vn 0.72720009088516235 0 0.68642550706863403
vn 0.72720009088516235 0 0.68642550706863403
vn 0.68642550706863403 0 -0.72720009088516235
vn 0.68642550706863403 0 -0.72720009088516235
vn -0.68642550706863403 0 0.72720009088516235
vn -0.68642550706863403 0 0.72720009088516235
vn -0.72720009088516235 0 -0.68642550706863403
vn -0.72720009088516235 0 -0.68642550706863403
vn 0.99787050485610962 0 0.065226420760154724
vn 0.99787050485610962 0 0.065226420760154724
vn 0.065226420760154724 0 -0.99787050485610962
vn 0.065226420760154724 0 -0.99787050485610962
vn -0.065226420760154724 0 0.99787050485610962
vn -0.065226420760154724 0 0.99787050485610962
vn -0.99787050485610962 0 -0.065226420760154724
vn -0.99787050485610962 0 -0.065226420760154724
vn 0.91096937656402588 0 0.41247403621673584
vn 0.91096937656402588 0 0.41247403621673584
vn -0.41247403621673584 0 0.91096937656402588
vn -0.41247403621673584 0 0.91096937656402588
vn 0.41247403621673584 0 -0.91096937656402588
vn 0.41247403621673584 0 -0.91096937656402588
vn -0.91096937656402588 0 -0.41247403621673584
vn -0.91096937656402588 0 -0.41247403621673584
vn 0.9647982120513916 0 -0.26299118995666504
vn 0.9647982120513916 0 -0.26299118995666504
vn -0.26299118995666504 0 -0.9647982120513916
vn -0.26299118995666504 0 -0.9647982120513916
vn 0.26299118995666504 0 0.9647982120513916
vn 0.26299118995666504 0 0.9647982120513916
vn -0.9647982120513916 0 0.26299118995666504
vn -0.9647982120513916 0 0.26299118995666504
vn 0.99560642242431641 0 0.093636892735958099
vn 0.99560642242431641 0 0.093636892735958099
vn -0.093636892735958099 0 0.99560642242431641
vn -0.093636892735958099 0 0.99560642242431641
vn 0.093636892735958099 0 -0.99560642242431641
vn 0.093636892735958099 0 -0.99560642242431641
vn -0.99560642242431641 0 -0.093636892735958099
vn -0.99560642242431641 0 -0.093636892735958099
vn 0.82673609256744385 0 -0.56258994340896606
vn 0.82673609256744385 0 -0.56258994340896606
vn -0.56258994340896606 0 -0.82673609256744385
vn -0.56258994340896606 0 -0.82673609256744385
vn 0.56258994340896606 0 0.82673609256744385
vn 0.56258994340896606 0 0.82673609256744385
vn -0.82673609256744385 0 0.56258994340896606
vn -0.82673609256744385 0 0.56258994340896606
vn 0.9719010591506958 0 -0.23538984358310699
vn 0.9719010591506958 0 -0.23538984358310699
vn 0.23538984358310699 0 0.9719010591506958
vn 0.23538984358310699 0 0.9719010591506958
vn 0.80096727609634399 0 0.59870809316635132
vn 0.80096727609634399 0 0.59870809316635132
vn -0.23538984358310699 0 -0.9719010591506958
vn -0.23538984358310699 0 -0.9719010591506958
vn -0.9719010591506958 0 0.23538984358310699
vn -0.9719010591506958 0 0.23538984358310699
vn -0.59870809316635132 0 0.80096727609634399
vn -0.59870809316635132 0 0.80096727609634399
vn 0.59870809316635132 0 -0.80096727609634399
vn 0.59870809316635132 0 -0.80096727609634399
vn 0.84243285655975342 0 -0.53880137205123901
vn 0.84243285655975342 0 -0.53880137205123901
vn 0.53880137205123901 0 0.84243285655975342
vn 0.53880137205123901 0 0.84243285655975342
vn -0.80096727609634399 0 -0.59870809316635132
vn -0.80096727609634399 0 -0.59870809316635132
vn 0.95218300819396973 0 0.30552831292152405
vn 0.95218300819396973 0 0.30552831292152405
vn -0.30552831292152405 0 0.95218300819396973
vn -0.30552831292152405 0 0.95218300819396973
vn 0.78358018398284912 0 0.62129062414169312
vn 0.78358018398284912 0 0.62129062414169312
vn 0.62129062414169312 0 -0.78358018398284912
vn 0.62129062414169312 0 -0.78358018398284912
vn -0.53880137205123901 0 -0.84243285655975342
vn -0.53880137205123901 0 -0.84243285655975342
vn -0.84243285655975342 0 0.53880137205123901
vn -0.84243285655975342 0 0.53880137205123901
vn 0.99978160858154297 0 -0.020899189636111259
vn 0.99978160858154297 0 -0.020899189636111259
vn 0.30552831292152405 0 -0.95218300819396973
vn 0.30552831292152405 0 -0.95218300819396973
vn 0.94308942556381226 0 0.33253923058509827
vn 0.94308942556381226 0 0.33253923058509827
vn 0.020899189636111259 0 0.99978160858154297
vn 0.020899189636111259 0 0.99978160858154297
vn 0.33253923058509827 0 -0.94308942556381226
vn 0.33253923058509827 0 -0.94308942556381226
vn -0.95218300819396973 0 -0.30552831292152405
vn -0.95218300819396973 0 -0.30552831292152405
vn -0.62129062414169312 0 0.78358018398284912
vn -0.62129062414169312 0 0.78358018398284912
vn -0.78358018398284912 0 -0.62129062414169312
vn -0.78358018398284912 0 -0.62129062414169312
vn -0.020899189636111259 0 -0.99978160858154297
vn -0.020899189636111259 0 -0.99978160858154297
vn -0.99978160858154297 0 0.020899189636111259
vn -0.99978160858154297 0 0.020899189636111259
vn -0.33253923058509827 0 0.94308942556381226
vn -0.33253923058509827 0 0.94308942556381226
vn -0.94308942556381226 0 -0.33253923058509827
vn -0.94308942556381226 0 -0.33253923058509827
f 6//6 26//26 25//25 5//5
f 26//26 22//22 21//21 25//25
f 22//22 2//2 1//1 21//21
f 2//2 6//6 5//5 1//1
f 16//16 36//36 35//35 15//15
f 36//36 34//34 33//33 35//35
f 34//34 14//14 13//13 33//33
f 14//14 16//16 15//15 13//13
f 40//40 52//52 51//51 39//39
f 52//52 50//50 49//49 51//51
f 50//50 38//38 37//37 49//49
f 38//38 40//40 39//39 37//37
f 64//64 62//62 61//61 63//63
f 62//62 58//58 57//57 61//61
f 58//58 60//60 59//59 57//57
f 60//60 64//64 63//63 59//59
f 80//80 76//76 75//75 79//79
f 76//76 74//74 73//73 75//75
f 74//74 78//78 77//77 73//73
f 78//78 80//80 79//79 77//77
f 96//96 92//92 91//91 95//95
f 92//92 90//90 89//89 91//91
f 90//90 94//94 93//93 89//89
f 94//94 96//96 95//95 93//93
f 114//114 108//108 107//107 113//113
f 108//108 106//106 105//105 107//107
f 106//106 112//112 111//111 105//105
f 112//112 114//114 113//113 111//111
f 136//136 122//122 121//121 135//135
f 122//122 120//120 119//119 121//121
f 120//120 134//134 133//133 119//119
f 134//134 136//136 135//135 133//133
f 150//150 130//130 129//129 149//149
f 130//130 132//132 131//131 129//129
f 132//132 152//152 151//151 131//131
f 152//152 150//150 149//149 151//151
f 158//158 142//142 141//141 157//157
f 142//142 146//146 145//145 141//141
f 146//146 160//160 159//159 145//145
f 160//160 158//158 157//157 159//159
f 8//8 4//4 3//3 7//7
f 4//4 24//24 23//23 3//3
f 24//24 28//28 27//27 23//23
f 28//28 8//8 7//7 27//27
f 12//12 10//10 9//9 11//11
f 10//10 30//30 29//29 9//9
f 30//30 32//32 31//31 29//29
f 32//32 12//12 11//11 31//31
f 18//18 20//20 19//19 17//17
f 20//20 48//48 47//47 19//19
f 48//48 46//46 45//45 47//47
f 46//46 18//18 17//17 45//45
f 42//42 44//44 43//43 41//41
f 44//44 56//56 55//55 43//43
f 56//56 54//54 53//53 55//55
f 54//54 42//42 41//41 53//53
f 66//66 68//68 67//67 65//65
f 68//68 72//72 71//71 67//67
f 72//72 70//70 69//69 71//71
f 70//70 66//66 65//65 69//69
f 82//82 84//84 83//83 81//81
f 84//84 88//88 87//87 83//83
f 88//88 86//86 85//85 87//87
f 86//86 82//82 81//81 85//85
f 98//98 100//100 99//99 97//97
f 100//100 104//104 103//103 99//99
f 104//104 102//102 101//101 103//103
f 102//102 98//98 97//97 101//101
f 118//118 124//124 123//123 117//117
f 124//124 116//116 115//115 123//123
f 116//116 110//110 109//109 115//115
f 110//110 118//118 117//117 109//109
f 140//140 148//148 147//147 139//139
f 148//148 128//128 127//127 147//147
f 128//128 126//126 125//125 127//127
f 126//126 140//140 139//139 125//125
f 154//154 156//156 155//155 153//153
f 156//156 144//144 143//143 155//155
f 144//144 138//138 137//137 143//143
f 138//138 154//154 153//153 137//137
