# Rhino

mtllib Pannelli145.mtl
usemtl diffuse_Black
v 1.2700551483806701 3 -0.31484430525262813
v 1.2700551483806701 0 -0.31484430525262813
v 1.270055148380673 3 0.31484430525261775
v 1.270055148380673 0 0.31484430525261775
v 1.2513076207996459 3 -0.32181066797636965
v 1.2513076207996459 0 -0.32181066797636965
v 1.2513076207996487 3 0.32181066797635954
v 1.2513076207996487 0 0.32181066797635954
v 1.2472078328903919 3 -0.39577725813279041
v 1.2472078328903919 0 -0.39577725813279041
v 1.2348707281095037 3 -0.38003572562717347
v 1.2348707281095037 0 -0.38003572562717347
v 1.1661662134707826 3 -0.035263590061229734
v 1.1661662134707826 0 -0.035263590061229706
v 1.1661662134707831 3 0.035263590061220207
v 1.1661662134707831 0 0.035263590061220207
v 1.1474186858897584 3 -0.042229952784971249
v 1.1474186858897584 0 -0.042229952784971249
v 1.1474186858897588 3 0.042229952784961951
v 1.1474186858897588 0 0.042229952784961951
v 1.0124553356819816 3 -0.57975973598886255
v 1.0124553356819816 0 -0.57975973598886255
v 1.0001182309010936 3 -0.56401820348324572
v 1.0001182309010936 0 -0.56401820348324572
v 0.97557489803526265 3 -0.6398755945871637
v 0.97557489803526265 0 -0.6398755945871637
v 0.95595202043285221 3 -0.63601001900249066
v 0.95595202043285221 0 -0.63601001900249066
v 0.91792780927017137 3 -0.93251035031613472
v 0.91792780927017137 0 -0.93251035031613472
v 0.89830493166776093 3 -0.92864477473146168
v 0.89830493166776093 0 -0.92864477473146168
v 0.85613136849288463 3 -0.98954843052816643
v 0.85613136849288463 0 -0.98954843052816643
v 0.85384712803121599 3 -0.96967930257766799
v 0.85384712803121599 0 -0.96967930257766799
v 0.61016628595566502 3 1.1388722366348814
v 0.61016628595566502 0 1.1388722366348814
v 0.60785837634768425 3 1.1587386291921977
v 0.60785837634768425 0 1.1587386291921977
v 0.55982429660718236 3 -1.023613166754445
v 0.55982429660718236 0 -1.023613166754445
v 0.55754005614551361 3 -1.0037440388039465
v 0.55754005614551361 0 -1.0037440388039465
v 0.49695210546713448 3 -1.0555689286335457
v 0.49695210546713448 0 -1.0555689286335457
v 0.48224739142471174 3 -1.0420126981497211
v 0.48224739142471168 0 -1.0420126981497211
v 0.31390000681870678 3 1.1044545238987509
v 0.31390000681870683 0 1.1044545238987509
v 0.311592097210726 3 1.1243209164560672
v 0.31159209721072606 0 1.1243209164560672
v 0.29478888167205053 3 -1.2748594164537508
v 0.29478888167205058 0 -1.2748594164537508
v 0.28008416762962779 3 -1.2613031859699262
v 0.28008416762962779 0 -1.2613031859699262
v 0.24308843394749083 3 1.1410938486845621
v 0.24308843394749083 0 1.1410938486845621
v 0.23186336618793191 3 1.1245409681559859
v 0.23186336618793191 0 1.1245409681559859
v 0.22073130004960551 3 -1.2730320345824291
v 0.22073130004960551 0 -1.2730320345824291
v 0.21228827061271333 3 -1.2911625407509777
v 0.21228827061271333 0 -1.2911625407509777
v -0.0037636459684378676 3 1.3084925874636359
v -0.0037636459684378676 0 1.3084925874636359
v -0.014988713727996816 3 1.2919397069350598
v -0.014988713727996816 0 1.2919397069350598
v -0.049647813114921176 3 -1.147121660633303
v -0.049647813114921176 0 -1.147121660633303
v -0.058090842551813349 3 -1.1652521668018516
v -0.058090842551813349 0 -1.1652521668018516
v -0.075452277173014684 3 1.2898216240101086
v -0.075452277173014712 0 1.2898216240101086
v -0.087808126621601923 3 1.3055484477327761
v -0.087808126621601867 0 1.3055484477327761
v -0.12839222461710595 3 -1.1596131229348261
v -0.12839222461710598 0 -1.1596131229348261
v -0.1338373139621323 3 -1.1403686171727994
v -0.13383731396213236 0 -1.1403686171727994
v -0.30998542321424588 3 1.1055596080880874
v -0.30998542321424594 0 1.1055596080880874
v -0.32234127266283313 3 1.1212864318107549
v -0.32234127266283313 0 1.1212864318107549
v -0.38950331724167453 3 1.0997610304436694
v -0.38950331724167453 0 1.0997610304436694
v -0.39041540684841303 3 1.0797818389547906
v -0.39041540684841303 0 1.0797818389547906
v -0.41538434457527695 3 -1.2408154023705638
v -0.4153843445752769 0 -1.2408154023705638
v -0.42082943392030325 3 -1.221570896608537
v -0.42082943392030325 0 -1.221570896608537
v -0.47755385786323779 3 -1.2005312077303976
v -0.47755385786323779 0 -1.2005312077303976
v -0.49423141343798133 3 -1.2115701904757117
v -0.49423141343798133 0 -1.2115701904757117
v -0.64217752237483339 3 -0.95181985658932411
v -0.64217752237483339 0 -0.95181985658932411
v -0.65885507794957698 3 -0.96285883933463823
v -0.65885507794957698 0 -0.96285883933463823
v -0.68745175984380091 3 1.1133629661372422
v -0.68745175984380091 0 1.1133629661372422
v -0.68836384945053941 3 1.0933837746483634
v -0.68836384945053941 0 1.0933837746483634
v -0.7104075142980476 3 -0.90203889786974811
v -0.71040751429804772 0 -0.90203889786974811
v -0.71582967314536983 3 -0.92128987689509667
v -0.71582967314536983 0 -0.92128987689509667
v -0.73879409774617111 3 1.0599604469177557
v -0.73879409774617111 0 1.0599604469177557
v -0.7575499112878622 3 1.0669044701312336
v -0.7575499112878622 0 1.0669044701312336
v -0.84234988492606799 3 0.78025616370922746
v -0.84234988492606799 0 0.78025616370922746
v -0.86110569846775908 3 0.78720018692270521
v -0.86110569846775908 0 0.78720018692270521
v -0.89742683695050851 3 0.71622488225571057
v -0.89742683695050851 0 0.71622488225571057
v -0.90709701339774007 3 0.73373167200938649
v -0.90709701339774007 0 0.73373167200938649
v -0.99749616963035193 3 -0.82117857952301943
v -0.99749616963035193 0 -0.82117857952301954
v -1.0029183284776741 3 -0.84042955854836798
v -1.0029183284776741 0 -0.84042955854836809
v -1.0348446714487098 3 -0.77358217008206709
v -1.0348446714487098 0 -0.77358217008206709
v -1.0451089335199699 3 -0.47550008067081584
v -1.0451089335199699 0 -0.47550008067081584
v -1.0548328247404026 3 -0.77427044908638987
v -1.0548328247404026 0 -0.77427044908638987
v -1.0650970868116627 3 -0.47618835967513862
v -1.0650970868116627 0 -0.47618835967513862
v -1.0772350017766927 3 -0.39738867697553976
v -1.0772350017766927 0 -0.3973886769755397
v -1.0919235553860556 3 -0.41096241606485739
v -1.0919235553860556 0 -0.41096241606485739
v -1.1260165971300224 3 0.22458769474066359
v -1.1260165971300224 0 0.22458769474066365
v -1.1394794433007081 3 0.14120767661961459
v -1.1394794433007081 0 0.14120767661961459
v -1.1456348556157325 3 0.22069874449826249
v -1.1456348556157325 0 0.22069874449826257
v -1.1568768357059727 3 0.15107331078560898
v -1.1568768357059727 0 0.15107331078560898
v -1.1585045059329655 3 0.57201414110814075
v -1.1585045059329655 0 0.57201414110814075
v -1.1681746823801968 3 0.58952093086181656
v -1.1681746823801968 0 0.58952093086181656
v -1.1840122707149898 3 0.51715356586898031
v -1.1840122707149898 0 0.5171535658689802
v -1.2036305292006999 3 0.51326461562657921
v -1.2036305292006999 0 0.5132646156265791
v -1.2796593303187687 3 -0.17833918869050752
v -1.2796593303187687 0 -0.17833918869050749
v -1.2866050332764876 3 -0.11823855649608039
v -1.2866050332764876 0 -0.11823855649608039
v -1.2943478839281315 3 -0.19191292777982516
v -1.2943478839281315 0 -0.19191292777982516
v -1.3040024256817522 3 -0.10837292233008597
v -1.3040024256817522 0 -0.10837292233008597
vn 0.90912330150604248 0 -0.41652712225914001
vn 0.90912330150604248 0 -0.41652712225914001
vn 0.90912330150604248 0 0.41652712225914001
vn 0.90912330150604248 0 0.41652712225914001
vn -0.41652712225914001 0 -0.90912330150604248
vn -0.41652712225914001 0 -0.90912330150604248
vn -0.41652712225914001 0 0.90912330150604248
vn -0.41652712225914001 0 0.90912330150604248
vn 0.99272972345352173 0 -0.12036469578742981
vn 0.99272972345352173 0 -0.12036469578742981
vn 0.12036469578742981 0 0.99272972345352173
vn 0.12036469578742981 0 0.99272972345352173
vn 0.41652712225914001 0 0.90912330150604248
vn 0.41652712225914001 0 0.90912330150604248
vn 0.41652712225914001 0 -0.90912330150604248
vn 0.41652712225914001 0 -0.90912330150604248
vn -0.90912330150604248 0 0.41652712225914001
vn -0.90912330150604248 0 0.41652712225914001
vn -0.90912330150604248 0 -0.41652712225914001
vn -0.90912330150604248 0 -0.41652712225914001
vn -0.12036469578742981 0 -0.99272972345352173
vn -0.12036469578742981 0 -0.99272972345352173
vn -0.99272972345352173 0 0.12036469578742981
vn -0.99272972345352173 0 0.12036469578742981
vn 0.83044219017028809 0 0.55710476636886597
vn 0.83044219017028809 0 0.55710476636886597
vn -0.55710476636886597 0 0.83044219017028809
vn -0.55710476636886597 0 0.83044219017028809
vn 0.55710476636886597 0 -0.83044219017028809
vn 0.55710476636886597 0 -0.83044219017028809
vn -0.83044219017028809 0 -0.55710476636886597
vn -0.83044219017028809 0 -0.55710476636886597
vn 0.78323984146118164 0 -0.62171965837478638
vn 0.78323984146118164 0 -0.62171965837478638
vn 0.62171965837478638 0 0.78323984146118164
vn 0.62171965837478638 0 0.78323984146118164
vn 0.78397995233535767 0 -0.62078613042831421
vn 0.78397995233535767 0 -0.62078613042831421
vn 0.62078613042831421 0 0.78397995233535767
vn 0.62078613042831421 0 0.78397995233535767
vn -0.62171965837478638 0 -0.78323984146118164
vn -0.62171965837478638 0 -0.78323984146118164
vn -0.78323984146118164 0 0.62171965837478638
vn -0.78323984146118164 0 0.62171965837478638
vn 0.99917525053024292 0 0.040605034679174423
vn 0.99917525053024292 0 0.040605034679174423
vn -0.040605034679174423 0 0.99917525053024292
vn -0.040605034679174423 0 0.99917525053024292
vn -0.62078613042831421 0 -0.78397995233535767
vn -0.62078613042831421 0 -0.78397995233535767
vn -0.78397995233535767 0 0.62078613042831421
vn -0.78397995233535767 0 0.62078613042831421
vn 0.040605034679174423 0 -0.99917525053024292
vn 0.040605034679174423 0 -0.99917525053024292
vn -0.99917525053024292 0 -0.040605034679174423
vn -0.99917525053024292 0 -0.040605034679174423
vn 0.98209875822067261 0 0.18836665153503418
vn 0.98209875822067261 0 0.18836665153503418
vn 0.18836665153503418 0 -0.98209875822067261
vn 0.18836665153503418 0 -0.98209875822067261
vn 0.93951636552810669 0 0.34250402450561523
vn 0.93951636552810669 0 0.34250402450561523
vn 0.34250402450561523 0 -0.93951636552810669
vn 0.34250402450561523 0 -0.93951636552810669
vn -0.18836665153503418 0 0.98209875822067261
vn -0.18836665153503418 0 0.98209875822067261
vn -0.98209875822067261 0 -0.18836665153503418
vn -0.98209875822067261 0 -0.18836665153503418
vn -0.34250402450561523 0 0.93951636552810669
vn -0.34250402450561523 0 0.93951636552810669
vn -0.93951636552810669 0 -0.34250402450561523
vn -0.93951636552810669 0 -0.34250402450561523
vn 0.99287241697311401 0 -0.11918193101882935
vn 0.99287241697311401 0 -0.11918193101882935
vn 0.11918193101882935 0 0.99287241697311401
vn 0.11918193101882935 0 0.99287241697311401
vn 0.87290900945663452 0 -0.487883061170578
vn 0.87290900945663452 0 -0.487883061170578
vn 0.487883061170578 0 0.87290900945663452
vn 0.487883061170578 0 0.87290900945663452
vn -0.11918193101882935 0 -0.99287241697311401
vn -0.11918193101882935 0 -0.99287241697311401
vn -0.99287241697311401 0 0.11918193101882935
vn -0.99287241697311401 0 0.11918193101882935
vn 0.73861831426620483 0 0.67412382364273071
vn 0.73861831426620483 0 0.67412382364273071
vn 0.67412382364273071 0 -0.73861831426620483
vn 0.67412382364273071 0 -0.73861831426620483
vn -0.487883061170578 0 -0.87290900945663452
vn -0.487883061170578 0 -0.87290900945663452
vn -0.87290900945663452 0 0.487883061170578
vn -0.87290900945663452 0 0.487883061170578
vn 0.97992759943008423 0 -0.1993536651134491
vn 0.97992759943008423 0 -0.1993536651134491
vn -0.1993536651134491 0 -0.97992759943008423
vn -0.1993536651134491 0 -0.97992759943008423
vn 0.1993536651134491 0 0.97992759943008423
vn 0.1993536651134491 0 0.97992759943008423
vn -0.97992759943008423 0 0.1993536651134491
vn -0.97992759943008423 0 0.1993536651134491
vn -0.67412382364273071 0 0.73861831426620483
vn -0.67412382364273071 0 0.73861831426620483
vn -0.73861831426620483 0 -0.67412382364273071
vn -0.73861831426620483 0 -0.67412382364273071
vn 0.87232714891433716 0 0.48892265558242798
vn 0.87232714891433716 0 0.48892265558242798
vn 0.48892265558242798 0 -0.87232714891433716
vn 0.48892265558242798 0 -0.87232714891433716
vn 0.90862643718719482 0 0.41760984063148499
vn 0.90862643718719482 0 0.41760984063148499
vn -0.41760984063148499 0 0.90862643718719482
vn -0.41760984063148499 0 0.90862643718719482
vn 0.41760984063148499 0 -0.90862643718719482
vn 0.41760984063148499 0 -0.90862643718719482
vn -0.90862643718719482 0 -0.41760984063148499
vn -0.90862643718719482 0 -0.41760984063148499
vn 0.96085083484649658 0 -0.27706614136695862
vn 0.96085083484649658 0 -0.27706614136695862
vn 0.27706614136695862 0 0.96085083484649658
vn 0.27706614136695862 0 0.96085083484649658
vn -0.48892265558242798 0 0.87232714891433716
vn -0.48892265558242798 0 0.87232714891433716
vn -0.87232714891433716 0 -0.48892265558242798
vn -0.87232714891433716 0 -0.48892265558242798
vn 0.73102223873138428 0 -0.68235361576080322
vn 0.73102223873138428 0 -0.68235361576080322
vn 0.68235361576080322 0 0.73102223873138428
vn 0.68235361576080322 0 0.73102223873138428
vn -0.68235361576080322 0 -0.73102223873138428
vn -0.68235361576080322 0 -0.73102223873138428
vn -0.73102223873138428 0 0.68235361576080322
vn -0.73102223873138428 0 0.68235361576080322
vn 0.99922293424606323 0 -0.039414636790752411
vn 0.99922293424606323 0 -0.039414636790752411
vn -0.039414636790752411 0 -0.99922293424606323
vn -0.039414636790752411 0 -0.99922293424606323
vn 0.83110535144805908 0 -0.55611503124237061
vn 0.83110535144805908 0 -0.55611503124237061
vn 0.96389353275299072 0 0.26628789305686951
vn 0.96389353275299072 0 0.26628789305686951
vn -0.55611503124237061 0 -0.83110535144805908
vn -0.55611503124237061 0 -0.83110535144805908
vn -0.26628789305686951 0 0.96389353275299072
vn -0.26628789305686951 0 0.96389353275299072
vn -0.27706614136695862 0 -0.96085083484649658
vn -0.27706614136695862 0 -0.96085083484649658
vn -0.96085083484649658 0 0.27706614136695862
vn -0.96085083484649658 0 0.27706614136695862
vn 0.55611503124237061 0 0.83110535144805908
vn 0.55611503124237061 0 0.83110535144805908
vn -0.83110535144805908 0 0.55611503124237061
vn -0.83110535144805908 0 0.55611503124237061
vn 0.039414636790752411 0 0.99922293424606323
vn 0.039414636790752411 0 0.99922293424606323
vn 0.26628789305686951 0 -0.96389353275299072
vn 0.26628789305686951 0 -0.96389353275299072
vn -0.99922293424606323 0 0.039414636790752411
vn -0.99922293424606323 0 0.039414636790752411
vn -0.96389353275299072 0 -0.26628789305686951
vn -0.96389353275299072 0 -0.26628789305686951
f 6//6 18//18 17//17 5//5
f 18//18 14//14 13//13 17//17
f 14//14 2//2 1//1 13//13
f 2//2 6//6 5//5 1//1
f 32//32 28//28 27//27 31//31
f 28//28 26//26 25//25 27//27
f 26//26 30//30 29//29 25//25
f 30//30 32//32 31//31 29//29
f 56//56 48//48 47//47 55//55
f 48//48 46//46 45//45 47//47
f 46//46 54//54 53//53 45//45
f 54//54 56//56 55//55 53//53
f 92//92 80//80 79//79 91//91
f 80//80 78//78 77//77 79//79
f 78//78 90//90 89//89 77//77
f 90//90 92//92 91//91 89//89
f 122//122 106//106 105//105 121//121
f 106//106 108//108 107//107 105//105
f 108//108 124//124 123//123 107//107
f 124//124 122//122 121//121 123//123
f 154//154 134//134 133//133 153//153
f 134//134 136//136 135//135 133//133
f 136//136 158//158 157//157 135//135
f 158//158 154//154 153//153 157//157
f 150//150 138//138 137//137 149//149
f 138//138 142//142 141//141 137//137
f 142//142 152//152 151//151 141//141
f 152//152 150//150 149//149 151//151
f 110//110 114//114 113//113 109//109
f 114//114 116//116 115//115 113//113
f 116//116 112//112 111//111 115//115
f 112//112 110//110 109//109 111//111
f 74//74 82//82 81//81 73//73
f 82//82 84//84 83//83 81//81
f 84//84 76//76 75//75 83//83
f 76//76 74//74 73//73 75//75
f 38//38 50//50 49//49 37//37
f 50//50 52//52 51//51 49//49
f 52//52 40//40 39//39 51//51
f 40//40 38//38 37//37 39//39
f 8//8 4//4 3//3 7//7
f 4//4 16//16 15//15 3//3
f 16//16 20//20 19//19 15//15
f 20//20 8//8 7//7 19//19
f 12//12 10//10 9//9 11//11
f 10//10 22//22 21//21 9//9
f 22//22 24//24 23//23 21//21
f 24//24 12//12 11//11 23//23
f 36//36 34//34 33//33 35//35
f 34//34 42//42 41//41 33//33
f 42//42 44//44 43//43 41//41
f 44//44 36//36 35//35 43//43
f 62//62 64//64 63//63 61//61
f 64//64 72//72 71//71 63//63
f 72//72 70//70 69//69 71//71
f 70//70 62//62 61//61 69//69
f 94//94 96//96 95//95 93//93
f 96//96 100//100 99//99 95//95
f 100//100 98//98 97//97 99//99
f 98//98 94//94 93//93 97//97
f 126//126 130//130 129//129 125//125
f 130//130 132//132 131//131 129//129
f 132//132 128//128 127//127 131//131
f 128//128 126//126 125//125 127//127
f 156//156 160//160 159//159 155//155
f 160//160 144//144 143//143 159//159
f 144//144 140//140 139//139 143//143
f 140//140 156//156 155//155 139//139
f 146//146 148//148 147//147 145//145
f 148//148 120//120 119//119 147//147
f 120//120 118//118 117//117 119//119
f 118//118 146//146 145//145 117//117
f 104//104 102//102 101//101 103//103
f 102//102 86//86 85//85 101//101
f 86//86 88//88 87//87 85//85
f 88//88 104//104 103//103 87//87
f 68//68 66//66 65//65 67//67
f 66//66 58//58 57//57 65//65
f 58//58 60//60 59//59 57//57
f 60//60 68//68 67//67 59//59
