# Rhino

mtllib Pannelli121.mtl
usemtl diffuse_Black
v 1.3359132114597241 3 -0.28355066855674754
v 1.3359132114597241 0 -0.28355066855674749
v 1.3359132114597265 3 0.28355066855673605
v 1.3359132114597265 0 0.28355066855673605
v 1.3192256306344448 3 -0.29457449031690724
v 1.3192256306344448 0 -0.29457449031690724
v 1.3192256306344472 3 0.29457449031689598
v 1.3192256306344472 0 0.29457449031689598
v 1.3165232438049284 3 -0.3630862689678046
v 1.3165232438049284 0 -0.3630862689678046
v 1.3067814431423805 3 -0.34561923373422282
v 1.3067814431423805 0 -0.34561923373422282
v 1.1691936991293208 3 -0.03117491378724619
v 1.1691936991293208 0 -0.031174913787246177
v 1.169193699129321 3 0.031174913787236309
v 1.169193699129321 0 0.031174913787236309
v 1.1525061183040415 3 -0.042198735547405906
v 1.1525061183040415 0 -0.042198735547405899
v 1.1525061183040417 3 0.042198735547396227
v 1.1525061183040417 0 0.042198735547396227
v 1.0555280553595539 3 -0.8665596428062472
v 1.0555280553595539 0 -0.8665596428062472
v 1.0523593576901269 3 -0.51041704871151261
v 1.0523593576901269 0 -0.51041704871151261
v 1.0426175570275789 3 -0.49295001347793088
v 1.0426175570275789 0 -0.49295001347793088
v 1.0356393400297763 3 -0.86866653685462247
v 1.0356393400297763 0 -0.86866653685462247
v 1.0236643010355835 3 -0.56577131432998373
v 1.0236643010355835 0 -0.56577131432998373
v 1.0037755857058059 3 -0.56787820837835901
v 1.0037755857058059 0 -0.56787820837835901
v 1.0017092059692017 3 -0.92824768077715325
v 1.0017092059692017 0 -0.92824768077715325
v 1.0010992178210079 3 -0.9082569850799278
v 1.0010992178210079 0 -0.9082569850799278
v 0.69937857052371177 3 -0.93747287770129983
v 0.69937857052371177 0 -0.93747287770129983
v 0.69876858237551809 3 -0.9174821820040745
v 0.69876858237551809 0 -0.9174821820040745
v 0.64842754628566768 3 -0.97341024165112189
v 0.64842754628566768 0 -0.97341024165112189
v 0.62980066758467157 3 -0.96612742695772347
v 0.62980066758467157 0 -0.96612742695772347
v 0.53828540679061809 3 -1.2551150987171937
v 0.53828540679061809 0 -1.2551150987171937
v 0.51965852808962198 3 -1.2478322840237952
v 0.51965852808962198 0 -1.2478322840237952
v 0.4707731763153703 3 -1.2670844531167806
v 0.4707731763153703 0 -1.2670844531167806
v 0.46211447234427327 3 -1.2851129540400663
v 0.46211447234427327 0 -1.2851129540400663
v 0.19811792595191935 3 -1.136133959278816
v 0.19811792595191935 0 -1.136133959278816
v 0.18945922198082232 3 -1.1541624602021019
v 0.18945922198082232 0 -1.1541624602021019
v 0.12768549503410612 3 -1.1626186802607474
v 0.12768549503410612 0 -1.1626186802607474
v 0.11450027154580841 3 -1.1475803997219476
v 0.11450027154580841 0 -1.1475803997219476
v -0.099746955550088751 3 -1.3620262974884516
v -0.099746955550088778 0 -1.3620262974884516
v -0.11293217903838645 3 -1.3469880169496518
v -0.11293217903838648 0 -1.3469880169496518
v -0.1651930265269842 3 -1.341581774941494
v -0.1651930265269842 0 -1.341581774941494
v -0.18117743408171916 3 -1.353602536777756
v -0.18117743408171916 0 -1.353602536777756
v -0.25321802829693196 3 1.3277842539410265
v -0.25321802829693196 0 1.3277842539410265
v -0.26995964221643293 3 1.3387258426451576
v -0.26995964221643293 0 1.3387258426451576
v -0.34698982937664336 3 -1.0998405085825931
v -0.34698982937664336 0 -1.0998405085825931
v -0.36297423693137831 3 -1.1118612704188551
v -0.36297423693137831 0 -1.1118612704188551
v -0.41869388345500491 3 1.0745913260246502
v -0.41869388345500491 0 1.0745913260246502
v -0.4217088180165125 3 -1.0909387948645253
v -0.4217088180165125 0 -1.0909387948645253
v -0.42649365965550462 3 -1.0715195958468064
v -0.42649365965550456 0 -1.0715195958468064
v -0.43543549737450588 3 1.0855329147287813
v -0.43543549737450588 0 1.0855329147287813
v -0.49266409929435712 3 1.0607864377902965
v -0.49266409929435712 0 1.0607864377902965
v -0.49615920235354966 3 1.0410941993546685
v -0.49615920235354966 0 1.0410941993546685
v -0.71539638486213342 3 -1.163302670295999
v -0.71539638486213342 0 -1.163302670295999
v -0.72018122650112559 3 -1.1438834712782802
v -0.72018122650112559 0 -1.1438834712782802
v -0.76409038421848274 3 -1.1150319634939463
v -0.76409038421848274 0 -1.1150319634939463
v -0.78381363977988705 3 -1.1183475614882061
v -0.78381363977988705 0 -1.1183475614882061
v -0.79048099620274437 3 1.1136448647723962
v -0.79048099620274437 0 1.1136448647723962
v -0.79397609926193691 3 1.0939526263367683
v -0.79397609926193691 0 1.0939526263367683
v -0.81423405423720729 3 -0.81674597699069784
v -0.81423405423720729 0 -0.81674597699069784
v -0.83395730979861149 3 -0.82006157498495769
v -0.83395730979861149 0 -0.82006157498495769
v -0.83588911817475031 3 1.0622710468544982
v -0.83588911817475031 0 1.0622710468544982
v -0.85578795831276988 3 1.0642800668050081
v -0.85578795831276988 0 1.0642800668050081
v -0.86627266697463323 3 0.76132959515751464
v -0.86627266697463323 0 0.76132959515751464
v -0.87178362707594093 3 -0.75501284331616902
v -0.87178362707594093 0 -0.75501284331616902
v -0.87647287213636926 3 -0.77445534780410086
v -0.87647287213636926 0 -0.77445534780410086
v -0.8861715071126528 3 0.76333861510802425
v -0.8861715071126528 0 0.76333861510802425
v -0.91963021454757365 3 0.69593918879542371
v -0.91963021454757365 0 0.69593918879542371
v -0.92559015138972023 3 0.71503052591039895
v -0.92559015138972023 0 0.71503052591039895
v -1.0987664739590559 3 -0.35037597194104508
v -1.0987664739590559 0 -0.35037597194104508
v -1.1178027350951125 3 -0.34424239533682199
v -1.1178027350951125 0 -0.34424239533682199
v -1.1194623287158278 3 0.27722766924710984
v -1.1194623287158278 0 0.27722766924710979
v -1.1214478289508139 3 -0.26908335688324408
v -1.1214478289508139 0 -0.26908335688324403
v -1.1345589074607891 3 -0.28418632415147532
v -1.1345589074607891 0 -0.28418632415147532
v -1.1367388230989466 3 0.19461740433391631
v -1.1367388230989466 0 0.19461740433391631
v -1.1380531519609238 3 0.26985330208310143
v -1.1380531519609238 0 0.26985330208310143
v -1.1508164069720719 3 0.2088237983976865
v -1.1508164069720719 0 0.2088237983976865
v -1.165823655773095 3 -0.6840947291919226
v -1.165823655773095 0 -0.6840947291919226
v -1.1705129008335233 3 -0.70353723367985443
v -1.1705129008335233 0 -0.70353723367985443
v -1.1915280336563372 3 -0.6382721518908504
v -1.1915280336563372 0 -0.6382721518908504
v -1.2083593397813497 3 0.60580368175795596
v -1.2083593397813497 0 0.60580368175795596
v -1.2105642947923936 3 -0.63213857528662731
v -1.2105642947923936 0 -0.63213857528662731
v -1.214319276623496 3 0.62489501887293109
v -1.214319276623496 0 0.62489501887293109
v -1.2309890681785489 3 0.55838723919267874
v -1.2309890681785489 0 0.55838723919267874
v -1.2495798914236449 3 0.55101287202867033
v -1.2495798914236449 0 0.55101287202867033
v -1.3498585736529376 3 -0.070797076238858322
v -1.3498585736529376 0 -0.070797076238858322
v -1.3515901824383207 3 -0.018285885394509482
v -1.3515901824383207 0 -0.018285885394509482
v -1.3629696521629129 3 -0.08590004350708956
v -1.3629696521629129 0 -0.085900043507089574
v -1.3656677663114463 3 -0.00407949133073926
v -1.3656677663114463 0 -0.00407949133073926
vn 0.97974604368209839 0 -0.20024411380290985
vn 0.97974604368209839 0 -0.20024411380290985
vn 0.97974604368209839 0 0.20024411380290985
vn 0.97974604368209839 0 0.20024411380290985
vn -0.20024411380290985 0 -0.97974604368209839
vn -0.20024411380290985 0 -0.97974604368209839
vn -0.20024411380290985 0 0.97974604368209839
vn -0.20024411380290985 0 0.97974604368209839
vn 0.96197760105133057 0 -0.27312830090522766
vn 0.96197760105133057 0 -0.27312830090522766
vn 0.27312830090522766 0 0.96197760105133057
vn 0.27312830090522766 0 0.96197760105133057
vn 0.20024411380290985 0 0.97974604368209839
vn 0.20024411380290985 0 0.97974604368209839
vn 0.20024411380290985 0 -0.97974604368209839
vn 0.20024411380290985 0 -0.97974604368209839
vn -0.97974604368209839 0 0.20024411380290985
vn -0.97974604368209839 0 0.20024411380290985
vn -0.97974604368209839 0 -0.20024411380290985
vn -0.97974604368209839 0 -0.20024411380290985
vn 0.77766221761703491 0 -0.62868231534957886
vn 0.77766221761703491 0 -0.62868231534957886
vn -0.27312830090522766 0 -0.96197760105133057
vn -0.27312830090522766 0 -0.96197760105133057
vn -0.96197760105133057 0 0.27312830090522766
vn -0.96197760105133057 0 0.27312830090522766
vn -0.62868231534957886 0 -0.77766221761703491
vn -0.62868231534957886 0 -0.77766221761703491
vn 0.62868231534957886 0 0.77766221761703491
vn 0.62868231534957886 0 0.77766221761703491
vn -0.77766221761703491 0 0.62868231534957886
vn -0.77766221761703491 0 0.62868231534957886
vn 0.7283441424369812 0 -0.68521147966384888
vn 0.7283441424369812 0 -0.68521147966384888
vn 0.68521147966384888 0 0.7283441424369812
vn 0.68521147966384888 0 0.7283441424369812
vn -0.68521147966384888 0 -0.7283441424369812
vn -0.68521147966384888 0 -0.7283441424369812
vn -0.7283441424369812 0 0.68521147966384888
vn -0.7283441424369812 0 0.68521147966384888
vn 0.91604602336883545 0 0.40107321739196777
vn 0.91604602336883545 0 0.40107321739196777
vn -0.40107321739196777 0 0.91604602336883545
vn -0.40107321739196777 0 0.91604602336883545
vn 0.40107321739196777 0 -0.91604602336883545
vn 0.40107321739196777 0 -0.91604602336883545
vn -0.91604602336883545 0 -0.40107321739196777
vn -0.91604602336883545 0 -0.40107321739196777
vn 0.94353514909744263 0 0.33127236366271973
vn 0.94353514909744263 0 0.33127236366271973
vn 0.33127236366271973 0 -0.94353514909744263
vn 0.33127236366271973 0 -0.94353514909744263
vn -0.33127236366271973 0 0.94353514909744263
vn -0.33127236366271973 0 0.94353514909744263
vn -0.94353514909744263 0 -0.33127236366271973
vn -0.94353514909744263 0 -0.33127236366271973
vn 0.99785155057907104 0 -0.065515458583831787
vn 0.99785155057907104 0 -0.065515458583831787
vn 0.065515458583831787 0 0.99785155057907104
vn 0.065515458583831787 0 0.99785155057907104
vn -0.065515458583831787 0 -0.99785155057907104
vn -0.065515458583831787 0 -0.99785155057907104
vn -0.99785155057907104 0 0.065515458583831787
vn -0.99785155057907104 0 0.065515458583831787
vn 0.99013227224349976 0 -0.14013603329658508
vn 0.99013227224349976 0 -0.14013603329658508
vn -0.14013603329658508 0 -0.99013227224349976
vn -0.14013603329658508 0 -0.99013227224349976
vn 0.97874903678894043 0 0.20506186783313751
vn 0.97874903678894043 0 0.20506186783313751
vn -0.20506186783313751 0 0.97874903678894043
vn -0.20506186783313751 0 0.97874903678894043
vn 0.14013603329658508 0 0.99013227224349976
vn 0.14013603329658508 0 0.99013227224349976
vn -0.99013227224349976 0 0.14013603329658508
vn -0.99013227224349976 0 0.14013603329658508
vn 0.20506186783313751 0 -0.97874903678894043
vn 0.20506186783313751 0 -0.97874903678894043
vn 0.85574203729629517 0 -0.51740270853042603
vn 0.85574203729629517 0 -0.51740270853042603
vn 0.51740270853042603 0 0.85574203729629517
vn 0.51740270853042603 0 0.85574203729629517
vn -0.97874903678894043 0 -0.20506186783313751
vn -0.97874903678894043 0 -0.20506186783313751
vn 0.81979632377624512 0 0.57265520095825195
vn 0.81979632377624512 0 0.57265520095825195
vn 0.57265520095825195 0 -0.81979632377624512
vn 0.57265520095825195 0 -0.81979632377624512
vn -0.51740270853042603 0 -0.85574203729629517
vn -0.51740270853042603 0 -0.85574203729629517
vn -0.85574203729629517 0 0.51740270853042603
vn -0.85574203729629517 0 0.51740270853042603
vn 0.81454646587371826 0 -0.58009827136993408
vn 0.81454646587371826 0 -0.58009827136993408
vn -0.58009827136993408 0 -0.81454646587371826
vn -0.58009827136993408 0 -0.81454646587371826
vn -0.57265520095825195 0 0.81979632377624512
vn -0.57265520095825195 0 0.81979632377624512
vn -0.81979632377624512 0 -0.57265520095825195
vn -0.81979632377624512 0 -0.57265520095825195
vn 0.58009827136993408 0 0.81454646587371826
vn 0.58009827136993408 0 0.81454646587371826
vn -0.81454646587371826 0 0.58009827136993408
vn -0.81454646587371826 0 0.58009827136993408
vn 0.77455985546112061 0 0.63250064849853516
vn 0.77455985546112061 0 0.63250064849853516
vn -0.63250064849853516 0 0.77455985546112061
vn -0.63250064849853516 0 0.77455985546112061
vn 0.63250064849853516 0 -0.77455985546112061
vn 0.63250064849853516 0 -0.77455985546112061
vn 0.85318619012832642 0 0.52160650491714478
vn 0.85318619012832642 0 0.52160650491714478
vn 0.52160650491714478 0 -0.85318619012832642
vn 0.52160650491714478 0 -0.85318619012832642
vn -0.77455985546112061 0 -0.63250064849853516
vn -0.77455985546112061 0 -0.63250064849853516
vn 0.88569629192352295 0 -0.46426507830619812
vn 0.88569629192352295 0 -0.46426507830619812
vn 0.46426507830619812 0 0.88569629192352295
vn 0.46426507830619812 0 0.88569629192352295
vn 0.88988816738128662 0 0.45617878437042236
vn 0.88988816738128662 0 0.45617878437042236
vn -0.45617878437042236 0 0.88988816738128662
vn -0.45617878437042236 0 0.88988816738128662
vn 0.91800808906555176 0 -0.39656165242195129
vn 0.91800808906555176 0 -0.39656165242195129
vn 0.9975171685218811 0 0.070423886179924011
vn 0.9975171685218811 0 0.070423886179924011
vn 0.070423886179924011 0 -0.9975171685218811
vn 0.070423886179924011 0 -0.9975171685218811
vn 0.99998962879180908 0 -0.004554135724902153
vn 0.99998962879180908 0 -0.004554135724902153
vn -0.39656165242195129 0 -0.91800808906555176
vn -0.39656165242195129 0 -0.91800808906555176
vn 0.004554135724902153 0 0.99998962879180908
vn 0.004554135724902153 0 0.99998962879180908
vn -0.52160650491714478 0 0.85318619012832642
vn -0.52160650491714478 0 0.85318619012832642
vn -0.85318619012832642 0 -0.52160650491714478
vn -0.85318619012832642 0 -0.52160650491714478
vn 0.45617878437042236 0 -0.88988816738128662
vn 0.45617878437042236 0 -0.88988816738128662
vn -0.46426507830619812 0 -0.88569629192352295
vn -0.46426507830619812 0 -0.88569629192352295
vn -0.88988816738128662 0 -0.45617878437042236
vn -0.88988816738128662 0 -0.45617878437042236
vn -0.88569629192352295 0 0.46426507830619812
vn -0.88569629192352295 0 0.46426507830619812
vn 0.39656165242195129 0 0.91800808906555176
vn 0.39656165242195129 0 0.91800808906555176
vn -0.91800808906555176 0 0.39656165242195129
vn -0.91800808906555176 0 0.39656165242195129
vn -0.070423886179924011 0 0.9975171685218811
vn -0.070423886179924011 0 0.9975171685218811
vn -0.004554135724902153 0 -0.99998962879180908
vn -0.004554135724902153 0 -0.99998962879180908
vn -0.9975171685218811 0 -0.070423886179924011
vn -0.9975171685218811 0 -0.070423886179924011
vn -0.99998962879180908 0 0.004554135724902153
vn -0.99998962879180908 0 0.004554135724902153
f 6//6 18//18 17//17 5//5
f 18//18 14//14 13//13 17//17
f 14//14 2//2 1//1 13//13
f 2//2 6//6 5//5 1//1
f 28//28 32//32 31//31 27//27
f 32//32 30//30 29//29 31//31
f 30//30 22//22 21//21 29//29
f 22//22 28//28 27//27 21//21
f 48//48 44//44 43//43 47//47
f 44//44 42//42 41//41 43//43
f 42//42 46//46 45//45 41//41
f 46//46 48//48 47//47 45//45
f 64//64 60//60 59//59 63//63
f 60//60 58//58 57//57 59//59
f 58//58 62//62 61//61 57//57
f 62//62 64//64 63//63 61//61
f 92//92 82//82 81//81 91//91
f 82//82 80//80 79//79 81//81
f 80//80 90//90 89//89 79//79
f 90//90 92//92 91//91 89//89
f 138//138 112//112 111//111 137//137
f 112//112 114//114 113//113 111//111
f 114//114 140//140 139//139 113//113
f 140//140 138//138 137//137 139//139
f 154//154 128//128 127//127 153//153
f 128//128 130//130 129//129 127//127
f 130//130 158//158 157//157 129//129
f 158//158 154//154 153//153 157//157
f 150//150 126//126 125//125 149//149
f 126//126 134//134 133//133 125//125
f 134//134 152//152 151//151 133//133
f 152//152 150//150 149//149 151//151
f 106//106 110//110 109//109 105//105
f 110//110 116//116 115//115 109//109
f 116//116 108//108 107//107 115//115
f 108//108 106//106 105//105 107//107
f 70//70 78//78 77//77 69//69
f 78//78 84//84 83//83 77//77
f 84//84 72//72 71//71 83//83
f 72//72 70//70 69//69 71//71
f 8//8 4//4 3//3 7//7
f 4//4 16//16 15//15 3//3
f 16//16 20//20 19//19 15//15
f 20//20 8//8 7//7 19//19
f 12//12 10//10 9//9 11//11
f 10//10 24//24 23//23 9//9
f 24//24 26//26 25//25 23//23
f 26//26 12//12 11//11 25//25
f 36//36 34//34 33//33 35//35
f 34//34 38//38 37//37 33//33
f 38//38 40//40 39//39 37//37
f 40//40 36//36 35//35 39//39
f 50//50 52//52 51//51 49//49
f 52//52 56//56 55//55 51//51
f 56//56 54//54 53//53 55//55
f 54//54 50//50 49//49 53//53
f 66//66 68//68 67//67 65//65
f 68//68 76//76 75//75 67//67
f 76//76 74//74 73//73 75//75
f 74//74 66//66 65//65 73//73
f 94//94 96//96 95//95 93//93
f 96//96 104//104 103//103 95//95
f 104//104 102//102 101//101 103//103
f 102//102 94//94 93//93 101//101
f 142//142 146//146 145//145 141//141
f 146//146 124//124 123//123 145//145
f 124//124 122//122 121//121 123//123
f 122//122 142//142 141//141 121//121
f 156//156 160//160 159//159 155//155
f 160//160 136//136 135//135 159//159
f 136//136 132//132 131//131 135//135
f 132//132 156//156 155//155 131//131
f 144//144 148//148 147//147 143//143
f 148//148 120//120 119//119 147//147
f 120//120 118//118 117//117 119//119
f 118//118 144//144 143//143 117//117
f 100//100 98//98 97//97 99//99
f 98//98 86//86 85//85 97//97
f 86//86 88//88 87//87 85//85
f 88//88 100//100 99//99 87//87
