# Rhino

mtllib Pannelli77.mtl
usemtl diffuse_Black
v 1.4341880639538165 3 -0.19353893608245304
v 1.4341880639538165 0 -0.19353893608245298
v 1.4341880639538174 3 0.19353893608244432
v 1.4341880639538174 0 0.19353893608244432
v 1.4232616569415066 3 -0.21029046227564935
v 1.4232616569415066 0 -0.21029046227564932
v 1.4232616569415075 3 0.21029046227564066
v 1.4232616569415075 0 0.21029046227564066
v 1.4223246830491638 3 -0.26710525744848029
v 1.4223246830491638 0 -0.26710525744848029
v 1.4172179564118308 3 -0.24776821157659104
v 1.4172179564118308 0 -0.24776821157659104
v 1.3006477520287536 3 -0.63456138214523761
v 1.3006477520287536 0 -0.6345613821452375
v 1.2850094272626189 3 -0.64702905227677776
v 1.2850094272626189 0 -0.64702905227677776
v 1.2674910600823204 3 -0.68070715822252348
v 1.2674910600823204 0 -0.68070715822252348
v 1.2662603660775511 3 -0.7006692571168438
v 1.2662603660775511 0 -0.7006692571168438
v 1.1720408166852183 3 -0.02254988781431979
v 1.1720408166852183 0 -0.02254988781431979
v 1.1720408166852181 3 0.022549887814312504
v 1.1720408166852181 0 0.022549887814312504
v 1.1611144096729085 3 -0.039301414007516106
v 1.1611144096729085 0 -0.039301414007516133
v 1.1611144096729082 3 0.039301414007508854
v 1.1611144096729082 0 0.039301414007508854
v 1.1197162348899008 3 -0.34702121943848785
v 1.1197162348899008 0 -0.34702121943848785
v 1.1146095082525678 3 -0.32768417356659862
v 1.1146095082525678 0 -0.32768417356659862
v 1.1055392367124819 3 -0.389834797710228
v 1.1055392367124819 0 -0.38983479771022805
v 1.0899009119463472 3 -0.40230246784176821
v 1.0899009119463472 0 -0.40230246784176826
v 1.0352425954791458 3 -1.0112494702461534
v 1.0352425954791458 0 -1.0112494702461534
v 1.0164778285518348 3 -1.0181692623068799
v 1.0164778285518348 0 -1.0181692623068799
v 0.98926087649455507 3 -1.0446333045050846
v 0.98926087649455507 0 -1.0446333045050846
v 0.98181753450305131 3 -1.0631966194029556
v 0.98181753450305131 0 -1.0631966194029556
v 0.95510105964313741 3 -0.66144783570710364
v 0.95510105964313741 0 -0.66144783570710364
v 0.95387036563836813 3 -0.68140993460142396
v 0.95387036563836813 0 -0.68140993460142396
v 0.92695368977171877 3 -0.7175967045877425
v 0.92695368977171877 0 -0.71759670458774238
v 0.90818892284440778 3 -0.72451649664846884
v 0.90818892284440778 0 -0.72451649664846884
v 0.69876066507898416 3 -0.92815128423734428
v 0.69876066507898416 0 -0.92815128423734428
v 0.69131732308748051 3 -0.94671459913521527
v 0.69131732308748051 0 -0.94671459913521527
v 0.66488042517340329 3 -1.2854130631002465
v 0.66488042517340329 0 -1.2854130631002465
v 0.65438988923751573 3 -0.97260580210088377
v 0.65438988923751573 0 -0.97260580210088377
v 0.64489166282457 3 -1.2860834210358787
v 0.64489166282457 0 -1.2860834210358787
v 0.63440112688868244 3 -0.97327616003651618
v 0.63440112688868244 0 -0.97327616003651618
v 0.6107354887912857 3 -1.3026503695830502
v 0.6107354887912857 0 -1.3026503695830502
v 0.59783413444261457 3 -1.3179328777531778
v 0.59783413444261457 0 -1.3179328777531778
v 0.37157713378802648 3 -1.1007550622817643
v 0.37157713378802648 0 -1.1007550622817643
v 0.35867577943935536 3 -1.1160375704518921
v 0.35867577943935536 0 -1.1160375704518921
v 0.31548143779104137 3 -1.1290082532142485
v 0.31548143779104137 0 -1.1290082532142485
v 0.29629522028668381 3 -1.1233612134697912
v 0.29629522028668376 0 -1.1233612134697912
v 0.22711003167837901 3 -1.4292563647150813
v 0.22711003167837901 0 -1.4292563647150813
v 0.20792381417402145 3 -1.4236093249706241
v 0.20792381417402145 0 -1.4236093249706241
v 0.17029130700211559 3 -1.428599556700022
v 0.17029130700211559 0 -1.428599556700022
v 0.15323993093707899 3 -1.4390518566521231
v 0.15323993093707899 0 -1.4390518566521231
v 0.006721634097811971 3 -1.1617599119990805
v 0.006721634097811971 0 -1.1617599119990805
v -0.010329741967224651 3 -1.1722122119511815
v -0.010329741967224651 0 -1.1722122119511815
v -0.055411777179111374 3 -1.1709473550789735
v -0.055411777179111402 0 -1.1709473550789735
v -0.071850274762806393 3 -1.1595554370143608
v -0.071850274762806407 0 -1.1595554370143608
v -0.23368568054205127 3 -1.4281959687931911
v -0.2336856805420513 0 -1.4281959687931911
v -0.25012417812574633 3 -1.4168040507285784
v -0.25012417812574633 0 -1.4168040507285784
v -0.28741768511230864 3 -1.4097116360903992
v -0.28741768511230864 0 -1.4097116360903992
v -0.30689034653758085 3 -1.4142740320636475
v -0.30689034653758085 0 -1.4142740320636475
v -0.35881533160389456 3 -1.1049809189750941
v -0.35881533160389456 0 -1.1049809189750941
v -0.37828799302916671 3 -1.1095433149483422
v -0.37828799302916671 0 -1.1095433149483422
v -0.42068712568488426 3 -1.0941711546643798
v -0.42068712568488426 0 -1.0941711546643798
v -0.43271130305098499 3 -1.0781893162636027
v -0.43271130305098499 0 -1.0781893162636027
v -0.67078940858952374 3 -1.2823393824926539
v -0.67078940858952363 0 -1.2823393824926539
v -0.68281358595562436 3 -1.2663575440918768
v -0.68281358595562447 0 -1.2663575440918768
v -0.68797417119340054 3 -0.93617456345694905
v -0.68797417119340054 0 -0.93617456345694905
v -0.70789390207820457 3 -0.93438450159293862
v -0.70789390207820457 0 -0.93438450159293862
v -0.71598712862061431 3 -1.2479015403042006
v -0.71598712862061431 0 -1.2479015403042006
v -0.73590685950541823 3 -1.2461114784401901
v -0.73590685950541823 0 -1.2461114784401901
v -0.74331153939493322 3 -0.90646352867554814
v -0.74331153939493322 0 -0.90646352867554802
v -0.74970233759558391 3 -0.88751207231044105
v -0.74970233759558402 0 -0.88751207231044094
v -0.94738345172772598 3 -0.67245510547955178
v -0.94738345172772598 0 -0.67245510547955178
v -0.96573071049057646 3 -0.66449406937305111
v -0.96573071049057646 0 -0.66449406937305111
v -0.99057607146365589 3 -0.62685502315943986
v -0.99057607146365589 0 -0.62685502315943986
v -0.99068556594707757 3 -0.60685532288773325
v -0.99068556594707757 0 -0.60685532288773325
v -1.0398858371960233 3 -1.0064741269236133
v -1.0398858371960233 0 -1.0064741269236133
v -1.0462766353966739 3 -0.98752267055850607
v -1.0462766353966739 0 -0.98752267055850618
v -1.0719669479809024 3 -0.95957422072526366
v -1.0719669479809024 0 -0.95957422072526366
v -1.0903142067437528 3 -0.9516131846187631
v -1.0903142067437528 0 -0.9516131846187631
v -1.1107432281076173 3 -0.34055947308234685
v -1.1107432281076173 0 -0.34055947308234685
v -1.1256578966479169 3 -0.32723458425230445
v -1.1256578966479169 0 -0.32723458425230445
v -1.1312291494972608 3 -0.26467316603834212
v -1.1312291494972608 0 -0.26467316603834218
v -1.1374120597174968 3 -0.28369346102050536
v -1.1374120597174968 0 -0.28369346102050536
v -1.3035545017247923 3 -0.62856851941578529
v -1.3035545017247923 0 -0.62856851941578529
v -1.3036639962082142 3 -0.60856881914407868
v -1.3036639962082142 0 -0.60856881914407868
v -1.31926649259527 3 -0.57396144832154239
v -1.31926649259527 0 -0.57396144832154239
v -1.3341811611355698 3 -0.56063655949149993
v -1.3341811611355698 0 -0.56063655949149993
v -1.4288807135580881 3 -0.16791583923417328
v -1.4288807135580881 0 -0.16791583923417328
v -1.4350636237783241 3 -0.18693613421633654
v -1.4350636237783241 0 -0.18693613421633648
vn 0.97856271266937256 0 0.20594905316829681
vn 0.97856271266937256 0 0.20594905316829681
vn 0.97856271266937256 0 -0.20594905316829681
vn 0.97856271266937256 0 -0.20594905316829681
vn 0.20594905316829681 0 -0.97856271266937256
vn 0.20594905316829681 0 -0.97856271266937256
vn 0.20594905316829681 0 0.97856271266937256
vn 0.20594905316829681 0 0.97856271266937256
vn 0.86421787738800049 0 -0.50311774015426636
vn 0.86421787738800049 0 -0.50311774015426636
vn 0.50311774015426636 0 0.86421787738800049
vn 0.50311774015426636 0 0.86421787738800049
vn 0.99369698762893677 0 -0.11209957301616669
vn 0.99369698762893677 0 -0.11209957301616669
vn -0.11209957301616669 0 -0.99369698762893677
vn -0.11209957301616669 0 -0.99369698762893677
vn 0.74927836656570435 0 0.66225516796112061
vn 0.74927836656570435 0 0.66225516796112061
vn 0.66225516796112061 0 -0.74927836656570435
vn 0.66225516796112061 0 -0.74927836656570435
vn -0.20594905316829681 0 0.97856271266937256
vn -0.20594905316829681 0 0.97856271266937256
vn -0.20594905316829681 0 -0.97856271266937256
vn -0.20594905316829681 0 -0.97856271266937256
vn -0.97856271266937256 0 -0.20594905316829681
vn -0.97856271266937256 0 -0.20594905316829681
vn -0.97856271266937256 0 0.20594905316829681
vn -0.97856271266937256 0 0.20594905316829681
vn -0.50311774015426636 0 -0.86421787738800049
vn -0.50311774015426636 0 -0.86421787738800049
vn -0.86421787738800049 0 0.50311774015426636
vn -0.86421787738800049 0 0.50311774015426636
vn 0.11209957301616669 0 0.99369698762893677
vn 0.11209957301616669 0 0.99369698762893677
vn -0.99369698762893677 0 0.11209957301616669
vn -0.99369698762893677 0 0.11209957301616669
vn 0.90808629989624023 0 -0.41878306865692139
vn 0.90808629989624023 0 -0.41878306865692139
vn -0.41878306865692139 0 -0.90808629989624023
vn -0.41878306865692139 0 -0.90808629989624023
vn 0.91947418451309204 0 0.39315041899681091
vn 0.91947418451309204 0 0.39315041899681091
vn 0.39315041899681091 0 -0.91947418451309204
vn 0.39315041899681091 0 -0.91947418451309204
vn -0.66225516796112061 0 0.74927836656570435
vn -0.66225516796112061 0 0.74927836656570435
vn -0.74927836656570435 0 -0.66225516796112061
vn -0.74927836656570435 0 -0.66225516796112061
vn 0.41878306865692139 0 0.90808629989624023
vn 0.41878306865692139 0 0.90808629989624023
vn -0.90808629989624023 0 0.41878306865692139
vn -0.90808629989624023 0 0.41878306865692139
vn -0.39315041899681091 0 0.91947418451309204
vn -0.39315041899681091 0 0.91947418451309204
vn -0.91947418451309204 0 -0.39315041899681091
vn -0.91947418451309204 0 -0.39315041899681091
vn 0.73041021823883057 0 -0.68300873041152954
vn 0.73041021823883057 0 -0.68300873041152954
vn 0.68300873041152954 0 0.73041021823883057
vn 0.68300873041152954 0 0.73041021823883057
vn -0.68300873041152954 0 -0.73041021823883057
vn -0.68300873041152954 0 -0.73041021823883057
vn -0.73041021823883057 0 0.68300873041152954
vn -0.73041021823883057 0 0.68300873041152954
vn 0.99645000696182251 0 0.084186524152755737
vn 0.99645000696182251 0 0.084186524152755737
vn 0.084186524152755737 0 -0.99645000696182251
vn 0.084186524152755737 0 -0.99645000696182251
vn -0.084186524152755737 0 0.99645000696182251
vn -0.084186524152755737 0 0.99645000696182251
vn -0.99645000696182251 0 -0.084186524152755737
vn -0.99645000696182251 0 -0.084186524152755737
vn 0.87798821926116943 0 0.4786822497844696
vn 0.87798821926116943 0 0.4786822497844696
vn -0.4786822497844696 0 0.87798821926116943
vn -0.4786822497844696 0 0.87798821926116943
vn 0.4786822497844696 0 -0.87798821926116943
vn 0.4786822497844696 0 -0.87798821926116943
vn -0.87798821926116943 0 -0.4786822497844696
vn -0.87798821926116943 0 -0.4786822497844696
vn 0.97240179777145386 0 -0.23331256210803986
vn 0.97240179777145386 0 -0.23331256210803986
vn -0.23331256210803986 0 -0.97240179777145386
vn -0.23331256210803986 0 -0.97240179777145386
vn 0.23331256210803986 0 0.97240179777145386
vn 0.23331256210803986 0 0.97240179777145386
vn -0.97240179777145386 0 0.23331256210803986
vn -0.97240179777145386 0 0.23331256210803986
vn 0.98395377397537231 0 0.17842350900173187
vn 0.98395377397537231 0 0.17842350900173187
vn -0.17842350900173187 0 0.98395377397537231
vn -0.17842350900173187 0 0.98395377397537231
vn 0.17842350900173187 0 -0.98395377397537231
vn 0.17842350900173187 0 -0.98395377397537231
vn -0.98395377397537231 0 -0.17842350900173187
vn -0.98395377397537231 0 -0.17842350900173187
vn 0.84976762533187866 0 -0.5271574854850769
vn 0.84976762533187866 0 -0.5271574854850769
vn -0.5271574854850769 0 -0.84976762533187866
vn -0.5271574854850769 0 -0.84976762533187866
vn 0.5271574854850769 0 0.84976762533187866
vn 0.5271574854850769 0 0.84976762533187866
vn -0.84976762533187866 0 0.5271574854850769
vn -0.84976762533187866 0 0.5271574854850769
vn 0.990162193775177 0 -0.13992446660995483
vn 0.990162193775177 0 -0.13992446660995483
vn 0.13992446660995483 0 0.990162193775177
vn 0.13992446660995483 0 0.990162193775177
vn -0.13992446660995483 0 -0.990162193775177
vn -0.13992446660995483 0 -0.990162193775177
vn -0.990162193775177 0 0.13992446660995483
vn -0.990162193775177 0 0.13992446660995483
vn 0.76755708456039429 0 0.64098060131072998
vn 0.76755708456039429 0 0.64098060131072998
vn -0.64098060131072998 0 0.76755708456039429
vn -0.64098060131072998 0 0.76755708456039429
vn 0.64098060131072998 0 -0.76755708456039429
vn 0.64098060131072998 0 -0.76755708456039429
vn -0.76755708456039429 0 -0.64098060131072998
vn -0.76755708456039429 0 -0.64098060131072998
vn 0.8959839940071106 0 -0.44408634305000305
vn 0.8959839940071106 0 -0.44408634305000305
vn 0.44408634305000305 0 0.8959839940071106
vn 0.44408634305000305 0 0.8959839940071106
vn 0.93013870716094971 0 0.36720845103263855
vn 0.93013870716094971 0 0.36720845103263855
vn -0.36720845103263855 0 0.93013870716094971
vn -0.36720845103263855 0 0.93013870716094971
vn 0.71096742153167725 0 -0.70322495698928833
vn 0.71096742153167725 0 -0.70322495698928833
vn 0.70322495698928833 0 0.71096742153167725
vn 0.70322495698928833 0 0.71096742153167725
vn -0.44408634305000305 0 -0.8959839940071106
vn -0.44408634305000305 0 -0.8959839940071106
vn -0.8959839940071106 0 0.44408634305000305
vn -0.8959839940071106 0 0.44408634305000305
vn 0.36720845103263855 0 -0.93013870716094971
vn 0.36720845103263855 0 -0.93013870716094971
vn -0.93013870716094971 0 -0.36720845103263855
vn -0.93013870716094971 0 -0.36720845103263855
vn 0.99841910600662231 0 0.056207206100225449
vn 0.99841910600662231 0 0.056207206100225449
vn -0.056207206100225449 0 0.99841910600662231
vn -0.056207206100225449 0 0.99841910600662231
vn 0.89106786251068115 0 0.45387011766433716
vn 0.89106786251068115 0 0.45387011766433716
vn 0.45387011766433716 0 -0.89106786251068115
vn 0.45387011766433716 0 -0.89106786251068115
vn -0.70322495698928833 0 -0.71096742153167725
vn -0.70322495698928833 0 -0.71096742153167725
vn -0.71096742153167725 0 0.70322495698928833
vn -0.71096742153167725 0 0.70322495698928833
vn 0.056207206100225449 0 -0.99841910600662231
vn 0.056207206100225449 0 -0.99841910600662231
vn -0.99841910600662231 0 -0.056207206100225449
vn -0.99841910600662231 0 -0.056207206100225449
vn -0.45387011766433716 0 0.89106786251068115
vn -0.45387011766433716 0 0.89106786251068115
vn -0.89106786251068115 0 -0.45387011766433716
vn -0.89106786251068115 0 -0.45387011766433716
f 6//6 26//26 25//25 5//5
f 26//26 22//22 21//21 25//25
f 22//22 2//2 1//1 21//21
f 2//2 6//6 5//5 1//1
f 16//16 36//36 35//35 15//15
f 36//36 34//34 33//33 35//35
f 34//34 14//14 13//13 33//33
f 14//14 16//16 15//15 13//13
f 40//40 52//52 51//51 39//39
f 52//52 50//50 49//49 51//51
f 50//50 38//38 37//37 49//49
f 38//38 40//40 39//39 37//37
f 62//62 64//64 63//63 61//61
f 64//64 60//60 59//59 63//63
f 60//60 58//58 57//57 59//59
f 58//58 62//62 61//61 57//57
f 80//80 76//76 75//75 79//79
f 76//76 74//74 73//73 75//75
f 74//74 78//78 77//77 73//73
f 78//78 80//80 79//79 77//77
f 96//96 92//92 91//91 95//95
f 92//92 90//90 89//89 91//91
f 90//90 94//94 93//93 89//89
f 94//94 96//96 95//95 93//93
f 112//112 108//108 107//107 111//111
f 108//108 106//106 105//105 107//107
f 106//106 110//110 109//109 105//105
f 110//110 112//112 111//111 109//109
f 136//136 124//124 123//123 135//135
f 124//124 122//122 121//121 123//123
f 122//122 134//134 133//133 121//121
f 134//134 136//136 135//135 133//133
f 152//152 132//132 131//131 151//151
f 132//132 130//130 129//129 131//131
f 130//130 150//150 149//149 129//129
f 150//150 152//152 151//151 149//149
f 158//158 146//146 145//145 157//157
f 146//146 148//148 147//147 145//145
f 148//148 160//160 159//159 147//147
f 160//160 158//158 157//157 159//159
f 8//8 4//4 3//3 7//7
f 4//4 24//24 23//23 3//3
f 24//24 28//28 27//27 23//23
f 28//28 8//8 7//7 27//27
f 12//12 10//10 9//9 11//11
f 10//10 30//30 29//29 9//9
f 30//30 32//32 31//31 29//29
f 32//32 12//12 11//11 31//31
f 18//18 20//20 19//19 17//17
f 20//20 48//48 47//47 19//19
f 48//48 46//46 45//45 47//47
f 46//46 18//18 17//17 45//45
f 42//42 44//44 43//43 41//41
f 44//44 56//56 55//55 43//43
f 56//56 54//54 53//53 55//55
f 54//54 42//42 41//41 53//53
f 66//66 68//68 67//67 65//65
f 68//68 72//72 71//71 67//67
f 72//72 70//70 69//69 71//71
f 70//70 66//66 65//65 69//69
f 82//82 84//84 83//83 81//81
f 84//84 88//88 87//87 83//83
f 88//88 86//86 85//85 87//87
f 86//86 82//82 81//81 85//85
f 98//98 100//100 99//99 97//97
f 100//100 104//104 103//103 99//99
f 104//104 102//102 101//101 103//103
f 102//102 98//98 97//97 101//101
f 118//118 120//120 119//119 117//117
f 120//120 116//116 115//115 119//119
f 116//116 114//114 113//113 115//115
f 114//114 118//118 117//117 113//113
f 138//138 140//140 139//139 137//137
f 140//140 128//128 127//127 139//139
f 128//128 126//126 125//125 127//127
f 126//126 138//138 137//137 125//125
f 154//154 156//156 155//155 153//153
f 156//156 144//144 143//143 155//155
f 144//144 142//142 141//141 143//143
f 142//142 154//154 153//153 141//141
