# Rhino

mtllib Pannelli122.mtl
usemtl diffuse_Black
v 1.3333091177297556 3 -0.28512706200779364
v 1.3333091177297558 0 -0.28512706200779364
v 1.3333091177297547 3 0.28512706200779669
v 1.3333091177297547 0 0.28512706200779669
v 1.3165182490028426 3 -0.29599291344224554
v 1.3165182490028429 0 -0.29599291344224554
v 1.3165182490028418 3 0.29599291344224848
v 1.3165182490028418 0 0.29599291344224848
v 1.3137612572165525 3 -0.36474923433405348
v 1.3137612572165525 0 -0.36474923433405348
v 1.3039114326451569 3 -0.34734288618423381
v 1.3039114326451569 0 -0.34734288618423381
v 1.1690873727544302 3 -0.031357186851723354
v 1.1690873727544302 0 -0.031357186851723361
v 1.1690873727544298 3 0.031357186851725935
v 1.1690873727544298 0 0.031357186851725935
v 1.1522965040275173 3 -0.042223038286175255
v 1.1522965040275173 0 -0.042223038286175268
v 1.1522965040275168 3 0.042223038286177718
v 1.1522965040275168 0 0.042223038286177718
v 1.0506892941904338 3 -0.51361519192360072
v 1.0506892941904338 0 -0.51361519192360072
v 1.0496751804653748 3 -0.87016817939147773
v 1.0496751804653748 0 -0.87016817939147773
v 1.0408394696190379 3 -0.49620884377378094
v 1.0408394696190379 0 -0.49620884377378094
v 1.0297613512509995 3 -0.87202274295757642
v 1.0297613512509995 0 -0.87202274295757642
v 1.0216461146503621 3 -0.56919923991597943
v 1.0216461146503621 0 -0.56919923991597943
v 1.0017322854359869 3 -0.57105380348207813
v 1.0017322854359869 0 -0.57105380348207813
v 0.99547659627430962 3 -0.93168502788260465
v 0.99547659627430962 0 -0.93168502788260465
v 0.9948075721772317 3 -0.9116962208457271
v 0.9948075721772317 0 -0.9116962208457271
v 0.69337447465288427 3 -0.94179636663184563
v 0.69337447465288427 0 -0.94179636663184563
v 0.69270545055580635 3 -0.92180755959496796
v 0.69270545055580635 0 -0.92180755959496796
v 0.64189225805481509 3 -0.97761080566368541
v 0.64189225805481509 0 -0.97761080566368541
v 0.62338368349946238 3 -0.97003237126541064
v 0.62338368349946238 0 -0.97003237126541075
v 0.5273551020322611 3 -1.2573413384085641
v 0.5273551020322611 0 -1.2573413384085641
v 0.50884652747690839 3 -1.2497629040102893
v 0.50884652747690839 0 -1.2497629040102893
v 0.45949394222314371 3 -1.2687385159384785
v 0.45949394222314371 0 -1.2687385159384785
v 0.45083003613658779 3 -1.2867645174730213
v 0.45083003613658779 0 -1.2867645174730213
v 0.18705680788643156 3 -1.1377960136946743
v 0.18705680788643156 0 -1.1377960136946743
v 0.17839290179987569 3 -1.1558220152292173
v 0.17839290179987569 0 -1.1558220152292173
v 0.11617821399131043 3 -1.1637229828850588
v 0.11617821399131041 0 -1.1637229828850588
v 0.10328356771265342 3 -1.1484348143437222
v 0.10328356771265339 0 -1.1484348143437222
v -0.11488050519702557 3 -1.3586070493104958
v -0.11488050519702554 0 -1.3586070493104958
v -0.12777515147568258 3 -1.3433188807691592
v -0.12777515147568258 0 -1.3433188807691592
v -0.18030423495156772 3 -1.3372817532681993
v -0.18030423495156772 0 -1.3372817532681993
v -0.19633098147424949 3 -1.3492460081926694
v -0.19633098147424949 0 -1.3492460081926694
v -0.21205572972471742 3 1.3326156506121551
v -0.21205572972471734 0 1.3326156506121551
v -0.22836247081910083 3 1.3441953826850808
v -0.22836247081910085 0 1.3441953826850808
v -0.36112677176598085 3 -1.0950604882242965
v -0.36112677176598085 0 -1.0950604882242965
v -0.37715351828866261 3 -1.1070247431487665
v -0.37715351828866261 0 -1.1070247431487665
v -0.38706675567461729 3 1.0861626695885291
v -0.38706675567461729 0 1.0861626695885291
v -0.40337349676900069 3 1.0977424016614548
v -0.40337349676900081 0 1.0977424016614548
v -0.43595364970013567 3 -1.085215634615647
v -0.43595364970013561 0 -1.085215634615647
v -0.44030224791945738 3 -1.065694115885617
v -0.44030224791945738 0 -1.065694115885617
v -0.46163834637212559 3 1.074541109246137
v -0.46163834637212559 0 1.074541109246137
v -0.46552146486661078 3 1.0549216956270253
v -0.46552146486661078 0 1.0549216956270253
v -0.73099337942157838 3 -1.1509384536769618
v -0.73099337942157849 0 -1.1509384536769618
v -0.73534197764090015 3 -1.1314169349469319
v -0.73534197764090015 0 -1.1314169349469319
v -0.75815761680017113 3 1.133228870528094
v -0.75815761680017113 0 1.133228870528094
v -0.76204073529465632 3 1.1136094569089821
v -0.76204073529465632 0 1.1136094569089821
v -0.77910294593151763 3 -1.1017398533258065
v -0.77910294593151763 0 -1.1017398533258065
v -0.79884820333564122 3 -1.1049218039924422
v -0.79884820333564122 0 -1.1049218039924422
v -0.80508356338634801 3 1.0829000695958424
v -0.80508356338634801 0 1.0829000695958424
v -0.82489890784128383 3 1.0856115496588794
v -0.82489890784128383 0 1.0856115496588794
v -0.82719356212046147 3 -0.80331863475374166
v -0.82719356212046147 0 -0.80331863475374166
v -0.84606369182854912 3 0.78341958587056004
v -0.84606369182854912 0 0.78341958587056004
v -0.84693881952458505 3 -0.80650058542037728
v -0.84693881952458505 0 -0.80650058542037728
v -0.86587903628348495 3 0.78613106593359683
v -0.86587903628348495 0 0.78613106593359683
v -0.88376752487481247 3 -0.74062472287441306
v -0.88376752487481258 0 -0.74062472287441306
v -0.88895380454311923 3 -0.75994058431526301
v -0.88895380454311923 0 -0.75994058431526301
v -0.90113070280621377 3 0.71939799458723286
v -0.90113070280621377 0 0.71939799458723286
v -0.90677487473284446 3 0.73858505593759693
v -0.90677487473284446 0 0.73858505593759693
v -1.105164412877117 3 -0.32890977283463368
v -1.105164412877117 0 -0.32890977283463368
v -1.1126738005679315 3 0.30253434794394568
v -1.1126738005679315 0 0.30253434794394568
v -1.1241382976407304 3 -0.32258587395995797
v -1.1241382976407304 0 -0.32258587395995797
v -1.1262724817918404 3 -0.24714432001282752
v -1.1262724817918404 0 -0.24714432001282755
v -1.1314919277334725 3 0.29576101124911575
v -1.1314919277334725 0 0.29576101124911575
v -1.1318313993757867 3 0.22029003959144661
v -1.1318313993757867 0 0.22029003959144661
v -1.1398143287342757 3 -0.26186228119594157
v -1.1398143287342757 0 -0.26186228119594168
v -1.145719430770481 3 0.23468179361866634
v -1.145719430770481 0 0.23468179361866634
v -1.1756990399202309 3 -0.66224155132110718
v -1.1756990399202309 0 -0.66224155132110718
v -1.1808853195885376 3 -0.68155741276195714
v -1.1808853195885378 0 -0.68155741276195714
v -1.1911155893945664 3 0.63409443891803141
v -1.1911155893945664 0 0.63409443891803141
v -1.1967597613211973 3 0.65328150026839549
v -1.1967597613211973 0 0.65328150026839549
v -1.2007410655224822 3 -0.61567280135919022
v -1.2007410655224822 0 -0.61567280135919022
v -1.2150430606337894 3 0.58694332398555593
v -1.2150430606337894 0 0.58694332398555593
v -1.2197149502860953 3 -0.60934890248451445
v -1.2197149502860953 0 -0.60934890248451445
v -1.2338611877993304 3 0.580169987290726
v -1.2338611877993304 0 0.580169987290726
v -1.3487133353734193 3 -0.042478744701866238
v -1.3487133353734193 0 -0.042478744701866161
v -1.3493421001122285 3 0.010392383281018713
v -1.3493421001122285 0 0.010392383281018713
v -1.3622551823158546 3 -0.057196705884980291
v -1.3622551823158546 0 -0.057196705884980277
v -1.3632301315069224 3 0.024784137308238363
v -1.3632301315069224 0 0.024784137308238363
vn 0.97781270742416382 0 -0.20948098599910736
vn 0.97781270742416382 0 -0.20948098599910736
vn 0.97781270742416382 0 0.20948098599910736
vn 0.97781270742416382 0 0.20948098599910736
vn -0.20948098599910736 0 -0.97781270742416382
vn -0.20948098599910736 0 -0.97781270742416382
vn -0.20948098599910736 0 0.97781270742416382
vn -0.20948098599910736 0 0.97781270742416382
vn 0.96365123987197876 0 -0.26716345548629761
vn 0.96365123987197876 0 -0.26716345548629761
vn 0.26716345548629761 0 0.96365123987197876
vn 0.26716345548629761 0 0.96365123987197876
vn 0.20948098599910736 0 0.97781270742416382
vn 0.20948098599910736 0 0.97781270742416382
vn 0.20948098599910736 0 -0.97781270742416382
vn 0.20948098599910736 0 -0.97781270742416382
vn -0.97781270742416382 0 0.20948098599910736
vn -0.97781270742416382 0 0.20948098599910736
vn -0.97781270742416382 0 -0.20948098599910736
vn -0.97781270742416382 0 -0.20948098599910736
vn -0.26716345548629761 0 -0.96365123987197876
vn -0.26716345548629761 0 -0.96365123987197876
vn 0.76962894201278687 0 -0.63849145174026489
vn 0.76962894201278687 0 -0.63849145174026489
vn -0.96365123987197876 0 0.26716345548629761
vn -0.96365123987197876 0 0.26716345548629761
vn -0.63849145174026489 0 -0.76962894201278687
vn -0.63849145174026489 0 -0.76962894201278687
vn 0.63849145174026489 0 0.76962894201278687
vn 0.63849145174026489 0 0.76962894201278687
vn -0.76962894201278687 0 0.63849145174026489
vn -0.76962894201278687 0 0.63849145174026489
vn 0.73036462068557739 0 -0.68305748701095581
vn 0.73036462068557739 0 -0.68305748701095581
vn 0.68305748701095581 0 0.73036462068557739
vn 0.68305748701095581 0 0.73036462068557739
vn -0.68305748701095581 0 -0.73036462068557739
vn -0.68305748701095581 0 -0.73036462068557739
vn -0.73036462068557739 0 0.68305748701095581
vn -0.73036462068557739 0 0.68305748701095581
vn 0.92231506109237671 0 0.38643878698348999
vn 0.92231506109237671 0 0.38643878698348999
vn -0.38643878698348999 0 0.92231506109237671
vn -0.38643878698348999 0 0.92231506109237671
vn 0.38643878698348999 0 -0.92231506109237671
vn 0.38643878698348999 0 -0.92231506109237671
vn -0.92231506109237671 0 -0.38643878698348999
vn -0.92231506109237671 0 -0.38643878698348999
vn 0.94363075494766235 0 0.33100008964538574
vn 0.94363075494766235 0 0.33100008964538574
vn 0.33100008964538574 0 -0.94363075494766235
vn 0.33100008964538574 0 -0.94363075494766235
vn -0.33100008964538574 0 0.94363075494766235
vn -0.33100008964538574 0 0.94363075494766235
vn -0.94363075494766235 0 -0.33100008964538574
vn -0.94363075494766235 0 -0.33100008964538574
vn 0.99641299247741699 0 -0.0846237912774086
vn 0.99641299247741699 0 -0.0846237912774086
vn 0.0846237912774086 0 0.99641299247741699
vn 0.0846237912774086 0 0.99641299247741699
vn -0.0846237912774086 0 -0.99641299247741699
vn -0.0846237912774086 0 -0.99641299247741699
vn -0.99641299247741699 0 0.0846237912774086
vn -0.99641299247741699 0 0.0846237912774086
vn 0.98963135480880737 0 -0.14363078773021698
vn 0.98963135480880737 0 -0.14363078773021698
vn -0.14363078773021698 0 -0.98963135480880737
vn -0.14363078773021698 0 -0.98963135480880737
vn 0.98593568801879883 0 0.16712503135204315
vn 0.98593568801879883 0 0.16712503135204315
vn -0.16712503135204315 0 0.98593568801879883
vn -0.16712503135204315 0 0.98593568801879883
vn 0.14363078773021698 0 0.98963135480880737
vn 0.14363078773021698 0 0.98963135480880737
vn -0.98963135480880737 0 0.14363078773021698
vn -0.98963135480880737 0 0.14363078773021698
vn 0.16712503135204315 0 -0.98593568801879883
vn 0.16712503135204315 0 -0.98593568801879883
vn -0.98593568801879883 0 -0.16712503135204315
vn -0.98593568801879883 0 -0.16712503135204315
vn 0.84393608570098877 0 -0.53644371032714844
vn 0.84393608570098877 0 -0.53644371032714844
vn 0.53644371032714844 0 0.84393608570098877
vn 0.53644371032714844 0 0.84393608570098877
vn 0.83093994855880737 0 0.5563620924949646
vn 0.83093994855880737 0 0.5563620924949646
vn 0.5563620924949646 0 -0.83093994855880737
vn 0.5563620924949646 0 -0.83093994855880737
vn -0.53644371032714844 0 -0.84393608570098877
vn -0.53644371032714844 0 -0.84393608570098877
vn -0.84393608570098877 0 0.53644371032714844
vn -0.84393608570098877 0 0.53644371032714844
vn -0.5563620924949646 0 0.83093994855880737
vn -0.5563620924949646 0 0.83093994855880737
vn -0.83093994855880737 0 -0.5563620924949646
vn -0.83093994855880737 0 -0.5563620924949646
vn 0.81059920787811279 0 -0.5856013298034668
vn 0.81059920787811279 0 -0.5856013298034668
vn -0.5856013298034668 0 -0.81059920787811279
vn -0.5856013298034668 0 -0.81059920787811279
vn 0.79644352197647095 0 0.60471296310424805
vn 0.79644352197647095 0 0.60471296310424805
vn -0.60471296310424805 0 0.79644352197647095
vn -0.60471296310424805 0 0.79644352197647095
vn 0.5856013298034668 0 0.81059920787811279
vn 0.5856013298034668 0 0.81059920787811279
vn 0.60471296310424805 0 -0.79644352197647095
vn 0.60471296310424805 0 -0.79644352197647095
vn -0.81059920787811279 0 0.5856013298034668
vn -0.81059920787811279 0 0.5856013298034668
vn -0.79644352197647095 0 -0.60471296310424805
vn -0.79644352197647095 0 -0.60471296310424805
vn 0.86628150939941406 0 0.49955615401268005
vn 0.86628150939941406 0 0.49955615401268005
vn 0.49955615401268005 0 -0.86628150939941406
vn 0.49955615401268005 0 -0.86628150939941406
vn 0.87791663408279419 0 -0.47881346940994263
vn 0.87791663408279419 0 -0.47881346940994263
vn 0.47881346940994263 0 0.87791663408279419
vn 0.47881346940994263 0 0.87791663408279419
vn 0.89441174268722534 0 0.44724452495574951
vn 0.89441174268722534 0 0.44724452495574951
vn 0.90479487180709839 0 -0.4258476197719574
vn 0.90479487180709839 0 -0.4258476197719574
vn -0.44724452495574951 0 0.89441174268722534
vn -0.44724452495574951 0 0.89441174268722534
vn 0.99913507699966431 0 0.041581910103559494
vn 0.99913507699966431 0 0.041581910103559494
vn -0.4258476197719574 0 -0.90479487180709839
vn -0.4258476197719574 0 -0.90479487180709839
vn 0.99984139204025269 0 -0.017809277400374413
vn 0.99984139204025269 0 -0.017809277400374413
vn 0.041581910103559494 0 -0.99913507699966431
vn 0.041581910103559494 0 -0.99913507699966431
vn 0.017809277400374413 0 0.99984139204025269
vn 0.017809277400374413 0 0.99984139204025269
vn -0.49955615401268005 0 0.86628150939941406
vn -0.49955615401268005 0 0.86628150939941406
vn -0.86628150939941406 0 -0.49955615401268005
vn -0.86628150939941406 0 -0.49955615401268005
vn -0.47881346940994263 0 -0.87791663408279419
vn -0.47881346940994263 0 -0.87791663408279419
vn -0.87791663408279419 0 0.47881346940994263
vn -0.87791663408279419 0 0.47881346940994263
vn 0.44724452495574951 0 -0.89441174268722534
vn 0.44724452495574951 0 -0.89441174268722534
vn 0.4258476197719574 0 0.90479487180709839
vn 0.4258476197719574 0 0.90479487180709839
vn -0.89441174268722534 0 -0.44724452495574951
vn -0.89441174268722534 0 -0.44724452495574951
vn -0.90479487180709839 0 0.4258476197719574
vn -0.90479487180709839 0 0.4258476197719574
vn -0.041581910103559494 0 0.99913507699966431
vn -0.041581910103559494 0 0.99913507699966431
vn -0.017809277400374413 0 -0.99984139204025269
vn -0.017809277400374413 0 -0.99984139204025269
vn -0.99913507699966431 0 -0.041581910103559494
vn -0.99913507699966431 0 -0.041581910103559494
vn -0.99984139204025269 0 0.017809277400374413
vn -0.99984139204025269 0 0.017809277400374413
f 6//6 18//18 17//17 5//5
f 18//18 14//14 13//13 17//17
f 14//14 2//2 1//1 13//13
f 2//2 6//6 5//5 1//1
f 28//28 32//32 31//31 27//27
f 32//32 30//30 29//29 31//31
f 30//30 24//24 23//23 29//29
f 24//24 28//28 27//27 23//23
f 48//48 44//44 43//43 47//47
f 44//44 42//42 41//41 43//43
f 42//42 46//46 45//45 41//41
f 46//46 48//48 47//47 45//45
f 64//64 60//60 59//59 63//63
f 60//60 58//58 57//57 59//59
f 58//58 62//62 61//61 57//57
f 62//62 64//64 63//63 61//61
f 92//92 84//84 83//83 91//91
f 84//84 82//82 81//81 83//83
f 82//82 90//90 89//89 81//81
f 90//90 92//92 91//91 89//89
f 138//138 114//114 113//113 137//137
f 114//114 116//116 115//115 113//113
f 116//116 140//140 139//139 115//115
f 140//140 138//138 137//137 139//139
f 154//154 128//128 127//127 153//153
f 128//128 134//134 133//133 127//127
f 134//134 158//158 157//157 133//133
f 158//158 154//154 153//153 157//157
f 148//148 124//124 123//123 147//147
f 124//124 130//130 129//129 123//123
f 130//130 152//152 151//151 129//129
f 152//152 148//148 147//147 151//151
f 102//102 108//108 107//107 101//101
f 108//108 112//112 111//111 107//107
f 112//112 104//104 103//103 111//111
f 104//104 102//102 101//101 103//103
f 70//70 78//78 77//77 69//69
f 78//78 80//80 79//79 77//77
f 80//80 72//72 71//71 79//79
f 72//72 70//70 69//69 71//71
f 8//8 4//4 3//3 7//7
f 4//4 16//16 15//15 3//3
f 16//16 20//20 19//19 15//15
f 20//20 8//8 7//7 19//19
f 12//12 10//10 9//9 11//11
f 10//10 22//22 21//21 9//9
f 22//22 26//26 25//25 21//21
f 26//26 12//12 11//11 25//25
f 36//36 34//34 33//33 35//35
f 34//34 38//38 37//37 33//33
f 38//38 40//40 39//39 37//37
f 40//40 36//36 35//35 39//39
f 50//50 52//52 51//51 49//49
f 52//52 56//56 55//55 51//51
f 56//56 54//54 53//53 55//55
f 54//54 50//50 49//49 53//53
f 66//66 68//68 67//67 65//65
f 68//68 76//76 75//75 67//67
f 76//76 74//74 73//73 75//75
f 74//74 66//66 65//65 73//73
f 98//98 100//100 99//99 97//97
f 100//100 110//110 109//109 99//99
f 110//110 106//106 105//105 109//109
f 106//106 98//98 97//97 105//105
f 146//146 150//150 149//149 145//145
f 150//150 126//126 125//125 149//149
f 126//126 122//122 121//121 125//125
f 122//122 146//146 145//145 121//121
f 156//156 160//160 159//159 155//155
f 160//160 136//136 135//135 159//159
f 136//136 132//132 131//131 135//135
f 132//132 156//156 155//155 131//131
f 142//142 144//144 143//143 141//141
f 144//144 120//120 119//119 143//143
f 120//120 118//118 117//117 119//119
f 118//118 142//142 141//141 117//117
f 96//96 94//94 93//93 95//95
f 94//94 86//86 85//85 93//93
f 86//86 88//88 87//87 85//85
f 88//88 96//96 95//95 87//87
