# Rhino

mtllib Pannelli124.mtl
usemtl diffuse_Black
v 1.3280601853660317 3 -0.28821098389102384
v 1.3280601853660317 0 -0.28821098389102384
v 1.3280601853660312 3 0.28821098389102567
v 1.3280601853660312 0 0.28821098389102567
v 1.311067052345936 3 -0.29875770993095396
v 1.311067052345936 0 -0.29875770993095396
v 1.3110670523459353 3 0.29875770993095579
v 1.3110670523459353 0 0.29875770993095579
v 1.3081995459968694 3 -0.36799915087330687
v 1.3081995459968694 0 -0.36799915087330687
v 1.2981335124530016 3 -0.35071693548598631
v 1.2981335124530016 0 -0.35071693548598631
v 1.1688693795064997 3 -0.031719013842167486
v 1.1688693795064997 0 -0.031719013842167507
v 1.1688693795064997 3 0.031719013842169103
v 1.1688693795064997 0 0.031719013842169103
v 1.1518762464864041 3 -0.042265739882097593
v 1.1518762464864041 0 -0.042265739882097621
v 1.1518762464864039 3 0.042265739882099237
v 1.1518762464864039 0 0.042265739882099237
v 1.0473442071808654 3 -0.51993445151452844
v 1.0473442071808654 0 -0.51993445151452844
v 1.0379797193902531 3 -0.87715878227628874
v 1.0379797193902531 0 -0.87715878227628874
v 1.0372781736369976 3 -0.50265223612720789
v 1.0372781736369976 0 -0.50265223612720789
v 1.0180253240521833 3 -0.87850863659880796
v 1.0180253240521833 0 -0.87850863659880796
v 1.0176052072827757 3 -0.57596993350174852
v 1.0176052072827757 0 -0.57596993350174852
v 0.99765081194470573 3 -0.57731978782426774
v 0.99765081194470584 0 -0.57731978782426774
v 0.98303285365973303 3 -0.93832608181564048
v 0.98303285365973303 0 -0.93832608181564048
v 0.98224311851952406 3 -0.91834167993796778
v 0.98224311851952406 0 -0.91834167993796778
v 0.68139109037861101 3 -0.95024623342567205
v 0.68139109037861101 0 -0.95024623342567205
v 0.68060135523840204 3 -0.93026183154799935
v 0.68060135523840204 0 -0.93026183154799935
v 0.62885354298197871 3 -0.98580167562549936
v 0.62885354298197871 0 -0.98580167562549936
v 0.61059481835933249 3 -0.97763963083547434
v 0.61059481835933249 0 -0.97763963083547434
v 0.50565678195240127 3 -1.2613963080869677
v 0.50565678195240127 0 -1.2613963080869677
v 0.48739805732975511 3 -1.2532342632969427
v 0.48739805732975505 0 -1.2532342632969427
v 0.43711799469502438 3 -1.271644936176781
v 0.43711799469502438 0 -1.271644936176781
v 0.42844712398452994 3 -1.289667588620911
v 0.42844712398452994 0 -1.289667588620911
v 0.16508660263600727 3 -1.1407680279607635
v 0.16508660263600727 0 -1.1407680279607635
v 0.15641573192551284 3 -1.1587906804048933
v 0.15641573192551284 0 -1.1587906804048933
v 0.093340787309258835 3 -1.1655681960363868
v 0.093340787309258821 0 -1.1655681960363868
v 0.081038932822130302 3 -1.149799100432088
v 0.081038932822130275 0 -1.149799100432088
v -0.13032985109387429 3 1.3383449162693817
v -0.13032985109387424 0 1.3383449162693817
v -0.14467573340250717 3 -1.3512506648858076
v -0.14467573340250714 0 -1.3512506648858076
v -0.14570103091871509 3 1.3511404948335737
v -0.14570103091871503 0 1.3511404948335737
v -0.15697758788963573 3 -1.3354815692815087
v -0.1569775878896357 0 -1.3354815692815087
v -0.21002120645429145 3 -1.3281732107785236
v -0.21002120645429145 0 -1.3281732107785236
v -0.22612908552952671 3 -1.3400280086130549
v -0.22612908552952671 0 -1.3400280086130549
v -0.32346452202026305 3 1.1063344806077373
v -0.3234645220202631 0 1.1063344806077373
v -0.33883570184510386 3 1.1191300591719293
v -0.33883570184510386 0 1.1191300591719293
v -0.38895586479622624 3 -1.0850431398004448
v -0.38895586479622624 0 -1.0850431398004448
v -0.39903087130507398 3 1.099106949269516
v -0.39903087130507398 0 1.099106949269516
v -0.40367487746238584 3 1.0796535894874408
v -0.40367487746238584 0 1.0796535894874408
v -0.40506374387146143 3 -1.0968979376349763
v -0.40506374387146143 0 -1.0968979376349763
v -0.46395573020737552 3 -1.0733157981669565
v -0.46395573020737546 0 -1.0733157981669565
v -0.4674297224009899 3 -1.0536198245114423
v -0.4674297224009899 0 -1.0536198245114423
v -0.69265715956357266 3 1.1692029278509413
v -0.69265715956357266 0 1.1692029278509413
v -0.69730116572088452 3 1.1497495680688661
v -0.69730116572088452 0 1.1497495680688661
v -0.74252206557081568 3 1.1210771459318483
v -0.74252206557081568 0 1.1210771459318483
v -0.76124399829537437 3 -1.1257517498317124
v -0.76124399829537437 0 -1.1257517498317124
v -0.76209800803222227 3 1.1251737880626302
v -0.76209800803222227 0 1.1251737880626302
v -0.76471799048898881 3 -1.1060557761761982
v -0.76471799048898881 0 -1.1060557761761982
v -0.80435620818988729 3 0.82560061187827094
v -0.80435620818988729 0 0.82560061187827094
v -0.80814590841780376 3 -1.0747340022990857
v -0.80814590841780376 0 -1.0747340022990857
v -0.82393215065129388 3 0.82969725400905303
v -0.82393215065129388 0 0.82969725400905314
v -0.82793155821150921 3 -1.077654286915499
v -0.82793155821150921 0 -1.077654286915499
v -0.85222427545473478 3 -0.77609217513968043
v -0.85222427545473478 0 -0.77609217513968043
v -0.86269917760997838 3 0.76443142853918211
v -0.86269917760997838 0 0.76443142853918211
v -0.8677165836173637 3 0.78379184271236202
v -0.8677165836173637 0 0.78379184271236202
v -0.87200992524844012 3 -0.77901245975609346
v -0.87200992524844012 0 -0.77901245975609346
v -0.90681018536563018 3 -0.71154800801108276
v -0.90681018536563018 0 -0.71154800801108276
v -0.91297481162877703 3 -0.73057423682910461
v -0.91297481162877703 0 -0.73057423682910461
v -1.0975281998723767 3 0.35218905501490089
v -1.0975281998723767 0 0.35218905501490094
v -1.1166015990625224 3 -0.28601774238394023
v -1.1166015990625224 0 -0.28601774238394023
v -1.1167402948188558 3 0.34663069124779528
v -1.1167402948188558 0 0.34663069124779533
v -1.1203877705095502 3 0.27080717065843707
v -1.1203877705095502 0 0.27080717065843707
v -1.1338956324395664 3 0.28555632880660353
v -1.1338956324395664 0 0.28555632880660353
v -1.1345603665951018 3 -0.20341596431690623
v -1.1345603665951018 0 -0.2034159643169062
v -1.1354474681755955 3 -0.27932198123430807
v -1.1354474681755955 0 -0.27932198123430807
v -1.1489249181751267 3 -0.21733212966174209
v -1.1489249181751267 0 -0.21733212966174206
v -1.154922557864124 3 0.68869940491250459
v -1.154922557864124 0 0.68869940491250459
v -1.1599399638715091 3 0.70805981908568449
v -1.1599399638715091 0 0.70805981908568449
v -1.1814253641673387 3 0.64217372563218511
v -1.1814253641673387 0 0.64217372563218511
v -1.1939894186690887 3 -0.61850000250323478
v -1.1939894186690887 0 -0.61850000250323478
v -1.2001540449322354 3 -0.63752623132125663
v -1.2001540449322354 0 -0.63752623132125663
v -1.2006374591138178 3 0.6366153618650795
v -1.2006374591138178 0 0.6366153618650795
v -1.2176664801656587 3 -0.57047465155887922
v -1.2176664801656587 0 -0.57047465155887922
v -1.2365123492787318 3 -0.56377889040924711
v -1.2365123492787318 0 -0.56377889040924711
v -1.3430094980927805 3 0.066921394358057329
v -1.3430094980927805 0 0.066921394358057329
v -1.3446090174590428 3 0.01340056558796256
v -1.3446090174590428 0 0.013400565587962526
v -1.3565173600227971 3 0.081670552506223737
v -1.3565173600227971 0 0.081670552506223737
v -1.3589735690390676 3 -0.00051559975687329781
v -1.3589735690390676 0 -0.00051559975687333424
vn 0.97368103265762329 0 -0.22791489958763123
vn 0.97368103265762329 0 -0.22791489958763123
vn 0.97368103265762329 0 0.22791489958763123
vn 0.97368103265762329 0 0.22791489958763123
vn -0.22791489958763123 0 -0.97368103265762329
vn -0.22791489958763123 0 -0.97368103265762329
vn -0.22791489958763123 0 0.97368103265762329
vn -0.22791489958763123 0 0.97368103265762329
vn 0.96690660715103149 0 -0.25513055920600891
vn 0.96690660715103149 0 -0.25513055920600891
vn 0.25513055920600891 0 0.96690660715103149
vn 0.25513055920600891 0 0.96690660715103149
vn 0.22791489958763123 0 0.97368103265762329
vn 0.22791489958763123 0 0.97368103265762329
vn 0.22791489958763123 0 -0.97368103265762329
vn 0.22791489958763123 0 -0.97368103265762329
vn -0.97368103265762329 0 0.22791489958763123
vn -0.97368103265762329 0 0.22791489958763123
vn -0.97368103265762329 0 -0.22791489958763123
vn -0.97368103265762329 0 -0.22791489958763123
vn -0.25513055920600891 0 -0.96690660715103149
vn -0.25513055920600891 0 -0.96690660715103149
vn 0.75321894884109497 0 -0.65776985883712769
vn 0.75321894884109497 0 -0.65776985883712769
vn -0.96690660715103149 0 0.25513055920600891
vn -0.96690660715103149 0 0.25513055920600891
vn -0.65776985883712769 0 -0.75321894884109497
vn -0.65776985883712769 0 -0.75321894884109497
vn 0.65776985883712769 0 0.75321894884109497
vn 0.65776985883712769 0 0.75321894884109497
vn -0.75321894884109497 0 0.65776985883712769
vn -0.75321894884109497 0 0.65776985883712769
vn 0.73447662591934204 0 -0.67863398790359497
vn 0.73447662591934204 0 -0.67863398790359497
vn 0.67863398790359497 0 0.73447662591934204
vn 0.67863398790359497 0 0.73447662591934204
vn -0.67863398790359497 0 -0.73447662591934204
vn -0.67863398790359497 0 -0.73447662591934204
vn -0.73447662591934204 0 0.67863398790359497
vn -0.73447662591934204 0 0.67863398790359497
vn 0.93411529064178467 0 0.35697150230407715
vn 0.93411529064178467 0 0.35697150230407715
vn -0.35697150230407715 0 0.93411529064178467
vn -0.35697150230407715 0 0.93411529064178467
vn 0.35697150230407715 0 -0.93411529064178467
vn 0.35697150230407715 0 -0.93411529064178467
vn -0.93411529064178467 0 -0.35697150230407715
vn -0.93411529064178467 0 -0.35697150230407715
vn 0.94375854730606079 0 0.3306354284286499
vn 0.94375854730606079 0 0.3306354284286499
vn 0.3306354284286499 0 -0.94375854730606079
vn 0.3306354284286499 0 -0.94375854730606079
vn -0.3306354284286499 0 0.94375854730606079
vn -0.3306354284286499 0 0.94375854730606079
vn -0.94375854730606079 0 -0.3306354284286499
vn -0.94375854730606079 0 -0.3306354284286499
vn 0.99245798587799072 0 -0.12258549779653549
vn 0.99245798587799072 0 -0.12258549779653549
vn 0.12258549779653549 0 0.99245798587799072
vn 0.12258549779653549 0 0.99245798587799072
vn 0.99584531784057617 0 0.091061264276504517
vn 0.99584531784057617 0 0.091061264276504517
vn -0.12258549779653549 0 -0.99245798587799072
vn -0.12258549779653549 0 -0.99245798587799072
vn -0.091061264276504517 0 0.99584531784057617
vn -0.091061264276504517 0 0.99584531784057617
vn -0.99245798587799072 0 0.12258549779653549
vn -0.99245798587799072 0 0.12258549779653549
vn 0.98862993717193604 0 -0.15036913752555847
vn 0.98862993717193604 0 -0.15036913752555847
vn -0.15036913752555847 0 -0.98862993717193604
vn -0.15036913752555847 0 -0.98862993717193604
vn 0.091061264276504517 0 -0.99584531784057617
vn 0.091061264276504517 0 -0.99584531784057617
vn -0.99584531784057617 0 -0.091061264276504517
vn -0.99584531784057617 0 -0.091061264276504517
vn 0.15036913752555847 0 0.98862993717193604
vn 0.15036913752555847 0 0.98862993717193604
vn 0.85197055339813232 0 0.52358973026275635
vn 0.85197055339813232 0 0.52358973026275635
vn 0.52358973026275635 0 -0.85197055339813232
vn 0.52358973026275635 0 -0.85197055339813232
vn -0.98862993717193604 0 0.15036913752555847
vn -0.98862993717193604 0 0.15036913752555847
vn 0.81918197870254517 0 -0.57353365421295166
vn 0.81918197870254517 0 -0.57353365421295166
vn 0.57353365421295166 0 0.81918197870254517
vn 0.57353365421295166 0 0.81918197870254517
vn -0.52358973026275635 0 0.85197055339813232
vn -0.52358973026275635 0 0.85197055339813232
vn -0.85197055339813232 0 -0.52358973026275635
vn -0.85197055339813232 0 -0.52358973026275635
vn 0.83695226907730103 0 0.54727590084075928
vn 0.83695226907730103 0 0.54727590084075928
vn -0.57353365421295166 0 -0.81918197870254517
vn -0.57353365421295166 0 -0.81918197870254517
vn -0.54727590084075928 0 0.83695226907730103
vn -0.54727590084075928 0 0.83695226907730103
vn -0.81918197870254517 0 0.57353365421295166
vn -0.81918197870254517 0 0.57353365421295166
vn 0.54727590084075928 0 -0.83695226907730103
vn 0.54727590084075928 0 -0.83695226907730103
vn 0.80277597904205322 0 -0.59628069400787354
vn 0.80277597904205322 0 -0.59628069400787354
vn -0.83695226907730103 0 -0.54727590084075928
vn -0.83695226907730103 0 -0.54727590084075928
vn -0.59628069400787354 0 -0.80277597904205322
vn -0.59628069400787354 0 -0.80277597904205322
vn 0.59628069400787354 0 0.80277597904205322
vn 0.59628069400787354 0 0.80277597904205322
vn 0.86188608407974243 0 -0.50710195302963257
vn 0.86188608407974243 0 -0.50710195302963257
vn 0.50710195302963257 0 0.86188608407974243
vn 0.50710195302963257 0 0.86188608407974243
vn -0.80277597904205322 0 0.59628069400787354
vn -0.80277597904205322 0 0.59628069400787354
vn 0.89063125848770142 0 0.45472627878189087
vn 0.89063125848770142 0 0.45472627878189087
vn 0.45472627878189087 0 -0.89063125848770142
vn 0.45472627878189087 0 -0.89063125848770142
vn 0.87576794624328613 0 -0.48273232579231262
vn 0.87576794624328613 0 -0.48273232579231262
vn 0.90303295850753784 0 0.42957121133804321
vn 0.90303295850753784 0 0.42957121133804321
vn -0.48273232579231262 0 -0.87576794624328613
vn -0.48273232579231262 0 -0.87576794624328613
vn 0.99903655052185059 0 -0.0438864566385746
vn 0.99903655052185059 0 -0.0438864566385746
vn 0.0438864566385746 0 0.99903655052185059
vn 0.0438864566385746 0 0.99903655052185059
vn 0.99987435340881348 0 -0.015852821990847588
vn 0.99987435340881348 0 -0.015852821990847588
vn -0.42957121133804321 0 0.90303295850753784
vn -0.42957121133804321 0 0.90303295850753784
vn -0.015852821990847588 0 -0.99987435340881348
vn -0.015852821990847588 0 -0.99987435340881348
vn -0.50710195302963257 0 -0.86188608407974243
vn -0.50710195302963257 0 -0.86188608407974243
vn -0.86188608407974243 0 0.50710195302963257
vn -0.86188608407974243 0 0.50710195302963257
vn 0.48273232579231262 0 0.87576794624328613
vn 0.48273232579231262 0 0.87576794624328613
vn -0.45472627878189087 0 0.89063125848770142
vn -0.45472627878189087 0 0.89063125848770142
vn -0.89063125848770142 0 -0.45472627878189087
vn -0.89063125848770142 0 -0.45472627878189087
vn -0.87576794624328613 0 0.48273232579231262
vn -0.87576794624328613 0 0.48273232579231262
vn 0.42957121133804321 0 -0.90303295850753784
vn 0.42957121133804321 0 -0.90303295850753784
vn -0.90303295850753784 0 -0.42957121133804321
vn -0.90303295850753784 0 -0.42957121133804321
vn -0.0438864566385746 0 -0.99903655052185059
vn -0.0438864566385746 0 -0.99903655052185059
vn 0.015852821990847588 0 0.99987435340881348
vn 0.015852821990847588 0 0.99987435340881348
vn -0.99903655052185059 0 0.0438864566385746
vn -0.99903655052185059 0 0.0438864566385746
vn -0.99987435340881348 0 0.015852821990847588
vn -0.99987435340881348 0 0.015852821990847588
f 6//6 18//18 17//17 5//5
f 18//18 14//14 13//13 17//17
f 14//14 2//2 1//1 13//13
f 2//2 6//6 5//5 1//1
f 28//28 32//32 31//31 27//27
f 32//32 30//30 29//29 31//31
f 30//30 24//24 23//23 29//29
f 24//24 28//28 27//27 23//23
f 48//48 44//44 43//43 47//47
f 44//44 42//42 41//41 43//43
f 42//42 46//46 45//45 41//41
f 46//46 48//48 47//47 45//45
f 68//68 60//60 59//59 67//67
f 60//60 58//58 57//57 59//59
f 58//58 64//64 63//63 57//57
f 64//64 68//68 67//67 63//63
f 100//100 88//88 87//87 99//99
f 88//88 86//86 85//85 87//87
f 86//86 96//96 95//95 85//85
f 96//96 100//100 99//99 95//95
f 144//144 118//118 117//117 143//143
f 118//118 120//120 119//119 117//117
f 120//120 146//146 145//145 119//119
f 146//146 144//144 143//143 145//145
f 156//156 132//132 131//131 155//155
f 132//132 136//136 135//135 131//131
f 136//136 160//160 159//159 135//135
f 160//160 156//156 155//155 159//159
f 142//142 122//122 121//121 141//141
f 122//122 126//126 125//125 121//121
f 126//126 148//148 147//147 125//125
f 148//148 142//142 141//141 147//147
f 94//94 102//102 101//101 93//93
f 102//102 106//106 105//105 101//101
f 106//106 98//98 97//97 105//105
f 98//98 94//94 93//93 97//97
f 62//62 74//74 73//73 61//61
f 74//74 76//76 75//75 73//73
f 76//76 66//66 65//65 75//75
f 66//66 62//62 61//61 65//65
f 8//8 4//4 3//3 7//7
f 4//4 16//16 15//15 3//3
f 16//16 20//20 19//19 15//15
f 20//20 8//8 7//7 19//19
f 12//12 10//10 9//9 11//11
f 10//10 22//22 21//21 9//9
f 22//22 26//26 25//25 21//21
f 26//26 12//12 11//11 25//25
f 36//36 34//34 33//33 35//35
f 34//34 38//38 37//37 33//33
f 38//38 40//40 39//39 37//37
f 40//40 36//36 35//35 39//39
f 50//50 52//52 51//51 49//49
f 52//52 56//56 55//55 51//51
f 56//56 54//54 53//53 55//55
f 54//54 50//50 49//49 53//53
f 70//70 72//72 71//71 69//69
f 72//72 84//84 83//83 71//71
f 84//84 78//78 77//77 83//83
f 78//78 70//70 69//69 77//77
f 104//104 108//108 107//107 103//103
f 108//108 116//116 115//115 107//107
f 116//116 110//110 109//109 115//115
f 110//110 104//104 103//103 109//109
f 150//150 152//152 151//151 149//149
f 152//152 134//134 133//133 151//151
f 134//134 124//124 123//123 133//133
f 124//124 150//150 149//149 123//123
f 154//154 158//158 157//157 153//153
f 158//158 130//130 129//129 157//157
f 130//130 128//128 127//127 129//129
f 128//128 154//154 153//153 127//127
f 138//138 140//140 139//139 137//137
f 140//140 114//114 113//113 139//139
f 114//114 112//112 111//111 113//113
f 112//112 138//138 137//137 111//111
f 92//92 90//90 89//89 91//91
f 90//90 80//80 79//79 89//89
f 80//80 82//82 81//81 79//79
f 82//82 92//92 91//91 81//81
