# Rhino

mtllib Pannelli85.mtl
usemtl diffuse_Black
v 1.4189989090248301 3 -0.21264392507065377
v 1.4189989090248301 0 -0.21264392507065372
v 1.4189989090248314 3 0.21264392507064225
v 1.4189989090248314 0 0.21264392507064225
v 1.4068729808728799 3 -0.22854870002831162
v 1.4068729808728799 0 -0.2285487000283116
v 1.4068729808728815 3 0.22854870002830022
v 1.4068729808728815 0 0.22854870002830022
v 1.4057274489904357 3 -0.2875859555645105
v 1.4057274489904357 0 -0.2875859555645105
v 1.3998008060257905 3 -0.26848425660421854
v 1.3998008060257905 0 -0.26848425660421854
v 1.2596794477146869 3 -0.68701021221546077
v 1.2596794477146869 0 -0.68701021221546077
v 1.2428290946438876 3 -0.69778358686732367
v 1.2428290946438876 0 -0.69778358686732367
v 1.2224727491802831 3 -0.7328618356186748
v 1.2224727491802831 0 -0.7328618356186748
v 1.2214792573761033 3 -0.7528371447285489
v 1.2214792573761033 0 -0.7528371447285489
v 1.1717938260428047 3 -0.024172784610182851
v 1.1717938260428047 0 -0.024172784610182865
v 1.1717938260428047 3 0.024172784610173442
v 1.1717938260428047 0 0.024172784610173442
v 1.1596678978908546 3 -0.040077559567840711
v 1.1596678978908546 0 -0.040077559567840738
v 1.1596678978908548 3 0.040077559567831413
v 1.1596678978908548 0 0.040077559567831413
v 1.10883314591807 3 -0.37970271105337228
v 1.10883314591807 0 -0.37970271105337228
v 1.1029065029534248 3 -0.36060101209308026
v 1.1029065029534248 0 -0.36060101209308026
v 1.0922308052849541 3 -0.42510817712016047
v 1.0922308052849541 0 -0.42510817712016041
v 1.0753804522141548 3 -0.43588155177202337
v 1.0753804522141548 0 -0.43588155177202337
v 0.94714687602290082 3 -1.0778163748631633
v 0.94714687602290082 0 -1.0778163748631633
v 0.92762158372557646 3 -1.0821479981967468
v 0.92762158372557646 0 -1.0821479981967468
v 0.91200007922775994 3 -0.71742016954366905
v 0.91200007922775994 0 -0.71742016954366905
v 0.91100658742357987 3 -0.73739547865354316
v 0.91100658742357987 0 -0.73739547865354316
v 0.89645698245865812 3 -1.1081024190912545
v 0.89645698245865812 0 -1.1081024190912545
v 0.88866419295236321 3 -1.1265217684747311
v 0.88866419295236321 0 -1.1265217684747311
v 0.87982122643174798 3 -0.7743382360364105
v 0.87982122643174798 0 -0.7743382360364105
v 0.86029593413442362 3 -0.77866985936999422
v 0.86029593413442362 0 -0.77866985936999422
v 0.61016831726601473 3 -0.98698048044744369
v 0.61016831726601473 0 -0.98698048044744369
v 0.60237552775971992 3 -1.0053998298309204
v 0.60237552775971992 0 -1.0053998298309204
v 0.56040017975952272 3 -1.0293865808302241
v 0.56040017975952272 0 -1.0293865808302243
v 0.54057478317436436 3 -1.0267496033481074
v 0.54057478317436436 0 -1.0267496033481074
v 0.51941410865673621 3 -1.3375291871250656
v 0.51941410865673621 0 -1.3375291871250659
v 0.49958871207157785 3 -1.334892209642949
v 0.49958871207157785 0 -1.334892209642949
v 0.4614063633743849 3 -1.3485660015113825
v 0.4614063633743849 0 -1.3485660015113825
v 0.44776210263164873 3 -1.3631890705731158
v 0.44776210263164873 0 -1.3631890705731158
v 0.23412260673643256 3 -1.1364956881547967
v 0.23412260673643256 0 -1.1364956881547967
v 0.22047834599369634 3 -1.15111875721653
v 0.22047834599369634 0 -1.15111875721653
v 0.17281841588645966 3 -1.1592320256956066
v 0.17281841588645969 0 -1.1592320256956066
v 0.15510425123148086 3 -1.1499471794084408
v 0.15510425123148083 0 -1.1499471794084408
v 0.028505704577768548 3 -1.4345601303150859
v 0.028505704577768565 0 -1.4345601303150859
v 0.010791539922789733 3 -1.4252752840279201
v 0.010791539922789705 0 -1.4252752840279201
v -0.029764488687194141 3 -1.4250053220279437
v -0.029764488687194141 0 -1.4250053220279437
v -0.047600687654981155 3 -1.4340535266223098
v -0.047600687654981155 0 -1.4340535266223098
v -0.17039912033356694 3 -1.147780459830648
v -0.17039912033356694 0 -1.147780459830648
v -0.18823531930135393 3 -1.1568286644250141
v -0.18823531930135393 0 -1.1568286644250141
v -0.23578301856805914 3 -1.1480816444934476
v -0.23578301856805922 0 -1.1480816444934476
v -0.24923140136388586 3 -1.1332782327185591
v -0.24923140136388591 0 -1.1332782327185591
v -0.46586980986003163 3 -1.3571074618261036
v -0.46586980986003157 0 -1.3571074618261036
v -0.47931819265585829 3 -1.3423040500512151
v -0.47931819265585823 0 -1.3423040500512151
v -0.51731512617834619 3 -1.3281231692963777
v -0.51731512617834619 0 -1.3281231692963777
v -0.53717387057351762 3 -1.3304959885156273
v -0.53717387057351762 0 -1.3304959885156273
v -0.55419543247362868 3 -1.0194622439329839
v -0.55419543247362868 0 -1.0194622439329839
v -0.57405417686880011 3 -1.0218350631522335
v -0.57405417686880011 0 -1.0218350631522335
v -0.61570648283300089 3 -0.99729164303390228
v -0.61570648283300089 0 -0.99729164303390228
v -0.62325337512848933 3 -0.9787701847576139
v -0.62325337512848933 0 -0.9787701847576139
v -0.87058570244746458 3 -0.76714821180366555
v -0.87058570244746458 0 -0.76714821180366555
v -0.89005160000290195 3 -0.76255704284998826
v -0.89005160000290195 0 -0.76255704284998826
v -0.90358220835111003 3 -1.1145916451483218
v -0.90358220835111003 0 -1.1145916451483218
v -0.91112910064659847 3 -1.0960701868720333
v -0.91112910064659847 0 -1.0960701868720333
v -0.92074239892993248 3 -0.72520240559487847
v -0.92074239892993237 0 -0.72520240559487847
v -0.92146988240514438 3 -0.70521564077929877
v -0.92146988240514427 0 -0.70521564077929877
v -0.9419454233614547 3 -1.0697031887412427
v -0.9419454233614547 0 -1.0697031887412427
v -0.96141132091689196 3 -1.0651120197875654
v -0.96141132091689196 0 -1.0651120197875654
v -1.081087808914504 3 -0.42152697849122811
v -1.081087808914504 0 -0.42152697849122811
v -1.097793248793776 3 -0.41053023904537334
v -1.097793248793776 0 -0.41053023904537334
v -1.1076092520715677 3 -0.34588667060898604
v -1.1076092520715677 0 -0.34588667060898604
v -1.1137896602494599 3 -0.36490777874585967
v -1.1137896602494599 0 -0.36490777874585967
v -1.1590316039242607 3 0.055512028284531702
v -1.1590316039242607 0 0.055512028284531709
v -1.1600986648892333 3 -0.024635987938895772
v -1.1600986648892333 0 -0.024635987938895772
v -1.1713681890534884 3 0.039770088526378734
v -1.1713681890534884 0 0.039770088526378727
v -1.1720117869958369 3 -0.0085711965716495121
v -1.1720117869958369 0 -0.0085711965716495121
v -1.2313931228748607 3 -0.73650955161464782
v -1.2313931228748607 0 -0.73650955161464782
v -1.2321206063500725 3 -0.71652278679906811
v -1.2321206063500725 0 -0.71652278679906811
v -1.2520081705342925 3 -0.6811766536737347
v -1.2520081705342925 0 -0.6811766536737347
v -1.2687136104135646 3 -0.67017991422787981
v -1.2687136104135646 0 -0.67017991422787981
v -1.4032509463365936 3 -0.24982568763085122
v -1.4032509463365936 0 -0.24982568763085122
v -1.4037057684171426 3 0.24725737260436331
v -1.4037057684171426 0 0.24725737260436331
v -1.4094313545144859 3 -0.26884679576772486
v -1.4094313545144859 0 -0.26884679576772486
v -1.40979085441103 3 -0.20979952195796683
v -1.40979085441103 0 -0.20979952195796683
v -1.4160423535463702 3 0.23151543284621035
v -1.4160423535463702 0 0.23151543284621035
v -1.4217039765176334 3 -0.19373473059072058
v -1.4217039765176334 0 -0.19373473059072058
vn 0.99103504419326782 0 0.13360239565372467
vn 0.99103504419326782 0 0.13360239565372467
vn 0.99103504419326782 0 -0.13360239565372467
vn 0.99103504419326782 0 -0.13360239565372467
vn 0.13360239565372467 0 -0.99103504419326782
vn 0.13360239565372467 0 -0.99103504419326782
vn 0.13360239565372467 0 0.99103504419326782
vn 0.13360239565372467 0 0.99103504419326782
vn 0.88488548994064331 0 -0.46580860018730164
vn 0.88488548994064331 0 -0.46580860018730164
vn 0.46580860018730164 0 0.88488548994064331
vn 0.46580860018730164 0 0.88488548994064331
vn 0.97664624452590942 0 -0.21485361456871033
vn 0.97664624452590942 0 -0.21485361456871033
vn -0.21485361456871033 0 -0.97664624452590942
vn -0.21485361456871033 0 -0.97664624452590942
vn 0.74135905504226685 0 0.67110860347747803
vn 0.74135905504226685 0 0.67110860347747803
vn 0.67110860347747803 0 -0.74135905504226685
vn 0.67110860347747803 0 -0.74135905504226685
vn -0.13360239565372467 0 0.99103504419326782
vn -0.13360239565372467 0 0.99103504419326782
vn -0.13360239565372467 0 -0.99103504419326782
vn -0.13360239565372467 0 -0.99103504419326782
vn -0.99103504419326782 0 -0.13360239565372467
vn -0.99103504419326782 0 -0.13360239565372467
vn -0.99103504419326782 0 0.13360239565372467
vn -0.99103504419326782 0 0.13360239565372467
vn -0.46580860018730164 0 -0.88488548994064331
vn -0.46580860018730164 0 -0.88488548994064331
vn -0.88488548994064331 0 0.46580860018730164
vn -0.88488548994064331 0 0.46580860018730164
vn 0.21485361456871033 0 0.97664624452590942
vn 0.21485361456871033 0 0.97664624452590942
vn -0.97664624452590942 0 0.21485361456871033
vn -0.97664624452590942 0 0.21485361456871033
vn 0.84346932172775269 0 -0.53717732429504395
vn 0.84346932172775269 0 -0.53717732429504395
vn -0.53717732429504395 0 -0.84346932172775269
vn -0.53717732429504395 0 -0.84346932172775269
vn -0.67110860347747803 0 0.74135905504226685
vn -0.67110860347747803 0 0.74135905504226685
vn -0.74135905504226685 0 -0.67110860347747803
vn -0.74135905504226685 0 -0.67110860347747803
vn 0.92673903703689575 0 0.37570559978485107
vn 0.92673903703689575 0 0.37570559978485107
vn 0.37570559978485107 0 -0.92673903703689575
vn 0.37570559978485107 0 -0.92673903703689575
vn 0.53717732429504395 0 0.84346932172775269
vn 0.53717732429504395 0 0.84346932172775269
vn -0.84346932172775269 0 0.53717732429504395
vn -0.84346932172775269 0 0.53717732429504395
vn -0.37570559978485107 0 0.92673903703689575
vn -0.37570559978485107 0 0.92673903703689575
vn -0.92673903703689575 0 -0.37570559978485107
vn -0.92673903703689575 0 -0.37570559978485107
vn 0.79416483640670776 0 0.60770243406295776
vn 0.79416483640670776 0 0.60770243406295776
vn -0.60770243406295776 0 0.79416483640670776
vn -0.60770243406295776 0 0.79416483640670776
vn 0.60770243406295776 0 -0.79416483640670776
vn 0.60770243406295776 0 -0.79416483640670776
vn -0.79416483640670776 0 -0.60770243406295776
vn -0.79416483640670776 0 -0.60770243406295776
vn 0.9994010329246521 0 0.034606102854013443
vn 0.9994010329246521 0 0.034606102854013443
vn 0.034606102854013443 0 -0.9994010329246521
vn 0.034606102854013443 0 -0.9994010329246521
vn -0.034606102854013443 0 0.9994010329246521
vn -0.034606102854013443 0 0.9994010329246521
vn -0.9994010329246521 0 -0.034606102854013443
vn -0.9994010329246521 0 -0.034606102854013443
vn 0.95455920696258545 0 0.29802140593528748
vn 0.95455920696258545 0 0.29802140593528748
vn -0.29802140593528748 0 0.95455920696258545
vn -0.29802140593528748 0 0.95455920696258545
vn 0.29802140593528748 0 -0.95455920696258545
vn 0.29802140593528748 0 -0.95455920696258545
vn -0.95455920696258545 0 -0.29802140593528748
vn -0.95455920696258545 0 -0.29802140593528748
vn 0.95050722360610962 0 -0.31070253252983093
vn 0.95050722360610962 0 -0.31070253252983093
vn -0.31070253252983093 0 -0.95050722360610962
vn -0.31070253252983093 0 -0.95050722360610962
vn 0.31070253252983093 0 0.95050722360610962
vn 0.31070253252983093 0 0.95050722360610962
vn -0.95050722360610962 0 0.31070253252983093
vn -0.95050722360610962 0 0.31070253252983093
vn 0.99885177612304688 0 -0.047907520085573196
vn 0.99885177612304688 0 -0.047907520085573196
vn 0.047907520085573196 0 0.99885177612304688
vn 0.047907520085573196 0 0.99885177612304688
vn -0.047907520085573196 0 -0.99885177612304688
vn -0.047907520085573196 0 -0.99885177612304688
vn -0.99885177612304688 0 0.047907520085573196
vn -0.99885177612304688 0 0.047907520085573196
vn 0.78600448369979858 0 -0.61822080612182617
vn 0.78600448369979858 0 -0.61822080612182617
vn -0.61822080612182617 0 -0.78600448369979858
vn -0.61822080612182617 0 -0.78600448369979858
vn 0.61822080612182617 0 0.78600448369979858
vn 0.61822080612182617 0 0.78600448369979858
vn -0.78600448369979858 0 0.61822080612182617
vn -0.78600448369979858 0 0.61822080612182617
vn 0.92165535688400269 0 -0.38800951838493347
vn 0.92165535688400269 0 -0.38800951838493347
vn 0.38800951838493347 0 0.92165535688400269
vn 0.38800951838493347 0 0.92165535688400269
vn 0.85054576396942139 0 0.52590107917785645
vn 0.85054576396942139 0 0.52590107917785645
vn -0.52590107917785645 0 0.85054576396942139
vn -0.52590107917785645 0 0.85054576396942139
vn -0.38800951838493347 0 -0.92165535688400269
vn -0.38800951838493347 0 -0.92165535688400269
vn -0.92165535688400269 0 0.38800951838493347
vn -0.92165535688400269 0 0.38800951838493347
vn 0.73235929012298584 0 -0.68091839551925659
vn 0.73235929012298584 0 -0.68091839551925659
vn 0.68091839551925659 0 0.73235929012298584
vn 0.68091839551925659 0 0.73235929012298584
vn 0.52590107917785645 0 -0.85054576396942139
vn 0.52590107917785645 0 -0.85054576396942139
vn -0.85054576396942139 0 -0.52590107917785645
vn -0.85054576396942139 0 -0.52590107917785645
vn 0.97941994667053223 0 0.20183303952217102
vn 0.97941994667053223 0 0.20183303952217102
vn -0.20183303952217102 0 0.97941994667053223
vn -0.20183303952217102 0 0.97941994667053223
vn 0.89100813865661621 0 0.45398730039596558
vn 0.89100813865661621 0 0.45398730039596558
vn 0.45398730039596558 0 -0.89100813865661621
vn 0.45398730039596558 0 -0.89100813865661621
vn 0.99272578954696655 0 0.12039744853973389
vn 0.99272578954696655 0 0.12039744853973389
vn 0.98916864395141602 0 -0.14678367972373962
vn 0.98916864395141602 0 -0.14678367972373962
vn 0.12039744853973389 0 -0.99272578954696655
vn 0.12039744853973389 0 -0.99272578954696655
vn 0.14678367972373962 0 0.98916864395141602
vn 0.14678367972373962 0 0.98916864395141602
vn -0.68091839551925659 0 -0.73235929012298584
vn -0.68091839551925659 0 -0.73235929012298584
vn -0.73235929012298584 0 0.68091839551925659
vn -0.73235929012298584 0 0.68091839551925659
vn 0.20183303952217102 0 -0.97941994667053223
vn 0.20183303952217102 0 -0.97941994667053223
vn -0.97941994667053223 0 -0.20183303952217102
vn -0.97941994667053223 0 -0.20183303952217102
vn -0.45398730039596558 0 0.89100813865661621
vn -0.45398730039596558 0 0.89100813865661621
vn -0.12039744853973389 0 0.99272578954696655
vn -0.12039744853973389 0 0.99272578954696655
vn -0.89100813865661621 0 -0.45398730039596558
vn -0.89100813865661621 0 -0.45398730039596558
vn -0.14678367972373962 0 -0.98916864395141602
vn -0.14678367972373962 0 -0.98916864395141602
vn -0.99272578954696655 0 -0.12039744853973389
vn -0.99272578954696655 0 -0.12039744853973389
vn -0.98916864395141602 0 0.14678367972373962
vn -0.98916864395141602 0 0.14678367972373962
f 6//6 26//26 25//25 5//5
f 26//26 22//22 21//21 25//25
f 22//22 2//2 1//1 21//21
f 2//2 6//6 5//5 1//1
f 16//16 36//36 35//35 15//15
f 36//36 34//34 33//33 35//35
f 34//34 14//14 13//13 33//33
f 14//14 16//16 15//15 13//13
f 40//40 52//52 51//51 39//39
f 52//52 50//50 49//49 51//51
f 50//50 38//38 37//37 49//49
f 38//38 40//40 39//39 37//37
f 64//64 60//60 59//59 63//63
f 60//60 58//58 57//57 59//59
f 58//58 62//62 61//61 57//57
f 62//62 64//64 63//63 61//61
f 80//80 76//76 75//75 79//79
f 76//76 74//74 73//73 75//75
f 74//74 78//78 77//77 73//73
f 78//78 80//80 79//79 77//77
f 96//96 92//92 91//91 95//95
f 92//92 90//90 89//89 91//91
f 90//90 94//94 93//93 89//89
f 94//94 96//96 95//95 93//93
f 116//116 108//108 107//107 115//115
f 108//108 106//106 105//105 107//107
f 106//106 114//114 113//113 105//105
f 114//114 116//116 115//115 113//113
f 144//144 120//120 119//119 143//143
f 120//120 118//118 117//117 119//119
f 118//118 142//142 141//141 117//117
f 142//142 144//144 143//143 141//141
f 150//150 130//130 129//129 149//149
f 130//130 132//132 131//131 129//129
f 132//132 154//154 153//153 131//131
f 154//154 150//150 149//149 153//153
f 152//152 134//134 133//133 151//151
f 134//134 138//138 137//137 133//133
f 138//138 158//158 157//157 137//137
f 158//158 152//152 151//151 157//157
f 8//8 4//4 3//3 7//7
f 4//4 24//24 23//23 3//3
f 24//24 28//28 27//27 23//23
f 28//28 8//8 7//7 27//27
f 12//12 10//10 9//9 11//11
f 10//10 30//30 29//29 9//9
f 30//30 32//32 31//31 29//29
f 32//32 12//12 11//11 31//31
f 18//18 20//20 19//19 17//17
f 20//20 44//44 43//43 19//19
f 44//44 42//42 41//41 43//43
f 42//42 18//18 17//17 41//41
f 46//46 48//48 47//47 45//45
f 48//48 56//56 55//55 47//47
f 56//56 54//54 53//53 55//55
f 54//54 46//46 45//45 53//53
f 66//66 68//68 67//67 65//65
f 68//68 72//72 71//71 67//67
f 72//72 70//70 69//69 71//71
f 70//70 66//66 65//65 69//69
f 82//82 84//84 83//83 81//81
f 84//84 88//88 87//87 83//83
f 88//88 86//86 85//85 87//87
f 86//86 82//82 81//81 85//85
f 98//98 100//100 99//99 97//97
f 100//100 104//104 103//103 99//99
f 104//104 102//102 101//101 103//103
f 102//102 98//98 97//97 101//101
f 122//122 124//124 123//123 121//121
f 124//124 112//112 111//111 123//123
f 112//112 110//110 109//109 111//111
f 110//110 122//122 121//121 109//109
f 146//146 148//148 147//147 145//145
f 148//148 128//128 127//127 147//147
f 128//128 126//126 125//125 127//127
f 126//126 146//146 145//145 125//125
f 156//156 160//160 159//159 155//155
f 160//160 140//140 139//139 159//159
f 140//140 136//136 135//135 139//139
f 136//136 156//156 155//155 135//135
