# Rhino

mtllib Pannelli113.mtl
usemtl diffuse_Black
v 1.3562314001441886 3 -0.27012889719540306
v 1.3562314001441886 0 -0.27012889719540306
v 1.3562314001441886 3 0.27012889719540362
v 1.3562314001441886 0 0.27012889719540362
v 1.3404202091789748 3 -0.28237660066427989
v 1.3404202091789748 0 -0.28237660066427983
v 1.3404202091789748 3 0.28237660066428044
v 1.3404202091789748 0 0.28237660066428044
v 1.3381369766285482 3 -0.34888775217321588
v 1.3381369766285482 0 -0.34888775217321588
v 1.3292567507061985 3 -0.33096732841795756
v 1.3292567507061985 0 -0.33096732841795756
v 1.1699793859080057 3 -0.029686583072813407
v 1.1699793859080057 0 -0.02968658307281347
v 1.1699793859080057 3 0.029686583072814063
v 1.1699793859080057 0 0.029686583072814063
v 1.1541681949427918 3 -0.041934286541690242
v 1.1541681949427918 0 -0.041934286541690236
v 1.1541681949427918 3 0.041934286541690888
v 1.1541681949427918 0 0.041934286541690888
v 1.1023402894502474 3 -0.83497252535147293
v 1.1023402894502474 0 -0.83497252535147293
v 1.0827689899941606 3 -0.83909129186587694
v 1.0827689899941606 0 -0.83909129186587694
v 1.0656193549483364 3 -0.48393020883563842
v 1.0656193549483364 0 -0.48393020883563842
v 1.0567391290259864 3 -0.46600978508038005
v 1.0567391290259864 0 -0.46600978508038005
v 1.0516857665090757 3 -0.8979366794820719
v 1.0516857665090757 0 -0.8979366794820719
v 1.0515173912447846 3 -0.87793738825037138
v 1.0515173912447846 0 -0.87793738825037138
v 1.0397058076940813 3 -0.5373498768134326
v 1.0397058076940813 0 -0.5373498768134326
v 1.0201345082379945 3 -0.54146864332783662
v 1.0201345082379945 0 -0.54146864332783662
v 0.74755460553952968 3 -0.90049717845246546
v 0.74755460553952968 0 -0.90049717845246546
v 0.74738623027523865 3 -0.88049788722076494
v 0.74738623027523865 0 -0.88049788722076494
v 0.70092434542997573 3 -0.9372502966912164
v 0.70092434542997573 0 -0.9372502966912164
v 0.68151786529192349 3 -0.9324141278923237
v 0.68151786529192349 0 -0.9324141278923237
v 0.62738025757147353 3 -1.232366521878383
v 0.62738025757147353 0 -1.232366521878383
v 0.60797377743342129 3 -1.2275303530794903
v 0.60797377743342129 0 -1.2275303530794903
v 0.56290139276883944 3 -1.2488414246000259
v 0.56290139276883944 0 -1.2488414246000259
v 0.55432415054427797 3 -1.2669088238545172
v 0.55432415054427797 0 -1.2669088238545172
v 0.28814870042047347 3 -1.1184064704083463
v 0.28814870042047347 0 -1.1184064704083463
v 0.27957145819591195 3 -1.1364738696628378
v 0.27957145819591195 0 -1.1364738696628378
v 0.22157595446033676 3 -1.1491897811367815
v 0.22157595446033676 0 -1.1491897811367815
v 0.20622616774595826 3 -1.1363685468817231
v 0.20622616774595823 0 -1.1363685468817231
v 0.026602201946913356 3 -1.3826154760773679
v 0.026602201946913387 0 -1.3826154760773679
v 0.011252415232534842 3 -1.3697942418223095
v 0.011252415232534844 0 -1.3697942418223095
v -0.038601710373222353 3 -1.369296457942685
v -0.038601710373222353 0 -1.369296457942685
v -0.054204446361257153 3 -1.381808637196823
v -0.054204446361257153 0 -1.381808637196823
v -0.22887563352047288 3 -1.1320241388706627
v -0.22887563352047288 0 -1.1320241388706627
v -0.24447836950850765 3 -1.1445363181248007
v -0.24447836950850765 0 -1.1445363181248007
v -0.30220840395223664 3 -1.1306649093541619
v -0.30220840395223658 0 -1.1306649093541619
v -0.31042317304319994 3 -1.1124298450882439
v -0.31042317304319988 0 -1.1124298450882439
v -0.57951079438681552 3 -1.255587699456407
v -0.57951079438681552 0 -1.255587699456407
v -0.58334169743084086 3 1.2394254095413029
v -0.58334169743084097 0 1.2394254095413029
v -0.58772556347777882 3 -1.2373526351904891
v -0.58772556347777882 0 -1.2373526351904891
v -0.60264774163455304 3 1.2446481154687232
v -0.60264774163455315 0 1.2446481154687232
v -0.63236343043261223 3 -1.2151458240185085
v -0.63236343043261223 0 -1.2151458240185085
v -0.65186260825213771 3 -1.2195935272867724
v -0.65186260825213771 0 -1.2195935272867724
v -0.66276389288300674 3 0.94583652334630475
v -0.66276389288300663 0 0.94583652334630475
v -0.68206993708671892 3 0.95105922927372522
v -0.68206993708671881 0 0.95105922927372522
v -0.70000008529971414 3 -0.91861993620085103
v -0.70000008529971414 0 -0.91861993620085103
v -0.71949926311923962 3 -0.92306763946911519
v -0.71949926311923962 0 -0.92306763946911519
v -0.72942477289014618 3 0.91524453418655927
v -0.72942477289014618 0 0.91524453418655927
v -0.72965576955486844 3 0.89524586821752805
v -0.72965576955486844 0 0.89524586821752805
v -0.76481867385917046 3 -0.8653988113705513
v -0.76481867385917046 0 -0.8653988113705513
v -0.76538635391354159 3 -0.88539075323110761
v -0.76538635391354159 0 -0.88539075323110761
v -1.0091192779084734 3 0.5617303530687513
v -1.0091192779084734 0 0.5617303530687513
v -1.0287689173653063 3 0.55800320010482818
v -1.0287689173653063 0 0.55800320010482818
v -1.0307429641948929 3 -0.52099102522787144
v -1.0307429641948929 0 -0.52099102522787144
v -1.0335464254296516 3 0.91875732286532596
v -1.0335464254296516 0 0.91875732286532596
v -1.0337774220943738 3 0.89875865689629486
v -1.0337774220943738 0 0.89875865689629486
v -1.0472233349562337 3 0.48701744663657265
v -1.0472233349562337 0 0.48701744663657265
v -1.0502281196763523 3 -0.51648228750392422
v -1.0502281196763523 0 -0.51648228750392422
v -1.0557439620899842 3 0.50511161457123033
v -1.0557439620899842 0 0.50511161457123033
v -1.0657984544301025 3 0.86054432559428651
v -1.0657984544301025 0 0.86054432559428651
v -1.0658335527835268 3 -0.44481630406956557
v -1.0658335527835268 0 -0.44481630406956557
v -1.0688380722291042 3 -0.85676604573926296
v -1.0688380722291042 0 -0.85676604573926296
v -1.0694057522834755 3 -0.87675798759981927
v -1.0694057522834755 0 -0.87675798759981927
v -1.0750698365414941 3 -0.46255583795133087
v -1.0750698365414944 0 -0.46255583795133087
v -1.0854480938869353 3 0.85681717263036339
v -1.0854480938869353 0 0.85681717263036339
v -1.0993077759477079 3 -0.81730367399090065
v -1.0993077759477079 0 -0.81730367399090065
v -1.1187929314291676 3 -0.81279493626695343
v -1.1187929314291676 0 -0.81279493626695343
v -1.1531007569368195 3 0.064971924375046591
v -1.1531007569368195 0 0.064971924375046577
v -1.1547754132036154 3 -0.018879927586794451
v -1.1547754132036154 0 -0.018879927586794451
v -1.1691533531361735 3 0.05304237470791804
v -1.1691533531361735 0 0.053042374707918082
v -1.1703388942883572 3 -0.0063189540367515826
v -1.1703388942883572 0 -0.0063189540367515826
v -1.3223831012194827 3 0.35744344362047592
v -1.3223831012194827 0 0.35744344362047592
v -1.3309037283532332 3 0.37553761155513349
v -1.3309037283532332 0 0.37553761155513349
v -1.3345145754603849 3 0.30908531130079514
v -1.3345145754603849 0 0.30908531130079508
v -1.3356003646177463 3 -0.30435924137614917
v -1.3356003646177461 0 -0.30435924137614917
v -1.3448366483757137 3 -0.32209877525791447
v -1.3448366483757137 0 -0.32209877525791447
v -1.3457913559399761 3 -0.25555529353813444
v -1.3457913559399761 0 -0.25555529353813444
v -1.3505671716597389 3 0.29715576163366658
v -1.3505671716597389 0 0.29715576163366658
v -1.3613548370247179 3 -0.24299431998809157
v -1.3613548370247179 0 -0.24299431998809157
vn 0.9920317530632019 0 -0.12598831951618195
vn 0.9920317530632019 0 -0.12598831951618195
vn 0.9920317530632019 0 0.12598831951618195
vn 0.9920317530632019 0 0.12598831951618195
vn -0.12598831951618195 0 -0.9920317530632019
vn -0.12598831951618195 0 -0.9920317530632019
vn -0.12598831951618195 0 0.9920317530632019
vn -0.12598831951618195 0 0.9920317530632019
vn 0.94754606485366821 0 -0.31961926817893982
vn 0.94754606485366821 0 -0.31961926817893982
vn 0.31961926817893982 0 0.94754606485366821
vn 0.31961926817893982 0 0.94754606485366821
vn 0.12598831951618195 0 0.9920317530632019
vn 0.12598831951618195 0 0.9920317530632019
vn 0.12598831951618195 0 -0.9920317530632019
vn 0.12598831951618195 0 -0.9920317530632019
vn -0.9920317530632019 0 0.12598831951618195
vn -0.9920317530632019 0 0.12598831951618195
vn -0.9920317530632019 0 -0.12598831951618195
vn -0.9920317530632019 0 -0.12598831951618195
vn 0.83757030963897705 0 -0.5463295578956604
vn 0.83757030963897705 0 -0.5463295578956604
vn -0.5463295578956604 0 -0.83757030963897705
vn -0.5463295578956604 0 -0.83757030963897705
vn -0.31961926817893982 0 -0.94754606485366821
vn -0.31961926817893982 0 -0.94754606485366821
vn -0.94754606485366821 0 0.31961926817893982
vn -0.94754606485366821 0 0.31961926817893982
vn 0.71303468942642212 0 -0.70112878084182739
vn 0.71303468942642212 0 -0.70112878084182739
vn 0.70112878084182739 0 0.71303468942642212
vn 0.70112878084182739 0 0.71303468942642212
vn 0.5463295578956604 0 0.83757030963897705
vn 0.5463295578956604 0 0.83757030963897705
vn -0.83757030963897705 0 0.5463295578956604
vn -0.83757030963897705 0 0.5463295578956604
vn -0.70112878084182739 0 -0.71303468942642212
vn -0.70112878084182739 0 -0.71303468942642212
vn -0.71303468942642212 0 0.70112878084182739
vn -0.71303468942642212 0 0.70112878084182739
vn 0.85710710287094116 0 0.51513826847076416
vn 0.85710710287094116 0 0.51513826847076416
vn -0.51513826847076416 0 0.85710710287094116
vn -0.51513826847076416 0 0.85710710287094116
vn 0.51513826847076416 0 -0.85710710287094116
vn 0.51513826847076416 0 -0.85710710287094116
vn -0.85710710287094116 0 -0.51513826847076416
vn -0.85710710287094116 0 -0.51513826847076416
vn 0.94203037023544312 0 0.3355276882648468
vn 0.94203037023544312 0 0.3355276882648468
vn 0.3355276882648468 0 -0.94203037023544312
vn 0.3355276882648468 0 -0.94203037023544312
vn -0.3355276882648468 0 0.94203037023544312
vn -0.3355276882648468 0 0.94203037023544312
vn -0.94203037023544312 0 -0.3355276882648468
vn -0.94203037023544312 0 -0.3355276882648468
vn 0.99599599838256836 0 0.089397810399532318
vn 0.99599599838256836 0 0.089397810399532318
vn -0.089397810399532318 0 0.99599599838256836
vn -0.089397810399532318 0 0.99599599838256836
vn 0.089397810399532318 0 -0.99599599838256836
vn 0.089397810399532318 0 -0.99599599838256836
vn -0.99599599838256836 0 -0.089397810399532318
vn -0.99599599838256836 0 -0.089397810399532318
vn 0.99401235580444336 0 -0.10926768928766251
vn 0.99401235580444336 0 -0.10926768928766251
vn -0.10926768928766251 0 -0.99401235580444336
vn -0.10926768928766251 0 -0.99401235580444336
vn 0.10926768928766251 0 0.99401235580444336
vn 0.10926768928766251 0 0.99401235580444336
vn -0.99401235580444336 0 0.10926768928766251
vn -0.99401235580444336 0 0.10926768928766251
vn 0.93514281511306763 0 -0.35427093505859375
vn 0.93514281511306763 0 -0.35427093505859375
vn 0.35427093505859375 0 0.93514281511306763
vn 0.35427093505859375 0 0.93514281511306763
vn -0.35427093505859375 0 -0.93514281511306763
vn -0.35427093505859375 0 -0.93514281511306763
vn 0.86722230911254883 0 0.4979211688041687
vn 0.86722230911254883 0 0.4979211688041687
vn -0.93514281511306763 0 0.35427093505859375
vn -0.93514281511306763 0 0.35427093505859375
vn -0.4979211688041687 0 0.86722230911254883
vn -0.4979211688041687 0 0.86722230911254883
vn 0.84665012359619141 0 -0.53214997053146362
vn 0.84665012359619141 0 -0.53214997053146362
vn -0.53214997053146362 0 -0.84665012359619141
vn -0.53214997053146362 0 -0.84665012359619141
vn 0.4979211688041687 0 -0.86722230911254883
vn 0.4979211688041687 0 -0.86722230911254883
vn -0.86722230911254883 0 -0.4979211688041687
vn -0.86722230911254883 0 -0.4979211688041687
vn 0.53214997053146362 0 0.84665012359619141
vn 0.53214997053146362 0 0.84665012359619141
vn -0.84665012359619141 0 0.53214997053146362
vn -0.84665012359619141 0 0.53214997053146362
vn 0.71522659063339233 0 0.69889265298843384
vn 0.71522659063339233 0 0.69889265298843384
vn 0.69889265298843384 0 -0.71522659063339233
vn 0.69889265298843384 0 -0.71522659063339233
vn 0.72689241170883179 0 0.68675136566162109
vn 0.72689241170883179 0 0.68675136566162109
vn 0.68675136566162109 0 -0.72689241170883179
vn 0.68675136566162109 0 -0.72689241170883179
vn 0.82649439573287964 0 -0.56294494867324829
vn 0.82649439573287964 0 -0.56294494867324829
vn -0.56294494867324829 0 -0.82649439573287964
vn -0.56294494867324829 0 -0.82649439573287964
vn 0.84831219911575317 0 0.52949637174606323
vn 0.84831219911575317 0 0.52949637174606323
vn -0.69889265298843384 0 0.71522659063339233
vn -0.69889265298843384 0 0.71522659063339233
vn -0.71522659063339233 0 -0.69889265298843384
vn -0.71522659063339233 0 -0.69889265298843384
vn 0.9409751296043396 0 -0.3384757936000824
vn 0.9409751296043396 0 -0.3384757936000824
vn -0.52949637174606323 0 0.84831219911575317
vn -0.52949637174606323 0 0.84831219911575317
vn 0.3384757936000824 0 0.9409751296043396
vn 0.3384757936000824 0 0.9409751296043396
vn 0.56294494867324829 0 0.82649439573287964
vn 0.56294494867324829 0 0.82649439573287964
vn 0.95373916625976563 0 0.30063530802726746
vn 0.95373916625976563 0 0.30063530802726746
vn -0.68675136566162109 0 0.72689241170883179
vn -0.68675136566162109 0 0.72689241170883179
vn -0.72689241170883179 0 -0.68675136566162109
vn -0.72689241170883179 0 -0.68675136566162109
vn 0.30063530802726746 0 -0.95373916625976563
vn 0.30063530802726746 0 -0.95373916625976563
vn -0.82649439573287964 0 0.56294494867324829
vn -0.82649439573287964 0 0.56294494867324829
vn 0.52949637174606323 0 -0.84831219911575317
vn 0.52949637174606323 0 -0.84831219911575317
vn -0.84831219911575317 0 -0.52949637174606323
vn -0.84831219911575317 0 -0.52949637174606323
vn 0.98931825160980225 0 -0.14577169716358185
vn 0.98931825160980225 0 -0.14577169716358185
vn 0.99434959888458252 0 0.1061546802520752
vn 0.99434959888458252 0 0.1061546802520752
vn -0.14577169716358185 0 -0.98931825160980225
vn -0.14577169716358185 0 -0.98931825160980225
vn -0.1061546802520752 0 0.99434959888458252
vn -0.1061546802520752 0 0.99434959888458252
vn -0.3384757936000824 0 -0.9409751296043396
vn -0.3384757936000824 0 -0.9409751296043396
vn -0.9409751296043396 0 0.3384757936000824
vn -0.9409751296043396 0 0.3384757936000824
vn 0.14577169716358185 0 0.98931825160980225
vn 0.14577169716358185 0 0.98931825160980225
vn -0.30063530802726746 0 0.95373916625976563
vn -0.30063530802726746 0 0.95373916625976563
vn -0.95373916625976563 0 -0.30063530802726746
vn -0.95373916625976563 0 -0.30063530802726746
vn 0.1061546802520752 0 -0.99434959888458252
vn 0.1061546802520752 0 -0.99434959888458252
vn -0.98931825160980225 0 0.14577169716358185
vn -0.98931825160980225 0 0.14577169716358185
vn -0.99434959888458252 0 -0.1061546802520752
vn -0.99434959888458252 0 -0.1061546802520752
f 6//6 18//18 17//17 5//5
f 18//18 14//14 13//13 17//17
f 14//14 2//2 1//1 13//13
f 2//2 6//6 5//5 1//1
f 24//24 36//36 35//35 23//23
f 36//36 34//34 33//33 35//35
f 34//34 22//22 21//21 33//33
f 22//22 24//24 23//23 21//21
f 48//48 44//44 43//43 47//47
f 44//44 42//42 41//41 43//43
f 42//42 46//46 45//45 41//41
f 46//46 48//48 47//47 45//45
f 64//64 60//60 59//59 63//63
f 60//60 58//58 57//57 59//59
f 58//58 62//62 61//61 57//57
f 62//62 64//64 63//63 61//61
f 82//82 76//76 75//75 81//81
f 76//76 74//74 73//73 75//75
f 74//74 78//78 77//77 73//73
f 78//78 82//82 81//81 77//77
f 126//126 102//102 101//101 125//125
f 102//102 104//104 103//103 101//101
f 104//104 128//128 127//127 103//103
f 128//128 126//126 125//125 127//127
f 152//152 124//124 123//123 151//151
f 124//124 130//130 129//129 123//123
f 130//130 154//154 153//153 129//129
f 154//154 152//152 151//151 153//153
f 150//150 138//138 137//137 149//149
f 138//138 142//142 141//141 137//137
f 142//142 158//158 157//157 141//141
f 158//158 150//150 149//149 157//157
f 122//122 106//106 105//105 121//121
f 106//106 108//108 107//107 105//105
f 108//108 132//132 131//131 107//107
f 132//132 122//122 121//121 131//131
f 80//80 90//90 89//89 79//79
f 90//90 92//92 91//91 89//89
f 92//92 84//84 83//83 91//91
f 84//84 80//80 79//79 83//83
f 8//8 4//4 3//3 7//7
f 4//4 16//16 15//15 3//3
f 16//16 20//20 19//19 15//15
f 20//20 8//8 7//7 19//19
f 12//12 10//10 9//9 11//11
f 10//10 26//26 25//25 9//9
f 26//26 28//28 27//27 25//25
f 28//28 12//12 11//11 27//27
f 32//32 30//30 29//29 31//31
f 30//30 38//38 37//37 29//29
f 38//38 40//40 39//39 37//37
f 40//40 32//32 31//31 39//39
f 50//50 52//52 51//51 49//49
f 52//52 56//56 55//55 51//51
f 56//56 54//54 53//53 55//55
f 54//54 50//50 49//49 53//53
f 66//66 68//68 67//67 65//65
f 68//68 72//72 71//71 67//67
f 72//72 70//70 69//69 71//71
f 70//70 66//66 65//65 69//69
f 86//86 88//88 87//87 85//85
f 88//88 96//96 95//95 87//87
f 96//96 94//94 93//93 95//95
f 94//94 86//86 85//85 93//93
f 134//134 136//136 135//135 133//133
f 136//136 118//118 117//117 135//135
f 118//118 110//110 109//109 117//117
f 110//110 134//134 133//133 109//109
f 156//156 160//160 159//159 155//155
f 160//160 144//144 143//143 159//159
f 144//144 140//140 139//139 143//143
f 140//140 156//156 155//155 139//139
f 146//146 148//148 147//147 145//145
f 148//148 120//120 119//119 147//147
f 120//120 116//116 115//115 119//119
f 116//116 146//146 145//145 115//115
f 114//114 112//112 111//111 113//113
f 112//112 98//98 97//97 111//111
f 98//98 100//100 99//99 97//97
f 100//100 114//114 113//113 99//99
