# Rhino

mtllib Pannelli134.mtl
usemtl diffuse_Black
v 1.3010523482491094 3 -0.30222456856152158
v 1.3010523482491094 0 -0.30222456856152158
v 1.3010523482491121 3 0.30222456856151014
v 1.3010523482491121 0 0.30222456856151014
v 1.2831372193108903 3 -0.31111547150368557
v 1.2831372193108903 0 -0.31111547150368557
v 1.283137219310893 3 0.3111154715036743
v 1.283137219310893 0 0.3111154715036743
v 1.279695351870282 3 -0.3826966280597659
v 1.279695351870282 0 -0.3826966280597659
v 1.2685465743082023 3 -0.36609226842528236
v 1.2685465743082023 0 -0.36609226842528236
v 1.1676745543677964 3 -0.033468921309189756
v 1.1676745543677964 0 -0.033468921309189756
v 1.1676745543677969 3 0.033468921309179417
v 1.1676745543677969 0 0.033468921309179417
v 1.1497594254295773 3 -0.04235982425135372
v 1.1497594254295773 0 -0.042359824251353755
v 1.1497594254295778 3 0.042359824251343554
v 1.1497594254295778 0 0.042359824251343554
v 1.030603344987987 3 -0.5499461600113279
v 1.030603344987987 0 -0.5499461600113279
v 1.0194545674259072 3 -0.53334180037684442
v 1.0194545674259072 0 -0.53334180037684442
v 0.99741112052883285 3 -0.60807490513673612
v 0.99741112052883285 0 -0.60807490513673623
v 0.97996935759355608 3 -0.9075995597753409
v 0.97996935759355608 0 -0.9075995597753409
v 0.97744494358376555 3 -0.60691224516999698
v 0.97744494358376555 0 -0.60691224516999709
v 0.96000318064848877 3 -0.90643689980860176
v 0.96000318064848877 0 -0.90643689980860176
v 0.92151957929682382 3 -0.96689118710397015
v 0.92151957929682382 0 -0.96689118710397015
v 0.92007153714927004 3 -0.94694367663426737
v 0.92007153714927004 0 -0.94694367663426737
v 0.62227495170607394 3 -0.98861414014307758
v 0.62227495170607394 0 -0.98861414014307758
v 0.62082690955852005 3 -0.96866662967337458
v 0.62082690955852005 0 -0.96866662967337458
v 0.56462677302987507 3 -1.0226341676227637
v 0.56462677302987507 0 -1.0226341676227637
v 0.54786469202616117 3 -1.0117239595392791
v 0.54786469202616117 0 -1.0117239595392791
v 0.40095616562056008 3 -1.2740922478288523
v 0.40095616562056008 0 -1.2740922478288523
v 0.38419408461684618 3 -1.2631820397453677
v 0.38419408461684618 0 -1.2631820397453677
v 0.32943154354096821 3 -1.2785573191335846
v 0.32943154354096821 0 -1.2785573191335846
v 0.32079772223183778 3 -1.2965977495497916
v 0.32079772223183778 0 -1.2965977495497916
v 0.25580060196792581 3 1.2952991979549322
v 0.25580060196792581 0 1.2952991979549322
v 0.24614957052252137 3 1.3128165491256949
v 0.2461495705225214 0 1.3128165491256949
v 0.058796173293931615 3 -1.1490361617811458
v 0.058796173293931615 0 -1.1490361617811458
v 0.050162351984801207 3 -1.1670765921973527
v 0.050162351984801207 0 -1.1670765921973527
v -0.0069877412407638468 3 1.1505182582415237
v -0.0069877412407639092 0 1.1505182582415237
v -0.016638772686168288 3 1.1680356094122863
v -0.016638772686168299 0 1.1680356094122863
v -0.016768646956530665 3 -1.1680337521197237
v -0.016768646956530686 0 -1.1680337521197237
v -0.025914813532643709 3 -1.1502475879193685
v -0.025914813532643681 0 -1.1502475879193685
v -0.083515030607226939 3 1.1651649124799062
v -0.083515030607226939 0 1.1651649124799062
v -0.091629445284763411 3 1.1468849706189215
v -0.091629445284763411 0 1.1468849706189215
v -0.28358961644478242 3 -1.305240909629874
v -0.28358961644478242 0 -1.305240909629874
v -0.29273578302089542 3 -1.2874547454295189
v -0.29273578302089542 0 -1.2874547454295189
v -0.34791559421160939 3 -1.2736517182865288
v -0.34791559421160939 0 -1.2736517182865288
v -0.35774345639896898 3 1.2868941378879768
v -0.35774345639896898 0 1.2868941378879768
v -0.36435883724121376 3 -1.2850367856411546
v -0.36435883724121376 0 -1.2850367856411546
v -0.36585787107650541 3 1.2686141960269921
v -0.36585787107650541 0 1.2686141960269921
v -0.42015835326375567 3 1.2516792394110134
v -0.42015835326375561 0 1.2516792394110134
v -0.43722556299727455 3 1.2621056650647109
v -0.4372255629972745 0 1.2621056650647109
v -0.51870985176095075 3 -1.0269767187044163
v -0.51870985176095075 0 -1.0269767187044163
v -0.53515309479055517 3 -1.0383617860590422
v -0.53515309479055517 0 -1.0383617860590422
v -0.57657144885190736 3 0.99564373921778349
v -0.57657144885190748 0 0.99564373921778349
v -0.59287348023584086 3 -0.98602339095368274
v -0.59287348023584086 0 -0.98602339095368274
v -0.5936386585854263 3 1.0060701648714809
v -0.5936386585854263 0 1.0060701648714809
v -0.59375052028272224 3 -1.0060041517188831
v -0.59375052028272224 0 -1.0060041517188831
v -0.64827258165391877 3 0.95051762264069606
v -0.64827258165391877 0 0.95051762264069606
v -0.65029044158836224 3 0.97041556829558628
v -0.65029044158836224 0 0.97041556829558628
v -0.89261691555041656 3 -0.97286638458891395
v -0.89261691555041656 0 -0.97286638458891395
v -0.89349395559729794 3 -0.99284714535411434
v -0.89349395559729794 0 -0.99284714535411434
v -0.9336905429348874 3 -0.93351803958134605
v -0.9336905429348874 0 -0.93351803958134605
v -0.94677365758328524 3 0.92024648953213195
v -0.94677365758328524 0 0.92024648953213195
v -0.94879151751772872 3 0.94014443518702229
v -0.94879151751772872 0 0.94014443518702229
v -0.95361530809088835 3 -0.93525116781613271
v -0.95361530809088835 0 -0.93525116781613271
v -0.95969024419953952 3 -0.63461462815080594
v -0.95969024419953952 0 -0.63461462815080594
v -0.97961500935554036 3 -0.63634775638559271
v -0.97961500935554036 0 -0.63634775638559271
v -0.98553065820603802 3 0.87861441026528664
v -0.98553065820603802 0 0.87861441026528664
v -0.99440021767450359 3 0.57871348538258283
v -0.99440021767450359 0 0.57871348538258283
v -1.0037864757881376 3 -0.5622755570888599
v -1.0037864757881376 0 -0.5622755570888599
v -1.0055219171540608 3 0.87920565105641901
v -1.0055219171540608 0 0.87920565105641901
v -1.0143914766225264 3 0.5793047261737152
v -1.0143914766225264 0 0.5793047261737152
v -1.0144558834893225 3 -0.57919193197551633
v -1.0144558834893225 0 -0.57919193197551633
v -1.0342888752560948 3 0.50397183809836033
v -1.0342888752560948 0 0.50397183809836033
v -1.0459079044010193 3 0.52025060223232922
v -1.0459079044010193 0 0.52025060223232922
v -1.1480779448659868 3 -0.07522049977931447
v -1.1480779448659868 0 -0.07522049977931447
v -1.1505005494317531 3 0.0094645037900215941
v -1.1505005494317531 0 0.0094645037900216149
v -1.1662399878788385 3 -0.066845525534618797
v -1.1662399878788385 0 -0.066845525534618797
v -1.1681541120048926 3 6.4943774986016799E-05
v -1.1681541120048926 0 6.4943774986100065E-05
v -1.2575592115303533 3 -0.4022173413529056
v -1.2575592115303533 0 -0.4022173413529056
v -1.2682286192315382 3 -0.41913371623956203
v -1.2682286192315382 0 -0.41913371623956197
v -1.2737159813890178 3 -0.34768025388862017
v -1.2737159813890178 0 -0.34768025388862017
v -1.2784964277878237 3 0.32966777871611674
v -1.2784964277878237 0 0.32966777871611674
v -1.2901154569327482 3 0.34594654285008558
v -1.2901154569327482 0 0.34594654285008558
v -1.2915090146479185 3 0.27429623634495431
v -1.2915090146479185 0 0.2742962363449542
v -1.2918780244018695 3 -0.33930527964392448
v -1.2918780244018695 0 -0.33930527964392448
v -1.309162577221058 3 0.2648966763299187
v -1.309162577221058 0 0.2648966763299187
vn 0.94773632287979126 0 -0.31905457377433777
vn 0.94773632287979126 0 -0.31905457377433777
vn 0.94773632287979126 0 0.31905457377433777
vn 0.94773632287979126 0 0.31905457377433777
vn -0.31905457377433777 0 -0.94773632287979126
vn -0.31905457377433777 0 -0.94773632287979126
vn -0.31905457377433777 0 0.94773632287979126
vn -0.31905457377433777 0 0.94773632287979126
vn 0.98122155666351318 0 -0.19288396835327148
vn 0.98122155666351318 0 -0.19288396835327148
vn 0.19288396835327148 0 0.98122155666351318
vn 0.19288396835327148 0 0.98122155666351318
vn 0.31905457377433777 0 0.94773632287979126
vn 0.31905457377433777 0 0.94773632287979126
vn 0.31905457377433777 0 -0.94773632287979126
vn 0.31905457377433777 0 -0.94773632287979126
vn -0.94773632287979126 0 0.31905457377433777
vn -0.94773632287979126 0 0.31905457377433777
vn -0.94773632287979126 0 -0.31905457377433777
vn -0.94773632287979126 0 -0.31905457377433777
vn -0.19288396835327148 0 -0.98122155666351318
vn -0.19288396835327148 0 -0.98122155666351318
vn -0.98122155666351318 0 0.19288396835327148
vn -0.98122155666351318 0 0.19288396835327148
vn 0.74701720476150513 0 0.66480475664138794
vn 0.74701720476150513 0 0.66480475664138794
vn 0.66480475664138794 0 -0.74701720476150513
vn 0.66480475664138794 0 -0.74701720476150513
vn -0.66480475664138794 0 0.74701720476150513
vn -0.66480475664138794 0 0.74701720476150513
vn -0.74701720476150513 0 -0.66480475664138794
vn -0.74701720476150513 0 -0.66480475664138794
vn 0.75644701719284058 0 -0.65405499935150146
vn 0.75644701719284058 0 -0.65405499935150146
vn 0.65405499935150146 0 0.75644701719284058
vn 0.65405499935150146 0 0.75644701719284058
vn -0.65405499935150146 0 -0.75644701719284058
vn -0.65405499935150146 0 -0.75644701719284058
vn -0.75644701719284058 0 0.65405499935150146
vn -0.75644701719284058 0 0.65405499935150146
vn 0.97836315631866455 0 0.20689494907855988
vn 0.97836315631866455 0 0.20689494907855988
vn -0.20689494907855988 0 0.97836315631866455
vn -0.20689494907855988 0 0.97836315631866455
vn 0.20689494907855988 0 -0.97836315631866455
vn 0.20689494907855988 0 -0.97836315631866455
vn -0.97836315631866455 0 -0.20689494907855988
vn -0.97836315631866455 0 -0.20689494907855988
vn 0.9430772066116333 0 0.33257386088371277
vn 0.9430772066116333 0 0.33257386088371277
vn 0.33257386088371277 0 -0.9430772066116333
vn 0.33257386088371277 0 -0.9430772066116333
vn 0.96054738759994507 0 -0.278116375207901
vn 0.96054738759994507 0 -0.278116375207901
vn 0.278116375207901 0 0.96054738759994507
vn 0.278116375207901 0 0.96054738759994507
vn -0.33257386088371277 0 0.9430772066116333
vn -0.33257386088371277 0 0.9430772066116333
vn -0.9430772066116333 0 -0.33257386088371277
vn -0.9430772066116333 0 -0.33257386088371277
vn -0.278116375207901 0 -0.96054738759994507
vn -0.278116375207901 0 -0.96054738759994507
vn -0.96054738759994507 0 0.278116375207901
vn -0.96054738759994507 0 0.278116375207901
vn 0.95220166444778442 0 -0.3054700493812561
vn 0.95220166444778442 0 -0.3054700493812561
vn 0.3054700493812561 0 0.95220166444778442
vn 0.3054700493812561 0 0.95220166444778442
vn 0.93318140506744385 0 0.35940563678741455
vn 0.93318140506744385 0 0.35940563678741455
vn 0.35940563678741455 0 -0.93318140506744385
vn 0.35940563678741455 0 -0.93318140506744385
vn -0.3054700493812561 0 -0.95220166444778442
vn -0.3054700493812561 0 -0.95220166444778442
vn -0.95220166444778442 0 0.3054700493812561
vn -0.95220166444778442 0 0.3054700493812561
vn 0.98387932777404785 0 -0.1788334995508194
vn 0.98387932777404785 0 -0.1788334995508194
vn -0.35940563678741455 0 0.93318140506744385
vn -0.35940563678741455 0 0.93318140506744385
vn -0.1788334995508194 0 -0.98387932777404785
vn -0.1788334995508194 0 -0.98387932777404785
vn -0.93318140506744385 0 -0.35940563678741455
vn -0.93318140506744385 0 -0.35940563678741455
vn 0.97204679250717163 0 0.23478716611862183
vn 0.97204679250717163 0 0.23478716611862183
vn -0.23478716611862183 0 0.97204679250717163
vn -0.23478716611862183 0 0.97204679250717163
vn 0.1788334995508194 0 0.98387932777404785
vn 0.1788334995508194 0 0.98387932777404785
vn -0.98387932777404785 0 0.1788334995508194
vn -0.98387932777404785 0 0.1788334995508194
vn 0.23478716611862183 0 -0.97204679250717163
vn 0.23478716611862183 0 -0.97204679250717163
vn 0.73743462562561035 0 0.67541849613189697
vn 0.73743462562561035 0 0.67541849613189697
vn -0.97204679250717163 0 -0.23478716611862183
vn -0.97204679250717163 0 -0.23478716611862183
vn 0.67541849613189697 0 -0.73743462562561035
vn 0.67541849613189697 0 -0.73743462562561035
vn 0.77484071254730225 0 -0.63215649127960205
vn 0.77484071254730225 0 -0.63215649127960205
vn 0.63215649127960205 0 0.77484071254730225
vn 0.63215649127960205 0 0.77484071254730225
vn -0.67541849613189697 0 0.73743462562561035
vn -0.67541849613189697 0 0.73743462562561035
vn -0.73743462562561035 0 -0.67541849613189697
vn -0.73743462562561035 0 -0.67541849613189697
vn 0.76572215557098389 0 -0.64317148923873901
vn 0.76572215557098389 0 -0.64317148923873901
vn -0.63215649127960205 0 -0.77484071254730225
vn -0.63215649127960205 0 -0.77484071254730225
vn -0.77484071254730225 0 0.63215649127960205
vn -0.77484071254730225 0 0.63215649127960205
vn -0.64317148923873901 0 -0.76572215557098389
vn -0.64317148923873901 0 -0.76572215557098389
vn 0.64317148923873901 0 0.76572215557098389
vn 0.64317148923873901 0 0.76572215557098389
vn -0.76572215557098389 0 0.64317148923873901
vn -0.76572215557098389 0 0.64317148923873901
vn 0.72770124673843384 0 0.6858941912651062
vn 0.72770124673843384 0 0.6858941912651062
vn 0.6858941912651062 0 -0.72770124673843384
vn 0.6858941912651062 0 -0.72770124673843384
vn 0.97530472278594971 0 0.22086364030838013
vn 0.97530472278594971 0 0.22086364030838013
vn -0.6858941912651062 0 0.72770124673843384
vn -0.6858941912651062 0 0.72770124673843384
vn -0.72770124673843384 0 -0.6858941912651062
vn -0.72770124673843384 0 -0.6858941912651062
vn 0.22086364030838013 0 -0.97530472278594971
vn 0.22086364030838013 0 -0.97530472278594971
vn 0.98633593320846558 0 -0.16474652290344238
vn 0.98633593320846558 0 -0.16474652290344238
vn 0.16474652290344238 0 0.98633593320846558
vn 0.16474652290344238 0 0.98633593320846558
vn 0.93822526931762695 0 0.34602513909339905
vn 0.93822526931762695 0 0.34602513909339905
vn 0.95647233724594116 0 -0.29182305932044983
vn 0.95647233724594116 0 -0.29182305932044983
vn -0.34602513909339905 0 0.93822526931762695
vn -0.34602513909339905 0 0.93822526931762695
vn -0.29182305932044983 0 -0.95647233724594116
vn -0.29182305932044983 0 -0.95647233724594116
vn -0.22086364030838013 0 0.97530472278594971
vn -0.22086364030838013 0 0.97530472278594971
vn -0.97530472278594971 0 -0.22086364030838013
vn -0.97530472278594971 0 -0.22086364030838013
vn 0.34602513909339905 0 -0.93822526931762695
vn 0.34602513909339905 0 -0.93822526931762695
vn -0.16474652290344238 0 -0.98633593320846558
vn -0.16474652290344238 0 -0.98633593320846558
vn -0.98633593320846558 0 0.16474652290344238
vn -0.98633593320846558 0 0.16474652290344238
vn 0.29182305932044983 0 0.95647233724594116
vn 0.29182305932044983 0 0.95647233724594116
vn -0.93822526931762695 0 -0.34602513909339905
vn -0.93822526931762695 0 -0.34602513909339905
vn -0.95647233724594116 0 0.29182305932044983
vn -0.95647233724594116 0 0.29182305932044983
f 6//6 18//18 17//17 5//5
f 18//18 14//14 13//13 17//17
f 14//14 2//2 1//1 13//13
f 2//2 6//6 5//5 1//1
f 32//32 30//30 29//29 31//31
f 30//30 26//26 25//25 29//29
f 26//26 28//28 27//27 25//25
f 28//28 32//32 31//31 27//27
f 48//48 44//44 43//43 47//47
f 44//44 42//42 41//41 43//43
f 42//42 46//46 45//45 41//41
f 46//46 48//48 47//47 45//45
f 76//76 68//68 67//67 75//75
f 68//68 66//66 65//65 67//67
f 66//66 74//74 73//73 65//65
f 74//74 76//76 75//75 73//73
f 106//106 96//96 95//95 105//105
f 96//96 100//100 99//99 95//95
f 100//100 108//108 107//107 99//99
f 108//108 106//106 105//105 107//107
f 146//146 126//126 125//125 145//145
f 126//126 132//132 131//131 125//125
f 132//132 148//148 147//147 131//131
f 148//148 146//146 145//145 147//147
f 156//156 140//140 139//139 155//155
f 140//140 144//144 143//143 139//139
f 144//144 160//160 159//159 143//143
f 160//160 156//156 155//155 159//159
f 122//122 124//124 123//123 121//121
f 124//124 130//130 129//129 123//123
f 130//130 128//128 127//127 129//129
f 128//128 122//122 121//121 127//127
f 86//86 94//94 93//93 85//85
f 94//94 98//98 97//97 93//93
f 98//98 88//88 87//87 97//97
f 88//88 86//86 85//85 87//87
f 54//54 62//62 61//61 53//53
f 62//62 64//64 63//63 61//61
f 64//64 56//56 55//55 63//63
f 56//56 54//54 53//53 55//55
f 8//8 4//4 3//3 7//7
f 4//4 16//16 15//15 3//3
f 16//16 20//20 19//19 15//15
f 20//20 8//8 7//7 19//19
f 12//12 10//10 9//9 11//11
f 10//10 22//22 21//21 9//9
f 22//22 24//24 23//23 21//21
f 24//24 12//12 11//11 23//23
f 36//36 34//34 33//33 35//35
f 34//34 38//38 37//37 33//33
f 38//38 40//40 39//39 37//37
f 40//40 36//36 35//35 39//39
f 50//50 52//52 51//51 49//49
f 52//52 60//60 59//59 51//51
f 60//60 58//58 57//57 59//59
f 58//58 50//50 49//49 57//57
f 78//78 82//82 81//81 77//77
f 82//82 92//92 91//91 81//81
f 92//92 90//90 89//89 91//91
f 90//90 78//78 77//77 89//89
f 110//110 116//116 115//115 109//109
f 116//116 120//120 119//119 115//115
f 120//120 118//118 117//117 119//119
f 118//118 110//110 109//109 117//117
f 150//150 158//158 157//157 149//149
f 158//158 142//142 141//141 157//157
f 142//142 138//138 137//137 141//141
f 138//138 150//150 149//149 137//137
f 152//152 154//154 153//153 151//151
f 154//154 136//136 135//135 153//153
f 136//136 134//134 133//133 135//135
f 134//134 152//152 151//151 133//133
f 112//112 114//114 113//113 111//111
f 114//114 104//104 103//103 113//113
f 104//104 102//102 101//101 103//103
f 102//102 112//112 111//111 101//101
f 84//84 80//80 79//79 83//83
f 80//80 70//70 69//69 79//79
f 70//70 72//72 71//71 69//69
f 72//72 84//84 83//83 71//71
