# Rhino

mtllib Pannelli62.mtl
usemtl diffuse_Black
v 1.4589389619280875 3 -0.15501357463705923
v 1.4589389619280875 0 -0.15501357463705923
v 1.4589389619280864 3 0.1550135746370665
v 1.4589389619280864 0 0.1550135746370665
v 1.4503938274485508 3 -0.17309618165946167
v 1.4503938274485508 0 -0.17309618165946164
v 1.4503938274485497 3 0.17309618165946883
v 1.4503938274485497 0 0.17309618165946883
v 1.4496866588695385 3 -0.22570045203596262
v 1.4496866588695385 0 -0.22570045203596262
v 1.4460833727005025 3 -0.20602772144806419
v 1.4460833727005025 0 -0.20602772144806419
v 1.3698939478524752 3 -0.52528342310673026
v 1.3698939478524752 0 -0.52528342310673026
v 1.3569827011390037 3 -0.54055757474614619
v 1.3569827011390037 0 -0.54055757474614619
v 1.3443417576378907 3 -0.5712703225943111
v 1.3443417576378907 0 -0.5712703225943111
v 1.3427604208687509 3 -0.59120770893311114
v 1.3427604208687509 0 -0.59120770893311114
v 1.18855110408955 3 -0.86016183123937573
v 1.18855110408955 0 -0.86016183123937573
v 1.1721812612242557 3 -0.019503074822447924
v 1.1721812612242557 0 -0.019503074822447918
v 1.1721812612242555 3 0.019503074822453767
v 1.1721812612242555 0 0.019503074822453767
v 1.1721436519346211 3 -0.87159841787104686
v 1.1721436519346211 0 -0.87159841787104686
v 1.1636361267447191 3 -0.037585681844850359
v 1.1636361267447191 0 -0.037585681844850345
v 1.1636361267447188 3 0.037585681844856091
v 1.1636361267447188 0 0.037585681844856091
v 1.152023914552285 3 -0.8980230749293534
v 1.152023914552285 0 -0.8980230749293534
v 1.1453644988238121 3 -0.91688181778659006
v 1.1453644988238121 0 -0.91688181778659006
v 1.1377124516679598 3 -0.28284210509133351
v 1.1377124516679598 0 -0.28284210509133351
v 1.1341091654989235 3 -0.26316937450343508
v 1.1341091654989235 0 -0.26316937450343508
v 1.1276733101482861 3 -0.32053421763054291
v 1.1276733101482861 0 -0.32053421763054291
v 1.1147620634348145 3 -0.33580836926995877
v 1.1147620634348145 0 -0.33580836926995883
v 1.0281705851141898 3 -0.54619315892011944
v 1.0281705851141898 0 -0.54619315892011944
v 1.0265892483450503 3 -0.56613054525891948
v 1.0265892483450503 0 -0.56613054525891948
v 1.0071873614425293 3 -0.59996908090605205
v 1.0071873614425293 0 -0.59996908090605205
v 0.9907799092876004 3 -0.61140566753772319
v 0.9907799092876004 0 -0.61140566753772319
v 0.92712856689349576 3 -1.1370860668408427
v 0.92712856689349576 0 -1.1370860668408427
v 0.90833037605749067 3 -1.1439145382139349
v 0.90833037605749067 0 -1.1439145382139349
v 0.88208743009101187 3 -1.1642707195843136
v 0.88208743009101187 0 -1.1642707195843136
v 0.87079861949272019 3 -1.1807801942966085
v 0.87079861949272019 0 -1.1807801942966085
v 0.85295809217356655 3 -0.79241669085199351
v 0.85295809217356655 0 -0.79241669085199351
v 0.84629867644509371 3 -0.81127543370923005
v 0.84629867644509371 0 -0.81127543370923005
v 0.81884126363883103 3 -0.83898049086684923
v 0.81884126363883103 0 -0.83898049086684923
v 0.80004307280282594 3 -0.8458089622399414
v 0.80004307280282594 0 -0.8458089622399414
v 0.62027678506286321 3 -0.98525043966357762
v 0.62027678506286321 0 -0.98525043966357762
v 0.60898797446457154 3 -1.0017599143758722
v 0.60898797446457154 0 -1.0017599143758722
v 0.60323991347032335 3 -1.3373981119135325
v 0.60323991347032335 0 -1.3373981119135325
v 0.58331752887004473 3 -1.3391583936633062
v 0.58331752887004473 0 -1.3391583936633062
v 0.575325003494639 3 -1.0214648400442916
v 0.575325003494639 0 -1.0214648400442916
v 0.55540261889436038 3 -1.0232251217940653
v 0.55540261889436038 0 -1.0232251217940653
v 0.55271951627019589 3 -1.3520745834235557
v 0.55271951627019589 0 -1.3520745834235557
v 0.53756190451053043 3 -1.3651224493694971
v 0.53756190451053043 0 -1.3651224493694971
v 0.34580377491085879 3 -1.1117020590979376
v 0.34580377491085879 0 -1.1117020590979376
v 0.33064616315119338 3 -1.1247499250438788
v 0.33064616315119338 0 -1.1247499250438788
v 0.29304570678791181 3 -1.1351270822361652
v 0.29304570678791181 0 -1.1351270822361652
v 0.27334141690027741 3 -1.1317005738056967
v 0.27334141690027741 0 -1.1317005738056967
v 0.23870743146366308 3 -1.4476017633028722
v 0.23870743146366308 0 -1.4476017633028722
v 0.21900314157602868 3 -1.4441752548724036
v 0.21900314157602868 0 -1.4441752548724036
v 0.18611163080227944 3 -1.4487812131878497
v 0.18611163080227944 0 -1.4487812131878497
v 0.168106475527391 3 -1.4574883587320078
v 0.168106475527391 0 -1.4574883587320078
v 0.048031926208624141 3 -1.1632517582234223
v 0.048031926208624141 0 -1.1632517582234223
v 0.030026770933735701 3 -1.1719589037675806
v 0.030026770933735701 0 -1.1719589037675806
v -0.0089778064533216212 3 -1.1723091222387136
v -0.0089778064533216143 0 -1.1723091222387136
v -0.027136407477677371 3 -1.1639266876974683
v -0.027136407477677427 0 -1.1639266876974683
v -0.14190817718858034 3 -1.4602719514530775
v -0.14190817718858026 0 -1.4602719514530775
v -0.16006677821293608 3 -1.4518895169118322
v -0.16006677821293608 0 -1.4518895169118322
v -0.19303569221081748 3 -1.4478749132223514
v -0.19303569221081748 0 -1.4478749132223514
v -0.21267527756418411 3 -1.4516546866478131
v -0.21267527756418411 0 -1.4516546866478131
v -0.25297611647176987 3 -1.136426329966028
v -0.25297611647176987 0 -1.136426329966028
v -0.2726157018251365 3 -1.1402061033914899
v -0.2726157018251365 0 -1.1402061033914899
v -0.31039643195686306 3 -1.1305057868588135
v -0.31039643195686312 0 -1.1305057868588135
v -0.32578589213661485 3 -1.1177322002295291
v -0.32578589213661491 0 -1.1177322002295291
v -0.51296259550932266 3 -1.3745550111079234
v -0.51296259550932255 0 -1.3745550111079234
v -0.5283520556890744 3 -1.361781424478639
v -0.5283520556890744 0 -1.361781424478639
v -0.53693966709518925 3 -1.0330331615417299
v -0.53693966709518925 0 -1.0330331615417299
v -0.55689044790225439 3 -1.0316308972341042
v -0.55689044790225439 0 -1.0316308972341042
v -0.55917706284988034 3 -1.3494167462976447
v -0.55917706284988034 0 -1.3494167462976447
v -0.57912784365694558 3 -1.3480144819900193
v -0.57912784365694558 0 -1.3480144819900193
v -0.59090182030272842 3 -1.0125336131979712
v -0.59090182030272842 0 -1.0125336131979712
v -0.60248526099710464 3 -0.99622950630185858
v -0.60248526099710464 0 -0.99622950630185858
v -0.78472642751991839 3 -0.86003846012665064
v -0.78472642751991839 0 -0.86003846012665064
v -0.8036442020839405 3 -0.85354863689756022
v -0.8036442020839405 0 -0.85354863689756022
v -0.83159467012491961 3 -0.82634108194657907
v -0.83159467012491961 0 -0.82634108194657907
v -0.83859164665929531 3 -0.80760495856479597
v -0.83859164665929531 0 -0.80760495856479597
v -0.84945570026962292 3 -1.1962261977707265
v -0.84945570026962292 0 -1.1962261977707265
v -0.86103914096399914 3 -1.1799220908746137
v -0.86103914096399914 0 -1.1799220908746137
v -0.88764337886673828 3 -1.1600404194509695
v -0.88764337886673828 0 -1.1600404194509695
v -0.90656115343076049 3 -1.1535505962218791
v -0.90656115343076049 0 -1.1535505962218791
v -1.1287159676461884 3 -0.93730057470060957
v -1.1287159676461884 0 -0.93730057470060957
v -1.135712944180564 3 -0.91856445131882647
v -1.135712944180564 0 -0.91856445131882647
vn 0.94143283367156982 0 0.3372005820274353
vn 0.94143283367156982 0 0.3372005820274353
vn 0.94143283367156982 0 -0.3372005820274353
vn 0.94143283367156982 0 -0.3372005820274353
vn 0.3372005820274353 0 -0.94143283367156982
vn 0.3372005820274353 0 -0.94143283367156982
vn 0.3372005820274353 0 0.94143283367156982
vn 0.3372005820274353 0 0.94143283367156982
vn 0.82293146848678589 0 -0.56814068555831909
vn 0.82293146848678589 0 -0.56814068555831909
vn 0.56814068555831909 0 0.82293146848678589
vn 0.56814068555831909 0 0.82293146848678589
vn 0.99650430679321289 0 0.08354128897190094
vn 0.99650430679321289 0 0.08354128897190094
vn 0.08354128897190094 0 -0.99650430679321289
vn 0.08354128897190094 0 -0.99650430679321289
vn 0.76080173254013062 0 0.64898437261581421
vn 0.76080173254013062 0 0.64898437261581421
vn 0.64898437261581421 0 -0.76080173254013062
vn 0.64898437261581421 0 -0.76080173254013062
vn 0.98443543910980225 0 -0.17574663460254669
vn 0.98443543910980225 0 -0.17574663460254669
vn -0.3372005820274353 0 0.94143283367156982
vn -0.3372005820274353 0 0.94143283367156982
vn -0.3372005820274353 0 -0.94143283367156982
vn -0.3372005820274353 0 -0.94143283367156982
vn -0.17574663460254669 0 -0.98443543910980225
vn -0.17574663460254669 0 -0.98443543910980225
vn -0.94143283367156982 0 -0.3372005820274353
vn -0.94143283367156982 0 -0.3372005820274353
vn -0.94143283367156982 0 0.3372005820274353
vn -0.94143283367156982 0 0.3372005820274353
vn 0.90220314264297485 0 0.43131130933761597
vn 0.90220314264297485 0 0.43131130933761597
vn 0.43131130933761597 0 -0.90220314264297485
vn 0.43131130933761597 0 -0.90220314264297485
vn -0.56814068555831909 0 -0.82293146848678589
vn -0.56814068555831909 0 -0.82293146848678589
vn -0.82293146848678589 0 0.56814068555831909
vn -0.82293146848678589 0 0.56814068555831909
vn -0.08354128897190094 0 0.99650430679321289
vn -0.08354128897190094 0 0.99650430679321289
vn -0.99650430679321289 0 -0.08354128897190094
vn -0.99650430679321289 0 -0.08354128897190094
vn -0.64898437261581421 0 0.76080173254013062
vn -0.64898437261581421 0 0.76080173254013062
vn -0.76080173254013062 0 -0.64898437261581421
vn -0.76080173254013062 0 -0.64898437261581421
vn 0.17574663460254669 0 0.98443543910980225
vn 0.17574663460254669 0 0.98443543910980225
vn -0.98443543910980225 0 0.17574663460254669
vn -0.98443543910980225 0 0.17574663460254669
vn 0.90603935718536377 0 -0.42319348454475403
vn 0.90603935718536377 0 -0.42319348454475403
vn -0.42319348454475403 0 -0.90603935718536377
vn -0.42319348454475403 0 -0.90603935718536377
vn 0.98281782865524292 0 0.18457832932472229
vn 0.98281782865524292 0 0.18457832932472229
vn 0.18457832932472229 0 -0.98281782865524292
vn 0.18457832932472229 0 -0.98281782865524292
vn -0.43131130933761597 0 0.90220314264297485
vn -0.43131130933761597 0 0.90220314264297485
vn -0.90220314264297485 0 -0.43131130933761597
vn -0.90220314264297485 0 -0.43131130933761597
vn 0.42319348454475403 0 0.90603935718536377
vn 0.42319348454475403 0 0.90603935718536377
vn -0.90603935718536377 0 0.42319348454475403
vn -0.90603935718536377 0 0.42319348454475403
vn -0.18457832932472229 0 0.98281782865524292
vn -0.18457832932472229 0 0.98281782865524292
vn -0.98281782865524292 0 -0.18457832932472229
vn -0.98281782865524292 0 -0.18457832932472229
vn 0.76659798622131348 0 -0.64212733507156372
vn 0.76659798622131348 0 -0.64212733507156372
vn -0.64212733507156372 0 -0.76659798622131348
vn -0.64212733507156372 0 -0.76659798622131348
vn 0.64212733507156372 0 0.76659798622131348
vn 0.64212733507156372 0 0.76659798622131348
vn -0.76659798622131348 0 0.64212733507156372
vn -0.76659798622131348 0 0.64212733507156372
vn 0.99721419811248779 0 -0.074590779840946198
vn 0.99721419811248779 0 -0.074590779840946198
vn -0.074590779840946198 0 -0.99721419811248779
vn -0.074590779840946198 0 -0.99721419811248779
vn 0.074590779840946198 0 0.99721419811248779
vn 0.074590779840946198 0 0.99721419811248779
vn -0.99721419811248779 0 0.074590779840946198
vn -0.99721419811248779 0 0.074590779840946198
vn 0.81779724359512329 0 0.57550644874572754
vn 0.81779724359512329 0 0.57550644874572754
vn -0.57550644874572754 0 0.81779724359512329
vn -0.57550644874572754 0 0.81779724359512329
vn 0.57550644874572754 0 -0.81779724359512329
vn 0.57550644874572754 0 -0.81779724359512329
vn -0.81779724359512329 0 -0.57550644874572754
vn -0.81779724359512329 0 -0.57550644874572754
vn 0.94442242383956909 0 -0.32873427867889404
vn 0.94442242383956909 0 -0.32873427867889404
vn -0.32873427867889404 0 -0.94442242383956909
vn -0.32873427867889404 0 -0.94442242383956909
vn 0.32873427867889404 0 0.94442242383956909
vn 0.32873427867889404 0 0.94442242383956909
vn -0.94442242383956909 0 0.32873427867889404
vn -0.94442242383956909 0 0.32873427867889404
vn 0.93836730718612671 0 0.34563970565795898
vn 0.93836730718612671 0 0.34563970565795898
vn -0.34563970565795898 0 0.93836730718612671
vn -0.34563970565795898 0 0.93836730718612671
vn 0.34563970565795898 0 -0.93836730718612671
vn 0.34563970565795898 0 -0.93836730718612671
vn -0.93836730718612671 0 -0.34563970565795898
vn -0.93836730718612671 0 -0.34563970565795898
vn 0.82799935340881348 0 -0.56072902679443359
vn 0.82799935340881348 0 -0.56072902679443359
vn -0.56072902679443359 0 -0.82799935340881348
vn -0.56072902679443359 0 -0.82799935340881348
vn 0.56072902679443359 0 0.82799935340881348
vn 0.56072902679443359 0 0.82799935340881348
vn -0.82799935340881348 0 0.56072902679443359
vn -0.82799935340881348 0 0.56072902679443359
vn 0.99571406841278076 0 0.092485107481479645
vn 0.99571406841278076 0 0.092485107481479645
vn -0.092485107481479645 0 0.99571406841278076
vn -0.092485107481479645 0 0.99571406841278076
vn 0.092485107481479645 0 -0.99571406841278076
vn 0.092485107481479645 0 -0.99571406841278076
vn -0.99571406841278076 0 -0.092485107481479645
vn -0.99571406841278076 0 -0.092485107481479645
vn 0.75494414567947388 0 0.65578913688659668
vn 0.75494414567947388 0 0.65578913688659668
vn -0.65578913688659668 0 0.75494414567947388
vn -0.65578913688659668 0 0.75494414567947388
vn 0.65578913688659668 0 -0.75494414567947388
vn 0.65578913688659668 0 -0.75494414567947388
vn -0.75494414567947388 0 -0.65578913688659668
vn -0.75494414567947388 0 -0.65578913688659668
vn 0.98597371578216553 0 -0.16690076887607574
vn 0.98597371578216553 0 -0.16690076887607574
vn 0.16690076887607574 0 0.98597371578216553
vn 0.16690076887607574 0 0.98597371578216553
vn 0.89829421043395996 0 0.43939444422721863
vn 0.89829421043395996 0 0.43939444422721863
vn -0.43939444422721863 0 0.89829421043395996
vn -0.43939444422721863 0 0.89829421043395996
vn 0.90980249643325806 0 -0.41504153609275818
vn 0.90980249643325806 0 -0.41504153609275818
vn 0.41504153609275818 0 0.90980249643325806
vn 0.41504153609275818 0 0.90980249643325806
vn -0.16690076887607574 0 -0.98597371578216553
vn -0.16690076887607574 0 -0.98597371578216553
vn -0.98597371578216553 0 0.16690076887607574
vn -0.98597371578216553 0 0.16690076887607574
vn 0.43939444422721863 0 -0.89829421043395996
vn 0.43939444422721863 0 -0.89829421043395996
vn -0.89829421043395996 0 -0.43939444422721863
vn -0.89829421043395996 0 -0.43939444422721863
vn -0.41504153609275818 0 -0.90980249643325806
vn -0.41504153609275818 0 -0.90980249643325806
vn -0.90980249643325806 0 0.41504153609275818
vn -0.90980249643325806 0 0.41504153609275818
f 6//6 30//30 29//29 5//5
f 30//30 24//24 23//23 29//29
f 24//24 2//2 1//1 23//23
f 2//2 6//6 5//5 1//1
f 16//16 44//44 43//43 15//15
f 44//44 42//42 41//41 43//43
f 42//42 14//14 13//13 41//41
f 14//14 16//16 15//15 13//13
f 28//28 52//52 51//51 27//27
f 52//52 50//50 49//49 51//51
f 50//50 22//22 21//21 49//49
f 22//22 28//28 27//27 21//21
f 56//56 68//68 67//67 55//55
f 68//68 66//66 65//65 67//67
f 66//66 54//54 53//53 65//65
f 54//54 56//56 55//55 53//53
f 76//76 80//80 79//79 75//75
f 80//80 78//78 77//77 79//79
f 78//78 74//74 73//73 77//77
f 74//74 76//76 75//75 73//73
f 96//96 92//92 91//91 95//95
f 92//92 90//90 89//89 91//91
f 90//90 94//94 93//93 89//89
f 94//94 96//96 95//95 93//93
f 112//112 108//108 107//107 111//111
f 108//108 106//106 105//105 107//107
f 106//106 110//110 109//109 105//105
f 110//110 112//112 111//111 109//109
f 128//128 124//124 123//123 127//127
f 124//124 122//122 121//121 123//123
f 122//122 126//126 125//125 121//121
f 126//126 128//128 127//127 125//125
f 152//152 140//140 139//139 151//151
f 140//140 138//138 137//137 139//139
f 138//138 150//150 149//149 137//137
f 150//150 152//152 151//151 149//149
f 160//160 148//148 147//147 159//159
f 148//148 146//146 145//145 147//147
f 146//146 158//158 157//157 145//145
f 158//158 160//160 159//159 157//157
f 8//8 4//4 3//3 7//7
f 4//4 26//26 25//25 3//3
f 26//26 32//32 31//31 25//25
f 32//32 8//8 7//7 31//31
f 12//12 10//10 9//9 11//11
f 10//10 38//38 37//37 9//9
f 38//38 40//40 39//39 37//37
f 40//40 12//12 11//11 39//39
f 18//18 20//20 19//19 17//17
f 20//20 48//48 47//47 19//19
f 48//48 46//46 45//45 47//47
f 46//46 18//18 17//17 45//45
f 34//34 36//36 35//35 33//33
f 36//36 64//64 63//63 35//35
f 64//64 62//62 61//61 63//63
f 62//62 34//34 33//33 61//61
f 58//58 60//60 59//59 57//57
f 60//60 72//72 71//71 59//59
f 72//72 70//70 69//69 71//71
f 70//70 58//58 57//57 69//69
f 82//82 84//84 83//83 81//81
f 84//84 88//88 87//87 83//83
f 88//88 86//86 85//85 87//87
f 86//86 82//82 81//81 85//85
f 98//98 100//100 99//99 97//97
f 100//100 104//104 103//103 99//99
f 104//104 102//102 101//101 103//103
f 102//102 98//98 97//97 101//101
f 114//114 116//116 115//115 113//113
f 116//116 120//120 119//119 115//115
f 120//120 118//118 117//117 119//119
f 118//118 114//114 113//113 117//117
f 134//134 136//136 135//135 133//133
f 136//136 132//132 131//131 135//135
f 132//132 130//130 129//129 131//131
f 130//130 134//134 133//133 129//129
f 154//154 156//156 155//155 153//153
f 156//156 144//144 143//143 155//155
f 144//144 142//142 141//141 143//143
f 142//142 154//154 153//153 141//141
