# Rhino

mtllib Pannelli59.mtl
usemtl diffuse_Black
v 1.4632750544507835 3 -0.14692986226919191
v 1.4632750544507835 0 -0.14692986226919191
v 1.4632750544507842 3 0.146929862269187
v 1.4632750544507842 0 0.146929862269187
v 1.4552233421098271 3 -0.16523750898794018
v 1.4552233421098271 0 -0.16523750898794012
v 1.4552233421098277 3 0.16523750898793518
v 1.4552233421098277 0 0.16523750898793518
v 1.4545358138035009 3 -0.21699731741976638
v 1.4545358138035009 0 -0.21699731741976638
v 1.4512277045434883 3 -0.19727280441883732
v 1.4512277045434883 0 -0.19727280441883732
v 1.3823547491130503 3 -0.50185417902911034
v 1.3823547491130503 0 -0.50185417902911034
v 1.3700527878768152 3 -0.51762319135525692
v 1.3700527878768152 0 -0.51762319135525692
v 1.3583107006800366 3 -0.54769558170204613
v 1.3583107006800366 0 -0.54769558170204613
v 1.3566725084167184 3 -0.56762837694276436
v 1.3566725084167184 0 -0.56762837694276436
v 1.216733143894124 3 -0.8260282839914791
v 1.216733143894124 0 -0.82602828399147921
v 1.200934714301553 3 -0.83829244406906211
v 1.200934714301553 0 -0.83829244406906223
v 1.1821656527389321 3 -0.86455929772466678
v 1.1821656527389321 0 -0.86455929772466678
v 1.1756815362355 3 -0.8834790290433171
v 1.1756815362355 0 -0.8834790290433171
v 1.1721595898495638 3 -0.018897132832016238
v 1.1721595898495638 0 -0.018897132832016279
v 1.172159589849564 3 0.018897132832012234
v 1.172159589849564 0 0.018897132832012234
v 1.1641078775086073 3 -0.037204779550764483
v 1.1641078775086073 0 -0.037204779550764469
v 1.1641078775086076 3 0.037204779550760424
v 1.1641078775086076 0 0.037204779550760424
v 1.1408903270562625 3 -0.26960056998274906
v 1.1408903270562625 0 -0.26960056998274906
v 1.1375822177962498 3 -0.24987605698182
v 1.1375822177962498 0 -0.24987605698182
v 1.1316068829262145 3 -0.30623694783547145
v 1.1316068829262145 0 -0.30623694783547145
v 1.1193049216899793 3 -0.32200596016161798
v 1.1193049216899793 0 -0.32200596016161798
v 1.0413532546222468 3 -0.5216461877428703
v 1.0413532546222468 0 -0.5216461877428703
v 1.0397150623589284 3 -0.54157898298358864
v 1.0397150623589284 0 -0.54157898298358864
v 1.0217170004335301 3 -0.57481264489455908
v 1.0217170004335301 0 -0.57481264489455908
v 1.005918570840959 3 -0.5870768049721421
v 1.005918570840959 0 -0.5870768049721421
v 0.97655840463888177 3 -1.0995889921846025
v 0.97655840463888166 0 -1.0995889921846023
v 0.95823152703600478 3 -1.1075968356726564
v 0.95823152703600467 0 -1.1075968356726564
v 0.93358553158226354 3 -1.1284486984431756
v 0.93358553158226354 0 -1.1284486984431756
v 0.92265279341012618 3 -1.1451960933468464
v 0.92265279341012618 0 -1.1451960933468464
v 0.88131724455336446 3 -0.76145338698562559
v 0.88131724455336446 0 -0.76145338698562559
v 0.8748331280499323 3 -0.78037311830427603
v 0.8748331280499323 0 -0.78037311830427603
v 0.84922324718844999 3 -0.80816773143962706
v 0.84922324718844999 0 -0.80816773143962717
v 0.830896369585573 3 -0.81617557492768111
v 0.830896369585573 0 -0.81617557492768111
v 0.67654680633143871 3 -1.3057743634514805
v 0.67654680633143871 0 -1.3057743634514805
v 0.66728010614222588 3 -0.9546039000788944
v 0.66728010614222588 0 -0.9546039000788944
v 0.65681442716649796 3 -1.3090352241493659
v 0.65681442716649796 0 -1.3090352241493659
v 0.65634736797008852 3 -0.97135129498256512
v 0.65634736797008852 0 -0.97135129498256512
v 0.6278016368457453 3 -1.3231944356637984
v 0.6278016368457453 0 -1.3231944356637984
v 0.62469486754060188 3 -0.99200379443528275
v 0.62469486754060188 0 -0.99200379443528275
v 0.61309016086433543 3 -1.3367433276645637
v 0.61309016086433543 0 -1.3367433276645637
v 0.60496248837566113 3 -0.9952646551331682
v 0.60496248837566113 0 -0.9952646551331682
v 0.41235657991249619 3 -1.0892627768825507
v 0.41235657991249619 0 -1.0892627768825507
v 0.39764510393108632 3 -1.1028116688833158
v 0.39764510393108632 0 -1.1028116688833158
v 0.36188943394278267 3 -1.1150566099109682
v 0.36188943394278267 0 -1.1150566099109682
v 0.34196061924321541 3 -1.1133706844469244
v 0.34196061924321541 0 -1.1133706844469244
v 0.33508101982555333 3 -1.4319507601719601
v 0.33508101982555333 0 -1.4319507601719601
v 0.31515220512598607 3 -1.4302648347079163
v 0.31515220512598607 0 -1.4302648347079163
v 0.28355032646031769 3 -1.4368638147584072
v 0.28355032646031769 0 -1.4368638147584072
v 0.26596153188897531 3 -1.4463840198784199
v 0.26596153188897531 0 -1.4463840198784199
v 0.13216664623159549 3 -1.1571790370218897
v 0.13216664623159549 0 -1.1571790370218897
v 0.11457785166025308 3 -1.1666992421419025
v 0.11457785166025308 0 -1.1666992421419025
v 0.076909876453907219 3 -1.1697863380162266
v 0.076909876453907219 0 -1.1697863380162266
v 0.058005728481074187 3 -1.1632569284394554
v 0.05800572848107418 0 -1.1632569284394554
v -0.026916253234670149 3 -1.4703869506752956
v -0.026916253234670149 0 -1.4703869506752956
v -0.045820401207503178 3 -1.4638575410985244
v -0.045820401207503192 0 -1.4638575410985244
v -0.078075019966390546 3 -1.4624919490565007
v -0.078075019966390546 0 -1.4624919490565007
v -0.097463411389094506 3 -1.4674001338574247
v -0.097463411389094506 0 -1.4674001338574247
v -0.15612156088015688 3 -1.1541912338635045
v -0.15612156088015688 0 -1.1541912338635045
v -0.17550995230286087 3 -1.1590994186644286
v -0.17550995230286087 0 -1.1590994186644286
v -0.21278219532518755 3 -1.1528395131405595
v -0.21278219532518758 0 -1.1528395131405595
v -0.22950335891984944 3 -1.1418666972740394
v -0.22950335891984944 0 -1.1418666972740394
v -0.38726428131029716 3 -1.4187278265494079
v -0.38726428131029716 0 -1.4187278265494079
v -0.40398544490495902 3 -1.4077550106828878
v -0.40398544490495902 0 -1.4077550106828878
v -0.43484370026977442 3 -1.0804824396697552
v -0.43484370026977442 0 -1.0804824396697552
v -0.43491646003067874 3 -1.3985085207435162
v -0.43491646003067874 0 -1.3985085207435162
v -0.45484369974634636 3 -1.0804778639595651
v -0.45484369974634636 0 -1.0804778639595651
v -0.45491645950725068 3 -1.3985039450333259
v -0.45491645950725068 0 -1.3985039450333259
v -0.48943642096009898 3 -1.0652545214845781
v -0.48943642096009904 0 -1.0652545214845781
v -0.50295004096492379 3 -1.0505106388763503
v -0.50295004096492379 0 -1.0505106388763503
v -0.68692157437102808 3 -0.94056902817530841
v -0.68692157437102808 0 -0.94056902817530841
v -0.70630771792098412 3 -0.93565197232241248
v -0.70630771792098412 0 -0.93565197232241248
v -0.72388338738121838 3 -1.2801387076711181
v -0.72388338738121827 0 -1.2801387076711181
v -0.73610131057897066 3 -0.91239797581400306
v -0.73610131057897077 0 -0.91239797581400306
v -0.73739700738604319 3 -1.2653948250628904
v -0.73739700738604308 0 -1.2653948250628904
v -0.7455793642441948 3 -0.89478643134115421
v -0.74557936424419491 0 -0.89478643134115421
v -0.76510917658317568 3 -1.2488339992593291
v -0.76510917658317568 0 -1.2488339992593291
v -0.78449532013313161 3 -1.243916943406433
v -0.78449532013313161 0 -1.243916943406433
v -1.0161478414259999 3 -1.0631113929262861
v -1.0161478414259999 0 -1.0631113929262861
v -1.025625895091224 3 -1.0454998484534372
v -1.025625895091224 0 -1.0454998484534372
vn 0.93194407224655151 0 0.36260205507278442
vn 0.93194407224655151 0 0.36260205507278442
vn 0.93194407224655151 0 -0.36260205507278442
vn 0.93194407224655151 0 -0.36260205507278442
vn 0.36260205507278442 0 -0.93194407224655151
vn 0.36260205507278442 0 -0.93194407224655151
vn 0.36260205507278442 0 0.93194407224655151
vn 0.36260205507278442 0 0.93194407224655151
vn 0.81432616710662842 0 -0.58040755987167358
vn 0.81432616710662842 0 -0.58040755987167358
vn 0.58040755987167358 0 0.81432616710662842
vn 0.58040755987167358 0 0.81432616710662842
vn 0.9924587607383728 0 0.12257875502109528
vn 0.9924587607383728 0 0.12257875502109528
vn 0.12257875502109528 0 -0.9924587607383728
vn 0.12257875502109528 0 -0.9924587607383728
vn 0.7626495361328125 0 0.64681190252304077
vn 0.7626495361328125 0 0.64681190252304077
vn 0.64681190252304077 0 -0.7626495361328125
vn 0.64681190252304077 0 -0.7626495361328125
vn 0.99216234683990479 0 -0.12495529651641846
vn 0.99216234683990479 0 -0.12495529651641846
vn -0.12495529651641846 0 -0.99216234683990479
vn -0.12495529651641846 0 -0.99216234683990479
vn 0.89816164970397949 0 0.43966537714004517
vn 0.89816164970397949 0 0.43966537714004517
vn 0.43966537714004517 0 -0.89816164970397949
vn 0.43966537714004517 0 -0.89816164970397949
vn -0.36260205507278442 0 0.93194407224655151
vn -0.36260205507278442 0 0.93194407224655151
vn -0.36260205507278442 0 -0.93194407224655151
vn -0.36260205507278442 0 -0.93194407224655151
vn -0.93194407224655151 0 -0.36260205507278442
vn -0.93194407224655151 0 -0.36260205507278442
vn -0.93194407224655151 0 0.36260205507278442
vn -0.93194407224655151 0 0.36260205507278442
vn -0.58040755987167358 0 -0.81432616710662842
vn -0.58040755987167358 0 -0.81432616710662842
vn -0.81432616710662842 0 0.58040755987167358
vn -0.81432616710662842 0 0.58040755987167358
vn -0.12257875502109528 0 0.9924587607383728
vn -0.12257875502109528 0 0.9924587607383728
vn -0.9924587607383728 0 -0.12257875502109528
vn -0.9924587607383728 0 -0.12257875502109528
vn -0.64681190252304077 0 0.7626495361328125
vn -0.64681190252304077 0 0.7626495361328125
vn -0.7626495361328125 0 -0.64681190252304077
vn -0.7626495361328125 0 -0.64681190252304077
vn 0.12495529651641846 0 0.99216234683990479
vn 0.12495529651641846 0 0.99216234683990479
vn -0.99216234683990479 0 0.12495529651641846
vn -0.99216234683990479 0 0.12495529651641846
vn 0.93107300996780396 0 -0.36483296751976013
vn 0.93107300996780396 0 -0.36483296751976013
vn -0.36483296751976013 0 -0.93107300996780396
vn -0.36483296751976013 0 -0.93107300996780396
vn 0.97864049673080444 0 0.20557917654514313
vn 0.97864049673080444 0 0.20557917654514313
vn 0.20557917654514313 0 -0.97864049673080444
vn 0.20557917654514313 0 -0.97864049673080444
vn -0.43966537714004517 0 0.89816164970397949
vn -0.43966537714004517 0 0.89816164970397949
vn -0.89816164970397949 0 -0.43966537714004517
vn -0.89816164970397949 0 -0.43966537714004517
vn 0.36483296751976013 0 0.93107300996780396
vn 0.36483296751976013 0 0.93107300996780396
vn -0.93107300996780396 0 0.36483296751976013
vn -0.93107300996780396 0 0.36483296751976013
vn 0.81293380260467529 0 -0.58235609531402588
vn 0.81293380260467529 0 -0.58235609531402588
vn -0.20557917654514313 0 0.97864049673080444
vn -0.20557917654514313 0 0.97864049673080444
vn -0.58235609531402588 0 -0.81293380260467529
vn -0.58235609531402588 0 -0.81293380260467529
vn -0.97864049673080444 0 -0.20557917654514313
vn -0.97864049673080444 0 -0.20557917654514313
vn 0.99915486574172974 0 -0.041103586554527283
vn 0.99915486574172974 0 -0.041103586554527283
vn 0.58235609531402588 0 0.81293380260467529
vn 0.58235609531402588 0 0.81293380260467529
vn -0.041103586554527283 0 -0.99915486574172974
vn -0.041103586554527283 0 -0.99915486574172974
vn -0.81293380260467529 0 0.58235609531402588
vn -0.81293380260467529 0 0.58235609531402588
vn 0.041103586554527283 0 0.99915486574172974
vn 0.041103586554527283 0 0.99915486574172974
vn -0.99915486574172974 0 0.041103586554527283
vn -0.99915486574172974 0 0.041103586554527283
vn 0.76419645547866821 0 0.64498353004455566
vn 0.76419645547866821 0 0.64498353004455566
vn -0.64498353004455566 0 0.76419645547866821
vn -0.64498353004455566 0 0.76419645547866821
vn 0.64498353004455566 0 -0.76419645547866821
vn 0.64498353004455566 0 -0.76419645547866821
vn -0.76419645547866821 0 -0.64498353004455566
vn -0.76419645547866821 0 -0.64498353004455566
vn 0.95844787359237671 0 -0.28526771068572998
vn 0.95844787359237671 0 -0.28526771068572998
vn -0.28526771068572998 0 -0.95844787359237671
vn -0.28526771068572998 0 -0.95844787359237671
vn 0.28526771068572998 0 0.95844787359237671
vn 0.28526771068572998 0 0.95844787359237671
vn -0.95844787359237671 0 0.28526771068572998
vn -0.95844787359237671 0 0.28526771068572998
vn 0.89921200275421143 0 0.43751311302185059
vn 0.89921200275421143 0 0.43751311302185059
vn -0.43751311302185059 0 0.89921200275421143
vn -0.43751311302185059 0 0.89921200275421143
vn 0.43751311302185059 0 -0.89921200275421143
vn 0.43751311302185059 0 -0.89921200275421143
vn -0.89921200275421143 0 -0.43751311302185059
vn -0.89921200275421143 0 -0.43751311302185059
vn 0.85901367664337158 0 -0.51195263862609863
vn 0.85901367664337158 0 -0.51195263862609863
vn -0.51195263862609863 0 -0.85901367664337158
vn -0.51195263862609863 0 -0.85901367664337158
vn 0.51195263862609863 0 0.85901367664337158
vn 0.51195263862609863 0 0.85901367664337158
vn -0.85901367664337158 0 0.51195263862609863
vn -0.85901367664337158 0 0.51195263862609863
vn 0.97913002967834473 0 0.20323479175567627
vn 0.97913002967834473 0 0.20323479175567627
vn -0.20323479175567627 0 0.97913002967834473
vn -0.20323479175567627 0 0.97913002967834473
vn 0.20323479175567627 0 -0.97913002967834473
vn 0.20323479175567627 0 -0.97913002967834473
vn -0.97913002967834473 0 -0.20323479175567627
vn -0.97913002967834473 0 -0.20323479175567627
vn 0.70726853609085083 0 0.70694500207901001
vn 0.70726853609085083 0 0.70694500207901001
vn 0.70694500207901001 0 -0.70726853609085083
vn 0.70694500207901001 0 -0.70726853609085083
vn -0.70694500207901001 0 0.70726853609085083
vn -0.70694500207901001 0 0.70726853609085083
vn -0.70726853609085083 0 -0.70694500207901001
vn -0.70726853609085083 0 -0.70694500207901001
vn 0.99905359745025635 0 -0.043496347963809967
vn 0.99905359745025635 0 -0.043496347963809967
vn 0.043496347963809967 0 0.99905359745025635
vn 0.043496347963809967 0 0.99905359745025635
vn 0.85924786329269409 0 0.51155948638916016
vn 0.85924786329269409 0 0.51155948638916016
vn -0.51155948638916016 0 0.85924786329269409
vn -0.51155948638916016 0 0.85924786329269409
vn -0.043496347963809967 0 -0.99905359745025635
vn -0.043496347963809967 0 -0.99905359745025635
vn 0.95776194334030151 0 -0.28756231069564819
vn 0.95776194334030151 0 -0.28756231069564819
vn -0.99905359745025635 0 0.043496347963809967
vn -0.99905359745025635 0 0.043496347963809967
vn 0.28756231069564819 0 0.95776194334030151
vn 0.28756231069564819 0 0.95776194334030151
vn 0.51155948638916016 0 -0.85924786329269409
vn 0.51155948638916016 0 -0.85924786329269409
vn -0.85924786329269409 0 -0.51155948638916016
vn -0.85924786329269409 0 -0.51155948638916016
vn -0.28756231069564819 0 -0.95776194334030151
vn -0.28756231069564819 0 -0.95776194334030151
vn -0.95776194334030151 0 0.28756231069564819
vn -0.95776194334030151 0 0.28756231069564819
f 6//6 34//34 33//33 5//5
f 34//34 30//30 29//29 33//33
f 30//30 2//2 1//1 29//29
f 2//2 6//6 5//5 1//1
f 16//16 44//44 43//43 15//15
f 44//44 42//42 41//41 43//43
f 42//42 14//14 13//13 41//41
f 14//14 16//16 15//15 13//13
f 24//24 52//52 51//51 23//23
f 52//52 50//50 49//49 51//51
f 50//50 22//22 21//21 49//49
f 22//22 24//24 23//23 21//21
f 56//56 68//68 67//67 55//55
f 68//68 66//66 65//65 67//67
f 66//66 54//54 53//53 65//65
f 54//54 56//56 55//55 53//53
f 74//74 84//84 83//83 73//73
f 84//84 80//80 79//79 83//83
f 80//80 70//70 69//69 79//79
f 70//70 74//74 73//73 69//69
f 96//96 92//92 91//91 95//95
f 92//92 90//90 89//89 91//91
f 90//90 94//94 93//93 89//89
f 94//94 96//96 95//95 93//93
f 112//112 108//108 107//107 111//111
f 108//108 106//106 105//105 107//107
f 106//106 110//110 109//109 105//105
f 110//110 112//112 111//111 109//109
f 128//128 124//124 123//123 127//127
f 124//124 122//122 121//121 123//123
f 122//122 126//126 125//125 121//121
f 126//126 128//128 127//127 125//125
f 150//150 140//140 139//139 149//149
f 140//140 138//138 137//137 139//139
f 138//138 146//146 145//145 137//137
f 146//146 150//150 149//149 145//145
f 160//160 152//152 151//151 159//159
f 152//152 148//148 147//147 151//151
f 148//148 158//158 157//157 147//147
f 158//158 160//160 159//159 157//157
f 8//8 4//4 3//3 7//7
f 4//4 32//32 31//31 3//3
f 32//32 36//36 35//35 31//31
f 36//36 8//8 7//7 35//35
f 12//12 10//10 9//9 11//11
f 10//10 38//38 37//37 9//9
f 38//38 40//40 39//39 37//37
f 40//40 12//12 11//11 39//39
f 18//18 20//20 19//19 17//17
f 20//20 48//48 47//47 19//19
f 48//48 46//46 45//45 47//47
f 46//46 18//18 17//17 45//45
f 26//26 28//28 27//27 25//25
f 28//28 64//64 63//63 27//27
f 64//64 62//62 61//61 63//63
f 62//62 26//26 25//25 61//61
f 58//58 60//60 59//59 57//57
f 60//60 76//76 75//75 59//59
f 76//76 72//72 71//71 75//75
f 72//72 58//58 57//57 71//71
f 78//78 82//82 81//81 77//77
f 82//82 88//88 87//87 81//81
f 88//88 86//86 85//85 87//87
f 86//86 78//78 77//77 85//85
f 98//98 100//100 99//99 97//97
f 100//100 104//104 103//103 99//99
f 104//104 102//102 101//101 103//103
f 102//102 98//98 97//97 101//101
f 114//114 116//116 115//115 113//113
f 116//116 120//120 119//119 115//115
f 120//120 118//118 117//117 119//119
f 118//118 114//114 113//113 117//117
f 132//132 136//136 135//135 131//131
f 136//136 134//134 133//133 135//135
f 134//134 130//130 129//129 133//133
f 130//130 132//132 131//131 129//129
f 154//154 156//156 155//155 153//153
f 156//156 144//144 143//143 155//155
f 144//144 142//142 141//141 143//143
f 142//142 154//154 153//153 141//141
