# Rhino

mtllib Pannelli115.mtl
usemtl diffuse_Black
v 1.3512402999737252 3 -0.27361772038161575
v 1.3512402999737252 0 -0.2736177203816158
v 1.3512402999737261 3 0.27361772038161031
v 1.3512402999737261 0 0.27361772038161031
v 1.335201842266182 3 -0.28556627152237496
v 1.335201842266182 0 -0.28556627152237501
v 1.3352018422661831 3 0.28556627152236952
v 1.3352018422661831 0 0.28556627152236952
v 1.3328169768016442 3 -0.35258461612673841
v 1.3328169768016442 0 -0.35258461612673841
v 1.3237218617911051 3 -0.33477229222037935
v 1.3237218617911051 0 -0.33477229222037935
v 1.1697938669510521 3 -0.030063425979206675
v 1.1697938669510521 0 -0.030063425979206634
v 1.1697938669510519 3 0.030063425979201815
v 1.1697938669510519 0 0.030063425979201815
v 1.1537554092435089 3 -0.04201197711996589
v 1.1537554092435089 0 -0.042011977119965856
v 1.1537554092435089 3 0.042011977119961012
v 1.1537554092435089 0 0.042011977119961012
v 1.0906533141710208 3 -0.84332221212753788
v 1.0906533141710208 0 -0.84332221212753788
v 1.0709832082449078 3 -0.84693979873403169
v 1.0709832082449078 0 -0.84693979873403169
v 1.0623253834210598 3 -0.49069978650616985
v 1.0623253834210598 0 -0.49069978650616985
v 1.0532302684105208 3 -0.47288746259981079
v 1.0532302684105208 0 -0.47288746259981079
v 1.0391874771178828 3 -0.90598366021760257
v 1.0391874771178828 0 -0.90598366021760257
v 1.0389137059632096 3 -0.88598553407151437
v 1.0389137059632096 0 -0.88598553407151437
v 1.0357179351308141 3 -0.54461900406271702
v 1.0357179351308141 0 -0.54461900406271702
v 1.016047829204701 3 -0.54823659066921082
v 1.016047829204701 0 -0.54823659066921082
v 0.73550307106740909 3 -0.91014105125981004
v 0.73550307106740909 0 -0.91014105125981004
v 0.735229299912736 3 -0.89014292511372206
v 0.735229299912736 0 -0.89014292511372206
v 0.68778220272796131 3 -0.9467191464994128
v 0.6877822027279612 0 -0.9467191464994128
v 0.66854202248106576 3 -0.94125879265859258
v 0.66854202248106565 0 -0.94125879265859258
v 0.60486321817603894 3 -1.2388936566459772
v 0.60486321817603894 0 -1.2388936566459772
v 0.58562303792914339 3 -1.2334333028051572
v 0.58562303792914339 0 -1.2334333028051572
v 0.53958587209983122 3 -1.2542564098510567
v 0.53958587209983122 0 -1.2542564098510567
v 0.53098176987205803 3 -1.2723110332161123
v 0.53098176987205803 0 -1.2723110332161123
v 0.26541480561946129 3 -1.1235975843415511
v 0.26541480561946129 0 -1.1235975843415511
v 0.25681070339168821 3 -1.1416522077066067
v 0.25681070339168821 0 -1.1416522077066067
v 0.19783003927711681 3 -1.1533363673696921
v 0.19783003927711684 0 -1.1533363673696921
v 0.1829925855765541 3 -1.139925552044603
v 0.18299258557655415 0 -1.139925552044603
v -0.0058218157467564693 3 -1.3786526435768096
v -0.0058218157467565439 0 -1.3786526435768096
v -0.020659269447319176 3 -1.3652418282517205
v -0.020659269447319259 0 -1.3652418282517205
v -0.071158133184670291 3 -1.3635426561365325
v -0.071158133184670291 0 -1.3635426561365325
v -0.08686349421266587 3 -1.3759257750885692
v -0.08686349421266587 0 -1.3759257750885692
v -0.25920375788623107 3 -1.125046649022982
v -0.25920375788623107 0 -1.125046649022982
v -0.27490911891422665 3 -1.1374297679750192
v -0.27490911891422665 0 -1.1374297679750192
v -0.33297098013537635 3 -1.1218073930606758
v -0.33297098013537635 0 -1.1218073930606758
v -0.3403420016397129 3 -1.1032152430509918
v -0.3403420016397129 0 -1.1032152430509918
v -0.50138789641977088 3 1.2700087528619453
v -0.50138789641977088 0 1.2700087528619455
v -0.52021751817015882 3 1.276750069108592
v -0.52021751817015882 0 1.2767500691085922
v -0.6037591188736201 3 0.98406883750941687
v -0.6037591188736201 0 0.98406883750941687
v -0.61530473439047939 3 -1.2337410948074059
v -0.6153047343904795 0 -1.2337410948074059
v -0.62258874062400804 3 0.99081015375606363
v -0.62258874062400804 0 0.99081015375606363
v -0.62267575589481594 3 -1.215148944797722
v -0.62267575589481605 0 -1.215148944797722
v -0.66720908000554391 3 -1.1912783463911165
v -0.66720908000554391 0 -1.1912783463911165
v -0.67266043091081251 3 0.95752255609190873
v -0.67266043091081251 0 0.95752255609190873
v -0.67373154011869907 3 0.93755125856108312
v -0.67373154011869907 0 0.93755125856108312
v -0.68677278468901193 3 -1.195433037602029
v -0.68677278468901193 0 -1.195433037602029
v -0.7303007378684977 3 -0.89419090962104542
v -0.7303007378684977 0 -0.89419090962104542
v -0.7498644425519656 3 -0.89834560083195825
v -0.7498644425519656 0 -0.89834560083195825
v -0.79340120775874723 3 -0.83870797904106442
v -0.79340120775874723 0 -0.83870797904106442
v -0.79501862085644481 3 -0.85864247113069092
v -0.79501862085644481 0 -0.85864247113069092
v -0.97593742718540999 3 0.97378803822938653
v -0.97593742718540999 0 0.97378803822938653
v -0.97689764351875163 3 0.61529468116317665
v -0.97689764351875175 0 0.61529468116317665
v -0.97700853639329666 3 0.95381674069856082
v -0.97700853639329666 0 0.95381674069856082
v -0.99676643185867486 3 0.61300748858201459
v -0.99676643185867486 0 0.61300748858201459
v -1.0116301337260465 3 0.91701500945165482
v -1.0116301337260465 0 0.91701500945165482
v -1.0190609041093808 3 0.54261535575023734
v -1.0190609041093808 0 0.54261535575023734
v -1.0269381150477035 3 0.56099875989183057
v -1.0269381150477035 0 0.56099875989183057
v -1.0314989220659698 3 0.91472781687049276
v -1.0314989220659698 0 0.91472781687049276
v -1.0506018642034418 3 -0.4786985204828168
v -1.0506018642034418 0 -0.4786985204828168
v -1.0699843088623173 3 -0.4737669042116931
v -1.0699843088623173 0 -0.4737669042116931
v -1.0826352851260419 3 -0.40102043586360892
v -1.0826352851260419 0 -0.40102043586360892
v -1.0929071619338921 3 -0.41818110446492912
v -1.0929071619338921 0 -0.41818110446492907
v -1.0961192897396577 3 -0.81414652101622742
v -1.0961192897396577 0 -0.81414652101622742
v -1.097736702837355 3 -0.83408101310585392
v -1.097736702837355 0 -0.83408101310585392
v -1.125491628735606 3 -0.77303340721360159
v -1.125491628735606 0 -0.77303340721360159
v -1.1448740733944816 3 -0.76810179094247788
v -1.1448740733944816 0 -0.76810179094247788
v -1.1483218517982414 3 0.1194716504566788
v -1.1483218517982414 0 0.11947165045667887
v -1.1539698878574001 3 0.035637739807182343
v -1.1539698878574001 0 0.035637739807182343
v -1.1651272079717387 3 0.10862821908640288
v -1.1651272079717387 0 0.10862821908640298
v -1.169168896214773 3 0.048637360761367404
v -1.169168896214773 0 0.048637360761367404
v -1.2982247181159059 3 0.42299484192490289
v -1.2982247181159059 0 0.42299484192490289
v -1.3061019290542288 3 0.44137824606649612
v -1.3061019290542288 0 0.44137824606649612
v -1.3129863304186773 3 0.37467179124654398
v -1.3129863304186773 0 0.37467179124654393
v -1.3297916865921746 3 0.36382835987626805
v -1.3297916865921746 0 0.36382835987626799
v -1.3432310736289734 3 -0.2450353808325503
v -1.3432310736289734 0 -0.24503538083255033
v -1.351377491925605 3 -0.1951689763744697
v -1.351377491925605 0 -0.1951689763744697
v -1.3535029504368237 3 -0.26219604943387048
v -1.3535029504368237 0 -0.26219604943387048
v -1.3665765002829779 3 -0.18216935542028462
v -1.3665765002829779 0 -0.18216935542028462
vn 0.98949021100997925 0 -0.14460001885890961
vn 0.98949021100997925 0 -0.14460001885890961
vn 0.98949021100997925 0 0.14460001885890961
vn 0.98949021100997925 0 0.14460001885890961
vn -0.14460001885890961 0 -0.98949021100997925
vn -0.14460001885890961 0 -0.98949021100997925
vn -0.14460001885890961 0 0.98949021100997925
vn -0.14460001885890961 0 0.98949021100997925
vn 0.95132160186767578 0 -0.30819985270500183
vn 0.95132160186767578 0 -0.30819985270500183
vn 0.30819985270500183 0 0.95132160186767578
vn 0.30819985270500183 0 0.95132160186767578
vn 0.14460001885890961 0 0.98949021100997925
vn 0.14460001885890961 0 0.98949021100997925
vn 0.14460001885890961 0 -0.98949021100997925
vn 0.14460001885890961 0 -0.98949021100997925
vn -0.98949021100997925 0 0.14460001885890961
vn -0.98949021100997925 0 0.14460001885890961
vn -0.98949021100997925 0 -0.14460001885890961
vn -0.98949021100997925 0 -0.14460001885890961
vn 0.82334423065185547 0 -0.56754231452941895
vn 0.82334423065185547 0 -0.56754231452941895
vn -0.56754231452941895 0 -0.82334423065185547
vn -0.56754231452941895 0 -0.82334423065185547
vn -0.30819985270500183 0 -0.95132160186767578
vn -0.30819985270500183 0 -0.95132160186767578
vn -0.95132160186767578 0 0.30819985270500183
vn -0.95132160186767578 0 0.30819985270500183
vn 0.71671980619430542 0 -0.69736123085021973
vn 0.71671980619430542 0 -0.69736123085021973
vn 0.69736123085021973 0 0.71671980619430542
vn 0.69736123085021973 0 0.71671980619430542
vn 0.56754231452941895 0 0.82334423065185547
vn 0.56754231452941895 0 0.82334423065185547
vn -0.82334423065185547 0 0.56754231452941895
vn -0.82334423065185547 0 0.56754231452941895
vn -0.69736123085021973 0 -0.71671980619430542
vn -0.69736123085021973 0 -0.71671980619430542
vn -0.71671980619430542 0 0.69736123085021973
vn -0.71671980619430542 0 0.69736123085021973
vn 0.87329578399658203 0 0.48719042539596558
vn 0.87329578399658203 0 0.48719042539596558
vn -0.48719042539596558 0 0.87329578399658203
vn -0.48719042539596558 0 0.87329578399658203
vn 0.48719042539596558 0 -0.87329578399658203
vn 0.48719042539596558 0 -0.87329578399658203
vn -0.87329578399658203 0 -0.48719042539596558
vn -0.87329578399658203 0 -0.48719042539596558
vn 0.94252830743789673 0 0.33412638306617737
vn 0.94252830743789673 0 0.33412638306617737
vn 0.33412638306617737 0 -0.94252830743789673
vn 0.33412638306617737 0 -0.94252830743789673
vn -0.33412638306617737 0 0.94252830743789673
vn -0.33412638306617737 0 0.94252830743789673
vn -0.94252830743789673 0 -0.33412638306617737
vn -0.94252830743789673 0 -0.33412638306617737
vn 0.99872714281082153 0 0.050439286977052689
vn 0.99872714281082153 0 0.050439286977052689
vn -0.050439286977052689 0 0.99872714281082153
vn -0.050439286977052689 0 0.99872714281082153
vn 0.050439286977052689 0 -0.99872714281082153
vn 0.050439286977052689 0 -0.99872714281082153
vn -0.99872714281082153 0 -0.050439286977052689
vn -0.99872714281082153 0 -0.050439286977052689
vn 0.99307775497436523 0 -0.1174590140581131
vn 0.99307775497436523 0 -0.1174590140581131
vn -0.1174590140581131 0 -0.99307775497436523
vn -0.1174590140581131 0 -0.99307775497436523
vn 0.1174590140581131 0 0.99307775497436523
vn 0.1174590140581131 0 0.99307775497436523
vn -0.99307775497436523 0 0.1174590140581131
vn -0.99307775497436523 0 0.1174590140581131
vn 0.91793674230575562 0 -0.39672678709030151
vn 0.91793674230575562 0 -0.39672678709030151
vn 0.39672678709030151 0 0.91793674230575562
vn 0.39672678709030151 0 0.91793674230575562
vn 0.90406918525695801 0 0.42738613486289978
vn 0.90406918525695801 0 0.42738613486289978
vn -0.42738613486289978 0 0.90406918525695801
vn -0.42738613486289978 0 0.90406918525695801
vn 0.42738613486289978 0 -0.90406918525695801
vn 0.42738613486289978 0 -0.90406918525695801
vn -0.39672678709030151 0 -0.91793674230575562
vn -0.39672678709030151 0 -0.91793674230575562
vn -0.90406918525695801 0 -0.42738613486289978
vn -0.90406918525695801 0 -0.42738613486289978
vn -0.91793674230575562 0 0.39672678709030151
vn -0.91793674230575562 0 0.39672678709030151
vn 0.83857190608978271 0 -0.54479092359542847
vn 0.83857190608978271 0 -0.54479092359542847
vn 0.7439613938331604 0 0.66822260618209839
vn 0.7439613938331604 0 0.66822260618209839
vn 0.66822260618209839 0 -0.7439613938331604
vn 0.66822260618209839 0 -0.7439613938331604
vn -0.54479092359542847 0 -0.83857190608978271
vn -0.54479092359542847 0 -0.83857190608978271
vn 0.54479092359542847 0 0.83857190608978271
vn 0.54479092359542847 0 0.83857190608978271
vn -0.83857190608978271 0 0.54479092359542847
vn -0.83857190608978271 0 0.54479092359542847
vn 0.76197487115859985 0 0.64760655164718628
vn 0.76197487115859985 0 0.64760655164718628
vn 0.64760655164718628 0 -0.76197487115859985
vn 0.64760655164718628 0 -0.76197487115859985
vn -0.66822260618209839 0 0.7439613938331604
vn -0.66822260618209839 0 0.7439613938331604
vn 0.7833322286605835 0 -0.62160331010818481
vn 0.7833322286605835 0 -0.62160331010818481
vn -0.7439613938331604 0 -0.66822260618209839
vn -0.7439613938331604 0 -0.66822260618209839
vn -0.62160331010818481 0 -0.7833322286605835
vn -0.62160331010818481 0 -0.7833322286605835
vn 0.62160331010818481 0 0.7833322286605835
vn 0.62160331010818481 0 0.7833322286605835
vn 0.92845296859741211 0 -0.3714500367641449
vn 0.92845296859741211 0 -0.3714500367641449
vn 0.3714500367641449 0 0.92845296859741211
vn 0.3714500367641449 0 0.92845296859741211
vn -0.7833322286605835 0 0.62160331010818481
vn -0.7833322286605835 0 0.62160331010818481
vn 0.85963183641433716 0 0.51091396808624268
vn 0.85963183641433716 0 0.51091396808624268
vn -0.51091396808624268 0 0.85963183641433716
vn -0.51091396808624268 0 0.85963183641433716
vn 0.96988695859909058 0 0.24355554580688477
vn 0.96988695859909058 0 0.24355554580688477
vn 0.24355554580688477 0 -0.96988695859909058
vn 0.24355554580688477 0 -0.96988695859909058
vn -0.64760655164718628 0 0.76197487115859985
vn -0.64760655164718628 0 0.76197487115859985
vn -0.76197487115859985 0 -0.64760655164718628
vn -0.76197487115859985 0 -0.64760655164718628
vn 0.51091396808624268 0 -0.85963183641433716
vn 0.51091396808624268 0 -0.85963183641433716
vn -0.85963183641433716 0 -0.51091396808624268
vn -0.85963183641433716 0 -0.51091396808624268
vn 0.97753226757049561 0 -0.21078586578369141
vn 0.97753226757049561 0 -0.21078586578369141
vn 0.99697208404541016 0 0.077760092914104462
vn 0.99697208404541016 0 0.077760092914104462
vn -0.21078586578369141 0 -0.97753226757049561
vn -0.21078586578369141 0 -0.97753226757049561
vn -0.077760092914104462 0 0.99697208404541016
vn -0.077760092914104462 0 0.99697208404541016
vn -0.3714500367641449 0 -0.92845296859741211
vn -0.3714500367641449 0 -0.92845296859741211
vn -0.92845296859741211 0 0.3714500367641449
vn -0.92845296859741211 0 0.3714500367641449
vn 0.21078586578369141 0 0.97753226757049561
vn 0.21078586578369141 0 0.97753226757049561
vn -0.97753226757049561 0 0.21078586578369141
vn -0.97753226757049561 0 0.21078586578369141
vn -0.24355554580688477 0 0.96988695859909058
vn -0.24355554580688477 0 0.96988695859909058
vn 0.077760092914104462 0 -0.99697208404541016
vn 0.077760092914104462 0 -0.99697208404541016
vn -0.96988695859909058 0 -0.24355554580688477
vn -0.96988695859909058 0 -0.24355554580688477
vn -0.99697208404541016 0 -0.077760092914104462
vn -0.99697208404541016 0 -0.077760092914104462
f 6//6 18//18 17//17 5//5
f 18//18 14//14 13//13 17//17
f 14//14 2//2 1//1 13//13
f 2//2 6//6 5//5 1//1
f 24//24 36//36 35//35 23//23
f 36//36 34//34 33//33 35//35
f 34//34 22//22 21//21 33//33
f 22//22 24//24 23//23 21//21
f 48//48 44//44 43//43 47//47
f 44//44 42//42 41//41 43//43
f 42//42 46//46 45//45 41//41
f 46//46 48//48 47//47 45//45
f 64//64 60//60 59//59 63//63
f 60//60 58//58 57//57 59//59
f 58//58 62//62 61//61 57//57
f 62//62 64//64 63//63 61//61
f 88//88 76//76 75//75 87//87
f 76//76 74//74 73//73 75//75
f 74//74 84//84 83//83 73//73
f 84//84 88//88 87//87 83//83
f 130//130 102//102 101//101 129//129
f 102//102 104//104 103//103 101//101
f 104//104 132//132 131//131 103//103
f 132//132 130//130 129//129 131//131
f 154//154 126//126 125//125 153//153
f 126//126 128//128 127//127 125//125
f 128//128 158//158 157//157 127//127
f 158//158 154//154 153//153 157//157
f 150//150 138//138 137//137 149//149
f 138//138 142//142 141//141 137//137
f 142//142 152//152 151//151 141//141
f 152//152 150//150 149//149 151//151
f 114//114 108//108 107//107 113//113
f 108//108 112//112 111//111 107//107
f 112//112 120//120 119//119 111//111
f 120//120 114//114 113//113 119//119
f 78//78 82//82 81//81 77//77
f 82//82 86//86 85//85 81//81
f 86//86 80//80 79//79 85//85
f 80//80 78//78 77//77 79//79
f 8//8 4//4 3//3 7//7
f 4//4 16//16 15//15 3//3
f 16//16 20//20 19//19 15//15
f 20//20 8//8 7//7 19//19
f 12//12 10//10 9//9 11//11
f 10//10 26//26 25//25 9//9
f 26//26 28//28 27//27 25//25
f 28//28 12//12 11//11 27//27
f 32//32 30//30 29//29 31//31
f 30//30 38//38 37//37 29//29
f 38//38 40//40 39//39 37//37
f 40//40 32//32 31//31 39//39
f 50//50 52//52 51//51 49//49
f 52//52 56//56 55//55 51//51
f 56//56 54//54 53//53 55//55
f 54//54 50//50 49//49 53//53
f 66//66 68//68 67//67 65//65
f 68//68 72//72 71//71 67//67
f 72//72 70//70 69//69 71//71
f 70//70 66//66 65//65 69//69
f 90//90 96//96 95//95 89//89
f 96//96 100//100 99//99 95//95
f 100//100 98//98 97//97 99//99
f 98//98 90//90 89//89 97//97
f 134//134 136//136 135//135 133//133
f 136//136 124//124 123//123 135//135
f 124//124 122//122 121//121 123//123
f 122//122 134//134 133//133 121//121
f 156//156 160//160 159//159 155//155
f 160//160 144//144 143//143 159//159
f 144//144 140//140 139//139 143//143
f 140//140 156//156 155//155 139//139
f 146//146 148//148 147//147 145//145
f 148//148 118//118 117//117 147//147
f 118//118 116//116 115//115 117//117
f 116//116 146//146 145//145 115//115
f 110//110 106//106 105//105 109//109
f 106//106 92//92 91//91 105//105
f 92//92 94//94 93//93 91//91
f 94//94 110//110 109//109 93//93
