# Rhino

mtllib Pannelli97.mtl
usemtl diffuse_Black
v 1.393823966819141 3 -0.23917069642323124
v 1.393823966819141 0 -0.23917069642323119
v 1.3938239668191403 3 0.23917069642323507
v 1.3938239668191403 0 0.23917069642323507
v 1.3800116160407561 3 -0.25363509983211252
v 1.3800116160407561 0 -0.25363509983211247
v 1.3800116160407554 3 0.25363509983211635
v 1.3800116160407554 0 0.25363509983211635
v 1.3784502351497316 3 -0.31594749836431513
v 1.3784502351497316 0 -0.31594749836431513
v 1.3712721938013359 3 -0.29727999391404836
v 1.3712721938013359 0 -0.29727999391404836
v 1.1942696247382145 3 -0.75740869808490052
v 1.1942696247382145 0 -0.75740869808490041
v 1.1759528331627762 3 -0.76543958510825982
v 1.1759528331627762 0 -0.76543958510825971
v 1.1711966657546196 3 -0.026579392916015441
v 1.1711966657546196 0 -0.026579392916015458
v 1.1711966657546196 3 0.02657939291601874
v 1.1711966657546196 0 0.02657939291601874
v 1.1573843149762346 3 -0.041043796324896707
v 1.1573843149762346 0 -0.041043796324896742
v 1.1573843149762346 3 0.041043796324900003
v 1.1573843149762346 0 0.041043796324900003
v 1.1510821879751565 3 -0.80235442343180929
v 1.1510821879751565 0 -0.80235442343180929
v 1.1505190637646421 3 -0.82234649413805538
v 1.1505190637646421 0 -0.82234649413805538
v 1.0911313588785501 3 -0.42642754563274993
v 1.0911313588785501 0 -0.42642754563274993
v 1.0839533175301541 3 -0.40776004118248321
v 1.0839533175301541 0 -0.40776004118248321
v 1.0706630954798568 3 -0.47548778110484902
v 1.0706630954798568 0 -0.47548778110484907
v 1.0523463039044185 3 -0.48351866812820832
v 1.0523463039044185 0 -0.48351866812820837
v 0.84337639339742709 3 -0.79368715803502576
v 0.84337639339742709 0 -0.79368715803502576
v 0.84281326918691268 3 -0.81367922874127185
v 0.84281326918691268 0 -0.81367922874127185
v 0.81055854831062701 3 -1.1588540513229386
v 0.81055854831062701 0 -1.1588540513229386
v 0.80503295474490399 3 -0.8510758108283959
v 0.80503295474490399 0 -0.85107581082839601
v 0.79056177069304923 3 -1.159213056772971
v 0.79056177069304923 0 -1.159213056772971
v 0.78503617712732621 3 -0.8514348162784281
v 0.78503617712732621 0 -0.85143481627842821
v 0.75339496350492086 3 -1.18370556019632
v 0.75339496350492086 0 -1.18370556019632
v 0.74517750765766233 3 -1.2019394138591739
v 0.74517750765766233 0 -1.2019394138591739
v 0.47275057643852603 3 -1.0572274770581822
v 0.47275057643852603 0 -1.0572274770581822
v 0.46453312059126745 3 -1.0754613307210359
v 0.46453312059126745 0 -1.0754613307210359
v 0.41526649092481649 3 -1.0954276952485325
v 0.41526649092481649 0 -1.0954276952485325
v 0.39667323637161023 3 -1.0880594603771616
v 0.39667323637161028 0 -1.0880594603771616
v 0.30185910061271115 3 -1.3816037622575816
v 0.3018591006127111 0 -1.3816037622575816
v 0.28326584605950489 3 -1.3742355273862108
v 0.28326584605950489 0 -1.3742355273862108
v 0.23953400968717628 3 -1.3825289445351403
v 0.23953400968717628 0 -1.3825289445351403
v 0.22492935635958367 3 -1.3961929154506845
v 0.22492935635958367 0 -1.3961929154506845
v 0.029226478794889019 3 -1.1577430020116812
v 0.029226478794889019 0 -1.1577430020116812
v 0.014621825467296443 3 -1.1714069729272256
v 0.014621825467296443 0 -1.1714069729272256
v -0.038534190351881471 3 -1.1708643004961963
v -0.038534190351881478 0 -1.1708643004961963
v -0.052856836411707561 3 -1.1569050093306337
v -0.052856836411707589 0 -1.1569050093306337
v -0.25338711094001037 3 -1.3913097586506371
v -0.25338711094001037 0 -1.3913097586506371
v -0.26770975699983646 3 -1.3773504674850745
v -0.26770975699983646 0 -1.3773504674850745
v -0.31126316027072287 3 -1.3681659509476718
v -0.31126316027072287 0 -1.3681659509476718
v -0.33000296915498067 3 -1.3751530507023269
v -0.33000296915498067 0 -1.3751530507023269
v -0.4188043506451784 3 -1.0797342087988313
v -0.4188043506451784 0 -1.0797342087988313
v -0.43754415952943626 3 -1.0867213085534861
v -0.43754415952943626 0 -1.0867213085534861
v -0.48639288791828383 3 -1.0657532794155662
v -0.48639288791828383 0 -1.0657532794155662
v -0.49423636916633662 3 -1.0473554588405238
v -0.49423636916633662 0 -1.0473554588405238
v -0.7695609539842585 3 -1.1864753729470565
v -0.7695609539842585 0 -1.1864753729470565
v -0.77740443523231129 3 -1.1680775523720142
v -0.77740443523231129 0 -1.1680775523720142
v -0.80225542359860136 3 -0.83523007673119409
v -0.80225542359860136 0 -0.83523007673119409
v -0.81406345755387499 3 -1.1428313573531728
v -0.81406345755387499 0 -1.1428313573531728
v -0.82224070388870962 3 -0.83446289244706462
v -0.82224070388870962 0 -0.83446289244706462
v -0.83404873784398337 3 -1.1420641730690433
v -0.83404873784398337 0 -1.1420641730690433
v -0.85924965627786498 3 -0.79630278298452095
v -0.85924965627786498 0 -0.79630278298452095
v -0.85940450555310266 3 -0.77630338245095576
v -0.85940450555310266 0 -0.77630338245095576
v -1.0422554619951954 3 0.5049025625909912
v -1.0422554619951954 0 0.5049025625909912
v -1.0607323942122977 3 0.49724730453886717
v -1.0607323942122977 0 0.49724730453886717
v -1.0619984696027494 3 -0.4619332163107413
v -1.0619984696027494 0 -0.4619332163107413
v -1.0754025738841859 3 0.42980501375976965
v -1.0754025738841859 0 0.42980501375976965
v -1.0801474850835417 3 -0.45353004803455127
v -1.0801474850835417 0 -0.45353004803455127
v -1.0821980038736099 3 0.44861517407962986
v -1.0821980038736099 0 0.44861517407962986
v -1.0920522094117799 3 -0.38554509164119549
v -1.0920522094117799 0 -0.38554509164119549
v -1.0996098699140451 3 -0.40406215857234073
v -1.0996098699140451 0 -0.40406215857234073
v -1.156305135026463 3 0.064664367940934928
v -1.156305135026463 0 0.064664367940934928
v -1.1579810330558451 3 -0.017406115381841319
v -1.1579810330558451 0 -0.017406115381841319
v -1.1600805385586974 3 0.7892882669415705
v -1.1600805385586974 0 0.7892882669415705
v -1.1670682671002193 3 -0.79868612886083767
v -1.1670682671002193 0 -0.79868612886083767
v -1.1672231163754567 3 -0.77868672832727248
v -1.1672231163754567 0 -0.77868672832727248
v -1.1704099117899194 3 0.050484971887044615
v -1.1704099117899194 0 0.050484971887044656
v -1.1714952000965251 3 -0.0026627341822451391
v -1.1714952000965251 0 -0.0026627341822451391
v -1.1785574707757998 3 0.78163300888944642
v -1.1785574707757998 0 0.78163300888944642
v -1.1913349255101195 3 -0.74127182567130034
v -1.1913349255101195 0 -0.74127182567130034
v -1.2094839409909119 3 -0.73286865739511031
v -1.2094839409909119 0 -0.73286865739511031
v -1.3649171225471601 3 0.32521388785204974
v -1.3649171225471601 0 0.32521388785204974
v -1.3717125525365841 3 0.34402404817191001
v -1.3717125525365841 0 0.34402404817191001
v -1.3745457762038402 3 0.28175651437801241
v -1.3745457762038402 0 0.28175651437801236
v -1.3770556428738716 3 -0.26922217721334407
v -1.3770556428738716 0 -0.26922217721334413
v -1.3846133033761368 3 -0.28773924414448931
v -1.3846133033761368 0 -0.28773924414448937
v -1.384902190620916 3 -0.22540795613210582
v -1.384902190620916 0 -0.22540795613210582
v -1.3886505529672966 3 0.26757711832412207
v -1.3886505529672966 0 0.26757711832412212
v -1.398416357661596 3 -0.21066457493250965
v -1.398416357661596 0 -0.21066457493250965
vn 0.99973422288894653 0 0.023053526878356934
vn 0.99973422288894653 0 0.023053526878356934
vn 0.99973422288894653 0 -0.023053526878356934
vn 0.99973422288894653 0 -0.023053526878356934
vn 0.023053526878356934 0 -0.99973422288894653
vn 0.023053526878356934 0 -0.99973422288894653
vn 0.023053526878356934 0 0.99973422288894653
vn 0.023053526878356934 0 0.99973422288894653
vn 0.91377806663513184 0 -0.40621384978294373
vn 0.91377806663513184 0 -0.40621384978294373
vn 0.40621384978294373 0 0.91377806663513184
vn 0.40621384978294373 0 0.91377806663513184
vn 0.93153113126754761 0 -0.36366164684295654
vn 0.93153113126754761 0 -0.36366164684295654
vn -0.36366164684295654 0 -0.93153113126754761
vn -0.36366164684295654 0 -0.93153113126754761
vn -0.023053526878356934 0 0.99973422288894653
vn -0.023053526878356934 0 0.99973422288894653
vn -0.023053526878356934 0 -0.99973422288894653
vn -0.023053526878356934 0 -0.99973422288894653
vn -0.99973422288894653 0 -0.023053526878356934
vn -0.99973422288894653 0 -0.023053526878356934
vn -0.99973422288894653 0 0.023053526878356934
vn -0.99973422288894653 0 0.023053526878356934
vn 0.72673588991165161 0 0.6869170069694519
vn 0.72673588991165161 0 0.6869170069694519
vn 0.6869170069694519 0 -0.72673588991165161
vn 0.6869170069694519 0 -0.72673588991165161
vn -0.40621384978294373 0 -0.91377806663513184
vn -0.40621384978294373 0 -0.91377806663513184
vn -0.91377806663513184 0 0.40621384978294373
vn -0.91377806663513184 0 0.40621384978294373
vn 0.36366164684295654 0 0.93153113126754761
vn 0.36366164684295654 0 0.93153113126754761
vn -0.93153113126754761 0 0.36366164684295654
vn -0.93153113126754761 0 0.36366164684295654
vn -0.6869170069694519 0 0.72673588991165161
vn -0.6869170069694519 0 0.72673588991165161
vn -0.72673588991165161 0 -0.6869170069694519
vn -0.72673588991165161 0 -0.6869170069694519
vn 0.71968561410903931 0 -0.69430011510848999
vn 0.71968561410903931 0 -0.69430011510848999
vn 0.69430011510848999 0 0.71968561410903931
vn 0.69430011510848999 0 0.71968561410903931
vn -0.69430011510848999 0 -0.71968561410903931
vn -0.69430011510848999 0 -0.71968561410903931
vn -0.71968561410903931 0 0.69430011510848999
vn -0.71968561410903931 0 0.69430011510848999
vn 0.93519502878189087 0 0.35413315892219543
vn 0.93519502878189087 0 0.35413315892219543
vn 0.35413315892219543 0 -0.93519502878189087
vn 0.35413315892219543 0 -0.93519502878189087
vn -0.35413315892219543 0 0.93519502878189087
vn -0.35413315892219543 0 0.93519502878189087
vn -0.93519502878189087 0 -0.35413315892219543
vn -0.93519502878189087 0 -0.35413315892219543
vn 0.91787725687026978 0 0.39686432480812073
vn 0.91787725687026978 0 0.39686432480812073
vn -0.39686432480812073 0 0.91787725687026978
vn -0.39686432480812073 0 0.91787725687026978
vn 0.39686432480812073 0 -0.91787725687026978
vn 0.39686432480812073 0 -0.91787725687026978
vn -0.91787725687026978 0 -0.39686432480812073
vn -0.91787725687026978 0 -0.39686432480812073
vn 0.9994468092918396 0 -0.033258121460676193
vn 0.9994468092918396 0 -0.033258121460676193
vn -0.033258121460676193 0 -0.9994468092918396
vn -0.033258121460676193 0 -0.9994468092918396
vn 0.033258121460676193 0 0.9994468092918396
vn 0.033258121460676193 0 0.9994468092918396
vn -0.9994468092918396 0 0.033258121460676193
vn -0.9994468092918396 0 0.033258121460676193
vn 0.99991750717163086 0 0.012846528552472591
vn 0.99991750717163086 0 0.012846528552472591
vn -0.012846528552472591 0 0.99991750717163086
vn -0.012846528552472591 0 0.99991750717163086
vn 0.012846528552472591 0 -0.99991750717163086
vn 0.012846528552472591 0 -0.99991750717163086
vn -0.99991750717163086 0 -0.012846528552472591
vn -0.99991750717163086 0 -0.012846528552472591
vn 0.90958356857299805 0 -0.41552099585533142
vn 0.90958356857299805 0 -0.41552099585533142
vn -0.41552099585533142 0 -0.90958356857299805
vn -0.41552099585533142 0 -0.90958356857299805
vn 0.41552099585533142 0 0.90958356857299805
vn 0.41552099585533142 0 0.90958356857299805
vn -0.90958356857299805 0 0.41552099585533142
vn -0.90958356857299805 0 0.41552099585533142
vn 0.92777013778686523 0 -0.3731522262096405
vn 0.92777013778686523 0 -0.3731522262096405
vn 0.3731522262096405 0 0.92777013778686523
vn 0.3731522262096405 0 0.92777013778686523
vn -0.3731522262096405 0 -0.92777013778686523
vn -0.3731522262096405 0 -0.92777013778686523
vn -0.92777013778686523 0 0.3731522262096405
vn -0.92777013778686523 0 0.3731522262096405
vn 0.73371040821075439 0 0.67946231365203857
vn 0.73371040821075439 0 0.67946231365203857
vn 0.67946231365203857 0 -0.73371040821075439
vn 0.67946231365203857 0 -0.73371040821075439
vn -0.67946231365203857 0 0.73371040821075439
vn -0.67946231365203857 0 0.73371040821075439
vn -0.73371040821075439 0 -0.67946231365203857
vn -0.73371040821075439 0 -0.67946231365203857
vn 0.71256035566329956 0 -0.70161086320877075
vn 0.71256035566329956 0 -0.70161086320877075
vn 0.70161086320877075 0 0.71256035566329956
vn 0.70161086320877075 0 0.71256035566329956
vn 0.92391246557235718 0 -0.38260394334793091
vn 0.92391246557235718 0 -0.38260394334793091
vn -0.38260394334793091 0 -0.92391246557235718
vn -0.38260394334793091 0 -0.92391246557235718
vn 0.93876147270202637 0 0.34456774592399597
vn 0.93876147270202637 0 0.34456774592399597
vn 0.90529435873031616 0 -0.42478483915328979
vn 0.90529435873031616 0 -0.42478483915328979
vn -0.34456774592399597 0 0.93876147270202637
vn -0.34456774592399597 0 0.93876147270202637
vn 0.42478483915328979 0 0.90529435873031616
vn 0.42478483915328979 0 0.90529435873031616
vn 0.92188084125518799 0 0.38747352361679077
vn 0.92188084125518799 0 0.38747352361679077
vn 0.38747352361679077 0 -0.92188084125518799
vn 0.38747352361679077 0 -0.92188084125518799
vn 0.99999654293060303 0 0.002638224046677351
vn 0.99999654293060303 0 0.002638224046677351
vn 0.99905520677566528 0 -0.043459299951791763
vn 0.99905520677566528 0 -0.043459299951791763
vn 0.38260394334793091 0 0.92391246557235718
vn 0.38260394334793091 0 0.92391246557235718
vn -0.70161086320877075 0 -0.71256035566329956
vn -0.70161086320877075 0 -0.71256035566329956
vn -0.71256035566329956 0 0.70161086320877075
vn -0.71256035566329956 0 0.70161086320877075
vn 0.002638224046677351 0 -0.99999654293060303
vn 0.002638224046677351 0 -0.99999654293060303
vn 0.043459299951791763 0 0.99905520677566528
vn 0.043459299951791763 0 0.99905520677566528
vn -0.92391246557235718 0 0.38260394334793091
vn -0.92391246557235718 0 0.38260394334793091
vn 0.34456774592399597 0 -0.93876147270202637
vn 0.34456774592399597 0 -0.93876147270202637
vn -0.93876147270202637 0 -0.34456774592399597
vn -0.93876147270202637 0 -0.34456774592399597
vn -0.42478483915328979 0 -0.90529435873031616
vn -0.42478483915328979 0 -0.90529435873031616
vn -0.90529435873031616 0 0.42478483915328979
vn -0.90529435873031616 0 0.42478483915328979
vn -0.002638224046677351 0 0.99999654293060303
vn -0.002638224046677351 0 0.99999654293060303
vn -0.38747352361679077 0 0.92188084125518799
vn -0.38747352361679077 0 0.92188084125518799
vn -0.92188084125518799 0 -0.38747352361679077
vn -0.92188084125518799 0 -0.38747352361679077
vn -0.043459299951791763 0 -0.99905520677566528
vn -0.043459299951791763 0 -0.99905520677566528
vn -0.99999654293060303 0 -0.002638224046677351
vn -0.99999654293060303 0 -0.002638224046677351
vn -0.99905520677566528 0 0.043459299951791763
vn -0.99905520677566528 0 0.043459299951791763
f 6//6 22//22 21//21 5//5
f 22//22 18//18 17//17 21//21
f 18//18 2//2 1//1 17//17
f 2//2 6//6 5//5 1//1
f 16//16 36//36 35//35 15//15
f 36//36 34//34 33//33 35//35
f 34//34 14//14 13//13 33//33
f 14//14 16//16 15//15 13//13
f 46//46 48//48 47//47 45//45
f 48//48 44//44 43//43 47//47
f 44//44 42//42 41//41 43//43
f 42//42 46//46 45//45 41//41
f 64//64 60//60 59//59 63//63
f 60//60 58//58 57//57 59//59
f 58//58 62//62 61//61 57//57
f 62//62 64//64 63//63 61//61
f 80//80 76//76 75//75 79//79
f 76//76 74//74 73//73 75//75
f 74//74 78//78 77//77 73//73
f 78//78 80//80 79//79 77//77
f 96//96 92//92 91//91 95//95
f 92//92 90//90 89//89 91//91
f 90//90 94//94 93//93 89//89
f 94//94 96//96 95//95 93//93
f 134//134 108//108 107//107 133//133
f 108//108 106//106 105//105 107//107
f 106//106 132//132 131//131 105//105
f 132//132 134//134 133//133 131//131
f 152//152 122//122 121//121 151//151
f 122//122 124//124 123//123 121//121
f 124//124 154//154 153//153 123//123
f 154//154 152//152 151//151 153//153
f 150//150 126//126 125//125 149//149
f 126//126 136//136 135//135 125//125
f 136//136 158//158 157//157 135//135
f 158//158 150//150 149//149 157//157
f 130//130 110//110 109//109 129//129
f 110//110 112//112 111//111 109//109
f 112//112 140//140 139//139 111//111
f 140//140 130//130 129//129 139//139
f 8//8 4//4 3//3 7//7
f 4//4 20//20 19//19 3//3
f 20//20 24//24 23//23 19//19
f 24//24 8//8 7//7 23//23
f 12//12 10//10 9//9 11//11
f 10//10 30//30 29//29 9//9
f 30//30 32//32 31//31 29//29
f 32//32 12//12 11//11 31//31
f 26//26 28//28 27//27 25//25
f 28//28 40//40 39//39 27//27
f 40//40 38//38 37//37 39//39
f 38//38 26//26 25//25 37//37
f 50//50 52//52 51//51 49//49
f 52//52 56//56 55//55 51//51
f 56//56 54//54 53//53 55//55
f 54//54 50//50 49//49 53//53
f 66//66 68//68 67//67 65//65
f 68//68 72//72 71//71 67//67
f 72//72 70//70 69//69 71//71
f 70//70 66//66 65//65 69//69
f 82//82 84//84 83//83 81//81
f 84//84 88//88 87//87 83//83
f 88//88 86//86 85//85 87//87
f 86//86 82//82 81//81 85//85
f 100//100 104//104 103//103 99//99
f 104//104 102//102 101//101 103//103
f 102//102 98//98 97//97 101//101
f 98//98 100//100 99//99 97//97
f 142//142 144//144 143//143 141//141
f 144//144 118//118 117//117 143//143
f 118//118 114//114 113//113 117//117
f 114//114 142//142 141//141 113//113
f 156//156 160//160 159//159 155//155
f 160//160 138//138 137//137 159//159
f 138//138 128//128 127//127 137//137
f 128//128 156//156 155//155 127//127
f 146//146 148//148 147//147 145//145
f 148//148 120//120 119//119 147//147
f 120//120 116//116 115//115 119//119
f 116//116 146//146 145//145 115//115
