# Rhino

mtllib Pannelli73.mtl
usemtl diffuse_Black
v 1.4412758010208946 3 -0.18359391919971405
v 1.4412758010208946 0 -0.18359391919971402
v 1.441275801020897 3 0.18359391919969226
v 1.441275801020897 0 0.18359391919969226
v 1.4309688665886824 3 -0.20073355462786935
v 1.4309688665886824 0 -0.20073355462786932
v 1.4309688665886851 3 0.20073355462784767
v 1.4309688665886851 0 0.20073355462784767
v 1.430114205508596 3 -0.25642936840004971
v 1.430114205508596 0 -0.25642936840004971
v 1.4254128149789567 3 -0.23698979723482558
v 1.4254128149789567 0 -0.23698979723482558
v 1.320157727449861 3 -0.60676703637388807
v 1.320157727449861 0 -0.60676703637388807
v 1.3051912150953495 3 -0.62003366774519886
v 1.3051912150953495 0 -0.62003366774519886
v 1.2890329922776758 3 -0.65296232810116872
v 1.2890329922776758 0 -0.65296232810116872
v 1.2876973473171844 3 -0.67291767957738957
v 1.2876973473171844 0 -0.67291767957738957
v 1.1721191896202086 3 -0.021736360599247433
v 1.1721191896202086 0 -0.021736360599247467
v 1.1721191896202088 3 0.021736360599229822
v 1.1721191896202088 0 0.021736360599229822
v 1.1618122551879964 3 -0.03887599602740275
v 1.1618122551879964 0 -0.038875996027402757
v 1.1618122551879968 3 0.038875996027385215
v 1.1618122551879968 0 0.038875996027385215
v 1.1248399700182004 3 -0.33025884681184386
v 1.1248399700182004 0 -0.33025884681184386
v 1.120138579488561 3 -0.31081927564661976
v 1.120138579488561 0 -0.31081927564661976
v 1.1118218174142072 3 -0.37173661424428517
v 1.1118218174142072 0 -0.37173661424428522
v 1.0968553050596956 3 -0.38500324561559596
v 1.0968553050596956 0 -0.38500324561559601
v 1.0778761491553241 3 -0.97425133762167426
v 1.0778761491553241 0 -0.97425133762167426
v 1.0596236789033442 3 -0.98242735925206237
v 1.0596236789033442 0 -0.98242735925206237
v 1.0343462795729661 3 -1.009006259164531
v 1.0343462795729661 0 -1.009006259164531
v 1.027096184038611 3 -1.0276458974320168
v 1.027096184038611 0 -1.0276458974320168
v 0.97565906987637763 3 -0.6319876887567526
v 0.97565906987637763 0 -0.6319876887567526
v 0.97432342491588597 3 -0.65194304023297356
v 0.97432342491588597 0 -0.65194304023297356
v 0.94948192011828125 3 -0.68761904236032967
v 0.94948192011828125 0 -0.68761904236032967
v 0.9312294498663013 3 -0.69579506399071778
v 0.93122944986630118 0 -0.69579506399071778
v 0.74163399319786449 3 -0.89515254538292532
v 0.74163399319786449 0 -0.89515254538292532
v 0.73666756450844062 3 -1.2523192728600543
v 0.73666756450844062 0 -1.2523192728600543
v 0.73438389766350953 3 -0.91379218365041104
v 0.73438389766350953 0 -0.91379218365041104
v 0.71680434017714734 3 -1.254654293023717
v 0.71680434017714734 0 -1.254654293023717
v 0.6999989832286253 3 -0.94039209244172528
v 0.6999989832286253 0 -0.94039209244172517
v 0.68472771310191405 3 -1.2724440325648356
v 0.68472771310191405 0 -1.2724440325648356
v 0.68013575889733202 3 -0.942727112605388
v 0.68013575889733202 0 -0.94272711260538788
v 0.67222857762324184 3 -1.2880572196925744
v 0.67222857762324184 0 -1.2880572196925744
v 0.43954206968013343 3 -1.0761606889091635
v 0.43954206968013343 0 -1.0761606889091635
v 0.42704293420146117 3 -1.0917738760369025
v 0.42704293420146117 0 -1.0917738760369025
v 0.38627044269075644 3 -1.10685636337852
v 0.38627044269075644 0 -1.10685636337852
v 0.36661950241040248 3 -1.1031360749356762
v 0.36661950241040248 0 -1.1031360749356762
v 0.327847949697466 3 -1.4154498873696308
v 0.327847949697466 0 -1.4154498873696308
v 0.30819700941711203 3 -1.4117295989267871
v 0.30819700941711203 0 -1.4117295989267871
v 0.27226513354388165 3 -1.4190974435027248
v 0.27226513354388165 0 -1.4190974435027248
v 0.25566412336419619 3 -1.4302512079351475
v 0.25566412336419619 0 -1.4302512079351475
v 0.097109165286774324 3 -1.1583992702818171
v 0.097109165286774324 0 -1.1583992702818171
v 0.080508155107088891 3 -1.1695530347142398
v 0.080508155107088891 0 -1.1695530347142398
v 0.037090168140832894 3 -1.1717338364472198
v 0.037090168140832866 0 -1.1717338364472198
v 0.019455066703374321 3 -1.1622996858606254
v 0.019455066703374324 0 -1.1622996858606254
v -0.11106140800998256 3 -1.4486711239706453
v -0.11106140800998257 0 -1.4486711239706453
v -0.12869650944744113 3 -1.4392369733840509
v -0.12869650944744113 0 -1.4392369733840509
v -0.16518582210608421 3 -1.4355067054091994
v -0.16518582210608421 0 -1.4355067054091994
v -0.18436507345913858 3 -1.4411773594752098
v -0.18436507345913858 0 -1.4411773594752098
v -0.2542363762576379 3 -1.1343204681039327
v -0.2542363762576379 0 -1.1343204681039327
v -0.27341562761069227 3 -1.139991122169943
v -0.27341562761069227 0 -1.139991122169943
v -0.31549422598456633 3 -1.1290700852553108
v -0.31549422598456633 0 -1.1290700852553108
v -0.32949494660350936 3 -1.1147879347817198
v -0.32949494660350936 0 -1.1147879347817198
v -0.53977759776922651 3 -1.3489339519494701
v -0.53977759776922651 0 -1.3489339519494701
v -0.5537783183881696 3 -1.334651801475879
v -0.5537783183881696 0 -1.334651801475879
v -0.58224821324912324 3 -1.0061342244155815
v -0.58224821324912324 0 -1.0061342244155815
v -0.58747609451279248 3 -1.3201657833301215
v -0.58747609451279248 0 -1.3201657833301215
v -0.60224544238914191 3 -1.0058013179398511
v -0.60224544238914191 0 -1.0058013179398511
v -0.60747332365281115 3 -1.319832876854391
v -0.60747332365281115 0 -1.319832876854391
v -0.63912269662788201 3 -0.9827807704178686
v -0.63912269662788213 0 -0.9827807704178686
v -0.64820405635087386 3 -0.9649614296449438
v -0.64820405635087397 0 -0.9649614296449438
v -0.85682156128630971 3 -0.78560541717011545
v -0.85682156128630971 0 -0.78560541717011545
v -0.87580143117970666 3 -0.77929950416487004
v -0.87580143117970666 0 -0.77929950416487004
v -0.90409276285360052 3 -0.74629226192141274
v -0.90409276285360052 0 -0.74629226192141274
v -0.9074212784166239 3 -0.72657118223122574
v -0.9074212784166239 0 -0.72657118223122574
v -0.91895323327720868 3 -1.1253922057775669
v -0.91895323327720857 0 -1.1253922057775669
v -0.92803459300020053 3 -1.1075728650046421
v -0.92803459300020041 0 -1.1075728650046421
v -0.9558480652859942 3 -1.0836606171623377
v -0.9558480652859942 0 -1.0836606171623377
v -0.97482793517939104 3 -1.0773547041570926
v -0.97482793517939104 0 -1.0773547041570926
v -1.0527561973503043 3 -0.49297408482867255
v -1.0527561973503043 0 -0.49297408482867255
v -1.0689767437547291 3 -0.4812739192596775
v -1.0689767437547291 0 -0.4812739192596775
v -1.0833557683757926 3 -0.42149654624805311
v -1.0833557683757926 0 -0.42149654624805311
v -1.0860855866901835 3 -0.4413093726988756
v -1.0860855866901835 0 -0.4413093726988756
v -1.2137877388537366 3 -0.7985624501464279
v -1.2137877388537366 0 -0.7985624501464279
v -1.2171162544167597 3 -0.77884137045624091
v -1.2171162544167597 0 -0.77884137045624091
v -1.2364927144179043 3 -0.7476975486726436
v -1.2364927144179043 0 -0.7476975486726436
v -1.252713260822329 3 -0.73599738310364859
v -1.252713260822329 0 -0.73599738310364859
v -1.394491512897706 3 -0.37862815209107831
v -1.394491512897706 0 -0.37862815209107831
v -1.3972213312120969 3 -0.3984409785419008
v -1.3972213312120969 0 -0.3984409785419008
vn 0.97038280963897705 0 0.24157245457172394
vn 0.97038280963897705 0 0.24157245457172394
vn 0.97038280963897705 0 -0.24157245457172394
vn 0.97038280963897705 0 -0.24157245457172394
vn 0.24157245457172394 0 -0.97038280963897705
vn 0.24157245457172394 0 -0.97038280963897705
vn 0.24157245457172394 0 0.97038280963897705
vn 0.24157245457172394 0 0.97038280963897705
vn 0.85351186990737915 0 -0.52107340097427368
vn 0.85351186990737915 0 -0.52107340097427368
vn 0.52107340097427368 0 0.85351186990737915
vn 0.52107340097427368 0 0.85351186990737915
vn 0.99819236993789673 0 -0.06009988859295845
vn 0.99819236993789673 0 -0.06009988859295845
vn -0.06009988859295845 0 -0.99819236993789673
vn -0.06009988859295845 0 -0.99819236993789673
vn 0.75275039672851563 0 0.6583060622215271
vn 0.75275039672851563 0 0.6583060622215271
vn 0.6583060622215271 0 -0.75275039672851563
vn 0.6583060622215271 0 -0.75275039672851563
vn -0.24157245457172394 0 0.97038280963897705
vn -0.24157245457172394 0 0.97038280963897705
vn -0.24157245457172394 0 -0.97038280963897705
vn -0.24157245457172394 0 -0.97038280963897705
vn -0.97038280963897705 0 -0.24157245457172394
vn -0.97038280963897705 0 -0.24157245457172394
vn -0.97038280963897705 0 0.24157245457172394
vn -0.97038280963897705 0 0.24157245457172394
vn -0.52107340097427368 0 -0.85351186990737915
vn -0.52107340097427368 0 -0.85351186990737915
vn -0.85351186990737915 0 0.52107340097427368
vn -0.85351186990737915 0 0.52107340097427368
vn 0.06009988859295845 0 0.99819236993789673
vn 0.06009988859295845 0 0.99819236993789673
vn -0.99819236993789673 0 0.06009988859295845
vn -0.99819236993789673 0 0.06009988859295845
vn 0.93438827991485596 0 -0.35625627636909485
vn 0.93438827991485596 0 -0.35625627636909485
vn -0.35625627636909485 0 -0.93438827991485596
vn -0.35625627636909485 0 -0.93438827991485596
vn 0.91534030437469482 0 0.4026811420917511
vn 0.91534030437469482 0 0.4026811420917511
vn 0.4026811420917511 0 -0.91534030437469482
vn 0.4026811420917511 0 -0.91534030437469482
vn -0.6583060622215271 0 0.75275039672851563
vn -0.6583060622215271 0 0.75275039672851563
vn -0.75275039672851563 0 -0.6583060622215271
vn -0.75275039672851563 0 -0.6583060622215271
vn 0.35625627636909485 0 0.93438827991485596
vn 0.35625627636909485 0 0.93438827991485596
vn -0.93438827991485596 0 0.35625627636909485
vn -0.93438827991485596 0 0.35625627636909485
vn -0.4026811420917511 0 0.91534030437469482
vn -0.4026811420917511 0 0.91534030437469482
vn 0.78482645750045776 0 -0.61971563100814819
vn 0.78482645750045776 0 -0.61971563100814819
vn -0.91534030437469482 0 -0.4026811420917511
vn -0.91534030437469482 0 -0.4026811420917511
vn -0.61971563100814819 0 -0.78482645750045776
vn -0.61971563100814819 0 -0.78482645750045776
vn 0.61971563100814819 0 0.78482645750045776
vn 0.61971563100814819 0 0.78482645750045776
vn 0.99392068386077881 0 0.11009835451841354
vn 0.99392068386077881 0 0.11009835451841354
vn -0.78482645750045776 0 0.61971563100814819
vn -0.78482645750045776 0 0.61971563100814819
vn 0.11009835451841354 0 -0.99392068386077881
vn 0.11009835451841354 0 -0.99392068386077881
vn -0.11009835451841354 0 0.99392068386077881
vn -0.11009835451841354 0 0.99392068386077881
vn -0.99392068386077881 0 -0.11009835451841354
vn -0.99392068386077881 0 -0.11009835451841354
vn 0.82629776000976563 0 0.56323355436325073
vn 0.82629776000976563 0 0.56323355436325073
vn -0.56323355436325073 0 0.82629776000976563
vn -0.56323355436325073 0 0.82629776000976563
vn 0.56323355436325073 0 -0.82629776000976563
vn 0.56323355436325073 0 -0.82629776000976563
vn -0.82629776000976563 0 -0.56323355436325073
vn -0.82629776000976563 0 -0.56323355436325073
vn 0.98127949237823486 0 -0.19258922338485718
vn 0.98127949237823486 0 -0.19258922338485718
vn -0.19258922338485718 0 -0.98127949237823486
vn -0.19258922338485718 0 -0.98127949237823486
vn 0.19258922338485718 0 0.98127949237823486
vn 0.19258922338485718 0 0.98127949237823486
vn -0.98127949237823486 0 0.19258922338485718
vn -0.98127949237823486 0 0.19258922338485718
vn 0.95704257488250732 0 0.28994739055633545
vn 0.95704257488250732 0 0.28994739055633545
vn -0.28994739055633545 0 0.95704257488250732
vn -0.28994739055633545 0 0.95704257488250732
vn 0.28994739055633545 0 -0.95704257488250732
vn 0.28994739055633545 0 -0.95704257488250732
vn -0.95704257488250732 0 -0.28994739055633545
vn -0.95704257488250732 0 -0.28994739055633545
vn 0.87857687473297119 0 -0.47760099172592163
vn 0.87857687473297119 0 -0.47760099172592163
vn -0.47760099172592163 0 -0.87857687473297119
vn -0.47760099172592163 0 -0.87857687473297119
vn 0.47760099172592163 0 0.87857687473297119
vn 0.47760099172592163 0 0.87857687473297119
vn -0.87857687473297119 0 0.47760099172592163
vn -0.87857687473297119 0 0.47760099172592163
vn 0.99995046854019165 0 -0.0099500278010964394
vn 0.99995046854019165 0 -0.0099500278010964394
vn 0.0099500278010964394 0 0.99995046854019165
vn 0.0099500278010964394 0 0.99995046854019165
vn -0.0099500278010964394 0 -0.99995046854019165
vn -0.0099500278010964394 0 -0.99995046854019165
vn -0.99995046854019165 0 0.0099500278010964394
vn -0.99995046854019165 0 0.0099500278010964394
vn 0.71877884864807129 0 0.69523882865905762
vn 0.71877884864807129 0 0.69523882865905762
vn 0.69523882865905762 0 -0.71877884864807129
vn 0.69523882865905762 0 -0.71877884864807129
vn -0.69523882865905762 0 0.71877884864807129
vn -0.69523882865905762 0 0.71877884864807129
vn -0.71877884864807129 0 -0.69523882865905762
vn -0.71877884864807129 0 -0.69523882865905762
vn 0.95108336210250854 0 -0.30893430113792419
vn 0.95108336210250854 0 -0.30893430113792419
vn 0.30893430113792419 0 0.95108336210250854
vn 0.30893430113792419 0 0.95108336210250854
vn 0.89398741722106934 0 0.44809204339981079
vn 0.89398741722106934 0 0.44809204339981079
vn -0.44809204339981079 0 0.89398741722106934
vn -0.44809204339981079 0 0.89398741722106934
vn 0.81492626667022705 0 -0.57956469058990479
vn 0.81492626667022705 0 -0.57956469058990479
vn 0.57956469058990479 0 0.81492626667022705
vn 0.57956469058990479 0 0.81492626667022705
vn -0.30893430113792419 0 -0.95108336210250854
vn -0.30893430113792419 0 -0.95108336210250854
vn -0.95108336210250854 0 0.30893430113792419
vn -0.95108336210250854 0 0.30893430113792419
vn 0.44809204339981079 0 -0.89398741722106934
vn 0.44809204339981079 0 -0.89398741722106934
vn -0.89398741722106934 0 -0.44809204339981079
vn -0.89398741722106934 0 -0.44809204339981079
vn 0.98714625835418701 0 0.15981961786746979
vn 0.98714625835418701 0 0.15981961786746979
vn -0.15981961786746979 0 0.98714625835418701
vn -0.15981961786746979 0 0.98714625835418701
vn 0.79700285196304321 0 0.60397559404373169
vn 0.79700285196304321 0 0.60397559404373169
vn 0.60397559404373169 0 -0.79700285196304321
vn 0.60397559404373169 0 -0.79700285196304321
vn -0.57956469058990479 0 -0.81492626667022705
vn -0.57956469058990479 0 -0.81492626667022705
vn -0.81492626667022705 0 0.57956469058990479
vn -0.81492626667022705 0 0.57956469058990479
vn 0.15981961786746979 0 -0.98714625835418701
vn 0.15981961786746979 0 -0.98714625835418701
vn -0.98714625835418701 0 -0.15981961786746979
vn -0.98714625835418701 0 -0.15981961786746979
vn -0.60397559404373169 0 0.79700285196304321
vn -0.60397559404373169 0 0.79700285196304321
vn -0.79700285196304321 0 -0.60397559404373169
vn -0.79700285196304321 0 -0.60397559404373169
f 6//6 26//26 25//25 5//5
f 26//26 22//22 21//21 25//25
f 22//22 2//2 1//1 21//21
f 2//2 6//6 5//5 1//1
f 16//16 36//36 35//35 15//15
f 36//36 34//34 33//33 35//35
f 34//34 14//14 13//13 33//33
f 14//14 16//16 15//15 13//13
f 40//40 52//52 51//51 39//39
f 52//52 50//50 49//49 51//51
f 50//50 38//38 37//37 49//49
f 38//38 40//40 39//39 37//37
f 60//60 66//66 65//65 59//59
f 66//66 62//62 61//61 65//65
f 62//62 56//56 55//55 61//61
f 56//56 60//60 59//59 55//55
f 80//80 76//76 75//75 79//79
f 76//76 74//74 73//73 75//75
f 74//74 78//78 77//77 73//73
f 78//78 80//80 79//79 77//77
f 96//96 92//92 91//91 95//95
f 92//92 90//90 89//89 91//91
f 90//90 94//94 93//93 89//89
f 94//94 96//96 95//95 93//93
f 112//112 108//108 107//107 111//111
f 108//108 106//106 105//105 107//107
f 106//106 110//110 109//109 105//105
f 110//110 112//112 111//111 109//109
f 136//136 124//124 123//123 135//135
f 124//124 122//122 121//121 123//123
f 122//122 134//134 133//133 121//121
f 134//134 136//136 135//135 133//133
f 152//152 132//132 131//131 151//151
f 132//132 130//130 129//129 131//131
f 130//130 150//150 149//149 129//129
f 150//150 152//152 151//151 149//149
f 158//158 146//146 145//145 157//157
f 146//146 148//148 147//147 145//145
f 148//148 160//160 159//159 147//147
f 160//160 158//158 157//157 159//159
f 8//8 4//4 3//3 7//7
f 4//4 24//24 23//23 3//3
f 24//24 28//28 27//27 23//23
f 28//28 8//8 7//7 27//27
f 12//12 10//10 9//9 11//11
f 10//10 30//30 29//29 9//9
f 30//30 32//32 31//31 29//29
f 32//32 12//12 11//11 31//31
f 18//18 20//20 19//19 17//17
f 20//20 48//48 47//47 19//19
f 48//48 46//46 45//45 47//47
f 46//46 18//18 17//17 45//45
f 42//42 44//44 43//43 41//41
f 44//44 58//58 57//57 43//43
f 58//58 54//54 53//53 57//57
f 54//54 42//42 41//41 53//53
f 64//64 68//68 67//67 63//63
f 68//68 72//72 71//71 67//67
f 72//72 70//70 69//69 71//71
f 70//70 64//64 63//63 69//69
f 82//82 84//84 83//83 81//81
f 84//84 88//88 87//87 83//83
f 88//88 86//86 85//85 87//87
f 86//86 82//82 81//81 85//85
f 98//98 100//100 99//99 97//97
f 100//100 104//104 103//103 99//99
f 104//104 102//102 101//101 103//103
f 102//102 98//98 97//97 101//101
f 116//116 120//120 119//119 115//115
f 120//120 118//118 117//117 119//119
f 118//118 114//114 113//113 117//117
f 114//114 116//116 115//115 113//113
f 138//138 140//140 139//139 137//137
f 140//140 128//128 127//127 139//139
f 128//128 126//126 125//125 127//127
f 126//126 138//138 137//137 125//125
f 154//154 156//156 155//155 153//153
f 156//156 144//144 143//143 155//155
f 144//144 142//142 141//141 143//143
f 142//142 154//154 153//153 141//141
