# Rhino

mtllib Pannelli141.mtl
usemtl diffuse_Black
v 1.281466586719697 3 -0.31060139857255764
v 1.281466586719697 0 -0.31060139857255764
v 1.281466586719699 3 0.31060139857254815
v 1.281466586719699 0 0.31060139857254815
v 1.2629988846244442 3 -0.31827889681879595
v 1.2629988846244442 0 -0.31827889681879595
v 1.2629988846244462 3 0.31827889681878657
v 1.2629988846244462 0 0.31827889681878657
v 1.2591400098168206 3 -0.39140296032702149
v 1.2591400098168206 0 -0.39140296032702149
v 1.2472341053890292 3 -0.37533281907822419
v 1.2472341053890292 0 -0.37533281907822419
v 1.1667374362503908 3 -0.034628196814196092
v 1.1667374362503908 0 -0.03462819681419612
v 1.1667374362503908 3 0.034628196814187495
v 1.1667374362503908 0 0.034628196814187495
v 1.148269734155138 3 -0.042305695060434377
v 1.148269734155138 0 -0.042305695060434419
v 1.148269734155138 3 0.042305695060425946
v 1.148269734155138 0 0.042305695060425946
v 1.018994900789979 3 -0.56931954939801399
v 1.018994900789979 0 -0.56931954939801399
v 1.0070889963621878 3 -0.55324940814921653
v 1.0070889963621878 0 -0.55324940814921653
v 0.98343676014084158 3 -0.62875074231878381
v 0.98343676014084158 0 -0.62875074231878381
v 0.96364717745113848 3 -0.62585722940756316
v 0.96364717745113848 0 -0.62585722940756316
v 0.94019737830979189 3 -0.92447754515383074
v 0.94019737830979189 0 -0.92447754515383074
v 0.92040779562008879 3 -0.9215840322426101
v 0.92040779562008879 0 -0.9215840322426101
v 0.87955245909486612 3 -0.98235294745546164
v 0.87955245909486612 0 -0.98235294745546164
v 0.87758646356673231 3 -0.96244981047700118
v 0.87758646356673231 0 -0.96244981047700118
v 0.58212875100977279 3 -1.0117319182523299
v 0.58212875100977279 0 -1.0117319182523299
v 0.58016275548163898 3 -0.99182878127386942
v 0.58016275548163898 0 -0.99182878127386942
v 0.52110152720825298 3 -1.0444752536580093
v 0.52110152720825298 0 -1.0444752536580093
v 0.50560504361505942 3 -1.031831717908628
v 0.50560504361505942 0 -1.031831717908628
v 0.4916237411419393 3 1.2061400150348975
v 0.4916237411419393 0 1.2061400150348975
v 0.4866018683721241 3 1.2254992710609898
v 0.4866018683721241 0 1.2254992710609898
v 0.3321621007270355 3 -1.2760478754791535
v 0.33216210072703556 0 -1.2760478754791535
v 0.316665617133842 3 -1.2634043397297723
v 0.31666561713384206 0 -1.2634043397297723
v 0.25893760492987156 3 -1.2764869586000325
v 0.25893760492987156 0 -1.2764869586000325
v 0.25040587156102506 3 -1.2945758923917987
v 0.25040587156102506 0 -1.2945758923917987
v 0.20232755033139699 3 1.1310953614033403
v 0.20232755033139702 0 1.1310953614033403
v 0.19730567756158177 3 1.1504546174294326
v 0.19730567756158179 0 1.1504546174294326
v 0.12872862120400885 3 1.1601311560533367
v 0.12872862120400885 0 1.1601311560533367
v 0.11854611493143406 3 1.1429173079649815
v 0.11854611493143406 0 1.1429173079649815
v -0.011375450216930615 3 -1.1489924949030865
v -0.011375450216930615 0 -1.1489924949030865
v -0.019907183585777172 3 -1.1670814286948528
v -0.019907183585777172 0 -1.1670814286948528
v -0.089087985325943739 3 -1.1638465053576872
v -0.089087985325943767 0 -1.1638465053576872
v -0.09589448879580599 3 -1.1450403491710883
v -0.095894488795806018 0 -1.1450403491710883
v -0.12850753882407626 3 1.3122940425604459
v -0.12850753882407626 0 1.3122940425604459
v -0.13869004509665103 3 1.2950801944720907
v -0.13869004509665103 0 1.2950801944720907
v -0.19738698734846594 3 1.2874416553569625
v -0.19738698734846599 0 1.2874416553569625
v -0.2116359972426291 3 1.3014761028714192
v -0.21163599724262919 0 1.3014761028714192
v -0.37011889587531921 3 -1.2655598937190975
v -0.37011889587531915 0 -1.2655598937190975
v -0.37692539934518143 3 -1.2467537375324986
v -0.37692539934518143 0 -1.2467537375324986
v -0.40711158629951211 3 1.0745107307570045
v -0.407111586299512 0 1.0745107307570045
v -0.42136059619367527 3 1.0885451782714612
v -0.42136059619367522 0 1.0885451782714612
v -0.43318068536223681 3 -1.2283412117778518
v -0.43318068536223681 0 -1.2283412117778518
v -0.44978940382836313 3 -1.2394834947985327
v -0.44978940382836313 0 -1.2394834947985327
v -0.48507690915465296 3 1.041639835267558
v -0.48507690915465296 0 1.041639835267558
v -0.48517702896125864 3 1.0616395846665962
v -0.48517702896125864 0 1.0616395846665962
v -0.59968605263830599 3 -0.98014784215563311
v -0.59968605263830599 0 -0.98014784215563311
v -0.61629477110443232 3 -0.99129012517631399
v -0.61629477110443232 0 -0.99129012517631399
v -0.67018548348729912 3 -0.93336197262056497
v -0.67018548348729901 0 -0.93336197262056497
v -0.67400019736537164 3 -0.9529948011999736
v -0.67400019736537164 0 -0.9529948011999736
v -0.78394435067766577 3 1.040143688998473
v -0.78394435067766577 0 1.040143688998473
v -0.78404447048427151 3 1.060143438397511
v -0.78404447048427151 0 1.060143438397511
v -0.83039229406724024 3 1.0034521795663833
v -0.83039229406724024 0 1.0034521795663833
v -0.84982551090240599 3 1.0081797670523467
v -0.84982551090240599 0 1.0081797670523467
v -0.90103927810265172 3 0.71305075101812299
v -0.90103927810265172 0 0.71305075101812299
v -0.92047249493781746 3 0.71777833850408634
v -0.92047249493781746 0 0.71777833850408634
v -0.95106706668847274 3 0.6448136078525647
v -0.95106706668847274 0 0.6448136078525647
v -0.96142140516973851 3 0.66192464740647194
v -0.96142140516973851 0 0.66192464740647194
v -0.96356982197655638 3 -0.87635656949602814
v -0.96356982197655627 0 -0.87635656949602814
v -0.96738453585462891 3 -0.89598939807543676
v -0.96738453585462891 0 -0.89598939807543676
v -1.0023908381274931 3 -0.83167316077942566
v -1.0023908381274931 0 -0.83167316077942566
v -1.0178452648402194 3 -0.53320181081237961
v -1.0178452648402194 0 -0.53320181081237961
v -1.0223640816889665 3 -0.83270734723943374
v -1.0223640816889665 0 -0.83270734723943374
v -1.0378185084016927 3 -0.53423599727238746
v -1.0378185084016927 0 -0.53423599727238746
v -1.0543219944808964 3 -0.45685696466736903
v -1.0543219944808964 0 -0.45685696466736903
v -1.0676755612483877 3 -0.47174596243706973
v -1.0676755612483877 0 -0.47174596243706973
v -1.1393113895616949 3 0.14927394892028958
v -1.1393113895616949 0 0.14927394892028961
v -1.1472070536588082 3 0.065031763367860124
v -1.1472070536588082 0 0.065031763367860124
v -1.158414946796541 3 0.14335329853583406
v -1.158414946796541 0 0.14335329853583406
v -1.1648777317701253 3 0.074399107446424514
v -1.1648777317701253 0 0.074399107446424514
v -1.2067669012834641 3 0.49008293654185159
v -1.2067669012834641 0 0.49008293654185159
v -1.2171212397647302 3 0.50719397609575867
v -1.2171212397647302 0 0.50719397609575867
v -1.2277869797928194 3 0.43474908967587994
v -1.2277869797928194 0 0.43474908967588
v -1.2468905370276655 3 0.42882843929142445
v -1.2468905370276655 0 0.42882843929142445
v -1.2768166158628174 3 -0.25730714754822032
v -1.2768166158628174 0 -0.25730714754822032
v -1.2871885155645721 3 -0.19903106320736069
v -1.2871885155645721 0 -0.19903106320736069
v -1.2901701826303087 3 -0.27219614531792102
v -1.2901701826303087 0 -0.27219614531792102
v -1.3048591936758891 3 -0.18966371912879637
v -1.3048591936758891 0 -0.18966371912879637
vn 0.92437243461608887 0 -0.3814912736415863
vn 0.92437243461608887 0 -0.3814912736415863
vn 0.92437243461608887 0 0.3814912736415863
vn 0.92437243461608887 0 0.3814912736415863
vn -0.3814912736415863 0 -0.92437243461608887
vn -0.3814912736415863 0 -0.92437243461608887
vn -0.3814912736415863 0 0.92437243461608887
vn -0.3814912736415863 0 0.92437243461608887
vn 0.98910260200500488 0 -0.14722800254821777
vn 0.98910260200500488 0 -0.14722800254821777
vn 0.14722800254821777 0 0.98910260200500488
vn 0.14722800254821777 0 0.98910260200500488
vn 0.3814912736415863 0 0.92437243461608887
vn 0.3814912736415863 0 0.92437243461608887
vn 0.3814912736415863 0 -0.92437243461608887
vn 0.3814912736415863 0 -0.92437243461608887
vn -0.92437243461608887 0 0.3814912736415863
vn -0.92437243461608887 0 0.3814912736415863
vn -0.92437243461608887 0 -0.3814912736415863
vn -0.92437243461608887 0 -0.3814912736415863
vn -0.14722800254821777 0 -0.98910260200500488
vn -0.14722800254821777 0 -0.98910260200500488
vn -0.98910260200500488 0 0.14722800254821777
vn -0.98910260200500488 0 0.14722800254821777
vn 0.80196857452392578 0 0.59736627340316772
vn 0.80196857452392578 0 0.59736627340316772
vn -0.59736627340316772 0 0.80196857452392578
vn -0.59736627340316772 0 0.80196857452392578
vn 0.59736627340316772 0 -0.80196857452392578
vn 0.59736627340316772 0 -0.80196857452392578
vn -0.80196857452392578 0 -0.59736627340316772
vn -0.80196857452392578 0 -0.59736627340316772
vn 0.77319061756134033 0 -0.6341736912727356
vn 0.77319061756134033 0 -0.6341736912727356
vn 0.6341736912727356 0 0.77319061756134033
vn 0.6341736912727356 0 0.77319061756134033
vn -0.6341736912727356 0 -0.77319061756134033
vn -0.6341736912727356 0 -0.77319061756134033
vn -0.77319061756134033 0 0.6341736912727356
vn -0.77319061756134033 0 0.6341736912727356
vn 0.9948999285697937 0 0.10086692869663239
vn 0.9948999285697937 0 0.10086692869663239
vn -0.10086692869663239 0 0.9948999285697937
vn -0.10086692869663239 0 0.9948999285697937
vn 0.86200308799743652 0 -0.50690305233001709
vn 0.86200308799743652 0 -0.50690305233001709
vn 0.50690305233001709 0 0.86200308799743652
vn 0.50690305233001709 0 0.86200308799743652
vn 0.10086692869663239 0 -0.9948999285697937
vn 0.10086692869663239 0 -0.9948999285697937
vn -0.9948999285697937 0 -0.10086692869663239
vn -0.9948999285697937 0 -0.10086692869663239
vn 0.94118273258209229 0 0.33789804577827454
vn 0.94118273258209229 0 0.33789804577827454
vn 0.33789804577827454 0 -0.94118273258209229
vn 0.33789804577827454 0 -0.94118273258209229
vn -0.50690305233001709 0 -0.86200308799743652
vn -0.50690305233001709 0 -0.86200308799743652
vn -0.86200308799743652 0 0.50690305233001709
vn -0.86200308799743652 0 0.50690305233001709
vn 0.96860742568969727 0 0.2485954761505127
vn 0.96860742568969727 0 0.2485954761505127
vn 0.2485954761505127 0 -0.96860742568969727
vn 0.2485954761505127 0 -0.96860742568969727
vn -0.33789804577827454 0 0.94118273258209229
vn -0.33789804577827454 0 0.94118273258209229
vn -0.94118273258209229 0 -0.33789804577827454
vn -0.94118273258209229 0 -0.33789804577827454
vn 0.90554428100585938 0 -0.42425179481506348
vn 0.90554428100585938 0 -0.42425179481506348
vn 0.42425179481506348 0 0.90554428100585938
vn 0.42425179481506348 0 0.90554428100585938
vn -0.2485954761505127 0 0.96860742568969727
vn -0.2485954761505127 0 0.96860742568969727
vn -0.96860742568969727 0 -0.2485954761505127
vn -0.96860742568969727 0 -0.2485954761505127
vn 0.99997121095657349 0 0.0075859269127249718
vn 0.99997121095657349 0 0.0075859269127249718
vn -0.0075859269127249718 0 0.99997121095657349
vn -0.0075859269127249718 0 0.99997121095657349
vn -0.42425179481506348 0 -0.90554428100585938
vn -0.42425179481506348 0 -0.90554428100585938
vn -0.90554428100585938 0 0.42425179481506348
vn -0.90554428100585938 0 0.42425179481506348
vn 0.0075859269127249718 0 -0.99997121095657349
vn 0.0075859269127249718 0 -0.99997121095657349
vn -0.99997121095657349 0 -0.0075859269127249718
vn -0.99997121095657349 0 -0.0075859269127249718
vn 0.98114603757858276 0 -0.19326770305633545
vn 0.98114603757858276 0 -0.19326770305633545
vn -0.19326770305633545 0 -0.98114603757858276
vn -0.19326770305633545 0 -0.98114603757858276
vn 0.71063768863677979 0 -0.70355814695358276
vn 0.71063768863677979 0 -0.70355814695358276
vn 0.70355814695358276 0 0.71063768863677979
vn 0.70355814695358276 0 0.71063768863677979
vn 0.19326770305633545 0 0.98114603757858276
vn 0.19326770305633545 0 0.98114603757858276
vn -0.98114603757858276 0 0.19326770305633545
vn -0.98114603757858276 0 0.19326770305633545
vn 0.82899582386016846 0 0.55925482511520386
vn 0.82899582386016846 0 0.55925482511520386
vn 0.55925482511520386 0 -0.82899582386016846
vn 0.55925482511520386 0 -0.82899582386016846
vn -0.70355814695358276 0 -0.71063768863677979
vn -0.70355814695358276 0 -0.71063768863677979
vn -0.71063768863677979 0 0.70355814695358276
vn -0.71063768863677979 0 0.70355814695358276
vn 0.8542134165763855 0 0.51992249488830566
vn 0.8542134165763855 0 0.51992249488830566
vn -0.51992249488830566 0 0.8542134165763855
vn -0.51992249488830566 0 0.8542134165763855
vn 0.51992249488830566 0 -0.8542134165763855
vn 0.51992249488830566 0 -0.8542134165763855
vn -0.8542134165763855 0 -0.51992249488830566
vn -0.8542134165763855 0 -0.51992249488830566
vn 0.97104775905609131 0 -0.23888544738292694
vn 0.97104775905609131 0 -0.23888544738292694
vn 0.23888544738292694 0 0.97104775905609131
vn 0.23888544738292694 0 0.97104775905609131
vn -0.55925482511520386 0 0.82899582386016846
vn -0.55925482511520386 0 0.82899582386016846
vn -0.82899582386016846 0 -0.55925482511520386
vn -0.82899582386016846 0 -0.55925482511520386
vn 0.74272483587265015 0 -0.66959679126739502
vn 0.74272483587265015 0 -0.66959679126739502
vn 0.66959679126739502 0 0.74272483587265015
vn 0.66959679126739502 0 0.74272483587265015
vn -0.66959679126739502 0 -0.74272483587265015
vn -0.66959679126739502 0 -0.74272483587265015
vn -0.74272483587265015 0 0.66959679126739502
vn -0.74272483587265015 0 0.66959679126739502
vn 0.99852544069290161 0 0.054285690188407898
vn 0.99852544069290161 0 0.054285690188407898
vn 0.054285690188407898 0 -0.99852544069290161
vn 0.054285690188407898 0 -0.99852544069290161
vn 0.88473933935165405 0 -0.46608614921569824
vn 0.88473933935165405 0 -0.46608614921569824
vn 0.95593845844268799 0 0.29356721043586731
vn 0.95593845844268799 0 0.29356721043586731
vn -0.46608614921569824 0 -0.88473933935165405
vn -0.46608614921569824 0 -0.88473933935165405
vn -0.29356721043586731 0 0.95593845844268799
vn -0.29356721043586731 0 0.95593845844268799
vn -0.23888544738292694 0 -0.97104775905609131
vn -0.23888544738292694 0 -0.97104775905609131
vn -0.97104775905609131 0 0.23888544738292694
vn -0.97104775905609131 0 0.23888544738292694
vn 0.46608614921569824 0 0.88473933935165405
vn 0.46608614921569824 0 0.88473933935165405
vn -0.88473933935165405 0 0.46608614921569824
vn -0.88473933935165405 0 0.46608614921569824
vn -0.054285690188407898 0 0.99852544069290161
vn -0.054285690188407898 0 0.99852544069290161
vn 0.29356721043586731 0 -0.95593845844268799
vn 0.29356721043586731 0 -0.95593845844268799
vn -0.99852544069290161 0 -0.054285690188407898
vn -0.99852544069290161 0 -0.054285690188407898
vn -0.95593845844268799 0 -0.29356721043586731
vn -0.95593845844268799 0 -0.29356721043586731
f 6//6 18//18 17//17 5//5
f 18//18 14//14 13//13 17//17
f 14//14 2//2 1//1 13//13
f 2//2 6//6 5//5 1//1
f 32//32 28//28 27//27 31//31
f 28//28 26//26 25//25 27//27
f 26//26 30//30 29//29 25//25
f 30//30 32//32 31//31 29//29
f 52//52 44//44 43//43 51//51
f 44//44 42//42 41//41 43//43
f 42//42 50//50 49//49 41//41
f 50//50 52//52 51//51 49//49
f 84//84 72//72 71//71 83//83
f 72//72 70//70 69//69 71//71
f 70//70 82//82 81//81 69//69
f 82//82 84//84 83//83 81//81
f 122//122 102//102 101//101 121//121
f 102//102 104//104 103//103 101//101
f 104//104 124//124 123//123 103//103
f 124//124 122//122 121//121 123//123
f 154//154 134//134 133//133 153//153
f 134//134 136//136 135//135 133//133
f 136//136 158//158 157//157 135//135
f 158//158 154//154 153//153 157//157
f 150//150 138//138 137//137 149//149
f 138//138 142//142 141//141 137//137
f 142//142 152//152 151//151 141//141
f 152//152 150//150 149//149 151//151
f 110//110 114//114 113//113 109//109
f 114//114 116//116 115//115 113//113
f 116//116 112//112 111//111 115//115
f 112//112 110//110 109//109 111//111
f 78//78 86//86 85//85 77//77
f 86//86 88//88 87//87 85//85
f 88//88 80//80 79//79 87//87
f 80//80 78//78 77//77 79//79
f 46//46 58//58 57//57 45//45
f 58//58 60//60 59//59 57//57
f 60//60 48//48 47//47 59//59
f 48//48 46//46 45//45 47//47
f 8//8 4//4 3//3 7//7
f 4//4 16//16 15//15 3//3
f 16//16 20//20 19//19 15//15
f 20//20 8//8 7//7 19//19
f 12//12 10//10 9//9 11//11
f 10//10 22//22 21//21 9//9
f 22//22 24//24 23//23 21//21
f 24//24 12//12 11//11 23//23
f 36//36 34//34 33//33 35//35
f 34//34 38//38 37//37 33//33
f 38//38 40//40 39//39 37//37
f 40//40 36//36 35//35 39//39
f 54//54 56//56 55//55 53//53
f 56//56 68//68 67//67 55//55
f 68//68 66//66 65//65 67//67
f 66//66 54//54 53//53 65//65
f 90//90 92//92 91//91 89//89
f 92//92 100//100 99//99 91//91
f 100//100 98//98 97//97 99//99
f 98//98 90//90 89//89 97//97
f 126//126 130//130 129//129 125//125
f 130//130 132//132 131//131 129//129
f 132//132 128//128 127//127 131//131
f 128//128 126//126 125//125 127//127
f 156//156 160//160 159//159 155//155
f 160//160 144//144 143//143 159//159
f 144//144 140//140 139//139 143//143
f 140//140 156//156 155//155 139//139
f 146//146 148//148 147//147 145//145
f 148//148 120//120 119//119 147//147
f 120//120 118//118 117//117 119//119
f 118//118 146//146 145//145 117//117
f 106//106 108//108 107//107 105//105
f 108//108 96//96 95//95 107//107
f 96//96 94//94 93//93 95//95
f 94//94 106//106 105//105 93//93
f 76//76 74//74 73//73 75//75
f 74//74 62//62 61//61 73//73
f 62//62 64//64 63//63 61//61
f 64//64 76//76 75//75 63//63
