# Rhino

mtllib Pannelli60.mtl
usemtl diffuse_Black
v 1.4618531141746265 3 -0.14963733861837353
v 1.4618531141746265 0 -0.14963733861837353
v 1.4618531141746274 3 0.14963733861836492
v 1.4618531141746274 0 0.14963733861836492
v 1.4536363771061949 3 -0.16787151619643442
v 1.4536363771061949 0 -0.16787151619643442
v 1.4536363771061958 3 0.16787151619642593
v 1.4536363771061958 0 0.16787151619642593
v 1.4529432963423687 3 -0.21991279668226474
v 1.4529432963423687 0 -0.21991279668226474
v 1.4495370018861178 3 -0.20020500233390312
v 1.4495370018861178 0 -0.20020500233390312
v 1.3782572159198931 3 -0.50971845885310885
v 1.3782572159198931 0 -0.50971845885310885
v 1.3657499893994469 3 -0.5253251652566473
v 1.3657499893994469 0 -0.5253251652566473
v 1.3537112712245274 3 -0.55561259611008407
v 1.3537112712245274 0 -0.55561259611008407
v 1.3520915735685668 3 -0.57554690270708608
v 1.3520915735685668 0 -0.57554690270708608
v 1.2074455300634646 3 -0.83754471669314612
v 1.2074455300634646 0 -0.83754471669314612
v 1.191439268399455 3 -0.84953636326662607
v 1.191439268399455 0 -0.84953636326662607
v 1.1722230144818826 3 -0.87586115744193238
v 1.1722230144818826 0 -0.87586115744193238
v 1.172168633073134 3 -0.01909889213094201
v 1.172168633073134 0 -0.019098892130942
v 1.172168633073134 3 0.019098892130935033
v 1.172168633073134 0 0.019098892130935033
v 1.1656798187947208 3 -0.89476053812489431
v 1.1656798187947208 0 -0.89476053812489431
v 1.1639518960047024 3 -0.037333069709002902
v 1.1639518960047024 0 -0.037333069709002915
v 1.1639518960047024 3 0.037333069708996025
v 1.1639518960047024 0 0.037333069708996025
v 1.1398476190067983 3 -0.27402824213153926
v 1.1398476190067983 0 -0.27402824213153926
v 1.1364413245505474 3 -0.25432044778317764
v 1.1364413245505474 0 -0.25432044778317764
v 1.1303150958622283 3 -0.31101745305871548
v 1.1303150958622283 0 -0.31101745305871548
v 1.1178078693417821 3 -0.32662415946225393
v 1.1178078693417821 0 -0.32662415946225393
v 1.0370170173735311 3 -0.52988062805177538
v 1.0370170173735311 0 -0.52988062805177538
v 1.0353973197175705 3 -0.5498149346487774
v 1.0353973197175705 0 -0.5498149346487774
v 1.0169354892173865 3 -0.58325490380395717
v 1.0169354892173865 0 -0.58325490380395717
v 1.000929227553377 3 -0.59524655037743712
v 1.000929227553377 0 -0.59524655037743712
v 0.9602269793096555 3 -1.1123713448020396
v 0.9602269793096555 0 -1.1123713448020396
v 0.94173455491911784 3 -1.1199891030129734
v 0.94173455491911784 0 -1.1199891030129734
v 0.91655676521943463 3 -1.1406854338190697
v 0.91655676521943463 0 -1.1406854338190697
v 0.90550412336214392 3 -1.1573539402900908
v 0.90550412336214392 0 -1.1573539402900908
v 0.87197052089694482 3 -0.77191008867195721
v 0.87197052089694482 0 -0.77191008867195721
v 0.86542732520978316 3 -0.79080946935491903
v 0.86542732520978316 0 -0.79080946935491903
v 0.83920444758077306 3 -0.81858412347285281
v 0.83920444758077306 0 -0.8185841234728527
v 0.8207120231902354 3 -0.8262018816837865
v 0.8207120231902354 0 -0.82620188168378639
v 0.65224549453340941 3 -1.3168073797604993
v 0.65224549453340941 0 -1.3168073797604993
v 0.65174593801743053 3 -0.96509326315367983
v 0.65174593801743053 0 -0.96509326315367983
v 0.64069329616013981 3 -0.98176176962470074
v 0.64069329616013981 0 -0.98176176962470074
v 0.63243710361720984 3 -1.3195691996878329
v 0.63243710361720984 0 -1.3195691996878329
v 0.60836874883866265 3 -1.0021135352232546
v 0.60836874883866265 0 -1.0021135352232546
v 0.60289102265709382 3 -1.3333274082520006
v 0.60289102265709382 0 -1.3333274082520006
v 0.58856035792246308 3 -1.0048753551505882
v 0.58856035792246308 0 -1.0048753551505882
v 0.58802834316788344 3 -1.3467102614007505
v 0.58802834316788344 0 -1.3467102614007505
v 0.39027902776692747 3 -1.0972055663330096
v 0.39027902776692747 0 -1.0972055663330096
v 0.37541634827771708 3 -1.1105884194817595
v 0.37541634827771708 0 -1.1105884194817595
v 0.33903562090166273 3 -1.1222294416922916
v 0.33903562090166273 0 -1.1222294416922916
v 0.31916473370825943 3 -1.1199605560303336
v 0.31916473370825943 0 -1.1199605560303336
v 0.3029900705690991 3 -1.4379161580799407
v 0.3029900705690991 0 -1.4379161580799407
v 0.2831191833756958 3 -1.4356472724179827
v 0.2831191833756958 0 -1.4356472724179827
v 0.2510744801049738 3 -1.4415967425866814
v 0.2510744801049738 0 -1.4415967425866814
v 0.23334226979385733 3 -1.4508470786607024
v 0.23334226979385733 0 -1.4508470786607024
v 0.10411535380791873 3 -1.1598869632030053
v 0.10411535380791873 0 -1.1598869632030053
v 0.086383143496802234 3 -1.1691372992770266
v 0.086383143496802234 0 -1.1691372992770266
v 0.048248399809610605 3 -1.1713309369930349
v 0.048248399809610633 0 -1.1713309369930349
v 0.029572441336964114 3 -1.1641749202848388
v 0.029572441336964142 0 -1.1641749202848388
v -0.065438492730121089 3 -1.468033945179761
v -0.065438492730121117 0 -1.468033945179761
v -0.084114451202767587 3 -1.4608779284715649
v -0.084114451202767601 0 -1.4608779284715649
v -0.11662999561093249 3 -1.4586421791927953
v -0.11662999561093249 0 -1.4586421791927953
v -0.1361096467085543 3 -1.4631746391335916
v -0.1361096467085543 0 -1.4631746391335916
v -0.18863671488532407 3 -1.1491709899332263
v -0.18863671488532407 0 -1.1491709899332263
v -0.20811636598294586 3 -1.1537034498740224
v -0.20811636598294586 0 -1.1537034498740224
v -0.24559196850439055 3 -1.1463108902245094
v -0.24559196850439052 0 -1.1463108902245094
v -0.26189118806251216 3 -1.134720573499064
v -0.26189118806251216 0 -1.134720573499064
v -0.4297261238310538 3 -1.4052548946820933
v -0.4297261238310538 0 -1.4052548946820933
v -0.44602534338917543 3 -1.3936645779566479
v -0.44602534338917543 0 -1.3936645779566479
v -0.46945189729254888 3 -1.0657357507540342
v -0.46945189729254888 0 -1.0657357507540342
v -0.4769541530468433 3 -1.3833850869110456
v -0.4769541530468433 0 -1.3833850869110456
v -0.48944632150545947 3 -1.0652635215785544
v -0.48944632150545947 0 -1.0652635215785544
v -0.49694857725975389 3 -1.382912857735566
v -0.49694857725975389 0 -1.382912857735566
v -0.52389133567988833 3 -1.048752563973367
v -0.52389133567988833 0 -1.048752563973367
v -0.53678240560084611 3 -1.0334613797061829
v -0.53678240560084611 0 -1.0334613797061829
v -0.72056027570807246 3 -0.91486100768277634
v -0.72056027570807246 0 -0.91486100768277634
v -0.73980423064520806 3 -0.9094139719405131
v -0.73980423064520806 0 -0.9094139719405131
v -0.76682078840147228 3 -1.2535516499156258
v -0.76682078840147228 0 -1.2535516499156258
v -0.76903898419848105 3 -0.8848294258353625
v -0.76903898419848105 0 -0.88482942583536239
v -0.7777061606550717 3 -0.86680499651650966
v -0.7777061606550717 0 -0.86680499651650966
v -0.77971185832243006 3 -1.2382604656484417
v -0.77971185832243006 0 -1.2382604656484417
v -0.80709676553788212 3 -1.2205877165754215
v -0.80709676553788212 0 -1.2205877165754215
v -0.82634072047501783 3 -1.2151406808331582
v -0.82634072047501783 0 -1.2151406808331582
v -1.0553912165396151 3 -1.0225239559941253
v -1.0553912165396151 0 -1.0225239559941253
v -1.0640583929962057 3 -1.0044995266752723
v -1.0640583929962057 0 -1.0044995266752723
vn 0.93518108129501343 0 0.35416999459266663
vn 0.93518108129501343 0 0.35416999459266663
vn 0.93518108129501343 0 -0.35416999459266663
vn 0.93518108129501343 0 -0.35416999459266663
vn 0.35416999459266663 0 -0.93518108129501343
vn 0.35416999459266663 0 -0.93518108129501343
vn 0.35416999459266663 0 0.93518108129501343
vn 0.35416999459266663 0 0.93518108129501343
vn 0.81720644235610962 0 -0.57634502649307251
vn 0.81720644235610962 0 -0.57634502649307251
vn 0.57634502649307251 0 0.81720644235610962
vn 0.57634502649307251 0 0.81720644235610962
vn 0.99397760629653931 0 0.10958315432071686
vn 0.99397760629653931 0 0.10958315432071686
vn 0.10958315432071686 0 -0.99397760629653931
vn 0.10958315432071686 0 -0.99397760629653931
vn 0.76204913854598999 0 0.64751923084259033
vn 0.76204913854598999 0 0.64751923084259033
vn 0.64751923084259033 0 -0.76204913854598999
vn 0.64751923084259033 0 -0.76204913854598999
vn 0.98987555503845215 0 -0.14193806052207947
vn 0.98987555503845215 0 -0.14193806052207947
vn -0.14193806052207947 0 -0.98987555503845215
vn -0.14193806052207947 0 -0.98987555503845215
vn 0.89953088760375977 0 0.43685713410377502
vn 0.89953088760375977 0 0.43685713410377502
vn -0.35416999459266663 0 0.93518108129501343
vn -0.35416999459266663 0 0.93518108129501343
vn -0.35416999459266663 0 -0.93518108129501343
vn -0.35416999459266663 0 -0.93518108129501343
vn 0.43685713410377502 0 -0.89953088760375977
vn 0.43685713410377502 0 -0.89953088760375977
vn -0.93518108129501343 0 -0.35416999459266663
vn -0.93518108129501343 0 -0.35416999459266663
vn -0.93518108129501343 0 0.35416999459266663
vn -0.93518108129501343 0 0.35416999459266663
vn -0.57634502649307251 0 -0.81720644235610962
vn -0.57634502649307251 0 -0.81720644235610962
vn -0.81720644235610962 0 0.57634502649307251
vn -0.81720644235610962 0 0.57634502649307251
vn -0.10958315432071686 0 0.99397760629653931
vn -0.10958315432071686 0 0.99397760629653931
vn -0.99397760629653931 0 -0.10958315432071686
vn -0.99397760629653931 0 -0.10958315432071686
vn -0.64751923084259033 0 0.76204913854598999
vn -0.64751923084259033 0 0.76204913854598999
vn -0.76204913854598999 0 -0.64751923084259033
vn -0.76204913854598999 0 -0.64751923084259033
vn 0.14193806052207947 0 0.98987555503845215
vn 0.14193806052207947 0 0.98987555503845215
vn -0.98987555503845215 0 0.14193806052207947
vn -0.98987555503845215 0 0.14193806052207947
vn 0.92313432693481445 0 -0.38447755575180054
vn 0.92313432693481445 0 -0.38447755575180054
vn -0.38447755575180054 0 -0.92313432693481445
vn -0.38447755575180054 0 -0.92313432693481445
vn 0.98009061813354492 0 0.19855082035064697
vn 0.98009061813354492 0 0.19855082035064697
vn 0.19855082035064697 0 -0.98009061813354492
vn 0.19855082035064697 0 -0.98009061813354492
vn -0.43685713410377502 0 0.89953088760375977
vn -0.43685713410377502 0 0.89953088760375977
vn -0.89953088760375977 0 -0.43685713410377502
vn -0.89953088760375977 0 -0.43685713410377502
vn 0.38447755575180054 0 0.92313432693481445
vn 0.38447755575180054 0 0.92313432693481445
vn -0.92313432693481445 0 0.38447755575180054
vn -0.92313432693481445 0 0.38447755575180054
vn 0.79797744750976563 0 -0.6026872992515564
vn 0.79797744750976563 0 -0.6026872992515564
vn -0.19855082035064697 0 0.98009061813354492
vn -0.19855082035064697 0 0.98009061813354492
vn -0.98009061813354492 0 -0.19855082035064697
vn -0.98009061813354492 0 -0.19855082035064697
vn -0.6026872992515564 0 -0.79797744750976563
vn -0.6026872992515564 0 -0.79797744750976563
vn 0.6026872992515564 0 0.79797744750976563
vn 0.6026872992515564 0 0.79797744750976563
vn 0.99863040447235107 0 -0.052319750189781189
vn 0.99863040447235107 0 -0.052319750189781189
vn -0.79797744750976563 0 0.6026872992515564
vn -0.79797744750976563 0 0.6026872992515564
vn -0.052319750189781189 0 -0.99863040447235107
vn -0.052319750189781189 0 -0.99863040447235107
vn 0.052319750189781189 0 0.99863040447235107
vn 0.052319750189781189 0 0.99863040447235107
vn -0.99863040447235107 0 0.052319750189781189
vn -0.99863040447235107 0 0.052319750189781189
vn 0.78275918960571289 0 0.62232470512390137
vn 0.78275918960571289 0 0.62232470512390137
vn -0.62232470512390137 0 0.78275918960571289
vn -0.62232470512390137 0 0.78275918960571289
vn 0.62232470512390137 0 -0.78275918960571289
vn 0.62232470512390137 0 -0.78275918960571289
vn -0.78275918960571289 0 -0.62232470512390137
vn -0.78275918960571289 0 -0.62232470512390137
vn 0.95397710800170898 0 -0.2998795211315155
vn 0.95397710800170898 0 -0.2998795211315155
vn -0.2998795211315155 0 -0.95397710800170898
vn -0.2998795211315155 0 -0.95397710800170898
vn 0.2998795211315155 0 0.95397710800170898
vn 0.2998795211315155 0 0.95397710800170898
vn -0.95397710800170898 0 0.2998795211315155
vn -0.95397710800170898 0 0.2998795211315155
vn 0.91329824924468994 0 0.40729141235351563
vn 0.91329824924468994 0 0.40729141235351563
vn -0.40729141235351563 0 0.91329824924468994
vn -0.40729141235351563 0 0.91329824924468994
vn 0.40729141235351563 0 -0.91329824924468994
vn 0.40729141235351563 0 -0.91329824924468994
vn -0.91329824924468994 0 -0.40729141235351563
vn -0.91329824924468994 0 -0.40729141235351563
vn 0.84895634651184082 0 -0.52846300601959229
vn 0.84895634651184082 0 -0.52846300601959229
vn -0.52846300601959229 0 -0.84895634651184082
vn -0.52846300601959229 0 -0.84895634651184082
vn 0.52846300601959229 0 0.84895634651184082
vn 0.52846300601959229 0 0.84895634651184082
vn -0.84895634651184082 0 0.52846300601959229
vn -0.84895634651184082 0 0.52846300601959229
vn 0.98604398965835571 0 0.16648486256599426
vn 0.98604398965835571 0 0.16648486256599426
vn -0.16648486256599426 0 0.98604398965835571
vn -0.16648486256599426 0 0.98604398965835571
vn 0.16648486256599426 0 -0.98604398965835571
vn 0.16648486256599426 0 -0.98604398965835571
vn -0.98604398965835571 0 -0.16648486256599426
vn -0.98604398965835571 0 -0.16648486256599426
vn 0.72360551357269287 0 0.69021379947662354
vn 0.72360551357269287 0 0.69021379947662354
vn 0.69021379947662354 0 -0.72360551357269287
vn 0.69021379947662354 0 -0.72360551357269287
vn -0.69021379947662354 0 0.72360551357269287
vn -0.69021379947662354 0 0.72360551357269287
vn -0.72360551357269287 0 -0.69021379947662354
vn -0.72360551357269287 0 -0.69021379947662354
vn 0.99639314413070679 0 -0.084856867790222168
vn 0.99639314413070679 0 -0.084856867790222168
vn 0.084856867790222168 0 0.99639314413070679
vn 0.084856867790222168 0 0.99639314413070679
vn 0.87295836210250854 0 0.48779472708702087
vn 0.87295836210250854 0 0.48779472708702087
vn -0.48779472708702087 0 0.87295836210250854
vn -0.48779472708702087 0 0.87295836210250854
vn -0.084856867790222168 0 -0.99639314413070679
vn -0.084856867790222168 0 -0.99639314413070679
vn 0.94369077682495117 0 -0.33082884550094604
vn 0.94369077682495117 0 -0.33082884550094604
vn 0.33082884550094604 0 0.94369077682495117
vn 0.33082884550094604 0 0.94369077682495117
vn -0.99639314413070679 0 0.084856867790222168
vn -0.99639314413070679 0 0.084856867790222168
vn 0.48779472708702087 0 -0.87295836210250854
vn 0.48779472708702087 0 -0.87295836210250854
vn -0.87295836210250854 0 -0.48779472708702087
vn -0.87295836210250854 0 -0.48779472708702087
vn -0.33082884550094604 0 -0.94369077682495117
vn -0.33082884550094604 0 -0.94369077682495117
vn -0.94369077682495117 0 0.33082884550094604
vn -0.94369077682495117 0 0.33082884550094604
f 6//6 34//34 33//33 5//5
f 34//34 28//28 27//27 33//33
f 28//28 2//2 1//1 27//27
f 2//2 6//6 5//5 1//1
f 16//16 44//44 43//43 15//15
f 44//44 42//42 41//41 43//43
f 42//42 14//14 13//13 41//41
f 14//14 16//16 15//15 13//13
f 24//24 52//52 51//51 23//23
f 52//52 50//50 49//49 51//51
f 50//50 22//22 21//21 49//49
f 22//22 24//24 23//23 21//21
f 56//56 68//68 67//67 55//55
f 68//68 66//66 65//65 67//67
f 66//66 54//54 53//53 65//65
f 54//54 56//56 55//55 53//53
f 76//76 82//82 81//81 75//75
f 82//82 78//78 77//77 81//81
f 78//78 70//70 69//69 77//77
f 70//70 76//76 75//75 69//69
f 96//96 92//92 91//91 95//95
f 92//92 90//90 89//89 91//91
f 90//90 94//94 93//93 89//89
f 94//94 96//96 95//95 93//93
f 112//112 108//108 107//107 111//111
f 108//108 106//106 105//105 107//107
f 106//106 110//110 109//109 105//105
f 110//110 112//112 111//111 109//109
f 128//128 124//124 123//123 127//127
f 124//124 122//122 121//121 123//123
f 122//122 126//126 125//125 121//121
f 126//126 128//128 127//127 125//125
f 152//152 140//140 139//139 151//151
f 140//140 138//138 137//137 139//139
f 138//138 146//146 145//145 137//137
f 146//146 152//152 151//151 145//145
f 160//160 150//150 149//149 159//159
f 150//150 148//148 147//147 149//149
f 148//148 158//158 157//157 147//147
f 158//158 160//160 159//159 157//157
f 8//8 4//4 3//3 7//7
f 4//4 30//30 29//29 3//3
f 30//30 36//36 35//35 29//29
f 36//36 8//8 7//7 35//35
f 12//12 10//10 9//9 11//11
f 10//10 38//38 37//37 9//9
f 38//38 40//40 39//39 37//37
f 40//40 12//12 11//11 39//39
f 18//18 20//20 19//19 17//17
f 20//20 48//48 47//47 19//19
f 48//48 46//46 45//45 47//47
f 46//46 18//18 17//17 45//45
f 26//26 32//32 31//31 25//25
f 32//32 64//64 63//63 31//31
f 64//64 62//62 61//61 63//63
f 62//62 26//26 25//25 61//61
f 58//58 60//60 59//59 57//57
f 60//60 74//74 73//73 59//59
f 74//74 72//72 71//71 73//73
f 72//72 58//58 57//57 71//71
f 80//80 84//84 83//83 79//79
f 84//84 88//88 87//87 83//83
f 88//88 86//86 85//85 87//87
f 86//86 80//80 79//79 85//85
f 98//98 100//100 99//99 97//97
f 100//100 104//104 103//103 99//99
f 104//104 102//102 101//101 103//103
f 102//102 98//98 97//97 101//101
f 114//114 116//116 115//115 113//113
f 116//116 120//120 119//119 115//115
f 120//120 118//118 117//117 119//119
f 118//118 114//114 113//113 117//117
f 132//132 136//136 135//135 131//131
f 136//136 134//134 133//133 135//135
f 134//134 130//130 129//129 133//133
f 130//130 132//132 131//131 129//129
f 154//154 156//156 155//155 153//153
f 156//156 144//144 143//143 155//155
f 144//144 142//142 141//141 143//143
f 142//142 154//154 153//153 141//141
