# Rhino

mtllib Pannelli132.mtl
usemtl diffuse_Black
v 1.3065503042000264 3 -0.29961214161040317
v 1.3065503042000264 0 -0.29961214161040317
v 1.3065503042000282 3 0.29961214161039645
v 1.3065503042000282 0 0.29961214161039645
v 1.2888073560526105 3 -0.30884186484775489
v 1.2888073560526105 0 -0.30884186484775489
v 1.2888073560526123 3 0.30884186484774828
v 1.2888073560526123 0 0.30884186484774828
v 1.2854828081790588 3 -0.37996721264029554
v 1.2854828081790588 0 -0.37996721264029554
v 1.2745506394552526 3 -0.36321944601324258
v 1.2745506394552526 0 -0.36321944601324258
v 1.1679272842675819 3 -0.03312733037078773
v 1.1679272842675819 0 -0.033127330370787689
v 1.1679272842675823 3 0.033127330370781492
v 1.1679272842675823 0 0.033127330370781492
v 1.150184336120166 3 -0.042357053608139413
v 1.150184336120166 0 -0.042357053608139461
v 1.1501843361201665 3 0.042357053608133285
v 1.1501843361201665 0 0.042357053608133285
v 1.0339448229911035 3 -0.54415959457133567
v 1.0339448229911035 0 -0.54415959457133567
v 1.0230126542672973 3 -0.52741182794428265
v 1.0230126542672973 0 -0.52741182794428265
v 1.0014379901865236 3 -0.60189161247297751
v 1.0014379901865236 0 -0.60189161247297751
v 0.9914826069995295 3 -0.90211051031620881
v 0.9914826069995295 0 -0.90211051031620881
v 0.98144897725731339 3 -0.60122876851255513
v 0.98144897725731339 0 -0.60122876851255513
v 0.97149359407031932 3 -0.90144766635578644
v 0.97149359407031932 0 -0.90144766635578644
v 0.93370013745633929 3 -0.96179269394166622
v 0.93370013745633929 0 -0.96179269394166622
v 0.93239125880689477 3 -0.94183556898136622
v 0.93239125880689477 0 -0.94183556898136622
v 0.63396017125993709 3 -0.98145099857823581
v 0.63396017125993709 0 -0.98145099857823581
v 0.63265129261049258 3 -0.96149387361793581
v 0.63265129261049258 0 -0.96149387361793581
v 0.57730951355844096 3 -1.0158077017374207
v 0.57730951355844085 0 -1.0158077017374207
v 0.56021699385049806 3 -1.0054228199358022
v 0.56021699385049795 0 -1.0054228199358022
v 0.42133694103795771 3 -1.2725236009294014
v 0.42133694103795777 0 -1.2725236009294014
v 0.40424442133001481 3 -1.2621387191277829
v 0.40424442133001492 0 -1.2621387191277829
v 0.35035629515987637 3 -1.2781463785262646
v 0.35035629515987637 0 -1.2781463785262646
v 0.3417051495301448 3 -1.296178507610019
v 0.3417051495301448 0 -1.296178507610019
v 0.18253571654782136 3 1.3126646223168859
v 0.18253571654782133 0 1.3126646223168859
v 0.17163055266855784 3 1.3294299854434755
v 0.17163055266855781 0 1.3294299854434755
v 0.079528218832973549 3 -1.1482131289337381
v 0.079528218832973549 0 -1.1482131289337381
v 0.070877073203241978 3 -1.1662452580174922
v 0.070877073203241978 0 -1.1662452580174922
v 0.004657061799243507 3 -1.1683877238012828
v 0.0046570617992434888 0 -1.1683877238012828
v -0.0051415852706564926 3 -1.1509525147231117
v -0.0051415852706565785 0 -1.1509525147231117
v -0.069266553911020073 3 1.1488778314319767
v -0.06926655391102006 0 1.1488778314319767
v -0.080171717790283592 3 1.1656431945585664
v -0.08017171779028355 0 1.1656431945585664
v -0.14611475190344475 3 1.1592247584615936
v -0.14611475190344475 0 1.1592247584615936
v -0.15358221109653375 3 1.1406711320451879
v -0.15358221109653375 0 1.1406711320451879
v -0.25720575612238455 3 -1.3155555221362063
v -0.2572057561223845 0 -1.3155555221362063
v -0.26700440319228452 3 -1.2981203130580352
v -0.26700440319228458 0 -1.2981203130580352
v -0.32181456343994053 3 -1.2856294509911945
v -0.32181456343994053 0 -1.2856294509911945
v -0.33820005975749168 3 -1.2970974721992112
v -0.33820005975749168 0 -1.2970974721992112
v -0.42477529874759035 3 1.2713799897668083
v -0.42477529874759035 0 1.2713799897668083
v -0.4322427579406794 3 1.2528263633504029
v -0.4322427579406794 0 1.2528263633504029
v -0.48498345310451019 3 1.233368861579043
v -0.48498345310451013 0 1.233368861579043
v -0.49405501871937058 3 -1.0395324744926215
v -0.49405501871937058 0 -1.0395324744926215
v -0.50271150361771944 3 1.2426271673096341
v -0.50271150361771944 0 1.2426271673096341
v -0.51044051503692156 3 -1.0510004957006382
v -0.51044051503692156 0 -1.0510004957006382
v -0.5691773926983974 3 -1.0003775400755477
v -0.5691773926983974 0 -1.0003775400755477
v -0.56919350867203167 3 -1.0203775335824317
v -0.56919350867203167 0 -1.0203775335824317
v -0.62403575909766784 3 0.96710780082364534
v -0.62403575909766784 0 0.96710780082364534
v -0.64176380961087709 3 0.97636610655423628
v -0.64176380961087709 0 0.97636610655423639
v -0.6934790129560684 3 0.9185885834452916
v -0.6934790129560684 0 0.9185885834452916
v -0.69607517965734345 3 0.93841936553927852
v -0.69607517965734345 0 0.93841936553927852
v -0.86956120998705244 3 -1.0001354911129852
v -0.86956120998705244 0 -1.0001354911129852
v -0.86957732596068671 3 -1.0201354846198691
v -0.86957732596068671 0 -1.0201354846198691
v -0.91119243648410575 3 -0.96235962207073011
v -0.91119243648410575 0 -0.96235962207073011
v -0.93109679943729373 3 -0.9643131663952238
v -0.93109679943729373 0 -0.9643131663952238
v -0.94053310108142141 3 -0.66341209878680607
v -0.94053310108142141 0 -0.66341209878680607
v -0.96043746403460939 3 -0.66536564311129964
v -0.96043746403460939 0 -0.66536564311129964
v -0.98678136948253692 3 -0.59243620406649611
v -0.98678136948253692 0 -0.59243620406649611
v -0.99132141091289783 3 0.8795962475838679
v -0.99132141091289783 0 0.8795962475838679
v -0.99391757761417299 3 0.89942702967785482
v -0.99391757761417299 0 0.89942702967785482
v -0.99660810235554709 3 -0.60985559903424702
v -0.99660810235554709 0 -0.60985559903424691
v -1.0182597638529942 3 0.53653068911721591
v -1.0182597638529942 0 0.53653068911721591
v -1.0277313022845611 3 0.83676524115335937
v -1.0277313022845611 0 0.83676524115335937
v -1.0382498190612441 3 0.53590006024765358
v -1.0382498190612441 0 0.53590006024765358
v -1.047721357492811 3 0.83613461228379704
v -1.047721357492811 0 0.83613461228379704
v -1.0549650018023669 3 0.46018145553540352
v -1.0549650018023669 0 0.46018145553540352
v -1.0669568805848424 3 0.47618754322935319
v -1.0669568805848424 0 0.47618754322935319
v -1.1450409549364613 3 -0.11661620198217218
v -1.1450409549364613 0 -0.11661620198217218
v -1.1505168612706544 3 -0.032079260877887698
v -1.1505168612706544 0 -0.032079260877887698
v -1.1633434043565376 3 -0.10855268257526587
v -1.1633434043565376 0 -0.10855268257526587
v -1.1676260950245552 3 -0.04243658294270683
v -1.1676260950245552 0 -0.042436582942706823
v -1.2484066721843003 3 -0.4448465795571323
v -1.2484066721843003 0 -0.44484657955713225
v -1.2582334050573105 3 -0.46226597452488316
v -1.2582334050573105 0 -0.46226597452488316
v -1.2661485312661234 3 -0.39150427235293173
v -1.2661485312661234 0 -0.39150427235293173
v -1.2844509806861995 3 -0.38344075294602536
v -1.2844509806861995 0 -0.38344075294602536
v -1.2953635659174374 3 0.28007308080502952
v -1.2953635659174374 0 0.28007308080502952
v -1.3060755087095914 3 0.22488766984194819
v -1.3060755087095914 0 0.22488766984194819
v -1.3073554446999132 3 0.29607916849897936
v -1.3073554446999132 0 0.29607916849897936
v -1.3231847424634922 3 0.21453034777712907
v -1.3231847424634922 0 0.21453034777712907
vn 0.95362794399261475 0 -0.30098798871040344
vn 0.95362794399261475 0 -0.30098798871040344
vn 0.95362794399261475 0 0.30098798871040344
vn 0.95362794399261475 0 0.30098798871040344
vn -0.30098798871040344 0 -0.95362794399261475
vn -0.30098798871040344 0 -0.95362794399261475
vn -0.30098798871040344 0 0.95362794399261475
vn -0.30098798871040344 0 0.95362794399261475
vn 0.97863352298736572 0 -0.2056124359369278
vn 0.97863352298736572 0 -0.2056124359369278
vn 0.2056124359369278 0 0.97863352298736572
vn 0.2056124359369278 0 0.97863352298736572
vn 0.30098798871040344 0 0.95362794399261475
vn 0.30098798871040344 0 0.95362794399261475
vn 0.30098798871040344 0 -0.95362794399261475
vn 0.30098798871040344 0 -0.95362794399261475
vn -0.95362794399261475 0 0.30098798871040344
vn -0.95362794399261475 0 0.30098798871040344
vn -0.95362794399261475 0 -0.30098798871040344
vn -0.95362794399261475 0 -0.30098798871040344
vn -0.2056124359369278 0 -0.97863352298736572
vn -0.2056124359369278 0 -0.97863352298736572
vn -0.97863352298736572 0 0.2056124359369278
vn -0.97863352298736572 0 0.2056124359369278
vn 0.73015338182449341 0 0.68328326940536499
vn 0.73015338182449341 0 0.68328326940536499
vn 0.68328326940536499 0 -0.73015338182449341
vn 0.68328326940536499 0 -0.73015338182449341
vn -0.68328326940536499 0 0.73015338182449341
vn -0.68328326940536499 0 0.73015338182449341
vn -0.73015338182449341 0 -0.68328326940536499
vn -0.73015338182449341 0 -0.68328326940536499
vn 0.75186675786972046 0 -0.65931510925292969
vn 0.75186675786972046 0 -0.65931510925292969
vn 0.65931510925292969 0 0.75186675786972046
vn 0.65931510925292969 0 0.75186675786972046
vn -0.65931510925292969 0 -0.75186675786972046
vn -0.65931510925292969 0 -0.75186675786972046
vn -0.75186675786972046 0 0.65931510925292969
vn -0.75186675786972046 0 0.65931510925292969
vn 0.97147285938262939 0 0.23715081810951233
vn 0.97147285938262939 0 0.23715081810951233
vn -0.23715081810951233 0 0.97147285938262939
vn -0.23715081810951233 0 0.97147285938262939
vn 0.23715081810951233 0 -0.97147285938262939
vn 0.23715081810951233 0 -0.97147285938262939
vn -0.97147285938262939 0 -0.23715081810951233
vn -0.97147285938262939 0 -0.23715081810951233
vn 0.94339621067047119 0 0.33166787028312683
vn 0.94339621067047119 0 0.33166787028312683
vn 0.33166787028312683 0 -0.94339621067047119
vn 0.33166787028312683 0 -0.94339621067047119
vn 0.97830086946487427 0 -0.20718935132026672
vn 0.97830086946487427 0 -0.20718935132026672
vn 0.20718935132026672 0 0.97830086946487427
vn 0.20718935132026672 0 0.97830086946487427
vn -0.33166787028312683 0 0.94339621067047119
vn -0.33166787028312683 0 0.94339621067047119
vn -0.94339621067047119 0 -0.33166787028312683
vn -0.94339621067047119 0 -0.33166787028312683
vn 0.96286219358444214 0 -0.26999321579933167
vn 0.96286219358444214 0 -0.26999321579933167
vn 0.26999321579933167 0 0.96286219358444214
vn 0.26999321579933167 0 0.96286219358444214
vn -0.20718935132026672 0 -0.97830086946487427
vn -0.20718935132026672 0 -0.97830086946487427
vn -0.97830086946487427 0 0.20718935132026672
vn -0.97830086946487427 0 0.20718935132026672
vn 0.91998428106307983 0 0.39195519685745239
vn 0.91998428106307983 0 0.39195519685745239
vn 0.39195519685745239 0 -0.91998428106307983
vn 0.39195519685745239 0 -0.91998428106307983
vn -0.26999321579933167 0 -0.96286219358444214
vn -0.26999321579933167 0 -0.96286219358444214
vn -0.96286219358444214 0 0.26999321579933167
vn -0.96286219358444214 0 0.26999321579933167
vn 0.98477053642272949 0 -0.17385903000831604
vn 0.98477053642272949 0 -0.17385903000831604
vn -0.17385903000831604 0 -0.98477053642272949
vn -0.17385903000831604 0 -0.98477053642272949
vn -0.39195519685745239 0 0.91998428106307983
vn -0.39195519685745239 0 0.91998428106307983
vn -0.91998428106307983 0 -0.39195519685745239
vn -0.91998428106307983 0 -0.39195519685745239
vn 0.95411175489425659 0 0.29945069551467896
vn 0.95411175489425659 0 0.29945069551467896
vn 0.17385903000831604 0 0.98477053642272949
vn 0.17385903000831604 0 0.98477053642272949
vn -0.29945069551467896 0 0.95411175489425659
vn -0.29945069551467896 0 0.95411175489425659
vn -0.98477053642272949 0 0.17385903000831604
vn -0.98477053642272949 0 0.17385903000831604
vn 0.70767635107040405 0 0.70653676986694336
vn 0.70767635107040405 0 0.70653676986694336
vn 0.70653676986694336 0 -0.70767635107040405
vn 0.70653676986694336 0 -0.70767635107040405
vn 0.29945069551467896 0 -0.95411175489425659
vn 0.29945069551467896 0 -0.95411175489425659
vn -0.95411175489425659 0 -0.29945069551467896
vn -0.95411175489425659 0 -0.29945069551467896
vn 0.79291236400604248 0 -0.60933572053909302
vn 0.79291236400604248 0 -0.60933572053909302
vn 0.60933572053909302 0 0.79291236400604248
vn 0.60933572053909302 0 0.79291236400604248
vn -0.70653676986694336 0 0.70767635107040405
vn -0.70653676986694336 0 0.70767635107040405
vn -0.70767635107040405 0 -0.70653676986694336
vn -0.70767635107040405 0 -0.70653676986694336
vn 0.77279371023178101 0 -0.63465726375579834
vn 0.77279371023178101 0 -0.63465726375579834
vn -0.63465726375579834 0 -0.77279371023178101
vn -0.63465726375579834 0 -0.77279371023178101
vn 0.63465726375579834 0 0.77279371023178101
vn 0.63465726375579834 0 0.77279371023178101
vn -0.77279371023178101 0 0.63465726375579834
vn -0.77279371023178101 0 0.63465726375579834
vn 0.96329605579376221 0 0.26844117045402527
vn 0.96329605579376221 0 0.26844117045402527
vn -0.60933572053909302 0 -0.79291236400604248
vn -0.60933572053909302 0 -0.79291236400604248
vn -0.79291236400604248 0 0.60933572053909302
vn -0.79291236400604248 0 0.60933572053909302
vn 0.26844117045402527 0 -0.96329605579376221
vn 0.26844117045402527 0 -0.96329605579376221
vn 0.72905129194259644 0 -0.68445909023284912
vn 0.72905129194259644 0 -0.68445909023284912
vn 0.68445909023284912 0 0.72905129194259644
vn 0.68445909023284912 0 0.72905129194259644
vn -0.68445909023284912 0 -0.72905129194259644
vn -0.68445909023284912 0 -0.72905129194259644
vn -0.72905129194259644 0 0.68445909023284912
vn -0.72905129194259644 0 0.68445909023284912
vn 0.98987758159637451 0 -0.14192374050617218
vn 0.98987758159637451 0 -0.14192374050617218
vn 0.14192374050617218 0 0.98987758159637451
vn 0.14192374050617218 0 0.98987758159637451
vn 0.93217778205871582 0 0.36200079321861267
vn 0.93217778205871582 0 0.36200079321861267
vn 0.97108936309814453 0 -0.23871617019176483
vn 0.97108936309814453 0 -0.23871617019176483
vn -0.36200079321861267 0 0.93217778205871582
vn -0.36200079321861267 0 0.93217778205871582
vn -0.23871617019176483 0 -0.97108936309814453
vn -0.23871617019176483 0 -0.97108936309814453
vn -0.26844117045402527 0 0.96329605579376221
vn -0.26844117045402527 0 0.96329605579376221
vn -0.96329605579376221 0 -0.26844117045402527
vn -0.96329605579376221 0 -0.26844117045402527
vn 0.36200079321861267 0 -0.93217778205871582
vn 0.36200079321861267 0 -0.93217778205871582
vn -0.93217778205871582 0 -0.36200079321861267
vn -0.93217778205871582 0 -0.36200079321861267
vn -0.14192374050617218 0 -0.98987758159637451
vn -0.14192374050617218 0 -0.98987758159637451
vn 0.23871617019176483 0 0.97108936309814453
vn 0.23871617019176483 0 0.97108936309814453
vn -0.98987758159637451 0 0.14192374050617218
vn -0.98987758159637451 0 0.14192374050617218
vn -0.97108936309814453 0 0.23871617019176483
vn -0.97108936309814453 0 0.23871617019176483
f 6//6 18//18 17//17 5//5
f 18//18 14//14 13//13 17//17
f 14//14 2//2 1//1 13//13
f 2//2 6//6 5//5 1//1
f 32//32 30//30 29//29 31//31
f 30//30 26//26 25//25 29//29
f 26//26 28//28 27//27 25//25
f 28//28 32//32 31//31 27//27
f 48//48 44//44 43//43 47//47
f 44//44 42//42 41//41 43//43
f 42//42 46//46 45//45 41//41
f 46//46 48//48 47//47 45//45
f 76//76 64//64 63//63 75//75
f 64//64 62//62 61//61 63//63
f 62//62 74//74 73//73 61//61
f 74//74 76//76 75//75 73//73
f 106//106 94//94 93//93 105//105
f 94//94 96//96 95//95 93//93
f 96//96 108//108 107//107 95//95
f 108//108 106//106 105//105 107//107
f 146//146 118//118 117//117 145//145
f 118//118 124//124 123//123 117//117
f 124//124 148//148 147//147 123//123
f 148//148 146//146 145//145 147//147
f 156//156 140//140 139//139 155//155
f 140//140 144//144 143//143 139//139
f 144//144 160//160 159//159 143//143
f 160//160 156//156 155//155 159//159
f 128//128 126//126 125//125 127//127
f 126//126 130//130 129//129 125//125
f 130//130 132//132 131//131 129//129
f 132//132 128//128 127//127 131//131
f 86//86 98//98 97//97 85//85
f 98//98 100//100 99//99 97//97
f 100//100 90//90 89//89 99//99
f 90//90 86//86 85//85 89//89
f 54//54 66//66 65//65 53//53
f 66//66 68//68 67//67 65//65
f 68//68 56//56 55//55 67//67
f 56//56 54//54 53//53 55//55
f 8//8 4//4 3//3 7//7
f 4//4 16//16 15//15 3//3
f 16//16 20//20 19//19 15//15
f 20//20 8//8 7//7 19//19
f 12//12 10//10 9//9 11//11
f 10//10 22//22 21//21 9//9
f 22//22 24//24 23//23 21//21
f 24//24 12//12 11//11 23//23
f 36//36 34//34 33//33 35//35
f 34//34 38//38 37//37 33//33
f 38//38 40//40 39//39 37//37
f 40//40 36//36 35//35 39//39
f 50//50 52//52 51//51 49//49
f 52//52 60//60 59//59 51//51
f 60//60 58//58 57//57 59//59
f 58//58 50//50 49//49 57//57
f 78//78 80//80 79//79 77//77
f 80//80 92//92 91//91 79//79
f 92//92 88//88 87//87 91//91
f 88//88 78//78 77//77 87//87
f 110//110 112//112 111//111 109//109
f 112//112 116//116 115//115 111//111
f 116//116 114//114 113//113 115//115
f 114//114 110//110 109//109 113//113
f 150//150 152//152 151//151 149//149
f 152//152 142//142 141//141 151//151
f 142//142 138//138 137//137 141//141
f 138//138 150//150 149//149 137//137
f 154//154 158//158 157//157 153//153
f 158//158 136//136 135//135 157//157
f 136//136 134//134 133//133 135//135
f 134//134 154//154 153//153 133//133
f 120//120 122//122 121//121 119//119
f 122//122 104//104 103//103 121//121
f 104//104 102//102 101//101 103//103
f 102//102 120//120 119//119 101//101
f 84//84 82//82 81//81 83//83
f 82//82 70//70 69//69 81//81
f 70//70 72//72 71//71 69//69
f 72//72 84//84 83//83 71//71
