# Rhino

mtllib Pannelli48.mtl
usemtl diffuse_Black
v 1.4773372628721373 3 -0.11635892814561986
v 1.4773372628721373 0 -0.11635892814561991
v 1.4773372628721377 3 0.11635892814561417
v 1.4773372628721377 0 0.11635892814561417
v 1.4711325707757448 3 -0.13537212871756382
v 1.4711325707757448 0 -0.13537212871756382
v 1.4711325707757452 3 0.13537212871755808
v 1.4711325707757452 0 0.13537212871755808
v 1.4704398412403616 3 -0.18404201075503357
v 1.4704398412403616 0 -0.18404201075503357
v 1.4681980471815423 3 -0.16416804891050329
v 1.4681980471815423 0 -0.16416804891050329
v 1.4234959173673165 3 -0.41197592365127028
v 1.4234959173673165 0 -0.41197592365127028
v 1.4135834249404677 3 -0.42934666036240815
v 1.4135834249404677 0 -0.42934666036240815
v 1.4049005032132424 3 -0.45695867439184729
v 1.4049005032132424 0 -0.45695867439184729
v 1.4030872308375157 3 -0.47687630585975604
v 1.4030872308375157 0 -0.47687630585975604
v 1.3111294204175408 3 -0.69065507407482318
v 1.3111294204175408 0 -0.69065507407482318
v 1.2979166666727473 3 -0.70566917206569335
v 1.2979166666727473 0 -0.70566917206569324
v 1.2838423336523419 3 -0.73096204850380908
v 1.2838423336523419 0 -0.73096204850380908
v 1.2780485451369494 3 -0.75010446252709539
v 1.2780485451369494 0 -0.75010446252709539
v 1.1719416335774626 3 -0.016697335654265864
v 1.1719416335774626 0 -0.016697335654265857
v 1.1719416335774626 3 0.016697335654261333
v 1.1719416335774626 0 0.016697335654261333
v 1.1657369414810701 3 -0.03571053622620983
v 1.1657369414810701 0 -0.035710536226209788
v 1.1657369414810701 3 0.035710536226205243
v 1.1657369414810701 0 0.035710536226205243
v 1.1512184107861545 3 -0.22005036740974451
v 1.1512184107861545 0 -0.22005036740974451
v 1.1489766167273352 3 -0.20017640556521421
v 1.1489766167273352 0 -0.20017640556521421
v 1.1448575718909311 3 -0.94093885482200079
v 1.1448575718909311 0 -0.94093885482200079
v 1.1444820265109785 3 -0.25275854985239538
v 1.1444820265109785 0 -0.25275854985239538
v 1.1345695340841297 3 -0.27012928656353324
v 1.1345695340841297 0 -0.27012928656353324
v 1.1288877817187488 3 -0.95297902931643752
v 1.1288877817187488 0 -0.95297902931643752
v 1.1100006849878199 3 -0.97491288500939743
v 1.1100006849878199 0 -0.97491288500939743
v 1.1004645842827459 3 -0.99249306655973135
v 1.1004645842827459 0 -0.99249306655973135
v 1.0849776384022967 3 -0.42783335926290039
v 1.0849776384022967 0 -0.42783335926290039
v 1.0831643660265702 3 -0.44775099073080921
v 1.0831643660265702 0 -0.44775099073080921
v 1.0699685550038704 3 -0.4784279306573691
v 1.0699685550038704 0 -0.47842793065736905
v 1.056755801259077 3 -0.49344202864823922
v 1.056755801259077 0 -0.49344202864823922
v 0.97637123983307406 3 -0.63790051039172935
v 0.97637123983307406 0 -0.63790051039172935
v 0.97057745131768169 3 -0.65704292441501577
v 0.97057745131768169 0 -0.65704292441501577
v 0.95146474186040919 3 -0.68442738002410997
v 0.95146474186040919 0 -0.68442738002411008
v 0.93549495168822705 3 -0.69646755451854669
v 0.93549495168822716 0 -0.69646755451854681
v 0.93151641887222281 3 -1.1525371793574408
v 0.93151641887222281 0 -1.1525371793574408
v 0.91344616906853071 3 -1.1611084145095159
v 0.91344616906853071 0 -1.1611084145095159
v 0.89052282662270232 3 -1.1787814679976472
v 0.89052282662270232 0 -1.1787814679976472
v 0.877636477892761 3 -1.1940766311680859
v 0.877636477892761 0 -1.1940766311680859
v 0.82762262941725095 3 -0.82174122593896837
v 0.82762262941725095 0 -0.82174122593896837
v 0.81808652871217702 3 -0.83932140748930217
v 0.81808652871217702 0 -0.83932140748930217
v 0.79384271458472777 3 -0.86228750311651448
v 0.79384271458472777 0 -0.86228750311651436
v 0.77577246478103568 3 -0.87085873826858962
v 0.77577246478103568 0 -0.87085873826858962
v 0.67987720063054857 3 -1.3167504624994459
v 0.67987720063054857 0 -1.3167504624994459
v 0.6604494256101956 3 -1.3215003633150995
v 0.6604494256101956 0 -1.3215003633150995
v 0.64484740948680552 3 -0.97179713809485935
v 0.64484740948680552 0 -0.97179713809485935
v 0.63443230034795506 3 -1.3341860103846011
v 0.63443230034795506 0 -1.3341860103846011
v 0.6319610607568642 3 -0.9870923012652979
v 0.6319610607568642 0 -0.9870923012652979
v 0.61872550877333032 3 -1.3465673147759527
v 0.61872550877333032 0 -1.3465673147759527
v 0.60358289430401213 3 -1.0046958162716484
v 0.60358289430401213 0 -1.0046958162716484
v 0.58415511928365915 3 -1.0094457170873019
v 0.58415511928365915 0 -1.0094457170873019
v 0.43556014140879651 3 -1.0818988965458614
v 0.43556014140879651 0 -1.0818988965458614
v 0.41985334983417189 3 -1.094280200937213
v 0.41985334983417189 0 -1.094280200937213
v 0.40028573072069651 3 -1.4268272923557126
v 0.40028573072069651 0 -1.4268272923557126
v 0.38850756182705648 3 -1.1057973900915838
v 0.38850756182705648 0 -1.1057973900915838
v 0.38029917775189198 3 -1.4275605729467353
v 0.38029917775189198 0 -1.4275605729467353
v 0.36852100885825195 3 -1.1065306706826066
v 0.36852100885825195 0 -1.1065306706826066
v 0.3522579293593387 3 -1.434737260000676
v 0.3522579293593387 0 -1.434737260000676
v 0.33437645889650175 3 -1.4436956646625951
v 0.33437645889650175 0 -1.4436956646625951
v 0.20836539433605963 3 -1.1475198131511199
v 0.20836539433605963 0 -1.1475198131511199
v 0.19048392387322269 3 -1.1564782178130391
v 0.19048392387322269 0 -1.1564782178130391
v 0.15745925491720555 3 -1.1614355671198817
v 0.15745925491720555 0 -1.1614355671198817
v 0.13773564468428084 3 -1.1581220796248592
v 0.13773564468428084 0 -1.1581220796248592
v 0.10423704254568071 3 -1.4782420056915804
v 0.10423704254568071 0 -1.4782420056915804
v 0.084513432312755987 3 -1.4749285181965579
v 0.084513432312756001 0 -1.4749285181965579
v 0.05560093962070177 3 -1.4763011852410304
v 0.05560093962070177 0 -1.4763011852410304
v 0.036279963271645704 3 -1.4814683772172608
v 0.036279963271645704 0 -1.4814683772172608
v -0.027396020270194985 3 -1.1659619707368496
v -0.027396020270194985 0 -1.1659619707368496
v -0.046716996619251078 3 -1.17112916271308
v -0.046716996619251078 0 -1.17112916271308
v -0.080062780949650497 3 -1.1693228573139116
v -0.080062780949650483 0 -1.1693228573139116
v -0.098712538305092537 3 -1.1620988313876617
v -0.098712538305092565 0 -1.1620988313876617
v -0.19609721373440064 3 -1.4688807545867502
v -0.19609721373440062 0 -1.4688807545867502
v -0.21474697108984267 3 -1.4616567286605002
v -0.2147469710898427 0 -1.4616567286605002
v -0.24334200919381474 3 -1.4571689403059254
v -0.24334200919381474 0 -1.4571689403059254
v -0.26203108374629147 3 -1.1364671443917536
v -0.26203108374629147 0 -1.1364671443917536
v -0.2633081350469626 3 -1.4583324773342417
v -0.2633081350469626 0 -1.4583324773342417
v -0.2819972095994393 3 -1.1376306814200698
v -0.2819972095994393 0 -1.1376306814200698
v -0.31429314149589954 3 -1.1291349851717469
v -0.31429314149589943 0 -1.1291349851717469
v -0.3311022858726726 3 -1.1182974270832848
v -0.3311022858726726 0 -1.1182974270832848
v -0.48836919249635219 3 -1.3991284144960379
v -0.48836919249635219 0 -1.3991284144960379
v -0.50517833687312519 3 -1.3882908564075758
v -0.5051783368731253 0 -1.3882908564075758
vn 0.89158713817596436 0 0.45284917950630188
vn 0.89158713817596436 0 0.45284917950630188
vn 0.89158713817596436 0 -0.45284917950630188
vn 0.89158713817596436 0 -0.45284917950630188
vn 0.45284917950630188 0 -0.89158713817596436
vn 0.45284917950630188 0 -0.89158713817596436
vn 0.45284917950630188 0 0.89158713817596436
vn 0.45284917950630188 0 0.89158713817596436
vn 0.78191006183624268 0 -0.62339127063751221
vn 0.78191006183624268 0 -0.62339127063751221
vn 0.62339127063751221 0 0.78191006183624268
vn 0.62339127063751221 0 0.78191006183624268
vn 0.964607834815979 0 0.26368874311447144
vn 0.964607834815979 0 0.26368874311447144
vn 0.26368874311447144 0 -0.964607834815979
vn 0.26368874311447144 0 -0.964607834815979
vn 0.7683035135269165 0 0.64008575677871704
vn 0.7683035135269165 0 0.64008575677871704
vn 0.64008575677871704 0 -0.7683035135269165
vn 0.64008575677871704 0 -0.7683035135269165
vn 0.99796992540359497 0 0.063687130808830261
vn 0.99796992540359497 0 0.063687130808830261
vn 0.063687130808830261 0 -0.99796992540359497
vn 0.063687130808830261 0 -0.99796992540359497
vn 0.88162791728973389 0 0.47194516658782959
vn 0.88162791728973389 0 0.47194516658782959
vn 0.47194516658782959 0 -0.88162791728973389
vn 0.47194516658782959 0 -0.88162791728973389
vn -0.45284917950630188 0 0.89158713817596436
vn -0.45284917950630188 0 0.89158713817596436
vn -0.45284917950630188 0 -0.89158713817596436
vn -0.45284917950630188 0 -0.89158713817596436
vn -0.89158713817596436 0 -0.45284917950630188
vn -0.89158713817596436 0 -0.45284917950630188
vn -0.89158713817596436 0 0.45284917950630188
vn -0.89158713817596436 0 0.45284917950630188
vn -0.62339127063751221 0 -0.78191006183624268
vn -0.62339127063751221 0 -0.78191006183624268
vn -0.78191006183624268 0 0.62339127063751221
vn -0.78191006183624268 0 0.62339127063751221
vn 0.99030178785324097 0 -0.13893292844295502
vn 0.99030178785324097 0 -0.13893292844295502
vn -0.26368874311447144 0 0.964607834815979
vn -0.26368874311447144 0 0.964607834815979
vn -0.964607834815979 0 -0.26368874311447144
vn -0.964607834815979 0 -0.26368874311447144
vn -0.13893292844295502 0 -0.99030178785324097
vn -0.13893292844295502 0 -0.99030178785324097
vn 0.9587053656578064 0 0.28440120816230774
vn 0.9587053656578064 0 0.28440120816230774
vn 0.28440120816230774 0 -0.9587053656578064
vn 0.28440120816230774 0 -0.9587053656578064
vn -0.64008575677871704 0 0.7683035135269165
vn -0.64008575677871704 0 0.7683035135269165
vn -0.7683035135269165 0 -0.64008575677871704
vn -0.7683035135269165 0 -0.64008575677871704
vn -0.063687130808830261 0 0.99796992540359497
vn -0.063687130808830261 0 0.99796992540359497
vn -0.99796992540359497 0 -0.063687130808830261
vn -0.99796992540359497 0 -0.063687130808830261
vn -0.47194516658782959 0 0.88162791728973389
vn -0.47194516658782959 0 0.88162791728973389
vn -0.88162791728973389 0 -0.47194516658782959
vn -0.88162791728973389 0 -0.47194516658782959
vn 0.13893292844295502 0 0.99030178785324097
vn 0.13893292844295502 0 0.99030178785324097
vn -0.99030178785324097 0 0.13893292844295502
vn -0.99030178785324097 0 0.13893292844295502
vn 0.94191873073577881 0 -0.33584091067314148
vn 0.94191873073577881 0 -0.33584091067314148
vn -0.33584091067314148 0 -0.94191873073577881
vn -0.33584091067314148 0 -0.94191873073577881
vn 0.99636691808700562 0 0.085164450109004974
vn 0.99636691808700562 0 0.085164450109004974
vn 0.085164450109004974 0 -0.99636691808700562
vn 0.085164450109004974 0 -0.99636691808700562
vn -0.28440120816230774 0 0.9587053656578064
vn -0.28440120816230774 0 0.9587053656578064
vn -0.9587053656578064 0 -0.28440120816230774
vn -0.9587053656578064 0 -0.28440120816230774
vn 0.33584091067314148 0 0.94191873073577881
vn 0.33584091067314148 0 0.94191873073577881
vn -0.94191873073577881 0 0.33584091067314148
vn -0.94191873073577881 0 0.33584091067314148
vn 0.85480993986129761 0 -0.51894122362136841
vn 0.85480993986129761 0 -0.51894122362136841
vn -0.51894122362136841 0 -0.85480993986129761
vn -0.51894122362136841 0 -0.85480993986129761
vn -0.085164450109004974 0 0.99636691808700562
vn -0.085164450109004974 0 0.99636691808700562
vn 0.99306416511535645 0 -0.11757373064756393
vn 0.99306416511535645 0 -0.11757373064756393
vn -0.99636691808700562 0 -0.085164450109004974
vn -0.99636691808700562 0 -0.085164450109004974
vn -0.11757373064756393 0 -0.99306416511535645
vn -0.11757373064756393 0 -0.99306416511535645
vn 0.51894122362136841 0 0.85480993986129761
vn 0.51894122362136841 0 0.85480993986129761
vn -0.85480993986129761 0 0.51894122362136841
vn -0.85480993986129761 0 0.51894122362136841
vn 0.11757373064756393 0 0.99306416511535645
vn 0.11757373064756393 0 0.99306416511535645
vn -0.99306416511535645 0 0.11757373064756393
vn -0.99306416511535645 0 0.11757373064756393
vn 0.73255670070648193 0 -0.6807059645652771
vn 0.73255670070648193 0 -0.6807059645652771
vn 0.6807059645652771 0 0.73255670070648193
vn 0.6807059645652771 0 0.73255670070648193
vn -0.6807059645652771 0 -0.73255670070648193
vn -0.6807059645652771 0 -0.73255670070648193
vn -0.73255670070648193 0 0.6807059645652771
vn -0.73255670070648193 0 0.6807059645652771
vn 0.94893288612365723 0 -0.31547802686691284
vn 0.94893288612365723 0 -0.31547802686691284
vn -0.31547802686691284 0 -0.94893288612365723
vn -0.31547802686691284 0 -0.94893288612365723
vn 0.31547802686691284 0 0.94893288612365723
vn 0.31547802686691284 0 0.94893288612365723
vn -0.94893288612365723 0 0.31547802686691284
vn -0.94893288612365723 0 0.31547802686691284
vn 0.81448441743850708 0 0.5801854133605957
vn 0.81448441743850708 0 0.5801854133605957
vn -0.5801854133605957 0 0.81448441743850708
vn -0.5801854133605957 0 0.81448441743850708
vn 0.5801854133605957 0 -0.81448441743850708
vn 0.5801854133605957 0 -0.81448441743850708
vn -0.81448441743850708 0 -0.5801854133605957
vn -0.81448441743850708 0 -0.5801854133605957
vn 0.86578750610351563 0 -0.50041186809539795
vn 0.86578750610351563 0 -0.50041186809539795
vn -0.50041186809539795 0 -0.86578750610351563
vn -0.50041186809539795 0 -0.86578750610351563
vn 0.50041186809539795 0 0.86578750610351563
vn 0.50041186809539795 0 0.86578750610351563
vn -0.86578750610351563 0 0.50041186809539795
vn -0.86578750610351563 0 0.50041186809539795
vn 0.91477638483047485 0 0.40396061539649963
vn 0.91477638483047485 0 0.40396061539649963
vn -0.40396061539649963 0 0.91477638483047485
vn -0.40396061539649963 0 0.91477638483047485
vn 0.40396061539649963 0 -0.91477638483047485
vn 0.40396061539649963 0 -0.91477638483047485
vn -0.91477638483047485 0 -0.40396061539649963
vn -0.91477638483047485 0 -0.40396061539649963
vn 0.74704641103744507 0 -0.66477185487747192
vn 0.74704641103744507 0 -0.66477185487747192
vn 0.66477185487747192 0 0.74704641103744507
vn 0.66477185487747192 0 0.74704641103744507
vn -0.66477185487747192 0 -0.74704641103744507
vn -0.66477185487747192 0 -0.74704641103744507
vn -0.74704641103744507 0 0.66477185487747192
vn -0.74704641103744507 0 0.66477185487747192
vn 0.97745853662490845 0 0.21112741529941559
vn 0.97745853662490845 0 0.21112741529941559
vn -0.21112741529941559 0 0.97745853662490845
vn -0.21112741529941559 0 0.97745853662490845
vn 0.21112741529941559 0 -0.97745853662490845
vn 0.21112741529941559 0 -0.97745853662490845
vn -0.97745853662490845 0 -0.21112741529941559
vn -0.97745853662490845 0 -0.21112741529941559
f 6//6 34//34 33//33 5//5
f 34//34 30//30 29//29 33//33
f 30//30 2//2 1//1 29//29
f 2//2 6//6 5//5 1//1
f 16//16 46//46 45//45 15//15
f 46//46 44//44 43//43 45//45
f 44//44 14//14 13//13 43//43
f 14//14 16//16 15//15 13//13
f 24//24 60//60 59//59 23//23
f 60//60 58//58 57//57 59//59
f 58//58 22//22 21//21 57//57
f 22//22 24//24 23//23 21//21
f 48//48 68//68 67//67 47//47
f 68//68 66//66 65//65 67//67
f 66//66 42//42 41//41 65//65
f 42//42 48//48 47//47 41//41
f 72//72 84//84 83//83 71//71
f 84//84 82//82 81//81 83//83
f 82//82 70//70 69//69 81//81
f 70//70 72//72 71//71 69//69
f 88//88 100//100 99//99 87//87
f 100//100 98//98 97//97 99//99
f 98//98 86//86 85//85 97//97
f 86//86 88//88 87//87 85//85
f 110//110 112//112 111//111 109//109
f 112//112 108//108 107//107 111//111
f 108//108 106//106 105//105 107//107
f 106//106 110//110 109//109 105//105
f 128//128 124//124 123//123 127//127
f 124//124 122//122 121//121 123//123
f 122//122 126//126 125//125 121//121
f 126//126 128//128 127//127 125//125
f 144//144 140//140 139//139 143//143
f 140//140 138//138 137//137 139//139
f 138//138 142//142 141//141 137//137
f 142//142 144//144 143//143 141//141
f 160//160 156//156 155//155 159//159
f 156//156 154//154 153//153 155//155
f 154//154 158//158 157//157 153//153
f 158//158 160//160 159//159 157//157
f 8//8 4//4 3//3 7//7
f 4//4 32//32 31//31 3//3
f 32//32 36//36 35//35 31//31
f 36//36 8//8 7//7 35//35
f 12//12 10//10 9//9 11//11
f 10//10 38//38 37//37 9//9
f 38//38 40//40 39//39 37//37
f 40//40 12//12 11//11 39//39
f 18//18 20//20 19//19 17//17
f 20//20 56//56 55//55 19//19
f 56//56 54//54 53//53 55//55
f 54//54 18//18 17//17 53//53
f 26//26 28//28 27//27 25//25
f 28//28 64//64 63//63 27//27
f 64//64 62//62 61//61 63//63
f 62//62 26//26 25//25 61//61
f 50//50 52//52 51//51 49//49
f 52//52 80//80 79//79 51//51
f 80//80 78//78 77//77 79//79
f 78//78 50//50 49//49 77//77
f 74//74 76//76 75//75 73//73
f 76//76 94//94 93//93 75//75
f 94//94 90//90 89//89 93//93
f 90//90 74//74 73//73 89//89
f 92//92 96//96 95//95 91//91
f 96//96 104//104 103//103 95//95
f 104//104 102//102 101//101 103//103
f 102//102 92//92 91//91 101//101
f 114//114 116//116 115//115 113//113
f 116//116 120//120 119//119 115//115
f 120//120 118//118 117//117 119//119
f 118//118 114//114 113//113 117//117
f 130//130 132//132 131//131 129//129
f 132//132 136//136 135//135 131//131
f 136//136 134//134 133//133 135//135
f 134//134 130//130 129//129 133//133
f 146//146 150//150 149//149 145//145
f 150//150 152//152 151//151 149//149
f 152//152 148//148 147//147 151//151
f 148//148 146//146 145//145 147//147
