# Rhino

mtllib Pannelli155.mtl
usemtl diffuse_Black
v 1.2409321037145788 3 -0.3236830083882673
v 1.2409321037145788 0 -0.3236830083882673
v 1.2409321037145804 3 0.32368300838826075
v 1.2409321037145804 0 0.32368300838826075
v 1.2216038621257388 3 -0.32882295752064528
v 1.2216038621257388 0 -0.32882295752064528
v 1.2216038621257406 3 0.32882295752063884
v 1.2216038621257406 0 0.32882295752063884
v 1.2169034453081544 3 -0.40475817563813626
v 1.2169034453081544 0 -0.40475817563813626
v 1.2034972433174986 3 -0.38991655348334037
v 1.2034972433174986 0 -0.38991655348334037
v 1.1646301568833197 3 -0.036757510864695746
v 1.1646301568833197 0 -0.036757510864695774
v 1.1646301568833199 3 0.036757510864689723
v 1.1646301568833199 0 0.036757510864689723
v 1.1453019152944797 3 -0.041897459997073734
v 1.1453019152944797 0 -0.041897459997073762
v 1.1453019152944801 3 0.041897459997067794
v 1.1453019152944801 0 0.041897459997067794
v 0.99658129125972506 3 -0.60377168436266815
v 0.99658129125972506 0 -0.60377168436266815
v 0.98317508926906916 3 -0.58893006220787236
v 0.98317508926906916 0 -0.58893006220787236
v 0.95652382665191749 3 -0.66541467219637296
v 0.95652382665191749 0 -0.66541467219637296
v 0.93751622985479399 3 -0.65919283452587907
v 0.93751622985479399 0 -0.65919283452587907
v 0.86416137035128182 3 -0.94758023509429723
v 0.86416137035128182 0 -0.94758023509429723
v 0.85433530790322498 3 0.95644882645056895
v 0.85433530790322498 0 0.95644882645056895
v 0.85008792988718573 3 0.93690503510935619
v 0.85008792988718573 0 0.93690503510935619
v 0.84515377355415833 3 -0.94135839742380334
v 0.84515377355415833 0 -0.94135839742380334
v 0.79983623204283583 3 -1.0024695396171837
v 0.79983623204283583 0 -1.0024695396171837
v 0.79668203870162213 3 -0.98271982912902101
v 0.79668203870162213 0 -0.98271982912902101
v 0.56420999938513705 3 1.0195006589114386
v 0.56420999938513705 0 1.0195006589114386
v 0.5599626213690978 3 0.99995686757022584
v 0.5599626213690978 0 0.99995686757022584
v 0.50665407774720328 3 -1.0492931727735415
v 0.50665407774720328 0 -1.0492931727735415
v 0.50349988440598958 3 -1.029543462285379
v 0.50349988440598958 0 -1.029543462285379
v 0.4987971024481781 3 1.053050790568212
v 0.4987971024481781 0 1.053050790568212
v 0.48540277854412422 3 1.0381984477512258
v 0.48540277854412422 0 1.0381984477512258
v 0.43947700983970339 3 -1.0791545184770284
v 0.43947700983970334 0 -1.0791545184770284
v 0.42692917955778709 3 -1.0635804388825156
v 0.42692917955778709 0 -1.0635804388825156
v 0.27831580141689194 3 1.2518879704791648
v 0.27831580141689194 0 1.2518879704791648
v 0.26492147751283807 3 1.2370356276621786
v 0.26492147751283807 0 1.2370356276621786
v 0.20828161032092724 3 -1.2654255990578389
v 0.20828161032092724 0 -1.2654255990578389
v 0.20229769759968844 3 1.2488058996093068
v 0.20229769759968844 0 1.2488058996093068
v 0.19573378003901096 3 -1.2498515194633262
v 0.19573378003901098 0 -1.2498515194633262
v 0.19520998074498652 3 1.267507885327074
v 0.19520998074498652 0 1.267507885327074
v 0.13255245275121885 3 -1.2581217670093707
v 0.13255245275121885 0 -1.2581217670093707
v 0.12443588809409506 3 -1.27640075434912
v 0.12443588809409506 0 -1.27640075434912
v -0.075331104383386999 3 1.1435895675651249
v -0.075331104383386985 0 1.1435895675651249
v -0.082418821238088927 3 1.1622915532828921
v -0.082418821238088927 0 1.1622915532828921
v -0.13879698752652364 3 -1.1376323090458413
v -0.13879698752652364 0 -1.1376323090458413
v -0.14691355218364743 3 -1.1559112963855906
v -0.14691355218364743 0 -1.1559112963855906
v -0.15554917602831081 3 1.1547809189469436
v -0.15554917602831081 0 1.1547809189469436
v -0.1586875679283111 3 1.1350286913185976
v -0.1586875679283111 0 1.1350286913185976
v -0.21951320396680887 3 -1.1443463069417668
v -0.21951320396680887 0 -1.1443463069417668
v -0.22154853774936539 3 -1.1244501410700825
v -0.22154853774936537 0 -1.1244501410700825
v -0.44876869697709931 3 1.2013699815470027
v -0.44876869697709931 0 1.2013699815470027
v -0.45190708887709963 3 1.1816177539186563
v -0.45190708887709963 0 1.1816177539186563
v -0.51083115709242244 3 1.1573642738121659
v -0.51083115709242244 0 1.1573642738121659
v -0.51486947139057393 3 -1.1745606001304316
v -0.51486947139057393 0 -1.1745606001304316
v -0.51690480517313042 3 -1.1546644342587473
v -0.51690480517313042 0 -1.1546644342587473
v -0.52696476008847803 3 1.1691840392229367
v -0.52696476008847803 0 1.1691840392229367
v -0.57438925989108325 3 -1.1271723521604486
v -0.57438925989108325 0 -1.1271723521604486
v -0.59115507394982358 3 -1.138076822755014
v -0.59115507394982358 0 -1.138076822755014
v -0.686294199372251 3 0.91786281449866514
v -0.686294199372251 0 0.91786281449866514
v -0.7024278023683066 3 0.92968257990943604
v -0.7024278023683066 0 0.92968257990943604
v -0.73626485711992506 3 -0.8782857931798661
v -0.73626485711992506 0 -0.8782857931798661
v -0.75152460205859772 3 0.86526449530307015
v -0.75152460205859772 0 0.86526449530307015
v -0.7530306711786654 3 -0.88919026377443133
v -0.7530306711786654 0 -0.88919026377443133
v -0.75965578792206834 3 0.88353698326868924
v -0.75965578792206834 0 0.88353698326868924
v -0.79846994757473488 3 -0.82214209060928767
v -0.79846994757473488 0 -0.82214209060928778
v -0.8076044875482431 3 -0.83993422874590218
v -0.8076044875482431 0 -0.83993422874590229
v -1.0227775598835809 3 0.74455798723251454
v -1.0227775598835809 0 0.74455798723251454
v -1.0309087457470516 3 0.76283047519813352
v -1.0309087457470516 0 0.76283047519813352
v -1.0589704717067177 3 0.69211420546496272
v -1.0589704717067177 0 0.69211420546496272
v -1.0625921680773938 3 -0.68654090751660901
v -1.0625921680773938 0 -0.68654090751660901
v -1.0717267080509021 3 -0.70433304565322352
v -1.0717267080509021 0 -0.70433304565322352
v -1.0755962567748463 3 0.39568240641118774
v -1.0755962567748463 0 0.39568240641118774
v -1.0789390889128452 3 0.69323417281946575
v -1.0789390889128452 0 0.69323417281946575
v -1.0955648739809738 3 0.39680237376569066
v -1.0955648739809738 0 0.39680237376569066
v -1.0958132755423213 3 -0.63216595803503539
v -1.0958132755423213 0 -0.63216595803503539
v -1.0959320396074361 3 -0.33526830881145853
v -1.0959320396074361 0 -0.33526830881145853
v -1.1016323180388989 3 0.31603498253144741
v -1.1016323180388989 0 0.31603498253144741
v -1.1158132739421864 3 -0.63217395837157708
v -1.1158132739421864 0 -0.63217395837157708
v -1.1159320380073012 3 -0.33527630914800027
v -1.1159320380073012 0 -0.33527630914800027
v -1.1174995127323792 3 -0.25429650680712201
v -1.1174995127323792 0 -0.25429650680712196
v -1.1184068506748861 3 0.32692603642187495
v -1.1184068506748861 0 0.32692603642187495
v -1.1348536296209573 3 -0.26423806739978356
v -1.1348536296209573 0 -0.2642380673997835
v -1.2633087458558645 3 0.067018997286052318
v -1.2633087458558645 0 0.067018997286052318
v -1.2650808230186281 3 0.0033233392327033148
v -1.2650808230186281 0 0.0033233392327032679
v -1.2800832784918517 3 0.077910051176479866
v -1.2800832784918517 0 0.077910051176479866
v -1.2824349399072061 3 -0.006618221359958233
v -1.2824349399072061 0 -0.006618221359958292
vn 0.86508119106292725 0 -0.50163185596466064
vn 0.86508119106292725 0 -0.50163185596466064
vn 0.86508119106292725 0 0.50163185596466064
vn 0.86508119106292725 0 0.50163185596466064
vn -0.50163185596466064 0 -0.86508119106292725
vn -0.50163185596466064 0 -0.86508119106292725
vn -0.50163185596466064 0 0.86508119106292725
vn -0.50163185596466064 0 0.86508119106292725
vn 0.99871140718460083 0 -0.050749778747558594
vn 0.99871140718460083 0 -0.050749778747558594
vn 0.050749778747558594 0 0.99871140718460083
vn 0.050749778747558594 0 0.99871140718460083
vn 0.50163185596466064 0 0.86508119106292725
vn 0.50163185596466064 0 0.86508119106292725
vn 0.50163185596466064 0 -0.86508119106292725
vn 0.50163185596466064 0 -0.86508119106292725
vn -0.86508119106292725 0 0.50163185596466064
vn -0.86508119106292725 0 0.50163185596466064
vn -0.86508119106292725 0 -0.50163185596466064
vn -0.86508119106292725 0 -0.50163185596466064
vn -0.050749778747558594 0 -0.99871140718460083
vn -0.050749778747558594 0 -0.99871140718460083
vn -0.99871140718460083 0 0.050749778747558594
vn -0.99871140718460083 0 0.050749778747558594
vn 0.89199519157409668 0 0.45204484462738037
vn 0.89199519157409668 0 0.45204484462738037
vn -0.45204484462738037 0 0.89199519157409668
vn -0.45204484462738037 0 0.89199519157409668
vn 0.45204484462738037 0 -0.89199519157409668
vn 0.45204484462738037 0 -0.89199519157409668
vn 0.841144859790802 0 0.54080986976623535
vn 0.841144859790802 0 0.54080986976623535
vn 0.54080986976623535 0 -0.841144859790802
vn 0.54080986976623535 0 -0.841144859790802
vn -0.89199519157409668 0 -0.45204484462738037
vn -0.89199519157409668 0 -0.45204484462738037
vn 0.80977529287338257 0 -0.58674013614654541
vn 0.80977529287338257 0 -0.58674013614654541
vn 0.58674013614654541 0 0.80977529287338257
vn 0.58674013614654541 0 0.80977529287338257
vn -0.54080986976623535 0 0.841144859790802
vn -0.54080986976623535 0 0.841144859790802
vn -0.841144859790802 0 -0.54080986976623535
vn -0.841144859790802 0 -0.54080986976623535
vn -0.58674013614654541 0 -0.80977529287338257
vn -0.58674013614654541 0 -0.80977529287338257
vn -0.80977529287338257 0 0.58674013614654541
vn -0.80977529287338257 0 0.58674013614654541
vn 0.99867045879364014 0 0.051548760384321213
vn 0.99867045879364014 0 0.051548760384321213
vn 0.051548760384321213 0 -0.99867045879364014
vn 0.051548760384321213 0 -0.99867045879364014
vn 0.99425965547561646 0 -0.10699407011270523
vn 0.99425965547561646 0 -0.10699407011270523
vn 0.10699407011270523 0 0.99425965547561646
vn 0.10699407011270523 0 0.99425965547561646
vn -0.051548760384321213 0 0.99867045879364014
vn -0.051548760384321213 0 0.99867045879364014
vn -0.99867045879364014 0 -0.051548760384321213
vn -0.99867045879364014 0 -0.051548760384321213
vn -0.10699407011270523 0 -0.99425965547561646
vn -0.10699407011270523 0 -0.99425965547561646
vn 0.91180366277694702 0 -0.41062638163566589
vn 0.91180366277694702 0 -0.41062638163566589
vn -0.99425965547561646 0 0.10699407011270523
vn -0.99425965547561646 0 0.10699407011270523
vn 0.41062638163566589 0 0.91180366277694702
vn 0.41062638163566589 0 0.91180366277694702
vn 0.9332236647605896 0 0.35929590463638306
vn 0.9332236647605896 0 0.35929590463638306
vn 0.35929590463638306 0 -0.9332236647605896
vn 0.35929590463638306 0 -0.9332236647605896
vn -0.41062638163566589 0 -0.91180366277694702
vn -0.41062638163566589 0 -0.91180366277694702
vn -0.91180366277694702 0 0.41062638163566589
vn -0.91180366277694702 0 0.41062638163566589
vn -0.35929590463638306 0 0.9332236647605896
vn -0.35929590463638306 0 0.9332236647605896
vn -0.9332236647605896 0 -0.35929590463638306
vn -0.9332236647605896 0 -0.35929590463638306
vn 0.80930566787719727 0 0.58738774061203003
vn 0.80930566787719727 0 0.58738774061203003
vn 0.58738774061203003 0 -0.80930566787719727
vn 0.58738774061203003 0 -0.80930566787719727
vn 0.77539563179016113 0 -0.63147574663162231
vn 0.77539563179016113 0 -0.63147574663162231
vn 0.63147574663162231 0 0.77539563179016113
vn 0.63147574663162231 0 0.77539563179016113
vn -0.58738774061203003 0 0.80930566787719727
vn -0.58738774061203003 0 0.80930566787719727
vn -0.80930566787719727 0 -0.58738774061203003
vn -0.80930566787719727 0 -0.58738774061203003
vn 0.98830080032348633 0 0.15251718461513519
vn 0.98830080032348633 0 0.15251718461513519
vn -0.63147574663162231 0 -0.77539563179016113
vn -0.63147574663162231 0 -0.77539563179016113
vn -0.77539563179016113 0 0.63147574663162231
vn -0.77539563179016113 0 0.63147574663162231
vn -0.15251718461513519 0 0.98830080032348633
vn -0.15251718461513519 0 0.98830080032348633
vn 0.97829228639602661 0 -0.20722977817058563
vn 0.97829228639602661 0 -0.20722977817058563
vn -0.20722977817058563 0 -0.97829228639602661
vn -0.20722977817058563 0 -0.97829228639602661
vn 0.15251718461513519 0 -0.98830080032348633
vn 0.15251718461513519 0 -0.98830080032348633
vn -0.98830080032348633 0 -0.15251718461513519
vn -0.98830080032348633 0 -0.15251718461513519
vn 0.20722977817058563 0 0.97829228639602661
vn 0.20722977817058563 0 0.97829228639602661
vn 0.93351083993911743 0 -0.35854917764663696
vn 0.93351083993911743 0 -0.35854917764663696
vn -0.97829228639602661 0 0.20722977817058563
vn -0.97829228639602661 0 0.20722977817058563
vn 0.35854917764663696 0 0.93351083993911743
vn 0.35854917764663696 0 0.93351083993911743
vn 0.95200181007385254 0 0.30609232187271118
vn 0.95200181007385254 0 0.30609232187271118
vn 0.30609232187271118 0 -0.95200181007385254
vn 0.30609232187271118 0 -0.95200181007385254
vn -0.35854917764663696 0 -0.93351083993911743
vn -0.35854917764663696 0 -0.93351083993911743
vn -0.93351083993911743 0 0.35854917764663696
vn -0.93351083993911743 0 0.35854917764663696
vn 0.74559402465820313 0 0.66640043258666992
vn 0.74559402465820313 0 0.66640043258666992
vn -0.30609232187271118 0 0.95200181007385254
vn -0.30609232187271118 0 0.95200181007385254
vn -0.95200181007385254 0 -0.30609232187271118
vn -0.95200181007385254 0 -0.30609232187271118
vn 0.66640043258666992 0 -0.74559402465820313
vn 0.66640043258666992 0 -0.74559402465820313
vn -0.66640043258666992 0 0.74559402465820313
vn -0.66640043258666992 0 0.74559402465820313
vn -0.74559402465820313 0 -0.66640043258666992
vn -0.74559402465820313 0 -0.66640043258666992
vn 0.70738959312438965 0 -0.70682388544082642
vn 0.70738959312438965 0 -0.70682388544082642
vn 0.70682388544082642 0 0.70738959312438965
vn 0.70682388544082642 0 0.70738959312438965
vn 0.9781261682510376 0 0.20801240205764771
vn 0.9781261682510376 0 0.20801240205764771
vn -0.70682388544082642 0 -0.70738959312438965
vn -0.70682388544082642 0 -0.70738959312438965
vn -0.70738959312438965 0 0.70682388544082642
vn -0.70738959312438965 0 0.70682388544082642
vn 0.96504795551300049 0 -0.26207342743873596
vn 0.96504795551300049 0 -0.26207342743873596
vn -0.20801240205764771 0 0.9781261682510376
vn -0.20801240205764771 0 0.9781261682510376
vn -0.26207342743873596 0 -0.96504795551300049
vn -0.26207342743873596 0 -0.96504795551300049
vn 0.20801240205764771 0 -0.9781261682510376
vn 0.20801240205764771 0 -0.9781261682510376
vn 0.26207342743873596 0 0.96504795551300049
vn 0.26207342743873596 0 0.96504795551300049
vn -0.9781261682510376 0 -0.20801240205764771
vn -0.9781261682510376 0 -0.20801240205764771
vn -0.96504795551300049 0 0.26207342743873596
vn -0.96504795551300049 0 0.26207342743873596
f 6//6 18//18 17//17 5//5
f 18//18 14//14 13//13 17//17
f 14//14 2//2 1//1 13//13
f 2//2 6//6 5//5 1//1
f 36//36 28//28 27//27 35//35
f 28//28 26//26 25//25 27//27
f 26//26 30//30 29//29 25//25
f 30//30 36//36 35//35 29//29
f 66//66 56//56 55//55 65//65
f 56//56 54//54 53//53 55//55
f 54//54 62//62 61//61 53//53
f 62//62 66//66 65//65 61//61
f 98//98 88//88 87//87 97//97
f 88//88 86//86 85//85 87//87
f 86//86 96//96 95//95 85//85
f 96//96 98//98 97//97 95//95
f 128//128 118//118 117//117 127//127
f 118//118 120//120 119//119 117//117
f 120//120 130//130 129//129 119//119
f 130//130 128//128 127//127 129//129
f 156//156 148//148 147//147 155//155
f 148//148 152//152 151//151 147//147
f 152//152 160//160 159//159 151//151
f 160//160 156//156 155//155 159//159
f 126//126 132//132 131//131 125//125
f 132//132 136//136 135//135 131//131
f 136//136 134//134 133//133 135//135
f 134//134 126//126 125//125 133//133
f 94//94 106//106 105//105 93//93
f 106//106 108//108 107//107 105//105
f 108//108 100//100 99//99 107//107
f 100//100 94//94 93//93 99//99
f 64//64 74//74 73//73 63//63
f 74//74 76//76 75//75 73//73
f 76//76 68//68 67//67 75//75
f 68//68 64//64 63//63 67//67
f 34//34 44//44 43//43 33//33
f 44//44 42//42 41//41 43//43
f 42//42 32//32 31//31 41//41
f 32//32 34//34 33//33 31//31
f 8//8 4//4 3//3 7//7
f 4//4 16//16 15//15 3//3
f 16//16 20//20 19//19 15//15
f 20//20 8//8 7//7 19//19
f 12//12 10//10 9//9 11//11
f 10//10 22//22 21//21 9//9
f 22//22 24//24 23//23 21//21
f 24//24 12//12 11//11 23//23
f 40//40 38//38 37//37 39//39
f 38//38 46//46 45//45 37//37
f 46//46 48//48 47//47 45//45
f 48//48 40//40 39//39 47//47
f 70//70 72//72 71//71 69//69
f 72//72 80//80 79//79 71//71
f 80//80 78//78 77//77 79//79
f 78//78 70//70 69//69 77//77
f 102//102 104//104 103//103 101//101
f 104//104 114//114 113//113 103//103
f 114//114 110//110 109//109 113//113
f 110//110 102//102 101//101 109//109
f 138//138 144//144 143//143 137//137
f 144//144 146//146 145//145 143//143
f 146//146 140//140 139//139 145//145
f 140//140 138//138 137//137 139//139
f 154//154 158//158 157//157 153//153
f 158//158 150//150 149//149 157//157
f 150//150 142//142 141//141 149//149
f 142//142 154//154 153//153 141//141
f 122//122 124//124 123//123 121//121
f 124//124 116//116 115//115 123//123
f 116//116 112//112 111//111 115//115
f 112//112 122//122 121//121 111//111
f 92//92 90//90 89//89 91//91
f 90//90 82//82 81//81 89//89
f 82//82 84//84 83//83 81//81
f 84//84 92//92 91//91 83//83
f 60//60 58//58 57//57 59//59
f 58//58 50//50 49//49 57//57
f 50//50 52//52 51//51 49//49
f 52//52 60//60 59//59 51//51
