# Rhino

mtllib Pannelli175.mtl
usemtl diffuse_Black
v 1.1808790439533494 3 -0.33358045025571464
v 1.1808790439533494 0 -0.33358045025571464
v 1.1808790439533541 3 0.33358045025569932
v 1.1808790439533541 0 0.33358045025569932
v 1.1611419781189714 3 -0.039285264900541898
v 1.1611419781189714 0 -0.039285264900541919
v 1.161141978118972 3 0.039285264900526778
v 1.161141978118972 0 0.039285264900526778
v 1.1609238706621303 3 -0.33491875474924515
v 1.1609238706621303 0 -0.33491875474924515
v 1.1609238706621348 3 0.33491875474923011
v 1.1609238706621348 0 0.33491875474923011
v 1.1551044705700027 3 -0.41410734756844914
v 1.1551044705700027 0 -0.41410734756844914
v 1.1411868048277523 3 -0.040623569394072391
v 1.1411868048277523 0 -0.040623569394072419
v 1.1411868048277527 3 0.040623569394057549
v 1.1411868048277527 0 0.040623569394057549
v 1.1396351577796406 3 -0.40143058292624123
v 1.1396351577796406 0 -0.40143058292624123
v 1.1143522442697797 3 0.51378040925271518
v 1.1143522442697797 0 0.51378040925271518
v 1.1000538611656865 3 0.49979626678316852
v 1.1000538611656865 0 0.49979626678316846
v 0.96814990266734913 3 -0.64224589633063922
v 0.96814990266734913 0 -0.64224589633063922
v 0.95268058987698689 3 -0.62956913168843132
v 0.95268058987698689 0 -0.62956913168843132
v 0.92252706332912082 3 -0.70621373734422077
v 0.92252706332912082 0 -0.70621373734422077
v 0.90811671125542792 3 0.7246503047173648
v 0.90811671125542792 0 0.7246503047173648
v 0.90550354819219014 3 -0.6957161217872152
v 0.90550354819219014 0 -0.69571612178721509
v 0.89381832815133466 3 0.71066616224781809
v 0.89381832815133466 0 0.71066616224781809
v 0.85706150321559726 3 0.78437210881963704
v 0.85706150321559726 0 0.78437210881963704
v 0.84102385694220005 3 0.77242246857361352
v 0.84102385694220005 0 0.77242246857361352
v 0.76771018095728438 3 -0.95727337333465823
v 0.76771018095728438 0 -0.95727337333465823
v 0.7506866658203537 3 -0.94677575777765266
v 0.7506866658203537 0 -0.94677575777765255
v 0.69996710318550526 3 -1.0078676935486497
v 0.69996710318550526 0 -1.0078676935486497
v 0.69473373457256149 3 -0.98856453699431757
v 0.69473373457256149 0 -0.98856453699431757
v 0.68083043071077531 3 1.0208923341171501
v 0.68083043071077531 0 1.0208923341171501
v 0.66479278443737821 3 1.0089426938711263
v 0.66479278443737821 0 1.0089426938711263
v 0.60891260691818616 3 1.0653528384423072
v 0.60891260691818616 0 1.0653528384423072
v 0.60539168867207882 3 1.0456651993074535
v 0.60539168867207882 0 1.0456651993074535
v 0.41528773943391406 3 -1.0850484407915684
v 0.41528773943391406 0 -1.0850484407915684
v 0.41005437082097024 3 -1.0657452842372361
v 0.41005437082097024 0 -1.0657452842372361
v 0.34100048336564048 3 -1.1106361671279856
v 0.34100048336564054 0 -1.1106361671279856
v 0.33323642114887486 3 -1.0922046903045137
v 0.33323642114887486 0 -1.0922046903045137
v 0.31856296555741653 3 1.1172786860777431
v 0.31856296555741653 0 1.1172786860777431
v 0.31504204731130919 3 1.0975910469428893
v 0.31504204731130914 0 1.0975910469428893
v 0.24231847898564804 3 1.1362551562613152
v 0.24231847898564804 0 1.1362551562613152
v 0.23620019149068153 3 1.117213975674783
v 0.23620019149068153 0 1.117213975674783
v 0.069176490209936742 3 -1.2251391130982703
v 0.069176490209936728 0 -1.2251391130982703
v 0.061412427993171113 3 -1.2067076362747984
v 0.061412427993171058 0 -1.2067076362747984
v -0.0084065102847608597 3 -1.2082400987969071
v -0.0084065102847608597 0 -1.2082400987969071
v -0.015354376363592714 3 -1.2269944891349218
v -0.015354376363592714 0 -1.2269944891349218
v -0.038497311903052667 3 1.2264865226398625
v -0.038497311903052667 0 1.2264865226398625
v -0.044615599398019179 3 1.2074453420533302
v -0.044615599398019179 0 1.2074453420533302
v -0.11430005780027735 3 1.2028509061985948
v -0.11430005780027735 0 1.2028509061985948
v -0.12286536161474229 3 1.220923968212706
v -0.12286536161474229 0 1.220923968212706
v -0.28499277191235983 3 -1.1057742617103179
v -0.28499277191235983 0 -1.1057742617103179
v -0.29194063799119169 3 -1.1245286520483326
v -0.29194063799119169 0 -1.1245286520483326
v -0.3628977019046099 3 -1.0827108828563801
v -0.3628977019046099 0 -1.0827108828563801
v -0.3672790648565144 3 -1.1022250740690251
v -0.3672790648565144 0 -1.1022250740690251
v -0.38083821598899997 3 1.0765313981234383
v -0.38083821598899997 0 1.0765313981234383
v -0.38940351980346494 3 1.0946044601375495
v -0.38940351980346494 0 1.0946044601375495
v -0.4564212245071575 3 1.0467269289182712
v -0.4564212245071575 0 1.0467269289182712
v -0.46249651866852698 3 1.0657818705569337
v -0.46249651866852698 0 1.0657818705569337
v -0.65068936555849954 3 -1.0180953566857109
v -0.65068936555849954 0 -1.0180953566857109
v -0.65507072851040404 3 -1.037609547898356
v -0.65507072851040404 0 -1.037609547898356
v -0.70842197912776883 3 -0.97880187231360716
v -0.70842197912776883 0 -0.97880187231360716
v -0.72496849514698936 3 -0.99003631967988537
v -0.72496849514698936 0 -0.99003631967988537
v -0.73743996083402563 3 0.95712962022969417
v -0.73743996083402563 0 0.95712962022969417
v -0.74351525499539517 3 0.97618456186835634
v -0.74351525499539517 0 0.97618456186835634
v -0.79150543752227176 3 0.91292603650493209
v -0.79150543752227176 0 0.91292603650493209
v -0.80897316238974082 3 0.9226666005519677
v -0.80897316238974082 0 0.9226666005519677
v -0.87410552002072639 3 -0.73477693062084126
v -0.87410552002072639 0 -0.73477693062084126
v -0.8906520360399468 3 -0.74601137798711947
v -0.8906520360399468 0 -0.74601137798711947
v -0.92413946223572585 3 -0.67076363366088387
v -0.92413946223572585 0 -0.67076363366088387
v -0.93515746498662977 3 0.65531527800217593
v -0.93515746498662977 0 0.65531527800217593
v -0.93903765806314243 3 -0.68410693764033159
v -0.93903765806314243 0 -0.68410693764033159
v -0.95262518985409883 3 0.66505584204921153
v -0.95262518985409883 0 0.66505584204921153
v -0.97938673734749848 3 0.58716200201572244
v -0.97938673734749848 0 0.58716200201572244
v -0.99539737129880623 3 0.59914781031041953
v -0.99539737129880623 0 0.59914781031041953
v -1.1209240283517155 3 -0.4510478116781968
v -1.1209240283517155 0 -0.45104781167819674
v -1.135822224179132 3 -0.46439111565764457
v -1.135822224179132 0 -0.46439111565764446
v -1.1383053291784517 3 -0.090656359221101254
v -1.1383053291784517 0 -0.090656359221101254
v -1.1418702141154196 3 -0.0094874664317832411
v -1.1418702141154196 0 -0.0094874664317831977
v -1.1451105818388991 3 -0.38553412445139729
v -1.1451105818388991 0 -0.38553412445139729
v -1.1561512095092898 3 0.3510401494218775
v -1.1561512095092898 0 0.3510401494218775
v -1.1583000052646288 3 -0.090194917774256422
v -1.1583000052646288 0 -0.090194917774256422
v -1.1617474484897719 3 -0.011700056232687947
v -1.1617474484897719 0 -0.011700056232687904
v -1.165105257925076 3 -0.38507268300455244
v -1.165105257925076 0 -0.38507268300455244
v -1.1721618434605974 3 0.36302595771657464
v -1.1721618434605974 0 0.36302595771657464
v -1.1745010771036521 3 0.28365829026892231
v -1.1745010771036521 0 0.28365829026892225
v -1.1943783114780044 3 0.28144570046801759
v -1.1943783114780044 0 0.28144570046801759
vn 0.752838134765625 0 -0.65820568799972534
vn 0.752838134765625 0 -0.65820568799972534
vn 0.752838134765625 0 0.65820568799972534
vn 0.752838134765625 0 0.65820568799972534
vn 0.65820568799972534 0 0.752838134765625
vn 0.65820568799972534 0 0.752838134765625
vn 0.65820568799972534 0 -0.752838134765625
vn 0.65820568799972534 0 -0.752838134765625
vn -0.65820568799972534 0 -0.752838134765625
vn -0.65820568799972534 0 -0.752838134765625
vn -0.65820568799972534 0 0.752838134765625
vn -0.65820568799972534 0 0.752838134765625
vn 0.99511408805847168 0 0.098731480538845062
vn 0.99511408805847168 0 0.098731480538845062
vn -0.752838134765625 0 0.65820568799972534
vn -0.752838134765625 0 0.65820568799972534
vn -0.752838134765625 0 -0.65820568799972534
vn -0.752838134765625 0 -0.65820568799972534
vn -0.098731480538845062 0 0.99511408805847168
vn -0.098731480538845062 0 0.99511408805847168
vn 0.99993830919265747 0 -0.011110077612102032
vn 0.99993830919265747 0 -0.011110077612102032
vn -0.011110077612102032 0 -0.99993830919265747
vn -0.011110077612102032 0 -0.99993830919265747
vn 0.098731480538845062 0 -0.99511408805847168
vn 0.098731480538845062 0 -0.99511408805847168
vn -0.99511408805847168 0 -0.098731480538845062
vn -0.99511408805847168 0 -0.098731480538845062
vn 0.97301888465881348 0 0.23072542250156403
vn 0.97301888465881348 0 0.23072542250156403
vn 0.011110077612102032 0 0.99993830919265747
vn 0.011110077612102032 0 0.99993830919265747
vn -0.23072542250156403 0 0.97301888465881348
vn -0.23072542250156403 0 0.97301888465881348
vn -0.99993830919265747 0 0.011110077612102032
vn -0.99993830919265747 0 0.011110077612102032
vn 0.98949998617172241 0 -0.14453282952308655
vn 0.98949998617172241 0 -0.14453282952308655
vn -0.14453282952308655 0 -0.98949998617172241
vn -0.14453282952308655 0 -0.98949998617172241
vn 0.23072542250156403 0 -0.97301888465881348
vn 0.23072542250156403 0 -0.97301888465881348
vn -0.97301888465881348 0 -0.23072542250156403
vn -0.97301888465881348 0 -0.23072542250156403
vn 0.86749714612960815 0 -0.49744212627410889
vn 0.86749714612960815 0 -0.49744212627410889
vn 0.49744212627410889 0 0.86749714612960815
vn 0.49744212627410889 0 0.86749714612960815
vn 0.14453282952308655 0 0.98949998617172241
vn 0.14453282952308655 0 0.98949998617172241
vn -0.98949998617172241 0 0.14453282952308655
vn -0.98949998617172241 0 0.14453282952308655
vn 0.82054638862609863 0 0.57157987356185913
vn 0.82054638862609863 0 0.57157987356185913
vn 0.57157987356185913 0 -0.82054638862609863
vn 0.57157987356185913 0 -0.82054638862609863
vn -0.49744212627410889 0 -0.86749714612960815
vn -0.49744212627410889 0 -0.86749714612960815
vn -0.86749714612960815 0 0.49744212627410889
vn -0.86749714612960815 0 0.49744212627410889
vn 0.92615216970443726 0 -0.37715008854866028
vn 0.92615216970443726 0 -0.37715008854866028
vn 0.37715008854866028 0 0.92615216970443726
vn 0.37715008854866028 0 0.92615216970443726
vn -0.57157987356185913 0 0.82054638862609863
vn -0.57157987356185913 0 0.82054638862609863
vn -0.82054638862609863 0 -0.57157987356185913
vn -0.82054638862609863 0 -0.57157987356185913
vn 0.88952153921127319 0 0.45689323544502258
vn 0.88952153921127319 0 0.45689323544502258
vn 0.45689323544502258 0 -0.88952153921127319
vn 0.45689323544502258 0 -0.88952153921127319
vn -0.37715008854866028 0 -0.92615216970443726
vn -0.37715008854866028 0 -0.92615216970443726
vn -0.92615216970443726 0 0.37715008854866028
vn -0.92615216970443726 0 0.37715008854866028
vn 0.90871202945709229 0 0.41742363572120667
vn 0.90871202945709229 0 0.41742363572120667
vn 0.41742363572120667 0 -0.90871202945709229
vn 0.41742363572120667 0 -0.90871202945709229
vn -0.45689323544502258 0 0.88952153921127319
vn -0.45689323544502258 0 0.88952153921127319
vn -0.88952153921127319 0 -0.45689323544502258
vn -0.88952153921127319 0 -0.45689323544502258
vn 0.94180846214294434 0 -0.33615002036094666
vn 0.94180846214294434 0 -0.33615002036094666
vn 0.33615002036094666 0 0.94180846214294434
vn 0.33615002036094666 0 0.94180846214294434
vn -0.41742363572120667 0 0.90871202945709229
vn -0.41742363572120667 0 0.90871202945709229
vn -0.90871202945709229 0 -0.41742363572120667
vn -0.90871202945709229 0 -0.41742363572120667
vn 0.84483546018600464 0 0.53502625226974487
vn 0.84483546018600464 0 0.53502625226974487
vn 0.53502625226974487 0 -0.84483546018600464
vn 0.53502625226974487 0 -0.84483546018600464
vn -0.33615002036094666 0 -0.94180846214294434
vn -0.33615002036094666 0 -0.94180846214294434
vn -0.94180846214294434 0 0.33615002036094666
vn -0.94180846214294434 0 0.33615002036094666
vn 0.88848799467086792 0 -0.4588998556137085
vn 0.88848799467086792 0 -0.4588998556137085
vn 0.4588998556137085 0 0.88848799467086792
vn 0.4588998556137085 0 0.88848799467086792
vn -0.53502625226974487 0 0.84483546018600464
vn -0.53502625226974487 0 0.84483546018600464
vn -0.84483546018600464 0 -0.53502625226974487
vn -0.84483546018600464 0 -0.53502625226974487
vn 0.98220539093017578 0 -0.18780997395515442
vn 0.98220539093017578 0 -0.18780997395515442
vn -0.18780997395515442 0 -0.98220539093017578
vn -0.18780997395515442 0 -0.98220539093017578
vn -0.4588998556137085 0 -0.88848799467086792
vn -0.4588998556137085 0 -0.88848799467086792
vn -0.88848799467086792 0 0.4588998556137085
vn -0.88848799467086792 0 0.4588998556137085
vn 0.96195828914642334 0 0.27319639921188354
vn 0.96195828914642334 0 0.27319639921188354
vn -0.27319639921188354 0 0.96195828914642334
vn -0.27319639921188354 0 0.96195828914642334
vn 0.18780997395515442 0 0.98220539093017578
vn 0.18780997395515442 0 0.98220539093017578
vn -0.98220539093017578 0 0.18780997395515442
vn -0.98220539093017578 0 0.18780997395515442
vn 0.99848783016204834 0 -0.054973691701889038
vn 0.99848783016204834 0 -0.054973691701889038
vn 0.27319639921188354 0 -0.96195828914642334
vn 0.27319639921188354 0 -0.96195828914642334
vn -0.054973691701889038 0 -0.99848783016204834
vn -0.054973691701889038 0 -0.99848783016204834
vn -0.96195828914642334 0 -0.27319639921188354
vn -0.96195828914642334 0 -0.27319639921188354
vn 0.98982369899749756 0 0.14229905605316162
vn 0.98982369899749756 0 0.14229905605316162
vn -0.14229905605316162 0 0.98982369899749756
vn -0.14229905605316162 0 0.98982369899749756
vn 0.054973691701889038 0 0.99848783016204834
vn 0.054973691701889038 0 0.99848783016204834
vn -0.99848783016204834 0 0.054973691701889038
vn -0.99848783016204834 0 0.054973691701889038
vn 0.72323298454284668 0 0.69060409069061279
vn 0.72323298454284668 0 0.69060409069061279
vn 0.78099322319030762 0 -0.62453949451446533
vn 0.78099322319030762 0 -0.62453949451446533
vn 0.69060409069061279 0 -0.72323298454284668
vn 0.69060409069061279 0 -0.72323298454284668
vn 0.14229905605316162 0 -0.98982369899749756
vn 0.14229905605316162 0 -0.98982369899749756
vn -0.69060409069061279 0 0.72323298454284668
vn -0.69060409069061279 0 0.72323298454284668
vn -0.62453949451446533 0 -0.78099322319030762
vn -0.62453949451446533 0 -0.78099322319030762
vn -0.72323298454284668 0 -0.69060409069061279
vn -0.72323298454284668 0 -0.69060409069061279
vn -0.98982369899749756 0 -0.14229905605316162
vn -0.98982369899749756 0 -0.14229905605316162
vn 0.62453949451446533 0 0.78099322319030762
vn 0.62453949451446533 0 0.78099322319030762
vn -0.78099322319030762 0 0.62453949451446533
vn -0.78099322319030762 0 0.62453949451446533
f 10//10 16//16 15//15 9//9
f 16//16 6//6 5//5 15//15
f 6//6 2//2 1//1 5//5
f 2//2 10//10 9//9 1//1
f 44//44 34//34 33//33 43//43
f 34//34 30//30 29//29 33//33
f 30//30 42//42 41//41 29//29
f 42//42 44//44 43//43 41//41
f 76//76 64//64 63//63 75//75
f 64//64 62//62 61//61 63//63
f 62//62 74//74 73//73 61//61
f 74//74 76//76 75//75 73//73
f 106//106 94//94 93//93 105//105
f 94//94 96//96 95//95 93//93
f 96//96 108//108 107//107 95//95
f 108//108 106//106 105//105 107//107
f 138//138 126//126 125//125 137//137
f 126//126 130//130 129//129 125//125
f 130//130 140//140 139//139 129//129
f 140//140 138//138 137//137 139//139
f 158//158 144//144 143//143 157//157
f 144//144 152//152 151//151 143//143
f 152//152 160//160 159//159 151//151
f 160//160 158//158 157//157 159//159
f 118//118 128//128 127//127 117//117
f 128//128 132//132 131//131 127//127
f 132//132 120//120 119//119 131//131
f 120//120 118//118 117//117 119//119
f 86//86 98//98 97//97 85//85
f 98//98 100//100 99//99 97//97
f 100//100 88//88 87//87 99//99
f 88//88 86//86 85//85 87//87
f 56//56 68//68 67//67 55//55
f 68//68 66//66 65//65 67//67
f 66//66 54//54 53//53 65//65
f 54//54 56//56 55//55 53//53
f 24//24 36//36 35//35 23//23
f 36//36 32//32 31//31 35//35
f 32//32 22//22 21//21 31//31
f 22//22 24//24 23//23 21//21
f 12//12 4//4 3//3 11//11
f 4//4 8//8 7//7 3//3
f 8//8 18//18 17//17 7//7
f 18//18 12//12 11//11 17//17
f 20//20 14//14 13//13 19//19
f 14//14 26//26 25//25 13//13
f 26//26 28//28 27//27 25//25
f 28//28 20//20 19//19 27//27
f 48//48 46//46 45//45 47//47
f 46//46 58//58 57//57 45//45
f 58//58 60//60 59//59 57//57
f 60//60 48//48 47//47 59//59
f 78//78 80//80 79//79 77//77
f 80//80 92//92 91//91 79//79
f 92//92 90//90 89//89 91//91
f 90//90 78//78 77//77 89//89
f 110//110 112//112 111//111 109//109
f 112//112 124//124 123//123 111//111
f 124//124 122//122 121//121 123//123
f 122//122 110//110 109//109 121//121
f 146//146 154//154 153//153 145//145
f 154//154 150//150 149//149 153//153
f 150//150 142//142 141//141 149//149
f 142//142 146//146 145//145 141//141
f 148//148 156//156 155//155 147//147
f 156//156 136//136 135//135 155//155
f 136//136 134//134 133//133 135//135
f 134//134 148//148 147//147 133//133
f 114//114 116//116 115//115 113//113
f 116//116 104//104 103//103 115//115
f 104//104 102//102 101//101 103//103
f 102//102 114//114 113//113 101//101
f 84//84 82//82 81//81 83//83
f 82//82 70//70 69//69 81//81
f 70//70 72//72 71//71 69//69
f 72//72 84//84 83//83 71//71
f 52//52 50//50 49//49 51//51
f 50//50 38//38 37//37 49//49
f 38//38 40//40 39//39 37//37
f 40//40 52//52 51//51 39//39
