# Rhino

mtllib Pannelli99.mtl
usemtl diffuse_Black
v 1.3893654092132453 3 -0.24332616709169341
v 1.3893654092132453 0 -0.24332616709169344
v 1.3893654092132468 3 0.2433261670916842
v 1.3893654092132468 0 0.2433261670916842
v 1.3752866636480725 3 -0.25753140990240014
v 1.3752866636480725 0 -0.25753140990240009
v 1.3752866636480743 3 0.25753140990239093
v 1.3752866636480743 0 0.25753140990239093
v 1.3736448282543885 3 -0.32038063256038884
v 1.3736448282543885 0 -0.32038063256038884
v 1.366255928391368 3 -0.30179558053425071
v 1.366255928391368 0 -0.30179558053425071
v 1.183007168495384 3 -0.76813924727119443
v 1.183007168495384 0 -0.76813924727119454
v 1.1710707025523466 3 -0.026975368005993105
v 1.1710707025523466 0 -0.026975368005993136
v 1.1710707025523468 3 0.026975368005985465
v 1.1710707025523468 0 0.026975368005985465
v 1.1644889508195322 3 -0.7756940877135714
v 1.1644889508195322 0 -0.7756940877135714
v 1.1569919569871738 3 -0.041180610816699811
v 1.1569919569871738 0 -0.041180610816699777
v 1.1569919569871743 3 0.041180610816692179
v 1.1569919569871743 0 0.041180610816692179
v 1.1388402350279259 3 -0.81288298873583464
v 1.1388402350279259 0 -0.81288298873583464
v 1.1383582333166773 3 -0.83287717975098574
v 1.1383582333166773 0 -0.83287717975098574
v 1.0880447484538842 3 -0.43392728217689824
v 1.0880447484538842 0 -0.43392728217689824
v 1.0806558485908637 3 -0.41534223015076016
v 1.0806558485908637 0 -0.41534223015076016
v 1.0669104779836558 3 -0.48356622382481645
v 1.0669104779836558 0 -0.48356622382481645
v 1.048392260307804 3 -0.49112106426719337
v 1.048392260307804 0 -0.49112106426719337
v 0.83158564454076134 3 -0.80547597545424876
v 0.83158564454076134 0 -0.80547597545424876
v 0.83110364282951288 3 -0.82547016646939997
v 0.83110364282951288 0 -0.82547016646939997
v 0.79221324406238358 3 -0.86286293047485785
v 0.79221324406238358 0 -0.86286293047485785
v 0.78755480158696634 3 -1.1701714824790155
v 0.78755480158696634 0 -1.1701714824790155
v 0.77221554157202044 3 -0.86255978841752068
v 0.77221554157202044 0 -0.86255978841752068
v 0.76755709909660319 3 -1.1698683404216783
v 0.76755709909660319 0 -1.1698683404216783
v 0.72939014250936685 3 -1.1940376268379191
v 0.72939014250936685 0 -1.1940376268379191
v 0.72111428329833882 3 -1.2122450471472117
v 0.72111428329833882 0 -1.2122450471472117
v 0.44959320215203358 3 -1.0668609018137873
v 0.44959320215203358 0 -1.0668609018137873
v 0.44131734294100555 3 -1.0850683221230801
v 0.44131734294100555 0 -1.0850683221230801
v 0.3908871315240105 3 -1.104237977640887
v 0.39088713152401044 0 -1.104237977640887
v 0.37260641519491505 3 -1.0961253078894957
v 0.372606415194915 0 -1.0961253078894957
v 0.26621817040763002 3 -1.385161272074352
v 0.26621817040763007 0 -1.385161272074352
v 0.24793745407853454 3 -1.3770486023229607
v 0.24793745407853457 0 -1.3770486023229607
v 0.20335293596238413 3 -1.3843350092120197
v 0.20335293596238413 0 -1.3843350092120197
v 0.18860604840059669 3 -1.3978453499641992
v 0.18860604840059669 0 -1.3978453499641992
v -0.0042630767088606553 3 -1.157716743170462
v -0.0042630767088606553 0 -1.157716743170462
v -0.019009964270648081 3 -1.1712270839226415
v -0.019009964270648081 0 -1.1712270839226415
v -0.072919126987336463 3 -1.1691095165872656
v -0.072919126987336449 0 -1.1691095165872656
v -0.086560832528057269 3 -1.1544840637758049
v -0.08656083252805731 0 -1.1544840637758049
v -0.2976712817941734 3 -1.3787442373061207
v -0.2976712817941734 0 -1.3787442373061207
v -0.31131298733489421 3 -1.3641187844946601
v -0.31131298733489426 0 -1.3641187844946601
v -0.35518859241639106 3 -1.3533576386572128
v -0.35518859241639106 0 -1.3533576386572128
v -0.37404933764410325 3 -1.3600113811721688
v -0.37404933764410325 0 -1.3600113811721688
v -0.45743793724312687 3 -1.0635209282430695
v -0.45743793724312687 0 -1.0635209282430695
v -0.47629868247083906 3 -1.0701746707580255
v -0.47629868247083906 0 -1.0701746707580255
v -0.5250698529140535 3 -1.0471083565784007
v -0.5250698529140535 0 -1.0471083565784007
v -0.53189203138748953 3 -1.028307881029187
v -0.53189203138748953 0 -1.028307881029187
v -0.81398038755185342 3 -1.1519460892727391
v -0.81398038755185342 0 -1.1519460892727391
v -0.82080256602528945 3 -1.1331456137235254
v -0.82080256602528945 0 -1.1331456137235254
v -0.83749504385928808 3 -0.799329896070062
v -0.83749504385928808 0 -0.799329896070062
v -0.85695609752254809 3 -1.1060569972716097
v -0.85695609752254809 0 -1.1060569972716097
v -0.85745490919839873 3 -0.7980634934308618
v -0.85745490919839873 0 -0.7980634934308618
v -0.87691596286165874 3 -1.1047905946324095
v -0.87691596286165874 0 -1.1047905946324095
v -0.89220459166093802 3 -0.73776500178538273
v -0.89220459166093802 0 -0.73776500178538273
v -0.89329241029715423 3 -0.75773539613839191
v -0.89329241029715423 0 -0.75773539613839191
v -1.0066387171730962 3 0.57184326902425819
v -1.0066387171730962 0 0.57184326902425819
v -1.0256924760985888 3 0.56576426657243994
v -1.0256924760985888 0 0.56576426657243994
v -1.0447469544600203 3 0.49882866035018375
v -1.0447469544600203 0 0.49882866035018375
v -1.0506552851606041 3 0.51793603139730959
v -1.0506552851606041 0 0.51793603139730959
v -1.083685342458629 3 -0.40737244602522027
v -1.083685342458629 0 -0.40737244602522027
v -1.1000559205742482 3 0.86464605816721851
v -1.1000559205742482 0 0.8646460581672184
v -1.1015539048959109 3 -0.39838832244943617
v -1.1015539048959109 0 -0.39838832244943617
v -1.1099054652631188 3 -0.32929635500458687
v -1.1099054652631188 0 -0.32929635500458693
v -1.1187294019996739 3 -0.34724456217046501
v -1.1187294019996739 0 -0.34724456217046501
v -1.1191096794997408 3 0.85856705571540026
v -1.1191096794997408 0 0.85856705571540015
v -1.1501969285952116 3 0.1318076503484851
v -1.1501969285952116 0 0.1318076503484851
v -1.1566573053158835 3 0.04970019416104892
v -1.1566573053158835 0 0.04970019416104892
v -1.1653465485241901 3 0.11875050609686942
v -1.1653465485241901 0 0.11875050609686942
v -1.1695784196898018 3 0.064965999195049695
v -1.1695784196898018 0 0.064965999195049695
v -1.1990934942502591 3 -0.72104828294731327
v -1.1990934942502591 0 -0.72104828294731327
v -1.2001813128864753 3 -0.74101867730032245
v -1.2001813128864753 0 -0.74101867730032245
v -1.2217461026100078 3 -0.68196209209297032
v -1.2217461026100078 0 -0.68196209209297032
v -1.2396146650472897 3 -0.67297796851718616
v -1.2396146650472897 0 -0.67297796851718616
v -1.3383736114186406 3 0.40803420267520479
v -1.3383736114186406 0 0.40803420267520479
v -1.3442819421192242 3 0.42714157372233053
v -1.3442819421192242 0 0.42714157372233053
v -1.3508485832143902 3 0.36461478236933786
v -1.3508485832143902 0 0.36461478236933781
v -1.3659982031433686 3 0.35155763811772217
v -1.3659982031433686 0 0.35155763811772212
v -1.3857190272397828 3 -0.1936972169139124
v -1.3857190272397828 0 -0.1936972169139124
v -1.3912498762593368 3 -0.14886106308549876
v -1.3912498762593368 0 -0.14886106308549876
v -1.3945429639763378 3 -0.21164542407979051
v -1.3945429639763378 0 -0.21164542407979045
v -1.4041709906332549 3 -0.13359525805149794
v -1.4041709906332549 0 -0.13359525805149794
vn 0.99998998641967773 0 0.0044723288156092167
vn 0.99998998641967773 0 0.0044723288156092167
vn 0.99998998641967773 0 -0.0044723288156092167
vn 0.99998998641967773 0 -0.0044723288156092167
vn 0.0044723288156092167 0 -0.99998998641967773
vn 0.0044723288156092167 0 -0.99998998641967773
vn 0.0044723288156092167 0 0.99998998641967773
vn 0.0044723288156092167 0 0.99998998641967773
vn 0.91831785440444946 0 -0.39584377408027649
vn 0.91831785440444946 0 -0.39584377408027649
vn 0.39584377408027649 0 0.91831785440444946
vn 0.39584377408027649 0 0.91831785440444946
vn 0.92182177305221558 0 -0.38761395215988159
vn 0.92182177305221558 0 -0.38761395215988159
vn -0.0044723288156092167 0 0.99998998641967773
vn -0.0044723288156092167 0 0.99998998641967773
vn -0.0044723288156092167 0 -0.99998998641967773
vn -0.0044723288156092167 0 -0.99998998641967773
vn -0.38761395215988159 0 -0.92182177305221558
vn -0.38761395215988159 0 -0.92182177305221558
vn -0.99998998641967773 0 -0.0044723288156092167
vn -0.99998998641967773 0 -0.0044723288156092167
vn -0.99998998641967773 0 0.0044723288156092167
vn -0.99998998641967773 0 0.0044723288156092167
vn 0.72394275665283203 0 0.68986004590988159
vn 0.72394275665283203 0 0.68986004590988159
vn 0.68986004590988159 0 -0.72394275665283203
vn 0.68986004590988159 0 -0.72394275665283203
vn -0.39584377408027649 0 -0.91831785440444946
vn -0.39584377408027649 0 -0.91831785440444946
vn -0.91831785440444946 0 0.39584377408027649
vn -0.91831785440444946 0 0.39584377408027649
vn 0.38761395215988159 0 0.92182177305221558
vn 0.38761395215988159 0 0.92182177305221558
vn -0.92182177305221558 0 0.38761395215988159
vn -0.92182177305221558 0 0.38761395215988159
vn -0.68986004590988159 0 0.72394275665283203
vn -0.68986004590988159 0 0.72394275665283203
vn -0.72394275665283203 0 -0.68986004590988159
vn -0.72394275665283203 0 -0.68986004590988159
vn 0.71774321794509888 0 0.69630789756774902
vn 0.71774321794509888 0 0.69630789756774902
vn 0.69630789756774902 0 -0.71774321794509888
vn 0.69630789756774902 0 -0.71774321794509888
vn -0.69630789756774902 0 0.71774321794509888
vn -0.69630789756774902 0 0.71774321794509888
vn -0.71774321794509888 0 -0.69630789756774902
vn -0.71774321794509888 0 -0.69630789756774902
vn 0.9363253116607666 0 0.35113370418548584
vn 0.9363253116607666 0 0.35113370418548584
vn 0.35113370418548584 0 -0.9363253116607666
vn 0.35113370418548584 0 -0.9363253116607666
vn -0.35113370418548584 0 0.9363253116607666
vn -0.35113370418548584 0 0.9363253116607666
vn -0.9363253116607666 0 -0.35113370418548584
vn -0.9363253116607666 0 -0.35113370418548584
vn 0.933147132396698 0 0.35949474573135376
vn 0.933147132396698 0 0.35949474573135376
vn -0.35949474573135376 0 0.933147132396698
vn -0.35949474573135376 0 0.933147132396698
vn 0.35949474573135376 0 -0.933147132396698
vn 0.35949474573135376 0 -0.933147132396698
vn -0.933147132396698 0 -0.35949474573135376
vn -0.933147132396698 0 -0.35949474573135376
vn 0.99904388189315796 0 -0.043718550354242325
vn 0.99904388189315796 0 -0.043718550354242325
vn -0.043718550354242325 0 -0.99904388189315796
vn -0.043718550354242325 0 -0.99904388189315796
vn 0.043718550354242325 0 0.99904388189315796
vn 0.043718550354242325 0 0.99904388189315796
vn -0.99904388189315796 0 0.043718550354242325
vn -0.99904388189315796 0 0.043718550354242325
vn 0.99939495325088501 0 -0.03478071466088295
vn 0.99939495325088501 0 -0.03478071466088295
vn 0.03478071466088295 0 0.99939495325088501
vn 0.03478071466088295 0 0.99939495325088501
vn -0.03478071466088295 0 -0.99939495325088501
vn -0.03478071466088295 0 -0.99939495325088501
vn -0.99939495325088501 0 0.03478071466088295
vn -0.99939495325088501 0 0.03478071466088295
vn 0.90207338333129883 0 -0.43158271908760071
vn 0.90207338333129883 0 -0.43158271908760071
vn -0.43158271908760071 0 -0.90207338333129883
vn -0.43158271908760071 0 -0.90207338333129883
vn 0.43158271908760071 0 0.90207338333129883
vn 0.43158271908760071 0 0.90207338333129883
vn -0.90207338333129883 0 0.43158271908760071
vn -0.90207338333129883 0 0.43158271908760071
vn 0.90589761734008789 0 -0.42349675297737122
vn 0.90589761734008789 0 -0.42349675297737122
vn 0.42349675297737122 0 0.90589761734008789
vn 0.42349675297737122 0 0.90589761734008789
vn -0.42349675297737122 0 -0.90589761734008789
vn -0.42349675297737122 0 -0.90589761734008789
vn -0.90589761734008789 0 0.42349675297737122
vn -0.90589761734008789 0 0.42349675297737122
vn 0.7504618763923645 0 0.66091376543045044
vn 0.7504618763923645 0 0.66091376543045044
vn 0.66091376543045044 0 -0.7504618763923645
vn 0.66091376543045044 0 -0.7504618763923645
vn -0.66091376543045044 0 0.7504618763923645
vn -0.66091376543045044 0 0.7504618763923645
vn -0.7504618763923645 0 -0.66091376543045044
vn -0.7504618763923645 0 -0.66091376543045044
vn 0.74452024698257446 0 0.66759985685348511
vn 0.74452024698257446 0 0.66759985685348511
vn 0.66759985685348511 0 -0.74452024698257446
vn 0.66759985685348511 0 -0.74452024698257446
vn 0.88857728242874146 0 -0.4587269127368927
vn 0.88857728242874146 0 -0.4587269127368927
vn -0.4587269127368927 0 -0.88857728242874146
vn -0.4587269127368927 0 -0.88857728242874146
vn 0.88443863391876221 0 -0.46665656566619873
vn 0.88443863391876221 0 -0.46665656566619873
vn 0.46665656566619873 0 0.88443863391876221
vn 0.46665656566619873 0 0.88443863391876221
vn 0.94938582181930542 0 0.31411236524581909
vn 0.94938582181930542 0 0.31411236524581909
vn 0.4587269127368927 0 0.88857728242874146
vn 0.4587269127368927 0 0.88857728242874146
vn -0.31411236524581909 0 0.94938582181930542
vn -0.31411236524581909 0 0.94938582181930542
vn 0.94653820991516113 0 0.32259166240692139
vn 0.94653820991516113 0 0.32259166240692139
vn 0.32259166240692139 0 -0.94653820991516113
vn 0.32259166240692139 0 -0.94653820991516113
vn -0.88857728242874146 0 0.4587269127368927
vn -0.88857728242874146 0 0.4587269127368927
vn 0.99725973606109619 0 -0.073980197310447693
vn 0.99725973606109619 0 -0.073980197310447693
vn 0.99655807018280029 0 -0.082897335290908813
vn 0.99655807018280029 0 -0.082897335290908813
vn -0.073980197310447693 0 -0.99725973606109619
vn -0.073980197310447693 0 -0.99725973606109619
vn 0.082897335290908813 0 0.99655807018280029
vn 0.082897335290908813 0 0.99655807018280029
vn -0.66759985685348511 0 0.74452024698257446
vn -0.66759985685348511 0 0.74452024698257446
vn -0.74452024698257446 0 -0.66759985685348511
vn -0.74452024698257446 0 -0.66759985685348511
vn 0.31411236524581909 0 -0.94938582181930542
vn 0.31411236524581909 0 -0.94938582181930542
vn -0.94938582181930542 0 -0.31411236524581909
vn -0.94938582181930542 0 -0.31411236524581909
vn -0.46665656566619873 0 -0.88443863391876221
vn -0.46665656566619873 0 -0.88443863391876221
vn -0.88443863391876221 0 0.46665656566619873
vn -0.88443863391876221 0 0.46665656566619873
vn 0.073980197310447693 0 0.99725973606109619
vn 0.073980197310447693 0 0.99725973606109619
vn -0.99725973606109619 0 0.073980197310447693
vn -0.99725973606109619 0 0.073980197310447693
vn -0.32259166240692139 0 0.94653820991516113
vn -0.32259166240692139 0 0.94653820991516113
vn -0.082897335290908813 0 -0.99655807018280029
vn -0.082897335290908813 0 -0.99655807018280029
vn -0.94653820991516113 0 -0.32259166240692139
vn -0.94653820991516113 0 -0.32259166240692139
vn -0.99655807018280029 0 0.082897335290908813
vn -0.99655807018280029 0 0.082897335290908813
f 6//6 22//22 21//21 5//5
f 22//22 16//16 15//15 21//21
f 16//16 2//2 1//1 15//15
f 2//2 6//6 5//5 1//1
f 20//20 36//36 35//35 19//19
f 36//36 34//34 33//33 35//35
f 34//34 14//14 13//13 33//33
f 14//14 20//20 19//19 13//13
f 48//48 46//46 45//45 47//47
f 46//46 42//42 41//41 45//45
f 42//42 44//44 43//43 41//41
f 44//44 48//48 47//47 43//43
f 64//64 60//60 59//59 63//63
f 60//60 58//58 57//57 59//59
f 58//58 62//62 61//61 57//57
f 62//62 64//64 63//63 61//61
f 80//80 76//76 75//75 79//79
f 76//76 74//74 73//73 75//75
f 74//74 78//78 77//77 73//73
f 78//78 80//80 79//79 77//77
f 96//96 92//92 91//91 95//95
f 92//92 90//90 89//89 91//91
f 90//90 94//94 93//93 89//89
f 94//94 96//96 95//95 93//93
f 138//138 106//106 105//105 137//137
f 106//106 108//108 107//107 105//105
f 108//108 140//140 139//139 107//107
f 140//140 138//138 137//137 139//139
f 154//154 124//124 123//123 153//153
f 124//124 126//126 125//125 123//123
f 126//126 158//158 157//157 125//125
f 158//158 154//154 153//153 157//157
f 150//150 130//130 129//129 149//149
f 130//130 134//134 133//133 129//129
f 134//134 152//152 151//151 133//133
f 152//152 150//150 149//149 151//151
f 120//120 110//110 109//109 119//119
f 110//110 112//112 111//111 109//109
f 112//112 128//128 127//127 111//111
f 128//128 120//120 119//119 127//127
f 8//8 4//4 3//3 7//7
f 4//4 18//18 17//17 3//3
f 18//18 24//24 23//23 17//17
f 24//24 8//8 7//7 23//23
f 12//12 10//10 9//9 11//11
f 10//10 30//30 29//29 9//9
f 30//30 32//32 31//31 29//29
f 32//32 12//12 11//11 31//31
f 26//26 28//28 27//27 25//25
f 28//28 40//40 39//39 27//27
f 40//40 38//38 37//37 39//39
f 38//38 26//26 25//25 37//37
f 50//50 52//52 51//51 49//49
f 52//52 56//56 55//55 51//51
f 56//56 54//54 53//53 55//55
f 54//54 50//50 49//49 53//53
f 66//66 68//68 67//67 65//65
f 68//68 72//72 71//71 67//67
f 72//72 70//70 69//69 71//71
f 70//70 66//66 65//65 69//69
f 82//82 84//84 83//83 81//81
f 84//84 88//88 87//87 83//83
f 88//88 86//86 85//85 87//87
f 86//86 82//82 81//81 85//85
f 100//100 104//104 103//103 99//99
f 104//104 102//102 101//101 103//103
f 102//102 98//98 97//97 101//101
f 98//98 100//100 99//99 97//97
f 142//142 144//144 143//143 141//141
f 144//144 122//122 121//121 143//143
f 122//122 118//118 117//117 121//121
f 118//118 142//142 141//141 117//117
f 156//156 160//160 159//159 155//155
f 160//160 136//136 135//135 159//159
f 136//136 132//132 131//131 135//135
f 132//132 156//156 155//155 131//131
f 146//146 148//148 147//147 145//145
f 148//148 116//116 115//115 147//147
f 116//116 114//114 113//113 115//115
f 114//114 146//146 145//145 113//113
