# Rhino

mtllib Pannelli86.mtl
usemtl diffuse_Black
v 1.4170080586736173 3 -0.21495496528995722
v 1.4170080586736173 0 -0.21495496528995722
v 1.4170080586736178 3 0.21495496528995889
v 1.4170080586736178 0 0.21495496528995889
v 1.4047361781862358 3 -0.23074739858262699
v 1.4047361781862358 0 -0.23074739858262694
v 1.4047361781862362 3 0.23074739858262869
v 1.4047361781862362 0 0.23074739858262869
v 1.4035605851045863 3 -0.29006061330289912
v 1.4035605851045863 0 -0.29006061330289912
v 1.3975306143855768 3 -0.27099128051100807
v 1.3975306143855768 0 -0.27099128051100807
v 1.2543940242815403 3 -0.69326265390221553
v 1.2543940242815403 0 -0.69326265390221553
v 1.2374050000783872 3 -0.70381599728830302
v 1.2374050000783872 0 -0.70381599728830302
v 1.2166835911137164 3 -0.7390596263986785
v 1.2166835911137164 0 -0.7390596263986785
v 1.215722435621122 3 -0.75903651755118418
v 1.215722435621122 0 -0.75903651755118418
v 1.1717544605280872 3 -0.024374907754476136
v 1.1717544605280872 0 -0.024374907754476177
v 1.1717544605280876 3 0.024374907754477551
v 1.1717544605280876 0 0.024374907754477551
v 1.1594825800407056 3 -0.040167341047145894
v 1.1594825800407056 0 -0.040167341047145907
v 1.159482580040706 3 0.040167341047147344
v 1.159482580040706 0 0.040167341047147344
v 1.1074173375901819 3 -0.38370495475062832
v 1.1074173375901819 0 -0.38370495475062832
v 1.1013873668711727 3 -0.36463562195873728
v 1.1013873668711727 0 -0.36463562195873728
v 1.0905025333417211 3 -0.42942621795926317
v 1.0905025333417211 0 -0.42942621795926322
v 1.0735135091385679 3 -0.43997956134535066
v 1.0735135091385679 0 -0.43997956134535066
v 0.93592307563935073 3 -1.0854333106803746
v 0.93592307563935073 0 -1.0854333106803746
v 0.91632777307626234 3 -1.0894363242278182
v 0.91632777307626234 0 -1.0894363242278182
v 0.90644612839239413 3 -0.72413305754335611
v 0.90644612839239413 0 -0.72413305754335611
v 0.90548497289979968 3 -0.74410994869586178
v 0.90548497289979968 0 -0.74410994869586178
v 0.88466512851812384 3 -1.1153007229630647
v 0.88466512851812384 0 -1.1153007229630647
v 0.87683226920138158 3 -1.1337030683278309
v 0.87683226920138158 0 -1.1337030683278309
v 0.8737570080206557 3 -0.78112184890086112
v 0.8737570080206557 0 -0.78112184890086112
v 0.85416170545756731 3 -0.78512486244830471
v 0.85416170545756731 0 -0.78512486244830471
v 0.59888007365134421 3 -0.99365785162097453
v 0.59888007365134421 0 -0.99365785162097453
v 0.59104721433460194 3 -1.0120601969857406
v 0.59104721433460194 0 -1.0120601969857406
v 0.5484482494264501 3 -1.0357640511219581
v 0.5484482494264501 0 -1.0357640511219581
v 0.52868136073900951 3 -1.0327193653223503
v 0.52868136073900951 0 -1.0327193653223503
v 0.50116483630461239 3 -1.3427402140028992
v 0.50116483630461239 0 -1.3427402140028992
v 0.48139794761717181 3 -1.3396955282032914
v 0.48139794761717181 0 -1.3396955282032914
v 0.44272811209771845 3 -1.3529670768412341
v 0.44272811209771845 0 -1.3529670768412341
v 0.42899677209025483 3 -1.3675084076468869
v 0.42899677209025483 0 -1.3675084076468869
v 0.21690390655453809 3 -1.1397218801207734
v 0.21690390655453809 0 -1.1397218801207734
v 0.2031725665470745 3 -1.1542632109264261
v 0.2031725665470745 0 -1.1542632109264261
v 0.15499547059072483 3 -1.1617138442800221
v 0.15499547059072491 0 -1.1617138442800221
v 0.13751300737936575 3 -1.151999757598122
v 0.13751300737936575 0 -1.151999757598122
v 0.004137482636490844 3 -1.4332132976937568
v 0.0041374826364908648 0 -1.4332132976937568
v -0.013344980574868248 3 -1.4234992110118567
v -0.013344980574868309 0 -1.4234992110118567
v -0.054217327567408352 3 -1.4225289359620676
v -0.054217327567408352 0 -1.4225289359620676
v -0.07214104616317929 3 -1.4314025097460408
v -0.07214104616317929 0 -1.4314025097460408
v -0.19202230407723114 3 -1.1441768672025847
v -0.19202230407723114 0 -1.1441768672025847
v -0.20994602267300205 3 -1.1530504409865581
v -0.20994602267300205 0 -1.1530504409865581
v -0.2577153047767124 3 -1.1433221215297789
v -0.2577153047767124 0 -1.1433221215297789
v -0.27074116796645681 3 -1.1281455972846803
v -0.27074116796645681 0 -1.1281455972846803
v -0.49340394815891581 3 -1.3456113924123765
v -0.49340394815891581 0 -1.3456113924123765
v -0.50642981134866016 3 -1.330434868167278
v -0.50642981134866016 0 -1.330434868167278
v -0.54442633098525306 3 -1.3153433249109752
v -0.54442633098525306 0 -1.3153433249109752
v -0.56431542818515634 3 -1.3174466110476684
v -0.56431542818515634 0 -1.3174466110476684
v -0.57708997967028663 3 -1.0064692862024147
v -0.57708997967028663 0 -1.0064692862024147
v -0.59697907687018981 3 -1.0085725723391079
v -0.59697907687018981 0 -1.0085725723391079
v -0.63840527058988583 3 -0.98287403179581601
v -0.63840527058988583 0 -0.98287403179581601
v -0.64535608628226271 3 -0.96412073445346569
v -0.64535608628226271 0 -0.96412073445346569
v -0.89045493527662456 3 -0.74370913463944521
v -0.89045493527662456 0 -0.74370913463944521
v -0.90983821522290476 3 -0.73878080241402322
v -0.90983821522290476 0 -0.73878080241402322
v -0.92964054542490915 3 -1.0908189271143303
v -0.92964054542490915 0 -1.0908189271143303
v -0.93659136111728603 3 -1.0720656297719799
v -0.93659136111728603 0 -1.0720656297719799
v -0.93977416695509486 3 -0.70030505283009714
v -0.93977416695509497 0 -0.70030505283009714
v -0.93978630485183701 3 -0.68030505651331086
v -0.93978630485183712 0 -0.68030505651331086
v -0.96699103257977592 3 -1.044727923991803
v -0.96699103257977592 0 -1.044727923991803
v -0.98637431252605623 3 -1.0397995917663809
v -0.98637431252605623 0 -1.0397995917663809
v -1.0931819606915405 3 -0.38854403807451376
v -1.0931819606915405 0 -0.38854403807451376
v -1.109651074697904 3 -0.37719642670271369
v -1.109651074697904 0 -0.37719642670271369
v -1.1174492312520987 3 -0.311962312273042
v -1.1174492312520987 0 -0.311962312273042
v -1.1243772792697286 3 -0.33072403262767408
v -1.1243772792697286 0 -0.33072403262767408
v -1.1562704654545166 3 0.095141365463425859
v -1.1562704654545166 0 0.095141365463425859
v -1.1600824724200118 3 0.014897177199812976
v -1.1600824724200118 0 0.014897177199812976
v -1.1692778979438274 3 0.079949041742677474
v -1.1692778979438274 0 0.07994904174267739
v -1.1715911533329337 3 0.031254140965883727
v -1.1715911533329337 0 0.031254140965883727
v -1.2503704486481717 3 -0.70049355214459408
v -1.2503704486481717 0 -0.70049355214459408
v -1.2503825865449136 3 -0.68049355582780779
v -1.2503825865449136 0 -0.68049355582780779
v -1.2694082880544604 3 -0.64430636383367157
v -1.2694082880544604 0 -0.64430636383367157
v -1.2858774020608239 3 -0.63295875246187161
v -1.2858774020608239 0 -0.63295875246187161
v -1.392204471801386 3 0.29714441094213095
v -1.392204471801386 0 0.29714441094213107
v -1.4052119042906968 3 0.2819520872213826
v -1.4052119042906968 0 0.2819520872213826
v -1.408815313925978 3 -0.20437099477560383
v -1.408815313925978 0 -0.20437099477560383
v -1.4141031254771275 3 -0.16383053065208428
v -1.4141031254771275 0 -0.16383053065208428
v -1.4157433619436079 3 -0.22313271513023589
v -1.4157433619436079 0 -0.22313271513023589
v -1.4256118063900491 3 -0.14747356688601351
v -1.4256118063900491 0 -0.14747356688601351
vn 0.99222332239151001 0 0.12447035312652588
vn 0.99222332239151001 0 0.12447035312652588
vn 0.99222332239151001 0 -0.12447035312652588
vn 0.99222332239151001 0 -0.12447035312652588
vn 0.12447035312652588 0 -0.99222332239151001
vn 0.12447035312652588 0 -0.99222332239151001
vn 0.12447035312652588 0 0.99222332239151001
vn 0.12447035312652588 0 0.99222332239151001
vn 0.88739436864852905 0 -0.46101108193397522
vn 0.88739436864852905 0 -0.46101108193397522
vn 0.46101108193397522 0 0.88739436864852905
vn 0.46101108193397522 0 0.88739436864852905
vn 0.97376972436904907 0 -0.2275356650352478
vn 0.97376972436904907 0 -0.2275356650352478
vn -0.2275356650352478 0 -0.97376972436904907
vn -0.2275356650352478 0 -0.97376972436904907
vn 0.74027174711227417 0 0.67230778932571411
vn 0.74027174711227417 0 0.67230778932571411
vn 0.67230778932571411 0 -0.74027174711227417
vn 0.67230778932571411 0 -0.74027174711227417
vn -0.12447035312652588 0 0.99222332239151001
vn -0.12447035312652588 0 0.99222332239151001
vn -0.12447035312652588 0 -0.99222332239151001
vn -0.12447035312652588 0 -0.99222332239151001
vn -0.99222332239151001 0 -0.12447035312652588
vn -0.99222332239151001 0 -0.12447035312652588
vn -0.99222332239151001 0 0.12447035312652588
vn -0.99222332239151001 0 0.12447035312652588
vn -0.46101108193397522 0 -0.88739436864852905
vn -0.46101108193397522 0 -0.88739436864852905
vn -0.88739436864852905 0 0.46101108193397522
vn -0.88739436864852905 0 0.46101108193397522
vn 0.2275356650352478 0 0.97376972436904907
vn 0.2275356650352478 0 0.97376972436904907
vn -0.97376972436904907 0 0.2275356650352478
vn -0.97376972436904907 0 0.2275356650352478
vn 0.83432644605636597 0 -0.55127066373825073
vn 0.83432644605636597 0 -0.55127066373825073
vn -0.55127066373825073 0 -0.83432644605636597
vn -0.55127066373825073 0 -0.83432644605636597
vn -0.67230778932571411 0 0.74027174711227417
vn -0.67230778932571411 0 0.74027174711227417
vn -0.74027174711227417 0 -0.67230778932571411
vn -0.74027174711227417 0 -0.67230778932571411
vn 0.92755454778671265 0 0.37368780374526978
vn 0.92755454778671265 0 0.37368780374526978
vn 0.37368780374526978 0 -0.92755454778671265
vn 0.37368780374526978 0 -0.92755454778671265
vn 0.55127066373825073 0 0.83432644605636597
vn 0.55127066373825073 0 0.83432644605636597
vn -0.83432644605636597 0 0.55127066373825073
vn -0.83432644605636597 0 0.55127066373825073
vn -0.37368780374526978 0 0.92755454778671265
vn -0.37368780374526978 0 0.92755454778671265
vn -0.92755454778671265 0 -0.37368780374526978
vn -0.92755454778671265 0 -0.37368780374526978
vn 0.80651098489761353 0 0.59121912717819214
vn 0.80651098489761353 0 0.59121912717819214
vn -0.59121912717819214 0 0.80651098489761353
vn -0.59121912717819214 0 0.80651098489761353
vn 0.59121912717819214 0 -0.80651098489761353
vn 0.59121912717819214 0 -0.80651098489761353
vn -0.80651098489761353 0 -0.59121912717819214
vn -0.80651098489761353 0 -0.59121912717819214
vn 0.99958986043930054 0 0.02863747626543045
vn 0.99958986043930054 0 0.02863747626543045
vn 0.02863747626543045 0 -0.99958986043930054
vn 0.02863747626543045 0 -0.99958986043930054
vn -0.02863747626543045 0 0.99958986043930054
vn -0.02863747626543045 0 0.99958986043930054
vn -0.99958986043930054 0 -0.02863747626543045
vn -0.99958986043930054 0 -0.02863747626543045
vn 0.96154326200485229 0 0.27465358376502991
vn 0.96154326200485229 0 0.27465358376502991
vn -0.27465358376502991 0 0.96154326200485229
vn -0.27465358376502991 0 0.96154326200485229
vn 0.27465358376502991 0 -0.96154326200485229
vn 0.27465358376502991 0 -0.96154326200485229
vn -0.96154326200485229 0 -0.27465358376502991
vn -0.96154326200485229 0 -0.27465358376502991
vn 0.94742733240127563 0 -0.31997096538543701
vn 0.94742733240127563 0 -0.31997096538543701
vn -0.31997096538543701 0 -0.94742733240127563
vn -0.31997096538543701 0 -0.94742733240127563
vn 0.31997096538543701 0 0.94742733240127563
vn 0.31997096538543701 0 0.94742733240127563
vn -0.94742733240127563 0 0.31997096538543701
vn -0.94742733240127563 0 0.31997096538543701
vn 0.9971049427986145 0 -0.076037347316741943
vn 0.9971049427986145 0 -0.076037347316741943
vn 0.076037347316741943 0 0.9971049427986145
vn 0.076037347316741943 0 0.9971049427986145
vn -0.076037347316741943 0 -0.9971049427986145
vn -0.076037347316741943 0 -0.9971049427986145
vn -0.9971049427986145 0 0.076037347316741943
vn -0.9971049427986145 0 0.076037347316741943
vn 0.77754813432693481 0 -0.62882339954376221
vn 0.77754813432693481 0 -0.62882339954376221
vn -0.62882339954376221 0 -0.77754813432693481
vn -0.62882339954376221 0 -0.77754813432693481
vn 0.62882339954376221 0 0.77754813432693481
vn 0.62882339954376221 0 0.77754813432693481
vn -0.77754813432693481 0 0.62882339954376221
vn -0.77754813432693481 0 0.62882339954376221
vn 0.90877765417098999 0 -0.41728073358535767
vn 0.90877765417098999 0 -0.41728073358535767
vn 0.41728073358535767 0 0.90877765417098999
vn 0.41728073358535767 0 0.90877765417098999
vn 0.85954529047012329 0 0.51105958223342896
vn 0.85954529047012329 0 0.51105958223342896
vn -0.51105958223342896 0 0.85954529047012329
vn -0.51105958223342896 0 0.85954529047012329
vn -0.41728073358535767 0 -0.90877765417098999
vn -0.41728073358535767 0 -0.90877765417098999
vn -0.90877765417098999 0 0.41728073358535767
vn -0.90877765417098999 0 0.41728073358535767
vn 0.70753580331802368 0 -0.70667749643325806
vn 0.70753580331802368 0 -0.70667749643325806
vn 0.70667749643325806 0 0.70753580331802368
vn 0.70667749643325806 0 0.70753580331802368
vn 0.51105958223342896 0 -0.85954529047012329
vn 0.51105958223342896 0 -0.85954529047012329
vn -0.85954529047012329 0 -0.51105958223342896
vn -0.85954529047012329 0 -0.51105958223342896
vn 0.98346978425979614 0 0.18107247352600098
vn 0.98346978425979614 0 0.18107247352600098
vn -0.18107247352600098 0 0.98346978425979614
vn -0.18107247352600098 0 0.98346978425979614
vn 0.90827047824859619 0 0.41838350892066956
vn 0.90827047824859619 0 0.41838350892066956
vn 0.41838350892066956 0 -0.90827047824859619
vn 0.41838350892066956 0 -0.90827047824859619
vn 0.99701195955276489 0 0.077247589826583862
vn 0.99701195955276489 0 0.077247589826583862
vn 0.98519933223724365 0 -0.17141272127628326
vn 0.98519933223724365 0 -0.17141272127628326
vn 0.077247589826583862 0 -0.99701195955276489
vn 0.077247589826583862 0 -0.99701195955276489
vn 0.17141272127628326 0 0.98519933223724365
vn 0.17141272127628326 0 0.98519933223724365
vn -0.70667749643325806 0 -0.70753580331802368
vn -0.70667749643325806 0 -0.70753580331802368
vn -0.70753580331802368 0 0.70667749643325806
vn -0.70753580331802368 0 0.70667749643325806
vn 0.18107247352600098 0 -0.98346978425979614
vn 0.18107247352600098 0 -0.98346978425979614
vn -0.98346978425979614 0 -0.18107247352600098
vn -0.98346978425979614 0 -0.18107247352600098
vn -0.077247589826583862 0 0.99701195955276489
vn -0.077247589826583862 0 0.99701195955276489
vn -0.99701195955276489 0 -0.077247589826583862
vn -0.99701195955276489 0 -0.077247589826583862
vn -0.41838350892066956 0 0.90827047824859619
vn -0.41838350892066956 0 0.90827047824859619
vn -0.17141272127628326 0 -0.98519933223724365
vn -0.17141272127628326 0 -0.98519933223724365
vn -0.90827047824859619 0 -0.41838350892066956
vn -0.90827047824859619 0 -0.41838350892066956
vn -0.98519933223724365 0 0.17141272127628326
vn -0.98519933223724365 0 0.17141272127628326
f 6//6 26//26 25//25 5//5
f 26//26 22//22 21//21 25//25
f 22//22 2//2 1//1 21//21
f 2//2 6//6 5//5 1//1
f 16//16 36//36 35//35 15//15
f 36//36 34//34 33//33 35//35
f 34//34 14//14 13//13 33//33
f 14//14 16//16 15//15 13//13
f 40//40 52//52 51//51 39//39
f 52//52 50//50 49//49 51//51
f 50//50 38//38 37//37 49//49
f 38//38 40//40 39//39 37//37
f 64//64 60//60 59//59 63//63
f 60//60 58//58 57//57 59//59
f 58//58 62//62 61//61 57//57
f 62//62 64//64 63//63 61//61
f 80//80 76//76 75//75 79//79
f 76//76 74//74 73//73 75//75
f 74//74 78//78 77//77 73//73
f 78//78 80//80 79//79 77//77
f 96//96 92//92 91//91 95//95
f 92//92 90//90 89//89 91//91
f 90//90 94//94 93//93 89//89
f 94//94 96//96 95//95 93//93
f 116//116 108//108 107//107 115//115
f 108//108 106//106 105//105 107//107
f 106//106 114//114 113//113 105//105
f 114//114 116//116 115//115 113//113
f 144//144 120//120 119//119 143//143
f 120//120 118//118 117//117 119//119
f 118//118 142//142 141//141 117//117
f 142//142 144//144 143//143 141//141
f 154//154 130//130 129//129 153//153
f 130//130 132//132 131//131 129//129
f 132//132 158//158 157//157 131//131
f 158//158 154//154 153//153 157//157
f 150//150 134//134 133//133 149//149
f 134//134 138//138 137//137 133//133
f 138//138 152//152 151//151 137//137
f 152//152 150//150 149//149 151//151
f 8//8 4//4 3//3 7//7
f 4//4 24//24 23//23 3//3
f 24//24 28//28 27//27 23//23
f 28//28 8//8 7//7 27//27
f 12//12 10//10 9//9 11//11
f 10//10 30//30 29//29 9//9
f 30//30 32//32 31//31 29//29
f 32//32 12//12 11//11 31//31
f 18//18 20//20 19//19 17//17
f 20//20 44//44 43//43 19//19
f 44//44 42//42 41//41 43//43
f 42//42 18//18 17//17 41//41
f 46//46 48//48 47//47 45//45
f 48//48 56//56 55//55 47//47
f 56//56 54//54 53//53 55//55
f 54//54 46//46 45//45 53//53
f 66//66 68//68 67//67 65//65
f 68//68 72//72 71//71 67//67
f 72//72 70//70 69//69 71//71
f 70//70 66//66 65//65 69//69
f 82//82 84//84 83//83 81//81
f 84//84 88//88 87//87 83//83
f 88//88 86//86 85//85 87//87
f 86//86 82//82 81//81 85//85
f 98//98 100//100 99//99 97//97
f 100//100 104//104 103//103 99//99
f 104//104 102//102 101//101 103//103
f 102//102 98//98 97//97 101//101
f 122//122 124//124 123//123 121//121
f 124//124 112//112 111//111 123//123
f 112//112 110//110 109//109 111//111
f 110//110 122//122 121//121 109//109
f 146//146 148//148 147//147 145//145
f 148//148 128//128 127//127 147//147
f 128//128 126//126 125//125 127//127
f 126//126 146//146 145//145 125//125
f 156//156 160//160 159//159 155//155
f 160//160 140//140 139//139 159//159
f 140//140 136//136 135//135 139//139
f 136//136 156//156 155//155 135//135
