# Rhino

mtllib Pannelli162.mtl
usemtl diffuse_Black
v 1.2201308538702622 3 -0.32833975387062631
v 1.2201308538702622 0 -0.32833975387062625
v 1.2201308538702611 3 0.32833975387062936
v 1.2201308538702611 0 0.32833975387062936
v 1.2005004735301088 3 -0.33216704634715777
v 1.2005004735301088 0 -0.33216704634715777
v 1.2005004735301079 3 0.33216704634716077
v 1.2005004735301079 0 0.33216704634716077
v 1.1953900377118063 3 -0.40935186854021377
v 1.1953900377118063 0 -0.40935186854021377
v 1.1812472624384287 3 -0.39521037259506259
v 1.1812472624384287 0 -0.39521037259506259
v 1.163468569603145 3 -0.037715977943934061
v 1.163468569603145 0 -0.037715977943934081
v 1.1634685696031448 3 0.037715977943936961
v 1.1634685696031448 0 0.037715977943936961
v 1.1438381892629916 3 -0.041543270420465531
v 1.1438381892629916 0 -0.041543270420465551
v 1.1438381892629916 3 0.041543270420468355
v 1.1438381892629916 0 0.041543270420468355
v 0.98602807540558968 3 -0.61873277103981184
v 0.98602807540558968 0 -0.61873277103981184
v 0.97842360746911328 3 0.79950831070422557
v 0.97842360746911328 0 0.79950831070422557
v 0.97188530013221208 3 -0.6045912750946606
v 0.97188530013221208 0 -0.6045912750946606
v 0.97008138070689298 3 0.78133120277563328
v 0.97008138070689298 0 0.78133120277563328
v 0.94388529645737673 3 -0.68129446979865138
v 0.94388529645737673 0 -0.68129446979865138
v 0.92546601160897546 3 -0.67350152775642846
v 0.92546601160897546 0 -0.67350152775642846
v 0.82851237944587675 3 -0.95398822405883477
v 0.82851237944587675 0 -0.95398822405883477
v 0.81009309459747547 3 -0.94619528201661185
v 0.81009309459747547 0 -0.94619528201661185
v 0.76273252434604788 3 -1.0073556426817212
v 0.76273252434604788 0 -1.0073556426817212
v 0.75890345607844512 3 -0.98772560864705816
v 0.75890345607844512 0 -0.98772560864705816
v 0.70931523309753375 3 0.92301327592968385
v 0.70931523309753386 0 0.92301327592968385
v 0.70097300633531345 3 0.90483616800109157
v 0.70097300633531356 0 0.90483616800109157
v 0.64804649432010086 3 0.96701465792721197
v 0.64804649432010086 0 0.96701465792721197
v 0.63348691894987141 3 0.95330266445293577
v 0.63348691894987141 0 0.95330266445293577
v 0.47211387540148525 3 -1.0640442171733497
v 0.47211387540148525 0 -1.0640442171733497
v 0.4682848071338826 3 -1.0444141831386866
v 0.4682848071338826 0 -1.0444141831386866
v 0.44504322846767702 3 1.1825662008247424
v 0.44504322846767702 0 1.1825662008247424
v 0.43048365309744741 3 1.1688542073504662
v 0.43048365309744741 0 1.1688542073504662
v 0.40220918287733465 3 -1.0923870104755926
v 0.40220918287733459 0 -1.0923870104755926
v 0.39128641802921021 3 -1.0756331091964106
v 0.39128641802921021 0 -1.0756331091964106
v 0.36804654765544575 3 1.1899907866802659
v 0.3680465476554457 0 1.1899907866802659
v 0.36481012138486868 3 1.2097271882011893
v 0.36481012138486862 0 1.2097271882011893
v 0.1541710925862709 3 -1.2540963155789726
v 0.1541710925862709 0 -1.2540963155789726
v 0.14324832773814647 3 -1.2373424142997906
v 0.14324832773814658 0 -1.2373424142997906
v 0.077590291152198676 3 -1.2431878700920176
v 0.077590291152198676 0 -1.2431878700920176
v 0.07585314977799551 3 1.1420761560432056
v 0.075853149777995538 0 1.1420761560432056
v 0.072616723507418449 3 1.1618125575641289
v 0.072616723507418462 0 1.1618125575641289
v 0.069799015390271835 3 -1.2616078598314717
v 0.069799015390271835 0 -1.2616078598314717
v -0.0027812537387210193 3 1.1640764030227124
v -0.0027812537387210193 0 1.1640764030227124
v -0.0071959643812260846 3 1.1445697290380745
v -0.0071959643812260846 0 1.1445697290380745
v -0.19511389887621161 3 -1.1278396220203435
v -0.19511389887621161 0 -1.1278396220203435
v -0.20290517463813851 3 -1.1462596117597976
v -0.20290517463813851 0 -1.1462596117597976
v -0.27641634227367634 3 -1.1107140281178178
v -0.27641634227367634 0 -1.1107140281178178
v -0.27671739815668306 3 -1.130711762123332
v -0.27671739815668306 0 -1.130711762123332
v -0.29157358231069669 3 1.2294352933914439
v -0.29157358231069669 0 1.2294352933914439
v -0.29598829295320178 3 1.209928619406806
v -0.29598829295320178 0 1.209928619406806
v -0.35958104374418087 3 1.1925761219330426
v -0.35958104374418087 0 1.1925761219330426
v -0.37329172007162298 3 1.2071369376603331
v -0.37329172007162298 0 1.2071369376603331
v -0.57247871426818464 3 -1.1062569571916174
v -0.57247871426818464 0 -1.1062569571916174
v -0.57277977015119141 3 -1.1262546911971316
v -0.57277977015119141 0 -1.1262546911971316
v -0.57515094987493931 3 0.98959235617077312
v -0.57515094987493931 0 0.98959235617077312
v -0.58886162620238136 3 1.0041531718980636
v -0.58886162620238136 0 1.0041531718980636
v -0.63019990160903161 3 -1.0744228300054766
v -0.63019990160903161 0 -1.0744228300054766
v -0.64542328598685528 3 0.94526209510357373
v -0.64542328598685528 0 0.94526209510357373
v -0.64695281472269095 3 -1.085347110403112
v -0.64695281472269095 0 -1.085347110403112
v -0.6526599225820543 3 0.96390696278315291
v -0.6526599225820543 0 0.96390696278315291
v -0.79193164411372463 3 -0.82639936930336566
v -0.79193164411372463 0 -0.82639936930336566
v -0.80868455722738397 3 -0.83732364970100137
v -0.80868455722738397 0 -0.83732364970100137
v -0.8497943735448279 3 -0.76677321890192596
v -0.8497943735448279 0 -0.76677321890192596
v -0.86121651739593719 3 -0.78319072875709461
v -0.86121651739593719 0 -0.78319072875709461
v -0.92145674803899968 3 0.83812516673728499
v -0.92145674803899968 0 0.83812516673728499
v -0.92869338463419848 3 0.85677003441686406
v -0.92869338463419848 0 0.85677003441686406
v -0.96450465810276453 3 0.78820498483775103
v -0.96450465810276453 0 0.78820498483775103
v -0.9840109326432982 3 0.79262146007817891
v -0.9840109326432982 0 0.79262146007817891
v -1.0298896729837281 3 0.49941856995423906
v -1.0298896729837281 0 0.49941856995423906
v -1.0493959475242618 3 0.50383504519466693
v -1.0493959475242618 0 0.50383504519466693
v -1.0634053932150864 3 0.42339179989075743
v -1.0634053932150864 0 0.42339179989075743
v -1.0798239362749562 3 0.43481245853162337
v -1.0798239362749562 0 0.43481245853162337
v -1.0928522574342812 3 -0.59767070954314427
v -1.0928522574342812 0 -0.59767070954314427
v -1.1042744012853905 3 -0.61408821939831293
v -1.1042744012853905 0 -0.61408821939831293
v -1.1185094421460713 3 -0.24295735091524159
v -1.1185094421460713 0 -0.24295735091524159
v -1.1229397306104965 3 -0.53902012489464246
v -1.1229397306104965 0 -0.53902012489464246
v -1.133187292655184 3 -0.16117756139885617
v -1.133187292655184 0 -0.16117756139885614
v -1.1385072033039281 3 -0.24265810407180644
v -1.1385072033039281 0 -0.24265810407180644
v -1.1429374917683532 3 -0.53872087805120727
v -1.1429374917683532 0 -0.53872087805120727
v -1.1518328149002972 3 -0.16841251130932375
v -1.1518328149002972 0 -0.16841251130932375
v -1.2324859143392315 3 0.18031861961649653
v -1.2324859143392315 0 0.18031861961649653
v -1.2402992499981442 3 0.11486559136247515
v -1.2402992499981442 0 0.11486559136247519
v -1.2489044573991013 3 0.19173927825736253
v -1.2489044573991013 0 0.19173927825736253
v -1.2589447722432574 3 0.10763064145200758
v -1.2589447722432574 0 0.10763064145200758
vn 0.82935398817062378 0 -0.55872350931167603
vn 0.82935398817062378 0 -0.55872350931167603
vn 0.82935398817062378 0 0.55872350931167603
vn 0.82935398817062378 0 0.55872350931167603
vn -0.55872350931167603 0 -0.82935398817062378
vn -0.55872350931167603 0 -0.82935398817062378
vn -0.55872350931167603 0 0.82935398817062378
vn -0.55872350931167603 0 0.82935398817062378
vn 1 0 4.5223565393825993E-05
vn 1 0 4.5223565393825993E-05
vn -4.5223565393825993E-05 0 1
vn -4.5223565393825993E-05 0 1
vn 0.55872350931167603 0 0.82935398817062378
vn 0.55872350931167603 0 0.82935398817062378
vn 0.55872350931167603 0 -0.82935398817062378
vn 0.55872350931167603 0 -0.82935398817062378
vn -0.82935398817062378 0 0.55872350931167603
vn -0.82935398817062378 0 0.55872350931167603
vn -0.82935398817062378 0 -0.55872350931167603
vn -0.82935398817062378 0 -0.55872350931167603
vn 4.5223565393825993E-05 0 -1
vn 4.5223565393825993E-05 0 -1
vn 0.93760007619857788 0 0.34771555662155151
vn 0.93760007619857788 0 0.34771555662155151
vn -1 0 -4.5223565393825993E-05
vn -1 0 -4.5223565393825993E-05
vn 0.34771555662155151 0 -0.93760007619857788
vn 0.34771555662155151 0 -0.93760007619857788
vn 0.92674219608306885 0 0.37569794058799744
vn 0.92674219608306885 0 0.37569794058799744
vn -0.37569794058799744 0 0.92674219608306885
vn -0.37569794058799744 0 0.92674219608306885
vn 0.37569794058799744 0 -0.92674219608306885
vn 0.37569794058799744 0 -0.92674219608306885
vn -0.92674219608306885 0 -0.37569794058799744
vn -0.92674219608306885 0 -0.37569794058799744
vn 0.82940453290939331 0 -0.55864846706390381
vn 0.82940453290939331 0 -0.55864846706390381
vn 0.55864846706390381 0 0.82940453290939331
vn 0.55864846706390381 0 0.82940453290939331
vn -0.34771555662155151 0 0.93760007619857788
vn -0.34771555662155151 0 0.93760007619857788
vn -0.93760007619857788 0 -0.34771555662155151
vn -0.93760007619857788 0 -0.34771555662155151
vn 0.99955087900161743 0 -0.029966535046696663
vn 0.99955087900161743 0 -0.029966535046696663
vn -0.029966535046696663 0 -0.99955087900161743
vn -0.029966535046696663 0 -0.99955087900161743
vn -0.55864846706390381 0 -0.82940453290939331
vn -0.55864846706390381 0 -0.82940453290939331
vn -0.82940453290939331 0 0.55864846706390381
vn -0.82940453290939331 0 0.55864846706390381
vn 0.029966535046696663 0 0.99955087900161743
vn 0.029966535046696663 0 0.99955087900161743
vn -0.99955087900161743 0 0.029966535046696663
vn -0.99955087900161743 0 0.029966535046696663
vn 0.97851788997650146 0 -0.20616181194782257
vn 0.97851788997650146 0 -0.20616181194782257
vn 0.20616181194782257 0 0.97851788997650146
vn 0.20616181194782257 0 0.97851788997650146
vn 0.81221210956573486 0 -0.58336222171783447
vn 0.81221210956573486 0 -0.58336222171783447
vn 0.58336222171783447 0 0.81221210956573486
vn 0.58336222171783447 0 0.81221210956573486
vn -0.20616181194782257 0 -0.97851788997650146
vn -0.20616181194782257 0 -0.97851788997650146
vn -0.97851788997650146 0 0.20616181194782257
vn -0.97851788997650146 0 0.20616181194782257
vn 0.9267081618309021 0 0.37578174471855164
vn 0.9267081618309021 0 0.37578174471855164
vn -0.58336222171783447 0 -0.81221210956573486
vn -0.58336222171783447 0 -0.81221210956573486
vn -0.81221210956573486 0 0.58336222171783447
vn -0.81221210956573486 0 0.58336222171783447
vn 0.37578174471855164 0 -0.9267081618309021
vn 0.37578174471855164 0 -0.9267081618309021
vn 0.8457486629486084 0 0.5335814356803894
vn 0.8457486629486084 0 0.5335814356803894
vn 0.5335814356803894 0 -0.8457486629486084
vn 0.5335814356803894 0 -0.8457486629486084
vn -0.37578174471855164 0 0.9267081618309021
vn -0.37578174471855164 0 0.9267081618309021
vn -0.9267081618309021 0 -0.37578174471855164
vn -0.9267081618309021 0 -0.37578174471855164
vn 0.71767055988311768 0 0.69638276100158691
vn 0.71767055988311768 0 0.69638276100158691
vn 0.69638276100158691 0 -0.71767055988311768
vn 0.69638276100158691 0 -0.71767055988311768
vn -0.5335814356803894 0 0.8457486629486084
vn -0.5335814356803894 0 0.8457486629486084
vn -0.8457486629486084 0 -0.5335814356803894
vn -0.8457486629486084 0 -0.5335814356803894
vn 0.99954819679260254 0 -0.03005698136985302
vn 0.99954819679260254 0 -0.03005698136985302
vn 0.03005698136985302 0 0.99954819679260254
vn 0.03005698136985302 0 0.99954819679260254
vn -0.69638276100158691 0 0.71767055988311768
vn -0.69638276100158691 0 0.71767055988311768
vn -0.71767055988311768 0 -0.69638276100158691
vn -0.71767055988311768 0 -0.69638276100158691
vn -0.03005698136985302 0 -0.99954819679260254
vn -0.03005698136985302 0 -0.99954819679260254
vn -0.99954819679260254 0 0.03005698136985302
vn -0.99954819679260254 0 0.03005698136985302
vn 0.97853654623031616 0 -0.20607326924800873
vn 0.97853654623031616 0 -0.20607326924800873
vn 0.91504937410354614 0 -0.4033418595790863
vn 0.91504937410354614 0 -0.4033418595790863
vn -0.20607326924800873 0 -0.97853654623031616
vn -0.20607326924800873 0 -0.97853654623031616
vn 0.4033418595790863 0 0.91504937410354614
vn 0.4033418595790863 0 0.91504937410354614
vn 0.20607326924800873 0 0.97853654623031616
vn 0.20607326924800873 0 0.97853654623031616
vn -0.97853654623031616 0 0.20607326924800873
vn -0.97853654623031616 0 0.20607326924800873
vn 0.98428040742874146 0 0.17661282420158386
vn 0.98428040742874146 0 0.17661282420158386
vn 0.17661282420158386 0 -0.98428040742874146
vn 0.17661282420158386 0 -0.98428040742874146
vn -0.4033418595790863 0 -0.91504937410354614
vn -0.4033418595790863 0 -0.91504937410354614
vn -0.91504937410354614 0 0.4033418595790863
vn -0.91504937410354614 0 0.4033418595790863
vn 0.84579694271087646 0 0.53350496292114258
vn 0.84579694271087646 0 0.53350496292114258
vn -0.53350496292114258 0 0.84579694271087646
vn -0.53350496292114258 0 0.84579694271087646
vn 0.53350496292114258 0 -0.84579694271087646
vn 0.53350496292114258 0 -0.84579694271087646
vn -0.84579694271087646 0 -0.53350496292114258
vn -0.84579694271087646 0 -0.53350496292114258
vn 0.98426443338394165 0 0.1767018735408783
vn 0.98426443338394165 0 0.1767018735408783
vn -0.1767018735408783 0 0.98426443338394165
vn -0.1767018735408783 0 0.98426443338394165
vn -0.17661282420158386 0 0.98428040742874146
vn -0.17661282420158386 0 0.98428040742874146
vn -0.98428040742874146 0 -0.17661282420158386
vn -0.98428040742874146 0 -0.17661282420158386
vn 0.71760755777359009 0 0.69644767045974731
vn 0.71760755777359009 0 0.69644767045974731
vn 0.69644767045974731 0 -0.71760755777359009
vn 0.69644767045974731 0 -0.71760755777359009
vn 0.9150128960609436 0 -0.40342465043067932
vn 0.9150128960609436 0 -0.40342465043067932
vn -0.69644767045974731 0 0.71760755777359009
vn -0.69644767045974731 0 0.71760755777359009
vn -0.71760755777359009 0 -0.69644767045974731
vn -0.71760755777359009 0 -0.69644767045974731
vn -0.40342465043067932 0 -0.9150128960609436
vn -0.40342465043067932 0 -0.9150128960609436
vn 0.1767018735408783 0 -0.98426443338394165
vn 0.1767018735408783 0 -0.98426443338394165
vn 0.40342465043067932 0 0.9150128960609436
vn 0.40342465043067932 0 0.9150128960609436
vn -0.98426443338394165 0 -0.1767018735408783
vn -0.98426443338394165 0 -0.1767018735408783
vn -0.9150128960609436 0 0.40342465043067932
vn -0.9150128960609436 0 0.40342465043067932
f 6//6 18//18 17//17 5//5
f 18//18 14//14 13//13 17//17
f 14//14 2//2 1//1 13//13
f 2//2 6//6 5//5 1//1
f 36//36 32//32 31//31 35//35
f 32//32 30//30 29//29 31//31
f 30//30 34//34 33//33 29//29
f 34//34 36//36 35//35 33//33
f 68//68 60//60 59//59 67//67
f 60//60 58//58 57//57 59//59
f 58//58 66//66 65//65 57//57
f 66//66 68//68 67//67 65//65
f 98//98 86//86 85//85 97//97
f 86//86 88//88 87//87 85//85
f 88//88 100//100 99//99 87//87
f 100//100 98//98 97//97 99//99
f 138//138 118//118 117//117 137//137
f 118//118 120//120 119//119 117//117
f 120//120 140//140 139//139 119//119
f 140//140 138//138 137//137 139//139
f 156//156 146//146 145//145 155//155
f 146//146 152//152 151//151 145//145
f 152//152 160//160 159//159 151//151
f 160//160 156//156 155//155 159//159
f 126//126 130//130 129//129 125//125
f 130//130 132//132 131//131 129//129
f 132//132 128//128 127//127 131//131
f 128//128 126//126 125//125 127//127
f 94//94 102//102 101//101 93//93
f 102//102 104//104 103//103 101//101
f 104//104 96//96 95//95 103//103
f 96//96 94//94 93//93 95//95
f 62//62 72//72 71//71 61//61
f 72//72 74//74 73//73 71//71
f 74//74 64//64 63//63 73//73
f 64//64 62//62 61//61 63//63
f 28//28 44//44 43//43 27//27
f 44//44 42//42 41//41 43//43
f 42//42 24//24 23//23 41//41
f 24//24 28//28 27//27 23//23
f 8//8 4//4 3//3 7//7
f 4//4 16//16 15//15 3//3
f 16//16 20//20 19//19 15//15
f 20//20 8//8 7//7 19//19
f 12//12 10//10 9//9 11//11
f 10//10 22//22 21//21 9//9
f 22//22 26//26 25//25 21//21
f 26//26 12//12 11//11 25//25
f 40//40 38//38 37//37 39//39
f 38//38 50//50 49//49 37//37
f 50//50 52//52 51//51 49//49
f 52//52 40//40 39//39 51//51
f 70//70 76//76 75//75 69//69
f 76//76 84//84 83//83 75//75
f 84//84 82//82 81//81 83//83
f 82//82 70//70 69//69 81//81
f 106//106 110//110 109//109 105//105
f 110//110 116//116 115//115 109//109
f 116//116 114//114 113//113 115//115
f 114//114 106//106 105//105 113//113
f 144//144 150//150 149//149 143//143
f 150//150 148//148 147//147 149//149
f 148//148 142//142 141//141 147//147
f 142//142 144//144 143//143 141//141
f 154//154 158//158 157//157 153//153
f 158//158 136//136 135//135 157//157
f 136//136 134//134 133//133 135//135
f 134//134 154//154 153//153 133//133
f 122//122 124//124 123//123 121//121
f 124//124 112//112 111//111 123//123
f 112//112 108//108 107//107 111//111
f 108//108 122//122 121//121 107//107
f 92//92 90//90 89//89 91//91
f 90//90 78//78 77//77 89//89
f 78//78 80//80 79//79 77//77
f 80//80 92//92 91//91 79//79
f 56//56 54//54 53//53 55//55
f 54//54 46//46 45//45 53//53
f 46//46 48//48 47//47 45//45
f 48//48 56//56 55//55 47//47
