# Rhino

mtllib Pannelli93.mtl
usemtl diffuse_Black
v 1.4025211190273981 3 -0.2306269052556883
v 1.4025211190273981 0 -0.23062690525568827
v 1.4025211190273985 3 0.23062690525568616
v 1.4025211190273985 0 0.23062690525568616
v 1.3892546022288739 3 -0.24559351916914463
v 1.3892546022288739 0 -0.24559351916914465
v 1.3892546022288743 3 0.24559351916914268
v 1.3892546022288743 0 0.24559351916914268
v 1.3878448759176938 3 -0.30682382426187643
v 1.3878448759176938 0 -0.30682382426187643
v 1.3810866652662108 3 -0.28800025954128805
v 1.3810866652662108 0 -0.28800025954128805
v 1.2165172125617334 3 -0.73507831575058158
v 1.2165172125617334 0 -0.73507831575058158
v 1.1986406331002433 3 -0.74404647647377486
v 1.1986406331002433 0 -0.74404647647377486
v 1.1753055338909246 3 -0.78038543584395581
v 1.1753055338909246 0 -0.78038543584395581
v 1.1745884378233233 3 -0.80037257604033785
v 1.1745884378233233 0 -0.80037257604033785
v 1.1714259592692531 3 -0.025782453683871956
v 1.1714259592692531 0 -0.025782453683871949
v 1.1714259592692531 3 0.025782453683870121
v 1.1714259592692531 0 0.025782453683870121
v 1.1581594424707289 3 -0.040749067597328298
v 1.1581594424707289 0 -0.040749067597328339
v 1.1581594424707289 3 0.040749067597326619
v 1.1581594424707289 0 0.040749067597326619
v 1.0971956534899645 3 -0.41117540166038669
v 1.0971956534899645 0 -0.41117540166038669
v 1.0904374428384815 3 -0.39235183693979842
v 1.0904374428384815 0 -0.39235183693979842
v 1.0780424348299664 3 -0.45905121900908702
v 1.0780424348299664 0 -0.45905121900908702
v 1.0601658553684763 3 -0.46801937973228019
v 1.0601658553684763 0 -0.46801937973228019
v 0.86668987884028748 3 -0.76931296272061411
v 0.86668987884028748 0 -0.76931296272061411
v 0.86597278277268652 3 -0.78930010291699593
v 0.86597278277268652 0 -0.78930010291699593
v 0.85644758054949266 3 -1.1343508277938539
v 0.85644758054949266 0 -1.1343508277938539
v 0.8365188140901928 3 -1.1360373233944072
v 0.8365188140901928 0 -1.1360373233944072
v 0.83040688941555274 3 -0.82663650474621364
v 0.83040688941555274 0 -0.82663650474621364
v 0.81047812295625288 3 -0.82832300034676676
v 0.81047812295625288 0 -0.82832300034676676
v 0.8013554622136545 3 -1.1611089310018816
v 0.8013554622136545 0 -1.1611089310018816
v 0.79326566533012044 3 -1.1793997808012526
v 0.79326566533012044 0 -1.1793997808012526
v 0.5189317369181472 3 -1.0361967154518856
v 0.5189317369181472 0 -1.0361967154518856
v 0.51084194003461303 3 -1.0544875652512569
v 0.51084194003461303 0 -1.0544875652512569
v 0.46395232836172151 3 -1.0759422614506728
v 0.46395232836172151 0 -1.0759422614506728
v 0.44482288835396266 3 -1.0701057792062423
v 0.44482288835396266 0 -1.0701057792062423
v 0.37383289289679045 3 -1.3713144157829371
v 0.37383289289679045 0 -1.3713144157829371
v 0.3547034528890316 3 -1.3654779335385065
v 0.3547034528890316 0 -1.3654779335385065
v 0.31274320695971558 3 -1.3756948109855414
v 0.31274320695971558 0 -1.3756948109855414
v 0.29843824024256105 3 -1.3896722187287927
v 0.29843824024256105 0 -1.3896722187287927
v 0.096922093773439313 3 -1.1548159543549499
v 0.096922093773439313 0 -1.1548159543549499
v 0.082617127056284795 3 -1.1687933620982009
v 0.082617127056284795 0 -1.1687933620982009
v 0.031113011036956822 3 -1.1712965011098022
v 0.031113011036956805 0 -1.1712965011098022
v 0.015520039068105737 3 -1.1587721558104014
v 0.015520039068105703 0 -1.1587721558104014
v -0.16227178492072677 3 -1.4120630745700855
v -0.16227178492072672 0 -1.4120630745700855
v -0.17786475688957787 3 -1.3995387292706847
v -0.17786475688957781 0 -1.3995387292706847
v -0.22061800265925938 3 -1.3934389916227516
v -0.22061800265925938 0 -1.3934389916227516
v -0.23909130881188675 3 -1.4011029957844998
v -0.23909130881188675 0 -1.4011029957844998
v -0.3389556758555955 3 -1.1081980105105032
v -0.3389556758555955 0 -1.1081980105105032
v -0.35742898200822282 3 -1.1158620146722515
v -0.35742898200822282 0 -1.1158620146722515
v -0.40617812068399101 3 -1.0990554341094321
v -0.40617812068399106 0 -1.0990554341094321
v -0.41600349960299438 3 -1.0816352754104417
v -0.41600349960299438 0 -1.0816352754104417
v -0.67515775634733 3 -1.2507662702478515
v -0.67515775634733 0 -1.2507662702478515
v -0.68498313526633337 3 -1.2333461115488611
v -0.68498313526633325 0 -1.2333461115488611
v -0.72241202004701777 3 -1.2118025415733289
v -0.72241202004701777 0 -1.2118025415733289
v -0.72633387224662327 3 -0.90301322621619839
v -0.72633387224662327 0 -0.90301322621619839
v -0.7424104071546811 3 -1.2120565358489273
v -0.7424104071546811 0 -1.2120565358489273
v -0.74633225935428671 3 -0.90326722049179686
v -0.74633225935428671 0 -0.90326722049179686
v -0.78535113574539672 3 -0.86955569491049056
v -0.78535113574539672 0 -0.86955569491049056
v -0.78800305436282236 3 -0.84973229137712747
v -0.78800305436282236 0 -0.84973229137712747
v -1.0097843714738537 3 -0.56862052708402577
v -1.0097843714738537 0 -0.56862052708402577
v -1.0284463643961181 3 -0.56142816862734779
v -1.0284463643961181 0 -0.56142816862734779
v -1.0472509587767069 3 -0.49624511084284656
v -1.0472509587767069 0 -0.49624511084284662
v -1.0521519510214152 3 -0.51563532164668546
v -1.0521519510214152 0 -0.51563532164668546
v -1.0914385803058428 3 -0.91050320381954064
v -1.0914385803058428 0 -0.91050320381954064
v -1.0940904989232683 3 -0.89067980028617755
v -1.0940904989232683 0 -0.89067980028617755
v -1.1005543537475242 3 0.36300674255656773
v -1.1005543537475242 0 0.36300674255656773
v -1.1174770174344537 3 0.35234731228384347
v -1.1174770174344537 0 0.35234731228384347
v -1.1208394996541438 3 -0.85677496607162884
v -1.1208394996541438 0 -0.85677496607162884
v -1.1233456053369404 3 0.28476030563325366
v -1.1233456053369404 0 0.28476030563325366
v -1.1318973323802639 3 0.30283979579687503
v -1.1318973323802639 0 0.30283979579687503
v -1.139501492576408 3 -0.84958260761495086
v -1.139501492576408 0 -0.84958260761495086
v -1.1487495749311569 3 -0.15286659147651266
v -1.1487495749311569 0 -0.15286659147651266
v -1.1566526496833047 3 -0.071752551695053041
v -1.1566526496833047 0 -0.071752551695053068
v -1.1634049168852858 3 -0.13925700102684996
v -1.1634049168852858 0 -0.13925700102684996
v -1.1684052928637239 3 -0.087935115715434692
v -1.1684052928637239 0 -0.08793511571543465
v -1.2651435357796235 3 0.62430470152564432
v -1.2651435357796235 0 0.62430470152564432
v -1.282066199466553 3 0.61364527125292001
v -1.282066199466553 0 0.61364527125292001
v -1.3466495996027654 3 -0.42057030608651186
v -1.3466495996027654 0 -0.42057030608651186
v -1.3515505918474737 3 -0.43996051689035076
v -1.3515505918474737 0 -0.43996051689035071
v -1.3588913275943937 3 -0.37915549087509987
v -1.3588913275943937 0 -0.37915549087509987
v -1.3735466695485226 3 -0.36554590042543711
v -1.3735466695485226 0 -0.36554590042543711
v -1.4025057875844025 3 0.1527155599938885
v -1.4025057875844025 0 0.1527155599938885
v -1.4065229436062423 3 0.10971661488226273
v -1.4065229436062423 0 0.10971661488226268
v -1.411057514627726 3 0.17079505015750993
v -1.411057514627726 0 0.17079505015750993
v -1.4182755867866614 3 0.093534050861881074
v -1.4182755867866614 0 0.093534050861881102
vn 0.99819189310073853 0 0.060107514262199402
vn 0.99819189310073853 0 0.060107514262199402
vn 0.99819189310073853 0 -0.060107514262199402
vn 0.99819189310073853 0 -0.060107514262199402
vn 0.060107514262199402 0 -0.99819189310073853
vn 0.060107514262199402 0 -0.99819189310073853
vn 0.060107514262199402 0 0.99819189310073853
vn 0.060107514262199402 0 0.99819189310073853
vn 0.90445232391357422 0 -0.42657470703125
vn 0.90445232391357422 0 -0.42657470703125
vn 0.42657470703125 0 0.90445232391357422
vn 0.42657470703125 0 0.90445232391357422
vn 0.949104905128479 0 -0.31496018171310425
vn 0.949104905128479 0 -0.31496018171310425
vn -0.31496018171310425 0 -0.949104905128479
vn -0.31496018171310425 0 -0.949104905128479
vn 0.73200529813766479 0 0.68129891157150269
vn 0.73200529813766479 0 0.68129891157150269
vn 0.68129891157150269 0 -0.73200529813766479
vn 0.68129891157150269 0 -0.73200529813766479
vn -0.060107514262199402 0 0.99819189310073853
vn -0.060107514262199402 0 0.99819189310073853
vn -0.060107514262199402 0 -0.99819189310073853
vn -0.060107514262199402 0 -0.99819189310073853
vn -0.99819189310073853 0 -0.060107514262199402
vn -0.99819189310073853 0 -0.060107514262199402
vn -0.99819189310073853 0 0.060107514262199402
vn -0.99819189310073853 0 0.060107514262199402
vn -0.42657470703125 0 -0.90445232391357422
vn -0.42657470703125 0 -0.90445232391357422
vn -0.90445232391357422 0 0.42657470703125
vn -0.90445232391357422 0 0.42657470703125
vn 0.31496018171310425 0 0.949104905128479
vn 0.31496018171310425 0 0.949104905128479
vn -0.949104905128479 0 0.31496018171310425
vn -0.949104905128479 0 0.31496018171310425
vn -0.68129891157150269 0 0.73200529813766479
vn -0.68129891157150269 0 0.73200529813766479
vn -0.73200529813766479 0 -0.68129891157150269
vn -0.73200529813766479 0 -0.68129891157150269
vn 0.76421493291854858 0 -0.6449616551399231
vn 0.76421493291854858 0 -0.6449616551399231
vn -0.6449616551399231 0 -0.76421493291854858
vn -0.6449616551399231 0 -0.76421493291854858
vn 0.6449616551399231 0 0.76421493291854858
vn 0.6449616551399231 0 0.76421493291854858
vn -0.76421493291854858 0 0.6449616551399231
vn -0.76421493291854858 0 0.6449616551399231
vn 0.93269670009613037 0 0.36066171526908875
vn 0.93269670009613037 0 0.36066171526908875
vn 0.36066171526908875 0 -0.93269670009613037
vn 0.36066171526908875 0 -0.93269670009613037
vn -0.36066171526908875 0 0.93269670009613037
vn -0.36066171526908875 0 0.93269670009613037
vn -0.93269670009613037 0 -0.36066171526908875
vn -0.93269670009613037 0 -0.36066171526908875
vn 0.88267862796783447 0 0.46997705101966858
vn 0.88267862796783447 0 0.46997705101966858
vn -0.46997705101966858 0 0.88267862796783447
vn -0.46997705101966858 0 0.88267862796783447
vn 0.46997705101966858 0 -0.88267862796783447
vn 0.46997705101966858 0 -0.88267862796783447
vn -0.88267862796783447 0 -0.46997705101966858
vn -0.88267862796783447 0 -0.46997705101966858
vn 0.99993294477462769 0 -0.011580984108150005
vn 0.99993294477462769 0 -0.011580984108150005
vn -0.011580984108150005 0 -0.99993294477462769
vn -0.011580984108150005 0 -0.99993294477462769
vn 0.011580984108150005 0 0.99993294477462769
vn 0.011580984108150005 0 0.99993294477462769
vn -0.99993294477462769 0 0.011580984108150005
vn -0.99993294477462769 0 0.011580984108150005
vn 0.99409729242324829 0 0.10849235206842422
vn 0.99409729242324829 0 0.10849235206842422
vn -0.10849235206842422 0 0.99409729242324829
vn -0.10849235206842422 0 0.99409729242324829
vn 0.10849235206842422 0 -0.99409729242324829
vn 0.10849235206842422 0 -0.99409729242324829
vn -0.99409729242324829 0 -0.10849235206842422
vn -0.99409729242324829 0 -0.10849235206842422
vn 0.92409348487854004 0 -0.38216656446456909
vn 0.92409348487854004 0 -0.38216656446456909
vn -0.38216656446456909 0 -0.92409348487854004
vn -0.38216656446456909 0 -0.92409348487854004
vn 0.38216656446456909 0 0.92409348487854004
vn 0.38216656446456909 0 0.92409348487854004
vn -0.92409348487854004 0 0.38216656446456909
vn -0.92409348487854004 0 0.38216656446456909
vn 0.96327519416809082 0 -0.26851603388786316
vn 0.96327519416809082 0 -0.26851603388786316
vn 0.26851603388786316 0 0.96327519416809082
vn 0.26851603388786316 0 0.96327519416809082
vn -0.26851603388786316 0 -0.96327519416809082
vn -0.26851603388786316 0 -0.96327519416809082
vn -0.96327519416809082 0 0.26851603388786316
vn -0.96327519416809082 0 0.26851603388786316
vn 0.7160298228263855 0 -0.69806969165802002
vn 0.7160298228263855 0 -0.69806969165802002
vn 0.69806969165802002 0 0.7160298228263855
vn 0.69806969165802002 0 0.7160298228263855
vn -0.69806969165802002 0 -0.7160298228263855
vn -0.69806969165802002 0 -0.7160298228263855
vn -0.7160298228263855 0 0.69806969165802002
vn -0.7160298228263855 0 0.69806969165802002
vn 0.79462260007858276 0 -0.60710370540618896
vn 0.79462260007858276 0 -0.60710370540618896
vn 0.60710370540618896 0 0.79462260007858276
vn 0.60710370540618896 0 0.79462260007858276
vn 0.9140893816947937 0 0.40551277995109558
vn 0.9140893816947937 0 0.40551277995109558
vn -0.40551277995109558 0 0.9140893816947937
vn -0.40551277995109558 0 0.9140893816947937
vn 0.85882371664047241 0 0.5122712254524231
vn 0.85882371664047241 0 0.5122712254524231
vn 0.5122712254524231 0 -0.85882371664047241
vn 0.5122712254524231 0 -0.85882371664047241
vn -0.60710370540618896 0 -0.79462260007858276
vn -0.60710370540618896 0 -0.79462260007858276
vn -0.79462260007858276 0 0.60710370540618896
vn -0.79462260007858276 0 0.60710370540618896
vn 0.97517430782318115 0 -0.22143875062465668
vn 0.97517430782318115 0 -0.22143875062465668
vn -0.22143875062465668 0 -0.97517430782318115
vn -0.22143875062465668 0 -0.97517430782318115
vn 0.40551277995109558 0 -0.9140893816947937
vn 0.40551277995109558 0 -0.9140893816947937
vn 0.9415556788444519 0 -0.33685731887817383
vn 0.9415556788444519 0 -0.33685731887817383
vn 0.33685731887817383 0 0.9415556788444519
vn 0.33685731887817383 0 0.9415556788444519
vn -0.9140893816947937 0 -0.40551277995109558
vn -0.9140893816947937 0 -0.40551277995109558
vn 0.99931627511978149 0 0.036972902715206146
vn 0.99931627511978149 0 0.036972902715206146
vn 0.98765873908996582 0 0.15662135183811188
vn 0.98765873908996582 0 0.15662135183811188
vn -0.036972902715206146 0 0.99931627511978149
vn -0.036972902715206146 0 0.99931627511978149
vn 0.15662135183811188 0 -0.98765873908996582
vn 0.15662135183811188 0 -0.98765873908996582
vn 0.22143875062465668 0 0.97517430782318115
vn 0.22143875062465668 0 0.97517430782318115
vn -0.97517430782318115 0 0.22143875062465668
vn -0.97517430782318115 0 0.22143875062465668
vn -0.5122712254524231 0 0.85882371664047241
vn -0.5122712254524231 0 0.85882371664047241
vn -0.85882371664047241 0 -0.5122712254524231
vn -0.85882371664047241 0 -0.5122712254524231
vn 0.036972902715206146 0 -0.99931627511978149
vn 0.036972902715206146 0 -0.99931627511978149
vn -0.99931627511978149 0 -0.036972902715206146
vn -0.99931627511978149 0 -0.036972902715206146
vn -0.33685731887817383 0 -0.9415556788444519
vn -0.33685731887817383 0 -0.9415556788444519
vn -0.15662135183811188 0 0.98765873908996582
vn -0.15662135183811188 0 0.98765873908996582
vn -0.9415556788444519 0 0.33685731887817383
vn -0.9415556788444519 0 0.33685731887817383
vn -0.98765873908996582 0 -0.15662135183811188
vn -0.98765873908996582 0 -0.15662135183811188
f 6//6 26//26 25//25 5//5
f 26//26 22//22 21//21 25//25
f 22//22 2//2 1//1 21//21
f 2//2 6//6 5//5 1//1
f 16//16 36//36 35//35 15//15
f 36//36 34//34 33//33 35//35
f 34//34 14//14 13//13 33//33
f 14//14 16//16 15//15 13//13
f 44//44 48//48 47//47 43//43
f 48//48 46//46 45//45 47//47
f 46//46 42//42 41//41 45//45
f 42//42 44//44 43//43 41//41
f 64//64 60//60 59//59 63//63
f 60//60 58//58 57//57 59//59
f 58//58 62//62 61//61 57//57
f 62//62 64//64 63//63 61//61
f 80//80 76//76 75//75 79//79
f 76//76 74//74 73//73 75//75
f 74//74 78//78 77//77 73//73
f 78//78 80//80 79//79 77//77
f 96//96 92//92 91//91 95//95
f 92//92 90//90 89//89 91//91
f 90//90 94//94 93//93 89//89
f 94//94 96//96 95//95 93//93
f 120//120 108//108 107//107 119//119
f 108//108 106//106 105//105 107//107
f 106//106 118//118 117//117 105//105
f 118//118 120//120 119//119 117//117
f 146//146 114//114 113//113 145//145
f 114//114 116//116 115//115 113//113
f 116//116 148//148 147//147 115//115
f 148//148 146//146 145//145 147//147
f 156//156 136//136 135//135 155//155
f 136//136 140//140 139//139 135//135
f 140//140 160//160 159//159 139//139
f 160//160 156//156 155//155 159//159
f 142//142 122//122 121//121 141//141
f 122//122 124//124 123//123 121//121
f 124//124 144//144 143//143 123//123
f 144//144 142//142 141//141 143//143
f 8//8 4//4 3//3 7//7
f 4//4 24//24 23//23 3//3
f 24//24 28//28 27//27 23//23
f 28//28 8//8 7//7 27//27
f 12//12 10//10 9//9 11//11
f 10//10 30//30 29//29 9//9
f 30//30 32//32 31//31 29//29
f 32//32 12//12 11//11 31//31
f 18//18 20//20 19//19 17//17
f 20//20 40//40 39//39 19//19
f 40//40 38//38 37//37 39//39
f 38//38 18//18 17//17 37//37
f 50//50 52//52 51//51 49//49
f 52//52 56//56 55//55 51//51
f 56//56 54//54 53//53 55//55
f 54//54 50//50 49//49 53//53
f 66//66 68//68 67//67 65//65
f 68//68 72//72 71//71 67//67
f 72//72 70//70 69//69 71//71
f 70//70 66//66 65//65 69//69
f 82//82 84//84 83//83 81//81
f 84//84 88//88 87//87 83//83
f 88//88 86//86 85//85 87//87
f 86//86 82//82 81//81 85//85
f 98//98 102//102 101//101 97//97
f 102//102 104//104 103//103 101//101
f 104//104 100//100 99//99 103//103
f 100//100 98//98 97//97 99//99
f 126//126 132//132 131//131 125//125
f 132//132 112//112 111//111 131//131
f 112//112 110//110 109//109 111//111
f 110//110 126//126 125//125 109//109
f 150//150 152//152 151//151 149//149
f 152//152 138//138 137//137 151//151
f 138//138 134//134 133//133 137//137
f 134//134 150//150 149//149 133//133
f 154//154 158//158 157//157 153//153
f 158//158 130//130 129//129 157//157
f 130//130 128//128 127//127 129//129
f 128//128 154//154 153//153 127//127
