# Rhino

mtllib Pannelli90.mtl
usemtl diffuse_Black
v 1.4088463072286261 3 -0.22402032480567499
v 1.4088463072286261 0 -0.22402032480567494
v 1.4088463072286286 3 0.22402032480565931
v 1.4088463072286286 0 0.22402032480565931
v 1.396000123514876 3 -0.2393492374870291
v 1.396000123514876 0 -0.23934923748702913
v 1.3960001235148787 3 0.23934923748701362
v 1.3960001235148787 0 0.23934923748701362
v 1.394695736951338 3 -0.29976127943338571
v 1.394695736951338 0 -0.29976127943338571
v 1.3882506684374392 3 -0.28082821069503416
v 1.3882506684374392 0 -0.28082821069503416
v 1.2329286590081994 3 -0.71757922567060162
v 1.2329286590081994 0 -0.71757922567060162
v 1.2154144456983571 3 -0.72723595038125488
v 1.2154144456983571 0 -0.72723595038125488
v 1.1932115636485201 3 -0.76311897284409413
v 1.1932115636485201 0 -0.76311897284409413
v 1.1923860092779843 3 -0.78310192707967419
v 1.1923860092779843 0 -0.78310192707967419
v 1.1715780914973819 3 -0.025180971220941723
v 1.1715780914973819 0 -0.025180971220941688
v 1.1715780914973821 3 0.025180971220928709
v 1.1715780914973821 0 0.025180971220928709
v 1.1587319077836318 3 -0.040509883902295853
v 1.1587319077836318 0 -0.040509883902295873
v 1.1587319077836322 3 0.040509883902283009
v 1.1587319077836322 0 0.040509883902283009
v 1.1016406761491482 3 -0.39952112139651041
v 1.1016406761491482 0 -0.39952112139651041
v 1.0951956076352494 3 -0.3805880526581587
v 1.0951956076352494 0 -0.3805880526581587
v 1.0834572718633335 3 -0.44648588537012029
v 1.0834572718633335 0 -0.44648588537012029
v 1.0659430585534913 3 -0.45614261008077356
v 1.0659430585534913 0 -0.45614261008077356
v 0.89067593750824792 3 -1.1143291244787514
v 0.89067593750824792 0 -1.1143291244787514
v 0.8839058747797669 3 -0.75034064886522545
v 0.8839058747797669 0 -0.75034064886522545
v 0.88308032040923112 3 -0.7703236031008055
v 0.88308032040923112 0 -0.7703236031008055
v 0.87085654660761058 3 -1.1170108672568224
v 0.87085654660761058 0 -1.1170108672568224
v 0.84916664475997661 3 -0.80755514685708085
v 0.84916664475997661 0 -0.80755514685708085
v 0.83719564043029304 3 -1.1424569409757563
v 0.83719564043029304 0 -1.1424569409757563
v 0.82934725385933927 3 -0.81023688963515161
v 0.82934725385933927 0 -0.81023688963515161
v 0.82921083916266469 3 -1.160793869527629
v 0.82921083916266469 0 -1.160793869527629
v 0.55336792153498371 3 -1.0188643816650598
v 0.55336792153498371 0 -1.0188643816650598
v 0.54538312026735525 3 -1.0372013102169324
v 0.54538312026735525 0 -1.0372013102169324
v 0.50031448560796032 3 -1.0596767060189252
v 0.50031448560796032 0 -1.0596767060189252
v 0.48086376187934249 3 -1.0550216714934906
v 0.48086376187934249 0 -1.0550216714934906
v 0.4282616427888698 3 -1.3607442774575813
v 0.42826164278886975 0 -1.3607442774575813
v 0.40881091906025196 3 -1.3560892429321467
v 0.40881091906025196 0 -1.3560892429321467
v 0.3682331998423658 3 -1.3676654243173012
v 0.3682331998423658 0 -1.3676654243173012
v 0.35416638554212632 3 -1.3818824822211917
v 0.35416638554212632 0 -1.3818824822211917
v 0.14817480222965768 3 -1.1499325688030033
v 0.14817480222965768 0 -1.1499325688030033
v 0.13410798792941819 3 -1.164149626706894
v 0.13410798792941819 0 -1.164149626706894
v 0.083964628176019282 3 -1.1688367067317573
v 0.083964628176019282 0 -1.1688367067317573
v 0.067506679294346922 3 -1.1574729081323338
v 0.067506679294346922 0 -1.1574729081323338
v -0.091929662153792044 3 -1.423580682832577
v -0.091929662153792044 0 -1.423580682832577
v -0.1083876110354644 3 -1.4122168842331535
v -0.1083876110354644 0 -1.4122168842331535
v -0.15040778121278109 3 -1.4083614243828961
v -0.15040778121278109 0 -1.4083614243828961
v -0.16865884700821882 3 -1.4165405806554341
v -0.16865884700821882 0 -1.4165405806554341
v -0.27700865991259738 3 -1.125862730151016
v -0.27700865991259738 0 -1.125862730151016
v -0.29525972570803516 3 -1.1340418864235542
v -0.29525972570803516 0 -1.1340418864235542
v -0.34371294272782782 3 -1.1203083141660846
v -0.34371294272782793 0 -1.1203083141660846
v -0.35495776596345363 3 -1.1037688477176306
v -0.35495776596345369 0 -1.1037688477176306
v -0.59971868657584904 3 -1.2943610471153384
v -0.59971868657584904 0 -1.2943610471153384
v -0.61096350981147485 3 -1.2778215806668844
v -0.61096350981147485 0 -1.2778215806668844
v -0.64875716702675368 3 -1.2590546217581635
v -0.64875716702675368 0 -1.2590546217581635
v -0.66482073368702144 3 -0.94990214068056655
v -0.66482073368702144 0 -0.94990214068056655
v -0.66873022314409869 3 -1.2600924219958711
v -0.66873022314409869 0 -1.2600924219958711
v -0.68479378980436645 3 -0.95093994091827405
v -0.68479378980436645 0 -0.95093994091827405
v -0.72502001433470487 3 -0.9206385200513727
v -0.72502001433470487 0 -0.9206385200513727
v -0.7295346667301057 3 -0.90115473413208325
v -0.7295346667301057 0 -0.90115473413208325
v -0.96294148213810216 3 -0.64578973883714474
v -0.96294148213810216 0 -0.64578973883714474
v -0.98194195275691143 3 -0.63954617284776316
v -0.98194195275691143 0 -0.63954617284776316
v -1.0056896504102326 3 -0.57696534719809311
v -1.0056896504102326 0 -0.57696534719809323
v -1.0085142430553633 3 -0.59676488447523868
v -1.0085142430553633 0 -0.59676488447523879
v -1.0265993381169167 3 -0.99051846136035526
v -1.0265993381169167 0 -0.99051846136035526
v -1.0311139905123174 3 -0.97103467544106581
v -1.0311139905123174 0 -0.97103467544106581
v -1.0595823719973525 3 -0.93988807806655128
v -1.0595823719973525 0 -0.93988807806655128
v -1.0785828426161617 3 -0.9336445120771697
v -1.0785828426161617 0 -0.9336445120771697
v -1.1311512735966014 3 -0.25455349349490186
v -1.1311512735966014 0 -0.25455349349490186
v -1.1320134034945302 3 0.25069172128014516
v -1.1320134034945302 0 0.25069172128014511
v -1.1461664985589728 3 -0.17493725272433236
v -1.1461664985589728 0 -0.17493725272433233
v -1.146615794932901 3 -0.24187088414827579
v -1.146615794932901 0 -0.24187088414827579
v -1.1467568339755252 3 0.17102470154951904
v -1.1467568339755252 0 0.17102470154951904
v -1.1474345527240242 3 0.23795640988066702
v -1.1474345527240242 0 0.23795640988066702
v -1.1559492689207636 3 -0.19238137505961947
v -1.1559492689207636 0 -0.19238137505961952
v -1.1565990790785126 3 0.18843533655610975
v -1.1565990790785126 0 0.18843533655610975
v -1.3121563241859207 3 -0.53324495612997969
v -1.3121563241859207 0 -0.53324495612997957
v -1.3149809168310513 3 -0.55304449340712525
v -1.3149809168310513 0 -0.55304449340712514
v -1.3274587451728912 3 -0.49392072461396491
v -1.3274587451728912 0 -0.49392072461396491
v -1.3291366225609083 3 0.48938761826036453
v -1.3291366225609083 0 0.48938761826036453
v -1.342923266509191 3 -0.48123811526733884
v -1.342923266509191 0 -0.48123811526733884
v -1.3445577717904023 3 0.47665230686088639
v -1.3445577717904023 0 0.47665230686088644
v -1.4161749373522654 3 -0.023514870921999574
v -1.4161749373522654 0 -0.023514870921999519
v -1.4162469399363082 3 0.018681741359266646
v -1.4162469399363082 0 0.018681741359266646
v -1.4259577077140562 3 -0.040958993257286691
v -1.4259577077140562 0 -0.040958993257286698
v -1.4260891850392954 3 0.036092376365857326
v -1.4260891850392954 0 0.036092376365857326
vn 0.99614006280899048 0 0.087777726352214813
vn 0.99614006280899048 0 0.087777726352214813
vn 0.99614006280899048 0 -0.087777726352214813
vn 0.99614006280899048 0 -0.087777726352214813
vn 0.087777726352214813 0 -0.99614006280899048
vn 0.087777726352214813 0 -0.99614006280899048
vn 0.087777726352214813 0 0.99614006280899048
vn 0.087777726352214813 0 0.99614006280899048
vn 0.89725261926651001 0 -0.44151750206947327
vn 0.89725261926651001 0 -0.44151750206947327
vn 0.44151750206947327 0 0.89725261926651001
vn 0.44151750206947327 0 0.89725261926651001
vn 0.96063774824142456 0 -0.2778041660785675
vn 0.96063774824142456 0 -0.2778041660785675
vn -0.2778041660785675 0 -0.96063774824142456
vn -0.2778041660785675 0 -0.96063774824142456
vn 0.73569184541702271 0 0.67731636762619019
vn 0.73569184541702271 0 0.67731636762619019
vn 0.67731636762619019 0 -0.73569184541702271
vn 0.67731636762619019 0 -0.73569184541702271
vn -0.087777726352214813 0 0.99614006280899048
vn -0.087777726352214813 0 0.99614006280899048
vn -0.087777726352214813 0 -0.99614006280899048
vn -0.087777726352214813 0 -0.99614006280899048
vn -0.99614006280899048 0 -0.087777726352214813
vn -0.99614006280899048 0 -0.087777726352214813
vn -0.99614006280899048 0 0.087777726352214813
vn -0.99614006280899048 0 0.087777726352214813
vn -0.44151750206947327 0 -0.89725261926651001
vn -0.44151750206947327 0 -0.89725261926651001
vn -0.89725261926651001 0 0.44151750206947327
vn -0.89725261926651001 0 0.44151750206947327
vn 0.2778041660785675 0 0.96063774824142456
vn 0.2778041660785675 0 0.96063774824142456
vn -0.96063774824142456 0 0.2778041660785675
vn -0.96063774824142456 0 0.2778041660785675
vn 0.79553520679473877 0 -0.60590732097625732
vn 0.79553520679473877 0 -0.60590732097625732
vn -0.67731636762619019 0 0.73569184541702271
vn -0.67731636762619019 0 0.73569184541702271
vn -0.73569184541702271 0 -0.67731636762619019
vn -0.73569184541702271 0 -0.67731636762619019
vn -0.60590732097625732 0 -0.79553520679473877
vn -0.60590732097625732 0 -0.79553520679473877
vn 0.60590732097625732 0 0.79553520679473877
vn 0.60590732097625732 0 0.79553520679473877
vn 0.93061369657516479 0 0.36600297689437866
vn 0.93061369657516479 0 0.36600297689437866
vn -0.79553520679473877 0 0.60590732097625732
vn -0.79553520679473877 0 0.60590732097625732
vn 0.36600297689437866 0 -0.93061369657516479
vn 0.36600297689437866 0 -0.93061369657516479
vn -0.36600297689437866 0 0.93061369657516479
vn -0.36600297689437866 0 0.93061369657516479
vn -0.93061369657516479 0 -0.36600297689437866
vn -0.93061369657516479 0 -0.36600297689437866
vn 0.85226726531982422 0 0.52310663461685181
vn 0.85226726531982422 0 0.52310663461685181
vn -0.52310663461685181 0 0.85226726531982422
vn -0.52310663461685181 0 0.85226726531982422
vn 0.52310663461685181 0 -0.85226726531982422
vn 0.52310663461685181 0 -0.85226726531982422
vn -0.85226726531982422 0 -0.52310663461685181
vn -0.85226726531982422 0 -0.52310663461685181
vn 0.99998587369918823 0 0.0053119356743991375
vn 0.99998587369918823 0 0.0053119356743991375
vn 0.0053119356743991375 0 -0.99998587369918823
vn 0.0053119356743991375 0 -0.99998587369918823
vn -0.0053119356743991375 0 0.99998587369918823
vn -0.0053119356743991375 0 0.99998587369918823
vn -0.99998587369918823 0 -0.0053119356743991375
vn -0.99998587369918823 0 -0.0053119356743991375
vn 0.98364728689193726 0 0.18010541796684265
vn 0.98364728689193726 0 0.18010541796684265
vn -0.18010541796684265 0 0.98364728689193726
vn -0.18010541796684265 0 0.98364728689193726
vn 0.18010541796684265 0 -0.98364728689193726
vn 0.18010541796684265 0 -0.98364728689193726
vn -0.98364728689193726 0 -0.18010541796684265
vn -0.98364728689193726 0 -0.18010541796684265
vn 0.93444949388504028 0 -0.35609576106071472
vn 0.93444949388504028 0 -0.35609576106071472
vn -0.35609576106071472 0 -0.93444949388504028
vn -0.35609576106071472 0 -0.93444949388504028
vn 0.35609576106071472 0 0.93444949388504028
vn 0.35609576106071472 0 0.93444949388504028
vn -0.93444949388504028 0 0.35609576106071472
vn -0.93444949388504028 0 0.35609576106071472
vn 0.98232299089431763 0 -0.18719391524791718
vn 0.98232299089431763 0 -0.18719391524791718
vn 0.18719391524791718 0 0.98232299089431763
vn 0.18719391524791718 0 0.98232299089431763
vn -0.18719391524791718 0 -0.98232299089431763
vn -0.18719391524791718 0 -0.98232299089431763
vn -0.98232299089431763 0 0.18719391524791718
vn -0.98232299089431763 0 0.18719391524791718
vn 0.74284595251083374 0 -0.66946238279342651
vn 0.74284595251083374 0 -0.66946238279342651
vn 0.66946238279342651 0 0.74284595251083374
vn 0.66946238279342651 0 0.74284595251083374
vn -0.66946238279342651 0 -0.74284595251083374
vn -0.66946238279342651 0 -0.74284595251083374
vn -0.74284595251083374 0 0.66946238279342651
vn -0.74284595251083374 0 0.66946238279342651
vn 0.84847289323806763 0 -0.52923882007598877
vn 0.84847289323806763 0 -0.52923882007598877
vn 0.52923882007598877 0 0.84847289323806763
vn 0.52923882007598877 0 0.84847289323806763
vn 0.89251148700714111 0 0.45102468132972717
vn 0.89251148700714111 0 0.45102468132972717
vn -0.45102468132972717 0 0.89251148700714111
vn -0.45102468132972717 0 0.89251148700714111
vn 0.79988378286361694 0 0.60015493631362915
vn 0.79988378286361694 0 0.60015493631362915
vn 0.60015493631362915 0 -0.79988378286361694
vn 0.60015493631362915 0 -0.79988378286361694
vn -0.52923882007598877 0 -0.84847289323806763
vn -0.52923882007598877 0 -0.84847289323806763
vn -0.84847289323806763 0 0.52923882007598877
vn -0.84847289323806763 0 0.52923882007598877
vn 0.45102468132972717 0 -0.89251148700714111
vn 0.45102468132972717 0 -0.89251148700714111
vn -0.89251148700714111 0 -0.45102468132972717
vn -0.89251148700714111 0 -0.45102468132972717
vn 0.9951513409614563 0 0.098355449736118317
vn 0.9951513409614563 0 0.098355449736118317
vn 0.99548119306564331 0 -0.094958700239658356
vn 0.99548119306564331 0 -0.094958700239658356
vn 0.96261602640151978 0 0.27086970210075378
vn 0.96261602640151978 0 0.27086970210075378
vn -0.098355449736118317 0 0.9951513409614563
vn -0.098355449736118317 0 0.9951513409614563
vn 0.96353483200073242 0 -0.26758298277854919
vn 0.96353483200073242 0 -0.26758298277854919
vn -0.094958700239658356 0 -0.99548119306564331
vn -0.094958700239658356 0 -0.99548119306564331
vn 0.27086970210075378 0 -0.96261602640151978
vn 0.27086970210075378 0 -0.96261602640151978
vn 0.26758298277854919 0 0.96353483200073242
vn 0.26758298277854919 0 0.96353483200073242
vn -0.60015493631362915 0 0.79988378286361694
vn -0.60015493631362915 0 0.79988378286361694
vn -0.79988378286361694 0 -0.60015493631362915
vn -0.79988378286361694 0 -0.60015493631362915
vn 0.098355449736118317 0 -0.9951513409614563
vn 0.098355449736118317 0 -0.9951513409614563
vn 0.094958700239658356 0 0.99548119306564331
vn 0.094958700239658356 0 0.99548119306564331
vn -0.9951513409614563 0 -0.098355449736118317
vn -0.9951513409614563 0 -0.098355449736118317
vn -0.99548119306564331 0 0.094958700239658356
vn -0.99548119306564331 0 0.094958700239658356
vn -0.27086970210075378 0 0.96261602640151978
vn -0.27086970210075378 0 0.96261602640151978
vn -0.26758298277854919 0 -0.96353483200073242
vn -0.26758298277854919 0 -0.96353483200073242
vn -0.96261602640151978 0 -0.27086970210075378
vn -0.96261602640151978 0 -0.27086970210075378
vn -0.96353483200073242 0 0.26758298277854919
vn -0.96353483200073242 0 0.26758298277854919
f 6//6 26//26 25//25 5//5
f 26//26 22//22 21//21 25//25
f 22//22 2//2 1//1 21//21
f 2//2 6//6 5//5 1//1
f 16//16 36//36 35//35 15//15
f 36//36 34//34 33//33 35//35
f 34//34 14//14 13//13 33//33
f 14//14 16//16 15//15 13//13
f 44//44 50//50 49//49 43//43
f 50//50 46//46 45//45 49//49
f 46//46 38//38 37//37 45//45
f 38//38 44//44 43//43 37//37
f 64//64 60//60 59//59 63//63
f 60//60 58//58 57//57 59//59
f 58//58 62//62 61//61 57//57
f 62//62 64//64 63//63 61//61
f 80//80 76//76 75//75 79//79
f 76//76 74//74 73//73 75//75
f 74//74 78//78 77//77 73//73
f 78//78 80//80 79//79 77//77
f 96//96 92//92 91//91 95//95
f 92//92 90//90 89//89 91//91
f 90//90 94//94 93//93 89//89
f 94//94 96//96 95//95 93//93
f 120//120 108//108 107//107 119//119
f 108//108 106//106 105//105 107//107
f 106//106 118//118 117//117 105//105
f 118//118 120//120 119//119 117//117
f 142//142 114//114 113//113 141//141
f 114//114 116//116 115//115 113//113
f 116//116 144//144 143//143 115//115
f 144//144 142//142 141//141 143//143
f 154//154 130//130 129//129 153//153
f 130//130 138//138 137//137 129//129
f 138//138 158//158 157//157 137//137
f 158//158 154//154 153//153 157//157
f 148//148 128//128 127//127 147//147
f 128//128 136//136 135//135 127//127
f 136//136 152//152 151//151 135//135
f 152//152 148//148 147//147 151//151
f 8//8 4//4 3//3 7//7
f 4//4 24//24 23//23 3//3
f 24//24 28//28 27//27 23//23
f 28//28 8//8 7//7 27//27
f 12//12 10//10 9//9 11//11
f 10//10 30//30 29//29 9//9
f 30//30 32//32 31//31 29//29
f 32//32 12//12 11//11 31//31
f 18//18 20//20 19//19 17//17
f 20//20 42//42 41//41 19//19
f 42//42 40//40 39//39 41//41
f 40//40 18//18 17//17 39//39
f 48//48 52//52 51//51 47//47
f 52//52 56//56 55//55 51//51
f 56//56 54//54 53//53 55//55
f 54//54 48//48 47//47 53//53
f 66//66 68//68 67//67 65//65
f 68//68 72//72 71//71 67//67
f 72//72 70//70 69//69 71//71
f 70//70 66//66 65//65 69//69
f 82//82 84//84 83//83 81//81
f 84//84 88//88 87//87 83//83
f 88//88 86//86 85//85 87//87
f 86//86 82//82 81//81 85//85
f 98//98 102//102 101//101 97//97
f 102//102 104//104 103//103 101//101
f 104//104 100//100 99//99 103//103
f 100//100 98//98 97//97 99//99
f 122//122 124//124 123//123 121//121
f 124//124 112//112 111//111 123//123
f 112//112 110//110 109//109 111//111
f 110//110 122//122 121//121 109//109
f 146//146 150//150 149//149 145//145
f 150//150 132//132 131//131 149//149
f 132//132 126//126 125//125 131//131
f 126//126 146//146 145//145 125//125
f 156//156 160//160 159//159 155//155
f 160//160 140//140 139//139 159//159
f 140//140 134//134 133//133 139//139
f 134//134 156//156 155//155 133//133
