# Rhino

mtllib Pannelli78.mtl
usemtl diffuse_Black
v 1.4323625057452134 3 -0.19598536011237713
v 1.4323625057452134 0 -0.1959853601123771
v 1.4323625057452134 3 0.19598536011237747
v 1.4323625057452134 0 0.19598536011237747
v 1.4212831964229873 3 -0.21263615303471098
v 1.4212831964229873 0 -0.2126361530347109
v 1.4212831964229873 3 0.21263615303471112
v 1.4212831964229873 0 0.21263615303471112
v 1.420323320536341 3 -0.26973000275035552
v 1.420323320536341 0 -0.26973000275035552
v 1.4151147706826972 3 -0.25042013458865875
v 1.4151147706826972 0 -0.25042013458865875
v 1.2956633855440822 3 -0.64134935924465653
v 1.2956633855440822 0 -0.64134935924465653
v 1.2798638060233372 3 -0.65361203786589051
v 1.2798638060233372 0 -0.65361203786589039
v 1.261999065808971 3 -0.68747248374682579
v 1.261999065808971 0 -0.68747248374682579
v 1.2607959938943234 3 -0.70743626640363177
v 1.2607959938943234 0 -0.70743626640363177
v 1.1720165345724038 3 -0.022753156764874251
v 1.1720165345724038 0 -0.022753156764874338
v 1.1720165345724041 3 0.022753156764874612
v 1.1720165345724041 0 0.022753156764874612
v 1.1609372252501777 3 -0.039403949687208104
v 1.1609372252501777 0 -0.039403949687208124
v 1.160937225250178 3 0.039403949687208284
v 1.160937225250178 0 0.039403949687208284
v 1.1184009794667573 3 -0.35116906552495819
v 1.1184009794667573 0 -0.35116906552495819
v 1.1131924296131133 3 -0.33185919736326142
v 1.1131924296131133 0 -0.33185919736326142
v 1.1039284339585032 3 -0.39431266293615364
v 1.1039284339585032 0 -0.39431266293615364
v 1.0881288544377581 3 -0.40657534155738756
v 1.0881288544377581 0 -0.40657534155738756
v 1.0244209667194284 3 -1.020114842647001
v 1.0244209667194284 0 -1.020114842647001
v 1.005541765002804 3 -1.0267160351561624
v 1.005541765002804 0 -1.0267160351561624
v 0.97783580717386231 3 -1.053136834518851
v 0.97783580717386231 0 -1.053136834518851
v 0.97034604197596341 3 -1.071681467631435
v 0.97034604197596341 0 -1.071681467631435
v 0.94985234653185813 3 -0.66866167230555196
v 0.94985234653185813 0 -0.66866167230555196
v 0.94864927461721049 3 -0.68862545496235805
v 0.94864927461721049 0 -0.68862545496235805
v 0.92120703073976984 3 -0.72492625140043754
v 0.92120703073976995 0 -0.72492625140043754
v 0.90232782902314546 3 -0.7315274439095989
v 0.90232782902314546 0 -0.7315274439095989
v 0.68787841353747559 3 -0.93602948693494703
v 0.68787841353747559 0 -0.93602948693494703
v 0.68038864833957668 3 -0.95457412004753095
v 0.68038864833957668 0 -0.95457412004753095
v 0.64680139964831762 3 -1.2929503310862569
v 0.64680139964831762 0 -1.2929503310862569
v 0.64282634285362084 3 -0.98026259562798423
v 0.64282634285362084 0 -0.98026259562798423
v 0.62680301554037499 3 -1.2932045614369123
v 0.62680301554037499 0 -1.2932045614369123
v 0.6228279587456782 3 -0.98051682597863965
v 0.6228279587456782 0 -0.98051682597863965
v 0.59213286124248876 3 -1.3094421455904526
v 0.59213286124248876 0 -1.3094421455904526
v 0.57913414930174711 3 -1.324641931374523
v 0.57913414930174711 0 -1.324641931374523
v 0.3544743299022432 3 -1.1061988345966063
v 0.3544743299022432 0 -1.1061988345966063
v 0.34147561796150155 3 -1.1213986203806765
v 0.34147561796150155 0 -1.1213986203806765
v 0.29769376742123016 3 -1.1338072518256479
v 0.29769376742123016 0 -1.1338072518256479
v 0.27865285801905404 3 -1.1276881204217535
v 0.27865285801905398 0 -1.1276881204217535
v 0.20201717018578438 3 -1.4315242478537387
v 0.20201717018578438 0 -1.4315242478537387
v 0.18297626078360824 3 -1.4254051164498442
v 0.18297626078360826 0 -1.4254051164498442
v 0.1449421019918446 3 -1.4297733544453579
v 0.1449421019918446 0 -1.4297733544453579
v 0.12778424573524627 3 -1.4400499282264345
v 0.12778424573524627 0 -1.4400499282264345
v -0.015738809352310548 3 -1.1614991184252814
v -0.015738809352310548 0 -1.1614991184252814
v -0.032896665608908901 3 -1.171775692206358
v -0.032896665608908901 0 -1.171775692206358
v -0.078351699349597806 3 -1.169615951781996
v -0.078351699349597848 0 -1.169615951781996
v -0.094457902314106168 3 -1.1577588768448088
v -0.094457902314106168 0 -1.1577588768448088
v -0.26374477367281568 3 -1.421446904954019
v -0.26374477367281568 0 -1.421446904954019
v -0.27985097663732406 3 -1.4095898300168319
v -0.279850976637324 0 -1.4095898300168319
v -0.31729962553419055 3 -1.4016351185838658
v -0.31729962553419055 0 -1.4016351185838658
v -0.33683493295715394 3 -1.4059213481496162
v -0.33683493295715394 0 -1.4059213481496162
v -0.38431761105415385 3 -1.0961878881178002
v -0.38431761105415385 0 -1.0961878881178002
v -0.4038529184771173 3 -1.1004741176835506
v -0.4038529184771173 0 -1.1004741176835506
v -0.44626102813823931 3 -1.0839702755236766
v -0.44626102813823937 0 -1.0839702755236766
v -0.45776003650239644 3 -1.0676065104727765
v -0.45776003650239644 0 -1.0676065104727765
v -0.70211913195898434 3 -1.2637647462167343
v -0.70211913195898434 0 -1.2637647462167343
v -0.71298839367693334 3 -0.91704714311998214
v -0.71298839367693334 0 -0.91704714311998214
v -0.71361814032314153 3 -1.2474009811658342
v -0.71361814032314141 0 -1.2474009811658342
v -0.73287258162852142 3 -0.9148979410573731
v -0.73287258162852142 0 -0.9148979410573731
v -0.74659256501258664 3 -1.2279493474405496
v -0.74659256501258664 0 -1.2279493474405496
v -0.76647675296417472 3 -1.2258001453779406
v -0.76647675296417472 0 -1.2258001453779406
v -0.76783005631891843 3 -0.88576377667364559
v -0.76783005631891843 0 -0.88576377667364559
v -0.77352779874176125 3 -0.8665925552393462
v -0.77352779874176125 0 -0.8665925552393462
v -0.96762157406763416 3 -0.64267908136285901
v -0.96762157406763416 0 -0.64267908136285901
v -0.98578984372177425 3 -0.63431762348911147
v -0.98578984372177425 0 -0.63431762348911147
v -1.0089714715757552 3 -0.57559055045126417
v -1.0089714715757552 0 -0.57559055045126417
v -1.0096666557592027 3 -0.59557846477345122
v -1.0096666557592027 0 -0.59557846477345122
v -1.0675845656784704 3 -0.97485168326684224
v -1.0675845656784704 0 -0.97485168326684224
v -1.0732823081013132 3 -0.95568046183254285
v -1.0732823081013132 0 -0.95568046183254285
v -1.0983584032814286 3 -0.92675178767176691
v -1.0983584032814286 0 -0.92675178767176691
v -1.1165266729355685 3 -0.91839032979801916
v -1.1165266729355685 0 -0.91839032979801916
v -1.1217757258411332 3 -0.30157442387598649
v -1.1217757258411332 0 -0.30157442387598649
v -1.1363414614635055 3 -0.28786897438393549
v -1.1363414614635055 0 -0.28786897438393549
v -1.1396422909684778 3 -0.22481850648612994
v -1.1396422909684778 0 -0.22481850648612994
v -1.1466582129673344 3 -0.24354754379470425
v -1.1466582129673344 0 -0.24354754379470425
v -1.3214955051278654 3 -0.56472089383924207
v -1.3214955051278654 0 -0.56472089383924207
v -1.3221906893113129 3 -0.58470880816142912
v -1.3221906893113129 0 -0.58470880816142912
v -1.3360693378637754 3 -0.52931916877437746
v -1.3360693378637754 0 -0.52931916877437746
v -1.3506350734861474 3 -0.51561371928232647
v -1.3506350734861474 0 -0.51561371928232647
v -1.4324829640809453 3 -0.11512000534057731
v -1.4324829640809453 0 -0.11512000534057731
v -1.4394988860798019 3 -0.13384904264915159
v -1.4394988860798019 0 -0.13384904264915162
vn 0.98040717840194702 0 0.19698168337345123
vn 0.98040717840194702 0 0.19698168337345123
vn 0.98040717840194702 0 -0.19698168337345123
vn 0.98040717840194702 0 -0.19698168337345123
vn 0.19698168337345123 0 -0.98040717840194702
vn 0.19698168337345123 0 -0.98040717840194702
vn 0.19698168337345123 0 0.98040717840194702
vn 0.19698168337345123 0 0.98040717840194702
vn 0.86685699224472046 0 -0.49855685234069824
vn 0.86685699224472046 0 -0.49855685234069824
vn 0.49855685234069824 0 0.86685699224472046
vn 0.49855685234069824 0 0.86685699224472046
vn 0.99215066432952881 0 -0.12504835426807404
vn 0.99215066432952881 0 -0.12504835426807404
vn -0.12504835426807404 0 -0.99215066432952881
vn -0.12504835426807404 0 -0.99215066432952881
vn 0.74836128950119019 0 0.66329127550125122
vn 0.74836128950119019 0 0.66329127550125122
vn 0.66329127550125122 0 -0.74836128950119019
vn 0.66329127550125122 0 -0.74836128950119019
vn -0.19698168337345123 0 0.98040717840194702
vn -0.19698168337345123 0 0.98040717840194702
vn -0.19698168337345123 0 -0.98040717840194702
vn -0.19698168337345123 0 -0.98040717840194702
vn -0.98040717840194702 0 -0.19698168337345123
vn -0.98040717840194702 0 -0.19698168337345123
vn -0.98040717840194702 0 0.19698168337345123
vn -0.98040717840194702 0 0.19698168337345123
vn -0.49855685234069824 0 -0.86685699224472046
vn -0.49855685234069824 0 -0.86685699224472046
vn -0.86685699224472046 0 0.49855685234069824
vn -0.86685699224472046 0 0.49855685234069824
vn 0.12504835426807404 0 0.99215066432952881
vn 0.12504835426807404 0 0.99215066432952881
vn -0.99215066432952881 0 0.12504835426807404
vn -0.99215066432952881 0 0.12504835426807404
vn 0.9008679986000061 0 -0.43409314751625061
vn 0.9008679986000061 0 -0.43409314751625061
vn -0.43409314751625061 0 -0.9008679986000061
vn -0.43409314751625061 0 -0.9008679986000061
vn 0.92045497894287109 0 0.39084863662719727
vn 0.92045497894287109 0 0.39084863662719727
vn 0.39084863662719727 0 -0.92045497894287109
vn 0.39084863662719727 0 -0.92045497894287109
vn -0.66329127550125122 0 0.74836128950119019
vn -0.66329127550125122 0 0.74836128950119019
vn -0.74836128950119019 0 -0.66329127550125122
vn -0.74836128950119019 0 -0.66329127550125122
vn 0.43409314751625061 0 0.9008679986000061
vn 0.43409314751625061 0 0.9008679986000061
vn -0.9008679986000061 0 0.43409314751625061
vn -0.9008679986000061 0 0.43409314751625061
vn -0.39084863662719727 0 0.92045497894287109
vn -0.39084863662719727 0 0.92045497894287109
vn -0.92045497894287109 0 -0.39084863662719727
vn -0.92045497894287109 0 -0.39084863662719727
vn 0.7160380482673645 0 -0.69806122779846191
vn 0.7160380482673645 0 -0.69806122779846191
vn 0.69806122779846191 0 0.7160380482673645
vn 0.69806122779846191 0 0.7160380482673645
vn -0.69806122779846191 0 -0.7160380482673645
vn -0.69806122779846191 0 -0.7160380482673645
vn -0.7160380482673645 0 0.69806122779846191
vn -0.7160380482673645 0 0.69806122779846191
vn 0.99696743488311768 0 0.077819690108299255
vn 0.99696743488311768 0 0.077819690108299255
vn 0.077819690108299255 0 -0.99696743488311768
vn 0.077819690108299255 0 -0.99696743488311768
vn -0.077819690108299255 0 0.99696743488311768
vn -0.077819690108299255 0 0.99696743488311768
vn -0.99696743488311768 0 -0.077819690108299255
vn -0.99696743488311768 0 -0.077819690108299255
vn 0.88954180479049683 0 0.45685380697250366
vn 0.88954180479049683 0 0.45685380697250366
vn -0.45685380697250366 0 0.88954180479049683
vn -0.45685380697250366 0 0.88954180479049683
vn 0.45685380697250366 0 -0.88954180479049683
vn 0.45685380697250366 0 -0.88954180479049683
vn -0.88954180479049683 0 -0.45685380697250366
vn -0.88954180479049683 0 -0.45685380697250366
vn 0.96995359659194946 0 -0.24329006671905518
vn 0.96995359659194946 0 -0.24329006671905518
vn -0.24329006671905518 0 -0.96995359659194946
vn -0.24329006671905518 0 -0.96995359659194946
vn 0.24329006671905518 0 0.96995359659194946
vn 0.24329006671905518 0 0.96995359659194946
vn -0.96995359659194946 0 0.24329006671905518
vn -0.96995359659194946 0 0.24329006671905518
vn 0.98865115642547607 0 0.15022937953472137
vn 0.98865115642547607 0 0.15022937953472137
vn -0.15022937953472137 0 0.98865115642547607
vn -0.15022937953472137 0 0.98865115642547607
vn 0.15022937953472137 0 -0.98865115642547607
vn 0.15022937953472137 0 -0.98865115642547607
vn -0.98865115642547607 0 -0.15022937953472137
vn -0.98865115642547607 0 -0.15022937953472137
vn 0.84221851825714111 0 -0.53913629055023193
vn 0.84221851825714111 0 -0.53913629055023193
vn -0.53913629055023193 0 -0.84221851825714111
vn -0.53913629055023193 0 -0.84221851825714111
vn 0.53913629055023193 0 0.84221851825714111
vn 0.53913629055023193 0 0.84221851825714111
vn -0.84221851825714111 0 0.53913629055023193
vn -0.84221851825714111 0 0.53913629055023193
vn 0.98509782552719116 0 -0.1719951331615448
vn 0.98509782552719116 0 -0.1719951331615448
vn 0.1719951331615448 0 0.98509782552719116
vn 0.1719951331615448 0 0.98509782552719116
vn -0.1719951331615448 0 -0.98509782552719116
vn -0.1719951331615448 0 -0.98509782552719116
vn 0.77899795770645142 0 0.62702643871307373
vn 0.77899795770645142 0 0.62702643871307373
vn -0.98509782552719116 0 0.1719951331615448
vn -0.98509782552719116 0 0.1719951331615448
vn -0.62702643871307373 0 0.77899795770645142
vn -0.62702643871307373 0 0.77899795770645142
vn 0.62702643871307373 0 -0.77899795770645142
vn 0.62702643871307373 0 -0.77899795770645142
vn -0.77899795770645142 0 -0.62702643871307373
vn -0.77899795770645142 0 -0.62702643871307373
vn 0.87925064563751221 0 -0.47635939717292786
vn 0.87925064563751221 0 -0.47635939717292786
vn 0.47635939717292786 0 0.87925064563751221
vn 0.47635939717292786 0 0.87925064563751221
vn 0.93796753883361816 0 0.34672316908836365
vn 0.93796753883361816 0 0.34672316908836365
vn -0.34672316908836365 0 0.93796753883361816
vn -0.34672316908836365 0 0.93796753883361816
vn 0.73125797510147095 0 0.68210101127624512
vn 0.73125797510147095 0 0.68210101127624512
vn 0.68210101127624512 0 -0.73125797510147095
vn 0.68210101127624512 0 -0.73125797510147095
vn -0.47635939717292786 0 -0.87925064563751221
vn -0.47635939717292786 0 -0.87925064563751221
vn -0.87925064563751221 0 0.47635939717292786
vn -0.87925064563751221 0 0.47635939717292786
vn 0.34672316908836365 0 -0.93796753883361816
vn 0.34672316908836365 0 -0.93796753883361816
vn -0.93796753883361816 0 -0.34672316908836365
vn -0.93796753883361816 0 -0.34672316908836365
vn 0.99953734874725342 0 0.030415738001465797
vn 0.99953734874725342 0 0.030415738001465797
vn -0.030415738001465797 0 0.99953734874725342
vn -0.030415738001465797 0 0.99953734874725342
vn 0.91022175550460815 0 0.41412118077278137
vn 0.91022175550460815 0 0.41412118077278137
vn 0.41412118077278137 0 -0.91022175550460815
vn 0.41412118077278137 0 -0.91022175550460815
vn -0.68210101127624512 0 0.73125797510147095
vn -0.68210101127624512 0 0.73125797510147095
vn -0.73125797510147095 0 -0.68210101127624512
vn -0.73125797510147095 0 -0.68210101127624512
vn 0.030415738001465797 0 -0.99953734874725342
vn 0.030415738001465797 0 -0.99953734874725342
vn -0.99953734874725342 0 -0.030415738001465797
vn -0.99953734874725342 0 -0.030415738001465797
vn -0.41412118077278137 0 0.91022175550460815
vn -0.41412118077278137 0 0.91022175550460815
vn -0.91022175550460815 0 -0.41412118077278137
vn -0.91022175550460815 0 -0.41412118077278137
f 6//6 26//26 25//25 5//5
f 26//26 22//22 21//21 25//25
f 22//22 2//2 1//1 21//21
f 2//2 6//6 5//5 1//1
f 16//16 36//36 35//35 15//15
f 36//36 34//34 33//33 35//35
f 34//34 14//14 13//13 33//33
f 14//14 16//16 15//15 13//13
f 40//40 52//52 51//51 39//39
f 52//52 50//50 49//49 51//51
f 50//50 38//38 37//37 49//49
f 38//38 40//40 39//39 37//37
f 62//62 64//64 63//63 61//61
f 64//64 60//60 59//59 63//63
f 60//60 58//58 57//57 59//59
f 58//58 62//62 61//61 57//57
f 80//80 76//76 75//75 79//79
f 76//76 74//74 73//73 75//75
f 74//74 78//78 77//77 73//73
f 78//78 80//80 79//79 77//77
f 96//96 92//92 91//91 95//95
f 92//92 90//90 89//89 91//91
f 90//90 94//94 93//93 89//89
f 94//94 96//96 95//95 93//93
f 114//114 108//108 107//107 113//113
f 108//108 106//106 105//105 107//107
f 106//106 110//110 109//109 105//105
f 110//110 114//114 113//113 109//109
f 136//136 124//124 123//123 135//135
f 124//124 122//122 121//121 123//123
f 122//122 134//134 133//133 121//121
f 134//134 136//136 135//135 133//133
f 150//150 130//130 129//129 149//149
f 130//130 132//132 131//131 129//129
f 132//132 152//152 151//151 131//131
f 152//152 150//150 149//149 151//151
f 158//158 146//146 145//145 157//157
f 146//146 148//148 147//147 145//145
f 148//148 160//160 159//159 147//147
f 160//160 158//158 157//157 159//159
f 8//8 4//4 3//3 7//7
f 4//4 24//24 23//23 3//3
f 24//24 28//28 27//27 23//23
f 28//28 8//8 7//7 27//27
f 12//12 10//10 9//9 11//11
f 10//10 30//30 29//29 9//9
f 30//30 32//32 31//31 29//29
f 32//32 12//12 11//11 31//31
f 18//18 20//20 19//19 17//17
f 20//20 48//48 47//47 19//19
f 48//48 46//46 45//45 47//47
f 46//46 18//18 17//17 45//45
f 42//42 44//44 43//43 41//41
f 44//44 56//56 55//55 43//43
f 56//56 54//54 53//53 55//55
f 54//54 42//42 41//41 53//53
f 66//66 68//68 67//67 65//65
f 68//68 72//72 71//71 67//67
f 72//72 70//70 69//69 71//71
f 70//70 66//66 65//65 69//69
f 82//82 84//84 83//83 81//81
f 84//84 88//88 87//87 83//83
f 88//88 86//86 85//85 87//87
f 86//86 82//82 81//81 85//85
f 98//98 100//100 99//99 97//97
f 100//100 104//104 103//103 99//99
f 104//104 102//102 101//101 103//103
f 102//102 98//98 97//97 101//101
f 118//118 120//120 119//119 117//117
f 120//120 116//116 115//115 119//119
f 116//116 112//112 111//111 115//115
f 112//112 118//118 117//117 111//111
f 138//138 140//140 139//139 137//137
f 140//140 128//128 127//127 139//139
f 128//128 126//126 125//125 127//127
f 126//126 138//138 137//137 125//125
f 154//154 156//156 155//155 153//153
f 156//156 144//144 143//143 155//155
f 144//144 142//142 141//141 143//143
f 142//142 154//154 153//153 141//141
