# Rhino

mtllib Pannelli144.mtl
usemtl diffuse_Black
v 1.2729219240040872 3 -0.31382107343512161
v 1.2729219240040872 0 -0.31382107343512161
v 1.2729219240040865 3 0.31382107343512511
v 1.2729219240040865 0 0.31382107343512511
v 1.2542418545237242 3 -0.32096635189077466
v 1.2542418545237242 0 -0.32096635189077466
v 1.2542418545237237 3 0.32096635189077799
v 1.2542418545237237 0 0.32096635189077799
v 1.2502023742896373 3 -0.39472511202454946
v 1.2502023742896373 0 -0.39472511202454946
v 1.237972929694223 3 -0.37889979417978903
v 1.237972929694223 0 -0.37889979417978903
v 1.1663114001523627 3 -0.035106674094597792
v 1.1663114001523627 0 -0.035106674094597827
v 1.1663114001523629 3 0.03510667409460095
v 1.1663114001523629 0 0.03510667409460095
v 1.1476313306719996 3 -0.042251952550250806
v 1.1476313306719996 0 -0.042251952550250826
v 1.1476313306720001 3 0.042251952550253824
v 1.1476313306720001 0 0.042251952550253824
v 1.0140820556734769 3 -0.57719350745863818
v 1.0140820556734769 0 -0.57719350745863818
v 1.0018526110780628 3 -0.56136818961387769
v 1.0018526110780628 0 -0.56136818961387769
v 0.97752982040781555 3 -0.6371422218820636
v 0.97752982040781555 0 -0.6371422218820636
v 0.95786088158842797 3 -0.63351829504516521
v 0.95786088158842797 0 -0.63351829504516521
v 0.92345932604151137 3 -0.93061096269558097
v 0.92345932604151137 0 -0.93061096269558097
v 0.90379038722212379 3 -0.92698703585868258
v 0.90379038722212379 0 -0.92698703585868258
v 0.86194351228933808 3 -0.98785994572335989
v 0.86194351228933808 0 -0.98785994572335989
v 0.85974038788947016 3 -0.96798166001058505
v 0.85974038788947016 0 -0.96798166001058505
v 0.58170684186332666 3 1.1566153979670935
v 0.58170684186332666 0 1.1566153979670935
v 0.57872066718897941 3 1.1763912104867926
v 0.57872066718897941 0 1.1763912104867926
v 0.56535122883024369 3 -1.0207314773002167
v 0.56535122883024369 0 -1.0207314773002167
v 0.56314810443037577 3 -1.0008531915874421
v 0.56314810443037577 0 -1.0008531915874421
v 0.50293405118549261 3 -1.0528875062652692
v 0.50293405118549261 0 -1.0528875062652692
v 0.48802712825757477 3 -1.039553952769628
v 0.48802712825757477 0 -1.039553952769628
v 0.30399189213629874 3 -1.2753049910737555
v 0.30399189213629874 0 -1.2753049910737555
v 0.28908496920838089 3 -1.2619714375781144
v 0.28908496920838089 0 -1.2619714375781144
v 0.28664350102870312 3 1.1120604308904716
v 0.28664350102870312 0 1.1120604308904716
v 0.28365732635435587 3 1.1318362434101708
v 0.28365732635435587 0 1.1318362434101708
v 0.23013341535540893 3 -1.2740410667721975
v 0.23013341535540893 0 -1.2740410667721975
v 0.22166606098623115 3 -1.2921602254167586
v 0.22166606098623115 0 -1.2921602254167586
v 0.21506755626502222 3 1.1468481621093272
v 0.21506755626502222 0 1.1468481621093272
v 0.20409362166849748 3 1.1301277327048171
v 0.20409362166849748 0 1.1301277327048171
v -0.034408198795342793 3 1.3105838266199914
v -0.034408198795342793 0 1.3105838266199914
v -0.040211961222728139 3 -1.147704620888544
v -0.040211961222728139 0 -1.147704620888544
v -0.045382133391867585 3 1.2938633972154818
v -0.045382133391867585 0 1.2938633972154818
v -0.048679315591905935 3 -1.1658237795331048
v -0.048679315591905935 0 -1.1658237795331048
v -0.10545431870604342 3 1.2903570883098319
v -0.10545431870604335 0 1.2903570883098319
v -0.1182989915185458 3 1.3056872670543791
v -0.11829899151854578 0 1.3056872670543791
v -0.11871164449368884 3 -1.1607852110330115
v -0.11871164449368884 0 -1.1607852110330115
v -0.12449800409219475 3 -1.1416405500906812
v -0.12449800409219475 0 -1.1416405500906812
v -0.33418695618691524 3 1.0987092322124259
v -0.33418695618691524 0 1.0987092322124259
v -0.34703162899941759 3 1.1140394109569731
v -0.3470316289994177 0 1.1140394109569731
v -0.40435794151248772 3 -1.2471201008235022
v -0.40435794151248772 0 -1.2471201008235022
v -0.41014430111099365 3 -1.227975439881172
v -0.41014430111099365 0 -1.227975439881172
v -0.41340914614866198 3 1.0911496866021562
v -0.41340914614866198 0 1.0911496866021562
v -0.41407432169001401 3 1.0711607511252685
v -0.41407432169001401 0 1.0711607511252685
v -0.46676091170060169 3 -1.2075911062912015
v -0.46676091170060169 0 -1.2075911062912015
v -0.48342302494207762 3 -1.2186533837388265
v -0.48342302494207762 0 -1.2186533837388265
v -0.63181468826145482 3 -0.95898545261717871
v -0.63181468826145482 0 -0.95898545261717871
v -0.64847680150293074 3 -0.97004773006480371
v -0.64847680150293074 0 -0.97004773006480371
v -0.70062189794433327 3 -0.90992958780071198
v -0.70062189794433327 0 -0.90992958780071198
v -0.70564794129398767 3 -0.92928776148128933
v -0.70564794129398767 0 -0.92928776148128933
v -0.71165237006996229 3 1.1010743820996134
v -0.71165237006996229 0 1.1010743820996134
v -0.71231754561131433 3 1.0810854466227255
v -0.71231754561131433 0 1.0810854466227255
v -0.76178231183779521 3 1.0468188659248778
v -0.76178231183779521 0 1.0468188659248778
v -0.78072990452130486 3 1.0532211101798108
v -0.78072990452130486 0 1.0532211101798108
v -0.85730645663933203 3 0.76411290922140984
v -0.85730645663933203 0 0.76411290922140984
v -0.87625404932284168 3 0.77051515347634281
v -0.87625404932284168 0 0.77051515347634281
v -0.91117351178223882 3 0.69900338344010671
v -0.91117351178223882 0 0.69900338344010671
v -0.92101158205671163 3 0.71641637782000966
v -0.92101158205671163 0 0.71641637782000966
v -0.98945389374517789 3 -0.83493893240026218
v -0.98945389374517789 0 -0.83493893240026218
v -0.99447993709483229 3 -0.85429710608083953
v -0.99447993709483229 0 -0.85429710608083953
v -1.0271817636027201 3 -0.78806069132217893
v -1.0271817636027201 0 -0.78806069132217893
v -1.0386848380880978 3 -0.48987417339577771
v -1.0386848380880978 0 -0.48987417339577771
v -1.047166898515564 3 -0.78883165339350736
v -1.047166898515564 0 -0.78883165339350736
v -1.0586699730009419 3 -0.49064513546710625
v -1.0586699730009419 0 -0.49064513546710625
v -1.0718950796127769 3 -0.4121696700828581
v -1.0718950796127769 0 -0.4121696700828581
v -1.0862639906838685 3 -0.42608133406065279
v -1.0862639906838685 0 -0.42608133406065274
v -1.1297631691921319 3 0.20610211103053677
v -1.1297631691921319 0 0.20610211103053677
v -1.1418600428365919 3 0.12246853149895714
v -1.1418600428365919 0 0.12246853149895714
v -1.1492737066662639 3 0.20170450628812303
v -1.1492737066662639 0 0.20170450628812303
v -1.1593248634759878 3 0.13221430186531252
v -1.1593248634759878 0 0.13221430186531252
v -1.1709826240779138 3 0.55221528663446817
v -1.1709826240779138 0 0.55221528663446817
v -1.1808206943523867 3 0.56962828101437124
v -1.1808206943523867 0 0.56962828101437124
v -1.1953772594184744 3 0.49720743794754357
v -1.1953772594184744 0 0.49720743794754357
v -1.2148877968926064 3 0.49280983320512983
v -1.2148877968926064 0 0.49280983320512983
v -1.2794628872954119 3 -0.19777954575453766
v -1.2794628872954119 0 -0.19777954575453766
v -1.2872709866569492 3 -0.13811385012528279
v -1.2872709866569492 0 -0.13811385012528279
v -1.2938317983665035 3 -0.21169120973233232
v -1.2938317983665035 0 -0.2116912097323323
v -1.3047358072963451 3 -0.12836807975892742
v -1.3047358072963451 0 -0.12836807975892742
vn 0.91306394338607788 0 -0.40781643986701965
vn 0.91306394338607788 0 -0.40781643986701965
vn 0.91306394338607788 0 0.40781643986701965
vn 0.91306394338607788 0 0.40781643986701965
vn -0.40781643986701965 0 -0.91306394338607788
vn -0.40781643986701965 0 -0.91306394338607788
vn -0.40781643986701965 0 0.91306394338607788
vn -0.40781643986701965 0 0.91306394338607788
vn 0.99188566207885742 0 -0.12713330984115601
vn 0.99188566207885742 0 -0.12713330984115601
vn 0.12713330984115601 0 0.99188566207885742
vn 0.12713330984115601 0 0.99188566207885742
vn 0.40781643986701965 0 0.91306394338607788
vn 0.40781643986701965 0 0.91306394338607788
vn 0.40781643986701965 0 -0.91306394338607788
vn 0.40781643986701965 0 -0.91306394338607788
vn -0.91306394338607788 0 0.40781643986701965
vn -0.91306394338607788 0 0.40781643986701965
vn -0.91306394338607788 0 -0.40781643986701965
vn -0.91306394338607788 0 -0.40781643986701965
vn -0.12713330984115601 0 -0.99188566207885742
vn -0.12713330984115601 0 -0.99188566207885742
vn -0.99188566207885742 0 0.12713330984115601
vn -0.99188566207885742 0 0.12713330984115601
vn 0.82352715730667114 0 0.56727683544158936
vn 0.82352715730667114 0 0.56727683544158936
vn -0.56727683544158936 0 0.82352715730667114
vn -0.56727683544158936 0 0.82352715730667114
vn 0.56727683544158936 0 -0.82352715730667114
vn 0.56727683544158936 0 -0.82352715730667114
vn -0.82352715730667114 0 -0.56727683544158936
vn -0.82352715730667114 0 -0.56727683544158936
vn 0.78069573640823364 0 -0.62491130828857422
vn 0.78069573640823364 0 -0.62491130828857422
vn 0.62491130828857422 0 0.78069573640823364
vn 0.62491130828857422 0 0.78069573640823364
vn 0.80475777387619019 0 -0.59360331296920776
vn 0.80475777387619019 0 -0.59360331296920776
vn 0.59360331296920776 0 0.80475777387619019
vn 0.59360331296920776 0 0.80475777387619019
vn -0.62491130828857422 0 -0.78069573640823364
vn -0.62491130828857422 0 -0.78069573640823364
vn -0.78069573640823364 0 0.62491130828857422
vn -0.78069573640823364 0 0.62491130828857422
vn 0.9984515905380249 0 0.055627014487981796
vn 0.9984515905380249 0 0.055627014487981796
vn -0.055627014487981796 0 0.9984515905380249
vn -0.055627014487981796 0 0.9984515905380249
vn 0.055627014487981796 0 -0.9984515905380249
vn 0.055627014487981796 0 -0.9984515905380249
vn -0.9984515905380249 0 -0.055627014487981796
vn -0.9984515905380249 0 -0.055627014487981796
vn -0.59360331296920776 0 -0.80475777387619019
vn -0.59360331296920776 0 -0.80475777387619019
vn -0.80475777387619019 0 0.59360331296920776
vn -0.80475777387619019 0 0.59360331296920776
vn 0.93997520208358765 0 0.34124282002449036
vn 0.93997520208358765 0 0.34124282002449036
vn 0.34124282002449036 0 -0.93997520208358765
vn 0.34124282002449036 0 -0.93997520208358765
vn 0.97914361953735352 0 0.20316927134990692
vn 0.97914361953735352 0 0.20316927134990692
vn 0.20316927134990692 0 -0.97914361953735352
vn 0.20316927134990692 0 -0.97914361953735352
vn -0.20316927134990692 0 0.97914361953735352
vn -0.20316927134990692 0 0.97914361953735352
vn -0.34124282002449036 0 0.93997520208358765
vn -0.34124282002449036 0 0.93997520208358765
vn -0.97914361953735352 0 -0.20316927134990692
vn -0.97914361953735352 0 -0.20316927134990692
vn -0.93997520208358765 0 -0.34124282002449036
vn -0.93997520208358765 0 -0.34124282002449036
vn 0.99613142013549805 0 -0.087875880300998688
vn 0.99613142013549805 0 -0.087875880300998688
vn 0.087875880300998688 0 0.99613142013549805
vn 0.087875880300998688 0 0.99613142013549805
vn 0.88144469261169434 0 -0.47228729724884033
vn 0.88144469261169434 0 -0.47228729724884033
vn 0.47228729724884033 0 0.88144469261169434
vn 0.47228729724884033 0 0.88144469261169434
vn -0.087875880300998688 0 -0.99613142013549805
vn -0.087875880300998688 0 -0.99613142013549805
vn -0.99613142013549805 0 0.087875880300998688
vn -0.99613142013549805 0 0.087875880300998688
vn -0.47228729724884033 0 -0.88144469261169434
vn -0.47228729724884033 0 -0.88144469261169434
vn -0.88144469261169434 0 0.47228729724884033
vn -0.88144469261169434 0 0.47228729724884033
vn 0.73023313283920288 0 0.68319809436798096
vn 0.73023313283920288 0 0.68319809436798096
vn 0.68319809436798096 0 -0.73023313283920288
vn 0.68319809436798096 0 -0.73023313283920288
vn 0.980205237865448 0 -0.19798411428928375
vn 0.980205237865448 0 -0.19798411428928375
vn -0.19798411428928375 0 -0.980205237865448
vn -0.19798411428928375 0 -0.980205237865448
vn 0.19798411428928375 0 0.980205237865448
vn 0.19798411428928375 0 0.980205237865448
vn -0.980205237865448 0 0.19798411428928375
vn -0.980205237865448 0 0.19798411428928375
vn 0.86211228370666504 0 0.50671732425689697
vn 0.86211228370666504 0 0.50671732425689697
vn 0.50671732425689697 0 -0.86211228370666504
vn 0.50671732425689697 0 -0.86211228370666504
vn -0.68319809436798096 0 0.73023313283920288
vn -0.68319809436798096 0 0.73023313283920288
vn -0.73023313283920288 0 -0.68319809436798096
vn -0.73023313283920288 0 -0.68319809436798096
vn 0.89625203609466553 0 0.44354510307312012
vn 0.89625203609466553 0 0.44354510307312012
vn -0.44354510307312012 0 0.89625203609466553
vn -0.44354510307312012 0 0.89625203609466553
vn 0.44354510307312012 0 -0.89625203609466553
vn 0.44354510307312012 0 -0.89625203609466553
vn -0.89625203609466553 0 -0.44354510307312012
vn -0.89625203609466553 0 -0.44354510307312012
vn 0.96347063779830933 0 -0.26781398057937622
vn 0.96347063779830933 0 -0.26781398057937622
vn 0.26781398057937622 0 0.96347063779830933
vn 0.26781398057937622 0 0.96347063779830933
vn -0.50671732425689697 0 0.86211228370666504
vn -0.50671732425689697 0 0.86211228370666504
vn -0.86211228370666504 0 -0.50671732425689697
vn -0.86211228370666504 0 -0.50671732425689697
vn 0.73383885622024536 0 -0.67932361364364624
vn 0.73383885622024536 0 -0.67932361364364624
vn 0.67932361364364624 0 0.73383885622024536
vn 0.67932361364364624 0 0.73383885622024536
vn -0.67932361364364624 0 -0.73383885622024536
vn -0.67932361364364624 0 -0.73383885622024536
vn -0.73383885622024536 0 0.67932361364364624
vn -0.73383885622024536 0 0.67932361364364624
vn 0.99986934661865234 0 -0.016166098415851593
vn 0.99986934661865234 0 -0.016166098415851593
vn -0.016166098415851593 0 -0.99986934661865234
vn -0.016166098415851593 0 -0.99986934661865234
vn 0.84528046846389771 0 -0.53432285785675049
vn 0.84528046846389771 0 -0.53432285785675049
vn 0.96203964948654175 0 0.27290964126586914
vn 0.96203964948654175 0 0.27290964126586914
vn -0.53432285785675049 0 -0.84528046846389771
vn -0.53432285785675049 0 -0.84528046846389771
vn -0.27290964126586914 0 0.96203964948654175
vn -0.27290964126586914 0 0.96203964948654175
vn -0.26781398057937622 0 -0.96347063779830933
vn -0.26781398057937622 0 -0.96347063779830933
vn -0.96347063779830933 0 0.26781398057937622
vn -0.96347063779830933 0 0.26781398057937622
vn 0.53432285785675049 0 0.84528046846389771
vn 0.53432285785675049 0 0.84528046846389771
vn -0.84528046846389771 0 0.53432285785675049
vn -0.84528046846389771 0 0.53432285785675049
vn 0.016166098415851593 0 0.99986934661865234
vn 0.016166098415851593 0 0.99986934661865234
vn 0.27290964126586914 0 -0.96203964948654175
vn 0.27290964126586914 0 -0.96203964948654175
vn -0.99986934661865234 0 0.016166098415851593
vn -0.99986934661865234 0 0.016166098415851593
vn -0.96203964948654175 0 -0.27290964126586914
vn -0.96203964948654175 0 -0.27290964126586914
f 6//6 18//18 17//17 5//5
f 18//18 14//14 13//13 17//17
f 14//14 2//2 1//1 13//13
f 2//2 6//6 5//5 1//1
f 32//32 28//28 27//27 31//31
f 28//28 26//26 25//25 27//27
f 26//26 30//30 29//29 25//25
f 30//30 32//32 31//31 29//29
f 52//52 48//48 47//47 51//51
f 48//48 46//46 45//45 47//47
f 46//46 50//50 49//49 45//45
f 50//50 52//52 51//51 49//49
f 88//88 80//80 79//79 87//87
f 80//80 78//78 77//77 79//79
f 78//78 86//86 85//85 77//77
f 86//86 88//88 87//87 85//85
f 122//122 102//102 101//101 121//121
f 102//102 104//104 103//103 101//101
f 104//104 124//124 123//123 103//103
f 124//124 122//122 121//121 123//123
f 154//154 134//134 133//133 153//153
f 134//134 136//136 135//135 133//133
f 136//136 158//158 157//157 135//135
f 158//158 154//154 153//153 157//157
f 150//150 138//138 137//137 149//149
f 138//138 142//142 141//141 137//137
f 142//142 152//152 151//151 141//141
f 152//152 150//150 149//149 151//151
f 110//110 114//114 113//113 109//109
f 114//114 116//116 115//115 113//113
f 116//116 112//112 111//111 115//115
f 112//112 110//110 109//109 111//111
f 74//74 82//82 81//81 73//73
f 82//82 84//84 83//83 81//81
f 84//84 76//76 75//75 83//83
f 76//76 74//74 73//73 75//75
f 38//38 54//54 53//53 37//37
f 54//54 56//56 55//55 53//53
f 56//56 40//40 39//39 55//55
f 40//40 38//38 37//37 39//39
f 8//8 4//4 3//3 7//7
f 4//4 16//16 15//15 3//3
f 16//16 20//20 19//19 15//15
f 20//20 8//8 7//7 19//19
f 12//12 10//10 9//9 11//11
f 10//10 22//22 21//21 9//9
f 22//22 24//24 23//23 21//21
f 24//24 12//12 11//11 23//23
f 36//36 34//34 33//33 35//35
f 34//34 42//42 41//41 33//33
f 42//42 44//44 43//43 41//41
f 44//44 36//36 35//35 43//43
f 58//58 60//60 59//59 57//57
f 60//60 72//72 71//71 59//59
f 72//72 68//68 67//67 71//71
f 68//68 58//58 57//57 67//67
f 94//94 96//96 95//95 93//93
f 96//96 100//100 99//99 95//95
f 100//100 98//98 97//97 99//99
f 98//98 94//94 93//93 97//97
f 126//126 130//130 129//129 125//125
f 130//130 132//132 131//131 129//129
f 132//132 128//128 127//127 131//131
f 128//128 126//126 125//125 127//127
f 156//156 160//160 159//159 155//155
f 160//160 144//144 143//143 159//159
f 144//144 140//140 139//139 143//143
f 140//140 156//156 155//155 139//139
f 146//146 148//148 147//147 145//145
f 148//148 120//120 119//119 147//147
f 120//120 118//118 117//117 119//119
f 118//118 146//146 145//145 117//117
f 108//108 106//106 105//105 107//107
f 106//106 90//90 89//89 105//105
f 90//90 92//92 91//91 89//89
f 92//92 108//108 107//107 91//91
f 70//70 66//66 65//65 69//69
f 66//66 62//62 61//61 65//65
f 62//62 64//64 63//63 61//61
f 64//64 70//70 69//69 63//63
