# Rhino

mtllib Pannelli66.mtl
usemtl diffuse_Black
v 1.4528328020791197 3 -0.16560557181228583
v 1.4528328020791197 0 -0.16560557181228583
v 1.4528328020791206 3 0.16560557181227922
v 1.4528328020791206 0 0.16560557181227922
v 1.4436379010575744 3 -0.18336659079217515
v 1.4436379010575744 0 -0.1833665907921751
v 1.4436379010575755 3 0.18336659079216852
v 1.4436379010575755 0 0.18336659079216852
v 1.4428907070747514 3 -0.23709652812655288
v 1.4428907070747514 0 -0.23709652812655288
v 1.438890962956612 3 -0.21750055795436166
v 1.438890962956612 0 -0.21750055795436166
v 1.3525168691751897 3 -0.55573957462905532
v 1.3525168691751897 0 -0.55573957462905532
v 1.3388246284057963 3 -0.57031772755433918
v 1.3388246284057963 0 -0.57031772755433918
v 1.3249440675559321 3 -0.60186120811779042
v 1.3249440675559321 0 -0.60186120811779042
v 1.3234451071786975 3 -0.62180495695765203
v 1.3234451071786975 0 -0.62180495695765203
v 1.1721845564561442 3 -0.020313635392675715
v 1.1721845564561442 0 -0.02031363539267576
v 1.1721845564561444 3 0.020313635392670483
v 1.1721845564561444 0 0.020313635392670483
v 1.1629896554345989 3 -0.038074654372565041
v 1.1629896554345989 0 -0.038074654372565041
v 1.1629896554345993 3 0.038074654372559788
v 1.1629896554345993 0 0.038074654372559788
v 1.1495560603470996 3 -0.90369752701420847
v 1.1495560603470996 0 -0.90369752701420847
v 1.1332477380349244 3 -0.30029792276318112
v 1.1332477380349244 0 -0.30029792276318112
v 1.1324056079819196 3 -0.9139864523064678
v 1.1324056079819196 0 -0.9139864523064678
v 1.1292479939167852 3 -0.2807019525909899
v 1.1292479939167852 0 -0.2807019525909899
v 1.1221622342560469 3 -0.33938355615237348
v 1.1221622342560469 0 -0.33938355615237353
v 1.1104448444762141 3 -0.94054555624109004
v 1.1104448444762141 0 -0.94054555624109004
v 1.1084699934866535 3 -0.35396170907765734
v 1.1084699934866535 0 -0.35396170907765734
v 1.1035609383340454 3 -0.95932351769130653
v 1.1035609383340454 0 -0.95932351769130653
v 1.0098057227689545 3 -0.57817559635161664
v 1.0098057227689545 0 -0.57817559635161664
v 1.0083067623917197 3 -0.59811934519147836
v 1.0083067623917197 0 -0.59811934519147836
v 0.98697705314666773 3 -0.63269706395641978
v 0.98697705314666773 0 -0.63269706395641978
v 0.96982660078148775 3 -0.64298598924867911
v 0.96982660078148775 0 -0.64298598924867911
v 0.8593534271311537 3 -1.1830722900525907
v 0.8593534271311537 0 -1.1830722900525907
v 0.84004634106188525 3 -1.1882911431367327
v 0.84004634106188525 0 -1.1882911431367327
v 0.81372752530965653 3 -0.83177048066573056
v 0.81372752530965653 0 -0.83177048066573056
v 0.81167201573611403 3 -1.2078502534915239
v 0.81167201573611403 0 -1.2078502534915239
v 0.80684361916748781 3 -0.85054844211594682
v 0.80684361916748781 0 -0.85054844211594682
v 0.79992559553240861 3 -1.2240373351431983
v 0.79992559553240861 0 -1.2240373351431983
v 0.77688845347807012 3 -0.87799408257095157
v 0.77688845347807012 0 -0.87799408257095157
v 0.75758136740880166 3 -0.88321293565509351
v 0.75758136740880166 0 -0.88321293565509351
v 0.55589411963441959 3 -1.0222408452558289
v 0.55589411963441959 0 -1.0222408452558289
v 0.54414769943071417 3 -1.0384279269075036
v 0.54414769943071417 0 -1.0384279269075036
v 0.50784042732719925 3 -1.0566585912910951
v 0.50784042732719925 0 -1.0566585912910951
v 0.50393295603591315 3 -1.3726616232827544
v 0.50393295603591315 0 -1.3726616232827544
v 0.48784195615754034 3 -1.0564113042588394
v 0.48784195615754034 0 -1.0564113042588394
v 0.48393448486625423 3 -1.3724143362504988
v 0.48393448486625423 0 -1.3724143362504988
v 0.4512999750045556 3 -1.3834890778569784
v 0.4512999750045556 0 -1.3834890778569784
v 0.43558249715796615 3 -1.3958568137104792
v 0.43558249715796615 0 -1.3958568137104792
v 0.25587293483621937 3 -1.1351315602923644
v 0.25587293483621937 0 -1.1351315602923644
v 0.24015545698963001 3 -1.1474992961458652
v 0.24015545698963001 0 -1.1474992961458652
v 0.20025150099216893 3 -1.1551314273828488
v 0.20025150099216896 0 -1.1551314273828488
v 0.18107936375296207 3 -1.1494367672805235
v 0.1810793637529621 0 -1.1494367672805235
v 0.11026812960191379 3 -1.4580772598893503
v 0.11026812960191376 0 -1.4580772598893503
v 0.091095992362706921 3 -1.452382599787025
v 0.091095992362706921 0 -1.452382599787025
v 0.05667798812099914 3 -1.4541324910926172
v 0.05667798812099914 0 -1.4541324910926172
v 0.038182279575257577 3 -1.4617422719955724
v 0.038182279575257577 0 -1.4617422719955724
v -0.063566895486625016 3 -1.1618751515337913
v -0.063566895486625016 0 -1.1618751515337913
v -0.082062604032366593 3 -1.1694849324367464
v -0.082062604032366593 0 -1.1694849324367464
v -0.12253486275856086 3 -1.1659393147097727
v -0.12253486275856085 0 -1.1659393147097727
v -0.13942565896687234 3 -1.1552294592742738
v -0.13942565896687234 0 -1.1552294592742738
v -0.29176513846807051 3 -1.4328368574918249
v -0.29176513846807051 0 -1.4328368574918249
v -0.30865593467638203 3 -1.4221270020563259
v -0.30865593467638203 0 -1.4221270020563259
v -0.34224539062753168 3 -1.4144192407425999
v -0.34224539062753168 0 -1.4144192407425999
v -0.3621156581311889 3 -1.4166935470836863
v -0.3621156581311889 0 -1.4166935470836863
v -0.37818252268948332 3 -1.1004420009640199
v -0.37818252268948332 0 -1.1004420009640199
v -0.39805279019314049 3 -1.1027163073051065
v -0.39805279019314049 0 -1.1027163073051065
v -0.43602184099263791 3 -1.0882620237583158
v -0.43602184099263791 0 -1.0882620237583158
v -0.449349424039232 3 -1.0733497626911221
v -0.449349424039232 0 -1.0733497626911221
v -0.66409721535847477 3 -0.95549437806121995
v -0.66409721535847477 0 -0.95549437806121995
v -0.67165583876711521 3 -1.2988559544700804
v -0.67165583876711532 0 -1.2988559544700804
v -0.68383405239013628 3 -0.95226060874575658
v -0.68383405239013628 0 -0.95226060874575658
v -0.68498342181370941 3 -1.2839436934028867
v -0.68498342181370941 0 -1.2839436934028867
v -0.71519516678580297 3 -1.2673632349862813
v -0.71519516678580297 0 -1.2673632349862813
v -0.71641835744474358 3 -0.9279946202933127
v -0.71641835744474358 0 -0.9279946202933127
v -0.72517127369132228 3 -0.91001167122536553
v -0.72517127369132228 0 -0.91001167122536564
v -0.7349320038174646 3 -1.264129465670818
v -0.7349320038174646 0 -1.264129465670818
v -0.89961240630914674 3 -0.73803261199498804
v -0.89961240630914674 0 -0.73803261199498804
v -0.91771794971130116 3 -0.72953618344454985
v -0.91771794971130116 0 -0.72953618344454985
v -0.94244462899591042 3 -0.6973000784840877
v -0.94244462899591042 0 -0.6973000784840877
v -0.94595860428620937 3 -0.67761119894107746
v -0.94595860428620926 0 -0.67761119894107746
v -1.0005734001684314 3 -1.066302596399223
v -1.0005734001684314 0 -1.066302596399223
v -1.0093263164150101 3 -1.0483196473312759
v -1.0093263164150099 0 -1.0483196473312757
v -1.0338675281262788 3 -1.0241248118636337
v -1.0338675281262788 0 -1.0241248118636337
v -1.0519730715284332 3 -1.0156283833131954
v -1.0519730715284332 0 -1.0156283833131954
v -1.2535556924030598 3 -0.75282566524808725
v -1.2535556924030598 0 -0.75282566524808725
v -1.2570696676933588 3 -0.73313678570507701
v -1.2570696676933588 0 -0.73313678570507701
vn 0.95303571224212646 0 0.30285802483558655
vn 0.95303571224212646 0 0.30285802483558655
vn 0.95303571224212646 0 -0.30285802483558655
vn 0.95303571224212646 0 -0.30285802483558655
vn 0.30285802483558655 0 -0.95303571224212646
vn 0.30285802483558655 0 -0.95303571224212646
vn 0.30285802483558655 0 0.95303571224212646
vn 0.30285802483558655 0 0.95303571224212646
vn 0.83423447608947754 0 -0.55140984058380127
vn 0.83423447608947754 0 -0.55140984058380127
vn 0.55140984058380127 0 0.83423447608947754
vn 0.55140984058380127 0 0.83423447608947754
vn 0.99950933456420898 0 0.031321726739406586
vn 0.99950933456420898 0 0.031321726739406586
vn 0.031321726739406586 0 -0.99950933456420898
vn 0.031321726739406586 0 -0.99950933456420898
vn 0.7581142783164978 0 0.65212178230285645
vn 0.7581142783164978 0 0.65212178230285645
vn 0.65212178230285645 0 -0.7581142783164978
vn 0.65212178230285645 0 -0.7581142783164978
vn -0.30285802483558655 0 0.95303571224212646
vn -0.30285802483558655 0 0.95303571224212646
vn -0.30285802483558655 0 -0.95303571224212646
vn -0.30285802483558655 0 -0.95303571224212646
vn -0.95303571224212646 0 -0.30285802483558655
vn -0.95303571224212646 0 -0.30285802483558655
vn -0.95303571224212646 0 0.30285802483558655
vn -0.95303571224212646 0 0.30285802483558655
vn 0.97012847661972046 0 -0.24259161949157715
vn 0.97012847661972046 0 -0.24259161949157715
vn -0.55140984058380127 0 -0.83423447608947754
vn -0.55140984058380127 0 -0.83423447608947754
vn -0.24259161949157715 0 -0.97012847661972046
vn -0.24259161949157715 0 -0.97012847661972046
vn -0.83423447608947754 0 0.55140984058380127
vn -0.83423447608947754 0 0.55140984058380127
vn -0.031321726739406586 0 0.99950933456420898
vn -0.031321726739406586 0 0.99950933456420898
vn 0.90728402137756348 0 0.42051833868026733
vn 0.90728402137756348 0 0.42051833868026733
vn -0.99950933456420898 0 -0.031321726739406586
vn -0.99950933456420898 0 -0.031321726739406586
vn 0.42051833868026733 0 -0.90728402137756348
vn 0.42051833868026733 0 -0.90728402137756348
vn -0.65212178230285645 0 0.7581142783164978
vn -0.65212178230285645 0 0.7581142783164978
vn -0.7581142783164978 0 -0.65212178230285645
vn -0.7581142783164978 0 -0.65212178230285645
vn 0.24259161949157715 0 0.97012847661972046
vn 0.24259161949157715 0 0.97012847661972046
vn -0.97012847661972046 0 0.24259161949157715
vn -0.97012847661972046 0 0.24259161949157715
vn 0.86712288856506348 0 -0.49809423089027405
vn 0.86712288856506348 0 -0.49809423089027405
vn -0.49809423089027405 0 -0.86712288856506348
vn -0.49809423089027405 0 -0.86712288856506348
vn -0.42051833868026733 0 0.90728402137756348
vn -0.42051833868026733 0 0.90728402137756348
vn 0.98759841918945313 0 0.15700109302997589
vn 0.98759841918945313 0 0.15700109302997589
vn -0.90728402137756348 0 -0.42051833868026733
vn -0.90728402137756348 0 -0.42051833868026733
vn 0.15700109302997589 0 -0.98759841918945313
vn 0.15700109302997589 0 -0.98759841918945313
vn 0.49809423089027405 0 0.86712288856506348
vn 0.49809423089027405 0 0.86712288856506348
vn -0.86712288856506348 0 0.49809423089027405
vn -0.86712288856506348 0 0.49809423089027405
vn -0.15700109302997589 0 0.98759841918945313
vn -0.15700109302997589 0 0.98759841918945313
vn -0.98759841918945313 0 -0.15700109302997589
vn -0.98759841918945313 0 -0.15700109302997589
vn 0.71579563617706299 0 0.69830977916717529
vn 0.71579563617706299 0 0.69830977916717529
vn 0.69830977916717529 0 -0.71579563617706299
vn 0.69830977916717529 0 -0.71579563617706299
vn -0.69830977916717529 0 0.71579563617706299
vn -0.69830977916717529 0 0.71579563617706299
vn -0.71579563617706299 0 -0.69830977916717529
vn -0.71579563617706299 0 -0.69830977916717529
vn 0.99296224117279053 0 -0.11843125522136688
vn 0.99296224117279053 0 -0.11843125522136688
vn -0.11843125522136688 0 -0.99296224117279053
vn -0.11843125522136688 0 -0.99296224117279053
vn 0.11843125522136688 0 0.99296224117279053
vn 0.11843125522136688 0 0.99296224117279053
vn -0.99296224117279053 0 0.11843125522136688
vn -0.99296224117279053 0 0.11843125522136688
vn 0.87917405366897583 0 0.47650077939033508
vn 0.87917405366897583 0 0.47650077939033508
vn -0.47650077939033508 0 0.87917405366897583
vn -0.47650077939033508 0 0.87917405366897583
vn 0.47650077939033508 0 -0.87917405366897583
vn 0.47650077939033508 0 -0.87917405366897583
vn -0.87917405366897583 0 -0.47650077939033508
vn -0.87917405366897583 0 -0.47650077939033508
vn 0.92296844720840454 0 -0.38487565517425537
vn 0.92296844720840454 0 -0.38487565517425537
vn -0.38487565517425537 0 -0.92296844720840454
vn -0.38487565517425537 0 -0.92296844720840454
vn 0.38487565517425537 0 0.92296844720840454
vn 0.38487565517425537 0 0.92296844720840454
vn -0.92296844720840454 0 0.38487565517425537
vn -0.92296844720840454 0 0.38487565517425537
vn 0.97583037614822388 0 0.21852926909923553
vn 0.97583037614822388 0 0.21852926909923553
vn -0.21852926909923553 0 0.97583037614822388
vn -0.21852926909923553 0 0.97583037614822388
vn 0.21852926909923553 0 -0.97583037614822388
vn 0.21852926909923553 0 -0.97583037614822388
vn -0.97583037614822388 0 -0.21852926909923553
vn -0.97583037614822388 0 -0.21852926909923553
vn 0.78292888402938843 0 -0.62211120128631592
vn 0.78292888402938843 0 -0.62211120128631592
vn -0.62211120128631592 0 -0.78292888402938843
vn -0.62211120128631592 0 -0.78292888402938843
vn 0.62211120128631592 0 0.78292888402938843
vn 0.62211120128631592 0 0.78292888402938843
vn -0.78292888402938843 0 0.62211120128631592
vn -0.78292888402938843 0 0.62211120128631592
vn 0.99842923879623413 0 -0.056026816368103027
vn 0.99842923879623413 0 -0.056026816368103027
vn 0.056026816368103027 0 0.99842923879623413
vn 0.056026816368103027 0 0.99842923879623413
vn 0.8121335506439209 0 0.58347153663635254
vn 0.8121335506439209 0 0.58347153663635254
vn -0.056026816368103027 0 -0.99842923879623413
vn -0.056026816368103027 0 -0.99842923879623413
vn -0.58347153663635254 0 0.8121335506439209
vn -0.58347153663635254 0 0.8121335506439209
vn -0.99842923879623413 0 0.056026816368103027
vn -0.99842923879623413 0 0.056026816368103027
vn 0.58347153663635254 0 -0.8121335506439209
vn 0.58347153663635254 0 -0.8121335506439209
vn 0.9452555775642395 0 -0.32633092999458313
vn 0.9452555775642395 0 -0.32633092999458313
vn 0.32633092999458313 0 0.9452555775642395
vn 0.32633092999458313 0 0.9452555775642395
vn -0.8121335506439209 0 -0.58347153663635254
vn -0.8121335506439209 0 -0.58347153663635254
vn 0.9405217170715332 0 0.33973351120948792
vn 0.9405217170715332 0 0.33973351120948792
vn -0.33973351120948792 0 0.9405217170715332
vn -0.33973351120948792 0 0.9405217170715332
vn 0.82034480571746826 0 -0.57186925411224365
vn 0.82034480571746826 0 -0.57186925411224365
vn 0.57186925411224365 0 0.82034480571746826
vn 0.57186925411224365 0 0.82034480571746826
vn -0.32633092999458313 0 -0.9452555775642395
vn -0.32633092999458313 0 -0.9452555775642395
vn -0.9452555775642395 0 0.32633092999458313
vn -0.9452555775642395 0 0.32633092999458313
vn 0.33973351120948792 0 -0.9405217170715332
vn 0.33973351120948792 0 -0.9405217170715332
vn -0.9405217170715332 0 -0.33973351120948792
vn -0.9405217170715332 0 -0.33973351120948792
vn -0.57186925411224365 0 -0.82034480571746826
vn -0.57186925411224365 0 -0.82034480571746826
vn -0.82034480571746826 0 0.57186925411224365
vn -0.82034480571746826 0 0.57186925411224365
f 6//6 26//26 25//25 5//5
f 26//26 22//22 21//21 25//25
f 22//22 2//2 1//1 21//21
f 2//2 6//6 5//5 1//1
f 16//16 42//42 41//41 15//15
f 42//42 38//38 37//37 41//41
f 38//38 14//14 13//13 37//37
f 14//14 16//16 15//15 13//13
f 34//34 52//52 51//51 33//33
f 52//52 50//50 49//49 51//51
f 50//50 30//30 29//29 49//49
f 30//30 34//34 33//33 29//29
f 56//56 68//68 67//67 55//55
f 68//68 66//66 65//65 67//67
f 66//66 54//54 53//53 65//65
f 54//54 56//56 55//55 53//53
f 80//80 78//78 77//77 79//79
f 78//78 74//74 73//73 77//77
f 74//74 76//76 75//75 73//73
f 76//76 80//80 79//79 75//75
f 96//96 92//92 91//91 95//95
f 92//92 90//90 89//89 91//91
f 90//90 94//94 93//93 89//89
f 94//94 96//96 95//95 93//93
f 112//112 108//108 107//107 111//111
f 108//108 106//106 105//105 107//107
f 106//106 110//110 109//109 105//105
f 110//110 112//112 111//111 109//109
f 132//132 124//124 123//123 131//131
f 124//124 122//122 121//121 123//123
f 122//122 128//128 127//127 121//121
f 128//128 132//132 131//131 127//127
f 152//152 138//138 137//137 151//151
f 138//138 136//136 135//135 137//137
f 136//136 150//150 149//149 135//135
f 150//150 152//152 151//151 149//149
f 160//160 148//148 147//147 159//159
f 148//148 146//146 145//145 147//147
f 146//146 158//158 157//157 145//145
f 158//158 160//160 159//159 157//157
f 8//8 4//4 3//3 7//7
f 4//4 24//24 23//23 3//3
f 24//24 28//28 27//27 23//23
f 28//28 8//8 7//7 27//27
f 12//12 10//10 9//9 11//11
f 10//10 32//32 31//31 9//9
f 32//32 36//36 35//35 31//31
f 36//36 12//12 11//11 35//35
f 18//18 20//20 19//19 17//17
f 20//20 48//48 47//47 19//19
f 48//48 46//46 45//45 47//47
f 46//46 18//18 17//17 45//45
f 40//40 44//44 43//43 39//39
f 44//44 62//62 61//61 43//43
f 62//62 58//58 57//57 61//61
f 58//58 40//40 39//39 57//57
f 60//60 64//64 63//63 59//59
f 64//64 72//72 71//71 63//63
f 72//72 70//70 69//69 71//71
f 70//70 60//60 59//59 69//69
f 82//82 84//84 83//83 81//81
f 84//84 88//88 87//87 83//83
f 88//88 86//86 85//85 87//87
f 86//86 82//82 81//81 85//85
f 98//98 100//100 99//99 97//97
f 100//100 104//104 103//103 99//99
f 104//104 102//102 101//101 103//103
f 102//102 98//98 97//97 101//101
f 114//114 116//116 115//115 113//113
f 116//116 120//120 119//119 115//115
f 120//120 118//118 117//117 119//119
f 118//118 114//114 113//113 117//117
f 134//134 140//140 139//139 133//133
f 140//140 130//130 129//129 139//139
f 130//130 126//126 125//125 129//129
f 126//126 134//134 133//133 125//125
f 154//154 156//156 155//155 153//153
f 156//156 144//144 143//143 155//155
f 144//144 142//142 141//141 143//143
f 142//142 154//154 153//153 141//141
