# Rhino

mtllib Pannelli28.mtl
usemtl diffuse_Black
v 1.4951821304612645 3 -0.057772927794226631
v 1.4951821304612645 0 -0.057772927794226617
v 1.495182130461264 3 0.057772927794232459
v 1.495182130461264 0 0.057772927794232459
v 1.4924362123867574 3 -0.07758352934814447
v 1.4924362123867574 0 -0.077583529348144498
v 1.4924362123867565 3 0.07758352934815034
v 1.4924362123867565 0 0.07758352934815034
v 1.4914203502764007 3 -0.12071724490734764
v 1.4914203502764007 0 -0.12071724490734764
v 1.4910534566867037 3 -0.10072061046317579
v 1.4910534566867037 0 -0.10072061046317579
v 1.4776586259157327 3 -0.23544065004461689
v 1.4776586259157327 0 -0.23544065004461692
v 1.4725727740109049 3 -0.25478319668155602
v 1.4725727740109049 0 -0.25478319668155602
v 1.4684441917024433 3 -0.27759090029177996
v 1.4684441917024433 0 -0.27759090029177996
v 1.4664268377416148 3 -0.29748889725119104
v 1.4664268377416148 0 -0.29748889725119104
v 1.4390992997494334 3 -0.40975665936906219
v 1.4390992997494334 0 -0.40975665936906219
v 1.4317459157663435 3 -0.42835579225200143
v 1.4317459157663435 0 -0.42835579225200143
v 1.424930280993558 3 -0.45050942984255454
v 1.424930280993558 0 -0.45050942984255454
v 1.4205573983603816 3 -0.47002552313697354
v 1.4205573983603816 0 -0.47002552313697354
v 1.3800530792266381 3 -0.57823940799090945
v 1.3800530792266381 0 -0.57823940799090945
v 1.3705368453097704 3 -0.59583035145734842
v 1.3705368453097704 0 -0.59583035145734853
v 1.3611311848654521 3 -0.61701454574119508
v 1.3611311848654521 0 -0.61701454574119508
v 1.354465025542509 3 -0.63587090593825157
v 1.354465025542509 0 -0.63587090593825157
v 1.3013605412847491 3 -0.73849038993318494
v 1.3013605412847491 0 -0.73849038993318494
v 1.2898169297249735 3 -0.75482272081879387
v 1.2898169297249735 0 -0.75482272081879387
v 1.2779551417855097 3 -0.77473589542076926
v 1.2779551417855097 0 -0.77473589542076926
v 1.2690906046458903 3 -0.79266408499195329
v 1.2690906046458903 0 -0.79266408499195329
v 1.2041419461530229 3 -0.88822828594422354
v 1.2041419461530229 0 -0.88822828594422354
v 1.1907352908156668 3 -0.90306949858555952
v 1.1907352908156668 0 -0.9030694985855594
v 1.1765862387780701 3 -0.92142817125781273
v 1.1765862387780701 0 -0.92142817125781273
v 1.1710096475477061 3 -0.01283986113961
v 1.1710096475477061 0 -0.012839861139609976
v 1.1710096475477056 3 0.012839861139614533
v 1.1710096475477056 0 0.012839861139614533
v 1.168263729473199 3 -0.032650462693527837
v 1.168263729473199 0 -0.032650462693527851
v 1.1682637294731981 3 0.032650462693532417
v 1.1682637294731981 0 0.032650462693532417
v 1.165649518613149 3 -0.93817296603213618
v 1.165649518613149 0 -0.93817296603213618
v 1.1642037021580112 3 -0.12672093972768392
v 1.1642037021580112 0 -0.12672093972768392
v 1.1638368085683144 3 -0.10672430528351207
v 1.1638368085683144 0 -0.10672430528351207
v 1.1611451999048119 3 -0.15221787484360072
v 1.1611451999048119 0 -0.15221787484360072
v 1.1560593479999841 3 -0.17156042148053985
v 1.1560593479999841 0 -0.17156042148053979
v 1.142841606552119 3 -0.24457975519265501
v 1.142841606552119 0 -0.24457975519265501
v 1.1408242525912906 3 -0.26447775215206604
v 1.1408242525912906 0 -0.26447775215206604
v 1.1347507886609733 3 -0.28942892792045888
v 1.1347507886609733 0 -0.28942892792045888
v 1.1273974046778834 3 -0.30802806080339812
v 1.1273974046778834 0 -0.30802806080339812
v 1.1055770093220441 3 -0.37895338865783057
v 1.1055770093220441 0 -0.37895338865783057
v 1.1012041266888679 3 -0.39846948195224963
v 1.1012041266888679 0 -0.39846948195224963
v 1.0922021623936857 3 -0.42251969557222324
v 1.0922021623936857 0 -0.42251969557222319
v 1.0897812894239092 3 -1.0253214401631159
v 1.0897812894239092 0 -1.0253214401631157
v 1.082685928476818 3 -0.44011063903866221
v 1.082685928476818 0 -0.44011063903866221
v 1.0747024463059274 3 -1.0384602563283301
v 1.0747024463059274 0 -1.0384602563283298
v 1.0584675548629825 3 -1.055003074579322
v 1.0584675548629825 0 -1.055003074579322
v 1.0525735124921323 3 -0.5079322741436133
v 1.0525735124921323 0 -0.5079322741436133
v 1.0459073531691891 3 -0.52678863434066969
v 1.0459073531691891 0 -0.52678863434066969
v 1.0456143458841765 3 -1.0703260970927542
v 1.0456143458841765 0 -1.0703260970927542
v 1.0341050397017304 3 -0.54959550903129628
v 1.0341050397017304 0 -0.54959550903129628
v 1.0225614281419548 3 -0.56592783991690521
v 1.0225614281419548 0 -0.56592783991690521
v 0.98458566930292024 3 -0.62968027928469228
v 0.98458566930292024 0 -0.62968027928469228
v 0.97572113216330103 3 -0.64760846885587631
v 0.97572113216330103 0 -0.64760846885587631
v 0.96128648624709034 3 -0.6688473279027205
v 0.96128648624709034 0 -0.6688473279027205
v 0.95990659961035074 3 -1.1478182061899422
v 0.95990659961035074 0 -1.1478182061899422
v 0.94787983090973438 3 -0.68368854054405648
v 0.94787983090973438 0 -0.68368854054405637
v 0.9433702298307014 3 -1.1590675828175914
v 0.9433702298307014 0 -1.1590675828175914
v 0.92528061750629265 3 -1.1735590445037765
v 0.92528061750629265 0 -1.1735590445037765
v 0.9106938968956052 3 -1.187242157520402
v 0.9106938968956052 0 -1.187242157520402
v 0.90258134886614061 3 -0.74246420990893947
v 0.90258134886614061 0 -0.74246420990893947
v 0.89164462870121941 3 -0.75920900468326291
v 0.89164462870121941 0 -0.75920900468326291
v 0.87478314071903351 3 -0.77857749350827687
v 0.87478314071903351 0 -0.77857749350827699
v 0.8597042976010516 3 -0.79171630967349116
v 0.8597042976010516 0 -0.79171630967349127
v 0.81636676167133337 3 -1.2539747305567459
v 0.81636676167133326 0 -1.2539747305567459
v 0.80772795766295602 3 -0.84467848364117659
v 0.80772795766295602 0 -0.84467848364117659
v 0.79860827557367686 3 -1.2631745224847923
v 0.79860827557367686 0 -1.2631745224847923
v 0.7948747486841502 3 -0.86000150615460869
v 0.7948747486841502 0 -0.86000150615460869
v 0.77892146453927968 3 -1.2754083283989588
v 0.77892146453927968 0 -1.2754083283989588
v 0.77582645733453037 3 -0.87722389661000411
v 0.77582645733453037 0 -0.87722389661000411
v 0.76280888760181065 3 -1.287256740293983
v 0.76280888760181065 0 -1.287256740293983
v 0.75929008755488103 3 -0.88847327323765324
v 0.75929008755488103 0 -0.88847327323765324
v 0.70137582044529545 3 -0.9348679868363321
v 0.70137582044529545 0 -0.9348679868363321
v 0.6867890998346079 3 -0.94855109985295749
v 0.6867890998346079 0 -0.94855109985295749
v 0.66582517496151117 3 -0.96338221546349934
v 0.66582517496151117 0 -0.96338221546349934
v 0.66120519644398545 3 -1.3422797780761184
v 0.66120519644398545 0 -1.3422797780761184
v 0.64806668886385466 3 -0.97258200739154554
v 0.64806668886385477 0 -0.97258200739154554
v 0.6424774023151979 3 -1.3492990178547377
v 0.6424774023151979 0 -1.3492990178547377
v 0.58503895712835496 3 -1.011748789452646
v 0.58503895712835496 0 -1.011748789452646
v 0.56892638019088593 3 -1.0235972013476697
v 0.56892638019088593 0 -1.0235972013476697
v 0.54634526243301418 3 -1.0358259076219749
v 0.54634526243301418 0 -1.0358259076219749
v 0.52761746830422662 3 -1.0428451474005942
v 0.52761746830422662 0 -1.0428451474005942
vn 0.79749339818954468 0 0.60332769155502319
vn 0.79749339818954468 0 0.60332769155502319
vn 0.79749339818954468 0 -0.60332769155502319
vn 0.79749339818954468 0 -0.60332769155502319
vn 0.60332769155502319 0 -0.79749339818954468
vn 0.60332769155502319 0 -0.79749339818954468
vn 0.60332769155502319 0 0.79749339818954468
vn 0.60332769155502319 0 0.79749339818954468
vn 0.71995943784713745 0 -0.69401609897613525
vn 0.71995943784713745 0 -0.69401609897613525
vn 0.69401609897613525 0 0.71995943784713745
vn 0.69401609897613525 0 0.71995943784713745
vn 0.8636743426322937 0 0.50405025482177734
vn 0.8636743426322937 0 0.50405025482177734
vn 0.50405025482177734 0 -0.8636743426322937
vn 0.50405025482177734 0 -0.8636743426322937
vn 0.77482467889785767 0 0.63217616081237793
vn 0.77482467889785767 0 0.63217616081237793
vn 0.63217616081237793 0 -0.77482467889785767
vn 0.63217616081237793 0 -0.77482467889785767
vn 0.91756004095077515 0 0.39759728312492371
vn 0.91756004095077515 0 0.39759728312492371
vn 0.39759728312492371 0 -0.91756004095077515
vn 0.39759728312492371 0 -0.91756004095077515
vn 0.84460282325744629 0 0.5353933572769165
vn 0.84460282325744629 0 0.5353933572769165
vn 0.5353933572769165 0 -0.84460282325744629
vn 0.5353933572769165 0 -0.84460282325744629
vn 0.95838344097137451 0 0.28548410534858704
vn 0.95838344097137451 0 0.28548410534858704
vn 0.28548410534858704 0 -0.95838344097137451
vn 0.28548410534858704 0 -0.95838344097137451
vn 0.90235733985900879 0 0.43098872900009155
vn 0.90235733985900879 0 0.43098872900009155
vn 0.43098872900009155 0 -0.90235733985900879
vn 0.43098872900009155 0 -0.90235733985900879
vn 0.98556339740753174 0 0.16930679976940155
vn 0.98556339740753174 0 0.16930679976940155
vn 0.16930679976940155 0 -0.98556339740753174
vn 0.16930679976940155 0 -0.98556339740753174
vn 0.94726592302322388 0 0.32044848799705505
vn 0.94726592302322388 0 0.32044848799705505
vn 0.32044848799705505 0 -0.94726592302322388
vn 0.32044848799705505 0 -0.94726592302322388
vn 0.99871295690536499 0 0.050719261169433594
vn 0.99871295690536499 0 0.050719261169433594
vn 0.050719261169433594 0 -0.99871295690536499
vn 0.050719261169433594 0 -0.99871295690536499
vn 0.97868937253952026 0 0.20534643530845642
vn 0.97868937253952026 0 0.20534643530845642
vn -0.60332769155502319 0 0.79749339818954468
vn -0.60332769155502319 0 0.79749339818954468
vn -0.60332769155502319 0 -0.79749339818954468
vn -0.60332769155502319 0 -0.79749339818954468
vn -0.79749339818954468 0 -0.60332769155502319
vn -0.79749339818954468 0 -0.60332769155502319
vn -0.79749339818954468 0 0.60332769155502319
vn -0.79749339818954468 0 0.60332769155502319
vn 0.20534643530845642 0 -0.97868937253952026
vn 0.20534643530845642 0 -0.97868937253952026
vn -0.69401609897613525 0 -0.71995943784713745
vn -0.69401609897613525 0 -0.71995943784713745
vn -0.71995943784713745 0 0.69401609897613525
vn -0.71995943784713745 0 0.69401609897613525
vn -0.50405025482177734 0 0.8636743426322937
vn -0.50405025482177734 0 0.8636743426322937
vn -0.8636743426322937 0 -0.50405025482177734
vn -0.8636743426322937 0 -0.50405025482177734
vn -0.63217616081237793 0 0.77482467889785767
vn -0.63217616081237793 0 0.77482467889785767
vn -0.77482467889785767 0 -0.63217616081237793
vn -0.77482467889785767 0 -0.63217616081237793
vn -0.39759728312492371 0 0.91756004095077515
vn -0.39759728312492371 0 0.91756004095077515
vn -0.91756004095077515 0 -0.39759728312492371
vn -0.91756004095077515 0 -0.39759728312492371
vn -0.5353933572769165 0 0.84460282325744629
vn -0.5353933572769165 0 0.84460282325744629
vn -0.84460282325744629 0 -0.5353933572769165
vn -0.84460282325744629 0 -0.5353933572769165
vn -0.28548410534858704 0 0.95838344097137451
vn -0.28548410534858704 0 0.95838344097137451
vn 0.99764490127563477 0 -0.06859029084444046
vn 0.99764490127563477 0 -0.06859029084444046
vn -0.95838344097137451 0 -0.28548410534858704
vn -0.95838344097137451 0 -0.28548410534858704
vn -0.06859029084444046 0 -0.99764490127563477
vn -0.06859029084444046 0 -0.99764490127563477
vn 0.99618023633956909 0 0.087321102619171143
vn 0.99618023633956909 0 0.087321102619171143
vn -0.43098872900009155 0 0.90235733985900879
vn -0.43098872900009155 0 0.90235733985900879
vn -0.90235733985900879 0 -0.43098872900009155
vn -0.90235733985900879 0 -0.43098872900009155
vn 0.087321102619171143 0 -0.99618023633956909
vn 0.087321102619171143 0 -0.99618023633956909
vn -0.16930679976940155 0 0.98556339740753174
vn -0.16930679976940155 0 0.98556339740753174
vn -0.98556339740753174 0 -0.16930679976940155
vn -0.98556339740753174 0 -0.16930679976940155
vn -0.32044848799705505 0 0.94726592302322388
vn -0.32044848799705505 0 0.94726592302322388
vn -0.94726592302322388 0 -0.32044848799705505
vn -0.94726592302322388 0 -0.32044848799705505
vn -0.050719261169433594 0 0.99871295690536499
vn -0.050719261169433594 0 0.99871295690536499
vn 0.98237448930740356 0 -0.18692342936992645
vn 0.98237448930740356 0 -0.18692342936992645
vn -0.99871295690536499 0 -0.050719261169433594
vn -0.99871295690536499 0 -0.050719261169433594
vn -0.18692342936992645 0 -0.98237448930740356
vn -0.18692342936992645 0 -0.98237448930740356
vn 0.99948954582214355 0 -0.03194735199213028
vn 0.99948954582214355 0 -0.03194735199213028
vn -0.03194735199213028 0 -0.99948954582214355
vn -0.03194735199213028 0 -0.99948954582214355
vn -0.20534643530845642 0 0.97868937253952026
vn -0.20534643530845642 0 0.97868937253952026
vn -0.97868937253952026 0 -0.20534643530845642
vn -0.97868937253952026 0 -0.20534643530845642
vn 0.06859029084444046 0 0.99764490127563477
vn 0.06859029084444046 0 0.99764490127563477
vn -0.99764490127563477 0 0.06859029084444046
vn -0.99764490127563477 0 0.06859029084444046
vn 0.95311903953552246 0 -0.30259552597999573
vn 0.95311903953552246 0 -0.30259552597999573
vn -0.087321102619171143 0 0.99618023633956909
vn -0.087321102619171143 0 0.99618023633956909
vn -0.30259552597999573 0 -0.95311903953552246
vn -0.30259552597999573 0 -0.95311903953552246
vn -0.99618023633956909 0 -0.087321102619171143
vn -0.99618023633956909 0 -0.087321102619171143
vn 0.98857021331787109 0 -0.15076100826263428
vn 0.98857021331787109 0 -0.15076100826263428
vn 0.18692342936992645 0 0.98237448930740356
vn 0.18692342936992645 0 0.98237448930740356
vn -0.15076100826263428 0 -0.98857021331787109
vn -0.15076100826263428 0 -0.98857021331787109
vn -0.98237448930740356 0 0.18692342936992645
vn -0.98237448930740356 0 0.18692342936992645
vn 0.03194735199213028 0 0.99948954582214355
vn 0.03194735199213028 0 0.99948954582214355
vn -0.99948954582214355 0 0.03194735199213028
vn -0.99948954582214355 0 0.03194735199213028
vn 0.30259552597999573 0 0.95311903953552246
vn 0.30259552597999573 0 0.95311903953552246
vn 0.91029512882232666 0 -0.41395992040634155
vn 0.91029512882232666 0 -0.41395992040634155
vn -0.95311903953552246 0 0.30259552597999573
vn -0.95311903953552246 0 0.30259552597999573
vn -0.41395992040634155 0 -0.91029512882232666
vn -0.41395992040634155 0 -0.91029512882232666
vn 0.15076100826263428 0 0.98857021331787109
vn 0.15076100826263428 0 0.98857021331787109
vn -0.98857021331787109 0 0.15076100826263428
vn -0.98857021331787109 0 0.15076100826263428
vn 0.41395992040634155 0 0.91029512882232666
vn 0.41395992040634155 0 0.91029512882232666
vn -0.91029512882232666 0 0.41395992040634155
vn -0.91029512882232666 0 0.41395992040634155
f 6//6 56//56 55//55 5//5
f 56//56 52//52 51//51 55//55
f 52//52 2//2 1//1 51//51
f 2//2 6//6 5//5 1//1
f 16//16 68//68 67//67 15//15
f 68//68 66//66 65//65 67//67
f 66//66 14//14 13//13 65//65
f 14//14 16//16 15//15 13//13
f 24//24 76//76 75//75 23//23
f 76//76 74//74 73//73 75//75
f 74//74 22//22 21//21 73//73
f 22//22 24//24 23//23 21//21
f 32//32 86//86 85//85 31//31
f 86//86 82//82 81//81 85//85
f 82//82 30//30 29//29 81//81
f 30//30 32//32 31//31 29//29
f 40//40 100//100 99//99 39//39
f 100//100 98//98 97//97 99//99
f 98//98 38//38 37//37 97//97
f 38//38 40//40 39//39 37//37
f 48//48 110//110 109//109 47//47
f 110//110 106//106 105//105 109//109
f 106//106 46//46 45//45 105//105
f 46//46 48//48 47//47 45//45
f 88//88 124//124 123//123 87//87
f 124//124 122//122 121//121 123//123
f 122//122 84//84 83//83 121//121
f 84//84 88//88 87//87 83//83
f 112//112 140//140 139//139 111//111
f 140//140 136//136 135//135 139//139
f 136//136 108//108 107//107 135//135
f 108//108 112//112 111//111 107//107
f 130//130 150//150 149//149 129//129
f 150//150 146//146 145//145 149//149
f 146//146 126//126 125//125 145//145
f 126//126 130//130 129//129 125//125
f 152//152 160//160 159//159 151//151
f 160//160 158//158 157//157 159//159
f 158//158 148//148 147//147 157//157
f 148//148 152//152 151//151 147//147
f 8//8 4//4 3//3 7//7
f 4//4 54//54 53//53 3//3
f 54//54 58//58 57//57 53//53
f 58//58 8//8 7//7 57//57
f 12//12 10//10 9//9 11//11
f 10//10 62//62 61//61 9//9
f 62//62 64//64 63//63 61//61
f 64//64 12//12 11//11 63//63
f 18//18 20//20 19//19 17//17
f 20//20 72//72 71//71 19//19
f 72//72 70//70 69//69 71//71
f 70//70 18//18 17//17 69//69
f 26//26 28//28 27//27 25//25
f 28//28 80//80 79//79 27//27
f 80//80 78//78 77//77 79//79
f 78//78 26//26 25//25 77//77
f 34//34 36//36 35//35 33//33
f 36//36 94//94 93//93 35//35
f 94//94 92//92 91//91 93//93
f 92//92 34//34 33//33 91//91
f 42//42 44//44 43//43 41//41
f 44//44 104//104 103//103 43//43
f 104//104 102//102 101//101 103//103
f 102//102 42//42 41//41 101//101
f 50//50 60//60 59//59 49//49
f 60//60 120//120 119//119 59//59
f 120//120 118//118 117//117 119//119
f 118//118 50//50 49//49 117//117
f 90//90 96//96 95//95 89//89
f 96//96 132//132 131//131 95//95
f 132//132 128//128 127//127 131//131
f 128//128 90//90 89//89 127//127
f 114//114 116//116 115//115 113//113
f 116//116 144//144 143//143 115//115
f 144//144 142//142 141//141 143//143
f 142//142 114//114 113//113 141//141
f 134//134 138//138 137//137 133//133
f 138//138 156//156 155//155 137//137
f 156//156 154//154 153//153 155//155
f 154//154 134//134 133//133 153//153
