# Rhino

mtllib Pannelli138.mtl
usemtl diffuse_Black
v 1.2899233086359978 3 -0.30715845538443726
v 1.2899233086359978 0 -0.30715845538443726
v 1.2899233086359976 3 0.3071584553844362
v 1.2899233086359976 0 0.3071584553844362
v 1.2716827633532795 3 -0.31536104691328254
v 1.2716827633532795 0 -0.31536104691328259
v 1.271682763353279 3 0.3153610469132816
v 1.271682763353279 0 0.3153610469132816
v 1.2680035957171596 3 -0.38783416575251045
v 1.2680035957171596 0 -0.38783416575251045
v 1.2564218930386748 3 -0.37152882420235672
v 1.2564218930386748 0 -0.37152882420235672
v 1.1671489511267288 3 -0.034138493360346002
v 1.1671489511267288 0 -0.034138493360346002
v 1.1671489511267286 3 0.034138493360345065
v 1.1671489511267286 0 0.034138493360345065
v 1.1489084058440104 3 -0.042341084889191291
v 1.1489084058440104 0 -0.042341084889191333
v 1.14890840584401 3 0.042341084889190472
v 1.14890840584401 0 0.042341084889190472
v 1.0239492836440214 3 -0.56118622165020449
v 1.0239492836440214 0 -0.56118622165020449
v 1.0123675809655366 3 -0.54488088010005076
v 1.0123675809655366 0 -0.54488088010005076
v 0.98939799707565756 3 -0.62007557138450053
v 0.98939799707565756 0 -0.62007557138450053
v 0.96951451940303734 3 -0.61791980802958268
v 0.96951451940303734 0 -0.61791980802958268
v 0.95713106534910286 3 -0.91768653832356306
v 0.95713106534910286 0 -0.91768653832356306
v 0.93724758767648264 3 -0.91553077496864521
v 0.93724758767648264 0 -0.91553077496864521
v 0.89739955955096318 3 -0.97617748867423126
v 0.89739955955096318 0 -0.97617748867423126
v 0.89566151549311734 3 -0.95625315172533931
v 0.89566151549311734 0 -0.95625315172533931
v 0.59917702108905768 3 -1.0021921014675679
v 0.59917702108905768 0 -1.0021921014675679
v 0.59743897703121196 3 -0.98226776451867592
v 0.59743897703121196 0 -0.98226776451867592
v 0.53957559764552254 3 -1.0355000170307167
v 0.53957559764552243 0 -1.0355000170307167
v 0.52351688261123164 3 -1.0235787053810941
v 0.52351688261123153 0 -1.0235787053810941
v 0.39474608341246648 3 1.2493218841237801
v 0.39474608341246642 0 1.2493218841237801
v 0.38770737421565127 3 1.2680423695032426
v 0.38770737421565127 0 1.2680423695032426
v 0.36114035881848167 3 -1.2758628845252342
v 0.36114035881848172 0 -1.2758628845252342
v 0.34508164378419076 3 -1.2639415728756116
v 0.34508164378419082 0 -1.2639415728756116
v 0.28860599301006612 3 -1.2780204307125713
v 0.28860599301006612 0 -1.2780204307125713
v 0.28002243917475733 3 -1.2960848322680161
v 0.28002243917475733 0 -1.2960848322680161
v 0.11454249694316959 3 1.1439682289655786
v 0.11454249694316959 0 1.1439682289655786
v 0.1075037877463544 3 1.1626887143450411
v 0.1075037877463544 0 1.1626887143450411
v 0.039362071782578327 3 1.1669844635427331
v 0.039362071782578327 0 1.1669844635427331
v 0.030028099964281366 3 1.1492961349022075
v 0.030028099964281366 0 1.1492961349022075
v 0.018222506649709046 3 -1.1495439237976162
v 0.018222506649709046 0 -1.1495439237976162
v 0.0096389528144002375 3 -1.1676083253530605
v 0.0096389528144002375 0 -1.1676083253530605
v -0.058622999408412202 3 -1.1661755677364791
v -0.058622999408412188 0 -1.1661755677364791
v -0.066441016232214239 3 -1.1477669118120846
v -0.066441016232214184 0 -1.1477669118120846
v -0.22539244837319938 3 1.3066930408833308
v -0.22539244837319938 0 1.3066930408833308
v -0.23472642019149631 3 1.2890047122428054
v -0.23472642019149631 0 1.2890047122428054
v -0.29174307814220612 3 1.27730795694546
v -0.29174307814220607 0 1.27730795694546
v -0.30728743523218127 3 1.2898925889487933
v -0.30728743523218133 0 1.2898925889487933
v -0.33415919986149772 3 -1.2831937063532211
v -0.33415919986149778 0 -1.2831937063532211
v -0.34197721668529973 3 -1.2647850504288265
v -0.34197721668529973 0 -1.2647850504288265
v -0.39781238435584598 3 -1.2483488884815772
v -0.39781238435584598 0 -1.2483488884815772
v -0.41435717159462565 3 -1.2595858816391574
v -0.41435717159462565 0 -1.2595858816391574
v -0.48010673166151663 3 1.0446438717103144
v -0.48010673166151657 0 1.0446438717103144
v -0.49565108875149178 3 1.0572285037136477
v -0.49565108875149183 0 1.0572285037136477
v -0.5556971191988529 3 1.0064710647617814
v -0.5556971191988529 0 1.0064710647617814
v -0.55659761267270769 3 1.0264507822648778
v -0.55659761267270769 0 1.0264507822648778
v -0.56600491355913274 3 -1.0007106126725831
v -0.56600491355913274 0 -1.0007106126725831
v -0.58254970079791246 3 -1.0119476058301633
v -0.58254970079791246 0 -1.0119476058301633
v -0.63812850885674577 3 -0.95633430277956921
v -0.63812850885674577 0 -0.95633430277956921
v -0.6407010421165279 3 -0.97616816454744759
v -0.6407010421165279 0 -0.97616816454744759
v -0.85474858007351739 3 0.99299270157558495
v -0.85474858007351739 0 0.99299270157558495
v -0.85564907354737207 3 1.0129724190786815
v -0.85564907354737207 0 1.0129724190786815
v -0.89800672763389278 3 0.95405112947071224
v -0.89800672763389278 0 0.95405112947071224
v -0.91778223871926623 3 0.95703929969883939
v -0.91778223871926623 0 0.95703929969883939
v -0.93499683722780258 3 -0.91782926238711737
v -0.93499683722780258 0 -0.91782926238711737
v -0.93756937048758471 3 -0.93766312415499575
v -0.93756937048758471 0 -0.93766312415499575
v -0.94273291917915014 3 0.65805617965685637
v -0.94273291917915014 0 0.65805617965685637
v -0.9625084302645236 3 0.66104434988498351
v -0.9625084302645236 0 0.66104434988498351
v -0.97483758453594416 3 -0.875397809168037
v -0.97483758453594416 0 -0.875397809168037
v -0.98861293419876828 3 0.5868796800226771
v -0.98861293419876828 0 0.5868796800226771
v -0.9945884216326748 3 -0.5766950355628554
v -0.9945884216326748 0 -0.5766950355628554
v -0.99479400613832558 3 -0.87671736849902349
v -0.99479400613832558 0 -0.87671736849902349
v -0.99950026909479484 3 0.60365662667162834
v -0.99950026909479484 0 0.60365662667162834
v -1.0145448432350563 3 -0.57801459489384199
v -1.0145448432350563 0 -0.57801459489384199
v -1.0343390485711277 3 -0.50192232973797157
v -1.0343390485711277 0 -0.50192232973797146
v -1.0465947190792715 3 -0.51772734604279724
v -1.0465947190792715 0 -0.51772734604279724
v -1.1461199444126478 3 0.090511687135795479
v -1.1461199444126478 0 0.090511687135795424
v -1.1496731857925566 3 0.0059040967312060169
v -1.1496731857925566 0 0.0059040967312060169
v -1.1646886038576592 3 0.083081688049982436
v -1.1646886038576592 0 0.083081688049982408
v -1.1675534881083385 3 0.014864832699654093
v -1.1675534881083385 0 0.014864832699654093
v -1.2397261145331553 3 0.42392074903759858
v -1.2397261145331553 0 0.42392074903759858
v -1.2506134494291818 3 0.44069769568654982
v -1.2506134494291818 0 0.44069769568654982
v -1.2573303296728724 3 0.36844278063870378
v -1.2573303296728724 0 0.36844278063870378
v -1.270904616346223 3 -0.31848249036632131
v -1.270904616346223 0 -0.31848249036632142
v -1.2758989891178838 3 0.36101278155289074
v -1.2758989891178838 0 0.36101278155289079
v -1.2831602868543668 3 -0.33428750667114704
v -1.2831602868543668 0 -0.33428750667114715
v -1.2837952614155599 3 -0.26172383782725395
v -1.2837952614155599 0 -0.26172383782725395
v -1.3016755637313417 3 -0.25276310185880591
v -1.3016755637313417 0 -0.25276310185880591
vn 0.93490606546401978 0 -0.35489526391029358
vn 0.93490606546401978 0 -0.35489526391029358
vn 0.93490606546401978 0 0.35489526391029358
vn 0.93490606546401978 0 0.35489526391029358
vn -0.35489526391029358 0 -0.93490606546401978
vn -0.35489526391029358 0 -0.93490606546401978
vn -0.35489526391029358 0 0.93490606546401978
vn -0.35489526391029358 0 0.93490606546401978
vn 0.98595589399337769 0 -0.16700588166713715
vn 0.98595589399337769 0 -0.16700588166713715
vn 0.16700588166713715 0 0.98595589399337769
vn 0.16700588166713715 0 0.98595589399337769
vn 0.35489526391029358 0 0.93490606546401978
vn 0.35489526391029358 0 0.93490606546401978
vn 0.35489526391029358 0 -0.93490606546401978
vn 0.35489526391029358 0 -0.93490606546401978
vn -0.93490606546401978 0 0.35489526391029358
vn -0.93490606546401978 0 0.35489526391029358
vn -0.93490606546401978 0 -0.35489526391029358
vn -0.93490606546401978 0 -0.35489526391029358
vn -0.16700588166713715 0 -0.98595589399337769
vn -0.16700588166713715 0 -0.98595589399337769
vn -0.98595589399337769 0 0.16700588166713715
vn -0.98595589399337769 0 0.16700588166713715
vn 0.7792048454284668 0 0.62676936388015747
vn 0.7792048454284668 0 0.62676936388015747
vn -0.62676936388015747 0 0.7792048454284668
vn -0.62676936388015747 0 0.7792048454284668
vn 0.62676936388015747 0 -0.7792048454284668
vn 0.62676936388015747 0 -0.7792048454284668
vn -0.7792048454284668 0 -0.62676936388015747
vn -0.7792048454284668 0 -0.62676936388015747
vn 0.76588082313537598 0 -0.64298254251480103
vn 0.76588082313537598 0 -0.64298254251480103
vn 0.64298254251480103 0 0.76588082313537598
vn 0.64298254251480103 0 0.76588082313537598
vn -0.64298254251480103 0 -0.76588082313537598
vn -0.64298254251480103 0 -0.76588082313537598
vn -0.76588082313537598 0 0.64298254251480103
vn -0.76588082313537598 0 0.64298254251480103
vn 0.98924332857131958 0 0.14627932012081146
vn 0.98924332857131958 0 0.14627932012081146
vn -0.14627932012081146 0 0.98924332857131958
vn -0.14627932012081146 0 0.98924332857131958
vn 0.91072505712509155 0 -0.41301316022872925
vn 0.91072505712509155 0 -0.41301316022872925
vn 0.41301316022872925 0 0.91072505712509155
vn 0.41301316022872925 0 0.91072505712509155
vn 0.14627932012081146 0 -0.98924332857131958
vn 0.14627932012081146 0 -0.98924332857131958
vn -0.98924332857131958 0 -0.14627932012081146
vn -0.98924332857131958 0 -0.14627932012081146
vn 0.94214749336242676 0 0.33519858121871948
vn 0.94214749336242676 0 0.33519858121871948
vn 0.33519858121871948 0 -0.94214749336242676
vn 0.33519858121871948 0 -0.94214749336242676
vn -0.41301316022872925 0 -0.91072505712509155
vn -0.41301316022872925 0 -0.91072505712509155
vn -0.91072505712509155 0 0.41301316022872925
vn -0.91072505712509155 0 0.41301316022872925
vn 0.9553825855255127 0 0.29537114500999451
vn 0.9553825855255127 0 0.29537114500999451
vn 0.29537114500999451 0 -0.9553825855255127
vn 0.29537114500999451 0 -0.9553825855255127
vn -0.33519858121871948 0 0.94214749336242676
vn -0.33519858121871948 0 0.94214749336242676
vn -0.94214749336242676 0 -0.33519858121871948
vn -0.94214749336242676 0 -0.33519858121871948
vn 0.92725288867950439 0 -0.37443563342094421
vn 0.92725288867950439 0 -0.37443563342094421
vn 0.37443563342094421 0 0.92725288867950439
vn 0.37443563342094421 0 0.92725288867950439
vn -0.29537114500999451 0 0.9553825855255127
vn -0.29537114500999451 0 0.9553825855255127
vn -0.9553825855255127 0 -0.29537114500999451
vn -0.9553825855255127 0 -0.29537114500999451
vn 0.99450993537902832 0 0.1046421155333519
vn 0.99450993537902832 0 0.1046421155333519
vn -0.1046421155333519 0 0.99450993537902832
vn -0.1046421155333519 0 0.99450993537902832
vn -0.37443563342094421 0 -0.92725288867950439
vn -0.37443563342094421 0 -0.92725288867950439
vn -0.92725288867950439 0 0.37443563342094421
vn -0.92725288867950439 0 0.37443563342094421
vn 0.98223423957824707 0 -0.18765884637832642
vn 0.98223423957824707 0 -0.18765884637832642
vn -0.18765884637832642 0 -0.98223423957824707
vn -0.18765884637832642 0 -0.98223423957824707
vn 0.1046421155333519 0 -0.99450993537902832
vn 0.1046421155333519 0 -0.99450993537902832
vn -0.99450993537902832 0 -0.1046421155333519
vn -0.99450993537902832 0 -0.1046421155333519
vn 0.73822695016860962 0 -0.67455244064331055
vn 0.73822695016860962 0 -0.67455244064331055
vn 0.67455244064331055 0 0.73822695016860962
vn 0.67455244064331055 0 0.73822695016860962
vn 0.18765884637832642 0 0.98223423957824707
vn 0.18765884637832642 0 0.98223423957824707
vn -0.98223423957824707 0 0.18765884637832642
vn -0.98223423957824707 0 0.18765884637832642
vn 0.79218566417694092 0 0.61028015613555908
vn 0.79218566417694092 0 0.61028015613555908
vn 0.61028015613555908 0 -0.79218566417694092
vn 0.61028015613555908 0 -0.79218566417694092
vn -0.67455244064331055 0 -0.73822695016860962
vn -0.67455244064331055 0 -0.73822695016860962
vn -0.73822695016860962 0 0.67455244064331055
vn -0.73822695016860962 0 0.67455244064331055
vn 0.80481767654418945 0 0.59352213144302368
vn 0.80481767654418945 0 0.59352213144302368
vn -0.59352213144302368 0 0.80481767654418945
vn -0.59352213144302368 0 0.80481767654418945
vn -0.61028015613555908 0 0.79218566417694092
vn -0.61028015613555908 0 0.79218566417694092
vn -0.79218566417694092 0 -0.61028015613555908
vn -0.79218566417694092 0 -0.61028015613555908
vn 0.59352213144302368 0 -0.80481767654418945
vn 0.59352213144302368 0 -0.80481767654418945
vn -0.80481767654418945 0 -0.59352213144302368
vn -0.80481767654418945 0 -0.59352213144302368
vn 0.75221949815750122 0 -0.65891259908676147
vn 0.75221949815750122 0 -0.65891259908676147
vn 0.97808003425598145 0 -0.20822925865650177
vn 0.97808003425598145 0 -0.20822925865650177
vn 0.65891259908676147 0 0.75221949815750122
vn 0.65891259908676147 0 0.75221949815750122
vn -0.65891259908676147 0 -0.75221949815750122
vn -0.65891259908676147 0 -0.75221949815750122
vn 0.20822925865650177 0 0.97808003425598145
vn 0.20822925865650177 0 0.97808003425598145
vn -0.75221949815750122 0 0.65891259908676147
vn -0.75221949815750122 0 0.65891259908676147
vn 0.99209511280059814 0 0.12548831105232239
vn 0.99209511280059814 0 0.12548831105232239
vn 0.12548831105232239 0 -0.99209511280059814
vn 0.12548831105232239 0 -0.99209511280059814
vn 0.91919136047363281 0 -0.39381113648414612
vn 0.91919136047363281 0 -0.39381113648414612
vn 0.94897401332855225 0 0.31535428762435913
vn 0.94897401332855225 0 0.31535428762435913
vn -0.39381113648414612 0 -0.91919136047363281
vn -0.39381113648414612 0 -0.91919136047363281
vn -0.31535428762435913 0 0.94897401332855225
vn -0.31535428762435913 0 0.94897401332855225
vn -0.20822925865650177 0 -0.97808003425598145
vn -0.20822925865650177 0 -0.97808003425598145
vn -0.97808003425598145 0 0.20822925865650177
vn -0.97808003425598145 0 0.20822925865650177
vn 0.39381113648414612 0 0.91919136047363281
vn 0.39381113648414612 0 0.91919136047363281
vn -0.12548831105232239 0 0.99209511280059814
vn -0.12548831105232239 0 0.99209511280059814
vn -0.91919136047363281 0 0.39381113648414612
vn -0.91919136047363281 0 0.39381113648414612
vn -0.99209511280059814 0 -0.12548831105232239
vn -0.99209511280059814 0 -0.12548831105232239
vn 0.31535428762435913 0 -0.94897401332855225
vn 0.31535428762435913 0 -0.94897401332855225
vn -0.94897401332855225 0 -0.31535428762435913
vn -0.94897401332855225 0 -0.31535428762435913
f 6//6 18//18 17//17 5//5
f 18//18 14//14 13//13 17//17
f 14//14 2//2 1//1 13//13
f 2//2 6//6 5//5 1//1
f 32//32 28//28 27//27 31//31
f 28//28 26//26 25//25 27//27
f 26//26 30//30 29//29 25//25
f 30//30 32//32 31//31 29//29
f 52//52 44//44 43//43 51//51
f 44//44 42//42 41//41 43//43
f 42//42 50//50 49//49 41//41
f 50//50 52//52 51//51 49//49
f 84//84 72//72 71//71 83//83
f 72//72 70//70 69//69 71//71
f 70//70 82//82 81//81 69//69
f 82//82 84//84 83//83 81//81
f 114//114 102//102 101//101 113//113
f 102//102 104//104 103//103 101//101
f 104//104 116//116 115//115 103//103
f 116//116 114//114 113//113 115//115
f 152//152 134//134 133//133 151//151
f 134//134 136//136 135//135 133//133
f 136//136 156//156 155//155 135//135
f 156//156 152//152 151//151 155//155
f 150//150 138//138 137//137 149//149
f 138//138 142//142 141//141 137//137
f 142//142 154//154 153//153 141//141
f 154//154 150//150 149//149 153//153
f 110//110 118//118 117//117 109//109
f 118//118 120//120 119//119 117//117
f 120//120 112//112 111//111 119//119
f 112//112 110//110 109//109 111//111
f 78//78 90//90 89//89 77//77
f 90//90 92//92 91//91 89//89
f 92//92 80//80 79//79 91//91
f 80//80 78//78 77//77 79//79
f 46//46 58//58 57//57 45//45
f 58//58 60//60 59//59 57//57
f 60//60 48//48 47//47 59//59
f 48//48 46//46 45//45 47//47
f 8//8 4//4 3//3 7//7
f 4//4 16//16 15//15 3//3
f 16//16 20//20 19//19 15//15
f 20//20 8//8 7//7 19//19
f 12//12 10//10 9//9 11//11
f 10//10 22//22 21//21 9//9
f 22//22 24//24 23//23 21//21
f 24//24 12//12 11//11 23//23
f 36//36 34//34 33//33 35//35
f 34//34 38//38 37//37 33//33
f 38//38 40//40 39//39 37//37
f 40//40 36//36 35//35 39//39
f 54//54 56//56 55//55 53//53
f 56//56 68//68 67//67 55//55
f 68//68 66//66 65//65 67//67
f 66//66 54//54 53//53 65//65
f 86//86 88//88 87//87 85//85
f 88//88 100//100 99//99 87//87
f 100//100 98//98 97//97 99//99
f 98//98 86//86 85//85 97//97
f 122//122 128//128 127//127 121//121
f 128//128 132//132 131//131 127//127
f 132//132 126//126 125//125 131//131
f 126//126 122//122 121//121 125//125
f 158//158 160//160 159//159 157//157
f 160//160 144//144 143//143 159//159
f 144//144 140//140 139//139 143//143
f 140//140 158//158 157//157 139//139
f 146//146 148//148 147//147 145//145
f 148//148 130//130 129//129 147//147
f 130//130 124//124 123//123 129//129
f 124//124 146//146 145//145 123//123
f 106//106 108//108 107//107 105//105
f 108//108 96//96 95//95 107//107
f 96//96 94//94 93//93 95//95
f 94//94 106//106 105//105 93//93
f 76//76 74//74 73//73 75//75
f 74//74 62//62 61//61 73//73
f 62//62 64//64 63//63 61//61
f 64//64 76//76 75//75 63//63
