# Rhino

mtllib Pannelli41.mtl
usemtl diffuse_Black
v 1.4847393373385005 3 -0.096235495970087764
v 1.4847393373385005 0 -0.09623549597008775
v 1.4847393373385018 3 0.096235495970074553
v 1.4847393373385018 0 0.096235495970074553
v 1.4797344236761434 3 -0.11559914333395893
v 1.4797344236761434 0 -0.11559914333395892
v 1.4797344236761449 3 0.11559914333394568
v 1.4797344236761449 0 0.11559914333394568
v 1.4789746262384926 3 -0.16231520405584687
v 1.4789746262384926 0 -0.16231520405584687
v 1.4773983203648149 3 -0.14237741932953862
v 1.4773983203648149 0 -0.14237741932953862
v 1.4456464165916634 3 -0.35187868466370814
v 1.4456464165916634 0 -0.35187868466370814
v 1.437364105907962 3 -0.37008317119144768
v 1.437364105907962 0 -0.37008317119144768
v 1.4304263754081292 3 -0.39605240952237175
v 1.4304263754081292 0 -0.39605240952237175
v 1.4285264494107175 3 -0.41596196203377583
v 1.4285264494107175 0 -0.41596196203377583
v 1.3628769574078348 3 -0.59689075172240846
v 1.3628769574078348 0 -0.59689075172240846
v 1.3515674787053809 3 -0.61338607504384546
v 1.3515674787053809 0 -0.61338607504384546
v 1.3402377269409849 3 -0.6377616810657234
v 1.3402377269409849 0 -0.6377616810657234
v 1.3349189705158109 3 -0.65704148474962198
v 1.3349189705158109 0 -0.65704148474962198
v 1.238931628985209 3 -0.82386927920941111
v 1.238931628985209 0 -0.823869279209411
v 1.224936669467444 3 -0.83815707498399117
v 1.224936669467444 0 -0.83815707498399117
v 1.2095571961410536 3 -0.86020260160912532
v 1.2095571961410536 0 -0.86020260160912532
v 1.2009803020182173 3 -0.87827016611587749
v 1.2009803020182173 0 -0.87827016611587749
v 1.1716921911518137 3 -0.015322333823014716
v 1.1716921911518137 0 -0.015322333823014723
v 1.1716921911518141 3 0.01532233382300429
v 1.1716921911518141 0 0.01532233382300429
v 1.1666872774894566 3 -0.034685981186885886
v 1.1666872774894566 0 -0.034685981186885893
v 1.1666872774894572 3 0.034685981186875416
v 1.1666872774894572 0 0.034685981186875416
v 1.1566455478077058 3 -0.1877989389121659
v 1.1566455478077058 0 -0.1877989389121659
v 1.1550692419340278 3 -0.16786115418585768
v 1.1550692419340278 0 -0.16786115418585768
v 1.1513391278762208 3 -0.21798068111909805
v 1.1513391278762208 0 -0.21798068111909805
v 1.1430568171925195 3 -0.23618516764683756
v 1.1430568171925195 0 -0.23618516764683756
v 1.1085537199920859 3 -0.36533679069916586
v 1.1085537199920859 0 -0.36533679069916586
v 1.1066537939946741 3 -0.38524634321056994
v 1.1066537939946741 0 -0.38524634321056994
v 1.096201274145949 3 -0.4140532952178021
v 1.096201274145949 0 -0.4140532952178021
v 1.0848917954434951 3 -0.43054861853923904
v 1.0848917954434951 0 -0.43054861853923904
v 1.0775551249354514 3 -1.0259566868295766
v 1.0775551249354514 0 -1.0259566868295766
v 1.061297506794777 3 -1.0376052855604119
v 1.061297506794777 0 -1.0376052855604119
v 1.042332963670594 3 -1.056654683137964
v 1.042332963670594 0 -1.056654683137964
v 1.0307570609438534 3 -1.0729641428488508
v 1.0307570609438534 0 -1.0729641428488508
v 1.0285460601352194 3 -0.55177470305096055
v 1.0285460601352194 0 -0.55177470305096055
v 1.0232273037100454 3 -0.57105450673485902
v 1.0232273037100454 0 -0.57105450673485902
v 1.0079444803101185 3 -0.5976163395794053
v 1.0079444803101185 0 -0.5976163395794053
v 0.99394952079235332 3 -0.61190413535398536
v 0.99394952079235332 0 -0.61190413535398547
v 0.91746349080247591 3 -0.72154214276866258
v 0.91746349080247591 0 -0.72154214276866258
v 0.90888659667963945 3 -0.73960970727541497
v 0.90888659667963945 0 -0.73960970727541497
v 0.88923520146041446 3 -0.76312392257324668
v 0.88923520146041446 0 -0.76312392257324668
v 0.88362302686763439 3 -1.1970474163182754
v 0.88362302686763439 0 -1.1970474163182754
v 0.87297758331973996 3 -0.77477252130408181
v 0.87297758331973996 0 -0.77477252130408181
v 0.86559393278569796 3 -1.2057048851507164
v 0.86559393278569796 0 -1.2057048851507164
v 0.8436172854154621 3 -1.2211826244669393
v 0.8436172854154621 0 -1.2211826244669393
v 0.8293921106141543 3 -1.2352412304388072
v 0.8293921106141543 0 -1.2352412304388072
v 0.77866208997631237 3 -0.86951001741232359
v 0.77866208997631237 0 -0.86951001741232359
v 0.76708618724957178 3 -0.88581947712321041
v 0.76708618724957178 0 -0.88581947712321041
v 0.74365993725608925 3 -0.90557565252174899
v 0.74365993725608937 0 -0.90557565252174899
v 0.72563084317415283 3 -0.9142331213541901
v 0.72563084317415294 0 -0.9142331213541901
v 0.6629945010607402 3 -1.3319723953927118
v 0.6629945010607402 0 -1.3319723953927118
v 0.64373863436998646 3 -1.3373771708725921
v 0.64373863436998635 0 -1.3373771708725921
v 0.61941385139261662 3 -1.348815631305732
v 0.61941385139261662 0 -1.348815631305732
v 0.61633538980173641 3 -0.99120785308864445
v 0.61633538980173641 0 -0.99120785308864445
v 0.60296918207981065 3 -1.3601986384300579
v 0.60296918207981065 0 -1.3601986384300579
v 0.60211021500042861 3 -1.0052664590605123
v 0.60211021500042861 0 -1.0052664590605123
v 0.57561687493679059 3 -1.0206677118474579
v 0.5756168749367907 0 -1.0206677118474579
v 0.55636100824603685 3 -1.0260724873273381
v 0.55636100824603685 0 -1.0260724873273381
v 0.43538767965279873 3 -1.0829588584767242
v 0.43538767965279873 0 -1.0829588584767242
v 0.4223352786210105 3 -1.4266552081554578
v 0.4223352786210105 0 -1.4266552081554578
v 0.41894301033999282 3 -1.0943418656010504
v 0.41894301033999282 0 -1.0943418656010504
v 0.40243440647556739 3 -1.428643998705196
v 0.40243440647556739 0 -1.4286439987051958
v 0.39018300925463983 3 -1.104922886001062
v 0.39018300925463983 0 -1.104922886001062
v 0.37649639948942493 3 -1.4356975961960843
v 0.37649639948942493 0 -1.4356975961960843
v 0.37028213710919672 3 -1.1069116765508002
v 0.37028213710919672 0 -1.1069116765508
v 0.35832906962332883 3 -1.4440610957947242
v 0.35832906962332883 0 -1.4440610957947242
v 0.2412858354728151 3 -1.1419910097486947
v 0.2412858354728151 0 -1.1419910097486947
v 0.22311850560671895 3 -1.1503545093473349
v 0.22311850560671895 0 -1.1503545093473349
v 0.19296075395966092 3 -1.1557956186762612
v 0.19296075395966092 0 -1.1557956186762612
v 0.17301613071689723 3 -1.1543083380355577
v 0.17301613071689723 0 -1.1543083380355577
v 0.16891626732953813 3 -1.4782352536576966
v 0.16891626732953813 0 -1.4782352536576966
v 0.14897164408677444 3 -1.476747973016993
v 0.14897164408677444 0 -1.476747973016993
v 0.12220406416041038 3 -1.4792036010145437
v 0.12220406416041038 0 -1.4792036010145437
v 0.10286295351694104 3 -1.4842949111678418
v 0.10286295351694104 0 -1.4842949111678418
v 0.039894151988849866 3 -1.1665208002362188
v 0.039894151988849866 0 -1.1665208002362188
v 0.020553041345380524 3 -1.1716121103895172
v 0.020553041345380524 0 -1.1716121103895172
v -0.010091320916664938 3 -1.1717489193347181
v -0.010091320916664941 0 -1.1717489193347181
v -0.02947711907098478 3 -1.1668305019144523
v -0.029477119070984745 0 -1.1668305019144523
v -0.089606120387855703 3 -1.4851541716986878
v -0.089606120387855731 0 -1.4851541716986878
v -0.10899191854217555 3 -1.4802357542784219
v -0.10899191854217553 0 -1.4802357542784219
vn 0.86155873537063599 0 0.50765788555145264
vn 0.86155873537063599 0 0.50765788555145264
vn 0.86155873537063599 0 -0.50765788555145264
vn 0.86155873537063599 0 -0.50765788555145264
vn 0.50765788555145264 0 -0.86155873537063599
vn 0.50765788555145264 0 -0.86155873537063599
vn 0.50765788555145264 0 0.86155873537063599
vn 0.50765788555145264 0 0.86155873537063599
vn 0.76063799858093262 0 -0.64917629957199097
vn 0.76063799858093262 0 -0.64917629957199097
vn 0.64917629957199097 0 0.76063799858093262
vn 0.64917629957199097 0 0.76063799858093262
vn 0.93644970655441284 0 0.35080188512802124
vn 0.93644970655441284 0 0.35080188512802124
vn 0.35080188512802124 0 -0.93644970655441284
vn 0.35080188512802124 0 -0.93644970655441284
vn 0.77108150720596313 0 0.63673645257949829
vn 0.77108150720596313 0 0.63673645257949829
vn 0.63673645257949829 0 -0.77108150720596313
vn 0.63673645257949829 0 -0.77108150720596313
vn 0.9830482006072998 0 0.18334731459617615
vn 0.9830482006072998 0 0.18334731459617615
vn 0.18334731459617615 0 -0.9830482006072998
vn 0.18334731459617615 0 -0.9830482006072998
vn 0.8696904182434082 0 0.49359756708145142
vn 0.8696904182434082 0 0.49359756708145142
vn 0.49359756708145142 0 -0.8696904182434082
vn 0.49359756708145142 0 -0.8696904182434082
vn 0.99994641542434692 0 0.01035333052277565
vn 0.99994641542434692 0 0.01035333052277565
vn 0.01035333052277565 0 -0.99994641542434692
vn 0.01035333052277565 0 -0.99994641542434692
vn 0.9420238733291626 0 0.3355458676815033
vn 0.9420238733291626 0 0.3355458676815033
vn 0.3355458676815033 0 -0.9420238733291626
vn 0.3355458676815033 0 -0.9420238733291626
vn -0.50765788555145264 0 0.86155873537063599
vn -0.50765788555145264 0 0.86155873537063599
vn -0.50765788555145264 0 -0.86155873537063599
vn -0.50765788555145264 0 -0.86155873537063599
vn -0.86155873537063599 0 -0.50765788555145264
vn -0.86155873537063599 0 -0.50765788555145264
vn -0.86155873537063599 0 0.50765788555145264
vn -0.86155873537063599 0 0.50765788555145264
vn -0.64917629957199097 0 -0.76063799858093262
vn -0.64917629957199097 0 -0.76063799858093262
vn -0.76063799858093262 0 0.64917629957199097
vn -0.76063799858093262 0 0.64917629957199097
vn -0.35080188512802124 0 0.93644970655441284
vn -0.35080188512802124 0 0.93644970655441284
vn -0.93644970655441284 0 -0.35080188512802124
vn -0.93644970655441284 0 -0.35080188512802124
vn -0.63673645257949829 0 0.77108150720596313
vn -0.63673645257949829 0 0.77108150720596313
vn -0.77108150720596313 0 -0.63673645257949829
vn -0.77108150720596313 0 -0.63673645257949829
vn -0.18334731459617615 0 0.9830482006072998
vn -0.18334731459617615 0 0.9830482006072998
vn -0.9830482006072998 0 -0.18334731459617615
vn -0.9830482006072998 0 -0.18334731459617615
vn 0.9866337776184082 0 -0.1629534512758255
vn 0.9866337776184082 0 -0.1629534512758255
vn -0.1629534512758255 0 -0.9866337776184082
vn -0.1629534512758255 0 -0.9866337776184082
vn 0.98589646816253662 0 0.16735650599002838
vn 0.98589646816253662 0 0.16735650599002838
vn 0.16735650599002838 0 -0.98589646816253662
vn 0.16735650599002838 0 -0.98589646816253662
vn -0.49359756708145142 0 0.8696904182434082
vn -0.49359756708145142 0 0.8696904182434082
vn -0.8696904182434082 0 -0.49359756708145142
vn -0.8696904182434082 0 -0.49359756708145142
vn -0.01035333052277565 0 0.99994641542434692
vn -0.01035333052277565 0 0.99994641542434692
vn -0.99994641542434692 0 -0.01035333052277565
vn -0.99994641542434692 0 -0.01035333052277565
vn -0.3355458676815033 0 0.9420238733291626
vn -0.3355458676815033 0 0.9420238733291626
vn -0.9420238733291626 0 -0.3355458676815033
vn -0.9420238733291626 0 -0.3355458676815033
vn 0.1629534512758255 0 0.9866337776184082
vn 0.1629534512758255 0 0.9866337776184082
vn 0.94351249933242798 0 -0.33133697509765625
vn 0.94351249933242798 0 -0.33133697509765625
vn -0.9866337776184082 0 0.1629534512758255
vn -0.9866337776184082 0 0.1629534512758255
vn -0.33133697509765625 0 -0.94351249933242798
vn -0.33133697509765625 0 -0.94351249933242798
vn 0.99998265504837036 0 -0.0058891368098556995
vn 0.99998265504837036 0 -0.0058891368098556995
vn -0.0058891368098556995 0 -0.99998265504837036
vn -0.0058891368098556995 0 -0.99998265504837036
vn -0.16735650599002838 0 0.98589646816253662
vn -0.16735650599002838 0 0.98589646816253662
vn -0.98589646816253662 0 -0.16735650599002838
vn -0.98589646816253662 0 -0.16735650599002838
vn 0.33133697509765625 0 0.94351249933242798
vn 0.33133697509765625 0 0.94351249933242798
vn -0.94351249933242798 0 0.33133697509765625
vn -0.94351249933242798 0 0.33133697509765625
vn 0.87188535928726196 0 -0.48971003293991089
vn 0.87188535928726196 0 -0.48971003293991089
vn -0.48971003293991089 0 -0.87188535928726196
vn -0.48971003293991089 0 -0.87188535928726196
vn 0.9838569164276123 0 -0.17895679175853729
vn 0.9838569164276123 0 -0.17895679175853729
vn 0.0058891368098556995 0 0.99998265504837036
vn 0.0058891368098556995 0 0.99998265504837036
vn -0.17895679175853729 0 -0.9838569164276123
vn -0.17895679175853729 0 -0.9838569164276123
vn -0.99998265504837036 0 0.0058891368098556995
vn -0.99998265504837036 0 0.0058891368098556995
vn 0.48971003293991089 0 0.87188535928726196
vn 0.48971003293991089 0 0.87188535928726196
vn -0.87188535928726196 0 0.48971003293991089
vn -0.87188535928726196 0 0.48971003293991089
vn 0.17895679175853729 0 0.9838569164276123
vn 0.17895679175853729 0 0.9838569164276123
vn 0.77391642332077026 0 -0.63328772783279419
vn 0.77391642332077026 0 -0.63328772783279419
vn -0.9838569164276123 0 0.17895679175853729
vn -0.9838569164276123 0 0.17895679175853729
vn -0.63328772783279419 0 -0.77391642332077026
vn -0.63328772783279419 0 -0.77391642332077026
vn 0.63328772783279419 0 0.77391642332077026
vn 0.63328772783279419 0 0.77391642332077026
vn 0.93800646066665649 0 -0.34661775827407837
vn 0.93800646066665649 0 -0.34661775827407837
vn -0.77391642332077026 0 0.63328772783279419
vn -0.77391642332077026 0 0.63328772783279419
vn -0.34661775827407837 0 -0.93800646066665649
vn -0.34661775827407837 0 -0.93800646066665649
vn 0.34661775827407837 0 0.93800646066665649
vn 0.34661775827407837 0 0.93800646066665649
vn -0.93800646066665649 0 0.34661775827407837
vn -0.93800646066665649 0 0.34661775827407837
vn 0.75773221254348755 0 0.652565598487854
vn 0.75773221254348755 0 0.652565598487854
vn -0.652565598487854 0 0.75773221254348755
vn -0.652565598487854 0 0.75773221254348755
vn 0.652565598487854 0 -0.75773221254348755
vn 0.652565598487854 0 -0.75773221254348755
vn -0.75773221254348755 0 -0.652565598487854
vn -0.75773221254348755 0 -0.652565598487854
vn 0.86381649971008301 0 -0.50380653142929077
vn 0.86381649971008301 0 -0.50380653142929077
vn -0.50380653142929077 0 -0.86381649971008301
vn -0.50380653142929077 0 -0.86381649971008301
vn 0.50380653142929077 0 0.86381649971008301
vn 0.50380653142929077 0 0.86381649971008301
vn -0.86381649971008301 0 0.50380653142929077
vn -0.86381649971008301 0 0.50380653142929077
vn 0.85928380489349365 0 0.51149910688400269
vn 0.85928380489349365 0 0.51149910688400269
vn -0.51149910688400269 0 0.85928380489349365
vn -0.51149910688400269 0 0.85928380489349365
vn 0.51149910688400269 0 -0.85928380489349365
vn 0.51149910688400269 0 -0.85928380489349365
vn -0.85928380489349365 0 -0.51149910688400269
vn -0.85928380489349365 0 -0.51149910688400269
f 6//6 42//42 41//41 5//5
f 42//42 38//38 37//37 41//41
f 38//38 2//2 1//1 37//37
f 2//2 6//6 5//5 1//1
f 16//16 52//52 51//51 15//15
f 52//52 50//50 49//49 51//51
f 50//50 14//14 13//13 49//49
f 14//14 16//16 15//15 13//13
f 24//24 60//60 59//59 23//23
f 60//60 58//58 57//57 59//59
f 58//58 22//22 21//21 57//57
f 22//22 24//24 23//23 21//21
f 32//32 76//76 75//75 31//31
f 76//76 74//74 73//73 75//75
f 74//74 30//30 29//29 73//73
f 30//30 32//32 31//31 29//29
f 64//64 86//86 85//85 63//63
f 86//86 82//82 81//81 85//85
f 82//82 62//62 61//61 81//81
f 62//62 64//64 63//63 61//61
f 88//88 100//100 99//99 87//87
f 100//100 98//98 97//97 99//99
f 98//98 84//84 83//83 97//97
f 84//84 88//88 87//87 83//83
f 104//104 116//116 115//115 103//103
f 116//116 114//114 113//113 115//115
f 114//114 102//102 101//101 113//113
f 102//102 104//104 103//103 101//101
f 124//124 130//130 129//129 123//123
f 130//130 126//126 125//125 129//129
f 126//126 120//120 119//119 125//125
f 120//120 124//124 123//123 119//119
f 144//144 140//140 139//139 143//143
f 140//140 138//138 137//137 139//139
f 138//138 142//142 141//141 137//137
f 142//142 144//144 143//143 141//141
f 160//160 156//156 155//155 159//159
f 156//156 154//154 153//153 155//155
f 154//154 158//158 157//157 153//153
f 158//158 160//160 159//159 157//157
f 8//8 4//4 3//3 7//7
f 4//4 40//40 39//39 3//3
f 40//40 44//44 43//43 39//39
f 44//44 8//8 7//7 43//43
f 12//12 10//10 9//9 11//11
f 10//10 46//46 45//45 9//9
f 46//46 48//48 47//47 45//45
f 48//48 12//12 11//11 47//47
f 18//18 20//20 19//19 17//17
f 20//20 56//56 55//55 19//19
f 56//56 54//54 53//53 55//55
f 54//54 18//18 17//17 53//53
f 26//26 28//28 27//27 25//25
f 28//28 72//72 71//71 27//27
f 72//72 70//70 69//69 71//71
f 70//70 26//26 25//25 69//69
f 34//34 36//36 35//35 33//33
f 36//36 80//80 79//79 35//35
f 80//80 78//78 77//77 79//79
f 78//78 34//34 33//33 77//77
f 66//66 68//68 67//67 65//65
f 68//68 96//96 95//95 67//67
f 96//96 94//94 93//93 95//95
f 94//94 66//66 65//65 93//93
f 90//90 92//92 91//91 89//89
f 92//92 112//112 111//111 91//91
f 112//112 108//108 107//107 111//111
f 108//108 90//90 89//89 107//107
f 106//106 110//110 109//109 105//105
f 110//110 122//122 121//121 109//109
f 122//122 118//118 117//117 121//121
f 118//118 106//106 105//105 117//117
f 128//128 132//132 131//131 127//127
f 132//132 136//136 135//135 131//131
f 136//136 134//134 133//133 135//135
f 134//134 128//128 127//127 133//133
f 146//146 148//148 147//147 145//145
f 148//148 152//152 151//151 147//147
f 152//152 150//150 149//149 151//151
f 150//150 146//146 145//145 149//149
