# Rhino

mtllib Pannelli173.mtl
usemtl diffuse_Black
v 1.1869556517312527 3 -0.33306489744767387
v 1.1869556517312527 0 -0.33306489744767387
v 1.1869556517312583 3 0.333064897447653
v 1.1869556517312583 0 0.333064897447653
v 1.1670301226014228 3 -0.33478922018321705
v 1.1670301226014228 0 -0.33478922018321705
v 1.1670301226014286 3 0.33478922018319646
v 1.1670301226014286 0 0.33478922018319646
v 1.1615131742710818 3 -0.039062611612250935
v 1.1615131742710818 0 -0.039062611612250941
v 1.161513174271082 3 0.039062611612230444
v 1.161513174271082 0 0.039062611612230444
v 1.1613137904610031 3 -0.41369822959941321
v 1.1613137904610031 0 -0.41369822959941321
v 1.146044154378171 3 -0.40078164282511913
v 1.146044154378171 0 -0.40078164282511913
v 1.1415876451412519 3 -0.040786934347794089
v 1.1415876451412519 0 -0.040786934347794089
v 1.1415876451412523 3 0.040786934347773939
v 1.1415876451412523 0 0.040786934347773939
v 1.1004929700337065 3 0.55561782548347349
v 1.1004929700337065 0 0.55561782548347349
v 1.0869576725259178 3 0.54089384092168913
v 1.0869576725259178 0 0.54089384092168913
v 0.97072883725396464 3 -0.63900255567158626
v 0.97072883725396464 0 -0.63900255567158626
v 0.95545920117113248 3 -0.62608596889729207
v 0.95545920117113248 0 -0.62608596889729207
v 0.92560369945852816 3 -0.70277772672441763
v 0.92560369945852816 0 -0.70277772672441763
v 0.90834212536045023 3 -0.69267633772801862
v 0.90834212536045023 0 -0.69267633772801862
v 0.88323976237412072 3 0.75533188982894184
v 0.88323976237412072 0 0.75533188982894184
v 0.86970446486633202 3 0.74060790526715747
v 0.86970446486633202 0 0.74060790526715747
v 0.83049665033166187 3 0.81296620804258679
v 0.83049665033166187 0 0.81296620804258679
v 0.81463313810692339 3 0.80078634844177121
v 0.81463313810692339 0 0.80078634844177121
v 0.77655714537690601 3 -0.95747320852996343
v 0.77655714537690601 0 -0.95747320852996343
v 0.75929557127882807 3 -0.94737181953356442
v 0.75929557127882807 0 -0.94737181953356442
v 0.70905136305457261 3 -1.0084850567257029
v 0.70905136305457261 0 -1.0084850567257029
v 0.7040470778964103 3 -0.98912124692350245
v 0.7040470778964103 0 -0.98912124692350245
v 0.65078214737106332 3 1.0470332094789063
v 0.65078214737106332 0 1.0470332094789063
v 0.63491863514632474 3 1.034853349878091
v 0.63491863514632474 0 1.034853349878091
v 0.57742934493990383 3 1.0892067281700322
v 0.57742934493990383 0 1.0892067281700322
v 0.57488478796640774 3 1.0693692578220104
v 0.57488478796640774 0 1.0693692578220104
v 0.42333727700771417 3 -1.0823235613840008
v 0.42333727700771417 0 -1.0823235613840008
v 0.41833299184955192 3 -1.0629597515818001
v 0.41833299184955192 0 -1.0629597515818001
v 0.34966418494070184 3 -1.1083202151909928
v 0.34966418494070189 0 -1.1083202151909928
v 0.34140778267091459 3 -1.0901039636128149
v 0.34140778267091465 0 -1.0901039636128149
v 0.28472637130697132 3 1.1267518072377869
v 0.28472637130697132 0 1.1267518072377869
v 0.28218181433347522 3 1.1069143368897651
v 0.28218181433347522 0 1.1069143368897651
v 0.20838153288820321 3 1.1433354181439563
v 0.20838153288820321 0 1.1433354181439563
v 0.20246692114382719 3 1.1242299904357556
v 0.20246692114382719 0 1.1242299904357556
v 0.080882384043898803 3 -1.230143887941556
v 0.080882384043898775 0 -1.230143887941556
v 0.072625981774111545 3 -1.2119276363633782
v 0.072625981774111531 0 -1.2119276363633782
v 0.0034110655595495643 3 -1.2140969869173246
v 0.0034110655595495643 0 -1.2140969869173246
v -0.003688375833613422 3 -1.2327945250415016
v -0.003688375833613422 0 -1.2327945250415016
v -0.073520111051854686 3 1.2306058419979626
v -0.073520111051854686 0 1.2306058419979626
v -0.07943472279623065 3 1.2115004142897619
v -0.07943472279623065 0 1.2115004142897619
v -0.14837793668614485 3 1.2050008783875392
v -0.14837793668614491 0 1.2050008783875392
v -0.15775888942432936 3 1.2226643357423144
v -0.15775888942432942 0 1.2226643357423144
v -0.27247214497830535 3 -1.109344335976689
v -0.27247214497830535 0 -1.109344335976689
v -0.27957158637146828 3 -1.1280418741008658
v -0.27957158637146828 0 -1.1280418741008658
v -0.35094622068461812 3 -1.0870706857145138
v -0.35094622068461806 0 -1.0870706857145138
v -0.35472806454183159 3 -1.1067098724858562
v -0.35472806454183159 0 -1.1067098724858562
v -0.40900322820153961 3 1.0665844011954044
v -0.4090032282015395 0 1.0665844011954044
v -0.41838418093972413 3 1.0842478585501796
v -0.41838418093972402 0 1.0842478585501796
v -0.48407760186516491 3 1.0346761816747838
v -0.48407760186516491 0 1.0346761816747838
v -0.49028468406282172 3 1.053688602104375
v -0.49028468406282172 0 1.053688602104375
v -0.64072350916221332 3 -1.0312693701535198
v -0.64072350916221332 0 -1.0312693701535198
v -0.6445053530194268 3 -1.0509085569248622
v -0.6445053530194268 0 -1.0509085569248622
v -0.69847803679664622 3 -0.99306171063166115
v -0.69847803679664622 0 -0.99306171063166115
v -0.71507315192088883 3 -1.0042242441260405
v -0.71507315192088883 0 -1.0042242441260405
v -0.76460691825836336 3 0.94309034008488635
v -0.76460691825836336 0 0.94309034008488635
v -0.77081400045602022 3 0.96210276051447752
v -0.77081400045602022 0 0.96210276051447752
v -0.81713250008967597 3 0.89796303170407521
v -0.81713250008967597 0 0.89796303170407521
v -0.83499277305920061 3 0.9069636233209678
v -0.83499277305920061 0 0.9069636233209678
v -0.8631818367147559 3 -0.74819986789519
v -0.8631818367147559 0 -0.74819986789519
v -0.87977695183899862 3 -0.75936240138956923
v -0.87977695183899862 0 -0.75936240138956923
v -0.91437652005796632 3 -0.68469080986918729
v -0.91437652005796632 0 -0.68469080986918729
v -0.92880731080139345 3 -0.69853827456563744
v -0.92880731080139345 0 -0.69853827456563744
v -0.94993672787181505 3 0.63443371489291867
v -0.94993672787181505 0 0.63443371489291867
v -0.96779700084133968 3 0.64343430650981126
v -0.96779700084133968 0 0.64343430650981126
v -0.99279123863317109 3 0.56502343495279328
v -0.99279123863317109 0 0.56502343495279328
v -1.0088397792818427 3 0.57695843989824447
v -1.0088397792818427 0 0.57695843989824447
v -1.1186966285607205 3 -0.47176369323725625
v -1.1186966285607205 0 -0.47176369323725625
v -1.1331274193041476 3 -0.48561115793370635
v -1.1331274193041476 0 -0.48561115793370635
v -1.1367928020927349 3 -0.11219648239934896
v -1.1367928020927349 0 -0.11219648239934896
v -1.1419011995609933 3 -0.030782722326078368
v -1.1419011995609933 0 -0.030782722326078368
v -1.1437740478285929 3 -0.40721500036684982
v -1.1437740478285929 0 -0.40721500036684982
v -1.1567872047107175 3 -0.11172333976755933
v -1.1567872047107175 0 -0.11172333976755933
v -1.1616796377767094 3 -0.033751456357128368
v -1.1616796377767094 0 -0.033751456357128382
v -1.1637684504465755 3 -0.40674185773506022
v -1.1637684504465755 0 -0.40674185773506022
v -1.1688928975932167 3 0.32822632887401354
v -1.1688928975932167 0 0.32822632887401354
v -1.1849414382418881 3 0.34016133381946473
v -1.1849414382418881 0 0.34016133381946473
v -1.1857050346049243 3 0.26104922892533816
v -1.1857050346049243 0 0.26104922892533816
v -1.2054834728206403 3 0.25808049489428819
v -1.2054834728206403 0 0.25808049489428814
vn 0.76543784141540527 0 -0.64350980520248413
vn 0.76543784141540527 0 -0.64350980520248413
vn 0.76543784141540527 0 0.64350980520248413
vn 0.76543784141540527 0 0.64350980520248413
vn -0.64350980520248413 0 -0.76543784141540527
vn -0.64350980520248413 0 -0.76543784141540527
vn -0.64350980520248413 0 0.76543784141540527
vn -0.64350980520248413 0 0.76543784141540527
vn 0.64350980520248413 0 0.76543784141540527
vn 0.64350980520248413 0 0.76543784141540527
vn 0.64350980520248413 0 -0.76543784141540527
vn 0.64350980520248413 0 -0.76543784141540527
vn 0.99653345346450806 0 0.083192870020866394
vn 0.99653345346450806 0 0.083192870020866394
vn -0.083192870020866394 0 0.99653345346450806
vn -0.083192870020866394 0 0.99653345346450806
vn -0.76543784141540527 0 0.64350980520248413
vn -0.76543784141540527 0 0.64350980520248413
vn -0.76543784141540527 0 -0.64350980520248413
vn -0.76543784141540527 0 -0.64350980520248413
vn 0.99911648035049438 0 0.04202643409371376
vn 0.99911648035049438 0 0.04202643409371376
vn 0.04202643409371376 0 -0.99911648035049438
vn 0.04202643409371376 0 -0.99911648035049438
vn 0.083192870020866394 0 -0.99653345346450806
vn 0.083192870020866394 0 -0.99653345346450806
vn -0.99653345346450806 0 -0.083192870020866394
vn -0.99653345346450806 0 -0.083192870020866394
vn 0.9674268364906311 0 0.25315079092979431
vn 0.9674268364906311 0 0.25315079092979431
vn -0.25315079092979431 0 0.9674268364906311
vn -0.25315079092979431 0 0.9674268364906311
vn -0.04202643409371376 0 0.99911648035049438
vn -0.04202643409371376 0 0.99911648035049438
vn -0.99911648035049438 0 -0.04202643409371376
vn -0.99911648035049438 0 -0.04202643409371376
vn 0.99148291349411011 0 -0.13023678958415985
vn 0.99148291349411011 0 -0.13023678958415985
vn -0.13023678958415985 0 -0.99148291349411011
vn -0.13023678958415985 0 -0.99148291349411011
vn 0.25315079092979431 0 -0.9674268364906311
vn 0.25315079092979431 0 -0.9674268364906311
vn -0.9674268364906311 0 -0.25315079092979431
vn -0.9674268364906311 0 -0.25315079092979431
vn 0.86154228448867798 0 -0.50768584012985229
vn 0.86154228448867798 0 -0.50768584012985229
vn 0.50768584012985229 0 0.86154228448867798
vn 0.50768584012985229 0 0.86154228448867798
vn 0.13023678958415985 0 0.99148291349411011
vn 0.13023678958415985 0 0.99148291349411011
vn -0.99148291349411011 0 0.13023678958415985
vn -0.99148291349411011 0 0.13023678958415985
vn 0.79132413864135742 0 0.61139684915542603
vn 0.79132413864135742 0 0.61139684915542603
vn 0.61139684915542603 0 -0.79132413864135742
vn 0.61139684915542603 0 -0.79132413864135742
vn -0.50768584012985229 0 -0.86154228448867798
vn -0.50768584012985229 0 -0.86154228448867798
vn -0.86154228448867798 0 0.50768584012985229
vn -0.86154228448867798 0 0.50768584012985229
vn 0.93594968318939209 0 -0.35213384032249451
vn 0.93594968318939209 0 -0.35213384032249451
vn 0.35213384032249451 0 0.93594968318939209
vn 0.35213384032249451 0 0.93594968318939209
vn -0.61139684915542603 0 0.79132413864135742
vn -0.61139684915542603 0 0.79132413864135742
vn -0.79132413864135742 0 -0.61139684915542603
vn -0.79132413864135742 0 -0.61139684915542603
vn 0.88459199666976929 0 0.4663657546043396
vn 0.88459199666976929 0 0.4663657546043396
vn 0.4663657546043396 0 -0.88459199666976929
vn 0.4663657546043396 0 -0.88459199666976929
vn -0.35213384032249451 0 -0.93594968318939209
vn -0.35213384032249451 0 -0.93594968318939209
vn -0.93594968318939209 0 0.35213384032249451
vn -0.93594968318939209 0 0.35213384032249451
vn 0.91206097602844238 0 0.41005462408065796
vn 0.91206097602844238 0 0.41005462408065796
vn 0.41005462408065796 0 -0.91206097602844238
vn 0.41005462408065796 0 -0.91206097602844238
vn -0.4663657546043396 0 0.88459199666976929
vn -0.4663657546043396 0 0.88459199666976929
vn -0.88459199666976929 0 -0.4663657546043396
vn -0.88459199666976929 0 -0.4663657546043396
vn 0.95616430044174194 0 -0.29283076524734497
vn 0.95616430044174194 0 -0.29283076524734497
vn 0.29283076524734497 0 0.95616430044174194
vn 0.29283076524734497 0 0.95616430044174194
vn -0.41005462408065796 0 0.91206097602844238
vn -0.41005462408065796 0 0.91206097602844238
vn -0.91206097602844238 0 -0.41005462408065796
vn -0.91206097602844238 0 -0.41005462408065796
vn 0.82805848121643066 0 0.56064176559448242
vn 0.82805848121643066 0 0.56064176559448242
vn 0.56064176559448242 0 -0.82805848121643066
vn 0.56064176559448242 0 -0.82805848121643066
vn -0.29283076524734497 0 -0.95616430044174194
vn -0.29283076524734497 0 -0.95616430044174194
vn -0.95616430044174194 0 0.29283076524734497
vn -0.95616430044174194 0 0.29283076524734497
vn 0.89164406061172485 0 -0.45273706316947937
vn 0.89164406061172485 0 -0.45273706316947937
vn 0.45273706316947937 0 0.89164406061172485
vn 0.45273706316947937 0 0.89164406061172485
vn -0.56064176559448242 0 0.82805848121643066
vn -0.56064176559448242 0 0.82805848121643066
vn -0.82805848121643066 0 -0.56064176559448242
vn -0.82805848121643066 0 -0.56064176559448242
vn 0.98138105869293213 0 -0.19207076728343964
vn 0.98138105869293213 0 -0.19207076728343964
vn -0.19207076728343964 0 -0.98138105869293213
vn -0.19207076728343964 0 -0.98138105869293213
vn -0.45273706316947937 0 -0.89164406061172485
vn -0.45273706316947937 0 -0.89164406061172485
vn -0.89164406061172485 0 0.45273706316947937
vn -0.89164406061172485 0 0.45273706316947937
vn 0.94967496395111084 0 0.31323704123497009
vn 0.94967496395111084 0 0.31323704123497009
vn -0.31323704123497009 0 0.94967496395111084
vn -0.31323704123497009 0 0.94967496395111084
vn 0.19207076728343964 0 0.98138105869293213
vn 0.19207076728343964 0 0.98138105869293213
vn -0.98138105869293213 0 0.19207076728343964
vn -0.98138105869293213 0 0.19207076728343964
vn 0.99978733062744141 0 -0.020623717457056046
vn 0.99978733062744141 0 -0.020623717457056046
vn -0.020623717457056046 0 -0.99978733062744141
vn -0.020623717457056046 0 -0.99978733062744141
vn 0.31323704123497009 0 -0.94967496395111084
vn 0.31323704123497009 0 -0.94967496395111084
vn -0.94967496395111084 0 -0.31323704123497009
vn -0.94967496395111084 0 -0.31323704123497009
vn 0.98936772346496582 0 0.14543545246124268
vn 0.98936772346496582 0 0.14543545246124268
vn -0.14543545246124268 0 0.98936772346496582
vn -0.14543545246124268 0 0.98936772346496582
vn 0.020623717457056046 0 0.99978733062744141
vn 0.020623717457056046 0 0.99978733062744141
vn -0.99978733062744141 0 0.020623717457056046
vn -0.99978733062744141 0 0.020623717457056046
vn 0.72363698482513428 0 0.69018077850341797
vn 0.72363698482513428 0 0.69018077850341797
vn 0.80423402786254883 0 -0.59431278705596924
vn 0.80423402786254883 0 -0.59431278705596924
vn 0.69018077850341797 0 -0.72363698482513428
vn 0.69018077850341797 0 -0.72363698482513428
vn -0.69018077850341797 0 0.72363698482513428
vn -0.69018077850341797 0 0.72363698482513428
vn -0.59431278705596924 0 -0.80423402786254883
vn -0.59431278705596924 0 -0.80423402786254883
vn -0.72363698482513428 0 -0.69018077850341797
vn -0.72363698482513428 0 -0.69018077850341797
vn 0.14543545246124268 0 -0.98936772346496582
vn 0.14543545246124268 0 -0.98936772346496582
vn -0.98936772346496582 0 -0.14543545246124268
vn -0.98936772346496582 0 -0.14543545246124268
vn 0.59431278705596924 0 0.80423402786254883
vn 0.59431278705596924 0 0.80423402786254883
vn -0.80423402786254883 0 0.59431278705596924
vn -0.80423402786254883 0 0.59431278705596924
f 6//6 18//18 17//17 5//5
f 18//18 10//10 9//9 17//17
f 10//10 2//2 1//1 9//9
f 2//2 6//6 5//5 1//1
f 44//44 32//32 31//31 43//43
f 32//32 30//30 29//29 31//31
f 30//30 42//42 41//41 29//29
f 42//42 44//44 43//43 41//41
f 76//76 64//64 63//63 75//75
f 64//64 62//62 61//61 63//63
f 62//62 74//74 73//73 61//61
f 74//74 76//76 75//75 73//73
f 106//106 94//94 93//93 105//105
f 94//94 96//96 95//95 93//93
f 96//96 108//108 107//107 95//95
f 108//108 106//106 105//105 107//107
f 138//138 126//126 125//125 137//137
f 126//126 128//128 127//127 125//125
f 128//128 140//140 139//139 127//127
f 140//140 138//138 137//137 139//139
f 158//158 144//144 143//143 157//157
f 144//144 150//150 149//149 143//143
f 150//150 160//160 159//159 149//149
f 160//160 158//158 157//157 159//159
f 118//118 130//130 129//129 117//117
f 130//130 132//132 131//131 129//129
f 132//132 120//120 119//119 131//131
f 120//120 118//118 117//117 119//119
f 86//86 98//98 97//97 85//85
f 98//98 100//100 99//99 97//97
f 100//100 88//88 87//87 99//99
f 88//88 86//86 85//85 87//87
f 56//56 68//68 67//67 55//55
f 68//68 66//66 65//65 67//67
f 66//66 54//54 53//53 65//65
f 54//54 56//56 55//55 53//53
f 24//24 36//36 35//35 23//23
f 36//36 34//34 33//33 35//35
f 34//34 22//22 21//21 33//33
f 22//22 24//24 23//23 21//21
f 8//8 4//4 3//3 7//7
f 4//4 12//12 11//11 3//3
f 12//12 20//20 19//19 11//11
f 20//20 8//8 7//7 19//19
f 16//16 14//14 13//13 15//15
f 14//14 26//26 25//25 13//13
f 26//26 28//28 27//27 25//25
f 28//28 16//16 15//15 27//27
f 48//48 46//46 45//45 47//47
f 46//46 58//58 57//57 45//45
f 58//58 60//60 59//59 57//57
f 60//60 48//48 47//47 59//59
f 78//78 80//80 79//79 77//77
f 80//80 92//92 91//91 79//79
f 92//92 90//90 89//89 91//91
f 90//90 78//78 77//77 89//89
f 110//110 112//112 111//111 109//109
f 112//112 124//124 123//123 111//111
f 124//124 122//122 121//121 123//123
f 122//122 110//110 109//109 121//121
f 146//146 152//152 151//151 145//145
f 152//152 148//148 147//147 151//151
f 148//148 142//142 141//141 147//147
f 142//142 146//146 145//145 141//141
f 154//154 156//156 155//155 153//153
f 156//156 136//136 135//135 155//155
f 136//136 134//134 133//133 135//135
f 134//134 154//154 153//153 133//133
f 114//114 116//116 115//115 113//113
f 116//116 104//104 103//103 115//115
f 104//104 102//102 101//101 103//103
f 102//102 114//114 113//113 101//101
f 84//84 82//82 81//81 83//83
f 82//82 70//70 69//69 81//81
f 70//70 72//72 71//71 69//69
f 72//72 84//84 83//83 71//71
f 52//52 50//50 49//49 51//51
f 50//50 38//38 37//37 49//49
f 38//38 40//40 39//39 37//37
f 40//40 52//52 51//51 39//39
