# Rhino

mtllib Pannelli64.mtl
usemtl diffuse_Black
v 1.4559318778346197 3 -0.16033684966374034
v 1.4559318778346197 0 -0.1603368496637404
v 1.4559318778346213 3 0.1603368496637301
v 1.4559318778346213 0 0.1603368496637301
v 1.4470606486511861 3 -0.17826172882023666
v 1.4470606486511861 0 -0.17826172882023672
v 1.4470606486511877 3 0.17826172882022653
v 1.4470606486511877 0 0.17826172882022653
v 1.4463354339326906 3 -0.23142893251681446
v 1.4463354339326906 0 -0.23142893251681446
v 1.4425343300190878 3 -0.21179346437780638
v 1.4425343300190878 0 -0.21179346437780638
v 1.3613116808649837 3 -0.54062560593786957
v 1.3613116808649837 0 -0.54062560593786946
v 1.3480053353156207 3 -0.55555682049399147
v 1.3480053353156207 0 -0.55555682049399135
v 1.3347503765310951 3 -0.58668833053578973
v 1.3347503765310951 0 -0.58668833053578973
v 1.3332092694492153 3 -0.60662886686163076
v 1.3332092694492153 0 -0.60662886686163076
v 1.1721865807118188 3 -0.019908033462456558
v 1.1721865807118188 0 -0.019908033462456516
v 1.172186580711819 3 0.019908033462448096
v 1.172186580711819 0 0.019908033462448096
v 1.1692478241205686 3 -0.8822159962528745
v 1.1692478241205684 0 -0.8822159962528745
v 1.1633153515283852 3 -0.037832912618952871
v 1.1633153515283852 0 -0.037832912618952851
v 1.1633153515283854 3 0.037832912618944503
v 1.1633153515283854 0 0.037832912618944503
v 1.1524588398977718 3 -0.89308475923523289
v 1.1524588398977718 0 -0.89308475923523289
v 1.1355120418972187 3 -0.29159923268694887
v 1.1355120418972187 0 -0.29159923268694887
v 1.1317109379836159 3 -0.27196376454794086
v 1.1317109379836159 0 -0.27196376454794086
v 1.131424040352085 3 -0.91958762809758143
v 1.131424040352085 0 -0.91958762809758143
v 1.1249551691338759 3 -0.32999026839617496
v 1.1249551691338759 0 -0.32999026839617496
v 1.12465103581737 3 -0.93840587481646409
v 1.12465103581737 0 -0.93840587481646409
v 1.111648823584513 3 -0.3449214829522968
v 1.111648823584513 0 -0.34492148295229691
v 1.0190978493834761 3 -0.56229308172946357
v 1.0190978493834761 0 -0.56229308172946357
v 1.0175567423015963 3 -0.5822336180553046
v 1.0175567423015963 0 -0.5822336180553046
v 0.99719866524694267 3 -0.61645156486695973
v 0.99719866524694267 0 -0.61645156486695973
v 0.98040968102414594 3 -0.62732032784931813
v 0.98040968102414583 0 -0.62732032784931824
v 0.89348837527368186 3 -1.1606567371561376
v 0.89348837527368186 0 -1.1606567371561376
v 0.87441851982686525 3 -1.166685054768666
v 0.87441851982686525 0 -1.166685054768666
v 0.84710956545452598 3 -1.1866621882204791
v 0.84710956545452598 0 -1.1866621882204791
v 0.83558947995596289 3 -1.2030111218280819
v 0.83558947995596289 0 -1.2030111218280819
v 0.83353701082394893 3 -0.81237305960101835
v 0.83353701082394893 0 -0.81237305960101835
v 0.82676400628923397 3 -0.8311913063199009
v 0.82676400628923397 0 -0.8311913063199009
v 0.79806197059984163 3 -0.85878681922785982
v 0.79806197059984163 0 -0.85878681922785982
v 0.77899211515302502 3 -0.86481513684038824
v 0.77899211515302502 0 -0.86481513684038824
v 0.5883109993035861 3 -1.0043027952152974
v 0.5883109993035861 0 -1.0043027952152974
v 0.5767909138050229 3 -1.0206517288228998
v 0.5767909138050229 0 -1.0206517288228998
v 0.55377239209546059 3 -1.3560168420812504
v 0.55377239209546059 0 -1.3560168420812504
v 0.54179943163991773 3 -1.0396495013570051
v 0.54179943163991773 0 -1.0396495013570051
v 0.53378669926091149 3 -1.3567732030552904
v 0.53378669926091149 0 -1.3567732030552904
v 0.52181373880536863 3 -1.040405862331045
v 0.52181373880536863 0 -1.040405862331045
v 0.50215838446798255 3 -1.3687946236544319
v 0.50215838446798255 0 -1.3687946236544319
v 0.48671583393128248 3 -1.3815039758378231
v 0.48671583393128248 0 -1.3815039758378231
v 0.30097326740081037 3 -1.1243438213860224
v 0.30097326740081037 0 -1.1243438213860224
v 0.28553071686411041 3 -1.1370531735694136
v 0.28553071686411041 0 -1.1370531735694136
v 0.24675450344100444 3 -1.146093331639614
v 0.24675450344100444 0 -1.146093331639614
v 0.22728356334757227 3 -1.1415235951178904
v 0.22728356334757224 0 -1.1415235951178904
v 0.1744169866405362 3 -1.4543122955632226
v 0.17441698664053623 0 -1.4543122955632226
v 0.15494604654710403 3 -1.449742559041499
v 0.15494604654710403 0 -1.449742559041499
v 0.1212623486352227 3 -1.452947764938658
v 0.1212623486352227 0 -1.452947764938658
v 0.103002721827488 3 -1.4611077912157149
v 0.103002721827488 0 -1.4611077912157149
v -0.0079083453649232208 3 -1.1639035159550093
v -0.0079083453649232208 0 -1.1639035159550093
v -0.026167972172657896 3 -1.1720635422320662
v -0.026167972172657896 0 -1.1720635422320662
v -0.065953287876751518 3 -1.1704989848844183
v -0.065953287876751504 0 -1.1704989848844183
v -0.083515731468083165 3 -1.1609302558621661
v -0.083515731468083165 0 -1.1609302558621661
v -0.21742331095484446 3 -1.4485070390262411
v -0.21742331095484449 0 -1.4485070390262411
v -0.2349857545461761 3 -1.438938310003989
v -0.23498575454617615 0 -1.438938310003989
v -0.26831373248767465 3 -1.4330978702779877
v -0.26831373248767465 0 -1.4330978702779877
v -0.28808339847326581 3 -1.4361244701554354
v -0.28808339847326581 0 -1.4361244701554354
v -0.31622387313634359 3 -1.1201501678067514
v -0.31622387313634359 0 -1.1201501678067514
v -0.33599353912193475 3 -1.1231767676841991
v -0.33599353912193475 0 -1.1231767676841991
v -0.37394009586994914 3 -1.1111194870480765
v -0.37394009586994914 0 -1.1111194870480765
v -0.38833691073723392 3 -1.0972367019644873
v -0.38833691073723392 0 -1.0972367019644873
v -0.59370029308206762 3 -1.3390166168682907
v -0.59370029308206762 0 -1.3390166168682907
v -0.60190387082329344 3 -0.99621567276708689
v -0.60190387082329344 0 -0.99621567276708689
v -0.60809710794935246 3 -1.3251338317847015
v -0.60809710794935246 0 -1.3251338317847015
v -0.62176844921361518 3 -0.99389220006985846
v -0.62176844921361518 0 -0.99389220006985846
v -0.63868372551999109 3 -1.310665809271256
v -0.63868372551999109 0 -1.310665809271256
v -0.65516000544430231 3 -0.97220526488156267
v -0.6551600054443022 0 -0.97220526488156267
v -0.65854830391031283 3 -1.3083423365740274
v -0.65854830391031283 0 -1.3083423365740274
v -0.66536065732452943 3 -0.95500216338158828
v -0.66536065732452931 0 -0.95500216338158816
v -0.84449916070228559 3 -0.80097135026914601
v -0.84449916070228559 0 -0.80097135026914601
v -0.86303673082667565 3 -0.7934641208279124
v -0.86303673082667565 0 -0.7934641208279124
v -0.88948309516033142 3 -0.76369989735576371
v -0.88948309516033142 0 -0.76369989735576371
v -0.89475741412601861 3 -0.74440788969849292
v -0.89475741412601861 0 -0.74440788969849292
v -0.9274797853394352 3 -1.1336784314971555
v -0.9274797853394352 0 -1.1336784314971555
v -0.93768043721966232 3 -1.1164753299971812
v -0.93768043721966232 0 -1.1164753299971812
v -0.96333628254697357 3 -1.0944153560533358
v -0.96333628254697357 0 -1.0944153560533358
v -0.98187385267136373 3 -1.0869081266121021
v -0.98187385267136373 0 -1.0869081266121021
v -1.1948696139209758 3 -0.84719073648351106
v -1.1948696139209758 0 -0.84719073648351106
v -1.200143932886663 3 -0.82789872882624027
v -1.200143932886663 0 -0.82789872882624027
vn 0.94738548994064331 0 0.32009485363960266
vn 0.94738548994064331 0 0.32009485363960266
vn 0.94738548994064331 0 -0.32009485363960266
vn 0.94738548994064331 0 -0.32009485363960266
vn 0.32009485363960266 0 -0.94738548994064331
vn 0.32009485363960266 0 -0.94738548994064331
vn 0.32009485363960266 0 0.94738548994064331
vn 0.32009485363960266 0 0.94738548994064331
vn 0.82860797643661499 0 -0.55982929468154907
vn 0.82860797643661499 0 -0.55982929468154907
vn 0.55982929468154907 0 0.82860797643661499
vn 0.55982929468154907 0 0.82860797643661499
vn 0.99834853410720825 0 0.057447794824838638
vn 0.99834853410720825 0 0.057447794824838638
vn 0.057447794824838638 0 -0.99834853410720825
vn 0.057447794824838638 0 -0.99834853410720825
vn 0.75949078798294067 0 0.65051805973052979
vn 0.75949078798294067 0 0.65051805973052979
vn 0.65051805973052979 0 -0.75949078798294067
vn 0.65051805973052979 0 -0.75949078798294067
vn -0.32009485363960266 0 0.94738548994064331
vn -0.32009485363960266 0 0.94738548994064331
vn -0.32009485363960266 0 -0.94738548994064331
vn -0.32009485363960266 0 -0.94738548994064331
vn 0.97784900665283203 0 -0.20931144058704376
vn 0.97784900665283203 0 -0.20931144058704376
vn -0.94738548994064331 0 -0.32009485363960266
vn -0.94738548994064331 0 -0.32009485363960266
vn -0.94738548994064331 0 0.32009485363960266
vn -0.94738548994064331 0 0.32009485363960266
vn -0.20931144058704376 0 -0.97784900665283203
vn -0.20931144058704376 0 -0.97784900665283203
vn -0.55982929468154907 0 -0.82860797643661499
vn -0.55982929468154907 0 -0.82860797643661499
vn -0.82860797643661499 0 0.55982929468154907
vn -0.82860797643661499 0 0.55982929468154907
vn 0.90478736162185669 0 0.42586362361907959
vn 0.90478736162185669 0 0.42586362361907959
vn -0.057447794824838638 0 0.99834853410720825
vn -0.057447794824838638 0 0.99834853410720825
vn 0.42586362361907959 0 -0.90478736162185669
vn 0.42586362361907959 0 -0.90478736162185669
vn -0.99834853410720825 0 -0.057447794824838638
vn -0.99834853410720825 0 -0.057447794824838638
vn -0.65051805973052979 0 0.75949078798294067
vn -0.65051805973052979 0 0.75949078798294067
vn -0.75949078798294067 0 -0.65051805973052979
vn -0.75949078798294067 0 -0.65051805973052979
vn 0.20931144058704376 0 0.97784900665283203
vn 0.20931144058704376 0 0.97784900665283203
vn -0.97784900665283203 0 0.20931144058704376
vn -0.97784900665283203 0 0.20931144058704376
vn 0.88735443353652954 0 -0.46108794212341309
vn 0.88735443353652954 0 -0.46108794212341309
vn -0.46108794212341309 0 -0.88735443353652954
vn -0.46108794212341309 0 -0.88735443353652954
vn 0.98531860113143921 0 0.17072558403015137
vn 0.98531860113143921 0 0.17072558403015137
vn 0.17072558403015137 0 -0.98531860113143921
vn 0.17072558403015137 0 -0.98531860113143921
vn -0.42586362361907959 0 0.90478736162185669
vn -0.42586362361907959 0 0.90478736162185669
vn -0.90478736162185669 0 -0.42586362361907959
vn -0.90478736162185669 0 -0.42586362361907959
vn 0.46108794212341309 0 0.88735443353652954
vn 0.46108794212341309 0 0.88735443353652954
vn -0.88735443353652954 0 0.46108794212341309
vn -0.88735443353652954 0 0.46108794212341309
vn -0.17072558403015137 0 0.98531860113143921
vn -0.17072558403015137 0 0.98531860113143921
vn -0.98531860113143921 0 -0.17072558403015137
vn -0.98531860113143921 0 -0.17072558403015137
vn 0.73334234952926636 0 -0.67985951900482178
vn 0.73334234952926636 0 -0.67985951900482178
vn 0.67985951900482178 0 0.73334234952926636
vn 0.67985951900482178 0 0.73334234952926636
vn -0.67985951900482178 0 -0.73334234952926636
vn -0.67985951900482178 0 -0.73334234952926636
vn -0.73334234952926636 0 0.67985951900482178
vn -0.73334234952926636 0 0.67985951900482178
vn 0.99532008171081543 0 -0.096633151173591614
vn 0.99532008171081543 0 -0.096633151173591614
vn -0.096633151173591614 0 -0.99532008171081543
vn -0.096633151173591614 0 -0.99532008171081543
vn 0.096633151173591614 0 0.99532008171081543
vn 0.096633151173591614 0 0.99532008171081543
vn -0.99532008171081543 0 0.096633151173591614
vn -0.99532008171081543 0 0.096633151173591614
vn 0.84996628761291504 0 0.52683711051940918
vn 0.84996628761291504 0 0.52683711051940918
vn -0.52683711051940918 0 0.84996628761291504
vn -0.52683711051940918 0 0.84996628761291504
vn 0.52683711051940918 0 -0.84996628761291504
vn 0.52683711051940918 0 -0.84996628761291504
vn -0.84996628761291504 0 -0.52683711051940918
vn -0.84996628761291504 0 -0.52683711051940918
vn 0.93407577276229858 0 -0.3570747971534729
vn 0.93407577276229858 0 -0.3570747971534729
vn -0.3570747971534729 0 -0.93407577276229858
vn -0.3570747971534729 0 -0.93407577276229858
vn 0.3570747971534729 0 0.93407577276229858
vn 0.3570747971534729 0 0.93407577276229858
vn -0.93407577276229858 0 0.3570747971534729
vn -0.93407577276229858 0 0.3570747971534729
vn 0.95923179388046265 0 0.28262048959732056
vn 0.95923179388046265 0 0.28262048959732056
vn -0.28262048959732056 0 0.95923179388046265
vn -0.28262048959732056 0 0.95923179388046265
vn 0.28262048959732056 0 -0.95923179388046265
vn 0.28262048959732056 0 -0.95923179388046265
vn -0.95923179388046265 0 -0.28262048959732056
vn -0.95923179388046265 0 -0.28262048959732056
vn 0.8059697151184082 0 -0.59195679426193237
vn 0.8059697151184082 0 -0.59195679426193237
vn -0.59195679426193237 0 -0.8059697151184082
vn -0.59195679426193237 0 -0.8059697151184082
vn 0.59195679426193237 0 0.8059697151184082
vn 0.59195679426193237 0 0.8059697151184082
vn -0.8059697151184082 0 0.59195679426193237
vn -0.8059697151184082 0 0.59195679426193237
vn 0.99983483552932739 0 0.018173720687627792
vn 0.99983483552932739 0 0.018173720687627792
vn -0.018173720687627792 0 0.99983483552932739
vn -0.018173720687627792 0 0.99983483552932739
vn 0.018173720687627792 0 -0.99983483552932739
vn 0.018173720687627792 0 -0.99983483552932739
vn 0.78446608781814575 0 0.62017172574996948
vn 0.78446608781814575 0 0.62017172574996948
vn -0.99983483552932739 0 -0.018173720687627792
vn -0.99983483552932739 0 -0.018173720687627792
vn -0.62017172574996948 0 0.78446608781814575
vn -0.62017172574996948 0 0.78446608781814575
vn 0.62017172574996948 0 -0.78446608781814575
vn 0.62017172574996948 0 -0.78446608781814575
vn 0.96886897087097168 0 -0.24757397174835205
vn 0.96886897087097168 0 -0.24757397174835205
vn -0.78446608781814575 0 -0.62017172574996948
vn -0.78446608781814575 0 -0.62017172574996948
vn 0.24757397174835205 0 0.96886897087097168
vn 0.24757397174835205 0 0.96886897087097168
vn 0.92082273960113525 0 0.38998141884803772
vn 0.92082273960113525 0 0.38998141884803772
vn -0.38998141884803772 0 0.92082273960113525
vn -0.38998141884803772 0 0.92082273960113525
vn 0.86855077743530273 0 -0.49560016393661499
vn 0.86855077743530273 0 -0.49560016393661499
vn 0.49560016393661499 0 0.86855077743530273
vn 0.49560016393661499 0 0.86855077743530273
vn -0.24757397174835205 0 -0.96886897087097168
vn -0.24757397174835205 0 -0.96886897087097168
vn -0.96886897087097168 0 0.24757397174835205
vn -0.96886897087097168 0 0.24757397174835205
vn 0.38998141884803772 0 -0.92082273960113525
vn 0.38998141884803772 0 -0.92082273960113525
vn -0.92082273960113525 0 -0.38998141884803772
vn -0.92082273960113525 0 -0.38998141884803772
vn -0.49560016393661499 0 -0.86855077743530273
vn -0.49560016393661499 0 -0.86855077743530273
vn -0.86855077743530273 0 0.49560016393661499
vn -0.86855077743530273 0 0.49560016393661499
f 6//6 28//28 27//27 5//5
f 28//28 22//22 21//21 27//27
f 22//22 2//2 1//1 21//21
f 2//2 6//6 5//5 1//1
f 16//16 44//44 43//43 15//15
f 44//44 40//40 39//39 43//43
f 40//40 14//14 13//13 39//39
f 14//14 16//16 15//15 13//13
f 32//32 52//52 51//51 31//31
f 52//52 50//50 49//49 51//51
f 50//50 26//26 25//25 49//49
f 26//26 32//32 31//31 25//25
f 56//56 68//68 67//67 55//55
f 68//68 66//66 65//65 67//67
f 66//66 54//54 53//53 65//65
f 54//54 56//56 55//55 53//53
f 78//78 80//80 79//79 77//77
f 80//80 76//76 75//75 79//79
f 76//76 74//74 73//73 75//75
f 74//74 78//78 77//77 73//73
f 96//96 92//92 91//91 95//95
f 92//92 90//90 89//89 91//91
f 90//90 94//94 93//93 89//89
f 94//94 96//96 95//95 93//93
f 112//112 108//108 107//107 111//111
f 108//108 106//106 105//105 107//107
f 106//106 110//110 109//109 105//105
f 110//110 112//112 111//111 109//109
f 130//130 124//124 123//123 129//129
f 124//124 122//122 121//121 123//123
f 122//122 126//126 125//125 121//121
f 126//126 130//130 129//129 125//125
f 152//152 140//140 139//139 151//151
f 140//140 136//136 135//135 139//139
f 136//136 150//150 149//149 135//135
f 150//150 152//152 151//151 149//149
f 160//160 148//148 147//147 159//159
f 148//148 146//146 145//145 147//147
f 146//146 158//158 157//157 145//145
f 158//158 160//160 159//159 157//157
f 8//8 4//4 3//3 7//7
f 4//4 24//24 23//23 3//3
f 24//24 30//30 29//29 23//23
f 30//30 8//8 7//7 29//29
f 12//12 10//10 9//9 11//11
f 10//10 34//34 33//33 9//9
f 34//34 36//36 35//35 33//33
f 36//36 12//12 11//11 35//35
f 18//18 20//20 19//19 17//17
f 20//20 48//48 47//47 19//19
f 48//48 46//46 45//45 47//47
f 46//46 18//18 17//17 45//45
f 38//38 42//42 41//41 37//37
f 42//42 64//64 63//63 41//41
f 64//64 62//62 61//61 63//63
f 62//62 38//38 37//37 61//61
f 58//58 60//60 59//59 57//57
f 60//60 72//72 71//71 59//59
f 72//72 70//70 69//69 71//71
f 70//70 58//58 57//57 69//69
f 82//82 84//84 83//83 81//81
f 84//84 88//88 87//87 83//83
f 88//88 86//86 85//85 87//87
f 86//86 82//82 81//81 85//85
f 98//98 100//100 99//99 97//97
f 100//100 104//104 103//103 99//99
f 104//104 102//102 101//101 103//103
f 102//102 98//98 97//97 101//101
f 114//114 116//116 115//115 113//113
f 116//116 120//120 119//119 115//115
f 120//120 118//118 117//117 119//119
f 118//118 114//114 113//113 117//117
f 134//134 138//138 137//137 133//133
f 138//138 132//132 131//131 137//137
f 132//132 128//128 127//127 131//131
f 128//128 134//134 133//133 127//127
f 154//154 156//156 155//155 153//153
f 156//156 144//144 143//143 155//155
f 144//144 142//142 141//141 143//143
f 142//142 154//154 153//153 141//141
