# Rhino

mtllib Pannelli69.mtl
usemtl diffuse_Black
v 1.4480138265681044 3 -0.17340292835639945
v 1.4480138265681044 0 -0.17340292835639942
v 1.4480138265681042 3 0.17340292835640161
v 1.4480138265681042 0 0.17340292835640161
v 1.4383382238926641 3 -0.19090671974189694
v 1.4383382238926641 0 -0.19090671974189694
v 1.4383382238926639 3 0.1909067197418991
v 1.4383382238926639 0 0.1909067197418991
v 1.4375507488112331 3 -0.24548006454138355
v 1.4375507488112331 0 -0.24548006454138355
v 1.4332515121161913 3 -0.22594761554388174
v 1.4332515121161913 0 -0.22594761554388174
v 1.3389406013552254 3 -0.57797117881213245
v 1.3389406013552254 0 -0.57797117881213256
v 1.3246873721531165 3 -0.59200134122431269
v 1.3246873721531163 0 -0.59200134122431269
v 1.309847154581993 3 -0.62414954424943037
v 1.309847154581993 0 -0.62414954424943037
v 1.3084151151081505 3 -0.64409820994278844
v 1.3084151151081505 0 -0.64409820994278844
v 1.1721676796923328 3 -0.020922950850928122
v 1.1721676796923328 0 -0.020922950850928133
v 1.1721676796923328 3 0.020922950850929899
v 1.1721676796923328 0 0.020922950850929899
v 1.1624920770168925 3 -0.038426742236425629
v 1.1624920770168925 0 -0.038426742236425636
v 1.1624920770168925 3 0.038426742236427384
v 1.1624920770168925 0 0.038426742236427384
v 1.129734534806734 3 -0.31323269314142499
v 1.129734534806734 0 -0.31323269314142499
v 1.1254352981116922 3 -0.29370024414392315
v 1.1254352981116922 0 -0.29370024414392315
v 1.1193352759334465 3 -0.93482680617640268
v 1.1193352759334465 0 -0.93482680617640268
v 1.1178361471140863 3 -0.35335136534723233
v 1.1178361471140863 0 -0.35335136534723227
v 1.1035829179119774 3 -0.36738152775941257
v 1.1035829179119774 0 -0.36738152775941246
v 1.1016810514584179 3 -0.94422512295044814
v 1.1016810514584179 0 -0.94422512295044814
v 1.0783124163557323 3 -0.97082673772737449
v 1.0783124163557323 0 -0.97082673772737449
v 1.0712673183026924 3 -0.98954481971840835
v 1.0712673183026924 0 -0.98954481971840835
v 0.99547168896801463 3 -0.60158171523835557
v 0.99547168896801463 0 -0.60158171523835557
v 0.99403964949417212 3 -0.62153038093171364
v 0.99403964949417212 0 -0.62153038093171364
v 0.9712251087049717 3 -0.65660995073836148
v 0.9712251087049717 0 -0.65660995073836148
v 0.95357088422994318 3 -0.66600826751240694
v 0.95357088422994318 0 -0.66600826751240694
v 0.80732668873769131 3 -1.2145106978313587
v 0.80732668873769131 0 -1.2145106978313587
v 0.78772885888949606 3 -1.2185013199935266
v 0.78772885888949606 0 -1.2185013199935266
v 0.78332999338139431 3 -0.85980146843039196
v 0.78332999338139431 0 -0.85980146843039196
v 0.77628489532835432 3 -0.8785195504214256
v 0.77628489532835432 0 -0.8785195504214256
v 0.75776093165058012 3 -1.2373603324890288
v 0.75776093165058012 0 -1.2373603324890288
v 0.74568436129871385 3 -1.2533026174110977
v 0.74568436129871385 0 -1.2533026174110977
v 0.74443758529561144 3 -0.90566413243920441
v 0.74443758529561144 0 -0.90566413243920441
v 0.72483975544741619 3 -0.90965475460137257
v 0.72483975544741619 0 -0.90965475460137257
v 0.50652291290956475 3 -1.0470429706289819
v 0.50652291290956475 0 -1.0470429706289819
v 0.49444634255769848 3 -1.0629852555510508
v 0.49444634255769848 0 -1.0629852555510508
v 0.45619531946236713 3 -1.0799540127654725
v 0.45619531946236713 0 -1.0799540127654725
v 0.43627172247106932 3 -1.0782075068455419
v 0.43627172247106932 0 -1.0782075068455419
v 0.42867174368965139 3 -1.3939344151204005
v 0.42867174368965139 0 -1.3939344151204005
v 0.40874814669835358 3 -1.3921879092004699
v 0.40874814669835358 0 -1.3921879092004699
v 0.37465483687025691 3 -1.4017474719659873
v 0.37465483687025691 0 -1.4017474719659873
v 0.3585437381340002 3 -1.4135978937943692
v 0.3585437381340002 0 -1.4135978937943692
v 0.18790139995943425 3 -1.1478490787290976
v 0.18790139995943425 0 -1.1478490787290976
v 0.17179030122317757 3 -1.1596995005574795
v 0.17179030122317757 0 -1.1596995005574795
v 0.13029325997240035 3 -1.1650916296984468
v 0.13029325997240038 0 -1.1650916296984468
v 0.11168862676701585 3 -1.1577521730909652
v 0.11168862676701585 0 -1.1577521730909652
v 0.014629128656647032 3 -1.45828618799251
v 0.014629128656647032 0 -1.45828618799251
v -0.0039755045487374768 3 -1.4509467313850284
v -0.0039755045487374872 0 -1.4509467313850284
v -0.039379729218485343 3 -1.4504176842827012
v -0.039379729218485343 0 -1.4504176842827012
v -0.058195354412094807 3 -1.4571979680948741
v -0.058195354412094807 0 -1.4571979680948741
v -0.14623173191440883 3 -1.1538980562542198
v -0.14623173191440883 0 -1.1538980562542198
v -0.16504735710801829 3 -1.1606783400663925
v -0.16504735710801829 0 -1.1606783400663925
v -0.20636475661770756 3 -1.1540487105896928
v -0.20636475661770753 0 -1.1540487105896928
v -0.22211457808415833 3 -1.1417221894350877
v -0.22211457808415827 0 -1.1417221894350877
v -0.40062114884697714 3 -1.4022536548683004
v -0.40062114884697714 0 -1.4022536548683004
v -0.4163709703134279 3 -1.3899271337136954
v -0.4163709703134279 0 -1.3899271337136954
v -0.4501634235570014 3 -1.3793531505907959
v -0.4501634235570014 0 -1.3793531505907959
v -0.46829315543216488 3 -1.064690548573312
v -0.46829315543216488 0 -1.064690548573312
v -0.47013030946392076 3 -1.3805035710270137
v -0.47013030946392076 0 -1.3805035710270137
v -0.48826004133908424 3 -1.0658409690095298
v -0.48826004133908424 0 -1.0658409690095298
v -0.52598696897948205 3 -1.0477368694721949
v -0.52598696897948205 0 -1.0477368694721949
v -0.53758180090759566 3 -1.0314408616003632
v -0.53758180090759566 0 -1.0314408616003632
v -0.75169608586144521 3 -0.88759080557796255
v -0.75169608586144521 0 -0.88759080557796255
v -0.77116592797011552 3 -0.88301639323718584
v -0.77116592797011552 0 -0.88301639323718584
v -0.78279938646672631 3 -1.2304624082198918
v -0.78279938646672631 0 -1.2304624082198918
v -0.79439421839483992 3 -1.2141664003480601
v -0.79439421839483992 0 -1.2141664003480601
v -0.8021879539134158 3 -0.85493235158334346
v -0.8021879539134158 0 -0.85493235158334346
v -0.8086706208143869 3 -0.83601212352311494
v -0.80867062081438679 0 -0.83601212352311494
v -0.82378526874954183 3 -1.1944203836776062
v -0.82378526874954183 0 -1.1944203836776062
v -0.84325511085821214 3 -1.1898459713368295
v -0.84325511085821214 0 -1.1898459713368295
v -0.97304507080204738 3 -0.63721874880906648
v -0.97304507080204738 0 -0.63721874880906648
v -0.99041059651439467 3 -0.6272971301541389
v -0.99041059651439467 0 -0.6272971301541389
v -1.0121667933551715 3 -0.59155153758292922
v -1.0121667933551715 0 -0.59155153758292922
v -1.0130021387128751 3 -0.57156899024447994
v -1.0130021387128751 0 -0.57156899024447994
v -1.1003560418140217 3 -0.95709414309061425
v -1.1003560418140217 0 -0.95709414309061425
v -1.1068387087149927 3 -0.93817391503038572
v -1.1068387087149927 0 -0.93817391503038572
v -1.1294020689207591 3 -0.91088593614723457
v -1.1294020689207591 0 -0.91088593614723457
v -1.1467675946331064 3 -0.90096431749230699
v -1.1467675946331064 0 -0.90096431749230699
v -1.3270762073602373 3 -0.60471593112249544
v -1.3270762073602373 0 -0.60471593112249544
v -1.327911552717941 3 -0.58473338378404616
v -1.327911552717941 0 -0.58473338378404616
vn 0.96093672513961792 0 0.27676823735237122
vn 0.96093672513961792 0 0.27676823735237122
vn 0.96093672513961792 0 -0.27676823735237122
vn 0.96093672513961792 0 -0.27676823735237122
vn 0.27676823735237122 0 -0.96093672513961792
vn 0.27676823735237122 0 -0.96093672513961792
vn 0.27676823735237122 0 0.96093672513961792
vn 0.27676823735237122 0 0.96093672513961792
vn 0.84257733821868896 0 -0.53857535123825073
vn 0.84257733821868896 0 -0.53857535123825073
vn 0.53857535123825073 0 0.84257733821868896
vn 0.53857535123825073 0 0.84257733821868896
vn 0.99996888637542725 0 -0.0078866025432944298
vn 0.99996888637542725 0 -0.0078866025432944298
vn -0.0078866025432944298 0 -0.99996888637542725
vn -0.0078866025432944298 0 -0.99996888637542725
vn 0.75592207908630371 0 0.65466159582138062
vn 0.75592207908630371 0 0.65466159582138062
vn 0.65466159582138062 0 -0.75592207908630371
vn 0.65466159582138062 0 -0.75592207908630371
vn -0.27676823735237122 0 0.96093672513961792
vn -0.27676823735237122 0 0.96093672513961792
vn -0.27676823735237122 0 -0.96093672513961792
vn -0.27676823735237122 0 -0.96093672513961792
vn -0.96093672513961792 0 -0.27676823735237122
vn -0.96093672513961792 0 -0.27676823735237122
vn -0.96093672513961792 0 0.27676823735237122
vn -0.96093672513961792 0 0.27676823735237122
vn -0.53857535123825073 0 -0.84257733821868896
vn -0.53857535123825073 0 -0.84257733821868896
vn -0.84257733821868896 0 0.53857535123825073
vn -0.84257733821868896 0 0.53857535123825073
vn 0.95645177364349365 0 -0.29189041256904602
vn 0.95645177364349365 0 -0.29189041256904602
vn 0.0078866025432944298 0 0.99996888637542725
vn 0.0078866025432944298 0 0.99996888637542725
vn -0.99996888637542725 0 0.0078866025432944298
vn -0.99996888637542725 0 0.0078866025432944298
vn -0.29189041256904602 0 -0.95645177364349365
vn -0.29189041256904602 0 -0.95645177364349365
vn 0.91086596250534058 0 0.4127022922039032
vn 0.91086596250534058 0 0.4127022922039032
vn 0.4127022922039032 0 -0.91086596250534058
vn 0.4127022922039032 0 -0.91086596250534058
vn -0.65466159582138062 0 0.75592207908630371
vn -0.65466159582138062 0 0.75592207908630371
vn -0.75592207908630371 0 -0.65466159582138062
vn -0.75592207908630371 0 -0.65466159582138062
vn 0.29189041256904602 0 0.95645177364349365
vn 0.29189041256904602 0 0.95645177364349365
vn -0.95645177364349365 0 0.29189041256904602
vn -0.95645177364349365 0 0.29189041256904602
vn 0.83397775888442993 0 -0.55179810523986816
vn 0.83397775888442993 0 -0.55179810523986816
vn -0.55179810523986816 0 -0.83397775888442993
vn -0.55179810523986816 0 -0.83397775888442993
vn -0.4127022922039032 0 0.91086596250534058
vn -0.4127022922039032 0 0.91086596250534058
vn -0.91086596250534058 0 -0.4127022922039032
vn -0.91086596250534058 0 -0.4127022922039032
vn 0.99061614274978638 0 0.13667367398738861
vn 0.99061614274978638 0 0.13667367398738861
vn 0.13667367398738861 0 -0.99061614274978638
vn 0.13667367398738861 0 -0.99061614274978638
vn 0.55179810523986816 0 0.83397775888442993
vn 0.55179810523986816 0 0.83397775888442993
vn -0.83397775888442993 0 0.55179810523986816
vn -0.83397775888442993 0 0.55179810523986816
vn -0.13667367398738861 0 0.99061614274978638
vn -0.13667367398738861 0 0.99061614274978638
vn -0.99061614274978638 0 -0.13667367398738861
vn -0.99061614274978638 0 -0.13667367398738861
vn 0.76615381240844727 0 0.64265722036361694
vn 0.76615381240844727 0 0.64265722036361694
vn -0.64265722036361694 0 0.76615381240844727
vn -0.64265722036361694 0 0.76615381240844727
vn 0.64265722036361694 0 -0.76615381240844727
vn 0.64265722036361694 0 -0.76615381240844727
vn -0.76615381240844727 0 -0.64265722036361694
vn -0.76615381240844727 0 -0.64265722036361694
vn 0.98858904838562012 0 -0.15063768625259399
vn 0.98858904838562012 0 -0.15063768625259399
vn -0.15063768625259399 0 -0.98858904838562012
vn -0.15063768625259399 0 -0.98858904838562012
vn 0.15063768625259399 0 0.98858904838562012
vn 0.15063768625259399 0 0.98858904838562012
vn -0.98858904838562012 0 0.15063768625259399
vn -0.98858904838562012 0 0.15063768625259399
vn 0.91726213693618774 0 0.39828410744667053
vn 0.91726213693618774 0 0.39828410744667053
vn -0.39828410744667053 0 0.91726213693618774
vn -0.39828410744667053 0 0.91726213693618774
vn 0.39828410744667053 0 -0.91726213693618774
vn 0.39828410744667053 0 -0.91726213693618774
vn -0.91726213693618774 0 -0.39828410744667053
vn -0.91726213693618774 0 -0.39828410744667053
vn 0.90495204925537109 0 -0.42551359534263611
vn 0.90495204925537109 0 -0.42551359534263611
vn -0.42551359534263611 0 -0.90495204925537109
vn -0.42551359534263611 0 -0.90495204925537109
vn 0.42551359534263611 0 0.90495204925537109
vn 0.42551359534263611 0 0.90495204925537109
vn -0.90495204925537109 0 0.42551359534263611
vn -0.90495204925537109 0 0.42551359534263611
vn 0.99264860153198242 0 0.12103196233510971
vn 0.99264860153198242 0 0.12103196233510971
vn -0.12103196233510971 0 0.99264860153198242
vn -0.12103196233510971 0 0.99264860153198242
vn 0.12103196233510971 0 -0.99264860153198242
vn 0.12103196233510971 0 -0.99264860153198242
vn -0.99264860153198242 0 -0.12103196233510971
vn -0.99264860153198242 0 -0.12103196233510971
vn 0.74660950899124146 0 -0.66526252031326294
vn 0.74660950899124146 0 -0.66526252031326294
vn 0.66526252031326294 0 0.74660950899124146
vn 0.66526252031326294 0 0.74660950899124146
vn -0.66526252031326294 0 -0.74660950899124146
vn -0.66526252031326294 0 -0.74660950899124146
vn -0.74660950899124146 0 0.66526252031326294
vn -0.74660950899124146 0 0.66526252031326294
vn 0.98609012365341187 0 -0.16621166467666626
vn 0.98609012365341187 0 -0.16621166467666626
vn 0.16621166467666626 0 0.98609012365341187
vn 0.16621166467666626 0 0.98609012365341187
vn 0.85009276866912842 0 0.52663296461105347
vn 0.85009276866912842 0 0.52663296461105347
vn -0.52663296461105347 0 0.85009276866912842
vn -0.52663296461105347 0 0.85009276866912842
vn -0.16621166467666626 0 -0.98609012365341187
vn -0.16621166467666626 0 -0.98609012365341187
vn -0.98609012365341187 0 0.16621166467666626
vn -0.98609012365341187 0 0.16621166467666626
vn 0.8981279730796814 0 -0.43973422050476074
vn 0.8981279730796814 0 -0.43973422050476074
vn 0.43973422050476074 0 0.8981279730796814
vn 0.43973422050476074 0 0.8981279730796814
vn 0.52663296461105347 0 -0.85009276866912842
vn 0.52663296461105347 0 -0.85009276866912842
vn -0.85009276866912842 0 -0.52663296461105347
vn -0.85009276866912842 0 -0.52663296461105347
vn 0.96474623680114746 0 0.26318186521530151
vn 0.96474623680114746 0 0.26318186521530151
vn -0.26318186521530151 0 0.96474623680114746
vn -0.26318186521530151 0 0.96474623680114746
vn 0.7360236644744873 0 -0.67695581912994385
vn 0.7360236644744873 0 -0.67695581912994385
vn 0.67695581912994385 0 0.7360236644744873
vn 0.67695581912994385 0 0.7360236644744873
vn -0.43973422050476074 0 -0.8981279730796814
vn -0.43973422050476074 0 -0.8981279730796814
vn -0.8981279730796814 0 0.43973422050476074
vn -0.8981279730796814 0 0.43973422050476074
vn 0.26318186521530151 0 -0.96474623680114746
vn 0.26318186521530151 0 -0.96474623680114746
vn -0.96474623680114746 0 -0.26318186521530151
vn -0.96474623680114746 0 -0.26318186521530151
vn -0.67695581912994385 0 -0.7360236644744873
vn -0.67695581912994385 0 -0.7360236644744873
vn -0.7360236644744873 0 0.67695581912994385
vn -0.7360236644744873 0 0.67695581912994385
f 6//6 26//26 25//25 5//5
f 26//26 22//22 21//21 25//25
f 22//22 2//2 1//1 21//21
f 2//2 6//6 5//5 1//1
f 16//16 38//38 37//37 15//15
f 38//38 36//36 35//35 37//37
f 36//36 14//14 13//13 35//35
f 14//14 16//16 15//15 13//13
f 40//40 52//52 51//51 39//39
f 52//52 50//50 49//49 51//51
f 50//50 34//34 33//33 49//49
f 34//34 40//40 39//39 33//33
f 56//56 68//68 67//67 55//55
f 68//68 66//66 65//65 67//67
f 66//66 54//54 53//53 65//65
f 54//54 56//56 55//55 53//53
f 80//80 76//76 75//75 79//79
f 76//76 74//74 73//73 75//75
f 74//74 78//78 77//77 73//73
f 78//78 80//80 79//79 77//77
f 96//96 92//92 91//91 95//95
f 92//92 90//90 89//89 91//91
f 90//90 94//94 93//93 89//89
f 94//94 96//96 95//95 93//93
f 112//112 108//108 107//107 111//111
f 108//108 106//106 105//105 107//107
f 106//106 110//110 109//109 105//105
f 110//110 112//112 111//111 109//109
f 132//132 124//124 123//123 131//131
f 124//124 122//122 121//121 123//123
f 122//122 130//130 129//129 121//121
f 130//130 132//132 131//131 129//129
f 152//152 136//136 135//135 151//151
f 136//136 134//134 133//133 135//135
f 134//134 150//150 149//149 133//133
f 150//150 152//152 151//151 149//149
f 160//160 148//148 147//147 159//159
f 148//148 146//146 145//145 147//147
f 146//146 158//158 157//157 145//145
f 158//158 160//160 159//159 157//157
f 8//8 4//4 3//3 7//7
f 4//4 24//24 23//23 3//3
f 24//24 28//28 27//27 23//23
f 28//28 8//8 7//7 27//27
f 12//12 10//10 9//9 11//11
f 10//10 30//30 29//29 9//9
f 30//30 32//32 31//31 29//29
f 32//32 12//12 11//11 31//31
f 18//18 20//20 19//19 17//17
f 20//20 48//48 47//47 19//19
f 48//48 46//46 45//45 47//47
f 46//46 18//18 17//17 45//45
f 42//42 44//44 43//43 41//41
f 44//44 60//60 59//59 43//43
f 60//60 58//58 57//57 59//59
f 58//58 42//42 41//41 57//57
f 62//62 64//64 63//63 61//61
f 64//64 72//72 71//71 63//63
f 72//72 70//70 69//69 71//71
f 70//70 62//62 61//61 69//69
f 82//82 84//84 83//83 81//81
f 84//84 88//88 87//87 83//83
f 88//88 86//86 85//85 87//87
f 86//86 82//82 81//81 85//85
f 98//98 100//100 99//99 97//97
f 100//100 104//104 103//103 99//99
f 104//104 102//102 101//101 103//103
f 102//102 98//98 97//97 101//101
f 114//114 118//118 117//117 113//113
f 118//118 120//120 119//119 117//117
f 120//120 116//116 115//115 119//119
f 116//116 114//114 113//113 115//115
f 138//138 140//140 139//139 137//137
f 140//140 128//128 127//127 139//139
f 128//128 126//126 125//125 127//127
f 126//126 138//138 137//137 125//125
f 154//154 156//156 155//155 153//153
f 156//156 144//144 143//143 155//155
f 144//144 142//142 141//141 143//143
f 142//142 154//154 153//153 141//141
