# Rhino

mtllib Pannelli96.mtl
usemtl diffuse_Black
v 1.3960260012078061 3 -0.23706361971718415
v 1.3960260012078061 0 -0.23706361971718415
v 1.3960260012078078 3 0.23706361971717446
v 1.3960260012078078 0 0.23706361971717446
v 1.3823484999891644 3 -0.25165560246162499
v 1.3823484999891644 0 -0.25165560246162499
v 1.3823484999891664 3 0.25165560246161539
v 1.3823484999891664 0 0.25165560246161539
v 1.3808262045014439 3 -0.31369849984309428
v 1.3808262045014439 0 -0.31369849984309428
v 1.3737533606357171 3 -0.2949908842908372
v 1.3737533606357171 0 -0.2949908842908372
v 1.1998676981036576 3 -0.75193434745933829
v 1.1998676981036576 0 -0.75193434745933829
v 1.1816563108968374 3 -0.76020147368332114
v 1.1816563108968374 0 -0.76020147368332114
v 1.1712568203103366 3 -0.02638075368861599
v 1.1712568203103366 0 -0.026380753688616022
v 1.1712568203103371 3 0.026380753688607907
v 1.1712568203103371 0 0.026380753688607907
v 1.157579319091695 3 -0.040972736433056871
v 1.157579319091695 0 -0.040972736433056905
v 1.1575793190916956 3 0.040972736433048815
v 1.1575793190916956 0 0.040972736433048815
v 1.1571721954768326 3 -0.79697580119345146
v 1.1571721954768326 0 -0.79697580119345146
v 1.1565695546279602 3 -0.81696671973180957
v 1.1565695546279602 0 -0.81696671973180957
v 1.0926614295103592 3 -0.4226458135945968
v 1.0926614295103592 0 -0.4226458135945968
v 1.0855885856446323 3 -0.40393819804233971
v 1.0855885856446323 0 -0.40393819804233971
v 1.0725241271658053 3 -0.47141327933766047
v 1.0725241271658053 0 -0.47141327933766042
v 1.0543127399589851 3 -0.47968040556164332
v 1.0543127399589851 0 -0.47968040556164332
v 0.8492399244517288 3 -0.78769295784387183
v 0.8492399244517288 0 -0.78769295784387183
v 0.8486372836028564 3 -0.80768387638222983
v 0.8486372836028564 0 -0.80768387638222983
v 0.82204962900962908 3 -1.152962342527631
v 0.82204962900962908 0 -1.152962342527631
v 0.81141146307333667 3 -0.84507391444881741
v 0.81141146307333667 0 -0.84507391444881741
v 0.80206155674900881 3 -1.1536529707229872
v 0.80206155674900881 0 -1.1536529707229872
v 0.7914233908127164 3 -0.84576454264417344
v 0.7914233908127164 0 -0.84576454264417344
v 0.76539535618441823 3 -1.1782987169660943
v 0.76539535618441823 0 -1.1782987169660943
v 0.75720847034325534 3 -1.1965463168143968
v 0.75720847034325534 0 -1.1965463168143968
v 0.48431648273178363 3 -1.0521911374241466
v 0.48431648273178363 0 -1.0521911374241466
v 0.47612959689062062 3 -1.0704387372724491
v 0.47612959689062062 0 -1.0704387372724491
v 0.42745124109063598 3 -1.0907905022407993
v 0.42745124109063598 0 -1.0907905022407993
v 0.40871267452640564 3 -1.0838000714158853
v 0.40871267452640564 0 -1.0838000714158853
v 0.31977338550689538 3 -1.3794320344848925
v 0.31977338550689538 0 -1.3794320344848925
v 0.30103481894266504 3 -1.3724416036599785
v 0.30103481894266504 0 -1.3724416036599785
v 0.25773778978021328 3 -1.3812274068348875
v 0.25773778978021328 0 -1.3812274068348875
v 0.24320615207457871 3 -1.394969004470977
v 0.24320615207457871 0 -1.394969004470977
v 0.04606760766852263 3 -1.1573877572548039
v 0.04606760766852263 0 -1.1573877572548039
v 0.031535969962888086 3 -1.1711293548908934
v 0.031535969962888086 0 -1.1711293548908934
v -0.021225026295514208 3 -1.1713615929965495
v -0.021225026295514166 0 -1.1713615929965495
v -0.035877071363676176 3 -1.1577484531926487
v -0.035877071363676197 0 -1.1577484531926487
v -0.23091649432656319 3 -1.3970559503790823
v -0.23091649432656317 0 -1.3970559503790823
v -0.24556853939472517 3 -1.3834428105751815
v -0.2455685393947252 0 -1.3834428105751815
v -0.28894123428321561 3 -1.3750385015713229
v -0.28894123428321561 0 -1.3750385015713229
v -0.30761753636932049 3 -1.3821936214437329
v -0.30761753636932049 0 -1.3821936214437329
v -0.39915589538247714 3 -1.0873560669353064
v -0.39915589538247714 0 -1.0873560669353064
v -0.41783219746858191 3 -1.0945111868077166
v -0.41783219746858191 0 -1.0945111868077166
v -0.46668782830038463 3 -1.0745887372408716
v -0.46668782830038458 0 -1.0745887372408716
v -0.47503503473421188 3 -1.0564139155154442
v -0.47503503473421188 0 -1.0564139155154442
v -0.74664565608346667 3 -1.2031658323329169
v -0.74664565608346667 0 -1.2031658323329169
v -0.75499286251729392 3 -1.1849910106074895
v -0.75499286251729392 0 -1.1849910106074895
v -0.78394726357122346 3 -0.85269885250233368
v -0.78394726357122346 0 -0.85269885250233368
v -0.79187460448191205 3 -1.1606690003826381
v -0.79187460448191205 0 -1.1606690003826381
v -0.80394064106954799 3 -0.85218421067592232
v -0.80394064106954799 0 -0.85218421067592232
v -0.81186798198023657 3 -1.1601543585562266
v -0.81186798198023657 0 -1.1601543585562266
v -0.84149417225295287 3 -0.81512332892205785
v -0.84149417225295287 0 -0.81512332892205785
v -0.84227277441408821 3 -0.79513849020180116
v -0.84227277441408821 0 -0.79513849020180116
v -1.0500491490163046 3 -0.48894317642210722
v -1.0500491490163046 0 -0.48894317642210722
v -1.058494623383903 3 0.47038046025209745
v -1.058494623383903 0 0.47038046025209745
v -1.0683326079645703 3 -0.48083668958210746
v -1.0683326079645703 0 -0.48083668958210746
v -1.0766325274964721 3 0.46195333533293009
v -1.0766325274964721 0 0.46195333533293009
v -1.0819905589009615 3 -0.41347923233070694
v -1.0819905589009615 0 -0.41347923233070694
v -1.0888984412476597 3 -0.4322483868530656
v -1.0888984412476597 0 -0.4322483868530656
v -1.0891024810435097 3 0.39436585920243811
v -1.0891024810435097 0 0.39436585920243811
v -1.0963397382944016 3 0.4130104859749002
v -1.0963397382944016 0 0.4130104859749002
v -1.1493327921438297 3 -0.82711661133393966
v -1.1493327921438297 0 -0.82711661133393966
v -1.1501113943049648 3 -0.80713177261368296
v -1.1501113943049648 0 -0.80713177261368296
v -1.1571737713934245 3 -0.051161586358558685
v -1.1571737713934245 0 -0.051161586358558685
v -1.1578951562807442 3 0.030780711187299515
v -1.1578951562807442 0 0.030780711187299536
v -1.1709791992078213 3 -0.036690575237649507
v -1.1709791992078213 0 -0.036690575237649507
v -1.1714436709195939 3 0.016068887674190187
v -1.1714436709195939 0 0.016068887674190204
v -1.1749182938675784 3 -0.77057440939075805
v -1.1749182938675784 0 -0.77057440939075805
v -1.188302751489285 3 0.74976962360155086
v -1.188302751489285 0 0.74976962360155086
v -1.1932017528158438 3 -0.76246792255075835
v -1.1932017528158438 0 -0.76246792255075835
v -1.2064406556018541 3 0.74134249868238355
v -1.2064406556018541 0 0.74134249868238355
v -1.3711032560589826 3 -0.30707292113938151
v -1.3711032560589826 0 -0.30707292113938151
v -1.3762970015675915 3 0.28288598612987959
v -1.3762970015675915 0 0.28288598612987959
v -1.3780111384056808 3 -0.32584207566174017
v -1.3780111384056808 0 -0.32584207566174017
v -1.3800795528331744 3 -0.26381498351003924
v -1.3800795528331744 0 -0.26381498351003924
v -1.3835342588184831 3 0.30153061290234179
v -1.3835342588184831 0 0.30153061290234179
v -1.3845103173910127 3 0.23947671851445942
v -1.3845103173910127 0 0.23947671851445942
v -1.3938849806475713 3 -0.24934397238913
v -1.3938849806475713 0 -0.24934397238913
v -1.3980588320298624 3 0.22476489500135008
v -1.3980588320298624 0 0.22476489500135008
vn 0.99947720766067505 0 0.03233177587389946
vn 0.99947720766067505 0 0.03233177587389946
vn 0.99947720766067505 0 -0.03233177587389946
vn 0.99947720766067505 0 -0.03233177587389946
vn 0.03233177587389946 0 -0.99947720766067505
vn 0.03233177587389946 0 -0.99947720766067505
vn 0.03233177587389946 0 0.99947720766067505
vn 0.03233177587389946 0 0.99947720766067505
vn 0.91147685050964355 0 -0.41135132312774658
vn 0.91147685050964355 0 -0.41135132312774658
vn 0.41135132312774658 0 0.91147685050964355
vn 0.41135132312774658 0 0.91147685050964355
vn 0.93615680932998657 0 -0.35158270597457886
vn 0.93615680932998657 0 -0.35158270597457886
vn -0.35158270597457886 0 -0.93615680932998657
vn -0.35158270597457886 0 -0.93615680932998657
vn -0.03233177587389946 0 0.99947720766067505
vn -0.03233177587389946 0 0.99947720766067505
vn -0.03233177587389946 0 -0.99947720766067505
vn -0.03233177587389946 0 -0.99947720766067505
vn -0.99947720766067505 0 -0.03233177587389946
vn -0.99947720766067505 0 -0.03233177587389946
vn -0.99947720766067505 0 0.03233177587389946
vn -0.99947720766067505 0 0.03233177587389946
vn 0.72809231281280518 0 0.68547910451889038
vn 0.72809231281280518 0 0.68547910451889038
vn 0.68547910451889038 0 -0.72809231281280518
vn 0.68547910451889038 0 -0.72809231281280518
vn -0.41135132312774658 0 -0.91147685050964355
vn -0.41135132312774658 0 -0.91147685050964355
vn -0.91147685050964355 0 0.41135132312774658
vn -0.91147685050964355 0 0.41135132312774658
vn 0.35158270597457886 0 0.93615680932998657
vn 0.35158270597457886 0 0.93615680932998657
vn -0.93615680932998657 0 0.35158270597457886
vn -0.93615680932998657 0 0.35158270597457886
vn -0.68547910451889038 0 0.72809231281280518
vn -0.68547910451889038 0 0.72809231281280518
vn -0.72809231281280518 0 -0.68547910451889038
vn -0.72809231281280518 0 -0.68547910451889038
vn 0.73110246658325195 0 -0.68226766586303711
vn 0.73110246658325195 0 -0.68226766586303711
vn 0.68226766586303711 0 0.73110246658325195
vn 0.68226766586303711 0 0.73110246658325195
vn -0.68226766586303711 0 -0.73110246658325195
vn -0.68226766586303711 0 -0.73110246658325195
vn -0.73110246658325195 0 0.68226766586303711
vn -0.73110246658325195 0 0.68226766586303711
vn 0.93460023403167725 0 0.35569992661476135
vn 0.93460023403167725 0 0.35569992661476135
vn 0.35569992661476135 0 -0.93460023403167725
vn 0.35569992661476135 0 -0.93460023403167725
vn -0.35569992661476135 0 0.93460023403167725
vn -0.35569992661476135 0 0.93460023403167725
vn -0.93460023403167725 0 -0.35569992661476135
vn -0.93460023403167725 0 -0.35569992661476135
vn 0.90965741872787476 0 0.41535928845405579
vn 0.90965741872787476 0 0.41535928845405579
vn -0.41535928845405579 0 0.90965741872787476
vn -0.41535928845405579 0 0.90965741872787476
vn 0.41535928845405579 0 -0.90965741872787476
vn 0.41535928845405579 0 -0.90965741872787476
vn -0.90965741872787476 0 -0.41535928845405579
vn -0.90965741872787476 0 -0.41535928845405579
vn 0.99960982799530029 0 -0.027932107448577881
vn 0.99960982799530029 0 -0.027932107448577881
vn -0.027932107448577881 0 -0.99960982799530029
vn -0.027932107448577881 0 -0.99960982799530029
vn 0.027932107448577881 0 0.99960982799530029
vn 0.027932107448577881 0 0.99960982799530029
vn -0.99960982799530029 0 0.027932107448577881
vn -0.99960982799530029 0 0.027932107448577881
vn 0.9993252158164978 0 0.036730851978063583
vn 0.9993252158164978 0 0.036730851978063583
vn -0.036730851978063583 0 0.9993252158164978
vn -0.036730851978063583 0 0.9993252158164978
vn 0.036730851978063583 0 -0.9993252158164978
vn 0.036730851978063583 0 -0.9993252158164978
vn -0.9993252158164978 0 -0.036730851978063583
vn -0.9993252158164978 0 -0.036730851978063583
vn 0.91327869892120361 0 -0.40733528137207031
vn 0.91327869892120361 0 -0.40733528137207031
vn -0.40733528137207031 0 -0.91327869892120361
vn -0.40733528137207031 0 -0.91327869892120361
vn 0.40733528137207031 0 0.91327869892120361
vn 0.40733528137207031 0 0.91327869892120361
vn -0.91327869892120361 0 0.40733528137207031
vn -0.91327869892120361 0 0.40733528137207031
vn 0.93769532442092896 0 -0.34745863080024719
vn 0.93769532442092896 0 -0.34745863080024719
vn 0.34745863080024719 0 0.93769532442092896
vn 0.34745863080024719 0 0.93769532442092896
vn -0.34745863080024719 0 -0.93769532442092896
vn -0.34745863080024719 0 -0.93769532442092896
vn -0.93769532442092896 0 0.34745863080024719
vn -0.93769532442092896 0 0.34745863080024719
vn 0.72506797313690186 0 0.68867731094360352
vn 0.72506797313690186 0 0.68867731094360352
vn 0.68867731094360352 0 -0.72506797313690186
vn 0.68867731094360352 0 -0.72506797313690186
vn -0.68867731094360352 0 0.72506797313690186
vn -0.68867731094360352 0 0.72506797313690186
vn -0.72506797313690186 0 -0.68867731094360352
vn -0.72506797313690186 0 -0.68867731094360352
vn 0.73409849405288696 0 -0.6790429949760437
vn 0.73409849405288696 0 -0.6790429949760437
vn 0.6790429949760437 0 0.73409849405288696
vn 0.6790429949760437 0 0.73409849405288696
vn 0.93302547931671143 0 0.35981029272079468
vn 0.93302547931671143 0 0.35981029272079468
vn 0.93921560049057007 0 -0.34332787990570068
vn 0.93921560049057007 0 -0.34332787990570068
vn -0.35981029272079468 0 0.93302547931671143
vn -0.35981029272079468 0 0.93302547931671143
vn -0.34332787990570068 0 -0.93921560049057007
vn -0.34332787990570068 0 -0.93921560049057007
vn 0.90782034397125244 0 0.41935929656028748
vn 0.90782034397125244 0 0.41935929656028748
vn 0.41935929656028748 0 -0.90782034397125244
vn 0.41935929656028748 0 -0.90782034397125244
vn 0.91506278514862061 0 -0.40331146121025085
vn 0.91506278514862061 0 -0.40331146121025085
vn 0.40331146121025085 0 0.91506278514862061
vn 0.40331146121025085 0 0.91506278514862061
vn -0.6790429949760437 0 -0.73409849405288696
vn -0.6790429949760437 0 -0.73409849405288696
vn -0.73409849405288696 0 0.6790429949760437
vn -0.73409849405288696 0 0.6790429949760437
vn 0.99972307682037354 0 -0.02353193424642086
vn 0.99972307682037354 0 -0.02353193424642086
vn 0.99915385246276855 0 0.041129171848297119
vn 0.99915385246276855 0 0.041129171848297119
vn 0.02353193424642086 0 0.99972307682037354
vn 0.02353193424642086 0 0.99972307682037354
vn 0.041129171848297119 0 -0.99915385246276855
vn 0.041129171848297119 0 -0.99915385246276855
vn 0.35981029272079468 0 -0.93302547931671143
vn 0.35981029272079468 0 -0.93302547931671143
vn 0.34332787990570068 0 0.93921560049057007
vn 0.34332787990570068 0 0.93921560049057007
vn -0.93302547931671143 0 -0.35981029272079468
vn -0.93302547931671143 0 -0.35981029272079468
vn -0.93921560049057007 0 0.34332787990570068
vn -0.93921560049057007 0 0.34332787990570068
vn -0.41935929656028748 0 0.90782034397125244
vn -0.41935929656028748 0 0.90782034397125244
vn -0.40331146121025085 0 -0.91506278514862061
vn -0.40331146121025085 0 -0.91506278514862061
vn -0.90782034397125244 0 -0.41935929656028748
vn -0.90782034397125244 0 -0.41935929656028748
vn -0.02353193424642086 0 -0.99972307682037354
vn -0.02353193424642086 0 -0.99972307682037354
vn -0.91506278514862061 0 0.40331146121025085
vn -0.91506278514862061 0 0.40331146121025085
vn -0.041129171848297119 0 0.99915385246276855
vn -0.041129171848297119 0 0.99915385246276855
vn -0.99972307682037354 0 0.02353193424642086
vn -0.99972307682037354 0 0.02353193424642086
vn -0.99915385246276855 0 -0.041129171848297119
vn -0.99915385246276855 0 -0.041129171848297119
f 6//6 22//22 21//21 5//5
f 22//22 18//18 17//17 21//21
f 18//18 2//2 1//1 17//17
f 2//2 6//6 5//5 1//1
f 16//16 36//36 35//35 15//15
f 36//36 34//34 33//33 35//35
f 34//34 14//14 13//13 33//33
f 14//14 16//16 15//15 13//13
f 46//46 48//48 47//47 45//45
f 48//48 44//44 43//43 47//47
f 44//44 42//42 41//41 43//43
f 42//42 46//46 45//45 41//41
f 64//64 60//60 59//59 63//63
f 60//60 58//58 57//57 59//59
f 58//58 62//62 61//61 57//57
f 62//62 64//64 63//63 61//61
f 80//80 76//76 75//75 79//79
f 76//76 74//74 73//73 75//75
f 74//74 78//78 77//77 73//73
f 78//78 80//80 79//79 77//77
f 96//96 92//92 91//91 95//95
f 92//92 90//90 89//89 91//91
f 90//90 94//94 93//93 89//89
f 94//94 96//96 95//95 93//93
f 128//128 108//108 107//107 127//127
f 108//108 106//106 105//105 107//107
f 106//106 126//126 125//125 105//105
f 126//126 128//128 127//127 125//125
f 146//146 118//118 117//117 145//145
f 118//118 120//120 119//119 117//117
f 120//120 150//150 149//149 119//119
f 150//150 146//146 145//145 149//149
f 156//156 132//132 131//131 155//155
f 132//132 136//136 135//135 131//131
f 136//136 160//160 159//159 135//135
f 160//160 156//156 155//155 159//159
f 140//140 112//112 111//111 139//139
f 112//112 116//116 115//115 111//111
f 116//116 144//144 143//143 115//115
f 144//144 140//140 139//139 143//143
f 8//8 4//4 3//3 7//7
f 4//4 20//20 19//19 3//3
f 20//20 24//24 23//23 19//19
f 24//24 8//8 7//7 23//23
f 12//12 10//10 9//9 11//11
f 10//10 30//30 29//29 9//9
f 30//30 32//32 31//31 29//29
f 32//32 12//12 11//11 31//31
f 26//26 28//28 27//27 25//25
f 28//28 40//40 39//39 27//27
f 40//40 38//38 37//37 39//39
f 38//38 26//26 25//25 37//37
f 50//50 52//52 51//51 49//49
f 52//52 56//56 55//55 51//51
f 56//56 54//54 53//53 55//55
f 54//54 50//50 49//49 53//53
f 66//66 68//68 67//67 65//65
f 68//68 72//72 71//71 67//67
f 72//72 70//70 69//69 71//71
f 70//70 66//66 65//65 69//69
f 82//82 84//84 83//83 81//81
f 84//84 88//88 87//87 83//83
f 88//88 86//86 85//85 87//87
f 86//86 82//82 81//81 85//85
f 100//100 104//104 103//103 99//99
f 104//104 102//102 101//101 103//103
f 102//102 98//98 97//97 101//101
f 98//98 100//100 99//99 97//97
f 138//138 142//142 141//141 137//137
f 142//142 114//114 113//113 141//141
f 114//114 110//110 109//109 113//113
f 110//110 138//138 137//137 109//109
f 152//152 158//158 157//157 151//151
f 158//158 134//134 133//133 157//157
f 134//134 130//130 129//129 133//133
f 130//130 152//152 151//151 129//129
f 148//148 154//154 153//153 147//147
f 154//154 124//124 123//123 153//153
f 124//124 122//122 121//121 123//123
f 122//122 148//148 147//147 121//121
