# Rhino

mtllib Pannelli164.mtl
usemtl diffuse_Black
v 1.2141373367223489 3 -0.32943567461686923
v 1.2141373367223489 0 -0.32943567461686923
v 1.21413733672235 3 0.32943567461686452
v 1.21413733672235 0 0.32943567461686452
v 1.1944368123589861 3 -0.33288376681525084
v 1.1944368123589861 0 -0.33288376681525084
v 1.1944368123589875 3 0.33288376681524617
v 1.1944368123589875 0 0.33288376681524617
v 1.1892120889989439 3 -0.41040460951636254
v 1.1892120889989439 0 -0.41040460951636254
v 1.1748612961094025 3 -0.39647425620277155
v 1.1748612961094025 0 -0.39647425620277155
v 1.1631244413365989 3 -0.037975722106220619
v 1.1631244413365989 0 -0.037975722106220626
v 1.1631244413365989 3 0.037975722106216005
v 1.1631244413365989 0 0.037975722106216005
v 1.1434239169732361 3 -0.041423814304602243
v 1.1434239169732361 0 -0.041423814304602263
v 1.1434239169732363 3 0.041423814304597684
v 1.1434239169732363 0 0.041423814304597684
v 1.0069068455947532 3 0.75418561404201689
v 1.0069068455947532 0 0.75418561404201689
v 0.99749956272490181 3 0.73653616563685154
v 0.99749956272490181 0 0.73653616563685154
v 0.98311909165789302 3 -0.62271781179104146
v 0.98311909165789302 0 -0.62271781179104146
v 0.96876829876835191 3 -0.60878745847745053
v 0.96876829876835191 0 -0.60878745847745053
v 0.94040544102129908 3 -0.6855204066996109
v 0.94040544102129908 0 -0.6855204066996109
v 0.92217636491932808 3 -0.67729235805679522
v 0.92217636491932808 0 -0.67729235805679522
v 0.81867534782894724 3 -0.95521097721428139
v 0.81867534782894724 0 -0.95521097721428139
v 0.80044627172697624 3 -0.94698292857146571
v 0.80044627172697624 0 -0.94698292857146571
v 0.75252981122228202 3 -1.0081449396566282
v 0.75252981122228202 0 -1.0081449396566282
v 0.74849761945880466 3 -0.98855562038355171
v 0.74849761945880466 0 -0.98855562038355171
v 0.74579159307004506 3 0.89336192061790298
v 0.74579159307004506 0 0.89336192061790298
v 0.73638431020019379 3 0.87571247221273762
v 0.73638431020019379 0 0.87571247221273762
v 0.68592928323726521 3 0.94010724914856136
v 0.68592928323726521 0 0.94010724914856136
v 0.67108666557814578 3 0.92670214933449147
v 0.67108666557814578 0 0.92670214933449147
v 0.48760716332073334 3 1.1596967665781506
v 0.48760716332073334 0 1.1596967665781506
v 0.47276454566161397 3 1.1462916667640806
v 0.47276454566161397 0 1.1462916667640806
v 0.46271508549524037 3 -1.0677993122114269
v 0.46271508549524037 0 -1.0677993122114269
v 0.45868289373176302 3 -1.0482099929383502
v 0.45868289373176302 0 -1.0482099929383502
v 0.41059670191171588 3 1.1700005338915995
v 0.41059670191171588 0 1.1700005338915995
v 0.40844966442569886 3 1.1898849556843907
v 0.40844966442569891 0 1.1898849556843907
v 0.3920771107783112 3 -1.0957080636318215
v 0.39207711077831114 0 -1.0957080636318215
v 0.38163118318514594 3 -1.0786527830208688
v 0.38163118318514588 0 -1.0786527830208688
v 0.1397522901167583 3 -1.2502506282904366
v 0.13975229011675838 0 -1.2502506282904366
v 0.12930636252359307 3 -1.2331953476794839
v 0.12930636252359309 0 -1.2331953476794839
v 0.11641607379571588 3 1.1382361284285218
v 0.11641607379571589 0 1.1382361284285218
v 0.1142690363096989 3 1.158120550221313
v 0.1142690363096989 0 1.158120550221313
v 0.062971460656073841 3 -1.2383559650077383
v 0.062971460656073841 0 -1.2383559650077383
v 0.055288930853329032 3 -1.2568215745516964
v 0.055288930853329032 0 -1.2568215745516964
v 0.038481510658828398 3 1.1631078173761356
v 0.038481510658828398 0 1.1631078173761356
v 0.033747247107290552 3 1.1436762258657998
v 0.033747247107290552 0 1.1436762258657998
v -0.21021851040739767 3 -1.1246965653811052
v -0.21021851040739767 0 -1.1246965653811052
v -0.2179010402101425 3 -1.1431621749250636
v -0.2179010402101425 0 -1.1431621749250636
v -0.24899970732039617 3 1.2331490104151515
v -0.24899970732039617 0 1.2331490104151515
v -0.25373397087193406 3 1.2137174189048154
v -0.25373397087193406 0 1.2137174189048154
v -0.29105133890882195 3 -1.1065366258815574
v -0.29105133890882195 0 -1.1065366258815574
v -0.29200539500609413 3 -1.1265138573454829
v -0.29200539500609413 0 -1.1265138573454829
v -0.31847262364969425 3 1.1983597493712339
v -0.3184726236496942 0 1.1983597493712339
v -0.33143058358397859 3 1.2135942915153701
v -0.33143058358397864 0 1.2135942915153701
v -0.54386047871151499 3 1.0066528527718193
v -0.54386047871151499 0 1.0066528527718193
v -0.55681843864579939 3 1.0218873949159555
v -0.55681843864579939 0 1.0218873949159555
v -0.58660504227106247 3 -1.0924218165660968
v -0.58660504227106247 0 -1.0924218165660968
v -0.58755909836833475 3 -1.1123990480300223
v -0.58755909836833475 0 -1.1123990480300223
v -0.61527693842060704 3 0.96465977180855056
v -0.61527693842060704 0 0.96465977180855056
v -0.62229023725371391 3 0.98338979154899742
v -0.62229023725371391 0 0.98338979154899742
v -0.64435816100893462 3 -1.0593835288829963
v -0.64435816100893462 0 -1.0593835288829963
v -0.66109538589134209 3 -1.0703318302688598
v -0.66109538589134209 0 -1.0703318302688598
v -0.80633310863674512 3 -0.81176419249321607
v -0.80633310863674512 0 -0.81176419249321607
v -0.8230703335191526 3 -0.82271249387907952
v -0.8230703335191526 0 -0.82271249387907952
v -0.86295920859995301 3 -0.751289285555506
v -0.86295920859995312 0 -0.751289285555506
v -0.87498291260588668 3 -0.76727148008497192
v -0.87498291260588668 0 -0.76727148008497192
v -0.89237873344827712 3 0.86090132826977062
v -0.89237873344827712 0 0.86090132826977062
v -0.89939203228138398 3 0.87963134801021736
v -0.89939203228138398 0 0.87963134801021736
v -0.93727285349609857 3 0.81179461628338445
v -0.93727285349609868 0 0.81179461628338445
v -0.95655512567055756 3 0.81710441663651168
v -0.95655512567055767 0 0.81710441663651168
v -1.0158288416626655 3 0.5265225073482116
v -1.0158288416626655 0 0.52652250734821149
v -1.0351111138371245 3 0.53183230770133882
v -1.0351111138371245 0 0.53183230770133871
v -1.0512654449742098 3 0.45163608193006122
v -1.0512654449742098 0 0.45163608193006122
v -1.0675979966203466 3 0.46317938114329549
v -1.0675979966203466 0 0.46317938114329549
v -1.0994082275528136 3 -0.57340426412487266
v -1.0994082275528136 0 -0.57340426412487266
v -1.1114319315587473 3 -0.58938645865433859
v -1.1114319315587473 0 -0.58938645865433859
v -1.1232600589122632 3 -0.2177636938297548
v -1.1232600589122632 0 -0.2177636938297548
v -1.1285829175939415 3 -0.51360636585088493
v -1.1285829175939415 0 -0.51360636585088493
v -1.1360730077655028 3 -0.13591286666318192
v -1.1360730077655028 0 -0.13591286666318197
v -1.1432568225076378 3 -0.21740390818429017
v -1.1432568225076378 0 -0.21740390818429017
v -1.1485796811893161 3 -0.51324658020542024
v -1.1485796811893161 0 -0.51324658020542024
v -1.155003229572759 3 -0.14236629229055758
v -1.155003229572759 0 -0.14236629229055761
v -1.2220431044136875 3 0.21000369492550242
v -1.2220431044136875 0 0.21000369492550242
v -1.2315483916788301 3 0.14415082337847573
v -1.2315483916788301 0 0.14415082337847576
v -1.2383756560598242 3 0.22154699413873669
v -1.2383756560598242 0 0.22154699413873669
v -1.2504786134860864 3 0.13769739775110007
v -1.2504786134860864 0 0.13769739775110013
vn 0.81842720508575439 0 -0.57461023330688477
vn 0.81842720508575439 0 -0.57461023330688477
vn 0.81842720508575439 0 0.57461023330688477
vn 0.81842720508575439 0 0.57461023330688477
vn -0.57461023330688477 0 -0.81842720508575439
vn -0.57461023330688477 0 -0.81842720508575439
vn -0.57461023330688477 0 0.81842720508575439
vn -0.57461023330688477 0 0.81842720508575439
vn 0.99988949298858643 0 0.014864814467728138
vn 0.99988949298858643 0 0.014864814467728138
vn -0.014864814467728138 0 0.99988949298858643
vn -0.014864814467728138 0 0.99988949298858643
vn 0.57461023330688477 0 0.81842720508575439
vn 0.57461023330688477 0 0.81842720508575439
vn 0.57461023330688477 0 -0.81842720508575439
vn 0.57461023330688477 0 -0.81842720508575439
vn -0.81842720508575439 0 0.57461023330688477
vn -0.81842720508575439 0 0.57461023330688477
vn -0.81842720508575439 0 -0.57461023330688477
vn -0.81842720508575439 0 -0.57461023330688477
vn 0.9565998911857605 0 0.29140451550483704
vn 0.9565998911857605 0 0.29140451550483704
vn 0.29140451550483704 0 -0.9565998911857605
vn 0.29140451550483704 0 -0.9565998911857605
vn 0.014864814467728138 0 -0.99988949298858643
vn 0.014864814467728138 0 -0.99988949298858643
vn -0.99988949298858643 0 -0.014864814467728138
vn -0.99988949298858643 0 -0.014864814467728138
vn 0.93540060520172119 0 0.3535897433757782
vn 0.93540060520172119 0 0.3535897433757782
vn -0.3535897433757782 0 0.93540060520172119
vn -0.3535897433757782 0 0.93540060520172119
vn 0.3535897433757782 0 -0.93540060520172119
vn 0.3535897433757782 0 -0.93540060520172119
vn -0.93540060520172119 0 -0.3535897433757782
vn -0.93540060520172119 0 -0.3535897433757782
vn 0.83514654636383057 0 -0.55002748966217041
vn 0.83514654636383057 0 -0.55002748966217041
vn 0.55002748966217041 0 0.83514654636383057
vn 0.55002748966217041 0 0.83514654636383057
vn -0.29140451550483704 0 0.9565998911857605
vn -0.29140451550483704 0 0.9565998911857605
vn -0.9565998911857605 0 -0.29140451550483704
vn -0.9565998911857605 0 -0.29140451550483704
vn 0.99870765209197998 0 -0.050823912024497986
vn 0.99870765209197998 0 -0.050823912024497986
vn -0.050823912024497986 0 -0.99870765209197998
vn -0.050823912024497986 0 -0.99870765209197998
vn 0.050823912024497986 0 0.99870765209197998
vn 0.050823912024497986 0 0.99870765209197998
vn -0.99870765209197998 0 0.050823912024497986
vn -0.99870765209197998 0 0.050823912024497986
vn -0.55002748966217041 0 -0.83514654636383057
vn -0.55002748966217041 0 -0.83514654636383057
vn -0.83514654636383057 0 0.55002748966217041
vn -0.83514654636383057 0 0.55002748966217041
vn 0.77892971038818359 0 -0.62711119651794434
vn 0.77892971038818359 0 -0.62711119651794434
vn 0.62711119651794434 0 0.77892971038818359
vn 0.62711119651794434 0 0.77892971038818359
vn 0.97231453657150269 0 -0.23367592692375183
vn 0.97231453657150269 0 -0.23367592692375183
vn 0.23367592692375183 0 0.97231453657150269
vn 0.23367592692375183 0 0.97231453657150269
vn -0.23367592692375183 0 -0.97231453657150269
vn -0.23367592692375183 0 -0.97231453657150269
vn -0.97231453657150269 0 0.23367592692375183
vn -0.97231453657150269 0 0.23367592692375183
vn -0.62711119651794434 0 -0.77892971038818359
vn -0.62711119651794434 0 -0.77892971038818359
vn -0.77892971038818359 0 0.62711119651794434
vn -0.77892971038818359 0 0.62711119651794434
vn 0.92447632551193237 0 0.38123947381973267
vn 0.92447632551193237 0 0.38123947381973267
vn 0.38123947381973267 0 -0.92447632551193237
vn 0.38123947381973267 0 -0.92447632551193237
vn 0.85439199209213257 0 0.51962900161743164
vn 0.85439199209213257 0 0.51962900161743164
vn 0.51962900161743164 0 -0.85439199209213257
vn 0.51962900161743164 0 -0.85439199209213257
vn -0.38123947381973267 0 0.92447632551193237
vn -0.38123947381973267 0 0.92447632551193237
vn -0.92447632551193237 0 -0.38123947381973267
vn -0.92447632551193237 0 -0.38123947381973267
vn -0.51962900161743164 0 0.85439199209213257
vn -0.51962900161743164 0 0.85439199209213257
vn -0.85439199209213257 0 -0.51962900161743164
vn -0.85439199209213257 0 -0.51962900161743164
vn 0.74003273248672485 0 0.67257082462310791
vn 0.74003273248672485 0 0.67257082462310791
vn 0.67257082462310791 0 -0.74003273248672485
vn 0.67257082462310791 0 -0.74003273248672485
vn 0.99675548076629639 0 -0.080489315092563629
vn 0.99675548076629639 0 -0.080489315092563629
vn 0.080489315092563629 0 0.99675548076629639
vn 0.080489315092563629 0 0.99675548076629639
vn -0.080489315092563629 0 -0.99675548076629639
vn -0.080489315092563629 0 -0.99675548076629639
vn -0.99675548076629639 0 0.080489315092563629
vn -0.99675548076629639 0 0.080489315092563629
vn -0.67257082462310791 0 0.74003273248672485
vn -0.67257082462310791 0 0.74003273248672485
vn -0.74003273248672485 0 -0.67257082462310791
vn -0.74003273248672485 0 -0.67257082462310791
vn 0.9101637601852417 0 -0.41424864530563354
vn 0.9101637601852417 0 -0.41424864530563354
vn 0.41424864530563354 0 0.9101637601852417
vn 0.41424864530563354 0 0.9101637601852417
vn 0.97883117198944092 0 -0.20466934144496918
vn 0.97883117198944092 0 -0.20466934144496918
vn -0.20466934144496918 0 -0.97883117198944092
vn -0.20466934144496918 0 -0.97883117198944092
vn 0.20466934144496918 0 0.97883117198944092
vn 0.20466934144496918 0 0.97883117198944092
vn -0.97883117198944092 0 0.20466934144496918
vn -0.97883117198944092 0 0.20466934144496918
vn 0.99015802145004272 0 0.13995376229286194
vn 0.99015802145004272 0 0.13995376229286194
vn 0.13995376229286194 0 -0.99015802145004272
vn 0.13995376229286194 0 -0.99015802145004272
vn -0.41424864530563354 0 -0.9101637601852417
vn -0.41424864530563354 0 -0.9101637601852417
vn -0.9101637601852417 0 0.41424864530563354
vn -0.9101637601852417 0 0.41424864530563354
vn 0.8694610595703125 0 0.49400144815444946
vn 0.8694610595703125 0 0.49400144815444946
vn -0.49400144815444946 0 0.8694610595703125
vn -0.49400144815444946 0 0.8694610595703125
vn 0.49400144815444946 0 -0.8694610595703125
vn 0.49400144815444946 0 -0.8694610595703125
vn -0.8694610595703125 0 -0.49400144815444946
vn -0.8694610595703125 0 -0.49400144815444946
vn 0.98556017875671387 0 0.16932563483715057
vn 0.98556017875671387 0 0.16932563483715057
vn -0.16932563483715057 0 0.98556017875671387
vn -0.16932563483715057 0 0.98556017875671387
vn -0.13995376229286194 0 0.99015802145004272
vn -0.13995376229286194 0 0.99015802145004272
vn -0.99015802145004272 0 -0.13995376229286194
vn -0.99015802145004272 0 -0.13995376229286194
vn 0.71971273422241211 0 0.69427198171615601
vn 0.71971273422241211 0 0.69427198171615601
vn 0.69427198171615601 0 -0.71971273422241211
vn 0.69427198171615601 0 -0.71971273422241211
vn 0.89744746685028076 0 -0.44112133979797363
vn 0.89744746685028076 0 -0.44112133979797363
vn -0.69427198171615601 0 0.71971273422241211
vn -0.69427198171615601 0 0.71971273422241211
vn -0.71971273422241211 0 -0.69427198171615601
vn -0.71971273422241211 0 -0.69427198171615601
vn -0.44112133979797363 0 -0.89744746685028076
vn -0.44112133979797363 0 -0.89744746685028076
vn 0.16932563483715057 0 -0.98556017875671387
vn 0.16932563483715057 0 -0.98556017875671387
vn 0.44112133979797363 0 0.89744746685028076
vn 0.44112133979797363 0 0.89744746685028076
vn -0.98556017875671387 0 -0.16932563483715057
vn -0.98556017875671387 0 -0.16932563483715057
vn -0.89744746685028076 0 0.44112133979797363
vn -0.89744746685028076 0 0.44112133979797363
f 6//6 18//18 17//17 5//5
f 18//18 14//14 13//13 17//17
f 14//14 2//2 1//1 13//13
f 2//2 6//6 5//5 1//1
f 36//36 32//32 31//31 35//35
f 32//32 30//30 29//29 31//31
f 30//30 34//34 33//33 29//29
f 34//34 36//36 35//35 33//33
f 68//68 64//64 63//63 67//67
f 64//64 62//62 61//61 63//63
f 62//62 66//66 65//65 61//61
f 66//66 68//68 67//67 65//65
f 102//102 90//90 89//89 101//101
f 90//90 92//92 91//91 89//89
f 92//92 104//104 103//103 91//91
f 104//104 102//102 101//101 103//103
f 138//138 118//118 117//117 137//137
f 118//118 120//120 119//119 117//117
f 120//120 140//140 139//139 119//119
f 140//140 138//138 137//137 139//139
f 156//156 146//146 145//145 155//155
f 146//146 152//152 151//151 145//145
f 152//152 160//160 159//159 151//151
f 160//160 156//156 155//155 159//159
f 126//126 130//130 129//129 125//125
f 130//130 132//132 131//131 129//129
f 132//132 128//128 127//127 131//131
f 128//128 126//126 125//125 127//127
f 94//94 98//98 97//97 93//93
f 98//98 100//100 99//99 97//97
f 100//100 96//96 95//95 99//99
f 96//96 94//94 93//93 95//95
f 58//58 70//70 69//69 57//57
f 70//70 72//72 71//71 69//69
f 72//72 60//60 59//59 71//71
f 60//60 58//58 57//57 59//59
f 24//24 44//44 43//43 23//23
f 44//44 42//42 41//41 43//43
f 42//42 22//22 21//21 41//41
f 22//22 24//24 23//23 21//21
f 8//8 4//4 3//3 7//7
f 4//4 16//16 15//15 3//3
f 16//16 20//20 19//19 15//15
f 20//20 8//8 7//7 19//19
f 12//12 10//10 9//9 11//11
f 10//10 26//26 25//25 9//9
f 26//26 28//28 27//27 25//25
f 28//28 12//12 11//11 27//27
f 40//40 38//38 37//37 39//39
f 38//38 54//54 53//53 37//37
f 54//54 56//56 55//55 53//53
f 56//56 40//40 39//39 55//55
f 74//74 76//76 75//75 73//73
f 76//76 84//84 83//83 75//75
f 84//84 82//82 81//81 83//83
f 82//82 74//74 73//73 81//81
f 110//110 112//112 111//111 109//109
f 112//112 116//116 115//115 111//111
f 116//116 114//114 113//113 115//115
f 114//114 110//110 109//109 113//113
f 144//144 150//150 149//149 143//143
f 150//150 148//148 147//147 149//149
f 148//148 142//142 141//141 147//147
f 142//142 144//144 143//143 141//141
f 154//154 158//158 157//157 153//153
f 158//158 136//136 135//135 157//157
f 136//136 134//134 133//133 135//135
f 134//134 154//154 153//153 133//133
f 122//122 124//124 123//123 121//121
f 124//124 108//108 107//107 123//123
f 108//108 106//106 105//105 107//107
f 106//106 122//122 121//121 105//105
f 88//88 86//86 85//85 87//87
f 86//86 78//78 77//77 85//85
f 78//78 80//80 79//79 77//77
f 80//80 88//88 87//87 79//79
f 52//52 50//50 49//49 51//51
f 50//50 46//46 45//45 49//49
f 46//46 48//48 47//47 45//45
f 48//48 52//52 51//51 47//47
