# Rhino

mtllib Pannelli174.mtl
usemtl diffuse_Black
v 1.1839186223219924 3 -0.33333594191905191
v 1.1839186223219924 0 -0.33333594191905191
v 1.1839186223219968 3 0.33333594191903632
v 1.1839186223219968 0 0.33333594191903632
v 1.1639773394031645 3 -0.33486735811044988
v 1.1639773394031645 0 -0.33486735811044988
v 1.1639773394031689 3 0.33486735811043461
v 1.1639773394031689 0 0.33486735811043461
v 1.1613281446256489 3 -0.039174818675981368
v 1.1613281446256489 0 -0.039174818675981368
v 1.1613281446256498 3 0.039174818675965922
v 1.1613281446256498 0 0.039174818675965922
v 1.1582091523587192 3 -0.41391752058636377
v 1.1582091523587192 0 -0.41391752058636377
v 1.142839447751131 3 -0.4011201700685616
v 1.142839447751131 0 -0.4011201700685616
v 1.141386861706821 3 -0.040706234867379343
v 1.141386861706821 0 -0.040706234867379336
v 1.1413868617068219 3 0.040706234867364161
v 1.1413868617068219 0 0.040706234867364161
v 1.1077096020930539 3 0.53456112081474294
v 1.1077096020930539 0 0.53456112081474294
v 1.0937856692328682 3 0.52020409836212245
v 1.0937856692328682 0 0.52020409836212245
v 0.96943077645504705 3 -0.6406416280415389
v 0.96943077645504705 0 -0.6406416280415389
v 0.9540610718474587 3 -0.62784427752373673
v 0.9540610718474587 0 -0.62784427752373673
v 0.92405494188501924 3 -0.70451415194857681
v 0.92405494188501924 0 -0.70451415194857681
v 0.90691141189400004 3 -0.69421369664567689
v 0.90691141189400004 0 -0.69421369664567689
v 0.8959239377363547 3 0.739958122942733
v 0.89592393773635481 0 0.739958122942733
v 0.88200000487616903 3 0.7256011004901125
v 0.88200000487616903 0 0.7256011004901125
v 0.84402237409856606 3 0.7986513369042646
v 0.84402237409856606 0 0.7986513369042646
v 0.82806951302377341 3 0.7865887408516572
v 0.82806951302377341 0 0.7865887408516572
v 0.77210917620134445 3 -0.95740460333212696
v 0.77210917620134445 0 -0.95740460333212696
v 0.75496564621032525 3 -0.94710414802922704
v 0.75496564621032525 0 -0.94710414802922704
v 0.70448173979005979 3 -1.0082071378234914
v 0.70448173979005979 0 -1.0082071378234914
v 0.69936351105901284 3 -0.98887313320321946
v 0.69936351105901284 0 -0.98887313320321946
v 0.66608262877194013 3 1.0339777976843254
v 0.66608262877194013 0 1.0339777976843254
v 0.65012976769714748 3 1.0219152016317181
v 0.65012976769714748 0 1.0219152016317181
v 0.59344309211318491 3 1.0773121418043186
v 0.59344309211318491 0 1.0773121418043186
v 0.59040676843889262 3 1.0575439669127169
v 0.59040676843889262 0 1.0575439669127169
v 0.41927879978682953 3 -1.0837079929424092
v 0.41927879978682953 0 -1.0837079929424092
v 0.41416057105578241 3 -1.0643739883221373
v 0.41416057105578241 0 -1.0643739883221373
v 0.34529583888665732 3 -1.1094992156669188
v 0.34529583888665732 0 -1.1094992156669188
v 0.33728547923990082 3 -1.0911734376935387
v 0.33728547923990082 0 -1.0911734376935387
v 0.30183554839348697 3 1.1221020575883247
v 0.30183554839348692 0 1.1221020575883247
v 0.29879922471919468 3 1.1023338826967231
v 0.29879922471919468 0 1.1023338826967231
v 0.22553222864084707 3 1.1398916350961794
v 0.22553222864084707 0 1.1398916350961794
v 0.21951306692732511 3 1.120818887725481
v 0.21951306692732511 0 1.120818887725481
v 0.074965617160406686 3 -1.2276629466997957
v 0.0749656171604067 0 -1.2276629466997957
v 0.066955257513650168 3 -1.2093371687264156
v 0.066955257513650168 0 -1.2093371687264156
v -0.0025632680626804794 3 -1.2111865355215854
v -0.0025632680626804794 0 -1.2111865355215854
v -0.0095879643706900941 3 -1.2299122836182639
v -0.0095879643706900941 0 -1.2299122836182639
v -0.055816810572611286 3 1.2286824805918604
v -0.055816810572611286 0 1.2286824805918604
v -0.061835972286133301 3 1.2096097332211619
v -0.061835972286133301 0 1.2096097332211619
v -0.13115784588779655 3 1.2040668642704255
v -0.13115784588779655 0 1.2040668642704255
v -0.14013120940189658 3 1.2219408326950318
v -0.14013120940189658 0 1.2219408326950318
v -0.27879359467245174 3 -1.1075626831938847
v -0.27879359467245174 0 -1.1075626831938847
v -0.2858182909804613 3 -1.1262884312905632
v -0.2858182909804613 0 -1.1262884312905632
v -0.35698481199220788 3 -1.0848883857987015
v -0.35698481199220788 0 -1.0848883857987015
v -0.36106786320288164 3 -1.1044671674975466
v -0.36106786320288159 0 -1.1044671674975466
v -0.39482326049505639 3 1.0716975126434125
v -0.39482326049505634 0 1.0716975126434125
v -0.40379662400915639 3 1.0895714810680188
v -0.40379662400915639 0 1.0895714810680188
v -0.47016476479268565 3 1.0408487207954207
v -0.47016476479268565 0 1.0408487207954207
v -0.4763036927481642 3 1.0598832568695531
v -0.4763036927481642 0 1.0598832568695531
v -0.64579854778376877 3 -1.0246578111019879
v -0.64579854778376877 0 -1.0246578111019879
v -0.64988159899444253 3 -1.044236592800833
v -0.64988159899444253 0 -1.044236592800833
v -0.70354278759805444 3 -0.98590412322431287
v -0.70354278759805444 0 -0.98590412322431287
v -0.72011442180837715 3 -0.99710148628885964
v -0.72011442180837715 0 -0.99710148628885964
v -0.75095013526105281 3 0.95029115986804191
v -0.75095013526105281 0 0.95029115986804191
v -0.75708906321653124 3 0.96932569594217477
v -0.75708906321653124 0 0.96932569594217477
v -0.80425288005349127 3 0.90562503228301194
v -0.80425288005349127 0 0.90562503228301194
v -0.82191981070829323 3 0.91499944219715745
v -0.82191981070829323 0 0.91499944219715745
v -0.86871916616082345 3 -0.74144991467992527
v -0.86871916616082345 0 -0.74144991467992527
v -0.88529080037114605 3 -0.75264727774447215
v -0.88529080037114605 0 -0.75264727774447215
v -0.91933082645694553 3 -0.67768119138722904
v -0.91933082645694553 0 -0.67768119138722904
v -0.933998390779607 3 -0.6912776084461677
v -0.93399839077960689 0 -0.69127760844616759
v -0.9425382131141038 3 0.64501370718279816
v -0.9425382131141038 0 0.64501370718279816
v -0.96020514376890576 3 0.65438811709694367
v -0.96020514376890576 0 0.65438811709694367
v -0.98609249714395986 3 0.5762313361059207
v -0.98609249714395986 0 0.5762313361059207
v -1.0021208646649964 3 0.5881934193112236
v -1.0021208646649964 0 0.5881934193112236
v -1.1198965237803831 3 -0.46131461086394848
v -1.1198965237803831 0 -0.46131461086394854
v -1.1345640881030445 3 -0.47491102792288714
v -1.1345640881030445 0 -0.47491102792288714
v -1.1376082569368957 3 -0.10133320967492766
v -1.1376082569368957 0 -0.10133320967492766
v -1.1419367446597466 3 -0.02003588854843753
v -1.1419367446597466 0 -0.020035888548437544
v -1.1445270067428914 3 -0.39627935223538918
v -1.1445270067428914 0 -0.39627935223538918
v -1.1576027565831151 3 -0.10086418526475113
v -1.1576027565831151 0 -0.10086418526475113
v -1.1617684015325029 3 -0.022625364495664262
v -1.1617684015325029 0 -0.022625364495664286
v -1.1625495408719082 3 0.33979105225190614
v -1.1625495408719082 0 0.33979105225190614
v -1.1645215063891108 3 -0.39581032782521253
v -1.1645215063891108 0 -0.39581032782521253
v -1.1785779083929449 3 0.35175313545720927
v -1.1785779083929449 0 0.35175313545720927
v -1.1801350469629519 3 0.27250810098361022
v -1.1801350469629519 0 0.27250810098361022
v -1.1999667038357082 3 0.26991862503638347
v -1.1999667038357082 0 0.26991862503638347
vn 0.75917458534240723 0 -0.65088707208633423
vn 0.75917458534240723 0 -0.65088707208633423
vn 0.75917458534240723 0 0.65088707208633423
vn 0.75917458534240723 0 0.65088707208633423
vn -0.65088707208633423 0 -0.75917458534240723
vn -0.65088707208633423 0 -0.75917458534240723
vn -0.65088707208633423 0 0.75917458534240723
vn -0.65088707208633423 0 0.75917458534240723
vn 0.65088707208633423 0 0.75917458534240723
vn 0.65088707208633423 0 0.75917458534240723
vn 0.65088707208633423 0 -0.75917458534240723
vn 0.65088707208633423 0 -0.75917458534240723
vn 0.99585580825805664 0 0.090946443378925323
vn 0.99585580825805664 0 0.090946443378925323
vn -0.090946443378925323 0 0.99585580825805664
vn -0.090946443378925323 0 0.99585580825805664
vn -0.75917458534240723 0 0.65088707208633423
vn -0.75917458534240723 0 0.65088707208633423
vn -0.75917458534240723 0 -0.65088707208633423
vn -0.75917458534240723 0 -0.65088707208633423
vn 0.99988275766372681 0 0.015312034636735916
vn 0.99988275766372681 0 0.015312034636735916
vn 0.015312034636735916 0 -0.99988275766372681
vn 0.015312034636735916 0 -0.99988275766372681
vn 0.090946443378925323 0 -0.99585580825805664
vn 0.090946443378925323 0 -0.99585580825805664
vn -0.99585580825805664 0 -0.090946443378925323
vn -0.99585580825805664 0 -0.090946443378925323
vn 0.97029143571853638 0 0.24193921685218811
vn 0.97029143571853638 0 0.24193921685218811
vn -0.24193921685218811 0 0.97029143571853638
vn -0.24193921685218811 0 0.97029143571853638
vn -0.015312034636735916 0 0.99988275766372681
vn -0.015312034636735916 0 0.99988275766372681
vn -0.99988275766372681 0 -0.015312034636735916
vn -0.99988275766372681 0 -0.015312034636735916
vn 0.99049597978591919 0 -0.13754165172576904
vn 0.99049597978591919 0 -0.13754165172576904
vn -0.13754165172576904 0 -0.99049597978591919
vn -0.13754165172576904 0 -0.99049597978591919
vn 0.24193921685218811 0 -0.97029143571853638
vn 0.24193921685218811 0 -0.97029143571853638
vn -0.97029143571853638 0 -0.24193921685218811
vn -0.97029143571853638 0 -0.24193921685218811
vn 0.8645169734954834 0 -0.50260359048843384
vn 0.8645169734954834 0 -0.50260359048843384
vn 0.50260359048843384 0 0.8645169734954834
vn 0.50260359048843384 0 0.8645169734954834
vn 0.13754165172576904 0 0.99049597978591919
vn 0.13754165172576904 0 0.99049597978591919
vn -0.99049597978591919 0 0.13754165172576904
vn -0.99049597978591919 0 0.13754165172576904
vn 0.80626076459884644 0 0.5915602445602417
vn 0.80626076459884644 0 0.5915602445602417
vn 0.5915602445602417 0 -0.80626076459884644
vn 0.5915602445602417 0 -0.80626076459884644
vn -0.50260359048843384 0 -0.8645169734954834
vn -0.50260359048843384 0 -0.8645169734954834
vn -0.8645169734954834 0 0.50260359048843384
vn -0.8645169734954834 0 0.50260359048843384
vn 0.93112307786941528 0 -0.36470511555671692
vn 0.93112307786941528 0 -0.36470511555671692
vn 0.36470511555671692 0 0.93112307786941528
vn 0.36470511555671692 0 0.93112307786941528
vn -0.5915602445602417 0 0.80626076459884644
vn -0.5915602445602417 0 0.80626076459884644
vn -0.80626076459884644 0 -0.5915602445602417
vn -0.80626076459884644 0 -0.5915602445602417
vn 0.88713294267654419 0 0.46151390671730042
vn 0.88713294267654419 0 0.46151390671730042
vn 0.46151390671730042 0 -0.88713294267654419
vn 0.46151390671730042 0 -0.88713294267654419
vn -0.36470511555671692 0 -0.93112307786941528
vn -0.36470511555671692 0 -0.93112307786941528
vn -0.93112307786941528 0 0.36470511555671692
vn -0.93112307786941528 0 0.36470511555671692
vn 0.91041570901870728 0 0.41369467973709106
vn 0.91041570901870728 0 0.41369467973709106
vn 0.41369467973709106 0 -0.91041570901870728
vn 0.41369467973709106 0 -0.91041570901870728
vn -0.46151390671730042 0 0.88713294267654419
vn -0.46151390671730042 0 0.88713294267654419
vn -0.88713294267654419 0 -0.46151390671730042
vn -0.88713294267654419 0 -0.46151390671730042
vn 0.94919651746749878 0 -0.31468388438224792
vn 0.94919651746749878 0 -0.31468388438224792
vn 0.31468388438224792 0 0.94919651746749878
vn 0.31468388438224792 0 0.94919651746749878
vn -0.41369467973709106 0 0.91041570901870728
vn -0.41369467973709106 0 0.91041570901870728
vn -0.91041570901870728 0 -0.41369467973709106
vn -0.91041570901870728 0 -0.41369467973709106
vn 0.83657211065292358 0 0.54785680770874023
vn 0.83657211065292358 0 0.54785680770874023
vn 0.54785680770874023 0 -0.83657211065292358
vn 0.54785680770874023 0 -0.83657211065292358
vn -0.31468388438224792 0 -0.94919651746749878
vn -0.31468388438224792 0 -0.94919651746749878
vn -0.94919651746749878 0 0.31468388438224792
vn -0.94919651746749878 0 0.31468388438224792
vn 0.89001637697219849 0 -0.45592859387397766
vn 0.89001637697219849 0 -0.45592859387397766
vn 0.45592859387397766 0 0.89001637697219849
vn 0.45592859387397766 0 0.89001637697219849
vn -0.54785680770874023 0 0.83657211065292358
vn -0.54785680770874023 0 0.83657211065292358
vn -0.83657211065292358 0 -0.54785680770874023
vn -0.83657211065292358 0 -0.54785680770874023
vn 0.98178231716156006 0 -0.19000916182994843
vn 0.98178231716156006 0 -0.19000916182994843
vn -0.19000916182994843 0 -0.98178231716156006
vn -0.19000916182994843 0 -0.98178231716156006
vn -0.45592859387397766 0 -0.89001637697219849
vn -0.45592859387397766 0 -0.89001637697219849
vn -0.89001637697219849 0 0.45592859387397766
vn -0.89001637697219849 0 0.45592859387397766
vn 0.95605576038360596 0 0.29318490624427795
vn 0.95605576038360596 0 0.29318490624427795
vn -0.29318490624427795 0 0.95605576038360596
vn -0.29318490624427795 0 0.95605576038360596
vn 0.19000916182994843 0 0.98178231716156006
vn 0.19000916182994843 0 0.98178231716156006
vn -0.98178231716156006 0 0.19000916182994843
vn -0.98178231716156006 0 0.19000916182994843
vn 0.99928265810012817 0 -0.037870798259973526
vn 0.99928265810012817 0 -0.037870798259973526
vn -0.037870798259973526 0 -0.99928265810012817
vn -0.037870798259973526 0 -0.99928265810012817
vn 0.29318490624427795 0 -0.95605576038360596
vn 0.29318490624427795 0 -0.95605576038360596
vn -0.95605576038360596 0 -0.29318490624427795
vn -0.95605576038360596 0 -0.29318490624427795
vn 0.98961186408996582 0 0.14376483857631683
vn 0.98961186408996582 0 0.14376483857631683
vn -0.14376483857631683 0 0.98961186408996582
vn -0.14376483857631683 0 0.98961186408996582
vn 0.037870798259973526 0 0.99928265810012817
vn 0.037870798259973526 0 0.99928265810012817
vn -0.99928265810012817 0 0.037870798259973526
vn -0.99928265810012817 0 0.037870798259973526
vn 0.72349482774734497 0 0.69032979011535645
vn 0.72349482774734497 0 0.69032979011535645
vn 0.79270672798156738 0 -0.6096031665802002
vn 0.79270672798156738 0 -0.6096031665802002
vn 0.69032979011535645 0 -0.72349482774734497
vn 0.69032979011535645 0 -0.72349482774734497
vn -0.69032979011535645 0 0.72349482774734497
vn -0.69032979011535645 0 0.72349482774734497
vn -0.6096031665802002 0 -0.79270672798156738
vn -0.6096031665802002 0 -0.79270672798156738
vn 0.14376483857631683 0 -0.98961186408996582
vn 0.14376483857631683 0 -0.98961186408996582
vn -0.72349482774734497 0 -0.69032979011535645
vn -0.72349482774734497 0 -0.69032979011535645
vn -0.98961186408996582 0 -0.14376483857631683
vn -0.98961186408996582 0 -0.14376483857631683
vn 0.6096031665802002 0 0.79270672798156738
vn 0.6096031665802002 0 0.79270672798156738
vn -0.79270672798156738 0 0.6096031665802002
vn -0.79270672798156738 0 0.6096031665802002
f 6//6 18//18 17//17 5//5
f 18//18 10//10 9//9 17//17
f 10//10 2//2 1//1 9//9
f 2//2 6//6 5//5 1//1
f 44//44 32//32 31//31 43//43
f 32//32 30//30 29//29 31//31
f 30//30 42//42 41//41 29//29
f 42//42 44//44 43//43 41//41
f 76//76 64//64 63//63 75//75
f 64//64 62//62 61//61 63//63
f 62//62 74//74 73//73 61//61
f 74//74 76//76 75//75 73//73
f 106//106 94//94 93//93 105//105
f 94//94 96//96 95//95 93//93
f 96//96 108//108 107//107 95//95
f 108//108 106//106 105//105 107//107
f 138//138 126//126 125//125 137//137
f 126//126 128//128 127//127 125//125
f 128//128 140//140 139//139 127//127
f 140//140 138//138 137//137 139//139
f 158//158 144//144 143//143 157//157
f 144//144 150//150 149//149 143//143
f 150//150 160//160 159//159 149//149
f 160//160 158//158 157//157 159//159
f 118//118 130//130 129//129 117//117
f 130//130 132//132 131//131 129//129
f 132//132 120//120 119//119 131//131
f 120//120 118//118 117//117 119//119
f 86//86 98//98 97//97 85//85
f 98//98 100//100 99//99 97//97
f 100//100 88//88 87//87 99//99
f 88//88 86//86 85//85 87//87
f 56//56 68//68 67//67 55//55
f 68//68 66//66 65//65 67//67
f 66//66 54//54 53//53 65//65
f 54//54 56//56 55//55 53//53
f 24//24 36//36 35//35 23//23
f 36//36 34//34 33//33 35//35
f 34//34 22//22 21//21 33//33
f 22//22 24//24 23//23 21//21
f 8//8 4//4 3//3 7//7
f 4//4 12//12 11//11 3//3
f 12//12 20//20 19//19 11//11
f 20//20 8//8 7//7 19//19
f 16//16 14//14 13//13 15//15
f 14//14 26//26 25//25 13//13
f 26//26 28//28 27//27 25//25
f 28//28 16//16 15//15 27//27
f 48//48 46//46 45//45 47//47
f 46//46 58//58 57//57 45//45
f 58//58 60//60 59//59 57//57
f 60//60 48//48 47//47 59//59
f 78//78 80//80 79//79 77//77
f 80//80 92//92 91//91 79//79
f 92//92 90//90 89//89 91//91
f 90//90 78//78 77//77 89//89
f 110//110 112//112 111//111 109//109
f 112//112 124//124 123//123 111//111
f 124//124 122//122 121//121 123//123
f 122//122 110//110 109//109 121//121
f 146//146 154//154 153//153 145//145
f 154//154 148//148 147//147 153//153
f 148//148 142//142 141//141 147//147
f 142//142 146//146 145//145 141//141
f 152//152 156//156 155//155 151//151
f 156//156 136//136 135//135 155//155
f 136//136 134//134 133//133 135//135
f 134//134 152//152 151//151 133//133
f 114//114 116//116 115//115 113//113
f 116//116 104//104 103//103 115//115
f 104//104 102//102 101//101 103//103
f 102//102 114//114 113//113 101//101
f 84//84 82//82 81//81 83//83
f 82//82 70//70 69//69 81//81
f 70//70 72//72 71//71 69//69
f 72//72 84//84 83//83 71//71
f 52//52 50//50 49//49 51//51
f 50//50 38//38 37//37 49//49
f 38//38 40//40 39//39 37//37
f 40//40 52//52 51//51 39//39
