# Rhino

mtllib Pannelli49.mtl
usemtl diffuse_Black
v 1.4761803807800722 3 -0.11919404272990701
v 1.4761803807800722 0 -0.11919404272990701
v 1.4761803807800717 3 0.11919404272990623
v 1.4761803807800717 0 0.11919404272990623
v 1.4698056448563901 3 -0.13815090802729513
v 1.4698056448563901 0 -0.1381509080272951
v 1.4698056448563896 3 0.13815090802729438
v 1.4698056448563896 0 0.13815090802729438
v 1.4691184379419666 3 -0.18710091320261368
v 1.4691184379419666 0 -0.18710091320261368
v 1.466780746176847 3 -0.16723800311342252
v 1.466780746176847 0 -0.16723800311342252
v 1.4200668123590305 3 -0.42038789808789756
v 1.4200668123590305 0 -0.42038789808789756
v 1.4099278493432936 3 -0.43762742908399849
v 1.4099278493432936 0 -0.43762742908399843
v 1.4009826087039345 3 -0.46546969520001125
v 1.4009826087039345 0 -0.46546969520001125
v 1.3991832110353002 3 -0.48538858492886194
v 1.3991832110353002 0 -0.48538858492886194
v 1.303179203000308 3 -0.70359057788587498
v 1.303179203000308 0 -0.70359057788587498
v 1.2897099261056284 3 -0.7183749811519673
v 1.2897099261056284 0 -0.71837498115196741
v 1.275227169452446 3 -0.7437808637836657
v 1.275227169452446 0 -0.7437808637836657
v 1.2693676904644822 3 -0.76290327226140742
v 1.2693676904644822 0 -0.76290327226140742
v 1.1719703202166865 3 -0.016895547119132034
v 1.1719703202166865 0 -0.016895547119132031
v 1.1719703202166865 3 0.0168955471191315
v 1.1719703202166865 0 0.0168955471191315
v 1.1655955842930044 3 -0.035852412416520145
v 1.1655955842930044 0 -0.035852412416520138
v 1.1655955842930044 3 0.035852412416519659
v 1.1655955842930044 0 0.035852412416519659
v 1.1503686348281335 3 -0.22461499278746741
v 1.1503686348281335 0 -0.22461499278746741
v 1.1480309430630138 3 -0.20475208269827622
v 1.1480309430630138 0 -0.20475208269827622
v 1.1434156526796508 3 -0.25768301493972329
v 1.1434156526796508 0 -0.25768301493972329
v 1.1332766896639139 3 -0.27492254593582421
v 1.1332766896639139 0 -0.27492254593582416
v 1.1305199457564366 3 -0.95668196840390063
v 1.1305199457564366 0 -0.95668196840390052
v 1.1142967943293811 3 -0.96837852164726379
v 1.1142967943293811 0 -0.96837852164726368
v 1.0948963345036238 3 -0.99026073522633518
v 1.0948963345036238 0 -0.99026073522633518
v 1.0852275400143812 3 -1.0077682882570929
v 1.0852275400143812 0 -1.0077682882570929
v 1.0813344730174959 3 -0.43659388344708733
v 1.0813344730174959 0 -0.43659388344708733
v 1.0795350753488615 3 -0.45651277317593802
v 1.0795350753488615 0 -0.45651277317593802
v 1.0659266750946956 3 -0.48744252410189332
v 1.0659266750946956 0 -0.48744252410189332
v 1.052457398200016 3 -0.50222692736798569
v 1.052457398200016 0 -0.50222692736798569
v 0.96836055675709154 3 -0.64975094745335304
v 0.96836055675709154 0 -0.64975094745335304
v 0.96250107776912763 3 -0.66887335593109476
v 0.96250107776912763 0 -0.66887335593109476
v 0.94281965276355262 3 -0.69634114724326879
v 0.94281965276355262 0 -0.69634114724326879
v 0.92659650133649729 3 -0.70803770048663195
v 0.92659650133649729 0 -0.70803770048663195
v 0.90947827096269607 3 -1.1688306169283051
v 0.90947827096269607 0 -1.1688306169283051
v 0.89119554083525354 3 -1.1769387473593667
v 0.89119554083525354 0 -1.1769387473593667
v 0.86770765168699593 3 -1.1943608073962877
v 0.86770765168699593 0 -1.1943608073962877
v 0.85464333329204822 3 -1.2095042411177206
v 0.85464333329204822 0 -1.2095042411177206
v 0.8139440945498343 3 -0.83510087567124791
v 0.8139440945498343 0 -0.83510087567124791
v 0.80427530006059145 3 -0.85260842870200559
v 0.80427530006059145 0 -0.85260842870200559
v 0.77936314850999489 3 -0.87543873213711831
v 0.77936314850999489 0 -0.87543873213711831
v 0.76108041838255236 3 -0.88354686256817971
v 0.76108041838255236 0 -0.8835468625681796
v 0.64951401225221872 3 -1.3309572811740886
v 0.64951401225221872 0 -1.3309572811740886
v 0.6299541422361038 3 -1.3351299883232528
v 0.6299541422361038 0 -1.3351299883232528
v 0.62469358700566746 3 -0.98471132011032902
v 0.62469358700566746 0 -0.98471132011032902
v 0.61162926861071976 3 -0.99985475383176192
v 0.61162926861071976 0 -0.99985475383176192
v 0.60338402572078387 3 -1.3473462897657209
v 0.60338402572078387 0 -1.3473462897657209
v 0.5874832919170323 3 -1.3594775165998969
v 0.5874832919170323 0 -1.3594775165998969
v 0.58255254606849183 3 -1.0170705098715502
v 0.58255254606849183 0 -1.0170705098715502
v 0.56299267605237691 3 -1.0212432170207144
v 0.56299267605237691 0 -1.0212432170207144
v 0.40870831367458638 3 -1.0921794614131464
v 0.40870831367458638 0 -1.0921794614131464
v 0.39280757987083481 3 -1.1043106882473224
v 0.39280757987083481 0 -1.1043106882473224
v 0.36175275777600036 3 -1.4361234900466451
v 0.36175275777600036 0 -1.4361234900466451
v 0.36081067139740763 3 -1.1151751209505212
v 0.36081067139740763 0 -1.1151751209505212
v 0.34175284393651739 3 -1.4361821962069359
v 0.34175284393651739 0 -1.4361821962069359
v 0.34081075755792467 3 -1.115233827110812
v 0.34081075755792467 0 -1.115233827110812
v 0.31323761088213797 3 -1.442669922806088
v 0.31323761088213797 0 -1.442669922806088
v 0.29518095912133502 3 -1.451269767408701
v 0.29518095912133502 0 -1.451269767408701
v 0.17523171136471796 3 -1.1529060277974206
v 0.17523171136471796 0 -1.1529060277974206
v 0.15717505960391498 3 -1.1615058724000336
v 0.15717505960391498 0 -1.1615058724000336
v 0.12362732430867644 3 -1.1655540209126025
v 0.12362732430867641 0 -1.1655540209126025
v 0.10404329509359443 3 -1.1614962136595635
v 0.10404329509359443 0 -1.1614962136595635
v 0.058509712781858812 3 -1.479828486660695
v 0.058509712781858819 0 -1.479828486660695
v 0.038925683566776809 3 -1.4757706794076559
v 0.038925683566776829 0 -1.4757706794076559
v 0.0096856891889601504 3 -1.4762521784794793
v 0.0096856891889601504 0 -1.4762521784794793
v -0.0097541171041329311 3 -1.4809525966828969
v -0.0097541171041329311 0 -1.4809525966828969
v -0.06574421358784216 3 -1.1642921282818806
v -0.06574421358784216 0 -1.1642921282818806
v -0.085184019880935255 3 -1.1689925464852982
v -0.085184019880935255 0 -1.1689925464852982
v -0.1188468527629556 3 -1.166051163787249
v -0.1188468527629556 0 -1.166051163787249
v -0.13717686735659437 3 -1.158050503502186
v -0.13717686735659443 0 -1.158050503502186
v -0.24723734938169298 3 -1.4602018454628154
v -0.24723734938169289 0 -1.4602018454628154
v -0.26556736397533176 3 -1.4522011851777523
v -0.26556736397533176 0 -1.4522011851777523
v -0.29428074713561148 3 -1.4466558501958162
v -0.29428074713561148 0 -1.4466558501958162
v -0.30390650928491281 3 -1.1258504764015929
v -0.30390650928491281 0 -1.1258504764015929
v -0.31427175021563025 3 -1.4472556800505918
v -0.31427175021563025 0 -1.4472556800505918
v -0.32389751236493164 3 -1.1264503062563684
v -0.32389751236493164 0 -1.1264503062563684
v -0.35623478781254375 3 -1.1166452735463532
v -0.3562347878125437 0 -1.1166452735463532
v -0.3725263253583192 3 -1.1050441613412845
v -0.37252632535831914 0 -1.1050441613412845
v -0.54240349192802884 3 -1.3780835200983206
v -0.54240349192802895 0 -1.3780835200983206
v -0.55869502947380434 3 -1.3664824078932518
v -0.55869502947380434 0 -1.3664824078932518
vn 0.8956073522567749 0 0.44484543800354004
vn 0.8956073522567749 0 0.44484543800354004
vn 0.8956073522567749 0 -0.44484543800354004
vn 0.8956073522567749 0 -0.44484543800354004
vn 0.44484543800354004 0 -0.8956073522567749
vn 0.44484543800354004 0 -0.8956073522567749
vn 0.44484543800354004 0 0.8956073522567749
vn 0.44484543800354004 0 0.8956073522567749
vn 0.78490984439849854 0 -0.6196100115776062
vn 0.78490984439849854 0 -0.6196100115776062
vn 0.6196100115776062 0 0.78490984439849854
vn 0.6196100115776062 0 0.78490984439849854
vn 0.967975914478302 0 0.25104296207427979
vn 0.967975914478302 0 0.25104296207427979
vn 0.25104296207427979 0 -0.967975914478302
vn 0.25104296207427979 0 -0.967975914478302
vn 0.76785743236541748 0 0.64062076807022095
vn 0.76785743236541748 0 0.64062076807022095
vn 0.64062076807022095 0 -0.76785743236541748
vn 0.64062076807022095 0 -0.76785743236541748
vn 0.99891841411590576 0 0.046496741473674774
vn 0.99891841411590576 0 0.046496741473674774
vn 0.046496741473674774 0 -0.99891841411590576
vn 0.046496741473674774 0 -0.99891841411590576
vn 0.88324308395385742 0 0.46891537308692932
vn 0.88324308395385742 0 0.46891537308692932
vn 0.46891537308692932 0 -0.88324308395385742
vn 0.46891537308692932 0 -0.88324308395385742
vn -0.44484543800354004 0 0.8956073522567749
vn -0.44484543800354004 0 0.8956073522567749
vn -0.44484543800354004 0 -0.8956073522567749
vn -0.44484543800354004 0 -0.8956073522567749
vn -0.8956073522567749 0 -0.44484543800354004
vn -0.8956073522567749 0 -0.44484543800354004
vn -0.8956073522567749 0 0.44484543800354004
vn -0.8956073522567749 0 0.44484543800354004
vn -0.6196100115776062 0 -0.78490984439849854
vn -0.6196100115776062 0 -0.78490984439849854
vn -0.78490984439849854 0 0.6196100115776062
vn -0.78490984439849854 0 0.6196100115776062
vn -0.25104296207427979 0 0.967975914478302
vn -0.25104296207427979 0 0.967975914478302
vn -0.967975914478302 0 -0.25104296207427979
vn -0.967975914478302 0 -0.25104296207427979
vn 0.98711061477661133 0 -0.16003942489624023
vn 0.98711061477661133 0 -0.16003942489624023
vn -0.16003942489624023 0 -0.98711061477661133
vn -0.16003942489624023 0 -0.98711061477661133
vn 0.96082895994186401 0 0.2771419882774353
vn 0.96082895994186401 0 0.2771419882774353
vn 0.2771419882774353 0 -0.96082895994186401
vn 0.2771419882774353 0 -0.96082895994186401
vn -0.64062076807022095 0 0.76785743236541748
vn -0.64062076807022095 0 0.76785743236541748
vn -0.76785743236541748 0 -0.64062076807022095
vn -0.76785743236541748 0 -0.64062076807022095
vn -0.046496741473674774 0 0.99891841411590576
vn -0.046496741473674774 0 0.99891841411590576
vn -0.99891841411590576 0 -0.046496741473674774
vn -0.99891841411590576 0 -0.046496741473674774
vn -0.46891537308692932 0 0.88324308395385742
vn -0.46891537308692932 0 0.88324308395385742
vn -0.88324308395385742 0 -0.46891537308692932
vn -0.88324308395385742 0 -0.46891537308692932
vn 0.16003942489624023 0 0.98711061477661133
vn 0.16003942489624023 0 0.98711061477661133
vn -0.98711061477661133 0 0.16003942489624023
vn -0.98711061477661133 0 0.16003942489624023
vn 0.93305784463882446 0 -0.35972639918327332
vn 0.93305784463882446 0 -0.35972639918327332
vn -0.35972639918327332 0 -0.93305784463882446
vn -0.35972639918327332 0 -0.93305784463882446
vn 0.99729466438293457 0 0.073507808148860931
vn 0.99729466438293457 0 0.073507808148860931
vn 0.073507808148860931 0 -0.99729466438293457
vn 0.073507808148860931 0 -0.99729466438293457
vn -0.2771419882774353 0 0.96082895994186401
vn -0.2771419882774353 0 0.96082895994186401
vn -0.96082895994186401 0 -0.2771419882774353
vn -0.96082895994186401 0 -0.2771419882774353
vn 0.35972639918327332 0 0.93305784463882446
vn 0.35972639918327332 0 0.93305784463882446
vn -0.93305784463882446 0 0.35972639918327332
vn -0.93305784463882446 0 0.35972639918327332
vn 0.8390733003616333 0 -0.54401838779449463
vn 0.8390733003616333 0 -0.54401838779449463
vn -0.54401838779449463 0 -0.8390733003616333
vn -0.54401838779449463 0 -0.8390733003616333
vn -0.073507808148860931 0 0.99729466438293457
vn -0.073507808148860931 0 0.99729466438293457
vn -0.99729466438293457 0 -0.073507808148860931
vn -0.99729466438293457 0 -0.073507808148860931
vn 0.99107944965362549 0 -0.13327217102050781
vn 0.99107944965362549 0 -0.13327217102050781
vn -0.13327217102050781 0 -0.99107944965362549
vn -0.13327217102050781 0 -0.99107944965362549
vn 0.54401838779449463 0 0.8390733003616333
vn 0.54401838779449463 0 0.8390733003616333
vn -0.8390733003616333 0 0.54401838779449463
vn -0.8390733003616333 0 0.54401838779449463
vn 0.13327217102050781 0 0.99107944965362549
vn 0.13327217102050781 0 0.99107944965362549
vn -0.99107944965362549 0 0.13327217102050781
vn -0.99107944965362549 0 0.13327217102050781
vn 0.70917928218841553 0 -0.70502817630767822
vn 0.70917928218841553 0 -0.70502817630767822
vn 0.70502817630767822 0 0.70917928218841553
vn 0.70502817630767822 0 0.70917928218841553
vn -0.70502817630767822 0 -0.70917928218841553
vn -0.70502817630767822 0 -0.70917928218841553
vn -0.70917928218841553 0 0.70502817630767822
vn -0.70917928218841553 0 0.70502817630767822
vn 0.94244945049285889 0 -0.33434861898422241
vn 0.94244945049285889 0 -0.33434861898422241
vn -0.33434861898422241 0 -0.94244945049285889
vn -0.33434861898422241 0 -0.94244945049285889
vn 0.33434861898422241 0 0.94244945049285889
vn 0.33434861898422241 0 0.94244945049285889
vn -0.94244945049285889 0 0.33434861898422241
vn -0.94244945049285889 0 0.33434861898422241
vn 0.83586513996124268 0 0.54893481731414795
vn 0.83586513996124268 0 0.54893481731414795
vn -0.54893481731414795 0 0.83586513996124268
vn -0.54893481731414795 0 0.83586513996124268
vn 0.54893481731414795 0 -0.83586513996124268
vn 0.54893481731414795 0 -0.83586513996124268
vn -0.83586513996124268 0 -0.54893481731414795
vn -0.83586513996124268 0 -0.54893481731414795
vn 0.8534858226776123 0 -0.52111601829528809
vn 0.8534858226776123 0 -0.52111601829528809
vn -0.52111601829528809 0 -0.8534858226776123
vn -0.52111601829528809 0 -0.8534858226776123
vn 0.52111601829528809 0 0.8534858226776123
vn 0.52111601829528809 0 0.8534858226776123
vn -0.8534858226776123 0 0.52111601829528809
vn -0.8534858226776123 0 0.52111601829528809
vn 0.93092995882034302 0 0.3651978075504303
vn 0.93092995882034302 0 0.3651978075504303
vn -0.3651978075504303 0 0.93092995882034302
vn -0.3651978075504303 0 0.93092995882034302
vn 0.3651978075504303 0 -0.93092995882034302
vn 0.3651978075504303 0 -0.93092995882034302
vn -0.93092995882034302 0 -0.3651978075504303
vn -0.93092995882034302 0 -0.3651978075504303
vn 0.72799587249755859 0 -0.6855815052986145
vn 0.72799587249755859 0 -0.6855815052986145
vn 0.6855815052986145 0 0.72799587249755859
vn 0.6855815052986145 0 0.72799587249755859
vn -0.6855815052986145 0 -0.72799587249755859
vn -0.6855815052986145 0 -0.72799587249755859
vn -0.72799587249755859 0 0.6855815052986145
vn -0.72799587249755859 0 0.6855815052986145
vn 0.98615407943725586 0 0.16583158075809479
vn 0.98615407943725586 0 0.16583158075809479
vn -0.16583158075809479 0 0.98615407943725586
vn -0.16583158075809479 0 0.98615407943725586
vn 0.16583158075809479 0 -0.98615407943725586
vn 0.16583158075809479 0 -0.98615407943725586
vn -0.98615407943725586 0 -0.16583158075809479
vn -0.98615407943725586 0 -0.16583158075809479
f 6//6 34//34 33//33 5//5
f 34//34 30//30 29//29 33//33
f 30//30 2//2 1//1 29//29
f 2//2 6//6 5//5 1//1
f 16//16 44//44 43//43 15//15
f 44//44 42//42 41//41 43//43
f 42//42 14//14 13//13 41//41
f 14//14 16//16 15//15 13//13
f 24//24 60//60 59//59 23//23
f 60//60 58//58 57//57 59//59
f 58//58 22//22 21//21 57//57
f 22//22 24//24 23//23 21//21
f 48//48 68//68 67//67 47//47
f 68//68 66//66 65//65 67//67
f 66//66 46//46 45//45 65//65
f 46//46 48//48 47//47 45//45
f 72//72 84//84 83//83 71//71
f 84//84 82//82 81//81 83//83
f 82//82 70//70 69//69 81//81
f 70//70 72//72 71//71 69//69
f 88//88 100//100 99//99 87//87
f 100//100 98//98 97//97 99//99
f 98//98 86//86 85//85 97//97
f 86//86 88//88 87//87 85//85
f 110//110 112//112 111//111 109//109
f 112//112 108//108 107//107 111//111
f 108//108 106//106 105//105 107//107
f 106//106 110//110 109//109 105//105
f 128//128 124//124 123//123 127//127
f 124//124 122//122 121//121 123//123
f 122//122 126//126 125//125 121//121
f 126//126 128//128 127//127 125//125
f 144//144 140//140 139//139 143//143
f 140//140 138//138 137//137 139//139
f 138//138 142//142 141//141 137//137
f 142//142 144//144 143//143 141//141
f 160//160 156//156 155//155 159//159
f 156//156 154//154 153//153 155//155
f 154//154 158//158 157//157 153//153
f 158//158 160//160 159//159 157//157
f 8//8 4//4 3//3 7//7
f 4//4 32//32 31//31 3//3
f 32//32 36//36 35//35 31//31
f 36//36 8//8 7//7 35//35
f 12//12 10//10 9//9 11//11
f 10//10 38//38 37//37 9//9
f 38//38 40//40 39//39 37//37
f 40//40 12//12 11//11 39//39
f 18//18 20//20 19//19 17//17
f 20//20 56//56 55//55 19//19
f 56//56 54//54 53//53 55//55
f 54//54 18//18 17//17 53//53
f 26//26 28//28 27//27 25//25
f 28//28 64//64 63//63 27//27
f 64//64 62//62 61//61 63//63
f 62//62 26//26 25//25 61//61
f 50//50 52//52 51//51 49//49
f 52//52 80//80 79//79 51//51
f 80//80 78//78 77//77 79//79
f 78//78 50//50 49//49 77//77
f 74//74 76//76 75//75 73//73
f 76//76 92//92 91//91 75//75
f 92//92 90//90 89//89 91//91
f 90//90 74//74 73//73 89//89
f 94//94 96//96 95//95 93//93
f 96//96 104//104 103//103 95//95
f 104//104 102//102 101//101 103//103
f 102//102 94//94 93//93 101//101
f 114//114 116//116 115//115 113//113
f 116//116 120//120 119//119 115//115
f 120//120 118//118 117//117 119//119
f 118//118 114//114 113//113 117//117
f 130//130 132//132 131//131 129//129
f 132//132 136//136 135//135 131//131
f 136//136 134//134 133//133 135//135
f 134//134 130//130 129//129 133//133
f 146//146 150//150 149//149 145//145
f 150//150 152//152 151//151 149//149
f 152//152 148//148 147//147 151//151
f 148//148 146//146 145//145 147//147
