# Rhino

mtllib Pannelli159.mtl
usemtl diffuse_Black
v 1.2290814153675018 3 -0.32649991308868226
v 1.2290814153675018 0 -0.32649991308868226
v 1.2290814153675034 3 0.32649991308867582
v 1.2290814153675034 0 0.32649991308867582
v 1.2095697981068334 3 -0.33089272447470669
v 1.2095697981068334 0 -0.33089272447470675
v 1.209569798106835 3 0.33089272447470042
v 1.209569798106835 0 0.33089272447470042
v 1.2046334077558034 3 -0.40755572841924154
v 1.2046334077558034 0 -0.40755572841924154
v 1.1908048069498136 3 -0.39310685996013456
v 1.1908048069498136 0 -0.39310685996013456
v 1.1639747072590365 3 -0.037314455739896515
v 1.1639747072590365 0 -0.037314455739896515
v 1.1639747072590363 3 0.037314455739890638
v 1.1639747072590363 0 0.037314455739890638
v 1.1444630899983681 3 -0.041707267125920967
v 1.1444630899983681 0 -0.041707267125920995
v 1.1444630899983679 3 0.041707267125915194
v 1.1444630899983679 0 0.041707267125915194
v 0.99048393066749785 3 -0.6125120985216429
v 0.99048393066749785 0 -0.6125120985216429
v 0.97665532986150805 3 -0.59806323006253592
v 0.97665532986150805 0 -0.59806323006253592
v 0.94921892705061173 3 -0.67469468374577379
v 0.94921892705061173 0 -0.67469468374577379
v 0.93053244009464908 3 -0.6675662052794642
v 0.93053244009464908 0 -0.6675662052794642
v 0.92998917779811785 3 0.86738886782519853
v 0.92998917779811774 0 0.86738886782519853
v 0.92333606886224928 3 0.84852789909378201
v 0.92333606886224917 0 0.84852789909378201
v 0.8435663674528906 3 -0.95165072508301773
v 0.8435663674528906 0 -0.95165072508301773
v 0.82487988049692795 3 -0.94452224661670814
v 0.82487988049692795 0 -0.94452224661670814
v 0.7783770362246375 3 -1.0056701787001778
v 0.7783770362246375 0 -1.0056701787001778
v 0.7748440148567004 3 -0.98598470791551773
v 0.7748440148567004 0 -0.98598470791551773
v 0.65044710828291508 3 0.96599588356903365
v 0.65044710828291508 0 0.96599588356903365
v 0.64379399934704651 3 0.94713491483761714
v 0.64379399934704651 0 0.94713491483761714
v 0.58723975050625876 3 1.0056733879203876
v 0.58723975050625876 0 1.0056733879203876
v 0.5731456111328227 3 0.99148341838827936
v 0.5731456111328227 0 0.99148341838827936
v 0.48661486213446103 3 -1.0580337724741034
v 0.48661486213446103 0 -1.0580337724741034
v 0.48308184076652377 3 -1.0383483016894435
v 0.48308184076652377 0 -1.0383483016894435
v 0.41784889588085794 3 -1.0870288809213269
v 0.41784889588085788 0 -1.0870288809213269
v 0.40622046179578297 3 -1.0707568337013527
v 0.40622046179578297 0 -1.0707568337013527
v 0.37692746454419518 3 1.2145653565456997
v 0.37692746454419518 0 1.2145653565456997
v 0.362833325170759 3 1.2003753870135914
v 0.362833325170759 0 1.2003753870135914
v 0.30016405871702978 3 1.2175592919677543
v 0.30016405871702989 0 1.2175592919677543
v 0.2952786808885115 3 1.2369534427218507
v 0.2952786808885115 0 1.2369534427218507
v 0.17667773336554457 3 -1.2593761540467214
v 0.17667773336554454 0 -1.2593761540467217
v 0.16504929928046963 3 -1.2431041068267472
v 0.1650492992804696 0 -1.2431041068267474
v 0.10043214221255367 3 -1.2499849904751246
v 0.10043214221255367 0 -1.2499849904751246
v 0.092491136386960437 3 -1.2683409275658288
v 0.092491136386960437 0 -1.2683409275658288
v 0.012719595206548103 3 1.1451521612421238
v 0.012719595206548102 0 1.1451521612421238
v 0.007834217378029789 3 1.1645463119962203
v 0.0078342173780297369 0 1.1645463119962203
v -0.066770773662401944 3 1.1626569363016968
v -0.066770773662401944 0 1.1626569363016968
v -0.070668202593310248 3 1.143040360460625
v -0.070668202593310248 0 1.143040360460625
v -0.17162475556912321 3 -1.1322898055602033
v -0.17162475556912321 0 -1.1322898055602033
v -0.17956576139471636 3 -1.150645742650908
v -0.17956576139471636 0 -1.150645742650908
v -0.25289563722324498 3 -1.1367819863190007
v -0.25289563722324498 0 -1.1367819863190007
v -0.25358732634356612 3 -1.1167939507436666
v -0.25358732634356612 0 -1.1167939507436666
v -0.35751184245390444 3 1.2204214851246733
v -0.35751184245390444 0 1.2204214851246733
v -0.36140927138481277 3 1.2008049092836015
v -0.36140927138481277 0 1.2008049092836015
v -0.42312839351787562 3 1.1804708612250796
v -0.42312839351787562 0 1.1804708612250796
v -0.43792272861262227 3 1.1939292284776239
v -0.43792272861262227 0 1.1939292284776239
v -0.5491421826599826 3 -1.1470336446992864
v -0.5491421826599826 0 -1.1470336446992864
v -0.54983387178030385 3 -1.1270456091239522
v -0.54983387178030385 0 -1.1270456091239522
v -0.60747911247391273 3 -1.0970497798689021
v -0.60747911247391273 0 -1.0970497798689021
v -0.62259746043834652 3 0.96120115623913349
v -0.62259746043834652 0 0.96120115623913349
v -0.62424540394385342 3 -1.1079535164002474
v -0.62424540394385342 0 -1.1079535164002474
v -0.63739179553309311 3 0.97465952349167762
v -0.63739179553309311 0 0.97465952349167762
v -0.69091046776173992 3 0.91333344734383748
v -0.69091046776173992 0 0.91333344734383748
v -0.69850974604593619 3 0.9318334735481254
v -0.69850974604593619 0 0.9318334735481254
v -0.76908550283623189 3 -0.84855332762700608
v -0.76908550283623189 0 -0.84855332762700608
v -0.78585179430617258 3 -0.85945706415835132
v -0.78585179430617258 0 -0.85945706415835132
v -0.8288104532467272 3 -0.79032176554152966
v -0.8288104532467272 0 -0.79032176554152966
v -0.83928622365709138 3 -0.80735873224072052
v -0.83928622365709138 0 -0.80735873224072052
v -0.96510293819503279 3 0.80070307248680772
v -0.96510293819503279 0 0.80070307248680772
v -0.97270221647922894 3 0.81920309869109575
v -0.97270221647922894 0 0.81920309869109575
v -1.0052853547123779 3 0.74963354194119958
v -1.0052853547123779 0 0.74963354194119958
v -1.0250539611004883 3 0.75266705499901965
v -1.0250539611004883 0 0.75266705499901965
v -1.0502456391049773 3 0.45663919897518973
v -1.0502456391049773 0 0.45663919897518973
v -1.0700142454930877 3 0.4596727120330098
v -1.0700142454930877 0 0.4596727120330098
v -1.080697888428253 3 0.3789819711364118
v -1.080697888428253 0 0.3789819711364118
v -1.0813186354707129 3 -0.63505834392302507
v -1.0813186354707129 0 -0.63505834392302507
v -1.0917944058810773 3 -0.65209531062221593
v -1.0917944058810773 0 -0.65209531062221582
v -1.0972591164198486 3 0.39019471956890572
v -1.0972591164198486 0 0.39019471956890572
v -1.1100159350554537 3 -0.28177985098777336
v -1.1100159350554537 0 -0.28177985098777336
v -1.1127642514251992 3 -0.57819098259365453
v -1.1127642514251992 0 -0.57819098259365453
v -1.1275818645704314 3 -0.20023585890542803
v -1.1275818645704314 0 -0.20023585890542797
v -1.1300150754158216 3 -0.2815944194739991
v -1.1300150754158216 0 -0.2815944194739991
v -1.1327633917855673 3 -0.57800555107988028
v -1.1327633917855673 0 -0.57800555107988028
v -1.1457308761523652 3 -0.20863903560229852
v -1.1457308761523652 0 -0.20863903560229852
v -1.2468842040097912 3 0.13352480441239745
v -1.2468842040097912 0 0.13352480441239745
v -1.2521269734561886 3 0.068754155844900994
v -1.2521269734561886 0 0.068754155844900994
v -1.2634454320013866 3 0.14473755284489137
v -1.2634454320013866 0 0.14473755284489137
v -1.2702759850381224 3 0.06035097914803049
v -1.2702759850381224 0 0.060350979148030441
vn 0.84514915943145752 0 -0.53453052043914795
vn 0.84514915943145752 0 -0.53453052043914795
vn 0.84514915943145752 0 0.53453052043914795
vn 0.84514915943145752 0 0.53453052043914795
vn -0.53453052043914795 0 -0.84514915943145752
vn -0.53453052043914795 0 -0.84514915943145752
vn -0.53453052043914795 0 0.84514915943145752
vn -0.53453052043914795 0 0.84514915943145752
vn 0.9997594952583313 0 -0.021929765120148659
vn 0.9997594952583313 0 -0.021929765120148659
vn 0.021929765120148659 0 0.9997594952583313
vn 0.021929765120148659 0 0.9997594952583313
vn 0.53453052043914795 0 0.84514915943145752
vn 0.53453052043914795 0 0.84514915943145752
vn 0.53453052043914795 0 -0.84514915943145752
vn 0.53453052043914795 0 -0.84514915943145752
vn -0.84514915943145752 0 0.53453052043914795
vn -0.84514915943145752 0 0.53453052043914795
vn -0.84514915943145752 0 -0.53453052043914795
vn -0.84514915943145752 0 -0.53453052043914795
vn -0.021929765120148659 0 -0.9997594952583313
vn -0.021929765120148659 0 -0.9997594952583313
vn -0.9997594952583313 0 0.021929765120148659
vn -0.9997594952583313 0 0.021929765120148659
vn 0.91269683837890625 0 0.40863731503486633
vn 0.91269683837890625 0 0.40863731503486633
vn -0.40863731503486633 0 0.91269683837890625
vn -0.40863731503486633 0 0.91269683837890625
vn 0.90205889940261841 0 0.43161296844482422
vn 0.90205889940261841 0 0.43161296844482422
vn 0.43161296844482422 0 -0.90205889940261841
vn 0.43161296844482422 0 -0.90205889940261841
vn 0.40863731503486633 0 -0.91269683837890625
vn 0.40863731503486633 0 -0.91269683837890625
vn -0.91269683837890625 0 -0.40863731503486633
vn -0.91269683837890625 0 -0.40863731503486633
vn 0.82089769840240479 0 -0.57107532024383545
vn 0.82089769840240479 0 -0.57107532024383545
vn 0.57107532024383545 0 0.82089769840240479
vn 0.57107532024383545 0 0.82089769840240479
vn -0.43161296844482422 0 0.90205889940261841
vn -0.43161296844482422 0 0.90205889940261841
vn -0.90205889940261841 0 -0.43161296844482422
vn -0.90205889940261841 0 -0.43161296844482422
vn 0.99999427795410156 0 0.003388101002201438
vn 0.99999427795410156 0 0.003388101002201438
vn 0.003388101002201438 0 -0.99999427795410156
vn 0.003388101002201438 0 -0.99999427795410156
vn -0.57107532024383545 0 -0.82089769840240479
vn -0.57107532024383545 0 -0.82089769840240479
vn -0.82089769840240479 0 0.57107532024383545
vn -0.82089769840240479 0 0.57107532024383545
vn 0.98643100261688232 0 -0.16417650878429413
vn 0.98643100261688232 0 -0.16417650878429413
vn 0.16417650878429413 0 0.98643100261688232
vn 0.16417650878429413 0 0.98643100261688232
vn -0.003388101002201438 0 0.99999427795410156
vn -0.003388101002201438 0 0.99999427795410156
vn -0.99999427795410156 0 -0.003388101002201438
vn -0.99999427795410156 0 -0.003388101002201438
vn 0.85841095447540283 0 -0.51296257972717285
vn 0.85841095447540283 0 -0.51296257972717285
vn 0.51296257972717285 0 0.85841095447540283
vn 0.51296257972717285 0 0.85841095447540283
vn -0.16417650878429413 0 -0.98643100261688232
vn -0.16417650878429413 0 -0.98643100261688232
vn -0.98643100261688232 0 0.16417650878429413
vn -0.98643100261688232 0 0.16417650878429413
vn 0.92973732948303223 0 0.36822345852851868
vn 0.92973732948303223 0 0.36822345852851868
vn 0.36822345852851868 0 -0.92973732948303223
vn 0.36822345852851868 0 -0.92973732948303223
vn -0.51296257972717285 0 -0.85841095447540283
vn -0.51296257972717285 0 -0.85841095447540283
vn -0.85841095447540283 0 0.51296257972717285
vn -0.85841095447540283 0 0.51296257972717285
vn 0.83134561777114868 0 0.55575579404830933
vn 0.83134561777114868 0 0.55575579404830933
vn 0.55575579404830933 0 -0.83134561777114868
vn 0.55575579404830933 0 -0.83134561777114868
vn -0.36822345852851868 0 0.92973732948303223
vn -0.36822345852851868 0 0.92973732948303223
vn -0.92973732948303223 0 -0.36822345852851868
vn -0.92973732948303223 0 -0.36822345852851868
vn 0.73113864660263062 0 -0.68222886323928833
vn 0.73113864660263062 0 -0.68222886323928833
vn 0.68222886323928833 0 0.73113864660263062
vn 0.68222886323928833 0 0.73113864660263062
vn -0.55575579404830933 0 0.83134561777114868
vn -0.55575579404830933 0 0.83134561777114868
vn -0.83134561777114868 0 -0.55575579404830933
vn -0.83134561777114868 0 -0.55575579404830933
vn 0.99888384342193604 0 0.047233596444129944
vn 0.99888384342193604 0 0.047233596444129944
vn -0.047233596444129944 0 0.99888384342193604
vn -0.047233596444129944 0 0.99888384342193604
vn -0.68222886323928833 0 -0.73113864660263062
vn -0.68222886323928833 0 -0.73113864660263062
vn -0.73113864660263062 0 0.68222886323928833
vn -0.73113864660263062 0 0.68222886323928833
vn 0.97828322649002075 0 -0.20727263391017914
vn 0.97828322649002075 0 -0.20727263391017914
vn 0.047233596444129944 0 -0.99888384342193604
vn 0.047233596444129944 0 -0.99888384342193604
vn -0.20727263391017914 0 -0.97828322649002075
vn -0.20727263391017914 0 -0.97828322649002075
vn -0.99888384342193604 0 -0.047233596444129944
vn -0.99888384342193604 0 -0.047233596444129944
vn 0.92274975776672363 0 -0.38539963960647583
vn 0.92274975776672363 0 -0.38539963960647583
vn 0.38539963960647583 0 0.92274975776672363
vn 0.38539963960647583 0 0.92274975776672363
vn 0.20727263391017914 0 0.97828322649002075
vn 0.20727263391017914 0 0.97828322649002075
vn -0.97828322649002075 0 0.20727263391017914
vn -0.97828322649002075 0 0.20727263391017914
vn 0.97272211313247681 0 0.23197335004806519
vn 0.97272211313247681 0 0.23197335004806519
vn 0.23197335004806519 0 -0.97272211313247681
vn 0.23197335004806519 0 -0.97272211313247681
vn -0.38539963960647583 0 -0.92274975776672363
vn -0.38539963960647583 0 -0.92274975776672363
vn -0.92274975776672363 0 0.38539963960647583
vn -0.92274975776672363 0 0.38539963960647583
vn 0.80617666244506836 0 0.59167492389678955
vn 0.80617666244506836 0 0.59167492389678955
vn -0.59167492389678955 0 0.80617666244506836
vn -0.59167492389678955 0 0.80617666244506836
vn 0.59167492389678955 0 -0.80617666244506836
vn 0.59167492389678955 0 -0.80617666244506836
vn -0.80617666244506836 0 -0.59167492389678955
vn -0.80617666244506836 0 -0.59167492389678955
vn 0.98195832967758179 0 0.18909731507301331
vn 0.98195832967758179 0 0.18909731507301331
vn -0.23197335004806519 0 0.97272211313247681
vn -0.23197335004806519 0 0.97272211313247681
vn -0.97272211313247681 0 -0.23197335004806519
vn -0.97272211313247681 0 -0.23197335004806519
vn -0.18909731507301331 0 0.98195832967758179
vn -0.18909731507301331 0 0.98195832967758179
vn 0.71363234519958496 0 0.70052039623260498
vn 0.71363234519958496 0 0.70052039623260498
vn 0.70052039623260498 0 -0.71363234519958496
vn 0.70052039623260498 0 -0.71363234519958496
vn 0.93876165151596069 0 -0.34456726908683777
vn 0.93876165151596069 0 -0.34456726908683777
vn -0.70052039623260498 0 0.71363234519958496
vn -0.70052039623260498 0 0.71363234519958496
vn -0.71363234519958496 0 -0.70052039623260498
vn -0.71363234519958496 0 -0.70052039623260498
vn -0.34456726908683777 0 -0.93876165151596069
vn -0.34456726908683777 0 -0.93876165151596069
vn 0.18909731507301331 0 -0.98195832967758179
vn 0.18909731507301331 0 -0.98195832967758179
vn 0.34456726908683777 0 0.93876165151596069
vn 0.34456726908683777 0 0.93876165151596069
vn -0.98195832967758179 0 -0.18909731507301331
vn -0.98195832967758179 0 -0.18909731507301331
vn -0.93876165151596069 0 0.34456726908683777
vn -0.93876165151596069 0 0.34456726908683777
f 6//6 18//18 17//17 5//5
f 18//18 14//14 13//13 17//17
f 14//14 2//2 1//1 13//13
f 2//2 6//6 5//5 1//1
f 36//36 28//28 27//27 35//35
f 28//28 26//26 25//25 27//27
f 26//26 34//34 33//33 25//25
f 34//34 36//36 35//35 33//33
f 68//68 56//56 55//55 67//67
f 56//56 54//54 53//53 55//55
f 54//54 66//66 65//65 53//53
f 66//66 68//68 67//67 65//65
f 100//100 88//88 87//87 99//99
f 88//88 86//86 85//85 87//87
f 86//86 98//98 97//97 85//85
f 98//98 100//100 99//99 97//97
f 136//136 118//118 117//117 135//135
f 118//118 120//120 119//119 117//117
f 120//120 138//138 137//137 119//119
f 138//138 136//136 135//135 137//137
f 156//156 146//146 145//145 155//155
f 146//146 152//152 151//151 145//145
f 152//152 160//160 159//159 151//151
f 160//160 156//156 155//155 159//159
f 126//126 130//130 129//129 125//125
f 130//130 132//132 131//131 129//129
f 132//132 128//128 127//127 131//131
f 128//128 126//126 125//125 127//127
f 94//94 104//104 103//103 93//93
f 104//104 108//108 107//107 103//103
f 108//108 96//96 95//95 107//107
f 96//96 94//94 93//93 95//95
f 62//62 74//74 73//73 61//61
f 74//74 76//76 75//75 73//73
f 76//76 64//64 63//63 75//75
f 64//64 62//62 61//61 63//63
f 32//32 44//44 43//43 31//31
f 44//44 42//42 41//41 43//43
f 42//42 30//30 29//29 41//41
f 30//30 32//32 31//31 29//29
f 8//8 4//4 3//3 7//7
f 4//4 16//16 15//15 3//3
f 16//16 20//20 19//19 15//15
f 20//20 8//8 7//7 19//19
f 12//12 10//10 9//9 11//11
f 10//10 22//22 21//21 9//9
f 22//22 24//24 23//23 21//21
f 24//24 12//12 11//11 23//23
f 40//40 38//38 37//37 39//39
f 38//38 50//50 49//49 37//37
f 50//50 52//52 51//51 49//49
f 52//52 40//40 39//39 51//51
f 70//70 72//72 71//71 69//69
f 72//72 84//84 83//83 71//71
f 84//84 82//82 81//81 83//83
f 82//82 70//70 69//69 81//81
f 102//102 106//106 105//105 101//101
f 106//106 116//116 115//115 105//105
f 116//116 114//114 113//113 115//115
f 114//114 102//102 101//101 113//113
f 144//144 150//150 149//149 143//143
f 150//150 148//148 147//147 149//149
f 148//148 142//142 141//141 147//147
f 142//142 144//144 143//143 141//141
f 154//154 158//158 157//157 153//153
f 158//158 140//140 139//139 157//157
f 140//140 134//134 133//133 139//139
f 134//134 154//154 153//153 133//133
f 122//122 124//124 123//123 121//121
f 124//124 112//112 111//111 123//123
f 112//112 110//110 109//109 111//111
f 110//110 122//122 121//121 109//109
f 92//92 90//90 89//89 91//91
f 90//90 78//78 77//77 89//89
f 78//78 80//80 79//79 77//77
f 80//80 92//92 91//91 79//79
f 60//60 58//58 57//57 59//59
f 58//58 46//46 45//45 57//57
f 46//46 48//48 47//47 45//45
f 48//48 60//60 59//59 47//47
