# Rhino

mtllib Pannelli140.mtl
usemtl diffuse_Black
v 1.284295546359369 3 -0.30947844744032804
v 1.284295546359369 0 -0.30947844744032799
v 1.2842955463593693 3 0.30947844744032604
v 1.2842955463593693 0 0.30947844744032604
v 1.2659019329111691 3 -0.31733178967903064
v 1.2659019329111691 0 -0.31733178967903064
v 1.2659019329111694 3 0.3173317896790287
v 1.2659019329111694 0 0.3173317896790287
v 1.2621030867599932 3 -0.39024064142459902
v 1.2621030867599932 0 -0.39024064142459902
v 1.2503051870705841 3 -0.37409104195840082
v 1.2503051870705841 0 -0.37409104195840082
v 1.1668762359193279 3 -0.034466186170902802
v 1.1668762359193279 0 -0.034466186170902843
v 1.1668762359193279 3 0.034466186170901081
v 1.1668762359193279 0 0.034466186170901081
v 1.148482622471128 3 -0.042319528409605428
v 1.148482622471128 0 -0.042319528409605463
v 1.148482622471128 3 0.042319528409603763
v 1.148482622471128 0 0.042319528409603763
v 1.0206422188178479 3 -0.56663703471358662
v 1.0206422188178479 0 -0.56663703471358662
v 1.0088443191284389 3 -0.5504874352473883
v 1.0088443191284389 0 -0.5504874352473883
v 0.98541837178813341 3 -0.62589032624322505
v 0.9854183717881333 0 -0.62589032624322505
v 0.96559449195933755 3 -0.62324197042622209
v 0.96559449195933744 0 -0.62324197042622209
v 0.9458214582218496 3 -0.9222872269503033
v 0.9458214582218496 0 -0.9222872269503033
v 0.92599757839305374 3 -0.91963887113330034
v 0.92599757839305374 0 -0.91963887113330034
v 0.88547635034624261 3 -0.98036911049159614
v 0.88547635034624261 0 -0.98036911049159614
v 0.8835873486461443 3 -0.96045851852206876
v 0.8835873486461443 0 -0.96045851852206876
v 0.58778297236082444 3 -1.008612534794755
v 0.58778297236082444 0 -1.008612534794755
v 0.58589397066072635 3 -0.98870194282522728
v 0.58589397066072635 0 -0.98870194282522728
v 0.52722713173204194 3 -1.0415467437940702
v 0.52722713173204194 0 -1.0415467437940702
v 0.51154009219125984 3 -1.0291404232095485
v 0.51154009219125984 0 -1.0291404232095485
v 0.4600667751747749 3 1.221288553483334
v 0.4600667751747749 0 1.221288553483334
v 0.45436920814987652 3 1.2404598270455358
v 0.45436920814987658 0 1.2404598270455358
v 0.34173392847476391 3 -1.2760916432442424
v 0.34173392847476391 0 -1.2760916432442424
v 0.32604688893398182 3 -1.2636853226597207
v 0.32604688893398182 0 -1.2636853226597207
v 0.26873316842438749 3 -1.2771020525696917
v 0.26873316842438749 0 -1.2771020525696917
v 0.26018278698027797 3 -1.2951821791500069
v 0.26018278698027797 0 -1.2951821791500069
v 0.17342732237753955 3 1.1361013337092465
v 0.17342732237753955 0 1.1361013337092465
v 0.16772975535264117 3 1.1552726072714483
v 0.16772975535264117 0 1.1552726072714483
v 0.099249934549632962 3 1.1631584236183476
v 0.099249934549632962 0 1.1631584236183476
v 0.089343933876487536 3 1.1457839840399431
v 0.089343933876487536 0 1.1457839840399431
v -0.0015919913868035276 3 -1.1492609547732817
v -0.0015919913868035276 0 -1.1492609547732817
v -0.010142372830913064 3 -1.1673410813535967
v -0.010142372830913064 0 -1.1673410813535967
v -0.079024412678489656 3 -1.1647073495703744
v -0.079024412678489711 0 -1.1647073495703744
v -0.086169247129188803 3 -1.1460271102605555
v -0.086169247129188817 0 -1.1460271102605555
v -0.16052414030533696 3 1.3112680733579303
v -0.16052414030533696 0 1.3112680733579303
v -0.17043014097848236 3 1.2938936337795255
v -0.17043014097848236 0 1.2938936337795255
v -0.22860101718783549 3 1.284892502674764
v -0.22860101718783554 0 1.284892502674764
v -0.24329492039826528 3 1.2984604505093671
v -0.24329492039826534 0 1.2984604505093671
v -0.35832216285220575 3 -1.2715334000479515
v -0.35832216285220575 0 -1.2715334000479515
v -0.36546699730290488 3 -1.2528531607381326
v -0.36546699730290483 0 -1.2528531607381326
v -0.42158889330857757 3 -1.2350991755838794
v -0.42158889330857757 0 -1.2350991755838794
v -0.43146229973506534 3 1.0651964891560148
v -0.43146229973506528 0 1.0651964891560148
v -0.43817746872667429 3 -1.2462714253840812
v -0.43817746872667429 0 -1.2462714253840812
v -0.44615620294549513 3 1.078764436990618
v -0.44615620294549507 0 1.078764436990618
v -0.50868694100154721 3 1.0305536728659306
v -0.50868694100154721 0 1.0305536728659306
v -0.5090500716368016 3 1.0505503759977401
v -0.5090500716368016 0 1.0505503759977401
v -0.58863087718375151 3 -0.98707495512187826
v -0.58863087718375151 0 -0.98707495512187826
v -0.60521945260184828 3 -0.99824720492208008
v -0.60521945260184828 0 -0.99824720492208008
v -0.65967982241026157 3 -0.94107694080119564
v -0.65967982241026157 0 -0.94107694080119564
v -0.66308366483317704 3 -0.96078515880181525
v -0.66308366483317704 0 -0.96078515880181525
v -0.80766781073112148 3 1.0251243222155677
v -0.80766781073112148 0 1.0251243222155677
v -0.80803094136637577 3 1.0451210253473775
v -0.80803094136637577 0 1.0451210253473775
v -0.85307117224492157 3 0.98766226189614337
v -0.85307117224492157 0 0.98766226189614337
v -0.87263494763599803 3 0.99181662014351479
v -0.87263494763599803 0 0.99181662014351479
v -0.91518509341383236 3 0.69515431480793266
v -0.91518509341383236 0 0.69515431480793255
v -0.93474886880490882 3 0.69930867305530409
v -0.93474886880490882 0 0.69930867305530398
v -0.95434740435140819 3 -0.89018436309388216
v -0.95434740435140819 0 -0.89018436309388216
v -0.95775124677432366 3 -0.90989258109450177
v -0.95775124677432366 0 -0.90989258109450177
v -0.96386412195379745 3 0.62591471544708543
v -0.96386412195379745 0 0.62591471544708543
v -0.97439440653486864 3 0.64291804178758849
v -0.97439440653486864 0 0.64291804178758849
v -0.99351685864772477 3 -0.84624548452082582
v -0.99351685864772477 0 -0.84624548452082582
v -1.01036554856758 3 -0.54769036404770144
v -1.01036554856758 0 -0.54769036404770144
v -1.0134850864409699 3 -0.84737237351138894
v -1.0134850864409699 0 -0.84737237351138894
v -1.0303337763608256 3 -0.54881725303826456
v -1.0303337763608256 0 -0.54881725303826456
v -1.0479336280678249 3 -0.47184572454095286
v -1.0479336280678249 0 -0.4718457245409528
v -1.0609302520494537 3 -0.48704729567949423
v -1.0609302520494537 0 -0.48704729567949423
v -1.1418980040345192 3 0.12989312909061834
v -1.1418980040345192 0 0.12989312909061831
v -1.1483609705339728 3 0.045501186327862118
v -1.1483609705339728 0 0.045501186327862118
v -1.1608375896272833 3 0.12346723634529796
v -1.1608375896272833 0 0.12346723634529798
v -1.1661012070388588 3 0.054736120477638088
v -1.1661012070388588 0 0.054736120477638088
v -1.2180894942099139 3 0.4684710797739457
v -1.2180894942099139 0 0.4684710797739457
v -1.2286197787909849 3 0.48547440611444881
v -1.2286197787909849 0 0.48547440611444881
v -1.2379747917490227 3 0.4130684973259216
v -1.2379747917490227 0 0.41306849732592155
v -1.2569143773417868 3 0.40664260458060125
v -1.2569143773417868 0 0.4066426045806012
v -1.275220042748213 3 -0.27752659523436085
v -1.275220042748213 0 -0.27752659523436085
v -1.2864371636841918 3 -0.21974210425246654
v -1.2864371636841918 0 -0.21974210425246654
v -1.2882166667298418 3 -0.29272816637290222
v -1.2882166667298418 0 -0.29272816637290228
v -1.3041774001890778 3 -0.2105071701026906
v -1.3041774001890778 0 -0.2105071701026906
vn 0.92796999216079712 0 -0.37265485525131226
vn 0.92796999216079712 0 -0.37265485525131226
vn 0.92796999216079712 0 0.37265485525131226
vn 0.92796999216079712 0 0.37265485525131226
vn -0.37265485525131226 0 -0.92796999216079712
vn -0.37265485525131226 0 -0.92796999216079712
vn -0.37265485525131226 0 0.92796999216079712
vn -0.37265485525131226 0 0.92796999216079712
vn 0.98809331655502319 0 -0.15385580062866211
vn 0.98809331655502319 0 -0.15385580062866211
vn 0.15385580062866211 0 0.98809331655502319
vn 0.15385580062866211 0 0.98809331655502319
vn 0.37265485525131226 0 0.92796999216079712
vn 0.37265485525131226 0 0.92796999216079712
vn 0.37265485525131226 0 -0.92796999216079712
vn 0.37265485525131226 0 -0.92796999216079712
vn -0.92796999216079712 0 0.37265485525131226
vn -0.92796999216079712 0 0.37265485525131226
vn -0.92796999216079712 0 -0.37265485525131226
vn -0.92796999216079712 0 -0.37265485525131226
vn -0.15385580062866211 0 -0.98809331655502319
vn -0.15385580062866211 0 -0.98809331655502319
vn -0.98809331655502319 0 0.15385580062866211
vn -0.98809331655502319 0 0.15385580062866211
vn 0.7945135235786438 0 0.60724645853042603
vn 0.7945135235786438 0 0.60724645853042603
vn -0.60724645853042603 0 0.7945135235786438
vn -0.60724645853042603 0 0.7945135235786438
vn 0.60724645853042603 0 -0.7945135235786438
vn 0.60724645853042603 0 -0.7945135235786438
vn -0.7945135235786438 0 -0.60724645853042603
vn -0.7945135235786438 0 -0.60724645853042603
vn 0.77073198556900024 0 -0.63715946674346924
vn 0.77073198556900024 0 -0.63715946674346924
vn 0.63715946674346924 0 0.77073198556900024
vn 0.63715946674346924 0 0.77073198556900024
vn -0.63715946674346924 0 -0.77073198556900024
vn -0.63715946674346924 0 -0.77073198556900024
vn -0.77073198556900024 0 0.63715946674346924
vn -0.77073198556900024 0 0.63715946674346924
vn 0.99325025081634521 0 0.11599094420671463
vn 0.99325025081634521 0 0.11599094420671463
vn -0.11599094420671463 0 0.99325025081634521
vn -0.11599094420671463 0 0.99325025081634521
vn 0.8792462944984436 0 -0.47636744379997253
vn 0.8792462944984436 0 -0.47636744379997253
vn 0.47636744379997253 0 0.8792462944984436
vn 0.47636744379997253 0 0.8792462944984436
vn 0.11599094420671463 0 -0.99325025081634521
vn 0.11599094420671463 0 -0.99325025081634521
vn -0.99325025081634521 0 -0.11599094420671463
vn -0.99325025081634521 0 -0.11599094420671463
vn 0.94153064489364624 0 0.33692735433578491
vn 0.94153064489364624 0 0.33692735433578491
vn 0.33692735433578491 0 -0.94153064489364624
vn 0.33692735433578491 0 -0.94153064489364624
vn -0.47636744379997253 0 -0.8792462944984436
vn -0.47636744379997253 0 -0.8792462944984436
vn -0.8792462944984436 0 0.47636744379997253
vn -0.8792462944984436 0 0.47636744379997253
vn 0.96450918912887573 0 0.26404917240142822
vn 0.96450918912887573 0 0.26404917240142822
vn 0.26404917240142822 0 -0.96450918912887573
vn 0.26404917240142822 0 -0.96450918912887573
vn -0.33692735433578491 0 0.94153064489364624
vn -0.33692735433578491 0 0.94153064489364624
vn -0.94153064489364624 0 -0.33692735433578491
vn -0.94153064489364624 0 -0.33692735433578491
vn 0.91305422782897949 0 -0.40783810615539551
vn 0.91305422782897949 0 -0.40783810615539551
vn 0.40783810615539551 0 0.91305422782897949
vn 0.40783810615539551 0 0.91305422782897949
vn -0.26404917240142822 0 0.96450918912887573
vn -0.26404917240142822 0 0.96450918912887573
vn -0.96450918912887573 0 -0.26404917240142822
vn -0.96450918912887573 0 -0.26404917240142822
vn 0.99920731782913208 0 0.039808496832847595
vn 0.99920731782913208 0 0.039808496832847595
vn -0.039808496832847595 0 0.99920731782913208
vn -0.039808496832847595 0 0.99920731782913208
vn -0.40783810615539551 0 -0.91305422782897949
vn -0.40783810615539551 0 -0.91305422782897949
vn -0.91305422782897949 0 0.40783810615539551
vn -0.91305422782897949 0 0.40783810615539551
vn 0.98149335384368896 0 -0.19149605929851532
vn 0.98149335384368896 0 -0.19149605929851532
vn 0.039808496832847595 0 -0.99920731782913208
vn 0.039808496832847595 0 -0.99920731782913208
vn -0.19149605929851532 0 -0.98149335384368896
vn -0.19149605929851532 0 -0.98149335384368896
vn -0.99920731782913208 0 -0.039808496832847595
vn -0.99920731782913208 0 -0.039808496832847595
vn 0.71982884407043457 0 -0.69415163993835449
vn 0.71982884407043457 0 -0.69415163993835449
vn 0.69415163993835449 0 0.71982884407043457
vn 0.69415163993835449 0 0.71982884407043457
vn 0.19149605929851532 0 0.98149335384368896
vn 0.19149605929851532 0 0.98149335384368896
vn -0.98149335384368896 0 0.19149605929851532
vn -0.98149335384368896 0 0.19149605929851532
vn 0.81713473796844482 0 0.57644671201705933
vn 0.81713473796844482 0 0.57644671201705933
vn 0.57644671201705933 0 -0.81713473796844482
vn 0.57644671201705933 0 -0.81713473796844482
vn -0.69415163993835449 0 -0.71982884407043457
vn -0.69415163993835449 0 -0.71982884407043457
vn -0.71982884407043457 0 0.69415163993835449
vn -0.71982884407043457 0 0.69415163993835449
vn 0.83856266736984253 0 0.54480516910552979
vn 0.83856266736984253 0 0.54480516910552979
vn -0.54480516910552979 0 0.83856266736984253
vn -0.54480516910552979 0 0.83856266736984253
vn 0.54480516910552979 0 -0.83856266736984253
vn 0.54480516910552979 0 -0.83856266736984253
vn -0.83856266736984253 0 -0.54480516910552979
vn -0.83856266736984253 0 -0.54480516910552979
vn -0.57644671201705933 0 0.81713473796844482
vn -0.57644671201705933 0 0.81713473796844482
vn -0.81713473796844482 0 -0.57644671201705933
vn -0.81713473796844482 0 -0.57644671201705933
vn 0.97346013784408569 0 -0.22885657846927643
vn 0.97346013784408569 0 -0.22885657846927643
vn 0.22885657846927643 0 0.97346013784408569
vn 0.22885657846927643 0 0.97346013784408569
vn 0.74582505226135254 0 -0.66614192724227905
vn 0.74582505226135254 0 -0.66614192724227905
vn 0.66614192724227905 0 0.74582505226135254
vn 0.66614192724227905 0 0.74582505226135254
vn -0.66614192724227905 0 -0.74582505226135254
vn -0.66614192724227905 0 -0.74582505226135254
vn -0.74582505226135254 0 0.66614192724227905
vn -0.74582505226135254 0 0.66614192724227905
vn 0.99695676565170288 0 0.0779566690325737
vn 0.99695676565170288 0 0.0779566690325737
vn 0.0779566690325737 0 -0.99695676565170288
vn 0.0779566690325737 0 -0.99695676565170288
vn 0.89680510759353638 0 -0.44242581725120544
vn 0.89680510759353638 0 -0.44242581725120544
vn 0.95371627807617188 0 0.30070787668228149
vn 0.95371627807617188 0 0.30070787668228149
vn -0.44242581725120544 0 -0.89680510759353638
vn -0.44242581725120544 0 -0.89680510759353638
vn -0.30070787668228149 0 0.95371627807617188
vn -0.30070787668228149 0 0.95371627807617188
vn -0.22885657846927643 0 -0.97346013784408569
vn -0.22885657846927643 0 -0.97346013784408569
vn -0.97346013784408569 0 0.22885657846927643
vn -0.97346013784408569 0 0.22885657846927643
vn 0.44242581725120544 0 0.89680510759353638
vn 0.44242581725120544 0 0.89680510759353638
vn -0.89680510759353638 0 0.44242581725120544
vn -0.89680510759353638 0 0.44242581725120544
vn -0.0779566690325737 0 0.99695676565170288
vn -0.0779566690325737 0 0.99695676565170288
vn 0.30070787668228149 0 -0.95371627807617188
vn 0.30070787668228149 0 -0.95371627807617188
vn -0.99695676565170288 0 -0.0779566690325737
vn -0.99695676565170288 0 -0.0779566690325737
vn -0.95371627807617188 0 -0.30070787668228149
vn -0.95371627807617188 0 -0.30070787668228149
f 6//6 18//18 17//17 5//5
f 18//18 14//14 13//13 17//17
f 14//14 2//2 1//1 13//13
f 2//2 6//6 5//5 1//1
f 32//32 28//28 27//27 31//31
f 28//28 26//26 25//25 27//27
f 26//26 30//30 29//29 25//25
f 30//30 32//32 31//31 29//29
f 52//52 44//44 43//43 51//51
f 44//44 42//42 41//41 43//43
f 42//42 50//50 49//49 41//41
f 50//50 52//52 51//51 49//49
f 84//84 72//72 71//71 83//83
f 72//72 70//70 69//69 71//71
f 70//70 82//82 81//81 69//69
f 82//82 84//84 83//83 81//81
f 118//118 102//102 101//101 117//117
f 102//102 104//104 103//103 101//101
f 104//104 120//120 119//119 103//103
f 120//120 118//118 117//117 119//119
f 154//154 134//134 133//133 153//153
f 134//134 136//136 135//135 133//133
f 136//136 158//158 157//157 135//135
f 158//158 154//154 153//153 157//157
f 150//150 138//138 137//137 149//149
f 138//138 142//142 141//141 137//137
f 142//142 152//152 151//151 141//141
f 152//152 150//150 149//149 151//151
f 110//110 114//114 113//113 109//109
f 114//114 116//116 115//115 113//113
f 116//116 112//112 111//111 115//115
f 112//112 110//110 109//109 111//111
f 78//78 88//88 87//87 77//77
f 88//88 92//92 91//91 87//87
f 92//92 80//80 79//79 91//91
f 80//80 78//78 77//77 79//79
f 46//46 58//58 57//57 45//45
f 58//58 60//60 59//59 57//57
f 60//60 48//48 47//47 59//59
f 48//48 46//46 45//45 47//47
f 8//8 4//4 3//3 7//7
f 4//4 16//16 15//15 3//3
f 16//16 20//20 19//19 15//15
f 20//20 8//8 7//7 19//19
f 12//12 10//10 9//9 11//11
f 10//10 22//22 21//21 9//9
f 22//22 24//24 23//23 21//21
f 24//24 12//12 11//11 23//23
f 36//36 34//34 33//33 35//35
f 34//34 38//38 37//37 33//33
f 38//38 40//40 39//39 37//37
f 40//40 36//36 35//35 39//39
f 54//54 56//56 55//55 53//53
f 56//56 68//68 67//67 55//55
f 68//68 66//66 65//65 67//67
f 66//66 54//54 53//53 65//65
f 86//86 90//90 89//89 85//85
f 90//90 100//100 99//99 89//89
f 100//100 98//98 97//97 99//99
f 98//98 86//86 85//85 97//97
f 126//126 130//130 129//129 125//125
f 130//130 132//132 131//131 129//129
f 132//132 128//128 127//127 131//131
f 128//128 126//126 125//125 127//127
f 156//156 160//160 159//159 155//155
f 160//160 144//144 143//143 159//159
f 144//144 140//140 139//139 143//143
f 140//140 156//156 155//155 139//139
f 146//146 148//148 147//147 145//145
f 148//148 124//124 123//123 147//147
f 124//124 122//122 121//121 123//123
f 122//122 146//146 145//145 121//121
f 106//106 108//108 107//107 105//105
f 108//108 96//96 95//95 107//107
f 96//96 94//94 93//93 95//95
f 94//94 106//106 105//105 93//93
f 76//76 74//74 73//73 75//75
f 74//74 62//62 61//61 73//73
f 62//62 64//64 63//63 61//61
f 64//64 76//76 75//75 63//63
