# Rhino

mtllib Pannelli35.mtl
usemtl diffuse_Black
v 1.4900994010818498 3 -0.078639618386269997
v 1.4900994010818498 0 -0.07863961838627001
v 1.49009940108185 3 0.078639618386260962
v 1.49009940108185 0 0.078639618386260962
v 1.4861334204495287 3 -0.098242449753806069
v 1.4861334204495287 0 -0.098242449753806069
v 1.4861334204495291 3 0.098242449753796979
v 1.4861334204495291 0 0.098242449753796979
v 1.4852765967349277 3 -0.14329635681319999
v 1.4852765967349277 0 -0.14329635681319999
v 1.4842627087982319 3 -0.12332207256440095
v 1.4842627087982319 0 -0.12332207256440095
v 1.461943219215496 3 -0.29883513594331118
v 1.461943219215496 0 -0.29883513594331124
v 1.4551129212537439 3 -0.3176326631677544
v 1.4551129212537439 0 -0.31763266316775446
v 1.4495421890235329 3 -0.34215722197771675
v 1.4495421890235329 0 -0.34215722197771675
v 1.447581544824482 3 -0.36206088682429027
v 1.447581544824482 0 -0.36206088682429027
v 1.4014312057609317 3 -0.51241681295980779
v 1.4014312057609317 0 -0.51241681295980779
v 1.3918877591113503 3 -0.52999300782805481
v 1.3918877591113503 0 -0.52999300782805481
v 1.3827402981452286 3 -0.5534197233527991
v 1.3827402981452286 0 -0.5534197233527991
v 1.37784851492767 3 -0.57281225946730485
v 1.37784851492767 0 -0.57281225946730485
v 1.309902616915432 3 -0.71465764452815339
v 1.309902616915432 0 -0.71465764452815339
v 1.2978572378198741 3 -0.73062350944190912
v 1.2978572378198741 0 -0.73062350944190912
v 1.2853355003763078 3 -0.75243389994273258
v 1.2853355003763078 0 -0.75243389994273258
v 1.2776208434352774 3 -0.77088611033287846
v 1.2776208434352774 0 -0.77088611033287846
v 1.1893831699348159 3 -0.90108162214098853
v 1.1893831699348159 0 -0.90108162214098841
v 1.1751024475824574 3 -0.91508379943935381
v 1.1751024475824574 0 -0.9150837994393537
v 1.1714119086402905 3 -0.014163808790758443
v 1.1714119086402905 0 -0.014163808790758443
v 1.1714119086402903 3 0.014163808790751334
v 1.1714119086402903 0 0.014163808790751334
v 1.1674459280079694 3 -0.03376664015829451
v 1.1674459280079694 0 -0.033766640158294489
v 1.1674459280079694 3 0.033766640158287363
v 1.1674459280079694 0 0.033766640158287363
v 1.1605503140252464 3 -0.15977935348364186
v 1.1605503140252464 0 -0.15977935348364186
v 1.1595364260885506 3 -0.13980506923484284
v 1.1595364260885506 0 -0.13980506923484284
v 1.1594835656475531 3 -0.93479515579825345
v 1.1594835656475531 0 -0.93479515579825345
v 1.1563477313524213 3 -0.18779349663888284
v 1.1563477313524213 0 -0.18779349663888278
v 1.1495174333906693 3 -0.20659102386332606
v 1.1495174333906693 0 -0.20659102386332601
v 1.1491167763206511 3 -0.95189865482773928
v 1.1491167763206511 0 -0.95189865482773928
v 1.1259639812929718 3 -0.31028260286527265
v 1.1259639812929718 0 -0.31028260286527265
v 1.1240033370939206 3 -0.33018626771184617
v 1.1240033370939206 0 -0.33018626771184617
v 1.1156911836076981 3 -0.3572669254266384
v 1.1156911836076981 0 -0.3572669254266384
v 1.1061477369581167 3 -0.37484312029488542
v 1.1061477369581167 0 -0.37484312029488542
v 1.0674716213637145 3 -0.47389293980084879
v 1.0674716213637145 0 -0.47389293980084879
v 1.062579838146156 3 -0.4932854759153546
v 1.062579838146156 0 -0.4932854759153546
v 1.050342079020286 3 -0.51883329714185933
v 1.050342079020286 0 -0.51883329714185933
v 1.042540209814671 3 -1.067562797030698
v 1.042540209814671 0 -1.067562797030698
v 1.0382966999247281 3 -0.53479916205561506
v 1.0382966999247281 0 -0.53479916205561506
v 1.0263402061710643 3 -1.0792913895271203
v 1.0263402061710643 0 -1.0792913895271203
v 1.0079698579536878 3 -1.0964674585994181
v 1.0079698579536878 0 -1.0964674585994181
v 0.99518037476161958 3 -1.1118437104079635
v 0.99518037476161958 0 -1.1118437104079635
v 0.98535390338219775 3 -0.6270150443964122
v 0.98535390338219775 0 -0.6270150443964122
v 0.97763924644116729 3 -0.64546725478655798
v 0.97763924644116729 0 -0.64546725478655798
v 0.96174672863337674 3 -0.66891681332341135
v 0.96174672863337662 0 -0.66891681332341135
v 0.94746600628101829 3 -0.68291899062177663
v 0.94746600628101818 0 -0.68291899062177663
v 0.88142826253912909 3 -0.76626000731293564
v 0.88142826253912909 0 -0.76626000731293564
v 0.87262367542068919 3 -1.2104165959617841
v 0.87262367542068919 0 -1.2104165959617843
v 0.87106147321222716 3 -0.78336350634242169
v 0.87106147321222716 0 -0.78336350634242169
v 0.85486293012180048 3 -1.2196120256106917
v 0.85486293012180048 0 -1.2196120256106917
v 0.85186593106003505 3 -0.80419581488774805
v 0.85186593106003505 0 -0.80419581488774805
v 0.83566592741642831 3 -0.81592440738417038
v 0.83566592741642842 0 -0.81592440738417027
v 0.83414768947880591 3 -1.2338726654107439
v 0.83414768947880591 0 -1.2338726654107439
v 0.8192185701756779 3 -1.2471813616967431
v 0.8192185701756779 0 -1.2471813616967431
v 0.75799478852925029 3 -0.88854604910070101
v 0.75799478852925029 0 -0.88854604910070101
v 0.74520530533718188 3 -0.90392230090924652
v 0.74520530533718188 0 -0.90392230090924652
v 0.72313157594845778 3 -0.92167629732463519
v 0.72313157594845778 0 -0.92167629732463519
v 0.70537083064956907 3 -0.93087172697354259
v 0.70537083064956907 0 -0.9308717269735427
v 0.68339417160991389 3 -1.3264813684684851
v 0.68339417160991389 0 -1.3264813684684851
v 0.66446576673733071 3 -1.3329401213651033
v 0.66446576673733071 0 -1.3329401213651033
v 0.64186410485196521 3 -1.3439697143958376
v 0.64186410485196521 0 -1.3439697143958376
v 0.62512576177088564 3 -1.3549163061439604
v 0.62512576177088564 0 -1.3549163061439604
v 0.61778531980217943 3 -0.99116672636186054
v 0.61778531980217943 0 -0.99116672636186054
v 0.60285620049905142 3 -1.0044754226478596
v 0.60285620049905142 0 -1.0044754226478596
v 0.57839282122684543 3 -1.0187581742184941
v 0.57839282122684543 0 -1.0187581742184941
v 0.55946441635426225 3 -1.0252169271151124
v 0.55946441635426225 0 -1.0252169271151124
v 0.47903973925585291 3 -1.4131883607283602
v 0.47903973925585297 0 -1.4131883607283602
v 0.46390298231901911 3 -1.0718508309487325
v 0.46390298231901911 0 -1.0718508309487325
v 0.45936259961612114 3 -1.4167674912929658
v 0.45936259961612119 0 -1.4167674912929658
v 0.44716463923793948 3 -1.0827974226968553
v 0.44716463923793948 0 -1.0827974226968553
v 0.43537473808110094 3 -1.4243219298148355
v 0.43537473808110094 0 -1.4243219298148355
v 0.42085303533694429 3 -1.0932928225463798
v 0.42085303533694429 0 -1.0932928225463798
v 0.41719762542485855 3 -1.4326641462758409
v 0.41719762542485855 0 -1.4326641462758409
v 0.40117589569721251 3 -1.0968719531109854
v 0.40117589569721251 0 -1.0968719531109854
v 0.29975351094728164 3 -1.1288126565045
v 0.29975351094728164 0 -1.1288126565045
v 0.28157639829103925 3 -1.1371548729655054
v 0.28157639829103925 0 -1.1371548729655054
v 0.2640831652291899 3 -1.4686185674050829
v 0.2640831652291899 0 -1.4686185674050829
v 0.25399890005524078 3 -1.1436306361559563
v 0.25399890005524078 0 -1.1436306361559563
v 0.24409278668011875 3 -1.4692388620647694
v 0.24409278668011875 0 -1.4692388620647694
v 0.23400852150616963 3 -1.1442509308156428
v 0.23400852150616963 0 -1.1442509308156428
vn 0.83328330516815186 0 0.55284619331359863
vn 0.83328330516815186 0 0.55284619331359863
vn 0.83328330516815186 0 -0.55284619331359863
vn 0.83328330516815186 0 -0.55284619331359863
vn 0.55284619331359863 0 -0.83328330516815186
vn 0.55284619331359863 0 -0.83328330516815186
vn 0.55284619331359863 0 0.83328330516815186
vn 0.55284619331359863 0 0.83328330516815186
vn 0.74204391241073608 0 -0.67035126686096191
vn 0.74204391241073608 0 -0.67035126686096191
vn 0.67035126686096191 0 0.74204391241073608
vn 0.67035126686096191 0 0.74204391241073608
vn 0.90608042478561401 0 0.42310547828674316
vn 0.90608042478561401 0 0.42310547828674316
vn 0.42310547828674316 0 -0.90608042478561401
vn 0.42310547828674316 0 -0.90608042478561401
vn 0.77302008867263794 0 0.63438153266906738
vn 0.77302008867263794 0 0.63438153266906738
vn 0.63438153266906738 0 -0.77302008867263794
vn 0.63438153266906738 0 -0.77302008867263794
vn 0.95882409811019897 0 0.28400054574012756
vn 0.95882409811019897 0 0.28400054574012756
vn 0.28400054574012756 0 -0.95882409811019897
vn 0.28400054574012756 0 -0.95882409811019897
vn 0.85858035087585449 0 0.51267904043197632
vn 0.85858035087585449 0 0.51267904043197632
vn 0.51267904043197632 0 -0.85858035087585449
vn 0.51267904043197632 0 -0.85858035087585449
vn 0.99034702777862549 0 0.1386101096868515
vn 0.99034702777862549 0 0.1386101096868515
vn 0.1386101096868515 0 -0.99034702777862549
vn 0.1386101096868515 0 -0.99034702777862549
vn 0.92513847351074219 0 0.37962982058525085
vn 0.92513847351074219 0 0.37962982058525085
vn 0.37962982058525085 0 -0.92513847351074219
vn 0.37962982058525085 0 -0.92513847351074219
vn 0.99995148181915283 0 -0.009848032146692276
vn 0.99995148181915283 0 -0.009848032146692276
vn -0.009848032146692276 0 -0.99995148181915283
vn -0.009848032146692276 0 -0.99995148181915283
vn -0.55284619331359863 0 0.83328330516815186
vn -0.55284619331359863 0 0.83328330516815186
vn -0.55284619331359863 0 -0.83328330516815186
vn -0.55284619331359863 0 -0.83328330516815186
vn -0.83328330516815186 0 -0.55284619331359863
vn -0.83328330516815186 0 -0.55284619331359863
vn -0.83328330516815186 0 0.55284619331359863
vn -0.83328330516815186 0 0.55284619331359863
vn -0.67035126686096191 0 -0.74204391241073608
vn -0.67035126686096191 0 -0.74204391241073608
vn -0.74204391241073608 0 0.67035126686096191
vn -0.74204391241073608 0 0.67035126686096191
vn 0.97122132778167725 0 0.23817867040634155
vn 0.97122132778167725 0 0.23817867040634155
vn -0.42310547828674316 0 0.90608042478561401
vn -0.42310547828674316 0 0.90608042478561401
vn -0.90608042478561401 0 -0.42310547828674316
vn -0.90608042478561401 0 -0.42310547828674316
vn 0.23817867040634155 0 -0.97122132778167725
vn 0.23817867040634155 0 -0.97122132778167725
vn -0.63438153266906738 0 0.77302008867263794
vn -0.63438153266906738 0 0.77302008867263794
vn -0.77302008867263794 0 -0.63438153266906738
vn -0.77302008867263794 0 -0.63438153266906738
vn -0.28400054574012756 0 0.95882409811019897
vn -0.28400054574012756 0 0.95882409811019897
vn -0.95882409811019897 0 -0.28400054574012756
vn -0.95882409811019897 0 -0.28400054574012756
vn -0.51267904043197632 0 0.85858035087585449
vn -0.51267904043197632 0 0.85858035087585449
vn -0.85858035087585449 0 -0.51267904043197632
vn -0.85858035087585449 0 -0.51267904043197632
vn -0.1386101096868515 0 0.99034702777862549
vn -0.1386101096868515 0 0.99034702777862549
vn 0.98742496967315674 0 -0.15808828175067902
vn 0.98742496967315674 0 -0.15808828175067902
vn -0.99034702777862549 0 -0.1386101096868515
vn -0.99034702777862549 0 -0.1386101096868515
vn -0.15808828175067902 0 -0.98742496967315674
vn -0.15808828175067902 0 -0.98742496967315674
vn 0.99580913782119751 0 0.091456085443496704
vn 0.99580913782119751 0 0.091456085443496704
vn 0.091456085443496704 0 -0.99580913782119751
vn 0.091456085443496704 0 -0.99580913782119751
vn -0.37962982058525085 0 0.92513847351074219
vn -0.37962982058525085 0 0.92513847351074219
vn -0.92513847351074219 0 -0.37962982058525085
vn -0.92513847351074219 0 -0.37962982058525085
vn 0.009848032146692276 0 0.99995148181915283
vn 0.009848032146692276 0 0.99995148181915283
vn -0.99995148181915283 0 0.009848032146692276
vn -0.99995148181915283 0 0.009848032146692276
vn -0.23817867040634155 0 0.97122132778167725
vn -0.23817867040634155 0 0.97122132778167725
vn 0.95304471254348755 0 -0.30282965302467346
vn 0.95304471254348755 0 -0.30282965302467346
vn -0.97122132778167725 0 -0.23817867040634155
vn -0.97122132778167725 0 -0.23817867040634155
vn -0.30282965302467346 0 -0.95304471254348755
vn -0.30282965302467346 0 -0.95304471254348755
vn 0.15808828175067902 0 0.98742496967315674
vn 0.15808828175067902 0 0.98742496967315674
vn -0.98742496967315674 0 0.15808828175067902
vn -0.98742496967315674 0 0.15808828175067902
vn 0.99835753440856934 0 -0.057290591299533844
vn 0.99835753440856934 0 -0.057290591299533844
vn -0.057290591299533844 0 -0.99835753440856934
vn -0.057290591299533844 0 -0.99835753440856934
vn -0.091456085443496704 0 0.99580913782119751
vn -0.091456085443496704 0 0.99580913782119751
vn -0.99580913782119751 0 -0.091456085443496704
vn -0.99580913782119751 0 -0.091456085443496704
vn 0.30282965302467346 0 0.95304471254348755
vn 0.30282965302467346 0 0.95304471254348755
vn -0.95304471254348755 0 0.30282965302467346
vn -0.95304471254348755 0 0.30282965302467346
vn 0.89757156372070313 0 -0.44086876511573792
vn 0.89757156372070313 0 -0.44086876511573792
vn -0.44086876511573792 0 -0.89757156372070313
vn -0.44086876511573792 0 -0.89757156372070313
vn 0.97881025075912476 0 -0.2047693133354187
vn 0.97881025075912476 0 -0.2047693133354187
vn -0.2047693133354187 0 -0.97881025075912476
vn -0.2047693133354187 0 -0.97881025075912476
vn 0.057290591299533844 0 0.99835753440856934
vn 0.057290591299533844 0 0.99835753440856934
vn -0.99835753440856934 0 0.057290591299533844
vn -0.99835753440856934 0 0.057290591299533844
vn 0.44086876511573792 0 0.89757156372070313
vn 0.44086876511573792 0 0.89757156372070313
vn -0.89757156372070313 0 0.44086876511573792
vn -0.89757156372070313 0 0.44086876511573792
vn 0.82223331928253174 0 -0.56915056705474854
vn 0.82223331928253174 0 -0.56915056705474854
vn 0.2047693133354187 0 0.97881025075912476
vn 0.2047693133354187 0 0.97881025075912476
vn -0.56915056705474854 0 -0.82223331928253174
vn -0.56915056705474854 0 -0.82223331928253174
vn -0.97881025075912476 0 0.2047693133354187
vn -0.97881025075912476 0 0.2047693133354187
vn 0.93759989738464355 0 -0.3477160632610321
vn 0.93759989738464355 0 -0.3477160632610321
vn 0.56915056705474854 0 0.82223331928253174
vn 0.56915056705474854 0 0.82223331928253174
vn -0.3477160632610321 0 -0.93759989738464355
vn -0.3477160632610321 0 -0.93759989738464355
vn -0.82223331928253174 0 0.56915056705474854
vn -0.82223331928253174 0 0.56915056705474854
vn 0.3477160632610321 0 0.93759989738464355
vn 0.3477160632610321 0 0.93759989738464355
vn -0.93759989738464355 0 0.3477160632610321
vn -0.93759989738464355 0 0.3477160632610321
vn 0.72869735956192017 0 -0.68483585119247437
vn 0.72869735956192017 0 -0.68483585119247437
vn 0.68483585119247437 0 0.72869735956192017
vn 0.68483585119247437 0 0.72869735956192017
vn -0.68483585119247437 0 -0.72869735956192017
vn -0.68483585119247437 0 -0.72869735956192017
vn -0.72869735956192017 0 0.68483585119247437
vn -0.72869735956192017 0 0.68483585119247437
f 6//6 46//46 45//45 5//5
f 46//46 42//42 41//41 45//45
f 42//42 2//2 1//1 41//41
f 2//2 6//6 5//5 1//1
f 16//16 58//58 57//57 15//15
f 58//58 56//56 55//55 57//57
f 56//56 14//14 13//13 55//55
f 14//14 16//16 15//15 13//13
f 24//24 68//68 67//67 23//23
f 68//68 66//66 65//65 67//67
f 66//66 22//22 21//21 65//65
f 22//22 24//24 23//23 21//21
f 32//32 78//78 77//77 31//31
f 78//78 74//74 73//73 77//77
f 74//74 30//30 29//29 73//73
f 30//30 32//32 31//31 29//29
f 40//40 92//92 91//91 39//39
f 92//92 90//90 89//89 91//91
f 90//90 38//38 37//37 89//89
f 38//38 40//40 39//39 37//37
f 80//80 104//104 103//103 79//79
f 104//104 102//102 101//101 103//103
f 102//102 76//76 75//75 101//101
f 76//76 80//80 79//79 75//75
f 100//100 116//116 115//115 99//99
f 116//116 114//114 113//113 115//115
f 114//114 96//96 95//95 113//113
f 96//96 100//100 99//99 95//95
f 120//120 132//132 131//131 119//119
f 132//132 130//130 129//129 131//131
f 130//130 118//118 117//117 129//129
f 118//118 120//120 119//119 117//117
f 138//138 148//148 147//147 137//137
f 148//148 144//144 143//143 147//147
f 144//144 134//134 133//133 143//143
f 134//134 138//138 137//137 133//133
f 158//158 160//160 159//159 157//157
f 160//160 156//156 155//155 159//159
f 156//156 154//154 153//153 155//155
f 154//154 158//158 157//157 153//153
f 8//8 4//4 3//3 7//7
f 4//4 44//44 43//43 3//3
f 44//44 48//48 47//47 43//43
f 48//48 8//8 7//7 47//47
f 12//12 10//10 9//9 11//11
f 10//10 50//50 49//49 9//9
f 50//50 52//52 51//51 49//49
f 52//52 12//12 11//11 51//51
f 18//18 20//20 19//19 17//17
f 20//20 64//64 63//63 19//19
f 64//64 62//62 61//61 63//63
f 62//62 18//18 17//17 61//61
f 26//26 28//28 27//27 25//25
f 28//28 72//72 71//71 27//27
f 72//72 70//70 69//69 71//71
f 70//70 26//26 25//25 69//69
f 34//34 36//36 35//35 33//33
f 36//36 88//88 87//87 35//35
f 88//88 86//86 85//85 87//87
f 86//86 34//34 33//33 85//85
f 54//54 60//60 59//59 53//53
f 60//60 98//98 97//97 59//59
f 98//98 94//94 93//93 97//97
f 94//94 54//54 53//53 93//93
f 82//82 84//84 83//83 81//81
f 84//84 112//112 111//111 83//83
f 112//112 110//110 109//109 111//111
f 110//110 82//82 81//81 109//109
f 106//106 108//108 107//107 105//105
f 108//108 128//128 127//127 107//107
f 128//128 126//126 125//125 127//127
f 126//126 106//106 105//105 125//125
f 122//122 124//124 123//123 121//121
f 124//124 140//140 139//139 123//123
f 140//140 136//136 135//135 139//139
f 136//136 122//122 121//121 135//135
f 142//142 146//146 145//145 141//141
f 146//146 152//152 151//151 145//145
f 152//152 150//150 149//149 151//151
f 150//150 142//142 141//141 149//149
