# Rhino

mtllib Pannelli32.mtl
usemtl diffuse_Black
v 1.4924332579572199 3 -0.06973732597532413
v 1.4924332579572199 0 -0.06973732597532413
v 1.4924332579572206 3 0.069737325975316927
v 1.4924332579572206 0 0.069737325975316927
v 1.4889893638363285 3 -0.0894385846479087
v 1.4889893638363285 0 -0.089438584647908714
v 1.4889893638363292 3 0.089438584647901498
v 1.4889893638363292 0 0.089438584647901498
v 1.4880703983380499 3 -0.13366680096803879
v 1.4880703983380499 0 -0.13366680096803879
v 1.4873349889898362 3 -0.11368032621408181
v 1.4873349889898362 0 -0.11368032621408181
v 1.4691217859791139 3 -0.27184830706210067
v 1.4691217859791139 0 -0.27184830706210067
v 1.4630332675411994 3 -0.29089902734326523
v 1.4630332675411994 0 -0.29089902734326523
v 1.4581008202315704 3 -0.31469125199401116
v 1.4581008202315704 0 -0.31469125199401116
v 1.4561141080417408 3 -0.33459233173041697
v 1.4561141080417408 0 -0.33459233173041697
v 1.4185682492418648 3 -0.46891837918113383
v 1.4185682492418648 0 -0.46891837918113377
v 1.4099480064623791 3 -0.48696530175598635
v 1.4099480064623791 0 -0.48696530175598635
v 1.4018289495283736 3 -0.50986682801071914
v 1.4018289495283736 0 -0.50986682801071914
v 1.3971569555932599 3 -0.52931348511856824
v 1.3971569555932599 0 -0.52931348511856824
v 1.3417100667768589 3 -0.65729325327484434
v 1.3417100667768589 0 -0.65729325327484422
v 1.3307179456360874 3 -0.67400173234466387
v 1.3307179456360874 0 -0.67400173234466376
v 1.3195628315212742 3 -0.69558789502771923
v 1.3195628315212742 0 -0.69558789502771923
v 1.3122921890679846 3 -0.71421952829795143
v 1.3122921890679846 0 -0.71421952829795143
v 1.2399724271586334 3 -0.83347987616817687
v 1.2399724271586334 0 -0.83347987616817676
v 1.2268122556025058 3 -0.84854008481923116
v 1.2268122556025058 0 -0.84854008481923104
v 1.2128279346470081 3 -0.86841060966653849
v 1.2128279346470081 0 -0.86841060966653849
v 1.2030934638888451 3 -0.88588173095449463
v 1.2030934638888451 0 -0.88588173095449463
v 1.1712492926895877 3 -0.013592508626721407
v 1.1712492926895877 0 -0.013592508626721385
v 1.1712492926895881 3 0.013592508626715748
v 1.1712492926895881 0 0.013592508626715748
v 1.1678053985686963 3 -0.033293767299305971
v 1.1678053985686963 0 -0.033293767299305978
v 1.1678053985686967 3 0.033293767299300323
v 1.1678053985686967 0 0.033293767299300323
v 1.1622366371616533 3 -0.14565596848670237
v 1.1622366371616533 0 -0.14565596848670237
v 1.1615012278134398 3 -0.12566949373274539
v 1.1615012278134398 0 -0.12566949373274539
v 1.1585433613821323 3 -0.17258893856217081
v 1.1585433613821323 0 -0.17258893856217081
v 1.1524548429442178 3 -0.19163965884333534
v 1.1524548429442178 0 -0.19163965884333539
v 1.133659229515295 3 -0.28230245341116
v 1.133659229515295 0 -0.28230245341116
v 1.1316725173254654 3 -0.30220353314756576
v 1.1316725173254654 0 -0.30220353314756576
v 1.1243544505298517 3 -0.32838503542387931
v 1.1243544505298517 0 -0.32838503542387926
v 1.115734207750366 3 -0.34643195799873183
v 1.115734207750366 0 -0.34643195799873183
v 1.1152418610978299 3 -0.99421120258526574
v 1.1152418610978299 0 -0.99421120258526574
v 1.1001576694369681 3 -1.0073438779386883
v 1.1001576694369681 0 -1.0073438779386883
v 1.0847956804920871 3 -0.43370065189354046
v 1.0847956804920871 0 -0.43370065189354046
v 1.0836034542319661 3 -1.0251303039214514
v 1.0836034542319661 0 -1.0251303039214514
v 1.0801236865569732 3 -0.45314730900138961
v 1.0801236865569732 0 -0.45314730900138961
v 1.0715856623844111 3 -1.0411169445663413
v 1.0715856623844111 0 -1.0411169445663413
v 1.0693165283526513 3 -0.47809185739610782
v 1.0693165283526513 0 -0.47809185739610782
v 1.0583244072118798 3 -0.49480033646592736
v 1.0583244072118798 0 -0.49480033646592742
v 1.0158166621725688 3 -0.5770566980113423
v 1.0158166621725688 0 -0.5770566980113423
v 1.0085460197192793 3 -0.5956883312815745
v 1.0085460197192793 0 -0.5956883312815745
v 0.99445016826688803 3 -0.61893337666552228
v 0.99445016826688803 0 -0.61893337666552228
v 0.98128999671076067 3 -0.63399358531657657
v 0.98128999671076056 0 -0.63399358531657657
v 0.96983125932311443 3 -1.1365067762801651
v 0.96983125932311443 0 -1.1365067762801651
v 0.95310275515561305 3 -1.1474683978900313
v 0.95310275515561305 0 -1.1474683978900313
v 0.93428561208534788 3 -1.1628409096225687
v 0.93428561208534788 0 -1.1628409096225687
v 0.92800125904246256 3 -0.70971232699085685
v 0.92800125904246256 0 -0.70971232699085685
v 0.92020734620362632 3 -1.1770466278291063
v 0.92020734620362632 0 -1.1770466278291063
v 0.91826678828429964 3 -0.72718344827881287
v 0.91826678828429964 0 -0.72718344827881287
v 0.90114362429561257 3 -0.74829795556849876
v 0.90114362429561246 0 -0.74829795556849876
v 0.88605943263475084 3 -0.7614306309219212
v 0.88605943263475084 0 -0.7614306309219212
v 0.8229778404594017 3 -0.82920769290929286
v 0.8229778404594017 0 -0.82920769290929286
v 0.81096004861184678 3 -0.8451943335541825
v 0.81096004861184678 0 -0.8451943335541825
v 0.80643698442880629 3 -1.2577279969199877
v 0.80643698442880629 0 -1.2577279969199877
v 0.79112708854241776 3 -0.86378677443627505
v 0.79112708854241776 0 -0.86378677443627505
v 0.788374365995685 3 -1.2663153023960649
v 0.788374365995685 0 -1.2663153023960649
v 0.77439858437491638 3 -0.87474839604614141
v 0.77439858437491638 0 -0.87474839604614141
v 0.76764322313065025 3 -1.278988845933819
v 0.76764322313065025 0 -1.278988845933819
v 0.75176553783562916 3 -1.2911502237205779
v 0.75176553783562916 0 -1.2911502237205779
v 0.70269386564533221 3 -0.93332698185126539
v 0.70269386564533221 0 -0.93332698185126539
v 0.68861559976361064 3 -0.94753270005780299
v 0.68861559976361064 0 -0.94753270005780299
v 0.66644060807499317 3 -0.96325831313581733
v 0.66644060807499317 0 -0.96325831313581733
v 0.64837798964187188 3 -0.97184561861189467
v 0.64837798964187188 0 -0.97184561861189467
v 0.6280888719672908 3 -1.3556270479013934
v 0.6280888719672908 0 -1.3556270479013934
v 0.60902707611706064 3 -1.3616808020229407
v 0.60902707611706075 0 -1.361680802022941
v 0.58676635300766422 3 -1.3714203706448367
v 0.58676635300766422 0 -1.3714203706448367
v 0.56938366972523236 3 -1.3813118984288881
v 0.56938366972523236 0 -1.3813118984288881
v 0.56937977176526255 3 -1.020139499956604
v 0.56937977176526255 0 -1.020139499956604
v 0.55350208647024146 3 -1.0323008777433627
v 0.55350208647024146 0 -1.0323008777433627
v 0.52939625613866137 3 -1.0448680614809682
v 0.52939625613866126 0 -1.0448680614809682
v 0.51033446028843121 3 -1.0509218156025155
v 0.51033446028843121 0 -1.0509218156025157
v 0.43809404792071338 3 -1.4283885778272782
v 0.43809404792071338 0 -1.4283885778272782
v 0.42550761471915166 3 -1.088035474459905
v 0.42550761471915166 0 -1.088035474459905
v 0.41838653934359521 3 -1.4317965252568625
v 0.41838653934359515 0 -1.4317965252568625
v 0.40812493143671968 3 -1.0979270022439565
v 0.40812493143671968 0 -1.0979270022439565
v 0.38253525916267689 3 -1.1071027221599496
v 0.38253525916267694 0 -1.1071027221599496
v 0.36282775058555872 3 -1.1105106695895339
v 0.36282775058555872 0 -1.1105106695895339
vn 0.81830471754074097 0 0.57478463649749756
vn 0.81830471754074097 0 0.57478463649749756
vn 0.81830471754074097 0 -0.57478463649749756
vn 0.81830471754074097 0 -0.57478463649749756
vn 0.57478463649749756 0 -0.81830471754074097
vn 0.57478463649749756 0 -0.81830471754074097
vn 0.57478463649749756 0 0.81830471754074097
vn 0.57478463649749756 0 0.81830471754074097
vn 0.73262923955917358 0 -0.68062794208526611
vn 0.73262923955917358 0 -0.68062794208526611
vn 0.68062794208526611 0 0.73262923955917358
vn 0.68062794208526611 0 0.73262923955917358
vn 0.88880634307861328 0 0.45828300714492798
vn 0.88880634307861328 0 0.45828300714492798
vn 0.45828300714492798 0 -0.88880634307861328
vn 0.45828300714492798 0 -0.88880634307861328
vn 0.77385032176971436 0 0.63336849212646484
vn 0.77385032176971436 0 0.63336849212646484
vn 0.63336849212646484 0 -0.77385032176971436
vn 0.63336849212646484 0 -0.77385032176971436
vn 0.94282668828964233 0 0.33328345417976379
vn 0.94282668828964233 0 0.33328345417976379
vn 0.33328345417976379 0 -0.94282668828964233
vn 0.33328345417976379 0 -0.94282668828964233
vn 0.85272306203842163 0 0.52236324548721313
vn 0.85272306203842163 0 0.52236324548721313
vn 0.52236324548721313 0 -0.85272306203842163
vn 0.52236324548721313 0 -0.85272306203842163
vn 0.97936409711837769 0 0.20210374891757965
vn 0.97936409711837769 0 0.20210374891757965
vn 0.20210374891757965 0 -0.97936409711837769
vn 0.20210374891757965 0 -0.97936409711837769
vn 0.91578376293182373 0 0.40167167782783508
vn 0.91578376293182373 0 0.40167167782783508
vn 0.40167167782783508 0 -0.91578376293182373
vn 0.40167167782783508 0 -0.91578376293182373
vn 0.99774110317230225 0 0.067176468670368195
vn 0.99774110317230225 0 0.067176468670368195
vn 0.067176468670368195 0 -0.99774110317230225
vn 0.067176468670368195 0 -0.99774110317230225
vn 0.96186292171478271 0 0.27353191375732422
vn 0.96186292171478271 0 0.27353191375732422
vn 0.27353191375732422 0 -0.96186292171478271
vn 0.27353191375732422 0 -0.96186292171478271
vn -0.57478463649749756 0 0.81830471754074097
vn -0.57478463649749756 0 0.81830471754074097
vn -0.57478463649749756 0 -0.81830471754074097
vn -0.57478463649749756 0 -0.81830471754074097
vn -0.81830471754074097 0 -0.57478463649749756
vn -0.81830471754074097 0 -0.57478463649749756
vn -0.81830471754074097 0 0.57478463649749756
vn -0.81830471754074097 0 0.57478463649749756
vn -0.68062794208526611 0 -0.73262923955917358
vn -0.68062794208526611 0 -0.73262923955917358
vn -0.73262923955917358 0 0.68062794208526611
vn -0.73262923955917358 0 0.68062794208526611
vn -0.45828300714492798 0 0.88880634307861328
vn -0.45828300714492798 0 0.88880634307861328
vn -0.88880634307861328 0 -0.45828300714492798
vn -0.88880634307861328 0 -0.45828300714492798
vn -0.63336849212646484 0 0.77385032176971436
vn -0.63336849212646484 0 0.77385032176971436
vn -0.77385032176971436 0 -0.63336849212646484
vn -0.77385032176971436 0 -0.63336849212646484
vn -0.33328345417976379 0 0.94282668828964233
vn -0.33328345417976379 0 0.94282668828964233
vn -0.94282668828964233 0 -0.33328345417976379
vn -0.94282668828964233 0 -0.33328345417976379
vn 0.99761688709259033 0 -0.068996496498584747
vn 0.99761688709259033 0 -0.068996496498584747
vn -0.068996496498584747 0 -0.99761688709259033
vn -0.068996496498584747 0 -0.99761688709259033
vn -0.52236324548721313 0 0.85272306203842163
vn -0.52236324548721313 0 0.85272306203842163
vn 0.99010622501373291 0 0.14032001793384552
vn 0.99010622501373291 0 0.14032001793384552
vn -0.85272306203842163 0 -0.52236324548721313
vn -0.85272306203842163 0 -0.52236324548721313
vn 0.14032001793384552 0 -0.99010622501373291
vn 0.14032001793384552 0 -0.99010622501373291
vn -0.20210374891757965 0 0.97936409711837769
vn -0.20210374891757965 0 0.97936409711837769
vn -0.97936409711837769 0 -0.20210374891757965
vn -0.97936409711837769 0 -0.20210374891757965
vn -0.40167167782783508 0 0.91578376293182373
vn -0.40167167782783508 0 0.91578376293182373
vn -0.91578376293182373 0 -0.40167167782783508
vn -0.91578376293182373 0 -0.40167167782783508
vn -0.067176468670368195 0 0.99774110317230225
vn -0.067176468670368195 0 0.99774110317230225
vn -0.99774110317230225 0 -0.067176468670368195
vn -0.99774110317230225 0 -0.067176468670368195
vn 0.97899377346038818 0 -0.20389007031917572
vn 0.97899377346038818 0 -0.20389007031917572
vn -0.20389007031917572 0 -0.97899377346038818
vn -0.20389007031917572 0 -0.97899377346038818
vn 0.99998986721038818 0 0.0045061307027935982
vn 0.99998986721038818 0 0.0045061307027935982
vn -0.27353191375732422 0 0.96186292171478271
vn -0.27353191375732422 0 0.96186292171478271
vn 0.0045061307027935982 0 -0.99998986721038818
vn 0.0045061307027935982 0 -0.99998986721038818
vn -0.96186292171478271 0 -0.27353191375732422
vn -0.96186292171478271 0 -0.27353191375732422
vn 0.068996496498584747 0 0.99761688709259033
vn 0.068996496498584747 0 0.99761688709259033
vn -0.99761688709259033 0 0.068996496498584747
vn -0.99761688709259033 0 0.068996496498584747
vn -0.14032001793384552 0 0.99010622501373291
vn -0.14032001793384552 0 0.99010622501373291
vn -0.99010622501373291 0 -0.14032001793384552
vn -0.99010622501373291 0 -0.14032001793384552
vn 0.94221711158752441 0 -0.33500292897224426
vn 0.94221711158752441 0 -0.33500292897224426
vn 0.20389007031917572 0 0.97899377346038818
vn 0.20389007031917572 0 0.97899377346038818
vn -0.33500292897224426 0 -0.94221711158752441
vn -0.33500292897224426 0 -0.94221711158752441
vn -0.97899377346038818 0 0.20389007031917572
vn -0.97899377346038818 0 0.20389007031917572
vn 0.99133056402206421 0 -0.13139131665229797
vn 0.99133056402206421 0 -0.13139131665229797
vn -0.13139131665229797 0 -0.99133056402206421
vn -0.13139131665229797 0 -0.99133056402206421
vn -0.0045061307027935982 0 0.99998986721038818
vn -0.0045061307027935982 0 0.99998986721038818
vn -0.99998986721038818 0 -0.0045061307027935982
vn -0.99998986721038818 0 -0.0045061307027935982
vn 0.33500292897224426 0 0.94221711158752441
vn 0.33500292897224426 0 0.94221711158752441
vn -0.94221711158752441 0 0.33500292897224426
vn -0.94221711158752441 0 0.33500292897224426
vn 0.88796877861022949 0 -0.45990371704101563
vn 0.88796877861022949 0 -0.45990371704101563
vn -0.45990371704101563 0 -0.88796877861022949
vn -0.45990371704101563 0 -0.88796877861022949
vn 0.96428900957107544 0 -0.26485234498977661
vn 0.96428900957107544 0 -0.26485234498977661
vn -0.26485234498977661 0 -0.96428900957107544
vn -0.26485234498977661 0 -0.96428900957107544
vn 0.13139131665229797 0 0.99133056402206421
vn 0.13139131665229797 0 0.99133056402206421
vn -0.99133056402206421 0 0.13139131665229797
vn -0.99133056402206421 0 0.13139131665229797
vn 0.45990371704101563 0 0.88796877861022949
vn 0.45990371704101563 0 0.88796877861022949
vn -0.88796877861022949 0 0.45990371704101563
vn -0.88796877861022949 0 0.45990371704101563
vn 0.81725478172302246 0 -0.57627648115158081
vn 0.81725478172302246 0 -0.57627648115158081
vn 0.26485234498977661 0 0.96428900957107544
vn 0.26485234498977661 0 0.96428900957107544
vn -0.57627648115158081 0 -0.81725478172302246
vn -0.57627648115158081 0 -0.81725478172302246
vn -0.96428900957107544 0 0.26485234498977661
vn -0.96428900957107544 0 0.26485234498977661
vn 0.57627648115158081 0 0.81725478172302246
vn 0.57627648115158081 0 0.81725478172302246
vn -0.81725478172302246 0 0.57627648115158081
vn -0.81725478172302246 0 0.57627648115158081
f 6//6 50//50 49//49 5//5
f 50//50 46//46 45//45 49//49
f 46//46 2//2 1//1 45//45
f 2//2 6//6 5//5 1//1
f 16//16 60//60 59//59 15//15
f 60//60 58//58 57//57 59//59
f 58//58 14//14 13//13 57//57
f 14//14 16//16 15//15 13//13
f 24//24 68//68 67//67 23//23
f 68//68 66//66 65//65 67//67
f 66//66 22//22 21//21 65//65
f 22//22 24//24 23//23 21//21
f 32//32 84//84 83//83 31//31
f 84//84 82//82 81//81 83//83
f 82//82 30//30 29//29 81//81
f 30//30 32//32 31//31 29//29
f 40//40 92//92 91//91 39//39
f 92//92 90//90 89//89 91//91
f 90//90 38//38 37//37 89//89
f 38//38 40//40 39//39 37//37
f 72//72 108//108 107//107 71//71
f 108//108 106//106 105//105 107//107
f 106//106 70//70 69//69 105//105
f 70//70 72//72 71//71 69//69
f 96//96 120//120 119//119 95//95
f 120//120 116//116 115//115 119//119
f 116//116 94//94 93//93 115//115
f 94//94 96//96 95//95 93//93
f 118//118 132//132 131//131 117//117
f 132//132 130//130 129//129 131//131
f 130//130 114//114 113//113 129//129
f 114//114 118//118 117//117 113//113
f 136//136 148//148 147//147 135//135
f 148//148 146//146 145//145 147//147
f 146//146 134//134 133//133 145//145
f 134//134 136//136 135//135 133//133
f 154//154 160//160 159//159 153//153
f 160//160 158//158 157//157 159//159
f 158//158 150//150 149//149 157//157
f 150//150 154//154 153//153 149//149
f 8//8 4//4 3//3 7//7
f 4//4 48//48 47//47 3//3
f 48//48 52//52 51//51 47//47
f 52//52 8//8 7//7 51//51
f 12//12 10//10 9//9 11//11
f 10//10 54//54 53//53 9//9
f 54//54 56//56 55//55 53//53
f 56//56 12//12 11//11 55//55
f 18//18 20//20 19//19 17//17
f 20//20 64//64 63//63 19//19
f 64//64 62//62 61//61 63//63
f 62//62 18//18 17//17 61//61
f 26//26 28//28 27//27 25//25
f 28//28 78//78 77//77 27//27
f 78//78 74//74 73//73 77//77
f 74//74 26//26 25//25 73//73
f 34//34 36//36 35//35 33//33
f 36//36 88//88 87//87 35//35
f 88//88 86//86 85//85 87//87
f 86//86 34//34 33//33 85//85
f 42//42 44//44 43//43 41//41
f 44//44 104//104 103//103 43//43
f 104//104 100//100 99//99 103//103
f 100//100 42//42 41//41 99//99
f 76//76 80//80 79//79 75//75
f 80//80 112//112 111//111 79//79
f 112//112 110//110 109//109 111//111
f 110//110 76//76 75//75 109//109
f 98//98 102//102 101//101 97//97
f 102//102 128//128 127//127 101//101
f 128//128 126//126 125//125 127//127
f 126//126 98//98 97//97 125//125
f 122//122 124//124 123//123 121//121
f 124//124 144//144 143//143 123//123
f 144//144 142//142 141//141 143//143
f 142//142 122//122 121//121 141//141
f 138//138 140//140 139//139 137//137
f 140//140 156//156 155//155 139//139
f 156//156 152//152 151//151 155//155
f 152//152 138//138 137//137 151//151
