# Rhino

mtllib Pannelli38.mtl
usemtl diffuse_Black
v 1.4875341331854008 3 -0.087474336963976176
v 1.4875341331854008 0 -0.08747433696397619
v 1.4875341331854011 3 0.087474336963972735
v 1.4875341331854011 0 0.087474336963972735
v 1.483047684613523 3 -0.10696463658229646
v 1.483047684613523 0 -0.1069646365822965
v 1.4830476846135232 3 0.10696463658229302
v 1.4830476846135232 0 0.10696463658229302
v 1.4822439274799208 3 -0.15284795212180022
v 1.4822439274799208 0 -0.15284795212180022
v 1.4809497463188748 3 -0.13288986866866287
v 1.4809497463188748 0 -0.13288986866866287
v 1.4541135206369513 3 -0.32552023918604456
v 1.4541135206369513 0 -0.32552023918604456
v 1.4465515576694479 3 -0.34403554950151344
v 1.4465515576694479 0 -0.34403554950151344
v 1.4403123384456773 3 -0.36928611676836592
v 1.4403123384456773 0 -0.36928611676836592
v 1.4383805730952945 3 -0.38919260522391885
v 1.4383805730952945 0 -0.38919260522391885
v 1.3828518105552179 3 -0.55509497121040985
v 1.3828518105552179 0 -0.55509497121040985
v 1.3724111218018742 3 -0.57215345937190309
v 1.3724111218018742 0 -0.57215345937190309
v 1.3621929878603032 3 -0.59607225412774767
v 1.3621929878603032 0 -0.59607225412774767
v 1.3570855472599839 3 -0.61540911143482357
v 1.3570855472599839 0 -0.61540911143482357
v 1.2756034807944534 3 -0.77022419905116235
v 1.2756034807944534 0 -0.77022419905116235
v 1.2625557693347216 3 -0.78538194379316095
v 1.2625557693347216 0 -0.78538194379316095
v 1.2486246321035872 3 -0.80734651570493332
v 1.2486246321035872 0 -0.80734651570493332
v 1.2404744296436268 3 -0.82561052949877545
v 1.2404744296436268 0 -0.82561052949877545
v 1.1715596108609165 3 -0.014740542605063094
v 1.1715596108609165 0 -0.014740542605063059
v 1.1715596108609165 3 0.014740542605060367
v 1.1715596108609165 0 0.014740542605060367
v 1.1670731622890387 3 -0.034230842223383386
v 1.1670731622890387 0 -0.034230842223383379
v 1.1670731622890387 3 0.034230842223380659
v 1.1670731622890387 0 0.034230842223380659
v 1.1586857467893792 3 -0.17382907001998382
v 1.1586857467893792 0 -0.17382907001998382
v 1.1573915656283331 3 -0.1538709865668465
v 1.1573915656283331 0 -0.1538709865668465
v 1.1539454140820014 3 -0.20292655497985493
v 1.1539454140820014 0 -0.2029265549798549
v 1.1463834511144979 3 -0.22144186529532375
v 1.1463834511144979 0 -0.22144186529532378
v 1.1351595063708182 3 -0.96530951104549356
v 1.1351595063708182 0 -0.96530951104549356
v 1.1198443190935257 3 -0.97817205506530003
v 1.1198443190935257 0 -0.97817205506530003
v 1.1175906099921622 3 -0.33796855645459933
v 1.1175906099921622 0 -0.33796855645459933
v 1.1156588446417794 3 -0.35787504491015232
v 1.1156588446417794 0 -0.35787504491015232
v 1.1063015391915483 3 -0.38583171173360659
v 1.1063015391915483 0 -0.38583171173360653
v 1.1025627152766211 3 -0.99761080948361758
v 1.1025627152766211 0 -0.99761080948361758
v 1.0958608504382046 3 -0.40289019989509983
v 1.0958608504382046 0 -0.40289019989509983
v 1.0915818476068522 3 -1.0143266865236962
v 1.0915818476068522 0 -1.0143266865236962
v 1.0487060548468752 3 -0.51327100757997413
v 1.0487060548468752 0 -0.51327100757997413
v 1.0435986142465559 3 -0.53260786488705003
v 1.0435986142465559 0 -0.53260786488705003
v 1.029867845726661 3 -0.55869618374855612
v 1.029867845726661 0 -0.55869618374855612
v 1.0168201342669292 3 -0.57385392849055472
v 1.0168201342669292 0 -0.57385392849055472
v 0.96517472857331987 3 -1.1352741080207671
v 0.96517472857331987 0 -1.1352741080207671
v 0.95253051619720297 3 -0.6752163597009101
v 0.95253051619720297 0 -0.6752163597009101
v 0.94799061998420175 3 -1.145506723131158
v 0.94799061998420175 0 -1.145506723131158
v 0.94438031373724252 3 -0.69348037349475233
v 0.94438031373724252 0 -0.69348037349475233
v 0.92780827709336555 3 -1.1619137959735888
v 0.92780827709336555 0 -1.1619137959735888
v 0.92663340455985732 3 -0.71702143548898278
v 0.92663340455985732 0 -0.71702143548898278
v 0.91428250462973526 3 -1.1766465309288543
v 0.91428250462973526 0 -1.1766465309288543
v 0.91131821728256479 3 -0.72988397950878925
v 0.91131821728256479 0 -0.72988397950878925
v 0.8315668164753065 3 -0.81959023080548166
v 0.8315668164753065 0 -0.81959023080548166
v 0.82058594880553748 3 -0.83630610784556014
v 0.82058594880553748 0 -0.83630610784556014
v 0.799284735348335 3 -0.85668729256130327
v 0.799284735348335 0 -0.85668729256130327
v 0.78210062675921688 3 -0.86691990767169425
v 0.78210062675921688 0 -0.86691990767169425
v 0.77007274326604869 3 -1.2756949192881626
v 0.77007274326604869 0 -1.2756949192881626
v 0.75146690371160463 3 -1.2830313172104599
v 0.75146690371160463 0 -1.2830313172104599
v 0.72890903659075656 3 -1.2959797393065406
v 0.72890903659075656 0 -1.2959797393065406
v 0.71319034703418727 3 -1.3083459351089775
v 0.71319034703418727 0 -1.3083459351089775
v 0.68896285238539801 3 -0.94263551000778401
v 0.68896285238539801 0 -0.94263551000778401
v 0.6754370799217676 3 -0.95736824496304951
v 0.6754370799217676 0 -0.95736824496304951
v 0.65113589393709803 3 -0.97405916299966622
v 0.65113589393709803 0 -0.97405916299966611
v 0.63253005438265397 3 -0.98139556092196367
v 0.63253005438265397 0 -0.98139556092196356
v 0.55493078351930636 3 -1.3829177063446612
v 0.55493078351930636 0 -1.3829177063446612
v 0.53538740173671284 3 -1.3871669684570513
v 0.53538740173671284 0 -1.3871669684570513
v 0.52842967566943144 3 -1.0411501306567454
v 0.52842967566943144 0 -1.0411501306567454
v 0.51271098611286225 3 -1.0535163264591823
v 0.51271098611286225 0 -1.0535163264591823
v 0.511041044642634 3 -1.3963197767729567
v 0.511041044642634 0 -1.3963197767729567
v 0.49353849303330255 3 -1.4059976219444137
v 0.49353849303330255 0 -1.4059976219444137
v 0.48604222908518302 3 -1.0660826220058088
v 0.48604222908518308 0 -1.0660826220058088
v 0.4664988473025895 3 -1.070331884118199
v 0.4664988473025895 0 -1.070331884118199
v 0.35414491861761233 3 -1.1125703992610909
v 0.35414491861761233 0 -1.1125703992610909
v 0.33664236700828082 3 -1.1222482444325479
v 0.33664236700828082 0 -1.1222482444325479
v 0.32534759232443244 3 -1.4541521588842155
v 0.32534759232443244 0 -1.4541521588842155
v 0.30830005286529005 3 -1.1303628987188732
v 0.30830005286529005 0 -1.1303628987188732
v 0.30537525516448866 3 -1.4552037045891335
v 0.30537525516448866 0 -1.4552037045891335
v 0.28832771570534627 3 -1.1314144444237912
v 0.28832771570534627 0 -1.1314144444237912
v 0.27987398509120465 3 -1.4603227111792387
v 0.27987398509120465 0 -1.4603227111792387
v 0.2610430487719253 3 -1.4670603544867498
v 0.2610430487719253 0 -1.4670603544867498
v 0.17064407752824445 3 -1.1550377117216535
v 0.17064407752824445 0 -1.1550377117216535
v 0.15181314120896508 3 -1.1617753550291643
v 0.15181314120896508 0 -1.1617753550291643
v 0.12253483566240569 3 -1.1652271964926246
v 0.12253483566240569 0 -1.1652271964926246
v 0.10265329288860052 3 -1.1630536609089823
v 0.10265329288860053 0 -1.1630536609089823
v 0.087297723804410504 3 -1.4875445083887402
v 0.08729772380441049 0 -1.4875445083887402
v 0.067416181030605329 3 -1.4853709728050979
v 0.067416181030605329 0 -1.4853709728050979
vn 0.84770607948303223 0 0.53046625852584839
vn 0.84770607948303223 0 0.53046625852584839
vn 0.84770607948303223 0 -0.53046625852584839
vn 0.84770607948303223 0 -0.53046625852584839
vn 0.53046625852584839 0 -0.84770607948303223
vn 0.53046625852584839 0 -0.84770607948303223
vn 0.53046625852584839 0 0.84770607948303223
vn 0.53046625852584839 0 0.84770607948303223
vn 0.7513810396194458 0 -0.65986859798431396
vn 0.7513810396194458 0 -0.65986859798431396
vn 0.65986859798431396 0 0.7513810396194458
vn 0.65986859798431396 0 0.7513810396194458
vn 0.92197084426879883 0 0.38725933432579041
vn 0.92197084426879883 0 0.38725933432579041
vn 0.38725933432579041 0 -0.92197084426879883
vn 0.38725933432579041 0 -0.92197084426879883
vn 0.77209889888763428 0 0.6355023980140686
vn 0.77209889888763428 0 0.6355023980140686
vn 0.6355023980140686 0 -0.77209889888763428
vn 0.6355023980140686 0 -0.77209889888763428
vn 0.97224271297454834 0 0.23397451639175415
vn 0.97224271297454834 0 0.23397451639175415
vn 0.23397451639175415 0 -0.97224271297454834
vn 0.23397451639175415 0 -0.97224271297454834
vn 0.86423647403717041 0 0.50308585166931152
vn 0.86423647403717041 0 0.50308585166931152
vn 0.50308585166931152 0 -0.86423647403717041
vn 0.50308585166931152 0 -0.86423647403717041
vn 0.99721348285675049 0 0.074600934982299805
vn 0.99721348285675049 0 0.074600934982299805
vn 0.074600934982299805 0 -0.99721348285675049
vn 0.074600934982299805 0 -0.99721348285675049
vn 0.93388354778289795 0 0.35757723450660706
vn 0.93388354778289795 0 0.35757723450660706
vn 0.35757723450660706 0 -0.93388354778289795
vn 0.35757723450660706 0 -0.93388354778289795
vn -0.53046625852584839 0 0.84770607948303223
vn -0.53046625852584839 0 0.84770607948303223
vn -0.53046625852584839 0 -0.84770607948303223
vn -0.53046625852584839 0 -0.84770607948303223
vn -0.84770607948303223 0 -0.53046625852584839
vn -0.84770607948303223 0 -0.53046625852584839
vn -0.84770607948303223 0 0.53046625852584839
vn -0.84770607948303223 0 0.53046625852584839
vn -0.65986859798431396 0 -0.7513810396194458
vn -0.65986859798431396 0 -0.7513810396194458
vn -0.7513810396194458 0 0.65986859798431396
vn -0.7513810396194458 0 0.65986859798431396
vn -0.38725933432579041 0 0.92197084426879883
vn -0.38725933432579041 0 0.92197084426879883
vn -0.92197084426879883 0 -0.38725933432579041
vn -0.92197084426879883 0 -0.38725933432579041
vn 0.99623322486877441 0 -0.086714021861553192
vn 0.99623322486877441 0 -0.086714021861553192
vn -0.086714021861553192 0 -0.99623322486877441
vn -0.086714021861553192 0 -0.99623322486877441
vn -0.6355023980140686 0 0.77209889888763428
vn -0.6355023980140686 0 0.77209889888763428
vn -0.77209889888763428 0 -0.6355023980140686
vn -0.77209889888763428 0 -0.6355023980140686
vn -0.23397451639175415 0 0.97224271297454834
vn -0.23397451639175415 0 0.97224271297454834
vn 0.97922778129577637 0 0.20276322960853577
vn 0.97922778129577637 0 0.20276322960853577
vn -0.97224271297454834 0 -0.23397451639175415
vn -0.97224271297454834 0 -0.23397451639175415
vn 0.20276322960853577 0 -0.97922778129577637
vn 0.20276322960853577 0 -0.97922778129577637
vn -0.50308585166931152 0 0.86423647403717041
vn -0.50308585166931152 0 0.86423647403717041
vn -0.86423647403717041 0 -0.50308585166931152
vn -0.86423647403717041 0 -0.50308585166931152
vn -0.074600934982299805 0 0.99721348285675049
vn -0.074600934982299805 0 0.99721348285675049
vn -0.99721348285675049 0 -0.074600934982299805
vn -0.99721348285675049 0 -0.074600934982299805
vn 0.96932756900787354 0 -0.24577237665653229
vn 0.96932756900787354 0 -0.24577237665653229
vn -0.35757723450660706 0 0.93388354778289795
vn -0.35757723450660706 0 0.93388354778289795
vn -0.24577237665653229 0 -0.96932756900787354
vn -0.24577237665653229 0 -0.96932756900787354
vn -0.93388354778289795 0 -0.35757723450660706
vn -0.93388354778289795 0 -0.35757723450660706
vn 0.99908912181854248 0 0.042672589421272278
vn 0.99908912181854248 0 0.042672589421272278
vn 0.086714021861553192 0 0.99623322486877441
vn 0.086714021861553192 0 0.99623322486877441
vn 0.042672589421272278 0 -0.99908912181854248
vn 0.042672589421272278 0 -0.99908912181854248
vn -0.99623322486877441 0 0.086714021861553192
vn -0.99623322486877441 0 0.086714021861553192
vn -0.20276322960853577 0 0.97922778129577637
vn -0.20276322960853577 0 0.97922778129577637
vn -0.97922778129577637 0 -0.20276322960853577
vn -0.97922778129577637 0 -0.20276322960853577
vn 0.24577237665653229 0 0.96932756900787354
vn 0.24577237665653229 0 0.96932756900787354
vn -0.96932756900787354 0 0.24577237665653229
vn -0.96932756900787354 0 0.24577237665653229
vn 0.91719663143157959 0 -0.39843490719795227
vn 0.91719663143157959 0 -0.39843490719795227
vn -0.39843490719795227 0 -0.91719663143157959
vn -0.39843490719795227 0 -0.91719663143157959
vn 0.99295061826705933 0 -0.11852853745222092
vn 0.99295061826705933 0 -0.11852853745222092
vn -0.11852853745222092 0 -0.99295061826705933
vn -0.11852853745222092 0 -0.99295061826705933
vn -0.042672589421272278 0 0.99908912181854248
vn -0.042672589421272278 0 0.99908912181854248
vn -0.99908912181854248 0 -0.042672589421272278
vn -0.99908912181854248 0 -0.042672589421272278
vn 0.39843490719795227 0 0.91719663143157959
vn 0.39843490719795227 0 0.91719663143157959
vn -0.91719663143157959 0 0.39843490719795227
vn -0.91719663143157959 0 0.39843490719795227
vn 0.84119695425033569 0 -0.54072880744934082
vn 0.84119695425033569 0 -0.54072880744934082
vn -0.54072880744934082 0 -0.84119695425033569
vn -0.54072880744934082 0 -0.84119695425033569
vn 0.11852853745222092 0 0.99295061826705933
vn 0.11852853745222092 0 0.99295061826705933
vn -0.99295061826705933 0 0.11852853745222092
vn -0.99295061826705933 0 0.11852853745222092
vn 0.9609721302986145 0 -0.27664515376091003
vn 0.9609721302986145 0 -0.27664515376091003
vn -0.27664515376091003 0 -0.9609721302986145
vn -0.27664515376091003 0 -0.9609721302986145
vn 0.54072880744934082 0 0.84119695425033569
vn 0.54072880744934082 0 0.84119695425033569
vn -0.84119695425033569 0 0.54072880744934082
vn -0.84119695425033569 0 0.54072880744934082
vn 0.27664515376091003 0 0.9609721302986145
vn 0.27664515376091003 0 0.9609721302986145
vn -0.9609721302986145 0 0.27664515376091003
vn -0.9609721302986145 0 0.27664515376091003
vn 0.74330651760101318 0 -0.66895097494125366
vn 0.74330651760101318 0 -0.66895097494125366
vn 0.66895097494125366 0 0.74330651760101318
vn 0.66895097494125366 0 0.74330651760101318
vn -0.66895097494125366 0 -0.74330651760101318
vn -0.66895097494125366 0 -0.74330651760101318
vn -0.74330651760101318 0 0.66895097494125366
vn -0.74330651760101318 0 0.66895097494125366
vn 0.90398579835891724 0 -0.42756244540214539
vn 0.90398579835891724 0 -0.42756244540214539
vn -0.42756244540214539 0 -0.90398579835891724
vn -0.42756244540214539 0 -0.90398579835891724
vn 0.42756244540214539 0 0.90398579835891724
vn 0.42756244540214539 0 0.90398579835891724
vn -0.90398579835891724 0 0.42756244540214539
vn -0.90398579835891724 0 0.42756244540214539
vn 0.77976477146148682 0 0.62607258558273315
vn 0.77976477146148682 0 0.62607258558273315
vn -0.62607258558273315 0 0.77976477146148682
vn -0.62607258558273315 0 0.77976477146148682
vn 0.62607258558273315 0 -0.77976477146148682
vn 0.62607258558273315 0 -0.77976477146148682
vn -0.77976477146148682 0 -0.62607258558273315
vn -0.77976477146148682 0 -0.62607258558273315
f 6//6 42//42 41//41 5//5
f 42//42 38//38 37//37 41//41
f 38//38 2//2 1//1 37//37
f 2//2 6//6 5//5 1//1
f 16//16 52//52 51//51 15//15
f 52//52 50//50 49//49 51//51
f 50//50 14//14 13//13 49//49
f 14//14 16//16 15//15 13//13
f 24//24 66//66 65//65 23//23
f 66//66 62//62 61//61 65//65
f 62//62 22//22 21//21 61//61
f 22//22 24//24 23//23 21//21
f 32//32 76//76 75//75 31//31
f 76//76 74//74 73//73 75//75
f 74//74 30//30 29//29 73//73
f 30//30 32//32 31//31 29//29
f 56//56 92//92 91//91 55//55
f 92//92 88//88 87//87 91//91
f 88//88 54//54 53//53 87//87
f 54//54 56//56 55//55 53//53
f 82//82 100//100 99//99 81//81
f 100//100 98//98 97//97 99//99
f 98//98 78//78 77//77 97//97
f 78//78 82//82 81//81 77//77
f 104//104 116//116 115//115 103//103
f 116//116 114//114 113//113 115//115
f 114//114 102//102 101//101 113//113
f 102//102 104//104 103//103 101//101
f 120//120 132//132 131//131 119//119
f 132//132 130//130 129//129 131//131
f 130//130 118//118 117//117 129//129
f 118//118 120//120 119//119 117//117
f 142//142 144//144 143//143 141//141
f 144//144 140//140 139//139 143//143
f 140//140 138//138 137//137 139//139
f 138//138 142//142 141//141 137//137
f 160//160 156//156 155//155 159//159
f 156//156 154//154 153//153 155//155
f 154//154 158//158 157//157 153//153
f 158//158 160//160 159//159 157//157
f 8//8 4//4 3//3 7//7
f 4//4 40//40 39//39 3//3
f 40//40 44//44 43//43 39//39
f 44//44 8//8 7//7 43//43
f 12//12 10//10 9//9 11//11
f 10//10 46//46 45//45 9//9
f 46//46 48//48 47//47 45//45
f 48//48 12//12 11//11 47//47
f 18//18 20//20 19//19 17//17
f 20//20 60//60 59//59 19//19
f 60//60 58//58 57//57 59//59
f 58//58 18//18 17//17 57//57
f 26//26 28//28 27//27 25//25
f 28//28 72//72 71//71 27//27
f 72//72 70//70 69//69 71//71
f 70//70 26//26 25//25 69//69
f 34//34 36//36 35//35 33//33
f 36//36 84//84 83//83 35//35
f 84//84 80//80 79//79 83//83
f 80//80 34//34 33//33 79//79
f 64//64 68//68 67//67 63//63
f 68//68 96//96 95//95 67//67
f 96//96 94//94 93//93 95//95
f 94//94 64//64 63//63 93//93
f 86//86 90//90 89//89 85//85
f 90//90 112//112 111//111 89//89
f 112//112 110//110 109//109 111//111
f 110//110 86//86 85//85 109//109
f 106//106 108//108 107//107 105//105
f 108//108 124//124 123//123 107//107
f 124//124 122//122 121//121 123//123
f 122//122 106//106 105//105 121//121
f 126//126 128//128 127//127 125//125
f 128//128 136//136 135//135 127//127
f 136//136 134//134 133//133 135//135
f 134//134 126//126 125//125 133//133
f 146//146 148//148 147//147 145//145
f 148//148 152//152 151//151 147//147
f 152//152 150//150 149//149 151//151
f 150//150 146//146 145//145 149//149
