# Rhino

mtllib Pannelli76.mtl
usemtl diffuse_Black
v 1.4359923111132107 3 -0.19107639586249453
v 1.4359923111132107 0 -0.1910763958624945
v 1.4359923111132125 3 0.19107639586248579
v 1.4359923111132125 0 0.19107639586248579
v 1.4252196077760571 3 -0.20792717812355505
v 1.4252196077760571 0 -0.20792717812355507
v 1.4252196077760588 3 0.20792717812354644
v 1.4252196077760588 0 0.20792717812354644
v 1.4243046120139571 3 -0.26446262274248522
v 1.4243046120139571 0 -0.26446262274248522
v 1.4192995140964053 3 -0.24509902300391084
v 1.4192995140964053 0 -0.24509902300391084
v 1.3055902800326986 3 -0.62770863250094033
v 1.3055902800326986 0 -0.62770863250094033
v 1.2901159174503316 3 -0.64037923243422834
v 1.2901159174503316 0 -0.64037923243422834
v 1.2729414226353484 3 -0.67387296750267356
v 1.2729414226353484 0 -0.67387296750267356
v 1.2716836666510292 3 -0.69383337956966029
v 1.2716836666510292 0 -0.69383337956966029
v 1.1720632209126771 3 -0.022346556100367773
v 1.1720632209126771 0 -0.022346556100367742
v 1.1720632209126776 3 0.022346556100360529
v 1.1720632209126776 0 0.022346556100360529
v 1.1612905175755235 3 -0.039197338361428295
v 1.1612905175755235 0 -0.039197338361428323
v 1.1612905175755239 3 0.039197338361421176
v 1.1612905175755239 0 0.039197338361421176
v 1.1210179643774827 3 -0.34285607173960259
v 1.1210179643774827 0 -0.34285607173960259
v 1.1160128664599311 3 -0.32349247200102821
v 1.1160128664599311 0 -0.32349247200102821
v 1.1071342166358431 3 -0.38533801880930968
v 1.1071342166358431 0 -0.38533801880930968
v 1.0916598540534761 3 -0.39800861874259774
v 1.0916598540534761 0 -0.39800861874259769
v 1.0460016445536169 3 -1.0022298470027671
v 1.0460016445536169 0 -1.0022298470027671
v 1.0273567924871951 3 -1.0094665238244331
v 1.0273567924871951 0 -1.0094665238244331
v 1.0006272923590924 3 -1.0359679838575493
v 1.0006272923590924 0 -1.0359679838575493
v 0.99323113593066914 3 -1.0545501492342293
v 0.99323113593066914 0 -1.0545501492342293
v 0.96030707039869589 3 -0.65417308725422363
v 0.96030707039869589 0 -0.65417308725422363
v 0.95904931441437691 3 -0.67413349932121025
v 0.95904931441437691 0 -0.67413349932121025
v 0.93265559924679087 3 -0.71020074315601456
v 0.93265559924679087 0 -0.71020074315601456
v 0.91401074718036901 3 -0.71743741997768062
v 0.91401074718036901 0 -0.71743741997768062
v 0.70958003260330926 3 -0.92012405406887088
v 0.70958003260330926 0 -0.92012405406887088
v 0.70218387617488587 3 -0.93870621944555099
v 0.70218387617488587 0 -0.93870621944555099
v 0.6829123912146835 3 -1.2775816109186544
v 0.6829123912146835 0 -1.2775816109186544
v 0.66589182028546623 3 -0.96478994919238981
v 0.66589182028546623 0 -0.96478994919238981
v 0.66294193558654546 3 -1.2786683040697171
v 0.66294193558654546 0 -1.2786683040697171
v 0.64592136465732819 3 -0.96587664234345272
v 0.64592136465732819 0 -0.96587664234345272
v 0.62930228237165475 3 -1.2955552011371767
v 0.62930228237165475 0 -1.2955552011371767
v 0.61649956637539693 3 -1.3109204366745566
v 0.61649956637539693 0 -1.3109204366745566
v 0.38864089506806254 3 -1.0950298407925434
v 0.38864089506806254 0 -1.0950298407925434
v 0.37583817907180483 3 -1.1103950763299235
v 0.37583817907180483 0 -1.1103950763299235
v 0.33323883819886457 3 -1.1239143379731469
v 0.33323883819886463 0 -1.1239143379731469
v 0.31391883182615216 3 -1.1187435204596055
v 0.31391883182615216 0 -1.1187435204596055
v 0.25224976951356942 3 -1.4265181949110961
v 0.25224976951356942 0 -1.4265181949110961
v 0.23292976314085698 3 -1.4213473773975547
v 0.232929763140857 0 -1.4213473773975547
v 0.19570856048952706 3 -1.4269487731319863
v 0.19570856048952706 0 -1.4269487731319863
v 0.17876609843648097 3 -1.4375767070601349
v 0.17876609843648097 0 -1.4375767070601349
v 0.029246203495598116 3 -1.1615837279880181
v 0.029246203495598116 0 -1.1615837279880181
v 0.01230374144255204 3 -1.1722116619161667
v 0.01230374144255204 0 -1.1722116619161667
v -0.03238773033290962 3 -1.1718287406057375
v -0.032387730332909641 0 -1.1718287406057375
v -0.049145595812765848 3 -1.1609120586666568
v -0.049145595812765785 0 -1.1609120586666568
v -0.20337266667311477 3 -1.4343025012466259
v -0.20337266667311482 0 -1.4343025012466259
v -0.22013053215297099 3 -1.4233858193075453
v -0.22013053215297099 0 -1.4233858193075453
v -0.25725029053613307 3 -1.4171474622673674
v -0.25725029053613307 0 -1.4171474622673674
v -0.27665606218940181 3 -1.4219864731726237
v -0.27665606218940181 0 -1.4219864731726237
v -0.33304236510622898 3 -1.1132002877244944
v -0.33304236510622898 0 -1.1132002877244944
v -0.35244813675949771 3 -1.1180392986297507
v -0.35244813675949771 0 -1.1180392986297507
v -0.39480957149356705 3 -1.1037920839736131
v -0.39480957149356705 0 -1.1037920839736131
v -0.40734712523522587 3 -1.0882097302946911
v -0.40734712523522593 0 -1.0882097302946911
v -0.63887161953061589 3 -1.3001642820776107
v -0.63887161953061578 0 -1.3001642820776107
v -0.65140917327227466 3 -1.2845819283986888
v -0.65140917327227466 0 -1.2845819283986888
v -0.66237678804157274 3 -0.95466700383389036
v -0.66237678804157274 0 -0.95466700383389036
v -0.68232569128519338 3 -0.95323827734618871
v -0.68232569128519338 0 -0.95323827734618871
v -0.6847545314722665 3 -1.2671210965886255
v -0.6847545314722665 0 -1.2671210965886255
v -0.70470343471588703 3 -1.2656923701009239
v -0.70470343471588703 0 -1.2656923701009239
v -0.71816547542617537 3 -0.92653651427865547
v -0.71816547542617537 0 -0.92653651427865547
v -0.72524214140810839 3 -0.90783034421153186
v -0.72524214140810839 0 -0.90783034421153186
v -0.92616981610885851 3 -0.70167055608335971
v -0.92616981610885851 0 -0.70167055608335971
v -0.94468793070848722 3 -0.69411546298830062
v -0.94468793070848722 0 -0.69411546298830062
v -0.97045976026931868 3 -0.65760125918656975
v -0.97045976026931868 0 -0.65760125918656986
v -0.97137531081470374 3 -0.63762222599677687
v -0.97137531081470374 0 -0.63762222599677698
v -1.0111549859702187 3 -1.0373763545500869
v -1.0111549859702187 0 -1.0373763545500871
v -1.0182316519521515 3 -1.0186701844829635
v -1.0182316519521515 0 -1.0186701844829635
v -1.0445031264601015 3 -0.99171460643011478
v -1.0445031264601015 0 -0.99171460643011478
v -1.0630212410597302 3 -0.98415951333505569
v -1.0630212410597302 0 -0.98415951333505569
v -1.0983194431265022 3 -0.37924464188138229
v -1.0983194431265022 0 -0.37924464188138229
v -1.1135744236813068 3 -0.36631074964924532
v -1.1135744236813068 0 -0.36631074964924532
v -1.1213920492705314 3 -0.30432214736736757
v -1.1213920492705314 0 -0.30432214736736757
v -1.126728206798544 3 -0.32359714212317042
v -1.126728206798544 0 -0.32359714212317048
v -1.2833857699450502 3 -0.67194127134342063
v -1.2833857699450502 0 -0.67194127134342052
v -1.284301320490435 3 -0.65196223815362775
v -1.284301320490435 0 -0.65196223815362764
v -1.3008993801700197 3 -0.61817913622591814
v -1.3008993801700197 0 -0.61817913622591814
v -1.3161543607248243 3 -0.6052452439937811
v -1.3161543607248243 0 -0.6052452439937811
v -1.4232909018404141 3 -0.22074340427306949
v -1.4232909018404141 0 -0.22074340427306949
v -1.4286270593684267 3 -0.2400183990288724
v -1.4286270593684267 0 -0.2400183990288724
vn 0.97663772106170654 0 0.21489252150058746
vn 0.97663772106170654 0 0.21489252150058746
vn 0.97663772106170654 0 -0.21489252150058746
vn 0.97663772106170654 0 -0.21489252150058746
vn 0.21489252150058746 0 -0.97663772106170654
vn 0.21489252150058746 0 -0.97663772106170654
vn 0.21489252150058746 0 0.97663772106170654
vn 0.21489252150058746 0 0.97663772106170654
vn 0.86156356334686279 0 -0.50764966011047363
vn 0.86156356334686279 0 -0.50764966011047363
vn 0.50764966011047363 0 0.86156356334686279
vn 0.50764966011047363 0 0.86156356334686279
vn 0.99507468938827515 0 -0.099127955734729767
vn 0.99507468938827515 0 -0.099127955734729767
vn -0.099127955734729767 0 -0.99507468938827515
vn -0.099127955734729767 0 -0.99507468938827515
vn 0.75017553567886353 0 0.66123872995376587
vn 0.75017553567886353 0 0.66123872995376587
vn 0.66123872995376587 0 -0.75017553567886353
vn 0.66123872995376587 0 -0.75017553567886353
vn -0.21489252150058746 0 0.97663772106170654
vn -0.21489252150058746 0 0.97663772106170654
vn -0.21489252150058746 0 -0.97663772106170654
vn -0.21489252150058746 0 -0.97663772106170654
vn -0.97663772106170654 0 -0.21489252150058746
vn -0.97663772106170654 0 -0.21489252150058746
vn -0.97663772106170654 0 0.21489252150058746
vn -0.97663772106170654 0 0.21489252150058746
vn -0.50764966011047363 0 -0.86156356334686279
vn -0.50764966011047363 0 -0.86156356334686279
vn -0.86156356334686279 0 0.50764966011047363
vn -0.86156356334686279 0 0.50764966011047363
vn 0.099127955734729767 0 0.99507468938827515
vn 0.099127955734729767 0 0.99507468938827515
vn -0.99507468938827515 0 0.099127955734729767
vn -0.99507468938827515 0 0.099127955734729767
vn 0.915050208568573 0 -0.40333995223045349
vn 0.915050208568573 0 -0.40333995223045349
vn -0.40333995223045349 0 -0.915050208568573
vn -0.40333995223045349 0 -0.915050208568573
vn 0.91847240924835205 0 0.39548513293266296
vn 0.91847240924835205 0 0.39548513293266296
vn 0.39548513293266296 0 -0.91847240924835205
vn 0.39548513293266296 0 -0.91847240924835205
vn -0.66123872995376587 0 0.75017553567886353
vn -0.66123872995376587 0 0.75017553567886353
vn -0.75017553567886353 0 -0.66123872995376587
vn -0.75017553567886353 0 -0.66123872995376587
vn 0.40333995223045349 0 0.915050208568573
vn 0.40333995223045349 0 0.915050208568573
vn -0.915050208568573 0 0.40333995223045349
vn -0.915050208568573 0 0.40333995223045349
vn -0.39548513293266296 0 0.91847240924835205
vn -0.39548513293266296 0 0.91847240924835205
vn -0.91847240924835205 0 -0.39548513293266296
vn -0.91847240924835205 0 -0.39548513293266296
vn 0.74448263645172119 0 -0.66764181852340698
vn 0.74448263645172119 0 -0.66764181852340698
vn 0.66764181852340698 0 0.74448263645172119
vn 0.66764181852340698 0 0.74448263645172119
vn -0.66764181852340698 0 -0.74448263645172119
vn -0.66764181852340698 0 -0.74448263645172119
vn -0.74448263645172119 0 0.66764181852340698
vn -0.74448263645172119 0 0.66764181852340698
vn 0.99588745832443237 0 0.090598732233047485
vn 0.99588745832443237 0 0.090598732233047485
vn 0.090598732233047485 0 -0.99588745832443237
vn 0.090598732233047485 0 -0.99588745832443237
vn -0.090598732233047485 0 0.99588745832443237
vn -0.090598732233047485 0 0.99588745832443237
vn -0.99588745832443237 0 -0.090598732233047485
vn -0.99588745832443237 0 -0.090598732233047485
vn 0.86588138341903687 0 0.50024938583374023
vn 0.86588138341903687 0 0.50024938583374023
vn -0.50024938583374023 0 0.86588138341903687
vn -0.50024938583374023 0 0.86588138341903687
vn 0.50024938583374023 0 -0.86588138341903687
vn 0.50024938583374023 0 -0.86588138341903687
vn -0.86588138341903687 0 -0.50024938583374023
vn -0.86588138341903687 0 -0.50024938583374023
vn 0.97476071119308472 0 -0.22325228154659271
vn 0.97476071119308472 0 -0.22325228154659271
vn -0.22325228154659271 0 -0.97476071119308472
vn -0.22325228154659271 0 -0.97476071119308472
vn 0.22325228154659271 0 0.97476071119308472
vn 0.22325228154659271 0 0.97476071119308472
vn -0.97476071119308472 0 0.22325228154659271
vn -0.97476071119308472 0 0.22325228154659271
vn 0.97844302654266357 0 0.20651699602603912
vn 0.97844302654266357 0 0.20651699602603912
vn -0.20651699602603912 0 0.97844302654266357
vn -0.20651699602603912 0 0.97844302654266357
vn 0.20651699602603912 0 -0.97844302654266357
vn 0.20651699602603912 0 -0.97844302654266357
vn -0.97844302654266357 0 -0.20651699602603912
vn -0.97844302654266357 0 -0.20651699602603912
vn 0.85718250274658203 0 -0.51501274108886719
vn 0.85718250274658203 0 -0.51501274108886719
vn -0.51501274108886719 0 -0.85718250274658203
vn -0.51501274108886719 0 -0.85718250274658203
vn 0.51501274108886719 0 0.85718250274658203
vn 0.51501274108886719 0 0.85718250274658203
vn -0.85718250274658203 0 0.51501274108886719
vn -0.85718250274658203 0 0.51501274108886719
vn 0.99418884515762329 0 -0.10764995962381363
vn 0.99418884515762329 0 -0.10764995962381363
vn 0.10764995962381363 0 0.99418884515762329
vn 0.10764995962381363 0 0.99418884515762329
vn -0.10764995962381363 0 -0.99418884515762329
vn -0.10764995962381363 0 -0.99418884515762329
vn -0.99418884515762329 0 0.10764995962381363
vn -0.99418884515762329 0 0.10764995962381363
vn 0.7558133602142334 0 0.65478712320327759
vn 0.7558133602142334 0 0.65478712320327759
vn -0.65478712320327759 0 0.7558133602142334
vn -0.65478712320327759 0 0.7558133602142334
vn 0.65478712320327759 0 -0.7558133602142334
vn 0.65478712320327759 0 -0.7558133602142334
vn -0.7558133602142334 0 -0.65478712320327759
vn -0.7558133602142334 0 -0.65478712320327759
vn 0.91156089305877686 0 -0.41116508841514587
vn 0.91156089305877686 0 -0.41116508841514587
vn 0.41116508841514587 0 0.91156089305877686
vn 0.41116508841514587 0 0.91156089305877686
vn 0.92182713747024536 0 0.38760131597518921
vn 0.92182713747024536 0 0.38760131597518921
vn -0.38760131597518921 0 0.92182713747024536
vn -0.38760131597518921 0 0.92182713747024536
vn 0.73873507976531982 0 -0.67399591207504272
vn 0.73873507976531982 0 -0.67399591207504272
vn 0.67399591207504272 0 0.73873507976531982
vn 0.67399591207504272 0 0.73873507976531982
vn -0.41116508841514587 0 -0.91156089305877686
vn -0.41116508841514587 0 -0.91156089305877686
vn -0.91156089305877686 0 0.41116508841514587
vn -0.91156089305877686 0 0.41116508841514587
vn 0.38760131597518921 0 -0.92182713747024536
vn 0.38760131597518921 0 -0.92182713747024536
vn -0.92182713747024536 0 -0.38760131597518921
vn -0.92182713747024536 0 -0.38760131597518921
vn 0.99662715196609497 0 0.082062862813472748
vn 0.99662715196609497 0 0.082062862813472748
vn -0.082062862813472748 0 0.99662715196609497
vn -0.082062862813472748 0 0.99662715196609497
vn 0.87013566493988037 0 0.49281230568885803
vn 0.87013566493988037 0 0.49281230568885803
vn 0.49281230568885803 0 -0.87013566493988037
vn 0.49281230568885803 0 -0.87013566493988037
vn -0.67399591207504272 0 -0.73873507976531982
vn -0.67399591207504272 0 -0.73873507976531982
vn -0.73873507976531982 0 0.67399591207504272
vn -0.73873507976531982 0 0.67399591207504272
vn 0.082062862813472748 0 -0.99662715196609497
vn 0.082062862813472748 0 -0.99662715196609497
vn -0.99662715196609497 0 -0.082062862813472748
vn -0.99662715196609497 0 -0.082062862813472748
vn -0.49281230568885803 0 0.87013566493988037
vn -0.49281230568885803 0 0.87013566493988037
vn -0.87013566493988037 0 -0.49281230568885803
vn -0.87013566493988037 0 -0.49281230568885803
f 6//6 26//26 25//25 5//5
f 26//26 22//22 21//21 25//25
f 22//22 2//2 1//1 21//21
f 2//2 6//6 5//5 1//1
f 16//16 36//36 35//35 15//15
f 36//36 34//34 33//33 35//35
f 34//34 14//14 13//13 33//33
f 14//14 16//16 15//15 13//13
f 40//40 52//52 51//51 39//39
f 52//52 50//50 49//49 51//51
f 50//50 38//38 37//37 49//49
f 38//38 40//40 39//39 37//37
f 62//62 64//64 63//63 61//61
f 64//64 60//60 59//59 63//63
f 60//60 58//58 57//57 59//59
f 58//58 62//62 61//61 57//57
f 80//80 76//76 75//75 79//79
f 76//76 74//74 73//73 75//75
f 74//74 78//78 77//77 73//73
f 78//78 80//80 79//79 77//77
f 96//96 92//92 91//91 95//95
f 92//92 90//90 89//89 91//91
f 90//90 94//94 93//93 89//89
f 94//94 96//96 95//95 93//93
f 112//112 108//108 107//107 111//111
f 108//108 106//106 105//105 107//107
f 106//106 110//110 109//109 105//105
f 110//110 112//112 111//111 109//109
f 136//136 124//124 123//123 135//135
f 124//124 122//122 121//121 123//123
f 122//122 134//134 133//133 121//121
f 134//134 136//136 135//135 133//133
f 152//152 132//132 131//131 151//151
f 132//132 130//130 129//129 131//131
f 130//130 150//150 149//149 129//129
f 150//150 152//152 151//151 149//149
f 158//158 146//146 145//145 157//157
f 146//146 148//148 147//147 145//145
f 148//148 160//160 159//159 147//147
f 160//160 158//158 157//157 159//159
f 8//8 4//4 3//3 7//7
f 4//4 24//24 23//23 3//3
f 24//24 28//28 27//27 23//23
f 28//28 8//8 7//7 27//27
f 12//12 10//10 9//9 11//11
f 10//10 30//30 29//29 9//9
f 30//30 32//32 31//31 29//29
f 32//32 12//12 11//11 31//31
f 18//18 20//20 19//19 17//17
f 20//20 48//48 47//47 19//19
f 48//48 46//46 45//45 47//47
f 46//46 18//18 17//17 45//45
f 42//42 44//44 43//43 41//41
f 44//44 56//56 55//55 43//43
f 56//56 54//54 53//53 55//55
f 54//54 42//42 41//41 53//53
f 66//66 68//68 67//67 65//65
f 68//68 72//72 71//71 67//67
f 72//72 70//70 69//69 71//71
f 70//70 66//66 65//65 69//69
f 82//82 84//84 83//83 81//81
f 84//84 88//88 87//87 83//83
f 88//88 86//86 85//85 87//87
f 86//86 82//82 81//81 85//85
f 98//98 100//100 99//99 97//97
f 100//100 104//104 103//103 99//99
f 104//104 102//102 101//101 103//103
f 102//102 98//98 97//97 101//101
f 118//118 120//120 119//119 117//117
f 120//120 116//116 115//115 119//119
f 116//116 114//114 113//113 115//115
f 114//114 118//118 117//117 113//113
f 138//138 140//140 139//139 137//137
f 140//140 128//128 127//127 139//139
f 128//128 126//126 125//125 127//127
f 126//126 138//138 137//137 125//125
f 154//154 156//156 155//155 153//153
f 156//156 144//144 143//143 155//155
f 144//144 142//142 141//141 143//143
f 142//142 154//154 153//153 141//141
