# Rhino

mtllib Pannelli180.mtl
usemtl diffuse_Black
v 1.165650760403127 3 -0.33440430357007517
v 1.165650760403127 0 -0.33440430357007517
v 1.1656507604031279 3 0.33440430357007156
v 1.1656507604031279 0 0.33440430357007156
v 1.1601947201367571 3 -0.039810640786079786
v 1.1601947201367571 0 -0.039810640786079786
v 1.1601947201367571 3 0.039810640786076094
v 1.1601947201367571 0 0.039810640786076094
v 1.1456541896332095 3 -0.33477465130355638
v 1.1456541896332095 0 -0.33477465130355638
v 1.1456541896332106 3 0.33477465130355288
v 1.1456541896332106 0 0.33477465130355288
v 1.1401981493668396 3 -0.040180988519561013
v 1.1401981493668396 0 -0.040180988519561013
v 1.1401981493668398 3 0.040180988519557377
v 1.1401981493668398 0 0.040180988519557377
v 1.1395891995863572 3 -0.41461354254377725
v 1.1395891995863572 0 -0.41461354254377725
v 1.1395891298611098 3 0.41461373418758563
v 1.1395891298611098 0 0.41461373418758563
v 1.1236293187375335 3 -0.40256023580697853
v 1.1236293187375335 0 -0.40256023580697853
v 1.1236292510392814 3 0.40256042476682663
v 1.1236292510392814 0 0.40256042476682657
v 0.96201736383968151 3 -0.64973784515291699
v 0.96201736383968151 0 -0.64973784515291699
v 0.96201725457376852 3 0.64973800693460693
v 0.96201725457376852 0 0.64973800693460693
v 0.9460574829908579 3 -0.63768453841611827
v 0.9460574829908579 0 -0.63768453841611827
v 0.94605737575194015 3 0.63768469751384793
v 0.94605737575194015 0 0.63768469751384793
v 0.91521714984620328 3 -0.71415281584573931
v 0.91521714984620328 0 -0.71415281584573931
v 0.91521702974767627 3 0.71415296975707332
v 0.91521702974767627 0 0.71415296975707332
v 0.89882189913553645 3 -0.70269874433669144
v 0.89882189913553645 0 -0.70269874433669144
v 0.89882178096323173 3 0.7026988954908493
v 0.89882178096323173 0 0.7026988954908493
v 0.74647337280236592 3 -0.95569107831539102
v 0.74647337280236592 0 -0.95569107831539102
v 0.74647321208454265 3 0.95569120384921424
v 0.74647321208454265 0 0.95569120384921424
v 0.73007812209169909 3 -0.94423700680634315
v 0.73007812209169909 0 -0.94423700680634315
v 0.73007796330009822 3 0.94423712958299011
v 0.73007796330009822 0 0.94423712958299011
v 0.67824332026896739 3 -1.0052631157985963
v 0.67824332026896739 0 -1.0052631157985963
v 0.67824315121465484 3 1.0052632298582247
v 0.67824315121465484 0 1.0052632298582247
v 0.672416261053571 3 -0.98613080331682157
v 0.672416261053571 0 -0.98613080331682157
v 0.6724160952167243 3 0.9861309163965184
v 0.6724160952167243 0 0.9861309163965184
v 0.3963820913420012 3 -1.0911085708655888
v 0.3963820913420012 0 -1.0911085708655888
v 0.39638190785113037 3 1.0911086375248362
v 0.39638190785113037 0 1.0911086375248362
v 0.39055503212660475 3 -1.0719762583838142
v 0.39055503212660475 0 -1.0719762583838142
v 0.39055485185319982 3 1.0719763240631299
v 0.39055485185319982 0 1.0719763240631299
v 0.32065775349456943 3 -1.1157129025321981
v 0.32065775349456932 0 -1.1157129025321981
v 0.32065756586600846 3 1.115712956456943
v 0.32065756586600846 0 1.115712956456943
v 0.31412625103642633 3 -1.0968094775610644
v 0.31412625103642627 0 -1.0968094775610644
v 0.31412606658683961 3 1.0968095303874124
v 0.31412606658683961 0 1.0968095303874124
v 0.042168543245260141 3 -1.2119363627827773
v 0.042168543245260197 0 -1.2119363627827773
v 0.042168339434880131 3 1.2119363698742107
v 0.042168339434880131 0 1.2119363698742107
v 0.035637040787117047 3 -1.1930329378116435
v 0.035637040787117102 0 -1.1930329378116435
v 0.035636840155711225 3 1.1930329438046798
v 0.035636840155711225 0 1.1930329438046798
v -0.03563694047141619 3 -1.1930329408081661
v -0.03563694047141619 0 -1.1930329408081661
v -0.035637141102821533 3 1.193032934815113
v -0.035637141102821589 0 1.193032934815113
v -0.042168441340072194 3 -1.2119363663284983
v -0.042168441340072194 0 -1.2119363663284983
v -0.042168645150451635 3 1.2119363592370478
v -0.04216864515045169 0 1.2119363592370478
v -0.31412615881163575 3 -1.0968095039742418
v -0.31412615881163575 0 -1.0968095039742418
v -0.31412634326121808 3 1.0968094511478785
v -0.31412634326121802 0 1.0968094511478785
v -0.32065765968029181 3 -1.115712929494574
v -0.32065765968029181 0 -1.115712929494574
v -0.32065784730884822 3 1.1157128755698134
v -0.32065784730884817 0 1.1157128755698134
v -0.39055494198990531 3 -1.0719762912234752
v -0.39055494198990537 0 -1.0719762912234752
v -0.3905551222633048 3 1.0719762255441443
v -0.3905551222633048 0 1.0719762255441443
v -0.39638199959656883 3 -1.0911086041952156
v -0.39638199959656889 0 -1.0911086041952156
v -0.39638218308743417 3 1.0911085375359528
v -0.39638218308743417 0 1.0911085375359528
v -0.67241617813515153 3 -0.98613085985667237
v -0.67241617813515153 0 -0.98613085985667237
v -0.67241634397198879 3 0.98613074677696155
v -0.67241634397198879 0 0.98613074677696155
v -0.678243235741815 3 -1.0052631728284129
v -0.678243235741815 0 -1.0052631728284129
v -0.67824340479611811 3 1.0052630587687701
v -0.67824340479611811 0 1.0052630587687701
v -0.73007804269590271 3 -0.94423706819466879
v -0.73007804269590271 0 -0.94423706819466879
v -0.73007820148749336 3 0.9442369454180084
v -0.73007820148749336 0 0.9442369454180084
v -0.74647329244345839 3 -0.95569114108230468
v -0.74647329244345839 0 -0.95569114108230468
v -0.74647345316127123 3 0.95569101554846814
v -0.74647345316127123 0 0.95569101554846803
v -0.89882184004938837 3 -0.70269881991377126
v -0.89882184004938837 0 -0.70269881991377126
v -0.89882195822168043 3 0.70269866875960352
v -0.89882195822168043 0 0.70269866875960352
v -0.91521708979694394 3 -0.71415289280140737
v -0.91521708979694394 0 -0.71415289280140737
v -0.91521720989545829 3 0.71415273889006325
v -0.91521720989545829 0 0.71415273889006314
v -0.94605742937140336 3 -0.63768461796498377
v -0.94605742937140336 0 -0.63768461796498377
v -0.94605753661030767 3 0.63768445886724523
v -0.94605753661030767 0 0.63768445886724523
v -0.96201730920672957 3 -0.64973792604376268
v -0.96201730920672945 0 -0.64973792604376268
v -0.96201741847262889 3 0.64973776426206353
v -0.96201741847262889 0 0.64973776426206353
v -1.123629284888412 3 -0.40256033028690225
v -1.123629284888412 0 -0.40256033028690225
v -1.1236293525866483 3 0.40256014132704832
v -1.1236293525866483 0 0.40256014132704832
v -1.1395891647237382 3 -0.4146136383656811
v -1.1395891647237382 0 -0.4146136383656811
v -1.1395892344489695 3 0.41461344672186667
v -1.1395892344489695 0 0.41461344672186667
v -1.1401981459882333 3 -0.040181084392669458
v -1.1401981459882333 0 -0.040181084392669458
v -1.1401981527454383 3 0.040180892646448488
v -1.1401981527454383 0 0.040180892646448495
v -1.1456541614838121 3 -0.33477474763543297
v -1.1456541614838121 0 -0.33477474763543297
v -1.1456542177826003 3 0.33477455497167397
v -1.1456542177826003 0 0.33477455497167397
v -1.1601947167892908 3 -0.039810738340591963
v -1.1601947167892908 0 -0.039810738340591963
v -1.1601947234842149 3 0.039810543231563494
v -1.1601947234842149 0 0.039810543231563494
v -1.1656507322848695 3 -0.33440440158335538
v -1.1656507322848695 0 -0.33440440158335538
v -1.1656507885213769 3 0.33440420555678896
v -1.1656507885213769 0 0.33440420555678896
vn 0.72007930278778076 0 -0.69389176368713379
vn 0.72007930278778076 0 -0.69389176368713379
vn 0.72007930278778076 0 0.69389176368713379
vn 0.72007930278778076 0 0.69389176368713379
vn 0.69389176368713379 0 0.72007930278778076
vn 0.69389176368713379 0 0.72007930278778076
vn 0.69389176368713379 0 -0.72007930278778076
vn 0.69389176368713379 0 -0.72007930278778076
vn -0.69389176368713379 0 -0.72007930278778076
vn -0.69389176368713379 0 -0.72007930278778076
vn -0.69389176368713379 0 0.72007930278778076
vn -0.69389176368713379 0 0.72007930278778076
vn -0.72007930278778076 0 0.69389176368713379
vn -0.72007930278778076 0 0.69389176368713379
vn -0.72007930278778076 0 -0.69389176368713379
vn -0.72007930278778076 0 -0.69389176368713379
vn 0.99041575193405151 0 0.13811822235584259
vn 0.99041575193405151 0 0.13811822235584259
vn 0.99041575193405151 0 -0.13811808824539185
vn 0.99041575193405151 0 -0.13811808824539185
vn -0.13811822235584259 0 0.99041575193405151
vn -0.13811822235584259 0 0.99041575193405151
vn -0.13811808824539185 0 -0.99041575193405151
vn -0.13811808824539185 0 -0.99041575193405151
vn 0.13811822235584259 0 -0.99041575193405151
vn 0.13811822235584259 0 -0.99041575193405151
vn 0.13811808824539185 0 0.99041575193405151
vn 0.13811808824539185 0 0.99041575193405151
vn -0.99041575193405151 0 -0.13811822235584259
vn -0.99041575193405151 0 -0.13811822235584259
vn -0.99041575193405151 0 0.13811808824539185
vn -0.99041575193405151 0 0.13811808824539185
vn 0.98462224006652832 0 0.17469705641269684
vn 0.98462224006652832 0 0.17469705641269684
vn 0.98462224006652832 0 -0.1746969074010849
vn 0.98462224006652832 0 -0.1746969074010849
vn -0.17469705641269684 0 0.98462224006652832
vn -0.17469705641269684 0 0.98462224006652832
vn -0.1746969074010849 0 -0.98462224006652832
vn -0.1746969074010849 0 -0.98462224006652832
vn 0.17469705641269684 0 -0.98462224006652832
vn 0.17469705641269684 0 -0.98462224006652832
vn 0.1746969074010849 0 0.98462224006652832
vn 0.1746969074010849 0 0.98462224006652832
vn -0.98462224006652832 0 -0.17469705641269684
vn -0.98462224006652832 0 -0.17469705641269684
vn -0.98462224006652832 0 0.1746969074010849
vn -0.98462224006652832 0 0.1746969074010849
vn 0.8824470043182373 0 -0.47041177749633789
vn 0.8824470043182373 0 -0.47041177749633789
vn 0.88244694471359253 0 0.47041189670562744
vn 0.88244694471359253 0 0.47041189670562744
vn 0.47041177749633789 0 0.8824470043182373
vn 0.47041177749633789 0 0.8824470043182373
vn 0.47041189670562744 0 -0.88244694471359253
vn 0.47041189670562744 0 -0.88244694471359253
vn -0.47041177749633789 0 -0.8824470043182373
vn -0.47041177749633789 0 -0.8824470043182373
vn -0.47041189670562744 0 0.88244694471359253
vn -0.47041189670562744 0 0.88244694471359253
vn -0.8824470043182373 0 0.47041177749633789
vn -0.8824470043182373 0 0.47041177749633789
vn -0.88244694471359253 0 -0.47041189670562744
vn -0.88244694471359253 0 -0.47041189670562744
vn 0.89926052093505859 0 -0.43741348385810852
vn 0.89926052093505859 0 -0.43741348385810852
vn 0.89926040172576904 0 0.43741366267204285
vn 0.89926040172576904 0 0.43741366267204285
vn 0.43741348385810852 0 0.89926052093505859
vn 0.43741348385810852 0 0.89926052093505859
vn 0.43741366267204285 0 -0.89926040172576904
vn 0.43741366267204285 0 -0.89926040172576904
vn -0.43741348385810852 0 -0.89926052093505859
vn -0.43741348385810852 0 -0.89926052093505859
vn -0.43741366267204285 0 0.89926040172576904
vn -0.43741366267204285 0 0.89926040172576904
vn -0.89926052093505859 0 0.43741348385810852
vn -0.89926052093505859 0 0.43741348385810852
vn -0.89926040172576904 0 -0.43741366267204285
vn -0.89926040172576904 0 -0.43741366267204285
vn 0.89926046133041382 0 0.43741357326507568
vn 0.89926046133041382 0 0.43741357326507568
vn 0.89926052093505859 0 -0.43741348385810852
vn 0.89926052093505859 0 -0.43741348385810852
vn 0.43741357326507568 0 -0.89926046133041382
vn 0.43741357326507568 0 -0.89926046133041382
vn 0.43741348385810852 0 0.89926052093505859
vn 0.43741348385810852 0 0.89926052093505859
vn -0.43741357326507568 0 0.89926046133041382
vn -0.43741357326507568 0 0.89926046133041382
vn -0.43741348385810852 0 -0.89926052093505859
vn -0.43741348385810852 0 -0.89926052093505859
vn -0.89926046133041382 0 -0.43741357326507568
vn -0.89926046133041382 0 -0.43741357326507568
vn -0.89926052093505859 0 0.43741348385810852
vn -0.89926052093505859 0 0.43741348385810852
vn 0.8824470043182373 0 0.47041183710098267
vn 0.8824470043182373 0 0.47041183710098267
vn 0.88244706392288208 0 -0.47041165828704834
vn 0.88244706392288208 0 -0.47041165828704834
vn 0.47041183710098267 0 -0.8824470043182373
vn 0.47041183710098267 0 -0.8824470043182373
vn 0.47041165828704834 0 0.88244706392288208
vn 0.47041165828704834 0 0.88244706392288208
vn -0.47041183710098267 0 0.8824470043182373
vn -0.47041183710098267 0 0.8824470043182373
vn -0.47041165828704834 0 -0.88244706392288208
vn -0.47041165828704834 0 -0.88244706392288208
vn -0.8824470043182373 0 -0.47041183710098267
vn -0.8824470043182373 0 -0.47041183710098267
vn -0.88244706392288208 0 0.47041165828704834
vn -0.88244706392288208 0 0.47041165828704834
vn 0.98462224006652832 0 -0.17469696700572968
vn 0.98462224006652832 0 -0.17469696700572968
vn 0.98462224006652832 0 0.17469717562198639
vn 0.98462224006652832 0 0.17469717562198639
vn -0.17469696700572968 0 -0.98462224006652832
vn -0.17469696700572968 0 -0.98462224006652832
vn -0.17469717562198639 0 0.98462224006652832
vn -0.17469717562198639 0 0.98462224006652832
vn 0.17469696700572968 0 0.98462224006652832
vn 0.17469696700572968 0 0.98462224006652832
vn 0.17469717562198639 0 -0.98462224006652832
vn 0.17469717562198639 0 -0.98462224006652832
vn -0.98462224006652832 0 0.17469696700572968
vn -0.98462224006652832 0 0.17469696700572968
vn -0.98462224006652832 0 -0.17469717562198639
vn -0.98462224006652832 0 -0.17469717562198639
vn 0.99041575193405151 0 -0.13811816275119781
vn 0.99041575193405151 0 -0.13811816275119781
vn 0.99041575193405151 0 0.13811834156513214
vn 0.99041575193405151 0 0.13811834156513214
vn -0.13811816275119781 0 -0.99041575193405151
vn -0.13811816275119781 0 -0.99041575193405151
vn -0.13811834156513214 0 0.99041575193405151
vn -0.13811834156513214 0 0.99041575193405151
vn 0.13811816275119781 0 0.99041575193405151
vn 0.13811816275119781 0 0.99041575193405151
vn 0.13811834156513214 0 -0.99041575193405151
vn 0.13811834156513214 0 -0.99041575193405151
vn -0.99041575193405151 0 0.13811816275119781
vn -0.99041575193405151 0 0.13811816275119781
vn -0.99041575193405151 0 -0.13811834156513214
vn -0.99041575193405151 0 -0.13811834156513214
vn 0.72007924318313599 0 0.69389182329177856
vn 0.72007924318313599 0 0.69389182329177856
vn 0.72007936239242554 0 -0.69389170408248901
vn 0.72007936239242554 0 -0.69389170408248901
vn 0.69389182329177856 0 -0.72007924318313599
vn 0.69389182329177856 0 -0.72007924318313599
vn 0.69389170408248901 0 0.72007936239242554
vn 0.69389170408248901 0 0.72007936239242554
vn -0.69389182329177856 0 0.72007924318313599
vn -0.69389182329177856 0 0.72007924318313599
vn -0.69389170408248901 0 -0.72007936239242554
vn -0.69389170408248901 0 -0.72007936239242554
vn -0.72007924318313599 0 -0.69389182329177856
vn -0.72007924318313599 0 -0.69389182329177856
vn -0.72007936239242554 0 0.69389170408248901
vn -0.72007936239242554 0 0.69389170408248901
f 10//10 14//14 13//13 9//9
f 14//14 6//6 5//5 13//13
f 6//6 2//2 1//1 5//5
f 2//2 10//10 9//9 1//1
f 46//46 38//38 37//37 45//45
f 38//38 34//34 33//33 37//37
f 34//34 42//42 41//41 33//33
f 42//42 46//46 45//45 41//41
f 78//78 70//70 69//69 77//77
f 70//70 66//66 65//65 69//69
f 66//66 74//74 73//73 65//65
f 74//74 78//78 77//77 73//73
f 106//106 98//98 97//97 105//105
f 98//98 102//102 101//101 97//97
f 102//102 110//110 109//109 101//101
f 110//110 106//106 105//105 109//109
f 138//138 130//130 129//129 137//137
f 130//130 134//134 133//133 129//129
f 134//134 142//142 141//141 133//133
f 142//142 138//138 137//137 141//141
f 152//152 148//148 147//147 151//151
f 148//148 156//156 155//155 147//147
f 156//156 160//160 159//159 155//155
f 160//160 152//152 151//151 159//159
f 116//116 124//124 123//123 115//115
f 124//124 128//128 127//127 123//123
f 128//128 120//120 119//119 127//127
f 120//120 116//116 115//115 119//119
f 84//84 92//92 91//91 83//83
f 92//92 96//96 95//95 91//91
f 96//96 88//88 87//87 95//95
f 88//88 84//84 83//83 87//87
f 56//56 64//64 63//63 55//55
f 64//64 60//60 59//59 63//63
f 60//60 52//52 51//51 59//59
f 52//52 56//56 55//55 51//51
f 24//24 32//32 31//31 23//23
f 32//32 28//28 27//27 31//31
f 28//28 20//20 19//19 27//27
f 20//20 24//24 23//23 19//19
f 12//12 4//4 3//3 11//11
f 4//4 8//8 7//7 3//3
f 8//8 16//16 15//15 7//7
f 16//16 12//12 11//11 15//15
f 22//22 18//18 17//17 21//21
f 18//18 26//26 25//25 17//17
f 26//26 30//30 29//29 25//25
f 30//30 22//22 21//21 29//29
f 54//54 50//50 49//49 53//53
f 50//50 58//58 57//57 49//49
f 58//58 62//62 61//61 57//57
f 62//62 54//54 53//53 61//61
f 82//82 86//86 85//85 81//81
f 86//86 94//94 93//93 85//85
f 94//94 90//90 89//89 93//93
f 90//90 82//82 81//81 89//89
f 114//114 118//118 117//117 113//113
f 118//118 126//126 125//125 117//117
f 126//126 122//122 121//121 125//125
f 122//122 114//114 113//113 121//121
f 150//150 158//158 157//157 149//149
f 158//158 154//154 153//153 157//157
f 154//154 146//146 145//145 153//153
f 146//146 150//150 149//149 145//145
f 140//140 144//144 143//143 139//139
f 144//144 136//136 135//135 143//143
f 136//136 132//132 131//131 135//135
f 132//132 140//140 139//139 131//131
f 108//108 112//112 111//111 107//107
f 112//112 104//104 103//103 111//111
f 104//104 100//100 99//99 103//103
f 100//100 108//108 107//107 99//99
f 80//80 76//76 75//75 79//79
f 76//76 68//68 67//67 75//75
f 68//68 72//72 71//71 67//67
f 72//72 80//80 79//79 71//71
f 48//48 44//44 43//43 47//47
f 44//44 36//36 35//35 43//43
f 36//36 40//40 39//39 35//35
f 40//40 48//48 47//47 39//39
