# Rhino

mtllib Pannelli136.mtl
usemtl diffuse_Black
v 1.2955094647544847 3 -0.3047402558580487
v 1.2955094647544847 0 -0.30474025585804876
v 1.2955094647544845 3 0.30474025585805042
v 1.2955094647544845 0 0.30474025585805042
v 1.2774284418125301 3 -0.31328874165218346
v 1.2774284418125301 0 -0.31328874165218346
v 1.2774284418125299 3 0.31328874165218512
v 1.2774284418125299 0 0.31328874165218512
v 1.2738683179855768 3 -0.38531922511273503
v 1.2738683179855768 0 -0.38531922511273503
v 1.2625030096576095 3 -0.36886231876280867
v 1.2625030096576095 0 -0.36886231876280867
v 1.1674150842216355 3 -0.033806023886932046
v 1.1674150842216355 0 -0.033806023886932081
v 1.1674150842216358 3 0.033806023886933712
v 1.1674150842216358 0 0.033806023886933712
v 1.149334061279681 3 -0.042354509681066799
v 1.149334061279681 0 -0.042354509681066813
v 1.1493340612796812 3 0.042354509681068367
v 1.1493340612796812 0 0.042354509681068367
v 1.0272705841708589 3 -0.55562214950136313
v 1.0272705841708589 0 -0.55562214950136313
v 1.0159052758428917 3 -0.53916524315143666
v 1.0159052758428917 0 -0.53916524315143666
v 0.9933966905532805 3 -0.61413666338775286
v 0.9933966905532805 0 -0.61413666338775286
v 0.973465734299654 3 -0.61247624692913993
v 0.973465734299654 0 -0.61247624692913993
v 0.96851625876517267 3 -0.91279113345627583
v 0.96851625876517267 0 -0.91279113345627583
v 0.94858530251154616 3 -0.9111307169976629
v 0.94858530251154616 0 -0.9111307169976629
v 0.90941666413614364 3 -0.97168550869114512
v 0.90941666413614364 0 -0.97168550869114512
v 0.90782558679785796 3 -0.95174889732151635
v 0.90782558679785796 0 -0.95174889732151635
v 0.61067745524971029 3 -0.9955269317145522
v 0.61067745524971029 0 -0.9955269317145522
v 0.60908637791142461 3 -0.97559032034492366
v 0.60908637791142461 0 -0.97559032034492366
v 0.55204546631480256 3 -1.0291970798834034
v 0.55204546631480256 0 -1.0291970798834034
v 0.53562819332072864 3 -1.0177745955897808
v 0.53562819332072864 0 -1.0177745955897808
v 0.38088579137661671 3 -1.275200929554354
v 0.38088579137661671 0 -1.275200929554354
v 0.36446851838254285 3 -1.2637784452607315
v 0.36446851838254279 0 -1.2637784452607315
v 0.32660192761680068 3 1.2740896516629381
v 0.32660192761680068 0 1.2740896516629381
v 0.31824258668636501 3 1.2922588954339032
v 0.31824258668636507 0 1.2922588954339032
v 0.3088433599353016 3 -1.2785104765395829
v 0.3088433599353016 0 -1.2785104765395829
v 0.3002320317061718 3 -1.2965616545102918
v 0.3002320317061718 0 -1.2965616545102918
v 0.054345754811443173 3 1.1488295033824401
v 0.054345754811443131 0 1.1488295033824401
v 0.045986413881007479 3 1.1669987471534051
v 0.045986413881007479 0 1.1669987471534051
v 0.038356338522383265 3 -1.1494744365157175
v 0.038356338522383265 0 -1.1494744365157175
v 0.029745010293253549 3 -1.1675256144864263
v 0.029745010293253549 0 -1.1675256144864263
v -0.021621952527222217 3 1.1677042935984108
v -0.021621952527222217 0 1.1677042935984108
v -0.03035865228286086 3 1.1497134604498367
v -0.03035865228286086 0 1.1497134604498367
v -0.037866628436686492 3 -1.1672904285438523
v -0.037866628436686423 0 -1.1672904285438523
v -0.046352168361414564 3 -1.1491797794062357
v -0.046352168361414529 0 -1.1491797794062357
v -0.29120473981074502 3 1.2986189573237552
v -0.29120473981074502 0 1.2986189573237552
v -0.29994143956638369 3 1.2806281241751811
v -0.29994143956638369 0 1.2806281241751811
v -0.30924479273362948 3 -1.2944415996776426
v -0.30924479273362954 0 -1.2944415996776426
v -0.31773033265835759 3 -1.276330950540026
v -0.31773033265835759 0 -1.276330950540026
v -0.35566774092187364 3 1.2662834270672301
v -0.3556677409218737 0 1.2662834270672301
v -0.37200515175224819 3 1.2778198479749279
v -0.37200515175224824 0 1.2778198479749279
v -0.37325165600681848 3 -1.2612122981028078
v -0.37325165600681848 0 -1.2612122981028078
v -0.38974799658839382 3 -1.272520292947902
v -0.38974799658839382 0 -1.272520292947902
v -0.52853469365772221 3 1.0214762682060252
v -0.5285346936577221 0 1.0214762682060252
v -0.5426957692256571 3 -1.0140236639115194
v -0.5426957692256571 0 -1.0140236639115194
v -0.54487210448809675 3 1.033012689113723
v -0.54487210448809664 0 1.033012689113723
v -0.55919210980723244 3 -1.0253316587566137
v -0.55919210980723244 0 -1.0253316587566137
v -0.60228457163063798 3 0.97980405371873647
v -0.60228457163063798 0 0.97980405371873647
v -0.60373691381264505 3 0.99975125157172751
v -0.60373691381264505 0 0.99975125157172751
v -0.6158587051466593 3 -0.97132936957710159
v -0.6158587051466593 0 -0.97132936957710159
v -0.61758844063500073 3 -0.99125442955543985
v -0.61758844063500073 0 -0.99125442955543985
v -0.90118241317564984 3 0.95804150107420194
v -0.90118241317564984 0 0.95804150107420194
v -0.9026347553576568 3 0.97798869892719309
v -0.9026347553576568 0 0.97798869892719309
v -0.91442482275736925 3 -0.94541023007092073
v -0.91442482275736925 0 -0.94541023007092073
v -0.91615455824571068 3 -0.965335290049259
v -0.91615455824571068 0 -0.965335290049259
v -0.94222371841717534 3 0.91770786421916906
v -0.94222371841717534 0 0.91770786421916906
v -0.95490097622217496 3 -0.90450947214915067
v -0.95490097622217496 0 -0.90450947214915067
v -0.96214264103228264 3 0.91950689780789829
v -0.96214264103228264 0 0.91950689780789818
v -0.96918125202671335 3 0.61923371163713425
v -0.96918125202671335 0 0.61923371163713437
v -0.97484300148009406 3 -0.90603119111549502
v -0.97484300148009406 0 -0.90603119111549502
v -0.97770310200598398 3 -0.60568913911002731
v -0.97770310200598398 0 -0.60568913911002731
v -0.98910017464182065 3 0.62103274522586349
v -0.98910017464182065 0 0.62103274522586349
v -0.99764512726390309 3 -0.60721085807637176
v -0.99764512726390309 0 -0.60721085807637176
v -1.0121297825626703 3 0.54621972882495884
v -1.0121297825626703 0 0.54621972882495884
v -1.0196316005339143 3 -0.53208466253089581
v -1.0196316005339143 0 -0.53208466253089581
v -1.0233803271011523 3 0.56275530403683593
v -1.0233803271011523 0 0.56275530403683593
v -1.0311111225841612 3 -0.548462103524467
v -1.0311111225841612 0 -0.548462103524467
v -1.1490115927621507 3 0.050349266192814227
v -1.1490115927621507 0 0.050349266192814247
v -1.1496009034158412 3 -0.034357703262172287
v -1.1496009034158412 0 -0.034357703262172287
v -1.1671516489613767 3 0.041926774810276055
v -1.1671516489613767 0 0.041926774810276082
v -1.1676220180008368 3 -0.025683636792835883
v -1.1676220180008368 0 -0.025683636792835883
v -1.2599063262135946 3 0.37763647700475328
v -1.2599063262135946 0 0.37763647700475328
v -1.2650385894797418 3 -0.36007030802983786
v -1.2650385894797418 0 -0.36007030802983786
v -1.2711568707520766 3 0.39417205221663038
v -1.2711568707520766 0 0.39417205221663038
v -1.2752180160014246 3 0.32216807921174867
v -1.2752180160014246 0 0.32216807921174867
v -1.2765181115299886 3 -0.37644774902340905
v -1.2765181115299886 0 -0.37644774902340905
v -1.2795770416288514 3 -0.30439424129564946
v -1.2795770416288514 0 -0.30439424129564946
v -1.2933580722006506 3 0.31374558782921047
v -1.2933580722006506 0 0.31374558782921047
v -1.297598156213847 3 -0.29572017482631302
v -1.297598156213847 0 -0.29572017482631302
vn 0.94149529933929443 0 -0.33702608942985535
vn 0.94149529933929443 0 -0.33702608942985535
vn 0.94149529933929443 0 0.33702608942985535
vn 0.94149529933929443 0 0.33702608942985535
vn -0.33702608942985535 0 -0.94149529933929443
vn -0.33702608942985535 0 -0.94149529933929443
vn -0.33702608942985535 0 0.94149529933929443
vn -0.33702608942985535 0 0.94149529933929443
vn 0.98366385698318481 0 -0.18001517653465271
vn 0.98366385698318481 0 -0.18001517653465271
vn 0.18001517653465271 0 0.98366385698318481
vn 0.18001517653465271 0 0.98366385698318481
vn 0.33702608942985535 0 0.94149529933929443
vn 0.33702608942985535 0 0.94149529933929443
vn 0.33702608942985535 0 -0.94149529933929443
vn 0.33702608942985535 0 -0.94149529933929443
vn -0.94149529933929443 0 0.33702608942985535
vn -0.94149529933929443 0 0.33702608942985535
vn -0.94149529933929443 0 -0.33702608942985535
vn -0.94149529933929443 0 -0.33702608942985535
vn -0.18001517653465271 0 -0.98366385698318481
vn -0.18001517653465271 0 -0.98366385698318481
vn -0.98366385698318481 0 0.18001517653465271
vn -0.98366385698318481 0 0.18001517653465271
vn 0.76337027549743652 0 0.64596116542816162
vn 0.76337027549743652 0 0.64596116542816162
vn -0.64596116542816162 0 0.76337027549743652
vn -0.64596116542816162 0 0.76337027549743652
vn 0.64596116542816162 0 -0.76337027549743652
vn 0.64596116542816162 0 -0.76337027549743652
vn -0.76337027549743652 0 -0.64596116542816162
vn -0.76337027549743652 0 -0.64596116542816162
vn 0.76111871004104614 0 -0.6486126184463501
vn 0.76111871004104614 0 -0.6486126184463501
vn 0.6486126184463501 0 0.76111871004104614
vn 0.6486126184463501 0 0.76111871004104614
vn -0.6486126184463501 0 -0.76111871004104614
vn -0.6486126184463501 0 -0.76111871004104614
vn -0.76111871004104614 0 0.6486126184463501
vn -0.76111871004104614 0 0.6486126184463501
vn 0.98428404331207275 0 0.17659248411655426
vn 0.98428404331207275 0 0.17659248411655426
vn -0.17659248411655426 0 0.98428404331207275
vn -0.17659248411655426 0 0.98428404331207275
vn 0.17659248411655426 0 -0.98428404331207275
vn 0.17659248411655426 0 -0.98428404331207275
vn -0.98428404331207275 0 -0.17659248411655426
vn -0.98428404331207275 0 -0.17659248411655426
vn 0.93792712688446045 0 -0.34683242440223694
vn 0.93792712688446045 0 -0.34683242440223694
vn 0.34683242440223694 0 0.93792712688446045
vn 0.34683242440223694 0 0.93792712688446045
vn 0.94266194105148315 0 0.33374911546707153
vn 0.94266194105148315 0 0.33374911546707153
vn 0.33374911546707153 0 -0.94266194105148315
vn 0.33374911546707153 0 -0.94266194105148315
vn -0.34683242440223694 0 -0.93792712688446045
vn -0.34683242440223694 0 -0.93792712688446045
vn -0.93792712688446045 0 0.34683242440223694
vn -0.93792712688446045 0 0.34683242440223694
vn -0.33374911546707153 0 0.94266194105148315
vn -0.33374911546707153 0 0.94266194105148315
vn -0.94266194105148315 0 -0.33374911546707153
vn -0.94266194105148315 0 -0.33374911546707153
vn 0.94496101140975952 0 0.32718303799629211
vn 0.94496101140975952 0 0.32718303799629211
vn 0.32718303799629211 0 -0.94496101140975952
vn 0.32718303799629211 0 -0.94496101140975952
vn 0.94031727313995361 0 -0.34029901027679443
vn 0.94031727313995361 0 -0.34029901027679443
vn 0.34029901027679443 0 0.94031727313995361
vn 0.34029901027679443 0 0.94031727313995361
vn -0.32718303799629211 0 0.94496101140975952
vn -0.32718303799629211 0 0.94496101140975952
vn -0.94496101140975952 0 -0.32718303799629211
vn -0.94496101140975952 0 -0.32718303799629211
vn -0.34029901027679443 0 -0.94031727313995361
vn -0.34029901027679443 0 -0.94031727313995361
vn -0.94031727313995361 0 0.34029901027679443
vn -0.94031727313995361 0 0.34029901027679443
vn 0.98548877239227295 0 0.16974066197872162
vn 0.98548877239227295 0 0.16974066197872162
vn -0.16974066197872162 0 0.98548877239227295
vn -0.16974066197872162 0 0.98548877239227295
vn 0.98303169012069702 0 -0.18343567848205566
vn 0.98303169012069702 0 -0.18343567848205566
vn -0.18343567848205566 0 -0.98303169012069702
vn -0.18343567848205566 0 -0.98303169012069702
vn 0.16974066197872162 0 -0.98548877239227295
vn 0.16974066197872162 0 -0.98548877239227295
vn 0.18343567848205566 0 0.98303169012069702
vn 0.18343567848205566 0 0.98303169012069702
vn -0.98548877239227295 0 -0.16974066197872162
vn -0.98548877239227295 0 -0.16974066197872162
vn -0.98303169012069702 0 0.18343567848205566
vn -0.98303169012069702 0 0.18343567848205566
vn 0.75658798217773438 0 -0.653891921043396
vn 0.75658798217773438 0 -0.653891921043396
vn 0.653891921043396 0 0.75658798217773438
vn 0.653891921043396 0 0.75658798217773438
vn 0.76561266183853149 0 0.64330184459686279
vn 0.76561266183853149 0 0.64330184459686279
vn 0.64330184459686279 0 -0.76561266183853149
vn 0.64330184459686279 0 -0.76561266183853149
vn -0.653891921043396 0 -0.75658798217773438
vn -0.653891921043396 0 -0.75658798217773438
vn -0.75658798217773438 0 0.653891921043396
vn -0.75658798217773438 0 0.653891921043396
vn -0.64330184459686279 0 0.76561266183853149
vn -0.64330184459686279 0 0.76561266183853149
vn -0.76561266183853149 0 -0.64330184459686279
vn -0.76561266183853149 0 -0.64330184459686279
vn 0.76784569025039673 0 0.64063483476638794
vn 0.76784569025039673 0 0.64063483476638794
vn 0.75885796546936035 0 -0.65125614404678345
vn 0.75885796546936035 0 -0.65125614404678345
vn -0.64063483476638794 0 0.76784569025039673
vn -0.64063483476638794 0 0.76784569025039673
vn 0.64063483476638794 0 -0.76784569025039673
vn 0.64063483476638794 0 -0.76784569025039673
vn -0.65125614404678345 0 -0.75885796546936035
vn -0.65125614404678345 0 -0.75885796546936035
vn 0.65125614404678345 0 0.75885796546936035
vn 0.65125614404678345 0 0.75885796546936035
vn -0.76784569025039673 0 -0.64063483476638794
vn -0.76784569025039673 0 -0.64063483476638794
vn -0.75885796546936035 0 0.65125614404678345
vn -0.75885796546936035 0 0.65125614404678345
vn 0.98238766193389893 0 -0.1868540346622467
vn 0.98238766193389893 0 -0.1868540346622467
vn 0.98489236831665039 0 0.17316757142543793
vn 0.98489236831665039 0 0.17316757142543793
vn 0.1868540346622467 0 0.98238766193389893
vn 0.1868540346622467 0 0.98238766193389893
vn 0.17316757142543793 0 -0.98489236831665039
vn 0.17316757142543793 0 -0.98489236831665039
vn 0.93912786245346069 0 -0.34356778860092163
vn 0.93912786245346069 0 -0.34356778860092163
vn 0.94381719827651978 0 0.33046805858612061
vn 0.94381719827651978 0 0.33046805858612061
vn -0.34356778860092163 0 -0.93912786245346069
vn -0.34356778860092163 0 -0.93912786245346069
vn -0.33046805858612061 0 0.94381719827651978
vn -0.33046805858612061 0 0.94381719827651978
vn -0.1868540346622467 0 -0.98238766193389893
vn -0.1868540346622467 0 -0.98238766193389893
vn -0.17316757142543793 0 0.98489236831665039
vn -0.17316757142543793 0 0.98489236831665039
vn -0.98238766193389893 0 0.1868540346622467
vn -0.98238766193389893 0 0.1868540346622467
vn 0.34356778860092163 0 0.93912786245346069
vn 0.34356778860092163 0 0.93912786245346069
vn -0.98489236831665039 0 -0.17316757142543793
vn -0.98489236831665039 0 -0.17316757142543793
vn 0.33046805858612061 0 -0.94381719827651978
vn 0.33046805858612061 0 -0.94381719827651978
vn -0.93912786245346069 0 0.34356778860092163
vn -0.93912786245346069 0 0.34356778860092163
vn -0.94381719827651978 0 -0.33046805858612061
vn -0.94381719827651978 0 -0.33046805858612061
f 6//6 18//18 17//17 5//5
f 18//18 14//14 13//13 17//17
f 14//14 2//2 1//1 13//13
f 2//2 6//6 5//5 1//1
f 32//32 28//28 27//27 31//31
f 28//28 26//26 25//25 27//27
f 26//26 30//30 29//29 25//25
f 30//30 32//32 31//31 29//29
f 48//48 44//44 43//43 47//47
f 44//44 42//42 41//41 43//43
f 42//42 46//46 45//45 41//41
f 46//46 48//48 47//47 45//45
f 80//80 72//72 71//71 79//79
f 72//72 70//70 69//69 71//71
f 70//70 78//78 77//77 69//69
f 78//78 80//80 79//79 77//77
f 110//110 102//102 101//101 109//109
f 102//102 104//104 103//103 101//101
f 104//104 112//112 111//111 103//103
f 112//112 110//110 109//109 111//111
f 148//148 132//132 131//131 147//147
f 132//132 136//136 135//135 131//131
f 136//136 154//154 153//153 135//135
f 154//154 148//148 147//147 153//153
f 152//152 138//138 137//137 151//151
f 138//138 142//142 141//141 137//137
f 142//142 158//158 157//157 141//141
f 158//158 152//152 151//151 157//157
f 114//114 120//120 119//119 113//113
f 120//120 126//126 125//125 119//119
f 126//126 118//118 117//117 125//125
f 118//118 114//114 113//113 117//117
f 82//82 90//90 89//89 81//81
f 90//90 94//94 93//93 89//89
f 94//94 84//84 83//83 93//93
f 84//84 82//82 81//81 83//83
f 50//50 58//58 57//57 49//49
f 58//58 60//60 59//59 57//57
f 60//60 52//52 51//51 59//59
f 52//52 50//50 49//49 51//51
f 8//8 4//4 3//3 7//7
f 4//4 16//16 15//15 3//3
f 16//16 20//20 19//19 15//15
f 20//20 8//8 7//7 19//19
f 12//12 10//10 9//9 11//11
f 10//10 22//22 21//21 9//9
f 22//22 24//24 23//23 21//21
f 24//24 12//12 11//11 23//23
f 36//36 34//34 33//33 35//35
f 34//34 38//38 37//37 33//33
f 38//38 40//40 39//39 37//37
f 40//40 36//36 35//35 39//39
f 54//54 56//56 55//55 53//53
f 56//56 64//64 63//63 55//55
f 64//64 62//62 61//61 63//63
f 62//62 54//54 53//53 61//61
f 86//86 88//88 87//87 85//85
f 88//88 96//96 95//95 87//87
f 96//96 92//92 91//91 95//95
f 92//92 86//86 85//85 91//91
f 116//116 122//122 121//121 115//115
f 122//122 128//128 127//127 121//121
f 128//128 124//124 123//123 127//127
f 124//124 116//116 115//115 123//123
f 156//156 160//160 159//159 155//155
f 160//160 144//144 143//143 159//159
f 144//144 140//140 139//139 143//143
f 140//140 156//156 155//155 139//139
f 146//146 150//150 149//149 145//145
f 150//150 134//134 133//133 149//149
f 134//134 130//130 129//129 133//133
f 130//130 146//146 145//145 129//129
f 106//106 108//108 107//107 105//105
f 108//108 100//100 99//99 107//107
f 100//100 98//98 97//97 99//99
f 98//98 106//106 105//105 97//97
f 76//76 74//74 73//73 75//75
f 74//74 66//66 65//65 73//73
f 66//66 68//68 67//67 65//65
f 68//68 76//76 75//75 67//67
