# Rhino

mtllib Pannelli82.mtl
usemtl diffuse_Black
v 1.4248500018224555 3 -0.20560626808307239
v 1.4248500018224555 0 -0.20560626808307239
v 1.4248500018224566 3 0.20560626808306051
v 1.4248500018224566 0 0.20560626808306051
v 1.4131673969619094 3 -0.22183946689514716
v 1.4131673969619094 0 -0.22183946689514711
v 1.4131673969619105 3 0.22183946689513537
v 1.4131673969619105 0 0.22183946689513537
v 1.4121067966422376 3 -0.28004617484496408
v 1.4121067966422376 0 -0.28004617484496408
v 1.4064890354160895 3 -0.26085136411898946
v 1.4064890354160895 0 -0.26085136411898946
v 1.2753260402238875 3 -0.66784351183144597
v 1.2753260402238875 0 -0.66784351183144608
v 1.2589090498044546 3 -0.67926640225236168
v 1.2589090498044546 0 -0.67926640225236179
v 1.2396345215802183 3 -0.71383548091629856
v 1.2396345215802183 0 -0.71383548091629856
v 1.2385476678299736 3 -0.73380592780477805
v 1.2385476678299736 0 -0.73380592780477805
v 1.1719005882467481 3 -0.023565249382942743
v 1.1719005882467481 0 -0.023565249382942795
v 1.1719005882467481 3 0.023565249382933251
v 1.1719005882467481 0 0.023565249382933251
v 1.1602179833862021 3 -0.039798448195017502
v 1.1602179833862021 0 -0.03979844819501753
v 1.1602179833862021 3 0.0397984481950081
v 1.1602179833862021 0 0.0397984481950081
v 1.1130088694228391 3 -0.36758341406767536
v 1.1130088694228391 0 -0.36758341406767536
v 1.107391108196691 3 -0.34838860334170074
v 1.107391108196691 0 -0.34838860334170074
v 1.0973319512732278 3 -0.41203021542897283
v 1.0973319512732278 0 -0.41203021542897283
v 1.0809149608537949 3 -0.42345310584988849
v 1.0809149608537949 0 -0.42345310584988849
v 0.98056325137919287 3 -1.0540242763870122
v 0.98056325137919298 0 -1.0540242763870122
v 0.96128150274339219 3 -1.0593359775783255
v 0.9612815027433923 0 -1.0593359775783255
v 0.93160586211448371 3 -1.0855253836656007
v 0.93160586211448371 0 -1.0855253836656007
v 0.92845045442469254 3 -0.69689987740711945
v 0.92845045442469254 0 -0.69689987740711945
v 0.92736360067444801 3 -0.71687032429559905
v 0.92736360067444801 0 -0.71687032429559905
v 0.92393816829645403 3 -1.1039971586618742
v 0.92393816829645403 0 -1.1039971586618742
v 0.89779510956153008 3 -0.75357166278925003
v 0.89779510956153008 0 -0.75357166278925003
v 0.8785133609257294 3 -0.75888336398056355
v 0.8785133609257294 0 -0.75888336398056355
v 0.64377444286677243 3 -0.96604562633607172
v 0.64377444286677243 0 -0.96604562633607172
v 0.63610674904874287 3 -0.98451740133234511
v 0.63610674904874287 0 -0.98451740133234511
v 0.59601405365882221 3 -1.0092935933378024
v 0.59601405365882221 0 -1.0092935933378024
v 0.57606342336746397 3 -1.0078891892016877
v 0.57606342336746397 0 -1.0078891892016877
v 0.57413030746892713 3 -1.3201688737484059
v 0.57413030746892713 0 -1.3201688737484059
v 0.55417967717756889 3 -1.3187644696122911
v 0.55417967717756889 0 -1.3187644696122911
v 0.51748249541186808 3 -1.3335916570865034
v 0.51748249541186808 0 -1.3335916570865034
v 0.50410718674273414 3 -1.3484611264114452
v 0.50410718674273414 0 -1.3484611264114452
v 0.28578302635045905 3 -1.1251745408164231
v 0.28578302635045905 0 -1.1251745408164231
v 0.2724077176813251 3 -1.1400440101413654
v 0.2724077176813251 0 -1.1400440101413654
v 0.22635672185068353 3 -1.150073451647575
v 0.22635672185068351 0 -1.150073451647575
v 0.20800926117140192 3 -1.1421128809003094
v 0.20800926117140195 0 -1.1421128809003094
v 0.10231328928020766 3 -1.4359677767990351
v 0.10231328928020765 0 -1.4359677767990351
v 0.083965828600926051 3 -1.4280072060517695
v 0.083965828600926079 0 -1.4280072060517695
v 0.044426315935489541 3 -1.4297836001859932
v 0.044426315935489541 0 -1.4297836001859932
v 0.026866621835720833 3 -1.4393573738997671
v 0.026866621835720833 0 -1.4393573738997671
v -0.10475441391575196 3 -1.1561644339005779
v -0.10475441391575196 0 -1.1561644339005779
v -0.12231410801552065 3 -1.1657382076143519
v -0.12231410801552065 0 -1.1657382076143519
v -0.16907894724844277 3 -1.1598787088781797
v -0.1690789472484428 0 -1.1598787088781797
v -0.18373376190886484 3 -1.1462685506399859
v -0.18373376190886484 0 -1.1462685506399859
v -0.38115554317252748 3 -1.3882333799031612
v -0.38115554317252748 0 -1.3882333799031612
v -0.39581035783294949 3 -1.3746232216649674
v -0.39581035783294954 0 -1.3746232216649674
v -0.43368929604820583 3 -1.3631465201516788
v -0.43368929604820583 0 -1.3631465201516788
v -0.45343361293171519 3 -1.3663343016378493
v -0.45343361293171519 0 -1.3663343016378493
v -0.48336203565233565 3 -1.0554860624098767
v -0.48336203565233565 0 -1.0554860624098767
v -0.50310635253584501 3 -1.0586738438960472
v -0.50310635253584501 0 -1.0586738438960472
v -0.54525928301644488 3 -1.0375927062175925
v -0.54525928301644488 0 -1.0375927062175925
v -0.55455250738206752 3 -1.0198829354429553
v -0.55455250738206752 0 -1.0198829354429553
v -0.80692260825854856 3 -0.83460505014809083
v -0.80692260825854856 0 -0.83460505014809083
v -0.82121697834588125 3 -1.1824018520135018
v -0.82121697834588125 0 -1.1824018520135018
v -0.82660299238902502 3 -0.83104380310851456
v -0.82660299238902502 0 -0.83104380310851456
v -0.83051020271150389 3 -1.1646920812388646
v -0.83051020271150389 0 -1.1646920812388646
v -0.85934348311982145 3 -0.79714182410098633
v -0.85934348311982145 0 -0.79714182410098633
v -0.86221677056740686 3 -0.77734929472135561
v -0.86221677056740686 0 -0.77734929472135561
v -0.86241477346193529 3 -1.141269293121925
v -0.86241477346193529 0 -1.141269293121925
v -0.88209515759241186 3 -1.1377080460823488
v -0.88209515759241186 0 -1.1377080460823488
v -1.0385878618596833 3 -0.51867614042792376
v -1.0385878618596833 0 -0.51867614042792376
v -1.0559630385977714 3 -0.50877143279366177
v -1.0559630385977714 0 -0.50877143279366177
v -1.0716886118626008 3 -0.44628825287642199
v -1.0716886118626008 0 -0.44628825287642204
v -1.0755624818916127 3 -0.46590949470761911
v -1.0755624818916127 0 -0.46590949470761917
v -1.1519749040145271 3 -0.14367848124265981
v -1.1519749040145271 0 -0.14367848124265981
v -1.159112606371393 3 -0.064402260848462844
v -1.159112606371393 0 -0.064402260848462844
v -1.1650661242301679 3 -0.12855829760403967
v -1.1650661242301679 0 -0.12855829760403967
v -1.1677551989939325 3 -0.84191404572624873
v -1.1677551989939325 0 -0.84191404572624873
v -1.1692924632883277 3 -0.081617675834768963
v -1.1692924632883277 0 -0.081617675834769018
v -1.170628486441518 3 -0.82212151634661801
v -1.170628486441518 0 -0.82212151634661801
v -1.1929252796865277 3 -0.78942011501686449
v -1.1929252796865277 0 -0.78942011501686449
v -1.2103004564246156 3 -0.7795154073826025
v -1.2103004564246156 0 -0.7795154073826025
v -1.3774312860135935 3 -0.38592472480959256
v -1.3774312860135935 0 -0.38592472480959256
v -1.3813051560426055 3 -0.40554596664078968
v -1.3813051560426055 0 -0.40554596664078968
v -1.3875810608060699 3 -0.34766886630919636
v -1.3875810608060699 0 -0.34766886630919636
v -1.4006722810217107 3 -0.33254868267057625
v -1.4006722810217107 0 -0.33254868267057625
v -1.4273671368345735 3 0.094222595979379653
v -1.4273671368345735 0 0.094222595979379695
v -1.4375469937515082 3 0.077007180993073535
v -1.4375469937515082 0 0.077007180993073521
vn 0.98697268962860107 0 0.16088780760765076
vn 0.98697268962860107 0 0.16088780760765076
vn 0.98697268962860107 0 -0.16088780760765076
vn 0.98697268962860107 0 -0.16088780760765076
vn 0.16088780760765076 0 -0.98697268962860107
vn 0.16088780760765076 0 -0.98697268962860107
vn 0.16088780760765076 0 0.98697268962860107
vn 0.16088780760765076 0 0.98697268962860107
vn 0.87725692987442017 0 -0.48002117872238159
vn 0.87725692987442017 0 -0.48002117872238159
vn 0.48002117872238159 0 0.87725692987442017
vn 0.48002117872238159 0 0.87725692987442017
vn 0.98428839445114136 0 -0.17656812071800232
vn 0.98428839445114136 0 -0.17656812071800232
vn -0.17656812071800232 0 -0.98428839445114136
vn -0.17656812071800232 0 -0.98428839445114136
vn 0.74448800086975098 0 0.66763585805892944
vn 0.74448800086975098 0 0.66763585805892944
vn 0.66763585805892944 0 -0.74448800086975098
vn 0.66763585805892944 0 -0.74448800086975098
vn -0.16088780760765076 0 0.98697268962860107
vn -0.16088780760765076 0 0.98697268962860107
vn -0.16088780760765076 0 -0.98697268962860107
vn -0.16088780760765076 0 -0.98697268962860107
vn -0.98697268962860107 0 -0.16088780760765076
vn -0.98697268962860107 0 -0.16088780760765076
vn -0.98697268962860107 0 0.16088780760765076
vn -0.98697268962860107 0 0.16088780760765076
vn -0.48002117872238159 0 -0.87725692987442017
vn -0.48002117872238159 0 -0.87725692987442017
vn -0.87725692987442017 0 0.48002117872238159
vn -0.87725692987442017 0 0.48002117872238159
vn 0.17656812071800232 0 0.98428839445114136
vn 0.17656812071800232 0 0.98428839445114136
vn -0.98428839445114136 0 0.17656812071800232
vn -0.98428839445114136 0 0.17656812071800232
vn 0.86950975656509399 0 -0.49391576647758484
vn 0.86950975656509399 0 -0.49391576647758484
vn -0.49391576647758484 0 -0.86950975656509399
vn -0.49391576647758484 0 -0.86950975656509399
vn 0.92416977882385254 0 0.38198193907737732
vn 0.92416977882385254 0 0.38198193907737732
vn -0.66763585805892944 0 0.74448800086975098
vn -0.66763585805892944 0 0.74448800086975098
vn -0.74448800086975098 0 -0.66763585805892944
vn -0.74448800086975098 0 -0.66763585805892944
vn 0.38198193907737732 0 -0.92416977882385254
vn 0.38198193907737732 0 -0.92416977882385254
vn 0.49391576647758484 0 0.86950975656509399
vn 0.49391576647758484 0 0.86950975656509399
vn -0.86950975656509399 0 0.49391576647758484
vn -0.86950975656509399 0 0.49391576647758484
vn -0.38198193907737732 0 0.92416977882385254
vn -0.38198193907737732 0 0.92416977882385254
vn -0.92416977882385254 0 -0.38198193907737732
vn -0.92416977882385254 0 -0.38198193907737732
vn 0.75501447916030884 0 0.65570807456970215
vn 0.75501447916030884 0 0.65570807456970215
vn -0.65570807456970215 0 0.75501447916030884
vn -0.65570807456970215 0 0.75501447916030884
vn 0.65570807456970215 0 -0.75501447916030884
vn 0.65570807456970215 0 -0.75501447916030884
vn -0.75501447916030884 0 -0.65570807456970215
vn -0.75501447916030884 0 -0.65570807456970215
vn 0.9986037015914917 0 0.052826568484306335
vn 0.9986037015914917 0 0.052826568484306335
vn 0.052826568484306335 0 -0.9986037015914917
vn 0.052826568484306335 0 -0.9986037015914917
vn -0.052826568484306335 0 0.9986037015914917
vn -0.052826568484306335 0 0.9986037015914917
vn -0.9986037015914917 0 -0.052826568484306335
vn -0.9986037015914917 0 -0.052826568484306335
vn 0.93012934923171997 0 0.3672320544719696
vn 0.93012934923171997 0 0.3672320544719696
vn -0.3672320544719696 0 0.93012934923171997
vn -0.3672320544719696 0 0.93012934923171997
vn 0.3672320544719696 0 -0.93012934923171997
vn 0.3672320544719696 0 -0.93012934923171997
vn -0.93012934923171997 0 -0.3672320544719696
vn -0.93012934923171997 0 -0.3672320544719696
vn 0.95931297540664673 0 -0.28234493732452393
vn 0.95931297540664673 0 -0.28234493732452393
vn -0.28234493732452393 0 -0.95931297540664673
vn -0.28234493732452393 0 -0.95931297540664673
vn 0.28234493732452393 0 0.95931297540664673
vn 0.28234493732452393 0 0.95931297540664673
vn -0.95931297540664673 0 0.28234493732452393
vn -0.95931297540664673 0 0.28234493732452393
vn 0.9993177056312561 0 0.036934211850166321
vn 0.9993177056312561 0 0.036934211850166321
vn -0.036934211850166321 0 0.9993177056312561
vn -0.036934211850166321 0 0.9993177056312561
vn 0.036934211850166321 0 -0.9993177056312561
vn 0.036934211850166321 0 -0.9993177056312561
vn -0.9993177056312561 0 -0.036934211850166321
vn -0.9993177056312561 0 -0.036934211850166321
vn 0.8107721209526062 0 -0.58536189794540405
vn 0.8107721209526062 0 -0.58536189794540405
vn -0.58536189794540405 0 -0.8107721209526062
vn -0.58536189794540405 0 -0.8107721209526062
vn 0.58536189794540405 0 0.8107721209526062
vn 0.58536189794540405 0 0.8107721209526062
vn -0.8107721209526062 0 0.58536189794540405
vn -0.8107721209526062 0 0.58536189794540405
vn 0.9547000527381897 0 -0.29756984114646912
vn 0.9547000527381897 0 -0.29756984114646912
vn 0.29756984114646912 0 0.9547000527381897
vn 0.29756984114646912 0 0.9547000527381897
vn 0.82171577215194702 0 0.56989753246307373
vn 0.82171577215194702 0 0.56989753246307373
vn -0.29756984114646912 0 -0.9547000527381897
vn -0.29756984114646912 0 -0.9547000527381897
vn -0.56989753246307373 0 0.82171577215194702
vn -0.56989753246307373 0 0.82171577215194702
vn -0.9547000527381897 0 0.29756984114646912
vn -0.9547000527381897 0 0.29756984114646912
vn 0.80135762691497803 0 -0.59818553924560547
vn 0.80135762691497803 0 -0.59818553924560547
vn 0.59818553924560547 0 0.80135762691497803
vn 0.59818553924560547 0 0.80135762691497803
vn 0.56989753246307373 0 -0.82171577215194702
vn 0.56989753246307373 0 -0.82171577215194702
vn -0.82171577215194702 0 -0.56989753246307373
vn -0.82171577215194702 0 -0.56989753246307373
vn 0.96448957920074463 0 0.26412096619606018
vn 0.96448957920074463 0 0.26412096619606018
vn -0.26412096619606018 0 0.96448957920074463
vn -0.26412096619606018 0 0.96448957920074463
vn 0.83067762851715088 0 0.55675369501113892
vn 0.83067762851715088 0 0.55675369501113892
vn 0.55675369501113892 0 -0.83067762851715088
vn 0.55675369501113892 0 -0.83067762851715088
vn 0.99742376804351807 0 -0.071734696626663208
vn 0.99742376804351807 0 -0.071734696626663208
vn 0.96856909990310669 0 0.24874454736709595
vn 0.96856909990310669 0 0.24874454736709595
vn 0.071734696626663208 0 0.99742376804351807
vn 0.071734696626663208 0 0.99742376804351807
vn -0.59818553924560547 0 -0.80135762691497803
vn -0.59818553924560547 0 -0.80135762691497803
vn 0.24874454736709595 0 -0.96856909990310669
vn 0.24874454736709595 0 -0.96856909990310669
vn -0.80135762691497803 0 0.59818553924560547
vn -0.80135762691497803 0 0.59818553924560547
vn 0.26412096619606018 0 -0.96448957920074463
vn 0.26412096619606018 0 -0.96448957920074463
vn -0.96448957920074463 0 -0.26412096619606018
vn -0.96448957920074463 0 -0.26412096619606018
vn -0.55675369501113892 0 0.83067762851715088
vn -0.55675369501113892 0 0.83067762851715088
vn -0.83067762851715088 0 -0.55675369501113892
vn -0.83067762851715088 0 -0.55675369501113892
vn -0.071734696626663208 0 -0.99742376804351807
vn -0.071734696626663208 0 -0.99742376804351807
vn -0.99742376804351807 0 0.071734696626663208
vn -0.99742376804351807 0 0.071734696626663208
vn -0.24874454736709595 0 0.96856909990310669
vn -0.24874454736709595 0 0.96856909990310669
vn -0.96856909990310669 0 -0.24874454736709595
vn -0.96856909990310669 0 -0.24874454736709595
f 6//6 26//26 25//25 5//5
f 26//26 22//22 21//21 25//25
f 22//22 2//2 1//1 21//21
f 2//2 6//6 5//5 1//1
f 16//16 36//36 35//35 15//15
f 36//36 34//34 33//33 35//35
f 34//34 14//14 13//13 33//33
f 14//14 16//16 15//15 13//13
f 40//40 52//52 51//51 39//39
f 52//52 50//50 49//49 51//51
f 50//50 38//38 37//37 49//49
f 38//38 40//40 39//39 37//37
f 64//64 60//60 59//59 63//63
f 60//60 58//58 57//57 59//59
f 58//58 62//62 61//61 57//57
f 62//62 64//64 63//63 61//61
f 80//80 76//76 75//75 79//79
f 76//76 74//74 73//73 75//75
f 74//74 78//78 77//77 73//73
f 78//78 80//80 79//79 77//77
f 96//96 92//92 91//91 95//95
f 92//92 90//90 89//89 91//91
f 90//90 94//94 93//93 89//89
f 94//94 96//96 95//95 93//93
f 116//116 108//108 107//107 115//115
f 108//108 106//106 105//105 107//107
f 106//106 112//112 111//111 105//105
f 112//112 116//116 115//115 111//111
f 144//144 120//120 119//119 143//143
f 120//120 118//118 117//117 119//119
f 118//118 140//140 139//139 117//117
f 140//140 144//144 143//143 139//139
f 150//150 130//130 129//129 149//149
f 130//130 132//132 131//131 129//129
f 132//132 152//152 151//151 131//131
f 152//152 150//150 149//149 151//151
f 158//158 136//136 135//135 157//157
f 136//136 142//142 141//141 135//135
f 142//142 160//160 159//159 141//141
f 160//160 158//158 157//157 159//159
f 8//8 4//4 3//3 7//7
f 4//4 24//24 23//23 3//3
f 24//24 28//28 27//27 23//23
f 28//28 8//8 7//7 27//27
f 12//12 10//10 9//9 11//11
f 10//10 30//30 29//29 9//9
f 30//30 32//32 31//31 29//29
f 32//32 12//12 11//11 31//31
f 18//18 20//20 19//19 17//17
f 20//20 46//46 45//45 19//19
f 46//46 44//44 43//43 45//45
f 44//44 18//18 17//17 43//43
f 42//42 48//48 47//47 41//41
f 48//48 56//56 55//55 47//47
f 56//56 54//54 53//53 55//55
f 54//54 42//42 41//41 53//53
f 66//66 68//68 67//67 65//65
f 68//68 72//72 71//71 67//67
f 72//72 70//70 69//69 71//71
f 70//70 66//66 65//65 69//69
f 82//82 84//84 83//83 81//81
f 84//84 88//88 87//87 83//83
f 88//88 86//86 85//85 87//87
f 86//86 82//82 81//81 85//85
f 98//98 100//100 99//99 97//97
f 100//100 104//104 103//103 99//99
f 104//104 102//102 101//101 103//103
f 102//102 98//98 97//97 101//101
f 122//122 124//124 123//123 121//121
f 124//124 114//114 113//113 123//123
f 114//114 110//110 109//109 113//113
f 110//110 122//122 121//121 109//109
f 146//146 148//148 147//147 145//145
f 148//148 128//128 127//127 147//147
f 128//128 126//126 125//125 127//127
f 126//126 146//146 145//145 125//125
f 154//154 156//156 155//155 153//153
f 156//156 138//138 137//137 155//155
f 138//138 134//134 133//133 137//137
f 134//134 154//154 153//153 133//133
