# Rhino

mtllib Pannelli92.mtl
usemtl diffuse_Black
v 1.4046486130997846 3 -0.22844337001179507
v 1.4046486130997846 0 -0.22844337001179499
v 1.4046486130997864 3 0.22844337001178508
v 1.4046486130997864 0 0.22844337001178508
v 1.391521188027689 3 -0.24353213109335864
v 1.391521188027689 0 -0.24353213109335861
v 1.3915211880276905 3 0.24353213109334898
v 1.3915211880276905 0 0.24353213109334898
v 1.3901473904945982 3 -0.30449028274569556
v 1.3901473904945982 0 -0.30449028274569556
v 1.3834937294084031 3 -0.28562950879153182
v 1.3834937294084031 0 -0.28562950879153182
v 1.2220154751746348 3 -0.72931630862007035
v 1.2220154751746348 0 -0.72931630862007035
v 1.2042566447840395 3 -0.73851543592422675
v 1.2042566447840395 0 -0.73851543592422675
v 1.1813008766107225 3 -0.77470468859017605
v 1.1813008766107225 0 -0.77470468859017605
v 1.180546970615225 3 -0.79469047418269068
v 1.180546970615225 0 -0.79469047418269068
v 1.1714785605742404 3 -0.02558228837363908
v 1.1714785605742404 0 -0.025582288373639132
v 1.1714785605742408 3 0.025582288373630861
v 1.1714785605742408 0 0.025582288373630861
v 1.1583511355021447 3 -0.040671049455202654
v 1.1583511355021447 0 -0.040671049455202751
v 1.158351135502145 3 0.040671049455194751
v 1.158351135502145 0 0.040671049455194751
v 1.0986875662060311 3 -0.40731081894272708
v 1.0986875662060311 0 -0.40731081894272708
v 1.0920339051198358 3 -0.38845004498856339
v 1.0920339051198358 0 -0.38845004498856339
v 1.0798592712885426 3 -0.45488506853457389
v 1.0798592712885426 0 -0.454885068534574
v 1.0621004408979473 3 -0.46408419583873034
v 1.0621004408979473 0 -0.4640841958387304
v 0.87245599191937517 3 -0.76305440798600632
v 0.87245599191937517 0 -0.76305440798600632
v 0.87170208592387766 3 -0.78304019357852095
v 0.87170208592387766 0 -0.78304019357852095
v 0.86787948805996262 3 -1.1278338945918727
v 0.86787948805996262 0 -1.1278338945918727
v 0.84798160213868512 3 -1.1298523434675756
v 0.84798160213868512 0 -1.1298523434675756
v 0.83668793907700534 3 -0.82034734348725735
v 0.83668793907700534 0 -0.82034734348725735
v 0.81679005315572784 3 -0.82236579236296004
v 0.81679005315572784 0 -0.82236579236296004
v 0.81331923455088739 3 -1.1550545174641853
v 0.81331923455088739 0 -1.1550545174641853
v 0.80526356784757347 3 -1.173360424542643
v 0.80526356784757347 0 -1.173360424542643
v 0.53043389413503217 3 -1.0305684699890838
v 0.53043389413503217 0 -1.0305684699890838
v 0.52237822743171813 3 -1.0488743770675415
v 0.52237822743171813 0 -1.0488743770675415
v 0.47609226294403795 3 -1.0706785832024248
v 0.47609226294403795 0 -1.0706785832024248
v 0.45684787543077465 3 -1.0652330759497113
v 0.45684787543077465 0 -1.0652330759497113
v 0.39194160237755182 3 -1.3680664749606326
v 0.39194160237755182 0 -1.3680664749606326
v 0.37269721486428853 3 -1.3626209677079191
v 0.37269721486428853 0 -1.3626209677079191
v 0.33119291195320139 3 -1.3732990827481182
v 0.33119291195320139 0 -1.3732990827481182
v 0.31696605106909631 3 -1.3873559824555333
v 0.31696605106909631 0 -1.3873559824555333
v 0.11396844763789873 3 -1.1534481697613912
v 0.11396844763789873 0 -1.1534481697613912
v 0.099741586753793646 3 -1.1675050694688063
v 0.099741586753793646 0 -1.1675050694688063
v 0.048679773742216985 3 -1.170746236804515
v 0.048679773742216985 0 -1.170746236804515
v 0.032789723829663296 3 -1.1586010190717382
v 0.032789723829663303 0 -1.1586010190717382
v -0.13900303476522902 3 -1.4162987876544804
v -0.13900303476522902 0 -1.4162987876544804
v -0.15489308467778271 3 -1.4041535699217036
v -0.15489308467778271 0 -1.4041535699217036
v -0.19741443251798552 3 -1.3988090139252267
v -0.19741443251798552 0 -1.3988090139252267
v -0.21581582941756805 3 -1.4066441011706912
v -0.21581582941756805 0 -1.4066441011706912
v -0.3184918155245583 3 -1.1144480476122547
v -0.3184918155245583 0 -1.1144480476122547
v -0.33689321242414089 3 -1.1222831348577191
v -0.33689321242414089 0 -1.1222831348577191
v -0.38556464194850382 3 -1.1065063841852196
v -0.38556464194850382 0 -1.1065063841852196
v -0.39587027707300509 3 -1.0893659674843152
v -0.39587027707300515 0 -1.0893659674843152
v -0.65043939480961988 3 -1.2657617047711587
v -0.65043939480961988 0 -1.2657617047711587
v -0.6607450299341211 3 -1.2486212880702543
v -0.6607450299341211 0 -1.2486212880702543
v -0.69831579589827886 3 -1.2280041387567946
v -0.69831579589827886 0 -1.2280041387567946
v -0.70625358270585759 3 -0.91904154655708348
v -0.70625358270585759 0 -0.91904154655708348
v -0.71830919850872488 3 -1.2285178040725531
v -0.71830919850872488 0 -1.2285178040725531
v -0.72624698531630383 3 -0.91955521187284195
v -0.72624698531630383 0 -0.91955521187284195
v -0.76569727592757642 3 -0.88697471948224982
v -0.7656972759275763 0 -0.88697471948224982
v -0.76897215959933873 3 -0.86724466279362311
v -0.76897215959933862 0 -0.86724466279362311
v -0.99489671829449844 3 -0.59465284604526447
v -0.99489671829449844 0 -0.59465284604526447
v -1.0136761674587078 3 -0.58777299945621253
v -1.0136761674587078 0 -0.58777299945621253
v -1.0341532187008622 3 -0.52341055361307176
v -1.0341532187008622 0 -0.52341055361307176
v -1.0383686975848745 3 -0.54296125021903563
v -1.0383686975848745 0 -0.54296125021903563
v -1.0705903237762933 3 -0.93758224077787722
v -1.0705903237762933 0 -0.93758224077787722
v -1.0738652074480555 3 -0.91785218408925051
v -1.0738652074480555 0 -0.91785218408925051
v -1.1012125504470118 3 -0.8848559398810919
v -1.1012125504470118 0 -0.8848559398810919
v -1.1122555244654269 3 0.32606615230507136
v -1.1122555244654269 0 0.32606615230507141
v -1.1199919996112211 3 -0.87797609329204007
v -1.1199919996112211 0 -0.87797609329204007
v -1.128708674634948 3 0.3146954069689385
v -1.128708674634948 0 0.3146954069689385
v -1.1323854660940549 3 0.24725420838045475
v -1.1323854660940549 0 0.24725420838045475
v -1.1413705060503205 3 0.26512231004191611
v -1.1413705060503205 0 0.26512231004191611
v -1.1439118170021592 3 -0.18680803597734744
v -1.1439118170021592 0 -0.18680803597734744
v -1.1541968166909649 3 -0.10611878119983585
v -1.1541968166909649 0 -0.10611878119983588
v -1.1588417249527907 3 -0.17350022441474697
v -1.1588417249527907 0 -0.17350022441474697
v -1.1653110398951454 3 -0.12274628980959634
v -1.1653110398951454 0 -0.12274628980959632
v -1.2879702350999676 3 0.58032041933865963
v -1.2879702350999676 0 0.58032041933865963
v -1.3044233852694886 3 0.56894967400252672
v -1.3044233852694886 0 0.56894967400252672
v -1.3362745744491202 3 -0.45826780083886054
v -1.3362745744491202 0 -0.45826780083886048
v -1.3404900533331325 3 -0.47781849744482446
v -1.3404900533331325 0 -0.47781849744482435
v -1.3495604520543094 3 -0.41752329498583857
v -1.3495604520543094 0 -0.41752329498583857
v -1.3644903600049405 3 -0.4042154834232381
v -1.3644903600049405 0 -0.4042154834232381
v -1.4085052999500833 3 0.10840634491296466
v -1.4085052999500833 0 0.10840634491296466
v -1.4111454843084781 3 0.065631834658600743
v -1.4111454843084781 0 0.065631834658600716
v -1.417490339906349 3 0.12627444657442605
v -1.417490339906349 0 0.12627444657442605
v -1.4222597075126586 3 0.049004326048840252
v -1.4222597075126586 0 0.04900432604884028
vn 0.99759280681610107 0 0.069343708455562592
vn 0.99759280681610107 0 0.069343708455562592
vn 0.99759280681610107 0 -0.069343708455562592
vn 0.99759280681610107 0 -0.069343708455562592
vn 0.069343708455562592 0 -0.99759280681610107
vn 0.069343708455562592 0 -0.99759280681610107
vn 0.069343708455562592 0 0.99759280681610107
vn 0.069343708455562592 0 0.99759280681610107
vn 0.90207153558731079 0 -0.43158659338951111
vn 0.90207153558731079 0 -0.43158659338951111
vn 0.43158659338951111 0 0.90207153558731079
vn 0.43158659338951111 0 0.90207153558731079
vn 0.95310771465301514 0 -0.3026311993598938
vn 0.95310771465301514 0 -0.3026311993598938
vn -0.3026311993598938 0 -0.95310771465301514
vn -0.3026311993598938 0 -0.95310771465301514
vn 0.73325884342193604 0 0.67994964122772217
vn 0.73325884342193604 0 0.67994964122772217
vn 0.67994964122772217 0 -0.73325884342193604
vn 0.67994964122772217 0 -0.73325884342193604
vn -0.069343708455562592 0 0.99759280681610107
vn -0.069343708455562592 0 0.99759280681610107
vn -0.069343708455562592 0 -0.99759280681610107
vn -0.069343708455562592 0 -0.99759280681610107
vn -0.99759280681610107 0 -0.069343708455562592
vn -0.99759280681610107 0 -0.069343708455562592
vn -0.99759280681610107 0 0.069343708455562592
vn -0.99759280681610107 0 0.069343708455562592
vn -0.43158659338951111 0 -0.90207153558731079
vn -0.43158659338951111 0 -0.90207153558731079
vn -0.90207153558731079 0 0.43158659338951111
vn -0.90207153558731079 0 0.43158659338951111
vn 0.3026311993598938 0 0.95310771465301514
vn 0.3026311993598938 0 0.95310771465301514
vn -0.95310771465301514 0 0.3026311993598938
vn -0.95310771465301514 0 0.3026311993598938
vn -0.67994964122772217 0 0.73325884342193604
vn -0.67994964122772217 0 0.73325884342193604
vn -0.73325884342193604 0 -0.67994964122772217
vn -0.73325884342193604 0 -0.67994964122772217
vn 0.77485942840576172 0 -0.63213354349136353
vn 0.77485942840576172 0 -0.63213354349136353
vn -0.63213354349136353 0 -0.77485942840576172
vn -0.63213354349136353 0 -0.77485942840576172
vn 0.63213354349136353 0 0.77485942840576172
vn 0.63213354349136353 0 0.77485942840576172
vn -0.77485942840576172 0 0.63213354349136353
vn -0.77485942840576172 0 0.63213354349136353
vn 0.93202239274978638 0 0.36240071058273315
vn 0.93202239274978638 0 0.36240071058273315
vn 0.36240071058273315 0 -0.93202239274978638
vn 0.36240071058273315 0 -0.93202239274978638
vn -0.36240071058273315 0 0.93202239274978638
vn -0.36240071058273315 0 0.93202239274978638
vn -0.93202239274978638 0 -0.36240071058273315
vn -0.93202239274978638 0 -0.36240071058273315
vn 0.87291955947875977 0 0.48786410689353943
vn 0.87291955947875977 0 0.48786410689353943
vn -0.48786410689353943 0 0.87291955947875977
vn -0.48786410689353943 0 0.87291955947875977
vn 0.48786410689353943 0 -0.87291955947875977
vn 0.48786410689353943 0 -0.87291955947875977
vn -0.87291955947875977 0 -0.48786410689353943
vn -0.87291955947875977 0 -0.48786410689353943
vn 0.99998193979263306 0 -0.0060090445913374424
vn 0.99998193979263306 0 -0.0060090445913374424
vn -0.0060090445913374424 0 -0.99998193979263306
vn -0.0060090445913374424 0 -0.99998193979263306
vn 0.0060090445913374424 0 0.99998193979263306
vn 0.0060090445913374424 0 0.99998193979263306
vn -0.99998193979263306 0 0.0060090445913374424
vn -0.99998193979263306 0 0.0060090445913374424
vn 0.9911963939666748 0 0.13239981234073639
vn 0.9911963939666748 0 0.13239981234073639
vn -0.13239981234073639 0 0.9911963939666748
vn -0.13239981234073639 0 0.9911963939666748
vn 0.13239981234073639 0 -0.9911963939666748
vn 0.13239981234073639 0 -0.9911963939666748
vn -0.9911963939666748 0 -0.13239981234073639
vn -0.9911963939666748 0 -0.13239981234073639
vn 0.92759978771209717 0 -0.37357550859451294
vn 0.92759978771209717 0 -0.37357550859451294
vn -0.37357550859451294 0 -0.92759978771209717
vn -0.37357550859451294 0 -0.92759978771209717
vn 0.37357550859451294 0 0.92759978771209717
vn 0.37357550859451294 0 0.92759978771209717
vn -0.92759978771209717 0 0.37357550859451294
vn -0.92759978771209717 0 0.37357550859451294
vn 0.97036445140838623 0 -0.24164605140686035
vn 0.97036445140838623 0 -0.24164605140686035
vn 0.24164605140686035 0 0.97036445140838623
vn 0.24164605140686035 0 0.97036445140838623
vn -0.24164605140686035 0 -0.97036445140838623
vn -0.24164605140686035 0 -0.97036445140838623
vn -0.97036445140838623 0 0.24164605140686035
vn -0.97036445140838623 0 0.24164605140686035
vn 0.72503435611724854 0 -0.6887127161026001
vn 0.72503435611724854 0 -0.6887127161026001
vn 0.6887127161026001 0 0.72503435611724854
vn 0.6887127161026001 0 0.72503435611724854
vn -0.6887127161026001 0 -0.72503435611724854
vn -0.6887127161026001 0 -0.72503435611724854
vn -0.72503435611724854 0 0.6887127161026001
vn -0.72503435611724854 0 0.6887127161026001
vn 0.8133474588394165 0 -0.58177822828292847
vn 0.8133474588394165 0 -0.58177822828292847
vn 0.58177822828292847 0 0.8133474588394165
vn 0.58177822828292847 0 0.8133474588394165
vn 0.90719312429428101 0 0.42071446776390076
vn 0.90719312429428101 0 0.42071446776390076
vn -0.42071446776390076 0 0.90719312429428101
vn -0.42071446776390076 0 0.90719312429428101
vn 0.84026116132736206 0 0.54218184947967529
vn 0.84026116132736206 0 0.54218184947967529
vn 0.54218184947967529 0 -0.84026116132736206
vn 0.54218184947967529 0 -0.84026116132736206
vn -0.58177822828292847 0 -0.8133474588394165
vn -0.58177822828292847 0 -0.8133474588394165
vn -0.8133474588394165 0 0.58177822828292847
vn -0.8133474588394165 0 0.58177822828292847
vn 0.42071446776390076 0 -0.90719312429428101
vn 0.42071446776390076 0 -0.90719312429428101
vn 0.98372328281402588 0 -0.17969013750553131
vn 0.98372328281402588 0 -0.17969013750553131
vn -0.90719312429428101 0 -0.42071446776390076
vn -0.90719312429428101 0 -0.42071446776390076
vn -0.17969013750553131 0 -0.98372328281402588
vn -0.17969013750553131 0 -0.98372328281402588
vn 0.94940191507339478 0 -0.31406363844871521
vn 0.94940191507339478 0 -0.31406363844871521
vn 0.31406363844871521 0 0.94940191507339478
vn 0.31406363844871521 0 0.94940191507339478
vn 0.99835413694381714 0 0.057349804788827896
vn 0.99835413694381714 0 0.057349804788827896
vn 0.98081833124160767 0 0.19492407143115997
vn 0.98081833124160767 0 0.19492407143115997
vn -0.057349804788827896 0 0.99835413694381714
vn -0.057349804788827896 0 0.99835413694381714
vn 0.19492407143115997 0 -0.98081833124160767
vn 0.19492407143115997 0 -0.98081833124160767
vn 0.17969013750553131 0 0.98372328281402588
vn 0.17969013750553131 0 0.98372328281402588
vn -0.98372328281402588 0 0.17969013750553131
vn -0.98372328281402588 0 0.17969013750553131
vn -0.54218184947967529 0 0.84026116132736206
vn -0.54218184947967529 0 0.84026116132736206
vn -0.84026116132736206 0 -0.54218184947967529
vn -0.84026116132736206 0 -0.54218184947967529
vn 0.057349804788827896 0 -0.99835413694381714
vn 0.057349804788827896 0 -0.99835413694381714
vn -0.99835413694381714 0 -0.057349804788827896
vn -0.99835413694381714 0 -0.057349804788827896
vn -0.31406363844871521 0 -0.94940191507339478
vn -0.31406363844871521 0 -0.94940191507339478
vn -0.19492407143115997 0 0.98081833124160767
vn -0.19492407143115997 0 0.98081833124160767
vn -0.94940191507339478 0 0.31406363844871521
vn -0.94940191507339478 0 0.31406363844871521
vn -0.98081833124160767 0 -0.19492407143115997
vn -0.98081833124160767 0 -0.19492407143115997
f 6//6 26//26 25//25 5//5
f 26//26 22//22 21//21 25//25
f 22//22 2//2 1//1 21//21
f 2//2 6//6 5//5 1//1
f 16//16 36//36 35//35 15//15
f 36//36 34//34 33//33 35//35
f 34//34 14//14 13//13 33//33
f 14//14 16//16 15//15 13//13
f 44//44 48//48 47//47 43//43
f 48//48 46//46 45//45 47//47
f 46//46 42//42 41//41 45//45
f 42//42 44//44 43//43 41//41
f 64//64 60//60 59//59 63//63
f 60//60 58//58 57//57 59//59
f 58//58 62//62 61//61 57//57
f 62//62 64//64 63//63 61//61
f 80//80 76//76 75//75 79//79
f 76//76 74//74 73//73 75//75
f 74//74 78//78 77//77 73//73
f 78//78 80//80 79//79 77//77
f 96//96 92//92 91//91 95//95
f 92//92 90//90 89//89 91//91
f 90//90 94//94 93//93 89//89
f 94//94 96//96 95//95 93//93
f 120//120 108//108 107//107 119//119
f 108//108 106//106 105//105 107//107
f 106//106 118//118 117//117 105//105
f 118//118 120//120 119//119 117//117
f 146//146 114//114 113//113 145//145
f 114//114 116//116 115//115 113//113
f 116//116 148//148 147//147 115//115
f 148//148 146//146 145//145 147//147
f 156//156 136//136 135//135 155//155
f 136//136 140//140 139//139 135//135
f 140//140 160//160 159//159 139//139
f 160//160 156//156 155//155 159//159
f 142//142 124//124 123//123 141//141
f 124//124 128//128 127//127 123//123
f 128//128 144//144 143//143 127//127
f 144//144 142//142 141//141 143//143
f 8//8 4//4 3//3 7//7
f 4//4 24//24 23//23 3//3
f 24//24 28//28 27//27 23//23
f 28//28 8//8 7//7 27//27
f 12//12 10//10 9//9 11//11
f 10//10 30//30 29//29 9//9
f 30//30 32//32 31//31 29//29
f 32//32 12//12 11//11 31//31
f 18//18 20//20 19//19 17//17
f 20//20 40//40 39//39 19//19
f 40//40 38//38 37//37 39//39
f 38//38 18//18 17//17 37//37
f 50//50 52//52 51//51 49//49
f 52//52 56//56 55//55 51//51
f 56//56 54//54 53//53 55//55
f 54//54 50//50 49//49 53//53
f 66//66 68//68 67//67 65//65
f 68//68 72//72 71//71 67//67
f 72//72 70//70 69//69 71//71
f 70//70 66//66 65//65 69//69
f 82//82 84//84 83//83 81//81
f 84//84 88//88 87//87 83//83
f 88//88 86//86 85//85 87//87
f 86//86 82//82 81//81 85//85
f 98//98 102//102 101//101 97//97
f 102//102 104//104 103//103 101//101
f 104//104 100//100 99//99 103//103
f 100//100 98//98 97//97 99//99
f 122//122 126//126 125//125 121//121
f 126//126 112//112 111//111 125//125
f 112//112 110//110 109//109 111//111
f 110//110 122//122 121//121 109//109
f 150//150 152//152 151//151 149//149
f 152//152 138//138 137//137 151//151
f 138//138 134//134 133//133 137//137
f 134//134 150//150 149//149 133//133
f 154//154 158//158 157//157 153//153
f 158//158 132//132 131//131 157//157
f 132//132 130//130 129//129 131//131
f 130//130 154//154 153//153 129//129
