# Rhino

mtllib Pannelli139.mtl
usemtl diffuse_Black
v 1.2871145236756203 3 -0.30833077121277092
v 1.2871145236756203 0 -0.30833077121277086
v 1.2871145236756223 3 0.3083307712127632
v 1.2871145236756223 0 0.3083307712127632
v 1.2687966324756559 3 -0.31635914975306617
v 1.2687966324756559 0 -0.31635914975306612
v 1.2687966324756581 3 0.31635914975305851
v 1.2687966324756581 0 0.31635914975305851
v 1.2650576952474992 3 -0.38905101108783524
v 1.2650576952474992 0 -0.38905101108783524
v 1.2533678654852867 3 -0.37282301428815318
v 1.2533678654852867 0 -0.37282301428815318
v 1.167013411096802 3 -0.0343029457718746
v 1.167013411096802 0 -0.034302945771874663
v 1.1670134110968022 3 0.034302945771867641
v 1.1670134110968022 0 0.034302945771867641
v 1.1486955198968376 3 -0.04233132431216987
v 1.1486955198968376 0 -0.042331324312169911
v 1.148695519896838 3 0.042331324312162945
v 1.148695519896838 0 0.042331324312162945
v 1.0222937970599504 3 -0.5639258694732584
v 1.0222937970599504 0 -0.5639258694732584
v 1.010603967297738 3 -0.54769787267357628
v 1.010603967297738 0 -0.54769787267357628
v 0.98740559134428152 3 -0.62299854891522122
v 0.98740559134428152 0 -0.62299854891522122
v 0.96755040680642279 3 -0.62059612368900119
v 0.96755040680642279 0 -0.62059612368900119
v 0.95146633647379197 3 -0.92002362583279473
v 0.95146633647379197 0 -0.92002362583279473
v 0.93161115193593325 3 -0.91762120060657471
v 0.93161115193593325 0 -0.91762120060657471
v 0.89142571610237908 3 -0.97831071455072083
v 0.89142571610237908 0 -0.97831071455072083
v 0.88961269578043689 3 -0.95839306013780801
v 0.88961269578043689 0 -0.95839306013780801
v 0.59346611654626757 3 -1.0054327238954945
v 0.59346611654626757 0 -1.0054327238954945
v 0.59165309622432538 3 -0.98551506948258161
v 0.59165309622432538 0 -0.98551506948258161
v 0.53338556818015748 3 -1.038555164363238
v 0.53338556818015737 0 -1.038555164363238
v 0.51751109120083427 3 -1.0263895989989424
v 0.51751109120083427 0 -1.0263895989989424
v 0.42776869695869874 3 1.2356949251802829
v 0.42776869695869868 0 1.2356949251802829
v 0.42139851295201058 3 1.2546533205691583
v 0.42139851295201053 0 1.2546533205691583
v 0.35139390846097224 3 -1.2760305570909749
v 0.35139390846097224 0 -1.2760305570909749
v 0.33551943148164909 3 -1.2638649917266793
v 0.3355194314816492 0 -1.2638649917266793
v 0.27862317559991912 3 -1.2776138431594521
v 0.27862317559991912 0 -1.2776138431594521
v 0.27005552575228653 3 -1.2956857931396939
v 0.27005552575228653 0 -1.2956857931396939
v 0.14415920252778952 3 1.1403996943070618
v 0.14415920252778955 0 1.1403996943070618
v 0.13778901852110134 3 1.1593580896959372
v 0.13778901852110137 0 1.1593580896959372
v 0.069454107790753214 3 1.165449750387983
v 0.069454107790753214 0 1.165449750387983
v 0.05983095599155859 3 1.1479170680646857
v 0.05983095599155859 0 1.1479170680646857
v 0.0082745257197422775 3 -1.1494454622439474
v 0.0082745257197422775 0 -1.1494454622439474
v -0.00029312412789031517 3 -1.1675174122241891
v -0.00029312412789031517 0 -1.1675174122241891
v -0.068868889055783547 3 -1.1654844786133547
v -0.068868889055783533 0 -1.1654844786133547
v -0.076350945352714444 3 -1.1469367339103038
v -0.076350945352714458 0 -1.1469367339103038
v -0.19282732836105354 3 1.3094079895015609
v -0.19282732836105354 0 1.3094079895015609
v -0.20245048016024819 3 1.2918753071782636
v -0.20245048016024819 0 1.2918753071782636
v -0.26006127519492245 3 1.2815210257182825
v -0.2600612751949225 0 1.2815210257182825
v -0.27518720990444867 3 1.2946056005743163
v -0.27518720990444867 0 1.2946056005743163
v -0.34633522469052558 3 -1.277412843865265
v -0.34633522469052552 0 -1.277412843865265
v -0.35381728098745646 3 -1.2588650991622141
v -0.35381728098745646 0 -1.2588650991622141
v -0.40979916469843941 3 -1.241769966953022
v -0.40979916469843941 0 -1.241769966953022
v -0.42636642905487504 3 -1.2529737945018544
v -0.42636642905487504 0 -1.2529737945018544
v -0.45580092423403007 3 1.0552435055078484
v -0.45580092423403001 0 1.0552435055078484
v -0.47092685894355629 3 1.0683280803638822
v -0.47092685894355624 0 1.0683280803638822
v -0.53223405613629216 3 1.0188327870351437
v -0.53223405613629216 0 1.0188327870351437
v -0.5328640088300769 3 1.0388228635633514
v -0.5328640088300769 0 1.0388228635633514
v -0.57740363763183811 3 -0.99393077107945982
v -0.57740363763183811 0 -0.99393077107945982
v -0.59397090198827374 3 -1.0051345986282922
v -0.59397090198827374 0 -1.0051345986282922
v -0.64899411163607046 3 -0.94873599147012244
v -0.64899411163607046 0 -0.94873599147012244
v -0.65198383183285047 3 -0.96851126828600964
v -0.65198383183285047 0 -0.96851126828600964
v -0.83127705959252518 3 1.0094089639037556
v -0.83127705959252518 0 1.0094089639037556
v -0.83190701228630992 3 1.0293990404319631
v -0.83190701228630992 0 1.0293990404319631
v -0.87561700850094593 3 0.97119661276072322
v -0.87561700850094593 0 0.97119661276072333
v -0.89529500992702626 3 0.97477100220161805
v -0.89529500992702626 0 0.97477100220161805
v -0.92908834726341305 3 0.6768221194881473
v -0.92908834726341305 0 0.67682211948814741
v -0.94482380317610548 3 -0.90401105478079657
v -0.94482380317610537 0 -0.90401105478079657
v -0.94781352337288549 3 -0.92378633159668377
v -0.94781352337288538 0 -0.92378633159668377
v -0.94876634868949339 3 0.68039650892904213
v -0.94876634868949339 0 0.68039650892904213
v -0.9763846536047972 3 0.60660229694102619
v -0.9763846536047972 0 0.60660229694102619
v -0.98433325813358608 3 -0.86082288721093347
v -0.98433325813358608 0 -0.86082288721093347
v -0.98709263916115753 3 0.62349427862834683
v -0.98709263916115753 0 0.62349427862834683
v -1.0026142020054603 3 -0.56219044850125532
v -1.0026142020054603 0 -0.56219044850125532
v -1.00429588971037 3 -0.86204491034066077
v -1.00429588971037 0 -0.86204491034066077
v -1.0225768335822443 3 -0.56341247163098263
v -1.0225768335822443 0 -0.56341247163098263
v -1.0412738024273025 3 -0.4868698048017307
v -1.0412738024273027 0 -0.4868698048017307
v -1.0539044189668461 3 -0.50237682017642515
v -1.0539044189668461 0 -0.50237682017642515
v -1.1441706489408929 3 0.11030351105592298
v -1.1441706489408929 0 0.11030351105592298
v -1.1491859023135915 3 0.025789539987851225
v -1.1491859023135915 0 0.025789539987851225
v -1.1629319575611961 3 0.10337434813001736
v -1.1629319575611961 0 0.10337434813001734
v -1.1669960393557368 3 0.034888936590923861
v -1.1669960393557368 0 0.034888936590923861
v -1.2290814820024338 3 0.44641540835050614
v -1.2290814820024338 0 0.44641540835050614
v -1.2397894675587942 3 0.46330739003782684
v -1.2397894675587942 0 0.46330739003782684
v -1.2478279656038116 3 0.39096467164067467
v -1.2478279656038116 0 0.39096467164067472
v -1.2665892742241147 3 0.38403550871476905
v -1.2665892742241147 0 0.38403550871476905
v -1.2732521265596333 3 -0.29792117820896719
v -1.2732521265596333 0 -0.29792117820896713
v -1.2853089874845058 3 -0.24064250020643241
v -1.2853089874845058 0 -0.24064250020643241
v -1.2858827430991768 3 -0.31342819358366164
v -1.2858827430991768 0 -0.31342819358366164
v -1.3031191245266511 3 -0.23154310360335978
v -1.3031191245266511 0 -0.23154310360335978
vn 0.93148130178451538 0 -0.36378923058509827
vn 0.93148130178451538 0 -0.36378923058509827
vn 0.93148130178451538 0 0.36378923058509827
vn 0.93148130178451538 0 0.36378923058509827
vn -0.36378923058509827 0 -0.93148130178451538
vn -0.36378923058509827 0 -0.93148130178451538
vn -0.36378923058509827 0 0.93148130178451538
vn -0.36378923058509827 0 0.93148130178451538
vn 0.98704421520233154 0 -0.16044841706752777
vn 0.98704421520233154 0 -0.16044841706752777
vn 0.16044841706752777 0 0.98704421520233154
vn 0.16044841706752777 0 0.98704421520233154
vn 0.36378923058509827 0 0.93148130178451538
vn 0.36378923058509827 0 0.93148130178451538
vn 0.36378923058509827 0 -0.93148130178451538
vn 0.36378923058509827 0 -0.93148130178451538
vn -0.93148130178451538 0 0.36378923058509827
vn -0.93148130178451538 0 0.36378923058509827
vn -0.93148130178451538 0 -0.36378923058509827
vn -0.93148130178451538 0 -0.36378923058509827
vn -0.16044841706752777 0 -0.98704421520233154
vn -0.16044841706752777 0 -0.98704421520233154
vn -0.98704421520233154 0 0.16044841706752777
vn -0.98704421520233154 0 0.16044841706752777
vn 0.78692531585693359 0 0.61704826354980469
vn 0.78692531585693359 0 0.61704826354980469
vn -0.61704826354980469 0 0.78692531585693359
vn -0.61704826354980469 0 0.78692531585693359
vn 0.61704826354980469 0 -0.78692531585693359
vn 0.61704826354980469 0 -0.78692531585693359
vn -0.78692531585693359 0 -0.61704826354980469
vn -0.78692531585693359 0 -0.61704826354980469
vn 0.76829540729522705 0 -0.64009547233581543
vn 0.76829540729522705 0 -0.64009547233581543
vn 0.64009547233581543 0 0.76829540729522705
vn 0.64009547233581543 0 0.76829540729522705
vn -0.64009547233581543 0 -0.76829540729522705
vn -0.64009547233581543 0 -0.76829540729522705
vn -0.76829540729522705 0 0.64009547233581543
vn -0.76829540729522705 0 0.64009547233581543
vn 0.99136519432067871 0 0.13112980127334595
vn 0.99136519432067871 0 0.13112980127334595
vn -0.13112980127334595 0 0.99136519432067871
vn -0.13112980127334595 0 0.99136519432067871
vn 0.89550048112869263 0 -0.44506052136421204
vn 0.89550048112869263 0 -0.44506052136421204
vn 0.44506052136421204 0 0.89550048112869263
vn 0.44506052136421204 0 0.89550048112869263
vn 0.13112980127334595 0 -0.99136519432067871
vn 0.13112980127334595 0 -0.99136519432067871
vn -0.99136519432067871 0 -0.13112980127334595
vn -0.99136519432067871 0 -0.13112980127334595
vn 0.94185209274291992 0 0.33602774143218994
vn 0.94185209274291992 0 0.33602774143218994
vn 0.33602774143218994 0 -0.94185209274291992
vn 0.33602774143218994 0 -0.94185209274291992
vn -0.44506052136421204 0 -0.89550048112869263
vn -0.44506052136421204 0 -0.89550048112869263
vn -0.89550048112869263 0 0.44506052136421204
vn -0.89550048112869263 0 0.44506052136421204
vn 0.96010375022888184 0 0.27964413166046143
vn 0.96010375022888184 0 0.27964413166046143
vn 0.27964413166046143 0 -0.96010375022888184
vn 0.27964413166046143 0 -0.96010375022888184
vn -0.33602774143218994 0 0.94185209274291992
vn -0.33602774143218994 0 0.94185209274291992
vn -0.94185209274291992 0 -0.33602774143218994
vn -0.94185209274291992 0 -0.33602774143218994
vn 0.9202924370765686 0 -0.39123114943504333
vn 0.9202924370765686 0 -0.39123114943504333
vn 0.39123114943504333 0 0.9202924370765686
vn 0.39123114943504333 0 0.9202924370765686
vn -0.27964413166046143 0 0.96010375022888184
vn -0.27964413166046143 0 0.96010375022888184
vn -0.96010375022888184 0 -0.27964413166046143
vn -0.96010375022888184 0 -0.27964413166046143
vn 0.99739211797714233 0 0.072172977030277252
vn 0.99739211797714233 0 0.072172977030277252
vn -0.072172977030277252 0 0.99739211797714233
vn -0.072172977030277252 0 0.99739211797714233
vn -0.39123114943504333 0 -0.9202924370765686
vn -0.39123114943504333 0 -0.9202924370765686
vn -0.9202924370765686 0 0.39123114943504333
vn -0.9202924370765686 0 0.39123114943504333
vn 0.98185634613037109 0 -0.18962612748146057
vn 0.98185634613037109 0 -0.18962612748146057
vn -0.18962612748146057 0 -0.98185634613037109
vn -0.18962612748146057 0 -0.98185634613037109
vn 0.072172977030277252 0 -0.99739211797714233
vn 0.072172977030277252 0 -0.99739211797714233
vn -0.99739211797714233 0 -0.072172977030277252
vn -0.99739211797714233 0 -0.072172977030277252
vn 0.72902810573577881 0 -0.68448376655578613
vn 0.72902810573577881 0 -0.68448376655578613
vn 0.68448376655578613 0 0.72902810573577881
vn 0.68448376655578613 0 0.72902810573577881
vn 0.18962612748146057 0 0.98185634613037109
vn 0.18962612748146057 0 0.98185634613037109
vn -0.98185634613037109 0 0.18962612748146057
vn -0.98185634613037109 0 0.18962612748146057
vn 0.80486416816711426 0 0.59345906972885132
vn 0.80486416816711426 0 0.59345906972885132
vn 0.59345906972885132 0 -0.80486416816711426
vn 0.59345906972885132 0 -0.80486416816711426
vn -0.68448376655578613 0 -0.72902810573577881
vn -0.68448376655578613 0 -0.72902810573577881
vn -0.72902810573577881 0 0.68448376655578613
vn -0.72902810573577881 0 0.68448376655578613
vn 0.82209616899490356 0 0.56934863328933716
vn 0.82209616899490356 0 0.56934863328933716
vn -0.56934863328933716 0 0.82209616899490356
vn -0.56934863328933716 0 0.82209616899490356
vn 0.56934863328933716 0 -0.82209616899490356
vn 0.56934863328933716 0 -0.82209616899490356
vn -0.59345906972885132 0 0.80486416816711426
vn -0.59345906972885132 0 0.80486416816711426
vn -0.80486416816711426 0 -0.59345906972885132
vn -0.80486416816711426 0 -0.59345906972885132
vn -0.82209616899490356 0 -0.56934863328933716
vn -0.82209616899490356 0 -0.56934863328933716
vn 0.97580617666244507 0 -0.21863728761672974
vn 0.97580617666244507 0 -0.21863728761672974
vn 0.74899065494537354 0 -0.66258054971694946
vn 0.74899065494537354 0 -0.66258054971694946
vn 0.21863728761672974 0 0.97580617666244507
vn 0.21863728761672974 0 0.97580617666244507
vn 0.66258054971694946 0 0.74899065494537354
vn 0.66258054971694946 0 0.74899065494537354
vn -0.66258054971694946 0 -0.74899065494537354
vn -0.66258054971694946 0 -0.74899065494537354
vn -0.74899065494537354 0 0.66258054971694946
vn -0.74899065494537354 0 0.66258054971694946
vn 0.99481552839279175 0 0.10169605165719986
vn 0.99481552839279175 0 0.10169605165719986
vn 0.10169605165719986 0 -0.99481552839279175
vn 0.10169605165719986 0 -0.99481552839279175
vn 0.90829533338546753 0 -0.41832953691482544
vn 0.90829533338546753 0 -0.41832953691482544
vn 0.95139569044113159 0 0.30797120928764343
vn 0.95139569044113159 0 0.30797120928764343
vn -0.41832953691482544 0 -0.90829533338546753
vn -0.41832953691482544 0 -0.90829533338546753
vn -0.30797120928764343 0 0.95139569044113159
vn -0.30797120928764343 0 0.95139569044113159
vn -0.21863728761672974 0 -0.97580617666244507
vn -0.21863728761672974 0 -0.97580617666244507
vn -0.97580617666244507 0 0.21863728761672974
vn -0.97580617666244507 0 0.21863728761672974
vn 0.41832953691482544 0 0.90829533338546753
vn 0.41832953691482544 0 0.90829533338546753
vn -0.90829533338546753 0 0.41832953691482544
vn -0.90829533338546753 0 0.41832953691482544
vn -0.10169605165719986 0 0.99481552839279175
vn -0.10169605165719986 0 0.99481552839279175
vn 0.30797120928764343 0 -0.95139569044113159
vn 0.30797120928764343 0 -0.95139569044113159
vn -0.99481552839279175 0 -0.10169605165719986
vn -0.99481552839279175 0 -0.10169605165719986
vn -0.95139569044113159 0 -0.30797120928764343
vn -0.95139569044113159 0 -0.30797120928764343
f 6//6 18//18 17//17 5//5
f 18//18 14//14 13//13 17//17
f 14//14 2//2 1//1 13//13
f 2//2 6//6 5//5 1//1
f 32//32 28//28 27//27 31//31
f 28//28 26//26 25//25 27//27
f 26//26 30//30 29//29 25//25
f 30//30 32//32 31//31 29//29
f 52//52 44//44 43//43 51//51
f 44//44 42//42 41//41 43//43
f 42//42 50//50 49//49 41//41
f 50//50 52//52 51//51 49//49
f 84//84 72//72 71//71 83//83
f 72//72 70//70 69//69 71//71
f 70//70 82//82 81//81 69//69
f 82//82 84//84 83//83 81//81
f 116//116 102//102 101//101 115//115
f 102//102 104//104 103//103 101//101
f 104//104 118//118 117//117 103//103
f 118//118 116//116 115//115 117//117
f 154//154 134//134 133//133 153//153
f 134//134 136//136 135//135 133//133
f 136//136 158//158 157//157 135//135
f 158//158 154//154 153//153 157//157
f 150//150 138//138 137//137 149//149
f 138//138 142//142 141//141 137//137
f 142//142 152//152 151//151 141//141
f 152//152 150//150 149//149 151//151
f 110//110 114//114 113//113 109//109
f 114//114 120//120 119//119 113//113
f 120//120 112//112 111//111 119//119
f 112//112 110//110 109//109 111//111
f 78//78 90//90 89//89 77//77
f 90//90 92//92 91//91 89//89
f 92//92 80//80 79//79 91//91
f 80//80 78//78 77//77 79//79
f 46//46 58//58 57//57 45//45
f 58//58 60//60 59//59 57//57
f 60//60 48//48 47//47 59//59
f 48//48 46//46 45//45 47//47
f 8//8 4//4 3//3 7//7
f 4//4 16//16 15//15 3//3
f 16//16 20//20 19//19 15//15
f 20//20 8//8 7//7 19//19
f 12//12 10//10 9//9 11//11
f 10//10 22//22 21//21 9//9
f 22//22 24//24 23//23 21//21
f 24//24 12//12 11//11 23//23
f 36//36 34//34 33//33 35//35
f 34//34 38//38 37//37 33//33
f 38//38 40//40 39//39 37//37
f 40//40 36//36 35//35 39//39
f 54//54 56//56 55//55 53//53
f 56//56 68//68 67//67 55//55
f 68//68 66//66 65//65 67//67
f 66//66 54//54 53//53 65//65
f 86//86 88//88 87//87 85//85
f 88//88 100//100 99//99 87//87
f 100//100 98//98 97//97 99//99
f 98//98 86//86 85//85 97//97
f 124//124 130//130 129//129 123//123
f 130//130 132//132 131//131 129//129
f 132//132 128//128 127//127 131//131
f 128//128 124//124 123//123 127//127
f 156//156 160//160 159//159 155//155
f 160//160 144//144 143//143 159//159
f 144//144 140//140 139//139 143//143
f 140//140 156//156 155//155 139//139
f 146//146 148//148 147//147 145//145
f 148//148 126//126 125//125 147//147
f 126//126 122//122 121//121 125//125
f 122//122 146//146 145//145 121//121
f 106//106 108//108 107//107 105//105
f 108//108 96//96 95//95 107//107
f 96//96 94//94 93//93 95//95
f 94//94 106//106 105//105 93//93
f 76//76 74//74 73//73 75//75
f 74//74 62//62 61//61 73//73
f 62//62 64//64 63//63 61//61
f 64//64 76//76 75//75 63//63
