# Rhino

mtllib Pannelli100.mtl
usemtl diffuse_Black
v 1.3871092251004971 3 -0.24537425267847071
v 1.3871092251004971 0 -0.24537425267847068
v 1.3871092251005004 3 0.24537425267845334
v 1.3871092251005004 0 0.24537425267845334
v 1.3728989629408981 3 -0.25944793198970478
v 1.3728989629408981 0 -0.25944793198970484
v 1.3728989629409014 3 0.25944793198968774
v 1.3728989629409014 0 0.25944793198968774
v 1.3712157791707513 3 -0.3225644326170658
v 1.3712157791707513 0 -0.3225644326170658
v 1.3637212239381751 3 -0.3040217348126506
v 1.3637212239381751 0 -0.3040217348126506
v 1.1773448091719501 3 -0.77339493569086926
v 1.1773448091719501 0 -0.77339493569086926
v 1.171004897353088 3 -0.027172666355319286
v 1.171004897353088 0 -0.027172666355319251
v 1.1710048973530887 3 0.027172666355304659
v 1.1710048973530887 0 0.027172666355304659
v 1.1587305955818346 3 -0.78071006059900006
v 1.1587305955818346 0 -0.78071006059900006
v 1.156794635193489 3 -0.041246345666553372
v 1.156794635193489 0 -0.041246345666553386
v 1.1567946351934897 3 0.041246345666539064
v 1.1567946351934897 0 0.041246345666539064
v 1.1326904325614646 3 -0.81803250292494523
v 1.1326904325614646 0 -0.81803250292494523
v 1.132250050774132 3 -0.83802765393416223
v 1.132250050774132 0 -0.83802765393416223
v 1.0864887255673756 3 -0.43764491615549961
v 1.0864887255673756 0 -0.43764491615549961
v 1.0789941703347994 3 -0.41910221835108435
v 1.0789941703347994 0 -0.41910221835108435
v 1.0650195162829716 3 -0.48756974204533998
v 1.0650195162829716 0 -0.48756974204533998
v 1.0464053026928561 3 -0.49488486695347084
v 1.0464053026928561 0 -0.49488486695347084
v 0.82566065225337648 3 -0.81127034727260394
v 0.82566065225337648 0 -0.81127034727260394
v 0.82522027046604385 3 -0.83126549828182061
v 0.82522027046604385 0 -0.83126549828182061
v 0.7857745082614499 3 -0.86864794110632104
v 0.7857745082614499 0 -0.86864794110632104
v 0.77604745012679366 3 -1.1755980951788418
v 0.77604745012679366 0 -1.1755980951788418
v 0.76578454286843911 3 -0.86801447162305889
v 0.76578454286843911 0 -0.86801447162305889
v 0.75605748473378287 3 -1.1749646256955797
v 0.75605748473378287 0 -1.1749646256955797
v 0.71739116647927981 3 -1.1989640136865771
v 0.71739116647927981 0 -1.1989640136865771
v 0.70908748991241344 3 -1.2171587644535666
v 0.70908748991241344 0 -1.2171587644535666
v 0.43800691335839897 3 -1.0714593006239344
v 0.43800691335839897 0 -1.0714593006239344
v 0.42970323679153261 3 -1.0896540513909241
v 0.42970323679153261 0 -1.0896540513909241
v 0.37869804167243126 3 -1.1084126563041581
v 0.37869804167243121 0 -1.1084126563041581
v 0.36058433431654402 3 -1.099933646584546
v 0.36058433431654402 0 -1.099933646584546
v 0.24850105089988683 3 -1.386552470676127
v 0.24850105089988683 0 -1.386552470676127
v 0.23038734354399962 3 -1.3780734609565148
v 0.23038734354399967 0 -1.3780734609565148
v 0.18538518847106819 3 -1.3848455234261599
v 0.18538518847106819 0 -1.3848455234261599
v 0.17056907678714778 3 -1.3982799134223449
v 0.17056907678714778 0 -1.3982799134223449
v -0.020902716391492424 3 -1.1573409892899928
v -0.020902716391492424 0 -1.1573409892899928
v -0.035718828075412851 3 -1.1707753792861779
v -0.035718828075412851 0 -1.1707753792861779
v -0.089985823113748767 3 -1.1678584567747563
v -0.089985823113748739 0 -1.1678584567747563
v -0.10327649621742346 3 -1.1529132900493146
v -0.10327649621742346 0 -1.1529132900493146
v -0.3194720247565877 3 -1.3719395583021672
v -0.3194720247565877 0 -1.3719395583021672
v -0.33276269786026241 3 -1.3569943915767255
v -0.33276269786026241 0 -1.3569943915767255
v -0.37677964400481961 3 -1.3454374350825569
v -0.37677964400481961 0 -1.3454374350825569
v -0.39569787442756887 3 -1.3519259293355994
v -0.39569787442756887 0 -1.3519259293355994
v -0.47641184803886938 3 -1.054943998557019
v -0.47641184803886938 0 -1.054943998557019
v -0.49533007846161864 3 -1.0614324928100616
v -0.49533007846161864 0 -1.0614324928100616
v -0.5440306039157996 3 -1.0373145739961358
v -0.5440306039157996 0 -1.0373145739961358
v -0.55033608796289513 3 -1.0183345615901382
v -0.55033608796289513 0 -1.0183345615901382
v -0.83547271588444927 3 -1.1341366175417678
v -0.83547271588444927 0 -1.1341366175417678
v -0.84177819993154479 3 -1.1151566051357702
v -0.84177819993154479 0 -1.1151566051357702
v -0.85441729284816181 3 -0.7809264874015357
v -0.85441729284816181 0 -0.7809264874015357
v -0.87435998428092565 3 -0.77941352394607188
v -0.87435998428092565 0 -0.77941352394607188
v -0.87764916727267128 3 -1.0871507397980811
v -0.87764916727267128 0 -1.0871507397980811
v -0.89759185870543501 3 -1.085637776342617
v -0.89759185870543501 0 -1.085637776342617
v -0.90786584120255964 3 -0.71809101332689773
v -0.90786584120255964 0 -0.71809101332689773
v -0.90957133569011861 3 -0.73801816286096067
v -0.90957133569011861 0 -0.73801816286096067
v -0.98732800410038357 3 0.60420071281192222
v -0.98732800410038346 0 0.60420071281192222
v -1.0066190967321755 3 0.59892304807535401
v -1.0066190967321755 0 0.59892304807535401
v -1.0278524669008764 3 0.53234800208985977
v -1.0278524669008764 0 0.53234800208985977
v -1.0333161941140454 3 0.5515872246557556
v -1.0333161941140454 0 0.5515872246557556
v -1.068367664359082 3 0.90041952755915255
v -1.068367664359082 0 0.90041952755915255
v -1.087658756990874 3 0.89514186282258434
v -1.087658756990874 0 0.89514186282258434
v -1.0934243257444378 3 -0.3798662039634535
v -1.0934243257444378 0 -0.3798662039634535
v -1.1111471589750135 3 -0.37059791489366284
v -1.1111471589750135 0 -0.37059791489366284
v -1.1177020596630121 3 -0.3010269005725949
v -1.1177020596630121 0 -0.30102690057259496
v -1.1271410792356276 3 -0.31865939641146535
v -1.1271410792356276 0 -0.3186593964114654
v -1.1457081436148513 3 0.16500890490483694
v -1.1457081436148513 0 0.16500890490483694
v -1.1545507772225816 3 0.082991516783437108
v -1.1545507772225816 0 0.082991516783437108
v -1.1613451286091225 3 0.15253955446911113
v -1.1613451286091225 0 0.15253955446911119
v -1.1671705642651109 3 0.098507346603372778
v -1.1671705642651109 0 0.098507346603372778
v -1.2138514444515445 3 -0.69190278411119754
v -1.2138514444515445 0 -0.69190278411119754
v -1.2155569389391037 3 -0.71182993364526048
v -1.2155569389391037 0 -0.71182993364526048
v -1.2357408681710478 3 -0.65200406332306948
v -1.2357408681710478 0 -0.65200406332306948
v -1.2534637014016234 3 -0.64273577425327888
v -1.2534637014016234 0 -0.64273577425327888
v -1.323274805796069 3 0.44845131308014263
v -1.323274805796069 0 0.44845131308014263
v -1.3287385330092378 3 0.46769053564603846
v -1.3287385330092378 0 0.46769053564603846
v -1.3371776615545117 3 0.40511812264762448
v -1.3371776615545117 0 0.40511812264762448
v -1.3528146465487829 3 0.39264877221189864
v -1.3528146465487829 0 0.3926487722118987
v -1.3884527692323572 3 -0.15608875510082745
v -1.3884527692323572 0 -0.15608875510082745
v -1.392799631593155 3 -0.11078798712811833
v -1.392799631593155 0 -0.11078798712811833
v -1.3978917888049727 3 -0.17372125093969795
v -1.3978917888049727 0 -0.17372125093969784
v -1.4054194186356843 3 -0.095272157308182698
v -1.4054194186356843 0 -0.095272157308182698
vn 0.99998831748962402 0 -0.004828933160752058
vn 0.99998831748962402 0 -0.004828933160752058
vn 0.99998831748962402 0 0.004828933160752058
vn 0.99998831748962402 0 0.004828933160752058
vn -0.004828933160752058 0 -0.99998831748962402
vn -0.004828933160752058 0 -0.99998831748962402
vn -0.004828933160752058 0 0.99998831748962402
vn -0.004828933160752058 0 0.99998831748962402
vn 0.92055588960647583 0 -0.39061084389686584
vn 0.92055588960647583 0 -0.39061084389686584
vn 0.39061084389686584 0 0.92055588960647583
vn 0.39061084389686584 0 0.92055588960647583
vn 0.9167405366897583 0 -0.3994830846786499
vn 0.9167405366897583 0 -0.3994830846786499
vn 0.004828933160752058 0 0.99998831748962402
vn 0.004828933160752058 0 0.99998831748962402
vn 0.004828933160752058 0 -0.99998831748962402
vn 0.004828933160752058 0 -0.99998831748962402
vn -0.3994830846786499 0 -0.9167405366897583
vn -0.3994830846786499 0 -0.9167405366897583
vn -0.99998831748962402 0 0.004828933160752058
vn -0.99998831748962402 0 0.004828933160752058
vn -0.99998831748962402 0 -0.004828933160752058
vn -0.99998831748962402 0 -0.004828933160752058
vn 0.72250521183013916 0 0.69136548042297363
vn 0.72250521183013916 0 0.69136548042297363
vn 0.69136548042297363 0 -0.72250521183013916
vn 0.69136548042297363 0 -0.72250521183013916
vn -0.39061084389686584 0 -0.92055588960647583
vn -0.39061084389686584 0 -0.92055588960647583
vn -0.92055588960647583 0 0.39061084389686584
vn -0.92055588960647583 0 0.39061084389686584
vn 0.3994830846786499 0 0.9167405366897583
vn 0.3994830846786499 0 0.9167405366897583
vn -0.9167405366897583 0 0.3994830846786499
vn -0.9167405366897583 0 0.3994830846786499
vn -0.69136548042297363 0 0.72250521183013916
vn -0.69136548042297363 0 0.72250521183013916
vn -0.72250521183013916 0 -0.69136548042297363
vn -0.72250521183013916 0 -0.69136548042297363
vn 0.7291485071182251 0 0.68435549736022949
vn 0.7291485071182251 0 0.68435549736022949
vn 0.68435549736022949 0 -0.7291485071182251
vn 0.68435549736022949 0 -0.7291485071182251
vn -0.68435549736022949 0 0.7291485071182251
vn -0.68435549736022949 0 0.7291485071182251
vn -0.7291485071182251 0 -0.68435549736022949
vn -0.7291485071182251 0 -0.68435549736022949
vn 0.93686085939407349 0 0.34970226883888245
vn 0.93686085939407349 0 0.34970226883888245
vn 0.34970226883888245 0 -0.93686085939407349
vn 0.34970226883888245 0 -0.93686085939407349
vn -0.34970226883888245 0 0.93686085939407349
vn -0.34970226883888245 0 0.93686085939407349
vn -0.93686085939407349 0 -0.34970226883888245
vn -0.93686085939407349 0 -0.34970226883888245
vn 0.94019454717636108 0 0.34063798189163208
vn 0.94019454717636108 0 0.34063798189163208
vn -0.34063798189163208 0 0.94019454717636108
vn -0.34063798189163208 0 0.94019454717636108
vn 0.34063798189163208 0 -0.94019454717636108
vn 0.34063798189163208 0 -0.94019454717636108
vn -0.94019454717636108 0 -0.34063798189163208
vn -0.94019454717636108 0 -0.34063798189163208
vn 0.99880605936050415 0 -0.048851232975721359
vn 0.99880605936050415 0 -0.048851232975721359
vn -0.048851232975721359 0 -0.99880605936050415
vn -0.048851232975721359 0 -0.99880605936050415
vn 0.048851232975721359 0 0.99880605936050415
vn 0.048851232975721359 0 0.99880605936050415
vn -0.99880605936050415 0 0.048851232975721359
vn -0.99880605936050415 0 0.048851232975721359
vn 0.99828767776489258 0 -0.058495186269283295
vn 0.99828767776489258 0 -0.058495186269283295
vn 0.058495186269283295 0 0.99828767776489258
vn 0.058495186269283295 0 0.99828767776489258
vn -0.058495186269283295 0 -0.99828767776489258
vn -0.058495186269283295 0 -0.99828767776489258
vn -0.99828767776489258 0 0.058495186269283295
vn -0.99828767776489258 0 0.058495186269283295
vn 0.89826339483261108 0 -0.43945750594139099
vn 0.89826339483261108 0 -0.43945750594139099
vn -0.43945750594139099 0 -0.89826339483261108
vn -0.43945750594139099 0 -0.89826339483261108
vn 0.43945750594139099 0 0.89826339483261108
vn 0.43945750594139099 0 0.89826339483261108
vn -0.89826339483261108 0 0.43945750594139099
vn -0.89826339483261108 0 0.43945750594139099
vn 0.89397734403610229 0 -0.44811221957206726
vn 0.89397734403610229 0 -0.44811221957206726
vn 0.44811221957206726 0 0.89397734403610229
vn 0.44811221957206726 0 0.89397734403610229
vn -0.44811221957206726 0 -0.89397734403610229
vn -0.44811221957206726 0 -0.89397734403610229
vn -0.89397734403610229 0 0.44811221957206726
vn -0.89397734403610229 0 0.44811221957206726
vn 0.75857198238372803 0 0.65158927440643311
vn 0.75857198238372803 0 0.65158927440643311
vn -0.65158927440643311 0 0.75857198238372803
vn -0.65158927440643311 0 0.75857198238372803
vn 0.65158927440643311 0 -0.75857198238372803
vn 0.65158927440643311 0 -0.75857198238372803
vn -0.75857198238372803 0 -0.65158927440643311
vn -0.75857198238372803 0 -0.65158927440643311
vn 0.76482945680618286 0 0.64423274993896484
vn 0.76482945680618286 0 0.64423274993896484
vn 0.64423274993896484 0 -0.76482945680618286
vn 0.64423274993896484 0 -0.76482945680618286
vn 0.86863678693771362 0 -0.4954494833946228
vn 0.86863678693771362 0 -0.4954494833946228
vn -0.4954494833946228 0 -0.86863678693771362
vn -0.4954494833946228 0 -0.86863678693771362
vn 0.87338113784790039 0 -0.48703733086585999
vn 0.87338113784790039 0 -0.48703733086585999
vn 0.48703733086585999 0 0.87338113784790039
vn 0.48703733086585999 0 0.87338113784790039
vn 0.4954494833946228 0 0.86863678693771362
vn 0.4954494833946228 0 0.86863678693771362
vn -0.86863678693771362 0 0.4954494833946228
vn -0.86863678693771362 0 0.4954494833946228
vn 0.95428025722503662 0 0.29891327023506165
vn 0.95428025722503662 0 0.29891327023506165
vn -0.29891327023506165 0 0.95428025722503662
vn -0.29891327023506165 0 0.95428025722503662
vn 0.95712262392044067 0 0.28968313336372375
vn 0.95712262392044067 0 0.28968313336372375
vn 0.28968313336372375 0 -0.95712262392044067
vn 0.28968313336372375 0 -0.95712262392044067
vn 0.9937090277671814 0 -0.11199281364679337
vn 0.9937090277671814 0 -0.11199281364679337
vn 0.99474430084228516 0 -0.10239054262638092
vn 0.99474430084228516 0 -0.10239054262638092
vn -0.11199281364679337 0 -0.9937090277671814
vn -0.11199281364679337 0 -0.9937090277671814
vn 0.10239054262638092 0 0.99474430084228516
vn 0.10239054262638092 0 0.99474430084228516
vn -0.64423274993896484 0 0.76482945680618286
vn -0.64423274993896484 0 0.76482945680618286
vn -0.76482945680618286 0 -0.64423274993896484
vn -0.76482945680618286 0 -0.64423274993896484
vn 0.29891327023506165 0 -0.95428025722503662
vn 0.29891327023506165 0 -0.95428025722503662
vn -0.95428025722503662 0 -0.29891327023506165
vn -0.95428025722503662 0 -0.29891327023506165
vn -0.48703733086585999 0 -0.87338113784790039
vn -0.48703733086585999 0 -0.87338113784790039
vn -0.87338113784790039 0 0.48703733086585999
vn -0.87338113784790039 0 0.48703733086585999
vn 0.11199281364679337 0 0.9937090277671814
vn 0.11199281364679337 0 0.9937090277671814
vn -0.9937090277671814 0 0.11199281364679337
vn -0.9937090277671814 0 0.11199281364679337
vn -0.28968313336372375 0 0.95712262392044067
vn -0.28968313336372375 0 0.95712262392044067
vn -0.10239054262638092 0 -0.99474430084228516
vn -0.10239054262638092 0 -0.99474430084228516
vn -0.95712262392044067 0 -0.28968313336372375
vn -0.95712262392044067 0 -0.28968313336372375
vn -0.99474430084228516 0 0.10239054262638092
vn -0.99474430084228516 0 0.10239054262638092
f 6//6 22//22 21//21 5//5
f 22//22 16//16 15//15 21//21
f 16//16 2//2 1//1 15//15
f 2//2 6//6 5//5 1//1
f 20//20 36//36 35//35 19//19
f 36//36 34//34 33//33 35//35
f 34//34 14//14 13//13 33//33
f 14//14 20//20 19//19 13//13
f 48//48 46//46 45//45 47//47
f 46//46 42//42 41//41 45//45
f 42//42 44//44 43//43 41//41
f 44//44 48//48 47//47 43//43
f 64//64 60//60 59//59 63//63
f 60//60 58//58 57//57 59//59
f 58//58 62//62 61//61 57//57
f 62//62 64//64 63//63 61//61
f 80//80 76//76 75//75 79//79
f 76//76 74//74 73//73 75//75
f 74//74 78//78 77//77 73//73
f 78//78 80//80 79//79 77//77
f 96//96 92//92 91//91 95//95
f 92//92 90//90 89//89 91//91
f 90//90 94//94 93//93 89//89
f 94//94 96//96 95//95 93//93
f 138//138 106//106 105//105 137//137
f 106//106 108//108 107//107 105//105
f 108//108 140//140 139//139 107//107
f 140//140 138//138 137//137 139//139
f 154//154 126//126 125//125 153//153
f 126//126 128//128 127//127 125//125
f 128//128 158//158 157//157 127//127
f 158//158 154//154 153//153 157//157
f 150//150 130//130 129//129 149//149
f 130//130 134//134 133//133 129//129
f 134//134 152//152 151//151 133//133
f 152//152 150//150 149//149 151//151
f 118//118 110//110 109//109 117//117
f 110//110 112//112 111//111 109//109
f 112//112 120//120 119//119 111//111
f 120//120 118//118 117//117 119//119
f 8//8 4//4 3//3 7//7
f 4//4 18//18 17//17 3//3
f 18//18 24//24 23//23 17//17
f 24//24 8//8 7//7 23//23
f 12//12 10//10 9//9 11//11
f 10//10 30//30 29//29 9//9
f 30//30 32//32 31//31 29//29
f 32//32 12//12 11//11 31//31
f 26//26 28//28 27//27 25//25
f 28//28 40//40 39//39 27//27
f 40//40 38//38 37//37 39//39
f 38//38 26//26 25//25 37//37
f 50//50 52//52 51//51 49//49
f 52//52 56//56 55//55 51//51
f 56//56 54//54 53//53 55//55
f 54//54 50//50 49//49 53//53
f 66//66 68//68 67//67 65//65
f 68//68 72//72 71//71 67//67
f 72//72 70//70 69//69 71//71
f 70//70 66//66 65//65 69//69
f 82//82 84//84 83//83 81//81
f 84//84 88//88 87//87 83//83
f 88//88 86//86 85//85 87//87
f 86//86 82//82 81//81 85//85
f 102//102 104//104 103//103 101//101
f 104//104 100//100 99//99 103//103
f 100//100 98//98 97//97 99//99
f 98//98 102//102 101//101 97//97
f 142//142 144//144 143//143 141//141
f 144//144 124//124 123//123 143//143
f 124//124 122//122 121//121 123//123
f 122//122 142//142 141//141 121//121
f 156//156 160//160 159//159 155//155
f 160//160 136//136 135//135 159//159
f 136//136 132//132 131//131 135//135
f 132//132 156//156 155//155 131//131
f 146//146 148//148 147//147 145//145
f 148//148 116//116 115//115 147//147
f 116//116 114//114 113//113 115//115
f 114//114 146//146 145//145 113//113
