# Rhino

mtllib Pannelli128.mtl
usemtl diffuse_Black
v 1.3174048744269835 3 -0.29410020220365524
v 1.3174048744269835 0 -0.29410020220365524
v 1.3174048744269853 3 0.29410020220364741
v 1.3174048744269853 0 0.29410020220364741
v 1.3000247973644847 3 -0.30399630857442611
v 1.3000247973644847 0 -0.30399630857442611
v 1.3000247973644865 3 0.30399630857441845
v 1.3000247973644865 0 0.30399630857441845
v 1.2969314975350283 3 -0.37419142534504435
v 1.2969314975350283 0 -0.37419142534504435
v 1.2864325597650561 3 -0.35716872562666063
v 1.2864325597650561 0 -0.35716872562666063
v 1.1684122318585417 3 -0.032431267719159183
v 1.1684122318585417 0 -0.032431267719159218
v 1.1684122318585421 3 0.032431267719152307
v 1.1684122318585421 0 0.032431267719152307
v 1.1510321547960429 3 -0.042327374089930071
v 1.1510321547960429 0 -0.042327374089930106
v 1.1510321547960434 3 0.04232737408992332
v 1.1510321547960434 0 0.04232737408992332
v 1.0406431231313213 3 -0.53226010649119715
v 1.0406431231313213 0 -0.53226010649119715
v 1.0301441853613491 3 -0.51523740677281349
v 1.0301441853613491 0 -0.51523740677281349
v 1.014658199739457 3 -0.89023551367134934
v 1.014658199739457 0 -0.89023551367134934
v 1.0095160418774358 3 -0.58916575925171166
v 1.0095160418774358 0 -0.58916575925171166
v 0.99466111623655895 3 -0.89057705631601025
v 0.99466111623655895 0 -0.89057705631601025
v 0.98951895837453763 3 -0.58950730189637257
v 0.98951895837453763 0 -0.58950730189637257
v 0.95826113073846408 3 -0.95067667343637241
v 0.95826113073846408 0 -0.95067667343637241
v 0.95721920492811785 3 -0.930703832111069
v 0.95721920492811785 0 -0.930703832111069
v 0.65755635886510955 3 -0.9663635783692337
v 0.65755635886510955 0 -0.9663635783692337
v 0.6565144330547632 3 -0.94639073704393029
v 0.6565144330547632 0 -0.94639073704393029
v 0.60293910206772339 3 -1.0013507726467776
v 0.60293910206772339 0 -1.0013507726467776
v 0.58523121710871873 3 -0.99205395543449093
v 0.58523121710871873 0 -0.99205395543449082
v 0.46296916722288683 3 -1.267955078976047
v 0.46296916722288678 0 -1.267955078976047
v 0.44526128226388223 3 -1.2586582617637603
v 0.44526128226388223 0 -1.2586582617637603
v 0.39315592142038491 3 -1.2758944512934975
v 0.39315592142038491 0 -1.2758944512934975
v 0.38448520291335447 3 -1.2939171769633804
v 0.38448520291335447 0 -1.2939171769633804
v 0.12181147308532386 3 -1.1453508602155738
v 0.12181147308532386 0 -1.1453508602155738
v 0.11314075457829344 3 -1.1633735858854564
v 0.11314075457829344 0 -1.1633735858854564
v 0.048433449185364727 3 -1.1678583525764328
v 0.048433449185364734 0 -1.1678583525764328
v 0.037359321987330205 3 -1.1512041126717789
v 0.037359321987330246 0 -1.1512041126717789
v 0.029526897022160641 3 1.3347682914055494
v 0.029526897022160631 0 1.3347682914055494
v 0.016261129636137163 3 1.3497355695702635
v 0.016261129636137166 0 1.3497355695702635
v -0.19581570159867093 3 1.1350431000535579
v -0.19581570159867093 0 1.1350431000535579
v -0.2023075109858081 3 -1.3345869035394189
v -0.20230751098580815 0 -1.3345869035394189
v -0.2090814689846944 3 1.150010378218272
v -0.2090814689846944 0 1.150010378218272
v -0.21338163818384262 3 -1.317932663634765
v -0.21338163818384265 0 -1.317932663634765
v -0.26736660530636769 3 -1.3080494362815178
v -0.26736660530636769 0 -1.3080494362815178
v -0.27255138844623855 3 1.1366418395161064
v -0.27255138844623855 0 1.1366418395161064
v -0.27865288970277619 3 1.1175952733579646
v -0.27865288970277619 0 1.1175952733579646
v -0.2836226417958907 3 -1.3197002421614263
v -0.2836226417958907 0 -1.3197002421614263
v -0.44277744781980427 3 -1.0633037005832113
v -0.44277744781980427 0 -1.0633037005832113
v -0.45903348430932711 3 -1.0749545064631201
v -0.45903348430932711 0 -1.0749545064631201
v -0.51795515801707281 3 -1.0478365258789368
v -0.51795515801707281 0 -1.0478365258789368
v -0.51967853434622635 3 -1.0279109148712884
v -0.51967853434622635 0 -1.0279109148712884
v -0.55931045483399822 3 1.2285041095631684
v -0.55931045483399822 0 1.2285041095631684
v -0.56541195609053585 3 1.2094575434050263
v -0.56541195609053585 0 1.2094575434050263
v -0.61464130939759043 3 1.1851979961894394
v -0.61464130939759032 0 1.1851979961894394
v -0.63346241819026794 3 1.1919630434039239
v -0.63346241819026783 0 1.1919630434039239
v -0.71649371718530253 3 0.90183334447433161
v -0.71649371718530253 0 0.90183334447433161
v -0.73531482597798004 3 0.90859839168881618
v -0.73531482597798004 0 0.90859839168881629
v -0.78079592668833531 3 0.84677290275414152
v -0.78079592668833531 0 0.84677290275414152
v -0.78458323008203701 3 0.86641103741617265
v -0.78458323008203701 0 0.86641103741617265
v -0.81794884518972932 3 -1.0737831339488413
v -0.81794884518972932 0 -1.0737831339488413
v -0.81967222151888286 3 -1.0538575229411928
v -0.81967222151888286 0 -1.0538575229411928
v -0.86229179773196785 3 -1.0192796892676801
v -0.86229179773196785 0 -1.0192796892676801
v -0.88214479824035685 3 -1.0217000964263865
v -0.88214479824035685 0 -1.0217000964263865
v -0.89873268116187666 3 -0.72037920276987144
v -0.89873268116187666 0 -0.72037920276987144
v -0.91858568167026566 3 -0.72279960992857784
v -0.91858568167026566 0 -0.72279960992857784
v -0.94921532708367673 3 -0.652423858240331
v -0.94921532708367684 0 -0.652423858240331
v -0.95726552515838026 3 -0.67073217085941328
v -0.95726552515838026 0 -0.67073217085941328
v -1.061382846059536 3 0.44736236102552285
v -1.061382846059536 0 0.44736236102552279
v -1.076461461069913 3 0.78975246262400156
v -1.076461461069913 0 0.78975246262400156
v -1.0802487644636147 3 0.8093905972860328
v -1.0802487644636147 0 0.8093905972860328
v -1.0811416119973014 3 0.44426539983483693
v -1.0811416119973014 0 0.44426539983483693
v -1.0913737853478154 3 0.36819816488862578
v -1.0913737853478154 0 0.36819816488862578
v -1.1041206935519638 3 0.38360972974217072
v -1.1041206935519638 0 0.38360972974217072
v -1.1080097126719501 3 0.74484408168023297
v -1.1080097126719501 0 0.74484408168023297
v -1.1277684786097155 3 0.74174712048954705
v -1.1277684786097155 0 0.74174712048954705
v -1.1341874220584087 3 -0.20071252979391263
v -1.1341874220584087 0 -0.20071252979391263
v -1.1458659107781661 3 -0.11686720022441995
v -1.1458659107781661 0 -0.11686720022441983
v -1.1527665317915974 3 -0.19330870095187846
v -1.1527665317915974 0 -0.19330870095187846
v -1.1617145991444391 3 -0.12906634269710082
v -1.1617145991444391 0 -0.12906634269710079
v -1.224859482055884 3 -0.53122262621921412
v -1.224859482055884 0 -0.53122262621921412
v -1.2329096801305877 3 -0.5495309388382964
v -1.2329096801305877 0 -0.5495309388382964
v -1.2456571236733061 3 -0.48043372033132009
v -1.2456571236733061 0 -0.48043372033132009
v -1.2642362334064952 3 -0.47302989148928587
v -1.2642362334064952 0 -0.47302989148928587
v -1.3234054236117954 3 0.17628475301151791
v -1.3234054236117954 0 0.17628475301151791
v -1.3295323353269213 3 0.12174563117250099
v -1.3295323353269213 0 0.12174563117250098
v -1.3361523318159438 3 0.19169631786506292
v -1.3361523318159438 0 0.19169631786506292
v -1.3453810236931942 3 0.10954648869982012
v -1.3453810236931942 0 0.10954648869982003
vn 0.96435868740081787 0 -0.26459833979606628
vn 0.96435868740081787 0 -0.26459833979606628
vn 0.96435868740081787 0 0.26459833979606628
vn 0.96435868740081787 0 0.26459833979606628
vn -0.26459833979606628 0 -0.96435868740081787
vn -0.26459833979606628 0 -0.96435868740081787
vn -0.26459833979606628 0 0.96435868740081787
vn -0.26459833979606628 0 0.96435868740081787
vn 0.97303682565689087 0 -0.23064984381198883
vn 0.97303682565689087 0 -0.23064984381198883
vn 0.23064984381198883 0 0.97303682565689087
vn 0.23064984381198883 0 0.97303682565689087
vn 0.26459833979606628 0 0.96435868740081787
vn 0.26459833979606628 0 0.96435868740081787
vn 0.26459833979606628 0 -0.96435868740081787
vn 0.26459833979606628 0 -0.96435868740081787
vn -0.96435868740081787 0 0.26459833979606628
vn -0.96435868740081787 0 0.26459833979606628
vn -0.96435868740081787 0 -0.26459833979606628
vn -0.96435868740081787 0 -0.26459833979606628
vn -0.23064984381198883 0 -0.97303682565689087
vn -0.23064984381198883 0 -0.97303682565689087
vn -0.97303682565689087 0 0.23064984381198883
vn -0.97303682565689087 0 0.23064984381198883
vn 0.71907901763916016 0 -0.69492828845977783
vn 0.71907901763916016 0 -0.69492828845977783
vn 0.69492828845977783 0 0.71907901763916016
vn 0.69492828845977783 0 0.71907901763916016
vn -0.69492828845977783 0 -0.71907901763916016
vn -0.69492828845977783 0 -0.71907901763916016
vn -0.71907901763916016 0 0.69492828845977783
vn -0.71907901763916016 0 0.69492828845977783
vn 0.74298423528671265 0 -0.66930896043777466
vn 0.74298423528671265 0 -0.66930896043777466
vn 0.66930896043777466 0 0.74298423528671265
vn 0.66930896043777466 0 0.74298423528671265
vn -0.66930896043777466 0 -0.74298423528671265
vn -0.66930896043777466 0 -0.74298423528671265
vn -0.74298423528671265 0 0.66930896043777466
vn -0.74298423528671265 0 0.66930896043777466
vn 0.95476037263870239 0 0.29737618565559387
vn 0.95476037263870239 0 0.29737618565559387
vn -0.29737618565559387 0 0.95476037263870239
vn -0.29737618565559387 0 0.95476037263870239
vn 0.29737618565559387 0 -0.95476037263870239
vn 0.29737618565559387 0 -0.95476037263870239
vn -0.95476037263870239 0 -0.29737618565559387
vn -0.95476037263870239 0 -0.29737618565559387
vn 0.94375574588775635 0 0.33064338564872742
vn 0.94375574588775635 0 0.33064338564872742
vn 0.33064338564872742 0 -0.94375574588775635
vn 0.33064338564872742 0 -0.94375574588775635
vn -0.33064338564872742 0 0.94375574588775635
vn -0.33064338564872742 0 0.94375574588775635
vn -0.94375574588775635 0 -0.33064338564872742
vn -0.94375574588775635 0 -0.33064338564872742
vn 0.98034584522247314 0 -0.19728678464889526
vn 0.98034584522247314 0 -0.19728678464889526
vn 0.19728678464889526 0 0.98034584522247314
vn 0.19728678464889526 0 0.98034584522247314
vn 0.99818891286849976 0 -0.060157500207424164
vn 0.99818891286849976 0 -0.060157500207424164
vn 0.060157500207424164 0 0.99818891286849976
vn 0.060157500207424164 0 0.99818891286849976
vn -0.060157500207424164 0 -0.99818891286849976
vn -0.060157500207424164 0 -0.99818891286849976
vn -0.19728678464889526 0 -0.98034584522247314
vn -0.19728678464889526 0 -0.98034584522247314
vn -0.99818891286849976 0 0.060157500207424164
vn -0.99818891286849976 0 0.060157500207424164
vn -0.98034584522247314 0 0.19728678464889526
vn -0.98034584522247314 0 0.19728678464889526
vn 0.98665589094161987 0 -0.1628195196390152
vn 0.98665589094161987 0 -0.1628195196390152
vn 0.88911843299865723 0 0.45767718553543091
vn 0.88911843299865723 0 0.45767718553543091
vn 0.45767718553543091 0 -0.88911843299865723
vn 0.45767718553543091 0 -0.88911843299865723
vn -0.1628195196390152 0 -0.98665589094161987
vn -0.1628195196390152 0 -0.98665589094161987
vn 0.1628195196390152 0 0.98665589094161987
vn 0.1628195196390152 0 0.98665589094161987
vn -0.98665589094161987 0 0.1628195196390152
vn -0.98665589094161987 0 0.1628195196390152
vn 0.7654072642326355 0 -0.64354616403579712
vn 0.7654072642326355 0 -0.64354616403579712
vn 0.64354616403579712 0 0.7654072642326355
vn 0.64354616403579712 0 0.7654072642326355
vn -0.45767718553543091 0 0.88911843299865723
vn -0.45767718553543091 0 0.88911843299865723
vn -0.88911843299865723 0 -0.45767718553543091
vn -0.88911843299865723 0 -0.45767718553543091
vn 0.90460723638534546 0 0.42624610662460327
vn 0.90460723638534546 0 0.42624610662460327
vn -0.42624610662460327 0 0.90460723638534546
vn -0.42624610662460327 0 0.90460723638534546
vn 0.42624610662460327 0 -0.90460723638534546
vn 0.42624610662460327 0 -0.90460723638534546
vn -0.90460723638534546 0 -0.42624610662460327
vn -0.90460723638534546 0 -0.42624610662460327
vn 0.82821428775787354 0 -0.56041151285171509
vn 0.82821428775787354 0 -0.56041151285171509
vn 0.56041151285171509 0 0.82821428775787354
vn 0.56041151285171509 0 0.82821428775787354
vn -0.64354616403579712 0 -0.7654072642326355
vn -0.64354616403579712 0 -0.7654072642326355
vn -0.7654072642326355 0 0.64354616403579712
vn -0.7654072642326355 0 0.64354616403579712
vn 0.78748387098312378 0 -0.61633527278900146
vn 0.78748387098312378 0 -0.61633527278900146
vn -0.61633527278900146 0 -0.78748387098312378
vn -0.61633527278900146 0 -0.78748387098312378
vn 0.61633527278900146 0 0.78748387098312378
vn 0.61633527278900146 0 0.78748387098312378
vn -0.78748387098312378 0 0.61633527278900146
vn -0.78748387098312378 0 0.61633527278900146
vn 0.93191409111022949 0 0.36267909407615662
vn 0.93191409111022949 0 0.36267909407615662
vn 0.36267909407615662 0 -0.93191409111022949
vn 0.36267909407615662 0 -0.93191409111022949
vn 0.80807197093963623 0 -0.58908373117446899
vn 0.80807197093963623 0 -0.58908373117446899
vn -0.56041151285171509 0 -0.82821428775787354
vn -0.56041151285171509 0 -0.82821428775787354
vn -0.82821428775787354 0 0.56041151285171509
vn -0.82821428775787354 0 0.56041151285171509
vn -0.58908373117446899 0 -0.80807197093963623
vn -0.58908373117446899 0 -0.80807197093963623
vn 0.99555236101150513 0 -0.094209834933280945
vn 0.99555236101150513 0 -0.094209834933280945
vn 0.094209834933280945 0 0.99555236101150513
vn 0.094209834933280945 0 0.99555236101150513
vn 0.58908373117446899 0 0.80807197093963623
vn 0.58908373117446899 0 0.80807197093963623
vn -0.80807197093963623 0 0.58908373117446899
vn -0.80807197093963623 0 0.58908373117446899
vn 0.91863560676574707 0 0.39510583877563477
vn 0.91863560676574707 0 0.39510583877563477
vn 0.99164056777954102 0 -0.12903094291687012
vn 0.99164056777954102 0 -0.12903094291687012
vn -0.39510583877563477 0 0.91863560676574707
vn -0.39510583877563477 0 0.91863560676574707
vn -0.12903094291687012 0 -0.99164056777954102
vn -0.12903094291687012 0 -0.99164056777954102
vn -0.36267909407615662 0 0.93191409111022949
vn -0.36267909407615662 0 0.93191409111022949
vn -0.93191409111022949 0 -0.36267909407615662
vn -0.93191409111022949 0 -0.36267909407615662
vn 0.39510583877563477 0 -0.91863560676574707
vn 0.39510583877563477 0 -0.91863560676574707
vn -0.91863560676574707 0 -0.39510583877563477
vn -0.91863560676574707 0 -0.39510583877563477
vn -0.094209834933280945 0 -0.99555236101150513
vn -0.094209834933280945 0 -0.99555236101150513
vn 0.12903094291687012 0 0.99164056777954102
vn 0.12903094291687012 0 0.99164056777954102
vn -0.99555236101150513 0 0.094209834933280945
vn -0.99555236101150513 0 0.094209834933280945
vn -0.99164056777954102 0 0.12903094291687012
vn -0.99164056777954102 0 0.12903094291687012
f 6//6 18//18 17//17 5//5
f 18//18 14//14 13//13 17//17
f 14//14 2//2 1//1 13//13
f 2//2 6//6 5//5 1//1
f 30//30 32//32 31//31 29//29
f 32//32 28//28 27//27 31//31
f 28//28 26//26 25//25 27//27
f 26//26 30//30 29//29 25//25
f 48//48 44//44 43//43 47//47
f 44//44 42//42 41//41 43//43
f 42//42 46//46 45//45 41//41
f 46//46 48//48 47//47 45//45
f 72//72 60//60 59//59 71//71
f 60//60 58//58 57//57 59//59
f 58//58 68//68 67//67 57//57
f 68//68 72//72 71//71 67//67
f 108//108 88//88 87//87 107//107
f 88//88 86//86 85//85 87//87
f 86//86 106//106 105//105 85//85
f 106//106 108//108 107//107 105//105
f 146//146 118//118 117//117 145//145
f 118//118 120//120 119//119 117//117
f 120//120 148//148 147//147 119//119
f 148//148 146//146 145//145 147//147
f 156//156 140//140 139//139 155//155
f 140//140 144//144 143//143 139//139
f 144//144 160//160 159//159 143//143
f 160//160 156//156 155//155 159//159
f 134//134 122//122 121//121 133//133
f 122//122 128//128 127//127 121//121
f 128//128 136//136 135//135 127//127
f 136//136 134//134 133//133 135//135
f 94//94 98//98 97//97 93//93
f 98//98 100//100 99//99 97//97
f 100//100 96//96 95//95 99//99
f 96//96 94//94 93//93 95//95
f 62//62 66//66 65//65 61//61
f 66//66 70//70 69//69 65//65
f 70//70 64//64 63//63 69//69
f 64//64 62//62 61//61 63//63
f 8//8 4//4 3//3 7//7
f 4//4 16//16 15//15 3//3
f 16//16 20//20 19//19 15//15
f 20//20 8//8 7//7 19//19
f 12//12 10//10 9//9 11//11
f 10//10 22//22 21//21 9//9
f 22//22 24//24 23//23 21//21
f 24//24 12//12 11//11 23//23
f 36//36 34//34 33//33 35//35
f 34//34 38//38 37//37 33//33
f 38//38 40//40 39//39 37//37
f 40//40 36//36 35//35 39//39
f 50//50 52//52 51//51 49//49
f 52//52 56//56 55//55 51//51
f 56//56 54//54 53//53 55//55
f 54//54 50//50 49//49 53//53
f 74//74 80//80 79//79 73//73
f 80//80 84//84 83//83 79//79
f 84//84 82//82 81//81 83//83
f 82//82 74//74 73//73 81//81
f 110//110 112//112 111//111 109//109
f 112//112 116//116 115//115 111//111
f 116//116 114//114 113//113 115//115
f 114//114 110//110 109//109 113//113
f 150//150 152//152 151//151 149//149
f 152//152 142//142 141//141 151//151
f 142//142 138//138 137//137 141//141
f 138//138 150//150 149//149 137//137
f 154//154 158//158 157//157 153//153
f 158//158 132//132 131//131 157//157
f 132//132 130//130 129//129 131//131
f 130//130 154//154 153//153 129//129
f 124//124 126//126 125//125 123//123
f 126//126 104//104 103//103 125//125
f 104//104 102//102 101//101 103//103
f 102//102 124//124 123//123 101//101
f 92//92 90//90 89//89 91//91
f 90//90 76//76 75//75 89//89
f 76//76 78//78 77//77 75//75
f 78//78 92//92 91//91 77//77
