# Rhino

mtllib Pannelli98.mtl
usemtl diffuse_Black
v 1.3916037131817709 3 -0.24125826385754554
v 1.3916037131817709 0 -0.24125826385754559
v 1.3916037131817718 3 0.24125826385753862
v 1.3916037131817718 0 0.24125826385753862
v 1.3776576095064428 3 -0.25559375102321263
v 1.3776576095064428 0 -0.25559375102321263
v 1.3776576095064441 3 0.2555937510232057
v 1.3776576095064441 0 0.2555937510232057
v 1.3760563785636684 3 -0.31817493212868142
v 1.3760563785636684 0 -0.31817493212868142
v 1.3687729842872745 3 -0.2995482800458571
v 1.3687729842872745 0 -0.2995482800458571
v 1.1886491113439626 3 -0.76281041846716913
v 1.1886491113439626 0 -0.76281041846716913
v 1.1711346259608073 3 -0.026777603936043736
v 1.1711346259608073 0 -0.026777603936043747
v 1.1711346259608071 3 0.026777603936037866
v 1.1711346259608071 0 0.026777603936037866
v 1.1702300385170206 3 -0.77060386162124506
v 1.1702300385170206 0 -0.77060386162124506
v 1.1571885222854792 3 -0.041113091101710839
v 1.1571885222854792 0 -0.041113091101710797
v 1.1571885222854794 3 0.041113091101704913
v 1.1571885222854794 0 0.041113091101704913
v 1.1449711776878642 3 -0.80765689302895682
v 1.1449711776878642 0 -0.80765689302895682
v 1.1444482641843416 3 -0.82765005589699325
v 1.1444482641843416 0 -0.82765005589699325
v 1.0895923794525713 3 -0.43018809704104877
v 1.0895923794525713 0 -0.43018809704104877
v 1.0823089851761774 3 -0.41156144495822439
v 1.0823089851761774 0 -0.41156144495822439
v 1.0687917755847254 3 -0.47953883329649716
v 1.0687917755847254 0 -0.47953883329649716
v 1.0503727027577834 3 -0.48733227645057314
v 1.0503727027577834 0 -0.48733227645057314
v 0.83749126317663813 3 -0.7996148738436446
v 0.83749126317663813 0 -0.7996148738436446
v 0.83696834967311562 3 -0.81960803671168092
v 0.83696834967311562 0 -0.81960803671168092
v 0.79905938476836447 3 -1.164590290202719
v 0.79905938476836447 0 -1.164590290202719
v 0.79863313798322677 3 -0.85700552105104888
v 0.79863313798322677 0 -0.85700552105104888
v 0.77905940397237572 3 -1.1646180059037941
v 0.77905940397237572 0 -1.1646180059037941
v 0.77863315718723802 3 -0.85703323675212417
v 0.77863315718723802 0 -0.85703323675212417
v 0.74139231448733889 3 -1.1889516771560689
v 0.74139231448733889 0 -1.1889516771560689
v 0.73314519819689217 3 -1.2071721346940081
v 0.73314519819689217 0 -1.2071721346940081
v 0.46117528414054387 3 -1.0621171873513191
v 0.46117528414054387 0 -1.0621171873513191
v 0.45292816785009715 3 -1.0803376448892583
v 0.45292816785009715 0 -1.0803376448892583
v 0.40307753175176536 3 -1.0999099306733349
v 0.40307753175176536 0 -1.0999099306733349
v 0.38463692961546619 3 -1.0921675671549562
v 0.38463692961546619 0 -1.0921675671549562
v 0.28400576264454475 3 -1.3835126205443664
v 0.28400576264454475 0 -1.3835126205443664
v 0.26556516050824558 3 -1.3757702570259878
v 0.26556516050824558 0 -1.3757702570259878
v 0.22140412091888578 3 -1.3835638293310712
v 0.22140412091888578 0 -1.3835638293310712
v 0.20672771853552072 3 -1.3971507058331063
v 0.20672771853552072 0 -1.3971507058331063
v 0.012448106660664947 3 -1.1578517206489582
v 0.012448106660664947 0 -1.1578517206489582
v -0.0022282957227000716 3 -1.1714385971509933
v -0.0022282957227000716 0 -1.1714385971509933
v -0.055767084415044514 3 -1.170112552061878
v -0.055767084415044493 0 -1.170112552061878
v -0.069752866295726135 3 -1.155815772522905
v -0.069752866295726121 0 -1.155815772522905
v -0.2756408772433519 3 -1.3852034331510172
v -0.27564087724335196 0 -1.3852034331510172
v -0.28962665912403351 3 -1.3709066536120442
v -0.28962665912403357 0 -1.3709066536120442
v -0.33334772605308183 3 -1.3609364232499481
v -0.33334772605308183 0 -1.3609364232499481
v -0.35214900680854977 3 -1.3677563823373666
v -0.35214900680854977 0 -1.3677563823373666
v -0.43823360384093618 3 -1.0717867655619628
v -0.43823360384093618 0 -1.0717867655619628
v -0.45703488459640418 3 -1.0786067246493813
v -0.45703488459640418 0 -1.0786067246493813
v -0.50585546069849918 3 -1.0565905569701184
v -0.50585546069849918 0 -1.0565905569701184
v -0.51319045202337499 3 -1.0379841628470219
v -0.51319045202337499 0 -1.0379841628470219
v -0.7920079075171208 3 -1.1693972459567372
v -0.7920079075171208 0 -1.1693972459567372
v -0.79934289884199661 3 -1.1507908518336407
v -0.79934289884199661 0 -1.1507908518336407
v -0.82010629195184415 3 -0.81743576644907412
v -0.82010629195184415 0 -0.81743576644907412
v -0.83575915242554044 3 -1.1246222893621063
v -0.83575915242554044 0 -1.1246222893621063
v -0.84008037771685706 3 -0.81641797577712483
v -0.84008037771685706 0 -0.81641797577712483
v -0.85573323819055336 3 -1.123604498690157
v -0.85573323819055336 0 -1.123604498690157
v -0.87604970465545562 3 -0.75717400730761886
v -0.87604970465545562 0 -0.75717400730761886
v -0.87651720375121855 3 -0.77716854267595037
v -0.87651720375121855 0 -0.77716854267595037
v -1.0249591638798463 3 0.53873395544360758
v -1.0249591638798463 0 0.53873395544360758
v -1.0437414704467558 3 0.53186191353260071
v -1.0437414704467558 0 0.53186191353260071
v -1.0606073602045523 3 0.46463705173944114
v -1.0606073602045523 0 0.46463705173944114
v -1.0669597023198032 3 0.48360143281689261
v -1.0669597023198032 0 0.48360143281689261
v -1.0732104152811588 3 -0.43473551373361663
v -1.0732104152811588 0 -0.43473551373361663
v -1.0912210853218602 3 -0.4260397811776459
v -1.0912210853218602 0 -0.4260397811776459
v -1.1013564665276601 3 -0.35747656707383757
v -1.1013564665276601 0 -0.35747656707383757
v -1.1095530519156107 3 -0.37571981206967187
v -1.1095530519156107 0 -0.37571981206967187
v -1.1306460366003233 3 0.82759180428101331
v -1.1306460366003233 0 0.82759180428101331
v -1.1494283431672327 3 0.82071976237000643
v -1.1494283431672327 0 0.82071976237000643
v -1.1537343130879683 3 0.098349871238465933
v -1.1537343130879683 0 0.098349871238465905
v -1.1578049609610825 3 0.016224510565636077
v -1.1578049609610825 0 0.016224510565636077
v -1.1683730021575913 3 0.084722370281837767
v -1.1683730021575913 0 0.084722370281837753
v -1.1710242792469172 3 0.031232829060983576
v -1.1710242792469172 0 0.031232829060983576
v -1.1835507271962697 3 -0.74998422033153711
v -1.1835507271962697 0 -0.74998422033153711
v -1.1840182262920327 3 -0.76997875569986862
v -1.1840182262920327 0 -0.76997875569986862
v -1.2069442882341448 3 -0.71172616903700836
v -1.2069442882341448 0 -0.71172616903700836
v -1.2249549582748465 3 -0.70303043648103758
v -1.2249549582748465 0 -0.70303043648103758
v -1.3522653790453592 3 0.36694277377873741
v -1.3522653790453592 0 0.36694277377873741
v -1.3586177211606103 3 0.38590715485618887
v -1.3586177211606103 0 0.38590715485618887
v -1.3633151011204909 3 0.32348197731859513
v -1.3633151011204909 0 0.32348197731859513
v -1.377953790190114 3 0.30985447636196695
v -1.377953790190114 0 0.30985447636196695
v -1.3819239509597709 3 -0.23141920481424924
v -1.3819239509597709 0 -0.23141920481424927
v -1.388621691578749 3 -0.18707873281080234
v -1.388621691578749 0 -0.18707873281080234
v -1.3901205363477216 3 -0.24966244981008356
v -1.3901205363477216 0 -0.24966244981008356
v -1.4018410098645837 3 -0.17207041431545483
v -1.4018410098645837 0 -0.17207041431545483
vn 0.99990522861480713 0 0.013766761869192123
vn 0.99990522861480713 0 0.013766761869192123
vn 0.99990522861480713 0 -0.013766761869192123
vn 0.99990522861480713 0 -0.013766761869192123
vn 0.013766761869192123 0 -0.99990522861480713
vn 0.013766761869192123 0 -0.99990522861480713
vn 0.013766761869192123 0 0.99990522861480713
vn 0.013766761869192123 0 0.99990522861480713
vn 0.91605848073959351 0 -0.40104472637176514
vn 0.91605848073959351 0 -0.40104472637176514
vn 0.40104472637176514 0 0.91605848073959351
vn 0.40104472637176514 0 0.91605848073959351
vn 0.92675238847732544 0 -0.37567272782325745
vn 0.92675238847732544 0 -0.37567272782325745
vn -0.013766761869192123 0 0.99990522861480713
vn -0.013766761869192123 0 0.99990522861480713
vn -0.013766761869192123 0 -0.99990522861480713
vn -0.013766761869192123 0 -0.99990522861480713
vn -0.37567272782325745 0 -0.92675238847732544
vn -0.37567272782325745 0 -0.92675238847732544
vn -0.99990522861480713 0 -0.013766761869192123
vn -0.99990522861480713 0 -0.013766761869192123
vn -0.99990522861480713 0 0.013766761869192123
vn -0.99990522861480713 0 0.013766761869192123
vn 0.72535282373428345 0 0.6883772611618042
vn 0.72535282373428345 0 0.6883772611618042
vn 0.6883772611618042 0 -0.72535282373428345
vn 0.6883772611618042 0 -0.72535282373428345
vn -0.40104472637176514 0 -0.91605848073959351
vn -0.40104472637176514 0 -0.91605848073959351
vn -0.91605848073959351 0 0.40104472637176514
vn -0.91605848073959351 0 0.40104472637176514
vn 0.37567272782325745 0 0.92675238847732544
vn 0.37567272782325745 0 0.92675238847732544
vn -0.92675238847732544 0 0.37567272782325745
vn -0.92675238847732544 0 0.37567272782325745
vn -0.6883772611618042 0 0.72535282373428345
vn -0.6883772611618042 0 0.72535282373428345
vn -0.72535282373428345 0 -0.6883772611618042
vn -0.72535282373428345 0 -0.6883772611618042
vn 0.70808601379394531 0 -0.70612621307373047
vn 0.70808601379394531 0 -0.70612621307373047
vn 0.70612621307373047 0 0.70808601379394531
vn 0.70612621307373047 0 0.70808601379394531
vn -0.70612621307373047 0 -0.70808601379394531
vn -0.70612621307373047 0 -0.70808601379394531
vn -0.70808601379394531 0 0.70612621307373047
vn -0.70808601379394531 0 0.70612621307373047
vn 0.93577003479003906 0 0.35261088609695435
vn 0.93577003479003906 0 0.35261088609695435
vn 0.35261088609695435 0 -0.93577003479003906
vn 0.35261088609695435 0 -0.93577003479003906
vn -0.35261088609695435 0 0.93577003479003906
vn -0.35261088609695435 0 0.93577003479003906
vn -0.93577003479003906 0 -0.35261088609695435
vn -0.93577003479003906 0 -0.35261088609695435
vn 0.92570763826370239 0 0.37823981046676636
vn 0.92570763826370239 0 0.37823981046676636
vn -0.37823981046676636 0 0.92570763826370239
vn -0.37823981046676636 0 0.92570763826370239
vn 0.37823981046676636 0 -0.92570763826370239
vn 0.37823981046676636 0 -0.92570763826370239
vn -0.92570763826370239 0 -0.37823981046676636
vn -0.92570763826370239 0 -0.37823981046676636
vn 0.99925780296325684 0 -0.038520578294992447
vn 0.99925780296325684 0 -0.038520578294992447
vn -0.038520578294992447 0 -0.99925780296325684
vn -0.038520578294992447 0 -0.99925780296325684
vn 0.038520578294992447 0 0.99925780296325684
vn 0.038520578294992447 0 0.99925780296325684
vn -0.99925780296325684 0 0.038520578294992447
vn -0.99925780296325684 0 0.038520578294992447
vn 0.99993956089019775 0 -0.010995438322424889
vn 0.99993956089019775 0 -0.010995438322424889
vn 0.010995438322424889 0 0.99993956089019775
vn 0.010995438322424889 0 0.99993956089019775
vn -0.010995438322424889 0 -0.99993956089019775
vn -0.010995438322424889 0 -0.99993956089019775
vn -0.99993956089019775 0 0.010995438322424889
vn -0.99993956089019775 0 0.010995438322424889
vn 0.90584766864776611 0 -0.42360365390777588
vn 0.90584766864776611 0 -0.42360365390777588
vn -0.42360365390777588 0 -0.90584766864776611
vn -0.42360365390777588 0 -0.90584766864776611
vn 0.42360365390777588 0 0.90584766864776611
vn 0.42360365390777588 0 0.90584766864776611
vn -0.90584766864776611 0 0.42360365390777588
vn -0.90584766864776611 0 0.42360365390777588
vn 0.91716647148132324 0 -0.39850425720214844
vn 0.91716647148132324 0 -0.39850425720214844
vn 0.39850425720214844 0 0.91716647148132324
vn 0.39850425720214844 0 0.91716647148132324
vn -0.39850425720214844 0 -0.91716647148132324
vn -0.39850425720214844 0 -0.91716647148132324
vn -0.91716647148132324 0 0.39850425720214844
vn -0.91716647148132324 0 0.39850425720214844
vn 0.74217492341995239 0 0.67020624876022339
vn 0.74217492341995239 0 0.67020624876022339
vn 0.67020624876022339 0 -0.74217492341995239
vn 0.67020624876022339 0 -0.74217492341995239
vn -0.67020624876022339 0 0.74217492341995239
vn -0.67020624876022339 0 0.74217492341995239
vn -0.74217492341995239 0 -0.67020624876022339
vn -0.74217492341995239 0 -0.67020624876022339
vn 0.72344213724136353 0 0.69038498401641846
vn 0.72344213724136353 0 0.69038498401641846
vn 0.69038498401641846 0 -0.72344213724136353
vn 0.69038498401641846 0 -0.72344213724136353
vn 0.90701818466186523 0 -0.42109143733978271
vn 0.90701818466186523 0 -0.42109143733978271
vn -0.42109143733978271 0 -0.90701818466186523
vn -0.42109143733978271 0 -0.90701818466186523
vn 0.89508134126663208 0 -0.44590288400650024
vn 0.89508134126663208 0 -0.44590288400650024
vn 0.44590288400650024 0 0.89508134126663208
vn 0.44590288400650024 0 0.89508134126663208
vn 0.94421392679214478 0 0.32933276891708374
vn 0.94421392679214478 0 0.32933276891708374
vn -0.32933276891708374 0 0.94421392679214478
vn -0.32933276891708374 0 0.94421392679214478
vn 0.93478918075561523 0 0.35520309209823608
vn 0.93478918075561523 0 0.35520309209823608
vn 0.35520309209823608 0 -0.93478918075561523
vn 0.35520309209823608 0 -0.93478918075561523
vn 0.42109143733978271 0 0.90701818466186523
vn 0.42109143733978271 0 0.90701818466186523
vn -0.90701818466186523 0 0.42109143733978271
vn -0.90701818466186523 0 0.42109143733978271
vn 0.99936074018478394 0 -0.035750895738601685
vn 0.99936074018478394 0 -0.035750895738601685
vn 0.99799764156341553 0 -0.063250705599784851
vn 0.99799764156341553 0 -0.063250705599784851
vn -0.035750895738601685 0 -0.99936074018478394
vn -0.035750895738601685 0 -0.99936074018478394
vn 0.063250705599784851 0 0.99799764156341553
vn 0.063250705599784851 0 0.99799764156341553
vn -0.69038498401641846 0 0.72344213724136353
vn -0.69038498401641846 0 0.72344213724136353
vn -0.72344213724136353 0 -0.69038498401641846
vn -0.72344213724136353 0 -0.69038498401641846
vn 0.32933276891708374 0 -0.94421392679214478
vn 0.32933276891708374 0 -0.94421392679214478
vn -0.94421392679214478 0 -0.32933276891708374
vn -0.94421392679214478 0 -0.32933276891708374
vn -0.44590288400650024 0 -0.89508134126663208
vn -0.44590288400650024 0 -0.89508134126663208
vn -0.89508134126663208 0 0.44590288400650024
vn -0.89508134126663208 0 0.44590288400650024
vn 0.035750895738601685 0 0.99936074018478394
vn 0.035750895738601685 0 0.99936074018478394
vn -0.99936074018478394 0 0.035750895738601685
vn -0.99936074018478394 0 0.035750895738601685
vn -0.35520309209823608 0 0.93478918075561523
vn -0.35520309209823608 0 0.93478918075561523
vn -0.063250705599784851 0 -0.99799764156341553
vn -0.063250705599784851 0 -0.99799764156341553
vn -0.93478918075561523 0 -0.35520309209823608
vn -0.93478918075561523 0 -0.35520309209823608
vn -0.99799764156341553 0 0.063250705599784851
vn -0.99799764156341553 0 0.063250705599784851
f 6//6 22//22 21//21 5//5
f 22//22 16//16 15//15 21//21
f 16//16 2//2 1//1 15//15
f 2//2 6//6 5//5 1//1
f 20//20 36//36 35//35 19//19
f 36//36 34//34 33//33 35//35
f 34//34 14//14 13//13 33//33
f 14//14 20//20 19//19 13//13
f 46//46 48//48 47//47 45//45
f 48//48 44//44 43//43 47//47
f 44//44 42//42 41//41 43//43
f 42//42 46//46 45//45 41//41
f 64//64 60//60 59//59 63//63
f 60//60 58//58 57//57 59//59
f 58//58 62//62 61//61 57//57
f 62//62 64//64 63//63 61//61
f 80//80 76//76 75//75 79//79
f 76//76 74//74 73//73 75//75
f 74//74 78//78 77//77 73//73
f 78//78 80//80 79//79 77//77
f 96//96 92//92 91//91 95//95
f 92//92 90//90 89//89 91//91
f 90//90 94//94 93//93 89//89
f 94//94 96//96 95//95 93//93
f 138//138 106//106 105//105 137//137
f 106//106 108//108 107//107 105//105
f 108//108 140//140 139//139 107//107
f 140//140 138//138 137//137 139//139
f 154//154 122//122 121//121 153//153
f 122//122 124//124 123//123 121//121
f 124//124 158//158 157//157 123//123
f 158//158 154//154 153//153 157//157
f 150//150 130//130 129//129 149//149
f 130//130 134//134 133//133 129//129
f 134//134 152//152 151//151 133//133
f 152//152 150//150 149//149 151//151
f 126//126 110//110 109//109 125//125
f 110//110 112//112 111//111 109//109
f 112//112 128//128 127//127 111//111
f 128//128 126//126 125//125 127//127
f 8//8 4//4 3//3 7//7
f 4//4 18//18 17//17 3//3
f 18//18 24//24 23//23 17//17
f 24//24 8//8 7//7 23//23
f 12//12 10//10 9//9 11//11
f 10//10 30//30 29//29 9//9
f 30//30 32//32 31//31 29//29
f 32//32 12//12 11//11 31//31
f 26//26 28//28 27//27 25//25
f 28//28 40//40 39//39 27//27
f 40//40 38//38 37//37 39//39
f 38//38 26//26 25//25 37//37
f 50//50 52//52 51//51 49//49
f 52//52 56//56 55//55 51//51
f 56//56 54//54 53//53 55//55
f 54//54 50//50 49//49 53//53
f 66//66 68//68 67//67 65//65
f 68//68 72//72 71//71 67//67
f 72//72 70//70 69//69 71//71
f 70//70 66//66 65//65 69//69
f 82//82 84//84 83//83 81//81
f 84//84 88//88 87//87 83//83
f 88//88 86//86 85//85 87//87
f 86//86 82//82 81//81 85//85
f 100//100 104//104 103//103 99//99
f 104//104 102//102 101//101 103//103
f 102//102 98//98 97//97 101//101
f 98//98 100//100 99//99 97//97
f 142//142 144//144 143//143 141//141
f 144//144 120//120 119//119 143//143
f 120//120 118//118 117//117 119//119
f 118//118 142//142 141//141 117//117
f 156//156 160//160 159//159 155//155
f 160//160 136//136 135//135 159//159
f 136//136 132//132 131//131 135//135
f 132//132 156//156 155//155 131//131
f 146//146 148//148 147//147 145//145
f 148//148 116//116 115//115 147//147
f 116//116 114//114 113//113 115//115
f 114//114 146//146 145//145 113//113
