# Rhino

mtllib Pannelli31.mtl
usemtl diffuse_Black
v 1.4931594824286329 3 -0.066755920695869178
v 1.4931594824286329 0 -0.066755920695869164
v 1.4931594824286332 3 0.066755920695870205
v 1.4931594824286332 0 0.066755920695870205
v 1.4898899109489876 3 -0.086486858391262411
v 1.4898899109489876 0 -0.086486858391262411
v 1.4898899109489878 3 0.086486858391263452
v 1.4898899109489878 0 0.086486858391263452
v 1.4889482219375583 3 -0.13044073483188079
v 1.4889482219375583 0 -0.13044073483188079
v 1.4883052388048266 3 -0.1104510731866447
v 1.4883052388048266 0 -0.1104510731866447
v 1.4713677272999108 3 -0.2627900378149664
v 1.4713677272999108 0 -0.2627900378149664
v 1.4655285062794576 3 -0.2819186419949451
v 1.4655285062794576 0 -0.2819186419949451
v 1.4608020865337323 3 -0.3054655257155337
v 1.4608020865337323 0 -0.3054655257155337
v 1.4588072839219244 3 -0.32536579612927241
v 1.4588072839219244 0 -0.32536579612927241
v 1.423952454760165 3 -0.454247729215014
v 1.423952454760165 0 -0.454247729215014
v 1.4156452728377862 3 -0.47244087980825938
v 1.4156452728377862 0 -0.47244087980825938
v 1.4078594149610657 3 -0.49516036910021322
v 1.4078594149610657 0 -0.49516036910021322
v 1.4032615656155762 3 -0.51462468982805221
v 1.4032615656155762 0 -0.51462468982805221
v 1.3517393904515504 3 -0.6377948049460479
v 1.3517393904515504 0 -0.63779480494604801
v 1.3411089152155553 3 -0.65473567258194254
v 1.3411089152155553 0 -0.65473567258194254
v 1.3303992080624556 3 -0.67623211296770291
v 1.3303992080624556 0 -0.67623211296770291
v 1.3232783824310537 3 -0.69492151751485665
v 1.3232783824310537 0 -0.69492151751485665
v 1.2559861076348389 3 -0.81023483653986639
v 1.2559861076348389 0 -0.81023483653986628
v 1.2432174662714797 3 -0.82562840005628169
v 1.2432174662714797 0 -0.82562840005628158
v 1.229770416833158 3 -0.8455274361627626
v 1.229770416833158 0 -0.8455274361627626
v 1.2202506223928062 3 -0.86311645301457807
v 1.2202506223928062 0 -0.86311645301457807
v 1.1711918103917649 3 -0.013403346474048818
v 1.1711918103917649 0 -0.013403346474048823
v 1.1711918103917651 3 0.01340334647404961
v 1.1711918103917651 0 0.01340334647404961
v 1.1679222389121195 3 -0.033134284169442044
v 1.1679222389121195 0 -0.033134284169442058
v 1.1679222389121198 3 0.033134284169442862
v 1.1679222389121198 0 0.033134284169442862
v 1.162758715686975 3 -0.14093287593538956
v 1.162758715686975 0 -0.14093287593538956
v 1.1621157325542435 3 -0.12094321429015348
v 1.1621157325542435 0 -0.12094321429015348
v 1.1592288795562284 3 -0.16750615280715875
v 1.1592288795562284 0 -0.16750615280715875
v 1.1533896585357752 3 -0.18663475698713744
v 1.1533896585357752 0 -0.18663475698713744
v 1.1383601268515597 3 -0.96856482204806327
v 1.1383601268515597 0 -0.96856482204806327
v 1.1360712583829964 3 -0.27291451557034319
v 1.1360712583829964 0 -0.27291451557034319
v 1.1340764557711882 3 -0.29281478598408189
v 1.1340764557711882 0 -0.29281478598408189
v 1.1270782547625133 3 -0.31869187951206168
v 1.1270782547625133 0 -0.31869187951206168
v 1.1236756821993155 3 -0.98214300621440809
v 1.1236756821993155 0 -0.98214300621440809
v 1.1187710728401346 3 -0.33688503010530707
v 1.1187710728401346 0 -0.33688503010530707
v 1.107725467628782 3 -1.0000981010823733
v 1.107725467628782 0 -1.0000981010823733
v 1.0959724893250558 3 -1.0162804217129919
v 1.0959724893250558 0 -1.0162804217129919
v 1.090242374693158 3 -0.420133075770456
v 1.090242374693158 0 -0.420133075770456
v 1.0856445253476685 3 -0.43959739649829499
v 1.0856445253476685 0 -0.43959739649829499
v 1.0752998314595232 3 -0.46432766328161507
v 1.0752998314595232 0 -0.46432766328161507
v 1.0646693562235281 3 -0.48126853091750965
v 1.0646693562235281 0 -0.4812685309175096
v 1.0254271805441044 3 -0.56003511884013901
v 1.0254271805441044 0 -0.56003511884013901
v 1.0183063549127025 3 -0.57872452338729263
v 1.0183063549127025 0 -0.57872452338729263
v 1.0047953185174483 3 -0.60187729173882554
v 1.0047953185174483 0 -0.60187729173882565
v 1.0009098764521986 3 -1.1100274826034446
v 1.0009098764521986 0 -1.1100274826034446
v 0.9920266771540891 3 -0.61727085525524084
v 0.99202667715408899 0 -0.61727085525524095
v 0.98456535460607375 3 -1.1215538265867531
v 0.98456535460607364 0 -1.1215538265867531
v 0.966389744079024 3 -1.1372522965291614
v 0.966389744079024 0 -1.1372522965291614
v 0.95260825722089582 3 -1.1517461096913089
v 0.95260825722089582 0 -1.1517461096913089
v 0.94275441705538232 3 -0.69018428412670074
v 0.94275441705538232 0 -0.69018428412670074
v 0.93323462261503054 3 -0.70777330097851621
v 0.93323462261503054 0 -0.70777330097851621
v 0.91679253518324388 3 -0.72894537096940537
v 0.91679253518324388 0 -0.72894537096940537
v 0.9021080905309995 3 -0.74252355513575019
v 0.9021080905309995 0 -0.74252355513575019
v 0.84602901970590949 3 -1.2321592797726897
v 0.84602901970590949 0 -1.2321592797726897
v 0.84366381064980622 3 -0.80831405501374753
v 0.84366381064980622 0 -0.80831405501374753
v 0.83191083234608021 3 -0.82449637564436618
v 0.83191083234608021 0 -0.82449637564436618
v 0.82830905660859089 3 -1.2414330550465289
v 0.82830905660859089 0 -1.2414330550465289
v 0.8128240289018106 3 -0.84331904073444952
v 0.8128240289018106 0 -0.84331904073444952
v 0.80822457403958081 3 -1.2546015149602328
v 0.80822457403958081 0 -1.2546015149602328
v 0.7964795070556856 3 -0.85484538471775795
v 0.7964795070556856 0 -0.85484538471775784
v 0.79265457992781774 3 -1.2671544143607565
v 0.79265457992781774 0 -1.2671544143607565
v 0.72988100056180616 3 -0.91236722976651052
v 0.72988100056180616 0 -0.91236722976651052
v 0.71609951370367786 3 -0.92686104292865801
v 0.71609951370367786 0 -0.92686104292865801
v 0.69470038636841913 3 -0.94300651090276821
v 0.69470038636841913 0 -0.94300651090276821
v 0.67698042327110053 3 -0.9522802861766072
v 0.67698042327110053 0 -0.9522802861766072
v 0.67641476972661341 3 -1.3328333174895461
v 0.67641476972661341 0 -1.3328333174895461
v 0.65762795430153786 3 -1.3396930234733428
v 0.65762795430153775 0 -1.3396930234733428
v 0.6359843661556388 3 -1.3501021477753392
v 0.6359843661556388 0 -1.3501021477753392
v 0.61889701251749507 3 -1.3604955276704944
v 0.61889701251749507 0 -1.3604955276704944
v 0.60338748724247238 3 -1.0005317472085207
v 0.60338748724247238 0 -1.0005317472085207
v 0.5878174931307093 3 -1.0130846466090442
v 0.5878174931307093 0 -1.0130846466090442
v 0.56447870259402433 3 -1.0262717480001147
v 0.56447870259402433 0 -1.0262717480001147
v 0.54569188716894879 3 -1.0331314539839114
v 0.54569188716894867 0 -1.0331314539839114
v 0.49502091815107341 3 -1.4102963814416332
v 0.49502091815107341 0 -1.4102963814416332
v 0.47549441830005773 3 -1.4146225579946976
v 0.47549441830005773 0 -1.4146225579946976
v 0.46638612500264925 3 -1.0712722433340336
v 0.46638612500264925 0 -1.0712722433340336
v 0.44929877136450552 3 -1.0816656232291888
v 0.44929877136450552 0 -1.0816656232291888
v 0.42442675708715777 3 -1.091664707817342
v 0.42442675708715777 0 -1.091664707817342
v 0.40490025723614209 3 -1.0959908843704065
v 0.40490025723614209 0 -1.0959908843704065
vn 0.81319081783294678 0 0.58199715614318848
vn 0.81319081783294678 0 0.58199715614318848
vn 0.81319081783294678 0 -0.58199715614318848
vn 0.81319081783294678 0 -0.58199715614318848
vn 0.58199715614318848 0 -0.81319081783294678
vn 0.58199715614318848 0 -0.81319081783294678
vn 0.58199715614318848 0 0.81319081783294678
vn 0.58199715614318848 0 0.81319081783294678
vn 0.72947412729263306 0 -0.68400835990905762
vn 0.72947412729263306 0 -0.68400835990905762
vn 0.68400835990905762 0 0.72947412729263306
vn 0.68400835990905762 0 0.72947412729263306
vn 0.88274592161178589 0 0.46985062956809998
vn 0.88274592161178589 0 0.46985062956809998
vn 0.46985062956809998 0 -0.88274592161178589
vn 0.46985062956809998 0 -0.88274592161178589
vn 0.77410769462585449 0 0.63305389881134033
vn 0.77410769462585449 0 0.63305389881134033
vn 0.63305389881134033 0 -0.77410769462585449
vn 0.63305389881134033 0 -0.77410769462585449
vn 0.93692821264266968 0 0.34952178597450256
vn 0.93692821264266968 0 0.34952178597450256
vn 0.34952178597450256 0 -0.93692821264266968
vn 0.34952178597450256 0 -0.93692821264266968
vn 0.85072618722915649 0 0.52560913562774658
vn 0.85072618722915649 0 0.52560913562774658
vn 0.52560913562774658 0 -0.85072618722915649
vn 0.52560913562774658 0 -0.85072618722915649
vn 0.97479414939880371 0 0.22310605645179749
vn 0.97479414939880371 0 0.22310605645179749
vn 0.22310605645179749 0 -0.97479414939880371
vn 0.22310605645179749 0 -0.97479414939880371
vn 0.91252940893173218 0 0.40901106595993042
vn 0.91252940893173218 0 0.40901106595993042
vn 0.40901106595993042 0 -0.91252940893173218
vn 0.40901106595993042 0 -0.91252940893173218
vn 0.99568432569503784 0 0.092804998159408569
vn 0.99568432569503784 0 0.092804998159408569
vn 0.092804998159408569 0 -0.99568432569503784
vn 0.092804998159408569 0 -0.99568432569503784
vn 0.95844119787216187 0 0.28529009222984314
vn 0.95844119787216187 0 0.28529009222984314
vn 0.28529009222984314 0 -0.95844119787216187
vn 0.28529009222984314 0 -0.95844119787216187
vn -0.58199715614318848 0 0.81319081783294678
vn -0.58199715614318848 0 0.81319081783294678
vn -0.58199715614318848 0 -0.81319081783294678
vn -0.58199715614318848 0 -0.81319081783294678
vn -0.81319081783294678 0 -0.58199715614318848
vn -0.81319081783294678 0 -0.58199715614318848
vn -0.81319081783294678 0 0.58199715614318848
vn -0.81319081783294678 0 0.58199715614318848
vn -0.68400835990905762 0 -0.72947412729263306
vn -0.68400835990905762 0 -0.72947412729263306
vn -0.72947412729263306 0 0.68400835990905762
vn -0.72947412729263306 0 0.68400835990905762
vn -0.46985062956809998 0 0.88274592161178589
vn -0.46985062956809998 0 0.88274592161178589
vn -0.88274592161178589 0 -0.46985062956809998
vn -0.88274592161178589 0 -0.46985062956809998
vn 0.99923479557037354 0 -0.039112232625484467
vn 0.99923479557037354 0 -0.039112232625484467
vn -0.63305389881134033 0 0.77410769462585449
vn -0.63305389881134033 0 0.77410769462585449
vn -0.77410769462585449 0 -0.63305389881134033
vn -0.77410769462585449 0 -0.63305389881134033
vn -0.34952178597450256 0 0.93692821264266968
vn -0.34952178597450256 0 0.93692821264266968
vn -0.039112232625484467 0 -0.99923479557037354
vn -0.039112232625484467 0 -0.99923479557037354
vn -0.93692821264266968 0 -0.34952178597450256
vn -0.93692821264266968 0 -0.34952178597450256
vn 0.98766195774078369 0 0.15660086274147034
vn 0.98766195774078369 0 0.15660086274147034
vn 0.15660086274147034 0 -0.98766195774078369
vn 0.15660086274147034 0 -0.98766195774078369
vn -0.52560913562774658 0 0.85072618722915649
vn -0.52560913562774658 0 0.85072618722915649
vn -0.85072618722915649 0 -0.52560913562774658
vn -0.85072618722915649 0 -0.52560913562774658
vn -0.22310605645179749 0 0.97479414939880371
vn -0.22310605645179749 0 0.97479414939880371
vn -0.97479414939880371 0 -0.22310605645179749
vn -0.97479414939880371 0 -0.22310605645179749
vn -0.40901106595993042 0 0.91252940893173218
vn -0.40901106595993042 0 0.91252940893173218
vn -0.91252940893173218 0 -0.40901106595993042
vn -0.91252940893173218 0 -0.40901106595993042
vn -0.092804998159408569 0 0.99568432569503784
vn -0.092804998159408569 0 0.99568432569503784
vn 0.98538392782211304 0 -0.17034833133220673
vn 0.98538392782211304 0 -0.17034833133220673
vn -0.99568432569503784 0 -0.092804998159408569
vn -0.99568432569503784 0 -0.092804998159408569
vn -0.17034833133220673 0 -0.98538392782211304
vn -0.17034833133220673 0 -0.98538392782211304
vn 0.99968284368515015 0 0.025184554979205132
vn 0.99968284368515015 0 0.025184554979205132
vn 0.025184554979205132 0 -0.99968284368515015
vn 0.025184554979205132 0 -0.99968284368515015
vn -0.28529009222984314 0 0.95844119787216187
vn -0.28529009222984314 0 0.95844119787216187
vn -0.95844119787216187 0 -0.28529009222984314
vn -0.95844119787216187 0 -0.28529009222984314
vn 0.039112232625484467 0 0.99923479557037354
vn 0.039112232625484467 0 0.99923479557037354
vn -0.99923479557037354 0 0.039112232625484467
vn -0.99923479557037354 0 0.039112232625484467
vn 0.95437276363372803 0 -0.29861783981323242
vn 0.95437276363372803 0 -0.29861783981323242
vn -0.15660086274147034 0 0.98766195774078369
vn -0.15660086274147034 0 0.98766195774078369
vn -0.98766195774078369 0 -0.15660086274147034
vn -0.98766195774078369 0 -0.15660086274147034
vn -0.29861783981323242 0 -0.95437276363372803
vn -0.29861783981323242 0 -0.95437276363372803
vn 0.17034833133220673 0 0.98538392782211304
vn 0.17034833133220673 0 0.98538392782211304
vn 0.99429440498352051 0 -0.10667043179273605
vn 0.99429440498352051 0 -0.10667043179273605
vn -0.98538392782211304 0 0.17034833133220673
vn -0.98538392782211304 0 0.17034833133220673
vn -0.10667043179273605 0 -0.99429440498352051
vn -0.10667043179273605 0 -0.99429440498352051
vn -0.025184554979205132 0 0.99968284368515015
vn -0.025184554979205132 0 0.99968284368515015
vn -0.99968284368515015 0 -0.025184554979205132
vn -0.99968284368515015 0 -0.025184554979205132
vn 0.29861783981323242 0 0.95437276363372803
vn 0.29861783981323242 0 0.95437276363372803
vn -0.95437276363372803 0 0.29861783981323242
vn -0.95437276363372803 0 0.29861783981323242
vn 0.90674149990081787 0 -0.42168697714805603
vn 0.90674149990081787 0 -0.42168697714805603
vn -0.42168697714805603 0 -0.90674149990081787
vn -0.42168697714805603 0 -0.90674149990081787
vn 0.97159063816070557 0 -0.23666770756244659
vn 0.97159063816070557 0 -0.23666770756244659
vn -0.23666770756244659 0 -0.97159063816070557
vn -0.23666770756244659 0 -0.97159063816070557
vn 0.10667043179273605 0 0.99429440498352051
vn 0.10667043179273605 0 0.99429440498352051
vn -0.99429440498352051 0 0.10667043179273605
vn -0.99429440498352051 0 0.10667043179273605
vn 0.42168697714805603 0 0.90674149990081787
vn 0.42168697714805603 0 0.90674149990081787
vn -0.90674149990081787 0 0.42168697714805603
vn -0.90674149990081787 0 0.42168697714805603
vn 0.84331947565078735 0 -0.53741258382797241
vn 0.84331947565078735 0 -0.53741258382797241
vn -0.53741258382797241 0 -0.84331947565078735
vn -0.53741258382797241 0 -0.84331947565078735
vn 0.23666770756244659 0 0.97159063816070557
vn 0.23666770756244659 0 0.97159063816070557
vn -0.97159063816070557 0 0.23666770756244659
vn -0.97159063816070557 0 0.23666770756244659
vn 0.53741258382797241 0 0.84331947565078735
vn 0.53741258382797241 0 0.84331947565078735
vn -0.84331947565078735 0 0.53741258382797241
vn -0.84331947565078735 0 0.53741258382797241
f 6//6 50//50 49//49 5//5
f 50//50 46//46 45//45 49//49
f 46//46 2//2 1//1 45//45
f 2//2 6//6 5//5 1//1
f 16//16 60//60 59//59 15//15
f 60//60 58//58 57//57 59//59
f 58//58 14//14 13//13 57//57
f 14//14 16//16 15//15 13//13
f 24//24 72//72 71//71 23//23
f 72//72 68//68 67//67 71//71
f 68//68 22//22 21//21 67//67
f 22//22 24//24 23//23 21//21
f 32//32 84//84 83//83 31//31
f 84//84 82//82 81//81 83//83
f 82//82 30//30 29//29 81//81
f 30//30 32//32 31//31 29//29
f 40//40 94//94 93//93 39//39
f 94//94 90//90 89//89 93//93
f 90//90 38//38 37//37 89//89
f 38//38 40//40 39//39 37//37
f 70//70 108//108 107//107 69//69
f 108//108 106//106 105//105 107//107
f 106//106 62//62 61//61 105//105
f 62//62 70//70 69//69 61//61
f 96//96 122//122 121//121 95//95
f 122//122 118//118 117//117 121//121
f 118//118 92//92 91//91 117//117
f 92//92 96//96 95//95 91//91
f 116//116 132//132 131//131 115//115
f 132//132 130//130 129//129 131//131
f 130//130 110//110 109//109 129//129
f 110//110 116//116 115//115 109//109
f 136//136 148//148 147//147 135//135
f 148//148 146//146 145//145 147//147
f 146//146 134//134 133//133 145//145
f 134//134 136//136 135//135 133//133
f 152//152 160//160 159//159 151//151
f 160//160 158//158 157//157 159//159
f 158//158 150//150 149//149 157//157
f 150//150 152//152 151//151 149//149
f 8//8 4//4 3//3 7//7
f 4//4 48//48 47//47 3//3
f 48//48 52//52 51//51 47//47
f 52//52 8//8 7//7 51//51
f 12//12 10//10 9//9 11//11
f 10//10 54//54 53//53 9//9
f 54//54 56//56 55//55 53//53
f 56//56 12//12 11//11 55//55
f 18//18 20//20 19//19 17//17
f 20//20 66//66 65//65 19//19
f 66//66 64//64 63//63 65//65
f 64//64 18//18 17//17 63//63
f 26//26 28//28 27//27 25//25
f 28//28 80//80 79//79 27//27
f 80//80 78//78 77//77 79//79
f 78//78 26//26 25//25 77//77
f 34//34 36//36 35//35 33//33
f 36//36 88//88 87//87 35//35
f 88//88 86//86 85//85 87//87
f 86//86 34//34 33//33 85//85
f 42//42 44//44 43//43 41//41
f 44//44 104//104 103//103 43//43
f 104//104 102//102 101//101 103//103
f 102//102 42//42 41//41 101//101
f 74//74 76//76 75//75 73//73
f 76//76 114//114 113//113 75//75
f 114//114 112//112 111//111 113//113
f 112//112 74//74 73//73 111//111
f 98//98 100//100 99//99 97//97
f 100//100 128//128 127//127 99//99
f 128//128 126//126 125//125 127//127
f 126//126 98//98 97//97 125//125
f 120//120 124//124 123//123 119//119
f 124//124 144//144 143//143 123//123
f 144//144 142//142 141//141 143//143
f 142//142 120//120 119//119 141//141
f 138//138 140//140 139//139 137//137
f 140//140 156//156 155//155 139//139
f 156//156 154//154 153//153 155//155
f 154//154 138//138 137//137 153//153
