# Rhino

mtllib Pannelli39.mtl
usemtl diffuse_Black
v 1.4866279402444855 3 -0.090403190643737558
v 1.4866279402444855 0 -0.090403190643737572
v 1.4866279402444851 3 0.090403190643741332
v 1.4866279402444851 0 0.090403190643741332
v 1.481968428356035 3 -0.10985284228486956
v 1.481968428356035 0 -0.10985284228486958
v 1.4819684283560346 3 0.1098528422848733
v 1.4819684283560346 0 0.1098528422848733
v 1.4811803375594395 3 -0.15601338795575792
v 1.4811803375594395 0 -0.15601338795575792
v 1.4797923190843927 3 -0.13606161097442293
v 1.4797923190843927 0 -0.13606161097442293
v 1.4513612672049327 3 -0.3343438972845495
v 1.4513612672049327 0 -0.33434389728454944
v 1.4435578719436495 3 -0.35275875602406143
v 1.4435578719436495 0 -0.35275875602406137
v 1.437089141227966 3 -0.37824974523030086
v 1.437089141227966 0 -0.37824974523030086
v 1.4351676526310642 3 -0.39815722828497091
v 1.4351676526310642 0 -0.39815722828497091
v 1.3763461667281376 3 -0.56912792843691229
v 1.3763461667281376 0 -0.56912792843691229
v 1.3656125996607527 3 -0.58600366658402581
v 1.3656125996607527 0 -0.58600366658402592
v 1.3550284066131479 3 -0.61007875464857264
v 1.3550284066131479 0 -0.61007875464857264
v 1.3498500347477509 3 -0.62939673758736991
v 1.3498500347477509 0 -0.62939673758736991
v 1.2636370771854244 3 -0.78832525442003176
v 1.2636370771854244 0 -0.78832525442003176
v 1.2502672984866792 3 -0.80319969617582798
v 1.2502672984866792 0 -0.80319969617582798
v 1.2358575123759845 3 -0.82519953872137086
v 1.2358575123759845 0 -0.82519953872137086
v 1.2275640772995693 3 -0.84339895999330372
v 1.2275640772995693 0 -0.84339895999330372
v 1.1716054945420442 3 -0.014933929910292283
v 1.1716054945420442 0 -0.014933929910292265
v 1.171605494542044 3 0.014933929910295256
v 1.171605494542044 0 0.014933929910295256
v 1.1669459826535937 3 -0.034383581551424292
v 1.1669459826535937 0 -0.034383581551424271
v 1.1669459826535935 3 0.03438358155142722
v 1.1669459826535935 0 0.03438358155142722
v 1.1580250596788939 3 -0.17849486900011244
v 1.1580250596788939 0 -0.17849486900011244
v 1.1566370412038471 3 -0.15854309201877748
v 1.1566370412038471 0 -0.15854309201877748
v 1.1530991726223272 3 -0.20795373331916284
v 1.1530991726223272 0 -0.20795373331916284
v 1.1452957773610439 3 -0.22636859205867474
v 1.1452957773610439 0 -0.22636859205867479
v 1.1163207621334872 3 -0.98593271860905407
v 1.1163207621334872 0 -0.98593271860905407
v 1.1146512839658054 3 -0.34712774631977528
v 1.1146512839658054 0 -0.34712774631977528
v 1.1127297953689033 3 -0.36703522937444533
v 1.1127297953689033 0 -0.36703522937444533
v 1.1030129265124116 3 -0.39527830834767369
v 1.1030129265124116 0 -0.39527830834767363
v 1.1006809298995548 3 -0.99839849767393596
v 1.1006809298995548 0 -0.99839849767393596
v 1.0922793594450266 3 -0.41215404649478726
v 1.0922793594450266 0 -0.41215404649478721
v 1.0828401915023638 3 -1.0177205850670628
v 1.0828401915023638 0 -1.0177205850670628
v 1.0716588255008668 3 -1.0343030171667449
v 1.0716588255008668 0 -1.0343030171667449
v 1.0421385747691592 3 -0.52620561389039744
v 1.0421385747691592 0 -0.52620561389039744
v 1.0369602029037621 3 -0.54552359682919471
v 1.0369602029037621 0 -0.54552359682919471
v 1.0227184681106984 3 -0.57177739732257671
v 1.0227184681106984 0 -0.57177739732257671
v 1.0093486894119532 3 -0.58665183907837293
v 1.0093486894119532 0 -0.58665183907837293
v 0.94108481900142948 3 -0.69087228961415958
v 0.94108481900142948 0 -0.69087228961415958
v 0.93843177312849457 3 -1.1565384458707111
v 0.93843177312849457 0 -1.1565384458707111
v 0.93279138392501393 3 -0.70907171088609233
v 0.93279138392501393 0 -0.70907171088609233
v 0.92095021540610489 3 -1.1662541619842435
v 0.92095021540610489 0 -1.1662541619842435
v 0.914414821550951 3 -0.73261722013041419
v 0.914414821550951 0 -0.73261722013041419
v 0.90016712898079931 3 -1.1823693202652821
v 0.90016712898079931 0 -1.1823693202652821
v 0.89877498931701871 3 -0.74508299919529608
v 0.89877498931701871 0 -0.74508299919529608
v 0.88640405609726403 3 -1.1968806201657904
v 0.88640405609726403 0 -1.1968806201657904
v 0.8142575756220265 3 -0.83661804765006365
v 0.8142575756220265 0 -0.83661804765006365
v 0.8030762096205295 3 -0.85320047974974578
v 0.8030762096205295 0 -0.85320047974974578
v 0.7810680985337799 3 -0.87339285694153646
v 0.7810680985337799 0 -0.87339285694153646
v 0.76358654081139021 3 -0.88310857305506907
v 0.76358654081139021 0 -0.88310857305506907
v 0.73484195547259235 3 -1.2954700575742177
v 0.73484195547259235 0 -1.2954700575742177
v 0.71599743963987483 3 -1.3021696264432163
v 0.71599743963987483 0 -1.3021696264432163
v 0.69284119152301005 3 -1.3146365098121595
v 0.69284119152301005 0 -1.3146365098121595
v 0.67687334100047603 3 -1.3266792565789904
v 0.67687334100047603 0 -1.3266792565789904
v 0.66513026203187098 3 -0.95945134928305742
v 0.66513026203187098 0 -0.95945134928305742
v 0.65136718914833558 3 -0.97396264918356579
v 0.65136718914833558 0 -0.97396264918356579
v 0.62633026543282866 3 -0.99024888573858838
v 0.62633026543282866 0 -0.99024888573858849
v 0.60748574960011115 3 -0.99694845460758708
v 0.60748574960011115 0 -0.99694845460758708
v 0.51112702299865842 3 -1.3989226340132821
v 0.51112702299865842 0 -1.3989226340132821
v 0.49778702759962024 3 -1.0560081591849562
v 0.49778702759962024 0 -1.0560081591849562
v 0.49143564376414067 3 -1.4024225745616925
v 0.49143564376414067 0 -1.4024225745616925
v 0.48181917707708627 3 -1.0680509059517866
v 0.48181917707708627 0 -1.0680509059517866
v 0.466540414065652 3 -1.410899752514533
v 0.466540414065652 0 -1.410899752514533
v 0.45443912690072874 3 -1.079984970749768
v 0.45443912690072874 0 -1.079984970749768
v 0.44880509738690821 3 -1.420144131471752
v 0.44880509738690821 0 -1.420144131471752
v 0.43474774766621105 3 -1.0834849112981784
v 0.43474774766621105 0 -1.0834849112981784
v 0.31681090107300564 3 -1.1236440762416606
v 0.31681090107300564 0 -1.1236440762416606
v 0.29907558439426185 3 -1.1328884551988796
v 0.29907558439426185 0 -1.1328884551988796
v 0.27341385600934287 3 -1.464062919732698
v 0.27341385600934287 0 -1.464062919732698
v 0.2701022651235514 3 -1.140143510036697
v 0.2701022651235514 0 -1.140143510036697
v 0.25341490112744469 3 -1.4642673790973728
v 0.25341490112744469 0 -1.4642673790973728
v 0.25010331024165322 3 -1.1403479694013718
v 0.25010331024165322 0 -1.1403479694013718
v 0.22746249544154468 3 -1.468522687182471
v 0.22746249544154468 0 -1.468522687182471
v 0.20844542968063101 3 -1.4747155225464288
v 0.20844542968063101 0 -1.4747155225464288
v 0.12715827518184677 3 -1.160506755759932
v 0.12715827518184677 0 -1.160506755759932
v 0.10814120942093311 3 -1.1666995911238893
v 0.10814120942093311 0 -1.1666995911238893
v 0.078368113279115831 3 -1.1690769418326348
v 0.078368113279115817 0 -1.1690769418326348
v 0.058609294077751221 3 -1.1659803204854586
v 0.058609294077751228 0 -1.1659803204854586
v 0.028212704421366162 3 -1.4891069178884917
v 0.028212704421366155 0 -1.4891069178884917
v 0.0084538852200015582 3 -1.4860102965413156
v 0.0084538852200015651 0 -1.4860102965413156
vn 0.85238766670227051 0 0.52291041612625122
vn 0.85238766670227051 0 0.52291041612625122
vn 0.85238766670227051 0 -0.52291041612625122
vn 0.85238766670227051 0 -0.52291041612625122
vn 0.52291041612625122 0 -0.85238766670227051
vn 0.52291041612625122 0 -0.85238766670227051
vn 0.52291041612625122 0 0.85238766670227051
vn 0.52291041612625122 0 0.85238766670227051
vn 0.75447571277618408 0 -0.65632796287536621
vn 0.75447571277618408 0 -0.65632796287536621
vn 0.65632796287536621 0 0.75447571277618408
vn 0.65632796287536621 0 0.75447571277618408
vn 0.92695528268814087 0 0.37517186999320984
vn 0.92695528268814087 0 0.37517186999320984
vn 0.37517186999320984 0 -0.92695528268814087
vn 0.37517186999320984 0 -0.92695528268814087
vn 0.7717706561088562 0 0.63590097427368164
vn 0.7717706561088562 0 0.63590097427368164
vn 0.63590097427368164 0 -0.7717706561088562
vn 0.63590097427368164 0 -0.7717706561088562
vn 0.97613632678985596 0 0.21715851128101349
vn 0.97613632678985596 0 0.21715851128101349
vn 0.21715851128101349 0 -0.97613632678985596
vn 0.21715851128101349 0 -0.97613632678985596
vn 0.86607694625854492 0 0.49991077184677124
vn 0.86607694625854492 0 0.49991077184677124
vn 0.49991077184677124 0 -0.86607694625854492
vn 0.49991077184677124 0 -0.86607694625854492
vn 0.99858397245407104 0 0.053197883069515228
vn 0.99858397245407104 0 0.053197883069515228
vn 0.053197883069515228 0 -0.99858397245407104
vn 0.053197883069515228 0 -0.99858397245407104
vn 0.9366639256477356 0 0.35022950172424316
vn 0.9366639256477356 0 0.35022950172424316
vn 0.35022950172424316 0 -0.9366639256477356
vn 0.35022950172424316 0 -0.9366639256477356
vn -0.52291041612625122 0 0.85238766670227051
vn -0.52291041612625122 0 0.85238766670227051
vn -0.52291041612625122 0 -0.85238766670227051
vn -0.52291041612625122 0 -0.85238766670227051
vn -0.85238766670227051 0 -0.52291041612625122
vn -0.85238766670227051 0 -0.52291041612625122
vn -0.85238766670227051 0 0.52291041612625122
vn -0.85238766670227051 0 0.52291041612625122
vn -0.65632796287536621 0 -0.75447571277618408
vn -0.65632796287536621 0 -0.75447571277618408
vn -0.75447571277618408 0 0.65632796287536621
vn -0.75447571277618408 0 0.65632796287536621
vn -0.37517186999320984 0 0.92695528268814087
vn -0.37517186999320984 0 0.92695528268814087
vn -0.92695528268814087 0 -0.37517186999320984
vn -0.92695528268814087 0 -0.37517186999320984
vn 0.99368339776992798 0 -0.11221973598003387
vn 0.99368339776992798 0 -0.11221973598003387
vn -0.63590097427368164 0 0.7717706561088562
vn -0.63590097427368164 0 0.7717706561088562
vn -0.7717706561088562 0 -0.63590097427368164
vn -0.7717706561088562 0 -0.63590097427368164
vn -0.21715851128101349 0 0.97613632678985596
vn -0.21715851128101349 0 0.97613632678985596
vn -0.11221973598003387 0 -0.99368339776992798
vn -0.11221973598003387 0 -0.99368339776992798
vn -0.97613632678985596 0 -0.21715851128101349
vn -0.97613632678985596 0 -0.21715851128101349
vn 0.98159849643707275 0 0.19095650315284729
vn 0.98159849643707275 0 0.19095650315284729
vn 0.19095650315284729 0 -0.98159849643707275
vn 0.19095650315284729 0 -0.98159849643707275
vn -0.49991077184677124 0 0.86607694625854492
vn -0.49991077184677124 0 0.86607694625854492
vn -0.86607694625854492 0 -0.49991077184677124
vn -0.86607694625854492 0 -0.49991077184677124
vn -0.053197883069515228 0 0.99858397245407104
vn -0.053197883069515228 0 0.99858397245407104
vn -0.99858397245407104 0 -0.053197883069515228
vn -0.99858397245407104 0 -0.053197883069515228
vn -0.35022950172424316 0 0.9366639256477356
vn -0.35022950172424316 0 0.9366639256477356
vn 0.96156883239746094 0 -0.27456393837928772
vn 0.96156883239746094 0 -0.27456393837928772
vn -0.9366639256477356 0 -0.35022950172424316
vn -0.9366639256477356 0 -0.35022950172424316
vn -0.27456393837928772 0 -0.96156883239746094
vn -0.27456393837928772 0 -0.96156883239746094
vn 0.11221973598003387 0 0.99368339776992798
vn 0.11221973598003387 0 0.99368339776992798
vn 0.99965006113052368 0 0.02645384706556797
vn 0.99965006113052368 0 0.02645384706556797
vn -0.99368339776992798 0 0.11221973598003387
vn -0.99368339776992798 0 0.11221973598003387
vn 0.02645384706556797 0 -0.99965006113052368
vn 0.02645384706556797 0 -0.99965006113052368
vn -0.19095650315284729 0 0.98159849643707275
vn -0.19095650315284729 0 0.98159849643707275
vn -0.98159849643707275 0 -0.19095650315284729
vn -0.98159849643707275 0 -0.19095650315284729
vn 0.27456393837928772 0 0.96156883239746094
vn 0.27456393837928772 0 0.96156883239746094
vn -0.96156883239746094 0 0.27456393837928772
vn -0.96156883239746094 0 0.27456393837928772
vn 0.90311980247497559 0 -0.42938870191574097
vn 0.90311980247497559 0 -0.42938870191574097
vn -0.42938870191574097 0 -0.90311980247497559
vn -0.42938870191574097 0 -0.90311980247497559
vn 0.99032413959503174 0 -0.13877338171005249
vn 0.99032413959503174 0 -0.13877338171005249
vn -0.13877338171005249 0 -0.99032413959503174
vn -0.13877338171005249 0 -0.99032413959503174
vn -0.02645384706556797 0 0.99965006113052368
vn -0.02645384706556797 0 0.99965006113052368
vn -0.99965006113052368 0 -0.02645384706556797
vn -0.99965006113052368 0 -0.02645384706556797
vn 0.42938870191574097 0 0.90311980247497559
vn 0.42938870191574097 0 0.90311980247497559
vn -0.90311980247497559 0 0.42938870191574097
vn -0.90311980247497559 0 0.42938870191574097
vn 0.81993699073791504 0 -0.57245379686355591
vn 0.81993699073791504 0 -0.57245379686355591
vn 0.13877338171005249 0 0.99032413959503174
vn 0.13877338171005249 0 0.99032413959503174
vn -0.57245379686355591 0 -0.81993699073791504
vn -0.57245379686355591 0 -0.81993699073791504
vn -0.99032413959503174 0 0.13877338171005249
vn -0.99032413959503174 0 0.13877338171005249
vn 0.95387625694274902 0 -0.30020001530647278
vn 0.95387625694274902 0 -0.30020001530647278
vn 0.57245379686355591 0 0.81993699073791504
vn 0.57245379686355591 0 0.81993699073791504
vn -0.30020001530647278 0 -0.95387625694274902
vn -0.30020001530647278 0 -0.95387625694274902
vn -0.81993699073791504 0 0.57245379686355591
vn -0.81993699073791504 0 0.57245379686355591
vn 0.30020001530647278 0 0.95387625694274902
vn 0.30020001530647278 0 0.95387625694274902
vn -0.95387625694274902 0 0.30020001530647278
vn -0.95387625694274902 0 0.30020001530647278
vn 0.7142985463142395 0 -0.69984108209609985
vn 0.7142985463142395 0 -0.69984108209609985
vn 0.69984108209609985 0 0.7142985463142395
vn 0.69984108209609985 0 0.7142985463142395
vn -0.69984108209609985 0 -0.7142985463142395
vn -0.69984108209609985 0 -0.7142985463142395
vn -0.7142985463142395 0 0.69984108209609985
vn -0.7142985463142395 0 0.69984108209609985
vn 0.891304612159729 0 -0.4534049928188324
vn 0.891304612159729 0 -0.4534049928188324
vn -0.4534049928188324 0 -0.891304612159729
vn -0.4534049928188324 0 -0.891304612159729
vn 0.4534049928188324 0 0.891304612159729
vn 0.4534049928188324 0 0.891304612159729
vn -0.891304612159729 0 0.4534049928188324
vn -0.891304612159729 0 0.4534049928188324
vn 0.80806183815002441 0 0.58909761905670166
vn 0.80806183815002441 0 0.58909761905670166
vn -0.58909761905670166 0 0.80806183815002441
vn -0.58909761905670166 0 0.80806183815002441
vn 0.58909761905670166 0 -0.80806183815002441
vn 0.58909761905670166 0 -0.80806183815002441
vn -0.80806183815002441 0 -0.58909761905670166
vn -0.80806183815002441 0 -0.58909761905670166
f 6//6 42//42 41//41 5//5
f 42//42 38//38 37//37 41//41
f 38//38 2//2 1//1 37//37
f 2//2 6//6 5//5 1//1
f 16//16 52//52 51//51 15//15
f 52//52 50//50 49//49 51//51
f 50//50 14//14 13//13 49//49
f 14//14 16//16 15//15 13//13
f 24//24 64//64 63//63 23//23
f 64//64 60//60 59//59 63//63
f 60//60 22//22 21//21 59//59
f 22//22 24//24 23//23 21//21
f 32//32 76//76 75//75 31//31
f 76//76 74//74 73//73 75//75
f 74//74 30//30 29//29 73//73
f 30//30 32//32 31//31 29//29
f 62//62 90//90 89//89 61//61
f 90//90 86//86 85//85 89//89
f 86//86 54//54 53//53 85//85
f 54//54 62//62 61//61 53//53
f 84//84 100//100 99//99 83//83
f 100//100 98//98 97//97 99//99
f 98//98 80//80 79//79 97//97
f 80//80 84//84 83//83 79//79
f 104//104 116//116 115//115 103//103
f 116//116 114//114 113//113 115//115
f 114//114 102//102 101//101 113//113
f 102//102 104//104 103//103 101//101
f 122//122 132//132 131//131 121//121
f 132//132 128//128 127//127 131//131
f 128//128 118//118 117//117 127//127
f 118//118 122//122 121//121 117//117
f 142//142 144//144 143//143 141//141
f 144//144 140//140 139//139 143//143
f 140//140 138//138 137//137 139//139
f 138//138 142//142 141//141 137//137
f 160//160 156//156 155//155 159//159
f 156//156 154//154 153//153 155//155
f 154//154 158//158 157//157 153//153
f 158//158 160//160 159//159 157//157
f 8//8 4//4 3//3 7//7
f 4//4 40//40 39//39 3//3
f 40//40 44//44 43//43 39//39
f 44//44 8//8 7//7 43//43
f 12//12 10//10 9//9 11//11
f 10//10 46//46 45//45 9//9
f 46//46 48//48 47//47 45//45
f 48//48 12//12 11//11 47//47
f 18//18 20//20 19//19 17//17
f 20//20 58//58 57//57 19//19
f 58//58 56//56 55//55 57//57
f 56//56 18//18 17//17 55//55
f 26//26 28//28 27//27 25//25
f 28//28 72//72 71//71 27//27
f 72//72 70//70 69//69 71//71
f 70//70 26//26 25//25 69//69
f 34//34 36//36 35//35 33//33
f 36//36 82//82 81//81 35//35
f 82//82 78//78 77//77 81//81
f 78//78 34//34 33//33 77//77
f 66//66 68//68 67//67 65//65
f 68//68 96//96 95//95 67//67
f 96//96 94//94 93//93 95//95
f 94//94 66//66 65//65 93//93
f 88//88 92//92 91//91 87//87
f 92//92 112//112 111//111 91//91
f 112//112 110//110 109//109 111//111
f 110//110 88//88 87//87 109//109
f 106//106 108//108 107//107 105//105
f 108//108 124//124 123//123 107//107
f 124//124 120//120 119//119 123//123
f 120//120 106//106 105//105 119//119
f 126//126 130//130 129//129 125//125
f 130//130 136//136 135//135 129//129
f 136//136 134//134 133//133 135//135
f 134//134 126//126 125//125 133//133
f 146//146 148//148 147//147 145//145
f 148//148 152//152 151//151 147//147
f 152//152 150//150 149//149 151//151
f 150//150 146//146 145//145 149//149
