# Rhino

mtllib Pannelli53.mtl
usemtl diffuse_Black
v 1.471307874429852 3 -0.13042681305034476
v 1.471307874429852 0 -0.13042681305034476
v 1.4713078744298529 3 0.13042681305033868
v 1.4713078744298529 0 0.13042681305033868
v 1.4642569328375048 3 -0.14914269461283899
v 1.4642569328375048 0 -0.14914269461283894
v 1.4642569328375061 3 0.14914269461283294
v 1.4642569328375061 0 0.14914269461283294
v 1.4635816914600916 3 -0.19921507810549122
v 1.4635816914600916 0 -0.19921507810549122
v 1.4608583297587046 3 -0.17940136313218508
v 1.4608583297587046 0 -0.17940136313218508
v 1.4057144239180106 3 -0.45356914942554766
v 1.4057144239180106 0 -0.45356914942554766
v 1.3946872717587153 3 -0.47025452971056825
v 1.3946872717587153 0 -0.47025452971056825
v 1.3846608249898273 3 -0.49900531906741113
v 1.3846608249898273 0 -0.49900531906741113
v 1.3829208936125164 3 -0.51892949129117605
v 1.3829208936125164 0 -0.51892949129117605
v 1.2700700560334819 3 -0.75410879035379697
v 1.2700700560334819 0 -0.75410879035379685
v 1.2556162089923759 3 -0.76793218739332059
v 1.2556162089923759 0 -0.76793218739332059
v 1.2394615661020663 3 -0.79374236051434921
v 1.2394615661020663 0 -0.79374236051434921
v 1.233345047585096 3 -0.81278410941594847
v 1.233345047585096 0 -0.81278410941594847
v 1.1720674393168835 3 -0.01769224465692994
v 1.1720674393168835 0 -0.017692244656929978
v 1.1720674393168835 3 0.017692244656925031
v 1.1720674393168835 0 0.017692244656925031
v 1.1650164977245363 3 -0.036408126219424179
v 1.1650164977245363 0 -0.036408126219424165
v 1.1650164977245367 3 0.036408126219419273
v 1.1650164977245367 0 0.036408126219419273
v 1.1467884551907372 3 -0.24275777406517624
v 1.1467884551907372 0 -0.24275777406517624
v 1.1440650934893501 3 -0.22294405909187015
v 1.1440650934893501 0 -0.22294405909187015
v 1.1389388280240655 3 -0.27726060637422817
v 1.1389388280240655 0 -0.27726060637422817
v 1.1279116758647703 3 -0.29394598665924876
v 1.1279116758647703 0 -0.29394598665924876
v 1.0711343317831643 3 -1.0170689544948233
v 1.0711343317831643 0 -1.0170689544948233
v 1.0661015337484787 3 -0.47118628095934201
v 1.0661015337484787 0 -0.47118628095934201
v 1.0643616023711679 3 -0.49111045318310698
v 1.0643616023711679 0 -0.49111045318310698
v 1.0539740679107295 3 -1.0273415074310903
v 1.0539740679107295 0 -1.0273415074310903
v 1.0490535182319285 3 -0.52301225006021557
v 1.0490535182319285 0 -0.52301225006021557
v 1.0345996711908225 3 -0.53683564709973919
v 1.0345996711908225 0 -0.5368356470997393
v 1.032496262649125 3 -1.0489248668682933
v 1.032496262649125 0 -1.0489248668682933
v 1.0223079612443056 3 -1.066135285645434
v 1.0223079612443056 0 -1.066135285645434
v 0.93501097382832665 3 -0.69594789348467667
v 0.93501097382832665 0 -0.69594789348467667
v 0.92889445531135661 3 -0.71498964238627616
v 0.92889445531135661 0 -0.71498964238627616
v 0.90689076141725378 3 -0.74270064271136227
v 0.90689076141725378 0 -0.74270064271136227
v 0.88973049754481903 3 -0.75297319564762932
v 0.88973049754481903 0 -0.75297319564762932
v 0.81882080810637703 3 -1.2293455572514094
v 0.81882080810637703 0 -1.2293455572514094
v 0.79980927422772097 3 -1.235555354315784
v 0.79980927422772097 0 -1.235555354315784
v 0.77407860930789629 3 -1.2518363372785721
v 0.77407860930789629 0 -1.2518363372785721
v 0.76032623828026458 3 -1.2663577797385468
v 0.76032623828026458 0 -1.2663577797385468
v 0.75732604498390466 3 -0.8860283591478274
v 0.75732604498390466 0 -0.8860283591478274
v 0.74713774357908536 3 -0.90323877792496798
v 0.74713774357908536 0 -0.90323877792496798
v 0.71953494923289285 3 -0.92537806039491532
v 0.71953494923289285 0 -0.92537806039491532
v 0.70052341535423679 3 -0.93158785745928974
v 0.70052341535423679 0 -0.93158785745928974
v 0.54190131401560149 3 -1.031955404798734
v 0.54190131401560149 0 -1.031955404798734
v 0.52814894298796999 3 -1.0464768472587087
v 0.52814894298796999 0 -1.0464768472587087
v 0.5257030159410977 3 -1.380360226155547
v 0.5257030159410977 0 -1.380360226155547
v 0.5057876131543394 3 -1.3821978147496516
v 0.5057876131543394 0 -1.3821978147496516
v 0.49632257726806978 3 -1.0619411457900187
v 0.49632257726806978 0 -1.0619411457900187
v 0.47708632389491568 3 -1.3923650915875165
v 0.47708632389491568 0 -1.3923650915875165
v 0.47640717448131148 3 -1.0637787343841234
v 0.47640717448131148 0 -1.0637787343841234
v 0.46045520466548279 3 -1.4034739111997161
v 0.46045520466548279 0 -1.4034739111997161
v 0.29947203395371141 3 -1.126457053111561
v 0.29947203395371141 0 -1.126457053111561
v 0.28284091472427852 3 -1.1375658727237601
v 0.28284091472427852 0 -1.1375658727237601
v 0.24837697979254922 3 -1.1455845554724315
v 0.24837697979254925 0 -1.1455845554724315
v 0.22855015166326781 3 -1.1429583631085829
v 0.22855015166326784 0 -1.1429583631085829
v 0.20638788389961468 3 -1.4625874525310265
v 0.20638788389961465 0 -1.4625874525310265
v 0.18656105577033327 3 -1.4599612601671779
v 0.18656105577033325 0 -1.4599612601671779
v 0.15631941250801057 3 -1.4635081653315871
v 0.15631941250801057 0 -1.4635081653315871
v 0.13763832305552767 3 -1.47065077667957
v 0.13763832305552767 0 -1.47065077667957
v 0.042119174572309744 3 -1.1648240067746296
v 0.042119174572309744 0 -1.1648240067746296
v 0.023438085119826889 3 -1.171966618122612
v 0.023438085119826889 0 -1.171966618122612
v -0.011945978968224949 3 -1.1721400903536776
v -0.01194597896822497 0 -1.1721400903536776
v -0.030696202812236707 3 -1.1651809879834394
v -0.030696202812236693 0 -1.1651809879834394
v -0.12321216829049943 3 -1.4719296099022237
v -0.12321216829049943 0 -1.4719296099022237
v -0.14196239213451117 3 -1.4649705075319854
v -0.14196239213451115 0 -1.4649705075319854
v -0.17223735865626308 3 -1.4617202882228157
v -0.17223735865626308 0 -1.4617202882228157
v -0.19203748425912689 3 -1.4645407538068667
v -0.19203748425912689 0 -1.4645407538068667
v -0.21733260815196204 3 -1.145144326737473
v -0.21733260815196204 0 -1.145144326737473
v -0.2371327337548258 3 -1.1479647923215239
v -0.2371327337548258 0 -1.1479647923215239
v -0.27167363417985685 3 -1.1402844093994036
v -0.27167363417985679 0 -1.1402844093994036
v -0.28841287449423203 3 -1.1293391897260667
v -0.28841287449423197 0 -1.1293391897260667
v -0.44667219283817755 3 -1.4079211508699243
v -0.44667219283817761 0 -1.4079211508699243
v -0.46341143315255273 3 -1.3969759311965875
v -0.46341143315255273 0 -1.3969759311965875
v -0.46595406266944883 3 -1.0683987098021928
v -0.46595406266944883 0 -1.0683987098021928
v -0.48588652546095906 3 -1.066756477460209
v -0.48588652546095906 0 -1.066756477460209
v -0.49221103159345081 3 -1.387090555478188
v -0.49221103159345081 0 -1.387090555478188
v -0.5121434943849611 3 -1.3854483231362045
v -0.5121434943849611 0 -1.3854483231362045
v -0.51786298674874631 3 -1.0516049756365289
v -0.5178629867487462 0 -1.0516049756365289
v -0.53175707756051593 3 -1.0372190714065441
v -0.53175707756051593 0 -1.0372190714065441
v -0.74787321773358462 3 -1.2737518067184723
v -0.74787321773358451 0 -1.2737518067184723
v -0.76176730854535424 3 -1.2593659024884876
v -0.76176730854535424 0 -1.2593659024884876
vn 0.9109947681427002 0 0.41241788864135742
vn 0.9109947681427002 0 0.41241788864135742
vn 0.9109947681427002 0 -0.41241788864135742
vn 0.9109947681427002 0 -0.41241788864135742
vn 0.41241788864135742 0 -0.9109947681427002
vn 0.41241788864135742 0 -0.9109947681427002
vn 0.41241788864135742 0 0.9109947681427002
vn 0.41241788864135742 0 0.9109947681427002
vn 0.7968059778213501 0 -0.60423523187637329
vn 0.7968059778213501 0 -0.60423523187637329
vn 0.60423523187637329 0 0.7968059778213501
vn 0.60423523187637329 0 0.7968059778213501
vn 0.9797859787940979 0 0.20004855096340179
vn 0.9797859787940979 0 0.20004855096340179
vn 0.20004855096340179 0 -0.9797859787940979
vn 0.20004855096340179 0 -0.9797859787940979
vn 0.76594173908233643 0 0.64291000366210938
vn 0.76594173908233643 0 0.64291000366210938
vn 0.64291000366210938 0 -0.76594173908233643
vn 0.64291000366210938 0 -0.76594173908233643
vn 0.99975156784057617 0 -0.022289782762527466
vn 0.99975156784057617 0 -0.022289782762527466
vn -0.022289782762527466 0 -0.99975156784057617
vn -0.022289782762527466 0 -0.99975156784057617
vn 0.88947904109954834 0 0.45697593688964844
vn 0.88947904109954834 0 0.45697593688964844
vn 0.45697593688964844 0 -0.88947904109954834
vn 0.45697593688964844 0 -0.88947904109954834
vn -0.41241788864135742 0 0.9109947681427002
vn -0.41241788864135742 0 0.9109947681427002
vn -0.41241788864135742 0 -0.9109947681427002
vn -0.41241788864135742 0 -0.9109947681427002
vn -0.9109947681427002 0 -0.41241788864135742
vn -0.9109947681427002 0 -0.41241788864135742
vn -0.9109947681427002 0 0.41241788864135742
vn -0.9109947681427002 0 0.41241788864135742
vn -0.60423523187637329 0 -0.7968059778213501
vn -0.60423523187637329 0 -0.7968059778213501
vn -0.7968059778213501 0 0.60423523187637329
vn -0.7968059778213501 0 0.60423523187637329
vn -0.20004855096340179 0 0.9797859787940979
vn -0.20004855096340179 0 0.9797859787940979
vn -0.9797859787940979 0 -0.20004855096340179
vn -0.9797859787940979 0 -0.20004855096340179
vn 0.96989655494689941 0 -0.24351735413074493
vn 0.96989655494689941 0 -0.24351735413074493
vn -0.64291000366210938 0 0.76594173908233643
vn -0.64291000366210938 0 0.76594173908233643
vn -0.76594173908233643 0 -0.64291000366210938
vn -0.76594173908233643 0 -0.64291000366210938
vn -0.24351735413074493 0 -0.96989655494689941
vn -0.24351735413074493 0 -0.96989655494689941
vn 0.022289782762527466 0 0.99975156784057617
vn 0.022289782762527466 0 0.99975156784057617
vn -0.99975156784057617 0 0.022289782762527466
vn -0.99975156784057617 0 0.022289782762527466
vn 0.96869105100631714 0 0.24826934933662415
vn 0.96869105100631714 0 0.24826934933662415
vn 0.24826934933662415 0 -0.96869105100631714
vn 0.24826934933662415 0 -0.96869105100631714
vn -0.45697593688964844 0 0.88947904109954834
vn -0.45697593688964844 0 0.88947904109954834
vn -0.88947904109954834 0 -0.45697593688964844
vn -0.88947904109954834 0 -0.45697593688964844
vn 0.24351735413074493 0 0.96989655494689941
vn 0.24351735413074493 0 0.96989655494689941
vn -0.96989655494689941 0 0.24351735413074493
vn -0.96989655494689941 0 0.24351735413074493
vn 0.89170867204666138 0 -0.45260977745056152
vn 0.89170867204666138 0 -0.45260977745056152
vn -0.45260977745056152 0 -0.89170867204666138
vn -0.45260977745056152 0 -0.89170867204666138
vn 0.99963027238845825 0 0.027190785855054855
vn 0.99963027238845825 0 0.027190785855054855
vn 0.027190785855054855 0 -0.99963027238845825
vn 0.027190785855054855 0 -0.99963027238845825
vn -0.24826934933662415 0 0.96869105100631714
vn -0.24826934933662415 0 0.96869105100631714
vn -0.96869105100631714 0 -0.24826934933662415
vn -0.96869105100631714 0 -0.24826934933662415
vn 0.45260977745056152 0 0.89170867204666138
vn 0.45260977745056152 0 0.89170867204666138
vn -0.89170867204666138 0 0.45260977745056152
vn -0.89170867204666138 0 0.45260977745056152
vn -0.027190785855054855 0 0.99963027238845825
vn -0.027190785855054855 0 0.99963027238845825
vn -0.99963027238845825 0 -0.027190785855054855
vn -0.99963027238845825 0 -0.027190785855054855
vn 0.7690843939781189 0 -0.63914728164672852
vn 0.7690843939781189 0 -0.63914728164672852
vn -0.63914728164672852 0 -0.7690843939781189
vn -0.63914728164672852 0 -0.7690843939781189
vn 0.63914728164672852 0 0.7690843939781189
vn 0.63914728164672852 0 0.7690843939781189
vn 0.98075497150421143 0 -0.19524277746677399
vn 0.98075497150421143 0 -0.19524277746677399
vn -0.7690843939781189 0 0.63914728164672852
vn -0.7690843939781189 0 0.63914728164672852
vn -0.19524277746677399 0 -0.98075497150421143
vn -0.19524277746677399 0 -0.98075497150421143
vn 0.19524277746677399 0 0.98075497150421143
vn 0.19524277746677399 0 0.98075497150421143
vn -0.98075497150421143 0 0.19524277746677399
vn -0.98075497150421143 0 0.19524277746677399
vn 0.7938341498374939 0 0.60813432931900024
vn 0.7938341498374939 0 0.60813432931900024
vn -0.60813432931900024 0 0.7938341498374939
vn -0.60813432931900024 0 0.7938341498374939
vn 0.60813432931900024 0 -0.7938341498374939
vn 0.60813432931900024 0 -0.7938341498374939
vn -0.7938341498374939 0 -0.60813432931900024
vn -0.7938341498374939 0 -0.60813432931900024
vn 0.91300565004348755 0 -0.40794685482978821
vn 0.91300565004348755 0 -0.40794685482978821
vn -0.40794685482978821 0 -0.91300565004348755
vn -0.40794685482978821 0 -0.91300565004348755
vn 0.40794685482978821 0 0.91300565004348755
vn 0.40794685482978821 0 0.91300565004348755
vn -0.91300565004348755 0 0.40794685482978821
vn -0.91300565004348755 0 0.40794685482978821
vn 0.9089619517326355 0 0.41687911748886108
vn 0.9089619517326355 0 0.41687911748886108
vn -0.41687911748886108 0 0.9089619517326355
vn -0.41687911748886108 0 0.9089619517326355
vn 0.41687911748886108 0 -0.9089619517326355
vn 0.41687911748886108 0 -0.9089619517326355
vn -0.9089619517326355 0 -0.41687911748886108
vn -0.9089619517326355 0 -0.41687911748886108
vn 0.7997586727142334 0 -0.60032159090042114
vn 0.7997586727142334 0 -0.60032159090042114
vn -0.60032159090042114 0 -0.7997586727142334
vn -0.60032159090042114 0 -0.7997586727142334
vn 0.60032159090042114 0 0.7997586727142334
vn 0.60032159090042114 0 0.7997586727142334
vn -0.7997586727142334 0 0.60032159090042114
vn -0.7997586727142334 0 0.60032159090042114
vn 0.9787934422492981 0 0.20484957098960876
vn 0.9787934422492981 0 0.20484957098960876
vn -0.20484957098960876 0 0.9787934422492981
vn -0.20484957098960876 0 0.9787934422492981
vn 0.20484957098960876 0 -0.9787934422492981
vn 0.20484957098960876 0 -0.9787934422492981
vn -0.9787934422492981 0 -0.20484957098960876
vn -0.9787934422492981 0 -0.20484957098960876
vn 0.76278066635131836 0 0.64665728807449341
vn 0.76278066635131836 0 0.64665728807449341
vn -0.64665728807449341 0 0.76278066635131836
vn -0.64665728807449341 0 0.76278066635131836
vn 0.64665728807449341 0 -0.76278066635131836
vn 0.64665728807449341 0 -0.76278066635131836
vn -0.76278066635131836 0 -0.64665728807449341
vn -0.76278066635131836 0 -0.64665728807449341
vn 0.99984884262084961 0 -0.017388230189681053
vn 0.99984884262084961 0 -0.017388230189681053
vn 0.017388230189681053 0 0.99984884262084961
vn 0.017388230189681053 0 0.99984884262084961
vn -0.017388230189681053 0 -0.99984884262084961
vn -0.017388230189681053 0 -0.99984884262084961
vn -0.99984884262084961 0 0.017388230189681053
vn -0.99984884262084961 0 0.017388230189681053
f 6//6 34//34 33//33 5//5
f 34//34 30//30 29//29 33//33
f 30//30 2//2 1//1 29//29
f 2//2 6//6 5//5 1//1
f 16//16 44//44 43//43 15//15
f 44//44 42//42 41//41 43//43
f 42//42 14//14 13//13 41//41
f 14//14 16//16 15//15 13//13
f 24//24 56//56 55//55 23//23
f 56//56 54//54 53//53 55//55
f 54//54 22//22 21//21 53//53
f 22//22 24//24 23//23 21//21
f 52//52 68//68 67//67 51//51
f 68//68 66//66 65//65 67//67
f 66//66 46//46 45//45 65//65
f 46//46 52//52 51//51 45//45
f 72//72 84//84 83//83 71//71
f 84//84 82//82 81//81 83//83
f 82//82 70//70 69//69 81//81
f 70//70 72//72 71//71 69//69
f 92//92 98//98 97//97 91//91
f 98//98 94//94 93//93 97//97
f 94//94 90//90 89//89 93//93
f 90//90 92//92 91//91 89//89
f 112//112 108//108 107//107 111//111
f 108//108 106//106 105//105 107//107
f 106//106 110//110 109//109 105//105
f 110//110 112//112 111//111 109//109
f 128//128 124//124 123//123 127//127
f 124//124 122//122 121//121 123//123
f 122//122 126//126 125//125 121//121
f 126//126 128//128 127//127 125//125
f 144//144 140//140 139//139 143//143
f 140//140 138//138 137//137 139//139
f 138//138 142//142 141//141 137//137
f 142//142 144//144 143//143 141//141
f 160//160 156//156 155//155 159//159
f 156//156 154//154 153//153 155//155
f 154//154 158//158 157//157 153//153
f 158//158 160//160 159//159 157//157
f 8//8 4//4 3//3 7//7
f 4//4 32//32 31//31 3//3
f 32//32 36//36 35//35 31//31
f 36//36 8//8 7//7 35//35
f 12//12 10//10 9//9 11//11
f 10//10 38//38 37//37 9//9
f 38//38 40//40 39//39 37//37
f 40//40 12//12 11//11 39//39
f 18//18 20//20 19//19 17//17
f 20//20 50//50 49//49 19//19
f 50//50 48//48 47//47 49//49
f 48//48 18//18 17//17 47//47
f 26//26 28//28 27//27 25//25
f 28//28 64//64 63//63 27//27
f 64//64 62//62 61//61 63//63
f 62//62 26//26 25//25 61//61
f 58//58 60//60 59//59 57//57
f 60//60 80//80 79//79 59//59
f 80//80 78//78 77//77 79//79
f 78//78 58//58 57//57 77//77
f 74//74 76//76 75//75 73//73
f 76//76 88//88 87//87 75//75
f 88//88 86//86 85//85 87//87
f 86//86 74//74 73//73 85//85
f 96//96 100//100 99//99 95//95
f 100//100 104//104 103//103 99//99
f 104//104 102//102 101//101 103//103
f 102//102 96//96 95//95 101//101
f 114//114 116//116 115//115 113//113
f 116//116 120//120 119//119 115//115
f 120//120 118//118 117//117 119//119
f 118//118 114//114 113//113 117//117
f 130//130 132//132 131//131 129//129
f 132//132 136//136 135//135 131//131
f 136//136 134//134 133//133 135//135
f 134//134 130//130 129//129 133//133
f 150//150 152//152 151//151 149//149
f 152//152 148//148 147//147 151//151
f 148//148 146//146 145//145 147//147
f 146//146 150//150 149//149 145//145
