# Rhino

mtllib Pannelli161.mtl
usemtl diffuse_Black
v 1.223119890604986 3 -0.32775255657439567
v 1.223119890604986 0 -0.32775255657439567
v 1.2231198906049878 3 0.32775255657438912
v 1.2231198906049878 0 0.32775255657438912
v 1.2035272976449436 3 -0.33176881118560952
v 1.2035272976449436 0 -0.33176881118560952
v 1.2035272976449454 3 0.33176881118560309
v 1.2035272976449454 0 0.33176881118560309
v 1.1984745516330415 3 -0.40878203754884562
v 1.1984745516330415 0 -0.40878203754884562
v 1.1844362272773719 3 -0.39453684715752335
v 1.1844362272773719 0 -0.39453684715752335
v 1.1636386380477581 3 -0.037583709496487927
v 1.1636386380477581 0 -0.037583709496487955
v 1.1636386380477586 3 0.037583709496481751
v 1.1636386380477586 0 0.037583709496481751
v 1.1440460450877157 3 -0.041599964107701767
v 1.1440460450877157 0 -0.041599964107701795
v 1.1440460450877161 3 0.041599964107695717
v 1.1440460450877161 0 0.041599964107695717
v 0.98750143129694168 3 -0.61669144502226536
v 0.98750143129694168 0 -0.61669144502226536
v 0.97346310694127225 3 -0.60244625463094315
v 0.97346310694127225 0 -0.60244625463094315
v 0.96305133191170289 3 0.82217767984645573
v 0.96305133191170289 0 0.82217767984645573
v 0.95526030072460633 3 0.80375758665880614
v 0.95526030072460633 0 0.80375758665880614
v 0.94564845067329606 3 -0.67912916511982679
v 0.94564845067329606 0 -0.67912916511982679
v 0.9271376506446628 3 -0.67155616820315245
v 0.9271376506446628 0 -0.67155616820315245
v 0.83349138250383903 3 -0.95327651834420246
v 0.83349138250383903 0 -0.95327651834420246
v 0.81498058247520577 3 -0.94570352142752812
v 0.81498058247520577 0 -0.94570352142752812
v 0.767902805169973 3 -1.0068611060849912
v 0.767902805169973 0 -1.0068611060849912
v 0.76417356591864083 3 -0.98721186247088943
v 0.76417356591864083 0 -0.98721186247088943
v 0.69024735878632615 3 0.93756386388643365
v 0.69024735878632615 0 0.93756386388643365
v 0.68245632759922958 3 0.91914377069878406
v 0.68245632759922958 0 0.91914377069878406
v 0.62830816091768271 3 0.98015114655924251
v 0.62830816091768271 0 0.98015114655924251
v 0.61389820912941206 3 0.96628199772235579
v 0.61389820912941206 0 0.96628199772235579
v 0.47689495454576791 3 -1.0620916238752418
v 0.47689495454576791 0 -1.0620916238752418
v 0.47316571529443563 3 -1.04244238026114
v 0.47316571529443563 0 -1.04244238026114
v 0.42290426485559712 3 1.1935644045888569
v 0.42290426485559712 0 1.1935644045888569
v 0.40849431306732631 3 1.1796952557519702
v 0.40849431306732631 0 1.1796952557519702
v 0.40736470528518737 3 -1.0906518289835074
v 0.40736470528518737 0 -1.0906518289835074
v 0.39620535368058213 3 -1.0740545740368366
v 0.39620535368058202 0 -1.0740545740368366
v 0.34595606613616042 3 1.1995261149952701
v 0.34595606613616048 0 1.1995261149952701
v 0.34217142669332234 3 1.2191647632249145
v 0.3421714266933224 0 1.2191647632249145
v 0.16155720331975135 3 -1.2559232759966295
v 0.16155720331975149 0 -1.2559232759966295
v 0.15039785171514608 3 -1.2393260210499586
v 0.15039785171514611 0 -1.2393260210499586
v 0.085083355914543912 3 -1.2455156854886944
v 0.085083355914543912 0 -1.2455156854886944
v 0.07724040715300784 3 -1.2639137330678243
v 0.07724040715300784 0 -1.2639137330678243
v 0.055105134532252673 3 1.1434751131715932
v 0.055105134532252617 0 1.1434751131715932
v 0.051320495089414608 3 1.1631137614012377
v 0.051320495089414553 0 1.1631137614012377
v -0.023841684107359679 3 1.1640012840525922
v -0.023841684107359679 0 1.1640012840525922
v -0.028088993954044603 3 1.1444574778965166
v -0.028088993954044603 0 1.1444574778965166
v -0.1873941188846367 3 -1.1293605954264814
v -0.1873941188846367 0 -1.1293605954264814
v -0.19523706764617277 3 -1.1477586430056113
v -0.19523706764617277 0 -1.1477586430056113
v -0.26889451161358136 3 -1.1327679183315758
v -0.26889451161358136 0 -1.1327679183315758
v -0.26892271375618915 3 -1.1127679382156068
v -0.26892271375618915 0 -1.1127679382156068
v -0.31328799228045906 3 1.2269044946643095
v -0.31328799228045906 0 1.2269044946643095
v -0.31753530212714398 3 1.207360688508234
v -0.31753530212714398 0 1.207360688508234
v -0.38052437622829416 3 1.1890120686301384
v -0.38052437622829421 0 1.1890120686301384
v -0.39460281920544354 3 1.2032176113279436
v -0.39460281920544354 0 1.2032176113279436
v -0.56509681539579704 3 -1.1331855957274317
v -0.56509681539579704 0 -1.1331855957274317
v -0.56512501753840472 3 -1.1131856156114628
v -0.56512501753840472 0 -1.1131856156114628
v -0.59091030907263731 3 0.98050849916065808
v -0.59091030907263731 0 0.98050849916065808
v -0.60498875204978675 3 0.99471404185846313
v -0.60498875204978675 0 0.99471404185846302
v -0.62282480517296857 3 -1.0819601482094001
v -0.62282480517296857 0 -1.0819601482094001
v -0.6395835150665774 3 -1.0928755338050562
v -0.6395835150665774 0 -1.0928755338050562
v -0.66056238267217438 3 0.9350022721325687
v -0.66056238267217438 0 0.9350022721325687
v -0.66791628951629889 3 0.95360119828780521
v -0.66791628951629889 0 0.95360119828780521
v -0.78448308389910804 3 -0.83376147750465857
v -0.78448308389910804 0 -0.83376147750465857
v -0.80124179379271687 3 -0.84467686310031465
v -0.80124179379271687 0 -0.84467686310031465
v -0.84296596763637044 3 -0.77458394490299343
v -0.84296596763637044 0 -0.77458394490299343
v -0.85407846709386526 3 -0.79121260557687778
v -0.85407846709386515 0 -0.79121260557687778
v -0.9360148952803069 3 0.82608995640029981
v -0.9360148952803069 0 0.82608995640029981
v -0.94336880212443153 3 0.84468888255553631
v -0.94336880212443153 0 0.84468888255553631
v -0.97812023544104343 3 0.77577658206007394
v -0.97812023544104343 0 0.77577658206007394
v -0.99772407717244782 3 0.77973756544429296
v -0.99772407717244782 0 0.77973756544429296
v -1.0367829139460059 3 0.48544113921693371
v -1.0367829139460059 0 0.48544113921693371
v -1.0563867556774102 3 0.48940212260115268
v -1.0563867556774102 0 0.48940212260115268
v -1.0693015965123109 3 0.40885939635873536
v -1.0693015965123109 0 0.40885939635873536
v -1.0857659329193978 3 0.42021393847518684
v -1.0857659329193978 0 0.42021393847518684
v -1.0892385925018577 3 -0.61000638427530041
v -1.0892385925018577 0 -0.61000638427530052
v -1.1003510919593524 3 -0.62663504494918476
v -1.1003510919593524 0 -0.62663504494918487
v -1.1158656143874461 3 -0.25576520662970065
v -1.1158656143874461 0 -0.25576520662970065
v -1.119780605765444 3 -0.5519419310069027
v -1.119780605765444 0 -0.5519419310069027
v -1.1314944841250472 3 -0.17404638085636739
v -1.1314944841250472 0 -0.17404638085636739
v -1.1358638673473966 3 -0.25550086111748033
v -1.1358638673473966 0 -0.25550086111748033
v -1.1397788587253945 3 -0.55167758549468238
v -1.1397788587253945 0 -0.55167758549468238
v -1.1499838530871846 3 -0.18167155202703272
v -1.1499838530871846 0 -0.1816715520270327
v -1.2374638403637304 3 0.16502043523243254
v -1.2374638403637304 0 0.16502043523243254
v -1.2444242597742456 3 0.09978357548902711
v -1.2444242597742456 0 0.099783575489027096
v -1.2539281767708175 3 0.17637497734888408
v -1.2539281767708175 0 0.17637497734888408
v -1.2629136287363831 3 0.092158404318361795
v -1.2629136287363831 0 0.092158404318361781
vn 0.83469879627227783 0 -0.55070674419403076
vn 0.83469879627227783 0 -0.55070674419403076
vn 0.83469879627227783 0 0.55070674419403076
vn 0.83469879627227783 0 0.55070674419403076
vn -0.55070674419403076 0 -0.83469879627227783
vn -0.55070674419403076 0 -0.83469879627227783
vn -0.55070674419403076 0 0.83469879627227783
vn -0.55070674419403076 0 0.83469879627227783
vn 0.99997323751449585 0 -0.0073138270527124405
vn 0.99997323751449585 0 -0.0073138270527124405
vn 0.0073138270527124405 0 0.99997323751449585
vn 0.0073138270527124405 0 0.99997323751449585
vn 0.55070674419403076 0 0.83469879627227783
vn 0.55070674419403076 0 0.83469879627227783
vn 0.55070674419403076 0 -0.83469879627227783
vn 0.55070674419403076 0 -0.83469879627227783
vn -0.83469879627227783 0 0.55070674419403076
vn -0.83469879627227783 0 0.55070674419403076
vn -0.83469879627227783 0 -0.55070674419403076
vn -0.83469879627227783 0 -0.55070674419403076
vn -0.0073138270527124405 0 -0.99997323751449585
vn -0.0073138270527124405 0 -0.99997323751449585
vn -0.99997323751449585 0 0.0073138270527124405
vn -0.99997323751449585 0 0.0073138270527124405
vn 0.92670315504074097 0 0.37579411268234253
vn 0.92670315504074097 0 0.37579411268234253
vn 0.37579411268234253 0 -0.92670315504074097
vn 0.37579411268234253 0 -0.92670315504074097
vn 0.92220151424407959 0 0.38670971989631653
vn 0.92220151424407959 0 0.38670971989631653
vn -0.38670971989631653 0 0.92220151424407959
vn -0.38670971989631653 0 0.92220151424407959
vn 0.38670971989631653 0 -0.92220151424407959
vn 0.38670971989631653 0 -0.92220151424407959
vn -0.92220151424407959 0 -0.38670971989631653
vn -0.92220151424407959 0 -0.38670971989631653
vn 0.82655417919158936 0 -0.56285715103149414
vn 0.82655417919158936 0 -0.56285715103149414
vn 0.56285715103149414 0 0.82655417919158936
vn 0.56285715103149414 0 0.82655417919158936
vn -0.37579411268234253 0 0.92670315504074097
vn -0.37579411268234253 0 0.92670315504074097
vn -0.92670315504074097 0 -0.37579411268234253
vn -0.92670315504074097 0 -0.37579411268234253
vn 0.99981719255447388 0 -0.019120298326015472
vn 0.99981719255447388 0 -0.019120298326015472
vn -0.019120298326015472 0 -0.99981719255447388
vn -0.019120298326015472 0 -0.99981719255447388
vn -0.56285715103149414 0 -0.82655417919158936
vn -0.56285715103149414 0 -0.82655417919158936
vn -0.82655417919158936 0 0.56285715103149414
vn -0.82655417919158936 0 0.56285715103149414
vn 0.019120298326015472 0 0.99981719255447388
vn 0.019120298326015472 0 0.99981719255447388
vn -0.99981719255447388 0 0.019120298326015472
vn -0.99981719255447388 0 0.019120298326015472
vn 0.98134422302246094 0 -0.19225890934467316
vn 0.98134422302246094 0 -0.19225890934467316
vn 0.19225890934467316 0 0.98134422302246094
vn 0.19225890934467316 0 0.98134422302246094
vn 0.82813829183578491 0 -0.5605238676071167
vn 0.82813829183578491 0 -0.5605238676071167
vn 0.5605238676071167 0 0.82813829183578491
vn 0.5605238676071167 0 0.82813829183578491
vn -0.19225890934467316 0 -0.98134422302246094
vn -0.19225890934467316 0 -0.98134422302246094
vn -0.98134422302246094 0 0.19225890934467316
vn -0.98134422302246094 0 0.19225890934467316
vn 0.92775934934616089 0 0.37317904829978943
vn 0.92775934934616089 0 0.37317904829978943
vn 0.37317904829978943 0 -0.92775934934616089
vn 0.37317904829978943 0 -0.92775934934616089
vn -0.5605238676071167 0 -0.82813829183578491
vn -0.5605238676071167 0 -0.82813829183578491
vn -0.82813829183578491 0 0.5605238676071167
vn -0.82813829183578491 0 0.5605238676071167
vn 0.84114295244216919 0 0.54081284999847412
vn 0.84114295244216919 0 0.54081284999847412
vn 0.54081284999847412 0 -0.84114295244216919
vn 0.54081284999847412 0 -0.84114295244216919
vn -0.37317904829978943 0 0.92775934934616089
vn -0.37317904829978943 0 0.92775934934616089
vn -0.92775934934616089 0 -0.37317904829978943
vn -0.92775934934616089 0 -0.37317904829978943
vn 0.70810317993164063 0 -0.70610898733139038
vn 0.70810317993164063 0 -0.70610898733139038
vn 0.70610898733139038 0 0.70810317993164063
vn 0.70610898733139038 0 0.70810317993164063
vn -0.54081284999847412 0 0.84114295244216919
vn -0.54081284999847412 0 0.84114295244216919
vn -0.84114295244216919 0 -0.54081284999847412
vn -0.84114295244216919 0 -0.54081284999847412
vn 0.99998992681503296 0 -0.0044936547055840492
vn 0.99998992681503296 0 -0.0044936547055840492
vn 0.0044936547055840492 0 0.99998992681503296
vn 0.0044936547055840492 0 0.99998992681503296
vn -0.70610898733139038 0 -0.70810317993164063
vn -0.70610898733139038 0 -0.70810317993164063
vn -0.70810317993164063 0 0.70610898733139038
vn -0.70810317993164063 0 0.70610898733139038
vn -0.0044936547055840492 0 -0.99998992681503296
vn -0.0044936547055840492 0 -0.99998992681503296
vn -0.99998992681503296 0 0.0044936547055840492
vn -0.99998992681503296 0 0.0044936547055840492
vn 0.97842705249786377 0 -0.20659272372722626
vn 0.97842705249786377 0 -0.20659272372722626
vn -0.20659272372722626 0 -0.97842705249786377
vn -0.20659272372722626 0 -0.97842705249786377
vn 0.91757118701934814 0 -0.39757147431373596
vn 0.91757118701934814 0 -0.39757147431373596
vn 0.39757147431373596 0 0.91757118701934814
vn 0.39757147431373596 0 0.91757118701934814
vn 0.20659272372722626 0 0.97842705249786377
vn 0.20659272372722626 0 0.97842705249786377
vn -0.97842705249786377 0 0.20659272372722626
vn -0.97842705249786377 0 0.20659272372722626
vn 0.98079812526702881 0 0.19502577185630798
vn 0.98079812526702881 0 0.19502577185630798
vn 0.19502577185630798 0 -0.98079812526702881
vn 0.19502577185630798 0 -0.98079812526702881
vn -0.39757147431373596 0 -0.91757118701934814
vn -0.39757147431373596 0 -0.91757118701934814
vn -0.91757118701934814 0 0.39757147431373596
vn -0.91757118701934814 0 0.39757147431373596
vn 0.83314239978790283 0 0.55305856466293335
vn 0.83314239978790283 0 0.55305856466293335
vn -0.55305856466293335 0 0.83314239978790283
vn -0.55305856466293335 0 0.83314239978790283
vn 0.55305856466293335 0 -0.83314239978790283
vn 0.55305856466293335 0 -0.83314239978790283
vn -0.83314239978790283 0 -0.55305856466293335
vn -0.83314239978790283 0 -0.55305856466293335
vn 0.98354589939117432 0 0.18065850436687469
vn 0.98354589939117432 0 0.18065850436687469
vn -0.18065850436687469 0 0.98354589939117432
vn -0.18065850436687469 0 0.98354589939117432
vn -0.19502577185630798 0 0.98079812526702881
vn -0.19502577185630798 0 0.98079812526702881
vn -0.98079812526702881 0 -0.19502577185630798
vn -0.98079812526702881 0 -0.19502577185630798
vn 0.71639102697372437 0 0.69769895076751709
vn 0.71639102697372437 0 0.69769895076751709
vn 0.69769895076751709 0 -0.71639102697372437
vn 0.69769895076751709 0 -0.71639102697372437
vn 0.92328840494155884 0 -0.38410741090774536
vn 0.92328840494155884 0 -0.38410741090774536
vn -0.69769895076751709 0 0.71639102697372437
vn -0.69769895076751709 0 0.71639102697372437
vn -0.71639102697372437 0 -0.69769895076751709
vn -0.71639102697372437 0 -0.69769895076751709
vn -0.38410741090774536 0 -0.92328840494155884
vn -0.38410741090774536 0 -0.92328840494155884
vn 0.18065850436687469 0 -0.98354589939117432
vn 0.18065850436687469 0 -0.98354589939117432
vn 0.38410741090774536 0 0.92328840494155884
vn 0.38410741090774536 0 0.92328840494155884
vn -0.98354589939117432 0 -0.18065850436687469
vn -0.98354589939117432 0 -0.18065850436687469
vn -0.92328840494155884 0 0.38410741090774536
vn -0.92328840494155884 0 0.38410741090774536
f 6//6 18//18 17//17 5//5
f 18//18 14//14 13//13 17//17
f 14//14 2//2 1//1 13//13
f 2//2 6//6 5//5 1//1
f 36//36 32//32 31//31 35//35
f 32//32 30//30 29//29 31//31
f 30//30 34//34 33//33 29//29
f 34//34 36//36 35//35 33//33
f 68//68 60//60 59//59 67//67
f 60//60 58//58 57//57 59//59
f 58//58 66//66 65//65 57//57
f 66//66 68//68 67//67 65//65
f 100//100 88//88 87//87 99//99
f 88//88 86//86 85//85 87//87
f 86//86 98//98 97//97 85//85
f 98//98 100//100 99//99 97//97
f 138//138 118//118 117//117 137//137
f 118//118 120//120 119//119 117//117
f 120//120 140//140 139//139 119//119
f 140//140 138//138 137//137 139//139
f 156//156 146//146 145//145 155//155
f 146//146 152//152 151//151 145//145
f 152//152 160//160 159//159 151//151
f 160//160 156//156 155//155 159//159
f 126//126 130//130 129//129 125//125
f 130//130 132//132 131//131 129//129
f 132//132 128//128 127//127 131//131
f 128//128 126//126 125//125 127//127
f 94//94 102//102 101//101 93//93
f 102//102 104//104 103//103 101//101
f 104//104 96//96 95//95 103//103
f 96//96 94//94 93//93 95//95
f 62//62 74//74 73//73 61//61
f 74//74 76//76 75//75 73//73
f 76//76 64//64 63//63 75//75
f 64//64 62//62 61//61 63//63
f 28//28 44//44 43//43 27//27
f 44//44 42//42 41//41 43//43
f 42//42 26//26 25//25 41//41
f 26//26 28//28 27//27 25//25
f 8//8 4//4 3//3 7//7
f 4//4 16//16 15//15 3//3
f 16//16 20//20 19//19 15//15
f 20//20 8//8 7//7 19//19
f 12//12 10//10 9//9 11//11
f 10//10 22//22 21//21 9//9
f 22//22 24//24 23//23 21//21
f 24//24 12//12 11//11 23//23
f 40//40 38//38 37//37 39//39
f 38//38 50//50 49//49 37//37
f 50//50 52//52 51//51 49//49
f 52//52 40//40 39//39 51//51
f 70//70 72//72 71//71 69//69
f 72//72 84//84 83//83 71//71
f 84//84 82//82 81//81 83//83
f 82//82 70//70 69//69 81//81
f 106//106 108//108 107//107 105//105
f 108//108 116//116 115//115 107//107
f 116//116 114//114 113//113 115//115
f 114//114 106//106 105//105 113//113
f 144//144 150//150 149//149 143//143
f 150//150 148//148 147//147 149//149
f 148//148 142//142 141//141 147//147
f 142//142 144//144 143//143 141//141
f 154//154 158//158 157//157 153//153
f 158//158 136//136 135//135 157//157
f 136//136 134//134 133//133 135//135
f 134//134 154//154 153//153 133//133
f 122//122 124//124 123//123 121//121
f 124//124 112//112 111//111 123//123
f 112//112 110//110 109//109 111//111
f 110//110 122//122 121//121 109//109
f 92//92 90//90 89//89 91//91
f 90//90 78//78 77//77 89//89
f 78//78 80//80 79//79 77//77
f 80//80 92//92 91//91 79//79
f 56//56 54//54 53//53 55//55
f 54//54 46//46 45//45 53//53
f 46//46 48//48 47//47 45//45
f 48//48 56//56 55//55 47//47
