# Rhino

mtllib Pannelli101.mtl
usemtl diffuse_Black
v 1.3848353322864944 3 -0.24740236866183174
v 1.3848353322864944 0 -0.2474023686618318
v 1.3848353322864959 3 0.24740236866182602
v 1.3848353322864959 0 0.24740236866182602
v 1.3704946930579356 3 -0.26134317446767835
v 1.3704946930579356 0 -0.2613431744676783
v 1.3704946930579374 3 0.26134317446767263
v 1.3704946930579374 0 0.26134317446767263
v 1.3687694276843825 3 -0.3247261668007364
v 1.3687694276843825 0 -0.3247261668007364
v 1.3611690702653971 3 -0.30622658391074464
v 1.3611690702653971 0 -0.30622658391074464
v 1.1716630485584343 3 -0.77857724742718148
v 1.1716630485584343 0 -0.77857724742718148
v 1.1709372123872652 3 -0.027369480185945171
v 1.1709372123872652 0 -0.027369480185945198
v 1.1709372123872657 3 0.027369480185940168
v 1.1709372123872657 0 0.027369480185940168
v 1.1565965731587065 3 -0.041310285991791762
v 1.1565965731587065 0 -0.04131028599179172
v 1.1565965731587071 3 0.041310285991786787
v 1.1565965731587071 0 0.041310285991786787
v 1.1529559997631658 3 -0.78565159017908703
v 1.1529559997631658 0 -0.78565159017908703
v 1.1265228447962135 3 -0.82310524156577736
v 1.1265228447962135 0 -0.82310524156577736
v 1.1261247981402775 3 -0.84310128014494845
v 1.1261247981402775 0 -0.84310128014494845
v 1.084924572932179 3 -0.44134081484362858
v 1.084924572932179 0 -0.44134081484362858
v 1.0773242155131937 3 -0.42284123195363682
v 1.0773242155131937 0 -0.42284123195363682
v 1.063119207174406 3 -0.49154917875607418
v 1.063119207174406 0 -0.49154917875607418
v 1.0444121583791375 3 -0.49862352150797978
v 1.0444121583791375 0 -0.49862352150797978
v 0.81971740491816869 3 -0.81699788790755812
v 0.81971740491816869 0 -0.81699788790755812
v 0.81931935826223268 3 -0.8369939264867291
v 0.81931935826223268 0 -0.8369939264867291
v 0.77931816964731127 3 -0.8743604715770682
v 0.77931816964731127 0 -0.8743604715770682
v 0.76453996914878664 3 -1.1808706386147905
v 0.76453996914878664 0 -1.1808706386147905
v 0.75934137546976765 3 -0.87339730264689319
v 0.75934137546976765 0 -0.87339730264689319
v 0.74456317497124302 3 -1.1799074696846152
v 0.74456317497124302 0 -1.1799074696846152
v 0.70539809005145659 3 -1.2037314871235063
v 0.70539809005145659 0 -1.2037314871235063
v 0.69706752982191067 3 -1.2219139447753724
v 0.69706752982191067 0 -1.2219139447753724
v 0.42641898647263288 3 -1.0759131102216575
v 0.42641898647263288 0 -1.0759131102216575
v 0.4180884262430869 3 -1.0940955678735236
v 0.4180884262430869 0 -1.0940955678735236
v 0.36651299626547401 3 -1.1124348373578621
v 0.36651299626547407 0 -1.1124348373578621
v 0.34857330770745898 3 -1.1035935945469548
v 0.34857330770745898 0 -1.1035935945469548
v 0.2308590576651271 3 -1.3876890592140949
v 0.2308590576651271 0 -1.3876890592140949
v 0.21291936910711209 3 -1.3788478164031877
v 0.21291936910711207 0 -1.3788478164031877
v 0.16750553162279919 3 -1.3850985002578604
v 0.16750553162279919 0 -1.3850985002578604
v 0.15262145392861981 3 -1.3984575507927461
v 0.15262145392861981 0 -1.3984575507927461
v -0.037466536193573638 3 -1.1567274663622558
v -0.037466536193573638 0 -1.1567274663622558
v -0.052350613887753 3 -1.1700865168971415
v -0.052350613887753 0 -1.1700865168971415
v -0.106962766105913 3 -1.1663627267989491
v -0.10696276610591295 0 -1.1663627267989491
v -0.11989570954404322 3 -1.151106941862535
v -0.11989570954404317 0 -1.151106941862535
v -0.3410370198421967 3 -1.3647969008851402
v -0.3410370198421967 0 -1.3647969008851402
v -0.35396996328032687 3 -1.3495411159487261
v -0.35396996328032698 0 -1.3495411159487261
v -0.39811499106937348 3 -1.3371837616523181
v -0.39811499106937348 0 -1.3371837616523181
v -0.41708875610627161 3 -1.3435080197372304
v -0.41708875610627161 0 -1.3435080197372304
v -0.4951500500867656 3 -1.0460633827212678
v -0.4951500500867656 0 -1.0460633827212678
v -0.51412381512366367 3 -1.0523876408061803
v -0.51412381512366367 0 -1.0523876408061803
v -0.56273248780283291 3 -1.0272172072985066
v -0.56273248780283291 0 -1.0272172072985066
v -0.56851783626376096 3 -1.0080722407750144
v -0.56851783626376096 0 -1.0080722407750144
v -0.85647966439654555 3 -1.1159836083221433
v -0.85647966439654566 0 -1.1159836083221433
v -0.86226501285747359 3 -1.0968386417986511
v -0.8622650128574737 0 -1.0968386417986511
v -0.87086908936905016 3 -0.76223959615904846
v -0.87086908936905016 0 -0.76223959615904846
v -0.89079172679294261 3 -0.76048217814499541
v -0.89079172679294261 0 -0.76048217814499541
v -0.89783370062023793 3 -1.067918819279527
v -0.89783370062023793 0 -1.067918819279527
v -0.91775633804413037 3 -1.0661614012654743
v -0.91775633804413037 0 -1.0661614012654743
v -0.92303057988208648 3 -0.69816668595237785
v -0.92303057988208648 0 -0.69816668595237785
v -0.92535050184837397 3 -0.7180316793344641
v -0.92535050184837397 0 -0.7180316793344641
v -0.96706172735371421 3 0.63577809671208219
v -0.96706172735371421 0 0.6357780967120823
v -0.98655590923178271 3 0.63130854719285967
v -0.9865559092317826 0 0.63130854719285967
v -1.0099559337224675 3 0.56516474121265459
v -1.0099559337224675 0 0.56516474121265459
v -1.0149747909489095 3 0.58452477923277713
v -1.0149747909489095 0 0.58452477923277713
v -1.0356394159229991 3 0.93488339311781488
v -1.0356394159229991 0 0.93488339311781488
v -1.0551335978010676 3 0.93041384359859236
v -1.0551335978010676 0 0.93041384359859225
v -1.102429146232762 3 -0.35223876888793959
v -1.102429146232762 0 -0.35223876888793959
v -1.1200027698593966 3 -0.34269058829531424
v -1.1200027698593966 0 -0.34269058829531424
v -1.1247498086525818 3 -0.2726903751641559
v -1.1247498086525818 0 -0.2726903751641559
v -1.1347909736485882 3 -0.28998705130504976
v -1.1347909736485882 0 -0.28998705130504981
v -1.1402840070090177 3 0.19792563282871081
v -1.1402840070090177 0 0.19792563282871078
v -1.1514990150193738 3 0.11606976859027435
v -1.1514990150193738 0 0.11606976859027435
v -1.1563842546184517 3 0.18606047261424599
v -1.1563842546184517 0 0.18606047261424602
v -1.1638145817671341 3 0.13182815733029019
v -1.1638145817671341 0 0.13182815733029019
v -1.2278253525384073 3 -0.66257140158985539
v -1.2278253525384073 0 -0.66257140158985539
v -1.2301452745046946 3 -0.68243639497194164
v -1.2301452745046946 0 -0.68243639497194164
v -1.2489298511177225 3 -0.62187634263402725
v -1.2489298511177225 0 -0.62187634263402725
v -1.2665034747443571 3 -0.61232816204140184
v -1.2665034747443571 0 -0.61232816204140184
v -1.3070030191890127 3 0.48815885362412037
v -1.3070030191890127 0 0.48815885362412037
v -1.3120218764154548 3 0.50751889164424291
v -1.3120218764154548 0 0.50751889164424291
v -1.3223348509503898 3 0.44495674003527524
v -1.3223348509503898 0 0.44495674003527519
v -1.3384350985598239 3 0.43309157982081037
v -1.3384350985598239 0 0.43309157982081042
v -1.3901380909778027 3 -0.11862565723063358
v -1.3901380909778027 0 -0.11862565723063354
v -1.3932848752540066 3 -0.072891802894685775
v -1.3932848752540066 0 -0.072891802894685775
v -1.4001792559738091 3 -0.13592233337152743
v -1.4001792559738091 0 -0.13592233337152745
v -1.4056004420017669 3 -0.057133414154669993
v -1.4056004420017669 0 -0.057133414154669993
vn 0.99990010261535645 0 -0.014136221259832382
vn 0.99990010261535645 0 -0.014136221259832382
vn 0.99990010261535645 0 0.014136221259832382
vn 0.99990010261535645 0 0.014136221259832382
vn -0.014136221259832382 0 -0.99990010261535645
vn -0.014136221259832382 0 -0.99990010261535645
vn -0.014136221259832382 0 0.99990010261535645
vn -0.014136221259832382 0 0.99990010261535645
vn 0.92277222871780396 0 -0.38534581661224365
vn 0.92277222871780396 0 -0.38534581661224365
vn 0.38534581661224365 0 0.92277222871780396
vn 0.38534581661224365 0 0.92277222871780396
vn 0.91150987148284912 0 -0.41127824783325195
vn 0.91150987148284912 0 -0.41127824783325195
vn 0.014136221259832382 0 0.99990010261535645
vn 0.014136221259832382 0 0.99990010261535645
vn 0.014136221259832382 0 -0.99990010261535645
vn 0.014136221259832382 0 -0.99990010261535645
vn -0.99990010261535645 0 0.014136221259832382
vn -0.99990010261535645 0 0.014136221259832382
vn -0.99990010261535645 0 -0.014136221259832382
vn -0.99990010261535645 0 -0.014136221259832382
vn -0.41127824783325195 0 -0.91150987148284912
vn -0.41127824783325195 0 -0.91150987148284912
vn 0.72103977203369141 0 0.69289368391036987
vn 0.72103977203369141 0 0.69289368391036987
vn 0.69289368391036987 0 -0.72103977203369141
vn 0.69289368391036987 0 -0.72103977203369141
vn -0.38534581661224365 0 -0.92277222871780396
vn -0.38534581661224365 0 -0.92277222871780396
vn -0.92277222871780396 0 0.38534581661224365
vn -0.92277222871780396 0 0.38534581661224365
vn 0.41127824783325195 0 0.91150987148284912
vn 0.41127824783325195 0 0.91150987148284912
vn -0.91150987148284912 0 0.41127824783325195
vn -0.91150987148284912 0 0.41127824783325195
vn -0.69289368391036987 0 0.72103977203369141
vn -0.69289368391036987 0 0.72103977203369141
vn -0.72103977203369141 0 -0.69289368391036987
vn -0.72103977203369141 0 -0.69289368391036987
vn 0.74033951759338379 0 0.67223316431045532
vn 0.74033951759338379 0 0.67223316431045532
vn 0.67223316431045532 0 -0.74033951759338379
vn 0.67223316431045532 0 -0.74033951759338379
vn -0.67223316431045532 0 0.74033951759338379
vn -0.67223316431045532 0 0.74033951759338379
vn -0.74033951759338379 0 -0.67223316431045532
vn -0.74033951759338379 0 -0.67223316431045532
vn 0.93737673759460449 0 0.34831717610359192
vn 0.93737673759460449 0 0.34831717610359192
vn 0.34831717610359192 0 -0.93737673759460449
vn 0.34831717610359192 0 -0.93737673759460449
vn -0.34831717610359192 0 0.93737673759460449
vn -0.34831717610359192 0 0.93737673759460449
vn -0.93737673759460449 0 -0.34831717610359192
vn -0.93737673759460449 0 -0.34831717610359192
vn 0.94684892892837524 0 0.32167863845825195
vn 0.94684892892837524 0 0.32167863845825195
vn -0.32167863845825195 0 0.94684892892837524
vn -0.32167863845825195 0 0.94684892892837524
vn 0.32167863845825195 0 -0.94684892892837524
vn 0.32167863845825195 0 -0.94684892892837524
vn -0.94684892892837524 0 -0.32167863845825195
vn -0.94684892892837524 0 -0.32167863845825195
vn 0.99854534864425659 0 -0.053917832672595978
vn 0.99854534864425659 0 -0.053917832672595978
vn -0.053917832672595978 0 -0.99854534864425659
vn -0.053917832672595978 0 -0.99854534864425659
vn 0.053917832672595978 0 0.99854534864425659
vn 0.053917832672595978 0 0.99854534864425659
vn -0.99854534864425659 0 0.053917832672595978
vn -0.99854534864425659 0 0.053917832672595978
vn 0.99662202596664429 0 -0.082124859094619751
vn 0.99662202596664429 0 -0.082124859094619751
vn 0.082124859094619751 0 0.99662202596664429
vn 0.082124859094619751 0 0.99662202596664429
vn -0.082124859094619751 0 -0.99662202596664429
vn -0.082124859094619751 0 -0.99662202596664429
vn -0.99662202596664429 0 0.082124859094619751
vn -0.99662202596664429 0 0.082124859094619751
vn 0.89442020654678345 0 -0.44722762703895569
vn 0.89442020654678345 0 -0.44722762703895569
vn -0.44722762703895569 0 -0.89442020654678345
vn -0.44722762703895569 0 -0.89442020654678345
vn 0.44722762703895569 0 0.89442020654678345
vn 0.44722762703895569 0 0.89442020654678345
vn -0.89442020654678345 0 0.44722762703895569
vn -0.89442020654678345 0 0.44722762703895569
vn 0.88141971826553345 0 -0.47233381867408752
vn 0.88141971826553345 0 -0.47233381867408752
vn 0.47233381867408752 0 0.88141971826553345
vn 0.47233381867408752 0 0.88141971826553345
vn -0.47233381867408752 0 -0.88141971826553345
vn -0.47233381867408752 0 -0.88141971826553345
vn -0.88141971826553345 0 0.47233381867408752
vn -0.88141971826553345 0 0.47233381867408752
vn 0.76650571823120117 0 0.64223748445510864
vn 0.76650571823120117 0 0.64223748445510864
vn -0.64223748445510864 0 0.76650571823120117
vn -0.64223748445510864 0 0.76650571823120117
vn 0.64223748445510864 0 -0.76650571823120117
vn 0.64223748445510864 0 -0.76650571823120117
vn -0.76650571823120117 0 -0.64223748445510864
vn -0.76650571823120117 0 -0.64223748445510864
vn 0.78435522317886353 0 0.6203119158744812
vn 0.78435522317886353 0 0.6203119158744812
vn 0.6203119158744812 0 -0.78435522317886353
vn 0.6203119158744812 0 -0.78435522317886353
vn 0.84724587202072144 0 -0.53120094537734985
vn 0.84724587202072144 0 -0.53120094537734985
vn -0.53120094537734985 0 -0.84724587202072144
vn -0.53120094537734985 0 -0.84724587202072144
vn 0.86192411184310913 0 -0.50703728199005127
vn 0.86192411184310913 0 -0.50703728199005127
vn 0.50703728199005127 0 0.86192411184310913
vn 0.50703728199005127 0 0.86192411184310913
vn 0.53120094537734985 0 0.84724587202072144
vn 0.53120094537734985 0 0.84724587202072144
vn -0.84724587202072144 0 0.53120094537734985
vn -0.84724587202072144 0 0.53120094537734985
vn 0.9589005708694458 0 0.28374224901199341
vn 0.9589005708694458 0 0.28374224901199341
vn -0.28374224901199341 0 0.9589005708694458
vn -0.28374224901199341 0 0.9589005708694458
vn 0.96653866767883301 0 0.25652104616165161
vn 0.96653866767883301 0 0.25652104616165161
vn 0.25652104616165161 0 -0.96653866767883301
vn 0.25652104616165161 0 -0.96653866767883301
vn 0.98872649669647217 0 -0.14973296225070953
vn 0.98872649669647217 0 -0.14973296225070953
vn 0.99256420135498047 0 -0.12172216922044754
vn 0.99256420135498047 0 -0.12172216922044754
vn -0.14973296225070953 0 -0.98872649669647217
vn -0.14973296225070953 0 -0.98872649669647217
vn 0.12172216922044754 0 0.99256420135498047
vn 0.12172216922044754 0 0.99256420135498047
vn -0.6203119158744812 0 0.78435522317886353
vn -0.6203119158744812 0 0.78435522317886353
vn -0.78435522317886353 0 -0.6203119158744812
vn -0.78435522317886353 0 -0.6203119158744812
vn 0.28374224901199341 0 -0.9589005708694458
vn 0.28374224901199341 0 -0.9589005708694458
vn -0.9589005708694458 0 -0.28374224901199341
vn -0.9589005708694458 0 -0.28374224901199341
vn -0.50703728199005127 0 -0.86192411184310913
vn -0.50703728199005127 0 -0.86192411184310913
vn -0.86192411184310913 0 0.50703728199005127
vn -0.86192411184310913 0 0.50703728199005127
vn 0.14973296225070953 0 0.98872649669647217
vn 0.14973296225070953 0 0.98872649669647217
vn -0.98872649669647217 0 0.14973296225070953
vn -0.98872649669647217 0 0.14973296225070953
vn -0.25652104616165161 0 0.96653866767883301
vn -0.25652104616165161 0 0.96653866767883301
vn -0.12172216922044754 0 -0.99256420135498047
vn -0.12172216922044754 0 -0.99256420135498047
vn -0.96653866767883301 0 -0.25652104616165161
vn -0.96653866767883301 0 -0.25652104616165161
vn -0.99256420135498047 0 0.12172216922044754
vn -0.99256420135498047 0 0.12172216922044754
f 6//6 20//20 19//19 5//5
f 20//20 16//16 15//15 19//19
f 16//16 2//2 1//1 15//15
f 2//2 6//6 5//5 1//1
f 24//24 36//36 35//35 23//23
f 36//36 34//34 33//33 35//35
f 34//34 14//14 13//13 33//33
f 14//14 24//24 23//23 13//13
f 48//48 46//46 45//45 47//47
f 46//46 42//42 41//41 45//45
f 42//42 44//44 43//43 41//41
f 44//44 48//48 47//47 43//43
f 64//64 60//60 59//59 63//63
f 60//60 58//58 57//57 59//59
f 58//58 62//62 61//61 57//57
f 62//62 64//64 63//63 61//61
f 80//80 76//76 75//75 79//79
f 76//76 74//74 73//73 75//75
f 74//74 78//78 77//77 73//73
f 78//78 80//80 79//79 77//77
f 96//96 92//92 91//91 95//95
f 92//92 90//90 89//89 91//91
f 90//90 94//94 93//93 89//89
f 94//94 96//96 95//95 93//93
f 138//138 106//106 105//105 137//137
f 106//106 108//108 107//107 105//105
f 108//108 140//140 139//139 107//107
f 140//140 138//138 137//137 139//139
f 154//154 126//126 125//125 153//153
f 126//126 128//128 127//127 125//125
f 128//128 158//158 157//157 127//127
f 158//158 154//154 153//153 157//157
f 150//150 130//130 129//129 149//149
f 130//130 134//134 133//133 129//129
f 134//134 152//152 151//151 133//133
f 152//152 150//150 149//149 151//151
f 118//118 110//110 109//109 117//117
f 110//110 112//112 111//111 109//109
f 112//112 120//120 119//119 111//111
f 120//120 118//118 117//117 119//119
f 8//8 4//4 3//3 7//7
f 4//4 18//18 17//17 3//3
f 18//18 22//22 21//21 17//17
f 22//22 8//8 7//7 21//21
f 12//12 10//10 9//9 11//11
f 10//10 30//30 29//29 9//9
f 30//30 32//32 31//31 29//29
f 32//32 12//12 11//11 31//31
f 26//26 28//28 27//27 25//25
f 28//28 40//40 39//39 27//27
f 40//40 38//38 37//37 39//39
f 38//38 26//26 25//25 37//37
f 50//50 52//52 51//51 49//49
f 52//52 56//56 55//55 51//51
f 56//56 54//54 53//53 55//55
f 54//54 50//50 49//49 53//53
f 66//66 68//68 67//67 65//65
f 68//68 72//72 71//71 67//67
f 72//72 70//70 69//69 71//71
f 70//70 66//66 65//65 69//69
f 82//82 84//84 83//83 81//81
f 84//84 88//88 87//87 83//83
f 88//88 86//86 85//85 87//87
f 86//86 82//82 81//81 85//85
f 102//102 104//104 103//103 101//101
f 104//104 100//100 99//99 103//103
f 100//100 98//98 97//97 99//99
f 98//98 102//102 101//101 97//97
f 142//142 144//144 143//143 141//141
f 144//144 124//124 123//123 143//143
f 124//124 122//122 121//121 123//123
f 122//122 142//142 141//141 121//121
f 156//156 160//160 159//159 155//155
f 160//160 136//136 135//135 159//159
f 136//136 132//132 131//131 135//135
f 132//132 156//156 155//155 131//131
f 146//146 148//148 147//147 145//145
f 148//148 116//116 115//115 147//147
f 116//116 114//114 113//113 115//115
f 114//114 146//146 145//145 113//113
