# Rhino

mtllib Pannelli111.mtl
usemtl diffuse_Black
v 1.3611610139132684 3 -0.26655285566213616
v 1.3611610139132684 0 -0.26655285566213616
v 1.361161013913269 3 0.26655285566213377
v 1.361161013913269 0 0.26655285566213377
v 1.3455823622233216 3 -0.27909500904675533
v 1.3455823622233216 0 -0.27909500904675533
v 1.3455823622233223 3 0.27909500904675294
v 1.3455823622233223 0 0.27909500904675294
v 1.3433984690108742 3 -0.3450946016939066
v 1.3433984690108742 0 -0.3450946016939066
v 1.3347327348874107 3 -0.32706947888984678
v 1.3347327348874107 0 -0.32706947888984678
v 1.1701575661861141 3 -0.029306818839676809
v 1.1701575661861141 0 -0.029306818839676844
v 1.1701575661861146 3 0.029306818839674922
v 1.1701575661861146 0 0.029306818839674922
v 1.1545789144961673 3 -0.041848972224295983
v 1.1545789144961673 0 -0.041848972224296024
v 1.1545789144961678 3 0.041848972224294088
v 1.1545789144961678 0 0.041848972224294088
v 1.114002890488021 3 -0.82632154192140617
v 1.114002890488021 0 -0.82632154192140617
v 1.0945433701774236 3 -0.83093966592162982
v 1.0945433701774236 0 -0.83093966592162982
v 1.0688953198544577 3 -0.47706437147029679
v 1.0688953198544577 0 -0.47706437147029679
v 1.0641723524936026 3 -0.88957682908631819
v 1.0641723524936026 0 -0.88957682908631819
v 1.0641061344007801 3 -0.86957693870751429
v 1.0641061344007801 0 -0.86957693870751429
v 1.0602295857309942 3 -0.45903924866623691
v 1.0602295857309942 0 -0.45903924866623691
v 1.0436738505676553 3 -0.52997406820937498
v 1.0436738505676553 0 -0.52997406820937498
v 1.0242143302570579 3 -0.53459219220959864
v 1.0242143302570579 0 -0.53459219220959864
v 0.75959562636287647 3 -0.89058525910970587
v 0.75959562636287647 0 -0.89058525910970587
v 0.75952940827005411 3 -0.87058536873090175
v 0.75952940827005411 0 -0.87058536873090175
v 0.71406150344838049 3 -0.92749328225392047
v 0.71406150344838049 0 -0.92749328225392047
v 0.69450849093573686 3 -0.92328855851978586
v 0.69450849093573686 0 -0.92328855851978575
v 0.65002810301613911 3 -1.2252645412107035
v 0.65002810301613911 0 -1.2252645412107035
v 0.63047509050349548 3 -1.221059817476569
v 0.63047509050349548 0 -1.221059817476569
v 0.58637419853098416 3 -1.2428399804071515
v 0.58637419853098416 0 -1.2428399804071515
v 0.57782801266791151 3 -1.2609220905493286
v 0.57782801266791151 0 -1.2609220905493286
v 0.31100319377407071 3 -1.1126908014977506
v 0.31100319377407071 0 -1.1126908014977506
v 0.30245700791099805 3 -1.1307729116399274
v 0.30245700791099805 0 -1.1307729116399274
v 0.24547246746793108 3 -1.1444959095812959
v 0.24547246746793105 0 -1.1444959095812959
v 0.22963153541490283 3 -1.1322866970067131
v 0.22963153541490289 0 -1.1322866970067131
v 0.059539348627366678 3 -1.3857361930122434
v 0.059539348627366637 0 -1.3857361930122434
v 0.043698416574338435 3 -1.3735269804376606
v 0.043698416574338469 0 -1.3735269804376606
v -0.0054828430221660063 3 -1.3742109940011751
v -0.0054828430221660063 0 -1.3742109940011751
v -0.020978101870473331 3 -1.3868560307043227
v -0.020978101870473331 0 -1.3868560307043227
v -0.19805309255359663 3 -1.1382349400740321
v -0.19805309255359663 0 -1.1382349400740321
v -0.21354835140190392 3 -1.1508799767771798
v -0.21354835140190392 0 -1.1508799767771798
v -0.27089249617494782 3 -1.1387470635963095
v -0.27089249617494776 0 -1.1387470635963095
v -0.27993825160007085 3 -1.1209096223899915
v -0.27993825160007085 0 -1.1209096223899915
v -0.54253745733570657 3 -1.276504147289284
v -0.54253745733570657 0 -1.276504147289284
v -0.55158321276082956 3 -1.2586667060829659
v -0.55158321276082967 0 -1.2586667060829659
v -0.59627276729608125 3 -1.2381214417747464
v -0.59627276729608125 0 -1.2381214417747464
v -0.61570128080391184 3 -1.2428683210523386
v -0.61570128080391184 0 -1.2428683210523386
v -0.66418968978873139 3 1.2030536037848234
v -0.66418968978873139 0 1.2030536037848234
v -0.66856261100638104 3 -0.94224616817459605
v -0.66856261100638104 0 -0.94224616817459605
v -0.6838520754557037 3 1.2067129192786339
v -0.6838520754557037 0 1.2067129192786339
v -0.68799112451421185 3 -0.94699304745218837
v -0.68799112451421185 0 -0.94699304745218837
v -0.71991711188327379 3 0.90361670983499631
v -0.71991711188327379 0 0.90361670983499631
v -0.73453407118264258 3 -0.9113656333244986
v -0.73453407118264258 0 -0.9113656333244986
v -0.73502408855600498 3 -0.89137163715130197
v -0.73502408855600498 0 -0.89137163715130197
v -0.7395794975502461 3 0.90727602532880658
v -0.7395794975502461 0 0.90727602532880658
v -0.78344717001775066 3 0.84912563149781106
v -0.78344717001775066 0 0.84912563149781106
v -0.7840695723516603 3 0.86911594453524854
v -0.7840695723516603 0 0.86911594453524854
v -1.0089508198446009 3 -0.56286947812995369
v -1.0089508198446009 0 -0.56286947812995369
v -1.02853124639954 3 -0.55879432219101977
v -1.02853124639954 0 -0.55879432219101977
v -1.0386855273206921 3 0.50590135561185656
v -1.0386855273206921 0 0.50590135561185656
v -1.0390210349290223 3 -0.91882806859284605
v -1.0390210349290223 0 -0.91882806859284605
v -1.0395110523023847 3 -0.89883407241964941
v -1.0395110523023847 0 -0.89883407241964941
v -1.0470533210494346 3 -0.48834736525830413
v -1.0470533210494346 0 -0.48834736525830413
v -1.0552144130532799 3 -0.50660651576715254
v -1.0552144130532799 0 -0.50660651576715243
v -1.0580090878603097 3 0.50074383604604444
v -1.0580090878603097 0 0.50074383604604444
v -1.0710110427180295 3 -0.86105822333762205
v -1.0710110427180295 0 -0.86105822333762205
v -1.0725856763251809 3 0.42937602776288419
v -1.0725856763251809 0 0.42937602776288419
v -1.0817493489158918 3 0.44715317895901935
v -1.0817493489158918 0 0.44715317895901935
v -1.0878780435851256 3 0.83964711628558764
v -1.0878780435851256 0 0.83964711628558764
v -1.0885004459190353 3 0.85963742932302478
v -1.0885004459190353 0 0.85963742932302478
v -1.0905914692729686 3 -0.85698306739868801
v -1.0905914692729686 0 -0.85698306739868801
v -1.1172289790375587 3 0.800178308878713
v -1.1172289790375587 0 0.800178308878713
v -1.1365525395771763 3 0.79502078931290088
v -1.1365525395771763 0 0.79502078931290088
v -1.1529684870857599 3 -0.073942369873789715
v -1.1529684870857599 0 -0.073942369873789715
v -1.1552961809155577 3 0.0097232009803794196
v -1.1552961809155577 0 0.0097232009803794039
v -1.1688899184733845 3 -0.061838320032138974
v -1.1688899184733845 0 -0.061838320032138974
v -1.1705200015497021 3 -0.0032473535682666348
v -1.1705200015497021 0 -0.003247353568266627
v -1.3251204593477057 3 -0.36406274983775544
v -1.3251204593477057 0 -0.36406274983775549
v -1.333281551351551 3 -0.38232190034660379
v -1.333281551351551 0 -0.38232190034660385
v -1.3373000911029604 3 -0.31640857121341848
v -1.3373000911029604 0 -0.31640857121341848
v -1.3433124857575007 3 0.28982319301482296
v -1.3433124857575007 0 0.28982319301482296
v -1.3524761583482117 3 0.30760034421095817
v -1.3524761583482117 0 0.30760034421095817
v -1.3528237156021159 3 0.24156554411957804
v -1.3528237156021159 0 0.24156554411957804
v -1.3532215224905848 3 -0.30430452137176772
v -1.3532215224905848 0 -0.30430452137176772
v -1.3680475362362603 3 0.22859498957093199
v -1.3680475362362603 0 0.22859498957093202
vn 0.99422061443328857 0 -0.10735641419887543
vn 0.99422061443328857 0 -0.10735641419887543
vn 0.99422061443328857 0 0.10735641419887543
vn 0.99422061443328857 0 0.10735641419887543
vn -0.10735641419887543 0 -0.99422061443328857
vn -0.10735641419887543 0 -0.99422061443328857
vn -0.10735641419887543 0 0.99422061443328857
vn -0.10735641419887543 0 0.99422061443328857
vn 0.9436643123626709 0 -0.33090436458587646
vn 0.9436643123626709 0 -0.33090436458587646
vn 0.33090436458587646 0 0.9436643123626709
vn 0.33090436458587646 0 0.9436643123626709
vn 0.10735641419887543 0 0.99422061443328857
vn 0.10735641419887543 0 0.99422061443328857
vn 0.10735641419887543 0 -0.99422061443328857
vn 0.10735641419887543 0 -0.99422061443328857
vn -0.99422061443328857 0 0.10735641419887543
vn -0.99422061443328857 0 0.10735641419887543
vn -0.99422061443328857 0 -0.10735641419887543
vn -0.99422061443328857 0 -0.10735641419887543
vn 0.85127323865890503 0 -0.5247226357460022
vn 0.85127323865890503 0 -0.5247226357460022
vn -0.5247226357460022 0 -0.85127323865890503
vn -0.5247226357460022 0 -0.85127323865890503
vn -0.33090436458587646 0 -0.9436643123626709
vn -0.33090436458587646 0 -0.9436643123626709
vn 0.70944410562515259 0 -0.70476174354553223
vn 0.70944410562515259 0 -0.70476174354553223
vn 0.70476174354553223 0 0.70944410562515259
vn 0.70476174354553223 0 0.70944410562515259
vn -0.9436643123626709 0 0.33090436458587646
vn -0.9436643123626709 0 0.33090436458587646
vn 0.5247226357460022 0 0.85127323865890503
vn 0.5247226357460022 0 0.85127323865890503
vn -0.85127323865890503 0 0.5247226357460022
vn -0.85127323865890503 0 0.5247226357460022
vn -0.70476174354553223 0 -0.70944410562515259
vn -0.70476174354553223 0 -0.70944410562515259
vn -0.70944410562515259 0 0.70476174354553223
vn -0.70944410562515259 0 0.70476174354553223
vn 0.83996284008026123 0 0.5426439642906189
vn 0.83996284008026123 0 0.5426439642906189
vn -0.5426439642906189 0 0.83996284008026123
vn -0.5426439642906189 0 0.83996284008026123
vn 0.5426439642906189 0 -0.83996284008026123
vn 0.5426439642906189 0 -0.83996284008026123
vn -0.83996284008026123 0 -0.5426439642906189
vn -0.83996284008026123 0 -0.5426439642906189
vn 0.94145244359970093 0 0.33714580535888672
vn 0.94145244359970093 0 0.33714580535888672
vn 0.33714580535888672 0 -0.94145244359970093
vn 0.33714580535888672 0 -0.94145244359970093
vn -0.33714580535888672 0 0.94145244359970093
vn -0.33714580535888672 0 0.94145244359970093
vn -0.94145244359970093 0 -0.33714580535888672
vn -0.94145244359970093 0 -0.33714580535888672
vn 0.99172234535217285 0 0.12840066850185394
vn 0.99172234535217285 0 0.12840066850185394
vn -0.12840066850185394 0 0.99172234535217285
vn -0.12840066850185394 0 0.99172234535217285
vn 0.12840066850185394 0 -0.99172234535217285
vn 0.12840066850185394 0 -0.99172234535217285
vn -0.99172234535217285 0 -0.12840066850185394
vn -0.99172234535217285 0 -0.12840066850185394
vn 0.99490970373153687 0 -0.10077054053544998
vn 0.99490970373153687 0 -0.10077054053544998
vn -0.10077054053544998 0 -0.99490970373153687
vn -0.10077054053544998 0 -0.99490970373153687
vn 0.10077054053544998 0 0.99490970373153687
vn 0.10077054053544998 0 0.99490970373153687
vn -0.99490970373153687 0 0.10077054053544998
vn -0.99490970373153687 0 0.10077054053544998
vn 0.95046454668045044 0 -0.31083303689956665
vn 0.95046454668045044 0 -0.31083303689956665
vn 0.31083303689956665 0 0.95046454668045044
vn 0.31083303689956665 0 0.95046454668045044
vn -0.31083303689956665 0 -0.95046454668045044
vn -0.31083303689956665 0 -0.95046454668045044
vn -0.95046454668045044 0 0.31083303689956665
vn -0.95046454668045044 0 0.31083303689956665
vn 0.85472923517227173 0 -0.51907414197921753
vn 0.85472923517227173 0 -0.51907414197921753
vn -0.51907414197921753 0 -0.85472923517227173
vn -0.51907414197921753 0 -0.85472923517227173
vn 0.82454663515090942 0 0.56579399108886719
vn 0.82454663515090942 0 0.56579399108886719
vn 0.51907414197921753 0 0.85472923517227173
vn 0.51907414197921753 0 0.85472923517227173
vn -0.56579399108886719 0 0.82454663515090942
vn -0.56579399108886719 0 0.82454663515090942
vn -0.85472923517227173 0 0.51907414197921753
vn -0.85472923517227173 0 0.51907414197921753
vn 0.56579399108886719 0 -0.82454663515090942
vn 0.56579399108886719 0 -0.82454663515090942
vn 0.72421920299530029 0 -0.68956977128982544
vn 0.72421920299530029 0 -0.68956977128982544
vn 0.68956977128982544 0 0.72421920299530029
vn 0.68956977128982544 0 0.72421920299530029
vn -0.82454663515090942 0 -0.56579399108886719
vn -0.82454663515090942 0 -0.56579399108886719
vn 0.72876954078674316 0 -0.68475908041000366
vn 0.72876954078674316 0 -0.68475908041000366
vn 0.68475908041000366 0 0.72876954078674316
vn 0.68475908041000366 0 0.72876954078674316
vn 0.83635109663009644 0 0.54819411039352417
vn 0.83635109663009644 0 0.54819411039352417
vn -0.54819411039352417 0 0.83635109663009644
vn -0.54819411039352417 0 0.83635109663009644
vn 0.86553686857223511 0 -0.50084519386291504
vn 0.86553686857223511 0 -0.50084519386291504
vn -0.68956977128982544 0 -0.72421920299530029
vn -0.68956977128982544 0 -0.72421920299530029
vn -0.72421920299530029 0 0.68956977128982544
vn -0.72421920299530029 0 0.68956977128982544
vn 0.93409663438796997 0 0.35702028870582581
vn 0.93409663438796997 0 0.35702028870582581
vn 0.35702028870582581 0 -0.93409663438796997
vn 0.35702028870582581 0 -0.93409663438796997
vn -0.50084519386291504 0 -0.86553686857223511
vn -0.50084519386291504 0 -0.86553686857223511
vn 0.54819411039352417 0 -0.83635109663009644
vn 0.54819411039352417 0 -0.83635109663009644
vn 0.95250195264816284 0 -0.30453246831893921
vn 0.95250195264816284 0 -0.30453246831893921
vn 0.30453246831893921 0 0.95250195264816284
vn 0.30453246831893921 0 0.95250195264816284
vn -0.68475908041000366 0 -0.72876954078674316
vn -0.68475908041000366 0 -0.72876954078674316
vn -0.72876954078674316 0 0.68475908041000366
vn -0.72876954078674316 0 0.68475908041000366
vn -0.83635109663009644 0 -0.54819411039352417
vn -0.83635109663009644 0 -0.54819411039352417
vn 0.50084519386291504 0 0.86553686857223511
vn 0.50084519386291504 0 0.86553686857223511
vn -0.86553686857223511 0 0.50084519386291504
vn -0.86553686857223511 0 0.50084519386291504
vn 0.99085038900375366 0 0.13496482372283936
vn 0.99085038900375366 0 0.13496482372283936
vn 0.99682170152664185 0 -0.079664960503578186
vn 0.99682170152664185 0 -0.079664960503578186
vn -0.13496482372283936 0 0.99085038900375366
vn -0.13496482372283936 0 0.99085038900375366
vn -0.079664960503578186 0 -0.99682170152664185
vn -0.079664960503578186 0 -0.99682170152664185
vn -0.35702028870582581 0 0.93409663438796997
vn -0.35702028870582581 0 0.93409663438796997
vn -0.93409663438796997 0 -0.35702028870582581
vn -0.93409663438796997 0 -0.35702028870582581
vn 0.13496482372283936 0 -0.99085038900375366
vn 0.13496482372283936 0 -0.99085038900375366
vn -0.30453246831893921 0 -0.95250195264816284
vn -0.30453246831893921 0 -0.95250195264816284
vn -0.95250195264816284 0 0.30453246831893921
vn -0.95250195264816284 0 0.30453246831893921
vn 0.079664960503578186 0 0.99682170152664185
vn 0.079664960503578186 0 0.99682170152664185
vn -0.99085038900375366 0 -0.13496482372283936
vn -0.99085038900375366 0 -0.13496482372283936
vn -0.99682170152664185 0 0.079664960503578186
vn -0.99682170152664185 0 0.079664960503578186
f 6//6 18//18 17//17 5//5
f 18//18 14//14 13//13 17//17
f 14//14 2//2 1//1 13//13
f 2//2 6//6 5//5 1//1
f 24//24 36//36 35//35 23//23
f 36//36 34//34 33//33 35//35
f 34//34 22//22 21//21 33//33
f 22//22 24//24 23//23 21//21
f 48//48 44//44 43//43 47//47
f 44//44 42//42 41//41 43//43
f 42//42 46//46 45//45 41//41
f 46//46 48//48 47//47 45//45
f 64//64 60//60 59//59 63//63
f 60//60 58//58 57//57 59//59
f 58//58 62//62 61//61 57//57
f 62//62 64//64 63//63 61//61
f 80//80 76//76 75//75 79//79
f 76//76 74//74 73//73 75//75
f 74//74 78//78 77//77 73//73
f 78//78 80//80 79//79 77//77
f 114//114 98//98 97//97 113//113
f 98//98 96//96 95//95 97//97
f 96//96 112//112 111//111 95//95
f 112//112 114//114 113//113 111//111
f 146//146 116//116 115//115 145//145
f 116//116 118//118 117//117 115//115
f 118//118 148//148 147//147 117//117
f 148//148 146//146 145//145 147//147
f 156//156 140//140 139//139 155//155
f 140//140 144//144 143//143 139//139
f 144//144 160//160 159//159 143//143
f 160//160 156//156 155//155 159//159
f 134//134 110//110 109//109 133//133
f 110//110 120//120 119//119 109//109
f 120//120 136//136 135//135 119//119
f 136//136 134//134 133//133 135//135
f 86//86 94//94 93//93 85//85
f 94//94 100//100 99//99 93//93
f 100//100 90//90 89//89 99//99
f 90//90 86//86 85//85 89//89
f 8//8 4//4 3//3 7//7
f 4//4 16//16 15//15 3//3
f 16//16 20//20 19//19 15//15
f 20//20 8//8 7//7 19//19
f 12//12 10//10 9//9 11//11
f 10//10 26//26 25//25 9//9
f 26//26 32//32 31//31 25//25
f 32//32 12//12 11//11 31//31
f 30//30 28//28 27//27 29//29
f 28//28 38//38 37//37 27//27
f 38//38 40//40 39//39 37//37
f 40//40 30//30 29//29 39//39
f 50//50 52//52 51//51 49//49
f 52//52 56//56 55//55 51//51
f 56//56 54//54 53//53 55//55
f 54//54 50//50 49//49 53//53
f 66//66 68//68 67//67 65//65
f 68//68 72//72 71//71 67//67
f 72//72 70//70 69//69 71//71
f 70//70 66//66 65//65 69//69
f 82//82 84//84 83//83 81//81
f 84//84 92//92 91//91 83//83
f 92//92 88//88 87//87 91//91
f 88//88 82//82 81//81 87//87
f 122//122 132//132 131//131 121//121
f 132//132 108//108 107//107 131//131
f 108//108 106//106 105//105 107//107
f 106//106 122//122 121//121 105//105
f 150//150 158//158 157//157 149//149
f 158//158 142//142 141//141 157//157
f 142//142 138//138 137//137 141//141
f 138//138 150//150 149//149 137//137
f 152//152 154//154 153//153 151//151
f 154//154 126//126 125//125 153//153
f 126//126 124//124 123//123 125//125
f 124//124 152//152 151//151 123//123
f 128//128 130//130 129//129 127//127
f 130//130 104//104 103//103 129//129
f 104//104 102//102 101//101 103//103
f 102//102 128//128 127//127 101//101
