# Rhino

mtllib Pannelli83.mtl
usemtl diffuse_Black
v 1.422920031104121 3 -0.2079694025882606
v 1.422920031104121 0 -0.20796940258826058
v 1.4229200311041224 3 0.20796940258825033
v 1.4229200311041224 0 0.20796940258825033
v 1.4110887556516221 3 -0.22409456680965975
v 1.4110887556516221 0 -0.22409456680965972
v 1.4110887556516234 3 0.22409456680964962
v 1.4110887556516234 0 0.22409456680964962
v 1.410000727454658 3 -0.28257854820846728
v 1.410000727454658 0 -0.28257854820846728
v 1.4042801909501987 3 -0.26341411599404607
v 1.4042801909501987 0 -0.26341411599404607
v 1.2701464141775827 3 -0.6743002105013014
v 1.2701464141775827 0 -0.6743002105013014
v 1.2535821009415591 3 -0.68550840067719021
v 1.2535821009415591 0 -0.68550840067719021
v 1.2339492349271679 3 -0.72024935739138862
v 1.2339492349271679 0 -0.72024935739138862
v 1.2328929005998797 3 -0.74022144185418304
v 1.2328929005998797 0 -0.74022144185418304
v 1.1718668889568058 3 -0.023767937277384583
v 1.1718668889568058 0 -0.02376793727738458
v 1.171866888956806 3 0.023767937277376205
v 1.171866888956806 0 0.023767937277376205
v 1.1600356135043068 3 -0.039893101498783723
v 1.1600356135043071 0 -0.03989310149878373
v 1.1600356135043071 3 0.039893101498775493
v 1.1600356135043071 0 0.039893101498775493
v 1.1116291351508256 3 -0.37164174437158137
v 1.1116291351508256 0 -0.37164174437158137
v 1.1059085986463661 3 -0.35247731215716016
v 1.1059085986463661 0 -0.35247731215716016
v 1.0956457813277554 3 -0.41640994480729815
v 1.0956457813277554 0 -0.41640994480729815
v 1.0790814680917318 3 -0.42761813498318696
v 1.0790814680917318 0 -0.4276181349831869
v 0.96946970760171713 3 -1.0621116576767773
v 0.96946970760171713 0 -1.0621116576767773
v 0.95010119964953565 3 -1.0670977282444967
v 0.95010119964953565 0 -1.0670977282444967
v 0.92300328170939727 3 -0.70380325809077415
v 0.92300328170939727 0 -0.70380325809077415
v 0.92194694738210892 3 -0.72377534255356857
v 0.92194694738210892 0 -0.72377534255356857
v 0.91993019516906394 3 -1.0932146574283841
v 0.91993019516906394 0 -1.0932146574283841
v 0.91221999560132394 3 -1.1116687307626272
v 0.91221999560132394 0 -1.1116687307626272
v 0.89184143257720561 3 -0.76056280438525403
v 0.89184143257720561 0 -0.76056280438525403
v 0.87247292462502413 3 -0.76554887495297341
v 0.87247292462502413 0 -0.76554887495297341
v 0.63261820055195328 3 -0.97317434022682403
v 0.63261820055195328 0 -0.97317434022682403
v 0.62490800098421329 3 -0.99162841356106735
v 0.62490800098421329 0 -0.99162841356106735
v 0.58418598297474378 3 -1.0161513950054673
v 0.58418598297474378 0 -1.0161513950054673
v 0.56426865979340635 3 -1.0143347394822184
v 0.56426865979340635 0 -1.0143347394822184
v 0.55590242126653555 3 -1.3262447682687664
v 0.55590242126653555 0 -1.3262447682687664
v 0.53598509808519812 3 -1.3244281127455175
v 0.53598509808519812 0 -1.3244281127455175
v 0.49878923890709603 3 -1.3388798102707096
v 0.49878923890709603 0 -1.3388798102707096
v 0.48532299369289206 3 -1.35366697496956
v 0.48532299369289206 0 -1.35366697496956
v 0.2685674495271379 3 -1.1292234540603527
v 0.2685674495271379 0 -1.1292234540603527
v 0.25510120431293387 3 -1.1440106187592032
v 0.25510120431293387 0 -1.1440106187592032
v 0.20850458703463895 3 -1.1534135240499128
v 0.20850458703463895 0 -1.1534135240499128
v 0.19035773528525959 3 -1.1450056841616871
v 0.19035773528525954 0 -1.1450056841616871
v 0.077602687765332204 3 -1.4359423770408988
v 0.077602687765332259 0 -1.4359423770408988
v 0.059455836015952848 3 -1.4275345371526731
v 0.059455836015952841 0 -1.4275345371526731
v 0.019566420038789722 3 -1.4286381649693241
v 0.019566420038789722 0 -1.4286381649693241
v 0.0019122155427521714 3 -1.438036519272716
v 0.0019122155427521714 0 -1.438036519272716
v -0.12675682644009389 3 -1.1537793511310304
v -0.12675682644009389 0 -1.1537793511310304
v -0.14441103093613145 3 -1.1631777054344226
v -0.14441103093613145 0 -1.1631777054344226
v -0.19145627171719873 3 -1.1563656066728529
v -0.19145627171719876 0 -1.1563656066728529
v -0.2057195291606092 3 -1.1423456392298452
v -0.20571952916060918 0 -1.1423456392298452
v -0.40973354511694193 3 -1.3784306690349624
v -0.40973354511694193 0 -1.3784306690349624
v -0.42399680256035238 3 -1.3644107015919547
v -0.42399680256035233 0 -1.3644107015919547
v -0.46193482432819244 3 -1.3520377469852436
v -0.46193482432819244 0 -1.3520377469852436
v -0.4817212318868439 3 -1.354952892937497
v -0.4817212318868439 0 -1.354952892937497
v -0.50732081488821135 3 -1.0439826027892738
v -0.50732081488821135 0 -1.0439826027892738
v -0.52710722244686292 3 -1.0468977487415272
v -0.52710722244686292 0 -1.0468977487415272
v -0.56912287068635603 3 -1.0246638855436674
v -0.56912287068635603 0 -1.0246638855436674
v -0.57784163881138273 3 -1.0066643554836348
v -0.57784163881138273 0 -1.0066643554836348
v -0.82880947538371208 3 -0.81261856836998358
v -0.82880947538371208 0 -0.81261856836998358
v -0.84842404390532711 3 -0.80871104975699204
v -0.84842404390532711 0 -0.80871104975699204
v -0.84935806808976699 3 -1.1604066354089371
v -0.84935806808976699 0 -1.1604066354089368
v -0.85807683621479369 3 -1.1424071053489044
v -0.85807683621479369 0 -1.1424071053489042
v -0.88051755798845588 3 -0.77364445991021658
v -0.88051755798845588 0 -0.77364445991021658
v -0.88267657372838948 3 -0.75376133512977239
v -0.88267657372838948 0 -0.75376133512977239
v -0.88964574423167797 3 -1.1179983456922087
v -0.88964574423167797 0 -1.1179983456922087
v -0.909260312753293 3 -1.1140908270792174
v -0.909260312753293 0 -1.1140908270792174
v -1.0537868354719588 3 -0.4866285950614701
v -1.0537868354719588 0 -0.4866285950614701
v -1.070945532774024 3 -0.47635342562753358
v -1.070945532774024 0 -0.47635342562753358
v -1.0847276162072619 3 -0.4130860476738682
v -1.0847276162072619 0 -0.4130860476738682
v -1.0893797609538598 3 -0.43253746277037708
v -1.0893797609538598 0 -0.43253746277037708
v -1.1560552487345692 3 -0.10397281384457807
v -1.1560552487345692 0 -0.10397281384457807
v -1.160466790956393 3 -0.02430866579796416
v -1.160466790956393 0 -0.024308665797964119
v -1.1687600182804478 3 -0.088526492897954223
v -1.1687600182804478 0 -0.088526492897954223
v -1.1713883739330668 3 -0.041063337542991608
v -1.1713883739330668 0 -0.041063337542991574
v -1.1900784953718597 3 -0.80725823760660442
v -1.1900784953718597 0 -0.80725823760660442
v -1.1922375111117933 3 -0.78737511282616024
v -1.1922375111117933 0 -0.78737511282616024
v -1.2137612417519581 3 -0.75377284324973914
v -1.2137612417519581 0 -0.75377284324973914
v -1.2309199390540233 3 -0.74349767381580267
v -1.2309199390540233 0 -0.74349767381580267
v -1.387567253195874 3 -0.34065667329220189
v -1.387567253195874 0 -0.34065667329220189
v -1.392219397942472 3 -0.36010808838871078
v -1.392219397942472 0 -0.36010808838871078
v -1.3965394605554717 3 -0.30177373363413051
v -1.3965394605554717 0 -0.30177373363413051
v -1.4092442301013506 3 -0.28632741268750667
v -1.4092442301013506 0 -0.28632741268750667
v -1.4213207537119432 3 0.14572977138445642
v -1.4213207537119432 0 0.14572977138445636
v -1.432242336688617 3 0.12897509963942896
v -1.432242336688617 0 0.12897509963942891
vn 0.98840939998626709 0 0.15181189775466919
vn 0.98840939998626709 0 0.15181189775466919
vn 0.98840939998626709 0 -0.15181189775466919
vn 0.98840939998626709 0 -0.15181189775466919
vn 0.15181189775466919 0 -0.98840939998626709
vn 0.15181189775466919 0 -0.98840939998626709
vn 0.15181189775466919 0 0.98840939998626709
vn 0.15181189775466919 0 0.98840939998626709
vn 0.87981647253036499 0 -0.47531351447105408
vn 0.87981647253036499 0 -0.47531351447105408
vn 0.47531351447105408 0 0.87981647253036499
vn 0.47531351447105408 0 0.87981647253036499
vn 0.98190629482269287 0 -0.18936756253242493
vn 0.98190629482269287 0 -0.18936756253242493
vn -0.18936756253242493 0 -0.98190629482269287
vn -0.18936756253242493 0 -0.98190629482269287
vn 0.74346685409545898 0 0.66877275705337524
vn 0.74346685409545898 0 0.66877275705337524
vn 0.66877275705337524 0 -0.74346685409545898
vn 0.66877275705337524 0 -0.74346685409545898
vn -0.15181189775466919 0 0.98840939998626709
vn -0.15181189775466919 0 0.98840939998626709
vn -0.15181189775466919 0 -0.98840939998626709
vn -0.15181189775466919 0 -0.98840939998626709
vn -0.98840939998626709 0 -0.15181189775466919
vn -0.98840939998626709 0 -0.15181189775466919
vn -0.98840939998626709 0 0.15181189775466919
vn -0.98840939998626709 0 0.15181189775466919
vn -0.47531351447105408 0 -0.87981647253036499
vn -0.47531351447105408 0 -0.87981647253036499
vn -0.87981647253036499 0 0.47531351447105408
vn -0.87981647253036499 0 0.47531351447105408
vn 0.18936756253242493 0 0.98190629482269287
vn 0.18936756253242493 0 0.98190629482269287
vn -0.98190629482269287 0 0.18936756253242493
vn -0.98190629482269287 0 0.18936756253242493
vn 0.8610643744468689 0 -0.50849592685699463
vn 0.8610643744468689 0 -0.50849592685699463
vn -0.50849592685699463 0 -0.8610643744468689
vn -0.50849592685699463 0 -0.8610643744468689
vn -0.66877275705337524 0 0.74346685409545898
vn -0.66877275705337524 0 0.74346685409545898
vn -0.74346685409545898 0 -0.66877275705337524
vn -0.74346685409545898 0 -0.66877275705337524
vn 0.92504674196243286 0 0.37985330820083618
vn 0.92504674196243286 0 0.37985330820083618
vn 0.37985330820083618 0 -0.92504674196243286
vn 0.37985330820083618 0 -0.92504674196243286
vn 0.50849592685699463 0 0.8610643744468689
vn 0.50849592685699463 0 0.8610643744468689
vn -0.8610643744468689 0 0.50849592685699463
vn -0.8610643744468689 0 0.50849592685699463
vn -0.37985330820083618 0 0.92504674196243286
vn -0.37985330820083618 0 0.92504674196243286
vn -0.92504674196243286 0 -0.37985330820083618
vn -0.92504674196243286 0 -0.37985330820083618
vn 0.76841217279434204 0 0.63995522260665894
vn 0.76841217279434204 0 0.63995522260665894
vn -0.63995522260665894 0 0.76841217279434204
vn -0.63995522260665894 0 0.76841217279434204
vn 0.63995522260665894 0 -0.76841217279434204
vn 0.63995522260665894 0 -0.76841217279434204
vn -0.76841217279434204 0 -0.63995522260665894
vn -0.76841217279434204 0 -0.63995522260665894
vn 0.9989088773727417 0 0.046701572835445404
vn 0.9989088773727417 0 0.046701572835445404
vn 0.046701572835445404 0 -0.9989088773727417
vn 0.046701572835445404 0 -0.9989088773727417
vn -0.046701572835445404 0 0.9989088773727417
vn -0.046701572835445404 0 0.9989088773727417
vn -0.9989088773727417 0 -0.046701572835445404
vn -0.9989088773727417 0 -0.046701572835445404
vn 0.93885010480880737 0 0.34432607889175415
vn 0.93885010480880737 0 0.34432607889175415
vn -0.34432607889175415 0 0.93885010480880737
vn -0.34432607889175415 0 0.93885010480880737
vn 0.34432607889175415 0 -0.93885010480880737
vn 0.34432607889175415 0 -0.93885010480880737
vn -0.93885010480880737 0 -0.34432607889175415
vn -0.93885010480880737 0 -0.34432607889175415
vn 0.95645236968994141 0 -0.29188835620880127
vn 0.95645236968994141 0 -0.29188835620880127
vn -0.29188835620880127 0 -0.95645236968994141
vn -0.29188835620880127 0 -0.95645236968994141
vn 0.29188835620880127 0 0.95645236968994141
vn 0.29188835620880127 0 0.95645236968994141
vn -0.95645236968994141 0 0.29188835620880127
vn -0.95645236968994141 0 0.29188835620880127
vn 0.99996298551559448 0 0.0086016245186328888
vn 0.99996298551559448 0 0.0086016245186328888
vn -0.0086016245186328888 0 0.99996298551559448
vn -0.0086016245186328888 0 0.99996298551559448
vn 0.0086016245186328888 0 -0.99996298551559448
vn 0.0086016245186328888 0 -0.99996298551559448
vn -0.99996298551559448 0 -0.0086016245186328888
vn -0.99996298551559448 0 -0.0086016245186328888
vn 0.80262112617492676 0 -0.59648913145065308
vn 0.80262112617492676 0 -0.59648913145065308
vn -0.59648913145065308 0 -0.80262112617492676
vn -0.59648913145065308 0 -0.80262112617492676
vn 0.59648913145065308 0 0.80262112617492676
vn 0.59648913145065308 0 0.80262112617492676
vn -0.80262112617492676 0 0.59648913145065308
vn -0.80262112617492676 0 0.59648913145065308
vn 0.94463449716567993 0 -0.32812449336051941
vn 0.94463449716567993 0 -0.32812449336051941
vn 0.32812449336051941 0 0.94463449716567993
vn 0.32812449336051941 0 0.94463449716567993
vn 0.8316313624382019 0 0.55532807111740112
vn 0.8316313624382019 0 0.55532807111740112
vn -0.55532807111740112 0 0.8316313624382019
vn -0.55532807111740112 0 0.8316313624382019
vn -0.32812449336051941 0 -0.94463449716567993
vn -0.32812449336051941 0 -0.94463449716567993
vn -0.94463449716567993 0 0.32812449336051941
vn -0.94463449716567993 0 0.32812449336051941
vn 0.77930736541748047 0 -0.62664186954498291
vn 0.77930736541748047 0 -0.62664186954498291
vn 0.62664186954498291 0 0.77930736541748047
vn 0.62664186954498291 0 0.77930736541748047
vn 0.55532807111740112 0 -0.8316313624382019
vn 0.55532807111740112 0 -0.8316313624382019
vn -0.8316313624382019 0 -0.55532807111740112
vn -0.8316313624382019 0 -0.55532807111740112
vn 0.96993362903594971 0 0.24336947500705719
vn 0.96993362903594971 0 0.24336947500705719
vn -0.24336947500705719 0 0.96993362903594971
vn -0.24336947500705719 0 0.96993362903594971
vn 0.85218954086303711 0 0.52323323488235474
vn 0.85218954086303711 0 0.52323323488235474
vn 0.52323323488235474 0 -0.85218954086303711
vn 0.52323323488235474 0 -0.85218954086303711
vn 0.99529135227203369 0 -0.09692847728729248
vn 0.99529135227203369 0 -0.09692847728729248
vn 0.97850334644317627 0 0.20623081922531128
vn 0.97850334644317627 0 0.20623081922531128
vn 0.09692847728729248 0 0.99529135227203369
vn 0.09692847728729248 0 0.99529135227203369
vn 0.20623081922531128 0 -0.97850334644317627
vn 0.20623081922531128 0 -0.97850334644317627
vn -0.62664186954498291 0 -0.77930736541748047
vn -0.62664186954498291 0 -0.77930736541748047
vn -0.77930736541748047 0 0.62664186954498291
vn -0.77930736541748047 0 0.62664186954498291
vn 0.24336947500705719 0 -0.96993362903594971
vn 0.24336947500705719 0 -0.96993362903594971
vn -0.96993362903594971 0 -0.24336947500705719
vn -0.96993362903594971 0 -0.24336947500705719
vn -0.52323323488235474 0 0.85218954086303711
vn -0.52323323488235474 0 0.85218954086303711
vn -0.85218954086303711 0 -0.52323323488235474
vn -0.85218954086303711 0 -0.52323323488235474
vn -0.09692847728729248 0 -0.99529135227203369
vn -0.09692847728729248 0 -0.99529135227203369
vn -0.99529135227203369 0 0.09692847728729248
vn -0.99529135227203369 0 0.09692847728729248
vn -0.20623081922531128 0 0.97850334644317627
vn -0.20623081922531128 0 0.97850334644317627
vn -0.97850334644317627 0 -0.20623081922531128
vn -0.97850334644317627 0 -0.20623081922531128
f 6//6 26//26 25//25 5//5
f 26//26 22//22 21//21 25//25
f 22//22 2//2 1//1 21//21
f 2//2 6//6 5//5 1//1
f 16//16 36//36 35//35 15//15
f 36//36 34//34 33//33 35//35
f 34//34 14//14 13//13 33//33
f 14//14 16//16 15//15 13//13
f 40//40 52//52 51//51 39//39
f 52//52 50//50 49//49 51//51
f 50//50 38//38 37//37 49//49
f 38//38 40//40 39//39 37//37
f 64//64 60//60 59//59 63//63
f 60//60 58//58 57//57 59//59
f 58//58 62//62 61//61 57//57
f 62//62 64//64 63//63 61//61
f 80//80 76//76 75//75 79//79
f 76//76 74//74 73//73 75//75
f 74//74 78//78 77//77 73//73
f 78//78 80//80 79//79 77//77
f 96//96 92//92 91//91 95//95
f 92//92 90//90 89//89 91//91
f 90//90 94//94 93//93 89//89
f 94//94 96//96 95//95 93//93
f 116//116 108//108 107//107 115//115
f 108//108 106//106 105//105 107//107
f 106//106 114//114 113//113 105//105
f 114//114 116//116 115//115 113//113
f 144//144 120//120 119//119 143//143
f 120//120 118//118 117//117 119//119
f 118//118 142//142 141//141 117//117
f 142//142 144//144 143//143 141//141
f 150//150 130//130 129//129 149//149
f 130//130 132//132 131//131 129//129
f 132//132 152//152 151//151 131//131
f 152//152 150//150 149//149 151//151
f 158//158 136//136 135//135 157//157
f 136//136 140//140 139//139 135//135
f 140//140 160//160 159//159 139//139
f 160//160 158//158 157//157 159//159
f 8//8 4//4 3//3 7//7
f 4//4 24//24 23//23 3//3
f 24//24 28//28 27//27 23//23
f 28//28 8//8 7//7 27//27
f 12//12 10//10 9//9 11//11
f 10//10 30//30 29//29 9//9
f 30//30 32//32 31//31 29//29
f 32//32 12//12 11//11 31//31
f 18//18 20//20 19//19 17//17
f 20//20 44//44 43//43 19//19
f 44//44 42//42 41//41 43//43
f 42//42 18//18 17//17 41//41
f 46//46 48//48 47//47 45//45
f 48//48 56//56 55//55 47//47
f 56//56 54//54 53//53 55//55
f 54//54 46//46 45//45 53//53
f 66//66 68//68 67//67 65//65
f 68//68 72//72 71//71 67//67
f 72//72 70//70 69//69 71//71
f 70//70 66//66 65//65 69//69
f 82//82 84//84 83//83 81//81
f 84//84 88//88 87//87 83//83
f 88//88 86//86 85//85 87//87
f 86//86 82//82 81//81 85//85
f 98//98 100//100 99//99 97//97
f 100//100 104//104 103//103 99//99
f 104//104 102//102 101//101 103//103
f 102//102 98//98 97//97 101//101
f 122//122 124//124 123//123 121//121
f 124//124 112//112 111//111 123//123
f 112//112 110//110 109//109 111//111
f 110//110 122//122 121//121 109//109
f 146//146 148//148 147//147 145//145
f 148//148 128//128 127//127 147//147
f 128//128 126//126 125//125 127//127
f 126//126 146//146 145//145 125//125
f 154//154 156//156 155//155 153//153
f 156//156 138//138 137//137 155//155
f 138//138 134//134 133//133 137//137
f 134//134 154//154 153//153 133//133
