# Rhino

mtllib Pannelli23.mtl
usemtl diffuse_Black
v 1.4980298680826891 3 -0.042685597221554419
v 1.4980298680826891 0 -0.042685597221554406
v 1.4980298680826889 3 0.042685597221553684
v 1.4980298680826889 0 0.042685597221553684
v 1.4961581601602076 3 -0.06259782234716299
v 1.4961581601602076 0 -0.06259782234716299
v 1.4961581601602074 3 0.062597822347162282
v 1.4961581601602074 0 0.062597822347162282
v 1.4950881473211195 3 -0.084375110764293215
v 1.4950881473211195 0 -0.084375110764293215
v 1.4949988039421518 3 -0.10437491120731344
v 1.4949988039421518 0 -0.10437491120731344
v 1.4866296927861367 3 -0.18933489484138225
v 1.4866296927861367 0 -0.18933489484138222
v 1.4828149646213733 3 -0.20896772064484107
v 1.4828149646213733 0 -0.20896772064484107
v 1.4796152340504392 3 -0.23053521800897944
v 1.4796152340504392 0 -0.23053521800897944
v 1.4775657000575975 3 -0.25042992610968262
v 1.4775657000575975 0 -0.25042992610968262
v 1.4609081014030392 3 -0.3341602387073711
v 1.4609081014030392 0 -0.3341602387073711
v 1.4551871021000711 3 -0.35332453277147474
v 1.4551871021000711 0 -0.35332453277147474
v 1.4498884783348975 3 -0.37447446904735571
v 1.4498884783348975 0 -0.37447446904735571
v 1.4458984978710823 3 -0.39407242955089716
v 1.4458984978710823 0 -0.39407242955089716
v 1.4211128823466066 3 -0.47576645689510288
v 1.4211128823466066 0 -0.47576645689510288
v 1.4135407250326952 3 -0.49427760039336843
v 1.4135407250326952 0 -0.49427760039336843
v 1.4061942522546238 3 -0.51480622811174603
v 1.4061942522546238 0 -0.51480622811174603
v 1.400302262713274 3 -0.53391864447505866
v 1.400302262713274 0 -0.53391864447505866
v 1.3676274020282106 3 -0.61278938886012624
v 1.3676274020282106 0 -0.61278938886012624
v 1.3582770329226406 3 -0.63046905507840101
v 1.3582770329226406 0 -0.63046905507840101
v 1.3489534832236953 3 -0.65017861213303774
v 1.3489534832236953 0 -0.65017861213303774
v 1.341216244962961 3 -0.66862136529238547
v 1.341216244962961 0 -0.66862136529238547
v 1.3009669117050713 3 -0.74390902705006168
v 1.3009669117050713 0 -0.74390902705006168
v 1.2899284073932717 3 -0.76058689929319834
v 1.2899284073932717 0 -0.76058689929319823
v 1.278717598994688 3 -0.77928751407798369
v 1.278717598994688 0 -0.77928751407798369
v 1.2692096485377065 3 -0.79688293615611472
v 1.2692096485377065 0 -0.79688293615611472
v 1.2217735838180341 3 -0.86786223316977928
v 1.2217735838180341 0 -0.8678622331697794
v 1.2091532835006746 3 -0.88337764550396036
v 1.2091532835006746 0 -0.88337764550396036
v 1.1961632154909427 3 -0.9008891660370616
v 1.1961632154909427 0 -0.9008891660370616
v 1.1849761474797995 3 -0.91746775190299279
v 1.1849761474797995 0 -0.91746775190299279
v 1.1706741660433735 3 -0.011914839201721681
v 1.1706741660433735 0 -0.011914839201721674
v 1.1706741660433735 3 0.011914839201721126
v 1.1706741660433735 0 0.011914839201721126
v 1.168802458120892 3 -0.031827064327330248
v 1.168802458120892 0 -0.031827064327330262
v 1.168802458120892 3 0.031827064327329721
v 1.168802458120892 0 0.031827064327329721
v 1.1662927126887979 3 -0.082906311352880013
v 1.1662927126887979 0 -0.082906311352880013
v 1.1662033693098304 3 -0.10290611179590027
v 1.1662033693098304 0 -0.10290611179590027
v 1.1638672976562539 3 -0.12662100884482005
v 1.1638672976562539 0 -0.12662100884482003
v 1.1600525694914905 3 -0.14625383464827887
v 1.1600525694914905 0 -0.14625383464827887
v 1.1525475107753944 3 -0.19684101081476402
v 1.1525475107753944 0 -0.19684101081476402
v 1.1504979767825525 3 -0.21673571891546717
v 1.1504979767825525 0 -0.21673571891546717
v 1.1458483379728686 3 -0.24010737764459869
v 1.1458483379728686 0 -0.24010737764459872
v 1.1401273386699005 3 -0.25927167170870236
v 1.1401273386699005 0 -0.25927167170870236
v 1.1308103256367799 3 -0.98345490659777568
v 1.1308103256367799 0 -0.98345490659777568
v 1.1276992664961467 3 -0.30887944651139859
v 1.1276992664961467 0 -0.30887944651139859
v 1.1237092860323317 3 -0.32847740701494005
v 1.1237092860323317 0 -0.32847740701494005
v 1.1167908722648723 3 -0.35128067703820059
v 1.1167908722648723 0 -0.35128067703820059
v 1.1167298067133025 3 -0.99765839162243031
v 1.1167298067133025 0 -0.99765839162243031
v 1.1092187149509609 3 -0.36979182053646614
v 1.1092187149509609 0 -0.36979182053646614
v 1.1020856186412027 3 -1.0138121210366449
v 1.1020856186412027 0 -1.0138121210366449
v 1.0919873548931864 3 -0.4179422985132254
v 1.0919873548931864 0 -0.4179422985132254
v 1.0893272034618615 3 -1.0292141612297994
v 1.0893272034618615 0 -1.0292141612297994
v 1.0860953653518364 3 -0.43705471487653813
v 1.0860953653518364 0 -0.43705471487653813
v 1.07697482502109 3 -0.45906992136856839
v 1.07697482502109 0 -0.45906992136856845
v 1.0676244559155199 3 -0.47674958758684316
v 1.0676244559155199 0 -0.47674958758684322
v 1.0457558059208403 3 -0.5229789121140439
v 1.0457558059208403 0 -0.5229789121140439
v 1.0380185676601061 3 -0.54142166527339153
v 1.0380185676601061 0 -0.54142166527339153
v 1.0289534298085778 3 -1.0895734877295629
v 1.0289534298085778 0 -1.0895734877295629
v 1.0267837633008012 3 -0.56243672520239585
v 1.0267837633008012 0 -0.56243672520239596
v 1.0157452589890017 3 -0.57911459744553251
v 1.0157452589890017 0 -0.57911459744553251
v 1.0135483366638589 3 -1.1023282164684478
v 1.0135483366638589 0 -1.1023282164684478
v 0.99739110300923584 3 -1.1169685381489507
v 0.99739110300923584 0 -1.1169685381489507
v 0.98944999024025759 3 -0.62297741929117267
v 0.98944999024025759 0 -0.62297741929117267
v 0.98318424858777531 3 -1.1310456574369094
v 0.98318424858777531 0 -1.1310456574369094
v 0.97994203978327588 3 -0.6405728413693037
v 0.97994203978327588 0 -0.6405728413693037
v 0.96670120164848816 3 -0.66038530659450634
v 0.96670120164848827 0 -0.66038530659450634
v 0.95408090133112877 3 -0.67590071892868742
v 0.95408090133112877 0 -0.67590071892868731
v 0.92361232875044619 3 -0.71697448651490614
v 0.92361232875044619 0 -0.71697448651490614
v 0.91718413261137799 3 -1.185195685430855
v 0.91718413261137799 0 -1.185195685430855
v 0.91242526073930297 3 -0.73355307238083745
v 0.91242526073930297 0 -0.73355307238083745
v 0.90060286988838179 3 -1.1963787854711376
v 0.90060286988838167 0 -1.1963787854711376
v 0.89730594416657417 3 -0.75197207993241599
v 0.89730594416657417 0 -0.75197207993241599
v 0.88322542524309655 3 -0.76617556495707062
v 0.88322542524309655 0 -0.76617556495707062
v 0.84887706718787703 3 -0.80406459500194627
v 0.84887706718787703 0 -0.80406459500194627
v 0.83611865200853552 3 -0.81946663519510077
v 0.83611865200853552 0 -0.81946663519510077
v 0.81926650861819383 3 -0.83631474594862043
v 0.81926650861819383 0 -0.83631474594862043
v 0.80386141547347489 3 -0.84906947468750527
v 0.80386141547347501 0 -0.84906947468750527
v 0.76596416613343199 3 -0.88340876401168433
v 0.76596416613343199 0 -0.88340876401168433
v 0.75175731171197147 3 -0.89748588329964307
v 0.75175731171197147 0 -0.89748588329964307
v 0.73333468627529008 3 -0.91260079133215355
v 0.73333468627529019 0 -0.91260079133215355
v 0.71675342355229388 3 -0.92378389137243644
v 0.71675342355229388 0 -0.92378389137243633
vn 0.77017831802368164 0 0.63782858848571777
vn 0.77017831802368164 0 0.63782858848571777
vn 0.77017831802368164 0 -0.63782858848571777
vn 0.77017831802368164 0 -0.63782858848571777
vn 0.63782858848571777 0 -0.77017831802368164
vn 0.63782858848571777 0 -0.77017831802368164
vn 0.63782858848571777 0 0.77017831802368164
vn 0.63782858848571777 0 0.77017831802368164
vn 0.71025848388671875 0 0.70394092798233032
vn 0.71025848388671875 0 0.70394092798233032
vn 0.70394092798233032 0 -0.71025848388671875
vn 0.70394092798233032 0 -0.71025848388671875
vn 0.82899624109268188 0 0.5592542290687561
vn 0.82899624109268188 0 0.5592542290687561
vn 0.5592542290687561 0 -0.82899624109268188
vn 0.5592542290687561 0 -0.82899624109268188
vn 0.77584612369537354 0 0.63092219829559326
vn 0.77584612369537354 0 0.63092219829559326
vn 0.63092219829559326 0 -0.77584612369537354
vn 0.63092219829559326 0 -0.77584612369537354
vn 0.87982797622680664 0 0.47529226541519165
vn 0.87982797622680664 0 0.47529226541519165
vn 0.47529226541519165 0 -0.87982797622680664
vn 0.47529226541519165 0 -0.87982797622680664
vn 0.83395963907241821 0 0.55182540416717529
vn 0.83395963907241821 0 0.55182540416717529
vn 0.55182540416717529 0 -0.83395963907241821
vn 0.55182540416717529 0 -0.83395963907241821
vn 0.92218393087387085 0 0.38675156235694885
vn 0.92218393087387085 0 0.38675156235694885
vn 0.38675156235694885 0 -0.92218393087387085
vn 0.38675156235694885 0 -0.92218393087387085
vn 0.88403922319412231 0 0.46741268038749695
vn 0.88403922319412231 0 0.46741268038749695
vn 0.46741268038749695 0 -0.88403922319412231
vn 0.46741268038749695 0 -0.88403922319412231
vn 0.95565605163574219 0 0.29448515176773071
vn 0.95565605163574219 0 0.29448515176773071
vn 0.29448515176773071 0 -0.95565605163574219
vn 0.29448515176773071 0 -0.95565605163574219
vn 0.9256024956703186 0 0.37849712371826172
vn 0.9256024956703186 0 0.37849712371826172
vn 0.37849712371826172 0 -0.9256024956703186
vn 0.37849712371826172 0 -0.9256024956703186
vn 0.97992187738418579 0 0.19938173890113831
vn 0.97992187738418579 0 0.19938173890113831
vn 0.19938173890113831 0 -0.97992187738418579
vn 0.19938173890113831 0 -0.97992187738418579
vn 0.95824891328811646 0 0.28593531250953674
vn 0.95824891328811646 0 0.28593531250953674
vn 0.28593531250953674 0 -0.95824891328811646
vn 0.28593531250953674 0 -0.95824891328811646
vn 0.99474763870239258 0 0.10235767066478729
vn 0.99474763870239258 0 0.10235767066478729
vn 0.10235767066478729 0 -0.99474763870239258
vn 0.10235767066478729 0 -0.99474763870239258
vn 0.98166412115097046 0 0.19061893224716187
vn 0.98166412115097046 0 0.19061893224716187
vn 0.19061893224716187 0 -0.98166412115097046
vn 0.19061893224716187 0 -0.98166412115097046
vn -0.63782858848571777 0 0.77017831802368164
vn -0.63782858848571777 0 0.77017831802368164
vn -0.63782858848571777 0 -0.77017831802368164
vn -0.63782858848571777 0 -0.77017831802368164
vn -0.77017831802368164 0 -0.63782858848571777
vn -0.77017831802368164 0 -0.63782858848571777
vn -0.77017831802368164 0 0.63782858848571777
vn -0.77017831802368164 0 0.63782858848571777
vn -0.70394092798233032 0 0.71025848388671875
vn -0.70394092798233032 0 0.71025848388671875
vn -0.71025848388671875 0 -0.70394092798233032
vn -0.71025848388671875 0 -0.70394092798233032
vn -0.5592542290687561 0 0.82899624109268188
vn -0.5592542290687561 0 0.82899624109268188
vn -0.82899624109268188 0 -0.5592542290687561
vn -0.82899624109268188 0 -0.5592542290687561
vn -0.63092219829559326 0 0.77584612369537354
vn -0.63092219829559326 0 0.77584612369537354
vn -0.77584612369537354 0 -0.63092219829559326
vn -0.77584612369537354 0 -0.63092219829559326
vn -0.47529226541519165 0 0.87982797622680664
vn -0.47529226541519165 0 0.87982797622680664
vn -0.87982797622680664 0 -0.47529226541519165
vn -0.87982797622680664 0 -0.47529226541519165
vn 0.99999052286148071 0 0.0043475315906107426
vn 0.99999052286148071 0 0.0043475315906107426
vn -0.55182540416717529 0 0.83395963907241821
vn -0.55182540416717529 0 0.83395963907241821
vn -0.83395963907241821 0 -0.55182540416717529
vn -0.83395963907241821 0 -0.55182540416717529
vn -0.38675156235694885 0 0.92218393087387085
vn -0.38675156235694885 0 0.92218393087387085
vn 0.0043475315906107426 0 -0.99999052286148071
vn 0.0043475315906107426 0 -0.99999052286148071
vn -0.92218393087387085 0 -0.38675156235694885
vn -0.92218393087387085 0 -0.38675156235694885
vn 0.99562245607376099 0 0.093466281890869141
vn 0.99562245607376099 0 0.093466281890869141
vn -0.46741268038749695 0 0.88403922319412231
vn -0.46741268038749695 0 0.88403922319412231
vn 0.093466281890869141 0 -0.99562245607376099
vn 0.093466281890869141 0 -0.99562245607376099
vn -0.88403922319412231 0 -0.46741268038749695
vn -0.88403922319412231 0 -0.46741268038749695
vn -0.29448515176773071 0 0.95565605163574219
vn -0.29448515176773071 0 0.95565605163574219
vn -0.95565605163574219 0 -0.29448515176773071
vn -0.95565605163574219 0 -0.29448515176773071
vn -0.37849712371826172 0 0.9256024956703186
vn -0.37849712371826172 0 0.9256024956703186
vn -0.9256024956703186 0 -0.37849712371826172
vn -0.9256024956703186 0 -0.37849712371826172
vn 0.99560004472732544 0 -0.093704536557197571
vn 0.99560004472732544 0 -0.093704536557197571
vn -0.19938173890113831 0 0.97992187738418579
vn -0.19938173890113831 0 0.97992187738418579
vn -0.97992187738418579 0 -0.19938173890113831
vn -0.97992187738418579 0 -0.19938173890113831
vn -0.093704536557197571 0 -0.99560004472732544
vn -0.093704536557197571 0 -0.99560004472732544
vn 0.99998950958251953 0 -0.0045867995359003544
vn 0.99998950958251953 0 -0.0045867995359003544
vn -0.28593531250953674 0 0.95824891328811646
vn -0.28593531250953674 0 0.95824891328811646
vn -0.0045867995359003544 0 -0.99998950958251953
vn -0.0045867995359003544 0 -0.99998950958251953
vn -0.95824891328811646 0 -0.28593531250953674
vn -0.95824891328811646 0 -0.28593531250953674
vn -0.10235767066478729 0 0.99474763870239258
vn -0.10235767066478729 0 0.99474763870239258
vn -0.99474763870239258 0 -0.10235767066478729
vn -0.99474763870239258 0 -0.10235767066478729
vn -0.19061893224716187 0 0.98166412115097046
vn -0.19061893224716187 0 0.98166412115097046
vn 0.98161846399307251 0 -0.19085386395454407
vn 0.98161846399307251 0 -0.19085386395454407
vn -0.98166412115097046 0 -0.19061893224716187
vn -0.98166412115097046 0 -0.19061893224716187
vn -0.19085386395454407 0 -0.98161846399307251
vn -0.19085386395454407 0 -0.98161846399307251
vn -0.0043475315906107426 0 0.99999052286148071
vn -0.0043475315906107426 0 0.99999052286148071
vn -0.99999052286148071 0 -0.0043475315906107426
vn -0.99999052286148071 0 -0.0043475315906107426
vn -0.093466281890869141 0 0.99562245607376099
vn -0.093466281890869141 0 0.99562245607376099
vn -0.99562245607376099 0 -0.093466281890869141
vn -0.99562245607376099 0 -0.093466281890869141
vn 0.093704536557197571 0 0.99560004472732544
vn 0.093704536557197571 0 0.99560004472732544
vn -0.99560004472732544 0 0.093704536557197571
vn -0.99560004472732544 0 0.093704536557197571
vn 0.0045867995359003544 0 0.99998950958251953
vn 0.0045867995359003544 0 0.99998950958251953
vn -0.99998950958251953 0 0.0045867995359003544
vn -0.99998950958251953 0 0.0045867995359003544
vn 0.19085386395454407 0 0.98161846399307251
vn 0.19085386395454407 0 0.98161846399307251
vn -0.98161846399307251 0 0.19085386395454407
vn -0.98161846399307251 0 0.19085386395454407
f 6//6 66//66 65//65 5//5
f 66//66 62//62 61//61 65//65
f 62//62 2//2 1//1 61//61
f 2//2 6//6 5//5 1//1
f 16//16 76//76 75//75 15//15
f 76//76 74//74 73//73 75//75
f 74//74 14//14 13//13 73//73
f 14//14 16//16 15//15 13//13
f 24//24 84//84 83//83 23//23
f 84//84 82//82 81//81 83//83
f 82//82 22//22 21//21 81//81
f 22//22 24//24 23//23 21//21
f 32//32 96//96 95//95 31//31
f 96//96 92//92 91//91 95//95
f 92//92 30//30 29//29 91//91
f 30//30 32//32 31//31 29//29
f 40//40 108//108 107//107 39//39
f 108//108 106//106 105//105 107//107
f 106//106 38//38 37//37 105//105
f 38//38 40//40 39//39 37//37
f 48//48 118//118 117//117 47//47
f 118//118 116//116 115//115 117//117
f 116//116 46//46 45//45 115//115
f 46//46 48//48 47//47 45//45
f 56//56 132//132 131//131 55//55
f 132//132 130//130 129//129 131//131
f 130//130 54//54 53//53 129//129
f 54//54 56//56 55//55 53//53
f 94//94 144//144 143//143 93//93
f 144//144 142//142 141//141 143//143
f 142//142 86//86 85//85 141//141
f 86//86 94//94 93//93 85//85
f 120//120 152//152 151//151 119//119
f 152//152 150//150 149//149 151//151
f 150//150 114//114 113//113 149//149
f 114//114 120//120 119//119 113//113
f 140//140 160//160 159//159 139//139
f 160//160 158//158 157//157 159//159
f 158//158 136//136 135//135 157//157
f 136//136 140//140 139//139 135//135
f 8//8 4//4 3//3 7//7
f 4//4 64//64 63//63 3//3
f 64//64 68//68 67//67 63//63
f 68//68 8//8 7//7 67//67
f 10//10 12//12 11//11 9//9
f 12//12 72//72 71//71 11//11
f 72//72 70//70 69//69 71//71
f 70//70 10//10 9//9 69//69
f 18//18 20//20 19//19 17//17
f 20//20 80//80 79//79 19//19
f 80//80 78//78 77//77 79//79
f 78//78 18//18 17//17 77//77
f 26//26 28//28 27//27 25//25
f 28//28 90//90 89//89 27//27
f 90//90 88//88 87//87 89//89
f 88//88 26//26 25//25 87//87
f 34//34 36//36 35//35 33//33
f 36//36 104//104 103//103 35//35
f 104//104 100//100 99//99 103//103
f 100//100 34//34 33//33 99//99
f 42//42 44//44 43//43 41//41
f 44//44 112//112 111//111 43//43
f 112//112 110//110 109//109 111//111
f 110//110 42//42 41//41 109//109
f 50//50 52//52 51//51 49//49
f 52//52 128//128 127//127 51//51
f 128//128 124//124 123//123 127//127
f 124//124 50//50 49//49 123//123
f 58//58 60//60 59//59 57//57
f 60//60 138//138 137//137 59//59
f 138//138 134//134 133//133 137//137
f 134//134 58//58 57//57 133//133
f 98//98 102//102 101//101 97//97
f 102//102 148//148 147//147 101//101
f 148//148 146//146 145//145 147//147
f 146//146 98//98 97//97 145//145
f 122//122 126//126 125//125 121//121
f 126//126 156//156 155//155 125//125
f 156//156 154//154 153//153 155//155
f 154//154 122//122 121//121 153//153
