# Rhino

mtllib Pannelli112.mtl
usemtl diffuse_Black
v 1.3587039862222525 3 -0.26835171306775818
v 1.3587039862222525 0 -0.26835171306775818
v 1.3587039862222532 3 0.26835171306775507
v 1.3587039862222532 0 0.26835171306775507
v 1.3430084124466255 3 -0.28074723499520632
v 1.3430084124466255 0 -0.28074723499520632
v 1.3430084124466262 3 0.28074723499520332
v 1.3430084124466262 0 0.28074723499520332
v 1.3407751431222883 3 -0.34700314071784294
v 1.3407751431222883 0 -0.34700314071784294
v 1.3320022149144937 3 -0.32902994593614421
v 1.3320022149144937 0 -0.32902994593614421
v 1.1700693957717834 3 -0.029497056653943924
v 1.1700693957717834 0 -0.029497056653943921
v 1.1700693957717836 3 0.029497056653941235
v 1.1700693957717836 0 0.029497056653941235
v 1.1543738219961563 3 -0.041892578581392059
v 1.1543738219961563 0 -0.041892578581392059
v 1.1543738219961566 3 0.041892578581389478
v 1.1543738219961566 0 0.041892578581389478
v 1.1081751496109504 3 -0.83068465850007545
v 1.1081751496109504 0 -0.83068465850007545
v 1.0886581188709461 3 -0.83505335522721624
v 1.0886581188709461 0 -0.83505335522721624
v 1.067259735172845 3 -0.48050923503277354
v 1.067259735172845 0 -0.48050923503277354
v 1.0584868069650506 3 -0.46253604025107475
v 1.0584868069650506 0 -0.46253604025107475
v 1.0579310663974242 3 -0.89379585075891255
v 1.0579310663974242 0 -0.89379585075891255
v 1.0578141708489996 3 -0.87379619237606121
v 1.0578141708489996 0 -0.87379619237606121
v 1.0416924857304006 3 -0.5336752125083305
v 1.0416924857304006 0 -0.5336752125083305
v 1.0221754549903963 3 -0.5380439092354713
v 1.0221754549903963 0 -0.5380439092354713
v 0.75357701093449891 3 -0.89557476285568627
v 0.75357701093449891 0 -0.89557476285568627
v 0.75346011538607427 3 -0.87557510447283482
v 0.75346011538607427 0 -0.87557510447283482
v 0.70749418226734595 3 -0.93240787712827267
v 0.70749418226734595 0 -0.93240787712827267
v 0.68801194054475701 3 -0.92788656565231586
v 0.68801194054475701 0 -0.92788656565231586
v 0.63868903283047374 3 -1.2288879051503085
v 0.63868903283047374 0 -1.2288879051503085
v 0.61920679110788479 3 -1.224366593674352
v 0.61920679110788479 0 -1.224366593674352
v 0.5746193521280536 3 -1.2459146062310189
v 0.5746193521280536 0 -1.2459146062310189
v 0.56605711836911365 3 -1.2639891229066391
v 0.56605711836911365 0 -1.2639891229066391
v 0.2995620313753099 3 -1.115614852181751
v 0.2995620313753099 0 -1.115614852181751
v 0.29099979761637002 3 -1.133689368857371
v 0.29099979761637002 0 -1.133689368857371
v 0.23350660276867771 3 -1.1469119991247905
v 0.23350660276867766 0 -1.1469119991247905
v 0.21790852230459259 3 -1.1343940166261635
v 0.21790852230459259 0 -1.1343940166261635
v 0.04300841191268856 3 -1.3842830059591817
v 0.04300841191268856 0 -1.3842830059591817
v 0.027410331448603435 3 -1.3717650234605547
v 0.027410331448603491 0 -1.3717650234605547
v -0.022110849983056791 3 -1.3718606766624977
v -0.022110849983056791 0 -1.3718606766624977
v -0.037660455734023157 3 -1.3844388228291438
v -0.037660455734023157 0 -1.3844388228291438
v -0.2135246092953996 3 -1.1352273562046762
v -0.2135246092953996 0 -1.1352273562046762
v -0.22907421504636596 3 -1.1478055023713225
v -0.22907421504636596 0 -1.1478055023713225
v -0.28661806134312534 3 -1.13480507321077
v -0.28661806134312529 0 -1.13480507321077
v -0.29525005502865226 3 -1.1167637682409783
v -0.29525005502865226 0 -1.1167637682409783
v -0.56116996759506688 3 -1.2661664312214218
v -0.56116996759506688 0 -1.2661664312214218
v -0.56980196128059379 3 -1.2481251262516302
v -0.56980196128059379 0 -1.2481251262516302
v -0.61447230986400792 3 -1.2267495205910006
v -0.61447230986400792 0 -1.2267495205910006
v -0.62393203151896415 3 1.2219653947246121
v -0.62393203151896415 0 1.2219653947246121
v -0.63393693989722766 3 -1.2313460603406252
v -0.63393693989722766 0 -1.2313460603406252
v -0.64343159418453366 3 1.2264114104523771
v -0.64343159418453366 0 1.2264114104523771
v -0.68442228036421926 3 -0.93053750660102585
v -0.68442228036421926 0 -0.93053750660102585
v -0.69159133306770948 3 0.92522177723821453
v -0.69159133306770948 0 0.92522177723821453
v -0.703886910397439 3 -0.93513404635065045
v -0.703886910397439 0 -0.93513404635065045
v -0.71109089573327899 3 0.92966779296597957
v -0.71109089573327899 0 0.92966779296597957
v -0.75007205168548641 3 -0.87847926915240104
v -0.75007205168548641 0 -0.87847926915240104
v -0.75011168551409901 3 -0.89847922988135331
v -0.75011168551409901 0 -0.89847922988135331
v -0.75683693470264368 3 0.87265787300643671
v -0.75683693470264368 0 0.87265787300643671
v -0.75703109022637072 3 0.89265693057504747
v -0.75703109022637072 0 0.89265693057504747
v -1.020089305764486 3 -0.54198866899146603
v -1.020089305764486 0 -0.54198866899146603
v -1.0242463496154111 3 0.53409111989408409
v -1.0242463496154111 0 0.53409111989408409
v -1.0396230676205684 3 -0.5376954012674755
v -1.0396230676205684 0 -0.5376954012674755
v -1.0437463579737689 3 0.52964705936074574
v -1.0437463579737689 0 0.52964705936074574
v -1.0544307082400985 3 -0.87787612302655949
v -1.0544307082400985 0 -0.87787612302655949
v -1.0544703420687114 3 -0.89787608375551176
v -1.0544703420687114 0 -0.89787608375551176
v -1.0566920818701204 3 -0.46662163812151058
v -1.0566920818701204 0 -0.46662163812151058
v -1.0602657355607445 3 0.45844353964915374
v -1.0602657355607445 0 0.45844353964915374
v -1.0611818469968595 3 0.86970322148661316
v -1.0611818469968595 0 0.86970322148661316
v -1.0613760025205865 3 0.88970227905522392
v -1.0613760025205865 0 0.88970227905522392
v -1.0653955122167358 3 -0.48462858956259647
v -1.0653955122167358 0 -0.48462858956259641
v -1.0691080307055041 3 0.47638270954558332
v -1.0691080307055041 0 0.47638270954558332
v -1.0854240938879178 3 -0.83925272848376964
v -1.0854240938879178 0 -0.83925272848376964
v -1.0918758970882814 3 0.83084151991671629
v -1.0918758970882814 0 0.83084151991671629
v -1.1049578557440003 3 -0.834959460759779
v -1.1049578557440003 0 -0.834959460759779
v -1.1113759054466392 3 0.82639745938337794
v -1.1113759054466392 0 0.82639745938337794
v -1.1542033726831735 3 -0.046351737151905659
v -1.1542033726831735 0 -0.046351737151905659
v -1.1545270438245094 3 0.037432794820197221
v -1.1545270438245094 0 0.037432794820197186
v -1.1699467145855047 3 -0.034016941420062313
v -1.1699467145855047 0 -0.034016941420062313
v -1.1701746152379959 3 0.024976731683722449
v -1.1701746152379959 0 0.024976731683722428
v -1.3307211974032946 3 -0.33417315966636252
v -1.3307211974032946 0 -0.33417315966636257
v -1.333263354074983 3 0.32388182187425368
v -1.333263354074983 0 0.32388182187425368
v -1.33942462774991 3 -0.3521801111074484
v -1.33942462774991 0 -0.3521801111074484
v -1.3419138341534687 3 -0.28593332713658365
v -1.3419138341534687 0 -0.28593332713658365
v -1.3421056492197423 3 0.3418209917706832
v -1.3421056492197423 0 0.3418209917706832
v -1.3440829481363019 3 0.27555695307701089
v -1.3440829481363019 0 0.27555695307701095
v -1.3576571760557998 3 -0.27359853140474033
v -1.3576571760557998 0 -0.27359853140474033
v -1.3597305195497884 3 0.2631008899405361
v -1.3597305195497884 0 0.26310088994053615
vn 0.99317020177841187 0 -0.11667448282241821
vn 0.99317020177841187 0 -0.11667448282241821
vn 0.99317020177841187 0 0.11667448282241821
vn 0.99317020177841187 0 0.11667448282241821
vn -0.11667448282241821 0 -0.99317020177841187
vn -0.11667448282241821 0 -0.99317020177841187
vn -0.11667448282241821 0 0.99317020177841187
vn -0.11667448282241821 0 0.99317020177841187
vn 0.94561821222305298 0 -0.32527858018875122
vn 0.94561821222305298 0 -0.32527858018875122
vn 0.32527858018875122 0 0.94561821222305298
vn 0.32527858018875122 0 0.94561821222305298
vn 0.11667448282241821 0 0.99317020177841187
vn 0.11667448282241821 0 0.99317020177841187
vn 0.11667448282241821 0 -0.99317020177841187
vn 0.11667448282241821 0 -0.99317020177841187
vn -0.99317020177841187 0 0.11667448282241821
vn -0.99317020177841187 0 0.11667448282241821
vn -0.99317020177841187 0 -0.11667448282241821
vn -0.99317020177841187 0 -0.11667448282241821
vn 0.84448796510696411 0 -0.53557449579238892
vn 0.84448796510696411 0 -0.53557449579238892
vn -0.53557449579238892 0 -0.84448796510696411
vn -0.53557449579238892 0 -0.84448796510696411
vn -0.32527858018875122 0 -0.94561821222305298
vn -0.32527858018875122 0 -0.94561821222305298
vn -0.94561821222305298 0 0.32527858018875122
vn -0.94561821222305298 0 0.32527858018875122
vn 0.71122759580612183 0 -0.70296180248260498
vn 0.71122759580612183 0 -0.70296180248260498
vn 0.70296180248260498 0 0.71122759580612183
vn 0.70296180248260498 0 0.71122759580612183
vn 0.53557449579238892 0 0.84448796510696411
vn 0.53557449579238892 0 0.84448796510696411
vn -0.84448796510696411 0 0.53557449579238892
vn -0.84448796510696411 0 0.53557449579238892
vn -0.70296180248260498 0 -0.71122759580612183
vn -0.70296180248260498 0 -0.71122759580612183
vn -0.71122759580612183 0 0.70296180248260498
vn -0.71122759580612183 0 0.70296180248260498
vn 0.84865373373031616 0 0.52894878387451172
vn 0.84865373373031616 0 0.52894878387451172
vn -0.52894878387451172 0 0.84865373373031616
vn -0.52894878387451172 0 0.84865373373031616
vn 0.52894878387451172 0 -0.84865373373031616
vn 0.52894878387451172 0 -0.84865373373031616
vn -0.84865373373031616 0 -0.52894878387451172
vn -0.84865373373031616 0 -0.52894878387451172
vn 0.94175136089324951 0 0.3363099992275238
vn 0.94175136089324951 0 0.3363099992275238
vn 0.3363099992275238 0 -0.94175136089324951
vn 0.3363099992275238 0 -0.94175136089324951
vn -0.3363099992275238 0 0.94175136089324951
vn -0.3363099992275238 0 0.94175136089324951
vn -0.94175136089324951 0 -0.3363099992275238
vn -0.94175136089324951 0 -0.3363099992275238
vn 0.9940529465675354 0 0.10889788717031479
vn 0.9940529465675354 0 0.10889788717031479
vn -0.10889788717031479 0 0.9940529465675354
vn -0.10889788717031479 0 0.9940529465675354
vn 0.10889788717031479 0 -0.9940529465675354
vn 0.10889788717031479 0 -0.9940529465675354
vn -0.9940529465675354 0 -0.10889788717031479
vn -0.9940529465675354 0 -0.10889788717031479
vn 0.99446618556976318 0 -0.10505696386098862
vn 0.99446618556976318 0 -0.10505696386098862
vn -0.10505696386098862 0 -0.99446618556976318
vn -0.10505696386098862 0 -0.99446618556976318
vn 0.10505696386098862 0 0.99446618556976318
vn 0.10505696386098862 0 0.99446618556976318
vn -0.99446618556976318 0 0.10505696386098862
vn -0.99446618556976318 0 0.10505696386098862
vn 0.94304352998733521 0 -0.33266943693161011
vn 0.94304352998733521 0 -0.33266943693161011
vn 0.33266943693161011 0 0.94304352998733521
vn 0.33266943693161011 0 0.94304352998733521
vn -0.33266943693161011 0 -0.94304352998733521
vn -0.33266943693161011 0 -0.94304352998733521
vn -0.94304352998733521 0 0.33266943693161011
vn -0.94304352998733521 0 0.33266943693161011
vn 0.85069084167480469 0 -0.52566635608673096
vn 0.85069084167480469 0 -0.52566635608673096
vn 0.84660404920578003 0 0.53222328424453735
vn 0.84660404920578003 0 0.53222328424453735
vn -0.52566635608673096 0 -0.85069084167480469
vn -0.52566635608673096 0 -0.85069084167480469
vn -0.53222328424453735 0 0.84660404920578003
vn -0.53222328424453735 0 0.84660404920578003
vn 0.52566635608673096 0 0.85069084167480469
vn 0.52566635608673096 0 0.85069084167480469
vn 0.53222328424453735 0 -0.84660404920578003
vn 0.53222328424453735 0 -0.84660404920578003
vn -0.85069084167480469 0 0.52566635608673096
vn -0.85069084167480469 0 0.52566635608673096
vn -0.84660404920578003 0 -0.53222328424453735
vn -0.84660404920578003 0 -0.53222328424453735
vn 0.70850664377212524 0 0.70570415258407593
vn 0.70850664377212524 0 0.70570415258407593
vn 0.70570415258407593 0 -0.70850664377212524
vn 0.70570415258407593 0 -0.70850664377212524
vn 0.71393787860870361 0 -0.70020902156829834
vn 0.71393787860870361 0 -0.70020902156829834
vn 0.70020902156829834 0 0.71393787860870361
vn 0.70020902156829834 0 0.71393787860870361
vn 0.84241271018981934 0 0.53883284330368042
vn 0.84241271018981934 0 0.53883284330368042
vn 0.84655064344406128 0 -0.53230816125869751
vn 0.84655064344406128 0 -0.53230816125869751
vn -0.53883284330368042 0 0.84241271018981934
vn -0.53883284330368042 0 0.84241271018981934
vn -0.53230816125869751 0 -0.84655064344406128
vn -0.53230816125869751 0 -0.84655064344406128
vn -0.70570415258407593 0 0.70850664377212524
vn -0.70570415258407593 0 0.70850664377212524
vn -0.70850664377212524 0 -0.70570415258407593
vn -0.70850664377212524 0 -0.70570415258407593
vn 0.9443545937538147 0 0.32892915606498718
vn 0.9443545937538147 0 0.32892915606498718
vn 0.94686776399612427 0 -0.32162308692932129
vn 0.94686776399612427 0 -0.32162308692932129
vn -0.70020902156829834 0 -0.71393787860870361
vn -0.70020902156829834 0 -0.71393787860870361
vn -0.71393787860870361 0 0.70020902156829834
vn -0.71393787860870361 0 0.70020902156829834
vn 0.32892915606498718 0 -0.9443545937538147
vn 0.32892915606498718 0 -0.9443545937538147
vn 0.32162308692932129 0 0.94686776399612427
vn 0.32162308692932129 0 0.94686776399612427
vn 0.53883284330368042 0 -0.84241271018981934
vn 0.53883284330368042 0 -0.84241271018981934
vn 0.53230816125869751 0 0.84655064344406128
vn 0.53230816125869751 0 0.84655064344406128
vn -0.84241271018981934 0 -0.53883284330368042
vn -0.84241271018981934 0 -0.53883284330368042
vn -0.84655064344406128 0 0.53230816125869751
vn -0.84655064344406128 0 0.53230816125869751
vn 0.99271208047866821 0 0.1205102801322937
vn 0.99271208047866821 0 0.1205102801322937
vn 0.99361354112625122 0 -0.11283685266971588
vn 0.99361354112625122 0 -0.11283685266971588
vn -0.1205102801322937 0 0.99271208047866821
vn -0.1205102801322937 0 0.99271208047866821
vn -0.11283685266971588 0 -0.99361354112625122
vn -0.11283685266971588 0 -0.99361354112625122
vn -0.32892915606498718 0 0.9443545937538147
vn -0.32892915606498718 0 0.9443545937538147
vn -0.32162308692932129 0 -0.94686776399612427
vn -0.32162308692932129 0 -0.94686776399612427
vn -0.9443545937538147 0 -0.32892915606498718
vn -0.9443545937538147 0 -0.32892915606498718
vn 0.1205102801322937 0 -0.99271208047866821
vn 0.1205102801322937 0 -0.99271208047866821
vn -0.94686776399612427 0 0.32162308692932129
vn -0.94686776399612427 0 0.32162308692932129
vn 0.11283685266971588 0 0.99361354112625122
vn 0.11283685266971588 0 0.99361354112625122
vn -0.99271208047866821 0 -0.1205102801322937
vn -0.99271208047866821 0 -0.1205102801322937
vn -0.99361354112625122 0 0.11283685266971588
vn -0.99361354112625122 0 0.11283685266971588
f 6//6 18//18 17//17 5//5
f 18//18 14//14 13//13 17//17
f 14//14 2//2 1//1 13//13
f 2//2 6//6 5//5 1//1
f 24//24 36//36 35//35 23//23
f 36//36 34//34 33//33 35//35
f 34//34 22//22 21//21 33//33
f 22//22 24//24 23//23 21//21
f 48//48 44//44 43//43 47//47
f 44//44 42//42 41//41 43//43
f 42//42 46//46 45//45 41//41
f 46//46 48//48 47//47 45//45
f 64//64 60//60 59//59 63//63
f 60//60 58//58 57//57 59//59
f 58//58 62//62 61//61 57//57
f 62//62 64//64 63//63 61//61
f 80//80 76//76 75//75 79//79
f 76//76 74//74 73//73 75//75
f 74//74 78//78 77//77 73//73
f 78//78 80//80 79//79 77//77
f 114//114 98//98 97//97 113//113
f 98//98 100//100 99//99 97//97
f 100//100 116//116 115//115 99//99
f 116//116 114//114 113//113 115//115
f 146//146 118//118 117//117 145//145
f 118//118 126//126 125//125 117//117
f 126//126 150//150 149//149 125//125
f 150//150 146//146 145//145 149//149
f 156//156 140//140 139//139 155//155
f 140//140 144//144 143//143 139//139
f 144//144 160//160 159//159 143//143
f 160//160 156//156 155//155 159//159
f 132//132 108//108 107//107 131//131
f 108//108 112//112 111//111 107//107
f 112//112 136//136 135//135 111//111
f 136//136 132//132 131//131 135//135
f 84//84 92//92 91//91 83//83
f 92//92 96//96 95//95 91//91
f 96//96 88//88 87//87 95//95
f 88//88 84//84 83//83 87//87
f 8//8 4//4 3//3 7//7
f 4//4 16//16 15//15 3//3
f 16//16 20//20 19//19 15//15
f 20//20 8//8 7//7 19//19
f 12//12 10//10 9//9 11//11
f 10//10 26//26 25//25 9//9
f 26//26 28//28 27//27 25//25
f 28//28 12//12 11//11 27//27
f 32//32 30//30 29//29 31//31
f 30//30 38//38 37//37 29//29
f 38//38 40//40 39//39 37//37
f 40//40 32//32 31//31 39//39
f 50//50 52//52 51//51 49//49
f 52//52 56//56 55//55 51//51
f 56//56 54//54 53//53 55//55
f 54//54 50//50 49//49 53//53
f 66//66 68//68 67//67 65//65
f 68//68 72//72 71//71 67//67
f 72//72 70//70 69//69 71//71
f 70//70 66//66 65//65 69//69
f 82//82 86//86 85//85 81//81
f 86//86 94//94 93//93 85//85
f 94//94 90//90 89//89 93//93
f 90//90 82//82 81//81 89//89
f 130//130 134//134 133//133 129//129
f 134//134 110//110 109//109 133//133
f 110//110 106//106 105//105 109//109
f 106//106 130//130 129//129 105//105
f 152//152 158//158 157//157 151//151
f 158//158 142//142 141//141 157//157
f 142//142 138//138 137//137 141//141
f 138//138 152//152 151//151 137//137
f 148//148 154//154 153//153 147//147
f 154//154 128//128 127//127 153//153
f 128//128 120//120 119//119 127//127
f 120//120 148//148 147//147 119//119
f 122//122 124//124 123//123 121//121
f 124//124 104//104 103//103 123//123
f 104//104 102//102 101//101 103//103
f 102//102 122//122 121//121 101//101
