# Rhino

mtllib Pannelli109.mtl
usemtl diffuse_Black
v 1.3660276534349391 3 -0.26289065591623528
v 1.3660276534349391 0 -0.26289065591623523
v 1.3660276534349391 3 0.26289065591623428
v 1.3660276534349391 0 0.26289065591623428
v 1.3506867071269244 3 -0.27572246663704153
v 1.3506867071269244 0 -0.27572246663704159
v 1.3506867071269244 3 0.27572246663704059
v 1.3506867071269244 0 0.27572246663704059
v 1.348599751287678 3 -0.34120632723302025
v 1.348599751287678 0 -0.34120632723302025
v 1.340148077881872 3 -0.3230798489031963
v 1.340148077881872 0 -0.3230798489031963
v 1.1703283710713668 3 -0.02892428526297821
v 1.1703283710713668 0 -0.028924285262978182
v 1.1703283710713668 3 0.028924285262977419
v 1.1703283710713668 0 0.028924285262977419
v 1.154987424763352 3 -0.041756095983784478
v 1.154987424763352 0 -0.041756095983784547
v 1.154987424763352 3 0.041756095983783742
v 1.154987424763352 0 0.041756095983783742
v 1.1256329093906277 3 -0.81736992862095537
v 1.1256329093906277 0 -0.81736992862095526
v 1.1062981245167953 3 -0.82248520905145128
v 1.1062981245167953 0 -0.82248520905145128
v 1.0766712867634298 3 -0.86090440797859102
v 1.0766712867634298 0 -0.86090440797859102
v 1.0766385271714374 3 -0.8809043811488011
v 1.0766385271714374 0 -0.8809043811488011
v 1.0721509415204378 3 -0.47010367900003902
v 1.0721509415204378 0 -0.47010367900003902
v 1.0636992681146316 3 -0.45197720067021496
v 1.0636992681146316 0 -0.45197720067021496
v 1.0476192345385416 3 -0.5224931098468315
v 1.0476192345385416 0 -0.5224931098468315
v 1.0282844496647092 3 -0.52760839027732742
v 1.0282844496647092 0 -0.52760839027732753
v 0.77164961196936055 3 -0.86040478802760156
v 0.77164961196936055 0 -0.86040478802760156
v 0.7716168523773681 3 -0.88040476119781175
v 0.7716168523773681 0 -0.88040476119781175
v 0.72718352741196801 3 -0.91744712538283146
v 0.72718352741196801 0 -0.91744712538283146
v 0.70750413126810618 3 -0.91388042278618109
v 0.70750413126810618 0 -0.91388042278618109
v 0.67278737446396908 3 -1.2175796465442885
v 0.67278737446396908 0 -1.2175796465442885
v 0.65310797832010725 3 -1.2140129439476381
v 0.65310797832010725 0 -1.2140129439476381
v 0.60998467076785656 3 -1.2362427596738506
v 0.60998467076785656 0 -1.2362427596738506
v 0.60147366118956924 3 -1.2543414534377191
v 0.60147366118956924 0 -1.2543414534377191
v 0.33395960631112415 3 -1.1064404657575597
v 0.33395960631112415 0 -1.1064404657575597
v 0.32544859673283683 3 -1.1245391595214282
v 0.32544859673283683 0 -1.1245391595214282
v 0.26949995357285972 3 -1.1392431195476931
v 0.26949995357285966 0 -1.1392431195476931
v 0.25319021502937133 3 -1.1276676096823335
v 0.25319021502937122 0 -1.1276676096823335
v 0.092960646460868643 3 -1.3879846415312427
v 0.09296064646086874 0 -1.3879846415312427
v 0.076650907917380273 3 -1.3764091316658831
v 0.076650907917380287 0 -1.3764091316658831
v 0.028170179023789904 3 -1.378253931767131
v 0.028170179023789904 0 -1.378253931767131
v 0.012787278602610253 3 -1.3910354173862622
v 0.012787278602610253 0 -1.3910354173862622
v -0.16676158997031904 3 -1.1436477145624249
v -0.16676158997031904 0 -1.1436477145624249
v -0.18214449039149871 3 -1.1564292001815564
v -0.18214449039149871 0 -1.1564292001815564
v -0.23904876271335951 3 -1.1460195458445483
v -0.23904876271335954 0 -1.1460195458445483
v -0.24891056047574903 3 -1.1286199784679229
v -0.24891056047574905 0 -1.1286199784679229
v -0.50441137779004463 3 -1.2964228511072242
v -0.50441137779004463 0 -1.2964228511072242
v -0.51427317555243424 3 -1.2790232837305988
v -0.51427317555243413 0 -1.2790232837305988
v -0.55896112316795787 3 -1.2601348825441678
v -0.55896112316795787 0 -1.2601348825441678
v -0.57831256171972045 3 -1.2651867956448994
v -0.57831256171972045 0 -1.2651867956448994
v -0.63600837627100626 3 -0.96500407679263456
v -0.63600837627100626 0 -0.96500407679263456
v -0.65535981482276906 3 -0.97005598989336639
v -0.65535981482276906 0 -0.97005598989336639
v -0.70247966281437735 3 -0.93649742858415375
v -0.70247966281437735 0 -0.93649742858415375
v -0.70403221428775076 3 -0.91655778004355715
v -0.70403221428775076 0 -0.91655778004355715
v -0.74347757299130046 3 1.160869741993801
v -0.74347757299130046 0 1.160869741993801
v -0.76337111062362939 3 1.1629306060046236
v -0.76337111062362939 0 1.1629306060046236
v -0.77490802476012044 3 0.8574713266784233
v -0.77490802476012044 0 0.8574713266784233
v -0.79480156239244937 3 0.85953219068924613
v -0.79480156239244937 0 0.85953219068924613
v -0.83480416172812877 3 0.79927563110273991
v -0.83480416172812877 0 0.79927563110273991
v -0.83629138348314369 3 0.81922025873655147
v -0.83629138348314369 0 0.81922025873655147
v -0.98521559956733729 3 -0.60422656783896778
v -0.98521559956733729 0 -0.60422656783896778
v -1.00488320575595 3 -0.60059541556873208
v -1.00488320575595 0 -0.60059541556873208
v -1.0065813203964515 3 -0.96017555287872802
v -1.0065813203964515 0 -0.96017555287872802
v -1.0081338718698249 3 -0.94023590433813142
v -1.0081338718698249 0 -0.94023590433813142
v -1.0262755562768908 3 -0.53150541436738452
v -1.0262755562768908 0 -0.53150541436738452
v -1.0333252780515463 3 -0.55022175543341401
v -1.0333252780515463 0 -0.55022175543341401
v -1.0405946812027713 3 -0.90417927916442054
v -1.0405946812027713 0 -0.90417927916442054
v -1.0602622873913838 3 -0.90054812689418473
v -1.0602622873913838 0 -0.90054812689418473
v -1.0654062001340974 3 0.44793878111758845
v -1.0654062001340974 0 0.44793878111758839
v -1.084296340654332 3 0.4413689568333487
v -1.084296340654332 0 0.4413689568333487
v -1.0949710581531522 3 0.36983496957461004
v -1.0949710581531522 0 0.36983496957461004
v -1.1047758028012402 3 0.38726675038971275
v -1.1047758028012402 0 0.38726675038971275
v -1.1389817559796405 3 0.77659385715013407
v -1.1389817559796405 0 0.77659385715013407
v -1.1404689777346555 3 0.79653848478394562
v -1.1404689777346555 0 0.79653848478394562
v -1.1484742497795548 3 -0.12940796152700829
v -1.1484742497795548 0 -0.12940796152700829
v -1.1548207114279432 3 -0.046137266611128741
v -1.1548207114279432 0 -0.046137266611128713
v -1.164745979958572 3 -0.11777908380896296
v -1.164745979958572 0 -0.11777908380896296
v -1.1656032748614973 3 0.73603428252353931
v -1.1656032748614973 0 0.73603428252353942
v -1.1691421492556209 3 -0.060097797351324533
v -1.1691421492556209 0 -0.060097797351324533
v -1.1844934153817319 3 0.72946445823929962
v -1.1844934153817319 0 0.72946445823929962
v -1.3117204240970484 3 -0.42398937300886286
v -1.3117204240970484 0 -0.42398937300886286
v -1.3187701458717038 3 -0.44270571407489229
v -1.3187701458717038 0 -0.44270571407489229
v -1.3258274755737238 3 -0.37756981398357914
v -1.3258274755737238 0 -0.37756981398357914
v -1.342099205752741 3 -0.36594093626553387
v -1.342099205752741 0 -0.36594093626553387
v -1.360824963736661 3 0.22030178730301736
v -1.360824963736661 0 0.22030178730301736
v -1.3677342204186098 3 0.17228047397684604
v -1.3677342204186098 0 0.17228047397684604
v -1.370629708384749 3 0.23773356811812005
v -1.370629708384749 0 0.23773356811812005
v -1.3820556582462875 3 0.15831994323665022
v -1.3820556582462875 0 0.15831994323665022
vn 0.99605739116668701 0 -0.088711321353912354
vn 0.99605739116668701 0 -0.088711321353912354
vn 0.99605739116668701 0 0.088711321353912354
vn 0.99605739116668701 0 0.088711321353912354
vn -0.088711321353912354 0 -0.99605739116668701
vn -0.088711321353912354 0 -0.99605739116668701
vn -0.088711321353912354 0 0.99605739116668701
vn -0.088711321353912354 0 0.99605739116668701
vn 0.93967956304550171 0 -0.34205600619316101
vn 0.93967956304550171 0 -0.34205600619316101
vn 0.34205600619316101 0 0.93967956304550171
vn 0.34205600619316101 0 0.93967956304550171
vn 0.088711321353912354 0 0.99605739116668701
vn 0.088711321353912354 0 0.99605739116668701
vn 0.088711321353912354 0 -0.99605739116668701
vn 0.088711321353912354 0 -0.99605739116668701
vn -0.99605739116668701 0 0.088711321353912354
vn -0.99605739116668701 0 0.088711321353912354
vn -0.99605739116668701 0 -0.088711321353912354
vn -0.99605739116668701 0 -0.088711321353912354
vn 0.86444032192230225 0 -0.502735435962677
vn 0.86444032192230225 0 -0.502735435962677
vn -0.502735435962677 0 -0.86444032192230225
vn -0.502735435962677 0 -0.86444032192230225
vn 0.7082640528678894 0 0.70594757795333862
vn 0.7082640528678894 0 0.70594757795333862
vn 0.70594757795333862 0 -0.7082640528678894
vn 0.70594757795333862 0 -0.7082640528678894
vn -0.34205600619316101 0 -0.93967956304550171
vn -0.34205600619316101 0 -0.93967956304550171
vn -0.93967956304550171 0 0.34205600619316101
vn -0.93967956304550171 0 0.34205600619316101
vn 0.502735435962677 0 0.86444032192230225
vn 0.502735435962677 0 0.86444032192230225
vn -0.86444032192230225 0 0.502735435962677
vn -0.86444032192230225 0 0.502735435962677
vn -0.70594757795333862 0 0.7082640528678894
vn -0.70594757795333862 0 0.7082640528678894
vn -0.7082640528678894 0 -0.70594757795333862
vn -0.7082640528678894 0 -0.70594757795333862
vn 0.82187366485595703 0 0.56966978311538696
vn 0.82187366485595703 0 0.56966978311538696
vn -0.56966978311538696 0 0.82187366485595703
vn -0.56966978311538696 0 0.82187366485595703
vn 0.56966978311538696 0 -0.82187366485595703
vn 0.56966978311538696 0 -0.82187366485595703
vn -0.82187366485595703 0 -0.56966978311538696
vn -0.82187366485595703 0 -0.56966978311538696
vn 0.94079506397247314 0 0.33897581696510315
vn 0.94079506397247314 0 0.33897581696510315
vn 0.33897581696510315 0 -0.94079506397247314
vn 0.33897581696510315 0 -0.94079506397247314
vn -0.33897581696510315 0 0.94079506397247314
vn -0.33897581696510315 0 0.94079506397247314
vn -0.94079506397247314 0 -0.33897581696510315
vn -0.94079506397247314 0 -0.33897581696510315
vn 0.98589241504669189 0 0.16738027334213257
vn 0.98589241504669189 0 0.16738027334213257
vn -0.16738027334213257 0 0.98589241504669189
vn -0.16738027334213257 0 0.98589241504669189
vn 0.16738027334213257 0 -0.98589241504669189
vn 0.16738027334213257 0 -0.98589241504669189
vn -0.98589241504669189 0 -0.16738027334213257
vn -0.98589241504669189 0 -0.16738027334213257
vn 0.99576139450073242 0 -0.09197390079498291
vn 0.99576139450073242 0 -0.09197390079498291
vn -0.09197390079498291 0 -0.99576139450073242
vn -0.09197390079498291 0 -0.99576139450073242
vn 0.09197390079498291 0 0.99576139450073242
vn 0.09197390079498291 0 0.99576139450073242
vn -0.99576139450073242 0 0.09197390079498291
vn -0.99576139450073242 0 0.09197390079498291
vn 0.96383482217788696 0 -0.26650041341781616
vn 0.96383482217788696 0 -0.26650041341781616
vn 0.26650041341781616 0 0.96383482217788696
vn 0.26650041341781616 0 0.96383482217788696
vn -0.26650041341781616 0 -0.96383482217788696
vn -0.26650041341781616 0 -0.96383482217788696
vn -0.96383482217788696 0 0.26650041341781616
vn -0.96383482217788696 0 0.26650041341781616
vn 0.86278879642486572 0 -0.50556457042694092
vn 0.86278879642486572 0 -0.50556457042694092
vn -0.50556457042694092 0 -0.86278879642486572
vn -0.50556457042694092 0 -0.86278879642486572
vn 0.50556457042694092 0 0.86278879642486572
vn 0.50556457042694092 0 0.86278879642486572
vn -0.86278879642486572 0 0.50556457042694092
vn -0.86278879642486572 0 0.50556457042694092
vn 0.75986403226852417 0 -0.6500820517539978
vn 0.75986403226852417 0 -0.6500820517539978
vn 0.6500820517539978 0 0.75986403226852417
vn 0.6500820517539978 0 0.75986403226852417
vn 0.77620530128479004 0 0.63048022985458374
vn 0.77620530128479004 0 0.63048022985458374
vn -0.63048022985458374 0 0.77620530128479004
vn -0.63048022985458374 0 0.77620530128479004
vn 0.63048022985458374 0 -0.77620530128479004
vn 0.63048022985458374 0 -0.77620530128479004
vn -0.77620530128479004 0 -0.63048022985458374
vn -0.77620530128479004 0 -0.63048022985458374
vn 0.75773030519485474 0 -0.65256786346435547
vn 0.75773030519485474 0 -0.65256786346435547
vn 0.65256786346435547 0 0.75773030519485474
vn 0.65256786346435547 0 0.75773030519485474
vn 0.82373553514480591 0 0.56697428226470947
vn 0.82373553514480591 0 0.56697428226470947
vn -0.56697428226470947 0 0.82373553514480591
vn -0.56697428226470947 0 0.82373553514480591
vn -0.6500820517539978 0 -0.75986403226852417
vn -0.6500820517539978 0 -0.75986403226852417
vn -0.75986403226852417 0 0.6500820517539978
vn -0.75986403226852417 0 0.6500820517539978
vn 0.91096788644790649 0 0.4124772846698761
vn 0.91096788644790649 0 0.4124772846698761
vn 0.4124772846698761 0 -0.91096788644790649
vn 0.4124772846698761 0 -0.91096788644790649
vn 0.56697428226470947 0 -0.82373553514480591
vn 0.56697428226470947 0 -0.82373553514480591
vn -0.82373553514480591 0 -0.56697428226470947
vn -0.82373553514480591 0 -0.56697428226470947
vn 0.90014570951461792 0 -0.43558895587921143
vn 0.90014570951461792 0 -0.43558895587921143
vn -0.43558895587921143 0 -0.90014570951461792
vn -0.43558895587921143 0 -0.90014570951461792
vn 0.96295660734176636 0 -0.26965644955635071
vn 0.96295660734176636 0 -0.26965644955635071
vn 0.26965644955635071 0 0.96295660734176636
vn 0.26965644955635071 0 0.96295660734176636
vn -0.65256786346435547 0 -0.75773030519485474
vn -0.65256786346435547 0 -0.75773030519485474
vn -0.75773030519485474 0 0.65256786346435547
vn -0.75773030519485474 0 0.65256786346435547
vn 0.98643547296524048 0 0.16414961218833923
vn 0.98643547296524048 0 0.16414961218833923
vn 0.99991858005523682 0 -0.012760000303387642
vn 0.99991858005523682 0 -0.012760000303387642
vn -0.16414961218833923 0 0.98643547296524048
vn -0.16414961218833923 0 0.98643547296524048
vn 0.43558895587921143 0 0.90014570951461792
vn 0.43558895587921143 0 0.90014570951461792
vn -0.012760000303387642 0 -0.99991858005523682
vn -0.012760000303387642 0 -0.99991858005523682
vn -0.90014570951461792 0 0.43558895587921143
vn -0.90014570951461792 0 0.43558895587921143
vn -0.4124772846698761 0 0.91096788644790649
vn -0.4124772846698761 0 0.91096788644790649
vn -0.91096788644790649 0 -0.4124772846698761
vn -0.91096788644790649 0 -0.4124772846698761
vn 0.16414961218833923 0 -0.98643547296524048
vn 0.16414961218833923 0 -0.98643547296524048
vn -0.98643547296524048 0 -0.16414961218833923
vn -0.98643547296524048 0 -0.16414961218833923
vn -0.26965644955635071 0 -0.96295660734176636
vn -0.26965644955635071 0 -0.96295660734176636
vn 0.012760000303387642 0 0.99991858005523682
vn 0.012760000303387642 0 0.99991858005523682
vn -0.96295660734176636 0 0.26965644955635071
vn -0.96295660734176636 0 0.26965644955635071
vn -0.99991858005523682 0 0.012760000303387642
vn -0.99991858005523682 0 0.012760000303387642
f 6//6 18//18 17//17 5//5
f 18//18 14//14 13//13 17//17
f 14//14 2//2 1//1 13//13
f 2//2 6//6 5//5 1//1
f 24//24 36//36 35//35 23//23
f 36//36 34//34 33//33 35//35
f 34//34 22//22 21//21 33//33
f 22//22 24//24 23//23 21//21
f 48//48 44//44 43//43 47//47
f 44//44 42//42 41//41 43//43
f 42//42 46//46 45//45 41//41
f 46//46 48//48 47//47 45//45
f 64//64 60//60 59//59 63//63
f 60//60 58//58 57//57 59//59
f 58//58 62//62 61//61 57//57
f 62//62 64//64 63//63 61//61
f 80//80 76//76 75//75 79//79
f 76//76 74//74 73//73 75//75
f 74//74 78//78 77//77 73//73
f 78//78 80//80 79//79 77//77
f 112//112 92//92 91//91 111//111
f 92//92 90//90 89//89 91//91
f 90//90 110//110 109//109 89//89
f 110//110 112//112 111//111 109//109
f 146//146 114//114 113//113 145//145
f 114//114 116//116 115//115 113//113
f 116//116 148//148 147//147 115//115
f 148//148 146//146 145//145 147//147
f 156//156 136//136 135//135 155//155
f 136//136 142//142 141//141 135//135
f 142//142 160//160 159//159 141//141
f 160//160 156//156 155//155 159//159
f 140//140 122//122 121//121 139//139
f 122//122 124//124 123//123 121//121
f 124//124 144//144 143//143 123//123
f 144//144 140//140 139//139 143//143
f 94//94 98//98 97//97 93//93
f 98//98 100//100 99//99 97//97
f 100//100 96//96 95//95 99//99
f 96//96 94//94 93//93 95//95
f 8//8 4//4 3//3 7//7
f 4//4 16//16 15//15 3//3
f 16//16 20//20 19//19 15//15
f 20//20 8//8 7//7 19//19
f 12//12 10//10 9//9 11//11
f 10//10 30//30 29//29 9//9
f 30//30 32//32 31//31 29//29
f 32//32 12//12 11//11 31//31
f 26//26 28//28 27//27 25//25
f 28//28 40//40 39//39 27//27
f 40//40 38//38 37//37 39//39
f 38//38 26//26 25//25 37//37
f 50//50 52//52 51//51 49//49
f 52//52 56//56 55//55 51//51
f 56//56 54//54 53//53 55//55
f 54//54 50//50 49//49 53//53
f 66//66 68//68 67//67 65//65
f 68//68 72//72 71//71 67//67
f 72//72 70//70 69//69 71//71
f 70//70 66//66 65//65 69//69
f 82//82 84//84 83//83 81//81
f 84//84 88//88 87//87 83//83
f 88//88 86//86 85//85 87//87
f 86//86 82//82 81//81 85//85
f 118//118 120//120 119//119 117//117
f 120//120 108//108 107//107 119//119
f 108//108 106//106 105//105 107//107
f 106//106 118//118 117//117 105//105
f 150//150 152//152 151//151 149//149
f 152//152 138//138 137//137 151//151
f 138//138 134//134 133//133 137//137
f 134//134 150//150 149//149 133//133
f 154//154 158//158 157//157 153//153
f 158//158 128//128 127//127 157//157
f 128//128 126//126 125//125 127//127
f 126//126 154//154 153//153 125//125
f 130//130 132//132 131//131 129//129
f 132//132 104//104 103//103 131//131
f 104//104 102//102 101//101 103//103
f 102//102 130//130 129//129 101//101
