# Rhino

mtllib Pannelli25.mtl
usemtl diffuse_Black
v 1.4969695796269915 3 -0.048736517410039232
v 1.4969695796269915 0 -0.048736517410039232
v 1.4969695796269911 3 0.048736517410035034
v 1.4969695796269911 0 0.048736517410035034
v 1.4947480519615104 3 -0.068612754851554783
v 1.4947480519615104 0 -0.068612754851554755
v 1.4947480519615099 3 0.06861275485155055
v 1.4947480519615099 0 0.06861275485155055
v 1.4936490592335403 3 -0.11093087175637442
v 1.4936490592335403 0 -0.11093087175637442
v 1.4935564892471147 3 -0.090931085987581442
v 1.4935564892471147 0 -0.090931085987581442
v 1.483270585110144 3 -0.20784980588126778
v 1.483270585110144 0 -0.20784980588126775
v 1.4789453570077993 3 -0.22737651584128621
v 1.4789453570077993 0 -0.22737651584128624
v 1.4753842161134425 3 -0.24944110289679711
v 1.4753842161134425 0 -0.24944110289679711
v 1.4733467759637111 3 -0.26933705317910989
v 1.4733467759637111 0 -0.26933705317910989
v 1.4527078238321993 3 -0.36459998496240426
v 1.4527078238321993 0 -0.36459998496240426
v 1.4463280701627943 3 -0.38355516217386054
v 1.4463280701627943 0 -0.38355516217386054
v 1.4404378388120576 3 -0.40511514596407872
v 1.4404378388120576 0 -0.40511514596407872
v 1.4362935528198726 3 -0.42468105748424517
v 1.4362935528198726 0 -0.42468105748424517
v 1.4056287733761015 3 -0.51720491288759651
v 1.4056287733761015 0 -0.51720491288759651
v 1.3972670275525914 3 -0.53537305001783131
v 1.3972670275525914 0 -0.5353730500178312
v 1.389114673626227 3 -0.55618330835017715
v 1.389114673626227 0 -0.55618330835017715
v 1.3829106594740026 3 -0.5751967301463452
v 1.3829106594740026 0 -0.5751967301463452
v 1.3425686901773215 3 -0.66392957654665552
v 1.3425686901773215 0 -0.66392957654665552
v 1.3323200195007767 3 -0.68110411436761975
v 1.3323200195007767 0 -0.68110411436761975
v 1.3219982296579478 3 -0.70092804891251137
v 1.3219982296579478 0 -0.70092804891251137
v 1.3138050227211551 3 -0.71917281145113843
v 1.3138050227211551 0 -0.71917281145113843
v 1.264244524026191 3 -0.80310581739124487
v 1.264244524026191 0 -0.80310581739124487
v 1.252225448835945 3 -0.81909149321590768
v 1.252225448835945 0 -0.81909149321590768
v 1.239851574730634 3 -0.83770371946710054
v 1.239851574730634 0 -0.83770371946710054
v 1.2297623261390762 3 -0.85497239234192646
v 1.2297623261390762 0 -0.85497239234192646
v 1.1715467668417097 3 -0.93315129725066903
v 1.1715467668417097 0 -0.93315129725066903
v 1.1708130882307828 3 -0.012282652786774224
v 1.1708130882307828 0 -0.012282652786774245
v 1.1708130882307828 3 0.012282652786770982
v 1.1708130882307828 0 0.012282652786770982
v 1.1685915605653017 3 -0.032158890228289765
v 1.1685915605653017 0 -0.032158890228289772
v 1.1685915605653017 3 0.032158890228286496
v 1.1685915605653017 0 0.032158890228286496
v 1.1654652178893725 3 -0.11244988671430549
v 1.1654652178893725 0 -0.11244988671430549
v 1.1653726479029471 3 -0.092450100945512495
v 1.1653726479029471 0 -0.092450100945512495
v 1.1628496187270096 3 -0.13687554697034571
v 1.1628496187270096 0 -0.13687554697034568
v 1.1585243906246649 3 -0.15640225693036414
v 1.1585243906246649 0 -0.15640225693036416
v 1.1578939357592122 3 -0.94776636493552058
v 1.1578939357592122 0 -0.94776636493552058
v 1.1489042494614767 3 -0.21600799803369036
v 1.1489042494614767 0 -0.21600799803369036
v 1.1468668093117456 3 -0.2359039483160032
v 1.1468668093117456 0 -0.2359039483160032
v 1.143608659832599 3 -0.9649552746769845
v 1.143608659832599 0 -0.9649552746769845
v 1.1416653485511952 3 -0.25991226029077791
v 1.1416653485511952 0 -0.25991226029077791
v 1.1352855948817901 3 -0.27886743750223419
v 1.1352855948817901 0 -0.27886743750223419
v 1.1317380774061108 3 -0.98105152495013681
v 1.1317380774061108 0 -0.98105152495013681
v 1.1193735996086676 3 -0.33711003269599721
v 1.1193735996086676 0 -0.33711003269599721
v 1.1152293136164828 3 -0.35667594421616367
v 1.1152293136164828 0 -0.35667594421616367
v 1.1075011282904375 3 -0.37999394990893143
v 1.1075011282904375 0 -0.37999394990893143
v 1.0991393824669273 3 -0.39816208703916611
v 1.0991393824669273 0 -0.39816208703916611
v 1.0771164415301668 3 -0.45437935805948848
v 1.0771164415301668 0 -0.45437935805948848
v 1.0709124273779425 3 -0.47339277985565659
v 1.0709124273779425 0 -0.47339277985565659
v 1.0655293283906644 3 -1.052587488428971
v 1.0655293283906644 0 -1.052587488428971
v 1.060745381640207 3 -0.49575536957349675
v 1.060745381640207 0 -0.49575536957349675
v 1.0504967109636623 3 -0.51292990739446098
v 1.0504967109636623 0 -0.51292990739446098
v 1.0503979647186059 3 -1.065665784702718
v 1.0503979647186059 0 -1.065665784702718
v 1.0343637007364335 3 -1.0812359518485675
v 1.0343637007364335 0 -1.0812359518485675
v 1.0226132100603034 3 -0.56648270252084831
v 1.0226132100603034 0 -0.56648270252084831
v 1.020846744835834 3 -1.0959767762210795
v 1.020846744835834 0 -1.0959767762210795
v 1.0144200031235107 3 -0.58472746505947537
v 1.0144200031235107 0 -0.58472746505947537
v 1.0019296892939842 3 -0.60588039153222617
v 1.0019296892939842 0 -0.60588039153222617
v 0.98991061410373804 3 -0.62186606735688899
v 0.98991061410373804 0 -0.62186606735688899
v 0.95648356946833524 3 -0.67214552812785588
v 0.95648356946833524 0 -0.67214552812785588
v 0.94739755405817627 3 -1.1600564835483032
v 0.94739755405817627 0 -1.1600564835483032
v 0.94639432087677744 3 -0.68941420100268191
v 0.94639432087677744 0 -0.68941420100268191
v 0.93172274523624821 3 -0.70911696999959917
v 0.93172274523624821 0 -0.70911696999959917
v 0.93095969099825571 3 -1.1714493171740217
v 0.93095969099825571 0 -1.1714493171740217
v 0.91806991415375072 3 -0.72373203768445071
v 0.91806991415375072 0 -0.72373203768445071
v 0.91335873751797969 3 -1.1852237196287503
v 0.91335873751797969 0 -1.1852237196287503
v 0.89834908663855895 3 -1.1984415250622518
v 0.89834908663855895 0 -1.1984415250622518
v 0.87947936830174456 3 -0.77016652119962115
v 0.87947936830174456 0 -0.77016652119962115
v 0.86760878587525647 3 -0.78626277147277335
v 0.86760878587525647 0 -0.78626277147277335
v 0.85092275415162266 3 -0.80429137605658818
v 0.85092275415162266 0 -0.80429137605658818
v 0.83579139047956408 3 -0.81736967233033508
v 0.83579139047956408 0 -0.81736967233033508
v 0.81849452089937946 3 -1.2543364340222145
v 0.81849452089937946 0 -1.2543364340222145
v 0.80093704565307999 3 -1.2639142763144839
v 0.80093704565307999 0 -1.2639142763144839
v 0.79247609138517072 3 -0.85943125043719726
v 0.79247609138517072 0 -0.85943125043719726
v 0.7789591354845713 3 -0.87417207480970949
v 0.7789591354845713 0 -0.87417207480970949
v 0.76044835638639963 3 -0.89032154214149306
v 0.76044835638639963 0 -0.89032154214149306
v 0.74401049332647906 3 -0.90171437576721147
v 0.74401049332647906 0 -0.90171437576721147
v 0.69646290615987583 3 -0.93892483724124698
v 0.69646290615987583 0 -0.93892483724124698
v 0.68145325528045508 3 -0.95214264267474868
v 0.68145325528045508 0 -0.95214264267474868
v 0.66132818363939327 3 -0.96622936441416651
v 0.66132818363939327 0 -0.96622936441416651
v 0.6437707083930938 3 -0.97580720670643584
v 0.6437707083930938 0 -0.97580720670643584
vn 0.78127396106719971 0 0.62418824434280396
vn 0.78127396106719971 0 0.62418824434280396
vn 0.78127396106719971 0 -0.62418824434280396
vn 0.78127396106719971 0 -0.62418824434280396
vn 0.62418824434280396 0 -0.78127396106719971
vn 0.62418824434280396 0 -0.78127396106719971
vn 0.62418824434280396 0 0.78127396106719971
vn 0.62418824434280396 0 0.78127396106719971
vn 0.71037203073501587 0 -0.70382636785507202
vn 0.71037203073501587 0 -0.70382636785507202
vn 0.70382636785507202 0 0.71037203073501587
vn 0.70382636785507202 0 0.71037203073501587
vn 0.84329336881637573 0 0.53745359182357788
vn 0.84329336881637573 0 0.53745359182357788
vn 0.53745359182357788 0 -0.84329336881637573
vn 0.53745359182357788 0 -0.84329336881637573
vn 0.77546244859695435 0 0.6313936710357666
vn 0.77546244859695435 0 0.6313936710357666
vn 0.6313936710357666 0 -0.77546244859695435
vn 0.6313936710357666 0 -0.77546244859695435
vn 0.8957250714302063 0 0.44460836052894592
vn 0.8957250714302063 0 0.44460836052894592
vn 0.44460836052894592 0 -0.8957250714302063
vn 0.44460836052894592 0 -0.8957250714302063
vn 0.83828210830688477 0 0.54523676633834839
vn 0.83828210830688477 0 0.54523676633834839
vn 0.54523676633834839 0 -0.83828210830688477
vn 0.54523676633834839 0 -0.83828210830688477
vn 0.9379730224609375 0 0.3467082679271698
vn 0.9379730224609375 0 0.3467082679271698
vn 0.3467082679271698 0 -0.9379730224609375
vn 0.3467082679271698 0 -0.9379730224609375
vn 0.89157098531723022 0 0.45288094878196716
vn 0.89157098531723022 0 0.45288094878196716
vn 0.45288094878196716 0 -0.89157098531723022
vn 0.45288094878196716 0 -0.89157098531723022
vn 0.96955680847167969 0 0.24486638605594635
vn 0.96955680847167969 0 0.24486638605594635
vn 0.24486638605594635 0 -0.96955680847167969
vn 0.24486638605594635 0 -0.96955680847167969
vn 0.9347233772277832 0 0.35537615418434143
vn 0.9347233772277832 0 0.35537615418434143
vn 0.35537615418434143 0 -0.9347233772277832
vn 0.35537615418434143 0 -0.9347233772277832
vn 0.99011749029159546 0 0.14024052023887634
vn 0.99011749029159546 0 0.14024052023887634
vn 0.14024052023887634 0 -0.99011749029159546
vn 0.14024052023887634 0 -0.99011749029159546
vn 0.96724855899810791 0 0.25383099913597107
vn 0.96724855899810791 0 0.25383099913597107
vn 0.25383099913597107 0 -0.96724855899810791
vn 0.25383099913597107 0 -0.96724855899810791
vn 0.99942111968994141 0 0.034020178020000458
vn 0.99942111968994141 0 0.034020178020000458
vn -0.62418824434280396 0 0.78127396106719971
vn -0.62418824434280396 0 0.78127396106719971
vn -0.62418824434280396 0 -0.78127396106719971
vn -0.62418824434280396 0 -0.78127396106719971
vn -0.78127396106719971 0 -0.62418824434280396
vn -0.78127396106719971 0 -0.62418824434280396
vn -0.78127396106719971 0 0.62418824434280396
vn -0.78127396106719971 0 0.62418824434280396
vn -0.70382636785507202 0 -0.71037203073501587
vn -0.70382636785507202 0 -0.71037203073501587
vn -0.71037203073501587 0 0.70382636785507202
vn -0.71037203073501587 0 0.70382636785507202
vn -0.53745359182357788 0 0.84329336881637573
vn -0.53745359182357788 0 0.84329336881637573
vn -0.84329336881637573 0 -0.53745359182357788
vn -0.84329336881637573 0 -0.53745359182357788
vn 0.034020178020000458 0 -0.99942111968994141
vn 0.034020178020000458 0 -0.99942111968994141
vn -0.6313936710357666 0 0.77546244859695435
vn -0.6313936710357666 0 0.77546244859695435
vn -0.77546244859695435 0 -0.6313936710357666
vn -0.77546244859695435 0 -0.6313936710357666
vn 0.98877686262130737 0 0.14939990639686584
vn 0.98877686262130737 0 0.14939990639686584
vn -0.44460836052894592 0 0.8957250714302063
vn -0.44460836052894592 0 0.8957250714302063
vn -0.8957250714302063 0 -0.44460836052894592
vn -0.8957250714302063 0 -0.44460836052894592
vn 0.14939990639686584 0 -0.98877686262130737
vn 0.14939990639686584 0 -0.98877686262130737
vn -0.54523676633834839 0 0.83828210830688477
vn -0.54523676633834839 0 0.83828210830688477
vn -0.83828210830688477 0 -0.54523676633834839
vn -0.83828210830688477 0 -0.54523676633834839
vn -0.3467082679271698 0 0.9379730224609375
vn -0.3467082679271698 0 0.9379730224609375
vn -0.9379730224609375 0 -0.3467082679271698
vn -0.9379730224609375 0 -0.3467082679271698
vn -0.45288094878196716 0 0.89157098531723022
vn -0.45288094878196716 0 0.89157098531723022
vn -0.89157098531723022 0 -0.45288094878196716
vn -0.89157098531723022 0 -0.45288094878196716
vn 0.99736207723617554 0 -0.072586901485919952
vn 0.99736207723617554 0 -0.072586901485919952
vn -0.24486638605594635 0 0.96955680847167969
vn -0.24486638605594635 0 0.96955680847167969
vn -0.96955680847167969 0 -0.24486638605594635
vn -0.96955680847167969 0 -0.24486638605594635
vn -0.072586901485919952 0 -0.99736207723617554
vn -0.072586901485919952 0 -0.99736207723617554
vn 0.99906337261199951 0 0.04327031597495079
vn 0.99906337261199951 0 0.04327031597495079
vn -0.35537615418434143 0 0.9347233772277832
vn -0.35537615418434143 0 0.9347233772277832
vn 0.04327031597495079 0 -0.99906337261199951
vn 0.04327031597495079 0 -0.99906337261199951
vn -0.9347233772277832 0 -0.35537615418434143
vn -0.9347233772277832 0 -0.35537615418434143
vn -0.14024052023887634 0 0.99011749029159546
vn -0.14024052023887634 0 0.99011749029159546
vn -0.99011749029159546 0 -0.14024052023887634
vn -0.99011749029159546 0 -0.14024052023887634
vn -0.25383099913597107 0 0.96724855899810791
vn -0.25383099913597107 0 0.96724855899810791
vn 0.9839637279510498 0 -0.17836871743202209
vn 0.9839637279510498 0 -0.17836871743202209
vn -0.96724855899810791 0 -0.25383099913597107
vn -0.96724855899810791 0 -0.25383099913597107
vn -0.034020178020000458 0 0.99942111968994141
vn -0.034020178020000458 0 0.99942111968994141
vn -0.17836871743202209 0 -0.9839637279510498
vn -0.17836871743202209 0 -0.9839637279510498
vn -0.99942111968994141 0 -0.034020178020000458
vn -0.99942111968994141 0 -0.034020178020000458
vn 0.99799126386642456 0 -0.063351303339004517
vn 0.99799126386642456 0 -0.063351303339004517
vn -0.063351303339004517 0 -0.99799126386642456
vn -0.063351303339004517 0 -0.99799126386642456
vn -0.14939990639686584 0 0.98877686262130737
vn -0.14939990639686584 0 0.98877686262130737
vn -0.98877686262130737 0 -0.14939990639686584
vn -0.98877686262130737 0 -0.14939990639686584
vn 0.072586901485919952 0 0.99736207723617554
vn 0.072586901485919952 0 0.99736207723617554
vn -0.99736207723617554 0 0.072586901485919952
vn -0.99736207723617554 0 0.072586901485919952
vn 0.95937836170196533 0 -0.28212264180183411
vn 0.95937836170196533 0 -0.28212264180183411
vn -0.28212264180183411 0 -0.95937836170196533
vn -0.28212264180183411 0 -0.95937836170196533
vn -0.04327031597495079 0 0.99906337261199951
vn -0.04327031597495079 0 0.99906337261199951
vn -0.99906337261199951 0 -0.04327031597495079
vn -0.99906337261199951 0 -0.04327031597495079
vn 0.17836871743202209 0 0.9839637279510498
vn 0.17836871743202209 0 0.9839637279510498
vn -0.9839637279510498 0 0.17836871743202209
vn -0.9839637279510498 0 0.17836871743202209
vn 0.063351303339004517 0 0.99799126386642456
vn 0.063351303339004517 0 0.99799126386642456
vn -0.99799126386642456 0 0.063351303339004517
vn -0.99799126386642456 0 0.063351303339004517
vn 0.28212264180183411 0 0.95937836170196533
vn 0.28212264180183411 0 0.95937836170196533
vn -0.95937836170196533 0 0.28212264180183411
vn -0.95937836170196533 0 0.28212264180183411
f 6//6 60//60 59//59 5//5
f 60//60 56//56 55//55 59//59
f 56//56 2//2 1//1 55//55
f 2//2 6//6 5//5 1//1
f 16//16 70//70 69//69 15//15
f 70//70 68//68 67//67 69//69
f 68//68 14//14 13//13 67//67
f 14//14 16//16 15//15 13//13
f 24//24 82//82 81//81 23//23
f 82//82 80//80 79//79 81//81
f 80//80 22//22 21//21 79//79
f 22//22 24//24 23//23 21//21
f 32//32 92//92 91//91 31//31
f 92//92 90//90 89//89 91//91
f 90//90 30//30 29//29 89//89
f 30//30 32//32 31//31 29//29
f 40//40 102//102 101//101 39//39
f 102//102 100//100 99//99 101//101
f 100//100 38//38 37//37 99//99
f 38//38 40//40 39//39 37//37
f 48//48 116//116 115//115 47//47
f 116//116 114//114 113//113 115//115
f 114//114 46//46 45//45 113//113
f 46//46 48//48 47//47 45//45
f 72//72 128//128 127//127 71//71
f 128//128 124//124 123//123 127//127
f 124//124 54//54 53//53 123//123
f 54//54 72//72 71//71 53//53
f 104//104 140//140 139//139 103//103
f 140//140 138//138 137//137 139//139
f 138//138 98//98 97//97 137//137
f 98//98 104//104 103//103 97//97
f 126//126 152//152 151//151 125//125
f 152//152 150//150 149//149 151//151
f 150//150 120//120 119//119 149//149
f 120//120 126//126 125//125 119//119
f 144//144 160//160 159//159 143//143
f 160//160 158//158 157//157 159//159
f 158//158 142//142 141//141 157//157
f 142//142 144//144 143//143 141//141
f 8//8 4//4 3//3 7//7
f 4//4 58//58 57//57 3//3
f 58//58 62//62 61//61 57//57
f 62//62 8//8 7//7 61//61
f 12//12 10//10 9//9 11//11
f 10//10 64//64 63//63 9//9
f 64//64 66//66 65//65 63//63
f 66//66 12//12 11//11 65//65
f 18//18 20//20 19//19 17//17
f 20//20 76//76 75//75 19//19
f 76//76 74//74 73//73 75//75
f 74//74 18//18 17//17 73//73
f 26//26 28//28 27//27 25//25
f 28//28 88//88 87//87 27//27
f 88//88 86//86 85//85 87//87
f 86//86 26//26 25//25 85//85
f 34//34 36//36 35//35 33//33
f 36//36 96//96 95//95 35//35
f 96//96 94//94 93//93 95//95
f 94//94 34//34 33//33 93//93
f 42//42 44//44 43//43 41//41
f 44//44 112//112 111//111 43//43
f 112//112 108//108 107//107 111//111
f 108//108 42//42 41//41 107//107
f 50//50 52//52 51//51 49//49
f 52//52 122//122 121//121 51//51
f 122//122 118//118 117//117 121//121
f 118//118 50//50 49//49 117//117
f 78//78 84//84 83//83 77//77
f 84//84 136//136 135//135 83//83
f 136//136 134//134 133//133 135//135
f 134//134 78//78 77//77 133//133
f 106//106 110//110 109//109 105//105
f 110//110 148//148 147//147 109//109
f 148//148 146//146 145//145 147//147
f 146//146 106//106 105//105 145//145
f 130//130 132//132 131//131 129//129
f 132//132 156//156 155//155 131//131
f 156//156 154//154 153//153 155//155
f 154//154 130//130 129//129 153//153
