# Rhino

mtllib Pannelli89.mtl
usemtl diffuse_Black
v 1.4109161865991715 3 -0.22178114344659941
v 1.4109161865991715 0 -0.22178114344659935
v 1.4109161865991697 3 0.22178114344661337
v 1.4109161865991697 0 0.22178114344661337
v 1.3982121232098303 3 -0.2372280451877124
v 1.3982121232098303 0 -0.2372280451877124
v 1.3982121232098281 3 0.23722804518772631
v 1.3982121232098281 0 0.23722804518772631
v 1.3969412012176277 3 -0.29736617416357564
v 1.3969412012176277 0 -0.29736617416357564
v 1.3906001712276792 3 -0.27839800770852308
v 1.3906001712276792 0 -0.27839800770852308
v 1.2383416001588956 3 -0.71160483592506274
v 1.2383416001588956 0 -0.71160483592506274
v 1.2209542187268836 3 -0.72148810294248811
v 1.2209542187268836 0 -0.72148810294248811
v 1.1991248055418675 3 -0.75721462456076738
v 1.1991248055418675 0 -0.75721462456076738
v 1.1982643990856867 3 -0.77719610850791643
v 1.1982643990856867 0 -0.77719610850791643
v 1.1716250203984653 3 -0.024979856374767552
v 1.1716250203984653 0 -0.024979856374767517
v 1.1716250203984655 3 0.024979856374779112
v 1.1716250203984655 0 0.024979856374779112
v 1.1589209570091241 3 -0.040426758115880548
v 1.1589209570091241 0 -0.040426758115880562
v 1.1589209570091239 3 0.040426758115892046
v 1.1589209570091239 0 0.040426758115892046
v 1.1031013912809868 3 -0.39559638800444175
v 1.1031013912809868 0 -0.39559638800444175
v 1.0967603612910384 3 -0.37662822154938919
v 1.0967603612910384 0 -0.37662822154938919
v 1.0852378561130505 3 -0.44225329541718306
v 1.0852378561130505 0 -0.44225329541718311
v 1.0678504746810384 3 -0.45213656243460842
v 1.0678504746810384 0 -0.45213656243460854
v 0.90203503766438076 3 -1.1073410278779743
v 0.90203503766438076 0 -1.1073410278779743
v 0.88958748367181906 3 -0.74388588927411814
v 0.88958748367181906 0 -0.74388588927411814
v 0.88872707721563815 3 -0.76386737322126719
v 0.88872707721563815 0 -0.76386737322126719
v 0.88226327599482945 3 -1.1103539069798407
v 0.88226327599482945 0 -1.1103539069798407
v 0.85536190113574928 3 -0.80105255741033932
v 0.85536190113574928 0 -0.80105255741033932
v 0.84910265928934292 3 -1.1359132717343747
v 0.84910265928934292 0 -1.1359132717343747
v 0.84115457825149886 3 -1.1542661463815758
v 0.84115457825149886 0 -1.1542661463815758
v 0.83559013946619798 3 -0.80406543651220552
v 0.83559013946619798 0 -0.80406543651220552
v 0.56479446266404265 3 -1.0127878960131484
v 0.56479446266404265 0 -1.0127878960131484
v 0.55684638162619859 3 -1.0311407706603495
v 0.55684638162619859 0 -1.0311407706603495
v 0.51239106644472743 3 -1.0539376531255742
v 0.51239106644472743 0 -1.0539376531255742
v 0.49284912211269483 3 -1.0496817852089506
v 0.49284912211269488 0 -1.0496817852089506
v 0.44646253177589618 3 -1.3566659754398966
v 0.44646253177589618 0 -1.3566659754398966
v 0.42692058744386358 3 -1.3524101075232731
v 0.42692058744386363 0 -1.3524101075232731
v 0.38681322244388766 3 -1.3644228882047902
v 0.38681322244388766 0 -1.3644228882047902
v 0.37282835214875198 3 -1.3787205594427308
v 0.37282835214875198 0 -1.3787205594427308
v 0.1653250248867657 3 -1.1477803550823191
v 0.1653250248867657 0 -1.1477803550823191
v 0.15134015459162997 3 -1.1620780263202599
v 0.15134015459162997 0 -1.1620780263202599
v 0.10167252642686431 3 -1.1674724318022189
v 0.10167252642686428 0 -1.1674724318022189
v 0.084944210846757628 3 -1.1565105223949868
v 0.084944210846757628 0 -1.1565105223949868
v -0.06814069112352153 3 -1.4266142461819307
v -0.06814069112352153 0 -1.4266142461819307
v -0.084869006703628208 3 -1.4156523367746985
v -0.08486900670362818 0 -1.4156523367746985
v -0.1266201744094676 3 -1.4125302185606656
v -0.1266201744094676 0 -1.4125302185606656
v -0.14479277191957091 3 -1.4208822661979694
v -0.14479277191957091 0 -1.4208822661979694
v -0.2560034807054446 3 -1.131014732544807
v -0.2560034807054446 0 -1.131014732544807
v -0.27417607821554785 3 -1.1393667801821112
v -0.27417607821554785 0 -1.1393667801821112
v -0.32248902774812743 3 -1.1266454671414057
v -0.32248902774812738 0 -1.1266454671414057
v -0.33419191763301054 3 -1.1104268861818303
v -0.33419191763301048 0 -1.1104268861818303
v -0.57373443715005967 3 -1.3079373673170032
v -0.57373443715005978 0 -1.3079373673170032
v -0.58543732703494289 3 -1.2917187863574278
v -0.58543732703494289 0 -1.2917187863574278
v -0.62331201032217887 3 -1.2738745718094262
v -0.62331201032217887 0 -1.2738745718094262
v -0.64326957695530984 3 -1.2751766985636801
v -0.64326957695530984 0 -1.2751766985636801
v -0.64348352657758445 3 -0.96470775802311226
v -0.64348352657758445 0 -0.96470775802311226
v -0.66344109321071543 3 -0.96600988477736605
v -0.66344109321071543 0 -0.96600988477736605
v -0.70401148640841116 3 -0.93685484929802643
v -0.70401148640841116 0 -0.93685484929802643
v -0.70914160914870716 3 -0.9175239972560314
v -0.70914160914870716 0 -0.9175239972560314
v -0.9458829861628878 3 -0.67084833148356471
v -0.9458829861628878 0 -0.67084833148356471
v -0.96498675744431883 3 -0.66492837178549435
v -0.96498675744431883 0 -0.66492837178549435
v -0.99032948489943085 3 -0.6033072340901704
v -0.99032948489943085 0 -0.6033072340901704
v -0.99245042770988201 3 -0.62319445615849356
v -0.99245042770988201 0 -0.62319445615849356
v -1.0034697341727916 3 -1.0163266471933206
v -1.0034697341727916 0 -1.0163266471933206
v -1.0085998569130876 3 -0.99699579515132553
v -1.0085998569130876 0 -0.99699579515132553
v -1.037590312573988 3 -0.96678882397715959
v -1.037590312573988 0 -0.96678882397715959
v -1.0566940838554193 3 -0.96086886427908924
v -1.0566940838554193 0 -0.96086886427908924
v -1.1232189814983737 3 -0.28829017841137133
v -1.1232189814983737 0 -0.28829017841137133
v -1.1389430807058858 3 -0.27593086192087207
v -1.1389430807058858 0 -0.27593086192087207
v -1.1400192928463242 3 0.21233963196932984
v -1.1400192928463242 0 0.21233963196932984
v -1.14057723598136 3 -0.20932194373219559
v -1.14057723598136 0 -0.20932194373219559
v -1.1496688159394355 3 -0.22713607222241172
v -1.1496688159394355 0 -0.22713607222241167
v -1.1520443692932907 3 0.13238534113083822
v -1.1520443692932907 0 0.13238534113083822
v -1.154879432632002 3 0.19895395882412986
v -1.154879432632002 0 0.19895395882412992
v -1.1623097757151604 3 0.14954988106040934
v -1.1623097757151604 0 0.14954988106040934
v -1.2984065764080452 3 -0.5704512680806868
v -1.2984065764080452 0 -0.5704512680806868
v -1.3005275192184964 3 -0.59033849014900996
v -1.3005275192184964 0 -0.59033849014900996
v -1.3146797226891886 3 -0.53187546819194775
v -1.3146797226891886 0 -0.53187546819194775
v -1.3304038218967007 3 -0.51951615170144849
v -1.3304038218967007 0 -0.51951615170144849
v -1.3473795383492226 3 0.44254114673367995
v -1.3473795383492226 0 0.44254114673367989
v -1.3622396781349004 3 0.42915547358847994
v -1.3622396781349004 0 0.42915547358847994
v -1.4165396038863334 3 -0.068482388510291453
v -1.4165396038863334 0 -0.068482388510291495
v -1.4179438257592902 3 -0.026638203874012167
v -1.4179438257592902 0 -0.026638203874012167
v -1.4256311838444089 3 -0.086296517000507583
v -1.4256311838444089 0 -0.086296517000507555
v -1.4282092321811599 3 -0.0094736639444410187
v -1.4282092321811599 0 -0.0094736639444410187
vn 0.99528694152832031 0 0.0969739630818367
vn 0.99528694152832031 0 0.0969739630818367
vn 0.99528694152832031 0 -0.0969739630818367
vn 0.99528694152832031 0 -0.0969739630818367
vn 0.0969739630818367 0 -0.99528694152832031
vn 0.0969739630818367 0 -0.99528694152832031
vn 0.0969739630818367 0 0.99528694152832031
vn 0.0969739630818367 0 0.99528694152832031
vn 0.89481520652770996 0 -0.44643670320510864
vn 0.89481520652770996 0 -0.44643670320510864
vn 0.44643670320510864 0 0.89481520652770996
vn 0.44643670320510864 0 0.89481520652770996
vn 0.96416300535202026 0 -0.26531052589416504
vn 0.96416300535202026 0 -0.26531052589416504
vn -0.26531052589416504 0 -0.96416300535202026
vn -0.26531052589416504 0 -0.96416300535202026
vn 0.73687213659286499 0 0.67603218555450439
vn 0.73687213659286499 0 0.67603218555450439
vn 0.67603218555450439 0 -0.73687213659286499
vn 0.67603218555450439 0 -0.73687213659286499
vn -0.0969739630818367 0 0.99528694152832031
vn -0.0969739630818367 0 0.99528694152832031
vn -0.0969739630818367 0 -0.99528694152832031
vn -0.0969739630818367 0 -0.99528694152832031
vn -0.99528694152832031 0 -0.0969739630818367
vn -0.99528694152832031 0 -0.0969739630818367
vn -0.99528694152832031 0 0.0969739630818367
vn -0.99528694152832031 0 0.0969739630818367
vn -0.44643670320510864 0 -0.89481520652770996
vn -0.44643670320510864 0 -0.89481520652770996
vn -0.89481520652770996 0 0.44643670320510864
vn -0.89481520652770996 0 0.44643670320510864
vn 0.26531052589416504 0 0.96416300535202026
vn 0.26531052589416504 0 0.96416300535202026
vn -0.96416300535202026 0 0.26531052589416504
vn -0.96416300535202026 0 0.26531052589416504
vn 0.80555868148803711 0 -0.59251600503921509
vn 0.80555868148803711 0 -0.59251600503921509
vn -0.67603218555450439 0 0.73687213659286499
vn -0.67603218555450439 0 0.73687213659286499
vn -0.73687213659286499 0 -0.67603218555450439
vn -0.73687213659286499 0 -0.67603218555450439
vn -0.59251600503921509 0 -0.80555868148803711
vn -0.59251600503921509 0 -0.80555868148803711
vn 0.59251600503921509 0 0.80555868148803711
vn 0.59251600503921509 0 0.80555868148803711
vn 0.92987918853759766 0 0.36786502599716187
vn 0.92987918853759766 0 0.36786502599716187
vn 0.36786502599716187 0 -0.92987918853759766
vn 0.36786502599716187 0 -0.92987918853759766
vn -0.80555868148803711 0 0.59251600503921509
vn -0.80555868148803711 0 0.59251600503921509
vn -0.36786502599716187 0 0.92987918853759766
vn -0.36786502599716187 0 0.92987918853759766
vn -0.92987918853759766 0 -0.36786502599716187
vn -0.92987918853759766 0 -0.36786502599716187
vn 0.84137976169586182 0 0.54044437408447266
vn 0.84137976169586182 0 0.54044437408447266
vn -0.54044437408447266 0 0.84137976169586182
vn -0.54044437408447266 0 0.84137976169586182
vn 0.54044437408447266 0 -0.84137976169586182
vn 0.54044437408447266 0 -0.84137976169586182
vn -0.84137976169586182 0 -0.54044437408447266
vn -0.84137976169586182 0 -0.54044437408447266
vn 0.99993884563446045 0 0.01105920597910881
vn 0.99993884563446045 0 0.01105920597910881
vn 0.01105920597910881 0 -0.99993884563446045
vn 0.01105920597910881 0 -0.99993884563446045
vn -0.01105920597910881 0 0.99993884563446045
vn -0.01105920597910881 0 0.99993884563446045
vn -0.99993884563446045 0 -0.01105920597910881
vn -0.99993884563446045 0 -0.01105920597910881
vn 0.97899729013442993 0 0.20387324690818787
vn 0.97899729013442993 0 0.20387324690818787
vn -0.20387324690818787 0 0.97899729013442993
vn -0.20387324690818787 0 0.97899729013442993
vn 0.20387324690818787 0 -0.97899729013442993
vn 0.20387324690818787 0 -0.97899729013442993
vn -0.97899729013442993 0 -0.20387324690818787
vn -0.97899729013442993 0 -0.20387324690818787
vn 0.93778783082962036 0 -0.34720885753631592
vn 0.93778783082962036 0 -0.34720885753631592
vn -0.34720885753631592 0 -0.93778783082962036
vn -0.34720885753631592 0 -0.93778783082962036
vn 0.34720885753631592 0 0.93778783082962036
vn 0.34720885753631592 0 0.93778783082962036
vn -0.93778783082962036 0 0.34720885753631592
vn -0.93778783082962036 0 0.34720885753631592
vn 0.98717308044433594 0 -0.15965378284454346
vn 0.98717308044433594 0 -0.15965378284454346
vn 0.15965378284454346 0 0.98717308044433594
vn 0.15965378284454346 0 0.98717308044433594
vn -0.15965378284454346 0 -0.98717308044433594
vn -0.15965378284454346 0 -0.98717308044433594
vn -0.98717308044433594 0 0.15965378284454346
vn -0.98717308044433594 0 0.15965378284454346
vn 0.75164365768432617 0 -0.6595693826675415
vn 0.75164365768432617 0 -0.6595693826675415
vn -0.6595693826675415 0 -0.75164365768432617
vn -0.6595693826675415 0 -0.75164365768432617
vn 0.6595693826675415 0 0.75164365768432617
vn 0.6595693826675415 0 0.75164365768432617
vn -0.75164365768432617 0 0.6595693826675415
vn -0.75164365768432617 0 0.6595693826675415
vn 0.8648260235786438 0 -0.50207161903381348
vn 0.8648260235786438 0 -0.50207161903381348
vn 0.50207161903381348 0 0.8648260235786438
vn 0.50207161903381348 0 0.8648260235786438
vn 0.88472247123718262 0 0.46611812710762024
vn 0.88472247123718262 0 0.46611812710762024
vn -0.46611812710762024 0 0.88472247123718262
vn -0.46611812710762024 0 0.88472247123718262
vn 0.77810609340667725 0 0.62813282012939453
vn 0.77810609340667725 0 0.62813282012939453
vn 0.62813282012939453 0 -0.77810609340667725
vn 0.62813282012939453 0 -0.77810609340667725
vn -0.50207161903381348 0 -0.8648260235786438
vn -0.50207161903381348 0 -0.8648260235786438
vn -0.8648260235786438 0 0.50207161903381348
vn -0.8648260235786438 0 0.50207161903381348
vn 0.46611812710762024 0 -0.88472247123718262
vn 0.46611812710762024 0 -0.88472247123718262
vn -0.88472247123718262 0 -0.46611812710762024
vn -0.88472247123718262 0 -0.46611812710762024
vn 0.99289870262145996 0 0.11896302551031113
vn 0.99289870262145996 0 0.11896302551031113
vn -0.11896302551031113 0 0.99289870262145996
vn -0.11896302551031113 0 0.99289870262145996
vn 0.99864029884338379 0 -0.052130300551652908
vn 0.99864029884338379 0 -0.052130300551652908
vn 0.95126044750213623 0 0.30838865041732788
vn 0.95126044750213623 0 0.30838865041732788
vn 0.30838865041732788 0 -0.95126044750213623
vn 0.30838865041732788 0 -0.95126044750213623
vn 0.96979504823684692 0 -0.24392120540142059
vn 0.96979504823684692 0 -0.24392120540142059
vn -0.052130300551652908 0 -0.99864029884338379
vn -0.052130300551652908 0 -0.99864029884338379
vn 0.24392120540142059 0 0.96979504823684692
vn 0.24392120540142059 0 0.96979504823684692
vn -0.62813282012939453 0 0.77810609340667725
vn -0.62813282012939453 0 0.77810609340667725
vn -0.77810609340667725 0 -0.62813282012939453
vn -0.77810609340667725 0 -0.62813282012939453
vn 0.11896302551031113 0 -0.99289870262145996
vn 0.11896302551031113 0 -0.99289870262145996
vn -0.99289870262145996 0 -0.11896302551031113
vn -0.99289870262145996 0 -0.11896302551031113
vn 0.052130300551652908 0 0.99864029884338379
vn 0.052130300551652908 0 0.99864029884338379
vn -0.99864029884338379 0 0.052130300551652908
vn -0.99864029884338379 0 0.052130300551652908
vn -0.30838865041732788 0 0.95126044750213623
vn -0.30838865041732788 0 0.95126044750213623
vn -0.24392120540142059 0 -0.96979504823684692
vn -0.24392120540142059 0 -0.96979504823684692
vn -0.95126044750213623 0 -0.30838865041732788
vn -0.95126044750213623 0 -0.30838865041732788
vn -0.96979504823684692 0 0.24392120540142059
vn -0.96979504823684692 0 0.24392120540142059
f 6//6 26//26 25//25 5//5
f 26//26 22//22 21//21 25//25
f 22//22 2//2 1//1 21//21
f 2//2 6//6 5//5 1//1
f 16//16 36//36 35//35 15//15
f 36//36 34//34 33//33 35//35
f 34//34 14//14 13//13 33//33
f 14//14 16//16 15//15 13//13
f 44//44 52//52 51//51 43//43
f 52//52 46//46 45//45 51//51
f 46//46 38//38 37//37 45//45
f 38//38 44//44 43//43 37//37
f 64//64 60//60 59//59 63//63
f 60//60 58//58 57//57 59//59
f 58//58 62//62 61//61 57//57
f 62//62 64//64 63//63 61//61
f 80//80 76//76 75//75 79//79
f 76//76 74//74 73//73 75//75
f 74//74 78//78 77//77 73//73
f 78//78 80//80 79//79 77//77
f 96//96 92//92 91//91 95//95
f 92//92 90//90 89//89 91//91
f 90//90 94//94 93//93 89//89
f 94//94 96//96 95//95 93//93
f 120//120 108//108 107//107 119//119
f 108//108 106//106 105//105 107//107
f 106//106 118//118 117//117 105//105
f 118//118 120//120 119//119 117//117
f 142//142 114//114 113//113 141//141
f 114//114 116//116 115//115 113//113
f 116//116 144//144 143//143 115//115
f 144//144 142//142 141//141 143//143
f 154//154 132//132 131//131 153//153
f 132//132 134//134 133//133 131//131
f 134//134 158//158 157//157 133//133
f 158//158 154//154 153//153 157//157
f 150//150 130//130 129//129 149//149
f 130//130 138//138 137//137 129//129
f 138//138 152//152 151//151 137//137
f 152//152 150//150 149//149 151//151
f 8//8 4//4 3//3 7//7
f 4//4 24//24 23//23 3//3
f 24//24 28//28 27//27 23//23
f 28//28 8//8 7//7 27//27
f 12//12 10//10 9//9 11//11
f 10//10 30//30 29//29 9//9
f 30//30 32//32 31//31 29//29
f 32//32 12//12 11//11 31//31
f 18//18 20//20 19//19 17//17
f 20//20 42//42 41//41 19//19
f 42//42 40//40 39//39 41//41
f 40//40 18//18 17//17 39//39
f 48//48 50//50 49//49 47//47
f 50//50 56//56 55//55 49//49
f 56//56 54//54 53//53 55//55
f 54//54 48//48 47//47 53//53
f 66//66 68//68 67//67 65//65
f 68//68 72//72 71//71 67//67
f 72//72 70//70 69//69 71//71
f 70//70 66//66 65//65 69//69
f 82//82 84//84 83//83 81//81
f 84//84 88//88 87//87 83//83
f 88//88 86//86 85//85 87//87
f 86//86 82//82 81//81 85//85
f 98//98 100//100 99//99 97//97
f 100//100 104//104 103//103 99//99
f 104//104 102//102 101//101 103//103
f 102//102 98//98 97//97 101//101
f 122//122 124//124 123//123 121//121
f 124//124 112//112 111//111 123//123
f 112//112 110//110 109//109 111//111
f 110//110 122//122 121//121 109//109
f 146//146 148//148 147//147 145//145
f 148//148 128//128 127//127 147//147
f 128//128 126//126 125//125 127//127
f 126//126 146//146 145//145 125//125
f 156//156 160//160 159//159 155//155
f 160//160 140//140 139//139 159//159
f 140//140 136//136 135//135 139//139
f 136//136 156//156 155//155 135//135
