# Rhino

mtllib Pannelli129.mtl
usemtl diffuse_Black
v 1.3147094085700872 3 -0.29551382027709366
v 1.3147094085700872 0 -0.29551382027709355
v 1.3147094085700872 3 0.29551382027709444
v 1.3147094085700872 0 0.29551382027709444
v 1.297236328061014 3 -0.30524477385438736
v 1.297236328061014 0 -0.30524477385438736
v 1.2972363280610137 3 0.30524477385438814
v 1.2972363280610137 0 0.30524477385438814
v 1.2940856845285424 3 -0.37567471042880318
v 1.2940856845285424 0 -0.37567471042880318
v 1.2834784539604038 3 -0.35871927886029531
v 1.2834784539604038 0 -0.35871927886029531
v 1.1682935807883521 3 -0.032606847562465527
v 1.1682935807883521 0 -0.032606847562465499
v 1.1682935807883523 3 0.032606847562466436
v 1.1682935807883523 0 0.032606847562466436
v 1.1508205002792788 3 -0.04233780113975924
v 1.1508205002792788 0 -0.042337801139759275
v 1.1508205002792788 3 0.042337801139760135
v 1.1508205002792788 0 0.042337801139760135
v 1.0389674652522305 3 -0.53527535303485396
v 1.0389674652522305 0 -0.53527535303485396
v 1.0283602346840917 3 -0.51831992146634609
v 1.0283602346840917 0 -0.51831992146634609
v 1.00884813184438 3 -0.89331668171571499
v 1.00884813184438 0 -0.89331668171571499
v 1.0074944959313967 3 -0.59239171000881941
v 1.0074944959313967 0 -0.59239171000881941
v 0.9888483341838874 3 -0.89340664581610874
v 0.9888483341838874 0 -0.89340664581610874
v 0.98749469827090408 3 -0.59248167410921315
v 0.98749469827090408 0 -0.59248167410921315
v 0.95209849951830083 3 -0.95357102209141809
v 0.95209849951830083 0 -0.95357102209141809
v 0.95099123838366506 3 -0.93360169629459322
v 0.95099123838366506 0 -0.93360169629459322
v 0.6516320196855615 3 -0.97023131692382947
v 0.6516320196855615 0 -0.97023131692382947
v 0.65052475855092573 3 -0.9502619911270046
v 0.65052475855092573 0 -0.9502619911270046
v 0.59650184043975618 3 -1.005066491218972
v 0.59650184043975618 0 -1.005066491218972
v 0.57894192426322844 3 -0.99549312483752994
v 0.57894192426322844 0 -0.99549312483752994
v 0.45245713276923744 3 -1.2692800281906718
v 0.45245713276923749 0 -1.2692800281906718
v 0.43489721659270969 3 -1.2597066618092296
v 0.43489721659270975 0 -1.2597066618092296
v 0.38234204422107848 3 -1.2766405226325404
v 0.38234204422107848 0 -1.2766405226325404
v 0.37367436705834323 3 -1.2946647111746801
v 0.37367436705834323 0 -1.2946647111746801
v 0.11114287915164689 3 -1.1462231779554461
v 0.11114287915164689 0 -1.1462231779554461
v 0.10247520198891168 3 -1.1642473664975859
v 0.10247520198891168 0 -1.1642473664975859
v 0.06851028618225069 3 1.3309030030373608
v 0.068510286182250732 0 1.3309030030373608
v 0.055813468116666931 3 1.3463558607345463
v 0.055813468116666938 0 1.3463558607345463
v 0.037378424976255611 3 -1.1681506541390656
v 0.037378424976255653 0 -1.1681506541390656
v 0.026619087186746004 3 -1.1512913347479623
v 0.026619087186746031 0 -1.1512913347479623
v -0.16399960438039868 3 1.1398615894184139
v -0.16399960438039871 0 1.1398615894184139
v -0.17669642244598244 3 1.1553144471155994
v -0.17669642244598249 0 1.1553144471155994
v -0.21629365195616373 3 -1.3300399629638717
v -0.21629365195616376 0 -1.3300399629638717
v -0.22705298974567337 3 -1.3131806435727684
v -0.22705298974567339 0 -1.3131806435727684
v -0.24086036845122738 3 1.1436605179548567
v -0.24086036845122738 0 1.1436605179548567
v -0.2473121779466759 3 1.12472974527558
v -0.2473121779466759 0 1.12472974527558
v -0.28125508428133988 3 -1.3026480876938848
v -0.28125508428133988 0 -1.3026480876938848
v -0.29754523428658658 3 -1.3142511481869863
v -0.29754523428658658 0 -1.3142511481869863
v -0.45583938307638666 3 -1.0575399614695127
v -0.45583938307638666 0 -1.0575399614695127
v -0.47212953308163325 3 -1.0691430219626143
v -0.47212953308163325 0 -1.0691430219626143
v -0.52570036181547342 3 1.240737029569341
v -0.52570036181547342 0 1.240737029569341
v -0.53102726611979245 3 -1.0411451099902314
v -0.53102726611979245 0 -1.0411451099902314
v -0.53215217131092185 3 1.2218062568900643
v -0.53215217131092185 0 1.2218062568900643
v -0.53231413287166107 3 -1.0211865535804372
v -0.53231413287166107 0 -1.0211865535804372
v -0.58230731058679608 3 1.1987137518372815
v -0.58230731058679608 0 1.1987137518372815
v -0.6008853609022875 3 1.2061202386208429
v -0.6008853609022875 0 1.2061202386208429
v -0.69374827932186822 3 0.91918096053298848
v -0.69374827932186822 0 0.91918096053298837
v -0.71232632963735965 3 0.92658744731654985
v -0.71232632963735965 0 0.92658744731654985
v -0.75941342247243671 3 0.86572025911208761
v -0.75941342247243671 0 0.86572025911208761
v -0.76289894454029439 3 0.88541419563870627
v -0.76289894454029439 0 0.88541419563870627
v -0.83133170543879953 3 -1.0605078229271521
v -0.83133170543879964 0 -1.0605078229271521
v -0.83261857219066815 3 -1.0405492665173579
v -0.83261857219066826 0 -1.0405492665173579
v -0.87500745027668902 3 -1.0051658692807499
v -0.87500745027668902 0 -1.0051658692807499
v -0.89487470035819738 3 -1.0074663853530288
v -0.89487470035819738 0 -1.0074663853530288
v -0.90962193716868545 3 -0.70623526157356897
v -0.90962193716868545 0 -0.70623526157356897
v -0.92948918725019392 3 -0.70853577764584763
v -0.92948918725019392 0 -0.70853577764584763
v -0.95905648326249293 3 -0.63748801963690227
v -0.95905648326249293 0 -0.63748801963690227
v -0.96756165831404239 3 -0.65558945597058871
v -0.96756165831404239 0 -0.65558945597058871
v -1.0512167484397359 3 0.47023787710922332
v -1.0512167484397359 0 0.47023787710922332
v -1.0557362849670433 3 0.81327569704905411
v -1.0557362849670433 0 0.81327569704905411
v -1.0592218070349009 3 0.832969633575673
v -1.0592218070349009 0 0.832969633575673
v -1.071062498362888 3 0.46775872201369023
v -1.071062498362888 0 0.46775872201369023
v -1.0829276756810529 3 0.39172434505967629
v -1.0829276756810529 0 0.39172434505967629
v -1.0885191096758213 3 0.76884498481631314
v -1.0885191096758213 0 0.76884498481631314
v -1.0954849610979931 3 0.40729080204119594
v -1.0954849610979931 0 0.40729080204119594
v -1.1083648595989735 3 0.76636582972077993
v -1.1083648595989735 0 0.76636582972077993
v -1.1375158523583169 3 -0.1795494330314954
v -1.1375158523583169 0 -0.1795494330314954
v -1.1476339930941106 3 -0.0954805276654207
v -1.1476339930941106 0 -0.095480527665420672
v -1.1560265197449573 3 -0.17197611190393347
v -1.1560265197449573 0 -0.17197611190393347
v -1.1638190990406676 3 -0.10722966999576637
v -1.1638190990406676 0 -0.10722966999576646
v -1.2314179495651778 3 -0.50951574685708401
v -1.2314179495651778 0 -0.50951574685708401
v -1.2399231246167275 3 -0.52761718319077044
v -1.2399231246167273 0 -0.52761718319077044
v -1.2514670775019963 3 -0.45806835378058081
v -1.2514670775019963 0 -0.45806835378058081
v -1.2699777448886367 3 -0.45049503265301882
v -1.2699777448886367 0 -0.45049503265301882
v -1.3171468266074542 3 0.20278239559821754
v -1.3171468266074542 0 0.20278239559821754
v -1.3244162977633127 3 0.14804706354926334
v -1.3244162977633127 0 0.14804706354926339
v -1.3297041120243946 3 0.21834885257973718
v -1.3297041120243946 0 0.21834885257973718
v -1.3406014037098697 3 0.13629792121891765
v -1.3406014037098697 0 0.13629792121891762
vn 0.96180784702301025 0 -0.27372550964355469
vn 0.96180784702301025 0 -0.27372550964355469
vn 0.96180784702301025 0 0.27372550964355469
vn 0.96180784702301025 0 0.27372550964355469
vn -0.27372550964355469 0 -0.96180784702301025
vn -0.27372550964355469 0 -0.96180784702301025
vn -0.27372550964355469 0 0.96180784702301025
vn -0.27372550964355469 0 0.96180784702301025
vn 0.97448724508285522 0 -0.22444280982017517
vn 0.97448724508285522 0 -0.22444280982017517
vn 0.22444280982017517 0 0.97448724508285522
vn 0.22444280982017517 0 0.97448724508285522
vn 0.27372550964355469 0 0.96180784702301025
vn 0.27372550964355469 0 0.96180784702301025
vn 0.27372550964355469 0 -0.96180784702301025
vn 0.27372550964355469 0 -0.96180784702301025
vn -0.96180784702301025 0 0.27372550964355469
vn -0.96180784702301025 0 0.27372550964355469
vn -0.96180784702301025 0 -0.27372550964355469
vn -0.96180784702301025 0 -0.27372550964355469
vn -0.22444280982017517 0 -0.97448724508285522
vn -0.22444280982017517 0 -0.97448724508285522
vn -0.97448724508285522 0 0.22444280982017517
vn -0.97448724508285522 0 0.22444280982017517
vn 0.71028035879135132 0 -0.7039189338684082
vn 0.71028035879135132 0 -0.7039189338684082
vn 0.7039189338684082 0 0.71028035879135132
vn 0.7039189338684082 0 0.71028035879135132
vn -0.7039189338684082 0 -0.71028035879135132
vn -0.7039189338684082 0 -0.71028035879135132
vn -0.71028035879135132 0 0.7039189338684082
vn -0.71028035879135132 0 0.7039189338684082
vn 0.74516987800598145 0 -0.66687470674514771
vn 0.74516987800598145 0 -0.66687470674514771
vn 0.66687470674514771 0 0.74516987800598145
vn 0.66687470674514771 0 0.74516987800598145
vn -0.66687470674514771 0 -0.74516987800598145
vn -0.66687470674514771 0 -0.74516987800598145
vn -0.74516987800598145 0 0.66687470674514771
vn -0.74516987800598145 0 0.66687470674514771
vn 0.95930641889572144 0 0.28236714005470276
vn 0.95930641889572144 0 0.28236714005470276
vn -0.28236714005470276 0 0.95930641889572144
vn -0.28236714005470276 0 0.95930641889572144
vn 0.28236714005470276 0 -0.95930641889572144
vn 0.28236714005470276 0 -0.95930641889572144
vn -0.95930641889572144 0 -0.28236714005470276
vn -0.95930641889572144 0 -0.28236714005470276
vn 0.94369995594024658 0 0.33080261945724487
vn 0.94369995594024658 0 0.33080261945724487
vn 0.33080261945724487 0 -0.94369995594024658
vn 0.33080261945724487 0 -0.94369995594024658
vn -0.33080261945724487 0 0.94369995594024658
vn -0.33080261945724487 0 0.94369995594024658
vn -0.94369995594024658 0 -0.33080261945724487
vn -0.94369995594024658 0 -0.33080261945724487
vn 0.99524134397506714 0 -0.097440727055072784
vn 0.99524134397506714 0 -0.097440727055072784
vn 0.097440727055072784 0 0.99524134397506714
vn 0.097440727055072784 0 0.99524134397506714
vn 0.97646701335906982 0 -0.21566690504550934
vn 0.97646701335906982 0 -0.21566690504550934
vn 0.21566690504550934 0 0.97646701335906982
vn 0.21566690504550934 0 0.97646701335906982
vn -0.097440727055072784 0 -0.99524134397506714
vn -0.097440727055072784 0 -0.99524134397506714
vn -0.99524134397506714 0 0.097440727055072784
vn -0.99524134397506714 0 0.097440727055072784
vn -0.21566690504550934 0 -0.97646701335906982
vn -0.21566690504550934 0 -0.97646701335906982
vn -0.97646701335906982 0 0.21566690504550934
vn -0.97646701335906982 0 0.21566690504550934
vn 0.89740979671478271 0 0.44119799137115479
vn 0.89740979671478271 0 0.44119799137115479
vn 0.44119799137115479 0 -0.89740979671478271
vn 0.44119799137115479 0 -0.89740979671478271
vn 0.98617392778396606 0 -0.16571362316608429
vn 0.98617392778396606 0 -0.16571362316608429
vn -0.16571362316608429 0 -0.98617392778396606
vn -0.16571362316608429 0 -0.98617392778396606
vn 0.16571362316608429 0 0.98617392778396606
vn 0.16571362316608429 0 0.98617392778396606
vn -0.98617392778396606 0 0.16571362316608429
vn -0.98617392778396606 0 0.16571362316608429
vn -0.44119799137115479 0 0.89740979671478271
vn -0.44119799137115479 0 0.89740979671478271
vn 0.75113916397094727 0 -0.66014391183853149
vn 0.75113916397094727 0 -0.66014391183853149
vn -0.89740979671478271 0 -0.44119799137115479
vn -0.89740979671478271 0 -0.44119799137115479
vn 0.66014391183853149 0 0.75113916397094727
vn 0.66014391183853149 0 0.75113916397094727
vn 0.91869211196899414 0 0.39497438073158264
vn 0.91869211196899414 0 0.39497438073158264
vn -0.39497438073158264 0 0.91869211196899414
vn -0.39497438073158264 0 0.91869211196899414
vn 0.39497438073158264 0 -0.91869211196899414
vn 0.39497438073158264 0 -0.91869211196899414
vn -0.91869211196899414 0 -0.39497438073158264
vn -0.91869211196899414 0 -0.39497438073158264
vn 0.81951761245727539 0 -0.57305401563644409
vn 0.81951761245727539 0 -0.57305401563644409
vn 0.57305401563644409 0 0.81951761245727539
vn 0.57305401563644409 0 0.81951761245727539
vn -0.66014391183853149 0 -0.75113916397094727
vn -0.66014391183853149 0 -0.75113916397094727
vn -0.75113916397094727 0 0.66014391183853149
vn -0.75113916397094727 0 0.66014391183853149
vn 0.78374892473220825 0 -0.62107783555984497
vn 0.78374892473220825 0 -0.62107783555984497
vn -0.62107783555984497 0 -0.78374892473220825
vn -0.62107783555984497 0 -0.78374892473220825
vn 0.62107783555984497 0 0.78374892473220825
vn 0.62107783555984497 0 0.78374892473220825
vn -0.78374892473220825 0 0.62107783555984497
vn -0.78374892473220825 0 0.62107783555984497
vn 0.94068574905395508 0 0.33927905559539795
vn 0.94068574905395508 0 0.33927905559539795
vn 0.33927905559539795 0 -0.94068574905395508
vn 0.33927905559539795 0 -0.94068574905395508
vn 0.78930455446243286 0 -0.61400187015533447
vn 0.78930455446243286 0 -0.61400187015533447
vn -0.57305401563644409 0 -0.81951761245727539
vn -0.57305401563644409 0 -0.81951761245727539
vn -0.81951761245727539 0 0.57305401563644409
vn -0.81951761245727539 0 0.57305401563644409
vn -0.61400187015533447 0 -0.78930455446243286
vn -0.61400187015533447 0 -0.78930455446243286
vn 0.9943244457244873 0 -0.1063903272151947
vn 0.9943244457244873 0 -0.1063903272151947
vn 0.61400187015533447 0 0.78930455446243286
vn 0.61400187015533447 0 0.78930455446243286
vn 0.1063903272151947 0 0.9943244457244873
vn 0.1063903272151947 0 0.9943244457244873
vn -0.78930455446243286 0 0.61400187015533447
vn -0.78930455446243286 0 0.61400187015533447
vn 0.92220824956893921 0 0.3866935670375824
vn 0.92220824956893921 0 0.3866935670375824
vn 0.98762482404708862 0 -0.15683500468730927
vn 0.98762482404708862 0 -0.15683500468730927
vn -0.3866935670375824 0 0.92220824956893921
vn -0.3866935670375824 0 0.92220824956893921
vn -0.15683500468730927 0 -0.98762482404708862
vn -0.15683500468730927 0 -0.98762482404708862
vn -0.33927905559539795 0 0.94068574905395508
vn -0.33927905559539795 0 0.94068574905395508
vn -0.94068574905395508 0 -0.33927905559539795
vn -0.94068574905395508 0 -0.33927905559539795
vn 0.3866935670375824 0 -0.92220824956893921
vn 0.3866935670375824 0 -0.92220824956893921
vn -0.92220824956893921 0 -0.3866935670375824
vn -0.92220824956893921 0 -0.3866935670375824
vn -0.1063903272151947 0 -0.9943244457244873
vn -0.1063903272151947 0 -0.9943244457244873
vn 0.15683500468730927 0 0.98762482404708862
vn 0.15683500468730927 0 0.98762482404708862
vn -0.9943244457244873 0 0.1063903272151947
vn -0.9943244457244873 0 0.1063903272151947
vn -0.98762482404708862 0 0.15683500468730927
vn -0.98762482404708862 0 0.15683500468730927
f 6//6 18//18 17//17 5//5
f 18//18 14//14 13//13 17//17
f 14//14 2//2 1//1 13//13
f 2//2 6//6 5//5 1//1
f 30//30 32//32 31//31 29//29
f 32//32 28//28 27//27 31//31
f 28//28 26//26 25//25 27//27
f 26//26 30//30 29//29 25//25
f 48//48 44//44 43//43 47//47
f 44//44 42//42 41//41 43//43
f 42//42 46//46 45//45 41//41
f 46//46 48//48 47//47 45//45
f 72//72 64//64 63//63 71//71
f 64//64 62//62 61//61 63//63
f 62//62 70//70 69//69 61//61
f 70//70 72//72 71//71 69//69
f 108//108 92//92 91//91 107//107
f 92//92 88//88 87//87 91//91
f 88//88 106//106 105//105 87//87
f 106//106 108//108 107//107 105//105
f 146//146 118//118 117//117 145//145
f 118//118 120//120 119//119 117//117
f 120//120 148//148 147//147 119//119
f 148//148 146//146 145//145 147//147
f 156//156 140//140 139//139 155//155
f 140//140 144//144 143//143 139//139
f 144//144 160//160 159//159 143//143
f 160//160 156//156 155//155 159//159
f 132//132 122//122 121//121 131//131
f 122//122 128//128 127//127 121//121
f 128//128 136//136 135//135 127//127
f 136//136 132//132 131//131 135//135
f 94//94 98//98 97//97 93//93
f 98//98 100//100 99//99 97//97
f 100//100 96//96 95//95 99//99
f 96//96 94//94 93//93 95//95
f 58//58 66//66 65//65 57//57
f 66//66 68//68 67//67 65//65
f 68//68 60//60 59//59 67//67
f 60//60 58//58 57//57 59//59
f 8//8 4//4 3//3 7//7
f 4//4 16//16 15//15 3//3
f 16//16 20//20 19//19 15//15
f 20//20 8//8 7//7 19//19
f 12//12 10//10 9//9 11//11
f 10//10 22//22 21//21 9//9
f 22//22 24//24 23//23 21//21
f 24//24 12//12 11//11 23//23
f 36//36 34//34 33//33 35//35
f 34//34 38//38 37//37 33//33
f 38//38 40//40 39//39 37//37
f 40//40 36//36 35//35 39//39
f 50//50 52//52 51//51 49//49
f 52//52 56//56 55//55 51//51
f 56//56 54//54 53//53 55//55
f 54//54 50//50 49//49 53//53
f 78//78 80//80 79//79 77//77
f 80//80 84//84 83//83 79//79
f 84//84 82//82 81//81 83//83
f 82//82 78//78 77//77 81//81
f 110//110 112//112 111//111 109//109
f 112//112 116//116 115//115 111//111
f 116//116 114//114 113//113 115//115
f 114//114 110//110 109//109 113//113
f 150//150 152//152 151//151 149//149
f 152//152 142//142 141//141 151//151
f 142//142 138//138 137//137 141//141
f 138//138 150//150 149//149 137//137
f 154//154 158//158 157//157 153//153
f 158//158 134//134 133//133 157//157
f 134//134 130//130 129//129 133//133
f 130//130 154//154 153//153 129//129
f 124//124 126//126 125//125 123//123
f 126//126 104//104 103//103 125//125
f 104//104 102//102 101//101 103//103
f 102//102 124//124 123//123 101//101
f 90//90 86//86 85//85 89//89
f 86//86 74//74 73//73 85//85
f 74//74 76//76 75//75 73//73
f 76//76 90//90 89//89 75//75
