# Rhino

mtllib Pannelli158.mtl
usemtl diffuse_Black
v 1.232053462370442 3 -0.32583456250375481
v 1.232053462370442 0 -0.32583456250375481
v 1.232053462370444 3 0.32583456250374709
v 1.232053462370444 0 0.32583456250374709
v 1.2125850209105702 3 -0.33041493226214202
v 1.2125850209105702 0 -0.33041493226214197
v 1.2125850209105722 3 0.33041493226213442
v 1.2125850209105722 0 0.33041493226213442
v 1.2077072503603166 3 -0.40689936555385631
v 1.2077072503603166 0 -0.40689936555385631
v 1.1939838979155353 3 -0.39235049626183516
v 1.1939838979155353 0 -0.39235049626183516
v 1.1641406774448448 3 -0.037177500422723171
v 1.1641406774448448 0 -0.037177500422723234
v 1.1641406774448451 3 0.03717750042271601
v 1.1641406774448451 0 0.03717750042271601
v 1.144672235984973 3 -0.041757870181110372
v 1.144672235984973 0 -0.041757870181110428
v 1.1446722359849733 3 0.041757870181103364
v 1.1446722359849733 0 0.041757870181103364
v 0.99199230085642176 3 -0.61037444119245876
v 0.99199230085642176 0 -0.61037444119245876
v 0.97826894841164047 3 -0.5958255719004375
v 0.97826894841164047 0 -0.5958255719004375
v 0.95102533841395176 3 -0.67242582424684771
v 0.95102533841395176 0 -0.67242582424684771
v 0.93225474412313691 3 -0.66552185510079587
v 0.93225474412313691 0 -0.66552185510079587
v 0.91227936500332352 3 0.88987092122966926
v 0.91227936500332352 0 0.88987092122966926
v 0.90621215971740665 3 0.87081340250296857
v 0.90621215971740676 0 0.87081340250296857
v 0.84866072671634318 3 -0.95073596081682721
v 0.84866072671634318 0 -0.95073596081682721
v 0.82989013242552834 3 -0.94383199167077536
v 0.82989013242552834 0 -0.94383199167077536
v 0.7836792888253401 3 -1.0049729690530071
v 0.7836792888253401 0 -1.0049729690530071
v 0.78024266701686151 3 -0.98527044052123003
v 0.78024266701686151 0 -0.98527044052123003
v 0.62971502221592346 3 0.97982890047958027
v 0.62971502221592335 0 0.97982890047958027
v 0.62364781693000659 3 0.96077138175287957
v 0.62364781693000659 0 0.96077138175287957
v 0.56591282808063825 3 1.0180119618320786
v 0.56591282808063825 0 1.0180119618320786
v 0.5519850179339002 3 1.0036587007212221
v 0.5519850179339002 0 1.0036587007212221
v 0.49155143599885376 3 -1.0559274923908784
v 0.49155143599885376 0 -1.0559274923908784
v 0.48811481419037522 3 -1.036224963859101
v 0.48811481419037522 0 -1.036224963859101
v 0.42317522323068735 3 -1.0851398130485683
v 0.42317522323068735 0 -1.0851398130485683
v 0.41131446495269597 3 -1.069036322337823
v 0.41131446495269597 0 -1.069036322337823
v 0.35309814581233151 3 1.2245185158603771
v 0.35309814581233151 0 1.2245185158603771
v 0.33917033566559335 3 1.2101652547495205
v 0.33917033566559335 0 1.2101652547495205
v 0.27647283521875515 3 1.2260094745900567
v 0.27647283521875515 0 1.2260094745900567
v 0.27103607682912534 3 1.2452563355864059
v 0.27103607682912534 0 1.2452563355864059
v 0.18441002328419193 3 -1.260998350345206
v 0.18441002328419193 0 -1.260998350345206
v 0.17254926500620052 3 -1.2448948596344607
v 0.17254926500620052 0 -1.2448948596344607
v 0.10828591732073556 3 -1.252122446292091
v 0.10828591732073556 0 -1.252122446292091
v 0.10029848401592556 3 -1.2704582285006911
v 0.10029848401592556 0 -1.2704582285006911
v -0.0088988706232170246 3 1.1453990822671947
v -0.0088988706232170228 0 1.1453990822671947
v -0.014335629012846796 3 1.1646459432635439
v -0.014335629012846796 0 1.1646459432635439
v -0.088617901429822801 3 1.1613580632025584
v -0.088617901429822801 0 1.1613580632025584
v -0.092332922215618063 3 1.1417061263880581
v -0.092332922215618063 0 1.1417061263880581
v -0.16357729444182528 3 -1.1336933960732032
v -0.16357729444182528 0 -1.1336933960732032
v -0.17156472774663531 3 -1.1520291782818031
v -0.17156472774663531 0 -1.1520291782818031
v -0.24472159079118114 3 -1.1387348358683236
v -0.24472159079118111 0 -1.1387348358683236
v -0.24574728314833577 3 -1.1187611543051146
v -0.24574728314833574 0 -1.1187611543051146
v -0.37999563481275372 3 1.2164403864490276
v -0.37999563481275372 0 1.2164403864490276
v -0.383710655598549 3 1.1967884496345271
v -0.383710655598549 0 1.1967884496345271
v -0.44476312179854655 3 1.1754668119034644
v -0.44476312179854649 0 1.1754668119034646
v -0.45990458903250231 3 1.1885334093948947
v -0.45990458903250225 0 1.1885334093948949
v -0.54086980845215238 3 -1.1539426963961164
v -0.54086980845215238 0 -1.1539426963961164
v -0.54189550080930693 3 -1.1339690148329074
v -0.54189550080930704 0 -1.1339690148329074
v -0.59950725289099327 3 -1.1045938231447696
v -0.59950725289099327 0 -1.1045938231447696
v -0.61627535954871315 3 -1.1154947680173635
v -0.61627535954871315 0 -1.1154947680173635
v -0.63850054300126324 3 0.95096545896472628
v -0.63850054300126324 0 0.95096545896472628
v -0.65364201023521895 3 0.96403205645615653
v -0.65364201023521895 0 0.96403205645615653
v -0.70609396715823092 3 0.90191438457297668
v -0.70609396715823092 0 0.90191438457297668
v -0.7138211942853121 3 0.92036133448147117
v -0.7138211942853121 0 0.92036133448147117
v -0.7611347117359184 3 -0.85597441442345734
v -0.7611347117359184 0 -0.85597441442345734
v -0.7779028183936384 3 -0.86687535929605131
v -0.7779028183936384 0 -0.86687535929605131
v -0.82148079210829938 3 -0.79824028697756244
v -0.82148079210829938 0 -0.79824028697756244
v -0.83162961094372234 3 -0.81547401774735728
v -0.83162961094372234 0 -0.81547401774735728
v -0.97960545373087105 3 0.78734339104308104
v -0.97960545373087105 0 0.78734339104308104
v -0.98733268085795234 3 0.80579034095157542
v -0.98733268085795234 0 0.80579034095157542
v -1.0188080251962386 3 0.73591213347397955
v -1.0188080251962386 0 0.73591213347397955
v -1.0386432450906975 3 0.73847417401590487
v -1.0386432450906975 0 0.73847417401590487
v -1.0567952003529661 3 0.44181687616911425
v -1.0567952003529661 0 0.44181687616911425
v -1.0766304202474251 3 0.44437891671103957
v -1.0766304202474251 0 0.44437891671103957
v -1.0770039731989942 3 -0.64776454218493895
v -1.0770039731989942 0 -0.64776454218493895
v -1.0861784551053091 3 0.36364077222163144
v -1.0861784551053091 0 0.36364077222163144
v -1.0871527920344173 3 -0.66499827295473379
v -1.0871527920344173 0 -0.66499827295473379
v -1.1027906616878602 3 0.37477785408622449
v -1.1027906616878602 0 0.37477785408622449
v -1.1068002461917301 3 -0.29497705433952898
v -1.1068002461917301 0 -0.29497705433952898
v -1.1088979479856595 3 -0.59150807378401582
v -1.1088979479856595 0 -0.59150807378401582
v -1.1253513308882404 3 -0.21354772212544532
v -1.1253513308882404 0 -0.21354772212544532
v -1.1267997457760173 3 -0.29483557508978897
v -1.1267997457760173 0 -0.29483557508978897
v -1.1288974475699467 3 -0.59136659453427587
v -1.1288974475699467 0 -0.59136659453427587
v -1.1433159846587766 3 -0.22233812683198548
v -1.1433159846587766 0 -0.22233812683198545
v -1.2513070987009296 3 0.11733288174738493
v -1.2513070987009296 0 0.11733288174738493
v -1.2556859754114418 3 0.052812797251232446
v -1.2556859754114418 0 0.052812797251232446
v -1.2679193052834807 3 0.12846996361197804
v -1.2679193052834807 0 0.12846996361197804
v -1.273650629181978 3 0.044022392544692299
v -1.273650629181978 0 0.044022392544692299
vn 0.8502538800239563 0 -0.52637279033660889
vn 0.8502538800239563 0 -0.52637279033660889
vn 0.8502538800239563 0 0.52637279033660889
vn 0.8502538800239563 0 0.52637279033660889
vn -0.52637279033660889 0 -0.8502538800239563
vn -0.52637279033660889 0 -0.8502538800239563
vn -0.52637279033660889 0 0.8502538800239563
vn -0.52637279033660889 0 0.8502538800239563
vn 0.99957400560379028 0 -0.029186440631747246
vn 0.99957400560379028 0 -0.029186440631747246
vn 0.029186440631747246 0 0.99957400560379028
vn 0.029186440631747246 0 0.99957400560379028
vn 0.52637279033660889 0 0.8502538800239563
vn 0.52637279033660889 0 0.8502538800239563
vn 0.52637279033660889 0 -0.8502538800239563
vn 0.52637279033660889 0 -0.8502538800239563
vn -0.8502538800239563 0 0.52637279033660889
vn -0.8502538800239563 0 0.52637279033660889
vn -0.8502538800239563 0 -0.52637279033660889
vn -0.8502538800239563 0 -0.52637279033660889
vn -0.029186440631747246 0 -0.99957400560379028
vn -0.029186440631747246 0 -0.99957400560379028
vn -0.99957400560379028 0 0.029186440631747246
vn -0.99957400560379028 0 0.029186440631747246
vn 0.90773290395736694 0 0.41954857110977173
vn 0.90773290395736694 0 0.41954857110977173
vn -0.41954857110977173 0 0.90773290395736694
vn -0.41954857110977173 0 0.90773290395736694
vn 0.88829314708709717 0 0.45927691459655762
vn 0.88829314708709717 0 0.45927691459655762
vn 0.45927691459655762 0 -0.88829314708709717
vn 0.45927691459655762 0 -0.88829314708709717
vn 0.41954857110977173 0 -0.90773290395736694
vn 0.41954857110977173 0 -0.90773290395736694
vn -0.90773290395736694 0 -0.41954857110977173
vn -0.90773290395736694 0 -0.41954857110977173
vn 0.8180924654006958 0 -0.57508665323257446
vn 0.8180924654006958 0 -0.57508665323257446
vn 0.57508665323257446 0 0.8180924654006958
vn 0.57508665323257446 0 0.8180924654006958
vn -0.45927691459655762 0 0.88829314708709717
vn -0.45927691459655762 0 0.88829314708709717
vn -0.88829314708709717 0 -0.45927691459655762
vn -0.88829314708709717 0 -0.45927691459655762
vn 0.99988687038421631 0 0.01504195760935545
vn 0.99988687038421631 0 0.01504195760935545
vn 0.01504195760935545 0 -0.99988687038421631
vn 0.01504195760935545 0 -0.99988687038421631
vn -0.57508665323257446 0 -0.8180924654006958
vn -0.57508665323257446 0 -0.8180924654006958
vn -0.8180924654006958 0 0.57508665323257446
vn -0.8180924654006958 0 0.57508665323257446
vn 0.9886854887008667 0 -0.15000325441360474
vn 0.9886854887008667 0 -0.15000325441360474
vn 0.15000325441360474 0 0.9886854887008667
vn 0.15000325441360474 0 0.9886854887008667
vn -0.01504195760935545 0 0.99988687038421631
vn -0.01504195760935545 0 0.99988687038421631
vn -0.99988687038421631 0 -0.01504195760935545
vn -0.99988687038421631 0 -0.01504195760935545
vn 0.87269771099090576 0 -0.4882608950138092
vn 0.87269771099090576 0 -0.4882608950138092
vn 0.4882608950138092 0 0.87269771099090576
vn 0.4882608950138092 0 0.87269771099090576
vn -0.15000325441360474 0 -0.9886854887008667
vn -0.15000325441360474 0 -0.9886854887008667
vn -0.9886854887008667 0 0.15000325441360474
vn -0.9886854887008667 0 0.15000325441360474
vn 0.93066620826721191 0 0.36586937308311462
vn 0.93066620826721191 0 0.36586937308311462
vn 0.36586937308311462 0 -0.93066620826721191
vn 0.36586937308311462 0 -0.93066620826721191
vn -0.4882608950138092 0 -0.87269771099090576
vn -0.4882608950138092 0 -0.87269771099090576
vn -0.87269771099090576 0 0.4882608950138092
vn -0.87269771099090576 0 0.4882608950138092
vn 0.82614672183990479 0 0.56345510482788086
vn 0.82614672183990479 0 0.56345510482788086
vn 0.56345510482788086 0 -0.82614672183990479
vn 0.56345510482788086 0 -0.82614672183990479
vn -0.36586937308311462 0 0.93066620826721191
vn -0.36586937308311462 0 0.93066620826721191
vn -0.93066620826721191 0 -0.36586937308311462
vn -0.93066620826721191 0 -0.36586937308311462
vn 0.74243998527526855 0 -0.66991257667541504
vn 0.74243998527526855 0 -0.66991257667541504
vn 0.66991257667541504 0 0.74243998527526855
vn 0.66991257667541504 0 0.74243998527526855
vn -0.56345510482788086 0 0.82614672183990479
vn -0.56345510482788086 0 0.82614672183990479
vn -0.82614672183990479 0 -0.56345510482788086
vn -0.82614672183990479 0 -0.56345510482788086
vn 0.99730569124221802 0 0.073357723653316498
vn 0.99730569124221802 0 0.073357723653316498
vn -0.073357723653316498 0 0.99730569124221802
vn -0.073357723653316498 0 0.99730569124221802
vn -0.66991257667541504 0 -0.74243998527526855
vn -0.66991257667541504 0 -0.74243998527526855
vn -0.74243998527526855 0 0.66991257667541504
vn -0.74243998527526855 0 0.66991257667541504
vn 0.9782487154006958 0 -0.20743550360202789
vn 0.9782487154006958 0 -0.20743550360202789
vn -0.20743550360202789 0 -0.9782487154006958
vn -0.20743550360202789 0 -0.9782487154006958
vn 0.073357723653316498 0 -0.99730569124221802
vn 0.073357723653316498 0 -0.99730569124221802
vn -0.99730569124221802 0 -0.073357723653316498
vn -0.99730569124221802 0 -0.073357723653316498
vn 0.92539691925048828 0 -0.37899941205978394
vn 0.92539691925048828 0 -0.37899941205978394
vn 0.37899941205978394 0 0.92539691925048828
vn 0.37899941205978394 0 0.92539691925048828
vn 0.20743550360202789 0 0.9782487154006958
vn 0.20743550360202789 0 0.9782487154006958
vn -0.9782487154006958 0 0.20743550360202789
vn -0.9782487154006958 0 0.20743550360202789
vn 0.96811932325363159 0 0.25048947334289551
vn 0.96811932325363159 0 0.25048947334289551
vn 0.25048947334289551 0 -0.96811932325363159
vn 0.25048947334289551 0 -0.96811932325363159
vn -0.37899941205978394 0 -0.92539691925048828
vn -0.37899941205978394 0 -0.92539691925048828
vn -0.92539691925048828 0 0.37899941205978394
vn -0.92539691925048828 0 0.37899941205978394
vn 0.79186278581619263 0 0.61069905757904053
vn 0.79186278581619263 0 0.61069905757904053
vn -0.61069905757904053 0 0.79186278581619263
vn -0.61069905757904053 0 0.79186278581619263
vn 0.61069905757904053 0 -0.79186278581619263
vn 0.61069905757904053 0 -0.79186278581619263
vn -0.79186278581619263 0 -0.61069905757904053
vn -0.79186278581619263 0 -0.61069905757904053
vn -0.25048947334289551 0 0.96811932325363159
vn -0.25048947334289551 0 0.96811932325363159
vn 0.98108547925949097 0 0.19357492029666901
vn 0.98108547925949097 0 0.19357492029666901
vn -0.96811932325363159 0 -0.25048947334289551
vn -0.96811932325363159 0 -0.25048947334289551
vn -0.19357492029666901 0 0.98108547925949097
vn -0.19357492029666901 0 0.98108547925949097
vn 0.71209114789962769 0 0.70208704471588135
vn 0.71209114789962769 0 0.70208704471588135
vn 0.70208704471588135 0 -0.71209114789962769
vn 0.70208704471588135 0 -0.71209114789962769
vn 0.94593417644500732 0 -0.32435867190361023
vn 0.94593417644500732 0 -0.32435867190361023
vn -0.70208704471588135 0 0.71209114789962769
vn -0.70208704471588135 0 0.71209114789962769
vn -0.71209114789962769 0 -0.70208704471588135
vn -0.71209114789962769 0 -0.70208704471588135
vn -0.32435867190361023 0 -0.94593417644500732
vn -0.32435867190361023 0 -0.94593417644500732
vn 0.19357492029666901 0 -0.98108547925949097
vn 0.19357492029666901 0 -0.98108547925949097
vn 0.32435867190361023 0 0.94593417644500732
vn 0.32435867190361023 0 0.94593417644500732
vn -0.98108547925949097 0 -0.19357492029666901
vn -0.98108547925949097 0 -0.19357492029666901
vn -0.94593417644500732 0 0.32435867190361023
vn -0.94593417644500732 0 0.32435867190361023
f 6//6 18//18 17//17 5//5
f 18//18 14//14 13//13 17//17
f 14//14 2//2 1//1 13//13
f 2//2 6//6 5//5 1//1
f 36//36 28//28 27//27 35//35
f 28//28 26//26 25//25 27//27
f 26//26 34//34 33//33 25//25
f 34//34 36//36 35//35 33//33
f 68//68 56//56 55//55 67//67
f 56//56 54//54 53//53 55//55
f 54//54 66//66 65//65 53//53
f 66//66 68//68 67//67 65//65
f 100//100 88//88 87//87 99//99
f 88//88 86//86 85//85 87//87
f 86//86 98//98 97//97 85//85
f 98//98 100//100 99//99 97//97
f 134//134 118//118 117//117 133//133
f 118//118 120//120 119//119 117//117
f 120//120 138//138 137//137 119//119
f 138//138 134//134 133//133 137//137
f 156//156 146//146 145//145 155//155
f 146//146 152//152 151//151 145//145
f 152//152 160//160 159//159 151//151
f 160//160 156//156 155//155 159//159
f 126//126 130//130 129//129 125//125
f 130//130 132//132 131//131 129//129
f 132//132 128//128 127//127 131//131
f 128//128 126//126 125//125 127//127
f 94//94 106//106 105//105 93//93
f 106//106 108//108 107//107 105//105
f 108//108 96//96 95//95 107//107
f 96//96 94//94 93//93 95//95
f 62//62 74//74 73//73 61//61
f 74//74 76//76 75//75 73//73
f 76//76 64//64 63//63 75//75
f 64//64 62//62 61//61 63//63
f 32//32 44//44 43//43 31//31
f 44//44 42//42 41//41 43//43
f 42//42 30//30 29//29 41//41
f 30//30 32//32 31//31 29//29
f 8//8 4//4 3//3 7//7
f 4//4 16//16 15//15 3//3
f 16//16 20//20 19//19 15//15
f 20//20 8//8 7//7 19//19
f 12//12 10//10 9//9 11//11
f 10//10 22//22 21//21 9//9
f 22//22 24//24 23//23 21//21
f 24//24 12//12 11//11 23//23
f 40//40 38//38 37//37 39//39
f 38//38 50//50 49//49 37//37
f 50//50 52//52 51//51 49//49
f 52//52 40//40 39//39 51//51
f 70//70 72//72 71//71 69//69
f 72//72 84//84 83//83 71//71
f 84//84 82//82 81//81 83//83
f 82//82 70//70 69//69 81//81
f 102//102 104//104 103//103 101//101
f 104//104 116//116 115//115 103//103
f 116//116 114//114 113//113 115//115
f 114//114 102//102 101//101 113//113
f 144//144 150//150 149//149 143//143
f 150//150 148//148 147//147 149//149
f 148//148 142//142 141//141 147//147
f 142//142 144//144 143//143 141//141
f 154//154 158//158 157//157 153//153
f 158//158 140//140 139//139 157//157
f 140//140 136//136 135//135 139//139
f 136//136 154//154 153//153 135//135
f 122//122 124//124 123//123 121//121
f 124//124 112//112 111//111 123//123
f 112//112 110//110 109//109 111//111
f 110//110 122//122 121//121 109//109
f 92//92 90//90 89//89 91//91
f 90//90 78//78 77//77 89//89
f 78//78 80//80 79//79 77//77
f 80//80 92//92 91//91 79//79
f 60//60 58//58 57//57 59//59
f 58//58 46//46 45//45 57//57
f 46//46 48//48 47//47 45//45
f 48//48 60//60 59//59 47//47
