# Rhino

mtllib Pannelli130.mtl
usemtl diffuse_Black
v 1.3120016897179361 3 -0.29690375135689168
v 1.3120016897179361 0 -0.29690375135689162
v 1.3120016897179358 3 0.2969037513568919
v 1.3120016897179358 0 0.2969037513568919
v 1.294437121986084 3 -0.30646858070158822
v 1.294437121986084 0 -0.30646858070158828
v 1.2944371219860837 3 0.3064685807015885
v 1.2944371219860837 0 0.3064685807015885
v 1.291228810843928 3 -0.37713184622766788
v 1.291228810843928 0 -0.37713184622766788
v 1.2805132731896134 3 -0.36024465425330598
v 1.2805132731896134 0 -0.36024465425330598
v 1.1681732001671452 3 -0.032781396901544566
v 1.1681732001671452 0 -0.032781396901544545
v 1.168173200167145 3 0.032781396901544649
v 1.168173200167145 0 0.032781396901544649
v 1.1506086324352931 3 -0.042346226246241146
v 1.1506086324352931 0 -0.04234622624624116
v 1.1506086324352929 3 0.04234622624624125
v 1.1506086324352929 0 0.04234622624624125
v 1.0372923079649248 3 -0.53826379537208802
v 1.0372923079649248 0 -0.53826379537208802
v 1.0265767703106101 3 -0.52137660339772596
v 1.0265767703106101 0 -0.52137660339772596
v 1.0054740386281797 3 -0.59558811540888157
v 1.0054740386281797 0 -0.59558811540888157
v 1.0030481833942644 3 -0.89632282866274271
v 1.0030481833942644 0 -0.89632282866274271
v 0.985474689269208 3 -0.59542679207579363
v 0.985474689269208 0 -0.59542679207579363
v 0.98304883403529264 3 -0.89616150532965477
v 0.98304883403529264 0 -0.89616150532965477
v 0.94595009360152738 3 -0.95638835825608803
v 0.94595009360152738 0 -0.95638835825608803
v 0.94477656692858303 3 -0.93642281706262465
v 0.94477656692858303 0 -0.93642281706262465
v 0.64572376133432974 3 -0.97403494270986535
v 0.64572376133432974 0 -0.97403494270986535
v 0.6445502346613855 3 -0.95406940151640207
v 0.6445502346613855 0 -0.95406940151640207
v 0.59008364752360554 3 -1.0087142977557138
v 0.59008364752360554 0 -1.0087142977557138
v 0.57267566339549381 3 -0.99886736480197602
v 0.57267566339549381 0 -0.99886736480197591
v 0.44201310257140652 3 -1.2704820693530916
v 0.44201310257140652 0 -1.2704820693530916
v 0.42460511844329479 3 -1.2606351363993538
v 0.42460511844329485 0 -1.2606351363993538
v 0.37160284768641266 3 -1.2772633938715265
v 0.37160284768641266 0 -1.2772633938715265
v 0.36293943791345762 3 -1.2952896339427631
v 0.36293943791345762 0 -1.2952896339427631
v 0.1070283373834022 3 1.3259092686642648
v 0.10702833738340216 0 1.3259092686642648
v 0.10053822245465349 3 -1.1469897531092295
v 0.10053822245465349 0 -1.1469897531092295
v 0.094915334424533912 3 1.3418238895934118
v 0.09491533442453387 0 1.3418238895934118
v 0.091874812681698476 3 -1.165015993180466
v 0.091874812681698476 0 -1.165015993180466
v 0.026396078460327842 3 -1.1683349231335518
v 0.026396078460327804 0 -1.1683349231335516
v 0.01595435612389895 3 -1.1512770676221189
v 0.015954356123898884 0 -1.1512770676221189
v -0.13228339600175992 3 1.1437633195089594
v -0.1322833960017599 0 1.1437633195089594
v -0.14439639896062822 3 1.1596779404381063
v -0.1443963989606282 0 1.1596779404381063
v -0.20920394927244956 3 1.1497551709735319
v -0.20920394927244956 0 1.1497551709735319
v -0.21600024297479856 3 1.1309453227043034
v -0.21600024297479856 0 1.1309453227043034
v -0.23010673040006629 3 -1.325349449774325
v -0.23010673040006624 0 -1.325349449774325
v -0.24054845273649519 3 -1.3082915942628921
v -0.24054845273649514 0 -1.3082915942628921
v -0.29496043397556421 3 -1.2971078583224329
v -0.29496043397556421 0 -1.2971078583224329
v -0.31128353087354554 3 -1.3086645233975789
v -0.31128353087354554 0 -1.3086645233975789
v -0.46874060527828404 3 -1.0516537799462617
v -0.46874060527828404 0 -1.0516537799462617
v -0.48506370217626527 3 -1.0632104450214079
v -0.48506370217626527 0 -1.0632104450214079
v -0.4920518671752161 3 1.2519525675527399
v -0.4920518671752161 0 1.2519525675527399
v -0.49884816087756506 3 1.2331427192835112
v -0.49884816087756506 0 1.2331427192835112
v -0.54392523475307286 3 -1.034334851279014
v -0.54392523475307286 0 -1.034334851279014
v -0.5447765284326308 3 -1.0143529770157937
v -0.5447765284326308 0 -1.0143529770157937
v -0.54989742611571757 3 1.2112403867458228
v -0.54989742611571757 0 1.2112403867458228
v -0.56821185848940348 3 1.2192766524724947
v -0.56821185848940348 0 1.2192766524724947
v -0.67074056083791356 3 0.93584214906080931
v -0.67074056083791356 0 0.93584214906080931
v -0.68905499321159946 3 0.94387841478748102
v -0.68905499321159946 0 0.94387841478748102
v -0.73771703635013819 3 0.88400622293662701
v -0.73771703635013819 0 0.88400622293662701
v -0.74090335424536924 3 0.90375077606579457
v -0.74090335424536924 0 0.90375077606579457
v -0.84439717106276668 3 -1.047135945755713
v -0.84439717106276668 0 -1.047135945755713
v -0.84524846474232462 3 -1.0271540714924927
v -0.84524846474232462 0 -1.0271540714924927
v -0.88739558117453543 3 -0.99096898853837501
v -0.88739558117453543 0 -0.99096898853837501
v -0.90727611763370042 3 -0.99315170933953167
v -0.90727611763370042 0 -0.99315170933953167
v -0.92021764465604894 3 -0.69202089157451485
v -0.92021764465604894 0 -0.69202089157451485
v -0.94009818111521393 3 -0.69420361237567152
v -0.94009818111521393 0 -0.69420361237567152
v -0.96859661716598633 3 -0.62250624183739767
v -0.96859661716598633 0 -0.62250624183739767
v -0.97754969545595038 3 -0.64039037975717927
v -0.97754969545595038 0 -0.64039037975717927
v -1.0346203214043683 3 0.83609284428823027
v -1.0346203214043683 0 0.83609284428823027
v -1.0378066392995993 3 0.85583739741739773
v -1.0378066392995993 0 0.85583739741739773
v -1.0406302137083649 3 0.49272932349231591
v -1.0406302137083649 0 0.49272932349231591
v -1.060543374425027 3 0.49086759572693583
v -1.060543374425027 0 0.49086759572693583
v -1.0686254327341853 3 0.79216799875186605
v -1.0686254327341853 0 0.79216799875186605
v -1.074034090075165 3 0.41490264071023336
v -1.074034090075165 0 0.41490264071023336
v -1.0864022484333664 3 0.43061978608801876
v -1.0864022484333664 0 0.43061978608801876
v -1.0885385934508474 3 0.79030627098648598
v -1.0885385934508474 0 0.79030627098648598
v -1.1404297093425135 3 -0.15847241387971187
v -1.1404297093425135 0 -0.15847241387971187
v -1.1489933446371301 3 -0.074214027592457765
v -1.1489933446371301 0 -0.07421402759245771
v -1.158871398030427 3 -0.15073263879654106
v -1.158871398030427 0 -0.15073263879654106
v -1.1655007473821375 3 -0.085505867770839281
v -1.1655007473821375 0 -0.085505867770839281
v -1.2375244203940101 3 -0.487876790451576
v -1.2375244203940101 0 -0.48787679045157606
v -1.2464774986839744 3 -0.50576092837135767
v -1.2464774986839744 0 -0.50576092837135767
v -1.2568144475911409 3 -0.43578423337591821
v -1.2568144475911409 0 -0.43578423337591821
v -1.2752561362790544 3 -0.42804445829274745
v -1.2752561362790544 0 -0.42804445829274745
v -1.3103763391912453 3 0.22891986244232299
v -1.3103763391912453 0 0.22891986244232299
v -1.3187912844201393 3 0.17401149924743767
v -1.3187912844201393 0 0.17401149924743764
v -1.3227444975494467 3 0.24463700782010833
v -1.3227444975494467 0 0.24463700782010833
v -1.3352986871651467 3 0.16271965906905614
v -1.3352986871651467 0 0.16271965906905608
vn 0.95916903018951416 0 -0.28283345699310303
vn 0.95916903018951416 0 -0.28283345699310303
vn 0.95916903018951416 0 0.28283345699310303
vn 0.95916903018951416 0 0.28283345699310303
vn -0.28283345699310303 0 -0.95916903018951416
vn -0.28283345699310303 0 -0.95916903018951416
vn -0.28283345699310303 0 0.95916903018951416
vn -0.28283345699310303 0 0.95916903018951416
vn 0.97590386867523193 0 -0.2182009369134903
vn 0.97590386867523193 0 -0.2182009369134903
vn 0.2182009369134903 0 0.97590386867523193
vn 0.2182009369134903 0 0.97590386867523193
vn 0.28283345699310303 0 0.95916903018951416
vn 0.28283345699310303 0 0.95916903018951416
vn 0.28283345699310303 0 -0.95916903018951416
vn 0.28283345699310303 0 -0.95916903018951416
vn -0.95916903018951416 0 0.28283345699310303
vn -0.95916903018951416 0 0.28283345699310303
vn -0.95916903018951416 0 -0.28283345699310303
vn -0.95916903018951416 0 -0.28283345699310303
vn -0.2182009369134903 0 -0.97590386867523193
vn -0.2182009369134903 0 -0.97590386867523193
vn -0.97590386867523193 0 0.2182009369134903
vn -0.97590386867523193 0 0.2182009369134903
vn 0.7127874493598938 0 0.70138013362884521
vn 0.7127874493598938 0 0.70138013362884521
vn 0.70138013362884521 0 -0.7127874493598938
vn 0.70138013362884521 0 -0.7127874493598938
vn -0.70138013362884521 0 0.7127874493598938
vn -0.70138013362884521 0 0.7127874493598938
vn -0.7127874493598938 0 -0.70138013362884521
vn -0.7127874493598938 0 -0.70138013362884521
vn 0.74737894535064697 0 -0.66439801454544067
vn 0.74737894535064697 0 -0.66439801454544067
vn 0.66439801454544067 0 0.74737894535064697
vn 0.66439801454544067 0 0.74737894535064697
vn -0.66439801454544067 0 -0.74737894535064697
vn -0.66439801454544067 0 -0.74737894535064697
vn -0.74737894535064697 0 0.66439801454544067
vn -0.74737894535064697 0 0.66439801454544067
vn 0.96360683441162109 0 0.26732352375984192
vn 0.96360683441162109 0 0.26732352375984192
vn -0.26732352375984192 0 0.96360683441162109
vn -0.26732352375984192 0 0.96360683441162109
vn 0.26732352375984192 0 -0.96360683441162109
vn 0.26732352375984192 0 -0.96360683441162109
vn -0.96360683441162109 0 -0.26732352375984192
vn -0.96360683441162109 0 -0.26732352375984192
vn 0.94362163543701172 0 0.33102604746818542
vn 0.94362163543701172 0 0.33102604746818542
vn 0.33102604746818542 0 -0.94362163543701172
vn 0.33102604746818542 0 -0.94362163543701172
vn 0.99092614650726318 0 -0.13440752029418945
vn 0.99092614650726318 0 -0.13440752029418945
vn -0.33102604746818542 0 0.94362163543701172
vn -0.33102604746818542 0 0.94362163543701172
vn 0.13440752029418945 0 0.99092614650726318
vn 0.13440752029418945 0 0.99092614650726318
vn -0.94362163543701172 0 -0.33102604746818542
vn -0.94362163543701172 0 -0.33102604746818542
vn 0.97225689888000488 0 -0.23391559720039368
vn 0.97225689888000488 0 -0.23391559720039368
vn 0.23391559720039368 0 0.97225689888000488
vn 0.23391559720039368 0 0.97225689888000488
vn -0.13440752029418945 0 -0.99092614650726318
vn -0.13440752029418945 0 -0.99092614650726318
vn -0.99092614650726318 0 0.13440752029418945
vn -0.99092614650726318 0 0.13440752029418945
vn 0.90531384944915771 0 0.42474329471588135
vn 0.90531384944915771 0 0.42474329471588135
vn 0.42474329471588135 0 -0.90531384944915771
vn 0.42474329471588135 0 -0.90531384944915771
vn -0.23391559720039368 0 -0.97225689888000488
vn -0.23391559720039368 0 -0.97225689888000488
vn -0.97225689888000488 0 0.23391559720039368
vn -0.97225689888000488 0 0.23391559720039368
vn 0.98569846153259277 0 -0.16851881146430969
vn 0.98569846153259277 0 -0.16851881146430969
vn -0.16851881146430969 0 -0.98569846153259277
vn -0.16851881146430969 0 -0.98569846153259277
vn 0.16851881146430969 0 0.98569846153259277
vn 0.16851881146430969 0 0.98569846153259277
vn -0.98569846153259277 0 0.16851881146430969
vn -0.98569846153259277 0 0.16851881146430969
vn -0.42474329471588135 0 0.90531384944915771
vn -0.42474329471588135 0 0.90531384944915771
vn -0.90531384944915771 0 -0.42474329471588135
vn -0.90531384944915771 0 -0.42474329471588135
vn 0.73656374216079712 0 -0.67636817693710327
vn 0.73656374216079712 0 -0.67636817693710327
vn 0.67636817693710327 0 0.73656374216079712
vn 0.67636817693710327 0 0.73656374216079712
vn 0.93163788318634033 0 0.36338803172111511
vn 0.93163788318634033 0 0.36338803172111511
vn -0.36338803172111511 0 0.93163788318634033
vn -0.36338803172111511 0 0.93163788318634033
vn 0.36338803172111511 0 -0.93163788318634033
vn 0.36338803172111511 0 -0.93163788318634033
vn -0.93163788318634033 0 -0.36338803172111511
vn -0.93163788318634033 0 -0.36338803172111511
vn 0.81072872877120972 0 -0.58542203903198242
vn 0.81072872877120972 0 -0.58542203903198242
vn 0.58542203903198242 0 0.81072872877120972
vn 0.58542203903198242 0 0.81072872877120972
vn -0.67636817693710327 0 -0.73656374216079712
vn -0.67636817693710327 0 -0.73656374216079712
vn -0.73656374216079712 0 0.67636817693710327
vn -0.73656374216079712 0 0.67636817693710327
vn 0.78005391359329224 0 -0.62571227550506592
vn 0.78005391359329224 0 -0.62571227550506592
vn -0.62571227550506592 0 -0.78005391359329224
vn -0.62571227550506592 0 -0.78005391359329224
vn 0.62571227550506592 0 0.78005391359329224
vn 0.62571227550506592 0 0.78005391359329224
vn -0.78005391359329224 0 0.62571227550506592
vn -0.78005391359329224 0 0.62571227550506592
vn 0.94883888959884644 0 0.31576064229011536
vn 0.94883888959884644 0 0.31576064229011536
vn 0.31576064229011536 0 -0.94883888959884644
vn 0.31576064229011536 0 -0.94883888959884644
vn -0.58542203903198242 0 -0.81072872877120972
vn -0.58542203903198242 0 -0.81072872877120972
vn -0.81072872877120972 0 0.58542203903198242
vn -0.81072872877120972 0 0.58542203903198242
vn 0.76985853910446167 0 -0.63821452856063843
vn 0.76985853910446167 0 -0.63821452856063843
vn -0.63821452856063843 0 -0.76985853910446167
vn -0.63821452856063843 0 -0.76985853910446167
vn 0.63821452856063843 0 0.76985853910446167
vn 0.63821452856063843 0 0.76985853910446167
vn 0.9929654598236084 0 -0.1184045746922493
vn 0.9929654598236084 0 -0.1184045746922493
vn 0.1184045746922493 0 0.9929654598236084
vn 0.1184045746922493 0 0.9929654598236084
vn -0.76985853910446167 0 0.63821452856063843
vn -0.76985853910446167 0 0.63821452856063843
vn 0.92565453052520752 0 0.3783697783946991
vn 0.92565453052520752 0 0.3783697783946991
vn 0.98285168409347534 0 -0.18439798057079315
vn 0.98285168409347534 0 -0.18439798057079315
vn -0.3783697783946991 0 0.92565453052520752
vn -0.3783697783946991 0 0.92565453052520752
vn -0.18439798057079315 0 -0.98285168409347534
vn -0.18439798057079315 0 -0.98285168409347534
vn -0.31576064229011536 0 0.94883888959884644
vn -0.31576064229011536 0 0.94883888959884644
vn -0.94883888959884644 0 -0.31576064229011536
vn -0.94883888959884644 0 -0.31576064229011536
vn 0.3783697783946991 0 -0.92565453052520752
vn 0.3783697783946991 0 -0.92565453052520752
vn -0.92565453052520752 0 -0.3783697783946991
vn -0.92565453052520752 0 -0.3783697783946991
vn -0.1184045746922493 0 -0.9929654598236084
vn -0.1184045746922493 0 -0.9929654598236084
vn 0.18439798057079315 0 0.98285168409347534
vn 0.18439798057079315 0 0.98285168409347534
vn -0.9929654598236084 0 0.1184045746922493
vn -0.9929654598236084 0 0.1184045746922493
vn -0.98285168409347534 0 0.18439798057079315
vn -0.98285168409347534 0 0.18439798057079315
f 6//6 18//18 17//17 5//5
f 18//18 14//14 13//13 17//17
f 14//14 2//2 1//1 13//13
f 2//2 6//6 5//5 1//1
f 32//32 30//30 29//29 31//31
f 30//30 26//26 25//25 29//29
f 26//26 28//28 27//27 25//25
f 28//28 32//32 31//31 27//27
f 48//48 44//44 43//43 47//47
f 44//44 42//42 41//41 43//43
f 42//42 46//46 45//45 41//41
f 46//46 48//48 47//47 45//45
f 76//76 64//64 63//63 75//75
f 64//64 62//62 61//61 63//63
f 62//62 74//74 73//73 61//61
f 74//74 76//76 75//75 73//73
f 108//108 92//92 91//91 107//107
f 92//92 90//90 89//89 91//91
f 90//90 106//106 105//105 89//89
f 106//106 108//108 107//107 105//105
f 146//146 118//118 117//117 145//145
f 118//118 120//120 119//119 117//117
f 120//120 148//148 147//147 119//119
f 148//148 146//146 145//145 147//147
f 156//156 140//140 139//139 155//155
f 140//140 144//144 143//143 139//139
f 144//144 160//160 159//159 143//143
f 160//160 156//156 155//155 159//159
f 130//130 126//126 125//125 129//129
f 126//126 128//128 127//127 125//125
f 128//128 136//136 135//135 127//127
f 136//136 130//130 129//129 135//135
f 94//94 98//98 97//97 93//93
f 98//98 100//100 99//99 97//97
f 100//100 96//96 95//95 99//99
f 96//96 94//94 93//93 95//95
f 54//54 66//66 65//65 53//53
f 66//66 68//68 67//67 65//65
f 68//68 58//58 57//57 67//67
f 58//58 54//54 53//53 57//57
f 8//8 4//4 3//3 7//7
f 4//4 16//16 15//15 3//3
f 16//16 20//20 19//19 15//15
f 20//20 8//8 7//7 19//19
f 12//12 10//10 9//9 11//11
f 10//10 22//22 21//21 9//9
f 22//22 24//24 23//23 21//21
f 24//24 12//12 11//11 23//23
f 36//36 34//34 33//33 35//35
f 34//34 38//38 37//37 33//33
f 38//38 40//40 39//39 37//37
f 40//40 36//36 35//35 39//39
f 50//50 52//52 51//51 49//49
f 52//52 60//60 59//59 51//51
f 60//60 56//56 55//55 59//59
f 56//56 50//50 49//49 55//55
f 78//78 80//80 79//79 77//77
f 80//80 84//84 83//83 79//79
f 84//84 82//82 81//81 83//83
f 82//82 78//78 77//77 81//81
f 110//110 112//112 111//111 109//109
f 112//112 116//116 115//115 111//111
f 116//116 114//114 113//113 115//115
f 114//114 110//110 109//109 113//113
f 150//150 152//152 151//151 149//149
f 152//152 142//142 141//141 151//151
f 142//142 138//138 137//137 141//141
f 138//138 150//150 149//149 137//137
f 154//154 158//158 157//157 153//153
f 158//158 134//134 133//133 157//157
f 134//134 132//132 131//131 133//133
f 132//132 154//154 153//153 131//131
f 122//122 124//124 123//123 121//121
f 124//124 104//104 103//103 123//123
f 104//104 102//102 101//101 103//103
f 102//102 122//122 121//121 101//101
f 88//88 86//86 85//85 87//87
f 86//86 70//70 69//69 85//85
f 70//70 72//72 71//71 69//69
f 72//72 88//88 87//87 71//71
