# Rhino

mtllib Pannelli120.mtl
usemtl diffuse_Black
v 1.3385034625031376 3 -0.28195147535143089
v 1.3385034625031376 0 -0.28195147535143084
v 1.3385034625031393 3 0.28195147535142279
v 1.3385034625031393 0 0.28195147535142279
v 1.3219205903211799 3 -0.29313218866484964
v 1.3219205903211799 0 -0.29313218866484952
v 1.3219205903211819 3 0.29313218866484148
v 1.3219205903211819 0 0.29313218866484148
v 1.319272352534862 3 -0.36139813699418488
v 1.319272352534862 0 -0.36139813699418488
v 1.3096385148740719 3 -0.34387132405156634
v 1.3096385148740719 0 -0.34387132405156634
v 1.1692982363609197 3 -0.030991759367293332
v 1.1692982363609197 0 -0.030991759367293373
v 1.1692982363609199 3 0.030991759367286272
v 1.1692982363609199 0 0.030991759367286272
v 1.152715364178962 3 -0.042172472680712059
v 1.152715364178962 0 -0.042172472680712066
v 1.1527153641789625 3 0.042172472680704988
v 1.1527153641789625 0 0.042172472680704988
v 1.0613830082968152 3 -0.86287557810181359
v 1.0613830082968152 0 -0.86287557810181359
v 1.0540273485377656 3 -0.5071934574103707
v 1.0540273485377656 0 -0.5071934574103707
v 1.0443935108769755 3 -0.4896666444677521
v 1.0443935108769755 0 -0.4896666444677521
v 1.0415226349496369 3 -0.86523472424198666
v 1.0415226349496369 0 -0.86523472424198666
v 1.0256804690257788 3 -0.56231524091428964
v 1.0256804690257788 0 -0.56231524091428964
v 1.0079475452407263 3 -0.92473233945230371
v 1.0079475452407263 0 -0.92473233945230371
v 1.0073957234042974 3 -0.90473995358515846
v 1.0073957234042974 0 -0.90473995358515846
v 1.0058200956786005 3 -0.56467438705446271
v 1.0058200956786005 0 -0.56467438705446271
v 0.70538937413433533 3 -0.93308342904791119
v 0.70538937413433533 0 -0.93308342904791119
v 0.70483755229790634 3 -0.91309104318076573
v 0.70483755229790634 0 -0.91309104318076573
v 0.65497176031146354 3 -0.96913923039981198
v 0.65497176031146354 0 -0.96913923039981198
v 0.63623107480261121 3 -0.96215448225415268
v 0.63623107480261121 0 -0.96215448225415268
v 0.54926688653437605 3 -1.2527545812897949
v 0.54926688653437605 0 -1.2527545812897949
v 0.53052620102552372 3 -1.2457698331441356
v 0.53052620102552372 0 -1.2457698331441356
v 0.48211032746090032 3 -1.2652944950888254
v 0.48211032746090032 0 -1.2652944950888254
v 0.47345795727473433 3 -1.2833260366247436
v 0.47345795727473433 0 -1.2833260366247436
v 0.20922692747101801 3 -1.1343523795925499
v 0.20922692747101801 0 -1.1343523795925499
v 0.20057455728485199 3 -1.1523839211284679
v 0.20057455728485199 0 -1.1523839211284679
v 0.13924892866353972 3 -1.1613908001062752
v 0.13924892866353972 0 -1.1613908001062752
v 0.12577721533917866 3 -1.1466086169080383
v 0.12577721533917871 0 -1.1466086169080383
v -0.084459754389040645 3 -1.3652672644849724
v -0.084459754389040687 0 -1.3652672644849724
v -0.097931467713401693 3 -1.3504850812867355
v -0.097931467713401693 0 -1.3504850812867355
v -0.14991677939340875 3 -1.3457063150638964
v -0.14991677939340875 0 -1.3457063150638964
v -0.16585766225555615 3 -1.3577847360523903
v -0.16585766225555615 0 -1.3577847360523903
v -0.29451878121213904 3 1.3216123541567919
v -0.29451878121213904 0 1.3216123541567919
v -0.31167200336665846 3 1.3318966611202048
v -0.31167200336665846 0 1.3318966611202048
v -0.33270761728621251 3 -1.1044622536175577
v -0.33270761728621251 0 -1.1044622536175577
v -0.34864850014835991 3 -1.1165406746060516
v -0.34864850014835991 0 -1.1165406746060516
v -0.40730433336810823 3 -1.096504461789827
v -0.40730433336810823 0 -1.096504461789827
v -0.41252436775552764 3 -1.0771976950746529
v -0.41252436775552764 0 -1.0771976950746529
v -0.45015808942799246 3 1.062021149878279
v -0.45015808942799246 0 1.062021149878279
v -0.46731131158251188 3 1.0723054568416919
v -0.46731131158251188 0 1.0723054568416919
v -0.52345731660828176 3 1.0460455498661112
v -0.52345731660828176 0 1.0460455498661112
v -0.52655955586359326 3 1.026287611927075
v -0.52655955586359326 0 1.026287611927075
v -0.69948657045269491 3 -1.1755027398275442
v -0.69948657045269491 0 -1.1755027398275442
v -0.70470660484011427 3 -1.1561959731123701
v -0.70470660484011427 0 -1.1561959731123701
v -0.74875153873882927 3 -1.1281718221896777
v -0.74875153873882927 0 -1.1281718221896777
v -0.76845154066471677 3 -1.1316228979813725
v -0.76845154066471677 0 -1.1316228979813725
v -0.80097898106729315 3 -0.83003849317645728
v -0.80097898106729315 0 -0.83003849317645728
v -0.82067898299318065 3 -0.83348956896815229
v -0.82067898299318065 0 -0.83348956896815229
v -0.82246743012815837 3 1.0929938151536449
v -0.82246743012815837 0 1.0929938151536449
v -0.82556966938346965 3 1.0732358772146089
v -0.82556966938346965 0 1.0732358772146089
v -0.85949093000847787 3 -0.769289652536289
v -0.85949093000847787 0 -0.769289652536289
v -0.86367831707125731 3 -0.78884638512602567
v -0.8636783170712572 0 -0.78884638512602567
v -0.86632685199092185 3 1.0406143919176021
v -0.86632685199092185 0 1.0406143919176021
v -0.88601782286571151 3 0.7385821862396541
v -0.88601782286571151 0 0.7385821862396541
v -0.88628448320655773 3 1.041915528444135
v -0.88628448320655773 0 1.041915528444135
v -0.90597545408134739 3 0.73988332276618707
v -0.90597545408134739 0 0.73988332276618707
v -0.93761945605309926 3 0.67186381350459212
v -0.93761945605309926 0 0.67186381350459212
v -0.94389652669216029 3 0.69085324172642726
v -0.94389652669216029 0 0.69085324172642726
v -1.0919094708349755 3 -0.37183993299150458
v -1.0919094708349755 0 -0.37183993299150458
v -1.1110069098801565 3 -0.36589957762203451
v -1.1110069098801565 0 -0.36589957762203451
v -1.1161617712286607 3 -0.2910569166227478
v -1.1161617712286607 0 -0.2910569166227478
v -1.1257086444936806 3 0.25161732050565022
v -1.1257086444936806 0 0.25161732050565017
v -1.1288294706674955 3 -0.30653365371191965
v -1.1288294706674955 0 -0.3065336537119196
v -1.1410855769316173 3 0.16868590452340929
v -1.1410855769316173 0 0.16868590452340929
v -1.1440519623736205 3 0.24364720826331163
v -1.1440519623736205 0 0.24364720826331163
v -1.1553521816785608 3 0.18270246576340282
v -1.1553521816785608 0 0.18270246576340282
v -1.1554560681609609 3 -0.70591911838152832
v -1.1554560681609609 0 -0.70591911838152843
v -1.1596434552237405 3 -0.72547585097126499
v -1.1596434552237405 0 -0.7254758509712651
v -1.1818088489408434 3 -0.66085427418732889
v -1.1818088489408434 0 -0.66085427418732889
v -1.2009062879860244 3 -0.65491391881785876
v -1.2009062879860244 0 -0.65491391881785876
v -1.2249991970872247 3 0.57686869760994741
v -1.2249991970872247 0 0.57686869760994741
v -1.2312762677262861 3 0.59585812583178266
v -1.2312762677262861 0 0.59585812583178266
v -1.2463256933831497 3 0.52921904081349247
v -1.2463256933831497 0 0.52921904081349258
v -1.2646690112630896 3 0.5212489285711539
v -1.2646690112630896 0 0.52124892857115401
v -1.3503816036944516 3 -0.099348133098426716
v -1.3503816036944516 0 -0.099348133098426758
v -1.3532075898896785 3 -0.047220184365483031
v -1.3532075898896785 0 -0.047220184365483031
v -1.3630493031332864 3 -0.11482487018759856
v -1.3630493031332864 0 -0.11482487018759857
v -1.3674741946366218 3 -0.033203623125489495
v -1.3674741946366218 0 -0.033203623125489495
vn 0.98159098625183105 0 -0.19099514186382294
vn 0.98159098625183105 0 -0.19099514186382294
vn 0.98159098625183105 0 0.19099514186382294
vn 0.98159098625183105 0 0.19099514186382294
vn -0.19099514186382294 0 -0.98159098625183105
vn -0.19099514186382294 0 -0.98159098625183105
vn -0.19099514186382294 0 0.98159098625183105
vn -0.19099514186382294 0 0.98159098625183105
vn 0.96027404069900513 0 -0.27905881404876709
vn 0.96027404069900513 0 -0.27905881404876709
vn 0.27905881404876709 0 0.96027404069900513
vn 0.27905881404876709 0 0.96027404069900513
vn 0.19099514186382294 0 0.98159098625183105
vn 0.19099514186382294 0 0.98159098625183105
vn 0.19099514186382294 0 -0.98159098625183105
vn 0.19099514186382294 0 -0.98159098625183105
vn -0.98159098625183105 0 0.19099514186382294
vn -0.98159098625183105 0 0.19099514186382294
vn -0.98159098625183105 0 -0.19099514186382294
vn -0.98159098625183105 0 -0.19099514186382294
vn 0.78557860851287842 0 -0.61876183748245239
vn 0.78557860851287842 0 -0.61876183748245239
vn -0.27905881404876709 0 -0.96027404069900513
vn -0.27905881404876709 0 -0.96027404069900513
vn -0.96027404069900513 0 0.27905881404876709
vn -0.96027404069900513 0 0.27905881404876709
vn -0.61876183748245239 0 -0.78557860851287842
vn -0.61876183748245239 0 -0.78557860851287842
vn 0.61876183748245239 0 0.78557860851287842
vn 0.61876183748245239 0 0.78557860851287842
vn 0.72634744644165039 0 -0.68732774257659912
vn 0.72634744644165039 0 -0.68732774257659912
vn 0.68732774257659912 0 0.72634744644165039
vn 0.68732774257659912 0 0.72634744644165039
vn -0.78557860851287842 0 0.61876183748245239
vn -0.78557860851287842 0 0.61876183748245239
vn -0.68732774257659912 0 -0.72634744644165039
vn -0.68732774257659912 0 -0.72634744644165039
vn -0.72634744644165039 0 0.68732774257659912
vn -0.72634744644165039 0 0.68732774257659912
vn 0.90953147411346436 0 0.41563510894775391
vn 0.90953147411346436 0 0.41563510894775391
vn -0.41563510894775391 0 0.90953147411346436
vn -0.41563510894775391 0 0.90953147411346436
vn 0.41563510894775391 0 -0.90953147411346436
vn 0.41563510894775391 0 -0.90953147411346436
vn -0.90953147411346436 0 -0.41563510894775391
vn -0.90953147411346436 0 -0.41563510894775391
vn 0.94341874122619629 0 0.3316037654876709
vn 0.94341874122619629 0 0.3316037654876709
vn 0.3316037654876709 0 -0.94341874122619629
vn 0.3316037654876709 0 -0.94341874122619629
vn -0.3316037654876709 0 0.94341874122619629
vn -0.3316037654876709 0 0.94341874122619629
vn -0.94341874122619629 0 -0.3316037654876709
vn -0.94341874122619629 0 -0.3316037654876709
vn 0.99892610311508179 0 -0.046332117170095444
vn 0.99892610311508179 0 -0.046332117170095444
vn 0.046332117170095444 0 0.99892610311508179
vn 0.046332117170095444 0 0.99892610311508179
vn -0.046332117170095444 0 -0.99892610311508179
vn -0.046332117170095444 0 -0.99892610311508179
vn -0.99892610311508179 0 0.046332117170095444
vn -0.99892610311508179 0 0.046332117170095444
vn 0.99063199758529663 0 -0.1365586519241333
vn 0.99063199758529663 0 -0.1365586519241333
vn -0.1365586519241333 0 -0.99063199758529663
vn -0.1365586519241333 0 -0.99063199758529663
vn 0.97006314992904663 0 0.2428528368473053
vn 0.97006314992904663 0 0.2428528368473053
vn -0.2428528368473053 0 0.97006314992904663
vn -0.2428528368473053 0 0.97006314992904663
vn 0.1365586519241333 0 0.99063199758529663
vn 0.1365586519241333 0 0.99063199758529663
vn -0.99063199758529663 0 0.1365586519241333
vn -0.99063199758529663 0 0.1365586519241333
vn 0.8671533465385437 0 -0.49804121255874634
vn 0.8671533465385437 0 -0.49804121255874634
vn 0.49804121255874634 0 0.8671533465385437
vn 0.49804121255874634 0 0.8671533465385437
vn 0.2428528368473053 0 -0.97006314992904663
vn 0.2428528368473053 0 -0.97006314992904663
vn -0.97006314992904663 0 -0.2428528368473053
vn -0.97006314992904663 0 -0.2428528368473053
vn 0.80822932720184326 0 0.58886784315109253
vn 0.80822932720184326 0 0.58886784315109253
vn 0.58886784315109253 0 -0.80822932720184326
vn 0.58886784315109253 0 -0.80822932720184326
vn -0.49804121255874634 0 -0.8671533465385437
vn -0.49804121255874634 0 -0.8671533465385437
vn -0.8671533465385437 0 0.49804121255874634
vn -0.8671533465385437 0 0.49804121255874634
vn 0.81851422786712646 0 -0.57448625564575195
vn 0.81851422786712646 0 -0.57448625564575195
vn -0.57448625564575195 0 -0.81851422786712646
vn -0.57448625564575195 0 -0.81851422786712646
vn 0.57448625564575195 0 0.81851422786712646
vn 0.57448625564575195 0 0.81851422786712646
vn -0.81851422786712646 0 0.57448625564575195
vn -0.81851422786712646 0 0.57448625564575195
vn -0.58886784315109253 0 0.80822932720184326
vn -0.58886784315109253 0 0.80822932720184326
vn -0.80822932720184326 0 -0.58886784315109253
vn -0.80822932720184326 0 -0.58886784315109253
vn 0.8394814133644104 0 0.54338842630386353
vn 0.8394814133644104 0 0.54338842630386353
vn 0.54338842630386353 0 -0.8394814133644104
vn 0.54338842630386353 0 -0.8394814133644104
vn 0.75161093473434448 0 0.6596066951751709
vn 0.75161093473434448 0 0.6596066951751709
vn 0.6596066951751709 0 -0.75161093473434448
vn 0.6596066951751709 0 -0.75161093473434448
vn -0.6596066951751709 0 0.75161093473434448
vn -0.6596066951751709 0 0.75161093473434448
vn -0.75161093473434448 0 -0.6596066951751709
vn -0.75161093473434448 0 -0.6596066951751709
vn 0.89330565929412842 0 -0.44944968819618225
vn 0.89330565929412842 0 -0.44944968819618225
vn 0.44944968819618225 0 0.89330565929412842
vn 0.44944968819618225 0 0.89330565929412842
vn 0.88521969318389893 0 0.4651731550693512
vn 0.88521969318389893 0 0.4651731550693512
vn -0.4651731550693512 0 0.88521969318389893
vn -0.4651731550693512 0 0.88521969318389893
vn 0.99505609273910522 0 0.099314495921134949
vn 0.99505609273910522 0 0.099314495921134949
vn 0.93032020330429077 0 -0.36674824357032776
vn 0.93032020330429077 0 -0.36674824357032776
vn 0.099314495921134949 0 -0.99505609273910522
vn 0.099314495921134949 0 -0.99505609273910522
vn 0.99996089935302734 0 0.0088403429836034775
vn 0.99996089935302734 0 0.0088403429836034775
vn -0.36674824357032776 0 -0.93032020330429077
vn -0.36674824357032776 0 -0.93032020330429077
vn -0.0088403429836034775 0 0.99996089935302734
vn -0.0088403429836034775 0 0.99996089935302734
vn -0.54338842630386353 0 0.8394814133644104
vn -0.54338842630386353 0 0.8394814133644104
vn -0.8394814133644104 0 -0.54338842630386353
vn -0.8394814133644104 0 -0.54338842630386353
vn 0.4651731550693512 0 -0.88521969318389893
vn 0.4651731550693512 0 -0.88521969318389893
vn -0.88521969318389893 0 -0.4651731550693512
vn -0.88521969318389893 0 -0.4651731550693512
vn -0.44944968819618225 0 -0.89330565929412842
vn -0.44944968819618225 0 -0.89330565929412842
vn -0.89330565929412842 0 0.44944968819618225
vn -0.89330565929412842 0 0.44944968819618225
vn 0.36674824357032776 0 0.93032020330429077
vn 0.36674824357032776 0 0.93032020330429077
vn -0.93032020330429077 0 0.36674824357032776
vn -0.93032020330429077 0 0.36674824357032776
vn -0.099314495921134949 0 0.99505609273910522
vn -0.099314495921134949 0 0.99505609273910522
vn 0.0088403429836034775 0 -0.99996089935302734
vn 0.0088403429836034775 0 -0.99996089935302734
vn -0.99505609273910522 0 -0.099314495921134949
vn -0.99505609273910522 0 -0.099314495921134949
vn -0.99996089935302734 0 -0.0088403429836034775
vn -0.99996089935302734 0 -0.0088403429836034775
f 6//6 18//18 17//17 5//5
f 18//18 14//14 13//13 17//17
f 14//14 2//2 1//1 13//13
f 2//2 6//6 5//5 1//1
f 28//28 36//36 35//35 27//27
f 36//36 30//30 29//29 35//35
f 30//30 22//22 21//21 29//29
f 22//22 28//28 27//27 21//21
f 48//48 44//44 43//43 47//47
f 44//44 42//42 41//41 43//43
f 42//42 46//46 45//45 41//41
f 46//46 48//48 47//47 45//45
f 64//64 60//60 59//59 63//63
f 60//60 58//58 57//57 59//59
f 58//58 62//62 61//61 57//57
f 62//62 64//64 63//63 61//61
f 92//92 80//80 79//79 91//91
f 80//80 78//78 77//77 79//79
f 78//78 90//90 89//89 77//77
f 90//90 92//92 91//91 89//89
f 138//138 106//106 105//105 137//137
f 106//106 108//108 107//107 105//105
f 108//108 140//140 139//139 107//107
f 140//140 138//138 137//137 139//139
f 154//154 126//126 125//125 153//153
f 126//126 130//130 129//129 125//125
f 130//130 158//158 157//157 129//129
f 158//158 154//154 153//153 157//157
f 150//150 128//128 127//127 149//149
f 128//128 134//134 133//133 127//127
f 134//134 152//152 151//151 133//133
f 152//152 150//150 149//149 151//151
f 110//110 112//112 111//111 109//109
f 112//112 116//116 115//115 111//111
f 116//116 114//114 113//113 115//115
f 114//114 110//110 109//109 113//113
f 70//70 82//82 81//81 69//69
f 82//82 84//84 83//83 81//81
f 84//84 72//72 71//71 83//83
f 72//72 70//70 69//69 71//71
f 8//8 4//4 3//3 7//7
f 4//4 16//16 15//15 3//3
f 16//16 20//20 19//19 15//15
f 20//20 8//8 7//7 19//19
f 12//12 10//10 9//9 11//11
f 10//10 24//24 23//23 9//9
f 24//24 26//26 25//25 23//23
f 26//26 12//12 11//11 25//25
f 34//34 32//32 31//31 33//33
f 32//32 38//38 37//37 31//31
f 38//38 40//40 39//39 37//37
f 40//40 34//34 33//33 39//39
f 50//50 52//52 51//51 49//49
f 52//52 56//56 55//55 51//51
f 56//56 54//54 53//53 55//55
f 54//54 50//50 49//49 53//53
f 66//66 68//68 67//67 65//65
f 68//68 76//76 75//75 67//67
f 76//76 74//74 73//73 75//75
f 74//74 66//66 65//65 73//73
f 94//94 96//96 95//95 93//93
f 96//96 100//100 99//99 95//95
f 100//100 98//98 97//97 99//99
f 98//98 94//94 93//93 97//97
f 142//142 144//144 143//143 141//141
f 144//144 124//124 123//123 143//143
f 124//124 122//122 121//121 123//123
f 122//122 142//142 141//141 121//121
f 156//156 160//160 159//159 155//155
f 160//160 136//136 135//135 159//159
f 136//136 132//132 131//131 135//135
f 132//132 156//156 155//155 131//131
f 146//146 148//148 147//147 145//145
f 148//148 120//120 119//119 147//147
f 120//120 118//118 117//117 119//119
f 118//118 146//146 145//145 117//117
f 104//104 102//102 101//101 103//103
f 102//102 86//86 85//85 101//101
f 86//86 88//88 87//87 85//85
f 88//88 104//104 103//103 87//87
