# Rhino

mtllib Pannelli72.mtl
usemtl diffuse_Black
v 1.4429934264736843 3 -0.1810687614552261
v 1.4429934264736843 0 -0.1810687614552261
v 1.4429934264736841 3 0.18106876145522774
v 1.4429934264736841 0 0.18106876145522774
v 1.4328432508202824 3 -0.19830169313283372
v 1.4328432508202824 0 -0.19830169313283372
v 1.4328432508202822 3 0.19830169313283524
v 1.4328432508202822 0 0.19830169313283524
v 1.4320068168919262 3 -0.25371716850904469
v 1.4320068168919262 0 -0.25371716850904469
v 1.4274062656127344 3 -0.23425348622825498
v 1.4274062656127344 0 -0.23425348622825498
v 1.3249238304118436 3 -0.59966054466506524
v 1.3249238304118436 0 -0.59966054466506524
v 1.310131826034864 3 -0.61312147355245716
v 1.310131826034864 0 -0.61312147355245716
v 1.294307135053592 3 -0.6458578659968045
v 1.294307135053592 0 -0.6458578659968045
v 1.2929466049962144 3 -0.66581153628482359
v 1.2929466049962144 0 -0.66581153628482359
v 1.1721341064782971 3 -0.021532953692082989
v 1.1721341064782971 0 -0.021532953692082968
v 1.1721341064782969 3 0.021532953692084286
v 1.1721341064782969 0 0.021532953692084286
v 1.1619839308248952 3 -0.038765885369690591
v 1.1619839308248952 0 -0.03876588536969057
v 1.1619839308248949 3 0.038765885369691798
v 1.1619839308248949 0 0.038765885369691798
v 1.126085581561358 3 -0.32602652447921898
v 1.126085581561358 0 -0.32602652447921898
v 1.1214850302821662 3 -0.30656284219842928
v 1.1214850302821662 0 -0.30656284219842928
v 1.1133511210693656 3 -0.36716660098376069
v 1.1133511210693656 0 -0.36716660098376075
v 1.098559116692386 3 -0.38062752987115273
v 1.098559116692386 0 -0.38062752987115267
v 1.0883577539207105 3 -0.96462081913146602
v 1.0883577539207105 0 -0.96462081913146602
v 1.0702468651411279 3 -0.97310584757063945
v 1.0702468651411279 0 -0.97310584757063945
v 1.0454497725282412 3 -0.99969901272394568
v 1.0454497725282412 0 -0.99969901272394568
v 1.0382498421091679 3 -1.0183580856366201
v 1.0382498421091679 0 -1.0183580856366201
v 0.98068449285117487 3 -0.62447367826434796
v 0.98068449285117487 0 -0.62447367826434796
v 0.97932396279379741 3 -0.64442734855236694
v 0.97932396279379741 0 -0.64442734855236694
v 0.95499396671540293 3 -0.6799621718901433
v 0.95499396671540293 0 -0.67996217189014341
v 0.93688307793582026 3 -0.68844720032931672
v 0.93688307793582015 0 -0.68844720032931683
v 0.75445282645016276 3 -1.2433088344745866
v 0.75445282645016276 0 -1.2433088344745866
v 0.75217501838768464 3 -0.88653380706956486
v 0.75217501838768464 0 -0.88653380706956486
v 0.74497508796861123 3 -0.9051928799822393
v 0.74497508796861123 0 -0.9051928799822393
v 0.73464282681915483 3 -1.2460590916660994
v 0.73464282681915483 0 -1.2460590916660994
v 0.71122554471761845 3 -0.93194434179596164
v 0.71122554471761845 0 -0.93194434179596164
v 0.70309109644308199 3 -1.264130631312701
v 0.70309109644308199 0 -1.264130631312701
v 0.69141554508661052 3 -0.93469459898747465
v 0.69141554508661052 0 -0.93469459898747465
v 0.69069570186031337 3 -1.2798263056574837
v 0.69069570186031337 0 -1.2798263056574837
v 0.45639368247833828 3 -1.0693055016961392
v 0.45639368247833828 0 -1.0693055016961392
v 0.44399828789556955 3 -1.0850011760409219
v 0.44399828789556955 0 -1.0850011760409219
v 0.40384763672074325 3 -1.100576720623988
v 0.40384763672074325 0 -1.100576720623988
v 0.38411026222772965 3 -1.0973462333352748
v 0.38411026222772965 0 -1.0973462333352748
v 0.35307231847285764 3 -1.4107997246772468
v 0.35307231847285764 0 -1.4107997246772468
v 0.33333494397984403 3 -1.4075692373885336
v 0.33333494397984403 0 -1.4075692373885336
v 0.2978504505138303 3 -1.415502897223913
v 0.2978504505138303 0 -1.415502897223913
v 0.28136819182261175 3 -1.4268314076483135
v 0.28136819182261175 0 -1.4268314076483135
v 0.11979411700553375 3 -1.1564423110966819
v 0.11979411700553375 0 -1.1564423110966819
v 0.10331185831431514 3 -1.1677708215210825
v 0.10331185831431514 0 -1.1677708215210825
v 0.060351030816366356 3 -1.1707774275001135
v 0.06035103081636637 0 -1.1707774275001135
v 0.042451522116434361 3 -1.1618551190375541
v 0.04245152211643434 0 -1.1618551190375541
v -0.079885723333723374 3 -1.4521136995527046
v -0.079885723333723374 0 -1.4521136995527046
v -0.097785232033655384 3 -1.4431913910901453
v -0.097785232033655411 0 -1.4431913910901453
v -0.13402888155724818 3 -1.4402776127639756
v -0.13402888155724818 0 -1.4402776127639756
v -0.1531238896949233 3 -1.4462257775416296
v -0.1531238896949233 0 -1.4462257775416296
v -0.22751940870819881 3 -1.1401510286031591
v -0.22751940870819881 0 -1.1401510286031591
v -0.24661441684587393 3 -1.1460991933808131
v -0.24661441684587393 0 -1.1460991933808131
v -0.28854315687940774 3 -1.1362679605983999
v -0.28854315687940774 0 -1.1362679605983999
v -0.30300393131844899 3 -1.1224518105332342
v -0.30300393131844894 0 -1.1224518105332342
v -0.50569906984966873 3 -1.3635557839613215
v -0.50569906984966873 0 -1.3635557839613215
v -0.52015984428870998 3 -1.3497396338961556
v -0.52015984428870998 0 -1.3497396338961556
v -0.55392114661672975 3 -1.3362390153903569
v -0.55392114661672975 0 -1.3362390153903569
v -0.55448440679910582 3 -1.0218886886449101
v -0.55448440679910582 0 -1.0218886886449101
v -0.57392111451050631 3 -1.336274851795173
v -0.57392111451050631 0 -1.336274851795173
v -0.57448437469288238 3 -1.0219245250497264
v -0.57448437469288238 0 -1.0219245250497264
v -0.61163106971065717 3 -1.0001347240392058
v -0.61163106971065717 0 -1.0001347240392058
v -0.62135978959674532 3 -0.98266039974960784
v -0.62135978959674532 0 -0.98266039974960784
v -0.83185828942325113 3 -0.81223225476558902
v -0.83185828942325113 0 -0.81223225476558902
v -0.85097449099717437 3 -0.80635255771683434
v -0.85097449099717437 0 -0.80635255771683434
v -0.88001687256522432 3 -0.77455299086950991
v -0.88001687256522432 0 -0.77455299086950991
v -0.88414343575427956 3 -0.75498333384015093
v -0.88414343575427956 0 -0.75498333384015093
v -0.88628448811941019 3 -1.1530462832601776
v -0.88628448811941019 0 -1.1530462832601776
v -0.89601320800549833 3 -1.1355719589705795
v -0.89601320800549833 0 -1.1355719589705795
v -0.92427267219910691 3 -1.1126919476416217
v -0.92427267219910691 0 -1.1126919476416217
v -0.94338887377303016 3 -1.106812250592867
v -0.94338887377303016 0 -1.106812250592867
v -1.0348337219252139 3 -0.52993265357984798
v -1.0348337219252139 0 -0.52993265357984798
v -1.0513564720232833 3 -0.51866328229318104
v -1.0513564720232833 0 -0.51866328229318104
v -1.0678524340515081 3 -0.45978324072767196
v -1.0678524340515081 0 -0.45978324072767196
v -1.0696970927109668 3 -0.4796979898958158
v -1.0696970927109668 0 -0.4796979898958158
v -1.1876037704116733 3 -0.83941241932983823
v -1.1876037704116733 0 -0.83941241932983823
v -1.1917303336007286 3 -0.81984276230047926
v -1.1917303336007286 0 -0.81984276230047926
v -1.2119605335778398 3 -0.78962966507743437
v -1.2119605335778398 0 -0.78962966507743437
v -1.2284832836759092 3 -0.77836029379076732
v -1.2284832836759092 0 -0.77836029379076732
v -1.3808633319343813 3 -0.43078974156734784
v -1.3808633319343813 0 -0.43078974156734784
v -1.38270799059384 3 -0.45070449073549168
v -1.38270799059384 0 -0.45070449073549168
vn 0.96813905239105225 0 0.25041326880455017
vn 0.96813905239105225 0 0.25041326880455017
vn 0.96813905239105225 0 -0.25041326880455017
vn 0.96813905239105225 0 -0.25041326880455017
vn 0.25041326880455017 0 -0.96813905239105225
vn 0.25041326880455017 0 -0.96813905239105225
vn 0.25041326880455017 0 0.96813905239105225
vn 0.25041326880455017 0 0.96813905239105225
vn 0.85079914331436157 0 -0.52549105882644653
vn 0.85079914331436157 0 -0.52549105882644653
vn 0.52549105882644653 0 0.85079914331436157
vn 0.52549105882644653 0 0.85079914331436157
vn 0.99889200925827026 0 -0.047060620039701462
vn 0.99889200925827026 0 -0.047060620039701462
vn -0.047060620039701462 0 -0.99889200925827026
vn -0.047060620039701462 0 -0.99889200925827026
vn 0.7535707950592041 0 0.65736675262451172
vn 0.7535707950592041 0 0.65736675262451172
vn 0.65736675262451172 0 -0.7535707950592041
vn 0.65736675262451172 0 -0.7535707950592041
vn -0.25041326880455017 0 0.96813905239105225
vn -0.25041326880455017 0 0.96813905239105225
vn -0.25041326880455017 0 -0.96813905239105225
vn -0.25041326880455017 0 -0.96813905239105225
vn -0.96813905239105225 0 -0.25041326880455017
vn -0.96813905239105225 0 -0.25041326880455017
vn -0.96813905239105225 0 0.25041326880455017
vn -0.96813905239105225 0 0.25041326880455017
vn -0.52549105882644653 0 -0.85079914331436157
vn -0.52549105882644653 0 -0.85079914331436157
vn -0.85079914331436157 0 0.52549105882644653
vn -0.85079914331436157 0 0.52549105882644653
vn 0.047060620039701462 0 0.99889200925827026
vn 0.047060620039701462 0 0.99889200925827026
vn -0.99889200925827026 0 0.047060620039701462
vn -0.99889200925827026 0 0.047060620039701462
vn 0.94030767679214478 0 -0.34032559394836426
vn 0.94030767679214478 0 -0.34032559394836426
vn -0.34032559394836426 0 -0.94030767679214478
vn -0.34032559394836426 0 -0.94030767679214478
vn 0.914253830909729 0 0.40514189004898071
vn 0.914253830909729 0 0.40514189004898071
vn 0.40514189004898071 0 -0.914253830909729
vn 0.40514189004898071 0 -0.914253830909729
vn -0.65736675262451172 0 0.7535707950592041
vn -0.65736675262451172 0 0.7535707950592041
vn -0.7535707950592041 0 -0.65736675262451172
vn -0.7535707950592041 0 -0.65736675262451172
vn 0.34032559394836426 0 0.94030767679214478
vn 0.34032559394836426 0 0.94030767679214478
vn -0.94030767679214478 0 0.34032559394836426
vn -0.94030767679214478 0 0.34032559394836426
vn 0.79762554168701172 0 -0.60315293073654175
vn 0.79762554168701172 0 -0.60315293073654175
vn -0.40514189004898071 0 0.914253830909729
vn -0.40514189004898071 0 0.914253830909729
vn -0.914253830909729 0 -0.40514189004898071
vn -0.914253830909729 0 -0.40514189004898071
vn -0.60315293073654175 0 -0.79762554168701172
vn -0.60315293073654175 0 -0.79762554168701172
vn 0.60315293073654175 0 0.79762554168701172
vn 0.60315293073654175 0 0.79762554168701172
vn 0.99316924810409546 0 0.1166824996471405
vn 0.99316924810409546 0 0.1166824996471405
vn -0.79762554168701172 0 0.60315293073654175
vn -0.79762554168701172 0 0.60315293073654175
vn 0.1166824996471405 0 -0.99316924810409546
vn 0.1166824996471405 0 -0.99316924810409546
vn -0.1166824996471405 0 0.99316924810409546
vn -0.1166824996471405 0 0.99316924810409546
vn -0.99316924810409546 0 -0.1166824996471405
vn -0.99316924810409546 0 -0.1166824996471405
vn 0.81203657388687134 0 0.58360660076141357
vn 0.81203657388687134 0 0.58360660076141357
vn -0.58360660076141357 0 0.81203657388687134
vn -0.58360660076141357 0 0.81203657388687134
vn 0.58360660076141357 0 -0.81203657388687134
vn 0.58360660076141357 0 -0.81203657388687134
vn -0.81203657388687134 0 -0.58360660076141357
vn -0.81203657388687134 0 -0.58360660076141357
vn 0.98325914144515991 0 -0.18221254646778107
vn 0.98325914144515991 0 -0.18221254646778107
vn -0.18221254646778107 0 -0.98325914144515991
vn -0.18221254646778107 0 -0.98325914144515991
vn 0.18221254646778107 0 0.98325914144515991
vn 0.18221254646778107 0 0.98325914144515991
vn -0.98325914144515991 0 0.18221254646778107
vn -0.98325914144515991 0 0.18221254646778107
vn 0.94829446077346802 0 0.31739193201065063
vn 0.94829446077346802 0 0.31739193201065063
vn -0.31739193201065063 0 0.94829446077346802
vn -0.31739193201065063 0 0.94829446077346802
vn 0.31739193201065063 0 -0.94829446077346802
vn 0.31739193201065063 0 -0.94829446077346802
vn -0.94829446077346802 0 -0.31739193201065063
vn -0.94829446077346802 0 -0.31739193201065063
vn 0.88540983200073242 0 -0.46481111645698547
vn 0.88540983200073242 0 -0.46481111645698547
vn -0.46481111645698547 0 -0.88540983200073242
vn -0.46481111645698547 0 -0.88540983200073242
vn 0.46481111645698547 0 0.88540983200073242
vn 0.46481111645698547 0 0.88540983200073242
vn -0.88540983200073242 0 0.46481111645698547
vn -0.88540983200073242 0 0.46481111645698547
vn 0.99974024295806885 0 0.022790906950831413
vn 0.99974024295806885 0 0.022790906950831413
vn -0.022790906950831413 0 0.99974024295806885
vn -0.022790906950831413 0 0.99974024295806885
vn 0.022790906950831413 0 -0.99974024295806885
vn 0.022790906950831413 0 -0.99974024295806885
vn -0.99974024295806885 0 -0.022790906950831413
vn -0.99974024295806885 0 -0.022790906950831413
vn 0.70837265253067017 0 -0.70583862066268921
vn 0.70837265253067017 0 -0.70583862066268921
vn 0.70583862066268921 0 0.70837265253067017
vn 0.70583862066268921 0 0.70837265253067017
vn -0.70583862066268921 0 -0.70837265253067017
vn -0.70583862066268921 0 -0.70837265253067017
vn -0.70837265253067017 0 0.70583862066268921
vn -0.70837265253067017 0 0.70583862066268921
vn 0.9617728590965271 0 -0.27384847402572632
vn 0.9617728590965271 0 -0.27384847402572632
vn 0.27384847402572632 0 0.9617728590965271
vn 0.27384847402572632 0 0.9617728590965271
vn 0.88373851776123047 0 0.46798107028007507
vn 0.88373851776123047 0 0.46798107028007507
vn -0.46798107028007507 0 0.88373851776123047
vn -0.46798107028007507 0 0.88373851776123047
vn 0.837787926197052 0 -0.54599583148956299
vn 0.837787926197052 0 -0.54599583148956299
vn 0.54599583148956299 0 0.837787926197052
vn 0.54599583148956299 0 0.837787926197052
vn -0.27384847402572632 0 -0.9617728590965271
vn -0.27384847402572632 0 -0.9617728590965271
vn -0.9617728590965271 0 0.27384847402572632
vn -0.9617728590965271 0 0.27384847402572632
vn 0.46798107028007507 0 -0.88373851776123047
vn 0.46798107028007507 0 -0.88373851776123047
vn -0.88373851776123047 0 -0.46798107028007507
vn -0.88373851776123047 0 -0.46798107028007507
vn 0.98259985446929932 0 0.18573497235774994
vn 0.98259985446929932 0 0.18573497235774994
vn -0.18573497235774994 0 0.98259985446929932
vn -0.18573497235774994 0 0.98259985446929932
vn 0.76931124925613403 0 0.63887417316436768
vn 0.76931124925613403 0 0.63887417316436768
vn 0.63887417316436768 0 -0.76931124925613403
vn 0.63887417316436768 0 -0.76931124925613403
vn -0.54599583148956299 0 -0.837787926197052
vn -0.54599583148956299 0 -0.837787926197052
vn -0.837787926197052 0 0.54599583148956299
vn -0.837787926197052 0 0.54599583148956299
vn 0.18573497235774994 0 -0.98259985446929932
vn 0.18573497235774994 0 -0.98259985446929932
vn -0.98259985446929932 0 -0.18573497235774994
vn -0.98259985446929932 0 -0.18573497235774994
vn -0.63887417316436768 0 0.76931124925613403
vn -0.63887417316436768 0 0.76931124925613403
vn -0.76931124925613403 0 -0.63887417316436768
vn -0.76931124925613403 0 -0.63887417316436768
f 6//6 26//26 25//25 5//5
f 26//26 22//22 21//21 25//25
f 22//22 2//2 1//1 21//21
f 2//2 6//6 5//5 1//1
f 16//16 36//36 35//35 15//15
f 36//36 34//34 33//33 35//35
f 34//34 14//14 13//13 33//33
f 14//14 16//16 15//15 13//13
f 40//40 52//52 51//51 39//39
f 52//52 50//50 49//49 51//51
f 50//50 38//38 37//37 49//49
f 38//38 40//40 39//39 37//37
f 60//60 66//66 65//65 59//59
f 66//66 62//62 61//61 65//65
f 62//62 54//54 53//53 61//61
f 54//54 60//60 59//59 53//53
f 80//80 76//76 75//75 79//79
f 76//76 74//74 73//73 75//75
f 74//74 78//78 77//77 73//73
f 78//78 80//80 79//79 77//77
f 96//96 92//92 91//91 95//95
f 92//92 90//90 89//89 91//91
f 90//90 94//94 93//93 89//89
f 94//94 96//96 95//95 93//93
f 112//112 108//108 107//107 111//111
f 108//108 106//106 105//105 107//107
f 106//106 110//110 109//109 105//105
f 110//110 112//112 111//111 109//109
f 136//136 124//124 123//123 135//135
f 124//124 122//122 121//121 123//123
f 122//122 134//134 133//133 121//121
f 134//134 136//136 135//135 133//133
f 152//152 132//132 131//131 151//151
f 132//132 130//130 129//129 131//131
f 130//130 150//150 149//149 129//129
f 150//150 152//152 151//151 149//149
f 158//158 146//146 145//145 157//157
f 146//146 148//148 147//147 145//145
f 148//148 160//160 159//159 147//147
f 160//160 158//158 157//157 159//159
f 8//8 4//4 3//3 7//7
f 4//4 24//24 23//23 3//3
f 24//24 28//28 27//27 23//23
f 28//28 8//8 7//7 27//27
f 12//12 10//10 9//9 11//11
f 10//10 30//30 29//29 9//9
f 30//30 32//32 31//31 29//29
f 32//32 12//12 11//11 31//31
f 18//18 20//20 19//19 17//17
f 20//20 48//48 47//47 19//19
f 48//48 46//46 45//45 47//47
f 46//46 18//18 17//17 45//45
f 42//42 44//44 43//43 41//41
f 44//44 58//58 57//57 43//43
f 58//58 56//56 55//55 57//57
f 56//56 42//42 41//41 55//55
f 64//64 68//68 67//67 63//63
f 68//68 72//72 71//71 67//67
f 72//72 70//70 69//69 71//71
f 70//70 64//64 63//63 69//69
f 82//82 84//84 83//83 81//81
f 84//84 88//88 87//87 83//83
f 88//88 86//86 85//85 87//87
f 86//86 82//82 81//81 85//85
f 98//98 100//100 99//99 97//97
f 100//100 104//104 103//103 99//99
f 104//104 102//102 101//101 103//103
f 102//102 98//98 97//97 101//101
f 114//114 118//118 117//117 113//113
f 118//118 120//120 119//119 117//117
f 120//120 116//116 115//115 119//119
f 116//116 114//114 113//113 115//115
f 138//138 140//140 139//139 137//137
f 140//140 128//128 127//127 139//139
f 128//128 126//126 125//125 127//127
f 126//126 138//138 137//137 125//125
f 154//154 156//156 155//155 153//153
f 156//156 144//144 143//143 155//155
f 144//144 142//142 141//141 143//143
f 142//142 154//154 153//153 141//141
