# Rhino

mtllib Pannelli153.mtl
usemtl diffuse_Black
v 1.246817757540104 3 -0.32211960181398602
v 1.246817757540104 0 -0.32211960181398597
v 1.2468177575401045 3 0.32211960181398602
v 1.2468177575401045 0 0.32211960181398602
v 1.2275918062705706 3 -0.32762984661630806
v 1.2275918062705706 0 -0.32762984661630806
v 1.2275918062705711 3 0.32762984661630812
v 1.2275918062705711 0 0.32762984661630812
v 1.2230106453367693 3 -0.40318794597938423
v 1.2230106453367693 0 -0.40318794597938423
v 1.209816935215269 3 -0.38815711056581464
v 1.209816935215269 0 -0.38815711056581464
v 1.1649493073936108 3 -0.036470072710413783
v 1.1649493073936108 0 -0.036470072710413755
v 1.1649493073936115 3 0.036470072710413901
v 1.1649493073936115 0 0.036470072710413901
v 1.1457233561240774 3 -0.04198031751273585
v 1.1457233561240774 0 -0.04198031751273585
v 1.1457233561240781 3 0.041980317512735989
v 1.1457233561240781 0 0.041980317512735989
v 0.99969004092416724 3 -0.59921346536722175
v 0.99969004092416724 0 -0.59921346536722175
v 0.98649633080266719 3 -0.58418262995365211
v 0.98649633080266719 0 -0.58418262995365211
v 0.96025102409896113 3 -0.66057166584501115
v 0.96025102409896113 0 -0.66057166584501104
v 0.94109849291353354 3 -0.65481140984451836
v 0.94109849291353354 0 -0.65481140984451824
v 0.8746680331202934 3 -0.94513035620892627
v 0.8746680331202934 0 -0.94513035620892627
v 0.85551550193486581 3 -0.93937010020843348
v 0.85551550193486581 0 -0.93937010020843348
v 0.8116314177306746 3 0.99978497695385982
v 0.8116314177306746 0 0.99978497695385982
v 0.81080721510264664 3 -1.0004535063298174
v 0.81080721510264664 0 -1.0004535063298174
v 0.80864362921362676 3 0.98000940819396354
v 0.80864362921362676 0 0.98000940819396354
v 0.80783572472985266 3 -0.98067548203606192
v 0.80783572472985266 0 -0.98067548203606192
v 0.51781594796137098 3 1.0441760383370342
v 0.51781594796137087 0 1.0441760383370342
v 0.5169552622443796 3 -1.0446024180702449
v 0.5169552622443796 0 -1.0446024180702449
v 0.51482815944432314 3 1.024400469577138
v 0.51482815944432303 0 1.024400469577138
v 0.51398377187158562 3 -1.0248243937764894
v 0.51398377187158562 0 -1.0248243937764894
v 0.45148770360752893 3 1.0745211996473396
v 0.45148770360752893 0 1.0745211996473396
v 0.45060203283837097 3 -1.0748929076900098
v 0.45060203283837097 0 -1.0748929076900098
v 0.43847841426705259 3 1.0593304659305056
v 0.43847841426705259 0 1.0593304659305056
v 0.43760526666327965 3 -1.0596914581213013
v 0.43760526666327959 0 -1.0596914581213013
v 0.22579141050251067 3 1.2678066876828746
v 0.22579141050251067 0 1.2678066876828746
v 0.22474652898747133 3 -1.26799233282312
v 0.22474652898747138 0 -1.26799233282312
v 0.21278212116203427 3 1.2526159539660409
v 0.21278212116203427 0 1.2526159539660409
v 0.21174976281238 3 -1.2527908832544115
v 0.21174976281237998 0 -1.2527908832544115
v 0.15034670296426592 3 1.2616333968805051
v 0.15034670296426594 0 1.2616333968805051
v 0.14930693450328844 3 -1.2617568698151398
v 0.14930693450328844 0 -1.2617568698151398
v 0.1421673435896279 3 1.2798843716550348
v 0.14216734358962793 0 1.2798843716550348
v 0.14111253720080688 3 -1.2800010977475318
v 0.14111253720080688 0 -1.2800010977475318
v -0.12081711498876109 3 1.1401085827904649
v -0.12081711498876112 0 1.1401085827904649
v -0.12175664225737939 3 -1.1400086297449241
v -0.12175664225737939 0 -1.1400086297449241
v -0.12899647436339912 3 1.1583595575649945
v -0.12899647436339914 0 1.1583595575649945
v -0.12995103955986093 3 -1.1582528576773163
v -0.12995103955986093 0 -1.1582528576773163
v -0.20120040282416868 3 1.1480223660294038
v -0.20120040282416868 0 1.1480223660294038
v -0.20214642457888524 3 -1.1478561660897806
v -0.20214642457888521 0 -1.1478561660897806
v -0.20393029840680379 3 1.1282095502247811
v -0.20393029840680379 0 1.1282095502247811
v -0.20485999140939337 3 -1.1280411072946028
v -0.20485999140939334 0 -1.1280411072946028
v -0.4955692704793494 3 1.1885817837013577
v -0.4955692704793494 0 1.1885817837013577
v -0.49654861746135603 3 -1.1881729793625802
v -0.49654861746135603 0 -1.1881729793625802
v -0.49829916606198454 3 1.1687689678967352
v -0.49829916606198454 0 1.1687689678967352
v -0.49926218429186414 3 -1.1683579205674024
v -0.49926218429186414 0 -1.1683579205674024
v -0.5556964191845668 3 1.1425954878792048
v -0.5556964191845668 0 1.1425954878792048
v -0.55663784824848639 3 -1.1421371481191582
v -0.55663784824848639 0 -1.1421371481191582
v -0.57244537500923065 3 1.1535258345701132
v -0.57244537500923065 0 1.1535258345701132
v -0.57339580613048136 3 -1.1530536882132207
v -0.57339580613048136 0 -1.1530536882132207
v -0.71809402133309841 3 0.89374791320167535
v -0.71809402133309841 0 0.89374791320167535
v -0.71883031891445903 3 -0.89315582539444272
v -0.71883031891445903 0 -0.89315582539444272
v -0.73484297715776226 3 0.90467825989258366
v -0.73484297715776226 0 0.90467825989258366
v -0.735588276796454 3 -0.90407236548850523
v -0.735588276796454 0 -0.90407236548850523
v -0.78157606127468238 3 0.83879867445594181
v -0.78157606127468238 0 0.83879867445594181
v -0.78226705339962954 3 -0.83815428949099291
v -0.78226705339962954 0 -0.83815428949099291
v -0.7899925031653392 3 0.85694153822937047
v -0.7899925031653392 0 0.85694153822937047
v -0.79069844404289047 3 -0.85629021107829384
v -0.79069844404289047 0 -0.85629021107829373
v -1.0511336202643715 3 0.71375140740063336
v -1.0511336202643715 0 0.71375140740063336
v -1.0517214688740475 3 -0.71288492137643333
v -1.0517214688740475 0 -0.71288492137643344
v -1.0595500621550282 3 0.73189427117406203
v -1.0595500621550282 0 0.73189427117406203
v -1.0601528595173086 3 -0.73102084296373426
v -1.0601528595173086 0 -0.73102084296373426
v -1.0852648360827788 3 0.66069901981059986
v -1.0852648360827788 0 0.66069901981059986
v -1.0858089524058607 3 -0.65980442412260021
v -1.0858089524058607 0 -0.65980442412260021
v -1.0873229749068389 3 0.36355619107151976
v -1.0873229749068389 0 0.36355619107151976
v -1.0876222138717608 3 -0.36266000016459016
v -1.0876222138717608 0 -0.36266000016459016
v -1.1052643563457982 3 0.66083754507567372
v -1.1052643563457982 0 0.66083754507567372
v -1.10580858003682 3 -0.65992646765157681
v -1.10580858003682 0 -0.65992646765157681
v -1.1073224951698584 3 0.36369471633659373
v -1.1073224951698584 0 0.36369471633659373
v -1.1076218415027201 3 -0.36278204369356676
v -1.1076218415027201 0 -0.36278204369356676
v -1.1110136293753741 3 0.28300719278642028
v -1.1110136293753741 0 0.28300719278642028
v -1.1112464795261183 3 -0.28209150566349595
v -1.1112464795261183 0 -0.282091505663496
v -1.1279035660672534 3 0.29371840366774921
v -1.1279035660672534 0 0.29371840366774921
v -1.1281452376367098 3 -0.29278879383946416
v -1.1281452376367098 0 -0.29278879383946421
v -1.2701554217104647 3 0.032064995181361799
v -1.2701554217104647 0 0.032064995181361799
v -1.2701814152966429 3 -0.031018243849139246
v -1.2701814152966429 0 -0.031018243849139211
v -1.287045358402344 3 0.042776206062690725
v -1.287045358402344 0 0.042776206062690725
v -1.2870801734072344 3 -0.041715532025107464
v -1.2870801734072344 0 -0.04171553202510743
vn 0.87455660104751587 0 -0.48492342233657837
vn 0.87455660104751587 0 -0.48492342233657837
vn 0.87455660104751587 0 0.48492342233657837
vn 0.87455660104751587 0 0.48492342233657837
vn -0.48492342233657837 0 -0.87455660104751587
vn -0.48492342233657837 0 -0.87455660104751587
vn -0.48492342233657837 0 0.87455660104751587
vn -0.48492342233657837 0 0.87455660104751587
vn 0.99788838624954224 0 -0.064952217042446136
vn 0.99788838624954224 0 -0.064952217042446136
vn 0.064952217042446136 0 0.99788838624954224
vn 0.064952217042446136 0 0.99788838624954224
vn 0.48492342233657837 0 0.87455660104751587
vn 0.48492342233657837 0 0.87455660104751587
vn 0.48492342233657837 0 -0.87455660104751587
vn 0.48492342233657837 0 -0.87455660104751587
vn -0.87455660104751587 0 0.48492342233657837
vn -0.87455660104751587 0 0.48492342233657837
vn -0.87455660104751587 0 -0.48492342233657837
vn -0.87455660104751587 0 -0.48492342233657837
vn -0.064952217042446136 0 -0.99788838624954224
vn -0.064952217042446136 0 -0.99788838624954224
vn -0.99788838624954224 0 0.064952217042446136
vn -0.99788838624954224 0 0.064952217042446136
vn 0.88080000877380371 0 0.473488450050354
vn 0.88080000877380371 0 0.473488450050354
vn -0.473488450050354 0 0.88080000877380371
vn -0.473488450050354 0 0.88080000877380371
vn 0.473488450050354 0 -0.88080000877380371
vn 0.473488450050354 0 -0.88080000877380371
vn -0.88080000877380371 0 -0.473488450050354
vn -0.88080000877380371 0 -0.473488450050354
vn 0.80480623245239258 0 0.59353762865066528
vn 0.80480623245239258 0 0.59353762865066528
vn 0.80431681871414185 0 -0.59420067071914673
vn 0.80431681871414185 0 -0.59420067071914673
vn 0.59353762865066528 0 -0.80480623245239258
vn 0.59353762865066528 0 -0.80480623245239258
vn 0.59420067071914673 0 0.80431681871414185
vn 0.59420067071914673 0 0.80431681871414185
vn -0.59353762865066528 0 0.80480623245239258
vn -0.59353762865066528 0 0.80480623245239258
vn -0.59420067071914673 0 -0.80431681871414185
vn -0.59420067071914673 0 -0.80431681871414185
vn -0.80480623245239258 0 -0.59353762865066528
vn -0.80480623245239258 0 -0.59353762865066528
vn -0.80431681871414185 0 0.59420067071914673
vn -0.80431681871414185 0 0.59420067071914673
vn 0.9970213770866394 0 0.077125698328018188
vn 0.9970213770866394 0 0.077125698328018188
vn 0.99695748090744019 0 -0.077947311103343964
vn 0.99695748090744019 0 -0.077947311103343964
vn 0.077125698328018188 0 -0.9970213770866394
vn 0.077125698328018188 0 -0.9970213770866394
vn 0.077947311103343964 0 0.99695748090744019
vn 0.077947311103343964 0 0.99695748090744019
vn -0.077125698328018188 0 0.9970213770866394
vn -0.077125698328018188 0 0.9970213770866394
vn -0.077947311103343964 0 -0.99695748090744019
vn -0.077947311103343964 0 -0.99695748090744019
vn -0.9970213770866394 0 -0.077125698328018188
vn -0.9970213770866394 0 -0.077125698328018188
vn -0.99695748090744019 0 0.077947311103343964
vn -0.99695748090744019 0 0.077947311103343964
vn 0.93445342779159546 0 -0.35608536005020142
vn 0.93445342779159546 0 -0.35608536005020142
vn 0.93474656343460083 0 0.35531520843505859
vn 0.93474656343460083 0 0.35531520843505859
vn 0.35608536005020142 0 0.93445342779159546
vn 0.35608536005020142 0 0.93445342779159546
vn 0.35531520843505859 0 -0.93474656343460083
vn 0.35531520843505859 0 -0.93474656343460083
vn -0.35608536005020142 0 -0.93445342779159546
vn -0.35608536005020142 0 -0.93445342779159546
vn -0.35531520843505859 0 0.93474656343460083
vn -0.35531520843505859 0 0.93474656343460083
vn -0.93445342779159546 0 0.35608536005020142
vn -0.93445342779159546 0 0.35608536005020142
vn -0.93474656343460083 0 -0.35531520843505859
vn -0.93474656343460083 0 -0.35531520843505859
vn 0.79700523614883423 0 0.60397243499755859
vn 0.79700523614883423 0 0.60397243499755859
vn 0.79650717973709106 0 -0.6046290397644043
vn 0.79650717973709106 0 -0.6046290397644043
vn 0.60397243499755859 0 -0.79700523614883423
vn 0.60397243499755859 0 -0.79700523614883423
vn 0.6046290397644043 0 0.79650717973709106
vn 0.6046290397644043 0 0.79650717973709106
vn -0.60397243499755859 0 0.79700523614883423
vn -0.60397243499755859 0 0.79700523614883423
vn -0.6046290397644043 0 -0.79650717973709106
vn -0.6046290397644043 0 -0.79650717973709106
vn -0.79700523614883423 0 -0.60397243499755859
vn -0.79700523614883423 0 -0.60397243499755859
vn -0.79650717973709106 0 0.6046290397644043
vn -0.79650717973709106 0 0.6046290397644043
vn 0.97861111164093018 0 0.20571890473365784
vn 0.97861111164093018 0 0.20571890473365784
vn 0.97844123840332031 0 -0.2065252810716629
vn 0.97844123840332031 0 -0.2065252810716629
vn -0.20571890473365784 0 0.97861111164093018
vn -0.20571890473365784 0 0.97861111164093018
vn -0.2065252810716629 0 -0.97844123840332031
vn -0.2065252810716629 0 -0.97844123840332031
vn 0.20571890473365784 0 -0.97861111164093018
vn 0.20571890473365784 0 -0.97861111164093018
vn 0.2065252810716629 0 0.97844123840332031
vn 0.2065252810716629 0 0.97844123840332031
vn -0.97861111164093018 0 -0.20571890473365784
vn -0.97861111164093018 0 -0.20571890473365784
vn -0.97844123840332031 0 0.2065252810716629
vn -0.97844123840332031 0 0.2065252810716629
vn 0.93901324272155762 0 -0.34388095140457153
vn 0.93901324272155762 0 -0.34388095140457153
vn 0.93929630517959595 0 0.34310701489448547
vn 0.93929630517959595 0 0.34310701489448547
vn 0.34388095140457153 0 0.93901324272155762
vn 0.34388095140457153 0 0.93901324272155762
vn 0.34310701489448547 0 -0.93929630517959595
vn 0.34310701489448547 0 -0.93929630517959595
vn -0.34388095140457153 0 -0.93901324272155762
vn -0.34388095140457153 0 -0.93901324272155762
vn -0.34310701489448547 0 0.93929630517959595
vn -0.34310701489448547 0 0.93929630517959595
vn -0.93901324272155762 0 0.34388095140457153
vn -0.93901324272155762 0 0.34388095140457153
vn -0.93929630517959595 0 -0.34310701489448547
vn -0.93929630517959595 0 -0.34310701489448547
vn 0.71198743581771851 0 0.70219218730926514
vn 0.71198743581771851 0 0.70219218730926514
vn 0.71140855550765991 0 -0.70277869701385498
vn 0.71140855550765991 0 -0.70277869701385498
vn 0.70219218730926514 0 -0.71198743581771851
vn 0.70219218730926514 0 -0.71198743581771851
vn 0.70277869701385498 0 0.71140855550765991
vn 0.70277869701385498 0 0.71140855550765991
vn -0.70219218730926514 0 0.71198743581771851
vn -0.70219218730926514 0 0.71198743581771851
vn -0.70277869701385498 0 -0.71140855550765991
vn -0.70277869701385498 0 -0.71140855550765991
vn -0.71198743581771851 0 -0.70219218730926514
vn -0.71198743581771851 0 -0.70219218730926514
vn -0.71140855550765991 0 0.70277869701385498
vn -0.71140855550765991 0 0.70277869701385498
vn 0.97584789991378784 0 0.21845096349716187
vn 0.97584789991378784 0 0.21845096349716187
vn 0.97566759586334229 0 -0.21925505995750427
vn 0.97566759586334229 0 -0.21925505995750427
vn -0.21845096349716187 0 0.97584789991378784
vn -0.21845096349716187 0 0.97584789991378784
vn -0.21925505995750427 0 -0.97566759586334229
vn -0.21925505995750427 0 -0.97566759586334229
vn 0.21845096349716187 0 -0.97584789991378784
vn 0.21845096349716187 0 -0.97584789991378784
vn 0.21925505995750427 0 0.97566759586334229
vn 0.21925505995750427 0 0.97566759586334229
vn -0.97584789991378784 0 -0.21845096349716187
vn -0.97584789991378784 0 -0.21845096349716187
vn -0.97566759586334229 0 0.21925505995750427
vn -0.97566759586334229 0 0.21925505995750427
f 6//6 18//18 17//17 5//5
f 18//18 14//14 13//13 17//17
f 14//14 2//2 1//1 13//13
f 2//2 6//6 5//5 1//1
f 32//32 28//28 27//27 31//31
f 28//28 26//26 25//25 27//27
f 26//26 30//30 29//29 25//25
f 30//30 32//32 31//31 29//29
f 64//64 56//56 55//55 63//63
f 56//56 52//52 51//51 55//55
f 52//52 60//60 59//59 51//51
f 60//60 64//64 63//63 59//59
f 96//96 88//88 87//87 95//95
f 88//88 84//84 83//83 87//87
f 84//84 92//92 91//91 83//83
f 92//92 96//96 95//95 91//91
f 124//124 116//116 115//115 123//123
f 116//116 120//120 119//119 115//115
f 120//120 128//128 127//127 119//119
f 128//128 124//124 123//123 127//127
f 156//156 148//148 147//147 155//155
f 148//148 152//152 151//151 147//147
f 152//152 160//160 159//159 151//151
f 160//160 156//156 155//155 159//159
f 130//130 134//134 133//133 129//129
f 134//134 142//142 141//141 133//133
f 142//142 138//138 137//137 141//141
f 138//138 130//130 129//129 137//137
f 98//98 106//106 105//105 97//97
f 106//106 110//110 109//109 105//105
f 110//110 102//102 101//101 109//109
f 102//102 98//98 97//97 101//101
f 66//66 74//74 73//73 65//65
f 74//74 78//78 77//77 73//73
f 78//78 70//70 69//69 77//77
f 70//70 66//66 65//65 69//69
f 38//38 46//46 45//45 37//37
f 46//46 42//42 41//41 45//45
f 42//42 34//34 33//33 41//41
f 34//34 38//38 37//37 33//33
f 8//8 4//4 3//3 7//7
f 4//4 16//16 15//15 3//3
f 16//16 20//20 19//19 15//15
f 20//20 8//8 7//7 19//19
f 12//12 10//10 9//9 11//11
f 10//10 22//22 21//21 9//9
f 22//22 24//24 23//23 21//21
f 24//24 12//12 11//11 23//23
f 40//40 36//36 35//35 39//39
f 36//36 44//44 43//43 35//35
f 44//44 48//48 47//47 43//43
f 48//48 40//40 39//39 47//47
f 68//68 72//72 71//71 67//67
f 72//72 80//80 79//79 71//71
f 80//80 76//76 75//75 79//79
f 76//76 68//68 67//67 75//75
f 100//100 104//104 103//103 99//99
f 104//104 112//112 111//111 103//103
f 112//112 108//108 107//107 111//111
f 108//108 100//100 99//99 107//107
f 132//132 140//140 139//139 131//131
f 140//140 144//144 143//143 139//139
f 144//144 136//136 135//135 143//143
f 136//136 132//132 131//131 135//135
f 154//154 158//158 157//157 153//153
f 158//158 150//150 149//149 157//157
f 150//150 146//146 145//145 149//149
f 146//146 154//154 153//153 145//145
f 122//122 126//126 125//125 121//121
f 126//126 118//118 117//117 125//125
f 118//118 114//114 113//113 117//117
f 114//114 122//122 121//121 113//113
f 94//94 90//90 89//89 93//93
f 90//90 82//82 81//81 89//89
f 82//82 86//86 85//85 81//81
f 86//86 94//94 93//93 85//85
f 62//62 58//58 57//57 61//61
f 58//58 50//50 49//49 57//57
f 50//50 54//54 53//53 49//49
f 54//54 62//62 61//61 53//53
