# Rhino

mtllib Pannelli108.mtl
usemtl diffuse_Black
v 1.3684368976684476 3 -0.26102758501893447
v 1.3684368976684476 0 -0.26102758501893447
v 1.3684368976684509 3 0.26102758501892037
v 1.3684368976684509 0 0.26102758501892037
v 1.3532167076962742 3 -0.27400239974635732
v 1.3532167076962742 0 -0.27400239974635737
v 1.3532167076962776 3 0.27400239974634338
v 1.3532167076962776 0 0.27400239974634338
v 1.3511772869426215 3 -0.3392268891046834
v 1.3511772869426215 0 -0.3392268891046834
v 1.3428324721501315 3 -0.32105096915330156
v 1.3428324721501315 0 -0.32105096915330156
v 1.1704109968522292 3 -0.028732026804649497
v 1.1704109968522292 0 -0.028732026804649417
v 1.1704109968522298 3 0.028732026804637264
v 1.1704109968522298 0 0.028732026804637264
v 1.1551908068800558 3 -0.041706841532072332
v 1.1551908068800558 0 -0.041706841532072318
v 1.1551908068800565 3 0.041706841532060293
v 1.1551908068800565 0 0.041706841532060293
v 1.1314331347284212 3 -0.81278164637243178
v 1.1314331347284212 0 -0.81278164637243178
v 1.1121655676061071 3 -0.81814456136216651
v 1.1121655676061071 0 -0.81814456136216651
v 1.082942311107032 3 -0.85645123846560467
v 1.082942311107032 0 -0.85645123846560467
v 1.0828612365782144 3 -0.87645107413794909
v 1.0828612365782144 0 -0.87645107413794909
v 1.0737704031334385 3 -0.46658820417107161
v 1.0737704031334385 0 -0.46658820417107161
v 1.0654255883409487 3 -0.44841228421968971
v 1.0654255883409487 0 -0.44841228421968971
v 1.0495825577334044 3 -0.51871368346973146
v 1.0495825577334044 0 -0.51871368346973146
v 1.0303149906110902 3 -0.52407659845946619
v 1.0303149906110902 0 -0.52407659845946619
v 0.77769822412815159 3 -0.85521385227245683
v 0.77769822412815159 0 -0.85521385227245683
v 0.77761714959933403 3 -0.87521368794480114
v 0.77761714959933403 0 -0.87521368794480114
v 0.73373569830976137 3 -0.91231538184052252
v 0.73373569830976137 0 -0.91231538184052252
v 0.71400077780544668 3 -0.90906993692674298
v 0.71400077780544668 0 -0.90906993692674298
v 0.68420264784991391 3 -1.2135162461691353
v 0.68420264784991391 0 -1.2135162461691353
v 0.66446772734559922 3 -1.2102708012553558
v 0.66446772734559922 0 -1.2102708012553558
v 0.62183529748073063 3 -1.2327179871577112
v 0.62183529748073063 0 -1.2327179871577112
v 0.61334339774006552 3 -1.2508256551134278
v 0.61334339774006552 0 -1.2508256551134278
v 0.34547009813549118 3 -1.1031118131109967
v 0.34547009813549118 0 -1.1031118131109967
v 0.33697819839482596 3 -1.1212194810667133
v 0.33697819839482596 0 -1.1212194810667133
v 0.28155656492509462 3 -1.1364036834085469
v 0.28155656492509462 0 -1.1364036834085469
v 0.26502115172852225 3 -1.1251529007504992
v 0.26502115172852231 0 -1.1251529007504992
v 0.10984341005140862 3 -1.3887726121685799
v 0.10984341005140857 0 -1.3887726121685799
v 0.09330799685483622 3 -1.3775218295105323
v 0.093307996854836234 0 -1.3775218295105323
v 0.045187742035258244 3 -1.3799387091551794
v 0.045187742035258244 0 -1.3799387091551794
v 0.029862860445908607 3 -1.3927897015010027
v 0.029862860445908607 0 -1.3927897015010027
v -0.15094834076254737 3 -1.1460453129574808
v -0.15094834076254737 0 -1.1460453129574808
v -0.16627322235189704 3 -1.1588963053033043
v -0.16627322235189704 0 -1.1588963053033043
v -0.22293738268125601 3 -1.1493417047685006
v -0.22293738268125607 0 -1.1493417047685006
v -0.23320091457061043 3 -1.1321760438969757
v -0.23320091457061043 0 -1.1321760438969757
v -0.48492535928064318 3 -1.3059871128643661
v -0.48492535928064312 0 -1.3059871128643661
v -0.49518889116999759 3 -1.2888214519928411
v -0.49518889116999748 0 -1.2888214519928411
v -0.53985595338407988 3 -1.2707589553691423
v -0.53985595338407988 0 -1.2707589553691423
v -0.55916636649351159 3 -1.27596548449545
v -0.55916636649351159 0 -1.27596548449545
v -0.61931971776321892 3 -0.97603706288258496
v -0.61931971776321892 0 -0.97603706288258496
v -0.63863013087265064 3 -0.98124359200889244
v -0.63863013087265064 0 -0.98124359200889244
v -0.68600829417001119 3 -0.94872548782399813
v -0.68600829417001119 0 -0.94872548782399813
v -0.6880929220400589 3 -0.92883442634796265
v -0.6880929220400589 0 -0.92883442634796265
v -0.78239153758767532 3 1.1376010965915511
v -0.78239153758767532 0 1.1376010965915511
v -0.80149531681572661 3 0.83295289065662848
v -0.80149531681572661 0 0.83295289065662848
v -0.80235233065946565 3 1.1388527914206412
v -0.80235233065946565 0 1.1388527914206412
v -0.82145610988751694 3 0.83420458548571841
v -0.82145610988751694 0 0.83420458548571841
v -0.85947588118007989 3 0.77298542715920682
v -0.85947588118007989 0 0.77298542715920682
v -0.86139917601934368 3 0.79289273579099495
v -0.86139917601934368 0 0.79289273579099495
v -0.97261796199134054 3 -0.62467556454737994
v -0.97261796199134054 0 -0.62467556454737994
v -0.98959223349652381 3 -0.9805417657828881
v -0.98959223349652392 0 -0.9805417657828881
v -0.99167686136657152 3 -0.96065070430685262
v -0.99167686136657163 0 -0.96065070430685262
v -0.99232592182414869 3 -0.62127022767293982
v -0.99232592182414869 0 -0.62127022767293982
v -1.0151333434761352 3 -0.55291007939242554
v -1.0151333434761352 0 -0.55291007939242554
v -1.0216149553629643 3 -0.57183066890090861
v -1.0216149553629641 0 -0.57183066890090861
v -1.024591336279177 3 -0.92546494621717501
v -1.024591336279177 0 -0.92546494621717501
v -1.044299296111985 3 -0.92205960934273501
v -1.044299296111985 0 -0.92205960934273501
v -1.0776417499262025 3 0.41820272565678851
v -1.0776417499262025 0 0.41820272565678851
v -1.0962749934899572 3 0.41093621106629907
v -1.0962749934899572 0 0.41093621106629907
v -1.1049941706600044 3 0.33940115459170966
v -1.1049941706600044 0 0.33940115459170966
v -1.1151181965910899 3 0.35664946172448958
v -1.1151181965910899 0 0.35664946172448958
v -1.1451982463885957 3 -0.15724578658667249
v -1.1451982463885957 0 -0.15724578658667249
v -1.1535562049262833 3 -0.074251888910964597
v -1.1535562049262833 0 -0.074251888910964597
v -1.1616419017014394 3 -0.14586131470817104
v -1.1616419017014394 0 -0.14586131470817104
v -1.1633077899551896 3 0.74363146711572115
v -1.1633077899551896 0 0.74363146711572115
v -1.1652310847944536 3 0.76353877574750917
v -1.1652310847944536 0 0.76353877574750917
v -1.1673997361457547 3 -0.088686453101667465
v -1.1673997361457547 0 -0.088686453101667506
v -1.1885456917400743 3 0.70258943324050549
v -1.1885456917400743 0 0.70258943324050549
v -1.2071789353038289 3 0.69532291865001605
v -1.2071789353038289 0 0.69532291865001605
v -1.3039056196206471 3 -0.45398558146355583
v -1.3039056196206471 0 -0.45398558146355583
v -1.3103872315074763 3 -0.47290617097203885
v -1.310387231507476 0 -0.47290617097203885
v -1.3189518102288822 3 -0.40821427626806805
v -1.3189518102288822 0 -0.40821427626806805
v -1.3353954655417255 3 -0.39682980438956666
v -1.3353954655417255 0 -0.39682980438956666
v -1.3682435217512765 3 0.18488493243304632
v -1.3682435217512765 0 0.18488493243304632
v -1.3738612834035939 3 0.13703264946623717
v -1.3738612834035939 0 0.13703264946623719
v -1.378367547682362 3 0.20213323956582624
v -1.378367547682362 0 0.20213323956582624
v -1.3877048146230653 3 0.12259808527553429
v -1.3877048146230653 0 0.12259808527553429
vn 0.99684393405914307 0 -0.079386033117771149
vn 0.99684393405914307 0 -0.079386033117771149
vn 0.99684393405914307 0 0.079386033117771149
vn 0.99684393405914307 0 0.079386033117771149
vn -0.079386033117771149 0 -0.99684393405914307
vn -0.079386033117771149 0 -0.99684393405914307
vn -0.079386033117771149 0 0.99684393405914307
vn -0.079386033117771149 0 0.99684393405914307
vn 0.93764954805374146 0 -0.34758207201957703
vn 0.93764954805374146 0 -0.34758207201957703
vn 0.34758207201957703 0 0.93764954805374146
vn 0.34758207201957703 0 0.93764954805374146
vn 0.079386033117771149 0 0.99684393405914307
vn 0.079386033117771149 0 0.99684393405914307
vn 0.079386033117771149 0 -0.99684393405914307
vn 0.079386033117771149 0 -0.99684393405914307
vn -0.99684393405914307 0 0.079386033117771149
vn -0.99684393405914307 0 0.079386033117771149
vn -0.99684393405914307 0 -0.079386033117771149
vn -0.99684393405914307 0 -0.079386033117771149
vn 0.87081903219223022 0 -0.49160370230674744
vn 0.87081903219223022 0 -0.49160370230674744
vn -0.49160370230674744 0 -0.87081903219223022
vn -0.49160370230674744 0 -0.87081903219223022
vn 0.70996737480163574 0 0.7042345404624939
vn 0.70996737480163574 0 0.7042345404624939
vn 0.7042345404624939 0 -0.70996737480163574
vn 0.7042345404624939 0 -0.70996737480163574
vn -0.34758207201957703 0 -0.93764954805374146
vn -0.34758207201957703 0 -0.93764954805374146
vn -0.93764954805374146 0 0.34758207201957703
vn -0.93764954805374146 0 0.34758207201957703
vn 0.49160370230674744 0 0.87081903219223022
vn 0.49160370230674744 0 0.87081903219223022
vn -0.87081903219223022 0 0.49160370230674744
vn -0.87081903219223022 0 0.49160370230674744
vn -0.7042345404624939 0 0.70996737480163574
vn -0.7042345404624939 0 0.70996737480163574
vn -0.70996737480163574 0 -0.7042345404624939
vn -0.70996737480163574 0 -0.7042345404624939
vn 0.81247860193252563 0 0.58299100399017334
vn 0.81247860193252563 0 0.58299100399017334
vn -0.58299100399017334 0 0.81247860193252563
vn -0.58299100399017334 0 0.81247860193252563
vn 0.58299100399017334 0 -0.81247860193252563
vn 0.58299100399017334 0 -0.81247860193252563
vn -0.81247860193252563 0 -0.58299100399017334
vn -0.81247860193252563 0 -0.58299100399017334
vn 0.9404367208480835 0 0.33996874094009399
vn 0.9404367208480835 0 0.33996874094009399
vn 0.33996874094009399 0 -0.9404367208480835
vn 0.33996874094009399 0 -0.9404367208480835
vn -0.33996874094009399 0 0.9404367208480835
vn -0.33996874094009399 0 0.9404367208480835
vn -0.9404367208480835 0 -0.33996874094009399
vn -0.9404367208480835 0 -0.33996874094009399
vn 0.98239040374755859 0 0.18683987855911255
vn 0.98239040374755859 0 0.18683987855911255
vn -0.18683987855911255 0 0.98239040374755859
vn -0.18683987855911255 0 0.98239040374755859
vn 0.18683987855911255 0 -0.98239040374755859
vn 0.18683987855911255 0 -0.98239040374755859
vn -0.98239040374755859 0 -0.18683987855911255
vn -0.98239040374755859 0 -0.18683987855911255
vn 0.99616760015487671 0 -0.087465167045593262
vn 0.99616760015487671 0 -0.087465167045593262
vn -0.087465167045593262 0 -0.99616760015487671
vn -0.087465167045593262 0 -0.99616760015487671
vn 0.087465167045593262 0 0.99616760015487671
vn 0.087465167045593262 0 0.99616760015487671
vn -0.99616760015487671 0 0.087465167045593262
vn -0.99616760015487671 0 0.087465167045593262
vn 0.96976840496063232 0 -0.24402707815170288
vn 0.96976840496063232 0 -0.24402707815170288
vn 0.24402707815170288 0 0.96976840496063232
vn 0.24402707815170288 0 0.96976840496063232
vn -0.24402707815170288 0 -0.96976840496063232
vn -0.24402707815170288 0 -0.96976840496063232
vn -0.96976840496063232 0 0.24402707815170288
vn -0.96976840496063232 0 0.24402707815170288
vn 0.86680477857589722 0 -0.49864760041236877
vn 0.86680477857589722 0 -0.49864760041236877
vn -0.49864760041236877 0 -0.86680477857589722
vn -0.49864760041236877 0 -0.86680477857589722
vn 0.49864760041236877 0 0.86680477857589722
vn 0.49864760041236877 0 0.86680477857589722
vn -0.86680477857589722 0 0.49864760041236877
vn -0.86680477857589722 0 0.49864760041236877
vn 0.7769579291343689 0 -0.62955248355865479
vn 0.7769579291343689 0 -0.62955248355865479
vn 0.62955248355865479 0 0.7769579291343689
vn 0.62955248355865479 0 0.7769579291343689
vn 0.74997466802597046 0 0.66146653890609741
vn 0.74997466802597046 0 0.66146653890609741
vn 0.66146653890609741 0 -0.74997466802597046
vn 0.66146653890609741 0 -0.74997466802597046
vn -0.66146653890609741 0 0.74997466802597046
vn -0.66146653890609741 0 0.74997466802597046
vn -0.74997466802597046 0 -0.66146653890609741
vn -0.74997466802597046 0 -0.66146653890609741
vn 0.77182841300964355 0 -0.63583087921142578
vn 0.77182841300964355 0 -0.63583087921142578
vn 0.63583087921142578 0 0.77182841300964355
vn 0.63583087921142578 0 0.77182841300964355
vn 0.81717842817306519 0 0.5763847827911377
vn 0.81717842817306519 0 0.5763847827911377
vn -0.62955248355865479 0 -0.7769579291343689
vn -0.62955248355865479 0 -0.7769579291343689
vn -0.7769579291343689 0 0.62955248355865479
vn -0.7769579291343689 0 0.62955248355865479
vn -0.5763847827911377 0 0.81717842817306519
vn -0.5763847827911377 0 0.81717842817306519
vn 0.89810347557067871 0 0.43978425860404968
vn 0.89810347557067871 0 0.43978425860404968
vn 0.43978425860404968 0 -0.89810347557067871
vn 0.43978425860404968 0 -0.89810347557067871
vn 0.5763847827911377 0 -0.81717842817306519
vn 0.5763847827911377 0 -0.81717842817306519
vn -0.81717842817306519 0 -0.5763847827911377
vn -0.81717842817306519 0 -0.5763847827911377
vn 0.9156947135925293 0 -0.40187457203865051
vn 0.9156947135925293 0 -0.40187457203865051
vn -0.40187457203865051 0 -0.9156947135925293
vn -0.40187457203865051 0 -0.9156947135925293
vn 0.96775811910629272 0 -0.25188142061233521
vn 0.96775811910629272 0 -0.25188142061233521
vn 0.25188142061233521 0 0.96775811910629272
vn 0.25188142061233521 0 0.96775811910629272
vn 0.98387289047241211 0 0.17886917293071747
vn 0.98387289047241211 0 0.17886917293071747
vn 0.99978166818618774 0 0.020896153524518013
vn 0.99978166818618774 0 0.020896153524518013
vn -0.17886917293071747 0 0.98387289047241211
vn -0.17886917293071747 0 0.98387289047241211
vn -0.63583087921142578 0 -0.77182841300964355
vn -0.63583087921142578 0 -0.77182841300964355
vn -0.77182841300964355 0 0.63583087921142578
vn -0.77182841300964355 0 0.63583087921142578
vn 0.020896153524518013 0 -0.99978166818618774
vn 0.020896153524518013 0 -0.99978166818618774
vn 0.40187457203865051 0 0.9156947135925293
vn 0.40187457203865051 0 0.9156947135925293
vn -0.9156947135925293 0 0.40187457203865051
vn -0.9156947135925293 0 0.40187457203865051
vn -0.43978425860404968 0 0.89810347557067871
vn -0.43978425860404968 0 0.89810347557067871
vn -0.89810347557067871 0 -0.43978425860404968
vn -0.89810347557067871 0 -0.43978425860404968
vn 0.17886917293071747 0 -0.98387289047241211
vn 0.17886917293071747 0 -0.98387289047241211
vn -0.98387289047241211 0 -0.17886917293071747
vn -0.98387289047241211 0 -0.17886917293071747
vn -0.25188142061233521 0 -0.96775811910629272
vn -0.25188142061233521 0 -0.96775811910629272
vn -0.020896153524518013 0 0.99978166818618774
vn -0.020896153524518013 0 0.99978166818618774
vn -0.96775811910629272 0 0.25188142061233521
vn -0.96775811910629272 0 0.25188142061233521
vn -0.99978166818618774 0 -0.020896153524518013
vn -0.99978166818618774 0 -0.020896153524518013
f 6//6 18//18 17//17 5//5
f 18//18 14//14 13//13 17//17
f 14//14 2//2 1//1 13//13
f 2//2 6//6 5//5 1//1
f 24//24 36//36 35//35 23//23
f 36//36 34//34 33//33 35//35
f 34//34 22//22 21//21 33//33
f 22//22 24//24 23//23 21//21
f 48//48 44//44 43//43 47//47
f 44//44 42//42 41//41 43//43
f 42//42 46//46 45//45 41//41
f 46//46 48//48 47//47 45//45
f 64//64 60//60 59//59 63//63
f 60//60 58//58 57//57 59//59
f 58//58 62//62 61//61 57//57
f 62//62 64//64 63//63 61//61
f 80//80 76//76 75//75 79//79
f 76//76 74//74 73//73 75//75
f 74//74 78//78 77//77 73//73
f 78//78 80//80 79//79 77//77
f 110//110 92//92 91//91 109//109
f 92//92 90//90 89//89 91//91
f 90//90 108//108 107//107 89//89
f 108//108 110//110 109//109 107//107
f 146//146 114//114 113//113 145//145
f 114//114 116//116 115//115 113//113
f 116//116 148//148 147//147 115//115
f 148//148 146//146 145//145 147//147
f 156//156 132//132 131//131 155//155
f 132//132 140//140 139//139 131//131
f 140//140 160//160 159//159 139//139
f 160//160 156//156 155//155 159//159
f 142//142 122//122 121//121 141//141
f 122//122 124//124 123//123 121//121
f 124//124 144//144 143//143 123//123
f 144//144 142//142 141//141 143//143
f 94//94 96//96 95//95 93//93
f 96//96 100//100 99//99 95//95
f 100//100 98//98 97//97 99//99
f 98//98 94//94 93//93 97//97
f 8//8 4//4 3//3 7//7
f 4//4 16//16 15//15 3//3
f 16//16 20//20 19//19 15//15
f 20//20 8//8 7//7 19//19
f 12//12 10//10 9//9 11//11
f 10//10 30//30 29//29 9//9
f 30//30 32//32 31//31 29//29
f 32//32 12//12 11//11 31//31
f 26//26 28//28 27//27 25//25
f 28//28 40//40 39//39 27//27
f 40//40 38//38 37//37 39//39
f 38//38 26//26 25//25 37//37
f 50//50 52//52 51//51 49//49
f 52//52 56//56 55//55 51//51
f 56//56 54//54 53//53 55//55
f 54//54 50//50 49//49 53//53
f 66//66 68//68 67//67 65//65
f 68//68 72//72 71//71 67//67
f 72//72 70//70 69//69 71//71
f 70//70 66//66 65//65 69//69
f 82//82 84//84 83//83 81//81
f 84//84 88//88 87//87 83//83
f 88//88 86//86 85//85 87//87
f 86//86 82//82 81//81 85//85
f 118//118 120//120 119//119 117//117
f 120//120 112//112 111//111 119//119
f 112//112 106//106 105//105 111//111
f 106//106 118//118 117//117 105//105
f 150//150 152//152 151//151 149//149
f 152//152 134//134 133//133 151//151
f 134//134 130//130 129//129 133//133
f 130//130 150//150 149//149 129//129
f 154//154 158//158 157//157 153//153
f 158//158 128//128 127//127 157//157
f 128//128 126//126 125//125 127//127
f 126//126 154//154 153//153 125//125
f 136//136 138//138 137//137 135//135
f 138//138 104//104 103//103 137//137
f 104//104 102//102 101//101 103//103
f 102//102 136//136 135//135 101//101
