# Rhino

mtllib Pannelli177.mtl
usemtl diffuse_Black
v 1.1747931363268171 3 -0.33398977893520454
v 1.1747931363268171 0 -0.33398977893520448
v 1.17479313632682 3 0.3339897789351941
v 1.17479313632682 0 0.3339897789351941
v 1.1607663057174111 3 -0.039500823653048744
v 1.1607663057174111 0 -0.039500823653048744
v 1.1607663057174114 3 0.039500823653038482
v 1.1607663057174114 0 0.039500823653038482
v 1.154815785005979 3 -0.33494132199981119
v 1.154815785005979 0 -0.33494132199981114
v 1.1548157850059819 3 0.33494132199980092
v 1.1548157850059819 0 0.33494132199980092
v 1.1488959811812136 3 -0.41439849181608063
v 1.1488959811812136 0 -0.41439849181608063
v 1.140788954396573 3 -0.040452366717655376
v 1.140788954396573 0 -0.040452366717655383
v 1.1407889543965732 3 0.040452366717645294
v 1.1407889543965732 0 0.040452366717645294
v 1.1332288970500597 3 -0.40196698045071011
v 1.1332288970500597 0 -0.40196698045071011
v 1.1259874813681772 3 0.47311761475972886
v 1.1259874813681772 0 0.47311761475972886
v 1.1109825951020291 3 0.45989440077295674
v 1.1109825951020291 0 0.45989440077295679
v 0.96564131764894023 3 -0.64534919013456093
v 0.96564131764894023 0 -0.64534919013456093
v 0.94997423351778632 3 -0.63291767876919047
v 0.94997423351778632 0 -0.63291767876919047
v 0.93106221775853237 3 0.69430676089224352
v 0.93106221775853237 0 0.69430676089224352
v 0.91953580524034839 3 -0.70950168036383121
v 0.91953580524034839 0 -0.70950168036383121
v 0.91605733149238433 3 0.68108354690547146
v 0.91605733149238433 0 0.68108354690547146
v 0.90275807640573491 3 -0.69861555087938265
v 0.90275807640573491 0 -0.69861555087938265
v 0.88170850695894443 3 0.75599526474333434
v 0.88170850695894443 0 0.75599526474333434
v 0.86551472950317365 3 0.74425807718783532
v 0.86551472950317365 0 0.74425807718783532
v 0.75906183411898598 3 -0.95682454900452241
v 0.75906183411898598 0 -0.95682454900452241
v 0.7422841052843725 3 -0.94593841952007385
v 0.7422841052843725 0 -0.94593841952007385
v 0.70868896869992404 3 0.99471002369375183
v 0.70868896869992404 0 0.99471002369375183
v 0.69249519124415326 3 0.9829728361382527
v 0.69249519124415326 0 0.9829728361382527
v 0.6911056321282627 3 -1.0070060033755412
v 0.6911056321282627 0 -1.0070060033755412
v 0.68563838840791447 3 -0.98776777980624297
v 0.68563838840791447 0 -0.98776777980624297
v 0.63823442368700267 3 1.0413188301450744
v 0.63823442368700256 0 1.0413188301450744
v 0.63376695022199558 3 1.0218241723937964
v 0.63376695022199558 0 1.0218241723937964
v 0.40751226334680341 3 -1.0875994146651977
v 0.40751226334680341 0 -1.0875994146651977
v 0.40204501962645517 3 -1.0683611910958994
v 0.40204501962645517 0 -1.0683611910958994
v 0.35086092243768369 3 1.1071744870002622
v 0.35086092243768369 0 1.1071744870002622
v 0.34639344897267671 3 1.0876798292489842
v 0.34639344897267671 0 1.0876798292489842
v 0.33263323144895146 3 -1.1127865315926249
v 0.33263323144895146 0 -1.1127865315926249
v 0.32536221208805716 3 -1.094155045407849
v 0.32536221208805716 0 -1.094155045407849
v 0.27478221098580735 3 1.1284650938703715
v 0.27478221098580735 0 1.1284650938703715
v 0.26848206256490315 3 1.1094833097109578
v 0.26848206256490315 0 1.1094833097109578
v 0.057983864083349435 3 -1.2199696541716722
v 0.057983864083349469 0 -1.2199696541716722
v 0.050712844722455151 3 -1.2013381679868964
v 0.050712844722455179 0 -1.2013381679868964
v -0.005030948262503554 3 1.2213364709011871
v -0.005030948262503554 0 1.2213364709011871
v -0.011331096683407815 3 1.2023546867417731
v -0.011331096683407815 0 1.2023546867417731
v -0.019697432503951284 3 -1.2022467291012726
v -0.019697432503951284 0 -1.2022467291012726
v -0.026485276484788822 3 -1.2210596282423354
v -0.026485276484788822 0 -1.2210596282423354
v -0.081694486102861272 3 1.1996296084301796
v -0.081694486102861286 0 1.1996296084301796
v -0.089443838906448137 3 1.2180672745277512
v -0.08944383890644815 0 1.2180672745277512
v -0.29702103386151713 3 -1.1021861629915888
v -0.29702103386151713 0 -1.1021861629915888
v -0.30380887784235461 3 -1.1209990621326515
v -0.30380887784235461 0 -1.1209990621326515
v -0.35348672420859018 3 1.0853953050638123
v -0.35348672420859018 0 1.0853953050638123
v -0.36123607701217703 3 1.1038329711613839
v -0.36123607701217703 0 1.1038329711613839
v -0.3743438763553899 3 -1.0783795689280777
v -0.3743438763553899 0 -1.0783795689280777
v -0.37931288943754926 3 -1.0977524600130275
v -0.37931288943754926 0 -1.0977524600130275
v -0.4294784319637906 3 1.057631367218375
v -0.4294784319637906 0 1.057631367218375
v -0.43544026556023707 3 1.0767221121008639
v -0.43544026556023707 0 1.0767221121008639
v -0.65992239799108354 3 -1.0051306457927023
v -0.65992239799108354 0 -1.0051306457927023
v -0.6648914110732429 3 -1.0245035368776521
v -0.6648914110732429 0 -1.0245035368776521
v -0.7108977966088954 3 0.969747136762246
v -0.7108977966088954 0 0.969747136762246
v -0.71685963020534182 3 0.98883788164473485
v -0.71685963020534182 0 0.98883788164473485
v -0.71762859087434006 3 -0.96477686126983031
v -0.71762859087434006 0 -0.96477686126983031
v -0.73411983496701816 3 -0.97609228738976528
v -0.73411983496701816 0 -0.97609228738976528
v -0.76644531580577824 3 0.92647005583631103
v -0.76644531580577824 0 0.92647005583631103
v -0.78349835671064205 3 0.93691963936375566
v -0.78349835671064205 0 0.93691963936375555
v -0.88443088428729189 3 -0.72167710464243251
v -0.88443088428729189 0 -0.72167710464243251
v -0.90092212837996988 3 -0.73299253076236748
v -0.90092212837996988 0 -0.73299253076236748
v -0.92048410136394565 3 0.67508877311246673
v -0.92048410136394565 0 0.67508877311246673
v -0.93332654420460637 3 -0.65721944153332335
v -0.93332654420460637 0 -0.65721944153332335
v -0.93753714226880946 3 0.68553835663991136
v -0.93753714226880946 0 0.68553835663991125
v -0.94866763739490501 3 -0.67005107664840391
v -0.94866763739490501 0 -0.67005107664840391
v -0.96598931335652971 3 0.60819444171026893
v -0.96598931335652971 0 0.60819444171026893
v -0.98197195536045323 3 0.62021755089942698
v -0.98197195536045323 0 0.62021755089942698
v -1.1224794884019835 3 -0.43107422168204196
v -1.1224794884019835 0 -0.43107422168204196
v -1.1378205815922822 3 -0.44390585679712252
v -1.1378205815922822 0 -0.44390585679712252
v -1.1393653099035803 3 -0.069875053020403713
v -1.1393653099035803 0 -0.069875053020403713
v -1.1414529215473523 3 0.011002742262738559
v -1.1414529215473523 0 0.011002742262738539
v -1.1432236627702668 3 0.37259206025369324
v -1.1432236627702668 0 0.37259206025369324
v -1.1457886740310368 3 -0.36462789380977867
v -1.1457886740310368 0 -0.36462789380977867
v -1.1592063047741903 3 0.38461516944285112
v -1.1592063047741903 0 0.38461516944285112
v -1.1593605625188188 3 -0.069439308998313257
v -1.1593605625188188 0 -0.069439308998313257
v -1.1613990682006312 3 0.0095360338098103552
v -1.1613990682006312 0 0.0095360338098103362
v -1.1630738778527956 3 0.30503170513639577
v -1.1630738778527956 0 0.30503170513639577
v -1.1657839266462753 3 -0.36419214978768821
v -1.1657839266462753 0 -0.36419214978768821
v -1.1830200245060745 3 0.30356499668346754
v -1.1830200245060745 0 0.30356499668346759
vn 0.73994815349578857 0 -0.67266386747360229
vn 0.73994815349578857 0 -0.67266386747360229
vn 0.73994815349578857 0 0.67266386747360229
vn 0.73994815349578857 0 0.67266386747360229
vn 0.67266386747360229 0 0.73994815349578857
vn 0.67266386747360229 0 0.73994815349578857
vn 0.67266386747360229 0 -0.73994815349578857
vn 0.67266386747360229 0 -0.73994815349578857
vn -0.67266386747360229 0 -0.73994815349578857
vn -0.67266386747360229 0 -0.73994815349578857
vn -0.67266386747360229 0 0.73994815349578857
vn -0.67266386747360229 0 0.73994815349578857
vn 0.99343538284301758 0 0.11439475417137146
vn 0.99343538284301758 0 0.11439475417137146
vn -0.73994815349578857 0 0.67266386747360229
vn -0.73994815349578857 0 0.67266386747360229
vn -0.73994815349578857 0 -0.67266386747360229
vn -0.73994815349578857 0 -0.67266386747360229
vn -0.11439475417137146 0 0.99343538284301758
vn -0.11439475417137146 0 0.99343538284301758
vn 0.99801403284072876 0 -0.062991619110107422
vn 0.99801403284072876 0 -0.062991619110107422
vn -0.062991619110107422 0 -0.99801403284072876
vn -0.062991619110107422 0 -0.99801403284072876
vn 0.11439475417137146 0 -0.99343538284301758
vn 0.11439475417137146 0 -0.99343538284301758
vn -0.99343538284301758 0 -0.11439475417137146
vn -0.99343538284301758 0 -0.11439475417137146
vn 0.062991619110107422 0 0.99801403284072876
vn 0.062991619110107422 0 0.99801403284072876
vn 0.97806507349014282 0 0.20829950273036957
vn 0.97806507349014282 0 0.20829950273036957
vn -0.99801403284072876 0 0.062991619110107422
vn -0.99801403284072876 0 0.062991619110107422
vn -0.20829950273036957 0 0.97806507349014282
vn -0.20829950273036957 0 0.97806507349014282
vn 0.98750871419906616 0 -0.15756422281265259
vn 0.98750871419906616 0 -0.15756422281265259
vn -0.15756422281265259 0 -0.98750871419906616
vn -0.15756422281265259 0 -0.98750871419906616
vn 0.20829950273036957 0 -0.97806507349014282
vn 0.20829950273036957 0 -0.97806507349014282
vn -0.97806507349014282 0 -0.20829950273036957
vn -0.97806507349014282 0 -0.20829950273036957
vn 0.15756422281265259 0 0.98750871419906616
vn 0.15756422281265259 0 0.98750871419906616
vn -0.98750871419906616 0 0.15756422281265259
vn -0.98750871419906616 0 0.15756422281265259
vn 0.87347012758255005 0 -0.4868776798248291
vn 0.87347012758255005 0 -0.4868776798248291
vn 0.4868776798248291 0 0.87347012758255005
vn 0.4868776798248291 0 0.87347012758255005
vn 0.84718924760818481 0 0.53129118680953979
vn 0.84718924760818481 0 0.53129118680953979
vn 0.53129118680953979 0 -0.84718924760818481
vn 0.53129118680953979 0 -0.84718924760818481
vn -0.4868776798248291 0 -0.87347012758255005
vn -0.4868776798248291 0 -0.87347012758255005
vn -0.87347012758255005 0 0.4868776798248291
vn -0.87347012758255005 0 0.4868776798248291
vn -0.53129118680953979 0 0.84718924760818481
vn -0.53129118680953979 0 0.84718924760818481
vn -0.84718924760818481 0 -0.53129118680953979
vn -0.84718924760818481 0 -0.53129118680953979
vn 0.91579186916351318 0 -0.40165314078330994
vn 0.91579186916351318 0 -0.40165314078330994
vn 0.40165314078330994 0 0.91579186916351318
vn 0.40165314078330994 0 0.91579186916351318
vn 0.89385128021240234 0 0.44836357235908508
vn 0.89385128021240234 0 0.44836357235908508
vn 0.44836357235908508 0 -0.89385128021240234
vn 0.44836357235908508 0 -0.89385128021240234
vn -0.40165314078330994 0 -0.91579186916351318
vn -0.40165314078330994 0 -0.91579186916351318
vn -0.91579186916351318 0 0.40165314078330994
vn -0.91579186916351318 0 0.40165314078330994
vn -0.44836357235908508 0 0.89385128021240234
vn -0.44836357235908508 0 0.89385128021240234
vn -0.89385128021240234 0 -0.44836357235908508
vn -0.89385128021240234 0 -0.44836357235908508
vn 0.90512293577194214 0 0.42514991760253906
vn 0.90512293577194214 0 0.42514991760253906
vn 0.42514991760253906 0 -0.90512293577194214
vn 0.42514991760253906 0 -0.90512293577194214
vn 0.92585092782974243 0 -0.37788888812065125
vn 0.92585092782974243 0 -0.37788888812065125
vn 0.37788888812065125 0 0.92585092782974243
vn 0.37788888812065125 0 0.92585092782974243
vn -0.42514991760253906 0 0.90512293577194214
vn -0.42514991760253906 0 0.90512293577194214
vn -0.90512293577194214 0 -0.42514991760253906
vn -0.90512293577194214 0 -0.42514991760253906
vn -0.37788888812065125 0 -0.92585092782974243
vn -0.37788888812065125 0 -0.92585092782974243
vn -0.92585092782974243 0 0.37788888812065125
vn -0.92585092782974243 0 0.37788888812065125
vn 0.86061626672744751 0 0.50925397872924805
vn 0.86061626672744751 0 0.50925397872924805
vn 0.50925397872924805 0 -0.86061626672744751
vn 0.50925397872924805 0 -0.86061626672744751
vn 0.88574236631393433 0 -0.46417713165283203
vn 0.88574236631393433 0 -0.46417713165283203
vn 0.46417713165283203 0 0.88574236631393433
vn 0.46417713165283203 0 0.88574236631393433
vn -0.50925397872924805 0 0.86061626672744751
vn -0.50925397872924805 0 0.86061626672744751
vn -0.86061626672744751 0 -0.50925397872924805
vn -0.86061626672744751 0 -0.50925397872924805
vn -0.46417713165283203 0 -0.88574236631393433
vn -0.46417713165283203 0 -0.88574236631393433
vn -0.88574236631393433 0 0.46417713165283203
vn -0.88574236631393433 0 0.46417713165283203
vn 0.98311424255371094 0 -0.18299281597137451
vn 0.98311424255371094 0 -0.18299281597137451
vn -0.18299281597137451 0 -0.98311424255371094
vn -0.18299281597137451 0 -0.98311424255371094
vn 0.97236460447311401 0 0.23346748948097229
vn 0.97236460447311401 0 0.23346748948097229
vn -0.23346748948097229 0 0.97236460447311401
vn -0.23346748948097229 0 0.97236460447311401
vn 0.18299281597137451 0 0.98311424255371094
vn 0.18299281597137451 0 0.98311424255371094
vn -0.98311424255371094 0 0.18299281597137451
vn -0.98311424255371094 0 0.18299281597137451
vn 0.23346748948097229 0 -0.97236460447311401
vn 0.23346748948097229 0 -0.97236460447311401
vn 0.99605637788772583 0 -0.088722735643386841
vn 0.99605637788772583 0 -0.088722735643386841
vn -0.97236460447311401 0 -0.23346748948097229
vn -0.97236460447311401 0 -0.23346748948097229
vn -0.088722735643386841 0 -0.99605637788772583
vn -0.088722735643386841 0 -0.99605637788772583
vn 0.99015283584594727 0 0.13999062776565552
vn 0.99015283584594727 0 0.13999062776565552
vn -0.13999062776565552 0 0.99015283584594727
vn -0.13999062776565552 0 0.99015283584594727
vn 0.088722735643386841 0 0.99605637788772583
vn 0.088722735643386841 0 0.99605637788772583
vn -0.99605637788772583 0 0.088722735643386841
vn -0.99605637788772583 0 0.088722735643386841
vn 0.72234481573104858 0 0.69153308868408203
vn 0.72234481573104858 0 0.69153308868408203
vn 0.75705873966217041 0 -0.65334677696228027
vn 0.75705873966217041 0 -0.65334677696228027
vn 0.13999062776565552 0 -0.99015283584594727
vn 0.13999062776565552 0 -0.99015283584594727
vn 0.69153308868408203 0 -0.72234481573104858
vn 0.69153308868408203 0 -0.72234481573104858
vn -0.99015283584594727 0 -0.13999062776565552
vn -0.99015283584594727 0 -0.13999062776565552
vn -0.69153308868408203 0 0.72234481573104858
vn -0.69153308868408203 0 0.72234481573104858
vn -0.65334677696228027 0 -0.75705873966217041
vn -0.65334677696228027 0 -0.75705873966217041
vn 0.65334677696228027 0 0.75705873966217041
vn 0.65334677696228027 0 0.75705873966217041
vn -0.72234481573104858 0 -0.69153308868408203
vn -0.72234481573104858 0 -0.69153308868408203
vn -0.75705873966217041 0 0.65334677696228027
vn -0.75705873966217041 0 0.65334677696228027
f 10//10 16//16 15//15 9//9
f 16//16 6//6 5//5 15//15
f 6//6 2//2 1//1 5//5
f 2//2 10//10 9//9 1//1
f 44//44 36//36 35//35 43//43
f 36//36 32//32 31//31 35//35
f 32//32 42//42 41//41 31//31
f 42//42 44//44 43//43 41//41
f 76//76 68//68 67//67 75//75
f 68//68 66//66 65//65 67//67
f 66//66 74//74 73//73 65//65
f 74//74 76//76 75//75 73//73
f 106//106 98//98 97//97 105//105
f 98//98 100//100 99//99 97//97
f 100//100 108//108 107//107 99//99
f 108//108 106//106 105//105 107//107
f 138//138 128//128 127//127 137//137
f 128//128 132//132 131//131 127//127
f 132//132 140//140 139//139 131//131
f 140//140 138//138 137//137 139//139
f 156//156 144//144 143//143 155//155
f 144//144 154//154 153//153 143//143
f 154//154 160//160 159//159 153//153
f 160//160 156//156 155//155 159//159
f 118//118 126//126 125//125 117//117
f 126//126 130//130 129//129 125//125
f 130//130 120//120 119//119 129//129
f 120//120 118//118 117//117 119//119
f 86//86 94//94 93//93 85//85
f 94//94 96//96 95//95 93//93
f 96//96 88//88 87//87 95//95
f 88//88 86//86 85//85 87//87
f 56//56 64//64 63//63 55//55
f 64//64 62//62 61//61 63//63
f 62//62 54//54 53//53 61//61
f 54//54 56//56 55//55 53//53
f 24//24 34//34 33//33 23//23
f 34//34 30//30 29//29 33//33
f 30//30 22//22 21//21 29//29
f 22//22 24//24 23//23 21//21
f 12//12 4//4 3//3 11//11
f 4//4 8//8 7//7 3//3
f 8//8 18//18 17//17 7//7
f 18//18 12//12 11//11 17//17
f 20//20 14//14 13//13 19//19
f 14//14 26//26 25//25 13//13
f 26//26 28//28 27//27 25//25
f 28//28 20//20 19//19 27//27
f 52//52 50//50 49//49 51//51
f 50//50 58//58 57//57 49//49
f 58//58 60//60 59//59 57//57
f 60//60 52//52 51//51 59//59
f 82//82 84//84 83//83 81//81
f 84//84 92//92 91//91 83//83
f 92//92 90//90 89//89 91//91
f 90//90 82//82 81//81 89//89
f 114//114 116//116 115//115 113//113
f 116//116 124//124 123//123 115//115
f 124//124 122//122 121//121 123//123
f 122//122 114//114 113//113 121//121
f 148//148 158//158 157//157 147//147
f 158//158 152//152 151//151 157//157
f 152//152 142//142 141//141 151//151
f 142//142 148//148 147//147 141//141
f 146//146 150//150 149//149 145//145
f 150//150 136//136 135//135 149//149
f 136//136 134//134 133//133 135//135
f 134//134 146//146 145//145 133//133
f 110//110 112//112 111//111 109//109
f 112//112 104//104 103//103 111//111
f 104//104 102//102 101//101 103//103
f 102//102 110//110 109//109 101//101
f 80//80 78//78 77//77 79//79
f 78//78 70//70 69//69 77//77
f 70//70 72//72 71//71 69//69
f 72//72 80//80 79//79 71//71
f 48//48 46//46 45//45 47//47
f 46//46 38//38 37//37 45//45
f 38//38 40//40 39//39 37//37
f 40//40 48//48 47//47 39//39
