# Rhino

mtllib Pannelli135.mtl
usemtl diffuse_Black
v 1.2982864192885635 3 -0.30349455208776177
v 1.2982864192885635 0 -0.30349455208776172
v 1.2982864192885655 3 0.3034945520877515
v 1.2982864192885655 0 0.3034945520877515
v 1.2802875521408539 3 -0.31221468863480684
v 1.2802875521408539 0 -0.31221468863480678
v 1.2802875521408559 3 0.31221468863479673
v 1.2802875521408559 0 0.31221468863479673
v 1.2767866643507586 3 -0.38402133194932381
v 1.2767866643507586 0 -0.38402133194932381
v 1.2655296080598053 3 -0.36749018910733244
v 1.2655296080598053 0 -0.36749018910733244
v 1.1675456570774227 3 -0.033638042716239984
v 1.1675456570774227 0 -0.033638042716240012
v 1.167545657077423 3 0.033638042716230811
v 1.167545657077423 0 0.033638042716230811
v 1.1495467899297132 3 -0.042358179263285035
v 1.1495467899297132 0 -0.042358179263285056
v 1.1495467899297134 3 0.042358179263276063
v 1.1495467899297134 0 0.042358179263276063
v 1.028935704251335 3 -0.55279806059259973
v 1.028935704251335 0 -0.55279806059259973
v 1.0176786479603819 3 -0.53626691775060842
v 1.0176786479603819 0 -0.53626691775060842
v 0.99540214535960125 3 -0.61112105862229416
v 0.99540214535960125 0 -0.61112105862229416
v 0.97545203831920113 3 -0.60970924097238699
v 0.97545203831920113 0 -0.60970924097238699
v 0.9742348030070821 3 -0.91023245287444132
v 0.9742348030070821 0 -0.91023245287444121
v 0.95428469596668197 3 -0.90882063522453416
v 0.95428469596668197 0 -0.90882063522453405
v 0.91545790399004578 3 -0.96932625863443
v 0.91545790399004578 0 -0.96932625863443
v 0.91393883195752634 3 -0.94938403157324058
v 0.91393883195752634 0 -0.94938403157324058
v 0.61646465404477691 3 -0.99210166293156865
v 0.61646465404477691 0 -0.99210166293156865
v 0.61494558201225757 3 -0.97215943587037923
v 0.61494558201225757 0 -0.97215943587037923
v 0.55832281429298702 3 -1.0259483487574259
v 0.55832281429298702 0 -1.0259483487574261
v 0.54173137951900185 3 -1.0147803457067188
v 0.54173137951900197 0 -1.0147803457067188
v 0.39088125837829385 3 -1.2747032640990104
v 0.39088125837829385 0 -1.2747032640990104
v 0.37428982360430879 3 -1.2635352610483033
v 0.37428982360430879 0 -1.2635352610483033
v 0.31909447798409302 3 -1.2785902166394858
v 0.31909447798409302 0 -1.2785902166394858
v 0.31047125018033739 3 -1.2966357130927437
v 0.31047125018033739 0 -1.2966357130927437
v 0.29152195333752134 3 1.2851572583495081
v 0.29152195333752129 0 1.2851572583495081
v 0.28251261453588217 3 1.3030131205341604
v 0.28251261453588217 0 1.3030131205341604
v 0.048538856744783199 3 -1.149302404493316
v 0.048538856744783199 0 -1.149302404493316
v 0.039915628941027508 3 -1.1673479009465741
v 0.039915628941027508 0 -1.1673479009465741
v 0.023809513358633273 3 1.1500804948619177
v 0.023809513358633249 0 1.1500804948619177
v 0.014800174556994134 3 1.16793635704657
v 0.014800174556994169 0 1.16793635704657
v -0.027359483881356977 3 -1.1677096548028865
v -0.027359483881356964 0 -1.1677096548028865
v -0.036176277037736196 3 -1.1497579373798199
v -0.036176277037736189 0 -1.1497579373798199
v -0.052467157553430413 3 1.166851137316322
v -0.052467157553430413 0 1.166851137316322
v -0.060895822684024471 3 1.1487139488871214
v -0.060895822684024471 0 1.1487139488871214
v -0.29650907875622939 3 -1.2998995868416923
v -0.29650907875622945 0 -1.2998995868416923
v -0.30532587191260863 3 -1.2819478694186257
v -0.30532587191260868 0 -1.2819478694186257
v -0.3243975140114696 3 1.2932218767710544
v -0.3243975140114696 0 1.2932218767710544
v -0.33282617914206358 3 1.2750846883418538
v -0.33282617914206358 0 1.2750846883418538
v -0.3606799290020854 3 -1.2674873635587844
v -0.3606799290020854 0 -1.2674873635587844
v -0.37715030193075677 3 -1.2788331476035522
v -0.37715030193075677 0 -1.2788331476035522
v -0.38785642966811196 3 1.2594370242021844
v -0.38785642966811196 0 1.2594370242021844
v -0.40456700740285551 3 1.2704259546219796
v -0.40456700740285551 0 1.2704259546219796
v -0.53078695036502255 3 -1.0205475250621148
v -0.53078695036502255 0 -1.0205475250621148
v -0.54725732329369381 3 -1.0318933091068825
v -0.54725732329369381 0 -1.0318933091068825
v -0.55261315465954186 3 1.0088958017979053
v -0.55261315465954186 0 1.0088958017979053
v -0.56932373239428535 3 1.0198847322177005
v -0.56932373239428535 0 1.0198847322177005
v -0.60445527080460326 3 -0.97871643655593255
v -0.60445527080460326 0 -0.97871643655593255
v -0.60575979325061458 3 -0.99867384673831494
v -0.60575979325061458 0 -0.99867384673831494
v -0.62536477160832082 3 0.96548999995830165
v -0.62536477160832082 0 0.96548999995830165
v -0.62709821753887407 3 0.98541473747742236
v -0.62709821753887407 0 0.98541473747742236
v -0.90367616085927172 3 -0.95915776818039522
v -0.90367616085927172 0 -0.95915776818039522
v -0.90498068330528303 3 -0.97911517836277762
v -0.90498068330528303 0 -0.97911517836277762
v -0.92409580134081915 3 0.9395004938319178
v -0.92409580134081915 0 0.9395004938319178
v -0.92582924727137228 3 0.95942523135103852
v -0.92582924727137228 0 0.95942523135103852
v -0.94445591669782636 3 -0.91903060307076645
v -0.94445591669782636 0 -0.91903060307076645
v -0.96400310731440386 3 0.89850555760903494
v -0.96400310731440386 0 0.89850555760903494
v -0.96438968717041795 3 -0.92065688556346204
v -0.96438968717041795 0 -0.92065688556346204
v -0.9688387244117368 3 -0.62016414252070973
v -0.9688387244117368 0 -0.62016414252070973
v -0.98195253619378498 3 0.59918382342216336
v -0.98195253619378498 0 0.59918382342216336
v -0.98396724359037724 3 0.89970274713219911
v -0.98396724359037724 0 0.89970274713219911
v -0.98877249488432839 3 -0.6217904250134052
v -0.98877249488432839 0 -0.6217904250134052
v -1.0019166724697584 3 0.60038101294532753
v -1.0019166724697584 0 0.60038101294532753
v -1.0118527021026045 3 -0.54718017767081717
v -1.0118527021026045 0 -0.54718017767081717
v -1.0229313290015185 3 -0.56383142465218961
v -1.0229313290015185 0 -0.56383142465218972
v -1.023386894061225 3 0.52529163580998262
v -1.023386894061225 0 0.52529163580998262
v -1.0348210778079019 3 0.54170076260110833
v -1.0348210778079019 0 0.54170076260110833
v -1.1490247881367863 3 -0.054718130774191992
v -1.1490247881367863 0 -0.054718130774191992
v -1.1499358407385201 3 0.029993328811614151
v -1.1499358407385201 0 0.029993328811614168
v -1.167116392128259 3 -0.046192061045662626
v -1.167116392128259 0 -0.046192061045662626
v -1.1678398893811361 3 0.021080133974584331
v -1.1678398893811361 0 0.021080133974584372
v -1.2615043801888046 3 -0.38107863588845919
v -1.2615043801888046 0 -0.38107863588845914
v -1.2694084709387115 3 0.35385924020038029
v -1.2694084709387115 0 0.35385924020038029
v -1.2725830070877187 3 -0.39772988286983174
v -1.2725830070877187 0 -0.39772988286983169
v -1.2768559119912617 3 -0.32596504103831636
v -1.2768559119912617 0 -0.32596504103831636
v -1.2808426546853886 3 0.37026836699150611
v -1.2808426546853886 0 0.37026836699150611
v -1.2835711204663998 3 0.29842822700069754
v -1.2835711204663998 0 0.29842822700069754
v -1.2949475159827342 3 -0.31743897130978699
v -1.2949475159827342 0 -0.31743897130978699
v -1.3014751691090158 3 0.28951503216366775
v -1.3014751691090158 0 0.28951503216366775
vn 0.94465941190719604 0 -0.32805266976356506
vn 0.94465941190719604 0 -0.32805266976356506
vn 0.94465941190719604 0 0.32805266976356506
vn 0.94465941190719604 0 0.32805266976356506
vn -0.32805266976356506 0 -0.94465941190719604
vn -0.32805266976356506 0 -0.94465941190719604
vn -0.32805266976356506 0 0.94465941190719604
vn -0.32805266976356506 0 0.94465941190719604
vn 0.98246121406555176 0 -0.18646712601184845
vn 0.98246121406555176 0 -0.18646712601184845
vn 0.18646712601184845 0 0.98246121406555176
vn 0.18646712601184845 0 0.98246121406555176
vn 0.32805266976356506 0 0.94465941190719604
vn 0.32805266976356506 0 0.94465941190719604
vn 0.32805266976356506 0 -0.94465941190719604
vn 0.32805266976356506 0 -0.94465941190719604
vn -0.94465941190719604 0 0.32805266976356506
vn -0.94465941190719604 0 0.32805266976356506
vn -0.94465941190719604 0 -0.32805266976356506
vn -0.94465941190719604 0 -0.32805266976356506
vn -0.18646712601184845 0 -0.98246121406555176
vn -0.18646712601184845 0 -0.98246121406555176
vn -0.98246121406555176 0 0.18646712601184845
vn -0.98246121406555176 0 0.18646712601184845
vn 0.75525808334350586 0 0.65542745590209961
vn 0.75525808334350586 0 0.65542745590209961
vn -0.65542745590209961 0 0.75525808334350586
vn -0.65542745590209961 0 0.75525808334350586
vn 0.65542745590209961 0 -0.75525808334350586
vn 0.65542745590209961 0 -0.75525808334350586
vn -0.75525808334350586 0 -0.65542745590209961
vn -0.75525808334350586 0 -0.65542745590209961
vn 0.75877153873443604 0 -0.65135687589645386
vn 0.75877153873443604 0 -0.65135687589645386
vn 0.65135687589645386 0 0.75877153873443604
vn 0.65135687589645386 0 0.75877153873443604
vn -0.65135687589645386 0 -0.75877153873443604
vn -0.65135687589645386 0 -0.75877153873443604
vn -0.75877153873443604 0 0.65135687589645386
vn -0.75877153873443604 0 0.65135687589645386
vn 0.98144435882568359 0 0.1917472630739212
vn 0.98144435882568359 0 0.1917472630739212
vn -0.1917472630739212 0 0.98144435882568359
vn -0.1917472630739212 0 0.98144435882568359
vn 0.1917472630739212 0 -0.98144435882568359
vn 0.1917472630739212 0 -0.98144435882568359
vn -0.98144435882568359 0 -0.1917472630739212
vn -0.98144435882568359 0 -0.1917472630739212
vn 0.94288176298141479 0 0.33312749862670898
vn 0.94288176298141479 0 0.33312749862670898
vn 0.33312749862670898 0 -0.94288176298141479
vn 0.33312749862670898 0 -0.94288176298141479
vn 0.94982826709747314 0 -0.31277185678482056
vn 0.94982826709747314 0 -0.31277185678482056
vn 0.31277185678482056 0 0.94982826709747314
vn 0.31277185678482056 0 0.94982826709747314
vn -0.33312749862670898 0 0.94288176298141479
vn -0.33312749862670898 0 0.94288176298141479
vn -0.94288176298141479 0 -0.33312749862670898
vn -0.94288176298141479 0 -0.33312749862670898
vn -0.31277185678482056 0 -0.94982826709747314
vn -0.31277185678482056 0 -0.94982826709747314
vn -0.94982826709747314 0 0.31277185678482056
vn -0.94982826709747314 0 0.31277185678482056
vn 0.94640976190567017 0 -0.32296836376190186
vn 0.94640976190567017 0 -0.32296836376190186
vn 0.32296836376190186 0 0.94640976190567017
vn 0.32296836376190186 0 0.94640976190567017
vn 0.93924474716186523 0 0.34324812889099121
vn 0.93924474716186523 0 0.34324812889099121
vn 0.34324812889099121 0 -0.93924474716186523
vn 0.34324812889099121 0 -0.93924474716186523
vn -0.32296836376190186 0 -0.94640976190567017
vn -0.32296836376190186 0 -0.94640976190567017
vn -0.94640976190567017 0 0.32296836376190186
vn -0.94640976190567017 0 0.32296836376190186
vn -0.34324812889099121 0 0.93924474716186523
vn -0.34324812889099121 0 0.93924474716186523
vn -0.93924474716186523 0 -0.34324812889099121
vn -0.93924474716186523 0 -0.34324812889099121
vn 0.98344963788986206 0 -0.18118157982826233
vn 0.98344963788986206 0 -0.18118157982826233
vn -0.18118157982826233 0 -0.98344963788986206
vn -0.18118157982826233 0 -0.98344963788986206
vn 0.97932547330856323 0 0.20229078829288483
vn 0.97932547330856323 0 0.20229078829288483
vn -0.20229078829288483 0 0.97932547330856323
vn -0.20229078829288483 0 0.97932547330856323
vn 0.18118157982826233 0 0.98344963788986206
vn 0.18118157982826233 0 0.98344963788986206
vn -0.98344963788986206 0 0.18118157982826233
vn -0.98344963788986206 0 0.18118157982826233
vn 0.20229078829288483 0 -0.97932547330856323
vn 0.20229078829288483 0 -0.97932547330856323
vn -0.97932547330856323 0 -0.20229078829288483
vn -0.97932547330856323 0 -0.20229078829288483
vn 0.75172287225723267 0 0.65947914123535156
vn 0.75172287225723267 0 0.65947914123535156
vn 0.65947914123535156 0 -0.75172287225723267
vn 0.65947914123535156 0 -0.75172287225723267
vn 0.76573240756988525 0 -0.64315927028656006
vn 0.76573240756988525 0 -0.64315927028656006
vn 0.64315927028656006 0 0.76573240756988525
vn 0.64315927028656006 0 0.76573240756988525
vn -0.65947914123535156 0 0.75172287225723267
vn -0.65947914123535156 0 0.75172287225723267
vn -0.75172287225723267 0 -0.65947914123535156
vn -0.75172287225723267 0 -0.65947914123535156
vn -0.64315927028656006 0 -0.76573240756988525
vn -0.64315927028656006 0 -0.76573240756988525
vn -0.76573240756988525 0 0.64315927028656006
vn -0.76573240756988525 0 0.64315927028656006
vn 0.76226300001144409 0 -0.64726740121841431
vn 0.76226300001144409 0 -0.64726740121841431
vn 0.74816584587097168 0 0.66351175308227539
vn 0.74816584587097168 0 0.66351175308227539
vn -0.64726740121841431 0 -0.76226300001144409
vn -0.64726740121841431 0 -0.76226300001144409
vn 0.64726740121841431 0 0.76226300001144409
vn 0.64726740121841431 0 0.76226300001144409
vn 0.66351175308227539 0 -0.74816584587097168
vn 0.66351175308227539 0 -0.74816584587097168
vn -0.66351175308227539 0 0.74816584587097168
vn -0.66351175308227539 0 0.74816584587097168
vn -0.76226300001144409 0 0.64726740121841431
vn -0.76226300001144409 0 0.64726740121841431
vn -0.74816584587097168 0 -0.66351175308227539
vn -0.74816584587097168 0 -0.66351175308227539
vn 0.98039907217025757 0 0.19702185690402985
vn 0.98039907217025757 0 0.19702185690402985
vn 0.19702185690402985 0 -0.98039907217025757
vn 0.19702185690402985 0 -0.98039907217025757
vn 0.98440968990325928 0 -0.17589077353477478
vn 0.98440968990325928 0 -0.17589077353477478
vn 0.17589077353477478 0 0.98440968990325928
vn 0.17589077353477478 0 0.98440968990325928
vn 0.94107687473297119 0 0.33819270133972168
vn 0.94107687473297119 0 0.33819270133972168
vn 0.94813275337219238 0 -0.31787467002868652
vn 0.94813275337219238 0 -0.31787467002868652
vn -0.33819270133972168 0 0.94107687473297119
vn -0.33819270133972168 0 0.94107687473297119
vn -0.31787467002868652 0 -0.94813275337219238
vn -0.31787467002868652 0 -0.94813275337219238
vn -0.19702185690402985 0 0.98039907217025757
vn -0.19702185690402985 0 0.98039907217025757
vn -0.17589077353477478 0 -0.98440968990325928
vn -0.17589077353477478 0 -0.98440968990325928
vn -0.98039907217025757 0 -0.19702185690402985
vn -0.98039907217025757 0 -0.19702185690402985
vn 0.33819270133972168 0 -0.94107687473297119
vn 0.33819270133972168 0 -0.94107687473297119
vn -0.98440968990325928 0 0.17589077353477478
vn -0.98440968990325928 0 0.17589077353477478
vn 0.31787467002868652 0 0.94813275337219238
vn 0.31787467002868652 0 0.94813275337219238
vn -0.94107687473297119 0 -0.33819270133972168
vn -0.94107687473297119 0 -0.33819270133972168
vn -0.94813275337219238 0 0.31787467002868652
vn -0.94813275337219238 0 0.31787467002868652
f 6//6 18//18 17//17 5//5
f 18//18 14//14 13//13 17//17
f 14//14 2//2 1//1 13//13
f 2//2 6//6 5//5 1//1
f 32//32 28//28 27//27 31//31
f 28//28 26//26 25//25 27//27
f 26//26 30//30 29//29 25//25
f 30//30 32//32 31//31 29//29
f 48//48 44//44 43//43 47//47
f 44//44 42//42 41//41 43//43
f 42//42 46//46 45//45 41//41
f 46//46 48//48 47//47 45//45
f 76//76 68//68 67//67 75//75
f 68//68 66//66 65//65 67//67
f 66//66 74//74 73//73 65//65
f 74//74 76//76 75//75 73//73
f 106//106 98//98 97//97 105//105
f 98//98 100//100 99//99 97//97
f 100//100 108//108 107//107 99//99
f 108//108 106//106 105//105 107//107
f 146//146 130//130 129//129 145//145
f 130//130 132//132 131//131 129//129
f 132//132 150//150 149//149 131//131
f 150//150 146//146 145//145 149//149
f 156//156 140//140 139//139 155//155
f 140//140 144//144 143//143 139//139
f 144//144 160//160 159//159 143//143
f 160//160 156//156 155//155 159//159
f 116//116 122//122 121//121 115//115
f 122//122 128//128 127//127 121//121
f 128//128 124//124 123//123 127//127
f 124//124 116//116 115//115 123//123
f 86//86 94//94 93//93 85//85
f 94//94 96//96 95//95 93//93
f 96//96 88//88 87//87 95//95
f 88//88 86//86 85//85 87//87
f 54//54 62//62 61//61 53//53
f 62//62 64//64 63//63 61//61
f 64//64 56//56 55//55 63//63
f 56//56 54//54 53//53 55//55
f 8//8 4//4 3//3 7//7
f 4//4 16//16 15//15 3//3
f 16//16 20//20 19//19 15//15
f 20//20 8//8 7//7 19//19
f 12//12 10//10 9//9 11//11
f 10//10 22//22 21//21 9//9
f 22//22 24//24 23//23 21//21
f 24//24 12//12 11//11 23//23
f 36//36 34//34 33//33 35//35
f 34//34 38//38 37//37 33//33
f 38//38 40//40 39//39 37//37
f 40//40 36//36 35//35 39//39
f 50//50 52//52 51//51 49//49
f 52//52 60//60 59//59 51//51
f 60//60 58//58 57//57 59//59
f 58//58 50//50 49//49 57//57
f 82//82 84//84 83//83 81//81
f 84//84 92//92 91//91 83//83
f 92//92 90//90 89//89 91//91
f 90//90 82//82 81//81 89//89
f 114//114 118//118 117//117 113//113
f 118//118 126//126 125//125 117//117
f 126//126 120//120 119//119 125//125
f 120//120 114//114 113//113 119//119
f 152//152 158//158 157//157 151//151
f 158//158 142//142 141//141 157//157
f 142//142 138//138 137//137 141//141
f 138//138 152//152 151//151 137//137
f 148//148 154//154 153//153 147//147
f 154//154 136//136 135//135 153//153
f 136//136 134//134 133//133 135//135
f 134//134 148//148 147//147 133//133
f 110//110 112//112 111//111 109//109
f 112//112 104//104 103//103 111//111
f 104//104 102//102 101//101 103//103
f 102//102 110//110 109//109 101//101
f 80//80 78//78 77//77 79//79
f 78//78 70//70 69//69 77//77
f 70//70 72//72 71//71 69//69
f 72//72 80//80 79//79 71//71
