# Rhino

mtllib Pannelli42.mtl
usemtl diffuse_Black
v 1.483757080132065 3 -0.099138508942970077
v 1.483757080132065 0 -0.099138508942970077
v 1.4837570801320656 3 0.099138508942966483
v 1.4837570801320656 0 0.099138508942966483
v 1.4785798567831889 3 -0.1184567997161171
v 1.4785798567831889 0 -0.11845679971611708
v 1.4785798567831896 3 0.11845679971611349
v 1.4785798567831896 0 0.11845679971611349
v 1.4778326850380883 3 -0.16545111613580143
v 1.4778326850380883 0 -0.16545111613580143
v 1.4761619280578748 3 -0.14552102403583678
v 1.4761619280578748 0 -0.14552102403583678
v 1.4426849265469528 3 -0.36058801909059579
v 1.4426849265469528 0 -0.36058801909059579
v 1.434165220295708 3 -0.37868262064444336
v 1.434165220295708 0 -0.37868262064444336
v 1.4269880196380842 3 -0.40488961223197606
v 1.4269880196380842 0 -0.40488961223197606
v 1.4250993906627274 3 -0.42480023955994961
v 1.4250993906627274 0 -0.42480023955994961
v 1.3559171444206664 3 -0.61061625777862438
v 1.3559171444206664 0 -0.61061625777862438
v 1.344324808597446 3 -0.62691404137522688
v 1.344324808597446 0 -0.62691404137522688
v 1.3326156667913733 3 -0.65143371950349949
v 1.3326156667913733 0 -0.65143371950349949
v 1.3272274723288817 3 -0.67069423248821447
v 1.3272274723288817 0 -0.67069423248821447
v 1.2262020180586886 3 -0.8413038260380532
v 1.2262020180586886 0 -0.84130382603805309
v 1.2119042285187018 3 -0.85528857538404612
v 1.2119042285187018 0 -0.85528857538404601
v 1.1960340211342095 3 -0.87734430332311031
v 1.1960340211342095 0 -0.87734430332311031
v 1.1873169269537573 3 -0.89534464412680426
v 1.1873169269537573 0 -0.89534464412680426
v 1.171732989404398 3 -0.015517321804999233
v 1.171732989404398 0 -0.015517321804999259
v 1.1717329894043984 3 0.015517321804996391
v 1.1717329894043984 0 0.015517321804996391
v 1.1665557660555219 3 -0.034835612578146262
v 1.1665557660555219 0 -0.034835612578146262
v 1.1665557660555224 3 0.034835612578143396
v 1.1665557660555224 0 0.034835612578143396
v 1.1559269357854551 3 -0.19243675548142081
v 1.1559269357854551 0 -0.19243675548142081
v 1.1542561788052417 3 -0.17250666338145618
v 1.1542561788052417 0 -0.17250666338145618
v 1.150425551055682 3 -0.22297990315900088
v 1.150425551055682 0 -0.22297990315900088
v 1.1419058448044372 3 -0.24107450471284841
v 1.1419058448044372 0 -0.24107450471284841
v 1.1053966604033392 3 -0.37438496015495332
v 1.1053966604033392 0 -0.37438496015495332
v 1.1035080314279826 3 -0.39429558748292687
v 1.1035080314279826 0 -0.39429558748292687
v 1.092679512928191 3 -0.42337981501434191
v 1.092679512928191 0 -0.42337981501434191
v 1.0810871771049706 3 -0.43967759861094435
v 1.0810871771049706 0 -0.4396775986109443
v 1.0576481467271071 3 -1.045343921645973
v 1.0576481467271073 0 -1.045343921645973
v 1.0410977719156791 3 -1.0565726835368161
v 1.0410977719156793 0 -1.0565726835368161
v 1.0215691721894316 3 -1.075465867759726
v 1.0215691721894316 0 -1.075465867759726
v 1.0215247881222396 3 -0.56440498090723334
v 1.0215247881222396 0 -0.56440498090723334
v 1.016136593659748 3 -0.58366549389194844
v 1.016136593659748 0 -0.58366549389194844
v 1.0097992836902632 3 -1.0916358932611641
v 1.0097992836902632 0 -1.0916358932611641
v 1.0003239240813855 3 -0.61036958692663079
v 1.0003239240813855 0 -0.61036958692663079
v 0.98602613454139854 3 -0.62435433627262371
v 0.98602613454139854 0 -0.62435433627262371
v 0.90529712116644201 3 -0.73654802805304809
v 0.90529712116644201 0 -0.73654802805304809
v 0.8965800269859896 3 -0.75454836885674192
v 0.8965800269859896 0 -0.75454836885674192
v 0.87628405711220447 3 -0.77802650146736152
v 0.87628405711220436 0 -0.77802650146736163
v 0.8597336823007764 3 -0.78925526335820462
v 0.85973368230077629 0 -0.78925526335820462
v 0.85559430880491338 3 -1.2162737749117627
v 0.85559430880491338 0 -1.2162737749117627
v 0.83731556559413012 3 -1.2243908893395778
v 0.83731556559413012 0 -1.2243908893395778
v 0.81474712274820527 3 -1.2395231067864374
v 0.81474712274820527 0 -1.2395231067864374
v 0.80029723959220989 3 -1.2533506473044789
v 0.80029723959220989 0 -1.2533506473044789
v 0.76039505676807184 3 -0.88536163959354042
v 0.76039505676807184 0 -0.88536163959354042
v 0.74862516826890346 3 -0.90153166509497829
v 0.74862516826890346 0 -0.90153166509497829
v 0.72448875301775062 3 -0.92104019048321217
v 0.72448875301775062 0 -0.92104019048321217
v 0.70621000980696735 3 -0.92915730491102733
v 0.70621000980696735 0 -0.92915730491102733
v 0.62644036122075075 3 -1.3486793505615344
v 0.62644036122075075 0 -1.3486793505615344
v 0.60701221085474089 3 -1.3534277158966488
v 0.60701221085474089 0 -1.3534277158966488
v 0.59140822554415162 3 -1.0061322904965326
v 0.59140822554415162 0 -1.0061322904965326
v 0.58211875815734848 3 -1.3643196684374697
v 0.58211875815734848 0 -1.3643196684374697
v 0.57695834238815624 3 -1.0199598310145743
v 0.57695834238815624 0 -1.0199598310145743
v 0.56544656620580425 3 -1.3753667502028442
v 0.56544656620580425 0 -1.3753667502028442
v 0.54974597901426003 3 -1.0348808357932906
v 0.54974597901426003 0 -1.0348808357932906
v 0.53031782864825017 3 -1.039629201128405
v 0.53031782864825017 0 -1.039629201128405
v 0.40368911945315866 3 -1.0950346889739222
v 0.40368911945315866 0 -1.0950346889739222
v 0.38701692750161443 3 -1.1060817707392967
v 0.38701692750161443 0 -1.1060817707392967
v 0.37744453026843144 3 -1.4383668319896388
v 0.37744453026843144 0 -1.4383668319896388
v 0.35759054089625175 3 -1.1159426467323907
v 0.35759054089625175 0 -1.1159426467323907
v 0.35748234033441478 3 -1.4395960484222683
v 0.35748234033441478 0 -1.4395960484222683
v 0.33762835096223509 3 -1.1171718631650203
v 0.33762835096223509 0 -1.1171718631650203
v 0.33105235345798717 3 -1.4459027441546366
v 0.33105235345798717 0 -1.4459027441546366
v 0.3126859280212867 3 -1.4538194616990565
v 0.3126859280212867 0 -1.4538194616990565
v 0.20318355686760914 3 -1.1492529388431896
v 0.20318355686760914 0 -1.1492529388431896
v 0.18481713143090861 3 -1.1571696563876095
v 0.18481713143090861 0 -1.1571696563876095
v 0.15410877349736368 3 -1.1616580700299486
v 0.15410877349736365 0 -1.1616580700299486
v 0.13424482676152702 3 -1.1593292033365019
v 0.13424482676152699 0 -1.1593292033365019
v 0.11649351441560443 3 -1.4824954562819299
v 0.11649351441560446 0 -1.4824954562819299
v 0.096629567679767783 3 -1.4801665895884832
v 0.096629567679767783 0 -1.4801665895884832
v 0.069500190508204898 3 -1.4816882701173359
v 0.069500190508204898 0 -1.4816882701173359
v 0.050021270078891567 3 -1.4862238691856495
v 0.050021270078891567 0 -1.4862238691856495
v -0.0037576453849599914 3 -1.1670697302741777
v -0.0037576453849599914 0 -1.1670697302741777
v -0.023236565814273313 3 -1.1716053293424908
v -0.023236565814273313 0 -1.1716053293424908
v -0.054254237989605755 3 -1.1705791145389253
v -0.054254237989605741 0 -1.1705791145389253
v -0.073390770517917425 3 -1.1647659292853081
v -0.073390770517917439 0 -1.1647659292853081
v -0.14814731912661397 3 -1.4796674925918538
v -0.14814731912661394 0 -1.4796674925918538
v -0.16728385165492562 3 -1.4738543073382366
v -0.16728385165492562 0 -1.4738543073382366
vn 0.866047203540802 0 0.49996227025985718
vn 0.866047203540802 0 0.49996227025985718
vn 0.866047203540802 0 -0.49996227025985718
vn 0.866047203540802 0 -0.49996227025985718
vn 0.49996227025985718 0 -0.866047203540802
vn 0.49996227025985718 0 -0.866047203540802
vn 0.49996227025985718 0 0.866047203540802
vn 0.49996227025985718 0 0.866047203540802
vn 0.76370537281036377 0 -0.6455649733543396
vn 0.76370537281036377 0 -0.6455649733543396
vn 0.6455649733543396 0 0.76370537281036377
vn 0.6455649733543396 0 0.76370537281036377
vn 0.94095790386199951 0 0.33852365612983704
vn 0.94095790386199951 0 0.33852365612983704
vn 0.33852365612983704 0 -0.94095790386199951
vn 0.33852365612983704 0 -0.94095790386199951
vn 0.77072012424468994 0 0.63717383146286011
vn 0.77072012424468994 0 0.63717383146286011
vn 0.63717383146286011 0 -0.77072012424468994
vn 0.63717383146286011 0 -0.77072012424468994
vn 0.986064612865448 0 0.16636271774768829
vn 0.986064612865448 0 0.16636271774768829
vn 0.16636271774768829 0 -0.986064612865448
vn 0.16636271774768829 0 -0.986064612865448
vn 0.87146341800689697 0 0.49046051502227783
vn 0.87146341800689697 0 0.49046051502227783
vn 0.49046051502227783 0 -0.87146341800689697
vn 0.49046051502227783 0 -0.87146341800689697
vn 0.9999387264251709 0 -0.01106763631105423
vn 0.9999387264251709 0 -0.01106763631105423
vn -0.01106763631105423 0 -0.9999387264251709
vn -0.01106763631105423 0 -0.9999387264251709
vn 0.94460397958755493 0 0.32821235060691833
vn 0.94460397958755493 0 0.32821235060691833
vn 0.32821235060691833 0 -0.94460397958755493
vn 0.32821235060691833 0 -0.94460397958755493
vn -0.49996227025985718 0 0.866047203540802
vn -0.49996227025985718 0 0.866047203540802
vn -0.49996227025985718 0 -0.866047203540802
vn -0.49996227025985718 0 -0.866047203540802
vn -0.866047203540802 0 -0.49996227025985718
vn -0.866047203540802 0 -0.49996227025985718
vn -0.866047203540802 0 0.49996227025985718
vn -0.866047203540802 0 0.49996227025985718
vn -0.6455649733543396 0 -0.76370537281036377
vn -0.6455649733543396 0 -0.76370537281036377
vn -0.76370537281036377 0 0.6455649733543396
vn -0.76370537281036377 0 0.6455649733543396
vn -0.33852365612983704 0 0.94095790386199951
vn -0.33852365612983704 0 0.94095790386199951
vn -0.94095790386199951 0 -0.33852365612983704
vn -0.94095790386199951 0 -0.33852365612983704
vn -0.63717383146286011 0 0.77072012424468994
vn -0.63717383146286011 0 0.77072012424468994
vn -0.77072012424468994 0 -0.63717383146286011
vn -0.77072012424468994 0 -0.63717383146286011
vn -0.16636271774768829 0 0.986064612865448
vn -0.16636271774768829 0 0.986064612865448
vn -0.986064612865448 0 -0.16636271774768829
vn -0.986064612865448 0 -0.16636271774768829
vn 0.98214077949523926 0 -0.18814745545387268
vn 0.98214077949523926 0 -0.18814745545387268
vn -0.18814745545387268 0 -0.98214077949523926
vn -0.18814745545387268 0 -0.98214077949523926
vn 0.98782515525817871 0 0.15556834638118744
vn 0.98782515525817871 0 0.15556834638118744
vn -0.49046051502227783 0 0.87146341800689697
vn -0.49046051502227783 0 0.87146341800689697
vn -0.87146341800689697 0 -0.49046051502227783
vn -0.87146341800689697 0 -0.49046051502227783
vn 0.15556834638118744 0 -0.98782515525817871
vn 0.15556834638118744 0 -0.98782515525817871
vn 0.01106763631105423 0 0.9999387264251709
vn 0.01106763631105423 0 0.9999387264251709
vn -0.9999387264251709 0 0.01106763631105423
vn -0.9999387264251709 0 0.01106763631105423
vn -0.32821235060691833 0 0.94460397958755493
vn -0.32821235060691833 0 0.94460397958755493
vn -0.94460397958755493 0 -0.32821235060691833
vn -0.94460397958755493 0 -0.32821235060691833
vn 0.18814745545387268 0 0.98214077949523926
vn 0.18814745545387268 0 0.98214077949523926
vn -0.98214077949523926 0 0.18814745545387268
vn -0.98214077949523926 0 0.18814745545387268
vn 0.93323451280593872 0 -0.35926783084869385
vn 0.93323451280593872 0 -0.35926783084869385
vn -0.35926783084869385 0 -0.93323451280593872
vn -0.35926783084869385 0 -0.93323451280593872
vn 0.99975788593292236 0 -0.022003140300512314
vn 0.99975788593292236 0 -0.022003140300512314
vn -0.022003140300512314 0 -0.99975788593292236
vn -0.022003140300512314 0 -0.99975788593292236
vn -0.15556834638118744 0 0.98782515525817871
vn -0.15556834638118744 0 0.98782515525817871
vn -0.98782515525817871 0 -0.15556834638118744
vn -0.98782515525817871 0 -0.15556834638118744
vn 0.35926783084869385 0 0.93323451280593872
vn 0.35926783084869385 0 0.93323451280593872
vn -0.93323451280593872 0 0.35926783084869385
vn -0.93323451280593872 0 0.35926783084869385
vn 0.85476893186569214 0 -0.51900875568389893
vn 0.85476893186569214 0 -0.51900875568389893
vn -0.51900875568389893 0 -0.85476893186569214
vn -0.51900875568389893 0 -0.85476893186569214
vn 0.022003140300512314 0 0.99975788593292236
vn 0.022003140300512314 0 0.99975788593292236
vn 0.98002433776855469 0 -0.19887766242027283
vn 0.98002433776855469 0 -0.19887766242027283
vn -0.99975788593292236 0 0.022003140300512314
vn -0.99975788593292236 0 0.022003140300512314
vn -0.19887766242027283 0 -0.98002433776855469
vn -0.19887766242027283 0 -0.98002433776855469
vn 0.51900875568389893 0 0.85476893186569214
vn 0.51900875568389893 0 0.85476893186569214
vn -0.85476893186569214 0 0.51900875568389893
vn -0.85476893186569214 0 0.51900875568389893
vn 0.19887766242027283 0 0.98002433776855469
vn 0.19887766242027283 0 0.98002433776855469
vn -0.98002433776855469 0 0.19887766242027283
vn -0.98002433776855469 0 0.19887766242027283
vn 0.7492293119430542 0 -0.66231065988540649
vn 0.7492293119430542 0 -0.66231065988540649
vn 0.66231065988540649 0 0.7492293119430542
vn 0.66231065988540649 0 0.7492293119430542
vn -0.66231065988540649 0 -0.7492293119430542
vn -0.66231065988540649 0 -0.7492293119430542
vn -0.7492293119430542 0 0.66231065988540649
vn -0.7492293119430542 0 0.66231065988540649
vn 0.92924940586090088 0 -0.36945295333862305
vn 0.92924940586090088 0 -0.36945295333862305
vn -0.36945295333862305 0 -0.92924940586090088
vn -0.36945295333862305 0 -0.92924940586090088
vn 0.36945295333862305 0 0.92924940586090088
vn 0.36945295333862305 0 0.92924940586090088
vn -0.92924940586090088 0 0.36945295333862305
vn -0.92924940586090088 0 0.36945295333862305
vn 0.78463441133499146 0 0.61995869874954224
vn 0.78463441133499146 0 0.61995869874954224
vn -0.61995869874954224 0 0.78463441133499146
vn -0.61995869874954224 0 0.78463441133499146
vn 0.61995869874954224 0 -0.78463441133499146
vn 0.61995869874954224 0 -0.78463441133499146
vn -0.78463441133499146 0 -0.61995869874954224
vn -0.78463441133499146 0 -0.61995869874954224
vn 0.84904146194458008 0 -0.52832621335983276
vn 0.84904146194458008 0 -0.52832621335983276
vn -0.52832621335983276 0 -0.84904146194458008
vn -0.52832621335983276 0 -0.84904146194458008
vn 0.52832621335983276 0 0.84904146194458008
vn 0.52832621335983276 0 0.84904146194458008
vn -0.84904146194458008 0 0.52832621335983276
vn -0.84904146194458008 0 0.52832621335983276
vn 0.88210570812225342 0 0.47105148434638977
vn 0.88210570812225342 0 0.47105148434638977
vn -0.47105148434638977 0 0.88210570812225342
vn -0.47105148434638977 0 0.88210570812225342
vn 0.47105148434638977 0 -0.88210570812225342
vn 0.47105148434638977 0 -0.88210570812225342
vn -0.88210570812225342 0 -0.47105148434638977
vn -0.88210570812225342 0 -0.47105148434638977
f 6//6 42//42 41//41 5//5
f 42//42 38//38 37//37 41//41
f 38//38 2//2 1//1 37//37
f 2//2 6//6 5//5 1//1
f 16//16 52//52 51//51 15//15
f 52//52 50//50 49//49 51//51
f 50//50 14//14 13//13 49//49
f 14//14 16//16 15//15 13//13
f 24//24 60//60 59//59 23//23
f 60//60 58//58 57//57 59//59
f 58//58 22//22 21//21 57//57
f 22//22 24//24 23//23 21//21
f 32//32 76//76 75//75 31//31
f 76//76 74//74 73//73 75//75
f 74//74 30//30 29//29 73//73
f 30//30 32//32 31//31 29//29
f 64//64 84//84 83//83 63//63
f 84//84 82//82 81//81 83//83
f 82//82 62//62 61//61 81//81
f 62//62 64//64 63//63 61//61
f 88//88 100//100 99//99 87//87
f 100//100 98//98 97//97 99//99
f 98//98 86//86 85//85 97//97
f 86//86 88//88 87//87 85//85
f 104//104 116//116 115//115 103//103
f 116//116 114//114 113//113 115//115
f 114//114 102//102 101//101 113//113
f 102//102 104//104 103//103 101//101
f 126//126 128//128 127//127 125//125
f 128//128 124//124 123//123 127//127
f 124//124 122//122 121//121 123//123
f 122//122 126//126 125//125 121//121
f 144//144 140//140 139//139 143//143
f 140//140 138//138 137//137 139//139
f 138//138 142//142 141//141 137//137
f 142//142 144//144 143//143 141//141
f 160//160 156//156 155//155 159//159
f 156//156 154//154 153//153 155//155
f 154//154 158//158 157//157 153//153
f 158//158 160//160 159//159 157//157
f 8//8 4//4 3//3 7//7
f 4//4 40//40 39//39 3//3
f 40//40 44//44 43//43 39//39
f 44//44 8//8 7//7 43//43
f 12//12 10//10 9//9 11//11
f 10//10 46//46 45//45 9//9
f 46//46 48//48 47//47 45//45
f 48//48 12//12 11//11 47//47
f 18//18 20//20 19//19 17//17
f 20//20 56//56 55//55 19//19
f 56//56 54//54 53//53 55//55
f 54//54 18//18 17//17 53//53
f 26//26 28//28 27//27 25//25
f 28//28 70//70 69//69 27//27
f 70//70 68//68 67//67 69//69
f 68//68 26//26 25//25 67//67
f 34//34 36//36 35//35 33//33
f 36//36 80//80 79//79 35//35
f 80//80 78//78 77//77 79//79
f 78//78 34//34 33//33 77//77
f 66//66 72//72 71//71 65//65
f 72//72 96//96 95//95 71//71
f 96//96 94//94 93//93 95//95
f 94//94 66//66 65//65 93//93
f 90//90 92//92 91//91 89//89
f 92//92 110//110 109//109 91//91
f 110//110 106//106 105//105 109//109
f 106//106 90//90 89//89 105//105
f 108//108 112//112 111//111 107//107
f 112//112 120//120 119//119 111//111
f 120//120 118//118 117//117 119//119
f 118//118 108//108 107//107 117//117
f 130//130 132//132 131//131 129//129
f 132//132 136//136 135//135 131//131
f 136//136 134//134 133//133 135//135
f 134//134 130//130 129//129 133//133
f 146//146 148//148 147//147 145//145
f 148//148 152//152 151//151 147//147
f 152//152 150//150 149//149 151//151
f 150//150 146//146 145//145 149//149
