# Rhino

mtllib Pannelli74.mtl
usemtl diffuse_Black
v 1.4395363166257329 3 -0.18610370208258376
v 1.4395363166257329 0 -0.18610370208258373
v 1.4395363166257333 3 0.18610370208258425
v 1.4395363166257333 0 0.18610370208258425
v 1.4290733646196234 3 -0.20314854398029136
v 1.4290733646196234 0 -0.20314854398029139
v 1.4290733646196239 3 0.20314854398029186
v 1.4290733646196239 0 0.20314854398029186
v 1.4281995307151389 3 -0.25912447834638019
v 1.4281995307151389 0 -0.25912447834638019
v 1.4233971019684499 3 -0.239709621196945
v 1.4233971019684499 0 -0.239709621196945
v 1.3153461714725034 3 -0.61381091877373206
v 1.3153461714725034 0 -0.61381091877373206
v 1.300207743794088 3 -0.62688103764944958
v 1.300207743794088 0 -0.62688103764944958
v 1.2837133546244952 3 -0.66000002692824911
v 1.2837133546244952 0 -0.66000002692824911
v 1.2824031295040297 3 -0.67995706353526308
v 1.2824031295040297 0 -0.67995706353526308
v 1.1721024048788606 3 -0.021939774942257226
v 1.1721024048788606 0 -0.021939774942257205
v 1.1721024048788609 3 0.021939774942257476
v 1.1721024048788609 0 0.021939774942257476
v 1.1616394528727512 3 -0.038984616839964847
v 1.1616394528727512 0 -0.038984616839964861
v 1.1616394528727514 3 0.038984616839965083
v 1.1616394528727514 0 0.038984616839965083
v 1.1235800320632625 3 -0.33447468184609147
v 1.1235800320632625 0 -0.33447468184609147
v 1.1187776033165733 3 -0.31505982469665622
v 1.1187776033165733 0 -0.31505982469665622
v 1.1102757437790751 3 -0.37628868442081326
v 1.1102757437790751 0 -0.37628868442081326
v 1.0951373161006597 3 -0.38935880329653078
v 1.0951373161006597 0 -0.38935880329653078
v 1.0673211304244132 3 -0.98373014560029537
v 1.0673211304244132 0 -0.98373014560029537
v 1.0489324531139743 3 -0.99159503890996925
v 1.0489324531139743 0 -0.99159503890996925
v 1.0231728221417626 3 -1.0181539119489873
v 1.0231728221417626 0 -1.0181539119489873
v 1.0158732959223415 3 -1.0367742480622797
v 1.0158732959223415 0 -1.0367742480622797
v 0.97058704939269835 3 -0.63944256847025716
v 0.97058704939269835 0 -0.63944256847025716
v 0.96927682427223261 3 -0.65939960507727113
v 0.96927682427223261 0 -0.65939960507727113
v 0.94392079641716276 3 -0.69521142923467116
v 0.94392079641716276 0 -0.69521142923467127
v 0.92553211910672384 3 -0.70307632254434504
v 0.92553211910672395 0 -0.70307632254434516
v 0.73101937450614052 3 -0.90362419894407164
v 0.73101937450614052 0 -0.90362419894407164
v 0.72371984828671942 3 -0.92224453505736403
v 0.72371984828671942 0 -0.92224453505736403
v 0.71881181843757191 3 -1.2610348783787453
v 0.71881181843757191 0 -1.2610348783787453
v 0.69890411631620242 3 -1.2629540959919452
v 0.69890411631620242 0 -1.2629540959919452
v 0.68869925553602729 3 -0.94868263221766991
v 0.68869925553602729 0 -0.94868263221766991
v 0.66879155341465779 3 -0.95060184983087004
v 0.66879155341465779 0 -0.95060184983087004
v 0.66630441593242551 3 -1.28045243476496
v 0.66630441593242551 0 -1.28045243476496
v 0.65370281155890475 3 -1.2959830357582656
v 0.65370281155890475 0 -1.2959830357582656
v 0.42262897439147612 3 -1.082733009021833
v 0.42262897439147612 0 -1.082733009021833
v 0.41002737001795542 3 -1.0982636100151386
v 0.41002737001795542 0 -1.0982636100151386
v 0.36863926948977083 3 -1.112838932746951
v 0.36863926948977083 0 -1.112838932746951
v 0.34908677785246195 3 -1.1086317875423062
v 0.34908677785246195 0 -1.1086317875423062
v 0.30262907672191425 3 -1.4196179192781651
v 0.30262907672191425 0 -1.4196179192781651
v 0.28307658508460537 3 -1.4154107740735202
v 0.28307658508460537 0 -1.4154107740735202
v 0.2467059544944275 3 -1.4222011757847617
v 0.2467059544944275 0 -1.4222011757847617
v 0.22998866563225273 3 -1.4331798939749059
v 0.22998866563225273 0 -1.4331798939749059
v 0.07444964556663744 3 -1.1599065777448052
v 0.07444964556663744 0 -1.1599065777448052
v 0.057732356704462667 3 -1.1708852959349496
v 0.057732356704462667 0 -1.1708852959349496
v 0.013873282430169984 3 -1.1722256324112428
v 0.013873282430169987 0 -1.1722256324112428
v -0.0034832051594486345 3 -1.1622882112894721
v -0.0034832051594486397 0 -1.1622882112894721
v -0.14204505457878497 3 -1.4445492713240817
v -0.14204505457878497 0 -1.4445492713240817
v -0.1594015421684036 3 -1.4346118502023111
v -0.1594015421684036 0 -1.4346118502023111
v -0.19611894486086684 3 -1.4300550240648873
v -0.19611894486086684 0 -1.4300550240648873
v -0.21537804832801766 3 -1.4354482544179854
v -0.21537804832801766 0 -1.4354482544179854
v -0.28073883743229422 3 -1.1278793038166042
v -0.28073883743229422 0 -1.1278793038166042
v -0.29999794089944509 3 -1.1332725341697021
v -0.29999794089944509 0 -1.1332725341697021
v -0.34219882200196761 3 -1.1212516967513542
v -0.34219882200196761 0 -1.1212516967513542
v -0.35572525750363404 3 -1.1065195705429869
v -0.35572525750363404 0 -1.1065195705429869
v -0.57334617812864108 3 -1.3334817414717406
v -0.57334617812864108 0 -1.3334817414717406
v -0.58687261363030752 3 -1.3187496152633733
v -0.58687261363030752 0 -1.3187496152633733
v -0.60949681456055216 3 -0.98966643464411985
v -0.60949681456055216 0 -0.98966643464411985
v -0.62047998303149132 3 -1.3032745693229055
v -0.62047998303149132 0 -1.3032745693229055
v -0.62948456046203061 3 -0.98896642480280905
v -0.62948456046203061 0 -0.98896642480280905
v -0.64046772893296977 3 -1.302574559481595
v -0.64046772893296977 0 -1.302574559481595
v -0.66605419412665634 3 -0.96471613013031754
v -0.66605419412665634 0 -0.96471613013031754
v -0.67447711450188974 3 -0.94657627312006287
v -0.67447711450188974 0 -0.94657627312006287
v -0.88087295851339575 3 -0.75828019213251341
v -0.88087295851339575 0 -0.75828019213251341
v -0.89970757573330495 3 -0.75155284539107781
v -0.89970757573330495 0 -0.75155284539107781
v -0.92720306846477807 3 -0.71735616751849662
v -0.92720306846477807 0 -0.71735616751849662
v -0.92972948743329753 3 -0.69751637903183394
v -0.92972948743329753 0 -0.69751637903183394
v -0.95066891498445072 3 -1.0968719200050263
v -0.95066891498445072 0 -1.0968719200050263
v -0.95909183535968412 3 -1.0787320629947716
v -0.95909183535968412 0 -1.0787320629947716
v -0.98642516401561398 3 -1.0537957146351156
v -0.98642516401561398 0 -1.0537957146351156
v -1.0052597812355233 3 -1.0470683678936801
v -1.0052597812355233 0 -1.0470683678936801
v -1.0693182258043274 3 -0.45550472092322974
v -1.0693182258043274 0 -0.45550472092322974
v -1.0852265059559838 3 -0.44338339168026247
v -1.0852265059559838 0 -0.44338339168026247
v -1.0974513252221614 3 -0.38278794075673889
v -1.0974513252221614 0 -0.38278794075673889
v -1.101059260506047 3 -0.40245981923814722
v -1.101059260506047 0 -0.40245981923814722
v -1.2384897483331494 3 -0.75699573188157243
v -1.2384897483331494 0 -0.75699573188157243
v -1.2410161673016689 3 -0.73715594339490975
v -1.2410161673016689 0 -0.73715594339490975
v -1.2595021251020078 3 -0.70510595604496995
v -1.2595021251020078 0 -0.70510595604496995
v -1.2754104052536641 3 -0.69298462680200268
v -1.2754104052536641 0 -0.69298462680200268
v -1.406103493735364 3 -0.32617936368165129
v -1.406103493735364 0 -0.32617936368165135
v -1.4097114290192496 3 -0.34585124216305962
v -1.4097114290192496 0 -0.34585124216305968
vn 0.97254735231399536 0 0.23270496726036072
vn 0.97254735231399536 0 0.23270496726036072
vn 0.97254735231399536 0 -0.23270496726036072
vn 0.97254735231399536 0 -0.23270496726036072
vn 0.23270496726036072 0 -0.97254735231399536
vn 0.23270496726036072 0 -0.97254735231399536
vn 0.23270496726036072 0 0.97254735231399536
vn 0.23270496726036072 0 0.97254735231399536
vn 0.85621035099029541 0 -0.51662737131118774
vn 0.85621035099029541 0 -0.51662737131118774
vn 0.51662737131118774 0 0.85621035099029541
vn 0.51662737131118774 0 0.85621035099029541
vn 0.99732273817062378 0 -0.073125794529914856
vn 0.99732273817062378 0 -0.073125794529914856
vn -0.073125794529914856 0 -0.99732273817062378
vn -0.073125794529914856 0 -0.99732273817062378
vn 0.7519112229347229 0 0.65926438570022583
vn 0.7519112229347229 0 0.65926438570022583
vn 0.65926438570022583 0 -0.7519112229347229
vn 0.65926438570022583 0 -0.7519112229347229
vn -0.23270496726036072 0 0.97254735231399536
vn -0.23270496726036072 0 0.97254735231399536
vn -0.23270496726036072 0 -0.97254735231399536
vn -0.23270496726036072 0 -0.97254735231399536
vn -0.97254735231399536 0 -0.23270496726036072
vn -0.97254735231399536 0 -0.23270496726036072
vn -0.97254735231399536 0 0.23270496726036072
vn -0.97254735231399536 0 0.23270496726036072
vn -0.51662737131118774 0 -0.85621035099029541
vn -0.51662737131118774 0 -0.85621035099029541
vn -0.85621035099029541 0 0.51662737131118774
vn -0.85621035099029541 0 0.51662737131118774
vn 0.073125794529914856 0 0.99732273817062378
vn 0.073125794529914856 0 0.99732273817062378
vn -0.99732273817062378 0 0.073125794529914856
vn -0.99732273817062378 0 0.073125794529914856
vn 0.92820388078689575 0 -0.37207195162773132
vn 0.92820388078689575 0 -0.37207195162773132
vn -0.37207195162773132 0 -0.92820388078689575
vn -0.37207195162773132 0 -0.92820388078689575
vn 0.91640549898147583 0 0.40025109052658081
vn 0.91640549898147583 0 0.40025109052658081
vn 0.40025109052658081 0 -0.91640549898147583
vn 0.40025109052658081 0 -0.91640549898147583
vn -0.65926438570022583 0 0.7519112229347229
vn -0.65926438570022583 0 0.7519112229347229
vn -0.7519112229347229 0 -0.65926438570022583
vn -0.7519112229347229 0 -0.65926438570022583
vn 0.37207195162773132 0 0.92820388078689575
vn 0.37207195162773132 0 0.92820388078689575
vn -0.92820388078689575 0 0.37207195162773132
vn -0.92820388078689575 0 0.37207195162773132
vn -0.40025109052658081 0 0.91640549898147583
vn -0.40025109052658081 0 0.91640549898147583
vn -0.91640549898147583 0 -0.40025109052658081
vn -0.91640549898147583 0 -0.40025109052658081
vn 0.77169817686080933 0 -0.63598895072937012
vn 0.77169817686080933 0 -0.63598895072937012
vn -0.63598895072937012 0 -0.77169817686080933
vn -0.63598895072937012 0 -0.77169817686080933
vn 0.63598895072937012 0 0.77169817686080933
vn 0.63598895072937012 0 0.77169817686080933
vn -0.77169817686080933 0 0.63598895072937012
vn -0.77169817686080933 0 0.63598895072937012
vn 0.99462366104125977 0 0.10355564951896667
vn 0.99462366104125977 0 0.10355564951896667
vn 0.10355564951896667 0 -0.99462366104125977
vn 0.10355564951896667 0 -0.99462366104125977
vn -0.10355564951896667 0 0.99462366104125977
vn -0.10355564951896667 0 0.99462366104125977
vn -0.99462366104125977 0 -0.10355564951896667
vn -0.99462366104125977 0 -0.10355564951896667
vn 0.8400300145149231 0 0.54253995418548584
vn 0.8400300145149231 0 0.54253995418548584
vn -0.54253995418548584 0 0.8400300145149231
vn -0.54253995418548584 0 0.8400300145149231
vn 0.54253995418548584 0 -0.8400300145149231
vn 0.54253995418548584 0 -0.8400300145149231
vn -0.8400300145149231 0 -0.54253995418548584
vn -0.8400300145149231 0 -0.54253995418548584
vn 0.97920173406600952 0 -0.20288911461830139
vn 0.97920173406600952 0 -0.20288911461830139
vn -0.20288911461830139 0 -0.97920173406600952
vn -0.20288911461830139 0 -0.97920173406600952
vn 0.20288911461830139 0 0.97920173406600952
vn 0.20288911461830139 0 0.97920173406600952
vn -0.97920173406600952 0 0.20288911461830139
vn -0.97920173406600952 0 0.20288911461830139
vn 0.96498537063598633 0 0.26230362057685852
vn 0.96498537063598633 0 0.26230362057685852
vn -0.26230362057685852 0 0.96498537063598633
vn -0.26230362057685852 0 0.96498537063598633
vn 0.26230362057685852 0 -0.96498537063598633
vn 0.26230362057685852 0 -0.96498537063598633
vn -0.96498537063598633 0 -0.26230362057685852
vn -0.96498537063598633 0 -0.26230362057685852
vn 0.87159162759780884 0 -0.4902326762676239
vn 0.87159162759780884 0 -0.4902326762676239
vn -0.4902326762676239 0 -0.87159162759780884
vn -0.4902326762676239 0 -0.87159162759780884
vn 0.4902326762676239 0 0.87159162759780884
vn 0.4902326762676239 0 0.87159162759780884
vn -0.87159162759780884 0 0.4902326762676239
vn -0.87159162759780884 0 0.4902326762676239
vn 0.99909102916717529 0 -0.042627576738595963
vn 0.99909102916717529 0 -0.042627576738595963
vn 0.042627576738595963 0 0.99909102916717529
vn 0.042627576738595963 0 0.99909102916717529
vn -0.042627576738595963 0 -0.99909102916717529
vn -0.042627576738595963 0 -0.99909102916717529
vn -0.99909102916717529 0 0.042627576738595963
vn -0.99909102916717529 0 0.042627576738595963
vn 0.73142260313034058 0 0.68192446231842041
vn 0.73142260313034058 0 0.68192446231842041
vn 0.68192446231842041 0 -0.73142260313034058
vn 0.68192446231842041 0 -0.73142260313034058
vn -0.68192446231842041 0 0.73142260313034058
vn -0.68192446231842041 0 0.73142260313034058
vn -0.73142260313034058 0 -0.68192446231842041
vn -0.73142260313034058 0 -0.68192446231842041
vn 0.93913596868515015 0 -0.34354561567306519
vn 0.93913596868515015 0 -0.34354561567306519
vn 0.34354561567306519 0 0.93913596868515015
vn 0.34354561567306519 0 0.93913596868515015
vn 0.9037519097328186 0 0.42805662751197815
vn 0.9037519097328186 0 0.42805662751197815
vn -0.42805662751197815 0 0.9037519097328186
vn -0.42805662751197815 0 0.9037519097328186
vn 0.79076480865478516 0 -0.61212009191513062
vn 0.79076480865478516 0 -0.61212009191513062
vn 0.61212009191513062 0 0.79076480865478516
vn 0.61212009191513062 0 0.79076480865478516
vn -0.34354561567306519 0 -0.93913596868515015
vn -0.34354561567306519 0 -0.93913596868515015
vn -0.93913596868515015 0 0.34354561567306519
vn -0.93913596868515015 0 0.34354561567306519
vn 0.42805662751197815 0 -0.9037519097328186
vn 0.42805662751197815 0 -0.9037519097328186
vn -0.9037519097328186 0 -0.42805662751197815
vn -0.9037519097328186 0 -0.42805662751197815
vn 0.99099636077880859 0 0.13388894498348236
vn 0.99099636077880859 0 0.13388894498348236
vn -0.13388894498348236 0 0.99099636077880859
vn -0.13388894498348236 0 0.99099636077880859
vn 0.82306569814682007 0 0.56794613599777222
vn 0.82306569814682007 0 0.56794613599777222
vn 0.56794613599777222 0 -0.82306569814682007
vn 0.56794613599777222 0 -0.82306569814682007
vn -0.61212009191513062 0 -0.79076480865478516
vn -0.61212009191513062 0 -0.79076480865478516
vn -0.79076480865478516 0 0.61212009191513062
vn -0.79076480865478516 0 0.61212009191513062
vn 0.13388894498348236 0 -0.99099636077880859
vn 0.13388894498348236 0 -0.99099636077880859
vn -0.99099636077880859 0 -0.13388894498348236
vn -0.99099636077880859 0 -0.13388894498348236
vn -0.56794613599777222 0 0.82306569814682007
vn -0.56794613599777222 0 0.82306569814682007
vn -0.82306569814682007 0 -0.56794613599777222
vn -0.82306569814682007 0 -0.56794613599777222
f 6//6 26//26 25//25 5//5
f 26//26 22//22 21//21 25//25
f 22//22 2//2 1//1 21//21
f 2//2 6//6 5//5 1//1
f 16//16 36//36 35//35 15//15
f 36//36 34//34 33//33 35//35
f 34//34 14//14 13//13 33//33
f 14//14 16//16 15//15 13//13
f 40//40 52//52 51//51 39//39
f 52//52 50//50 49//49 51//51
f 50//50 38//38 37//37 49//49
f 38//38 40//40 39//39 37//37
f 60//60 64//64 63//63 59//59
f 64//64 62//62 61//61 63//63
f 62//62 58//58 57//57 61//61
f 58//58 60//60 59//59 57//57
f 80//80 76//76 75//75 79//79
f 76//76 74//74 73//73 75//75
f 74//74 78//78 77//77 73//73
f 78//78 80//80 79//79 77//77
f 96//96 92//92 91//91 95//95
f 92//92 90//90 89//89 91//91
f 90//90 94//94 93//93 89//89
f 94//94 96//96 95//95 93//93
f 112//112 108//108 107//107 111//111
f 108//108 106//106 105//105 107//107
f 106//106 110//110 109//109 105//105
f 110//110 112//112 111//111 109//109
f 136//136 124//124 123//123 135//135
f 124//124 122//122 121//121 123//123
f 122//122 134//134 133//133 121//121
f 134//134 136//136 135//135 133//133
f 152//152 132//132 131//131 151//151
f 132//132 130//130 129//129 131//131
f 130//130 150//150 149//149 129//129
f 150//150 152//152 151//151 149//149
f 158//158 146//146 145//145 157//157
f 146//146 148//148 147//147 145//145
f 148//148 160//160 159//159 147//147
f 160//160 158//158 157//157 159//159
f 8//8 4//4 3//3 7//7
f 4//4 24//24 23//23 3//3
f 24//24 28//28 27//27 23//23
f 28//28 8//8 7//7 27//27
f 12//12 10//10 9//9 11//11
f 10//10 30//30 29//29 9//9
f 30//30 32//32 31//31 29//29
f 32//32 12//12 11//11 31//31
f 18//18 20//20 19//19 17//17
f 20//20 48//48 47//47 19//19
f 48//48 46//46 45//45 47//47
f 46//46 18//18 17//17 45//45
f 42//42 44//44 43//43 41//41
f 44//44 56//56 55//55 43//43
f 56//56 54//54 53//53 55//55
f 54//54 42//42 41//41 53//53
f 66//66 68//68 67//67 65//65
f 68//68 72//72 71//71 67//67
f 72//72 70//70 69//69 71//71
f 70//70 66//66 65//65 69//69
f 82//82 84//84 83//83 81//81
f 84//84 88//88 87//87 83//83
f 88//88 86//86 85//85 87//87
f 86//86 82//82 81//81 85//85
f 98//98 100//100 99//99 97//97
f 100//100 104//104 103//103 99//99
f 104//104 102//102 101//101 103//103
f 102//102 98//98 97//97 101//101
f 116//116 120//120 119//119 115//115
f 120//120 118//118 117//117 119//119
f 118//118 114//114 113//113 117//117
f 114//114 116//116 115//115 113//113
f 138//138 140//140 139//139 137//137
f 140//140 128//128 127//127 139//139
f 128//128 126//126 125//125 127//127
f 126//126 138//138 137//137 125//125
f 154//154 156//156 155//155 153//153
f 156//156 144//144 143//143 155//155
f 144//144 142//142 141//141 143//143
f 142//142 154//154 153//153 141//141
