# Rhino

mtllib Pannelli47.mtl
usemtl diffuse_Black
v 1.4784694602316377 3 -0.11351346900073211
v 1.4784694602316377 0 -0.11351346900073214
v 1.4784694602316386 3 0.11351346900072343
v 1.4784694602316386 0 0.11351346900072343
v 1.4724351794821087 3 -0.13258143836917474
v 1.4724351794821087 0 -0.13258143836917474
v 1.4724351794821098 3 0.13258143836916605
v 1.4724351794821098 0 0.13258143836916605
v 1.4717359132852128 3 -0.1809714177121669
v 1.4717359132852128 0 -0.1809714177121669
v 1.4695898093655428 3 -0.16108689513891966
v 1.4695898093655428 0 -0.16108689513891966
v 1.4268600955451853 3 -0.40351892176575238
v 1.4268600955451853 0 -0.40351892176575233
v 1.4171757609152447 3 -0.42101788352853498
v 1.4171757609152447 0 -0.42101788352853498
v 1.4087519336946464 3 -0.44839846664339128
v 1.4087519336946464 0 -0.44839846664339128
v 1.4069251718850868 3 -0.46831486544666734
v 1.4069251718850868 0 -0.46831486544666734
v 1.3189444122596137 3 -0.67760083371506652
v 1.3189444122596137 0 -0.67760083371506652
v 1.3059921840134638 3 -0.69284024917169218
v 1.3059921840134638 0 -0.69284024917169229
v 1.2923223181934842 3 -0.71801547439840663
v 1.2923223181934842 0 -0.71801547439840663
v 1.2865947777729589 3 -0.73717781456685294
v 1.2865947777729589 0 -0.73717781456685294
v 1.1719111967004121 3 -0.016499539908890578
v 1.1719111967004121 0 -0.016499539908890588
v 1.1719111967004121 3 0.016499539908883622
v 1.1719111967004121 0 0.016499539908883622
v 1.1658769159508831 3 -0.035567509277333216
v 1.1658769159508831 0 -0.035567509277333202
v 1.1658769159508833 3 0.035567509277326242
v 1.1658769159508833 0 0.035567509277326242
v 1.1589809462074752 3 -0.92494346789965276
v 1.1589809462074752 0 -0.92494346789965276
v 1.152049815965873 3 -0.2154746140546373
v 1.152049815965873 0 -0.2154746140546373
v 1.149903712046203 3 -0.19559009148139012
v 1.149903712046203 0 -0.19559009148139012
v 1.14552697464789 3 -0.24782259405278009
v 1.14552697464789 0 -0.24782259405278012
v 1.1432719412321002 3 -0.93732196387790612
v 1.1432719412321002 0 -0.93732196387790612
v 1.1358426400179493 3 -0.26532155581556272
v 1.1358426400179493 0 -0.26532155581556277
v 1.1248954728951346 3 -0.95929837414465668
v 1.1248954728951346 0 -0.95929837414465668
v 1.1154931723196326 3 -0.97695047724564488
v 1.1154931723196326 0 -0.97695047724564488
v 1.0885533580124176 3 -0.41902937560894848
v 1.0885533580124176 0 -0.41902937560894848
v 1.0867265962028578 3 -0.43894577441222454
v 1.0867265962028578 0 -0.43894577441222454
v 1.0739383159447207 3 -0.46936614845428981
v 1.0739383159447207 0 -0.46936614845428987
v 1.0609860876985708 3 -0.48460556391091553
v 1.0609860876985708 0 -0.48460556391091553
v 0.98424684283869257 3 -0.62593305011430878
v 0.98424684283869257 0 -0.62593305011430878
v 0.97851930241816731 3 -0.64509539028275509
v 0.97851930241816731 0 -0.64509539028275509
v 0.95997023044127971 3 -0.67238771883156312
v 0.95997023044127983 0 -0.67238771883156312
v 0.95328212697585624 3 -1.1357862646072974
v 0.95328212697585624 0 -1.1357862646072974
v 0.94426122546590474 3 -0.68476621480981648
v 0.94426122546590474 0 -0.68476621480981648
v 0.93543624924206548 3 -1.1448153646682444
v 0.93543624924206548 0 -1.1448153646682444
v 0.91307834498583285 3 -1.1627257335650922
v 0.91307834498583285 0 -1.1627257335650922
v 0.90037231497758274 3 -1.1781710176812701
v 0.90037231497758274 0 -1.1781710176812701
v 0.84110027846457436 3 -0.80813634519810529
v 0.84110027846457436 0 -0.80813634519810529
v 0.83169797788907263 3 -0.82578844829909348
v 0.83169797788907263 0 -0.82578844829909348
v 0.80812009202343338 3 -0.84887572979620196
v 0.80812009202343338 0 -0.84887572979620196
v 0.79027421428964262 3 -0.857904829857149
v 0.79027421428964262 0 -0.857904829857149
v 0.70996517873219844 3 -1.3018090095977859
v 0.70996517873219844 0 -1.3018090095977859
v 0.69068665683289843 3 -1.3071324101442607
v 0.69068665683289843 0 -1.3071324101442607
v 0.66522959746698218 3 -1.3202699641476612
v 0.66522959746698218 0 -1.3202699641476612
v 0.66476247102402297 3 -0.95844920991222615
v 0.66476247102402297 0 -0.95844920991222615
v 0.65205644101577287 3 -0.97389449402840378
v 0.65205644101577287 0 -0.97389449402840378
v 0.64972123951307303 3 -1.3328989321804587
v 0.64972123951307303 0 -1.3328989321804587
v 0.62438016461374102 3 -0.99186566520165143
v 0.62438016461374102 0 -0.99186566520165143
v 0.605101642714441 3 -0.99718906574812616
v 0.605101642714441 0 -0.99718906574812616
v 0.46219200937786442 3 -1.0709400437608949
v 0.46219200937786442 0 -1.0709400437608949
v 0.44668365142395522 3 -1.0835690117936925
v 0.44668365142395522 0 -1.0835690117936925
v 0.43863180079597019 3 -1.4164601638636702
v 0.43863180079597019 0 -1.4164601638636702
v 0.41868139789187364 3 -1.4178677944843294
v 0.41868139789187364 0 -1.4178677944843294
v 0.41600113727724114 3 -1.0957148997586184
v 0.41600113727724114 0 -1.0957148997586184
v 0.39605073437314459 3 -1.0971225303792775
v 0.39605073437314459 0 -1.0971225303792775
v 0.39112976214107631 3 -1.4257141034386995
v 0.39112976214107631 0 -1.4257141034386995
v 0.37343106234065554 3 -1.4350283948972371
v 0.37343106234065554 0 -1.4350283948972371
v 0.24138266739911537 3 -1.1411697677132109
v 0.24138266739911537 0 -1.1411697677132109
v 0.22368396759869455 3 -1.1504840591717485
v 0.22368396759869455 0 -1.1504840591717485
v 0.19120599973746427 3 -1.1563253665960085
v 0.19120599973746427 0 -1.1563253665960085
v 0.17137099255290189 3 -1.1537616797999353
v 0.17137099255290192 0 -1.1537616797999353
v 0.14998926830392248 3 -1.4752153984675813
v 0.14998926830392245 0 -1.4752153984675813
v 0.1301542611193601 3 -1.4726517116715081
v 0.1301542611193601 0 -1.4726517116715081
v 0.10159528324396733 3 -1.4748971469221599
v 0.10159528324396733 0 -1.4748971469221599
v 0.082404662299151388 3 -1.4805292040731834
v 0.082404662299151388 0 -1.4805292040731834
v 0.01104795610258015 3 -1.1663669977881281
v 0.01104795610258015 0 -1.1663669977881281
v -0.0081426648422357785 3 -1.1719990549391512
v -0.0081426648422357785 0 -1.1719990549391512
v -0.041134450740065734 3 -1.1713052739278991
v -0.041134450740065734 0 -1.1713052739278991
v -0.060071339191508623 3 -1.1648714371427753
v -0.060071339191508574 0 -1.1648714371427753
v -0.1445720950209004 3 -1.4757561322330592
v -0.14457209502090043 0 -1.4757561322330592
v -0.16350898347234327 3 -1.4693222954479355
v -0.16350898347234327 0 -1.4693222954479355
v -0.19194831778386945 3 -1.4658782483127624
v -0.19194831778386945 0 -1.4658782483127624
v -0.21187356543306685 3 -1.4676058206319877
v -0.21187356543306685 0 -1.4676058206319877
v -0.21972272627347653 3 -1.1455374085652055
v -0.21972272627347653 0 -1.1455374085652055
v -0.23964797392267387 3 -1.1472649808844311
v -0.23964797392267387 0 -1.1472649808844311
v -0.27185166604828848 3 -1.1400634892126695
v -0.27185166604828853 0 -1.1400634892126695
v -0.28914315404098795 3 -1.1300133925465508
v -0.289143154040988 0 -1.1300133925465508
v -0.43342839835546654 3 -1.4180610268889087
v -0.43342839835546648 0 -1.4180610268889087
v -0.45071988634816601 3 -1.4080109302227899
v -0.45071988634816595 0 -1.4080109302227899
vn 0.88749855756759644 0 0.46081045269966125
vn 0.88749855756759644 0 0.46081045269966125
vn 0.88749855756759644 0 -0.46081045269966125
vn 0.88749855756759644 0 -0.46081045269966125
vn 0.46081045269966125 0 -0.88749855756759644
vn 0.46081045269966125 0 -0.88749855756759644
vn 0.46081045269966125 0 0.88749855756759644
vn 0.46081045269966125 0 0.88749855756759644
vn 0.77890026569366455 0 -0.62714779376983643
vn 0.77890026569366455 0 -0.62714779376983643
vn 0.62714779376983643 0 0.77890026569366455
vn 0.62714779376983643 0 0.77890026569366455
vn 0.96107465028762817 0 0.27628880739212036
vn 0.96107465028762817 0 0.27628880739212036
vn 0.27628880739212036 0 -0.96107465028762817
vn 0.27628880739212036 0 -0.96107465028762817
vn 0.76873677968978882 0 0.63956528902053833
vn 0.76873677968978882 0 0.63956528902053833
vn 0.63956528902053833 0 -0.76873677968978882
vn 0.63956528902053833 0 -0.76873677968978882
vn 0.99672514200210571 0 0.080864250659942627
vn 0.99672514200210571 0 0.080864250659942627
vn 0.080864250659942627 0 -0.99672514200210571
vn 0.080864250659942627 0 -0.99672514200210571
vn 0.87999016046524048 0 0.47499191761016846
vn 0.87999016046524048 0 0.47499191761016846
vn 0.47499191761016846 0 -0.87999016046524048
vn 0.47499191761016846 0 -0.87999016046524048
vn -0.46081045269966125 0 0.88749855756759644
vn -0.46081045269966125 0 0.88749855756759644
vn -0.46081045269966125 0 -0.88749855756759644
vn -0.46081045269966125 0 -0.88749855756759644
vn -0.88749855756759644 0 -0.46081045269966125
vn -0.88749855756759644 0 -0.46081045269966125
vn -0.88749855756759644 0 0.46081045269966125
vn -0.88749855756759644 0 0.46081045269966125
vn 0.99304312467575073 0 -0.11775125563144684
vn 0.99304312467575073 0 -0.11775125563144684
vn -0.62714779376983643 0 -0.77890026569366455
vn -0.62714779376983643 0 -0.77890026569366455
vn -0.77890026569366455 0 0.62714779376983643
vn -0.77890026569366455 0 0.62714779376983643
vn -0.27628880739212036 0 0.96107465028762817
vn -0.27628880739212036 0 0.96107465028762817
vn -0.11775125563144684 0 -0.99304312467575073
vn -0.11775125563144684 0 -0.99304312467575073
vn -0.96107465028762817 0 -0.27628880739212036
vn -0.96107465028762817 0 -0.27628880739212036
vn 0.95651763677597046 0 0.29167455434799194
vn 0.95651763677597046 0 0.29167455434799194
vn 0.29167455434799194 0 -0.95651763677597046
vn 0.29167455434799194 0 -0.95651763677597046
vn -0.63956528902053833 0 0.76873677968978882
vn -0.63956528902053833 0 0.76873677968978882
vn -0.76873677968978882 0 -0.63956528902053833
vn -0.76873677968978882 0 -0.63956528902053833
vn -0.080864250659942627 0 0.99672514200210571
vn -0.080864250659942627 0 0.99672514200210571
vn -0.99672514200210571 0 -0.080864250659942627
vn -0.99672514200210571 0 -0.080864250659942627
vn -0.47499191761016846 0 0.87999016046524048
vn -0.47499191761016846 0 0.87999016046524048
vn -0.87999016046524048 0 -0.47499191761016846
vn -0.87999016046524048 0 -0.47499191761016846
vn 0.11775125563144684 0 0.99304312467575073
vn 0.11775125563144684 0 0.99304312467575073
vn 0.95017397403717041 0 -0.31172016263008118
vn 0.95017397403717041 0 -0.31172016263008118
vn -0.99304312467575073 0 0.11775125563144684
vn -0.99304312467575073 0 0.11775125563144684
vn -0.31172016263008118 0 -0.95017397403717041
vn -0.31172016263008118 0 -0.95017397403717041
vn 0.99529927968978882 0 0.096847273409366608
vn 0.99529927968978882 0 0.096847273409366608
vn 0.096847273409366608 0 -0.99529927968978882
vn 0.096847273409366608 0 -0.99529927968978882
vn -0.29167455434799194 0 0.95651763677597046
vn -0.29167455434799194 0 0.95651763677597046
vn -0.95651763677597046 0 -0.29167455434799194
vn -0.95651763677597046 0 -0.29167455434799194
vn 0.31172016263008118 0 0.95017397403717041
vn 0.31172016263008118 0 0.95017397403717041
vn -0.95017397403717041 0 0.31172016263008118
vn -0.95017397403717041 0 0.31172016263008118
vn 0.86980932950973511 0 -0.49338805675506592
vn 0.86980932950973511 0 -0.49338805675506592
vn -0.49338805675506592 0 -0.86980932950973511
vn -0.49338805675506592 0 -0.86980932950973511
vn 0.99480468034744263 0 -0.10180183500051498
vn 0.99480468034744263 0 -0.10180183500051498
vn -0.096847273409366608 0 0.99529927968978882
vn -0.096847273409366608 0 0.99529927968978882
vn -0.99529927968978882 0 -0.096847273409366608
vn -0.99529927968978882 0 -0.096847273409366608
vn -0.10180183500051498 0 -0.99480468034744263
vn -0.10180183500051498 0 -0.99480468034744263
vn 0.49338805675506592 0 0.86980932950973511
vn 0.49338805675506592 0 0.86980932950973511
vn -0.86980932950973511 0 0.49338805675506592
vn -0.86980932950973511 0 0.49338805675506592
vn 0.10180183500051498 0 0.99480468034744263
vn 0.10180183500051498 0 0.99480468034744263
vn -0.99480468034744263 0 0.10180183500051498
vn -0.99480468034744263 0 0.10180183500051498
vn 0.75512051582336426 0 -0.65558600425720215
vn 0.75512051582336426 0 -0.65558600425720215
vn -0.65558600425720215 0 -0.75512051582336426
vn -0.65558600425720215 0 -0.75512051582336426
vn 0.65558600425720215 0 0.75512051582336426
vn 0.65558600425720215 0 0.75512051582336426
vn -0.75512051582336426 0 0.65558600425720215
vn -0.75512051582336426 0 0.65558600425720215
vn 0.95505344867706299 0 -0.29643356800079346
vn 0.95505344867706299 0 -0.29643356800079346
vn -0.29643356800079346 0 -0.95505344867706299
vn -0.29643356800079346 0 -0.95505344867706299
vn 0.29643356800079346 0 0.95505344867706299
vn 0.29643356800079346 0 0.95505344867706299
vn -0.95505344867706299 0 0.29643356800079346
vn -0.95505344867706299 0 0.29643356800079346
vn 0.79191339015960693 0 0.61063343286514282
vn 0.79191339015960693 0 0.61063343286514282
vn -0.61063343286514282 0 0.79191339015960693
vn -0.61063343286514282 0 0.79191339015960693
vn 0.61063343286514282 0 -0.79191339015960693
vn 0.61063343286514282 0 -0.79191339015960693
vn -0.79191339015960693 0 -0.61063343286514282
vn -0.79191339015960693 0 -0.61063343286514282
vn 0.87761420011520386 0 -0.47936761379241943
vn 0.87761420011520386 0 -0.47936761379241943
vn -0.47936761379241943 0 -0.87761420011520386
vn -0.47936761379241943 0 -0.87761420011520386
vn 0.47936761379241943 0 0.87761420011520386
vn 0.47936761379241943 0 0.87761420011520386
vn -0.87761420011520386 0 0.47936761379241943
vn -0.87761420011520386 0 0.47936761379241943
vn 0.89699059724807739 0 0.44204965233802795
vn 0.89699059724807739 0 0.44204965233802795
vn -0.44204965233802795 0 0.89699059724807739
vn -0.44204965233802795 0 0.89699059724807739
vn 0.44204965233802795 0 -0.89699059724807739
vn 0.44204965233802795 0 -0.89699059724807739
vn -0.89699059724807739 0 -0.44204965233802795
vn -0.89699059724807739 0 -0.44204965233802795
vn 0.76554280519485474 0 -0.64338499307632446
vn 0.76554280519485474 0 -0.64338499307632446
vn -0.64338499307632446 0 -0.76554280519485474
vn -0.64338499307632446 0 -0.76554280519485474
vn 0.64338499307632446 0 0.76554280519485474
vn 0.64338499307632446 0 0.76554280519485474
vn -0.76554280519485474 0 0.64338499307632446
vn -0.76554280519485474 0 0.64338499307632446
vn 0.96667098999023438 0 0.25602182745933533
vn 0.96667098999023438 0 0.25602182745933533
vn -0.25602182745933533 0 0.96667098999023438
vn -0.25602182745933533 0 0.96667098999023438
vn 0.25602182745933533 0 -0.96667098999023438
vn 0.25602182745933533 0 -0.96667098999023438
vn -0.96667098999023438 0 -0.25602182745933533
vn -0.96667098999023438 0 -0.25602182745933533
f 6//6 34//34 33//33 5//5
f 34//34 30//30 29//29 33//33
f 30//30 2//2 1//1 29//29
f 2//2 6//6 5//5 1//1
f 16//16 48//48 47//47 15//15
f 48//48 44//44 43//43 47//47
f 44//44 14//14 13//13 43//43
f 14//14 16//16 15//15 13//13
f 24//24 60//60 59//59 23//23
f 60//60 58//58 57//57 59//59
f 58//58 22//22 21//21 57//57
f 22//22 24//24 23//23 21//21
f 46//46 70//70 69//69 45//45
f 70//70 66//66 65//65 69//69
f 66//66 38//38 37//37 65//65
f 38//38 46//46 45//45 37//37
f 72//72 84//84 83//83 71//71
f 84//84 82//82 81//81 83//83
f 82//82 68//68 67//67 81//81
f 68//68 72//72 71//71 67//67
f 88//88 100//100 99//99 87//87
f 100//100 98//98 97//97 99//99
f 98//98 86//86 85//85 97//97
f 86//86 88//88 87//87 85//85
f 108//108 112//112 111//111 107//107
f 112//112 110//110 109//109 111//111
f 110//110 106//106 105//105 109//109
f 106//106 108//108 107//107 105//105
f 128//128 124//124 123//123 127//127
f 124//124 122//122 121//121 123//123
f 122//122 126//126 125//125 121//121
f 126//126 128//128 127//127 125//125
f 144//144 140//140 139//139 143//143
f 140//140 138//138 137//137 139//139
f 138//138 142//142 141//141 137//137
f 142//142 144//144 143//143 141//141
f 160//160 156//156 155//155 159//159
f 156//156 154//154 153//153 155//155
f 154//154 158//158 157//157 153//153
f 158//158 160//160 159//159 157//157
f 8//8 4//4 3//3 7//7
f 4//4 32//32 31//31 3//3
f 32//32 36//36 35//35 31//31
f 36//36 8//8 7//7 35//35
f 12//12 10//10 9//9 11//11
f 10//10 40//40 39//39 9//9
f 40//40 42//42 41//41 39//39
f 42//42 12//12 11//11 41//41
f 18//18 20//20 19//19 17//17
f 20//20 56//56 55//55 19//19
f 56//56 54//54 53//53 55//55
f 54//54 18//18 17//17 53//53
f 26//26 28//28 27//27 25//25
f 28//28 64//64 63//63 27//27
f 64//64 62//62 61//61 63//63
f 62//62 26//26 25//25 61//61
f 50//50 52//52 51//51 49//49
f 52//52 80//80 79//79 51//51
f 80//80 78//78 77//77 79//79
f 78//78 50//50 49//49 77//77
f 74//74 76//76 75//75 73//73
f 76//76 94//94 93//93 75//75
f 94//94 92//92 91//91 93//93
f 92//92 74//74 73//73 91//91
f 90//90 96//96 95//95 89//89
f 96//96 104//104 103//103 95//95
f 104//104 102//102 101//101 103//103
f 102//102 90//90 89//89 101//101
f 114//114 116//116 115//115 113//113
f 116//116 120//120 119//119 115//115
f 120//120 118//118 117//117 119//119
f 118//118 114//114 113//113 117//117
f 130//130 132//132 131//131 129//129
f 132//132 136//136 135//135 131//131
f 136//136 134//134 133//133 135//135
f 134//134 130//130 129//129 133//133
f 146//146 148//148 147//147 145//145
f 148//148 152//152 151//151 147//147
f 152//152 150//150 149//149 151//151
f 150//150 146//146 145//145 149//149
