# Rhino

mtllib Frangisole25.mtl
usemtl diffuse_Black
v 1.3366549474232077 3 -0.053204119742464334
v 1.3366549474232077 0 -0.053204119742464334
v 1.3200741959721072 3 -0.042020261673049591
v 1.3200741959721072 0 -0.042020261673049591
v 1.2975003628891659 3 0.32553023689204597
v 1.2975003628891659 0 0.32553023689204602
v 1.2784403914453386 3 0.33158973262688052
v 1.2784403914453386 0 0.33158973262688052
v 1.2675216975100811 3 -0.42762819501252597
v 1.2675216975100811 0 -0.42762819501252591
v 1.2547634399247496 3 -0.41222602427634986
v 1.2547634399247496 0 -0.41222602427634991
v 1.1900069182724471 3 -0.012587335006740558
v 1.1900069182724471 0 -0.012587335006740585
v 1.1709469468286198 3 -0.0065278392719060607
v 1.1709469468286198 0 -0.0065278392719061162
v 1.153230015485623 3 0.67789206973642835
v 1.153230015485623 0 0.67789206973642835
v 1.1453495387103232 3 0.32318623224838705
v 1.1453495387103232 0 0.32318623224838705
v 1.1382570145597861 3 -0.34734115123938414
v 1.1382570145597861 0 -0.34734115123938414
v 1.1332349495814331 3 0.67833629882945501
v 1.1332349495814331 0 0.67833629882945501
v 1.1253544728061333 3 0.32363046134141371
v 1.1253544728061333 0 0.32363046134141371
v 1.1216762631086856 3 -0.33615729316996934
v 1.1216762631086856 0 -0.33615729316996934
v 1.0957013779064788 3 -0.76740837712547316
v 1.0957013779064788 0 -0.76740837712547316
v 1.0877992123402007 3 -0.74903568599534442
v 1.0877992123402007 0 -0.74903568599534442
v 1.007902751177874 3 0.63277717302928271
v 1.007902751177874 0 0.6327771730292826
v 0.9942922970026119 3 -0.65395545311598069
v 0.99429229700261201 0 -0.65395545311598069
v 0.98859247213764323 3 0.6275701466813165
v 0.98859247213764323 0 0.6275701466813165
v 0.98153403941728035 3 -0.63855328237980458
v 0.98153403941728046 0 -0.63855328237980469
v 0.91553183075041977 3 0.97533511867013867
v 0.91553183075041977 0 0.97533511867013867
v 0.89622155171018902 3 0.97012809232217245
v 0.89622155171018902 0 0.97012809232217256
v 0.83511384905189767 3 -1.0450176964770654
v 0.83511384905189767 0 -1.0450176964770654
v 0.83270796196286434 3 -1.0251629311217458
v 0.83270796196286434 0 -1.0251629311217458
v 0.78880167697345982 3 0.89110427052209518
v 0.78880167697345982 0 0.89110427052209518
v 0.77174058876237628 3 0.88066783104047042
v 0.77174058876237628 0 0.88066783104047042
v 0.76977593082626439 3 -0.90759017340395232
v 0.76977593082626439 0 -0.90759017340395232
v 0.76187376525998629 3 -0.88921748227382358
v 0.76187376525998618 0 -0.88921748227382358
v 0.60366270196526772 3 1.1937623168304907
v 0.60366270196526783 0 1.1937623168304907
v 0.58660161375418418 3 1.183325877348866
v 0.58660161375418429 0 1.183325877348866
v 0.51015566481223262 3 -1.2182375724473717
v 0.51015566481223262 0 -1.2182375724473717
v 0.50687036276042918 3 -1.2379658970196308
v 0.50687036276042918 0 -1.2379658970196308
v 0.50579658208485945 3 1.0772393996183636
v 0.50579658208485934 0 1.0772393996183636
v 0.49236687260358658 3 1.0624190452619859
v 0.49236687260358669 0 1.0624190452619859
v 0.48289689676810776 3 -1.0876973354893305
v 0.48289689676810776 0 -1.0876973354893305
v 0.48049100967907443 3 -1.0678425701340108
v 0.48049100967907443 0 -1.0678425701340108
v 0.2428884111872128 3 1.3154779916591006
v 0.24288841118721274 0 1.3154779916591006
v 0.22945870170593999 3 1.300657637302723
v 0.2294587017059401 0 1.3006576373027228
v 0.18181485620384288 3 1.1761029991469427
v 0.18181485620384288 0 1.1761029991469427
v 0.17310452064499604 3 1.158099386885725
v 0.17310452064499599 0 1.158099386885725
v 0.160181730084029 3 -1.1599574036662352
v 0.16018173008402894 0 -1.1599574036662352
v 0.15689642803222556 3 -1.1796857282384943
v 0.1568964280322255 0 -1.1796857282384943
v 0.14627358971107562 3 -1.3126178507911253
v 0.14627358971107562 0 -1.3126178507911253
v 0.1375632541522287 3 -1.3306214630523432
v 0.13756325415222875 0 -1.3306214630523432
v -0.13756325415222745 3 1.330621463052343
v -0.13756325415222739 0 1.330621463052343
v -0.14627358971107429 3 1.3126178507911253
v -0.14627358971107429 0 1.3126178507911253
v -0.15689642803222431 3 1.1796857282384945
v -0.15689642803222431 0 1.1796857282384945
v -0.16018173008402781 3 1.1599574036662355
v -0.16018173008402781 0 1.1599574036662355
v -0.1731045206449949 3 -1.1580993868857252
v -0.17310452064499493 0 -1.1580993868857252
v -0.18181485620384183 3 -1.1761029991469432
v -0.1818148562038418 0 -1.1761029991469432
v -0.22945870170593913 3 -1.300657637302723
v -0.22945870170593916 0 -1.300657637302723
v -0.24288841118721188 3 -1.3154779916591006
v -0.24288841118721186 0 -1.3154779916591006
v -0.48049100967907338 3 1.0678425701340113
v -0.48049100967907332 0 1.0678425701340113
v -0.48289689676810682 3 1.0876973354893313
v -0.48289689676810676 0 1.0876973354893313
v -0.49236687260358591 3 -1.0624190452619862
v -0.49236687260358591 0 -1.0624190452619862
v -0.50579658208485867 3 -1.0772393996183638
v -0.50579658208485867 0 -1.0772393996183638
v -0.50687036276042807 3 1.2379658970196314
v -0.50687036276042807 0 1.2379658970196314
v -0.51015566481223162 3 1.2182375724473724
v -0.51015566481223151 0 1.2182375724473724
v -0.58660161375418229 3 -1.1833258773488671
v -0.58660161375418229 0 -1.1833258773488671
v -0.60366270196526572 3 -1.1937623168304918
v -0.60366270196526572 0 -1.1937623168304918
v -0.76187376525998507 3 0.88921748227382436
v -0.76187376525998507 0 0.88921748227382436
v -0.76977593082626339 3 0.90759017340395309
v -0.76977593082626339 0 0.90759017340395309
v -0.77174058876237484 3 -0.88066783104047186
v -0.77174058876237484 0 -0.88066783104047186
v -0.78880167697345827 3 -0.89110427052209662
v -0.78880167697345827 0 -0.89110427052209662
v -0.83270796196286323 3 1.0251629311217467
v -0.83270796196286323 0 1.0251629311217467
v -0.83511384905189667 3 1.0450176964770668
v -0.83511384905189667 0 1.0450176964770668
v -0.89622155171018802 3 -0.97012809232217356
v -0.89622155171018791 0 -0.97012809232217356
v -0.91553183075041855 3 -0.97533511867013967
v -0.91553183075041855 0 -0.97533511867013967
v -0.9815340394172799 3 0.63855328237980513
v -0.9815340394172799 0 0.63855328237980502
v -0.98859247213764256 3 -0.62757014668131772
v -0.98859247213764256 0 -0.62757014668131772
v -0.99429229700261146 3 0.65395545311598124
v -0.99429229700261146 0 0.65395545311598124
v -1.0079027511778731 3 -0.63277717302928382
v -1.0079027511778731 0 -0.63277717302928382
v -1.0877992123401998 3 0.74903568599534531
v -1.0877992123401998 0 0.74903568599534531
v -1.0957013779064781 3 0.76740837712547405
v -1.0957013779064781 0 0.76740837712547405
v -1.1216762631086856 3 0.33615729316996945
v -1.1216762631086856 0 0.3361572931699694
v -1.1253544728061327 3 -0.32363046134141571
v -1.1253544728061327 0 -0.32363046134141571
v -1.133234949581432 3 -0.67833629882945701
v -1.133234949581432 0 -0.67833629882945701
v -1.1382570145597861 3 0.34734115123938414
v -1.1382570145597861 0 0.34734115123938414
v -1.1453495387103225 3 -0.32318623224838905
v -1.1453495387103225 0 -0.32318623224838905
v -1.1532300154856219 3 -0.67789206973643035
v -1.1532300154856219 0 -0.67789206973643035
v -1.1709469468286196 3 0.0065278392719041733
v -1.1709469468286196 0 0.0065278392719041456
v -1.1900069182724469 3 0.012587335006738642
v -1.1900069182724469 0 0.012587335006738587
v -1.2547634399247494 3 0.41222602427635047
v -1.2547634399247494 0 0.41222602427635052
v -1.2675216975100809 3 0.42762819501252658
v -1.2675216975100809 0 0.42762819501252664
v -1.2784403914453379 3 -0.33158973262688268
v -1.2784403914453379 0 -0.33158973262688263
v -1.2975003628891653 3 -0.32553023689204819
v -1.2975003628891653 0 -0.32553023689204819
v -1.3200741959721072 3 0.042020261673049564
v -1.3200741959721072 0 0.042020261673049536
v -1.3366549474232077 3 0.053204119742464279
v -1.3366549474232077 0 0.053204119742464279
vn 0.98162716627120972 0 0.1908089816570282
vn 0.98162716627120972 0 0.1908089816570282
vn -0.1908089816570282 0 0.98162716627120972
vn -0.1908089816570282 0 0.98162716627120972
vn 0.88810724020004272 0 0.45963624119758606
vn 0.88810724020004272 0 0.45963624119758606
vn -0.45963624119758606 0 0.88810724020004272
vn -0.45963624119758606 0 0.88810724020004272
vn 0.99562150239944458 0 -0.093476437032222748
vn 0.99562150239944458 0 -0.093476437032222748
vn 0.093476437032222748 0 0.99562150239944458
vn 0.093476437032222748 0 0.99562150239944458
vn 0.45963624119758606 0 -0.88810724020004272
vn 0.45963624119758606 0 -0.88810724020004272
vn -0.88810724020004272 0 -0.45963624119758606
vn -0.88810724020004272 0 -0.45963624119758606
vn 0.72263818979263306 0 0.69122648239135742
vn 0.72263818979263306 0 0.69122648239135742
vn 0.69122648239135742 0 -0.72263818979263306
vn 0.69122648239135742 0 -0.72263818979263306
vn 0.1908089816570282 0 -0.98162716627120972
vn 0.1908089816570282 0 -0.98162716627120972
vn -0.69122648239135742 0 0.72263818979263306
vn -0.69122648239135742 0 0.72263818979263306
vn -0.72263818979263306 0 -0.69122648239135742
vn -0.72263818979263306 0 -0.69122648239135742
vn -0.98162716627120972 0 -0.1908089816570282
vn -0.98162716627120972 0 -0.1908089816570282
vn 0.92895644903182983 0 -0.37018895149230957
vn 0.92895644903182983 0 -0.37018895149230957
vn 0.37018895149230957 0 0.92895644903182983
vn 0.37018895149230957 0 0.92895644903182983
vn 0.8668176531791687 0 -0.49862530827522278
vn 0.8668176531791687 0 -0.49862530827522278
vn -0.093476437032222748 0 -0.99562150239944458
vn -0.093476437032222748 0 -0.99562150239944458
vn -0.49862530827522278 0 -0.8668176531791687
vn -0.49862530827522278 0 -0.8668176531791687
vn -0.99562150239944458 0 0.093476437032222748
vn -0.99562150239944458 0 0.093476437032222748
vn 0.49862530827522278 0 0.8668176531791687
vn 0.49862530827522278 0 0.8668176531791687
vn -0.8668176531791687 0 0.49862530827522278
vn -0.8668176531791687 0 0.49862530827522278
vn 0.78703290224075317 0 -0.61691099405288696
vn 0.78703290224075317 0 -0.61691099405288696
vn 0.61691099405288696 0 0.78703290224075317
vn 0.61691099405288696 0 0.78703290224075317
vn 0.97218441963195801 0 -0.23421669006347656
vn 0.97218441963195801 0 -0.23421669006347656
vn -0.23421669006347656 0 -0.97218441963195801
vn -0.23421669006347656 0 -0.97218441963195801
vn -0.37018895149230957 0 -0.92895644903182983
vn -0.37018895149230957 0 -0.92895644903182983
vn -0.92895644903182983 0 0.37018895149230957
vn -0.92895644903182983 0 0.37018895149230957
vn 0.23421669006347656 0 0.97218441963195801
vn 0.23421669006347656 0 0.97218441963195801
vn -0.97218441963195801 0 0.23421669006347656
vn -0.97218441963195801 0 0.23421669006347656
vn 0.81365454196929932 0 0.58134865760803223
vn 0.81365454196929932 0 0.58134865760803223
vn 0.58134865760803223 0 -0.81365454196929932
vn 0.58134865760803223 0 -0.81365454196929932
vn 0.99879056215286255 0 0.049166698008775711
vn 0.99879056215286255 0 0.049166698008775711
vn 0.049166698008775711 0 -0.99879056215286255
vn 0.049166698008775711 0 -0.99879056215286255
vn -0.61691099405288696 0 -0.78703290224075317
vn -0.61691099405288696 0 -0.78703290224075317
vn -0.78703290224075317 0 0.61691099405288696
vn -0.78703290224075317 0 0.61691099405288696
vn -0.049166698008775711 0 0.99879056215286255
vn -0.049166698008775711 0 0.99879056215286255
vn -0.99879056215286255 0 -0.049166698008775711
vn -0.99879056215286255 0 -0.049166698008775711
vn 0.94448065757751465 0 0.32856696844100952
vn 0.94448065757751465 0 0.32856696844100952
vn 0.32856696844100952 0 -0.94448065757751465
vn 0.32856696844100952 0 -0.94448065757751465
vn -0.58134865760803223 0 0.81365454196929932
vn -0.58134865760803223 0 0.81365454196929932
vn -0.81365454196929932 0 -0.58134865760803223
vn -0.81365454196929932 0 -0.58134865760803223
vn 0.94448065757751465 0 0.32856696844100952
vn 0.94448065757751465 0 0.32856696844100952
vn 0.32856696844100952 0 -0.94448065757751465
vn 0.32856696844100952 0 -0.94448065757751465
vn -0.32856696844100952 0 0.94448065757751465
vn -0.32856696844100952 0 0.94448065757751465
vn -0.94448065757751465 0 -0.32856696844100952
vn -0.94448065757751465 0 -0.32856696844100952
vn 0.81365454196929932 0 0.58134865760803223
vn 0.81365454196929932 0 0.58134865760803223
vn 0.58134865760803223 0 -0.81365454196929932
vn 0.58134865760803223 0 -0.81365454196929932
vn -0.32856696844100952 0 0.94448065757751465
vn -0.32856696844100952 0 0.94448065757751465
vn -0.94448065757751465 0 -0.32856696844100952
vn -0.94448065757751465 0 -0.32856696844100952
vn 0.99879056215286255 0 0.049166698008775711
vn 0.99879056215286255 0 0.049166698008775711
vn 0.049166698008775711 0 -0.99879056215286255
vn 0.049166698008775711 0 -0.99879056215286255
vn 0.78703290224075317 0 -0.61691099405288696
vn 0.78703290224075317 0 -0.61691099405288696
vn 0.61691099405288696 0 0.78703290224075317
vn 0.61691099405288696 0 0.78703290224075317
vn -0.049166698008775711 0 0.99879056215286255
vn -0.049166698008775711 0 0.99879056215286255
vn -0.99879056215286255 0 -0.049166698008775711
vn -0.99879056215286255 0 -0.049166698008775711
vn -0.58134865760803223 0 0.81365454196929932
vn -0.58134865760803223 0 0.81365454196929932
vn -0.81365454196929932 0 -0.58134865760803223
vn -0.81365454196929932 0 -0.58134865760803223
vn 0.97218441963195801 0 -0.23421669006347656
vn 0.97218441963195801 0 -0.23421669006347656
vn -0.23421669006347656 0 -0.97218441963195801
vn -0.23421669006347656 0 -0.97218441963195801
vn 0.92895644903182983 0 -0.37018895149230957
vn 0.92895644903182983 0 -0.37018895149230957
vn 0.37018895149230957 0 0.92895644903182983
vn 0.37018895149230957 0 0.92895644903182983
vn 0.23421669006347656 0 0.97218441963195801
vn 0.23421669006347656 0 0.97218441963195801
vn -0.97218441963195801 0 0.23421669006347656
vn -0.97218441963195801 0 0.23421669006347656
vn -0.61691099405288696 0 -0.78703290224075317
vn -0.61691099405288696 0 -0.78703290224075317
vn -0.78703290224075317 0 0.61691099405288696
vn -0.78703290224075317 0 0.61691099405288696
vn 0.8668176531791687 0 -0.49862530827522278
vn 0.8668176531791687 0 -0.49862530827522278
vn -0.49862530827522278 0 -0.8668176531791687
vn -0.49862530827522278 0 -0.8668176531791687
vn 0.99562150239944458 0 -0.093476437032222748
vn 0.99562150239944458 0 -0.093476437032222748
vn 0.49862530827522278 0 0.8668176531791687
vn 0.49862530827522278 0 0.8668176531791687
vn 0.093476437032222748 0 0.99562150239944458
vn 0.093476437032222748 0 0.99562150239944458
vn -0.8668176531791687 0 0.49862530827522278
vn -0.8668176531791687 0 0.49862530827522278
vn -0.37018895149230957 0 -0.92895644903182983
vn -0.37018895149230957 0 -0.92895644903182983
vn -0.92895644903182983 0 0.37018895149230957
vn -0.92895644903182983 0 0.37018895149230957
vn 0.98162716627120972 0 0.1908089816570282
vn 0.98162716627120972 0 0.1908089816570282
vn 0.72263818979263306 0 0.69122648239135742
vn 0.72263818979263306 0 0.69122648239135742
vn 0.69122648239135742 0 -0.72263818979263306
vn 0.69122648239135742 0 -0.72263818979263306
vn -0.1908089816570282 0 0.98162716627120972
vn -0.1908089816570282 0 0.98162716627120972
vn -0.69122648239135742 0 0.72263818979263306
vn -0.69122648239135742 0 0.72263818979263306
vn -0.72263818979263306 0 -0.69122648239135742
vn -0.72263818979263306 0 -0.69122648239135742
vn 0.88810724020004272 0 0.45963624119758606
vn 0.88810724020004272 0 0.45963624119758606
vn -0.45963624119758606 0 0.88810724020004272
vn -0.45963624119758606 0 0.88810724020004272
vn -0.093476437032222748 0 -0.99562150239944458
vn -0.093476437032222748 0 -0.99562150239944458
vn -0.99562150239944458 0 0.093476437032222748
vn -0.99562150239944458 0 0.093476437032222748
vn 0.45963624119758606 0 -0.88810724020004272
vn 0.45963624119758606 0 -0.88810724020004272
vn -0.88810724020004272 0 -0.45963624119758606
vn -0.88810724020004272 0 -0.45963624119758606
vn 0.1908089816570282 0 -0.98162716627120972
vn 0.1908089816570282 0 -0.98162716627120972
vn -0.98162716627120972 0 -0.1908089816570282
vn -0.98162716627120972 0 -0.1908089816570282
f 2//2 1//1 3//3 4//4
f 4//4 3//3 27//27 28//28
f 28//28 27//27 21//21 22//22
f 22//22 21//21 1//1 2//2
f 10//10 9//9 11//11 12//12
f 12//12 11//11 39//39 40//40
f 40//40 39//39 35//35 36//36
f 36//36 35//35 9//9 10//10
f 30//30 29//29 31//31 32//32
f 32//32 31//31 55//55 56//56
f 56//56 55//55 53//53 54//54
f 54//54 53//53 29//29 30//30
f 46//46 45//45 47//47 48//48
f 48//48 47//47 71//71 72//72
f 72//72 71//71 69//69 70//70
f 70//70 69//69 45//45 46//46
f 64//64 63//63 61//61 62//62
f 62//62 61//61 81//81 82//82
f 82//82 81//81 83//83 84//84
f 84//84 83//83 63//63 64//64
f 88//88 87//87 85//85 86//86
f 86//86 85//85 97//97 98//98
f 98//98 97//97 99//99 100//100
f 100//100 99//99 87//87 88//88
f 104//104 103//103 101//101 102//102
f 102//102 101//101 109//109 110//110
f 110//110 109//109 111//111 112//112
f 112//112 111//111 103//103 104//104
f 120//120 119//119 117//117 118//118
f 118//118 117//117 125//125 126//126
f 126//126 125//125 127//127 128//128
f 128//128 127//127 119//119 120//120
f 136//136 135//135 133//133 134//134
f 134//134 133//133 139//139 140//140
f 140//140 139//139 143//143 144//144
f 144//144 143//143 135//135 136//136
f 160//160 159//159 153//153 154//154
f 154//154 153//153 151//151 152//152
f 152//152 151//151 157//157 158//158
f 158//158 157//157 159//159 160//160
f 172//172 171//171 169//169 170//170
f 170//170 169//169 161//161 162//162
f 162//162 161//161 163//163 164//164
f 164//164 163//163 171//171 172//172
f 176//176 175//175 173//173 174//174
f 174//174 173//173 149//149 150//150
f 150//150 149//149 155//155 156//156
f 156//156 155//155 175//175 176//176
f 168//168 167//167 165//165 166//166
f 166//166 165//165 137//137 138//138
f 138//138 137//137 141//141 142//142
f 142//142 141//141 167//167 168//168
f 148//148 147//147 145//145 146//146
f 146//146 145//145 121//121 122//122
f 122//122 121//121 123//123 124//124
f 124//124 123//123 147//147 148//148
f 132//132 131//131 129//129 130//130
f 130//130 129//129 105//105 106//106
f 106//106 105//105 107//107 108//108
f 108//108 107//107 131//131 132//132
f 114//114 113//113 115//115 116//116
f 116//116 115//115 95//95 96//96
f 96//96 95//95 93//93 94//94
f 94//94 93//93 113//113 114//114
f 90//90 89//89 91//91 92//92
f 92//92 91//91 79//79 80//80
f 80//80 79//79 77//77 78//78
f 78//78 77//77 89//89 90//90
f 74//74 73//73 75//75 76//76
f 76//76 75//75 67//67 68//68
f 68//68 67//67 65//65 66//66
f 66//66 65//65 73//73 74//74
f 58//58 57//57 59//59 60//60
f 60//60 59//59 51//51 52//52
f 52//52 51//51 49//49 50//50
f 50//50 49//49 57//57 58//58
f 42//42 41//41 43//43 44//44
f 44//44 43//43 37//37 38//38
f 38//38 37//37 33//33 34//34
f 34//34 33//33 41//41 42//42
f 18//18 17//17 23//23 24//24
f 24//24 23//23 25//25 26//26
f 26//26 25//25 19//19 20//20
f 20//20 19//19 17//17 18//18
f 6//6 5//5 7//7 8//8
f 8//8 7//7 15//15 16//16
f 16//16 15//15 13//13 14//14
f 14//14 13//13 5//5 6//6
