# Rhino

mtllib Frangisole46.mtl
usemtl diffuse_Black
v 1.3802162254503016 3 -0.10112166943949427
v 1.3802162254503016 0 -0.10112166943949429
v 1.3687446967232808 3 -0.084738628553714529
v 1.3687446967232808 0 -0.084738628553714571
v 1.3527970368715505 3 0.29182631488277577
v 1.3527970368715505 0 0.29182631488277577
v 1.3371745496637688 3 0.30431382437997689
v 1.3371745496637688 0 0.30431382437997689
v 1.2958185039050247 3 -0.48587737749750326
v 1.2958185039050247 0 -0.4858773774975032
v 1.2894272886924198 3 -0.46692606176201512
v 1.2894272886924198 0 -0.46692606176201507
v 1.2157822777592284 3 0.66113226673116676
v 1.2157822777592284 0 0.66113226673116676
v 1.1972744730737515 3 0.66871258108640474
v 1.1972744730737515 0 0.66871258108640474
v 1.1312727600540169 3 0.014688573240163122
v 1.1312727600540169 0 0.014688573240163122
v 1.1156502728462352 3 0.027176082737364271
v 1.1156502728462352 0 0.027176082737364216
v 1.1064412737027416 3 -0.83127019005469194
v 1.1064412737027416 0 -0.83127019005469194
v 1.1056481502510573 3 -0.81128592236257002
v 1.1056481502510573 0 -0.81128592236257002
v 1.0895865138086127 3 -0.30462278435871915
v 1.0895865138086127 0 -0.30462278435871909
v 1.0813100152180048 3 0.33280994999143765
v 1.0813100152180048 0 0.33280994999143759
v 1.0781149850815919 3 -0.2882397434729394
v 1.0781149850815919 0 -0.28823974347293935
v 1.0628022105325279 3 0.34039026434667563
v 1.0628022105325279 0 0.34039026434667552
v 0.98027206903846653 3 0.97687721423398566
v 0.98027206903846653 0 0.97687721423398566
v 0.96037833914075887 3 0.97893622146006432
v 0.96037833914075887 0 0.97893622146006432
v 0.95962844823494187 3 -0.59925541563031537
v 0.95962844823494187 0 -0.59925541563031537
v 0.95323723302233698 3 -0.58030409989482723
v 0.95323723302233698 0 -0.58030409989482723
v 0.94374596374730424 3 0.62396904389139096
v 0.94374596374730424 0 0.62396904389139096
v 0.92385223384959658 3 0.62602805111746962
v 0.92385223384959658 0 0.62602805111746962
v 0.83229597421909107 3 -1.0899202224364704
v 0.83229597421909096 0 -1.0899202224364704
v 0.82742675176468583 3 -1.1093184355678263
v 0.82742675176468583 0 -1.1093184355678263
v 0.75192699291540777 3 -0.84533993703672672
v 0.75192699291540788 0 -0.84533993703672672
v 0.75113386946372351 3 -0.8253556693446048
v 0.75113386946372362 0 -0.8253556693446048
v 0.72972522696715714 3 0.86457787674205266
v 0.72972522696715703 0 0.86457787674205266
v 0.71005724354096378 3 0.86094876831890255
v 0.71005724354096367 0 0.86094876831890255
v 0.66534604718668056 3 1.2134813795520589
v 0.66534604718668056 0 1.2134813795520589
v 0.6456780637604872 3 1.2098522711289088
v 0.6456780637604872 0 1.2098522711289088
v 0.49151612821064411 3 -1.2802556680937163
v 0.49151612821064411 0 -1.2802556680937163
v 0.48817810696628661 3 -1.0035418310432505
v 0.48817810696628661 0 -1.0035418310432505
v 0.48330888451188136 3 -1.0229400441746064
v 0.48330888451188148 0 -1.0229400441746064
v 0.48137903529502452 3 -1.2974962988020196
v 0.48137903529502452 0 -1.2974962988020196
v 0.45658649214115765 3 1.0351437518616906
v 0.45658649214115765 0 1.0351437518616906
v 0.43873763823366763 3 1.0261205365706167
v 0.43873763823366763 0 1.0261205365706167
v 0.29651764555713178 3 1.3517765003504696
v 0.29651764555713178 0 1.3517765003504696
v 0.27866879164964176 3 1.3427532850593957
v 0.27866879164964176 0 1.3427532850593957
v 0.18567305754943381 3 -1.1004270018838467
v 0.18567305754943378 0 -1.1004270018838467
v 0.17553596463381421 3 -1.11766763259215
v 0.17553596463381418 0 -1.11766763259215
v 0.14645783514630736 3 1.1218484364424288
v 0.14645783514630736 0 1.1218484364424288
v 0.13187411874988383 3 1.108162121523186
v 0.13187411874988392 0 1.108162121523186
v 0.11091656865354023 3 -1.3668724134956396
v 0.11091656865354022 0 -1.3668724134956396
v 0.096332852257116769 3 -1.3805587284148824
v 0.096332852257116797 0 -1.3805587284148824
v -0.096332852257115312 3 1.3805587284148824
v -0.096332852257115381 0 1.3805587284148824
v -0.11091656865353883 3 1.3668724134956396
v -0.11091656865353883 0 1.3668724134956396
v -0.13187411874988281 3 -1.108162121523186
v -0.13187411874988283 0 -1.108162121523186
v -0.14645783514630628 3 -1.1218484364424288
v -0.14645783514630625 0 -1.1218484364424288
v -0.17553596463381296 3 1.1176676325921502
v -0.17553596463381299 0 1.1176676325921502
v -0.18567305754943261 3 1.1004270018838469
v -0.18567305754943264 0 1.1004270018838469
v -0.27866879164964076 3 -1.342753285059396
v -0.27866879164964076 0 -1.342753285059396
v -0.29651764555713078 3 -1.3517765003504698
v -0.29651764555713078 0 -1.3517765003504698
v -0.43873763823366685 3 -1.0261205365706172
v -0.43873763823366685 0 -1.0261205365706172
v -0.45658649214115687 3 -1.0351437518616911
v -0.45658649214115693 0 -1.0351437518616911
v -0.48137903529502318 3 1.2974962988020202
v -0.48137903529502318 0 1.2974962988020202
v -0.48330888451188048 3 1.0229400441746068
v -0.48330888451188048 0 1.0229400441746068
v -0.48817810696628561 3 1.0035418310432509
v -0.48817810696628561 0 1.0035418310432509
v -0.49151612821064283 3 1.2802556680937169
v -0.49151612821064283 0 1.2802556680937169
v -0.64567806376048509 3 -1.2098522711289099
v -0.64567806376048509 0 -1.2098522711289099
v -0.66534604718667845 3 -1.21348137955206
v -0.66534604718667845 0 -1.21348137955206
v -0.71005724354096222 3 -0.86094876831890388
v -0.71005724354096222 0 -0.86094876831890388
v -0.72972522696715558 3 -0.864577876742054
v -0.72972522696715558 0 -0.864577876742054
v -0.75113386946372285 3 0.82535566934460558
v -0.75113386946372285 0 0.82535566934460558
v -0.7519269929154071 3 0.84533993703672738
v -0.7519269929154071 0 0.84533993703672738
v -0.8274267517646845 3 1.1093184355678272
v -0.8274267517646845 0 1.1093184355678272
v -0.83229597421908963 3 1.0899202224364712
v -0.83229597421908963 0 1.0899202224364712
v -0.92385223384959569 3 -0.62602805111747084
v -0.92385223384959569 0 -0.62602805111747084
v -0.94374596374730346 3 -0.62396904389139218
v -0.94374596374730346 0 -0.62396904389139218
v -0.95323723302233687 3 0.5803040998948279
v -0.95323723302233687 0 0.5803040998948279
v -0.95962844823494176 3 0.59925541563031604
v -0.95962844823494176 0 0.59925541563031604
v -0.96037833914075754 3 -0.97893622146006543
v -0.96037833914075754 0 -0.97893622146006543
v -0.98027206903846531 3 -0.97687721423398677
v -0.98027206903846531 0 -0.97687721423398677
v -1.0628022105325272 3 -0.3403902643466773
v -1.0628022105325272 0 -0.3403902643466773
v -1.0781149850815919 3 0.2882397434729394
v -1.0781149850815919 0 0.2882397434729394
v -1.0813100152180044 3 -0.33280994999143926
v -1.0813100152180044 0 -0.33280994999143931
v -1.0895865138086127 3 0.30462278435871909
v -1.0895865138086127 0 0.30462278435871909
v -1.1056481502510564 3 0.81128592236257102
v -1.1056481502510564 0 0.81128592236257102
v -1.1064412737027407 3 0.83127019005469283
v -1.1064412737027407 0 0.83127019005469283
v -1.115650272846235 3 -0.027176082737366131
v -1.115650272846235 0 -0.027176082737366131
v -1.1312727600540167 3 -0.014688573240164982
v -1.1312727600540167 0 -0.014688573240164954
v -1.1972744730737503 3 -0.66871258108640685
v -1.1972744730737503 0 -0.66871258108640674
v -1.2157822777592275 3 -0.66113226673116876
v -1.2157822777592275 0 -0.66113226673116876
v -1.2894272886924198 3 0.46692606176201595
v -1.2894272886924198 0 0.46692606176201595
v -1.2958185039050247 3 0.48587737749750398
v -1.2958185039050247 0 0.48587737749750398
v -1.3371745496637681 3 -0.30431382437997923
v -1.3371745496637681 0 -0.30431382437997923
v -1.3527970368715498 3 -0.2918263148827781
v -1.3527970368715498 0 -0.29182631488277805
v -1.3687446967232808 3 0.084738628553714515
v -1.3687446967232808 0 0.084738628553714515
v -1.3802162254503016 3 0.10112166943949423
v -1.3802162254503016 0 0.10112166943949423
vn 0.98480772972106934 0 -0.1736481636762619
vn 0.98480772972106934 0 -0.1736481636762619
vn 0.1736481636762619 0 0.98480772972106934
vn 0.1736481636762619 0 0.98480772972106934
vn 0.99383848905563354 0 0.11083820462226868
vn 0.99383848905563354 0 0.11083820462226868
vn -0.11083820462226868 0 0.99383848905563354
vn -0.11083820462226868 0 0.99383848905563354
vn 0.89599376916885376 0 -0.4440666139125824
vn 0.89599376916885376 0 -0.4440666139125824
vn 0.4440666139125824 0 0.89599376916885376
vn 0.4440666139125824 0 0.89599376916885376
vn 0.92235428094863892 0 0.38634514808654785
vn 0.92235428094863892 0 0.38634514808654785
vn -0.38634514808654785 0 0.92235428094863892
vn -0.38634514808654785 0 0.92235428094863892
vn 0.11083820462226868 0 -0.99383848905563354
vn 0.11083820462226868 0 -0.99383848905563354
vn -0.99383848905563354 0 -0.11083820462226868
vn -0.99383848905563354 0 -0.11083820462226868
vn 0.73459172248840332 0 -0.6785094141960144
vn 0.73459172248840332 0 -0.6785094141960144
vn 0.6785094141960144 0 0.73459172248840332
vn 0.6785094141960144 0 0.73459172248840332
vn -0.1736481636762619 0 -0.98480772972106934
vn -0.1736481636762619 0 -0.98480772972106934
vn 0.38634514808654785 0 -0.92235428094863892
vn 0.38634514808654785 0 -0.92235428094863892
vn -0.98480772972106934 0 0.1736481636762619
vn -0.98480772972106934 0 0.1736481636762619
vn -0.92235428094863892 0 -0.38634514808654785
vn -0.92235428094863892 0 -0.38634514808654785
vn 0.77614647150039673 0 0.63055270910263062
vn 0.77614647150039673 0 0.63055270910263062
vn -0.63055270910263062 0 0.77614647150039673
vn -0.63055270910263062 0 0.77614647150039673
vn -0.4440666139125824 0 -0.89599376916885376
vn -0.4440666139125824 0 -0.89599376916885376
vn -0.89599376916885376 0 0.4440666139125824
vn -0.89599376916885376 0 0.4440666139125824
vn 0.63055270910263062 0 -0.77614647150039673
vn 0.63055270910263062 0 -0.77614647150039673
vn -0.77614647150039673 0 -0.63055270910263062
vn -0.77614647150039673 0 -0.63055270910263062
vn 0.85798341035842896 0 0.51367741823196411
vn 0.85798341035842896 0 0.51367741823196411
vn 0.51367741823196411 0 -0.85798341035842896
vn 0.51367741823196411 0 -0.85798341035842896
vn -0.6785094141960144 0 -0.73459172248840332
vn -0.6785094141960144 0 -0.73459172248840332
vn -0.73459172248840332 0 0.6785094141960144
vn -0.73459172248840332 0 0.6785094141960144
vn 0.82367658615112305 0 -0.56705987453460693
vn 0.82367658615112305 0 -0.56705987453460693
vn -0.56705987453460693 0 -0.82367658615112305
vn -0.56705987453460693 0 -0.82367658615112305
vn 0.56705987453460693 0 0.82367658615112305
vn 0.56705987453460693 0 0.82367658615112305
vn -0.82367658615112305 0 0.56705987453460693
vn -0.82367658615112305 0 0.56705987453460693
vn 0.96794873476028442 0 0.25114795565605164
vn 0.96794873476028442 0 0.25114795565605164
vn -0.51367741823196411 0 0.85798341035842896
vn -0.51367741823196411 0 0.85798341035842896
vn -0.85798341035842896 0 -0.51367741823196411
vn -0.85798341035842896 0 -0.51367741823196411
vn 0.25114795565605164 0 -0.96794873476028442
vn 0.25114795565605164 0 -0.96794873476028442
vn 0.95007109642028809 0 -0.31203344464302063
vn 0.95007109642028809 0 -0.31203344464302063
vn -0.31203344464302063 0 -0.95007109642028809
vn -0.31203344464302063 0 -0.95007109642028809
vn 0.31203344464302063 0 0.95007109642028809
vn 0.31203344464302063 0 0.95007109642028809
vn -0.95007109642028809 0 0.31203344464302063
vn -0.95007109642028809 0 0.31203344464302063
vn -0.25114795565605164 0 0.96794873476028442
vn -0.25114795565605164 0 0.96794873476028442
vn -0.96794873476028442 0 -0.25114795565605164
vn -0.96794873476028442 0 -0.25114795565605164
vn 0.99949651956558228 0 -0.03172793984413147
vn 0.99949651956558228 0 -0.03172793984413147
vn -0.03172793984413147 0 -0.99949651956558228
vn -0.03172793984413147 0 -0.99949651956558228
vn 0.99949651956558228 0 -0.03172793984413147
vn 0.99949651956558228 0 -0.03172793984413147
vn -0.03172793984413147 0 -0.99949651956558228
vn -0.03172793984413147 0 -0.99949651956558228
vn 0.03172793984413147 0 0.99949651956558228
vn 0.03172793984413147 0 0.99949651956558228
vn -0.99949651956558228 0 0.03172793984413147
vn -0.99949651956558228 0 0.03172793984413147
vn 0.03172793984413147 0 0.99949651956558228
vn 0.03172793984413147 0 0.99949651956558228
vn -0.99949651956558228 0 0.03172793984413147
vn -0.99949651956558228 0 0.03172793984413147
vn 0.96794873476028442 0 0.25114795565605164
vn 0.96794873476028442 0 0.25114795565605164
vn 0.25114795565605164 0 -0.96794873476028442
vn 0.25114795565605164 0 -0.96794873476028442
vn 0.95007109642028809 0 -0.31203344464302063
vn 0.95007109642028809 0 -0.31203344464302063
vn -0.31203344464302063 0 -0.95007109642028809
vn -0.31203344464302063 0 -0.95007109642028809
vn 0.31203344464302063 0 0.95007109642028809
vn 0.31203344464302063 0 0.95007109642028809
vn -0.95007109642028809 0 0.31203344464302063
vn -0.95007109642028809 0 0.31203344464302063
vn -0.25114795565605164 0 0.96794873476028442
vn -0.25114795565605164 0 0.96794873476028442
vn 0.85798341035842896 0 0.51367741823196411
vn 0.85798341035842896 0 0.51367741823196411
vn 0.51367741823196411 0 -0.85798341035842896
vn 0.51367741823196411 0 -0.85798341035842896
vn -0.96794873476028442 0 -0.25114795565605164
vn -0.96794873476028442 0 -0.25114795565605164
vn 0.82367658615112305 0 -0.56705987453460693
vn 0.82367658615112305 0 -0.56705987453460693
vn -0.56705987453460693 0 -0.82367658615112305
vn -0.56705987453460693 0 -0.82367658615112305
vn 0.56705987453460693 0 0.82367658615112305
vn 0.56705987453460693 0 0.82367658615112305
vn -0.82367658615112305 0 0.56705987453460693
vn -0.82367658615112305 0 0.56705987453460693
vn 0.73459172248840332 0 -0.6785094141960144
vn 0.73459172248840332 0 -0.6785094141960144
vn 0.6785094141960144 0 0.73459172248840332
vn 0.6785094141960144 0 0.73459172248840332
vn -0.51367741823196411 0 0.85798341035842896
vn -0.51367741823196411 0 0.85798341035842896
vn -0.85798341035842896 0 -0.51367741823196411
vn -0.85798341035842896 0 -0.51367741823196411
vn 0.77614647150039673 0 0.63055270910263062
vn 0.77614647150039673 0 0.63055270910263062
vn -0.63055270910263062 0 0.77614647150039673
vn -0.63055270910263062 0 0.77614647150039673
vn 0.89599376916885376 0 -0.4440666139125824
vn 0.89599376916885376 0 -0.4440666139125824
vn 0.4440666139125824 0 0.89599376916885376
vn 0.4440666139125824 0 0.89599376916885376
vn 0.63055270910263062 0 -0.77614647150039673
vn 0.63055270910263062 0 -0.77614647150039673
vn -0.77614647150039673 0 -0.63055270910263062
vn -0.77614647150039673 0 -0.63055270910263062
vn 0.92235428094863892 0 0.38634514808654785
vn 0.92235428094863892 0 0.38634514808654785
vn 0.98480772972106934 0 -0.1736481636762619
vn 0.98480772972106934 0 -0.1736481636762619
vn -0.38634514808654785 0 0.92235428094863892
vn -0.38634514808654785 0 0.92235428094863892
vn 0.1736481636762619 0 0.98480772972106934
vn 0.1736481636762619 0 0.98480772972106934
vn -0.6785094141960144 0 -0.73459172248840332
vn -0.6785094141960144 0 -0.73459172248840332
vn -0.73459172248840332 0 0.6785094141960144
vn -0.73459172248840332 0 0.6785094141960144
vn 0.99383848905563354 0 0.11083820462226868
vn 0.99383848905563354 0 0.11083820462226868
vn -0.11083820462226868 0 0.99383848905563354
vn -0.11083820462226868 0 0.99383848905563354
vn 0.38634514808654785 0 -0.92235428094863892
vn 0.38634514808654785 0 -0.92235428094863892
vn -0.92235428094863892 0 -0.38634514808654785
vn -0.92235428094863892 0 -0.38634514808654785
vn -0.4440666139125824 0 -0.89599376916885376
vn -0.4440666139125824 0 -0.89599376916885376
vn -0.89599376916885376 0 0.4440666139125824
vn -0.89599376916885376 0 0.4440666139125824
vn 0.11083820462226868 0 -0.99383848905563354
vn 0.11083820462226868 0 -0.99383848905563354
vn -0.99383848905563354 0 -0.11083820462226868
vn -0.99383848905563354 0 -0.11083820462226868
vn -0.1736481636762619 0 -0.98480772972106934
vn -0.1736481636762619 0 -0.98480772972106934
vn -0.98480772972106934 0 0.1736481636762619
vn -0.98480772972106934 0 0.1736481636762619
f 2//2 1//1 3//3 4//4
f 4//4 3//3 29//29 30//30
f 30//30 29//29 25//25 26//26
f 26//26 25//25 1//1 2//2
f 10//10 9//9 11//11 12//12
f 12//12 11//11 39//39 40//40
f 40//40 39//39 37//37 38//38
f 38//38 37//37 9//9 10//10
f 22//22 21//21 23//23 24//24
f 24//24 23//23 51//51 52//52
f 52//52 51//51 49//49 50//50
f 50//50 49//49 21//21 22//22
f 48//48 47//47 45//45 46//46
f 46//46 45//45 63//63 64//64
f 64//64 63//63 65//65 66//66
f 66//66 65//65 47//47 48//48
f 68//68 67//67 61//61 62//62
f 62//62 61//61 77//77 78//78
f 78//78 77//77 79//79 80//80
f 80//80 79//79 67//67 68//68
f 88//88 87//87 85//85 86//86
f 86//86 85//85 93//93 94//94
f 94//94 93//93 95//95 96//96
f 96//96 95//95 87//87 88//88
f 104//104 103//103 101//101 102//102
f 102//102 101//101 105//105 106//106
f 106//106 105//105 107//107 108//108
f 108//108 107//107 103//103 104//104
f 120//120 119//119 117//117 118//118
f 118//118 117//117 121//121 122//122
f 122//122 121//121 123//123 124//124
f 124//124 123//123 119//119 120//120
f 144//144 143//143 141//141 142//142
f 142//142 141//141 133//133 134//134
f 134//134 133//133 135//135 136//136
f 136//136 135//135 143//143 144//144
f 164//164 163//163 161//161 162//162
f 162//162 161//161 145//145 146//146
f 146//146 145//145 149//149 150//150
f 150//150 149//149 163//163 164//164
f 172//172 171//171 169//169 170//170
f 170//170 169//169 157//157 158//158
f 158//158 157//157 159//159 160//160
f 160//160 159//159 171//171 172//172
f 176//176 175//175 173//173 174//174
f 174//174 173//173 147//147 148//148
f 148//148 147//147 151//151 152//152
f 152//152 151//151 175//175 176//176
f 168//168 167//167 165//165 166//166
f 166//166 165//165 137//137 138//138
f 138//138 137//137 139//139 140//140
f 140//140 139//139 167//167 168//168
f 156//156 155//155 153//153 154//154
f 154//154 153//153 125//125 126//126
f 126//126 125//125 127//127 128//128
f 128//128 127//127 155//155 156//156
f 130//130 129//129 131//131 132//132
f 132//132 131//131 113//113 114//114
f 114//114 113//113 111//111 112//112
f 112//112 111//111 129//129 130//130
f 110//110 109//109 115//115 116//116
f 116//116 115//115 99//99 100//100
f 100//100 99//99 97//97 98//98
f 98//98 97//97 109//109 110//110
f 90//90 89//89 91//91 92//92
f 92//92 91//91 83//83 84//84
f 84//84 83//83 81//81 82//82
f 82//82 81//81 89//89 90//90
f 74//74 73//73 75//75 76//76
f 76//76 75//75 71//71 72//72
f 72//72 71//71 69//69 70//70
f 70//70 69//69 73//73 74//74
f 58//58 57//57 59//59 60//60
f 60//60 59//59 55//55 56//56
f 56//56 55//55 53//53 54//54
f 54//54 53//53 57//57 58//58
f 34//34 33//33 35//35 36//36
f 36//36 35//35 43//43 44//44
f 44//44 43//43 41//41 42//42
f 42//42 41//41 33//33 34//34
f 14//14 13//13 15//15 16//16
f 16//16 15//15 31//31 32//32
f 32//32 31//31 27//27 28//28
f 28//28 27//27 13//13 14//14
f 6//6 5//5 7//7 8//8
f 8//8 7//7 19//19 20//20
f 20//20 19//19 17//17 18//18
f 18//18 17//17 5//5 6//6
