# Rhino

mtllib Frangisole68.mtl
usemtl diffuse_Black
v 1.4042651336632885 3 -0.16451883614611709
v 1.4042651336632885 0 -0.16451883614611712
v 1.3997661125764114 3 -0.14503143485041251
v 1.3997661125764114 0 -0.14503143485041253
v 1.3937328411977707 3 0.23777253928079378
v 1.3937328411977707 0 0.23777253928079373
v 1.3839258266835348 3 0.25520304318393894
v 1.3839258266835348 0 0.25520304318393894
v 1.3022056727579583 3 -0.53351632856834041
v 1.3022056727579583 0 -0.53351632856834041
v 1.3010322164857266 3 -0.55348187389966441
v 1.3010322164857266 0 -0.55348187389966441
v 1.2702886027867739 3 0.62080099766291674
v 1.2702886027867739 0 0.62080099766291674
v 1.2559681008365615 3 0.6347624884104679
v 1.2559681008365615 0 0.6347624884104679
v 1.0991482738479896 3 -0.87877890228943978
v 1.0991482738479896 0 -0.87877890228943978
v 1.0923974066650122 3 -0.89760510191330956
v 1.0923974066650122 0 -0.89760510191330956
v 1.0845214830342513 3 0.063799354436201383
v 1.0845214830342513 0 0.063799354436201355
v 1.0747144685200154 3 0.081229858339346539
v 1.0747144685200154 0 0.081229858339346539
v 1.0585650979554824 3 -0.24432997806202086
v 1.0585650979554824 0 -0.24432997806202086
v 1.0540660768686052 3 -0.22484257676631628
v 1.0540660768686052 0 -0.22484257676631625
v 1.043933136475202 3 0.95353585126008433
v 1.043933136475202 0 0.95353585126008433
v 1.026259308989715 3 0.96289725190385744
v 1.026259308989715 0 0.96289725190385744
v 1.0226163874551948 3 0.36676004266737472
v 1.0226163874551948 0 0.36676004266737472
v 1.0082958855049824 3 0.38072153341492576
v 1.0082958855049824 0 0.38072153341492587
v 0.94802352044163551 3 -0.51269960349266586
v 0.94802352044163551 0 -0.51269960349266586
v 0.94685006416940387 3 -0.53266514882398985
v 0.94685006416940387 0 -0.53266514882398985
v 0.87786499389834804 3 0.64000801344759806
v 0.87786499389834804 0 0.64000801344759806
v 0.86019116641286086 3 0.64936941409137117
v 0.86019116641286097 0 0.64936941409137117
v 0.80704441867734067 3 -1.1528480356464166
v 0.80704441867734067 0 -1.1528480356464166
v 0.79526305569382894 3 -1.1690097028330264
v 0.79526305569382894 0 -1.1690097028330264
v 0.76517773650145327 3 -0.75902075748598707
v 0.76517773650145327 0 -0.75902075748598707
v 0.7584268693184758 3 -0.77784695710985685
v 0.7584268693184758 0 -0.77784695710985685
v 0.7330044159558281 3 1.2090209010842212
v 0.7330044159558281 0 1.2090209010842212
v 0.71340909132764119 3 1.2130238066184511
v 0.71340909132764119 0 1.2130238066184511
v 0.66199419940000293 3 0.86140634125251092
v 0.66199419940000281 0 0.86140634125251081
v 0.64239887477181601 3 0.8654092467867408
v 0.6423988747718159 0 0.86540924678674069
v 0.52034180303714384 3 -0.9438505637780501
v 0.52034180303714384 0 -0.9438505637780501
v 0.5085604400536321 3 -0.96001223096465993
v 0.5085604400536321 0 -0.96001223096465993
v 0.44955862438342026 3 -1.3335202774065849
v 0.44955862438342031 0 -1.3335202774065849
v 0.43370122156183527 3 -1.3457080899976108
v 0.43370122156183522 0 -1.3457080899976108
v 0.39249257189736553 3 1.0130186502699146
v 0.39249257189736553 0 1.0130186502699146
v 0.37256324678997177 3 1.0113387690944138
v 0.37256324678997177 0 1.0113387690944138
v 0.36269203700082747 3 1.3665582678266732
v 0.36269203700082747 0 1.3665582678266732
v 0.34276271189343371 3 1.3648783866511724
v 0.34276271189343371 0 1.3648783866511724
v 0.23335087128262327 3 -1.0522152106882554
v 0.23335087128262333 0 -1.0522152106882554
v 0.21749346846103829 3 -1.0644030232792816
v 0.21749346846103823 0 -1.0644030232792816
v 0.091193530462808342 3 1.0825622128963379
v 0.091193530462808342 0 1.0825622128963379
v 0.072544760272148678 3 1.0753356389933075
v 0.072544760272148651 0 1.0753356389933075
v 0.055652263970041402 3 -1.4061586370417303
v 0.055652263970041395 0 -1.4061586370417303
v 0.037003493779381773 3 -1.4133852109447607
v 0.037003493779381759 0 -1.4133852109447607
v -0.037003493779380413 3 1.4133852109447607
v -0.037003493779380392 0 1.4133852109447607
v -0.055652263970040076 3 1.4061586370417303
v -0.055652263970040076 0 1.4061586370417305
v -0.072544760272147582 3 -1.0753356389933078
v -0.072544760272147568 0 -1.0753356389933078
v -0.091193530462807204 3 -1.0825622128963381
v -0.091193530462807204 0 -1.0825622128963381
v -0.21749346846103712 3 1.064403023279282
v -0.21749346846103715 0 1.064403023279282
v -0.23335087128262227 3 1.0522152106882556
v -0.23335087128262225 0 1.0522152106882556
v -0.34276271189343271 3 -1.3648783866511727
v -0.34276271189343271 0 -1.3648783866511727
v -0.36269203700082647 3 -1.3665582678266734
v -0.36269203700082647 0 -1.3665582678266734
v -0.37256324678997105 3 -1.0113387690944138
v -0.37256324678997105 0 -1.0113387690944138
v -0.39249257189736481 3 -1.0130186502699146
v -0.39249257189736481 0 -1.0130186502699146
v -0.43370122156183399 3 1.3457080899976117
v -0.43370122156183399 0 1.3457080899976117
v -0.44955862438341915 3 1.3335202774065853
v -0.44955862438341909 0 1.3335202774065853
v -0.50856044005363121 3 0.9600122309646606
v -0.50856044005363121 0 0.9600122309646606
v -0.52034180303714284 3 0.94385056377805077
v -0.52034180303714272 0 0.94385056377805077
v -0.64239887477181445 3 -0.86540924678674191
v -0.64239887477181445 0 -0.86540924678674169
v -0.66199419940000126 3 -0.86140634125251203
v -0.66199419940000137 0 -0.86140634125251203
v -0.71340909132763919 3 -1.2130238066184527
v -0.71340909132763919 0 -1.2130238066184524
v -0.73300441595582599 3 -1.2090209010842228
v -0.73300441595582599 0 -1.2090209010842228
v -0.75842686931847514 3 0.77784695710985763
v -0.75842686931847503 0 0.77784695710985752
v -0.76517773650145271 3 0.75902075748598785
v -0.76517773650145271 0 0.75902075748598785
v -0.79526305569382771 3 1.1690097028330273
v -0.79526305569382771 0 1.1690097028330273
v -0.80704441867733934 3 1.1528480356464175
v -0.80704441867733934 0 1.1528480356464175
v -0.86019116641286009 3 -0.64936941409137228
v -0.86019116641286009 0 -0.64936941409137228
v -0.87786499389834716 3 -0.64000801344759928
v -0.87786499389834716 0 -0.64000801344759917
v -0.94685006416940376 3 0.53266514882399052
v -0.94685006416940376 0 0.53266514882399052
v -0.9480235204416354 3 0.51269960349266641
v -0.9480235204416354 0 0.51269960349266641
v -1.0082958855049817 3 -0.38072153341492765
v -1.0082958855049817 0 -0.38072153341492765
v -1.0226163874551941 3 -0.36676004266737655
v -1.0226163874551941 0 -0.3667600426673765
v -1.0262593089897136 3 -0.96289725190385855
v -1.0262593089897136 0 -0.96289725190385866
v -1.0439331364752007 3 -0.95353585126008555
v -1.0439331364752007 0 -0.95353585126008555
v -1.0540660768686052 3 0.22484257676631628
v -1.0540660768686052 0 0.22484257676631628
v -1.0585650979554824 3 0.24432997806202089
v -1.0585650979554824 0 0.24432997806202089
v -1.074714468520015 3 -0.081229858339348288
v -1.074714468520015 0 -0.081229858339348301
v -1.0845214830342509 3 -0.063799354436203159
v -1.0845214830342509 0 -0.063799354436203146
v -1.0923974066650111 3 0.89760510191331067
v -1.0923974066650111 0 0.89760510191331055
v -1.0991482738479887 3 0.87877890228944089
v -1.0991482738479887 0 0.87877890228944089
v -1.2559681008365604 3 -0.63476248841047012
v -1.2559681008365604 0 -0.63476248841047012
v -1.2702886027867728 3 -0.62080099766291896
v -1.2702886027867728 0 -0.62080099766291896
v -1.3010322164857264 3 0.5534818738996653
v -1.3010322164857264 0 0.5534818738996653
v -1.3022056727579581 3 0.53351632856834119
v -1.3022056727579581 0 0.53351632856834119
v -1.3839258266835341 3 -0.25520304318394127
v -1.3839258266835341 0 -0.25520304318394127
v -1.3937328411977701 3 -0.23777253928079611
v -1.3937328411977701 0 -0.23777253928079611
v -1.3997661125764114 3 0.14503143485041251
v -1.3997661125764114 0 0.14503143485041251
v -1.4042651336632885 3 0.16451883614611712
v -1.4042651336632885 0 0.16451883614611712
vn 0.84804809093475342 0 -0.52991920709609985
vn 0.84804809093475342 0 -0.52991920709609985
vn 0.52991920709609985 0 0.84804809093475342
vn 0.52991920709609985 0 0.84804809093475342
vn 0.96299171447753906 0 -0.26953104138374329
vn 0.96299171447753906 0 -0.26953104138374329
vn 0.26953104138374329 0 0.96299171447753906
vn 0.26953104138374329 0 0.96299171447753906
vn 0.74737656116485596 0 0.66440069675445557
vn 0.74737656116485596 0 0.66440069675445557
vn 0.66440069675445557 0 -0.74737656116485596
vn 0.66440069675445557 0 -0.74737656116485596
vn 0.99991941452026367 0 0.012692986056208611
vn 0.99991941452026367 0 0.012692986056208611
vn -0.012692986056208611 0 0.99991941452026367
vn -0.012692986056208611 0 0.99991941452026367
vn 0.90428590774536133 0 0.42692744731903076
vn 0.90428590774536133 0 0.42692744731903076
vn 0.42692744731903076 0 -0.90428590774536133
vn 0.42692744731903076 0 -0.90428590774536133
vn -0.26953104138374329 0 -0.96299171447753906
vn -0.26953104138374329 0 -0.96299171447753906
vn -0.96299171447753906 0 0.26953104138374329
vn -0.96299171447753906 0 0.26953104138374329
vn -0.52991920709609985 0 -0.84804809093475342
vn -0.52991920709609985 0 -0.84804809093475342
vn -0.84804809093475342 0 0.52991920709609985
vn -0.84804809093475342 0 0.52991920709609985
vn 0.95583963394165039 0 0.29388868808746338
vn 0.95583963394165039 0 0.29388868808746338
vn -0.29388868808746338 0 0.95583963394165039
vn -0.29388868808746338 0 0.95583963394165039
vn 0.012692986056208611 0 -0.99991941452026367
vn 0.012692986056208611 0 -0.99991941452026367
vn -0.99991941452026367 0 -0.012692986056208611
vn -0.99991941452026367 0 -0.012692986056208611
vn -0.66440069675445557 0 0.74737656116485596
vn -0.66440069675445557 0 0.74737656116485596
vn -0.74737656116485596 0 -0.66440069675445557
vn -0.74737656116485596 0 -0.66440069675445557
vn 0.29388868808746338 0 -0.95583963394165039
vn 0.29388868808746338 0 -0.95583963394165039
vn -0.95583963394165039 0 -0.29388868808746338
vn -0.95583963394165039 0 -0.29388868808746338
vn 0.98793530464172363 0 0.15486712753772736
vn 0.98793530464172363 0 0.15486712753772736
vn 0.15486712753772736 0 -0.98793530464172363
vn 0.15486712753772736 0 -0.98793530464172363
vn -0.42692744731903076 0 0.90428590774536133
vn -0.42692744731903076 0 0.90428590774536133
vn -0.90428590774536133 0 -0.42692744731903076
vn -0.90428590774536133 0 -0.42692744731903076
vn 0.83432340621948242 0 0.55127531290054321
vn 0.83432340621948242 0 0.55127531290054321
vn -0.55127531290054321 0 0.83432340621948242
vn -0.55127531290054321 0 0.83432340621948242
vn 0.55127531290054321 0 -0.83432340621948242
vn 0.55127531290054321 0 -0.83432340621948242
vn -0.83432340621948242 0 -0.55127531290054321
vn -0.83432340621948242 0 -0.55127531290054321
vn -0.15486712753772736 0 0.98793530464172363
vn -0.15486712753772736 0 0.98793530464172363
vn -0.98793530464172363 0 -0.15486712753772736
vn -0.98793530464172363 0 -0.15486712753772736
vn 0.99154812097549438 0 -0.12973962724208832
vn 0.99154812097549438 0 -0.12973962724208832
vn -0.12973962724208832 0 -0.99154812097549438
vn -0.12973962724208832 0 -0.99154812097549438
vn 0.76400077342987061 0 -0.64521527290344238
vn 0.76400077342987061 0 -0.64521527290344238
vn -0.64521527290344238 0 -0.76400077342987061
vn -0.64521527290344238 0 -0.76400077342987061
vn 0.64521527290344238 0 0.76400077342987061
vn 0.64521527290344238 0 0.76400077342987061
vn -0.76400077342987061 0 0.64521527290344238
vn -0.76400077342987061 0 0.64521527290344238
vn 0.12973962724208832 0 0.99154812097549438
vn 0.12973962724208832 0 0.99154812097549438
vn -0.99154812097549438 0 0.12973962724208832
vn -0.99154812097549438 0 0.12973962724208832
vn 0.91483157873153687 0 -0.40383559465408325
vn 0.91483157873153687 0 -0.40383559465408325
vn -0.40383559465408325 0 -0.91483157873153687
vn -0.40383559465408325 0 -0.91483157873153687
vn 0.91483157873153687 0 -0.40383559465408325
vn 0.91483157873153687 0 -0.40383559465408325
vn -0.40383559465408325 0 -0.91483157873153687
vn -0.40383559465408325 0 -0.91483157873153687
vn 0.40383559465408325 0 0.91483157873153687
vn 0.40383559465408325 0 0.91483157873153687
vn -0.91483157873153687 0 0.40383559465408325
vn -0.91483157873153687 0 0.40383559465408325
vn 0.40383559465408325 0 0.91483157873153687
vn 0.40383559465408325 0 0.91483157873153687
vn -0.91483157873153687 0 0.40383559465408325
vn -0.91483157873153687 0 0.40383559465408325
vn 0.99154812097549438 0 -0.12973962724208832
vn 0.99154812097549438 0 -0.12973962724208832
vn -0.12973962724208832 0 -0.99154812097549438
vn -0.12973962724208832 0 -0.99154812097549438
vn 0.76400077342987061 0 -0.64521527290344238
vn 0.76400077342987061 0 -0.64521527290344238
vn -0.64521527290344238 0 -0.76400077342987061
vn -0.64521527290344238 0 -0.76400077342987061
vn 0.64521527290344238 0 0.76400077342987061
vn 0.64521527290344238 0 0.76400077342987061
vn -0.76400077342987061 0 0.64521527290344238
vn -0.76400077342987061 0 0.64521527290344238
vn 0.12973962724208832 0 0.99154812097549438
vn 0.12973962724208832 0 0.99154812097549438
vn -0.99154812097549438 0 0.12973962724208832
vn -0.99154812097549438 0 0.12973962724208832
vn 0.98793530464172363 0 0.15486712753772736
vn 0.98793530464172363 0 0.15486712753772736
vn 0.15486712753772736 0 -0.98793530464172363
vn 0.15486712753772736 0 -0.98793530464172363
vn 0.83432340621948242 0 0.55127531290054321
vn 0.83432340621948242 0 0.55127531290054321
vn -0.55127531290054321 0 0.83432340621948242
vn -0.55127531290054321 0 0.83432340621948242
vn 0.55127531290054321 0 -0.83432340621948242
vn 0.55127531290054321 0 -0.83432340621948242
vn -0.83432340621948242 0 -0.55127531290054321
vn -0.83432340621948242 0 -0.55127531290054321
vn 0.90428590774536133 0 0.42692744731903076
vn 0.90428590774536133 0 0.42692744731903076
vn 0.42692744731903076 0 -0.90428590774536133
vn 0.42692744731903076 0 -0.90428590774536133
vn -0.15486712753772736 0 0.98793530464172363
vn -0.15486712753772736 0 0.98793530464172363
vn -0.98793530464172363 0 -0.15486712753772736
vn -0.98793530464172363 0 -0.15486712753772736
vn 0.95583963394165039 0 0.29388868808746338
vn 0.95583963394165039 0 0.29388868808746338
vn -0.29388868808746338 0 0.95583963394165039
vn -0.29388868808746338 0 0.95583963394165039
vn 0.74737656116485596 0 0.66440069675445557
vn 0.74737656116485596 0 0.66440069675445557
vn 0.66440069675445557 0 -0.74737656116485596
vn 0.66440069675445557 0 -0.74737656116485596
vn 0.99991941452026367 0 0.012692986056208611
vn 0.99991941452026367 0 0.012692986056208611
vn -0.012692986056208611 0 0.99991941452026367
vn -0.012692986056208611 0 0.99991941452026367
vn 0.29388868808746338 0 -0.95583963394165039
vn 0.29388868808746338 0 -0.95583963394165039
vn -0.95583963394165039 0 -0.29388868808746338
vn -0.95583963394165039 0 -0.29388868808746338
vn 0.84804809093475342 0 -0.52991920709609985
vn 0.84804809093475342 0 -0.52991920709609985
vn 0.52991920709609985 0 0.84804809093475342
vn 0.52991920709609985 0 0.84804809093475342
vn 0.96299171447753906 0 -0.26953104138374329
vn 0.96299171447753906 0 -0.26953104138374329
vn 0.26953104138374329 0 0.96299171447753906
vn 0.26953104138374329 0 0.96299171447753906
vn -0.42692744731903076 0 0.90428590774536133
vn -0.42692744731903076 0 0.90428590774536133
vn -0.90428590774536133 0 -0.42692744731903076
vn -0.90428590774536133 0 -0.42692744731903076
vn 0.012692986056208611 0 -0.99991941452026367
vn 0.012692986056208611 0 -0.99991941452026367
vn -0.99991941452026367 0 -0.012692986056208611
vn -0.99991941452026367 0 -0.012692986056208611
vn -0.66440069675445557 0 0.74737656116485596
vn -0.66440069675445557 0 0.74737656116485596
vn -0.74737656116485596 0 -0.66440069675445557
vn -0.74737656116485596 0 -0.66440069675445557
vn -0.26953104138374329 0 -0.96299171447753906
vn -0.26953104138374329 0 -0.96299171447753906
vn -0.96299171447753906 0 0.26953104138374329
vn -0.96299171447753906 0 0.26953104138374329
vn -0.52991920709609985 0 -0.84804809093475342
vn -0.52991920709609985 0 -0.84804809093475342
vn -0.84804809093475342 0 0.52991920709609985
vn -0.84804809093475342 0 0.52991920709609985
f 2//2 1//1 3//3 4//4
f 4//4 3//3 27//27 28//28
f 28//28 27//27 25//25 26//26
f 26//26 25//25 1//1 2//2
f 12//12 11//11 9//9 10//10
f 10//10 9//9 37//37 38//38
f 38//38 37//37 39//39 40//40
f 40//40 39//39 11//11 12//12
f 20//20 19//19 17//17 18//18
f 18//18 17//17 49//49 50//50
f 50//50 49//49 51//51 52//52
f 52//52 51//51 19//19 20//20
f 48//48 47//47 45//45 46//46
f 46//46 45//45 61//61 62//62
f 62//62 61//61 63//63 64//64
f 64//64 63//63 47//47 48//48
f 68//68 67//67 65//65 66//66
f 66//66 65//65 77//77 78//78
f 78//78 77//77 79//79 80//80
f 80//80 79//79 67//67 68//68
f 88//88 87//87 85//85 86//86
f 86//86 85//85 93//93 94//94
f 94//94 93//93 95//95 96//96
f 96//96 95//95 87//87 88//88
f 104//104 103//103 101//101 102//102
f 102//102 101//101 105//105 106//106
f 106//106 105//105 107//107 108//108
f 108//108 107//107 103//103 104//104
f 124//124 123//123 121//121 122//122
f 122//122 121//121 117//117 118//118
f 118//118 117//117 119//119 120//120
f 120//120 119//119 123//123 124//124
f 148//148 147//147 145//145 146//146
f 146//146 145//145 133//133 134//134
f 134//134 133//133 135//135 136//136
f 136//136 135//135 147//147 148//148
f 164//164 163//163 161//161 162//162
f 162//162 161//161 141//141 142//142
f 142//142 141//141 143//143 144//144
f 144//144 143//143 163//163 164//164
f 172//172 171//171 169//169 170//170
f 170//170 169//169 153//153 154//154
f 154//154 153//153 155//155 156//156
f 156//156 155//155 171//171 172//172
f 176//176 175//175 173//173 174//174
f 174//174 173//173 149//149 150//150
f 150//150 149//149 151//151 152//152
f 152//152 151//151 175//175 176//176
f 166//166 165//165 167//167 168//168
f 168//168 167//167 139//139 140//140
f 140//140 139//139 137//137 138//138
f 138//138 137//137 165//165 166//166
f 158//158 157//157 159//159 160//160
f 160//160 159//159 127//127 128//128
f 128//128 127//127 125//125 126//126
f 126//126 125//125 157//157 158//158
f 130//130 129//129 131//131 132//132
f 132//132 131//131 115//115 116//116
f 116//116 115//115 113//113 114//114
f 114//114 113//113 129//129 130//130
f 110//110 109//109 111//111 112//112
f 112//112 111//111 99//99 100//100
f 100//100 99//99 97//97 98//98
f 98//98 97//97 109//109 110//110
f 90//90 89//89 91//91 92//92
f 92//92 91//91 83//83 84//84
f 84//84 83//83 81//81 82//82
f 82//82 81//81 89//89 90//90
f 74//74 73//73 75//75 76//76
f 76//76 75//75 71//71 72//72
f 72//72 71//71 69//69 70//70
f 70//70 69//69 73//73 74//74
f 54//54 53//53 55//55 56//56
f 56//56 55//55 59//59 60//60
f 60//60 59//59 57//57 58//58
f 58//58 57//57 53//53 54//54
f 30//30 29//29 31//31 32//32
f 32//32 31//31 43//43 44//44
f 44//44 43//43 41//41 42//42
f 42//42 41//41 29//29 30//30
f 14//14 13//13 15//15 16//16
f 16//16 15//15 35//35 36//36
f 36//36 35//35 33//33 34//34
f 34//34 33//33 13//13 14//14
f 6//6 5//5 7//7 8//8
f 8//8 7//7 23//23 24//24
f 24//24 23//23 21//21 22//22
f 22//22 21//21 5//5 6//6
