# Rhino

mtllib Frangisole13.mtl
usemtl diffuse_Black
v 1.3048914110467451 3 -0.033947431729346861
v 1.3048914110467451 0 -0.033947431729346833
v 1.2863477339554095 3 -0.02645529986102868
v 1.2863477339554095 0 -0.026455299861028625
v 1.2615982369685685 3 0.33505807141805244
v 1.2615982369685685 0 0.33505807141805244
v 1.24247004348995 3 -0.40020271585118655
v 1.24247004348995 0 -0.4002027158511865
v 1.2416949316270014 3 0.33702236174291322
v 1.2416949316270014 0 0.33702236174291322
v 1.2267882930832918 3 -0.38778971040595817
v 1.2267882930832918 0 -0.38778971040595811
v 1.2267523780907847 3 -0.018019964122773263
v 1.2267523780907847 0 -0.018019964122773263
v 1.2068490727492176 3 -0.016055673797912506
v 1.2068490727492176 0 -0.016055673797912479
v 1.1821370977094829 3 0.3283260551302345
v 1.1821370977094829 0 0.3283260551302345
v 1.1719834765764838 3 -0.36290611305140519
v 1.1719834765764838 0 -0.36290611305140519
v 1.1624866115469434 3 0.3246033687916019
v 1.1624866115469434 0 0.3246033687916019
v 1.1534397994851482 3 -0.35541398118308698
v 1.1534397994851482 0 -0.35541398118308698
v 1.1160978767448129 3 0.67691916228624027
v 1.1160978767448129 0 0.67691916228624027
v 1.0964473905822734 3 0.67319647594760768
v 1.0964473905822734 0 0.67319647594760768
v 1.0793911422634674 3 -0.73403595603195881
v 1.0793911422634674 0 -0.73403595603195881
v 1.0678417606964734 3 -0.71770770488800673
v 1.0678417606964734 0 -0.71770770488800673
v 1.0417521001117818 3 0.64807305002682647
v 1.0417521001117818 0 0.64807305002682647
v 1.0239463986512178 3 0.63896497693218846
v 1.0239463986512178 0 0.63896497693218846
v 1.0222674438440698 3 -0.67839176698637238
v 1.0222674438440698 0 -0.67839176698637238
v 1.0065856934374116 3 -0.66597876154114399
v 1.0065856934374116 0 -0.66597876154114399
v 0.88017790423684561 3 0.9639402884192666
v 0.8801779042368455 0 0.9639402884192666
v 0.86237220277628168 3 0.95483221532462859
v 0.86237220277628157 0 0.95483221532462859
v 0.82886639007709628 3 -1.0084019685349426
v 0.82886639007709628 0 -1.0084019685349426
v 0.82238503955750719 3 -0.98948128949210101
v 0.82238503955750719 0 -0.98948128949210101
v 0.81697054290131954 3 0.91531702064907783
v 0.81697054290131954 0 0.91531702064907783
v 0.80245213818048211 3 0.9015614427127655
v 0.80245213818048211 0 0.9015614427127655
v 0.78973338246999181 3 -0.93891815451129013
v 0.78973338246999181 0 -0.93891815451129013
v 0.77818400090299766 3 -0.92258990336733804
v 0.77818400090299766 0 -0.92258990336733804
v 0.572951152547162 3 1.1728687051581961
v 0.572951152547162 0 1.1728687051581961
v 0.55843274782632457 3 1.1591131272218838
v 0.55843274782632468 0 1.1591131272218838
v 0.52600289101589215 3 1.1084074498582661
v 0.52600289101589215 0 1.1084074498582661
v 0.51594797784098589 3 1.0911187621971077
v 0.51594797784098589 0 1.0911187621971077
v 0.51119181242490663 3 -1.2010732507446511
v 0.51119181242490663 0 -1.2010732507446511
v 0.51030357342574417 3 -1.1810929846933602
v 0.51030357342574417 0 -1.1810929846933602
v 0.49321981917346508 3 -1.1233789771189753
v 0.49321981917346508 0 -1.1233789771189753
v 0.48673846865387599 3 -1.1044582980761337
v 0.4867384686538761 0 -1.1044582980761337
v 0.21930730594981374 3 1.2867782747239789
v 0.21930730594981374 0 1.2867782747239789
v 0.20925239277490748 3 1.2694895870628204
v 0.20925239277490748 0 1.2694895870628204
v 0.19242161316000295 3 1.2117012994328606
v 0.19242161316000289 0 1.2117012994328606
v 0.18764478079758756 3 1.1922801287013784
v 0.18764478079758753 0 1.1922801287013784
v 0.15688034666723552 3 -1.2770195505052075
v 0.15688034666723552 0 -1.2770195505052075
v 0.15674851941871393 3 -1.216830315992506
v 0.15674851941871393 0 -1.216830315992506
v 0.15586028041955136 3 -1.1968500499412151
v 0.15586028041955141 0 -1.1968500499412151
v 0.15210351430482019 3 -1.2964407212366895
v 0.15210351430482016 0 -1.2964407212366895
v -0.15210351430481894 3 1.2964407212366897
v -0.15210351430481892 0 1.2964407212366897
v -0.15586028041955033 3 1.1968500499412154
v -0.1558602804195503 0 1.1968500499412154
v -0.15674851941871284 3 1.2168303159925062
v -0.15674851941871282 0 1.2168303159925062
v -0.15688034666723433 3 1.2770195505052075
v -0.15688034666723427 0 1.2770195505052075
v -0.18764478079758642 3 -1.1922801287013789
v -0.18764478079758637 0 -1.1922801287013789
v -0.19242161316000175 3 -1.2117012994328609
v -0.19242161316000173 0 -1.2117012994328609
v -0.20925239277490634 3 -1.2694895870628204
v -0.20925239277490643 0 -1.2694895870628204
v -0.2193073059498126 3 -1.2867782747239789
v -0.21930730594981263 0 -1.2867782747239789
v -0.48673846865387493 3 1.1044582980761346
v -0.48673846865387493 0 1.1044582980761346
v -0.49321981917346391 3 1.1233789771189759
v -0.49321981917346391 0 1.1233789771189759
v -0.51030357342574306 3 1.1810929846933609
v -0.51030357342574306 0 1.1810929846933609
v -0.51119181242490552 3 1.2010732507446518
v -0.51119181242490552 0 1.2010732507446518
v -0.51594797784098512 3 -1.0911187621971079
v -0.51594797784098512 0 -1.0911187621971079
v -0.52600289101589137 3 -1.1084074498582663
v -0.52600289101589137 0 -1.1084074498582663
v -0.55843274782632268 3 -1.1591131272218846
v -0.5584327478263228 0 -1.1591131272218846
v -0.57295115254716023 3 -1.172868705158197
v -0.57295115254716023 0 -1.172868705158197
v -0.77818400090299666 3 0.9225899033673387
v -0.77818400090299678 0 0.9225899033673387
v -0.78973338246999081 3 0.93891815451129079
v -0.78973338246999081 0 0.93891815451129079
v -0.80245213818048056 3 -0.90156144271276695
v -0.80245213818048056 0 -0.90156144271276695
v -0.8169705429013181 3 -0.91531702064907927
v -0.81697054290131799 0 -0.91531702064907927
v -0.8223850395575063 3 0.98948128949210234
v -0.82238503955750619 0 0.98948128949210234
v -0.82886639007709528 3 1.0084019685349437
v -0.82886639007709517 0 1.0084019685349437
v -0.86237220277628024 3 -0.95483221532462992
v -0.86237220277628035 0 -0.95483221532462981
v -0.88017790423684406 3 -0.96394028841926782
v -0.88017790423684406 0 -0.96394028841926782
v -1.0065856934374113 3 0.66597876154114455
v -1.0065856934374113 0 0.66597876154114455
v -1.0222674438440695 3 0.67839176698637305
v -1.0222674438440695 0 0.67839176698637305
v -1.0239463986512169 3 -0.63896497693218968
v -1.0239463986512169 0 -0.63896497693218968
v -1.0417521001117807 3 -0.64807305002682769
v -1.0417521001117807 0 -0.64807305002682769
v -1.0678417606964725 3 0.71770770488800761
v -1.0678417606964725 0 0.71770770488800761
v -1.0793911422634666 3 0.7340359560319597
v -1.0793911422634666 0 0.7340359560319597
v -1.0964473905822723 3 -0.67319647594760945
v -1.0964473905822723 0 -0.67319647594760945
v -1.1160978767448118 3 -0.67691916228624205
v -1.1160978767448118 0 -0.67691916228624205
v -1.1534397994851482 3 0.35541398118308698
v -1.1534397994851482 0 0.35541398118308698
v -1.1624866115469428 3 -0.32460336879160401
v -1.1624866115469428 0 -0.32460336879160401
v -1.1719834765764838 3 0.36290611305140519
v -1.1719834765764838 0 0.36290611305140519
v -1.1821370977094823 3 -0.3283260551302366
v -1.1821370977094823 0 -0.3283260551302366
v -1.2068490727492172 3 0.016055673797910536
v -1.2068490727492172 0 0.01605567379791048
v -1.2267523780907843 3 0.018019964122771265
v -1.2267523780907843 0 0.018019964122771209
v -1.2267882930832921 3 0.38778971040595889
v -1.2267882930832921 0 0.38778971040595889
v -1.2416949316270005 3 -0.33702236174291528
v -1.2416949316270005 0 -0.33702236174291522
v -1.2424700434899503 3 0.40020271585118738
v -1.2424700434899503 0 0.40020271585118738
v -1.2615982369685677 3 -0.33505807141805455
v -1.2615982369685677 0 -0.33505807141805455
v -1.2863477339554097 3 0.026455299861028542
v -1.2863477339554097 0 0.026455299861028542
v -1.3048914110467453 3 0.03394743172934675
v -1.3048914110467453 0 0.03394743172934675
vn 0.9205048680305481 0 0.39073112607002258
vn 0.9205048680305481 0 0.39073112607002258
vn -0.39073112607002258 0 0.9205048680305481
vn -0.39073112607002258 0 0.9205048680305481
vn 0.77313625812530518 0 0.63423997163772583
vn 0.77313625812530518 0 0.63423997163772583
vn 0.99329960346221924 0 0.11556757986545563
vn 0.99329960346221924 0 0.11556757986545563
vn -0.63423997163772583 0 0.77313625812530518
vn -0.63423997163772583 0 0.77313625812530518
vn -0.11556757986545563 0 0.99329960346221924
vn -0.11556757986545563 0 0.99329960346221924
vn 0.63423997163772583 0 -0.77313625812530518
vn 0.63423997163772583 0 -0.77313625812530518
vn -0.77313625812530518 0 -0.63423997163772583
vn -0.77313625812530518 0 -0.63423997163772583
vn 0.82636642456054688 0 -0.56313276290893555
vn 0.82636642456054688 0 -0.56313276290893555
vn 0.39073112607002258 0 -0.9205048680305481
vn 0.39073112607002258 0 -0.9205048680305481
vn -0.56313276290893555 0 -0.82636642456054688
vn -0.56313276290893555 0 -0.82636642456054688
vn -0.9205048680305481 0 -0.39073112607002258
vn -0.9205048680305481 0 -0.39073112607002258
vn 0.56313276290893555 0 0.82636642456054688
vn 0.56313276290893555 0 0.82636642456054688
vn -0.82636642456054688 0 0.56313276290893555
vn -0.82636642456054688 0 0.56313276290893555
vn 0.98562312126159668 0 -0.16895858943462372
vn 0.98562312126159668 0 -0.16895858943462372
vn 0.16895858943462372 0 0.98562312126159668
vn 0.16895858943462372 0 0.98562312126159668
vn 0.9515455961227417 0 -0.30750760436058044
vn 0.9515455961227417 0 -0.30750760436058044
vn -0.30750760436058044 0 -0.9515455961227417
vn -0.30750760436058044 0 -0.9515455961227417
vn 0.11556757986545563 0 -0.99329960346221924
vn 0.11556757986545563 0 -0.99329960346221924
vn -0.99329960346221924 0 -0.11556757986545563
vn -0.99329960346221924 0 -0.11556757986545563
vn 0.30750760436058044 0 0.9515455961227417
vn 0.30750760436058044 0 0.9515455961227417
vn -0.9515455961227417 0 0.30750760436058044
vn -0.9515455961227417 0 0.30750760436058044
vn 0.89809739589691162 0 -0.43979665637016296
vn 0.89809739589691162 0 -0.43979665637016296
vn 0.43979665637016296 0 0.89809739589691162
vn 0.43979665637016296 0 0.89809739589691162
vn 0.99963623285293579 0 -0.026970021426677704
vn 0.99963623285293579 0 -0.026970021426677704
vn -0.026970021426677704 0 -0.99963623285293579
vn -0.026970021426677704 0 -0.99963623285293579
vn -0.16895858943462372 0 -0.98562312126159668
vn -0.16895858943462372 0 -0.98562312126159668
vn -0.98562312126159668 0 0.16895858943462372
vn -0.98562312126159668 0 0.16895858943462372
vn 0.026970021426677704 0 0.99963623285293579
vn 0.026970021426677704 0 0.99963623285293579
vn -0.99963623285293579 0 0.026970021426677704
vn -0.99963623285293579 0 0.026970021426677704
vn 0.96674227714538574 0 0.25575250387191772
vn 0.96674227714538574 0 0.25575250387191772
vn 0.25575250387191772 0 -0.96674227714538574
vn 0.25575250387191772 0 -0.96674227714538574
vn 0.73781305551528931 0 -0.67500507831573486
vn 0.73781305551528931 0 -0.67500507831573486
vn 0.67500507831573486 0 0.73781305551528931
vn 0.67500507831573486 0 0.73781305551528931
vn -0.43979665637016296 0 -0.89809739589691162
vn -0.43979665637016296 0 -0.89809739589691162
vn -0.89809739589691162 0 0.43979665637016296
vn -0.89809739589691162 0 0.43979665637016296
vn -0.25575250387191772 0 0.96674227714538574
vn -0.25575250387191772 0 0.96674227714538574
vn -0.96674227714538574 0 -0.25575250387191772
vn -0.96674227714538574 0 -0.25575250387191772
vn 0.85552859306335449 0 0.51775556802749634
vn 0.85552859306335449 0 0.51775556802749634
vn 0.51775556802749634 0 -0.85552859306335449
vn 0.51775556802749634 0 -0.85552859306335449
vn 0.85552859306335449 0 0.51775556802749634
vn 0.85552859306335449 0 0.51775556802749634
vn -0.67500507831573486 0 -0.73781305551528931
vn -0.67500507831573486 0 -0.73781305551528931
vn -0.73781305551528931 0 0.67500507831573486
vn -0.73781305551528931 0 0.67500507831573486
vn 0.51775556802749634 0 -0.85552859306335449
vn 0.51775556802749634 0 -0.85552859306335449
vn -0.51775556802749634 0 0.85552859306335449
vn -0.51775556802749634 0 0.85552859306335449
vn 0.73781305551528931 0 -0.67500507831573486
vn 0.73781305551528931 0 -0.67500507831573486
vn 0.67500507831573486 0 0.73781305551528931
vn 0.67500507831573486 0 0.73781305551528931
vn -0.85552859306335449 0 -0.51775556802749634
vn -0.85552859306335449 0 -0.51775556802749634
vn -0.51775556802749634 0 0.85552859306335449
vn -0.51775556802749634 0 0.85552859306335449
vn -0.85552859306335449 0 -0.51775556802749634
vn -0.85552859306335449 0 -0.51775556802749634
vn 0.96674227714538574 0 0.25575250387191772
vn 0.96674227714538574 0 0.25575250387191772
vn 0.25575250387191772 0 -0.96674227714538574
vn 0.25575250387191772 0 -0.96674227714538574
vn 0.89809739589691162 0 -0.43979665637016296
vn 0.89809739589691162 0 -0.43979665637016296
vn 0.43979665637016296 0 0.89809739589691162
vn 0.43979665637016296 0 0.89809739589691162
vn -0.67500507831573486 0 -0.73781305551528931
vn -0.67500507831573486 0 -0.73781305551528931
vn -0.73781305551528931 0 0.67500507831573486
vn -0.73781305551528931 0 0.67500507831573486
vn -0.25575250387191772 0 0.96674227714538574
vn -0.25575250387191772 0 0.96674227714538574
vn -0.96674227714538574 0 -0.25575250387191772
vn -0.96674227714538574 0 -0.25575250387191772
vn 0.99963623285293579 0 -0.026970021426677704
vn 0.99963623285293579 0 -0.026970021426677704
vn -0.026970021426677704 0 -0.99963623285293579
vn -0.026970021426677704 0 -0.99963623285293579
vn 0.98562312126159668 0 -0.16895858943462372
vn 0.98562312126159668 0 -0.16895858943462372
vn 0.16895858943462372 0 0.98562312126159668
vn 0.16895858943462372 0 0.98562312126159668
vn 0.026970021426677704 0 0.99963623285293579
vn 0.026970021426677704 0 0.99963623285293579
vn -0.99963623285293579 0 0.026970021426677704
vn -0.99963623285293579 0 0.026970021426677704
vn -0.43979665637016296 0 -0.89809739589691162
vn -0.43979665637016296 0 -0.89809739589691162
vn -0.89809739589691162 0 0.43979665637016296
vn -0.89809739589691162 0 0.43979665637016296
vn 0.9515455961227417 0 -0.30750760436058044
vn 0.9515455961227417 0 -0.30750760436058044
vn -0.30750760436058044 0 -0.9515455961227417
vn -0.30750760436058044 0 -0.9515455961227417
vn 0.99329960346221924 0 0.11556757986545563
vn 0.99329960346221924 0 0.11556757986545563
vn -0.11556757986545563 0 0.99329960346221924
vn -0.11556757986545563 0 0.99329960346221924
vn 0.30750760436058044 0 0.9515455961227417
vn 0.30750760436058044 0 0.9515455961227417
vn -0.9515455961227417 0 0.30750760436058044
vn -0.9515455961227417 0 0.30750760436058044
vn -0.16895858943462372 0 -0.98562312126159668
vn -0.16895858943462372 0 -0.98562312126159668
vn -0.98562312126159668 0 0.16895858943462372
vn -0.98562312126159668 0 0.16895858943462372
vn 0.82636642456054688 0 -0.56313276290893555
vn 0.82636642456054688 0 -0.56313276290893555
vn -0.56313276290893555 0 -0.82636642456054688
vn -0.56313276290893555 0 -0.82636642456054688
vn 0.9205048680305481 0 0.39073112607002258
vn 0.9205048680305481 0 0.39073112607002258
vn 0.56313276290893555 0 0.82636642456054688
vn 0.56313276290893555 0 0.82636642456054688
vn -0.39073112607002258 0 0.9205048680305481
vn -0.39073112607002258 0 0.9205048680305481
vn -0.82636642456054688 0 0.56313276290893555
vn -0.82636642456054688 0 0.56313276290893555
vn 0.77313625812530518 0 0.63423997163772583
vn 0.77313625812530518 0 0.63423997163772583
vn -0.63423997163772583 0 0.77313625812530518
vn -0.63423997163772583 0 0.77313625812530518
vn 0.11556757986545563 0 -0.99329960346221924
vn 0.11556757986545563 0 -0.99329960346221924
vn 0.63423997163772583 0 -0.77313625812530518
vn 0.63423997163772583 0 -0.77313625812530518
vn -0.99329960346221924 0 -0.11556757986545563
vn -0.99329960346221924 0 -0.11556757986545563
vn -0.77313625812530518 0 -0.63423997163772583
vn -0.77313625812530518 0 -0.63423997163772583
vn 0.39073112607002258 0 -0.9205048680305481
vn 0.39073112607002258 0 -0.9205048680305481
vn -0.9205048680305481 0 -0.39073112607002258
vn -0.9205048680305481 0 -0.39073112607002258
f 2//2 1//1 3//3 4//4
f 4//4 3//3 23//23 24//24
f 24//24 23//23 19//19 20//20
f 20//20 19//19 1//1 2//2
f 8//8 7//7 11//11 12//12
f 12//12 11//11 39//39 40//40
f 40//40 39//39 37//37 38//38
f 38//38 37//37 7//7 8//8
f 30//30 29//29 31//31 32//32
f 32//32 31//31 55//55 56//56
f 56//56 55//55 53//53 54//54
f 54//54 53//53 29//29 30//30
f 46//46 45//45 47//47 48//48
f 48//48 47//47 71//71 72//72
f 72//72 71//71 69//69 70//70
f 70//70 69//69 45//45 46//46
f 66//66 65//65 67//67 68//68
f 68//68 67//67 85//85 86//86
f 86//86 85//85 83//83 84//84
f 84//84 83//83 65//65 66//66
f 88//88 87//87 81//81 82//82
f 82//82 81//81 97//97 98//98
f 98//98 97//97 99//99 100//100
f 100//100 99//99 87//87 88//88
f 104//104 103//103 101//101 102//102
f 102//102 101//101 113//113 114//114
f 114//114 113//113 115//115 116//116
f 116//116 115//115 103//103 104//104
f 120//120 119//119 117//117 118//118
f 118//118 117//117 125//125 126//126
f 126//126 125//125 127//127 128//128
f 128//128 127//127 119//119 120//120
f 136//136 135//135 133//133 134//134
f 134//134 133//133 141//141 142//142
f 142//142 141//141 143//143 144//144
f 144//144 143//143 135//135 136//136
f 152//152 151//151 149//149 150//150
f 150//150 149//149 155//155 156//156
f 156//156 155//155 159//159 160//160
f 160//160 159//159 151//151 152//152
f 172//172 171//171 167//167 168//168
f 168//168 167//167 161//161 162//162
f 162//162 161//161 163//163 164//164
f 164//164 163//163 171//171 172//172
f 176//176 175//175 173//173 174//174
f 174//174 173//173 153//153 154//154
f 154//154 153//153 157//157 158//158
f 158//158 157//157 175//175 176//176
f 170//170 169//169 165//165 166//166
f 166//166 165//165 137//137 138//138
f 138//138 137//137 139//139 140//140
f 140//140 139//139 169//169 170//170
f 148//148 147//147 145//145 146//146
f 146//146 145//145 121//121 122//122
f 122//122 121//121 123//123 124//124
f 124//124 123//123 147//147 148//148
f 132//132 131//131 129//129 130//130
f 130//130 129//129 105//105 106//106
f 106//106 105//105 107//107 108//108
f 108//108 107//107 131//131 132//132
f 112//112 111//111 109//109 110//110
f 110//110 109//109 91//91 92//92
f 92//92 91//91 93//93 94//94
f 94//94 93//93 111//111 112//112
f 90//90 89//89 95//95 96//96
f 96//96 95//95 79//79 80//80
f 80//80 79//79 77//77 78//78
f 78//78 77//77 89//89 90//90
f 74//74 73//73 75//75 76//76
f 76//76 75//75 63//63 64//64
f 64//64 63//63 61//61 62//62
f 62//62 61//61 73//73 74//74
f 58//58 57//57 59//59 60//60
f 60//60 59//59 51//51 52//52
f 52//52 51//51 49//49 50//50
f 50//50 49//49 57//57 58//58
f 42//42 41//41 43//43 44//44
f 44//44 43//43 35//35 36//36
f 36//36 35//35 33//33 34//34
f 34//34 33//33 41//41 42//42
f 26//26 25//25 27//27 28//28
f 28//28 27//27 21//21 22//22
f 22//22 21//21 17//17 18//18
f 18//18 17//17 25//25 26//26
f 6//6 5//5 9//9 10//10
f 10//10 9//9 15//15 16//16
f 16//16 15//15 13//13 14//14
f 14//14 13//13 5//5 6//6
