# Rhino

mtllib Frangisole59.mtl
usemtl diffuse_Black
v 1.397391011861135 3 -0.13749857776675395
v 1.397391011861135 0 -0.13749857776675395
v 1.3898988799928169 3 -0.1189549006754185
v 1.3898988799928169 0 -0.11895490067541847
v 1.3795246831491002 3 0.26176162342968085
v 1.3795246831491002 0 0.26176162342968085
v 1.3671116777038719 3 0.27744337383633899
v 1.3671116777038719 0 0.27744337383633899
v 1.3020490313965241 3 -0.52561946192805697
v 1.3020490313965241 0 -0.52561946192805697
v 1.3000847410716634 3 -0.50571615658649005
v 1.3000847410716634 0 -0.50571615658649005
v 1.24989746895752 3 0.63981545465216161
v 1.24989746895752 0 0.63981545465216172
v 1.233569217813568 3 0.65136483621915564
v 1.233569217813568 0 0.65136483621915564
v 1.1049454683305515 3 -0.85150729710071404
v 1.1049454683305515 0 -0.85150729710071404
v 1.101335632013914 3 0.041559023783800914
v 1.101335632013914 0 0.041559023783800914
v 1.1012227819919189 3 -0.87115778326325333
v 1.1012227819919189 0 -0.87115778326325333
v 1.0889226265686858 3 0.057240774190459032
v 1.0889226265686858 0 0.057240774190459032
v 1.0684323305390766 3 -0.27040651223701528
v 1.0684323305390766 0 -0.27040651223701528
v 1.0609401986707585 3 -0.25186283514567986
v 1.0609401986707585 0 -0.25186283514567986
v 1.0450152704781883 3 0.35015769485868653
v 1.0450152704781883 0 0.35015769485868653
v 1.0286870193342363 3 0.36170707642568056
v 1.0286870193342363 0 0.36170707642568056
v 1.0190109952574689 3 0.96603524286774844
v 1.0190109952574689 0 0.96603524286774844
v 1.0000903162146275 3 0.97251659338733742
v 1.0000903162146275 0 0.97251659338733742
v 0.94897099585569844 3 -0.56046532080584033
v 0.94897099585569844 0 -0.56046532080584033
v 0.94700670553083777 3 -0.5405620154642734
v 0.94700670553083777 0 -0.5405620154642734
v 0.90403398667343582 3 0.63038867196411763
v 0.90403398667343582 0 0.63038867196411763
v 0.88511330763059459 3 0.63687002248370661
v 0.88511330763059459 0 0.63687002248370661
v 0.82029008510902501 3 -1.1283143805127247
v 0.82029008510902501 0 -1.1283143805127247
v 0.81118201201438711 3 -1.1461200819732884
v 0.81118201201438711 0 -1.1461200819732884
v 0.75635236117454607 3 -0.78546807613604352
v 0.75635236117454607 0 -0.78546807613604352
v 0.75262967483591348 3 -0.80511856229858281
v 0.75262967483591348 0 -0.80511856229858281
v 0.70557031101339507 3 1.2139926009389959
v 0.70557031101339507 0 1.2139926009389959
v 0.68981324576553971 3 0.85954930793280315
v 0.68981324576553971 0 0.85954930793280315
v 0.68559004496210452 3 1.2148808399381583
v 0.68559004496210452 0 1.2148808399381583
v 0.66983297971424915 3 0.86043754693196561
v 0.66983297971424915 0 0.86043754693196561
v 0.5044228467165851 3 -0.9667401846377881
v 0.5044228467165851 0 -0.9667401846377881
v 0.4953147736219472 3 -0.98454588609835181
v 0.4953147736219472 0 -0.98454588609835181
v 0.46917967764494389 3 -1.3137121431595935
v 0.46917967764494395 0 -1.3137121431595935
v 0.4554240997086319 3 -1.3282305478804306
v 0.45542409970863185 0 -1.3282305478804306
v 0.41970793816305507 3 1.0190743709093399
v 0.41970793816305507 0 1.0190743709093399
v 0.40028676743157315 3 1.0142975385469248
v 0.4002867674315731 0 1.0142975385469248
v 0.33496851635922653 3 1.3635994983741617
v 0.33496851635922659 0 1.3635994983741617
v 0.31554734562774461 3 1.3588226660117466
v 0.31554734562774461 0 1.3588226660117466
v 0.21162799313582617 3 -1.0696927528054359
v 0.21162799313582617 0 -1.0696927528054359
v 0.19787241519951418 3 -1.084211157526273
v 0.19787241519951412 0 -1.084211157526273
v 0.11560038950981957 3 1.0960400890234481
v 0.11560038950981963 0 1.0960400890234481
v 0.098311701848661226 3 1.0859851758485419
v 0.098311701848661254 0 1.0859851758485419
v 0.080059123017052342 3 -1.3926807609146203
v 0.080059123017052342 0 -1.3926807609146203
v 0.062770435355894091 3 -1.4027356740895265
v 0.062770435355894078 0 -1.4027356740895265
v -0.062770435355892579 3 1.4027356740895265
v -0.062770435355892606 0 1.4027356740895265
v -0.080059123017050926 3 1.3926807609146203
v -0.080059123017050968 0 1.3926807609146203
v -0.098311701848660296 3 -1.0859851758485419
v -0.098311701848660282 0 -1.0859851758485419
v -0.11560038950981855 3 -1.0960400890234481
v -0.11560038950981855 0 -1.0960400890234481
v -0.19787241519951301 3 1.0842111575262734
v -0.19787241519951301 0 1.0842111575262734
v -0.21162799313582523 3 1.0696927528054361
v -0.21162799313582528 0 1.0696927528054361
v -0.31554734562774361 3 -1.3588226660117466
v -0.31554734562774361 0 -1.3588226660117466
v -0.33496851635922553 3 -1.3635994983741617
v -0.33496851635922553 0 -1.3635994983741619
v -0.40028676743157243 3 -1.0142975385469248
v -0.40028676743157238 0 -1.0142975385469248
v -0.41970793816305435 3 -1.0190743709093399
v -0.41970793816305429 0 -1.0190743709093402
v -0.45542409970863051 3 1.3282305478804313
v -0.45542409970863051 0 1.3282305478804313
v -0.46917967764494273 3 1.3137121431595939
v -0.46917967764494273 0 1.3137121431595939
v -0.49531477362194609 3 0.98454588609835247
v -0.49531477362194609 0 0.98454588609835247
v -0.50442284671658399 3 0.96674018463778877
v -0.50442284671658399 0 0.96674018463778877
v -0.66983297971424771 3 -0.86043754693196683
v -0.66983297971424771 0 -0.86043754693196683
v -0.68559004496210241 3 -1.2148808399381594
v -0.68559004496210241 0 -1.2148808399381594
v -0.68981324576553837 3 -0.85954930793280437
v -0.68981324576553837 0 -0.85954930793280437
v -0.70557031101339307 3 -1.213992600938997
v -0.70557031101339307 0 -1.213992600938997
v -0.7526296748359127 3 0.80511856229858347
v -0.7526296748359127 0 0.80511856229858347
v -0.7563523611745453 3 0.78546807613604408
v -0.7563523611745453 0 0.78546807613604408
v -0.811182012014386 3 1.1461200819732895
v -0.811182012014386 0 1.1461200819732895
v -0.8202900851090239 3 1.1283143805127258
v -0.82029008510902379 0 1.1283143805127258
v -0.88511330763059348 3 -0.63687002248370772
v -0.88511330763059359 0 -0.63687002248370772
v -0.90403398667343482 3 -0.63038867196411874
v -0.90403398667343493 0 -0.63038867196411874
v -0.94700670553083766 3 0.54056201546427396
v -0.94700670553083766 0 0.54056201546427396
v -0.94897099585569833 3 0.56046532080584099
v -0.94897099585569833 0 0.56046532080584099
v -1.0000903162146262 3 -0.97251659338733876
v -1.0000903162146262 0 -0.97251659338733876
v -1.0190109952574675 3 -0.96603524286774989
v -1.0190109952574675 0 -0.96603524286774978
v -1.0286870193342357 3 -0.36170707642568228
v -1.0286870193342357 0 -0.36170707642568223
v -1.0450152704781877 3 -0.35015769485868831
v -1.0450152704781877 0 -0.35015769485868831
v -1.0609401986707585 3 0.25186283514567986
v -1.0609401986707585 0 0.25186283514567986
v -1.0684323305390766 3 0.27040651223701528
v -1.0684323305390766 0 0.27040651223701528
v -1.0889226265686855 3 -0.057240774190460822
v -1.0889226265686855 0 -0.057240774190460822
v -1.101222781991918 3 0.87115778326325444
v -1.101222781991918 0 0.87115778326325444
v -1.1013356320139138 3 -0.041559023783802732
v -1.1013356320139138 0 -0.041559023783802732
v -1.1049454683305506 3 0.85150729710071504
v -1.1049454683305506 0 0.85150729710071504
v -1.2335692178135669 3 -0.65136483621915797
v -1.2335692178135669 0 -0.65136483621915786
v -1.2498974689575189 3 -0.63981545465216394
v -1.2498974689575189 0 -0.63981545465216394
v -1.3000847410716632 3 0.50571615658649094
v -1.3000847410716632 0 0.50571615658649094
v -1.3020490313965238 3 0.52561946192805797
v -1.3020490313965238 0 0.52561946192805797
v -1.3671116777038714 3 -0.27744337383634138
v -1.3671116777038714 0 -0.27744337383634138
v -1.3795246831490997 3 -0.26176162342968329
v -1.3795246831490997 0 -0.26176162342968329
v -1.3898988799928169 3 0.11895490067541853
v -1.3898988799928169 0 0.1189549006754185
v -1.397391011861135 3 0.13749857776675395
v -1.397391011861135 0 0.13749857776675398
vn 0.9205048680305481 0 -0.39073112607002258
vn 0.9205048680305481 0 -0.39073112607002258
vn 0.39073112607002258 0 0.9205048680305481
vn 0.39073112607002258 0 0.9205048680305481
vn 0.99329960346221924 0 -0.11556757986545563
vn 0.99329960346221924 0 -0.11556757986545563
vn 0.11556757986545563 0 0.99329960346221924
vn 0.11556757986545563 0 0.99329960346221924
vn 0.77313625812530518 0 -0.63423997163772583
vn 0.77313625812530518 0 -0.63423997163772583
vn 0.63423997163772583 0 0.77313625812530518
vn 0.63423997163772583 0 0.77313625812530518
vn 0.98562312126159668 0 0.16895858943462372
vn 0.98562312126159668 0 0.16895858943462372
vn -0.16895858943462372 0 0.98562312126159668
vn -0.16895858943462372 0 0.98562312126159668
vn 0.82636642456054688 0 0.56313276290893555
vn 0.82636642456054688 0 0.56313276290893555
vn -0.11556757986545563 0 -0.99329960346221924
vn -0.11556757986545563 0 -0.99329960346221924
vn 0.56313276290893555 0 -0.82636642456054688
vn 0.56313276290893555 0 -0.82636642456054688
vn -0.99329960346221924 0 0.11556757986545563
vn -0.99329960346221924 0 0.11556757986545563
vn -0.39073112607002258 0 -0.9205048680305481
vn -0.39073112607002258 0 -0.9205048680305481
vn -0.9205048680305481 0 0.39073112607002258
vn -0.9205048680305481 0 0.39073112607002258
vn 0.16895858943462372 0 -0.98562312126159668
vn 0.16895858943462372 0 -0.98562312126159668
vn -0.98562312126159668 0 -0.16895858943462372
vn -0.98562312126159668 0 -0.16895858943462372
vn 0.89809739589691162 0 0.43979665637016296
vn 0.89809739589691162 0 0.43979665637016296
vn -0.43979665637016296 0 0.89809739589691162
vn -0.43979665637016296 0 0.89809739589691162
vn -0.63423997163772583 0 -0.77313625812530518
vn -0.63423997163772583 0 -0.77313625812530518
vn -0.77313625812530518 0 0.63423997163772583
vn -0.77313625812530518 0 0.63423997163772583
vn 0.43979665637016296 0 -0.89809739589691162
vn 0.43979665637016296 0 -0.89809739589691162
vn -0.89809739589691162 0 -0.43979665637016296
vn -0.89809739589691162 0 -0.43979665637016296
vn 0.9515455961227417 0 0.30750760436058044
vn 0.9515455961227417 0 0.30750760436058044
vn 0.30750760436058044 0 -0.9515455961227417
vn 0.30750760436058044 0 -0.9515455961227417
vn -0.56313276290893555 0 0.82636642456054688
vn -0.56313276290893555 0 0.82636642456054688
vn -0.82636642456054688 0 -0.56313276290893555
vn -0.82636642456054688 0 -0.56313276290893555
vn 0.73781305551528931 0 0.67500507831573486
vn 0.73781305551528931 0 0.67500507831573486
vn 0.67500507831573486 0 -0.73781305551528931
vn 0.67500507831573486 0 -0.73781305551528931
vn -0.67500507831573486 0 0.73781305551528931
vn -0.67500507831573486 0 0.73781305551528931
vn -0.73781305551528931 0 -0.67500507831573486
vn -0.73781305551528931 0 -0.67500507831573486
vn -0.30750760436058044 0 0.9515455961227417
vn -0.30750760436058044 0 0.9515455961227417
vn -0.9515455961227417 0 -0.30750760436058044
vn -0.9515455961227417 0 -0.30750760436058044
vn 0.99963623285293579 0 0.026970021426677704
vn 0.99963623285293579 0 0.026970021426677704
vn 0.026970021426677704 0 -0.99963623285293579
vn 0.026970021426677704 0 -0.99963623285293579
vn 0.85552859306335449 0 -0.51775556802749634
vn 0.85552859306335449 0 -0.51775556802749634
vn -0.51775556802749634 0 -0.85552859306335449
vn -0.51775556802749634 0 -0.85552859306335449
vn 0.51775556802749634 0 0.85552859306335449
vn 0.51775556802749634 0 0.85552859306335449
vn -0.85552859306335449 0 0.51775556802749634
vn -0.85552859306335449 0 0.51775556802749634
vn -0.026970021426677704 0 0.99963623285293579
vn -0.026970021426677704 0 0.99963623285293579
vn -0.99963623285293579 0 -0.026970021426677704
vn -0.99963623285293579 0 -0.026970021426677704
vn 0.96674227714538574 0 -0.25575250387191772
vn 0.96674227714538574 0 -0.25575250387191772
vn -0.25575250387191772 0 -0.96674227714538574
vn -0.25575250387191772 0 -0.96674227714538574
vn 0.96674227714538574 0 -0.25575250387191772
vn 0.96674227714538574 0 -0.25575250387191772
vn -0.25575250387191772 0 -0.96674227714538574
vn -0.25575250387191772 0 -0.96674227714538574
vn 0.25575250387191772 0 0.96674227714538574
vn 0.25575250387191772 0 0.96674227714538574
vn -0.96674227714538574 0 0.25575250387191772
vn -0.96674227714538574 0 0.25575250387191772
vn 0.25575250387191772 0 0.96674227714538574
vn 0.25575250387191772 0 0.96674227714538574
vn -0.96674227714538574 0 0.25575250387191772
vn -0.96674227714538574 0 0.25575250387191772
vn 0.99963623285293579 0 0.026970021426677704
vn 0.99963623285293579 0 0.026970021426677704
vn 0.026970021426677704 0 -0.99963623285293579
vn 0.026970021426677704 0 -0.99963623285293579
vn 0.85552859306335449 0 -0.51775556802749634
vn 0.85552859306335449 0 -0.51775556802749634
vn -0.51775556802749634 0 -0.85552859306335449
vn -0.51775556802749634 0 -0.85552859306335449
vn 0.51775556802749634 0 0.85552859306335449
vn 0.51775556802749634 0 0.85552859306335449
vn -0.85552859306335449 0 0.51775556802749634
vn -0.85552859306335449 0 0.51775556802749634
vn -0.026970021426677704 0 0.99963623285293579
vn -0.026970021426677704 0 0.99963623285293579
vn -0.99963623285293579 0 -0.026970021426677704
vn -0.99963623285293579 0 -0.026970021426677704
vn 0.9515455961227417 0 0.30750760436058044
vn 0.9515455961227417 0 0.30750760436058044
vn 0.30750760436058044 0 -0.9515455961227417
vn 0.30750760436058044 0 -0.9515455961227417
vn 0.73781305551528931 0 0.67500507831573486
vn 0.73781305551528931 0 0.67500507831573486
vn 0.67500507831573486 0 -0.73781305551528931
vn 0.67500507831573486 0 -0.73781305551528931
vn -0.67500507831573486 0 0.73781305551528931
vn -0.67500507831573486 0 0.73781305551528931
vn -0.73781305551528931 0 -0.67500507831573486
vn -0.73781305551528931 0 -0.67500507831573486
vn 0.82636642456054688 0 0.56313276290893555
vn 0.82636642456054688 0 0.56313276290893555
vn 0.56313276290893555 0 -0.82636642456054688
vn 0.56313276290893555 0 -0.82636642456054688
vn -0.30750760436058044 0 0.9515455961227417
vn -0.30750760436058044 0 0.9515455961227417
vn -0.9515455961227417 0 -0.30750760436058044
vn -0.9515455961227417 0 -0.30750760436058044
vn 0.89809739589691162 0 0.43979665637016296
vn 0.89809739589691162 0 0.43979665637016296
vn -0.43979665637016296 0 0.89809739589691162
vn -0.43979665637016296 0 0.89809739589691162
vn 0.77313625812530518 0 -0.63423997163772583
vn 0.77313625812530518 0 -0.63423997163772583
vn 0.63423997163772583 0 0.77313625812530518
vn 0.63423997163772583 0 0.77313625812530518
vn 0.43979665637016296 0 -0.89809739589691162
vn 0.43979665637016296 0 -0.89809739589691162
vn -0.89809739589691162 0 -0.43979665637016296
vn -0.89809739589691162 0 -0.43979665637016296
vn 0.98562312126159668 0 0.16895858943462372
vn 0.98562312126159668 0 0.16895858943462372
vn -0.16895858943462372 0 0.98562312126159668
vn -0.16895858943462372 0 0.98562312126159668
vn 0.9205048680305481 0 -0.39073112607002258
vn 0.9205048680305481 0 -0.39073112607002258
vn 0.39073112607002258 0 0.9205048680305481
vn 0.39073112607002258 0 0.9205048680305481
vn 0.99329960346221924 0 -0.11556757986545563
vn 0.99329960346221924 0 -0.11556757986545563
vn -0.56313276290893555 0 0.82636642456054688
vn -0.56313276290893555 0 0.82636642456054688
vn 0.11556757986545563 0 0.99329960346221924
vn 0.11556757986545563 0 0.99329960346221924
vn -0.82636642456054688 0 -0.56313276290893555
vn -0.82636642456054688 0 -0.56313276290893555
vn 0.16895858943462372 0 -0.98562312126159668
vn 0.16895858943462372 0 -0.98562312126159668
vn -0.98562312126159668 0 -0.16895858943462372
vn -0.98562312126159668 0 -0.16895858943462372
vn -0.63423997163772583 0 -0.77313625812530518
vn -0.63423997163772583 0 -0.77313625812530518
vn -0.77313625812530518 0 0.63423997163772583
vn -0.77313625812530518 0 0.63423997163772583
vn -0.11556757986545563 0 -0.99329960346221924
vn -0.11556757986545563 0 -0.99329960346221924
vn -0.99329960346221924 0 0.11556757986545563
vn -0.99329960346221924 0 0.11556757986545563
vn -0.39073112607002258 0 -0.9205048680305481
vn -0.39073112607002258 0 -0.9205048680305481
vn -0.9205048680305481 0 0.39073112607002258
vn -0.9205048680305481 0 0.39073112607002258
f 2//2 1//1 3//3 4//4
f 4//4 3//3 27//27 28//28
f 28//28 27//27 25//25 26//26
f 26//26 25//25 1//1 2//2
f 10//10 9//9 11//11 12//12
f 12//12 11//11 39//39 40//40
f 40//40 39//39 37//37 38//38
f 38//38 37//37 9//9 10//10
f 22//22 21//21 17//17 18//18
f 18//18 17//17 49//49 50//50
f 50//50 49//49 51//51 52//52
f 52//52 51//51 21//21 22//22
f 48//48 47//47 45//45 46//46
f 46//46 45//45 61//61 62//62
f 62//62 61//61 63//63 64//64
f 64//64 63//63 47//47 48//48
f 68//68 67//67 65//65 66//66
f 66//66 65//65 77//77 78//78
f 78//78 77//77 79//79 80//80
f 80//80 79//79 67//67 68//68
f 88//88 87//87 85//85 86//86
f 86//86 85//85 93//93 94//94
f 94//94 93//93 95//95 96//96
f 96//96 95//95 87//87 88//88
f 104//104 103//103 101//101 102//102
f 102//102 101//101 105//105 106//106
f 106//106 105//105 107//107 108//108
f 108//108 107//107 103//103 104//104
f 124//124 123//123 119//119 120//120
f 120//120 119//119 117//117 118//118
f 118//118 117//117 121//121 122//122
f 122//122 121//121 123//123 124//124
f 144//144 143//143 141//141 142//142
f 142//142 141//141 133//133 134//134
f 134//134 133//133 135//135 136//136
f 136//136 135//135 143//143 144//144
f 164//164 163//163 161//161 162//162
f 162//162 161//161 145//145 146//146
f 146//146 145//145 147//147 148//148
f 148//148 147//147 163//163 164//164
f 172//172 171//171 169//169 170//170
f 170//170 169//169 153//153 154//154
f 154//154 153//153 157//157 158//158
f 158//158 157//157 171//171 172//172
f 176//176 175//175 173//173 174//174
f 174//174 173//173 149//149 150//150
f 150//150 149//149 151//151 152//152
f 152//152 151//151 175//175 176//176
f 168//168 167//167 165//165 166//166
f 166//166 165//165 137//137 138//138
f 138//138 137//137 139//139 140//140
f 140//140 139//139 167//167 168//168
f 156//156 155//155 159//159 160//160
f 160//160 159//159 127//127 128//128
f 128//128 127//127 125//125 126//126
f 126//126 125//125 155//155 156//156
f 130//130 129//129 131//131 132//132
f 132//132 131//131 115//115 116//116
f 116//116 115//115 113//113 114//114
f 114//114 113//113 129//129 130//130
f 110//110 109//109 111//111 112//112
f 112//112 111//111 99//99 100//100
f 100//100 99//99 97//97 98//98
f 98//98 97//97 109//109 110//110
f 90//90 89//89 91//91 92//92
f 92//92 91//91 83//83 84//84
f 84//84 83//83 81//81 82//82
f 82//82 81//81 89//89 90//90
f 74//74 73//73 75//75 76//76
f 76//76 75//75 71//71 72//72
f 72//72 71//71 69//69 70//70
f 70//70 69//69 73//73 74//74
f 54//54 53//53 57//57 58//58
f 58//58 57//57 59//59 60//60
f 60//60 59//59 55//55 56//56
f 56//56 55//55 53//53 54//54
f 34//34 33//33 35//35 36//36
f 36//36 35//35 43//43 44//44
f 44//44 43//43 41//41 42//42
f 42//42 41//41 33//33 34//34
f 14//14 13//13 15//15 16//16
f 16//16 15//15 31//31 32//32
f 32//32 31//31 29//29 30//30
f 30//30 29//29 13//13 14//14
f 6//6 5//5 7//7 8//8
f 8//8 7//7 23//23 24//24
f 24//24 23//23 19//19 20//20
f 20//20 19//19 5//5 6//6
