# Rhino

mtllib Frangisole88.mtl
usemtl diffuse_Black
v 1.4108836352951897 3 0.17849684509604669
v 1.4108836352951899 0 0.17849684509604669
v 1.4076296395674142 3 0.19823035750016788
v 1.4076296395674142 0 0.19823035750016788
v 1.4064586940785548 3 -0.20637446226260436
v 1.4064586940785548 0 -0.20637446226260436
v 1.4040213072104519 3 -0.22622538529543046
v 1.4040213072104519 0 -0.22622538529543046
v 1.3034445620963759 3 0.56875832265945703
v 1.3034445620963759 0 0.56875832265945703
v 1.2947628031543286 3 0.58677573261960858
v 1.2947628031543286 0 0.58677573261960858
v 1.2913448297273764 3 -0.59426005044904839
v 1.2913448297273764 0 -0.5942600504490485
v 1.2834135228517509 3 -0.61262018038444488
v 1.2834135228517509 0 -0.61262018038444499
v 1.0904081623598059 3 0.91294238345698664
v 1.0904081623598059 0 0.91294238345698664
v 1.077001984680563 3 0.92778402757185985
v 1.077001984680563 0 0.92778402757185985
v 1.0716138871951 3 -0.93400222354871332
v 1.0716138871951 0 -0.93400222354871332
v 1.0608176701503715 3 0.12077204011997189
v 1.0608176701503715 0 0.12077204011997189
v 1.0588312076257169 3 -0.9493841318512114
v 1.0588312076257169 0 -0.9493841318512114
v 1.057563674422596 3 0.14050555252409311
v 1.057563674422596 0 0.14050555252409308
v 1.0543099033214416 3 -0.16313602761700341
v 1.0543099033214416 0 -0.16313602761700341
v 1.0518725164533387 3 -0.18298695064982951
v 1.0518725164533387 0 -0.18298695064982951
v 0.98382168513742752 3 0.41474679845823365
v 0.98382168513742752 0 0.41474679845823365
v 0.97513992619538015 3 0.43276420841838514
v 0.97513992619538015 0 0.4327642084183852
v 0.96564221407561068 3 -0.45356129700788561
v 0.96564221407561068 0 -0.45356129700788561
v 0.9577109071999852 3 -0.4719214269432821
v 0.9577109071999852 0 -0.4719214269432821
v 0.82712231820750048 3 0.67512123777959532
v 0.82712231820750048 0 0.67512123777959532
v 0.81371614052825758 3 0.68996288189446853
v 0.81371614052825758 0 0.68996288189446853
v 0.79874393554074818 3 -0.70724172754808545
v 0.79874393554074818 0 -0.70724172754808556
v 0.78903337821588426 3 1.1831652818242435
v 0.78903337821588426 0 1.1831652818242435
v 0.78596125597136512 3 -0.72262363585058353
v 0.78596125597136512 0 -0.72262363585058353
v 0.77198887058540921 3 1.1936287783543078
v 0.77198887058540921 0 1.1936287783543078
v 0.76506716065545721 3 -1.1980770912215664
v 0.76506716065545732 0 -1.1980770912215664
v 0.74846868506950526 3 -1.2092346271602286
v 0.74846868506950526 0 -1.2092346271602288
v 0.60341442014223512 3 0.88080136951665355
v 0.60341442014223512 0 0.88080136951665355
v 0.58636991251176007 3 0.89126486604671784
v 0.58636991251176007 0 0.89126486604671784
v 0.56713617366146685 3 -0.90362563945084773
v 0.56713617366146685 0 -0.90362563945084773
v 0.55053769807551489 3 -0.91478317538951015
v 0.55053769807551489 0 -0.91478317538951015
v 0.42373580233109526 3 1.3575351656129706
v 0.42373580233109526 0 1.3575351656129706
v 0.40443380939001938 3 1.36277282429817
v 0.40443380939001938 0 1.36277282429817
v 0.39653924278911057 3 -1.3650908782024631
v 0.39653924278911057 0 -1.3650908782024631
v 0.37746968096362837 3 -1.3711201245719606
v 0.37746968096362843 0 -1.3711201245719606
v 0.3308214744007803 3 1.0151242126229165
v 0.3308214744007803 0 1.0151242126229165
v 0.31151948145970443 3 1.020361871308116
v 0.31151948145970443 0 1.020361871308116
v 0.28958241188082967 3 -1.0268031761139058
v 0.28958241188082967 0 -1.0268031761139058
v 0.27051285005534748 3 -1.0328324224834033
v 0.27051285005534748 0 -1.0328324224834033
v 0.031427340274439802 3 1.0672077291986208
v 0.031427340274439802 0 1.0672077291986208
v 0.024109671795291776 3 1.4219256238562323
v 0.024109671795291776 0 1.4219256238562323
v 0.011431594697476954 3 1.0667952260818359
v 0.011431594697476954 0 1.0667952260818359
v 0.0041139262183289248 3 1.4215131207394474
v 0.0041139262183289282 0 1.4215131207394474
v -0.0041139262183275249 3 -1.4215131207394476
v -0.0041139262183275292 0 -1.4215131207394476
v -0.01143159469747591 3 -1.0667952260818359
v -0.01143159469747591 0 -1.0667952260818359
v -0.024109671795290374 3 -1.4219256238562326
v -0.024109671795290374 0 -1.4219256238562326
v -0.031427340274438761 3 -1.0672077291986208
v -0.031427340274438754 0 -1.0672077291986208
v -0.27051285005534648 3 1.0328324224834038
v -0.27051285005534648 0 1.0328324224834038
v -0.28958241188082867 3 1.0268031761139063
v -0.28958241188082867 0 1.0268031761139063
v -0.31151948145970376 3 -1.0203618713081162
v -0.31151948145970376 0 -1.0203618713081162
v -0.33082147440077964 3 -1.0151242126229167
v -0.33082147440077958 0 -1.0151242126229167
v -0.37746968096362699 3 1.3711201245719609
v -0.37746968096362699 0 1.3711201245719609
v -0.39653924278910918 3 1.3650908782024633
v -0.39653924278910918 0 1.3650908782024633
v -0.40443380939001833 3 -1.36277282429817
v -0.40443380939001838 0 -1.36277282429817
v -0.4237358023310942 3 -1.3575351656129706
v -0.4237358023310942 0 -1.3575351656129706
v -0.55053769807551378 3 0.91478317538951082
v -0.55053769807551389 0 0.91478317538951082
v -0.56713617366146574 3 0.90362563945084839
v -0.56713617366146585 0 0.90362563945084839
v -0.58636991251175863 3 -0.89126486604671895
v -0.58636991251175863 0 -0.89126486604671895
v -0.60341442014223357 3 -0.88080136951665466
v -0.60341442014223357 0 -0.88080136951665466
v -0.74846868506950404 3 1.2092346271602297
v -0.74846868506950404 0 1.2092346271602297
v -0.76506716065545599 3 1.1980770912215672
v -0.76506716065545599 0 1.1980770912215672
v -0.77198887058540722 3 -1.1936287783543091
v -0.77198887058540722 0 -1.1936287783543091
v -0.78596125597136446 3 0.72262363585058431
v -0.78596125597136435 0 0.72262363585058431
v -0.78903337821588215 3 -1.1831652818242449
v -0.78903337821588215 0 -1.1831652818242449
v -0.79874393554074763 3 0.70724172754808623
v -0.79874393554074752 0 0.70724172754808623
v -0.81371614052825658 3 -0.68996288189446953
v -0.81371614052825647 0 -0.68996288189446942
v -0.8271223182074996 3 -0.6751212377795961
v -0.8271223182074996 0 -0.6751212377795961
v -0.95771090719998497 3 0.47192142694328271
v -0.95771090719998497 0 0.47192142694328271
v -0.96564221407561046 3 0.45356129700788622
v -0.96564221407561046 0 0.45356129700788622
v -0.97513992619537948 3 -0.43276420841838681
v -0.97513992619537948 0 -0.43276420841838681
v -0.98382168513742685 3 -0.41474679845823531
v -0.98382168513742685 0 -0.41474679845823537
v -1.0518725164533387 3 0.18298695064982951
v -1.0518725164533387 0 0.18298695064982951
v -1.0543099033214416 3 0.16313602761700341
v -1.0543099033214416 0 0.16313602761700341
v -1.0575636744225956 3 -0.14050555252409486
v -1.0575636744225956 0 -0.14050555252409486
v -1.058831207625716 3 0.9493841318512124
v -1.058831207625716 0 0.9493841318512124
v -1.0608176701503709 3 -0.12077204011997369
v -1.0608176701503711 0 -0.12077204011997371
v -1.0716138871950991 3 0.93400222354871421
v -1.0716138871950991 0 0.93400222354871421
v -1.0770019846805616 3 -0.92778402757186118
v -1.0770019846805616 0 -0.92778402757186118
v -1.0904081623598048 3 -0.91294238345698775
v -1.0904081623598048 0 -0.91294238345698786
v -1.2834135228517507 3 0.61262018038444577
v -1.2834135228517507 0 0.61262018038444577
v -1.2913448297273762 3 0.59426005044904928
v -1.2913448297273762 0 0.59426005044904939
v -1.2947628031543277 3 -0.5867757326196108
v -1.2947628031543277 0 -0.5867757326196108
v -1.303444562096375 3 -0.56875832265945925
v -1.303444562096375 0 -0.56875832265945925
v -1.4040213072104519 3 0.22622538529543046
v -1.4040213072104519 0 0.22622538529543046
v -1.4064586940785548 3 0.20637446226260436
v -1.4064586940785548 0 0.20637446226260436
v -1.4076296395674139 3 -0.19823035750017026
v -1.4076296395674139 0 -0.19823035750017026
v -1.4108836352951895 3 -0.1784968450960491
v -1.4108836352951895 0 -0.1784968450960491
vn 0.81273114681243896 0 -0.58263885974884033
vn 0.81273114681243896 0 -0.58263885974884033
vn 0.58263885974884033 0 0.81273114681243896
vn 0.58263885974884033 0 0.81273114681243896
vn 0.78801077604293823 0 0.61566144227981567
vn 0.78801077604293823 0 0.61566144227981567
vn 0.61566144227981567 0 -0.78801077604293823
vn 0.61566144227981567 0 -0.78801077604293823
vn 0.94395816326141357 0 -0.33006510138511658
vn 0.94395816326141357 0 -0.33006510138511658
vn 0.33006510138511658 0 0.94395816326141357
vn 0.33006510138511658 0 0.94395816326141357
vn 0.9295426607131958 0 0.36871454119682312
vn 0.9295426607131958 0 0.36871454119682312
vn 0.36871454119682312 0 -0.9295426607131958
vn 0.36871454119682312 0 -0.9295426607131958
vn 0.99871134757995605 0 -0.050751380622386932
vn 0.99871134757995605 0 -0.050751380622386932
vn 0.050751380622386932 0 0.99871134757995605
vn 0.050751380622386932 0 0.99871134757995605
vn 0.99576854705810547 0 0.091896608471870422
vn 0.99576854705810547 0 0.091896608471870422
vn -0.58263885974884033 0 -0.81273114681243896
vn -0.58263885974884033 0 -0.81273114681243896
vn 0.091896608471870422 0 -0.99576854705810547
vn 0.091896608471870422 0 -0.99576854705810547
vn -0.81273114681243896 0 0.58263885974884033
vn -0.81273114681243896 0 0.58263885974884033
vn -0.61566144227981567 0 0.78801077604293823
vn -0.61566144227981567 0 0.78801077604293823
vn -0.78801077604293823 0 -0.61566144227981567
vn -0.78801077604293823 0 -0.61566144227981567
vn -0.33006510138511658 0 -0.94395816326141357
vn -0.33006510138511658 0 -0.94395816326141357
vn -0.94395816326141357 0 0.33006510138511658
vn -0.94395816326141357 0 0.33006510138511658
vn -0.36871454119682312 0 0.9295426607131958
vn -0.36871454119682312 0 0.9295426607131958
vn -0.9295426607131958 0 -0.36871454119682312
vn -0.9295426607131958 0 -0.36871454119682312
vn -0.050751380622386932 0 -0.99871134757995605
vn -0.050751380622386932 0 -0.99871134757995605
vn -0.99871134757995605 0 0.050751380622386932
vn -0.99871134757995605 0 0.050751380622386932
vn -0.091896608471870422 0 0.99576854705810547
vn -0.091896608471870422 0 0.99576854705810547
vn 0.97255480289459229 0 0.23267386853694916
vn 0.97255480289459229 0 0.23267386853694916
vn -0.99576854705810547 0 -0.091896608471870422
vn -0.99576854705810547 0 -0.091896608471870422
vn -0.23267386853694916 0 0.97255480289459229
vn -0.23267386853694916 0 0.97255480289459229
vn 0.98132318258285522 0 -0.19236625730991364
vn 0.98132318258285522 0 -0.19236625730991364
vn -0.19236625730991364 0 -0.98132318258285522
vn -0.19236625730991364 0 -0.98132318258285522
vn 0.23267386853694916 0 -0.97255480289459229
vn 0.23267386853694916 0 -0.97255480289459229
vn -0.97255480289459229 0 -0.23267386853694916
vn -0.97255480289459229 0 -0.23267386853694916
vn 0.19236625730991364 0 0.98132318258285522
vn 0.19236625730991364 0 0.98132318258285522
vn -0.98132318258285522 0 0.19236625730991364
vn -0.98132318258285522 0 0.19236625730991364
vn 0.8676077127456665 0 0.49724927544593811
vn 0.8676077127456665 0 0.49724927544593811
vn -0.49724927544593811 0 0.8676077127456665
vn -0.49724927544593811 0 0.8676077127456665
vn 0.88737684488296509 0 -0.4610447883605957
vn 0.88737684488296509 0 -0.4610447883605957
vn -0.4610447883605957 0 -0.88737684488296509
vn -0.4610447883605957 0 -0.88737684488296509
vn 0.49724927544593811 0 -0.8676077127456665
vn 0.49724927544593811 0 -0.8676077127456665
vn -0.8676077127456665 0 -0.49724927544593811
vn -0.8676077127456665 0 -0.49724927544593811
vn 0.4610447883605957 0 0.88737684488296509
vn 0.4610447883605957 0 0.88737684488296509
vn -0.88737684488296509 0 0.4610447883605957
vn -0.88737684488296509 0 0.4610447883605957
vn 0.72154057025909424 0 -0.69237214326858521
vn 0.72154057025909424 0 -0.69237214326858521
vn 0.69237214326858521 0 0.72154057025909424
vn 0.69237214326858521 0 0.72154057025909424
vn -0.69237214326858521 0 -0.72154057025909424
vn -0.69237214326858521 0 -0.72154057025909424
vn -0.72154057025909424 0 0.69237214326858521
vn -0.72154057025909424 0 0.69237214326858521
vn 0.72154057025909424 0 -0.69237214326858521
vn 0.72154057025909424 0 -0.69237214326858521
vn 0.69237214326858521 0 0.72154057025909424
vn 0.69237214326858521 0 0.72154057025909424
vn -0.69237214326858521 0 -0.72154057025909424
vn -0.69237214326858521 0 -0.72154057025909424
vn -0.72154057025909424 0 0.69237214326858521
vn -0.72154057025909424 0 0.69237214326858521
vn 0.88737684488296509 0 -0.4610447883605957
vn 0.88737684488296509 0 -0.4610447883605957
vn -0.4610447883605957 0 -0.88737684488296509
vn -0.4610447883605957 0 -0.88737684488296509
vn 0.8676077127456665 0 0.49724927544593811
vn 0.8676077127456665 0 0.49724927544593811
vn -0.49724927544593811 0 0.8676077127456665
vn -0.49724927544593811 0 0.8676077127456665
vn 0.4610447883605957 0 0.88737684488296509
vn 0.4610447883605957 0 0.88737684488296509
vn -0.88737684488296509 0 0.4610447883605957
vn -0.88737684488296509 0 0.4610447883605957
vn 0.49724927544593811 0 -0.8676077127456665
vn 0.49724927544593811 0 -0.8676077127456665
vn -0.8676077127456665 0 -0.49724927544593811
vn -0.8676077127456665 0 -0.49724927544593811
vn 0.98132318258285522 0 -0.19236625730991364
vn 0.98132318258285522 0 -0.19236625730991364
vn -0.19236625730991364 0 -0.98132318258285522
vn -0.19236625730991364 0 -0.98132318258285522
vn 0.97255480289459229 0 0.23267386853694916
vn 0.97255480289459229 0 0.23267386853694916
vn -0.23267386853694916 0 0.97255480289459229
vn -0.23267386853694916 0 0.97255480289459229
vn 0.19236625730991364 0 0.98132318258285522
vn 0.19236625730991364 0 0.98132318258285522
vn -0.98132318258285522 0 0.19236625730991364
vn -0.98132318258285522 0 0.19236625730991364
vn 0.23267386853694916 0 -0.97255480289459229
vn 0.23267386853694916 0 -0.97255480289459229
vn 0.99576854705810547 0 0.091896608471870422
vn 0.99576854705810547 0 0.091896608471870422
vn -0.97255480289459229 0 -0.23267386853694916
vn -0.97255480289459229 0 -0.23267386853694916
vn 0.091896608471870422 0 -0.99576854705810547
vn 0.091896608471870422 0 -0.99576854705810547
vn 0.99871134757995605 0 -0.050751380622386932
vn 0.99871134757995605 0 -0.050751380622386932
vn 0.050751380622386932 0 0.99871134757995605
vn 0.050751380622386932 0 0.99871134757995605
vn 0.9295426607131958 0 0.36871454119682312
vn 0.9295426607131958 0 0.36871454119682312
vn 0.36871454119682312 0 -0.9295426607131958
vn 0.36871454119682312 0 -0.9295426607131958
vn 0.94395816326141357 0 -0.33006510138511658
vn 0.94395816326141357 0 -0.33006510138511658
vn 0.33006510138511658 0 0.94395816326141357
vn 0.33006510138511658 0 0.94395816326141357
vn 0.78801077604293823 0 0.61566144227981567
vn 0.78801077604293823 0 0.61566144227981567
vn 0.61566144227981567 0 -0.78801077604293823
vn 0.61566144227981567 0 -0.78801077604293823
vn 0.81273114681243896 0 -0.58263885974884033
vn 0.81273114681243896 0 -0.58263885974884033
vn -0.091896608471870422 0 0.99576854705810547
vn -0.091896608471870422 0 0.99576854705810547
vn 0.58263885974884033 0 0.81273114681243896
vn 0.58263885974884033 0 0.81273114681243896
vn -0.99576854705810547 0 -0.091896608471870422
vn -0.99576854705810547 0 -0.091896608471870422
vn -0.050751380622386932 0 -0.99871134757995605
vn -0.050751380622386932 0 -0.99871134757995605
vn -0.99871134757995605 0 0.050751380622386932
vn -0.99871134757995605 0 0.050751380622386932
vn -0.36871454119682312 0 0.9295426607131958
vn -0.36871454119682312 0 0.9295426607131958
vn -0.9295426607131958 0 -0.36871454119682312
vn -0.9295426607131958 0 -0.36871454119682312
vn -0.33006510138511658 0 -0.94395816326141357
vn -0.33006510138511658 0 -0.94395816326141357
vn -0.94395816326141357 0 0.33006510138511658
vn -0.94395816326141357 0 0.33006510138511658
vn -0.61566144227981567 0 0.78801077604293823
vn -0.61566144227981567 0 0.78801077604293823
vn -0.78801077604293823 0 -0.61566144227981567
vn -0.78801077604293823 0 -0.61566144227981567
vn -0.58263885974884033 0 -0.81273114681243896
vn -0.58263885974884033 0 -0.81273114681243896
vn -0.81273114681243896 0 0.58263885974884033
vn -0.81273114681243896 0 0.58263885974884033
f 8//8 7//7 5//5 6//6
f 6//6 5//5 29//29 30//30
f 30//30 29//29 31//31 32//32
f 32//32 31//31 7//7 8//8
f 16//16 15//15 13//13 14//14
f 14//14 13//13 37//37 38//38
f 38//38 37//37 39//39 40//40
f 40//40 39//39 15//15 16//16
f 26//26 25//25 21//21 22//22
f 22//22 21//21 45//45 46//46
f 46//46 45//45 49//49 50//50
f 50//50 49//49 25//25 26//26
f 56//56 55//55 53//53 54//54
f 54//54 53//53 61//61 62//62
f 62//62 61//61 63//63 64//64
f 64//64 63//63 55//55 56//56
f 72//72 71//71 69//69 70//70
f 70//70 69//69 77//77 78//78
f 78//78 77//77 79//79 80//80
f 80//80 79//79 71//71 72//72
f 94//94 93//93 89//89 90//90
f 90//90 89//89 91//91 92//92
f 92//92 91//91 95//95 96//96
f 96//96 95//95 93//93 94//94
f 112//112 111//111 109//109 110//110
f 110//110 109//109 101//101 102//102
f 102//102 101//101 103//103 104//104
f 104//104 103//103 111//111 112//112
f 130//130 129//129 125//125 126//126
f 126//126 125//125 117//117 118//118
f 118//118 117//117 119//119 120//120
f 120//120 119//119 129//129 130//130
f 160//160 159//159 157//157 158//158
f 158//158 157//157 133//133 134//134
f 134//134 133//133 135//135 136//136
f 136//136 135//135 159//159 160//160
f 168//168 167//167 165//165 166//166
f 166//166 165//165 141//141 142//142
f 142//142 141//141 143//143 144//144
f 144//144 143//143 167//167 168//168
f 176//176 175//175 173//173 174//174
f 174//174 173//173 149//149 150//150
f 150//150 149//149 153//153 154//154
f 154//154 153//153 175//175 176//176
f 170//170 169//169 171//171 172//172
f 172//172 171//171 147//147 148//148
f 148//148 147//147 145//145 146//146
f 146//146 145//145 169//169 170//170
f 162//162 161//161 163//163 164//164
f 164//164 163//163 139//139 140//140
f 140//140 139//139 137//137 138//138
f 138//138 137//137 161//161 162//162
f 152//152 151//151 155//155 156//156
f 156//156 155//155 131//131 132//132
f 132//132 131//131 127//127 128//128
f 128//128 127//127 151//151 152//152
f 122//122 121//121 123//123 124//124
f 124//124 123//123 115//115 116//116
f 116//116 115//115 113//113 114//114
f 114//114 113//113 121//121 122//122
f 106//106 105//105 107//107 108//108
f 108//108 107//107 99//99 100//100
f 100//100 99//99 97//97 98//98
f 98//98 97//97 105//105 106//106
f 84//84 83//83 87//87 88//88
f 88//88 87//87 85//85 86//86
f 86//86 85//85 81//81 82//82
f 82//82 81//81 83//83 84//84
f 66//66 65//65 67//67 68//68
f 68//68 67//67 75//75 76//76
f 76//76 75//75 73//73 74//74
f 74//74 73//73 65//65 66//66
f 48//48 47//47 51//51 52//52
f 52//52 51//51 59//59 60//60
f 60//60 59//59 57//57 58//58
f 58//58 57//57 47//47 48//48
f 18//18 17//17 19//19 20//20
f 20//20 19//19 43//43 44//44
f 44//44 43//43 41//41 42//42
f 42//42 41//41 17//17 18//18
f 10//10 9//9 11//11 12//12
f 12//12 11//11 35//35 36//36
f 36//36 35//35 33//33 34//34
f 34//34 33//33 9//9 10//10
f 2//2 1//1 3//3 4//4
f 4//4 3//3 27//27 28//28
f 28//28 27//27 23//23 24//24
f 24//24 23//23 1//1 2//2
