# Rhino

mtllib Frangisole1.mtl
usemtl diffuse_Black
v 1.2698182935849303 3 -0.021715559105617954
v 1.26981829358493 0 -0.02171555910561801
v 1.2638243685550519 3 -0.015694066577590537
v 1.2638243685550519 0 -0.015694066577590537
v 1.2501221385246861 3 -0.018242595552279334
v 1.2501221385246859 0 -0.018242595552279389
v 1.2439475992658269 3 -0.017910830575610714
v 1.2439475992658269 0 -0.017910830575610714
v 1.2244997104519588 3 0.33691322819575065
v 1.2244997104519588 0 0.33691322819575065
v 1.2170521310154954 3 0.34100212414288367
v 1.2170521310154954 0 0.34100212414288367
v 1.2122637504718243 3 -0.37858508095565435
v 1.2122637504718243 0 -0.37858508095565435
v 1.2082090720072076 3 -0.3711188173601544
v 1.2082090720072076 0 -0.37111881736015434
v 1.2046229411627338 3 0.33469646419773047
v 1.2046229411627338 0 0.33469646419773047
v 1.1986050451334038 3 0.33327522162902123
v 1.1986050451334038 0 0.33327522162902123
v 1.1943438749859978 3 -0.36970374870353895
v 1.1943438749859978 0 -0.36970374870353884
v 1.1885129169469635 3 -0.3676458538068158
v 1.1885129169469635 0 -0.36764585380681569
v 1.0799794431583523 3 0.66824730944882105
v 1.0799794431583523 0 0.66824730944882105
v 1.071681567908785 3 0.67007235078302241
v 1.071681567908785 0 0.67007235078302241
v 1.0615323572762607 3 0.66052040693495861
v 1.0615323572762607 0 0.66052040693495861
v 1.0564988079056179 3 -0.70478389107883399
v 1.0564988079056179 0 -0.70478389107883399
v 1.0561586386229498 3 0.65746129744133186
v 1.0561586386229498 0 0.65746129744133197
v 1.0547118619413642 3 -0.69647772868879165
v 1.0547118619413642 0 -0.69647772868879165
v 1.0418069737324671 3 -0.69121370284769135
v 1.0418069737324671 0 -0.69121370284769135
v 1.0367919864555377 3 -0.68759639643667625
v 1.0367919864555377 0 -0.68759639643667614
v 0.84796566426511344 3 0.9454439679101232
v 0.84796566426511355 0 0.9454439679101232
v 0.83948973770579893 3 0.9448573006364327
v 0.83948973770579882 0 0.9448573006364327
v 0.83244273497927823 3 0.93283291456843276
v 0.83244273497927834 0 0.93283291456843276
v 0.82814854042854358 3 0.92838376900783626
v 0.82814854042854347 0 0.92838376900783626
v 0.81576816943399799 3 -0.96541215655160539
v 0.81576816943399799 0 -0.96541215655160539
v 0.81514261516324105 3 -0.9738853018579986
v 0.81514261516324105 0 -0.9738853018579986
v 0.80486906733177288 3 -0.9567256335932991
v 0.80486906733177288 0 -0.9567256335932991
v 0.80107633526084732 3 -0.95184196832046275
v 0.80107633526084732 0 -0.95184196832046275
v 0.54725475029910065 3 1.1460463788631252
v 0.54725475029910076 0 1.1460463788631252
v 0.53928744159159681 3 1.1430955312750146
v 0.53928744159159681 0 1.1430955312750144
v 0.53591355302184529 3 1.1295728472345288
v 0.53591355302184529 0 1.1295728472345288
v 0.53304677267762701 3 1.1240941089201957
v 0.53304677267762712 0 1.1240941089201955
v 0.51073579139919945 3 -1.1561346330177771
v 0.51073579139919945 0 -1.1561346330177773
v 0.50774841558013462 3 -1.1640883173995329
v 0.50774841558013462 0 -1.1640883173995329
v 0.50272545583651307 3 -1.1447293433716059
v 0.50272545583651307 0 -1.1447293433716059
v 0.50046224356773128 3 -1.1389749647530776
v 0.50046224356773128 0 -1.1389749647530778
v 0.20220851111317259 3 1.2538029280008909
v 0.20220851111317253 0 1.2538029280008911
v 0.1959678421992028 3 1.2348015056460719
v 0.1959678421992028 0 1.2348015056460722
v 0.19539528422555377 3 1.2487269602205811
v 0.19539528422555374 0 1.2487269602205811
v 0.1947607255555924 3 1.2287370293729172
v 0.19476072555559237 0 1.2287370293729172
v 0.16432663700794503 3 -1.2531939573142603
v 0.16432663700794509 0 -1.2531939573142603
v 0.1598540177327864 3 -1.2399938897174874
v 0.15985401773278637 0 -1.2399938897174874
v 0.15930367726432348 3 -1.2338349832863333
v 0.15930367726432348 0 -1.2338349832863333
v 0.15921945906282506 3 -1.2599838205651508
v 0.15921945906282503 0 -1.2599838205651508
v -0.15921945906282384 3 1.2599838205651512
v -0.15921945906282381 0 1.2599838205651512
v -0.15930367726432243 3 1.2338349832863336
v -0.15930367726432237 0 1.2338349832863336
v -0.15985401773278521 3 1.2399938897174874
v -0.15985401773278518 0 1.2399938897174874
v -0.16432663700794392 3 1.2531939573142605
v -0.16432663700794392 0 1.2531939573142605
v -0.19476072555559121 3 -1.2287370293729176
v -0.19476072555559118 0 -1.2287370293729176
v -0.19539528422555252 3 -1.2487269602205811
v -0.19539528422555252 0 -1.2487269602205811
v -0.1959678421992018 3 -1.2348015056460722
v -0.19596784219920182 0 -1.2348015056460722
v -0.20220851111317154 3 -1.2538029280008911
v -0.20220851111317156 0 -1.2538029280008911
v -0.50046224356772995 3 1.1389749647530785
v -0.50046224356772995 0 1.1389749647530785
v -0.50272545583651196 3 1.1447293433716066
v -0.50272545583651196 0 1.1447293433716066
v -0.50774841558013351 3 1.1640883173995336
v -0.50774841558013351 0 1.1640883173995336
v -0.51073579139919811 3 1.156134633017778
v -0.51073579139919811 0 1.156134633017778
v -0.53304677267762612 3 -1.1240941089201959
v -0.53304677267762612 0 -1.1240941089201959
v -0.53591355302184351 3 -1.1295728472345297
v -0.53591355302184351 0 -1.1295728472345297
v -0.53928744159159581 3 -1.1430955312750148
v -0.53928744159159581 0 -1.1430955312750148
v -0.54725475029909898 3 -1.1460463788631263
v -0.54725475029909898 0 -1.1460463788631263
v -0.80107633526084632 3 0.95184196832046353
v -0.80107633526084632 0 0.95184196832046353
v -0.80486906733177199 3 0.9567256335933001
v -0.80486906733177199 0 0.9567256335933001
v -0.81514261516324016 3 0.9738853018579996
v -0.81514261516324016 0 0.9738853018579996
v -0.81576816943399699 3 0.96541215655160617
v -0.8157681694339971 0 0.96541215655160606
v -0.8281485404285418 3 -0.9283837690078377
v -0.8281485404285418 0 -0.9283837690078377
v -0.83244273497927712 3 -0.93283291456843376
v -0.83244273497927712 0 -0.93283291456843376
v -0.83948973770579727 3 -0.94485730063643436
v -0.83948973770579727 0 -0.94485730063643436
v -0.84796566426511222 3 -0.94544396791012408
v -0.84796566426511222 0 -0.94544396791012408
v -1.0367919864555368 3 0.68759639643667669
v -1.0367919864555368 0 0.68759639643667669
v -1.0418069737324664 3 0.69121370284769224
v -1.0418069737324664 0 0.69121370284769235
v -1.0547118619413636 3 0.69647772868879221
v -1.0547118619413638 0 0.69647772868879221
v -1.0561586386229489 3 -0.65746129744133341
v -1.0561586386229489 0 -0.65746129744133341
v -1.0564988079056172 3 0.70478389107883488
v -1.0564988079056172 0 0.70478389107883499
v -1.0615323572762596 3 -0.66052040693496028
v -1.0615323572762596 0 -0.66052040693496039
v -1.0716815679087839 3 -0.67007235078302374
v -1.0716815679087839 0 -0.67007235078302374
v -1.0799794431583511 3 -0.66824730944882282
v -1.0799794431583511 0 -0.66824730944882293
v -1.1885129169469635 3 0.3676458538068158
v -1.1885129169469635 0 0.36764585380681569
v -1.1943438749859974 3 0.36970374870353973
v -1.1943438749859974 0 0.36970374870353967
v -1.1986050451334032 3 -0.33327522162902323
v -1.1986050451334032 0 -0.33327522162902312
v -1.2046229411627332 3 -0.33469646419773258
v -1.2046229411627332 0 -0.33469646419773258
v -1.2082090720072076 3 0.3711188173601544
v -1.2082090720072076 0 0.37111881736015434
v -1.2122637504718241 3 0.37858508095565524
v -1.2122637504718241 0 0.37858508095565518
v -1.2170521310154947 3 -0.34100212414288578
v -1.2170521310154947 0 -0.34100212414288578
v -1.2244997104519584 3 -0.33691322819575276
v -1.2244997104519584 0 -0.33691322819575276
v -1.2439475992658267 3 0.017910830575608605
v -1.2439475992658267 0 0.017910830575608577
v -1.2501221385246861 3 0.018242595552279334
v -1.2501221385246859 0 0.018242595552279389
v -1.2638243685550519 3 0.015694066577588373
v -1.2638243685550519 0 0.015694066577588373
v -1.2698182935849303 3 0.021715559105617954
v -1.26981829358493 0 0.02171555910561801
vn 0.81915205717086792 0 0.57357645034790039
vn 0.81915205717086792 0 0.57357645034790039
vn 0.78112435340881348 0 -0.62437546253204346
vn 0.78112435340881348 0 -0.62437546253204346
vn -0.57357645034790039 0 0.81915205717086792
vn -0.57357645034790039 0 0.81915205717086792
vn -0.62437546253204346 0 -0.78112435340881348
vn -0.62437546253204346 0 -0.78112435340881348
vn 0.62437546253204346 0 0.78112435340881348
vn 0.62437546253204346 0 0.78112435340881348
vn 0.92539024353027344 0 -0.37901574373245239
vn 0.92539024353027344 0 -0.37901574373245239
vn 0.94756579399108887 0 0.31956076622009277
vn 0.94756579399108887 0 0.31956076622009277
vn 0.57357645034790039 0 -0.81915205717086792
vn 0.57357645034790039 0 -0.81915205717086792
vn -0.78112435340881348 0 0.62437546253204346
vn -0.78112435340881348 0 0.62437546253204346
vn -0.37901574373245239 0 -0.92539024353027344
vn -0.37901574373245239 0 -0.92539024353027344
vn -0.31956076622009277 0 0.94756579399108887
vn -0.31956076622009277 0 0.94756579399108887
vn -0.81915205717086792 0 -0.57357645034790039
vn -0.81915205717086792 0 -0.57357645034790039
vn 0.37901574373245239 0 0.92539024353027344
vn 0.37901574373245239 0 0.92539024353027344
vn 0.99468648433685303 0 -0.10295037180185318
vn 0.99468648433685303 0 -0.10295037180185318
vn -0.92539024353027344 0 0.37901574373245239
vn -0.92539024353027344 0 0.37901574373245239
vn 0.99921339750289917 0 0.039656177163124084
vn 0.99921339750289917 0 0.039656177163124084
vn -0.10295037180185318 0 -0.99468648433685303
vn -0.10295037180185318 0 -0.99468648433685303
vn 0.31956076622009277 0 -0.94756579399108887
vn 0.31956076622009277 0 -0.94756579399108887
vn -0.039656177163124084 0 0.99921339750289917
vn -0.039656177163124084 0 0.99921339750289917
vn -0.94756579399108887 0 -0.31956076622009277
vn -0.94756579399108887 0 -0.31956076622009277
vn 0.10295037180185318 0 0.99468648433685303
vn 0.10295037180185318 0 0.99468648433685303
vn 0.9833991527557373 0 0.18145541846752167
vn 0.9833991527557373 0 0.18145541846752167
vn -0.99468648433685303 0 0.10295037180185318
vn -0.99468648433685303 0 0.10295037180185318
vn 0.18145541846752167 0 -0.9833991527557373
vn 0.18145541846752167 0 -0.9833991527557373
vn 0.039656177163124084 0 -0.99921339750289917
vn 0.039656177163124084 0 -0.99921339750289917
vn 0.96991068124771118 0 -0.24346110224723816
vn 0.96991068124771118 0 -0.24346110224723816
vn 0.24346110224723816 0 0.96991068124771118
vn 0.24346110224723816 0 0.96991068124771118
vn -0.99921339750289917 0 -0.039656177163124084
vn -0.99921339750289917 0 -0.039656177163124084
vn -0.18145541846752167 0 0.9833991527557373
vn -0.18145541846752167 0 0.9833991527557373
vn 0.89244270324707031 0 0.45116078853607178
vn 0.89244270324707031 0 0.45116078853607178
vn -0.9833991527557373 0 -0.18145541846752167
vn -0.9833991527557373 0 -0.18145541846752167
vn 0.45116078853607178 0 -0.89244270324707031
vn 0.45116078853607178 0 -0.89244270324707031
vn -0.24346110224723816 0 -0.96991068124771118
vn -0.24346110224723816 0 -0.96991068124771118
vn 0.86203151941299438 0 -0.50685465335845947
vn 0.86203151941299438 0 -0.50685465335845947
vn 0.50685465335845947 0 0.86203151941299438
vn 0.50685465335845947 0 0.86203151941299438
vn -0.96991068124771118 0 0.24346110224723816
vn -0.96991068124771118 0 0.24346110224723816
vn -0.45116078853607178 0 0.89244270324707031
vn -0.45116078853607178 0 0.89244270324707031
vn -0.89244270324707031 0 -0.45116078853607178
vn -0.89244270324707031 0 -0.45116078853607178
vn 0.72918581962585449 0 0.68431574106216431
vn 0.72918581962585449 0 0.68431574106216431
vn 0.68431574106216431 0 -0.72918581962585449
vn 0.68431574106216431 0 -0.72918581962585449
vn -0.50685465335845947 0 -0.86203151941299438
vn -0.50685465335845947 0 -0.86203151941299438
vn 0.72918581962585449 0 0.68431574106216431
vn 0.72918581962585449 0 0.68431574106216431
vn -0.86203151941299438 0 0.50685465335845947
vn -0.86203151941299438 0 0.50685465335845947
vn 0.68431574106216431 0 -0.72918581962585449
vn 0.68431574106216431 0 -0.72918581962585449
vn -0.68431574106216431 0 0.72918581962585449
vn -0.68431574106216431 0 0.72918581962585449
vn 0.86203151941299438 0 -0.50685465335845947
vn 0.86203151941299438 0 -0.50685465335845947
vn -0.72918581962585449 0 -0.68431574106216431
vn -0.72918581962585449 0 -0.68431574106216431
vn 0.50685465335845947 0 0.86203151941299438
vn 0.50685465335845947 0 0.86203151941299438
vn -0.68431574106216431 0 0.72918581962585449
vn -0.68431574106216431 0 0.72918581962585449
vn -0.72918581962585449 0 -0.68431574106216431
vn -0.72918581962585449 0 -0.68431574106216431
vn 0.89244270324707031 0 0.45116078853607178
vn 0.89244270324707031 0 0.45116078853607178
vn 0.45116078853607178 0 -0.89244270324707031
vn 0.45116078853607178 0 -0.89244270324707031
vn 0.96991068124771118 0 -0.24346110224723816
vn 0.96991068124771118 0 -0.24346110224723816
vn -0.50685465335845947 0 -0.86203151941299438
vn -0.50685465335845947 0 -0.86203151941299438
vn -0.86203151941299438 0 0.50685465335845947
vn -0.86203151941299438 0 0.50685465335845947
vn 0.24346110224723816 0 0.96991068124771118
vn 0.24346110224723816 0 0.96991068124771118
vn -0.45116078853607178 0 0.89244270324707031
vn -0.45116078853607178 0 0.89244270324707031
vn 0.9833991527557373 0 0.18145541846752167
vn 0.9833991527557373 0 0.18145541846752167
vn -0.89244270324707031 0 -0.45116078853607178
vn -0.89244270324707031 0 -0.45116078853607178
vn 0.18145541846752167 0 -0.9833991527557373
vn 0.18145541846752167 0 -0.9833991527557373
vn 0.99921339750289917 0 0.039656177163124084
vn 0.99921339750289917 0 0.039656177163124084
vn -0.24346110224723816 0 -0.96991068124771118
vn -0.24346110224723816 0 -0.96991068124771118
vn -0.96991068124771118 0 0.24346110224723816
vn -0.96991068124771118 0 0.24346110224723816
vn -0.039656177163124084 0 0.99921339750289917
vn -0.039656177163124084 0 0.99921339750289917
vn -0.18145541846752167 0 0.9833991527557373
vn -0.18145541846752167 0 0.9833991527557373
vn 0.99468648433685303 0 -0.10295037180185318
vn 0.99468648433685303 0 -0.10295037180185318
vn -0.9833991527557373 0 -0.18145541846752167
vn -0.9833991527557373 0 -0.18145541846752167
vn -0.10295037180185318 0 -0.99468648433685303
vn -0.10295037180185318 0 -0.99468648433685303
vn 0.94756579399108887 0 0.31956076622009277
vn 0.94756579399108887 0 0.31956076622009277
vn 0.039656177163124084 0 -0.99921339750289917
vn 0.039656177163124084 0 -0.99921339750289917
vn -0.31956076622009277 0 0.94756579399108887
vn -0.31956076622009277 0 0.94756579399108887
vn 0.10295037180185318 0 0.99468648433685303
vn 0.10295037180185318 0 0.99468648433685303
vn -0.99921339750289917 0 -0.039656177163124084
vn -0.99921339750289917 0 -0.039656177163124084
vn 0.92539024353027344 0 -0.37901574373245239
vn 0.92539024353027344 0 -0.37901574373245239
vn -0.99468648433685303 0 0.10295037180185318
vn -0.99468648433685303 0 0.10295037180185318
vn -0.37901574373245239 0 -0.92539024353027344
vn -0.37901574373245239 0 -0.92539024353027344
vn 0.81915205717086792 0 0.57357645034790039
vn 0.81915205717086792 0 0.57357645034790039
vn 0.31956076622009277 0 -0.94756579399108887
vn 0.31956076622009277 0 -0.94756579399108887
vn 0.37901574373245239 0 0.92539024353027344
vn 0.37901574373245239 0 0.92539024353027344
vn 0.78112435340881348 0 -0.62437546253204346
vn 0.78112435340881348 0 -0.62437546253204346
vn -0.57357645034790039 0 0.81915205717086792
vn -0.57357645034790039 0 0.81915205717086792
vn -0.94756579399108887 0 -0.31956076622009277
vn -0.94756579399108887 0 -0.31956076622009277
vn -0.92539024353027344 0 0.37901574373245239
vn -0.92539024353027344 0 0.37901574373245239
vn -0.62437546253204346 0 -0.78112435340881348
vn -0.62437546253204346 0 -0.78112435340881348
vn 0.62437546253204346 0 0.78112435340881348
vn 0.62437546253204346 0 0.78112435340881348
vn 0.57357645034790039 0 -0.81915205717086792
vn 0.57357645034790039 0 -0.81915205717086792
vn -0.78112435340881348 0 0.62437546253204346
vn -0.78112435340881348 0 0.62437546253204346
vn -0.81915205717086792 0 -0.57357645034790039
vn -0.81915205717086792 0 -0.57357645034790039
f 2//2 1//1 5//5 6//6
f 6//6 5//5 23//23 24//24
f 24//24 23//23 15//15 16//16
f 16//16 15//15 1//1 2//2
f 14//14 13//13 21//21 22//22
f 22//22 21//21 39//39 40//40
f 40//40 39//39 35//35 36//36
f 36//36 35//35 13//13 14//14
f 32//32 31//31 37//37 38//38
f 38//38 37//37 55//55 56//56
f 56//56 55//55 49//49 50//50
f 50//50 49//49 31//31 32//32
f 52//52 51//51 53//53 54//54
f 54//54 53//53 71//71 72//72
f 72//72 71//71 65//65 66//66
f 66//66 65//65 51//51 52//52
f 68//68 67//67 69//69 70//70
f 70//70 69//69 85//85 86//86
f 86//86 85//85 81//81 82//82
f 82//82 81//81 67//67 68//68
f 88//88 87//87 83//83 84//84
f 84//84 83//83 97//97 98//98
f 98//98 97//97 99//99 100//100
f 100//100 99//99 87//87 88//88
f 104//104 103//103 101//101 102//102
f 102//102 101//101 113//113 114//114
f 114//114 113//113 117//117 118//118
f 118//118 117//117 103//103 104//104
f 120//120 119//119 115//115 116//116
f 116//116 115//115 129//129 130//130
f 130//130 129//129 133//133 134//134
f 134//134 133//133 119//119 120//120
f 136//136 135//135 131//131 132//132
f 132//132 131//131 143//143 144//144
f 144//144 143//143 149//149 150//150
f 150//150 149//149 135//135 136//136
f 152//152 151//151 147//147 148//148
f 148//148 147//147 157//157 158//158
f 158//158 157//157 165//165 166//166
f 166//166 165//165 151//151 152//152
f 168//168 167//167 159//159 160//160
f 160//160 159//159 169//169 170//170
f 170//170 169//169 173//173 174//174
f 174//174 173//173 167//167 168//168
f 176//176 175//175 171//171 172//172
f 172//172 171//171 153//153 154//154
f 154//154 153//153 161//161 162//162
f 162//162 161//161 175//175 176//176
f 164//164 163//163 155//155 156//156
f 156//156 155//155 137//137 138//138
f 138//138 137//137 141//141 142//142
f 142//142 141//141 163//163 164//164
f 146//146 145//145 139//139 140//140
f 140//140 139//139 121//121 122//122
f 122//122 121//121 127//127 128//128
f 128//128 127//127 145//145 146//146
f 126//126 125//125 123//123 124//124
f 124//124 123//123 105//105 106//106
f 106//106 105//105 111//111 112//112
f 112//112 111//111 125//125 126//126
f 110//110 109//109 107//107 108//108
f 108//108 107//107 91//91 92//92
f 92//92 91//91 95//95 96//96
f 96//96 95//95 109//109 110//110
f 90//90 89//89 93//93 94//94
f 94//94 93//93 79//79 80//80
f 80//80 79//79 77//77 78//78
f 78//78 77//77 89//89 90//90
f 74//74 73//73 75//75 76//76
f 76//76 75//75 63//63 64//64
f 64//64 63//63 59//59 60//60
f 60//60 59//59 73//73 74//74
f 58//58 57//57 61//61 62//62
f 62//62 61//61 47//47 48//48
f 48//48 47//47 43//43 44//44
f 44//44 43//43 57//57 58//58
f 42//42 41//41 45//45 46//46
f 46//46 45//45 33//33 34//34
f 34//34 33//33 27//27 28//28
f 28//28 27//27 41//41 42//42
f 26//26 25//25 29//29 30//30
f 30//30 29//29 19//19 20//20
f 20//20 19//19 11//11 12//12
f 12//12 11//11 25//25 26//26
f 10//10 9//9 17//17 18//18
f 18//18 17//17 7//7 8//8
f 8//8 7//7 3//3 4//4
f 4//4 3//3 9//9 10//10
