# Rhino

mtllib Frangisole84.mtl
usemtl diffuse_Black
v 1.4091282311603459 3 0.19077374994335425
v 1.4091282311603459 0 0.19077374994335422
v 1.4068425321948053 3 -0.19397863616641431
v 1.4068425321948053 0 -0.19397863616641431
v 1.4057958130699464 3 -0.21395122686150558
v 1.4057958130699464 0 -0.21395122686150558
v 1.4045056217627205 3 0.21023220523551389
v 1.4045056217627208 0 0.21023220523551392
v 1.2983014603704088 3 0.58004337210298273
v 1.2983014603704088 0 0.58004337210298273
v 1.2952054274831655 3 -0.58247448210151131
v 1.2952054274831655 0 -0.58247448210151131
v 1.28857417879424 3 -0.60134314768298847
v 1.28857417879424 0 -0.60134314768298847
v 1.2883840187719779 3 0.59741128366832974
v 1.2883840187719779 0 0.59741128366832963
v 1.0822940265573493 3 0.92232132990558957
v 1.0822940265573493 0 0.92232132990558946
v 1.0786384819201127 3 -0.92378170960587269
v 1.0786384819201127 0 -0.92378170960587269
v 1.067885204895122 3 0.93619165284004635
v 1.067885204895122 0 0.93619165284004624
v 1.0669599279983428 3 -0.94001782300459935
v 1.0669599279983428 0 -0.94001782300459935
v 1.0639416879550647 3 0.10877019238462624
v 1.0639416879550647 0 0.10877019238462621
v 1.0593190785574393 3 0.12822864767678588
v 1.0593190785574396 0 0.12822864767678591
v 1.0525353974619471 3 -0.17541018605092795
v 1.0525353974619471 0 -0.17541018605092795
v 1.0514886783370883 3 -0.19538277674601923
v 1.0514886783370883 0 -0.19538277674601923
v 0.99020046951977825 3 0.40411124740951276
v 0.99020046951977825 0 0.40411124740951282
v 0.98028302792134736 3 0.42147915897485977
v 0.98028302792134736 0 0.42147915897485966
v 0.96048155813312175 3 -0.46483832970934186
v 0.96048155813312175 0 -0.46483832970934186
v 0.95385030944419624 3 -0.48370699529081901
v 0.95385030944419624 0 -0.48370699529081901
v 0.83623909799294138 3 0.66671361251140915
v 0.83623909799294138 0 0.66671361251140915
v 0.82183027633071393 3 0.68058393544586593
v 0.82183027633071393 0 0.68058393544586593
v 0.7906152151681225 3 -0.71660803639469728
v 0.7906152151681225 0 -0.71660803639469728
v 0.77893666124635275 3 -0.73284414979342394
v 0.77893666124635275 0 -0.73284414979342394
v 0.77860556736302944 3 1.1898782988154
v 0.77860556736302944 0 1.1898782988154
v 0.77468666146194631 3 -1.1902496369393345
v 0.77468666146194631 0 -1.1902496369393345
v 0.760872682675517 3 1.1991273420448036
v 0.760872682675517 0 1.1991273420448036
v 0.75890692929103953 3 -1.2025378448076303
v 0.75890692929103964 0 -1.2025378448076303
v 0.61453060805212689 3 0.87530280582615783
v 0.614530608052127 0 0.87530280582615783
v 0.59679772336461445 3 0.8845518490555615
v 0.59679772336461456 0 0.8845518490555615
v 0.5566979294399329 3 -0.91032242180344625
v 0.5566979294399329 0 -0.91032242180344625
v 0.54091819726902612 3 -0.92261062967174201
v 0.54091819726902624 0 -0.92261062967174201
v 0.41183911564656167 3 1.3610384044339063
v 0.41183911564656167 0 1.3610384044339063
v 0.40797433493110818 3 -1.360290617375123
v 0.40797433493110818 0 -1.360290617375123
v 0.39221878078962064 3 1.364916865481989
v 0.39221878078962064 0 1.364916865481989
v 0.38937180456587073 3 -1.3676354021922845
v 0.38937180456587073 0 -1.3676354021922845
v 0.34303650300117877 3 1.0129801714390976
v 0.34303650300117877 0 1.0129801714390976
v 0.32341616814423774 3 1.0168586324871802
v 0.32341616814423774 0 1.0168586324871802
v 0.27768028827858754 3 -1.0302878984935815
v 0.27768028827858759 0 -1.0302878984935815
v 0.25907775791335008 3 -1.037632683310743
v 0.25907775791335008 0 -1.037632683310743
v 0.043751620593712875 3 1.068591907987088
v 0.043751620593712875 0 1.068591907987088
v 0.0238333584108281 3 1.0667855770058299
v 0.023833358410828093 0 1.0667855770058299
v 0.01170790808194028 3 1.4219352729322385
v 0.011707908081940291 0 1.4219352729322385
v 0.0082103541009458988 3 -1.4201289419509806
v 0.0082103541009458988 0 -1.4201289419509806
v -0.0082103541009444971 3 1.4201289419509804
v -0.0082103541009444971 0 1.4201289419509804
v -0.011707908081938903 3 -1.4219352729322388
v -0.011707908081938917 0 -1.4219352729322388
v -0.023833358410827066 3 -1.0667855770058299
v -0.023833358410827052 0 -1.0667855770058299
v -0.043751620593711862 3 -1.068591907987088
v -0.043751620593711862 0 -1.068591907987088
v -0.25907775791334908 3 1.0376326833107437
v -0.25907775791334908 0 1.0376326833107437
v -0.27768028827858665 3 1.0302878984935819
v -0.2776802882785866 0 1.0302878984935819
v -0.3234161681442369 3 -1.0168586324871807
v -0.3234161681442369 0 -1.0168586324871807
v -0.34303650300117805 3 -1.012980171439098
v -0.34303650300117805 0 -1.012980171439098
v -0.38937180456586939 3 1.3676354021922852
v -0.38937180456586939 0 1.3676354021922852
v -0.39221878078961947 3 -1.3649168654819892
v -0.39221878078961947 0 -1.3649168654819892
v -0.40797433493110696 3 1.3602906173751235
v -0.40797433493110691 0 1.3602906173751235
v -0.41183911564656062 3 -1.3610384044339066
v -0.41183911564656062 0 -1.3610384044339066
v -0.54091819726902535 3 0.92261062967174268
v -0.54091819726902535 0 0.92261062967174268
v -0.55669792943993202 3 0.91032242180344691
v -0.55669792943993202 0 0.91032242180344691
v -0.59679772336461312 3 -0.88455184905556261
v -0.59679772336461312 0 -0.88455184905556261
v -0.61453060805212545 3 -0.87530280582615894
v -0.61453060805212556 0 -0.87530280582615894
v -0.75890692929103842 3 1.2025378448076312
v -0.75890692929103842 0 1.2025378448076312
v -0.76087268267551522 3 -1.199127342044805
v -0.76087268267551511 0 -1.199127342044805
v -0.77468666146194509 3 1.1902496369393354
v -0.77468666146194498 0 1.1902496369393354
v -0.77860556736302755 3 -1.1898782988154013
v -0.77860556736302755 0 -1.1898782988154013
v -0.77893666124635186 3 0.7328441497934246
v -0.77893666124635186 0 0.7328441497934246
v -0.79061521516812161 3 0.71660803639469794
v -0.79061521516812161 0 0.71660803639469794
v -0.82183027633071293 3 -0.68058393544586693
v -0.82183027633071293 0 -0.68058393544586693
v -0.83623909799294038 3 -0.66671361251141004
v -0.83623909799294038 0 -0.66671361251141004
v -0.95385030944419591 3 0.48370699529081951
v -0.95385030944419602 0 0.48370699529081951
v -0.96048155813312142 3 0.46483832970934247
v -0.96048155813312153 0 0.46483832970934247
v -0.98028302792134669 3 -0.42147915897486132
v -0.98028302792134669 0 -0.42147915897486132
v -0.99020046951977758 3 -0.40411124740951448
v -0.99020046951977758 0 -0.40411124740951454
v -1.0514886783370883 3 0.19538277674601923
v -1.0514886783370883 0 0.19538277674601923
v -1.0525353974619471 3 0.17541018605092795
v -1.0525353974619471 0 0.17541018605092795
v -1.0593190785574393 3 -0.12822864767678768
v -1.0593190785574393 0 -0.12822864767678768
v -1.0639416879550647 3 -0.10877019238462807
v -1.0639416879550647 0 -0.10877019238462804
v -1.0669599279983419 3 0.94001782300460035
v -1.0669599279983419 0 0.94001782300460035
v -1.0678852048951204 3 -0.93619165284004757
v -1.0678852048951204 0 -0.93619165284004757
v -1.0786384819201116 3 0.92378170960587369
v -1.0786384819201116 0 0.92378170960587369
v -1.082294026557348 3 -0.92232132990559057
v -1.082294026557348 0 -0.92232132990559057
v -1.2883840187719768 3 -0.59741128366833174
v -1.2883840187719768 0 -0.59741128366833174
v -1.2885741787942397 3 0.60134314768298913
v -1.2885741787942397 0 0.60134314768298913
v -1.2952054274831653 3 0.58247448210151209
v -1.2952054274831653 0 0.5824744821015122
v -1.2983014603704077 3 -0.58004337210298484
v -1.2983014603704077 0 -0.58004337210298496
v -1.4045056217627201 3 -0.21023220523551622
v -1.4045056217627203 0 -0.21023220523551625
v -1.4057958130699464 3 0.21395122686150558
v -1.4057958130699464 0 0.21395122686150558
v -1.4068425321948053 3 0.19397863616641431
v -1.4068425321948053 0 0.19397863616641431
v -1.4091282311603455 3 -0.19077374994335661
v -1.4091282311603455 0 -0.19077374994335661
vn 0.8513941764831543 0 -0.52452635765075684
vn 0.8513941764831543 0 -0.52452635765075684
vn 0.74314481019973755 0 0.66913062334060669
vn 0.74314481019973755 0 0.66913062334060669
vn 0.66913062334060669 0 -0.74314481019973755
vn 0.66913062334060669 0 -0.74314481019973755
vn 0.52452635765075684 0 0.8513941764831543
vn 0.52452635765075684 0 0.8513941764831543
vn 0.964682936668396 0 -0.26341390609741211
vn 0.964682936668396 0 -0.26341390609741211
vn 0.90155810117721558 0 0.43265804648399353
vn 0.90155810117721558 0 0.43265804648399353
vn 0.43265804648399353 0 -0.90155810117721558
vn 0.43265804648399353 0 -0.90155810117721558
vn 0.26341390609741211 0 0.964682936668396
vn 0.26341390609741211 0 0.964682936668396
vn 0.99981874227523804 0 0.01903882808983326
vn 0.99981874227523804 0 0.01903882808983326
vn 0.98693251609802246 0 0.16113406419754028
vn 0.98693251609802246 0 0.16113406419754028
vn -0.01903882808983326 0 0.99981874227523804
vn -0.01903882808983326 0 0.99981874227523804
vn 0.16113406419754028 0 -0.98693251609802246
vn 0.16113406419754028 0 -0.98693251609802246
vn -0.52452635765075684 0 -0.8513941764831543
vn -0.52452635765075684 0 -0.8513941764831543
vn -0.8513941764831543 0 0.52452635765075684
vn -0.8513941764831543 0 0.52452635765075684
vn -0.66913062334060669 0 0.74314481019973755
vn -0.66913062334060669 0 0.74314481019973755
vn -0.74314481019973755 0 -0.66913062334060669
vn -0.74314481019973755 0 -0.66913062334060669
vn -0.26341390609741211 0 -0.964682936668396
vn -0.26341390609741211 0 -0.964682936668396
vn -0.964682936668396 0 0.26341390609741211
vn -0.964682936668396 0 0.26341390609741211
vn -0.43265804648399353 0 0.90155810117721558
vn -0.43265804648399353 0 0.90155810117721558
vn -0.90155810117721558 0 -0.43265804648399353
vn -0.90155810117721558 0 -0.43265804648399353
vn 0.01903882808983326 0 -0.99981874227523804
vn 0.01903882808983326 0 -0.99981874227523804
vn -0.99981874227523804 0 -0.01903882808983326
vn -0.99981874227523804 0 -0.01903882808983326
vn -0.16113406419754028 0 0.98693251609802246
vn -0.16113406419754028 0 0.98693251609802246
vn -0.98693251609802246 0 -0.16113406419754028
vn -0.98693251609802246 0 -0.16113406419754028
vn 0.95395523309707642 0 0.29994907975196838
vn 0.95395523309707642 0 0.29994907975196838
vn 0.99235153198242188 0 -0.12344402074813843
vn 0.99235153198242188 0 -0.12344402074813843
vn -0.29994907975196838 0 0.95395523309707642
vn -0.29994907975196838 0 0.95395523309707642
vn -0.12344402074813843 0 -0.99235153198242188
vn -0.12344402074813843 0 -0.99235153198242188
vn 0.29994907975196838 0 -0.95395523309707642
vn 0.29994907975196838 0 -0.95395523309707642
vn -0.95395523309707642 0 -0.29994907975196838
vn -0.95395523309707642 0 -0.29994907975196838
vn 0.12344402074813843 0 0.99235153198242188
vn 0.12344402074813843 0 0.99235153198242188
vn -0.99235153198242188 0 0.12344402074813843
vn -0.99235153198242188 0 0.12344402074813843
vn 0.83080792427062988 0 0.55655926465988159
vn 0.83080792427062988 0 0.55655926465988159
vn 0.91737610101699829 0 -0.39802142977714539
vn 0.91737610101699829 0 -0.39802142977714539
vn -0.55655926465988159 0 0.83080792427062988
vn -0.55655926465988159 0 0.83080792427062988
vn -0.39802142977714539 0 -0.91737610101699829
vn -0.39802142977714539 0 -0.91737610101699829
vn 0.55655926465988159 0 -0.83080792427062988
vn 0.55655926465988159 0 -0.83080792427062988
vn -0.83080792427062988 0 -0.55655926465988159
vn -0.83080792427062988 0 -0.55655926465988159
vn 0.39802142977714539 0 0.91737610101699829
vn 0.39802142977714539 0 0.91737610101699829
vn -0.91737610101699829 0 0.39802142977714539
vn -0.91737610101699829 0 0.39802142977714539
vn 0.76808035373687744 0 -0.64035344123840332
vn 0.76808035373687744 0 -0.64035344123840332
vn -0.64035344123840332 0 -0.76808035373687744
vn -0.64035344123840332 0 -0.76808035373687744
vn 0.64035344123840332 0 0.76808035373687744
vn 0.64035344123840332 0 0.76808035373687744
vn 0.76808035373687744 0 -0.64035344123840332
vn 0.76808035373687744 0 -0.64035344123840332
vn -0.76808035373687744 0 0.64035344123840332
vn -0.76808035373687744 0 0.64035344123840332
vn -0.64035344123840332 0 -0.76808035373687744
vn -0.64035344123840332 0 -0.76808035373687744
vn 0.64035344123840332 0 0.76808035373687744
vn 0.64035344123840332 0 0.76808035373687744
vn -0.76808035373687744 0 0.64035344123840332
vn -0.76808035373687744 0 0.64035344123840332
vn 0.91737610101699829 0 -0.39802142977714539
vn 0.91737610101699829 0 -0.39802142977714539
vn -0.39802142977714539 0 -0.91737610101699829
vn -0.39802142977714539 0 -0.91737610101699829
vn 0.83080792427062988 0 0.55655926465988159
vn 0.83080792427062988 0 0.55655926465988159
vn -0.55655926465988159 0 0.83080792427062988
vn -0.55655926465988159 0 0.83080792427062988
vn 0.39802142977714539 0 0.91737610101699829
vn 0.39802142977714539 0 0.91737610101699829
vn 0.55655926465988159 0 -0.83080792427062988
vn 0.55655926465988159 0 -0.83080792427062988
vn -0.91737610101699829 0 0.39802142977714539
vn -0.91737610101699829 0 0.39802142977714539
vn -0.83080792427062988 0 -0.55655926465988159
vn -0.83080792427062988 0 -0.55655926465988159
vn 0.99235153198242188 0 -0.12344402074813843
vn 0.99235153198242188 0 -0.12344402074813843
vn -0.12344402074813843 0 -0.99235153198242188
vn -0.12344402074813843 0 -0.99235153198242188
vn 0.95395523309707642 0 0.29994907975196838
vn 0.95395523309707642 0 0.29994907975196838
vn -0.29994907975196838 0 0.95395523309707642
vn -0.29994907975196838 0 0.95395523309707642
vn 0.12344402074813843 0 0.99235153198242188
vn 0.12344402074813843 0 0.99235153198242188
vn 0.29994907975196838 0 -0.95395523309707642
vn 0.29994907975196838 0 -0.95395523309707642
vn -0.99235153198242188 0 0.12344402074813843
vn -0.99235153198242188 0 0.12344402074813843
vn -0.95395523309707642 0 -0.29994907975196838
vn -0.95395523309707642 0 -0.29994907975196838
vn 0.98693251609802246 0 0.16113406419754028
vn 0.98693251609802246 0 0.16113406419754028
vn 0.16113406419754028 0 -0.98693251609802246
vn 0.16113406419754028 0 -0.98693251609802246
vn 0.99981874227523804 0 0.01903882808983326
vn 0.99981874227523804 0 0.01903882808983326
vn -0.01903882808983326 0 0.99981874227523804
vn -0.01903882808983326 0 0.99981874227523804
vn 0.90155810117721558 0 0.43265804648399353
vn 0.90155810117721558 0 0.43265804648399353
vn 0.43265804648399353 0 -0.90155810117721558
vn 0.43265804648399353 0 -0.90155810117721558
vn 0.964682936668396 0 -0.26341390609741211
vn 0.964682936668396 0 -0.26341390609741211
vn 0.26341390609741211 0 0.964682936668396
vn 0.26341390609741211 0 0.964682936668396
vn 0.74314481019973755 0 0.66913062334060669
vn 0.74314481019973755 0 0.66913062334060669
vn 0.66913062334060669 0 -0.74314481019973755
vn 0.66913062334060669 0 -0.74314481019973755
vn 0.8513941764831543 0 -0.52452635765075684
vn 0.8513941764831543 0 -0.52452635765075684
vn 0.52452635765075684 0 0.8513941764831543
vn 0.52452635765075684 0 0.8513941764831543
vn -0.16113406419754028 0 0.98693251609802246
vn -0.16113406419754028 0 0.98693251609802246
vn 0.01903882808983326 0 -0.99981874227523804
vn 0.01903882808983326 0 -0.99981874227523804
vn -0.98693251609802246 0 -0.16113406419754028
vn -0.98693251609802246 0 -0.16113406419754028
vn -0.99981874227523804 0 -0.01903882808983326
vn -0.99981874227523804 0 -0.01903882808983326
vn -0.26341390609741211 0 -0.964682936668396
vn -0.26341390609741211 0 -0.964682936668396
vn -0.43265804648399353 0 0.90155810117721558
vn -0.43265804648399353 0 0.90155810117721558
vn -0.90155810117721558 0 -0.43265804648399353
vn -0.90155810117721558 0 -0.43265804648399353
vn -0.964682936668396 0 0.26341390609741211
vn -0.964682936668396 0 0.26341390609741211
vn -0.52452635765075684 0 -0.8513941764831543
vn -0.52452635765075684 0 -0.8513941764831543
vn -0.66913062334060669 0 0.74314481019973755
vn -0.66913062334060669 0 0.74314481019973755
vn -0.74314481019973755 0 -0.66913062334060669
vn -0.74314481019973755 0 -0.66913062334060669
vn -0.8513941764831543 0 0.52452635765075684
vn -0.8513941764831543 0 0.52452635765075684
f 6//6 5//5 3//3 4//4
f 4//4 3//3 29//29 30//30
f 30//30 29//29 31//31 32//32
f 32//32 31//31 5//5 6//6
f 14//14 13//13 11//11 12//12
f 12//12 11//11 37//37 38//38
f 38//38 37//37 39//39 40//40
f 40//40 39//39 13//13 14//14
f 24//24 23//23 19//19 20//20
f 20//20 19//19 45//45 46//46
f 46//46 45//45 47//47 48//48
f 48//48 47//47 23//23 24//24
f 56//56 55//55 51//51 52//52
f 52//52 51//51 61//61 62//62
f 62//62 61//61 63//63 64//64
f 64//64 63//63 55//55 56//56
f 72//72 71//71 67//67 68//68
f 68//68 67//67 77//77 78//78
f 78//78 77//77 79//79 80//80
f 80//80 79//79 71//71 72//72
f 92//92 91//91 87//87 88//88
f 88//88 87//87 93//93 94//94
f 94//94 93//93 95//95 96//96
f 96//96 95//95 91//91 92//92
f 112//112 111//111 107//107 108//108
f 108//108 107//107 101//101 102//102
f 102//102 101//101 103//103 104//104
f 104//104 103//103 111//111 112//112
f 128//128 127//127 123//123 124//124
f 124//124 123//123 117//117 118//118
f 118//118 117//117 119//119 120//120
f 120//120 119//119 127//127 128//128
f 160//160 159//159 155//155 156//156
f 156//156 155//155 133//133 134//134
f 134//134 133//133 135//135 136//136
f 136//136 135//135 159//159 160//160
f 168//168 167//167 161//161 162//162
f 162//162 161//161 141//141 142//142
f 142//142 141//141 143//143 144//144
f 144//144 143//143 167//167 168//168
f 176//176 175//175 169//169 170//170
f 170//170 169//169 149//149 150//150
f 150//150 149//149 151//151 152//152
f 152//152 151//151 175//175 176//176
f 172//172 171//171 173//173 174//174
f 174//174 173//173 147//147 148//148
f 148//148 147//147 145//145 146//146
f 146//146 145//145 171//171 172//172
f 164//164 163//163 165//165 166//166
f 166//166 165//165 139//139 140//140
f 140//140 139//139 137//137 138//138
f 138//138 137//137 163//163 164//164
f 154//154 153//153 157//157 158//158
f 158//158 157//157 131//131 132//132
f 132//132 131//131 129//129 130//130
f 130//130 129//129 153//153 154//154
f 122//122 121//121 125//125 126//126
f 126//126 125//125 115//115 116//116
f 116//116 115//115 113//113 114//114
f 114//114 113//113 121//121 122//122
f 106//106 105//105 109//109 110//110
f 110//110 109//109 99//99 100//100
f 100//100 99//99 97//97 98//98
f 98//98 97//97 105//105 106//106
f 86//86 85//85 89//89 90//90
f 90//90 89//89 83//83 84//84
f 84//84 83//83 81//81 82//82
f 82//82 81//81 85//85 86//86
f 66//66 65//65 69//69 70//70
f 70//70 69//69 75//75 76//76
f 76//76 75//75 73//73 74//74
f 74//74 73//73 65//65 66//66
f 50//50 49//49 53//53 54//54
f 54//54 53//53 59//59 60//60
f 60//60 59//59 57//57 58//58
f 58//58 57//57 49//49 50//50
f 18//18 17//17 21//21 22//22
f 22//22 21//21 43//43 44//44
f 44//44 43//43 41//41 42//42
f 42//42 41//41 17//17 18//18
f 10//10 9//9 15//15 16//16
f 16//16 15//15 35//35 36//36
f 36//36 35//35 33//33 34//34
f 34//34 33//33 9//9 10//10
f 2//2 1//1 7//7 8//8
f 8//8 7//7 27//27 28//28
f 28//28 27//27 25//25 26//26
f 26//26 25//25 1//1 2//2
