# Rhino

mtllib Frangisole65.mtl
usemtl diffuse_Black
v 1.4024466155203745 3 -0.1553961706847509
v 1.4024466155203745 0 -0.1553961706847509
v 1.3969338684040347 3 -0.13617093676598463
v 1.3969338684040347 0 -0.13617093676598463
v 1.3894178339516143 3 0.24601333692554456
v 1.3894178339516143 0 0.24601333692554461
v 1.378712017520364 3 0.26290669344638917
v 1.378712017520364 0 0.26290669344638917
v 1.3019844451552167 3 -0.52421680752132427
v 1.3019844451552167 0 -0.52421680752132427
v 1.3018575129708498 3 -0.54421640472278232
v 1.3018575129708498 0 -0.54421640472278232
v 1.2638266826621229 3 0.62749230707578518
v 1.2638266826621229 0 0.62749230707578518
v 1.2487951184932802 3 0.64068518692204912
v 1.2487951184932802 0 0.64068518692204912
v 1.1015559853595662 3 -0.86979375016868332
v 1.1015559853595662 0 -0.86979375016868332
v 1.0957996571651751 3 -0.8889474622297554
v 1.0957996571651751 0 -0.8889474622297554
v 1.0897352921974213 3 0.056095704173750621
v 1.0897352921974213 0 0.056095704173750593
v 1.0790294757661709 3 0.072989060694595237
v 1.0790294757661709 0 0.072989060694595154
v 1.0613973421278584 3 -0.25319047614644913
v 1.0613973421278584 0 -0.25319047614644913
v 1.0558845950115185 3 -0.23396524222768283
v 1.0558845950115185 0 -0.23396524222768283
v 1.0358478098100368 3 0.95813558234718932
v 1.0358478098100368 0 0.95813558234718921
v 1.0297893697984757 3 0.36083734415579272
v 1.0297893697984757 0 0.36083734415579272
v 1.0177082658364072 3 0.96655917685480586
v 1.0177082658364072 0 0.96655917685480575
v 1.0147578056296329 3 0.37403022400205665
v 1.0147578056296329 0 0.37403022400205677
v 0.94719822395651176 3 -0.52196507266954817
v 0.94719822395651176 0 -0.52196507266954817
v 0.94707129177214489 3 -0.54196466987100622
v 0.94707129177214489 0 -0.54196466987100622
v 0.88641603705165584 3 0.6363460884966492
v 0.88641603705165584 0 0.6363460884966492
v 0.86827649307802612 3 0.64476968300426574
v 0.86827649307802612 0 0.64476968300426574
v 0.81188601083577883 3 -1.1449051760399862
v 0.81188601083577872 0 -1.1449051760399862
v 0.80096663010747116 3 -1.161661283120996
v 0.80096663010747116 0 -1.161661283120996
v 0.76177548600128975 3 -0.76767839716954112
v 0.76177548600128975 0 -0.76767839716954112
v 0.75601915780689866 3 -0.7868321092306132
v 0.75601915780689866 0 -0.7868321092306132
v 0.72395070783127091 3 1.2111564109885391
v 0.72395070783127091 0 1.2111564109885391
v 0.70417274202557578 3 1.2141282906275466
v 0.70417274202557578 0 1.2141282906275466
v 0.67123054870206822 3 0.86030185724341435
v 0.67123054870206822 0 0.86030185724341435
v 0.65145258289637309 3 0.86327373688242182
v 0.65145258289637309 0 0.86327373688242182
v 0.51463822862350095 3 -0.95119898349008014
v 0.51463822862350084 0 -0.95119898349008014
v 0.50371884789519328 3 -0.96795509057108997
v 0.50371884789519328 0 -0.96795509057108997
v 0.456441860186101 3 -1.3272631935617887
v 0.45644186018610106 0 -1.3272631935617887
v 0.44124405021042673 3 -1.3402642155194384
v 0.44124405021042673 0 -1.3402642155194384
v 0.40166595325841964 3 1.0145610859284684
v 0.40166595325841964 0 1.0145610859284684
v 0.3818518587861448 3 1.0118404866849633
v 0.3818518587861448 0 1.0118404866849633
v 0.35340342500465471 3 1.3660565502361228
v 0.35340342500465471 0 1.3660565502361228
v 0.33358933053237988 3 1.3633359509926177
v 0.33358933053237988 0 1.3633359509926177
v 0.22580804263403109 3 -1.0576590851664274
v 0.22580804263403118 0 -1.0576590851664274
v 0.21061023265835682 3 -1.0706601071240771
v 0.21061023265835685 0 -1.0706601071240771
v 0.099560771081178154 3 1.0866266092587045
v 0.09956077108117814 0 1.0866266092587045
v 0.081315768037510089 3 1.0784339379033685
v 0.081315768037510117 0 1.0784339379033685
v 0.064019504588410769 3 -1.4020942406793633
v 0.064019504588410756 0 -1.4020942406793633
v 0.045774501544742753 3 -1.4102869120346992
v 0.045774501544742788 0 -1.4102869120346992
v -0.045774501544741428 3 1.4102869120346995
v -0.045774501544741455 0 1.4102869120346995
v -0.064019504588409493 3 1.4020942406793635
v -0.064019504588409465 0 1.4020942406793635
v -0.081315768037509048 3 -1.0784339379033685
v -0.081315768037509076 0 -1.0784339379033685
v -0.099560771081177057 3 -1.0866266092587045
v -0.099560771081177044 0 -1.0866266092587045
v -0.21061023265835585 3 1.0706601071240776
v -0.21061023265835588 0 1.0706601071240776
v -0.22580804263403012 3 1.0576590851664278
v -0.22580804263403015 0 1.0576590851664278
v -0.33358933053237877 3 -1.3633359509926182
v -0.33358933053237877 0 -1.3633359509926182
v -0.35340342500465372 3 -1.3660565502361233
v -0.35340342500465372 0 -1.3660565502361233
v -0.38185185878614403 3 -1.0118404866849633
v -0.38185185878614403 0 -1.0118404866849633
v -0.40166595325841897 3 -1.0145610859284684
v -0.40166595325841897 0 -1.0145610859284684
v -0.44124405021042545 3 1.3402642155194391
v -0.4412440502104254 0 1.3402642155194391
v -0.45644186018609972 3 1.3272631935617893
v -0.45644186018609967 0 1.3272631935617893
v -0.50371884789519217 3 0.96795509057109064
v -0.50371884789519217 0 0.96795509057109064
v -0.51463822862349984 3 0.95119898349008103
v -0.51463822862349973 0 0.95119898349008103
v -0.65145258289637165 3 -0.86327373688242304
v -0.65145258289637165 0 -0.86327373688242304
v -0.67123054870206689 3 -0.86030185724341557
v -0.67123054870206689 0 -0.86030185724341557
v -0.70417274202557367 3 -1.2141282906275479
v -0.70417274202557367 0 -1.2141282906275479
v -0.72395070783126902 3 -1.2111564109885404
v -0.72395070783126891 0 -1.2111564109885404
v -0.75601915780689777 3 0.78683210923061386
v -0.75601915780689788 0 0.78683210923061386
v -0.76177548600128886 3 0.76767839716954178
v -0.76177548600128886 0 0.76767839716954178
v -0.80096663010746993 3 1.1616612831209969
v -0.80096663010747005 0 1.1616612831209969
v -0.81188601083577749 3 1.1449051760399873
v -0.81188601083577749 0 1.1449051760399873
v -0.86827649307802535 3 -0.64476968300426685
v -0.86827649307802524 0 -0.64476968300426685
v -0.88641603705165517 3 -0.63634608849665031
v -0.88641603705165506 0 -0.63634608849665031
v -0.94707129177214444 3 0.54196466987100678
v -0.94707129177214444 0 0.54196466987100678
v -0.94719822395651132 3 0.52196507266954872
v -0.94719822395651132 0 0.52196507266954872
v -1.0147578056296325 3 -0.3740302240020586
v -1.0147578056296325 0 -0.37403022400205854
v -1.0177082658364058 3 -0.96655917685480697
v -1.0177082658364058 0 -0.96655917685480697
v -1.0297893697984752 3 -0.3608373441557946
v -1.0297893697984752 0 -0.3608373441557946
v -1.0358478098100357 3 -0.95813558234719043
v -1.0358478098100357 0 -0.95813558234719043
v -1.0558845950115185 3 0.23396524222768283
v -1.0558845950115185 0 0.23396524222768283
v -1.0613973421278584 3 0.25319047614644913
v -1.0613973421278584 0 0.25319047614644913
v -1.0790294757661707 3 -0.072989060694596999
v -1.0790294757661707 0 -0.072989060694597027
v -1.089735292197421 3 -0.056095704173752328
v -1.089735292197421 0 -0.056095704173752328
v -1.0957996571651742 3 0.8889474622297564
v -1.0957996571651742 0 0.8889474622297564
v -1.1015559853595653 3 0.86979375016868432
v -1.1015559853595653 0 0.86979375016868432
v -1.2487951184932791 3 -0.64068518692205112
v -1.2487951184932791 0 -0.64068518692205123
v -1.2638266826621218 3 -0.62749230707578718
v -1.2638266826621218 0 -0.62749230707578718
v -1.3018575129708494 3 0.5442164047227831
v -1.3018575129708494 0 0.5442164047227831
v -1.3019844451552163 3 0.52421680752132505
v -1.3019844451552163 0 0.52421680752132505
v -1.3787120175203635 3 -0.26290669344639161
v -1.3787120175203635 0 -0.26290669344639161
v -1.3894178339516139 3 -0.24601333692554694
v -1.3894178339516139 0 -0.24601333692554694
v -1.3969338684040347 3 0.13617093676598463
v -1.3969338684040347 0 0.13617093676598463
v -1.4024466155203745 3 0.1553961706847509
v -1.4024466155203745 0 0.1553961706847509
vn 0.87461972236633301 0 -0.48480963706970215
vn 0.87461972236633301 0 -0.48480963706970215
vn 0.48480963706970215 0 0.87461972236633301
vn 0.48480963706970215 0 0.87461972236633301
vn 0.97577810287475586 0 -0.2187625914812088
vn 0.97577810287475586 0 -0.2187625914812088
vn 0.2187625914812088 0 0.97577810287475586
vn 0.2187625914812088 0 0.97577810287475586
vn 0.71158027648925781 0 0.70260483026504517
vn 0.71158027648925781 0 0.70260483026504517
vn 0.70260483026504517 0 -0.71158027648925781
vn 0.70260483026504517 0 -0.71158027648925781
vn 0.99788480997085571 0 0.065007299184799194
vn 0.99788480997085571 0 0.065007299184799194
vn -0.065007299184799194 0 0.99788480997085571
vn -0.065007299184799194 0 0.99788480997085571
vn 0.8807029128074646 0 0.47366905212402344
vn 0.8807029128074646 0 0.47366905212402344
vn 0.47366905212402344 0 -0.8807029128074646
vn 0.47366905212402344 0 -0.8807029128074646
vn -0.2187625914812088 0 -0.97577810287475586
vn -0.2187625914812088 0 -0.97577810287475586
vn -0.97577810287475586 0 0.2187625914812088
vn -0.97577810287475586 0 0.2187625914812088
vn -0.48480963706970215 0 -0.87461972236633301
vn -0.48480963706970215 0 -0.87461972236633301
vn -0.87461972236633301 0 0.48480963706970215
vn -0.87461972236633301 0 0.48480963706970215
vn 0.93914878368377686 0 0.34351068735122681
vn 0.93914878368377686 0 0.34351068735122681
vn 0.065007299184799194 0 -0.99788480997085571
vn 0.065007299184799194 0 -0.99788480997085571
vn -0.34351068735122681 0 0.93914878368377686
vn -0.34351068735122681 0 0.93914878368377686
vn -0.99788480997085571 0 -0.065007299184799194
vn -0.99788480997085571 0 -0.065007299184799194
vn -0.70260483026504517 0 0.71158027648925781
vn -0.70260483026504517 0 0.71158027648925781
vn -0.71158027648925781 0 -0.70260483026504517
vn -0.71158027648925781 0 -0.70260483026504517
vn 0.34351068735122681 0 -0.93914878368377686
vn 0.34351068735122681 0 -0.93914878368377686
vn -0.93914878368377686 0 -0.34351068735122681
vn -0.93914878368377686 0 -0.34351068735122681
vn 0.97847622632980347 0 0.20635946094989777
vn 0.97847622632980347 0 0.20635946094989777
vn 0.20635946094989777 0 -0.97847622632980347
vn 0.20635946094989777 0 -0.97847622632980347
vn -0.47366905212402344 0 0.8807029128074646
vn -0.47366905212402344 0 0.8807029128074646
vn -0.8807029128074646 0 -0.47366905212402344
vn -0.8807029128074646 0 -0.47366905212402344
vn 0.80432850122451782 0 0.59418487548828125
vn 0.80432850122451782 0 0.59418487548828125
vn -0.59418487548828125 0 0.80432850122451782
vn -0.59418487548828125 0 0.80432850122451782
vn 0.59418487548828125 0 -0.80432850122451782
vn 0.59418487548828125 0 -0.80432850122451782
vn -0.80432850122451782 0 -0.59418487548828125
vn -0.80432850122451782 0 -0.59418487548828125
vn -0.20635946094989777 0 0.97847622632980347
vn -0.20635946094989777 0 0.97847622632980347
vn -0.97847622632980347 0 -0.20635946094989777
vn -0.97847622632980347 0 -0.20635946094989777
vn 0.9969792366027832 0 -0.077668167650699615
vn 0.9969792366027832 0 -0.077668167650699615
vn -0.077668167650699615 0 -0.9969792366027832
vn -0.077668167650699615 0 -0.9969792366027832
vn 0.79672175645828247 0 -0.60434627532958984
vn 0.79672175645828247 0 -0.60434627532958984
vn -0.60434627532958984 0 -0.79672175645828247
vn -0.60434627532958984 0 -0.79672175645828247
vn 0.60434627532958984 0 0.79672175645828247
vn 0.60434627532958984 0 0.79672175645828247
vn -0.79672175645828247 0 0.60434627532958984
vn -0.79672175645828247 0 0.60434627532958984
vn 0.077668167650699615 0 0.9969792366027832
vn 0.077668167650699615 0 0.9969792366027832
vn -0.9969792366027832 0 0.077668167650699615
vn -0.9969792366027832 0 0.077668167650699615
vn 0.93471294641494751 0 -0.3554036021232605
vn 0.93471294641494751 0 -0.3554036021232605
vn -0.3554036021232605 0 -0.93471294641494751
vn -0.3554036021232605 0 -0.93471294641494751
vn 0.93471294641494751 0 -0.3554036021232605
vn 0.93471294641494751 0 -0.3554036021232605
vn -0.3554036021232605 0 -0.93471294641494751
vn -0.3554036021232605 0 -0.93471294641494751
vn 0.3554036021232605 0 0.93471294641494751
vn 0.3554036021232605 0 0.93471294641494751
vn -0.93471294641494751 0 0.3554036021232605
vn -0.93471294641494751 0 0.3554036021232605
vn 0.3554036021232605 0 0.93471294641494751
vn 0.3554036021232605 0 0.93471294641494751
vn -0.93471294641494751 0 0.3554036021232605
vn -0.93471294641494751 0 0.3554036021232605
vn 0.9969792366027832 0 -0.077668167650699615
vn 0.9969792366027832 0 -0.077668167650699615
vn -0.077668167650699615 0 -0.9969792366027832
vn -0.077668167650699615 0 -0.9969792366027832
vn 0.79672175645828247 0 -0.60434627532958984
vn 0.79672175645828247 0 -0.60434627532958984
vn -0.60434627532958984 0 -0.79672175645828247
vn -0.60434627532958984 0 -0.79672175645828247
vn 0.60434627532958984 0 0.79672175645828247
vn 0.60434627532958984 0 0.79672175645828247
vn -0.79672175645828247 0 0.60434627532958984
vn -0.79672175645828247 0 0.60434627532958984
vn 0.077668167650699615 0 0.9969792366027832
vn 0.077668167650699615 0 0.9969792366027832
vn -0.9969792366027832 0 0.077668167650699615
vn -0.9969792366027832 0 0.077668167650699615
vn 0.97847622632980347 0 0.20635946094989777
vn 0.97847622632980347 0 0.20635946094989777
vn 0.20635946094989777 0 -0.97847622632980347
vn 0.20635946094989777 0 -0.97847622632980347
vn 0.80432850122451782 0 0.59418487548828125
vn 0.80432850122451782 0 0.59418487548828125
vn -0.59418487548828125 0 0.80432850122451782
vn -0.59418487548828125 0 0.80432850122451782
vn 0.59418487548828125 0 -0.80432850122451782
vn 0.59418487548828125 0 -0.80432850122451782
vn -0.80432850122451782 0 -0.59418487548828125
vn -0.80432850122451782 0 -0.59418487548828125
vn 0.8807029128074646 0 0.47366905212402344
vn 0.8807029128074646 0 0.47366905212402344
vn 0.47366905212402344 0 -0.8807029128074646
vn 0.47366905212402344 0 -0.8807029128074646
vn -0.20635946094989777 0 0.97847622632980347
vn -0.20635946094989777 0 0.97847622632980347
vn -0.97847622632980347 0 -0.20635946094989777
vn -0.97847622632980347 0 -0.20635946094989777
vn 0.93914878368377686 0 0.34351068735122681
vn 0.93914878368377686 0 0.34351068735122681
vn -0.34351068735122681 0 0.93914878368377686
vn -0.34351068735122681 0 0.93914878368377686
vn 0.71158027648925781 0 0.70260483026504517
vn 0.71158027648925781 0 0.70260483026504517
vn 0.70260483026504517 0 -0.71158027648925781
vn 0.70260483026504517 0 -0.71158027648925781
vn 0.99788480997085571 0 0.065007299184799194
vn 0.99788480997085571 0 0.065007299184799194
vn 0.34351068735122681 0 -0.93914878368377686
vn 0.34351068735122681 0 -0.93914878368377686
vn -0.065007299184799194 0 0.99788480997085571
vn -0.065007299184799194 0 0.99788480997085571
vn -0.93914878368377686 0 -0.34351068735122681
vn -0.93914878368377686 0 -0.34351068735122681
vn 0.87461972236633301 0 -0.48480963706970215
vn 0.87461972236633301 0 -0.48480963706970215
vn 0.48480963706970215 0 0.87461972236633301
vn 0.48480963706970215 0 0.87461972236633301
vn 0.97577810287475586 0 -0.2187625914812088
vn 0.97577810287475586 0 -0.2187625914812088
vn 0.2187625914812088 0 0.97577810287475586
vn 0.2187625914812088 0 0.97577810287475586
vn -0.47366905212402344 0 0.8807029128074646
vn -0.47366905212402344 0 0.8807029128074646
vn -0.8807029128074646 0 -0.47366905212402344
vn -0.8807029128074646 0 -0.47366905212402344
vn 0.065007299184799194 0 -0.99788480997085571
vn 0.065007299184799194 0 -0.99788480997085571
vn -0.99788480997085571 0 -0.065007299184799194
vn -0.99788480997085571 0 -0.065007299184799194
vn -0.70260483026504517 0 0.71158027648925781
vn -0.70260483026504517 0 0.71158027648925781
vn -0.71158027648925781 0 -0.70260483026504517
vn -0.71158027648925781 0 -0.70260483026504517
vn -0.2187625914812088 0 -0.97577810287475586
vn -0.2187625914812088 0 -0.97577810287475586
vn -0.97577810287475586 0 0.2187625914812088
vn -0.97577810287475586 0 0.2187625914812088
vn -0.48480963706970215 0 -0.87461972236633301
vn -0.48480963706970215 0 -0.87461972236633301
vn -0.87461972236633301 0 0.48480963706970215
vn -0.87461972236633301 0 0.48480963706970215
f 2//2 1//1 3//3 4//4
f 4//4 3//3 27//27 28//28
f 28//28 27//27 25//25 26//26
f 26//26 25//25 1//1 2//2
f 12//12 11//11 9//9 10//10
f 10//10 9//9 37//37 38//38
f 38//38 37//37 39//39 40//40
f 40//40 39//39 11//11 12//12
f 20//20 19//19 17//17 18//18
f 18//18 17//17 49//49 50//50
f 50//50 49//49 51//51 52//52
f 52//52 51//51 19//19 20//20
f 48//48 47//47 45//45 46//46
f 46//46 45//45 61//61 62//62
f 62//62 61//61 63//63 64//64
f 64//64 63//63 47//47 48//48
f 68//68 67//67 65//65 66//66
f 66//66 65//65 77//77 78//78
f 78//78 77//77 79//79 80//80
f 80//80 79//79 67//67 68//68
f 88//88 87//87 85//85 86//86
f 86//86 85//85 93//93 94//94
f 94//94 93//93 95//95 96//96
f 96//96 95//95 87//87 88//88
f 104//104 103//103 101//101 102//102
f 102//102 101//101 105//105 106//106
f 106//106 105//105 107//107 108//108
f 108//108 107//107 103//103 104//104
f 124//124 123//123 121//121 122//122
f 122//122 121//121 117//117 118//118
f 118//118 117//117 119//119 120//120
f 120//120 119//119 123//123 124//124
f 148//148 147//147 143//143 144//144
f 144//144 143//143 133//133 134//134
f 134//134 133//133 135//135 136//136
f 136//136 135//135 147//147 148//148
f 164//164 163//163 161//161 162//162
f 162//162 161//161 141//141 142//142
f 142//142 141//141 145//145 146//146
f 146//146 145//145 163//163 164//164
f 172//172 171//171 169//169 170//170
f 170//170 169//169 153//153 154//154
f 154//154 153//153 155//155 156//156
f 156//156 155//155 171//171 172//172
f 176//176 175//175 173//173 174//174
f 174//174 173//173 149//149 150//150
f 150//150 149//149 151//151 152//152
f 152//152 151//151 175//175 176//176
f 166//166 165//165 167//167 168//168
f 168//168 167//167 139//139 140//140
f 140//140 139//139 137//137 138//138
f 138//138 137//137 165//165 166//166
f 158//158 157//157 159//159 160//160
f 160//160 159//159 127//127 128//128
f 128//128 127//127 125//125 126//126
f 126//126 125//125 157//157 158//158
f 130//130 129//129 131//131 132//132
f 132//132 131//131 115//115 116//116
f 116//116 115//115 113//113 114//114
f 114//114 113//113 129//129 130//130
f 110//110 109//109 111//111 112//112
f 112//112 111//111 99//99 100//100
f 100//100 99//99 97//97 98//98
f 98//98 97//97 109//109 110//110
f 90//90 89//89 91//91 92//92
f 92//92 91//91 83//83 84//84
f 84//84 83//83 81//81 82//82
f 82//82 81//81 89//89 90//90
f 74//74 73//73 75//75 76//76
f 76//76 75//75 71//71 72//72
f 72//72 71//71 69//69 70//70
f 70//70 69//69 73//73 74//74
f 54//54 53//53 55//55 56//56
f 56//56 55//55 59//59 60//60
f 60//60 59//59 57//57 58//58
f 58//58 57//57 53//53 54//54
f 30//30 29//29 33//33 34//34
f 34//34 33//33 43//43 44//44
f 44//44 43//43 41//41 42//42
f 42//42 41//41 29//29 30//30
f 14//14 13//13 15//15 16//16
f 16//16 15//15 35//35 36//36
f 36//36 35//35 31//31 32//32
f 32//32 31//31 13//13 14//14
f 6//6 5//5 7//7 8//8
f 8//8 7//7 23//23 24//24
f 24//24 23//23 21//21 22//22
f 22//22 21//21 5//5 6//6
