# Rhino

mtllib Frangisole26.mtl
usemtl diffuse_Black
v 1.3391076831684492 3 -0.055101614998882609
v 1.3391076831684492 0 -0.055101614998882609
v 1.3227246422826695 3 -0.043630086271861795
v 1.3227246422826695 0 -0.043630086271861795
v 1.3003883317930434 3 0.32440061903880901
v 1.3003883317930434 0 0.32440061903880901
v 1.2814370160575552 3 0.33079183425141401
v 1.2814370160575552 0 0.33079183425141401
v 1.2693404940335886 3 -0.43013984389128929
v 1.2693404940335884 0 -0.43013984389128934
v 1.2568529845363874 3 -0.41451735668350748
v 1.2568529845363874 0 -0.41451735668350753
v 1.1870102936602305 3 -0.011789436631273853
v 1.1870102936602305 0 -0.011789436631273853
v 1.1680589779247423 3 -0.0053982214186688859
v 1.1680589779247423 0 -0.0053982214186689137
v 1.1563192514829568 3 0.67762184420674609
v 1.1563192514829568 0 0.67762184420674609
v 1.1422495045009213 3 0.32310756341941227
v 1.1422495045009213 0 0.32310756341941227
v 1.136334983790835 3 0.67841496765843035
v 1.136334983790835 0 0.67841496765843035
v 1.1356065682492242 3 -0.34573132664057177
v 1.1356065682492242 0 -0.34573132664057177
v 1.1222652368087995 3 0.32390068687109652
v 1.1222652368087995 0 0.32390068687109652
v 1.1192235273634445 3 -0.33425979791355098
v 1.1192235273634445 0 -0.33425979791355098
v 1.0967388871307167 3 -0.77033070077177523
v 1.0967388871307167 0 -0.77033070077177523
v 1.0891585727754789 3 -0.75182289608629826
v 1.0891585727754787 0 -0.75182289608629826
v 1.0049504537063194 3 0.63182831027652808
v 1.0049504537063194 0 0.63182831027652808
v 0.99220275239097511 3 -0.65166412070882285
v 0.99220275239097511 0 -0.65166412070882285
v 0.98555224057496349 3 0.62695908782212306
v 0.98555224057496349 0 0.62695908782212295
v 0.97971524289377387 3 -0.63604163350104104
v 0.97971524289377387 0 -0.63604163350104104
v 0.91857206231309996 3 0.97594617752933233
v 0.91857206231309996 0 0.97594617752933244
v 0.89917384918174403 3 0.97107695507492731
v 0.89917384918174403 0 0.97107695507492731
v 0.83528601814982306 3 -1.0481139456088113
v 0.83528601814982306 0 -1.0481139456088113
v 0.8332270109237444 3 -1.0282202157111036
v 0.8332270109237444 0 -1.0282202157111036
v 0.78623629382290838 3 0.88936208506268521
v 0.78623629382290838 0 0.88936208506268521
v 0.7689956631146051 3 0.87922499214706573
v 0.7689956631146051 0 0.87922499214706573
v 0.76841657039098665 3 -0.90480296331299848
v 0.76841657039098676 0 -0.90480296331299848
v 0.76083625603574889 3 -0.88629515862752151
v 0.76083625603574889 0 -0.88629515862752151
v 0.60640762761303901 3 1.1952051557238961
v 0.60640762761303901 0 1.1952051557238961
v 0.58916699690473573 3 1.1850680628082766
v 0.58916699690473573 0 1.1850680628082766
v 0.50979235203880746 3 -1.2213172485200749
v 0.50979235203880735 0 -1.2213172485200749
v 0.50616324361565734 3 -1.2409852319462684
v 0.50616324361565734 0 -1.2409852319462684
v 0.50382594534124792 3 1.0748450329570434
v 0.50382594534124792 0 1.0748450329570434
v 0.49013963042200526 3 1.0602613165606201
v 0.49013963042200526 0 1.0602613165606201
v 0.48237784780722825 3 -1.0846400508999732
v 0.48237784780722825 0 -1.0846400508999732
v 0.4803188405811496 3 -1.0647463210022654
v 0.4803188405811496 0 -1.0647463210022654
v 0.24511565336879418 3 1.3176357203604667
v 0.24511565336879418 0 1.3176357203604667
v 0.23142933844955157 3 1.3030520039640434
v 0.23142933844955157 0 1.3030520039640434
v 0.18059861513631076 3 1.1732504286307661
v 0.18059861513631073 0 1.1732504286307661
v 0.17157539984523679 3 1.155401574723276
v 0.17157539984523681 0 1.155401574723276
v 0.16088884922880098 3 -1.156938068739598
v 0.16088884922880103 0 -1.156938068739598
v 0.15725974080565097 3 -1.1766060521657915
v 0.15725974080565103 0 -1.1766060521657915
v 0.14505734864354364 3 -1.3154704213073023
v 0.14505734864354364 0 -1.3154704213073023
v 0.13603413335246967 3 -1.3333192752147924
v 0.13603413335246967 0 -1.3333192752147924
v -0.13603413335246839 3 1.3333192752147927
v -0.13603413335246842 0 1.3333192752147927
v -0.14505734864354236 3 1.3154704213073025
v -0.14505734864354233 0 1.3154704213073025
v -0.15725974080564989 3 1.1766060521657915
v -0.15725974080564989 0 1.1766060521657915
v -0.1608888492287999 3 1.1569380687395983
v -0.1608888492287999 0 1.1569380687395983
v -0.17157539984523565 3 -1.1554015747232762
v -0.17157539984523565 0 -1.1554015747232762
v -0.18059861513630962 3 -1.1732504286307663
v -0.18059861513630962 0 -1.1732504286307663
v -0.2314293384495506 3 -1.3030520039640436
v -0.23142933844955052 0 -1.3030520039640436
v -0.24511565336879321 3 -1.3176357203604669
v -0.24511565336879318 0 -1.3176357203604669
v -0.48031884058114832 3 1.0647463210022661
v -0.48031884058114838 0 1.0647463210022661
v -0.48237784780722698 3 1.0846400508999736
v -0.48237784780722703 0 1.0846400508999736
v -0.49013963042200448 3 -1.0602613165606205
v -0.49013963042200448 0 -1.0602613165606205
v -0.50382594534124703 3 -1.0748450329570438
v -0.50382594534124714 0 -1.0748450329570438
v -0.50616324361565612 3 1.2409852319462689
v -0.50616324361565612 0 1.2409852319462689
v -0.50979235203880613 3 1.2213172485200756
v -0.50979235203880613 0 1.2213172485200756
v -0.58916699690473373 3 -1.1850680628082775
v -0.58916699690473373 0 -1.1850680628082775
v -0.60640762761303679 3 -1.195205155723897
v -0.6064076276130369 0 -1.195205155723897
v -0.76083625603574789 3 0.88629515862752206
v -0.76083625603574789 0 0.88629515862752206
v -0.76841657039098588 3 0.90480296331299925
v -0.76841657039098588 0 0.90480296331299925
v -0.76899566311460377 3 -0.87922499214706695
v -0.76899566311460366 0 -0.87922499214706695
v -0.78623629382290683 3 -0.88936208506268644
v -0.78623629382290683 0 -0.88936208506268644
v -0.83322701092374341 3 1.0282202157111047
v -0.83322701092374341 0 1.0282202157111047
v -0.83528601814982206 3 1.0481139456088122
v -0.83528601814982206 0 1.0481139456088122
v -0.8991738491817427 3 -0.97107695507492853
v -0.89917384918174259 0 -0.97107695507492853
v -0.91857206231309863 3 -0.97594617752933366
v -0.91857206231309851 0 -0.97594617752933366
v -0.97971524289377343 3 0.63604163350104181
v -0.97971524289377354 0 0.6360416335010417
v -0.9855522405749626 3 -0.62695908782212406
v -0.9855522405749626 0 -0.62695908782212406
v -0.99220275239097444 3 0.6516641207088234
v -0.99220275239097455 0 0.6516641207088234
v -1.0049504537063185 3 -0.63182831027652919
v -1.0049504537063185 0 -0.63182831027652919
v -1.0891585727754778 3 0.75182289608629904
v -1.0891585727754778 0 0.75182289608629915
v -1.0967388871307158 3 0.77033070077177634
v -1.0967388871307158 0 0.77033070077177634
v -1.1192235273634445 3 0.33425979791355098
v -1.1192235273634445 0 0.33425979791355098
v -1.1222652368087989 3 -0.3239006868710983
v -1.1222652368087989 0 -0.32390068687109835
v -1.1356065682492242 3 0.34573132664057177
v -1.1356065682492242 0 0.34573132664057177
v -1.1363349837908339 3 -0.67841496765843246
v -1.1363349837908339 0 -0.67841496765843234
v -1.1422495045009207 3 -0.32310756341941405
v -1.1422495045009207 0 -0.3231075634194141
v -1.1563192514829557 3 -0.6776218442067482
v -1.1563192514829557 0 -0.67762184420674809
v -1.1680589779247426 3 0.0053982214186668598
v -1.1680589779247426 0 0.0053982214186668875
v -1.1870102936602307 3 0.011789436631271799
v -1.1870102936602307 0 0.011789436631271827
v -1.2568529845363869 3 0.41451735668350853
v -1.2568529845363869 0 0.41451735668350848
v -1.269340494033588 3 0.43013984389129012
v -1.269340494033588 0 0.43013984389129017
v -1.2814370160575548 3 -0.33079183425141617
v -1.2814370160575548 0 -0.33079183425141617
v -1.3003883317930429 3 -0.32440061903881123
v -1.3003883317930429 0 -0.32440061903881123
v -1.3227246422826695 3 0.043630086271861795
v -1.3227246422826695 0 0.043630086271861795
v -1.3391076831684492 3 0.055101614998882609
v -1.3391076831684492 0 0.055101614998882609
vn 0.98480772972106934 0 0.1736481636762619
vn 0.98480772972106934 0 0.1736481636762619
vn -0.1736481636762619 0 0.98480772972106934
vn -0.1736481636762619 0 0.98480772972106934
vn 0.89599376916885376 0 0.4440666139125824
vn 0.89599376916885376 0 0.4440666139125824
vn -0.4440666139125824 0 0.89599376916885376
vn -0.4440666139125824 0 0.89599376916885376
vn 0.99383848905563354 0 -0.11083820462226868
vn 0.99383848905563354 0 -0.11083820462226868
vn 0.11083820462226868 0 0.99383848905563354
vn 0.11083820462226868 0 0.99383848905563354
vn 0.4440666139125824 0 -0.89599376916885376
vn 0.4440666139125824 0 -0.89599376916885376
vn -0.89599376916885376 0 -0.4440666139125824
vn -0.89599376916885376 0 -0.4440666139125824
vn 0.73459172248840332 0 0.6785094141960144
vn 0.73459172248840332 0 0.6785094141960144
vn 0.6785094141960144 0 -0.73459172248840332
vn 0.6785094141960144 0 -0.73459172248840332
vn -0.6785094141960144 0 0.73459172248840332
vn -0.6785094141960144 0 0.73459172248840332
vn 0.1736481636762619 0 -0.98480772972106934
vn 0.1736481636762619 0 -0.98480772972106934
vn -0.73459172248840332 0 -0.6785094141960144
vn -0.73459172248840332 0 -0.6785094141960144
vn -0.98480772972106934 0 -0.1736481636762619
vn -0.98480772972106934 0 -0.1736481636762619
vn 0.92235428094863892 0 -0.38634514808654785
vn 0.92235428094863892 0 -0.38634514808654785
vn 0.38634514808654785 0 0.92235428094863892
vn 0.38634514808654785 0 0.92235428094863892
vn 0.85798341035842896 0 -0.51367741823196411
vn 0.85798341035842896 0 -0.51367741823196411
vn -0.11083820462226868 0 -0.99383848905563354
vn -0.11083820462226868 0 -0.99383848905563354
vn -0.51367741823196411 0 -0.85798341035842896
vn -0.51367741823196411 0 -0.85798341035842896
vn -0.99383848905563354 0 0.11083820462226868
vn -0.99383848905563354 0 0.11083820462226868
vn 0.51367741823196411 0 0.85798341035842896
vn 0.51367741823196411 0 0.85798341035842896
vn -0.85798341035842896 0 0.51367741823196411
vn -0.85798341035842896 0 0.51367741823196411
vn 0.77614647150039673 0 -0.63055270910263062
vn 0.77614647150039673 0 -0.63055270910263062
vn 0.63055270910263062 0 0.77614647150039673
vn 0.63055270910263062 0 0.77614647150039673
vn 0.96794873476028442 0 -0.25114795565605164
vn 0.96794873476028442 0 -0.25114795565605164
vn -0.25114795565605164 0 -0.96794873476028442
vn -0.25114795565605164 0 -0.96794873476028442
vn -0.38634514808654785 0 -0.92235428094863892
vn -0.38634514808654785 0 -0.92235428094863892
vn -0.92235428094863892 0 0.38634514808654785
vn -0.92235428094863892 0 0.38634514808654785
vn 0.25114795565605164 0 0.96794873476028442
vn 0.25114795565605164 0 0.96794873476028442
vn -0.96794873476028442 0 0.25114795565605164
vn -0.96794873476028442 0 0.25114795565605164
vn 0.82367658615112305 0 0.56705987453460693
vn 0.82367658615112305 0 0.56705987453460693
vn 0.56705987453460693 0 -0.82367658615112305
vn 0.56705987453460693 0 -0.82367658615112305
vn 0.99949651956558228 0 0.03172793984413147
vn 0.99949651956558228 0 0.03172793984413147
vn 0.03172793984413147 0 -0.99949651956558228
vn 0.03172793984413147 0 -0.99949651956558228
vn -0.63055270910263062 0 -0.77614647150039673
vn -0.63055270910263062 0 -0.77614647150039673
vn -0.77614647150039673 0 0.63055270910263062
vn -0.77614647150039673 0 0.63055270910263062
vn -0.03172793984413147 0 0.99949651956558228
vn -0.03172793984413147 0 0.99949651956558228
vn -0.99949651956558228 0 -0.03172793984413147
vn -0.99949651956558228 0 -0.03172793984413147
vn 0.95007109642028809 0 0.31203344464302063
vn 0.95007109642028809 0 0.31203344464302063
vn 0.31203344464302063 0 -0.95007109642028809
vn 0.31203344464302063 0 -0.95007109642028809
vn -0.56705987453460693 0 0.82367658615112305
vn -0.56705987453460693 0 0.82367658615112305
vn -0.82367658615112305 0 -0.56705987453460693
vn -0.82367658615112305 0 -0.56705987453460693
vn 0.95007109642028809 0 0.31203344464302063
vn 0.95007109642028809 0 0.31203344464302063
vn 0.31203344464302063 0 -0.95007109642028809
vn 0.31203344464302063 0 -0.95007109642028809
vn -0.31203344464302063 0 0.95007109642028809
vn -0.31203344464302063 0 0.95007109642028809
vn -0.95007109642028809 0 -0.31203344464302063
vn -0.95007109642028809 0 -0.31203344464302063
vn 0.82367658615112305 0 0.56705987453460693
vn 0.82367658615112305 0 0.56705987453460693
vn 0.56705987453460693 0 -0.82367658615112305
vn 0.56705987453460693 0 -0.82367658615112305
vn -0.31203344464302063 0 0.95007109642028809
vn -0.31203344464302063 0 0.95007109642028809
vn -0.95007109642028809 0 -0.31203344464302063
vn -0.95007109642028809 0 -0.31203344464302063
vn 0.99949651956558228 0 0.03172793984413147
vn 0.99949651956558228 0 0.03172793984413147
vn 0.03172793984413147 0 -0.99949651956558228
vn 0.03172793984413147 0 -0.99949651956558228
vn 0.77614647150039673 0 -0.63055270910263062
vn 0.77614647150039673 0 -0.63055270910263062
vn 0.63055270910263062 0 0.77614647150039673
vn 0.63055270910263062 0 0.77614647150039673
vn -0.03172793984413147 0 0.99949651956558228
vn -0.03172793984413147 0 0.99949651956558228
vn -0.99949651956558228 0 -0.03172793984413147
vn -0.99949651956558228 0 -0.03172793984413147
vn -0.56705987453460693 0 0.82367658615112305
vn -0.56705987453460693 0 0.82367658615112305
vn -0.82367658615112305 0 -0.56705987453460693
vn -0.82367658615112305 0 -0.56705987453460693
vn 0.96794873476028442 0 -0.25114795565605164
vn 0.96794873476028442 0 -0.25114795565605164
vn -0.25114795565605164 0 -0.96794873476028442
vn -0.25114795565605164 0 -0.96794873476028442
vn 0.92235428094863892 0 -0.38634514808654785
vn 0.92235428094863892 0 -0.38634514808654785
vn 0.38634514808654785 0 0.92235428094863892
vn 0.38634514808654785 0 0.92235428094863892
vn 0.25114795565605164 0 0.96794873476028442
vn 0.25114795565605164 0 0.96794873476028442
vn -0.96794873476028442 0 0.25114795565605164
vn -0.96794873476028442 0 0.25114795565605164
vn -0.63055270910263062 0 -0.77614647150039673
vn -0.63055270910263062 0 -0.77614647150039673
vn -0.77614647150039673 0 0.63055270910263062
vn -0.77614647150039673 0 0.63055270910263062
vn 0.85798341035842896 0 -0.51367741823196411
vn 0.85798341035842896 0 -0.51367741823196411
vn -0.51367741823196411 0 -0.85798341035842896
vn -0.51367741823196411 0 -0.85798341035842896
vn 0.99383848905563354 0 -0.11083820462226868
vn 0.99383848905563354 0 -0.11083820462226868
vn 0.51367741823196411 0 0.85798341035842896
vn 0.51367741823196411 0 0.85798341035842896
vn 0.11083820462226868 0 0.99383848905563354
vn 0.11083820462226868 0 0.99383848905563354
vn -0.85798341035842896 0 0.51367741823196411
vn -0.85798341035842896 0 0.51367741823196411
vn -0.38634514808654785 0 -0.92235428094863892
vn -0.38634514808654785 0 -0.92235428094863892
vn -0.92235428094863892 0 0.38634514808654785
vn -0.92235428094863892 0 0.38634514808654785
vn 0.98480772972106934 0 0.1736481636762619
vn 0.98480772972106934 0 0.1736481636762619
vn 0.73459172248840332 0 0.6785094141960144
vn 0.73459172248840332 0 0.6785094141960144
vn -0.1736481636762619 0 0.98480772972106934
vn -0.1736481636762619 0 0.98480772972106934
vn 0.6785094141960144 0 -0.73459172248840332
vn 0.6785094141960144 0 -0.73459172248840332
vn -0.6785094141960144 0 0.73459172248840332
vn -0.6785094141960144 0 0.73459172248840332
vn -0.73459172248840332 0 -0.6785094141960144
vn -0.73459172248840332 0 -0.6785094141960144
vn 0.89599376916885376 0 0.4440666139125824
vn 0.89599376916885376 0 0.4440666139125824
vn -0.4440666139125824 0 0.89599376916885376
vn -0.4440666139125824 0 0.89599376916885376
vn -0.11083820462226868 0 -0.99383848905563354
vn -0.11083820462226868 0 -0.99383848905563354
vn -0.99383848905563354 0 0.11083820462226868
vn -0.99383848905563354 0 0.11083820462226868
vn 0.4440666139125824 0 -0.89599376916885376
vn 0.4440666139125824 0 -0.89599376916885376
vn -0.89599376916885376 0 -0.4440666139125824
vn -0.89599376916885376 0 -0.4440666139125824
vn 0.1736481636762619 0 -0.98480772972106934
vn 0.1736481636762619 0 -0.98480772972106934
vn -0.98480772972106934 0 -0.1736481636762619
vn -0.98480772972106934 0 -0.1736481636762619
f 2//2 1//1 3//3 4//4
f 4//4 3//3 27//27 28//28
f 28//28 27//27 23//23 24//24
f 24//24 23//23 1//1 2//2
f 10//10 9//9 11//11 12//12
f 12//12 11//11 39//39 40//40
f 40//40 39//39 35//35 36//36
f 36//36 35//35 9//9 10//10
f 30//30 29//29 31//31 32//32
f 32//32 31//31 55//55 56//56
f 56//56 55//55 53//53 54//54
f 54//54 53//53 29//29 30//30
f 46//46 45//45 47//47 48//48
f 48//48 47//47 71//71 72//72
f 72//72 71//71 69//69 70//70
f 70//70 69//69 45//45 46//46
f 64//64 63//63 61//61 62//62
f 62//62 61//61 81//81 82//82
f 82//82 81//81 83//83 84//84
f 84//84 83//83 63//63 64//64
f 88//88 87//87 85//85 86//86
f 86//86 85//85 97//97 98//98
f 98//98 97//97 99//99 100//100
f 100//100 99//99 87//87 88//88
f 104//104 103//103 101//101 102//102
f 102//102 101//101 109//109 110//110
f 110//110 109//109 111//111 112//112
f 112//112 111//111 103//103 104//104
f 120//120 119//119 117//117 118//118
f 118//118 117//117 125//125 126//126
f 126//126 125//125 127//127 128//128
f 128//128 127//127 119//119 120//120
f 136//136 135//135 133//133 134//134
f 134//134 133//133 139//139 140//140
f 140//140 139//139 143//143 144//144
f 144//144 143//143 135//135 136//136
f 160//160 159//159 155//155 156//156
f 156//156 155//155 151//151 152//152
f 152//152 151//151 157//157 158//158
f 158//158 157//157 159//159 160//160
f 172//172 171//171 169//169 170//170
f 170//170 169//169 161//161 162//162
f 162//162 161//161 163//163 164//164
f 164//164 163//163 171//171 172//172
f 176//176 175//175 173//173 174//174
f 174//174 173//173 149//149 150//150
f 150//150 149//149 153//153 154//154
f 154//154 153//153 175//175 176//176
f 168//168 167//167 165//165 166//166
f 166//166 165//165 137//137 138//138
f 138//138 137//137 141//141 142//142
f 142//142 141//141 167//167 168//168
f 148//148 147//147 145//145 146//146
f 146//146 145//145 121//121 122//122
f 122//122 121//121 123//123 124//124
f 124//124 123//123 147//147 148//148
f 132//132 131//131 129//129 130//130
f 130//130 129//129 105//105 106//106
f 106//106 105//105 107//107 108//108
f 108//108 107//107 131//131 132//132
f 114//114 113//113 115//115 116//116
f 116//116 115//115 95//95 96//96
f 96//96 95//95 93//93 94//94
f 94//94 93//93 113//113 114//114
f 90//90 89//89 91//91 92//92
f 92//92 91//91 79//79 80//80
f 80//80 79//79 77//77 78//78
f 78//78 77//77 89//89 90//90
f 74//74 73//73 75//75 76//76
f 76//76 75//75 67//67 68//68
f 68//68 67//67 65//65 66//66
f 66//66 65//65 73//73 74//74
f 58//58 57//57 59//59 60//60
f 60//60 59//59 51//51 52//52
f 52//52 51//51 49//49 50//50
f 50//50 49//49 57//57 58//58
f 42//42 41//41 43//43 44//44
f 44//44 43//43 37//37 38//38
f 38//38 37//37 33//33 34//34
f 34//34 33//33 41//41 42//42
f 18//18 17//17 21//21 22//22
f 22//22 21//21 25//25 26//26
f 26//26 25//25 19//19 20//20
f 20//20 19//19 17//17 18//18
f 6//6 5//5 7//7 8//8
f 8//8 7//7 15//15 16//16
f 16//16 15//15 13//13 14//14
f 14//14 13//13 5//5 6//6
