# Rhino

mtllib Frangisole17.mtl
usemtl diffuse_Black
v 1.315919133248121 3 -0.039621335090856302
v 1.315919133248121 0 -0.039621335090856302
v 1.2979432523221379 3 -0.030853912155074853
v 1.2979432523221379 0 -0.030853912155074853
v 1.2737777822370702 3 0.33272086938164691
v 1.2737777822370702 0 0.33272086938164691
v 1.2540599823134508 3 0.33606875919048151
v 1.2540599823134508 0 0.33606875919048151
v 1.2514525421558336 3 -0.40875365463145324
v 1.2514525421558336 0 -0.40875365463145324
v 1.2366748791934299 3 -0.39527698303311004
v 1.2366748791934299 0 -0.39527698303311004
v 1.2143873274043351 3 -0.017066361570341582
v 1.2143873274043351 0 -0.017066361570341609
v 1.1946695274807158 3 -0.013718471761507034
v 1.1946695274807158 0 -0.013718471761507034
v 1.1700042575721401 3 0.32575739273354631
v 1.1700042575721401 0 0.32575739273354626
v 1.1603879582097556 3 -0.35850750075735893
v 1.1603879582097556 0 -0.35850750075735893
v 1.1501419575344243 3 0.32341452329378956
v 1.1501419575344243 0 0.32341452329378956
v 1.1424120772837725 3 -0.34974007782157746
v 1.1424120772837725 0 -0.34974007782157751
v 1.1284425307573316 3 0.67810800778405267
v 1.1284425307573316 0 0.67810800778405267
v 1.1085802307196158 3 0.67576513834429597
v 1.1085802307196158 0 0.67576513834429597
v 1.0856007087729251 3 -0.74477118402539644
v 1.0856007087729251 0 -0.74477118402539644
v 1.0752184621411689 3 -0.72767706354853712
v 1.0752184621411689 0 -0.72767706354853712
v 1.030834401074695 3 0.64219022043197449
v 1.030834401074695 0 0.64219022043197449
v 1.0124367263462921 3 0.63434639709205465
v 1.0124367263462921 0 0.63434639709205454
v 1.0123808577339319 3 -0.6709044943592205
v 1.0123808577339319 0 -0.6709044943592205
v 0.99760319477152826 3 -0.6574278227608773
v 0.99760319477152826 0 -0.6574278227608773
v 0.89168757654177122 3 0.96855886825940063
v 0.89168757654177122 0 0.96855886825940063
v 0.8732899018133683 3 0.96071504491948068
v 0.8732899018133683 0 0.96071504491948068
v 0.83179996228124586 3 -1.0204517814143821
v 0.83179996228124586 0 -1.0204517814143821
v 0.8266542398566441 3 -1.0011250760373931
v 0.8266542398566441 0 -1.0011250760373931
v 0.80815247201041707 3 0.90659661572330208
v 0.80815247201041707 0 0.90659661572330208
v 0.7927098927826377 3 0.89388729840120562
v 0.79270989278263759 0 0.89388729840120562
v 0.78235668102529621 3 -0.92894879585075962
v 0.7823566810252961 0 -0.92894879585075962
v 0.77197443439354008 3 -0.9118546753739003
v 0.77197443439353997 0 -0.9118546753739003
v 0.58269339794500641 3 1.1805428494697554
v 0.58269339794500652 0 1.1805428494697554
v 0.56725081871722705 3 1.1678335321476592
v 0.56725081871722705 0 1.1678335321476592
v 0.51999883593166807 3 1.0975559449464083
v 0.51999883593166818 0 1.0975559449464083
v 0.51111940736099803 3 -1.193467888785779
v 0.51111940736099803 0 -1.193467888785779
v 0.51061172975039382 3 -1.2134614443335969
v 0.51061172975039382 0 -1.2134614443335969
v 0.50876241813299194 3 1.0810107669463511
v 0.50876241813299194 0 1.0810107669463511
v 0.48895061887432822 3 -1.1117351905736834
v 0.48895061887432822 0 -1.1117351905736834
v 0.48380489644972646 3 -1.0924084851966944
v 0.48380489644972646 0 -1.0924084851966944
v 0.22649286565780774 3 1.2968862699747354
v 0.22649286565780771 0 1.2968862699747354
v 0.21525644785913156 3 1.2803410919746783
v 0.21525644785913148 0 1.2803410919746783
v 0.18971798671789078 3 1.1995978189264949
v 0.1897179867178907 0 1.1995978189264949
v 0.18359803809281666 3 1.1805571721720789
v 0.18359803809281663 0 1.1805571721720789
v 0.15644036309406428 3 -1.1844618563522695
v 0.15644036309406431 0 -1.1844618563522695
v 0.15593268548346007 3 -1.2044554119000874
v 0.15593268548346009 0 -1.2044554119000874
v 0.15417672022512327 3 -1.2891230310115736
v 0.15417672022512324 0 -1.2891230310115736
v 0.14805677160004926 3 -1.3081636777659893
v 0.14805677160004924 0 -1.3081636777659893
v -0.14805677160004796 3 1.3081636777659895
v -0.14805677160004796 0 1.3081636777659895
v -0.15417672022512208 3 1.2891230310115736
v -0.15417672022512202 0 1.2891230310115736
v -0.15593268548345887 3 1.2044554119000879
v -0.15593268548345893 0 1.2044554119000879
v -0.15644036309406309 3 1.1844618563522697
v -0.15644036309406315 0 1.1844618563522697
v -0.18359803809281547 3 -1.1805571721720793
v -0.18359803809281547 0 -1.1805571721720793
v -0.18971798671788948 3 -1.1995978189264951
v -0.18971798671788948 0 -1.1995978189264951
v -0.21525644785913042 3 -1.2803410919746785
v -0.21525644785913045 0 -1.2803410919746785
v -0.22649286565780671 3 -1.2968862699747359
v -0.22649286565780674 0 -1.2968862699747359
v -0.48380489644972524 3 1.0924084851966949
v -0.48380489644972535 0 1.0924084851966949
v -0.488950618874327 3 1.1117351905736841
v -0.488950618874327 0 1.1117351905736841
v -0.50876241813299106 3 -1.0810107669463513
v -0.50876241813299106 0 -1.0810107669463513
v -0.5106117297503926 3 1.2134614443335974
v -0.5106117297503926 0 1.2134614443335974
v -0.51111940736099681 3 1.1934678887857793
v -0.51111940736099681 0 1.1934678887857793
v -0.5199988359316674 3 -1.0975559449464087
v -0.5199988359316674 0 -1.0975559449464087
v -0.56725081871722516 3 -1.1678335321476603
v -0.56725081871722516 0 -1.1678335321476603
v -0.58269339794500463 3 -1.1805428494697567
v -0.58269339794500463 0 -1.1805428494697567
v -0.77197443439353908 3 0.91185467537390108
v -0.77197443439353908 0 0.91185467537390108
v -0.7823566810252951 3 0.92894879585076029
v -0.7823566810252951 0 0.92894879585076029
v -0.79270989278263626 3 -0.89388729840120729
v -0.79270989278263626 0 -0.89388729840120729
v -0.80815247201041573 3 -0.90659661572330374
v -0.80815247201041573 0 -0.90659661572330374
v -0.82665423985664288 3 1.001125076037394
v -0.82665423985664299 0 1.001125076037394
v -0.83179996228124464 3 1.0204517814143832
v -0.83179996228124464 0 1.0204517814143832
v -0.87328990181336685 3 -0.96071504491948168
v -0.87328990181336696 0 -0.96071504491948168
v -0.89168757654176978 3 -0.96855886825940174
v -0.89168757654176978 0 -0.96855886825940174
v -0.99760319477152781 3 0.65742782276087808
v -0.99760319477152781 0 0.65742782276087808
v -1.0123808577339315 3 0.67090449435922117
v -1.0123808577339315 0 0.67090449435922106
v -1.0124367263462912 3 -0.63434639709205565
v -1.0124367263462912 0 -0.63434639709205565
v -1.0308344010746942 3 -0.64219022043197571
v -1.0308344010746942 0 -0.64219022043197571
v -1.0752184621411682 3 0.72767706354853823
v -1.0752184621411682 0 0.72767706354853823
v -1.0856007087729242 3 0.74477118402539744
v -1.0856007087729242 0 0.74477118402539744
v -1.1085802307196146 3 -0.67576513834429774
v -1.1085802307196146 0 -0.67576513834429774
v -1.1284425307573305 3 -0.67810800778405445
v -1.1284425307573305 0 -0.67810800778405445
v -1.1424120772837725 3 0.34974007782157746
v -1.1424120772837725 0 0.34974007782157751
v -1.1501419575344241 3 -0.3234145232937915
v -1.1501419575344241 0 -0.3234145232937915
v -1.1603879582097556 3 0.35850750075735893
v -1.1603879582097556 0 0.35850750075735893
v -1.1700042575721399 3 -0.3257573927335482
v -1.1700042575721399 0 -0.3257573927335482
v -1.1946695274807155 3 0.013718471761504952
v -1.1946695274807155 0 0.013718471761505008
v -1.2143873274043351 3 0.017066361570339528
v -1.2143873274043351 0 0.017066361570339555
v -1.2366748791934297 3 0.39527698303311098
v -1.2366748791934297 0 0.39527698303311087
v -1.2514525421558333 3 0.40875365463145408
v -1.2514525421558333 0 0.40875365463145397
v -1.2540599823134502 3 -0.33606875919048351
v -1.2540599823134502 0 -0.33606875919048357
v -1.2737777822370697 3 -0.33272086938164896
v -1.2737777822370697 0 -0.33272086938164902
v -1.2979432523221379 3 0.030853912155074853
v -1.2979432523221379 0 0.030853912155074853
v -1.315919133248121 3 0.039621335090856302
v -1.315919133248121 0 0.039621335090856302
vn 0.94551855325698853 0 0.32556813955307007
vn 0.94551855325698853 0 0.32556813955307007
vn -0.32556813955307007 0 0.94551855325698853
vn -0.32556813955307007 0 0.94551855325698853
vn 0.81549525260925293 0 0.57876372337341309
vn 0.81549525260925293 0 0.57876372337341309
vn -0.57876372337341309 0 0.81549525260925293
vn -0.57876372337341309 0 0.81549525260925293
vn 0.99894160032272339 0 0.045996963977813721
vn 0.99894160032272339 0 0.045996963977813721
vn -0.045996963977813721 0 0.99894160032272339
vn -0.045996963977813721 0 0.99894160032272339
vn 0.57876372337341309 0 -0.81549525260925293
vn 0.57876372337341309 0 -0.81549525260925293
vn -0.81549525260925293 0 -0.57876372337341309
vn -0.81549525260925293 0 -0.57876372337341309
vn 0.78507125377655029 0 -0.61940544843673706
vn 0.78507125377655029 0 -0.61940544843673706
vn 0.32556813955307007 0 -0.94551855325698853
vn 0.32556813955307007 0 -0.94551855325698853
vn -0.61940544843673706 0 -0.78507125377655029
vn -0.61940544843673706 0 -0.78507125377655029
vn -0.94551855325698853 0 -0.32556813955307007
vn -0.94551855325698853 0 -0.32556813955307007
vn 0.61940544843673706 0 0.78507125377655029
vn 0.61940544843673706 0 0.78507125377655029
vn -0.78507125377655029 0 0.61940544843673706
vn -0.78507125377655029 0 0.61940544843673706
vn 0.9714362621307373 0 -0.2373005747795105
vn 0.9714362621307373 0 -0.2373005747795105
vn 0.2373005747795105 0 0.9714362621307373
vn 0.2373005747795105 0 0.9714362621307373
vn 0.92777705192565918 0 -0.37313500046730042
vn 0.92777705192565918 0 -0.37313500046730042
vn -0.37313500046730042 0 -0.92777705192565918
vn -0.37313500046730042 0 -0.92777705192565918
vn 0.045996963977813721 0 -0.99894160032272339
vn 0.045996963977813721 0 -0.99894160032272339
vn -0.99894160032272339 0 -0.045996963977813721
vn -0.99894160032272339 0 -0.045996963977813721
vn 0.37313500046730042 0 0.92777705192565918
vn 0.37313500046730042 0 0.92777705192565918
vn -0.92777705192565918 0 0.37313500046730042
vn -0.92777705192565918 0 0.37313500046730042
vn 0.8652309775352478 0 -0.50137346982955933
vn 0.8652309775352478 0 -0.50137346982955933
vn 0.50137346982955933 0 0.8652309775352478
vn 0.50137346982955933 0 0.8652309775352478
vn 0.99531984329223633 0 -0.096635393798351288
vn 0.99531984329223633 0 -0.096635393798351288
vn -0.096635393798351288 0 -0.99531984329223633
vn -0.096635393798351288 0 -0.99531984329223633
vn -0.2373005747795105 0 -0.9714362621307373
vn -0.2373005747795105 0 -0.9714362621307373
vn -0.9714362621307373 0 0.2373005747795105
vn -0.9714362621307373 0 0.2373005747795105
vn 0.096635393798351288 0 0.99531984329223633
vn 0.096635393798351288 0 0.99531984329223633
vn -0.99531984329223633 0 0.096635393798351288
vn -0.99531984329223633 0 0.096635393798351288
vn 0.98222774267196655 0 0.18769301474094391
vn 0.98222774267196655 0 0.18769301474094391
vn 0.72482806444168091 0 0.68892985582351685
vn 0.72482806444168091 0 0.68892985582351685
vn 0.68892985582351685 0 -0.72482806444168091
vn 0.68892985582351685 0 -0.72482806444168091
vn 0.18769301474094391 0 -0.98222774267196655
vn 0.18769301474094391 0 -0.98222774267196655
vn -0.50137346982955933 0 -0.8652309775352478
vn -0.50137346982955933 0 -0.8652309775352478
vn -0.8652309775352478 0 0.50137346982955933
vn -0.8652309775352478 0 0.50137346982955933
vn -0.18769301474094391 0 0.98222774267196655
vn -0.18769301474094391 0 0.98222774267196655
vn -0.98222774267196655 0 -0.18769301474094391
vn -0.98222774267196655 0 -0.18769301474094391
vn 0.88956135511398315 0 0.4568156898021698
vn 0.88956135511398315 0 0.4568156898021698
vn 0.4568156898021698 0 -0.88956135511398315
vn 0.4568156898021698 0 -0.88956135511398315
vn -0.68892985582351685 0 0.72482806444168091
vn -0.68892985582351685 0 0.72482806444168091
vn -0.72482806444168091 0 -0.68892985582351685
vn -0.72482806444168091 0 -0.68892985582351685
vn 0.88956135511398315 0 0.4568156898021698
vn 0.88956135511398315 0 0.4568156898021698
vn 0.4568156898021698 0 -0.88956135511398315
vn 0.4568156898021698 0 -0.88956135511398315
vn -0.4568156898021698 0 0.88956135511398315
vn -0.4568156898021698 0 0.88956135511398315
vn -0.88956135511398315 0 -0.4568156898021698
vn -0.88956135511398315 0 -0.4568156898021698
vn 0.72482806444168091 0 0.68892985582351685
vn 0.72482806444168091 0 0.68892985582351685
vn 0.68892985582351685 0 -0.72482806444168091
vn 0.68892985582351685 0 -0.72482806444168091
vn -0.4568156898021698 0 0.88956135511398315
vn -0.4568156898021698 0 0.88956135511398315
vn -0.88956135511398315 0 -0.4568156898021698
vn -0.88956135511398315 0 -0.4568156898021698
vn 0.98222774267196655 0 0.18769301474094391
vn 0.98222774267196655 0 0.18769301474094391
vn 0.18769301474094391 0 -0.98222774267196655
vn 0.18769301474094391 0 -0.98222774267196655
vn 0.8652309775352478 0 -0.50137346982955933
vn 0.8652309775352478 0 -0.50137346982955933
vn 0.50137346982955933 0 0.8652309775352478
vn 0.50137346982955933 0 0.8652309775352478
vn -0.18769301474094391 0 0.98222774267196655
vn -0.18769301474094391 0 0.98222774267196655
vn -0.68892985582351685 0 0.72482806444168091
vn -0.68892985582351685 0 0.72482806444168091
vn -0.72482806444168091 0 -0.68892985582351685
vn -0.72482806444168091 0 -0.68892985582351685
vn -0.98222774267196655 0 -0.18769301474094391
vn -0.98222774267196655 0 -0.18769301474094391
vn 0.99531984329223633 0 -0.096635393798351288
vn 0.99531984329223633 0 -0.096635393798351288
vn -0.096635393798351288 0 -0.99531984329223633
vn -0.096635393798351288 0 -0.99531984329223633
vn 0.9714362621307373 0 -0.2373005747795105
vn 0.9714362621307373 0 -0.2373005747795105
vn 0.2373005747795105 0 0.9714362621307373
vn 0.2373005747795105 0 0.9714362621307373
vn 0.096635393798351288 0 0.99531984329223633
vn 0.096635393798351288 0 0.99531984329223633
vn -0.99531984329223633 0 0.096635393798351288
vn -0.99531984329223633 0 0.096635393798351288
vn -0.50137346982955933 0 -0.8652309775352478
vn -0.50137346982955933 0 -0.8652309775352478
vn -0.8652309775352478 0 0.50137346982955933
vn -0.8652309775352478 0 0.50137346982955933
vn 0.92777705192565918 0 -0.37313500046730042
vn 0.92777705192565918 0 -0.37313500046730042
vn -0.37313500046730042 0 -0.92777705192565918
vn -0.37313500046730042 0 -0.92777705192565918
vn 0.99894160032272339 0 0.045996963977813721
vn 0.99894160032272339 0 0.045996963977813721
vn -0.045996963977813721 0 0.99894160032272339
vn -0.045996963977813721 0 0.99894160032272339
vn 0.37313500046730042 0 0.92777705192565918
vn 0.37313500046730042 0 0.92777705192565918
vn -0.92777705192565918 0 0.37313500046730042
vn -0.92777705192565918 0 0.37313500046730042
vn -0.2373005747795105 0 -0.9714362621307373
vn -0.2373005747795105 0 -0.9714362621307373
vn -0.9714362621307373 0 0.2373005747795105
vn -0.9714362621307373 0 0.2373005747795105
vn 0.78507125377655029 0 -0.61940544843673706
vn 0.78507125377655029 0 -0.61940544843673706
vn -0.61940544843673706 0 -0.78507125377655029
vn -0.61940544843673706 0 -0.78507125377655029
vn 0.94551855325698853 0 0.32556813955307007
vn 0.94551855325698853 0 0.32556813955307007
vn 0.61940544843673706 0 0.78507125377655029
vn 0.61940544843673706 0 0.78507125377655029
vn -0.32556813955307007 0 0.94551855325698853
vn -0.32556813955307007 0 0.94551855325698853
vn -0.78507125377655029 0 0.61940544843673706
vn -0.78507125377655029 0 0.61940544843673706
vn 0.81549525260925293 0 0.57876372337341309
vn 0.81549525260925293 0 0.57876372337341309
vn -0.57876372337341309 0 0.81549525260925293
vn -0.57876372337341309 0 0.81549525260925293
vn 0.045996963977813721 0 -0.99894160032272339
vn 0.045996963977813721 0 -0.99894160032272339
vn -0.99894160032272339 0 -0.045996963977813721
vn -0.99894160032272339 0 -0.045996963977813721
vn 0.57876372337341309 0 -0.81549525260925293
vn 0.57876372337341309 0 -0.81549525260925293
vn -0.81549525260925293 0 -0.57876372337341309
vn -0.81549525260925293 0 -0.57876372337341309
vn 0.32556813955307007 0 -0.94551855325698853
vn 0.32556813955307007 0 -0.94551855325698853
vn -0.94551855325698853 0 -0.32556813955307007
vn -0.94551855325698853 0 -0.32556813955307007
f 2//2 1//1 3//3 4//4
f 4//4 3//3 23//23 24//24
f 24//24 23//23 19//19 20//20
f 20//20 19//19 1//1 2//2
f 10//10 9//9 11//11 12//12
f 12//12 11//11 39//39 40//40
f 40//40 39//39 37//37 38//38
f 38//38 37//37 9//9 10//10
f 30//30 29//29 31//31 32//32
f 32//32 31//31 55//55 56//56
f 56//56 55//55 53//53 54//54
f 54//54 53//53 29//29 30//30
f 46//46 45//45 47//47 48//48
f 48//48 47//47 71//71 72//72
f 72//72 71//71 69//69 70//70
f 70//70 69//69 45//45 46//46
f 66//66 65//65 63//63 64//64
f 64//64 63//63 81//81 82//82
f 82//82 81//81 83//83 84//84
f 84//84 83//83 65//65 66//66
f 88//88 87//87 85//85 86//86
f 86//86 85//85 97//97 98//98
f 98//98 97//97 99//99 100//100
f 100//100 99//99 87//87 88//88
f 104//104 103//103 101//101 102//102
f 102//102 101//101 109//109 110//110
f 110//110 109//109 115//115 116//116
f 116//116 115//115 103//103 104//104
f 120//120 119//119 117//117 118//118
f 118//118 117//117 125//125 126//126
f 126//126 125//125 127//127 128//128
f 128//128 127//127 119//119 120//120
f 136//136 135//135 133//133 134//134
f 134//134 133//133 141//141 142//142
f 142//142 141//141 143//143 144//144
f 144//144 143//143 135//135 136//136
f 152//152 151//151 149//149 150//150
f 150//150 149//149 155//155 156//156
f 156//156 155//155 159//159 160//160
f 160//160 159//159 151//151 152//152
f 172//172 171//171 169//169 170//170
f 170//170 169//169 161//161 162//162
f 162//162 161//161 163//163 164//164
f 164//164 163//163 171//171 172//172
f 176//176 175//175 173//173 174//174
f 174//174 173//173 153//153 154//154
f 154//154 153//153 157//157 158//158
f 158//158 157//157 175//175 176//176
f 168//168 167//167 165//165 166//166
f 166//166 165//165 137//137 138//138
f 138//138 137//137 139//139 140//140
f 140//140 139//139 167//167 168//168
f 148//148 147//147 145//145 146//146
f 146//146 145//145 121//121 122//122
f 122//122 121//121 123//123 124//124
f 124//124 123//123 147//147 148//148
f 132//132 131//131 129//129 130//130
f 130//130 129//129 105//105 106//106
f 106//106 105//105 107//107 108//108
f 108//108 107//107 131//131 132//132
f 112//112 111//111 113//113 114//114
f 114//114 113//113 95//95 96//96
f 96//96 95//95 93//93 94//94
f 94//94 93//93 111//111 112//112
f 90//90 89//89 91//91 92//92
f 92//92 91//91 79//79 80//80
f 80//80 79//79 77//77 78//78
f 78//78 77//77 89//89 90//90
f 74//74 73//73 75//75 76//76
f 76//76 75//75 67//67 68//68
f 68//68 67//67 61//61 62//62
f 62//62 61//61 73//73 74//74
f 58//58 57//57 59//59 60//60
f 60//60 59//59 51//51 52//52
f 52//52 51//51 49//49 50//50
f 50//50 49//49 57//57 58//58
f 42//42 41//41 43//43 44//44
f 44//44 43//43 35//35 36//36
f 36//36 35//35 33//33 34//34
f 34//34 33//33 41//41 42//42
f 26//26 25//25 27//27 28//28
f 28//28 27//27 21//21 22//22
f 22//22 21//21 17//17 18//18
f 18//18 17//17 25//25 26//26
f 6//6 5//5 7//7 8//8
f 8//8 7//7 15//15 16//16
f 16//16 15//15 13//13 14//14
f 14//14 13//13 5//5 6//6
