# Rhino

mtllib Frangisole50.mtl
usemtl diffuse_Black
v 1.3863746222404929 3 -0.11188633317232992
v 1.3863746222404929 0 -0.11188633317232999
v 1.376073860742292 3 -0.094742987158287925
v 1.376073860742292 0 -0.094742987158287967
v 1.3617387315574592 3 0.28323271654154158
v 1.3617387315574592 0 0.28323271654154158
v 1.3470253845717033 3 0.2967795767119551
v 1.3470253845717033 0 0.29677957671195515
v 1.2986946861169535 3 -0.49794101758622655
v 1.2986946861169535 0 -0.49794101758622655
v 1.2936410165419043 3 -0.4785900376672092
v 1.2936410165419043 0 -0.4785900376672092
v 1.226782867415708 3 0.65540593601104391
v 1.226782867415708 0 0.65540593601104391
v 1.2088489228115393 3 0.66425882429310157
v 1.2088489228115393 0 0.66425882429310157
v 1.1214219251460826 3 0.022222820908184754
v 1.1214219251460826 0 0.022222820908184726
v 1.1067085781603268 3 0.035769681078598292
v 1.1067085781603268 0 0.035769681078598264
v 1.1064050707606541 3 -0.82366456960888179
v 1.1064050707606541 0 -0.82366456960888179
v 1.1058022301589112 3 -0.84365548212454455
v 1.1058022301589112 0 -0.84365548212454455
v 1.0822573497896015 3 -0.29461842575414576
v 1.0822573497896015 0 -0.29461842575414576
v 1.0719565882914006 3 -0.27747507974010377
v 1.0719565882914006 0 -0.27747507974010377
v 1.069735565480217 3 0.33726370678474044
v 1.069735565480217 0 0.33726370678474049
v 1.0518016208760483 3 0.34611659506679809
v 1.0518016208760483 0 0.34611659506679815
v 0.99244035131457475 3 0.97448206439411822
v 0.99244035131457475 0 0.97448206439411822
v 0.9727387106265476 3 0.97792377242936168
v 0.9727387106265476 0 0.97792377242936168
v 0.95541472038545772 3 -0.5875914397251214
v 0.95541472038545761 0 -0.5875914397251214
v 0.95036105081040856 3 -0.56824045980610405
v 0.95036105081040845 0 -0.56824045980610405
v 0.93138559226151563 3 0.62498149292209337
v 0.93138559226151563 0 0.62498149292209337
v 0.91168395157348847 3 0.62842320095733673
v 0.91168395157348847 0 0.62842320095733684
v 0.82953476619069222 3 -1.1020106966426533
v 0.82953476619069222 0 -1.1020106966426533
v 0.82332425397247933 3 -1.1210219969134769
v 0.82332425397247933 0 -1.1210219969134769
v 0.75177291300755389 3 -0.8129703772747523
v 0.75177291300755389 0 -0.8129703772747523
v 0.75117007240581102 3 -0.83296128979041506
v 0.75117007240581102 0 -0.83296128979041506
v 0.71758029752118624 3 0.86206699541095344
v 0.71758029752118624 0 0.86206699541095344
v 0.69770707050767578 3 0.85981869648299303
v 0.69770707050767578 0 0.85981869648299303
v 0.67769622021996834 3 1.2146114513879684
v 0.67769622021996834 0 1.2146114513879684
v 0.65782299320645787 3 1.212363152460008
v 0.65782299320645787 0 1.212363152460008
v 0.492280604758493 3 -0.99183826969759981
v 0.492280604758493 0 -0.99183826969759981
v 0.48607009254028011 3 -1.0108495699684235
v 0.48607009254028011 0 -1.0108495699684235
v 0.48546048829717448 3 -1.2910784709444045
v 0.48546048829717436 0 -1.2910784709444045
v 0.47414544322707297 3 -1.3075699764870032
v 0.47414544322707292 0 -1.3075699764870032
v 0.44564091469004119 3 1.029312956841449
v 0.44564091469004113 0 1.029312956841449
v 0.4272061120130502 3 1.0215567947582793
v 0.4272061120130502 0 1.0215567947582793
v 0.30804917177774949 3 1.356340242162807
v 0.30804917177774949 0 1.356340242162807
v 0.2896143691007585 3 1.3485840800796374
v 0.28961436910075855 0 1.3485840800796374
v 0.19290664961738524 3 -1.0903533241988632
v 0.1929066496173853 0 -1.0903533241988632
v 0.18159160454728374 3 -1.1068448297414619
v 0.18159160454728385 0 -1.1068448297414619
v 0.13759835527927863 3 1.1131701040685114
v 0.13759835527927861 0 1.1131701040685114
v 0.12209545501570394 3 1.1005344369544392
v 0.12209545501570394 0 1.1005344369544392
v 0.10205708878651147 3 -1.3755507458695571
v 0.10205708878651146 0 -1.3755507458695571
v 0.086554188522936851 3 -1.3881864129836292
v 0.086554188522936795 0 -1.3881864129836292
v -0.08655418852293531 3 1.3881864129836292
v -0.08655418852293531 0 1.3881864129836292
v -0.10205708878651 3 1.3755507458695571
v -0.10205708878650997 0 1.3755507458695568
v -0.12209545501570301 3 -1.1005344369544392
v -0.12209545501570297 0 -1.1005344369544392
v -0.13759835527927763 3 -1.1131701040685114
v -0.13759835527927763 0 -1.1131701040685114
v -0.18159160454728265 3 1.1068448297414621
v -0.18159160454728271 0 1.1068448297414621
v -0.19290664961738421 3 1.0903533241988634
v -0.19290664961738421 0 1.0903533241988634
v -0.2896143691007575 3 -1.3485840800796374
v -0.2896143691007575 0 -1.3485840800796374
v -0.30804917177774854 3 -1.356340242162807
v -0.30804917177774849 0 -1.356340242162807
v -0.42720611201304926 3 -1.0215567947582798
v -0.42720611201304931 0 -1.0215567947582798
v -0.4456409146900403 3 -1.0293129568414494
v -0.4456409146900403 0 -1.0293129568414494
v -0.47414544322707153 3 1.3075699764870035
v -0.47414544322707153 0 1.3075699764870035
v -0.48546048829717309 3 1.2910784709444048
v -0.48546048829717303 0 1.2910784709444048
v -0.48607009254027911 3 1.0108495699684239
v -0.48607009254027911 0 1.0108495699684239
v -0.49228060475849189 3 0.99183826969760025
v -0.49228060475849189 0 0.99183826969760025
v -0.65782299320645587 3 -1.2123631524600091
v -0.65782299320645587 0 -1.2123631524600091
v -0.67769622021996634 3 -1.2146114513879696
v -0.67769622021996634 0 -1.2146114513879696
v -0.69770707050767444 3 -0.85981869648299425
v -0.69770707050767444 0 -0.85981869648299425
v -0.71758029752118491 3 -0.86206699541095466
v -0.71758029752118491 0 -0.86206699541095466
v -0.75117007240581013 3 0.83296128979041573
v -0.75117007240581024 0 0.83296128979041573
v -0.751772913007553 3 0.81297037727475285
v -0.75177291300755311 0 0.81297037727475285
v -0.82332425397247833 3 1.1210219969134778
v -0.82332425397247833 0 1.1210219969134778
v -0.82953476619069111 3 1.1020106966426542
v -0.82953476619069111 0 1.1020106966426542
v -0.91168395157348747 3 -0.62842320095733806
v -0.91168395157348747 0 -0.62842320095733806
v -0.93138559226151485 3 -0.62498149292209459
v -0.93138559226151485 0 -0.62498149292209471
v -0.95036105081040834 3 0.5682404598061046
v -0.95036105081040834 0 0.5682404598061046
v -0.95541472038545749 3 0.58759143972512196
v -0.95541472038545749 0 0.58759143972512196
v -0.97273871062654627 3 -0.97792377242936279
v -0.97273871062654627 0 -0.97792377242936279
v -0.99244035131457364 3 -0.97448206439411933
v -0.99244035131457364 0 -0.97448206439411944
v -1.0518016208760477 3 -0.34611659506680004
v -1.0518016208760477 0 -0.34611659506680004
v -1.0697355654802165 3 -0.33726370678474227
v -1.0697355654802165 0 -0.33726370678474227
v -1.0719565882914006 3 0.27747507974010382
v -1.0719565882914006 0 0.27747507974010382
v -1.0822573497896015 3 0.29461842575414582
v -1.0822573497896015 0 0.29461842575414582
v -1.1058022301589103 3 0.84365548212454566
v -1.1058022301589103 0 0.84365548212454566
v -1.1064050707606532 3 0.82366456960888279
v -1.1064050707606532 0 0.82366456960888279
v -1.1067085781603265 3 -0.035769681078599985
v -1.1067085781603265 0 -0.035769681078600041
v -1.1214219251460824 3 -0.022222820908186502
v -1.1214219251460824 0 -0.02222282090818653
v -1.208848922811538 3 -0.66425882429310379
v -1.208848922811538 0 -0.66425882429310379
v -1.2267828674157069 3 -0.65540593601104602
v -1.2267828674157069 0 -0.65540593601104602
v -1.2936410165419043 3 0.47859003766720998
v -1.2936410165419043 0 0.47859003766720998
v -1.2986946861169535 3 0.49794101758622733
v -1.2986946861169533 0 0.49794101758622733
v -1.3470253845717028 3 -0.29677957671195748
v -1.3470253845717028 0 -0.29677957671195748
v -1.3617387315574587 3 -0.28323271654154403
v -1.3617387315574587 0 -0.28323271654154397
v -1.376073860742292 3 0.094742987158287953
v -1.376073860742292 0 0.094742987158287953
v -1.3863746222404929 3 0.11188633317232995
v -1.3863746222404929 0 0.11188633317232997
vn 0.97029572725296021 0 -0.24192190170288086
vn 0.97029572725296021 0 -0.24192190170288086
vn 0.24192190170288086 0 0.97029572725296021
vn 0.24192190170288086 0 0.97029572725296021
vn 0.99914920330047607 0 0.041241534054279327
vn 0.99914920330047607 0 0.041241534054279327
vn -0.041241534054279327 0 0.99914920330047607
vn -0.041241534054279327 0 0.99914920330047607
vn 0.86283469200134277 0 -0.50548619031906128
vn 0.86283469200134277 0 -0.50548619031906128
vn 0.50548619031906128 0 0.86283469200134277
vn 0.50548619031906128 0 0.86283469200134277
vn 0.94705754518508911 0 0.3210638165473938
vn 0.94705754518508911 0 0.3210638165473938
vn -0.3210638165473938 0 0.94705754518508911
vn -0.3210638165473938 0 0.94705754518508911
vn 0.041241534054279327 0 -0.99914920330047607
vn 0.041241534054279327 0 -0.99914920330047607
vn -0.99914920330047607 0 -0.041241534054279327
vn -0.99914920330047607 0 -0.041241534054279327
vn 0.72809910774230957 0 0.68547189235687256
vn 0.72809910774230957 0 0.68547189235687256
vn 0.68547189235687256 0 -0.72809910774230957
vn 0.68547189235687256 0 -0.72809910774230957
vn -0.24192190170288086 0 -0.97029572725296021
vn -0.24192190170288086 0 -0.97029572725296021
vn -0.97029572725296021 0 0.24192190170288086
vn -0.97029572725296021 0 0.24192190170288086
vn 0.3210638165473938 0 -0.94705754518508911
vn 0.3210638165473938 0 -0.94705754518508911
vn -0.94705754518508911 0 -0.3210638165473938
vn -0.94705754518508911 0 -0.3210638165473938
vn 0.8182409405708313 0 0.57487541437149048
vn 0.8182409405708313 0 0.57487541437149048
vn -0.57487541437149048 0 0.8182409405708313
vn -0.57487541437149048 0 0.8182409405708313
vn -0.50548619031906128 0 -0.86283469200134277
vn -0.50548619031906128 0 -0.86283469200134277
vn -0.86283469200134277 0 0.50548619031906128
vn -0.86283469200134277 0 0.50548619031906128
vn 0.57487541437149048 0 -0.8182409405708313
vn 0.57487541437149048 0 -0.8182409405708313
vn -0.8182409405708313 0 -0.57487541437149048
vn -0.8182409405708313 0 -0.57487541437149048
vn 0.89172571897506714 0 0.45257622003555298
vn 0.89172571897506714 0 0.45257622003555298
vn 0.45257622003555298 0 -0.89172571897506714
vn 0.45257622003555298 0 -0.89172571897506714
vn -0.68547189235687256 0 0.72809910774230957
vn -0.68547189235687256 0 0.72809910774230957
vn -0.72809910774230957 0 -0.68547189235687256
vn -0.72809910774230957 0 -0.68547189235687256
vn 0.78211402893066406 0 -0.62313532829284668
vn 0.78211402893066406 0 -0.62313532829284668
vn -0.62313532829284668 0 -0.78211402893066406
vn -0.62313532829284668 0 -0.78211402893066406
vn 0.62313532829284668 0 0.78211402893066406
vn 0.62313532829284668 0 0.78211402893066406
vn -0.78211402893066406 0 0.62313532829284668
vn -0.78211402893066406 0 0.62313532829284668
vn -0.45257622003555298 0 0.89172571897506714
vn -0.45257622003555298 0 0.89172571897506714
vn -0.89172571897506714 0 -0.45257622003555298
vn -0.89172571897506714 0 -0.45257622003555298
vn 0.98311001062393188 0 0.18301552534103394
vn 0.98311001062393188 0 0.18301552534103394
vn 0.18301552534103394 0 -0.98311001062393188
vn 0.18301552534103394 0 -0.98311001062393188
vn 0.92599046230316162 0 -0.37754690647125244
vn 0.92599046230316162 0 -0.37754690647125244
vn -0.37754690647125244 0 -0.92599046230316162
vn -0.37754690647125244 0 -0.92599046230316162
vn 0.37754690647125244 0 0.92599046230316162
vn 0.37754690647125244 0 0.92599046230316162
vn -0.92599046230316162 0 0.37754690647125244
vn -0.92599046230316162 0 0.37754690647125244
vn -0.18301552534103394 0 0.98311001062393188
vn -0.18301552534103394 0 0.98311001062393188
vn -0.98311001062393188 0 -0.18301552534103394
vn -0.98311001062393188 0 -0.18301552534103394
vn 0.99484860897064209 0 -0.10137198120355606
vn 0.99484860897064209 0 -0.10137198120355606
vn -0.10137198120355606 0 -0.99484860897064209
vn -0.10137198120355606 0 -0.99484860897064209
vn 0.99484860897064209 0 -0.10137198120355606
vn 0.99484860897064209 0 -0.10137198120355606
vn -0.10137198120355606 0 -0.99484860897064209
vn -0.10137198120355606 0 -0.99484860897064209
vn 0.10137198120355606 0 0.99484860897064209
vn 0.10137198120355606 0 0.99484860897064209
vn -0.99484860897064209 0 0.10137198120355606
vn -0.99484860897064209 0 0.10137198120355606
vn 0.10137198120355606 0 0.99484860897064209
vn 0.10137198120355606 0 0.99484860897064209
vn -0.99484860897064209 0 0.10137198120355606
vn -0.99484860897064209 0 0.10137198120355606
vn 0.98311001062393188 0 0.18301552534103394
vn 0.98311001062393188 0 0.18301552534103394
vn 0.18301552534103394 0 -0.98311001062393188
vn 0.18301552534103394 0 -0.98311001062393188
vn 0.92599046230316162 0 -0.37754690647125244
vn 0.92599046230316162 0 -0.37754690647125244
vn -0.37754690647125244 0 -0.92599046230316162
vn -0.37754690647125244 0 -0.92599046230316162
vn 0.37754690647125244 0 0.92599046230316162
vn 0.37754690647125244 0 0.92599046230316162
vn -0.92599046230316162 0 0.37754690647125244
vn -0.92599046230316162 0 0.37754690647125244
vn -0.18301552534103394 0 0.98311001062393188
vn -0.18301552534103394 0 0.98311001062393188
vn -0.98311001062393188 0 -0.18301552534103394
vn -0.98311001062393188 0 -0.18301552534103394
vn 0.89172571897506714 0 0.45257622003555298
vn 0.89172571897506714 0 0.45257622003555298
vn 0.45257622003555298 0 -0.89172571897506714
vn 0.45257622003555298 0 -0.89172571897506714
vn 0.78211402893066406 0 -0.62313532829284668
vn 0.78211402893066406 0 -0.62313532829284668
vn -0.62313532829284668 0 -0.78211402893066406
vn -0.62313532829284668 0 -0.78211402893066406
vn 0.62313532829284668 0 0.78211402893066406
vn 0.62313532829284668 0 0.78211402893066406
vn -0.78211402893066406 0 0.62313532829284668
vn -0.78211402893066406 0 0.62313532829284668
vn 0.72809910774230957 0 0.68547189235687256
vn 0.72809910774230957 0 0.68547189235687256
vn 0.68547189235687256 0 -0.72809910774230957
vn 0.68547189235687256 0 -0.72809910774230957
vn -0.45257622003555298 0 0.89172571897506714
vn -0.45257622003555298 0 0.89172571897506714
vn -0.89172571897506714 0 -0.45257622003555298
vn -0.89172571897506714 0 -0.45257622003555298
vn 0.8182409405708313 0 0.57487541437149048
vn 0.8182409405708313 0 0.57487541437149048
vn -0.57487541437149048 0 0.8182409405708313
vn -0.57487541437149048 0 0.8182409405708313
vn 0.86283469200134277 0 -0.50548619031906128
vn 0.86283469200134277 0 -0.50548619031906128
vn 0.50548619031906128 0 0.86283469200134277
vn 0.50548619031906128 0 0.86283469200134277
vn 0.57487541437149048 0 -0.8182409405708313
vn 0.57487541437149048 0 -0.8182409405708313
vn -0.8182409405708313 0 -0.57487541437149048
vn -0.8182409405708313 0 -0.57487541437149048
vn 0.94705754518508911 0 0.3210638165473938
vn 0.94705754518508911 0 0.3210638165473938
vn -0.3210638165473938 0 0.94705754518508911
vn -0.3210638165473938 0 0.94705754518508911
vn 0.97029572725296021 0 -0.24192190170288086
vn 0.97029572725296021 0 -0.24192190170288086
vn 0.24192190170288086 0 0.97029572725296021
vn 0.24192190170288086 0 0.97029572725296021
vn -0.68547189235687256 0 0.72809910774230957
vn -0.68547189235687256 0 0.72809910774230957
vn -0.72809910774230957 0 -0.68547189235687256
vn -0.72809910774230957 0 -0.68547189235687256
vn 0.99914920330047607 0 0.041241534054279327
vn 0.99914920330047607 0 0.041241534054279327
vn -0.041241534054279327 0 0.99914920330047607
vn -0.041241534054279327 0 0.99914920330047607
vn 0.3210638165473938 0 -0.94705754518508911
vn 0.3210638165473938 0 -0.94705754518508911
vn -0.94705754518508911 0 -0.3210638165473938
vn -0.94705754518508911 0 -0.3210638165473938
vn -0.50548619031906128 0 -0.86283469200134277
vn -0.50548619031906128 0 -0.86283469200134277
vn -0.86283469200134277 0 0.50548619031906128
vn -0.86283469200134277 0 0.50548619031906128
vn 0.041241534054279327 0 -0.99914920330047607
vn 0.041241534054279327 0 -0.99914920330047607
vn -0.99914920330047607 0 -0.041241534054279327
vn -0.99914920330047607 0 -0.041241534054279327
vn -0.24192190170288086 0 -0.97029572725296021
vn -0.24192190170288086 0 -0.97029572725296021
vn -0.97029572725296021 0 0.24192190170288086
vn -0.97029572725296021 0 0.24192190170288086
f 2//2 1//1 3//3 4//4
f 4//4 3//3 27//27 28//28
f 28//28 27//27 25//25 26//26
f 26//26 25//25 1//1 2//2
f 10//10 9//9 11//11 12//12
f 12//12 11//11 39//39 40//40
f 40//40 39//39 37//37 38//38
f 38//38 37//37 9//9 10//10
f 24//24 23//23 21//21 22//22
f 22//22 21//21 49//49 50//50
f 50//50 49//49 51//51 52//52
f 52//52 51//51 23//23 24//24
f 48//48 47//47 45//45 46//46
f 46//46 45//45 61//61 62//62
f 62//62 61//61 63//63 64//64
f 64//64 63//63 47//47 48//48
f 68//68 67//67 65//65 66//66
f 66//66 65//65 77//77 78//78
f 78//78 77//77 79//79 80//80
f 80//80 79//79 67//67 68//68
f 88//88 87//87 85//85 86//86
f 86//86 85//85 93//93 94//94
f 94//94 93//93 95//95 96//96
f 96//96 95//95 87//87 88//88
f 104//104 103//103 101//101 102//102
f 102//102 101//101 105//105 106//106
f 106//106 105//105 107//107 108//108
f 108//108 107//107 103//103 104//104
f 120//120 119//119 117//117 118//118
f 118//118 117//117 121//121 122//122
f 122//122 121//121 123//123 124//124
f 124//124 123//123 119//119 120//120
f 144//144 143//143 141//141 142//142
f 142//142 141//141 133//133 134//134
f 134//134 133//133 135//135 136//136
f 136//136 135//135 143//143 144//144
f 164//164 163//163 161//161 162//162
f 162//162 161//161 145//145 146//146
f 146//146 145//145 147//147 148//148
f 148//148 147//147 163//163 164//164
f 172//172 171//171 169//169 170//170
f 170//170 169//169 157//157 158//158
f 158//158 157//157 159//159 160//160
f 160//160 159//159 171//171 172//172
f 176//176 175//175 173//173 174//174
f 174//174 173//173 149//149 150//150
f 150//150 149//149 151//151 152//152
f 152//152 151//151 175//175 176//176
f 168//168 167//167 165//165 166//166
f 166//166 165//165 137//137 138//138
f 138//138 137//137 139//139 140//140
f 140//140 139//139 167//167 168//168
f 154//154 153//153 155//155 156//156
f 156//156 155//155 127//127 128//128
f 128//128 127//127 125//125 126//126
f 126//126 125//125 153//153 154//154
f 130//130 129//129 131//131 132//132
f 132//132 131//131 115//115 116//116
f 116//116 115//115 113//113 114//114
f 114//114 113//113 129//129 130//130
f 110//110 109//109 111//111 112//112
f 112//112 111//111 99//99 100//100
f 100//100 99//99 97//97 98//98
f 98//98 97//97 109//109 110//110
f 90//90 89//89 91//91 92//92
f 92//92 91//91 83//83 84//84
f 84//84 83//83 81//81 82//82
f 82//82 81//81 89//89 90//90
f 74//74 73//73 75//75 76//76
f 76//76 75//75 71//71 72//72
f 72//72 71//71 69//69 70//70
f 70//70 69//69 73//73 74//74
f 58//58 57//57 59//59 60//60
f 60//60 59//59 55//55 56//56
f 56//56 55//55 53//53 54//54
f 54//54 53//53 57//57 58//58
f 34//34 33//33 35//35 36//36
f 36//36 35//35 43//43 44//44
f 44//44 43//43 41//41 42//42
f 42//42 41//41 33//33 34//34
f 14//14 13//13 15//15 16//16
f 16//16 15//15 31//31 32//32
f 32//32 31//31 29//29 30//30
f 30//30 29//29 13//13 14//14
f 6//6 5//5 7//7 8//8
f 8//8 7//7 19//19 20//20
f 20//20 19//19 17//17 18//18
f 18//18 17//17 5//5 6//6
