# Rhino

mtllib Frangisole21.mtl
usemtl diffuse_Black
v 1.3265242009816021 3 -0.04605067212314426
v 1.3265242009816021 0 -0.046050672123144232
v 1.3092036929059132 3 -0.036050672123144223
v 1.3092036929059132 0 -0.036050672123144223
v 1.2857646237729532 3 0.32953975852219719
v 1.2857646237729532 0 0.32953975852219713
v 1.2663283924064823 3 0.33425493723238575
v 1.2663283924064823 0 0.33425493723238575
v 1.2598166765699128 3 -0.41791035118696324
v 1.2598166765699128 0 -0.41791035118696324
v 1.2460150963402705 3 -0.40343567042486178
v 1.2460150963402705 0 -0.40343567042486178
v 1.2021189173113038 3 -0.015252539612245847
v 1.2021189173113038 0 -0.015252539612245819
v 1.1826826859448329 3 -0.01053736090205723
v 1.1826826859448329 0 -0.01053736090205723
v 1.157721791592546 3 0.32404133161383791
v 1.157721791592546 0 0.32404133161383791
v 1.1491275176259803 3 -0.35331074078928948
v 1.1491275176259803 0 -0.35331074078928948
v 1.1408400434828703 3 0.67843283778047903
v 1.1408400434828703 0 0.67843283778047903
v 1.1377444448088858 3 0.3230896932973632
v 1.1377444448088858 0 0.3230896932973632
v 1.1318070095502915 3 -0.34331074078928947
v 1.1318070095502915 0 -0.34331074078928947
v 1.1208626966992101 3 0.67748119946400431
v 1.1208626966992101 0 0.67748119946400431
v 1.0910462974407962 3 -0.75591341900617215
v 1.0910462974407962 0 -0.75591341900617215
v 1.0818817670062479 3 -0.73813671003307368
v 1.0818817670062479 0 -0.73813671003307368
v 1.0195329315555668 3 0.63708330130057211
v 1.0195329315555668 0 0.63708330130057222
v 1.0030406405870915 3 -0.66274580696746865
v 1.0030406405870915 0 -0.66274580696746876
v 1.0006329151812736 3 0.63054194203422376
v 1.0006329151812736 0 0.63054194203422387
v 0.98923906035744924 3 -0.6482711262053672
v 0.98923906035744924 0 -0.64827112620536731
v 0.90349138770678961 3 0.9723633233172313
v 0.90349138770678961 0 0.9723633233172313
v 0.88459137133249632 3 0.96582196405088294
v 0.88459137133249632 0 0.96582196405088294
v 0.83388583599520083 3 -1.0326768772077044
v 0.83388583599520083 0 -1.0326768772077044
v 0.83010081110799261 3 -1.0130383032624501
v 0.83010081110799261 0 -1.0130383032624501
v 0.7987475767997676 3 0.89851257079621505
v 0.7987475767997676 0 0.89851257079621505
v 0.78245605775876093 3 0.88691143260479122
v 0.78245605775876081 0 0.88691143260479122
v 0.77569337616021716 3 -0.91848914936622295
v 0.77569337616021716 0 -0.91848914936622295
v 0.76652884572566893 3 -0.90071244039312448
v 0.76652884572566893 0 -0.90071244039312448
v 0.59294723296888319 3 1.1875187152661704
v 0.5929472329688833 0 1.1875187152661704
v 0.57665571392787651 3 1.1759175770747465
v 0.57665571392787651 0 1.1759175770747465
v 0.51325244370639866 3 1.0871496954659621
v 0.51325244370639866 0 1.0871496954659621
v 0.51107002429338044 3 -1.2058695579322727
v 0.51107002429338044 0 -1.2058695579322727
v 0.50916890342729682 3 -1.2257789963837344
v 0.50916890342729682 0 -1.2257789963837344
v 0.50088926398198663 3 1.0714286335711065
v 0.50088926398198652 0 1.0714286335711065
v 0.48550404762297966 3 -1.0998219633486264
v 0.48550404762297966 0 -1.0998219633486264
v 0.48171902273577144 3 -1.0801833894033721
v 0.48171902273577144 0 -1.0801833894033721
v 0.23436601980881297 3 1.30646840334998
v 0.23436601980881305 0 1.30646840334998
v 0.22200284008440094 3 1.2907473414551245
v 0.22200284008440091 0 1.2907473414551245
v 0.18617665005375289 3 1.1877124173372466
v 0.18617665005375292 0 1.1877124173372466
v 0.17874340094054633 3 1.1691450586769252
v 0.17874340094054633 0 1.1691450586769252
v 0.15788318941716131 3 -1.1721443043021318
v 0.15788318941716131 0 -1.1721443043021318
v 0.15598206855107768 3 -1.1920537427535935
v 0.15598206855107768 0 -1.1920537427535935
v 0.15063538356098552 3 -1.3010084326008216
v 0.15063538356098555 0 -1.3010084326008216
v 0.14320213444777907 3 -1.3195757912611428
v 0.14320213444777902 0 -1.3195757912611428
v -0.14320213444777777 3 1.3195757912611428
v -0.14320213444777774 0 1.3195757912611428
v -0.15063538356098433 3 1.3010084326008213
v -0.15063538356098433 0 1.3010084326008213
v -0.15598206855107646 3 1.192053742753594
v -0.15598206855107649 0 1.192053742753594
v -0.15788318941716015 3 1.1721443043021322
v -0.15788318941716017 0 1.1721443043021322
v -0.17874340094054522 3 -1.1691450586769256
v -0.17874340094054517 0 -1.1691450586769256
v -0.18617665005375167 3 -1.1877124173372469
v -0.18617665005375167 0 -1.1877124173372469
v -0.22200284008439983 3 -1.2907473414551247
v -0.22200284008439983 0 -1.2907473414551247
v -0.23436601980881197 3 -1.3064684033499805
v -0.23436601980881203 0 -1.3064684033499805
v -0.48171902273577039 3 1.080183389403373
v -0.48171902273577033 0 1.080183389403373
v -0.48550404762297861 3 1.099821963348627
v -0.48550404762297855 0 1.099821963348627
v -0.50088926398198574 3 -1.0714286335711067
v -0.50088926398198574 0 -1.0714286335711067
v -0.50916890342729559 3 1.2257789963837349
v -0.50916890342729559 0 1.2257789963837349
v -0.51107002429337922 3 1.2058695579322731
v -0.51107002429337922 0 1.2058695579322731
v -0.51325244370639789 3 -1.0871496954659625
v -0.51325244370639789 0 -1.0871496954659625
v -0.57665571392787451 3 -1.1759175770747476
v -0.57665571392787451 0 -1.1759175770747474
v -0.5929472329688813 3 -1.1875187152661715
v -0.5929472329688813 0 -1.1875187152661715
v -0.76652884572566804 3 0.90071244039312526
v -0.76652884572566804 0 0.90071244039312526
v -0.77569337616021627 3 0.91848914936622372
v -0.77569337616021627 0 0.91848914936622372
v -0.78245605775875937 3 -0.88691143260479255
v -0.78245605775875937 0 -0.88691143260479255
v -0.79874757679976616 3 -0.8985125707962166
v -0.79874757679976616 0 -0.8985125707962166
v -0.83010081110799161 3 1.013038303262451
v -0.83010081110799161 0 1.013038303262451
v -0.83388583599519983 3 1.0326768772077051
v -0.83388583599519983 0 1.0326768772077051
v -0.88459137133249499 3 -0.96582196405088405
v -0.88459137133249499 0 -0.96582196405088405
v -0.9034913877067885 3 -0.97236332331723252
v -0.9034913877067885 0 -0.97236332331723252
v -0.9892390603574488 3 0.64827112620536786
v -0.9892390603574488 0 0.64827112620536786
v -1.0006329151812725 3 -0.63054194203422531
v -1.0006329151812725 0 -0.6305419420342252
v -1.0030406405870911 3 0.66274580696746943
v -1.0030406405870911 0 0.66274580696746943
v -1.0195329315555661 3 -0.63708330130057378
v -1.0195329315555661 0 -0.63708330130057367
v -1.0818817670062473 3 0.73813671003307468
v -1.0818817670062473 0 0.73813671003307468
v -1.0910462974407955 3 0.75591341900617326
v -1.0910462974407955 0 0.75591341900617326
v -1.120862696699209 3 -0.6774811994640062
v -1.120862696699209 0 -0.6774811994640062
v -1.1318070095502915 3 0.34331074078928947
v -1.1318070095502915 0 0.34331074078928947
v -1.1377444448088856 3 -0.32308969329736509
v -1.1377444448088856 0 -0.32308969329736503
v -1.1408400434828692 3 -0.67843283778048113
v -1.1408400434828692 0 -0.67843283778048113
v -1.1491275176259803 3 0.35331074078928948
v -1.1491275176259803 0 0.35331074078928948
v -1.1577217915925457 3 -0.32404133161384002
v -1.1577217915925457 0 -0.32404133161383997
v -1.1826826859448329 3 0.010537360902055148
v -1.1826826859448329 0 0.010537360902055148
v -1.2021189173113036 3 0.015252539612243654
v -1.2021189173113036 0 0.01525253961224371
v -1.2460150963402703 3 0.4034356704248625
v -1.2460150963402703 0 0.4034356704248625
v -1.2598166765699126 3 0.41791035118696407
v -1.2598166765699126 0 0.41791035118696407
v -1.2663283924064814 3 -0.33425493723238781
v -1.2663283924064814 0 -0.33425493723238786
v -1.2857646237729521 3 -0.3295397585221993
v -1.2857646237729521 0 -0.3295397585221993
v -1.3092036929059132 3 0.036050672123144223
v -1.3092036929059132 0 0.036050672123144223
v -1.3265242009816021 3 0.04605067212314426
v -1.3265242009816021 0 0.046050672123144232
vn 0.96592581272125244 0 0.25881901383399963
vn 0.96592581272125244 0 0.25881901383399963
vn -0.25881901383399963 0 0.96592581272125244
vn -0.25881901383399963 0 0.96592581272125244
vn 0.85388129949569702 0 0.52046781778335571
vn 0.85388129949569702 0 0.52046781778335571
vn -0.52046781778335571 0 0.85388129949569702
vn -0.52046781778335571 0 0.85388129949569702
vn 0.99971681833267212 0 -0.023797668516635895
vn 0.99971681833267212 0 -0.023797668516635895
vn 0.023797668516635895 0 0.99971681833267212
vn 0.023797668516635895 0 0.99971681833267212
vn 0.52046781778335571 0 -0.85388129949569702
vn 0.52046781778335571 0 -0.85388129949569702
vn -0.85388129949569702 0 -0.52046781778335571
vn -0.85388129949569702 0 -0.52046781778335571
vn 0.73995137214660645 0 -0.67266035079956055
vn 0.73995137214660645 0 -0.67266035079956055
vn 0.25881901383399963 0 -0.96592581272125244
vn 0.25881901383399963 0 -0.96592581272125244
vn 0.67266035079956055 0 0.73995137214660645
vn 0.67266035079956055 0 0.73995137214660645
vn -0.67266035079956055 0 -0.73995137214660645
vn -0.67266035079956055 0 -0.73995137214660645
vn -0.96592581272125244 0 -0.25881901383399963
vn -0.96592581272125244 0 -0.25881901383399963
vn -0.73995137214660645 0 0.67266035079956055
vn -0.73995137214660645 0 0.67266035079956055
vn 0.95251667499542236 0 -0.304486483335495
vn 0.95251667499542236 0 -0.304486483335495
vn 0.304486483335495 0 0.95251667499542236
vn 0.304486483335495 0 0.95251667499542236
vn 0.89948844909667969 0 -0.43694451451301575
vn 0.89948844909667969 0 -0.43694451451301575
vn -0.023797668516635895 0 -0.99971681833267212
vn -0.023797668516635895 0 -0.99971681833267212
vn -0.43694451451301575 0 -0.89948844909667969
vn -0.43694451451301575 0 -0.89948844909667969
vn -0.99971681833267212 0 0.023797668516635895
vn -0.99971681833267212 0 0.023797668516635895
vn 0.43694451451301575 0 0.89948844909667969
vn 0.43694451451301575 0 0.89948844909667969
vn -0.89948844909667969 0 0.43694451451301575
vn -0.89948844909667969 0 0.43694451451301575
vn 0.82814931869506836 0 -0.56050759553909302
vn 0.82814931869506836 0 -0.56050759553909302
vn 0.56050759553909302 0 0.82814931869506836
vn 0.56050759553909302 0 0.82814931869506836
vn 0.98615437746047974 0 -0.16583003103733063
vn 0.98615437746047974 0 -0.16583003103733063
vn -0.16583003103733063 0 -0.98615437746047974
vn -0.16583003103733063 0 -0.98615437746047974
vn -0.304486483335495 0 -0.95251667499542236
vn -0.304486483335495 0 -0.95251667499542236
vn -0.95251667499542236 0 0.304486483335495
vn -0.95251667499542236 0 0.304486483335495
vn 0.16583003103733063 0 0.98615437746047974
vn 0.16583003103733063 0 0.98615437746047974
vn -0.98615437746047974 0 0.16583003103733063
vn -0.98615437746047974 0 0.16583003103733063
vn 0.9929279088973999 0 0.11871907114982605
vn 0.9929279088973999 0 0.11871907114982605
vn 0.77111971378326416 0 0.63669019937515259
vn 0.77111971378326416 0 0.63669019937515259
vn 0.63669019937515259 0 -0.77111971378326416
vn 0.63669019937515259 0 -0.77111971378326416
vn 0.11871907114982605 0 -0.9929279088973999
vn 0.11871907114982605 0 -0.9929279088973999
vn -0.56050759553909302 0 -0.82814931869506836
vn -0.56050759553909302 0 -0.82814931869506836
vn -0.82814931869506836 0 0.56050759553909302
vn -0.82814931869506836 0 0.56050759553909302
vn -0.11871907114982605 0 0.9929279088973999
vn -0.11871907114982605 0 0.9929279088973999
vn -0.9929279088973999 0 -0.11871907114982605
vn -0.9929279088973999 0 -0.11871907114982605
vn 0.91926032304763794 0 0.39365023374557495
vn 0.91926032304763794 0 0.39365023374557495
vn 0.39365023374557495 0 -0.91926032304763794
vn 0.39365023374557495 0 -0.91926032304763794
vn -0.63669019937515259 0 0.77111971378326416
vn -0.63669019937515259 0 0.77111971378326416
vn -0.77111971378326416 0 -0.63669019937515259
vn -0.77111971378326416 0 -0.63669019937515259
vn 0.91926032304763794 0 0.39365023374557495
vn 0.91926032304763794 0 0.39365023374557495
vn 0.39365023374557495 0 -0.91926032304763794
vn 0.39365023374557495 0 -0.91926032304763794
vn -0.39365023374557495 0 0.91926032304763794
vn -0.39365023374557495 0 0.91926032304763794
vn -0.91926032304763794 0 -0.39365023374557495
vn -0.91926032304763794 0 -0.39365023374557495
vn 0.77111971378326416 0 0.63669019937515259
vn 0.77111971378326416 0 0.63669019937515259
vn 0.63669019937515259 0 -0.77111971378326416
vn 0.63669019937515259 0 -0.77111971378326416
vn -0.39365023374557495 0 0.91926032304763794
vn -0.39365023374557495 0 0.91926032304763794
vn -0.91926032304763794 0 -0.39365023374557495
vn -0.91926032304763794 0 -0.39365023374557495
vn 0.9929279088973999 0 0.11871907114982605
vn 0.9929279088973999 0 0.11871907114982605
vn 0.11871907114982605 0 -0.9929279088973999
vn 0.11871907114982605 0 -0.9929279088973999
vn 0.82814931869506836 0 -0.56050759553909302
vn 0.82814931869506836 0 -0.56050759553909302
vn 0.56050759553909302 0 0.82814931869506836
vn 0.56050759553909302 0 0.82814931869506836
vn -0.11871907114982605 0 0.9929279088973999
vn -0.11871907114982605 0 0.9929279088973999
vn -0.63669019937515259 0 0.77111971378326416
vn -0.63669019937515259 0 0.77111971378326416
vn -0.77111971378326416 0 -0.63669019937515259
vn -0.77111971378326416 0 -0.63669019937515259
vn -0.9929279088973999 0 -0.11871907114982605
vn -0.9929279088973999 0 -0.11871907114982605
vn 0.98615437746047974 0 -0.16583003103733063
vn 0.98615437746047974 0 -0.16583003103733063
vn -0.16583003103733063 0 -0.98615437746047974
vn -0.16583003103733063 0 -0.98615437746047974
vn 0.95251667499542236 0 -0.304486483335495
vn 0.95251667499542236 0 -0.304486483335495
vn 0.304486483335495 0 0.95251667499542236
vn 0.304486483335495 0 0.95251667499542236
vn 0.16583003103733063 0 0.98615437746047974
vn 0.16583003103733063 0 0.98615437746047974
vn -0.98615437746047974 0 0.16583003103733063
vn -0.98615437746047974 0 0.16583003103733063
vn -0.56050759553909302 0 -0.82814931869506836
vn -0.56050759553909302 0 -0.82814931869506836
vn -0.82814931869506836 0 0.56050759553909302
vn -0.82814931869506836 0 0.56050759553909302
vn 0.89948844909667969 0 -0.43694451451301575
vn 0.89948844909667969 0 -0.43694451451301575
vn -0.43694451451301575 0 -0.89948844909667969
vn -0.43694451451301575 0 -0.89948844909667969
vn 0.99971681833267212 0 -0.023797668516635895
vn 0.99971681833267212 0 -0.023797668516635895
vn 0.43694451451301575 0 0.89948844909667969
vn 0.43694451451301575 0 0.89948844909667969
vn 0.023797668516635895 0 0.99971681833267212
vn 0.023797668516635895 0 0.99971681833267212
vn -0.89948844909667969 0 0.43694451451301575
vn -0.89948844909667969 0 0.43694451451301575
vn -0.304486483335495 0 -0.95251667499542236
vn -0.304486483335495 0 -0.95251667499542236
vn -0.95251667499542236 0 0.304486483335495
vn -0.95251667499542236 0 0.304486483335495
vn 0.73995137214660645 0 -0.67266035079956055
vn 0.73995137214660645 0 -0.67266035079956055
vn 0.96592581272125244 0 0.25881901383399963
vn 0.96592581272125244 0 0.25881901383399963
vn 0.67266035079956055 0 0.73995137214660645
vn 0.67266035079956055 0 0.73995137214660645
vn -0.67266035079956055 0 -0.73995137214660645
vn -0.67266035079956055 0 -0.73995137214660645
vn -0.25881901383399963 0 0.96592581272125244
vn -0.25881901383399963 0 0.96592581272125244
vn -0.73995137214660645 0 0.67266035079956055
vn -0.73995137214660645 0 0.67266035079956055
vn 0.85388129949569702 0 0.52046781778335571
vn 0.85388129949569702 0 0.52046781778335571
vn -0.52046781778335571 0 0.85388129949569702
vn -0.52046781778335571 0 0.85388129949569702
vn -0.023797668516635895 0 -0.99971681833267212
vn -0.023797668516635895 0 -0.99971681833267212
vn -0.99971681833267212 0 0.023797668516635895
vn -0.99971681833267212 0 0.023797668516635895
vn 0.52046781778335571 0 -0.85388129949569702
vn 0.52046781778335571 0 -0.85388129949569702
vn -0.85388129949569702 0 -0.52046781778335571
vn -0.85388129949569702 0 -0.52046781778335571
vn 0.25881901383399963 0 -0.96592581272125244
vn 0.25881901383399963 0 -0.96592581272125244
vn -0.96592581272125244 0 -0.25881901383399963
vn -0.96592581272125244 0 -0.25881901383399963
f 2//2 1//1 3//3 4//4
f 4//4 3//3 25//25 26//26
f 26//26 25//25 19//19 20//20
f 20//20 19//19 1//1 2//2
f 10//10 9//9 11//11 12//12
f 12//12 11//11 39//39 40//40
f 40//40 39//39 35//35 36//36
f 36//36 35//35 9//9 10//10
f 30//30 29//29 31//31 32//32
f 32//32 31//31 55//55 56//56
f 56//56 55//55 53//53 54//54
f 54//54 53//53 29//29 30//30
f 46//46 45//45 47//47 48//48
f 48//48 47//47 71//71 72//72
f 72//72 71//71 69//69 70//70
f 70//70 69//69 45//45 46//46
f 66//66 65//65 63//63 64//64
f 64//64 63//63 81//81 82//82
f 82//82 81//81 83//83 84//84
f 84//84 83//83 65//65 66//66
f 88//88 87//87 85//85 86//86
f 86//86 85//85 97//97 98//98
f 98//98 97//97 99//99 100//100
f 100//100 99//99 87//87 88//88
f 104//104 103//103 101//101 102//102
f 102//102 101//101 109//109 110//110
f 110//110 109//109 115//115 116//116
f 116//116 115//115 103//103 104//104
f 120//120 119//119 117//117 118//118
f 118//118 117//117 125//125 126//126
f 126//126 125//125 127//127 128//128
f 128//128 127//127 119//119 120//120
f 136//136 135//135 133//133 134//134
f 134//134 133//133 139//139 140//140
f 140//140 139//139 143//143 144//144
f 144//144 143//143 135//135 136//136
f 156//156 155//155 149//149 150//150
f 150//150 149//149 153//153 154//154
f 154//154 153//153 159//159 160//160
f 160//160 159//159 155//155 156//156
f 172//172 171//171 169//169 170//170
f 170//170 169//169 161//161 162//162
f 162//162 161//161 163//163 164//164
f 164//164 163//163 171//171 172//172
f 176//176 175//175 173//173 174//174
f 174//174 173//173 151//151 152//152
f 152//152 151//151 157//157 158//158
f 158//158 157//157 175//175 176//176
f 168//168 167//167 165//165 166//166
f 166//166 165//165 137//137 138//138
f 138//138 137//137 141//141 142//142
f 142//142 141//141 167//167 168//168
f 148//148 147//147 145//145 146//146
f 146//146 145//145 121//121 122//122
f 122//122 121//121 123//123 124//124
f 124//124 123//123 147//147 148//148
f 132//132 131//131 129//129 130//130
f 130//130 129//129 105//105 106//106
f 106//106 105//105 107//107 108//108
f 108//108 107//107 131//131 132//132
f 112//112 111//111 113//113 114//114
f 114//114 113//113 95//95 96//96
f 96//96 95//95 93//93 94//94
f 94//94 93//93 111//111 112//112
f 90//90 89//89 91//91 92//92
f 92//92 91//91 79//79 80//80
f 80//80 79//79 77//77 78//78
f 78//78 77//77 89//89 90//90
f 74//74 73//73 75//75 76//76
f 76//76 75//75 67//67 68//68
f 68//68 67//67 61//61 62//62
f 62//62 61//61 73//73 74//74
f 58//58 57//57 59//59 60//60
f 60//60 59//59 51//51 52//52
f 52//52 51//51 49//49 50//50
f 50//50 49//49 57//57 58//58
f 42//42 41//41 43//43 44//44
f 44//44 43//43 37//37 38//38
f 38//38 37//37 33//33 34//34
f 34//34 33//33 41//41 42//42
f 22//22 21//21 27//27 28//28
f 28//28 27//27 23//23 24//24
f 24//24 23//23 17//17 18//18
f 18//18 17//17 21//21 22//22
f 6//6 5//5 7//7 8//8
f 8//8 7//7 15//15 16//16
f 16//16 15//15 13//13 14//14
f 14//14 13//13 5//5 6//6
