# Rhino

mtllib Frangisole49.mtl
usemtl diffuse_Black
v 1.3849057174924781 3 -0.10915526749655904
v 1.3849057174924781 0 -0.10915526749655904
v 1.3743073322078141 3 -0.09219430557343064
v 1.3743073322078141 0 -0.09219430557343064
v 1.3595598976570933 3 0.28543931657750876
v 1.3595598976570933 0 0.28543931657750882
v 1.3446123662757057 3 0.29872733018385467
v 1.3446123662757057 0 0.29872733018385467
v 1.298054712448061 3 -0.49490674096942988
v 1.298054712448061 0 -0.49490674096942988
v 1.2926640914048597 3 -0.47564690699380618
v 1.2926640914048597 0 -0.47564690699380618
v 1.2240706205275744 3 0.65690930479544907
v 1.2240706205275744 0 0.65690930479544907
v 1.2059849031455914 3 0.66544785424948594
v 1.2059849031455914 0 0.66544785424948583
v 1.1238349434420802 3 0.020275067436285349
v 1.1238349434420802 0 0.020275067436285321
v 1.1088874120606926 3 0.033563081042631226
v 1.1088874120606926 0 0.033563081042631199
v 1.1062968936856488 3 -0.82056542479062011
v 1.1062968936856488 0 -0.82056542479062011
v 1.106043034429725 3 -0.84056381361267718
v 1.106043034429725 0 -0.84056381361267718
v 1.0840238783240794 3 -0.29716710733900298
v 1.0840238783240794 0 -0.29716710733900298
v 1.0734254930394154 3 -0.28020614541587457
v 1.0734254930394154 0 -0.28020614541587457
v 1.0725995851461647 3 0.33607467682835634
v 1.0725995851461647 0 0.33607467682835646
v 1.0545138677641817 3 0.34461322628239321
v 1.0545138677641817 0 0.34461322628239321
v 0.98941442155119674 3 0.97516040792892733
v 0.98941442155119674 0 0.97516040792892733
v 0.96965571543100371 3 0.97825775073459798
v 0.96965571543100371 0 0.97825775073459798
v 0.95639164552250189 3 -0.59053457039852419
v 0.956391645522502 0 -0.59053457039852419
v 0.95100102447930057 3 -0.5712747364229005
v 0.95100102447930068 0 -0.5712747364229005
v 0.93446858745705941 3 0.6246475146168573
v 0.93446858745705941 0 0.6246475146168573
v 0.91470988133686637 3 0.62774485742252795
v 0.91470988133686637 0 0.62774485742252795
v 0.83030410104098906 3 -1.0990066119613844
v 0.83030410104098906 0 -1.0990066119613844
v 0.82442632765309598 3 -1.1181234051025097
v 0.82442632765309598 0 -1.1181234051025097
v 0.75153210873674026 3 -0.81606204578661956
v 0.75153210873674026 0 -0.81606204578661956
v 0.75127824948081645 3 -0.83606043460867663
v 0.75127824948081645 0 -0.83606043460867663
v 0.72063250231086162 3 0.86261512569290999
v 0.72063250231086151 0 0.86261512569290999
v 0.70080154031276654 3 0.86002033355670604
v 0.70080154031276654 0 0.86002033355670604
v 0.67460175041487758 3 1.2144098143142554
v 0.67460175041487758 0 1.2144098143142554
v 0.65477078841678249 3 1.2118150221780515
v 0.65477078841678249 0 1.2118150221780515
v 0.4911785310778764 3 -0.99473686150856677
v 0.4911785310778764 0 -0.99473686150856677
v 0.48704500813861307 3 -1.2884128194750255
v 0.48704500813861307 0 -1.2884128194750255
v 0.48530075768998332 3 -1.0138536546496921
v 0.48530075768998332 0 -1.0138536546496921
v 0.47601950286217354 3 -1.3050992880468713
v 0.47601950286217354 0 -1.3050992880468713
v 0.44841505759394917 3 1.0306987894550108
v 0.44841505759394917 0 1.0306987894550108
v 0.43011842631976566 3 1.0226220770039842
v 0.43011842631976571 0 1.0226220770039842
v 0.30513685747103386 3 1.3552749599171023
v 0.30513685747103381 0 1.3552749599171023
v 0.28684022619685035 3 1.3471982474660757
v 0.28684022619685035 0 1.3471982474660757
v 0.19103258998228473 3 -1.092824012638995
v 0.1910325899822847 0 -1.092824012638995
v 0.1800070847058452 3 -1.1095104812108407
v 0.18000708470584517 0 -1.1095104812108407
v 0.13986969173780803 3 1.1152813670971911
v 0.139869691737808 0 1.1152813670971911
v 0.12458967543911439 3 1.1023770615400659
v 0.12458967543911439 0 1.1023770615400659
v 0.10432842524504087 3 -1.3734394828408771
v 0.10432842524504087 0 -1.3734394828408771
v 0.089048408946347191 3 -1.3863437883980023
v 0.089048408946347191 0 -1.3863437883980023
v -0.089048408946345858 3 1.3863437883980023
v -0.089048408946345872 0 1.3863437883980023
v -0.10432842524503949 3 1.3734394828408771
v -0.10432842524503949 0 1.3734394828408771
v -0.12458967543911324 3 -1.1023770615400661
v -0.12458967543911327 0 -1.1023770615400661
v -0.13986969173780692 3 -1.1152813670971913
v -0.13986969173780694 0 -1.1152813670971913
v -0.18000708470584403 3 1.1095104812108409
v -0.18000708470584406 0 1.1095104812108409
v -0.19103258998228362 3 1.0928240126389952
v -0.1910325899822837 0 1.0928240126389952
v -0.28684022619684929 3 -1.3471982474660762
v -0.28684022619684929 0 -1.3471982474660762
v -0.3051368574710327 3 -1.3552749599171023
v -0.30513685747103275 0 -1.3552749599171023
v -0.43011842631976499 3 -1.0226220770039842
v -0.43011842631976493 0 -1.0226220770039844
v -0.4484150575939484 3 -1.0306987894550108
v -0.4484150575939484 0 -1.0306987894550108
v -0.47601950286217226 3 1.3050992880468717
v -0.47601950286217215 0 1.3050992880468717
v -0.48530075768998243 3 1.0138536546496926
v -0.48530075768998238 0 1.0138536546496926
v -0.48704500813861185 3 1.2884128194750259
v -0.48704500813861179 0 1.2884128194750259
v -0.4911785310778754 3 0.99473686150856755
v -0.49117853107787546 0 0.99473686150856755
v -0.6547707884167806 3 -1.2118150221780526
v -0.6547707884167806 0 -1.2118150221780526
v -0.67460175041487558 3 -1.2144098143142565
v -0.67460175041487558 0 -1.2144098143142565
v -0.7008015403127652 3 -0.86002033355670748
v -0.7008015403127652 0 -0.86002033355670748
v -0.72063250231086018 3 -0.86261512569291143
v -0.72063250231086018 0 -0.86261512569291143
v -0.75127824948081567 3 0.83606043460867718
v -0.75127824948081567 0 0.83606043460867718
v -0.75153210873673948 3 0.81606204578662012
v -0.75153210873673948 0 0.81606204578662012
v -0.82442632765309487 3 1.1181234051025106
v -0.82442632765309487 0 1.1181234051025106
v -0.83030410104098784 3 1.0990066119613855
v -0.83030410104098795 0 1.0990066119613855
v -0.91470988133686548 3 -0.62774485742252906
v -0.91470988133686548 0 -0.62774485742252906
v -0.93446858745705852 3 -0.62464751461685841
v -0.93446858745705852 0 -0.62464751461685841
v -0.95100102447930024 3 0.57127473642290116
v -0.95100102447930035 0 0.57127473642290105
v -0.95639164552250155 3 0.59053457039852497
v -0.95639164552250167 0 0.59053457039852486
v -0.96965571543100237 3 -0.97825775073459909
v -0.96965571543100237 0 -0.97825775073459909
v -0.98941442155119541 3 -0.97516040792892844
v -0.98941442155119541 0 -0.97516040792892844
v -1.0545138677641812 3 -0.34461322628239521
v -1.0545138677641812 0 -0.34461322628239521
v -1.0725995851461643 3 -0.33607467682835845
v -1.0725995851461643 0 -0.33607467682835834
v -1.0734254930394154 3 0.28020614541587457
v -1.0734254930394154 0 0.28020614541587457
v -1.0840238783240794 3 0.29716710733900298
v -1.0840238783240794 0 0.29716710733900298
v -1.1060430344297241 3 0.84056381361267818
v -1.1060430344297241 0 0.84056381361267818
v -1.1062968936856479 3 0.82056542479062111
v -1.1062968936856479 0 0.82056542479062111
v -1.1088874120606924 3 -0.033563081042633003
v -1.1088874120606924 0 -0.033563081042633031
v -1.12383494344208 3 -0.020275067436287209
v -1.12383494344208 0 -0.020275067436287236
v -1.20598490314559 3 -0.66544785424948794
v -1.2059849031455903 0 -0.66544785424948794
v -1.2240706205275731 3 -0.65690930479545118
v -1.2240706205275731 0 -0.65690930479545118
v -1.2926640914048595 3 0.47564690699380696
v -1.2926640914048595 0 0.47564690699380696
v -1.2980547124480608 3 0.49490674096943077
v -1.2980547124480608 0 0.49490674096943077
v -1.3446123662757052 3 -0.298727330183857
v -1.3446123662757052 0 -0.29872733018385694
v -1.3595598976570928 3 -0.2854393165775112
v -1.3595598976570928 0 -0.28543931657751115
v -1.3743073322078141 3 0.09219430557343064
v -1.3743073322078141 0 0.09219430557343064
v -1.3849057174924781 3 0.10915526749655904
v -1.3849057174924781 0 0.10915526749655904
vn 0.97437006235122681 0 -0.22495104372501373
vn 0.97437006235122681 0 -0.22495104372501373
vn 0.22495104372501373 0 0.97437006235122681
vn 0.22495104372501373 0 0.97437006235122681
vn 0.99827724695205688 0 0.058672796934843063
vn 0.99827724695205688 0 0.058672796934843063
vn -0.058672796934843063 0 0.99827724695205688
vn -0.058672796934843063 0 0.99827724695205688
vn 0.87152516841888428 0 -0.49035075306892395
vn 0.87152516841888428 0 -0.49035075306892395
vn 0.49035075306892395 0 0.87152516841888428
vn 0.49035075306892395 0 0.87152516841888428
vn 0.94130998849868774 0 0.33754333853721619
vn 0.94130998849868774 0 0.33754333853721619
vn -0.33754333853721619 0 0.94130998849868774
vn -0.33754333853721619 0 0.94130998849868774
vn 0.058672796934843063 0 -0.99827724695205688
vn 0.058672796934843063 0 -0.99827724695205688
vn -0.99827724695205688 0 -0.058672796934843063
vn -0.99827724695205688 0 -0.058672796934843063
vn 0.71602511405944824 0 0.69807451963424683
vn 0.71602511405944824 0 0.69807451963424683
vn 0.69807451963424683 0 -0.71602511405944824
vn 0.69807451963424683 0 -0.71602511405944824
vn -0.22495104372501373 0 -0.97437006235122681
vn -0.22495104372501373 0 -0.97437006235122681
vn -0.97437006235122681 0 0.22495104372501373
vn -0.97437006235122681 0 0.22495104372501373
vn 0.33754333853721619 0 -0.94130998849868774
vn 0.33754333853721619 0 -0.94130998849868774
vn -0.94130998849868774 0 -0.33754333853721619
vn -0.94130998849868774 0 -0.33754333853721619
vn 0.80808335542678833 0 0.58906811475753784
vn 0.80808335542678833 0 0.58906811475753784
vn -0.58906811475753784 0 0.80808335542678833
vn -0.58906811475753784 0 0.80808335542678833
vn -0.49035075306892395 0 -0.87152516841888428
vn -0.49035075306892395 0 -0.87152516841888428
vn -0.87152516841888428 0 0.49035075306892395
vn -0.87152516841888428 0 0.49035075306892395
vn 0.58906811475753784 0 -0.80808335542678833
vn 0.58906811475753784 0 -0.80808335542678833
vn -0.80808335542678833 0 -0.58906811475753784
vn -0.80808335542678833 0 -0.58906811475753784
vn 0.88369137048721313 0 0.46807000041007996
vn 0.88369137048721313 0 0.46807000041007996
vn 0.46807000041007996 0 -0.88369137048721313
vn 0.46807000041007996 0 -0.88369137048721313
vn -0.69807451963424683 0 0.71602511405944824
vn -0.69807451963424683 0 0.71602511405944824
vn -0.71602511405944824 0 -0.69807451963424683
vn -0.71602511405944824 0 -0.69807451963424683
vn 0.79287010431289673 0 -0.60939067602157593
vn 0.79287010431289673 0 -0.60939067602157593
vn -0.60939067602157593 0 -0.79287010431289673
vn -0.60939067602157593 0 -0.79287010431289673
vn 0.60939067602157593 0 0.79287010431289673
vn 0.60939067602157593 0 0.79287010431289673
vn -0.79287010431289673 0 0.60939067602157593
vn -0.79287010431289673 0 0.60939067602157593
vn -0.46807000041007996 0 0.88369137048721313
vn -0.46807000041007996 0 0.88369137048721313
vn 0.97976624965667725 0 0.20014527440071106
vn 0.97976624965667725 0 0.20014527440071106
vn -0.88369137048721313 0 -0.46807000041007996
vn -0.88369137048721313 0 -0.46807000041007996
vn 0.20014527440071106 0 -0.97976624965667725
vn 0.20014527440071106 0 -0.97976624965667725
vn 0.93243849277496338 0 -0.36132872104644775
vn 0.93243849277496338 0 -0.36132872104644775
vn -0.36132872104644775 0 -0.93243849277496338
vn -0.36132872104644775 0 -0.93243849277496338
vn 0.36132872104644775 0 0.93243849277496338
vn 0.36132872104644775 0 0.93243849277496338
vn -0.93243849277496338 0 0.36132872104644775
vn -0.93243849277496338 0 0.36132872104644775
vn -0.20014527440071106 0 0.97976624965667725
vn -0.20014527440071106 0 0.97976624965667725
vn -0.97976624965667725 0 -0.20014527440071106
vn -0.97976624965667725 0 -0.20014527440071106
vn 0.99646627902984619 0 -0.083994068205356598
vn 0.99646627902984619 0 -0.083994068205356598
vn -0.083994068205356598 0 -0.99646627902984619
vn -0.083994068205356598 0 -0.99646627902984619
vn 0.99646627902984619 0 -0.083994068205356598
vn 0.99646627902984619 0 -0.083994068205356598
vn -0.083994068205356598 0 -0.99646627902984619
vn -0.083994068205356598 0 -0.99646627902984619
vn 0.083994068205356598 0 0.99646627902984619
vn 0.083994068205356598 0 0.99646627902984619
vn -0.99646627902984619 0 0.083994068205356598
vn -0.99646627902984619 0 0.083994068205356598
vn 0.083994068205356598 0 0.99646627902984619
vn 0.083994068205356598 0 0.99646627902984619
vn -0.99646627902984619 0 0.083994068205356598
vn -0.99646627902984619 0 0.083994068205356598
vn 0.97976624965667725 0 0.20014527440071106
vn 0.97976624965667725 0 0.20014527440071106
vn 0.20014527440071106 0 -0.97976624965667725
vn 0.20014527440071106 0 -0.97976624965667725
vn 0.93243849277496338 0 -0.36132872104644775
vn 0.93243849277496338 0 -0.36132872104644775
vn -0.36132872104644775 0 -0.93243849277496338
vn -0.36132872104644775 0 -0.93243849277496338
vn 0.36132872104644775 0 0.93243849277496338
vn 0.36132872104644775 0 0.93243849277496338
vn -0.93243849277496338 0 0.36132872104644775
vn -0.93243849277496338 0 0.36132872104644775
vn -0.20014527440071106 0 0.97976624965667725
vn -0.20014527440071106 0 0.97976624965667725
vn 0.88369137048721313 0 0.46807000041007996
vn 0.88369137048721313 0 0.46807000041007996
vn -0.97976624965667725 0 -0.20014527440071106
vn -0.97976624965667725 0 -0.20014527440071106
vn 0.46807000041007996 0 -0.88369137048721313
vn 0.46807000041007996 0 -0.88369137048721313
vn 0.79287010431289673 0 -0.60939067602157593
vn 0.79287010431289673 0 -0.60939067602157593
vn -0.60939067602157593 0 -0.79287010431289673
vn -0.60939067602157593 0 -0.79287010431289673
vn 0.60939067602157593 0 0.79287010431289673
vn 0.60939067602157593 0 0.79287010431289673
vn -0.79287010431289673 0 0.60939067602157593
vn -0.79287010431289673 0 0.60939067602157593
vn 0.71602511405944824 0 0.69807451963424683
vn 0.71602511405944824 0 0.69807451963424683
vn 0.69807451963424683 0 -0.71602511405944824
vn 0.69807451963424683 0 -0.71602511405944824
vn -0.46807000041007996 0 0.88369137048721313
vn -0.46807000041007996 0 0.88369137048721313
vn -0.88369137048721313 0 -0.46807000041007996
vn -0.88369137048721313 0 -0.46807000041007996
vn 0.80808335542678833 0 0.58906811475753784
vn 0.80808335542678833 0 0.58906811475753784
vn -0.58906811475753784 0 0.80808335542678833
vn -0.58906811475753784 0 0.80808335542678833
vn 0.87152516841888428 0 -0.49035075306892395
vn 0.87152516841888428 0 -0.49035075306892395
vn 0.49035075306892395 0 0.87152516841888428
vn 0.49035075306892395 0 0.87152516841888428
vn 0.58906811475753784 0 -0.80808335542678833
vn 0.58906811475753784 0 -0.80808335542678833
vn -0.80808335542678833 0 -0.58906811475753784
vn -0.80808335542678833 0 -0.58906811475753784
vn 0.94130998849868774 0 0.33754333853721619
vn 0.94130998849868774 0 0.33754333853721619
vn -0.33754333853721619 0 0.94130998849868774
vn -0.33754333853721619 0 0.94130998849868774
vn 0.97437006235122681 0 -0.22495104372501373
vn 0.97437006235122681 0 -0.22495104372501373
vn 0.22495104372501373 0 0.97437006235122681
vn 0.22495104372501373 0 0.97437006235122681
vn -0.69807451963424683 0 0.71602511405944824
vn -0.69807451963424683 0 0.71602511405944824
vn -0.71602511405944824 0 -0.69807451963424683
vn -0.71602511405944824 0 -0.69807451963424683
vn 0.99827724695205688 0 0.058672796934843063
vn 0.99827724695205688 0 0.058672796934843063
vn -0.058672796934843063 0 0.99827724695205688
vn -0.058672796934843063 0 0.99827724695205688
vn 0.33754333853721619 0 -0.94130998849868774
vn 0.33754333853721619 0 -0.94130998849868774
vn -0.94130998849868774 0 -0.33754333853721619
vn -0.94130998849868774 0 -0.33754333853721619
vn -0.49035075306892395 0 -0.87152516841888428
vn -0.49035075306892395 0 -0.87152516841888428
vn -0.87152516841888428 0 0.49035075306892395
vn -0.87152516841888428 0 0.49035075306892395
vn 0.058672796934843063 0 -0.99827724695205688
vn 0.058672796934843063 0 -0.99827724695205688
vn -0.99827724695205688 0 -0.058672796934843063
vn -0.99827724695205688 0 -0.058672796934843063
vn -0.22495104372501373 0 -0.97437006235122681
vn -0.22495104372501373 0 -0.97437006235122681
vn -0.97437006235122681 0 0.22495104372501373
vn -0.97437006235122681 0 0.22495104372501373
f 2//2 1//1 3//3 4//4
f 4//4 3//3 27//27 28//28
f 28//28 27//27 25//25 26//26
f 26//26 25//25 1//1 2//2
f 10//10 9//9 11//11 12//12
f 12//12 11//11 39//39 40//40
f 40//40 39//39 37//37 38//38
f 38//38 37//37 9//9 10//10
f 24//24 23//23 21//21 22//22
f 22//22 21//21 49//49 50//50
f 50//50 49//49 51//51 52//52
f 52//52 51//51 23//23 24//24
f 48//48 47//47 45//45 46//46
f 46//46 45//45 61//61 62//62
f 62//62 61//61 65//65 66//66
f 66//66 65//65 47//47 48//48
f 68//68 67//67 63//63 64//64
f 64//64 63//63 77//77 78//78
f 78//78 77//77 79//79 80//80
f 80//80 79//79 67//67 68//68
f 88//88 87//87 85//85 86//86
f 86//86 85//85 93//93 94//94
f 94//94 93//93 95//95 96//96
f 96//96 95//95 87//87 88//88
f 104//104 103//103 101//101 102//102
f 102//102 101//101 105//105 106//106
f 106//106 105//105 107//107 108//108
f 108//108 107//107 103//103 104//104
f 120//120 119//119 117//117 118//118
f 118//118 117//117 121//121 122//122
f 122//122 121//121 123//123 124//124
f 124//124 123//123 119//119 120//120
f 144//144 143//143 141//141 142//142
f 142//142 141//141 133//133 134//134
f 134//134 133//133 135//135 136//136
f 136//136 135//135 143//143 144//144
f 164//164 163//163 161//161 162//162
f 162//162 161//161 145//145 146//146
f 146//146 145//145 147//147 148//148
f 148//148 147//147 163//163 164//164
f 172//172 171//171 169//169 170//170
f 170//170 169//169 157//157 158//158
f 158//158 157//157 159//159 160//160
f 160//160 159//159 171//171 172//172
f 176//176 175//175 173//173 174//174
f 174//174 173//173 149//149 150//150
f 150//150 149//149 151//151 152//152
f 152//152 151//151 175//175 176//176
f 168//168 167//167 165//165 166//166
f 166//166 165//165 137//137 138//138
f 138//138 137//137 139//139 140//140
f 140//140 139//139 167//167 168//168
f 154//154 153//153 155//155 156//156
f 156//156 155//155 127//127 128//128
f 128//128 127//127 125//125 126//126
f 126//126 125//125 153//153 154//154
f 130//130 129//129 131//131 132//132
f 132//132 131//131 115//115 116//116
f 116//116 115//115 111//111 112//112
f 112//112 111//111 129//129 130//130
f 110//110 109//109 113//113 114//114
f 114//114 113//113 99//99 100//100
f 100//100 99//99 97//97 98//98
f 98//98 97//97 109//109 110//110
f 90//90 89//89 91//91 92//92
f 92//92 91//91 83//83 84//84
f 84//84 83//83 81//81 82//82
f 82//82 81//81 89//89 90//90
f 74//74 73//73 75//75 76//76
f 76//76 75//75 71//71 72//72
f 72//72 71//71 69//69 70//70
f 70//70 69//69 73//73 74//74
f 58//58 57//57 59//59 60//60
f 60//60 59//59 55//55 56//56
f 56//56 55//55 53//53 54//54
f 54//54 53//53 57//57 58//58
f 34//34 33//33 35//35 36//36
f 36//36 35//35 43//43 44//44
f 44//44 43//43 41//41 42//42
f 42//42 41//41 33//33 34//34
f 14//14 13//13 15//15 16//16
f 16//16 15//15 31//31 32//32
f 32//32 31//31 29//29 30//30
f 30//30 29//29 13//13 14//14
f 6//6 5//5 7//7 8//8
f 8//8 7//7 19//19 20//20
f 20//20 19//19 17//17 18//18
f 18//18 17//17 5//5 6//6
