# Rhino

mtllib Frangisole2.mtl
usemtl diffuse_Black
v 1.2728307600346405 3 -0.022451389774646169
v 1.2728307600346405 0 -0.022451389774646197
v 1.2607622812455486 3 -0.016183987176353581
v 1.2607622812455486 0 -0.016183987176353581
v 1.2531982163656874 3 -0.01863520986711531
v 1.2531982163656874 0 -0.018635209867115338
v 1.2408498514182926 3 -0.018053516094184041
v 1.2408498514182926 0 -0.018053516094184069
v 1.2275974582994935 3 0.33705591371432397
v 1.2275974582994935 0 0.33705591371432408
v 1.2149468834077832 3 -0.38013981518763301
v 1.2149468834077832 0 -0.38013981518763296
v 1.2142521063403717 3 0.33966935908376328
v 1.2142521063403717 0 0.33966935908376333
v 1.2076850284722376 3 0.33518638479649354
v 1.2076850284722376 0 0.33518638479649354
v 1.2051329941662061 3 -0.37072620304531839
v 1.2051329941662061 0 -0.37072620304531834
v 1.1971847378259586 3 -0.37094709065515313
v 1.1971847378259586 0 -0.37094709065515308
v 1.1956729769956373 3 0.33226557945497748
v 1.1956729769956373 0 0.33226557945497753
v 1.1855004504972531 3 -0.36691002313778753
v 1.1855004504972531 0 -0.36691002313778753
v 1.082911511296119 3 0.6692569516228648
v 1.082911511296119 0 0.66925695162286469
v 1.0693704472148311 3 0.66800471396237582
v 1.0693704472148311 0 0.66800471396237582
v 1.0643323819513846 3 0.661853171994079
v 1.0643323819513846 0 0.66185317199407889
v 1.0586352358545599 3 -0.70703157355264845
v 1.0586352358545599 0 -0.70703157355264845
v 1.0536297889177919 3 0.65566649381618614
v 1.0536297889177919 0 0.65566649381618614
v 1.0518709991014032 3 -0.69523438673717752
v 1.0518709991014032 0 -0.69523438673717752
v 1.0441824717593557 3 -0.69320704426560331
v 1.0441824717593557 0 -0.69320704426560331
v 1.0341088535195786 3 -0.68604166220469764
v 1.0341088535195786 0 -0.68604166220469764
v 0.85049451397027132 3 0.94723877153526914
v 0.85049451397027132 0 0.94723877153526914
v 0.83785475424687528 3 0.94222229969275906
v 0.83785475424687539 0 0.94222229969275906
v 0.83475385567323213 3 0.93490055138907946
v 0.83475385567323213 0 0.93490055138907946
v 0.82622778151945808 3 0.92594920824718907
v 0.82622778151945808 0 0.92594920824718907
v 0.81655925743856927 3 -0.97664383870710314
v 0.81655925743856916 0 -0.97664383870710314
v 0.81339267140710936 3 -0.96341881513369343
v 0.81339267140710936 0 -0.96341881513369343
v 0.80658675182308159 3 -0.95930748581068748
v 0.80658675182308159 0 -0.95930748581068748
v 0.79893990731190523 3 -0.94959428584664829
v 0.79893990731190523 0 -0.94959428584664829
v 0.54917550920818625 3 1.1484809396237723
v 0.54917550920818614 0 1.1484809396237723
v 0.5384610520039248 3 1.1401066383138159
v 0.5384610520039248 0 1.1401066383138159
v 0.53754853648076883 3 1.1322078481782023
v 0.53754853648076883 0 1.1322078481782023
v 0.53188971302823529 3 1.1212170246579845
v 0.53188971302823518 0 1.1212170246579845
v 0.50901810690789073 3 -1.1535527808003891
v 0.50901810690789073 0 -1.1535527808003891
v 0.50833050424979787 3 -1.1671342283740633
v 0.50833050424979787 0 -1.1671342283740633
v 0.50364617021021862 3 -1.1476905400766844
v 0.50364617021021862 0 -1.1476905400766844
v 0.499045601292403 3 -1.1362164279039735
v 0.49904560129240311 0 -1.1362164279039735
v 0.20336557076256431 3 1.2566800122631019
v 0.20336557076256434 0 1.2566800122631019
v 0.1967942317868748 3 1.2377903986072705
v 0.19679423178687483 0 1.2377903986072705
v 0.19544443767879796 3 1.245626317573943
v 0.19544443767879796 0 1.245626317573943
v 0.194461103257389 3 1.2256505058653877
v 0.19446110325738897 0 1.2256505058653877
v 0.16340592263423956 3 -1.2502327606091821
v 0.16340592263423956 0 -1.2502327606091821
v 0.15990317118603056 3 -1.2430945323641251
v 0.15990317118603056 0 -1.2430945323641251
v 0.1589198367646216 3 -1.2630703440726805
v 0.1589198367646216 0 -1.2630703440726805
v 0.15872158859466043 3 -1.2307890723118031
v 0.15872158859466043 0 -1.2307890723118031
v -0.15872158859465926 3 1.2307890723118031
v -0.15872158859465926 0 1.2307890723118031
v -0.1589198367646204 3 1.2630703440726807
v -0.15891983676462038 0 1.2630703440726807
v -0.15990317118602937 3 1.2430945323641254
v -0.15990317118602937 0 1.2430945323641254
v -0.16340592263423839 3 1.2502327606091821
v -0.16340592263423834 0 1.2502327606091821
v -0.19446110325738775 3 -1.2256505058653879
v -0.19446110325738775 0 -1.2256505058653879
v -0.19544443767879671 3 -1.2456263175739433
v -0.19544443767879671 0 -1.2456263175739433
v -0.196794231786874 3 -1.2377903986072705
v -0.19679423178687397 0 -1.2377903986072705
v -0.20336557076256356 3 -1.2566800122631021
v -0.20336557076256348 0 -1.2566800122631021
v -0.49904560129240211 3 1.1362164279039741
v -0.499045601292402 0 1.1362164279039741
v -0.50364617021021751 3 1.1476905400766848
v -0.50364617021021763 0 1.1476905400766848
v -0.50833050424979664 3 1.1671342283740638
v -0.50833050424979664 0 1.1671342283740638
v -0.50901810690788984 3 1.1535527808003896
v -0.50901810690788984 0 1.1535527808003896
v -0.53188971302823429 3 -1.1212170246579849
v -0.53188971302823429 0 -1.1212170246579847
v -0.53754853648076684 3 -1.1322078481782036
v -0.53754853648076695 0 -1.1322078481782036
v -0.5384610520039238 3 -1.1401066383138165
v -0.5384610520039238 0 -1.1401066383138163
v -0.54917550920818414 3 -1.1484809396237736
v -0.54917550920818425 0 -1.1484809396237736
v -0.79893990731190423 3 0.94959428584664907
v -0.79893990731190423 0 0.94959428584664907
v -0.80658675182308037 3 0.95930748581068859
v -0.80658675182308026 0 0.95930748581068859
v -0.81339267140710825 3 0.96341881513369421
v -0.81339267140710825 0 0.96341881513369421
v -0.81655925743856805 3 0.97664383870710403
v -0.81655925743856805 0 0.97664383870710403
v -0.82622778151945653 3 -0.92594920824719062
v -0.82622778151945653 0 -0.92594920824719062
v -0.83475385567323079 3 -0.93490055138908035
v -0.83475385567323079 0 -0.93490055138908035
v -0.83785475424687383 3 -0.94222229969276061
v -0.83785475424687383 0 -0.94222229969276061
v -0.85049451397027009 3 -0.94723877153527014
v -0.85049451397027009 0 -0.94723877153527014
v -1.0341088535195784 3 0.68604166220469831
v -1.0341088535195784 0 0.68604166220469831
v -1.0441824717593549 3 0.69320704426560431
v -1.0441824717593549 0 0.69320704426560442
v -1.0518709991014028 3 0.69523438673717819
v -1.0518709991014028 0 0.69523438673717819
v -1.053629788917791 3 -0.65566649381618736
v -1.053629788917791 0 -0.65566649381618736
v -1.058635235854559 3 0.70703157355264956
v -1.058635235854559 0 0.70703157355264956
v -1.0643323819513835 3 -0.66185317199408067
v -1.0643323819513835 0 -0.66185317199408067
v -1.0693704472148302 3 -0.66800471396237715
v -1.0693704472148302 0 -0.66800471396237715
v -1.0829115112961178 3 -0.66925695162286647
v -1.0829115112961178 0 -0.66925695162286647
v -1.1855004504972531 3 0.36691002313778759
v -1.1855004504972531 0 0.36691002313778753
v -1.1956729769956367 3 -0.3322655794549797
v -1.1956729769956367 0 -0.3322655794549797
v -1.1971847378259586 3 0.37094709065515385
v -1.1971847378259586 0 0.37094709065515385
v -1.2051329941662061 3 0.37072620304531845
v -1.2051329941662061 0 0.37072620304531845
v -1.2076850284722367 3 -0.33518638479649565
v -1.2076850284722367 0 -0.33518638479649565
v -1.2142521063403711 3 -0.3396693590837655
v -1.2142521063403711 0 -0.3396693590837655
v -1.214946883407783 3 0.38013981518763362
v -1.214946883407783 0 0.38013981518763362
v -1.2275974582994926 3 -0.33705591371432619
v -1.2275974582994926 0 -0.33705591371432608
v -1.2408498514182926 3 0.01805351609418207
v -1.2408498514182926 0 0.018053516094182015
v -1.2531982163656874 3 0.018635209867115282
v -1.2531982163656874 0 0.01863520986711531
v -1.2607622812455486 3 0.016183987176351555
v -1.2607622812455486 0 0.016183987176351528
v -1.2728307600346405 3 0.022451389774646141
v -1.2728307600346405 0 0.022451389774646169
vn 0.82903754711151123 0 0.55919289588928223
vn 0.82903754711151123 0 0.55919289588928223
vn 0.77010858058929443 0 -0.63791286945343018
vn 0.77010858058929443 0 -0.63791286945343018
vn -0.55919289588928223 0 0.82903754711151123
vn -0.55919289588928223 0 0.82903754711151123
vn -0.63791286945343018 0 -0.77010858058929443
vn -0.63791286945343018 0 -0.77010858058929443
vn 0.63791286945343018 0 0.77010858058929443
vn 0.63791286945343018 0 0.77010858058929443
vn 0.9529985785484314 0 0.30297479033470154
vn 0.9529985785484314 0 0.30297479033470154
vn 0.91863459348678589 0 -0.39510825276374817
vn 0.91863459348678589 0 -0.39510825276374817
vn -0.77010858058929443 0 0.63791286945343018
vn -0.77010858058929443 0 0.63791286945343018
vn 0.55919289588928223 0 -0.82903754711151123
vn 0.55919289588928223 0 -0.82903754711151123
vn -0.30297479033470154 0 0.9529985785484314
vn -0.30297479033470154 0 0.9529985785484314
vn -0.39510825276374817 0 -0.91863459348678589
vn -0.39510825276374817 0 -0.91863459348678589
vn -0.82903754711151123 0 -0.55919289588928223
vn -0.82903754711151123 0 -0.55919289588928223
vn 0.39510825276374817 0 0.91863459348678589
vn 0.39510825276374817 0 0.91863459348678589
vn 0.99273824691772461 0 -0.12029435485601425
vn 0.99273824691772461 0 -0.12029435485601425
vn -0.91863459348678589 0 0.39510825276374817
vn -0.91863459348678589 0 0.39510825276374817
vn 0.99975329637527466 0 0.022211432456970215
vn 0.99975329637527466 0 0.022211432456970215
vn -0.12029435485601425 0 -0.99273824691772461
vn -0.12029435485601425 0 -0.99273824691772461
vn 0.30297479033470154 0 -0.9529985785484314
vn 0.30297479033470154 0 -0.9529985785484314
vn -0.022211432456970215 0 0.99975329637527466
vn -0.022211432456970215 0 0.99975329637527466
vn -0.9529985785484314 0 -0.30297479033470154
vn -0.9529985785484314 0 -0.30297479033470154
vn 0.12029435485601425 0 0.99273824691772461
vn 0.12029435485601425 0 0.99273824691772461
vn 0.98641622066497803 0 0.16426509618759155
vn 0.98641622066497803 0 0.16426509618759155
vn -0.99273824691772461 0 0.12029435485601425
vn -0.99273824691772461 0 0.12029435485601425
vn 0.16426509618759155 0 -0.98641622066497803
vn 0.16426509618759155 0 -0.98641622066497803
vn 0.96551394462585449 0 -0.26035130023956299
vn 0.96551394462585449 0 -0.26035130023956299
vn 0.022211432456970215 0 -0.99975329637527466
vn 0.022211432456970215 0 -0.99975329637527466
vn 0.26035130023956299 0 0.96551394462585449
vn 0.26035130023956299 0 0.96551394462585449
vn -0.99975329637527466 0 -0.022211432456970215
vn -0.99975329637527466 0 -0.022211432456970215
vn -0.16426509618759155 0 0.98641622066497803
vn -0.16426509618759155 0 0.98641622066497803
vn 0.90018057823181152 0 0.43551680445671082
vn 0.90018057823181152 0 0.43551680445671082
vn -0.98641622066497803 0 -0.16426509618759155
vn -0.98641622066497803 0 -0.16426509618759155
vn 0.43551680445671082 0 -0.90018057823181152
vn 0.43551680445671082 0 -0.90018057823181152
vn -0.26035130023956299 0 -0.96551394462585449
vn -0.26035130023956299 0 -0.96551394462585449
vn 0.85305440425872803 0 -0.52182197570800781
vn 0.85305440425872803 0 -0.52182197570800781
vn 0.52182197570800781 0 0.85305440425872803
vn 0.52182197570800781 0 0.85305440425872803
vn -0.96551394462585449 0 0.26035130023956299
vn -0.96551394462585449 0 0.26035130023956299
vn -0.43551680445671082 0 0.90018057823181152
vn -0.43551680445671082 0 0.90018057823181152
vn -0.90018057823181152 0 -0.43551680445671082
vn -0.90018057823181152 0 -0.43551680445671082
vn 0.74101775884628296 0 0.67148548364639282
vn 0.74101775884628296 0 0.67148548364639282
vn 0.67148548364639282 0 -0.74101775884628296
vn 0.67148548364639282 0 -0.74101775884628296
vn -0.52182197570800781 0 -0.85305440425872803
vn -0.52182197570800781 0 -0.85305440425872803
vn 0.74101775884628296 0 0.67148548364639282
vn 0.74101775884628296 0 0.67148548364639282
vn 0.67148548364639282 0 -0.74101775884628296
vn 0.67148548364639282 0 -0.74101775884628296
vn -0.85305440425872803 0 0.52182197570800781
vn -0.85305440425872803 0 0.52182197570800781
vn 0.85305440425872803 0 -0.52182197570800781
vn 0.85305440425872803 0 -0.52182197570800781
vn -0.67148548364639282 0 0.74101775884628296
vn -0.67148548364639282 0 0.74101775884628296
vn -0.74101775884628296 0 -0.67148548364639282
vn -0.74101775884628296 0 -0.67148548364639282
vn 0.52182197570800781 0 0.85305440425872803
vn 0.52182197570800781 0 0.85305440425872803
vn -0.67148548364639282 0 0.74101775884628296
vn -0.67148548364639282 0 0.74101775884628296
vn -0.74101775884628296 0 -0.67148548364639282
vn -0.74101775884628296 0 -0.67148548364639282
vn 0.90018057823181152 0 0.43551680445671082
vn 0.90018057823181152 0 0.43551680445671082
vn 0.43551680445671082 0 -0.90018057823181152
vn 0.43551680445671082 0 -0.90018057823181152
vn 0.96551394462585449 0 -0.26035130023956299
vn 0.96551394462585449 0 -0.26035130023956299
vn -0.52182197570800781 0 -0.85305440425872803
vn -0.52182197570800781 0 -0.85305440425872803
vn -0.85305440425872803 0 0.52182197570800781
vn -0.85305440425872803 0 0.52182197570800781
vn 0.26035130023956299 0 0.96551394462585449
vn 0.26035130023956299 0 0.96551394462585449
vn -0.43551680445671082 0 0.90018057823181152
vn -0.43551680445671082 0 0.90018057823181152
vn 0.98641622066497803 0 0.16426509618759155
vn 0.98641622066497803 0 0.16426509618759155
vn -0.90018057823181152 0 -0.43551680445671082
vn -0.90018057823181152 0 -0.43551680445671082
vn 0.16426509618759155 0 -0.98641622066497803
vn 0.16426509618759155 0 -0.98641622066497803
vn 0.99975329637527466 0 0.022211432456970215
vn 0.99975329637527466 0 0.022211432456970215
vn -0.26035130023956299 0 -0.96551394462585449
vn -0.26035130023956299 0 -0.96551394462585449
vn -0.022211432456970215 0 0.99975329637527466
vn -0.022211432456970215 0 0.99975329637527466
vn -0.96551394462585449 0 0.26035130023956299
vn -0.96551394462585449 0 0.26035130023956299
vn -0.16426509618759155 0 0.98641622066497803
vn -0.16426509618759155 0 0.98641622066497803
vn 0.99273824691772461 0 -0.12029435485601425
vn 0.99273824691772461 0 -0.12029435485601425
vn -0.98641622066497803 0 -0.16426509618759155
vn -0.98641622066497803 0 -0.16426509618759155
vn -0.12029435485601425 0 -0.99273824691772461
vn -0.12029435485601425 0 -0.99273824691772461
vn 0.9529985785484314 0 0.30297479033470154
vn 0.9529985785484314 0 0.30297479033470154
vn 0.022211432456970215 0 -0.99975329637527466
vn 0.022211432456970215 0 -0.99975329637527466
vn -0.30297479033470154 0 0.9529985785484314
vn -0.30297479033470154 0 0.9529985785484314
vn 0.12029435485601425 0 0.99273824691772461
vn 0.12029435485601425 0 0.99273824691772461
vn -0.99975329637527466 0 -0.022211432456970215
vn -0.99975329637527466 0 -0.022211432456970215
vn 0.91863459348678589 0 -0.39510825276374817
vn 0.91863459348678589 0 -0.39510825276374817
vn -0.99273824691772461 0 0.12029435485601425
vn -0.99273824691772461 0 0.12029435485601425
vn -0.39510825276374817 0 -0.91863459348678589
vn -0.39510825276374817 0 -0.91863459348678589
vn 0.82903754711151123 0 0.55919289588928223
vn 0.82903754711151123 0 0.55919289588928223
vn 0.39510825276374817 0 0.91863459348678589
vn 0.39510825276374817 0 0.91863459348678589
vn 0.30297479033470154 0 -0.9529985785484314
vn 0.30297479033470154 0 -0.9529985785484314
vn -0.55919289588928223 0 0.82903754711151123
vn -0.55919289588928223 0 0.82903754711151123
vn 0.77010858058929443 0 -0.63791286945343018
vn 0.77010858058929443 0 -0.63791286945343018
vn -0.91863459348678589 0 0.39510825276374817
vn -0.91863459348678589 0 0.39510825276374817
vn -0.9529985785484314 0 -0.30297479033470154
vn -0.9529985785484314 0 -0.30297479033470154
vn -0.63791286945343018 0 -0.77010858058929443
vn -0.63791286945343018 0 -0.77010858058929443
vn 0.63791286945343018 0 0.77010858058929443
vn 0.63791286945343018 0 0.77010858058929443
vn 0.55919289588928223 0 -0.82903754711151123
vn 0.55919289588928223 0 -0.82903754711151123
vn -0.77010858058929443 0 0.63791286945343018
vn -0.77010858058929443 0 0.63791286945343018
vn -0.82903754711151123 0 -0.55919289588928223
vn -0.82903754711151123 0 -0.55919289588928223
f 2//2 1//1 5//5 6//6
f 6//6 5//5 23//23 24//24
f 24//24 23//23 17//17 18//18
f 18//18 17//17 1//1 2//2
f 12//12 11//11 19//19 20//20
f 20//20 19//19 39//39 40//40
f 40//40 39//39 35//35 36//36
f 36//36 35//35 11//11 12//12
f 32//32 31//31 37//37 38//38
f 38//38 37//37 55//55 56//56
f 56//56 55//55 51//51 52//52
f 52//52 51//51 31//31 32//32
f 50//50 49//49 53//53 54//54
f 54//54 53//53 71//71 72//72
f 72//72 71//71 65//65 66//66
f 66//66 65//65 49//49 50//50
f 68//68 67//67 69//69 70//70
f 70//70 69//69 87//87 88//88
f 88//88 87//87 81//81 82//82
f 82//82 81//81 67//67 68//68
f 86//86 85//85 83//83 84//84
f 84//84 83//83 97//97 98//98
f 98//98 97//97 99//99 100//100
f 100//100 99//99 85//85 86//86
f 104//104 103//103 101//101 102//102
f 102//102 101//101 113//113 114//114
f 114//114 113//113 117//117 118//118
f 118//118 117//117 103//103 104//104
f 120//120 119//119 115//115 116//116
f 116//116 115//115 129//129 130//130
f 130//130 129//129 133//133 134//134
f 134//134 133//133 119//119 120//120
f 136//136 135//135 131//131 132//132
f 132//132 131//131 143//143 144//144
f 144//144 143//143 149//149 150//150
f 150//150 149//149 135//135 136//136
f 152//152 151//151 147//147 148//148
f 148//148 147//147 155//155 156//156
f 156//156 155//155 163//163 164//164
f 164//164 163//163 151//151 152//152
f 168//168 167//167 161//161 162//162
f 162//162 161//161 169//169 170//170
f 170//170 169//169 173//173 174//174
f 174//174 173//173 167//167 168//168
f 176//176 175//175 171//171 172//172
f 172//172 171//171 153//153 154//154
f 154//154 153//153 159//159 160//160
f 160//160 159//159 175//175 176//176
f 166//166 165//165 157//157 158//158
f 158//158 157//157 137//137 138//138
f 138//138 137//137 141//141 142//142
f 142//142 141//141 165//165 166//166
f 146//146 145//145 139//139 140//140
f 140//140 139//139 121//121 122//122
f 122//122 121//121 125//125 126//126
f 126//126 125//125 145//145 146//146
f 128//128 127//127 123//123 124//124
f 124//124 123//123 105//105 106//106
f 106//106 105//105 111//111 112//112
f 112//112 111//111 127//127 128//128
f 110//110 109//109 107//107 108//108
f 108//108 107//107 89//89 90//90
f 90//90 89//89 95//95 96//96
f 96//96 95//95 109//109 110//110
f 92//92 91//91 93//93 94//94
f 94//94 93//93 79//79 80//80
f 80//80 79//79 77//77 78//78
f 78//78 77//77 91//91 92//92
f 74//74 73//73 75//75 76//76
f 76//76 75//75 63//63 64//64
f 64//64 63//63 59//59 60//60
f 60//60 59//59 73//73 74//74
f 58//58 57//57 61//61 62//62
f 62//62 61//61 47//47 48//48
f 48//48 47//47 43//43 44//44
f 44//44 43//43 57//57 58//58
f 42//42 41//41 45//45 46//46
f 46//46 45//45 33//33 34//34
f 34//34 33//33 27//27 28//28
f 28//28 27//27 41//41 42//42
f 26//26 25//25 29//29 30//30
f 30//30 29//29 21//21 22//22
f 22//22 21//21 13//13 14//14
f 14//14 13//13 25//25 26//26
f 10//10 9//9 15//15 16//16
f 16//16 15//15 7//7 8//8
f 8//8 7//7 3//3 4//4
f 4//4 3//3 9//9 10//10
