# Rhino

mtllib Frangisole86.mtl
usemtl diffuse_Black
v 1.4101130803133817 3 0.18465061786627512
v 1.4101130803133817 0 0.1846506178662751
v 1.4067587981113543 3 -0.20017989917412973
v 1.4067587981113543 0 -0.20017989917412973
v 1.4061723771808072 3 0.20425854633465004
v 1.4061723771808072 0 0.20425854633465004
v 1.4050156832564014 3 -0.22010379313596443
v 1.4050156832564011 0 -0.22010379313596443
v 1.30097150186877 3 0.57444573396849963
v 1.30097150186877 0 0.57444573396849963
v 1.2933779875356326 3 -0.58840095976752438
v 1.2933779875356326 0 -0.58840095976752438
v 1.2916662330802049 3 0.59214917919174781
v 1.2916662330802049 0 0.5921491791917477
v 1.2860922714919967 3 -0.60702670382599089
v 1.2860922714919967 0 -0.60702670382599089
v 1.086432949518187 3 0.91770267306492237
v 1.086432949518187 0 0.91770267306492226
v 1.0752153844248427 3 -0.92895327395580274
v 1.0752153844248427 0 -0.92895327395580274
v 1.0725169726103165 3 0.93206740719749892
v 1.0725169726103165 0 0.93206740719749881
v 1.0629773125765578 3 -0.94477192109884922
v 1.0629773125765578 0 -0.94477192109884911
v 1.0622749325369787 3 0.11474385128549035
v 1.0622749325369787 0 0.11474385128549035
v 1.0583342294044042 3 0.13435177975386525
v 1.0583342294044042 0 0.13435177975386531
v 1.0533155272754928 3 -0.169257619776469
v 1.0533155272754928 0 -0.169257619776469
v 1.0515724124205397 3 -0.18918151373830369
v 1.0515724124205397 0 -0.18918151373830369
v 0.98691825521155152 3 0.40937335188609486
v 0.98691825521155152 0 0.40937335188609486
v 0.97761298642298644 3 0.42707679710934299
v 0.97761298642298644 0 0.42707679710934299
v 0.96296346543536582 3 -0.45915477356633949
v 0.96296346543536582 0 -0.45915477356633944
v 0.95567774939172989 3 -0.477780517624806
v 0.95567774939172989 0 -0.47778051762480594
v 0.83160733027774669 3 0.6708378581539568
v 0.83160733027774669 0 0.6708378581539568
v 0.81769135336987631 3 0.68520259228653335
v 0.81769135336987631 0 0.68520259228653335
v 0.79459783058990785 3 -0.71185393830044741
v 0.79459783058990785 0 -0.71185393830044752
v 0.78387806086317935 3 1.1866127993775697
v 0.78387806086317935 0 1.1866127993775699
v 0.782359758741623 3 -0.72767258544349389
v 0.782359758741623 0 -0.72767258544349389
v 0.7699452254200615 3 -1.1942473185860274
v 0.7699452254200615 0 -1.1942473185860276
v 0.76647876552357785 3 1.1964750770904167
v 0.76647876552357785 0 1.1964750770904167
v 0.75374625356565994 3 -1.2059773360992412
v 0.75374625356565994 0 -1.2059773360992412
v 0.60892452520406615 3 0.87795507078054502
v 0.60892452520406626 0 0.87795507078054524
v 0.59152522986446465 3 0.887817348493392
v 0.59152522986446465 0 0.887817348493392
v 0.56185860516531272 3 -0.90688293051183511
v 0.56185860516531272 0 -0.90688293051183522
v 0.54565963331091116 3 -0.91861294802504889
v 0.54565963331091116 0 -0.918612948025049
v 0.41781803361936765 3 1.3593906137426932
v 0.41781803361936765 0 1.3593906137426932
v 0.40229868329231644 3 -1.3627905479266924
v 0.40229868329231644 0 -1.3627905479266924
v 0.39834500727885602 3 1.3639514519487397
v 0.39834500727885602 0 1.3639514519487397
v 0.38345115579244665 3 -1.3694816395522531
v 0.38345115579244671 0 -1.3694816395522533
v 0.33691027651194327 3 1.0139455849723473
v 0.33691027651194327 0 1.0139455849723473
v 0.31743725017143165 3 1.0185064231783938
v 0.31743725017143165 0 1.0185064231783938
v 0.28360093705201184 3 -1.0284416611336133
v 0.28360093705201184 0 -1.0284416611336133
v 0.26475340955214205 3 -1.035132752759174
v 0.2647534095521421 0 -1.035132752759174
v 0.037601560899388667 3 1.0677922580362713
v 0.037601560899388667 0 1.0677922580362713
v 0.017908874151240019 3 1.422038685189656
v 0.017908874151240015 0 1.422038685189656
v 0.017632392341528198 3 1.0666821647484124
v 0.017632392341528205 0 1.0666821647484124
v 0.0020602944066218428 3 -1.4209285919017973
v 0.0020602944066218359 0 -1.4209285919017973
v -0.0020602944066204516 3 1.4209285919017971
v -0.0020602944066204516 0 1.4209285919017971
v -0.017632392341527157 3 -1.0666821647484126
v -0.017632392341527164 0 -1.0666821647484126
v -0.017908874151238627 3 -1.4220386851896563
v -0.017908874151238624 0 -1.4220386851896563
v -0.037601560899387626 3 -1.0677922580362715
v -0.037601560899387626 0 -1.0677922580362715
v -0.26475340955214111 3 1.0351327527591743
v -0.26475340955214116 0 1.0351327527591743
v -0.28360093705201084 3 1.0284416611336136
v -0.28360093705201084 0 1.0284416611336136
v -0.31743725017143076 3 -1.0185064231783938
v -0.31743725017143082 0 -1.0185064231783938
v -0.3369102765119425 3 -1.0139455849723473
v -0.3369102765119425 0 -1.0139455849723473
v -0.38345115579244538 3 1.3694816395522535
v -0.38345115579244538 0 1.3694816395522535
v -0.39834500727885491 3 -1.3639514519487399
v -0.39834500727885491 0 -1.3639514519487399
v -0.40229868329231511 3 1.3627905479266929
v -0.40229868329231505 0 1.3627905479266929
v -0.41781803361936659 3 -1.3593906137426934
v -0.41781803361936659 0 -1.3593906137426934
v -0.54565963331091027 3 0.91861294802504967
v -0.54565963331091039 0 0.91861294802504967
v -0.56185860516531194 3 0.90688293051183588
v -0.56185860516531194 0 0.90688293051183588
v -0.59152522986446343 3 -0.88781734849339322
v -0.59152522986446343 0 -0.88781734849339322
v -0.60892452520406481 3 -0.87795507078054624
v -0.60892452520406481 0 -0.87795507078054624
v -0.75374625356565872 3 1.2059773360992421
v -0.75374625356565872 0 1.2059773360992421
v -0.76647876552357586 3 -1.196475077090418
v -0.76647876552357586 0 -1.196475077090418
v -0.76994522542006039 3 1.1942473185860283
v -0.76994522542006028 0 1.1942473185860283
v -0.78235975874162222 3 0.72767258544349467
v -0.78235975874162222 0 0.72767258544349467
v -0.78387806086317724 3 -1.186612799377571
v -0.78387806086317724 0 -1.186612799377571
v -0.79459783058990707 3 0.7118539383004483
v -0.79459783058990707 0 0.7118539383004483
v -0.81769135336987542 3 -0.68520259228653435
v -0.81769135336987542 0 -0.68520259228653435
v -0.8316073302777458 3 -0.67083785815395791
v -0.8316073302777458 0 -0.67083785815395791
v -0.95567774939172967 3 0.47778051762480656
v -0.95567774939172967 0 0.47778051762480656
v -0.9629634654353656 3 0.45915477356634005
v -0.9629634654353656 0 0.45915477356634005
v -0.97761298642298577 3 -0.42707679710934476
v -0.97761298642298577 0 -0.42707679710934476
v -0.98691825521155085 3 -0.40937335188609658
v -0.98691825521155085 0 -0.40937335188609658
v -1.0515724124205397 3 0.18918151373830369
v -1.0515724124205397 0 0.18918151373830369
v -1.0533155272754928 3 0.169257619776469
v -1.0533155272754928 0 0.169257619776469
v -1.0583342294044036 3 -0.13435177975386703
v -1.0583342294044038 0 -0.13435177975386703
v -1.0622749325369782 3 -0.11474385128549208
v -1.0622749325369785 0 -0.1147438512854921
v -1.0629773125765567 3 0.94477192109885011
v -1.0629773125765567 0 0.94477192109885011
v -1.0725169726103152 3 -0.93206740719750014
v -1.0725169726103152 0 -0.93206740719750014
v -1.0752153844248415 3 0.92895327395580374
v -1.0752153844248415 0 0.92895327395580374
v -1.0864329495181857 3 -0.9177026730649237
v -1.0864329495181857 0 -0.9177026730649237
v -1.286092271491996 3 0.60702670382599155
v -1.286092271491996 0 0.60702670382599166
v -1.2916662330802038 3 -0.59214917919175003
v -1.2916662330802038 0 -0.59214917919174992
v -1.2933779875356319 3 0.58840095976752504
v -1.2933779875356319 0 0.58840095976752516
v -1.3009715018687689 3 -0.57444573396850185
v -1.3009715018687689 0 -0.57444573396850185
v -1.4050156832564014 3 0.22010379313596443
v -1.4050156832564011 0 0.22010379313596443
v -1.4061723771808068 3 -0.20425854633465243
v -1.4061723771808068 0 -0.2042585463346524
v -1.4067587981113543 3 0.20017989917412973
v -1.4067587981113543 0 0.20017989917412973
v -1.4101130803133815 3 -0.18465061786627748
v -1.4101130803133815 0 -0.18465061786627748
vn 0.83256983757019043 0 -0.55392009019851685
vn 0.83256983757019043 0 -0.55392009019851685
vn 0.76604443788528442 0 0.6427876353263855
vn 0.76604443788528442 0 0.6427876353263855
vn 0.55392009019851685 0 0.83256983757019043
vn 0.55392009019851685 0 0.83256983757019043
vn 0.6427876353263855 0 -0.76604443788528442
vn 0.6427876353263855 0 -0.76604443788528442
vn 0.95490223169326782 0 -0.29692035913467407
vn 0.95490223169326782 0 -0.29692035913467407
vn 0.91610842943191528 0 0.40093058347702026
vn 0.91610842943191528 0 0.40093058347702026
vn 0.29692035913467407 0 0.95490223169326782
vn 0.29692035913467407 0 0.95490223169326782
vn 0.40093058347702026 0 -0.91610842943191528
vn 0.40093058347702026 0 -0.91610842943191528
vn 0.99987411499023438 0 -0.015865927562117577
vn 0.99987411499023438 0 -0.015865927562117577
vn 0.99195480346679688 0 0.12659244239330292
vn 0.99195480346679688 0 0.12659244239330292
vn 0.015865927562117577 0 0.99987411499023438
vn 0.015865927562117577 0 0.99987411499023438
vn 0.12659244239330292 0 -0.99195480346679688
vn 0.12659244239330292 0 -0.99195480346679688
vn -0.55392009019851685 0 -0.83256983757019043
vn -0.55392009019851685 0 -0.83256983757019043
vn -0.83256983757019043 0 0.55392009019851685
vn -0.83256983757019043 0 0.55392009019851685
vn -0.6427876353263855 0 0.76604443788528442
vn -0.6427876353263855 0 0.76604443788528442
vn -0.76604443788528442 0 -0.6427876353263855
vn -0.76604443788528442 0 -0.6427876353263855
vn -0.29692035913467407 0 -0.95490223169326782
vn -0.29692035913467407 0 -0.95490223169326782
vn -0.95490223169326782 0 0.29692035913467407
vn -0.95490223169326782 0 0.29692035913467407
vn -0.40093058347702026 0 0.91610842943191528
vn -0.40093058347702026 0 0.91610842943191528
vn -0.91610842943191528 0 -0.40093058347702026
vn -0.91610842943191528 0 -0.40093058347702026
vn -0.015865927562117577 0 -0.99987411499023438
vn -0.015865927562117577 0 -0.99987411499023438
vn -0.99987411499023438 0 0.015865927562117577
vn -0.99987411499023438 0 0.015865927562117577
vn -0.12659244239330292 0 0.99195480346679688
vn -0.12659244239330292 0 0.99195480346679688
vn 0.96384215354919434 0 0.26647382974624634
vn 0.96384215354919434 0 0.26647382974624634
vn -0.99195480346679688 0 -0.12659244239330292
vn -0.99195480346679688 0 -0.12659244239330292
vn 0.98743891716003418 0 -0.1580013781785965
vn 0.98743891716003418 0 -0.1580013781785965
vn -0.26647382974624634 0 0.96384215354919434
vn -0.26647382974624634 0 0.96384215354919434
vn -0.1580013781785965 0 -0.98743891716003418
vn -0.1580013781785965 0 -0.98743891716003418
vn 0.26647382974624634 0 -0.96384215354919434
vn 0.26647382974624634 0 -0.96384215354919434
vn -0.96384215354919434 0 -0.26647382974624634
vn -0.96384215354919434 0 -0.26647382974624634
vn 0.1580013781785965 0 0.98743891716003418
vn 0.1580013781785965 0 0.98743891716003418
vn -0.98743891716003418 0 0.1580013781785965
vn -0.98743891716003418 0 0.1580013781785965
vn 0.84972542524337769 0 0.52722549438476563
vn 0.84972542524337769 0 0.52722549438476563
vn 0.90292650461196899 0 -0.42979493737220764
vn 0.90292650461196899 0 -0.42979493737220764
vn -0.52722549438476563 0 0.84972542524337769
vn -0.52722549438476563 0 0.84972542524337769
vn -0.42979493737220764 0 -0.90292650461196899
vn -0.42979493737220764 0 -0.90292650461196899
vn 0.52722549438476563 0 -0.84972542524337769
vn 0.52722549438476563 0 -0.84972542524337769
vn -0.84972542524337769 0 -0.52722549438476563
vn -0.84972542524337769 0 -0.52722549438476563
vn 0.42979493737220764 0 0.90292650461196899
vn 0.42979493737220764 0 0.90292650461196899
vn -0.90292650461196899 0 0.42979493737220764
vn -0.90292650461196899 0 0.42979493737220764
vn 0.74526441097259521 0 -0.66676902770996094
vn 0.74526441097259521 0 -0.66676902770996094
vn 0.66676902770996094 0 0.74526441097259521
vn 0.66676902770996094 0 0.74526441097259521
vn -0.66676902770996094 0 -0.74526441097259521
vn -0.66676902770996094 0 -0.74526441097259521
vn 0.74526441097259521 0 -0.66676902770996094
vn 0.74526441097259521 0 -0.66676902770996094
vn -0.74526441097259521 0 0.66676902770996094
vn -0.74526441097259521 0 0.66676902770996094
vn 0.66676902770996094 0 0.74526441097259521
vn 0.66676902770996094 0 0.74526441097259521
vn -0.66676902770996094 0 -0.74526441097259521
vn -0.66676902770996094 0 -0.74526441097259521
vn -0.74526441097259521 0 0.66676902770996094
vn -0.74526441097259521 0 0.66676902770996094
vn 0.90292650461196899 0 -0.42979493737220764
vn 0.90292650461196899 0 -0.42979493737220764
vn -0.42979493737220764 0 -0.90292650461196899
vn -0.42979493737220764 0 -0.90292650461196899
vn 0.84972542524337769 0 0.52722549438476563
vn 0.84972542524337769 0 0.52722549438476563
vn -0.52722549438476563 0 0.84972542524337769
vn -0.52722549438476563 0 0.84972542524337769
vn 0.42979493737220764 0 0.90292650461196899
vn 0.42979493737220764 0 0.90292650461196899
vn 0.52722549438476563 0 -0.84972542524337769
vn 0.52722549438476563 0 -0.84972542524337769
vn -0.90292650461196899 0 0.42979493737220764
vn -0.90292650461196899 0 0.42979493737220764
vn -0.84972542524337769 0 -0.52722549438476563
vn -0.84972542524337769 0 -0.52722549438476563
vn 0.98743891716003418 0 -0.1580013781785965
vn 0.98743891716003418 0 -0.1580013781785965
vn -0.1580013781785965 0 -0.98743891716003418
vn -0.1580013781785965 0 -0.98743891716003418
vn 0.96384215354919434 0 0.26647382974624634
vn 0.96384215354919434 0 0.26647382974624634
vn -0.26647382974624634 0 0.96384215354919434
vn -0.26647382974624634 0 0.96384215354919434
vn 0.1580013781785965 0 0.98743891716003418
vn 0.1580013781785965 0 0.98743891716003418
vn 0.26647382974624634 0 -0.96384215354919434
vn 0.26647382974624634 0 -0.96384215354919434
vn -0.98743891716003418 0 0.1580013781785965
vn -0.98743891716003418 0 0.1580013781785965
vn 0.99195480346679688 0 0.12659244239330292
vn 0.99195480346679688 0 0.12659244239330292
vn -0.96384215354919434 0 -0.26647382974624634
vn -0.96384215354919434 0 -0.26647382974624634
vn 0.12659244239330292 0 -0.99195480346679688
vn 0.12659244239330292 0 -0.99195480346679688
vn 0.99987411499023438 0 -0.015865927562117577
vn 0.99987411499023438 0 -0.015865927562117577
vn 0.015865927562117577 0 0.99987411499023438
vn 0.015865927562117577 0 0.99987411499023438
vn 0.91610842943191528 0 0.40093058347702026
vn 0.91610842943191528 0 0.40093058347702026
vn 0.40093058347702026 0 -0.91610842943191528
vn 0.40093058347702026 0 -0.91610842943191528
vn 0.95490223169326782 0 -0.29692035913467407
vn 0.95490223169326782 0 -0.29692035913467407
vn 0.29692035913467407 0 0.95490223169326782
vn 0.29692035913467407 0 0.95490223169326782
vn 0.76604443788528442 0 0.6427876353263855
vn 0.76604443788528442 0 0.6427876353263855
vn 0.6427876353263855 0 -0.76604443788528442
vn 0.6427876353263855 0 -0.76604443788528442
vn 0.83256983757019043 0 -0.55392009019851685
vn 0.83256983757019043 0 -0.55392009019851685
vn 0.55392009019851685 0 0.83256983757019043
vn 0.55392009019851685 0 0.83256983757019043
vn -0.12659244239330292 0 0.99195480346679688
vn -0.12659244239330292 0 0.99195480346679688
vn -0.015865927562117577 0 -0.99987411499023438
vn -0.015865927562117577 0 -0.99987411499023438
vn -0.99195480346679688 0 -0.12659244239330292
vn -0.99195480346679688 0 -0.12659244239330292
vn -0.99987411499023438 0 0.015865927562117577
vn -0.99987411499023438 0 0.015865927562117577
vn -0.40093058347702026 0 0.91610842943191528
vn -0.40093058347702026 0 0.91610842943191528
vn -0.29692035913467407 0 -0.95490223169326782
vn -0.29692035913467407 0 -0.95490223169326782
vn -0.91610842943191528 0 -0.40093058347702026
vn -0.91610842943191528 0 -0.40093058347702026
vn -0.95490223169326782 0 0.29692035913467407
vn -0.95490223169326782 0 0.29692035913467407
vn -0.6427876353263855 0 0.76604443788528442
vn -0.6427876353263855 0 0.76604443788528442
vn -0.55392009019851685 0 -0.83256983757019043
vn -0.55392009019851685 0 -0.83256983757019043
vn -0.76604443788528442 0 -0.6427876353263855
vn -0.76604443788528442 0 -0.6427876353263855
vn -0.83256983757019043 0 0.55392009019851685
vn -0.83256983757019043 0 0.55392009019851685
f 8//8 7//7 3//3 4//4
f 4//4 3//3 29//29 30//30
f 30//30 29//29 31//31 32//32
f 32//32 31//31 7//7 8//8
f 16//16 15//15 11//11 12//12
f 12//12 11//11 37//37 38//38
f 38//38 37//37 39//39 40//40
f 40//40 39//39 15//15 16//16
f 24//24 23//23 19//19 20//20
f 20//20 19//19 45//45 46//46
f 46//46 45//45 49//49 50//50
f 50//50 49//49 23//23 24//24
f 56//56 55//55 51//51 52//52
f 52//52 51//51 61//61 62//62
f 62//62 61//61 63//63 64//64
f 64//64 63//63 55//55 56//56
f 72//72 71//71 67//67 68//68
f 68//68 67//67 77//77 78//78
f 78//78 77//77 79//79 80//80
f 80//80 79//79 71//71 72//72
f 94//94 93//93 87//87 88//88
f 88//88 87//87 91//91 92//92
f 92//92 91//91 95//95 96//96
f 96//96 95//95 93//93 94//94
f 112//112 111//111 107//107 108//108
f 108//108 107//107 101//101 102//102
f 102//102 101//101 103//103 104//104
f 104//104 103//103 111//111 112//112
f 130//130 129//129 123//123 124//124
f 124//124 123//123 117//117 118//118
f 118//118 117//117 119//119 120//120
f 120//120 119//119 129//129 130//130
f 160//160 159//159 155//155 156//156
f 156//156 155//155 133//133 134//134
f 134//134 133//133 135//135 136//136
f 136//136 135//135 159//159 160//160
f 168//168 167//167 163//163 164//164
f 164//164 163//163 141//141 142//142
f 142//142 141//141 143//143 144//144
f 144//144 143//143 167//167 168//168
f 176//176 175//175 171//171 172//172
f 172//172 171//171 149//149 150//150
f 150//150 149//149 151//151 152//152
f 152//152 151//151 175//175 176//176
f 170//170 169//169 173//173 174//174
f 174//174 173//173 147//147 148//148
f 148//148 147//147 145//145 146//146
f 146//146 145//145 169//169 170//170
f 162//162 161//161 165//165 166//166
f 166//166 165//165 139//139 140//140
f 140//140 139//139 137//137 138//138
f 138//138 137//137 161//161 162//162
f 154//154 153//153 157//157 158//158
f 158//158 157//157 131//131 132//132
f 132//132 131//131 127//127 128//128
f 128//128 127//127 153//153 154//154
f 122//122 121//121 125//125 126//126
f 126//126 125//125 115//115 116//116
f 116//116 115//115 113//113 114//114
f 114//114 113//113 121//121 122//122
f 106//106 105//105 109//109 110//110
f 110//110 109//109 99//99 100//100
f 100//100 99//99 97//97 98//98
f 98//98 97//97 105//105 106//106
f 84//84 83//83 89//89 90//90
f 90//90 89//89 85//85 86//86
f 86//86 85//85 81//81 82//82
f 82//82 81//81 83//83 84//84
f 66//66 65//65 69//69 70//70
f 70//70 69//69 75//75 76//76
f 76//76 75//75 73//73 74//74
f 74//74 73//73 65//65 66//66
f 48//48 47//47 53//53 54//54
f 54//54 53//53 59//59 60//60
f 60//60 59//59 57//57 58//58
f 58//58 57//57 47//47 48//48
f 18//18 17//17 21//21 22//22
f 22//22 21//21 43//43 44//44
f 44//44 43//43 41//41 42//42
f 42//42 41//41 17//17 18//18
f 10//10 9//9 13//13 14//14
f 14//14 13//13 35//35 36//36
f 36//36 35//35 33//33 34//34
f 34//34 33//33 9//9 10//10
f 2//2 1//1 5//5 6//6
f 6//6 5//5 27//27 28//28
f 28//28 27//27 25//25 26//26
f 26//26 25//25 1//1 2//2
