# Rhino

mtllib Frangisole79.mtl
usemtl diffuse_Black
v 1.4068032183221912 3 -0.19848355976060353
v 1.4068032183221912 0 -0.19848355976060356
v 1.4061052283881412 3 -0.17849574322022183
v 1.4061052283881412 0 -0.17849574322022183
v 1.4057370840207482 3 0.2058986867023683
v 1.4057370840207482 0 0.20589868670236827
v 1.3994361489237745 3 0.22488020974199063
v 1.3994361489237745 0 0.22488020974199066
v 1.2988600246782851 3 -0.56741103262179382
v 1.2988600246782851 0 -0.56741103262179382
v 1.2938985224560606 3 -0.58678584863895522
v 1.2938985224560606 0 -0.58678584863895522
v 1.2907864914122897 3 0.59360024609535589
v 1.2907864914122897 0 0.59360024609535589
v 1.2793930754408449 3 0.61003770552501313
v 1.2793930754408449 0 0.61003770552501302
v 1.0863889063869936 3 -0.91035805468369335
v 1.0863889063869936 0 -0.91035805468369335
v 1.0761698634113492 3 -0.92755023781039159
v 1.0761698634113492 0 -0.92755023781039159
v 1.0712640538724545 3 0.93321184382629374
v 1.0712640538724545 0 0.93321184382629374
v 1.0690111607940114 3 0.094122187878149327
v 1.0690111607940114 0 0.094122187878149299
v 1.0627102256970378 3 0.11310371091777166
v 1.0627102256970378 0 0.11310371091777169
v 1.0557011838292916 3 0.94577357444033006
v 1.0557011838292916 0 0.94577357444033006
v 1.0522259821437523 3 -0.21086566969221185
v 1.0522259821437523 0 -0.21086566969221182
v 1.0515279922097023 3 -0.19087785315183015
v 1.0515279922097023 0 -0.19087785315183015
v 0.99919141285091118 3 0.3914848255528291
v 0.99919141285091118 0 0.39148482555282915
v 0.98779799687946634 3 0.40792228498248634
v 0.98779799687946634 0 0.40792228498248628
v 0.9551572144713012 3 -0.47939562875337527
v 0.9551572144713012 0 -0.47939562875337527
v 0.95019571224907673 3 -0.49877044477053667
v 0.95019571224907673 0 -0.49877044477053667
v 0.84842311905877155 3 0.65713169091112522
v 0.84842311905877155 0 0.65713169091112522
v 0.83286024901560862 3 0.66969342152516154
v 0.83286024901560862 0 0.66969342152516154
v 0.7859050199038311 3 -1.1795532812629386
v 0.7859050199038311 0 -1.1795532812629386
v 0.78140527975511598 3 -0.72907562158890515
v 0.78140527975511598 0 -0.72907562158890515
v 0.77125632226166507 3 -1.1931700230680986
v 0.77125632226166507 0 -1.1931700230680986
v 0.77118623677947162 3 -0.74626780471560339
v 0.77118623677947162 0 -0.74626780471560339
v 0.76495417374051589 3 1.1972201679949599
v 0.76495417374051589 0 1.1972201679949599
v 0.7464826608005799 3 1.2048884930865147
v 0.7464826608005799 0 1.2048884930865147
v 0.6289206299270641 3 0.86954165478444667
v 0.6289206299270641 0 0.86954165478444667
v 0.61044911698712812 3 0.87720997987600147
v 0.61044911698712812 0 0.87720997987600147
v 0.54434853646930725 3 -0.91969024354297813
v 0.54434853646930725 0 -0.91969024354297813
v 0.52969983882714122 3 -0.93330698534813816
v 0.52969983882714122 0 -0.93330698534813816
v 0.42175178266518221 3 -1.3531881160677357
v 0.4217517826651821 0 -1.3531881160677357
v 0.40386018072030327 3 -1.3621262691121849
v 0.40386018072030322 0 -1.3621262691121849
v 0.39667225580976145 3 1.3642368342951716
v 0.39667225580976145 0 1.3642368342951716
v 0.37678855209712853 3 1.3663905117706125
v 0.37678855209712853 0 1.3663905117706125
v 0.35846673169367099 3 1.011506525150474
v 0.35846673169367099 0 1.011506525150474
v 0.33858302798103806 3 1.0136602026259149
v 0.33858302798103806 0 1.0136602026259149
v 0.26319191212415499 3 -1.0357970315736815
v 0.26319191212415505 0 -1.0357970315736815
v 0.24530031017927612 3 -1.0447351846181308
v 0.24530031017927617 0 -1.0447351846181308
v 0.058971990742197722 3 1.0715251525097447
v 0.058971990742197722 0 1.0715251525097447
v 0.039286955678726219 3 1.0679897042284243
v 0.039286955678726233 0 1.0679897042284243
v 0.023430724249430622 3 -1.417195697428324
v 0.023430724249430594 0 -1.417195697428324
v 0.0037456891859591057 3 -1.4207311457096443
v 0.0037456891859590918 0 -1.4207311457096443
v -0.0037456891859576728 3 1.4207311457096441
v -0.0037456891859576902 0 1.4207311457096441
v -0.023430724249429172 3 1.4171956974283237
v -0.023430724249429179 0 1.4171956974283237
v -0.039286955678725213 3 -1.0679897042284241
v -0.039286955678725199 0 -1.0679897042284241
v -0.05897199074219673 3 -1.0715251525097444
v -0.058971990742196702 0 -1.0715251525097444
v -0.24530031017927506 3 1.044735184618131
v -0.24530031017927506 0 1.044735184618131
v -0.26319191212415399 3 1.0357970315736817
v -0.26319191212415405 0 1.0357970315736817
v -0.33858302798103734 3 -1.0136602026259154
v -0.33858302798103734 0 -1.0136602026259154
v -0.35846673169367027 3 -1.0115065251504745
v -0.35846673169367027 0 -1.0115065251504745
v -0.37678855209712753 3 -1.3663905117706128
v -0.37678855209712753 0 -1.3663905117706128
v -0.39667225580976045 3 -1.3642368342951718
v -0.39667225580976045 0 -1.3642368342951718
v -0.40386018072030183 3 1.3621262691121852
v -0.40386018072030183 0 1.3621262691121852
v -0.42175178266518076 3 1.3531881160677359
v -0.42175178266518076 0 1.3531881160677359
v -0.52969983882714011 3 0.93330698534813883
v -0.52969983882714022 0 0.93330698534813883
v -0.54434853646930637 3 0.91969024354297879
v -0.54434853646930637 0 0.91969024354297879
v -0.61044911698712678 3 -0.87720997987600247
v -0.61044911698712678 0 -0.87720997987600247
v -0.62892062992706277 3 -0.86954165478444767
v -0.62892062992706277 0 -0.86954165478444767
v -0.74648266080057812 3 -1.2048884930865162
v -0.74648266080057801 0 -1.2048884930865162
v -0.76495417374051411 3 -1.1972201679949614
v -0.764954173740514 0 -1.1972201679949614
v -0.77118623677947085 3 0.74626780471560417
v -0.77118623677947085 0 0.74626780471560417
v -0.77125632226166374 3 1.1931700230680995
v -0.77125632226166374 0 1.1931700230680995
v -0.7814052797551152 3 0.72907562158890582
v -0.7814052797551152 0 0.72907562158890582
v -0.78590501990382999 3 1.1795532812629395
v -0.78590501990382988 0 1.1795532812629395
v -0.83286024901560796 3 -0.66969342152516265
v -0.83286024901560796 0 -0.66969342152516254
v -0.84842311905877077 3 -0.65713169091112644
v -0.84842311905877077 0 -0.65713169091112633
v -0.95019571224907651 3 0.49877044477053728
v -0.95019571224907651 0 0.49877044477053728
v -0.95515721447130097 3 0.47939562875337588
v -0.95515721447130097 0 0.47939562875337588
v -0.98779799687946579 3 -0.407922284982488
v -0.98779799687946579 0 -0.407922284982488
v -0.99919141285091062 3 -0.39148482555283093
v -0.99919141285091062 0 -0.39148482555283098
v -1.0515279922097023 3 0.19087785315183012
v -1.0515279922097023 0 0.19087785315183012
v -1.0522259821437523 3 0.21086566969221185
v -1.0522259821437523 0 0.21086566969221185
v -1.0557011838292905 3 -0.94577357444033128
v -1.0557011838292905 0 -0.94577357444033128
v -1.0627102256970375 3 -0.11310371091777351
v -1.0627102256970375 0 -0.11310371091777352
v -1.0690111607940112 3 -0.094122187878151145
v -1.0690111607940112 0 -0.094122187878151076
v -1.0712640538724532 3 -0.93321184382629507
v -1.0712640538724532 0 -0.93321184382629507
v -1.0761698634113483 3 0.9275502378103927
v -1.0761698634113483 0 0.9275502378103927
v -1.0863889063869927 3 0.91035805468369435
v -1.0863889063869927 0 0.91035805468369435
v -1.279393075440844 3 -0.61003770552501524
v -1.279393075440844 0 -0.61003770552501524
v -1.2907864914122889 3 -0.59360024609535822
v -1.2907864914122889 0 -0.59360024609535822
v -1.2938985224560604 3 0.58678584863895611
v -1.2938985224560604 0 0.58678584863895611
v -1.2988600246782849 3 0.56741103262179471
v -1.2988600246782849 0 0.56741103262179471
v -1.3994361489237741 3 -0.22488020974199302
v -1.3994361489237741 0 -0.22488020974199308
v -1.4057370840207477 3 -0.20589868670237066
v -1.4057370840207477 0 -0.20589868670237063
v -1.4061052283881412 3 0.1784957432202218
v -1.4061052283881412 0 0.1784957432202218
v -1.4068032183221912 3 0.19848355976060353
v -1.4068032183221912 0 0.19848355976060353
vn 0.73135370016098022 0 -0.68199837207794189
vn 0.73135370016098022 0 -0.68199837207794189
vn 0.68199837207794189 0 0.73135370016098022
vn 0.68199837207794189 0 0.73135370016098022
vn 0.89386987686157227 0 -0.4483264684677124
vn 0.89386987686157227 0 -0.4483264684677124
vn 0.4483264684677124 0 0.89386987686157227
vn 0.4483264684677124 0 0.89386987686157227
vn 0.86041879653930664 0 0.50958758592605591
vn 0.86041879653930664 0 0.50958758592605591
vn 0.50958758592605591 0 -0.86041879653930664
vn 0.50958758592605591 0 -0.86041879653930664
vn 0.983970046043396 0 -0.17833386361598969
vn 0.983970046043396 0 -0.17833386361598969
vn 0.17833386361598969 0 0.983970046043396
vn 0.17833386361598969 0 0.983970046043396
vn 0.96913319826126099 0 0.24653768539428711
vn 0.96913319826126099 0 0.24653768539428711
vn 0.24653768539428711 0 -0.96913319826126099
vn 0.24653768539428711 0 -0.96913319826126099
vn 0.99435478448867798 0 0.10610634088516235
vn 0.99435478448867798 0 0.10610634088516235
vn -0.4483264684677124 0 -0.89386987686157227
vn -0.4483264684677124 0 -0.89386987686157227
vn -0.89386987686157227 0 0.4483264684677124
vn -0.89386987686157227 0 0.4483264684677124
vn -0.10610634088516235 0 0.99435478448867798
vn -0.10610634088516235 0 0.99435478448867798
vn -0.68199837207794189 0 -0.73135370016098022
vn -0.68199837207794189 0 -0.73135370016098022
vn -0.73135370016098022 0 0.68199837207794189
vn -0.73135370016098022 0 0.68199837207794189
vn -0.17833386361598969 0 -0.983970046043396
vn -0.17833386361598969 0 -0.983970046043396
vn -0.983970046043396 0 0.17833386361598969
vn -0.983970046043396 0 0.17833386361598969
vn -0.50958758592605591 0 0.86041879653930664
vn -0.50958758592605591 0 0.86041879653930664
vn -0.86041879653930664 0 -0.50958758592605591
vn -0.86041879653930664 0 -0.50958758592605591
vn 0.10610634088516235 0 -0.99435478448867798
vn 0.10610634088516235 0 -0.99435478448867798
vn -0.99435478448867798 0 -0.10610634088516235
vn -0.99435478448867798 0 -0.10610634088516235
vn 0.99933421611785889 0 -0.036485139280557632
vn 0.99933421611785889 0 -0.036485139280557632
vn -0.24653768539428711 0 0.96913319826126099
vn -0.24653768539428711 0 0.96913319826126099
vn -0.036485139280557632 0 -0.99933421611785889
vn -0.036485139280557632 0 -0.99933421611785889
vn -0.96913319826126099 0 -0.24653768539428711
vn -0.96913319826126099 0 -0.24653768539428711
vn 0.92418283224105835 0 0.38195031881332397
vn 0.92418283224105835 0 0.38195031881332397
vn -0.38195031881332397 0 0.92418283224105835
vn -0.38195031881332397 0 0.92418283224105835
vn 0.38195031881332397 0 -0.92418283224105835
vn 0.38195031881332397 0 -0.92418283224105835
vn -0.92418283224105835 0 -0.38195031881332397
vn -0.92418283224105835 0 -0.38195031881332397
vn 0.036485139280557632 0 0.99933421611785889
vn 0.036485139280557632 0 0.99933421611785889
vn -0.99933421611785889 0 0.036485139280557632
vn -0.99933421611785889 0 0.036485139280557632
vn 0.94857507944107056 0 -0.31655225157737732
vn 0.94857507944107056 0 -0.31655225157737732
vn -0.31655225157737732 0 -0.94857507944107056
vn -0.31655225157737732 0 -0.94857507944107056
vn 0.77913910150527954 0 0.62685108184814453
vn 0.77913910150527954 0 0.62685108184814453
vn -0.62685108184814453 0 0.77913910150527954
vn -0.62685108184814453 0 0.77913910150527954
vn 0.62685108184814453 0 -0.77913910150527954
vn 0.62685108184814453 0 -0.77913910150527954
vn -0.77913910150527954 0 -0.62685108184814453
vn -0.77913910150527954 0 -0.62685108184814453
vn 0.31655225157737732 0 0.94857507944107056
vn 0.31655225157737732 0 0.94857507944107056
vn -0.94857507944107056 0 0.31655225157737732
vn -0.94857507944107056 0 0.31655225157737732
vn 0.82096803188323975 0 -0.57097411155700684
vn 0.82096803188323975 0 -0.57097411155700684
vn -0.57097411155700684 0 -0.82096803188323975
vn -0.57097411155700684 0 -0.82096803188323975
vn 0.82096803188323975 0 -0.57097411155700684
vn 0.82096803188323975 0 -0.57097411155700684
vn -0.57097411155700684 0 -0.82096803188323975
vn -0.57097411155700684 0 -0.82096803188323975
vn 0.57097411155700684 0 0.82096803188323975
vn 0.57097411155700684 0 0.82096803188323975
vn -0.82096803188323975 0 0.57097411155700684
vn -0.82096803188323975 0 0.57097411155700684
vn 0.57097411155700684 0 0.82096803188323975
vn 0.57097411155700684 0 0.82096803188323975
vn -0.82096803188323975 0 0.57097411155700684
vn -0.82096803188323975 0 0.57097411155700684
vn 0.94857507944107056 0 -0.31655225157737732
vn 0.94857507944107056 0 -0.31655225157737732
vn -0.31655225157737732 0 -0.94857507944107056
vn -0.31655225157737732 0 -0.94857507944107056
vn 0.77913910150527954 0 0.62685108184814453
vn 0.77913910150527954 0 0.62685108184814453
vn -0.62685108184814453 0 0.77913910150527954
vn -0.62685108184814453 0 0.77913910150527954
vn 0.62685108184814453 0 -0.77913910150527954
vn 0.62685108184814453 0 -0.77913910150527954
vn -0.77913910150527954 0 -0.62685108184814453
vn -0.77913910150527954 0 -0.62685108184814453
vn 0.31655225157737732 0 0.94857507944107056
vn 0.31655225157737732 0 0.94857507944107056
vn -0.94857507944107056 0 0.31655225157737732
vn -0.94857507944107056 0 0.31655225157737732
vn 0.99933421611785889 0 -0.036485139280557632
vn 0.99933421611785889 0 -0.036485139280557632
vn -0.036485139280557632 0 -0.99933421611785889
vn -0.036485139280557632 0 -0.99933421611785889
vn 0.92418283224105835 0 0.38195031881332397
vn 0.92418283224105835 0 0.38195031881332397
vn -0.38195031881332397 0 0.92418283224105835
vn -0.38195031881332397 0 0.92418283224105835
vn 0.38195031881332397 0 -0.92418283224105835
vn 0.38195031881332397 0 -0.92418283224105835
vn -0.92418283224105835 0 -0.38195031881332397
vn -0.92418283224105835 0 -0.38195031881332397
vn 0.96913319826126099 0 0.24653768539428711
vn 0.96913319826126099 0 0.24653768539428711
vn 0.036485139280557632 0 0.99933421611785889
vn 0.036485139280557632 0 0.99933421611785889
vn 0.24653768539428711 0 -0.96913319826126099
vn 0.24653768539428711 0 -0.96913319826126099
vn -0.99933421611785889 0 0.036485139280557632
vn -0.99933421611785889 0 0.036485139280557632
vn 0.99435478448867798 0 0.10610634088516235
vn 0.99435478448867798 0 0.10610634088516235
vn -0.10610634088516235 0 0.99435478448867798
vn -0.10610634088516235 0 0.99435478448867798
vn 0.86041879653930664 0 0.50958758592605591
vn 0.86041879653930664 0 0.50958758592605591
vn 0.50958758592605591 0 -0.86041879653930664
vn 0.50958758592605591 0 -0.86041879653930664
vn 0.983970046043396 0 -0.17833386361598969
vn 0.983970046043396 0 -0.17833386361598969
vn 0.17833386361598969 0 0.983970046043396
vn 0.17833386361598969 0 0.983970046043396
vn 0.73135370016098022 0 -0.68199837207794189
vn 0.73135370016098022 0 -0.68199837207794189
vn 0.68199837207794189 0 0.73135370016098022
vn 0.68199837207794189 0 0.73135370016098022
vn 0.10610634088516235 0 -0.99435478448867798
vn 0.10610634088516235 0 -0.99435478448867798
vn 0.89386987686157227 0 -0.4483264684677124
vn 0.89386987686157227 0 -0.4483264684677124
vn 0.4483264684677124 0 0.89386987686157227
vn 0.4483264684677124 0 0.89386987686157227
vn -0.99435478448867798 0 -0.10610634088516235
vn -0.99435478448867798 0 -0.10610634088516235
vn -0.24653768539428711 0 0.96913319826126099
vn -0.24653768539428711 0 0.96913319826126099
vn -0.96913319826126099 0 -0.24653768539428711
vn -0.96913319826126099 0 -0.24653768539428711
vn -0.17833386361598969 0 -0.983970046043396
vn -0.17833386361598969 0 -0.983970046043396
vn -0.983970046043396 0 0.17833386361598969
vn -0.983970046043396 0 0.17833386361598969
vn -0.50958758592605591 0 0.86041879653930664
vn -0.50958758592605591 0 0.86041879653930664
vn -0.86041879653930664 0 -0.50958758592605591
vn -0.86041879653930664 0 -0.50958758592605591
vn -0.4483264684677124 0 -0.89386987686157227
vn -0.4483264684677124 0 -0.89386987686157227
vn -0.89386987686157227 0 0.4483264684677124
vn -0.89386987686157227 0 0.4483264684677124
vn -0.68199837207794189 0 -0.73135370016098022
vn -0.68199837207794189 0 -0.73135370016098022
vn -0.73135370016098022 0 0.68199837207794189
vn -0.73135370016098022 0 0.68199837207794189
f 2//2 1//1 3//3 4//4
f 4//4 3//3 31//31 32//32
f 32//32 31//31 29//29 30//30
f 30//30 29//29 1//1 2//2
f 12//12 11//11 9//9 10//10
f 10//10 9//9 37//37 38//38
f 38//38 37//37 39//39 40//40
f 40//40 39//39 11//11 12//12
f 20//20 19//19 17//17 18//18
f 18//18 17//17 47//47 48//48
f 48//48 47//47 51//51 52//52
f 52//52 51//51 19//19 20//20
f 50//50 49//49 45//45 46//46
f 46//46 45//45 61//61 62//62
f 62//62 61//61 63//63 64//64
f 64//64 63//63 49//49 50//50
f 68//68 67//67 65//65 66//66
f 66//66 65//65 77//77 78//78
f 78//78 77//77 79//79 80//80
f 80//80 79//79 67//67 68//68
f 88//88 87//87 85//85 86//86
f 86//86 85//85 93//93 94//94
f 94//94 93//93 95//95 96//96
f 96//96 95//95 87//87 88//88
f 108//108 107//107 105//105 106//106
f 106//106 105//105 101//101 102//102
f 102//102 101//101 103//103 104//104
f 104//104 103//103 107//107 108//108
f 124//124 123//123 121//121 122//122
f 122//122 121//121 117//117 118//118
f 118//118 117//117 119//119 120//120
f 120//120 119//119 123//123 124//124
f 156//156 155//155 149//149 150//150
f 150//150 149//149 133//133 134//134
f 134//134 133//133 135//135 136//136
f 136//136 135//135 155//155 156//156
f 164//164 163//163 161//161 162//162
f 162//162 161//161 141//141 142//142
f 142//142 141//141 143//143 144//144
f 144//144 143//143 163//163 164//164
f 172//172 171//171 169//169 170//170
f 170//170 169//169 151//151 152//152
f 152//152 151//151 153//153 154//154
f 154//154 153//153 171//171 172//172
f 176//176 175//175 173//173 174//174
f 174//174 173//173 145//145 146//146
f 146//146 145//145 147//147 148//148
f 148//148 147//147 175//175 176//176
f 166//166 165//165 167//167 168//168
f 168//168 167//167 139//139 140//140
f 140//140 139//139 137//137 138//138
f 138//138 137//137 165//165 166//166
f 158//158 157//157 159//159 160//160
f 160//160 159//159 129//129 130//130
f 130//130 129//129 125//125 126//126
f 126//126 125//125 157//157 158//158
f 128//128 127//127 131//131 132//132
f 132//132 131//131 115//115 116//116
f 116//116 115//115 113//113 114//114
f 114//114 113//113 127//127 128//128
f 110//110 109//109 111//111 112//112
f 112//112 111//111 99//99 100//100
f 100//100 99//99 97//97 98//98
f 98//98 97//97 109//109 110//110
f 90//90 89//89 91//91 92//92
f 92//92 91//91 83//83 84//84
f 84//84 83//83 81//81 82//82
f 82//82 81//81 89//89 90//90
f 70//70 69//69 71//71 72//72
f 72//72 71//71 75//75 76//76
f 76//76 75//75 73//73 74//74
f 74//74 73//73 69//69 70//70
f 54//54 53//53 55//55 56//56
f 56//56 55//55 59//59 60//60
f 60//60 59//59 57//57 58//58
f 58//58 57//57 53//53 54//54
f 22//22 21//21 27//27 28//28
f 28//28 27//27 43//43 44//44
f 44//44 43//43 41//41 42//42
f 42//42 41//41 21//21 22//22
f 14//14 13//13 15//15 16//16
f 16//16 15//15 35//35 36//36
f 36//36 35//35 33//33 34//34
f 34//34 33//33 13//13 14//14
f 6//6 5//5 7//7 8//8
f 8//8 7//7 25//25 26//26
f 26//26 25//25 23//23 24//24
f 24//24 23//23 5//5 6//6
