# Rhino

mtllib Frangisole4.mtl
usemtl diffuse_Black
v 1.2788148768717509 3 -0.02408019914575249
v 1.2788148768717509 0 -0.024080199145752462
v 1.2593274755760462 3 -0.019581178058875187
v 1.2593274755760462 0 -0.019581178058875187
v 1.2546147900623921 3 -0.01700314921197571
v 1.2546147900623921 0 -0.017003149211975654
v 1.2346492447310677 3 -0.018176605484207325
v 1.2346492447310677 0 -0.01817660548420727
v 1.233798064986718 3 0.33717900310434717
v 1.233798064986718 0 0.33717900310434712
v 1.2202297128375499 3 -0.38338856687152378
v 1.2202297128375499 0 -0.38338856687152378
v 1.2138325196553936 3 0.33600554683211559
v 1.2138325196553936 0 0.33600554683211548
v 1.2085844163595389 3 0.33715143045714158
v 1.2085844163595389 0 0.33715143045714152
v 1.2027992089344046 3 -0.37358155235728774
v 1.2027992089344046 0 -0.37358155235728774
v 1.1990037349558471 3 -0.3697802348535586
v 1.1990037349558471 0 -0.3697802348535586
v 1.1897582167356691 3 0.33040056327416401
v 1.1897582167356691 0 0.33040056327416401
v 1.1795163336601424 3 -0.36528121376668132
v 1.1795163336601424 0 -0.36528121376668132
v 1.088826271556087 3 0.67112196780367805
v 1.088826271556087 0 0.67112196780367805
v 1.0700000719322171 3 0.66437110062070059
v 1.0700000719322171 0 0.66437110062070059
v 1.0646417209715195 3 0.66399200634738464
v 1.0646417209715195 0 0.66399200634738476
v 1.0627887944547791 3 -0.71163707300896539
v 1.0627887944547791 0 -0.71163707300896539
v 1.048827303707228 3 -0.69731657105875278
v 1.048827303707228 0 -0.69731657105875278
v 1.0484800537849097 3 0.65221064336387302
v 1.0484800537849097 0 0.65221064336387302
v 1.046256527992957 3 -0.69259992503504286
v 1.046256527992957 0 -0.69259992503504286
v 1.0288260240898117 3 -0.68279291052080682
v 1.0288260240898117 0 -0.68279291052080682
v 0.85564424910315351 3 0.95069462198758181
v 0.85564424910315351 0 0.95069462198758181
v 0.83948258191654368 3 0.93891325900407019
v 0.83948258191654368 0 0.93891325900407008
v 0.83444808501849976 3 0.93703989879587457
v 0.83444808501849976 0 0.93703989879587457
v 0.82226027242747335 3 0.92118249597428936
v 0.82226027242747335 0 0.92118249597428936
v 0.81924704859361597 3 -0.98223297575985513
v 0.81924704859361586 0 -0.98223297575985513
v 0.80988564794984286 3 -0.96455914827436784
v 0.80988564794984286 0 -0.96455914827436784
v 0.80874783945923689 3 -0.95930928834054385
v 0.80874783945923689 0 -0.95930928834054385
v 0.79478634871168563 3 -0.94498878639033124
v 0.79478634871168563 0 -0.94498878639033124
v 0.55314301830017076 3 1.1532476518966719
v 0.55314301830017076 0 1.1532476518966719
v 0.54095520570914435 3 1.1373902490750867
v 0.54095520570914435 0 1.1373902490750867
v 0.53665242787112621 3 1.1341743914347784
v 0.53665242787112621 0 1.1341743914347784
v 0.52942585396809583 3 1.1155256212441187
v 0.52942585396809583 0 1.1155256212441187
v 0.5093347791051992 3 -1.1732542043791143
v 0.5093347791051992 0 -1.1732542043791143
v 0.50571921078112947 3 -1.1483011183367087
v 0.50571921078112947 0 -1.1483011183367087
v 0.50533187357096931 3 -1.1536588797509273
v 0.50533187357096931 0 -1.1536588797509273
v 0.49635781013735636 3 -1.1306272908512214
v 0.49635781013735636 0 -1.1306272908512214
v 0.20582942982270389 3 1.2623714156769676
v 0.20582942982270386 0 1.2623714156769676
v 0.1986028559196735 3 1.243722645486308
v 0.19860285591967342 0 1.243722645486308
v 0.19538038261251403 3 1.2394248200744618
v 0.19538038261251403 0 1.2394248200744618
v 0.19370050143701326 3 1.219495494967068
v 0.19370050143701323 0 1.219495494967068
v 0.16172021927348865 3 -1.2442644209349389
v 0.16172021927348865 0 -1.2442644209349389
v 0.15983911611974652 3 -1.2492960298636062
v 0.15983911611974655 0 -1.2492960298636062
v 0.15815923494424577 3 -1.2692253549709998
v 0.15815923494424577 0 -1.2692253549709998
v 0.15771731373925871 3 -1.2246690963067519
v 0.15771731373925876 0 -1.2246690963067519
v -0.15771731373925754 3 1.2246690963067521
v -0.15771731373925757 0 1.2246690963067521
v -0.15815923494424458 3 1.2692253549710002
v -0.15815923494424458 0 1.2692253549710002
v -0.15983911611974536 3 1.2492960298636064
v -0.15983911611974538 0 1.2492960298636064
v -0.16172021927348743 3 1.2442644209349392
v -0.16172021927348745 0 1.2442644209349392
v -0.19370050143701195 3 -1.2194954949670682
v -0.19370050143701198 0 -1.2194954949670682
v -0.1953803826125127 3 -1.2394248200744618
v -0.19538038261251275 0 -1.2394248200744618
v -0.19860285591967236 3 -1.243722645486308
v -0.19860285591967236 0 -1.243722645486308
v -0.20582942982270275 3 -1.2623714156769676
v -0.2058294298227028 0 -1.2623714156769676
v -0.49635781013735514 3 1.1306272908512223
v -0.49635781013735519 0 1.130627290851222
v -0.50533187357096832 3 1.1536588797509277
v -0.5053318735709682 0 1.1536588797509277
v -0.50571921078112814 3 1.1483011183367093
v -0.50571921078112814 0 1.1483011183367091
v -0.5093347791051982 3 1.1732542043791148
v -0.50933477910519809 0 1.1732542043791148
v -0.52942585396809494 3 -1.1155256212441191
v -0.52942585396809494 0 -1.1155256212441191
v -0.53665242787112533 3 -1.1341743914347788
v -0.53665242787112533 0 -1.1341743914347788
v -0.54095520570914246 3 -1.1373902490750878
v -0.54095520570914246 0 -1.1373902490750878
v -0.55314301830016877 3 -1.153247651896673
v -0.55314301830016877 0 -1.153247651896673
v -0.79478634871168463 3 0.94498878639033179
v -0.79478634871168463 0 0.94498878639033179
v -0.8087478394592359 3 0.95930928834054452
v -0.8087478394592359 0 0.95930928834054452
v -0.80988564794984175 3 0.96455914827436895
v -0.80988564794984175 0 0.96455914827436895
v -0.81924704859361475 3 0.98223297575985602
v -0.81924704859361475 0 0.98223297575985602
v -0.82226027242747191 3 -0.92118249597429069
v -0.82226027242747191 0 -0.92118249597429069
v -0.83444808501849832 3 -0.9370398987958759
v -0.83444808501849821 0 -0.9370398987958759
v -0.83948258191654246 3 -0.93891325900407108
v -0.83948258191654246 0 -0.93891325900407119
v -0.85564424910315218 3 -0.9506946219875827
v -0.85564424910315218 0 -0.9506946219875827
v -1.0288260240898115 3 0.68279291052080748
v -1.0288260240898115 0 0.68279291052080737
v -1.0462565279929565 3 0.69259992503504342
v -1.0462565279929565 0 0.69259992503504353
v -1.0484800537849086 3 -0.65221064336387446
v -1.0484800537849086 0 -0.65221064336387435
v -1.0488273037072271 3 0.69731657105875366
v -1.0488273037072271 0 0.69731657105875366
v -1.0627887944547785 3 0.71163707300896639
v -1.0627887944547785 0 0.71163707300896639
v -1.0646417209715184 3 -0.66399200634738609
v -1.0646417209715184 0 -0.66399200634738609
v -1.0700000719322158 3 -0.66437110062070237
v -1.0700000719322158 0 -0.66437110062070237
v -1.0888262715560857 3 -0.67112196780367994
v -1.0888262715560857 0 -0.67112196780367994
v -1.1795163336601424 3 0.36528121376668132
v -1.1795163336601424 0 0.36528121376668132
v -1.1897582167356686 3 -0.33040056327416595
v -1.1897582167356686 0 -0.330400563274166
v -1.1990037349558471 3 0.3697802348535586
v -1.1990037349558471 0 0.3697802348535586
v -1.2027992089344046 3 0.37358155235728852
v -1.2027992089344046 0 0.3735815523572884
v -1.2085844163595385 3 -0.33715143045714352
v -1.2085844163595385 0 -0.33715143045714357
v -1.213832519655393 3 -0.33600554683211753
v -1.213832519655393 0 -0.33600554683211747
v -1.2202297128375497 3 0.38338856687152445
v -1.2202297128375497 0 0.38338856687152456
v -1.2337980649867173 3 -0.33717900310434917
v -1.2337980649867173 0 -0.33717900310434912
v -1.2346492447310675 3 0.018176605484205161
v -1.2346492447310675 0 0.018176605484205133
v -1.2546147900623918 3 0.017003149211973517
v -1.2546147900623918 0 0.017003149211973489
v -1.2593274755760462 3 0.019581178058875187
v -1.2593274755760462 0 0.019581178058875187
v -1.2788148768717509 3 0.02408019914575249
v -1.2788148768717509 0 0.024080199145752462
vn 0.84804809093475342 0 0.52991920709609985
vn 0.84804809093475342 0 0.52991920709609985
vn -0.52991920709609985 0 0.84804809093475342
vn -0.52991920709609985 0 0.84804809093475342
vn 0.74737656116485596 0 -0.66440069675445557
vn 0.74737656116485596 0 -0.66440069675445557
vn -0.66440069675445557 0 -0.74737656116485596
vn -0.66440069675445557 0 -0.74737656116485596
vn 0.66440069675445557 0 0.74737656116485596
vn 0.66440069675445557 0 0.74737656116485596
vn 0.96299171447753906 0 0.26953104138374329
vn 0.96299171447753906 0 0.26953104138374329
vn -0.74737656116485596 0 0.66440069675445557
vn -0.74737656116485596 0 0.66440069675445557
vn 0.90428590774536133 0 -0.42692744731903076
vn 0.90428590774536133 0 -0.42692744731903076
vn -0.26953104138374329 0 0.96299171447753906
vn -0.26953104138374329 0 0.96299171447753906
vn 0.52991920709609985 0 -0.84804809093475342
vn 0.52991920709609985 0 -0.84804809093475342
vn -0.42692744731903076 0 -0.90428590774536133
vn -0.42692744731903076 0 -0.90428590774536133
vn -0.84804809093475342 0 -0.52991920709609985
vn -0.84804809093475342 0 -0.52991920709609985
vn 0.42692744731903076 0 0.90428590774536133
vn 0.42692744731903076 0 0.90428590774536133
vn -0.90428590774536133 0 0.42692744731903076
vn -0.90428590774536133 0 0.42692744731903076
vn 0.98793530464172363 0 -0.15486712753772736
vn 0.98793530464172363 0 -0.15486712753772736
vn 0.99991941452026367 0 -0.012692986056208611
vn 0.99991941452026367 0 -0.012692986056208611
vn 0.012692986056208611 0 0.99991941452026367
vn 0.012692986056208611 0 0.99991941452026367
vn -0.15486712753772736 0 -0.98793530464172363
vn -0.15486712753772736 0 -0.98793530464172363
vn 0.26953104138374329 0 -0.96299171447753906
vn 0.26953104138374329 0 -0.96299171447753906
vn -0.96299171447753906 0 -0.26953104138374329
vn -0.96299171447753906 0 -0.26953104138374329
vn 0.15486712753772736 0 0.98793530464172363
vn 0.15486712753772736 0 0.98793530464172363
vn -0.98793530464172363 0 0.15486712753772736
vn -0.98793530464172363 0 0.15486712753772736
vn 0.99154812097549438 0 0.12973962724208832
vn 0.99154812097549438 0 0.12973962724208832
vn 0.12973962724208832 0 -0.99154812097549438
vn 0.12973962724208832 0 -0.99154812097549438
vn 0.95583963394165039 0 -0.29388868808746338
vn 0.95583963394165039 0 -0.29388868808746338
vn 0.29388868808746338 0 0.95583963394165039
vn 0.29388868808746338 0 0.95583963394165039
vn -0.012692986056208611 0 -0.99991941452026367
vn -0.012692986056208611 0 -0.99991941452026367
vn -0.99991941452026367 0 0.012692986056208611
vn -0.99991941452026367 0 0.012692986056208611
vn -0.12973962724208832 0 0.99154812097549438
vn -0.12973962724208832 0 0.99154812097549438
vn -0.99154812097549438 0 -0.12973962724208832
vn -0.99154812097549438 0 -0.12973962724208832
vn 0.91483157873153687 0 0.40383559465408325
vn 0.91483157873153687 0 0.40383559465408325
vn 0.40383559465408325 0 -0.91483157873153687
vn 0.40383559465408325 0 -0.91483157873153687
vn 0.83432340621948242 0 -0.55127531290054321
vn 0.83432340621948242 0 -0.55127531290054321
vn -0.29388868808746338 0 -0.95583963394165039
vn -0.29388868808746338 0 -0.95583963394165039
vn 0.55127531290054321 0 0.83432340621948242
vn 0.55127531290054321 0 0.83432340621948242
vn -0.95583963394165039 0 0.29388868808746338
vn -0.95583963394165039 0 0.29388868808746338
vn -0.40383559465408325 0 0.91483157873153687
vn -0.40383559465408325 0 0.91483157873153687
vn -0.91483157873153687 0 -0.40383559465408325
vn -0.91483157873153687 0 -0.40383559465408325
vn 0.76400077342987061 0 0.64521527290344238
vn 0.76400077342987061 0 0.64521527290344238
vn 0.64521527290344238 0 -0.76400077342987061
vn 0.64521527290344238 0 -0.76400077342987061
vn -0.55127531290054321 0 -0.83432340621948242
vn -0.55127531290054321 0 -0.83432340621948242
vn 0.76400077342987061 0 0.64521527290344238
vn 0.76400077342987061 0 0.64521527290344238
vn 0.64521527290344238 0 -0.76400077342987061
vn 0.64521527290344238 0 -0.76400077342987061
vn -0.83432340621948242 0 0.55127531290054321
vn -0.83432340621948242 0 0.55127531290054321
vn 0.83432340621948242 0 -0.55127531290054321
vn 0.83432340621948242 0 -0.55127531290054321
vn -0.64521527290344238 0 0.76400077342987061
vn -0.64521527290344238 0 0.76400077342987061
vn -0.76400077342987061 0 -0.64521527290344238
vn -0.76400077342987061 0 -0.64521527290344238
vn 0.55127531290054321 0 0.83432340621948242
vn 0.55127531290054321 0 0.83432340621948242
vn -0.64521527290344238 0 0.76400077342987061
vn -0.64521527290344238 0 0.76400077342987061
vn -0.76400077342987061 0 -0.64521527290344238
vn -0.76400077342987061 0 -0.64521527290344238
vn 0.91483157873153687 0 0.40383559465408325
vn 0.91483157873153687 0 0.40383559465408325
vn 0.40383559465408325 0 -0.91483157873153687
vn 0.40383559465408325 0 -0.91483157873153687
vn 0.95583963394165039 0 -0.29388868808746338
vn 0.95583963394165039 0 -0.29388868808746338
vn -0.55127531290054321 0 -0.83432340621948242
vn -0.55127531290054321 0 -0.83432340621948242
vn 0.29388868808746338 0 0.95583963394165039
vn 0.29388868808746338 0 0.95583963394165039
vn -0.83432340621948242 0 0.55127531290054321
vn -0.83432340621948242 0 0.55127531290054321
vn -0.40383559465408325 0 0.91483157873153687
vn -0.40383559465408325 0 0.91483157873153687
vn -0.91483157873153687 0 -0.40383559465408325
vn -0.91483157873153687 0 -0.40383559465408325
vn 0.99154812097549438 0 0.12973962724208832
vn 0.99154812097549438 0 0.12973962724208832
vn 0.12973962724208832 0 -0.99154812097549438
vn 0.12973962724208832 0 -0.99154812097549438
vn 0.99991941452026367 0 -0.012692986056208611
vn 0.99991941452026367 0 -0.012692986056208611
vn 0.012692986056208611 0 0.99991941452026367
vn 0.012692986056208611 0 0.99991941452026367
vn -0.29388868808746338 0 -0.95583963394165039
vn -0.29388868808746338 0 -0.95583963394165039
vn -0.95583963394165039 0 0.29388868808746338
vn -0.95583963394165039 0 0.29388868808746338
vn -0.12973962724208832 0 0.99154812097549438
vn -0.12973962724208832 0 0.99154812097549438
vn -0.99154812097549438 0 -0.12973962724208832
vn -0.99154812097549438 0 -0.12973962724208832
vn 0.98793530464172363 0 -0.15486712753772736
vn 0.98793530464172363 0 -0.15486712753772736
vn -0.15486712753772736 0 -0.98793530464172363
vn -0.15486712753772736 0 -0.98793530464172363
vn 0.96299171447753906 0 0.26953104138374329
vn 0.96299171447753906 0 0.26953104138374329
vn -0.26953104138374329 0 0.96299171447753906
vn -0.26953104138374329 0 0.96299171447753906
vn 0.15486712753772736 0 0.98793530464172363
vn 0.15486712753772736 0 0.98793530464172363
vn -0.012692986056208611 0 -0.99991941452026367
vn -0.012692986056208611 0 -0.99991941452026367
vn -0.99991941452026367 0 0.012692986056208611
vn -0.99991941452026367 0 0.012692986056208611
vn -0.98793530464172363 0 0.15486712753772736
vn -0.98793530464172363 0 0.15486712753772736
vn 0.90428590774536133 0 -0.42692744731903076
vn 0.90428590774536133 0 -0.42692744731903076
vn -0.42692744731903076 0 -0.90428590774536133
vn -0.42692744731903076 0 -0.90428590774536133
vn 0.84804809093475342 0 0.52991920709609985
vn 0.84804809093475342 0 0.52991920709609985
vn 0.42692744731903076 0 0.90428590774536133
vn 0.42692744731903076 0 0.90428590774536133
vn -0.52991920709609985 0 0.84804809093475342
vn -0.52991920709609985 0 0.84804809093475342
vn 0.26953104138374329 0 -0.96299171447753906
vn 0.26953104138374329 0 -0.96299171447753906
vn -0.90428590774536133 0 0.42692744731903076
vn -0.90428590774536133 0 0.42692744731903076
vn 0.74737656116485596 0 -0.66440069675445557
vn 0.74737656116485596 0 -0.66440069675445557
vn -0.96299171447753906 0 -0.26953104138374329
vn -0.96299171447753906 0 -0.26953104138374329
vn -0.66440069675445557 0 -0.74737656116485596
vn -0.66440069675445557 0 -0.74737656116485596
vn 0.66440069675445557 0 0.74737656116485596
vn 0.66440069675445557 0 0.74737656116485596
vn -0.74737656116485596 0 0.66440069675445557
vn -0.74737656116485596 0 0.66440069675445557
vn 0.52991920709609985 0 -0.84804809093475342
vn 0.52991920709609985 0 -0.84804809093475342
vn -0.84804809093475342 0 -0.52991920709609985
vn -0.84804809093475342 0 -0.52991920709609985
f 2//2 1//1 3//3 4//4
f 4//4 3//3 23//23 24//24
f 24//24 23//23 19//19 20//20
f 20//20 19//19 1//1 2//2
f 12//12 11//11 17//17 18//18
f 18//18 17//17 39//39 40//40
f 40//40 39//39 37//37 38//38
f 38//38 37//37 11//11 12//12
f 32//32 31//31 33//33 34//34
f 34//34 33//33 55//55 56//56
f 56//56 55//55 53//53 54//54
f 54//54 53//53 31//31 32//32
f 50//50 49//49 51//51 52//52
f 52//52 51//51 71//71 72//72
f 72//72 71//71 67//67 68//68
f 68//68 67//67 49//49 50//50
f 66//66 65//65 69//69 70//70
f 70//70 69//69 87//87 88//88
f 88//88 87//87 81//81 82//82
f 82//82 81//81 65//65 66//66
f 86//86 85//85 83//83 84//84
f 84//84 83//83 97//97 98//98
f 98//98 97//97 99//99 100//100
f 100//100 99//99 85//85 86//86
f 104//104 103//103 101//101 102//102
f 102//102 101//101 113//113 114//114
f 114//114 113//113 115//115 116//116
f 116//116 115//115 103//103 104//104
f 120//120 119//119 117//117 118//118
f 118//118 117//117 129//129 130//130
f 130//130 129//129 131//131 132//132
f 132//132 131//131 119//119 120//120
f 136//136 135//135 133//133 134//134
f 134//134 133//133 141//141 142//142
f 142//142 141//141 147//147 148//148
f 148//148 147//147 135//135 136//136
f 152//152 151//151 149//149 150//150
f 150//150 149//149 155//155 156//156
f 156//156 155//155 161//161 162//162
f 162//162 161//161 151//151 152//152
f 168//168 167//167 163//163 164//164
f 164//164 163//163 169//169 170//170
f 170//170 169//169 171//171 172//172
f 172//172 171//171 167//167 168//168
f 176//176 175//175 173//173 174//174
f 174//174 173//173 153//153 154//154
f 154//154 153//153 157//157 158//158
f 158//158 157//157 175//175 176//176
f 166//166 165//165 159//159 160//160
f 160//160 159//159 137//137 138//138
f 138//138 137//137 139//139 140//140
f 140//140 139//139 165//165 166//166
f 146//146 145//145 143//143 144//144
f 144//144 143//143 121//121 122//122
f 122//122 121//121 123//123 124//124
f 124//124 123//123 145//145 146//146
f 128//128 127//127 125//125 126//126
f 126//126 125//125 105//105 106//106
f 106//106 105//105 109//109 110//110
f 110//110 109//109 127//127 128//128
f 112//112 111//111 107//107 108//108
f 108//108 107//107 89//89 90//90
f 90//90 89//89 95//95 96//96
f 96//96 95//95 111//111 112//112
f 92//92 91//91 93//93 94//94
f 94//94 93//93 79//79 80//80
f 80//80 79//79 77//77 78//78
f 78//78 77//77 91//91 92//92
f 74//74 73//73 75//75 76//76
f 76//76 75//75 63//63 64//64
f 64//64 63//63 61//61 62//62
f 62//62 61//61 73//73 74//74
f 58//58 57//57 59//59 60//60
f 60//60 59//59 47//47 48//48
f 48//48 47//47 45//45 46//46
f 46//46 45//45 57//57 58//58
f 42//42 41//41 43//43 44//44
f 44//44 43//43 35//35 36//36
f 36//36 35//35 29//29 30//30
f 30//30 29//29 41//41 42//42
f 26//26 25//25 27//27 28//28
f 28//28 27//27 21//21 22//22
f 22//22 21//21 15//15 16//16
f 16//16 15//15 25//25 26//26
f 10//10 9//9 13//13 14//14
f 14//14 13//13 7//7 8//8
f 8//8 7//7 5//5 6//6
f 6//6 5//5 9//9 10//10
