# Rhino

mtllib Frangisole48.mtl
usemtl diffuse_Black
v 1.383389372797591 3 -0.10645025369799892
v 1.383389372797591 0 -0.10645025369799889
v 1.3724965920972905 3 -0.089676842339090526
v 1.3724965920972905 0 -0.089676842339090526
v 1.3573428851230118 3 0.28760755464281407
v 1.3573428851230118 0 0.28760755464281412
v 1.3421657225088517 3 0.30063267402742361
v 1.3421657225088517 0 0.30063267402742366
v 1.2973618808214993 3 -0.49188409556823759
v 1.2973618808214991 0 -0.49188409556823764
v 1.2916359503455355 3 -0.47272127426801075
v 1.2916359503455355 0 -0.4727212742680108
v 1.2213325493247282 3 0.65836510937445658
v 1.2213325493247282 0 0.65836510937445658
v 1.2031005682496461 3 0.66658671907559386
v 1.2031005682496461 0 0.66658671907559397
v 1.1262815872089347 3 0.018369723592716297
v 1.1262815872089347 0 0.018369723592716242
v 1.1111044245947745 3 0.03139484297732581
v 1.1111044245947745 0 0.031394842977325754
v 1.1062298449694437 3 -0.83746841336289313
v 1.1062298449694437 0 -0.83746841336289313
v 1.1061346455515597 3 -0.81746863993740582
v 1.1061346455515597 0 -0.81746863993740582
v 1.0858346184346033 3 -0.29968457057334341
v 1.0858346184346033 0 -0.29968457057334336
v 1.0754839200421102 3 0.33493581200224831
v 1.0754839200421102 0 0.3349358120022482
v 1.0749418377343027 3 -0.28291115921443499
v 1.0749418377343027 0 -0.28291115921443499
v 1.0572519389670281 3 0.34315742170338565
v 1.0572519389670281 0 0.34315742170338559
v 0.98637711392450467 3 0.97578583839264921
v 0.98637711392450467 0 0.97578583839264921
v 0.96656736106543695 3 0.97853787248812374
v 0.96656736106543695 0 0.97853787248812374
v 0.95741978658182691 3 -0.5934602031243198
v 0.9574197865818268 0 -0.5934602031243198
v 0.95169385610586332 3 -0.57429738182409296
v 0.95169385610586321 0 -0.57429738182409296
v 0.9375569418226265 3 0.62436739286333154
v 0.9375569418226265 0 0.62436739286333154
v 0.91774718896355878 3 0.62711942695880607
v 0.91774718896355878 0 0.62711942695880607
v 0.83102089021103254 3 -1.0959895580722698
v 0.83102089021103243 0 -1.0959895580722698
v 0.82547764608017249 3 -1.1152060209233172
v 0.82547764608017238 0 -1.1152060209233172
v 0.75144049761490561 3 -0.83915721946189126
v 0.75144049761490561 0 -0.83915721946189126
v 0.75134529819702167 3 -0.81915744603640395
v 0.75134529819702167 0 -0.81915744603640395
v 0.72367467604250246 3 0.86321644081048898
v 0.72367467604250246 0 0.86321644081048898
v 0.70389201976295446 3 0.86027594586486256
v 0.70389201976295446 0 0.86027594586486256
v 0.67151127096468988 3 1.2141542020060991
v 0.67151127096468988 0 1.2141542020060991
v 0.65172861468514187 3 1.2112137070604727
v 0.65172861468514187 0 1.2112137070604727
v 0.49012721265079995 3 -0.99765424568775962
v 0.49012721265079995 0 -0.99765424568775962
v 0.48858276461714123 3 -1.2857199203129961
v 0.48858276461714123 0 -1.2857199203129961
v 0.4845839685199399 3 -1.0168707085388071
v 0.4845839685199399 0 -1.0168707085388071
v 0.47785015761007732 3 -1.3025962690541166
v 0.47785015761007726 0 -1.3025962690541166
v 0.45116459186843039 3 1.0321328264690268
v 0.45116459186843033 0 1.0321328264690268
v 0.43301170532818395 3 1.0237380238949969
v 0.43301170532818395 0 1.0237380238949969
v 0.30224357846261574 3 1.3541590130260897
v 0.30224357846261579 0 1.3541590130260897
v 0.28409069192236935 3 1.3457642104520597
v 0.28409069192236941 0 1.3457642104520597
v 0.18920193523438078 3 -1.0953270316317498
v 0.18920193523438081 0 -1.0953270316317498
v 0.17846932822731681 3 -1.1122033803728704
v 0.17846932822731684 0 -1.1122033803728704
v 0.14210383564032086 3 1.1174319488573154
v 0.14210383564032086 0 1.1174319488573154
v 0.12705135774749376 3 1.1042629356336169
v 0.12705135774749379 0 1.1042629356336169
v 0.10656256914755351 3 -1.371288901080753
v 0.10656256914755348 0 -1.371288901080753
v 0.091510091254726339 3 -1.3844579143044518
v 0.091510091254726367 0 -1.3844579143044515
v -0.09151009125472509 3 1.3844579143044515
v -0.091510091254725104 0 1.3844579143044515
v -0.10656256914755219 3 1.371288901080753
v -0.10656256914755217 0 1.371288901080753
v -0.1270513577474926 3 -1.1042629356336171
v -0.12705135774749263 0 -1.1042629356336171
v -0.14210383564031975 3 -1.1174319488573159
v -0.14210383564031975 0 -1.1174319488573159
v -0.17846932822731562 3 1.1122033803728706
v -0.17846932822731568 0 1.1122033803728706
v -0.18920193523437953 3 1.0953270316317503
v -0.18920193523437964 0 1.0953270316317503
v -0.28409069192236841 3 -1.34576421045206
v -0.28409069192236841 0 -1.34576421045206
v -0.30224357846261468 3 -1.3541590130260899
v -0.30224357846261468 0 -1.3541590130260899
v -0.43301170532818317 3 -1.0237380238949974
v -0.43301170532818323 0 -1.0237380238949974
v -0.45116459186842944 3 -1.0321328264690273
v -0.4511645918684295 0 -1.0321328264690273
v -0.47785015761007615 3 1.3025962690541173
v -0.4778501576100761 0 1.3025962690541173
v -0.48458396851993879 3 1.0168707085388076
v -0.48458396851993879 0 1.0168707085388076
v -0.48858276461714006 3 1.285719920312997
v -0.48858276461714001 0 1.285719920312997
v -0.49012721265079884 3 0.9976542456877604
v -0.49012721265079895 0 0.9976542456877604
v -0.65172861468513998 3 -1.2112137070604738
v -0.65172861468513998 0 -1.2112137070604738
v -0.67151127096468788 3 -1.2141542020061002
v -0.67151127096468788 0 -1.2141542020061002
v -0.70389201976295324 3 -0.86027594586486367
v -0.70389201976295324 0 -0.86027594586486378
v -0.72367467604250113 3 -0.86321644081049009
v -0.72367467604250113 0 -0.8632164408104902
v -0.75134529819702078 3 0.81915744603640461
v -0.75134529819702078 0 0.81915744603640461
v -0.75144049761490472 3 0.83915721946189192
v -0.75144049761490472 0 0.83915721946189192
v -0.82547764608017138 3 1.1152060209233179
v -0.82547764608017116 0 1.1152060209233179
v -0.83102089021103143 3 1.0959895580722707
v -0.83102089021103143 0 1.0959895580722707
v -0.91774718896355789 3 -0.62711942695880718
v -0.91774718896355789 0 -0.62711942695880718
v -0.93755694182262561 3 -0.62436739286333265
v -0.93755694182262561 0 -0.62436739286333265
v -0.95169385610586299 3 0.57429738182409373
v -0.95169385610586288 0 0.57429738182409373
v -0.95741978658182658 3 0.59346020312432057
v -0.95741978658182647 0 0.59346020312432057
v -0.96656736106543573 3 -0.97853787248812496
v -0.96656736106543573 0 -0.97853787248812496
v -0.98637711392450345 3 -0.97578583839265043
v -0.98637711392450345 0 -0.97578583839265043
v -1.0572519389670274 3 -0.34315742170338742
v -1.0572519389670274 0 -0.34315742170338742
v -1.0749418377343027 3 0.28291115921443499
v -1.0749418377343027 0 0.28291115921443499
v -1.0754839200421098 3 -0.33493581200225009
v -1.0754839200421098 0 -0.33493581200225009
v -1.0858346184346033 3 0.29968457057334341
v -1.0858346184346033 0 0.29968457057334336
v -1.1061346455515588 3 0.8174686399374067
v -1.1061346455515588 0 0.8174686399374067
v -1.1062298449694428 3 0.83746841336289402
v -1.1062298449694428 0 0.83746841336289402
v -1.1111044245947743 3 -0.031394842977327586
v -1.1111044245947743 0 -0.031394842977327642
v -1.1262815872089345 3 -0.018369723592718101
v -1.1262815872089345 0 -0.018369723592718101
v -1.203100568249645 3 -0.66658671907559597
v -1.203100568249645 0 -0.66658671907559608
v -1.2213325493247273 3 -0.65836510937445869
v -1.2213325493247273 0 -0.65836510937445869
v -1.2916359503455352 3 0.47272127426801169
v -1.2916359503455352 0 0.47272127426801169
v -1.2973618808214988 3 0.49188409556823853
v -1.2973618808214988 0 0.49188409556823853
v -1.342165722508851 3 -0.30063267402742594
v -1.342165722508851 0 -0.30063267402742588
v -1.3573428851230112 3 -0.28760755464281645
v -1.3573428851230112 0 -0.2876075546428164
v -1.3724965920972905 3 0.089676842339090526
v -1.3724965920972905 0 0.089676842339090526
v -1.383389372797591 3 0.10645025369799892
v -1.383389372797591 0 0.10645025369799889
vn 0.97814762592315674 0 -0.20791167020797729
vn 0.97814762592315674 0 -0.20791167020797729
vn 0.20791167020797729 0 0.97814762592315674
vn 0.20791167020797729 0 0.97814762592315674
vn 0.99710124731063843 0 0.076086230576038361
vn 0.99710124731063843 0 0.076086230576038361
vn -0.076086230576038361 0 0.99710124731063843
vn -0.076086230576038361 0 0.99710124731063843
vn 0.87995022535324097 0 -0.47506585717201233
vn 0.87995022535324097 0 -0.47506585717201233
vn 0.47506585717201233 0 0.87995022535324097
vn 0.47506585717201233 0 0.87995022535324097
vn 0.93527567386627197 0 0.35392007231712341
vn 0.93527567386627197 0 0.35392007231712341
vn -0.35392007231712341 0 0.93527567386627197
vn -0.35392007231712341 0 0.93527567386627197
vn 0.076086230576038361 0 -0.99710124731063843
vn 0.076086230576038361 0 -0.99710124731063843
vn -0.99710124731063843 0 -0.076086230576038361
vn -0.99710124731063843 0 -0.076086230576038361
vn 0.71046459674835205 0 -0.70373296737670898
vn 0.71046459674835205 0 -0.70373296737670898
vn 0.70373296737670898 0 0.71046459674835205
vn 0.70373296737670898 0 0.71046459674835205
vn -0.20791167020797729 0 -0.97814762592315674
vn -0.20791167020797729 0 -0.97814762592315674
vn 0.35392007231712341 0 -0.93527567386627197
vn 0.35392007231712341 0 -0.93527567386627197
vn -0.97814762592315674 0 0.20791167020797729
vn -0.97814762592315674 0 0.20791167020797729
vn -0.93527567386627197 0 -0.35392007231712341
vn -0.93527567386627197 0 -0.35392007231712341
vn 0.797679603099823 0 0.60308146476745605
vn 0.797679603099823 0 0.60308146476745605
vn -0.60308146476745605 0 0.797679603099823
vn -0.60308146476745605 0 0.797679603099823
vn -0.47506585717201233 0 -0.87995022535324097
vn -0.47506585717201233 0 -0.87995022535324097
vn -0.87995022535324097 0 0.47506585717201233
vn -0.87995022535324097 0 0.47506585717201233
vn 0.60308146476745605 0 -0.797679603099823
vn 0.60308146476745605 0 -0.797679603099823
vn -0.797679603099823 0 -0.60308146476745605
vn -0.797679603099823 0 -0.60308146476745605
vn 0.87538784742355347 0 0.48342126607894897
vn 0.87538784742355347 0 0.48342126607894897
vn 0.48342126607894897 0 -0.87538784742355347
vn 0.48342126607894897 0 -0.87538784742355347
vn -0.70373296737670898 0 -0.71046459674835205
vn -0.70373296737670898 0 -0.71046459674835205
vn -0.71046459674835205 0 0.70373296737670898
vn -0.71046459674835205 0 0.70373296737670898
vn 0.80338472127914429 0 -0.59546035528182983
vn 0.80338472127914429 0 -0.59546035528182983
vn -0.59546035528182983 0 -0.80338472127914429
vn -0.59546035528182983 0 -0.80338472127914429
vn 0.59546035528182983 0 0.80338472127914429
vn 0.59546035528182983 0 0.80338472127914429
vn -0.80338472127914429 0 0.59546035528182983
vn -0.80338472127914429 0 0.59546035528182983
vn -0.48342126607894897 0 0.87538784742355347
vn -0.48342126607894897 0 0.87538784742355347
vn 0.97612398862838745 0 0.21721407771110535
vn 0.97612398862838745 0 0.21721407771110535
vn -0.87538784742355347 0 -0.48342126607894897
vn -0.87538784742355347 0 -0.48342126607894897
vn 0.21721407771110535 0 -0.97612398862838745
vn 0.21721407771110535 0 -0.97612398862838745
vn 0.93860256671905518 0 -0.34500035643577576
vn 0.93860256671905518 0 -0.34500035643577576
vn -0.34500035643577576 0 -0.93860256671905518
vn -0.34500035643577576 0 -0.93860256671905518
vn 0.34500035643577576 0 0.93860256671905518
vn 0.34500035643577576 0 0.93860256671905518
vn -0.93860256671905518 0 0.34500035643577576
vn -0.93860256671905518 0 0.34500035643577576
vn -0.21721407771110535 0 0.97612398862838745
vn -0.21721407771110535 0 0.97612398862838745
vn -0.97612398862838745 0 -0.21721407771110535
vn -0.97612398862838745 0 -0.21721407771110535
vn 0.99778038263320923 0 -0.066590540111064911
vn 0.99778038263320923 0 -0.066590540111064911
vn -0.066590540111064911 0 -0.99778038263320923
vn -0.066590540111064911 0 -0.99778038263320923
vn 0.99778038263320923 0 -0.066590540111064911
vn 0.99778038263320923 0 -0.066590540111064911
vn -0.066590540111064911 0 -0.99778038263320923
vn -0.066590540111064911 0 -0.99778038263320923
vn 0.066590540111064911 0 0.99778038263320923
vn 0.066590540111064911 0 0.99778038263320923
vn -0.99778038263320923 0 0.066590540111064911
vn -0.99778038263320923 0 0.066590540111064911
vn 0.066590540111064911 0 0.99778038263320923
vn 0.066590540111064911 0 0.99778038263320923
vn -0.99778038263320923 0 0.066590540111064911
vn -0.99778038263320923 0 0.066590540111064911
vn 0.97612398862838745 0 0.21721407771110535
vn 0.97612398862838745 0 0.21721407771110535
vn 0.21721407771110535 0 -0.97612398862838745
vn 0.21721407771110535 0 -0.97612398862838745
vn 0.93860256671905518 0 -0.34500035643577576
vn 0.93860256671905518 0 -0.34500035643577576
vn -0.34500035643577576 0 -0.93860256671905518
vn -0.34500035643577576 0 -0.93860256671905518
vn 0.34500035643577576 0 0.93860256671905518
vn 0.34500035643577576 0 0.93860256671905518
vn -0.93860256671905518 0 0.34500035643577576
vn -0.93860256671905518 0 0.34500035643577576
vn -0.21721407771110535 0 0.97612398862838745
vn -0.21721407771110535 0 0.97612398862838745
vn 0.87538784742355347 0 0.48342126607894897
vn 0.87538784742355347 0 0.48342126607894897
vn -0.97612398862838745 0 -0.21721407771110535
vn -0.97612398862838745 0 -0.21721407771110535
vn 0.48342126607894897 0 -0.87538784742355347
vn 0.48342126607894897 0 -0.87538784742355347
vn 0.80338472127914429 0 -0.59546035528182983
vn 0.80338472127914429 0 -0.59546035528182983
vn -0.59546035528182983 0 -0.80338472127914429
vn -0.59546035528182983 0 -0.80338472127914429
vn 0.59546035528182983 0 0.80338472127914429
vn 0.59546035528182983 0 0.80338472127914429
vn -0.80338472127914429 0 0.59546035528182983
vn -0.80338472127914429 0 0.59546035528182983
vn 0.71046459674835205 0 -0.70373296737670898
vn 0.71046459674835205 0 -0.70373296737670898
vn 0.70373296737670898 0 0.71046459674835205
vn 0.70373296737670898 0 0.71046459674835205
vn -0.48342126607894897 0 0.87538784742355347
vn -0.48342126607894897 0 0.87538784742355347
vn -0.87538784742355347 0 -0.48342126607894897
vn -0.87538784742355347 0 -0.48342126607894897
vn 0.797679603099823 0 0.60308146476745605
vn 0.797679603099823 0 0.60308146476745605
vn -0.60308146476745605 0 0.797679603099823
vn -0.60308146476745605 0 0.797679603099823
vn 0.87995022535324097 0 -0.47506585717201233
vn 0.87995022535324097 0 -0.47506585717201233
vn 0.47506585717201233 0 0.87995022535324097
vn 0.47506585717201233 0 0.87995022535324097
vn 0.60308146476745605 0 -0.797679603099823
vn 0.60308146476745605 0 -0.797679603099823
vn -0.797679603099823 0 -0.60308146476745605
vn -0.797679603099823 0 -0.60308146476745605
vn 0.93527567386627197 0 0.35392007231712341
vn 0.93527567386627197 0 0.35392007231712341
vn 0.97814762592315674 0 -0.20791167020797729
vn 0.97814762592315674 0 -0.20791167020797729
vn -0.35392007231712341 0 0.93527567386627197
vn -0.35392007231712341 0 0.93527567386627197
vn 0.20791167020797729 0 0.97814762592315674
vn 0.20791167020797729 0 0.97814762592315674
vn -0.70373296737670898 0 -0.71046459674835205
vn -0.70373296737670898 0 -0.71046459674835205
vn -0.71046459674835205 0 0.70373296737670898
vn -0.71046459674835205 0 0.70373296737670898
vn 0.99710124731063843 0 0.076086230576038361
vn 0.99710124731063843 0 0.076086230576038361
vn -0.076086230576038361 0 0.99710124731063843
vn -0.076086230576038361 0 0.99710124731063843
vn 0.35392007231712341 0 -0.93527567386627197
vn 0.35392007231712341 0 -0.93527567386627197
vn -0.93527567386627197 0 -0.35392007231712341
vn -0.93527567386627197 0 -0.35392007231712341
vn -0.47506585717201233 0 -0.87995022535324097
vn -0.47506585717201233 0 -0.87995022535324097
vn -0.87995022535324097 0 0.47506585717201233
vn -0.87995022535324097 0 0.47506585717201233
vn 0.076086230576038361 0 -0.99710124731063843
vn 0.076086230576038361 0 -0.99710124731063843
vn -0.99710124731063843 0 -0.076086230576038361
vn -0.99710124731063843 0 -0.076086230576038361
vn -0.20791167020797729 0 -0.97814762592315674
vn -0.20791167020797729 0 -0.97814762592315674
vn -0.97814762592315674 0 0.20791167020797729
vn -0.97814762592315674 0 0.20791167020797729
f 2//2 1//1 3//3 4//4
f 4//4 3//3 29//29 30//30
f 30//30 29//29 25//25 26//26
f 26//26 25//25 1//1 2//2
f 10//10 9//9 11//11 12//12
f 12//12 11//11 39//39 40//40
f 40//40 39//39 37//37 38//38
f 38//38 37//37 9//9 10//10
f 22//22 21//21 23//23 24//24
f 24//24 23//23 51//51 52//52
f 52//52 51//51 49//49 50//50
f 50//50 49//49 21//21 22//22
f 48//48 47//47 45//45 46//46
f 46//46 45//45 61//61 62//62
f 62//62 61//61 65//65 66//66
f 66//66 65//65 47//47 48//48
f 68//68 67//67 63//63 64//64
f 64//64 63//63 77//77 78//78
f 78//78 77//77 79//79 80//80
f 80//80 79//79 67//67 68//68
f 88//88 87//87 85//85 86//86
f 86//86 85//85 93//93 94//94
f 94//94 93//93 95//95 96//96
f 96//96 95//95 87//87 88//88
f 104//104 103//103 101//101 102//102
f 102//102 101//101 105//105 106//106
f 106//106 105//105 107//107 108//108
f 108//108 107//107 103//103 104//104
f 120//120 119//119 117//117 118//118
f 118//118 117//117 121//121 122//122
f 122//122 121//121 123//123 124//124
f 124//124 123//123 119//119 120//120
f 144//144 143//143 141//141 142//142
f 142//142 141//141 133//133 134//134
f 134//134 133//133 135//135 136//136
f 136//136 135//135 143//143 144//144
f 164//164 163//163 161//161 162//162
f 162//162 161//161 145//145 146//146
f 146//146 145//145 149//149 150//150
f 150//150 149//149 163//163 164//164
f 172//172 171//171 169//169 170//170
f 170//170 169//169 157//157 158//158
f 158//158 157//157 159//159 160//160
f 160//160 159//159 171//171 172//172
f 176//176 175//175 173//173 174//174
f 174//174 173//173 147//147 148//148
f 148//148 147//147 151//151 152//152
f 152//152 151//151 175//175 176//176
f 168//168 167//167 165//165 166//166
f 166//166 165//165 137//137 138//138
f 138//138 137//137 139//139 140//140
f 140//140 139//139 167//167 168//168
f 156//156 155//155 153//153 154//154
f 154//154 153//153 125//125 126//126
f 126//126 125//125 127//127 128//128
f 128//128 127//127 155//155 156//156
f 130//130 129//129 131//131 132//132
f 132//132 131//131 115//115 116//116
f 116//116 115//115 111//111 112//112
f 112//112 111//111 129//129 130//130
f 110//110 109//109 113//113 114//114
f 114//114 113//113 99//99 100//100
f 100//100 99//99 97//97 98//98
f 98//98 97//97 109//109 110//110
f 90//90 89//89 91//91 92//92
f 92//92 91//91 83//83 84//84
f 84//84 83//83 81//81 82//82
f 82//82 81//81 89//89 90//90
f 74//74 73//73 75//75 76//76
f 76//76 75//75 71//71 72//72
f 72//72 71//71 69//69 70//70
f 70//70 69//69 73//73 74//74
f 58//58 57//57 59//59 60//60
f 60//60 59//59 55//55 56//56
f 56//56 55//55 53//53 54//54
f 54//54 53//53 57//57 58//58
f 34//34 33//33 35//35 36//36
f 36//36 35//35 43//43 44//44
f 44//44 43//43 41//41 42//42
f 42//42 41//41 33//33 34//34
f 14//14 13//13 15//15 16//16
f 16//16 15//15 31//31 32//32
f 32//32 31//31 27//27 28//28
f 28//28 27//27 13//13 14//14
f 6//6 5//5 7//7 8//8
f 8//8 7//7 19//19 20//20
f 20//20 19//19 17//17 18//18
f 18//18 17//17 5//5 6//6
