# Rhino

mtllib Frangisole33.mtl
usemtl diffuse_Black
v 1.3552986038205179 3 -0.069540585227223284
v 1.3552986038205179 0 -0.069540585227223284
v 1.3404357073109703 3 -0.05615797310004636
v 1.3404357073109703 0 -0.05615797310004636
v 1.3199913343956409 3 0.31510803803141135
v 1.3199913343956409 0 0.31510803803141141
v 1.301960172095364 3 0.32376119850034135
v 1.301960172095364 0 0.32376119850034135
v 1.2808076406350106 3 -0.44855544384453516
v 1.2808076406350106 0 -0.44855544384453516
v 1.2703171133983466 3 -0.43152755970419632
v 1.2703171133983466 0 -0.43152755970419632
v 1.1777462173487661 3 0.67422848206840313
v 1.1777462173487661 0 0.67422848206840325
v 1.1664871376224215 3 -0.0047588008802016413
v 1.1664871376224215 0 -0.004758800880201669
v 1.1580075667918768 3 0.67745116328022037
v 1.1580075667918768 0 0.67745116328022048
v 1.1484559753221446 3 0.00389435958872833
v 1.1484559753221446 0 0.00389435958872833
v 1.1205769214998793 3 0.32407136779762147
v 1.1205769214998793 0 0.32407136779762141
v 1.1178955032209228 3 -0.33320343981238754
v 1.1178955032209228 0 -0.33320343981238754
v 1.1030326067113752 3 -0.31982082768521058
v 1.1030326067113752 0 -0.31982082768521064
v 1.1025532596615915 3 -0.79123100806350433
v 1.1025532596615915 0 -0.79123100806350433
v 1.10083827094299 3 0.3272940490094387
v 1.10083827094299 0 0.32729404900943865
v 1.0972849818249584 3 -0.7719373498143276
v 1.0972849818249584 0 -0.7719373498143276
v 0.98388422752497462 3 0.62664720158311682
v 0.98388422752497462 0 0.62664720158311682
v 0.97873862352901464 3 -0.63465391768813428
v 0.97873862352901475 0 -0.63465391768813428
v 0.96824809629235087 3 -0.61762603354779544
v 0.96824809629235098 0 -0.61762603354779544
v 0.96403719678931743 3 0.62417832107206306
v 0.96403719678931743 0 0.62417832107206306
v 0.94008710609874568 3 0.97872694427939178
v 0.94008710609874568 0 0.97872694427939178
v 0.92024007536308849 3 0.97625806376833801
v 0.92024007536308849 0 0.97625806376833801
v 0.8353573468291714 3 -1.0498093667306909
v 0.8353573468291714 0 -1.0498093667306909
v 0.83497657072710452 3 -1.069805741641161
v 0.83497657072710452 0 -1.069805741641161
v 0.76748308482080252 3 0.8784558059107539
v 0.76748308482080252 0 0.87845580591075401
v 0.76029016134150629 3 -0.88468850958496914
v 0.76029016134150618 0 -0.88468850958496914
v 0.7550218835048732 3 -0.86539485133579241
v 0.7550218835048732 0 -0.86539485133579241
v 0.74913556230174361 3 0.8704953776928368
v 0.74913556230174361 0 0.87049537769283691
v 0.62626772842590073 3 1.203934770178124
v 0.62626772842590073 0 1.203934770178124
v 0.60792020590684182 3 1.1959743419602069
v 0.60792020590684182 0 1.1959743419602069
v 0.505754027654719 3 -1.2426320722112385
v 0.505754027654719 0 -1.2426320722112385
v 0.4997550458291789 3 -1.2617111764107762
v 0.4997550458291789 0 -1.2617111764107762
v 0.48890502698210303 3 1.059097145221342
v 0.48890502698210303 0 1.059097145221342
v 0.48062828800386748 3 -1.0430545249699152
v 0.48062828800386748 0 -1.0430545249699152
v 0.48024751190180059 3 -1.0630508998803854
v 0.48024751190180059 0 -1.0630508998803854
v 0.4735434198372187 3 1.0462900758482878
v 0.47354341983721865 0 1.0462900758482878
v 0.26171186395358098 3 1.3316069610727981
v 0.26171186395358098 0 1.3316069610727981
v 0.2463502568086966 3 1.3187998916997439
v 0.2463502568086966 0 1.3187998916997439
v 0.1707187914874666 3 1.1539367325193468
v 0.17071879148746658 0 1.1539367325193468
v 0.16729704701527881 3 -1.1362121242750898
v 0.16729704701527887 0 -1.1362121242750898
v 0.16129806518973877 3 -1.1552912284746275
v 0.16129806518973877 0 -1.1552912284746275
v 0.1595876057686399 3 1.137320574585186
v 0.1595876057686399 0 1.137320574585186
v 0.13517752499469907 3 -1.3347841174187212
v 0.13517752499469907 0 -1.3347841174187212
v 0.12404633927587239 3 -1.351400275352882
v 0.12404633927587241 0 -1.351400275352882
v -0.12404633927587112 3 1.3514002753528822
v -0.12404633927587108 0 1.3514002753528822
v -0.13517752499469785 3 1.3347841174187214
v -0.13517752499469776 0 1.3347841174187214
v -0.15958760576863881 3 -1.1373205745851862
v -0.15958760576863884 0 -1.1373205745851862
v -0.16129806518973763 3 1.155291228474628
v -0.1612980651897376 0 1.155291228474628
v -0.16729704701527778 3 1.13621212427509
v -0.16729704701527776 0 1.13621212427509
v -0.17071879148746549 3 -1.153936732519347
v -0.17071879148746549 0 -1.153936732519347
v -0.2463502568086956 3 -1.3187998916997441
v -0.2463502568086956 0 -1.3187998916997441
v -0.26171186395357998 3 -1.3316069610727983
v -0.26171186395358004 0 -1.3316069610727983
v -0.47354341983721793 3 -1.0462900758482883
v -0.47354341983721782 0 -1.0462900758482883
v -0.48024751190179948 3 1.063050899880386
v -0.48024751190179948 0 1.063050899880386
v -0.48062828800386637 3 1.0430545249699159
v -0.48062828800386637 0 1.0430545249699159
v -0.48890502698210225 3 -1.0590971452213425
v -0.48890502698210225 0 -1.0590971452213425
v -0.49975504582917774 3 1.2617111764107769
v -0.49975504582917774 0 1.2617111764107769
v -0.50575402765471789 3 1.2426320722112389
v -0.50575402765471789 0 1.2426320722112389
v -0.60792020590683982 3 -1.195974341960208
v -0.60792020590683971 0 -1.195974341960208
v -0.62626772842589873 3 -1.2039347701781251
v -0.62626772842589862 0 -1.2039347701781251
v -0.74913556230174216 3 -0.87049537769283813
v -0.74913556230174216 0 -0.87049537769283825
v -0.75502188350487232 3 0.86539485133579319
v -0.75502188350487232 0 0.86539485133579319
v -0.76029016134150518 3 0.88468850958496992
v -0.76029016134150529 0 0.88468850958496992
v -0.76748308482080108 3 -0.87845580591075523
v -0.76748308482080108 0 -0.87845580591075534
v -0.83497657072710341 3 1.0698057416411622
v -0.83497657072710341 0 1.0698057416411622
v -0.83535734682917029 3 1.049809366730692
v -0.83535734682917029 0 1.049809366730692
v -0.92024007536308716 3 -0.97625806376833901
v -0.92024007536308716 0 -0.97625806376833912
v -0.94008710609874435 3 -0.97872694427939289
v -0.94008710609874435 0 -0.97872694427939289
v -0.96403719678931654 3 -0.62417832107206417
v -0.96403719678931654 0 -0.62417832107206428
v -0.96824809629235098 3 0.6176260335477961
v -0.96824809629235098 0 0.6176260335477961
v -0.97873862352901453 3 0.63465391768813473
v -0.97873862352901453 0 0.63465391768813484
v -0.98388422752497373 3 -0.62664720158311815
v -0.98388422752497373 0 -0.62664720158311804
v -1.0972849818249577 3 0.7719373498143286
v -1.0972849818249577 0 0.7719373498143286
v -1.1008382709429894 3 -0.32729404900944048
v -1.1008382709429894 0 -0.32729404900944048
v -1.1025532596615906 3 0.79123100806350533
v -1.1025532596615906 0 0.79123100806350533
v -1.1030326067113752 3 0.31982082768521058
v -1.1030326067113752 0 0.31982082768521064
v -1.1178955032209228 3 0.33320343981238754
v -1.1178955032209228 0 0.33320343981238754
v -1.1205769214998789 3 -0.32407136779762324
v -1.1205769214998789 0 -0.32407136779762324
v -1.1484559753221444 3 -0.0038943595887303284
v -1.1484559753221444 0 -0.0038943595887303284
v -1.1580075667918757 3 -0.67745116328022259
v -1.1580075667918757 0 -0.67745116328022259
v -1.1664871376224215 3 0.0047588008801996984
v -1.1664871376224215 0 0.0047588008801996706
v -1.1777462173487652 3 -0.67422848206840535
v -1.1777462173487652 0 -0.67422848206840535
v -1.2703171133983466 3 0.43152755970419737
v -1.2703171133983466 0 0.43152755970419732
v -1.2808076406350102 3 0.44855544384453599
v -1.2808076406350102 0 0.44855544384453605
v -1.3019601720953633 3 -0.32376119850034357
v -1.3019601720953633 0 -0.32376119850034352
v -1.3199913343956404 3 -0.31510803803141352
v -1.3199913343956404 0 -0.31510803803141352
v -1.3404357073109703 3 0.05615797310004636
v -1.3404357073109703 0 0.05615797310004636
v -1.3552986038205179 3 0.069540585227223284
v -1.3552986038205179 0 0.069540585227223284
vn 0.99862951040267944 0 0.052335932850837708
vn 0.99862951040267944 0 0.052335932850837708
vn -0.052335932850837708 0 0.99862951040267944
vn -0.052335932850837708 0 0.99862951040267944
vn 0.94343328475952148 0 0.33156242966651917
vn 0.94343328475952148 0 0.33156242966651917
vn -0.33156242966651917 0 0.94343328475952148
vn -0.33156242966651917 0 0.94343328475952148
vn 0.97292274236679077 0 -0.23113049566745758
vn 0.97292274236679077 0 -0.23113049566745758
vn 0.23113049566745758 0 0.97292274236679077
vn 0.23113049566745758 0 0.97292274236679077
vn 0.81180566549301147 0 0.5839276909828186
vn 0.81180566549301147 0 0.5839276909828186
vn 0.33156242966651917 0 -0.94343328475952148
vn 0.33156242966651917 0 -0.94343328475952148
vn -0.5839276909828186 0 0.81180566549301147
vn -0.5839276909828186 0 0.81180566549301147
vn -0.94343328475952148 0 -0.33156242966651917
vn -0.94343328475952148 0 -0.33156242966651917
vn 0.5839276909828186 0 -0.81180566549301147
vn 0.5839276909828186 0 -0.81180566549301147
vn 0.052335932850837708 0 -0.99862951040267944
vn 0.052335932850837708 0 -0.99862951040267944
vn -0.99862951040267944 0 -0.052335932850837708
vn -0.99862951040267944 0 -0.052335932850837708
vn 0.86839556694030762 0 -0.49587208032608032
vn 0.86839556694030762 0 -0.49587208032608032
vn -0.81180566549301147 0 -0.5839276909828186
vn -0.81180566549301147 0 -0.5839276909828186
vn 0.49587208032608032 0 0.86839556694030762
vn 0.49587208032608032 0 0.86839556694030762
vn 0.78898662328720093 0 -0.614410400390625
vn 0.78898662328720093 0 -0.614410400390625
vn -0.23113049566745758 0 -0.97292274236679077
vn -0.23113049566745758 0 -0.97292274236679077
vn -0.97292274236679077 0 0.23113049566745758
vn -0.97292274236679077 0 0.23113049566745758
vn -0.614410400390625 0 -0.78898662328720093
vn -0.614410400390625 0 -0.78898662328720093
vn 0.614410400390625 0 0.78898662328720093
vn 0.614410400390625 0 0.78898662328720093
vn -0.78898662328720093 0 0.614410400390625
vn -0.78898662328720093 0 0.614410400390625
vn 0.72044110298156738 0 0.69351613521575928
vn 0.72044110298156738 0 0.69351613521575928
vn 0.69351613521575928 0 -0.72044110298156738
vn 0.69351613521575928 0 -0.72044110298156738
vn 0.93012654781341553 0 -0.36723923683166504
vn 0.93012654781341553 0 -0.36723923683166504
vn -0.49587208032608032 0 -0.86839556694030762
vn -0.49587208032608032 0 -0.86839556694030762
vn -0.86839556694030762 0 0.49587208032608032
vn -0.86839556694030762 0 0.49587208032608032
vn -0.36723923683166504 0 -0.93012654781341553
vn -0.36723923683166504 0 -0.93012654781341553
vn 0.36723923683166504 0 0.93012654781341553
vn 0.36723923683166504 0 0.93012654781341553
vn -0.93012654781341553 0 0.36723923683166504
vn -0.93012654781341553 0 0.36723923683166504
vn 0.88664424419403076 0 0.46245214343070984
vn 0.88664424419403076 0 0.46245214343070984
vn 0.46245214343070984 0 -0.88664424419403076
vn 0.46245214343070984 0 -0.88664424419403076
vn 0.99591308832168579 0 -0.090316571295261383
vn 0.99591308832168579 0 -0.090316571295261383
vn -0.69351613521575928 0 0.72044110298156738
vn -0.69351613521575928 0 0.72044110298156738
vn -0.72044110298156738 0 -0.69351613521575928
vn -0.72044110298156738 0 -0.69351613521575928
vn -0.090316571295261383 0 -0.99591308832168579
vn -0.090316571295261383 0 -0.99591308832168579
vn 0.090316571295261383 0 0.99591308832168579
vn 0.090316571295261383 0 0.99591308832168579
vn -0.99591308832168579 0 0.090316571295261383
vn -0.99591308832168579 0 0.090316571295261383
vn 0.98101675510406494 0 0.19392307102680206
vn 0.98101675510406494 0 0.19392307102680206
vn -0.46245214343070984 0 0.88664424419403076
vn -0.46245214343070984 0 0.88664424419403076
vn -0.88664424419403076 0 -0.46245214343070984
vn -0.88664424419403076 0 -0.46245214343070984
vn 0.19392307102680206 0 -0.98101675510406494
vn 0.19392307102680206 0 -0.98101675510406494
vn 0.98101675510406494 0 0.19392307102680206
vn 0.98101675510406494 0 0.19392307102680206
vn 0.19392307102680206 0 -0.98101675510406494
vn 0.19392307102680206 0 -0.98101675510406494
vn -0.19392307102680206 0 0.98101675510406494
vn -0.19392307102680206 0 0.98101675510406494
vn -0.98101675510406494 0 -0.19392307102680206
vn -0.98101675510406494 0 -0.19392307102680206
vn -0.19392307102680206 0 0.98101675510406494
vn -0.19392307102680206 0 0.98101675510406494
vn 0.88664424419403076 0 0.46245214343070984
vn 0.88664424419403076 0 0.46245214343070984
vn 0.46245214343070984 0 -0.88664424419403076
vn 0.46245214343070984 0 -0.88664424419403076
vn -0.98101675510406494 0 -0.19392307102680206
vn -0.98101675510406494 0 -0.19392307102680206
vn 0.99591308832168579 0 -0.090316571295261383
vn 0.99591308832168579 0 -0.090316571295261383
vn -0.090316571295261383 0 -0.99591308832168579
vn -0.090316571295261383 0 -0.99591308832168579
vn 0.090316571295261383 0 0.99591308832168579
vn 0.090316571295261383 0 0.99591308832168579
vn 0.72044110298156738 0 0.69351613521575928
vn 0.72044110298156738 0 0.69351613521575928
vn 0.69351613521575928 0 -0.72044110298156738
vn 0.69351613521575928 0 -0.72044110298156738
vn -0.99591308832168579 0 0.090316571295261383
vn -0.99591308832168579 0 0.090316571295261383
vn -0.46245214343070984 0 0.88664424419403076
vn -0.46245214343070984 0 0.88664424419403076
vn -0.88664424419403076 0 -0.46245214343070984
vn -0.88664424419403076 0 -0.46245214343070984
vn 0.93012654781341553 0 -0.36723923683166504
vn 0.93012654781341553 0 -0.36723923683166504
vn -0.36723923683166504 0 -0.93012654781341553
vn -0.36723923683166504 0 -0.93012654781341553
vn 0.36723923683166504 0 0.93012654781341553
vn 0.36723923683166504 0 0.93012654781341553
vn 0.86839556694030762 0 -0.49587208032608032
vn 0.86839556694030762 0 -0.49587208032608032
vn 0.49587208032608032 0 0.86839556694030762
vn 0.49587208032608032 0 0.86839556694030762
vn -0.93012654781341553 0 0.36723923683166504
vn -0.93012654781341553 0 0.36723923683166504
vn -0.69351613521575928 0 0.72044110298156738
vn -0.69351613521575928 0 0.72044110298156738
vn -0.72044110298156738 0 -0.69351613521575928
vn -0.72044110298156738 0 -0.69351613521575928
vn 0.78898662328720093 0 -0.614410400390625
vn 0.78898662328720093 0 -0.614410400390625
vn -0.614410400390625 0 -0.78898662328720093
vn -0.614410400390625 0 -0.78898662328720093
vn 0.614410400390625 0 0.78898662328720093
vn 0.614410400390625 0 0.78898662328720093
vn 0.97292274236679077 0 -0.23113049566745758
vn 0.97292274236679077 0 -0.23113049566745758
vn 0.23113049566745758 0 0.97292274236679077
vn 0.23113049566745758 0 0.97292274236679077
vn -0.78898662328720093 0 0.614410400390625
vn -0.78898662328720093 0 0.614410400390625
vn -0.49587208032608032 0 -0.86839556694030762
vn -0.49587208032608032 0 -0.86839556694030762
vn 0.81180566549301147 0 0.5839276909828186
vn 0.81180566549301147 0 0.5839276909828186
vn -0.86839556694030762 0 0.49587208032608032
vn -0.86839556694030762 0 0.49587208032608032
vn 0.99862951040267944 0 0.052335932850837708
vn 0.99862951040267944 0 0.052335932850837708
vn -0.052335932850837708 0 0.99862951040267944
vn -0.052335932850837708 0 0.99862951040267944
vn -0.5839276909828186 0 0.81180566549301147
vn -0.5839276909828186 0 0.81180566549301147
vn 0.94343328475952148 0 0.33156242966651917
vn 0.94343328475952148 0 0.33156242966651917
vn 0.5839276909828186 0 -0.81180566549301147
vn 0.5839276909828186 0 -0.81180566549301147
vn -0.33156242966651917 0 0.94343328475952148
vn -0.33156242966651917 0 0.94343328475952148
vn -0.81180566549301147 0 -0.5839276909828186
vn -0.81180566549301147 0 -0.5839276909828186
vn -0.23113049566745758 0 -0.97292274236679077
vn -0.23113049566745758 0 -0.97292274236679077
vn -0.97292274236679077 0 0.23113049566745758
vn -0.97292274236679077 0 0.23113049566745758
vn 0.33156242966651917 0 -0.94343328475952148
vn 0.33156242966651917 0 -0.94343328475952148
vn -0.94343328475952148 0 -0.33156242966651917
vn -0.94343328475952148 0 -0.33156242966651917
vn 0.052335932850837708 0 -0.99862951040267944
vn 0.052335932850837708 0 -0.99862951040267944
vn -0.99862951040267944 0 -0.052335932850837708
vn -0.99862951040267944 0 -0.052335932850837708
f 2//2 1//1 3//3 4//4
f 4//4 3//3 25//25 26//26
f 26//26 25//25 23//23 24//24
f 24//24 23//23 1//1 2//2
f 10//10 9//9 11//11 12//12
f 12//12 11//11 37//37 38//38
f 38//38 37//37 35//35 36//36
f 36//36 35//35 9//9 10//10
f 28//28 27//27 31//31 32//32
f 32//32 31//31 53//53 54//54
f 54//54 53//53 51//51 52//52
f 52//52 51//51 27//27 28//28
f 48//48 47//47 45//45 46//46
f 46//46 45//45 67//67 68//68
f 68//68 67//67 69//69 70//70
f 70//70 69//69 47//47 48//48
f 64//64 63//63 61//61 62//62
f 62//62 61//61 79//79 80//80
f 80//80 79//79 81//81 82//82
f 82//82 81//81 63//63 64//64
f 88//88 87//87 85//85 86//86
f 86//86 85//85 93//93 94//94
f 94//94 93//93 99//99 100//100
f 100//100 99//99 87//87 88//88
f 104//104 103//103 101//101 102//102
f 102//102 101//101 105//105 106//106
f 106//106 105//105 111//111 112//112
f 112//112 111//111 103//103 104//104
f 120//120 119//119 117//117 118//118
f 118//118 117//117 121//121 122//122
f 122//122 121//121 127//127 128//128
f 128//128 127//127 119//119 120//120
f 136//136 135//135 133//133 134//134
f 134//134 133//133 137//137 138//138
f 138//138 137//137 143//143 144//144
f 144//144 143//143 135//135 136//136
f 164//164 163//163 159//159 160//160
f 160//160 159//159 147//147 148//148
f 148//148 147//147 155//155 156//156
f 156//156 155//155 163//163 164//164
f 172//172 171//171 169//169 170//170
f 170//170 169//169 157//157 158//158
f 158//158 157//157 161//161 162//162
f 162//162 161//161 171//171 172//172
f 176//176 175//175 173//173 174//174
f 174//174 173//173 151//151 152//152
f 152//152 151//151 153//153 154//154
f 154//154 153//153 175//175 176//176
f 168//168 167//167 165//165 166//166
f 166//166 165//165 139//139 140//140
f 140//140 139//139 141//141 142//142
f 142//142 141//141 167//167 168//168
f 150//150 149//149 145//145 146//146
f 146//146 145//145 123//123 124//124
f 124//124 123//123 125//125 126//126
f 126//126 125//125 149//149 150//150
f 130//130 129//129 131//131 132//132
f 132//132 131//131 109//109 110//110
f 110//110 109//109 107//107 108//108
f 108//108 107//107 129//129 130//130
f 114//114 113//113 115//115 116//116
f 116//116 115//115 97//97 98//98
f 98//98 97//97 95//95 96//96
f 96//96 95//95 113//113 114//114
f 90//90 89//89 91//91 92//92
f 92//92 91//91 83//83 84//84
f 84//84 83//83 77//77 78//78
f 78//78 77//77 89//89 90//90
f 74//74 73//73 75//75 76//76
f 76//76 75//75 71//71 72//72
f 72//72 71//71 65//65 66//66
f 66//66 65//65 73//73 74//74
f 58//58 57//57 59//59 60//60
f 60//60 59//59 55//55 56//56
f 56//56 55//55 49//49 50//50
f 50//50 49//49 57//57 58//58
f 42//42 41//41 43//43 44//44
f 44//44 43//43 39//39 40//40
f 40//40 39//39 33//33 34//34
f 34//34 33//33 41//41 42//42
f 14//14 13//13 17//17 18//18
f 18//18 17//17 29//29 30//30
f 30//30 29//29 21//21 22//22
f 22//22 21//21 13//13 14//14
f 6//6 5//5 7//7 8//8
f 8//8 7//7 19//19 20//20
f 20//20 19//19 15//15 16//16
f 16//16 15//15 5//5 6//6
