# Rhino

mtllib Frangisole37.mtl
usemtl diffuse_Black
v 1.3637206837563085 3 -0.078644013474956184
v 1.3637206837563085 0 -0.078644013474956198
v 1.3498275163471287 3 -0.064257217468183345
v 1.3498275163471287 0 -0.064257217468183386
v 1.330636993033508 3 0.30874613670614093
v 1.330636993033508 0 0.30874613670614093
v 1.3132533676994058 3 0.31863600881065046
v 1.3132533676994058 0 0.31863600881065041
v 1.2863238350403645 3 -0.45966289339827193
v 1.2863238350403645 0 -0.45966289339827199
v 1.2770466673537508 3 -0.44194470614013404
v 1.2770466673537508 0 -0.44194470614013398
v 1.1897530067380391 3 0.6711235110752849
v 1.1897530067380391 0 0.6711235110752849
v 1.1702872414191829 3 0.67571524065695776
v 1.1702872414191829 0 0.67571524065695776
v 1.1551939420183799 3 0.00036638880948972052
v 1.1551939420183799 0 0.00036638880948977604
v 1.1378103166842777 3 0.010256260913999227
v 1.1378103166842777 0 0.010256260913999227
v 1.1085036941847648 3 -0.32510419544425007
v 1.1085036941847648 0 -0.32510419544425007
v 1.1082972468725729 3 0.32580729042088463
v 1.1082972468725729 0 0.32580729042088469
v 1.104716679271859 3 -0.80344261941894712
v 1.104716679271859 0 -0.80344261941894712
v 1.1008070922603401 3 -0.78382846306698162
v 1.1008070922603401 0 -0.78382846306698162
v 1.094610526775585 3 -0.31071739943747723
v 1.094610526775585 0 -0.31071739943747728
v 1.0888314815537168 3 0.33039902000255744
v 1.0888314815537168 0 0.3303990200025575
v 0.97200906957361077 3 -0.62423677125219612
v 0.97200906957361077 0 -0.62423677125219623
v 0.97161290008267132 3 0.62485322301294466
v 0.97161290008267132 0 0.62485322301294466
v 0.96273190188699709 3 -0.60651858399405834
v 0.96273190188699709 0 -0.60651858399405822
v 0.95248230757023211 3 0.97913044990231435
v 0.95248230757023211 0 0.97913044990231435
v 0.951641995317831 3 0.62377481544914093
v 0.951641995317831 0 0.62377481544914093
v 0.9325114028053918 3 0.97805204233851062
v 0.9325114028053918 0 0.97805204233851062
v 0.83538667330385319 3 -1.0622110995235046
v 0.83538667330385319 0 -1.0622110995235046
v 0.83361194815181328 3 -1.082132202671541
v 0.83361194815181328 0 -1.082132202671541
v 0.75676805090612498 3 -0.87279739633231512
v 0.75676805090612498 0 -0.87279739633231512
v 0.75621425453248281 3 0.87327726362170044
v 0.75621425453248281 0 0.87327726362170044
v 0.75285846389460609 3 -0.85318323998034962
v 0.75285846389460609 0 -0.85318323998034962
v 0.73735613425416191 3 0.866616085079703
v 0.73735613425416191 0 0.866616085079703
v 0.63804715647348198 3 1.2078140627912586
v 0.63804715647348198 0 1.2078140627912586
v 0.61918903619516108 3 1.2011528842492611
v 0.61918903619516108 0 1.2011528842492611
v 0.50228819431213367 3 -1.254539709909283
v 0.50228819431213367 0 -1.254539709909283
v 0.49497293467365622 3 -1.2731538705516985
v 0.49497293467365622 0 -1.2731538705516985
v 0.48199291057915916 3 -1.0307280639395353
v 0.48199291057915916 0 -1.0307280639395353
v 0.48021818542711925 3 -1.0506491670875717
v 0.48021818542711925 0 -1.0506491670875717
v 0.47955162745941271 3 1.0509535739116893
v 0.47955162745941277 0 1.0509535739116893
v 0.46333406441900093 3 1.0392492734614165
v 0.46333406441900093 0 1.0392492734614165
v 0.27192121937179836 3 1.3386477634596701
v 0.27192121937179836 0 1.3386477634596701
v 0.25570365633138659 3 1.3269434630093973
v 0.25570365633138653 0 1.3269434630093975
v 0.17207915817080219 3 -1.124769430134168
v 0.17207915817080213 0 -1.124769430134168
v 0.16476389853232479 3 -1.1433835907765835
v 0.16476389853232473 0 -1.1433835907765835
v 0.16403857953292522 3 1.1434878759049192
v 0.16403857953292517 0 1.1434878759049192
v 0.15177542423839546 3 1.1276886663606969
v 0.15177542423839546 0 1.1276886663606969
v 0.12849731304015818 3 -1.3452329740331492
v 0.12849731304015813 0 -1.3452329740331492
v 0.11623415774562856 3 -1.3610321835773713
v 0.11623415774562851 0 -1.3610321835773713
v -0.11623415774562709 3 1.3610321835773713
v -0.11623415774562711 0 1.3610321835773713
v -0.12849731304015685 3 1.345232974033149
v -0.12849731304015682 0 1.345232974033149
v -0.15177542423839444 3 -1.1276886663606973
v -0.15177542423839438 0 -1.1276886663606973
v -0.16403857953292406 3 -1.1434878759049194
v -0.164038579532924 0 -1.1434878759049194
v -0.16476389853232373 3 1.1433835907765837
v -0.16476389853232365 0 1.1433835907765837
v -0.17207915817080119 3 1.124769430134168
v -0.17207915817080111 0 1.124769430134168
v -0.25570365633138542 3 -1.3269434630093975
v -0.25570365633138548 0 -1.3269434630093975
v -0.27192121937179736 3 -1.3386477634596705
v -0.27192121937179736 0 -1.3386477634596705
v -0.46333406441899999 3 -1.0392492734614167
v -0.46333406441900005 0 -1.0392492734614167
v -0.47955162745941193 3 -1.0509535739116898
v -0.47955162745941193 0 -1.0509535739116898
v -0.48021818542711814 3 1.0506491670875726
v -0.48021818542711814 0 1.0506491670875726
v -0.48199291057915805 3 1.0307280639395364
v -0.48199291057915805 0 1.0307280639395364
v -0.49497293467365489 3 1.2731538705516989
v -0.49497293467365494 0 1.2731538705516989
v -0.50228819431213234 3 1.2545397099092832
v -0.50228819431213245 0 1.2545397099092832
v -0.61918903619515908 3 -1.2011528842492623
v -0.61918903619515908 0 -1.2011528842492623
v -0.63804715647348009 3 -1.2078140627912597
v -0.63804715647348009 0 -1.2078140627912597
v -0.73735613425416047 3 -0.86661608507970433
v -0.73735613425416047 0 -0.86661608507970433
v -0.7528584638946052 3 0.85318323998035028
v -0.7528584638946052 0 0.85318323998035028
v -0.75621425453248148 3 -0.87327726362170177
v -0.75621425453248148 0 -0.87327726362170177
v -0.75676805090612409 3 0.8727973963323159
v -0.75676805090612409 0 0.8727973963323159
v -0.83361194815181228 3 1.0821322026715419
v -0.83361194815181228 0 1.0821322026715419
v -0.83538667330385219 3 1.0622110995235057
v -0.83538667330385219 0 1.0622110995235057
v -0.93251140280539047 3 -0.97805204233851173
v -0.93251140280539047 0 -0.97805204233851173
v -0.95164199531783011 3 -0.62377481544914215
v -0.95164199531783011 0 -0.62377481544914215
v -0.95248230757023078 3 -0.97913044990231546
v -0.95248230757023078 0 -0.97913044990231546
v -0.96273190188699687 3 0.606518583994059
v -0.96273190188699687 0 0.606518583994059
v -0.97161290008267043 3 -0.62485322301294588
v -0.97161290008267043 0 -0.62485322301294588
v -0.97200906957361077 3 0.62423677125219701
v -0.97200906957361077 0 0.6242367712521969
v -1.0888314815537163 3 -0.3303990200025595
v -1.0888314815537163 0 -0.3303990200025595
v -1.094610526775585 3 0.31071739943747723
v -1.094610526775585 0 0.31071739943747728
v -1.1008070922603395 3 0.78382846306698251
v -1.1008070922603395 0 0.78382846306698251
v -1.1047166792718583 3 0.80344261941894812
v -1.1047166792718583 0 0.80344261941894812
v -1.1082972468725723 3 -0.32580729042088674
v -1.1082972468725723 0 -0.32580729042088663
v -1.1085036941847648 3 0.32510419544425007
v -1.1085036941847648 0 0.32510419544425007
v -1.1378103166842777 3 -0.010256260914001225
v -1.1378103166842777 0 -0.010256260914001225
v -1.1551939420183799 3 -0.00036638880949174668
v -1.1551939420183799 0 -0.00036638880949180219
v -1.1702872414191821 3 -0.67571524065695976
v -1.1702872414191821 0 -0.67571524065695976
v -1.189753006738038 3 -0.671123511075287
v -1.189753006738038 0 -0.67112351107528689
v -1.2770466673537508 3 0.44194470614013476
v -1.2770466673537508 0 0.44194470614013481
v -1.2863238350403647 3 0.45966289339827276
v -1.2863238350403647 0 0.45966289339827271
v -1.3132533676994051 3 -0.31863600881065257
v -1.3132533676994051 0 -0.31863600881065257
v -1.3306369930335074 3 -0.30874613670614315
v -1.3306369930335074 0 -0.30874613670614315
v -1.3498275163471287 3 0.064257217468183345
v -1.3498275163471287 0 0.064257217468183386
v -1.3637206837563085 3 0.078644013474956184
v -1.3637206837563085 0 0.078644013474956198
vn 0.99984771013259888 0 -0.017452377825975418
vn 0.99984771013259888 0 -0.017452377825975418
vn 0.017452377825975418 0 0.99984771013259888
vn 0.017452377825975418 0 0.99984771013259888
vn 0.96426373720169067 0 0.26494419574737549
vn 0.96426373720169067 0 0.26494419574737549
vn -0.26494419574737549 0 0.96426373720169067
vn -0.26494419574737549 0 0.96426373720169067
vn 0.95442992448806763 0 -0.29843509197235107
vn 0.95442992448806763 0 -0.29843509197235107
vn 0.29843509197235107 0 0.95442992448806763
vn 0.29843509197235107 0 0.95442992448806763
vn 0.85056090354919434 0 0.52587658166885376
vn 0.85056090354919434 0 0.52587658166885376
vn -0.52587658166885376 0 0.85056090354919434
vn -0.52587658166885376 0 0.85056090354919434
vn 0.26494419574737549 0 -0.96426373720169067
vn 0.26494419574737549 0 -0.96426373720169067
vn -0.96426373720169067 0 -0.26494419574737549
vn -0.96426373720169067 0 -0.26494419574737549
vn -0.017452377825975418 0 -0.99984771013259888
vn -0.017452377825975418 0 -0.99984771013259888
vn 0.52587658166885376 0 -0.85056090354919434
vn 0.52587658166885376 0 -0.85056090354919434
vn 0.83168989419937134 0 -0.55524039268493652
vn 0.83168989419937134 0 -0.55524039268493652
vn 0.55524039268493652 0 0.83168989419937134
vn 0.55524039268493652 0 0.83168989419937134
vn -0.99984771013259888 0 0.017452377825975418
vn -0.99984771013259888 0 0.017452377825975418
vn -0.85056090354919434 0 -0.52587658166885376
vn -0.85056090354919434 0 -0.52587658166885376
vn -0.29843509197235107 0 -0.95442992448806763
vn -0.29843509197235107 0 -0.95442992448806763
vn 0.7442055344581604 0 -0.66795063018798828
vn 0.7442055344581604 0 -0.66795063018798828
vn -0.95442992448806763 0 0.29843509197235107
vn -0.95442992448806763 0 0.29843509197235107
vn 0.66795063018798828 0 0.7442055344581604
vn 0.66795063018798828 0 0.7442055344581604
vn -0.66795063018798828 0 -0.7442055344581604
vn -0.66795063018798828 0 -0.7442055344581604
vn -0.7442055344581604 0 0.66795063018798828
vn -0.7442055344581604 0 0.66795063018798828
vn 0.76706337928771973 0 0.64157134294509888
vn 0.76706337928771973 0 0.64157134294509888
vn 0.64157134294509888 0 -0.76706337928771973
vn 0.64157134294509888 0 -0.76706337928771973
vn -0.55524039268493652 0 -0.83168989419937134
vn -0.55524039268493652 0 -0.83168989419937134
vn 0.90224349498748779 0 -0.43122699856758118
vn 0.90224349498748779 0 -0.43122699856758118
vn -0.83168989419937134 0 0.55524039268493652
vn -0.83168989419937134 0 0.55524039268493652
vn -0.43122699856758118 0 -0.90224349498748779
vn -0.43122699856758118 0 -0.90224349498748779
vn 0.43122699856758118 0 0.90224349498748779
vn 0.43122699856758118 0 0.90224349498748779
vn -0.90224349498748779 0 0.43122699856758118
vn -0.90224349498748779 0 0.43122699856758118
vn 0.91674345731735229 0 0.39947649836540222
vn 0.91674345731735229 0 0.39947649836540222
vn 0.39947649836540222 0 -0.91674345731735229
vn 0.39947649836540222 0 -0.91674345731735229
vn -0.64157134294509888 0 0.76706337928771973
vn -0.64157134294509888 0 0.76706337928771973
vn -0.76706337928771973 0 -0.64157134294509888
vn -0.76706337928771973 0 -0.64157134294509888
vn 0.9871869683265686 0 -0.1595679372549057
vn 0.9871869683265686 0 -0.1595679372549057
vn -0.1595679372549057 0 -0.9871869683265686
vn -0.1595679372549057 0 -0.9871869683265686
vn 0.1595679372549057 0 0.9871869683265686
vn 0.1595679372549057 0 0.9871869683265686
vn -0.9871869683265686 0 0.1595679372549057
vn -0.9871869683265686 0 0.1595679372549057
vn -0.39947649836540222 0 0.91674345731735229
vn -0.39947649836540222 0 0.91674345731735229
vn -0.91674345731735229 0 -0.39947649836540222
vn -0.91674345731735229 0 -0.39947649836540222
vn 0.99215441942214966 0 0.1250184178352356
vn 0.99215441942214966 0 0.1250184178352356
vn 0.1250184178352356 0 -0.99215441942214966
vn 0.1250184178352356 0 -0.99215441942214966
vn 0.99215441942214966 0 0.1250184178352356
vn 0.99215441942214966 0 0.1250184178352356
vn 0.1250184178352356 0 -0.99215441942214966
vn 0.1250184178352356 0 -0.99215441942214966
vn -0.1250184178352356 0 0.99215441942214966
vn -0.1250184178352356 0 0.99215441942214966
vn -0.99215441942214966 0 -0.1250184178352356
vn -0.99215441942214966 0 -0.1250184178352356
vn -0.1250184178352356 0 0.99215441942214966
vn -0.1250184178352356 0 0.99215441942214966
vn -0.99215441942214966 0 -0.1250184178352356
vn -0.99215441942214966 0 -0.1250184178352356
vn 0.91674345731735229 0 0.39947649836540222
vn 0.91674345731735229 0 0.39947649836540222
vn 0.39947649836540222 0 -0.91674345731735229
vn 0.39947649836540222 0 -0.91674345731735229
vn 0.9871869683265686 0 -0.1595679372549057
vn 0.9871869683265686 0 -0.1595679372549057
vn -0.1595679372549057 0 -0.9871869683265686
vn -0.1595679372549057 0 -0.9871869683265686
vn 0.1595679372549057 0 0.9871869683265686
vn 0.1595679372549057 0 0.9871869683265686
vn -0.9871869683265686 0 0.1595679372549057
vn -0.9871869683265686 0 0.1595679372549057
vn 0.76706337928771973 0 0.64157134294509888
vn 0.76706337928771973 0 0.64157134294509888
vn 0.64157134294509888 0 -0.76706337928771973
vn 0.64157134294509888 0 -0.76706337928771973
vn -0.39947649836540222 0 0.91674345731735229
vn -0.39947649836540222 0 0.91674345731735229
vn -0.91674345731735229 0 -0.39947649836540222
vn -0.91674345731735229 0 -0.39947649836540222
vn 0.90224349498748779 0 -0.43122699856758118
vn 0.90224349498748779 0 -0.43122699856758118
vn -0.43122699856758118 0 -0.90224349498748779
vn -0.43122699856758118 0 -0.90224349498748779
vn 0.43122699856758118 0 0.90224349498748779
vn 0.43122699856758118 0 0.90224349498748779
vn 0.83168989419937134 0 -0.55524039268493652
vn 0.83168989419937134 0 -0.55524039268493652
vn -0.90224349498748779 0 0.43122699856758118
vn -0.90224349498748779 0 0.43122699856758118
vn 0.55524039268493652 0 0.83168989419937134
vn 0.55524039268493652 0 0.83168989419937134
vn -0.64157134294509888 0 0.76706337928771973
vn -0.64157134294509888 0 0.76706337928771973
vn -0.76706337928771973 0 -0.64157134294509888
vn -0.76706337928771973 0 -0.64157134294509888
vn 0.7442055344581604 0 -0.66795063018798828
vn 0.7442055344581604 0 -0.66795063018798828
vn 0.66795063018798828 0 0.7442055344581604
vn 0.66795063018798828 0 0.7442055344581604
vn -0.66795063018798828 0 -0.7442055344581604
vn -0.66795063018798828 0 -0.7442055344581604
vn 0.95442992448806763 0 -0.29843509197235107
vn 0.95442992448806763 0 -0.29843509197235107
vn -0.7442055344581604 0 0.66795063018798828
vn -0.7442055344581604 0 0.66795063018798828
vn 0.29843509197235107 0 0.95442992448806763
vn 0.29843509197235107 0 0.95442992448806763
vn 0.85056090354919434 0 0.52587658166885376
vn 0.85056090354919434 0 0.52587658166885376
vn 0.99984771013259888 0 -0.017452377825975418
vn 0.99984771013259888 0 -0.017452377825975418
vn -0.55524039268493652 0 -0.83168989419937134
vn -0.55524039268493652 0 -0.83168989419937134
vn -0.83168989419937134 0 0.55524039268493652
vn -0.83168989419937134 0 0.55524039268493652
vn -0.52587658166885376 0 0.85056090354919434
vn -0.52587658166885376 0 0.85056090354919434
vn 0.017452377825975418 0 0.99984771013259888
vn 0.017452377825975418 0 0.99984771013259888
vn 0.96426373720169067 0 0.26494419574737549
vn 0.96426373720169067 0 0.26494419574737549
vn -0.26494419574737549 0 0.96426373720169067
vn -0.26494419574737549 0 0.96426373720169067
vn 0.52587658166885376 0 -0.85056090354919434
vn 0.52587658166885376 0 -0.85056090354919434
vn -0.85056090354919434 0 -0.52587658166885376
vn -0.85056090354919434 0 -0.52587658166885376
vn -0.29843509197235107 0 -0.95442992448806763
vn -0.29843509197235107 0 -0.95442992448806763
vn -0.95442992448806763 0 0.29843509197235107
vn -0.95442992448806763 0 0.29843509197235107
vn 0.26494419574737549 0 -0.96426373720169067
vn 0.26494419574737549 0 -0.96426373720169067
vn -0.96426373720169067 0 -0.26494419574737549
vn -0.96426373720169067 0 -0.26494419574737549
vn -0.017452377825975418 0 -0.99984771013259888
vn -0.017452377825975418 0 -0.99984771013259888
vn -0.99984771013259888 0 0.017452377825975418
vn -0.99984771013259888 0 0.017452377825975418
f 2//2 1//1 3//3 4//4
f 4//4 3//3 29//29 30//30
f 30//30 29//29 21//21 22//22
f 22//22 21//21 1//1 2//2
f 10//10 9//9 11//11 12//12
f 12//12 11//11 37//37 38//38
f 38//38 37//37 33//33 34//34
f 34//34 33//33 9//9 10//10
f 26//26 25//25 27//27 28//28
f 28//28 27//27 53//53 54//54
f 54//54 53//53 49//49 50//50
f 50//50 49//49 25//25 26//26
f 48//48 47//47 45//45 46//46
f 46//46 45//45 65//65 66//66
f 66//66 65//65 67//67 68//68
f 68//68 67//67 47//47 48//48
f 64//64 63//63 61//61 62//62
f 62//62 61//61 77//77 78//78
f 78//78 77//77 79//79 80//80
f 80//80 79//79 63//63 64//64
f 88//88 87//87 85//85 86//86
f 86//86 85//85 93//93 94//94
f 94//94 93//93 95//95 96//96
f 96//96 95//95 87//87 88//88
f 104//104 103//103 101//101 102//102
f 102//102 101//101 105//105 106//106
f 106//106 105//105 107//107 108//108
f 108//108 107//107 103//103 104//104
f 120//120 119//119 117//117 118//118
f 118//118 117//117 121//121 122//122
f 122//122 121//121 125//125 126//126
f 126//126 125//125 119//119 120//120
f 138//138 137//137 133//133 134//134
f 134//134 133//133 135//135 136//136
f 136//136 135//135 141//141 142//142
f 142//142 141//141 137//137 138//138
f 164//164 163//163 161//161 162//162
f 162//162 161//161 145//145 146//146
f 146//146 145//145 153//153 154//154
f 154//154 153//153 163//163 164//164
f 172//172 171//171 169//169 170//170
f 170//170 169//169 157//157 158//158
f 158//158 157//157 159//159 160//160
f 160//160 159//159 171//171 172//172
f 176//176 175//175 173//173 174//174
f 174//174 173//173 147//147 148//148
f 148//148 147//147 155//155 156//156
f 156//156 155//155 175//175 176//176
f 168//168 167//167 165//165 166//166
f 166//166 165//165 139//139 140//140
f 140//140 139//139 143//143 144//144
f 144//144 143//143 167//167 168//168
f 152//152 151//151 149//149 150//150
f 150//150 149//149 123//123 124//124
f 124//124 123//123 127//127 128//128
f 128//128 127//127 151//151 152//152
f 130//130 129//129 131//131 132//132
f 132//132 131//131 111//111 112//112
f 112//112 111//111 109//109 110//110
f 110//110 109//109 129//129 130//130
f 114//114 113//113 115//115 116//116
f 116//116 115//115 99//99 100//100
f 100//100 99//99 97//97 98//98
f 98//98 97//97 113//113 114//114
f 90//90 89//89 91//91 92//92
f 92//92 91//91 83//83 84//84
f 84//84 83//83 81//81 82//82
f 82//82 81//81 89//89 90//90
f 74//74 73//73 75//75 76//76
f 76//76 75//75 71//71 72//72
f 72//72 71//71 69//69 70//70
f 70//70 69//69 73//73 74//74
f 58//58 57//57 59//59 60//60
f 60//60 59//59 55//55 56//56
f 56//56 55//55 51//51 52//52
f 52//52 51//51 57//57 58//58
f 40//40 39//39 43//43 44//44
f 44//44 43//43 41//41 42//42
f 42//42 41//41 35//35 36//36
f 36//36 35//35 39//39 40//40
f 14//14 13//13 15//15 16//16
f 16//16 15//15 31//31 32//32
f 32//32 31//31 23//23 24//24
f 24//24 23//23 13//13 14//14
f 6//6 5//5 7//7 8//8
f 8//8 7//7 19//19 20//20
f 20//20 19//19 17//17 18//18
f 18//18 17//17 5//5 6//6
