# Rhino

mtllib Frangisole29.mtl
usemtl diffuse_Black
v 1.3462620165946149 3 -0.061046827071076698
v 1.3462620165946149 0 -0.061046827071076754
v 1.3305018015224805 3 -0.048733597564563608
v 1.3305018015224805 0 -0.048733597564563663
v 1.3089278242444085 3 0.32071183847754037
v 1.3089278242444085 0 0.32071183847754042
v 1.2903369709881969 3 0.32808612998289921
v 1.2903369709881969 0 0.32808612998289921
v 1.2745300668888255 3 -0.43785984174985754
v 1.2745300668888255 0 -0.43785984174985759
v 1.2628772888963047 3 -0.42160521886721231
v 1.2628772888963047 0 -0.42160521886721225
v 1.178110338729589 3 -0.0090837323627591671
v 1.178110338729589 0 -0.0090837323627591671
v 1.1655520840674287 3 0.67648833821945409
v 1.1655520840674287 0 0.67648833821945409
v 1.1595194854733775 3 -0.0017094408574003239
v 1.1595194854733775 0 -0.0017094408574003517
v 1.1456367129938969 3 0.67832627048249472
v 1.1456367129938969 0 0.67832627048249472
v 1.1329477752978596 3 0.32319626059534756
v 1.1329477752978596 0 0.32319626059534767
v 1.1278294090094132 3 -0.34062781534787001
v 1.1278294090094132 0 -0.34062781534787001
v 1.1130324042243278 3 0.32503419285838819
v 1.1130324042243278 0 0.32503419285838819
v 1.1120691939372789 3 -0.32831458584135698
v 1.1120691939372789 0 -0.32831458584135692
v 1.0995432710858726 3 -0.7792000561028114
v 1.0995432710858726 0 -0.7792000561028114
v 1.0929419689441799 3 -0.76032089272002135
v 1.0929419689441799 0 -0.76032089272002135
v 0.99600052101135583 3 0.62929281464219244
v 0.99600052101135583 0 0.62929281464219233
v 0.98617844803105703 3 -0.64457625852511824
v 0.98617844803105714 0 -0.64457625852511835
v 0.9763740570436088 3 0.62544548932156729
v 0.9763740570436088 0 0.62544548932156729
v 0.97452567003853618 3 -0.62832163564247301
v 0.9745256700385363 0 -0.62832163564247301
v 0.92775024584445454 3 0.97745977602988821
v 0.92775024584445454 0 0.97745977602988821
v 0.9081237818767075 3 0.97361245070926306
v 0.9081237818767075 0 0.97361245070926306
v 0.83547801869516469 3 -1.0574141159914818
v 0.83547801869516469 0 -1.0574141159914818
v 0.8344629906443648 3 -1.0374398896471129
v 0.8344629906443648 0 -1.0374398896471129
v 0.77836322795568991 3 0.88440780739519909
v 0.77836322795568991 0 0.88440780739519909
v 0.76463317422228516 3 -0.89630496667927551
v 0.76463317422228527 0 -0.89630496667927551
v 0.76061569048131894 3 0.87518691190746045
v 0.76061569048131894 0 0.87518691190746045
v 0.75803187208059253 3 -0.87742580329648545
v 0.75803187208059264 0 -0.87742580329648545
v 0.61478760024632517 3 1.1992432359635012
v 0.61478760024632517 0 1.1992432359635012
v 0.59704006277195421 3 1.1900223404757626
v 0.59704006277195421 0 1.1900223404757626
v 0.50838078358503636 3 -1.230511676607587
v 0.50838078358503636 0 -1.230511676607587
v 0.50372730600887194 3 -1.2499627728864122
v 0.50372730600887194 0 -1.2499627728864122
v 0.49766757527541083 3 1.0678733393688027
v 0.49766757527541083 0 1.0678733393688027
v 0.48323676423192036 3 1.0540258958275905
v 0.4832367642319203 0 1.0540258958275905
v 0.48114186808660764 3 -1.0754203769639639
v 0.48114186808660769 0 -1.0754203769639639
v 0.48012684003580774 3 -1.0554461506195949
v 0.4801268400358078 0 -1.0554461506195949
v 0.25201851955887922 3 1.3238711410934962
v 0.25201851955887927 0 1.3238711410934962
v 0.23758770851538877 3 1.3100236975522841
v 0.23758770851538874 0 1.3100236975522841
v 0.17665385538935219 3 1.1648261242740321
v 0.17665385538935222 0 1.1648261242740321
v 0.16670886926414749 3 1.1474739702011372
v 0.16670886926414755 0 1.1474739702011372
v 0.16332478683558641 3 -1.147960527799454
v 0.16332478683558635 0 -1.147960527799454
v 0.15867130925942199 3 -1.1674116240782793
v 0.15867130925942194 0 -1.1674116240782793
v 0.14111258889658515 3 -1.3238947256640365
v 0.14111258889658512 0 -1.3238947256640365
v 0.13116760277138059 3 -1.3412468797369312
v 0.13116760277138051 0 -1.3412468797369312
v -0.13116760277137898 3 1.3412468797369315
v -0.13116760277137904 0 1.3412468797369315
v -0.14111258889658368 3 1.3238947256640365
v -0.14111258889658371 0 1.3238947256640365
v -0.15867130925942083 3 1.1674116240782795
v -0.1586713092594208 0 1.1674116240782795
v -0.16332478683558529 3 1.1479605277994542
v -0.16332478683558527 0 1.1479605277994542
v -0.1667088692641466 3 -1.1474739702011374
v -0.16670886926414655 0 -1.1474739702011374
v -0.17665385538935116 3 -1.1648261242740321
v -0.17665385538935116 0 -1.1648261242740321
v -0.23758770851538769 3 -1.3100236975522841
v -0.23758770851538769 0 -1.3100236975522841
v -0.25201851955887833 3 -1.3238711410934965
v -0.25201851955887833 0 -1.3238711410934965
v -0.4801268400358068 3 1.0554461506195953
v -0.4801268400358068 0 1.0554461506195953
v -0.48114186808660669 3 1.0754203769639643
v -0.48114186808660669 0 1.0754203769639643
v -0.48323676423191941 3 -1.0540258958275908
v -0.48323676423191941 0 -1.0540258958275908
v -0.49766757527541006 3 -1.0678733393688031
v -0.49766757527541006 0 -1.0678733393688031
v -0.50372730600887072 3 1.2499627728864129
v -0.50372730600887072 0 1.2499627728864129
v -0.50838078358503513 3 1.2305116766075876
v -0.50838078358503513 0 1.2305116766075876
v -0.59704006277195243 3 -1.1900223404757635
v -0.59704006277195243 0 -1.1900223404757635
v -0.61478760024632328 3 -1.1992432359635021
v -0.61478760024632328 0 -1.1992432359635021
v -0.75803187208059186 3 0.87742580329648612
v -0.75803187208059197 0 0.87742580329648612
v -0.76061569048131761 3 -0.87518691190746178
v -0.76061569048131761 0 -0.8751869119074619
v -0.7646331742222845 3 0.89630496667927617
v -0.7646331742222845 0 0.89630496667927617
v -0.77836322795568846 3 -0.88440780739520042
v -0.77836322795568846 0 -0.88440780739520053
v -0.83446299064436369 3 1.0374398896471138
v -0.83446299064436369 0 1.0374398896471138
v -0.83547801869516358 3 1.0574141159914827
v -0.83547801869516358 0 1.0574141159914827
v -0.90812378187670617 3 -0.97361245070926405
v -0.90812378187670617 0 -0.97361245070926428
v -0.9277502458444532 3 -0.97745977602988932
v -0.9277502458444532 0 -0.97745977602988932
v -0.97452567003853607 3 0.62832163564247367
v -0.97452567003853607 0 0.62832163564247356
v -0.97637405704360791 3 -0.62544548932156852
v -0.97637405704360791 0 -0.62544548932156852
v -0.98617844803105714 3 0.64457625852511891
v -0.98617844803105714 0 0.64457625852511891
v -0.99600052101135494 3 -0.62929281464219378
v -0.99600052101135494 0 -0.62929281464219367
v -1.0929419689441791 3 0.76032089272002235
v -1.0929419689441791 0 0.76032089272002235
v -1.0995432710858717 3 0.7792000561028124
v -1.0995432710858717 0 0.7792000561028124
v -1.1120691939372789 3 0.32831458584135698
v -1.1120691939372789 0 0.32831458584135692
v -1.1130324042243269 3 -0.32503419285839008
v -1.1130324042243269 0 -0.32503419285839019
v -1.1278294090094132 3 0.34062781534787001
v -1.1278294090094132 0 0.34062781534787001
v -1.1329477752978589 3 -0.32319626059534956
v -1.1329477752978589 0 -0.32319626059534956
v -1.1456367129938956 3 -0.67832627048249694
v -1.1456367129938956 0 -0.67832627048249683
v -1.1595194854733772 3 0.0017094408573984921
v -1.1595194854733772 0 0.0017094408573984643
v -1.1655520840674276 3 -0.67648833821945631
v -1.1655520840674276 0 -0.6764883382194562
v -1.1781103387295888 3 0.0090837323627572797
v -1.1781103387295888 0 0.0090837323627572242
v -1.2628772888963047 3 0.42160521886721303
v -1.2628772888963047 0 0.42160521886721303
v -1.2745300668888258 3 0.43785984174985837
v -1.2745300668888258 0 0.43785984174985837
v -1.2903369709881962 3 -0.32808612998290149
v -1.2903369709881962 0 -0.32808612998290143
v -1.3089278242444078 3 -0.3207118384775427
v -1.3089278242444078 0 -0.3207118384775427
v -1.3305018015224805 3 0.048733597564563608
v -1.3305018015224805 0 0.048733597564563663
v -1.3462620165946149 3 0.061046827071076698
v -1.3462620165946149 0 0.061046827071076754
vn 0.99254614114761353 0 0.12186934053897858
vn 0.99254614114761353 0 0.12186934053897858
vn -0.12186934053897858 0 0.99254614114761353
vn -0.12186934053897858 0 0.99254614114761353
vn 0.91800647974014282 0 0.39656534790992737
vn 0.91800647974014282 0 0.39656534790992737
vn -0.39656534790992737 0 0.91800647974014282
vn -0.39656534790992737 0 0.91800647974014282
vn 0.98667562007904053 0 -0.16269977390766144
vn 0.98667562007904053 0 -0.16269977390766144
vn 0.16269977390766144 0 0.98667562007904053
vn 0.16269977390766144 0 0.98667562007904053
vn 0.39656534790992737 0 -0.91800647974014282
vn 0.39656534790992737 0 -0.91800647974014282
vn 0.76909542083740234 0 0.6391339898109436
vn 0.76909542083740234 0 0.6391339898109436
vn -0.91800647974014282 0 -0.39656534790992737
vn -0.91800647974014282 0 -0.39656534790992737
vn -0.6391339898109436 0 0.76909542083740234
vn -0.6391339898109436 0 0.76909542083740234
vn 0.6391339898109436 0 -0.76909542083740234
vn 0.6391339898109436 0 -0.76909542083740234
vn 0.12186934053897858 0 -0.99254614114761353
vn 0.12186934053897858 0 -0.99254614114761353
vn -0.76909542083740234 0 -0.6391339898109436
vn -0.76909542083740234 0 -0.6391339898109436
vn -0.99254614114761353 0 -0.12186934053897858
vn -0.99254614114761353 0 -0.12186934053897858
vn 0.90087050199508667 0 -0.43408793210983276
vn 0.90087050199508667 0 -0.43408793210983276
vn 0.43408793210983276 0 0.90087050199508667
vn 0.43408793210983276 0 0.90087050199508667
vn 0.82992380857467651 0 -0.55787676572799683
vn 0.82992380857467651 0 -0.55787676572799683
vn -0.16269977390766144 0 -0.98667562007904053
vn -0.16269977390766144 0 -0.98667562007904053
vn -0.55787676572799683 0 -0.82992380857467651
vn -0.55787676572799683 0 -0.82992380857467651
vn -0.98667562007904053 0 0.16269977390766144
vn -0.98667562007904053 0 0.16269977390766144
vn 0.55787676572799683 0 0.82992380857467651
vn 0.55787676572799683 0 0.82992380857467651
vn -0.82992380857467651 0 0.55787676572799683
vn -0.82992380857467651 0 0.55787676572799683
vn 0.74208217859268188 0 -0.67030888795852661
vn 0.74208217859268188 0 -0.67030888795852661
vn 0.67030888795852661 0 0.74208217859268188
vn 0.67030888795852661 0 0.74208217859268188
vn 0.95347809791564941 0 -0.30146229267120361
vn 0.95347809791564941 0 -0.30146229267120361
vn -0.43408793210983276 0 -0.90087050199508667
vn -0.43408793210983276 0 -0.90087050199508667
vn -0.30146229267120361 0 -0.95347809791564941
vn -0.30146229267120361 0 -0.95347809791564941
vn -0.90087050199508667 0 0.43408793210983276
vn -0.90087050199508667 0 0.43408793210983276
vn 0.30146229267120361 0 0.95347809791564941
vn 0.30146229267120361 0 0.95347809791564941
vn -0.95347809791564941 0 0.30146229267120361
vn -0.95347809791564941 0 0.30146229267120361
vn 0.85222536325454712 0 0.52317482233047485
vn 0.85222536325454712 0 0.52317482233047485
vn 0.52317482233047485 0 -0.85222536325454712
vn 0.52317482233047485 0 -0.85222536325454712
vn 0.99978727102279663 0 -0.020625149831175804
vn 0.99978727102279663 0 -0.020625149831175804
vn -0.020625149831175804 0 -0.99978727102279663
vn -0.020625149831175804 0 -0.99978727102279663
vn -0.67030888795852661 0 -0.74208217859268188
vn -0.67030888795852661 0 -0.74208217859268188
vn -0.74208217859268188 0 0.67030888795852661
vn -0.74208217859268188 0 0.67030888795852661
vn 0.020625149831175804 0 0.99978727102279663
vn 0.020625149831175804 0 0.99978727102279663
vn -0.99978727102279663 0 0.020625149831175804
vn -0.99978727102279663 0 0.020625149831175804
vn 0.96509963274002075 0 0.2618829607963562
vn 0.96509963274002075 0 0.2618829607963562
vn 0.2618829607963562 0 -0.96509963274002075
vn 0.2618829607963562 0 -0.96509963274002075
vn -0.52317482233047485 0 0.85222536325454712
vn -0.52317482233047485 0 0.85222536325454712
vn -0.85222536325454712 0 -0.52317482233047485
vn -0.85222536325454712 0 -0.52317482233047485
vn 0.96509963274002075 0 0.2618829607963562
vn 0.96509963274002075 0 0.2618829607963562
vn 0.2618829607963562 0 -0.96509963274002075
vn 0.2618829607963562 0 -0.96509963274002075
vn -0.2618829607963562 0 0.96509963274002075
vn -0.2618829607963562 0 0.96509963274002075
vn -0.96509963274002075 0 -0.2618829607963562
vn -0.96509963274002075 0 -0.2618829607963562
vn 0.85222536325454712 0 0.52317482233047485
vn 0.85222536325454712 0 0.52317482233047485
vn 0.52317482233047485 0 -0.85222536325454712
vn 0.52317482233047485 0 -0.85222536325454712
vn -0.2618829607963562 0 0.96509963274002075
vn -0.2618829607963562 0 0.96509963274002075
vn -0.96509963274002075 0 -0.2618829607963562
vn -0.96509963274002075 0 -0.2618829607963562
vn 0.99978727102279663 0 -0.020625149831175804
vn 0.99978727102279663 0 -0.020625149831175804
vn -0.020625149831175804 0 -0.99978727102279663
vn -0.020625149831175804 0 -0.99978727102279663
vn 0.74208217859268188 0 -0.67030888795852661
vn 0.74208217859268188 0 -0.67030888795852661
vn 0.67030888795852661 0 0.74208217859268188
vn 0.67030888795852661 0 0.74208217859268188
vn 0.020625149831175804 0 0.99978727102279663
vn 0.020625149831175804 0 0.99978727102279663
vn -0.99978727102279663 0 0.020625149831175804
vn -0.99978727102279663 0 0.020625149831175804
vn -0.52317482233047485 0 0.85222536325454712
vn -0.52317482233047485 0 0.85222536325454712
vn -0.85222536325454712 0 -0.52317482233047485
vn -0.85222536325454712 0 -0.52317482233047485
vn 0.95347809791564941 0 -0.30146229267120361
vn 0.95347809791564941 0 -0.30146229267120361
vn -0.30146229267120361 0 -0.95347809791564941
vn -0.30146229267120361 0 -0.95347809791564941
vn 0.90087050199508667 0 -0.43408793210983276
vn 0.90087050199508667 0 -0.43408793210983276
vn 0.30146229267120361 0 0.95347809791564941
vn 0.30146229267120361 0 0.95347809791564941
vn 0.43408793210983276 0 0.90087050199508667
vn 0.43408793210983276 0 0.90087050199508667
vn -0.95347809791564941 0 0.30146229267120361
vn -0.95347809791564941 0 0.30146229267120361
vn -0.67030888795852661 0 -0.74208217859268188
vn -0.67030888795852661 0 -0.74208217859268188
vn -0.74208217859268188 0 0.67030888795852661
vn -0.74208217859268188 0 0.67030888795852661
vn 0.82992380857467651 0 -0.55787676572799683
vn 0.82992380857467651 0 -0.55787676572799683
vn -0.55787676572799683 0 -0.82992380857467651
vn -0.55787676572799683 0 -0.82992380857467651
vn 0.98667562007904053 0 -0.16269977390766144
vn 0.98667562007904053 0 -0.16269977390766144
vn 0.55787676572799683 0 0.82992380857467651
vn 0.55787676572799683 0 0.82992380857467651
vn 0.16269977390766144 0 0.98667562007904053
vn 0.16269977390766144 0 0.98667562007904053
vn -0.82992380857467651 0 0.55787676572799683
vn -0.82992380857467651 0 0.55787676572799683
vn -0.43408793210983276 0 -0.90087050199508667
vn -0.43408793210983276 0 -0.90087050199508667
vn -0.90087050199508667 0 0.43408793210983276
vn -0.90087050199508667 0 0.43408793210983276
vn 0.99254614114761353 0 0.12186934053897858
vn 0.99254614114761353 0 0.12186934053897858
vn 0.76909542083740234 0 0.6391339898109436
vn 0.76909542083740234 0 0.6391339898109436
vn -0.12186934053897858 0 0.99254614114761353
vn -0.12186934053897858 0 0.99254614114761353
vn -0.6391339898109436 0 0.76909542083740234
vn -0.6391339898109436 0 0.76909542083740234
vn 0.6391339898109436 0 -0.76909542083740234
vn 0.6391339898109436 0 -0.76909542083740234
vn 0.91800647974014282 0 0.39656534790992737
vn 0.91800647974014282 0 0.39656534790992737
vn -0.76909542083740234 0 -0.6391339898109436
vn -0.76909542083740234 0 -0.6391339898109436
vn -0.39656534790992737 0 0.91800647974014282
vn -0.39656534790992737 0 0.91800647974014282
vn -0.16269977390766144 0 -0.98667562007904053
vn -0.16269977390766144 0 -0.98667562007904053
vn -0.98667562007904053 0 0.16269977390766144
vn -0.98667562007904053 0 0.16269977390766144
vn 0.39656534790992737 0 -0.91800647974014282
vn 0.39656534790992737 0 -0.91800647974014282
vn -0.91800647974014282 0 -0.39656534790992737
vn -0.91800647974014282 0 -0.39656534790992737
vn 0.12186934053897858 0 -0.99254614114761353
vn 0.12186934053897858 0 -0.99254614114761353
vn -0.99254614114761353 0 -0.12186934053897858
vn -0.99254614114761353 0 -0.12186934053897858
f 2//2 1//1 3//3 4//4
f 4//4 3//3 27//27 28//28
f 28//28 27//27 23//23 24//24
f 24//24 23//23 1//1 2//2
f 10//10 9//9 11//11 12//12
f 12//12 11//11 39//39 40//40
f 40//40 39//39 35//35 36//36
f 36//36 35//35 9//9 10//10
f 30//30 29//29 31//31 32//32
f 32//32 31//31 55//55 56//56
f 56//56 55//55 51//51 52//52
f 52//52 51//51 29//29 30//30
f 46//46 45//45 47//47 48//48
f 48//48 47//47 71//71 72//72
f 72//72 71//71 69//69 70//70
f 70//70 69//69 45//45 46//46
f 64//64 63//63 61//61 62//62
f 62//62 61//61 81//81 82//82
f 82//82 81//81 83//83 84//84
f 84//84 83//83 63//63 64//64
f 88//88 87//87 85//85 86//86
f 86//86 85//85 97//97 98//98
f 98//98 97//97 99//99 100//100
f 100//100 99//99 87//87 88//88
f 104//104 103//103 101//101 102//102
f 102//102 101//101 109//109 110//110
f 110//110 109//109 111//111 112//112
f 112//112 111//111 103//103 104//104
f 120//120 119//119 117//117 118//118
f 118//118 117//117 123//123 124//124
f 124//124 123//123 127//127 128//128
f 128//128 127//127 119//119 120//120
f 136//136 135//135 133//133 134//134
f 134//134 133//133 139//139 140//140
f 140//140 139//139 143//143 144//144
f 144//144 143//143 135//135 136//136
f 162//162 161//161 157//157 158//158
f 158//158 157//157 151//151 152//152
f 152//152 151//151 155//155 156//156
f 156//156 155//155 161//161 162//162
f 172//172 171//171 169//169 170//170
f 170//170 169//169 159//159 160//160
f 160//160 159//159 163//163 164//164
f 164//164 163//163 171//171 172//172
f 176//176 175//175 173//173 174//174
f 174//174 173//173 149//149 150//150
f 150//150 149//149 153//153 154//154
f 154//154 153//153 175//175 176//176
f 168//168 167//167 165//165 166//166
f 166//166 165//165 137//137 138//138
f 138//138 137//137 141//141 142//142
f 142//142 141//141 167//167 168//168
f 148//148 147//147 145//145 146//146
f 146//146 145//145 121//121 122//122
f 122//122 121//121 125//125 126//126
f 126//126 125//125 147//147 148//148
f 132//132 131//131 129//129 130//130
f 130//130 129//129 105//105 106//106
f 106//106 105//105 107//107 108//108
f 108//108 107//107 131//131 132//132
f 114//114 113//113 115//115 116//116
f 116//116 115//115 95//95 96//96
f 96//96 95//95 93//93 94//94
f 94//94 93//93 113//113 114//114
f 90//90 89//89 91//91 92//92
f 92//92 91//91 79//79 80//80
f 80//80 79//79 77//77 78//78
f 78//78 77//77 89//89 90//90
f 74//74 73//73 75//75 76//76
f 76//76 75//75 67//67 68//68
f 68//68 67//67 65//65 66//66
f 66//66 65//65 73//73 74//74
f 58//58 57//57 59//59 60//60
f 60//60 59//59 53//53 54//54
f 54//54 53//53 49//49 50//50
f 50//50 49//49 57//57 58//58
f 42//42 41//41 43//43 44//44
f 44//44 43//43 37//37 38//38
f 38//38 37//37 33//33 34//34
f 34//34 33//33 41//41 42//42
f 16//16 15//15 19//19 20//20
f 20//20 19//19 25//25 26//26
f 26//26 25//25 21//21 22//22
f 22//22 21//21 15//15 16//16
f 6//6 5//5 7//7 8//8
f 8//8 7//7 17//17 18//18
f 18//18 17//17 13//13 14//14
f 14//14 13//13 5//5 6//6
